<svg xmlns="http://www.w3.org/2000/svg" width="744.09" height="1052.36" viewBox="0 0 21000 29700" shape-rendering="geometricPrecision" image-rendering="optimizeQuality" fill-rule="evenodd" text-rendering="geometricPrecision" clip-rule="evenodd"><text x="10081" y="24148" fill="#201e1e" font-family="&apos;Arial Black&apos;" stroke="#201e1e" font-weight="900" stroke-width="7.62" font-size="705.56">40</text><g fill="none" stroke="#373435" stroke-width="80"><circle cx="10533" cy="1008" r="460"/><path d="m10533 198v1621"/><path d="m9723 1008h1621"/><circle cx="10533" cy="25519" r="460"/><path d="m10533 24708v1621"/><path d="m9723 25519h1621"/></g><rect x="9843" y="22866" width="1347" height="637" rx="318" fill="#fff" stroke="#fff" stroke-width="20"/><g stroke="#201e1e"><g fill-rule="nonzero" stroke-width="100"><g fill="none"><path d="m5818 9238c-76-127-151-190-303-190-167 0-303 114-303 253 0 253 303 507 606 760 303-253 606-507 606-760 0-140-136-253-303-253-151 0-227 63-303 190z"/><path d="m7333 3126c-121-203-242-304-485-304-268 0-485 182-485 406 0 406 485 811 970 1217 485-406 970-811 970-1217 0-224-217-406-485-406-242 0-364 101-485 304z"/><path d="m5361 7288c-76-127-152-190-303-190-167 0-303 114-303 253 0 253 303 507 606 760 303-253 606-507 606-760 0-140-136-253-303-253-152 0-227 63-303 190z"/><path d="m3969 10069c-76-127-152-190-303-190-167 0-303 114-303 253 0 253 303 507 606 760 303-253 606-507 606-760 0-140-136-253-303-253-152 0-227 63-303 190z"/><path d="m1618 11460c-76-127-151-190-303-190-167 0-303 114-303 253 0 253 303 507 606 760 303-253 606-507 606-760 0-140-136-253-303-253-151 0-227 63-303 190z"/><path d="m7578 12532c-76-127-152-190-303-190-167 0-303 114-303 253 0 253 303 507 606 760 303-253 606-507 606-760 0-140-136-253-303-253-152 0-227 63-303 190z"/><path d="m1652 13073c-76-127-152-190-303-190-167 0-303 114-303 253 0 253 303 507 606 760 303-253 606-507 606-760 0-140-136-253-303-253-152 0-227 63-303 190z"/><path d="m7157 18148c-63-106-127-159-254-159-140 0-254 95-254 212 0 212 254 425 508 637 254-212 508-425 508-637 0-117-114-212-254-212-127 0-190 53-254 159z"/><path d="m4769 18002c-68-113-135-170-271-170-150 0-271 102-271 227 0 227 271 453 542 680 271-227 542-453 542-680 0-125-121-227-271-227-135 0-203 57-271 170z"/><path d="m2388 18009c-105-189-210-284-420-284-232 0-420 169-420 378 0 378 420 757 841 1135 420-378 841-757 841-1135 0-209-188-378-420-378-210 0-315 95-420 284z"/></g><g fill="#201e1e"><path d="m8468 5393c-121-203-242-304-485-304-268 0-485 182-485 406 0 406 485 811 970 1217 485-406 970-811 970-1217 0-224-217-406-485-406-242 0-364 101-485 304z"/><path d="m4577 5178c-112-187-223-280-447-280-247 0-447 167-447 374 0 374 447 747 893 1121 447-374 893-747 893-1121 0-206-200-374-447-374-223 0-335 93-447 280z"/><path d="m2803 7891c-112-187-223-280-447-280-247 0-447 167-447 374 0 374 447 747 893 1121 447-374 893-747 893-1121 0-206-200-374-447-374-223 0-335 93-447 280z"/><path d="m8356 9064c-112-187-223-280-447-280-247 0-447 167-447 374 0 374 447 747 893 1121 447-374 893-747 893-1121 0-206-200-374-447-374-223 0-335 93-447 280z"/><path d="m1798 15628c-56-93-111-139-222-139-123 0-222 83-222 186 0 186 222 372 445 558 222-186 445-372 445-558 0-103-100-186-222-186-111 0-167 46-222 139z"/><path d="m4500 19653c-67-112-134-168-268-168-148 0-268 101-268 225 0 225 268 449 537 674 268-225 537-449 537-674 0-124-120-225-268-225-134 0-201 56-268 168z"/></g></g><g fill="#201e1e"><g stroke-linejoin="round" stroke-linecap="round" stroke-width="50"><text x="10500" y="14850" font-family="&apos;Coronet&apos;" font-style="italic" font-size="1602.5" transform="matrix(1.13788 0 0 1-9889.07 7628.93)">Texto 01</text><path d="m4612 23428c8 29 30 44 67 45 40-1 88-20 146-60l55-42c5-4 11-6 16-7l8 2c2 2 4 5 4 8l-4 9c-38 47-94 83-165 107-17 6-33 11-49 13-15 3-30 4-45 3-84-1-126-33-127-99-1-62 33-126 99-191 67-65 137-99 212-101 25 0 48 7 67 21 19 14 29 33 29 56 1 68-73 131-219 188l-94 36 2 11zm-2-45l46-18c101-42 158-91 172-147l3-26c-1-23-8-37-22-41l-14-2c-21 1-41 11-61 32l-34 43-40 60-27 50-22 49z" fill-rule="nonzero"/><g font-family="&apos;Coronet&apos;" font-style="italic"><text x="10500" y="14850" font-size="1602.5" transform="matrix(1.13788 0 0 1-10052.8 9770.31)">Texto 02</text><text x="10500" y="14850" font-size="911.1" transform="matrix(1.31729 0 0 1-11709.5 10890.2)"> 00.00.0000</text></g></g><path d="m1702 9372l39 8c1 17 2 32 1 45 0 18-2 41-5 67-5 44-7 73-8 85 0 20 2 51 7 92-35-16-72-28-111-39-28-8-76-16-143-26-1 55-2 140-2 255 175 125 285 216 330 273 45 57 66 112 65 162 0 27-6 47-16 59-10 13-23 19-39 19-12 0-22-4-30-12-8-8-12-17-11-29 0-7 1-16 4-27 7-28 11-47 11-57 1-32-16-67-50-106-56-63-173-158-352-283-203-142-350-256-442-343 8 116 17 189 25 217 12 40 29 70 53 90 24 20 48 31 73 31 8 0 20-3 35-9 17-6 29-9 37-9 10 0 19 4 26 13 8 8 11 18 11 29 0 16-6 29-18 39-12 9-29 14-52 14-33-1-65-10-95-29-30-18-56-44-76-78-20-34-35-76-46-126-5-26-10-71-13-136-3-56-7-92-11-106-6-23-17-44-34-65 56 15 105 27 147 34l396 64 284 38c8-35 12-67 13-95 0-19-1-39-5-61zm-272 224c-185-26-320-52-405-76 76 61 125 98 145 113l257 186c2-39 4-94 5-166 0-18 0-37-1-57zm-331-649c-2-47 14-86 48-119 34-33 83-51 146-54 101-5 194 27 279 97 84 70 128 146 132 229 2 51-11 93-42 125-31 33-73 51-129 53-96 5-186-19-270-71-104-66-159-153-165-260zm55 58c2 40 32 78 89 112 57 35 135 49 232 44 59-3 106-17 139-42 24-18 36-42 34-70-2-40-28-74-77-105-64-38-141-55-232-50-69 4-117 16-145 36-28 21-42 45-40 74zm96-321l-23 26c-58-59-97-106-117-142-20-35-30-66-31-92 0-10 1-18 5-24 4-6 8-9 14-9 4 0 11 1 22 3l139 27c-53-46-104-105-152-176-25-38-37-69-38-94-1-18 4-33 15-44 11-11 27-17 48-18 14-1 30 1 48 5 30 6 96 23 196 51 94 26 157 39 187 38 10 0 17-2 21-5 5-3 7-7 7-12-1-14-14-35-41-63-19-20-37-40-54-61l25-17c48 42 87 85 117 131 19 29 29 53 30 72 1 18-5 32-17 43-12 10-33 16-61 17-41 2-143-21-307-67-58-14-92-21-101-20-14 1-20 10-19 27 1 19 11 43 31 72 30 44 65 79 104 108 25 18 65 32 120 43l241 48 4 106c-69-17-135-32-198-44l-263-53c-10-2-18-3-22-3-12 0-18 6-17 15 0 8 5 19 16 32 20 29 44 56 72 80zm279-1220l28-19c49 66 81 115 96 147 21 44 31 78 30 103-1 11-4 20-11 27-6 7-14 10-22 9-8 0-20-4-38-10l-83-30c57 60 94 110 114 149 19 39 28 74 26 104-1 25-13 45-35 61-22 16-54 23-95 20-65-4-139-31-221-82-82-51-142-106-180-165-37-59-55-112-53-159 1-10 3-26 7-47-88-27-152-52-191-75-40-23-74-51-102-85-28-34-49-72-63-114-14-42-20-81-18-117 1-19 7-34 17-45 10-11 23-16 38-15 14 1 26 7 34 18 9 11 12 25 11 44-1 12-4 34-10 66-6 32-9 54-10 66-1 16 3 32 12 45 9 13 29 26 60 40 20 9 85 29 194 62l409 123c48 14 80 22 97 23 17 1 26-6 27-19 0-9-2-19-7-31-8-16-29-49-63-96zm-361 130c-10 38-16 64-17 80-2 32 9 64 31 95 23 32 68 64 136 96 68 32 128 49 179 52 23 1 43-4 59-16 16-12 24-27 25-43 1-20-6-43-22-70-23-38-53-69-88-92-22-14-78-35-166-61l-137-41zm402-612l33-18c88 132 126 239 113 321-5 33-20 57-44 71-24 14-60 17-108 9-96-16-188-62-274-139-98-86-140-177-125-272 5-33 17-57 36-72 19-15 42-20 70-16 29 5 56 20 82 46 25 26 49 68 71 128 11 30 29 92 54 188 24 8 46 14 69 18 32 5 55 4 69-5 14-8 23-23 26-43 3-19 1-41-6-66-9-33-31-83-65-150zm-135 230c-21-81-47-143-79-187-22-30-46-47-72-51-19-3-35 0-49 8-13 9-21 21-23 38-3 17 1 35 11 54 13 25 36 47 67 68 46 30 94 53 144 71zm-53-1293l13-47c63 44 166 108 310 191l446 256c9 5 18 8 26 10 12 3 22 2 31-6 9-8 22-32 40-73l34 21c-22 44-39 91-52 141-12 45-24 108-36 189l-34-19c8-44 11-76 7-96-4-20-14-38-29-54-16-16-49-40-101-70l-254-145c39 60 66 120 82 182 12 46 14 84 7 113-6 23-22 39-47 49-25 10-58 9-98-2-99-28-188-99-268-212-80-113-106-220-79-322 6-21 16-46 30-75l-24-33zm87 120c-18 30-30 57-36 82-11 40-9 79 6 117 14 38 49 78 102 120 54 42 109 72 167 89 26 7 47 7 64-1 17-8 28-20 33-38 4-16 1-39-9-68-19-55-42-98-68-131-19-23-58-52-119-87l-140-83zm188-678l37-95 198 155c115 91 181 140 199 147 8 3 15 4 21 2 6-2 10-6 11-11 3-8 3-18 1-31-4-18-18-56-42-114l32-12c54 125 73 209 57 251-5 14-15 24-30 29-14 6-31 4-50-4-22-9-49-26-82-51 28 57 47 121 58 193 7 47 5 85-6 113-6 16-16 25-29 30-13 5-30 3-52-6-16-7-34-16-51-28-25-17-73-54-144-111-91-73-147-113-167-122-12-5-19-3-23 6-3 8-3 20-1 37 3 17 12 48 29 93l-33 19c-28-80-44-139-48-176-4-38-2-66 5-85 4-11 11-18 21-21 10-3 23-2 39 5 29 12 95 58 198 138 92 72 146 110 160 116 9 4 18 4 26 1 9-3 14-8 17-15 10-25 4-68-18-129-22-62-55-110-100-145l-234-181zm645-362l37-4c34 157 31 270-10 342-17 29-39 45-66 49-28 4-62-7-104-33-84-52-152-130-204-235-60-118-66-218-19-301 17-29 36-47 59-53 23-7 46-2 70 13 26 16 45 40 59 74 14 34 21 82 20 146-1 32-7 97-17 195 19 17 38 31 57 43 28 17 50 25 66 22 16-2 29-12 40-30 10-17 15-38 18-63 3-34 1-89-6-164zm-208 161c10-83 8-151-6-204-10-36-26-62-48-75-17-10-33-14-48-11-15 3-27 12-35 26-9 15-12 33-9 54 3 28 16 58 38 89 32 45 68 86 108 121zm490-282l-62 85-118-155c-58-76-114-147-169-212-14-16-22-25-26-29-8-7-15-6-22 3-4 6-7 17-8 35-1 18 2 54 9 108l-32 2c-11-66-13-125-5-176 8-51 19-86 33-106 5-7 10-11 16-13 6-2 11-1 16 3 5 4 16 16 32 37l80 102c-30-84-48-165-54-246-3-38 1-65 13-81 8-11 19-18 31-20 13-2 24 1 33 8 10 8 15 18 17 31 2 13-4 38-16 75-11 35-17 67-17 94 0 28 6 62 16 104 11 42 23 74 36 98 13 24 49 72 107 144l87 109zm258-1291l32-36c37 69 101 174 193 316l286 438c6 9 13 16 19 22 9 9 19 12 30 9 11-3 34-18 67-46l21 35c-39 29-75 63-108 101-31 35-69 85-115 152l-22-33c27-35 42-62 48-82 5-20 4-40-2-62-7-22-27-58-60-110l-163-249c8 72 6 138-7 200-9 47-24 82-43 104-15 17-37 25-64 22-27-3-56-19-86-48-75-72-124-177-146-315-22-138 1-246 71-324 14-16 34-34 59-52l-7-41zm25 148c-29 19-52 37-68 56-27 31-42 66-46 107-4 40 9 92 38 155 29 63 66 116 110 158 20 19 39 29 58 30 19 1 34-5 46-18 11-12 18-34 22-65 7-57 6-107-4-149-7-29-29-74-67-134l-88-140zm455-519l74-68 111 231c64 134 102 209 115 224 6 7 12 10 18 11 6 1 11-1 15-4 6-5 10-14 14-27 4-18 8-59 12-121l34 4c-5 137-24 221-57 251-11 10-24 14-39 13-15-1-29-10-43-26-16-18-33-46-52-84 0 64-10 131-32 199-14 46-32 78-54 98-12 11-25 15-39 14-14-2-28-12-44-29-12-14-23-30-33-49-15-27-42-82-81-167-50-107-83-169-97-186-9-10-16-12-23-6-6 6-12 17-17 33-5 16-10 48-14 97l-38 2c9-85 21-144 33-180 13-35 26-60 41-73 8-8 18-11 28-9 11 2 21 9 33 22 21 25 60 96 117 215 52 107 83 166 93 178 6 7 14 12 23 13 9 1 16-1 22-6 19-18 32-59 39-124 7-65-2-124-27-176l-131-271zm712-36l36 11c-27 158-73 261-138 310-26 20-53 26-79 18-27-8-55-32-83-72-58-82-91-181-100-299-11-133 21-228 96-285 26-20 51-28 74-25 23 3 43 16 60 40 18 25 26 56 27 92 0 37-12 84-36 143-13 29-42 86-89 172 11 23 23 44 37 63 19 27 37 43 52 47 16 4 32 1 48-11 15-11 28-28 40-51 16-30 34-82 56-154zm-252 65c40-72 64-136 71-190 5-37-1-67-16-89-11-16-25-26-40-30-15-3-29 0-43 10-14 10-23 26-28 46-7 27-7 60 1 97 13 55 31 107 54 156zm961-475l34 16c-50 152-110 247-182 285-29 15-56 17-81 5-25-12-49-40-71-85-45-90-63-193-55-311 9-133 54-222 136-266 29-15 54-20 77-13 23 7 41 23 54 49 14 27 18 59 13 95-5 36-24 82-57 135-17 27-55 79-113 156 8 25 17 47 27 68 15 30 30 48 45 55 15 7 31 6 49-4 17-9 32-24 47-44 20-27 46-75 77-143zm-258 24c50-65 83-124 98-177 10-36 9-67-3-90-9-18-21-30-35-36-14-6-29-5-44 3-15 8-27 22-35 41-11 26-16 58-13 96 4 56 15 110 31 162zm642-639l90-42 38 255c22 148 37 231 44 250 4 8 8 14 14 16 6 2 11 3 15 1 7-3 14-11 21-21 9-16 25-54 46-112l31 14c-45 129-87 203-127 222-13 6-27 6-41 0-14-6-25-19-33-39-10-22-18-54-25-96-18 61-47 121-88 180-27 39-53 65-80 77-15 7-28 7-41 1-13-6-24-20-33-42-7-17-13-36-18-57-6-30-16-91-29-184-17-118-30-187-39-208-5-12-12-16-20-12-7 3-16 12-26 26-9 14-23 43-41 88l-37-10c34-78 61-131 84-161 22-30 43-49 60-57 10-5 20-5 29 0 10 5 18 15 25 31 13 30 29 111 49 242 18 118 31 184 37 199 4 9 10 16 18 20 9 4 16 4 23 1 23-11 48-46 73-106 26-60 34-119 25-176l-47-299zm874-226c-20 66-31 122-34 169-2 47 2 92 13 135 10 40 34 99 71 179 79-103 130-194 154-272 24-78 30-142 18-190-4-14-13-31-28-50-17-20-26-36-29-47-3-12-2-23 4-34 6-11 14-18 25-21 15-4 28 0 40 10 12 11 22 32 30 63 24 98 15 202-29 313-54 136-135 251-246 346-9-21-23-54-44-99-42-90-67-154-77-192-12-49-13-100-2-152 11-52 33-101 68-147-78 22-131 46-161 72-21 18-29 36-25 52 2 7 7 17 17 30 6 10 11 18 13 25 2 7 1 15-4 22-5 8-11 12-20 15-12 3-22 1-33-7-10-8-18-21-22-37-7-27-4-54 8-80 12-26 38-51 77-75 40-24 94-45 164-62 25-21 41-32 49-34 7-2 14-1 21 4 7 5 12 10 13 17 4 14-7 31-31 49zm825-219l45-15-33 185c-13 73-24 158-33 253-5 52-6 85-5 99 1 14 8 21 19 20 7-1 18-7 33-18 26-20 51-44 74-73l25 25c-47 54-77 87-90 99-27 24-53 42-78 54-17 8-33 14-50 15-12 1-21-1-27-6-6-5-10-13-11-24-1-7 0-17 3-30l18-98c-34 53-77 99-127 140-31 25-60 39-88 42-27 3-48-5-64-22-22-24-35-57-39-99-5-50 2-107 22-171 20-64 48-124 86-178 38-55 80-97 125-126 35-22 81-36 139-42 15-2 29-2 45-2l14-30zm-73 119c-25-2-46-3-63-1-41 4-75 20-103 47-28 27-52 72-72 135-20 63-27 126-21 186 3 32 11 55 23 68 12 13 26 19 43 17 31-3 63-25 95-64 32-39 53-93 64-161l34-227zm2-394l129-14-210 231-40 4 121-221zm325 738c18 2 32 10 43 25 11 15 16 33 14 54-2 31-11 54-27 70-15 16-34 23-55 22-18-2-32-9-43-23-11-14-16-31-14-51 2-30 13-55 31-75 14-15 31-22 51-20zm316 46c18 3 31 12 41 28 10 16 13 34 10 55-4 30-15 53-32 68-16 15-35 21-57 18-18-3-31-12-41-26-10-15-14-32-11-52 4-29 16-54 36-73 15-14 32-20 52-17zm330 130c16 8 27 21 32 39 5 18 3 37-6 56-13 28-29 46-49 55-20 9-40 9-59 0-16-8-27-21-32-38-5-17-4-35 5-53 12-27 31-46 55-59 18-9 36-9 55 0z" fill-rule="nonzero" stroke-width="25"/><path d="m5621 16609l294-3c-2 68 8 86-64 131-98 61-286 26-301-15-10-28 44-76 71-113zm-265-18c10 100-47 124-133 140-48 9-77 13-126 3-49-9-64-17-82-58-22-52 15-79 68-121 18-14 18-22 44-12 75 28 142 44 229 48zm-2334-920c-8 32-21 58-41 70-117 71-245-81-115-180 21-16 53-23 84-26 41-4 89 70 73 136zm2163-393c83-105 70-19 83-161 8 10 160 281 233 371l113 147c66 80 189 190 269 252 132 102 325 184 500 188 103 2 205-18 279-63 119-71 125-137 162-186-5 121-72 274-133 372-59 95-169 184-269 236-111 58-245 94-384 113-88 12-389 14-482 7-331-24-552-67-749-247-28-26-91-105-111-139-29-50-25-33-14-99 6-37 13-73 19-110l68-427c0-1 2-5 2-7l3-6c193 3 94 98 183 141 34 16 102 23 132-3 33-30 28-77 33-131 72 5 83 47 151-93 38-79-33-91-74-135-4-5-12-17-14-19zm-1664-1357c13 52 21 132 29 187l82 555c18 123 36 248 54 371 16 111 18 78-33 156-27 42-57 85-86 122-29-22-73-72-101-101-18-18-33-33-51-51-17-17-41-28-40-63 1-78 20-298 27-389 18-257 34-514 54-771 11 14 27 24 47 29l18-44zm1686 1045l35 94-59-23 24-71zm-253-72c36 6 53 27 93 29 35 2 83-1 110 13 10 34-32 96-40 131 27 7 85 27 101 43 1 14 0 44-3 57-3 16-12 23-23 32-138 125 26 154 42 188 5 11-25 63-33 76-27 45-47 4-116-2-18 39-1 127-25 154-20 16-74 7-89-11-15-17-15-55-33-78-34-45-84-54-157-59l20-136-80-13c-5-38-13-32 8-59 11-15 24-29 37-44 13-14 21-28 37-44 17-18 21-29 35-44-13-36-23-24-16-75 4-30 8-59 11-91l81 17 41-85zm-85 24c-4-21 33-235 38-283 9-96 22-197 27-293 20 3 41 12 60 14 21 3 33-7 53-13 8 104 26 190 50 286 10 41 22 95 35 133 14 40 35 84 45 124-36-9-57-11-96-13-90-4-126-58-164-11-31 38-16 61-47 55zm-405-77c3-16 40-69 50-89l196 191c-5 16-5 12-16 23l44 86c-19-8-52-37-70-52l-205-160zm1521-294c32-33 93-71 152-80l32 39c42-26 26-54 97-30 38 13 65 36 84 60-7 15-22 26-35 37-10 9-24 22-38 30-61 35-150 41-217 4-32-18-52-40-76-59zm-1040-513l99 7-2 250c-53 21-48 13-104-1l7-256zm147 108v-95c160 0 246-33 367-117 0 166 21 526 58 692-32 3-201 51-229 52l-49-130c-17-45-34-89-51-133-17-44-32-85-49-131-10-26-47-112-47-137zm-212 251l-4 9v22c0 3 0 10 0 13-2 8-1 5-4 9v13c0 34-6 64-8 95-2 31-8 65-8 95l-8-4-136-106c-17-13-27-20-42-36 16-31 42-69 61-100 21-34 40-66 60-98l93-150c7-11 24-35 28-45-5 90-31 195-31 284zm-1383-436c-33-10-28-10-41-40l-71-164 187 5c-6 27-64 185-75 199zm1725-662c0 29 42 82 91 42 11-9 20-21 34-25 9 33 108 137 127 153 61 49 51 44 120 87 42 26 63 5 22 112-47 123-166 216-277 274-93 48-114 52-217 52-42 0-119-1-151-7-50-10-79-25-118-46-78-41-81-48-144-101-60-51-74-58-119-127-164-251-174-452-30-730 17-33 41-62 58-95 28 0 64 2 91 0 113-9 245-80 338-138l116-74c0 107 12 211 32 295 36 150 59 143 59 271-21 6-33 28-33 56zm721 407c9-23 30-54 43-80 80-154 118-339 96-516-11-90-39-160-44-199 79 41 75 49 129 2 22 108 111 367 156 471 32 75 65 143 103 209 64 112 133 200 221 285 8 7 13 10 21 17 253 207 463 214 780 187-20 90-94 256-135 329-28 49-57 102-87 143-19 26-31 43-49 66-61 74-102 111-167 173l-127 98c-285 189-649 294-990 365-23 5-24-2-36-16l-52-62c-40-53-77-106-111-170-46-87-101-229-117-340 80-19 160-38 241-57 174-41 88-38 203 37 72 47 144 54 233 27 46-14 64-28 93-55 21-20 58-51 74-73-19-30-38-51-66-72-52-40-65-32-90-47 35-28 69-67 98-101 132-155 103-356-127-240-30 15-34 30-67 14-76-36-170-41-192 55-13 60 10 123 32 166 33 63 48 65 85 110-16 10-43 18-62 28-49 26-88 67-108 74-21 7-49 12-71 17-41 9-268 68-288 64-41-233-54-475-57-717 33-16 91-85 114-122 27-42 56-113 65-172l255 107zm-1702-902c7 30-2 233-6 274-10 114-56 216-114 306-30 47-31 43-60 80-216 276-729 334-1012 145-30-20-52-41-77-62-45-37-170-197-181-237-11-41 44-186 63-216l59-81c22-25 44-45 68-68 15-14 56-56 74-66l645-320c4 73 25 105 56 147 19 25 76 79 112 82 123 8 249 11 373 16zm1831-11c8 10 64 71 52 92-11 20-42-1-53-9-39-29-98-71-100-126 66-11 71 7 100 43zm50-52l8 39-24-28 16-12zm34-83c14-21 20-17 33-26 9 7 5 3-14 16-10 7-8 7-19 10zm-226-56c23-32 136-35 158 0-12 38-90 25-124 18-16-4-27-5-34-18zm-2203-195c59-4 38-42 108 49l49 66-119-109-292 122 212-109c-31-4-118-5-136-15l179-4zm2082 88c6-30 36-62 53-77 13-11 79-34 94-19 11 11-25 105-147 96zm-362-135c-9-2-23-3-13-13 8-8 9 4 13 13zm250 53c-2-51 7-73 29-109 13-21 39-61 80-45 17 41-52 141-109 154zm-178-65c-79 19-83-184-30-214 27 8 38 57 42 92 4 33-7 88-12 122zm-385-230c0 76 37 148 82 200 10 11 14 9 18 25-275 0-612 100-755 336-32 54-28 63-41 122l56 41c24 15 45 20 69 32-37 72-64 95-102 193-101 262-54 487 108 708 51 69 119 118 185 172 25 21 63 36 92 51 11 6 38 19 50 22-1 34-90 164-112 200-45 74-119 183-155 254-66-46-377-298-460-366l-57-45c-88-70-208-161-290-230-24-20-60-57-91-62-30-5-36-2-36-32 35-1 120-35 149-49 22-11 43-22 64-33 12-7 18-12 31-20 31-20 114-84 136-114 75-98 102-119 158-247 31-71 53-162 54-246 0-33-2-70 2-101 5-32 2-69 2-102 0-61 18-58 20-83 3-32-78-202-104-244-60-94-126-177-244-209-52-14-111-21-174-12-57 8-104-18-159-32-318-85-589-88-871 106-32 22-55 48-78 79-221 290-152 532 19 828 49 85 100 165 159 241 58 75 131 141 215 184 29 15 108 54 143 55 0 20 1 40-1 59-8 58 0 42-16 108l-164 651c-19 68-31 131-50 199-25 90-136 566-152 599 37 9 81 35 121 39-7 15-3 30-6 50-6 47 1 41-38 48-10 2-18 4-24 5-63 16-128 88-128 165 0 52 25 80 51 107 11 12 31 26 46 34 21 11 38 15 62 11 57-8 78-12 110-46 34-35 47-86 47-137 0-89-83-110-79-155 2-19 8-55 8-74 23 11 89 9 121 9 0 46 17 40 61 58 24 10 51 18 77 24l-32 391c-14 102-19 292-33 390-9 65-8 129-17 195-5 33-4 68-5 92-3 44-29 94 8 172 61 127 234 159 299 84 78-88-5-165-5-238 16 0 10 1 21-4l36-469c3-21-2-45 10-63 0 195 4 380 4 571h54c-9 111-16 145 90 200 236 122 600-40 222-248 0-47-4-83-4-134 0-42 3-98 0-138-5-62-4-137-4-203 0-30-4-41-4-69 0-46 0-92 0-138 0-51-4-86-4-138 0-98-4-181-4-277 43-4 115-67 132-101 9-18-31-175-35-194l-83-398c-6-28-163-756-164-794 29 20 61 67 91 91l364 366c29 30 59 65 90 93l137 138c15 16 35 29 47 46-5 20-29 52-40 71-12 20-35 51-39 72 56 39 315 253 367 281-28 44-69 76-98 120-14 21 8 84 14 110 24 0 40 8 62 9-1 60-108 687-117 735-3 17-6 27 1 42 5 10 14 23 19 32 28 43 57 84 91 122 10 11 12 18 23 28 43 42 94 82 147 115 24 15 117 65 143 67-13 20-40 35-57 53-48 49-47 93-15 152 13 24 30 39 52 50 91 45 243 22 320-30 19-13 36-33 46-56 9-20 21-64 8-91 45 1 95 13 150 13-7 27-58 57-58 82 0 30 0 42 12 70 13 30 29 25 57 40 55 29 150 32 213 23 50-7 100-34 131-63 61-56 53-62 53-148 18-4 47-6 67-8 203-24 389-83 553-209 17-13 25-22 41-35 104-84 194-262 227-392 11-42 18-82 26-129 3-19 6-47 2-73-3-22-1-52-4-78-6-44-15-87-32-122-54-107-156-195-279-195-106 0-196 94-196 203 0 90 18 169 87 221 57 42 146 52 210 19 52-28 108-99 81-178-26-78-118-87-191-87l4 69c40-1 50-15 86 1 67 30 66 91 10 133-73 55-233 34-233-156 0-194 194-212 305-96 98 103 112 180 48 315-60 126-176 209-332 209-85 0-154-2-233-26-175-53-327-157-456-288l-113-121c-30-32-56-70-82-105-53-72-242-360-267-432l-102-275c-25-65-67-230-77-301-4-29-6-54-10-84-3-25-10-61-11-84l21 52c7 17 14 36 20 52 14 35 119 302 121 328 90-22 181-43 271-65 18 38 26 172 126 357 41 76 90 152 148 214 67 72 36 71 133 49 27-6 47-11 75-17 212-49 494-124 689-227 41-22 82-39 122-64 20-12 39-24 58-35 74-46 143-102 207-161 10-9 15-11 25-22 53-55 108-112 150-177l89-141c6-11 10-20 16-31l61-127c11-22 18-44 27-67 17-44 36-93 49-140l22-73c-18 0-39 5-55 8-161 28-357 28-508-25-77-27-135-57-196-99-143-99-253-249-333-407-87-173-149-359-201-548l-47-176c-17-61-29-58 24-94 15-10 27-20 42-30 40 22 69 35 101 68 34 35 101 174-1 174-3-15-17-35-17-48 0-9 9-21 13-35-12-7-19-14-33-17-9 17-17 36-17 56 0 30 24 82 54 82 45 0 81-17 91-61 14-61-25-155-72-192-28-23-50-36-82-54 8-12 34-31 47-42 13-12 35-35 45-48 56-73 99-179 63-274-8-21-18-43-32-58-62-71-182-1-182 85 0 46 43 78 87 78 1-17 4-17 4-39-63-1-62-58-26-92 97-94 214 141 7 322l-32 28c-43 34-47 6-99 19 46-90 47-254-4-342-80-138-261-202-423-175-28 5-44 1-69 15-39 21-78 44-117 65-18-82-90-99-124-12-29 76-11 116-17 139l-26 63c-36-9-51 2-82-19-65-45-118-135-118-219 0-78 154-135 154-48 0 41-10 48-33 65l-20-18c-13 12-24 26-38 35 38 59 75 41 117 4 46-40 33-182-54-182-66 0-136 24-164 85-5 11-15 48-15 62zm-517-189c19-20 34-67 48-95 14-28 90-167 127-144 17 11 31 76 33 104 7 84-47 158-81 201-42 52-83 97-126 148-18-32-40-60-59-90-18-29-38-57-47-98-15-64-28-225 55-218 25 30 40 144 49 192zm17-157c-1-53-44-114-114-80-90 44-74 205-53 291 9 34 27 61 44 88l52 80c11 18 41 70 45 87 15-4 20-22 36-45 46-63 158-182 187-238 35-67 43-82 43-158 0-33-13-81-23-106-37-89-110-64-156-2l-44 63c-9 16-2 15-19 20zm556-543c13-7 20-18 30-30l75-91c19-20 34-33 57-54 15-14 46-39 74-35 57 177-187 299-286 396-42-75-71-122-61-202 5-39 16-78 33-106 12-19 34-43 55-47 6-1 7-1 13 0 14 3-1-5 9 5 12 18 3 133 2 164zm53-141c0-157-217-85-217 156 0 99 38 118 71 203 7 18 13 44 21 61l185-159c89-68 182-154 182-287 0-144-110-103-182-34-20 19-38 45-59 60zm-565 89c11-13 24-24 35-38 12-15 22-27 36-40 20-19 60-59 88-59 9 84-58 117-98 148l-84 60c-63-71-40-177 23-186v115zm49-128c-16-70-158-59-158 130 0 29 21 59 33 79 23 39 20 47 34 77l70-57c62-48 184-114 184-207 0-93-50-107-113-61-8 6-16 12-24 19-10 8-17 15-26 21zm243 4157l-25-45c-14 7-26 16-40 25-20 12-22 14-26 41-23 159 83 219 187 122 40-38 99-100 53-184-37-69-78-74-82-117-3-31 2-31 30-35l3-50c-125 0-75 127-71 133 19 28 93 81 87 139-6 55-152 190-160 44-3-49 10-57 45-71zm-222-1632c0 25 10 66 19 84 71 137 309 153 418 3 12-16 36-49 42-69l-33-17c-31 49-26 56-78 101-118 102-326 42-326-92 0-110 29-119 42-177-12-7-19-13-38-13-9 39-46 98-46 182zm29-597c-16 4-23 10-38 13 4 20 21 46 31 63 15 25 40 61 60 81 13 13 13 9 19 28 26 83 129 33 104-39-4-12-9-12-9-16 0-71 8-92 21-151-9-5-26-12-38-13l-14 67c-4 26-7 46-7 75-21-2-21-21-32-75-4-17-5-30-8-48-1-5-2-21-2-24-5-16 8-5-41-5 2 30 18 140 38 169l-3 5c-1 0-2-4-2-3l-77-127zm-1086-161c-113 43-55 222 51 184 109-39 58-226-51-184zm-380 112c-110 36-63 219 45 187 40-12 75-62 62-120-10-43-54-84-107-67zm462 583c-5-18-10-19-21-31-47 27-62 46-127 66-60 18-117 10-166-18-141-81-93-240-101-293l-35-3c-6 74-14 140 14 205 90 208 290 177 436 73zm838-227c-17-102 129-122 142-26 13 99-127 119-142 26zm-38-26v22c0 93 126 140 189 70 41-46 43-112 0-158-45-49-110-47-152-9-16 14-36 46-36 75zm868 359c-32 93-168 47-137-49 29-88 169-47 137 49zm-177-39c0 46-1 63 36 101 64 64 180 16 183-84 2-99-117-154-183-87-17 17-36 38-36 70zm581 419c14 82 173 120 141 2-25-95-160-110-141-2zm381-51c28-19 30-76 19-111-14-44-35-53-85-55-25 27-42 63-23 111 16 39 39 54 90 55zm192 33c115-12 114-110 33-151-28 13-57 30-64 59-9 34 14 76 31 92zm-1235 1061l59 23-35-94-24 71z" stroke-width="7.62"/></g></g><g fill="#201e1e"><g font-family="&apos;Arial Black&apos;" font-weight="900" font-size="621.56"><text x="10500" y="14850" transform="matrix(.96368 0 0 1-7921.91 5101.03)">NN 1</text><text x="10500" y="14850" transform="matrix(.96368 0 0 1-7931.88 5639.74)">NN 2</text></g><path d="m16329 23226c8 29 30 44 67 45 40-1 88-20 146-60l55-42c5-4 11-6 16-7l8 2c2 2 4 5 4 8l-4 9c-38 47-94 83-165 107-17 6-33 11-49 13-15 3-30 4-45 3-84-1-126-33-127-99-1-62 33-126 99-191 67-65 137-99 212-101 25 0 48 7 67 21 19 14 29 33 29 56 1 68-73 131-219 188l-94 36 2 11zm-2-45l46-18c101-42 158-91 172-147l3-26c-1-23-8-37-22-41l-14-2c-21 1-41 11-61 32l-34 43-40 60-27 50-22 49z" fill-rule="nonzero" stroke="#201e1e" stroke-linejoin="round" stroke-linecap="round" stroke-width="50"/></g><g stroke="#201e1e"><g fill-rule="nonzero"><g stroke-width="100"><g fill="none"><path d="m15005 9238c76-127 152-190 303-190 167 0 303 114 303 253 0 253-303 507-606 760-303-253-606-507-606-760 0-140 136-253 303-253 152 0 227 63 303 190z"/><path d="m13491 3126c121-203 242-304 485-304 268 0 485 182 485 406 0 406-485 811-970 1217-485-406-970-811-970-1217 0-224 217-406 485-406 242 0 364 101 485 304z"/><path d="m15462 7288c76-127 151-190 303-190 167 0 303 114 303 253 0 253-303 507-606 760-303-253-606-507-606-760 0-140 136-253 303-253 151 0 227 63 303 190z"/><path d="m16855 10069c76-127 151-190 303-190 167 0 303 114 303 253 0 253-303 507-606 760-303-253-606-507-606-760 0-140 136-253 303-253 151 0 227 63 303 190z"/><path d="m19206 11460c76-127 151-190 303-190 167 0 303 114 303 253 0 253-303 507-606 760-303-253-606-507-606-760 0-140 136-253 303-253 151 0 227 63 303 190z"/><path d="m13246 12532c76-127 151-190 303-190 167 0 303 114 303 253 0 253-303 507-606 760-303-253-606-507-606-760 0-140 136-253 303-253 151 0 227 63 303 190z"/><path d="m19171 13073c76-127 151-190 303-190 167 0 303 114 303 253 0 253-303 507-606 760-303-253-606-507-606-760 0-140 136-253 303-253 151 0 227 63 303 190z"/><path d="m13666 18148c63-106 127-159 254-159 140 0 254 95 254 212 0 212-254 425-508 637-254-212-508-425-508-637 0-117 114-212 254-212 127 0 190 53 254 159z"/><path d="m16055 18002c68-113 135-170 271-170 150 0 271 102 271 227 0 227-271 453-542 680-271-227-542-453-542-680 0-125 121-227 271-227 135 0 203 57 271 170z"/><path d="m18435 18009c105-189 210-284 420-284 232 0 420 169 420 378 0 378-420 757-841 1135-420-378-841-757-841-1135 0-209 188-378 420-378 210 0 315 95 420 284z"/></g><g fill="#201e1e"><path d="m12356 5393c121-203 242-304 485-304 268 0 485 182 485 406 0 406-485 811-970 1217-485-406-970-811-970-1217 0-224 217-406 485-406 242 0 364 101 485 304z"/><path d="m16246 5178c112-187 223-280 447-280 247 0 447 167 447 374 0 374-447 747-893 1121-447-374-893-747-893-1121 0-206 200-374 447-374 223 0 335 93 447 280z"/><path d="m18020 7891c112-187 223-280 447-280 247 0 447 167 447 374 0 374-447 747-893 1121-447-374-893-747-893-1121 0-206 200-374 447-374 223 0 335 93 447 280z"/><path d="m12467 9064c112-187 223-280 447-280 247 0 447 167 447 374 0 374-447 747-893 1121-447-374-893-747-893-1121 0-206 200-374 447-374 223 0 335 93 447 280z"/><path d="m19026 15628c56-93 111-139 222-139 123 0 222 83 222 186 0 186-222 372-445 558-222-186-445-372-445-558 0-103 100-186 222-186 111 0 167 46 222 139z"/><path d="m16323 19653c67-112 134-168 268-168 148 0 268 101 268 225 0 225-268 449-537 674-268-225-537-449-537-674 0-124 120-225 268-225 134 0 201 56 268 168z"/></g></g><path d="m12875 2467c13-13 28-19 46-17 18 1 34 10 48 25 20 22 32 44 33 67 2 23-5 42-21 57-13 13-28 19-45 18-18-1-33-8-47-23-20-21-31-46-34-74-2-21 4-39 19-53zm268-209c15-10 31-13 48-8 17 5 32 16 43 34 16 26 23 50 20 73-3 23-13 40-31 52-15 10-31 13-48 9-17-4-31-15-42-32-16-25-22-51-20-79 2-21 11-37 28-49zm322-149c17-6 33-4 49 6 16 9 27 24 33 44 9 29 10 54 1 75-8 21-22 35-43 42-17 6-33 4-48-4-15-9-26-22-32-42-9-28-9-56 1-82 7-20 20-33 40-39zm739-566l47-3c-19 76-42 198-70 367l-83 522c-1 11-1 20-1 29 1 13 6 22 16 29 10 6 36 11 79 14l-8 40c-48-6-96-8-145-4-45 3-106 13-184 28l6-40c42-7 72-15 89-26 17-11 30-26 40-47 9-21 19-62 29-122l46-297c-41 58-87 105-138 141-38 27-71 42-100 44-23 2-43-8-61-29-18-21-28-54-31-97-7-106 27-217 102-333 75-116 164-178 266-185 21-2 47 0 78 4l22-35zm-80 125c-33-7-62-10-87-8-40 3-75 18-104 45-29 27-54 74-75 140-21 67-29 131-25 193 2 28 9 49 22 63 13 14 28 21 46 20 16-1 36-12 59-31 43-37 75-73 96-111 15-26 28-74 40-145l29-165zm729 23l98 14-98 237c-57 138-87 216-90 236-1 9 0 16 3 21 4 5 8 8 13 9 8 1 17-1 29-7 16-9 49-32 96-69l19 29c-104 85-178 124-221 118-14-2-26-10-35-23-9-13-12-30-9-51 3-24 13-56 28-95-47 42-102 77-166 104-43 18-78 25-107 21-16-2-28-10-35-22-8-12-10-30-7-53 2-18 7-38 14-58 10-29 33-86 69-172 46-109 71-175 74-198 2-13-2-20-11-22-8-1-20 2-35 8-15 7-42 24-80 52l-26-29c68-47 119-78 153-90 34-13 61-18 80-15 11 2 19 7 25 16 6 9 7 23 5 40-4 32-32 110-82 232-45 110-68 173-70 189-1 10 1 19 6 27 5 8 11 12 19 13 25 4 64-13 116-50 52-37 90-82 111-135l113-279zm485 548l14 36c-136 77-242 105-319 83-31-9-52-26-63-53-11-27-10-64 2-113 25-98 79-187 162-268 93-92 184-126 274-101 31 9 53 24 65 44 12 21 15 45 8 74-8 30-25 56-53 79-27 23-71 43-130 60-30 8-91 20-185 36-10 24-18 46-24 69-8 32-9 57-3 72 7 16 19 26 38 31 18 5 39 5 64 1 33-6 83-23 150-51zm-206-163c79-13 142-34 187-62 31-20 50-43 57-69 5-19 4-37-3-51-7-14-18-24-34-28-16-5-34-3-52 6-25 11-49 32-72 62-33 45-61 92-83 141zm397 432l-97-33 103-167c50-82 96-160 138-235 10-19 16-30 17-35 3-10 0-17-9-20-7-2-18-1-34 4-17 5-48 20-95 45l-13-30c56-33 109-54 158-63 49-9 85-10 107-3 8 3 13 7 17 12 4 5 4 11 3 16-2 6-10 21-23 44l-67 112c66-57 135-101 206-133 34-15 60-20 78-14 13 4 23 13 29 24 6 12 7 23 3 35-4 12-11 21-22 27-11 6-35 9-73 9-36 0-66 5-91 14-25 9-55 26-89 50-34 24-60 47-77 68-17 21-49 72-96 153l-70 121zm801-310c42 17 70 49 84 95 14 46 10 99-14 161-38 98-105 171-202 221-96 50-181 59-255 28-45-19-76-50-92-92-16-43-13-90 7-144 36-92 95-167 176-224 102-70 201-86 296-46zm-74 27c-36-15-81-3-136 36-54 39-100 106-136 200-22 57-29 107-22 148 6 30 21 51 47 62 35 15 77 5 124-28 60-44 108-110 142-198 26-66 36-117 29-152-6-35-22-58-48-69zm883 413c35 21 59 45 70 71 11 26 12 48 1 66-6 11-16 19-28 22-13 3-25 2-36-5-7-4-13-10-17-17-3-7-6-20-9-41-4-39-16-63-35-75-16-10-34-12-54-7-20 5-35 18-45 37-9 17-15 36-16 56-1 21 5 58 18 112 17 75 13 134-11 177-24 43-63 71-117 82-54 11-109 0-165-34-47-28-77-59-89-93-12-34-10-65 6-94 8-14 19-24 33-28 14-4 27-3 40 5 11 7 18 16 22 28 4 12 3 23-3 34-2 4-5 9-10 15-3 5-6 10-8 13-8 14-8 28-3 44 5 16 18 29 36 41 21 13 42 20 63 23 20 2 39-2 57-12 18-10 31-22 39-38 8-15 12-32 12-52-1-20-6-56-17-108-15-72-10-131 14-174 22-40 58-66 106-77 48-11 96-3 145 26zm218 672l1 38c-153 24-262 13-328-35-26-19-40-43-42-72-1-29 12-64 39-105 56-83 136-148 240-194 118-54 214-53 291 2 26 19 42 41 47 65 5 24-1 48-17 72-17 25-42 44-76 56-33 12-81 16-142 11-30-3-92-14-186-32-17 19-33 37-45 56-19 27-27 50-26 67 1 17 10 31 26 43 15 11 35 19 60 23 33 6 86 8 158 5zm-140-226c79 16 145 19 196 9 36-8 61-22 76-44 11-17 16-33 14-49-2-16-9-29-23-39-14-10-31-14-51-13-27 2-57 12-88 33-46 30-88 65-124 104zm234 541l-80-67 153-117c75-58 145-114 210-168 16-14 25-22 28-26 7-8 6-16-2-22-5-5-17-8-33-9-17-2-52 0-104 6l-1-33c64-9 121-9 170 0 49 10 82 22 101 37 6 5 10 11 12 17 1 6 0 12-3 16-4 5-16 16-37 32l-101 80c82-28 161-44 238-48 37-2 63 4 78 16 11 9 17 20 18 33 2 13-2 24-9 34-8 10-18 15-30 17-12 1-36-5-71-19-34-13-64-20-90-21-27-1-60 4-101 14-40 10-72 22-95 35-23 13-71 49-142 107l-107 87zm1076 217c28 30 45 60 49 88 4 28-2 49-16 64-9 9-20 13-33 13-13 0-24-5-34-15-6-6-10-13-12-21-2-8-1-21 2-42 6-38 1-66-14-82-13-14-30-21-50-22-20 0-38 7-54 23-13 14-24 30-30 49-6 19-11 57-13 113-4 77-23 132-58 167-35 35-79 50-134 45-55-5-104-31-149-80-38-41-58-79-61-114-2-36 8-65 31-89 11-11 24-17 39-17 15 0 27 5 37 16 9 9 13 21 14 34 0 13-4 23-12 32-3 3-8 7-13 12-4 4-8 8-11 10-11 11-16 25-14 42 1 17 9 33 24 49 17 18 35 32 54 40 19 8 38 9 58 5 20-4 36-13 48-25 12-12 20-27 25-47 5-19 9-55 12-109 5-74 25-128 60-163 32-32 73-47 122-44 49 3 93 25 132 67zm46 710l-8 38c-154-15-257-54-310-116-21-25-29-52-24-80 5-28 26-59 63-92 74-66 166-109 278-128 127-23 220 2 281 75 21 25 31 50 30 75-1 24-12 46-33 66-22 20-51 32-86 35-35 3-82-5-140-25-29-11-86-37-173-78-21 14-40 28-57 43-24 22-38 41-41 58-3 17 2 33 15 48 12 15 30 27 52 37 30 14 81 29 152 45zm-83-255c73 35 136 54 189 58 36 2 64-6 84-24 15-13 23-28 25-44 2-16-2-30-13-43-11-13-27-22-47-25-27-5-58-2-93 10-52 18-100 41-145 69zm734 567l54 86-237 79c-138 46-215 74-231 85-7 5-12 10-13 16-1 6-1 12 2 16 4 7 12 13 24 18 17 7 55 17 114 30l-9 34c-130-26-207-58-231-96-8-13-10-27-6-42 4-15 14-29 31-40 20-13 49-27 88-41-61-9-123-30-185-62-41-21-70-45-86-70-9-14-11-28-7-42 4-14 15-27 34-40 15-10 32-19 52-27 28-11 84-31 171-59 110-36 173-60 192-72 11-7 14-15 9-23-4-7-14-15-29-22-15-7-45-17-90-29l4-39c79 22 135 43 166 61 32 18 53 36 64 53 6 10 7 20 5 30-3 11-12 21-26 30-27 18-101 47-223 88-110 37-171 60-184 69-8 5-13 13-16 22-2 9-2 17 2 23 14 22 51 42 112 59 61 17 118 16 171-1l277-95zm130 613l15-37c62 20 112 44 150 74 38 30 63 59 74 88 4 11 5 21 3 29-3 9-9 15-19 20-12 5-25 10-39 12-14 3-48 8-103 14 92 38 150 67 175 84 42 30 71 62 85 96 9 22 7 45-7 70-14 24-41 45-82 63-102 45-212 55-331 29-119-26-194-78-227-158-13-31-18-66-14-105l-231 36c-14 2-25 5-33 8-16 7-24 18-26 33-3 23 5 67 23 130l-35 5c-24-73-44-129-60-169-17-42-42-94-74-158l35-5c17 32 36 52 56 61 21 9 51 10 91 3l527-93c98-17 152-28 163-32 11-5 14-13 10-24-8-19-50-44-126-74zm-245 263c-19 49-21 92-6 128 21 52 80 81 175 86 95 5 180-9 254-42 24-11 40-24 48-41 8-17 8-34 0-53-9-21-28-40-59-58-47-27-91-45-130-53-28-6-72-3-131 7l-151 26zm786 778l22 43-181-2c-72-1-154 3-246 10-50 4-82 8-95 12-14 4-19 12-16 23 2 7 10 17 23 30 24 23 51 44 82 63l-20 30c-60-38-96-63-110-75-27-24-49-47-65-71-11-16-19-32-23-48-3-12-3-21 1-29 4-7 11-13 20-16 7-2 16-3 29-2l96 1c-56-26-108-61-155-106-29-27-48-55-55-83-7-27-4-49 10-69 19-26 48-45 87-57 47-14 102-16 166-8 64 9 126 28 184 57 59 29 106 65 141 106 27 32 48 77 64 135 4 15 7 30 10 45l30 9zm-125-54c-2-26-5-47-10-64-11-41-32-73-62-97-30-24-77-41-141-50-64-9-124-6-180 11-30 9-50 20-60 35-10 14-13 30-8 47 9 31 34 60 77 86 43 26 97 39 163 37l222-5zm-401 486l-20-104 190 12c93 6 182 10 265 11 21 0 33 0 38-1 10-2 14-8 13-18-1-7-8-17-20-29-12-13-40-34-84-65l19-26c55 35 98 73 130 113 32 40 49 72 54 96 2 8 1 15-2 21-3 6-7 9-12 10-6 1-22 1-48 0l-127-6c80 33 151 73 212 122 29 24 46 45 50 64 3 14 0 27-7 38-7 11-16 18-28 20-12 2-23 0-33-7-10-7-25-28-43-62-18-32-37-57-56-76-20-19-48-37-86-57-37-19-69-32-94-37-26-5-84-10-175-13l-136-5zm294 438l-6-40c220-4 405-12 556-24 9-1 15 0 19 3 8 6 15 18 23 37 13 31 21 52 23 65 2 10-2 15-12 17-6 1-15 1-26-2-18-3-95-12-230-26l-347-31zm-83-24c3 18-2 35-13 49-11 15-27 24-47 27-29 5-53 1-72-11-19-12-30-29-33-51-3-18 1-35 12-49 11-15 25-23 45-27 28-5 54 0 78 14 18 10 28 26 31 47z" fill="#201e1e" stroke-width="25"/></g><g fill="#201e1e"><path d="m15202 16609l-294-3c2 68-8 86 64 131 98 61 286 26 301-15 10-28-44-76-71-113zm265-18c-10 100 47 124 133 140 48 9 77 13 126 3 49-9 64-17 82-58 22-52-15-79-68-121-18-14-18-22-44-12-75 28-142 44-229 48zm2334-920c8 32 21 58 41 70 117 71 245-81 115-180-21-16-53-23-84-26-41-4-89 70-73 136zm-2163-393c-83-105-70-19-83-161-8 10-160 281-233 371l-113 147c-66 80-189 190-269 252-132 102-325 184-500 188-103 2-205-18-279-63-119-71-125-137-162-186 5 121 72 274 133 372 59 95 169 184 269 236 111 58 245 94 384 113 88 12 389 14 482 7 331-24 552-67 749-247 28-26 91-105 111-139 29-50 25-33 14-99-6-37-13-73-19-110l-68-427c0-1-2-5-2-7l-3-6c-193 3-94 98-183 141-34 16-102 23-132-3-33-30-28-77-33-131-72 5-83 47-151-93-38-79 33-91 74-135 4-5 12-17 14-19zm1664-1357c-13 52-21 132-29 187l-82 555c-18 123-36 248-54 371-16 111-18 78 33 156 27 42 57 85 86 122 29-22 73-72 101-101 18-18 33-33 51-51 17-17 41-28 40-63-1-78-20-298-27-389-18-257-34-514-54-771-11 14-27 24-47 29l-18-44zm-1686 1045l-35 94 59-23-24-71zm253-72c-36 6-53 27-93 29-35 2-83-1-110 13-10 34 32 96 40 131-27 7-85 27-101 43-1 14 0 44 3 57 3 16 12 23 23 32 138 125-26 154-42 188-5 11 25 63 33 76 27 45 47 4 116-2 18 39 1 127 25 154 20 16 74 7 89-11 15-17 15-55 33-78 34-45 84-54 157-59l-20-136 80-13c5-38 13-32-8-59-11-15-24-29-37-44-13-14-21-28-37-44-17-18-21-29-35-44 13-36 23-24 16-75-4-30-8-59-11-91l-81 17-41-85zm85 24c4-21-33-235-38-283-9-96-22-197-27-293-20 3-41 12-60 14-21 3-33-7-53-13-8 104-26 190-50 286-10 41-22 95-35 133-14 40-35 84-45 124 36-9 57-11 96-13 90-4 126-58 164-11 31 38 16 61 47 55zm405-77c-3-16-40-69-50-89l-196 191c5 16 5 12 16 23l-44 86c19-8 52-37 70-52l205-160zm-1521-294c-32-33-93-71-152-80l-32 39c-42-26-26-54-97-30-38 13-65 36-84 60 7 15 22 26 35 37 10 9 24 22 38 30 61 35 150 41 217 4 32-18 52-40 76-59zm1040-513l-99 7 2 250c53 21 48 13 104-1l-7-256zm-147 108v-95c-160 0-246-33-367-117 0 166-21 526-58 692 32 3 201 51 229 52l49-130c17-45 34-89 51-133 17-44 32-85 49-131 10-26 47-112 47-137zm212 251l4 9v22c0 3 0 10 0 13 2 8 1 5 4 9v13c0 34 6 64 8 95 2 31 8 65 8 95l8-4 136-106c17-13 27-20 42-36-16-31-42-69-61-100-21-34-40-66-60-98l-93-150c-7-11-24-35-28-45 5 90 31 195 31 284zm1383-436c33-10 28-10 41-40l71-164-187 5c6 27 64 185 75 199zm-1725-662c0 29-42 82-91 42-11-9-20-21-34-25-9 33-108 137-127 153-61 49-51 44-120 87-42 26-63 5-22 112 47 123 166 216 277 274 93 48 114 52 217 52 42 0 119-1 151-7 50-10 79-25 118-46 78-41 81-48 144-101 60-51 74-58 119-127 164-251 174-452 30-730-17-33-41-62-58-95-28 0-64 2-91 0-113-9-245-80-338-138l-116-74c0 107-12 211-32 295-36 150-59 143-59 271 21 6 33 28 33 56zm-721 407c-9-23-30-54-43-80-80-154-118-339-96-516 11-90 39-160 44-199-79 41-75 49-129 2-22 108-111 367-156 471-32 75-65 143-103 209-64 112-133 200-221 285-8 7-13 10-21 17-253 207-463 214-779 187 20 90 94 256 135 329 28 49 57 102 87 143 19 26 31 43 49 66 60 74 102 111 167 173l127 98c285 189 649 294 990 365 23 5 24-2 36-16l52-62c40-53 77-106 111-170 46-87 101-229 117-340-80-19-160-38-241-57-174-41-88-38-203 37-72 47-144 54-233 27-46-14-64-28-93-55-21-20-58-51-74-73 19-30 38-51 66-72 52-40 65-32 90-47-35-28-69-67-98-101-132-155-103-356 127-240 30 15 34 30 67 14 76-36 170-41 192 55 13 60-10 123-32 166-33 63-48 65-85 110 16 10 43 18 62 28 49 26 88 67 108 74 21 7 49 12 71 17 41 9 268 68 288 64 41-233 54-475 57-717-33-16-91-85-114-122-27-42-56-113-65-172l-255 107zm1702-902c-7 30 2 233 6 274 10 114 56 216 114 306 30 47 31 43 60 80 216 276 729 334 1012 145 30-20 52-41 77-62 45-37 170-197 181-237 11-41-44-186-63-216l-59-81c-22-25-44-45-68-68-15-14-56-56-74-66l-645-320c-4 73-25 105-56 147-19 25-76 79-112 82-123 8-249 11-373 16zm-1831-11c-8 10-64 71-52 92 11 20 42-1 53-9 39-29 98-71 100-126-66-11-71 7-100 43zm-50-52l-8 39 24-28-16-12zm-34-83c-14-21-20-17-33-26-9 7-5 3 14 16 10 7 8 7 19 10zm226-56c-23-32-136-35-158 0 12 38 90 25 124 18 16-4 27-5 34-18zm2203-195c-59-4-38-42-108 49l-49 66 119-109 292 122-212-109c31-4 118-5 136-15l-179-4zm-2082 88c-6-30-36-62-53-77-13-11-79-34-94-19-11 11 25 105 147 96zm362-135c9-2 23-3 13-13-8-8-9 4-13 13zm-250 53c2-51-7-73-29-109-13-21-39-61-80-45-17 41 52 141 109 154zm178-65c79 19 83-184 30-214-27 8-38 57-42 92-4 33 7 88 12 122zm385-230c0 76-37 148-82 200-10 11-14 9-18 25 275 0 612 100 755 336 32 54 28 63 41 122l-56 41c-24 15-45 20-69 32 37 72 64 95 102 193 101 262 54 487-108 708-50 69-119 118-185 172-25 21-63 36-92 51-11 6-38 19-50 22 1 34 90 164 112 200 45 74 119 183 155 254 66-46 377-298 460-366l57-45c88-70 208-161 290-230 24-20 60-57 91-62 30-5 36-2 36-32-35-1-120-35-149-49-22-11-43-22-64-33-12-7-18-12-31-20-31-20-114-84-136-114-75-98-102-119-158-247-31-71-53-162-54-246 0-33 2-70-2-101-5-32-2-69-2-102 0-61-18-58-20-83-3-32 78-202 104-244 60-94 126-177 244-209 52-14 111-21 174-12 57 8 104-18 159-32 318-85 589-88 871 106 32 22 55 48 78 79 221 290 152 532-19 828-49 85-100 165-159 241-58 75-131 141-215 184-29 15-108 54-143 55 0 20-1 40 1 59 8 58 0 42 16 108l164 651c19 68 31 131 50 199 25 90 136 566 152 599-37 9-81 35-121 39 7 15 3 30 6 50 6 47-1 41 38 48 10 2 18 4 24 5 63 16 128 88 128 165 0 52-25 80-51 107-11 12-31 26-46 34-21 11-38 15-62 11-57-8-78-12-110-46-34-35-47-86-47-137 0-89 83-110 79-155-2-19-8-55-8-74-23 11-89 9-121 9 0 46-17 40-61 58-24 10-51 18-77 24l32 391c14 102 19 292 33 390 9 65 8 129 17 195 5 33 4 68 5 92 3 44 29 94-8 172-61 127-234 159-299 84-78-88 5-165 5-238-16 0-10 1-21-4l-36-469c-3-21 2-45-10-63 0 195-4 380-4 571h-54c9 111 15 145-90 200-236 122-600-40-222-248 0-47 4-83 4-134 0-42-3-98 0-138 5-62 4-137 4-203 0-30 4-41 4-69 0-46 0-92 0-138 0-51 4-86 4-138 0-98 4-181 4-277-43-4-115-67-132-101-9-18 31-175 35-194l83-398c6-28 163-756 164-794-29 20-61 67-91 91l-364 366c-29 30-59 65-90 93l-137 138c-15 16-35 29-47 46 5 20 29 52 40 71 12 20 35 51 39 72-56 39-315 253-367 281 28 44 69 76 98 120 14 21-8 84-14 110-24 0-40 8-62 9 1 60 108 687 117 735 3 17 6 27-1 42-5 10-14 23-19 32-28 43-57 84-91 122-10 11-12 18-23 28-43 42-94 82-147 115-24 15-117 65-143 67 13 20 40 35 57 53 48 49 47 93 15 152-13 24-30 39-52 50-91 45-243 22-320-30-19-13-36-33-46-56-9-20-21-64-8-91-45 1-95 13-150 13 7 27 58 57 58 82 0 30 0 42-12 70-13 30-29 25-57 40-55 29-150 32-213 23-49-7-100-34-131-63-61-56-53-62-53-148-18-4-47-6-67-8-203-24-389-83-553-209-17-13-25-22-41-35-104-84-194-262-227-392-11-42-18-82-26-129-3-19-6-47-2-73 3-22 1-52 4-78 6-44 15-87 32-122 54-107 156-195 279-195 106 0 196 94 196 203 0 90-18 169-87 221-58 42-146 52-210 19-52-28-108-99-81-178 26-78 118-87 191-87l-4 69c-40-1-50-15-86 1-67 30-66 91-10 133 73 55 233 34 233-156 0-194-194-212-305-96-98 103-112 180-48 315 60 126 176 209 332 209 85 0 154-2 233-26 175-53 327-157 456-288l113-121c30-32 56-70 82-105 53-72 242-360 267-432l102-275c25-65 67-230 77-301 4-29 6-54 10-84 3-25 10-61 11-84l-21 52c-7 17-14 36-20 52-14 35-119 302-121 328-90-22-181-43-271-65-18 38-26 172-126 357-41 76-90 152-148 214-67 72-36 71-133 49-27-6-47-11-75-17-212-49-494-124-689-227-41-22-82-39-122-64-20-12-39-24-58-35-74-46-143-102-207-161-10-9-15-11-25-22-53-55-108-112-150-177l-89-141c-6-11-10-20-16-31l-61-127c-11-22-18-44-27-67-17-44-36-93-49-140l-22-73c18 0 39 5 55 8 161 28 357 28 508-25 77-27 135-57 196-99 143-99 253-249 333-407 87-173 149-359 201-548l47-176c17-61 29-58-24-94-15-10-27-20-42-30-40 22-69 35-101 68-34 35-101 174 1 174 3-15 17-35 17-48 0-9-9-21-13-35 12-7 19-14 33-17 9 17 17 36 17 56 0 30-24 82-54 82-45 0-81-17-91-61-14-61 25-155 72-192 28-23 50-36 82-54-8-12-34-31-47-42-13-12-35-35-45-48-56-73-99-179-63-274 8-21 18-43 32-58 62-71 182-1 182 85 0 46-43 78-87 78-1-17-4-17-4-39 63-1 62-58 26-92-97-94-214 141-7 322l32 28c43 34 47 6 99 19-46-90-47-254 4-342 80-138 262-202 423-175 28 5 44 1 69 15 39 21 78 44 117 65 18-82 90-99 124-12 29 76 11 116 17 139l26 63c36-9 51 2 82-19 65-45 118-135 118-219 0-78-154-135-154-48 0 41 10 48 33 65l20-18c13 12 24 26 38 35-38 59-75 41-117 4-46-40-33-182 54-182 66 0 136 24 164 85 5 11 15 48 15 62zm517-189c-19-20-34-67-48-95-14-28-90-167-127-144-17 11-31 76-33 104-7 84 47 158 81 201 42 52 83 97 126 148 18-32 40-60 59-90 18-29 38-57 47-98 15-64 28-225-55-218-25 30-40 144-49 192zm-17-157c1-53 44-114 114-80 90 44 74 205 53 291-9 34-27 61-44 88l-52 80c-11 18-41 70-45 87-15-4-20-22-36-45-46-63-158-182-187-238-35-67-43-82-43-158 0-33 13-81 23-106 37-89 110-64 156-2l44 63c9 16 2 15 19 20zm-556-543c-13-7-20-18-30-30l-75-91c-19-20-34-33-57-54-15-14-46-39-74-35-57 177 187 299 286 396 42-75 71-122 61-202-5-39-16-78-33-106-12-19-34-43-55-47-6-1-7-1-13 0-14 3 1-5-9 5-12 18-3 133-2 164zm-53-141c0-157 217-85 217 156 0 99-38 118-71 203-7 18-13 44-21 61l-185-159c-89-68-182-154-182-287 0-144 110-103 182-34 20 19 38 45 59 60zm565 89c-11-13-24-24-35-38-12-15-22-27-36-40-20-19-60-59-88-59-9 84 58 117 98 148l84 60c63-71 40-177-23-186v115zm-49-128c16-70 158-59 158 130 0 29-21 59-33 79-23 39-20 47-34 77l-70-57c-62-48-184-114-184-207 0-93 50-107 113-61 8 6 16 12 24 19 10 8 17 15 26 21zm-243 4157l25-45c14 7 26 16 40 25 20 12 22 14 26 41 23 159-83 219-187 122-40-38-99-100-53-184 37-69 78-74 82-117 3-31-2-31-30-35l-3-50c125 0 75 127 71 133-19 28-93 81-87 139 6 55 152 190 160 44 3-49-10-57-45-71zm222-1632c0 25-10 66-19 84-71 137-309 153-418 3-12-16-36-49-42-69l33-17c31 49 26 56 78 101 118 102 326 42 326-92 0-110-29-119-42-177 12-7 19-13 37-13 9 39 46 98 46 182zm-29-597c16 4 23 10 37 13-4 20-21 46-31 63-15 25-40 61-60 81-13 13-13 9-19 28-26 83-129 33-104-39 4-12 9-12 9-16 0-71-8-92-21-151 9-5 26-12 38-13l14 67c4 26 7 46 7 75 21-2 21-21 32-75 4-17 5-30 8-48 1-5 2-21 2-24 5-16-8-5 41-5-2 30-18 140-37 169l3 5c1 0 2-4 2-3l77-127zm1086-161c113 43 55 222-51 184-109-39-58-226 51-184zm380 112c110 36 63 219-45 187-40-12-75-62-62-120 10-43 54-84 107-67zm-462 583c5-18 10-19 21-31 47 27 62 46 127 66 60 18 117 10 166-18 141-81 93-240 101-293l35-3c6 74 14 140-14 205-90 208-290 177-436 73zm-838-227c17-102-129-122-142-26-13 99 127 119 142 26zm38-26v22c0 93-126 140-189 70-41-46-43-112 0-158 45-49 110-47 152-9 16 14 36 46 36 75zm-868 359c32 93 168 47 137-49-29-88-169-47-137 49zm177-39c0 46 1 63-36 101-64 64-180 16-183-84-2-99 117-154 183-87 17 17 36 38 36 70zm-581 419c-14 82-173 120-141 2 25-95 160-110 141-2zm-381-51c-28-19-30-76-19-111 14-44 35-53 85-55 25 27 42 63 23 111-16 39-39 54-90 55zm-192 33c-115-12-114-110-33-151 28 13 57 30 64 59 9 34-14 76-31 92zm1235 1061l-59 23 35-94 24 71z" stroke-width="7.62"/><g font-family="&apos;Coronet&apos;" stroke-linejoin="round" font-style="italic" stroke-linecap="round" stroke-width="50"><g font-size="1602.5"><text x="10500" y="14850" transform="matrix(1.13788 0 0 1 1694.43 7628.93)">Texto 01</text><text x="10500" y="14850" transform="matrix(1.13788 0 0 1 1530.74 9770.31)">Texto 02</text></g><text x="10500" y="14850" font-size="911.1" transform="matrix(1.31729 0 0 1-125.98 10890.2)"> 00.00.0000</text></g></g></g><g fill="#201e1e" font-family="&apos;Arial Black&apos;" font-weight="900" font-size="621.56"><text x="10500" y="14850" transform="matrix(.96368 0 0 1 3741.46 5101.03)">NN 1</text><text x="10500" y="14850" transform="matrix(.96368 0 0 1 3731.48 5639.74)">NN 2</text></g><g fill="#373435" font-family="&apos;Arial&apos;" font-size="423.33"><text x="10500" y="14850" transform="translate(-9063.56 13352.2)">DESC 1</text><text x="10500" y="14850" transform="translate(-9063.58 13775.5)">DESC 2</text><text x="10500" y="14850" transform="translate(-9094.08 14209.3)">DESC 3</text></g></svg>