<svg xmlns="http://www.w3.org/2000/svg" width="744.09" height="1052.36" viewBox="0 0 21000 29700" shape-rendering="geometricPrecision" image-rendering="optimizeQuality" fill-rule="evenodd" clip-rule="evenodd"><defs><clipPath id="0"><path d="m6994 23142c-1191 595-3453 480-4140-621-685-1098-530-4211-595-5737-163-3822-574-6721-680-9803-118-3423 2148-5686 4858-6324 3823-899 3597 4369 3066 7076-279 1454-829 2720-1180 4143-648 2623-61 6627-286 9357-116 944-421 1570-1043 1909"/></clipPath><clipPath id="1"><path d="m13981 23130c1191 595 3453 480 4140-621 685-1098 530-4211 595-5737 163-3822 574-6721 680-9803 118-3423-2148-5686-4858-6324-3823-899-3597 4369-3066 7076 279 1454 829 2720 1180 4143 648 2623 61 6627 286 9357 116 944 421 1570 1043 1909"/></clipPath></defs><text x="10011" y="22820" fill="#201e1e" font-family="&apos;Arial Black&apos;" stroke="#201e1e" font-weight="900" stroke-width="7.62" font-size="705.56">36</text><g fill="none" stroke="#373435" stroke-width="80"><circle cx="10463" cy="24191" r="460"/><path d="m10463 23381v1621"/><path d="m9653 24191h1621"/></g><g fill="#373435" font-family="&apos;Arial&apos;" font-weight="normal" font-size="423.33"><text x="1031" y="25838">DESC 1</text><text x="996" y="26442">DESC 2</text><text x="978" y="27042">DESC 3</text></g><g clip-path="url(#0)"><g><g fill="#201e1e"><g stroke="#201e1e" stroke-linejoin="round" stroke-linecap="round"><g stroke-width="70"><path d="m5024 7940c89 16-10 65 48 109 58 9-13-99 72-65 8 50-4 83-24 109-40 0-80 0-120 0-28-61-5-92 24-152z"/><path d="m5528 8244c5 116-352 168-384 43 98 39 261 24 336-22-37-133-193-159-192-326 75 106 184 181 240 304z"/><path d="m5432 8092c-37-33-43-149 48-130 2 59-40 44 0 87 58 9-13-99 72-65 42 45-13 133-120 109z"/><path d="m4376 7983c54 60 168 156 120 239-50-43-47-118-144-65 46-64 50-83 24-174z"/><path d="m5456 8505c-99 124-370 37-504 0 65-66 314 39 504 0z"/><path d="m4280 11092c108 39 296 24 408 0-31 87-383 109-408 0z"/><path d="m5288 11657c63 6 103-8 96-65-33 1-53-10-72-22-8 29-34 42-24 87zm120-109c-4 25 5 39 24 43 4 119-121 150-192 87-17-109 50-143 168-130z"/><path d="m6488 13461c24 0 48 0 72 0 37 154-25 197 0 304-59-42-118-96-72-174-22-38-75-48-144-43 10-111 175 53 144-87z"/><path d="m6824 13569c-99 55 49 134-48 217-28-18-64-29-120-22 3-91-44-121 0-196 86 18 116-49 168 0z"/><path d="m4520 15287c-160 14-384-29-504 22 88 137 452 156 504-22zm-696 456c100 18 193 42 312 43 19-90-115-41-96-130 134 17 128 144 240 217 291 190 861 121 1128-22 9-67 54-144 24-239-26-83-498-382-576-391-225-27-328 114-432 239-373 70-396-177-624-239-78 144-54 396 24 522zm1344-413c-50-20-73-64-72-130-42 12-141-26-144 22 95 2 140 162 216 109zm-24-130c-1 146 161 144 288 174 69-54 206-161 168-239-116 55-291 55-456 65zm72 196c94 45 186 92 240 174 38 60 34 158 72 217 276 16 708 61 840-87 286-320-406-474-648-587-68 105-157 191-240 283-44 40-302-42-264 0zm-1344-196c246 163 777-5 1080-43 52-437-27-773 24-1217-441 70-856 15-1200-109 23 373-149 1207 96 1369zm1152-1282c-34 412 38 792-24 1239 275-5 541-17 720-109-44-460-49-788 0-1239-186 78-550-6-696 109zm720-109c-48 224 109 208 120 283 36-51 59-33 120-22-47-130 124-62 144-130-65-50-64-160-96-239-110 23-203 63-288 109zm336-652c-83-42 27-89 96-65-11-63-51-99-120-109 18 68-73 233 24 174zm-2256-391c-123 56-296 78-456 43-58 117-61 316 24 413 14-45-30-143 24-152 50 78-10 256 96 283-19-56-54-211 0-261 58 99-20 322 120 348 40-127-88-271 24-326-11 118 43 179 24 304 159-66 25-398 168-478-1 124-2 248 120 261-23-168-20-359-144-435zm2400-152c230 96 536 124 720 261-42 164 1 406-48 565-208-209-434-210-696-304 40 66-109 157-168 65-16 248 4 523 96 609 5-39-24-109 48-87 90 77-81 127 0 196 189-33 302 14 576 65 64 0 52-69 120-65-2 216 15 448-48 609-372-91-709-213-1080-304 16 145 220 134 360 174 257 74 503 216 840 196 25-565 110-1188 48-1761-209-151-541-191-816-283 2 34-3 75 48 65zm-120-261c48 150-94 342 24 413-2-140 12-264 72-348-19 90 37 112 120 109-16-102-45-191-120-239-7 45-64 43-96 65zm-816-1282c8-29 34-42 24-87-24 0-48 0-72 0-7 50 6 82 48 87zm-96 261c47-59 100-112 96-217-15-44-121-6-96-87 145-68 162-396 72-543-120 253-204 573-72 848zm-984 543c145 72 437 10 528 130-179 2-380-90-528-43 56 160 8 413 24 609-85 75-197 126-312 174 2 380 436 343 720 217 25-347-47-555 72-782-36 181-27 589-24 804-188 68-499 175-696 43-8 60 69 153 0 196-67 54-132-25-168-65-23 109-15 248-96 304-235 74-277-133-408-217-7 74-38 125-24 217 343 364 1218 633 1848 348-56-829-8-1639-24-2326-541 3-297-632-408-978-94-74-315-33-480-43-48 434-14 944-24 1413zm336-1456c599 56-134 1203 744 1022 167-185 214-766 72-1022-47 292 104 851-192 978-536-62-109-741-408-1022-78 9-208-29-216 43zm600 261c3-128 86-183 120-283-35-41-35-113-96-130 11 140-105 281-24 413zm0-391c2-89-18-157-96-174 16 72 22 154 96 174zm864 152c36-98 10-308-72-370-88 145 62 243 72 370zm-240-152c109-40 42 78 96 87 8-67 32-274-48-326-22 74-67 127-48 239zm-600-217c37 147 67 302 264 304 33-109 115-276 24-370-117 3-223 16-288 65zm288 370c-38 390 185 956-288 1065 33 704-66 1507 48 2304 330 17 556-61 768-152-29-328 52-549 0-804-38 38-108 47-192 43-101-269-38-638 0-891 9 198-6 558 0 826 95 16 96 16 192 0 127-293 64-699 24-1000-2 65-206 58-240 22 21-54 167 6 192-43-18-326 69-482 0-826-43 52-301 78-312 22 62-29 288-5 360-87 30-246-14-365-48-587-106 20-7 226-120 239-44-47-16-159-24-239-73 21-195-3-192 87-38 86 104 8 96 65-73 1-158 13-144-65 112-109 153-281 240-413 75-11 63 75 120 22-16-123 32-304-24-391-107 252-420 438-456 804zm144-435c72-152 224-232 264-413-55-30-107-62-192-65 26 190-91 366-72 478zm264-587c14 78-143 1-120 87 113 7 175 59 216 130 163 640 73 1491 48 2108 136 80 47 364 72 543 66 44 126-63 192-87-29-398-93-844-120-1326-34-597 102-1465-360-1674 6 89 73 122 72 217zm-648 565c99 17 123-33 216-22 95-207 119-650-24-826-62 285-113 579-192 848zm-504-891c139 272 293 532 480 761 62-241 145-578 168-782-115 174-480 98-648 22zm-1056 261c-340 976-587 1902-624 3152 185 382 872 298 1152 43-11-801-82-1744 48-2478 0 116 0 232 0 348 229 41 284-76 432-109 94 67 292 40 312 174-76 71-9-65-96-43 156 214-117 816 216 869-41-373 37-663 0-935-51-376-467-470-648-739 38-2 83 3 72-43-231-67-240-334-336-522-196 76-346 193-528 283zm1008 174c57 13 174-27 192 22-50 13-68 54-144 43 68 207 255 305 456 391-152-348-398-611-552-956-69 161 13 361 48 500zm888 217c-13 105-119 189-24 261 144-327 127-930-168-1109 118 145 231 523 192 848zm-864-848c-5-17-20-25-48-22-462 380 90 1138 504 1195-357-126-860-864-456-1174zm24 152c174 63 374 113 576 43-7-79 4-141 24-196-212 47-470 26-576-87 2 89 5 178-24 239zm696-217c147 150 232 355 240 630 68-4 100-40 168-43-119-193-98-709-408-587zm-936 696c-78-172-135-525 72-609 10-52-44-47-24-109 39-37 151-8 144-87-528-25-435 619-192 804zm360-1913c-23 194-228 298-264 413-80-43-112-131-264-109-106 72-49 241 0 348 47 30 137 21 192 43 120 254 194 526 504 565 697 89 768-752 624-1304-249 68-512 100-792 43zm696-522c-394-69-1044-165-1008 326-70 6-74-49-144-43-109 176-379 355-216 587 87-75 286-135 384-22 118-81 179-215 264-326 20-77-149-95-72-152 202 268 677 57 984 87-84 34-5 81-24 174 327-195-46-460-168-630zm384 413c-38 157-201 240-216 435-22 283 104 602-168 782 213 227 319 551 600 717 41 928 165 2008 144 2847 41 86 106 150 96 283 248 58 515 99 672 239 45 573 13 1235-72 1804-471 49-843-178-1224-283-38 204 25 497 24 739 192 130 493 162 672 304 193 495-545 541-936 435-200 310-1106 276-1344 22-150 12-234-34-360-43-103-127-142-447-24-587-133-365-38-978-72-1369-128-138-335-204-456-348 2-237 11-468 72-652-105-115-244-200-336-326 25-1209 298-2193 600-3152 204-119 368-275 648-326 29-112 69-213 120-304 85-10 139-48 240-43-4-166-156-378-360-435 48-177-186-271-192-435-4-109 258-543 456-456-16-166 76-235 144-326 332-67 620-19 936 22 75 185 257 275 336 456z"/></g><text x="10500" y="14850" font-family="&apos;BatangChe&apos;" stroke-width="75" font-size="1894.37" transform="matrix(.6204 0-.22281 1.0514-445.34 4987.87)">Texto 1</text></g><path d="m2820 6768l23-279-43-4c-4 46-16 76-36 90-18 13-49 17-92 13l-992-91 1189-168 3-33-1147-356 994 91c42 4 70 14 85 31 20 19 28 50 24 93l43 4 29-348-43-4c-3 36-16 63-39 81-22 17-52 24-90 21l-942-86c-34-3-57-13-70-31-12-19-16-49-13-90l-43-4-22 267 975 298-1011 138-21 255 43 4c3-36 12-62 27-79 16-21 42-29 75-26l942 86c42 4 71 17 88 39 18 21 25 49 22 85l43 4zm122-1894c40 62 67 124 80 188 13 62 12 123-3 182-23 88-70 152-143 191-88 48-203 53-343 13l169-658c-114-32-214-22-300 30-84 51-140 132-169 244-30 116-14 224 46 324 60 97 148 162 266 195 125 35 237 24 336-32 97-56 160-142 191-261 22-86 22-167 0-245-18-62-52-126-101-191l-28 22zm-320 28l-137 534c-76-27-135-77-178-151-41-71-53-140-36-207 19-73 57-125 115-157 62-33 140-39 235-18zm889-665c21-46 38-82 52-110 15-31 35-69 58-114l-32-20c-23 39-48 64-75 72-25 8-54 2-86-18l-943-592-67 287 26 7c30-52 54-84 74-97 20-13 43-11 68 5l282 177c-43 12-78 29-107 49-38 27-71 65-99 113-60 104-69 210-26 318 38 97 109 178 211 242 99 62 200 87 303 75 112-12 197-69 255-170 26-45 42-93 48-145 4-42 2-81-7-118l65 38zm-588-369l471 296 3 15c10 38 14 68 14 92 0 42-12 83-37 125-46 80-116 122-208 125-82 4-167-22-255-77-89-56-151-122-187-201-41-87-38-170 8-251 22-39 49-68 81-89 30-18 67-31 110-37zm71-1147c-22 26-32 51-30 77 1 23 11 44 29 61 17 16 36 23 59 22 25-1 48-14 70-39 20-24 30-49 29-76 0-24-9-45-25-60-18-17-39-25-63-23-26 1-49 14-69 38m823 1030l-32-30c30-35 48-64 51-86 5-23-5-46-30-70l-392-368c-19-18-39-25-60-20-23 6-51 27-83 64l-23-13 105-246 527 496c25 24 47 33 67 27 20-6 47-28 80-67l32 30-245 284zm995-1216l-32 8c-4 84-18 153-39 206-17 45-43 82-78 111-70 59-148 78-234 57-83-20-160-75-229-164-72-93-110-187-114-282-2-86 23-151 73-193 29-24 58-37 89-39 25-2 57 5 95 21l31 15c21 11 37 17 49 17 18 3 36-4 55-20 24-20 33-44 27-72-4-28-23-49-56-63-33-14-77-14-133 0-58 15-107 39-147 73-86 73-136 171-149 294-13 132 22 252 105 359 69 89 160 141 272 155 110 16 205-10 284-77 55-47 93-109 114-187 15-60 21-133 18-219zm53-1305c-30 15-48 35-56 60-7 22-6 45 5 68 10 21 25 36 47 43 23 9 50 6 79-9 27-14 46-34 54-59 9-23 8-45-2-66-11-23-27-38-50-45-24-9-50-6-78 8zm393 1277l-19-40c41-21 67-41 79-60 13-20 12-45-3-77l-231-495c-11-24-27-38-48-42-23-4-57 5-99 27l-16-21 186-187 311 666c15 32 32 49 53 51 20 3 53-7 98-30l19 40-329 167zm627-330l353-99-11-44c-44 12-77 13-100 3-23-9-39-33-49-70l-126-491c40-57 77-102 110-133 41-38 82-63 125-75 43-12 79-5 108 21 27 23 48 61 62 114l116 454c10 37 7 66-8 86-15 21-44 38-88 50l11 44 353-99-11-44c-44 12-77 13-98 2-23-9-39-33-49-70l-115-449c-20-77-54-133-104-167-48-34-102-43-161-26-46 13-91 40-135 82-27 25-61 66-104 122l-25 36-40-155-212 132 12 26c46-13 78-15 97-7 19 8 33 31 42 68l131 510c10 37 7 66-7 86-14 21-43 38-88 50l11 44zm1782-354l-17-19c-17 16-34 28-49 35-11 5-23 8-37 8-15 0-25-9-30-28-5-16-8-39-8-68l-8-500c-1-77-27-137-78-178-49-40-114-60-196-58-97 2-180 20-248 55-67 37-100 77-99 123 0 25 7 43 20 56 12 14 31 21 55 20 22 0 40-9 55-26 10-11 19-28 29-52 15-47 37-81 66-102 28-21 66-31 113-32 54-1 96 15 126 47 29 30 43 73 44 130l2 128c-171 31-302 78-394 139-92 61-138 131-136 212 1 61 22 111 63 149 43 40 104 60 181 58 59-1 114-14 165-38 43-21 86-51 129-90 1 36 7 64 20 84 16 26 45 38 84 37 33-1 62-10 88-28 18-14 39-35 62-63zm-260-411l5 326c-41 39-80 66-118 82-40 18-87 28-141 29-44 1-80-12-109-39-28-27-43-60-44-102-1-77 41-142 127-198 75-50 168-83 279-99z" fill-rule="nonzero"/></g><g stroke="#201e1e"><g stroke-width="75"><path d="m2820 6768l23-279-43-4c-4 46-16 76-36 90-18 13-49 17-92 13l-992-91 1189-168 3-33-1147-356 994 91c42 4 70 14 85 31 20 19 28 50 24 93l43 4 29-348-43-4c-3 36-16 63-39 81-22 17-52 24-90 21l-942-86c-34-3-57-13-70-31-12-19-16-49-13-90l-43-4-22 267 975 298-1011 138-21 255 43 4c3-36 12-62 27-79 16-21 42-29 75-26l942 86c42 4 71 17 88 39 18 21 25 49 22 85l43 4zm122-1894c40 62 67 124 80 188 13 62 12 123-3 182-23 88-70 152-143 191-88 48-203 53-343 13l169-658c-114-32-214-22-300 30-84 51-140 132-169 244-30 116-14 224 46 324 60 97 148 162 266 195 125 35 237 24 336-32 97-56 160-142 191-261 22-86 22-167 0-245-18-62-52-126-101-191l-28 22zm-320 28l-137 534c-76-27-135-77-178-151-41-71-53-140-36-207 19-73 57-125 115-157 62-33 140-39 235-18zm889-665c21-46 38-82 52-110 15-31 35-69 58-114l-32-20c-23 39-48 64-75 72-25 8-54 2-86-18l-943-592-67 287 26 7c30-52 54-84 74-97 20-13 43-11 68 5l282 177c-43 12-78 29-107 49-38 27-71 65-99 113-60 104-69 210-26 318 38 97 109 178 211 242 99 62 200 87 303 75 112-12 197-69 255-170 26-45 42-93 48-145 4-42 2-81-7-118l65 38zm-588-369l471 296 3 15c10 38 14 68 14 92 0 42-12 83-37 125-46 80-116 122-208 125-82 4-167-22-255-77-89-56-151-122-187-201-41-87-38-170 8-251 22-39 49-68 81-89 30-18 67-31 110-37zm71-1147c-22 26-32 51-30 77 1 23 11 44 29 61 17 16 36 23 59 22 25-1 48-14 70-39 20-24 30-49 29-76 0-24-9-45-25-60-18-17-39-25-63-23-26 1-49 14-69 38zm823 1030l-32-30c30-35 48-64 51-86 5-23-5-46-30-70l-392-368c-19-18-39-25-60-20-23 6-51 27-83 64l-23-13 105-246 527 496c25 24 47 33 67 27 20-6 47-28 80-67l32 30-245 284zm995-1216l-32 8c-4 84-18 153-39 206-17 45-43 82-78 111-70 59-148 78-234 57-83-20-160-75-229-164-72-93-110-187-114-282-2-86 23-151 73-193 29-24 58-37 89-39 25-2 57 5 95 21l31 15c21 11 37 17 49 17 18 3 36-4 55-20 24-20 33-44 27-72-4-28-23-49-56-63-33-14-77-14-133 0-58 15-107 39-147 73-86 73-136 171-149 294-13 132 22 252 105 359 69 89 160 141 272 155 110 16 205-10 284-77 55-47 93-109 114-187 15-60 21-133 18-219zm53-1305c-30 15-48 35-56 60-7 22-6 45 5 68 10 21 25 36 47 43 23 9 50 6 79-9 27-14 46-34 54-59 9-23 8-45-2-66-11-23-27-38-50-45-24-9-50-6-78 8zm393 1277l-19-40c41-21 67-41 79-60 13-20 12-45-3-77l-231-495c-11-24-27-38-48-42-23-4-57 5-99 27l-16-21 186-187 311 666c15 32 32 49 53 51 20 3 53-7 98-30l19 40-329 167zm627-330l353-99-11-44c-44 12-77 13-100 3-23-9-39-33-49-70l-126-491c40-57 77-102 110-133 41-38 82-63 125-75 43-12 79-5 108 21 27 23 48 61 62 114l116 454c10 37 7 66-8 86-15 21-44 38-88 50l11 44 353-99-11-44c-44 12-77 13-98 2-23-9-39-33-49-70l-115-449c-20-77-54-133-104-167-48-34-102-43-161-26-46 13-91 40-135 82-27 25-61 66-104 122l-25 36-40-155-212 132 12 26c46-13 78-15 97-7 19 8 33 31 42 68l131 510c10 37 7 66-7 86-14 21-43 38-88 50l11 44zm1782-354l-17-19c-17 16-34 28-49 35-11 5-23 8-37 8-15 0-25-9-30-28-5-16-8-39-8-68l-8-500c-1-77-27-137-78-178-49-40-114-60-196-58-97 2-180 20-248 55-67 37-100 77-99 123 0 25 7 43 20 56 12 14 31 21 55 20 22 0 40-9 55-26 10-11 19-28 29-52 15-47 37-81 66-102 28-21 66-31 113-32 54-1 96 15 126 47 29 30 43 73 44 130l2 128c-171 31-302 78-394 139-92 61-138 131-136 212 1 61 22 111 63 149 43 40 104 60 181 58 59-1 114-14 165-38 43-21 86-51 129-90 1 36 7 64 20 84 16 26 45 38 84 37 33-1 62-10 88-28 18-14 39-35 62-63zm-260-411l5 326c-41 39-80 66-118 82-40 18-87 28-141 29-44 1-80-12-109-39-28-27-43-60-44-102-1-77 41-142 127-198 75-50 168-83 279-99z" fill="none" fill-rule="nonzero" stroke-linejoin="round" stroke-linecap="round"/><text x="10500" y="14850" fill="#201e1e" font-family="&apos;BatangChe&apos;" font-size="1094.72" transform="matrix(.77439 0 0 1.05169-4976.87 7028.05)">00.00.0000</text></g><g fill="#201e1e" font-family="&apos;Arial&apos;" stroke-width="7.62" font-size="702.77"><text x="10500" y="14850" transform="matrix(1.0074 0 0 1.05169-6117.67 1863.78)">NN 1</text><text x="10500" y="14850" transform="matrix(1.0074 0 0 1.05169-6131.57 2488.1)">NN 2</text></g></g></g></g><g clip-path="url(#1)"><g><g fill="#201e1e"><g stroke="#201e1e"><g font-family="&apos;BatangChe&apos;" stroke-width="75"><text x="10500" y="14850" font-size="1091.68" transform="matrix(.77656 0 0 1.05169 5484.35 7016.11)">00.00.0000</text><text x="10500" y="14850" stroke-linejoin="round" stroke-linecap="round" font-size="1894.37" transform="matrix(.6204 0-.22281 1.0514 10258.6 4975.89)">Texto 1</text></g><g stroke-width="7.62"><path d="m16027 7657c39 33 39 120 0 153-66 8-110-4-143-25-7-91 41-133 143-127z"/><path d="m16027 14431c202-184 314-739 0-891 48 354-129 610 0 891zm-286 1222c255-164 83-469 86-764 5-489 98-1023 114-1477-168-20-216-147-400-153 128 744 125 1603 200 2394zm-343-3234c-25-190-36-314-57-458-35 147-107 377 57 458zm-315 433c372 399 1117 399 1258 891 103 358-164 639-372 917 295-209 561-348 601-688 91-770-835-889-1230-1401-323-419 114-703-86-1171-420 341-595 998-172 1452zm972-2801c-82 156-91 377-114 586 285-140 313-806 29-968-17 206-34 279 86 382zm-658 280c-170 24-91-174-257-153-65 258 197 547 257 891 86 490 60 1033 86 1477 112 112 213 235 400 280-75-383 122-653 143-866-82-79-107 140-200 51-94-881 128-1728 57-2470-132-87-312-265-458-255 17 305 199 839-29 1044zm-86-1986c-71-55 38-271-86-280-34 110-43 251 86 280zm572 407c1-161-11-333 29-458-249-33-319-225-543-280-9 431 120 637 515 739zm-1230-637c-53 1064 1881 1031 1630 2241-38 185-214 339-343 458 1 154 9 314-29 433 596-315 1010-1273 543-1884-394-516-1384-719-1373-1171 4-174 170-293 343-280 268 20 385 417 744 331 47-162 93-163 229-153-146-976-1702-841-1745 25zm629-789c208-68 394 17 601 25 20-110 119-256 57-357-96-60-185 61-343 25-67-110-230-135-400-153 30 151 63 301 86 458zm772-407c70 158-31 332-86 458 253 182 554 322 515 764-198 36-195 251-486 204 19 178-26 300-29 458 302 298 689 491 801 917 179 682-368 1347-858 1706 0 136 0 272 0 407 57-6 181 28 229 102-78 296-167 582-172 942 312 294 771 539 744 1044-23 421-415 643-744 866 97 536-34 1023-400 1121-29-196 93-586 0-840-254 43-594 262-858 127 260-168 699-176 858-433-12-549-88-1042-143-1553-857-251-893-1583-143-1961-43-387-146-719-315-993 46-112 176-149 286-204 54 46 34 156 114 178 108-301-91-608-29-1019-324-259-831-574-801-1095 23-388 314-586 629-789-8-183-113-375-29-560 249-1 439 50 543 178 119-37 234-69 372-25z"/></g></g><path d="m13298 1868l268 10 2-45c-44-2-74-13-88-33-13-18-18-50-17-96l35-1039 223 1231 32 1 280-1215-35 1041c-1 44-10 74-25 91-17 22-46 32-88 30l-2 45 335 12 2-45c-35-1-61-13-80-37-18-22-26-53-25-93l33-986c1-35 10-60 26-75 18-13 46-19 86-18l1-45-257-9-234 1032-185-1047-245-9-2 45c35 1 60 9 77 24 21 16 30 42 29 77l-33 986c-1 44-12 75-33 94-19 19-46 28-80 27l-2 45zm1813 125c-62 36-124 59-186 66-60 8-119 2-174-19-82-31-139-87-170-166-38-96-33-215 17-358l613 233c40-115 40-220-2-315-41-91-114-157-218-196-108-41-213-35-313 20-98 54-168 140-209 259-44 127-44 244 2 353 45 105 122 179 233 221 80 30 158 38 234 21 61-13 125-43 192-89l-19-31zm1-335l-497-189c32-77 85-134 160-172 72-36 138-43 201-19 68 26 115 70 140 134 26 67 25 149-3 246zm614 863c45 19 81 34 109 46 30 14 68 31 113 52l17-34c-39-21-64-45-74-73-10-26-6-56 11-91l499-1023-279-49-5 27c51 27 84 51 98 70 13 20 13 44 0 71l-150 306c-14-43-33-80-55-108-29-38-67-69-115-95-104-55-206-57-306-5-90 47-163 125-217 236-52 108-69 214-51 320 19 116 79 200 180 254 45 24 92 37 142 40 41 2 78-3 113-15l-32 70zm311-638l-250 512-14 4c-35 13-64 20-87 21-40 3-81-7-122-29-80-42-125-112-134-208-10-85 9-175 56-271 47-96 106-166 179-209 80-48 160-51 240-9 38 20 69 46 90 78 20 30 34 68 43 112zm1128 43c-25-22-50-32-75-29-22 2-42 13-58 33-14 18-21 39-19 62 1 26 15 50 40 72 23 20 48 30 74 28 23-1 42-11 57-29 16-20 23-42 19-66-2-27-15-50-39-71zm-958 894l28-35c35 30 63 47 84 51 22 4 44-7 66-34l339-422c17-21 22-42 17-63-6-24-28-52-64-84l12-24 239 101-456 567c-22 27-30 51-24 71 6 21 28 48 67 82l-28 35-280-245m1223 957l-9-33c-81-2-147-13-199-34-44-17-80-42-109-77-59-71-80-151-63-242 16-88 66-169 149-245 87-79 175-122 266-129 83-5 145 19 188 70 24 29 38 59 40 91 3 26-3 60-17 100l-13 32c-10 22-15 39-15 52-2 19 5 38 21 57 20 24 44 33 70 26 27-6 46-26 58-61 12-35 11-81-4-139-16-60-41-111-75-151-73-87-168-135-286-145-127-9-240 32-340 122-83 75-129 172-139 289-11 115 17 213 84 294 47 56 108 94 183 112 58 14 128 18 210 11m1256-34c-17-30-37-48-61-54-22-6-43-3-65 10-19 12-32 29-38 52-7 25-2 52 14 82 15 28 35 45 60 52 22 7 43 5 63-7 21-13 35-31 40-55 7-26 2-53-13-80m-1193 499l37-23c23 41 44 67 63 78 20 12 44 9 73-8l457-275c22-14 35-31 37-53 2-25-9-59-33-102l19-18 191 181-615 370c-29 18-44 37-45 58-1 21 11 55 36 100l-37 23-183-330zm355 638l88 370 42-11c-11-46-11-81-1-105 9-24 32-40 68-50l472-123c54 42 96 82 125 118 36 43 59 87 70 132 11 45 3 82-22 113-22 28-59 49-110 62l-436 114c-36 9-64 6-83-10-20-16-36-47-46-93l-42 11 88 370 42-11c-11-46-11-80 0-103 9-24 32-40 68-50l432-112c74-19 128-54 162-106 33-50 43-106 28-168-12-48-37-96-76-143-24-28-62-65-115-111l-34-27 149-39-123-224-25 13c11 48 13 82 5 101-8 19-30 34-66 43l-491 128c-36 9-63 7-82-8-20-14-35-46-46-93l-42 11zm353 1864l18-18c-16-17-28-33-36-50-5-11-9-24-9-38-1-15 7-26 25-33 15-6 37-10 65-12l478-35c74-5 129-36 166-91 36-53 51-122 45-208-7-101-29-186-65-256-39-68-79-100-123-97-24 2-41 10-52 23-13 14-18 33-17 59 2 23 11 42 27 56 11 10 28 19 51 27 46 13 80 35 101 64 21 28 33 67 37 116 4 56-9 101-38 134-27 31-68 49-122 53l-123 9c-39-177-90-311-154-404-63-93-133-136-210-131-58 4-105 29-139 73-36 47-52 111-46 192 4 61 19 118 45 170 22 43 53 87 93 130-35 3-61 11-79 25-24 19-34 49-31 90 2 34 13 65 31 90 14 18 35 39 64 61zm380-293l-312 23c-39-41-67-80-84-119-20-41-31-89-35-145-3-46 7-84 31-116 24-31 56-48 95-51 73-5 138 35 196 122 51 76 88 171 109 286" fill-rule="nonzero"/></g><g stroke="#201e1e"><path d="m13298 1868l268 10 2-45c-44-2-74-13-88-33-13-18-18-50-17-96l35-1039 223 1231 32 1 280-1215-35 1041c-1 44-10 74-25 91-17 22-46 32-88 30l-2 45 335 12 2-45c-35-1-61-13-80-37-18-22-26-53-25-93l33-986c1-35 10-60 26-75 18-13 46-19 86-18l1-45-257-9-234 1032-185-1047-245-9-2 45c35 1 60 9 77 24 21 16 30 42 29 77l-33 986c-1 44-12 75-33 94-19 19-46 28-80 27l-2 45zm1813 125c-62 36-124 59-186 66-60 8-119 2-174-19-82-31-139-87-170-166-38-96-33-215 17-358l613 233c40-115 40-220-2-315-41-91-114-157-218-196-108-41-213-35-313 20-98 54-168 140-209 259-44 127-44 244 2 353 45 105 122 179 233 221 80 30 158 38 234 21 61-13 125-43 192-89l-19-31zm1-335l-497-189c32-77 85-134 160-172 72-36 138-43 201-19 68 26 115 70 140 134 26 67 25 149-3 246zm614 863c45 19 81 34 109 46 30 14 68 31 113 52l17-34c-39-21-64-45-74-73-10-26-6-56 11-91l499-1023-279-49-5 27c51 27 84 51 98 70 13 20 13 44 0 71l-150 306c-14-43-33-80-55-108-29-38-67-69-115-95-104-55-206-57-306-5-90 47-163 125-217 236-52 108-69 214-51 320 19 116 79 200 180 254 45 24 92 37 142 40 41 2 78-3 113-15l-32 70zm311-638l-250 512-14 4c-35 13-64 20-87 21-40 3-81-7-122-29-80-42-125-112-134-208-10-85 9-175 56-271 47-96 106-166 179-209 80-48 160-51 240-9 38 20 69 46 90 78 20 30 34 68 43 112zm1128 43c-25-22-50-32-75-29-22 2-42 13-58 33-14 18-21 39-19 62 1 26 15 50 40 72 23 20 48 30 74 28 23-1 42-11 57-29 16-20 23-42 19-66-2-27-15-50-39-71zm-958 894l28-35c35 30 63 47 84 51 22 4 44-7 66-34l339-422c17-21 22-42 17-63-6-24-28-52-64-84l12-24 239 101-456 567c-22 27-30 51-24 71 6 21 28 48 67 82l-28 35-280-245zm1223 957l-9-33c-81-2-147-13-199-34-44-17-80-42-109-77-59-71-80-151-63-242 16-88 66-169 149-245 87-79 175-122 266-129 83-5 145 19 188 70 24 29 38 59 40 91 3 26-3 60-17 100l-13 32c-10 22-15 39-15 52-2 19 5 38 21 57 20 24 44 33 70 26 27-6 46-26 58-61 12-35 11-81-4-139-16-60-41-111-75-151-73-87-168-135-286-145-127-9-240 32-340 122-83 75-129 172-139 289-11 115 17 213 84 294 47 56 108 94 183 112 58 14 128 18 210 11zm1256-34c-17-30-37-48-61-54-22-6-43-3-65 10-19 12-32 29-38 52-7 25-2 52 14 82 15 28 35 45 60 52 22 7 43 5 63-7 21-13 35-31 40-55 7-26 2-53-13-80zm-1193 499l37-23c23 41 44 67 63 78 20 12 44 9 73-8l457-275c22-14 35-31 37-53 2-25-9-59-33-102l19-18 191 181-615 370c-29 18-44 37-45 58-1 21 11 55 36 100l-37 23-183-330zm355 638l88 370 42-11c-11-46-11-81-1-105 9-24 32-40 68-50l472-123c54 42 96 82 125 118 36 43 59 87 70 132 11 45 3 82-22 113-22 28-59 49-110 62l-436 114c-36 9-64 6-83-10-20-16-36-47-46-93l-42 11 88 370 42-11c-11-46-11-80 0-103 9-24 32-40 68-50l432-112c74-19 128-54 162-106 33-50 43-106 28-168-12-48-37-96-76-143-24-28-62-65-115-111l-34-27 149-39-123-224-25 13c11 48 13 82 5 101-8 19-30 34-66 43l-491 128c-36 9-63 7-82-8-20-14-35-46-46-93l-42 11zm353 1864l18-18c-16-17-28-33-36-50-5-11-9-24-9-38-1-15 7-26 25-33 15-6 37-10 65-12l478-35c74-5 129-36 166-91 36-53 51-122 45-208-7-101-29-186-65-256-39-68-79-100-123-97-24 2-41 10-52 23-13 14-18 33-17 59 2 23 11 42 27 56 11 10 28 19 51 27 46 13 80 35 101 64 21 28 33 67 37 116 4 56-9 101-38 134-27 31-68 49-122 53l-123 9c-39-177-90-311-154-404-63-93-133-136-210-131-58 4-105 29-139 73-36 47-52 111-46 192 4 61 19 118 45 170 22 43 53 87 93 130-35 3-61 11-79 25-24 19-34 49-31 90 2 34 13 65 31 90 14 18 35 39 64 61zm380-293l-312 23c-39-41-67-80-84-119-20-41-31-89-35-145-3-46 7-84 31-116 24-31 56-48 95-51 73-5 138 35 196 122 51 76 88 171 109 286z" fill="none" fill-rule="nonzero" stroke-linejoin="round" stroke-linecap="round" stroke-width="75"/><g fill="#201e1e" font-family="&apos;Arial&apos;" stroke-width="7.62" font-size="702.77"><text x="10500" y="14850" transform="matrix(1.0074 0 0 1.05169 4273.42 1609.19)">NN 1</text><text x="10500" y="14850" transform="matrix(1.0074 0 0 1.05169 4259.53 2233.52)">NN 2</text></g></g></g></g></svg>