<svg xmlns="http://www.w3.org/2000/svg" width="744.09" height="1052.36" viewBox="0 0 21000 29700" shape-rendering="geometricPrecision" image-rendering="optimizeQuality" fill-rule="evenodd" clip-rule="evenodd"><defs><clipPath id="0"><path d="m6577 15763c-822 376-2384 303-2859-392-473-693-366-2658-410-3621-112-2413-396-4242-470-6188-82-2161 1483-3589 3354-3991 2639-567 2483 2757 2117 4466-192 918-572 1717-815 2615-447 1655-42 4183-197 5906-80 596-291 991-720 1205"/></clipPath><clipPath id="1"><path d="m14423 15751c822 376 2384 303 2859-392 473-693 366-2658 410-3621 112-2413 396-4242 470-6188 82-2161-1483-3589-3354-3991-2639-567-2483 2757-2117 4466 192 918 572 1717 815 2615 447 1655 42 4183 198 5906 80 596 291 991 720 1205z"/></clipPath></defs><text x="10046" y="19022" fill="#201e1e" font-family="&apos;Arial Black&apos;" stroke="#201e1e" font-weight="900" stroke-width="7.62" font-size="705.56">24</text><g fill="none" stroke-width="80"><g stroke="#322f30"><circle cx="10533" cy="1326" r="460"/><path d="m10533 515v1621"/><path d="m9723 1326h1621"/></g><g stroke="#373435"><circle cx="10498" cy="20686" r="460"/><path d="m10498 19875v1621"/><path d="m9688 20686h1620"/></g></g><g fill="#373435" font-family="&apos;Arial&apos;" font-weight="normal" font-size="423.33"><text x="2424" y="22378">DESC 1</text><text x="2389" y="22982">DESC 2</text><text x="2371" y="23582">DESC 3</text></g><g clip-path="url(#0)"><g stroke="#201e1e"><g fill="none" stroke-width="75"><path d="m3865 13790l-366-130c0 0 158-324 445-231 0 0 101 3 284 183 0 0 232 208 453 400"/><path d="m5196 14409c0 0 232 155 284 163 0 0 163 51 173 197 0 0-26 292-320 311 0 0-202-4-271-173 0 0-46-248 251-321 0 0 264-11 235 231 0 0-59 217-303 175 0 0-261-68-65-301 0 0 91-113 251-6 0 0 130 123-88 259 0 0 57-131-151-265"/><path d="m4495 14342c0 0 421 290 568 566"/><path d="m3813 13962l-264-104c0 0-43-95 19-173"/><path d="m5433 14554c0 0-175-29-378 83 0 0-170-231-486-445"/></g><g fill="#201e1e" stroke-width="7.62"><path d="m4109 14738l40-13c0 0-3 124-91 189 0 0 153 90 300-90 0 0 78-76 108-324l55-290c0 0 166-23 228-99 0 0 137 70 444 329l26-163c0 0 209 0 241-42 0 0-111-42-153-65 0 0-157-99-414-84 0 0 532-149 463-276 0 0-26-149-241-37 0 0-33 17-205 163 0 0-124 107-163 115l192-177c0 0 199-208 316-183 0 0 37 12 64 27 0 0-83-115-222-169 0 0-186-100-313 84 0 0-73 92-106 379 0 0-101-15-73 62 0 0-29-39-47-28 0 0-49 7-38 52 0 0-121-93-222-189 0 0-192-194-385-172 0 0-78 20-72 155 0 0-75 191-134 273 0 0-2 3-4 9 80-86 208-38 208-38 101 38 357 77 357 77l-16 8c-16 8-166 8-166 8-137 6-201-56-201-56-26-31-54-30-54-30-67-4-128 30-128 30-12 33-37 145 141 171 0 0 258 11 404-54 0 0-78 262-509 439 0 0 88 96 369 6zm601-710l-18 4c0 0 106-93 166-197 0 0 3 125-148 193zm-205 114l18-13c0 0-232-1-328-66 0 0 124 132 310 79z"/><path d="m5453 13069l612 214c0 0-2 11-41 6 0 0-389-111-565-211l-7-8zm-1781-26l1638-592 1691 526-868 314c0 0-264-114-689-246h-1c24-15 38-36 38-59 0-47-63-86-140-86-77 0-140 38-140 86 0 47 63 86 140 86 18 0 35-2 51-6-1 0-2 0-3 1 0 0 398 206 650 240 0 0-10 9-19 25l-658 238-1691-526zm1759 9c-10 5-22 10-34 13l2-1c12-2 23-8 32-12zm-35 13c-1 0-2 0-3 1 1 0 2 0 3-1z"/><path d="m6022 13331c-14 26-24 73 12 138l5 130c0 0-7 177-31 282 0 0-65 215 75 341l145 139c0 0 233 194-16 421 0 0-15 18 18 8 0 0 134-86 113-270 0 0 26-11-3 155 0 0-20 80-121 132 0 0-18 23 16 14 0 0 158-90 142-266 0 0-16-87-42-121-26-34 80 49 60 189 0 0-3 108-134 193 0 0-18 37 57-20 0 0 121-84 98-253 0 0 82 113-80 253 0 0-80 58 0 39l34 7c0 0 15 8 38-10 23-18-33 58 31-1 0 0 124-96 148-263 0 0 23-153-157-296-179-142-194-156-210-269 0 0 34-241 11-325 0 0-8-38-51-80l-5-110c0 0 91-129-42-197l-112 41zm34 362l8-15c0 0 3 65-15 111l7-96zm34 7l8-14c0 0 8 93-20 177 0 0-11-115 11-163zm106 37l7-21c0 0 23 76-8 183l2-162zm-66-56l-1-19c0 0 29 77 16 182 0 0-13 132-15 176 0 0-23-31-2-196 0 0 9-53 1-143zm-80 198l13 200c0 0-44-99-13-200zm41 34l16-42c0 0-24 196 77 301 0 0-122-55-93-259zm-70 151l7-30c0 0 2 114 197 287 0 0-152-65-204-258zm135-132l11-21c0 0-10 149 16 206 0 0-67-27-28-184zm46 24c0 0-33 142 145 279 179 136 205 221 210 244 5 23 5 23 5 23s33 62-34 191c0 0 67-225-55-324l-165-146c0 0-155-111-106-266zm10 194l2-14c0 0 63 97 73 87 0 0-34 16-75-73zm-116-30l-7-30c0 0 181 245 243 293 0 0-139-71-236-263zm209 207l-72-87c0 0 240 201 223 331 0 0-38-111-130-221l-21-23zm55-6l-15-23c0 0 197 130 166 345 0 0-5 75-114 175 0 0 134-156 78-313 0 0-19-82-116-184zm-291-962l-5 6c-16 17 11 76 17 37 1-9-11-43-12-43zm43 39c2 15 12 53-7 55-30 3-15-57-3-63 9-5 10 4 10 8zm32 24c1-11 11-18 22-21 12 13-6 62-17 58 0-1-16-8-4-31 1-2-1-3-1-6zm-95-15c-1-8-8-24-11-32-15 20-9 59 6 56 0 0 6-15 5-24z"/><path d="m4429 13302c0 0-78 138-52 293l349 90c0 0 86-251 347-169 0 0 310 106 317 330 0 0 7 23-46 71l50 47c0 0 380-214 612-293-1-63 8-128-3-190 0 0-34-36-24-111l-621 219-929-287z"/><path d="m6183 13293l98-30c0 0 62 127 78 293l-149 39-7-101c0 0 77-112-21-201z"/></g><g fill="#201e1e"><text x="10500" y="14850" font-family="&apos;Bolero script&apos;" stroke-linejoin="round" stroke-linecap="round" stroke-width="50" font-size="935.56" transform="matrix(.9778-.22389.18723.6427-8114.12 8674.06)">Texto 1</text><g stroke-width="7.62"><path d="m6037 9823l-1574 5c0 0-167-37-167-210l-276 9c0 0-122-9-118-123l-339-9-14-183 3410-18 5 238h-303c0 0-50 114-167 101l-285 9c0 0-5 165-172 183z"/><path d="m3893 9310l1393-2769c0 0-326-274 0-494 0 0 439-208 450 318 0 0 464 61 1054-382 0 0 682-432 1587-294-21 122-44 239-67 349-13 63-27 125-42 187-1-21-1-44 1-70 0 0-772-147-1381 241 0 0-1143 637-1429 202l1058 2698-136 1-936-2360 12 2365-175 1-9-2393-1185 2400-195 1z"/></g><g stroke-width="7.62"><path d="m6289 11124h989c1 82 2 163 4 245h-992v-245z"/><path d="m5896 10878h1381c0 82 1 163 2 245h-1382v-245z"/><path d="m5543 10632h1735c-1 81-1 163-1 245h-1733v-245z"/><g font-family="&apos;Arial&apos;" font-size="423.33"><text x="10500" y="14850" transform="matrix(.69558 0 0 .66379-2811.85 1334.87)">NN 1</text><text x="10500" y="14850" transform="matrix(.69558 0 0 .66379-2813.5 1590.03)">NN 2</text></g></g></g></g></g><g fill="#201e1e" font-family="&apos;Arial Rounded MT Bold fed&apos;" stroke="#201e1e" stroke-linejoin="round" stroke-linecap="round" font-weight="bold" stroke-width="50" font-size="1058.33"><text x="3502" y="6459"><tspan rotate="267">D</tspan></text><text x="3455" y="5677"><tspan rotate="270">I</tspan></text><text x="3428" y="5343"><tspan rotate="278">R</tspan></text><text x="3533" y="4586"><tspan rotate="292">E</tspan></text><text x="3807" y="3936"><tspan rotate="300">I</tspan></text><text x="3964" y="3641"><tspan rotate="311">T</tspan></text><text x="4379" y="3137"><tspan rotate="324">O</tspan></text></g><g clip-path="url(#1)"><g stroke="#201e1e"><g fill="none" stroke-width="75"><path d="m14062 13779l-366-130c0 0 158-324 445-231 0 0 101 3 284 183 0 0 232 208 453 400"/><path d="m15392 14398c0 0 232 155 284 163 0 0 163 51 173 197 0 0-26 292-320 311 0 0-202-4-271-173 0 0-46-248 251-321 0 0 264-11 235 231 0 0-59 217-303 175 0 0-261-68-65-301 0 0 91-113 251-6 0 0 130 123-88 259 0 0 57-131-151-265"/><path d="m14691 14331c0 0 421 290 568 566"/><path d="m14009 13951l-264-104c0 0-43-95 19-173"/><path d="m15630 14543c0 0-175-29-378 83 0 0-170-231-486-445"/></g><g fill="#201e1e" stroke-width="7.62"><path d="m14305 14727l40-13c0 0-3 124-91 189 0 0 153 90 300-90 0 0 78-76 108-324l55-290c0 0 166-23 228-99 0 0 137 70 444 329l26-163c0 0 209 0 241-42 0 0-111-42-153-65 0 0-157-99-414-84 0 0 532-149 463-276 0 0-26-149-241-37 0 0-33 17-205 163 0 0-124 107-163 115l192-177c0 0 199-208 316-183 0 0 37 12 64 27 0 0-83-115-222-169 0 0-186-100-313 84 0 0-73 92-106 379 0 0-101-15-73 62 0 0-29-39-47-28 0 0-49 7-38 52 0 0-121-93-222-189 0 0-192-194-385-172 0 0-78 20-72 155 0 0-75 191-134 273 0 0-2 3-4 9 80-86 208-38 208-38 101 38 357 77 357 77l-16 8c-16 8-166 8-166 8-137 6-201-56-201-56-26-31-54-30-54-30-67-4-128 30-128 30-12 33-37 145 141 171 0 0 258 11 404-54 0 0-78 262-509 439 0 0 88 96 369 6zm601-710l-18 4c0 0 106-93 166-197 0 0 3 125-148 193zm-205 114l18-13c0 0-232-1-328-66 0 0 124 132 310 79z"/><path d="m15650 13058l612 214c0 0-2 11-41 6 0 0-389-111-565-211l-7-8zm-1781-26l1638-592 1691 526-868 314c0 0-264-114-689-246h-1c24-15 38-36 38-59 0-47-63-86-140-86-77 0-140 38-140 86 0 47 63 86 140 86 18 0 35-2 51-6-1 0-2 0-3 1 0 0 398 206 650 240 0 0-10 9-19 25l-658 238-1691-526zm1759 9c-10 5-22 10-34 13l2-1c12-2 23-8 32-12zm-35 13c-1 0-2 0-3 1 1 0 2 0 3-1z"/><path d="m16218 13320c-14 26-24 73 12 138l5 130c0 0-7 177-31 282 0 0-65 215 75 341l145 139c0 0 233 194-16 421 0 0-15 18 18 8 0 0 134-86 113-270 0 0 26-11-3 155 0 0-20 80-121 132 0 0-18 23 16 14 0 0 158-90 142-266 0 0-16-87-42-121-26-34 80 49 60 189 0 0-3 108-134 193 0 0-18 37 57-20 0 0 121-84 98-253 0 0 82 113-80 253 0 0-80 58 0 39l34 7c0 0 15 8 38-10 23-18-33 58 31-1 0 0 124-96 148-263 0 0 23-153-157-296-179-142-194-156-210-269 0 0 34-241 11-325 0 0-8-38-51-80l-5-110c0 0 91-129-42-197l-112 41zm34 362l8-15c0 0 3 65-15 111l7-96zm34 7l8-14c0 0 8 93-20 177 0 0-11-115 11-163zm106 37l7-21c0 0 23 76-8 183l2-162zm-66-56l-1-19c0 0 29 77 16 182 0 0-13 132-15 176 0 0-23-31-2-196 0 0 9-53 1-143zm-80 198l13 200c0 0-44-99-13-200zm41 34l16-42c0 0-24 196 77 301 0 0-122-55-93-259zm-70 151l7-30c0 0 2 114 197 287 0 0-152-65-204-258zm135-132l11-21c0 0-10 149 16 206 0 0-67-27-28-184zm46 24c0 0-33 142 145 279 179 136 205 221 210 244 5 23 5 23 5 23s33 62-34 191c0 0 67-225-55-324l-165-146c0 0-155-111-106-266zm10 194l2-14c0 0 63 97 73 87 0 0-34 16-75-73zm-116-30l-7-30c0 0 181 245 243 293 0 0-139-71-236-263zm209 207l-72-87c0 0 240 201 223 331 0 0-38-111-130-221l-21-23zm55-6l-15-23c0 0 197 130 166 345 0 0-5 75-114 175 0 0 134-156 78-313 0 0-19-82-116-184zm-291-962l-5 6c-16 17 11 76 17 37 1-9-11-43-12-43zm43 39c2 15 12 53-7 55-30 3-15-57-3-63 9-5 10 4 10 8zm32 24c1-11 11-18 22-21 12 13-6 62-17 58 0-1-16-8-4-31 1-2-1-3-1-6zm-95-15c-1-8-8-24-11-32-15 20-9 59 6 56 0 0 6-15 5-24z"/><path d="m14625 13291c0 0-78 138-52 293l349 90c0 0 86-251 347-169 0 0 310 106 317 330 0 0 7 23-46 71l50 47c0 0 380-214 612-293-1-63 8-128-3-190 0 0-34-36-24-111l-621 219-929-287z"/><path d="m16379 13282l98-30c0 0 62 127 78 293l-149 39-7-101c0 0 77-112-21-201z"/></g><g fill="#201e1e"><text x="10500" y="14850" font-family="&apos;Bolero script&apos;" stroke-linejoin="round" stroke-linecap="round" stroke-width="50" font-size="935.56" transform="matrix(.9778-.22389.18723.6427 2081.99 8663.03)">Texto 1</text><g stroke-width="7.62"><path d="m16518 9812l-1574 5c0 0-167-37-167-210l-276 9c0 0-122-9-118-123l-339-9-14-183 3410-18 5 238h-303c0 0-50 114-167 101l-285 9c0 0-5 165-172 183z"/><path d="m17107 9297l-1393-2769c0 0 326-274 0-494 0 0-439-208-450 318 0 0-464 61-1054-382 0 0-682-432-1587-294 21 122 44 239 67 349 13 63 27 125 42 187 1-21 1-44-1-70 0 0 772-147 1381 241 0 0 1143 637 1429 202l-1058 2698 136 1 936-2360-12 2365 175 1 9-2393 1185 2400 195 1z"/><path d="m14711 11112h-989c-1 82-2 163-4 245h992v-245z"/><path d="m15104 10866h-1381c0 82-1 163-2 245h1382v-245z"/><path d="m15457 10620h-1735c1 81 1 163 1 245h1733v-245z"/></g><g font-family="&apos;Arial&apos;" stroke-width="7.62" font-size="423.33"><text x="10500" y="14850" transform="matrix(.69558 0 0 .66379 8548.09 1141.55)">NN 1</text><text x="10500" y="14850" transform="matrix(.69558 0 0 .66379 8546.44 1396.71)">NN 2</text></g></g></g></g><g fill-rule="nonzero"><path d="m15893 1762l176 95c46 25 83 50 111 76 28 26 49 58 64 96 37 97 24 206-42 327-22 40-45 75-69 104-25 29-52 53-80 72-29 19-60 32-94 41-26 6-53 9-79 7-27-2-53-7-80-16-26-9-55-22-86-39l-176-95c-25-13-41-27-50-41-8-14-11-29-7-44 3-16 11-34 22-56l263-490c16-29 33-47 54-53 20-6 45-1 74 14zm-5 135l-243 453 103 55c22 12 40 21 54 27 13 6 28 10 44 12 16 2 32 2 46-1 66-14 124-68 174-161 35-66 52-121 50-164-2-43-16-77-40-102-24-25-57-48-98-70l-89-48zm294 812l338-492c18-26 37-41 57-45 20-5 40-1 58 12 19 13 30 30 33 51 3 21-4 44-22 70l-338 492c-18 26-37 41-58 46-21 5-40 1-59-12-18-12-29-29-32-50-3-21 4-44 22-70zm594 162l-39-37-168 176c-22 23-44 35-64 36-21 1-39-6-56-22-18-17-26-36-25-57 1-21 12-42 34-64l403-421c23-24 45-36 66-36 21 0 43 11 67 34l180 173c25 24 45 45 61 64 16 19 28 39 35 59 10 24 16 49 16 75 0 26-5 51-15 76-10 24-25 47-44 67-39 41-82 62-128 65-46 2-98-14-154-48 10 29 14 63 12 100-2 37-7 75-14 111-8 36-17 68-27 94-10 26-18 42-25 49-7 7-16 12-27 15-11 3-23 2-35-1-12-3-23-10-33-20-12-12-20-25-23-39-3-14-3-28-1-43 2-15 7-36 13-63l26-116c10-42 15-77 17-103 1-26-2-48-10-66-8-18-22-36-41-55zm284-169l-102-98-144 151 99 95c27 26 51 45 74 58 22 13 44 18 64 16 20-2 40-13 58-32 15-15 24-32 27-51 3-19 1-38-7-57-8-18-31-45-69-81zm682 876l-189-290-156 102 174 267c13 20 18 37 15 52-2 15-11 28-25 37-14 9-29 12-44 9-15-4-29-15-42-35l-174-267-181 118 195 300c13 20 18 39 16 55-3 16-12 30-27 40-15 10-31 13-47 8-16-4-31-16-44-37l-227-350c-18-28-25-52-21-72 4-20 21-40 48-58l478-311c18-12 35-19 51-21 15-2 29 1 42 9 13 8 25 21 37 40l221 340c13 21 19 39 16 55-3 16-11 29-26 38-15 10-30 13-46 9-15-4-30-16-43-37zm-377 516l555-219c29-11 53-13 73-6 20 7 34 22 42 42 8 21 8 42-1 60-9 19-28 34-57 46l-555 219c-29 12-54 13-73 6-20-8-34-22-42-43-8-21-8-40 2-59 9-19 28-34 57-46zm773 667l-38-163-535 126c-31 7-55 6-74-5-18-10-30-26-35-48-5-22-2-42 10-60 12-17 33-30 63-37l535-126-38-163c-6-26-5-46 4-61 8-15 22-25 40-29 19-4 36-1 50 9 14 10 24 28 30 52l112 475c6 26 5 46-4 62-9 15-22 25-40 29-19 4-35 1-49-9-14-10-24-28-30-53zm178 636c0 79-16 146-48 202-32 56-77 99-136 128-59 29-128 43-207 43-59 0-112-8-160-24-48-16-89-40-124-72-35-32-62-71-80-117-18-46-28-99-27-159 0-59 10-112 29-159 19-47 46-86 81-117 35-31 77-55 126-71 49-16 102-24 159-24 58 0 111 9 160 25 48 17 90 41 124 73 34 32 60 70 78 116 18 45 27 97 27 155zm-390 217c55 0 104-9 144-26 41-18 71-43 92-76 21-33 31-71 32-114 0-31-6-59-17-85-12-26-28-49-50-67-22-19-50-34-84-45-34-11-73-16-115-17-43 0-82 5-117 16-35 11-64 26-87 46-23 20-40 42-52 68-12 26-17 54-17 84 0 39 10 75 29 108 19 33 50 59 91 79 41 20 91 29 151 30z" fill="#201e1e"/><path d="m15893 1762l176 95c46 25 83 50 111 76 28 26 49 58 64 96 37 97 24 206-42 327-22 40-45 75-69 104-25 29-52 53-80 72-29 19-60 32-94 41-26 6-53 9-79 7-27-2-53-7-80-16-26-9-55-22-86-39l-176-95c-25-13-41-27-50-41-8-14-11-29-7-44 3-16 11-34 22-56l263-490c16-29 33-47 54-53 20-6 45-1 74 14zm-5 135l-243 453 103 55c22 12 40 21 54 27 13 6 28 10 44 12 16 2 32 2 46-1 66-14 124-68 174-161 35-66 52-121 50-164-2-43-16-77-40-102-24-25-57-48-98-70l-89-48zm294 812l338-492c18-26 37-41 57-45 20-5 40-1 58 12 19 13 30 30 33 51 3 21-4 44-22 70l-338 492c-18 26-37 41-58 46-21 5-40 1-59-12-18-12-29-29-32-50-3-21 4-44 22-70zm594 162l-39-37-168 176c-22 23-44 35-64 36-21 1-39-6-56-22-18-17-26-36-25-57 1-21 12-42 34-64l403-421c23-24 45-36 66-36 21 0 43 11 67 34l180 173c25 24 45 45 61 64 16 19 28 39 35 59 10 24 16 49 16 75 0 26-5 51-15 76-10 24-25 47-44 67-39 41-82 62-128 65-46 2-98-14-154-48 10 29 14 63 12 100-2 37-7 75-14 111-8 36-17 68-27 94-10 26-18 42-25 49-7 7-16 12-27 15-11 3-23 2-35-1-12-3-23-10-33-20-12-12-20-25-23-39-3-14-3-28-1-43 2-15 7-36 13-63l26-116c10-42 15-77 17-103 1-26-2-48-10-66-8-18-22-36-41-55zm284-169l-102-98-144 151 99 95c27 26 51 45 74 58 22 13 44 18 64 16 20-2 40-13 58-32 15-15 24-32 27-51 3-19 1-38-7-57-8-18-31-45-69-81zm682 876l-189-290-156 102 174 267c13 20 18 37 15 52-2 15-11 28-25 37-14 9-29 12-44 9-15-4-29-15-42-35l-174-267-181 118 195 300c13 20 18 39 16 55-3 16-12 30-27 40-15 10-31 13-47 8-16-4-31-16-44-37l-227-350c-18-28-25-52-21-72 4-20 21-40 48-58l478-311c18-12 35-19 51-21 15-2 29 1 42 9 13 8 25 21 37 40l221 340c13 21 19 39 16 55-3 16-11 29-26 38-15 10-30 13-46 9-15-4-30-16-43-37zm-377 516l555-219c29-11 53-13 73-6 20 7 34 22 42 42 8 21 8 42-1 60-9 19-28 34-57 46l-555 219c-29 12-54 13-73 6-20-8-34-22-42-43-8-21-8-40 2-59 9-19 28-34 57-46zm773 667l-38-163-535 126c-31 7-55 6-74-5-18-10-30-26-35-48-5-22-2-42 10-60 12-17 33-30 63-37l535-126-38-163c-6-26-5-46 4-61 8-15 22-25 40-29 19-4 36-1 50 9 14 10 24 28 30 52l112 475c6 26 5 46-4 62-9 15-22 25-40 29-19 4-35 1-49-9-14-10-24-28-30-53zm178 636c0 79-16 146-48 202-32 56-77 99-136 128-59 29-128 43-207 43-59 0-112-8-160-24-48-16-89-40-124-72-35-32-62-71-80-117-18-46-28-99-27-159 0-59 10-112 29-159 19-47 46-86 81-117 35-31 77-55 126-71 49-16 102-24 159-24 58 0 111 9 160 25 48 17 90 41 124 73 34 32 60 70 78 116 18 45 27 97 27 155zm-390 217c55 0 104-9 144-26 41-18 71-43 92-76 21-33 31-71 32-114 0-31-6-59-17-85-12-26-28-49-50-67-22-19-50-34-84-45-34-11-73-16-115-17-43 0-82 5-117 16-35 11-64 26-87 46-23 20-40 42-52 68-12 26-17 54-17 84 0 39 10 75 29 108 19 33 50 59 91 79 41 20 91 29 151 30z" fill="none" stroke="#201e1e" stroke-linejoin="round" stroke-linecap="round" stroke-width="50"/></g></svg>