<svg xmlns="http://www.w3.org/2000/svg" width="744.09" height="1052.36" viewBox="0 0 21000 29700" shape-rendering="geometricPrecision" image-rendering="optimizeQuality" fill-rule="evenodd" clip-rule="evenodd"><defs><clipPath id="0"><path d="m6930 2981c-1953-54-5081 1567-5088 5429-2 1032 394 4466 487 5829 113 1634 196 3960 230 5616 15 1432 342 2263 968 2598 834 294 1699 381 2611 166 943-244 1412-1006 1425-2545-35-1988-273-5430 96-7237 479-2340 1083-2646 1316-5465 140-1696 89-4331-2047-4390z"/></clipPath><clipPath id="1"><path d="m14080 2910c1953-54 5081 1567 5088 5429 2 1032-394 4466-487 5829-113 1634-196 3960-230 5616-15 1432-342 2263-968 2598-834 294-1699 381-2611 166-943-244-1412-1006-1425-2545 35-1988 273-5430-96-7237-479-2340-1083-2646-1316-5465-140-1696-89-4331 2047-4390z"/></clipPath></defs><text x="10081" y="24465" fill="#201e1e" font-family="&apos;Arial Black&apos;" stroke="#201e1e" font-weight="900" stroke-width="7.62" font-size="705.56">32</text><g fill="none" stroke-width="80"><g stroke="#322f30"><circle cx="10533" cy="1326" r="460"/><path d="m10533 515v1621"/><path d="m9723 1326h1621"/></g><g stroke="#373435"><circle cx="10533" cy="25836" r="460"/><path d="m10533 25026v1621"/><path d="m9723 25836h1621"/></g></g><rect x="9843" y="22722" width="1347" height="637" rx="318" fill="#fff" stroke="#fff" stroke-width="20"/><g clip-path="url(#0)"><g><g stroke="#201e1e"><g fill="none" stroke-width="100"><path d="m6225 4632c-192 43-325 186-331 384-4 126 54 240 152 322 53 44 110 64 179 62 73-2 213-13 218-112 5-106-170-150-247-153-103-4-177 71-236 161-47 73-85 149-118 229-27 66-47 107-42 177 23 93 63 176 114 246 118 160 218 191 382 163"/><path d="m4722 5570c-192 43-325 186-331 384-4 126 54 240 152 322 53 44 110 64 179 62 73-2 213-13 218-112 5-106-170-150-247-153-103-4-177 71-236 161-47 73-85 149-118 229-27 66-47 107-42 177 23 93 63 176 114 246 118 160 218 191 382 163"/><path d="m5445 7512c-192 43-325 186-331 384-4 126 54 240 152 322 53 44 110 64 179 62 73-2 213-13 218-112 5-106-170-150-247-153-103-4-177 71-236 161-47 73-85 149-118 229-27 66-47 107-42 177 23 93 63 176 114 246 118 160 218 191 382 163"/><path d="m3228 8321c-192 43-325 186-331 384-4 126 54 240 152 322 53 44 110 64 179 62 73-2 213-13 218-112 5-106-170-150-247-153-103-4-177 71-236 161-47 73-85 149-118 229-27 66-47 107-42 177 23 93 63 176 114 246 118 160 218 191 382 163"/></g><g fill="#201e1e" stroke-width="7.62"><path d="m6947 6619c84 0 152 69 152 153 0 85-68 153-152 153-84 0-152-69-152-153 0-85 68-153 152-153z"/><path d="m3533 6202c84 0 152 69 152 153 0 85-68 153-152 153-84 0-152-69-152-153 0-85 68-153 152-153z"/><path d="m4315 8486c84 0 152 69 152 153 0 85-68 153-152 153-84 0-152-69-152-153 0-85 68-153 152-153z"/><path d="m6446 8770c84 0 152 69 152 153 0 85-68 153-152 153-84 0-152-69-152-153 0-85 68-153 152-153z"/><path d="m3835 9571c84 0 152 69 152 153 0 85-68 153-152 153-84 0-152-69-152-153 0-85 68-153 152-153z"/></g></g><g fill="#201e1e"><path d="m4346 10374c84 0 152 69 152 153 0 85-68 153-152 153-84 0-152-69-152-153 0-85 68-153 152-153"/><path d="m5366 4367c84 0 152 69 152 153 0 85-68 153-152 153-84 0-152-69-152-153 0-85 68-153 152-153z" stroke="#201e1e" stroke-width="7.62"/></g><g fill="#fff"><path d="m7067 10605l-10-10z"/><path d="m6107 10625c65-35 186-2 31-130-44-36-167-85-189-127l-79-12c-77-13 95 130 97 132 48 49 91 93 141 137z"/><path d="m5688 10676c115-77 102-121 290-121-11-42-182-209-228-209h-198l-12 5 147 324z"/><path d="m5117 10556c-114 67-127 137-168 248l244-54 7 16 125-330c-100 8-147 78-208 119z"/><path d="m5691 10804l-109-29v-50c61 5 76 50 109 50 27 0 27-5 50-10l22 48-72-9m0 0c20 14 46 30 79 30h40c35 0 96-90 198-90 28 0 57 23 69 40 16-10 158-42 158-80 0-23-7-30-30-30h-30c-14 0-65 41-99 50-18-34-65-109-109-109h-79c-91 0-153 129-198 129h-10c-19 0-52-35-109-40v60c0 22 8 22 20 40h99z"/></g><g stroke="#201e1e"><g fill="#201e1e"><g fill-rule="nonzero" stroke-width="50"><path d="m2209 10925l85-8 7 79-67 6c-36 3-63 2-80-6-23-10-41-26-54-50l27-20c8 14 18 25 31 31 13 6 31 8 55 7l-4-38zm-12-126l85-8 7 79-67 6c-36 3-63 2-80-6-23-10-41-26-54-50l27-20c8 14 18 25 31 31 13 6 31 8 55 7l-4-38zm487-150l-596 55-7-81 439-358-468 43-7-76 596-55 7 81-439 358 468-43 7 76zm-271-553c-80 6-141-12-182-55-35-35-54-80-58-133-4-60 12-110 48-151 36-41 89-63 157-68 56-4 100 1 133 16 33 14 60 37 79 68 20 31 31 65 34 103 4 61-12 111-48 152-36 40-91 63-164 68zm-5-75c55-4 96-19 122-45 26-26 37-58 35-95-3-37-19-66-48-89-29-22-72-31-129-27-53 4-93 19-119 45-26 26-37 58-35 94 3 37 18 67 48 89 29 22 71 32 126 28zm59-394l-17-72c29-6 50-20 64-39 14-20 20-47 17-80-3-34-11-59-26-74-15-15-32-22-50-21-17 1-29 10-37 25-6 11-12 37-19 77-9 55-18 93-26 115-8 22-21 38-37 51-17 12-35 19-57 21-19 2-37-2-55-9-17-8-32-19-44-33-9-11-18-26-25-45-7-19-12-40-14-63-3-34 0-64 8-91 8-27 20-47 35-60 16-13 38-24 65-31l16 71c-22 5-39 16-51 32-11 17-16 39-14 68 3 34 10 57 22 71 12 14 26 20 41 19 9-1 18-4 25-11 7-7 13-16 17-30 2-8 7-30 14-66 10-53 18-90 25-112 7-21 19-39 35-52 16-13 36-21 61-23 24-2 48 3 70 16 23 13 41 32 55 58 14 26 22 56 25 90 4 56-4 100-25 132-21 31-54 53-99 65zm-32-420l-17-72c29-6 50-19 65-39 14-20 20-47 18-80-2-34-11-59-26-74-15-15-31-23-50-21-17 1-29 9-38 25-6 11-12 36-20 77-10 55-19 93-27 115-9 22-21 38-38 50-17 12-36 19-57 20-19 1-37-2-54-10-17-8-31-19-43-33-9-11-17-26-24-45-7-19-12-40-13-63-2-34 1-64 9-91 8-27 20-46 36-60 16-13 38-23 66-30l15 71c-22 5-39 15-51 32-12 17-16 39-14 68 2 34 9 57 22 71 12 14 26 20 41 19 9-1 18-4 25-11 7-7 13-16 18-30 2-8 7-30 14-66 10-53 19-90 27-111 7-21 19-38 35-51 16-13 36-20 62-22 24-2 48 4 70 17 23 13 41 32 54 59 14 26 22 57 24 91 4 56-5 100-26 132-21 31-55 52-100 64zm-114-423c-80 2-140-18-180-62-33-36-51-82-52-136-2-60 16-109 54-149 38-39 91-60 160-62 56-2 100 5 132 21 32 16 58 40 77 71 19 32 28 66 30 104 2 61-16 111-54 150-38 39-93 59-166 61zm-2-76c55-2 97-15 123-40 27-25 40-56 39-94-1-37-16-67-44-90-28-24-71-34-128-33-53 2-94 15-120 40-27 25-40 56-39 93 1 37 16 67 44 91 28 24 70 34 125 33zm89-640l-6-74c29-2 52-11 70-29 17-17 27-43 29-77 3-34-2-60-15-77-12-17-28-27-46-28-17-1-30 5-41 19-7 10-18 34-31 73-18 53-32 89-44 109-12 20-27 35-45 44-18 9-38 13-59 12-19-2-37-7-52-18-16-10-28-23-38-39-7-12-13-28-18-48-4-20-6-42-4-64 3-34 10-64 22-88 12-25 27-43 44-54 18-11 41-18 69-20l4 73c-23 1-41 9-55 24-14 15-22 36-24 65-3 34 1 58 11 74 10 15 22 24 37 25 9 1 18-1 26-7 8-5 16-14 22-27 3-7 11-28 24-63 18-51 32-86 43-106 10-20 25-35 42-46 18-11 39-15 64-13 24 2 47 11 67 27 20 16 35 38 45 66 10 28 13 59 10 93-4 56-20 99-45 126-26 28-62 44-108 48zm84-756l24-73c41 20 71 48 89 85 18 36 23 79 13 129-12 63-40 108-85 138-45 29-102 38-171 25-72-13-124-42-156-87-33-44-44-96-33-155 11-57 39-100 84-129 45-29 103-37 174-24 4 1 11 2 19 4l-59 319c47 6 86-1 115-20 29-19 47-47 54-82 5-27 2-51-8-72-10-21-30-41-59-57zm-160 216l44-239c-36-4-65 1-86 12-32 18-52 45-58 82-6 33 0 63 18 90 18 27 45 45 82 54zm331-357l-422-103 16-65 60 15c-38-42-50-93-36-151 6-26 16-48 31-67 14-19 30-32 47-39 17-7 37-10 58-9 14 1 37 5 70 13l259 63-17 72-256-62c-29-7-52-10-67-8-16 2-30 9-42 21-12 12-20 28-25 47-7 30-4 59 10 86 14 27 48 47 102 60l230 56-17 72zm116-624l64 13c-3 21-8 39-13 54-9 25-20 43-34 54-13 11-27 17-42 17-15 1-43-7-85-22l-234-88-19 51-53-20 19-51-101-38-16-85 142 53 26-69 53 20-26 69 238 89c20 7 33 11 39 11 6 0 12-3 18-7 5-4 10-12 14-22 3-8 6-18 8-31zm-396-226l-78-29 26-69 78 29-26 69zm483 181l-407-152 26-69 407 152-26 69zm67-174l-388-195 30-59 55 28c-13-22-20-46-22-72-2-26 4-52 17-78 14-29 32-50 53-62 21-12 44-17 69-14-30-54-32-105-8-155 19-39 45-63 76-74 32-10 70-4 114 18l266 134-33 66-244-123c-26-13-46-20-60-22-14-2-27 2-40 9-13 8-23 19-30 34-14 28-16 55-7 82 9 27 34 51 74 71l225 113-33 66-252-126c-29-15-54-20-74-17-20 3-36 17-48 42-9 19-13 38-11 59 2 21 10 39 26 56 15 16 41 33 76 51l201 101-33 66zm386-942l53-56c29 36 44 74 45 115 1 41-13 82-43 123-37 52-82 81-135 88-53 7-108-10-166-51-59-43-94-91-105-145-11-54 1-106 36-154 34-47 77-74 131-81 53-7 109 11 167 53 4 3 9 7 16 12l-189 264c40 26 78 36 112 31 35-5 63-22 84-52 16-22 23-45 23-69 0-24-10-50-29-77zm-236 127l141-197c-32-19-59-27-83-26-37 2-66 19-88 49-20 28-27 57-22 89 5 32 22 60 51 84zm450-182l-323-291 44-49 46 41c-14-55-1-106 39-151 17-20 37-34 59-44 22-10 42-14 60-12 19 2 37 8 56 19 12 7 31 22 56 45l198 179-49 55-196-177c-22-20-41-33-56-39-15-6-30-6-47-1-16 5-31 15-44 29-21 23-31 50-32 80 0 30 20 64 61 101l176 159-49 55zm384-503l53 40c-12 18-23 32-35 44-19 19-37 30-53 34-16 4-31 3-45-2-14-6-36-25-67-56l-174-180-39 38-40-41 39-38-75-77 22-83 106 109 53-52 40 41-53 52 177 183c15 15 25 24 31 26 6 3 12 3 19 2 7-2 14-6 22-14 6-6 13-14 21-25zm-61-152c-51-62-72-122-62-181 8-49 33-90 74-125 46-38 96-54 150-49 54 6 103 35 147 88 36 43 57 82 65 118 8 35 5 70-9 105-13 34-35 63-64 88-47 39-97 56-151 50-54-6-104-37-151-94zm58-48c35 43 71 67 108 73 36 6 69-3 97-27 28-23 43-54 44-91 1-37-17-77-53-121-34-41-70-65-106-70-36-6-69 3-96 26-28 24-43 54-44 91-1 37 16 77 51 119zm671-236l-208-316-54 36-31-48 54-36-25-39c-16-24-26-44-29-59-5-20-3-40 6-59 8-20 26-38 53-56 17-12 38-22 61-32l26 60c-14 6-27 13-38 21-19 12-29 25-32 38-2 13 3 30 18 52l22 33 70-47 31 48-70 46 208 316-61 41zm53-295c-38-71-47-134-26-189 17-46 50-82 97-108 52-29 104-35 156-18 52 16 94 55 127 116 27 49 40 92 41 128 1 36-9 70-29 101-20 31-46 55-79 74-53 29-106 35-157 19-51-16-95-57-129-121zm66-36c26 49 57 80 91 93 35 13 68 10 100-7 32-17 52-44 60-80 8-36-1-79-28-129-26-47-56-77-90-90-35-13-68-10-100 7-32 18-53 44-61 80-8 36 1 78 27 127zm274-476l-33-77 68-29 33 77-68 29zm201 477l-170-402 68-29 170 402-68 29zm643-295c-20 30-41 53-62 69-22 16-46 28-74 36-46 13-84 12-115-3-31-15-51-40-61-75-6-20-6-41-2-60 5-20 13-37 25-51 12-15 27-27 44-38 13-8 33-17 60-29 55-23 95-43 119-61-2-10-4-16-5-19-8-29-21-47-37-55-23-11-52-11-87-1-33 10-56 23-69 39-13 16-18 40-18 72l-72 10c-2-32 1-59 11-81 9-22 26-42 51-60 24-18 55-32 91-42 36-10 66-14 91-12 25 2 44 8 58 18 14 10 26 24 36 42 6 11 13 33 22 64l27 94c19 66 32 107 40 124 8 17 19 32 32 46l-74 21c-11-13-21-29-29-49zm-50-156c-23 18-59 38-108 60-28 13-47 23-58 32-11 9-18 19-21 31-4 12-4 24 0 37 5 19 17 32 35 41 18 8 41 9 68 1 27-8 50-21 68-39 18-18 29-39 33-62 3-18 0-43-9-74l-7-26zm239 164l-137-586 72-17 137 586-72 17zm453-228l77-2c-5 46-21 83-49 113-28 29-67 48-117 56-63 10-115-1-158-34-43-33-70-84-81-154-11-72-2-131 29-177 31-46 76-74 135-83 57-9 107 3 149 36 42 33 69 85 81 156 1 4 2 11 3 19l-319 51c10 47 29 81 57 102 28 21 60 29 95 23 27-4 48-15 65-32 17-17 28-42 34-75zm-256-79l239-38c-9-36-22-61-40-77-27-24-60-34-96-28-33 5-59 21-79 47-19 26-27 58-23 96zm25-237l35-122 96-15-70 128-60 10zm423 421l31-435 66 5-4 61c15-20 34-36 58-47 23-11 49-16 78-14 32 2 58 11 77 26 19 15 33 34 39 59 38-48 84-70 140-66 43 3 75 17 97 43 22 26 31 63 27 113l-21 298-73-5 19-274c2-29 1-51-3-64-4-13-12-24-24-33-12-9-26-14-43-15-31-2-57 6-78 25-22 19-34 51-37 96l-18 252-73-5 20-282c2-33-2-58-13-75-11-17-30-27-57-29-21-1-40 3-58 12-18 10-32 25-41 45-9 20-15 50-18 90l-16 225-73-5zm1121 362l34-43c-48 17-93 9-135-25-27-21-46-49-57-82-11-33-12-68-4-105 9-37 27-73 54-108 27-34 57-61 90-80 33-19 67-27 101-24 34 3 65 16 93 38 21 16 35 35 45 56 9 21 13 43 12 65l133-170 58 46-370 473-54-43zm-49-315c-34 44-51 84-49 120 1 36 15 64 40 84 25 20 55 27 89 20 34-7 67-31 101-74 37-47 54-88 53-124-1-36-15-65-41-85-26-20-55-27-89-19-34 7-68 34-104 79zm427 662l27 72c-45 10-85 7-122-11-37-17-67-48-90-93-30-56-36-110-19-161 17-51 57-93 119-126 64-34 123-44 176-30 53 14 94 48 122 101 27 51 32 103 14 154-18 51-58 93-121 127-4 2-10 5-17 9l-151-287c-41 25-67 54-78 87-11 33-8 66 9 98 13 24 30 41 51 51 22 10 49 13 81 8zm-8-269l113 215c31-20 51-41 60-63 14-34 13-68-5-101-16-30-39-50-70-60-31-10-63-7-98 9zm-77 1022l207-49c-18-8-35-20-50-38-15-18-25-38-30-60-12-50-2-98 30-144 31-46 82-77 152-93 42-10 82-12 119-5 37 7 67 22 91 46 24 24 40 53 48 86 12 53 0 99-37 139l57-13 15 65-585 138-17-72zm323-310c-54 13-92 34-114 63-22 29-29 60-22 92 7 31 26 54 57 70 31 16 73 18 126 5 56-13 96-35 119-65 23-30 31-61 23-92-7-31-27-55-58-70-31-15-75-17-131-4zm-90 741l64-8c-53-27-83-70-90-128-3-25-1-50 6-73 7-23 17-41 30-54 13-13 30-22 51-29 14-5 36-9 67-13l266-34 9 73-238 30c-38 5-64 10-76 14-19 7-32 19-41 35-9 16-12 35-9 57 3 22 11 42 25 60 14 18 31 29 51 35 20 5 49 6 85 1l230-29 9 73-431 55-8-66zm85 464c-24-27-42-52-52-77-11-25-16-52-17-81-2-48 8-85 31-112 22-27 51-41 87-42 21-1 41 3 59 12 18 9 32 21 43 37 11 15 20 33 26 52 4 14 9 36 13 65 9 59 19 103 30 131 10 0 16 0 19 0 30-1 51-9 62-23 16-20 23-48 22-85-1-35-8-60-21-76-13-16-35-28-66-34l7-73c31 5 56 15 76 30 20 14 35 36 46 64 11 28 18 61 19 99 1 37-2 68-10 91-8 24-18 41-31 53-13 11-29 20-49 25-12 3-35 5-67 6l-97 4c-68 3-111 6-129 9-18 4-35 10-52 20l-3-77c15-8 33-13 54-16zm163-12c-12-26-23-66-32-120-5-30-11-52-17-64-6-12-14-22-25-28-11-6-22-10-35-9-19 1-35 9-48 24-12 15-18 38-17 66 1 28 8 54 21 75 13 22 31 37 52 47 17 7 41 10 74 9l27-1zm-212 195l599-5 1 74-599 5-1-74zm-168 461l213 6c-16-12-29-28-39-49-10-21-15-43-14-66 1-52 23-95 65-132 42-36 99-53 170-51 43 1 82 10 116 26 34 16 60 39 76 68 17 29 25 61 24 96-1 54-25 96-71 125l58 2-2 66-600-17 2-74zm391-217c-56-2-98 9-126 32-29 23-43 51-44 83-1 32 12 59 37 82 26 23 66 36 120 37 58 2 101-9 131-32 30-23 45-51 46-83 1-32-12-60-38-83-26-23-68-35-126-37zm-248 696l64 3c-47-36-69-84-66-142 1-26 8-49 18-71 11-22 24-38 40-48 15-10 34-17 56-20 15-2 38-2 69-1l268 14-4 74-240-13c-38-2-64-2-78 0-20 4-35 13-47 27-12 14-18 33-20 55-1 22 3 43 14 63 10 20 25 34 44 44 19 9 47 15 84 17l232 12-4 74-433-23 4-66zm99 491l-17 75c-43-16-75-41-96-76-21-35-30-77-25-127 6-63 30-112 72-145 42-34 98-47 168-40 72 7 127 31 164 72 37 41 52 92 47 152-5 58-29 103-72 136-43 33-100 46-171 40-4 0-11-1-19-2l30-323c-48-2-85 8-113 30-27 22-43 51-46 87-2 27 2 51 15 71 12 20 34 38 64 52zm140-230l-22 242c37 0 65-7 84-20 30-21 47-50 51-87 3-34-6-63-26-88-20-25-49-40-87-46zm-298 385l431 48-7 66-66-7c29 20 47 38 55 54 8 15 11 32 9 49-3 25-13 49-32 73l-65-34c12-17 19-34 21-52 2-16-1-31-10-45-8-14-20-24-37-32-25-11-53-18-84-22l-225-25 8-73zm47 819l-22 69c-47-16-82-43-104-80-22-37-29-79-21-126 10-59 38-102 82-131 44-29 102-37 173-25 46 8 85 23 117 44 32 21 54 49 65 84 12 34 14 70 8 107-8 46-26 83-55 108-29 26-65 39-110 39l2-72c30-2 53-10 71-24 17-15 28-34 33-58 6-37-1-69-23-96-22-28-61-46-118-56-57-10-101-6-131 11-30 18-48 44-54 80-5 29-1 54 14 76 14 22 39 39 74 51z"/><path d="m8118 8990c-17-32-28-61-33-87-4-27-4-54 2-83 9-47 28-81 56-101 28-21 59-27 95-20 21 4 39 13 54 26 15 13 26 28 34 46 7 18 12 37 13 57 1 15 0 37-2 67-5 60-5 105-1 134 10 2 16 4 19 4 29 6 51 3 66-8 20-15 34-41 41-78 7-34 6-61-3-79-9-19-27-35-56-49l24-69c29 13 51 28 67 47 16 19 26 43 30 73 4 30 3 63-5 100-7 37-18 65-31 87-13 21-27 36-42 44-15 8-33 12-54 13-13 0-35-3-67-10l-96-19c-67-14-109-21-128-21-18-1-37 2-55 7l15-76c17-4 35-5 56-3zm161 27c-5-29-6-70-3-124 2-31 1-53-2-66-3-13-9-25-17-33-9-9-20-15-32-17-19-4-36 0-52 12-16 12-26 32-32 60-6 28-5 54 3 78 8 24 21 44 40 58 15 11 38 20 69 26l26 6zm-254 140l422 101-15 65-65-15c26 24 42 44 48 60 6 16 7 33 3 50-6 24-19 47-40 69l-60-41c14-15 23-31 27-49 4-16 2-31-4-45-6-15-17-27-33-36-23-14-50-25-81-32l-221-53 17-72zm-67 273l417 120-18 64-59-17c37 44 47 95 30 153-7 25-18 47-33 66-15 19-31 31-49 37-18 6-37 9-58 7-14-1-37-7-70-16l-256-74 20-71 253 73c29 8 51 12 67 10 16-1 30-8 43-19 12-12 21-27 27-46 9-30 7-59-6-86-13-27-46-49-99-64l-228-66 20-71zm-167 736c-14-33-22-63-23-90-2-27 2-54 11-82 14-46 36-77 66-95 30-18 62-21 96-10 20 6 37 17 51 31 14 15 23 31 29 49 5 18 8 38 7 58-1 15-4 37-9 66-11 59-16 104-16 133 9 3 16 5 18 6 28 9 51 9 67-1 21-13 38-37 49-73 10-33 12-60 6-79-7-20-23-38-50-55l31-66c27 16 48 33 61 54 14 20 21 45 22 76 1 30-4 63-15 99-11 36-24 63-40 83-15 20-31 33-47 39-16 6-34 9-55 7-13-2-35-7-66-17l-93-30c-65-21-107-32-125-35-18-3-37-2-55 1l23-74c17-2 36-1 56 3zm157 44c-2-29 1-70 10-124 5-30 7-52 5-66-1-14-6-25-14-35-8-10-18-17-30-20-18-6-36-4-53 7-17 10-30 29-38 57-9 27-10 53-5 78 5 25 16 46 33 62 13 13 36 24 66 34l25 9zm-308 225l464 4-28 74-276-8c-30-1-60-3-92-6 19 14 41 33 67 56l212 187-27 71-345-312 26-66zm-143 570c-13-33-21-64-22-91-1-27 3-54 12-82 15-45 38-77 68-94 30-17 62-20 97-8 20 7 37 18 51 32 14 15 23 31 28 50 5 18 7 38 6 58-1 15-5 37-10 66-12 59-18 103-18 133 9 3 15 6 18 6 28 10 50 10 67 0 22-13 38-37 50-72 11-33 13-59 7-79-6-20-23-38-50-55l32-65c27 16 47 34 61 55 13 20 20 46 21 76 1 30-5 63-17 99-12 35-25 63-41 82-16 19-31 32-47 38-16 6-34 8-55 6-13-2-34-8-65-18l-93-31c-65-22-106-34-124-37-18-3-37-3-55 0l24-73c17-2 36-1 56 4zm157 46c-2-29 2-70 12-124 6-30 8-52 7-66-1-14-6-25-13-35-8-10-18-17-30-21-18-6-36-4-53 6-17 10-30 29-39 56-9 27-11 53-6 78 5 25 15 46 32 62 13 13 35 24 66 35l25 9zm-265 108l573 174-21 71-573-174 21-71zm449 312l82 25-23 76-65-20c-35-11-59-22-71-35-18-18-28-40-32-67l33-8c1 16 7 29 18 40 10 11 26 20 47 27l11-37zm-37 121l82 25-23 76-65-20c-35-11-59-22-71-35-18-18-28-40-32-67l33-8c1 16 7 29 18 40 10 11 26 20 47 27l11-37z"/></g><path d="m5477 10283c84 0 152 69 152 153 0 85-68 153-152 153-84 0-152-69-152-153 0-85 68-153 152-153z" stroke-width="7.62"/></g><path d="m6940 10225c-192 43-325 186-331 384-4 126 54 240 152 322 53 44 110 64 179 62 73-2 213-13 218-112 5-106-170-150-247-153-103-4-177 71-236 161-47 73-85 149-118 229-27 66-47 107-42 177 23 93 63 176 114 246 118 160 218 191 382 163" fill="none" stroke-width="100"/><g stroke-linejoin="round" stroke-linecap="round"><g stroke-width="100"><g fill="none"><path d="m5742 12093c-74 78-138 152-246 183-46 13-95 15-167 12-157-21-236-48-358-144 18-68 46-128 84-181 28-41 62-77 100-107 48-39 98-68 151-87 83-30 168-41 254-31 72 11 144 28 211 72-16 97-25 188-29 284z"/><path d="m5907 11852c3-112 19-188-39-286-55-91-115-109-214-87 96 99 86 174 80 310 4 16 9 31 13 47 32-7 65-15 97-22 14 10 28 21 42 31 11 8 36 36 22 8z"/><path d="m5274 11694c13-92 14-182 111-229 62-30 126-7 188 12-96 78-104 104-116 231-27 18-55 36-82 54-17-22-33-43-50-65-17-1-34-3-52-4z"/><path d="m5734 11789c8-107 17-197-58-285-23-27-36-42-52-43-31-2-70 29-90 50-65 65-64 110-76 198 82 2 78 6 109 84 88-53 89-68 168-4z"/></g><g fill="#fefefe"><circle cx="5479" cy="11793" r="87"/><circle cx="5660" cy="11835" r="87"/></g><path d="m5306 12157c150-32 225-134 330-238-30-9-57-40-70-73-30 15-53 31-87 34-39-4-69-21-83-61-33 22-68 41-107 46-40-2-64-22-81-50-82 58-155 127-202 226-12 34-24 67-37 101 133 28 181 47 335 14z" fill="none"/><g fill="#fefefe"><path d="m5844 11814c64 0 99 87 68 142-13 22-40 33-68 33-48 0-87-39-87-87 0-48 22-87 87-87z"/><path d="m5290 11691c41-4 87 39 87 87 0 48-39 87-87 87-48 0-94-43-87-87 8-44 45-83 87-87z"/></g><g fill="none"><path d="m6209 13410c6-206-62-285-235-409-88-3-177-6-265-10-66 18-132 36-197 54 37 32 75 65 112 97 206 66 402 155 586 267z"/><path d="m6329 13452c-41-5-80 2-96 51-35 107 34 157 140 158 39 0 60-26 72-46 33-56-23-152-115-163z"/><path d="m4263 14052c202-40 407-65 599-91 262-36 526-32 790-26"/><path d="m4263 14252c220-57 435-101 654-125 232-25 504-17 737-17"/><path d="m4291 14457c217-46 439-98 653-124 246-30 488-26 736-28"/><path d="m5578 13744c130 2 204 18 260 60 56 42 94 110 152 216 22 58 44 117 66 175 52 146 101 292 24 444-104 203-276 217-471 242-365 22-744 18-1109 40-101 1-183-2-259-23-70-20-128-50-172-92-57-54-92-127-101-220 3-100 5-200 8-300 22-75 44-151 66-226 31-57 69-98 112-130 86-63 188-99 294-122 125-27 253-42 381-50 250-17 498-16 749-13z"/><path d="m3473 14641c6-122-7-239 73-340 71-91 162-84 220 18 56 99 47 198 49 308 2 85 18 135-53 193-26 21-56 30-111 29-57-1-97-16-131-45-61-52-50-88-46-162z"/><path d="m3814 14540c-5-110-14-181-66-245-59-74-153-68-217 17-40 52-47 127-55 223 113 5 224 7 338 5z"/><path d="m3291 15089c1-162-9-349 8-529 22-224 86-437 266-576 175-135 372-203 601-273 296-90 603-143 940-151 259-2 499 25 726 91 129 38 255 88 377 154 122 65 206 145 281 240 188 239 255 491 316 779 4 11 8 23 12 34m-1107 357c-581 67-1182 34-1767 36-63 0-117-4-169-13-75-12-150-31-225-52-75-21-131-37-185-62-76-35-97-65-130-63-46 2-74 27-93 59-39 66-44 110-27 154 14 36 35 63 59 85 48 43 99 68 153 85 90 28 188 30 289 43 201 13 400 31 601 26 600-28 1373 37 1972-114 209-53 403-155 592-210 84-28 251-54 273-160 5-22 2-49-8-85-11-40-29-82-70-96-39-13-121 2-223 32-360 107-666 291-1041 335z"/><path d="m6292 15066l571-220"/><path d="m4214 15513c-200-9-400-17-601-26 1 131-41 412 74 508 111 92 383 119 481-7 87-112 48-343 46-474z"/><path d="m6284 15859c54 21 117 18 236-13 71-19 159-37 213-86 28-26 48-60 51-107 3-44-12-105-34-169-31-93-75-190-95-254-178 75-363 130-547 187 6 183-18 366 174 442z"/><path d="m6211 13801c36-46 59-106 87-150-279-140-478-203-788-258-154-27-301-39-447-37-573 8-1106 277-1506 512 1 40 2 72 2 112 188-110 385-195 586-263 304-102 602-130 910-149 232-15 450 6 663 58 166 40 328 100 492 176z"/><path d="m3626 13753c-1 45-14 95-70 110 0 3 1 6 1 9 283-162 669-361 1044-459 143-37 287-60 459-59 397 1 769 88 1128 245 15 7 30 13 46 20-1-4-3-7-4-11-189-179-324-238-583-302-174-43-352-68-539-73-570-16-1080 304-1481 519z"/><path d="m3571 13687c135-116 328-234 518-333"/><path d="m3476 13843c-14-13-24-29-27-51-4-28 15-55 41-75 26-19 60-32 84-28 65 10 93 110 40 151-19 15-46 24-74 24-25 0-49-7-63-21z"/><path d="m6018 12419c-111-66-216-164-276-327 7-95 14-191 22-286 70 41 133 91 179 164 52 74 81 150 89 227 12 80 2 152-13 222z"/><path d="m3728 13576l4-312 291-152 369-86 151 3"/><path d="m3728 13567c1-104 2-199 4-303 121-63 237-111 353-147 238-74 477-97 760-99 241-1 458 35 674 94 267 73 523 191 757 339-37 16-51 69-65 123-95-72-183-130-276-174-172-81-412-134-600-152-113-11-227-12-342-12-62-57-124-114-186-171-375 118-746 274-1078 504z"/></g><g fill="#fefefe"><path d="m4907 12945c89-44 178-86 267-128 38-18 76-35 114-53 96 121 193 243 289 364-50 25-101 49-151 75-78 40-155 81-235 120-184 89-217 58-363-84-74-71-147-143-221-214-326 14-589 90-875 238 18-101 59-144 123-226 34-44 69-87 103-130 80 10 139 12 219-1 77-13 151-38 204-104 132 36 260 82 386 133 68 27 76 41 140 9z"/><path d="m5174 12817c38-18 76-35 114-53 96 121 193 243 289 364-50 25-100 50-151 75-81-132-163-259-252-386z"/></g><g fill="none"><path d="m5830 16833c-46-91-91-183-137-274-75-152-51-172-179-67-51 42-107 77-160 115-104 75-97 60-37 174 48 91 97 179 152 256 70 99 77 103 192 62 45-16 85-34 117-56 107-71 101-110 51-209z"/><path d="m4828 16617c91-67 183-134 274-201 118-87 125-66 33-181-41-52-83-103-124-155-81-101-64-100-156-8-91 90-181 181-272 271-83 83-84 68-12 160 25 32 50 64 75 96 86 111 69 100 182 18z"/><path d="m6057 15973c17 9 33 18 50 26 85 45 169 90 254 135 95 50 94 36 54 136-13 32-25 63-38 95-39 98-34 77-135 61-111-18-225-28-335-49-52-10-79-28-94-54-40-74-3-160 46-239 46-75 60-112 96-122 22-6 52-2 102 10z"/><path d="m5910 11751c41 2 68 5 92 14 51 18 85 43 105 78 68 114 112 230 174 339 73 128 154 205 250 256 170 90 413 133 569 136-10 74-14 140-15 204-1 189-12 378 12 566 10 80 12 144 1 204-27 139-115 223-223 280-54 29-112 51-171 71-117 40-140 48-215 146-76-103-170-183-278-244 24-52 48-104 71-156 64 31 120 29 162-29 21-59 3-106-56-142-76-10-141-27-179-63 5-208-66-288-235-409-149-9-298-18-447-27-21-51-41-102-62-154 128 5 248-27 358-110 122-83 187-219 212-390 10-128-22-245-93-350-13-17-26-34-40-51 2-56 5-112 7-167z"/><path d="m5116 14689c22-76 4-143-12-218-36 4-72 8-108 12-3 79 2 137 17 214 34-3 68-5 103-8z"/><path d="m3955 12781c126 27 251 2 375-60 17 27 33 54 50 82-58 56-107 75-185 96-78 21-157 16-237 9-1-42-2-85-3-127z"/><path d="m4056 11618c322 0 583 262 583 586 0 324-261 586-583 586-196 0-370-97-476-247-1-1-1-3-2-3-154 14-179-66-68-129 1-1-1-3-2-4-23-63-36-131-36-202 0-324 261-586 583-586z"/></g></g><g fill="none"><path d="m3679 12443c47 49 91 92 137 127 76 57 159 91 275 89 103-1 183-26 250-72 70-47 132-117 183-208" stroke-width="75"/><g stroke-width="100"><path d="m5081 12486c66 87 125 140 228 185 46 20 96 31 160 29 79-2 131-19 179-49 52-33 85-64 111-100 25-35 44-74 67-125"/><path d="m3751 13194c-52 63-105 127-157 190-55-49-110-97-165-146 92-88 199-191 290-278 37 38 58 91 94 129-21 35-42 70-63 105z"/><path d="m3729 13472c-45-29-90-58-135-88 46-56 93-113 139-169-1 86-3 171-4 257z"/><path d="m3512 13312c83-93 165-186 248-279-18-19-21-53-40-72-92 88-199 191-290 278 27 24 55 49 82 73z"/><path d="m3871 12760c-43 38-68 57-87 93-47 88-34 171 31 237 48-60 96-121 144-181-1-42-2-85-3-127-28-7-56-14-84-21z"/><path d="m3531 13142c-45-82-90-137-75-235 5-34 15-69 50-103 39-37 76-56 113-65 36-8 79-6 120-1-6 25-11 56-9 82 2 28 11 54 34 79-15 43-9 83 6 125-16-7-47-28-66-49-58 55-116 111-174 166z"/><path d="m3757 12707c-28 38-25 58-28 105 5 45 4 56 35 88 22-73 49-90 107-141-38-18-76-35-114-53z"/></g></g><g stroke-width="100"><path d="m3611 11877c7 84 20 164 56 226-27-3-54-5-81-8 10 42 17 88 15 144-21-21-44-37-70-49 4 46 15 105 6 149-2 12-7 23-15 32-20 21-53 50-85 67-49-144-66-260-47-362 29-153 82-229 197-320 22-127 38-173 131-232-6 47-15 65 5 107 36-12 60-34 78-56 18-22 68-2 92-16 49-47 93-107 163-130-21 45-25 88-10 128 45-42 119-76 163-80 16 34 16 51 46 72 66 14 132 27 199 41-39 3-75 12-102 33 61 49 106 108 141 173-52-31-105-55-161-76 16 53 23 106 25 160-45-44-95-83-153-113 4 31 0 63-10 95-30-49-71-86-120-113 1 43 3 86 4 128-125-132-134-181-314-176 48 35 79 89 104 150-49-34-103-56-163-63-32 29-64 58-96 88z" fill="#201e1e"/><ellipse cx="5495" cy="12277" rx="541" ry="544" fill="none"/><path d="m5587 14823c-48-84-59-69-155-74-280 33-559 66-839 99-29 26-37 62-35 103 42 102 83 203 125 305 27 66 20 64 91 58 230-17 460-34 691-50 89-7 146 8 165-99 4-23 2-47-5-89-13-84-26-169-38-253z" fill="#fefefe"/><path d="m5546 15081c-2-32-6-64-10-96-17-77 2-155-83-147-231 22-462 44-692 66-109 10-90 9-82 118 14 42 28 84 43 127 49 78 38 88 128 79 202-22 405-33 603-76 76-16 99 3 94-70z" fill="none"/><path d="m5528 12857c19-4 139-50 107-80-14-13-31-20-49-22-76-10-182 59-233 92 75 94 150 188 224 282 103-12 207-26 309-36 64-6 45-57-2-55-61 2-122 4-183 7 74-6 149-13 223-19 89-8 54-81-19-74-80 8-128 9-208 16 83-14 135-20 218-34 73-12 46-78-27-65-51 9-103 18-154 27-29 5-28 3-56 8 78-18 127-30 206-48 81-19 38-93-21-77-116 31-193 55-309 86-9-2-17-4-26-6z" fill="#fefefe"/></g><g fill="#201e1e" stroke-width="75"><path d="m4374 12130c28-7 57 18 66 55 9 37-6 73-33 79-28 7-57-18-66-55-9-37 6-73 33-79z"/><path d="m3988 12197c27-8 58 15 69 52 11 37-3 73-30 81-27 8-58-15-69-52-11-37 3-73 30-81z"/><path d="m5627 12323c23 0 42 21 42 48 0 26-19 48-42 48-23 0-42-21-42-48 0-26 19-48 42-48z"/><path d="m5213 12313c23 0 42 21 42 48 0 26-19 48-42 48-23 0-42-21-42-48 0-26 19-48 42-48z"/></g><g stroke-width="100"><g fill="none"><path d="m5129 15042c-28 97-55 155-97 214-57 80-151 156-130 268 23 124 226 199 264 350 30 120-14 192-60 299"/><path d="m5424 16508c-18-35-36-70-54-105 3-44 5-88 8-133 30-167 92-358-4-514-79-128-195-227-232-380-26-107-18-198-12-334"/><path d="m5827 16130c-62-56-103-124-138-196-56-116-96-241-184-346-222-187-269-273-376-546"/><path d="m4688 16403l-63-102"/><path d="m4804 16339l-101-116"/><path d="m4872 16290l-104-132"/><path d="m5589 16750l134-131"/><path d="m5668 16847l117-103"/><path d="m5736 16921l101-74"/><path d="m6108 16150l25-137"/><path d="m6197 16215l32-151"/><path d="m6284 16259l56-136"/><path d="m5939 16291c36-71 58-142 86-226 12-53 45-88-30-102-57-11-62 5-112 84-33 52-61 103-80 160-6 34-5 64 2 98 8 26 23 45 49 57 59 13 58-18 85-70z"/><path d="m5298 16733c61-23 111-48 160-76 76-44 142-94 208-152-54-109-43-91-140-21-61 44-121 87-182 131-73 52-94 41-46 118z"/><path d="m4977 16229c23 32 47 63 73 94 56 66 55 97 127 37 43-36 22-45-41-123-50-62-100-124-149-186-41-50-46-63-69-43-46 40-39 46-14 99 20 43 44 82 72 122z"/></g><path d="m5006 12897c-55-108-99-195-154-302 25-10 148-98 136-121-27-56-93-29-137-17-1 0-3-1-2-2 28-71 41-119 40-178 0-46 0-85-37-96-27-8-41 41-47 94-6 50-5 94-6 106-1 2-4 2-4-2-8-35-17-67-28-100-9-27-13-43-22-54-34-44-55-29-58 19-3 51 16 102 27 155 0 0-1 1-1 1-17-20-33-41-49-61-21-25-29-49-44-56-22-10-36-8-44 0-22 22-5 62 20 101 22 34 53 69 66 86 1 1-1 2-1 2-25-9-50-17-75-24-34-10-45-21-57 2-40 79 204 154 245 172 8 109 15 218 23 327 13 5 26 9 39 14 66 3 116-38 171-66z" fill="#fefefe"/><g fill="none"><path d="m6234 14610c-3-122-24-238 48-345 64-96 156-95 221 2 63 94 61 194 71 303 8 85 28 133-39 196-25 23-54 34-109 37-56 3-98-9-134-35-65-48-56-84-58-158z"/><path d="m6567 14485c-13-110-27-179-83-240-65-70-157-57-215 32-36 55-38 131-39 226 113-3 224-9 337-19z"/></g></g></g><path d="m2938 12205c-192 43-325 186-331 384-4 126 54 240 152 322 53 44 110 64 179 62 73-2 213-13 218-112 5-106-170-150-247-153-103-4-177 71-236 161-47 73-85 149-118 229-27 66-47 107-42 177 23 93 63 176 114 246 118 160 218 191 382 163" fill="none" stroke-width="100"/><g fill="#201e1e"><g stroke-width="25"><g font-family="&apos;Monotype Corsiva&apos;" font-style="italic" font-size="1602.27"><text x="10500" y="14850" transform="matrix(.75124 0 0 .85077-4796.57 7001.57)">Texto 01</text><text x="10500" y="14850" transform="matrix(.85142 0 0 .85077-6063.07 8585.35)">Texto 02</text></g><path d="m4986 20287l16 21c-80 76-148 114-205 114-23 0-41-8-53-23-12-16-18-41-18-75 0-70 21-139 64-208 48-78 104-117 171-117 23 0 41 6 53 17 12 12 18 27 18 48 0 21-7 42-22 62-15 21-41 42-79 64-19 11-59 30-121 58-3 18-4 34-4 50 0 23 4 39 11 48 7 9 18 14 32 14 13 0 28-4 44-11 22-10 53-31 94-62zm-171-70c52-23 92-49 118-75 18-19 27-38 27-56 0-14-4-25-11-33-7-8-17-12-29-12-12 0-24 5-35 14-15 12-28 30-39 54-15 36-26 72-32 109z" fill-rule="nonzero"/></g><text x="10500" y="14850" font-family="&apos;Arial&apos;" stroke-width="50" font-size="641.82" transform="matrix(.86244 0 0 .85077-5480.42 9640.58)">00.00.0000</text></g></g><g fill="#201e1e" font-family="&apos;Arial Black&apos;" font-weight="900" font-size="529.17"><text x="10500" y="14850" transform="matrix(.84655 0 0 .85077-4449.68 5197.37)">NN 1</text><text x="10500" y="14850" transform="matrix(.84655 0 0 .85077-4444.65 5613.35)">NN 2</text></g></g></g><g clip-path="url(#1)"><g><g fill="none" stroke="#201e1e" stroke-width="100"><path d="m14356 8754c-192 43-325 186-331 384-4 126 54 240 152 322 53 44 110 64 179 62 73-2 213-13 218-112 5-106-170-150-247-153-103-4-177 71-236 161-47 73-85 149-118 229-27 66-47 107-42 177 23 93 63 176 114 246 118 160 218 191 382 163"/><path d="m15847 7912c-192 43-325 186-331 384-4 126 54 240 152 322 53 44 110 64 179 62 73-2 213-13 218-112 5-106-170-150-247-153-103-4-177 71-236 161-47 73-85 149-118 229-27 66-47 107-42 177 23 93 63 176 114 246 118 160 218 191 382 163"/><path d="m17256 5304c-192 43-325 186-331 384-4 126 54 240 152 322 53 44 110 64 179 62 73-2 213-13 218-112 5-106-170-150-247-153-103-4-177 71-236 161-47 73-85 149-118 229-27 66-47 107-42 177 23 93 63 176 114 246 118 160 218 191 382 163"/><path d="m14266 4431c-192 43-325 186-331 384-4 126 54 240 152 322 53 44 110 64 179 62 73-2 213-13 218-112 5-106-170-150-247-153-103-4-177 71-236 161-47 73-85 149-118 229-27 66-47 107-42 177 23 93 63 176 114 246 118 160 218 191 382 163"/><path d="m17715 7860c-192 43-325 186-331 384-4 126 54 240 152 322 53 44 110 64 179 62 73-2 213-13 218-112 5-106-170-150-247-153-103-4-177 71-236 161-47 73-85 149-118 229-27 66-47 107-42 177 23 93 63 176 114 246 118 160 218 191 382 163"/></g><g fill="#201e1e"><path d="m16614 9502c84 0 152 69 152 153 0 85-68 153-152 153-84 0-152-69-152-153 0-85 68-153 152-153"/><g stroke="#201e1e"><g stroke-width="7.62"><path d="m15080 4304c84 0 152 69 152 153 0 85-68 153-152 153-84 0-152-69-152-153 0-85 68-153 152-153z"/><path d="m13501 6547c84 0 152 69 152 153 0 85-68 153-152 153-84 0-152-69-152-153 0-85 68-153 152-153z"/><path d="m17775 6135c84 0 152 69 152 153 0 85-68 153-152 153-84 0-152-69-152-153 0-85 68-153 152-153z"/><path d="m18140 7304c84 0 152 69 152 153 0 85-68 153-152 153-84 0-152-69-152-153 0-85 68-153 152-153z"/><path d="m14005 8708c84 0 152 69 152 153 0 85-68 153-152 153-84 0-152-69-152-153 0-85 68-153 152-153z"/><path d="m16136 8419c84 0 152 69 152 153 0 85-68 153-152 153-84 0-152-69-152-153 0-85 68-153 152-153z"/></g><g fill-rule="nonzero" stroke-linejoin="round" stroke-linecap="round" stroke-width="50"><path d="m12836 10396l80-28 26 75-64 23c-34 12-60 17-79 14-24-4-46-15-65-35l21-26c11 12 23 20 37 22 14 2 32 0 55-7l-13-36zm-42-120l80-28 26 75-64 23c-34 12-60 17-79 14-24-4-46-15-65-35l21-26c11 12 23 20 37 22 14 2 32 0 55-7l-13-36zm438-264l-571 182-25-78 353-444-448 143-23-73 571-182 25 78-353 444 448-143 23 73zm-378-490c-78 20-141 14-189-20-40-28-67-68-81-120-15-58-9-110 20-157 28-47 75-79 142-96 54-14 98-17 133-9 35 8 65 26 91 52 25 27 43 58 52 95 15 59 9 112-19 158-28 46-78 79-148 97zm-19-73c54-14 91-36 111-67 21-31 26-64 17-100-9-36-30-62-63-78-33-17-77-18-132-3-52 14-88 36-108 67-21 31-26 64-17 99 9 36 30 62 63 79 33 17 76 18 129 4zm-13-407l-26-69c28-10 47-25 59-47 11-21 14-49 7-82-7-33-18-57-35-70-17-13-34-18-52-15-16 3-28 13-34 29-4 11-7 38-10 79-3 56-7 95-12 117-6 22-16 41-31 55-15 14-33 23-54 27-19 4-37 3-55-2-18-6-34-15-47-27-10-10-21-24-30-42-10-18-17-38-21-61-7-34-8-64-3-91 4-27 14-49 28-64 14-15 34-28 61-38l24 69c-21 8-37 21-46 38-9 18-11 41-5 69 7 33 17 56 31 68 14 12 28 16 43 14 9-2 17-7 24-14 6-7 11-18 14-32 1-8 3-30 6-68 3-54 7-92 12-114 5-22 14-41 28-55 14-15 34-25 58-30 24-5 48-2 72 7 24 10 44 27 61 51 17 24 29 53 35 87 11 55 8 100-9 134-17 34-47 59-91 76zm-81-415l-24-70c28-9 48-24 60-45 12-21 15-48 9-82-6-34-17-57-33-71-16-14-34-19-52-16-16 3-28 12-35 29-5 11-8 38-12 79-4 56-9 94-15 117-6 22-17 40-32 54-15 14-33 22-54 26-19 3-37 2-55-4-18-6-33-15-47-29-10-10-20-24-29-42-9-19-16-39-20-61-6-34-6-64-1-91 5-27 15-48 29-63 15-15 35-27 62-37l22 69c-22 7-37 20-47 37-10 18-12 41-7 69 6 33 15 56 29 68 13 12 28 17 42 15 9-2 17-6 24-13 7-7 11-18 14-31 1-8 4-30 7-67 5-54 10-92 15-114 5-22 15-40 30-55 15-15 34-24 59-28 24-4 48-1 72 9 24 10 44 28 60 53 16 25 27 54 33 88 10 56 6 100-12 134-18 33-49 58-92 74zm-155-408c-79 11-141-3-186-42-37-33-59-76-67-129-8-59 4-111 37-154 33-43 84-70 152-79 55-8 100-6 134 6 34 12 62 33 84 62 22 29 36 63 41 100 9 60-4 112-37 155-33 43-86 69-158 80zm-10-75c55-8 94-26 118-54 24-28 33-60 28-97-5-36-23-65-54-85-31-20-74-26-131-18-53 8-91 25-115 54-24 28-33 60-28 96 5 37 23 65 54 86 31 20 73 26 128 19zm13-638l-18-72c29-7 50-20 64-40 14-20 19-47 16-81-3-34-12-58-27-74-15-15-32-22-50-20-17 2-29 10-37 26-6 11-11 37-18 78-9 55-17 93-25 115-8 22-20 39-37 51-16 12-35 20-56 22-19 2-37-1-55-8-17-7-32-18-44-32-9-11-18-26-26-45-8-19-12-40-15-63-3-34-1-64 6-91 7-27 19-47 34-61 16-14 37-24 65-31l17 71c-22 5-39 16-50 33-11 17-15 39-13 68 3 34 11 57 23 71 12 13 26 19 41 18 9-1 18-5 25-11 7-7 13-17 17-30 2-8 6-30 13-67 9-53 17-90 24-112 7-21 18-39 34-52 16-13 36-21 61-24 24-2 48 3 71 15 23 12 41 31 56 57 14 26 23 56 26 90 5 56-3 101-23 132-21 32-53 54-98 66zm-66-749l6-77c45 9 80 30 107 61 26 31 41 72 44 122 4 63-13 115-50 154-37 39-90 61-161 65-73 4-130-11-172-47-42-35-65-83-69-143-3-58 14-107 51-146 37-39 92-61 163-65 4 0 11 0 20-1l19 324c47-6 83-21 107-47 24-26 35-57 33-93-2-27-10-50-25-68-15-18-39-32-71-41zm-104 248l-14-242c-36 5-63 16-80 33-27 25-39 56-37 94 2 34 15 62 39 83 24 22 55 33 93 33zm233-426l-434-2v-66h62c-47-32-70-79-70-139 0-26 5-50 14-72 9-22 22-38 37-49 15-11 33-18 54-23 14-3 38-4 72-4l266 1v74l-264-1c-30 0-52 3-67 8-15 6-27 16-36 30-9 15-13 32-14 51 0 31 10 58 29 81 20 23 57 34 113 35l237 1v74zm-58-630l65-8c4 21 5 40 5 56-1 27-6 47-15 62-9 14-20 24-34 30-14 6-43 8-87 6l-250-8-2 55-57-2 2-55-107-3-42-75 151 5 2-74 57 2-2 74 254 8c21 1 35 0 41-3 6-2 11-6 15-12 4-6 6-14 6-25 0-8 0-19-2-32zm-447-90l-84-3 3-74 84 3-3 74zm515 19l-434-16 3-74 434 16-3 74zm0-187l-431-55 8-66 61 8c-19-16-34-36-44-61-10-24-13-51-9-79 4-32 14-57 30-76 16-19 36-31 61-36-46-41-65-89-58-144 5-43 21-75 48-95 27-20 64-27 114-21l295 38-9 73-271-35c-29-4-50-4-64-1-13 3-25 10-34 22-9 12-15 26-17 43-4 31 3 57 21 80 18 23 49 37 93 43l250 32-9 73-279-36c-32-4-57-1-75 9-18 10-28 28-32 56-3 21 0 40 9 59 9 19 23 34 43 44 20 10 49 18 88 23l223 29-9 73zm30-1014l27-72c40 22 69 51 85 89 16 37 19 80 7 130-14 62-45 107-91 134-46 27-104 33-172 17-71-17-122-48-152-94-31-46-39-98-25-157 13-57 43-98 90-125 47-27 105-32 175-16 4 1 11 3 19 5l-74 316c47 8 86 3 116-15 30-18 49-45 58-80 6-26 4-50-5-72-10-22-28-42-56-60zm-170 209l55-236c-36-5-65-2-86 8-33 16-54 43-62 79-8 33-3 63 14 91 17 28 43 47 80 58zm355-340l-395-180 27-60 56 26c-30-49-32-101-8-156 11-24 25-44 43-60 18-16 36-26 54-30 18-4 38-3 59 2 14 3 36 12 67 26l243 110-30 67-240-109c-27-12-49-19-65-20-16-1-31 4-45 13-14 10-25 23-33 41-13 29-15 57-6 86 9 29 38 55 89 78l216 98-30 67zm244-587l59 28c-8 20-16 36-25 50-15 22-30 37-45 45-15 7-30 10-45 7-15-3-40-17-77-41l-207-140-30 45-47-32 30-45-89-60 4-86 126 85 41-61 47 32-41 61 211 143c17 12 29 18 36 20 6 1 13 0 19-2 6-3 12-9 18-18 5-7 10-16 15-28zm-60-180c-50-63-69-124-58-182 9-48 35-89 77-123 47-37 97-52 151-45 54 7 102 38 145 92 35 44 55 84 62 119 7 36 3 70-11 104-14 34-36 63-66 86-48 38-98 53-152 46-54-7-103-40-148-98zm59-47c34 44 70 69 106 76 36 7 69-2 98-24 29-23 44-53 46-90 2-37-15-78-50-123-33-42-68-67-104-73-36-7-69 1-97 24-29 23-45 53-47 90-2 37 14 77 48 121zm724-123l-58-375-64 10-9-56 64-10-7-46c-4-29-5-51-2-66 4-20 14-37 30-52 16-14 39-24 71-29 21-3 43-4 69-3l-1 66c-16 0-30 1-43 3-22 3-37 11-45 21-8 11-9 29-5 55l6 39 83-13 9 56-83 13 58 375-73 11zm189-247c1-81 25-140 70-178 38-32 84-47 137-46 59 1 108 21 145 61 37 40 55 94 54 163-1 56-10 100-27 132-17 32-42 56-74 74-32 17-67 25-105 25-61-1-109-21-146-61-37-40-55-96-53-170zm75 1c-1 56 10 98 34 126 24 28 54 43 91 43 37 1 67-13 92-40 25-27 38-70 39-127 1-54-11-95-35-123-24-28-54-43-90-43-37-1-68 13-93 40-25 27-38 69-38 124zm459-278l7-84 73 7-7 84-73-7zm-45 516l38-434 73 7-38 434-73-7zm702 88c-33 15-62 23-89 26-27 2-54-1-82-9-46-13-78-34-96-64-18-29-23-62-13-97 6-20 16-38 30-52 14-14 30-24 48-30 18-6 37-9 58-9 15 0 37 3 66 7 59 10 104 14 133 12 3-10 5-16 6-18 8-29 7-51-3-67-14-21-38-37-74-47-33-10-60-11-79-4-19 7-37 25-53 52l-66-30c15-28 32-49 52-63 20-14 45-22 75-24 30-2 63 2 99 12 36 10 64 23 84 38 20 15 33 30 40 46 7 16 10 34 8 55-1 13-6 35-15 66l-27 94c-19 66-29 108-31 126-2 18-1 37 3 56l-74-21c-3-17-2-36 1-56zm39-159c-29 3-70 1-123-7-30-4-52-5-66-4-14 2-25 7-34 15-9 8-16 18-19 31-5 19-3 37 8 53 11 17 30 29 57 37 27 8 53 9 78 3 25-6 45-18 61-35 12-14 23-36 31-67l8-26zm118 265l188-571 70 23-188 571-70-23zm505 48l66 39c-28 36-62 59-101 69-39 10-82 5-128-15-58-25-97-63-116-113-19-51-15-108 13-174 28-67 68-112 118-135 50-23 103-22 158 1 53 23 89 59 107 110 18 51 14 109-14 176-2 4-4 10-8 18l-297-127c-16 45-18 84-6 117 12 33 35 56 68 71 25 11 49 13 72 7 23-6 46-21 68-45zm-176-204l222 95c11-35 13-64 7-87-10-35-33-60-67-75-31-13-62-14-91-2-30 12-53 35-70 69zm147-188l94-85 89 38-127 71-56-24zm135 580l228-371 56 35-32 52c23-11 47-16 73-15 26 1 51 9 76 24 27 17 46 37 57 59 10 22 13 46 8 71 56-25 107-23 154 6 37 23 59 51 66 83 7 33-2 70-28 113l-156 254-63-39 143-234c15-25 24-44 27-58 3-14 1-27-6-40-7-13-17-25-31-33-26-16-53-21-81-14-28 7-53 29-77 67l-132 215-63-39 148-241c17-28 25-52 23-72-2-20-14-38-37-52-18-11-37-16-57-16-21 0-40 7-58 21-18 14-37 38-58 71l-118 192-63-39zm991 693l35-43c-48 15-93 6-134-28-27-22-45-50-55-83-10-33-10-68-1-105 10-37 28-72 57-106 28-33 58-59 92-77 34-18 67-25 102-21 34 4 65 17 92 40 20 17 35 36 43 58 9 22 12 43 11 65l138-167 57 47-382 463-53-44zm-41-317c-35 43-53 82-52 119 0 36 13 65 38 85 25 21 54 28 88 22 34-6 68-30 103-71 38-46 57-87 57-123 0-36-13-65-39-87-25-21-55-28-89-22-34 7-69 32-106 76zm487 562l43 64c-41 21-81 27-121 20-40-8-76-30-110-68-42-47-61-98-57-152 4-54 33-104 85-152 54-49 109-73 164-72 55 1 102 24 142 69 39 43 56 92 51 146-5 54-34 105-87 153-3 3-8 7-15 13l-216-242c-34 34-52 69-54 104-3 35 8 66 32 93 18 20 39 33 62 37 23 5 50 1 81-12zm-73-259l161 181c25-27 39-52 43-76 6-36-4-69-29-96-23-25-50-39-82-41-32-2-63 9-93 32zm242 983l179-116c-20-1-39-7-59-19-20-12-36-27-49-47-28-43-34-92-20-146 14-54 52-100 112-139 37-24 74-38 111-44 37-6 71-2 101 13 31 15 55 36 74 65 29 45 33 93 12 144l49-32 36 56-505 326-40-62zm201-400c-47 30-76 63-87 98-11 35-7 66 10 94 17 27 43 42 77 47 35 5 75-8 120-37 49-31 79-65 90-101 12-36 9-67-9-95-17-27-43-43-78-47-35-4-76 9-125 41zm181 717l56-33c-59-4-104-32-133-82-13-22-21-45-23-69-3-24 0-45 7-62 7-17 19-33 36-47 11-10 30-23 57-39l232-136 37 64-207 122c-33 19-55 34-65 43-14 14-23 30-24 49-2 19 2 37 14 56 11 19 26 34 46 45 19 11 40 15 60 12 21-3 47-14 79-32l200-117 37 64-375 220-33-57zm238 405c-32-16-58-33-77-52-19-19-34-42-46-69-19-44-24-82-13-115 11-33 33-57 66-72 19-9 39-12 59-10 20 2 38 8 54 18 16 10 31 23 44 39 9 12 22 30 37 56 30 52 56 89 76 110 9-4 15-6 18-7 27-12 44-27 49-45 8-24 4-53-11-87-14-32-30-53-48-63-18-10-42-13-74-7l-20-70c31-7 58-7 81-1 23 6 46 20 66 42 21 22 39 50 54 84 15 34 23 64 25 89 1 25-2 45-9 60-8 15-20 29-37 42-11 7-31 18-60 31l-89 40c-62 28-101 47-116 57-16 10-29 23-41 38l-31-71c11-13 26-25 44-35zm147-72c-21-20-45-53-74-99-16-26-29-44-39-53-10-9-21-15-33-17-12-2-24-1-36 5-18 8-30 21-35 40-6 19-3 42 9 68 11 26 27 47 48 62 20 15 42 23 66 24 18 1 42-6 72-19l25-11zm-137 265l572-177 22 71-572 177-22-71zm-36 488l207-50c-18-7-35-20-50-37-15-18-25-38-31-60-12-50-3-98 29-144 31-46 81-77 151-94 42-10 82-12 119-6 37 7 68 22 92 46 24 24 40 52 48 86 13 52 1 99-36 140l57-14 16 65-583 142-17-72zm320-312c-54 13-92 35-114 64-22 29-29 60-21 92 7 31 27 54 58 70 31 16 73 17 126 4 56-14 95-36 118-66 23-30 30-61 23-92-8-31-27-54-59-70-32-15-75-16-131-3zm-68 739l63-12c-55-24-87-65-98-122-5-25-4-50 1-73 6-24 15-42 27-56 13-13 29-24 49-32 14-6 36-11 67-17l264-49 13 73-236 44c-38 7-63 13-75 19-18 8-31 21-39 37-8 17-10 36-6 58 4 22 13 41 28 58 15 17 32 28 53 32 21 4 49 3 85-4l228-43 13 73-427 80-12-65zm185 467l-4 77c-45-8-81-28-108-58-27-30-42-71-46-121-5-63 10-115 46-155 36-40 89-63 159-69 73-6 130 8 173 43 43 34 67 81 72 141 5 58-11 107-48 147-36 40-90 63-161 68-4 0-11 1-19 1l-26-324c-47 7-82 23-106 49-23 26-33 57-31 94 2 27 11 49 27 67 16 18 40 31 72 40zm98-251l19 242c36-6 63-18 80-34 26-26 38-57 35-94-3-34-16-61-41-82-24-21-55-31-93-31zm-234 431l434-9 1 66-66 1c31 16 52 32 62 46 10 14 15 30 16 47 1 25-7 50-22 77l-68-25c10-18 14-36 14-54 0-16-6-30-15-43-10-13-23-21-41-26-26-8-55-11-86-10l-227 5-2-74zm138 806l-13 72c-49-10-87-32-113-66-27-34-39-75-37-122 3-59 24-106 64-141 40-35 97-50 169-47 47 2 87 12 122 29 34 17 60 42 75 75 16 33 23 68 22 105-2 47-16 85-41 114-25 29-60 47-104 53l-8-72c29-6 52-17 67-33 15-17 24-37 25-62 2-37-10-68-36-93-26-24-67-38-124-41-58-3-101 7-128 28-27 21-42 50-43 86-1 29 6 54 23 74 17 20 43 34 80 41z"/><path d="m18497 9390c-21-29-35-57-43-83-8-26-10-53-8-83 4-48 18-84 43-107 25-24 56-34 92-32 21 2 40 8 57 19 17 11 30 25 39 41 9 17 16 35 20 55 3 15 5 37 6 66 2 60 7 105 15 134 10 1 16 2 19 2 30 2 51-3 65-16 18-18 28-45 31-82 3-35-1-61-12-78-11-18-31-31-61-42l16-71c30 9 54 22 72 38 18 17 30 39 39 69 8 29 11 63 8 100-3 37-10 67-20 90-11 22-23 39-37 49-14 10-31 16-52 19-13 1-35 1-68-2l-97-8c-68-5-111-7-129-5-18 2-36 6-54 14l6-77c16-6 34-10 55-10zm163 7c-9-28-15-69-18-123-2-31-5-53-10-66-4-13-12-23-21-31-10-8-21-12-34-13-19-2-36 5-50 19-14 14-22 35-25 64-2 28 2 54 13 77 11 23 26 41 47 53 16 9 40 15 72 18l27 3zm-232 170l433 31-5 66-66-5c30 19 49 36 57 51 9 15 13 31 11 48-2 25-11 50-29 74l-66-31c11-17 18-35 19-53 1-16-3-31-11-44-9-13-21-23-38-30-25-10-54-16-85-18l-226-16 5-74zm-20 280l432 39-6 66-61-5c44 36 64 84 58 144-2 26-9 50-20 71-11 21-25 36-41 46-16 10-35 16-56 18-14 1-38 1-72-2l-265-24 7-74 263 24c30 3 52 2 68-3 15-4 28-14 38-27 10-14 16-30 18-50 3-31-5-59-23-84-18-25-54-39-110-44l-236-21 7-74zm-14 754c-21-30-34-57-42-84-7-26-9-54-7-83 4-48 19-83 45-107 25-24 56-34 92-30 21 2 40 9 57 20 17 11 29 25 38 42 9 17 16 35 19 55 2 15 4 37 5 67 1 60 6 105 13 134 10 1 16 2 19 2 30 3 51-2 65-15 18-17 29-45 32-82 3-35-1-61-11-79-11-18-31-32-61-43l17-71c30 9 54 22 71 39 17 17 30 40 38 69 8 29 10 63 6 100-3 37-11 67-21 89-11 22-23 38-37 48-14 10-32 16-52 18-13 1-35 0-68-3l-97-9c-68-6-111-9-129-7-18 1-36 6-54 13l7-77c16-6 35-9 55-9zm163 9c-8-28-14-69-16-123-2-31-4-53-9-66-4-13-11-23-21-31-10-8-21-12-34-14-19-2-36 4-51 18-14 14-23 35-25 63-3 28 1 54 11 77 10 23 25 41 46 53 16 9 40 16 72 19l27 3zm-245 286l448-122-8 79-268 68c-29 7-59 14-90 19 22 9 49 20 79 35l254 122-7 76-416-206 7-71zm-2 588c-21-30-34-58-41-84-7-26-9-54-6-83 5-48 20-83 45-107 26-23 56-33 92-30 21 2 40 9 56 20 17 11 29 26 38 42 9 17 15 35 19 55 2 15 4 37 5 67 1 60 5 105 12 134 10 1 16 2 19 2 30 3 51-2 65-15 18-17 29-44 33-82 3-35 0-61-11-79-10-18-31-32-61-43l17-71c30 10 54 23 71 40 17 17 30 40 37 69 7 29 9 63 6 100-4 37-11 67-22 89-11 22-23 38-38 48-14 10-32 16-52 18-13 1-35 0-68-3l-97-9c-68-7-111-9-129-8-18 1-36 6-54 13l7-77c16-6 35-9 55-9zm163 10c-8-28-14-69-16-123-1-31-4-53-8-66-4-13-11-23-21-31-10-8-21-12-34-14-19-2-36 4-51 18-14 14-23 35-26 63-3 28 1 54 11 77 10 23 25 41 46 54 16 10 40 16 72 19l27 3zm-234 165l596 58-7 74-596-58 7-74zm500 218l85 8-8 79-67-7c-36-4-62-10-77-20-21-14-35-34-44-60l31-15c5 15 13 27 25 36 12 9 29 14 52 17l4-38zm-12 126l85 8-8 79-67-7c-36-4-62-10-77-20-21-14-35-34-44-60l31-15c5 15 13 27 25 36 12 9 29 14 52 17l4-38z"/></g></g></g><g stroke="#201e1e"><path d="m13947 10713c-192 43-325 186-331 384-4 126 54 240 152 322 53 44 110 64 179 62 73-2 213-13 218-112 5-106-170-150-247-153-103-4-177 71-236 161-47 73-85 149-118 229-27 66-47 107-42 177 23 93 63 176 114 246 118 160 218 191 382 163" fill="none" stroke-width="100"/><path d="m15410 10399c84 0 152 69 152 153 0 85-68 153-152 153-84 0-152-69-152-153 0-85 68-153 152-153z" fill="#201e1e" stroke-width="7.62"/><path d="m17681 10102c-192 43-325 186-331 384-4 126 54 240 152 322 53 44 110 64 179 62 73-2 213-13 218-112 5-106-170-150-247-153-103-4-177 71-236 161-47 73-85 149-118 229-27 66-47 107-42 177 23 93 63 176 114 246 118 160 218 191 382 163" fill="none" stroke-width="100"/><g stroke-linejoin="round" stroke-linecap="round"><g stroke-width="100"><g fill="none"><path d="m17137 13339c6-206-62-285-235-409-88-3-177-6-265-10-66 18-132 36-197 54 37 32 75 65 112 97 206 66 402 155 586 267z"/><path d="m17256 13382c-41-5-80 2-96 51-35 107 34 157 140 158 39 0 60-26 72-46 33-56-23-152-115-163z"/><path d="m15191 13981c202-40 407-65 599-91 262-36 526-32 790-26"/><path d="m15190 14181c220-57 435-101 654-125 232-25 504-17 737-17"/><path d="m15218 14387c217-46 439-98 653-124 246-30 488-26 736-28"/><path d="m16505 13674c130 2 204 18 260 60 56 42 94 110 152 216 22 58 44 117 66 175 52 146 101 292 24 444-104 203-276 217-471 242-365 22-744 18-1109 40-101 1-183-2-259-23-70-20-128-50-172-92-57-54-92-127-101-220 3-100 5-200 8-300 22-75 44-151 66-226 31-57 69-98 112-130 86-63 188-99 294-122 125-27 253-42 381-50 250-17 498-16 749-13z"/><path d="m14400 14570c6-122-7-239 73-340 71-91 162-84 220 18 56 99 47 198 49 308 2 85 18 135-53 193-26 21-56 30-111 29-57-1-97-16-131-45-61-52-50-88-46-162z"/><path d="m14741 14469c-5-110-14-181-66-245-59-74-153-68-217 17-40 52-47 127-55 223 113 5 224 7 338 5z"/><path d="m14218 15018c1-162-9-349 8-529 22-224 86-437 266-576 175-135 372-203 601-273 296-90 603-143 940-151 259-2 499 25 726 91 129 38 255 88 377 154 122 65 206 145 281 240 188 239 255 491 316 779 4 11 8 23 12 34m-1107 357c-581 67-1182 34-1767 36-63 0-117-4-169-13-75-12-150-31-225-52-75-21-131-37-185-62-76-35-97-65-130-63-46 2-74 27-93 59-39 66-44 110-27 154 14 36 35 63 59 85 48 43 99 68 153 85 90 28 188 30 289 43 201 13 400 31 601 26 600-28 1373 37 1972-114 209-53 403-155 592-210 84-28 251-54 273-160 5-22 2-49-8-85-11-40-29-82-70-96-39-13-121 2-223 32-360 107-666 291-1041 335z"/><path d="m16669 12022c-74 78-138 152-246 183-46 13-95 15-167 12-157-21-236-48-358-144 18-68 46-128 84-181 28-41 62-77 100-107 48-39 98-68 151-87 83-30 168-41 254-31 72 11 144 28 211 72-16 97-25 188-29 284z"/><path d="m17219 14996l571-220"/><path d="m15141 15442c-200-9-400-17-601-26 1 131-41 412 74 508 111 92 383 119 481-7 87-112 48-343 46-474z"/><path d="m17211 15788c54 21 117 18 236-13 71-19 159-37 213-86 28-26 48-60 51-107 3-44-12-105-34-169-31-93-75-190-95-254-178 75-363 130-547 187 6 183-18 366 174 442z"/><path d="m17138 13730c36-46 59-106 87-150-279-140-478-203-788-258-154-27-301-39-447-37-573 8-1106 277-1506 512 1 40 2 72 2 112 188-110 385-195 586-263 304-102 602-130 910-149 232-15 450 6 663 58 166 40 328 100 492 176z"/><path d="m14553 13682c-1 45-14 95-70 110 0 3 1 6 1 9 283-162 669-361 1044-459 143-37 287-60 459-59 397 1 769 88 1128 245 15 7 30 13 46 20-1-4-3-7-4-11-189-179-324-238-583-302-174-43-352-68-539-73-570-16-1080 304-1481 519z"/><path d="m14498 13616c135-116 328-234 518-333"/><path d="m14403 13772c-14-13-24-29-27-51-4-28 15-55 41-75 26-19 60-32 84-28 65 10 93 110 40 151-19 15-46 24-74 24-25 0-49-7-63-21z"/><path d="m16945 12349c-111-66-216-164-276-327 7-95 14-191 22-286 70 41 133 91 179 164 52 74 81 150 89 227 12 80 2 152-13 222z"/><path d="m14655 13505l4-312 291-152 369-85 151 2"/><path d="m14655 13497c1-104 2-199 4-303 121-63 237-111 353-147 238-74 477-97 760-99 241-1 458 35 674 94 267 73 523 191 757 339-37 16-51 69-65 123-95-72-183-130-276-174-172-81-412-134-600-152-113-11-227-12-342-12-62-57-124-114-186-171-375 118-746 274-1078 504z"/></g><g fill="#fefefe"><path d="m15834 12875c89-44 178-86 267-128 38-18 76-35 114-53 96 121 193 243 289 364-50 25-101 49-151 75-78 40-155 81-235 120-184 89-217 58-363-84-74-71-147-143-221-214-326 14-589 90-875 238 18-101 59-144 123-226 34-44 69-87 103-130 80 10 139 12 219-1 77-13 151-38 204-104 132 36 260 82 386 133 68 27 76 41 140 9z"/><path d="m16101 12747c38-18 76-35 114-53 96 121 193 243 289 364-50 25-100 50-151 75-81-132-163-259-252-386z"/></g><g fill="none"><path d="m16757 16763c-46-91-91-183-137-274-75-152-51-172-179-67-51 42-107 77-160 115-104 75-97 60-37 174 48 91 97 179 152 256 70 99 77 103 192 62 45-16 85-34 117-56 107-71 101-110 51-209z"/><path d="m15755 16546c91-67 183-134 274-201 118-87 125-66 33-181-41-52-83-103-124-155-81-101-64-100-156-8-91 90-181 181-272 271-83 83-84 68-12 160 25 32 50 64 75 96 86 111 69 100 182 18z"/><path d="m16984 15903c17 9 33 18 50 26 85 45 169 90 254 135 95 50 94 36 54 136-13 32-25 63-38 95-39 98-34 77-135 61-111-18-225-28-335-49-52-10-79-28-94-54-40-74-3-160 46-239 46-75 60-112 96-122 22-6 52-2 102 10z"/><path d="m16837 11681c41 2 68 5 92 14 51 18 85 43 105 78 68 114 112 230 174 339 73 128 154 205 250 256 170 90 413 133 569 136-10 74-14 140-15 204-1 189-12 378 12 566 10 80 12 144 1 204-27 139-115 223-223 280-54 29-112 51-171 71-117 40-140 48-215 146-76-103-170-183-278-244 24-52 48-104 71-156 64 31 120 29 162-29 21-59 3-106-56-142-76-10-141-27-179-63 5-208-66-288-235-409-149-9-298-18-447-27-21-51-41-102-62-154 128 5 248-27 358-110 122-83 187-219 212-390 10-128-22-245-93-350-13-17-27-34-40-51 2-56 5-112 7-167z"/><path d="m16043 14618c22-76 4-143-12-218-36 4-72 8-108 12-3 79 2 137 17 214 34-3 68-5 103-8z"/><path d="m14882 12710c126 27 251 2 375-60 17 27 33 54 50 82-58 56-107 75-185 96-78 21-157 16-237 9-1-42-2-85-3-127z"/><path d="m16834 11782c3-112 19-188-39-286-55-91-115-109-214-87 96 99 86 174 80 310 4 16 9 31 13 47 32-7 65-15 97-22 14 10 28 21 42 31 11 8 36 36 22 8z"/><path d="m16201 11624c13-92 14-182 111-229 62-30 126-7 188 12-96 78-104 104-116 231-27 18-55 36-82 54-17-22-33-43-50-65-17-1-34-3-52-4z"/><path d="m14983 11547c322 0 583 262 583 586 0 324-261 586-583 586-196 0-370-97-476-247-1-1-1-3-2-3-154 14-179-66-68-129 1-1-1-3-2-4-23-63-36-131-36-202 0-324 261-586 583-586z"/></g></g><g fill="none"><path d="m14606 12372c47 49 91 92 137 127 76 57 159 91 275 89 103-1 183-26 250-72 70-47 132-117 183-208" stroke-width="75"/><g stroke-width="100"><path d="m16008 12415c66 87 125 140 228 185 46 20 96 31 160 29 79-2 131-19 179-49 52-33 85-64 111-100 25-35 44-74 67-125"/><path d="m14678 13124c-52 63-105 127-157 190-55-49-110-97-165-146 92-88 199-191 290-278 37 38 58 91 94 129-21 35-42 70-63 105z"/><path d="m14656 13402c-45-29-90-58-135-88 46-56 93-113 139-169-1 86-3 171-4 257z"/><path d="m14439 13241c83-93 165-186 248-279-18-19-21-53-40-72-92 88-199 191-290 278 27 24 55 49 82 73z"/><path d="m14798 12689c-43 38-68 57-87 93-47 88-34 171 31 237 48-60 96-121 144-181-1-42-2-85-3-127-28-7-56-14-84-21z"/><path d="m14458 13072c-45-82-90-137-75-235 5-34 15-69 50-103 39-37 76-56 113-65 36-8 79-6 120-1-6 25-11 56-9 82 2 28 11 54 34 79-15 43-9 83 6 125-16-7-47-28-66-49-58 55-116 111-174 166z"/><path d="m14684 12636c-28 38-25 58-28 105 5 45 4 56 35 88 22-73 49-90 107-141-38-18-76-35-114-53z"/><path d="m16661 11718c8-107 17-197-58-285-23-27-36-42-52-43-31-2-70 29-90 50-65 65-64 110-76 198 82 2 78 6 109 84 88-53 89-68 168-4z"/></g></g><g stroke-width="100"><path d="m14539 11806c7 84 20 164 56 226-27-3-54-5-81-8 10 42 17 88 16 144-21-21-44-37-70-49 4 46 15 105 6 149-2 12-7 23-15 32-20 21-53 50-85 67-49-144-66-260-47-362 29-153 82-229 197-320 22-127 38-173 131-232-6 47-15 65 5 107 36-12 60-34 78-56 18-22 68-2 92-16 49-47 93-107 163-130-21 45-25 88-10 128 45-42 119-76 163-80 16 34 16 51 46 72 66 14 132 27 199 41-39 3-75 12-102 33 61 49 106 108 141 173-52-31-105-55-161-76 16 53 23 106 25 160-45-44-95-83-153-113 4 31 0 63-10 95-30-49-71-86-120-113 1 43 3 86 4 128-125-132-134-181-314-176 48 35 79 89 104 150-49-34-103-56-163-63-32 29-64 58-96 88z" fill="#201e1e"/><ellipse cx="16422" cy="12207" rx="541" ry="544" fill="none"/><g fill="#fefefe"><circle cx="16406" cy="11723" r="87"/><circle cx="16587" cy="11765" r="87"/><path d="m16514 14752c-48-84-59-69-155-74-280 33-559 66-839 99-29 26-37 62-35 103 42 102 83 203 125 305 27 66 20 64 91 58 230-17 460-34 691-50 89-7 146 8 165-99 4-23 2-47-5-89-13-84-26-169-38-253z"/></g><g fill="none"><path d="m16473 15010c-2-32-6-64-10-96-17-77 2-155-83-147-231 22-462 44-692 66-109 10-90 9-82 118 14 42 28 84 43 127 49 78 38 88 128 79 202-22 405-33 603-76 76-16 99 3 94-70z"/><path d="m16233 12086c150-32 225-134 330-238-30-9-57-40-70-73-30 15-53 31-87 34-39-4-69-21-83-61-33 22-68 41-107 46-40-2-64-22-81-50-82 58-155 127-202 226-12 34-24 67-37 101 133 28 181 47 335 14z"/></g><path d="m16455 12787c19-4 139-50 107-80-14-13-31-20-49-22-76-10-182 59-233 92 75 94 150 188 224 282 103-12 207-26 309-36 64-6 45-57-2-55-61 2-122 4-183 7 74-6 149-13 223-19 89-8 54-81-19-74-80 8-128 9-208 16 83-14 135-20 218-34 73-12 46-78-27-65-51 9-103 18-154 27-29 5-28 3-56 8 78-18 127-30 206-48 81-19 38-93-21-77-116 31-193 55-309 86-9-2-17-4-26-6z" fill="#fefefe"/></g><g fill="#201e1e" stroke-width="75"><path d="m14915 12126c27-8 58 15 69 52 11 37-3 73-30 81-27 8-58-15-69-52-11-37 3-73 30-81z"/><path d="m15301 12059c28-7 57 18 66 55 9 37-6 73-33 79-28 7-57-18-66-55-9-37 6-73 33-79z"/><path d="m16554 12253c23 0 42 21 42 48 0 26-19 48-42 48-23 0-42-21-42-48 0-26 19-48 42-48z"/><path d="m16140 12243c23 0 42 21 42 48 0 26-19 48-42 48-23 0-42-21-42-48 0-26 19-48 42-48z"/></g><g stroke-width="100"><g fill="none"><path d="m16056 14972c-28 97-55 155-97 214-57 80-151 156-130 268 23 124 226 199 264 350 30 120-14 192-60 299"/><path d="m16351 16438c-18-35-36-70-54-105 3-44 5-88 8-133 30-167 92-358-4-514-79-128-195-227-232-380-26-107-18-198-12-334"/><path d="m16754 16059c-62-56-103-124-138-196-56-116-96-241-184-346-222-187-269-273-376-546"/><path d="m15615 16333l-63-103"/><path d="m15731 16269l-101-116"/><path d="m15799 16220l-104-132"/><path d="m16516 16679l134-131"/><path d="m16595 16776l117-102"/><path d="m16663 16850l101-74"/><path d="m17035 16080l25-137"/><path d="m17124 16144l32-150"/><path d="m17211 16189l56-137"/><path d="m16866 16221c36-71 58-142 86-226 12-53 45-88-30-102-57-11-62 5-112 84-33 52-61 103-80 160-6 34-5 64 2 98 8 26 23 45 49 57 59 13 58-18 85-70z"/><path d="m16225 16662c61-23 111-48 160-76 76-44 142-94 208-152-54-109-43-91-140-21-61 44-121 87-182 131-73 52-94 41-46 118z"/><path d="m15904 16158c23 32 47 63 73 94 56 66 55 97 127 37 43-36 22-45-41-123-50-62-100-124-149-186-41-50-46-63-69-43-46 40-39 46-14 99 20 43 44 82 72 122z"/></g><g fill="#fefefe"><path d="m16771 11743c64 0 99 87 68 142-13 22-40 33-68 33-48 0-87-39-87-87 0-48 22-87 87-87z"/><path d="m16217 11621c41-4 87 39 87 87 0 48-39 87-87 87-48 0-94-43-87-87 8-44 45-83 87-87z"/><path d="m15933 12826c-55-108-99-195-154-302 25-10 148-98 136-121-27-56-93-29-137-17-1 0-3-1-2-2 28-71 41-119 40-178 0-46 0-85-37-96-27-8-41 41-47 94-6 50-5 94-6 106-1 2-4 2-4-2-8-35-17-67-28-100-9-27-13-43-22-54-34-44-55-29-58 19-3 51 16 102 27 155 0 0-1 1-1 1-17-20-33-41-49-61-21-25-29-49-44-56-22-10-36-8-44 0-22 22-5 62 20 101 22 34 53 69 66 86 1 1-1 2-1 2-25-9-50-17-75-24-34-10-45-21-57 2-40 79 204 154 245 172 8 109 15 218 23 327 13 5 26 9 39 14 66 3 116-38 171-66z"/></g><g fill="none"><path d="m17161 14539c-3-122-24-238 48-345 64-96 156-95 221 2 63 94 61 194 71 303 8 85 28 133-39 196-25 23-54 34-109 37-56 3-98-9-134-35-65-48-56-84-58-158z"/><path d="m17494 14414c-13-110-27-179-83-240-65-70-157-57-215 32-36 55-38 131-39 226 113-3 224-9 337-19z"/></g></g></g><g fill="#201e1e"><g stroke-width="25"><g font-family="&apos;Monotype Corsiva&apos;" font-style="italic" font-size="1602.27"><text x="10500" y="14850" transform="matrix(.75124 0 0 .85077 6084.77 6931.02)">Texto 01</text><text x="10500" y="14850" transform="matrix(.85142 0 0 .85077 4855.86 8514.8)">Texto 02</text></g><path d="m15848 20191l16 21c-80 76-148 114-205 114-23 0-41-8-53-23-12-16-18-41-18-75 0-70 21-139 64-208 48-78 104-117 171-117 23 0 41 6 53 17 12 12 18 27 18 48 0 21-7 42-22 62-15 21-41 42-79 64-19 11-59 30-121 58-3 18-4 34-4 50 0 23 4 39 11 48 7 9 18 14 32 14 13 0 28-4 44-11 22-10 53-31 94-62zm-171-70c52-23 92-49 118-75 18-19 27-38 27-56 0-14-4-25-11-33-7-8-17-12-29-12-12 0-24 5-35 14-15 12-28 30-39 54-15 36-26 72-32 109z" fill-rule="nonzero"/></g><text x="10500" y="14850" font-family="&apos;Arial&apos;" stroke-width="50" font-size="641.82" transform="matrix(.86244 0 0 .85077 5453.25 9570.03)">00.00.0000</text></g></g><g fill="#201e1e" font-family="&apos;Arial Black&apos;" font-weight="900" font-size="529.17"><text x="10500" y="14850" transform="matrix(.84655 0 0 .85077 6376.47 5126.82)">NN 1</text><text x="10500" y="14850" transform="matrix(.84655 0 0 .85077 6381.51 5542.8)">NN 2</text></g></g></g><g fill="#373435" font-family="&apos;Arial&apos;" font-size="423.33"><text x="1260" y="28030">DESC 1</text><text x="1253" y="28538">DESC 2</text><text x="1242" y="29028">DESC 3</text></g></svg>