<svg xmlns="http://www.w3.org/2000/svg" width="744.09" height="1052.36" viewBox="0 0 21000 29700" shape-rendering="geometricPrecision" image-rendering="optimizeQuality" fill-rule="evenodd" clip-rule="evenodd"><defs><clipPath id="0"><path d="m6642 2487c-2165-59-5632 1715-5640 5942-2 1130 436 4888 540 6379 125 1788 217 4334 255 6146 17 1568 379 2476 1073 2843 924 322 1884 417 2894 181 1046-267 1565-1101 1580-2786-39-2176-303-5943 107-7921 530-2561 1200-2896 1458-5981 155-1856 99-4741-2269-4805z"/></clipPath><clipPath id="1"><path d="m14394 2487c2165-59 5632 1715 5640 5942 2 1130-436 4888-540 6379-125 1788-217 4334-255 6146-17 1568-379 2476-1073 2843-924 322-1884 417-2894 181-1046-267-1565-1101-1580-2786 39-2176 303-5943-107-7921-530-2561-1200-2896-1458-5981-155-1856-99-4741 2269-4805z"/></clipPath></defs><text x="10081" y="24465" fill="#201e1e" font-family="&apos;Arial Black&apos;" stroke="#201e1e" font-weight="900" stroke-width="7.62" font-size="705.56">34</text><g fill="none" stroke-width="80"><g stroke="#322f30"><circle cx="10533" cy="1326" r="460"/><path d="m10533 515v1621"/><path d="m9723 1326h1621"/></g><g stroke="#373435"><circle cx="10533" cy="25836" r="460"/><path d="m10533 25026v1621"/><path d="m9723 25836h1621"/></g></g><rect x="9843" y="22866" width="1347" height="637" rx="318" fill="#fff" stroke="#fff" stroke-width="20"/><g clip-path="url(#0)"><g><g stroke="#201e1e"><g fill="none" stroke-width="100"><path d="m5861 4294c-212 47-360 204-367 421-5 138 60 263 169 352 59 49 122 71 199 68 81-3 236-15 241-122 6-116-188-164-274-167-114-4-196 78-261 176-52 80-94 163-131 251-30 72-52 117-46 194 26 102 70 193 126 269 131 176 241 209 423 179"/><path d="m4195 5321c-212 47-360 204-367 421-4 138 60 263 169 352 59 49 122 71 199 68 81-3 236-15 241-122 6-116-188-164-274-167-114-4-196 78-261 176-52 80-94 163-131 251-30 72-52 117-46 194 26 102 70 193 126 269 131 176 241 209 423 179"/><path d="m4997 7447c-212 47-360 204-367 421-4 138 60 263 169 352 59 49 122 71 199 68 81-3 236-15 241-122 6-116-188-164-274-167-114-4-196 78-261 176-52 80-94 163-131 251-30 72-52 117-46 194 26 102 70 193 126 269 131 176 241 209 423 179"/><path d="m2539 8332c-212 47-360 204-367 421-5 138 60 263 169 352 59 49 122 71 199 68 81-3 236-15 241-122 6-116-188-164-274-167-114-4-196 78-261 176-52 80-94 163-131 251-30 72-52 117-46 194 26 102 70 193 126 269 131 176 241 209 423 179"/></g><g fill="#201e1e" stroke-width="7.62"><path d="m6662 6469c93 0 169 75 169 168 0 93-76 168-169 168-93 0-169-75-169-168 0-93 76-168 169-168z"/><path d="m2877 6012c93 0 169 75 169 168 0 93-76 168-169 168-93 0-169-75-169-168 0-93 76-168 169-168z"/><path d="m3744 8512c93 0 169 75 169 168 0 93-76 168-169 168-93 0-169-75-169-168 0-93 76-168 169-168z"/><path d="m6106 8823c93 0 169 75 169 168 0 93-76 168-169 168-93 0-169-75-169-168 0-93 76-168 169-168z"/><path d="m3212 9700c93 0 169 75 169 168 0 93-76 168-169 168-93 0-169-75-169-168 0-93 76-168 169-168z"/></g></g><g fill="#201e1e"><path d="m3779 10578c93 0 169 75 169 168 0 93-76 168-169 168-93 0-169-75-169-168 0-93 76-168 169-168"/><path d="m4909 4004c93 0 169 75 169 168 0 93-76 168-169 168-93 0-169-75-169-168 0-93 76-168 169-168z" stroke="#201e1e" stroke-width="7.62"/></g><g fill="#fff"><path d="m6794 10832l-11-11z"/><path d="m5730 10853c73-38 206-2 34-143-48-40-185-93-210-138l-87-13c-85-14 105 142 107 144 54 53 101 102 156 150"/><path d="m5266 10910c128-84 113-132 322-132-12-46-202-229-252-229h-219l-13 6 163 355z"/><path d="m4633 10777c-127 74-141 150-187 272l271-59 7 17 139-361c-111 9-163 86-230 131"/><path d="m5269 11049l-121-32v-55c68 6 85 54 121 54 30 0 30-5 55-11l25 53-80-9m0 0c23 16 51 33 88 33h44c38 0 106-98 219-98 31 0 63 25 77 44 17-11 176-46 176-87 0-25-8-33-33-33h-33c-16 0-73 45-110 54-20-37-72-120-121-120h-88c-101 0-170 142-219 142h-11c-21 0-58-38-121-44v65c0 24 9 24 22 44h110"/></g><g stroke="#201e1e"><g fill="#201e1e"><g fill-rule="nonzero" stroke-width="50"><path d="m1410 11182l94-9 8 86-75 7c-40 4-70 2-88-6-25-10-45-29-60-55l30-22c8 16 20 27 34 33 14 6 35 9 61 7l-4-42zm-13-138l94-9 8 86-75 7c-40 4-70 2-88-6-25-10-45-29-60-55l30-22c8 16 20 27 34 33 14 6 35 9 61 7l-4-42zm539-164l-661 61-8-89 487-392-519 48-8-83 661-61 8 89-487 392 519-48 8 83zm-301-605c-89 6-156-14-202-60-38-38-60-87-64-146-5-65 13-120 53-165 40-44 98-69 174-75 62-4 111 1 147 17 37 16 66 41 88 74 22 34 35 71 38 113 5 67-13 122-53 166-40 44-101 69-181 75zm-6-83c61-4 106-21 135-50 29-29 41-63 39-104-3-40-21-72-53-97-33-24-80-34-143-30-59 4-103 21-131 50-29 29-41 63-39 103 3 41 20 73 53 98 32 24 79 35 140 30zm65-432l-19-79c32-7 55-21 71-43 16-22 22-51 19-88-3-37-13-64-29-81-16-17-35-24-56-23-18 1-32 11-41 28-6 12-13 40-21 85-10 60-20 102-29 126-9 24-23 42-42 55-18 13-39 21-63 23-21 2-42-2-60-10-19-8-35-20-48-36-10-12-19-28-28-49-8-21-13-44-15-69-3-37 0-70 9-99 9-29 22-51 39-66 18-15 42-26 72-33l17 78c-25 5-43 17-56 36-13 18-18 43-15 74 3 37 11 63 25 78 14 15 29 22 45 20 10-1 20-5 28-12 8-7 15-18 19-33 2-8 8-32 15-73 11-58 20-99 28-122 8-23 21-42 38-56 18-14 40-23 68-25 27-2 53 4 78 18 25 14 45 35 61 64 15 29 25 62 27 99 5 62-4 110-28 144-23 34-60 58-110 71zm-36-460l-18-79c32-7 56-21 72-42 16-22 22-51 20-88-3-37-12-64-28-81-16-17-35-25-55-23-18 1-32 10-42 27-6 12-14 40-22 84-11 60-21 102-30 125-10 24-23 42-42 55-18 13-39 20-63 22-21 1-41-2-60-11-19-9-35-21-48-37-10-12-19-29-27-50-8-21-13-44-14-69-3-37 1-70 10-99 9-29 22-51 40-66 18-15 42-26 73-33l16 78c-25 5-44 17-56 35-13 18-18 43-16 74 3 37 10 63 24 78 13 15 28 22 45 21 10-1 20-5 28-12 8-7 15-18 19-32 3-8 8-32 16-73 11-58 21-99 29-122 8-23 21-42 39-56 18-14 40-22 68-24 27-2 53 4 78 18 25 14 45 36 60 64 15 29 24 62 26 99 4 62-6 110-29 144-24 34-60 57-111 70zm-126-463c-89 3-155-20-200-68-37-40-56-89-58-148-2-65 18-120 60-163 42-43 101-65 177-68 62-2 111 6 146 23 36 17 64 43 85 78 21 35 32 73 33 114 2 67-18 121-60 164-42 43-103 65-184 67zm-2-83c61-2 107-17 137-44 30-28 44-62 43-102-1-40-18-73-49-99-32-26-79-38-142-36-59 2-104 17-133 44-30 28-44 62-43 101 1 41 17 74 49 100 31 26 78 38 139 36zm98-701l-7-81c33-2 58-12 77-32 19-19 30-47 33-84 3-37-2-65-16-84-14-19-31-29-51-31-18-1-33 5-45 21-8 11-19 38-34 80-20 58-36 98-49 120-13 22-29 38-50 48-20 10-42 15-65 13-21-2-41-8-58-19-17-11-31-26-42-43-8-13-15-31-19-53-5-22-6-46-4-70 3-37 11-70 24-97 13-27 30-47 49-59 20-12 45-19 77-22l5 80c-25 2-46 10-61 26-15 16-24 40-27 71-3 37 1 64 12 80 11 17 25 26 41 27 10 1 20-2 29-8 9-6 17-16 24-29 4-8 13-31 26-69 20-56 36-94 47-116 12-22 27-38 47-50 20-12 43-16 71-14 27 2 52 12 74 30 23 18 39 42 50 72 11 31 14 65 11 102-5 62-22 108-50 138-28 30-68 48-120 53zm94-827l26-80c46 22 79 53 99 92 20 40 25 87 15 141-13 68-44 119-94 151-50 32-113 41-190 27-79-15-137-46-173-95-36-49-48-105-36-170 12-63 43-110 93-141 50-32 115-40 193-26 5 1 12 2 21 4l-66 349c52 7 95-1 127-22 32-21 52-51 60-90 5-29 2-55-9-79-12-24-33-44-65-63zm-177 237l49-261c-40-4-72 1-95 13-36 19-57 49-65 90-7 36 0 69 20 99 20 29 50 49 91 59zm367-391l-468-112 17-71 66 16c-43-46-56-101-40-166 7-28 18-52 34-73 16-21 33-35 53-43 19-8 41-11 64-10 15 1 41 5 78 14l287 69-19 79-284-68c-32-8-57-11-75-8-17 2-33 10-46 23-13 13-23 30-28 51-8 33-5 65 11 94 15 29 53 51 113 66l255 61-19 79zm128-683l71 15c-4 23-8 43-15 60-10 27-23 47-37 59-15 12-30 18-47 19-17 1-48-7-94-24l-260-96-21 56-59-22 21-56-111-41-17-93 157 58 28-76 59 22-28 76 264 98c22 8 36 12 44 12 7 0 14-3 20-7 6-5 11-13 15-24 3-8 6-20 9-34zm-439-248l-87-32 28-76 87 32-28 76zm535 198l-451-167 29-76 451 167-28 76zm75-191l-430-213 33-65 61 30c-14-24-22-50-24-78-2-29 5-57 19-85 16-32 36-54 59-68 23-14 49-19 77-15-33-59-36-115-9-170 21-43 50-69 85-81 35-11 77-5 126 20l295 146-36 72-271-134c-29-14-51-22-66-24-15-2-30 2-44 10-14 8-25 21-34 38-15 30-18 60-8 90 10 30 37 56 82 78l250 124-36 72-279-138c-32-16-60-22-82-18-22 4-40 19-53 46-10 20-14 42-12 64 2 23 12 43 28 61 17 18 45 37 84 56l223 111-36 72zm428-1031l58-61c32 39 49 81 50 125 1 45-15 89-47 134-41 57-91 89-150 97-59 8-120-11-184-56-65-47-104-100-116-159-12-59 1-116 40-169 37-52 86-81 145-89 59-7 121 12 185 58 4 3 10 7 17 13l-209 289c45 28 86 40 124 34 38-5 69-24 93-56 17-24 26-49 25-75 0-26-11-54-32-84zm-262 139l156-216c-35-21-66-30-92-28-41 3-73 21-97 54-22 30-30 63-25 98 6 35 25 66 57 92zm499-199l-358-319 49-54 51 45c-15-61-1-116 44-165 19-21 41-38 65-49 24-11 46-15 67-13 21 2 41 9 62 21 13 8 34 24 62 49l220 196-54 60-218-194c-25-22-45-36-62-42-16-6-34-7-52-1-18 5-34 16-49 32-23 26-35 55-35 88 0 33 22 70 68 111l195 174-54 60zm426-550l58 43c-13 19-26 35-39 48-21 20-41 33-59 38-18 5-35 4-50-3-15-6-40-27-74-62l-193-197-43 42-44-45 43-42-83-85 24-91 117 119 58-56 44 45-58 56 197 200c16 17 28 26 34 29 7 3 14 3 21 2 7-2 15-7 24-15 6-6 14-15 23-27zm-67-167c-57-68-80-134-69-198 9-53 37-99 82-137 51-42 106-60 166-53 60 6 114 39 163 97 39 47 63 90 72 129 8 39 5 77-10 114-15 37-38 69-70 96-52 43-107 61-167 54-60-7-115-41-167-103zm64-53c39 47 79 74 119 80 40 6 76-4 108-30 31-26 47-59 48-99 1-41-19-85-59-133-38-45-77-71-117-77-40-6-76 3-107 29-32 26-48 59-49 99-1 40 18 84 57 131zm744-258l-231-346-60 40-35-52 60-40-28-42c-18-27-29-48-33-64-5-22-3-43 6-65 9-22 29-42 58-62 19-13 42-24 68-35l29 66c-16 7-30 14-43 23-21 14-32 27-35 42-3 14 4 33 20 57l24 36 78-51 35 52-77 51 231 346-68 45zm59-323c-42-77-52-147-29-207 19-51 55-90 108-118 58-31 116-38 173-20 57 18 104 60 141 126 29 54 44 101 45 140 1 40-10 76-32 110-22 34-51 61-88 80-59 32-117 39-174 21-57-18-105-62-143-133zm73-39c29 54 63 87 101 101 38 14 75 11 111-8 36-19 58-48 67-88 9-40-2-87-31-142-28-52-62-85-100-98-38-14-75-11-111 8-36 19-59 49-68 88-9 39 1 86 30 139zm303-521l-36-85 75-32 36 85-75 32zm223 522l-188-439 75-32 188 439-75 32zm713-323c-22 33-45 58-69 76-24 18-51 31-82 40-51 14-93 13-128-4-34-17-57-44-68-82-6-22-7-44-2-66 5-22 14-40 28-56 14-16 30-30 49-41 14-8 37-19 66-31 61-25 105-48 132-66-3-11-5-18-5-20-9-32-23-52-41-60-25-12-57-12-97-1-37 10-62 25-76 42-14 18-20 44-19 79l-80 11c-2-35 1-64 12-89 10-25 29-46 56-66 27-19 61-35 101-46 40-11 73-16 101-13 27 2 49 9 65 19 16 11 29 26 40 46 6 13 15 36 24 70l30 103c21 72 35 117 44 136 9 18 21 35 35 50l-82 23c-13-14-23-32-32-53zm-56-171c-25 20-65 41-120 66-31 14-52 25-64 35-12 10-20 21-24 34-4 13-4 26 0 40 6 21 19 36 39 45 20 9 45 10 75 1 30-9 55-23 75-42 20-20 32-42 37-68 3-20 0-47-10-81l-8-28zm265 179l-152-641 79-19 152 641-79 19zm502-250l85-2c-5 50-24 91-55 123-31 32-74 53-129 61-69 11-128-2-175-38-47-36-77-92-89-169-13-79-2-144 32-194 34-50 84-80 149-91 63-10 118 3 165 40 47 36 77 94 89 171 1 5 2 12 3 21l-354 56c11 51 32 88 63 112 31 23 66 32 106 26 29-5 53-16 72-35 18-19 31-46 38-82zm-284-86l265-42c-10-39-25-67-45-84-30-27-66-37-107-30-37 6-66 23-87 51-21 28-30 64-26 105zm28-260l39-134 106-17-78 140-67 11zm469 461l34-476 73 5-5 67c17-22 38-40 64-52 26-12 55-17 87-15 35 3 64 12 86 28 22 16 36 38 44 65 42-53 94-77 155-73 48 3 84 19 107 47 24 28 34 69 30 123l-23 326-81-6 21-300c2-32 1-56-3-70-4-15-13-27-26-36-13-10-29-15-48-16-34-2-63 7-87 27-24 21-38 56-41 105l-20 276-81-6 22-309c3-36-2-63-14-82-12-19-33-29-63-31-23-2-44 3-65 13-20 11-36 27-46 49-10 22-17 55-20 98l-18 247-81-6zm1243 396l38-48c-53 18-103 9-150-27-30-24-51-53-63-89-12-36-14-74-4-115 10-40 29-80 60-118 30-37 63-66 99-87 37-21 74-29 112-26 38 3 72 17 103 41 23 18 39 38 49 62 10 23 15 47 14 71l148-186 64 50-410 518-60-47zm-54-345c-38 48-56 92-54 131 2 40 16 70 44 92 28 22 61 29 98 22 38-7 75-34 112-81 40-51 60-96 59-136-1-40-16-71-45-94-29-22-61-29-99-21-37 8-76 37-115 86zm473 725l30 79c-49 11-95 7-135-12-41-19-74-53-100-102-33-62-40-120-21-176 19-56 63-102 132-138 71-37 136-48 195-33 59 16 104 53 135 111 30 56 35 112 16 168-20 56-64 102-135 139-4 2-11 5-19 10l-167-314c-45 27-74 59-86 95-12 36-9 72 10 107 14 26 33 45 57 56 24 11 54 14 90 9zm-9-295l125 235c34-22 56-45 66-69 16-37 14-74-5-110-17-33-43-55-77-65-34-11-70-7-109 10zm-85 1119l230-53c-20-8-39-22-55-41-17-19-28-41-34-66-13-55-2-108 33-158 35-50 91-84 168-102 47-11 91-13 132-5 41 8 75 25 101 51 27 26 44 58 53 94 14 57 0 108-41 152l63-15 17 71-648 150-19-79zm358-339c-60 14-102 37-127 69-24 32-32 66-24 101 8 34 29 59 63 77 34 18 81 20 139 6 62-14 106-38 131-71 25-33 34-66 26-101-8-34-29-60-64-77-35-17-83-18-145-4zm-99 811l71-9c-59-30-92-76-100-140-4-28-2-55 6-80 8-26 19-45 34-59 15-14 34-25 57-32 16-5 40-10 75-14l295-37 10 80-264 33c-42 5-70 11-85 16-21 8-36 20-46 38-10 18-14 39-11 63 3 24 12 46 27 65 15 19 34 32 56 38 22 6 54 6 95 1l255-32 10 80-477 60-9-72zm94 508c-27-29-46-57-58-85-12-27-18-57-19-89-2-52 9-93 34-122 25-29 57-44 97-46 23-1 45 4 65 14 20 10 36 23 48 40 12 17 22 36 29 57 5 16 10 40 15 72 10 65 21 113 33 143 11 0 18 0 21 0 33-1 56-10 69-26 18-21 26-52 24-93-1-38-9-66-23-84-14-18-38-30-73-38l8-79c34 6 62 17 84 32 22 16 39 39 51 70 12 31 20 67 21 108 2 41-2 74-11 100-9 26-20 45-34 58-14 13-32 22-55 27-14 3-39 5-75 7l-108 4c-75 3-123 6-143 10-20 4-39 11-57 22l-3-85c17-9 37-15 60-18zm180-13c-13-29-25-73-36-131-6-33-12-57-19-70-7-14-16-24-27-31-12-7-25-10-39-10-21 1-39 10-53 26-14 17-20 41-19 72 1 31 9 59 24 82 14 24 34 41 58 51 19 8 46 11 82 10l30-1zm-235 213l664-6 1 81-664 6-1-81zm-186 505l236 6c-17-13-32-31-43-54-11-23-16-47-16-72 2-57 26-105 72-144 47-40 109-58 189-56 48 1 91 11 129 28 38 18 66 43 85 75 19 32 28 67 27 105-2 59-28 105-79 137l65 2-2 73-665-18 2-81zm433-237c-62-2-108 10-140 35-32 25-48 55-49 91-1 34 13 64 42 90 29 26 73 39 133 41 64 2 112-10 145-35 33-25 50-56 51-91 1-35-13-65-42-90-29-25-76-39-139-40zm-275 761l71 4c-52-40-77-92-74-155 2-28 8-54 20-78 12-24 27-41 44-52 17-11 38-18 62-22 16-2 42-3 76-1l297 16-4 81-266-14c-42-2-71-2-86 0-22 4-39 14-52 30-13 16-20 36-22 60-1 24 4 47 15 69 11 22 28 38 49 48 21 10 52 16 93 18l257 14-4 81-480-25 4-73zm109 538l-19 82c-48-17-83-45-107-83-24-38-33-84-28-139 6-69 33-122 80-159 47-37 109-51 187-44 80 7 141 34 181 79 41 45 58 100 52 166-6 63-32 113-80 149-47 36-110 51-189 43-5 0-12-1-21-2l33-354c-53-2-94 9-125 33-30 24-47 56-51 95-3 29 3 55 17 78 14 22 37 41 71 57zm155-252l-25 265c41 0 72-7 93-22 34-23 52-54 56-95 3-37-6-69-29-97-23-27-55-44-96-51zm-330 422l478 53-8 72-73-8c32 22 52 42 61 59 9 17 13 35 10 53-3 27-15 54-35 80l-72-37c13-18 21-37 23-57 2-18-2-34-11-49-9-15-23-27-41-35-28-12-59-20-93-24l-250-28 9-80zm52 896l-25 76c-52-18-91-47-115-88-24-41-32-87-23-138 11-64 42-112 91-144 49-32 113-41 192-27 51 9 94 25 130 49 35 23 59 54 72 92 13 38 16 77 9 117-9 51-29 90-61 118-32 28-72 42-122 43l2-79c33-2 59-11 79-27 19-16 31-37 36-64 7-40-2-75-26-106-25-30-68-51-131-62-64-11-112-7-145 12-33 19-53 48-60 87-6 31-1 59 15 83 15 24 43 43 82 55z"/><path d="m7960 9063c-19-35-31-66-36-96-5-29-4-59 2-91 10-51 31-88 62-111 31-23 66-30 105-22 23 5 43 14 60 28 17 14 29 31 37 50 8 19 13 40 15 62 1 16 0 41-2 73-5 66-6 115-1 147 11 2 18 4 21 5 32 6 57 4 73-9 22-17 37-45 45-85 8-37 7-66-3-87-10-21-30-38-62-54l27-75c32 14 57 31 74 51 17 20 28 47 33 80 5 33 3 69-5 110-8 40-19 72-34 95-15 23-30 39-47 48-17 9-37 13-60 14-14 0-39-4-74-11l-106-21c-74-15-121-23-142-23-20-1-41 2-61 8l17-83c18-5 39-6 62-3zm178 29c-6-31-7-77-4-136 2-34 1-58-2-73-3-15-10-27-19-36-10-10-22-16-36-19-21-4-40 0-58 13-17 13-29 35-36 66-6 31-5 59 4 86 8 26 23 48 44 63 16 12 42 22 77 29l29 6zm-282 153l468 110-17 71-72-17c29 26 47 48 54 66 7 18 8 36 4 54-6 27-21 52-44 75l-66-45c15-17 25-34 30-53 4-17 3-34-5-50-7-16-19-29-36-39-26-15-56-27-89-35l-245-58 19-79zm-74 298l462 132-20 70-66-19c41 48 52 104 33 167-8 28-20 52-37 72-17 20-35 34-54 41-20 7-41 9-65 8-15-1-41-7-77-17l-284-81 23-78 281 80c32 9 57 13 74 11 17-2 33-9 47-21 14-13 24-29 30-50 10-33 7-64-7-95-14-30-51-53-110-70l-252-72 23-78zm-185 805c-15-36-24-69-26-99-2-30 2-60 12-90 16-50 40-85 74-104 33-19 69-23 107-11 22 7 41 19 57 34 15 16 26 34 32 54 6 20 9 41 8 64-1 16-4 41-10 72-12 65-18 113-17 146 11 4 17 6 20 7 32 10 56 10 74-1 24-14 42-41 54-80 12-36 14-65 6-87-7-21-26-41-56-60l35-72c30 17 53 37 68 59 15 22 23 50 24 83 1 33-4 69-17 109-12 39-27 69-44 91-17 21-34 36-52 43-18 7-38 10-61 7-14-2-38-8-73-19l-103-32c-72-23-118-35-138-38-20-3-41-2-61 1l26-81c19-3 40-2 62 3zm174 48c-3-32 1-77 11-135 6-33 8-57 6-72-2-15-7-28-15-38-9-11-20-18-33-22-20-6-40-4-59 7-19 11-33 32-42 62-9 30-11 58-6 86 6 27 18 50 37 68 15 14 39 26 73 37l28 9zm-342 246l514 5-32 81-306-8c-33-1-67-3-101-6 21 16 46 36 74 61l235 204-30 77-383-341 28-73zm-158 623c-15-37-23-70-24-99-1-30 3-60 13-90 17-50 42-84 75-103 33-19 69-22 107-9 22 7 41 19 56 35 15 16 25 34 31 54 6 20 8 41 7 64-1 16-5 41-11 72-14 64-20 113-20 146 10 4 17 6 20 7 31 10 56 10 74 0 24-14 43-40 56-79 12-36 15-65 8-86-7-22-25-42-55-61l36-72c30 18 53 37 67 60 15 22 22 50 23 83 1 33-5 69-19 108-13 39-28 69-46 90-17 21-35 35-53 42-18 7-38 9-61 7-14-2-38-8-72-20l-103-34c-72-24-117-37-138-40-20-3-41-3-61 1l27-80c19-2 40-1 62 4zm173 51c-2-32 2-77 13-135 6-33 9-57 7-72-1-15-6-28-15-39-9-11-20-18-33-23-20-7-40-5-59 6-19 11-33 31-43 61-10 30-12 58-7 85 5 27 17 50 36 68 15 14 39 27 73 38l28 10zm-294 118l635 191-24 77-635-191 24-77zm497 341l90 27-25 83-72-22c-38-12-65-24-79-38-20-19-31-44-35-74l36-9c2 17 8 32 19 44 11 12 29 22 52 30l12-40zm-41 133l91 27-25 83-72-22c-38-12-65-24-79-38-20-19-31-44-35-74l36-9c2 17 8 32 19 44 11 12 29 22 52 30l12-40z"/></g><path d="m5032 10479c93 0 169 75 169 168 0 93-76 168-169 168-93 0-169-75-169-168 0-93 76-168 169-168z" stroke-width="7.62"/></g><path d="m6653 10415c-212 47-360 204-367 421-4 138 60 263 169 352 59 49 122 71 199 68 81-3 236-15 241-122 6-116-188-164-274-167-114-4-196 78-261 176-52 80-94 163-131 251-30 72-52 117-46 194 26 102 70 193 126 269 131 176 241 209 423 179" fill="none" stroke-width="100"/><g stroke-linejoin="round" stroke-linecap="round"><g stroke-width="100"><g fill="none"><path d="m5325 12459c-82 85-153 167-273 200-51 14-105 16-185 13-174-23-261-52-397-158 20-74 51-140 93-198 32-45 69-84 111-117 53-42 109-74 167-95 92-33 186-45 282-34 80 12 159 31 234 78-18 106-28 205-32 311z"/><path d="m5509 12196c3-123 21-206-44-313-61-100-128-120-237-96 107 108 95 190 89 339 5 17 10 34 15 51 36-8 72-16 107-24 15 11 31 22 46 34 13 9 40 39 24 8z"/><path d="m4807 12024c15-100 16-199 123-251 69-33 140-7 209 13-107 85-115 114-129 253-30 20-60 40-91 60-18-24-37-47-55-71-19-2-38-3-57-5z"/><path d="m5317 12127c9-117 19-215-65-312-26-30-40-46-58-47-34-3-77 32-100 55-72 72-71 120-85 217 91 2 87 7 121 92 98-58 98-74 186-5z"/></g><g fill="#fefefe"><ellipse cx="5034" cy="12132" rx="96" ry="95"/><ellipse cx="5235" cy="12178" rx="96" ry="95"/></g><path d="m4843 12530c166-35 249-147 366-260-33-9-63-44-77-79-33 17-58 34-97 37-44-4-77-23-92-66-37 24-75 45-118 50-44-2-71-24-90-55-91 63-172 139-224 248-14 37-27 74-40 110 148 30 201 51 371 15z" fill="none"/><g fill="#fefefe"><path d="m5439 12154c71 0 109 95 75 155-14 24-45 36-75 36-53 0-96-43-96-95 0-53 25-95 96-95z"/><path d="m4825 12020c46-4 96 43 96 95 0 53-43 95-96 95-53 0-104-47-96-95 8-48 50-91 96-95z"/></g><g fill="none"><path d="m5844 13901c6-225-69-312-261-447-98-4-196-7-294-11-73 20-146 40-219 60 41 35 83 71 124 106 228 73 445 169 649 292z"/><path d="m5977 13948c-46-5-89 2-107 56-38 117 37 172 155 173 43 0 66-28 79-51 37-62-26-167-128-178z"/><path d="m3687 14604c224-43 451-71 664-100 290-40 583-35 875-28"/><path d="m3686 14822c243-62 482-111 724-136 257-27 559-19 817-19"/><path d="m3717 15047c241-50 486-107 724-136 273-32 541-29 816-31"/><path d="m5144 14267c144 2 226 19 288 65 62 46 104 121 169 237 24 64 49 128 73 192 57 160 112 320 27 485-115 222-306 237-522 265-404 24-825 20-1229 44-112 1-203-2-287-25-78-21-142-55-191-101-63-59-102-139-112-241 3-110 6-219 9-329 24-83 49-165 73-248 34-62 77-107 125-142 96-69 208-109 326-134 139-30 280-45 422-55 277-19 552-18 830-14z"/><path d="m2811 15249c7-133-8-261 80-372 79-99 180-91 244 20 62 108 52 217 54 337 2 93 20 147-59 211-29 23-62 33-123 31-63-2-108-17-145-49-68-57-55-96-51-177z"/><path d="m3189 15138c-5-121-16-198-73-268-66-81-169-75-240 18-44 57-53 139-61 244 125 6 249 8 374 6z"/><path d="m2609 15739c1-177-10-382 9-579 24-245 95-479 295-631 194-148 412-222 667-298 328-98 668-156 1042-165 287-2 553 27 804 100 143 41 282 97 418 168 135 71 229 159 311 262 208 261 283 537 350 852 4 13 9 25 13 38m-1227 390c-645 74-1310 37-1959 40-70 0-130-5-188-14-83-13-167-34-250-57-83-23-145-41-205-68-84-38-107-71-145-69-51 2-82 29-103 65-43 72-49 120-30 169 16 39 38 69 66 93 53 47 110 75 170 93 100 30 209 33 320 47 222 14 443 34 666 29 665-31 1522 40 2185-125 232-58 447-170 656-230 93-30 278-59 303-175 5-24 2-54-9-93-12-44-32-89-77-105-44-15-134 2-247 35-399 117-738 318-1154 366z"/><path d="m5935 15714l633-241"/><path d="m3632 16203c-222-10-444-19-666-29 2 143-46 451 82 556 123 101 425 130 533-8 97-123 53-376 51-519z"/><path d="m5927 16581c60 24 130 19 262-15 79-20 176-41 237-95 32-28 53-66 56-117 3-49-14-115-37-185-35-102-83-208-105-278-197 82-402 142-606 205 7 200-20 400 193 484z"/><path d="m5846 14329c40-51 65-116 96-164-309-153-530-223-874-282-171-30-334-43-495-40-635 9-1226 303-1669 560 1 43 2 79 3 122 208-120 426-214 650-288 337-112 668-142 1009-164 257-16 499 7 735 64 184 44 364 109 546 192z"/><path d="m2981 14277c-1 49-15 104-78 121 0 3 1 7 1 10 314-178 741-396 1157-502 159-41 318-65 508-65 440 1 852 97 1251 269 17 7 34 15 51 22-2-4-3-8-5-12-209-196-359-261-646-330-193-47-390-74-597-80-632-17-1197 333-1642 568z"/><path d="m2920 14204c150-127 364-257 574-364"/><path d="m2815 14375c-15-15-27-32-30-56-5-30 16-60 45-82 29-21 66-35 93-30 72 11 103 120 44 165-22 16-51 26-83 26-28 0-54-8-70-23z"/><path d="m5632 12817c-123-72-239-179-306-358 8-104 16-209 24-313 78 44 148 99 198 179 57 81 90 164 98 249 13 88 3 167-14 243z"/><path d="m3094 14083l4-342 322-166 409-94 168 3"/><path d="m3094 14074c1-114 3-218 4-332 134-69 262-122 391-161 264-81 529-107 843-108 267-2 508 38 748 103 296 80 579 209 839 371-41 17-57 75-72 134-106-79-203-142-306-191-191-89-456-147-665-166-125-12-252-13-379-13-69-62-137-125-206-187-415 129-827 300-1195 551z"/></g><g fill="#fefefe"><path d="m4400 13393c98-48 197-94 297-140 42-19 84-38 126-57 107 133 214 266 321 398-56 27-112 54-167 82-86 44-172 89-261 131-204 97-240 64-403-92-82-78-163-156-245-234-361 16-653 98-970 261 20-111 65-158 136-247 38-48 76-95 115-142 88 11 154 13 242-2 86-14 167-41 226-114 146 40 288 90 428 145 75 30 84 45 156 10z"/><path d="m4696 13253c42-19 84-38 126-57 107 133 214 266 321 398-56 27-111 54-167 82-90-145-181-284-280-423z"/></g><g fill="none"><path d="m5423 17648c-50-100-101-200-151-300-83-167-57-189-198-73-56 46-118 84-178 126-115 82-107 66-41 190 53 99 108 196 168 280 78 108 86 112 213 68 50-17 94-38 130-61 119-78 111-121 57-229z"/><path d="m4313 17411c101-73 203-147 304-220 131-95 139-72 36-199-46-56-92-113-138-169-90-111-71-109-173-9-100 99-201 198-302 297-92 91-93 74-13 176 28 35 55 70 83 105 96 122 77 110 202 19z"/><path d="m5675 16707c18 10 37 19 55 29 94 49 188 98 282 147 105 55 104 39 60 149-14 35-28 69-42 105-43 107-38 84-150 66-123-20-249-31-371-53-58-10-88-30-104-59-45-81-3-175 51-262 52-82 66-123 107-133 24-6 57-2 113 11z"/><path d="m5512 12086c45 2 76 6 102 15 57 20 94 47 117 85 75 124 124 252 192 371 81 140 171 224 277 280 188 99 458 145 630 149-11 81-16 153-16 224-1 207-13 414 13 620 11 87 14 158 1 223-29 152-127 244-247 306-60 31-125 56-190 77-130 43-155 53-238 160-84-113-189-200-308-267 26-57 53-114 79-171 71 34 133 32 179-32 23-64 4-116-62-156-84-11-156-29-198-69 5-227-73-315-261-447-165-10-331-20-496-30-23-56-46-112-69-168 142 6 275-30 397-120 136-91 207-239 235-427 11-141-24-268-103-383-15-19-29-38-44-56 3-61 5-122 8-183z"/><path d="m4632 15301c25-83 4-156-13-239-40 4-80 9-120 13-3 86 2 150 19 234 38-3 76-6 114-9z"/><path d="m3345 13213c140 30 278 2 416-65 19 30 37 60 56 89-64 61-119 82-205 106-87 23-174 18-262 9-1-46-2-93-3-139z"/><path d="m3457 11939c357 0 646 287 646 641 0 354-289 641-646 641-218 0-410-107-527-270-1-1-1-3-2-3-170 15-199-73-76-142 2-1-1-3-2-5-26-69-40-144-40-221 0-354 289-641 646-641z"/></g></g><g fill="none"><path d="m3039 12843c52 54 101 101 151 139 85 63 176 100 305 98 114-2 203-28 277-79 77-52 146-129 202-228" stroke-width="75"/><g stroke-width="100"><path d="m4594 12890c73 95 138 153 253 202 51 22 106 34 177 32 88-3 145-21 198-54 58-36 94-70 123-110 27-38 48-81 74-136"/><path d="m3119 13665c-58 69-116 139-174 208-61-53-122-107-182-160 102-96 220-209 322-304 41 41 64 100 105 141-23 38-47 77-70 115z"/><path d="m3095 13970c-50-32-100-64-150-96 52-62 103-124 155-185-2 94-3 187-5 281z"/><path d="m2854 13794c91-102 183-204 274-305-20-21-24-58-44-79-102 96-220 209-322 304 30 27 61 53 91 80z"/><path d="m3252 13189c-48 42-76 63-97 102-53 97-37 187 34 259 53-66 106-132 159-199-1-46-2-93-3-139-31-8-62-16-93-23z"/><path d="m2875 13608c-50-90-100-150-84-257 6-37 16-76 55-112 43-40 84-62 126-71 40-9 87-7 133-1-7 28-12 61-9 90 3 31 12 60 38 86-17 47-10 91 6 137-18-8-52-30-73-54-64 61-128 121-193 182z"/><path d="m3126 13132c-31 41-28 63-31 115 5 50 4 61 39 96 25-80 54-98 118-154-42-19-84-38-126-58z"/></g></g><g stroke-width="100"><path d="m2964 12223c8 92 23 180 62 247-30-3-60-6-90-9 12 46 18 97 17 158-23-23-49-41-77-53 5 51 17 115 7 163-3 13-8 25-17 35-22 23-59 54-95 73-54-157-73-284-52-396 32-168 91-250 219-350 25-138 42-189 145-253-7 51-16 71 5 117 40-13 66-37 87-61 20-24 76-2 102-18 54-51 103-117 180-143-24 50-27 97-11 141 50-45 132-83 180-87 18 38 18 55 52 79 73 15 147 30 220 45-44 4-83 13-113 36 68 53 118 118 157 190-57-34-117-61-178-83 18 58 26 116 28 175-50-48-105-91-170-124 4 34-1 69-11 104-33-54-78-94-133-124 1 47 3 94 4 141-138-144-149-198-348-193 53 38 87 97 115 164-54-38-114-61-180-69-35 32-71 64-106 96z" fill="#201e1e"/><ellipse cx="5052" cy="12662" rx="600" ry="595" fill="none"/><path d="m5154 15448c-53-91-65-76-172-81-310 36-620 72-929 109-32 28-41 68-39 113 46 111 92 222 139 333 30 73 22 70 101 64 255-18 510-37 765-55 99-7 162 9 183-108 4-25 2-52-5-98-14-92-28-185-43-277z" fill="#fefefe"/><path d="m5109 15730c-3-35-7-70-11-105-18-84 3-170-92-161-256 24-512 48-767 73-120 11-99 10-91 129 16 46 31 92 47 138 54 85 42 97 142 86 223-24 449-36 668-83 84-18 110 3 104-77z" fill="none"/><path d="m5089 13297c21-5 154-54 118-88-15-14-34-22-54-25-85-11-202 64-258 100 83 103 166 206 249 309 114-13 229-29 342-39 71-7 50-62-2-60-68 2-135 5-203 7 82-7 165-14 247-21 98-8 59-89-21-81-88 8-142 9-230 18 92-15 149-22 241-37 81-13 51-86-30-72-57 10-114 20-171 30-32 5-31 3-63 9 87-20 141-33 228-53 89-21 43-102-23-85-128 34-214 60-342 94-10-2-19-4-29-6z" fill="#fefefe"/></g><g fill="#201e1e" stroke-width="75"><ellipse transform="matrix(.7494-.18448.1859.74365 3828.3 12573.3)" rx="74" ry="99"/><ellipse transform="matrix(.74062-.21658.21825.73494 3403.29 12645.8)" rx="74" ry="99"/><ellipse cx="5199" cy="12764" rx="46" ry="52"/><ellipse cx="4739" cy="12753" rx="46" ry="52"/></g><g stroke-width="100"><g fill="none"><path d="m4646 15688c-31 106-60 169-108 234-64 88-167 171-144 294 25 136 250 218 293 383 34 131-15 210-67 327"/><path d="m4973 17292c-20-38-40-77-60-115 3-48 6-97 9-145 33-183 102-392-5-563-87-140-216-248-257-416-28-117-20-217-14-366"/><path d="m5420 16878c-69-62-114-136-153-214-62-126-107-264-204-379-246-205-298-299-417-597"/><path d="m4158 17177l-70-112"/><path d="m4287 17107l-113-127"/><path d="m4362 17054l-116-145"/><path d="m5156 17557l149-144"/><path d="m5244 17663l130-112"/><path d="m5319 17744l112-81"/><path d="m5731 16900l28-149"/><path d="m5830 16971l36-165"/><path d="m5926 17020l63-149"/><path d="m5544 17055c40-78 64-155 95-248 14-58 50-96-33-112-63-12-69 5-124 92-37 57-67 112-88 175-6 38-6 70 2 108 9 29 25 49 55 62 66 14 65-20 94-77z"/><path d="m4834 17538c67-26 123-53 177-84 84-48 157-103 231-166-60-119-48-99-155-23-67 48-134 95-202 143-81 57-104 45-51 130z"/><path d="m4478 16987c25 35 52 69 81 103 62 73 61 106 141 40 47-39 24-50-45-135-55-68-110-135-165-203-45-55-51-69-77-47-51 44-43 50-15 108 22 47 49 90 80 134z"/></g><path d="m4510 13340c-61-118-110-213-171-331 28-11 163-107 151-133-30-61-103-32-151-19-2 0-3-1-2-3 31-78 45-130 44-195 0-50 0-93-41-105-30-9-45 45-52 103-7 54-6 103-7 116-1 2-4 2-5-2-8-38-19-73-31-109-10-30-15-47-24-59-38-48-61-32-64 21-3 56 18 111 30 170 0 1-1 1-1 1-18-21-37-45-55-66-23-28-33-53-49-61-24-11-40-9-49 0-24 24-5 68 22 111 24 38 59 75 73 94 1 1-1 2-2 2-28-9-56-18-83-26-37-10-50-23-63 2-44 87 226 169 271 188 9 119 17 238 26 358 14 5 29 10 43 15 73 3 128-42 189-72z" fill="#fefefe"/><g fill="none"><path d="m5871 15215c-3-133-27-260 53-377 71-105 173-104 245 2 70 103 68 213 79 332 9 93 31 146-43 214-27 25-60 37-120 40-63 3-109-10-148-38-72-52-62-92-64-173z"/><path d="m6240 15077c-14-120-30-196-92-262-72-76-174-62-238 35-40 60-42 143-43 248 126-3 248-10 374-21z"/></g></g></g><path d="m2218 12583c-212 47-360 204-367 421-4 138 60 263 169 352 59 49 122 71 199 68 81-3 236-15 241-122 6-116-188-164-274-167-114-4-196 78-261 176-52 80-94 163-131 251-30 72-52 117-46 194 26 102 70 193 126 269 131 176 241 209 423 179" fill="none" stroke-width="100"/><g fill="#201e1e"><g stroke-width="25"><g font-family="&apos;Monotype Corsiva&apos;" font-style="italic" font-size="1602.27"><text x="10500" y="14850" transform="matrix(.83268 0 0 .93113-6355.24 6887.55)">Texto 01</text><text x="10500" y="14850" transform="matrix(.94373 0 0 .93113-7759.05 8620.92)">Texto 02</text></g><path d="m4488 21428l18 23c-88 83-164 125-228 125-26 0-45-9-59-26-14-17-20-45-20-82 0-76 24-152 71-227 53-86 116-129 189-129 26 0 45 6 59 19 14 13 20 30 20 52 0 23-8 46-24 68-16 22-45 46-87 70-21 12-66 33-135 64-3 19-5 37-5 55 0 25 4 43 12 53 8 10 20 15 36 15 15 0 31-4 49-12 24-11 59-34 105-68zm-190-77c58-26 102-53 131-83 20-21 30-41 30-61 0-15-4-27-12-37-8-9-19-14-32-14-13 0-26 5-39 15-17 13-31 33-43 60-17 39-29 79-35 119z" fill-rule="nonzero"/></g><text x="10500" y="14850" font-family="&apos;Arial&apos;" stroke-width="50" font-size="641.82" transform="matrix(.95594 0 0 .93113-7113.23 9775.83)">00.00.0000</text></g></g><g fill="#201e1e" font-family="&apos;Arial Black&apos;" font-weight="900" font-size="529.17"><text x="10500" y="14850" transform="matrix(.93832 0 0 .93113-5970.75 4912.92)">NN 1</text><text x="10500" y="14850" transform="matrix(.93832 0 0 .93113-5965.17 5368.19)">NN 2</text></g></g></g><g clip-path="url(#1)"><g><g fill="none" stroke="#201e1e" stroke-width="100"><path d="m14700 8883c-212 47-360 204-367 421-4 138 60 263 169 352 59 49 122 71 199 68 81-3 236-15 241-122 6-116-188-164-274-167-114-4-196 78-261 176-52 80-94 163-131 251-30 72-52 117-46 194 26 102 70 193 126 269 131 176 241 209 423 179"/><path d="m16353 7961c-212 47-360 204-367 421-4 138 60 263 169 352 59 49 122 71 199 68 81-3 236-15 241-122 6-116-188-164-274-167-114-4-196 78-261 176-52 80-94 163-131 251-30 72-52 117-46 194 26 102 70 193 126 269 131 176 241 209 423 179"/><path d="m17915 5106c-212 47-360 204-367 421-4 138 60 263 169 352 59 49 122 71 199 68 81-3 236-15 241-122 6-116-188-164-274-167-114-4-196 78-261 176-52 80-94 163-131 251-30 72-52 117-46 194 26 102 70 193 126 269 131 176 241 209 423 179"/><path d="m14601 4151c-212 47-360 204-367 421-4 138 60 263 169 352 59 49 122 71 199 68 81-3 236-15 241-122 6-116-188-164-274-167-114-4-196 78-261 176-52 80-94 163-131 251-30 72-52 117-46 194 26 102 70 193 126 269 131 176 241 209 423 179"/><path d="m18423 7904c-212 47-360 204-367 421-4 138 60 263 169 352 59 49 122 71 199 68 81-3 236-15 241-122 6-116-188-164-274-167-114-4-196 78-261 176-52 80-94 163-131 251-30 72-52 117-46 194 26 102 70 193 126 269 131 176 241 209 423 179"/></g><g fill="#201e1e"><path d="m17204 9701c93 0 169 75 169 168 0 93-76 168-169 168-93 0-169-75-169-168 0-93 76-168 169-168"/><g stroke="#201e1e"><g stroke-width="7.62"><path d="m15503 4013c93 0 169 75 169 168 0 93-76 168-169 168-93 0-169-75-169-168 0-93 76-168 169-168z"/><path d="m13753 6467c93 0 169 75 169 168 0 93-76 168-169 168-93 0-169-75-169-168 0-93 76-168 169-168z"/><path d="m18490 6017c93 0 169 75 169 168 0 93-76 168-169 168-93 0-169-75-169-168 0-93 76-168 169-168z"/><path d="m18895 7295c93 0 169 75 169 168 0 93-76 168-169 168-93 0-169-75-169-168 0-93 76-168 169-168z"/><path d="m14312 8832c93 0 169 75 169 168 0 93-76 168-169 168-93 0-169-75-169-168 0-93 76-168 169-168z"/><path d="m16674 8516c93 0 169 75 169 168 0 93-76 168-169 168-93 0-169-75-169-168 0-93 76-168 169-168z"/></g><g fill-rule="nonzero" stroke-linejoin="round" stroke-linecap="round" stroke-width="50"><path d="m13016 10680l89-31 29 82-71 25c-38 13-67 18-87 15-27-4-51-17-72-39l23-29c12 13 26 21 41 24 16 3 36 0 61-7l-14-40zm-46-131l89-31 29 82-71 25c-38 13-67 18-87 15-27-4-51-17-72-39l23-29c12 13 26 21 41 24 16 3 36 0 61-7l-14-40zm486-289l-633 199-27-85 391-486-496 156-26-80 633-199 27 85-391 486 496-156 26 80zm-419-536c-86 22-156 15-210-22-45-31-75-75-90-132-17-63-9-121 22-172 31-51 84-86 157-105 60-16 109-19 148-10 39 9 72 28 100 57 28 29 47 64 58 104 17 65 10 122-21 173-31 51-86 86-164 106zm-21-80c59-15 101-40 123-73 23-34 29-70 19-109-10-39-34-67-70-86-37-18-85-19-146-3-57 15-97 39-120 73-23 34-29 70-19 108 10 39 34 68 70 86 36 18 84 20 143 4zm-15-446l-29-76c31-11 52-28 65-51 13-24 15-53 8-90-7-37-20-62-39-77-18-15-38-20-58-16-18 4-31 14-38 32-5 13-8 41-11 87-3 61-7 104-14 128-6 25-18 45-34 60-17 15-36 25-59 30-21 4-41 3-61-3-20-6-37-16-52-30-12-11-23-26-33-46-11-20-18-42-23-66-7-37-9-70-4-100 5-30 15-53 31-70 16-17 38-31 68-42l27 75c-24 8-41 22-51 42-10 20-12 45-6 76 7 36 19 61 34 74 15 13 31 18 47 15 10-2 19-7 26-15 7-8 12-20 15-35 1-9 4-33 6-74 4-59 8-100 13-125 5-24 16-44 31-61 16-16 37-27 64-33 26-5 53-3 80 8 27 11 49 29 68 56 19 27 32 58 39 95 12 61 9 110-10 147-19 37-52 65-100 84zm-90-455l-27-77c31-10 53-27 67-50 13-23 17-53 10-89-6-37-19-63-37-78-18-15-37-21-58-17-18 3-31 14-39 31-5 12-9 41-13 86-4 61-10 103-17 128-7 24-19 44-36 59-17 15-37 25-60 29-21 4-41 2-61-4-20-7-37-17-52-31-11-11-22-26-32-47-10-20-17-43-22-67-7-37-7-70-1-100 6-30 17-53 33-69 16-16 39-30 69-40l25 76c-24 8-42 21-52 41-11 19-13 44-8 75 6 36 17 61 32 75 15 13 31 19 47 16 10-2 19-7 26-15 7-8 13-19 16-34 2-9 4-33 8-74 5-59 11-100 16-124 6-24 17-44 33-60 16-16 38-26 65-31 27-5 53-1 79 10 26 11 49 31 67 57 18 27 30 59 37 96 11 61 6 110-13 146-20 36-54 63-102 81zm-172-447c-88 12-157-3-206-45-41-36-66-83-74-141-9-65 5-121 41-168 37-47 93-76 168-87 61-9 110-6 148 7 38 13 69 36 93 68 24 32 39 69 45 110 9 66-4 123-41 169-37 47-95 76-176 87zm-12-82c61-9 105-28 131-59 26-31 37-66 31-106-6-40-26-71-60-93-34-22-82-29-145-20-59 8-101 28-128 59-26 31-37 66-31 106 6 40 25 71 59 94 34 22 81 29 142 20zm15-698l-20-78c32-7 55-22 71-44 15-22 21-52 18-88-3-37-14-64-30-80-17-16-35-24-56-22-18 2-32 11-41 28-6 12-13 40-20 85-9 60-19 102-27 126-9 24-22 42-41 56-18 14-39 21-62 24-21 2-42-1-61-9-19-8-35-20-49-35-10-12-20-28-28-49-8-21-14-44-16-69-3-37-1-70 7-100 8-29 21-51 38-66 17-15 41-27 72-34l18 78c-25 6-43 18-56 36-12 18-17 43-14 74 3 37 12 63 26 77 14 15 29 21 45 20 10-1 20-5 28-12 8-7 14-18 19-33 2-8 7-33 14-73 10-58 19-99 26-123 8-23 20-42 38-57 17-15 40-23 68-26 27-2 53 3 78 17 25 14 46 34 62 63 16 28 25 61 29 99 6 62-3 110-25 145-23 35-59 59-109 72zm-73-820l6-84c50 10 89 32 118 66 29 34 45 78 49 134 4 69-14 126-55 169-41 43-100 67-178 72-81 5-144-12-191-51-47-39-72-91-76-156-4-64 15-117 56-159 41-43 101-66 181-71 5 0 12-1 22-1l21 355c52-6 92-23 118-51 26-28 38-62 36-102-2-30-11-54-28-74-17-20-43-35-78-45zm-115 272l-15-265c-40 6-70 18-89 36-30 27-44 62-41 102 2 37 16 67 43 91 26 24 61 36 103 36zm258-467l-481-3v-73h68c-52-35-78-86-78-152 0-29 6-55 16-79 10-24 24-42 41-54 17-12 37-20 60-25 15-3 42-4 79-4l295 2v81l-292-2c-33 0-58 3-75 9-16 6-30 17-40 33-10 16-15 35-15 56 0 34 11 64 33 89 22 25 64 38 125 38l262 1v81zm-64-689l72-9c4 23 6 43 5 61-1 29-6 52-16 68-10 16-22 27-38 33-16 6-48 8-97 7l-277-8-2 60-63-2 2-60-119-4-46-82 168 5 2-81 63 2-2 81 282 8c23 1 38 0 45-3 7-3 12-7 16-13 4-6 6-15 7-27 0-9 0-21-2-35zm-495-99l-93-3 3-81 93 3-3 81zm571 21l-481-18 3-81 481 18-3 81zm0-205l-477-60 9-72 67 9c-21-18-38-40-49-66-11-26-15-55-11-87 4-35 16-63 33-83 18-21 40-34 68-40-51-45-72-97-65-157 6-47 24-82 53-104 29-22 71-30 126-23l327 41-10 80-300-38c-32-4-56-4-71-1-15 3-27 11-38 24-10 13-17 28-19 47-4 33 3 63 23 87 20 25 54 40 103 47l277 35-10 80-310-39c-36-5-64-1-83 9-20 11-31 31-35 61-3 23 0 44 10 65 10 21 25 37 47 48 22 11 55 20 98 25l247 31-10 80zm34-1110l30-79c45 24 76 56 94 97 18 41 21 88 8 142-16 68-50 117-101 147-51 30-115 36-191 18-79-18-135-52-169-103-34-50-43-107-28-171 15-62 48-108 100-137 52-29 116-35 194-17 5 1 12 3 21 5l-82 346c52 9 95 4 128-16 33-20 55-49 64-87 7-29 5-55-6-79-11-24-31-46-62-66zm-188 228l61-259c-40-6-72-3-96 9-36 18-59 47-69 87-9 36-3 69 15 100 19 30 48 51 88 63zm393-372l-438-197 30-66 62 28c-33-53-36-110-9-170 12-26 28-48 47-66 19-18 39-29 60-33 20-4 42-3 65 2 15 4 40 13 74 28l269 121-34 74-266-120c-30-14-54-21-72-22-18-1-34 4-50 14-16 11-28 26-37 45-14 31-17 63-7 95 10 32 43 60 99 85l239 107-34 74zm270-642l66 31c-9 21-18 40-28 54-16 24-33 41-50 49-17 8-33 11-50 8-16-3-45-18-85-45l-230-154-34 50-52-35 34-50-99-66 5-94 139 93 46-67 52 35-46 67 234 156c19 13 33 20 40 21 7 1 14 0 21-3 7-3 14-10 20-20 5-7 11-18 17-31zm-67-197c-55-69-76-136-64-200 10-53 39-98 86-134 52-41 108-57 167-49 60 8 113 42 160 101 38 48 61 92 68 131 7 39 3 77-13 114-16 37-40 68-73 94-53 41-109 58-168 50-59-8-114-44-164-107zm66-51c38 48 77 76 117 83 40 7 76-2 108-27 32-25 49-57 51-98 2-40-16-85-55-134-37-46-75-73-115-80-40-7-76 2-108 26-32 25-49 58-52 98-2 40 16 84 54 132zm803-134l-64-410-71 11-10-62 71-11-8-50c-5-32-6-56-3-72 5-22 15-41 33-57 17-16 44-26 79-32 23-4 48-5 77-4l-1 72c-17 0-33 1-48 3-24 4-41 12-49 23-8 12-10 32-6 60l7 43 93-14 10 62-92 14 64 410-81 12zm210-270c2-88 27-153 78-195 42-35 93-51 152-50 66 1 120 23 161 67 41 43 61 103 60 179-1 61-11 109-30 144-19 35-47 62-82 80-36 19-75 28-116 27-67-1-121-23-162-67-41-43-60-105-59-186zm83 2c-1 61 12 107 38 138 27 31 60 47 101 47 40 1 74-14 102-44 27-30 42-76 43-139 1-59-12-104-38-134-27-31-60-47-100-47-41-1-75 14-103 44-27 30-42 75-43 136zm508-304l8-92 81 7-8 92-81-7zm-50 564l42-476 81 7-42 475-81-7zm778 96c-36 16-69 26-99 28-30 3-60-1-91-9-51-14-86-38-107-70-20-32-25-67-14-106 6-22 18-41 33-57 16-16 33-27 53-33 20-6 41-10 64-10 17 0 41 3 73 8 65 11 115 15 148 13 3-11 5-17 6-20 9-32 8-56-3-73-15-23-42-40-82-52-37-10-66-12-87-4-21 8-41 27-59 57l-74-32c16-31 35-54 57-69 22-16 49-24 83-27 33-2 70 2 110 14 40 11 70 25 93 41 22 16 37 33 45 50 8 17 11 37 9 60-1 14-7 38-17 73l-30 103c-21 72-32 118-34 138-2 20-1 40 3 61l-82-23c-3-19-3-39 1-62zm43-174c-32 3-77 1-137-7-34-5-58-6-73-4-15 2-28 7-38 16-10 9-18 20-22 34-6 21-3 40 9 58 12 18 33 32 64 40 30 9 59 10 86 3 27-6 50-19 67-39 14-15 25-40 35-74l9-28zm131 290l208-625 77 25-208 625-77-25zm559 52l73 43c-31 40-69 65-112 76-44 11-91 5-142-16-65-27-107-69-128-124-21-55-16-119 14-190 32-74 75-123 131-147 56-25 114-24 175 2 59 25 99 65 119 121 20 56 15 120-16 192-2 4-5 11-9 20l-330-139c-18 49-20 92-6 128 14 36 39 62 76 77 27 12 54 14 79 8 26-6 51-23 76-50zm-195-223l247 104c13-38 15-70 7-95-11-39-36-66-74-82-34-15-68-15-101-2-33 13-59 38-78 76zm162-205l104-93 99 42-141 78-62-26zm150 635l253-406 62 38-36 57c25-12 52-18 81-17 29 1 57 10 84 26 30 19 51 40 63 64 12 24 14 50 8 77 62-27 119-25 171 7 41 25 65 55 73 91 8 36-2 77-31 123l-173 279-69-43 159-256c17-27 27-49 30-64 3-15 1-30-6-44-7-15-19-27-35-37-29-18-59-23-90-16-31 7-59 32-85 74l-147 236-69-43 164-264c19-31 28-57 26-79-2-22-16-41-41-57-19-12-41-18-64-18-23 0-44 8-64 23-20 15-41 41-64 78l-131 211-69-43zm1098 758l39-47c-54 17-103 7-149-31-29-24-50-55-61-91-11-36-12-75-1-115 11-40 32-79 63-116 31-37 64-65 102-84 37-20 75-27 113-23 38 4 72 19 102 44 22 18 38 39 48 63 10 24 13 48 12 72l152-182 63 52-424 507-58-48zm-45-346c-39 47-59 90-58 130 1 40 15 71 42 93 27 23 60 31 98 24 38-6 76-32 114-78 42-50 63-95 63-134 0-40-14-71-43-95-28-23-61-31-98-24-38 7-77 35-117 83zm540 615l48 70c-45 23-90 30-134 21-44-9-85-33-122-75-47-52-68-107-63-166 5-59 36-114 94-166 60-53 121-80 181-79 61 1 114 26 158 75 43 47 62 100 56 159-5 59-38 115-97 167-4 3-9 8-16 14l-239-265c-37 37-57 75-60 113-3 38 9 72 36 102 20 22 43 36 69 41 26 5 56 1 90-13zm-81-284l179 198c28-29 43-57 47-83 6-40-5-75-32-106-25-28-55-42-91-45-36-2-70 10-103 36zm268 1075l199-127c-22-1-44-8-66-21-22-13-40-30-54-51-31-48-38-101-22-160 16-59 57-109 124-152 41-26 81-42 123-49 41-6 79-2 112 14 34 16 61 40 82 72 32 50 36 102 13 157l54-35 40 61-560 357-44-68zm223-438c-52 33-84 69-96 107-12 38-8 72 11 103 19 29 47 46 86 51 38 5 83-8 133-41 54-34 87-71 100-110 13-39 10-74-10-104-19-30-48-47-86-51-38-4-85 10-138 44zm201 785l62-36c-66-5-115-35-147-90-14-24-23-50-26-76-3-27 0-49 8-67 8-18 21-36 40-52 12-11 33-25 63-42l257-149 41 70-230 133c-37 21-61 37-72 47-16 15-25 33-27 53-2 20 3 41 15 62 12 21 29 37 51 49 22 12 44 16 67 13 23-3 52-15 88-35l222-129 41 70-416 240-37-63zm264 444c-36-17-64-36-85-57-21-21-38-46-51-75-21-48-26-90-14-126 12-36 36-62 73-78 21-9 43-13 65-11 22 2 42 9 60 19 18 11 34 25 48 42 10 13 24 33 41 61 34 57 62 97 85 121 10-4 17-7 20-8 30-13 48-30 55-49 8-26 4-58-13-95-16-35-33-58-53-69-20-11-47-14-82-8l-22-77c34-7 64-7 90-1 26 7 50 22 74 46 23 24 43 55 60 92 17 37 26 70 27 97 2 27-2 49-10 66-9 17-22 32-41 46-12 8-34 19-67 34l-99 44c-69 30-112 51-129 62-17 11-32 25-45 41l-35-77c12-14 29-27 49-39zm163-79c-23-22-50-58-82-109-18-29-33-48-44-58-11-10-24-16-37-19-14-2-27-1-40 5-20 9-33 23-39 44-6 21-3 46 10 74 13 28 30 51 53 68 22 17 47 26 73 26 20 1 47-6 79-21l27-12zm-152 290l634-194 24 77-634 194-24-77zm-40 534l229-55c-20-8-39-22-55-41-17-19-28-41-34-66-13-55-3-108 32-158 34-50 90-85 167-103 47-11 91-13 132-6 41 7 75 24 102 50 27 26 45 57 54 94 14 57 1 108-40 153l63-15 17 71-647 156-19-79zm355-342c-60 14-102 38-126 70-24 32-32 66-23 101 8 34 29 59 64 76 35 17 81 19 139 5 62-15 106-39 131-72 25-33 33-67 25-101-8-34-30-60-65-76-35-17-83-18-145-3zm-75 808l70-13c-60-27-96-71-108-134-5-28-5-54 1-80 6-26 16-46 30-61 14-15 32-26 55-35 15-6 40-12 74-19l293-54 15 80-262 48c-42 8-70 15-84 20-20 9-35 22-44 41-9 18-11 39-7 63 4 24 15 45 31 64 16 19 36 30 59 35 23 5 54 3 95-4l253-47 15 80-473 88-13-71zm205 511l-4 84c-50-9-90-30-120-64-30-33-47-77-51-133-6-69 12-126 51-170 40-44 99-69 176-75 80-6 145 9 192 47 48 38 74 89 80 155 5 63-12 117-53 161-40 44-100 69-179 75-5 0-12 1-22 1l-29-354c-52 7-91 25-117 54-26 29-37 63-34 103 2 29 12 54 30 74 17 20 44 34 79 44zm109-274l21 265c40-7 69-19 88-38 29-28 42-63 39-103-3-37-18-67-45-90-27-23-62-34-104-34zm-259 472l481-10 2 73-74 2c35 18 57 34 69 50 11 16 17 33 18 52 1 27-7 55-24 84l-76-27c11-20 16-40 15-59 0-18-6-33-17-47-11-14-26-23-45-29-29-8-61-12-95-11l-251 5-2-81zm153 882l-15 79c-54-11-96-35-126-72-29-37-43-82-41-134 3-65 27-117 71-154 45-38 107-55 187-51 52 2 97 13 135 32 38 19 66 46 84 82 18 36 26 74 24 115-2 52-17 93-45 125-28 32-66 51-115 58l-9-79c33-6 57-18 75-37 17-18 26-41 28-68 2-41-11-74-40-101-28-27-74-41-138-44-65-3-112 7-142 31-30 23-46 55-48 94-1 32 7 59 26 81 18 22 48 37 88 44z"/><path d="m19290 9579c-23-32-39-62-48-91-8-28-11-59-9-90 4-52 20-91 48-118 28-26 62-38 102-35 23 2 44 9 63 21 19 12 33 27 43 45 10 18 18 38 22 60 3 16 5 41 7 73 3 66 8 115 17 146 11 1 18 2 21 2 33 3 57-3 72-18 20-19 31-49 35-90 3-38-2-67-14-86-12-19-35-34-68-46l17-78c33 10 60 24 80 42 20 18 34 43 43 75 9 32 12 69 8 110-3 41-11 73-22 98-12 25-25 42-41 53-16 11-35 18-57 21-14 2-39 1-75-2l-108-8c-75-6-123-8-143-6-20 2-40 7-59 15l7-84c18-7 38-10 61-11zm181 8c-10-30-16-75-20-134-2-34-6-58-11-72-5-14-13-25-24-34-11-8-23-13-38-14-21-2-40 5-56 20-16 15-25 39-27 70-2 31 2 59 14 85 12 25 29 45 52 58 18 10 44 16 80 19l30 3zm-257 186l480 34-5 72-74-5c33 21 54 40 64 56 10 17 14 34 13 53-2 27-13 54-32 81l-73-34c13-19 19-38 21-58 1-18-3-34-13-48-10-15-24-26-42-33-28-11-59-18-94-20l-251-18 6-81zm-22 306l479 42-7 72-68-6c49 39 71 92 65 158-3 29-10 54-23 78-12 23-28 40-46 50-18 10-39 17-62 20-15 2-42 1-79-3l-294-26 7-81 291 26c33 3 58 2 75-3 17-5 31-15 42-30 11-15 18-33 20-55 3-34-5-65-25-91-20-27-60-43-121-48l-261-23 7-81zm-15 825c-23-32-38-63-46-91-8-29-10-59-8-90 5-52 21-91 50-117 28-26 62-37 102-33 23 2 44 9 63 22 18 12 32 28 43 46 10 18 17 38 21 60 3 16 4 41 5 73 2 66 6 115 14 146 11 1 18 2 21 2 33 3 57-2 72-16 20-19 32-49 36-89 4-38-1-67-12-86-12-19-34-35-67-47l18-78c33 10 60 25 79 43 19 18 33 44 42 76 8 32 11 69 7 110-4 41-12 73-24 98-12 24-26 42-42 53-16 11-35 17-58 20-14 1-39 0-75-3l-108-10c-75-7-123-10-143-8-20 1-40 6-60 14l8-84c18-7 38-10 61-10zm181 10c-9-30-15-75-18-135-2-34-5-58-10-72-5-14-12-26-23-34-11-9-23-14-37-15-21-2-40 4-56 19-16 15-25 38-28 69-3 31 1 59 13 85 11 25 28 45 51 58 17 10 44 17 80 20l29 3zm-272 313l496-133-8 86-297 74c-32 8-65 15-99 21 25 10 54 22 88 39l282 134-8 83-461-226 8-78zm-2 644c-23-32-38-63-46-92-8-29-10-59-7-90 5-52 22-91 50-117 28-26 62-37 102-33 23 2 44 10 63 22 18 13 32 28 42 46 10 18 17 38 21 61 3 16 4 41 5 73 1 66 6 115 14 146 11 1 18 2 21 2 33 3 57-2 72-16 20-19 32-49 36-89 4-38 0-67-12-86-12-19-34-35-67-47l19-78c33 10 60 25 79 43 19 18 33 44 41 76 8 32 10 69 6 110-4 41-12 73-24 98-12 24-26 42-42 53-16 11-35 17-58 20-14 1-39 0-75-3l-108-10c-75-7-123-10-143-9-20 1-40 6-60 14l8-84c18-6 38-10 61-10zm181 11c-9-30-15-75-18-135-2-34-5-58-9-72-5-14-12-26-23-34-11-9-23-14-37-15-21-2-40 4-56 19-16 15-25 38-28 69-3 31 1 59 12 85 11 25 28 45 50 59 17 10 44 17 79 21l29 3zm-260 180l661 64-8 81-661-64 8-81zm554 239l94 9-8 86-75-7c-40-4-68-11-85-22-23-15-39-37-49-66l34-16c5 17 14 30 28 39 13 9 32 16 57 19l4-42zm-14 138l94 9-8 86-75-7c-40-4-68-11-85-22-23-15-39-37-49-66l34-16c5 17 14 30 28 39 13 9 32 16 57 19l4-42z"/></g></g></g><g stroke="#201e1e"><path d="m14247 11027c-212 47-360 204-367 421-4 138 60 263 169 352 59 49 122 71 199 68 81-3 236-15 241-122 6-116-188-164-274-167-114-4-196 78-261 176-52 80-94 163-131 251-30 72-52 117-46 194 26 102 70 193 126 269 131 176 241 209 423 179" fill="none" stroke-width="100"/><path d="m15869 10683c93 0 169 75 169 168 0 93-76 168-169 168-93 0-169-75-169-168 0-93 76-168 169-168z" fill="#201e1e" stroke-width="7.62"/><path d="m18386 10358c-212 47-360 204-367 421-4 138 60 263 169 352 59 49 122 71 199 68 81-3 236-15 241-122 6-116-188-164-274-167-114-4-196 78-261 176-52 80-94 163-131 251-30 72-52 117-46 194 26 102 70 193 126 269 131 176 241 209 423 179" fill="none" stroke-width="100"/><g stroke-linejoin="round" stroke-linecap="round"><g stroke-width="100"><g fill="none"><path d="m17782 13901c6-225-69-312-261-447-98-4-196-7-294-11-73 20-146 40-219 60 41 35 83 71 124 106 228 73 445 169 649 292z"/><path d="m17915 13948c-46-5-89 2-107 56-38 117 37 172 155 173 43 0 66-28 79-51 37-62-26-167-128-178z"/><path d="m15625 14604c224-43 451-71 664-100 290-40 583-35 875-28"/><path d="m15625 14822c243-62 482-111 724-136 257-27 559-19 817-19"/><path d="m15656 15047c241-50 486-107 724-136 273-32 541-29 816-31"/><path d="m17082 14267c144 2 226 19 288 65 62 46 104 121 169 237 24 64 49 128 73 192 57 160 112 320 27 485-115 222-306 237-522 265-404 24-825 20-1229 44-112 1-203-2-287-25-78-21-142-55-191-101-63-59-102-139-112-241 3-110 6-219 9-329 24-83 49-165 73-248 34-62 77-107 125-142 96-69 208-109 326-134 139-30 280-45 422-55 277-19 552-18 830-14z"/><path d="m14749 15249c7-133-8-261 80-372 79-99 180-91 244 20 62 108 52 217 54 337 2 93 20 147-59 211-29 23-62 33-123 31-63-2-108-17-145-49-68-57-55-96-51-177z"/><path d="m15127 15138c-5-121-16-198-73-268-66-81-169-75-240 18-44 57-53 139-61 244 125 6 249 8 374 6z"/><path d="m14547 15739c1-177-10-382 9-579 24-245 95-479 295-631 194-148 412-222 667-298 328-98 668-156 1041-165 287-2 553 27 804 100 143 41 282 97 418 168 135 71 229 159 311 262 208 261 283 537 350 852 4 13 9 25 13 38m-1227 390c-645 74-1310 37-1959 40-70 0-130-5-188-14-83-13-167-34-250-57-83-23-145-41-205-68-84-38-107-71-145-69-51 2-82 29-103 65-43 72-49 120-30 169 16 39 38 69 66 93 53 47 110 75 170 93 100 30 209 33 320 47 222 14 443 34 666 29 665-31 1522 40 2185-125 232-58 447-170 656-230 93-30 278-59 303-175 5-24 2-54-9-93-12-44-32-89-77-105-44-15-134 2-247 35-399 117-738 318-1154 366z"/><path d="m17264 12459c-82 85-153 167-273 200-51 14-105 16-185 13-174-23-261-52-397-158 20-74 51-140 93-198 32-45 69-84 111-117 53-42 109-74 167-95 92-33 186-45 282-34 80 12 159 31 234 78-18 106-28 205-32 311z"/><path d="m17873 15714l634-241"/><path d="m15571 16203c-222-10-444-19-666-29 2 143-46 451 82 556 123 101 425 130 533-8 97-123 53-376 51-519z"/><path d="m17865 16581c60 24 130 19 262-15 79-20 176-41 237-95 32-28 53-66 56-117 3-49-14-115-37-185-35-102-83-208-105-278-197 82-402 142-606 205 7 200-20 400 193 484z"/><path d="m17784 14329c40-51 65-116 96-164-309-153-530-223-874-282-171-30-334-43-495-40-635 9-1226 303-1669 560 1 43 2 79 3 122 208-120 426-214 650-288 337-112 668-142 1009-164 257-16 499 7 735 64 184 44 364 109 546 192z"/><path d="m14919 14277c-1 49-15 104-78 121 0 3 1 7 1 10 314-178 741-396 1157-502 159-41 318-65 508-65 440 1 852 97 1251 269 17 7 34 15 51 22-2-4-3-8-5-12-209-196-359-261-646-330-193-47-390-74-597-80-632-17-1197 333-1642 568z"/><path d="m14858 14204c150-127 364-257 574-364"/><path d="m14753 14375c-15-15-27-32-30-56-5-30 16-60 45-82 29-21 66-35 93-30 72 11 103 120 44 165-22 16-51 26-83 26-28 0-54-8-70-23z"/><path d="m17570 12817c-123-72-239-179-306-358 8-104 16-209 24-313 78 44 148 99 198 179 57 81 90 164 98 249 13 88 3 167-14 243z"/><path d="m15032 14083l4-342 323-166 408-94 168 3"/><path d="m15032 14074c1-114 3-218 4-332 134-69 262-122 391-161 264-81 529-107 843-108 267-2 508 38 748 103 296 80 579 209 839 371-41 17-57 75-72 134-106-79-203-142-306-191-191-89-456-147-665-166-125-12-252-13-379-13-69-62-137-125-206-187-415 129-827 300-1195 551z"/></g><g fill="#fefefe"><path d="m16338 13393c98-48 197-94 297-140 42-19 84-38 126-57 107 133 214 266 321 398-56 27-112 54-167 82-86 44-172 89-261 131-204 97-240 64-403-92-82-78-163-156-245-234-361 16-653 98-970 261 20-111 65-158 136-247 38-48 76-95 115-142 88 11 154 13 242-2 86-14 167-41 226-114 146 40 288 90 428 145 75 30 84 45 156 10z"/><path d="m16635 13253c42-19 84-38 126-57 107 133 214 266 321 398-56 27-111 54-167 82-90-145-181-284-280-423z"/></g><g fill="none"><path d="m17361 17648c-50-100-101-200-151-300-83-167-57-189-198-73-56 46-118 84-178 126-115 82-107 66-41 190 53 99 108 196 168 280 78 108 86 112 213 68 50-17 94-38 130-61 119-78 111-121 57-229z"/><path d="m16252 17411c101-73 203-147 304-220 131-95 139-72 36-199-46-56-92-113-138-169-90-111-71-109-173-9-100 99-201 198-302 297-92 91-93 74-13 176 28 35 55 70 83 105 96 122 77 110 202 19z"/><path d="m17614 16707c18 10 37 19 55 29 94 49 188 98 282 147 105 55 104 39 60 149-14 35-28 69-42 105-43 107-38 84-150 66-123-20-249-31-371-53-58-10-88-30-104-59-45-81-3-175 51-262 52-82 66-123 107-133 24-6 57-2 113 11z"/><path d="m17450 12086c45 2 76 6 102 15 57 20 94 47 117 85 75 124 124 252 192 371 81 140 171 224 277 280 188 99 458 145 630 149-11 81-16 153-16 224-1 207-13 414 13 620 11 87 14 158 1 223-29 152-127 244-247 306-60 31-125 56-190 77-130 43-155 53-238 160-84-113-189-200-308-267 26-57 53-114 79-171 71 34 133 32 179-32 23-64 4-116-62-156-84-11-156-29-198-69 5-227-73-315-261-447-165-10-331-20-496-30-23-56-46-112-69-168 142 6 275-30 397-120 136-91 207-239 235-427 11-141-24-268-103-383-15-19-29-38-44-56 3-61 5-122 8-183z"/><path d="m16571 15301c25-83 4-156-13-239-40 4-80 9-120 13-3 86 2 150 19 234 38-3 76-6 114-9z"/><path d="m15283 13213c140 30 278 2 416-65 19 30 37 60 56 89-64 61-119 82-205 106-87 23-174 18-262 9-1-46-2-93-3-139z"/><path d="m17448 12196c3-123 21-206-44-313-61-100-128-120-237-96 107 108 95 190 89 339 5 17 10 34 15 51 36-8 72-16 107-24 15 11 31 22 46 34 13 9 40 39 24 8z"/><path d="m16745 12024c15-100 16-199 123-251 69-33 140-7 209 13-107 85-115 114-129 253-30 20-60 40-91 60-18-24-37-47-55-71-19-2-38-3-57-5z"/><path d="m15396 11939c357 0 646 287 646 641 0 354-289 641-646 641-218 0-410-107-527-270-1-1-1-3-2-3-170 15-199-73-76-142 2-1-1-3-2-5-26-69-40-144-40-221 0-354 289-641 646-641z"/></g></g><g fill="none"><path d="m14978 12843c52 54 101 101 151 139 85 63 176 100 305 98 114-2 203-28 277-79 77-52 146-129 202-228" stroke-width="75"/><g stroke-width="100"><path d="m16532 12890c73 95 138 153 253 202 51 22 106 34 177 32 88-3 145-21 198-54 58-36 94-70 123-110 27-38 48-81 74-136"/><path d="m15057 13665c-58 69-116 139-174 208-61-53-122-107-182-160 102-96 220-209 322-304 41 41 64 100 105 141-23 38-47 77-70 115z"/><path d="m15033 13970c-50-32-100-64-150-96 52-62 103-124 155-185-2 94-3 187-5 281z"/><path d="m14792 13794c91-102 183-204 274-305-20-21-24-58-44-79-102 96-220 209-322 304 30 27 61 53 91 80z"/><path d="m15191 13189c-48 42-76 63-97 102-53 97-37 187 34 259 53-66 106-132 159-199-1-46-2-93-3-139-31-8-62-16-93-23z"/><path d="m14813 13608c-50-90-100-150-84-257 6-37 16-76 55-112 43-40 84-62 126-71 40-9 87-7 133-1-7 28-12 61-9 90 3 31 12 60 38 86-17 47-10 91 6 137-18-8-52-30-73-54-64 61-128 121-193 182z"/><path d="m15064 13132c-31 41-28 63-31 115 5 50 4 61 39 96 25-80 54-98 118-154-42-19-84-38-126-58z"/><path d="m17255 12127c9-117 19-215-65-312-26-30-40-46-58-47-34-3-77 32-100 55-72 72-71 120-85 217 91 2 87 7 121 92 98-58 98-74 186-5z"/></g></g><g stroke-width="100"><path d="m14903 12223c8 92 23 180 62 247-30-3-60-6-90-9 12 46 18 97 17 158-23-23-49-41-77-53 5 51 17 115 7 163-3 13-8 25-17 35-22 23-59 54-95 73-54-157-73-284-52-396 32-168 91-250 219-350 25-138 42-189 145-253-7 51-16 71 5 117 40-13 66-37 87-61 20-24 76-2 102-18 54-51 103-117 180-143-24 50-27 97-11 141 50-45 132-83 180-87 18 38 18 55 52 79 73 15 147 30 220 45-44 4-83 13-113 36 68 53 118 118 157 190-57-34-117-61-178-83 18 58 26 116 28 175-50-48-105-91-170-124 4 34-1 69-11 104-33-54-78-94-133-124 1 47 3 94 4 141-138-144-149-198-348-193 53 38 87 97 115 164-54-38-114-61-180-69-35 32-71 64-106 96z" fill="#201e1e"/><ellipse cx="16991" cy="12662" rx="600" ry="595" fill="none"/><g fill="#fefefe"><ellipse cx="16973" cy="12132" rx="96" ry="95"/><ellipse cx="17174" cy="12178" rx="96" ry="95"/><path d="m17092 15448c-53-91-65-76-172-81-310 36-620 72-929 109-32 28-41 68-39 113 46 111 92 222 139 333 30 73 22 70 101 64 255-18 510-37 765-55 99-7 162 9 183-108 4-25 2-52-5-98-14-92-28-185-43-277z"/></g><g fill="none"><path d="m17047 15730c-3-35-7-70-11-105-18-84 3-170-92-161-256 24-512 48-767 73-120 11-99 10-91 129 16 46 31 92 47 138 54 85 42 97 142 86 223-24 449-36 668-83 84-18 110 3 104-77z"/><path d="m16781 12530c166-35 249-147 366-260-33-9-63-44-77-79-33 17-58 34-97 37-44-4-77-23-92-66-37 24-75 45-118 50-44-2-71-24-90-55-91 63-172 139-224 248-14 37-27 74-40 110 148 30 201 51 371 15z"/></g><path d="m17027 13297c21-5 154-54 118-88-15-14-34-22-54-25-85-11-202 64-258 100 83 103 166 206 249 309 114-13 229-29 342-39 71-7 50-62-2-60-68 2-135 5-203 7 82-7 165-14 247-21 98-8 59-89-21-81-88 8-142 9-230 18 92-15 149-22 241-37 81-13 51-86-30-72-57 10-114 20-171 30-32 5-31 3-63 9 87-20 141-33 228-53 89-21 43-102-23-85-128 34-214 60-342 94-10-2-19-4-29-6z" fill="#fefefe"/></g><g fill="#201e1e" stroke-width="75"><ellipse transform="matrix(.74062-.21658.21825.73494 15341.7 12645.8)" rx="74" ry="99"/><ellipse transform="matrix(.7494-.18448.1859.74365 15766.7 12573.3)" rx="74" ry="99"/><ellipse cx="17137" cy="12764" rx="46" ry="52"/><ellipse cx="16678" cy="12753" rx="46" ry="52"/></g><g stroke-width="100"><g fill="none"><path d="m16584 15688c-31 106-60 169-108 234-64 88-167 171-144 294 25 136 250 218 293 383 34 131-15 210-67 327"/><path d="m16911 17292c-20-38-40-77-60-115 3-48 6-97 9-145 33-183 102-392-5-563-87-140-216-248-257-416-28-117-20-217-14-366"/><path d="m17359 16878c-69-62-114-136-153-214-62-126-107-264-204-379-246-205-298-299-417-597"/><path d="m16096 17177l-70-112"/><path d="m16225 17107l-113-127"/><path d="m16300 17054l-116-145"/><path d="m17094 17557l149-144"/><path d="m17182 17663l130-112"/><path d="m17257 17744l112-81"/><path d="m17670 16900l28-149"/><path d="m17768 16971l36-165"/><path d="m17865 17020l62-149"/><path d="m17482 17055c40-78 64-155 95-248 14-58 50-96-33-112-63-12-69 5-124 92-37 57-67 112-88 175-6 38-6 70 2 108 9 29 25 49 55 62 66 14 65-20 94-77z"/><path d="m16772 17538c67-26 123-53 177-84 84-48 157-103 231-166-60-119-48-99-155-23-67 48-134 95-202 143-81 57-104 45-51 130z"/><path d="m16416 16987c25 35 52 69 81 103 62 73 61 106 141 40 47-39 24-50-45-135-55-68-110-135-165-203-45-55-51-69-77-47-51 44-43 50-15 108 22 47 49 90 80 134z"/></g><g fill="#fefefe"><path d="m17377 12154c71 0 109 95 75 155-14 24-45 36-75 36-53 0-96-43-96-95 0-53 25-95 96-95z"/><path d="m16763 12020c46-4 96 43 96 95 0 53-43 95-96 95-53 0-104-47-96-95 8-48 50-91 96-95z"/><path d="m16449 13340c-61-118-110-213-171-331 28-11 163-107 151-133-30-61-103-32-151-19-2 0-3-1-2-3 31-78 45-130 44-195 0-50 0-93-41-105-30-9-45 45-52 103-7 54-6 103-7 116-1 2-4 2-5-2-8-38-19-73-31-109-10-30-15-47-24-59-38-48-61-32-64 21-3 56 18 111 30 170 0 1-1 1-1 1-18-21-37-45-55-66-23-28-33-53-49-61-24-11-40-9-49 0-24 24-5 68 22 111 24 38 59 75 73 94 1 1-1 2-2 2-28-9-56-18-83-26-37-10-50-23-63 2-44 87 226 169 271 188 9 119 17 238 26 358 14 5 29 10 43 15 73 3 128-42 189-72z"/></g><g fill="none"><path d="m17810 15215c-3-133-27-260 53-377 71-105 173-104 245 2 70 103 68 213 79 332 9 93 31 146-43 214-27 25-60 37-120 40-63 3-109-10-148-38-72-52-62-92-64-173z"/><path d="m18178 15077c-14-120-30-196-92-262-72-76-174-62-238 35-40 60-42 143-43 248 126-3 248-10 374-21z"/></g></g></g><g fill="#201e1e"><g stroke-width="25"><g font-family="&apos;Monotype Corsiva&apos;" font-style="italic" font-size="1602.27"><text x="10500" y="14850" transform="matrix(.83268 0 0 .93113 5532.5 6887.55)">Texto 01</text><text x="10500" y="14850" transform="matrix(.94373 0 0 .93113 4170.35 8620.92)">Texto 02</text></g><path d="m16354 21400l18 23c-88 83-164 125-228 125-26 0-45-9-59-26-14-17-20-45-20-82 0-76 24-152 71-227 53-86 116-129 189-129 26 0 45 6 59 19 14 13 20 30 20 52 0 23-8 46-24 68-16 22-45 46-87 70-21 12-66 33-135 64-3 19-5 37-5 55 0 25 4 43 12 53 8 10 20 15 36 15 15 0 31-4 49-12 24-11 59-34 105-68zm-190-77c58-26 102-53 131-83 20-21 30-41 30-61 0-15-4-27-12-37-8-9-19-14-32-14-13 0-26 5-39 15-17 13-31 33-43 60-17 39-29 79-35 119z" fill-rule="nonzero"/></g><text x="10500" y="14850" font-family="&apos;Arial&apos;" stroke-width="50" font-size="641.82" transform="matrix(.95594 0 0 .93113 4832.51 9775.83)">00.00.0000</text></g></g><g fill="#201e1e" font-family="&apos;Arial Black&apos;" font-weight="900" font-size="529.17"><text x="10500" y="14850" transform="matrix(.93832 0 0 .93113 5855.82 4912.92)">NN 1</text><text x="10500" y="14850" transform="matrix(.93832 0 0 .93113 5861.4 5368.19)">NN 2</text></g></g></g><g fill="#373435" font-family="&apos;Arial&apos;" font-size="423.33"><text x="1260" y="28030">DESC 1</text><text x="1253" y="28538">DESC 2</text><text x="1242" y="29028">DESC 3</text></g></svg>