<svg xmlns="http://www.w3.org/2000/svg" width="744.09" height="1052.36" viewBox="0 0 21000 29700" shape-rendering="geometricPrecision" image-rendering="optimizeQuality" fill-rule="evenodd" clip-rule="evenodd" xmlns:xlink="http://www.w3.org/1999/xlink"><defs><clipPath id="1"><path d="m7042 506c-2536-75-6598 2192-6607 7595-2 1444 511 6248 633 8154 146 2286 254 5540 299 7856 20 2004 444 3165 1258 3634 1083 412 2207 533 3391 232 1225-342 1833-1407 1851-3561-46-2781-355-7596 125-10125 621-3273 1406-3702 1709-7645 182-2372 116-6060-2658-6141z"/></clipPath><clipPath id="2"><path d="m13929 506c2536-75 6598 2192 6607 7595 2 1444-511 6248-633 8154-146 2286-254 5540-299 7856-20 2004-444 3165-1258 3634-1083 412-2207 533-3391 232-1225-342-1833-1407-1851-3561 46-2781 355-7596-125-10125-621-3273-1406-3702-1709-7645-182-2372-116-6060 2658-6141z"/></clipPath></defs><text x="10081" y="23989" fill="#201e1e" font-family="&apos;Arial Black&apos;" stroke="#201e1e" font-weight="900" stroke-width="7.62" font-size="705.56">44</text><g fill="none" stroke="#373435" stroke-width="80"><circle cx="10533" cy="849" r="460"/><path d="m10533 39v1621"/><path d="m9723 849h1621"/><circle cx="10533" cy="25360" r="460"/><path d="m10533 24550v1621"/><path d="m9723 25360h1621"/></g><rect x="9843" y="22866" width="1347" height="637" rx="318" fill="#fff" stroke="#fff" stroke-width="20" id="0"/><use xlink:href="#0"/><g clip-path="url(#1)"><g><g stroke="#201e1e"><g fill="none" stroke-width="100"><path d="m6127 2816c-249 60-421 261-430 538-5 176 70 336 198 450 69 62 143 90 233 87 95-3 276-19 283-156 7-148-221-209-321-213-134-6-230 99-306 226-61 102-110 209-153 320-35 92-61 150-54 248 30 131 82 247 148 343 153 224 283 267 496 228"/><path d="m4175 4128c-249 60-421 261-430 538-5 176 70 336 198 450 69 62 143 90 233 87 95-3 276-19 283-156 7-148-221-209-321-213-134-6-230 99-306 226-61 102-110 209-153 320-35 92-61 150-54 248 30 131 82 247 148 343 153 224 283 267 496 228"/><path d="m5115 6846c-249 60-421 261-430 538-5 176 70 336 198 450 69 62 143 90 233 87 95-3 276-19 283-156 7-148-221-209-321-213-134-6-230 99-306 226-61 102-110 209-153 320-35 92-61 150-54 248 30 131 82 247 148 343 153 224 283 267 496 228"/><path d="m2236 7977c-249 60-421 261-430 538-5 176 70 336 198 450 69 62 143 90 233 87 95-3 276-19 283-156 7-148-221-209-321-213-134-6-230 99-306 226-61 102-110 209-153 320-35 92-61 150-54 248 30 131 82 247 148 343 153 224 283 267 496 228"/></g><g fill="#201e1e" stroke-width="7.62"><path d="m7065 5596c109 0 198 96 198 214 0 118-89 214-198 214-109 0-198-96-198-214 0-118 89-214 198-214z"/><path d="m2631 5012c109 0 198 96 198 214 0 118-89 214-198 214-109 0-198-96-198-214 0-118 89-214 198-214z"/><path d="m3647 8207c109 0 198 96 198 214 0 118-89 214-198 214-109 0-198-96-198-214 0-118 89-214 198-214z"/><path d="m6414 8606c109 0 198 96 198 214 0 118-89 214-198 214-109 0-198-96-198-214 0-118 89-214 198-214z"/><path d="m3023 9726c109 0 198 96 198 214 0 118-89 214-198 214-109 0-198-96-198-214 0-118 89-214 198-214z"/></g></g><g fill="#201e1e"><path d="m3687 10849c109 0 198 96 198 214 0 118-89 214-198 214-109 0-198-96-198-214 0-118 89-214 198-214"/><path d="m5012 2446c109 0 198 96 198 214 0 118-89 214-198 214-109 0-198-96-198-214 0-118 89-214 198-214z" stroke="#201e1e" stroke-width="7.62"/></g><g fill="#fff"><path d="m7220 11173l-12-14z"/><path d="m5974 11200c85-49 242-2 40-182-57-51-216-119-246-177l-102-16c-100-18 123 182 125 184 63 68 118 130 183 191"/><path d="m5430 11272c150-108 133-169 377-169-14-58-236-292-296-292h-257l-15 7 191 454"/><path d="m4688 11103c-149 94-165 191-219 347l317-75 8 22 163-461c-130 12-190 109-270 167z"/><path d="m5434 11451l-142-41v-70c79 7 99 70 141 70 35 0 35-7 64-14l29 68-93-12zm0 0c26 20 60 42 103 42h51c45 0 125-125 257-125 36 0 74 32 90 56 20-15 206-59 206-111 0-32-9-42-39-42h-39c-19 0-85 57-129 70-23-47-84-153-141-153h-103c-118 0-199 181-257 181h-13c-25 0-68-49-141-56v84c0 31 10 31 26 56h129z"/></g><g stroke="#201e1e"><g fill="#201e1e"><g fill-rule="nonzero" stroke-width="50"><path d="m912 11620l110-11 10 110-88 9c-47 5-81 2-103-8-30-13-53-37-70-70l35-28c10 20 23 34 40 43 17 8 41 11 71 9l-5-54zm-15-177l110-11 10 110-88 9c-47 5-81 2-103-8-30-13-53-37-70-70l35-28c10 20 23 34 40 43 17 8 41 11 71 9l-5-54zm632-210l-774 77-10-114 570-501-608 61-9-107 774-77 10 114-570 501 608-61 9 107zm-352-773c-104 8-183-17-237-76-45-49-70-111-75-187-5-83 15-154 62-211 47-57 115-89 204-96 72-6 130 2 173 22 43 20 77 52 103 95 26 43 40 91 44 144 6 85-15 156-62 212-47 56-118 88-212 95zm-7-106c72-6 125-27 158-63 34-37 49-81 45-133-3-51-24-92-62-124-38-31-94-44-167-38-69 5-121 27-154 64-34 37-49 81-45 132 3 52 24 93 62 125 38 31 93 44 164 39zm76-552l-22-101c37-9 65-27 83-55 18-28 26-65 22-112-3-47-15-82-34-103-19-21-41-31-65-29-21 2-38 14-48 35-7 15-16 51-25 108-12 77-23 130-34 161-11 30-27 54-49 71-21 17-46 27-73 29-25 2-49-2-71-13-22-11-41-26-57-46-12-15-23-36-32-63-10-27-15-56-18-88-3-48 0-90 10-127 10-37 25-65 46-84 21-19 49-33 85-43l20 100c-29 7-51 22-66 45-15 23-21 55-18 95 3 47 13 80 29 99 16 19 34 28 53 26 12-1 23-6 32-15 10-9 17-23 22-42 3-11 9-41 18-93 13-74 24-126 33-156 9-30 24-54 45-72 21-18 47-29 80-32 32-3 62 5 91 23 29 18 53 45 71 81 18 37 29 79 32 126 6 79-5 141-32 185-27 44-70 74-129 91zm-42-588l-22-101c37-8 65-27 84-54 18-28 26-65 23-112-3-48-14-82-33-104-19-22-41-32-65-30-21 2-38 13-49 35-8 15-16 51-26 108-13 77-25 130-36 160-11 30-28 53-49 70-22 17-46 26-74 28-25 2-49-3-71-13-22-11-41-26-56-47-12-15-22-36-32-63-9-27-15-56-17-88-3-48 1-90 11-127 10-37 26-65 47-84 21-19 49-33 85-42l19 100c-29 7-51 22-66 45-15 23-21 55-19 95 3 47 12 80 28 99 16 19 33 28 53 27 12-1 23-6 33-15 10-9 17-23 23-41 3-11 9-41 19-93 13-74 25-126 35-156 10-30 25-54 46-72 21-18 47-28 80-31 32-2 62 5 91 24 29 18 53 45 70 82 18 37 28 79 31 127 5 79-6 140-34 184-28 44-71 73-130 89zm-148-592c-104 3-182-25-234-87-43-51-66-114-68-190-2-84 21-153 70-208 49-55 118-84 207-87 72-2 129 8 172 30 42 22 75 55 99 100 24 44 37 93 38 146 2 85-21 155-70 209-49 54-121 83-216 86zm-3-106c72-2 125-21 160-56 35-35 52-79 50-131-1-51-21-93-57-127-37-33-92-48-166-46-69 2-122 21-156 57-35 35-52 79-50 130 1 52 20 94 57 127 37 33 91 48 163 46zm115-896l-8-103c38-2 68-16 90-40 22-24 35-60 38-107 4-47-3-83-19-108-16-24-36-38-60-40-21-2-39 7-53 26-10 14-23 48-40 103-23 74-42 125-57 153-15 28-34 49-58 62-24 13-49 19-77 16-25-2-48-10-68-25-20-14-37-33-49-55-10-17-17-40-23-68-6-28-7-58-5-90 4-48 13-89 28-124 15-35 35-60 57-75 23-15 53-25 90-28l6 102c-30 2-53 13-71 34-18 20-28 51-31 91-3 47 1 82 14 103 13 21 29 33 48 35 12 1 24-2 34-10 11-8 20-20 28-37 4-10 15-39 31-89 23-71 42-121 55-149 13-28 32-49 55-64 23-15 51-21 83-18 32 3 61 15 87 38 26 23 46 53 59 92 13 39 17 83 13 130-6 79-25 138-59 177-33 39-80 61-140 68zm110-1058l31-103c54 28 92 67 116 118 23 51 29 111 17 181-15 87-52 152-111 193-58 41-133 53-223 35-93-19-161-59-203-121-43-62-57-135-42-217 14-80 50-140 109-181 59-41 134-52 226-33 6 1 14 3 25 6l-77 447c61 8 111-1 149-28 38-27 61-65 70-115 6-37 3-71-11-101-14-30-39-57-76-80zm-208 302l58-334c-47-5-84 1-111 17-42 25-67 63-76 115-8 47 0 89 23 126 23 37 59 63 107 76zm430-499l-548-144 20-90 78 20c-50-59-66-130-47-212 8-36 21-67 40-94 18-27 39-45 62-55 23-10 48-14 75-13 18 1 49 7 91 18l336 88-23 101-333-87c-38-10-67-14-87-11-20 3-38 13-54 30-16 17-26 39-32 66-10 43-5 83 13 120 18 38 62 66 132 84l299 78-23 101zm151-874l84 19c-4 29-10 55-17 76-12 35-27 60-44 75-17 15-35 23-55 24-20 1-56-9-110-31l-304-123-25 72-69-28 25-72-131-53-20-119 184 74 33-97 69 28-33 97 309 125c26 10 43 15 51 15 8 0 16-4 23-9 7-6 13-16 18-30 4-11 7-25 11-44zm-514-316l-102-41 33-97 102 41-33 97zm627 253l-528-213 33-97 528 213-33 97zm87-244l-504-273 38-83 71 39c-17-30-26-64-28-100-2-37 5-73 22-109 19-40 42-69 69-87 27-17 57-24 90-19-39-75-42-147-10-217 25-54 58-89 99-103 41-14 91-6 148 25l346 187-43 93-317-172c-34-18-60-29-78-31-18-2-35 2-51 13-17 11-30 27-39 48-18 39-21 77-9 115 12 38 44 71 96 99l293 158-43 93-327-177c-38-20-70-28-96-24-26 5-47 24-63 59-12 26-17 53-14 82 2 29 14 55 33 78 20 23 53 47 98 72l261 141-43 93zm501-1318l68-79c38 50 57 103 58 160 1 57-17 114-55 171-48 72-107 113-176 124-69 10-141-13-215-71-77-60-122-128-136-203-14-76 2-148 47-216 44-66 100-104 170-113 69-9 142 15 217 74 5 4 11 9 20 17l-245 369c52 36 101 51 146 44 45-7 81-31 109-72 20-31 30-63 30-96-1-33-13-69-37-108zm-307 178l183-276c-41-26-77-38-108-36-47 3-86 26-114 69-26 38-35 80-29 125 6 45 29 84 67 118zm585-255l-420-407 57-69 60 58c-18-78-1-148 51-211 23-27 48-48 76-62 28-14 54-20 78-17 24 3 48 12 72 27 16 10 40 31 73 63l258 250-64 77-255-248c-29-28-53-46-72-54-19-8-40-8-61-2-21 7-40 21-57 41-27 33-41 70-41 113-1 42 26 90 80 142l229 222-64 77zm499-703l68 56c-15 25-31 45-46 61-25 26-48 42-69 48-21 6-41 5-59-3-18-8-47-34-87-79l-227-252-51 53-52-57 51-53-97-108 28-117 137 153 68-72 52 57-68 72 230 256c19 21 32 34 40 37 8 4 16 4 25 2 9-2 18-9 28-19 8-8 17-19 27-34zm-79-213c-66-87-93-171-81-253 11-68 43-126 96-175 59-53 124-76 195-68 70 8 134 49 191 124 46 60 74 115 84 165 10 50 6 98-11 146-17 48-45 89-83 123-61 55-126 78-196 69-70-8-135-52-195-131zm75-67c46 60 93 94 140 102 47 8 89-5 126-38 36-33 55-75 57-127 1-52-22-108-69-170-44-58-90-91-137-99-47-8-89 4-125 37-37 33-56 75-58 127-1 51 21 107 67 167zm871-330l-270-442-71 51-41-67 71-51-33-54c-21-34-34-61-38-82-6-28-4-55 7-83 11-28 34-54 68-79 22-16 49-31 80-45l34 84c-19 9-35 18-50 29-24 17-38 35-41 53-3 18 5 43 23 73l28 47 91-66 41 67-91 65 270 442-80 57zm69-413c-50-99-61-187-34-265 23-65 65-115 126-151 68-40 136-48 203-26 67 23 122 77 165 162 35 69 52 129 53 179 1 51-12 98-37 141-25 43-60 78-103 103-69 41-137 50-204 27-67-23-123-80-168-170zm86-50c34 69 74 112 119 129 45 18 88 14 130-10 42-24 68-62 79-113 11-51-2-111-37-181-33-66-72-108-117-126-45-18-88-14-130 10-42 25-69 62-79 112-11 50 1 109 35 178zm355-666l-42-108 88-40 42 108-88 40zm261 667l-220-562 88-40 220 562-88 40zm835-413c-26 42-53 74-81 97-28 23-60 40-96 51-60 18-109 17-150-5-40-21-67-57-80-105-8-29-8-57-3-84 6-27 17-51 33-72 16-20 35-38 58-53 17-11 43-24 78-40 72-32 123-61 155-85-3-14-5-22-6-26-11-40-27-66-49-77-29-15-67-16-114-1-43 13-73 32-89 54-16 23-24 56-23 101l-93 14c-3-44 2-82 14-113 12-31 34-59 66-84 32-25 71-44 118-59 46-14 86-20 118-17 32 3 57 11 76 25 18 14 34 33 47 59 7 16 17 46 29 90l35 132c24 92 42 150 52 173 10 24 24 45 41 64l-96 30c-15-18-27-41-37-68zm-65-218c-30 25-76 53-141 84-36 18-61 32-75 45-14 12-23 27-28 43-5 17-5 34 0 51 7 26 22 45 45 57 23 12 53 12 88 1 35-11 65-29 88-54 23-25 38-54 43-87 4-25 0-60-11-103l-9-36zm311 229l-178-819 93-24 178 819-93 24zm588-319l100-3c-6 64-28 117-64 158-36 41-87 67-151 78-81 14-149-2-205-48-55-46-90-118-105-215-15-101-2-184 37-248 40-64 98-103 175-116 74-13 139 4 194 51 55 47 90 120 105 219 1 6 2 15 3 27l-414 71c13 65 38 113 74 143 36 30 77 41 124 33 34-6 63-21 84-45 22-24 36-59 44-105zm-333-110l310-53c-12-50-29-86-52-108-36-34-77-47-125-39-43 7-77 29-102 66-25 36-35 81-30 134zm33-332l45-171 124-21-91 179-78 14zm549 589l40-609 86 7-6 86c19-28 45-51 75-66 30-16 64-22 102-19 42 3 75 15 100 36 25 21 42 48 51 83 49-68 110-98 181-93 56 4 98 24 126 60 28 36 40 88 35 158l-27 417-95-7 25-383c3-41 1-71-4-90-5-19-15-34-31-46-16-12-34-19-56-21-40-3-74 9-102 35-28 27-44 71-48 134l-23 353-95-7 26-395c3-46-3-81-17-105-14-24-39-38-74-40-27-2-52 4-76 17-24 13-42 35-54 63-12 29-20 71-24 126l-21 315-95-7zm1456 506l44-61c-62 23-121 12-175-34-35-30-60-68-74-114-14-46-16-95-5-147 11-52 35-102 70-151 35-48 73-85 116-111 43-26 87-37 131-33 44 4 85 22 121 53 27 23 46 49 58 79 12 30 17 60 16 91l173-238 75 64-481 662-70-60zm-64-441c-45 61-66 117-64 168 2 51 19 90 52 118 33 28 71 37 115 28 44-9 88-44 131-103 47-65 71-123 69-174-1-51-19-90-53-120-33-28-72-38-116-27-44 10-89 47-135 111zm554 926l35 101c-58 14-111 9-158-15-48-24-87-67-117-130-38-79-46-154-24-226 22-72 74-131 155-177 84-48 160-62 229-42 69 20 122 67 158 142 35 72 41 144 18 215-23 71-76 131-158 178-5 3-13 7-23 12l-196-402c-53 35-87 75-101 122-14 47-11 92 11 137 16 33 38 57 66 72 28 14 63 18 106 12zm-11-377l147 300c40-28 66-58 77-88 18-48 16-95-6-141-20-42-51-70-90-83-40-14-82-9-127 12zm-99 1430l269-68c-24-11-45-28-65-53-19-25-33-53-39-85-15-70-2-137 39-202 41-64 107-107 197-130 55-14 107-16 155-7 48 10 88 31 118 65 31 34 52 74 62 121 16 73 0 138-48 195l74-19 20 90-759 192-22-101zm419-433c-70 18-120 47-148 88-28 41-38 84-28 129 9 43 34 76 74 98 40 22 95 25 163 8 73-18 124-49 154-91 30-42 40-85 30-129-9-44-35-76-75-98-41-22-97-23-170-5zm-117 1036l83-11c-69-38-108-98-117-178-4-36-2-70 7-102 9-33 22-58 40-75 17-18 40-31 67-41 18-7 47-13 88-18l346-48 12 103-309 43c-49 7-83 14-99 20-24 10-42 26-54 49-12 23-16 49-12 80 4 31 14 58 32 83 18 25 40 41 66 49 26 8 63 8 111 2l299-41 12 103-559 77-11-92zm110 650c-32-37-54-73-68-108-14-35-21-73-23-113-2-67 11-119 40-156 29-37 67-57 114-59 27-1 53 5 76 17 23 13 42 30 56 51 15 22 26 46 34 73 6 20 11 51 17 91 12 83 25 144 39 183 13 0 21 0 25 0 39-2 66-12 81-33 21-27 30-67 28-119-2-49-11-84-27-107-17-23-45-39-86-48l10-102c40 8 73 21 98 42 25 20 45 50 60 89 15 39 23 85 25 138 2 52-2 95-13 128-10 33-24 58-40 74-17 16-38 28-64 35-16 4-45 7-88 9l-127 5c-88 4-144 8-168 13-24 5-46 15-67 28l-4-108c20-11 43-19 70-23zm211-17c-15-37-29-93-42-168-7-42-14-72-22-90-8-17-18-30-32-40-14-9-29-13-46-13-25 1-46 12-62 34-16 22-24 53-22 93 1 40 11 75 28 105 17 30 40 52 68 66 22 10 54 15 96 13l35-1zm-275 272l777-7 1 103-777 7-1-103zm-218 646l276 8c-20-17-37-40-50-69-13-29-19-60-18-93 2-72 30-134 85-184 55-51 128-74 221-72 56 2 107 14 151 36 44 23 77 54 99 95 22 41 33 86 31 134-2 75-33 134-92 175l76 2-2 93-779-23 3-103zm507-304c-72-2-127 13-164 44-37 32-56 71-57 117-1 44 15 82 49 115 34 33 86 50 156 52 75 2 132-13 170-45 39-32 58-71 60-116 1-45-15-83-50-116-34-32-89-49-163-52zm-322 973l84 5c-61-51-90-117-86-198 2-36 10-69 24-99 14-30 31-53 51-67 20-14 44-23 72-28 19-3 49-3 89-1l348 20-5 103-311-18c-50-3-83-3-101 0-25 5-46 18-61 38-15 20-24 46-25 76-2 31 4 60 18 88 13 28 32 48 57 61 25 13 61 20 109 23l301 17-5 103-563-32 5-93zm128 687l-22 105c-56-22-98-58-125-106-28-48-39-108-33-178 8-89 39-156 94-203 55-47 128-66 219-57 94 9 165 43 212 101 48 58 68 128 61 212-7 81-38 145-93 191-55 46-129 65-222 56-6-1-14-2-25-3l39-452c-62-2-111 12-146 42-35 30-56 71-60 122-3 38 3 71 19 99 16 29 44 53 83 72zm181-322l-29 338c48 0 84-9 109-28 39-29 61-70 66-122 4-47-7-88-34-123-26-35-64-57-113-65zm-387 539l560 68-10 92-86-10c37 28 61 53 72 75 11 22 15 44 12 68-4 35-17 69-41 102l-84-47c16-23 25-48 27-72 2-22-2-43-13-62-11-19-27-34-48-44-32-16-69-26-109-30l-293-35 11-103zm61 1146l-29 97c-61-23-106-60-135-112-29-52-37-111-27-176 13-82 49-143 106-184 58-41 133-52 225-34 60 11 110 32 152 62 41 30 70 69 85 117 15 48 19 98 10 150-11 65-34 116-72 151-37 36-85 54-143 55l2-101c39-2 69-14 92-34 23-20 37-48 42-81 8-51-2-96-30-135-29-39-80-65-153-79-74-14-131-9-170 15-39 25-62 62-70 111-7 40-1 76 18 107 18 31 50 55 96 71z"/><path d="m8586 8912c-23-44-37-85-42-122-6-37-5-76 3-116 12-66 36-113 73-142 36-29 77-38 123-28 27 6 50 18 70 36 20 18 34 40 44 64 9 25 15 51 17 80 1 21 0 52-3 93-6 84-7 147-2 188 13 3 21 5 24 6 38 8 67 5 86-11 26-21 44-58 53-109 9-48 8-85-4-111-11-26-35-49-73-68l31-96c38 18 67 39 87 65 20 26 33 60 39 102 6 42 4 89-6 140-10 51-23 92-40 121-17 29-35 50-55 61-20 11-43 17-70 18-17 0-46-5-87-14l-124-27c-87-19-142-29-166-30-24-1-48 3-71 10l20-106c22-6 46-7 73-4zm209 37c-7-40-8-98-4-174 2-43 2-74-2-93-4-19-11-34-23-47-12-12-25-20-42-24-25-5-47 0-68 17-20 17-34 45-42 84-7 39-6 75 4 109 10 34 27 61 52 81 19 16 49 28 90 37l34 8zm-330 195l548 141-20 90-84-22c34 33 55 61 63 84 8 23 10 46 4 69-7 34-25 66-52 96l-78-58c18-21 30-44 35-68 5-22 3-43-5-64-8-20-23-37-43-50-30-20-65-35-105-45l-286-74 22-101zm-87 381l542 169-24 89-77-24c48 61 60 133 39 214-9 35-24 66-43 92-20 26-41 43-64 52-23 9-48 12-76 10-18-2-48-9-91-22l-333-103 26-99 329 102c37 12 66 17 87 15 20-2 39-11 55-27 16-16 28-38 35-64 11-42 9-82-8-121-17-38-60-68-129-90l-296-92 26-99zm-217 1029c-18-46-28-89-30-127-2-38 3-76 14-115 19-64 47-108 86-133 39-25 80-29 125-14 26 9 48 24 66 44 18 21 30 43 37 69 7 26 10 53 9 81-1 21-5 52-12 92-15 83-21 145-20 187 12 5 20 8 23 9 37 13 66 12 86-1 28-18 49-52 64-102 14-47 16-84 7-111-9-27-30-53-66-76l41-92c36 22 62 47 80 75 18 28 27 63 29 106 2 42-5 89-20 139-15 50-32 88-52 116-20 27-40 46-61 55-21 9-44 12-71 10-16-2-45-10-85-24l-121-41c-84-29-138-45-162-49-24-4-48-3-72 2l30-103c22-3 46-2 73 4zm204 61c-3-40 1-98 13-173 7-43 9-73 7-93-2-19-8-35-18-49-10-14-23-23-39-29-24-8-47-5-69 9-22 15-39 41-50 79-11 38-13 74-7 109 7 35 21 64 43 87 17 18 46 33 86 47l33 12zm-400 314l602 6-37 103-358-11c-39-1-78-4-119-8 25 20 54 46 87 78l275 261-35 99-448-436 33-93zm-185 797c-17-47-27-89-28-127-1-38 4-76 16-115 20-64 49-107 88-131 39-24 81-28 125-12 26 9 48 25 66 45 18 21 30 44 36 69 7 26 9 53 8 81-1 21-6 52-13 92-16 82-23 145-23 186 12 5 20 8 23 9 37 13 66 13 86 0 28-18 50-51 65-101 14-46 17-83 9-111-8-28-30-53-64-78l42-91c35 22 62 48 79 76 17 29 26 64 27 106 1 42-6 89-22 138-15 49-33 88-53 115-20 27-41 45-62 54-21 9-45 11-71 8-16-2-45-11-85-25l-120-43c-84-30-138-47-161-52-24-4-48-4-72 1l32-103c22-3 46-1 73 5zm203 65c-2-41 3-98 16-173 7-42 10-73 8-92-2-19-7-36-17-49-10-14-23-24-39-29-24-9-47-6-69 8-22 14-39 40-51 78-12 38-14 74-8 109 6 35 20 64 42 87 17 18 46 34 85 48l33 12zm-345 151l744 244-28 99-744-244 28-99zm582 436l106 35-30 106-84-28c-45-15-76-31-93-49-23-25-36-56-41-94l43-12c2 22 9 41 23 56 13 15 34 28 61 38l14-52zm-47 170l106 35-30 106-84-28c-45-15-76-31-93-49-23-25-37-56-41-94l43-12c2 22 9 41 23 56 13 15 34 28 61 38l14-52z"/></g><path d="m5156 10722c109 0 198 96 198 214 0 118-89 214-198 214-109 0-198-96-198-214 0-118 89-214 198-214z" stroke-width="7.62"/></g><path d="m7055 10640c-249 60-421 261-430 538-5 176 70 336 198 450 69 62 143 90 233 87 95-3 276-19 283-156 7-148-221-209-321-213-134-6-230 99-306 226-61 102-110 209-153 320-35 92-61 150-54 248 30 131 82 247 148 343 153 224 283 267 496 228" fill="none" stroke-width="100"/><g stroke-linejoin="round" stroke-linecap="round"><g stroke-width="100"><g fill="none"><path d="m5499 13253c-97 108-179 213-319 256-59 18-123 21-216 16-204-29-306-67-465-202 23-95 59-179 108-253 37-58 80-107 130-150 62-54 127-94 196-122 108-42 218-58 330-43 94 16 187 40 274 100-21 136-33 262-37 397z"/><path d="m5715 12917c3-157 25-263-51-400-72-128-150-153-278-122 125 138 111 243 104 433 6 22 12 43 17 65 42-10 84-20 126-31 18 14 36 29 54 43 15 12 47 50 28 11z"/><path d="m4892 12696c17-128 19-255 144-320 81-42 164-10 245 17-125 109-135 146-151 324-35 25-71 51-106 76-21-30-43-60-64-90-22-2-45-4-67-6z"/><path d="m5489 12828c10-149 22-275-76-399-30-38-47-59-68-60-40-3-90 41-117 70-84 91-83 153-99 277 106 2 102 8 141 118 114-74 115-95 218-6z"/></g><g fill="#fefefe"><ellipse cx="5158" cy="12834" rx="113" ry="122"/><ellipse cx="5394" cy="12894" rx="113" ry="122"/></g><path d="m4934 13343c194-45 292-188 428-332-39-12-74-56-90-102-39 21-68 44-113 47-51-6-90-29-107-85-43 31-88 57-138 64-52-2-83-30-105-70-107 81-201 177-262 316-16 47-32 94-47 141 173 39 235 66 435 20z" fill="none"/><g fill="#fefefe"><path d="m5632 12863c84 0 128 122 88 198-16 31-52 46-88 46-62 0-113-55-113-122 0-67 29-122 113-122z"/><path d="m4913 12692c54-5 113 55 113 122 0 67-50 122-113 122-62 0-122-60-113-122 10-62 59-117 113-122z"/></g><g fill="none"><path d="m6107 15096c8-288-81-399-306-572-115-5-230-9-345-14-85 25-171 51-256 76 49 45 97 91 146 136 268 93 522 216 761 373z"/><path d="m6262 15156c-54-7-104 3-125 72-45 149 44 220 181 221 51 0 78-36 93-65 43-79-30-213-149-228z"/><path d="m3580 15994c263-55 528-91 778-128 340-51 683-44 1026-36"/><path d="m3579 16274c285-80 565-141 849-174 301-35 654-24 957-24"/><path d="m3615 16561c282-64 570-137 848-173 320-41 634-37 956-40"/><path d="m5287 15564c169 2 265 25 338 83 72 59 122 154 198 303 29 82 57 164 86 245 67 204 131 409 31 620-135 284-358 303-612 338-474 31-966 25-1440 56-132 1-238-3-336-32-91-27-166-70-224-129-74-76-119-178-131-308 3-140 7-280 10-420 29-105 57-211 86-316 40-80 90-137 146-181 112-89 244-139 382-171 163-38 328-58 495-71 325-24 647-23 972-18z"/><path d="m2554 16818c8-170-9-334 94-476 92-127 211-117 286 25 73 138 61 277 63 431 2 119 24 188-69 269-34 30-73 42-144 40-73-2-127-22-170-62-80-73-65-123-60-227z"/><path d="m2996 16677c-6-155-19-253-86-343-77-104-198-95-281 23-51 73-62 178-72 312 147 7 291 10 438 7z"/><path d="m2317 17445c1-226-12-488 10-740 28-314 111-612 345-806 228-189 482-284 781-381 385-125 783-199 1220-211 336-3 647 35 942 128 168 53 331 124 490 215 158 90 268 203 364 335 244 334 331 687 410 1090 5 16 10 32 15 48m-1438 499c-755 94-1534 47-2295 51-82 0-152-6-220-18-98-17-195-44-293-73-97-29-170-52-240-87-98-49-126-91-169-88-60 3-96 37-121 83-51 92-58 154-36 215 18 50 45 88 77 119 62 60 129 96 199 119 117 39 244 42 375 59 260 18 519 43 780 37 779-39 1783 52 2560-160 272-74 524-217 769-293 109-39 325-76 355-224 6-31 3-68-10-119-14-56-38-114-90-134-51-19-157 3-289 45-467 150-864 407-1352 468z"/><path d="m6214 17413l741-307"/><path d="m3516 18038c-260-12-520-24-780-37 2 183-53 577 96 710 144 129 498 166 625-10 113-157 63-480 59-663z"/><path d="m6204 18522c70 30 152 25 307-19 93-26 207-52 277-121 37-36 62-84 66-150 4-62-16-147-44-236-40-130-97-266-123-355-231 105-471 182-710 262 8 256-23 512 226 619z"/><path d="m6109 15643c47-65 76-148 113-210-362-196-620-285-1024-361-200-38-391-55-580-52-744 12-1436 387-1956 716 1 55 2 101 3 157 244-154 500-273 761-368 395-143 782-182 1182-209 302-21 584 9 861 81 215 57 426 140 639 246z"/><path d="m2753 15576c-1 63-18 133-91 154 1 4 1 9 2 13 368-227 869-506 1355-642 186-52 373-83 596-83 516 1 998 123 1465 343 20 9 39 19 59 28-2-5-4-10-6-15-245-251-421-333-757-422-226-60-457-95-700-102-741-22-1402 425-1923 726z"/><path d="m2681 15484c175-162 426-328 672-466"/><path d="m2558 15701c-18-19-31-41-36-72-5-39 19-77 53-104 34-27 77-44 109-39 84 15 121 154 52 211-25 21-60 33-97 33-33 0-63-10-82-29z"/><path d="m5858 13711c-144-92-280-229-359-457 9-133 19-267 28-400 91 57 173 127 232 229 67 103 105 209 115 318 15 112 3 213-17 311z"/><path d="m2885 15328l5-436 378-213 478-120 197 4"/><path d="m2885 15316c2-146 3-279 5-425 157-88 307-155 458-206 309-103 619-136 987-139 313-2 595 49 876 132 347 102 679 267 982 474-48 22-67 96-85 171-124-101-237-182-359-244-223-114-534-188-779-212-147-15-295-17-444-17-80-80-161-160-241-240-486 165-969 383-1400 705z"/></g><g fill="#fefefe"><path d="m4415 14446c115-61 231-121 347-179 49-25 98-49 148-73 125 170 250 339 376 509-65 35-131 69-196 104-101 56-201 113-305 168-239 124-282 81-472-117-96-100-191-199-287-299-423 20-765 126-1137 333 23-142 77-202 159-316 44-61 89-122 134-182 103 15 180 17 284-2 100-19 195-53 264-145 171 51 337 115 501 186 88 38 98 58 182 13z"/><path d="m4762 14267c49-24 98-49 148-73 125 170 250 339 376 509-65 35-130 70-196 104-105-185-212-363-328-540z"/></g><g fill="none"><path d="m5614 19885c-59-128-119-256-177-384-98-213-66-241-232-94-66 59-139 107-208 161-135 104-126 84-48 243 62 127 126 250 197 358 91 138 100 144 249 87 59-22 110-48 152-78 140-99 131-154 67-293z"/><path d="m4314 19582c119-94 237-187 356-281 154-122 163-93 42-254-54-72-108-144-161-216-106-142-83-140-202-12-118 126-235 253-353 379-108 116-109 95-16 224 32 45 65 90 97 135 112 155 90 141 237 25z"/><path d="m5909 18682c22 12 43 25 65 37 110 63 220 126 330 188 123 70 121 50 70 190-17 45-33 88-49 134-50 136-44 108-176 85-144-25-292-40-434-68-68-13-103-39-122-75-52-103-4-224 59-334 60-105 78-157 125-171 28-8 67-2 132 14z"/><path d="m5718 12776c53 2 88 8 120 19 67 25 110 60 137 108 88 159 145 322 226 474 95 179 200 287 325 358 221 126 537 186 738 191-13 103-19 195-19 286-1 264-15 529 15 792 13 112 16 202 1 285-34 195-149 311-290 391-71 40-146 71-222 99-152 55-181 67-279 205-99-145-221-256-361-341 31-73 62-146 93-219 83 43 156 41 210-41 27-82 5-149-73-199-99-13-183-38-232-88 6-291-85-402-306-572-194-13-387-25-581-38-27-72-54-143-81-215 166 7 322-38 465-154 159-116 243-306 276-546 13-180-28-343-121-490-17-24-34-48-52-72 3-78 6-156 10-234z"/><path d="m4687 16885c29-106 5-200-15-305-47 5-94 11-141 16-4 110 2 192 23 300 44-4 89-7 133-11z"/><path d="m3179 14216c164 38 326 3 487-84 22 38 43 76 65 114-75 78-139 105-241 135-102 29-204 22-308 12-1-59-3-119-4-178z"/><path d="m3311 12589c418 0 757 367 757 820 0 453-339 820-757 820-255 0-480-136-618-345-1-1-1-4-3-4-199 19-233-93-89-181 2-1-1-4-2-6-30-88-46-184-46-283 0-453 339-820 757-820z"/></g></g><g fill="none"><path d="m2821 13743c61 69 118 129 177 177 99 80 207 127 357 125 134-2 237-36 325-101 90-66 172-164 237-292" stroke-width="75"/><g stroke-width="100"><path d="m4642 13803c86 122 162 196 297 259 60 28 125 44 208 41 103-3 170-27 232-69 68-46 110-89 144-141 32-48 57-104 87-174"/><path d="m2914 14795c-68 89-136 178-204 266-71-68-143-136-214-204 119-123 258-267 377-389 48 53 75 127 123 180-27 49-55 98-82 147z"/><path d="m2886 15184c-59-41-117-82-176-123 60-79 121-158 181-237-2 120-4 240-5 359z"/><path d="m2604 14959c107-130 214-260 322-390-24-26-28-74-51-101-119 123-258 267-377 389 36 34 71 68 107 102z"/><path d="m3071 14186c-56 53-89 80-114 130-62 124-44 239 40 331 62-85 125-169 187-254-1-59-3-119-4-178-36-10-73-20-109-30z"/><path d="m2628 14721c-59-115-117-192-98-328 7-48 19-97 65-144 51-52 98-79 147-91 47-12 102-9 156-1-8 35-14 78-11 115 3 39 14 76 44 110-20 60-12 116 7 175-21-10-61-39-85-68-75 77-150 155-226 232z"/><path d="m2922 14113c-36 53-33 81-36 147 6 64 5 78 45 123 29-102 63-126 139-197-49-25-99-49-148-74z"/></g></g><g stroke-width="100"><path d="m2733 12951c10 118 27 230 73 316-35-4-70-7-106-11 14 58 22 123 20 201-27-29-57-52-91-68 6 65 20 147 8 209-3 17-9 32-20 44-26 29-69 69-111 94-64-201-86-363-61-506 37-214 106-320 256-448 29-177 50-241 170-324-8 66-19 91 6 150 46-16 78-47 102-78 24-30 89-2 119-23 64-65 121-150 211-182-28 64-32 123-13 180 58-58 155-107 211-112 21 48 21 71 60 101 86 19 172 38 258 57-51 5-98 16-132 46 79 68 138 151 184 242-67-43-137-78-209-106 21 74 30 149 33 223-59-62-123-116-199-158 5 44-1 88-13 133-39-68-92-120-156-158 2 60 3 120 5 180-162-184-175-253-407-246 62 49 102 124 135 210-63-48-133-78-211-88-41 41-83 82-124 123z" fill="#201e1e"/><ellipse cx="5180" cy="13512" rx="703" ry="761" fill="none"/><path d="m5298 17073c-62-117-76-97-201-103-363 46-726 93-1089 139-38 36-48 87-45 144 54 142 108 284 162 426 35 93 26 89 118 82 299-24 598-47 897-71 116-9 189 11 214-139 5-32 2-66-6-125-17-118-33-236-50-354z" fill="#fefefe"/><path d="m5245 17433c-3-45-8-90-13-134-22-107 3-217-108-206-300 31-599 62-899 93-141 15-116 13-107 164 18 59 37 118 55 177 63 109 50 124 167 110 262-31 526-46 783-106 98-23 129 4 122-98z" fill="none"/><path d="m5222 14323c25-6 180-69 138-112-18-18-40-28-64-31-99-14-237 82-302 128 97 132 194 263 291 395 134-17 268-37 401-50 83-9 58-80-2-77-79 3-158 6-238 9 96-9 193-18 289-27 115-11 70-113-24-103-104 11-166 12-270 23 108-19 175-29 283-48 95-17 60-109-35-91-67 13-133 25-200 38-37 7-36 4-73 11 102-26 165-42 267-68 105-27 50-131-27-108-150 44-251 76-401 120-11-3-23-5-34-8z" fill="#fefefe"/></g><g fill="#201e1e" stroke-width="75"><path d="m3724 13305c36-10 74 25 86 76 12 52-7 102-43 111-36 10-74-25-86-76-12-52 7-102 43-111z"/><path d="m3222 13399c35-11 75 21 89 72 14 51-3 102-39 113-35 11-75-21-89-72-14-51 3-102 39-113z"/><path d="m5351 13576c30 0 54 30 54 67 0 37-24 67-54 67-30 0-54-30-54-67 0-37 24-67 54-67z"/><path d="m4813 13562c30 0 54 30 54 67 0 37-24 67-54 67-30 0-54-30-54-67 0-37 24-67 54-67z"/></g><g stroke-width="100"><g fill="none"><path d="m4704 17379c-36 136-71 216-126 299-75 112-196 218-169 375 30 173 293 278 343 490 40 167-18 269-78 418"/><path d="m5086 19431c-24-49-47-98-71-147 3-62 7-124 10-185 39-233 119-501-6-719-102-179-253-317-301-532-33-150-23-278-16-468"/><path d="m5610 18901c-81-79-134-174-179-274-73-162-125-338-239-484-289-262-349-383-489-764"/><path d="m4131 19284l-82-144"/><path d="m4282 19194l-132-162"/><path d="m4370 19126l-135-185"/><path d="m5301 19769l174-183"/><path d="m5404 19905l152-144"/><path d="m5492 20008l131-103"/><path d="m5975 18930l33-192"/><path d="m6090 19020l42-211"/><path d="m6204 19082l73-190"/><path d="m5755 19127c47-99 75-198 111-317 16-74 58-123-39-143-74-15-81 7-145 117-43 73-79 143-104 224-7 48-7 89 2 138 11 37 30 62 64 80 77 18 76-25 110-98z"/><path d="m4923 19745c79-33 144-67 208-107 99-62 184-132 270-212-70-152-56-127-182-29-79 61-157 122-236 183-94 73-122 57-60 166z"/><path d="m4507 19040c30 45 61 88 95 131 73 93 72 136 165 51 55-50 28-63-53-172-65-87-129-173-194-260-53-71-59-88-90-60-59 56-51 64-18 138 26 60 57 115 94 171z"/></g><path d="m4544 14378c-71-151-129-272-200-423 33-14 192-137 177-170-35-78-120-41-177-24-2 1-4-1-2-3 36-99 53-166 52-250 0-64 0-119-47-135-35-12-53 57-61 131-8 70-7 131-8 149-1 2-5 2-6-2-10-48-23-94-36-139-11-38-17-60-29-76-44-61-72-41-75 27-4 71 21 142 36 217 0 1-1 1-1 1-22-27-43-57-64-85-27-36-38-68-58-78-28-15-46-11-57 1-28 31-6 87 26 142 28 48 69 96 85 121 1 1-1 3-2 2-33-12-65-23-98-33-44-13-59-30-74 3-52 111 265 216 318 240 10 152 20 305 30 457 17 6 34 13 51 19 86 4 150-53 221-92z" fill="#fefefe"/><g fill="none"><path d="m6139 16775c-4-171-31-333 62-482 83-134 202-133 287 3 82 132 79 272 92 425 10 118 36 186-51 274-32 32-70 48-141 51-73 4-128-12-174-49-84-67-73-117-75-221z"/><path d="m6571 16600c-17-154-36-251-108-335-84-97-204-79-279 45-46 77-49 183-50 317 147-4 291-13 438-27z"/></g></g></g><path d="m1859 13411c-249 60-421 261-430 538-5 176 70 336 198 450 69 62 143 90 233 87 95-3 276-19 283-156 7-148-221-209-321-213-134-6-230 99-306 226-61 102-110 209-153 320-35 92-61 150-54 248 30 131 82 247 148 343 153 224 283 267 496 228" fill="none" stroke-width="100"/><g fill="#201e1e"><g stroke-width="25"><g font-family="&apos;Monotype Corsiva&apos;" font-style="italic" font-size="1602.27"><text x="10500" y="14850" transform="matrix(.97551 0 0 1.19021-8184.88 6131.01)">Texto 01</text><text x="10500" y="14850" transform="matrix(1.1056 0 0 1.19021-9829.49 8346.67)">Texto 02</text></g><path d="m4518 24718l21 29c-104 106-192 160-267 160-30 0-53-11-69-33-16-22-24-57-24-105 0-97 28-194 83-290 62-110 136-164 222-164 30 0 53 8 69 24 16 16 24 38 24 67 0 30-10 59-29 87-19 29-53 59-102 89-25 15-77 42-158 81-4 25-6 48-6 70 0 32 5 55 14 67 10 13 23 19 42 19 17 0 36-5 57-16 28-14 69-43 123-86zm-222-98c68-33 119-68 154-106 23-26 35-53 35-78 0-19-5-35-14-47-10-11-22-17-37-17-16 0-31 6-46 19-20 17-37 42-50 76-20 50-33 101-41 153z" fill-rule="nonzero"/></g><text x="10500" y="14850" font-family="&apos;Arial&apos;" stroke-width="50" font-size="641.82" transform="matrix(1.11992 0 0 1.19021-9072.89 9822.92)">00.00.0000</text></g></g><g fill="#201e1e" font-family="&apos;Arial Black&apos;" font-weight="900" font-size="529.17"><text x="10500" y="14850" transform="matrix(1.09928 0 0 1.19021-7734.44 3606.95)">NN 1</text><text x="10500" y="14850" transform="matrix(1.09928 0 0 1.19021-7727.9 4188.91)">NN 2</text></g></g></g><g clip-path="url(#2)"><g><g fill="none" stroke="#201e1e" stroke-width="100"><path d="m14288 8681c-249 60-421 261-430 538-5 176 70 336 198 450 69 62 143 90 233 87 95-3 276-19 283-156 7-148-221-209-321-213-134-6-230 99-306 226-61 102-110 209-153 320-35 92-61 150-54 248 30 131 82 247 148 343 153 224 283 267 496 228"/><path d="m16224 7503c-249 60-421 261-430 538-5 176 70 336 198 450 69 62 143 90 233 87 95-3 276-19 283-156 7-148-221-209-321-213-134-6-230 99-306 226-61 102-110 209-153 320-35 92-61 150-54 248 30 131 82 247 148 343 153 224 283 267 496 228"/><path d="m18054 3854c-249 60-421 261-430 538-5 176 70 336 198 450 69 62 143 90 233 87 95-3 276-19 283-156 7-148-221-209-321-213-134-6-230 99-306 226-61 102-110 209-153 320-35 92-61 150-54 248 30 131 82 247 148 343 153 224 283 267 496 228"/><path d="m14172 2633c-249 60-421 261-430 538-5 176 70 336 198 450 69 62 143 90 233 87 95-3 276-19 283-156 7-148-221-209-321-213-134-6-230 99-306 226-61 102-110 209-153 320-35 92-61 150-54 248 30 131 82 247 148 343 153 224 283 267 496 228"/><path d="m18650 7430c-249 60-421 261-430 538-5 176 70 336 198 450 69 62 143 90 233 87 95-3 276-19 283-156 7-148-221-209-321-213-134-6-230 99-306 226-61 102-110 209-153 320-35 92-61 150-54 248 30 131 82 247 148 343 153 224 283 267 496 228"/></g><g fill="#201e1e"><path d="m17221 9727c109 0 198 96 198 214 0 118-89 214-198 214-109 0-198-96-198-214 0-118 89-214 198-214"/><g stroke="#201e1e"><g stroke-width="7.62"><path d="m15228 2456c109 0 198 96 198 214 0 118-89 214-198 214-109 0-198-96-198-214 0-118 89-214 198-214z"/><path d="m13178 5593c109 0 198 96 198 214 0 118-89 214-198 214-109 0-198-96-198-214 0-118 89-214 198-214z"/><path d="m18728 5018c109 0 198 96 198 214 0 118-89 214-198 214-109 0-198-96-198-214 0-118 89-214 198-214z"/><path d="m19202 6652c109 0 198 96 198 214 0 118-89 214-198 214-109 0-198-96-198-214 0-118 89-214 198-214z"/><path d="m13833 8617c109 0 198 96 198 214 0 118-89 214-198 214-109 0-198-96-198-214 0-118 89-214 198-214z"/><path d="m16600 8213c109 0 198 96 198 214 0 118-89 214-198 214-109 0-198-96-198-214 0-118 89-214 198-214z"/></g><g fill-rule="nonzero" stroke-linejoin="round" stroke-linecap="round" stroke-width="50"><path d="m12315 10978l105-40 34 104-83 32c-44 17-79 23-102 19-32-5-59-22-84-50l27-37c14 17 30 27 48 31 18 3 42 0 71-9l-17-51zm-54-168l104-40 34 104-83 32c-44 17-79 23-102 19-32-5-59-22-84-50l27-37c14 17 30 27 48 31 18 3 42 0 71-9l-17-51zm569-370l-741 255-32-109 458-621-582 200-30-102 741-255 32 109-458 621 582-200 30 102zm-491-686c-101 28-183 19-246-28-52-39-88-96-105-169-20-81-11-154 26-220 36-65 98-110 184-135 70-20 128-24 173-13 46 11 85 36 118 73 33 37 55 82 68 133 20 83 12 156-25 221-37 65-101 110-193 136zm-25-102c70-20 118-51 144-94 27-43 34-89 22-140-12-50-39-86-82-109-43-23-100-25-171-4-67 19-114 50-141 93-27 43-34 89-22 139 12 50 39 87 82 110 42 23 98 25 168 5zm-17-570l-34-97c36-14 61-36 77-66 15-30 18-68 10-114-9-47-24-79-46-98-22-19-44-26-68-20-21 5-36 18-44 41-6 16-10 53-12 111-3 78-9 132-16 164-7 31-21 57-40 77-19 20-43 33-70 38-25 5-49 4-72-3-23-8-44-20-61-38-14-13-27-33-39-58-13-26-22-54-27-85-9-47-10-89-4-127 6-38 18-68 36-90 18-21 45-39 79-54l31 96c-28 11-48 29-60 54-12 25-14 57-7 97 9 46 22 78 40 95 18 17 36 23 55 19 12-3 22-9 31-19 8-10 14-25 18-44 2-11 4-42 7-95 4-75 9-128 15-159 6-31 18-57 36-78 18-21 44-35 75-42 31-7 62-3 93 10 31 14 58 38 80 71 22 34 37 74 46 121 14 78 11 140-11 187-22 47-61 83-118 107zm-106-581l-31-98c36-13 62-34 78-64 16-30 20-68 12-114-8-47-22-80-43-99-21-19-44-27-67-22-21 4-36 17-45 40-6 16-11 53-15 110-5 78-12 132-20 164-8 31-22 56-42 75-20 19-43 31-71 36-25 5-49 3-72-5-23-8-43-22-61-40-13-14-26-34-38-59-12-26-20-54-25-86-8-47-8-90-1-128 7-38 20-68 38-89 19-21 46-38 81-51l29 97c-28 10-49 27-61 52-13 25-16 57-9 96 8 47 20 79 38 96 17 17 36 24 55 20 12-2 23-8 31-19 9-10 15-25 19-44 2-11 5-42 9-94 6-75 12-128 19-159 7-31 20-56 38-77 19-21 44-34 76-40 31-6 62-2 93 13 31 15 57 39 78 73 21 35 36 75 43 122 13 78 7 140-16 187-23 47-63 81-120 104zm-201-571c-103 16-183-3-241-58-48-45-77-106-87-180-11-83 5-155 49-215 43-60 109-97 197-111 72-11 129-8 174 9 44 17 80 46 109 87 29 41 46 88 53 140 11 85-5 157-48 217-43 60-112 97-206 111zm-14-105c71-11 123-36 153-75 31-39 43-85 36-136-7-51-30-90-70-119-40-28-97-37-170-26-69 11-119 36-150 75-31 39-43 84-37 135 7 51 30 91 70 120 40 28 95 37 166 26zm17-892l-24-100c37-9 65-28 83-56 18-28 25-66 21-113-4-47-16-82-36-103-20-21-41-30-65-28-21 2-38 14-48 36-7 15-15 51-23 109-11 77-22 131-32 161-11 30-26 54-48 71-21 17-46 27-73 30-25 3-49-1-71-12-22-10-41-25-57-45-12-15-23-36-33-63-10-27-16-56-19-88-4-48-1-90 8-127 10-37 25-66 45-85 20-19 48-34 84-44l22 99c-29 7-51 23-65 46-15 23-20 55-17 95 4 47 14 80 30 99 16 19 34 27 53 25 12-1 23-6 32-16 9-9 17-23 22-42 3-11 8-42 17-93 12-74 22-127 31-157 9-30 24-54 44-73 20-19 47-30 79-33 32-3 62 4 92 21 30 17 54 44 72 80 19 36 30 78 34 126 7 79-3 141-30 185-27 44-69 75-128 93zm-85-1048l7-108c58 13 104 41 139 85 34 43 53 100 57 171 5 89-17 161-65 216-48 55-117 86-208 91-94 6-169-16-224-65-55-49-85-116-89-200-4-81 18-149 66-204 48-55 119-85 212-91 6 0 14-1 25-1l24 454c61-8 108-30 139-66 31-36 45-79 42-130-2-38-13-69-33-95-20-26-50-45-92-58zm-135 348l-18-339c-47 7-82 23-104 46-35 35-51 79-48 131 3 47 19 86 50 117 31 30 71 46 120 46zm303-596l-564-3v-93h80c-61-45-91-110-91-194 0-37 6-71 19-101 12-31 29-54 48-69 20-15 43-26 71-32 18-4 49-5 93-5l346 2-1 103-342-2c-39 0-68 4-87 11-19 8-35 22-46 42-11 20-17 44-18 72 0 44 12 82 38 114 26 32 75 48 147 49l307 2-1 103zm-75-881l85-11c5 29 7 55 6 78-1 37-7 66-19 87-12 20-26 34-44 42-18 8-56 11-113 9l-325-11-2 76-74-2 2-76-139-5-54-105 197 6 3-103 74 2-3 103 330 11c27 1 45 0 53-4 8-3 14-9 19-17 5-8 7-20 8-35 0-11-1-26-3-45zm-580-126l-109-4 4-103 109 4-4 103zm668 27l-563-23 4-103 563 23-4 103zm1-262l-559-77 11-92 79 11c-25-23-44-51-57-85-13-34-17-71-12-111 5-45 18-80 39-106 21-26 47-43 79-51-60-57-85-124-76-201 7-60 28-105 62-133 35-28 84-38 147-29l383 53-12 103-352-48c-38-5-65-5-83-1-17 4-32 15-44 31-12 16-20 36-22 60-5 43 4 80 27 112 23 32 63 52 121 59l324 45-12 103-363-50c-42-6-75-2-98 12-23 14-37 40-41 78-3 29 0 56 12 83 11 26 30 47 55 62 26 15 64 25 115 32l290 40-12 103zm39-1419l35-101c52 30 89 72 111 124 21 52 25 112 10 181-19 87-58 149-119 187-60 38-135 46-224 24-92-23-158-67-198-131-40-64-51-137-33-219 17-79 56-138 117-175 61-38 136-45 227-22 5 1 14 4 25 7l-96 442c61 11 111 5 150-20 39-25 64-62 75-112 8-37 6-71-7-101-12-31-37-59-73-84zm-220 292l72-331c-47-7-84-3-112 12-43 23-70 60-81 111-10 46-4 89 18 127 22 39 56 66 103 81zm460-476l-513-251 35-85 73 36c-39-68-42-141-10-218 14-34 32-62 55-84 23-23 46-36 70-42 24-5 49-4 76 2 18 5 47 17 87 36l315 154-39 94-312-153c-35-17-63-27-84-28-21-1-40 5-58 18-18 13-33 33-43 58-17 40-19 80-8 121 11 41 50 77 116 109l280 137-39 94zm317-821l77 39c-10 27-21 51-33 70-19 31-39 52-59 62-20 10-39 14-58 10-19-4-53-23-100-58l-269-196-39 63-61-45 39-63-116-84 6-121 163 119 53-86 61 45-53 86 274 200c23 17 38 26 47 27 8 2 16 1 25-3 8-4 16-12 24-25 6-9 13-23 20-40zm-78-252c-64-88-89-173-75-255 12-68 46-125 100-172 61-52 126-73 196-63 70 10 132 53 188 129 45 62 71 117 80 167 9 50 4 98-15 146-18 47-47 87-85 120-62 53-128 74-197 64-69-10-134-56-192-137zm77-65c45 61 90 97 137 106 47 9 89-2 127-34 37-32 57-73 60-125 2-52-19-109-65-172-43-59-88-93-135-102-47-9-89 2-126 34-38 32-58 74-61 125-3 51 18 108 63 169zm940-172l-75-524-84 14-11-79 84-14-9-64c-6-40-7-71-3-92 5-28 18-52 39-72 20-20 51-34 92-41 27-4 56-6 90-5l-1 92c-20 0-39 1-56 4-29 5-48 15-58 30-10 15-12 41-7 77l8 55 108-18 11 79-107 18 75 524-94 16zm246-345c2-113 32-196 91-249 49-44 109-66 178-64 77 1 140 30 189 86 48 56 72 132 70 228-1 78-13 140-35 184-22 44-55 79-97 103-42 24-87 36-136 35-79-1-142-30-190-85-48-56-71-135-69-237zm98 2c-1 78 14 137 45 176 31 39 70 60 118 60 47 1 87-18 119-56 32-38 49-97 50-177 1-75-14-133-45-172-31-39-70-60-117-60-48-1-88 18-120 56-32 38-49 96-50 174zm595-389l10-117 95 9-10 117-95-9zm-59 721l50-608 95 9-50 608-95-9zm911 123c-42 21-81 33-116 36-35 3-70-1-107-12-60-18-101-48-125-90-24-41-29-86-16-135 8-29 21-53 39-73 18-20 39-34 63-42 23-8 48-12 75-12 19 1 48 4 86 10 77 13 134 19 173 17 4-13 6-22 7-26 11-40 9-71-4-93-18-30-50-52-96-66-43-13-78-15-102-5-25 10-48 34-69 73l-86-41c19-39 41-69 67-89 26-20 58-31 97-34 39-3 82 3 129 17 46 14 83 32 108 53 26 21 43 42 52 64 9 22 12 48 11 77-2 18-8 49-20 93l-35 132c-24 92-38 151-40 177-3 26-1 52 4 78l-96-30c-4-24-3-50 2-79zm51-223c-37 4-91 1-160-9-39-6-68-8-86-5-18 3-32 10-45 21-12 12-21 26-25 43-7 26-3 51 11 74 14 23 39 41 75 52 35 11 69 12 101 4 32-8 58-25 79-49 16-19 29-51 41-94l10-36zm153 371l244-799 91 32-244 799-91-32zm655 67l86 55c-37 51-81 83-132 97-51 14-107 7-167-21-76-35-126-88-150-158-25-71-19-152 17-243 37-94 88-157 153-188 65-32 134-31 205 2 69 32 116 83 139 154 24 71 18 153-19 246-2 6-6 14-10 25l-386-178c-21 63-23 118-7 164 16 46 46 79 89 99 32 15 63 18 93 10 30-8 60-29 89-63zm-228-285l289 133c15-49 17-89 8-121-13-49-43-85-87-105-40-19-80-19-119-3-39 17-69 49-92 97zm190-263l122-119 116 53-165 99-73-34zm175 811l296-519 73 49-42 73c29-15 61-22 95-21 34 1 67 12 98 34 35 24 60 51 74 82 14 31 17 64 10 99 73-35 139-32 200 9 48 32 76 71 86 116 9 46-3 98-36 157l-203 356-81-54 186-327c20-35 32-62 35-81 4-19 1-38-8-57-8-19-22-34-41-47-34-23-69-29-105-20-36 9-69 41-100 94l-172 301-81-54 192-337c22-39 32-73 30-101-2-28-18-53-48-73-23-15-48-23-74-23-27 0-52 10-75 29-23 19-48 53-75 100l-153 269-81-54zm1287 969l46-60c-63 22-121 9-174-39-35-31-58-70-71-116-13-47-14-95-1-147 12-51 37-101 74-149 36-47 76-83 119-108 44-25 88-35 132-29 44 5 84 24 120 56 26 24 45 50 56 81 11 30 16 61 14 91l179-233 74 66-497 648-69-62zm-53-443c-46 60-69 115-68 166 1 51 17 90 49 119 32 29 70 39 115 31 44-8 89-41 133-100 49-64 74-121 74-172 0-51-17-91-50-121-33-29-71-40-115-31-44 9-90 45-137 107zm632 786l56 89c-53 29-105 38-157 27-52-11-99-43-143-95-55-66-80-137-74-212 5-75 42-146 110-212 70-68 141-102 213-100 71 1 133 33 185 96 50 61 72 128 66 204-6 75-44 147-113 214-4 4-11 10-19 18l-280-338c-44 48-67 96-71 145-3 49 11 92 42 130 23 28 50 46 80 52 30 7 65 1 105-17zm-95-363l210 253c33-38 51-73 55-106 7-51-5-96-38-135-29-35-65-54-106-57-42-3-82 12-121 45zm314 1375l233-162c-26-1-51-10-77-26-26-16-47-38-63-65-36-61-45-129-26-204 19-75 67-140 145-194 48-33 95-54 144-62 48-8 92-2 132 18 40 20 71 51 96 91 38 63 43 130 15 201l64-44 46 78-656 456-52-87zm261-560c-61 42-98 88-112 137-14 49-10 93 13 131 22 37 55 59 100 66 45 7 97-11 156-52 63-44 102-91 117-141 15-50 11-94-11-132-22-38-56-59-101-65-45-6-99 13-162 57zm235 1003l72-46c-77-6-135-44-172-115-17-31-27-63-30-97-3-34 0-63 9-86 10-24 25-46 46-66 14-14 39-32 74-54l301-190 48 89-269 170c-43 27-71 47-84 60-19 19-29 42-32 68-3 26 3 52 18 79 14 27 34 48 59 63 25 15 52 21 79 17 27-4 61-19 103-45l260-164 48 89-487 307-43-80zm309 567c-42-22-75-46-100-73-25-27-45-59-60-96-25-61-31-115-17-161 14-46 42-80 85-100 25-12 51-17 77-15 26 3 49 11 70 25 21 14 40 32 57 54 12 17 28 43 48 78 40 72 73 124 99 154 12-5 20-9 23-10 35-17 57-38 64-63 10-34 5-74-15-122-18-45-39-74-62-88-23-14-55-18-96-10l-26-98c40-9 75-10 106-1 30 9 59 28 86 59 27 31 50 70 70 118 20 48 30 89 32 124 2 35-2 63-12 84-10 22-26 41-47 58-14 10-40 25-78 43l-116 56c-81 39-131 65-151 80-20 14-38 32-53 53l-41-99c14-18 34-35 57-49zm190-100c-27-28-59-75-96-139-21-37-38-61-51-74-13-13-28-21-43-24-16-3-32-1-47 7-23 11-38 30-46 56-8 27-4 58 11 95 15 36 35 65 62 87 26 21 55 33 85 34 24 1 55-8 93-27l32-15zm-178 371l743-248 28 99-743 248-28-99zm-47 683l269-71c-24-10-45-28-65-52-20-24-33-53-40-84-16-70-3-137 37-202 40-64 106-108 196-132 55-14 106-17 155-8 48 9 88 31 119 64 31 33 52 73 63 120 16 73 1 138-46 195l74-19 20 90-758 199-23-101zm416-437c-70 18-120 48-148 90-28 41-37 84-27 129 10 43 35 75 75 97 41 22 95 24 163 6 73-19 124-50 153-92 29-42 39-85 29-129-10-44-35-76-76-97-41-21-98-23-170-4zm-88 1033l82-17c-71-34-113-91-127-171-6-35-6-69 2-103 7-33 19-59 35-78 16-19 38-34 64-45 18-8 47-16 86-24l343-69 18 102-307 62c-49 10-82 19-98 26-24 11-41 29-51 52-11 23-13 50-8 81 5 30 17 58 36 81 19 24 42 39 69 45 27 6 64 4 111-5l296-60 18 102-554 112-16-91zm240 653l-5 108c-58-12-105-39-140-81-35-43-55-99-60-170-7-89 14-161 60-218 46-56 115-88 207-96 94-8 169 12 225 60 56 48 87 114 93 198 6 81-15 149-62 205-47 56-117 88-210 96-6 0-14 1-25 2l-33-453c-61 9-107 32-137 69-30 37-43 80-40 131 3 38 14 69 35 94 20 25 51 44 93 56zm128-351l25 339c47-9 81-25 103-48 34-36 49-80 46-132-3-47-21-86-53-115-32-29-72-44-121-43zm-303 603l563-13 2 93-86 2c40 23 67 44 80 64 13 20 20 42 21 66 1 35-9 71-28 107l-89-35c13-25 19-51 18-76 0-23-7-43-20-60-13-18-30-30-53-37-34-11-71-16-112-15l-294 7-2-103zm180 1127l-17 100c-64-14-113-45-147-92-34-47-50-104-47-171 3-83 31-149 84-197 52-48 125-70 219-65 61 3 113 16 158 40 44 24 77 59 98 104 21 46 30 94 28 147-3 66-20 119-53 160-33 41-78 65-135 74l-10-101c38-8 67-23 87-47 20-23 31-52 32-87 2-52-13-95-46-130-33-34-87-53-161-57-76-4-131 9-166 39-35 30-54 70-56 120-2 41 8 75 30 103 22 28 56 47 103 57z"/><path d="m19665 9571c-27-41-46-80-56-116-10-36-13-75-10-115 5-67 23-117 56-150 33-33 72-48 119-44 27 2 52 11 74 27 22 16 39 35 51 58 12 23 21 49 26 77 3 21 6 52 8 93 3 84 10 146 19 187 13 1 21 2 25 3 39 3 67-4 84-22 23-25 37-63 41-115 4-49-2-85-16-110-14-25-41-44-80-58l20-100c39 13 70 30 93 53 23 23 40 55 50 96 10 41 14 88 10 140-4 52-12 94-26 126-14 31-29 54-48 68-18 14-41 23-67 27-16 2-46 1-88-2l-126-11c-88-7-144-10-168-8-24 2-47 9-70 19l8-108c21-9 45-13 72-14zm212 10c-11-39-19-96-24-172-3-43-7-74-12-92-6-18-15-33-28-43-13-11-27-17-44-18-25-2-47 6-65 26-18 20-29 49-32 89-3 40 3 76 16 108 14 32 34 57 60 74 21 13 52 21 94 25l35 4zm-301 238l562 43-6 93-86-7c38 27 63 51 75 72 11 21 16 44 15 68-2 35-15 69-37 104l-85-44c15-24 23-49 24-74 1-22-4-43-15-62-11-19-28-33-49-42-33-14-70-23-110-26l-294-23 7-103zm-26 392l561 54-8 93-80-8c57 50 83 118 76 202-3 37-12 70-27 99-15 29-33 51-53 64-21 13-45 22-73 25-18 2-49 1-93-3l-345-33 8-103 341 33c39 4 68 3 88-4 20-6 36-19 49-38 13-19 21-43 23-70 4-44-6-83-29-117-23-34-71-55-142-62l-306-30 8-103zm-18 1055c-27-41-45-80-54-117-9-37-12-75-9-116 6-67 25-117 58-149 33-33 73-47 120-42 27 3 52 12 73 28 22 16 38 36 50 59 12 23 20 49 25 77 3 21 5 52 6 93 2 84 8 147 17 187 13 2 21 3 25 3 39 4 67-3 84-21 24-24 38-62 42-114 4-49-1-85-14-110-14-25-40-45-79-60l22-99c39 13 70 31 93 55 23 24 39 56 49 97 10 41 12 88 8 140-4 52-14 94-28 125-14 31-30 54-49 67-18 14-41 22-68 26-17 2-46 1-88-4l-126-13c-88-9-144-12-168-10-24 2-47 8-70 18l9-108c21-8 45-13 72-13zm212 13c-11-39-18-96-21-172-2-43-6-74-11-92-6-18-15-33-27-44-13-11-27-17-44-19-25-3-47 6-66 25-19 19-30 49-33 89-3 40 1 76 15 108 13 32 33 57 59 75 20 13 52 22 93 26l35 4zm-318 400l581-171-10 110-348 95c-37 10-76 19-116 27 29 12 63 29 103 50l330 171-9 106-540-289 9-99zm-2 823c-27-41-44-80-54-117-9-37-12-75-8-116 6-67 26-116 59-149 33-33 73-47 120-42 27 3 52 12 73 28 21 16 38 36 50 59 12 23 20 49 25 77 3 21 5 52 6 93 2 84 7 147 16 187 13 2 21 3 25 3 39 4 67-3 84-21 24-24 38-62 43-114 4-49 0-85-14-110-14-25-40-45-79-60l22-99c39 13 70 32 93 55 23 24 39 56 48 97 10 41 12 88 7 140-5 52-14 94-28 125-14 31-30 54-49 67-18 13-41 22-68 25-17 2-46 0-88-4l-126-13c-88-9-144-13-168-11-24 2-47 8-70 18l10-108c21-8 45-12 72-13zm211 14c-11-39-18-96-21-172-2-43-5-74-11-92-5-18-15-33-27-44-13-11-27-17-44-19-25-3-47 6-66 25-19 19-30 49-33 89-4 40 1 76 14 108 13 32 33 58 59 75 20 13 51 22 93 26l35 4zm-304 231l774 81-9 103-774-81 9-103zm649 305l110 12-10 110-88-9c-47-5-80-14-100-28-27-20-46-47-57-84l40-21c6 21 17 38 32 50 16 12 38 20 67 24l5-54zm-16 177l110 12-10 110-88-9c-47-5-80-14-100-28-27-20-46-47-57-84l40-21c6 21 17 38 32 50 16 12 38 20 67 24l5-54z"/></g></g></g><g stroke="#201e1e"><path d="m13757 11422c-249 60-421 261-430 538-5 176 70 336 198 450 69 62 143 90 233 87 95-3 276-19 283-156 7-148-221-209-321-213-134-6-230 99-306 226-61 102-110 209-153 320-35 92-61 150-54 248 30 131 82 247 148 343 153 224 283 267 496 228" fill="none" stroke-width="100"/><path d="m15657 10982c109 0 198 96 198 214 0 118-89 214-198 214-109 0-198-96-198-214 0-118 89-214 198-214z" fill="#201e1e" stroke-width="7.62"/><path d="m18606 10568c-249 60-421 261-430 538-5 176 70 336 198 450 69 62 143 90 233 87 95-3 276-19 283-156 7-148-221-209-321-213-134-6-230 99-306 226-61 102-110 209-153 320-35 92-61 150-54 248 30 131 82 247 148 343 153 224 283 267 496 228" fill="none" stroke-width="100"/><g stroke-linejoin="round" stroke-linecap="round"><g stroke-width="100"><g fill="none"><path d="m17899 15096c8-288-81-399-306-572-115-5-230-9-345-14-85 25-171 51-256 76 49 45 97 91 146 136 268 93 522 216 761 373z"/><path d="m18054 15156c-54-7-104 3-125 72-45 149 44 220 181 221 51 0 78-36 93-65 43-79-30-213-149-228z"/><path d="m15372 15994c263-55 528-91 778-128 340-51 683-44 1026-36"/><path d="m15371 16274c285-80 565-141 849-174 301-35 654-24 957-24"/><path d="m15407 16561c282-64 570-137 848-173 320-41 634-37 956-40"/><path d="m17079 15564c169 2 265 25 338 83 72 59 122 154 198 303 29 82 57 164 86 245 67 204 131 409 31 620-135 284-358 303-612 338-474 31-966 25-1440 56-132 1-238-3-336-32-91-27-166-70-224-129-74-76-119-178-131-308 3-140 7-280 10-420 29-105 57-211 86-316 40-80 90-137 146-181 112-89 244-139 382-171 163-38 328-58 495-71 325-24 647-23 972-18z"/><path d="m14346 16818c8-170-9-334 94-476 92-127 211-117 286 25 73 138 61 277 63 431 2 119 24 188-69 269-34 30-73 42-144 40-73-2-127-22-170-62-80-73-65-123-60-227z"/><path d="m14788 16677c-6-155-19-253-86-343-77-104-198-95-281 23-51 73-62 178-72 312 147 7 291 10 438 7z"/><path d="m14109 17445c1-226-12-488 10-740 28-314 111-612 345-806 228-189 483-284 781-381 385-125 783-199 1220-211 336-3 647 35 942 128 168 53 331 124 490 215 158 90 268 203 364 335 244 334 331 687 410 1090 5 16 10 32 15 48m-1438 499c-755 94-1534 47-2295 51-82 0-152-6-220-18-98-17-195-44-293-73-97-29-170-52-240-87-98-49-126-91-169-88-60 3-96 37-121 83-51 92-58 154-35 215 18 50 45 88 77 119 62 60 129 96 199 119 117 39 244 42 375 59 260 18 519 43 780 37 779-39 1783 52 2560-160 272-74 524-217 769-293 109-39 325-76 355-224 6-31 3-68-10-119-14-56-38-114-90-134-51-19-157 3-289 45-467 150-864 407-1352 468z"/><path d="m17291 13253c-97 108-179 213-319 256-59 18-123 21-216 16-204-29-306-67-465-202 23-95 59-179 108-253 37-58 80-107 130-150 62-54 127-94 196-122 108-42 218-58 330-43 94 16 187 40 274 100-21 136-33 262-37 397z"/><path d="m18006 17413l741-307"/><path d="m15308 18038c-260-12-520-24-780-37 2 183-53 577 96 710 144 129 498 166 625-10 113-157 63-480 59-663z"/><path d="m17996 18522c70 30 152 25 307-19 93-26 207-52 277-121 37-36 62-84 66-150 4-62-16-147-44-236-40-130-97-266-123-355-231 105-471 182-710 262 8 256-23 512 226 619z"/><path d="m17901 15643c47-65 76-148 113-210-362-196-620-285-1024-361-200-38-391-55-580-52-744 12-1437 387-1956 716 1 55 2 101 3 157 244-154 500-273 761-368 395-143 782-182 1182-209 302-21 584 9 861 81 215 57 426 140 639 246z"/><path d="m14545 15576c-1 63-18 133-91 154 1 4 1 9 2 13 368-227 869-506 1355-642 186-52 373-83 596-83 516 1 998 123 1465 343 20 9 39 19 59 28-2-5-4-10-6-15-245-251-421-333-757-422-226-60-457-95-700-102-741-22-1402 425-1923 726z"/><path d="m14473 15484c175-162 426-328 672-466"/><path d="m14350 15701c-18-19-31-41-36-72-5-39 19-77 53-104 34-27 77-44 109-39 84 15 121 154 52 211-25 21-60 33-97 33-33 0-63-10-82-29z"/><path d="m17650 13711c-144-92-280-229-359-457 9-133 19-267 28-400 91 57 173 127 232 229 67 103 105 209 115 318 15 112 3 213-17 311z"/><path d="m14677 15328l5-436 378-213 478-120 197 4"/><path d="m14677 15316c2-146 3-279 5-425 157-88 307-155 458-206 309-103 619-136 987-139 313-2 595 49 876 132 347 102 679 267 982 474-48 22-67 96-85 171-124-101-237-182-359-244-223-114-535-188-779-212-147-15-295-17-444-17-80-80-161-160-241-240-486 165-969 383-1400 705z"/></g><g fill="#fefefe"><path d="m16207 14446c115-61 231-121 347-179 49-25 98-49 148-73 125 170 250 339 376 509-65 35-131 69-196 104-101 56-201 113-305 168-239 124-282 81-472-117-96-100-191-199-287-299-423 20-765 126-1137 333 23-142 77-202 159-316 44-61 89-122 134-182 103 15 180 17 284-2 100-19 195-53 264-145 171 51 337 115 501 186 88 38 98 58 182 13z"/><path d="m16554 14267c49-24 98-49 148-73 125 170 250 339 376 509-65 35-130 70-196 104-105-185-212-363-328-540z"/></g><g fill="none"><path d="m17406 19885c-59-128-119-256-177-384-98-213-66-241-232-94-66 59-139 107-208 161-135 104-126 84-48 243 62 127 126 250 197 358 91 138 100 144 249 87 59-22 110-48 152-78 140-99 131-154 67-293z"/><path d="m16106 19582c119-94 237-187 356-281 154-122 163-93 42-254-54-72-108-144-161-216-106-142-83-140-202-12-118 126-235 253-353 379-108 116-109 95-16 224 32 45 65 90 97 135 112 155 90 141 237 25z"/><path d="m17701 18682c22 12 43 25 65 37 110 63 220 126 330 188 123 70 121 50 70 190-17 45-33 88-49 134-50 136-44 108-176 85-144-25-292-40-434-68-68-13-103-39-122-75-52-103-4-224 59-334 60-105 78-157 125-171 28-8 67-2 132 14z"/><path d="m17510 12776c53 2 88 8 120 19 67 25 110 60 137 108 88 159 145 322 225 474 95 179 200 287 325 358 221 126 537 186 738 191-13 103-19 195-19 286-1 264-15 529 15 792 13 112 16 202 1 285-34 195-149 311-290 391-71 40-146 71-222 99-152 55-181 67-279 205-99-145-221-256-361-341 31-73 62-146 93-219 83 43 156 41 210-41 27-82 5-149-73-199-99-13-183-38-232-88 6-291-85-402-306-572-194-13-387-25-581-38-27-72-54-143-81-215 166 7 322-38 465-154 159-116 243-306 276-546 13-180-28-343-121-490-17-24-34-48-52-72 3-78 6-156 10-234z"/><path d="m16479 16885c29-106 5-200-15-305-47 5-94 11-141 16-4 110 2 192 23 300 44-4 89-7 133-11z"/><path d="m14971 14216c164 38 326 3 487-84 22 38 43 76 65 114-75 78-139 105-241 135-102 29-204 22-308 12-1-59-3-119-4-178z"/><path d="m17507 12917c3-157 25-263-51-400-72-128-150-153-278-122 125 138 111 243 104 433 6 22 12 43 17 65 42-10 84-20 126-31 18 14 36 29 54 43 15 12 47 50 28 11z"/><path d="m16684 12696c17-128 19-255 144-320 81-42 164-10 245 17-125 109-135 146-151 324-35 25-71 51-106 76-21-30-43-60-64-90-22-2-45-4-67-6z"/><path d="m15103 12589c418 0 757 367 757 820 0 453-339 820-757 820-255 0-480-136-618-345-1-1-1-4-3-4-199 19-233-93-89-181 2-1-1-4-2-6-30-88-46-184-46-283 0-453 339-820 757-820z"/></g></g><g fill="none"><path d="m14613 13743c61 69 118 129 177 177 99 80 207 127 357 125 134-2 237-36 325-101 90-66 172-164 237-292" stroke-width="75"/><g stroke-width="100"><path d="m16434 13803c86 122 162 196 297 259 60 28 125 44 208 41 103-3 170-27 232-69 68-46 110-89 144-141 32-48 57-104 87-174"/><path d="m14706 14795c-68 89-136 178-204 266-71-68-142-136-214-204 119-123 258-267 377-389 48 53 75 127 123 180-27 49-55 98-82 147z"/><path d="m14678 15184c-59-41-117-82-176-123 60-79 121-158 181-237-2 120-4 240-5 359z"/><path d="m14396 14959c107-130 214-260 322-390-24-26-28-74-51-101-119 123-258 267-377 389 36 34 71 68 107 102z"/><path d="m14863 14186c-56 53-89 80-114 130-62 124-44 239 40 331 62-85 125-169 187-254-1-59-3-119-4-178-36-10-73-20-109-30z"/><path d="m14420 14721c-59-115-117-192-98-328 7-48 19-97 65-144 51-52 98-79 147-91 47-12 102-9 156-1-8 35-14 78-11 115 3 39 14 76 44 110-20 60-12 116 7 175-21-10-61-39-85-68-75 77-150 155-226 232z"/><path d="m14714 14113c-36 53-33 81-36 147 6 64 5 78 45 123 29-102 63-126 139-197-49-25-99-49-148-74z"/><path d="m17281 12828c10-149 22-275-76-399-30-38-47-59-68-60-40-3-90 41-117 70-84 91-83 153-99 277 106 2 102 8 141 118 114-74 115-95 218-6z"/></g></g><g stroke-width="100"><path d="m14525 12951c10 118 27 230 73 316-35-4-70-7-106-11 14 58 22 123 20 201-27-29-57-52-91-68 6 65 20 147 8 209-3 17-9 32-20 44-26 29-69 69-111 94-64-201-86-363-61-506 37-214 106-320 256-448 29-177 50-241 170-324-8 66-19 91 6 150 46-16 78-47 102-78 24-30 89-2 119-23 64-65 121-150 211-182-28 64-32 123-13 180 58-58 155-107 211-112 21 48 21 71 60 101 86 19 172 38 258 57-51 5-98 16-132 46 79 68 138 151 184 242-67-43-137-78-209-106 21 74 30 149 33 223-59-62-123-116-199-158 5 44-1 88-13 133-39-68-92-120-156-158 2 60 3 120 5 180-162-184-175-253-407-246 62 49 102 124 135 210-63-48-133-78-211-88-41 41-83 82-124 123z" fill="#201e1e"/><ellipse cx="16972" cy="13512" rx="703" ry="761" fill="none"/><g fill="#fefefe"><ellipse cx="16950" cy="12834" rx="113" ry="122"/><ellipse cx="17186" cy="12894" rx="113" ry="122"/><path d="m17090 17073c-62-117-76-97-201-103-363 46-726 93-1089 139-38 36-48 87-45 144 54 142 108 284 162 426 35 93 26 89 118 82 299-24 598-47 897-71 116-9 189 11 214-139 5-32 2-66-6-125-17-118-33-236-50-354z"/></g><g fill="none"><path d="m17038 17433c-3-45-8-90-13-134-22-107 3-217-108-206-300 31-599 62-899 93-141 15-116 13-107 164 18 59 37 118 55 177 63 109 50 124 167 110 262-31 526-46 783-106 98-23 129 4 122-98z"/><path d="m16726 13343c194-45 292-188 428-332-39-12-74-56-90-102-39 21-68 44-113 47-51-6-90-29-107-85-43 31-88 57-138 64-52-2-83-30-105-70-107 81-201 177-262 316-16 47-32 94-47 141 173 39 235 66 435 20z"/></g><path d="m17014 14323c25-6 180-69 138-112-18-18-40-28-64-31-99-14-237 82-302 128 97 132 194 263 291 395 134-17 268-37 401-50 83-9 58-80-2-77-79 3-158 6-238 9 96-9 193-18 289-27 115-11 70-113-24-103-104 11-166 12-270 23 108-19 175-29 283-48 95-17 60-109-35-91-67 13-133 25-200 38-37 7-36 4-73 11 102-26 165-42 267-68 105-27 50-131-27-108-150 44-251 76-401 120-11-3-23-5-34-8z" fill="#fefefe"/></g><g fill="#201e1e" stroke-width="75"><path d="m15014 13399c35-11 75 21 89 72 14 51-3 102-39 113-35 11-75-21-89-72-14-51 3-102 39-113z"/><path d="m15516 13305c36-10 74 25 86 76 12 52-7 102-43 111-36 10-74-25-86-76-12-52 7-102 43-111z"/><path d="m17143 13576c30 0 54 30 54 67 0 37-24 67-54 67-30 0-54-30-54-67 0-37 24-67 54-67z"/><path d="m16605 13562c30 0 54 30 54 67 0 37-24 67-54 67-30 0-54-30-54-67 0-37 24-67 54-67z"/></g><g stroke-width="100"><g fill="none"><path d="m16496 17379c-36 136-71 216-126 299-75 112-196 218-169 375 30 173 293 278 343 490 40 167-18 269-78 418"/><path d="m16878 19431c-24-49-47-98-71-147 3-62 7-124 10-185 39-233 119-501-6-719-102-179-253-317-301-532-33-150-23-278-16-468"/><path d="m17402 18901c-81-79-134-174-179-274-73-162-125-338-239-484-289-262-349-383-489-764"/><path d="m15924 19284l-83-144"/><path d="m16074 19194l-132-162"/><path d="m16162 19126l-135-185"/><path d="m17093 19769l174-183"/><path d="m17196 19905l152-144"/><path d="m17284 20008l131-103"/><path d="m17767 18930l33-192"/><path d="m17882 19020l42-211"/><path d="m17996 19082l73-190"/><path d="m17548 19127c47-99 75-198 111-317 16-74 58-123-39-143-74-15-81 7-145 117-43 73-79 143-104 224-7 48-7 89 2 138 11 37 30 62 64 80 77 18 76-25 110-98z"/><path d="m16715 19745c79-33 144-67 208-107 99-62 184-132 270-212-70-152-56-127-182-29-79 61-157 122-236 183-94 73-122 57-60 166z"/><path d="m16299 19040c30 45 61 88 95 131 73 93 72 136 165 51 55-50 28-63-53-172-65-87-129-173-194-260-53-71-59-88-90-60-59 56-51 64-18 138 26 60 57 115 94 171z"/></g><g fill="#fefefe"><path d="m17424 12863c84 0 128 122 88 198-16 31-52 46-88 46-62 0-113-55-113-122 0-67 29-122 113-122z"/><path d="m16705 12692c54-5 113 55 113 122 0 67-50 122-113 122-62 0-122-60-113-122 10-62 59-117 113-122z"/><path d="m16336 14378c-71-151-129-272-200-423 33-14 192-137 177-170-35-78-120-41-177-24-2 1-4-1-2-3 36-99 53-166 52-250 0-64 0-119-48-135-35-12-53 57-61 131-8 70-7 131-8 149-1 2-5 2-6-2-10-48-23-94-36-139-11-38-17-60-29-76-44-61-72-41-75 27-4 71 21 142 36 217 0 1-1 1-1 1-22-27-43-57-64-85-27-36-38-68-58-78-28-15-46-11-57 1-28 31-6 87 26 142 28 48 69 96 85 121 1 1-1 3-2 2-33-12-65-23-98-33-44-13-59-30-74 3-52 111 265 216 318 240 10 152 20 305 30 457 17 6 34 13 51 19 86 4 150-53 221-92z"/></g><g fill="none"><path d="m17931 16775c-4-171-31-333 62-482 83-134 202-133 287 3 82 132 79 272 92 425 10 118 36 186-51 274-32 32-70 48-141 51-73 4-128-12-174-49-84-67-73-117-75-221z"/><path d="m18363 16600c-17-154-36-251-108-335-84-97-204-79-279 45-46 77-49 183-50 317 147-4 291-13 438-27z"/></g></g></g><g fill="#201e1e"><g stroke-width="25"><g font-family="&apos;Monotype Corsiva&apos;" font-style="italic" font-size="1602.27"><text x="10500" y="14850" transform="matrix(.97551 0 0 1.19021 3547.79 6131.01)">Texto 01</text><text x="10500" y="14850" transform="matrix(1.1056 0 0 1.19021 1951.99 8346.67)">Texto 02</text></g><path d="m16225 24681l21 29c-104 106-192 160-267 160-30 0-53-11-69-33-16-22-24-57-24-105 0-97 28-194 83-290 62-110 136-164 222-164 30 0 53 8 69 24 16 16 24 38 24 67 0 30-10 59-29 87-19 29-53 59-102 89-25 15-77 42-158 81-4 25-6 48-6 70 0 32 5 55 14 67 10 13 23 19 42 19 17 0 36-5 57-16 28-14 69-43 123-86zm-222-98c68-33 119-68 154-106 23-26 35-53 35-78 0-19-5-35-14-47-10-11-22-17-37-17-16 0-31 6-46 19-20 17-37 42-50 76-20 50-33 101-41 153z" fill-rule="nonzero"/></g><text x="10500" y="14850" font-family="&apos;Arial&apos;" stroke-width="50" font-size="641.82" transform="matrix(1.11992 0 0 1.19021 2727.73 9822.92)">00.00.0000</text></g></g><g fill="#201e1e" font-family="&apos;Arial Black&apos;" font-weight="900" font-size="529.17"><text x="10500" y="14850" transform="matrix(1.09928 0 0 1.19021 3926.58 3606.95)">NN 1</text><text x="10500" y="14850" transform="matrix(1.09928 0 0 1.19021 3933.12 4188.91)">NN 2</text></g></g></g><g fill="#373435" font-family="&apos;Arial&apos;" font-size="423.33"><text x="1260" y="28030">DESC 1</text><text x="1253" y="28538">DESC 2</text><text x="1242" y="29028">DESC 3</text></g></svg>