<svg xmlns="http://www.w3.org/2000/svg" width="765" height="1260" viewBox="0 0 21590 35560" shape-rendering="geometricPrecision" image-rendering="optimizeQuality" fill-rule="evenodd" clip-rule="evenodd"><defs><clipPath id="0"><path d="m7365 6473c-2307-63-6003 1841-6010 6381-2 1213 465 5249 576 6851 133 1921 231 4655 272 6601 18 1684 404 2660 1144 3054 985 346 2007 448 3085 195 1114-287 1668-1182 1684-2992-42-2337-323-6382 114-8507 565-2750 1279-3111 1554-6423 166-1993 105-5091-2418-5160z"/></clipPath><clipPath id="1"><path d="m14241 6473c2307-63 6003 1841 6010 6381 2 1213-465 5249-576 6851-133 1921-231 4655-272 6601-18 1684-404 2660-1144 3054-985 346-2007 448-3085 195-1114-287-1668-1182-1684-2992 42-2337 323-6382-114-8507-565-2750-1279-3111-1554-6423-166-1993-105-5091 2418-5160z"/></clipPath></defs><g clip-path="url(#0)"><g><g stroke="#201e1e"><g fill="none" stroke-width="100"><path d="m6533 8415c-226 50-383 219-391 452-5 148 64 282 180 378 63 52 130 76 212 73 86-3 251-16 257-131 6-124-201-176-292-179-122-5-209 83-279 190-56 85-100 175-139 269-32 77-56 126-49 208 27 110 74 207 135 289 140 189 257 224 451 192"/><path d="m4757 9517c-226 50-383 219-391 452-5 148 64 282 180 378 63 52 130 76 212 73 86-3 252-16 257-131 6-124-201-176-292-179-122-5-209 83-279 190-56 85-100 175-139 269-32 77-56 126-49 208 27 110 74 207 135 289 140 189 257 224 451 192"/><path d="m5612 11800c-226 50-383 219-391 452-5 148 64 282 180 378 63 52 130 76 212 73 86-3 252-16 257-131 6-124-201-176-292-179-122-5-209 83-279 189-56 85-100 175-139 269-32 77-56 126-49 208 27 110 74 207 135 289 140 189 257 224 451 192"/><path d="m2993 12751c-226 50-383 219-391 452-5 148 64 282 180 378 63 52 130 76 212 73 86-3 252-16 257-131 6-124-201-176-292-179-122-5-209 83-279 189-56 85-100 175-139 269-32 77-56 126-49 208 27 110 74 207 135 289 140 189 257 224 451 192"/></g><g fill="#201e1e" stroke-width="7.62"><path d="m7386 10750c99 0 180 81 180 180 0 99-81 180-180 180-99 0-180-81-180-180 0-99 81-180 180-180z"/><path d="m3352 10260c99 0 180 81 180 180 0 99-81 180-180 180-99 0-180-81-180-180 0-99 81-180 180-180z"/><path d="m4276 12944c99 0 180 81 180 180 0 99-81 180-180 180-99 0-180-81-180-180 0-99 81-180 180-180z"/><path d="m6794 13279c99 0 180 81 180 180 0 99-81 180-180 180-99 0-180-81-180-180 0-99 81-180 180-180z"/><path d="m3709 14220c99 0 180 81 180 180 0 99-81 180-180 180-99 0-180-81-180-180 0-99 81-180 180-180z"/></g></g><g fill="#201e1e"><path d="m4313 15163c99 0 180 81 180 180 0 99-81 180-180 180-99 0-180-81-180-180 0-99 81-180 180-180"/><path d="m5518 8103c99 0 180 81 180 180 0 99-81 180-180 180-99 0-180-81-180-180 0-99 81-180 180-180z" stroke="#201e1e" stroke-width="7.62"/></g><g fill="#fff"><path d="m7527 15436l-11-12z"/><path d="m6393 15459c77-41 220-2 36-153-52-42-197-100-224-149l-93-14c-91-15 112 153 114 155 57 57 108 110 167 161"/><path d="m5898 15519c136-90 121-142 343-142-13-49-215-246-269-246h-234l-14 6 174 381z"/><path d="m5224 15377c-135 79-150 161-199 292l289-63 8 18 148-387c-118 10-173 92-246 140"/><path d="m5902 15669l-129-35v-59c72 6 90 58 129 58 32 0 32-6 58-12l26 57-85-10zm0 0c24 17 54 35 94 35h47c41 0 113-105 234-105 33 0 67 27 82 47 18-12 187-50 187-94 0-27-8-35-35-35h-35c-17 0-77 48-117 58-21-40-77-129-129-129h-94c-107 0-181 152-234 152h-12c-23 0-62-41-129-47v70c0 26 9 26 23 47h117z"/></g><g stroke="#201e1e"><g fill="#201e1e" fill-rule="nonzero" stroke-width="50"><path d="m1789 15812l100-9 9 92-80 8c-43 4-74 2-94-7-27-11-48-31-64-59l32-24c9 17 21 29 36 36 15 7 37 10 65 8l-4-45zm-14-149l100-9 9 92-80 8c-43 4-74 2-94-7-27-11-48-31-64-59l32-24c9 17 21 29 36 36 15 7 37 10 65 8l-4-45zm575-176l-704 65-9-96 519-421-553 51-8-90 704-65 9 96-519 421 553-51 8 90zm-320-650c-94 7-166-15-215-64-41-41-64-94-68-157-5-70 14-129 57-177 43-48 105-75 186-80 66-5 118 2 157 19 39 17 70 44 94 80 24 36 37 77 40 121 5 72-14 131-56 178-43 47-107 74-193 80zm-6-89c65-5 113-22 144-53 30-31 44-68 41-112-3-43-22-78-57-104-35-26-85-37-152-32-63 4-110 22-140 53-30 31-44 68-41 111 3 44 22 78 56 105 34 26 84 37 149 32zm69-464l-20-85c34-7 59-23 76-46 17-23 23-55 20-94-3-40-13-69-31-87-18-18-37-26-59-24-20 2-34 11-44 30-7 13-14 43-22 91-11 65-21 109-31 135-10 25-25 45-44 59-20 14-42 22-67 24-23 2-44-2-64-11-20-9-37-22-52-39-11-13-21-30-29-53-9-23-14-47-16-74-3-40 0-76 9-107 9-31 23-55 42-71 19-16 44-28 77-36l18 84c-26 6-46 19-60 38-14 20-19 46-16 80 3 40 12 67 26 83 14 16 31 23 48 22 11-1 21-5 30-13 9-8 16-19 20-35 3-9 8-35 16-78 11-62 22-106 30-131 8-25 22-45 41-61 19-16 43-24 72-27 29-2 56 4 83 19 27 15 48 38 65 68 16 31 26 66 29 106 5 66-5 118-29 155-25 37-64 62-117 76zm-38-494l-20-85c34-7 59-22 76-46 17-23 24-55 21-94-3-40-13-69-30-87-17-18-37-27-59-25-20 1-34 11-44 29-7 13-15 43-23 91-12 64-22 109-32 135-10 25-25 45-45 59-20 14-42 22-67 24-23 2-44-2-64-11-20-9-37-22-51-39-11-13-20-31-29-53-8-23-14-47-15-74-3-40 1-76 10-107 9-31 24-55 42-70 19-16 45-27 77-35l18 84c-26 6-46 18-60 38-14 19-19 46-17 80 3 40 11 68 25 84 14 16 30 24 48 22 11-1 21-5 30-13 9-8 16-19 21-35 3-9 8-35 17-78 12-62 23-106 31-131 9-25 23-45 41-60 19-15 43-24 73-26 29-2 56 5 83 20 27 15 48 38 64 69 16 31 25 66 28 107 4 66-6 118-31 155-25 37-64 62-118 75zm-135-498c-95 3-166-21-213-73-39-43-60-96-62-159-2-70 19-129 64-175 45-46 108-70 189-73 66-2 118 6 156 25 38 19 68 47 90 84 22 37 34 78 35 123 2 72-19 130-64 176-45 46-110 70-196 72zm-3-89c65-2 114-18 146-47 32-30 47-66 46-110-1-43-19-78-52-106-34-28-84-40-151-38-63 2-111 18-142 48-32 30-47 66-46 109 1 44 19 79 52 107 33 28 83 41 148 39zm105-753l-7-87c35-2 62-13 82-34 20-21 32-51 35-90 3-40-2-70-17-91-15-20-33-32-55-33-20-2-36 6-48 22-9 12-21 40-36 86-21 62-38 105-52 128-14 24-31 41-53 52-22 11-45 16-70 14-23-2-43-9-62-21-19-12-33-27-45-46-9-14-16-33-21-57-5-24-7-49-4-75 3-40 12-75 26-104 14-29 31-50 52-63 21-13 48-21 82-23l5 86c-27 2-49 11-65 28-16 17-26 43-29 76-3 40 1 68 13 86 12 18 27 28 44 29 11 1 22-2 31-8 10-6 18-17 26-31 4-8 13-33 28-75 21-60 38-101 50-125 12-23 29-41 50-53 21-12 46-17 76-15 29 2 55 13 79 32 24 19 42 45 53 78 11 33 15 69 12 109-5 66-23 116-53 149-30 33-73 52-128 57zm100-889l28-86c49 23 84 57 105 99 21 43 27 93 16 152-14 73-47 128-101 162-53 35-121 44-203 29-84-16-146-50-185-102-39-52-51-113-38-183 13-67 46-118 99-152 54-34 122-43 205-28 5 1 13 3 23 5l-70 375c56 7 101-1 136-23 35-23 56-55 64-97 6-31 3-59-10-85-12-25-36-48-69-67zm-189 254l52-281c-43-4-77 1-101 14-38 21-61 53-69 96-7 39 0 74 21 106 21 31 54 53 97 64zm391-419l-498-121 18-76 71 17c-45-50-60-109-43-178 7-30 19-56 36-79 17-23 36-38 56-46 20-8 43-12 69-11 16 1 44 6 83 15l306 74-20 84-303-73c-34-8-61-11-79-9-19 2-35 11-49 25-14 14-24 33-29 55-9 36-5 69 12 101 16 32 57 55 120 70l272 66-20 84zm137-734l76 16c-4 25-9 46-16 64-11 29-24 51-40 63-15 13-32 20-50 20-18 1-51-8-100-26l-277-103-22 60-63-23 22-60-119-44-19-100 168 63 30-81 63 23-30 81 281 105c23 9 39 13 46 12 8 0 15-3 21-8 6-5 12-14 16-26 3-9 7-21 10-37zm-468-266l-93-35 30-81 93 35-30 81zm570 213l-480-179 30-81 480 179-30 81zm79-205l-459-229 35-70 65 32c-15-25-24-54-25-84-2-31 5-61 20-92 17-34 38-58 63-73 25-15 52-20 82-16-35-63-38-124-9-182 23-46 53-75 90-86 37-12 82-5 135 21l314 157-39 78-289-144c-31-15-55-24-71-26-16-2-32 2-47 11-15 9-27 23-36 40-16 32-19 65-8 97 11 32 40 60 87 83l266 133-39 78-298-149c-34-17-64-24-87-20-24 4-43 20-57 49-11 22-15 45-13 69 2 24 12 46 30 66 18 19 48 39 90 60l238 119-39 78zm456-1108l62-66c34 42 52 87 53 135 1 48-16 96-50 144-44 61-97 95-160 104-63 9-128-11-196-60-70-50-111-107-124-171-13-64 2-124 43-182 40-55 91-87 154-95 63-8 129 13 198 62 4 3 10 8 18 14l-223 310c47 30 92 42 133 37 41-6 74-26 99-61 19-26 28-53 27-81 0-28-12-58-34-90zm-279 150l167-232c-37-22-70-32-98-30-43 3-78 22-103 58-23 32-32 67-26 105 6 37 26 71 61 99zm532-214l-382-342 52-58 54 49c-16-65-1-124 46-177 21-23 44-40 69-52 25-12 49-17 71-14 22 2 44 10 66 23 14 8 36 26 66 53l234 210-58 65-232-208c-26-24-48-39-66-46-18-7-36-7-55-1-19 6-37 17-52 35-25 27-37 59-38 95-1 36 24 75 73 119l208 187-58 65zm454-591l62 47c-14 21-28 38-41 51-23 22-43 35-63 40-19 5-37 4-54-3-16-7-43-29-79-66l-206-212-46 45-47-48 46-45-88-91 26-98 125 128 62-61 47 48-62 61 210 215c17 18 30 28 37 31 7 3 15 4 22 2 8-2 16-7 26-16 7-7 15-16 25-29zm-72-179c-60-73-85-144-74-212 10-57 39-106 88-147 54-45 113-64 177-57 64 7 122 42 173 104 42 51 68 97 76 138 9 42 5 83-10 123-16 40-41 75-75 103-55 46-114 65-178 58-63-7-123-44-178-110zm69-57c42 50 84 79 127 86 43 7 81-4 115-32 33-28 50-63 52-107 1-44-20-91-63-143-40-49-82-76-125-83-43-7-81 4-114 31-34 28-51 63-52 107-1 43 19 90 61 140zm793-277l-246-372-64 43-37-56 64-43-30-45c-19-29-31-52-35-69-5-23-3-47 7-70 10-23 30-45 62-66 20-14 45-26 73-37l31 71c-17 7-32 15-45 24-22 15-34 29-37 45-3 15 4 36 21 61l26 39 83-55 37 56-82 54 246 372-73 48zm63-347c-45-83-55-157-31-223 21-54 59-97 115-127 62-34 123-41 185-22 61 19 111 64 150 136 31 58 47 108 48 151 1 43-11 82-34 118-23 36-55 65-94 86-63 34-125 42-186 22-61-19-112-67-153-143zm78-42c31 58 67 94 108 109 41 15 80 12 119-9 38-21 62-52 71-95 10-42-2-93-34-152-30-56-66-91-106-106-41-15-80-12-118 8-38 21-62 52-72 94-10 42 1 92 32 149zm323-559l-39-91 80-34 39 91-80 34zm238 560l-200-472 80-34 200 472-80 34zm760-347c-23 35-48 62-74 81-26 19-55 33-88 43-54 15-100 14-136-4-37-18-61-48-73-89-7-24-8-48-2-71 5-23 15-43 30-60 14-17 32-32 52-45 15-9 39-20 71-34 65-27 112-51 141-71-3-11-5-19-6-22-10-34-24-56-44-65-27-13-61-13-103-1-39 11-67 27-81 46-15 19-22 47-21 85l-85 12c-3-37 2-69 13-95 11-26 31-50 60-71 29-21 65-37 107-49 42-12 78-17 107-14 29 2 52 9 69 21 17 12 31 28 42 50 7 13 15 39 26 76l32 111c22 77 38 126 47 146 9 20 22 38 37 54l-87 25c-13-15-25-34-34-57zm-59-183c-27 21-70 44-128 70-33 15-56 27-68 37-12 10-21 22-25 36-4 14-5 28 0 43 6 22 20 38 41 48 21 10 48 10 80 1 32-9 59-24 80-46 21-21 34-46 39-73 4-21 0-50-10-87l-8-31zm283 192l-162-688 85-20 162 688-85 20zm535-268l91-2c-6 54-25 98-58 132-33 34-79 56-138 66-74 12-136-2-186-40-50-38-82-99-95-181-14-85-2-154 34-208 36-54 89-86 159-98 67-11 126 3 176 43 50 39 82 100 95 184 1 5 2 13 3 23l-377 60c12 55 34 95 67 120 33 25 70 34 113 27 31-5 57-18 76-38 20-20 33-49 40-88zm-303-93l282-45c-11-42-26-72-48-91-32-29-70-40-114-33-39 6-70 25-93 55-22 31-32 68-28 113zm30-279l41-144 113-18-83 150-71 11zm500 495l36-511 78 6-5 72c18-24 40-43 68-56 28-13 58-19 92-16 38 3 68 13 91 30 23 17 39 41 46 69 45-57 100-83 165-78 51 4 89 20 114 50 25 30 36 74 32 132l-25 351-87-6 23-322c2-34 1-60-3-75-5-16-14-29-28-39-14-10-31-16-51-18-36-3-67 7-92 29-26 22-40 60-44 112l-21 297-87-6 24-332c3-38-2-68-15-88-13-20-35-32-67-34-24-2-47 3-69 14-22 11-38 29-49 53-11 24-18 59-21 106l-19 265-87-6zm1324 425l40-51c-57 20-110 10-160-29-32-25-55-57-68-96-13-39-14-80-5-123 10-43 31-85 64-127 32-40 67-71 106-93 39-22 79-31 119-28 40 4 77 18 110 44 24 19 42 41 53 66 11 25 16 51 15 76l157-200 68 54-437 556-64-50zm-58-371c-40 52-60 98-58 141 2 43 17 76 47 99 30 24 65 31 105 23 40-8 80-37 119-87 43-55 64-104 63-146-1-42-17-76-48-100-30-24-65-32-105-23-40 9-81 40-122 93zm504 778l32 85c-53 12-101 8-144-12-43-20-79-57-107-109-35-66-42-129-22-190 20-60 67-110 141-149 76-40 145-52 208-35 63 17 111 57 144 119 32 60 38 121 17 181-21 60-69 110-143 149-5 2-11 6-21 10l-178-338c-48 29-79 63-92 103-13 39-10 78 10 115 15 28 35 48 60 60 25 12 57 15 96 10zm-10-317l133 252c36-24 60-48 70-74 17-40 15-80-6-118-19-35-46-59-82-70-36-11-75-8-116 10zm-90 1202l245-57c-22-9-41-24-59-44-18-21-30-44-36-71-14-59-2-115 35-169 37-54 97-90 179-109 50-12 97-14 141-6 44 8 80 26 108 55 28 28 47 62 56 101 14 62 0 116-44 164l67-16 18 76-691 162-20-85zm381-364c-64 15-109 40-135 74-26 34-34 70-25 108 8 36 31 63 67 82 37 19 86 21 148 6 66-16 113-41 140-76 27-35 36-71 28-108-9-37-31-64-68-82-37-18-89-20-155-4zm-106 871l76-10c-63-32-98-82-107-150-4-30-2-59 7-86 8-27 20-49 36-63 16-15 36-26 61-35 17-6 43-11 80-15l315-40 11 86-281 36c-45 6-75 11-90 17-22 8-38 22-49 41-11 19-14 42-11 67 3 26 13 49 29 70 16 21 36 35 60 41 24 6 58 7 101 1l272-35 11 86-509 65-10-77zm100 546c-29-31-49-62-62-91-12-29-19-61-21-95-2-56 10-100 36-131 26-31 61-48 103-49 25-1 48 4 69 15 21 11 38 25 51 43 13 18 24 38 31 61 5 17 10 43 16 77 11 70 23 121 36 154 12 0 19 0 23 0 35-1 60-10 74-27 19-23 27-56 26-100-2-41-10-71-25-90-15-19-41-32-78-40l9-85c37 6 67 18 90 35 23 17 41 42 55 75 13 33 21 72 22 116 2 44-2 80-11 108-9 28-21 48-37 62-15 13-35 23-58 29-15 3-41 6-80 7l-115 4c-80 3-131 7-153 11-21 4-42 12-61 24l-3-91c18-9 39-16 64-19zm192-14c-14-31-27-78-38-141-6-36-13-61-20-75-7-15-17-26-29-33-13-8-26-11-42-11-23 1-42 10-56 28-15 18-21 44-20 78 1 33 10 63 25 89 15 25 36 44 62 55 20 9 49 12 87 11l32-1zm-250 229l707-6 1 87-707 6-1-87zm-199 542l251 7c-19-14-34-33-46-58-12-25-17-51-17-78 2-61 27-112 77-155 50-42 117-62 201-60 51 1 97 12 138 30 40 19 70 46 90 80 20 34 30 72 29 112-2 63-30 112-84 147l69 2-2 78-709-20 2-87zm462-255c-66-2-116 11-149 37-34 27-51 59-52 98-1 37 14 69 44 97 31 28 78 42 142 44 68 2 120-11 155-38 35-27 53-60 54-98 1-38-14-70-45-97-31-27-81-42-149-43zm-293 818l76 4c-56-43-82-98-78-167 2-30 9-58 22-83 13-26 29-44 47-56 18-12 40-19 66-23 17-3 44-3 81-1l317 17-5 87-283-15c-45-2-76-2-92 0-23 4-42 15-55 32-14 17-22 38-23 64-1 26 4 51 16 74 12 23 29 40 52 51 22 11 55 17 99 19l274 15-5 87-512-27 4-78zm117 577l-20 88c-51-19-89-49-114-89-25-41-35-91-30-150 7-74 35-131 85-171 50-39 116-55 199-48 86 8 150 36 193 84 43 48 62 108 55 178-6 68-35 121-85 160-50 39-118 54-202 47-5 0-13-1-23-3l35-380c-56-2-101 10-133 36-32 26-51 60-54 102-3 32 3 59 18 83 15 24 40 44 75 61zm165-270l-26 284c43 0 76-8 100-24 36-24 56-58 60-102 4-40-7-74-31-104-24-29-58-48-103-55zm-352 453l510 57-9 78-78-9c34 24 56 45 65 63 10 18 13 37 11 57-3 29-16 58-37 86l-76-40c14-20 22-40 25-61 2-19-2-36-11-52-10-16-24-29-44-37-30-13-63-22-99-26l-266-30 10-86zm55 963l-26 82c-56-19-97-51-123-94-26-44-34-93-24-148 12-69 44-120 97-154 52-34 121-44 205-29 54 10 100 27 138 52 38 25 63 58 77 98 14 40 17 82 9 126-10 55-31 97-65 127-34 30-77 45-130 46l2-85c35-2 63-11 84-29 21-17 33-40 38-68 8-43-2-81-28-113-26-32-73-54-139-66-68-12-119-8-154 13-35 21-57 52-64 94-6 34-1 64 16 90 16 26 46 46 87 59z"/><path d="m8769 13536c-21-37-33-71-39-103-5-31-4-64 2-97 11-55 33-95 66-119 33-24 70-32 112-24 25 5 46 15 64 30 18 15 31 33 40 54 9 21 14 43 16 67 1 18 0 44-3 78-6 70-6 123-1 158 12 3 19 4 22 5 35 7 61 4 78-9 24-18 40-48 48-91 8-40 7-71-3-93-10-22-32-41-66-58l28-81c34 15 61 33 79 55 18 22 30 50 35 86 5 35 3 75-5 118-9 43-21 77-36 102-16 25-32 42-50 52-18 10-39 14-63 15-15 0-42-4-79-12l-113-23c-79-16-129-24-151-25-22-1-43 2-65 9l18-89c20-5 42-6 66-4zm190 31c-6-34-8-82-4-146 2-36 1-62-2-78-3-16-10-29-21-39-11-10-23-17-38-20-22-5-43 0-62 14-18 14-31 38-38 71-7 33-5 63 4 92 9 28 25 51 47 68 17 13 45 23 82 31l31 7zm-300 164l499 118-18 76-76-18c31 28 50 51 57 70 7 19 9 39 4 58-7 29-23 55-47 81l-71-49c16-18 27-37 32-57 4-18 3-36-5-53-8-17-20-31-39-42-28-17-59-29-95-37l-261-62 20-85zm-79 320l493 142-22 75-70-20c43 51 55 111 35 180-9 30-22 55-39 77-18 22-37 36-58 44-21 7-44 10-69 8-16-1-44-8-82-19l-303-87 24-84 299 86c34 10 60 14 79 12 19-2 35-9 50-23 15-14 25-32 32-54 10-35 8-69-7-102-15-32-54-57-117-75l-269-77 24-84zm-197 865c-17-39-25-75-27-106-2-32 2-64 13-97 17-54 43-91 78-111 35-21 73-25 114-12 24 8 44 20 60 37 16 17 27 36 34 58 6 22 9 44 8 68-1 18-5 44-11 78-13 69-19 122-18 157 11 4 18 6 21 7 34 11 60 10 79-1 25-15 45-44 58-86 12-39 15-70 7-93-8-23-28-44-60-64l37-77c32 18 57 39 73 63 16 24 25 53 26 89 1 35-5 75-18 117-13 42-29 74-47 97-18 23-36 38-55 46-19 8-40 10-65 8-15-2-41-8-77-20l-110-35c-77-24-126-38-147-41-22-3-43-2-65 2l27-87c20-3 42-2 66 3zm186 51c-3-34 1-82 12-145 6-36 8-62 6-78-2-16-7-30-16-41-9-11-21-19-36-24-22-7-43-4-63 8-20 12-35 34-45 67-10 32-12 62-6 92 6 29 19 54 40 73 16 15 42 28 78 39l30 10zm-364 264l548 5-34 87-326-9c-35-1-71-3-108-7 22 17 49 39 79 65l250 219-32 83-408-366 30-78zm-168 670c-16-39-24-75-26-107-1-32 3-64 14-96 18-53 45-90 80-110 36-20 74-23 114-10 24 8 44 21 60 38 16 18 27 37 33 58 6 22 8 44 7 68-1 18-5 44-12 78-14 69-21 122-21 157 11 4 18 7 21 8 33 11 60 11 79 0 26-15 45-43 59-85 13-39 16-70 8-93-7-23-27-45-59-65l38-77c32 19 56 40 72 64 16 24 24 54 25 89 1 36-6 74-20 116-14 42-30 74-49 97-18 23-37 38-56 45-19 7-41 10-65 7-15-2-41-9-77-21l-109-36c-76-25-125-40-147-43-22-4-43-3-65 1l29-86c20-2 42-1 66 4zm185 54c-2-34 3-82 14-145 7-36 9-62 8-78-1-16-7-30-16-41-9-12-21-20-35-25-22-7-43-5-63 7-20 12-36 34-46 66-11 32-13 62-8 92 6 29 18 54 38 73 16 15 41 29 78 41l30 10zm-313 127l677 205-25 83-677-205 25-83zm530 367l96 29-27 89-77-23c-41-12-69-26-84-41-21-21-33-47-37-79l39-10c2 19 9 34 21 47 12 13 31 23 56 32l13-43zm-43 143l96 29-27 89-77-23c-41-12-69-26-84-41-21-21-33-47-37-79l39-10c2 19 9 34 21 47 12 13 31 23 56 32l13-43z"/></g><g stroke-linejoin="round" stroke-linecap="round"><g stroke-width="100"><g fill="none"><path d="m5962 17184c-88 91-163 179-291 215-54 15-112 18-197 14-185-24-278-56-423-170 21-80 54-151 99-212 34-48 73-90 118-126 56-46 116-79 178-102 98-35 198-49 300-36 86 13 170 33 249 84-19 114-30 221-34 334z"/><path d="m6158 16901c3-132 23-221-47-336-65-107-136-128-253-103 114 116 101 204 94 364 5 18 11 37 16 55 38-9 76-17 114-26 16 12 33 24 49 36 13 10 43 42 26 9z"/><path d="m5409 16716c16-108 17-214 131-269 73-36 149-8 223 14-114 92-123 122-137 272-32 21-64 43-97 64-20-25-39-51-58-76-20-2-41-3-61-5z"/><path d="m5952 16827c9-125 20-231-69-335-27-32-43-49-62-51-37-3-82 35-106 59-76 77-76 129-90 233 97 2 93 7 129 99 104-62 105-80 198-5z"/></g><g fill="#fefefe"><path d="m5652 16729c57 0 102 46 102 102 0 57-46 102-102 102-57 0-102-46-102-102 0-57 46-102 102-102z"/><path d="m5866 16779c57 0 102 46 102 102 0 57-46 102-102 102-57 0-102-46-102-102 0-57 46-102 102-102z"/></g><path d="m5447 17259c177-37 265-158 390-279-35-10-67-47-82-85-35 18-62 37-103 40-47-5-82-25-98-71-39 26-80 48-126 54-47-2-76-25-95-59-97 68-183 149-238 266-14 40-29 79-43 119 157 33 214 55 396 16z" fill="none"/></g><path d="m4347 17227c33-8 68 21 78 64 11 44-7 85-39 93-33 8-68-21-78-64-11-44 7-85 39-93z" fill="#201e1e" stroke-width="75"/><g fill="#fefefe" stroke-width="100"><path d="m6083 16856c76 0 117 102 80 167-15 26-48 38-80 38-57 0-102-46-102-102 0-57 26-102 102-102z"/><path d="m5428 16712c49-4 102 46 102 102 0 57-46 102-102 102-57 0-111-51-102-102 9-52 54-98 102-102z"/></g></g><path d="m5649 15057c99 0 180 81 180 180 0 99-81 180-180 180-99 0-180-81-180-180 0-99 81-180 180-180z" fill="#201e1e" stroke-width="7.62"/><g stroke-width="100"><g fill="none"><path d="m7377 14988c-226 50-383 219-391 452-5 148 64 282 180 378 63 52 130 76 212 73 86-3 252-16 257-131 6-124-201-176-292-179-122-5-209 83-279 189-56 85-100 175-139 269-32 77-56 126-49 208 27 110 74 207 135 289 140 189 257 224 451 192"/><g stroke-linejoin="round" stroke-linecap="round"><path d="m6514 18732c7-242-74-335-278-480-104-4-209-8-313-11-78 21-155 43-233 64 44 38 88 76 133 114 243 78 475 182 692 314z"/><path d="m6656 18782c-49-6-95 3-114 61-41 125 40 185 165 185 46 0 71-30 85-54 39-66-28-179-136-192z"/><path d="m4216 19486c239-47 480-76 708-107 309-43 621-37 933-30"/><path d="m4215 19721c259-67 514-119 772-146 274-29 595-20 871-20"/><path d="m4248 19963c257-54 518-115 771-146 291-35 577-31 870-33"/><path d="m5768 19125c154 2 241 21 307 70 66 49 111 129 180 254 26 69 52 138 78 206 61 171 120 343 28 521-122 238-326 255-557 284-431 26-879 21-1310 47-120 1-217-2-305-27-83-23-151-59-203-108-67-64-108-149-119-259 3-118 6-235 9-353 26-89 52-177 78-266 37-67 82-115 133-152 102-74 222-117 347-143 148-32 299-49 450-59 296-20 588-19 884-15z"/><path d="m3282 20179c7-143-8-281 86-400 84-107 192-98 260 21 66 116 55 233 58 362 2 100 22 158-63 226-31 25-67 35-131 34-67-2-115-19-155-52-72-61-59-103-54-190z"/><path d="m3684 20060c-6-130-17-213-78-288-70-87-180-80-256 19-47 62-56 150-65 262 134 6 265 8 399 6z"/><path d="m3066 20705c1-190-11-410 9-622 25-264 101-514 314-677 207-159 439-239 710-320 350-105 712-168 1110-177 306-2 589 29 857 107 153 44 301 104 446 181 144 76 244 171 331 282 222 281 301 577 373 915 5 13 9 27 14 40m-1308 419c-687 79-1396 40-2088 42-75 0-138-5-200-15-89-14-178-37-266-61-88-24-154-44-218-73-89-41-114-76-154-74-55 3-87 31-110 69-46 77-53 129-32 181 17 42 41 74 70 100 56 50 117 80 181 100 107 33 222 35 341 50 237 15 472 36 709 31 709-33 1622 43 2329-134 247-62 477-183 699-247 99-33 296-64 323-188 6-26 2-57-9-100-13-47-34-96-82-112-46-16-143 2-263 38-425 126-786 342-1230 393z"/><path d="m6611 20679l675-258"/><path d="m4157 21204c-236-10-473-20-709-31 2 154-49 484 87 597 131 108 453 139 569-9 103-132 57-403 54-557z"/><path d="m6602 21611c64 25 139 21 279-16 84-22 188-44 252-102 34-30 56-71 60-126 3-52-15-124-40-198-37-109-88-223-112-298-210 88-428 153-646 220 8 215-21 430 206 520z"/><path d="m6516 19192c43-55 70-125 103-177-329-165-564-239-931-303-182-32-356-46-528-43-677 10-1307 325-1779 602 1 47 2 85 3 132 222-129 455-230 692-309 359-120 712-153 1075-176 274-17 532 7 783 68 196 48 388 117 582 207z"/><path d="m3463 19135c-1 53-16 112-83 129 0 4 1 7 1 11 335-191 790-425 1233-540 169-44 339-70 542-70 469 1 908 104 1333 289 18 8 36 16 54 23-2-4-4-9-5-13-223-211-383-280-689-355-206-50-416-80-637-86-674-19-1275 357-1749 610z"/><path d="m3398 19058c159-136 388-276 611-391"/><path d="m3286 19241c-16-16-28-34-32-60-5-33 18-65 48-88 31-23 70-37 99-33 77 12 110 129 47 178-23 18-54 28-88 28-30 0-57-8-74-25z"/><path d="m6288 17568c-131-77-255-193-326-384 9-112 17-224 26-336 83 48 158 107 211 193 61 87 96 176 105 267 14 94 3 179-15 261z"/><path d="m3583 18927l5-366 343-179 436-101 179 3"/><path d="m3583 18917c1-122 3-234 4-357 143-74 280-130 417-173 281-87 563-114 898-116 285-2 541 41 797 111 315 86 618 224 894 398-43 19-61 81-77 144-113-85-216-153-327-205-203-96-486-158-709-178-134-13-268-14-404-14-73-67-146-134-220-201-442 138-882 322-1274 592z"/></g></g><g stroke-linejoin="round" stroke-linecap="round"><g fill="#fefefe"><path d="m4975 18186c105-51 210-101 316-150 45-21 89-41 134-62 114 143 228 285 342 428-59 29-119 58-178 88-92 47-183 95-278 141-217 104-256 68-429-98-87-84-174-168-261-251-385 17-696 105-1034 280 21-119 70-170 145-265 40-51 81-102 122-153 94 12 164 14 258-2 91-16 178-44 240-122 155 43 307 97 456 156 80 32 89 49 166 11z"/><path d="m5291 18036c45-21 90-41 134-62 114 143 228 285 342 428-59 29-119 59-178 88-95-156-193-305-298-454z"/></g><g fill="none"><path d="m6066 22756c-54-108-108-215-161-323-89-179-60-203-211-79-60 49-126 90-189 135-123 88-115 71-44 204 57 106 115 210 179 300 83 116 91 121 227 73 53-19 100-40 139-66 127-84 119-130 61-246z"/><path d="m4883 22501c108-79 216-158 324-236 140-102 148-78 39-213-49-61-98-121-147-182-96-119-75-117-184-10-107 106-214 212-321 318-98 97-99 79-14 189 30 38 59 76 89 113 102 130 82 118 215 21z"/><path d="m6335 21745c20 10 39 21 59 31 100 53 200 106 300 158 112 59 110 42 63 160-15 38-30 74-45 112-46 115-40 90-160 71-131-21-265-33-395-57-62-11-94-33-111-63-48-87-4-188 54-281 55-89 71-132 114-143 26-7 61-2 120 12z"/><path d="m6160 16783c48 2 81 6 109 16 61 21 100 50 124 91 80 133 132 271 205 398 86 151 182 241 296 301 201 106 488 156 672 160-12 87-17 164-17 240-1 222-14 445 14 666 12 94 15 170 1 240-31 164-135 262-263 329-64 34-133 60-202 83-138 47-165 56-254 172-90-121-201-215-328-287 28-61 56-123 84-184 76 36 142 34 191-34 25-69 4-125-66-167-90-11-167-32-211-74 5-244-78-338-278-480-176-11-352-21-528-32-24-60-49-120-73-181 151 6 293-32 423-129 145-98 221-257 251-459 12-151-26-288-110-412-16-20-31-40-47-60 3-66 6-131 9-197z"/><path d="m5223 20235c26-89 4-168-14-256-43 5-85 9-128 14-3 93 2 161 21 252 40-3 81-6 121-9z"/><path d="m3851 17993c149 32 297 2 443-70 20 32 40 64 59 96-68 65-126 89-219 113-93 25-186 19-280 10-1-50-2-100-4-149z"/><path d="m3971 16625c380 0 689 309 689 689 0 380-309 689-689 689-232 0-437-115-562-290-1-1-1-4-2-3-181 16-212-78-81-152 2-1-1-4-2-5-27-74-42-154-42-238 0-380 309-689 689-689z"/></g></g></g><g stroke-linejoin="round" stroke-linecap="round"><g fill="none"><path d="m3525 17595c56 58 107 108 161 149 90 67 188 107 325 105 122-2 216-31 296-84 82-56 156-138 216-245" stroke-width="75"/><g stroke-width="100"><path d="m5182 17646c78 102 147 165 270 217 55 23 113 37 189 34 94-3 154-23 211-58 62-38 100-75 131-118 29-41 52-87 79-146"/><path d="m3610 18479c-62 75-123 149-185 224-65-57-130-114-194-172 108-103 235-224 343-327 43 44 68 107 112 151-25 41-50 82-75 123z"/><path d="m3585 18806c-53-34-107-69-160-103 55-66 110-133 165-199-2 101-3 201-5 302z"/><path d="m3328 18617c98-109 195-219 293-328-22-22-25-63-47-85-108 103-235 224-343 327 32 29 65 57 97 86z"/><path d="m3752 17968c-51 45-81 67-103 109-56 104-40 200 36 278 57-71 113-142 170-213-1-50-2-100-4-149-33-8-66-17-99-25z"/><path d="m3350 18417c-53-97-107-161-89-276 6-40 17-82 59-121 46-43 90-66 134-77 43-10 93-8 142-1-7 30-13 66-10 97 3 33 13 64 40 93-18 51-11 97 7 147-19-8-55-32-77-57-68 65-137 130-205 195z"/><path d="m3617 17906c-33 44-30 68-33 124 6 53 4 65 41 104 26-86 58-106 126-165-45-21-90-41-135-62z"/></g></g><g stroke-width="100"><path d="m3445 16930c9 99 24 193 66 265-32-3-64-6-96-9 12 49 20 104 18 169-25-24-52-44-82-57 5 54 18 123 7 175-3 14-8 27-18 37-23 25-62 58-101 79-58-169-78-305-55-425 34-180 97-269 233-376 26-149 45-203 154-272-7 55-18 77 6 126 42-14 71-40 93-66 22-25 81-2 109-19 58-55 110-126 192-153-25 53-29 104-11 151 53-49 141-90 192-94 19 40 19 60 55 85 78 16 156 32 234 48-46 4-89 14-120 39 72 57 125 127 167 204-61-36-124-65-190-89 19 63 27 125 30 188-53-52-112-98-181-133 4 37-1 74-11 112-36-57-84-101-142-133 2 50 3 101 5 151-147-155-159-213-371-207 57 41 93 105 122 176-57-40-121-66-192-74-38 34-75 69-113 103z" fill="#201e1e"/><path d="m5671 16762c353 0 639 286 639 639 0 353-286 639-639 639-353 0-639-286-639-639 0-353 286-639 639-639z" fill="none"/><path d="m5779 20393c-56-98-69-81-183-87-330 39-660 78-991 117-34 30-43 73-41 121 49 119 99 239 148 358 32 78 23 75 107 69 272-20 544-40 816-59 105-8 172 10 195-116 5-26 2-56-6-105-15-99-30-198-45-297z" fill="#fefefe"/><path d="m5731 20696c-3-38-8-75-11-113-20-90 3-182-98-173-273 26-545 52-818 78-128 12-106 11-97 138 17 50 34 99 50 149 57 92 45 104 152 92 238-26 478-39 712-89 89-19 117 3 111-82z" fill="none"/><path d="m5709 18083c22-5 164-58 126-94-16-15-36-24-58-26-90-11-216 69-275 108 88 111 177 221 265 332 122-14 244-31 365-42 76-7 53-67-2-65-72 3-144 5-216 8 88-8 176-15 263-23 105-9 63-95-22-87-94 9-151 10-246 19 98-16 159-24 257-40 86-14 55-92-32-77-61 11-121 21-182 32-34 6-33 4-67 10 92-22 150-35 243-57 95-22 45-110-25-91-136 37-228 64-364 101-10-2-21-5-31-7z" fill="#fefefe"/></g><g fill="#201e1e" stroke-width="75"><path d="m3890 17306c32-9 68 18 81 61 13 43-3 86-35 95-32 9-68-18-81-61-13-43 3-86 35-95z"/><path d="m5827 17455c27 0 49 25 49 56 0 31-22 56-49 56-27 0-49-25-49-56 0-31 22-56 49-56z"/><path d="m5337 17443c27 0 49 25 49 56 0 31-22 56-49 56-27 0-49-25-49-56 0-31 22-56 49-56z"/></g><g stroke-width="100"><g fill="none"><path d="m5238 20651c-33 114-64 182-115 251-68 94-178 183-154 315 27 146 267 234 312 411 36 141-16 226-71 351"/><path d="m5586 22374c-21-41-43-83-64-124 3-52 6-104 9-156 35-196 108-421-5-604-93-150-230-266-274-447-30-126-21-233-15-393"/><path d="m6063 21929c-73-66-122-146-163-230-66-136-114-284-218-407-263-220-317-321-445-642"/><path d="m4717 22251l-75-121"/><path d="m4855 22175l-121-136"/><path d="m4935 22118l-124-155"/><path d="m5781 22658l159-154"/><path d="m5875 22772l138-121"/><path d="m5955 22859l119-87"/><path d="m6394 21953l30-161"/><path d="m6499 22029l39-177"/><path d="m6602 22081l67-160"/><path d="m6195 22119c42-83 69-167 101-266 14-62 53-103-35-120-67-13-73 6-132 99-39 62-72 121-94 188-7 40-6 75 2 116 10 31 27 52 58 67 70 15 69-21 100-83z"/><path d="m5438 22638c72-28 131-56 189-90 90-52 168-111 246-178-64-128-51-106-166-24-72 51-143 102-215 154-86 61-111 48-54 139z"/><path d="m5059 22046c27 38 56 74 87 110 66 78 65 114 150 43 50-42 26-53-48-145-59-73-118-146-176-218-48-59-54-74-82-50-54 47-46 54-16 116 24 50 52 97 85 144z"/></g><path d="m5093 18129c-65-127-117-229-182-355 30-12 174-115 161-143-32-66-109-34-161-20-2 0-4-1-2-3 33-83 48-140 47-210 0-54 0-100-43-113-32-10-48 48-56 110-7 58-6 110-7 125-1 2-4 2-5-2-9-41-21-79-33-117-10-32-16-51-26-64-40-51-65-34-69 22-4 60 19 120 32 182 0 1-1 1-1 1-20-23-39-48-58-71-25-30-35-57-53-66-26-12-42-9-52 0-26 26-5 73 24 119 26 40 63 81 77 101 1 1-1 2-2 2-30-10-59-20-89-28-40-11-54-25-68 2-47 93 241 181 289 202 9 128 18 256 27 384 15 5 31 11 46 16 78 4 137-45 201-77z" fill="#fefefe"/><g fill="none"><path d="m6543 20143c-3-143-28-279 57-405 76-112 184-112 261 2 75 111 72 229 84 357 9 100 33 156-46 230-29 27-64 40-128 43-67 3-116-10-158-41-77-56-66-99-68-186z"/><path d="m6936 19995c-15-129-32-211-98-282-76-82-186-67-254 38-42 65-45 153-46 266 134-4 265-11 398-23z"/></g></g></g><path d="m2650 17316c-226 50-383 219-391 452-5 148 64 282 180 378 63 52 130 76 212 73 86-3 252-16 257-131 6-124-201-176-292-179-122-5-209 83-279 189-56 85-100 175-139 269-32 77-56 126-49 208 27 110 74 207 135 289 140 189 257 224 451 192" fill="none" stroke-width="100"/><g fill="#201e1e"><g stroke-width="25"><g font-family="&apos;Monotype Corsiva&apos;" font-style="italic" font-size="1602.27"><text x="10795" y="17780" transform="matrix(.88741 0 0 1-6748.54 8269.71)">Texto 01</text><text x="10795" y="17780" transform="matrix(1.0058 0 0 1-8279.53 10131.3)">Texto 02</text></g><path d="m5069 26816l19 25c-94 89-175 134-242 134-27 0-48-9-63-27-14-18-22-48-22-88 0-82 25-163 75-244 56-92 123-138 202-138 27 0 48 7 63 20 14 14 22 32 22 56 0 25-9 49-26 73-17 24-48 49-93 75-22 13-70 35-143 68-3 21-5 40-5 59 0 27 4 46 13 57 9 11 21 16 38 16 16 0 33-5 52-13 25-12 63-36 111-73zm-202-82c62-27 109-57 140-89 21-22 32-44 32-66 0-16-4-29-13-39-9-10-20-15-34-15-14 0-28 5-41 16-18 14-33 36-46 64-18 42-30 85-38 128z" fill-rule="nonzero"/></g><text x="10795" y="17780" font-family="&apos;Arial&apos;" stroke-width="50" font-size="641.82" transform="matrix(1.01878 0 0 1-7595.1 11371.6)">00.00.0000</text></g></g><g fill="#201e1e" font-family="&apos;Arial Black&apos;" font-weight="900" font-size="529.17"><text x="4423" y="23929">NN 1</text><text x="4429" y="24418">NN 2</text></g></g></g><g clip-path="url(#1)"><g><g fill="none" stroke="#201e1e" stroke-width="100"><path d="m14567 13342c-226 50-383 219-391 452-5 148 64 282 180 378 63 52 130 76 212 73 86-3 252-16 257-131 6-124-201-176-292-179-122-5-209 83-279 189-56 85-100 175-139 269-32 77-56 126-49 208 27 110 74 207 135 289 140 189 257 224 451 192"/><path d="m16328 12353c-226 50-383 219-391 452-5 148 64 282 180 378 63 52 130 76 212 73 86-3 252-16 257-131 6-124-201-176-292-179-122-5-209 83-279 190-56 85-100 175-139 269-32 77-56 126-49 208 27 110 74 207 135 289 140 189 257 224 451 192"/><path d="m17993 9287c-226 50-383 219-391 452-5 148 64 282 180 378 63 52 130 76 212 73 86-3 252-16 257-131 6-124-201-176-292-179-122-5-209 83-279 190-56 85-100 175-139 269-32 77-56 126-49 208 27 110 74 207 135 289 140 189 257 224 451 192"/><path d="m14461 8261c-226 50-383 219-391 452-5 148 64 282 180 378 63 52 130 76 212 73 86-3 252-16 257-131 6-124-201-176-292-179-122-5-209 83-279 189-56 85-100 175-139 269-32 77-56 126-49 208 27 110 74 207 135 289 140 189 257 224 451 192"/><path d="m18535 12291c-226 50-383 219-391 452-5 148 64 282 180 378 63 52 130 76 212 73 86-3 252-16 257-131 6-124-201-176-292-179-122-5-209 83-279 190-56 85-100 175-139 269-32 77-56 126-49 208 27 110 74 207 135 289 140 189 257 224 451 192"/></g><g fill="#201e1e"><path d="m17235 14221c99 0 180 81 180 180 0 99-81 180-180 180-99 0-180-81-180-180 0-99 81-180 180-180"/><g stroke="#201e1e"><g stroke-width="7.62"><path d="m15423 8112c99 0 180 81 180 180 0 99-81 180-180 180-99 0-180-81-180-180 0-99 81-180 180-180z"/><path d="m13557 10748c99 0 180 81 180 180 0 99-81 180-180 180-99 0-180-81-180-180 0-99 81-180 180-180z"/><path d="m18606 10264c99 0 180 81 180 180 0 99-81 180-180 180-99 0-180-81-180-180 0-99 81-180 180-180z"/><path d="m19038 11638c99 0 180 81 180 180 0 99-81 180-180 180-99 0-180-81-180-180 0-99 81-180 180-180z"/><path d="m14153 13288c99 0 180 81 180 180 0 99-81 180-180 180-99 0-180-81-180-180 0-99 81-180 180-180z"/><path d="m16670 12949c99 0 180 81 180 180 0 99-81 180-180 180-99 0-180-81-180-180 0-99 81-180 180-180z"/></g><g fill-rule="nonzero" stroke-linejoin="round" stroke-linecap="round" stroke-width="50"><path d="m12772 15272l95-33 31 88-75 27c-40 14-71 20-93 16-29-4-54-18-76-42l25-31c13 14 27 23 44 26 17 3 38 0 65-8l-15-43zm-49-141l95-33 31 88-75 27c-40 14-71 20-93 16-29-4-54-18-76-42l25-31c13 14 27 23 44 26 17 3 38 0 65-8l-15-43zm518-311l-674 214-29-92 417-522-529 168-27-86 674-214 29 92-417 522 529-168 27 86zm-447-576c-92 24-166 16-224-23-48-33-80-80-96-142-18-68-10-130 23-185 33-55 89-93 168-113 64-17 116-20 158-11 41 10 77 30 107 61 30 31 50 69 62 112 18 69 11 131-23 186-33 54-92 93-175 114zm-22-86c63-17 107-43 131-79 24-36 31-75 20-117-11-42-36-72-75-92-39-19-91-21-156-4-61 16-104 42-128 78-24 36-31 75-20 116 11 42 36 73 74 93 39 20 90 21 153 4zm-16-479l-31-82c33-11 56-30 70-55 14-25 16-57 9-96-8-39-22-67-42-82-20-16-40-21-62-17-19 4-33 15-40 35-5 13-9 44-11 93-3 65-8 111-15 138-7 26-19 48-37 64-18 16-39 27-63 32-22 5-44 4-65-3-21-6-40-17-56-32-12-11-24-28-36-49-11-22-20-45-25-71-8-39-9-75-4-107 5-32 16-57 33-75 17-18 41-33 72-45l28 81c-25 9-44 24-55 45-11 21-13 48-6 81 8 39 20 66 36 80 16 14 33 19 50 16 11-2 20-8 28-16 8-9 13-21 16-37 2-9 4-36 7-79 4-63 9-108 14-134 5-26 17-48 33-65 17-18 40-29 69-35 28-6 57-3 85 9 28 12 53 32 73 60 20 29 34 63 42 102 13 65 10 118-10 157-20 40-56 70-107 90zm-96-488l-28-82c33-11 57-29 71-53 14-25 18-57 11-96-7-39-20-67-39-84-19-16-40-22-61-19-19 3-33 15-41 34-6 13-10 44-14 93-5 65-11 111-18 137-7 26-20 47-38 63-18 16-40 26-64 31-23 4-44 2-65-4-21-7-39-18-55-34-12-12-24-28-34-50-11-22-19-46-23-72-7-40-7-75-1-107 6-32 18-57 35-74 17-18 42-32 73-43l26 82c-26 8-44 23-56 44-12 21-14 48-9 81 7 39 18 66 34 80 16 14 33 20 50 17 11-2 20-7 28-16 8-9 14-21 17-37 2-9 5-35 9-79 5-63 11-108 17-133 6-26 18-47 35-64 17-17 40-28 70-33 28-5 57-1 85 11 28 12 52 33 71 62 19 29 32 63 39 103 12 66 7 118-14 157-21 39-58 68-109 87zm-183-480c-94 13-167-3-219-49-44-38-70-89-79-152-10-70 5-130 44-181 39-51 99-82 180-93 65-9 118-7 158 8 40 14 73 39 99 73 26 34 42 74 48 118 10 71-4 132-44 182-39 50-102 81-187 94zm-12-88c65-9 111-30 140-63 28-33 39-71 33-114-6-43-27-76-64-100-36-24-88-31-154-22-63 9-108 30-136 63-28 33-39 71-33 113 6 43 27 77 63 101 36 24 87 31 151 22zm16-750l-22-84c34-8 59-24 75-47 16-24 23-55 19-95-4-40-14-69-32-86-18-18-38-26-60-24-20 2-34 12-44 30-7 13-14 43-21 91-10 65-20 110-29 135-10 26-24 46-43 60-19 15-42 23-66 25-23 2-44-1-65-10-20-9-38-21-52-38-11-13-21-30-30-53-9-23-15-47-17-74-4-40-1-76 8-107 9-31 22-55 41-71 19-16 44-29 77-37l20 84c-26 6-46 19-59 39-13 20-18 46-15 80 4 40 13 67 27 83 15 16 31 23 48 21 11-1 21-5 29-13 9-8 15-20 20-35 2-9 8-35 15-78 11-62 20-106 28-132 8-25 22-46 40-61 19-16 43-25 72-28 29-3 57 3 83 18 27 15 49 37 66 67 17 31 27 66 31 106 6 66-3 118-27 155-24 37-63 63-116 78zm-77-880l7-90c53 11 95 35 126 71 31 36 48 84 52 144 4 75-15 135-59 182-43 46-107 72-190 77-86 5-154-13-204-55-50-41-77-97-81-168-4-68 16-125 60-171 44-46 108-71 192-76 5 0 13-1 23-1l22 381c56-7 98-25 126-55 28-30 41-67 39-109-2-32-12-58-30-80-18-22-46-38-83-49zm-123 292l-17-285c-43 6-74 19-95 38-32 29-46 66-44 110 2 40 18 72 46 98 28 25 65 38 110 39zm275-501l-513-3v-78h73c-56-38-83-92-83-163 0-31 6-59 17-85 11-26 26-45 44-58 18-13 39-22 64-27 16-3 44-5 84-4l315 2v87l-311-2c-35 0-62 3-79 10-17 7-32 19-42 36-10 17-16 37-16 60 0 37 11 69 35 96 23 27 68 41 133 41l280 1v87zm-68-740l77-10c4 25 6 46 6 66-1 31-7 56-17 73-11 17-24 29-40 35-17 7-51 9-103 7l-295-9-2 64-67-2 2-64-127-4-50-88 179 5 3-87 67 2-3 87 300 9c25 1 41 0 48-3 7-3 13-8 17-14 4-7 7-17 7-29 0-10 0-22-2-38zm-527-106l-99-4 3-87 99 4-3 87zm608 23l-512-19 3-87 512 19-3 87zm1-220l-509-65 10-77 72 9c-23-19-40-43-52-71-12-28-16-59-11-93 5-38 17-67 35-89 19-22 43-36 72-42-54-48-77-104-69-169 6-51 25-88 57-111 31-24 76-32 134-25l349 44-11 86-320-41c-34-4-60-5-75-1-16 4-29 12-40 26-11 14-18 30-20 50-5 36 4 67 24 94 21 27 57 43 110 50l295 38-11 86-330-42c-38-5-68-1-89 10-21 12-33 33-38 65-3 24 0 47 11 70 10 22 27 39 50 52 23 12 58 21 104 27l264 34-11 86zm36-1192l32-85c48 26 81 60 101 104 19 44 22 95 9 152-17 73-53 125-108 157-55 32-123 39-204 20-84-20-144-56-180-110-36-54-46-115-30-184 16-67 51-116 106-147 55-32 124-38 206-19 5 1 12 3 22 6l-87 372c55 10 101 4 137-17 35-21 58-52 68-94 7-31 5-59-6-85-11-26-33-49-66-70zm-200 245l65-278c-43-6-77-3-102 10-39 19-63 50-73 93-9 39-4 74 16 107 20 32 51 55 94 68zm419-400l-467-211 32-71 66 30c-35-57-38-118-9-183 13-28 30-52 50-71 21-19 42-31 64-35 22-4 45-4 69 2 16 4 42 14 79 30l287 130-36 79-284-128c-32-15-58-23-76-24-19-1-36 4-53 15-17 11-30 28-39 49-15 34-18 67-7 102 10 34 45 65 105 92l255 115-36 79zm288-690l70 33c-9 23-19 43-30 59-18 26-35 44-53 52-18 9-36 12-53 8-17-3-48-20-91-49l-245-165-36 53-56-38 36-53-105-71 5-101 148 100 49-72 56 38-49 72 249 168c21 14 35 22 42 23 8 1 15 1 22-3 7-3 15-10 22-21 5-8 11-19 18-33zm-71-212c-59-74-81-146-68-214 11-57 42-105 91-144 55-44 115-61 178-53 63 8 121 45 171 108 41 52 65 98 73 140 8 42 3 83-13 123-17 40-43 73-78 101-56 44-116 62-179 54-63-9-122-47-175-115zm70-55c41 51 82 81 125 89 43 8 81-2 115-29 34-27 52-62 54-105 2-43-17-92-59-144-39-50-80-78-123-86-43-8-81 2-115 28-34 27-53 62-55 105-2 43 17 90 57 142zm855-144l-68-440-76 12-10-66 76-12-8-54c-5-34-6-60-3-77 5-23 16-44 35-61 19-17 47-28 84-34 24-4 51-5 82-4l-1 77c-18 0-35 1-51 3-26 4-44 12-53 25-9 13-11 34-6 64l7 46 99-15 10 66-98 15 68 440-86 13zm223-290c2-95 29-164 83-209 45-37 99-55 162-54 70 1 128 25 172 72 44 47 65 111 64 192-1 66-12 117-32 155-20 37-50 66-88 86-38 20-80 30-124 29-72-1-129-25-173-72-44-47-64-113-63-199zm89 2c-1 66 12 115 40 148 28 33 64 50 108 51 43 1 79-15 109-47 29-32 44-82 46-149 1-63-13-111-41-144-28-33-64-50-107-51-44-1-80 15-109 47-29 32-44 81-45 146zm542-327l9-98 87 8-9 98-87-8zm-54 606l45-511 87 8-45 511-87-8zm829 103c-39 18-74 28-106 30-32 3-64-1-97-10-54-15-92-40-114-75-22-35-27-72-15-113 7-24 19-44 35-61 17-17 36-29 57-35 21-7 44-10 68-10 18 0 44 3 78 9 70 11 122 16 157 14 4-11 6-19 7-22 10-34 9-60-3-79-16-25-45-43-87-55-39-11-71-13-93-4-23 8-43 29-63 61l-78-35c17-33 38-58 61-74 23-17 53-26 88-29 35-2 75 2 117 15 42 12 75 27 99 44 23 17 39 35 47 54 8 19 11 40 10 64-1 15-7 41-18 78l-32 111c-22 77-34 127-37 149-3 22-1 43 3 65l-87-25c-3-20-3-42 1-66zm46-187c-34 4-83 1-146-8-36-5-62-6-78-4-16 2-30 8-41 18-11 10-19 22-23 36-6 22-3 43 10 62 13 20 35 34 68 43 32 9 63 10 92 3 29-7 53-21 72-42 14-16 27-43 37-79l9-30zm139 312l222-672 83 27-222 672-83-27zm596 56l78 46c-33 43-73 70-120 81-46 12-97 6-152-17-69-29-114-74-137-133-22-59-17-128 15-204 34-79 80-132 139-158 59-26 122-26 187 2 63 27 105 70 127 130 22 60 16 129-17 206-2 5-5 12-9 21l-351-149c-19 53-21 99-7 137 15 39 42 66 81 83 29 12 58 15 85 9 27-7 54-24 81-53zm-207-239l263 112c13-41 16-75 8-102-12-42-39-71-79-88-37-16-73-16-108-2-35 14-63 41-83 81zm173-221l111-100 105 45-150 83-66-28zm159 682l269-436 66 41-38 62c27-13 56-19 86-18 31 1 60 10 90 28 32 20 55 43 67 69 12 26 15 54 9 83 66-29 127-27 182 7 43 27 70 59 78 98 9 38-2 83-33 132l-185 299-74-46 169-275c18-29 29-52 32-68 3-16 1-32-7-48-8-16-20-29-37-39-31-19-63-25-95-17-33 8-63 34-91 79l-156 253-74-46 175-283c20-33 29-61 27-85-2-24-17-44-44-61-21-13-43-19-68-19-24 0-47 8-68 24-21 16-44 44-68 84l-140 226-74-46zm1171 814l42-50c-57 18-110 7-159-33-31-26-53-59-65-98-12-39-12-80-1-123 11-43 34-85 67-125 33-39 69-69 108-91 40-21 80-29 120-24 40 5 77 20 109 47 24 20 41 42 51 68 10 25 14 51 13 77l162-196 67 56-452 544-62-52zm-48-372c-42 50-62 97-62 140 1 43 15 76 44 100 29 24 64 33 104 26 40-7 81-35 121-84 45-54 67-102 67-144 0-42-15-76-46-102-30-25-65-33-105-26-40 8-82 38-125 90zm575 661l51 75c-48 24-96 32-143 23-47-9-90-36-130-80-50-56-72-115-67-179 5-63 38-123 100-178 64-57 128-86 193-84 65 1 121 28 168 81 46 51 66 108 60 171-6 63-40 123-103 180-4 3-10 8-17 15l-255-284c-40 40-61 81-64 122-3 41 10 78 38 109 21 24 46 38 73 44 28 6 59 1 96-14zm-86-305l191 212c30-32 46-61 50-89 7-43-5-81-34-113-27-30-59-46-97-48-38-2-74 10-110 38zm285 1155l212-136c-23-1-47-9-70-22-24-14-43-32-58-55-33-51-41-108-24-171 17-63 61-117 132-163 43-28 87-45 131-52 44-7 84-2 120 15 36 17 65 43 87 77 34 53 39 110 14 169l58-37 42 66-597 383-47-73zm238-471c-55 36-90 74-102 115-13 41-9 78 12 110 20 31 50 49 91 55 41 5 88-9 142-44 57-37 93-76 107-119 14-42 10-79-10-111-20-32-51-50-92-55-41-5-90 11-147 48zm214 843l66-38c-70-5-123-37-157-96-15-26-24-53-28-82-3-29 0-53 8-72 9-20 23-38 42-55 13-12 35-27 67-45l274-160 44 75-245 143c-39 23-65 40-76 51-17 16-27 35-29 57-2 22 3 44 16 66 13 22 31 40 54 53 23 13 47 18 71 14 25-3 56-16 93-38l237-138 44 75-443 258-39-67zm281 477c-38-18-68-39-91-62-22-23-41-50-54-81-23-51-28-97-15-135 13-39 39-67 78-84 23-10 46-14 70-12 24 2 45 9 64 21 19 12 36 27 51 46 11 14 25 36 43 65 36 61 66 104 90 130 11-5 18-7 21-9 32-14 52-32 58-53 9-28 4-62-13-102-17-37-36-62-57-74-21-12-50-15-87-9l-24-82c36-8 68-8 96-1 28 7 54 24 79 49 25 26 46 59 64 99 18 40 28 75 29 104 2 29-2 53-11 71-9 18-23 34-43 49-12 9-36 21-71 36l-105 47c-74 33-119 55-138 67-18 12-34 27-48 45l-37-83c13-15 30-29 52-41zm173-84c-25-24-54-63-87-117-19-31-35-52-47-63-12-11-25-18-39-20-15-2-29-1-43 6-21 9-35 25-42 47-7 22-4 49 10 80 14 31 32 55 56 73 24 18 50 27 78 28 22 1 50-7 85-22l29-12zm-162 311l676-208 26 83-676 208-26-83zm-43 574l244-59c-22-9-41-23-59-44-18-21-30-44-36-71-14-59-3-115 34-170 37-54 96-91 178-111 50-12 97-14 141-7 44 8 80 26 108 54 28 28 47 62 57 101 15 62 1 116-42 164l67-16 18 76-689 167-20-84zm378-367c-64 16-109 41-134 75-25 35-34 71-25 108 9 36 31 63 68 82 37 19 86 20 148 5 66-16 113-42 139-77 27-35 36-71 27-108-9-37-32-64-69-82-37-18-89-19-155-3zm-80 868l75-14c-64-29-103-76-115-143-6-30-5-58 2-86 7-28 17-50 32-65 15-16 34-28 58-38 16-7 42-13 79-20l312-58 16 85-279 52c-45 8-74 16-89 22-22 10-37 24-46 44-10 20-12 42-7 68 5 26 16 48 33 68 17 20 38 32 62 38 24 5 58 4 101-4l269-50 16 85-504 94-14-77zm219 549l-5 91c-53-10-96-33-128-68-32-36-50-83-55-142-6-75 12-135 55-183 42-47 105-74 188-81 86-7 154 10 205 50 51 40 79 96 85 166 5 68-13 126-56 172-43 47-107 74-191 80-5 0-13 1-23 1l-30-381c-56 8-97 27-125 58-27 31-40 68-36 110 3 32 13 58 32 79 19 21 47 37 85 47zm116-295l23 285c43-7 74-21 94-40 31-30 45-67 42-111-3-40-19-72-48-97-29-25-66-37-110-36zm-276 506l513-11 2 78-79 2c37 19 61 37 73 54 12 17 18 35 19 55 1 29-8 59-26 90l-81-29c11-21 17-43 16-64 0-19-7-36-18-50-12-15-28-25-48-31-31-9-65-13-102-12l-268 6-2-87zm163 947l-16 84c-58-12-102-38-134-78-31-40-46-88-43-144 3-70 29-125 76-166 48-41 114-59 199-55 55 2 103 14 144 34 40 20 70 49 89 88 19 38 28 79 26 123-2 55-18 100-48 134-30 34-71 55-123 63l-9-84c35-7 61-20 80-39 18-20 28-44 29-73 2-44-12-80-42-109-30-29-79-45-147-48-69-3-119 8-151 33-32 25-49 59-51 101-2 34 8 63 27 87 20 24 51 40 94 48z"/><path d="m19459 14090c-25-34-42-67-51-97-9-31-12-63-9-97 4-56 21-98 51-126 30-28 66-40 108-37 25 2 47 9 67 22 20 13 35 29 46 49 11 20 19 41 24 65 3 17 5 44 7 78 3 71 9 123 18 157 12 1 19 2 22 2 35 3 61-4 76-19 21-21 34-53 37-97 3-41-2-72-14-92-13-21-37-37-73-49l18-84c36 11 64 25 85 45 21 19 36 46 46 81 9 34 12 74 9 118-3 44-11 79-24 105-12 26-27 46-43 57-17 12-37 19-61 22-15 2-42 1-80-2l-115-9c-80-6-131-8-153-6-22 2-43 7-63 16l7-91c19-7 41-11 65-12zm193 8c-10-33-17-81-21-144-2-36-6-62-11-77-5-15-14-27-25-36-12-9-25-14-40-15-23-2-43 5-59 22-17 16-26 41-29 75-3 33 2 64 15 91 12 27 31 48 55 62 19 11 47 18 85 21l31 3zm-274 200l511 37-6 78-78-6c35 22 58 43 68 60 10 18 15 37 13 57-2 29-13 58-34 87l-78-37c13-20 21-41 22-62 1-19-3-36-13-52-10-16-25-28-45-35-30-12-63-19-100-22l-267-19 6-87zm-24 329l511 46-7 78-72-6c52 42 75 99 69 170-3 31-11 59-24 83-13 25-30 43-49 54-19 11-41 18-66 21-16 2-45 1-85-3l-314-28 8-87 310 28c35 3 62 2 80-3 18-5 33-16 45-32 12-16 19-36 21-59 3-37-6-69-27-98-21-29-64-46-129-52l-279-25 8-87zm-16 887c-24-35-41-67-49-98-9-31-11-63-8-97 5-56 23-98 53-126 30-28 66-39 109-36 25 2 47 10 67 23 20 13 35 30 45 49 11 20 18 41 23 65 3 17 5 44 6 78 2 71 7 123 15 157 12 1 19 2 22 3 35 3 61-3 77-18 22-20 34-52 38-96 4-41-1-72-13-92-12-21-36-37-72-50l20-83c36 11 64 26 84 46 21 20 35 47 44 82 9 34 11 74 7 118-4 44-12 79-25 105-13 26-28 45-44 57-17 11-37 19-62 22-15 1-42 0-80-3l-115-11c-80-7-131-10-153-9-22 1-43 7-64 15l8-90c19-7 41-11 65-11zm192 11c-10-33-16-81-19-145-2-36-5-62-10-77-5-15-13-28-25-37-12-9-25-15-40-16-23-2-43 5-60 21-17 16-27 41-30 75-3 33 1 64 14 91 12 27 30 48 54 63 19 11 47 18 85 22l31 3zm-290 336l529-143-9 93-316 80c-34 9-69 16-106 23 26 10 57 24 94 42l300 143-9 89-492-242 8-83zm-2 692c-24-35-40-68-49-98-8-31-11-63-8-97 5-56 23-98 53-125 30-28 66-39 109-35 25 2 47 10 67 24 20 13 34 30 45 50 11 20 18 41 22 65 3 17 5 44 5 78 1 71 6 123 15 157 12 1 19 2 22 3 35 3 61-2 77-17 22-20 35-52 39-96 4-41 0-72-13-92-12-21-36-38-72-50l20-83c35 11 64 27 84 47 21 20 35 47 44 82 9 34 11 74 7 118-4 44-13 79-26 105-13 26-28 45-44 56-17 11-37 18-62 21-15 1-42 0-80-3l-115-11c-80-8-131-11-153-9-22 1-43 7-64 15l9-90c19-7 41-10 66-11zm192 12c-10-33-16-81-19-145-2-36-5-62-10-77-5-15-13-28-25-37-12-9-25-15-40-16-23-2-43 5-60 21-17 16-27 41-30 74-3 33 1 64 13 91 12 27 30 48 54 63 19 11 47 19 85 22l31 4zm-277 194l704 68-8 87-704-68 8-87zm591 256l100 10-9 92-80-8c-43-4-73-12-91-24-25-16-42-40-52-70l36-17c5 18 15 32 30 42 14 10 35 17 61 20l4-45zm-14 148l100 10-9 92-80-8c-43-4-73-12-91-24-25-16-42-40-52-70l36-17c5 18 15 32 29 42 14 10 35 17 61 20l4-45z"/></g></g></g><g stroke="#201e1e"><path d="m14084 15645c-226 50-383 219-391 452-5 148 64 282 180 378 63 52 130 76 212 73 86-3 252-16 257-131 6-124-201-176-292-179-122-5-209 83-279 189-56 85-100 175-139 269-32 77-56 126-49 208 27 110 74 207 135 289 140 189 257 224 451 192" fill="none" stroke-width="100"/><path d="m15813 15276c99 0 180 81 180 180 0 99-81 180-180 180-99 0-180-81-180-180 0-99 81-180 180-180z" fill="#201e1e" stroke-width="7.62"/><g stroke-width="100"><g fill="none"><path d="m18495 14927c-226 50-383 219-391 452-5 148 64 282 180 378 63 52 130 76 212 73 86-3 252-16 257-131 6-124-201-176-292-179-122-5-209 83-279 190-56 85-100 175-139 269-32 77-56 126-49 208 27 110 74 207 135 289 140 189 257 224 451 192"/><g stroke-linejoin="round" stroke-linecap="round"><path d="m17852 18732c7-242-74-335-278-480-104-4-209-8-313-11-78 21-155 43-233 64 44 38 88 76 133 114 243 78 475 182 692 314z"/><path d="m17993 18782c-49-6-95 3-114 61-41 125 40 185 165 185 46 0 71-30 85-54 39-66-28-179-136-192z"/><path d="m15553 19486c239-47 480-76 708-107 309-43 621-37 933-30"/><path d="m15552 19721c259-67 514-119 772-146 274-29 595-20 871-20"/><path d="m15585 19963c257-54 518-115 771-146 291-35 577-31 870-33"/><path d="m17106 19125c154 2 241 21 307 70 66 49 111 129 180 254 26 69 52 138 78 206 61 171 120 343 28 521-122 238-326 255-557 284-431 26-879 21-1310 47-120 1-217-2-305-27-83-23-151-59-203-108-67-64-108-149-119-259 3-118 6-235 9-353 26-89 52-177 78-266 37-67 82-115 133-152 102-74 222-117 347-143 148-32 299-49 450-59 296-20 588-19 884-15z"/><path d="m14619 20179c7-143-8-281 86-400 84-107 192-98 260 21 66 116 55 233 58 362 2 100 22 158-63 226-31 25-67 35-131 34-67-2-115-19-155-52-72-61-59-103-54-190z"/><path d="m15022 20060c-6-130-17-213-78-288-70-87-180-80-256 19-47 62-56 150-65 262 134 6 265 8 399 6z"/><path d="m14404 20705c1-190-11-410 9-622 25-264 101-514 314-677 207-159 439-239 710-320 350-105 712-168 1110-177 306-2 589 29 857 107 153 44 301 104 446 181 144 76 244 171 331 282 222 281 301 577 373 915 5 13 9 27 14 40m-1308 419c-687 79-1396 40-2088 42-75 0-138-5-200-15-89-14-178-37-266-61-88-24-154-44-218-73-89-41-114-76-154-74-55 3-87 31-110 69-46 77-53 129-32 181 17 42 41 74 70 100 56 50 117 80 181 100 107 33 222 35 341 50 237 15 472 36 709 31 709-33 1622 43 2329-134 247-62 477-183 699-247 99-33 296-64 323-188 6-26 2-57-9-100-13-47-34-96-82-112-46-16-143 2-263 38-425 126-786 342-1230 393z"/><path d="m17299 17184c-88 91-163 179-291 215-54 15-112 18-197 14-185-24-278-56-423-170 21-80 54-151 99-212 34-48 73-90 118-126 56-46 116-79 178-102 98-35 198-49 300-36 86 13 170 33 249 84-19 114-30 221-34 334z"/><path d="m17949 20679l675-258"/><path d="m15495 21204c-236-10-473-20-709-31 2 154-49 484 87 597 131 108 453 139 569-9 103-132 57-403 54-557z"/><path d="m17940 21611c64 25 139 21 279-16 84-22 188-44 252-102 34-30 56-71 60-126 3-52-15-124-40-198-37-109-88-223-112-298-210 88-428 153-646 220 8 215-21 430 206 520z"/><path d="m17854 19192c43-55 70-125 103-177-329-165-564-239-931-303-182-32-356-46-528-43-677 10-1307 325-1779 602 1 47 2 85 3 132 222-129 455-230 692-309 359-120 712-153 1075-176 274-17 532 7 783 68 196 48 388 117 582 207z"/><path d="m14801 19135c-1 53-16 112-83 129 0 4 1 7 1 11 335-191 790-425 1233-540 169-44 339-70 542-70 469 1 908 104 1333 289 18 8 36 16 54 23-2-4-4-9-5-13-223-211-383-280-689-355-206-50-416-80-637-86-674-19-1275 357-1749 610z"/><path d="m14735 19058c159-136 388-276 611-391"/><path d="m14623 19241c-16-16-28-34-32-60-5-33 18-65 48-88 31-23 70-37 99-33 77 12 110 129 47 178-23 18-54 28-88 28-30 0-57-8-74-25z"/><path d="m17626 17568c-131-77-255-193-326-384 9-112 17-224 26-336 83 48 158 107 211 193 61 87 96 176 105 267 14 94 3 179-15 261z"/><path d="m14921 18927l4-366 344-179 435-101 179 3"/><path d="m14921 18917c1-122 3-234 4-357 143-74 280-130 417-173 281-87 563-114 898-116 285-2 541 41 797 111 315 86 618 224 894 398-43 19-61 81-77 144-113-85-216-153-327-205-203-96-486-158-709-178-134-13-268-14-404-14-73-67-146-134-220-201-442 138-882 322-1274 592z"/></g></g><g stroke-linejoin="round" stroke-linecap="round"><g fill="#fefefe"><path d="m16313 18186c105-51 210-101 316-150 45-21 89-41 134-62 114 143 228 285 342 428-59 29-119 58-178 88-92 47-183 95-278 141-217 104-256 68-429-98-87-84-174-168-261-251-385 17-696 105-1034 280 21-119 70-170 145-265 40-51 81-102 122-153 94 12 164 14 258-2 91-16 178-44 240-122 155 43 307 97 456 156 80 32 89 49 166 11z"/><path d="m16629 18036c45-21 90-41 134-62 114 143 228 285 342 428-59 29-119 59-178 88-95-156-193-305-298-454z"/></g><g fill="none"><path d="m17403 22756c-54-108-108-215-161-323-89-179-60-203-211-79-60 49-126 90-189 135-123 88-115 71-44 204 57 106 115 210 179 300 83 116 91 121 227 73 53-19 100-40 139-66 127-84 119-130 61-246z"/><path d="m16220 22501c108-79 216-158 324-236 140-102 148-78 39-213-49-61-98-121-147-182-96-119-75-117-184-10-107 106-214 212-321 318-98 97-99 79-14 189 30 38 59 76 89 113 102 130 82 118 215 21z"/><path d="m17672 21745c20 10 39 21 59 31 100 53 200 106 300 158 112 59 110 42 63 160-15 38-30 74-45 112-46 115-40 90-160 71-131-21-265-33-395-57-62-11-94-33-111-63-48-87-4-188 54-281 55-89 71-132 114-143 26-7 61-2 120 12z"/><path d="m17498 16783c48 2 81 6 109 16 61 21 100 50 124 91 80 133 132 271 205 398 86 151 182 241 296 301 201 106 488 156 672 160-12 87-17 164-17 240-1 222-14 445 14 666 12 94 15 170 1 240-31 164-135 262-263 329-64 34-133 60-202 83-138 47-165 56-254 172-90-121-201-215-328-287 28-61 56-123 84-184 76 36 142 34 191-34 25-69 4-125-66-167-90-11-167-32-211-74 5-244-78-338-278-480-176-11-352-21-528-32-24-60-49-120-73-181 151 6 293-32 423-129 145-98 221-257 251-459 12-151-26-288-110-412-16-20-31-40-47-60 3-66 6-131 9-197z"/><path d="m16560 20235c26-89 4-168-14-256-43 5-85 9-128 14-3 93 2 161 21 252 40-3 81-6 121-9z"/><path d="m15189 17993c149 32 297 2 443-70 20 32 40 64 59 96-68 65-126 89-219 113-93 25-186 19-280 10-1-50-2-100-4-149z"/><path d="m17495 16901c3-132 23-221-47-336-65-107-136-128-253-103 114 116 101 204 94 364 5 18 11 37 16 55 38-9 76-17 114-26 16 12 33 24 49 36 13 10 43 42 26 9z"/><path d="m16747 16716c16-108 17-214 131-269 73-36 149-8 223 14-114 92-123 122-137 272-32 21-64 43-97 64-20-25-39-51-58-76-20-2-41-3-61-5z"/><path d="m15308 16625c380 0 689 309 689 689 0 380-309 689-689 689-232 0-437-115-562-290-1-1-1-4-2-3-181 16-212-78-81-152 2-1-1-4-2-5-27-74-42-154-42-238 0-380 309-689 689-689z"/></g></g></g><g stroke-linejoin="round" stroke-linecap="round"><g fill="none"><path d="m14863 17595c56 58 107 108 161 149 90 67 188 107 325 105 122-2 216-31 296-84 82-56 156-138 216-245" stroke-width="75"/><g stroke-width="100"><path d="m16519 17646c78 102 147 165 270 217 55 23 113 37 189 34 94-3 154-23 211-58 62-38 100-75 131-118 29-41 52-87 79-146"/><path d="m14948 18479c-62 75-123 149-185 224-65-57-130-114-194-172 108-103 235-224 343-327 43 44 68 107 112 151-25 41-50 82-75 123z"/><path d="m14922 18806c-53-34-107-69-160-103 55-66 110-133 165-199-2 101-3 201-5 302z"/><path d="m14665 18617c98-109 195-219 293-328-22-22-25-63-47-85-108 103-235 224-343 327 32 29 65 57 97 86z"/><path d="m15090 17968c-51 45-81 67-103 109-56 104-40 200 36 278 57-71 113-142 170-213-1-50-2-100-4-149-33-8-66-17-99-25z"/><path d="m14688 18417c-53-97-107-161-89-276 6-40 17-82 59-121 46-43 90-66 134-77 43-10 93-8 142-1-7 30-13 66-10 97 3 33 13 64 40 93-18 51-11 97 7 147-19-8-55-32-77-57-68 65-137 130-205 195z"/><path d="m14955 17906c-33 44-30 68-33 124 6 53 4 65 41 104 26-86 58-106 126-165-45-21-90-41-135-62z"/><path d="m17290 16827c9-125 20-231-69-335-27-32-43-49-62-51-37-3-82 35-106 59-76 77-76 129-90 233 97 2 93 7 129 99 104-62 105-80 198-5z"/></g></g><g stroke-width="100"><path d="m14783 16930c9 99 24 193 66 265-32-3-64-6-96-9 12 49 20 104 18 169-25-24-52-44-82-57 5 54 18 123 7 175-3 14-8 27-18 37-23 25-62 58-101 79-58-169-78-305-55-425 34-180 97-269 233-376 26-149 45-203 154-272-7 55-18 77 6 126 42-14 71-40 93-66 22-25 81-2 109-19 58-55 110-126 192-153-25 53-29 104-11 151 53-49 141-90 192-94 19 40 19 60 55 85 78 16 156 32 234 48-46 4-89 14-120 39 72 57 125 127 167 204-61-36-124-65-190-89 19 63 27 125 30 188-53-52-112-98-181-133 4 37-1 74-11 112-36-57-84-101-142-133 2 50 3 101 5 151-147-155-159-213-371-207 57 41 93 105 122 176-57-40-121-66-192-74-38 34-75 69-113 103z" fill="#201e1e"/><circle cx="17008" cy="17401" r="639" fill="none"/><g fill="#fefefe"><circle cx="16989" cy="16832" r="102"/><circle cx="17203" cy="16882" r="102"/><path d="m17116 20393c-56-98-69-81-183-87-330 39-660 78-991 117-34 30-43 73-41 121 49 119 99 239 148 358 32 78 23 75 107 69 272-20 544-40 816-59 105-8 172 10 195-116 5-26 2-56-6-105-15-99-30-198-45-297z"/></g><g fill="none"><path d="m17068 20696c-3-38-8-75-11-113-20-90 3-182-98-173-273 26-545 52-818 78-128 12-106 11-97 138 17 50 34 99 50 149 57 92 45 104 152 92 238-26 478-39 712-89 89-19 117 3 111-82z"/><path d="m16785 17259c177-37 265-158 390-279-35-10-67-47-82-85-35 18-62 37-103 40-47-5-82-25-98-71-39 26-80 48-126 54-47-2-76-25-95-59-97 68-183 149-238 266-14 40-29 79-43 119 157 33 214 55 396 16z"/></g><path d="m17047 18083c22-5 164-58 126-94-16-15-36-24-58-26-90-11-216 69-275 108 88 111 177 221 265 332 122-14 244-31 365-42 76-7 53-67-2-65-72 3-144 5-216 8 88-8 176-15 263-23 105-9 63-95-22-87-94 9-151 10-246 19 98-16 159-24 257-40 86-14 55-92-32-77-61 11-121 21-182 32-34 6-33 4-67 10 92-22 150-35 243-57 95-22 45-110-25-91-136 37-228 64-364 101-10-2-21-5-31-7z" fill="#fefefe"/></g><g fill="#201e1e" stroke-width="75"><path d="m15228 17306c32-9 68 18 81 61 13 43-3 86-35 95-32 9-68-18-81-61-13-43 3-86 35-95z"/><path d="m15684 17227c33-8 68 21 78 64 11 44-7 85-39 93-33 8-68-21-78-64-11-44 7-85 39-93z"/><path d="m17164 17455c27 0 49 25 49 56 0 31-22 56-49 56-27 0-49-25-49-56 0-31 22-56 49-56z"/><path d="m16675 17443c27 0 49 25 49 56 0 31-22 56-49 56-27 0-49-25-49-56 0-31 22-56 49-56z"/></g><g stroke-width="100"><g fill="none"><path d="m16575 20651c-33 114-64 182-115 251-68 94-178 183-154 315 27 146 267 234 312 411 36 141-16 226-71 351"/><path d="m16924 22374c-21-41-43-83-64-124 3-52 6-104 9-156 35-196 108-421-5-604-93-150-230-266-274-447-30-126-21-233-15-393"/><path d="m17400 21929c-73-66-122-146-163-230-66-136-114-284-218-407-263-220-317-321-445-642"/><path d="m16055 22251l-75-121"/><path d="m16192 22175l-120-136"/><path d="m16272 22118l-123-155"/><path d="m17119 22658l158-154"/><path d="m17212 22772l139-121"/><path d="m17292 22859l119-87"/><path d="m17732 21953l30-161"/><path d="m17837 22029l38-177"/><path d="m17940 22081l66-160"/><path d="m17532 22119c42-83 69-167 101-266 14-62 53-103-35-120-67-13-73 6-132 99-39 62-72 121-94 188-7 40-6 75 2 116 10 31 27 52 58 67 70 15 69-21 100-83z"/><path d="m16775 22638c72-28 131-56 189-90 90-52 168-111 246-178-64-128-51-106-166-24-72 51-143 102-215 154-86 61-111 48-54 139z"/><path d="m16396 22046c27 38 56 74 87 110 66 78 65 114 150 43 50-42 26-53-48-145-59-73-118-146-176-218-48-59-54-74-82-50-54 47-46 54-16 116 24 50 52 97 85 144z"/></g><g fill="#fefefe"><path d="m17420 16856c76 0 117 102 80 167-15 26-48 38-80 38-57 0-102-46-102-102 0-57 26-102 102-102z"/><path d="m16766 16712c49-4 102 46 102 102 0 57-46 102-102 102-57 0-111-51-102-102 9-52 54-98 102-102z"/><path d="m16430 18129c-65-127-117-229-182-355 30-12 174-115 161-143-32-66-109-34-161-20-2 0-4-1-2-3 33-83 48-140 47-210 0-54 0-100-43-113-32-10-48 48-56 110-7 58-6 110-7 125-1 2-4 2-5-2-9-41-21-79-33-117-10-32-16-51-26-64-40-51-65-34-69 22-4 60 19 120 32 182 0 1-1 1-1 1-20-23-39-48-58-71-25-30-35-57-53-66-26-12-42-9-52 0-26 26-5 73 24 119 26 40 63 81 77 101 1 1-1 2-2 2-30-10-59-20-89-28-40-11-54-25-68 2-47 93 241 181 289 202 9 128 18 256 27 384 15 5 31 11 46 16 78 4 137-45 201-77z"/></g><g fill="none"><path d="m17881 20143c-3-143-28-279 57-405 76-112 184-112 261 2 75 111 72 229 84 357 9 100 33 156-46 230-29 27-64 40-128 43-67 3-116-10-158-41-77-56-66-99-68-186z"/><path d="m18274 19995c-15-129-32-211-98-282-76-82-186-67-254 38-42 65-45 153-46 266 134-4 265-11 398-23z"/></g></g></g><g fill="#201e1e"><g stroke-width="25"><g font-family="&apos;Monotype Corsiva&apos;" font-style="italic" font-size="1602.27"><text x="10795" y="17780" transform="matrix(.88741 0 0 1 4534.99 8269.71)">Texto 01</text><text x="10795" y="17780" transform="matrix(1.0058 0 0 1 3048.4 10131.3)">Texto 02</text></g><path d="m16329 26785l19 25c-94 89-175 134-242 134-27 0-48-9-63-27-14-18-22-48-22-88 0-82 25-163 75-244 56-92 123-138 202-138 27 0 48 7 63 20 14 14 22 32 22 56 0 25-9 49-26 73-17 24-48 49-93 75-22 13-70 35-143 68-3 21-5 40-5 59 0 27 4 46 13 57 9 11 21 16 38 16 16 0 33-5 52-13 25-12 63-36 111-73zm-202-82c62-27 109-57 140-89 21-22 32-44 32-66 0-16-4-29-13-39-9-10-20-15-34-15-14 0-28 5-41 16-18 14-33 36-46 64-18 42-30 85-38 128z" fill-rule="nonzero"/></g><text x="10795" y="17780" font-family="&apos;Arial&apos;" stroke-width="50" font-size="641.82" transform="matrix(1.01878 0 0 1 3750.24 11371.6)">00.00.0000</text></g></g><g fill="#201e1e" font-family="&apos;Arial Black&apos;" font-weight="900" font-size="529.17"><text x="15641" y="23929">NN 1</text><text x="15647" y="24418">NN 2</text></g></g></g><g fill="#373435" font-family="&apos;Arial&apos;" font-weight="normal" font-size="423.33"><text x="1619" y="32791">DESC 1</text><text x="1612" y="33299">DESC 2</text><text x="1601" y="33789">DESC 3</text></g></svg>