<svg xmlns="http://www.w3.org/2000/svg" width="744.09" height="1052.36" viewBox="0 0 21000 29700" shape-rendering="geometricPrecision" image-rendering="optimizeQuality" fill-rule="evenodd" clip-rule="evenodd"><defs><clipPath id="0"><path d="m15492 17299c-483-227-645-686-699-1163-51-448-56-907-51-1357 6-502 28-1004 44-1506 17-545 29-1092 5-1637-22-488-72-993-202-1467-244-889-641-1732-835-2634-60-276-106-556-140-835-38-312-61-625-65-938-9-771 101-1896 784-2423 431-333 983-342 1506-232 774 164 1509 502 2097 1005 416 355 746 783 967 1268 244 535 342 1107 320 1686-12 297-28 594-48 890-57 841-143 1679-222 2518-89 944-167 1887-212 2834-12 257-13 515-16 772-3 305-7 611-19 916-14 373-39 755-102 1124-44 256-120 588-272 807-145 209-389 347-632 435-292 105-620 154-933 162-413 10-901-49-1275-225"/></clipPath><clipPath id="1"><path d="m5605 17264c483-227 645-686 699-1163 52-448 57-907 51-1357-6-502-28-1004-43-1506-18-545-30-1092-6-1637 22-488 73-993 203-1467 244-889 640-1732 835-2635 59-276 106-555 140-835 38-311 61-625 64-938 9-770-101-1895-783-2422-432-333-984-342-1506-232-774 164-1510 502-2098 1005-415 355-746 783-967 1268-244 534-342 1106-319 1686 11 297 28 594 48 890 57 840 143 1679 222 2518 89 944 167 1887 211 2834 12 256 13 515 16 772 3 305 7 610 19 916 15 373 39 755 103 1124 43 256 119 587 272 807 144 209 388 347 631 434 293 106 621 154 933 162 414 11 902-48 1275-224"/></clipPath></defs><text x="10046" y="19022" fill="#201e1e" font-family="&apos;Arial Black&apos;" stroke="#201e1e" font-weight="900" stroke-width="7.62" font-size="705.56">24</text><g fill="none" stroke-width="80"><g stroke="#322f30"><circle cx="10533" cy="1326" r="460"/><path d="m10533 515v1621"/><path d="m9723 1326h1621"/></g><g stroke="#373435"><circle cx="10498" cy="20686" r="460"/><path d="m10498 19875v1621"/><path d="m9688 20686h1620"/></g></g><g fill="#fff"><rect x="9843" y="17476" width="1347" height="637" rx="318" stroke="#fff" stroke-width="20"/><path d="m15492 17299c-483-227-645-686-699-1163-51-448-56-907-51-1357 6-502 28-1004 44-1506 17-545 29-1092 5-1637-22-488-72-993-202-1467-244-889-641-1732-835-2634-60-276-106-556-140-835-38-312-61-625-65-938-9-771 101-1896 784-2423 431-333 983-342 1506-232 774 164 1509 502 2097 1005 416 355 746 783 967 1268 244 535 342 1107 320 1686-12 297-28 594-48 890-57 841-143 1679-222 2518-89 944-167 1887-212 2834-12 257-13 515-16 772-3 305-7 611-19 916-14 373-39 755-102 1124-44 256-120 588-272 807-145 209-389 347-632 435-292 105-620 154-933 162-413 10-901-49-1275-225"/></g><g clip-path="url(#0)"><g><g fill="#201e1e" stroke="#201e1e" stroke-width="20"><path d="m18434 1574h193v18418h-193z"/><path d="m17836 1574h193v18418h-193z"/><path d="m17219 1574h193v18418h-193z"/><path d="m15965 1574h193v18418h-193z"/><path d="m14738 1574h193v18418h-193z"/><path d="m13525 1574h193v18418h-193z"/><path d="m16582 1574h193v18418h-193z"/><path d="m15328 1574h193v18418h-193z"/><path d="m14136 1574h193v18418h-193z"/><path d="m19022 1574h193v18418h-193z"/></g><path d="m15417 17170l14-17c0 0 171-83 511-165 0 0 153-102 224-196 0 0 448-396 566-451 0 0 194-162 260-318 0 0 202-419 264-456 0 0-7-31-150-93 0 0-54-25 28-221 0 0 53-108 50-197 0 0 22-203 79-235 0 0 28-19-11-57 0 0-55-33-46-103 0 0-140-66-17-199 0 0 56-43 105 11 0 0 131-75 232 62 0 0 9 14 4 114 0 0 10 36 28 66 0 0 16 18-26 12 0 0 1 96-15 102 0 0-13 6-81-6 0 0-76 21-46 94l49 124c0 0 167 181 147 231 0 0-31 63-37 76l82-53 12-333c0 0-8-47 34-58 0 0 83-44 53-101l12-49c0 0-11-80-127-54 0 0-32-40-30-68l-22-57-32-14c0 0-7-11 30-55l29-196c0 0 216-145 341 53 0 0 19 48-32 272 0 0-35 13 47 49 0 0 20 19 17 59 0 0 115 58 124 350 0 0-10 424-16 552 0 0 27 287 30 347 0 0-94 5-106 76l-11 561c0 0 18 353-1 494l-30 28-5 67c0 0-122-54-237-19 0 0-208 25-238-50 0 0-43-38 95-47 0 0 95-10 84-60 0 0 5-71 36-85l-69-979-37 1c0 0 11-192-43-232 0 0-15 1390-262 1504 0 0-594 174-1798-5 0 0-95-4-62-76zm1812-1798l11-7 22 64c0 0 25 49-54-3 0 0-37-13 21-54z" fill="#fefefe" stroke="#fefefe" stroke-linejoin="round" stroke-linecap="round" stroke-width="400"/><path d="m15417 17170l14-17c0 0 171-83 511-165 0 0 153-102 224-196 0 0 448-396 566-451 0 0 194-162 260-318 0 0 202-419 264-456 0 0-7-31-150-93 0 0-54-25 28-221 0 0 53-108 50-197 0 0 22-203 79-235 0 0 28-19-11-57 0 0-55-33-46-103 0 0-140-66-17-199 0 0 56-43 105 11 0 0 131-75 232 62 0 0 9 14 4 114 0 0 10 36 28 66 0 0 16 18-26 12 0 0 1 96-15 102 0 0-13 6-81-6 0 0-76 21-46 94l49 124c0 0 167 181 147 231 0 0-31 63-37 76l82-53 12-333c0 0-8-47 34-58 0 0 83-44 53-101l12-49c0 0-11-80-127-54 0 0-32-40-30-68l-22-57-32-14c0 0-7-11 30-55l29-196c0 0 216-145 341 53 0 0 19 48-32 272 0 0-35 13 47 49 0 0 20 19 17 59 0 0 115 58 124 350 0 0-10 424-16 552 0 0 27 287 30 347 0 0-94 5-106 76l-11 561c0 0 18 353-1 494l-30 28-5 67c0 0-122-54-237-19 0 0-208 25-238-50 0 0-43-38 95-47 0 0 95-10 84-60 0 0 5-71 36-85l-69-979-37 1c0 0 11-192-43-232 0 0-15 1390-262 1504 0 0-594 174-1798-5 0 0-95-4-62-76zm1812-1798l11-7 22 64c0 0 25 49-54-3 0 0-37-13 21-54z" fill="#201e1e" stroke="#201e1e" stroke-width="7.62"/><g><rect x="16137" y="13040" width="1173" height="369" rx="586.5" ry="184.5" fill="#fff"/><text x="10500" y="14850" fill="#201e1e" font-family="&apos;Arial Black&apos;" font-weight="900" font-size="529.17" transform="matrix(.71328 0 0 .66965 8749.77 3408.52)">NN 1</text></g><g fill="#fefefe"><g stroke="#fefefe" stroke-linejoin="round" stroke-linecap="round" stroke-width="400"><path d="m16053 10689c33 22 69 38 111 46-46-63-40-91-36-167l116 79c-17-48-26-73-28-125-2-34 4-57 23-72l-5 2c30 117 75 170 176 268 38 42 100 110 104 187l1 23c1 18-16 80-22 96l51 24c7-17 16-51 15-76l-3-51c-9-165-262-302-270-438v-5c-1-28 13-53 23-71-6-10-43-35-56-34-30 1-96 88-89 136l7 63-79-59-4 5c-16 82-10 79 0 159l-84-37c-3 5-4 5-4 14l1 9c3 55 29 92 52 139l-60-26c5 83 29 112 104 153-36-40-59-76-54-104 32 22 64 40 105 40-45-58-79-117-95-178zm1339 0c-33 22-70 38-111 46 46-63 39-91 36-167l-117 79c17-48 26-73 29-125 2-34-5-57-23-72l5 2c-31 117-76 170-176 268-38 42-100 110-104 187l-2 23c-1 18 17 80 23 96l-52 24c-7-17-15-51-14-76l3-51c9-165 262-302 269-438v-5c2-28-13-53-23-71 7-10 43-35 56-34 31 1 96 88 89 136l-6 63 79-59 3 5c17 82 11 79 1 159l84-37c2 5 4 5 3 14v9c-3 55-30 92-52 139l59-26c-4 83-29 112-103 153 35-40 58-76 54-104-32 22-65 40-105 40 45-58 78-117 95-178zm246 1156l-46 26c-5-30-60-91-86-98-13 40-35 89-73 107-11-22-58-100-55-97l-105 98c3-50 2-129-23-170l1-14 45-38 19 158c57-35 40-118 110-133-14 24 5 122 34 123 30-88 13-94 80-141-3 11-5 11-6 24-2 40 51 87 77 103 1-98-20-87 40-148 62 4 130 3 156-33-148-21-288-85-416-161 8-26 8-16 39-19 75 4 106-2 157-41l-91-17 12-32c41 2 128-37 153-56-50-3-93-8-120-27 84-29 151-57 198-86l-101-35c-8-3-6-4 2-6 80-14 125-47 167-107-38 4-73-1-105-16 40-20 209-138 78-152 16-22 54-68 56-104 1-21-5-42-11-57-33 56-72 117-124 153-123 120-488 134-518 358v14c-23 0-36 12-55 10-8 0-68-116-153-121-69-4-93 45-137 91 107 6 136 157 173 235 32 68 136 180 227 185l68 4c31 2 58-24 63 3l-69 20-63 1c-186-10-261-156-327-311-19-45-45-103-105-106l-36-3c-19-1-32 1-46 7-14-24-7-23-56-39-97-30-94-121-242-107-65 6-85 46-119 72-7-89-93-152-197-190-103-38-429-115-440-316l-69-24c-47 82-39 127 3 205l-56-5c6 99 115 146 123 166l-86 5c6 78 117 122 148 131l-90 15c42 57 103 81 165 107l-77 9c46 63 142 78 155 94l-50 3-23 2c11 58 102 84 151 89-59 30-124 59-186 82-50 18-164 59-208 25-18 50 136 138 211 124h-5l33 161 46 26c5-30 60-91 85-98 13 40 35 89 74 107 11-22 57-100 55-97l105 98c-3-50-3-129 22-170l-1-14-45-38-18 158c-58-35-40-118-110-133 13 24-5 122-34 123-30-88-13-94-80-141 2 11 4 11 5 24 2 40-50 87-76 103-1-98 20-87-40-148-63 4-130 3-156-33 148-21 287-85 415-161-8-26-7-16-38-19-75 4-106-2-157-41l90-17-11-32c-42 2-129-37-153-56 49-3 92-8 120-27-84-29-151-57-198-86l100-35c8-3 7-4-1-6-81-14-125-47-168-107 39 4 74-1 106-16-40-20-209-138-78-152-17-22-54-68-56-104-1-21 4-42 11-57 33 56 72 117 124 153 123 120 488 134 517 358l1 14c22 0 36 12 55 10 7 0 67-116 152-121 70-4 93 45 137 91-106 6-135 157-172 235-33 68-137 180-228 185l-68 4c-31 2-57-24-63 3l69 20 64 1c185-10 261-156 326-311 19-45 45-103 106-106l36-3c18-1 32 1 45 7 14-24 7-23 56-39 98-30 95-121 243-107 64 6 85 46 118 72 7-89 94-152 197-190 104-38 429-115 440-316l70-24c47 82 39 127-3 205l55-5c-5 99-114 146-122 166l86 5c-6 78-117 122-148 131l90 15c-42 57-104 81-165 107l77 9c-46 63-143 78-155 94l49 3 23 2c-11 58-102 84-150 89 59 30 124 59 186 82 49 18 163 59 208 25 17 50-136 138-211 124h4l-32 161zm-632-653c-1 11-13 22-24 22l-4-1c-16 0-32-10-31-25 1-11 9-18 19-17l23 1c10 1 18 9 17 20zm-567 0c0 11 13 22 23 22l5-1c15 0 31-10 30-25 0-11-8-18-19-17l-22 1c-11 1-18 9-17 20z"/><path d="m16533 11712c153 0 276 127 276 284 0 157-123 284-276 284-152 0-276-127-276-284 0-157 124-284 276-284zm0 10c148 0 267 123 267 274 0 151-119 274-267 274-147 0-266-123-266-274 0-151 119-274 266-274z"/><path d="m16533 11762c126 0 228 105 228 234 0 129-102 234-228 234-125 0-227-105-227-234 0-129 102-234 227-234zm0 8c121 0 220 101 220 226 0 125-99 226-220 226-121 0-219-101-219-226 0-125 98-226 219-226z"/><path d="m16533 11712c153 0 276 127 276 284 0 157-123 284-276 284-152 0-276-127-276-284 0-157 124-284 276-284zm0 50c126 0 228 105 228 234 0 129-102 234-228 234-125 0-227-105-227-234 0-129 102-234 227-234zm0 8c121 0 220 101 220 226 0 125-99 226-220 226-121 0-219-101-219-226 0-125 98-226 219-226zm0-48c148 0 267 123 267 274 0 151-119 274-267 274-147 0-266-123-266-274 0-151 119-274 266-274z"/><path d="m18078 8882c37 46 4 265 128 306 46-109-34-312-128-306zm359 558c-6-66-21-130-32-194-18 45-34 90-31 144 6 56 30 107 47 157l6 17 3 9c9-45 10-87 7-133zm166 535c24-77 16-168 9-250-18 41-33 83-47 128-16 62-33 137-19 204 22-17 39-39 53-71l4-11zm-111 630l-1 15c49-4 88-84 112-141 18-46 33-97 43-149-22 14-42 30-63 51-15 17-29 36-42 59-8 17-17 34-23 53-10 30-17 58-23 90l-3 22zm-180 403c18 2 34-1 51-8 57-32 100-97 145-154l8-11c-89-9-198 29-244 155 13 9 26 15 40 18zm-291 213c15 38 34 61 63 75 68 25 141-13 201-58-44-13-86-43-131-52-46-10-90 8-133 35zm167-2173c-14-54-36-96-71-124l-2-1c6 36 10 76 17 112 5 22 10 42 19 60 9 20 26 43 42 48 6-30 2-65-5-95zm230 111c-125 251-47 274 12 494 75-184-7-358-12-494zm259 1115c-66 44-191 95-212 375 109 43 201-239 212-375zm-49-628c-40 50-150 316-94 454 148-76 104-312 94-454zm-54 1176c-56-41-271-43-331 181 145 145 263-153 331-181zm-220 395c-143-3-183-142-363-12 57 219 249 127 363 12z"/><path d="m17868 11233c334-207 553-554 612-933 60-380-147-987-422-1188-51 10-105 9-154-24-46-32-74-96-99-161 116 46 216 51 253 171 273 160 500 827 444 1220-55 381-276 726-611 933l-23-18zm162-2027c-28 0-56 2-83 8 21 17 41 42 64 57 40 22 88 8 127-15-27-41-72-47-108-50zm299 392c-22-42-44-78-75-103-24-16-49-25-76-30 32 71 67 143 123 173 17 7 35 13 52 12-8-18-16-35-24-52zm101 390c-26-66-69-101-116-127 3 10 7 20 9 31 18 59 33 122 73 156 16 10 31 16 48 17-1-28-6-52-14-77zm-45 366c-10-52-28-103-55-140 0 38-2 76-2 114 0 29 2 55 7 83 8 38 20 67 37 97l9 15c12-51 13-103 6-155l-2-14zm-152 451c28-72 34-157 17-237-7-28-16-56-28-80-2 6-3 19-5 27-9 48-19 95-24 144-3 34-3 65 0 99 3 24 7 47 13 71l5 19v1c8-14 15-28 22-44zm-341 348c58-22 100-109 123-186 6-18 10-37 14-56 7-42 13-94 8-138-18 32-40 61-61 91-23 34-44 70-61 113-6 15-11 31-15 48-7 32-10 59-10 92l1 21 1 15zm-37-2175c45 68 84 122 173 110-40-69-116-70-173-110zm192 1715c-25 109-218 228-173 497 112 0 229-290 173-497zm154-288c22 100-88 270 5 499 81-99 121-332-5-499zm93-267c43 86-46 276 96 440 54-150 14-364-96-440zm-31-332c62 92 49 305 203 292 10-172-97-261-203-292zm-132-387c53 112 111 299 259 258-97-251-154-227-259-258zm-270-216c79 25 91 64 137 96 50 34 117 11 173-28-34-132-208-105-310-68z"/><path d="m17093 8952v-2h6c1 0 4 0 6 3 5 9-16 23-20 27-4 3-9 7-13 11l-16 9c-6 3-12 6-19 8-7 3-15 5-22 8-8 2-16 4-24 6-7 1-14 3-21 3-7 1-14 1-21 1-35 0-70-4-104-8-124-17-248-28-373-28-57 0-129 3-183 22-40 14-79 32-115 55-35 21-66 48-93 80-21 23-40 54-40 87 0 26 13 45 32 60 24 20 54 27 84 27 67 0 130-21 187-59 38-24 88-65 88-117 0-15-6-26-16-35-13-11-31-15-48-15-91 0-171 59-234 126l-4 3-16-8 6-7c34-42 74-76 120-100 40-20 84-34 128-34 23 0 46 5 62 22 13 12 22 28 22 47 0 43-26 77-55 104-36 32-77 55-122 70-39 13-81 23-122 23-34 0-66-9-93-31-23-17-39-41-39-71 0-81 84-150 140-190 119-83 306-98 444-98 76 0 151 4 226 9 56 4 114 9 169 9 5 0 9 0 14 0 4 0 9-1 13-1 5 0 9-1 14-2 4 0 7-1 11-2l11-2c3-1 7-2 10-3 4-1 8-2 12-4 2-1 5-2 8-3zm-544 445c-18 29-28 67-35 101l-1 6h-58l6-10c6-12 13-26 21-37 11-14 24-36 35-54-17 2-35 4-51 4h-7c-59 117-136 224-239 300-99 73-212 104-332 104-43 0-94-5-130-31-26-20-44-46-44-81 0-18 5-34 16-47 11-13 24-20 40-20 11 0 21 4 29 11 8 8 13 18 13 29 0 12-5 22-13 30-7 8-16 13-27 13-8 0-16-3-23-8-5-3-10-7-13-13-2 3-2 6-2 9 0 28 17 48 38 62 33 23 87 27 125 27 105 0 199-32 280-103 87-77 162-177 225-279-4 0-9 0-13 0-35 0-74 8-108 16-47 11-93 27-136 48l-6 3-8-17 6-3c82-37 174-66 264-66 4 0 9 0 13 0 91-143 203-265 334-367l7-5 6 16-4 3c-41 35-86 73-123 113-33 35-63 78-91 118-26 37-54 78-74 118 21 0 43-2 64-7 21-30 68-98 106-98 15 0 28 6 28 23 0 23-20 43-36 55-24 20-53 31-82 37zm14-25c19-4 37-13 53-25 11-7 31-23 31-39 0-6-5-6-10-6-12 0-29 15-38 23-14 14-26 30-36 47zm841 51c-38 1-76 7-113 17-42 12-81 29-118 51-38 23-72 50-103 81-32 31-59 67-81 106-10 17-19 35-27 53-8 20-15 40-19 61-5 21-7 43-6 64 0 21 5 41 14 60 3 7 6 15-1 20-8 5-15-2-18-9-10-18-16-39-21-59-5-23-7-47-7-71 1-25 4-50 10-74 6-25 15-49 27-72 20-37 45-71 75-99 28-27 58-51 91-71 30-18 62-34 96-47 29-11 60-21 90-30 25-6 50-13 75-18 15-3 33-7 48-12 7-1 14-4 20-8 5-3 9-7 13-12 4-5 9-7 15-5 4 0 8 2 11 5 4 2 6 5 8 9 2 5 3 10 0 14-19 44-38 88-59 132-21 45-42 91-64 136-21 44-42 87-63 130-19 36-37 73-55 110-1 3-2 6-1 10 0 1 1 1 1 1 7 0 15 3 14 12-1 8-7 12-13 13-4 1-8 3-12 5-4 2-9 4-13 5-34 62-69 123-106 183-38 61-79 119-123 175-23 28-47 56-73 82-26 26-54 50-84 73-30 22-62 42-96 59-35 18-73 31-111 41-24 6-51 9-75 2-20-6-37-17-48-36-11-20-12-43-9-66 3-30 18-59 33-83 23-36 50-69 79-99 32-33 67-64 103-93 38-31 77-59 118-86 41-26 82-51 125-74 39-21 80-41 121-59 35-15 71-30 108-42 20-42 40-84 61-126 21-44 42-88 62-132 20-42 39-85 58-127 15-33 29-66 43-100zm-243 524c-50 19-100 42-148 66-60 31-117 65-172 103-55 38-108 80-157 126-46 42-87 89-123 141-13 20-28 46-33 70-3 14-4 32 3 44 7 12 19 18 32 20 19 4 40 1 58-5 36-10 71-24 104-42 31-17 61-37 90-59 27-22 53-46 77-72 23-24 46-49 67-76 19-22 36-46 52-71 20-30 40-60 59-91 19-31 37-62 56-93 12-20 23-41 35-61z"/><path d="m16531 11707c-155 0-281 129-281 289 0 160 126 289 281 289 66 0 126-23 174-62 48 39 108 62 173 62 156 0 281-129 281-289 0-160-125-289-281-289-65 0-125 23-173 62-48-39-108-62-174-62zm189 503c7-7 14-14 21-22 39 29 86 47 137 47 128 0 232-107 232-239 0-132-103-239-232-239-51 0-98 18-137 47-7-8-14-15-21-22 44-35 99-55 158-55 145 0 262 120 262 269 0 149-117 269-262 269-59 0-114-20-158-55zm32-36c38-49 60-111 60-178 0-67-22-129-60-178 36-27 79-43 126-43 119 0 215 99 215 221 0 122-96 221-215 221-47 0-90-16-126-43zm-94 0c-38-49-60-111-60-178 0-67 22-129 60-178-36-27-79-43-127-43-118 0-214 99-214 221 0 122 96 221 214 221 48 0 91-16 127-43zm15-344c-35 46-56 103-56 166 0 63 21 120 55 166 8-7 15-14 22-22-30-40-47-90-47-144 0-54 17-104 47-144-7-8-14-15-21-22zm32 36c-26 37-41 82-41 130 0 48 15 93 41 130 26-37 41-82 41-130 0-48-15-93-41-130zm-174-139c145 0 262 120 262 269 0 149-117 269-262 269-144 0-261-120-261-269 0-149 117-269 261-269zm0 30c-128 0-232 107-232 239 0 132 104 239 232 239 128 0 232-107 232-239 0-132-104-239-232-239z"/><path d="m15374 8882c-38 46-5 265-129 306-46-109 34-312 129-306zm-359 558c5-66 20-130 31-194 18 45 34 90 31 144-5 56-30 107-47 157l-6 17-3 9c-9-45-10-87-6-133zm-167 535c-24-77-16-168-9-250 19 41 34 83 47 128 16 62 33 137 20 204-23-17-40-39-54-71l-4-11zm111 630l2 15c-49-4-89-84-112-141-19-46-34-97-44-149 22 14 43 30 63 51 16 17 29 36 42 59 9 17 17 34 24 53 9 30 16 58 22 90l3 22zm181 403c-19 2-35-1-52-8-57-32-100-97-145-154l-8-11c89-9 198 29 244 155-13 9-25 15-39 18zm290 213c-15 38-34 61-63 75-67 25-140-13-201-58 44-13 86-43 131-52 47-10 90 8 133 35zm-166-2173c13-54 36-96 70-124l2-1c-6 36-9 76-17 112-4 22-10 42-18 60-10 20-26 43-42 48-7-30-2-65 5-95zm-231 111c126 251 48 274-11 494-76-184 7-358 11-494zm-259 1115c66 44 192 95 212 375-109 43-201-239-212-375zm50-628c40 50 150 316 93 454-147-76-104-312-93-454zm53 1176c56-41 271-43 331 181-145 145-262-153-331-181zm220 395c144-3 183-142 363-12-56 219-249 127-363 12z"/><path d="m15583 11233c-334-207-553-554-612-933-59-380 147-987 422-1188 52 10 106 9 154-24 46-32 75-96 100-161-116 46-217 51-254 171-272 160-500 827-443 1220 54 381 275 726 610 933l23-18zm-162-2027c28 0 56 2 84 8-22 17-42 42-65 57-40 22-88 8-127-15 27-41 72-47 108-50zm-299 392c22-42 44-78 76-103 24-16 49-25 75-30-32 71-67 143-123 173-16 7-34 13-52 12 8-18 16-35 24-52zm-100 390c25-66 68-101 115-127-3 10-6 20-9 31-18 59-32 122-73 156-15 10-31 16-48 17 2-28 7-52 15-77zm45 366c9-52 27-103 54-140 0 38 3 76 3 114-1 29-3 55-8 83-8 38-19 67-37 97l-9 15c-11-51-12-103-6-155l3-14zm152 451c-28-72-35-157-17-237 6-28 15-56 27-80 2 6 4 19 5 27 9 48 20 95 24 144 3 34 4 65 1 99-3 24-7 47-13 71l-6 19v1c-8-14-15-28-21-44zm340 348c-58-22-99-109-123-186-5-18-10-37-14-56-7-42-13-94-8-138 18 32 41 61 61 91 23 34 44 70 61 113 6 15 11 31 16 48 7 32 9 59 10 92l-1 21-2 15zm37-2175c-45 68-84 122-172 110 39-69 116-70 172-110zm-191 1715c24 109 217 228 172 497-112 0-229-290-172-497zm-155-288c-21 100 88 270-4 499-82-99-122-332 4-499zm-93-267c-43 86 47 276-96 440-54-150-14-364 96-440zm31-332c-61 92-48 305-203 292-10-172 97-261 203-292zm133-387c-53 112-112 299-260 258 97-251 154-227 260-258zm269-216c-79 25-91 64-137 96-50 34-117 11-172-28 33-132 207-105 309-68z"/></g><path d="m14909 9464c21-168 564-333 739-327 133 4 197-54 299 200 114 283 358-20 364-117 247-128-3-116 353-171 11-1 20-6 24-16 313-53 553 84 744 329 30 38 14 33 54 59 119-42 638-245 711-153 79 100 76 54 186 222 284 434 121 301 41 745-24 132-127 509-249 591l-22 14c-77 74-348 265-351 334 0 10-73 121-76 160-1 0-191 192-208 206-99 84-229 211-370 224-16 30-88 57-122 62-111 187-763 25-923 1-2-1-544-296-622-336-314-162-267-602-419-783 0 0-154-253-154-253-47-25-41-86-81-131 9-43-68-265-29-426 12-48 75-396 110-403 7-19-1-13 1-31"/></g><g stroke-linejoin="round" stroke-linecap="round"><path d="m16053 10689c33 22 69 38 111 46-46-63-40-91-36-167l116 79c-17-48-26-73-28-125-2-34 4-57 23-72l-5 2c30 117 75 170 176 268 38 42 100 110 104 187l1 23c1 18-16 80-22 96l51 24c7-17 16-51 15-76l-3-51c-9-165-262-302-270-438v-5c-1-28 13-53 23-71-6-10-43-35-56-34-30 1-96 88-89 136l7 63-79-59-4 5c-16 82-10 79 0 159l-84-37c-3 5-4 5-4 14l1 9c3 55 29 92 52 139l-60-26c5 83 29 112 104 153-36-40-59-76-54-104 32 22 64 40 105 40-45-58-79-117-95-178zm1339 0c-33 22-70 38-111 46 46-63 39-91 36-167l-117 79c17-48 26-73 29-125 2-34-5-57-23-72l5 2c-31 117-76 170-176 268-38 42-100 110-104 187l-2 23c-1 18 17 80 23 96l-52 24c-7-17-15-51-14-76l3-51c9-165 262-302 269-438v-5c2-28-13-53-23-71 7-10 43-35 56-34 31 1 96 88 89 136l-6 63 79-59 3 5c17 82 11 79 1 159l84-37c2 5 4 5 3 14v9c-3 55-30 92-52 139l59-26c-4 83-29 112-103 153 35-40 58-76 54-104-32 22-65 40-105 40 45-58 78-117 95-178zm246 1156l-46 26c-5-30-60-91-86-98-13 40-35 89-73 107-11-22-58-100-55-97l-105 98c3-50 2-129-23-170l1-14 45-38 19 158c57-35 40-118 110-133-14 24 5 122 34 123 30-88 13-94 80-141-3 11-5 11-6 24-2 40 51 87 77 103 1-98-20-87 40-148 62 4 130 3 156-33-148-21-288-85-416-161 8-26 8-16 39-19 75 4 106-2 157-41l-91-17 12-32c41 2 128-37 153-56-50-3-93-8-120-27 84-29 151-57 198-86l-101-35c-8-3-6-4 2-6 80-14 125-47 167-107-38 4-73-1-105-16 40-20 209-138 78-152 16-22 54-68 56-104 1-21-5-42-11-57-33 56-72 117-124 153-123 120-488 134-518 358v14c-23 0-36 12-55 10-8 0-68-116-153-121-69-4-93 45-137 91 107 6 136 157 173 235 32 68 136 180 227 185l68 4c31 2 58-24 63 3l-69 20-63 1c-186-10-261-156-327-311-19-45-45-103-105-106l-36-3c-19-1-32 1-46 7-14-24-7-23-56-39-97-30-94-121-242-107-65 6-85 46-119 72-7-89-93-152-197-190-103-38-429-115-440-316l-69-24c-47 82-39 127 3 205l-56-5c6 99 115 146 123 166l-86 5c6 78 117 122 148 131l-90 15c42 57 103 81 165 107l-77 9c46 63 142 78 155 94l-50 3-23 2c11 58 102 84 151 89-59 30-124 59-186 82-50 18-164 59-208 25-18 50 136 138 211 124h-5l33 161 46 26c5-30 60-91 85-98 13 40 35 89 74 107 11-22 57-100 55-97l105 98c-3-50-3-129 22-170l-1-14-45-38-18 158c-58-35-40-118-110-133 13 24-5 122-34 123-30-88-13-94-80-141 2 11 4 11 5 24 2 40-50 87-76 103-1-98 20-87-40-148-63 4-130 3-156-33 148-21 287-85 415-161-8-26-7-16-38-19-75 4-106-2-157-41l90-17-11-32c-42 2-129-37-153-56 49-3 92-8 120-27-84-29-151-57-198-86l100-35c8-3 7-4-1-6-81-14-125-47-168-107 39 4 74-1 106-16-40-20-209-138-78-152-17-22-54-68-56-104-1-21 4-42 11-57 33 56 72 117 124 153 123 120 488 134 517 358l1 14c22 0 36 12 55 10 7 0 67-116 152-121 70-4 93 45 137 91-106 6-135 157-172 235-33 68-137 180-228 185l-68 4c-31 2-57-24-63 3l69 20 64 1c185-10 261-156 326-311 19-45 45-103 106-106l36-3c18-1 32 1 45 7 14-24 7-23 56-39 98-30 95-121 243-107 64 6 85 46 118 72 7-89 94-152 197-190 104-38 429-115 440-316l70-24c47 82 39 127-3 205l55-5c-5 99-114 146-122 166l86 5c-6 78-117 122-148 131l90 15c-42 57-104 81-165 107l77 9c-46 63-143 78-155 94l49 3 23 2c-11 58-102 84-150 89 59 30 124 59 186 82 49 18 163 59 208 25 17 50-136 138-211 124h4l-32 161zm-632-653c-1 11-13 22-24 22l-4-1c-16 0-32-10-31-25 1-11 9-18 19-17l23 1c10 1 18 9 17 20zm-567 0c0 11 13 22 23 22l5-1c15 0 31-10 30-25 0-11-8-18-19-17l-22 1c-11 1-18 9-17 20z" fill="#201e1e" stroke="#201e1e" stroke-width="20"/><g fill="#d2983a" stroke="#d2983a" stroke-width="30"><path d="m16533 11712c153 0 276 127 276 284 0 157-123 284-276 284-152 0-276-127-276-284 0-157 124-284 276-284zm0 10c148 0 267 123 267 274 0 151-119 274-267 274-147 0-266-123-266-274 0-151 119-274 266-274z"/><path d="m16533 11762c126 0 228 105 228 234 0 129-102 234-228 234-125 0-227-105-227-234 0-129 102-234 227-234zm0 8c121 0 220 101 220 226 0 125-99 226-220 226-121 0-219-101-219-226 0-125 98-226 219-226z"/><path d="m16533 11712c153 0 276 127 276 284 0 157-123 284-276 284-152 0-276-127-276-284 0-157 124-284 276-284zm0 50c126 0 228 105 228 234 0 129-102 234-228 234-125 0-227-105-227-234 0-129 102-234 227-234zm0 8c121 0 220 101 220 226 0 125-99 226-220 226-121 0-219-101-219-226 0-125 98-226 219-226zm0-48c148 0 267 123 267 274 0 151-119 274-267 274-147 0-266-123-266-274 0-151 119-274 266-274z"/></g></g><ellipse cx="16727" cy="9320" rx="1881" ry="849" fill="#fff" stroke="#fff" stroke-width="20"/><g fill="#201e1e" stroke="#201e1e" stroke-linejoin="round" stroke-linecap="round" stroke-width="50"><path d="m18078 8882c37 46 4 265 128 306 46-109-34-312-128-306zm359 558c-6-66-21-130-32-194-18 45-34 90-31 144 6 56 30 107 47 157l6 17 3 9c9-45 10-87 7-133zm166 535c24-77 16-168 9-250-18 41-33 83-47 128-16 62-33 137-19 204 22-17 39-39 53-71l4-11zm-111 630l-1 15c49-4 88-84 112-141 18-46 33-97 43-149-22 14-42 30-63 51-15 17-29 36-42 59-8 17-17 34-23 53-10 30-17 58-23 90l-3 22zm-180 403c18 2 34-1 51-8 57-32 100-97 145-154l8-11c-89-9-198 29-244 155 13 9 26 15 40 18zm-291 213c15 38 34 61 63 75 68 25 141-13 201-58-44-13-86-43-131-52-46-10-90 8-133 35zm167-2173c-14-54-36-96-71-124l-2-1c6 36 10 76 17 112 5 22 10 42 19 60 9 20 26 43 42 48 6-30 2-65-5-95zm230 111c-125 251-47 274 12 494 75-184-7-358-12-494zm259 1115c-66 44-191 95-212 375 109 43 201-239 212-375zm-49-628c-40 50-150 316-94 454 148-76 104-312 94-454zm-54 1176c-56-41-271-43-331 181 145 145 263-153 331-181zm-220 395c-143-3-183-142-363-12 57 219 249 127 363 12z"/><path d="m17868 11233c334-207 553-554 612-933 60-380-147-987-422-1188-51 10-105 9-154-24-46-32-74-96-99-161 116 46 216 51 253 171 273 160 500 827 444 1220-55 381-276 726-611 933l-23-18zm162-2027c-28 0-56 2-83 8 21 17 41 42 64 57 40 22 88 8 127-15-27-41-72-47-108-50zm299 392c-22-42-44-78-75-103-24-16-49-25-76-30 32 71 67 143 123 173 17 7 35 13 52 12-8-18-16-35-24-52zm101 390c-26-66-69-101-116-127 3 10 7 20 9 31 18 59 33 122 73 156 16 10 31 16 48 17-1-28-6-52-14-77zm-45 366c-10-52-28-103-55-140 0 38-2 76-2 114 0 29 2 55 7 83 8 38 20 67 37 97l9 15c12-51 13-103 6-155l-2-14zm-152 451c28-72 34-157 17-237-7-28-16-56-28-80-2 6-3 19-5 27-9 48-19 95-24 144-3 34-3 65 0 99 3 24 7 47 13 71l5 19v1c8-14 15-28 22-44zm-341 348c58-22 100-109 123-186 6-18 10-37 14-56 7-42 13-94 8-138-18 32-40 61-61 91-23 34-44 70-61 113-6 15-11 31-15 48-7 32-10 59-10 92l1 21 1 15zm-37-2175c45 68 84 122 173 110-40-69-116-70-173-110zm192 1715c-25 109-218 228-173 497 112 0 229-290 173-497zm154-288c22 100-88 270 5 499 81-99 121-332-5-499zm93-267c43 86-46 276 96 440 54-150 14-364-96-440zm-31-332c62 92 49 305 203 292 10-172-97-261-203-292zm-132-387c53 112 111 299 259 258-97-251-154-227-259-258zm-270-216c79 25 91 64 137 96 50 34 117 11 173-28-34-132-208-105-310-68z"/></g><g fill="#201e1e" stroke="#201e1e" stroke-linejoin="round" stroke-linecap="round"><path d="m16531 11707c-155 0-281 129-281 289 0 160 126 289 281 289 66 0 126-23 174-62 48 39 108 62 173 62 156 0 281-129 281-289 0-160-125-289-281-289-65 0-125 23-173 62-48-39-108-62-174-62zm189 503c7-7 14-14 21-22 39 29 86 47 137 47 128 0 232-107 232-239 0-132-103-239-232-239-51 0-98 18-137 47-7-8-14-15-21-22 44-35 99-55 158-55 145 0 262 120 262 269 0 149-117 269-262 269-59 0-114-20-158-55zm32-36c38-49 60-111 60-178 0-67-22-129-60-178 36-27 79-43 126-43 119 0 215 99 215 221 0 122-96 221-215 221-47 0-90-16-126-43zm-94 0c-38-49-60-111-60-178 0-67 22-129 60-178-36-27-79-43-127-43-118 0-214 99-214 221 0 122 96 221 214 221 48 0 91-16 127-43zm15-344c-35 46-56 103-56 166 0 63 21 120 55 166 8-7 15-14 22-22-30-40-47-90-47-144 0-54 17-104 47-144-7-8-14-15-21-22zm32 36c-26 37-41 82-41 130 0 48 15 93 41 130 26-37 41-82 41-130 0-48-15-93-41-130zm-174-139c145 0 262 120 262 269 0 149-117 269-262 269-144 0-261-120-261-269 0-149 117-269 261-269zm0 30c-128 0-232 107-232 239 0 132 104 239 232 239 128 0 232-107 232-239 0-132-104-239-232-239z" stroke-width="30"/><g stroke-width="50"><path d="m15374 8882c-38 46-5 265-129 306-46-109 34-312 129-306zm-359 558c5-66 20-130 31-194 18 45 34 90 31 144-5 56-30 107-47 157l-6 17-3 9c-9-45-10-87-6-133zm-167 535c-24-77-16-168-9-250 19 41 34 83 47 128 16 62 33 137 20 204-23-17-40-39-54-71l-4-11zm111 630l2 15c-49-4-89-84-112-141-19-46-34-97-44-149 22 14 43 30 63 51 16 17 29 36 42 59 9 17 17 34 24 53 9 30 16 58 22 90l3 22zm181 403c-19 2-35-1-52-8-57-32-100-97-145-154l-8-11c89-9 198 29 244 155-13 9-25 15-39 18zm290 213c-15 38-34 61-63 75-67 25-140-13-201-58 44-13 86-43 131-52 47-10 90 8 133 35zm-166-2173c13-54 36-96 70-124l2-1c-6 36-9 76-17 112-4 22-10 42-18 60-10 20-26 43-42 48-7-30-2-65 5-95zm-231 111c126 251 48 274-11 494-76-184 7-358 11-494zm-259 1115c66 44 192 95 212 375-109 43-201-239-212-375zm50-628c40 50 150 316 93 454-147-76-104-312-93-454zm53 1176c56-41 271-43 331 181-145 145-262-153-331-181zm220 395c144-3 183-142 363-12-56 219-249 127-363 12z"/><path d="m15583 11233c-334-207-553-554-612-933-59-380 147-987 422-1188 52 10 106 9 154-24 46-32 75-96 100-161-116 46-217 51-254 171-272 160-500 827-443 1220 54 381 275 726 610 933l23-18zm-162-2027c28 0 56 2 84 8-22 17-42 42-65 57-40 22-88 8-127-15 27-41 72-47 108-50zm-299 392c22-42 44-78 76-103 24-16 49-25 75-30-32 71-67 143-123 173-16 7-34 13-52 12 8-18 16-35 24-52zm-100 390c25-66 68-101 115-127-3 10-6 20-9 31-18 59-32 122-73 156-15 10-31 16-48 17 2-28 7-52 15-77zm45 366c9-52 27-103 54-140 0 38 3 76 3 114-1 29-3 55-8 83-8 38-19 67-37 97l-9 15c-11-51-12-103-6-155l3-14zm152 451c-28-72-35-157-17-237 6-28 15-56 27-80 2 6 4 19 5 27 9 48 20 95 24 144 3 34 4 65 1 99-3 24-7 47-13 71l-6 19v1c-8-14-15-28-21-44zm340 348c-58-22-99-109-123-186-5-18-10-37-14-56-7-42-13-94-8-138 18 32 41 61 61 91 23 34 44 70 61 113 6 15 11 31 16 48 7 32 9 59 10 92l-1 21-2 15zm37-2175c-45 68-84 122-172 110 39-69 116-70 172-110zm-191 1715c24 109 217 228 172 497-112 0-229-290-172-497zm-155-288c-21 100 88 270-4 499-82-99-122-332 4-499zm-93-267c-43 86 47 276-96 440-54-150-14-364 96-440zm31-332c-61 92-48 305-203 292-10-172 97-261 203-292zm133-387c-53 112-112 299-260 258 97-251 154-227 260-258zm269-216c-79 25-91 64-137 96-50 34-117 11-172-28 33-132 207-105 309-68z"/></g><g font-family="&apos;Allegro&apos;" stroke-width="50" font-size="1804.33"><text x="10500" y="14850" transform="matrix(.66293 0 0 .66965 8225.84-185.04)">T1</text><text x="10500" y="14850" transform="matrix(.66293 0 0 .66965 9202.22 437.02)">T2</text></g></g></g></g><path d="m5605 17264c483-227 645-686 699-1163 52-448 57-907 51-1357-6-502-28-1004-43-1506-18-545-30-1092-6-1637 22-488 73-993 203-1467 244-889 640-1732 835-2635 59-276 106-555 140-835 38-311 61-625 64-938 9-770-101-1895-783-2422-432-333-984-342-1506-232-774 164-1510 502-2098 1005-415 355-746 783-967 1268-244 534-342 1106-319 1686 11 297 28 594 48 890 57 840 143 1679 222 2518 89 944 167 1887 211 2834 12 256 13 515 16 772 3 305 7 610 19 916 15 373 39 755 103 1124 43 256 119 587 272 807 144 209 388 347 631 434 293 106 621 154 933 162 414 11 902-48 1275-224" fill="#fff"/><g clip-path="url(#1)"><g><g fill="#201e1e" stroke="#201e1e" stroke-width="20"><path d="m2663 1539h-193v18418h193z"/><path d="m3261 1539h-192v18418h192z"/><path d="m3879 1539h-193v18418h193z"/><path d="m5133 1539h-193v18418h193z"/><path d="m6359 1539h-193v18418h193z"/><path d="m7572 1539h-192v18418h192z"/><path d="m4515 1539h-193v18418h193z"/><path d="m5769 1539h-193v18418h193z"/><path d="m6962 1539h-193v18418h193z"/><path d="m2075 1539h-193v18418h193z"/></g><g fill="#fefefe" stroke="#fefefe" stroke-linejoin="round" stroke-linecap="round" stroke-width="400"><path d="m3623 10645c33 23 69 39 111 47-46-63-40-91-36-167l116 78c-17-47-25-72-28-125-2-33 4-56 23-71l-5 2c30 117 75 170 176 267 38 43 100 111 104 187l1 24c1 18-16 80-22 95l51 25c7-17 16-51 15-76l-3-51c-9-166-262-302-270-438v-5c-1-29 13-54 24-72-7-9-44-35-57-34-30 2-96 88-89 136l7 63-79-58-4 4c-16 83-10 80 0 160l-84-38c-3 6-4 5-4 14l1 10c3 55 29 91 52 139l-60-27c5 84 29 113 104 154-36-40-59-77-54-104 32 22 64 40 105 40-45-58-79-117-95-179zm1339 0c-33 23-70 39-111 47 46-63 39-91 36-167l-117 78c18-47 26-72 29-125 2-33-4-56-23-71l5 2c-31 117-76 170-176 267-38 43-100 111-104 187l-2 24c-1 18 17 80 23 95l-52 25c-7-17-15-51-14-76l3-51c9-166 262-302 269-438v-5c2-29-13-54-23-72 7-9 44-35 57-34 30 2 95 88 88 136l-6 63 79-58 3 4c17 83 11 80 1 160l84-38c2 6 4 5 3 14v10c-3 55-30 91-52 139l59-27c-4 84-29 113-103 154 35-40 58-77 54-104-32 22-65 40-105 40 45-58 78-117 95-179zm246 1156l-46 27c-5-31-60-91-86-99-13 41-35 90-73 108-11-23-58-100-55-98l-105 98c3-49 2-128-23-169l1-14 45-38 19 158c57-36 40-119 110-134-14 25 5 122 34 124 30-88 13-94 80-141-3 11-5 11-6 24-2 39 51 86 77 102 1-97-20-86 40-147 62 4 130 3 156-33-148-21-288-85-416-161 8-26 8-16 39-20 75 5 106-1 157-40l-90-17 11-32c41 1 128-37 153-57-50-3-93-7-120-26 84-29 151-58 198-86l-101-35c-8-3-6-5 2-6 81-15 125-47 167-107-38 4-73-1-105-16 40-20 209-139 78-152 16-22 54-68 56-104 1-21-5-43-11-57-33 56-72 117-124 153-123 120-488 133-517 357l-1 14c-23 1-36 12-55 11-8 0-68-116-153-121-69-4-93 45-137 90 107 7 136 158 173 236 32 67 136 180 227 185l68 4c31 2 58-24 63 2l-69 21-63 1c-186-11-261-156-327-311-19-46-45-103-105-107l-36-2c-19-1-32 1-46 7-14-24-7-23-56-39-97-31-94-121-242-108-65 6-85 47-119 73-7-90-93-152-197-190-103-38-429-115-440-316l-69-24c-47 82-39 126 3 205l-56-6c6 100 115 147 123 166l-86 5c6 79 117 123 148 132l-90 15c42 57 103 80 165 106l-77 10c46 63 142 78 155 94l-50 3-22 1c10 59 101 85 150 90-59 30-124 58-186 81-50 19-164 60-208 26-18 50 136 138 211 123l-5 1 33 160 46 27c5-31 60-91 85-99 13 41 35 90 74 108 11-23 57-100 55-98l105 98c-3-49-3-128 22-169l-1-14-45-38-18 158c-57-36-40-119-110-134 13 25-5 122-34 124-30-88-13-94-80-141 2 11 4 11 5 24 2 39-50 86-76 102-1-97 20-86-40-147-63 4-130 3-156-33 148-21 287-85 415-161-8-26-7-16-38-20-75 5-106-1-157-40l90-17-11-32c-42 1-129-37-153-57 49-3 92-7 120-26-84-29-151-58-198-86l101-35c7-3 6-5-2-6-81-15-125-47-168-107 39 4 74-1 106-16-40-20-209-139-78-152-17-22-54-68-56-104-1-21 4-43 11-57 33 56 72 117 124 153 123 120 488 133 517 357l1 14c22 1 36 12 55 11 7 0 67-116 153-121 69-4 92 45 136 90-106 7-135 158-172 236-33 67-137 180-228 185l-68 4c-31 2-57-24-63 2l69 21 64 1c185-11 261-156 326-311 19-46 45-103 106-107l36-2c18-1 32 1 45 7 14-24 7-23 56-39 98-31 95-121 243-108 64 6 85 47 118 73 7-90 94-152 197-190 104-38 429-115 440-316l70-24c47 82 39 126-3 205l55-6c-5 100-114 147-122 166l86 5c-6 79-117 123-148 132l90 15c-42 57-104 80-165 106l77 10c-46 63-142 78-155 94l49 3 23 1c-11 59-102 85-150 90 59 30 124 58 186 81 49 19 163 60 208 26 17 50-136 138-211 123l4 1-32 160zm-632-653c-1 11-13 23-24 22h-4c-16-1-32-10-31-25 1-11 9-18 19-18l23 2c11 0 18 9 17 19zm-567 0c0 11 13 23 24 22h4c15-1 31-10 30-25 0-11-8-18-19-18l-22 2c-11 0-18 9-17 19z"/><path d="m4103 11669c153 0 277 127 277 284 0 157-124 284-277 284-152 0-276-127-276-284 0-157 124-284 276-284zm0 9c148 0 267 123 267 275 0 151-119 274-267 274-147 0-266-123-266-274 0-152 119-275 266-275z"/><path d="m4103 11719c126 0 228 105 228 234 0 129-102 233-228 233-125 0-227-104-227-233 0-129 102-234 227-234zm0 8c121 0 220 101 220 226 0 124-99 225-220 225-121 0-219-101-219-225 0-125 98-226 219-226z"/><path d="m4103 11669c153 0 277 127 277 284 0 157-124 284-277 284-152 0-276-127-276-284 0-157 124-284 276-284zm0 50c126 0 228 105 228 234 0 129-102 233-228 233-125 0-227-104-227-233 0-129 102-234 227-234zm0 8c121 0 220 101 220 226 0 124-99 225-220 225-121 0-219-101-219-225 0-125 98-226 219-226zm0-49c148 0 267 123 267 275 0 151-119 274-267 274-147 0-266-123-266-274 0-152 119-275 266-275z"/><path d="m5648 8839c37 46 4 265 128 306 46-110-34-312-128-306zm359 557c-6-66-21-129-32-194-18 45-34 91-31 145 6 56 30 107 47 157l6 17 3 8c9-44 10-87 7-133zm166 535c24-77 16-168 9-249-18 40-33 83-47 128-16 61-33 137-19 203 22-16 39-38 53-70l4-12zm-111 630l-1 15c49-3 88-83 112-140 18-47 33-98 43-150-22 15-42 31-63 52-15 17-29 36-42 58-8 17-17 35-23 54-10 30-17 58-23 90l-3 21zm-180 404c18 1 34-1 51-9 57-31 100-96 145-153l8-11c-89-9-198 28-244 155 13 9 26 15 40 18zm-291 213c15 38 35 60 63 75 68 25 141-13 201-58-44-13-86-43-130-52-47-11-91 8-134 35zm167-2173c-14-55-36-96-71-124l-2-2c6 37 10 76 17 113 5 21 10 41 19 60 9 20 26 42 42 48 6-30 2-66-5-95zm230 111c-125 251-47 274 12 494 75-184-7-358-12-494zm259 1115c-65 44-191 95-212 374 110 44 201-239 212-374zm-49-628c-40 49-150 316-94 454 148-76 104-312 94-454zm-53 1175c-57-41-271-42-332 182 146 145 263-154 332-182zm-221 395c-143-2-183-141-363-11 57 219 249 127 363 11z"/><path d="m5438 11190c334-207 553-555 612-934 60-379-147-987-422-1187-51 10-105 9-154-24-46-32-74-97-99-161 116 46 216 51 253 170 273 161 500 828 444 1221-55 380-276 726-611 933l-23-18zm162-2027c-28 0-56 2-83 7 22 18 41 43 64 57 40 23 88 9 127-14-27-41-72-48-108-50zm299 392c-22-42-44-79-75-103-24-17-49-25-76-31 32 72 67 144 123 174 17 7 35 12 52 11-8-17-16-34-24-51zm101 390c-26-67-69-102-116-127 3 9 7 20 9 30 18 60 33 123 73 157 16 10 31 15 48 17-1-28-6-52-14-77zm-45 365c-10-52-28-103-55-140 0 38-2 77-2 115 0 28 2 55 7 82 8 39 20 68 37 98l9 14c12-50 13-102 6-154l-2-15zm-152 452c28-73 34-158 17-238-7-28-16-56-28-80-2 6-3 20-5 27-9 48-19 96-24 145-3 34-3 65 0 98 3 25 7 48 13 72l5 18v2c8-14 15-28 22-44zm-341 348c58-22 100-109 123-186 6-18 10-37 14-56 7-43 13-94 8-138-18 32-40 61-61 90-23 35-44 71-61 113-6 16-11 31-15 49-7 31-10 58-10 91l1 21 1 16zm-37-2175c45 67 84 122 173 110-40-69-116-71-173-110zm192 1715c-25 109-218 227-173 496 112 0 229-290 173-496zm154-289c22 101-88 271 5 499 81-98 121-332-5-499zm93-267c43 86-46 277 96 440 54-149 14-363-96-440zm-31-331c62 92 49 304 203 292 10-173-97-261-203-292zm-132-387c53 112 111 299 259 258-97-252-154-227-259-258zm-270-216c79 25 91 64 137 95 50 35 117 12 173-27-34-132-208-105-310-68z"/><path d="m4663 8909v-2h6c1 0 4 0 6 3 5 8-16 23-20 26-4 4-9 8-13 11l-16 10c-6 3-12 5-19 8-7 3-15 5-22 7-8 3-16 5-24 7-7 1-14 2-21 3-7 1-14 1-21 1-35 0-70-4-104-8-124-18-248-28-373-28-57 0-129 3-183 22-40 13-79 32-115 54-35 22-66 49-93 80-21 24-40 54-40 88 0 25 13 45 32 60 24 20 54 26 84 26 67 0 130-20 187-58 38-25 88-65 88-118 0-14-6-25-16-34-13-12-31-15-48-15-91 0-171 59-234 126l-4 3-16-9 6-6c34-42 74-76 120-100 40-20 84-34 128-34 23 0 46 4 62 21 13 13 22 29 22 48 0 43-25 77-55 103-36 32-77 56-122 71-39 12-81 22-122 22-34 0-66-8-93-30-23-17-39-41-39-72 0-80 84-149 140-189 119-84 306-98 444-98 76 0 151 3 226 9 56 4 114 9 169 9 5 0 9 0 14-1 4 0 9 0 13 0 5-1 9-1 14-2 4 0 8-1 11-2l11-2c3-1 7-2 10-3 4-1 8-3 12-4 2-1 5-2 8-3zm-544 444c-18 30-28 68-35 102l-1 5-58 1 6-11c6-11 13-25 21-36 11-14 24-36 36-55-17 3-36 5-52 5h-7c-59 117-136 224-239 300-99 73-212 104-332 104-43 0-94-5-130-32-26-19-44-45-44-80 0-18 5-34 16-48 11-12 24-19 40-19 11 0 21 3 29 11 8 8 13 17 13 29 0 12-5 22-13 30-7 8-16 13-27 13-8 0-16-3-23-8-5-3-10-8-13-13-2 2-2 6-2 9 0 27 17 47 38 62 33 23 87 27 125 27 105 0 199-32 280-103 87-78 162-178 225-279-4 0-9 0-13 0-35 0-74 7-108 16-47 11-93 27-136 48l-6 3-8-18 6-2c82-37 174-67 264-67 4 0 9 0 13 1 91-143 203-266 334-367l7-6 6 16-4 4c-41 35-86 73-123 112-33 36-63 79-91 119-26 36-54 77-74 118 21 0 43-3 64-7 21-31 69-99 106-99 15 0 28 6 28 24 0 23-20 42-36 55-24 19-53 31-82 36zm14-24c19-4 37-13 54-25 10-8 30-24 30-39 0-6-5-7-10-7-12 0-29 16-38 24-13 14-26 30-36 47zm841 50c-38 1-76 7-113 18-42 11-81 28-118 51-38 22-72 49-103 81-32 31-59 67-81 106-10 17-19 35-27 53-8 20-15 40-19 61-5 21-7 42-6 64 0 21 5 41 14 60 3 6 6 15-1 20-8 5-15-2-18-9-10-19-16-39-21-60-5-23-7-47-7-70 1-25 4-50 10-75 6-25 15-49 27-71 20-37 45-71 75-100 28-26 58-50 91-70 30-19 62-35 96-47 29-11 60-22 90-30 25-7 50-13 75-18 15-3 33-7 48-13 7-1 14-3 20-7 5-4 9-8 13-13 4-4 9-6 15-5 4 1 8 3 11 5 4 3 6 6 8 10 3 5 3 9 0 13-19 45-38 89-59 132-21 46-42 92-64 137-21 43-42 87-63 130-19 36-37 73-55 109-1 3-2 7-1 11 0 0 1 0 1 0 7 0 15 4 14 13-1 8-7 11-13 13-4 1-8 3-11 4-5 2-10 4-14 6-34 62-69 123-106 183-38 60-79 119-123 174-22 29-47 56-73 82-26 27-54 51-84 73-30 23-62 43-96 60-35 18-73 31-111 41-24 6-51 9-75 2-20-6-37-18-48-37-11-19-12-43-9-65 3-30 18-59 33-84 23-36 50-68 79-98 32-34 67-65 103-94 38-30 77-59 118-85 41-26 82-51 125-74 39-22 80-42 121-59 35-16 71-30 108-42 20-42 40-84 61-126 21-44 42-89 62-133 20-42 39-84 58-126 15-33 29-67 43-101zm-243 524c-50 20-100 42-148 67-60 30-117 65-172 103-55 38-108 80-157 126-45 42-87 88-123 140-13 21-28 46-33 71-3 14-4 31 3 44 7 12 19 17 32 20 19 4 40 0 58-5 36-10 71-24 104-42 31-17 61-37 90-60 27-21 53-45 77-71 23-24 46-50 67-76 19-22 36-47 52-71 20-30 40-60 59-91 19-31 37-62 56-93 12-21 23-41 35-62z"/><path d="m4101 11664c-155 0-281 129-281 289 0 159 126 289 281 289 66 0 126-23 174-62 48 39 108 62 173 62 156 0 281-130 281-289 0-160-125-289-281-289-65 0-125 23-173 61-48-38-108-61-174-61zm189 503c7-7 14-14 21-22 39 29 86 46 137 46 128 0 232-106 232-238 0-132-103-239-232-239-51 0-98 17-137 46-7-7-14-15-21-22 44-34 99-55 158-55 145 0 262 121 262 270 0 148-117 269-262 269-59 0-114-21-158-55zm32-36c38-49 60-111 60-178 0-68-22-130-60-179 36-26 79-42 126-42 119 0 215 99 215 221 0 122-96 220-215 220-47 0-90-15-126-42zm-94 0c-38-49-60-111-60-178 0-68 22-130 60-179-36-26-79-42-127-42-118 0-214 99-214 221 0 122 96 220 214 220 48 0 91-15 127-42zm15-344c-35 45-56 103-56 166 0 62 21 120 56 166 7-7 14-14 21-22-30-40-47-90-47-144 0-54 17-104 47-144-7-8-14-16-21-22zm32 36c-26 37-41 81-41 130 0 48 15 93 41 129 26-36 41-81 41-129 0-49-15-93-41-130zm-174-140c145 0 262 121 262 270 0 148-117 269-262 269-144 0-261-121-261-269 0-149 117-270 261-270zm0 31c-128 0-232 107-232 239 0 132 104 238 232 238 128 0 232-107 232-238 0-132-103-239-232-239z"/><path d="m2944 8839c-38 46-5 265-129 306-46-110 34-312 129-306zm-359 557c5-66 20-129 31-194 18 45 34 91 31 145-5 56-30 107-47 157l-6 17-3 8c-9-44-10-87-6-133zm-167 535c-24-77-16-168-9-249 19 40 34 83 47 128 17 61 33 137 20 203-23-16-40-38-54-70l-4-12zm111 630l2 15c-49-3-89-83-112-140-19-47-33-98-44-150 22 15 43 31 63 52 16 17 29 36 42 58 9 17 17 35 24 54 9 30 16 58 22 90l3 21zm181 404c-19 1-35-1-52-9-57-31-100-96-145-153l-8-11c89-9 198 28 244 155-13 9-25 15-39 18zm290 213c-15 38-34 60-63 75-67 25-140-13-201-58 44-13 86-43 131-52 47-11 90 8 133 35zm-166-2173c13-55 36-96 70-124l2-2c-6 37-9 76-17 113-4 21-10 41-18 60-10 20-26 42-42 48-7-30-2-66 5-95zm-231 111c126 251 48 274-11 494-76-184 7-358 11-494zm-259 1115c66 44 192 95 212 374-109 44-201-239-212-374zm50-628c40 49 150 316 93 454-147-76-104-312-93-454zm53 1175c56-41 271-42 331 182-145 145-262-154-331-182zm220 395c144-2 183-141 363-11-56 219-248 127-363 11z"/><path d="m3153 11190c-334-207-552-555-612-934-59-379 147-987 422-1187 52 10 106 9 154-24 46-32 75-97 100-161-116 46-217 51-254 170-272 161-500 828-443 1221 54 380 275 726 610 933l23-18zm-161-2027c27 0 55 2 83 7-22 18-42 43-65 57-40 23-88 9-127-14 27-41 72-48 109-50zm-300 392c22-42 44-79 76-103 24-17 49-25 75-31-32 72-67 144-123 174-16 7-34 12-52 11 8-17 16-34 24-51zm-100 390c25-67 68-102 115-127-3 9-6 20-9 30-18 60-32 123-73 157-15 10-31 15-48 17 2-28 7-52 15-77zm45 365c9-52 27-103 54-140 0 38 3 77 3 115-1 28-3 55-8 82-8 39-19 68-37 98l-9 14c-11-50-12-102-6-154l3-15zm152 452c-28-73-35-158-17-238 6-28 15-56 27-80 2 6 4 20 5 27 9 48 20 96 24 145 3 34 4 65 1 98-3 25-7 48-13 72l-6 18v2c-8-14-15-28-21-44zm340 348c-58-22-99-109-123-186-5-18-10-37-14-56-7-43-13-94-8-138 19 32 41 61 61 90 23 35 44 71 61 113 6 16 11 31 16 49 7 31 9 58 10 91l-1 21-2 16zm37-2175c-45 67-84 122-172 110 39-69 116-71 172-110zm-191 1715c24 109 217 227 172 496-112 0-229-290-172-496zm-155-289c-21 101 88 271-4 499-82-98-122-332 4-499zm-93-267c-43 86 47 277-96 440-54-149-14-363 96-440zm31-331c-61 92-48 304-203 292-10-173 97-261 203-292zm133-387c-53 112-112 299-260 258 97-252 154-227 260-258zm269-216c-79 25-91 64-137 95-50 35-117 12-172-27 33-132 207-105 309-68z"/></g><path d="m2479 9421c21-168 564-333 739-328 133 5 197-54 299 200 114 284 358-19 364-116 247-128-3-116 353-171 11-2 20-7 24-16 313-53 553 84 744 329 30 38 14 33 54 58 119-41 638-244 711-152 79 100 76 53 186 222 284 434 121 301 41 745-24 131-127 509-249 591l-22 14c-77 74-348 265-351 334 0 9-73 121-76 159-1 0-191 192-208 207-99 84-229 211-370 224-16 30-88 56-122 62-111 186-763 25-923 0-2 0-544-296-622-336-313-161-267-602-419-782 0 0-154-253-154-253-47-25-41-87-81-132 9-42-68-265-29-425 12-48 75-396 110-404 7-18-1-12 1-30" fill="#fefefe"/><g stroke-linejoin="round" stroke-linecap="round"><path d="m3623 10645c33 23 69 39 111 47-46-63-40-91-36-167l116 78c-17-47-25-72-28-125-2-33 4-56 23-71l-5 2c30 117 75 170 176 267 38 43 100 111 104 187l1 24c1 18-16 80-22 95l51 25c7-17 16-51 15-76l-3-51c-9-166-262-302-270-438v-5c-1-29 13-54 24-72-7-9-44-35-57-34-30 2-96 88-89 136l7 63-79-58-4 4c-16 83-10 80 0 160l-84-38c-3 6-4 5-4 14l1 10c3 55 29 91 52 139l-60-27c5 84 29 113 104 154-36-40-59-77-54-104 32 22 64 40 105 40-45-58-79-117-95-179zm1339 0c-33 23-70 39-111 47 46-63 39-91 36-167l-117 78c18-47 26-72 29-125 2-33-4-56-23-71l5 2c-31 117-76 170-176 267-38 43-100 111-104 187l-2 24c-1 18 17 80 23 95l-52 25c-7-17-15-51-14-76l3-51c9-166 262-302 269-438v-5c2-29-13-54-23-72 7-9 44-35 57-34 30 2 95 88 88 136l-6 63 79-58 3 4c17 83 11 80 1 160l84-38c2 6 4 5 3 14v10c-3 55-30 91-52 139l59-27c-4 84-29 113-103 154 35-40 58-77 54-104-32 22-65 40-105 40 45-58 78-117 95-179zm246 1156l-46 27c-5-31-60-91-86-99-13 41-35 90-73 108-11-23-58-100-55-98l-105 98c3-49 2-128-23-169l1-14 45-38 19 158c57-36 40-119 110-134-14 25 5 122 34 124 30-88 13-94 80-141-3 11-5 11-6 24-2 39 51 86 77 102 1-97-20-86 40-147 62 4 130 3 156-33-148-21-288-85-416-161 8-26 8-16 39-20 75 5 106-1 157-40l-90-17 11-32c41 1 128-37 153-57-50-3-93-7-120-26 84-29 151-58 198-86l-101-35c-8-3-6-5 2-6 81-15 125-47 167-107-38 4-73-1-105-16 40-20 209-139 78-152 16-22 54-68 56-104 1-21-5-43-11-57-33 56-72 117-124 153-123 120-488 133-517 357l-1 14c-23 1-36 12-55 11-8 0-68-116-153-121-69-4-93 45-137 90 107 7 136 158 173 236 32 67 136 180 227 185l68 4c31 2 58-24 63 2l-69 21-63 1c-186-11-261-156-327-311-19-46-45-103-105-107l-36-2c-19-1-32 1-46 7-14-24-7-23-56-39-97-31-94-121-242-108-65 6-85 47-119 73-7-90-93-152-197-190-103-38-429-115-440-316l-69-24c-47 82-39 126 3 205l-56-6c6 100 115 147 123 166l-86 5c6 79 117 123 148 132l-90 15c42 57 103 80 165 106l-77 10c46 63 142 78 155 94l-50 3-22 1c10 59 101 85 150 90-59 30-124 58-186 81-50 19-164 60-208 26-18 50 136 138 211 123l-5 1 33 160 46 27c5-31 60-91 85-99 13 41 35 90 74 108 11-23 57-100 55-98l105 98c-3-49-3-128 22-169l-1-14-45-38-18 158c-57-36-40-119-110-134 13 25-5 122-34 124-30-88-13-94-80-141 2 11 4 11 5 24 2 39-50 86-76 102-1-97 20-86-40-147-63 4-130 3-156-33 148-21 287-85 415-161-8-26-7-16-38-20-75 5-106-1-157-40l90-17-11-32c-42 1-129-37-153-57 49-3 92-7 120-26-84-29-151-58-198-86l101-35c7-3 6-5-2-6-81-15-125-47-168-107 39 4 74-1 106-16-40-20-209-139-78-152-17-22-54-68-56-104-1-21 4-43 11-57 33 56 72 117 124 153 123 120 488 133 517 357l1 14c22 1 36 12 55 11 7 0 67-116 153-121 69-4 92 45 136 90-106 7-135 158-172 236-33 67-137 180-228 185l-68 4c-31 2-57-24-63 2l69 21 64 1c185-11 261-156 326-311 19-46 45-103 106-107l36-2c18-1 32 1 45 7 14-24 7-23 56-39 98-31 95-121 243-108 64 6 85 47 118 73 7-90 94-152 197-190 104-38 429-115 440-316l70-24c47 82 39 126-3 205l55-6c-5 100-114 147-122 166l86 5c-6 79-117 123-148 132l90 15c-42 57-104 80-165 106l77 10c-46 63-142 78-155 94l49 3 23 1c-11 59-102 85-150 90 59 30 124 58 186 81 49 19 163 60 208 26 17 50-136 138-211 123l4 1-32 160zm-632-653c-1 11-13 23-24 22h-4c-16-1-32-10-31-25 1-11 9-18 19-18l23 2c11 0 18 9 17 19zm-567 0c0 11 13 23 24 22h4c15-1 31-10 30-25 0-11-8-18-19-18l-22 2c-11 0-18 9-17 19z" fill="#201e1e" stroke="#201e1e" stroke-width="20"/><g fill="#d2983a" stroke="#d2983a" stroke-width="30"><path d="m4103 11669c153 0 277 127 277 284 0 157-124 284-277 284-152 0-276-127-276-284 0-157 124-284 276-284zm0 9c148 0 267 123 267 275 0 151-119 274-267 274-147 0-266-123-266-274 0-152 119-275 266-275z"/><path d="m4103 11719c126 0 228 105 228 234 0 129-102 233-228 233-125 0-227-104-227-233 0-129 102-234 227-234zm0 8c121 0 220 101 220 226 0 124-99 225-220 225-121 0-219-101-219-225 0-125 98-226 219-226z"/><path d="m4103 11669c153 0 277 127 277 284 0 157-124 284-277 284-152 0-276-127-276-284 0-157 124-284 276-284zm0 50c126 0 228 105 228 234 0 129-102 233-228 233-125 0-227-104-227-233 0-129 102-234 227-234zm0 8c121 0 220 101 220 226 0 124-99 225-220 225-121 0-219-101-219-225 0-125 98-226 219-226zm0-49c148 0 267 123 267 275 0 151-119 274-267 274-147 0-266-123-266-274 0-152 119-275 266-275z"/></g></g><ellipse cx="4297" cy="9277" rx="1881" ry="849" fill="#fff" stroke="#fff" stroke-width="20"/><g fill="#201e1e" stroke="#201e1e" stroke-linejoin="round" stroke-linecap="round" stroke-width="50"><path d="m5648 8839c37 46 4 265 128 306 46-110-34-312-128-306zm359 557c-6-66-21-129-32-194-18 45-34 91-31 145 6 56 30 107 47 157l6 17 3 8c9-44 10-87 7-133zm166 535c24-77 16-168 9-249-18 40-33 83-47 128-16 61-33 137-19 203 22-16 39-38 53-70l4-12zm-111 630l-1 15c49-3 88-83 112-140 18-47 33-98 43-150-22 15-42 31-63 52-15 17-29 36-42 58-8 17-17 35-23 54-10 30-17 58-23 90l-3 21zm-180 404c18 1 34-1 51-9 57-31 100-96 145-153l8-11c-89-9-198 28-244 155 13 9 26 15 40 18zm-291 213c15 38 35 60 63 75 68 25 141-13 201-58-44-13-86-43-130-52-47-11-91 8-134 35zm167-2173c-14-55-36-96-71-124l-2-2c6 37 10 76 17 113 5 21 10 41 19 60 9 20 26 42 42 48 6-30 2-66-5-95zm230 111c-125 251-47 274 12 494 75-184-7-358-12-494zm259 1115c-65 44-191 95-212 374 110 44 201-239 212-374zm-49-628c-40 49-150 316-94 454 148-76 104-312 94-454zm-53 1175c-57-41-271-42-332 182 146 145 263-154 332-182zm-221 395c-143-2-183-141-363-11 57 219 249 127 363 11z"/><path d="m5438 11190c334-207 553-555 612-934 60-379-147-987-422-1187-51 10-105 9-154-24-46-32-74-97-99-161 116 46 216 51 253 170 273 161 500 828 444 1221-55 380-276 726-611 933l-23-18zm162-2027c-28 0-56 2-83 7 22 18 41 43 64 57 40 23 88 9 127-14-27-41-72-48-108-50zm299 392c-22-42-44-79-75-103-24-17-49-25-76-31 32 72 67 144 123 174 17 7 35 12 52 11-8-17-16-34-24-51zm101 390c-26-67-69-102-116-127 3 9 7 20 9 30 18 60 33 123 73 157 16 10 31 15 48 17-1-28-6-52-14-77zm-45 365c-10-52-28-103-55-140 0 38-2 77-2 115 0 28 2 55 7 82 8 39 20 68 37 98l9 14c12-50 13-102 6-154l-2-15zm-152 452c28-73 34-158 17-238-7-28-16-56-28-80-2 6-3 20-5 27-9 48-19 96-24 145-3 34-3 65 0 98 3 25 7 48 13 72l5 18v2c8-14 15-28 22-44zm-341 348c58-22 100-109 123-186 6-18 10-37 14-56 7-43 13-94 8-138-18 32-40 61-61 90-23 35-44 71-61 113-6 16-11 31-15 49-7 31-10 58-10 91l1 21 1 16zm-37-2175c45 67 84 122 173 110-40-69-116-71-173-110zm192 1715c-25 109-218 227-173 496 112 0 229-290 173-496zm154-289c22 101-88 271 5 499 81-98 121-332-5-499zm93-267c43 86-46 277 96 440 54-149 14-363-96-440zm-31-331c62 92 49 304 203 292 10-173-97-261-203-292zm-132-387c53 112 111 299 259 258-97-252-154-227-259-258zm-270-216c79 25 91 64 137 95 50 35 117 12 173-27-34-132-208-105-310-68z"/></g><g stroke-linejoin="round" stroke-linecap="round"><g fill="#201e1e" stroke="#201e1e"><path d="m4101 11664c-155 0-281 129-281 289 0 159 126 289 281 289 66 0 126-23 174-62 48 39 108 62 173 62 156 0 281-130 281-289 0-160-125-289-281-289-65 0-125 23-173 61-48-38-108-61-174-61zm189 503c7-7 14-14 21-22 39 29 86 46 137 46 128 0 232-106 232-238 0-132-103-239-232-239-51 0-98 17-137 46-7-7-14-15-21-22 44-34 99-55 158-55 145 0 262 121 262 270 0 148-117 269-262 269-59 0-114-21-158-55zm32-36c38-49 60-111 60-178 0-68-22-130-60-179 36-26 79-42 126-42 119 0 215 99 215 221 0 122-96 220-215 220-47 0-90-15-126-42zm-94 0c-38-49-60-111-60-178 0-68 22-130 60-179-36-26-79-42-127-42-118 0-214 99-214 221 0 122 96 220 214 220 48 0 91-15 127-42zm15-344c-35 45-56 103-56 166 0 62 21 120 56 166 7-7 14-14 21-22-30-40-47-90-47-144 0-54 17-104 47-144-7-8-14-16-21-22zm32 36c-26 37-41 81-41 130 0 48 15 93 41 129 26-36 41-81 41-129 0-49-15-93-41-130zm-174-140c145 0 262 121 262 270 0 148-117 269-262 269-144 0-261-121-261-269 0-149 117-270 261-270zm0 31c-128 0-232 107-232 239 0 132 104 238 232 238 128 0 232-107 232-238 0-132-103-239-232-239z" stroke-width="30"/><g stroke-width="50"><path d="m2944 8839c-38 46-5 265-129 306-46-110 34-312 129-306zm-359 557c5-66 20-129 31-194 18 45 34 91 31 145-5 56-30 107-47 157l-6 17-3 8c-9-44-10-87-6-133zm-167 535c-24-77-16-168-9-249 19 40 34 83 47 128 17 61 33 137 20 203-23-16-40-38-54-70l-4-12zm111 630l2 15c-49-3-89-83-112-140-19-47-33-98-44-150 22 15 43 31 63 52 16 17 29 36 42 58 9 17 17 35 24 54 9 30 16 58 22 90l3 21zm181 404c-19 1-35-1-52-9-57-31-100-96-145-153l-8-11c89-9 198 28 244 155-13 9-25 15-39 18zm290 213c-15 38-34 60-63 75-67 25-140-13-201-58 44-13 86-43 131-52 47-11 90 8 133 35zm-166-2173c13-55 36-96 70-124l2-2c-6 37-9 76-17 113-4 21-10 41-18 60-10 20-26 42-42 48-7-30-2-66 5-95zm-231 111c126 251 48 274-11 494-76-184 7-358 11-494zm-259 1115c66 44 192 95 212 374-109 44-201-239-212-374zm50-628c40 49 150 316 93 454-147-76-104-312-93-454zm53 1175c56-41 271-42 331 182-145 145-262-154-331-182zm220 395c144-2 183-141 363-11-56 219-248 127-363 11z"/><path d="m3153 11190c-334-207-552-555-612-934-59-379 147-987 422-1187 52 10 106 9 154-24 46-32 75-97 100-161-116 46-217 51-254 170-272 161-500 828-443 1221 54 380 275 726 610 933l23-18zm-161-2027c27 0 55 2 83 7-22 18-42 43-65 57-40 23-88 9-127-14 27-41 72-48 109-50zm-300 392c22-42 44-79 76-103 24-17 49-25 75-31-32 72-67 144-123 174-16 7-34 12-52 11 8-17 16-34 24-51zm-100 390c25-67 68-102 115-127-3 9-6 20-9 30-18 60-32 123-73 157-15 10-31 15-48 17 2-28 7-52 15-77zm45 365c9-52 27-103 54-140 0 38 3 77 3 115-1 28-3 55-8 82-8 39-19 68-37 98l-9 14c-11-50-12-102-6-154l3-15zm152 452c-28-73-35-158-17-238 6-28 15-56 27-80 2 6 4 20 5 27 9 48 20 96 24 145 3 34 4 65 1 98-3 25-7 48-13 72l-6 18v2c-8-14-15-28-21-44zm340 348c-58-22-99-109-123-186-5-18-10-37-14-56-7-43-13-94-8-138 19 32 41 61 61 90 23 35 44 71 61 113 6 16 11 31 16 49 7 31 9 58 10 91l-1 21-2 16zm37-2175c-45 67-84 122-172 110 39-69 116-71 172-110zm-191 1715c24 109 217 227 172 496-112 0-229-290-172-496zm-155-289c-21 101 88 271-4 499-82-98-122-332 4-499zm-93-267c-43 86 47 277-96 440-54-149-14-363 96-440zm31-331c-61 92-48 304-203 292-10-173 97-261 203-292zm133-387c-53 112-112 299-260 258 97-252 154-227 260-258zm269-216c-79 25-91 64-137 95-50 35-117 12-172-27 33-132 207-105 309-68z"/></g><g font-family="&apos;Allegro&apos;" stroke-width="50" font-size="1804.33"><text x="10500" y="14850" transform="matrix(.66293 0 0 .66965-4142.09-228.34)">T1</text><text x="10500" y="14850" transform="matrix(.66293 0 0 .66965-3146.82 491.18)">T2</text></g></g><path d="m5681 17135l-15-17c0 0-170-84-510-166 0 0-154-102-224-195 0 0-448-396-567-451 0 0-194-162-259-318 0 0-202-420-264-456 0 0 7-31 150-93 0 0 53-26-29-221 0 0-53-108-49-197 0 0-23-203-80-235 0 0-28-20 11-58 0 0 56-32 46-102 0 0 140-67 17-199 0 0-56-44-105 10 0 0-131-74-232 63 0 0-8 14-4 114 0 0-9 36-28 66 0 0-15 18 27 12 0 0-2 96 15 102 0 0 13 5 81-6 0 0 76 21 46 94l-49 124c0 0-167 181-148 231 0 0 32 62 37 75l-81-53-13-332c0 0 8-48-34-58 0 0-83-44-52-102l-13-48c0 0 11-81 128-54 0 0 31-40 30-69l21-56 33-15c0 0 7-10-31-54l-29-197c0 0-216-145-340 54 0 0-20 48 32 272 0 0 35 13-48 49 0 0-19 19-16 59 0 0-116 58-124 350 0 0 9 424 15 552 0 0-27 286-30 346 0 0 95 6 106 76l12 562c0 0-18 352 0 494l31 28 4 66c0 0 123-54 238-18 0 0 208 25 237-50 0 0 43-38-95-48 0 0-94-10-84-59 0 0-5-71-35-85l68-980 37 1c0 0-10-191 43-231 0 0 16 1389 262 1504 0 0 594 173 1798-5 0 0 95-4 63-76zm-1812-1798l-11-8-22 65c0 0-26 48 53-3 0 0 37-13-20-54z" fill="#fefefe" stroke="#fefefe" stroke-width="400"/></g><path d="m5681 17135l-15-17c0 0-170-84-510-166 0 0-154-102-224-195 0 0-448-396-567-451 0 0-194-162-259-318 0 0-202-420-264-456 0 0 7-31 150-93 0 0 53-26-29-221 0 0-53-108-49-197 0 0-23-203-80-235 0 0-28-20 11-58 0 0 56-32 46-102 0 0 140-67 17-199 0 0-56-44-105 10 0 0-131-74-232 63 0 0-8 14-4 114 0 0-9 36-28 66 0 0-15 18 27 12 0 0-2 96 15 102 0 0 13 5 81-6 0 0 76 21 46 94l-49 124c0 0-167 181-148 231 0 0 32 62 37 75l-81-53-13-332c0 0 8-48-34-58 0 0-83-44-52-102l-13-48c0 0 11-81 128-54 0 0 31-40 30-69l21-56 33-15c0 0 7-10-31-54l-29-197c0 0-216-145-340 54 0 0-20 48 32 272 0 0 35 13-48 49 0 0-19 19-16 59 0 0-116 58-124 350 0 0 9 424 15 552 0 0-27 286-30 346 0 0 95 6 106 76l12 562c0 0-18 352 0 494l31 28 4 66c0 0 123-54 238-18 0 0 208 25 237-50 0 0 43-38-95-48 0 0-94-10-84-59 0 0-5-71-35-85l68-980 37 1c0 0-10-191 43-231 0 0 16 1389 262 1504 0 0 594 173 1798-5 0 0 95-4 63-76m-1812-1798l-11-8-22 65c0 0-26 48 53-3 0 0 37-13-20-54" fill="#201e1e"/><g><rect x="3819" y="12996" width="1173" height="369" rx="586.5" ry="184.5" fill="#fff"/><text x="10500" y="14850" fill="#201e1e" font-family="&apos;Arial Black&apos;" font-weight="900" font-size="529.17" transform="matrix(.71328 0 0 .66965-3568.72 3365.21)">NN 1</text></g></g></g><g fill="#201e1e" font-family="&apos;Arial&apos;" font-weight="normal" font-size="423.33"><text x="711" y="28324">DESC 1</text><text x="724" y="28709">DESC 2</text><text x="722" y="29090">DESC 3</text></g></svg>