<svg xmlns="http://www.w3.org/2000/svg" width="744.09" height="1052.36" viewBox="0 0 21000 29700" shape-rendering="geometricPrecision" image-rendering="optimizeQuality" fill-rule="evenodd" clip-rule="evenodd"><defs><clipPath id="0"><path d="m14732 20825c-562-284-750-857-813-1451-59-559-66-1131-59-1694 7-626 32-1252 51-1878 20-680 34-1363 6-2042-26-609-84-1240-236-1831-283-1109-744-2161-970-3286-69-345-123-693-163-1042-44-388-71-780-75-1170-10-961 117-2365 911-3023 501-415 1143-426 1751-289 899 205 1754 626 2438 1254 483 443 867 977 1124 1582 283 666 397 1380 371 2103-13 371-32 741-55 1111-67 1048-167 2094-259 3141-103 1177-193 2354-246 3535-14 320-15 643-18 963-4 381-8 762-22 1143-17 466-46 943-119 1403-51 319-139 733-316 1007-169 260-452 432-734 542-340 131-722 192-1085 202-481 13-1048-61-1482-280"/></clipPath><clipPath id="1"><path d="m6246 20825c561-284 749-857 812-1451 60-559 66-1131 60-1694-8-626-33-1252-51-1878-21-680-35-1363-6-2042 25-609 84-1240 235-1831 284-1109 744-2161 970-3286 69-345 123-693 163-1042 44-388 71-780 75-1170 10-961-117-2365-911-3023-501-415-1143-426-1750-289-900 205-1755 626-2439 1254-483 443-867 977-1124 1582-283 666-397 1380-371 2103 13 371 32 741 56 1111 66 1048 166 2094 258 3141 103 1177 194 2354 246 3535 14 320 15 643 18 963 4 381 8 762 22 1143 17 466 46 943 119 1403 51 319 140 733 317 1007 168 260 452 432 734 542 340 131 721 192 1084 202 481 13 1048-61 1483-280"/></clipPath></defs><text x="10117" y="22243" fill="#201e1e" font-family="&apos;Arial Black&apos;" stroke="#201e1e" font-weight="900" stroke-width="7.62" font-size="705.56">30</text><g fill="none" stroke-width="80"><g stroke="#322f30"><circle cx="10533" cy="1326" r="460"/><path d="m10533 515v1621"/><path d="m9723 1326h1621"/></g><g stroke="#373435"><circle cx="10569" cy="23614" r="460"/><path d="m10569 22803v1621"/><path d="m9758 23614h1621"/></g></g><g fill="#fff"><rect x="9843" y="20496" width="1347" height="637" rx="318" stroke="#fff" stroke-width="20"/><path d="m14732 20825c-562-284-750-857-813-1451-59-559-66-1131-59-1694 7-626 32-1252 51-1878 20-680 34-1363 6-2042-26-609-84-1240-236-1831-283-1109-744-2161-970-3286-69-345-123-693-163-1042-44-388-71-780-75-1170-10-961 117-2365 911-3023 501-415 1143-426 1751-289 899 205 1754 626 2438 1254 483 443 867 977 1124 1582 283 666 397 1380 371 2103-13 371-32 741-55 1111-67 1048-167 2094-259 3141-103 1177-193 2354-246 3535-14 320-15 643-18 963-4 381-8 762-22 1143-17 466-46 943-119 1403-51 319-139 733-316 1007-169 260-452 432-734 542-340 131-722 192-1085 202-481 13-1048-61-1482-280"/></g><g clip-path="url(#0)"><g><g fill="#201e1e" stroke="#201e1e" stroke-width="20"><path d="m18151 1206h225v22978h-225z"/><path d="m17456 1206h225v22978h-225z"/><path d="m16739 1206h224v22978h-224z"/><path d="m15281 1206h224v22978h-224z"/><path d="m13856 1206h224v22978h-224z"/><path d="m12445 1206h224v22978h-224z"/><path d="m15999 1206h224v22978h-224z"/><path d="m14541 1206h224v22978h-224z"/><path d="m13155 1206h224v22978h-224z"/><path d="m18835 1206h225v22978h-225z"/></g><path d="m14644 20664l17-22c0 0 198-104 593-206 0 0 179-127 261-244 0 0 521-494 658-563 0 0 226-202 302-396 0 0 234-523 307-569 0 0-9-39-175-116 0 0-62-32 33-276 0 0 62-134 58-245 0 0 26-254 93-294 0 0 32-24-13-72 0 0-65-40-54-128 0 0-163-82-19-248 0 0 64-54 122 13 0 0 152-92 269 79 0 0 10 17 5 141 0 0 11 45 32 83 0 0 18 23-31 15 0 0 2 120-17 127 0 0-15 7-94-8 0 0-88 27-54 118l57 154c0 0 195 226 172 289 0 0-37 78-43 94l95-66 14-415c0 0-9-59 40-73 0 0 96-54 61-126l14-60c0 0-13-101-148-68 0 0-37-49-35-85l-25-71-38-18c0 0-8-13 36-68l33-245c0 0 251-181 396 67 0 0 23 60-37 339 0 0-41 16 55 61 0 0 23 24 20 74 0 0 134 72 144 436 0 0-11 529-18 689 0 0 31 357 34 433 0 0-109 6-123 94l-13 701c0 0 21 440-1 616l-35 35-5 83c0 0-143-68-276-23 0 0-242 31-276-62 0 0-51-48 110-60 0 0 110-12 98-74 0 0 5-88 41-106l-80-1222-43 1c0 0 12-239-50-289 0 0-18 1734-304 1877 0 0-691 216-2090-6 0 0-111-6-73-95zm2107-2244l12-9 26 81c0 0 29 60-63-4 0 0-43-17 25-68z" fill="#fefefe" stroke="#fefefe" stroke-linejoin="round" stroke-linecap="round" stroke-width="400"/><path d="m14644 20664l17-22c0 0 198-104 593-206 0 0 179-127 261-244 0 0 521-494 658-563 0 0 226-202 302-396 0 0 234-523 307-569 0 0-9-39-175-116 0 0-62-32 33-276 0 0 62-134 58-245 0 0 26-254 93-294 0 0 32-24-13-72 0 0-65-40-54-128 0 0-163-82-19-248 0 0 64-54 122 13 0 0 152-92 269 79 0 0 10 17 5 141 0 0 11 45 32 83 0 0 18 23-31 15 0 0 2 120-17 127 0 0-15 7-94-8 0 0-88 27-54 118l57 154c0 0 195 226 172 289 0 0-37 78-43 94l95-66 14-415c0 0-9-59 40-73 0 0 96-54 61-126l14-60c0 0-13-101-148-68 0 0-37-49-35-85l-25-71-38-18c0 0-8-13 36-68l33-245c0 0 251-181 396 67 0 0 23 60-37 339 0 0-41 16 55 61 0 0 23 24 20 74 0 0 134 72 144 436 0 0-11 529-18 689 0 0 31 357 34 433 0 0-109 6-123 94l-13 701c0 0 21 440-1 616l-35 35-5 83c0 0-143-68-276-23 0 0-242 31-276-62 0 0-51-48 110-60 0 0 110-12 98-74 0 0 5-88 41-106l-80-1222-43 1c0 0 12-239-50-289 0 0-18 1734-304 1877 0 0-691 216-2090-6 0 0-111-6-73-95zm2107-2244l12-9 26 81c0 0 29 60-63-4 0 0-43-17 25-68z" fill="#201e1e" stroke="#201e1e" stroke-width="7.62"/><g><rect x="15482" y="15510" width="1363" height="460" rx="681.5" ry="230" fill="#fff"/><text x="10500" y="14850" fill="#201e1e" font-family="&apos;Arial Black&apos;" font-weight="900" font-size="529.17" transform="matrix(.82916 0 0 .83544 6893.92 3494.97)">NN 1</text></g><g fill="#fefefe"><g stroke="#fefefe" stroke-linejoin="round" stroke-linecap="round" stroke-width="400"><path d="m15383 12578c38 27 81 47 129 58-53-79-46-114-42-208l136 97c-20-59-30-91-33-156-2-41 5-71 27-89l-6 3c35 146 87 212 204 333 44 53 117 138 121 234l2 29c1 23-19 100-26 119l60 30c8-21 18-63 16-94l-3-64c-10-206-304-377-313-547v-6c-2-35 15-66 27-89-8-11-51-43-66-42-35 2-111 110-103 170l8 78-92-73-4 6c-20 103-13 99-1 199l-97-47c-4 7-5 6-5 17l1 12c3 68 34 115 60 174l-69-33c5 104 34 140 121 191-42-50-69-95-63-130 37 28 74 50 122 50-52-72-92-146-111-222zm1557 0c-38 27-81 47-129 58 53-79 46-114 42-208l-136 97c20-59 30-91 34-156 2-41-6-71-28-89l7 3c-36 146-88 212-205 333-44 53-116 138-121 234l-2 29c-1 23 19 100 26 119l-60 30c-8-21-18-63-16-94l3-64c11-206 305-377 313-547l1-6c1-35-15-66-28-89 8-11 51-43 66-42 35 2 111 110 103 170l-7 78 92-73 4 6c19 103 12 99 0 199l98-47c3 7 5 6 4 17l-1 12c-3 68-34 115-60 174l69-33c-5 104-34 140-121 191 42-50 69-95 63-130-36 28-74 50-122 50 53-72 92-146 111-222zm286 1442l-54 33c-6-38-69-114-99-123-15 50-41 112-85 134-13-28-67-124-65-122l-121 123c3-62 2-160-26-212v-17l53-47 21 197c67-45 47-148 128-167-15 31 6 152 40 154 35-110 15-117 93-176-3 14-6 14-6 30-3 49 58 108 88 128 1-122-23-108 46-184 73 4 152 3 182-41-172-27-334-106-483-201 10-33 9-20 45-25 87 6 123-2 182-50l-105-21 14-40c48 2 149-46 178-71-58-3-108-9-140-33 98-36 175-71 230-107l-117-44c-9-3-7-5 2-7 94-18 145-59 195-133-45 4-86-2-123-20 47-25 243-174 91-190 19-28 62-85 65-130 1-26-5-53-13-71-38 70-84 146-144 191-143 149-568 166-601 446l-1 17c-26 1-42 15-64 14-9-1-79-145-178-151-81-5-107 55-159 112 124 8 158 196 201 294 37 84 158 225 264 231l79 5c36 2 67-30 74 3l-81 26-74 1c-215-13-303-195-379-388-22-57-52-129-123-133l-42-3c-21-1-37 1-52 9-17-30-9-29-66-49-113-38-109-151-281-134-75 7-99 58-138 90-8-111-109-189-229-237-121-47-499-143-511-394l-81-30c-55 103-46 158 3 256l-65-7c7 124 134 183 143 207l-100 6c7 98 136 153 172 165l-105 18c49 71 121 100 192 133l-89 12c53 78 165 97 180 117l-58 4-26 2c12 73 118 105 175 111-69 38-144 73-216 102-58 23-191 74-243 32-20 63 159 172 246 154h-5l37 201 54 33c6-38 70-114 99-123 15 50 41 112 85 134 13-28 67-124 65-122l121 123c-3-62-2-160 27-212l-1-17-53-47-21 197c-67-45-47-148-128-167 15 31-6 152-40 154-34-110-15-117-93-176 3 14 6 14 7 30 2 49-59 108-89 128-1-122 23-108-46-184-73 4-152 3-182-41 172-27 334-106 483-201-9-33-9-20-44-25-88 6-124-2-183-50l105-21-14-40c-47 2-149-46-178-71 58-3 109-9 140-33-98-36-175-71-230-107l117-44c9-3 7-5-2-7-94-18-145-59-194-133 44 4 85-2 122-20-47-25-243-174-91-190-19-28-62-85-64-130-2-26 5-53 12-71 38 70 84 146 144 191 143 149 568 166 602 446l1 17c25 1 41 15 64 14 8-1 78-145 177-151 81-5 108 55 159 112-124 8-157 196-201 294-37 84-158 225-264 231l-79 5c-36 2-67-30-73 3l80 26 74 1c215-13 303-195 379-388 22-57 52-129 123-133l42-3c21-1 37 1 53 9 16-30 8-29 65-49 113-38 109-151 281-134 75 7 99 58 139 90 7-111 108-189 228-237 121-47 499-143 512-394l81-30c54 103 45 158-4 256l65-7c-6 124-134 183-143 207l100 6c-7 98-136 153-172 165l105 18c-49 71-120 100-192 133l89 12c-53 78-165 97-180 117l58 4 26 2c-12 73-118 105-174 111 68 38 144 73 216 102 58 23 190 74 242 32 20 63-159 172-246 154h6l-38 201zm-735-815c0 14-15 28-27 28l-6-1c-17-1-36-12-35-31 1-14 10-23 22-22l27 2c12 0 20 11 19 24zm-659 0c0 14 15 28 28 28l5-1c18-1 36-12 35-31 0-14-10-23-22-22l-26 2c-13 0-21 11-20 24z"/><path d="m15942 13854c177 0 321 159 321 355 0 195-144 354-321 354-177 0-321-159-321-354 0-196 144-355 321-355zm0 12c171 0 310 154 310 343 0 189-139 342-310 342-171 0-310-153-310-342 0-189 139-343 310-343z"/><path d="m15942 13917c146 0 264 131 264 292 0 160-118 291-264 291-146 0-264-131-264-291 0-161 118-292 264-292zm0 10c141 0 255 126 255 282 0 155-114 281-255 281-141 0-255-126-255-281 0-156 114-282 255-282z"/><path d="m15942 13854c177 0 321 159 321 355 0 195-144 354-321 354-177 0-321-159-321-354 0-196 144-355 321-355zm0 63c146 0 264 131 264 292 0 160-118 291-264 291-146 0-264-131-264-291 0-161 118-292 264-292zm0 10c141 0 255 126 255 282 0 155-114 281-255 281-141 0-255-126-255-281 0-156 114-282 255-282zm0-61c171 0 310 154 310 343 0 189-139 342-310 342-171 0-310-153-310-342 0-189 139-343 310-343z"/><path d="m17737 10324c44 57 5 331 150 382 53-137-40-389-150-382zm418 695c-7-82-24-162-37-242-21 56-40 113-36 180 6 70 34 134 54 197l7 21 4 10c10-56 12-108 8-166zm193 668c28-96 19-210 10-312-21 51-39 104-54 160-19 77-39 171-23 254 27-20 46-48 62-88l5-14zm-129 786l-2 18c57-4 103-104 130-174 22-59 39-122 51-187-26 18-49 38-73 64-18 22-34 45-49 73-10 21-19 43-27 67-12 37-19 72-26 112l-4 27zm-210 503c22 2 40-1 60-11 67-39 116-120 168-191l10-13c-104-12-231 35-284 192 15 12 30 19 46 23zm-337 266c17 48 39 75 72 93 79 31 164-16 235-72-52-16-100-54-153-65-54-13-105 10-154 44zm193-2711c-16-68-42-120-82-155l-2-2c7 46 11 95 19 140 6 28 12 52 22 76 11 24 30 53 49 60 7-38 2-82-6-119zm268 138c-146 314-55 342 13 617 88-230-8-447-13-617zm301 1392c-76 54-222 118-246 466 127 55 233-298 246-466zm-58-784c-46 62-174 394-108 566 171-95 121-389 108-566zm-61 1467c-66-52-315-53-385 226 168 181 305-191 385-226zm-257 492c-166-3-212-176-421-14 65 273 289 158 421 14z"/><path d="m17494 13257c388-259 642-692 711-1165 69-473-171-1231-491-1481-60 12-122 11-179-31-53-39-86-120-115-200 135 57 251 64 295 212 316 201 581 1033 515 1523-64 475-320 906-709 1164l-27-22zm188-2529c-33 0-65 2-97 9 25 23 48 54 75 72 47 28 102 10 147-19-31-51-83-59-125-62zm348 489c-26-52-51-98-88-128-28-21-57-31-88-38 37 89 78 178 143 216 19 9 40 16 60 14-9-21-18-43-27-64zm116 486c-30-82-79-126-134-158 4 12 8 26 11 38 20 75 37 153 85 195 18 13 35 20 55 21-2-34-7-65-17-96zm-52 457c-11-65-32-129-64-175 0 47-2 95-2 143 0 35 2 68 8 103 10 48 23 84 44 122l10 18c13-64 14-128 7-194l-3-17zm-177 563c33-91 40-197 20-297-8-34-18-69-32-99-2 7-4 25-6 33-10 60-22 119-28 181-3 42-4 81 0 123 3 30 8 59 15 89l6 23 1 2c9-17 17-35 24-55zm-396 434c68-27 116-136 144-232 6-23 11-46 16-70 8-53 15-117 9-172-21 40-47 76-71 113-26 43-51 88-71 141-7 20-13 39-18 60-8 40-11 73-11 115l1 26 1 19zm-42-2714c52 85 97 153 200 137-46-85-135-87-200-137zm222 2140c-28 136-253 284-200 619 130 0 266-361 200-619zm180-360c25 125-103 338 5 623 95-123 141-414-5-623zm108-333c50 107-54 345 111 549 63-187 17-454-111-549zm-36-414c71 115 56 380 235 365 12-215-112-326-235-365zm-154-483c61 140 129 373 301 323-113-314-178-284-301-323zm-313-268c92 30 106 79 159 118 58 43 136 15 200-34-39-164-241-131-359-84z"/><path d="m16592 10411v-2h8c1 0 4 0 6 3 7 11-18 29-23 34-5 4-10 8-15 13l-19 12c-7 4-14 7-21 10-9 3-18 6-27 9-9 4-18 6-27 8-8 2-16 3-25 4-8 1-16 2-24 2-40 0-82-5-121-11-144-21-289-34-433-34-66 0-150 3-213 27-47 17-92 39-134 68-40 27-77 61-108 100-24 29-47 67-47 109 0 32 16 56 38 75 28 24 62 33 97 33 79 0 151-26 218-73 44-31 102-81 102-147 0-18-7-31-19-43-15-14-35-18-55-18-106 0-199 73-273 156l-4 5-18-11 6-9c40-52 86-94 140-124 47-25 97-43 149-43 26 0 53 6 72 27 15 16 25 36 25 60 0 53-29 96-63 129-43 40-90 69-143 87-45 16-94 29-142 29-39 0-76-11-108-38-26-22-45-51-45-90 0-100 98-186 164-236 138-104 355-122 516-122 87 0 175 4 262 11 65 5 132 11 197 11 5 0 10 0 15 0 6 0 11-1 16-1 5-1 11-1 16-2 4-1 9-1 13-2l12-3c4-1 9-3 13-4 4-1 9-3 13-5 3-1 6-2 9-4zm-632 555c-21 37-33 84-40 126l-1 7-69 1 7-13c8-14 16-32 25-46 13-18 28-45 42-68-20 3-42 6-60 6h-8c-69 146-158 279-278 374-116 91-247 130-387 130-49 0-109-7-150-39-31-25-52-57-52-101 0-22 6-42 19-59 13-16 28-25 47-25 12 0 24 5 34 15 9 9 14 21 14 36 0 14-5 27-14 37-9 10-20 16-32 16-10 0-19-4-27-10-6-4-11-9-15-16-2 3-2 7-2 11 0 35 20 59 44 77 38 29 101 34 146 34 121 0 230-39 324-128 102-97 189-222 262-348-5-1-10-1-15-1-41 0-86 10-126 20-54 14-107 35-158 61l-6 3-10-22 8-3c95-46 202-83 306-83 5 0 10 0 16 1 105-178 236-331 387-458l8-7 7 20-4 4c-48 44-100 91-143 141-38 44-74 97-106 147-30 46-62 97-86 148 25 0 50-3 75-9 24-38 79-123 123-123 17 0 33 8 33 30 0 28-24 52-42 68-28 24-62 38-96 46zm16-30c23-6 43-17 63-32 12-9 35-30 35-49 0-8-6-8-12-8-14 0-33 19-43 30-16 17-30 37-43 59zm978 62c-45 1-89 9-132 22-48 14-93 35-137 63-43 28-83 62-120 101-36 39-68 84-93 133-12 21-22 44-31 66-10 25-18 50-23 76-6 26-8 53-7 80 0 27 6 51 16 75 4 8 7 19-1 25-9 6-17-3-21-12-11-23-19-48-24-74-6-29-8-58-8-88 1-31 5-62 11-93 8-31 18-61 32-89 24-46 52-88 87-124 33-33 68-63 106-88 35-23 72-43 111-59 35-14 70-26 105-37 29-8 58-16 87-22 18-4 38-9 56-16 8-1 16-4 23-9 6-5 11-10 16-16 4-5 10-8 17-6 4 1 9 3 13 6 4 3 7 7 9 12 3 6 3 12 0 17-22 55-45 110-68 164-25 57-50 114-75 171-24 54-49 108-74 162-21 45-42 91-63 137-1 3-3 8-1 13 0 0 1 0 1 0 8 0 17 5 16 16-1 9-8 14-15 16-5 2-9 4-13 6-6 2-11 4-17 7-39 77-80 153-123 227-43 76-91 149-142 219-27 35-55 69-85 102-30 33-63 63-98 91-35 28-72 53-111 74-42 22-85 39-129 51-29 8-60 12-88 3-23-8-43-22-55-46-13-24-15-53-12-81 5-38 22-74 40-105 26-44 58-85 91-123 38-41 78-80 120-116 44-38 90-74 137-107 47-32 96-63 145-92 46-27 93-52 141-74 41-19 83-37 125-53 24-52 48-104 71-157 25-55 49-110 73-165 23-52 45-105 67-158 17-41 34-83 50-125zm-282 654c-59 24-117 52-173 83-69 38-135 81-200 129-64 47-125 99-182 157-53 52-102 110-142 175-16 25-33 57-39 88-4 18-5 39 3 55 9 15 23 22 37 25 22 4 47 0 68-6 42-13 82-30 120-53 37-21 72-46 105-74 32-28 62-57 90-89 27-31 53-62 78-95 21-28 41-58 60-89 24-37 46-75 68-113 22-39 44-78 65-117 14-25 28-51 42-76z"/><path d="m15940 13848c-181 0-327 161-327 361 0 199 146 360 327 360 76 0 146-29 201-77 56 48 126 77 202 77 180 0 327-161 327-360 0-200-146-361-327-361-76 0-146 29-202 77-55-48-125-77-201-77zm219 628c9-9 17-18 25-28 44 37 99 58 159 58 149 0 270-133 270-297 0-165-121-298-270-298-60 0-115 21-160 58-7-10-16-19-24-28 51-43 115-68 184-68 168 0 304 150 304 336 0 185-136 335-304 335-69 0-133-25-184-68zm38-45c43-61 69-138 69-222 0-84-26-162-69-223 41-33 91-53 146-53 138 0 249 124 249 276 0 152-111 275-249 275-55 0-105-20-146-53zm-111 0c-43-61-69-138-69-222 0-84 26-162 69-223-41-33-91-53-146-53-138 0-250 124-250 276 0 152 112 275 250 275 55 0 105-20 146-53zm18-430c-41 57-65 129-65 208 0 78 24 150 65 207 9-9 17-18 24-28-34-50-54-112-54-179 0-68 20-130 54-180-7-10-15-19-24-28zm37 46c-29 45-47 101-47 162 0 60 18 116 47 161 30-45 48-101 48-161 0-61-18-117-48-162zm-201-174c168 0 304 150 304 336 0 185-136 335-304 335-168 0-305-150-305-335 0-186 137-336 305-336zm0 38c-149 0-270 133-270 298 0 164 121 297 270 297 149 0 269-133 269-297 0-165-120-298-269-298z"/><path d="m14594 10324c-44 57-5 331-150 382-53-137 40-389 150-382zm-418 695c7-82 24-162 37-242 21 56 40 113 36 180-6 70-34 134-54 197l-7 21-4 10c-10-56-12-108-8-166zm-193 668c-28-96-19-210-10-312 21 51 39 104 54 160 19 77 39 171 23 254-27-20-46-48-62-88l-5-14zm129 786l2 18c-57-4-103-104-130-174-22-59-39-122-51-187 26 18 49 38 73 64 18 22 34 45 49 73 10 21 19 43 27 67 12 37 20 72 26 112l4 27zm210 503c-22 2-40-1-60-11-67-39-116-120-168-191l-10-13c104-12 231 35 284 192-15 12-30 19-46 23zm337 266c-17 48-39 75-72 93-79 31-164-16-235-72 52-16 100-54 153-65 54-13 105 10 154 44zm-193-2711c16-68 42-120 82-155l2-2c-7 46-11 95-19 140-6 28-12 52-22 76-11 24-30 53-49 60-7-38-2-82 6-119zm-268 138c146 314 55 342-13 617-88-230 8-447 13-617zm-301 1392c76 54 222 118 246 466-127 55-233-298-246-466zm58-784c46 62 174 394 108 566-171-95-121-389-108-566zm61 1467c66-52 315-53 385 226-168 181-305-191-385-226zm257 492c166-3 212-176 421-14-65 273-289 158-421 14z"/><path d="m14837 13257c-388-259-642-692-711-1165-69-473 171-1231 491-1481 60 12 122 11 179-31 53-39 86-120 115-200-134 57-251 64-295 212-316 201-581 1033-515 1523 64 475 320 906 709 1164l27-22zm-188-2529c33 0 65 2 97 9-25 23-48 54-75 72-47 28-102 10-147-19 31-51 83-59 125-62zm-348 489c26-52 51-98 88-128 28-21 57-31 88-38-37 89-78 178-143 216-19 9-40 16-60 14 9-21 18-43 27-64zm-116 486c30-82 79-126 134-158-4 12-8 26-11 38-20 75-37 153-85 195-17 13-35 20-55 21 2-34 7-65 17-96zm52 457c11-65 32-129 64-175 0 47 2 95 2 143 0 35-2 68-8 103-10 48-23 84-44 122l-10 18c-13-64-14-128-7-194l3-17zm177 563c-33-91-40-197-20-297 8-34 18-69 32-99 2 7 4 25 6 33 10 60 22 119 28 181 3 42 4 81 0 123-3 30-8 59-15 89l-6 23-1 2c-9-17-17-35-24-55zm396 434c-68-27-116-136-144-232-6-23-11-46-16-70-8-53-15-117-9-172 21 40 47 76 71 113 26 43 51 88 71 141 7 20 13 39 18 60 8 40 11 73 11 115l-1 26-1 19zm42-2714c-52 85-97 153-200 137 46-85 135-87 200-137zm-222 2140c28 136 253 284 200 619-130 0-266-361-200-619zm-180-360c-25 125 103 338-5 623-95-123-141-414 5-623zm-108-333c-50 107 54 345-111 549-63-187-17-454 111-549zm36-414c-71 115-56 380-235 365-12-215 112-326 235-365zm154-483c-61 140-129 373-301 323 113-314 178-284 301-323zm313-268c-92 30-105 79-159 118-58 43-136 15-200-34 39-164 241-131 359-84z"/></g><path d="m14054 11050c25-210 655-416 859-409 154 6 229-67 347 250 133 354 417-25 423-146 287-159-3-144 411-212 13-3 24-9 28-21 364-66 643 105 865 410 35 48 16 41 62 74 139-52 742-305 826-191 93 125 89 67 217 277 331 542 140 376 48 930-28 164-148 635-290 737l-25 18c-90 92-405 330-408 416-1 12-86 151-89 199-1 0-221 240-241 258-116 104-266 263-431 279-18 38-101 71-142 77-128 233-886 32-1073 1-1 0-632-369-722-419-365-201-311-751-487-976-1 0-179-316-179-316-55-31-48-108-94-164 9-53-79-331-34-530 13-60 87-495 128-504 7-23-2-16 1-38"/></g><g stroke-linejoin="round" stroke-linecap="round"><path d="m15383 12578c38 27 81 47 129 58-53-79-46-114-42-208l136 97c-20-59-30-91-33-156-2-41 5-71 27-89l-6 3c35 146 87 212 204 333 44 53 117 138 121 234l2 29c1 23-19 100-26 119l60 30c8-21 18-63 16-94l-3-64c-10-206-304-377-313-547v-6c-2-35 15-66 27-89-8-11-51-43-66-42-35 2-111 110-103 170l8 78-92-73-4 6c-20 103-13 99-1 199l-97-47c-4 7-5 6-5 17l1 12c3 68 34 115 60 174l-69-33c5 104 34 140 121 191-42-50-69-95-63-130 37 28 74 50 122 50-52-72-92-146-111-222zm1557 0c-38 27-81 47-129 58 53-79 46-114 42-208l-136 97c20-59 30-91 34-156 2-41-6-71-28-89l7 3c-36 146-88 212-205 333-44 53-116 138-121 234l-2 29c-1 23 19 100 26 119l-60 30c-8-21-18-63-16-94l3-64c11-206 305-377 313-547l1-6c1-35-15-66-28-89 8-11 51-43 66-42 35 2 111 110 103 170l-7 78 92-73 4 6c19 103 12 99 0 199l98-47c3 7 5 6 4 17l-1 12c-3 68-34 115-60 174l69-33c-5 104-34 140-121 191 42-50 69-95 63-130-36 28-74 50-122 50 53-72 92-146 111-222zm286 1442l-54 33c-6-38-69-114-99-123-15 50-41 112-85 134-13-28-67-124-65-122l-121 123c3-62 2-160-26-212v-17l53-47 21 197c67-45 47-148 128-167-15 31 6 152 40 154 35-110 15-117 93-176-3 14-6 14-6 30-3 49 58 108 88 128 1-122-23-108 46-184 73 4 152 3 182-41-172-27-334-106-483-201 10-33 9-20 45-25 87 6 123-2 182-50l-105-21 14-40c48 2 149-46 178-71-58-3-108-9-140-33 98-36 175-71 230-107l-117-44c-9-3-7-5 2-7 94-18 145-59 195-133-45 4-86-2-123-20 47-25 243-174 91-190 19-28 62-85 65-130 1-26-5-53-13-71-38 70-84 146-144 191-143 149-568 166-601 446l-1 17c-26 1-42 15-64 14-9-1-79-145-178-151-81-5-107 55-159 112 124 8 158 196 201 294 37 84 158 225 264 231l79 5c36 2 67-30 74 3l-81 26-74 1c-215-13-303-195-379-388-22-57-52-129-123-133l-42-3c-21-1-37 1-52 9-17-30-9-29-66-49-113-38-109-151-281-134-75 7-99 58-138 90-8-111-109-189-229-237-121-47-499-143-511-394l-81-30c-55 103-46 158 3 256l-65-7c7 124 134 183 143 207l-100 6c7 98 136 153 172 165l-105 18c49 71 121 100 192 133l-89 12c53 78 165 97 180 117l-58 4-26 2c12 73 118 105 175 111-69 38-144 73-216 102-58 23-191 74-243 32-20 63 159 172 246 154h-5l37 201 54 33c6-38 70-114 99-123 15 50 41 112 85 134 13-28 67-124 65-122l121 123c-3-62-2-160 27-212l-1-17-53-47-21 197c-67-45-47-148-128-167 15 31-6 152-40 154-34-110-15-117-93-176 3 14 6 14 7 30 2 49-59 108-89 128-1-122 23-108-46-184-73 4-152 3-182-41 172-27 334-106 483-201-9-33-9-20-44-25-88 6-124-2-183-50l105-21-14-40c-47 2-149-46-178-71 58-3 109-9 140-33-98-36-175-71-230-107l117-44c9-3 7-5-2-7-94-18-145-59-194-133 44 4 85-2 122-20-47-25-243-174-91-190-19-28-62-85-64-130-2-26 5-53 12-71 38 70 84 146 144 191 143 149 568 166 602 446l1 17c25 1 41 15 64 14 8-1 78-145 177-151 81-5 108 55 159 112-124 8-157 196-201 294-37 84-158 225-264 231l-79 5c-36 2-67-30-73 3l80 26 74 1c215-13 303-195 379-388 22-57 52-129 123-133l42-3c21-1 37 1 53 9 16-30 8-29 65-49 113-38 109-151 281-134 75 7 99 58 139 90 7-111 108-189 228-237 121-47 499-143 512-394l81-30c54 103 45 158-4 256l65-7c-6 124-134 183-143 207l100 6c-7 98-136 153-172 165l105 18c-49 71-120 100-192 133l89 12c-53 78-165 97-180 117l58 4 26 2c-12 73-118 105-174 111 68 38 144 73 216 102 58 23 190 74 242 32 20 63-159 172-246 154h6l-38 201zm-735-815c0 14-15 28-27 28l-6-1c-17-1-36-12-35-31 1-14 10-23 22-22l27 2c12 0 20 11 19 24zm-659 0c0 14 15 28 28 28l5-1c18-1 36-12 35-31 0-14-10-23-22-22l-26 2c-13 0-21 11-20 24z" fill="#201e1e" stroke="#201e1e" stroke-width="20"/><g fill="#d2983a" stroke="#d2983a" stroke-width="30"><path d="m15942 13854c177 0 321 159 321 355 0 195-144 354-321 354-177 0-321-159-321-354 0-196 144-355 321-355zm0 12c171 0 310 154 310 343 0 189-139 342-310 342-171 0-310-153-310-342 0-189 139-343 310-343z"/><path d="m15942 13917c146 0 264 131 264 292 0 160-118 291-264 291-146 0-264-131-264-291 0-161 118-292 264-292zm0 10c141 0 255 126 255 282 0 155-114 281-255 281-141 0-255-126-255-281 0-156 114-282 255-282z"/><path d="m15942 13854c177 0 321 159 321 355 0 195-144 354-321 354-177 0-321-159-321-354 0-196 144-355 321-355zm0 63c146 0 264 131 264 292 0 160-118 291-264 291-146 0-264-131-264-291 0-161 118-292 264-292zm0 10c141 0 255 126 255 282 0 155-114 281-255 281-141 0-255-126-255-281 0-156 114-282 255-282zm0-61c171 0 310 154 310 343 0 189-139 342-310 342-171 0-310-153-310-342 0-189 139-343 310-343z"/></g></g><ellipse cx="16167" cy="10870" rx="2187" ry="1059" fill="#fff" stroke="#fff" stroke-width="20"/><g fill="#201e1e" stroke="#201e1e" stroke-linejoin="round" stroke-linecap="round" stroke-width="50"><path d="m17737 10324c44 57 5 331 150 382 53-137-40-389-150-382zm418 695c-7-82-24-162-37-242-21 56-40 113-36 180 6 70 34 134 54 197l7 21 4 10c10-56 12-108 8-166zm193 668c28-96 19-210 10-312-21 51-39 104-54 160-19 77-39 171-23 254 27-20 46-48 62-88l5-14zm-129 786l-2 18c57-4 103-104 130-174 22-59 39-122 51-187-26 18-49 38-73 64-18 22-34 45-49 73-10 21-19 43-27 67-12 37-19 72-26 112l-4 27zm-210 503c22 2 40-1 60-11 67-39 116-120 168-191l10-13c-104-12-231 35-284 192 15 12 30 19 46 23zm-337 266c17 48 39 75 72 93 79 31 164-16 235-72-52-16-100-54-153-65-54-13-105 10-154 44zm193-2711c-16-68-42-120-82-155l-2-2c7 46 11 95 19 140 6 28 12 52 22 76 11 24 30 53 49 60 7-38 2-82-6-119zm268 138c-146 314-55 342 13 617 88-230-8-447-13-617zm301 1392c-76 54-222 118-246 466 127 55 233-298 246-466zm-58-784c-46 62-174 394-108 566 171-95 121-389 108-566zm-61 1467c-66-52-315-53-385 226 168 181 305-191 385-226zm-257 492c-166-3-212-176-421-14 65 273 289 158 421 14z"/><path d="m17494 13257c388-259 642-692 711-1165 69-473-171-1231-491-1481-60 12-122 11-179-31-53-39-86-120-115-200 135 57 251 64 295 212 316 201 581 1033 515 1523-64 475-320 906-709 1164l-27-22zm188-2529c-33 0-65 2-97 9 25 23 48 54 75 72 47 28 102 10 147-19-31-51-83-59-125-62zm348 489c-26-52-51-98-88-128-28-21-57-31-88-38 37 89 78 178 143 216 19 9 40 16 60 14-9-21-18-43-27-64zm116 486c-30-82-79-126-134-158 4 12 8 26 11 38 20 75 37 153 85 195 18 13 35 20 55 21-2-34-7-65-17-96zm-52 457c-11-65-32-129-64-175 0 47-2 95-2 143 0 35 2 68 8 103 10 48 23 84 44 122l10 18c13-64 14-128 7-194l-3-17zm-177 563c33-91 40-197 20-297-8-34-18-69-32-99-2 7-4 25-6 33-10 60-22 119-28 181-3 42-4 81 0 123 3 30 8 59 15 89l6 23 1 2c9-17 17-35 24-55zm-396 434c68-27 116-136 144-232 6-23 11-46 16-70 8-53 15-117 9-172-21 40-47 76-71 113-26 43-51 88-71 141-7 20-13 39-18 60-8 40-11 73-11 115l1 26 1 19zm-42-2714c52 85 97 153 200 137-46-85-135-87-200-137zm222 2140c-28 136-253 284-200 619 130 0 266-361 200-619zm180-360c25 125-103 338 5 623 95-123 141-414-5-623zm108-333c50 107-54 345 111 549 63-187 17-454-111-549zm-36-414c71 115 56 380 235 365 12-215-112-326-235-365zm-154-483c61 140 129 373 301 323-113-314-178-284-301-323zm-313-268c92 30 106 79 159 118 58 43 136 15 200-34-39-164-241-131-359-84z"/></g><g fill="#201e1e" stroke="#201e1e" stroke-linejoin="round" stroke-linecap="round"><path d="m15940 13848c-181 0-327 161-327 361 0 199 146 360 327 360 76 0 146-29 201-77 56 48 126 77 202 77 180 0 327-161 327-360 0-200-146-361-327-361-76 0-146 29-202 77-55-48-125-77-201-77zm219 628c9-9 17-18 25-28 44 37 99 58 159 58 149 0 270-133 270-297 0-165-121-298-270-298-60 0-115 21-160 58-7-10-16-19-24-28 51-43 115-68 184-68 168 0 304 150 304 336 0 185-136 335-304 335-69 0-133-25-184-68zm38-45c43-61 69-138 69-222 0-84-26-162-69-223 41-33 91-53 146-53 138 0 249 124 249 276 0 152-111 275-249 275-55 0-105-20-146-53zm-111 0c-43-61-69-138-69-222 0-84 26-162 69-223-41-33-91-53-146-53-138 0-250 124-250 276 0 152 112 275 250 275 55 0 105-20 146-53zm18-430c-41 57-65 129-65 208 0 78 24 150 65 207 9-9 17-18 24-28-34-50-54-112-54-179 0-68 20-130 54-180-7-10-15-19-24-28zm37 46c-29 45-47 101-47 162 0 60 18 116 47 161 30-45 48-101 48-161 0-61-18-117-48-162zm-201-174c168 0 304 150 304 336 0 185-136 335-304 335-168 0-305-150-305-335 0-186 137-336 305-336zm0 38c-149 0-270 133-270 298 0 164 121 297 270 297 149 0 269-133 269-297 0-165-120-298-269-298z" stroke-width="30"/><g stroke-width="50"><path d="m14594 10324c-44 57-5 331-150 382-53-137 40-389 150-382zm-418 695c7-82 24-162 37-242 21 56 40 113 36 180-6 70-34 134-54 197l-7 21-4 10c-10-56-12-108-8-166zm-193 668c-28-96-19-210-10-312 21 51 39 104 54 160 19 77 39 171 23 254-27-20-46-48-62-88l-5-14zm129 786l2 18c-57-4-103-104-130-174-22-59-39-122-51-187 26 18 49 38 73 64 18 22 34 45 49 73 10 21 19 43 27 67 12 37 20 72 26 112l4 27zm210 503c-22 2-40-1-60-11-67-39-116-120-168-191l-10-13c104-12 231 35 284 192-15 12-30 19-46 23zm337 266c-17 48-39 75-72 93-79 31-164-16-235-72 52-16 100-54 153-65 54-13 105 10 154 44zm-193-2711c16-68 42-120 82-155l2-2c-7 46-11 95-19 140-6 28-12 52-22 76-11 24-30 53-49 60-7-38-2-82 6-119zm-268 138c146 314 55 342-13 617-88-230 8-447 13-617zm-301 1392c76 54 222 118 246 466-127 55-233-298-246-466zm58-784c46 62 174 394 108 566-171-95-121-389-108-566zm61 1467c66-52 315-53 385 226-168 181-305-191-385-226zm257 492c166-3 212-176 421-14-65 273-289 158-421 14z"/><path d="m14837 13257c-388-259-642-692-711-1165-69-473 171-1231 491-1481 60 12 122 11 179-31 53-39 86-120 115-200-134 57-251 64-295 212-316 201-581 1033-515 1523 64 475 320 906 709 1164l27-22zm-188-2529c33 0 65 2 97 9-25 23-48 54-75 72-47 28-102 10-147-19 31-51 83-59 125-62zm-348 489c26-52 51-98 88-128 28-21 57-31 88-38-37 89-78 178-143 216-19 9-40 16-60 14 9-21 18-43 27-64zm-116 486c30-82 79-126 134-158-4 12-8 26-11 38-20 75-37 153-85 195-17 13-35 20-55 21 2-34 7-65 17-96zm52 457c11-65 32-129 64-175 0 47 2 95 2 143 0 35-2 68-8 103-10 48-23 84-44 122l-10 18c-13-64-14-128-7-194l3-17zm177 563c-33-91-40-197-20-297 8-34 18-69 32-99 2 7 4 25 6 33 10 60 22 119 28 181 3 42 4 81 0 123-3 30-8 59-15 89l-6 23-1 2c-9-17-17-35-24-55zm396 434c-68-27-116-136-144-232-6-23-11-46-16-70-8-53-15-117-9-172 21 40 47 76 71 113 26 43 51 88 71 141 7 20 13 39 18 60 8 40 11 73 11 115l-1 26-1 19zm42-2714c-52 85-97 153-200 137 46-85 135-87 200-137zm-222 2140c28 136 253 284 200 619-130 0-266-361-200-619zm-180-360c-25 125 103 338-5 623-95-123-141-414 5-623zm-108-333c-50 107 54 345-111 549-63-187-17-454 111-549zm36-414c-71 115-56 380-235 365-12-215 112-326 235-365zm154-483c-61 140-129 373-301 323 113-314 178-284 301-323zm313-268c-92 30-105 79-159 118-58 43-136 15-200-34 39-164 241-131 359-84z"/></g><g font-family="&apos;Allegro&apos;" stroke-width="50"><text x="10500" y="14850" font-size="1523.91" transform="matrix(.77063 0 0 .83544 6584.48-1172.07)">T1</text><text x="10500" y="14850" font-size="1558.76" transform="matrix(.77063 0 0 .83544 7567.88-310.3)">T2</text></g></g></g></g><path d="m6246 20825c561-284 749-857 812-1451 60-559 66-1131 60-1694-8-626-33-1252-51-1878-21-680-35-1363-6-2042 25-609 84-1240 235-1831 284-1109 744-2161 970-3286 69-345 123-693 163-1042 44-388 71-780 75-1170 10-961-117-2365-911-3023-501-415-1143-426-1750-289-900 205-1755 626-2439 1254-483 443-867 977-1124 1582-283 666-397 1380-371 2103 13 371 32 741 56 1111 66 1048 166 2094 258 3141 103 1177 194 2354 246 3535 14 320 15 643 18 963 4 381 8 762 22 1143 17 466 46 943 119 1403 51 319 140 733 317 1007 168 260 452 432 734 542 340 131 721 192 1084 202 481 13 1048-61 1483-280" fill="#fff"/><g clip-path="url(#1)"><g><g fill="#201e1e" stroke="#201e1e" stroke-width="20"><path d="m2826 1206h-225v22978h225z"/><path d="m3521 1206h-224v22978h224z"/><path d="m4238 1206h-224v22978h224z"/><path d="m5696 1206h-224v22978h224z"/><path d="m7122 1206h-225v22978h225z"/><path d="m8532 1206h-224v22978h224z"/><path d="m4979 1206h-225v22978h225z"/><path d="m6436 1206h-224v22978h224z"/><path d="m7822 1206h-224v22978h224z"/><path d="m2142 1206h-225v22978h225z"/></g><g fill="#fefefe" stroke="#fefefe" stroke-linejoin="round" stroke-linecap="round" stroke-width="400"><path d="m3941 12568c38 27 81 47 129 58-54-79-46-114-42-208l135 97c-19-59-29-91-33-156-2-41 5-71 27-89l-6 3c36 146 88 212 205 333 44 53 116 138 121 234l2 29c1 23-19 100-27 119l61 30c8-21 17-63 16-94l-3-64c-11-206-305-377-313-547l-1-6c-2-35 15-66 27-89-8-11-50-43-65-42-36 2-111 110-103 170l7 78-92-73-4 6c-19 103-12 99-1 199l-97-47c-3 7-5 6-4 17v12c4 68 35 115 61 174l-69-33c5 104 33 140 120 191-41-50-68-95-62-130 36 28 74 50 122 50-53-72-92-146-111-222zm1557 0c-39 27-81 47-129 58 53-79 46-114 42-208l-136 97c20-59 30-91 33-156 2-41-5-71-27-89l6 3c-35 146-88 212-204 333-45 53-117 138-122 234l-1 29c-1 23 19 100 26 119l-60 30c-8-21-18-63-16-94l3-64c10-206 304-377 313-547v-6c2-35-15-66-27-89 8-11 51-43 66-42 35 2 111 110 103 170l-8 78 92-73 4 6c20 103 12 99 1 199l97-47c4 7 5 6 5 17l-1 12c-3 68-34 115-61 174l70-33c-6 104-34 140-121 191 42-50 68-95 63-130-37 28-75 50-122 50 52-72 91-146 111-222zm286 1442l-54 33c-6-38-70-114-99-123-15 50-41 112-86 134-12-28-67-124-64-122l-122 123c4-62 3-160-26-212l1-17 52-47 22 197c67-45 47-148 128-167-16 31 6 152 39 154 35-110 15-117 94-176-3 14-6 14-7 30-2 49 59 108 89 128 1-122-23-108 46-184 73 4 151 3 182-41-172-27-334-106-483-201 9-33 8-20 44-25 88 6 124-2 183-50l-105-21 13-40c48 2 150-46 178-71-58-3-108-9-139-33 97-36 175-71 230-107l-117-44c-9-3-7-5 2-7 93-18 145-59 194-133-44 4-85-2-122-21 46-24 242-173 90-189 20-28 63-85 65-130 2-26-5-53-12-71-38 70-84 146-144 191-143 149-568 166-602 446l-1 17c-26 1-41 15-64 14-8-1-78-145-177-151-81-5-108 55-159 112 124 8 157 196 201 294 37 84 158 225 264 231l79 5c36 2 67-30 73 3l-80 26-74 1c-216-13-303-195-379-388-22-57-53-129-123-133l-42-3c-21-1-37 1-53 9-16-30-8-29-65-49-113-38-109-151-282-134-75 7-99 58-138 90-8-111-108-189-228-237-121-47-499-143-512-394l-81-30c-55 103-45 158 4 256l-65-7c6 124 133 183 143 207l-100 6c6 98 136 153 172 165l-105 18c49 71 120 100 192 133l-90 12c54 78 166 97 181 117l-58 4-27 2c13 73 119 105 175 111-69 38-144 73-216 102-58 23-190 74-242 32-20 63 158 172 246 154h-6l38 201 54 33c6-38 69-114 99-123 15 50 41 112 85 134 13-28 67-124 65-122l121 123c-3-62-2-160 26-212l-1-17-52-47-21 197c-67-45-47-148-128-167 15 31-6 152-40 154-35-110-15-117-93-176 3 14 6 14 6 30 3 49-59 108-88 128-1-122 23-108-47-184-72 4-151 3-181-41 172-27 334-106 483-201-10-33-9-20-45-25-87 6-123-2-183-50l105-21-13-40c-48 2-149-46-178-71 58-3 108-9 140-33-98-36-175-71-230-107l117-44c9-3 7-5-2-7-94-18-145-59-195-133 45 4 86-2 123-21-47-24-243-173-91-189-19-28-62-85-65-130-1-26 5-53 13-71 38 70 83 146 144 191 143 149 567 166 601 446l1 17c26 1 42 15 64 14 9-1 79-145 178-151 80-5 107 55 159 112-124 8-158 196-201 294-38 84-159 225-264 231l-79 5c-36 2-67-30-74 3l80 26 74 1c216-13 304-195 380-388 22-57 52-129 122-133l43-3c21-1 37 1 52 9 16-30 8-29 65-49 113-38 110-151 282-134 75 7 99 58 138 90 8-111 108-189 229-237 120-47 499-143 511-394l81-30c55 103 45 158-3 256l65-7c-7 124-134 183-143 207l100 6c-7 98-136 153-172 165l105 18c-49 71-121 100-192 133l89 12c-53 78-165 97-180 117l58 4 26 2c-12 73-118 105-175 111 69 38 144 73 216 102 58 23 191 74 242 32 21 63-158 172-245 154h5l-37 201zm-735-815c-1 14-15 28-28 28l-5-1c-18-1-36-12-35-31 0-14 9-23 22-22l26 2c12 0 21 11 20 24zm-660 0c1 14 16 28 28 28l6-1c17-1 36-12 35-31-1-14-10-23-22-22l-27 2c-12 0-20 11-20 24z"/><path d="m4500 13844c177 0 321 159 321 355 0 195-144 354-321 354-177 0-321-159-321-354 0-196 144-355 321-355zm0 12c171 0 309 154 309 343 0 189-138 342-309 342-171 0-310-153-310-342 0-189 139-343 310-343z"/><path d="m4500 13907c146 0 264 131 264 292 0 160-118 291-264 291-146 0-264-131-264-291 0-161 118-292 264-292zm0 10c140 0 254 126 254 282 0 155-114 281-254 281-141 0-255-126-255-281 0-156 114-282 255-282z"/><path d="m4500 13844c177 0 321 159 321 355 0 195-144 354-321 354-177 0-321-159-321-354 0-196 144-355 321-355zm0 63c146 0 264 131 264 292 0 160-118 291-264 291-146 0-264-131-264-291 0-161 118-292 264-292zm0 10c140 0 254 126 254 282 0 155-114 281-254 281-141 0-255-126-255-281 0-156 114-282 255-282zm0-61c171 0 309 154 309 343 0 189-138 342-309 342-171 0-310-153-310-342 0-189 139-343 310-343z"/><path d="m6295 10314c44 57 5 331 149 382 54-137-40-389-149-382zm417 695c-6-82-24-162-36-242-21 56-40 113-37 180 7 70 35 134 55 197l7 21 3 10c11-56 12-108 8-166zm194 668c28-96 18-210 10-312-21 51-39 104-54 160-20 77-39 171-23 254 26-20 46-48 62-88l5-14zm-129 786l-2 18c57-4 103-104 130-174 22-59 39-123 51-187-26 18-50 38-73 64-19 21-35 45-49 73-10 21-20 43-28 67-11 37-19 72-26 112l-3 27zm-210 503c21 2 40-1 60-11 66-39 116-120 168-191l10-13h-1c-103-12-230 35-283 192 15 12 30 19 46 23zm-338 266c17 48 40 75 73 93 79 31 164-16 234-72-51-16-100-54-152-65-54-13-105 10-155 44zm194-2711c-16-68-42-120-82-155l-3-2c7 46 11 95 20 140 5 28 12 52 22 76 11 24 30 53 48 60 8-38 3-82-5-119zm267 138c-145 314-55 342 14 617 88-230-8-447-14-617zm302 1392c-77 54-223 118-247 466 127 55 234-298 247-466zm-58-784c-47 62-174 394-108 566 171-95 120-389 108-566zm-62 1467c-65-52-315-53-385 226 169 181 305-191 385-226zm-256 492c-167-3-213-176-421-14 65 273 288 158 421 14z"/><path d="m6051 13247c389-259 643-692 711-1165 70-473-170-1231-490-1481-60 12-122 11-179-31-54-39-86-120-115-200 134 57 251 64 294 212 317 201 581 1033 516 1523-64 475-321 906-710 1164l-27-22zm188-2529c-32 0-65 2-97 9 26 23 49 54 76 72 46 28 102 10 147-19-31-51-83-59-126-62zm348 489c-25-52-51-98-88-128-28-21-57-31-87-38 37 89 77 178 143 216 19 9 40 16 60 14-9-21-19-43-28-64zm117 486c-30-82-80-126-134-158 3 12 7 25 10 38 21 75 38 153 85 195 18 13 36 20 56 21-2-34-8-65-17-96zm-52 457c-11-65-32-129-64-175 0 47-3 95-3 143 1 35 3 68 9 103 10 48 23 84 43 122l11 18c13-64 14-128 7-194l-3-17zm-177 563c33-91 40-197 20-297-8-34-19-69-32-99-3 7-4 25-6 33-10 60-23 119-28 181-3 42-4 81-1 123 4 30 9 59 15 89l7 23v2c9-17 18-35 25-55zm-396 434c68-27 116-136 143-232 6-23 12-46 16-70 9-53 16-117 10-172-22 40-47 76-71 113-27 43-51 88-71 141-7 20-13 39-18 60-8 40-11 73-12 115l1 26 2 19zm-43-2714c53 85 98 153 201 137-46-85-135-87-201-137zm223 2140c-29 136-253 284-201 619 130 0 266-361 201-619zm179-360c25 125-102 338 5 623 96-123 142-414-5-623zm109-333c50 107-55 345 111 549 63-187 16-454-111-549zm-36-414c71 115 56 380 235 365 12-215-112-326-235-365zm-155-483c62 140 130 373 302 323-113-314-179-284-302-323zm-313-268c92 30 106 79 160 118 58 43 136 15 200-34-39-164-241-131-360-84z"/><path d="m5150 10401v-2h7c1 0 4 0 7 3 6 11-18 29-23 33-5 5-10 9-15 14l-19 12c-7 4-14 7-22 10-8 3-17 6-26 9-9 4-18 6-27 8-9 2-17 3-25 4-8 1-16 2-25 2-40 0-81-5-121-11-143-21-288-34-432-34-66 0-151 3-214 27-46 17-91 39-133 68-41 27-77 61-109 100-23 29-46 67-46 109 0 32 15 56 37 75 29 24 63 33 98 33 78 0 151-26 218-73 43-31 102-81 102-147 0-18-7-31-19-43-15-14-36-18-55-18-107 0-200 73-273 156l-4 5-18-11 6-9c39-52 86-94 140-124 47-25 97-43 149-43 26 0 53 6 72 27 15 16 25 36 25 60 0 53-30 96-64 129-42 40-90 69-142 87-46 16-94 29-142 29-39 0-76-11-108-38-26-22-46-51-46-90 0-100 99-186 164-236 138-104 356-122 516-122 88 0 175 4 263 11 64 5 132 11 197 11 4 0 10 0 15 0 5 0 11-1 16-1 5-1 10-1 16-2 4-1 8-1 13-3l12-2c4-1 8-3 12-4 5-1 9-3 14-5 3-1 6-2 9-4zm-633 555c-20 37-32 84-39 126l-2 7-68 1 7-13c7-14 16-32 24-46 14-18 29-45 42-68-20 3-41 6-60 6h-8c-68 146-158 279-277 374-116 91-247 130-387 130-49 0-109-7-151-39-30-25-51-57-51-101 0-22 6-42 19-59 12-16 28-25 46-25 13 0 25 5 34 15 9 9 15 21 15 36 0 14-6 27-15 37-8 10-19 16-31 16-10 0-19-4-27-10-6-4-12-9-16-16-1 3-2 7-2 11 0 35 20 59 44 77 39 29 101 34 146 34 121 0 231-39 325-128 102-97 189-222 262-348-5-1-10-1-15-1-41 0-86 10-126 20-55 14-107 35-158 61l-7 3-9-22 7-3c95-46 202-83 307-83 5 0 10 0 15 1 106-178 236-331 388-458l8-7 7 20-5 4c-47 44-99 91-142 141-38 44-74 97-106 147-30 46-63 97-87 148 26-1 51-3 75-9 25-38 80-123 124-123 17 0 32 8 32 30 0 28-24 52-42 68-28 24-61 38-96 46zm17-31c22-5 43-16 62-31 12-9 36-30 36-49 0-8-6-8-12-8-14 0-34 19-44 30-16 17-30 37-42 58zm977 63c-44 1-88 9-131 22-48 14-94 35-137 63-44 28-84 62-120 101-37 39-68 84-94 133-11 21-21 44-31 66-10 25-17 50-23 76-5 26-7 53-7 80 1 27 7 51 17 75 4 8 7 19-2 25-9 6-16-3-20-12-11-23-19-48-24-74-6-29-8-58-8-88 0-31 4-62 11-93 7-31 18-61 32-89 23-46 52-88 87-124 32-33 68-63 105-88 36-23 73-43 112-59 34-14 69-26 105-37 29-8 58-16 87-22 18-4 38-9 56-16 8-1 16-4 23-9 5-5 11-10 15-16 5-5 11-8 17-6 5 1 9 3 13 6 4 3 8 7 10 12 2 6 3 12 0 17-22 55-45 110-69 164-24 57-49 114-74 171-24 54-49 108-74 162-21 45-42 91-63 137-2 3-3 8-2 13 0 0 1 0 2 0 8 0 16 5 15 16 0 9-7 14-15 16-4 2-9 4-13 6-5 2-11 4-16 7-39 77-80 153-123 227-44 76-91 149-142 219-27 35-55 69-85 102-31 33-64 63-98 91-35 28-73 53-112 74-41 22-84 39-129 51-28 8-59 12-87 2-23-7-43-21-56-45-12-24-14-53-11-81 5-38 21-74 39-105 27-44 58-85 92-123 38-41 78-80 119-116 45-38 90-74 138-107 47-32 95-63 145-92 46-27 93-52 141-74 41-19 83-37 125-53 24-52 47-104 71-157 24-55 49-110 73-165 23-52 45-105 67-158 17-41 34-83 49-125zm-281 654c-59 24-117 52-173 83-69 38-136 81-200 129-64 47-125 99-183 157-52 52-101 110-142 175-15 25-33 57-39 88-3 18-5 39 4 55 8 15 22 22 37 25 22 4 46 0 68-6 41-13 82-30 120-53 37-21 72-46 105-74 31-28 62-57 90-89 27-31 53-62 77-95 22-28 42-58 61-89 23-37 46-75 68-113 22-39 44-78 65-117 14-25 28-51 42-76z"/><path d="m4497 13838c-180 0-326 161-326 361 0 199 146 360 326 360 77 0 147-29 202-77 56 48 126 77 202 77 180 0 326-161 326-360 0-200-146-361-326-361-76 0-146 29-202 77-55-48-125-77-202-77zm219 628c9-9 17-18 25-28 45 37 100 58 160 58 149 0 269-133 269-297 0-165-120-298-269-298-60 0-115 21-160 58-8-10-16-19-25-28 52-43 115-68 185-68 168 0 304 150 304 336 0 185-136 335-304 335-70 0-133-25-185-68zm38-45c44-61 70-138 70-222 0-84-26-162-70-223 41-33 92-53 147-53 137 0 249 124 249 276 0 152-112 275-249 275-55 0-106-20-147-53zm-110 0c-44-61-70-138-70-222 0-84 26-162 70-223-41-33-92-53-147-53-137 0-249 124-249 276 0 152 112 275 249 275 55 0 106-20 147-53zm17-430c-40 57-64 129-64 208 0 78 24 150 64 207 9-9 17-18 25-28-34-50-55-112-55-179 0-68 21-130 55-180-8-10-16-19-25-28zm38 46c-30 45-47 101-47 162 0 60 17 116 47 161 30-45 48-101 48-161 0-61-18-117-48-162zm-202-174c168 0 305 150 305 336 0 185-137 335-305 335-168 0-304-150-304-335 0-186 136-336 304-336zm0 38c-149 0-269 133-269 298 0 164 121 297 269 297 149 0 270-133 270-297 0-165-121-298-270-298z"/><path d="m3151 10314c-43 57-5 331-149 382-53-137 40-389 149-382zm-417 695c6-82 24-162 37-242 21 56 39 113 36 180-6 70-35 134-55 197l-6 21-4 10c-10-56-12-108-8-166zm-193 668c-28-96-19-210-11-312 22 51 39 104 55 160 19 77 38 171 22 254-26-20-46-48-62-88l-4-14zm129 786l2 18c-57-4-104-104-131-174-22-59-38-123-51-187 26 18 50 38 74 64 18 21 34 45 49 73 10 21 19 43 27 67 11 37 19 72 26 112l4 27zm209 503c-21 2-39-1-60-11-66-39-116-120-168-191l-9-13c104-12 230 35 283 192-15 12-29 19-46 23zm338 266c-17 48-40 75-73 93-79 31-163-16-234-72 51-16 100-54 152-65 55-13 105 10 155 44zm-193-2711c15-68 41-120 82-155l2-2c-7 46-11 95-20 140-5 28-11 52-21 76-12 24-31 53-49 60-8-38-2-82 6-119zm-268 138c146 314 55 342-14 617-87-230 8-447 14-617zm-302 1392c77 54 223 118 247 466-127 55-234-298-247-466zm58-784c47 62 175 394 109 566-172-95-121-389-109-566zm62 1467c66-52 315-53 385 226-169 181-305-191-385-226zm256 492c167-3 213-176 422-14-66 273-289 158-422 14z"/><path d="m3395 13247c-389-259-642-692-711-1165-69-473 170-1231 491-1481 59 12 122 11 178-31 54-39 87-120 116-200-135 57-252 64-295 212-316 201-581 1033-515 1523 63 475 320 906 709 1164l27-22zm-188-2529c32 0 65 2 97 9-26 23-49 54-75 72-47 28-103 10-148-19 32-51 84-59 126-62zm-348 489c26-52 51-98 88-128 28-21 57-31 88-38-37 89-78 178-144 216-18 9-39 16-59 14 8-21 18-43 27-64zm-117 486c30-82 80-126 135-158-4 12-8 25-11 38-20 75-38 153-85 195-18 13-35 20-55 21 1-34 7-65 16-96zm53 457c11-65 31-129 63-175 0 47 3 95 3 143-1 35-3 68-9 103-9 48-22 84-43 122l-10 18c-14-64-15-128-7-194l3-17zm176 563c-32-91-39-197-20-297 8-34 19-69 33-99 2 7 4 25 5 33 11 60 23 119 29 181 3 42 3 81 0 123-4 30-8 59-15 89l-7 23v2c-9-17-17-35-25-55zm396 434c-67-27-116-136-143-232-6-23-11-46-16-70-8-53-15-117-10-172 22 40 48 76 71 113 27 43 52 88 72 141 6 20 12 39 18 60 7 40 11 73 11 115l-1 26-2 19zm43-2714c-52 85-97 153-200 137 45-85 135-87 200-137zm-222 2140c28 136 252 284 200 619-130 0-266-361-200-619zm-180-360c-25 125 102 338-5 623-95-123-141-414 5-623zm-108-333c-50 107 54 345-111 549-63-187-17-454 111-549zm36-414c-72 115-57 380-236 365-12-215 112-326 236-365zm154-483c-62 140-129 373-301 323 112-314 178-284 301-323zm313-268c-92 30-106 79-159 118-58 43-136 15-201-34 39-164 241-131 360-84z"/></g><path d="m2611 11040c25-210 656-416 859-409 155 6 229-67 348 250 133 354 417-25 423-146 287-159-4-144 410-212 13-3 24-9 29-21 363-66 643 105 865 410 35 48 16 41 62 74 138-52 741-305 826-191 93 125 88 67 217 277 330 542 140 376 47 930-27 164-147 635-289 737l-25 18c-90 92-406 330-409 416 0 12-85 151-88 199-1 0-222 240-242 258-115 104-266 263-430 279-18 38-102 71-142 77-129 233-887 32-1073 1-2 0-632-369-722-419-365-201-311-751-488-976 0 0-178-316-179-316-54-31-48-108-94-164 10-53-79-331-34-530 14-60 87-495 128-504 8-23-1-16 1-38" fill="#fefefe"/><g stroke-linejoin="round" stroke-linecap="round"><path d="m3941 12568c38 27 81 47 129 58-54-79-46-114-42-208l135 97c-19-59-29-91-33-156-2-41 5-71 27-89l-6 3c36 146 88 212 205 333 44 53 116 138 121 234l2 29c1 23-19 100-27 119l61 30c8-21 17-63 16-94l-3-64c-11-206-305-377-313-547l-1-6c-2-35 15-66 27-89-8-11-50-43-65-42-36 2-111 110-103 170l7 78-92-73-4 6c-19 103-12 99-1 199l-97-47c-3 7-5 6-4 17v12c4 68 35 115 61 174l-69-33c5 104 33 140 120 191-41-50-68-95-62-130 36 28 74 50 122 50-53-72-92-146-111-222zm1557 0c-39 27-81 47-129 58 53-79 46-114 42-208l-136 97c20-59 30-91 33-156 2-41-5-71-27-89l6 3c-35 146-88 212-204 333-45 53-117 138-122 234l-1 29c-1 23 19 100 26 119l-60 30c-8-21-18-63-16-94l3-64c10-206 304-377 313-547v-6c2-35-15-66-27-89 8-11 51-43 66-42 35 2 111 110 103 170l-8 78 92-73 4 6c20 103 12 99 1 199l97-47c4 7 5 6 5 17l-1 12c-3 68-34 115-61 174l70-33c-6 104-34 140-121 191 42-50 68-95 63-130-37 28-75 50-122 50 52-72 91-146 111-222zm286 1442l-54 33c-6-38-70-114-99-123-15 50-41 112-86 134-12-28-67-124-64-122l-122 123c4-62 3-160-26-212l1-17 52-47 22 197c67-45 47-148 128-167-16 31 6 152 39 154 35-110 15-117 94-176-3 14-6 14-7 30-2 49 59 108 89 128 1-122-23-108 46-184 73 4 151 3 182-41-172-27-334-106-483-201 9-33 8-20 44-25 88 6 124-2 183-50l-105-21 13-40c48 2 150-46 178-71-58-3-108-9-139-33 97-36 175-71 230-107l-117-44c-9-3-7-5 2-7 93-18 145-59 194-133-44 4-85-2-122-21 46-24 242-173 90-189 20-28 63-85 65-130 2-26-5-53-12-71-38 70-84 146-144 191-143 149-568 166-602 446l-1 17c-26 1-41 15-64 14-8-1-78-145-177-151-81-5-108 55-159 112 124 8 157 196 201 294 37 84 158 225 264 231l79 5c36 2 67-30 73 3l-80 26-74 1c-216-13-303-195-379-388-22-57-53-129-123-133l-42-3c-21-1-37 1-53 9-16-30-8-29-65-49-113-38-109-151-282-134-75 7-99 58-138 90-8-111-108-189-228-237-121-47-499-143-512-394l-81-30c-55 103-45 158 4 256l-65-7c6 124 133 183 143 207l-100 6c6 98 136 153 172 165l-105 18c49 71 120 100 192 133l-90 12c54 78 166 97 181 117l-58 4-27 2c13 73 119 105 175 111-69 38-144 73-216 102-58 23-190 74-242 32-20 63 158 172 246 154h-6l38 201 54 33c6-38 69-114 99-123 15 50 41 112 85 134 13-28 67-124 65-122l121 123c-3-62-2-160 26-212l-1-17-52-47-21 197c-67-45-47-148-128-167 15 31-6 152-40 154-35-110-15-117-93-176 3 14 6 14 6 30 3 49-59 108-88 128-1-122 23-108-47-184-72 4-151 3-181-41 172-27 334-106 483-201-10-33-9-20-45-25-87 6-123-2-183-50l105-21-13-40c-48 2-149-46-178-71 58-3 108-9 140-33-98-36-175-71-230-107l117-44c9-3 7-5-2-7-94-18-145-59-195-133 45 4 86-2 123-21-47-24-243-173-91-189-19-28-62-85-65-130-1-26 5-53 13-71 38 70 83 146 144 191 143 149 567 166 601 446l1 17c26 1 42 15 64 14 9-1 79-145 178-151 80-5 107 55 159 112-124 8-158 196-201 294-38 84-159 225-264 231l-79 5c-36 2-67-30-74 3l80 26 74 1c216-13 304-195 380-388 22-57 52-129 122-133l43-3c21-1 37 1 52 9 16-30 8-29 65-49 113-38 110-151 282-134 75 7 99 58 138 90 8-111 108-189 229-237 120-47 499-143 511-394l81-30c55 103 45 158-3 256l65-7c-7 124-134 183-143 207l100 6c-7 98-136 153-172 165l105 18c-49 71-121 100-192 133l89 12c-53 78-165 97-180 117l58 4 26 2c-12 73-118 105-175 111 69 38 144 73 216 102 58 23 191 74 242 32 21 63-158 172-245 154h5l-37 201zm-735-815c-1 14-15 28-28 28l-5-1c-18-1-36-12-35-31 0-14 9-23 22-22l26 2c12 0 21 11 20 24zm-660 0c1 14 16 28 28 28l6-1c17-1 36-12 35-31-1-14-10-23-22-22l-27 2c-12 0-20 11-20 24z" fill="#201e1e" stroke="#201e1e" stroke-width="20"/><g fill="#d2983a" stroke="#d2983a" stroke-width="30"><path d="m4500 13844c177 0 321 159 321 355 0 195-144 354-321 354-177 0-321-159-321-354 0-196 144-355 321-355zm0 12c171 0 309 154 309 343 0 189-138 342-309 342-171 0-310-153-310-342 0-189 139-343 310-343z"/><path d="m4500 13907c146 0 264 131 264 292 0 160-118 291-264 291-146 0-264-131-264-291 0-161 118-292 264-292zm0 10c140 0 254 126 254 282 0 155-114 281-254 281-141 0-255-126-255-281 0-156 114-282 255-282z"/><path d="m4500 13844c177 0 321 159 321 355 0 195-144 354-321 354-177 0-321-159-321-354 0-196 144-355 321-355zm0 63c146 0 264 131 264 292 0 160-118 291-264 291-146 0-264-131-264-291 0-161 118-292 264-292zm0 10c140 0 254 126 254 282 0 155-114 281-254 281-141 0-255-126-255-281 0-156 114-282 255-282zm0-61c171 0 309 154 309 343 0 189-138 342-309 342-171 0-310-153-310-342 0-189 139-343 310-343z"/></g></g><ellipse cx="4725" cy="10860" rx="2187" ry="1059" fill="#fff" stroke="#fff" stroke-width="20"/><g fill="#201e1e" stroke="#201e1e" stroke-linejoin="round" stroke-linecap="round" stroke-width="50"><path d="m6295 10314c44 57 5 331 149 382 54-137-40-389-149-382zm417 695c-6-82-24-162-36-242-21 56-40 113-37 180 7 70 35 134 55 197l7 21 3 10c11-56 12-108 8-166zm194 668c28-96 18-210 10-312-21 51-39 104-54 160-20 77-39 171-23 254 26-20 46-48 62-88l5-14zm-129 786l-2 18c57-4 103-104 130-174 22-59 39-123 51-187-26 18-50 38-73 64-19 21-35 45-49 73-10 21-20 43-28 67-11 37-19 72-26 112l-3 27zm-210 503c21 2 40-1 60-11 66-39 116-120 168-191l10-13h-1c-103-12-230 35-283 192 15 12 30 19 46 23zm-338 266c17 48 40 75 73 93 79 31 164-16 234-72-51-16-100-54-152-65-54-13-105 10-155 44zm194-2711c-16-68-42-120-82-155l-3-2c7 46 11 95 20 140 5 28 12 52 22 76 11 24 30 53 48 60 8-38 3-82-5-119zm267 138c-145 314-55 342 14 617 88-230-8-447-14-617zm302 1392c-77 54-223 118-247 466 127 55 234-298 247-466zm-58-784c-47 62-174 394-108 566 171-95 120-389 108-566zm-62 1467c-65-52-315-53-385 226 169 181 305-191 385-226zm-256 492c-167-3-213-176-421-14 65 273 288 158 421 14z"/><path d="m6051 13247c389-259 643-692 711-1165 70-473-170-1231-490-1481-60 12-122 11-179-31-54-39-86-120-115-200 134 57 251 64 294 212 317 201 581 1033 516 1523-64 475-321 906-710 1164l-27-22zm188-2529c-32 0-65 2-97 9 26 23 49 54 76 72 46 28 102 10 147-19-31-51-83-59-126-62zm348 489c-25-52-51-98-88-128-28-21-57-31-87-38 37 89 77 178 143 216 19 9 40 16 60 14-9-21-19-43-28-64zm117 486c-30-82-80-126-134-158 3 12 7 25 10 38 21 75 38 153 85 195 18 13 36 20 56 21-2-34-8-65-17-96zm-52 457c-11-65-32-129-64-175 0 47-3 95-3 143 1 35 3 68 9 103 10 48 23 84 43 122l11 18c13-64 14-128 7-194l-3-17zm-177 563c33-91 40-197 20-297-8-34-19-69-32-99-3 7-4 25-6 33-10 60-23 119-28 181-3 42-4 81-1 123 4 30 9 59 15 89l7 23v2c9-17 18-35 25-55zm-396 434c68-27 116-136 143-232 6-23 12-46 16-70 9-53 16-117 10-172-22 40-47 76-71 113-27 43-51 88-71 141-7 20-13 39-18 60-8 40-11 73-12 115l1 26 2 19zm-43-2714c53 85 98 153 201 137-46-85-135-87-201-137zm223 2140c-29 136-253 284-201 619 130 0 266-361 201-619zm179-360c25 125-102 338 5 623 96-123 142-414-5-623zm109-333c50 107-55 345 111 549 63-187 16-454-111-549zm-36-414c71 115 56 380 235 365 12-215-112-326-235-365zm-155-483c62 140 130 373 302 323-113-314-179-284-302-323zm-313-268c92 30 106 79 160 118 58 43 136 15 200-34-39-164-241-131-360-84z"/></g><g stroke-linejoin="round" stroke-linecap="round"><g fill="#201e1e" stroke="#201e1e"><path d="m4497 13838c-180 0-326 161-326 361 0 199 146 360 326 360 77 0 147-29 202-77 56 48 126 77 202 77 180 0 326-161 326-360 0-200-146-361-326-361-76 0-146 29-202 77-55-48-125-77-202-77zm219 628c9-9 17-18 25-28 45 37 100 58 160 58 149 0 269-133 269-297 0-165-120-298-269-298-60 0-115 21-160 58-8-10-16-19-25-28 52-43 115-68 185-68 168 0 304 150 304 336 0 185-136 335-304 335-70 0-133-25-185-68zm38-45c44-61 70-138 70-222 0-84-26-162-70-223 41-33 92-53 147-53 137 0 249 124 249 276 0 152-112 275-249 275-55 0-106-20-147-53zm-110 0c-44-61-70-138-70-222 0-84 26-162 70-223-41-33-92-53-147-53-137 0-249 124-249 276 0 152 112 275 249 275 55 0 106-20 147-53zm17-430c-40 57-64 129-64 208 0 78 24 150 64 207 9-9 17-18 25-28-34-50-55-112-55-179 0-68 21-130 55-180-8-10-16-19-25-28zm38 46c-30 45-47 101-47 162 0 60 17 116 47 161 30-45 48-101 48-161 0-61-18-117-48-162zm-202-174c168 0 305 150 305 336 0 185-137 335-305 335-168 0-304-150-304-335 0-186 136-336 304-336zm0 38c-149 0-269 133-269 298 0 164 121 297 269 297 149 0 270-133 270-297 0-165-121-298-270-298z" stroke-width="30"/><g stroke-width="50"><path d="m3151 10314c-43 57-5 331-149 382-53-137 40-389 149-382zm-417 695c6-82 24-162 37-242 21 56 39 113 36 180-6 70-35 134-55 197l-6 21-4 10c-10-56-12-108-8-166zm-193 668c-28-96-19-210-11-312 22 51 39 104 55 160 19 77 38 171 22 254-26-20-46-48-62-88l-4-14zm129 786l2 18c-57-4-104-104-131-174-22-59-38-123-51-187 26 18 50 38 74 64 18 21 34 45 49 73 10 21 19 43 27 67 11 37 19 72 26 112l4 27zm209 503c-21 2-39-1-60-11-66-39-116-120-168-191l-9-13c104-12 230 35 283 192-15 12-29 19-46 23zm338 266c-17 48-40 75-73 93-79 31-163-16-234-72 51-16 100-54 152-65 55-13 105 10 155 44zm-193-2711c15-68 41-120 82-155l2-2c-7 46-11 95-20 140-5 28-11 52-21 76-12 24-31 53-49 60-8-38-2-82 6-119zm-268 138c146 314 55 342-14 617-87-230 8-447 14-617zm-302 1392c77 54 223 118 247 466-127 55-234-298-247-466zm58-784c47 62 175 394 109 566-172-95-121-389-109-566zm62 1467c66-52 315-53 385 226-169 181-305-191-385-226zm256 492c167-3 213-176 422-14-66 273-289 158-422 14z"/><path d="m3395 13247c-389-259-642-692-711-1165-69-473 170-1231 491-1481 59 12 122 11 178-31 54-39 87-120 116-200-135 57-252 64-295 212-316 201-581 1033-515 1523 63 475 320 906 709 1164l27-22zm-188-2529c32 0 65 2 97 9-26 23-49 54-75 72-47 28-103 10-148-19 32-51 84-59 126-62zm-348 489c26-52 51-98 88-128 28-21 57-31 88-38-37 89-78 178-144 216-18 9-39 16-59 14 8-21 18-43 27-64zm-117 486c30-82 80-126 135-158-4 12-8 25-11 38-20 75-38 153-85 195-18 13-35 20-55 21 1-34 7-65 16-96zm53 457c11-65 31-129 63-175 0 47 3 95 3 143-1 35-3 68-9 103-9 48-22 84-43 122l-10 18c-14-64-15-128-7-194l3-17zm176 563c-32-91-39-197-20-297 8-34 19-69 33-99 2 7 4 25 5 33 11 60 23 119 29 181 3 42 3 81 0 123-4 30-8 59-15 89l-7 23v2c-9-17-17-35-25-55zm396 434c-67-27-116-136-143-232-6-23-11-46-16-70-8-53-15-117-10-172 22 40 48 76 71 113 27 43 52 88 72 141 6 20 12 39 18 60 7 40 11 73 11 115l-1 26-2 19zm43-2714c-52 85-97 153-200 137 45-85 135-87 200-137zm-222 2140c28 136 252 284 200 619-130 0-266-361-200-619zm-180-360c-25 125 102 338-5 623-95-123-141-414 5-623zm-108-333c-50 107 54 345-111 549-63-187-17-454 111-549zm36-414c-72 115-57 380-236 365-12-215 112-326 236-365zm154-483c-62 140-129 373-301 323 112-314 178-284 301-323zm313-268c-92 30-106 79-159 118-58 43-136 15-201-34 39-164 241-131 360-84z"/></g><g font-family="&apos;Allegro&apos;" stroke-width="50"><text x="10500" y="14850" font-size="1523.91" transform="matrix(.77063 0 0 .83544-4894.25-1182.08)">T1</text><text x="10500" y="14850" font-size="1558.76" transform="matrix(.77063 0 0 .83544-3910.84-320.31)">T2</text></g></g><path d="m6333 20664l-16-22c0 0-199-104-594-206 0 0-179-127-261-244 0 0-520-494-658-563 0 0-226-202-302-396 0 0-234-523-306-569 0 0 8-39 174-116 0 0 62-32-33-276 0 0-62-134-58-245 0 0-26-254-92-294 0 0-33-24 13-72 0 0 64-40 53-128 0 0 163-82 20-248 0 0-65-54-122 13 0 0-153-92-270 79 0 0-10 17-5 141 0 0-10 45-32 83 0 0-18 23 31 15 0 0-2 120 17 127 0 0 15 7 94-8 0 0 88 27 54 118l-57 154c0 0-194 226-172 289 0 0 37 78 43 94l-95-66-14-415c0 0 9-59-39-73 0 0-97-54-61-126l-15-60c0 0 13-101 148-68 0 0 37-49 35-85l25-71 38-18c0 0 8-13-35-68l-34-245c0 0-251-181-396 67 0 0-23 60 37 339 0 0 41 16-55 61 0 0-23 24-20 74 0 0-134 72-144 436 0 0 11 529 19 689 0 0-32 357-35 433 0 0 110 6 123 94l13 701c0 0-21 440 1 616l35 35 5 83c0 0 143-68 276-23 0 0 242 31 276-62 0 0 51-48-110-60 0 0-110-12-98-74 0 0-5-88-41-106l80-1222 43 1c0 0-12-239 50-289 0 0 18 1734 304 1877 0 0 691 216 2090-6 0 0 111-6 73-95zm-2106-2244l-13-9-26 81c0 0-29 60 63-4 0 0 43-17-24-68z" fill="#fefefe" stroke="#fefefe" stroke-width="400"/></g><path d="m6333 20664l-16-22c0 0-199-104-594-206 0 0-179-127-261-244 0 0-520-494-658-563 0 0-226-202-302-396 0 0-234-523-306-569 0 0 8-39 174-116 0 0 62-32-33-276 0 0-62-134-58-245 0 0-26-254-92-294 0 0-33-24 13-72 0 0 64-40 53-128 0 0 163-82 20-248 0 0-65-54-122 13 0 0-153-92-270 79 0 0-10 17-5 141 0 0-10 45-32 83 0 0-18 23 31 15 0 0-2 120 17 127 0 0 15 7 94-8 0 0 88 27 54 118l-57 154c0 0-194 226-172 289 0 0 37 78 43 94l-95-66-14-415c0 0 9-59-39-73 0 0-97-54-61-126l-15-60c0 0 13-101 148-68 0 0 37-49 35-85l25-71 38-18c0 0 8-13-35-68l-34-245c0 0-251-181-396 67 0 0-23 60 37 339 0 0 41 16-55 61 0 0-23 24-20 74 0 0-134 72-144 436 0 0 11 529 19 689 0 0-32 357-35 433 0 0 110 6 123 94l13 701c0 0-21 440 1 616l35 35 5 83c0 0 143-68 276-23 0 0 242 31 276-62 0 0 51-48-110-60 0 0-110-12-98-74 0 0-5-88-41-106l80-1222 43 1c0 0-12-239 50-289 0 0 18 1734 304 1877 0 0 691 216 2090-6 0 0 111-6 73-95m-2106-2244l-13-9-26 81c0 0-29 60 63-4 0 0 43-17-24-68" fill="#201e1e"/><g><rect x="4169" y="15500" width="1363" height="460" rx="681.5" ry="230" fill="#fff"/><text x="10500" y="14850" fill="#201e1e" font-family="&apos;Arial Black&apos;" font-weight="900" font-size="529.17" transform="matrix(.82916 0 0 .83544-4418.84 3484.95)">NN 1</text></g></g></g><g fill="#201e1e" font-family="&apos;Arial&apos;" font-weight="normal" font-size="423.33"><text x="711" y="28324">DESC 1</text><text x="724" y="28709">DESC 2</text><text x="722" y="29090">DESC 3</text></g></svg>