<svg xmlns="http://www.w3.org/2000/svg" width="744.09" height="1052.36" viewBox="0 0 21000 29700" shape-rendering="geometricPrecision" image-rendering="optimizeQuality" fill-rule="evenodd" clip-rule="evenodd"><path d="m6954 25589c-1182 566-3428 457-4110-590-680-1044-526-4004-590-5455-161-3634-570-6391-675-9322-117-3255 2133-5407 4822-6013 3795-855 3570 4154 3043 6728-277 1383-823 2587-1172 3939-643 2494-60 6301-284 8897-115 897-418 1493-1035 1816z" fill="#fff"/><g fill="#201e1e" fill-rule="nonzero" stroke="#201e1e"><path d="m2721 8957l-67-91 2-9 5-20c10-36 1-66-25-91-26-25-83-57-172-96l-478-212c-17 63-9 119 23 169 32 50 83 85 152 103l13 3 31 104c-118-41-196-101-234-181-38-80-38-187-2-322 26-97 58-163 96-197 37-34 87-43 149-26 50 13 96 41 140 83 44 42 74 88 90 139 19 58 19 119 2 183l-3 12-31-27 2-8c16-59 4-114-34-167-38-53-94-89-166-108-109-29-180 17-213 139l451 200c113 50 193 125 237 226l52-175 69 86-91 281zm280-834c-16 38-49 62-97 71-48 9-101 2-157-22-106-45-191-118-254-220-63-102-79-190-47-264 17-40 50-66 98-76 48-11 101-4 158 21 110 47 196 121 258 221 62 101 76 191 43 269zm-27-70c18-43-1-96-57-158-57-62-131-113-224-153-122-52-196-48-220 10-18 41 3 94 61 158 58 64 133 115 224 154 120 51 192 47 217-11zm221-354l-139-128-225-195c-23-20-43-35-61-47-29-18-49-19-59-3-18 28-5 93 40 194l-41-36c-46-115-55-195-27-241 24-38 64-40 120-5 25 15 51 35 78 59l111 96 3-5c-65-85-111-166-138-243-27-77-29-134-6-170 12-19 27-32 47-40l59 111c-23 7-38 17-45 28-33 52 21 183 162 391l168 146-47 89zm555-787c-28 31-66 43-115 36-49-7-96-31-142-72-86-77-142-174-169-291-27-117-13-205 41-265 29-33 68-46 117-40 49 6 96 29 142 71 89 80 146 178 172 293 26 116 10 205-47 268zm-2-75c31-35 30-91-3-168-33-77-87-150-162-218-99-89-169-109-212-62-30 33-28 90 6 170 34 79 88 152 161 218 97 87 166 107 209 60zm313-252l-92-164-155-257c-24-40-41-65-50-76-16-19-31-23-45-11-24 20-32 84-23 191l-29-48c-8-117 9-193 52-228 35-29 72-21 110 25 13 16 32 44 57 85l77 129 6-5c-36-104-55-195-57-275-2-79 13-133 46-160 39-33 83-22 130 34 15 18 32 42 49 71l153 254c24 40 41 66 49 76 16 19 31 23 46 11 24-20 32-84 24-192l29 48c8 117-10 193-52 229-35 29-72 21-111-25-13-15-32-44-57-86l-153-256c-12-20-22-36-33-48-21-25-39-31-53-19-46 39-32 185 42 440l111 187-72 70zm626-900l-7 5c26 104 37 196 31 277-6 81-27 133-63 157-56 37-113 12-173-76-40-60-69-132-86-216-17-84-19-163-6-236 9-49 25-88 46-118 22-30 61-63 115-100-29-76-47-137-53-183-7-46-5-94 5-145 17-87 56-151 118-193 26-17 52-30 77-37l-6 107c-43 4-75 13-97 28-42 28-60 69-56 122 5 53 35 138 90 256l206 436c20 43 33 69 41 80 15 22 29 27 45 17 26-18 40-80 43-188l24 52c-5 117-30 190-75 221-38 26-74 13-108-37-11-16-27-47-48-91l-64-136zm-104-221c-45 3-84 16-117 38-47 32-59 96-36 192 27 113 65 206 114 278 35 52 65 70 89 54 23-15 35-67 36-156 2-89-8-182-28-281l-59-125zm827 11l14 45c-51 124-109 201-172 232-40 20-82 18-124-6-43-24-78-64-106-121-50-102-65-212-48-331 18-119 61-196 131-230 25-12 51-11 77 3 26 14 48 38 65 73 34 69 35 142 4 219-31 77-86 134-163 172l11 24c51 105 107 143 168 113 52-26 100-90 143-193zm-338 22c61-38 100-83 119-136 19-53 14-107-13-163-27-55-56-75-88-60-34 17-53 62-57 135-4 73 9 148 39 224zm659 429l35-107c34 5 66 2 95-8 43-15 69-45 80-89 11-45 7-112-11-200l-136-677-101 35 17-53 76-26-1-8c-21-116-12-219 25-309 38-90 97-149 178-177 26-9 51-14 75-15l-34 108c-35-12-68-14-97-4-45 15-72 44-83 85-10 41-7 109 10 203l15 85 168-58-19 63c-40 7-79 18-117 31l-23 8 103 512c32 156 32 284 1 385-31 101-91 167-179 197-23 8-49 14-76 18zm667-612c-40 9-78-3-115-37-36-34-61-80-75-140-26-112-16-224 28-335 45-111 107-175 186-194 43-10 82 1 119 34 37 33 62 79 76 140 27 117 18 230-28 339-45 109-110 174-193 193zm41-63c45-11 77-57 94-139 17-82 15-173-8-271-30-129-76-187-138-172-44 10-75 58-92 143-17 85-15 175 7 271 29 127 75 183 136 169zm401-50l19-187 20-297c2-30 2-56 0-77-3-34-14-51-33-49-33 3-77 52-131 148l4-54c64-106 123-162 176-166 45-4 71 27 77 93 3 29 2 62 0 98l-10 147 6-1c29-103 66-189 111-256 46-68 90-104 132-107 22-2 42 3 61 13l-53 114c-20-14-36-20-49-19-61 5-133 127-215 365l-15 221-99 16zm492-132l101-75 59 124-104 80-56-129zm295 45l116-50 30 134-119 55-26-138zm273 129l125-16-8 137-130 19 13-140z" stroke-width="75"/><g stroke-width="20"><path d="m4641 11733c46-74 93-112 186-112 103 0 186 67 186 149 0 149-186 298-371 446-186-149-371-298-371-446 0-82 83-149 186-149 93 0 139 37 186 112z"/><path d="m5810 11491c46-74 93-112 186-112 103 0 186 67 186 149 0 149-186 298-371 446-186-149-371-298-371-446 0-82 83-149 186-149 93 0 139 37 186 112z"/><path d="m5810 10459c46-74 93-112 186-112 103 0 186 67 186 149 0 149-186 298-371 446-186-149-371-298-371-446 0-82 83-149 186-149 93 0 139 37 186 112z"/><path d="m6682 9966c46-74 93-112 186-112 103 0 186 67 186 149 0 149-186 298-371 446-186-149-371-298-371-446 0-82 83-149 186-149 93 0 139 37 186 112z"/><path d="m7847 10453c46-74 93-112 186-112 103 0 186 67 186 149 0 149-186 298-371 446-186-149-371-298-371-446 0-82 83-149 186-149 93 0 139 37 186 112z"/><path d="m8694 9130c46-74 93-112 186-112 103 0 186 67 186 149 0 149-186 298-371 446-186-149-371-298-371-446 0-82 83-149 186-149 93 0 139 37 186 112z"/></g></g><path d="m14009 25589c1182 566 3428 457 4110-590 680-1044 526-4004 590-5455 161-3634 570-6391 675-9322 117-3255-2133-5407-4822-6013-3795-855-3570 4154-3043 6728 277 1383 823 2587 1172 3939 643 2494 60 6301 284 8897 115 897 418 1493 1035 1816z" fill="#fff"/><g stroke="#201e1e"><g fill="#201e1e"><g fill-rule="nonzero"><g stroke-width="20"><path d="m16134 11733c-46-74-93-112-186-112-103 0-186 67-186 149 0 149 186 298 371 446 186-149 371-298 371-446 0-82-83-149-186-149-93 0-139 37-186 112z"/><path d="m14965 11491c-46-74-93-112-186-112-103 0-186 67-186 149 0 149 186 298 371 446 186-149 371-298 371-446 0-82-83-149-186-149-93 0-139 37-186 112z"/><path d="m14965 10459c-46-74-93-112-186-112-103 0-186 67-186 149 0 149 186 298 371 446 186-149 371-298 371-446 0-82-83-149-186-149-93 0-139 37-186 112z"/><path d="m14093 9966c-46-74-93-112-186-112-103 0-186 67-186 149 0 149 186 298 371 446 186-149 371-298 371-446 0-82-83-149-186-149-93 0-139 37-186 112z"/><path d="m12928 10453c-46-74-93-112-186-112-103 0-186 67-186 149 0 149 186 298 371 446 186-149 371-298 371-446 0-82-83-149-186-149-93 0-139 37-186 112z"/><path d="m12081 9130c-46-74-93-112-186-112-103 0-186 67-186 149 0 149 186 298 371 446 186-149 371-298 371-446 0-82-83-149-186-149-93 0-139 37-186 112z"/></g><path d="m12332 6043l-44-118 135-23 48 122-139 19zm107-251l-36-121 136-13 40 125-140 9zm141-257l-12-125 136 13 15 130-139-18zm373-662l-5 4c30 102 44 193 41 274-3 81-22 134-57 160-53 39-111 15-173-71-68-94-106-208-113-342-7-138 33-239 121-303 30-22 69-47 116-75l78 164 249 487c38 75 66 125 85 150 21 29 40 36 58 24 15-11 32-32 51-62l19 38-139 211-84-177-246-482zm-111-217c-42 2-79 15-114 40-45 33-54 96-27 191 32 113 73 204 124 275 37 51 67 68 90 51 28-20 37-83 26-189-12-122-24-203-37-245l-62-123zm892 34l-8 1c-61 237-134 360-218 371-50 6-80-28-89-103-3-21-3-49-2-81l9-298c2-47 1-77 0-91-3-25-14-36-32-34-31 4-72 53-124 148l2-56c57-102 113-157 168-163 45-6 72 21 79 81 2 20 3 54 1 103l-10 299c-1 27-1 46 1 57 4 32 15 47 34 45 24-3 55-43 93-122 39-78 72-168 100-269l7-218 99-20-12 188-10 301c-2 47-1 77 0 91 3 25 14 36 32 34 31-4 72-53 124-148l-2 56c-57 102-113 157-168 163-45 6-72-22-79-82-2-20-3-55-1-103l6-150zm751 271l-16 45c-115 68-208 95-277 82-44-9-76-35-96-80-20-44-24-98-12-160 22-111 75-209 161-294 86-85 167-120 243-105 28 5 47 22 60 49 12 27 15 59 8 97-15 76-58 135-129 177-71 42-149 56-233 39l-6 26c-22 115 0 179 66 191 57 11 134-12 231-68zm-283-186c71 6 130-6 177-37 47-31 76-77 88-138 12-60 0-94-34-101-37-7-80 17-127 73-47 56-82 124-104 202zm392 393l85-168 125-270c13-27 22-51 28-72 10-33 5-52-13-58-32-9-91 21-175 91l23-49c98-76 172-107 224-92 44 13 56 51 38 114-8 28-20 59-35 91l-62 133 6 2c64-86 129-152 196-199 67-47 121-65 162-53 21 6 39 17 52 34l-90 87c-14-20-27-32-39-36-59-17-170 71-331 263l-94 201-98-21zm615 211c-38-16-62-49-71-97-9-48-2-101 22-157 45-106 118-191 220-254 102-63 190-79 264-47 40 17 66 50 76 98 11 48 4 101-21 158-47 110-121 196-221 258-101 62-191 76-269 43zm70-27c43 18 96-1 158-57 62-57 113-131 153-224 52-122 48-196-10-220-41-18-94 3-158 61-64 58-115 133-154 224-51 120-47 192 11 217zm573 273l94-41c17 54 44 92 81 113 23 13 46 16 71 9 24-7 43-21 55-44 14-25 17-67 10-128l-9-74c-9-71-3-124 16-159 26-48 68-80 124-97 56-17 107-13 153 12 25 14 50 36 73 67l-82 106-26-15 6-8c2-3 5-6 7-10 26-47 15-84-33-111-54-30-96-17-126 37-15 28-20 73-13 137l7 67c8 73 2 127-17 161-26 47-69 78-128 93-60 15-114 9-164-19-35-19-68-52-98-97zm852 370l-33 34c-133 15-229 2-287-38-37-26-55-63-55-112 0-49 18-99 54-151 65-93 154-160 267-203 113-43 201-41 265 3 23 16 35 39 35 69 0 30-10 60-33 92-44 63-108 100-190 109-82 10-159-10-229-59l-16 22c-67 96-73 163-17 202 48 33 127 44 239 32zm-183-285c62 35 121 48 176 38 55-9 101-39 137-91 35-50 39-86 10-106-31-22-80-17-146 16-66 32-125 80-177 143zm194 529l148-117 228-192c23-19 42-37 56-53 23-26 27-45 13-58-25-22-91-19-198 9l42-35c121-28 201-24 242 11 34 30 30 70-14 120-19 22-43 45-71 68l-112 95 5 4c94-51 181-84 262-98 80-14 137-7 169 21 17 14 28 32 32 53l-119 41c-4-24-11-40-20-49-46-40-184-8-411 99l-170 143-80-60zm587 498l102-3c-5 57 6 102 33 135 16 20 37 32 62 35 25 3 47-4 67-20 22-18 41-56 57-115l20-71c19-69 44-117 74-141 42-34 93-49 151-44 59 5 104 28 137 69 18 22 32 52 43 89l-116 68-19-23 9-5c3-2 7-4 10-7 42-34 45-72 11-115-39-48-82-52-131-13-25 20-46 60-63 122l-18 65c-20 71-46 119-76 143-42 34-93 46-154 38-61-8-109-35-145-79-25-31-43-73-55-126zm651 659l-43 20c-129-36-213-83-251-143-24-38-27-79-9-124 18-45 54-85 107-120 95-62 202-91 323-88 121 3 202 37 244 102 15 24 17 49 7 77-11 28-32 52-65 73-65 42-137 52-217 30-80-22-144-69-190-141l-23 14c-98 64-129 124-92 181 32 49 102 89 209 119zm-63-333c45 56 94 90 149 102 55 12 108 1 161-33 52-33 68-65 49-95-21-32-68-45-141-40-73 5-146 27-217 66zm462 746l-4-7c-244 20-384-9-422-85-22-45 1-85 69-118 19-9 45-19 76-29l285-88c45-14 73-24 86-30 22-11 29-25 21-41-14-28-74-51-180-69l54-16c115 20 185 55 209 105 20 41 3 75-51 101-18 9-50 20-97 35l-286 88c-26 8-44 14-53 19-29 14-40 30-32 46 10 21 59 37 145 49 86 11 182 14 287 8l209-64 51 87-182 50-287 89c-45 14-73 24-86 30-23 11-30 25-22 42 14 28 74 51 180 69l-54 16c-115-21-185-56-209-105-20-41-3-75 52-102 18-9 51-20 97-34l144-44zm-534 504l99 41c-12 36-13 71-5 105 19 78 115 109 285 94l470-42c60-6 99-11 118-16 33-8 47-22 42-42-4-14-17-37-39-69l37-3 149 201-197 12-148 13 2 8c107 10 197 32 270 65 73 33 115 71 126 114 16 65-27 111-130 136-120 30-243 21-369-27-126-48-199-113-220-197-2-9-4-27-7-54 0-3-1-9-1-16-131 7-238-11-319-54-81-43-133-108-155-197-5-22-8-46-7-73zm567 316c-12 44-13 84-4 123 14 55 70 88 168 100 116 13 216 9 301-12 61-15 88-37 81-66-6-26-51-55-134-87-83-32-174-55-274-71l-138 13zm391 824l-1-9c-104-23-191-56-260-98-69-42-106-85-112-128-8-66 40-106 145-118 116-14 234 8 354 67 124 61 193 146 206 254 5 45 9 92 10 141l-181-12-301-9c-47-2-77-2-91 0-25 3-36 14-34 33 4 31 53 73 148 124l-56-2c-102-57-157-114-164-168-6-46 22-72 82-80 20-2 54-3 103-1l150 5zm244 8c17-42 24-83 19-121-7-57-58-97-154-120-113-27-213-35-300-24-63 8-92 26-89 55 3 27 44 61 122 103 78 42 166 76 263 103l138 5zm-549 356l185 38 293 51c30 5 55 8 77 8 35 1 52-8 52-27 1-33-44-82-134-146l53 9c99 75 148 139 147 192-1 45-34 68-101 66-29-1-62-4-97-10l-145-25v6c100 39 181 85 243 138 63 52 94 100 93 143 0 22-7 42-20 59l-107-65c16-18 24-34 24-47 1-62-112-146-340-252l-219-39-5-100zm75 491l68 78-99 49-63-75 94-51zm152 82l476 66 178 38 17 98-200-42-461-133-10-27z" stroke-width="75"/><path d="m5586 22832c0 33-15 59-45 79-30 20-70 30-119 30-23 0-45-2-68-7-23-5-45-11-68-20-18-6-32-13-44-19-12-6-27-16-46-29-82 51-152 76-210 76-32 0-57-8-77-24-20-16-30-36-30-61 0-16 5-31 14-45 10-14 26-30 48-46 10-7 18-14 26-19 8-5 17-11 25-16 9-5 18-10 29-15 10-5 23-11 37-18-2-5-4-13-6-22-1-9-2-18-2-26 0-16 3-32 8-48 5-16 13-28 24-37 8-8 21-17 39-27 18-10 36-19 54-27 7-3 16-6 25-8 10-2 18-3 24-3 16 0 30 5 42 15 12 10 18 22 18 35 0 23-17 47-50 72-10 7-18 13-26 19-8 5-16 11-25 16-9 5-19 11-30 16-11 5-24 12-40 19 2 4 4 8 6 11 1 3 3 6 5 9 2 3 4 7 7 11 3 4 6 10 10 16 7 11 14 22 21 31 7 9 13 17 19 25 5 6 10 12 14 16 4 4 10 10 18 17 18-14 30-29 39-46 8-16 12-34 12-54 0-10-1-19-3-27-1-5-3-9-4-11 0 0 0-1-1-2-1-1-2-2-3-4-1-1-1-2-1-4 0-2 1-3 4-3 6 0 11 5 15 16 4 11 6 24 6 38 0 20-4 38-13 54-9 16-23 32-42 49 38 29 76 50 112 63 37 13 75 20 114 20 78 0 117-25 117-74 0-17-5-35-15-53-10-18-23-33-40-47-11-8-26-17-46-26-19-9-38-15-54-19-3-1-4-1-4-3 0-1 1-1 2-1 8 0 20 3 36 7 16 4 31 9 44 14 31 12 55 29 72 50 17 21 25 44 25 69zm-347-263c0-14-5-26-14-35-10-9-22-13-36-13-11 0-22 2-32 6-11 4-20 10-27 17-9 9-15 20-19 32-4 12-5 28-5 49 0 6 0 12 1 16 0 4 1 10 3 17 1 4 2 8 2 10 0 2 1 6 2 10 11-6 20-11 28-15 8-4 15-8 20-12 6-4 12-8 18-12 6-4 13-9 21-14 15-10 25-19 31-28 6-9 9-19 9-30zm-56 288c-12-9-21-17-27-23-6-6-14-13-23-23-12-13-24-26-34-41-10-14-20-31-30-50l-6-10c-11 5-20 10-27 13-7 3-13 7-18 10-5 3-9 6-14 9-4 3-10 7-16 11-17 12-30 25-39 41-9 15-14 31-14 47 0 23 7 41 22 55 15 14 34 20 59 20 26 0 56-6 88-19 15-6 27-11 37-16 10-5 23-13 40-24z" stroke-linejoin="round" stroke-linecap="round" stroke-width="70"/></g><text x="10500" y="14850" font-family="&apos;Arial&apos;" font-weight="bold" stroke-width="7.62" font-size="663.91" transform="matrix(.88045 0 0 1-5664.2 10496.5)">  00.00.0000</text></g><g stroke-linejoin="round" stroke-linecap="round"><g fill="none" stroke-width="150"><path d="m15803 16151l1 1m0 0c446 431 727 749 844 953 143 241 184 426 122 556 62-129 21-314-122-556m122 556c-13 28-31 53-54 76-155 173-513 242-1073 208m0 0c-16-1-33-2-49-3-16-362-39-588-68-677 29 89 52 315 68 677"/><path d="m16771 17658c-238 561-407 1048-510 1460-410 2-615 3-615 3-3-785-4-1177-4-1177"/><path d="m16261 19118c-410 2-615 3-615 3-136 83-234 154-295 214-9 69 56 112 195 132 241 3 470-74 688-229 30-26 38-65 26-119z"/><path d="m15851 16893c-388 418-854 681-1399 791-81 18-162 24-241 18-120-26-122-79-5-159 416-278 734-558 954-841 308-163 538-370 691-623-24-103-83-138-177-105-382 75-570 254-563 536-10 67 7 130 50 191"/><path d="m15168 16264c-20-55-54-121-103-198"/><path d="m15170 15948c-398 219-801 180-1209-118-353-336-428-666-345-1027 53-232 204-566 577-986"/><path d="m15829 16019c278 34 661-183 1149-652 472-416 589-804 350-1163-310-476-643-651-1000-527 266-228 380-448 343-659-86-323-339-464-759-423-323 5-441 185-352 538-196-337-436-455-720-354-429 80-699 256-809 527-69 324 61 516 391 577 304 81 635 72 995-27-176 223-241 445-195 668 70 295 232 463 486 504-315 62-376 297-182 704 57 105 125 182 205 231"/><path d="m14270 14292c-20 286 104 445 373 477"/><path d="m16771 17658c-238 561-407 1048-510 1460 12 54 3 94-26 119-218 156-448 232-688 229-139-19-204-63-195-132 61-60 160-131 295-214l-4-1177c560 34 918-35 1073-208 23-23 41-48 54-76 0-1 1-2 1-3zm-443-3982c356-124 690 51 1000 527 239 359 113 737-350 1163-498 459-871 686-1149 652 9 17 17 37 22 61-15 25-31 49-47 73-151 220-366 403-643 549-43-60-60-124-50-191-2-94 17-176 58-247 82-143 250-239 505-289 21-7 39-11 57-12-80-49-148-126-205-231-194-407-134-642 182-704-254-42-416-210-486-504-45-223 20-445 195-668-360 99-691 108-995 27-329-61-459-253-391-577 110-271 386-420 809-527 292-74 524 18 720 354-89-354 29-518 352-538 421-26 673 100 759 423 37 211-77 431-343 659z"/><path d="m6445 16435c-318-146-532-78-398 67 639 689 1232 842 1590 653-751-103-1230-532-1436-1287 175 10 410-71 703-242 620-438 337-1221-724-2333-359-242-708-299-1048-170-358 155-571 444-639 867-80 441 6 707 172 891 177 196 441 274 894 156m903 1845c-264 340-360 660-331 1018 105 607 61 893-134 858-760-222-1417-502-1970-840-71-95-37-136 31-214 297-339 624-736 1150-876 429-114 666-186 672-474 14-246-2-447-49-603 63-234-28-472-273-715 128-377 178-712 147-1005-13-171-58-287-147-331-178-87-382 109-270 266 419 588 878-564 929-870m-2222 1024c-14 587 5 1217 266 1524 418 489 1011 503 1569 108m-1300 134c-107 277-83 493 74 650-286 206-701 96-1244-329-577 357-943 212-1097-435-141-295-322-465-542-508 370-216 625-481 765-796 349-598 569-961 660-1089 296-406 738-562 1082-493m865 254c-174-229-375-341-604-337-241-1-355 98-255 248 77 116 79 129-58 168-248 70-399 216-375 375 17 112 130 168 246 197 76 23 69 37-4 76-169 89-169 191-20 270 177 45 342-48 496-279m1775 620c252-240 377-360 377-360m-2416 3383c168 357 571 471 1159 252 79 419 389 590 767 557m-1541-1196c151 385 525 550 1068 389 34 354 218 510 438 503m-777 569c97 291 185 465 264 523 50 38 126 27 170-4m-71-416c2 302 70 493 205 574 53 3 68-175 18-505"/></g><g fill="#201e1e"><g font-family="&apos;Menuet script&apos;" stroke-width="50"><text x="3981" y="21951" font-size="1058.33">Texto 01</text><text x="4203" y="23680" font-size="931.58">Texto 02</text></g><path d="m16258 22832c0 33-15 59-45 79-30 20-70 30-119 30-23 0-45-2-68-7-23-5-45-11-68-20-18-6-32-13-44-19-12-6-27-16-46-29-82 51-152 76-210 76-32 0-57-8-77-24-20-16-30-36-30-61 0-16 5-31 14-45 10-14 26-30 48-46 10-7 18-14 26-19 8-5 17-11 25-16 9-5 18-10 29-15 10-5 23-11 37-18-2-5-4-13-6-22-1-9-2-18-2-26 0-16 3-32 8-48 5-16 13-28 24-37 8-8 21-17 39-27 18-10 36-19 54-27 7-3 16-6 25-8 10-2 18-3 24-3 16 0 30 5 42 15 12 10 18 22 18 35 0 23-17 47-50 72-10 7-18 13-26 19-8 5-16 11-25 16-9 5-19 11-30 16-11 5-24 12-40 19 2 4 4 8 6 11 1 3 3 6 5 9 2 3 4 7 7 11 3 4 6 10 10 16 7 11 14 22 21 31 7 9 13 17 19 25 5 6 10 12 14 16 4 4 10 10 18 17 18-14 30-29 39-46 8-16 12-34 12-54 0-10-1-19-3-27-1-5-3-9-4-11 0 0 0-1-1-2-1-1-2-2-3-4-1-1-1-2-1-4 0-2 1-3 4-3 6 0 11 5 15 16 4 11 6 24 6 38 0 20-4 38-13 54-9 16-23 32-42 49 38 29 76 50 112 63 37 13 75 20 114 20 78 0 117-25 117-74 0-17-5-35-15-53-10-18-23-33-40-47-11-8-26-17-46-26-19-9-38-15-54-19-3-1-4-1-4-3 0-1 1-1 2-1 8 0 20 3 36 7 16 4 31 9 44 14 31 12 55 29 72 50 17 21 25 44 25 69zm-347-263c0-14-5-26-14-35-10-9-22-13-36-13-11 0-22 2-32 6-11 4-20 10-27 17-9 9-15 20-19 32-4 12-5 28-5 49 0 6 0 12 1 16 0 4 1 10 3 17 1 4 2 8 2 10 0 2 1 6 2 10 11-6 20-11 28-15 8-4 15-8 20-12 6-4 12-8 18-12 6-4 13-9 21-14 15-10 25-19 31-28 6-9 9-19 9-30zm-56 288c-12-9-21-17-27-23-6-6-14-13-23-23-12-13-24-26-34-41-10-14-20-31-30-50l-6-10c-11 5-20 10-27 13-7 3-13 7-18 10-5 3-9 6-14 9-4 3-10 7-16 11-17 12-30 25-39 41-9 15-14 31-14 47 0 23 7 41 22 55 15 14 34 20 59 20 26 0 56-6 88-19 15-6 27-11 37-16 10-5 23-13 40-24z" fill-rule="nonzero" stroke-width="70"/></g></g><g fill="#201e1e"><text x="10500" y="14850" font-family="&apos;Arial&apos;" font-weight="bold" stroke-width="7.62" font-size="663.91" transform="matrix(.88045 0 0 1 5007.38 10496.5)">  00.00.0000</text><g font-family="&apos;Menuet script&apos;" stroke-linejoin="round" stroke-linecap="round" font-weight="normal" stroke-width="50"><text x="14652" y="21951" font-size="1058.33">Texto 01</text><text x="14875" y="23680" font-size="931.58">Texto 02</text></g></g></g><g fill="#373435" font-family="&apos;Arial&apos;" font-weight="normal" font-size="423.33"><text x="1773" y="27604">DESC 1</text><text x="1773" y="28004">DESC 2</text><text x="1773" y="28470">DESC 3</text></g><g fill="#201e1e" font-family="&apos;Arial Black&apos;" font-weight="900" font-size="529.17"><text x="4722" y="19975">NN 1</text><text x="4699" y="20428">NN 2</text><text x="15041" y="20129">NN 1</text><text x="15018" y="20583">NN 2</text></g></svg>