<svg xmlns="http://www.w3.org/2000/svg" width="744.09" height="1052.36" viewBox="0 0 21000 29700" shape-rendering="geometricPrecision" image-rendering="optimizeQuality" fill-rule="evenodd" clip-rule="evenodd"><defs><clipPath id="0"><path d="m7100 25520c-1304 659-3784 532-4536-687-750-1215-580-4662-651-6352-178-4232-629-7441-745-10854-130-3790 2354-6295 5323-7001 4189-995 3941 4837 3359 7834-305 1610-908 3012-1293 4586-710 2904-67 7337-313 10359-127 1045-461 1738-1142 2114z"/></clipPath><clipPath id="1"><path d="m13886 25508c1304 659 3784 532 4536-687 750-1215 580-4662 651-6352 178-4232 629-7441 745-10854 130-3790-2354-6295-5323-7001-4189-995-3941 4837-3359 7834 305 1610 908 3012 1293 4586 710 2904 67 7337 313 10359 127 1045 461 1738 1142 2114z"/></clipPath></defs><text x="10081" y="24148" fill="#201e1e" font-family="&apos;Arial Black&apos;" stroke="#201e1e" font-weight="900" stroke-width="7.62" font-size="705.56">40</text><g fill="none" stroke="#373435" stroke-width="80"><circle cx="10533" cy="1008" r="460"/><path d="m10533 198v1621"/><path d="m9723 1008h1621"/><circle cx="10533" cy="25519" r="460"/><path d="m10533 24708v1621"/><path d="m9723 25519h1621"/></g><rect x="9843" y="22866" width="1347" height="637" rx="318" fill="#fff" stroke="#fff" stroke-width="20"/><g fill="#373435" font-family="&apos;Arial&apos;" font-weight="normal" font-size="423.33"><text x="665" y="27229">DESC 1</text><text x="630" y="27833">DESC 2</text><text x="612" y="28433">DESC 3</text></g><g clip-path="url(#0)"><g fill="#201e1e" stroke="#201e1e"><g stroke-linejoin="round" stroke-linecap="round"><g stroke-width="70"><path d="m2249 5379c-33-5-33 24-50 35-13-45-24-81 17-105 0 35 45 22 33 70zm-33-158c-61 27-55 165-33 228 28 0 55 0 83 0 56-103-55-126-50-228z"/><path d="m2846 5168c30 41 7 115 50 158-76 157-325 111-364-53 63-25 121 46 149 0-42-31-131-13-166-53 71-120 240-178 331-53zm-282-246c11 87-66 189-182 211-17-72 51-144 0-193-47 21 19 160-50 158-121-138-26-288 66-386 4 103 153 110 166 211zm431 369c-146-3-114-195-232-228 31-2 55-12 66-35-189-2-291 89-348 228 20 2 39 5 33 35-30 2-94-110-149-141 52 24 100-44 116 0-21 7-34 23-33 53 80-91 158-184 282-228-110-34-146 102-199 70 21-42 73-52 66-123-53-113-168-161-215-281-11 111-95 145-132 228-28 100 45 186 33 211-102-108-142-282-199-439-63-10-109-48-166-18 15-107 77-164 99-263-57 63-96 145-116 246-143 47-145 244-166 422-199 127-160 669 66 667-91-81-171-153-182-281-11-130 84-266 116-334 43-91 18-203 50-299 13-39 85-157 99-88-23 40 43 66 0 70-4-19-27-42-33-18 7 90 150 54 149-18-39-15-77 87-83 0 0-23 0-47 0-70 33-35 95-11 132 0 72 152 114 346 248 492 78 85 193 120 199 246 5 102-98 265-182 316-149 91-351 33-513 18 291 154 741 16 712-386 78 27 146 144 265 123 97-17 109-158 215-158 0-6 0-12 0-18z"/><path d="m9085 6761c-62 18-88 75-102 143 48 3 49-44 51-89 69-5-26 122 51 71 0 12 0 24 0 36-17 50-72-5-102 0 11 67 106 65 136 18 15-88-56-84-34-179z"/><path d="m9238 6493c-29-72-201-109-239-18 113-56 208 22 290 54 81-84 230-22 273 0-18-82-180-91-256-54 23-54 17-137 17-214 345 58 531 136 562 429 69 634-813 791-1090 393-245-351-104-958 460-840-11 78 22 202-17 250zm358-500c-62 72-130 138-221 179-16-60 52-122 0-161-14 74-23 154-51 214-25-123-67-227-51-393 80-12 81-106 136-143 27 138 182 142 187 304zm-204-375c-69 0-24 47-34 71-31 79-120 106-119 214-32-13-12-53-51-18-43 117 90 171 68 322-192 13-421 29-511-161 68-77 172-117 256-179 105 33 137 142 187 232-48 49-77-73-153-54 57 54 114 106 187 143-28-147-72-318-187-340-129-24-214 123-324 179 47 94 109 172 222 197-521 257-260 1137 375 1108 425-20 720-404 579-786-75-203-267-253-528-322 86-82 234-101 256-214 33-178-174-235-221-393z"/><path d="m2282 15850c11 0 22 0 33 0-22 46-15 114 33 72 5 29-16 31-17 54-51 13-60-18-99-18 13 47 53 63 116 54 69-94-29-112-17-235-53 26-82 79-83 163 36-3 36-46 33-90z"/><path d="m2597 15199c-29-125-69-238-66-398 55-60 109-123 149-199 21 151 211 183 199 325-8 98-174 174-232 217-13-63 50-136 0-181-13 85-39 201-50 235zm50 36c126 53 243 51 331 108 64 42 153 138 182 217 256 691-732 1057-1093 614-255-313-206-1100 447-958 44 81-9 172 17 253-52 12-194-118-282-18 83-8 201-5 282 72 79-27 273-88 298 36 66-112-168-136-248-90 28-90-6-149 17-217 9-28 38 0 50-18 9-14-12-41-17-36 98-106 271-149 282-271 16-187-221-208-248-398-55 0-17 102-50 127-72 48-107 170-166 181-32 128 94 184 83 343-211 15-468 21-547-181 156-193 398-261 464 72-39 30-84-88-166-72 68 39 136 159 199 145-31-159-78-341-199-361-133-23-227 148-348 199 69 81 112 191 232 217-34 41-96 52-132 90-352 420-39 1139 530 1120 435-14 798-427 613-885-76-187-278-290-530-289z"/><path d="m2859 4417c-86 8-151-7-152-89 1-23 22-25 17-53 25-27 86-16 135-18 0 53 0 107 0 160zm34-124c20-102 161-90 169 53-66 118-188 47-169-53zm236 18c-63-22-84-123-51-195 182-150 270 210 51 195zm-152-142c-58 31-126 15-152-36-36-222 259-144 152 36zm438-178c24 171-174 171-185 36 13-4 20-15 17-36 57-36 134-2 169 0zm-236 53c-128 18-202-81-169-178 62-26 138 15 202-36 47 72-7 163-34 213zm-202-231c-26 44-58 81-118 89-4-14-14-21-34-18-84-146 148-256 152-71zm270-18c22-122 246-158 202 89-68 116-221 13-202-89zm-438-89c-37 20-69 46-135 36-4-14 0-35-17-36-2-67 33-96 84-107 11 48 48 68 67 107zm185-18c-7-167 255-227 219 71-89 114-215 20-219-71zm489 36c-30-16-49-43-84-53 5-60 27-102 17-178 164-96 235 217 67 231zm-202-71c-41-34-71-79-84-142 123-141 263 97 84 142zm-270-107c-21 131-262 156-219-53 75-73 191-54 219 53zm219-231c12 90-30 122-51 178-93 3-96 18-169 0-63-159 113-304 219-178zm101-107c170-58 161 182 84 231-65 10-82-32-152-18 21-72 10-179 67-213zm-371 213c-118-51-179 41-253 89-43-8-77-25-101-53 108 8 243-34 185-142 154 8 195-103 253-195 76 137-111 124-84 302zm287-178c-50-19-112-24-152-53 90-12 125-82 185-124 8 79-12 129-34 178zm34-249c-65 39-92 116-169 142-31-27-40-77-67-107-57 136-144 239-320 249-13 55 46 34 34 89-49 43-109 74-202 71 15 73 84 89 169 89-81 52-163 173-67 267 28 0 56 0 84 0 24 64 31 145 118 142-64 57-113 178-34 249-41 52-134 49-152 124-13 108 62 124 118 160 92-100 268 59 303-124 119 53 221-31 219-160 41-22 90-36 118-71 4-33 43-118 0-142 31-51 83-79 67-178 72-60 144-120 118-284-50-19-50-90-135-71 66-135-18-342-169-249 5-82 0-154-34-195z"/><path d="m8439 2204c87-75 115-212 221-267 22 43 75 53 68 125-101 31-216 142-289 143zm-221-766c-57 54-52-66 0 0zm-102-214c21-59-88-126 0-143-20 58 52 110 0 143zm-17-160c24-76 13-188 68-232 7 108-29 172-68 232zm136 339c12-64 84-81 136-89 420-64 718 354 578 766-66-69-12-116-34-178 5 41-4 67-34 71-28-77-91-119-170-143 105 107 231 197 272 339 116 400-240 842-612 730-62-19-208-119-187-160 35 40 94 56 153 71 3-122 60-281 34-374-13 106-58 177-51 303-100 4-150-45-187-107 99-105 167-313 306-321 17-23 17-66 34-89 120-28 189-111 306-143 42 51 91 95 85 196-91 41-270-9-357 36 110 55 241-20 374 0 46 102 14 260-85 267-104-81-194-177-323-232 84 108 228 153 306 267-19 75-42 146-136 143-89-96-97-278-204-356 39 126 107 221 136 356-68 51-142-6-204 36 147 63 456 24 442-196 222-47 76-298 85-445-33-48-66-97-136-107 11-128-116-133-102-214-130 190-256 385-391 570-409-74-473-858-102-1033 12 44-75 73-17 107 87 8 208-43 153-125 7 39-51 98-68 53zm-442-143c28 24 108-6 102 53 79-18 132-63 187-107 35 11 11 83 51 89-376 256-336 990 85 1140-36 81-101 131-153 196 64 173 236 337 510 303 310-38 545-471 408-766 227-536-249-1062-782-855-143-134 68-408-51-499-61 31-43 145-68 214-40 35-68-95-136-89-90-5-95 79-170 89 37 98 254 8 255 143 45-78-81-128-187-107 39-181 223-16 238 89-41 91-136 127-255 89-46-78-49-185-119-232-9 52 67 167 85 249z"/><path d="m8157 11612c-29 83-22 232 17 295-137 287-676 168-580-203 19-73 96-112 182-147 26 26 13 96 66 92 22 0 44 0 66 0 66-48-26-70 17-129 115-11 174 39 232 92zm679 92c-5 413-646 412-662 55-7-146 61-240 215-276 30 34 6 128 83 111 71-1 60-93 83-147 190-12 283 96 282 258zm-1027-184c16-46-59-111 17-111-10 32 20 108-17 111zm83 110c-116 42-33-264-33-258-28 123 52 203 33 258zm-17-792c-3-28 6-68-17-74-11 59 45 205 0 184-3-28 6-68-17-74-7 63 7 103 17 147 0 49 0 98 0 147-31-57-6-177-50-221 1-103 21-186 66-239-14 48 50 101 0 129zm17-110c-5-25 10-72 17-37 5 25-10 72-17 37zm0-350c89-6 120 51 182 74-1 93 28 153 17 258-118-53-169-181-199-331zm182 460c-59 33-103-88-149-129 15-32 6-92 33-110 32 88 118 114 116 239zm-149 663c-87-45-51-323-33-424 68 80 207 351 33 424zm-50-442c5-105 32-186 33-295 150 42 252 338 116 479-39-73-87-137-149-184zm232-258c167 152 262 384 315 663-129-15-180 57-248 111-39-43-86-77-166-74 44-218 126-462 99-700zm17-313c103 15 162 77 215 147-4 77-11 238 17 331-201-11-293-237-232-479zm-182-166c120-97 410-35 513 55-31 27-110 1-133 37 180-16 294 42 315 203-162-47-391-19-464-166 15-16 115-29 66-55-95 44-262 10-298-74zm464 295c234-45 368 119 348 295-2-15-55-56-50-18 69 22 114 167 66 258-17-25-27-56-50-74-3 46 26 57 33 92-76-14-123-59-149-129-18 17-5 68-50 55-179-16-206-201-199-424 61-23 89 84 116 37-28-24-65-38-66-92zm-99 405c-6-20-20-44 0-18 45 60 82 172 116 276 30 90 114 241 33 276-15-158-73-387-149-534zm-547 0c33 13-4 103 33 111-2-46-3-89 33-92 10 115-13 195-17 295 4 58-37-123-50-166 14 120-31 175-50 258 31-2 11-61 50-55 23 36 16 105 33 147-40-8-36 34-83 18-9-27 19-95-17-92-2 29 2 64-33 55-105-159-66-425 99-479zm116-571c80 138-100 239-166 331 26-27 65-39 99-55 13 260-135 341-248 460-72-198 53-316 133-405-45 25-112 121-149 92 74-181 169-340 331-424zm-215 1087c-11 80-86 88-99 166-86 439 482 518 613 239 162 180 511 161 646-37 82-120 52-352-50-460-65-26-189-64-265-18-87-100-89-294-166-405 100 42 281 154 447 184 73-95-23-214 17-331-128-348-336-687-795-626-50 7-96 22-149 55-52 9-58-33-116-18 25 58 110 50 116 129-162 120-341 309-348 589-5 193 90 369 149 534z"/><path d="m8521 10747c-19 47 83 116 66 221 15-8 30-16 33-37 42 6 96 163 83 111-13-74-81-158-83-166-2-10 28-26 33-18-41-61-87-32-133-111z"/><path d="m8919 3870c-111 5-210 108-169 216 113-4 191-128 169-216z"/><path d="m9156 4032c-124-8-152 149-119 252 112-7 117-127 119-252z"/><path d="m8699 4068c-108 17-173 80-169 216 131 7 162-92 169-216z"/><path d="m9376 4193c-78 14-105 241-17 270 112-15 63-218 17-270z"/><path d="m8851 4283c-119-1-223 146-152 234 97-29 144-111 152-234z"/><path d="m8969 4409c-106 14-137 106-135 234 133 24 163-145 135-234z"/><path d="m9511 4535c-76 65-29 272 68 270 72-89-8-214-68-270z"/><path d="m9122 4535c-122-14-168 177-102 252 96-18 107-126 102-252z"/><path d="m9325 4571c-97-2-122 239-34 270 111-15 59-198 34-270z"/><path d="m9562 5146c-70-2-3-12 0-36 167-86 258-254 373-396-19 255-199 340-373 431zm-389-180c-495-81-990-890-593-1492 367 320 766 587 1168 845 53 34 116 71 152 126-135 299-339 585-728 521zm626-216c-93 188-278 419-559 431-452 20-925-535-931-1079-3-280 103-472 152-683-88 20-146 211-169 306-35 141-53 362-34 557 42 433 428 870 813 935 250 42 708 2 864-198 87-112 147-399 68-575-37-82-233-168-356-252-389-264-738-545-1084-827-461 681-23 1577 660 1654 263 30 420-116 576-252 0-6 0-12 0-18z"/><path d="m1878 9078c-111-3-181 92-154 178 108 0 143-76 154-178z"/><path d="m2066 9202c-85 18-112 97-103 213 124 22 117-145 103-213z"/><path d="m1673 9237c-84 12-168 103-120 195 83-13 157-114 120-195z"/><path d="m2289 9361c-110-20-126 240 0 213 39-53 7-152 0-213z"/><path d="m1793 9415c-65 32-167 104-120 195 98 2 161-110 120-195z"/><path d="m1913 9521c-73 24-147 124-103 213 100 4 136-136 103-213z"/><path d="m2032 9628c-80 11-121 139-85 213 103 13 121-139 85-213z"/><path d="m2357 9645c-21 70-17 217 85 213 41-80 4-212-85-213z"/><path d="m2220 9681c-17 0-34 0-51 0-18 50-33 166 0 213 118 12 89-155 51-213z"/><path d="m2425 10125c146-74 223-218 325-337-22 190-180 333-325 337zm-359-124c-440-97-820-814-478-1260 353 302 739 569 1145 816-138 246-323 520-666 444zm547-160c-345 715-1257 131-1264-568-2-215 97-406 120-586-97 94-155 309-171 497-41 485 272 915 632 1012 265 71 703 44 837-177 55-91 94-343 51-444-32-76-223-163-325-231-341-228-629-479-957-692-58 199-141 371-137 568 12 617 752 1103 1213 639 0-6 0-12 0-18z"/><path d="m9087 8981c-43 15-54 63-86 90 46 59 105-20 86-90z"/><path d="m8675 9035c0-18 0-36 0-54-59-8-52 54-86 72-3 15 7 17 17 18 59-22-2-26 69-36z"/><path d="m8349 8981c-29 23-67 37-69 90 48-3 73-31 69-90z"/><path d="m9070 9305c27 82 80-7 103-36-74-38-40 51-103 36z"/><path d="m9293 7811c-62 132-139 250-206 378 24-163 52-467 206-378zm-652 720c-20 3-39 32-51 0 20-3 39-32 51 0zm206-216c-5-55-133-91-223-108 67-108 283-100 429-72 26 76-89 3-86 54 43-3 83-3 86 36-47 59-151 153-154 198 91-31 112-135 189-180 153 31 177 198 240 324 12-163-88-207-137-306 99 11 186 128 240 126-62-97-216-97-274-198 137 30 401 179 377 378-31-28-98-112-120-90 3 141-56 217-137 270-5-175-110-245-206-324-60 30-144 87-240 90-48 1-147-4-172-54 62-45 194-77 189-144zm-292-90c49 15 106 21 154 36-18 47-90 38-103 90 56 63 104-34 120-72 15 14 39 19 69 18-37 129-192 135-223 270 40 40 77-25 103-54 56 19 140 9 189 36-17 18-34 36-51 54 16 70 83-4 86-54 91-1 121-65 189-90 51 26-23 70 0 126 36-10 36-28 17-54 84 44 146 111 137 252 108-43 192-110 206-252 40 6 32 63 86 54 22 287-54 472-154 630 194-110 170-435 206-666-36-76-86-152-86-216-115-54-209-129-326-180 27-170 151-238 189-396-55-8-93-35-154-36-74 102-113 241-137 396-166-27-275-60-446 18-18 8-40 55-69 72-76 46-190 92-240 162-135 187-107 428-120 720-16 346 10 613 343 576 212-203 597-226 806-432-107 140-374 111-497 234-183 10-250 191-412 180-265-17-206-363-189-684 7-126-13-264 0-342 37-219 220-331 309-396z"/><path d="m8349 8855c71 9 82-46 86-108-52 11-88 40-86 108z"/><path d="m8727 8765c-55 7-130 52-86 108 59-4 75-54 86-108z"/><path d="m8915 8891c-68-6-93 35-86 108 34-30 80-48 86-108z"/><path d="m8469 9215c-17 0-13 22-17 36-48-71 67-12 51-108-57 12-93 46-86 126 37 3 55-15 51-54z"/><path d="m8469 8405c-54 3-82 33-86 90 61 4 90-26 86-90z"/><path d="m9430 8765c55-30 44-60 34-126-59-6-63 94-34 126z"/><path d="m9070 8729c-52-11-97 76-51 108 52 1 43-63 51-108z"/><path d="m9327 8945c-74 13-100 71-51 126 44-14 60-57 51-126z"/><path d="m8881 9125c-40 18-115 54-69 108 57-1 66-51 69-108z"/><path d="m8624 9395c-17 0-34 0-51 0-14 34-29 66-34 108 78 16 69-59 86-108z"/><path d="m8401 9431c-68-6-93 35-86 108 53-11 84-44 86-108z"/><path d="m2226 11696c-33-5-33 24-50 35-13-45-24-81 17-105 0 35 45 22 33 70zm-33-158c-61 27-55 165-33 228 28 0 55 0 83 0 56-103-55-126-50-228z"/><path d="m2823 11485c30 41 7 115 50 158-76 157-325 111-364-53 63-25 121 46 149 0-42-31-131-13-166-53 71-120 240-178 331-53zm-282-246c11 87-66 189-182 211-17-72 51-144 0-193-47 21 19 160-50 158-121-138-26-288 66-386 4 103 153 110 166 211zm431 369c-146-3-114-195-232-228 31-2 55-12 66-35-189-2-291 89-348 228 20 2 39 5 33 35-30 2-94-110-149-141 52 24 100-44 116 0-21 7-34 23-33 53 80-91 158-184 282-228-110-34-146 102-199 70 21-42 73-52 66-123-53-113-168-161-215-281-11 111-95 145-132 228-28 100 45 186 33 211-102-108-142-282-199-439-63-10-109-48-166-18 15-107 77-164 99-263-57 63-96 145-116 246-143 47-145 244-166 422-199 127-160 669 66 667-91-81-171-153-182-281-11-130 84-266 116-334 43-91 18-203 50-299 13-39 85-157 99-88-23 40 43 66 0 70-4-19-27-42-33-18 7 90 150 54 149-18-39-15-77 87-83 0 0-23 0-47 0-70 33-35 95-11 132 0 72 152 114 346 248 492 78 85 193 120 199 246 5 102-98 265-182 316-149 91-351 33-513 18 291 154 741 16 712-386 78 27 146 144 265 123 97-17 109-158 215-158 0-6 0-12 0-18z"/><path d="m2054 13953c-86 8-151-7-152-89 1-23 22-25 17-53 24-27 86-16 135-18 0 53 0 107 0 160zm34-124c20-102 161-90 169 53-66 118-188 47-169-53zm236 18c-63-22-84-123-51-195 182-150 270 210 51 195zm-152-142c-58 31-126 15-152-36-36-222 259-144 152 36zm438-178c24 171-174 171-185 36 13-4 20-15 17-36 57-36 134-2 169 0zm-236 53c-128 18-202-81-169-178 62-26 138 15 202-36 47 72-7 163-34 213zm-202-231c-26 44-58 81-118 89-4-14-14-21-34-18-84-146 148-256 152-71zm270-18c22-122 246-158 202 89-68 116-221 13-202-89zm-438-89c-37 20-69 46-135 36-4-14 0-35-17-36-2-67 33-96 84-107 11 48 48 68 67 107zm185-18c-7-167 255-227 219 71-89 114-215 20-219-71zm489 36c-30-16-49-43-84-53 5-60 27-102 17-178 164-96 235 217 67 231zm-202-71c-41-34-71-79-84-142 123-141 263 97 84 142zm-270-107c-21 131-262 156-219-53 75-73 191-54 219 53zm219-231c12 90-30 122-51 178-93 3-96 18-169 0-63-159 113-304 219-178zm101-107c170-58 161 182 84 231-65 10-82-32-152-18 21-72 10-179 67-213zm-371 213c-118-51-179 41-253 89-43-8-77-25-101-53 108 8 243-34 185-142 154 8 195-103 253-195 76 137-111 124-84 302zm287-178c-50-19-112-24-152-53 90-12 125-82 185-124 8 79-12 129-34 178zm34-249c-65 39-92 116-169 142-31-27-40-77-67-107-57 136-144 239-320 249-13 55 46 34 34 89-49 43-109 74-202 71 15 73 84 89 169 89-81 52-163 173-67 267 28 0 56 0 84 0 24 64 31 145 118 142-64 57-113 178-34 249-41 52-134 49-152 124-13 108 62 124 118 160 92-100 268 59 303-124 119 53 221-31 219-160 41-22 90-36 118-71 4-33 43-118 0-142 31-51 83-79 67-178 72-60 144-120 118-284-50-19-50-90-135-71 66-135-18-342-169-249 5-82 0-154-34-195z"/><path d="m1690 7524c-62 18-88 75-102 143 48 3 49-44 51-89 69-5-26 122 51 71 0 12 0 24 0 36-17 50-72-5-102 0 11 67 106 65 136 18 15-88-56-84-34-179z"/><path d="m1844 7256c-29-72-201-109-239-18 113-56 208 22 290 54 81-84 230-22 273 0-18-82-180-91-256-54 23-54 17-137 17-214 345 58 531 136 562 429 69 634-813 791-1090 393-245-351-104-958 460-840-11 78 22 202-17 250zm358-500c-62 72-130 138-221 179-16-60 52-122 0-161-14 74-23 154-51 214-25-123-67-227-51-393 80-12 81-106 136-143 27 138 182 142 187 304zm-204-375c-69 0-24 47-34 71-31 79-120 106-119 214-32-13-12-53-51-18-43 117 90 171 68 322-192 13-421 29-511-161 68-77 172-117 256-179 105 33 137 142 187 232-48 49-77-73-153-54 57 54 114 106 187 143-28-147-72-318-187-340-129-24-214 123-324 179 47 94 109 172 222 197-521 257-260 1137 375 1108 425-20 720-404 579-786-75-203-267-253-528-322 86-82 234-101 256-214 33-178-174-235-221-393z"/><path d="m4244 2763c-62 18-88 75-102 143 48 3 49-44 51-89 69-5-26 122 51 71 0 12 0 24 0 36-17 50-72-5-102 0 11 67 106 65 136 18 15-88-56-84-34-179z"/><path d="m4398 2495c-29-72-201-109-239-18 113-56 208 22 290 54 81-84 230-22 273 0-18-82-180-91-256-54 23-54 17-137 17-214 345 58 531 136 562 429 69 634-813 791-1090 393-245-351-104-958 460-840-11 78 22 202-17 250zm358-500c-62 72-130 138-221 179-16-60 52-122 0-161-14 74-23 154-51 214-25-123-67-227-51-393 80-12 81-106 136-143 27 138 182 142 187 304zm-204-375c-69 0-24 47-34 71-31 79-120 106-119 214-32-13-12-53-51-18-43 117 90 171 68 322-192 13-421 29-511-161 68-77 172-117 256-179 105 33 137 142 187 232-48 49-77-73-153-54 57 54 114 106 187 143-28-147-72-318-187-340-129-24-214 123-324 179 47 94 109 172 222 197-521 257-260 1137 375 1108 425-20 720-404 579-786-75-203-267-253-528-322 86-82 234-101 256-214 33-178-174-235-221-393z"/><path d="m6562 1832c-43 15-54 63-86 90 46 59 105-21 86-90z"/><path d="m6150 1886c0-18 0-36 0-54-59-8-52 54-86 72-3 15 7 17 17 18 59-22-2-26 69-36z"/><path d="m5824 1832c-29 23-67 37-69 90 48-3 73-31 69-90z"/><path d="m6544 2156c27 82 80-7 103-36-74-38-40 51-103 36z"/><path d="m6767 662c-62 132-139 250-206 378 24-163 52-467 206-378zm-652 720c-20 3-39 32-51 0 20-3 39-32 51 0zm206-216c-5-55-133-91-223-108 67-108 283-100 429-72 26 76-89 3-86 54 43-3 83-3 86 36-47 59-151 153-154 198 91-31 112-135 189-180 153 31 177 198 240 324 12-163-88-207-137-306 99 11 186 128 240 126-62-97-216-97-274-198 137 30 401 179 377 378-31-28-98-112-120-90 3 141-56 217-137 270-5-175-110-245-206-324-60 30-144 87-240 90-48 1-147-4-172-54 62-45 194-77 189-144zm-292-90c49 15 106 21 154 36-18 47-90 38-103 90 56 63 104-34 120-72 15 14 39 19 69 18-37 129-192 135-223 270 40 40 77-25 103-54 56 19 140 9 189 36-17 18-34 36-51 54 16 70 83-4 86-54 91-1 121-65 189-90 51 26-23 70 0 126 36-10 36-28 17-54 84 44 146 111 137 252 108-43 192-110 206-252 40 6 32 63 86 54 22 287-54 472-154 630 194-110 170-435 206-666-36-76-86-152-86-216-115-54-209-129-326-180 27-170 151-238 189-396-55-8-93-35-154-36-74 102-113 241-137 396-166-27-275-60-446 18-18 8-40 55-69 72-76 46-190 92-240 162-135 187-107 428-120 720-16 346 10 613 343 576 212-203 597-226 806-432-107 140-374 111-497 234-183 10-250 191-412 180-265-17-206-363-189-684 7-126-13-264 0-342 37-219 220-331 309-396z"/><path d="m5824 1706c71 9 82-46 86-108-52 11-88 40-86 108z"/><path d="m6201 1616c-55 7-130 52-86 108 59-4 75-54 86-108z"/><path d="m6390 1742c-68-6-93 35-86 108 34-30 80-48 86-108z"/><path d="m5944 2066c-17 0-13 22-17 36-48-71 67-12 51-108-57 12-93 46-86 126 37 3 55-15 51-54z"/><path d="m5944 1256c-54 3-82 33-86 90 61 4 90-26 86-90z"/><path d="m6905 1616c55-30 44-60 34-126-59-6-63 94-34 126z"/><path d="m6544 1580c-52-11-97 76-51 108 52 1 43-63 51-108z"/><path d="m6802 1796c-74 13-100 71-51 126 44-14 60-57 51-126z"/><path d="m6356 1976c-40 18-115 54-69 108 57-1 66-51 69-108z"/><path d="m6098 2246c-17 0-34 0-51 0-14 34-29 66-34 108 78 16 69-59 86-108z"/><path d="m5876 2282c-68-6-93 35-86 108 53-11 84-44 86-108z"/><path d="m7224 15737c11 0 22 0 33 0-22 46-15 114 33 72 5 29-16 31-17 54-51 13-60-18-99-18 13 47 53 63 116 54 69-94-29-112-17-235-53 26-82 79-83 163 36-3 36-46 33-90z"/><path d="m7539 15086c-29-125-69-238-66-398 55-60 109-123 149-199 21 151 211 183 199 325-8 98-174 174-232 217-13-63 50-136 0-181-13 85-39 201-50 235zm50 36c126 53 243 51 331 108 64 42 153 138 182 217 256 691-732 1057-1093 614-255-313-206-1100 447-958 44 81-9 172 17 253-52 12-194-118-282-18 83-8 201-5 282 72 79-27 273-88 298 36 66-112-168-136-248-90 28-90-6-149 17-217 9-28 38 0 50-18 9-14-12-41-17-36 98-106 271-149 282-271 16-187-221-208-248-398-55 0-17 102-50 127-72 48-107 170-166 181-32 127 94 184 83 343-211 15-468 21-547-181 156-193 398-261 464 72-39 30-84-88-166-72 68 39 136 159 199 145-31-159-78-341-199-361-133-23-227 148-348 199 69 81 112 191 232 217-34 41-96 52-132 90-352 420-39 1139 530 1120 435-14 798-427 613-885-76-186-278-290-530-289z"/><path d="m7635 13953c-86 8-151-7-152-89 1-23 22-25 17-53 25-27 86-16 135-18 0 53 0 107 0 160zm34-124c20-102 161-90 169 53-66 118-188 47-169-53zm236 18c-63-22-84-123-51-195 182-150 270 210 51 195zm-152-142c-58 31-126 15-152-36-36-222 259-144 152 36zm438-178c24 171-174 171-185 36 13-4 20-15 17-36 57-36 134-2 169 0zm-236 53c-128 18-202-81-169-178 62-26 138 15 202-36 47 72-7 163-34 213zm-202-231c-25 44-58 81-118 89-4-14-14-21-34-18-84-146 148-256 152-71zm270-18c22-122 246-158 202 89-68 116-221 13-202-89zm-438-89c-37 20-69 46-135 36-4-14 0-35-17-36-2-67 33-96 84-107 11 48 48 68 67 107zm185-18c-7-167 255-227 219 71-89 114-215 20-219-71zm489 36c-30-16-49-43-84-53 5-60 27-102 17-178 164-96 235 217 67 231zm-202-71c-41-34-71-79-84-142 123-141 263 97 84 142zm-270-107c-21 131-262 156-219-53 75-73 191-54 219 53zm219-231c12 90-30 122-51 178-93 3-96 18-169 0-63-159 113-304 219-178zm101-107c170-58 161 182 84 231-65 10-82-32-152-18 21-72 10-179 67-213zm-371 213c-118-51-179 41-253 89-43-8-77-25-101-53 108 8 243-34 185-142 154 8 195-103 253-195 76 137-111 124-84 302zm287-178c-50-19-112-24-152-53 90-12 125-82 185-124 8 79-12 129-34 178zm34-249c-65 39-92 116-169 142-31-27-40-77-67-107-57 136-144 239-320 249-13 55 46 34 34 89-49 43-109 74-202 71 15 73 84 89 169 89-81 52-163 173-67 267 28 0 56 0 84 0 24 64 31 145 118 142-64 57-113 178-34 249-41 52-134 49-152 124-13 108 62 124 118 160 92-100 268 59 303-124 119 53 221-31 219-160 41-22 90-36 118-71 4-33 43-118 0-142 31-51 83-79 67-178 72-60 144-120 118-284-50-19-50-90-135-71 66-135-18-342-169-249 5-82 0-154-34-195z"/><path d="m5260 21619c3-43-10-72-45-84-3 43 10 72 45 84zm30 12c-89 15-118-67-89-108 13-7 27-15 30 0 52 10 61 55 59 108z"/><path d="m3847 22160c45-12 26 27 30 48 42-14 77-14 119 0 5-64 38-51 15-120-68-6-84 21-134 0 21 49-32 38-30 72zm193-108c10 42 6 69 30 120-55-8-66 19-60 60-76-20-67-16-149 0-10-36-30-64-60-84 5-36 71-23 45-84 98 9 92-6 193-12z"/><path d="m4591 22569c1-39 42-46 30-96-67 1-68 71-30 96zm-15-120c47-10 46 19 74 24-8 62-26 116-89 132-24-44-22-126 15-156z"/><path d="m4263 22689c12 3 17 10 15 24 36-7 108 15 119-12-21-23-110-65-134-12zm179 12c-37 38-152 44-193 12 0-16 0-32 0-48 70-35 159 4 193 36z"/><path d="m4353 22894c65 5 72-38 89-72-48 9-78 33-89 72zm-15 24c-40-64 45-121 134-120-4 73-41 119-134 120z"/><path d="m5037 23435c45-9 136-77 119-156-7-33-62-32-74-84-301-27-276 285-45 240zm372-265c56 83 233 12 208-84-21-3-25-20-45-24-4 77-125 59-164 108zm-30-36c-1-4-68-70-74-72-98-27-201 37-179 156 92 119 289 32 253-84zm-342-168c-58 34-105 75-89 168 32 26 72 46 149 36-6-69 44-93 74-132-78 3-49-81-134-72zm580-24c-56 119 60 204 164 180 147-33 89-249-60-265 7 62-94 36-104 84zm-164 180c80-6 152-116 104-192-24-39-117-30-134-72-143 53-132 276 30 265zm-312-265c-75 84 3 200 149 180-6-57 7-98 30-132-78-1-94-52-178-48zm-744 204c63 20 213 47 268 0 0-116-50-192-74-289-88 77-149 176-193 289zm342-12c125-7 172-77 208-156-91-58-214-91-327-132 43 94 42 222 119 289zm-208-313c-106 46-248 64-372 96-5 120 82 166 179 204 75-84 179-208 193-301zm312 48c12-14 20-32 15-60-42 10-39-17-74-12-22 21 14 69 59 72zm1354-108c-57 2-69 41-134 36 15 62 5 88-15 144 139 104 303-121 149-180zm-595 0c-48-3-62 25-134 24 35 51-8 92 0 156 187 180 388-165 134-180zm298-12c-22 42-80 55-134 72 0 36 0 72 0 108 89 94 321 43 268-120-56-11-78-49-134-60zm-550 216c144-25 116-241-30-228-209 18-136 257 30 228zm-729-144c72-9 117 65 164 36-15-26-77-45-45-72 70 0 147-6 149 48 19 52-42 38-60 60 67 2 78 49 149 48 87-41-17-116 15-216-141 18-289 31-372 96zm550 96c-31-51-8-115 15-156-47-14-83-37-119-60-79 74-50 228 104 216zm-1056-265c-47 51-46 204 15 241 150-23 296-49 402-108-154-32-231-126-417-132zm1785-48c-59-85-135-1-223-24 11 65-17 99-30 144 78 115 314 51 253-120zm223 168c58-48 101-108 74-168-45-105-167-33-283-24 20 36 15 92 15 144 42 34 96 59 193 48zm-759-72c70 162 418-23 238-168-161-56-280 73-238 168zm-60 24c32-58 47-131 60-204-256-181-419 299-60 204zm-521-265c-66 95-114 205-164 313 126-31 260-54 372-96 3-130-79-193-208-216zm-610 132c97 74 227 121 357 168-62-94-55-244-164-301-78-15-186 50-193 132zm268-168c19 137 80 240 134 349 59-100 126-194 149-325-42-51-212-69-283-24zm1428-36c11 65-17 99-30 144 104 76 275 1 238-144-70-60-110-4-208 0zm-1874 505c53 293 532 485 922 301-7-106 53-158 164-168-30-49 66-95 0-96-80-32-118 73-134 132-55 31-91 79-164 96-75-34-103 29-179 36-140 13-251-54-372-84-29-38-68-60-89-108-14-31 0-57-15-84-18-31-64-42-74-84-10-40 7-93 0-144 37-14 18-74 89-60-9-139 127-214 268-192 55-97 304-60 357 12 161-21 277 133 268 253 57-27-14-115 45-156-339-393-1183-189-1086 349zm1726-325c113-6 151-157 74-240-257-77-264 250-74 240zm-1785 325c54 326 600 562 997 337-124 27-197 59-327 60-827 8-834-919-104-974 138-11 266 9 357 36 55 16 95 66 164 60-557-327-1158 46-1086 481zm1369-457c46 137 352 54 238-132-120-83-272 31-238 132zm-193 60c63-5 80-47 164-36-23-85 44-127 15-180-166-108-336 136-178 216zm907-156c166 9 28 191 179 204-24-59 51-75 89-48-24-50-51-127 30-144 131 30 86 171 193 180-20-2 45-30 60-36 53-24 74-43 134-36-103-181-322-269-640-277 6 69-29 105-45 156zm-253-48c69 28 66 75 134 72 106-4 163-148 104-228-131-36-263 26-238 156zm-521-60c32 19 55 43 89 60 28-21 60-40 119-36-4-60 28-89 45-132-121-40-239 21-253 108zm238 0c28 42 94 52 104 108 51-23 108-41 149-72-41-34 30-79 30-120-70-104-296-27-283 84zm-1383-156c-270-20-572 136-610 373-43 272 103 485 431 517-84-350 140-634 521-685-34-121-199-194-342-204zm283 84c57 22 77 74 119 108-24-83 43-157 15-204-22 50-90 64-134 96zm-461-96c10 0 20 0 30 0 17-17 16-29-15-36-1 15-19 17-15 36zm298 12c68 38 219 82 253-12-109-29-194-98-253 12zm1220-156c-19-1-21-15-45-12-10 16-32 22-59 24 14 61 76 83 74 156 81-13 94 37 149 12 12-57-114-98-119-180zm952 168c-4-52 70-40 74-84-103-2 4-53 0-84-86-17-156 27-193 12 6-31 44-36 45-72-114-12-152 37-223 60-1-21 3-37 15-48-118 45-170 143-238 228 40 0 79 0 119 0 6 23 58 10 45 48 342 16 580 116 714 301 11-90-96-190 0-241-30-24-121 1-134-36-15-60 60-48 74-84-17-22-97 6-74-48 8 0 17-10 0-12-29 44-166 154-223 60zm-1101-168c51-11 98-25 119-60-46 15-106 18-119 60zm-1666 265c73-53 170-87 268-120 20-59 17-143-60-156-55 1-1 47-30 48-57-2-98-17-104-60 5-21 52 16 45-36-279-53-330 283-119 325zm1131-301c-16 165-300 172-208 385 218-12 351 45 476 108 11-92 78-138 193-144 3-89 85-116 164-144-40-203-369-321-625-204zm417-36c64 60 253 14 193-84-29 57-177 17-193 84zm-997 216c148-38 207-318-30-313-20 49 27 43 45 60-48 16-155 26-164-24 39 7 54-5 45-36-277 12-166 366 104 313zm1681-241c13 107-34 230-45 289 51-47 90-140 89-228-1-52-19-128-59-156-38 32 10 55 15 96zm-1740-36c2-16 2-87-15-48-2 16-2 87 15 48zm595 72c-8-75-113-185-238-132-11 53 30-10 30 24-3 50-97 75-134 60 1-19 38-9 30-36-106-1-32 142-74 192 153 146 405 62 387-108zm-863 24c58-18 32-102 89-120-8-17 17-62-15-60-20 64-62 111-74 180zm461-108c-26-27-14-85-45-108-6 46 23 125 45 108zm-179-132c4-16-9-47-15-24-4 16 9 47 15 24zm-550 204c63-15 130-15 193 0 7-54 48-82 60-132-68-13-117-66-45-96-150-43-275 96-208 228zm1369-228c10 32 6 75 30 96-2-50 87-90 45-132-10 24-40 32-74 36zm30 168c46 34 169 53 223 12-28-86-58-169-119-229-30 76-78 137-104 216zm417-168c-5-28 2-46 15-60-45 8-128-15-149 12 47 14 79 41 134 48zm-104 156c62-18 105-51 89-132-98-5-156-106-253-72 58 65 55 180 164 204zm-937-12c25-64-45-145-74-204 17 74 22 158 74 204zm-104-180c4-16-9-47-15-24-4 16 9 47 15 24zm684 180c26-68-30-193-89-216-27-11-191-33-164 36 0-12 26-15 30 0-38 33-41 95-119 96-18-39 48-9 30-48-37-26-68 25-74 60 117 14 174 75 193 168 70-27 167-28 193-96zm-788-36c46-1 71 15 104 24-38-82-27-203-74-277-6 87-14 173-30 253zm-149-241c-48 61-81 142-119 216-39 77-98 150-104 216 84-122 188-359 223-433zm788-12c0 12 0 24 0 36 89 4 106 67 178 84 27-30 87-34 104-72-109 2-188-77-283-48zm1681 108c-54-211-268-133-506-156-52-5-100-34-149-36-237-12-383 127-402 265-17 121 31 310 164 397 58 38 127 8 193 48 61-92 97-290 0-373 47-8 116-42 149-24-17 69 23 210 15 277 48-62 99-120 193-144 68 36 136-10 238 0 21 34-46 66 15 60 97-131 114-215 89-313zm-1309-60c102-6 162 21 268 12 15-40 60-56 74-96-102-109-225 59-342 84zm-625-12c27 28 95 131 119 84-88-38-202-204-223-216 5 45 63 89 104 132zm-491-84c-35 37 70-55 30-60-6 23-32 30-30 60zm1056-12c2-30 3-58-30-60-2 30 8 50 30 60zm-967-60c-51 113-243 258-134 385-3-26 53-5 74-12 21-125 62-327 59-373zm788-48c-42 35-105 51-104 120 78 25 154 52 238 72-44-65-47-162-134-192zm1071 60c-24-21-25-123-74-84 55-6 59 173 74 84zm-1517 337c34 12 44-29 59-48 56-71 34-66-30-132-73-77-151-187-193-253 28 159 44 348 164 433zm907-349c8-51-36-104-104-96-81 9-92 176-134 228 80-41 228-64 238-132zm-283 132c0-18 55-49 15-60-3 14-24 13-45 12-7-33-72-105 15-108 48 5 30 64 60 84 3-60 49-114 15-168-262-32-124 174-59 240zm-655 289c-73-123-140-307-164-457-2-9 13-93-15-72-4 115 15 213 59 289 19 97 63 174 119 241zm550-601c-186 44-323 203-342 361 42-2 62-22 104-24 23-86 57-201 149-228 16-5 45 7 59 0 91-43 166-116 253-12 2-34 62-22 104-24 54 17 117 76 89 120 74-7 85 84 149 48-45-201-300-303-565-241zm536 108c27 29 36 108 89 96-100-286-626-336-878-132-89 72-174 195-119 289-2-379 665-518 907-253zm-1904-421c91 183 339 303 655 265-98-182-348-363-655-265zm1398-24c-3-13-16-19-30-24-310 46-512 179-669 349 392 21 607-102 699-325zm982 409c253-84 419-238 506-457 16-1 12-15-15-12-181 134-434 274-491 469zm446-457c3-15 23-25-15-24-198 80-425 201-446 385 121-146 275-267 461-361zm-1860-289c-217 106-368 313-298 613 43 21 64-38 89-60 142-125 294-306 238-541-3-9-13-14-30-12zm-60 445c141-72 327-166 536-144-68 262-307 385-699 385 14 89 108 217 193 289 56-179 233-357 491-385 281-30 522 84 580 289 116-14 213-13 312 12-16-79-87-114-134-168 21-18 72-38 104-12 81-275 308-432 655-493-74 281-265 467-580 553 7 50 29 89 45 132 404-112 570 230 402 469 3 37 53 38 89 48-25 53-89 61 0 96-17 38-92 30-104 72 112 50 118-88 223-84 61-4 8 25 15 48 19 21 71 15 74 48 2 46-87 18-89 60 31 27 122 5 134 48 24 47-39 25-45 48 19 81 57 147 45 253-59 12-45-36-104-24-39-4-49 17-45 48-56-26-85 1-119 24-114-16-99-136-193-168-50 41 21 87 15 132-52 10-57-18-104-12-38 60 32 144-15 204 4 51 61 45 74 84 43 127-106 240-253 168-63 5-80 47-164 36 86 110-33 270-193 216-63 21-84 77-149 96-176-59-171 110-327 60-49 44-36 125-119 156-245 92-350-184-134-265-381 179-935 15-1012-277-458 23-613-531-342-770-144-54-171-276-45-361-77-133 51-310 238-265 116-147 223-300 372-421-263-40-482-115-565-301 194-159 573-8 640 156 15-281 126-483 402-553 84 166-20 361-104 469z"/></g><text x="10500" y="14850" font-family="&apos;Segoe Print&apos;" stroke-width="35" font-size="882.72" transform="matrix(.75803 0 0 1.16435-4238.57 2462.65)">Texto 1</text></g><text x="10500" y="14850" font-family="&apos;Segoe Print&apos;" stroke-width="35" font-size="806.01" transform="matrix(.69935 0 0 1.16435-4544.95 7254.88)">Nutrição</text><g font-family="&apos;Arial&apos;" stroke-width="7.62" font-size="572.98"><text x="10500" y="14850" transform="matrix(1.10386 0 0 1.16435-7326.49-464.69)">NN 1</text><text x="10500" y="14850" transform="matrix(1.10386 0 0 1.16435-7348.68 158.76)">NN 2</text></g><text x="10500" y="14850" font-family="&apos;Segoe Print&apos;" stroke-width="35" font-size="806.01" transform="matrix(.69935 0 0 1.16435-1890.52 7246.9)">Texto 2</text></g></g><path d="m13886 25508c1304 659 3784 532 4536-687 750-1215 580-4662 651-6352 178-4232 629-7441 745-10854 130-3790-2354-6295-5323-7001-4189-995-3941 4837-3359 7834 305 1610 908 3012 1293 4586 710 2904 67 7337 313 10359 127 1045 461 1738 1142 2114z" fill="#fefefe"/><g clip-path="url(#1)"><g fill="#201e1e" stroke="#201e1e"><g stroke-linejoin="round" stroke-linecap="round"><g stroke-width="70"><path d="m18737 5367c33-5 33 24 50 35 13-45 24-81-17-105 0 35-45 22-33 70zm33-158c61 27 55 165 33 228-28 0-55 0-83 0-56-103 55-126 50-228z"/><path d="m18141 5157c-30 41-7 115-50 158 76 157 325 111 364-53-63-25-121 46-149 0 42-31 131-13 166-53-71-120-240-178-331-53zm282-246c-11 87 66 189 182 211 17-72-51-144 0-193 47 21-19 160 50 158 121-138 26-288-66-386-4 103-153 110-166 211zm-431 369c146-3 114-195 232-228-31-2-55-12-66-35 189-2 291 89 348 228-20 2-39 5-33 35 30 2 94-110 149-141-52 24-100-44-116 0 21 7 34 23 33 53-80-91-158-184-282-228 110-34 146 102 199 70-21-42-73-52-66-123 53-113 168-161 215-281 11 111 95 145 132 228 28 100-45 186-33 211 102-108 142-282 199-439 63-10 109-48 166-18-15-107-77-164-99-263 57 63 96 145 116 246 143 47 145 244 166 422 199 127 160 669-66 667 91-81 171-153 182-281 11-130-84-266-116-334-43-91-18-203-50-299-13-39-85-157-99-88 23 40-43 66 0 70 4-19 27-42 33-18-7 90-150 54-149-18 39-15 77 87 83 0 0-23 0-47 0-70-33-35-95-11-132 0-72 152-114 346-248 492-78 85-193 120-199 246-5 102 98 265 182 316 149 91 351 33 513 18-291 154-741 16-712-386-78 27-146 144-265 123-97-17-109-158-215-158 0-6 0-12 0-18z"/><path d="m11901 6749c62 18 88 75 102 143-48 3-49-44-51-89-69-5 26 122-51 71 0 12 0 24 0 36 17 50 72-5 102 0-11 67-106 65-136 18-15-88 56-84 34-179z"/><path d="m11748 6481c29-72 201-109 239-18-113-56-208 22-290 54-81-84-230-22-273 0 18-82 180-91 256-54-23-54-17-137-17-214-345 58-531 136-562 429-69 634 813 791 1090 393 245-351 104-958-460-840 11 78-22 202 17 250zm-358-500c62 72 130 138 221 179 16-60-52-122 0-161 14 74 23 154 51 214 25-123 67-227 51-393-80-12-81-106-136-143-27 138-182 142-187 304zm204-375c69 0 24 47 34 71 31 79 120 106 119 214 32-13 12-53 51-18 43 117-90 171-68 322 192 13 421 29 511-161-68-77-172-117-256-179-105 33-137 142-187 232 48 49 77-73 153-54-57 54-114 106-187 143 28-147 72-318 187-340 129-24 214 123 324 179-47 94-109 172-222 197 521 257 260 1137-375 1108-425-20-720-404-579-786 75-203 267-253 528-322-86-82-234-101-256-214-33-178 174-235 221-393z"/><path d="m18704 15838c-11 0-22 0-33 0 22 46 15 114-33 72-5 29 16 31 17 54 51 13 60-18 99-18-13 47-53 63-116 54-69-94 29-112 17-235 53 26 82 79 83 163-36-3-36-46-33-90z"/><path d="m18389 15187c29-125 69-238 66-398-55-60-109-123-149-199-21 151-211 183-199 325 8 98 174 174 232 217 13-63-50-136 0-181 13 85 39 201 50 235zm-50 36c-126 53-243 51-331 108-64 42-153 138-182 217-256 691 732 1057 1093 614 255-313 206-1100-447-958-44 81 9 172-17 253 52 12 194-118 282-18-83-8-201-5-282 72-79-27-273-88-298 36-66-112 168-136 248-90-28-90 6-149-17-217-9-28-38 0-50-18-9-14 12-41 17-36-98-106-271-149-282-271-16-187 221-208 248-398 55 0 17 102 50 127 72 48 107 170 166 181 32 128-94 184-83 343 211 15 468 21 547-181-156-193-398-261-464 72 39 30 84-88 166-72-68 39-136 159-199 145 31-159 78-341 199-361 133-23 227 148 348 199-69 81-112 191-232 217 34 41 96 52 132 90 352 420 39 1139-530 1120-435-14-798-427-613-885 76-187 278-290 530-289z"/><path d="m18127 4405c86 8 151-7 152-89-1-23-22-25-17-53-25-27-86-16-135-18 0 53 0 107 0 160zm-34-124c-20-102-161-90-169 53 66 118 188 47 169-53zm-236 18c63-22 84-123 51-195-182-150-270 210-51 195zm152-142c58 31 126 15 152-36 36-222-259-144-152 36zm-438-178c-24 171 174 171 185 36-13-4-20-15-17-36-57-36-134-2-169 0zm236 53c128 18 202-81 169-178-62-26-138 15-202-36-47 72 7 163 34 213zm202-231c26 44 58 81 118 89 4-14 14-21 34-18 84-146-148-256-152-71zm-270-18c-22-122-246-158-202 89 68 116 221 13 202-89zm438-89c37 20 69 46 135 36 4-14 0-35 17-36 2-67-33-96-84-107-11 48-48 68-67 107zm-185-18c7-167-255-227-219 71 89 114 215 20 219-71zm-489 36c30-16 49-43 84-53-5-60-27-102-17-178-164-96-235 217-67 231zm202-71c41-34 71-79 84-142-123-141-263 97-84 142zm270-107c21 131 262 156 219-53-75-73-191-54-219 53zm-219-231c-12 90 30 122 51 178 93 3 96 18 169 0 63-159-113-304-219-178zm-101-107c-170-58-161 182-84 231 65 10 82-32 152-18-21-72-10-179-67-213zm371 213c118-51 179 41 253 89 43-8 77-25 101-53-108 8-243-34-185-142-154 8-195-103-253-195-76 137 111 124 84 302zm-287-178c50-19 112-24 152-53-90-12-125-82-185-124-8 79 12 129 34 178zm-34-249c65 39 92 116 169 142 31-27 40-77 67-107 57 136 144 239 320 249 13 55-46 34-34 89 49 43 109 74 202 71-15 73-84 89-169 89 81 52 163 173 67 267-28 0-56 0-84 0-24 64-31 145-118 142 64 57 113 178 34 249 41 52 134 49 152 124 13 108-62 124-118 160-92-100-268 59-303-124-119 53-221-31-219-160-41-22-90-36-118-71-4-33-43-118 0-142-31-51-83-79-67-178-72-60-144-120-118-284 50-19 50-90 135-71-66-135 18-342 169-249-5-82 0-154 34-195z"/><path d="m12547 2192c-87-75-115-212-221-267-22 43-75 53-68 125 101 31 216 142 289 143zm221-766c57 54 52-66 0 0zm102-214c-21-59 88-126 0-143 20 58-52 110 0 143zm17-160c-24-76-13-188-68-232-7 108 29 172 68 232zm-136 339c-12-64-84-81-136-89-420-64-718 354-578 766 66-69 12-116 34-178-5 41 4 67 34 71 28-77 91-119 170-143-105 107-231 197-272 339-116 400 240 842 612 730 62-19 208-119 187-160-35 40-94 56-153 71-3-122-60-281-34-374 13 106 58 177 51 303 100 4 150-45 187-107-99-105-167-313-306-321-17-23-17-66-34-89-120-28-189-111-306-143-42 51-91 95-85 196 91 41 269-9 357 36-110 55-241-20-374 0-46 102-14 260 85 267 104-81 194-177 323-232-84 108-228 153-306 267 19 75 42 146 136 143 89-96 97-278 204-356-39 126-107 221-136 356 68 51 142-6 204 36-147 63-456 24-442-196-222-47-76-298-85-445 33-48 66-97 136-107-11-128 116-133 102-214 130 190 256 385 391 570 409-74 473-858 102-1033-12 44 75 73 17 107-87 8-208-43-153-125-7 39 51 98 68 53zm442-143c-28 24-108-6-102 53-79-18-132-63-187-107-35 11-11 83-51 89 376 256 336 990-85 1140 36 81 101 131 153 196-64 173-236 337-510 303-310-38-545-471-408-766-227-536 249-1062 782-855 143-134-68-408 51-499 61 31 43 145 68 214 40 35 68-95 136-89 90-5 95 79 170 89-37 98-254 8-255 143-45-78 81-128 187-107-39-181-223-16-238 89 41 91 136 127 255 89 46-78 49-185 119-232 9 52-67 167-85 249z"/><path d="m12829 11600c29 83 22 232-17 295 137 287 676 168 580-203-19-73-96-112-182-147-26 26-13 96-66 92-22 0-44 0-66 0-66-48 26-70-17-129-115-11-174 39-232 92zm-679 92c5 413 646 412 662 55 7-146-61-240-215-276-30 34-6 128-83 111-71-1-60-93-83-147-190-12-283 96-282 258zm1027-184c-16-46 59-111-17-111 10 32-20 108 17 111zm-83 110c116 42 33-264 33-258 28 123-52 203-33 258zm17-792c3-28-6-68 17-74 11 59-45 205 0 184 3-28-6-68 17-74 7 63-7 103-17 147 0 49 0 98 0 147 31-57 6-177 50-221-1-103-21-186-66-239 14 48-50 101 0 129zm-17-110c5-25-10-72-17-37-5 25 10 72 17 37zm0-350c-89-6-120 51-182 74 1 93-28 153-17 258 118-53 169-181 199-331zm-182 460c59 33 103-88 149-129-15-32-6-92-33-110-32 88-118 114-116 239zm149 663c87-45 51-323 33-424-68 80-207 351-33 424zm50-442c-5-105-32-186-33-295-150 42-252 338-116 479 39-73 87-137 149-184zm-232-258c-167 152-262 384-315 663 129-15 180 57 248 111 39-43 86-77 166-74-44-218-126-462-99-700zm-17-313c-103 15-162 77-215 147 4 77 11 238-17 331 201-11 293-237 232-479zm182-166c-120-97-410-35-513 55 31 27 110 1 133 37-180-16-294 42-315 203 162-47 391-19 464-166-15-16-115-29-66-55 95 44 262 10 298-74zm-464 295c-234-45-368 119-348 295 2-15 55-56 50-18-69 22-114 167-66 258 17-25 27-56 50-74 3 46-26 57-33 92 76-14 123-59 149-129 18 17 5 68 50 55 179-16 206-201 199-424-61-23-89 84-116 37 28-24 65-38 66-92zm99 405c6-20 20-44 0-18-45 60-82 172-116 276-30 90-114 241-33 276 15-158 73-387 149-534zm547 0c-33 13 4 103-33 111 2-46 3-89-33-92-10 115 13 195 17 295-4 58 37-123 50-166-14 120 31 175 50 258-31-2-11-61-50-55-23 36-16 105-33 147 40-8 36 34 83 18 9-27-19-95 17-92 2 29-2 64 33 55 105-159 66-425-99-479zm-116-571c-80 138 100 239 166 331-26-27-65-39-99-55-13 260 135 341 248 460 72-198-53-316-132-405 45 25 112 121 149 92-74-181-169-340-331-424zm215 1087c11 80 86 88 99 166 86 439-482 518-613 239-162 180-511 161-646-37-82-120-52-352 50-460 65-26 189-64 265-18 87-100 89-294 166-405-100 42-281 154-447 184-73-95 23-214-17-331 128-348 336-687 795-626 50 7 96 22 149 55 52 9 58-33 116-18-25 58-110 50-116 129 162 120 341 309 348 589 5 193-90 369-149 534z"/><path d="m12465 10735c19 47-83 116-66 221-15-8-30-16-33-37-42 6-96 163-83 111 13-74 81-158 83-166 2-10-28-26-33-18 41-61 87-32 133-111z"/><path d="m12067 3858c111 5 210 108 169 216-113-4-191-128-169-216z"/><path d="m11830 4020c124-8 152 149 119 252-112-7-117-127-119-252z"/><path d="m12287 4056c108 17 173 80 169 216-131 7-162-92-169-216z"/><path d="m11610 4181c78 14 104 241 17 270-112-15-63-218-17-270z"/><path d="m12135 4271c119-1 223 146 152 234-97-29-144-111-152-234z"/><path d="m12017 4397c106 14 137 106 135 234-133 24-163-145-135-234z"/><path d="m11475 4523c76 65 29 272-68 270-72-89 8-214 68-270z"/><path d="m11864 4523c122-14 168 177 102 252-96-18-107-126-102-252z"/><path d="m11661 4559c97-2 122 239 34 270-111-15-59-198-34-270z"/><path d="m11424 5134c70-2 3-12 0-36-167-86-258-254-373-396 19 255 199 340 373 431zm389-180c495-81 990-890 593-1492-367 320-766 587-1168 845-53 34-116 71-152 126 135 299 339 585 728 521zm-626-216c93 188 278 419 559 431 452 20 925-535 931-1079 3-280-103-472-152-683 88 20 146 211 169 306 35 141 53 362 34 557-42 433-428 870-813 935-250 42-708 2-863-198-87-112-147-399-68-575 37-82 233-168 356-252 389-264 738-545 1084-827 461 681 23 1577-660 1654-263 30-420-116-576-252 0-6 0-12 0-18z"/><path d="m19108 9066c111-3 181 92 154 178-108 0-143-76-154-178z"/><path d="m18920 9190c85 18 112 97 103 213-124 22-117-145-103-213z"/><path d="m19313 9225c84 12 168 103 120 195-83-13-157-114-120-195z"/><path d="m18698 9350c110-20 126 240 0 213-39-53-7-152 0-213z"/><path d="m19193 9403c65 32 167 104 120 195-98 2-161-110-120-195z"/><path d="m19073 9509c73 24 147 124 103 213-100 4-136-136-103-213z"/><path d="m18954 9616c80 11 121 139 85 213-103 13-121-139-85-213z"/><path d="m18629 9633c21 70 17 217-85 213-41-80-4-212 85-213z"/><path d="m18766 9669c17 0 34 0 51 0 18 50 33 166 0 213-118 12-89-155-51-213z"/><path d="m18561 10113c-146-74-223-218-325-337 22 190 180 333 325 337zm359-124c440-97 820-814 478-1260-353 302-739 569-1145 816 138 246 323 520 666 444zm-547-160c345 715 1257 131 1264-568 2-215-97-406-120-586 97 94 155 309 171 497 41 485-272 915-632 1012-265 71-703 44-837-177-55-91-94-343-51-444 32-76 223-163 325-231 341-228 629-479 957-692 59 199 141 371 137 568-12 617-752 1103-1213 639 0-6 0-12 0-18z"/><path d="m11899 8969c43 15 54 63 86 90-46 59-105-20-86-90z"/><path d="m12311 9023c0-18 0-36 0-54 59-8 52 54 86 72 3 15-7 17-17 18-59-22 2-26-69-36z"/><path d="m12637 8969c29 23 67 37 69 90-48-3-73-31-69-90z"/><path d="m11916 9293c-27 82-80-7-103-36 74-38 40 51 103 36z"/><path d="m11693 7799c62 132 139 250 206 378-24-163-52-467-206-378zm652 720c20 3 39 32 51 0-20-3-39-32-51 0zm-206-216c5-55 133-91 223-108-67-108-283-100-429-72-26 76 89 3 86 54-43-3-83-3-86 36 47 59 151 153 154 198-91-31-112-135-189-180-153 31-177 198-240 324-12-163 88-207 137-306-99 11-186 128-240 126 62-97 216-97 274-198-137 30-401 179-377 378 31-28 98-112 120-90-3 141 56 217 137 270 5-175 110-245 206-324 60 30 144 87 240 90 48 1 147-4 172-54-62-45-194-77-189-144zm292-90c-49 15-106 21-154 36 18 47 90 38 103 90-56 63-104-34-120-72-15 14-39 19-69 18 37 129 192 135 223 270-40 40-77-25-103-54-56 19-140 9-189 36 17 18 34 36 51 54-16 70-83-4-86-54-91-1-121-65-189-90-51 26 23 70 0 126-36-10-36-28-17-54-84 44-146 111-137 252-108-43-192-110-206-252-40 6-32 63-86 54-22 287 54 472 154 630-194-110-170-435-206-666 36-76 86-152 86-216 115-54 209-129 326-180-27-170-151-238-189-396 55-8 93-35 154-36 74 102 113 241 137 396 166-27 275-60 446 18 18 8 40 55 69 72 76 46 190 92 240 162 135 187 107 428 120 720 16 346-10 613-343 576-212-203-597-226-806-432 107 140 374 111 497 234 183 10 250 191 412 180 265-17 206-363 189-684-7-126 13-264 0-342-37-219-220-331-309-396z"/><path d="m12637 8843c-71 9-82-46-86-108 52 11 88 40 86 108z"/><path d="m12259 8753c55 7 130 52 86 108-59-4-75-54-86-108z"/><path d="m12071 8879c68-6 93 35 86 108-34-30-80-48-86-108z"/><path d="m12517 9203c17 0 13 22 17 36 48-71-67-12-51-108 57 12 93 46 86 126-37 3-55-15-51-54z"/><path d="m12517 8393c54 3 82 33 86 90-61 4-90-26-86-90z"/><path d="m11556 8753c-55-30-44-60-34-126 59-6 63 94 34 126z"/><path d="m11916 8717c52-11 97 76 51 108-52 1-43-63-51-108z"/><path d="m11659 8933c74 13 100 71 51 126-44-14-60-57-51-126z"/><path d="m12105 9113c40 18 115 54 69 108-57-1-66-51-69-108z"/><path d="m12362 9383c17 0 34 0 51 0 14 34 29 66 34 108-78 16-69-59-86-108z"/><path d="m12585 9419c68-6 93 35 86 108-53-11-84-44-86-108z"/><path d="m18760 11684c33-5 33 24 50 35 13-45 24-81-17-105 0 35-45 22-33 70zm33-158c61 27 55 165 33 228-28 0-55 0-83 0-56-103 55-126 50-228z"/><path d="m18163 11473c-30 41-7 115-50 158 76 157 325 111 364-53-63-25-121 46-149 0 42-31 131-13 166-53-71-120-240-178-331-53zm282-246c-11 87 66 189 182 211 17-72-51-144 0-193 47 21-19 160 50 158 121-138 26-288-66-386-4 103-153 110-166 211zm-431 369c146-3 114-195 232-228-31-2-55-12-66-35 189-2 291 89 348 228-20 2-39 5-33 35 30 2 94-110 149-141-52 24-100-44-116 0 21 7 34 23 33 53-80-91-158-184-282-228 110-34 146 102 199 70-21-42-73-52-66-123 53-113 168-161 215-281 11 111 95 145 132 228 28 100-45 186-33 211 102-108 142-282 199-439 63-10 109-48 166-18-15-107-77-164-99-263 57 63 96 145 116 246 143 47 145 244 166 422 199 127 160 669-66 667 91-81 171-153 182-281 11-130-84-266-116-334-43-91-18-203-50-299-13-39-85-157-99-88 23 40-43 66 0 70 4-19 27-42 33-18-7 90-150 54-149-18 39-15 77 87 83 0 0-23 0-47 0-70-33-35-95-11-132 0-72 152-114 346-248 492-78 85-193 120-199 246-5 102 98 265 182 316 149 91 351 33 513 18-291 154-741 16-712-386-78 27-146 144-265 123-97-17-109-158-215-158 0-6 0-12 0-18z"/><path d="m18932 13941c86 8 151-7 152-89-1-23-22-25-17-53-25-27-86-16-135-18 0 53 0 107 0 160zm-34-124c-20-102-161-90-169 53 66 118 188 47 169-53zm-236 18c63-22 84-123 51-195-182-150-270 210-51 195zm152-142c58 31 126 15 152-36 36-222-259-144-152 36zm-438-178c-24 171 174 171 185 36-13-4-20-15-17-36-57-36-134-2-169 0zm236 53c128 18 202-81 169-178-62-26-138 15-202-36-47 72 7 163 34 213zm202-231c26 44 58 81 118 89 4-14 14-21 34-18 84-146-148-256-152-71zm-270-18c-22-122-246-158-202 89 68 116 221 13 202-89zm438-89c37 20 69 46 135 36 4-14 0-35 17-36 2-67-33-96-84-107-11 48-48 68-67 107zm-185-18c7-167-255-227-219 71 89 114 215 20 219-71zm-489 36c30-16 49-43 84-53-5-60-27-102-17-178-164-96-235 217-67 231zm202-71c41-34 71-79 84-142-123-141-263 97-84 142zm270-107c21 131 262 156 219-53-75-73-191-54-219 53zm-219-231c-12 90 30 122 51 178 93 3 96 18 169 0 63-159-113-304-219-178zm-101-107c-170-58-161 182-84 231 65 10 82-32 152-18-21-72-10-179-67-213zm371 213c118-51 179 41 253 89 43-8 77-25 101-53-108 8-243-34-185-142-154 8-195-103-253-195-76 137 111 124 84 302zm-287-178c50-19 112-24 152-53-90-12-125-82-185-124-8 79 12 129 34 178zm-34-249c65 39 92 116 169 142 31-27 40-77 67-107 57 136 144 239 320 249 13 55-46 34-34 89 49 43 109 74 202 71-15 73-84 89-169 89 81 52 163 173 67 267-28 0-56 0-84 0-24 64-31 145-118 142 64 57 113 178 34 249 41 52 134 49 152 124 13 108-62 124-118 160-92-100-268 59-303-124-119 53-221-31-219-160-41-22-90-36-118-71-4-33-43-118 0-142-31-51-83-79-67-178-72-60-144-120-118-284 50-19 50-90 135-71-66-135 18-342 169-249-5-82 0-154 34-195z"/><path d="m19296 7512c62 18 88 75 102 143-48 3-49-44-51-89-69-5 26 122-51 71 0 12 0 24 0 36 17 50 72-5 102 0-11 67-106 65-136 18-15-88 56-84 34-179z"/><path d="m19142 7244c29-72 201-109 239-18-113-56-208 22-290 54-81-84-230-22-273 0 18-82 180-91 256-54-23-54-17-137-17-214-345 58-531 136-562 429-69 634 813 791 1090 393 245-351 104-958-460-840 11 78-22 202 17 250zm-358-500c62 72 130 138 221 179 16-60-52-122 0-161 14 74 23 154 51 214 25-123 67-227 51-393-80-12-81-106-136-143-27 138-182 142-187 304zm204-375c69 0 24 47 34 71 31 79 120 106 119 214 32-13 12-53 51-18 43 117-90 171-68 322 192 13 421 29 511-161-68-77-172-117-256-179-105 33-137 142-187 232 48 49 77-73 153-54-57 54-114 106-187 143 28-147 72-318 187-340 129-24 214 123 324 179-47 94-109 172-222 197 521 257 260 1137-375 1108-425-20-720-404-579-786 75-203 267-253 528-322-86-82-234-101-256-214-33-178 174-235 221-393z"/><path d="m16742 2751c62 18 88 75 102 143-48 3-49-44-51-89-69-5 26 122-51 71 0 12 0 24 0 36 17 50 72-5 102 0-11 67-106 65-136 18-15-88 56-84 34-179z"/><path d="m16588 2483c29-72 201-109 239-18-113-56-208 22-290 54-81-84-230-22-273 0 18-82 180-91 256-54-23-54-17-137-17-214-345 58-531 136-562 429-69 634 813 791 1090 393 245-351 104-958-460-840 11 78-22 202 17 250zm-358-500c62 72 130 138 221 179 16-60-52-122 0-161 14 74 23 154 51 214 25-123 67-227 51-393-80-12-81-106-136-143-27 138-182 142-187 304zm204-375c69 0 24 47 34 71 31 79 120 106 119 214 32-13 12-53 51-18 43 117-90 171-68 322 192 13 421 29 511-161-68-77-172-117-256-179-105 33-137 142-187 232 48 49 77-73 153-54-57 54-114 106-187 143 28-147 72-318 187-340 129-24 214 123 324 179-47 94-109 172-222 197 521 257 260 1137-375 1108-425-20-720-404-579-786 75-203 267-253 528-322-86-82-234-101-256-214-33-178 174-235 221-393z"/><path d="m14424 1820c43 15 54 63 86 90-46 59-105-21-86-90z"/><path d="m14836 1874c0-18 0-36 0-54 59-8 52 54 86 72 3 15-7 17-17 18-59-22 2-26-69-36z"/><path d="m15162 1820c29 23 67 37 69 90-48-3-73-31-69-90z"/><path d="m14442 2144c-27 82-80-7-103-36 74-38 40 51 103 36z"/><path d="m14219 650c62 132 139 250 206 378-24-163-52-467-206-378zm652 720c20 3 39 32 51 0-20-3-39-32-51 0zm-206-216c5-55 133-91 223-108-67-108-283-100-429-72-26 76 89 3 86 54-43-3-83-3-86 36 47 59 151 153 154 198-91-31-112-135-189-180-153 31-177 198-240 324-12-163 88-207 137-306-99 11-186 128-240 126 62-97 216-97 274-198-137 30-401 179-377 378 31-28 98-112 120-90-3 141 56 217 137 270 5-175 110-245 206-324 60 30 144 87 240 90 48 1 147-4 172-54-62-45-194-77-189-144zm292-90c-49 15-106 21-154 36 18 47 90 38 103 90-56 63-104-34-120-72-15 14-39 19-69 18 37 129 192 135 223 270-40 40-77-25-103-54-56 19-140 9-189 36 17 18 34 36 51 54-16 70-83-4-86-54-91-1-121-65-189-90-51 26 23 70 0 126-36-10-36-28-17-54-84 44-146 111-137 252-108-43-192-110-206-252-40 6-32 63-86 54-22 287 54 472 154 630-194-110-170-435-206-666 36-76 86-152 86-216 115-54 209-129 326-180-27-170-151-238-189-396 55-8 93-35 154-36 74 102 113 241 137 396 166-27 275-60 446 18 18 8 40 55 69 72 76 46 190 92 240 162 135 187 107 428 120 720 16 346-10 613-343 576-212-203-597-226-806-432 107 140 374 111 497 234 183 10 250 191 412 180 265-17 206-363 189-684-7-126 13-264 0-342-37-219-220-331-309-396z"/><path d="m15162 1694c-71 9-82-46-86-108 52 11 88 40 86 108z"/><path d="m14785 1604c55 7 130 52 86 108-59-4-75-54-86-108z"/><path d="m14596 1730c68-6 93 35 86 108-34-30-80-48-86-108z"/><path d="m15042 2054c17 0 13 22 17 36 48-71-67-12-51-108 57 12 93 46 86 126-37 3-55-15-51-54z"/><path d="m15042 1244c54 3 82 33 86 90-61 4-90-26-86-90z"/><path d="m14081 1604c-55-30-44-60-34-126 59-6 63 94 34 126z"/><path d="m14442 1568c52-11 97 76 51 108-52 1-43-63-51-108z"/><path d="m14184 1784c74 13 100 71 51 126-44-14-60-57-51-126z"/><path d="m14630 1964c40 18 115 54 69 108-57-1-66-51-69-108z"/><path d="m14888 2234c17 0 34 0 51 0 14 34 29 66 34 108-78 16-69-59-86-108z"/><path d="m15111 2270c68-6 93 35 86 108-53-11-84-44-86-108z"/><path d="m13762 15725c-11 0-22 0-33 0 22 46 15 114-33 72-5 29 16 31 17 54 51 13 60-18 99-18-13 47-53 63-116 54-69-94 29-112 17-235 53 26 82 79 83 163-36-3-36-46-33-90z"/><path d="m13447 15074c29-125 69-238 66-398-55-60-109-123-149-199-21 151-211 183-199 325 8 98 174 174 232 217 13-63-50-136 0-181 13 85 39 201 50 235zm-50 36c-126 53-243 51-331 108-64 42-153 138-182 217-256 691 732 1057 1093 614 255-313 206-1100-447-958-44 81 9 172-17 253 52 12 194-118 282-18-83-8-201-5-282 72-79-27-273-88-298 36-66-112 168-136 248-90-28-90 6-149-17-217-9-28-38 0-50-18-9-14 12-41 17-36-98-106-271-149-282-271-16-187 221-208 248-398 55 0 17 102 50 127 72 48 107 170 166 181 32 127-94 184-83 343 211 15 468 21 547-181-156-193-398-261-464 72 39 30 84-88 166-72-68 39-136 159-199 145 31-159 78-341 199-361 133-23 227 148 348 199-69 81-112 191-232 217 34 41 96 52 132 90 352 420 39 1139-530 1120-435-14-798-427-613-885 76-186 278-290 530-289z"/><path d="m13351 13941c86 8 151-7 152-89-1-23-22-25-17-53-24-27-86-16-135-18 0 53 0 107 0 160zm-34-124c-20-102-161-90-169 53 66 118 188 47 169-53zm-236 18c63-22 84-123 51-195-182-150-270 210-51 195zm152-142c58 31 126 15 152-36 36-222-259-144-152 36zm-438-178c-24 171 174 171 185 36-13-4-20-15-17-36-57-36-134-2-169 0zm236 53c128 18 202-81 169-178-62-26-138 15-202-36-47 72 7 163 34 213zm202-231c26 44 58 81 118 89 4-14 14-21 34-18 84-146-148-256-152-71zm-270-18c-22-122-246-158-202 89 68 116 221 13 202-89zm438-89c37 20 69 46 135 36 4-14 0-35 17-36 2-67-33-96-84-107-11 48-48 68-67 107zm-185-18c7-167-255-227-219 71 89 114 215 20 219-71zm-489 36c30-16 49-43 84-53-5-60-27-102-17-178-164-96-235 217-67 231zm202-71c41-34 71-79 84-142-123-141-263 97-84 142zm270-107c21 131 262 156 219-53-75-73-191-54-219 53zm-219-231c-12 90 30 122 51 178 93 3 96 18 169 0 63-159-113-304-219-178zm-101-107c-170-58-161 182-84 231 65 10 82-32 152-18-21-72-10-179-67-213zm371 213c118-51 179 41 253 89 43-8 77-25 101-53-108 8-243-34-185-142-154 8-195-103-253-195-76 137 111 124 84 302zm-287-178c50-19 112-24 152-53-90-12-125-82-185-124-8 79 12 129 34 178zm-34-249c65 39 92 116 169 142 31-27 40-77 67-107 57 136 144 239 320 249 13 55-46 34-34 89 49 43 109 74 202 71-15 73-84 89-169 89 81 52 163 173 67 267-28 0-56 0-84 0-24 64-31 145-118 142 64 57 113 178 34 249 41 52 134 49 152 124 13 108-62 124-118 160-92-100-268 59-303-124-119 53-221-31-219-160-41-22-90-36-118-71-4-33-43-118 0-142-31-51-83-79-67-178-72-60-144-120-118-284 50-19 50-90 135-71-66-135 18-342 169-249-5-82 0-154 34-195z"/></g><text x="10500" y="14850" font-family="&apos;Segoe Print&apos;" stroke-width="35" font-size="882.72" transform="matrix(.75803 0 0 1.16435 6716.21 2472.21)">Texto 1</text><g stroke-width="70"><path d="m16009 21585c3-43-10-72-45-84-3 43 10 72 45 84zm30 12c-89 15-118-67-89-108 13-7 27-15 30 0 52 10 61 55 60 108z"/><path d="m14596 22126c45-12 26 27 30 48 42-14 77-14 119 0 5-64 38-51 15-120-68-6-84 21-134 0 21 49-32 38-30 72zm193-108c10 42 6 69 30 120-55-8-66 19-60 60-76-20-67-16-149 0-10-36-30-64-60-84 5-36 71-23 45-84 98 9 92-6 193-12z"/><path d="m15340 22535c1-39 42-46 30-96-67 1-68 71-30 96zm-15-120c47-10 46 19 74 24-8 62-26 116-89 132-24-44-22-126 15-156z"/><path d="m15012 22655c12 3 17 10 15 24 36-7 108 15 119-12-21-23-110-65-134-12zm179 12c-37 38-152 44-193 12 0-16 0-32 0-48 70-35 159 4 193 36z"/><path d="m15102 22859c65 5 72-38 89-72-48 9-78 33-89 72zm-15 24c-40-64 45-121 134-120-4 73-41 119-134 120z"/><path d="m15786 23400c45-9 136-78 119-156-7-33-62-32-74-84-301-27-276 285-45 240zm372-265c56 83 233 12 208-84-21-3-25-20-45-24-4 77-125 59-164 108zm-30-36c-1-4-68-70-74-72-98-27-201 37-179 156 92 119 289 32 253-84zm-342-168c-58 34-105 75-89 168 32 26 72 46 149 36-6-69 44-93 74-132-78 3-49-81-134-72zm580-24c-56 119 60 204 164 180 147-33 89-249-59-265 7 62-94 36-104 84zm-164 180c80-6 152-116 104-192-24-39-117-30-134-72-143 53-132 276 30 265zm-312-265c-75 84 3 200 149 180-6-57 7-98 30-132-78-1-94-52-178-48zm-744 204c63 20 213 47 268 0 0-116-50-192-74-289-88 77-149 176-193 289zm342-12c125-7 172-77 208-156-91-58-214-91-327-132 43 93 42 222 119 289zm-208-313c-106 46-248 64-372 96-5 120 82 166 179 204 75-84 179-208 193-301zm312 48c12-14 20-32 15-60-42 10-39-17-74-12-22 21 14 69 60 72zm1354-108c-57 2-69 41-134 36 15 62 5 88-15 144 139 104 303-121 149-180zm-595 0c-48-3-62 25-134 24 35 51-8 92 0 156 187 180 388-165 134-180zm298-12c-22 42-80 55-134 72 0 36 0 72 0 108 89 94 321 43 268-120-56-11-78-49-134-60zm-550 216c144-25 116-241-30-228-209 18-136 257 30 228zm-729-144c72-9 117 65 164 36-15-26-77-45-45-72 70 0 147-6 149 48 19 52-42 38-60 60 67 2 78 49 149 48 87-40-17-116 15-216-141 18-289 31-372 96zm550 96c-31-51-8-115 15-156-47-14-83-37-119-60-79 74-50 228 104 216zm-1056-265c-47 51-46 204 15 241 150-23 296-49 402-108-154-32-231-126-417-132zm1785-48c-59-85-135-1-223-24 11 65-17 99-30 144 78 115 314 51 253-120zm223 168c58-48 101-108 74-168-45-105-167-33-283-24 20 36 15 92 15 144 42 34 96 59 193 48zm-759-72c70 162 418-23 238-168-161-56-280 73-238 168zm-59 24c32-58 47-131 59-204-256-181-419 299-59 204zm-521-265c-66 95-114 205-164 313 125-31 260-54 372-96 3-130-79-193-208-216zm-610 132c97 74 227 121 357 168-62-94-55-244-164-301-78-15-186 50-193 132zm268-168c19 137 80 240 134 349 59-100 126-194 149-325-42-51-212-69-283-24zm1428-36c11 65-17 99-30 144 104 76 275 1 238-144-70-60-110-4-208 0zm-1874 505c53 293 532 485 922 301-7-106 53-158 164-168-30-49 66-95 0-96-80-32-118 73-134 132-55 31-91 79-164 96-75-34-103 29-179 36-140 13-251-54-372-84-29-38-68-60-89-108-14-31 0-57-15-84-18-31-64-42-74-84-10-40 7-93 0-144 37-14 18-74 89-60-9-139 127-214 268-192 55-96 304-60 357 12 161-21 277 133 268 253 57-27-14-115 45-156-339-393-1183-189-1086 349zm1726-325c113-6 151-157 74-240-257-77-264 250-74 240zm-1785 325c54 326 600 562 997 337-124 27-197 59-327 60-827 8-834-919-104-974 138-11 266 9 357 36 55 16 95 66 164 60-557-327-1158 46-1086 481zm1369-457c46 137 352 54 238-132-120-83-272 31-238 132zm-193 60c63-5 80-47 164-36-23-85 44-127 15-180-166-108-336 136-178 216zm907-156c166 9 28 191 179 204-24-59 51-75 89-48-24-50-51-127 30-144 131 30 86 171 193 180-20-2 45-30 60-36 53-24 74-43 134-36-103-181-322-269-640-277 6 69-29 105-45 156zm-253-48c69 28 66 75 134 72 106-4 163-148 104-228-131-36-263 26-238 156zm-521-60c32 19 55 43 89 60 28-21 60-40 119-36-4-60 28-89 45-132-121-40-239 21-253 108zm238 0c28 42 94 52 104 108 51-23 108-41 149-72-41-34 30-79 30-120-70-104-296-27-283 84zm-1383-156c-270-20-572 136-610 373-43 272 103 485 431 517-84-350 140-634 521-685-34-121-199-194-342-204zm283 84c57 22 77 74 119 108-24-83 43-157 15-204-22 50-90 64-134 96zm-461-96c10 0 20 0 30 0 17-17 16-29-15-36-1 15-19 17-15 36zm298 12c68 38 219 82 253-12-109-29-194-98-253 12zm1220-156c-19-1-21-15-45-12-10 16-32 22-59 24 14 61 76 83 74 156 81-13 94 37 149 12 12-57-114-98-119-180zm952 168c-4-52 70-40 74-84-103-2 4-53 0-84-86-17-156 27-193 12 6-31 44-36 45-72-114-12-152 37-223 60-1-21 3-37 15-48-118 45-170 143-238 228 40 0 79 0 119 0 6 23 58 10 45 48 342 16 580 116 714 301 11-90-96-190 0-241-30-24-121 1-134-36-15-60 60-48 74-84-17-22-97 6-74-48 8 0 17-10 0-12-29 44-166 154-223 60zm-1101-168c51-11 98-25 119-60-46 15-106 18-119 60zm-1666 265c73-53 170-87 268-120 20-59 17-143-60-156-55 1-1 47-30 48-57-2-98-17-104-60 5-21 52 16 45-36-279-53-330 283-119 325zm1131-301c-16 165-300 172-208 385 218-12 351 45 476 108 11-92 78-138 193-144 3-89 85-115 164-144-40-203-369-321-625-204zm417-36c64 60 253 14 193-84-29 57-177 17-193 84zm-997 216c148-38 207-318-30-313-20 49 27 43 45 60-48 16-155 26-164-24 39 7 54-5 45-36-277 12-166 366 104 313zm1681-241c13 107-34 230-45 289 51-47 90-140 89-228-1-52-19-128-59-156-38 32 10 55 15 96zm-1740-36c2-16 2-87-15-48-2 16-2 87 15 48zm595 72c-8-75-113-185-238-132-11 53 30-10 30 24-3 50-97 75-134 60 1-19 38-9 30-36-106-1-32 142-74 192 153 146 405 62 387-108zm-863 24c58-18 32-102 89-120-8-17 17-62-15-60-20 64-62 111-74 180zm461-108c-26-28-14-85-45-108-6 46 23 125 45 108zm-179-132c4-16-9-47-15-24-4 16 9 47 15 24zm-550 204c63-15 130-15 193 0 7-54 48-82 60-132-68-13-117-66-45-96-150-43-275 96-208 228zm1369-228c10 32 6 75 30 96-2-50 87-90 45-132-10 24-40 32-74 36zm30 168c46 34 169 53 223 12-28-86-58-169-119-229-30 76-78 137-104 216zm417-168c-5-28 2-46 15-60-45 8-128-15-149 12 47 14 79 41 134 48zm-104 156c62-18 105-51 89-132-98-5-156-106-253-72 58 65 55 180 164 204zm-937-12c25-64-45-145-74-204 17 74 22 158 74 204zm-104-180c4-16-9-47-15-24-4 16 9 47 15 24zm684 180c26-68-30-193-89-216-27-11-191-33-164 36 0-12 26-15 30 0-38 33-41 95-119 96-18-39 48-9 30-48-37-26-68 25-74 60 117 14 174 75 193 168 70-27 167-28 193-96zm-788-36c46-1 71 15 104 24-38-82-27-203-74-277-6 87-14 173-30 253zm-149-241c-48 61-81 142-119 216-39 77-98 150-104 216 84-122 188-359 223-433zm788-12c0 12 0 24 0 36 89 4 106 67 178 84 27-30 87-34 104-72-109 2-188-77-283-48zm1681 108c-54-211-268-133-506-156-52-5-100-34-149-36-237-12-383 127-402 265-17 121 31 310 164 397 58 38 127 8 193 48 61-92 97-290 0-373 47-8 116-42 149-24-17 69 23 210 15 277 48-62 99-120 193-144 68 35 136-10 238 0 21 34-46 66 15 60 97-131 114-215 89-313zm-1309-60c102-6 162 21 268 12 15-40 60-56 74-96-102-109-225 59-342 84zm-625-12c27 28 95 131 119 84-88-38-202-204-223-216 5 45 63 89 104 132zm-491-84c-35 37 70-55 30-60-6 23-32 30-30 60zm1056-12c2-30 3-58-30-60-2 30 8 50 30 60zm-967-60c-51 113-243 258-134 385-3-26 53-5 74-12 21-125 62-327 59-373zm788-48c-42 35-105 51-104 120 78 25 154 52 238 72-44-65-47-162-134-192zm1071 60c-24-21-25-123-74-84 55-6 59 173 74 84zm-1517 337c34 12 44-29 59-48 56-71 34-66-30-132-73-77-151-187-193-253 28 159 44 348 164 433zm907-349c8-51-36-104-104-96-81 9-93 176-134 228 80-41 228-64 238-132zm-283 132c0-18 55-49 15-60-3 14-24 13-45 12-7-33-72-105 15-108 48 5 30 64 60 84 3-60 49-114 15-168-262-32-124 174-59 240zm-655 289c-73-123-140-307-164-457-2-9 13-93-15-72-4 115 15 213 59 289 19 97 63 174 119 241zm550-601c-186 44-323 203-342 361 42-2 62-22 104-24 23-86 57-201 149-228 16-5 45 7 59 0 91-43 166-116 253-12 2-34 62-22 104-24 54 17 117 76 89 120 74-7 85 84 149 48-45-201-300-303-565-241zm536 108c27 29 36 108 89 96-100-286-626-336-878-132-89 72-174 195-119 289-2-379 665-518 907-253zm-1904-421c91 183 339 303 655 265-98-182-348-363-655-265zm1398-24c-3-13-16-19-30-24-310 46-512 179-669 349 392 21 607-102 699-325zm982 409c253-84 419-238 506-457 16-1 12-15-15-12-181 134-434 274-491 469zm446-457c3-15 23-25-15-24-198 80-425 201-446 385 121-146 275-267 461-361zm-1860-289c-217 106-368 313-298 613 43 21 64-38 89-60 142-125 294-306 238-541-3-9-13-14-30-12zm-60 445c141-72 327-166 536-144-68 262-307 385-699 385 14 89 108 217 193 289 56-179 233-357 491-385 281-30 522 84 580 289 116-14 213-13 312 12-16-79-87-114-134-168 21-18 72-38 104-12 81-275 308-432 655-493-74 281-265 467-580 553 7 50 29 89 45 132 404-112 570 230 402 469 3 37 53 38 89 48-25 53-89 61 0 96-17 38-92 30-104 72 112 50 118-88 223-84 61-4 8 25 15 48 19 21 71 15 74 48 2 46-87 18-89 60 31 27 122 5 134 48 24 47-39 25-45 48 19 81 57 147 45 253-59 12-45-36-104-24-39-4-49 17-45 48-56-26-85 1-119 24-114-16-99-136-193-168-50 41 21 87 15 132-52 10-57-18-104-12-38 60 32 144-15 204 4 51 61 45 74 84 43 127-106 240-253 168-63 5-80 47-164 36 86 110-33 270-193 216-63 21-84 77-149 96-176-59-171 110-327 60-49 44-36 125-119 156-245 92-350-184-134-265-381 179-935 15-1012-277-458 23-613-531-342-770-144-54-171-276-45-361-77-133 51-310 238-265 116-147 223-300 372-421-263-40-482-115-565-301 194-159 573-8 640 156 15-281 126-483 402-553 84 166-20 361-104 469z"/></g></g><g font-family="&apos;Arial&apos;" stroke-width="7.62" font-size="572.98"><text x="10500" y="14850" transform="matrix(1.10386 0 0 1.16435 3574.79-476.68)">NN 1</text><text x="10500" y="14850" transform="matrix(1.10386 0 0 1.16435 3552.59 146.78)">NN 2</text></g><g font-family="&apos;Segoe Print&apos;" stroke-width="35" font-size="806.01"><text x="10500" y="14850" transform="matrix(.69935 0 0 1.16435 6035.99 7067.28)">Nutrição</text><text x="10500" y="14850" transform="matrix(.69935 0 0 1.16435 8551.71 7070.51)">Texto 2</text></g></g></g></svg>