<svg xmlns="http://www.w3.org/2000/svg" width="744.09" height="1052.36" viewBox="0 0 21000 29700" shape-rendering="geometricPrecision" image-rendering="optimizeQuality" fill-rule="evenodd" clip-rule="evenodd" xmlns:xlink="http://www.w3.org/1999/xlink"><defs><clipPath id="2"><path d="m7132 26176c-1334 682-3868 551-4637-712-767-1258-593-4827-666-6577-182-4382-643-7705-762-11239-132-3924 2407-6519 5442-7249 4282-1031 4028 5008 3434 8112-312 1667-929 3119-1322 4749-725 3007-68 7597-320 10727-129 1082-472 1799-1168 2189z"/></clipPath><clipPath id="3"><path d="m13854 26164c1334 682 3868 551 4637-712 767-1258 593-4827 666-6577 182-4382 643-7705 762-11239 132-3924-2407-6519-5442-7249-4282-1031-4028 5008-3434 8112 312 1667 929 3119 1322 4749 725 3007 68 7597 320 10727 129 1082 472 1799 1168 2189z"/></clipPath></defs><text x="10081" y="23623" fill="#201e1e" font-family="&apos;Arial Black&apos;" stroke="#201e1e" font-weight="900" stroke-width="7.62" font-size="705.56">42</text><circle cx="10533" cy="1326" r="460" fill="none" stroke="#373435" stroke-width="80"/><path fill="none" stroke="#373435" stroke-width="80" d="m10533 515v1621" id="0"/><path fill="none" stroke="#373435" stroke-width="80" d="m9723 1326h1621" id="1"/><g fill="none" stroke="#373435" stroke-width="80"><circle cx="10533" cy="24995" r="460"/><path d="m10533 24184v1621"/><path d="m9723 24995h1621"/></g><rect x="9508" y="21571" width="1347" height="637" rx="318" fill="#fff" stroke="#fff" stroke-width="20"/><g fill="#373435" font-family="&apos;Arial&apos;" font-weight="normal" font-size="423.33"><text x="665" y="27449">DESC 1</text><text x="630" y="28053">DESC 2</text><text x="612" y="28653">DESC 3</text></g><circle cx="10533" cy="1326" r="460" fill="none" stroke="#373435" stroke-width="80"/><use xlink:href="#0"/><use xlink:href="#1"/><g clip-path="url(#2)"><g fill="#201e1e" stroke="#201e1e"><g stroke-linejoin="round" stroke-linecap="round"><g stroke-width="70"><path d="m2173 5321c-33-5-34 25-51 36-13-46-25-84 17-109 0 36 46 23 34 73zm-34-164c-62 28-57 171-34 236 28 0 56 0 85 0 57-107-57-130-51-236z"/><path d="m2783 5103c30 42 7 119 51 164-78 163-332 115-372-55 65-26 123 47 152 0-43-32-134-13-169-55 72-125 246-184 339-55zm-288-255c11 90-68 195-186 218-18-75 52-149 0-200-48 21 19 166-51 164-124-143-26-299 68-400 4 106 157 114 169 218zm440 382c-149-3-117-202-237-236 32-3 57-12 68-36-194-2-298 92-356 236 21 2 40 5 34 36-31 2-96-114-152-146 53 25 102-45 119 0-21 7-35 23-34 55 82-94 162-190 288-236-112-35-149 106-203 73 21-44 74-54 68-127-54-117-172-167-220-291-12 115-98 150-135 236-28 104 46 192 34 218-105-112-145-292-203-455-64-10-111-50-169-18 16-111 79-170 102-273-58 65-98 150-119 255-146 49-149 253-169 437-203 132-164 693 68 691-93-84-175-158-186-291-12-134 86-275 118-346 44-94 18-210 51-309 13-40 87-163 102-91-23 41 44 68 0 73-4-20-28-44-34-18 7 94 153 56 152-18-40-15-79 90-85 0 0-24 0-49 0-73 33-36 97-12 135 0 73 157 116 358 254 509 80 88 197 125 203 255 5 106-100 274-186 327-153 94-359 34-525 18 298 160 757 16 728-400 80 28 149 149 271 127 100-18 111-164 220-164 0-6 0-12 0-18z"/><path d="m9161 6752c-63 19-90 77-105 148 49 3 50-45 52-93 71-5-27 127 52 74 0 12 0 25 0 37-18 52-74-5-105 0 12 69 108 67 139 19 16-91-58-87-35-185z"/><path d="m9318 6474c-30-74-206-112-244-19 115-58 212 23 296 56 82-87 236-23 279 0-18-85-184-94-261-56 23-56 18-142 17-222 353 60 542 141 575 444 70 657-831 819-1115 407-250-363-107-991 470-870-11 81 23 209-17 259zm366-518c-63 75-132 143-226 185-17-62 53-126 0-167-15 77-24 160-52 222-26-127-69-235-52-407 82-12 82-110 139-148 28 143 186 147 192 315zm-209-389c-71 0-25 48-35 74-32 81-122 110-122 222-33-14-12-55-52-19-44 122 92 177 70 333-196 14-430 30-522-167 70-80 176-122 261-185 107 34 140 147 192 241-49 51-79-76-157-56 58 56 117 110 192 148-28-152-74-329-192-352-132-25-219 128-331 185 48 97 111 178 226 204-533 266-266 1178 383 1147 434-21 736-418 592-814-76-210-273-261-540-333 88-85 240-104 261-222 34-184-178-243-226-407z"/><path d="m2207 16163c11 0 23 0 34 0-22 48-15 118 34 75 5 30-16 32-17 56-52 14-62-19-102-19 13 48 54 65 119 56 71-97-29-116-17-243-55 27-84 82-85 168 37-3 36-47 34-94z"/><path d="m2529 15489c-30-129-70-247-68-412 57-62 111-127 152-206 21 156 215 190 203 337-9 102-178 180-237 225-13-65 51-141 0-187-13 88-40 208-51 243zm51 37c128 55 249 53 339 112 66 43 157 143 186 225 262 716-749 1095-1117 636-261-324-211-1139 457-992 45 84-9 178 17 262-53 13-199-122-288-19 85-8 206-6 288 75 80-27 279-91 305 37 67-116-172-141-254-94 28-93-6-154 17-225 9-29 39 0 51-19 9-14-12-43-17-37 100-110 277-154 288-281 16-193-226-215-254-412-56 0-17 106-51 131-74 50-109 176-169 187-33 132 96 191 85 356-216 15-478 21-559-187 160-200 407-270 474 75-40 31-86-91-169-75 69 40 139 165 203 150-32-164-80-353-203-374-136-24-233 153-356 206 71 84 115 197 237 225-35 42-98 53-135 94-360 435-40 1180 542 1160 445-15 816-442 626-917-77-193-284-301-542-299z"/><path d="m2796 4325c-88 8-154-7-155-92 1-24 22-25 17-55 25-28 88-16 138-18 0 55 0 110 0 166zm34-129c20-106 165-93 172 55-68 122-192 49-172-55zm241 18c-64-23-86-127-52-202 186-155 276 217 52 202zm-155-147c-59 32-129 16-155-37-36-230 265-149 155 37zm448-184c25 177-178 178-190 37 13-4 20-15 17-37 58-37 137-3 172 0zm-241 55c-131 18-206-83-172-184 64-27 141 15 207-37 48 74-7 168-34 221zm-207-239c-26 46-59 84-121 92-4-14-14-21-34-18-86-152 152-265 155-74zm276-18c22-127 252-163 207 92-69 120-225 14-207-92zm-448-92c-38 21-70 47-138 37-4-14 0-36-17-37-2-70 34-99 86-110 11 49 49 70 69 110zm190-18c-7-173 260-235 224 74-91 118-220 20-224-74zm500 37c-30-17-50-44-86-55 5-62 27-106 17-184 168-100 240 225 69 239zm-207-74c-42-35-73-82-86-147 126-146 268 100 86 147zm-276-110c-21 136-268 161-224-55 76-76 196-56 224 55zm224-239c12 93-31 126-52 184-95 3-98 19-172 0-65-165 115-315 224-184zm103-110c174-60 165 189 86 239-67 10-84-33-155-18 22-75 10-185 69-221zm-379 221c-121-53-183 43-258 92-44-8-79-26-103-55 110 9 248-35 190-147 157 8 199-106 258-202 78 142-113 128-86 313zm293-184c-51-19-114-25-155-55 92-12 127-85 190-129 8 82-12 134-34 184zm34-258c-66 40-94 120-172 147-31-28-41-79-69-110-58 140-147 248-327 258-13 57 47 35 34 92-50 45-112 77-207 74 15 76 86 92 172 92-83 54-167 179-69 276 29 0 57 0 86 0 24 66 32 150 121 147-65 59-116 184-34 258-41 54-137 50-155 129-13 112 63 129 121 166 94-104 274 61 310-129 121 55 226-32 224-166 41-23 92-37 121-74 4-34 44-122 0-147 31-52 84-82 69-184 74-62 148-125 121-294-51-19-51-93-138-74 68-140-18-354-172-258 5-85 0-159-34-202z"/><path d="m8501 2033c89-78 117-220 226-277 22 44 76 54 70 129-104 32-221 147-296 148zm-226-793c-59 56-53-68 0 0zm-104-221c22-61-90-131 0-148-20 60 53 114 0 148zm-17-166c24-79 14-195 70-240 7 112-30 178-70 240zm139 351c12-67 86-84 139-92 429-67 734 367 591 793-68-72-12-120-35-184 5 42-4 69-35 74-29-80-93-123-174-148 107 111 236 204 278 351 119 414-245 872-626 756-64-19-213-123-191-166 36 42 96 58 156 74 3-126 62-291 35-387-13 109-60 183-52 314-103 4-153-46-191-111 101-109 171-325 313-332 18-24 17-68 35-92 123-30 193-115 313-148 43 53 93 98 87 203-93 43-275-9-365 37 112 57 247-21 383 0 47 105 14 269-87 277-106-84-198-183-330-240 86 112 233 159 313 277-20 78-43 152-139 148-91-100-100-288-209-369 40 130 109 228 139 369-70 53-146-6-209 37 150 65 466 25 452-203 227-49 77-308 87-461-34-50-67-101-139-111 11-132-118-138-104-221-133 197-262 399-400 590-418-77-484-889-104-1070 12 46-77 76-17 111 89 8 213-44 156-129 7 41-52 102-70 55zm-452-148c29 25 111-7 104 55 81-19 135-65 191-111 35 12 11 86 52 92-384 265-344 1025 87 1181-37 84-104 136-156 203 65 179 242 349 522 314 317-40 557-488 417-793 232-555-254-1099-800-886-146-139 70-423-52-517-63 32-44 150-70 221-41 36-69-98-139-92-92-5-97 82-174 92 38 101 259 8 261 148 46-81-83-133-191-111 40-188 228-17 243 92-42 94-139 132-261 92-47-80-50-191-122-240-9 54 68 173 87 258z"/><path d="m8213 11775c-30 86-23 240 17 305-140 297-691 174-593-210 19-76 98-116 186-153 27 27 13 99 68 95 23 0 45 0 68 0 67-50-27-72 17-133 117-12 178 41 237 95zm694 95c-5 428-661 427-677 57-7-151 62-248 220-286 31 36 6 133 85 114 72-1 62-96 85-153 194-12 290 100 288 267zm-1050-191c16-48-60-115 17-114-10 34 20 112-17 114zm85 114c-118 44-34-273-34-267-28 127 53 211 34 267zm-17-820c-3-28 6-70-17-76-11 61 46 212 0 191-3-29 6-70-17-76-7 66 7 107 17 153 0 51 0 102 0 153-32-59-7-183-51-229 1-107 21-192 68-248-14 50 51 105 0 133zm17-114c-5-26 10-74 17-38 5 26-11 74-17 38zm0-362c91-7 122 53 186 76-1 97 29 158 17 267-120-55-173-187-203-343zm186 477c-60 34-105-91-152-133 15-33 6-95 34-114 32 91 120 119 119 248zm-152 686c-89-46-52-335-34-439 69 83 212 363 34 439zm-51-458c5-109 33-192 34-305 153 43 257 350 119 496-40-75-89-142-152-191zm237-267c171 157 268 398 322 686-132-15-184 59-254 114-40-44-87-80-169-76 44-226 129-478 102-725zm17-324c105 15 166 80 220 153-4 80-12 246 17 343-206-11-300-246-237-496zm-186-172c123-101 419-36 525 57-32 28-112 1-135 38 184-17 300 43 322 210-165-49-400-20-474-172 15-17 118-30 68-57-98 46-268 10-305-76zm474 305c239-47 376 123 356 305-2-15-56-58-51-19 71 22 116 173 68 267-17-25-28-58-51-76-3 47 27 59 34 95-77-15-126-62-152-133-18 18-5 70-51 57-183-16-210-208-203-439 62-24 91 87 119 38-29-25-67-39-68-95zm-102 419c-7-21-20-46 0-19 46 62 83 178 119 286 30 93 116 250 34 286-16-163-75-401-152-553zm-559 0c33 13-4 106 34 114-2-47-3-93 34-95 10 120-13 202-17 305 4 60-38-127-51-172 15 125-31 181-51 267 32-2 12-63 51-57 23 38 16 109 34 153-41-8-37 35-85 19-9-28 20-99-17-95-2 30 2 66-34 57-107-164-68-440 102-496zm119-591c81 143-103 247-169 343 26-28 66-40 102-57 13 269-138 353-254 477-74-206 54-327 135-420-46 26-114 125-152 95 76-188 173-352 339-439zm-220 1125c-11 83-88 91-102 172-88 454 493 536 626 248 166 186 523 167 660-38 83-124 54-364-51-477-66-27-193-67-271-19-89-103-91-304-169-420 102 44 287 159 457 191 75-99-23-221 17-343-131-361-344-712-813-648-51 7-98 23-152 57-53 9-60-34-119-19 26 60 112 52 119 133-166 125-348 320-356 610-5 200 92 382 152 553z"/><path d="m8585 10879c-20 48 85 120 68 229 15-8 30-17 34-38 43 6 98 169 85 114-14-77-83-164-85-172-2-10 29-27 34-19-42-63-88-33-135-114z"/><path d="m8991 3758c-114 5-214 112-173 223 115-4 195-133 173-223z"/><path d="m9233 3925c-126-8-155 154-121 261 115-7 120-132 121-261z"/><path d="m8766 3963c-110 18-177 83-173 223 134 7 166-95 173-223z"/><path d="m9458 4093c-80 15-107 250-17 279 114-15 64-225 17-279z"/><path d="m8922 4186c-122-1-228 152-156 242 99-30 147-115 156-242z"/><path d="m9043 4316c-108 14-140 110-138 242 136 24 167-150 138-242z"/><path d="m9597 4447c-78 67-30 282 69 279 73-92-9-221-69-279z"/><path d="m9199 4447c-125-15-172 183-104 261 98-19 109-131 104-261z"/><path d="m9406 4484c-99-2-125 247-35 279 114-16 60-205 35-279z"/><path d="m9649 5080c-72-3-4-12 0-37 171-89 263-263 381-410-20 264-203 352-381 447zm-398-186c-506-84-1012-922-606-1545 375 331 783 608 1194 875 54 35 119 73 156 130-138 310-346 606-744 540zm640-223c-95 195-284 434-571 447-462 20-946-554-952-1117-3-290 105-489 156-707-90 21-149 218-173 316-36 146-54 375-35 577 43 448 437 901 831 968 256 43 724 2 883-205 89-116 150-413 69-596-38-85-238-174-363-261-398-273-754-565-1108-856-472 705-24 1633 675 1713 269 31 429-120 588-261 0-6 0-12 0-19z"/><path d="m1794 9150c-113-3-185 95-157 184 110 0 146-79 157-184z"/><path d="m1986 9279c-87 19-115 100-105 221 127 23 119-151 105-221z"/><path d="m1584 9316c-86 12-172 106-122 202 85-14 161-118 122-202z"/><path d="m2213 9444c-113-21-129 249 0 221 40-55 8-158 0-221z"/><path d="m1707 9500c-66 33-171 108-122 202 100 2 164-114 122-202z"/><path d="m1829 9610c-75 25-151 128-105 220 102 4 139-141 105-220z"/><path d="m1951 9720c-81 12-124 144-87 220 105 13 124-144 87-220z"/><path d="m2283 9739c-22 73-18 225 87 221 42-83 4-219-87-221z"/><path d="m2143 9775c-17 0-35 0-52 0-18 52-33 172 0 221 121 12 90-161 52-221z"/><path d="m2353 10235c149-76 228-226 332-349-23 197-184 345-332 349zm-367-129c-450-101-838-843-489-1305 360 313 756 589 1170 845-141 255-330 538-681 459zm559-165c-353 741-1285 136-1293-588-2-223 99-421 122-606-99 97-159 320-175 515-42 502 278 947 646 1047 271 74 718 46 856-184 56-94 96-355 52-459-32-79-228-168-332-239-349-236-643-496-978-717-60 207-144 384-140 588 12 639 769 1142 1240 662 0-6 0-12 0-18z"/><path d="m9163 9051c-44 15-55 65-88 93 47 61 107-21 88-93z"/><path d="m8742 9107c0-19 0-37 0-56-60-8-53 56-88 75-3 16 7 18 18 19 60-22-2-27 70-37z"/><path d="m8409 9051c-30 24-69 39-70 93 49-3 75-32 70-93z"/><path d="m9146 9386c28 85 82-7 105-37-75-39-41 53-105 37z"/><path d="m9374 7839c-64 137-142 259-210 391 24-168 53-484 210-391zm-666 745c-21 3-40 33-53 0 21-3 40-33 53 0zm210-224c-5-57-136-94-228-112 68-112 289-104 438-75 27 78-91 3-88 56 44-3 85-3 88 37-48 61-155 158-158 205 93-32 114-140 193-186 156 33 181 205 245 335 12-168-90-215-140-317 101 11 190 132 245 130-63-101-221-101-281-205 140 31 410 186 386 391-32-29-100-116-123-93 3 146-58 224-140 280-5-181-112-253-210-336-62 32-148 90-245 93-49 1-150-4-175-56 64-47 199-80 193-149zm-298-93c50 16 108 22 158 37-19 49-92 39-105 93 57 66 106-35 123-75 16 14 40 20 70 19-38 134-196 140-228 280 41 41 79-26 105-56 58 20 144 9 193 37-17 19-35 38-53 56 17 73 85-4 88-56 93-1 124-67 193-93 52 27-23 73 0 130 36-10 37-29 18-56 86 46 149 115 140 261 110-44 197-114 210-261 41 6 33 65 88 56 22 297-55 489-158 652 198-113 174-451 210-690-37-78-88-157-88-224-117-55-214-133-333-186 27-176 154-246 193-410-57-8-95-36-158-37-76 105-116 250-140 410-169-28-281-63-456 19-18 9-41 56-70 75-78 48-194 95-245 168-138 193-109 443-123 745-16 358 11 635 351 596 217-210 610-234 824-447-109 145-382 115-509 242-187 11-255 197-421 186-271-18-211-376-193-708 7-130-13-273 0-354 37-227 225-343 316-410z"/><path d="m8409 8920c73 9 84-47 88-112-53 12-90 41-88 112z"/><path d="m8795 8827c-57 7-133 54-88 112 60-4 76-55 88-112z"/><path d="m8988 8958c-70-6-95 36-88 112 35-31 82-50 88-112z"/><path d="m8532 9293c-17 1-14 23-18 37-49-74 68-12 53-112-58 12-95 48-88 130 38 3 56-15 53-56z"/><path d="m8532 8454c-55 4-84 35-88 93 62 4 92-27 88-93z"/><path d="m9514 8827c56-31 45-62 35-130-61-6-64 97-35 130z"/><path d="m9146 8790c-53-11-99 79-53 112 53 1 44-65 53-112z"/><path d="m9409 9013c-76 14-102 74-53 130 45-14 61-60 53-130z"/><path d="m8953 9200c-41 19-118 56-70 112 58-1 67-53 70-112z"/><path d="m8690 9479c-18 0-35 0-53 0-14 35-29 68-35 112 80 17 71-61 88-112z"/><path d="m8462 9517c-70-6-95 36-88 112 54-11 86-45 88-112z"/><path d="m2150 11862c-33-5-34 25-51 36-13-46-25-84 17-109 0 36 46 23 34 73zm-34-164c-62 28-57 171-34 236 28 0 56 0 85 0 57-107-57-130-51-236z"/><path d="m2759 11643c30 42 7 119 51 164-78 163-332 115-372-55 65-26 123 47 152 0-43-32-134-13-169-55 72-125 246-184 339-55zm-288-255c11 90-68 195-186 218-18-75 52-149 0-200-48 21 19 166-51 164-124-143-26-299 68-400 4 106 157 114 169 218zm440 382c-149-3-117-202-237-236 32-3 57-12 68-36-194-2-298 92-355 236 21 2 40 5 34 36-31 2-96-114-152-146 54 25 102-45 119 0-21 7-35 23-34 55 82-94 162-190 288-236-112-35-149 106-203 73 21-44 74-54 68-127-54-117-172-167-220-291-12 115-98 150-135 236-28 104 46 192 34 218-105-112-145-292-203-455-64-10-111-50-169-18 16-111 79-170 102-273-58 65-98 150-119 255-146 49-149 253-169 437-203 132-164 693 68 691-93-84-175-158-186-291-12-134 86-275 118-346 44-94 18-210 51-309 13-40 87-163 102-91-23 41 44 68 0 73-4-20-28-44-34-18 7 94 153 56 152-18-40-15-79 90-85 0 0-24 0-49 0-73 33-36 97-12 135 0 73 157 116 358 254 509 80 88 197 125 203 255 5 106-100 274-186 327-153 94-359 34-525 18 298 160 757 16 728-400 80 28 149 149 271 127 100-18 111-164 220-164 0-6 0-12 0-18z"/><path d="m1973 14199c-88 8-154-7-155-92 1-24 22-25 17-55 25-28 88-16 138-18 0 55 0 110 0 166zm34-129c20-106 165-93 172 55-68 122-192 49-172-55zm241 18c-64-23-86-127-52-202 186-155 276 217 52 202zm-155-147c-59 32-129 16-155-37-36-230 265-149 155 37zm448-184c25 177-178 178-190 37 13-4 20-15 17-37 58-37 137-3 172 0zm-241 55c-131 18-206-83-172-184 64-27 141 15 207-37 48 74-7 168-34 221zm-207-239c-26 46-59 84-121 92-4-14-14-21-34-18-86-152 152-265 155-74zm276-18c22-127 252-163 207 92-69 120-225 14-207-92zm-448-92c-38 21-70 47-138 37-4-14 0-36-17-37-2-70 34-99 86-110 11 49 49 70 69 110zm190-18c-7-173 260-235 224 74-91 118-220 20-224-74zm500 37c-30-17-50-44-86-55 5-62 27-106 17-184 168-100 240 225 69 239zm-207-74c-42-35-73-82-86-147 126-146 268 100 86 147zm-276-110c-21 136-268 161-224-55 76-76 196-56 224 55zm224-239c12 93-31 126-52 184-95 3-98 19-172 0-65-165 115-315 224-184zm103-110c174-60 165 189 86 239-67 10-84-33-155-18 22-75 10-185 69-221zm-379 221c-121-53-183 43-258 92-44-8-79-26-103-55 110 9 248-35 190-147 157 8 199-106 258-202 78 142-113 128-86 313zm293-184c-51-19-114-25-155-55 92-12 127-85 190-129 8 82-12 134-34 184zm34-258c-66 40-94 120-172 147-31-28-41-79-69-110-58 140-147 248-327 258-13 57 47 35 34 92-50 45-112 77-207 74 15 76 86 92 172 92-83 54-167 179-69 276 29 0 57 0 86 0 24 66 32 150 121 147-65 59-116 184-34 258-41 54-137 50-155 129-13 112 63 129 121 166 94-104 274 61 310-129 121 55 226-32 224-166 41-23 92-37 121-74 4-34 44-122 0-147 31-52 84-82 69-184 74-62 148-125 121-294-51-19-51-93-138-74 68-140-18-354-172-258 5-85 0-159-34-202z"/><path d="m1602 7542c-63 19-90 77-104 148 49 3 50-45 52-93 71-5-27 127 52 74 0 12 0 25 0 37-18 52-74-5-105 0 12 69 108 67 139 18 16-91-58-87-35-185z"/><path d="m1759 7264c-30-74-206-112-244-19 115-58 212 23 296 56 82-87 236-23 279 0-18-85-184-94-261-56 23-56 18-142 17-222 353 60 542 141 575 444 70 657-831 819-1115 407-250-363-107-991 470-870-11 81 23 209-17 259zm366-518c-63 75-132 143-226 185-17-62 53-126 0-167-15 77-24 160-52 222-26-127-69-235-52-407 82-12 82-110 139-148 28 143 186 147 192 315zm-209-389c-71 0-25 48-35 74-32 81-122 110-122 222-33-14-12-55-52-18-44 122 92 177 70 333-196 14-430 30-522-167 70-80 176-121 261-185 107 34 140 147 192 241-49 51-79-76-157-56 58 56 117 110 192 148-28-152-74-329-192-352-132-25-219 128-331 185 48 97 111 178 226 204-533 266-266 1178 383 1147 434-21 736-418 592-814-76-210-273-261-540-333 88-85 240-104 261-222 34-184-178-243-226-407z"/><path d="m4213 2612c-63 19-90 77-104 148 49 3 50-45 52-93 71-5-27 127 52 74 0 12 0 25 0 37-18 52-74-5-105 0 12 69 108 67 139 18 16-91-58-87-35-185z"/><path d="m4370 2335c-30-74-206-112-244-19 115-58 212 23 296 56 82-87 236-23 279 0-18-85-184-94-261-56 23-56 18-142 17-222 353 60 542 141 575 444 70 657-831 819-1115 407-250-363-107-991 470-870-11 81 23 209-17 259zm366-518c-63 75-132 143-226 185-17-62 53-126 0-167-15 77-24 160-52 222-26-127-69-235-52-407 82-12 82-110 139-148 28 143 186 147 192 315zm-209-389c-71 0-25 48-35 74-32 81-122 110-122 222-33-14-12-55-52-18-44 122 92 177 70 333-196 14-430 30-522-167 70-80 176-121 261-185 107 34 140 147 192 241-49 51-79-76-157-56 58 56 117 110 192 148-28-152-74-329-192-352-132-25-219 128-331 185 48 97 111 178 226 204-533 266-266 1178 383 1147 434-21 736-418 592-814-76-210-273-261-540-333 88-85 240-104 261-222 34-184-178-243-226-407z"/><path d="m6582 1647c-44 15-55 65-88 93 47 61 107-21 88-93z"/><path d="m6161 1703c0-19 0-37 0-56-60-8-53 56-88 75-3 16 7 18 18 19 60-22-2-27 70-37z"/><path d="m5828 1647c-30 24-69 39-70 93 49-4 75-32 70-93z"/><path d="m6564 1983c28 85 82-7 105-37-75-39-41 53-105 37z"/><path d="m6792 436c-64 137-142 259-210 391 24-168 53-484 210-391zm-666 745c-21 3-40 33-53 0 21-3 40-33 53 0zm210-224c-5-57-136-94-228-112 68-112 289-104 438-75 27 78-91 3-88 56 44-3 85-3 88 37-48 61-155 158-158 205 93-32 114-140 193-186 156 33 181 205 245 335 12-168-90-215-140-317 101 11 190 132 245 130-63-101-221-101-281-205 140 31 410 185 386 391-32-29-100-116-123-93 3 146-58 224-140 280-5-181-112-253-210-336-62 32-148 90-245 93-49 1-150-4-175-56 64-47 199-80 193-149zm-298-93c50 16 108 22 158 37-19 49-92 39-105 93 57 66 106-35 123-75 16 14 40 20 70 19-38 134-196 140-228 280 41 41 79-26 105-56 58 20 144 9 193 37-17 19-35 38-53 56 17 73 85-4 88-56 93-1 124-67 193-93 52 27-23 73 0 130 36-10 37-29 18-56 86 46 149 115 140 261 110-44 197-114 210-261 41 6 33 65 88 56 22 297-55 489-158 652 198-113 174-451 210-690-37-78-88-157-88-224-117-55-214-133-333-186 27-176 154-246 193-410-57-8-95-36-158-37-76 105-116 250-140 410-169-28-281-63-456 19-18 9-41 56-70 75-78 48-194 95-245 168-138 193-109 443-123 745-16 358 11 635 351 596 217-210 610-234 824-447-109 145-382 115-509 242-187 11-255 197-421 186-271-18-211-376-193-708 7-130-13-273 0-354 37-227 225-343 316-410z"/><path d="m5828 1517c73 9 84-47 88-112-53 12-90 41-88 112z"/><path d="m6213 1424c-57 7-133 54-88 112 60-4 76-55 88-112z"/><path d="m6406 1554c-70-6-95 36-88 112 35-31 82-50 88-112z"/><path d="m5950 1890c-17 0-14 23-18 37-49-74 68-12 53-112-58 12-95 48-88 130 38 3 56-15 53-56z"/><path d="m5950 1051c-55 4-84 35-88 93 62 4 92-27 88-93z"/><path d="m6932 1424c56-31 45-62 35-130-61-6-64 97-35 130z"/><path d="m6564 1387c-53-11-99 79-53 112 53 1 44-65 53-112z"/><path d="m6827 1610c-76 14-102 74-53 130 45-14 61-60 53-130z"/><path d="m6371 1797c-41 19-118 56-70 112 58-1 67-53 70-112z"/><path d="m6108 2076c-18 0-35 0-53 0-14 35-29 68-35 112 80 17 71-61 88-112z"/><path d="m5880 2113c-70-6-95 36-88 112 54-11 86-45 88-112z"/><path d="m7259 16046c11 0 23 0 34 0-22 48-15 118 34 75 5 30-16 32-17 56-52 14-62-19-102-19 13 48 54 65 119 56 71-97-29-116-17-243-55 27-84 82-85 168 37-3 36-47 34-94z"/><path d="m7580 15372c-30-129-70-247-68-412 57-62 111-127 152-206 21 156 215 190 203 337-9 102-178 180-237 225-13-65 51-141 0-187-13 88-40 208-51 243zm51 37c128 55 249 53 339 112 66 43 157 143 186 225 262 716-749 1095-1117 636-261-324-211-1139 457-992 45 84-9 178 17 262-53 13-199-122-288-19 85-8 206-6 288 75 80-27 279-91 305 37 67-116-172-141-254-94 28-93-6-154 17-225 9-29 39 0 51-19 9-14-12-43-17-37 100-110 277-154 288-281 16-193-226-215-254-412-56 0-17 106-51 131-74 50-109 176-169 187-33 132 96 191 85 356-216 15-478 21-559-187 160-200 407-270 474 75-40 31-86-91-169-75 69 40 139 165 203 150-32-164-80-353-203-374-136-24-233 153-356 206 71 84 115 197 237 225-35 42-98 53-135 94-360 435-40 1180 542 1160 445-15 816-442 626-917-77-193-284-301-542-299z"/><path d="m7678 14199c-88 8-154-7-155-92 1-24 22-25 17-55 25-28 88-16 138-18 0 55 0 110 0 166zm34-129c20-106 165-93 172 55-68 122-192 49-172-55zm241 18c-64-23-86-127-52-202 186-155 276 217 52 202zm-155-147c-59 32-129 16-155-37-36-230 265-149 155 37zm448-184c25 177-178 178-190 37 13-4 20-15 17-37 58-37 137-3 172 0zm-241 55c-131 18-206-83-172-184 64-27 141 15 207-37 48 74-7 168-34 221zm-207-239c-26 46-59 84-121 92-4-14-14-21-34-18-86-152 152-265 155-74zm276-18c22-127 252-163 207 92-69 120-225 14-207-92zm-448-92c-38 21-70 47-138 37-4-14 0-36-17-37-2-70 34-99 86-110 11 49 49 70 69 110zm190-18c-7-173 260-235 224 74-91 118-220 20-224-74zm500 37c-30-17-50-44-86-55 5-62 27-106 17-184 168-100 240 225 69 239zm-207-74c-42-35-73-82-86-147 126-146 268 100 86 147zm-276-110c-21 136-268 161-224-55 76-76 196-56 224 55zm224-239c12 93-31 126-52 184-95 3-98 19-172 0-65-165 115-315 224-184zm103-110c174-60 165 189 86 239-67 10-84-33-155-18 22-75 10-185 69-221zm-379 221c-121-53-183 43-258 92-44-8-79-26-103-55 110 9 248-35 190-147 157 8 199-106 258-202 78 142-113 128-86 313zm293-184c-51-19-114-25-155-55 92-12 127-85 190-129 8 82-12 134-34 184zm34-258c-66 40-94 120-172 147-31-28-41-79-69-110-58 140-147 248-327 258-13 57 47 35 34 92-50 45-112 77-207 74 15 76 86 92 172 92-83 54-167 179-69 276 29 0 57 0 86 0 24 66 32 150 121 147-65 59-116 184-34 258-41 54-137 50-155 129-13 112 63 129 121 166 94-104 274 61 310-129 121 55 226-32 224-166 41-23 92-37 121-74 4-34 44-122 0-147 31-52 84-82 69-184 74-62 148-125 121-294-51-19-51-93-138-74 68-140-18-354-172-258 5-85 0-159-34-202z"/><path d="m5251 22137c3-44-10-75-46-87-3 44 10 75 46 87zm30 12c-91 16-121-69-91-112 14-8 27-15 30 0 53 10 62 57 61 112z"/><path d="m3806 22698c46-13 27 28 30 50 43-14 79-14 122 0 5-66 39-53 15-124-69-6-86 22-137 0 21 50-33 39-30 75zm198-112c10 44 6 72 30 125-56-9-67 20-61 62-78-21-69-17-152 0-10-37-30-66-61-87 5-37 73-23 46-87 100 9 94-6 198-12z"/><path d="m4567 23121c1-41 43-48 30-100-68 1-70 73-30 100zm-15-125c49-11 47 20 76 25-8 64-26 120-91 137-24-46-22-130 15-162z"/><path d="m4232 23245c12 3 18 10 15 25 36-8 110 16 122-12-21-23-113-67-137-12zm183 12c-38 39-156 45-198 12 0-17 0-33 0-50 72-36 163 4 198 37z"/><path d="m4323 23457c67 5 73-40 91-75-49 10-80 34-91 75zm-15 25c-41-67 46-125 137-125-4 76-42 123-137 125z"/><path d="m5023 24017c46-9 139-80 122-162-7-34-64-33-76-87-308-28-282 296-46 249zm380-274c57 86 239 12 213-87-22-3-26-21-46-25-4 80-128 62-167 112zm-30-37c-1-4-69-73-76-75-101-28-205 39-183 162 94 123 295 33 259-87zm-350-174c-59 35-108 78-91 174 33 27 74 47 152 37-6-71 45-96 76-137-79 3-50-84-137-75zm593-25c-58 124 62 211 167 187 151-34 91-257-61-274 8 64-97 37-106 87zm-167 187c82-6 155-120 106-199-25-40-119-31-137-75-146 55-135 285 30 274zm-319-274c-77 87 3 207 152 187-6-59 7-102 30-137-80-1-96-54-182-50zm-760 212c65 21 218 49 274 0 0-120-51-199-76-299-90 80-153 182-198 299zm350-12c128-7 176-80 213-162-93-61-219-95-335-137 44 97 43 230 122 299zm-213-324c-109 48-253 67-380 100-5 124 84 172 183 212 77-87 183-215 198-311zm319 50c13-14 20-33 15-62-43 10-39-18-76-12-22 22 14 71 61 75zm1384-112c-59 2-70 42-137 37 15 64 6 91-15 149 142 108 310-125 152-187zm-608 0c-49-3-63 26-137 25 35 53-9 95 0 162 191 186 396-171 137-187zm304-12c-22 44-82 57-137 75 0 37 0 75 0 112 91 97 328 44 274-125-57-11-80-51-137-62zm-563 224c147-26 119-249-30-237-214 18-139 267 30 237zm-745-149c73-10 119 68 167 37-15-26-78-46-46-75 71 0 150-7 152 50 20 54-43 39-61 62 69 2 80 51 152 50 89-42-17-120 15-224-144 19-295 32-380 100zm563 100c-32-52-8-119 15-162-48-15-84-39-122-62-80 77-51 236 106 224zm-1080-274c-48 53-47 212 15 249 154-23 302-51 411-112-158-33-236-131-426-137zm1825-50c-61-88-138-1-228-25 11 67-17 102-30 149 80 119 321 52 259-125zm228 174c59-49 103-111 76-174-46-108-171-34-289-25 20 37 15 95 15 149 43 35 98 61 198 50zm-776-75c72 168 427-24 243-174-165-58-286 75-243 174zm-61 25c33-60 48-135 61-212-262-188-428 309-61 212zm-532-274c-68 98-116 212-167 324 128-32 266-56 380-100 3-135-80-200-213-224zm-624 137c99 77 232 125 365 174-63-97-57-253-167-311-80-16-190 52-198 137zm274-174c19 142 82 248 137 361 61-104 129-201 152-336-43-53-216-71-289-25zm1460-37c11 67-17 102-30 149 106 79 281 1 243-149-72-63-112-4-213 0zm-1916 523c54 304 544 502 943 311-7-110 54-163 167-174-31-51 67-98 0-100-81-33-120 76-137 137-57 33-93 82-167 100-77-35-106 30-183 37-143 13-257-56-380-87-30-40-70-62-91-112-14-32 0-59-15-87-18-33-65-44-76-87-10-42 7-97 0-149 38-15 18-76 91-62-9-143 130-221 274-199 57-100 311-63 365 12 164-22 283 137 274 261 58-28-14-119 46-162-346-407-1210-196-1110 361zm1764-336c116-6 154-163 76-249-263-80-270 259-76 249zm-1825 336c55 338 613 582 1019 349-126 28-202 61-335 62-846 8-852-951-106-1009 141-11 272 9 365 37 56 17 97 69 167 62-569-338-1184 47-1110 498zm1399-473c47 142 360 56 243-137-123-86-278 32-243 137zm-198 62c64-6 82-49 167-37-23-88 45-131 15-187-170-112-343 141-182 224zm928-162c170 9 28 198 182 212-24-62 52-78 91-50-25-52-53-132 30-149 133 31 88 177 198 187-21-2 46-31 61-37 54-25 76-45 137-37-106-187-329-278-654-286 6 71-30 109-46 162zm-259-50c71 29 67 77 137 75 108-4 167-153 107-237-134-37-269 27-243 162zm-532-62c32 19 57 45 91 62 29-22 61-41 122-37-4-62 29-93 46-137-124-41-245 22-259 112zm243 0c29 43 96 54 106 112 52-24 110-43 152-75-42-35 31-82 30-125-72-107-302-28-289 87zm-1414-162c-276-21-585 141-624 386-44 281 105 502 441 535-86-362 143-656 532-710-34-126-204-201-350-212zm289 87c58 23 79 77 122 112-24-86 44-163 15-212-23 52-92 66-137 100zm-471-100c10 0 20 0 30 0 17-18 16-30-15-37-1 16-20 17-15 37zm304 12c69 39 224 85 259-12-111-30-198-101-259 12zm1247-162c-19-1-21-16-46-12-10 17-33 23-61 25 15 63 78 86 76 162 83-13 96 38 152 12 12-59-116-102-122-187zm973 174c-4-53 72-41 76-87-105-2 4-54 0-87-88-17-160 28-198 12 6-32 45-38 46-75-116-12-156 38-228 62-1-22 3-39 15-50-121 46-173 149-243 237 41 0 81 0 122 0 6 24 59 10 46 50 350 16 593 120 730 311 11-93-98-197 0-249-30-25-123 1-137-37-15-62 61-49 76-87-18-23-99 7-76-50 8 0 17-10 0-12-30 46-169 160-228 62zm-1125-174c53-11 100-26 122-62-47 16-109 19-122 62zm-1703 274c74-55 174-90 274-125 21-61 17-148-61-162-57 1-1 49-30 50-58-2-100-18-106-62 5-21 53 16 46-37-285-55-337 294-122 336zm1156-311c-16 171-306 178-213 398 223-12 359 46 487 112 11-95 80-142 198-149 3-93 87-120 167-149-41-210-378-333-639-212zm426-37c66 62 258 15 198-87-29 59-181 18-198 87zm-1019 224c152-39 212-329-30-324-21 50 27 44 46 62-49 16-158 27-167-25 40 7 55-5 46-37-283 12-170 379 106 324zm1718-249c14 111-35 238-46 299 52-48 92-145 91-237-1-53-19-132-61-162-39 33 10 57 15 100zm-1779-37c2-16 2-90-15-50-2 16-2 90 15 50zm608 75c-8-77-116-191-243-137-11 55 30-10 30 25-3 52-99 78-137 62 1-20 39-10 30-37-108-1-33 147-76 199 157 151 414 64 395-112zm-882 25c59-18 33-106 91-125-8-18 18-64-15-62-20 67-63 115-76 187zm471-112c-26-28-14-88-46-112-6 47 23 129 46 112zm-183-137c4-17-9-49-15-25-4 17 9 49 15 25zm-563 212c65-15 133-15 198 0 7-56 49-85 61-137-69-13-119-69-46-100-153-44-282 99-213 237zm1399-237c10 33 6 78 30 100-2-52 89-93 46-137-11 25-41 33-76 37zm30 174c47 36 173 55 228 13-29-89-60-175-122-237-31 79-80 142-106 224zm426-174c-5-29 2-48 15-62-46 8-131-16-152 12 48 15 80 42 137 50zm-106 162c64-18 108-53 91-137-100-5-160-110-259-75 60 67 56 186 167 212zm-958-12c26-66-46-150-76-212 18 77 23 164 76 212zm-106-187c4-17-9-49-15-25-4 17 9 49 15 25zm700 187c27-70-30-199-91-224-28-11-195-35-167 37 0-13 27-16 30 0-39 34-42 99-122 100-19-40 49-10 30-50-38-27-70 26-76 62 120 14 178 78 198 174 71-27 171-29 198-100zm-806-37c47-1 73 15 106 25-39-85-27-210-76-286-6 90-15 179-30 261zm-152-249c-49 63-83 147-122 224-40 80-100 155-106 224 86-127 192-371 228-448zm806-12c0 12 0 25 0 37 91 4 108 69 182 87 28-31 89-35 106-75-112 2-193-80-289-50zm1718 112c-55-219-273-138-517-162-53-5-102-35-152-37-243-12-391 132-411 274-17 125 32 321 167 411 59 39 130 8 198 50 62-95 99-300 0-386 48-8 118-43 152-25-17 71 23 218 15 286 49-64 101-125 198-149 69 37 139-10 243 0 21 36-47 68 15 62 99-136 117-223 91-324zm-1338-62c104-6 166 22 274 12 15-42 61-58 76-100-104-113-230 61-350 87zm-639-12c27 29 97 136 122 87-90-40-207-211-228-224 5 47 64 92 106 137zm-502-87c-35 38 71-57 30-62-7 24-33 31-30 62zm1080-12c2-31 3-60-30-62-2 31 8 52 30 62zm-988-62c-52 117-248 267-137 398-3-27 54-6 76-12 21-130 63-339 61-386zm806-50c-42 36-108 53-106 125 80 26 158 54 243 75-45-67-48-168-137-199zm1095 62c-24-22-26-128-76-87 56-6 60 179 76 87zm-1551 349c35 12 45-30 61-50 57-74 34-68-30-137-75-80-154-194-198-261 29 164 45 360 167 448zm928-361c8-53-37-107-106-100-83 9-95 182-137 237 82-42 233-66 243-137zm-289 137c0-19 56-51 15-62-3 15-24 14-46 12-7-34-73-109 15-112 49 5 30 67 61 87 3-62 50-118 15-174-268-33-127 181-61 249zm-669 299c-75-127-143-317-167-473-2-10 13-97-15-75-4 119 15 220 61 299 20 100 64 180 122 249zm563-623c-191 46-330 211-350 374 43-2 63-23 106-25 24-89 58-208 152-237 16-5 46 7 61 0 93-45 169-120 259-12 2-36 63-23 106-25 55 17 120 79 91 124 76-7 87 87 152 50-46-208-307-314-578-249zm547 112c27 30 37 112 91 100-103-297-640-348-897-137-91 74-178 202-122 299-2-392 680-536 928-261zm-1947-436c93 190 346 314 669 274-100-188-355-376-669-274zm1429-25c-3-14-17-19-30-25-317 47-524 186-684 361 401 21 621-106 715-336zm1004 423c258-87 429-247 517-473 16-1 12-16-15-12-185 139-444 284-502 486zm456-473c3-16 24-25-15-25-203 83-435 209-456 398 124-152 281-277 471-374zm-1901-299c-222 110-377 324-304 635 44 22 66-40 91-62 145-129 301-317 243-560-3-10-13-14-30-12zm-61 461c144-74 334-172 547-149-69 271-314 399-715 398 14 92 110 225 198 299 57-185 238-370 502-398 287-31 533 87 593 299 119-14 218-14 319 12-16-82-89-118-137-174 22-19 74-39 106-12 83-285 315-448 669-510-76 291-271 484-593 573 7 52 29 92 46 137 413-116 583 238 411 486 4 39 54 39 91 50-26 55-91 63 0 100-18 40-94 31-106 75 114 52 121-92 228-87 62-4 8 26 15 50 19 21 72 15 76 50 2 47-89 19-91 62 32 28 125 5 137 50 24 49-39 26-46 50 19 84 58 152 46 261-61 12-46-37-106-25-40-4-50 17-46 50-57-27-86 2-122 25-117-16-101-141-198-174-51 43 21 90 15 137-53 10-58-19-106-12-39 62 33 149-15 212 4 53 63 47 76 87 43 131-109 248-259 174-64 6-82 49-167 37 88 113-34 280-198 224-64 22-85 79-152 100-180-61-175 114-335 62-50 45-37 129-122 162-250 96-358-191-137-274-390 186-956 16-1034-286-468 24-627-550-350-797-147-56-175-286-46-374-78-138 52-321 243-274 118-152 228-311 380-436-269-41-493-119-578-311 198-164 586-9 654 162 15-291 129-501 411-573 86 172-20 374-106 486z"/></g><text x="10500" y="14850" font-family="&apos;Segoe Print&apos;" stroke-width="35" font-size="882.72" transform="matrix(.77491 0 0 1.20566-4459.11 2300.85)">Texto 1</text></g><text x="10500" y="14850" font-family="&apos;Segoe Print&apos;" stroke-width="35" font-size="806.01" transform="matrix(.71492 0 0 1.20566-4772.32 7263.12)">Nutrição</text><g font-family="&apos;Arial&apos;" stroke-width="7.62" font-size="572.98"><text x="10500" y="14850" transform="matrix(1.12844 0 0 1.20566-7615.79-730.37)">NN 1</text><text x="10500" y="14850" transform="matrix(1.12844 0 0 1.20566-7638.48-84.79)">NN 2</text></g><text x="10500" y="14850" font-family="&apos;Segoe Print&apos;" stroke-width="35" font-size="806.01" transform="matrix(.71492 0 0 1.20566-2148.34 7288.97)">Texto 2</text></g></g><path d="m13854 26164c1334 682 3868 551 4637-712 767-1258 593-4827 666-6577 182-4382 643-7705 762-11239 132-3924-2407-6519-5442-7249-4282-1031-4028 5008-3434 8112 312 1667 929 3119 1322 4749 725 3007 68 7597 320 10727 129 1082 472 1799 1168 2189z" fill="#fefefe"/><g clip-path="url(#3)"><g fill="#201e1e" stroke="#201e1e"><g stroke-linejoin="round" stroke-linecap="round"><g stroke-width="70"><path d="m18813 5309c33-5 34 25 51 36 13-46 25-84-17-109 0 36-46 23-34 73zm34-164c62 28 57 171 34 236-28 0-56 0-85 0-57-107 57-130 51-236z"/><path d="m18203 5091c-30 42-7 119-51 164 78 163 332 115 372-55-65-26-123 47-152 0 43-32 134-13 169-55-72-125-246-184-339-55zm288-255c-11 90 68 195 186 218 18-75-52-149 0-200 48 21-19 166 51 164 124-143 26-299-68-400-4 106-157 114-169 218zm-440 382c149-3 117-202 237-236-32-3-57-12-68-36 194-2 298 92 355 236-21 2-40 5-34 36 31 2 96-114 152-146-54 25-102-45-119 0 21 7 35 23 34 55-82-94-162-190-288-236 112-35 149 106 203 73-21-44-74-54-68-127 54-117 172-167 220-291 12 115 98 150 135 236 28 104-46 192-34 218 105-112 145-292 203-455 64-10 111-50 169-18-16-111-79-170-102-273 58 65 98 150 119 255 146 49 149 253 169 437 203 132 164 693-68 691 93-84 175-158 186-291 12-134-86-275-118-346-44-94-18-210-51-309-13-40-87-163-102-91 23 41-44 68 0 73 4-20 28-44 34-18-7 94-153 56-152-18 40-15 79 90 85 0 0-24 0-49 0-73-33-36-97-12-135 0-73 157-116 358-254 509-80 88-197 125-203 255-5 106 100 274 186 327 153 94 359 34 525 18-298 160-757 16-728-400-80 28-149 149-271 127-100-18-111-164-220-164 0-6 0-12 0-18z"/><path d="m11825 6740c63 19 90 77 104 148-49 3-50-45-52-93-71-5 27 127-52 74 0 12 0 25 0 37 18 52 74-5 105 0-12 69-108 67-139 18-16-91 58-87 35-185z"/><path d="m11668 6462c30-74 206-112 244-19-115-58-212 23-296 56-82-87-236-23-279 0 18-85 184-94 261-56-23-56-18-142-17-222-353 60-542 141-575 444-70 657 831 819 1115 407 250-363 107-991-470-870 11 81-23 209 17 259zm-366-518c63 75 132 143 226 185 17-62-53-126 0-167 15 77 24 160 52 222 26-127 69-235 52-407-82-12-82-110-139-148-28 143-186 147-192 315zm209-389c71 0 25 48 35 74 32 81 122 110 122 222 33-14 12-55 52-19 44 122-92 177-70 333 196 14 430 30 522-167-70-80-176-122-261-185-107 34-140 147-192 241 49 51 79-76 157-56-58 56-117 110-192 148 28-152 74-329 192-352 132-25 219 128 331 185-48 97-111 178-226 204 533 266 266 1178-383 1147-434-21-736-418-592-814 76-210 273-261 540-333-88-85-240-104-261-222-34-184 178-243 226-407z"/><path d="m18779 16151c-11 0-23 0-34 0 22 48 15 118-34 75-5 30 16 32 17 56 52 14 62-19 102-19-13 48-54 65-119 56-71-97 29-116 17-243 55 27 84 82 85 168-37-3-36-47-34-94z"/><path d="m18457 15477c30-129 70-247 68-412-57-62-111-127-152-206-21 156-215 190-203 337 9 102 178 180 237 225 13-65-51-141 0-187 13 88 40 208 51 243zm-51 37c-128 55-249 53-339 112-66 43-157 143-186 225-262 716 749 1095 1117 636 261-324 211-1139-457-992-45 84 9 178-17 262 53 13 199-122 288-19-85-8-206-6-288 75-80-27-279-91-305 37-67-116 172-141 254-94-28-93 6-154-17-225-9-29-39 0-51-19-9-14 12-43 17-37-100-110-277-154-288-281-16-193 226-215 254-412 56 0 17 106 51 131 74 50 109 176 169 187 33 132-96 191-85 356 216 15 478 21 559-187-160-200-407-270-474 75 40 31 86-91 169-75-69 40-139 165-203 150 32-164 80-353 203-374 136-24 233 153 356 206-71 84-115 197-237 225 35 42 98 53 135 94 360 435 40 1180-542 1160-445-15-816-442-626-917 77-193 284-301 542-299z"/><path d="m18190 4313c88 8 154-7 155-92-1-24-22-25-17-55-25-28-88-16-138-18 0 55 0 110 0 166zm-34-129c-20-106-165-93-172 55 68 122 192 49 172-55zm-241 18c64-23 86-127 52-202-186-155-276 217-52 202zm155-147c59 32 129 16 155-37 36-230-265-149-155 37zm-448-184c-25 177 178 178 190 37-13-4-20-15-17-37-58-37-137-3-172 0zm241 55c131 18 206-83 172-184-64-27-141 15-207-37-48 74 7 168 34 221zm207-239c26 46 59 84 121 92 4-14 14-21 34-18 86-152-152-265-155-74zm-276-18c-22-127-252-163-207 92 69 120 225 14 207-92zm448-92c38 21 70 47 138 37 4-14 0-36 17-37 2-70-34-99-86-110-11 49-49 70-69 110zm-190-18c7-173-260-235-224 74 91 118 220 20 224-74zm-500 37c31-17 50-44 86-55-5-62-27-106-17-184-168-100-240 225-69 239zm207-74c42-35 73-82 86-147-126-146-268 100-86 147zm276-110c21 136 268 161 224-55-76-76-196-56-224 55zm-224-239c-12 93 31 126 52 184 95 3 98 19 172 0 65-165-115-315-224-184zm-103-110c-174-60-165 189-86 239 67 10 84-33 155-18-22-75-10-186-69-221zm379 221c121-53 183 43 258 92 44-8 79-26 103-55-110 9-248-35-190-147-157 8-199-106-258-202-78 142 113 128 86 313zm-293-184c51-19 114-25 155-55-92-12-127-85-190-129-8 82 12 134 34 184zm-34-258c66 40 94 120 172 147 31-28 41-79 69-110 58 140 147 248 327 258 13 57-47 35-34 92 50 45 112 77 207 74-15 76-86 92-172 92 83 54 167 179 69 276-29 0-57 0-86 0-24 66-32 150-121 147 65 59 116 184 34 258 41 54 137 50 155 129 13 112-63 129-121 166-94-104-274 61-310-129-121 55-226-32-224-166-41-23-92-37-121-74-4-34-44-122 0-147-31-52-84-82-69-184-74-62-148-125-121-294 51-19 51-93 138-74-68-140 18-354 172-258-5-85 0-159 34-202z"/><path d="m12485 2021c-89-78-117-220-226-277-22 44-76 54-70 129 104 32 221 147 296 148zm226-793c59 56 53-68 0 0zm104-221c-22-61 90-131 0-148 20 60-53 114 0 148zm17-166c-24-79-14-195-70-240-7 112 30 178 70 240zm-139 351c-12-67-86-84-139-92-429-67-734 367-591 793 68-72 12-120 35-184-5 42 4 69 35 74 29-80 93-123 174-148-107 111-236 204-278 351-119 414 245 872 626 756 64-19 213-123 191-166-36 42-96 58-156 74-3-126-62-291-35-387 13 109 60 183 52 314 103 4 153-46 191-111-101-109-171-325-313-332-18-24-17-68-35-92-123-30-193-115-313-148-43 53-93 98-87 203 93 43 276-9 365 37-112 57-247-21-383 0-47 105-14 269 87 277 106-84 198-183 330-240-86 112-233 159-313 277 20 78 43 152 139 148 91-100 100-288 209-369-40 130-109 228-139 369 70 53 146-6 209 37-150 65-466 25-452-203-227-49-77-308-87-461 34-50 67-101 139-111-11-132 118-138 104-221 133 197 262 399 400 590 418-77 484-889 104-1070-12 46 77 76 17 111-89 8-213-44-157-129-7 41 52 102 70 55zm452-148c-29 25-111-7-104 55-81-19-135-65-191-111-35 12-11 86-52 92 384 265 344 1025-87 1181 37 84 104 136 156 203-65 179-242 349-522 314-317-40-557-488-417-793-232-555 254-1099 800-886 146-139-70-423 52-517 63 32 44 150 70 221 41 36 69-98 139-92 92-5 97 82 174 92-38 101-259 8-261 148-46-81 83-133 191-111-40-188-228-17-243 92 42 94 139 132 261 92 47-80 50-191 122-240 9 54-68 173-87 258z"/><path d="m12773 11763c30 86 23 240-17 305 140 297 691 174 593-210-19-76-98-116-186-153-27 27-13 99-68 95-23 0-45 0-68 0-67-50 27-72-17-133-117-12-178 41-237 95zm-694 95c5 428 661 427 677 57 7-151-62-248-220-286-31 36-6 133-85 114-72-1-62-96-85-153-194-12-290 100-288 267zm1050-191c-16-48 60-115-17-114 10 34-20 112 17 114zm-85 114c118 44 34-273 34-267 28 127-53 211-34 267zm17-820c3-28-6-70 17-76 11 61-46 212 0 191 3-29-6-70 17-76 7 66-7 107-17 153 0 51 0 102 0 153 32-59 7-183 51-229-1-107-21-192-68-248 14 50-51 105 0 133zm-17-114c5-26-10-74-17-38-5 26 11 74 17 38zm0-362c-91-7-122 53-186 76 1 97-29 158-17 267 120-55 173-187 203-343zm-186 477c60 34 105-91 152-133-15-33-6-95-34-114-32 91-120 119-119 248zm152 686c89-46 52-335 34-439-69 83-212 363-34 439zm51-458c-5-109-33-192-34-305-153 43-257 350-119 496 40-75 89-142 152-191zm-237-267c-171 157-268 398-322 686 132-15 184 59 254 114 40-44 87-80 169-76-45-226-129-478-102-725zm-17-324c-105 15-166 80-220 153 4 80 12 246-17 343 206-11 300-246 237-496zm186-172c-123-101-419-36-525 57 32 28 112 1 135 38-184-17-300 43-322 210 165-49 400-20 474-172-15-17-118-30-68-57 98 46 268 10 305-76zm-474 305c-239-47-376 123-356 305 2-15 56-58 51-19-71 22-116 173-68 267 17-25 28-58 51-76 3 47-27 59-34 95 77-15 126-62 152-133 18 18 5 70 51 57 183-16 210-208 203-439-62-24-91 87-119 38 29-25 67-39 68-95zm102 419c7-21 20-46 0-19-46 62-83 178-119 286-30 93-116 250-34 286 16-163 75-401 152-553zm559 0c-33 13 4 106-34 114 2-47 3-93-34-95-10 120 13 202 17 305-4 60 38-127 51-172-15 125 31 181 51 267-32-2-12-63-51-57-23 38-16 109-34 153 41-8 37 35 85 19 9-28-20-99 17-95 2 30-2 66 34 57 107-164 68-440-102-496zm-119-591c-81 143 103 247 169 343-26-28-66-40-102-57-13 269 138 353 254 477 74-206-54-327-135-420 46 26 114 125 152 95-76-188-173-352-339-439zm220 1125c11 83 88 91 102 172 88 454-493 536-626 248-166 186-523 167-660-38-83-124-54-364 51-477 66-27 193-67 271-19 89-103 91-304 169-420-102 44-287 159-457 191-75-99 23-221-17-343 131-361 344-712 813-648 51 7 98 23 152 57 53 9 60-34 119-19-26 60-112 52-119 133 166 125 348 320 356 610 5 200-92 382-152 553z"/><path d="m12401 10867c20 48-85 120-68 229-15-8-30-17-34-38-43 6-98 169-85 114 14-77 83-164 85-172 2-10-29-27-34-19 42-63 88-33 135-114z"/><path d="m11995 3746c114 5 214 112 173 223-115-4-195-133-173-223z"/><path d="m11753 3913c126-8 155 154 121 261-115-7-120-132-121-261z"/><path d="m12220 3951c110 18 177 83 173 223-134 7-166-95-173-223z"/><path d="m11528 4081c80 15 107 250 17 279-114-15-64-225-17-279z"/><path d="m12064 4174c122-1 228 152 156 242-99-30-147-115-156-242z"/><path d="m11943 4304c108 14 140 110 138 242-136 24-167-150-138-242z"/><path d="m11389 4435c78 67 30 282-69 279-73-92 9-221 69-279z"/><path d="m11787 4435c125-15 172 183 104 261-98-19-109-131-104-261z"/><path d="m11580 4472c99-2 125 247 35 279-114-16-60-205-35-279z"/><path d="m11337 5068c72-3 3-12 0-37-171-89-263-263-381-410 20 264 203 352 381 447zm398-186c506-84 1012-922 606-1545-375 331-783 608-1194 875-54 35-119 73-156 130 138 310 346 606 744 540zm-640-223c95 195 284 434 571 447 462 20 946-554 952-1117 3-290-105-489-156-707 90 21 149 218 173 316 36 146 54 375 35 577-43 448-437 901-831 968-256 43-724 2-883-205-89-116-150-413-69-596 38-85 238-174 363-261 398-273 754-565 1108-856 472 705 24 1633-675 1713-269 31-429-120-588-261 0-6 0-12 0-19z"/><path d="m19192 9138c113-3 185 95 157 184-110 0-146-79-157-184z"/><path d="m19000 9267c87 19 115 100 105 221-127 23-119-151-105-221z"/><path d="m19402 9304c86 12 172 106 122 202-85-14-161-118-122-202z"/><path d="m18773 9433c113-21 129 249 0 221-40-55-8-158 0-221z"/><path d="m19279 9488c66 33 171 108 122 202-100 2-164-114-122-202z"/><path d="m19157 9598c75 25 151 128 105 220-102 4-139-141-105-220z"/><path d="m19035 9708c81 12 124 144 87 220-105 13-124-144-87-220z"/><path d="m18703 9727c22 73 18 225-87 221-42-83-4-219 87-221z"/><path d="m18843 9763c17 0 35 0 52 0 18 52 33 172 0 221-121 12-90-161-52-221z"/><path d="m18633 10223c-149-76-228-226-332-349 23 197 184 345 332 349zm367-129c450-101 838-843 489-1305-360 313-756 589-1170 845 141 255 330 538 681 459zm-559-165c353 741 1285 136 1293-588 2-223-99-421-122-606 99 97 159 320 175 515 42 502-278 947-646 1047-271 74-718 46-856-184-56-94-96-355-52-459 32-79 228-168 332-239 349-236 643-496 978-717 60 207 144 384 140 588-12 639-769 1142-1240 662 0-6 0-12 0-18z"/><path d="m11823 9039c44 15 55 65 88 93-47 61-107-21-88-93z"/><path d="m12244 9095c0-19 0-37 0-56 60-8 53 56 88 75 3 16-7 18-18 19-60-22 2-27-70-37z"/><path d="m12577 9039c30 24 69 39 70 93-49-3-75-32-70-93z"/><path d="m11840 9374c-28 85-82-7-105-37 75-39 41 53 105 37z"/><path d="m11613 7827c64 137 142 259 210 391-24-168-53-484-210-391zm666 745c21 3 40 33 53 0-21-3-40-33-53 0zm-210-224c5-57 136-94 228-112-68-112-289-104-438-75-27 78 91 3 88 56-44-3-85-3-88 37 48 61 155 158 158 205-93-32-114-140-193-186-156 33-181 205-245 335-12-168 90-215 140-317-101 11-190 133-245 130 63-101 221-101 281-205-140 31-410 186-386 391 32-29 100-116 123-93-3 146 58 224 140 280 5-181 112-253 210-336 62 32 148 90 245 93 49 1 150-4 175-56-64-47-199-80-193-149zm298-93c-50 16-108 22-158 37 19 49 92 39 105 93-57 66-106-35-123-75-16 14-40 20-70 19 38 134 196 140 228 280-41 41-79-26-105-56-58 20-144 9-193 37 17 19 35 38 53 56-17 73-85-4-88-56-93-1-124-67-193-93-52 27 23 73 0 130-36-10-37-29-18-56-86 46-149 115-140 261-110-44-197-114-210-261-41 6-33 65-88 56-22 297 55 489 158 652-198-113-174-451-210-690 37-78 88-157 88-224 117-55 214-133 333-186-27-176-154-246-193-410 57-8 95-36 158-37 76 105 116 250 140 410 169-28 281-63 456 19 18 9 41 56 70 75 78 48 194 95 245 168 138 193 109 443 123 745 16 358-11 635-351 596-217-210-610-234-824-447 109 145 382 115 509 242 187 11 255 197 421 186 271-18 211-376 193-708-7-130 13-273 0-354-37-227-225-343-316-410z"/><path d="m12577 8908c-73 9-84-47-88-112 53 12 90 41 88 112z"/><path d="m12191 8815c57 7 133 54 88 112-60-4-76-55-88-112z"/><path d="m11998 8946c70-6 95 36 88 112-35-31-82-50-88-112z"/><path d="m12454 9281c17 1 14 23 18 37 49-74-68-12-53-112 58 12 95 48 88 130-38 3-56-15-53-56z"/><path d="m12454 8442c55 4 84 35 88 93-62 4-92-27-88-93z"/><path d="m11472 8815c-56-31-45-62-35-130 61-6 64 97 35 130z"/><path d="m11840 8778c53-11 99 79 53 112-53 1-44-65-53-112z"/><path d="m11577 9001c76 14 102 74 53 130-45-14-61-60-53-130z"/><path d="m12033 9188c41 19 118 56 70 112-58-1-67-53-70-112z"/><path d="m12296 9467c18 0 35 0 53 0 14 35 29 68 35 112-80 17-71-61-88-112z"/><path d="m12524 9505c70-6 95 36 88 112-54-11-86-45-88-112z"/><path d="m18836 11850c33-5 34 25 51 36 13-46 25-84-17-109 0 36-46 23-34 73zm34-164c62 28 57 171 34 236-28 0-56 0-85 0-57-107 57-130 51-236z"/><path d="m18227 11631c-30 42-7 119-51 164 78 163 332 115 372-55-65-26-123 47-152 0 43-32 134-13 169-55-72-125-246-184-339-55zm288-255c-11 90 68 195 186 218 18-75-52-149 0-200 48 21-19 166 51 164 124-143 26-299-68-400-4 106-157 114-169 218zm-440 382c149-3 117-202 237-236-32-3-57-12-68-36 194-2 298 92 355 236-21 2-40 5-34 36 31 2 96-114 152-146-54 25-102-45-119 0 21 7 35 23 34 55-82-94-162-190-288-236 112-35 149 106 203 73-21-44-74-54-68-127 54-117 172-167 220-291 12 115 98 150 135 236 28 104-46 192-34 218 105-112 145-292 203-455 64-10 111-50 169-18-16-111-79-170-102-273 58 65 98 150 119 255 146 49 149 253 169 437 203 132 164 693-68 691 93-84 175-158 186-291 12-134-86-275-118-346-44-94-18-210-51-309-13-40-87-163-102-91 23 41-44 68 0 73 4-20 28-44 34-18-7 94-153 56-152-18 40-15 79 90 85 0 0-24 0-49 0-73-33-36-97-12-135 0-73 157-116 358-254 509-80 88-197 125-203 255-5 106 100 274 186 327 153 94 359 34 525 18-298 160-757 16-728-400-80 28-149 149-271 127-100-18-111-164-220-164 0-6 0-12 0-18z"/><path d="m19013 14187c88 8 154-7 155-92-1-24-22-25-17-55-25-28-88-16-138-18 0 55 0 110 0 166zm-34-129c-20-106-165-93-172 55 68 122 192 49 172-55zm-241 18c64-23 86-127 52-202-186-155-276 217-52 202zm155-147c59 32 129 16 155-37 36-230-265-149-155 37zm-448-184c-25 177 178 178 190 37-13-4-20-15-17-37-58-37-137-3-172 0zm241 55c131 18 206-83 172-184-64-27-141 15-207-37-48 74 7 168 34 221zm207-239c26 46 59 84 121 92 4-14 14-21 34-18 86-152-152-265-155-74zm-276-18c-22-127-252-163-207 92 69 120 225 14 207-92zm448-92c38 21 70 47 138 37 4-14 0-36 17-37 2-70-34-99-86-110-11 49-49 70-69 110zm-190-18c7-173-260-235-224 74 91 118 220 20 224-74zm-500 37c30-17 50-44 86-55-5-62-27-106-17-184-168-100-240 225-69 239zm207-74c42-35 73-82 86-147-126-146-268 100-86 147zm276-110c21 136 268 161 224-55-76-76-196-56-224 55zm-224-239c-12 93 31 126 52 184 95 3 98 19 172 0 65-165-115-315-224-184zm-103-110c-174-60-165 189-86 239 67 10 84-33 155-18-22-75-10-185-69-221zm379 221c121-53 183 43 258 92 44-8 79-26 103-55-110 9-248-35-190-147-157 8-199-106-258-202-78 142 113 128 86 313zm-293-184c51-19 114-25 155-55-92-12-127-85-190-129-8 82 12 134 34 184zm-34-258c66 40 94 120 172 147 31-28 41-79 69-110 58 140 147 248 327 258 13 57-47 35-34 92 50 45 112 77 207 74-15 76-86 92-172 92 83 54 167 179 69 276-29 0-57 0-86 0-24 66-32 150-121 147 65 59 116 184 34 258 41 54 137 50 155 129 13 112-63 129-121 166-94-104-274 61-310-129-121 55-226-32-224-166-41-23-92-37-121-74-4-34-44-122 0-147-31-52-84-82-69-184-74-62-148-125-121-294 51-19 51-93 138-74-68-140 18-354 172-258-5-85 0-159 34-202z"/><path d="m19384 7530c63 19 90 77 104 148-49 3-50-45-52-93-71-5 27 127-52 74 0 12 0 25 0 37 18 52 74-5 105 0-12 69-108 67-139 18-16-91 58-87 35-185z"/><path d="m19227 7252c30-74 206-112 244-19-115-58-212 23-296 56-82-87-236-23-279 0 18-85 184-94 261-56-23-56-18-142-17-222-353 60-542 141-575 444-70 657 831 819 1115 407 250-363 107-991-470-870 11 81-23 209 17 259zm-366-518c63 75 132 143 226 185 17-62-53-126 0-167 15 77 24 160 52 222 26-127 69-235 52-407-82-12-82-110-139-148-28 143-186 147-192 315zm209-389c71 0 25 48 35 74 32 81 122 110 122 222 33-14 12-55 52-18 44 122-92 177-70 333 196 14 430 30 522-167-70-80-176-121-261-185-107 34-140 147-192 241 49 51 79-76 157-56-58 56-117 110-192 148 28-152 74-329 192-352 132-25 219 128 331 185-48 97-111 178-226 204 533 266 266 1178-383 1147-434-21-736-418-592-814 76-210 273-261 540-333-88-85-240-104-261-222-34-184 178-243 226-407z"/><path d="m16773 2600c63 19 90 77 104 148-49 3-50-45-52-93-71-5 27 127-52 74 0 12 0 25 0 37 18 52 74-5 105 0-12 69-108 67-139 18-16-91 58-87 35-185z"/><path d="m16616 2323c30-74 206-112 244-19-115-58-212 23-296 56-82-87-236-23-279 0 18-85 184-94 261-56-23-56-18-142-17-222-353 60-542 141-575 444-70 657 831 819 1115 407 250-363 107-991-470-870 11 81-23 209 17 259zm-366-518c63 75 132 143 226 185 17-62-53-126 0-167 15 77 24 160 52 222 26-127 69-235 52-407-82-12-82-110-139-148-28 143-186 147-192 315zm209-389c71 0 25 48 35 74 32 81 122 110 122 222 33-14 12-55 52-18 44 122-92 177-70 333 196 14 430 30 522-167-70-80-176-121-261-185-107 34-140 147-192 241 49 51 79-76 157-56-58 56-117 110-192 148 28-152 74-329 192-352 132-25 219 128 331 185-48 97-111 178-226 204 533 266 266 1178-383 1147-434-21-736-418-592-814 76-210 273-261 540-333-88-85-240-104-261-222-34-184 178-243 226-407z"/><path d="m14404 1635c44 15 55 65 88 93-47 61-107-21-88-93z"/><path d="m14825 1691c0-19 0-37 0-56 60-8 53 56 88 75 3 16-7 18-18 19-60-22 2-27-70-37z"/><path d="m15158 1635c30 24 69 39 70 93-49-4-75-32-70-93z"/><path d="m14422 1971c-28 85-82-7-105-37 75-39 41 53 105 37z"/><path d="m14194 424c64 137 142 259 210 391-24-168-53-484-210-391zm666 745c21 3 40 33 53 0-21-3-40-33-53 0zm-210-224c5-57 136-94 228-112-68-112-289-104-438-75-27 78 91 3 88 56-44-3-85-3-88 37 48 61 155 158 158 205-93-32-114-140-193-186-156 33-181 205-245 335-12-168 90-215 140-317-101 11-190 132-245 130 63-101 221-101 281-205-140 31-410 185-386 391 32-29 100-116 123-93-3 146 58 224 140 280 5-181 112-253 210-336 62 32 148 90 245 93 49 1 150-4 175-56-64-47-199-80-193-149zm298-93c-50 16-108 22-158 37 19 49 92 39 105 93-57 66-106-35-123-75-16 14-40 20-70 19 38 134 196 140 228 280-41 41-79-26-105-56-58 20-144 9-193 37 17 19 35 38 53 56-17 73-85-4-88-56-93-1-124-67-193-93-52 27 23 73 0 130-36-10-37-29-18-56-86 46-149 115-140 261-110-44-197-114-210-261-41 6-33 65-88 56-22 297 55 489 158 652-198-113-174-451-210-690 37-78 88-157 88-224 117-55 214-133 333-186-27-176-154-246-193-410 57-8 95-36 158-37 76 105 116 250 140 410 169-28 281-63 456 19 18 9 41 56 70 75 78 48 194 95 245 168 138 193 109 443 123 745 16 358-11 635-351 596-217-210-610-234-824-447 109 145 382 115 509 242 187 11 255 197 421 186 271-18 211-376 193-708-7-130 13-273 0-354-37-227-225-343-316-410z"/><path d="m15158 1505c-73 9-84-47-88-112 53 12 90 41 88 112z"/><path d="m14773 1412c57 7 133 54 88 112-60-4-76-55-88-112z"/><path d="m14580 1542c70-6 95 36 88 112-35-31-82-50-88-112z"/><path d="m15036 1878c17 0 14 23 18 37 49-74-68-12-53-112 58 12 95 48 88 130-38 3-56-15-53-56z"/><path d="m15036 1039c55 4 84 35 88 93-62 4-92-27-88-93z"/><path d="m14054 1412c-56-31-45-62-35-130 61-6 64 97 35 130z"/><path d="m14422 1375c53-11 99 79 53 112-53 1-44-65-53-112z"/><path d="m14159 1598c76 14 102 74 53 130-45-14-61-60-53-130z"/><path d="m14615 1785c41 19 118 56 70 112-58-1-67-53-70-112z"/><path d="m14878 2064c18 0 35 0 53 0 14 35 29 68 35 112-80 17-71-61-88-112z"/><path d="m15106 2101c70-6 95 36 88 112-54-11-86-45-88-112z"/><path d="m13727 16034c-11 0-23 0-34 0 22 48 15 118-34 75-5 30 16 32 17 56 52 14 62-19 102-19-13 48-54 65-119 56-71-97 29-116 17-243 55 27 84 82 85 168-37-3-36-47-34-94z"/><path d="m13406 15360c30-129 70-247 68-412-57-62-111-127-152-206-21 156-215 190-203 337 9 102 178 180 237 225 13-65-51-141 0-187 13 88 40 208 51 243zm-51 37c-128 55-249 53-339 112-66 43-157 143-186 225-262 716 749 1095 1117 636 261-324 211-1139-457-992-45 84 9 178-17 262 53 13 199-122 288-19-85-8-206-6-288 75-80-27-279-91-305 37-67-116 172-141 254-94-28-93 6-154-17-225-9-29-39 0-51-19-9-14 12-43 17-37-100-110-277-154-288-281-16-193 226-215 254-412 56 0 17 106 51 131 74 50 109 176 169 187 33 132-96 191-85 356 216 15 478 21 559-187-160-200-407-270-474 75 40 31 86-91 169-75-69 40-139 165-203 150 32-164 80-353 203-374 136-24 233 153 356 206-71 84-115 197-237 225 35 42 98 53 135 94 360 435 40 1180-542 1160-445-15-816-442-626-917 77-193 284-301 542-299z"/><path d="m13308 14187c88 8 154-7 155-92-1-24-22-25-17-55-25-28-88-16-138-18 0 55 0 110 0 166zm-34-129c-20-106-165-93-172 55 68 122 192 49 172-55zm-241 18c64-23 86-127 52-202-186-155-276 217-52 202zm155-147c59 32 129 16 155-37 36-230-265-149-155 37zm-448-184c-25 177 178 178 190 37-13-4-20-15-17-37-58-37-137-3-172 0zm241 55c131 18 206-83 172-184-64-27-141 15-207-37-48 74 7 168 34 221zm207-239c26 46 59 84 121 92 4-14 14-21 34-18 86-152-152-265-155-74zm-276-18c-22-127-252-163-207 92 69 120 225 14 207-92zm448-92c38 21 70 47 138 37 4-14 0-36 17-37 2-70-34-99-86-110-11 49-49 70-69 110zm-190-18c7-173-260-235-224 74 91 118 220 20 224-74zm-500 37c30-17 50-44 86-55-5-62-27-106-17-184-168-100-240 225-69 239zm207-74c42-35 73-82 86-147-126-146-268 100-86 147zm276-110c21 136 268 161 224-55-76-76-196-56-224 55zm-224-239c-12 93 31 126 52 184 95 3 98 19 172 0 65-165-115-315-224-184zm-103-110c-174-60-165 189-86 239 67 10 84-33 155-18-22-75-10-185-69-221zm379 221c121-53 183 43 258 92 44-8 79-26 103-55-110 9-248-35-190-147-157 8-199-106-258-202-78 142 113 128 86 313zm-293-184c51-19 114-25 155-55-92-12-127-85-190-129-8 82 12 134 34 184zm-34-258c66 40 94 120 172 147 31-28 41-79 69-110 58 140 147 248 327 258 13 57-47 35-34 92 50 45 112 77 207 74-15 76-86 92-172 92 83 54 167 179 69 276-29 0-57 0-86 0-24 66-32 150-121 147 65 59 116 184 34 258 41 54 137 50 155 129 13 112-63 129-121 166-94-104-274 61-310-129-121 55-226-32-224-166-41-23-92-37-121-74-4-34-44-122 0-147-31-52-84-82-69-184-74-62-148-125-121-294 51-19 51-93 138-74-68-140 18-354 172-258-5-85 0-159 34-202z"/></g><text x="10500" y="14850" font-family="&apos;Segoe Print&apos;" stroke-width="35" font-size="882.72" transform="matrix(.77491 0 0 1.20566 6524.68 2311.17)">Texto 1</text><g stroke-width="70"><path d="m16025 22102c3-44-10-75-46-87-3 44 10 75 46 87zm30 12c-91 16-121-69-91-112 14-8 27-15 30 0 53 10 62 57 61 112z"/><path d="m14580 22662c46-13 27 28 30 50 43-14 79-14 122 0 5-66 39-53 15-124-69-6-86 22-137 0 21 50-33 39-30 75zm198-112c10 44 6 72 30 125-56-9-67 20-61 62-78-21-69-17-152 0-10-37-30-66-61-87 5-37 73-23 46-87 100 9 94-6 198-12z"/><path d="m15340 23085c1-41 43-48 30-100-68 1-70 73-30 100zm-15-125c49-11 47 20 76 25-8 64-26 120-91 137-24-46-22-130 15-162z"/><path d="m15006 23210c12 3 18 10 15 25 36-8 110 16 122-12-21-23-113-67-137-12zm183 12c-38 39-156 45-198 12 0-17 0-33 0-50 72-36 163 4 198 37z"/><path d="m15097 23422c67 5 73-40 91-75-49 10-80 34-91 75zm-15 25c-41-67 46-125 137-125-4 76-42 123-137 125z"/><path d="m15796 23982c46-9 139-80 122-162-7-34-64-33-76-87-308-28-282 296-46 249zm380-274c57 86 239 12 213-87-22-3-26-21-46-25-4 80-128 62-167 112zm-30-37c-1-4-69-73-76-75-101-28-205 39-182 162 94 123 295 33 259-87zm-350-174c-59 35-108 78-91 174 33 27 74 47 152 37-6-71 45-96 76-137-79 3-50-84-137-75zm593-25c-58 124 62 211 167 187 151-34 91-257-61-274 8 64-97 37-106 87zm-167 187c82-6 155-120 106-199-25-40-119-31-137-75-146 55-135 285 30 274zm-319-274c-77 87 3 207 152 187-6-59 7-102 30-137-80-1-96-54-182-50zm-760 212c65 21 218 49 274 0 0-120-51-199-76-299-90 80-153 182-198 299zm350-12c128-7 176-80 213-162-93-61-219-95-335-137 44 97 43 230 122 299zm-213-324c-109 48-253 67-380 100-5 124 84 172 183 212 77-87 183-215 198-311zm319 50c13-14 20-33 15-62-43 10-39-18-76-12-22 22 14 71 61 75zm1384-112c-59 2-70 42-137 37 15 64 6 91-15 149 142 108 310-125 152-187zm-608 0c-49-3-63 26-137 25 35 53-9 95 0 162 191 186 396-171 137-187zm304-12c-22 44-82 57-137 75 0 37 0 75 0 112 91 97 328 44 274-125-57-11-80-51-137-62zm-563 224c147-26 119-249-30-237-214 18-139 267 30 237zm-745-149c73-10 119 68 167 37-15-26-78-46-46-75 71 0 150-7 152 50 20 54-43 39-61 62 69 2 80 51 152 50 89-42-17-120 15-224-144 19-295 32-380 100zm563 100c-32-52-8-119 15-162-48-15-84-39-122-62-80 77-51 236 106 224zm-1080-274c-48 53-47 212 15 249 154-23 302-51 411-112-158-33-236-131-426-137zm1825-50c-61-88-138-1-228-25 11 67-17 102-30 149 80 119 321 52 259-125zm228 174c59-49 103-111 76-174-46-108-171-34-289-25 20 37 16 95 15 149 43 35 98 61 198 50zm-776-75c72 168 427-24 243-174-165-58-286 75-243 174zm-61 25c33-60 48-135 61-212-262-188-428 309-61 212zm-532-274c-68 98-116 212-167 324 128-32 266-56 380-100 3-135-80-200-213-224zm-624 137c99 77 232 125 365 174-63-97-57-253-167-311-80-16-190 52-198 137zm274-174c19 142 82 248 137 361 61-104 129-201 152-336-43-53-216-71-289-25zm1460-37c11 67-17 102-30 149 106 79 281 1 243-149-72-63-112-4-213 0zm-1916 523c54 304 544 502 943 311-7-110 54-163 167-174-31-51 67-98 0-100-81-33-120 76-137 137-57 33-93 82-167 100-77-35-106 30-183 37-143 13-257-56-380-87-30-40-70-62-91-112-14-32 0-59-15-87-18-33-65-44-76-87-10-42 7-97 0-149 38-15 18-76 91-62-9-143 130-221 274-199 57-100 311-63 365 12 164-22 283 137 274 261 58-28-14-119 46-162-346-407-1210-196-1110 361zm1764-336c116-6 154-163 76-249-263-80-270 259-76 249zm-1825 336c55 338 613 582 1019 349-126 28-202 61-335 62-846 8-852-951-106-1009 141-11 272 9 365 37 56 17 97 69 167 62-569-338-1184 47-1110 498zm1399-473c47 142 360 56 243-137-123-86-278 32-243 137zm-198 62c64-6 82-49 167-37-23-88 45-131 15-187-170-112-343 141-182 224zm928-162c170 9 28 198 182 212-24-62 52-78 91-50-25-52-53-132 30-149 133 31 88 177 198 187-21-2 46-31 61-37 54-25 76-45 137-37-106-187-329-278-654-286 6 71-30 109-46 162zm-259-50c71 29 67 77 137 75 108-4 167-153 107-237-134-37-269 27-243 162zm-532-62c32 19 57 45 91 62 29-22 61-41 122-37-4-62 29-93 46-137-124-41-245 22-259 112zm243 0c29 43 96 54 106 112 52-24 110-43 152-75-42-35 31-82 30-125-72-107-302-28-289 87zm-1414-162c-276-21-585 141-624 386-44 281 105 502 441 535-86-362 143-656 532-710-34-126-204-201-350-212zm289 87c58 23 79 77 122 112-24-86 44-163 15-212-23 52-92 66-137 100zm-471-100c10 0 20 0 30 0 17-18 16-30-15-37-1 16-20 17-15 37zm304 12c69 39 224 85 259-12-111-30-198-101-259 12zm1247-162c-19-1-21-16-46-12-10 17-33 23-61 25 15 63 78 86 76 162 83-13 96 38 152 12 12-59-116-102-122-187zm973 174c-4-53 72-41 76-87-105-2 4-54 0-87-88-17-160 28-198 12 6-32 45-38 46-75-116-12-156 38-228 62-1-22 3-39 15-50-121 46-173 149-243 237 41 0 81 0 122 0 6 24 59 10 46 50 350 16 593 120 730 311 11-93-98-197 0-249-30-25-123 1-137-37-15-62 61-49 76-87-18-23-99 7-76-50 8 0 17-10 0-12-30 46-169 160-228 62zm-1125-174c53-11 100-26 122-62-47 16-109 19-122 62zm-1703 274c74-55 174-90 274-125 21-61 17-148-61-162-57 1-1 49-30 50-58-2-100-18-106-62 5-21 53 16 46-37-285-55-337 294-122 336zm1156-311c-16 171-306 178-213 398 223-12 359 46 487 112 11-95 80-142 198-149 3-93 87-120 167-149-41-210-378-333-639-212zm426-37c66 62 258 15 198-87-29 59-181 18-198 87zm-1019 224c152-39 212-329-30-324-21 50 27 44 46 62-49 16-158 27-167-25 40 7 55-5 46-37-283 12-170 379 106 324zm1718-249c14 111-35 238-46 299 52-48 92-145 91-237-1-53-19-132-61-162-39 33 10 57 15 100zm-1779-37c2-16 2-90-15-50-2 16-2 90 15 50zm608 75c-8-77-116-191-243-137-11 55 30-10 30 25-3 52-99 78-137 62 1-20 39-10 30-37-108-1-33 147-76 199 157 151 414 64 395-112zm-882 25c59-18 33-106 91-125-8-18 18-64-15-62-20 67-63 115-76 187zm471-112c-26-28-14-88-46-112-7 47 23 129 46 112zm-183-137c4-17-9-49-15-25-4 17 9 49 15 25zm-563 212c65-15 133-15 198 0 7-56 49-85 61-137-69-13-119-69-46-100-153-44-282 99-213 237zm1399-237c10 33 6 78 30 100-2-52 89-93 46-137-11 25-41 33-76 37zm30 174c47 36 173 55 228 13-29-89-60-175-122-237-31 79-80 142-106 224zm426-174c-5-29 2-48 15-62-46 8-131-16-152 12 48 15 80 42 137 50zm-106 162c64-18 108-53 91-137-100-5-160-110-259-75 60 67 56 186 167 212zm-958-12c26-66-46-150-76-212 18 77 23 164 76 212zm-106-187c4-17-9-49-15-25-4 17 9 49 15 25zm700 187c27-70-30-199-91-224-28-11-195-35-167 37 0-13 27-16 30 0-39 34-42 99-122 100-19-40 49-10 30-50-38-27-70 26-76 62 120 14 178 78 198 174 71-27 171-29 198-100zm-806-37c47-1 73 15 106 25-39-85-27-210-76-286-6 90-15 179-30 261zm-152-249c-49 63-83 147-122 224-40 80-100 155-106 224 86-127 192-371 228-448zm806-12c0 12 0 25 0 37 91 4 108 69 182 87 28-31 89-35 106-75-112 2-193-80-289-50zm1718 112c-55-219-273-138-517-162-53-5-102-35-152-37-243-12-391 132-411 274-17 125 32 321 167 411 59 39 130 8 198 50 62-95 99-300 0-386 48-8 118-43 152-25-17 71 23 218 15 286 49-64 101-125 198-149 69 37 139-10 243 0 21 36-47 68 15 62 99-136 117-223 91-324zm-1338-62c104-6 166 22 274 12 15-42 61-58 76-100-104-113-230 61-350 87zm-639-12c27 29 97 136 122 87-90-40-207-211-228-224 5 47 64 92 106 137zm-502-87c-35 38 71-57 30-62-7 24-33 31-30 62zm1080-12c2-31 3-60-30-62-2 31 8 52 30 62zm-988-62c-52 117-248 267-137 398-3-27 54-6 76-12 21-130 63-339 61-386zm806-50c-42 36-108 53-106 125 80 26 158 54 243 75-45-67-49-168-137-199zm1095 62c-24-22-26-128-76-87 56-6 60 179 76 87zm-1551 349c35 12 45-30 61-50 57-74 34-68-30-137-75-80-154-194-198-261 29 164 45 360 167 448zm928-361c8-53-37-107-106-100-83 9-95 182-137 237 82-42 233-66 243-137zm-289 137c0-19 56-51 15-62-3 15-24 14-46 12-7-34-73-109 15-112 49 5 30 67 61 87 3-62 50-118 15-174-268-33-127 181-61 249zm-669 299c-75-127-143-317-167-473-2-10 13-97-15-75-4 119 15 220 61 299 20 100 64 180 122 249zm563-623c-191 46-330 211-350 374 43-2 63-23 106-25 24-89 58-208 152-237 16-5 46 7 61 0 93-45 169-120 259-12 2-36 63-23 106-25 55 17 120 79 91 124 76-7 87 87 152 50-46-208-307-314-578-249zm547 112c27 30 37 112 91 100-103-297-640-348-897-137-91 74-178 202-122 299-2-392 680-536 928-261zm-1947-436c93 190 346 314 669 274-100-188-355-376-669-274zm1429-25c-3-14-17-19-30-25-317 47-524 186-684 361 401 21 621-106 715-336zm1004 423c258-87 429-247 517-473 16-1 12-16-15-12-185 139-444 284-502 486zm456-473c3-16 24-25-15-25-203 83-435 209-456 398 124-152 281-277 471-374zm-1901-299c-222 110-377 324-304 635 44 22 66-40 91-62 145-129 301-317 243-560-3-10-13-14-30-12zm-61 461c144-74 334-172 547-149-69 271-314 399-715 398 14 92 110 225 198 299 57-185 238-370 502-398 287-31 533 87 593 299 119-14 218-14 319 12-16-82-89-118-137-174 22-19 74-39 106-12 83-285 315-448 669-510-76 291-271 484-593 573 7 52 29 92 46 137 413-116 583 238 411 486 4 39 54 39 91 50-26 55-91 63 0 100-18 40-94 31-106 75 114 52 121-92 228-87 62-4 8 26 15 50 19 21 72 15 76 50 2 47-89 19-91 62 32 28 125 5 137 50 24 49-39 26-46 50 19 84 58 152 46 261-61 12-46-37-106-25-40-4-50 17-46 50-57-27-86 2-122 25-117-16-101-141-198-174-51 43 21 90 15 137-53 10-58-19-106-12-39 62 33 149-15 212 4 53 63 47 76 87 43 131-109 248-259 174-64 6-82 49-167 37 88 113-34 280-198 224-64 22-85 79-152 100-180-61-175 114-335 62-50 45-37 129-122 162-250 96-358-191-137-274-390 186-956 16-1034-286-468 24-627-550-350-797-147-56-175-286-46-374-78-138 52-321 243-274 118-152 228-311 380-436-269-41-493-119-578-311 198-164 586-9 654 162 15-291 129-501 411-573 86 172-20 374-106 486z"/></g></g><g font-family="&apos;Arial&apos;" stroke-width="7.62" font-size="572.98"><text x="10500" y="14850" transform="matrix(1.12844 0 0 1.20566 3313.3-742.36)">NN 1</text><text x="10500" y="14850" transform="matrix(1.12844 0 0 1.20566 3290.62-96.78)">NN 2</text></g><g font-family="&apos;Segoe Print&apos;" stroke-width="35" font-size="806.01"><text x="10500" y="14850" transform="matrix(.71492 0 0 1.20566 5829.3 7069.28)">Nutrição</text><text x="10500" y="14850" transform="matrix(.71492 0 0 1.20566 8434.44 7102.76)">Texto 2</text></g></g></g></svg>