<svg xmlns="http://www.w3.org/2000/svg" width="744.09" height="1052.36" viewBox="0 0 21000 29700" shape-rendering="geometricPrecision" image-rendering="optimizeQuality" fill-rule="evenodd" clip-rule="evenodd"><defs><clipPath id="0"><path d="m6582 26812c-1334 682-3868 551-4637-712-767-1258-593-4827-666-6577-182-4382-643-7705-762-11239-132-3924 2407-6519 5442-7249 4282-1031 4028 5008 3434 8112-312 1667-929 3119-1322 4749-725 3007-68 7597-320 10727-129 1082-472 1799-1168 2189z"/></clipPath><clipPath id="1"><path d="m14334 26812c1334 682 3868 551 4637-712 767-1258 593-4827 666-6577 182-4382 643-7705 762-11239 132-3924-2407-6519-5442-7249-4282-1031-4028 5008-3434 8112 312 1667 929 3119 1322 4749 725 3007 68 7597 320 10727 129 1082 472 1799 1168 2189z"/></clipPath></defs><text x="10081" y="23623" fill="#201e1e" font-family="&apos;Arial Black&apos;" stroke="#201e1e" font-weight="900" stroke-width="7.62" font-size="705.56">42</text><g fill="none" stroke="#373435" stroke-width="80"><circle cx="10533" cy="1326" r="460"/><path d="m10533 515v1621"/><path d="m9723 1326h1621"/><circle cx="10533" cy="24995" r="460"/><path d="m10533 24184v1621"/><path d="m9723 24995h1621"/></g><g fill="#fff"><rect x="9508" y="21571" width="1347" height="637" rx="318" stroke="#fff" stroke-width="20"/><path d="m6582 26812c-1334 682-3868 551-4637-712-767-1258-593-4827-666-6577-182-4382-643-7705-762-11239-132-3924 2407-6519 5442-7249 4282-1031 4028 5008 3434 8112-312 1667-929 3119-1322 4749-725 3007-68 7597-320 10727-129 1082-472 1799-1168 2189z"/></g><g clip-path="url(#0)"><g stroke="#201e1e"><g fill="#201e1e" fill-rule="nonzero" stroke-width="35.28"><path d="m1124 10485c-24-4-48-11-73-20-25-10-50-21-76-34-26-13-51-29-76-46-25-17-49-35-73-54-23-20-46-40-67-60-21-21-41-42-59-63-8-10-13-20-15-28-3-9-5-18-5-28-1-11 0-20 3-29 2-9 7-17 14-26 3-3 5-6 7-9 2-3 3-6 3-9 0-1-1-1-2-2-1-1-3-2-5-3-2-1-4-2-6-4-2-2-4-3-5-6-3-5-5-12-6-20-1-8-2-16-3-24-1-15 1-30 5-44 4-14 11-27 19-38 20-27 45-48 75-63 30-15 62-24 98-27 32-2 66 0 103 7 33 6 65 16 96 30 31 14 61 31 89 50 28 20 54 42 78 67 24 25 45 52 62 81 18 29 32 59 43 92 11 32 18 65 20 99 2 32-1 60-8 86-7 26-19 48-34 66-15 19-34 33-56 44-22 11-47 17-74 19-12 1-24 1-36 0-12-1-24-2-37-5zm26-86c16 2 30 3 42 2 17-1 32-6 45-13 13-7 23-17 31-30 8-12 14-27 17-44 4-17 5-35 3-54-2-23-7-47-15-70-8-24-20-46-34-68-15-22-32-43-51-63-20-20-42-38-66-54-24-16-51-30-79-43-28-12-58-21-89-28-11-2-23-4-35-5-12-1-24 0-35 0-18 1-35 5-51 10-16 5-30 14-42 25-12 11-21 25-28 41-7 17-9 37-8 61 0 3 2 6 4 7 3 2 6 3 10 5 4 1 7 3 11 5 4 2 7 4 11 8 3 3 6 7 8 12 2 5 4 11 4 19 0 6-1 11-3 15-2 5-5 9-9 14-2 2-3 4-4 5-1 1-2 3-1 5 0 3 2 7 5 11 3 5 6 9 10 14 4 5 8 9 12 14 4 4 8 8 10 10 23 21 48 42 75 62 27 20 55 39 83 56 29 17 57 31 86 43 29 12 56 20 82 25zm-232-972c1 12 4 24 9 37 6 13 13 27 23 40 9 14 20 28 32 42 12 14 24 28 36 42 6 7 12 14 17 20 5 6 9 13 12 19 7 4 17 9 29 13 12 4 25 9 39 13 14 4 28 8 43 12 15 4 28 7 41 9 7 1 13 2 19 3 6 1 13 1 20 2 7 1 15 2 23 3 8 1 17 3 27 5 6 1 11 4 15 7 4 3 7 7 9 11 2 4 3 8 4 11 1 4 1 6 1 8 1 13-2 23-7 31-5 8-16 13-32 14-4 0-9 0-14 0-5 0-10-1-16-2-30-6-57-11-81-17-24-5-46-11-67-17-20-6-40-12-58-18-18-6-37-12-55-19-19-6-38-13-58-20-20-7-42-15-66-23-5-2-10-7-14-15-4-8-6-17-7-27-1-13 2-23 6-32 5-8 12-13 22-14 1 0 3 0 5 1 2 1 5 1 8 2l49 19c-11-13-22-27-33-42-11-15-21-29-30-45-9-16-17-31-22-47-6-16-9-32-10-47-2-32 5-57 20-76 15-19 40-29 73-31 19-1 41 1 66 7 25 6 52 13 80 22 29 9 59 19 90 30 31 11 64 20 96 29 9 2 16 5 22 8 6 3 11 6 15 10 4 4 7 9 8 15 2 6 3 13 3 21 1 13-1 22-5 27-4 5-11 8-21 9-9 0-19 0-32-2-13-2-27-5-42-10-15-4-32-9-49-15-18-6-35-12-53-19-15-5-29-11-44-16-15-5-29-10-42-14-14-4-27-7-39-9-12-2-23-3-34-3-10 1-18 3-25 8-7 5-10 13-10 26zm205-228c-17-4-34-9-51-15-17-7-34-15-51-25-17-10-33-22-49-36-16-14-32-31-47-50-10-13-20-27-30-41-9-14-18-29-25-44-7-15-13-30-17-45-4-15-7-30-7-45 0-11 0-21 2-29 1-9 4-17 7-25-11-3-41-11-89-23-48-13-115-28-200-46-9-3-16-8-22-15-6-6-9-14-9-24 0-7 0-13 1-19 1-6 3-12 6-17 3-5 7-9 13-12 5-3 13-5 22-5l378 86c11 3 25 5 43 7 18 2 37 4 57 5 20 2 40 3 59 3 19 0 36 1 50 0 17-1 35 1 52 5 8 2 14 4 19 6 5 2 9 5 13 8 3 4 6 8 7 14 2 5 2 12 3 21 0 10 0 17-2 23-2 6-4 10-7 12-3 3-7 4-11 5-4 1-9 1-13 2-5 0-10 1-15 2-5 1-10 2-15 5 3 4 6 9 10 16 4 7 9 14 13 21 4 7 9 14 12 20 4 6 7 11 8 14 4 8 9 16 14 25 5 10 9 20 14 31 4 11 8 23 11 35 3 12 5 24 5 37 0 15-1 30-6 44-4 14-11 27-20 39-9 11-21 21-36 28-15 7-32 11-52 12-7 0-14 0-21 0-7-1-15-2-24-4zm-6-86c9 2 18 3 27 3 9 0 17-1 25-3 8-2 15-5 21-10 6-5 10-11 14-19 3-8 5-17 4-29 0-7-2-14-4-21-2-8-5-15-9-22-4-7-7-14-11-21-4-7-7-12-10-16-8-12-16-24-24-34-8-11-16-20-25-28-9-8-19-15-30-22-11-6-23-11-38-14-13-3-24-5-34-7-10-2-21-4-30-6-10-2-20-3-30-4-10-1-22-3-34-4-2 2-4 4-5 7-2 3-2 7-2 13 0 13 3 28 8 44 5 16 11 32 19 48 8 17 18 32 30 48 12 16 25 30 39 43 14 13 30 25 47 34 17 10 34 17 53 20zm-37-463c-13 1-25-3-34-10-9-7-16-17-20-30-7-3-16-9-28-16-12-7-25-16-39-27-14-11-28-23-42-37-14-14-27-29-39-46-12-17-22-35-30-55-8-20-12-41-13-64-1-19 1-36 5-51 4-14 9-26 17-36 7-9 17-17 27-22 11-5 22-8 35-8 11 0 21 1 30 3 18 4 33 12 47 24 13 12 25 27 36 43 10 17 19 35 26 55 7 20 13 40 18 60 5 20 9 39 12 58 3 19 5 35 7 48 6 3 13 5 22 7 8 2 17 3 25 2 18-1 32-9 41-25 10-16 14-37 13-64-1-16-3-31-6-45-4-14-8-27-14-40-6-13-11-24-18-35-6-11-13-21-19-30-8-12-15-23-20-33-5-11-8-20-9-28 0-8 1-14 5-16 4-3 8-4 12-4 3 0 5 0 7 0 2 0 4 0 6 0 8 1 16 4 25 9 8 5 15 11 22 18 27 34 46 68 58 104 12 36 19 75 20 116 0 8 0 17-1 28-1 11-2 22-4 34-2 12-6 23-11 35-5 11-12 22-20 31-8 9-19 17-32 23-13 6-28 9-46 10-14 1-31-1-49-5-1 4-2 9-6 12-3 4-9 6-15 6zm-139-307c-2-1-3-1-4-1-1 0-3 0-4 0-8 0-15 4-19 11-4 7-6 15-5 24 0 15 4 29 12 43 8 14 17 27 28 39 11 12 23 23 35 32 13 9 24 16 34 21-3-24-6-46-11-65-5-20-11-37-18-51-7-15-14-26-23-35-8-9-17-15-26-17zm345-864c0 2 0 3 0 4 0 1 0 2 0 4-1 7-2 13-6 18-3 5-7 9-12 13-5 3-9 6-14 7-5 2-10 2-14 2-7 1-16 2-28 4-12 2-26 4-42 6-16 2-32 5-50 7-18 3-36 5-54 7-18 2-36 4-52 6-17 2-33 3-47 4-10 1-19 2-28 3-9 1-17 2-25 3-8 1-16 2-24 2-8 0-15 0-23 0-9-1-17-3-25-5-8-3-15-6-20-11-6-4-10-10-13-15-3-6-5-12-4-19 1-13 5-23 12-31 7-7 15-12 26-16 10-3 22-5 36-6 13-1 27-1 42 0 18 0 38 0 59-1 21-1 42-2 63-4 21-2 42-3 61-5 20-2 37-4 52-5-9-11-29-30-60-58-15-14-29-26-42-38-13-12-25-23-37-33-12-11-24-20-35-30-12-9-24-19-37-28-13-9-26-18-41-27-14-9-30-18-48-27-3-3-7-6-11-9-4-4-7-8-10-13-3-5-5-10-7-16-2-6-2-13-2-20 1-15 6-25 13-30 7-5 17-7 27-6 15 1 29 5 42 12 13 7 27 17 42 30l289 262c9 5 16 11 22 17 6 5 10 11 14 16 3 5 6 10 7 15 1 4 2 8 3 12zm-171-380c-18-8-37-20-56-34-19-14-38-32-57-52-19-21-36-45-53-72-17-27-31-58-44-92-2-6-4-13-5-24-1-11-2-22-1-32-11-15-14-34-11-55 4-25 14-46 29-61 15-15 34-27 57-34 7-2 14-4 21-6 7-2 14-3 22-4 8-1 16-1 24-1 9 0 18 1 28 3 24 5 48 13 72 26 24 13 46 29 68 49 21 20 41 42 60 68 18 26 34 53 47 83 9 20 15 41 18 64 3 23 2 47-2 74-4 25-11 46-20 64-9 17-21 31-34 41-14 10-29 17-46 20-17 3-36 3-56-1-19-4-39-10-60-21zm19-80c7 3 13 6 19 8 6 2 12 4 18 5 10 2 20 2 29 1 9-1 18-4 25-9 7-5 13-12 19-21 5-9 9-20 11-33 4-25 2-49-6-73-8-24-20-46-35-66-15-20-32-38-50-53-19-15-36-27-52-34-10-5-20-9-29-13-9-4-18-7-26-8-8-2-16-1-23 1-7 2-16 4-25 8-6 2-12 4-18 6-6 2-12 3-18 5 4 3 7 7 10 11 3 4 5 9 6 15 2 6 3 15 3 25 0 10 0 24-1 41 1 12 5 23 10 36 5 12 12 25 20 37 8 12 16 25 26 36 9 12 19 22 29 32 10 10 20 19 31 27 10 8 19 14 28 18zm68-457c-22-12-44-27-67-46-23-18-44-39-64-62-20-23-38-48-53-75-15-27-27-55-34-84-2-9-4-19-3-30 0-10 1-21 3-31 2-11 5-21 9-29 4-9 9-16 14-22 6-6 12-10 20-12 8-2 16-2 26 0 7 2 14 5 21 9 7 4 13 9 18 15 5 6 9 13 11 20 2 8 2 16 0 25-2 7-4 13-8 19-4 5-8 11-12 15-3 3-5 5-7 7-2 2-4 5-6 8 3 14 7 28 14 42 6 14 14 27 23 39 9 13 18 25 29 36 11 11 21 22 32 32 11 10 22 18 33 26 11 8 21 14 31 19 7 4 15 8 23 12 9 4 18 7 27 9 6 1 12 2 18 3 6 0 11-1 16-3 5-2 9-5 12-9 4-4 6-10 7-17 2-11 4-23 3-35 0-12-1-24-3-35-2-12-5-23-8-35-4-12-7-23-11-34-2-7-5-14-8-21-3-7-5-14-7-20-2-6-3-12-4-17-1-5-1-10 0-13 1-5 3-9 6-13 3-4 7-5 13-3 4 1 8 3 13 6 11 7 20 16 28 26 8 10 14 21 20 32 5 11 10 23 13 35 4 12 6 24 9 36 6 23 9 45 9 67 1 22-1 40-4 54-1 4-3 10-5 16-2 6-5 11-8 15-16 24-35 39-55 47-20 8-43 8-67 2-11-3-22-6-33-11-11-5-23-10-35-17z"/><path d="m1298 6125c-13-5-22-12-29-23-6-10-9-22-8-35-5-6-12-14-21-26-9-11-18-25-27-40-10-15-19-32-27-51-9-19-16-38-21-58-5-21-8-41-9-63-1-21 3-43 9-64 6-18 13-33 22-45 8-12 18-21 28-27 10-6 21-9 33-10 12-1 23 1 35 6 10 4 19 9 27 15 15 10 27 24 35 40 9 16 15 35 19 54 4 20 6 40 6 61 0 21-1 42-3 63-2 20-5 40-8 58-4 18-7 34-10 48 4 5 10 10 18 15 7 5 15 9 23 12 17 6 33 4 47-7 14-11 25-29 33-55 5-15 8-30 9-44 1-15 1-29 1-43-1-14-3-27-5-40-2-13-5-25-8-36-3-14-6-27-8-39-2-12-1-22 2-30 3-8 6-12 10-13 4-1 9-1 13 1 2 1 5 2 7 3 2 1 4 2 5 3 7 4 14 10 20 18 6 8 11 16 14 25 14 42 20 81 19 120-1 38-7 77-20 116-2 8-6 16-10 26-4 10-9 20-16 30-6 10-13 19-22 28-8 9-18 16-29 21-11 5-23 8-37 9-14 1-29-2-46-8-14-5-29-13-44-23-2 4-5 7-10 9-5 2-10 2-17 0zm-27-340c-1-1-3-2-4-2-1 0-2-1-4-1-8-3-15-2-21 3-6 5-10 12-13 21-4 14-6 29-3 45 2 16 7 31 13 47 6 15 14 30 22 43 9 13 17 24 25 33 6-23 9-45 11-65 2-20 2-39 1-55-2-16-5-30-9-41-5-11-11-20-19-26zm-252 85c-3-2-5-4-7-5-2-1-3-2-4-4-1-1-2-3-3-5-1-2-2-4-4-8l-2-5c-8-26-17-50-25-74-8-23-17-47-25-70-14-36-27-73-40-112-1-6-1-11-1-14 0-3 1-7 2-10l3-8c3-11 8-19 14-24 6-5 12-8 19-10 7-1 15-1 22 0 8 1 16 4 24 7 4 2 8 3 12 5 4 2 8 3 12 5l5 2c3 1 5 3 8 4 2 1 5 2 7 3 2 1 3 1 5 2 1 1 3 1 4 1l-1-1c1 0 4 0 7 1 4 1 7 1 12 2 4 1 8 1 12 2 4 1 6 1 8 2 1 0 2 1 4 1 2 0 4 1 6 1 2 0 4 1 7 1 4 2 7 6 10 10 3 4 5 9 6 14 1 5 2 10 2 15 0 5-1 10-2 15-2 5-4 9-6 11-2 2-5 4-9 7l-1 1-5 3c-7 1-14 2-23 1-8-1-17-2-25-4-8-2-17-4-25-7-8-3-16-5-24-8l1 7 3 11c2 6 4 14 7 25 3 11 7 23 10 35 4 12 7 24 10 35 3 11 6 20 8 25l15 37c1 3 2 6 3 11 1 4 1 9 1 13 0 5 0 9 0 13 0 4-1 7-2 9-1 4-2 7-4 11-2 4-4 8-6 11-2 3-5 6-8 8-3 2-6 2-10 1-2-1-3-1-4-2zm878-686c-4 7-8 13-13 18-5 4-11 7-18 9-7 1-13 2-20 1-7-1-14-3-20-7-5-3-10-6-15-10-5-4-11-10-18-17-3-3-8-7-14-13-6-6-14-12-22-19-8-7-17-14-26-21-9-8-19-15-27-22-9-7-17-13-25-19-8-5-15-9-20-12-4-2-6-3-7-3-4-2-9 0-13 5-4 5-9 10-14 16-5 6-11 10-17 13-7 3-14 2-24-3-8-4-14-10-18-17-5-7-7-15-7-22 0-8 2-17 6-26 4-9 7-17 9-26 2-5 1-10-3-14-4-5-8-9-12-12-11-10-23-22-36-34-13-12-26-25-39-39-13-14-25-28-36-43-11-14-22-29-30-44-11-23-19-46-27-69-7-23-12-47-15-70-3-23-2-46 1-69 3-23 10-45 20-67 13-26 27-46 43-58 16-12 35-19 57-20 5 0 10 0 14 2 4 1 9 3 13 5 8 4 14 9 19 15 5 6 10 12 13 18 3 7 5 13 5 20 0 7-1 13-4 18-4 8-8 13-13 16-5 3-11 4-16 5-6 0-12 0-18-1-6-1-12-2-17-3-5 0-10 0-15 2-5 2-8 5-11 11-3 6-5 13-8 21-2 8-3 17-3 25 0 23 2 45 6 66 4 21 11 43 21 66 11 22 25 46 45 70 19 24 44 51 75 80 1 0 1 1 2 2 1 1 1 1 1 1 1 0 1-1 3-3 4-9 8-18 11-26 3-9 6-17 8-26 3-9 5-17 8-26 3-9 7-18 11-27 3-7 7-13 10-19 3-6 7-10 11-13 4-3 8-5 13-6 4-1 10 0 15 3 3 2 7 5 11 8 4 4 8 8 12 13 3 5 6 10 8 15 2 5 2 11 1 16-3 10-6 20-9 30-3 10-7 21-12 33-4 12-8 25-12 40-4 15-8 32-12 51 16 16 33 30 50 43 17 13 34 25 52 37 17 12 35 24 52 37 17 13 34 26 50 41 3 3 6 6 9 10 2 4 4 9 6 13 1 5 2 10 2 14 0 5-1 10-3 14zm-52-396c-14-15-27-33-40-54-13-21-24-45-34-71-10-27-18-56-24-88-6-32-9-66-8-103 0-6 1-14 4-25 2-11 6-21 11-30-5-18-1-37 9-56 13-22 29-37 48-45 19-8 41-11 64-9 8 1 15 2 22 3 7 1 14 3 22 5 7 2 15 5 23 9 8 4 16 8 25 14 21 14 40 32 58 53 17 21 33 46 46 72 13 27 24 56 32 87 8 31 13 63 15 95 1 22-1 44-6 66-5 22-14 45-28 68-13 22-26 39-41 51-15 12-30 20-46 24-16 4-33 4-50 0-17-4-34-12-51-23-17-11-33-25-49-43zm46-67c5 6 10 11 15 15 5 4 10 8 15 11 9 6 18 10 26 13 9 3 18 3 26 1 9-2 17-6 24-12 8-6 15-15 22-26 12-21 19-45 20-70 1-25-3-50-9-75-7-24-16-48-28-69-12-22-24-39-37-53-8-9-15-17-22-24-7-7-14-13-21-18-7-5-14-7-22-9-8-1-16-2-26-3-6-1-12-1-19-2-6-1-13-2-18-3 2 5 4 9 6 14 1 4 2 10 1 16-1 7-3 15-6 25-3 10-8 22-15 37-3 11-4 24-3 37 1 14 2 28 5 42 3 15 7 29 11 44 5 15 10 29 16 42 6 13 12 25 19 37 7 11 13 20 20 28zm343-321c-15-17-31-37-49-58-18-21-36-43-54-65-18-22-36-44-53-65-17-21-34-40-48-57-3-2-5-3-7-5-2-1-4-3-6-5-8-6-15-13-22-20-7-7-13-14-18-21-7-10-11-19-12-25-1-6 2-13 7-21 5-8 11-13 17-15 6-2 12-3 19-2 7 1 13 4 20 8 7 4 13 9 20 14 4 3 7 6 11 10 4 4 7 7 10 9-2-13-4-27-5-41-2-15-2-29-2-43 1-14 3-28 6-42 3-14 9-26 17-38 3-4 7-9 11-12 4-4 8-7 12-11 5-4 10-9 17-13 6-4 13-7 20-9 12-4 25-5 39-3 14 2 25 6 35 14 4 3 7 7 10 12 3 5 6 11 7 16 2 6 2 11 2 17 0 6-2 11-5 15-3 5-8 9-15 14-7 5-13 8-20 9-3 1-6 1-10 1-4 0-8 0-12-1-4 0-8-1-11-1-3 0-6-1-7 0-1 1-3 2-4 4-1 1-2 3-3 4-10 14-15 29-18 46-2 17-2 35 0 53 2 18 5 36 9 53 4 17 8 33 12 46 16 22 34 45 52 69 18 25 37 50 58 77l9 7c8 6 15 12 22 19 7 7 13 14 17 21 2 6 2 13 1 20-1 7-4 15-10 22-8 11-17 17-28 17-11 0-21-4-30-11-4-3-8-8-12-13zm732-948c-4 16-9 33-15 53-6 20-13 39-20 59-8 19-15 37-24 54-8 16-17 29-26 39-23 24-45 36-67 36-22 0-42-10-61-31-4-5-9-10-13-16-4-6-8-11-11-17-13-25-24-52-33-83-10-31-16-62-21-94-4-32-5-63-3-93 2-30 8-57 18-80 6-14 16-31 31-52 15-21 37-47 65-79-3-7-6-14-9-20-3-6-5-13-6-19-1-6-1-13 0-19 1-7 4-14 9-22 11-11 21-16 31-15 9 1 20 8 33 21 2 2 3 4 5 6 2 2 4 5 5 7 3 6 8 16 16 29 7 13 15 28 24 45 9 17 19 35 29 54 10 19 20 37 29 54 9 17 18 32 25 46 8 13 13 23 17 29 8 14 20 34 36 61 16 27 35 58 59 95 13 20 25 39 35 55 10 17 18 28 22 36 5 1 10 4 16 8 6 4 10 7 15 11l3 5c3 4 4 9 5 15 1 6 1 12 0 18-1 6-3 12-5 18-3 6-6 11-10 15-6 6-12 10-18 12-6 2-12 3-18 2-6-1-12-3-17-7-5-4-11-8-15-13-3-3-6-7-8-10-2-4-4-7-6-10-23-37-45-72-65-105-20-33-38-64-55-93l-2-2zm-178 119c3 5 5 9 8 12 6 7 13 11 21 11 7 1 14-3 21-10 10-10 20-26 29-46 9-20 18-43 27-68 4-14 8-27 12-39 3-12 6-23 8-33 2-9 3-17 4-23l1-9-74-129c0-1-1-2-3-4-3-3-7-4-11-3-4 1-8 3-12 7-22 23-38 42-47 58-9 16-15 29-17 41-3 22-5 42-6 62-1 19 0 39 2 58 2 19 6 38 12 56 6 19 14 38 24 58zm199-616c-2-5-4-10-4-14-1-4-1-9 0-12 1-4 1-7 3-9 1-2 2-4 3-5 3-2 6-5 10-7 4-3 8-5 12-8 5-3 9-5 13-8 6-5 13-7 20-4 7 3 13 8 19 15 4 6 8 11 10 18 17 39 31 73 43 103 12 30 22 55 30 76 8 21 15 37 21 50 6 13 11 22 15 27 4 5 10 11 16 16 6 5 13 10 20 13 7 3 14 5 21 5 7 0 13-2 19-8 10-9 18-21 23-37 5-16 8-33 10-51 2-18 2-36 1-53-1-18-2-33-4-45l-4-26c-3-16-7-33-13-51-6-18-13-36-20-53-7-17-14-33-21-48-7-15-13-26-17-35l-31-59c-6-11-8-21-7-28 1-7 6-15 15-23 6-5 12-9 18-12 6-3 12-4 18-3 6 1 12 3 19 8 6 4 13 11 21 21 9 11 17 26 27 45 9 19 18 38 27 57 5 11 11 23 17 36 6 13 12 25 19 37 7 12 13 24 19 34 6 10 13 20 19 27 10 13 21 26 32 38 11 12 22 26 34 40 5 7 9 13 13 18 4 5 6 10 7 13 5 12 8 23 7 31 0 9-6 17-16 26-7 6-13 10-18 12-5 2-10 3-15 2-5-1-8-3-12-5-3-3-7-6-10-9l-61-68-2 4c0 18 1 37 2 59 1 21 1 43-2 65-2 22-7 42-14 62-7 20-18 36-34 50-3 3-8 5-14 8-6 3-13 5-20 7-7 2-14 4-22 5-7 1-13 2-19 1-23-1-44-7-62-19-18-11-34-25-47-42-7-10-14-20-20-30-6-11-11-21-16-32-5-10-9-21-13-30-4-10-7-18-11-26-10-23-20-44-27-61-8-18-15-33-20-47-6-13-11-25-15-34-4-9-8-18-11-25zm510-119c-7-12-11-24-10-37 1-12 5-24 13-33-1-8-2-19-2-34-1-15 0-31 1-50 1-18 3-38 7-58 3-20 9-40 16-60 7-20 17-38 28-56 12-18 26-33 44-45 15-11 29-18 43-22 13-4 26-5 38-4 11 2 22 6 32 13 10 7 18 16 25 27 6 9 10 19 13 29 6 18 8 36 5 55-2 19-8 37-15 55-8 18-18 36-30 53-12 17-25 33-38 48-13 15-26 29-39 41-13 12-25 23-35 32 1 7 3 14 6 23 3 9 7 17 11 24 10 16 24 24 41 24 17 0 37-7 57-22 12-9 23-19 32-30 9-11 17-22 25-34 7-12 13-23 19-35 5-12 10-23 14-33 5-13 10-25 16-36 6-11 12-18 18-23 6-5 12-6 15-4 4 2 7 5 10 9 1 2 3 4 4 7 1 2 2 4 3 6 3 8 5 17 6 27 1 10 0 20-3 29-13 42-30 78-52 108-22 30-49 57-81 80-6 4-14 9-23 15-9 5-19 10-29 14-11 4-22 7-34 8-12 2-23 1-35-2-12-3-23-8-35-17-11-8-22-20-32-36-8-13-16-29-22-47-4 2-8 2-13 1-5-1-9-5-13-11zm170-289c0-2-1-3-2-4-1-1-1-2-2-4-5-7-11-11-18-11-8 0-15 3-22 8-11 8-21 19-28 34-7 14-12 30-16 46-4 16-6 33-7 49-1 16 0 30 1 42 18-15 33-30 46-45 13-15 24-29 32-43 8-14 13-27 16-39 3-12 3-23 0-32z"/><path d="m3984 2673c-8-22-16-47-25-73-9-27-18-54-27-82-9-28-18-55-27-81-9-27-17-51-25-72-2-3-3-5-5-7-1-2-2-4-4-7-5-9-9-18-13-28-4-9-7-19-9-27-3-13-4-22-3-28 1-6 6-12 14-17 8-5 15-7 21-7 6 0 13 2 18 6 6 4 11 9 16 15 5 6 9 14 13 21 2 4 5 9 7 14 2 5 5 9 6 12 3-13 6-27 9-41 4-14 8-28 14-41 6-13 12-25 20-37 8-11 18-21 29-28 5-3 9-5 14-7 5-2 10-4 15-5 6-2 13-4 20-5 7-1 14-1 22-1 13 1 25 6 37 12 12 7 21 16 27 27 2 4 4 9 5 15 1 6 2 12 1 18-1 6-2 12-4 17-2 5-5 9-10 12-5 3-11 5-19 7-8 2-15 2-22 1-3 0-6-2-10-3-4-2-7-4-11-6-4-2-7-4-10-6-3-2-5-3-6-3-2 1-3 1-5 2-2 1-3 2-4 3-14 9-24 21-33 36-8 15-14 32-19 49-5 17-8 35-10 53-2 18-4 34-5 48 8 27 16 55 24 85 8 30 17 62 27 94l6 11c5 9 9 17 14 27 4 9 7 18 8 27-1 6-3 13-7 19-4 6-9 12-17 17-11 7-22 9-32 4-10-4-18-12-24-22-3-5-5-10-6-16zm286-352c-4-20-7-43-7-68-1-25 2-52 6-80 5-28 13-58 23-88 11-30 26-61 44-92 3-5 8-11 15-19 7-8 15-14 24-20 5-18 17-32 35-42 22-11 43-15 63-11 20 4 40 14 59 29 6 5 12 10 17 15 5 5 11 10 16 16 5 6 10 13 15 20 5 8 10 16 14 26 11 24 18 50 23 78 4 28 5 57 3 87-2 30-8 61-16 91-9 31-20 61-35 89-10 20-22 37-38 53-15 16-34 30-57 42-22 11-42 18-60 20-19 2-36 0-51-6-16-6-30-15-42-29-12-13-23-29-32-49-9-19-15-40-20-64zm72-30c1 8 3 15 5 21 2 6 5 13 7 18 5 10 10 19 16 26 6 7 13 13 22 16 8 3 17 5 26 4 10-1 20-4 31-10 21-11 39-27 51-48 13-21 23-44 29-69 6-25 10-50 10-74 1-25-1-47-5-65-2-12-5-23-7-33-3-10-5-19-9-27-4-8-8-14-14-20-6-5-13-11-21-17-5-4-10-8-15-12-5-4-10-9-14-13 0 5-1 10-2 15-1 4-4 9-7 14-4 5-10 11-17 18-8 6-18 14-31 23-8 8-15 18-21 30-6 12-12 25-17 39-5 14-9 29-12 44-3 15-6 30-7 44-1 15-2 29-2 42 0 13 1 25 3 35zm876-301c2-1 4-1 7-1 2 0 5 0 7 0 3 0 6 0 9-1 3 0 7-2 12-3 14-5 29-12 45-22 16-9 30-19 44-30 13-11 24-21 33-31 9-10 13-19 12-27 0-4-1-8-2-10-2-5-6-10-12-13-6-3-14-5-23-7-9-2-18-3-28-3-10-1-19-1-27-2l-17-1c-9 0-17-2-26-3-9-2-17-5-26-8-8-4-16-9-24-15-7-6-14-14-20-24-3-4-5-8-7-12-2-4-4-9-6-14-3-8-3-18-1-31 2-13 5-25 11-39 5-14 12-27 20-41 8-13 17-26 27-36 7-10 13-19 20-27 7-9 13-16 21-23 7-7 15-13 23-18 8-5 17-10 27-13 9-3 18-6 29-9 11-3 21-4 30-4 10 0 18 3 26 8 8 5 14 13 17 24 1 4 2 8 3 14 1 6 1 12 1 18 0 7-1 12-3 17-2 5-5 9-9 10-7 2-13 3-18 2-5-1-10-3-15-5-5-2-9-4-14-5-5-2-10-1-16 1-7 2-14 7-22 13-8 6-16 13-24 21-8 8-16 17-23 26-7 9-13 18-18 27-5 9-9 17-11 25-3 8-3 14-1 19 2 5 5 9 9 11 4 2 9 4 15 4 8 1 16 2 26 3 9 1 19 1 29 2 10 1 19 1 29 2 9 1 17 2 24 3 9 1 18 3 26 5 8 2 15 5 21 8 6 3 11 8 16 13 4 5 8 12 11 21 1 4 2 8 3 13 1 4 1 9 2 15 1 5 1 11 1 18 0 7-1 14-1 21-1 7-1 14-2 19-1 6-2 10-3 12-8 16-18 31-30 47-13 16-26 30-40 44-14 14-29 26-45 36-15 11-30 18-44 24-7 3-15 4-25 4-10 0-19-1-27-3-9-2-17-6-23-10-7-5-11-10-13-16-1-3-1-7-1-11 1-5 2-9 3-13 2-4 4-8 6-12 2-3 5-6 8-7zm341-233c-3-14-3-26 2-38 5-12 12-21 23-27 2-8 4-19 8-33 4-14 9-30 16-47 7-17 15-35 24-53 9-18 21-35 33-52 13-16 27-31 44-43 16-13 35-22 55-28 17-5 33-7 47-6 14 1 26 4 37 10 10 6 19 13 26 23 7 10 12 21 15 34 3 11 4 22 4 32 0 19-4 37-12 54-8 17-19 32-31 47-13 15-28 28-44 40-17 12-33 23-50 33-17 10-34 18-50 25-16 7-30 13-42 18-1 7-2 15-2 24 0 9 1 18 4 27 5 19 15 31 32 37 16 6 37 6 61-1 14-4 27-10 39-17 12-7 23-15 33-24 10-9 20-17 28-27 9-9 16-18 23-27 9-11 17-20 26-28 9-8 16-13 24-15 8-2 13-2 16 2 3 3 5 7 6 12 1 3 1 5 2 7 0 3 1 5 1 6 1 9 0 18-3 28-3 10-6 19-12 27-25 35-52 63-82 84-30 21-64 36-101 47-7 2-16 4-26 6-10 2-21 3-32 3-11 0-23-1-34-4-12-3-22-7-33-14-10-7-19-16-28-28-8-12-15-27-19-46-4-15-6-32-7-52-4 0-8-1-13-3-4-3-8-8-9-15zm249-214c0-2 0-3 0-5 0-1-1-3-1-4-2-9-7-14-14-17-7-3-15-3-23 0-13 4-25 11-36 22-11 11-21 24-29 38-8 14-15 29-21 44-5 15-9 29-12 40 21-8 40-17 57-26 17-10 31-20 43-30 12-10 21-21 27-31 6-11 9-21 9-31zm260 211c0-24 1-50 1-78 1-28 1-57 2-86 1-29 2-58 2-86 1-28 1-54 1-77-1-3-1-6-2-9 0-2-1-5-1-8-2-10-3-20-3-31-1-10 0-20 0-29 1-13 4-22 7-27 3-5 10-9 19-10 9-2 16-1 22 2 6 3 11 7 15 13 4 6 7 12 9 20 2 8 4 16 6 25 1 5 1 10 2 15 1 6 1 10 2 13 7-11 15-22 22-34 8-12 17-23 26-33 10-10 20-19 31-26 11-7 23-13 37-15 5-1 10-1 16-1 5 0 11 0 16 1 6 0 13 1 20 3 7 2 14 4 21 8 12 6 22 15 31 26 9 11 14 23 17 36 1 5 1 10 0 16-1 6-3 12-5 17-3 5-6 10-9 14-4 4-8 6-14 7-5 1-12 1-20-1-8-1-15-4-20-8-2-1-5-4-8-7-3-3-6-6-8-10-3-3-5-6-7-9-2-3-4-5-5-5-2 0-3 0-5 0-2 0-3 0-5 1-16 3-30 10-42 21-13 11-24 24-34 39-10 15-19 30-27 46-8 16-15 30-21 43-2 28-4 57-6 89-3 31-5 64-7 98l2 12c2 10 3 20 4 30 1 10 1 20-1 28-3 6-7 11-13 15-6 5-13 8-21 9-13 2-23 0-31-8-8-8-13-18-15-30-1-6-1-12-1-18zm884-140c2 0 5 1 7 2 2 1 4 2 6 3 2 1 5 2 8 3 3 1 7 2 12 2 15 2 31 2 49 0 18-1 35-4 51-7 16-3 30-8 42-14 12-6 19-12 21-19 1-4 2-7 2-10 1-6-1-11-6-17-5-6-11-11-18-17-7-5-15-11-24-16-9-5-17-10-24-14l-15-9c-8-4-15-9-22-15-7-6-14-12-20-19-6-7-11-15-16-24-4-9-7-19-8-30-1-5-1-10-2-14 0-5 0-10 0-15 1-9 5-18 11-29 7-11 15-21 25-31 10-10 22-19 34-28 13-9 26-15 39-21 10-6 20-11 29-16 9-5 18-9 28-11 9-3 18-5 28-6 9-1 19-1 29 0 9 1 19 3 30 5 11 2 20 6 29 10 9 5 16 11 21 19 5 8 7 18 6 29 0 4-1 8-3 14-2 6-4 12-6 17-3 6-6 11-9 15-3 4-7 6-12 5-7-1-13-3-17-6-4-4-8-7-12-11-3-4-7-8-11-11-4-3-9-6-14-6-7-1-15 0-25 1-10 2-20 4-30 8-10 4-21 8-31 13-10 5-19 11-27 16-8 6-15 12-20 18-5 6-8 12-9 17-1 6 1 10 4 14 3 4 7 8 12 11 6 5 14 10 22 15 8 5 17 10 25 15 9 5 17 10 25 15 8 5 15 9 21 13 8 6 15 11 21 16 6 5 11 11 16 17 4 6 7 12 9 19 2 7 2 15 2 24 0 4-1 9-2 13-1 4-3 9-4 15-1 5-4 11-6 17-3 6-6 12-9 19-3 6-7 12-10 16-3 5-6 8-8 9-13 10-29 20-46 29-17 8-35 16-54 21-19 6-37 10-55 13-18 3-35 3-50 1-7-1-15-3-24-8-9-4-17-9-24-15-7-6-13-13-17-20-4-7-6-14-6-21 0-3 2-7 4-11 2-4 5-7 8-11 3-3 6-6 10-8 4-2 7-3 10-3zm423-56c4-14 12-24 21-31 10-7 21-10 33-9 6-6 14-13 24-22 11-9 23-19 38-29 14-10 30-20 48-29 17-9 36-17 55-23 19-6 39-9 59-10 20-1 40 3 60 10 17 6 31 14 42 23 11 9 20 19 25 30 6 11 9 22 10 35 1 12-1 25-5 38-3 11-8 20-14 29-10 16-22 29-38 38-15 9-32 16-51 20-18 4-37 7-57 7-20 0-40-1-59-3-19-2-37-5-55-9-17-4-32-7-44-10-5 5-9 11-14 19-5 8-8 16-11 24-6 18-4 35 7 50 10 15 27 27 51 36 14 5 28 8 41 10 14 1 27 1 40 1 13-1 25-3 37-5 12-2 23-5 33-8 13-4 25-6 36-8 11-2 21-1 28 2 7 3 11 6 12 11 1 5 1 9-1 14-1 3-2 5-3 7-1 2-2 4-3 6-4 8-10 15-17 21-7 7-15 12-24 15-39 15-76 21-112 21-36-1-72-8-108-21-7-3-15-6-25-11-9-4-18-10-28-17-9-7-18-14-26-24-8-9-15-19-20-31-5-12-8-25-8-40-1-15 2-31 8-49 5-15 12-31 22-47-4-2-7-6-9-10-2-5-2-11 0-18zm318-29c1-1 2-3 2-4 0-1 1-3 1-4 3-9 2-16-3-22-5-6-11-11-19-14-13-5-27-6-42-3-15 3-29 7-44 14-14 7-28 15-41 24-12 9-23 18-31 26 22 6 42 10 61 12 19 2 36 2 51 1 15-2 28-5 39-10 11-5 19-12 24-20zm371 80c4-4 8-7 12-8 4-2 8-3 11-3 3 0 6 0 9 0 2 0 4 1 5 2 3 2 6 5 9 8 4 4 7 7 10 10 4 4 7 8 10 11 7 5 10 11 9 19-1 8-3 15-8 23-4 6-8 11-13 15-30 28-57 52-81 73-23 20-43 38-60 52-16 14-29 26-39 35-10 9-17 17-20 23-4 6-7 13-10 21-3 8-5 16-6 25-1 8-1 16 1 23 2 7 6 13 12 17 11 8 24 12 40 13 16 1 32 0 48-3 17-3 33-8 48-13 16-6 29-11 40-17l22-11c14-7 28-16 43-27 15-11 29-23 42-35 13-12 26-24 37-35 11-11 20-20 27-27l45-48c9-9 16-14 23-15 7-1 15 2 25 9 6 5 12 10 16 15 4 5 7 11 8 17 1 7 1 14-2 21-2 8-7 17-13 27-7 12-18 25-33 40-14 15-29 29-44 43-9 9-18 18-28 27-10 10-19 20-28 30-9 10-18 20-25 29-8 10-14 18-19 27-9 14-17 28-25 43-8 15-17 30-27 46-5 7-9 13-13 19-4 5-7 9-9 11-10 9-18 14-26 16-8 2-17-1-28-9-7-5-13-10-16-16-3-5-5-10-6-15-1-5 0-9 2-14 2-4 3-8 6-12l45-81-4-1c-16 5-33 12-52 19-19 7-39 12-59 16-20 4-40 5-59 3-20-2-38-9-55-21-3-2-7-7-11-12-4-6-8-12-12-19-4-7-7-14-10-21-3-7-5-13-6-19-5-24-5-47 0-69 5-22 13-42 25-60 7-10 14-20 22-29 8-9 16-18 24-26 8-8 16-15 24-22 8-7 15-13 20-18 18-17 34-32 47-45 14-13 26-24 36-34 10-10 19-18 27-25 7-7 14-13 19-18z"/><path d="m8268 2741c25-6 48-12 69-18 21-6 41-11 59-16 18-5 36-10 53-15 17-5 34-10 51-15 17-5 35-10 54-16 19-5 39-11 61-18l107-31c18-5 33-11 46-16 12-5 24-10 34-16 10-6 20-11 29-14 8-4 16-6 23-6 7 0 13 1 19 5 5 4 10 10 15 19 6 13 10 25 10 34 0 9-2 17-6 24-4 7-9 12-16 17-7 5-14 9-22 13 12 7 23 15 35 26 12 11 23 22 33 35 10 13 20 26 29 39 9 14 16 27 23 40 10 21 16 42 16 62 1 20-2 38-9 55-7 17-17 32-29 46-13 14-27 25-44 34-19 10-39 17-59 20-20 3-40 2-60-1-20-3-40-9-60-17-20-8-39-18-58-30-19-12-37-24-54-38-18-14-34-28-50-42-10-10-20-19-27-29-8-9-13-19-17-27-6-12-10-25-13-37-3-13-4-26-3-40-22 4-42 9-61 15-19 5-36 10-50 15-9 3-19 6-29 9-10 3-20 6-30 8-10 3-19 5-28 8-9 2-16 4-22 6-4 1-8 0-11-2-4-2-8-5-12-9-4-4-7-8-10-13-3-4-5-9-7-13-10-22-8-37 8-46 5-2 10-4 15-6zm307 7c2 5 3 10 5 15 2 6 3 11 4 16 1 5 3 10 4 14 1 4 2 6 2 7 3 6 6 12 11 18 5 6 10 12 15 18 6 6 11 11 17 16 6 5 11 10 16 13 14 11 30 22 47 33 18 11 36 20 56 27 19 7 39 11 59 12 20 1 40-4 59-15 8-4 14-9 20-15 6-6 10-12 13-19 3-7 4-14 4-23 0-8-3-17-7-26-5-10-10-19-15-28-5-8-12-16-18-23-7-7-15-14-23-20-8-6-18-12-28-18-10-5-20-11-30-19-10-8-18-17-25-29l-185 45zm171 696c9-3 19-6 32-8 13-2 28-7 45-13-10-8-23-16-36-25-14-9-27-19-40-29-13-10-25-21-35-32-10-11-17-23-21-34-3-9-5-19-5-28 0-9 1-18 4-26 7-21 15-38 25-50 10-12 23-21 40-27 7-3 15-5 24-6 8-1 18-3 29-4 50-5 100-1 149 14 49 15 94 38 136 71 16 13 28 27 37 42 8 15 15 31 21 48 2 7 5 16 6 25 2 9 4 18 5 25 4 7 7 12 9 17 2 4 4 9 6 14 3 10 4 18 4 25 0 7-2 13-5 19-3 5-7 10-11 13-5 4-10 6-15 9-8 3-15 4-23 4-8 0-16 0-23 0l-253 23c-13 3-25 7-36 10-11 3-21 5-31 5-3 0-7 0-11 0-4 0-9-1-14-2-5-2-9-5-13-8-4-4-7-9-10-17-3-10-5-18-6-24-1-6 0-11 1-15 1-4 3-7 6-9 3-2 6-4 10-5zm83-206c-5 0-11 1-19 3-8 1-16 3-24 6-8 3-15 7-20 12-6 5-7 12-4 20 4 13 11 25 20 34 9 10 19 18 30 25 15 10 31 19 48 28 17 9 35 18 53 25 18 7 36 13 54 17 18 4 35 6 51 5 9-1 20-2 32-5 12-2 22-5 31-8 4-1 7-4 10-7 3-3 4-8 2-13-5-15-13-30-23-43-11-14-23-26-37-37-14-11-30-21-47-29-17-8-34-15-52-20-18-5-36-9-54-11-18-2-35-2-51-1zm11 455c22-1 46-1 73-1 27 0 54-1 81-1 27 0 54 0 81 0 26 0 50-1 72-2 3-1 6-2 8-2 2-1 5-1 7-2 9-2 19-4 29-4 10-1 19-1 27-1 12 1 21 3 26 7 5 3 8 10 10 20 2 9 2 17-1 24-2 6-6 12-11 17-5 4-11 8-19 11-7 3-15 5-23 7-4 1-9 2-14 3-5 1-9 2-12 2 11 7 22 15 33 23 11 8 22 17 32 27 10 10 18 21 26 32 7 12 13 25 15 39 1 6 2 11 2 17 0 6 0 11-1 17 0 7-1 14-2 22-1 8-4 15-7 23-5 13-13 24-23 34-10 10-21 16-33 19-5 1-10 1-15 0-6-1-11-2-16-5-5-3-10-6-13-10-4-4-6-8-7-14-1-6-1-12 0-21 1-9 3-16 6-22 1-3 3-6 6-9 3-3 6-6 9-9 3-3 6-6 8-8 2-2 4-4 5-5 0-2 0-4 0-6 0-2-1-4-1-5-3-17-10-31-21-45-11-13-23-25-37-35-14-10-28-20-44-28-15-8-29-15-41-21-26-1-54-2-83-4-29-2-60-3-92-4l-11 3c-9 2-18 4-28 5-9 1-18 1-26 0-5-3-10-7-15-13-4-6-8-13-9-22-3-14-1-25 6-33 7-9 16-14 27-17 5-1 11-2 17-1z"/></g><g fill="none"><g stroke-width="70"><path d="m6148 12628c9-319-95-443-359-635-135-5-270-10-405-15-100 28-201 56-301 85 57 50 114 101 171 151 314 103 613 240 894 414z"/><path d="m6331 12694c-63-7-122 3-147 80-53 166 51 244 213 245 60 0 91-40 109-72 50-88-36-237-176-253z"/><path d="m3178 13624c309-62 620-101 914-142 400-56 802-49 1205-40"/><path d="m3177 13935c335-89 664-157 997-193 354-39 769-26 1125-26"/><path d="m3220 14254c332-71 670-152 996-192 376-46 745-41 1124-44"/><path d="m5184 13147c199 3 312 27 397 93 85 65 143 171 232 336 34 91 67 182 101 273 79 227 155 454 37 689-158 315-421 337-719 376-557 34-1135 28-1692 62-155 1-280-3-395-36-107-30-195-78-263-143-87-84-140-197-154-342 4-155 8-311 12-466 34-117 67-234 101-351 47-88 106-152 171-201 132-98 287-154 449-190 191-42 386-65 581-78 382-27 760-25 1142-20z"/><path d="m1972 14540c9-189-10-371 111-529 108-141 248-130 336 28 86 153 72 308 75 478 2 132 28 209-81 299-40 33-86 47-169 44-86-2-149-25-200-69-93-81-76-136-70-252z"/><path d="m2492 14383c-7-172-22-281-101-381-91-115-233-106-331 26-60 81-72 198-84 346 173 8 342 11 515 8z"/><path d="m1694 15235c1-251-14-542 12-822 33-348 131-679 406-895 268-209 567-316 918-423 452-139 920-221 1434-234 395-3 761 39 1107 142 197 59 389 137 576 239 186 100 315 226 428 372 287 371 389 762 482 1210 6 18 12 36 18 53m-1689 554c-887 105-1803 52-2697 56-96 0-179-6-258-20-115-19-229-49-344-81-114-32-199-58-282-96-115-54-148-101-199-98-71 4-112 41-142 92-60 102-68 171-42 239 21 56 53 98 91 132 73 66 151 106 234 132 138 43 287 47 440 66 306 19 610 48 917 41 916-43 2096 57 3009-177 319-82 616-241 903-326 128-43 382-84 417-249 7-35 3-76-12-132-17-62-45-127-106-148-60-21-185 3-340 50-549 166-1016 452-1589 520z"/><path d="m5434 10581c-114 120-211 237-375 284-70 20-145 23-254 18-239-32-360-74-547-224 27-105 70-199 127-281 43-64 95-119 153-166 73-60 149-105 230-135 127-47 256-64 388-48 110 18 220 44 322 111-25 151-38 291-44 441z"/></g><path stroke-width="7.62" d="m6274 15200l871-341"/><g stroke-width="70"><path d="m3103 15894c-306-14-611-27-917-41 2 203-63 640 112 789 169 143 585 184 734-11 133-174 73-533 70-737z"/><path d="m6262 16431c82 33 179 27 360-21 109-29 243-58 326-134 43-40 73-93 78-166 4-69-19-163-51-262-48-144-114-295-144-394-272 117-553 202-834 291 10 284-27 568 266 687z"/><path d="m6150 13235c55-72 90-165 132-233-426-218-729-316-1203-401-235-42-460-61-682-57-875 13-1688 430-2298 795 1 62 3 112 4 174 286-171 587-304 894-409 464-159 919-202 1389-232 354-23 687 10 1012 90 253 63 501 155 751 273z"/><path d="m2206 13160c-2 70-21 147-107 171 1 5 1 10 2 14 432-252 1021-561 1593-713 219-58 438-93 700-92 606 1 1173 137 1722 381 23 10 46 21 70 31-2-6-5-11-7-17-288-279-494-370-889-469-266-66-537-105-822-113-870-25-1648 472-2260 806z"/><path d="m2122 13058c206-180 501-364 790-517"/><path d="m1977 13299c-21-21-37-46-42-80-6-43 23-85 63-116 40-30 91-49 128-43 99 16 142 171 61 235-30 23-70 37-114 37-38 0-74-11-96-33z"/><path d="m5856 11089c-169-102-329-255-422-508 11-148 22-296 33-444 107 63 203 141 273 255 79 115 124 232 135 353 18 124 4 236-20 345z"/></g><path stroke-width="7.62" d="m2361 12885l6-484 444-237 563-133 231 4"/><path d="m2362 12872c2-162 4-310 6-471 184-98 361-172 539-228 363-114 728-151 1160-154 368-2 699 54 1029 147 407 114 798 296 1155 526-56 25-78 107-100 190-145-112-279-202-422-271-262-127-628-208-915-236-173-17-347-19-522-19-95-89-189-177-284-266-572 183-1139 425-1645 783z" stroke-width="70"/></g><g stroke-width="70"><g fill="#fff"><path d="m4160 11906c135-68 272-134 408-199 58-27 116-55 174-82 147 188 294 377 441 565-77 39-154 76-230 116-119 62-236 126-359 186-281 138-331 90-554-130-112-111-224-222-337-332-497 22-899 139-1336 370 27-157 90-224 187-351 52-68 105-135 158-202 121 16 212 19 334-2 118-21 230-58 311-161 201 57 396 128 589 206 103 42 115 64 214 15z"/><path d="m4568 11707c58-27 116-54 174-82 147 188 294 377 441 565-77 39-153 77-230 116-123-206-249-403-385-600z"/></g><g fill="none"><path d="m5569 17945c-69-142-139-284-208-426-115-237-78-268-273-104-77 65-163 119-245 179-158 116-148 93-56 270 73 141 148 278 232 397 107 153 118 160 293 97 69-25 129-53 179-87 164-110 154-171 78-325z"/><path d="m4040 17609c139-104 279-208 418-312 181-135 191-103 50-282-63-80-126-160-190-240-124-157-97-155-238-13-138 140-277 281-415 421-127 129-128 105-18 249 38 50 76 100 114 150 132 172 106 156 278 28z"/><path d="m5916 16609c25 14 51 27 76 41 129 70 259 139 388 209 145 78 143 56 82 211-20 50-38 98-58 148-59 152-52 119-206 94-169-28-343-44-511-76-80-15-121-43-143-84-62-114-5-249 70-371 71-117 92-175 147-189 33-9 79-2 156 16z"/><path d="m5691 10051c63 2 104 8 141 22 79 28 129 66 161 120 103 176 171 358 265 526 111 199 235 318 382 397 259 140 631 206 868 212-15 114-22 217-22 317-1 293-18 588 18 880 15 124 19 224 2 317-41 216-175 346-340 435-83 45-172 79-261 110-179 62-213 75-328 227-116-160-260-284-424-379 36-81 73-162 109-243 98 48 184 45 247-45 32-91 5-165-86-221-116-15-215-42-273-98 7-323-100-447-359-635-228-14-455-28-683-42-32-80-63-159-95-239 195 8 379-42 546-170 187-129 285-340 324-606 16-200-33-380-142-544-20-27-40-53-61-80 4-87 7-173 11-260z"/><path d="m4480 14614c34-117 6-222-18-339-55 6-110 12-166 18-4 122 3 213 27 333 52-4 104-8 157-12z"/><path d="m2708 11650c193 42 383 3 572-93 26 42 51 85 77 127-88 86-163 117-283 150-120 33-240 25-361 13-2-66-3-132-5-197z"/><path d="m5687 10208c4-174 29-292-60-444-84-142-176-170-327-136 147 153 131 270 122 481 7 24 14 48 20 72 49-11 99-23 148-34 21 16 42 32 64 48 17 13 55 56 33 12z"/><path d="m4720 9963c20-143 22-283 169-356 95-47 193-11 288 19-147 121-158 162-177 359-42 28-83 56-125 84-25-33-50-67-76-100-26-2-53-4-79-7z"/><path d="m2862 9843c491 0 890 408 890 910 0 503-399 910-890 910-299 0-564-151-726-383-1-2-1-5-3-5-234 21-273-103-104-201 2-1-2-5-3-7-35-98-54-204-54-314 0-503 399-910 890-910z"/><path d="m2287 11125c72 76 138 143 208 197 117 89 243 141 420 139 157-2 279-40 382-112 106-74 202-182 279-324"/><path d="m4426 11192c101 135 190 218 349 287 70 31 146 48 244 45 121-4 200-30 273-77 79-51 130-99 170-156 38-54 67-115 103-193"/><path d="m2396 12293c-80 99-160 197-239 296-84-76-167-151-251-227 140-136 303-296 443-432 56 59 88 141 144 200-32 54-65 109-97 163z"/><path d="m2363 12725c-69-45-138-91-207-136 71-88 142-175 213-263-2 133-4 266-6 399z"/><path d="m2031 12475c126-144 252-289 378-433-28-29-32-83-60-112-140 136-303 296-443 432 42 38 84 76 126 113z"/><path d="m2580 11617c-66 59-104 89-133 144-72 137-51 265 47 368 73-94 146-188 220-282-2-66-3-132-5-197-43-11-85-22-128-33z"/><path d="m2060 12211c-69-128-138-213-115-365 8-53 22-108 76-160 60-57 116-88 173-101 56-13 120-10 183-1-10 39-16 87-13 128 3 44 17 85 52 122-23 67-14 129 9 194-25-11-72-43-100-76-88 86-177 172-265 258z"/><path d="m2406 11535c-43 59-38 90-42 163 7 71 6 86 53 137 34-114 75-140 163-218-58-27-116-55-174-82z"/><path d="m5422 10109c12-166 26-305-89-443-35-42-55-65-80-67-47-4-106 46-137 78-99 102-98 170-117 308 125 3 120 9 166 131 134-82 135-105 256-7z"/></g></g><path d="m2183 10245c11 131 31 255 86 351-41-4-83-8-124-12 16 65 25 137 24 224-32-32-67-58-106-76 7 72 23 163 10 232-4 19-11 36-23 49-30 33-81 77-130 104-75-223-101-403-71-562 44-238 125-355 301-497 34-197 59-268 199-360-9 73-23 101 7 166 54-18 91-52 120-87 28-34 104-3 140-25 75-72 142-166 248-203-33 71-37 137-15 200 68-65 182-118 248-124 25 53 25 79 71 112 101 21 202 42 303 63-60 5-115 18-155 51 93 76 162 167 216 269-79-48-161-86-245-118 25 83 35 165 38 248-69-68-145-129-233-175 5 48-1 98-15 148-46-76-108-133-183-175 2 67 4 133 6 200-190-204-205-281-479-274 73 54 120 138 158 233-74-53-157-87-248-98-49 45-98 91-146 136z" fill="#201e1e" stroke-width="7.62"/><g stroke-width="70"><path d="m5058 10023c456 0 826 378 826 845 0 467-370 845-826 845-456 0-826-378-826-845 0-467 370-845 826-845z" fill="none"/><g fill="#fff"><path d="m5033 9981c73 0 132 61 132 135 0 75-59 135-132 135-73 0-132-61-132-135 0-75 59-135 132-135z"/><path d="m5310 10046c73 0 132 61 132 135 0 75-59 135-132 135-73 0-132-61-132-135 0-75 59-135 132-135z"/><path d="m5198 14823c-73-130-89-107-236-115-427 51-853 103-1280 154-44 40-56 96-53 160 64 158 127 315 191 473 42 103 30 99 139 91 351-26 703-52 1054-78 136-10 222 13 251-154 6-35 3-73-7-138-20-131-39-262-59-393z"/><path d="m5136 15223c-4-50-10-100-15-149-25-119 4-241-127-228-352 34-704 69-1057 103-166 16-137 14-126 183 22 66 43 131 65 197 74 121 58 137 196 122 308-34 618-51 920-118 115-26 151 5 143-109z"/></g><path d="m4769 10681c228-49 343-209 503-369-46-13-87-63-106-113-46 24-80 48-133 53-60-6-106-33-126-94-51 34-103 63-163 71-61-3-98-34-123-77-125 90-236 197-308 351-19 52-37 104-56 157 203 43 276 73 511 22z" fill="none"/><path d="m5108 11769c29-7 211-77 163-124-21-20-47-31-75-35-116-15-278 91-355 142 114 146 228 292 342 438 157-19 315-41 471-56 98-10 69-88-3-86-93 3-186 7-279 10 113-10 227-20 340-30 136-12 82-126-28-115-122 12-196 13-317 25 127-21 206-32 332-53 112-19 71-121-41-101-78 14-157 28-235 42-44 8-43 5-86 13 119-29 194-47 314-75 123-29 59-145-32-120-176 48-295 85-471 133-13-3-27-6-40-9z" fill="#fff"/></g><g fill="#201e1e" stroke-width="7.62"><path d="m2758 10743c41-13 88 23 105 80 16 57-4 113-45 126-41 13-88-23-105-80-16-57 4-113 45-126z"/><path d="m3348 10639c42-11 87 27 101 85 14 58-9 113-51 123-42 11-87-27-101-85-14-58 9-113 51-123z"/><path d="m5260 10939c35 0 64 33 64 74 0 41-28 74-64 74-35 0-64-33-64-74 0-41 28-74 64-74z"/><path d="m4627 10924c35 0 64 33 64 74 0 41-28 74-64 74-35 0-64-33-64-74 0-41 28-74 64-74z"/></g><g stroke-width="70"><g fill="none"><path d="m4499 15163c-42 151-83 240-148 332-88 124-230 242-199 417 35 193 345 309 403 544 46 186-21 298-92 464"/><path d="m4949 17440c-28-55-55-109-83-164 4-69 8-137 12-206 46-259 140-556-6-798-120-199-297-352-354-590-39-166-27-308-19-519"/><path d="m5565 16853c-95-88-157-193-210-304-86-179-147-375-281-538-339-291-410-425-574-848"/><path d="m3827 17277l-97-159"/><path d="m4004 17178l-155-180"/><path d="m4107 17102l-159-205"/><path d="m5201 17816l205-204"/><path d="m5322 17967l179-160"/><path d="m5425 18082l154-115"/><path d="m5993 16884l39-212"/><path d="m6129 16984l49-233"/><path d="m6262 17054l86-212"/><path d="m5735 17103c55-110 89-220 131-352 19-82 69-137-46-159-87-17-95 8-171 130-50 81-92 159-122 248-9 53-8 99 2 153 13 41 35 69 75 89 90 20 89-28 130-109z"/><path d="m4757 17789c93-36 170-75 244-119 116-69 217-147 317-236-83-169-66-141-214-32-92 68-185 135-278 203-111 81-144 63-70 184z"/><path d="m4267 17007c35 50 72 98 112 146 86 103 84 151 194 57 65-56 33-70-62-191-76-96-152-192-228-288-62-78-70-98-106-66-70 62-59 71-21 153 31 66 67 128 110 190z"/></g><g fill="#fff"><path d="m5590 10148c98 0 151 135 103 220-19 34-61 51-103 51-73 0-132-61-132-135 0-75 34-135 132-135z"/><path d="m4745 9958c63-6 132 61 132 135 0 75-59 135-132 135-73 0-144-67-132-135 11-68 69-130 132-135z"/><path d="m4312 11830c-84-167-151-302-235-469 38-16 225-152 208-188-41-87-141-45-208-26-2 1-5-1-3-4 42-110 62-185 61-277-1-71 0-132-56-150-42-13-62 63-72 145-10 77-8 146-9 165-2 3-6 3-7-3-11-54-27-104-43-155-13-43-20-67-34-84-52-68-84-45-89 30-5 79 25 158 42 241 0 1-1 1-1 1-25-30-50-63-75-94-32-40-45-75-68-87-33-16-55-12-67 1-33 34-7 97 31 157 33 53 81 107 100 134 1 2-1 3-2 3-39-13-77-26-115-37-51-15-69-33-87 3-61 123 312 240 373 267 12 169 23 338 35 507 20 7 40 14 60 21 101 5 177-59 260-102z"/></g><g fill="none"><path d="m6182 14468c-19-188-64-365 32-541 87-157 226-169 336-28 107 137 116 292 143 460 22 130 58 202-37 309-35 39-78 60-161 72-86 12-151 0-208-35-104-65-95-122-106-237z"/><path d="m6673 14227c-32-168-63-274-155-359-106-99-246-66-323 80-48 91-43 208-33 356 172-21 340-46 510-78z"/></g></g></g></g><g fill="#201e1e"><g stroke="#201e1e" stroke-width="7.62"><g font-family="&apos;MV Boli&apos;" font-size="1387.2"><text x="10500" y="14850" transform="matrix(.95942 0 0 1-8549.33 8229.57)">Texto 01</text><text x="10500" y="14850" transform="matrix(.95942 0 0 1-8496.66 10237)">Texto 02</text></g><path d="m4435 23551c-12-34-17-66-17-97 0-43 18-81 53-114 36-33 80-50 134-50 29 0 55 11 79 32 24 21 36 47 36 75 0 34-15 64-45 91-30 27-79 57-149 89 18 38 52 87 101 147 44-43 77-86 99-131 5-12 14-19 27-19 9 0 17 3 25 10 8 7 12 15 12 24 0 7-3 16-8 27-5 11-18 30-39 55-20 26-44 52-72 80 33 29 69 46 107 50 23 2 35 17 35 45 0 10-3 18-10 24-6 7-14 10-25 10-51 0-105-27-163-81-32 26-66 45-102 60-37 14-71 21-104 21-37 0-73-15-107-44-34-30-51-65-51-106 0-40 15-76 46-109 30-33 76-63 138-90zm68-30c49-23 85-44 108-63 23-19 34-39 34-60 0-10-4-19-11-26-7-8-17-11-30-11-34 0-61 9-82 26-21 17-31 40-31 68 0 19 4 42 11 67zm-44 88l-2 1c-46 21-79 42-99 65-20 22-31 48-31 76 0 24 9 43 28 57 19 14 39 21 61 21 47 0 99-19 154-56-50-58-87-112-111-163z" fill-rule="nonzero"/><text x="10500" y="14850" font-family="&apos;Arial&apos;" font-weight="bold" font-size="708.87" transform="matrix(.93595 0 0 1-6806.82 11693.1)">00.00.0000</text></g><g font-family="&apos;Arial Black&apos;" font-weight="900" font-size="637.98"><text x="10500" y="14850" transform="matrix(.93595 0 0 1-6275.92 5548.15)">NN 1</text><text x="10500" y="14850" transform="matrix(.93595 0 0 1-6275.92 6160.63)">NN 2</text></g></g><path d="m14334 26812c1334 682 3868 551 4637-712 767-1258 593-4827 666-6577 182-4382 643-7705 762-11239 132-3924-2407-6519-5442-7249-4282-1031-4028 5008-3434 8112 312 1667 929 3119 1322 4749 725 3007 68 7597 320 10727 129 1082 472 1799 1168 2189z" fill="#fff"/><g clip-path="url(#1)"><g stroke="#201e1e"><g fill="#201e1e" fill-rule="nonzero" stroke-width="35.28"><path d="m11825 4022c-22-11-44-24-66-40-22-16-44-34-65-54-22-20-42-42-62-65-20-23-39-47-57-73-18-25-35-51-50-77-15-26-29-52-41-77-5-12-8-22-8-32-1-9 0-19 2-29 2-11 5-19 9-27 4-8 11-15 20-21 3-2 6-4 9-7 3-3 4-5 5-8 0-1 0-2-2-3-1-1-3-3-4-4-2-2-3-3-5-5-2-2-3-4-3-7-2-6-2-13-1-21 1-8 2-16 3-23 3-15 8-28 15-41 8-13 17-23 28-32 26-20 55-34 88-40 33-7 66-6 101 1 31 6 64 18 98 36 30 15 59 34 86 56 27 22 52 46 74 73 22 27 42 56 59 86 17 31 30 63 41 96 10 33 17 66 20 100 3 34 1 68-5 101-6 31-15 58-28 81-13 23-30 41-49 55-19 14-41 23-65 27-24 4-49 4-77-2-12-2-23-6-35-9-11-4-23-9-35-15zm46-76c15 7 28 11 40 14 17 4 33 3 47 0 14-4 27-10 37-20 11-10 20-22 27-38 7-15 13-33 16-52 4-23 5-47 3-72-2-25-8-50-17-75-9-25-20-50-34-75-14-25-31-48-51-71-20-22-42-43-66-63-24-19-51-37-80-51-10-5-22-10-33-14-12-4-23-7-34-9-18-4-35-5-52-4-17 1-33 5-47 12-14 7-27 18-37 32-10 14-18 33-22 56-1 3 0 6 3 8 2 2 5 5 9 8 3 2 6 5 10 8 3 3 6 6 8 10 2 4 4 9 5 14 1 6 1 12-1 19-1 6-3 10-6 14-3 4-7 7-12 11-2 2-4 3-5 4-1 1-2 2-3 4-1 3 0 7 2 12 1 5 4 11 6 16 3 6 5 11 8 17 3 5 5 10 8 13 17 27 37 54 58 81 21 27 44 53 67 77 23 24 48 46 72 66 25 20 49 35 73 46zm78-1023c-3 11-5 24-4 38 1 14 4 30 8 46 4 16 9 34 16 51 6 18 13 35 20 53 3 9 7 17 9 25 3 8 4 15 5 23 5 7 13 15 23 23 10 9 20 18 32 27 12 9 24 18 36 28 12 9 24 17 35 24 6 4 11 7 17 10 6 3 12 6 18 10 6 3 13 8 20 12 7 4 15 10 24 15 5 4 9 8 11 12 2 5 4 9 5 14 0 4 1 8 0 12-1 4-1 6-2 8-4 12-9 21-17 27-8 6-19 6-35 1-4-1-8-3-13-5-5-2-9-5-15-8-26-17-49-32-70-47-21-14-40-28-57-41-17-13-33-26-48-39-15-13-30-26-45-39-15-13-31-27-47-41-16-14-34-30-54-46-4-4-7-10-8-19-1-9 0-18 3-28 4-12 9-21 17-27 7-6 16-7 25-4 1 0 2 1 5 3 2 1 4 3 7 5l40 37c-6-17-11-34-17-52-5-18-10-36-13-53-3-18-5-35-5-52 0-17 2-33 6-48 9-30 24-51 45-63 20-12 47-12 79-1 18 6 38 17 59 32 21 15 44 32 67 52 24 20 48 40 74 62 26 22 52 43 80 64 7 6 14 11 18 16 5 5 8 10 10 15 2 5 3 11 3 17 0 6-1 13-4 21-4 12-8 20-14 23-6 3-13 3-23 0-8-3-18-8-29-15-11-7-23-15-36-25-13-10-26-21-41-33-14-12-29-25-43-38-12-11-24-21-35-32-12-11-23-20-35-29-11-9-22-17-33-24-11-7-21-12-31-15-9-3-18-4-26-2-8 2-14 9-18 20zm305-152c-12-13-24-27-35-42-11-15-21-32-30-50-9-18-17-38-23-59-6-21-11-44-14-69-2-17-3-34-4-52-1-18 0-35 2-51 2-17 5-33 9-48 4-15 10-29 17-42 5-9 11-17 16-24 6-6 12-12 18-17-8-9-29-32-62-71-34-39-82-90-145-155-5-8-9-16-11-25-2-9 0-17 4-25 3-6 7-11 11-16 4-5 8-8 14-11 5-2 11-3 17-3 6 1 13 3 21 8l273 292c8 8 19 19 33 31 14 12 29 25 45 38 16 13 32 25 48 37 16 12 30 21 42 29 15 10 29 21 41 34 5 6 10 11 13 16 3 5 5 9 7 14 1 5 1 10-1 16-1 5-4 12-8 19-5 8-9 14-13 18-4 4-8 6-12 6-4 0-8 0-12-2-4-2-8-4-12-7-4-2-9-5-13-7-5-2-10-4-15-4 0 5 0 11 0 19 0 8 0 17 0 25 0 8 0 16 0 24 0 7 0 13 0 16 0 9-1 19-2 29-1 11-2 22-4 34-2 12-5 23-9 35-4 12-9 23-14 34-7 13-16 24-27 33-11 9-23 16-37 21-14 4-28 5-44 3-16-2-32-9-49-20-6-4-12-8-18-13-6-5-12-10-18-17zm38-76c7 7 14 14 21 18 8 5 15 9 23 12 8 3 15 4 22 4 7-1 14-3 21-8 7-4 13-12 19-22 3-6 6-12 7-20 2-8 3-16 4-24 1-8 1-16 1-24 0-8 0-14 0-20 0-15-1-29-3-43-1-13-3-26-7-38-3-12-8-24-14-35-6-11-14-23-24-34-9-10-17-18-25-26-8-8-15-15-23-22-7-7-15-14-23-21-8-7-17-15-27-23-2 0-5 1-8 3-3 2-6 5-8 10-6 11-12 25-16 41-4 16-7 33-8 52-1 19-1 38 1 58 2 20 5 40 11 59 5 19 12 38 22 56 9 18 20 34 34 48zm241-433c-10-10-16-21-18-33-2-12 0-24 5-36-3-8-6-18-10-32-4-14-7-30-11-48-3-18-5-38-6-58-1-21-1-42 2-63 3-21 7-42 15-62 7-20 18-38 32-55 12-14 24-25 36-33 12-8 24-12 36-13 12-1 23 0 34 4 11 4 21 11 30 20 8 8 14 16 20 25 10 16 16 33 18 52 2 19 1 38-2 58-3 20-9 39-17 59-8 20-16 39-26 57-9 18-19 35-29 50-10 16-19 29-26 40 2 6 6 13 11 21 5 8 11 14 17 20 13 13 29 17 46 13 17-4 34-16 51-36 10-12 18-24 24-37 7-13 12-26 16-39 4-13 8-26 10-39 3-13 5-25 6-36 2-14 4-27 7-39 3-12 7-21 12-27 5-6 10-9 14-8 4 1 8 3 11 6 2 2 4 4 5 5 2 2 3 3 4 5 5 7 9 15 12 25 3 10 4 19 4 29-3 44-11 83-26 118-15 35-35 68-61 98-5 6-11 13-19 20-7 7-16 14-25 21-9 7-19 12-31 17-11 5-22 7-34 7-12 0-24-2-37-7-13-5-26-14-39-27-11-10-22-24-32-40-3 3-7 4-12 5-5 0-10-2-15-7zm99-324c-1-2-2-3-3-4-1-1-2-2-3-3-6-6-13-8-20-6-7 2-14 6-20 13-9 11-16 24-19 40-4 16-5 32-5 49 0 17 2 33 5 49 3 16 7 29 11 41 14-19 25-38 35-55 9-18 16-35 21-50 5-16 7-30 7-42 0-13-3-23-8-31zm945-156c-1 1-3 1-4 2-1 0-2 1-3 1-6 2-12 2-18 0-5-2-11-4-15-8-5-4-8-7-11-12-3-5-5-9-6-14-3-6-7-15-13-27-6-12-12-25-19-40-7-15-15-31-23-48-8-17-16-35-24-52-8-17-15-34-23-51-7-17-13-32-19-46-4-10-8-19-12-28-4-9-8-17-11-25-3-8-7-15-9-23-3-8-5-15-7-24-2-9-3-18-3-27 0-9 1-17 3-24 2-7 5-13 9-19 4-5 9-9 15-10 12-3 22-3 31 2 9 4 16 11 22 21 6 10 12 21 17 34 5 13 10 27 14 42 6 18 12 38 20 59 8 21 16 42 24 63 8 21 17 41 25 60 8 19 16 36 22 51 7-13 18-39 32-79 7-20 14-38 20-55 6-17 12-33 17-48 5-15 10-30 15-45 5-15 9-30 13-46 4-16 7-32 11-50 3-17 6-37 9-58 1-4 3-9 5-14 2-5 5-10 8-14 3-5 7-9 12-12 5-4 10-6 17-8 14-4 24-2 31 4 7 6 11 15 14 26 4 15 5 31 3 46-2 16-6 33-13 52l-138 377c-2 11-5 20-8 28-3 8-6 14-10 19-4 5-7 9-10 12-3 3-7 5-9 7zm309-269c5-20 12-42 23-64 10-23 23-45 40-68 16-23 36-45 58-67 23-22 49-42 78-61 5-3 12-6 22-9 10-3 20-5 30-6 12-14 29-20 49-20 24 0 45 7 61 21 16 13 30 32 41 54 3 7 6 15 9 22 3 7 5 15 7 22 2 8 3 16 4 25 1 9 2 19 1 30 0 26-5 53-13 80-8 27-20 53-34 79-15 26-33 50-53 74-21 23-44 44-69 63-17 13-36 22-56 29-21 7-43 10-68 9-24 0-45-4-62-11-17-7-32-17-43-30-11-13-20-28-25-46-5-18-8-37-8-59 0-21 3-43 10-67zm77 8c-2 8-3 15-4 22-1 7-1 13-1 20 0 11 1 21 3 31 2 10 7 18 12 25 6 7 13 12 22 16 9 4 20 6 32 6 24 0 46-5 66-18 21-13 39-28 55-47 16-19 30-39 41-61 11-22 19-42 24-61 3-12 6-23 8-33 2-10 3-20 3-28 0-9-1-17-4-24-3-8-7-16-11-25-3-6-5-12-8-18-3-6-5-12-7-18-3 5-5 9-8 12-3 3-7 7-13 9-6 3-13 5-23 7-10 2-22 4-38 5-10 3-21 9-32 16-11 7-21 16-31 26-10 10-20 21-30 33-9 12-18 24-25 36-8 12-14 24-20 36-6 12-10 23-12 33zm464 9c10-24 24-48 40-73 16-25 35-49 56-71 21-22 44-42 68-60 25-17 50-30 77-39 9-3 18-5 28-5 10 0 20 0 29 2 10 2 19 5 28 9 8 4 15 9 21 14 5 6 9 13 12 21 2 8 3 17 1 28-1 8-4 16-7 23-4 8-8 14-14 20-5 5-12 10-19 12-7 3-15 3-24 1-7-1-13-4-18-8-5-4-10-8-15-12-2-3-5-5-7-7-2-2-5-4-8-6-13 3-26 9-39 16-13 7-25 16-36 26-12 10-22 20-32 32-10 12-20 24-28 36-9 12-16 24-23 36-7 12-12 23-17 33-4 7-7 16-11 25-4 10-6 19-8 29-1 7-2 13-2 19 0 6 1 12 3 17 2 5 5 9 9 13 4 4 9 6 16 7 11 2 22 3 33 2 11-1 22-2 33-5 11-3 22-6 32-10 11-4 21-8 31-13 7-3 13-6 20-9 7-3 13-6 19-8 6-2 11-4 16-5 5-1 9-1 12-1 5 1 9 3 12 6 3 3 5 8 4 14-1 4-3 9-5 14-7 12-14 22-24 31-9 9-19 16-30 22-10 6-21 11-33 15-11 4-23 8-34 11-21 7-42 11-62 12-20 1-37 1-50-2-4-1-9-2-15-4-6-2-10-5-14-8-23-17-38-36-46-57-8-22-9-46-4-72 2-12 5-23 9-36 4-12 9-25 15-38z"/><path d="m14824 1609c3-14 10-25 19-33 9-8 20-12 32-12 5-6 12-14 22-25 10-10 21-21 35-33 14-11 29-23 45-33 16-11 34-20 53-28 19-7 38-13 58-15 20-3 40-1 61 4 17 5 32 11 44 19 12 8 21 17 28 27 6 10 11 22 12 34 2 12 1 25-2 38-3 11-6 21-11 30-8 17-20 31-35 41-15 11-31 19-49 25-18 6-37 10-57 12-20 2-40 3-59 2-19 0-38-2-55-4-18-2-33-4-45-6-4 5-8 12-12 20-4 8-7 17-9 25-4 19-1 35 11 49 11 14 29 24 54 31 14 4 28 6 42 6 14 0 27-1 40-3 13-2 25-5 37-9 12-4 23-7 32-11 13-5 25-9 35-11 11-3 20-3 28-1 8 2 12 5 13 10 1 5 1 9 0 14-1 3-1 5-2 7-1 2-1 4-2 6-4 8-8 16-15 23-7 7-14 13-22 17-38 18-74 28-110 31-36 2-72-1-110-11-7-2-16-5-25-8-10-4-19-8-29-14-10-6-19-13-28-21-9-8-16-18-22-29-6-11-10-24-12-39-2-15-1-31 4-50 4-15 9-32 18-49-4-2-7-5-10-10-3-5-3-10-1-18zm315-58c1-1 2-3 2-4 0-1 1-3 1-4 2-9 1-16-4-22-5-6-12-10-20-12-13-4-27-3-42 1-15 4-29 10-43 18-14 8-27 17-38 28-12 10-21 20-28 29 22 4 43 6 62 7 19 0 36-1 51-4 15-3 28-8 38-14 10-6 18-13 22-22zm-101-261c2-3 3-6 4-8 1-2 2-4 3-5 1-1 2-3 4-4 2-1 4-3 7-5l5-3c23-11 45-22 66-33 21-11 42-22 63-33 32-18 66-36 101-53 5-2 10-2 13-2 3 0 6 1 9 1l8 2c10 3 18 7 23 12 5 6 9 12 11 19 2 7 2 15 2 24-1 9-2 17-4 26-1 5-2 9-3 13-1 5-2 9-4 13l-1 5c-1 3-2 6-3 8-1 3-2 5-2 7 0 2-1 3-1 5 0 1-1 3-1 4l1-1c0 1 0 4 0 8 0 4-1 8-1 13 0 5-1 9-1 13 0 4-1 7-1 9 0 1 0 2-1 4 0 2 0 4-1 6 0 2 0 5-1 8-2 4-5 8-9 11-4 3-8 6-12 8-5 2-9 3-14 4-5 1-10 0-14-1-5-1-8-3-11-5-2-2-5-5-7-9l-1-1-3-5c-2-7-3-15-3-24 0-9 0-18 2-27 1-9 2-18 4-27 2-9 4-18 5-26l-7 1-10 4c-5 2-13 5-23 10-10 5-21 9-32 14-11 5-22 10-32 14-10 4-18 8-23 10l-34 19c-3 1-6 3-10 4-4 1-8 2-12 3-4 1-8 1-12 1-4 0-7 0-9-1-3-1-7-2-11-4-4-2-7-3-11-5-3-2-6-5-8-7-2-3-2-6-1-10 0-2 1-3 1-4zm715 868c-7-3-13-7-18-12-5-5-8-11-10-18-2-7-3-14-3-21 0-7 1-15 4-22 2-5 4-11 8-17 3-6 8-13 13-21 2-4 6-9 10-17 4-8 9-16 15-26 5-10 11-20 17-31 6-11 12-21 17-32 5-10 10-20 14-29 4-9 7-17 9-23 1-4 2-7 2-8 1-5-1-9-6-13-5-4-11-8-17-13-6-5-11-10-15-17-4-7-4-15-1-25 3-8 7-16 14-22 6-6 13-10 20-10 8-1 16 0 25 3 8 3 17 5 26 7 5 1 9 0 13-5 4-5 7-9 10-14 8-13 18-27 27-42 10-15 20-30 32-46 11-15 23-30 35-44 12-14 25-26 38-37 20-14 40-26 61-37 21-11 42-19 63-25 21-6 43-8 64-8 22 0 43 5 65 13 26 10 46 23 59 39 13 16 22 35 26 58 1 5 1 10 0 15-1 5-2 10-3 14-3 8-7 16-11 22-5 6-10 12-16 16-6 4-12 7-18 8-6 1-12 1-18-2-8-3-13-7-17-12-3-5-5-11-6-17-1-6-1-13-1-19 0-7 1-13 0-19 0-6-1-11-3-16-2-5-6-8-12-11-6-2-13-4-21-5-8-1-16-1-24 0-21 3-41 8-61 14-20 7-39 17-58 31-20 14-39 32-60 56-20 23-42 53-65 90 0 1-1 1-2 2-1 1-1 1-1 2 0 1 1 1 3 2 9 3 17 6 26 8 8 2 17 4 25 6 8 2 17 3 25 5 8 2 17 5 26 8 7 3 13 5 19 8 6 3 10 6 14 10 4 4 6 8 7 13 1 5 1 10-1 16-1 4-3 8-6 13-3 5-6 10-10 14-4 4-8 8-13 10-5 3-10 4-15 3-9-2-19-4-29-6-10-2-20-5-32-8-12-3-25-6-39-8-14-3-31-5-49-6-12 19-24 39-33 58-10 20-19 39-28 59-9 20-18 40-28 60-10 20-20 39-32 58-2 4-5 7-9 10-4 3-8 6-12 8-4 2-9 3-13 4-5 1-9 0-14-2zm366-98c12-16 27-33 44-49 18-17 38-32 61-46 23-14 50-27 78-38 29-11 60-18 94-23 5-1 13 0 23 0 10 1 20 3 30 7 17-7 34-7 53 2 22 11 38 26 49 45 10 19 16 42 17 67 0 8 0 16 1 24 0 8-1 16-2 23-1 8-3 16-5 25-2 9-6 18-10 29-10 24-24 47-41 68-17 21-38 41-61 58-23 18-48 33-76 45-28 13-57 23-86 29-20 4-41 6-62 3-21-2-44-9-66-20-22-10-40-23-53-36-13-14-23-29-29-46-6-17-8-34-7-53 1-19 6-38 15-58 8-19 19-38 33-58zm68 40c-5 6-9 12-12 18-3 6-6 12-9 18-4 10-7 20-8 30-1 10 0 19 2 28 3 9 8 17 14 24 7 7 16 14 28 19 22 10 44 14 67 11 24-3 46-10 68-20 22-11 42-24 60-39 18-15 33-31 44-46 7-9 13-18 19-27 6-9 10-17 14-25 3-8 5-16 5-24 0-8 0-17-1-28 0-6-1-13-1-20 0-7 0-13 0-20-4 3-8 6-12 8-4 2-9 3-15 3-6 0-14-1-24-3-10-2-22-6-37-11-11-1-22 0-35 2-13 2-25 6-39 11-13 5-26 11-39 18-13 7-25 15-36 23-11 8-22 17-31 25-10 8-17 17-23 25zm340 315c14-18 30-38 47-60 17-22 35-44 53-66 18-22 35-44 53-65 17-21 33-41 46-59 1-3 2-6 4-8 1-2 2-4 4-7 5-9 10-18 16-26 6-8 11-16 17-22 9-9 16-15 22-17 6-2 13 0 21 5 8 5 13 10 16 16 3 6 4 13 4 20 0 7-2 15-5 22-3 8-6 15-10 23-2 4-5 9-7 13-3 5-5 9-7 12 12-4 25-8 38-12 13-4 26-6 40-8 13-1 27-1 40 0 13 2 26 6 37 13 5 3 9 6 13 9 4 4 8 7 12 12 5 5 9 10 14 16 5 6 8 13 12 20 5 13 8 26 9 41 0 14-2 27-8 39-2 4-6 9-10 13-4 4-9 8-14 10-5 2-10 4-15 4-5 1-10-1-15-3-5-3-10-7-15-14-5-6-9-13-11-20-1-3-2-6-2-11 0-5-1-9-1-13 0-4 0-8 0-12 0-4 0-6-1-7-1-1-3-2-4-3-1-1-3-2-4-3-14-8-29-12-45-12-16 0-33 2-49 7-17 4-33 10-48 17-16 7-29 13-41 19-18 20-37 42-57 65-20 23-41 46-63 72l-6 11c-5 9-9 17-15 26-5 9-11 16-17 21-5 3-12 4-19 3-7 0-14-3-22-7-11-7-18-16-19-27-2-11 0-23 6-33 3-5 6-10 10-14zm980 626c-15-1-32-3-52-5-19-3-38-6-58-10-19-4-37-9-54-15-17-6-30-12-40-20-26-20-41-41-46-64-4-23 1-46 17-69 4-5 8-11 12-16 5-5 9-10 14-15 20-18 44-35 70-51 27-16 54-29 82-40 28-10 57-18 85-21 28-4 54-2 77 4 14 3 32 11 54 23 22 12 50 30 85 53 6-4 12-9 17-13 5-4 11-7 16-10 6-2 12-3 18-3 6 0 14 2 22 5 12 9 19 19 20 29 1 10-3 23-13 38-1 2-3 4-5 7-2 3-4 5-6 7-5 4-13 12-23 22-11 10-23 21-37 34-14 13-28 26-44 41-15 14-30 28-44 41-14 13-26 25-38 35-11 11-19 18-24 24-11 11-28 28-49 49-21 21-47 48-76 80-16 18-31 33-44 47-13 14-23 24-29 30 0 5-2 11-4 18-2 7-5 12-7 17l-4 4c-3 3-8 6-13 8-5 2-11 3-17 3-6 0-12 0-18-2-6-2-11-4-16-8-7-5-12-10-14-16-3-6-5-12-5-18 0-6 1-13 3-19 2-6 5-13 9-19 2-4 5-7 8-10 3-3 6-6 8-9 29-32 58-61 84-88 27-27 52-52 75-75l1-3zm-144-164c-4 4-7 7-9 11-5 8-7 16-6 24 1 8 5 15 13 20 11 9 27 16 48 21 20 6 43 11 68 15 13 2 26 4 38 5 12 1 23 2 32 2 9 0 17 0 22 0h8l105-102c1-1 2-2 3-4 2-4 3-8 1-12-2-4-4-8-9-11-25-19-46-32-63-39-16-7-30-10-41-10-21 1-40 3-58 5-18 3-36 7-52 13-17 6-33 14-49 24-16 10-32 22-49 37zm613 124c4-3 8-5 13-7 4-1 8-2 11-2 3 0 6 0 8 1 2 1 4 2 5 2 3 2 5 6 8 9 3 4 6 8 9 11 3 4 6 8 9 12 6 6 8 13 7 20-1 7-5 15-11 22-4 6-9 10-15 13-33 24-63 45-88 62-26 17-47 32-65 44-18 12-32 22-43 30-11 8-18 15-23 20-4 5-8 12-12 20-4 8-7 16-9 24-2 8-2 16-2 23 1 7 4 14 10 19 10 9 22 15 38 18 15 3 32 4 48 3 17-1 33-3 49-7 16-4 30-8 41-12l23-8c14-5 29-13 45-22 16-9 31-19 46-30 15-10 28-20 41-30 12-10 22-18 30-24l50-41c10-8 18-12 25-12 7 0 15 4 24 13 6 5 11 11 14 17 4 6 6 12 6 18 0 7-1 14-4 21-3 7-9 16-16 25-9 11-21 22-37 35-16 13-32 25-49 37-10 7-20 15-31 24-11 8-21 17-31 26-10 9-20 18-28 26-9 8-16 16-22 24-10 13-20 26-30 39-10 14-20 28-32 42-5 7-10 12-15 17-4 5-8 8-11 10-11 8-20 12-28 13-8 1-17-3-27-12-7-6-12-12-14-18-3-5-4-10-4-15 0-5 1-9 3-13 2-4 4-8 7-12l54-75-4-2c-16 3-34 7-54 12-20 4-40 7-60 8-20 1-40-1-59-5-19-4-37-14-52-28-3-3-6-7-10-13-4-6-7-13-10-20-3-7-6-15-8-22-2-7-4-14-4-19-3-25 0-48 8-69 8-21 18-40 32-57 8-9 16-18 25-26 9-8 18-15 27-22 9-7 18-13 26-19 9-6 16-11 22-15 20-15 37-27 52-39 15-11 28-21 40-29 11-8 21-15 29-21 8-6 15-11 21-15zm171 520c9-10 20-16 32-18 12-2 23 1 33 7 7-3 18-6 31-9 13-3 29-6 46-9 17-2 35-4 55-4 19 0 39 2 58 5 20 4 39 10 57 19 18 9 35 21 50 37 13 14 22 27 29 41 6 13 10 26 11 39 1 12-1 24-6 36-5 11-11 22-20 31-7 8-16 14-24 20-15 10-32 15-49 16-18 1-36-1-54-6-18-5-36-12-54-21-18-9-35-19-52-30-16-11-32-22-45-33-14-12-26-21-36-30-6 2-13 6-20 11-7 5-14 10-20 17-13 14-18 30-14 48 3 18 14 37 31 56 10 11 21 20 33 28 12 8 24 14 36 19 12 5 24 9 36 13 12 3 23 6 33 8 13 3 25 6 36 10 11 4 19 9 24 15 6 6 8 11 6 16-1 5-3 9-6 12-2 2-4 4-5 5-2 2-3 3-5 4-7 5-15 9-24 11-9 3-18 3-27 2-41-5-77-16-109-34-32-18-61-41-89-70-5-6-11-13-18-21-6-8-12-18-18-28-6-10-10-21-14-34-4-12-5-24-5-37 0-13 3-26 9-40 5-13 14-27 27-41 10-11 23-22 39-32-2-4-4-8-4-13 0-5 2-11 7-16zm298 123c2-1 3-2 4-3 1-1 2-2 3-3 6-6 8-13 7-21-2-8-5-15-11-22-10-10-22-18-36-23-14-5-29-7-45-8-16-1-31 0-46 3-15 3-28 6-39 9 17 16 34 29 50 40 16 11 31 19 46 25 14 6 27 9 39 9 12 0 22-2 30-7z"/><path d="m18399 3999c19-11 41-24 65-37 24-13 48-26 72-40 24-13 48-26 72-39 23-13 45-25 64-36 2-2 4-4 6-6 2-2 4-3 6-5 8-7 15-12 24-18 8-6 16-10 24-14 11-5 20-7 26-7 6 1 12 5 18 13 6 8 9 15 9 22 1 7 0 14-3 20-3 6-7 13-12 19-5 6-11 12-17 17-3 3-7 6-12 9-4 3-8 6-10 8 12 1 25 3 39 4 14 2 27 5 40 9 13 4 25 10 37 16 12 7 22 16 30 27 3 4 6 9 9 14 2 5 5 10 7 16 3 6 5 13 7 20 2 7 3 15 4 23 0 14-2 28-6 41-5 14-12 25-21 33-4 3-8 6-14 8-5 2-11 3-16 4-6 0-11 0-16-2-5-2-9-5-13-9-3-4-6-11-9-19-3-8-4-16-4-23 0-3 1-7 2-11 1-4 2-8 4-12 1-4 3-8 4-11 1-3 2-6 2-7-1-2-2-3-3-5-1-2-2-3-3-4-10-13-23-23-38-29-15-6-31-11-48-13-17-3-34-4-51-3-17 0-32 1-45 1-24 12-49 24-76 37-27 13-55 27-84 41l-9 8c-7 6-15 12-23 18-8 6-16 10-23 13-6 0-12-1-19-4-6-3-12-8-18-15-8-11-11-22-9-33 3-11 8-21 17-28 4-4 9-7 14-9zm355 268c18-7 39-12 62-16 23-4 48-5 75-3 27 2 55 6 85 14 30 8 60 20 91 35 5 3 11 7 19 14 8 7 15 15 21 23 18 3 32 14 43 33 13 22 19 44 18 66-1 22-8 44-20 66-4 7-8 14-12 20-4 6-8 13-13 19-5 6-11 12-17 18-6 6-14 12-23 18-21 14-44 26-69 33-26 8-52 12-81 14-28 1-57-1-87-6-30-5-59-14-87-26-19-8-37-19-54-34-17-14-32-33-46-55-13-22-22-42-26-62-4-19-5-38-1-55 4-17 11-33 21-48 11-15 25-28 42-40 16-11 35-21 57-29zm37 73c-7 2-13 5-19 8-6 3-11 6-16 10-9 6-16 13-22 20-6 7-10 16-12 25-2 9-2 19 0 29 2 10 6 21 13 32 13 21 30 38 51 49 21 11 44 19 67 23 24 4 47 4 70 2 23-2 43-7 60-13 11-4 21-8 30-11 9-4 17-8 24-13 7-5 12-11 17-17 4-7 9-15 14-24 3-5 6-11 9-17 3-6 7-11 10-16-5 0-10 0-14 0-4-1-9-3-14-6-5-3-11-9-19-16-7-7-15-18-25-31-8-7-19-13-30-19-12-5-24-10-38-13-14-4-28-6-42-8-14-2-28-2-42-2-14 0-27 1-39 3-12 2-23 4-32 8zm400 889c1 2 2 5 2 7 0 2 0 5 1 7 0 3 1 6 1 9 1 3 2 7 4 12 6 14 14 30 24 46 10 16 20 31 31 45 11 14 21 25 32 33 10 8 19 12 26 11 4-1 7-2 10-3 5-2 9-7 11-14 2-7 4-15 5-25 1-9 1-19 1-30 0-10 0-20 0-29v-18c0-9 0-19 1-28 1-10 3-19 6-28 3-9 7-18 12-26 5-8 12-16 21-23 3-3 7-6 11-9 4-2 8-5 12-7 7-3 17-5 29-4 12 1 24 4 37 9 13 5 26 11 39 18 13 8 25 16 36 26 10 7 19 13 27 19 8 6 16 13 23 20 7 7 13 15 19 23 6 8 10 17 14 27 4 9 7 19 11 30 3 11 5 22 6 32 0 10-1 20-5 29-4 9-11 15-21 20-3 1-8 3-13 4-6 1-11 2-17 2-6 0-12 0-16-2-5-1-8-4-10-8-3-7-4-13-3-19 1-6 2-11 3-16 2-5 3-10 4-15 1-5 0-11-2-17-3-7-7-15-13-23-6-8-13-16-21-24-8-8-17-15-26-22-9-7-18-13-27-18-9-5-17-8-24-10-7-2-13-2-18 0-5 2-8 6-10 10-2 5-3 10-3 17-1 8-1 18-1 28 0 10 0 21 0 31 0 10 0 21 0 31 0 10 0 19-1 26-1 10-2 19-3 28-1 8-3 16-6 23-3 7-6 13-11 17-5 5-11 9-19 13-4 2-8 3-12 4-4 1-9 2-14 3-5 1-10 2-17 2-7 0-13 0-20 0-7 0-13 0-18-1-5-1-9-2-11-3-15-7-30-17-46-29-15-12-30-25-44-40-14-14-26-30-37-45-11-16-19-31-25-46-3-7-5-16-6-26-1-10 0-20 1-29 2-10 4-18 8-26 4-8 9-13 14-15 3-1 6-2 11-2 4 0 9 1 13 2 4 1 8 3 11 5 3 2 6 5 7 8zm238 341c13-5 24-5 36-2 11 4 20 11 27 22 8 1 18 3 31 6 13 3 28 7 45 13 16 6 33 13 51 21 18 9 35 19 51 31 16 12 31 27 44 43 13 16 23 35 31 56 6 18 10 35 10 50 1 15-1 28-6 40-4 11-11 21-19 30-9 8-19 15-31 19-10 4-20 6-30 7-18 2-35-1-51-8-16-7-32-17-46-29-15-13-28-27-41-43-13-17-24-34-35-51-10-17-20-34-28-51-8-17-15-31-20-43-6-1-14-1-23 0-9 1-17 3-25 6-17 7-28 19-32 37-5 18-2 40 6 65 5 15 11 28 19 40 8 12 16 23 25 34 9 10 18 19 27 28 9 8 18 16 27 23 11 8 20 17 29 25 8 8 14 16 16 24 3 8 3 13 0 17-3 4-6 6-11 8-2 1-5 2-7 2-2 1-4 1-6 2-8 1-17 1-26 0-9-2-18-5-26-10-35-23-64-50-85-80-22-30-39-65-53-103-3-8-5-16-8-27-3-10-4-22-6-34-1-12-1-24 1-37 1-12 5-24 10-36 5-12 13-22 24-32 10-10 24-18 41-25 14-5 30-9 48-12-1-4 0-9 2-14 2-5 6-9 13-11zm221 246c2 0 3 0 4-1 1 0 2-1 4-2 8-3 13-8 15-16 2-8 1-16-2-25-5-14-13-26-24-37-11-11-24-20-38-28-14-8-28-14-43-19-15-4-27-7-39-9 9 22 19 41 30 59 10 17 21 32 32 43 11 12 21 20 32 26 10 6 20 8 29 7zm-182 296c22-1 46-3 73-4 27-1 54-3 81-4 27-1 54-2 80-3 26-1 50-3 72-4 3-1 6-2 8-3 2-1 5-1 7-2 9-3 19-4 29-6 10-1 19-2 27-2 12 0 21 2 26 6 5 3 9 10 11 19 2 9 2 17 0 24-2 7-6 12-11 17-5 5-11 9-18 11-7 3-15 6-23 8-4 1-9 2-14 3-5 1-9 2-12 3 11 7 22 14 34 22 12 8 22 16 32 26 10 10 19 20 27 31 8 11 13 24 17 38 1 5 2 11 2 17 0 6 0 11 0 17 0 7 0 14-1 22-1 8-3 15-6 23-5 13-12 24-22 34-10 10-20 17-32 20-4 1-10 2-15 1-6 0-11-2-16-4-5-2-10-5-14-9-4-4-7-8-8-14-1-5-2-12-1-21 1-9 2-16 6-22 1-3 3-6 6-9 3-3 6-7 8-9 3-3 5-6 8-8 2-2 4-4 5-5 0-2 0-4 0-6 0-2-1-4-1-5-4-17-11-31-23-44-11-13-24-24-38-34-14-10-29-19-44-26-15-7-29-14-41-19-26 0-54 0-83-1-29-1-60-1-92 0l-11 3c-9 2-18 5-28 6-9 2-18 2-26 1-5-2-10-7-15-12-5-6-8-13-10-22-3-14-1-25 5-34 7-9 16-15 27-18 5-1 11-2 16-2zm219 915c0 3 0 5 0 7 0 2-1 5-1 7 0 3-1 6-1 9 0 3 0 8 1 13 2 16 5 33 11 51 5 19 11 36 18 52 7 16 14 30 22 41 8 11 15 17 22 18 4 1 7 1 10 0 5-1 10-4 14-10 4-6 8-14 11-22 3-9 6-18 9-28 3-10 5-19 7-28l5-18c2-9 5-18 8-27 3-9 8-17 13-25 5-8 11-15 18-22 7-6 16-12 26-16 4-2 8-4 13-5 4-1 9-2 14-3 8-1 18 1 28 5 11 5 22 11 33 19 11 8 22 18 33 29 11 11 20 23 28 36 8 9 15 18 21 26 6 9 12 17 17 26 5 9 9 18 12 28 3 9 5 20 7 30 1 10 2 21 2 32 0 12-1 23-3 33-2 10-7 19-12 26-6 7-14 12-25 13-3 0-8 1-14 0-6 0-11-1-17-3-6-2-11-4-15-7-4-3-7-6-7-11-1-8 0-14 2-19 2-5 5-10 7-15 3-4 5-9 8-14 2-5 3-10 2-16-1-8-3-16-7-26-4-10-9-20-14-29-6-10-12-20-19-29-7-9-14-18-21-25-7-7-14-13-21-17-7-4-12-6-17-5-5 1-9 3-12 7-3 4-5 9-7 15-3 8-6 17-8 26-3 10-5 20-8 30-3 10-5 20-8 29-3 10-5 18-8 25-3 10-7 18-10 26-3 8-7 14-12 20-4 6-9 10-15 13-6 4-13 6-21 7-4 1-8 1-12 1-4 0-9-1-14-1-5 0-10-1-17-3-6-2-13-4-19-6-6-2-12-4-17-7-5-2-9-4-10-6-13-12-25-25-37-41-12-16-22-33-32-51-9-18-17-36-24-55-6-18-11-35-12-51-1-8 0-17 1-27 2-10 5-19 8-28 4-9 9-16 14-22 6-6 12-10 18-11 3 0 7 0 11 2 4 2 8 4 12 6 4 3 7 5 9 9 3 3 4 6 5 9zm142 397c13-1 25 2 35 9 10 7 17 16 21 29 7 3 17 8 29 15 12 7 25 15 40 26 14 10 29 22 44 35 15 13 28 28 41 45 12 17 23 35 31 54 8 20 13 41 15 63 1 19 0 36-3 51-3 15-9 27-16 37-7 10-16 17-26 23-11 5-22 9-34 10-11 1-21 0-30-2-18-3-33-11-47-22-14-12-26-26-37-42-11-16-20-34-28-54-8-20-15-39-20-59-6-20-10-39-14-57-3-18-6-34-8-48-6-3-13-5-22-6-9-1-17-2-25-1-18 1-31 10-40 26-9 16-13 37-11 64 1 16 4 30 8 44 4 14 9 27 15 40 6 12 12 24 19 35 7 11 14 21 20 30 8 11 15 22 21 33 6 10 9 20 10 28 1 8-1 14-5 16-4 3-8 4-12 5-3 0-5 0-7 0-2 0-4 0-6 0-8-1-17-4-25-8-8-5-16-10-22-17-28-33-48-66-61-102-13-36-21-74-24-115-1-8-1-17 0-28 0-11 1-22 3-34 2-12 5-23 10-35 5-12 11-22 19-32 8-9 18-17 31-24 12-6 27-10 46-12 14-1 31 0 49 3 0-4 2-9 6-13 3-4 8-6 15-7zm149 302c2 1 3 1 4 1 1 0 3 0 4 0 8-1 14-4 18-11 4-7 5-15 5-24-1-15-5-29-13-42-8-14-18-26-29-38-11-12-24-22-36-31-13-9-24-15-35-20 3 24 8 45 13 65 6 20 12 36 19 51 7 14 15 26 24 34 9 9 17 14 26 16zm110 324c5 1 9 3 13 6 3 2 6 5 8 8 2 3 4 5 4 8 1 2 1 4 1 5 0 4 0 8-1 13-1 5-2 10-2 14-1 5-2 11-3 15 0 9-4 15-10 19-6 4-14 6-23 5-7 0-13-1-19-3-39-12-72-23-101-33-29-10-53-18-73-25-20-7-36-12-49-16-13-4-22-6-29-6-7 0-14 1-22 2-8 2-16 4-23 8-7 4-13 8-18 14-5 6-7 12-7 20 0 14 4 28 11 43 8 14 18 28 29 42 11 13 24 25 37 36 13 11 25 20 35 26l21 13c13 8 28 16 45 23 17 7 34 13 51 19 17 5 33 10 48 14 15 4 27 7 36 9l62 14c12 3 20 7 24 13 5 6 7 15 6 28 0 8-1 16-3 22-2 7-5 12-9 17-5 5-10 8-18 10-7 2-17 3-28 3-13 0-30-3-49-8-19-5-39-10-58-16-12-3-24-6-36-10-13-3-26-6-39-9-13-3-25-5-37-7-12-2-22-3-31-3-16 0-32 0-47 1-16 1-33 1-51 1-8 0-15-1-21-1-6-1-11-1-14-2-12-4-21-9-27-15-6-6-9-16-8-30 0-10 1-17 3-23 2-6 5-10 8-13 4-3 7-5 12-6 4-1 8-2 13-2l88-4-1-4c-13-11-27-23-43-37-16-13-31-28-45-44-14-16-25-33-34-52-9-19-14-39-13-60 0-4 1-10 3-17 2-7 5-14 8-21 3-7 7-14 11-21 4-7 8-12 11-16 16-18 34-30 54-38 20-7 40-11 61-10 12 0 23 1 35 4 11 2 23 5 33 8 11 3 21 6 30 9 10 3 18 6 25 8 23 7 44 13 61 18 18 5 33 10 46 14 13 4 25 7 34 10 9 3 18 5 25 7z"/><path d="m19465 8964c25 8 48 15 68 22 21 6 40 12 58 18 18 5 36 10 53 15 17 5 34 10 52 14 17 5 35 10 54 15 19 5 39 11 61 17l107 30c18 5 34 9 47 11 13 2 25 4 36 4 12 1 22 2 31 3 9 1 17 3 23 7 6 3 11 8 14 14 3 6 4 14 4 24-1 15-3 26-8 35-4 8-10 14-16 18-6 4-14 6-22 6-8 0-16 0-25 0 7 12 13 25 18 41 5 15 9 31 12 48 3 17 5 33 7 50 1 17 2 32 1 47-1 24-6 45-15 62-9 18-20 32-34 43-14 11-29 19-47 24-17 5-35 7-54 6-21-1-41-6-60-14-19-8-36-19-52-33-16-13-30-29-44-47-13-18-25-36-36-57-11-20-21-41-29-62-9-21-17-42-23-63-5-14-8-27-10-39-2-12-3-23-2-33 1-14 3-27 6-39 3-13 9-25 16-36-21-8-41-15-60-20-19-6-36-10-51-14-9-2-19-5-29-8-10-3-20-6-30-9-10-3-19-5-27-8-9-3-16-5-22-7-4-1-7-4-9-8-2-4-4-9-6-14-1-5-2-11-3-16-1-5-1-10 0-15 1-25 11-36 29-35 5 0 10 1 16 3zm263 170c-1 5-2 10-3 16-1 6-2 11-4 16-1 5-2 10-3 14-1 4-1 6-1 8 0 6 0 13 1 21 1 8 3 16 5 24 2 8 5 16 7 23 3 7 5 14 8 20 7 17 16 35 26 54 10 19 22 37 35 53 14 16 29 30 46 42 17 11 36 17 58 19 9 0 17 0 24-2 8-2 14-5 20-9 6-4 11-10 14-17 4-7 6-16 6-26 1-11 0-22-1-32-1-10-3-20-5-30-3-10-6-20-11-30-4-10-10-20-16-31-7-10-12-21-17-33-5-12-8-25-8-38l-181-60zm-114 698c9 1 20 3 32 6 12 3 28 6 46 7-7-11-15-24-24-38-9-14-18-28-27-43-8-15-15-30-21-44-5-15-8-28-7-40 1-10 3-19 6-28 3-9 8-16 13-22 14-17 28-28 42-35 14-7 29-10 46-8 8 1 16 2 24 4 8 2 18 5 28 9 48 16 92 41 132 75 40 34 73 75 99 122 10 19 16 37 19 54 2 18 3 35 2 52-1 8-2 16-3 26-2 9-3 18-5 25 1 8 2 14 2 19 0 5 0 10 0 15-1 10-2 18-5 25-3 6-7 11-11 15-4 4-10 6-15 8-6 1-11 2-17 1-8-1-16-3-23-6-7-3-14-7-22-10l-241-84c-13-2-25-4-36-6-11-2-21-5-31-8-3-1-6-3-10-5-4-2-8-4-12-8-4-4-7-8-9-13-2-5-3-12-3-20 1-10 2-18 4-24 2-6 4-11 6-14 3-3 6-5 9-6 3-1 7-1 12-1zm151-155c-4-2-10-4-18-5-8-2-16-4-24-4-8-1-16 0-23 2-7 2-11 8-11 17-1 14 1 27 6 40 5 13 11 24 19 36 10 15 21 30 34 46 13 16 26 31 40 45 14 14 29 27 43 38 15 11 30 20 45 26 9 3 19 6 31 9 12 3 22 5 31 5 4 0 8 0 12-2 4-2 6-5 7-11 1-16-1-33-6-50-5-17-12-33-21-49-9-16-20-31-32-46-13-15-26-28-41-41-15-13-30-23-46-33-16-9-31-17-46-22zm-142 425c21 6 45 13 71 20 26 8 52 15 78 23 26 8 52 16 77 23 25 8 49 14 70 20 3 0 6 0 8 0 2 0 5 0 8 1 10 1 19 2 29 4 9 2 18 4 26 7 12 4 19 9 23 14 4 5 5 12 5 22-1 10-3 17-7 23-4 6-9 10-15 13-6 3-13 4-21 5-8 0-16 0-24 0-4 0-9-1-14-2-5-1-9-1-13-1 8 10 17 21 26 32 9 11 17 23 23 35 7 12 12 25 16 39 4 13 6 27 5 42 0 6-1 11-3 17-1 5-3 11-5 16-2 7-4 13-8 20-3 7-7 13-12 20-9 10-19 19-31 26-12 7-24 9-36 9-5 0-10-2-15-4-5-2-10-6-14-9-4-4-8-8-10-13-3-5-4-10-3-16 0-6 2-12 5-20 3-8 7-14 12-19 2-2 5-4 8-7 4-2 7-4 11-6 3-2 7-4 10-5 3-1 5-3 6-4 0-2 1-4 1-6 0-2 0-4 1-5 1-17-2-33-9-49-7-16-16-31-27-45-11-14-22-27-35-39-12-12-24-23-34-32-25-9-51-18-79-28-28-10-57-20-88-31l-12-1c-9-1-19-2-28-3-9-1-18-4-25-8-4-4-8-10-11-17-3-7-4-15-3-24 1-14 6-24 15-30 9-6 19-9 31-8 5 0 11 2 16 4z"/></g><g fill="none"><g stroke-width="70"><path d="m18195 12628c9-319-95-443-359-635-135-5-270-10-405-15-100 28-201 56-301 85 57 50 114 101 171 151 314 103 613 240 894 414z"/><path d="m18377 12694c-63-7-122 3-147 80-53 166 51 244 213 245 60 0 91-40 109-72 50-88-36-237-176-253z"/><path d="m15225 13624c309-62 620-101 914-142 400-56 802-49 1205-40"/><path d="m15224 13935c335-89 664-157 997-193 354-39 769-26 1125-26"/><path d="m15267 14254c332-71 670-152 996-192 376-46 745-41 1124-44"/><path d="m17231 13147c199 3 312 27 397 93 85 65 143 171 232 336 34 91 67 182 101 273 79 227 154 454 36 689-158 315-421 337-719 376-557 34-1135 28-1692 62-155 1-280-3-395-36-107-30-195-78-263-143-87-84-140-197-154-342 4-155 8-311 12-466 34-117 67-234 101-351 47-88 106-152 171-201 132-98 287-154 449-190 191-42 386-65 581-78 382-27 760-25 1142-20z"/><path d="m14019 14540c9-189-10-371 111-529 108-141 248-130 336 28 86 153 72 308 75 478 2 132 28 209-81 299-40 33-86 47-169 44-86-2-149-25-200-69-93-81-76-136-70-252z"/><path d="m14539 14383c-7-172-22-281-101-381-91-115-233-106-331 26-60 81-72 198-84 346 173 8 342 11 515 8z"/><path d="m13740 15235c1-251-14-542 12-822 33-348 131-679 406-895 268-209 567-316 918-423 452-139 920-221 1434-234 395-3 761 39 1107 142 197 59 389 137 576 239 186 100 315 226 428 372 287 371 389 762 482 1210 6 18 12 36 18 53m-1689 554c-887 105-1803 52-2697 56-96 0-179-6-258-20-115-19-229-49-344-81-114-32-199-58-282-96-115-54-148-101-199-98-71 4-112 41-142 92-60 102-68 171-42 239 21 56 53 98 91 132 73 66 151 106 234 132 138 43 287 47 440 66 306 19 610 48 917 41 916-43 2096 57 3009-177 319-82 616-241 903-326 128-43 382-84 417-249 7-35 3-76-12-132-17-62-45-127-106-148-60-21-185 3-340 50-549 166-1016 452-1589 520z"/><path d="m17481 10581c-114 120-211 237-375 284-70 20-145 23-254 18-239-32-360-74-547-224 27-105 70-199 127-281 43-64 95-119 153-166 73-60 149-105 230-135 127-47 256-64 388-48 110 18 220 44 322 111-25 151-38 291-44 441z"/></g><path stroke-width="7.62" d="m18320 15200l872-341"/><g stroke-width="70"><path d="m15150 15894c-306-14-611-27-917-41 2 203-63 640 112 789 169 143 585 184 734-11 133-174 73-533 70-737z"/><path d="m18308 16431c82 33 179 27 360-21 109-29 243-58 326-134 43-40 73-93 78-166 4-69-19-163-51-262-48-144-114-295-144-394-272 117-553 202-834 291 10 284-27 568 266 687z"/><path d="m18197 13235c55-72 90-165 132-233-426-218-729-316-1203-401-235-42-460-61-682-57-875 13-1688 430-2298 795 1 62 3 112 4 174 286-171 587-304 894-409 464-159 919-202 1389-232 354-23 687 10 1012 90 253 63 501 155 751 273z"/><path d="m14253 13160c-2 70-21 147-107 171 1 5 1 10 2 14 432-252 1021-561 1593-713 219-58 438-93 700-92 606 1 1173 137 1722 381 23 10 46 21 70 31-2-6-5-11-7-17-288-279-494-370-889-469-266-66-537-105-822-113-870-25-1648 472-2260 806z"/><path d="m14169 13058c206-180 501-364 790-517"/><path d="m14024 13299c-21-21-37-46-42-80-6-43 23-85 63-116 40-30 91-49 128-43 99 16 142 171 61 235-30 23-70 37-114 37-38 0-74-11-96-33z"/><path d="m17903 11089c-169-102-329-255-422-508 11-148 22-296 33-444 107 63 203 141 273 255 79 115 124 232 135 353 18 124 4 236-20 345z"/></g><path stroke-width="7.62" d="m14408 12885l6-484 444-237 562-133 231 4"/><path d="m14408 12872c2-162 4-310 6-471 184-98 361-172 539-228 363-114 728-151 1160-154 368-2 699 54 1029 147 407 114 798 296 1155 526-56 25-78 107-100 190-145-112-279-202-422-271-262-127-628-208-915-236-173-17-347-19-522-19-95-89-189-177-284-266-572 183-1139 425-1645 783z" stroke-width="70"/></g><g stroke-width="70"><g fill="#fff"><path d="m16207 11906c135-68 272-134 408-199 58-27 116-55 174-82 147 188 294 377 441 565-77 39-154 76-230 116-119 62-236 126-359 186-281 138-331 90-554-130-112-111-224-222-337-332-497 22-899 139-1336 370 27-157 90-224 187-351 52-68 105-135 158-202 121 16 212 19 334-2 118-21 230-58 311-161 201 57 396 128 589 206 103 42 115 64 214 15z"/><path d="m16615 11707c58-27 116-54 174-82 147 188 294 377 441 565-77 39-153 77-230 116-123-206-249-403-385-600z"/></g><g fill="none"><path d="m17615 17945c-69-142-139-284-208-426-115-237-78-268-273-104-77 65-163 119-245 179-158 116-148 93-56 270 73 141 148 278 232 397 107 153 118 160 293 97 69-25 129-53 179-87 164-110 154-171 78-325z"/><path d="m16087 17609c139-104 279-208 418-312 181-135 191-103 50-282-63-80-126-160-190-240-124-157-97-155-238-13-138 140-277 281-415 421-127 129-128 105-18 249 38 50 76 100 114 150 132 172 106 156 278 28z"/><path d="m17963 16609c25 14 51 27 76 41 129 70 259 139 388 209 145 78 143 56 82 211-20 50-38 98-58 148-59 152-52 119-206 94-169-28-343-44-511-76-80-15-121-43-143-84-62-114-5-249 70-371 71-117 92-175 147-189 33-9 79-2 156 16z"/><path d="m17737 10051c63 2 104 8 141 22 79 28 129 66 161 120 103 176 171 358 265 526 111 199 235 318 382 397 259 140 631 206 868 212-15 114-22 217-22 317-1 293-18 588 18 880 15 124 19 224 2 317-41 216-175 346-340 435-83 45-172 79-261 110-179 62-213 75-328 227-116-160-260-284-424-379 36-81 73-162 109-243 98 48 184 45 247-45 32-91 5-165-86-221-116-15-215-42-273-98 7-323-100-447-359-635-228-14-455-28-683-42-32-80-63-159-95-239 195 8 379-42 546-170 187-129 285-340 324-606 16-200-33-380-142-544-20-27-40-53-61-80 4-87 7-173 11-260z"/><path d="m16526 14614c34-117 6-222-18-339-55 6-110 12-166 18-4 122 3 213 27 333 52-4 104-8 157-12z"/><path d="m14754 11650c193 42 383 3 572-93 26 42 51 85 77 127-88 86-163 117-283 150-120 33-240 25-361 13-2-66-3-132-5-197z"/><path d="m17734 10208c4-174 29-292-60-444-84-142-176-170-327-136 147 153 131 270 122 481 7 24 14 48 20 72 49-11 99-23 148-34 21 16 42 32 64 48 17 13 55 56 33 12z"/><path d="m16767 9963c20-143 22-283 169-356 95-47 193-11 288 19-147 121-158 162-177 359-42 28-83 56-125 84-25-33-50-67-76-100-26-2-53-4-79-7z"/><path d="m14909 9843c491 0 890 408 890 910 0 503-399 910-890 910-299 0-564-151-726-383-1-2-1-5-3-5-234 21-273-103-104-201 2-1-2-5-3-7-35-98-55-204-55-314 0-503 399-910 890-910z"/><path d="m14334 11125c72 76 138 143 208 197 117 89 243 141 420 139 157-2 279-40 382-112 106-74 202-182 279-324"/><path d="m16473 11192c101 135 190 218 349 287 70 31 146 48 244 45 121-4 200-30 273-77 79-51 130-99 170-156 38-54 67-115 103-193"/><path d="m14443 12293c-80 99-160 197-239 296-84-76-167-151-251-227 140-136 303-296 443-432 56 59 88 141 144 200-32 54-65 109-97 163z"/><path d="m14410 12725c-69-45-138-91-207-136 71-88 142-175 213-263-2 133-4 266-6 399z"/><path d="m14078 12475c126-144 252-289 378-433-28-29-32-83-60-112-140 136-303 296-443 432 42 38 84 76 126 113z"/><path d="m14626 11617c-66 59-104 89-133 144-72 137-51 265 47 368 73-94 146-188 220-282-2-66-3-132-5-197-43-11-85-22-128-33z"/><path d="m14107 12211c-69-128-138-213-115-365 8-53 22-108 76-160 60-57 116-88 173-101 56-13 120-10 183-1-10 39-16 87-13 128 3 44 17 85 52 122-23 67-14 129 9 194-25-11-72-43-100-76-88 86-177 172-265 258z"/><path d="m14452 11535c-43 59-38 90-42 163 7 71 6 86 53 137 34-114 75-140 163-218-58-27-116-55-174-82z"/><path d="m17469 10109c12-166 26-305-89-443-35-42-55-65-80-67-47-4-106 46-137 78-99 102-98 170-117 308 125 3 120 9 166 131 134-82 135-105 256-7z"/></g></g><path d="m14230 10245c11 131 31 255 86 351-41-4-83-8-124-12 16 65 25 137 24 224-32-32-67-58-106-76 7 72 23 163 10 232-4 19-11 36-23 49-30 33-81 77-130 104-75-223-101-403-71-562 44-238 125-355 301-497 34-197 59-268 199-360-9 73-23 101 7 166 54-18 91-52 120-87 28-34 104-3 140-25 75-72 142-166 248-203-33 71-37 137-15 200 68-65 182-118 248-124 25 53 25 79 71 112 101 21 202 42 303 63-60 5-115 18-155 51 93 76 162 167 216 269-79-48-161-86-245-118 25 83 35 165 38 248-69-68-145-129-233-175 5 48-1 98-15 148-46-76-108-133-183-175 2 67 4 133 6 200-190-204-205-281-479-274 73 54 120 138 158 233-74-53-157-87-248-98-49 45-98 91-146 136z" fill="#201e1e" stroke-width="7.62"/><g stroke-width="70"><path d="m17105 10023c456 0 826 378 826 845 0 467-370 845-826 845-456 0-826-378-826-845 0-467 370-845 826-845z" fill="none"/><g fill="#fff"><path d="m17080 9981c73 0 132 61 132 135 0 75-59 135-132 135-73 0-132-61-132-135 0-75 59-135 132-135z"/><path d="m17357 10046c73 0 132 61 132 135 0 75-59 135-132 135-73 0-132-61-132-135 0-75 59-135 132-135z"/><path d="m17244 14823c-73-130-89-107-236-115-427 51-853 103-1280 154-44 40-56 96-53 160 64 158 127 315 191 473 42 103 30 99 139 91 351-26 703-52 1054-78 136-10 222 13 251-154 6-35 3-73-7-138-20-131-39-262-59-393z"/><path d="m17182 15223c-4-50-10-100-15-149-25-119 4-241-127-228-352 34-704 69-1057 103-166 16-137 14-126 183 22 66 43 131 65 197 74 121 58 137 196 122 308-34 618-51 920-118 115-26 151 5 143-109z"/></g><path d="m16816 10681c228-49 343-209 503-369-46-13-87-63-106-113-46 24-80 48-133 53-60-6-106-33-126-94-51 34-103 63-163 71-61-3-98-34-123-77-125 90-236 197-308 351-19 52-37 104-56 157 203 43 276 73 511 22z" fill="none"/><path d="m17155 11769c29-7 211-77 163-124-21-20-47-31-75-35-116-15-278 91-355 142 114 146 228 292 342 438 157-19 315-41 471-56 98-10 69-88-3-86-93 3-186 7-279 10 113-10 227-20 340-30 136-12 82-126-28-115-122 12-196 13-317 25 127-21 206-32 332-53 112-19 71-121-41-101-78 14-157 28-235 42-44 8-43 5-86 13 119-29 194-47 314-75 123-29 59-145-32-120-176 48-295 85-471 133-13-3-27-6-40-9z" fill="#fff"/></g><g fill="#201e1e" stroke-width="7.62"><path d="m14805 10743c42-13 88 23 105 80 16 57-4 113-45 126-41 13-88-23-105-80-16-57 4-113 45-126z"/><path d="m15394 10639c42-11 87 27 101 85 14 58-9 113-51 123-42 11-87-27-101-85-14-58 9-113 51-123z"/><path d="m17307 10939c35 0 64 33 64 74 0 41-28 74-64 74-35 0-64-33-64-74 0-41 28-74 64-74z"/><path d="m16674 10924c35 0 64 33 64 74 0 41-28 74-64 74-35 0-64-33-64-74 0-41 28-74 64-74z"/></g><g stroke-width="70"><g fill="none"><path d="m16546 15163c-42 151-83 240-148 332-88 124-230 242-199 417 35 193 345 309 403 544 46 186-21 298-92 464"/><path d="m16996 17440c-28-55-55-109-83-164 4-69 8-137 12-206 46-259 140-556-6-798-120-199-297-352-354-590-39-166-27-308-19-519"/><path d="m17611 16853c-95-88-157-193-210-304-86-179-147-375-281-538-339-291-410-425-574-848"/><path d="m15873 17277l-96-159"/><path d="m16051 17178l-156-180"/><path d="m16154 17102l-159-205"/><path d="m17247 17816l206-204"/><path d="m17369 17967l179-160"/><path d="m17472 18082l154-115"/><path d="m18039 16884l39-212"/><path d="m18175 16984l50-233"/><path d="m18308 17054l86-212"/><path d="m17782 17103c55-110 89-220 131-352 19-82 69-137-46-159-87-17-95 8-171 130-50 81-92 159-122 248-9 53-8 99 2 153 13 41 35 69 75 89 90 20 89-28 130-109z"/><path d="m16804 17789c93-36 170-75 244-119 116-69 217-147 317-236-83-169-66-141-214-32-93 68-185 135-278 203-111 81-144 63-70 184z"/><path d="m16314 17007c35 50 72 98 112 146 86 103 84 151 194 57 65-56 33-70-62-191-76-96-152-192-228-288-62-78-70-98-106-66-70 62-59 71-21 153 31 66 67 128 110 190z"/></g><g fill="#fff"><path d="m17637 10148c98 0 151 135 103 220-19 34-61 51-103 51-73 0-132-61-132-135 0-75 34-135 132-135z"/><path d="m16792 9958c63-6 132 61 132 135 0 75-59 135-132 135-73 0-144-67-132-135 11-68 69-130 132-135z"/><path d="m16358 11830c-84-167-151-302-235-469 38-16 225-152 208-188-41-87-141-45-208-26-2 1-5-1-3-4 42-110 62-185 61-277-1-71 0-132-56-150-42-13-62 63-72 145-10 77-8 146-9 165-2 3-6 3-7-3-11-54-27-104-43-155-13-43-20-67-34-84-52-68-84-45-89 30-5 79 25 158 42 241 0 1-1 1-1 1-25-30-50-63-75-94-32-40-45-75-68-87-33-16-55-12-67 1-33 34-7 97 31 157 33 53 81 107 100 134 1 2-1 3-2 3-39-13-77-26-115-37-51-15-69-33-87 3-61 123 312 240 373 267 12 169 23 338 35 507 20 7 40 14 60 21 101 5 177-59 260-102z"/></g><g fill="none"><path d="m18229 14468c-19-188-64-365 32-541 87-157 226-169 336-28 107 137 116 292 143 460 22 130 58 202-37 309-35 39-78 60-161 72-86 12-151 0-208-35-104-65-95-122-106-237z"/><path d="m18719 14227c-32-168-63-274-155-359-106-99-246-66-323 80-48 91-43 208-33 356 172-21 340-46 510-78z"/></g></g></g></g><g fill="#201e1e"><g stroke="#201e1e" stroke-width="7.62"><g font-family="&apos;MV Boli&apos;" font-size="1387.2"><text x="10500" y="14850" transform="matrix(.95942 0 0 1 3127.58 8229.57)">Texto 01</text><text x="10500" y="14850" transform="matrix(.95942 0 0 1 3180.26 10237)">Texto 02</text></g><path d="m16112 23551c-12-34-17-66-17-97 0-43 18-81 53-114 36-33 80-50 134-50 29 0 55 11 79 32 24 21 36 47 36 75 0 34-15 64-45 91-30 27-79 57-149 89 18 38 52 87 101 147 44-43 77-86 99-131 5-12 14-19 27-19 9 0 17 3 25 10 8 7 12 15 12 24 0 7-3 16-8 27-5 11-18 30-39 55-20 26-44 52-72 80 33 29 69 46 107 50 23 2 35 17 35 45 0 10-3 18-10 24-6 7-14 10-25 10-51 0-105-27-163-81-32 26-66 45-102 60-37 14-71 21-104 21-37 0-73-15-107-44-34-30-51-65-51-106 0-40 15-76 46-109 30-33 76-63 138-90zm68-30c49-23 85-44 108-63 23-19 34-39 34-60 0-10-4-19-11-26-7-8-17-11-30-11-34 0-61 9-82 26-21 17-31 40-31 68 0 19 4 42 11 67zm-44 88l-2 1c-46 21-79 42-99 65-20 22-31 48-31 76 0 24 9 43 28 57 19 14 39 21 61 21 47 0 99-19 154-56-50-58-87-112-111-163z" fill-rule="nonzero"/><text x="10500" y="14850" font-family="&apos;Arial&apos;" font-weight="bold" font-size="708.87" transform="matrix(.93595 0 0 1 4870.1 11693.1)">00.00.0000</text></g><g font-family="&apos;Arial Black&apos;" font-weight="900" font-size="637.98"><text x="10500" y="14850" transform="matrix(.93595 0 0 1 5504.79 5548.15)">NN 1</text><text x="10500" y="14850" transform="matrix(.93595 0 0 1 5504.79 6160.63)">NN 2</text></g></g><g fill="#373435" font-family="&apos;Arial&apos;" font-size="423.33"><text x="904" y="28285">DESC 1</text><text x="904" y="29095">DESC 3</text><text x="904" y="28683">DESC 2</text></g></svg>