<svg xmlns="http://www.w3.org/2000/svg" width="744.09" height="1052.36" viewBox="0 0 21000 29700" shape-rendering="geometricPrecision" image-rendering="optimizeQuality" fill-rule="evenodd" text-rendering="geometricPrecision" clip-rule="evenodd"><text x="10081" y="24465" fill="#201e1e" font-family="&apos;Arial Black&apos;" stroke="#201e1e" font-weight="900" stroke-width="7.62" font-size="705.56">32</text><g fill="none" stroke-width="80"><g stroke="#322f30"><circle cx="10533" cy="1326" r="460"/><path d="m10533 515v1621"/><path d="m9723 1326h1621"/></g><g stroke="#373435"><circle cx="10533" cy="25836" r="460"/><path d="m10533 25026v1621"/><path d="m9723 25836h1621"/></g></g><rect x="9843" y="22722" width="1347" height="637" rx="318" fill="#fff" stroke="#fff" stroke-width="20"/><g fill="#373435" font-family="&apos;Arial&apos;" font-weight="normal" font-size="423.33"><text x="1824" y="27466">DESC 1</text><text x="1819" y="27874">DESC 2</text><text x="1814" y="28248">DESC 3</text></g><path d="m6347 21579c0-97 66-177 153-199 66 31 107 93 153 150 49-57 91-145 173-136 133 35 145 220 107 334-78 124-198 207-281 322-103-154-343-247-305-471" fill="#201e1e"/><path d="m6347 21579c0-97 66-177 153-199 66 31 107 93 153 150 49-57 91-145 173-136 133 35 145 220 107 334-78 124-198 207-281 322-103-154-343-247-305-471z" fill="none" fill-rule="nonzero" stroke="#201e1e" stroke-width="7.62"/><path d="m3405 21781c-45-119-16-317 120-352 79 9 116 92 165 150 50-62 104-172 195-133 111 53 127 225 90 335-83 119-203 199-286 317-82-118-206-198-284-317" fill="#201e1e"/><path d="m3405 21781c-45-119-16-317 120-352 79 9 116 92 165 150 50-62 104-172 195-133 111 53 127 225 90 335-83 119-203 199-286 317-82-118-206-198-284-317z" fill="none" fill-rule="nonzero" stroke="#201e1e" stroke-width="7.62"/><path d="m4846 19631c-4-110 33-273 166-268 57 35 99 92 140 145 58-66 120-189 219-119 103 88 119 282 20 383-83 84-165 163-240 256-91-141-281-212-305-397" fill="#201e1e"/><path d="m4846 19631c-4-110 33-273 166-268 57 35 99 92 140 145 58-66 120-189 219-119 103 88 119 282 20 383-83 84-165 163-240 256-91-141-281-212-305-397z" fill="none" fill-rule="nonzero" stroke="#201e1e" stroke-width="7.62"/><path d="m4875 22191c0-101 42-260 162-247 66 22 94 93 140 141 58-61 120-176 219-127 91 88 128 268 37 374-79 97-178 176-257 269-95-137-289-221-301-410" fill="#201e1e"/><g stroke-width="7.62"><g fill="none"><path d="m4875 22191c0-101 42-260 162-247 66 22 94 93 140 141 58-61 120-176 219-127 91 88 128 268 37 374-79 97-178 176-257 269-95-137-289-221-301-410z" fill-rule="nonzero" stroke="#201e1e"/><path d="m6574 22431c-1039 512-3015 414-3615-535-598-945-463-3626-519-4941-143-3291-502-5788-595-8442-103-2948 1877-4897 4243-5446 3338-774 3141 3762 2677 6094-243 1253-724 2343-1030 3568-566 2258-54 5707-250 8057-101 813-368 1352-911 1645z" stroke="#fff"/></g><path d="m6070 3717c24-33 58-55 98-65 46-11 91-3 131 23 40 26 66 64 77 111 11 48 3 94-23 135-25 40-62 67-107 78-46 11-91 5-131-21-40-26-65-65-76-112-7-30-6-60 1-88l-37-10 69 268-289 80-28-107c-5 16-11 32-19 47-36 76-95 129-173 157-78 27-156 23-230-14-32-16-60-37-84-61l-26 13 75 160-269 135-196-413c-21-44-35-92-35-141 0-58 15-112 44-161 29-50 68-90 120-114l74-35 133 279c5-26 14-51 26-76 38-77 99-129 177-156 77-28 154-22 228 15 35 18 65 41 90 68 0-42 9-83 28-122 35-68 93-110 164-130 19-5 40-8 60-10l57-7 71 274zm-1895 763c-3-31-2-63 4-95 16-83 61-150 130-197 66-47 143-64 222-49 80 16 143 61 188 131 7 10 13 21 19 32l30 55-106 74 121 36-21 67c-21 69-61 125-120 166-68 47-144 65-225 50-36-7-68-20-97-38 5 22 8 44 8 67 0 44-10 87-29 128-19 41-45 76-78 105-63 55-138 81-221 75-15-2-30-4-45-7l83 87-383 381-77-83c7 20 11 41 14 63 11 84-9 162-58 229-50 68-117 109-198 121-82 13-157-7-223-58-66-51-106-121-117-205-10-85 12-164 62-232 49-67 116-107 197-118 55-8 108-1 157 20-36-49-56-106-56-169 0-76 28-142 81-195 59-59 131-87 212-78 33 4 63 15 91 30-12-37-16-77-12-119 6-84 40-155 102-209 2-1 3-2 4-3l-101-123 230-199 212 260zm-1416 1766c-26-27-48-59-61-97-26-71-18-143 16-211 9-19 21-37 32-54l34-47 311 163-74 51 240 126-136 276-94-49c6 10 11 21 15 32 32 78 32 158 1 237-30 78-85 136-161 169-75 33-152 35-227 4 3 6 7 11 10 17 36 66 36 142 18 213l204 57-81 313-433-120c-37-10-76-25-109-46-31-20-57-47-78-79-24-37-38-79-45-123-6-45-4-90 7-133 21-78 65-140 132-181 68-41 142-49 218-29 9 3 17 6 26 9-14-20-26-42-36-66-31-79-29-161 2-240 30-78 85-134 160-167 36-15 73-24 109-25zm3794-2658c47-3 90 12 126 44 35 32 56 74 59 122 3 49-11 93-43 129-31 36-72 57-118 60-47 3-91-10-126-42-36-32-55-74-58-122-3-49 11-93 42-130 30-37 71-58 118-61zm394-15c47 5 87 28 117 66 29 37 43 82 38 130-5 49-27 90-64 120-37 30-81 43-127 38-47-6-87-26-117-64-29-38-41-83-36-131 5-48 26-90 63-121 36-30 80-43 126-38z" fill="#201e1e" stroke="#201e1e"/></g><path d="m2609 7094l-155-43c9-36 0-58-27-66-24-7-41 4-48 32-7 29 6 48 40 57l387 107-47 181-369-101c-38-11-68-24-91-38-22-15-41-35-58-60-18-27-29-59-34-95-5-36-4-71 5-106 16-62 50-108 102-139 51-31 107-39 167-22 58 16 100 48 127 96 24 43 27 100 9 170l-8 27m-58-631c24-60 66-104 125-129 59-26 119-27 178-2 60 25 103 68 128 130 25 61 25 123 0 185-24 62-66 107-126 133-59 27-119 28-179 3-61-26-103-69-128-130-24-62-23-125 2-190m152 69c-7 17-6 34 1 51 7 17 20 29 38 36 17 8 34 8 51 1 17-7 29-19 36-36 6-17 6-35-2-52-7-17-20-29-37-36-17-8-35-8-51-1-17 7-29 19-36 37m97-608l160 84c-11 8-19 16-23 25-14 28 0 53 42 74l189 100-76 154-219-114c-57-30-95-71-114-121-18-51-14-103 13-157 6-12 15-27 28-45m311-500c38-52 89-83 153-92 64-9 122 6 173 46 51 40 81 93 90 159 9 66-7 126-46 180-39 53-91 85-155 95-64 9-122-6-174-46-52-41-82-94-90-160-8-65 8-126 49-182m130 106c-11 15-15 32-12 50 2 19 11 34 27 46 14 11 31 16 49 14 19-3 33-11 44-26 10-14 14-31 12-50-3-19-12-34-27-45-15-12-32-17-50-14-18 2-32 10-43 25m703-364l-121 121-176-188c-18-19-34-21-49-6-15 15-14 32 4 51l176 187-121 121-174-185c-41-44-61-94-61-151 0-57 20-106 61-146 46-46 99-66 159-59 47 5 93 32 138 80l164 175m-118-739l129-111 241 295c44 54 66 110 66 168 0 33-7 66-22 99-15 33-36 60-61 82-52 45-109 64-173 59-65-5-118-33-160-85-40-50-58-108-53-175 5-66 32-120 80-162 7-6 19-15 36-27l119 146c-17 1-31 6-42 15-13 11-21 26-22 45-1 18 4 34 15 48 11 14 26 22 44 23 18 1 34-4 48-16 33-29 30-67-9-114l-236-290m855-92l-212 147c-10-9-18-18-24-27-8-13-14-27-18-42l71-49c-24-25-49-29-75-11-17 12-27 30-27 52-1 23 6 47 22 71 16 24 34 41 55 49 20 8 39 6 57-6 13-10 22-26 26-49l143 43c-17 56-48 99-94 131-55 38-114 51-176 39-63-12-112-46-149-103-37-56-49-116-37-181 13-65 47-117 102-155 54-38 112-51 173-38 62 12 111 46 147 101 4 6 9 15 16 28m443-413l78 164-68 33 76 161-151 76-167-353c-19-40-28-77-29-111 0-44 12-86 35-126 24-39 54-68 91-87l16-8 77 163c-3 2-6 3-7 4-19 10-31 24-35 41-4 18-1 39 10 63l7 14 67-34m270-229c60-22 119-17 177 12 58 29 97 75 118 137 21 63 17 124-12 184-29 60-74 101-135 123-62 21-122 18-181-11-58-29-98-75-119-138-21-64-17-125 12-184 29-59 75-100 140-123m49 163c-17 6-29 17-37 34-7 17-8 35-2 53 6 18 17 32 34 40 16 9 33 10 49 4 17-6 30-17 37-34 8-18 9-35 3-53-6-19-18-32-34-41-16-8-32-9-50-3m506-339l47 179c-13-3-24-4-33-1-30 8-38 35-26 81l55 212-163 45-63-244c-17-64-13-120 11-168 24-48 65-79 122-95 12-4 29-7 50-9m234 201c28-7 55-2 80 15 26 16 42 39 48 68 7 30 3 57-13 83-16 25-39 42-67 48-31 8-58 3-81-12-24-15-40-38-47-70-7-30-2-57 13-83 16-26 38-42 67-49m374-62c29-2 55 7 78 27 22 20 35 46 37 76 2 30-7 56-26 79-20 23-44 35-74 37-31 2-57-6-78-25-21-19-33-44-35-76-2-31 6-58 25-81 20-23 44-35 73-37m383-16c29 3 54 17 72 41 19 24 27 51 24 81-3 30-16 55-39 73-23 19-50 27-79 24-31-4-55-16-73-39-18-23-25-50-22-81 4-31 16-56 39-75 23-19 49-27 78-24" fill="#fff" fill-rule="nonzero"/><g stroke="#201e1e"><g fill="none" stroke-linejoin="round" stroke-linecap="round" stroke-width="75"><path d="m4858 11877c0 0-135-686 370-1238l156-33c0 0 250-368 553-101 0 0 104 95 271 90 0 0 489 72 635 948 0 0 52 435 115 518 0 0 104 312 73 658 0 0 26 56-188 56 0 0-120-11-42 189 0 0 193 435-31 463 0 0-161-22-156 78 0 0 104 290-333 346 0 0-157 89-209-134 0 0-10-134-177-11 0 0-448 39-552-167 0 0-94 61-120 5 0 0 52 168-323 95 0 0 286 223 208 290-78 67-109 73-88 223 0 0-21 67-136 145 0 0-57 67-78 151 0 0-5 122-333 122 0 0-287 28-365-156 0 0-448-262-448-529 0 0-31-84-21-263 0 0 104-507-146-334 0 0-177-50-57-151 0 0 151-22 229-150 0 0 208-396 453-418 0 0 120-39 105-223 0 0 36-240-172-218 0 0-146 95-266-178 0 0-68-207 94-173 0 0-360-703 99-1205l-162-234 162 89-32-211 105 156 36-207 47 212 36 67c0 0 506-463 1058 195"/><path d="m4145 12140c0 0 599 309 810 44"/><path d="m5103 11283c104 675 615 575 615 575 31 106 167 172 167 172 109 603-404 530-404 530-55-156-222-95-222-95-380-200-401-588-401-588 0 0 172-176 245-594z"/><path d="m5212 10871c0 0-128 488-332 442"/><path d="m5416 11066c0 0-183 630 422 641"/><path d="m6135 11250c0 0-47 390 140 769 188 379 214 937 214 937"/><path d="m6065 10575c0 0-415 636-837 64"/><path d="m5936 10724c0 0 287 102 428 609"/><path d="m6223 10826c0 0 584 647 532 1846"/><path d="m6395 10893c0 0 226 194 462 752"/><path d="m6025 12683c0 0-168 26-240-202"/><path d="m5874 12778l89 613"/><path d="m5610 12910l28-3c0 0-26-150 94-111 0 0 136 53 71 206 0 0-14 3-42-5 0 0 52 156-63 114 0 0 21 150-107 106 0 0-122-39-117-145 0 0 10-81 91-73 0 0-20-108 45-89z"/><path d="m5638 12907c0 0 84 14 123 90"/><path d="m5565 12999c0 0 115 70 133 112"/><path d="m5481 12560c0 0-33 640-585 618 0 0-344-6-459-346 0 0-26-318 277-374 0 0 57 6 146 106 0 0 221 226 399-99"/><path d="m5370 12227c0 0-109 39-151-50"/><path d="m5005 12249c0 0-89 143 39 237 0 0 13 91-23 154"/><path d="m4703 12291l11 167"/><path d="m4553 12279c0 0 30 140-56 104 0 0-83-28-46 128 0 0 41 70-71 73l5 142c0 0 10 11 52 106"/><path d="m4385 12726c0 0-158-191-267-157"/><path d="m3862 13465c0 0 7-805 340-888"/><path d="m4267 12836c0 0 26 296 99 377"/><path d="m4207 13096c0 0-18 267 91 351 0 0 383 248 159 727 0 0-94 207-349 240"/><path d="m4191 13912c0 0 83 192-130 473"/><path d="m4447 13530l-37-30c0 0-133-70-34-243 0 0 131-111 146 75 0 0 138-69 112 98 0 0 115-28 44 126 0 0-109 69-231-26z"/><path d="m4720 13558l180 81"/><path d="m5470 13380l-127 159"/><path d="m5207 13614c0 0 302 298-41 505 0 0-60 67 28 150 0 0 55 28 34 148 0 0-29 75 81 70 0 0 151-20 216 184 0 0-3 39-245 39 0 0-338-67-364 312l-55 11c0 0-89-407-552-443 0 0-360-48-532 368 0 0-73-170 201-510 0 0 19-19 24-104"/><path d="m5525 14671c0 0 182-6 248 114 0 0 172 240-29 362 0 0-284 157-558 31 0 0-243-162-270-156"/><path d="m4861 15033c0 0-89 220-331 257 0 0-709 97-753-332"/></g><g fill="#201e1e" stroke-width="7.62"><path d="m4284 11932l-31-28c0 0 31-148 88-196 0 0 31-39 57 26 0 0 92 158 29 214l-143-16z"/><path d="m5037 11985l-15-13c0 0 15-68 41-90 0 0 15-18 27 12 0 0 42 73 13 99l-66-8z"/><path d="m5639 12155l-17-9c0 0 0-70 22-97 0 0 10-21 28 5 0 0 56 62 33 94l-66 7z"/><path d="m4880 11313c32-148 91-310 192-470 44-69 95-137 156-204-552-658-1058-195-1058-195l-36-67-47-212-36 207-105-156 32 211-162-89 162 234c-459 502-99 1205-99 1205l204 180c-34-402 117-692 117-692 58-69 86 6 86 6 211 474 556 387 556 387 0-44 2-93 7-147 5-61 15-128 31-198z"/><path d="m5525 14671c-65-204-216-184-216-184-110 5-81-70-81-70 21-120-34-148-34-148-88-83-28-150-28-150 343-207 41-505 41-505-30 35-109 63-307 25 0 0 286 223 208 290-78 67-109 73-88 223 0 0-21 67-136 145 0 0-57 67-78 151 0 0-5 122-333 122 0 0-287 28-365-156 0 0-18-10-47-29-17-11-37-25-59-41-5 85-24 104-24 104-274 340-201 510-201 510 172-416 532-368 532-368 463 36 552 443 552 443l55-11c26-379 364-312 364-312 242 0 245-39 245-39z"/></g><path d="m4842 11658c0 0-345 87-556-387 0 0-28-75-86-6 0 0-151 290-117 692l-204-180" fill="none" stroke-linejoin="round" stroke-linecap="round" stroke-width="75"/></g><g fill="none" stroke="#fff" stroke-linejoin="round" stroke-linecap="round" stroke-width="75"><path d="m5031 10783c0 0-140-220-255-204"/><path d="m4808 11327c0 0-261-34-350-296"/><path d="m4793 11512c0 0-171 38-363-236"/><path d="m4135 10719c0 0-34 256 125 460"/></g><path d="m2764 15958c4-110 87-176 178-198 41 49 82 102 123 150 46-48 83-110 141-137 124-4 173 150 165 260-21 185-211 260-306 401-103-154-347-251-301-476" fill="#201e1e"/><path d="m2764 15958c4-110 87-176 178-198 41 49 82 102 123 150 46-48 83-110 141-137 124-4 173 150 165 260-21 185-211 260-306 401-103-154-347-251-301-476z" fill="none" fill-rule="nonzero" stroke="#201e1e" stroke-width="7.62"/><path d="m7696 4411c87-13 128 92 177 145 46-61 91-145 182-145 120 48 145 225 103 344-83 118-203 207-290 321-90-150-297-225-296-427 0-93 25-216 124-238" fill="#201e1e"/><path d="m7696 4411c87-13 128 92 177 145 46-61 91-145 182-145 120 48 145 225 103 344-83 118-203 207-290 321-90-150-297-225-296-427 0-93 25-216 124-238z" fill="none" fill-rule="nonzero" stroke="#201e1e" stroke-width="7.62"/><path d="m5926 5226c1-101 63-238 174-212 54 36 87 89 128 133 58-49 108-159 199-128 123 79 152 308 36 410-78 79-161 158-232 246-98-154-317-238-305-449" fill="#201e1e"/><path d="m5926 5226c1-101 63-238 174-212 54 36 87 89 128 133 58-49 108-159 199-128 123 79 152 308 36 410-78 79-161 158-232 246-98-154-317-238-305-449z" fill="none" fill-rule="nonzero" stroke="#201e1e" stroke-width="7.62"/><path d="m7755 6283c-4-114 38-277 170-277 54 44 91 101 132 154 58-75 124-185 227-128 83 97 116 251 37 361-83 102-186 181-261 282-90-141-276-211-305-392" fill="#201e1e"/><path d="m7755 6283c-4-114 38-277 170-277 54 44 91 101 132 154 58-75 124-185 227-128 83 97 116 251 37 361-83 102-186 181-261 282-90-141-276-211-305-392z" fill="none" fill-rule="nonzero" stroke="#201e1e" stroke-width="7.62"/><path d="m4764 6085c41 0 83 0 124 0 37 44 66 93 99 141 62-62 112-167 211-141 103 88 140 269 53 379-83 97-178 180-256 282-83-115-198-194-281-304-62-119-4-251 50-357" fill="#201e1e"/><path d="m4764 6085c41 0 83 0 124 0 37 44 66 93 99 141 62-62 112-167 211-141 103 88 140 269 53 379-83 97-178 180-256 282-83-115-198-194-281-304-62-119-4-251 50-357z" fill="none" fill-rule="nonzero" stroke="#201e1e" stroke-width="7.62"/><path d="m6606 6944c0-110 74-207 182-211 41 44 78 92 115 141 58-53 124-172 211-119 107 61 115 220 82 334-83 115-199 199-290 309-94-154-330-234-300-454" fill="#201e1e"/><path d="m6606 6944c0-110 74-207 182-211 41 44 78 92 115 141 58-53 124-172 211-119 107 61 115 220 82 334-83 115-199 199-290 309-94-154-330-234-300-454z" fill="none" fill-rule="nonzero" stroke="#201e1e" stroke-width="7.62"/><path d="m5208 7578c29 0 79 0 108-4 37 49 78 101 115 150 54-75 124-194 227-124 87 97 107 278 16 379-78 84-169 163-240 256-86-97-194-176-272-282-82-115-24-269 46-375" fill="#201e1e"/><path d="m5208 7578c29 0 79 0 108-4 37 49 78 101 115 150 54-75 124-194 227-124 87 97 107 278 16 379-78 84-169 163-240 256-86-97-194-176-272-282-82-115-24-269 46-375z" fill="none" fill-rule="nonzero" stroke="#201e1e" stroke-width="7.62"/><path d="m3720 7865c0-93 34-203 116-242 95-14 137 92 190 154 50-62 87-172 182-146 128 40 140 234 95 348-83 115-199 199-282 313-86-154-297-225-301-427" fill="#201e1e"/><path d="m3720 7865c0-93 34-203 116-242 95-14 137 92 190 154 50-62 87-172 182-146 128 40 140 234 95 348-83 115-199 199-282 313-86-154-297-225-301-427z" fill="none" fill-rule="nonzero" stroke="#201e1e" stroke-width="7.62"/><path d="m7740 8023c87-35 136 71 194 119 58-53 120-154 211-110 120 88 128 295 20 401-75 79-157 159-232 242-70-92-161-167-239-251-103-110-82-321 46-401" fill="#201e1e"/><path d="m7740 8023c87-35 136 71 194 119 58-53 120-154 211-110 120 88 128 295 20 401-75 79-157 159-232 242-70-92-161-167-239-251-103-110-82-321 46-401z" fill="none" fill-rule="nonzero" stroke="#201e1e" stroke-width="7.62"/><path d="m6082 8772c95-30 140 88 190 155 37-53 70-119 124-155 157-13 202 199 169 322-75 132-207 216-294 335-86-110-198-190-280-300-50-114-29-299 91-357" fill="#201e1e"/><path d="m6082 8772c95-30 140 88 190 155 37-53 70-119 124-155 157-13 202 199 169 322-75 132-207 216-294 335-86-110-198-190-280-300-50-114-29-299 91-357z" fill="none" fill-rule="nonzero" stroke="#201e1e" stroke-width="7.62"/><path d="m3929 9202c99-52 156 53 214 115 54-48 95-150 178-123 136 39 140 238 99 356-83 111-195 186-278 296-70-84-148-155-222-229-120-102-107-318 9-415" fill="#201e1e"/><path d="m3929 9202c99-52 156 53 214 115 54-48 95-150 178-123 136 39 140 238 99 356-83 111-195 186-278 296-70-84-148-155-222-229-120-102-107-318 9-415z" fill="none" fill-rule="nonzero" stroke="#201e1e" stroke-width="7.62"/><path d="m7058 9312c-41-114-28-295 91-348 96-44 141 79 194 141 50-62 83-150 170-150 136 40 157 229 111 353-75 119-199 198-281 312-87-114-203-193-285-308" fill="#201e1e"/><path d="m7058 9312c-41-114-28-295 91-348 96-44 141 79 194 141 50-62 83-150 170-150 136 40 157 229 111 353-75 119-199 198-281 312-87-114-203-193-285-308z" fill="none" fill-rule="nonzero" stroke="#201e1e" stroke-width="7.62"/><path d="m2522 10565c99-39 153 62 207 133 58-67 120-177 219-128 99 97 123 286 20 387-79 89-166 163-236 260-87-119-223-193-293-326-25-110-16-255 83-326" fill="#201e1e"/><path d="m2522 10565c99-39 153 62 207 133 58-67 120-177 219-128 99 97 123 286 20 387-79 89-166 163-236 260-87-119-223-193-293-326-25-110-16-255 83-326z" fill="none" fill-rule="nonzero" stroke="#201e1e" stroke-width="7.62"/><path d="m7265 10909c-4-106 50-211 157-225 58 31 99 88 140 141 50-61 100-141 186-136 137 70 165 290 58 401-79 88-166 167-245 260-94-150-313-234-296-441" fill="#201e1e"/><path d="m7265 10909c-4-106 50-211 157-225 58 31 99 88 140 141 50-61 100-141 186-136 137 70 165 290 58 401-79 88-166 167-245 260-94-150-313-234-296-441z" fill="none" fill-rule="nonzero" stroke="#201e1e" stroke-width="7.62"/><path d="m2248 12883c4-110 87-176 178-198 41 48 82 101 123 150 46-49 83-111 141-137 124-4 173 150 165 260-21 185-211 260-306 401-103-154-347-251-301-476" fill="#201e1e"/><path d="m2248 12883c4-110 87-176 178-198 41 48 82 101 123 150 46-49 83-111 141-137 124-4 173 150 165 260-21 185-211 260-306 401-103-154-347-251-301-476z" fill="none" fill-rule="nonzero" stroke="#201e1e" stroke-width="7.62"/><path d="m6857 13866c12-84 37-221 136-216 87-18 120 88 174 141 49-75 116-177 219-128 82 79 103 216 65 326-86 119-198 207-289 322-91-155-318-234-305-445" fill="#201e1e"/><path d="m6857 13866c12-84 37-221 136-216 87-18 120 88 174 141 49-75 116-177 219-128 82 79 103 216 65 326-86 119-198 207-289 322-91-155-318-234-305-445z" fill="none" fill-rule="nonzero" stroke="#201e1e" stroke-width="7.62"/><path d="m6826 17425c95-40 145 74 198 132 54-66 116-172 215-124 104 93 128 300 16 401-82 80-161 154-231 247-70-93-157-172-240-251-107-106-78-326 42-405" fill="#201e1e"/><path d="m6826 17425c95-40 145 74 198 132 54-66 116-172 215-124 104 93 128 300 16 401-82 80-161 154-231 247-70-93-157-172-240-251-107-106-78-326 42-405z" fill="none" fill-rule="nonzero" stroke="#201e1e" stroke-width="7.62"/><path d="m2636 17711c-4-93 42-216 137-238 86-4 119 92 169 154 50-79 124-194 227-128 83 93 111 252 33 357-83 102-182 181-261 287-91-155-301-229-305-432" fill="#201e1e"/><path d="m2636 17711c-4-93 42-216 137-238 86-4 119 92 169 154 50-79 124-194 227-128 83 93 111 252 33 357-83 102-182 181-261 287-91-155-301-229-305-432z" fill="none" fill-rule="nonzero" stroke="#201e1e" stroke-width="7.62"/><path d="m6153 16304c4-111 87-177 178-199 41 49 83 102 124 150 45-48 83-110 140-137 124-4 174 150 165 260-21 185-211 260-306 401-103-154-347-251-301-475" fill="#201e1e"/><path d="m6153 16304c4-111 87-177 178-199 41 49 83 102 124 150 45-48 83-110 140-137 124-4 174 150 165 260-21 185-211 260-306 401-103-154-347-251-301-475z" fill="none" fill-rule="nonzero" stroke="#201e1e" stroke-width="7.62"/><path d="m2388 8547c99-53 156 53 214 115 54-49 95-150 178-124 136 40 140 238 99 357-83 110-195 185-278 295-70-83-148-154-222-229-120-101-107-317 9-414" fill="#201e1e"/><g stroke="#201e1e"><path d="m2388 8547c99-53 156 53 214 115 54-49 95-150 178-124 136 40 140 238 99 357-83 110-195 185-278 295-70-83-148-154-222-229-120-101-107-317 9-414z" fill="none" fill-rule="nonzero" stroke-width="7.62"/><text x="10500" y="14850" fill="#201e1e" font-family="&apos;Menuet script&apos;" stroke-linejoin="round" stroke-linecap="round" stroke-width="50" font-size="1253.77" transform="matrix(.7027 0 0 1-3457.19 3982.19)">Texto 01</text></g><g fill="#201e1e" font-family="&apos;Arial Black&apos;" font-weight="900"><g font-size="479.23"><text x="10500" y="14850" transform="matrix(.9714 0 0 1-5959.19 2111.77)">NN 1</text><text x="10500" y="14850" transform="matrix(.9714 0 0 1-5997.4 2573.79)">NN 2</text></g><text x="10500" y="14850" font-size="714.85" transform="matrix(.94871 0 0 1-6806.84 6119.83)">00.00.0000</text></g><g fill="none"><path d="m14435 22360c1040 513 3016 414 3616-534 597-946 462-3627 519-4941 142-3292 501-5788 594-8443 103-2948-1876-4897-4243-5445-3338-775-3141 3762-2677 6094 243 1252 724 2342 1031 3567 565 2259 53 5707 250 8058 100 812 367 1352 910 1644z" stroke="#fff" stroke-width="7.62"/><g stroke="#201e1e" stroke-linejoin="round" stroke-linecap="round" stroke-width="75"><path d="m15938 11807c0 0-135-686 370-1238l157-34c0 0 250-368 552-100 0 0 104 95 271 89 0 0 490 73 635 948 0 0 53 435 115 519 0 0 104 312 73 658 0 0 26 55-188 55 0 0-119-11-41 190 0 0 193 435-31 463 0 0-162-23-157 78 0 0 104 290-333 346 0 0-157 89-209-134 0 0-10-134-177-11 0 0-448 39-552-168 0 0-94 62-120 6 0 0 52 167-323 95 0 0 287 223 209 290-79 66-110 72-89 223 0 0-21 67-135 145 0 0-58 66-79 150 0 0-5 123-333 123 0 0-287 28-365-156 0 0-448-262-448-530 0 0-31-84-21-262 0 0 105-508-146-335 0 0-177-50-57-150 0 0 151-23 229-151 0 0 209-396 454-418 0 0 119-39 104-223 0 0 36-240-172-217 0 0-146 94-266-179 0 0-68-206 94-173 0 0-360-702 99-1204l-162-234 162 89-31-212 104 156 36-206 47 212 37 67c0 0 505-463 1057 195"/><path d="m15225 12070c0 0 599 308 810 43"/><path d="m16183 11213c105 674 615 574 615 574 31 106 167 173 167 173 109 602-404 530-404 530-55-156-221-95-221-95-381-201-402-588-402-588 0 0 172-176 245-594z"/><path d="m16293 10800c0 0-129 489-333 442"/><path d="m16496 10995c0 0-182 630 422 642"/><path d="m17215 11179c0 0-47 391 141 770 187 379 213 937 213 937"/><path d="m17145 10504c0 0-415 636-837 65"/><path d="m17016 10653c0 0 288 103 428 610"/><path d="m17304 10756c0 0 583 646 531 1845"/><path d="m17475 10822c0 0 226 194 462 753"/><path d="m17106 12612c0 0-169 26-241-201"/><path d="m16954 12707l89 613"/><path d="m16690 12840l29-3c0 0-26-151 93-112 0 0 136 53 71 207 0 0-13 2-42-6 0 0 52 156-62 114 0 0 20 151-107 106 0 0-123-39-117-145 0 0 9-80 91-72 0 0-21-109 44-89z"/><path d="m16719 12837c0 0 83 14 122 89"/><path d="m16646 12929c0 0 114 69 133 111"/><path d="m16561 12490c0 0-32 639-585 617 0 0-344-5-458-346 0 0-26-317 276-373 0 0 57 5 146 106 0 0 221 226 400-99"/><path d="m16450 12156c0 0-109 39-151-50"/><path d="m16085 12179c0 0-89 142 40 237 0 0 12 91-24 154"/><path d="m15783 12220l11 168"/><path d="m15633 12208c0 0 31 141-55 105 0 0-84-28-47 128 0 0 41 70-71 72l6 143c0 0 10 11 52 105"/><path d="m15466 12656c0 0-159-191-267-158"/><path d="m14942 13394c0 0 8-805 340-887"/><path d="m15347 12766c0 0 26 295 99 376"/><path d="m15287 13025c0 0-18 268 91 351 0 0 383 248 159 728 0 0-94 206-349 240"/><path d="m15272 13842c0 0 83 191-131 472"/><path d="m15527 13460l-37-31c0 0-132-69-33-242 0 0 130-112 145 75 0 0 139-70 112 98 0 0 115-28 45 125 0 0-110 70-232-25z"/><path d="m15800 13488l180 81"/><path d="m16551 13309l-128 159"/><path d="m16287 13543c0 0 303 299-41 505 0 0-60 67 29 151 0 0 54 28 33 147 0 0-28 76 81 70 0 0 151-19 216 184 0 0-2 39-244 39 0 0-339-67-365 312l-55 12c0 0-88-407-552-444 0 0-360-47-532 368 0 0-73-170 201-510 0 0 19-18 24-104"/><path d="m16605 14600c0 0 183-5 248 114 0 0 172 240-29 363 0 0-284 156-557 31 0 0-244-162-271-157"/><path d="m15941 14963c0 0-88 220-331 256 0 0-708 98-753-332"/></g></g><g stroke="#201e1e"><g fill="#201e1e" stroke-width="7.62"><path d="m15364 11861l-31-28c0 0 31-148 88-195 0 0 32-39 58 25 0 0 91 159 28 215l-143-17z"/><path d="m16117 11915l-15-13c0 0 15-69 41-90 0 0 15-18 27 11 0 0 42 74 13 99l-66-7z"/><path d="m16719 12085l-16-9c0 0 0-70 21-98 0 0 11-21 28 5 0 0 56 62 33 94l-66 8z"/><path d="m15960 11242c33-147 91-310 193-470 43-69 95-137 155-203-552-658-1057-195-1057-195l-37-67-47-212-36 206-104-156 31 212-162-89 162 234c-459 502-99 1204-99 1204l205 180c-34-401 117-691 117-691 57-70 86 5 86 5 211 474 555 388 555 388 0-44 2-94 7-147 6-62 15-128 31-199z"/><path d="m16605 14600c-65-203-216-184-216-184-109 6-81-70-81-70 21-119-33-147-33-147-89-84-29-151-29-151 344-206 41-505 41-505-30 35-109 64-307 26 0 0 287 223 209 290-79 66-110 72-89 223 0 0-21 67-135 145 0 0-58 66-79 150 0 0-5 123-333 123 0 0-287 28-365-156 0 0-18-11-47-30-16-11-37-25-59-41-5 86-24 104-24 104-274 340-201 510-201 510 172-415 532-368 532-368 464 37 552 444 552 444l55-12c26-379 365-312 365-312 242 0 244-39 244-39z"/></g><path d="m15922 11588c0 0-344 86-555-388 0 0-29-75-86-5 0 0-151 290-117 691l-205-180" fill="none" stroke-linejoin="round" stroke-linecap="round" stroke-width="75"/></g><g fill="none" stroke="#fff" stroke-linejoin="round" stroke-linecap="round" stroke-width="75"><path d="m16112 10712c0 0-141-220-256-203"/><path d="m15889 11257c0 0-262-34-350-297"/><path d="m15873 11442c0 0-170 37-363-236"/><path d="m15216 10648c0 0-34 257 125 460"/></g><path d="m14662 21508c0-97-66-176-153-198-66 31-107 92-152 150-50-58-91-146-174-137-132 35-144 220-107 335 79 123 199 207 281 321 103-154 343-246 305-471" fill="#201e1e"/><path d="m14662 21508c0-97-66-176-153-198-66 31-107 92-152 150-50-58-91-146-174-137-132 35-144 220-107 335 79 123 199 207 281 321 103-154 343-246 305-471z" fill="none" fill-rule="nonzero" stroke="#201e1e" stroke-width="7.62"/><path d="m17604 21711c46-119 16-317-120-353-78 9-116 93-165 150-50-62-104-172-194-132-112 53-128 225-91 335 83 119 203 198 286 317 82-119 206-198 284-317" fill="#201e1e"/><path d="m17604 21711c46-119 16-317-120-353-78 9-116 93-165 150-50-62-104-172-194-132-112 53-128 225-91 335 83 119 203 198 286 317 82-119 206-198 284-317z" fill="none" fill-rule="nonzero" stroke="#201e1e" stroke-width="7.62"/><path d="m15652 19712c-4-110 31-273 154-269 54 36 93 93 131 146 54-66 112-190 204-119 97 88 112 282 19 383-77 84-154 163-224 256-84-141-261-212-284-397" fill="#201e1e"/><path d="m15652 19712c-4-110 31-273 154-269 54 36 93 93 131 146 54-66 112-190 204-119 97 88 112 282 19 383-77 84-154 163-224 256-84-141-261-212-284-397z" fill="none" fill-rule="nonzero" stroke="#201e1e" stroke-width="7.62"/><path d="m16134 22120c0-101-42-259-161-246-66 22-95 92-141 141-58-62-120-177-219-128-91 88-127 269-36 374 78 97 178 177 256 269 95-136 289-220 301-410" fill="#201e1e"/><path d="m16134 22120c0-101-42-259-161-246-66 22-95 92-141 141-58-62-120-177-219-128-91 88-127 269-36 374 78 97 178 177 256 269 95-136 289-220 301-410z" fill="none" fill-rule="nonzero" stroke="#201e1e" stroke-width="7.62"/><path d="m18241 15396c-4-110-87-176-178-198-41 48-82 101-123 149-46-48-83-110-141-136-124-4-173 150-165 260 21 185 211 260 307 401 103-154 346-251 300-476" fill="#201e1e"/><path d="m18241 15396c-4-110-87-176-178-198-41 48-82 101-123 149-46-48-83-110-141-136-124-4-173 150-165 260 21 185 211 260 307 401 103-154 346-251 300-476z" fill="none" fill-rule="nonzero" stroke="#201e1e" stroke-width="7.62"/><path d="m18627 10304c-99-40-152 62-206 132-58-66-120-176-219-128-99 97-124 287-20 388 78 88 165 163 236 260 86-119 222-194 293-326 24-110 16-255-84-326" fill="#201e1e"/><path d="m18627 10304c-99-40-152 62-206 132-58-66-120-176-219-128-99 97-124 287-20 388 78 88 165 163 236 260 86-119 222-194 293-326 24-110 16-255-84-326z" fill="none" fill-rule="nonzero" stroke="#201e1e" stroke-width="7.62"/><path d="m18708 12967c-4-110-87-176-178-198-41 48-82 101-123 150-46-49-83-111-141-137-124-4-173 150-165 260 21 185 211 260 306 401 103-154 347-251 301-476" fill="#201e1e"/><path d="m18708 12967c-4-110-87-176-178-198-41 48-82 101-123 150-46-49-83-111-141-137-124-4-173 150-165 260 21 185 211 260 306 401 103-154 347-251 301-476z" fill="none" fill-rule="nonzero" stroke="#201e1e" stroke-width="7.62"/><path d="m14214 10862c-12-84-37-221-136-216-87-18-120 88-174 141-49-75-116-177-219-128-82 79-103 216-65 326 87 119 198 207 289 321 91-154 318-233 305-444" fill="#201e1e"/><path d="m14214 10862c-12-84-37-221-136-216-87-18-120 88-174 141-49-75-116-177-219-128-82 79-103 216-65 326 87 119 198 207 289 321 91-154 318-233 305-444z" fill="none" fill-rule="nonzero" stroke="#201e1e" stroke-width="7.62"/><path d="m14183 17354c-95-40-145 75-198 132-54-66-116-172-215-123-103 92-128 299-16 401 83 79 161 154 232 246 70-92 156-171 239-251 107-105 78-326-42-405" fill="#201e1e"/><path d="m14183 17354c-95-40-145 75-198 132-54-66-116-172-215-123-103 92-128 299-16 401 83 79 161 154 232 246 70-92 156-171 239-251 107-105 78-326-42-405z" fill="none" fill-rule="nonzero" stroke="#201e1e" stroke-width="7.62"/><path d="m18373 17640c4-92-41-216-136-238-87-4-120 93-170 155-49-80-124-194-227-128-83 92-111 251-33 357 83 101 183 180 261 286 91-154 301-229 305-432" fill="#201e1e"/><path d="m18373 17640c4-92-41-216-136-238-87-4-120 93-170 155-49-80-124-194-227-128-83 92-111 251-33 357 83 101 183 180 261 286 91-154 301-229 305-432z" fill="none" fill-rule="nonzero" stroke="#201e1e" stroke-width="7.62"/><path d="m14711 15604c-4-110-87-176-178-198-41 49-82 102-123 150-46-48-83-110-141-137-124-4-173 150-165 260 21 185 211 260 307 401 103-154 346-251 300-476" fill="#201e1e"/><path d="m14711 15604c-4-110-87-176-178-198-41 49-82 102-123 150-46-48-83-110-141-137-124-4-173 150-165 260 21 185 211 260 307 401 103-154 346-251 300-476z" fill="none" fill-rule="nonzero" stroke="#201e1e" stroke-width="7.62"/><path d="m14140 12910c-13-84-38-221-137-216-87-18-120 88-173 141-50-75-116-177-219-128-83 79-103 216-66 326 87 119 199 207 290 322 90-155 318-234 305-445" fill="#201e1e"/><path d="m14140 12910c-13-84-38-221-137-216-87-18-120 88-173 141-50-75-116-177-219-128-83 79-103 216-66 326 87 119 199 207 290 322 90-155 318-234 305-445z" fill="none" fill-rule="nonzero" stroke="#201e1e" stroke-width="7.62"/><path d="m13313 4340c-86-13-128 93-177 146-46-62-91-146-182-146-120 49-144 225-103 344 83 119 203 207 290 322 90-150 297-225 297-428-1-92-26-216-125-238" fill="#201e1e"/><path d="m13313 4340c-86-13-128 93-177 146-46-62-91-146-182-146-120 49-144 225-103 344 83 119 203 207 290 322 90-150 297-225 297-428-1-92-26-216-125-238z" fill="none" fill-rule="nonzero" stroke="#201e1e" stroke-width="7.62"/><path d="m15195 4907c0-101-62-238-174-211-53 35-86 88-127 132-58-48-108-159-199-128-124 80-152 309-37 410 79 79 162 159 232 247 99-154 318-238 305-450" fill="#201e1e"/><path d="m15195 4907c0-101-62-238-174-211-53 35-86 88-127 132-58-48-108-159-199-128-124 80-152 309-37 410 79 79 162 159 232 247 99-154 318-238 305-450z" fill="none" fill-rule="nonzero" stroke="#201e1e" stroke-width="7.62"/><path d="m13254 6213c4-115-37-278-170-278-53 44-90 101-132 154-58-75-124-185-227-127-83 96-115 251-37 361 83 101 187 180 261 282 91-141 277-212 305-392" fill="#201e1e"/><path d="m13254 6213c4-115-37-278-170-278-53 44-90 101-132 154-58-75-124-185-227-127-83 96-115 251-37 361 83 101 187 180 261 282 91-141 277-212 305-392z" fill="none" fill-rule="nonzero" stroke="#201e1e" stroke-width="7.62"/><path d="m16532 5650c-41 0-82 0-124 0-37 44-66 92-99 141-62-62-111-167-211-141-103 88-140 269-53 379 83 97 178 180 257 282 82-115 198-194 280-304 62-119 4-251-50-357" fill="#201e1e"/><path d="m16532 5650c-41 0-82 0-124 0-37 44-66 92-99 141-62-62-111-167-211-141-103 88-140 269-53 379 83 97 178 180 257 282 82-115 198-194 280-304 62-119 4-251-50-357z" fill="none" fill-rule="nonzero" stroke="#201e1e" stroke-width="7.62"/><path d="m14834 6645c0-110-74-207-182-212-41 44-78 93-115 141-58-53-124-172-211-119-107 62-115 220-82 335 83 115 199 198 290 308 94-154 330-233 300-453" fill="#201e1e"/><path d="m14834 6645c0-110-74-207-182-212-41 44-78 93-115 141-58-53-124-172-211-119-107 62-115 220-82 335 83 115 199 198 290 308 94-154 330-233 300-453z" fill="none" fill-rule="nonzero" stroke="#201e1e" stroke-width="7.62"/><path d="m16101 7364c-29 0-79 0-108-4-37 48-78 101-115 150-54-75-124-194-228-124-86 97-107 278-16 379 79 84 170 163 240 256 87-97 194-177 273-282 82-115 24-269-46-375" fill="#201e1e"/><path d="m16101 7364c-29 0-79 0-108-4-37 48-78 101-115 150-54-75-124-194-228-124-86 97-107 278-16 379 79 84 170 163 240 256 87-97 194-177 273-282 82-115 24-269-46-375z" fill="none" fill-rule="nonzero" stroke="#201e1e" stroke-width="7.62"/><path d="m17678 7879c-1-93-34-203-116-243-96-13-137 93-190 154-50-61-87-171-182-145-128 40-140 234-95 348 83 115 199 198 282 313 86-154 297-225 301-427" fill="#201e1e"/><path d="m17678 7879c-1-93-34-203-116-243-96-13-137 93-190 154-50-61-87-171-182-145-128 40-140 234-95 348 83 115 199 198 282 313 86-154 297-225 301-427z" fill="none" fill-rule="nonzero" stroke="#201e1e" stroke-width="7.62"/><path d="m13269 7953c-87-35-136 70-194 119-58-53-120-154-211-110-119 88-127 295-20 401 75 79 158 158 232 242 70-93 161-168 239-251 103-110 82-322-46-401" fill="#201e1e"/><path d="m13269 7953c-87-35-136 70-194 119-58-53-120-154-211-110-119 88-127 295-20 401 75 79 158 158 232 242 70-93 161-168 239-251 103-110 82-322-46-401z" fill="none" fill-rule="nonzero" stroke="#201e1e" stroke-width="7.62"/><path d="m14688 7865c-95-31-141 88-190 154-37-53-70-119-124-154-157-14-202 198-169 321 74 132 207 216 294 335 86-110 198-189 280-299 50-115 29-300-91-357" fill="#201e1e"/><path d="m14688 7865c-95-31-141 88-190 154-37-53-70-119-124-154-157-14-202 198-169 321 74 132 207 216 294 335 86-110 198-189 280-299 50-115 29-300-91-357z" fill="none" fill-rule="nonzero" stroke="#201e1e" stroke-width="7.62"/><path d="m16947 8844c-99-53-157 53-214 114-54-48-96-150-178-123-136 40-140 238-99 357 83 110 195 185 277 295 71-84 149-154 223-229 120-102 107-317-9-414" fill="#201e1e"/><path d="m16947 8844c-99-53-157 53-214 114-54-48-96-150-178-123-136 40-140 238-99 357 83 110 195 185 277 295 71-84 149-154 223-229 120-102 107-317-9-414z" fill="none" fill-rule="nonzero" stroke="#201e1e" stroke-width="7.62"/><path d="m15619 9059c41-114 29-295-91-348-95-44-140 80-194 141-50-61-83-149-170-149-136 39-156 229-111 352 75 119 199 198 282 313 86-115 202-194 284-309" fill="#201e1e"/><path d="m15619 9059c41-114 29-295-91-348-95-44-140 80-194 141-50-61-83-149-170-149-136 39-156 229-111 352 75 119 199 198 282 313 86-115 202-194 284-309z" fill="none" fill-rule="nonzero" stroke="#201e1e" stroke-width="7.62"/><path d="m13309 9487c4-105-50-211-157-224-58 30-99 88-140 141-50-62-100-141-186-137-137 70-165 291-58 401 79 88 166 167 245 260 94-150 313-234 296-441" fill="#201e1e"/><g stroke="#201e1e" stroke-width="7.62"><path d="m13309 9487c4-105-50-211-157-224-58 30-99 88-140 141-50-62-100-141-186-137-137 70-165 291-58 401 79 88 166 167 245 260 94-150 313-234 296-441z" fill="none" fill-rule="nonzero"/><path d="m18774 9676l170 8-21 315-496-40c-28 15-58 21-90 19-47-4-88-25-118-62-31-36-45-81-41-129 3-48 22-91 57-122 36-32 80-46 126-42 27 2 52 9 75 22l35-54-270-19 21-308h1l10-195-3-28c-2-17-3-34-2-51 4-85 35-159 96-216 19-18 39-32 59-44-21-14-41-32-59-52-54-62-82-136-78-220 0-1 1-3 1-4l-157-9 16-308 440 23c76 4 149 29 206 83 32 30 55 67 71 109 16 42 24 86 22 131-5 85-37 159-98 216-18 18-38 32-58 44 22 15 42 33 61 54 54 63 80 139 76 223-5 85-32 163-95 220-34 31-73 51-114 62 41 14 79 37 110 71 51 55 71 125 65 201-1 21-5 42-10 62l-8 40zm-138-2312l138-17 64 543-313 40c-74 9-142-8-201-54-59-46-94-109-103-184-10-83 12-160 68-221 31-34 69-56 111-70l-18-88-78 102-52-45c-55-46-90-105-105-176-17-83-5-163 40-234 25-41 56-72 93-95-75 6-147-11-206-65-44-39-70-97-88-152l-27-88 295-99 22 73c1 2 2 6 4 10 5-1 10-2 13-3 34-9 78-21 113-21 33 1 65 12 95 27 61 34 99 92 120 158l36 115-88 29c12 6 23 13 35 20 69 47 112 114 129 198 17 82 5 160-40 230-16 26-35 48-57 67zm-500-1429c35-5 70-3 105 7 71 21 123 70 157 138 9 18 16 39 22 58l18 56-311 163 4-92-241 126-136-275 78-41-49-19c-66-25-118-69-155-132-42-72-56-152-36-234 13-55 38-102 75-140-72 40-151 55-232 24-54-20-99-65-134-110l-57-71 241-201 47 59c1 2 4 5 7 8 4-3 8-6 11-8 29-21 65-48 98-60 32-13 65-14 98-10 69 8 124 49 167 103l74 94-93 77c21 1 42 4 63 9 81 21 143 71 186 144 41 72 54 150 35 231-9 36-23 68-42 96zm-209 90l-39-67-36 106 75-39zm-796-1467c5 0 10-1 15-1 84 0 156 33 216 92 59 58 89 132 90 215 1 84-27 159-84 219-57 61-129 93-211 94-82 1-155-29-214-88-59-59-90-132-92-217-1-36 4-70 14-103l-108 137-233-195 53-67-62 4c-70 4-136-14-194-56-67-48-111-115-126-199-5-32-6-64-2-95-29 29-63 51-103 65-70 25-140 20-206-15-72-38-121-99-140-181-4-18-5-36-5-54l-98 276-282-106 53-151c-1 0-3-1-4-1-76-29-132-84-166-160-12-27-20-54-25-82-14 37-40 67-76 87-41 23-86 27-131 14-45-13-82-41-105-83-23-43-26-90-13-136 13-47 41-84 82-107 41-24 86-29 131-16 46 14 81 43 104 86 6 11 10 22 14 34 2-11 6-21 9-32 28-80 81-139 156-174 75-35 154-37 232-8 41 15 77 40 109 71 30 32 54 69 69 111 19 54 21 109 11 163l106-215 474 248-79 160c37-29 81-49 130-58 82-14 158 5 226 54 67 48 109 114 123 196 7 38 7 75 0 111 33-24 70-40 111-47 74-11 141 13 198 60 16 14 30 29 44 45l38 43-49 62zm-491 5l-68-49 10 123 58-74zm-2263-1059c47 5 87 28 117 66 29 38 43 83 38 131-5 48-27 89-64 119-37 30-81 43-127 38-47-5-87-26-117-64-29-37-41-83-36-131 5-48 26-89 63-120 36-30 80-44 126-39zm370 57c46 9 84 36 110 76 26 40 36 87 27 134-9 48-35 86-74 113-39 27-83 36-129 26-46-9-85-33-112-74-26-40-33-86-24-133 9-48 33-87 72-115 39-27 84-36 130-27z" fill="#201e1e"/></g><path d="m14370 3572c29 3 54 16 72 40 19 25 27 52 24 82-3 30-16 54-39 73-23 19-50 27-79 23-31-3-55-16-73-39-18-22-25-49-22-81 4-30 16-55 39-74 23-20 49-28 78-24m364 56c29 5 52 21 68 47 17 25 22 53 17 83-6 30-21 53-45 69-25 17-52 22-81 17-30-7-53-22-69-46-16-24-21-51-15-83 6-30 21-54 45-71 25-17 51-22 80-16m353 85c28 9 49 26 64 53 14 28 17 56 9 85-8 29-25 50-50 65-26 14-54 17-82 9-30-9-51-26-65-52-14-25-16-53-8-83 8-30 25-52 51-67 26-15 53-18 81-10m356 530l126-356c21-58 10-95-30-110-17-6-34-6-50 2-16 7-28 20-34 37-6 17-5 34 2 51 7 16 19 28 36 34 12 5 27 5 44-1l-63 179c-20-5-34-9-44-13-58-22-101-63-128-124-27-60-30-121-8-183 22-63 63-108 121-136 59-27 120-29 183-5 31 11 59 30 84 56 25 25 43 54 54 85 19 54 17 115-6 181l-128 362-159-59m501-468l150 79-115 232c-11 24-8 40 11 50 18 10 33 3 45-21l115-232 150 79-113 229c-27 54-66 90-119 108-53 19-104 15-154-11-57-30-92-75-106-136-10-48-1-101 29-160l107-217m722 723l-209-150c4-13 9-24 16-33 8-13 19-23 31-32l70 50c15-32 9-57-17-76-17-12-36-15-57-7-21 7-40 22-56 46-17 24-25 48-25 71 0 22 9 40 26 52 13 10 32 12 54 7l12 154c-56 3-107-11-152-43-54-40-88-92-99-156-11-64 2-124 40-180 37-56 88-89 151-100 64-11 123 3 178 42 53 39 85 90 96 153 11 63-2 122-40 177-3 6-10 14-19 25m427 0l-113 144c-5-13-11-22-19-28-23-20-50-11-79 26l-134 170-131-109 154-196c41-52 87-82 139-90 52-7 100 8 146 46 10 9 23 21 37 37m223 200c46 45 69 101 70 168 1 66-21 123-65 170-45 48-100 73-165 73-65 1-120-22-167-68-47-47-71-104-73-171-1-67 20-124 65-172 46-48 101-73 165-73 65 0 121 24 170 73m-118 119c-13-13-29-19-47-18-18 1-34 8-47 22-13 14-19 30-19 49 0 19 6 35 19 48 13 12 28 18 47 18 18-1 34-8 47-22 13-14 19-30 19-49 0-19-6-35-19-48m696 550l-138 115c-15-19-29-29-41-30-12-2-30 5-51 20-72 50-141 63-206 38-34-13-69-42-106-89l-14-18 138-115 4 6c17 21 34 33 50 35 16 2 35-6 58-22 37-28 65-46 84-53 18-7 40-9 66-6 46 6 87 32 124 79l32 40m86 616l-131-225c9-10 18-18 27-24 13-7 27-13 42-16l44 75c26-23 30-48 14-76-11-19-27-29-49-31-22-2-45 4-69 19-25 15-42 33-51 54-9 21-8 41 2 59 9 15 25 24 47 29l-49 146c-53-21-94-56-122-104-35-58-44-120-29-183 15-64 51-113 107-148 57-35 116-45 178-28 63 16 111 54 145 113 34 57 43 117 28 180-15 62-50 111-106 145-6 3-15 8-28 15m378 176l-160 84c0-13-2-24-6-33-14-28-42-31-83-9l-190 99-76-154 218-115c58-30 112-38 162-24 50 15 89 49 116 103 6 12 12 29 19 49m216 617l-169 56c-7-23-16-37-27-43-12-6-30-6-55 0-85 20-154 6-206-40-27-25-50-66-68-122l-7-23 169-57 2 8c9 26 20 43 34 51 15 8 35 8 63 1 44-13 76-19 96-19 19 0 41 7 64 19 41 23 70 62 88 119l16 50m-113 591l-53-257c12-6 23-11 33-13 15-3 30-4 45-2l18 87c31-14 44-36 37-68-4-21-16-36-37-46-20-9-44-11-71-5-28 6-50 18-65 34-15 17-20 36-16 57 3 17 15 31 35 43l-93 121c-44-37-71-84-83-139-14-66-3-128 31-183 34-55 84-90 148-104 65-14 124-3 178 34 53 36 87 88 101 155 14 65 3 125-31 179-34 54-82 88-146 102-6 2-17 3-31 5m255 55l21 172-252 32c-25 3-37 16-34 37 2 21 16 30 42 27l251-32 21 173-248 31c-58 7-109-6-154-41-44-34-70-80-77-137-8-66 9-121 51-167 32-35 80-57 144-65l235-30m-556 959l9-173 373 20c69 3 124 25 165 64 24 23 42 51 55 85 13 33 19 67 17 102-3 69-29 126-76 170-47 45-104 66-169 62-63-3-117-30-161-79-44-49-64-106-60-170 0-10 2-26 5-46l185 10c-11 13-18 27-18 42-1 18 4 33 17 47 12 13 27 20 44 21 18 1 33-4 47-17 13-13 20-28 21-47 2-44-27-68-87-71l-367-20m309 661l-174-9c-1-14-2-27-1-39 3-69 29-126 75-170 47-43 103-63 170-60 65 4 119 30 162 79 43 49 63 107 59 174-4 74-28 132-72 173-45 40-104 59-178 55l-219-12 9-173 207 11c24 1 43-4 58-15 14-11 22-26 23-46 1-18-5-34-17-48-12-14-27-21-45-22-18-1-34 4-46 15-13 12-20 27-21 45 0 15 3 29 10 42m249 579l-179-13c7-12 11-22 12-32 2-31-20-48-67-52l-212-15 12-173 244 17c65 5 115 27 151 66 36 39 52 89 48 150-1 13-4 31-9 52m144 305l-380-31 11-164 381 18-12 177m-405-119c-2 30-15 56-37 76-23 20-49 29-78 27-30-2-54-15-73-38-19-23-27-50-25-80 2-32 14-57 35-76 21-19 47-28 78-26 30 3 55 15 74 38 19 23 28 49 26 79" fill="#fff" fill-rule="nonzero"/><g fill="#201e1e"><text x="10500" y="14850" font-family="&apos;Menuet script&apos;" stroke="#201e1e" stroke-linejoin="round" stroke-linecap="round" stroke-width="50" font-size="1253.78" transform="matrix(.7027 0 0 1 7401.56 4109.57)">Texto 02</text><g font-family="&apos;Arial Black&apos;" font-weight="900"><g font-size="479.23"><text x="10500" y="14850" transform="matrix(.9714 0 0 1 5409.17 2041.21)">NN 1</text><text x="10500" y="14850" transform="matrix(.9714 0 0 1 5370.95 2503.23)">NN 2</text></g><text x="10500" y="14850" font-size="714.84" transform="matrix(.94871 0 0 1 3977.92 6002.81)">00.00.0000</text></g></g></svg>