<svg xmlns="http://www.w3.org/2000/svg" viewBox="0 0 500 707" shape-rendering="geometricPrecision" image-rendering="optimizeQuality" fill-rule="evenodd" clip-rule="evenodd"><defs><clipPath id="0"><path d="m166 608c-27 13-79 10-95-14-16-25-12-95-14-129-4-86-13-151-15-220-3-77 49-128 111-142 89-20 83 98 71 159-6 32-19 61-27 93-15 59-1 149-7 210-2 21-9 35-24 43"/></clipPath><clipPath id="1"><path d="m336 607c27 14 80 11 95-14 16-24 13-94 14-128 4-86 13-151 16-220 3-77-50-128-112-142-88-20-83 98-71 159 7 32 19 61 27 93 15 58 2 148 7 210 3 21 10 35 24 42"/></clipPath></defs><g clip-path="url(#0)"><g><g><g><path d="m160 585c0-2 2-4 4-5 2 1 3 3 4 4 2-1 3-4 5-3 3 1 4 5 3 8-2 4-5 6-8 9-2-4-9-7-8-13" fill="#201e1e"/><path d="m160 585c0-2 2-4 4-5 2 1 3 3 4 4 2-1 3-4 5-3 3 1 4 5 3 8-2 4-5 6-8 9-2-4-9-7-8-13z" fill="none" fill-rule="nonzero" stroke="#201e1e" stroke-width=".181"/></g><g><path d="m83 591c-2-3-1-9 3-9 2 0 3 2 4 3 2-1 3-4 5-3 3 1 4 6 3 9-2 3-6 5-8 8-2-3-5-5-7-8" fill="#201e1e"/><path d="m83 591c-2-3-1-9 3-9 2 0 3 2 4 3 2-1 3-4 5-3 3 1 4 6 3 9-2 3-6 5-8 8-2-3-5-5-7-8z" fill="none" fill-rule="nonzero" stroke="#201e1e" stroke-width=".181"/></g><g><g><path d="m121 535c0-3 1-7 4-7 2 1 3 2 4 3 1-1 3-4 6-3 2 3 3 8 0 10-2 3-4 5-6 7-3-4-8-5-8-10" fill="#201e1e"/><path d="m121 535c0-3 1-7 4-7 2 1 3 2 4 3 1-1 3-4 6-3 2 3 3 8 0 10-2 3-4 5-6 7-3-4-8-5-8-10z" fill="none" fill-rule="nonzero" stroke="#201e1e" stroke-width=".181"/></g><g><path d="m121 601c0-2 2-6 5-6 1 1 2 2 3 4 2-2 4-5 6-4 3 3 4 7 1 10-2 3-5 5-7 7-2-3-7-6-8-11" fill="#201e1e"/><path d="m121 601c0-2 2-6 5-6 1 1 2 2 3 4 2-2 4-5 6-4 3 3 4 7 1 10-2 3-5 5-7 7-2-3-7-6-8-11z" fill="none" fill-rule="nonzero" stroke="#201e1e" stroke-width=".181"/></g></g></g><g fill="#201e1e"><text x="250" y="354" font-family="&apos;Menuet script&apos;" stroke="#201e1e" stroke-linejoin="round" stroke-linecap="round" stroke-width="1.19" font-size="35.602" transform="matrix(.76352 0 0 .99123-98.94 164.31)">Texto 01</text><text x="250" y="354" font-family="&apos;Arial Black&apos;" font-weight="900" font-size="14.523" transform="matrix(1.02155 0 0 .99123-174.01 220.83)">00.00.0000</text><path d="m153 120c1-1 2-1 3-2 1 0 2 0 3 1 1 1 2 2 2 3 0 1 0 2-1 3 0 1-1 2-2 2-2 1-3 0-4 0-1-1-2-2-2-3 0-1 0-2 0-2l-1-1 2 7-8 2v-2c0 0-1 0-1 1-1 2-2 3-4 4-2 1-4 1-6 0-1-1-2-1-3-2l2 4-7 4-6-11c0-1-1-2-1-3 0-2 1-3 2-5 0-1 1-2 3-3l2-1 3 8c0-1 1-2 1-2 1-2 3-4 5-4 2-1 4-1 6 0 1 1 1 1 2 2 0-1 0-2 1-3 1-2 2-3 4-4 1 0 1 0 2 0h1l2 7zm-50 20c0-1 0-2 0-3 1-2 2-3 4-5 1-1 3-1 5-1 3 0 4 2 5 3 1 1 1 1 1 1l1 2-3 2 3 1v1c-1 2-2 4-4 5-1 1-3 1-6 1-1 0-1-1-2-1 0 0 0 1 0 2 0 1 0 2-1 3 0 1-1 2-2 3-1 1-3 2-6 2 0 0 0 0-1 0l2 2-10 10-2-2c0 0 1 1 1 1 0 2-1 4-2 6-1 2-3 3-5 3-2 1-4 0-6-1-2-2-3-3-3-6 0-2 0-4 2-6 1-1 3-2 5-3 1 0 3 0 4 1-1-1-2-3-2-5 0-2 1-3 3-5 1-1 3-2 5-2 1 0 2 1 3 1-1-1-1-2-1-3 0-2 1-4 3-5l-3-4 6-5 6 7zm-37 46c-1-1-2-2-2-3-1-1 0-3 0-5 1-1 1-1 1-2l1-1 8 5-2 1 7 3-4 7-2-1c0 0 0 1 0 1 1 2 1 4 0 6-1 2-2 4-4 4-2 1-4 1-6 1 1 2 1 4 1 6l5 1-2 8-12-3c-1 0-2-1-2-1-1-1-2-1-2-2-1-1-1-2-2-3 0-2 0-3 1-4 0-2 1-4 3-5 2-1 4-1 6 0 0-1 0-1-1-2 0-2 0-4 1-6 0-2 2-4 4-4 1-1 2-1 3-1zm100-69c1 0 2 0 3 1 1 1 2 2 2 3 0 1-1 2-1 3-1 1-2 2-4 2-1 0-2 0-3-1-1-1-1-2-1-3-1-2 0-3 1-4 0-1 2-1 3-1zm10-1c1 0 2 1 3 2 1 1 1 2 1 3 0 2 0 3-1 3-1 1-3 2-4 1-1 0-2 0-3-1-1-1-1-2-1-4 0-1 1-2 2-3 1-1 2-1 3-1z" stroke="#201e1e" stroke-width=".181"/></g><path d="m62 208l-4-1c0-1 0-2-1-2-1 0-1 0-1 1-1 1 0 1 1 1l10 3-1 5-10-3c-1 0-2 0-3-1 0 0-1-1-1-1 0-1-1-2-1-3 0-1 0-2 0-2 1-2 2-3 3-4 1-1 3-1 4-1 2 1 3 2 4 3 0 1 0 2 0 4v1m-2-16c1-2 2-3 3-4 2 0 4-1 5 0 2 1 3 2 4 4 0 1 0 3 0 4-1 2-2 3-4 4-1 1-3 1-5 0-1-1-2-2-3-4-1-1-1-3 0-4m4 1c0 1 0 1 0 2 0 0 1 0 1 1 1 0 1 0 2 0 0-1 0-1 0-1 1-1 1-1 0-2 0 0 0 0-1-1 0 0 0 0-1 0 0 1-1 1-1 1m3-15l4 2c0 0-1 0-1 0 0 1 0 2 1 2l5 3-2 4-5-3c-2-1-3-2-3-3-1-2-1-3 0-4 0-1 0-1 1-1m8-14c1-1 2-2 4-2 2 0 3 0 5 1 1 1 2 3 2 4 0 2 0 4-1 5-1 2-3 2-4 3-2 0-4-1-5-2-1-1-2-2-2-4-1-1 0-3 1-5m3 3c0 1 0 1 0 2 0 0 0 0 1 1 0 0 1 0 1 0 1 0 1 0 1-1 0 0 1 0 1-1-1 0-1-1-1-1-1 0-1 0-2 0 0 0 0 0-1 0m19-9l-3 3-5-5c0 0-1-1-1 0-1 0-1 1 0 1l5 5-4 3-4-5c-1-1-2-2-2-4 0-1 1-2 2-3 1-2 2-2 4-2 1 0 2 1 4 2l4 5m-3-19l3-3 7 7c1 2 1 3 1 5 0 1 0 1 0 2-1 1-1 2-2 2-1 2-3 2-4 2-2 0-4-1-5-2-1-2-1-3-1-5 0-2 1-3 2-4 0 0 1 0 1-1l3 4c0 0-1 0-1 0 0 1-1 1-1 2 0 0 1 0 1 1 0 0 1 0 1 0 0 0 1 0 1 0 1-1 1-2 0-3l-6-7m22-3l-5 4c0 0-1-1-1-1 0 0 0 0 0-1l2-1c-1-1-2-1-2 0-1 0-1 0-1 1 0 1 0 1 0 2 1 0 1 1 2 1 0 0 1 0 1 0 1 0 1-1 1-1l4 1c-1 1-1 2-3 3-1 1-3 1-4 1-2 0-3-1-4-3-1-1-2-3-1-4 0-2 1-3 2-4 2-1 3-2 5-1 2 0 3 1 4 2 0 1 0 1 0 1m12-11l2 5h-2l2 5-4 2-4-10c-1-1-1-2-1-2 0-2 0-3 1-4 1-1 2-2 2-2h1l2 4c0 0 0 0 0 0-1 0-1 1-1 1 0 1 0 1 0 2l2-1m7-6c2 0 3 0 5 1 1 0 2 2 3 3 1 2 0 3 0 5-1 2-2 3-4 3-2 1-3 1-5 0-1-1-2-2-3-4 0-1 0-3 0-4 1-2 2-3 4-4m1 5c0 0 0 0-1 1 0 0 0 0 0 1 1 0 1 1 1 1 1 0 1 0 2 0 0 0 0 0 1-1 0 0 0-1 0-1 0-1-1-1-1-1-1-1-1-1-2 0m14-9l1 4c0 0-1 0-1 0-1 1-1 1-1 3l2 5-4 1-2-6c0-2 0-3 0-5 1-1 2-2 3-2 1 0 1 0 2 0m6 5c1 0 1 0 2 0 1 1 1 1 1 2 1 1 0 2 0 2 0 1-1 1-2 2-1 0-1 0-2-1-1 0-1-1-1-2 0 0 0-1 0-2 1 0 1-1 2-1m10-2c1 0 1 1 2 1 1 1 1 1 1 2 0 1 0 2-1 2 0 1-1 1-2 1-1 0-1 0-2-1 0 0-1-1-1-2 0 0 0-1 1-2 0 0 1-1 2-1m10 0c1 0 1 0 2 1 0 1 1 1 1 2-1 1-1 2-2 2 0 1-1 1-2 1 0 0-1-1-2-1 0-1 0-2 0-2 0-1 0-2 1-2 1-1 1-1 2-1" fill="#fff" fill-rule="nonzero"/><g fill="none" stroke="#201e1e" stroke-linejoin="round" stroke-linecap="round" stroke-width="1.786"><path d="m121 333c0 0-4-18 10-33h4c0 0 7-10 14-3 0 0 3 2 8 2 0 0 13 2 16 25 0 0 2 11 3 13 0 0 3 9 2 18 0 0 1 1-5 1 0 0-3 0-1 5 0 0 5 11-1 12 0 0-4-1-4 2 0 0 3 8-8 9 0 0-5 2-6-3 0 0 0-4-5-1 0 0-11 1-14-4 0 0-3 2-3 0 0 0 1 4-9 3 0 0 8 5 6 7-2 2-3 2-3 6 0 0 0 2-3 4 0 0-2 1-2 4 0 0 0 3-9 3 0 0-8 1-10-4 0 0-12-7-12-14 0 0 0-2 0-7 0 0 3-13-4-9 0 0-5-1-2-4 0 0 4 0 7-3 0 0 5-11 12-11 0 0 3-1 2-6 0 0 1-6-4-6 0 0-4 3-7-4 0 0-2-6 2-5 0 0-9-18 3-31l-4-6 4 2-1-6 3 4 1-5 1 6 1 1c0 0 13-12 28 5"/><path d="m102 339c0 0 16 9 22 2"/><path d="m127 317c3 18 17 15 17 15 1 3 4 5 4 5 3 15-11 13-11 13-1-4-5-2-5-2-10-5-11-15-11-15 0 0 5-5 6-16z"/><path d="m130 306c0 0-3 13-8 12"/><path d="m136 311c0 0-5 17 11 17"/><path d="m155 316c0 0-2 10 3 20 5 10 6 25 6 25"/><path d="m153 299c0 0-11 16-22 1"/><path d="m149 303c0 0 8 2 12 15"/><path d="m157 305c0 0 15 17 14 48"/><path d="m162 307c0 0 6 5 12 20"/><path d="m152 354c0 0-5 0-7-6"/><path d="m148 356l2 16"/><path d="m141 360l1-1c0 0-1-3 2-2 0 0 4 1 2 5 0 0 0 0-1 0 0 0 1 4-2 3 0 0 1 4-3 3 0 0-3-1-3-4 0 0 1-2 3-2 0 0-1-3 1-2z"/><path d="m142 359c0 0 2 1 3 3"/><path d="m140 362c0 0 3 2 3 3"/><path d="m137 350c0 0 0 17-15 17 0 0-9-1-12-9 0 0-1-9 7-10 0 0 2 0 4 3 0 0 6 5 11-3"/><path d="m135 342c0 0-3 1-4-2"/><path d="m125 342c0 0-2 4 1 7 0 0 0 2-1 4"/><path d="m117 343v5"/><path d="m113 343c0 0 1 4-1 3 0 0-3-1-2 3 0 0 1 2-2 2l1 4c0 0 0 0 1 3"/><path d="m109 355c0 0-5-5-7-4"/><path d="m95 374c0 0 0-21 9-23"/><path d="m105 358c0 0 1 7 3 9"/><path d="m104 364c0 0-1 7 2 10 0 0 10 6 4 18 0 0-2 6-9 7"/><path d="m103 386c0 0 3 5-3 12"/><path d="m110 376l-1-1c0 0-3-2-1-6 0 0 4-3 4 2 0 0 4-2 3 2 0 0 3-1 1 3 0 0-3 2-6 0z"/><path d="m117 376l5 3"/><path d="m137 372l-3 4"/><path d="m130 378c0 0 8 8-1 13 0 0-1 2 1 4 0 0 1 1 1 4 0 0-1 2 2 2 0 0 4-1 6 4 0 0 0 1-7 1 0 0-9-1-9 9h-2c0 0-2-11-14-12 0 0-10-1-14 10 0 0-2-5 5-13 0 0 0-1 0-3"/><path d="m139 405c0 0 4 0 6 3 0 0 5 7-1 10 0 0-7 4-14 1 0 0-7-5-7-4"/><path d="m121 415c0 0-2 6-9 7 0 0-18 2-19-9"/></g><g stroke="#201e1e"><g fill="#201e1e" stroke-width=".181"><path d="m106 334l-1-1c0 0 1-4 2-5 0 0 1-1 2 1 0 0 2 4 1 5h-4z"/><path d="m126 335h-1c0 0 1-2 1-2 0 0 1-1 1 0 0 0 1 2 0 3l-1-1z"/><path d="m142 340h-1c0 0 0-2 1-3 0 0 0 0 1 0 0 0 1 2 0 3h-1z"/><path d="m122 318c0-4 2-8 5-12 1-2 2-4 4-6-15-17-28-5-28-5l-1-1-1-6-1 5-3-4 1 6-4-2 4 6c-12 13-3 31-3 31l6 5c-1-11 3-18 3-18 1-2 2 0 2 0 6 12 15 10 15 10 0-1 0-3 0-4 0-1 0-3 1-5z"/><path d="m139 405c-2-5-6-4-6-4-3 0-2-2-2-2 0-3-1-4-1-4-2-2-1-4-1-4 9-5 1-13 1-13-1 1-3 2-8 1 0 0 8 5 6 7-2 2-3 2-3 6 0 0 0 2-3 4 0 0-2 1-2 4 0 0 0 3-9 3 0 0-8 1-10-4 0 0 0-1-1-1 0 0-1-1-2-1 0 2 0 3 0 3-7 8-5 13-5 13 4-11 14-10 14-10 12 1 14 12 14 12h2c0-10 9-9 9-9 7 0 7-1 7-1z"/></g><path d="m121 327c0 0-9 2-15-10 0 0-1-2-2 0 0 0-4 7-3 18l-6-5" fill="none" stroke-linejoin="round" stroke-linecap="round" stroke-width="1.786"/></g><g fill="none" stroke="#fff" stroke-linejoin="round" stroke-linecap="round" stroke-width="1.786"><path d="m126 304c0 0-4-6-7-5"/><path d="m120 318c0 0-7-1-10-7"/><path d="m119 323c0 0-4 1-9-6"/><path d="m102 302c0 0-1 7 3 12"/></g><g><g><path d="m66 439c0-3 2-5 4-5 2 1 3 2 4 4 1-2 2-3 3-4 4 0 5 4 5 7-1 5-6 7-8 10-3-4-9-6-8-12" fill="#201e1e"/><path d="m66 439c0-3 2-5 4-5 2 1 3 2 4 4 1-2 2-3 3-4 4 0 5 4 5 7-1 5-6 7-8 10-3-4-9-6-8-12z" fill="none" fill-rule="nonzero" stroke="#201e1e" stroke-width=".181"/></g><g><path d="m196 138c2 0 3 2 5 4 1-2 2-4 4-4 4 1 4 6 3 9-2 3-5 5-8 8-2-3-7-5-7-11 0-2 0-5 3-6" fill="#201e1e"/><path d="m196 138c2 0 3 2 5 4 1-2 2-4 4-4 4 1 4 6 3 9-2 3-5 5-8 8-2-3-7-5-7-11 0-2 0-5 3-6z" fill="none" fill-rule="nonzero" stroke="#201e1e" stroke-width=".181"/></g><g><path d="m149 159c0-2 2-6 5-5 1 1 2 2 3 3 2-1 3-4 5-3 4 2 4 8 1 11-2 2-4 4-6 6-2-4-8-6-8-12" fill="#201e1e"/><path d="m149 159c0-2 2-6 5-5 1 1 2 2 3 3 2-1 3-4 5-3 4 2 4 8 1 11-2 2-4 4-6 6-2-4-8-6-8-12z" fill="none" fill-rule="nonzero" stroke="#201e1e" stroke-width=".181"/></g><g><path d="m197 187c0-3 1-7 5-7 1 1 2 2 3 4 2-2 4-5 6-4 3 3 3 7 1 10-2 2-4 4-6 7-3-4-8-5-9-10" fill="#201e1e"/><path d="m197 187c0-3 1-7 5-7 1 1 2 2 3 4 2-2 4-5 6-4 3 3 3 7 1 10-2 2-4 4-6 7-3-4-8-5-9-10z" fill="none" fill-rule="nonzero" stroke="#201e1e" stroke-width=".181"/></g><g><path d="m119 182c1 0 2 0 3 0 1 1 2 2 2 3 2-1 3-4 6-3 3 2 4 7 1 10-2 2-4 4-6 7-3-3-6-5-8-8-1-3 0-7 2-9" fill="#201e1e"/><path d="m119 182c1 0 2 0 3 0 1 1 2 2 2 3 2-1 3-4 6-3 3 2 4 7 1 10-2 2-4 4-6 7-3-3-6-5-8-8-1-3 0-7 2-9z" fill="none" fill-rule="nonzero" stroke="#201e1e" stroke-width=".181"/></g><g><path d="m167 204c0-3 2-5 5-5 1 1 2 2 3 3 2-1 3-4 6-3 2 2 3 6 2 9-2 3-6 5-8 8-2-4-9-6-8-12" fill="#201e1e"/><path d="m167 204c0-3 2-5 5-5 1 1 2 2 3 3 2-1 3-4 6-3 2 2 3 6 2 9-2 3-6 5-8 8-2-4-9-6-8-12z" fill="none" fill-rule="nonzero" stroke="#201e1e" stroke-width=".181"/></g><g><path d="m130 221c1 0 2 0 3 0 1 1 2 2 3 3 2-2 3-5 6-3 2 3 3 7 1 10-3 2-5 4-7 7-2-3-5-5-7-8-2-3-1-7 1-9" fill="#201e1e"/><path d="m130 221c1 0 2 0 3 0 1 1 2 2 3 3 2-2 3-5 6-3 2 3 3 7 1 10-3 2-5 4-7 7-2-3-5-5-7-8-2-3-1-7 1-9z" fill="none" fill-rule="nonzero" stroke="#201e1e" stroke-width=".181"/></g><g><path d="m91 228c0-2 1-5 3-6 3-1 4 2 5 4 1-2 2-5 5-4 3 1 4 6 2 9-2 3-5 5-7 8-2-4-8-6-8-11" fill="#201e1e"/><path d="m91 228c0-2 1-5 3-6 3-1 4 2 5 4 1-2 2-5 5-4 3 1 4 6 2 9-2 3-5 5-7 8-2-4-8-6-8-11z" fill="none" fill-rule="nonzero" stroke="#201e1e" stroke-width=".181"/></g><g><path d="m197 232c2-1 4 2 5 3 2-1 3-4 6-3 3 3 3 8 0 11-2 2-4 4-6 6-2-2-4-4-6-6-3-3-2-9 1-11" fill="#201e1e"/><path d="m197 232c2-1 4 2 5 3 2-1 3-4 6-3 3 3 3 8 0 11-2 2-4 4-6 6-2-2-4-4-6-6-3-3-2-9 1-11z" fill="none" fill-rule="nonzero" stroke="#201e1e" stroke-width=".181"/></g><g><path d="m153 252c3-1 4 2 5 4 1-2 2-3 4-4 4-1 5 5 4 8-2 4-5 6-8 9-2-3-5-5-7-8-1-3-1-8 2-9" fill="#201e1e"/><path d="m153 252c3-1 4 2 5 4 1-2 2-3 4-4 4-1 5 5 4 8-2 4-5 6-8 9-2-3-5-5-7-8-1-3-1-8 2-9z" fill="none" fill-rule="nonzero" stroke="#201e1e" stroke-width=".181"/></g><g><path d="m96 263c3-1 5 1 6 3 2-1 3-4 5-3 3 1 4 6 2 9-2 3-5 5-7 8-2-2-4-4-6-6-3-3-3-9 0-11" fill="#201e1e"/><path d="m96 263c3-1 5 1 6 3 2-1 3-4 5-3 3 1 4 6 2 9-2 3-5 5-7 8-2-2-4-4-6-6-3-3-3-9 0-11z" fill="none" fill-rule="nonzero" stroke="#201e1e" stroke-width=".181"/></g><g><path d="m179 266c-1-3-1-8 3-9 2-1 3 2 5 3 1-1 2-4 4-4 4 2 4 6 3 10-2 3-5 5-7 8-3-3-6-5-8-8" fill="#201e1e"/><path d="m179 266c-1-3-1-8 3-9 2-1 3 2 5 3 1-1 2-4 4-4 4 2 4 6 3 10-2 3-5 5-7 8-3-3-6-5-8-8z" fill="none" fill-rule="nonzero" stroke="#201e1e" stroke-width=".181"/></g><g><path d="m59 298c3-1 4 2 6 4 1-2 3-5 6-3 2 2 3 7 0 10-2 2-4 4-6 6-2-3-6-5-8-8 0-3 0-7 2-9" fill="#201e1e"/><path d="m59 298c3-1 4 2 6 4 1-2 3-5 6-3 2 2 3 7 0 10-2 2-4 4-6 6-2-3-6-5-8-8 0-3 0-7 2-9z" fill="none" fill-rule="nonzero" stroke="#201e1e" stroke-width=".181"/></g><g><path d="m185 307c-1-2 1-5 4-5 1 0 2 2 3 3 2-1 3-3 5-3 4 2 5 7 2 10-2 2-5 4-7 7-2-4-8-6-7-12" fill="#201e1e"/><path d="m185 307c-1-2 1-5 4-5 1 0 2 2 3 3 2-1 3-3 5-3 4 2 5 7 2 10-2 2-5 4-7 7-2-4-8-6-7-12z" fill="none" fill-rule="nonzero" stroke="#201e1e" stroke-width=".181"/></g><g><path d="m52 359c0-3 2-5 5-5 1 1 2 2 3 4 1-2 2-3 4-4 3 0 4 4 4 7 0 5-5 7-8 10-3-4-9-6-8-12" fill="#201e1e"/><path d="m52 359c0-3 2-5 5-5 1 1 2 2 3 4 1-2 2-3 4-4 3 0 4 4 4 7 0 5-5 7-8 10-3-4-9-6-8-12z" fill="none" fill-rule="nonzero" stroke="#201e1e" stroke-width=".181"/></g><g><path d="m174 384c0-2 1-5 3-5 3-1 4 2 5 3 1-1 3-4 6-3 2 2 2 6 1 9-2 3-5 5-7 8-3-4-9-6-8-12" fill="#201e1e"/><path d="m174 384c0-2 1-5 3-5 3-1 4 2 5 3 1-1 3-4 6-3 2 2 2 6 1 9-2 3-5 5-7 8-3-4-9-6-8-12z" fill="none" fill-rule="nonzero" stroke="#201e1e" stroke-width=".181"/></g><g><path d="m173 477c2-1 4 2 5 4 2-2 3-5 6-4 3 3 3 8 0 11-2 2-4 4-6 6-2-2-4-4-6-6-3-3-2-9 1-11" fill="#201e1e"/><path d="m173 477c2-1 4 2 5 4 2-2 3-5 6-4 3 3 3 8 0 11-2 2-4 4-6 6-2-2-4-4-6-6-3-3-2-9 1-11z" fill="none" fill-rule="nonzero" stroke="#201e1e" stroke-width=".181"/></g><g><path d="m62 485c0-3 1-6 4-7 2 0 3 3 4 4 2-2 4-5 6-3 3 3 3 7 1 9-2 3-4 5-7 8-2-4-8-6-8-11" fill="#201e1e"/><path d="m62 485c0-3 1-6 4-7 2 0 3 3 4 4 2-2 4-5 6-3 3 3 3 7 1 9-2 3-4 5-7 8-2-4-8-6-8-11z" fill="none" fill-rule="nonzero" stroke="#201e1e" stroke-width=".181"/></g><g><path d="m155 448c0-3 3-5 5-5 1 1 2 2 3 4 1-2 2-3 4-4 3 0 4 4 4 7 0 5-5 7-8 10-3-4-9-6-8-12" fill="#201e1e"/><path d="m155 448c0-3 3-5 5-5 1 1 2 2 3 4 1-2 2-3 4-4 3 0 4 4 4 7 0 5-5 7-8 10-3-4-9-6-8-12z" fill="none" fill-rule="nonzero" stroke="#201e1e" stroke-width=".181"/></g><g><path d="m56 246c2-2 4 1 5 3 2-1 3-4 5-3 4 1 4 6 3 9-2 3-5 5-8 8-1-3-3-4-5-6-4-3-3-9 0-11" fill="#201e1e"/><path d="m56 246c2-2 4 1 5 3 2-1 3-4 5-3 4 1 4 6 3 9-2 3-5 5-8 8-1-3-3-4-5-6-4-3-3-9 0-11z" fill="none" fill-rule="nonzero" stroke="#201e1e" stroke-width=".181"/></g></g></g></g><g clip-path="url(#1)"><g><g><g><path d="m342 583c0-3-2-5-4-6-2 1-3 3-4 4-1-1-2-3-5-3-3 1-3 6-2 9 2 3 5 5 7 8 3-4 9-7 8-12" fill="#201e1e"/><path d="m342 583c0-3-2-5-4-6-2 1-3 3-4 4-1-1-2-3-5-3-3 1-3 6-2 9 2 3 5 5 7 8 3-4 9-7 8-12z" fill="none" fill-rule="nonzero" stroke="#201e1e" stroke-width=".181"/></g><g><path d="m420 588c1-3 0-8-3-9-3 0-4 2-5 4-1-2-3-5-5-4-3 2-3 6-2 9 2 3 5 5 7 8 2-3 6-5 8-8" fill="#201e1e"/><path d="m420 588c1-3 0-8-3-9-3 0-4 2-5 4-1-2-3-5-5-4-3 2-3 6-2 9 2 3 5 5 7 8 2-3 6-5 8-8z" fill="none" fill-rule="nonzero" stroke="#201e1e" stroke-width=".181"/></g><g><g><path d="m368 536c0-3 1-7 4-7 2 1 3 2 4 4 1-2 3-5 5-3 3 2 3 7 1 10-2 2-5 4-6 6-3-4-7-5-8-10" fill="#201e1e"/><path d="m368 536c0-3 1-7 4-7 2 1 3 2 4 4 1-2 3-5 5-3 3 2 3 7 1 10-2 2-5 4-6 6-3-4-7-5-8-10z" fill="none" fill-rule="nonzero" stroke="#201e1e" stroke-width=".181"/></g><g><path d="m381 599c0-3-1-7-4-7-2 1-3 3-4 4-2-2-3-5-6-3-2 2-3 7-1 9 2 3 5 5 7 7 2-3 8-5 8-10" fill="#201e1e"/><path d="m381 599c0-3-1-7-4-7-2 1-3 3-4 4-2-2-3-5-6-3-2 2-3 7-1 9 2 3 5 5 7 7 2-3 8-5 8-10z" fill="none" fill-rule="nonzero" stroke="#201e1e" stroke-width=".181"/></g></g></g><g stroke="#201e1e"><g stroke-linejoin="round" stroke-linecap="round"><text x="250" y="354" fill="#201e1e" font-family="&apos;Menuet script&apos;" stroke-width="1.19" font-size="37.987" transform="matrix(.70543 0 0 .99123 164.61 167.48)">Texto 02</text><g fill="none" stroke-width="1.786"><path d="m376 332c0 0-4-18 9-32l5-1c0 0 6-9 14-2 0 0 3 2 7 2 0 0 13 2 17 25 0 0 1 11 3 13 0 0 3 8 2 17 0 0 1 2-5 2 0 0-3-1-1 5 0 0 5 11-1 12 0 0-4-1-4 2 0 0 3 7-9 9 0 0-4 2-5-4 0 0-1-3-5 0 0 0-12 1-14-4 0 0-3 1-4 0 0 0 2 4-8 2 0 0 7 6 5 8-2 2-3 2-2 6 0 0-1 1-4 3 0 0-1 2-2 4 0 0 0 4-8 4 0 0-8 0-10-5 0 0-12-6-12-13 0 0-1-3 0-7 0 0 2-13-4-9 0 0-5-1-2-4 0 0 4 0 6-4 0 0 6-10 12-11 0 0 3-1 3-5 0 0 1-7-5-6 0 0-3 2-7-5 0 0-1-5 3-4 0 0-10-19 2-32l-4-6 4 3v-6l2 4 1-5 2 5 1 2c0 0 13-12 27 5"/><path d="m357 339c0 0 16 8 21 1"/><path d="m382 317c3 17 16 15 16 15 1 3 5 4 5 4 3 16-11 14-11 14-1-4-6-2-6-2-10-6-10-16-10-16 0 0 4-4 6-15z"/><path d="m385 306c0 0-3 13-9 12"/><path d="m390 311c0 0-4 17 12 17"/><path d="m409 316c0 0-1 10 4 20 5 10 6 24 6 24"/><path d="m408 298c0 0-11 17-23 2"/><path d="m404 302c0 0 8 3 11 16"/><path d="m412 305c0 0 15 17 14 48"/><path d="m416 307c0 0 6 5 12 19"/><path d="m407 353c0 0-5 1-7-5"/><path d="m403 356l2 16"/><path d="m396 359c0 0 0-4 3-3 0 0 3 2 2 6 0 0-1 0-1 0 0 0 1 4-2 2 0 0 0 4-3 3 0 0-3-1-3-4 0 0 0-2 2-1 0 0 0-3 2-3z"/><path d="m396 359c0 0 3 1 4 3"/><path d="m394 362c0 0 3 1 4 2"/><path d="m392 350c0 0-1 17-15 16 0 0-9 0-12-9 0 0-1-8 7-10 0 0 1 1 4 3 0 0 6 6 10-2"/><path d="m389 341c0 0-3 1-4-1"/><path d="m380 342c0 0-3 4 1 6 0 0 0 3-1 4"/><path d="m372 343v4"/><path d="m368 343c0 0 0 3-2 3 0 0-2-1-1 3 0 0 1 2-2 2v3c0 0 0 1 2 3"/><path d="m363 354c0 0-4-5-7-4"/><path d="m349 374c0 0 1-21 9-23"/><path d="m360 357c0 0 1 8 3 10"/><path d="m359 364c0 0-1 7 2 9 0 0 10 7 4 19 0 0-2 6-9 6"/><path d="m358 385c0 0 2 5-3 13"/><path d="m365 375h-1c0 0-4-2-1-7 0 0 3-3 4 2 0 0 3-2 3 3 0 0 3-1 1 3 0 0-3 2-6-1z"/><path d="m372 376l5 2"/><path d="m392 372l-3 4"/><path d="m385 378c0 0 8 7-1 13 0 0-2 2 1 4 0 0 1 0 0 4 0 0 0 1 3 1 0 0 4 0 5 5 0 0 0 1-6 1 0 0-9-2-10 8l-1 1c0 0-3-11-15-12 0 0-9-1-14 10 0 0-2-5 5-14 0 0 1 0 1-2"/><path d="m393 405c0 0 5 0 7 3 0 0 4 6-1 10 0 0-7 4-15 0 0 0-6-4-7-4"/><path d="m376 415c0 0-3 5-9 6 0 0-19 3-20-8"/></g></g><g fill="#201e1e" stroke-width=".181"><path d="m361 334l-1-1c0 0 1-4 2-5 0 0 1-1 2 1 0 0 2 4 0 5h-3z"/><path d="m380 335c0 0 0-2 1-3 0 0 1 0 1 1 0 0 1 2 0 2h-2z"/><path d="m396 340v-1c0 0 0-1 0-2 0 0 1-1 1 0 0 0 2 2 1 2l-2 1z"/><path d="m376 318c1-4 3-8 5-13 2-1 3-3 4-5-14-17-27-5-27-5l-1-2-2-5-1 5-2-4v6l-4-3 4 6c-12 13-2 32-2 32l5 4c-1-10 3-18 3-18 2-1 3 1 3 1 5 12 14 10 14 10 0-2 0-3 0-4 1-2 1-4 1-5z"/><path d="m393 405c-1-5-5-5-5-5-3 0-3-1-3-1 1-4 0-4 0-4-3-2-1-4-1-4 9-6 1-13 1-13-1 1-3 1-8 0 0 0 7 6 5 8-2 2-3 2-2 6 0 0-1 1-4 3 0 0-1 2-2 4 0 0 0 4-8 4 0 0-8 0-10-5 0 0-1 0-1 0-1-1-1-1-2-1 0 2-1 2-1 2-7 9-5 14-5 14 5-11 14-10 14-10 12 1 15 12 15 12l1-1c1-10 10-8 10-8 6 0 6-1 6-1z"/></g><path d="m375 327c0 0-9 2-14-10 0 0-1-2-3-1 0 0-4 8-3 18l-5-4" fill="none" stroke-linejoin="round" stroke-linecap="round" stroke-width="1.786"/></g><g fill="none" stroke="#fff" stroke-linejoin="round" stroke-linecap="round" stroke-width="1.786"><path d="m380 304c0 0-3-6-6-5"/><path d="m374 318c0 0-7-1-9-8"/><path d="m374 323c0 0-5 1-10-6"/><path d="m357 302c0 0-1 7 3 12"/></g><path d="m451 277h4l-1 8-13-1c0 1-1 1-2 1-1 0-2-1-3-2-1-1-1-2-1-3 0-2 0-3 1-3 1-1 2-2 4-2 0 0 1 1 2 1l1-1-8-1 1-8v-5-1c0 0 0-1 0-1 0-2 1-4 3-6 0 0 1-1 1-1 0 0-1-1-1-1-2-2-2-4-2-6h-4v-8h12c2 0 3 1 5 2 1 1 1 2 2 3 0 1 0 3 0 4 0 2-1 4-2 5-1 1-1 1-2 2 1 0 1 0 2 1 1 2 2 4 2 6 0 2-1 4-3 5 0 1-2 2-3 2 1 0 2 1 3 2 2 1 2 3 2 5 0 1 0 1 0 2v1zm-4-60l4-1 1 14-8 1c-2 1-4 0-5-1-2-1-3-3-3-5 0-2 0-4 2-6 1-1 2-1 3-1l-1-3-2 3-1-1c-2-1-3-3-3-5 0-2 0-4 1-6 1-1 2-2 3-2-2 0-4-1-6-2-1-1-2-3-2-4l-1-2 8-3v2c0 0 0 0 1 0 1 0 2 0 3 0 1 0 2 0 2 0 2 1 3 3 4 4v3l-2 1c0 0 1 0 1 1 2 1 3 3 3 5 1 2 1 4-1 6 0 1-1 1-1 2zm-13-38c1 0 2 0 2 1 2 0 4 1 5 3 0 1 0 1 0 2l1 1-9 4 1-2-7 3-3-7 2-1h-2c-1-1-3-2-4-4-1-2-1-4-1-6 1-1 1-3 2-4-2 1-4 2-6 1-1-1-2-2-3-3l-2-2 7-5 1 2c0 0 0 0 0 0 1-1 2-2 3-2 1 0 2 0 2 0 2 0 4 1 5 2l2 3-3 2c1 0 1 0 2 0 2 1 4 2 5 4 1 2 1 4 1 6 0 1-1 2-1 2zm-6 3l-1-2-1 3 2-1zm-21-39c0 0 0 0 1 0 2 0 4 1 5 3 2 1 3 3 3 5 0 3-1 5-3 6-1 2-3 3-5 3-2 0-4-1-6-3-1-1-2-3-2-5 0-1 0-2 0-3l-3 4-6-6 2-1h-2c-2 0-4-1-5-2-2-1-3-3-4-5 0-1 0-2 0-2 0 0-1 1-2 1-2 1-4 1-6 0-2-1-3-3-3-5-1 0-1-1-1-1l-2 7-8-3 2-4c0 0 0 0 0 0-2 0-4-2-5-4 0-1 0-1 0-2-1 1-1 2-2 2-1 1-3 1-4 1-1-1-2-1-3-3 0-1 0-2 0-3 0-1 1-2 2-3 1 0 3-1 4 0 1 0 2 1 2 2 1 0 1 1 1 1 0 0 0-1 0-1 1-2 2-4 4-4 2-1 4-1 6-1 1 1 2 1 3 2 1 1 2 2 2 3 1 1 1 3 0 4l3-5 13 6-2 4c0 0 2-1 3-1 2-1 4 0 6 1 2 1 3 3 3 5 0 1 0 2 0 3 1 0 2-1 3-1 2 0 4 0 5 2 1 0 1 0 1 1l1 1-1 1zm-13 1l-2-2 1 4 1-2zm-59-28c1 0 2 1 3 2 0 1 1 2 1 3-1 1-1 2-2 3-1 1-2 1-3 1-2 0-3 0-4-1 0-1-1-3 0-4 0-1 0-2 1-3 1-1 2-1 4-1zm9 1c1 1 2 1 3 2 1 2 1 3 1 4 0 1-1 2-2 3-1 1-2 1-3 1-2-1-3-1-3-2-1-1-1-3-1-4 0-1 1-2 2-3 1-1 2-1 3-1z" fill="#201e1e" stroke="#201e1e" stroke-width=".181"/><path d="m334 118c1 0 2 0 2 1 1 0 1 1 1 2 0 1-1 1-1 2-1 0-1 1-2 0-1 0-2 0-2-1-1 0-1-1-1-2 0 0 1-1 1-2 1 0 2 0 2 0m10 1c1 0 1 1 2 1 0 1 0 2 0 3 0 0 0 1-1 1-1 1-1 1-2 1-1 0-2-1-2-1 0-1-1-2 0-2 0-1 0-2 1-2 0-1 1-1 2-1m9 2c1 1 2 1 2 2 0 1 0 1 0 2 0 1 0 1-1 2-1 0-2 0-2 0-1 0-2-1-2-1 0-1 0-2 0-3 0 0 0-1 1-1 1-1 1-1 2-1m10 14l3-9c1-2 0-2-1-3 0 0-1 0-1 0-1 0-1 1-1 1 0 1 0 1 0 1 0 1 1 1 1 1 0 0 1 0 1 0l-2 5c0 0 0 0-1 0-1-1-2-2-3-4-1-1-1-3 0-4 0-2 1-3 3-4 1-1 3-1 5 0 1 0 1 1 2 1 1 1 1 2 1 3 1 1 1 3 0 4l-3 10-4-2m13-12l4 2-3 6c-1 1 0 1 0 1 1 1 1 1 1 0l3-6 4 2-3 6c0 1-1 2-3 3-1 0-3 0-4-1-1 0-2-2-3-3 0-1 0-3 1-4l3-6m19 19l-6-4c1 0 1-1 1-1 0 0 0 0 1-1l1 2c1-1 1-2 0-2 0-1-1-1-1-1-1 1-2 1-2 2 0 0-1 1-1 1 0 1 1 2 1 2 0 0 1 0 2 0v4c-2 0-3 0-4-1-2-1-2-2-3-4 0-2 0-3 1-5 1-1 3-2 4-2 2-1 3 0 5 1 1 1 2 2 2 4 1 1 0 3-1 4 0 0 0 1 0 1m11 0l-3 4c0-1 0-1 0-1-1-1-2 0-2 1l-4 4-3-3 4-5c1-1 2-2 3-2 2 0 3 0 4 1 0 0 1 0 1 1m6 5c1 1 2 3 2 4 0 2-1 4-2 5-1 1-2 2-4 2-2 0-3-1-5-2-1-1-1-3-1-4-1-2 0-4 1-5 1-1 3-2 5-2 1 0 3 1 4 2m-3 3c0 0-1 0-1 0-1 0-1 0-2 0 0 1 0 1 0 2 0 0 0 1 0 1 1 0 1 0 2 0 0 0 1 0 1 0 0-1 0-1 0-2 0 0 0 0 0-1m18 15l-3 3c-1-1-1-1-1-1-1 0-1 0-2 0-2 2-3 2-5 1-1 0-2-1-3-2v-1l3-3v1c1 0 1 1 2 1 0 0 1-1 1-1 1-1 2-1 2-1 1-1 2-1 2-1 1 1 3 1 3 2l1 2m3 16l-4-6c0-1 1-1 1-1 0 0 1 0 1 0l1 2c1-1 1-2 0-2 0-1 0-1-1-1 0 0-1 0-2 0 0 1-1 1-1 2 0 0 0 1 0 1 0 1 1 1 1 1l-1 4c-1-1-2-2-3-3-1-1-1-3-1-5 0-1 1-3 3-3 1-1 3-2 5-1 1 0 2 1 3 3 1 1 2 3 1 4 0 2-1 3-3 4 0 0 0 0 0 1m10 4l-5 2c0 0 0 0 0 0 0-1-1-1-2-1l-5 3-2-4 6-3c1-1 3-1 4-1 1 1 2 2 3 3 0 0 0 1 1 1m5 16l-4 2c0-1-1-1-1-1 0-1-1-1-1 0-3 0-4 0-6-1-1-1-1-2-2-4l5-2c0 1 0 2 1 2 0 0 1 0 1 0 1 0 2-1 3-1 0 0 1 1 2 1 1 0 1 1 2 3v1m-3 16l-1-7c0 0 0 0 1 0 0 0 1 0 1 0v2c1-1 2-1 1-2 0 0 0-1-1-1 0 0-1 0-1 0-1 0-2 0-2 1-1 0-1 1-1 1 0 1 1 1 1 1l-2 3c-1-1-2-2-2-3-1-2 0-4 1-5 0-1 2-2 3-3 2 0 4 0 5 1 2 1 2 2 3 4 0 2 0 3-1 5-1 1-2 2-4 3 0 0 0 0-1 0m7 1l1 5h-7c-1 1-1 1-1 1 0 1 0 1 1 1l7-1v5l-6 1c-2 0-3-1-4-2-1 0-2-2-2-3-1-2 0-3 1-4 1-1 2-2 4-2l6-1m-15 25l1-4h9c2 0 4 1 5 2 0 0 1 1 1 2 1 1 1 2 1 3 0 1-1 3-2 4-2 1-3 2-5 2-1 0-3-1-4-2-1-2-2-3-2-5 0 0 0 0 1-1h4c0 1 0 1 0 1 0 1 0 1 0 2 1 0 1 0 2 0 0 0 0 0 1 0 0-1 0-1 0-2 0-1 0-1-2-1l-10-1m8 17h-4c0 0 0-1 0-1 0-2 1-3 2-4 1-2 3-2 4-2 2 0 3 1 5 2 1 1 1 3 1 5 0 2-1 3-2 4-1 1-2 2-4 2l-6-1v-4h6c0 0 1 0 1 0 0-1 1-1 1-2 0 0 0 0-1-1 0 0-1 0-1 0 0 0-1 0-1 0-1 0-1 1-1 1 0 1 0 1 0 1m7 15h-5c1 0 1-1 1-1 0-1-1-1-2-1l-6-1 1-4h6c2 1 3 1 4 2 1 1 1 2 1 4 0 0 0 1 0 1m4 8h-10v-5l10 1v4m-11-3c0 1 0 2-1 2 0 1-1 1-2 1-1 0-1 0-2-1 0-1-1-1 0-2 0-1 0-2 0-2 1-1 2-1 3-1 0 0 1 1 1 1 1 1 1 1 1 2" fill="#fff" fill-rule="nonzero"/><g><path d="m436 426c0-3-2-5-4-5-1 1-2 2-3 4-2-2-3-3-4-4-3 0-5 4-5 7 1 5 6 7 9 10 2-4 9-6 7-12" fill="#201e1e"/><path d="m436 426c0-3-2-5-4-5-1 1-2 2-3 4-2-2-3-3-4-4-3 0-5 4-5 7 1 5 6 7 9 10 2-4 9-6 7-12z" fill="none" fill-rule="nonzero" stroke="#201e1e" stroke-width=".181"/></g><g><path d="m447 293c-3-1-4 2-6 4-1-2-3-5-6-4-2 3-3 8 0 10 2 3 4 5 6 7 2-3 6-5 8-8 1-3 0-7-2-9" fill="#201e1e"/><path d="m447 293c-3-1-4 2-6 4-1-2-3-5-6-4-2 3-3 8 0 10 2 3 4 5 6 7 2-3 6-5 8-8 1-3 0-7-2-9z" fill="none" fill-rule="nonzero" stroke="#201e1e" stroke-width=".181"/></g><g><path d="m449 363c0-3-2-5-5-6-1 2-2 3-3 4-1-1-2-3-4-3-3 0-4 4-4 7 0 4 5 6 8 10 3-4 9-7 8-12" fill="#201e1e"/><path d="m449 363c0-3-2-5-5-6-1 2-2 3-3 4-1-1-2-3-4-3-3 0-4 4-4 7 0 4 5 6 8 10 3-4 9-7 8-12z" fill="none" fill-rule="nonzero" stroke="#201e1e" stroke-width=".181"/></g><g><path d="m330 308c0-2-1-6-3-6-3 0-4 2-5 4-1-2-3-5-6-4-2 3-2 6-1 9 2 3 5 5 7 8 3-4 9-6 8-11" fill="#201e1e"/><path d="m330 308c0-2-1-6-3-6-3 0-4 2-5 4-1-2-3-5-6-4-2 3-2 6-1 9 2 3 5 5 7 8 3-4 9-6 8-11z" fill="none" fill-rule="nonzero" stroke="#201e1e" stroke-width=".181"/></g><g><path d="m329 477c-2-1-3 2-5 3-1-1-3-4-6-3-2 3-3 8 0 11 2 2 4 4 6 6 2-2 4-4 6-7 3-2 3-8-1-10" fill="#201e1e"/><path d="m329 477c-2-1-3 2-5 3-1-1-3-4-6-3-2 3-3 8 0 11 2 2 4 4 6 6 2-2 4-4 6-7 3-2 3-8-1-10z" fill="none" fill-rule="nonzero" stroke="#201e1e" stroke-width=".181"/></g><g><path d="m440 484c0-2-1-5-4-6-2 0-3 3-4 4-1-2-3-5-6-3-2 2-3 6-1 9 2 3 5 5 7 8 2-4 8-6 8-12" fill="#201e1e"/><path d="m440 484c0-2-1-5-4-6-2 0-3 3-4 4-1-2-3-5-6-3-2 2-3 6-1 9 2 3 5 5 7 8 2-4 8-6 8-12z" fill="none" fill-rule="nonzero" stroke="#201e1e" stroke-width=".181"/></g><g><path d="m343 431c0-3-2-4-4-5-1 1-3 3-4 4-1-1-2-3-3-4-4 0-5 4-5 7 1 5 6 7 8 11 3-4 10-7 8-13" fill="#201e1e"/><path d="m343 431c0-3-2-4-4-5-1 1-3 3-4 4-1-1-2-3-3-4-4 0-5 4-5 7 1 5 6 7 8 11 3-4 10-7 8-13z" fill="none" fill-rule="nonzero" stroke="#201e1e" stroke-width=".181"/></g><g><path d="m328 361c0-2-1-6-3-6-3 0-4 3-5 4-1-2-3-4-6-3-2 2-2 5-1 8 2 3 5 6 7 9 3-4 9-6 8-12" fill="#201e1e"/><path d="m328 361c0-2-1-6-3-6-3 0-4 3-5 4-1-2-3-4-6-3-2 2-2 5-1 8 2 3 5 6 7 9 3-4 9-6 8-12z" fill="none" fill-rule="nonzero" stroke="#201e1e" stroke-width=".181"/></g><g><path d="m306 138c-2-1-3 2-4 4-1-2-3-4-5-4-3 1-4 6-3 9 2 3 6 5 8 8 2-4 8-6 8-11 0-2-1-6-4-6" fill="#201e1e"/><path d="m306 138c-2-1-3 2-4 4-1-2-3-4-5-4-3 1-4 6-3 9 2 3 6 5 8 8 2-4 8-6 8-11 0-2-1-6-4-6z" fill="none" fill-rule="nonzero" stroke="#201e1e" stroke-width=".181"/></g><g><path d="m356 153c0-3-2-7-4-6-2 1-3 2-4 4-1-2-3-5-5-4-3 2-4 8-1 11 2 2 4 4 6 6 3-4 8-6 8-11" fill="#201e1e"/><path d="m356 153c0-3-2-7-4-6-2 1-3 2-4 4-1-2-3-5-5-4-3 2-4 8-1 11 2 2 4 4 6 6 3-4 8-6 8-11z" fill="none" fill-rule="nonzero" stroke="#201e1e" stroke-width=".181"/></g><g><path d="m305 187c0-3-1-8-5-8-1 1-2 3-3 4-2-2-3-4-6-3-2 3-3 7-1 9 2 3 5 5 7 8 2-4 7-6 8-10" fill="#201e1e"/><path d="m305 187c0-3-1-8-5-8-1 1-2 3-3 4-2-2-3-4-6-3-2 3-3 7-1 9 2 3 5 5 7 8 2-4 7-6 8-10z" fill="none" fill-rule="nonzero" stroke="#201e1e" stroke-width=".181"/></g><g><path d="m391 172c-1 0-2 0-3 0-1 1-2 2-2 4-2-2-3-5-6-4-3 2-4 7-1 10 2 2 4 4 6 7 2-3 6-5 8-8 1-3 0-6-2-9" fill="#201e1e"/><path d="m391 172c-1 0-2 0-3 0-1 1-2 2-2 4-2-2-3-5-6-4-3 2-4 7-1 10 2 2 4 4 6 7 2-3 6-5 8-8 1-3 0-6-2-9z" fill="none" fill-rule="nonzero" stroke="#201e1e" stroke-width=".181"/></g><g><path d="m347 198c0-3-2-6-5-6-1 1-2 3-3 4-2-1-4-4-6-3-3 2-3 6-2 9 2 3 5 5 8 8 2-4 8-6 8-12" fill="#201e1e"/><path d="m347 198c0-3-2-6-5-6-1 1-2 3-3 4-2-1-4-4-6-3-3 2-3 6-2 9 2 3 5 5 8 8 2-4 8-6 8-12z" fill="none" fill-rule="nonzero" stroke="#201e1e" stroke-width=".181"/></g><g><path d="m380 217c-1 0-2 0-3-1-1 2-2 3-3 4-1-2-3-5-6-3-2 3-3 7 0 10 2 2 4 4 6 7 2-3 5-5 7-8 2-3 1-7-1-9" fill="#201e1e"/><path d="m380 217c-1 0-2 0-3-1-1 2-2 3-3 4-1-2-3-5-6-3-2 3-3 7 0 10 2 2 4 4 6 7 2-3 5-5 7-8 2-3 1-7-1-9z" fill="none" fill-rule="nonzero" stroke="#201e1e" stroke-width=".181"/></g><g><path d="m422 230c0-2-1-5-3-6-3-1-4 2-5 4-2-2-3-5-5-4-4 1-4 6-3 9 2 3 5 5 8 8 2-4 8-6 8-11" fill="#201e1e"/><path d="m422 230c0-2-1-5-3-6-3-1-4 2-5 4-2-2-3-5-5-4-4 1-4 6-3 9 2 3 5 5 8 8 2-4 8-6 8-11z" fill="none" fill-rule="nonzero" stroke="#201e1e" stroke-width=".181"/></g><g><path d="m305 232c-2-1-3 2-5 3-1-1-3-4-5-3-4 2-4 8-1 11 2 2 4 4 6 6 2-2 4-4 6-7 3-2 3-8-1-10" fill="#201e1e"/><path d="m305 232c-2-1-3 2-5 3-1-1-3-4-5-3-4 2-4 8-1 11 2 2 4 4 6 6 2-2 4-4 6-7 3-2 3-8-1-10z" fill="none" fill-rule="nonzero" stroke="#201e1e" stroke-width=".181"/></g><g><path d="m343 230c-3-1-4 2-5 4-1-2-2-3-4-4-4-1-5 5-4 8 2 3 5 6 8 9 2-3 5-5 7-8 1-3 1-8-2-9" fill="#201e1e"/><path d="m343 230c-3-1-4 2-5 4-1-2-2-3-4-4-4-1-5 5-4 8 2 3 5 6 8 9 2-3 5-5 7-8 1-3 1-8-2-9z" fill="none" fill-rule="nonzero" stroke="#201e1e" stroke-width=".181"/></g><g><path d="m402 255c-2-1-4 2-5 3-2-1-3-4-5-3-4 1-4 6-3 9 3 3 6 5 8 8 2-2 4-4 6-6 3-3 2-8-1-11" fill="#201e1e"/><path d="m402 255c-2-1-4 2-5 3-2-1-3-4-5-3-4 1-4 6-3 9 3 3 6 5 8 8 2-2 4-4 6-6 3-3 2-8-1-11z" fill="none" fill-rule="nonzero" stroke="#201e1e" stroke-width=".181"/></g><g><path d="m367 261c1-3 1-8-2-9-3-1-4 2-5 3-2-1-2-4-5-4-3 1-4 6-3 10 2 3 6 5 8 8 2-3 5-5 7-8" fill="#201e1e"/><path d="m367 261c1-3 1-8-2-9-3-1-4 2-5 3-2-1-2-4-5-4-3 1-4 6-3 10 2 3 6 5 8 8 2-3 5-5 7-8z" fill="none" fill-rule="nonzero" stroke="#201e1e" stroke-width=".181"/></g><g><path d="m306 272c0-3-1-6-4-6-1 1-2 2-4 4-1-2-2-4-4-4-4 2-5 8-2 11 2 2 4 4 6 6 3-4 9-6 8-11" fill="#201e1e"/><path d="m306 272c0-3-1-6-4-6-1 1-2 2-4 4-1-2-2-4-4-4-4 2-5 8-2 11 2 2 4 4 6 6 3-4 9-6 8-11z" fill="none" fill-rule="nonzero" stroke="#201e1e" stroke-width=".181"/></g><text x="250" y="354" fill="#201e1e" font-family="&apos;Arial Black&apos;" font-weight="900" font-size="14.523" transform="matrix(1.02155 0 0 .99123 77.34 220.54)">00.00.0000</text></g></g></svg>