<svg xmlns="http://www.w3.org/2000/svg" width="744.09" height="1052.36" viewBox="0 0 21000 29700" shape-rendering="geometricPrecision" image-rendering="optimizeQuality" fill-rule="evenodd" clip-rule="evenodd"><defs><clipPath id="0"><path d="m15117 19700c932 441 2702 356 3239-460 536-812 419-3160 469-4291 128-2831 449-4978 533-7261 92-2535-1673-4252-3801-4683-2923-592-2768 3285-2398 5241 218 1077 593 2015 868 3068 507 1943 56 4959 232 6981 91 698 372 1154 858 1405"/></clipPath><clipPath id="1"><path d="m5915 19744c-931 441-2701 356-3239-459-535-813-418-3161-469-4292-127-2831-449-4978-532-7260-93-2536 1673-4253 3800-4684 2923-592 2768 3285 2398 5241-218 1077-593 2015-868 3068-506 1943-56 4959-232 6981-90 698-372 1154-858 1405"/></clipPath></defs><g fill="none" stroke="#373435" stroke-width="80"><path d="m9688 22661h1621"/><path d="m10498 21851v1621"/><circle cx="10498" cy="22661" r="460"/></g><text x="10046" y="21290" fill="#201e1e" font-family="&apos;Arial Black&apos;" stroke="#201e1e" font-weight="900" stroke-width="7.62" font-size="705.56">28</text><g fill="none" stroke="#322f30" stroke-width="80"><circle cx="10533" cy="1326" r="460"/><path d="m10533 515v1621"/><path d="m9723 1326h1621"/></g><rect x="9843" y="19706" width="1347" height="637" rx="318" fill="#fff" stroke="#fff" stroke-width="20"/><g fill="#201e1e" font-family="&apos;Arial&apos;" font-size="423.33"><text x="300" y="28462">DESC 1</text><text x="281" y="28926">DESC 2</text><text x="278" y="29422">DESC 3</text></g><g clip-path="url(#0)"><g><g><g/><g/></g><g fill="#201e1e" stroke="#201e1e" stroke-width="7.62"><path d="m17032 12919c1-1 3 1 3 2 0 1 1 1 1 1 0 0-21 11-4-3zm932-227c0-29 27 2 9 2 0 0-9 38-9-2zm424-184c6-11-14 24 0 0zm-967-37c19-26 15 24 3 6 0-1-32 31-3-6zm112-37c10-27 11 28 5 12-1-1-26 42-5-12zm190-17l5 7c0 0-7-5-5-7zm-155-238c13-7-7 4 0 0zm109-64c27-15-12 6 0 0zm-256 356c-114-24-249-222-589-131-186 50-354 197-354 428l139-65c31-20 17 9 64-6 59-17 43-37 60-71 11 21 30 65 111 18 57-32 29-46 17-114l65 84c91-4 97-2 125-65 28 55-19 22 52 35 0 0 78-1 85-1-157 86-215 69-304 225-78 135-76 309 26 409 49-52 73-132 91-164 1-1 3-5 4-7l42-47c31-45 24-25-13-72 82 13 63-17 136-106 67-82 156-150 273-191 19 251 26 498-8 750-32 245-109 438-143 656h441c30-572-33-909-146-1430 103 11 122 21 210 49l50 20c3 2 13 10 17 13 79 52 47-1 101 58 23 25 3 13 33 32 27 18 32 14 39 17 66 29-14-23 27 17l136 117c38-180-30-281-133-360-165-127-249-58-422-60 53-7 45-50 132-62 19-3 49-8 62-11l80-29c94-21 103 59 157-43l8 56c128 21 112 35 165-30-2 102 6 69 93 115 72 37 61 60 128 92 8-257-137-406-385-425-192-15-378 81-491 213l-60 53c7-87 35-147 78-193-14-25-25-36-44-60 75 20 48 38 112-35 44-51 113-66 178-114-151-23-272 23-346 95-89 86-99 183-99 340z"/><path d="m14100 12609c-72-104-336-577-418-619l-57 33c24 77-22-12 32 81 69 120 281 417 305 501l-207 14c10 83 131 167 192 226 171 167 491 474 723 522 7 261 84 942-3 1150l-486 143 1092-1c-79-71-386-120-492-135-65-370-7-764-1-1141 136-90 283-126 513-346 81-77 392-330 406-413-157-42-1363-25-1599-15z"/><path d="m15626 12911c5-90 108-211 170-247 67 37 60 53 97 131 57 122 53 172-75 182-9 1-76-2-85-4-75-13-67-17-107-62zm521-105c-42 59-48 78-133 86-61-47-130-176-124-272l247 2c93 34 74 94 10 184zm-175-427c159-237 243 76 242 106 0 6-1 12-2 18-1 5-4 13-5 17-1 5-7 20-8 17-1-3-5 11-9 16-22 18-206 47-298-33 14-58 48-95 80-141zm-556 94c-1-123 82-227 214-225 34 79 107 171 96 275-111 21-248 15-310-50zm402 6c-32-28-149-197-127-266 33-101 237-38 298-3 1 112-101 232-171 269zm-278 454c264 288 946-90 677-583-213-391-859-269-869 190 62 9 369 19 402 56 25 40 18 8-25 72l-185 265z"/><path d="m15819 3247l-303-74c5-177 74-468-2-613l-98 1c-81 163 31 425-11 621l-272 44c-33-125-79-241-125-372-66-187-43-308-242-245-36 146 196 483 259 645l-30 27c-101 81-178 150-271 180-42-69-296-429-401-373-42 42-40-65-35 80 2 48 14 49 34 75l355 309c-58 70-64 69-95 163-366-122-749-447-893-325-171 181 124 239 277 290 186 62 352 123 531 170-13 78-23 197-68 264-137-1-619-98-619 56 0 154 369 58 648 55l29 245c-119 28-540 123-451 237 17 23-38 127 263-27 82-42 167-75 235-114l170 276c-88 46-133 86-207 146-23 19-67 50-89 82-88 128-3 121 1 124 79 71 232-143 365-294l199 138c-73 232-367 578-319 806 224 91 224-55 292-251 57-166 111-316 164-485l310 59c-8 165-67 430 3 555l86 3c70-127 15-391-1-561l379-76c37 132 91 272 137 408 34 101 77 403 250 288 122-82-19-267-74-378-62-128-150-274-196-413 217-79 120-126 269-200 215 177 286 410 402 297 118-115-309-373-333-384l75-200c111 40 256 116 360 168 141 72 323 197 319-73-157-112-448-113-628-236l4-145c161 4 420 58 537-10-19-174-12-109-509-90l-51-199c239-84 651-195 845-299l-8-183c-182-49-711 236-872 335-59-65-102-152-141-224 58-40 611-424 335-453-102-11-17-20-74 18l-310 365-243-166c90-366 535-792 298-901-263-121-264 586-460 834z"/><path d="m18727 9686c-5-1 0-16 1-11 1 5 10-6 14-10 2-2 300 214 366 386l-255 14-126-379zm-516 160c-54-42-100-91-161-140-53-41-139-96-183-138 38-99 138-222 182-326 81 29 215 112 275 173-6 85-75 366-113 431zm-873-487c68-70 271-256 367-302l275 128c-16 69-154 299-198 341-64-30-141-62-215-91-70-27-171-42-229-76zm112-460c61-25 303-135 379-144 65-7 243 131 314 172 367 216 411 146 418 353 3 83 2 169 1 253-169-119-325-241-523-350l-589-284zm-585 31c-7-8-111-205-119-222 175 9 395 41 502 141l-383 81zm583 1342c65-112 130-225 200-339 62-100 127-231 190-326 171 92 295 198 396 338 196-10 372 5 501 102 216 161 47-19 452 55-51-311-350-771-579-961l-650-376c-115-75-211-100-374-130-335-63-605-43-923 29 31 65 17 32 61 90 96 129 62 186 131 234 45 31 106 53 159 91 55 41 83 71 126 127 142 186 10 150 280 222 106 28 271 86 342 140-29 99-668 1099-762 1317 115-9 109-30 157-117l293-496z"/><path d="m17676 5272c85 19 200 161 245 242 54 98 105 248 99 379-53-77-71-202-110-295-37-89-114-196-215-214-227 131-109 468-49 675-25-28-29-44-48-83-40-86-91-229-88-328 5-131 102-328 166-376zm-108-192c-101 36-127 41-175 128-172 311 153 699 333 1051 58 114 154 283 322 231 452-138 44-463-18-734-46-203 29-312-89-495-56-87-200-242-373-181z"/><path d="m18618 5715c18-97 76-230 82-362 6-142-59-261-143-302-191 33-243 329-322 522-28-233 192-598 337-632 83 67 162 221 174 361 7 78-15 153-38 217l-90 196zm-345 456c162-25 215-168 280-294 123-240 355-554 361-782 10-370-375-504-594-174-150 224-11 433-161 686-38 63-101 116-82 190 36 145 144 239 196 374z"/><path d="m15087 10531c387 30 936 71 1308-1l2 134c-454 65-842 64-1294 2l-16-135zm-56 21c-61-137 80-524 145-612 234-318 922-318 1145 3 63 90 210 461 148 608l-37-83c-452-40-913-32-1364-2l-37 86zm1513 64c12-595-188-981-793-980-604 0-816 381-796 981 159 34 38 22 162 104 3 2 11 11 12 8 2-4 9 4 15 7l117 1039c224 45 784 83 980-8 13-114 87-1014 127-1038 75-45 43-32 77-69 26-30-3-14 41-33 2-1 55-10 58-11z"/><path d="m16676 11450c26 51 34 56 76 92l91 77c-86-24-87-54-156-115-3-2-8-7-11-9-2-2-9-3-11-9-5-17-32 12 11-36zm-97-82c-172 168-476 371-184 560 140 91 313-108 437-244 60-65 17-27 27-50 1-1 2-5 3-6 1-1 3-5 4-7l-28-109c81-103 342-308 381-397-37-66-30-42-78-91-82 35-332 306-409 379-56-29-47-40-128-57l-25 22z"/><path d="m16543 7282l-27 344c-135 53-203 53-208-99-5-124 8-267-8-335l-43 9-48 6c28 129 25 287-40 376-88 122-219 41-325 81-6 186 239 673 549 750 466 114 438-487 466-821 102-52 177-109 274-168 162-98 662-442 822-436 75 80 117 249 120 360l13-115c-14-86-79-275-152-293-65-16-703 378-812 435-92 49-173 89-253 143-56-62-65-107-131-154-40-29-148-82-197-83z"/><path d="m15033 6882c8 0 50 0 58-2 46-7 34-2 58-19-5 11-9 23-13 61l1 313c0 116 1 237-1 353l-86 27c-38-119-27-614-17-733zm-31 773c44 14 88 17 126 5 89-29 60-44 89-115 52 103 80 138 218 110l25-42 18-19-18 19c-132-26-214 14-213-232 1-99-16-375 14-450-6-9-20-38-28-44 156-8 387-72 550-96 174-26 356-66 535-96 93-15 188-34 268-54 351-85 381 216 450 351 16 32 12 23 30 44 75-120-115-401-265-437-125-30-1086 142-1282 180-104 21-228 41-324 56-129 21-241-22-326 35-76 193 31 660 133 785zm428-5c-40 12-32-1-30 37 39 0 24 7 30-37z"/><path d="m15941 7457c-2-4-5-9-5-11l-11-107c0-41 2-75 5-114l69 31c0 254 17 196-58 201zm-516-209c72-1 54 4 58 68 3 46 3 103 2 150-44-23 13-13-70-7l10-211zm73 275l65-245 9-12c5-65 26-107-23-127l-11 50-70-13 1-78 90 33c23-49-5-57 14-22l177 56-4 92 117-23 11 291c157-5 184 14 183-144-1-154 4-134-86-208l46-13c-42-34-280-32-365-59-118-36-186-97-305-137 7 140-29 384 22 550l129 9z"/><path d="m15746 7257l-15 60c-41-46-62-77-159-51l-9 12c216 12 185 61 228 272 123 89 240 79 366-18l1-323-75-59-66 10-46 13c90 74 85 54 86 208 1 158-26 139-183 144l-11-291-117 23z"/><path d="m15033 6882c-10 119-21 614 17 733l86-27c2-116 1-237 1-353l-1-313c4-38 8-50 13-61-24 17-12 12-58 19-8 2-50 2-58 2z"/><path d="m15460 7613l18-19 20-71-129-9c-51-166-15-410-22-550-19-32-34-44-86-33-30 75-13 351-14 450-1 246 81 206 213 232z"/><path d="m16543 7282c-27-20 8-2-50-31-5-2-17 2-21-7-4-9-14-4-22-6 31 87 37 271 5 357l-79 2-11-388c-77-7-14 7-65-17 16 68 3 211 8 335 5 152 73 152 208 99l27-344z"/><path d="m15002 7655c36 68 105 147 199 163 106 18 183-37 199-131-2-38-10-25 30-37l5 5c-138 28-166-7-218-110-29 71 0 86-89 115-38 12-82 9-126-5z"/><path d="m15791 7550c19 63 11 72 53 114 106-40 237 41 325-81 65-89 68-247 40-376l48-6c-42-35-68-30-134-42-5-1-33-8-40-9l75 59-1 323c-126 97-243 107-366 18z"/><path d="m16450 7238l-85-29 11 388 79-2c32-86 26-270-5-357z"/><path d="m15941 7457c75-5 58 53 58-201l-69-31c-3 39-5 73-5 114l11 107c0 2 3 7 5 11z"/><path d="m15415 7459c83-6 26-16 70 7 1-47 1-104-2-150-4-64 14-69-58-68l-10 211z"/><path d="m15549 7139l10-8-90-33-1 78 70 13z"/><path d="m14607 8214c19-11 52-16 107-13-33 21-58 18-107 13zm162 1000l1-999c-100-65-23 10-41-30-30-67-128-83-203-75-31 67 28 79-75 82 58-38 41 7 48-57 3-26-9-56-24-70-48-47-262-8-297 22-16 13-63 76-18 128 2-3 4-7 5-9l9-18c2-4 6-15 8-19 22-56 21-64 124-79 111-15 155-30 144 88l-19-56-231 27c-2 63 8 60-40 83-47-21-11 3-36-34l-19-36c-75 9-201 8-257 41 143 95 163 69 361 46 96-11 312-45 398-35-3 2-7 4-10 5l-600 89v1023l772-117z"/><path d="m13716 9233c14-66-9-439-12-540-12-374-44-386 163-405-50-31-86-77-169-75-85 2-148 15-161 84-15 79-2 377 0 476 9 538-46 410 166 552 87 58 97 33 202 21l-2-1025-153 35c-28 92-26 717-34 877z"/><path d="m14974 9142l-50-29c-4-80 50-84 52-148 1-60 16-145 99-107 92 41-50 261-101 284zm68-580c60-23 75-15 91 37-40-13-27-13-81-13 29 20 35 15 44 56-45-27-16-20-74-31 22 152 44 165-21 179-15-25-18 4-6-74 7-39 6-63 6-103-61 20-32 15-68 63-1-1-25 5-7-42 8-20 18-21 29-28l-77 21c11-63 43-69 109-44 27-39-2-17 41-47l14 26zm-26-2l4 5c0 0-3-7-4-5zm-19-282c21-21 4-17 21 1l42-30c-4 63 29 22 4 78l55-16c-14 19-43 35-39 53l5 10c11 18 1-11 19 20l-24 1c-13 5 6 15-39 6 7 32 4 19 17 57l-72-42-29 46c19-66-6-46-8-47-21-13-6-18-23-52-16-31-26 20-4-13 18-26 7 21 13-9 1-5 6-4 9-6-19-4-7 3-30-8-18-9-11-9-22-20 45 13 40 6 47 2l37-1 21-30zm43 7c-2 2 5 7 6 8l-6-8zm-316-193c-2-3-8 3-11 5 84 44 140 113 295 69-53 2-106 7-148 36v997c267-22 286-29 289-186 3-155 1-311 4-466 1-80 1-159 3-239 3-102 16-128-67-166-155-69-151-85-284-68-10 2-40 6-48 8l-23 6c-2 1-8 8-10 4z"/><g font-family="&apos;Coaster Shadow&apos;"><text x="10500" y="14850" font-size="1200.69" transform="matrix(.739 0 0 .78707 6476.61 5470.11)">Texto 01  </text><text x="10500" y="14850" font-size="892.65" transform="matrix(.80404 0 0 .78707 5570.23 6312.21)"> Texto 02</text><text x="10500" y="14850" font-size="815.19" transform="matrix(.80404 0 0 .78707 5730.33 7185.46)"> 00.00.0000</text></g></g><g fill="#373435" font-family="&apos;Arial Black&apos;" font-weight="900" font-size="529.17"><text x="10500" y="14850" transform="matrix(.80404 0 0 .78707 7519.84 4068.32)">NN 2</text><text x="10500" y="14850" transform="matrix(.80404 0 0 .78707 7519.84 3704.58)">NN 1</text></g></g></g><g clip-path="url(#1)"><g><g><g fill="#ff0a4b" stroke="#ff0a4b" stroke-width="7.62"><path d="m16308 24237l61-25010c419-473 453-472 577-555-21 8565-42 17131-64 25697 0 11 5 18-2 17-186-27-239-34-572-149z"/><path d="m15103 22886l51-20977c161-844 476-1587 580-1699l-58 23616c-438-499-436-626-573-940z"/><path d="m17474 24450l64-26157c4-1 469-243 576-239l-65 26420c-134-2-133 34-575-24z"/><path d="m18629 24382l65-26477c-5 0 290-63 576-39l-65 26191c-149 124-138 157-576 325z"/><path d="m19706 24781l65-26477c-5 0 290-63 576-39l-65 26191c-149 124-138 157-576 325z"/><path d="m20783 25180l65-26477c-5 1 290-63 576-39l-65 26191c-149 124-138 157-576 325z"/></g><g/></g><g fill="#201e1e" stroke="#201e1e" stroke-width="7.62"><path d="m6604 13411c2 1 7 2 9 2 15 4 17 14 72 1-44 57-30 14-140 49-2 0-6 2-8 2-267 88-144 61-351-36-48-22-9 3-48-30l-32-29c-94-77-137-81-171-109 82-18 140-4 194-24l72-52c24 56 105 68 156 91 31 14 14 5 31 16l84 56c3 2 7 4 10 5l114 56c2 1 6 2 8 2zm550-456c98-58 203-37 260-67 3-1 7-4 9-6 4-2 14-9 17-11l43-16c2 0 6-1 8-2 2 0 7-2 9-2 2-1 6-2 8-3l125-66c23-15 4-1 26-20l115-146-14-346c-5-21-4-21-16-45-19-39-1 1-17-29l-73-143c61 22 3-3 45 33 86 75 90 60 169 155 3 3 11 14 14 17l57 81c39 59 48 39 57 113 6 49 6 160-15 213l-26 50c-32 68 0 38-50 104l-69 101c-2 3-5 6-7 8-2 3-5 6-7 9-2 2-5 6-7 8l-75 94c-18 14-9 4-28 19l-17 15c-31 28-45 53-100 48l-441-166zm-415-1214l-136-80c-2-1-6-3-7-3l-36-16c-20-13-1 27-16-17l1-91c50 53 76 39 160 86 112 63 188 96 314 182 3 2 7 5 9 7l87 64c81 45 160 129 180 144l121 147c2 4 9 15 12 18l30 47c75 145 69 82 70 160-53-35-95-119-134-174-53-76-121-135-197-188l-47-32c-26-17-1-3-37-25l-125-69c-6-5-18-22-24-29-57-59-28 6-103-51-32-24-30-26-70-47-3-1-11-5-14-7l-14-9c-3-2-12-8-16-11-2-1-6-4-8-6zm-444-208c0-62 5-49-16-91l145 38c32 21 29 72 42 130-62-17 2 0-54-24l-117-53zm1405 1055c-96 91-110 136-156 153 9-76 10-28 21-56l27-305c-17-87-52-207-107-269-2-2-5-6-7-8l-26-36c-58-76-175-206-262-251l-191-114c-2-1-6-2-7-3l-101-61c-45-30 9-8-59-35-24-9-34-9-59-18-46-16-24-8-54-24l-69-39c-37-20-177-75-125-126 29-29 26 17 103 40 124 38 102 58 171 93 3 2 7 4 10 5 3 2 7 4 10 6l139 64c2 1 7 2 8 3l296 179c1 1 3 5 4 6 2 3 6 14 13 21l77 42c33 21 19 14 42 36 17 16 24 21 41 36 49 45 86 63 116 116 2 3 4 7 5 10l119 279c20 84 22 164 21 256zm-233 53c0 2-1 7-2 9-3 23 4 27-4 56-22 86-194 152-283 168l-19 3c-3 1-7 2-10 2l-20 7c-67 22-112 8-170-22l-378-158c-4-1-7-4-11-5-3-2-7-4-10-6-176-91-305-55-500-46-36 1-38-2-71 7-177 48-180-6-274 22l-177 33c-3 0-7 1-9 1-91 10-126-33-125 90 4 3 9 4 11 5l540 281c4 1 14 5 17 7 117 51 110 11 140 53 37 52-14-44 11 21-117-2-227 1-348 42l-23 9c-3 1-7 3-11 4-4 1-8 2-12 3l-120 22c-192 50-163-33-325-100l-297-59c-320 53-527-34-652 28l-76 25c-52 7-129 24-167 57l31 16c4 2 16 8 20 10l45 18c1 0 35 8 38 9 106 23 133 75 204 107 43 19 84 27 99 69-140-32-355 17-516 15l-749 16c-303 0-247-31-359-31-72 0-260 11-323-7l-146-24c-137-5-265-37-390-76-115-36-232-32-311-63l-356-111c-113-29-133-21-179-68l-370-342c-79-191 40-272 73-320 17-25 15-25 34-43 46-44 85-86 113-149 66-149 62-65 88-183 1-2 2-6 2-9 10-40 0 17 10-31 41-199-27-318-201-406l-346-121c-3-2-7-3-11-4-119-38-255-32-380-62-47-12-61-17-73-60l146-57c36-15-13-3 45-17l424-74c60-14 159-16 226-23 85-10 206-14 292-37 52-14 93-2 143-15 115-29 270-37 396-37 94-1 139-17 250-16 113 2 166-24 282-20 213 9 245-10 341-10h674c307 0 632 47 828 45 15 0 48-1 61 1 77 11 23 6 48 15 100 35 278 21 393 43 31 6 25 5 50 12 79 25 172 20 253 44l70 23c39 8 57 8 93 16l982 307c99 32 80 8 81 136h78c2-3 3-8 3-11l9-40c1-2 1-8 1-9l2-16c29 7 26 5 48 14 44 18 11 4 41 21 144 80 21 175 161 179v-93c58 23-5-3 28 14l148 91c21 10 32 12 54 22l373 247c96 72 90 58 167 158l26 36c94 116 82 108 111 244v98zm-1067-1302c39 24 34 24 35 72l-172-61 1-62c33 13 26 15 30 17l21 9c33 10 30 1 64 14 5 2 17 8 21 11zm-887 2335c-53 0-85-5-132 9l-571 52c-16 6 16 2-34 12l-1028 49c-92 0-114 12-188 16-93 5-134-16-202-16-68 0 9 6-65 14l-1185-60c-95 0-35-9-100-25-107-25-216-16-322-51l-353-82c-25-8-37-9-62-17l-464-176c-4-2-14-8-18-9-30-15-22-10-44-18l-246-203c-53-47-107-134-127-199-24-81 4-44 3-80l-22-65c-4-146 98-281 202-365 3-3 14-10 18-13 58-49 45-74 137-141l72-67c34-34 86-180 27-230l-217-200c-3-2-7-4-10-6l-125-61c-19-8-13-5-34-13-21-8-19-5-45-17-85-38-201-60-265-85-52-21-9-20-92-40-78-18-167-11-226-53-20-15-53-69-55-92-5-53 24-88 58-119l17-15c63-56 147-108 230-126-23 64 7-4-28 33-43 45-16-21-33 46l25 109 135 95c1 1 6 3 8 3l201 54c4 1 8 3 12 4l103 22c3 1 7 3 10 4l58 10c48 13 162 16 222 38 4 2 8 3 11 5l69 24c57 21 47 17 93 47 40 25 56 30 88 67 62 71 68 281-3 373-1 1-99 178-164 237-2 3-6 6-8 8-3 2-6 5-9 7-31 24-49 31-68 69l-30 64c-40 85-40 188-2 269 18 38 35 42 64 75l46 62c0 1 16 17 22 24 47 57 84 106 152 142 38 20 60 34 90 50l157 60c34 7-6-4 27 5 36 10 19 6 34 12 3 2 7 4 10 6l505 147c4 1 7 3 11 4 4 2 8 3 12 4l195 40c31 8 35 12 53 16 69 15 189 10 246 28l234 30c72-1 304 46 483 47 344 0 547 28 845 15l389-47c62-1 89 2 149-7l79-15c3 0 7-2 10-3l153-4c130-10 0-15 110-31 45-6 299-17 345-1l61 41c2 1 5 4 7 5l208 143c34 17 58 25 81 56zm-5452-2492c12-32-20-29 53-43 71-14 50 8 56 11-31 16-70 22-109 32zm141-46c51-67-22 5 103-36 42-14 119-37 162-10-11 7-8 7-31 15l-93 16c-61 7-65 14-141 15zm-125 168c1-156 220-89 435-155 4-2 7-3 11-4 4-2 8-3 12-4 5-1 9-2 13-3l419-64c126-42 347-4 469-45 3 0 7-3 9-3 62-20 98 15 174 0 95-18-29-12 84-27 37-5 76 0 119-5 158-20 366-14 535-27 69-6 263-3 335-25l21-9c30-9 936-4 993 15l33 13c113 31 378-4 538 25 64 12 5 2 45 12 20 5-12 1 27 6 27 4 36 1 59 2l860 125c5 2 22 9 22 9l277 66c66 23 134 29 312 92l322 98c0 51 7 69 15 106l-73-50c-87-52-184-41-271-85-2-1-6-3-8-4-2-1-6-3-8-3-2-1-6-3-8-3l-518-149c-15-4-63-16-89-20l-435-79c-104-32-239-26-317-49l-99-17c-36-1-76 2-112 2-19 0-39 0-58-4-48-10-20-7-34-13l-93-16c-293-3-582-30-876-30l-1095 37c-25 7-120 3-155 0-85-7-95 19-187 25-64 5-153-1-219-1-90 0-135 11-219 16l-78 15c-48 14-88-4-142 13-79 25-249 38-344 47l-106 18c-3 2-7 4-11 5-4 1-8 3-11 4l-383 64c-3 1-7 2-10 3-2 0-6 1-9 1-103 14-92 19-171 75zm540-252c46-5 60-9 115-7-35 21-24 10-86 21-43 7-50 8-100 8 6-37 29-17 71-22zm472-62c13 2 9 3 19 8-16 10-4 6-33 13l-248 33 262-54zm50-7c18-11 1-7 33-14 9-2 19-1 29-3l188-14c-16 39 1 23-46 32l-194 4c-2-4-7-3-10-5zm1500-138c172 0 1099-53 1276 5 100 33 183-15 302 26l755 86c21 3 46 6 67 11l408 75c1 0 54 10 65 13 59 16 6 1 46 16 113 43 86 8 185 48 3 1 7 3 11 5 85 33-75-24 22 8l217 63c39 13 81 14 114 26 105 37-12 35 94 46v46c-82-7-117-30-179-50l-273-88c-25-7-37-7-62-16l-66-27c-25-7-55-11-78-17-26-7-25-9-35-12l-458-86c-149-47-226-41-396-56-121-10-2-25-140-31-53-2-297-12-335-23-62-19 18-12-72-22l-734-16-1903 89c-35-4-15 0-34-12l35-12c4-1 8-1 13-2 3-1 35-5 40-6l606-48c115-12 72-37 240-17 131 17 131-22 269-22zm3790 116c2-2 4-6 5-9 1-2 3-7 3-9l7-16c22-52 24-33 51-69l18-29c1-3 3-7 5-10l39-49c91-108 58-80 108-159 2-3 5-6 6-9l65-89c139-192 231-83 240-57 25 69-9 47-18 59-18 22-2-4-21 21l-8 15c-74 126-171 236-195 281-68 127-95 142-170 247l-24 37c-67 98-100 66-73 172l-38-15c-3-1-7-2-10-2-115-23-72-37-156-44l166-266zm877-158c9 55-1 112 3 165 11 119 27 1 33 136 5 110-7 228 31 310l79-18c-10-72 10 30-9-24-21-60-5-163-20-226l-19-148-27-250c-1-3-3-7-4-10l-6-162c-11-36-1-3-14-33l-79-106c-48-38-64-43-151-35-45 5-51 13-78 10-63-8-42-33-66-64l-78-36c-20-3-20-3-40 0l-64 19c-9 2-12 1-25 8l-397 585c-3 6-16 29-16 30-2 3-4 7-6 10-1 3-4 6-6 9l-91 110c-29 50-50 73-54 129-29-29-31-31-77-49l-90-20c-3-1-7-3-10-4l-172-60c-5-2-47-14-48-15-116-29-488-90-577-123l-59-18c-86-13-161-5-243-38l-32-15c-39-13-51-11-98-10-36 0-90 4-123-3-122-26-10-24-285-42l-1390-31c-188 0-1187 34-1254 56l-22 9c-37 12-2 6-52 11-240 25-377 23-597 73-154 35-330 22-476 69-4 1-8 3-12 4l-25 6c-3 1-50 8-54 8l-420 63c-91 22-168 62-248 110l-19 11c-18 11-24 15-37 25-51 37-79 80-116 131l-20 26c-75 111 36 174 122 219l57 24c12 4 8 3 34 10 72 18 147 21 214 51 3 2 7 4 10 6l282 105c77 42 289 115 341 233 21 47 27 74 9 122-41 107-174 186-250 262l-15 16c-15 14-15 12-31 31-2 2-5 5-7 8l-73 142c-12 31-16 41-33 77l-9 19c-1 1-2 6-3 8l-15 128c-3 77 62 274 97 319 2 3 9 9 12 12l144 143c44 29 29 42 101 84 54 31 114 37 175 58l222 104c76 36 140 61 246 81 25 4 68 12 100 24l684 141c68 7 136 13 210 23 284 40 616-13 909 28l345 2c87-11 52 7 83 7 277 0 697-30 984-46l819-69c60-17-13-7 59-21 107-20 108-1 154 29 23 16-25 1 40 22 36 12 15 4 53 10 46 8 56 12 103 8l711-54c18 0 42-1 60-4l57-18c3 0 7-2 10-2l20-3c20-3-18 18 40-5-39-57-26-27-70-44l-163-68c-40-15-33 0-49-56 90 0 155-15 233-35l139-11c2 0 7 2 9 3l26 9c78 26 136 79 211 113l112 48c105 53 167-3 239-5-11-98-3-2-192-108-2-1-6-3-8-4l-262-124c-36-16-42-16-80-29l-295-139c-180-63-64-64-192-103l-130-54c-2-1-6-3-8-3-2-1-6-3-8-4-2-1-6-3-8-4l-212-109c-2-1-6-3-7-4l-160-79c-8-4-13-6-23-10-2-1-7-2-9-3l-78-32c-32-18-18-18-58-37-63-30-93-7-128-55 59-31 213 17 300-12 101-33 288-23 411-41 134-20 228 7 339 63 3 1 7 3 10 5l19 12c29 16 3 5 42 20l615 246c4 1 12 5 15 7l24 11c115 59 253 86 361 150l824 340c4 1 8 3 11 4 4 2 7 4 11 5 46 18 91 15 141 15-2-95-5-50-56-69-7-3-20-9-31-13-139-41-140-65-208-81l-138-49c-2-1-6-2-8-3l-157-61c-2-1-6-3-8-4l-188-79c-2-1-5-3-7-4l-63-31c-4-1-16-7-20-9-3-1-7-3-10-4l-18-7c-34-12-9 6-56-14l276-311c22-34 2 5 19-42l7-24c34-88 58-77 58-204-1-160 22-163-50-274l-252-289c-2-2-5-5-8-7l-560-370c-3-1-7-3-10-5l-282-152c-58-48 2-12-68-40-4-2-8-3-11-5l-291-143c16-60 52-98 87-144 22-28 4-4 19-28l104-158c36-82 107-146 163-218l64-110c2-3 4-6 6-10 1-3 3-7 4-11 9-27 6-27 6-55 43 17 14-10 28 33l16 159c0 1 0 5 1 6l33 475c85-36 15 47 74-4 26-23 9-96 8-114l-15-68c-13-44 2 14-7-25-36-159-3-323-40-495-12-54 2-46 42-52 177-25 159 155 184 318z"/><path d="m5638 10937c-23-8-19-11-30-17-92-48-71-12-161-40-4-1-8-3-11-5l-110-15 63-153c91 9 140 6 219 32 39 13-47 16 44 11 99-6-38-15 80-27-7 62-29 52-74 157-22 52-10-35-20 57zm219-214l103-52c31-30 50-92 53-132l16 291-139-63c-50-33-18-25-33-44zm16-107c8-32 18-70 30-94 1-3 3-7 5-10 2-3 4-7 6-9 66-120 41-192 62-245 17-41 5 33 21-41l15-154c6-47 12-73 15-107 7-53-7-51 18-89 67 74 2 95-13 170-15 77 9 162-8 237-17 71-33 61-59 188-10 51-14 34-42 80-36 58 2 36-50 74zm-49-79c-65 77 0 71-92 78 15-54 26-46 71-98 68-77 39-89 55-192 11-65 25-19 25-82-2-214 41-180 44-306 2-51-11-36 40-71-2 127-10 125-38 223-15 55-25 335-75 417-2 2-4 6-6 9l-24 22zm-30-518c44-15 51-21 63-153 38 15 34-22 14 90l-34 138c0 3 0 7 0 9 0 13 7 22 1 50-8 40-13 0-32 91-34 162-16 210-136 341l1-76 61-31c3-175 72-102 62-459zm-62-168c10-11 33-4 62-15-2 105-31 46-31 107 0 50 30-19 1 45-71 156-15 18-31 200-8 81-17 24-39 115-10 39-22 94-26 132l-45-34c55-50 43-82 46-137 3-48 65-190 63-413zm719-1071c24-15-36-21 42-9 32 6 42 24 79 59 139 92 528 494 373 756-33 44 11 12-41 51l-22-103c-69-292-96-438-317-651-3-2-6-5-8-8-2-2-6-5-8-7l-98-88zm-266 841c28-235 208-682 94-917 112 3 44 1 60 46l19 26c1 1 5 3 7 4l27 42c164 314 142 486 171 784 3 29 83 109-213 54-7-2-42-11-51-13-108-33-68-7-114-26zm-812-458c58-38 40-43 75-79 110-105 571-443 778-403l-6 26c-82 50-119 150-194 208l-305 528c0-2-2 7-4 10-68-5-21 1-74-30l-14-9c-31-21-16-23-47-57-13-14-28-23-44-35l-165-159zm-110-199c0 113 15 95 53 178 1 4 3 8 4 11 19 54-11 33 26 82l33 29c3 2 6 4 9 6l118 119c40 42 92 63 139 90 3 1 6 4 9 6 3 1 7 4 10 6l76 38c2 0 5 3 6 4 65 43 136 41 205 74 3 2 6 4 10 5l130 40 1 168c-46-21-91-12-142-30-45-15 49-5-46-16-98 0-131-15-234-15l-60 508c-9 107 25 119-97 119-121 0-173-30-296-30-2 59-33 115-9 175 4 10 40 51 49 60 59 59-19 31 69 40-1 66-18 117-39 145-35 44-50 67-55 130 69 32-74-20 24 4 65 16 0 21 101 27l344 61c2-3 4-12 5-10 1 2 4-8 5-11 20-55 47-186 99-193 74-10 27 3 60 33l22 24c3 3 6 6 8 8l73 52c22 15-1 1 27 20 25 17 19 24 50 26 89 7 12-216 52-336 43-128 37-311 37-454 2 3 4 5 4 11l17 307c-1 20-8 29-5 63 10 103 30-15 30 123 0 82 13 125 15 216 1 51 8 119 59 81 36-26 22-197 21-252-1-72-72-286-70-641 0-49 15-26-7-93-24-77 2-120-23-193-4-14-12-8-10-49 4-64 20-52 21-47l64 27c137 49 349 13 493 19 105 5 125-17 234-15 0-29-3-61 4-89 105-457-201-701-549-937-14-6 7-4-36-12-22-4-37-3-59-4-58-4-115-11-181-21-179-25-575-2-699 94-20 16-26 23-51 42l-124 138c-25 32-24-25-24 39z"/><path d="m4272 6152l37-13c19-55 30-58 48-133l-56 126-31 28-71 98c-80-39-78-48-124-113l-36-53c-3-4-6-9-9-14-96-148-76-496 57-495 109 43-17 40 91 68l127 10c5 1 14 2 20 5 29-92 36-40 76-126 23 31 15-18 11 38-9 136 23-81-10 28-2 7-45-48-5 18 21 37-41-3 27 16l34-145c56 74 11 317-27 390 69-26 55-25 100-68l-45-22c9-127 0-284 75-365 149-161 131-191 196-250 66 260-148 440-224 615l171-245c107-184 70-259 134-322-25 197-26 159 29 174 2-2 0-9 0-7l-15-89c0-8 7-72 8-77 23-68-10-43 52-64 107 51 25 161-30 213 5-3 13-13 15-9 0 0 64-24 82-103 46-31-25-17 52-9 3 1 11 15 13 10 2-5 9 8 11 14l-7 40c-3 57 6-16-1-37-14-49 3-5-42-73l-48-90c-62 23-36-30-159 76l-42-73c-56-32-33 21-48 48l-200 269c-3 2-9 5-12 7-3 1-9 4-11 5-3 2-9 4-11 5-36 18-43 21-76 50-165 143-70 57-144 80-32 10 9 14-77 43l-15-35c-2-4-6-12-9-16-50-67-59-42-93-25l-76 66c-2 2-8 5-11 6l-47 19c-24 11-35 17-62 27l-112 77 30 40 43-54c37-27 24-14 59-22l-13 194c-78-60-92-135-190-123-83 10-58 20-110 50-71 42-39 10-108 30-4-5-8-20-9-17-1 4-7-12-9-16-1-3-5-11-7-15-9-26 13-1-13-57-41 110-202 178-324 215 35-87 42-49 11-129-32 65-28 144-98 168-142 51-104 157-258 147-12-97-7-139 29-213-7-2-20 4-51-22 3-79 7-139 68-181l-92-102c2-11 19-51 20-55 10-61 1 17-6-58l-24-166c-1 111-18 104-20 215-2 107 65 166 68 173-59 115-43 288-17 434 161 29 252-161 400-193 87-20 32 10 106-28l137-113c39 36 67 62 143 40 124-37-3-33 118-69 120 88 319 280 338 434 22 175-200 351-199 562 23-21 10-3 38-51 4-6 23-49 28-60l146-315c104-326-237-387-281-571 94 12 67 80 172 94 27-65 19-194 54-244 69 26 28 51 14 161-8 66-8 121 23 186 31 65 66 103 98 150 87 127 21 34 44 108 122 10 142-48 162-125zm47 776c7-61-14-30 30-62l-161 46c-10-153 25-293 83-414 46-97-34 63 14-28 41-78 111-211 187-238-67-72 8-11-46-20-86-14 46 58-27 3v14c-29 148-233 138-247 706-117-45-25-27-142-5 43-52 23-24 49-84-118 55-45 90-194 114-110 18-88 1-94-12-27-62 48-15-22-143-7 132-1 116-43 169 137 16 42 42 211 14l235-40c122-31 56-44 167-20zm547-1417c50 20 44 27 22-21 49 11 39 20 26-28-41-1-33-11-26 28-36-8-29-15-22 21l-26-8-195 338c-37 77-61 131-85 177l-84 157c-2 4-5 11-7 16 59-29 8 23 68-60 3-3 6-9 9-13l60-118c3-5 5-10 7-16l186-342c4-5 14-21 17-27l44-87c2-4 5-12 6-17z"/><path d="m3852 7442l5-11 22-5-14-12-8 17-176-19c40-124-5 30 41-41 0 0 1-3 1-4 3-6-67 1 42-50 134-62 167-29 203 0l-14-11c6-128 40-42-77-85 334-15 659-46 1010-19v69c5 36 15 29-19 29l-2 27c51-25 13-36 41 5 33 11 20-5 44 23 56 67 7 2 9 54-29 2-49 15-71-15l-24 23-29-30c40-28 15-12 34-42l-25-1-30 50-28 68c-259-39-707 10-963 41-140 17-294 34-426 61-44 9-371 105-356 129l17 23c64-68 155-87 267-114 222-54 768-129 977-105 83-50 330-28 434-29 67-1 61-12 72 9 49-49 39-1-11-62 50-9-3-46 60 15l33 2 42-9 9 11 40-35-1 8-31-57 6-24c-32 4-25 10-20-22l-15-100c423 25 1004 115 1176 397 138 227-67 440-172 517-83 59-331 119-452 144l-149 50c120-4 292-46 407-77 313-85 171-143 285-100l-12-24c16-103 75-49 136-220 175-482-545-621-889-684-605-111-1565-29-2122 136-96 28-189 66-267 110-104 58-140 95-179 176-156 318 26 431 96 522-372 384 208 638 635 651-101-64-649-69-714-347-31-132 23-230 93-264 80-26 391 135 574 107-70-31-219-40-300-61-288-75-554-305-328-642 93-140 298-184 504-247 175-54 468-124 646-114-45 41-96 45-139 63-70 30-65 24-84 91 44 64 89 72 186 54z"/><path d="m3163 8093c-1-1 5-2 5 0l23 38c14 0 62 0 70 0 68 9 28 4 50 15-93 32-98 22-186 14l4 5c130 46 109 34 233-26l-26-67c-25-45-26-20-61-78l-5 10c12 27 16 28 21 51 4 25 1 16-6 30-110-1-38 31-69-44l-6-41c-19 137-7 53-47 93zm1848-624l-77 5-44-2-8 29c203-3 453 44 655 106 108 33 119 17 141 108-39 59-17 41-110 74-435 157-1331 85-1793 73-290-8-472-58-632-64l62 41c3-4 10 5 15 8l-20 30c4 5 10 6 12 15 2 9 10 12 12 16l28 52c0 0 0 3-1 3l-14-125c580 120 1513 112 2076 54 169-18 445-57 444-266-3 5-6 12-8 15l-62 67c-35-134-141-138-300-176-143-34-266-37-376-63zm-1875 615l17-7-63-13c78-134 109-112 76-159-37 122-87 84-112 136l82 43z"/><path d="m5345 8781l-17-74 18-28 17-4 50-141c-80 36-121 124-141 206-3 2-9 4-11 4l-78 40c-43-46-30-48-120-67l65 100c3-5 7-11 8-13l88 19 121-42zm86-79l41-77c-2-2 32-100-65 36-54 76 56 34-77 56l48 28c2 1 5 9 5 11 1 2 3 9 5 14 13-112-2-39 43-68zm50 39l19 15c168 19 449-47 574-166l21-22c65-72 92-141 72-248-22-114-54-189-163-209l12 24c84 41 75 34 103 126-3 4-8 10-10 13l-44 70c-105-18-92 1-133-70l-74 49c168 72 128-8 213 86l72-86-1 97c-32-23 18-85-200 65-46 32 9 37-98 33-78-3-80-5-135-39 0-86 51-73 149-156-121 22-175 63-189 182 69 25 160 33 246 44 4-4 8-10 11-13 2-2 8-9 11-12l75-61c43-22 70-25 116-35-5 70-27 102-133 171-77 51-224 87-312 107l-202 35c-37-55 13-35-60-36-51 82-1-11-15 64 6-3 15-10 18-5l57-23z"/><path d="m5615 6949c-47 4-87 13-124 13l-75-6c-462-24-455 40-461-93 79 48 188 33 315 33 114-1 68 10 170 25l175 28zm-785-19c-1 0-4-5-5-5l15 20c-4 4-9-13-10-15zm628-31c-10-7 39-11 10 8-36 22-9-7-10-8zm-937 28c75 1 143-14 254 11 70 16 4 5 67 26 1 0 36 10 37 10l132 16c46 2 38-2 81-2h325c216 1 127-24 304-30l-32-36c-70-81-155-38-248-54-34-6-4 38-17-12l-35 2c23-12 53-20 73-42 4-4 8-10 11-14 3-4 7-13 9-16 3-4 6-9 8-19 1-11 4-14 7-21-144 61-267 162-607 79-15 18-41 2 21 72l-390 30z"/><path d="m2963 7110c0-3 3-7 5-5 1 1-5 4-5 5zm391-72c-198 3-67 45-232 32-78-6-84 9-154 35 23-26 4-9 35-37 62-55 53-39 85-39 3 0 9 2 12 2 3 0 10 2 13 2l151-13c174-64 121-97 194-93 3 0 9 1 12 2 56 11 94 64 98 57 2-4 9 6 14 9l-228 43zm140-170c9-18-18 37 0 0zm-570 256c33 37-10 18 44 16 3 0 33-13 44-16 29-7-49-9 37-5 61 3-12 7 31 8 20 1 76-11 100-17 76-20 58-14 88-50 64 76 237-17 432-51-72-86-40-30-92-64-71-46 76 71-25-39l-69-61 41-85c-148 56-31 84-190 165l-236 8c-50 59-155 93-162 96-70 25 5 12-29-3l-14 98z"/><path d="m4947 8651l-13 18c85 34 66 11 0 31l17 14c0 0 27 47-80 58-38 4-88-7-126-13 18-9-9-4 53-22l136-20-11-31-91-2c-32 41 25 24-74 34-1 0-94-12-101-13 59 71-51 0 73 66 30 16 22 12 61 20 93 17 70-10 162 28-535 42-930-30-1142-15 86 54 508 73 655 79 170 7 501-11 643-52-67-50-65 1-174-25 22-92 26-21 118-124-112 12-58-19-69-32l10-4c49 14 26 14 16-50l-28-8 12 58-47 5z"/><path d="m4832 8684l91 2 11 31 17-3-17-14-11-14 11-17 13-18-54 23-7-203c4 5 9 11 12 15l21 31c58 86 15 54 63 71l28 8c10 64 33 64-16 50l-10 4 44-19c7-35 15-24-18-35-42-27-53-41-79-94-21-42-33-87-51-143l446-62c-276 0-562 46-860 48-198 1-728-37-876-12l-16 17c216 5 422 26 647 29 225 2 437-14 658-18-42 123-15 157-13 305l-124-19 62-77c29-37 28-24 39-85-36 34-36 45-80 89-3 4-7 8-11 11l-64 57c56 54 57 37 144 42z"/><path d="m5505 4697c72 57-51-58 57 18-27-29-11-28-24-55-66-117-256-185-400-166-47-92-243-246-263-254-41-19-109-10-156-11-60-169-79-203-343-243-110-17-174-7-280 8-68 10-189 6-270 10 7 4 17 1 22 10 40 81 609-109 795 124 1 3 1 5 1 7v15c6 41-22-26 6 22 1 3 20 25 24 31l37 53c145-65 180 35 191 45 59 57 39 6 108 79 3 3 7 8 10 12l93 119c144-8 225 5 313 77l79 99z"/><path d="m3202 4790c-138 36 61-10-93-3-84 4-229 57-274 179-75 201-16-51-78 233l-34 172c128-116 7 8 69-166l119-320c37-30 145-72 198-66l79 32c26-47-7-32 58-49 21-111-29-67 55-143-32-31-20-16-42-68 125-53 112-108 116-112l40-18c4-1 14-2 20-3l-11-114c53-40 50-19 91-71 5-7-14-6 27-35l45-22c5-3 12-5 16-8l51-59c42-44 53-29 99-55 4-3 9-6 13-8l51-48c3-3 7-10 11-14-7 1-19-4-23 5l-151 78c-42 22-9-3-48 38-47 50 10 4-43 47-23 19-17 5-52 36-170 153-91 118-141 214l-33 49c-120 198-52-44-135 299z"/><path d="m4756 7717c-4 3-9 7-12 8-79 36-214 45-300 51-3-5-7-12-8-15-1-3-5-11-6-14-1-2-4-10-4-12l-4-20c-101 23-84 14-193-6l76-28c59-17 4 4 38-9-91-41-123 18-143 47 111 58 156 15 216 56h-584c12 8-7 37 144 40 144 3 659 3 761-50 47-25 40-33 65-72-31-35-9-28-61-37 20 27 27 28 15 61z"/><path d="m3410 8633c-26 104-8 56 13 100 57-61 18 23 36-67 23-110-24-52 71-124 4-3 13-5 16-14 3-10 11-10 17-15-44 0-274 22-247-94 17-72-4-9 26-41-76-16-123 4-208 8-340 16-106 215 8 259 83 31 199 41 271-3l-40-9c-169-23-78 34-179 2l-166-94c2-69-4-7 28-78-82 31-41 74-87-35l272-28c61 72 116 129 218 158l-49 75z"/><path d="m3330 9229c27-61-17-33 33-54l-56 5c-7-51-8-30-22-49-15 17-31 14-44 24-1-33 7-26-26-18l-2-31c4-3 10-8 12-10l81-44c97-28 54 1 113-71-186 6-92 43-223 68 6 52 0 31 18 51 42-67 5-41 77-71l-78 77c-15 4-26 14-29 7-1-6-5 22-12 20l-20-20 28-24-78 27c-26-30 53-39-37-19l23 11 14 8c18 33-19 10 29 40l73-2 11-17-3 14 29 4-11 54-8 1-14 17-96 16c-4-6-13 5-20 8l60 5c-35 109-19 44 4 74l33-71c0-5 4-6 4-9l25 84 39 23 2 13 45 18 38 3 49-23c38 9 32 19 32-15-32 10-24 15-21-18 35-57 10-15 47-41l-13-35h-40l6 76-17 25 6 8-20-10-114-1c8-77 7-67-24-115 42-16 40 7 90 30-5-7-13-16-15-20-43-79-74 39-1-29l23 6z"/><path d="m5582 4702l-4 26c130 35 44 76 157 153 31 21 15-3 41 25 28 29 16 30 29 59 12 28 9 23 21 46l27 46c3 5 7 12 9 18-5 3-13 1-14 7l-42 15c187 244-14 472-14 473 17 100 4 69-15 147-6 26 3 147-1 201 78-101 9-216 69-367 28-70 49-72 63-156 21-132-32-159-27-250 2-35 52-73-71-227l-228-216z"/><path d="m4691 8108l-2 22c67-15 34-12 80-13-8 24-15 66-5 122-40-8-94-26-139-21-101 13-65 100-98 45-2-4-10 7-16 9-155-21-216-17-289-100 65-90 183-104 299-124l127 86-1-26c-113-35-54-47-92-94-168 44-313 37-349 159 77 122 320 137 363 121 6-1 10-6 15-8 5-3 9-8 14-11l29-22c56-21 135 9 205 15-99-120-27-95-6-206l-135 46z"/><path d="m4303 7497c203 4 368-12 579 4l8-29c46-34 21-19 44 2l77-5c70-62-43 117 35-59-122 30-44 15-64-11l-40 35c87 10 8 3 8 2 0 0-7-2-7-5 0-5-8-4-10-8l-42 9c-1 1 22 64-33-2-63-61-10-24-60-15 50 61 60 13 11 62-11-21-5-10-72-9-104 1-351-21-434 29zm512-103c-20 15-28 27-30 22-2-5-12 2-17 6 54-11 1-10 19 40l28-68zm21-7l29 30c0-39 10-30-29-30zm30-60l-21 17 25 1 19 49c22 30 42 17 71 15-2-52 47 13-9-54-24-28-11-12-44-23-28-41 10-30-41-5zm2-27c34 0 24 7 19-29l-19 29zm68 4c-5 32-12 26 20 22l-20-22zm45 103c39-23 41 30 32-27-32-15-35-14-63-30l31 57z"/><path d="m3259 9370l-2-13-39-23c-16 49-63 124-147 76-40-24-37-45-21-89l42-70c7-3 16-14 20-8l96-16-118-27c15-64-2-27 41-44-48-30-11-7-29-40l-14-8-27 68c2 7 13 30 14 36 1 5 3 13 4 17 5 33 0 31-7 48-70 40-91 61-192 36-16-87-24-61 39-105 8-37-44-44 42-20l-5-35c-73 18-80 32-161 17l-14-75-37 13c37 95 5 62 83 103l25 132 153-3c31 158 134 107 254 30zm-18-215l-29-4 3-14-11 17 8-3 10 59 8-1 11-54z"/><path d="m5210 5464c62-36 17-16 38 2l30 15c37-10 25-12 16 28l16 28c33-5 27-13 23 18 18 129 22 160 115 218l77 55c1 1 63 172 190 162 54-4 18 8 52-31 3-3 7-12 8-14 2-3 4-10 7-14-5 1-12-2-15 4l-86 38c-8-49 7-71-71-32-2-4-20-53-23-59l-14-31c-40-73-60-39-58-139-97 82-127-15-146-100l-32-104c-27-16-54 11-4-31l2-30-16 5c-4 5-10 12-13 14-2 1-11 6-13 6-29 11-22 12-26-17l-2-44-13-3-22 22c-59 63-22 33-34 0l-38-23-49 22c-18-48 1-10-23-55l-23-3c36 95-9-28 16 66 31 6 81 14 131 27z"/><path d="m3865 7414l14 12-22 5-5 11 24 25 3-41 158-4c15-25 37-48 47-65 54-95 4-68 3-70l-133 19 14 11 40 37c1-3 4 8 7 12-107 68 78-8-44 14-82 16-44-16-106 34z"/><path d="m3713 8771l-27-43c-40 7-13 23-22-9l20-74-28-24c-71 40-63 48-81 124l86 7c-6 87 6 22 25 54l27-35zm-152 1c-43-17-26-16-14 32l-28 21c45 0 46 14 28-21 35-2 24 5 14-32l40 9c-23-28 10-53-40-9zm176 18c37 7 25 14 35-21-46 0-42-15-35 21l14-27-52 37c2 2 51 64 38-10z"/><path d="m3449 9294c-37 26-12-16-47 41-3 33-11 28 21 18 83 19 89 23 208 10-50-153-1-64 17-92 3 5 8 12 10 16l29 39c36 43-13-6 22 18 5-4 12-10 17-12l77-26c-34-12 19-50-49 11-103-61-77-9-171-79l-43-34-18 19c52 35 40 6 63 114-105 9-109 25-136-43zm-78 64l20 10-6-8-14-2zm-67 30l38 3-38-3z"/><path d="m5268 8001l-23 17c-3 1-10 4-13 6l-103 40 88 43-37 138c86-13 68-22 112-73l21 2-3-23-39-14 1 7 20 28-23 3-39 16c17-101 5-87-34-118l77 3 9 2-1-8-8-26-5-43c4-3 10-10 10-12 1-3 3-11 3-14 4-40 44-30-21-30l8 56z"/><path d="m3466 9165c9-71-4-103-23-142-42 57-6-13-14 49-3 22 6 10-5 52-1 5-2 12-4 14-1 2-5 10-6 12-52 82 77-23-22 12l-29 13c-50 21-6-7-33 54l66 30h40l74-7-85-21 38-1c-36-16-9-26-78-11l68-47c2-6 9-4 13-7z"/><path d="m4002 6556l-31-5c-17 42-39 100-30 173l124 25c54-36 28-16 77-31-5-3-12-10-14-6l-74-25c71-24 87-17 91-95-44 64-71 82-177 111 4-80 15-108 34-147z"/><path d="m6053 7034c-30-48-26 7-1-83-149 21-96 4-150-8-54-13-90 1-132 30 27 28 8 3 53 9l230 52z"/><path d="m5048 5321c-30 9-26-1-61 21-73 46-9-1-55 60-33 44-54 53-92 101l26 8c-7-36-14-29 22-21-7-39-15-29 26-28 81-39 9 1 68-58 67-67 5-43 81-33l23 3c-20-130 8-106-81-163 45 68 28 24 42 73 7 21-2 94 1 37zm-69-55c85 8 37-16 76 15-2-6-9-19-11-14-2 5-10-9-13-10-77-8-6-22-52 9z"/><path d="m2838 9012c-69 12-90-9-138 20l44-17c162 15 140-9 200 95-30-26-17-34-99-40 41 26 72 44 106 57 2 5 8 5 10 12 28 102-43-57 34 24l16-24-32-23c7-193 38-141 81-156l55-22c-107-2-128 16-179 93-55-12-22-19-98-19z"/><path d="m4309 6139l-37 13c45 47 46-72 38 99l89-22v-14c-58 1-50 18-50-24 109-31-12 24 32-12 8-6 62-27 18-103-53 8-25-20-90 63zm-39 21l31-28-31 28z"/><path d="m5401 8109c-17 18-5 10-34 30-70 50 59-21-27 11l-10 25 17-6 4 38c67-3 51 15 51-49l-55 11c20-15 52-56 52 2h35l-14-71c113-51 58-3 71-78l-111-9c-49 50-53-84-34 43 69-12 71-13 116 19-74 16-45 19-61 34z"/><path d="m3880 9258l-3 45c-6-5-16-12-19-11-49 14-1-8-42 23 118-15 13-6 51 19l20 22c34-16-16-4 34-7 4 0 40 4 47 5-39-68 11-23-54-60l57-27 43-63-134 54z"/><path d="m5472 8625l21-40c-68 26-28 4-83 57-4 4-25 24-29 27-1 1-8 7-9 4-1-3-6 1-9 2l-17 4c54 49 12 15-18 28l17 74 62 20c45-25 77-31 93-45l-19-15-57 23c-3-5-12 2-18 5 14-75-36 18 15-64l10-3c-45 29-30-44-43 68-2-5-4-12-5-14 0-2-3-10-5-11l-48-28c133-22 23 20 77-56 97-136 63-38 65-36z"/><path d="m2927 7672c51 88 102 106 219 134l-116-61c-182-95 7-182 37-212-85 23-123 30-140 139z"/><path d="m3656 8621l28 24 122-239c-52 61-129 99-150 215z"/><path d="m3519 8825l28-21c-12-48-29-49 14-32 50-44 17-19 40 9 11 13-9 17 30 36l68-17 52-37-14 27c-7-36-11-21 35-21l-59 2-27 35c-19-32-31 33-25-54l-86-7c-69 25-29 23-134 20l78 60z"/><path d="m2700 9032c4 10 13 33 16 39 23 44 25 34 28 37l37-13c-55-69-16-9-37-80l-44 17c48-29 69-8 138-20l-64-25c-15-3-68-7-95-12l21 57z"/><path d="m5056 7662l47 82-255 53c78 6 162 10 231-23 42-20 25-14 54-45l-77-67z"/><path d="m3971 6551l31 5c48 60 60 43 130 46l-107-101c-61 22-15-30-54 50z"/><path d="m3136 8084c-6 2-13 2-17 3-5 2-13 3-18 5l-83 61 111 12-4-5c21-40-43-32 66-29l-23-38c0-2-6-1-5 0l-10-16-17 7z"/><path d="m3011 9139l-16 24c-77-81-6 78-34-24-2-7-8-7-10-12l5 26 5 35c35 10 26 4 57 30 37 30 27 25 54 59 7-17 12-15 7-48-1-4-3-12-4-17-1-6-12-29-14-36l-71 17c64-45 63 2 21-54z"/><path d="m3880 9258c-76 11-59 17-107 9l-19 50c68-61 15-23 49-11l-77 26c-5 2-12 8-17 12 99-16 19-6 90-10 3 0 52 0 68 0-38-25 67-34-51-19 41-31-7-9 42-23 3-1 13 6 19 11l3-45z"/><path d="m5158 5407l38 23c12 33-25 63 34 0l22-22 13 3-13-3c-34-4-26-11-22 22h-34l14-92c-53 34-35 7-52 69zm90 59l30 15 16 28c-9 38-20 33 16 28l23 18c4-31 10-23-23-18l-16-28c9-40 21-38-16-28l-30-15c-21-18 24-38-38-2l38 2zm71-14l16-5-16 5-52 3c4 29-3 28 26 17 2 0 11-5 13-6 3-2 9-9 13-14zm14 25c-50 42-23 15 4 31l-4-31z"/><path d="m3180 9089l-28 24 20 20c7 2 11-26 12-20 3 7 14-3 29-7l78-77c-72 30-35 4-77 71-18-20-12 1-18-51-37-125-56-79-75-64 23 15 35-15 59 104z"/><path d="m4319 6928c7 1 53 7 59 7l44-15c-25-61 48-14-73-54-44 32-23 1-30 62z"/><path d="m3424 9124l-32 38c99-35-30 70 22-12 1-2 5-10 6-12 2-2 3-9 4-14zm39 106l59-7 18-19-74-39c-4 3-11 1-13 7l-68 47c69-15 42-5 78 11z"/><path d="m5272 7797c93-21 93-14 107-77 1-4-4-31-4-38l-31 44c-25 36 13-3-20 28-67 63-6-30-52 43z"/><path d="m3574 8350l16-17c-27-20 42-16-57-24-72-6-25 5-42 13l83 28z"/><path d="m5505 4697l8 30 65 1 4-26-44-42c13 27-3 26 24 55-108-76 15 39-57-18z"/><path d="m4689 8130l2-22h-44l1 26z"/><path d="m2884 7127c-45 10-56 22-74 26-12 3-36 1-74 4l148-30z"/><g font-family="&apos;Coaster Shadow&apos;"><text x="10500" y="14850" font-size="1200.69" transform="matrix(.739 0 0 .78707-5462.16 5476.68)">Texto 01  </text><text x="10500" y="14850" font-size="892.65" transform="matrix(.80404 0 0 .78707-6333.55 6318.78)"> Texto 02</text><text x="10500" y="14850" font-size="815.19" transform="matrix(.80404 0 0 .78707-6139.39 7192.03)"> 00.00.0000</text></g></g><g fill="#373435" font-family="&apos;Arial Black&apos;" font-weight="900" font-size="529.17"><text x="10500" y="14850" transform="matrix(.80404 0 0 .78707-4510.85 4102.99)">NN 2</text><text x="10500" y="14850" transform="matrix(.80404 0 0 .78707-4510.85 3739.25)">NN 1</text></g></g></g></svg>