<svg xmlns="http://www.w3.org/2000/svg" width="744.09" height="1052.36" viewBox="0 0 21000 29700" shape-rendering="geometricPrecision" image-rendering="optimizeQuality" fill-rule="evenodd" clip-rule="evenodd"><defs><clipPath id="0"><path d="m14756 23775c1158 560 3360 452 4028-584 666-1033 520-4016 584-5453 158-3596 558-6324 661-9225 115-3221-2080-5403-4726-5950-3635-753-3443 4174-2983 6659 271 1368 738 2560 1080 3898 630 2468 69 6300 289 8869 112 887 462 1466 1067 1786"/></clipPath><clipPath id="1"><path d="m6281 23775c-1159 560-3360 452-4029-584-666-1033-520-4016-583-5453-158-3596-559-6324-662-9225-115-3221 2081-5403 4727-5950 3635-753 3442 4174 2982 6659-271 1368-738 2560-1079 3898-631 2468-70 6300-289 8869-113 887-463 1466-1067 1786"/></clipPath></defs><text x="10081" y="24465" fill="#201e1e" font-family="&apos;Arial Black&apos;" stroke="#201e1e" font-weight="900" stroke-width="7.62" font-size="705.56">34</text><g fill="none" stroke-width="80"><g stroke="#322f30"><circle cx="10533" cy="1326" r="460"/><path d="m10533 515v1621"/><path d="m9723 1326h1621"/></g><g stroke="#373435"><circle cx="10533" cy="25836" r="460"/><path d="m10533 25026v1621"/><path d="m9723 25836h1621"/></g></g><rect x="9843" y="22866" width="1347" height="637" rx="318" fill="#fff" stroke="#fff" stroke-width="20"/><g fill="#201e1e" font-family="&apos;Arial&apos;" font-size="423.33"><text x="300" y="28462">DESC 1</text><text x="281" y="28926">DESC 2</text><text x="278" y="29422">DESC 3</text></g><g clip-path="url(#0)"><g><g><g/><g/></g><g fill="#201e1e" stroke="#201e1e" stroke-width="7.62"><path d="m17137 15159c1-1 4 1 4 3 0 1 1 1 1 1 0 0-27 13-5-4zm1159-288c1-38 34 2 11 2 0 0-11 48-11-2zm528-235c7-13-17 32 0 0zm-1204-47c24-32 20 32 5 8 0 0-40 39-5-8zm140-47c13-34 14 36 6 16-1-1-32 53-6-16zm236-21l7 9c-1-1-9-6-7-9zm-192-302c16-10-9 4 0 0zm136-82c33-19-16 8 0 0zm-320 452c-140-30-309-282-732-166-231 63-440 250-440 544l173-83c38-25 21 11 80-7 73-22 53-47 74-91 14 27 37 83 139 24 70-41 36-59 20-145l81 106c114-5 120-3 156-82 35 69-24 27 65 44 0 0 96-1 105-1-195 109-267 88-379 286-96 171-93 392 34 519 60-66 90-168 112-207 2-2 4-7 6-9l52-60c38-58 29-32-16-92 101 16 78-21 168-135 83-104 195-190 340-243 23 320 32 633-9 953-41 312-137 557-179 834h549c37-727-41-1155-182-1817 128 14 151 27 262 63l61 24c5 3 17 14 22 17 99 66 59 0 125 74 29 32 5 16 41 41 33 22 40 17 49 21 83 38-17-29 34 21l169 150c47-229-37-357-166-458-206-161-309-73-525-77 66-8 57-62 164-78 24-4 61-9 77-13l100-37c117-28 128 75 195-55l10 71c160 27 139 45 205-38-1 129 7 88 116 145 90 48 76 77 159 117 10-326-170-515-478-539-239-19-471 102-611 271l-75 67c9-110 44-187 98-246-18-31-32-45-55-76 93 26 60 49 138-44 55-64 141-84 222-145-188-29-338 29-430 121-111 109-123 232-124 431z"/><path d="m13491 14765c-90-132-419-733-520-786l-71 42c29 98-27-16 39 103 86 152 350 530 380 636l-258 18c13 106 164 212 239 287 213 212 611 602 900 663 9 332 104 1196-5 1461l-604 182 1358-2c-98-90-480-151-612-172-80-470-8-969-1-1448 169-115 352-161 638-440 101-98 488-420 506-526-196-53-1696-31-1989-18z"/><path d="m15388 15149c6-115 135-268 212-314 83 47 75 67 121 166 71 156 65 219-94 232-11 0-94-4-106-6-93-16-84-22-133-78zm649-134c-53 75-61 99-166 109-76-59-162-223-154-345l306 3c116 43 92 119 14 233zm-219-542c199-301 302 96 302 134-1 8-2 16-3 23-1 7-5 17-6 22-1 6-9 25-10 21-1-4-7 14-11 21-27 23-256 59-371-42 17-73 60-121 99-179zm-691 119c-1-157 102-289 266-286 42 101 134 217 119 350-137 26-307 19-385-64zm500 7c-40-35-185-249-157-337 40-128 294-48 370-4 1 142-126 295-213 341zm-345 577c328 367 1176-114 842-740-266-496-1069-342-1082 241 78 11 460 24 500 71 32 52 23 11-30 91l-230 337z"/><path d="m15629 2870l-378-93c7-225 92-595-2-780l-121 1c-102 208 38 540-14 790l-339 55c-41-158-98-306-155-472-83-238-53-391-301-311-45 185 243 614 322 819l-37 34c-127 103-222 191-337 229-53-87-369-544-499-473-53 52-50-83-44 101 2 61 18 62 43 95l441 392c-72 89-79 89-119 208-455-155-930-568-1110-413-213 230 154 304 344 368 232 79 439 157 662 217-17 99-30 249-85 335-170-1-770-125-770 71-1 195 459 74 805 70l37 312c-149 35-671 155-561 301 21 28-47 161 326-35 103-54 208-96 293-145l211 351c-109 58-164 109-257 185-29 24-84 63-111 104-108 164-3 154 2 158 97 90 288-182 453-373l248 175c-91 295-457 734-397 1024 279 116 279-70 364-320 71-210 137-400 204-616l385 76c-10 210-84 546 4 704l107 4c87-161 19-496-1-712l471-97c45 167 113 345 170 519 42 128 96 511 311 365 153-103-23-339-91-480-78-162-188-348-244-524 269-101 148-160 334-254 268 225 356 520 499 377 148-147-383-475-413-489l93-254c138 51 319 148 448 215 175 91 402 250 397-94-196-142-557-143-782-300l6-184c199 6 522 74 668-12-25-221-16-139-634-115l-63-253c297-107 810-248 1051-380l-10-232c-227-63-884 300-1084 425-74-81-128-192-176-284 72-50 760-538 416-576-126-14-20-24-92 23l-384 465-303-212c112-465 665-1006 370-1145-327-154-328 744-571 1060z"/><path d="m19245 11051c-6-1 0-20 1-14 1 6 12-7 17-12 3-3 373 272 457 490l-318 18-157-482zm-641 204c-67-54-125-116-201-178-66-53-173-123-228-176 47-125 172-281 226-414 101 36 269 142 343 220-7 108-94 465-140 548zm-1087-620c85-88 338-324 457-383l342 163c-20 87-191 379-246 433-80-38-175-79-268-116-87-34-212-53-285-97zm140-583c76-33 377-173 471-183 81-10 302 165 391 218 456 274 511 185 520 448 4 106 2 215 1 322-211-151-404-307-650-445l-733-360zm-727 39c-10-11-139-261-148-282 217 11 490 51 624 178l-476 104zm724 1705c81-143 162-286 249-431 77-127 158-293 236-414 213 117 367 252 493 429 244-13 462 6 624 130 268 205 58-24 561 69-63-394-435-978-720-1220l-808-478c-144-95-262-127-466-166-416-79-752-54-1147 38 38 82 21 40 76 115 119 163 76 236 162 296 57 40 133 68 198 116 69 52 104 91 156 161 178 237 14 191 349 282 132 35 337 109 425 178-36 126-830 1397-947 1674 142-12 135-39 195-149l364-630z"/><path d="m17938 5443c106 25 248 205 304 308 68 125 131 315 124 481-66-98-89-257-137-375-47-113-142-249-268-271-282 165-135 594-61 858-30-37-36-57-58-106-51-110-114-291-110-417 5-166 126-417 206-478zm-134-244c-126 45-158 52-218 162-214 395 190 888 414 1336 73 145 191 359 401 294 561-176 54-589-22-933-58-258 36-396-111-629-70-110-249-308-464-230z"/><path d="m19110 6006c22-123 94-293 102-460 7-181-74-331-178-384-238 42-303 419-400 664-36-297 238-761 418-803 104 85 201 280 217 458 8 99-19 194-48 276l-111 249zm-430 580c202-32 268-214 349-374 152-305 441-705 449-994 12-470-466-641-739-221-186 285-13 550-201 872-46 80-124 148-102 241 45 184 179 304 244 476z"/><path d="m14718 12125c481 38 1164 90 1627-2l2 171c-564 82-1047 81-1609 2l-20-171zm-69 26c-77-173 99-665 179-777 292-405 1148-404 1425 3 78 115 261 586 184 773l-46-105c-562-51-1136-42-1696-2l-46 108zm1881 82c14-756-234-1246-987-1245-750 0-1014 484-989 1247 198 43 47 26 202 132 3 2 13 14 15 9 2-4 11 6 18 9l145 1320c279 57 976 106 1219-9 16-146 108-1289 158-1319 94-58 54-41 96-88 33-38-4-18 51-43 2 0 68-12 72-13z"/><path d="m16694 13293c32 64 42 71 95 117l113 97c-108-30-109-68-194-146-3-3-10-9-13-11-3-3-12-4-14-12-7-22-40 16 13-45zm-120-105c-214 214-593 472-229 712 174 115 389-137 543-310 75-83 21-35 34-64 0-1 3-6 3-7 1-2 5-7 5-9l-34-138c101-131 425-392 474-506-47-83-38-53-98-115-102 44-413 388-508 481-70-36-59-50-159-72l-31 28z"/><path d="m16528 7996l-33 438c-168 68-252 67-259-126-5-157 11-339-9-425l-54 11-60 8c35 164 32 364-49 478-110 154-273 52-404 102-9 237 296 855 683 953 578 145 544-619 579-1043 127-67 220-138 341-214 201-124 823-561 1022-553 94 101 145 317 150 457l16-146c-18-110-99-349-190-372-80-20-874 479-1009 553-115 61-215 112-316 181-69-79-81-135-162-196-49-37-185-104-246-106z"/><path d="m14651 7488c9 0 62 0 72-2 57-9 43-3 72-24-6 14-11 29-16 77l1 398c0 148 2 301-1 448l-107 35c-48-151-34-780-21-932zm-39 982c54 19 110 23 157 7 110-37 75-56 111-146 64 130 99 175 271 140l30-54 24-24-24 24c-163-33-265 18-264-294 1-127-20-477 17-572-7-12-24-48-35-57 195-9 482-90 685-121 216-32 442-83 666-122 115-19 233-44 333-68 435-108 474 274 559 445 20 41 15 30 37 56 93-153-143-509-330-555-155-38-1350 181-1594 229-129 26-284 52-403 71-160 27-300-27-406 45-93 244 39 837 166 996zm533-5c-50 15-40-2-37 46 47 0 30 10 37-46z"/><path d="m15780 8219c-2-5-6-11-7-14l-13-135c0-52 3-96 6-146l86 40c0 322 21 249-72 255zm-641-266c89 0 66 6 72 87 4 58 4 130 2 191-55-30 16-17-87-9l13-269zm91 349l80-310 12-16c5-82 32-135-30-161l-13 63-88-16 3-99 111 42c28-63-7-73 18-28l220 71-5 118 145-30 13 370c197-6 229 17 228-183-1-196 6-171-106-265l56-16c-52-43-348-41-453-75-147-46-232-123-380-174 9 177-36 488 28 698l161 11z"/><path d="m15538 7966l-19 75c-51-59-77-98-197-65l-12 16c269 15 230 77 283 346 153 113 299 99 456-24l1-409-93-76-83 13-56 16c112 94 105 69 106 265 1 200-31 177-228 183l-13-370-145 30z"/><path d="m14651 7488c-13 152-27 781 21 932l107-35c3-147 1-300 1-448l-1-398c5-48 10-63 16-77-29 21-15 15-72 24-10 2-63 2-72 2z"/><path d="m15181 8417l24-24 25-91-161-11c-64-210-19-521-28-698-23-41-42-56-107-42-37 95-16 445-17 572-1 312 101 261 264 294z"/><path d="m16528 7996c-32-25 11-2-61-38-7-3-21 2-26-9-5-12-18-5-27-7 37 110 46 343 6 452l-99 3-13-493c-97-9-18 9-81-21 20 86 4 268 9 425 7 193 91 194 259 126l33-438z"/><path d="m14612 8470c45 87 131 187 248 208 131 23 227-47 248-167-3-48-13-31 37-46l6 6c-172 35-207-10-271-140-36 90-1 109-111 146-47 16-103 12-157-7z"/><path d="m15593 8338c25 79 14 91 67 144 131-50 294 52 404-102 81-114 84-314 49-478l60-8c-52-45-84-38-166-53-7-2-41-10-50-12l93 76-1 409c-157 123-303 137-456 24z"/><path d="m16414 7942l-106-38 13 493 99-3c40-109 31-342-6-452z"/><path d="m15780 8219c93-6 72 67 72-255l-86-40c-3 50-6 94-6 146l13 135c1 3 5 9 7 14z"/><path d="m15126 8222c103-8 32-21 87 9 2-61 2-133-2-191-6-81 17-87-72-87l-13 269z"/><path d="m15292 7815l13-10-111-42-3 99 88 16z"/><path d="m14121 9182c24-14 65-21 134-18-41 27-73 23-134 18zm201 1269l1-1269c-124-82-28 13-50-38-37-85-159-105-253-95-39 85 35 100-93 104 73-48 51 9 60-72 4-34-12-71-30-89-60-60-326-11-370 27-20 18-77 97-23 163 3-3 6-9 7-11l12-23c2-5 7-19 9-24 27-71 26-82 155-100 138-20 192-39 179 112l-24-72-287 34c-3 80 10 77-51 105-57-26-13 5-44-43l-23-45c-93 11-251 10-319 52 177 121 201 88 448 59 119-14 388-58 495-44-4 2-9 4-12 5l-747 114v1300l960-150z"/><path d="m13013 10475c17-83-11-558-15-685-15-476-55-491 202-515-61-39-106-98-209-96-106 3-185 20-201 107-19 101-2 479 0 605 12 684-57 521 207 702 108 74 120 42 251 26l-3-1302-190 45c-35 117-33 910-42 1113z"/><path d="m14577 10360l-61-37c-6-101 62-107 64-188 1-77 19-184 123-136 115 53-62 332-126 361zm84-736c75-30 94-20 114 46-50-16-33-16-100-17 36 26 43 19 54 72-56-34-20-26-92-39 28 193 55 209-26 226-19-30-23 6-7-93 8-50 7-80 7-131-76 26-40 18-85 80 0-1-31 6-8-53 10-26 22-27 36-37l-96 27c14-80 54-87 136-56 34-48-2-20 51-60l16 35zm-32-3l6 6c-1 0-4-8-6-6zm-23-359c26-26 5-21 26 1l52-37c-5 80 37 28 5 98l69-19c-18 24-54 43-49 67l6 12c14 23 1-14 24 26h-29c-17 7 7 20-49 8 8 41 5 24 21 72l-90-53-36 58c24-82-7-57-10-59-25-16-7-23-28-65-20-40-33 24-5-17 22-33 8 27 16-12 1-5 7-5 11-8-24-4-9 4-37-10-23-12-14-11-27-25 55 16 49 8 58 3l46-2 26-38zm54 9c-3 3 6 9 7 11l-7-11zm-394-244c-2-4-9 3-13 5 105 56 175 144 366 88-65 3-132 8-183 45v1267c332-28 355-37 359-236 3-197 1-395 4-592 2-101 3-203 5-304 4-129 20-163-83-210-193-88-189-109-354-86-12 1-50 6-59 9l-29 8c-3 1-10 9-13 6z"/><g font-family="&apos;Coaster Shadow&apos;"><text x="10500" y="14850" font-size="1200.69" transform="matrix(.91911 0 0 1 4009.11 5694.75)">Texto 01  </text><text x="13382" y="21615" font-size="892.65"> Texto 02</text><text x="13581" y="22724" font-size="815.19"> 00.00.0000</text></g></g><g fill="#373435" font-family="&apos;Arial Black&apos;" font-weight="900" font-size="529.17"><text x="15807" y="18764">NN 2</text><text x="15807" y="18302">NN 1</text></g></g></g><g clip-path="url(#1)"><g><g><g fill="#ff0a4b" stroke="#ff0a4b" stroke-width="7.62"><path d="m19207 29483l75-31776c521-602 564-600 718-706-27 10883-53 21766-79 32649 0 15 6 24-3 22-232-34-297-44-711-189z"/><path d="m17708 27766l64-26652c199-1073 591-2016 721-2159l-73 30005c-545-633-541-794-712-1194z"/><path d="m20657 29753l79-33233c5-1 584-309 717-304l-82 33568c-166-3-164 44-714-31z"/></g><g/></g><g fill="#201e1e" stroke="#201e1e" stroke-width="7.62"><path d="m7138 15728c2 1 8 2 11 3 18 5 21 17 89 1-54 72-37 17-174 62-3 0-8 2-10 3-332 111-179 77-437-46-59-28-10 4-59-38l-40-38c-117-98-170-102-212-137 101-24 174-6 241-31l89-67c30 72 130 87 195 116 38 18 17 7 38 21l104 71c4 2 9 5 13 7l141 71c3 0 8 2 11 2zm683-580c123-74 253-46 324-84 3-2 8-6 11-8 5-2 17-11 22-14l52-20c3-1 9-2 11-3 3-1 8-2 11-3 2-1 8-2 10-3l155-84c29-19 5-1 32-26l143-185-17-439c-6-28-5-27-20-58-23-50-1 2-21-37l-90-182c75 28 3-4 55 42 107 96 113 76 211 197 4 4 13 18 17 22l71 103c48 75 60 49 71 143 8 63 7 204-18 271l-33 64c-40 86-1 49-62 132l-86 128c-3 3-6 8-9 11-3 3-6 7-9 10-2 4-6 8-8 11l-94 120c-22 17-11 4-35 24l-20 18c-39 35-57 68-126 61l-548-211zm-516-1541l-169-103c-2-1-7-3-9-4l-44-19c-25-17-1 33-20-22l1-116c62 67 94 49 199 110 139 80 234 122 391 231 3 2 8 6 11 8l108 81c101 58 199 165 224 184l150 186c3 5 12 19 15 24l37 60c94 184 87 104 88 203-67-45-118-151-167-221-66-97-151-173-246-240l-58-40c-31-22-1-4-45-32l-156-87c-7-7-22-28-30-37-71-75-34 8-128-66-40-30-37-32-87-59-4-2-14-7-18-9l-17-11c-4-3-15-11-19-14-3-2-8-5-11-7zm-552-265c0-79 7-63-20-116l181 49c40 27 35 91 52 164-78-21 2 1-67-29l-146-68zm1748 1341c-120 115-138 173-194 194 11-97 12-36 26-71l33-388c-20-111-65-263-133-342-2-3-6-7-9-10l-32-46c-72-97-218-262-326-319l-237-144c-2-1-7-3-10-5l-125-77c-55-37 12-10-73-44-30-12-43-12-74-23-56-21-29-10-67-30l-86-50c-45-25-219-95-155-160 37-37 32 21 128 51 154 48 127 73 213 118 3 2 8 5 12 7 4 2 9 4 13 6l173 82c2 1 8 3 10 4l368 227c2 1 4 6 5 8 3 3 8 18 16 26l96 54c41 26 23 18 52 45 21 20 30 28 51 47 60 57 107 80 144 146 2 4 5 9 7 13l147 355c26 107 27 209 27 326zm-290 67c-1 3-2 8-2 11-4 29 4 34-5 71-28 110-242 193-353 214l-24 4c-3 0-8 2-11 3l-26 8c-83 28-139 10-211-28l-471-201c-4-2-8-4-12-7-4-2-9-4-13-6-220-116-379-71-623-60-44 2-46-2-88 10-220 61-223-9-340 27l-221 42c-3 1-8 2-11 2-113 12-156-42-155 115 4 2 11 4 14 6l671 356c5 2 17 7 22 9 145 66 136 14 173 68 47 66-16-57 14 27-146-4-282 1-433 53l-28 11c-4 1-9 3-14 5-5 1-10 3-15 5l-149 27c-239 64-203-42-404-127l-370-74c-398 66-656-44-810 35l-95 31c-65 10-160 31-208 73l38 20c5 3 20 11 26 13l55 23c2 0 44 10 47 11 133 30 166 95 255 136 53 24 103 34 123 88-174-40-442 21-642 19l-932 20c-377 0-306-39-447-39-89 0-322 14-401-9l-181-30c-170-7-330-47-486-97-143-46-288-41-386-81l-443-140c-140-37-165-27-222-87l-460-434c-99-243 49-346 90-407 21-32 18-32 42-54 57-56 105-110 140-190 82-189 78-83 110-232 1-3 2-8 3-12 12-50-1 23 12-39 52-253-33-404-250-515l-430-155c-4-2-9-4-14-5-148-48-317-41-473-79-57-14-75-21-90-76l181-72c45-19-15-3 56-21l528-94c75-18 197-21 281-30 106-12 255-18 363-47 64-18 116-2 178-19 143-37 336-47 492-47 118-1 173-22 311-20 141 2 206-31 351-25 265 10 305-14 424-14h838c382 0 786 60 1030 58 19 0 59-1 76 1 96 14 29 8 59 19 125 44 346 26 490 55 38 7 31 6 62 16 98 31 213 25 314 55l88 28c48 11 70 11 115 21l1221 391c124 40 100 10 100 172l98 1c2-5 3-11 4-14l11-52c1-2 1-9 2-11l2-21c36 9 32 7 59 18 55 23 14 6 52 27 178 101 26 222 200 227v-117c72 28-6-4 35 17l183 115c27 13 41 16 68 29l464 314c119 91 112 74 207 200l33 46c116 147 102 137 137 310l1 125zm-1328-1655c49 31 43 31 44 92l-213-78v-78c41 16 33 19 37 21l27 12c41 13 37 1 80 17 6 3 20 11 25 14zm-1102 2967c-66 0-106-6-164 12l-711 66c-20 7 20 2-42 15l-1279 62c-114-1-142 15-233 20-116 7-167-19-252-20-85 0 11 7-80 18l-1475-76c-118 0-43-12-123-32-134-32-269-20-401-65l-439-105c-31-10-46-10-77-20l-578-225c-4-2-16-9-21-11-38-18-29-12-55-23l-306-257c-66-60-134-171-158-253-30-103 4-57 3-102l-27-83c-5-185 121-357 251-464 4-3 18-12 22-16 72-62 56-94 171-179l90-85c42-44 107-229 33-293l-270-254c-3-2-8-5-12-7l-156-77c-23-11-16-7-42-17-26-10-24-7-56-22-106-48-250-76-329-108-65-26-12-26-114-50-98-23-209-14-282-68-25-18-67-87-69-117-6-67 31-111 73-152l21-18c78-71 182-137 286-161-29 82 8-4-35 43-53 57-19-27-42 58l32 139 168 121c2 1 7 3 9 4l251 68c5 1 10 3 15 5l128 28c4 1 9 4 13 5l72 13c60 16 201 19 276 48 4 2 9 4 14 6l86 31c71 27 58 22 115 59 50 32 70 39 109 85 77 90 84 358-3 474-2 2-124 227-205 302-2 3-7 7-10 9-3 3-7 7-10 9-40 32-62 40-86 89l-36 80c-50 109-51 240-3 343 22 48 44 53 79 95l58 79c0 0 20 22 27 30 59 72 105 135 190 181 47 25 74 43 111 63l196 77c42 8-8-5 32 6 46 12 25 7 43 15 5 2 9 5 13 7l628 187c4 2 9 4 14 6 5 1 9 3 14 5l243 50c38 11 43 15 65 20 87 19 236 13 307 36l291 38c89-1 378 59 600 60 428 1 681 36 1052 20l484-60c77-2 111 1 184-10l99-18c4-1 9-3 13-4l190-6c162-13-1-19 137-39 55-8 371-22 428-2l77 53c2 2 6 5 8 7l259 181c42 22 72 32 101 71zm-6781-3166c15-40-25-36 66-55 88-18 62 10 70 15-40 19-88 27-136 40zm175-59c64-85-27 7 128-45 53-19 148-47 202-13-14 9-10 9-38 19l-117 20c-75 9-81 18-175 19zm-155 214c1-199 274-113 540-198 5-1 10-3 15-5 5-1 9-3 15-4 5-1 10-2 16-4l520-81c158-53 432-6 584-57 3-1 9-4 12-5 76-25 121 20 216 1 117-24-37-15 103-35 47-7 96 1 149-6 196-25 455-18 665-35 86-7 327-3 417-32l26-10c38-13 1165-6 1235 18l41 17c141 40 470-5 669 32 79 15 7 2 57 16 24 6-16 1 33 7 34 5 44 1 73 2l1070 159c6 2 28 12 28 12l343 83c83 30 167 37 389 117l400 125c0 64 9 88 19 135l-91-64c-108-66-228-52-337-108-2-1-7-4-10-5-2-1-7-4-10-5-2-1-7-2-10-3l-644-189c-18-5-78-20-110-26l-542-99c-129-42-298-33-394-64l-123-21c-45-1-94 3-139 3-25 0-49 0-73-6-59-12-24-9-42-15l-116-21c-364-4-723-38-1089-38l-1362 46c-31 9-149 5-193 1-105-9-118 24-232 32-79 6-190-1-273-1-112-1-167 13-272 19l-97 20c-59 17-109-6-177 16-98 32-309 49-428 60l-131 23c-5 2-9 4-14 6-5 2-9 4-14 5l-476 82c-3 1-9 2-12 3-3 0-8 1-12 2-128 18-114 23-212 95zm671-320c58-7 75-11 143-9-43 26-30 13-107 26-53 9-62 11-124 11 7-47 35-22 88-28zm587-80c16 3 12 5 24 11-20 12-5 8-41 17l-309 41 326-69zm63-8c21-14 1-9 41-18 10-2 23-1 35-3l235-18c-20 49 1 28-57 40l-242 6c-2-5-8-5-12-7zm1865-175c214 0 1367-68 1587 6 124 41 228-19 375 33l939 110c27 4 58 7 84 13l507 96c2 0 68 12 81 16 74 20 8 1 57 20 141 55 107 11 231 61 4 2 9 5 13 6 106 43-93-30 28 11l270 80c48 17 100 18 142 33 130 48-16 44 116 59v58c-102-9-146-39-222-64l-339-111c-32-9-46-10-78-21l-83-34c-30-10-67-14-96-22-33-9-31-10-44-15l-569-109c-186-59-281-52-493-71-151-13-2-32-174-40-66-3-369-15-417-29-76-24 23-15-89-28l-913-20-2367 113c-44-5-19 0-43-15l44-15c5-1 11-2 16-4 4 0 44-6 51-7l753-61c142-15 89-47 298-21 164 21 163-28 335-28zm4714 148c2-4 4-9 6-12 1-3 3-9 4-11l8-21c28-66 30-42 64-87l22-38c2-4 4-9 7-13l48-62c114-137 72-101 134-201 3-4 6-8 8-12l81-113c172-244 287-105 298-73 32 88-11 60-23 75-22 29-2-4-26 28l-10 18c-91 160-212 300-242 357-85 162-118 180-211 313l-30 49c-84 124-124 82-91 218l-48-20c-3-1-8-1-11-2-144-30-91-47-194-56l206-337zm1091-202c11 70-2 142 4 210 12 151 33 1 40 173 6 139-9 289 39 394l98-24c-13-91 13 38-11-29-27-77-6-208-25-288l-24-188-33-318c-1-4-4-9-5-12l-8-206c-13-45-1-4-17-42l-98-135c-60-48-81-55-188-44-56 6-63 17-97 12-78-10-52-41-83-81l-97-46c-24-3-25-3-50 1l-78 23c-11 3-16 2-31 10l-494 744c-5 8-20 38-20 38-2 4-5 9-7 13-3 3-6 8-8 11l-113 140c-37 64-63 92-68 164-35-36-39-39-96-62l-111-26c-4-1-9-3-13-4l-214-78c-6-2-58-17-59-18-145-37-607-114-718-156l-74-24c-106-15-199-5-302-47l-40-19c-47-17-63-14-122-14-44 1-111 6-152-3-152-32-13-30-355-54l-1728-39c-235 0-1476 43-1560 71l-28 12c-46 15-2 7-64 14-299 32-470 29-743 92-192 45-410 28-592 88-5 2-9 4-14 5l-31 8c-4 1-63 10-68 10l-522 80c-113 28-210 79-308 139l-24 15c-22 14-29 19-47 31-63 47-98 103-144 167l-25 34c-93 140 45 220 152 277l71 30c15 5 10 5 42 13 90 23 184 27 266 66 4 2 9 5 13 7l351 134c96 52 360 146 424 296 26 59 34 93 11 155-51 136-217 236-311 332l-19 20c-18 19-18 16-38 39-3 3-7 8-9 11l-91 181c-14 39-19 51-41 98l-11 23c-1 2-2 8-3 10l-20 164c-3 97 78 347 121 404 3 4 12 13 15 16l179 181c56 37 36 55 126 107 67 39 141 48 218 74l276 132c95 46 174 77 306 103 31 6 84 16 124 31l851 179c85 8 169 16 262 29 353 51 765-17 1130 36l429 2c107-14 64 9 104 9 343 0 866-38 1223-59l1018-88c75-21-16-8 74-25 133-26 135-2 191 36 29 20-30 1 50 28 45 15 19 5 66 13 57 9 69 15 129 9l883-68c22 0 53-1 75-5l71-22c4-1 9-3 13-4l25-4c24-3-23 24 48-6-47-72-32-34-86-55l-202-87c-51-19-42 0-61-71 112 0 192-19 289-44l172-15c4 1 9 3 12 4l33 11c97 34 168 101 262 144l139 62c131 67 208-5 297-7-13-125-3-3-239-137-2-1-7-4-10-6l-326-156c-44-21-51-21-98-38l-368-177c-223-79-79-80-238-130l-162-69c-2-1-7-3-10-4-2-1-7-4-10-5-2-1-7-4-10-5l-263-139c-2-1-7-3-10-4l-198-100c-10-6-16-8-29-13-3-1-8-3-11-4l-97-41c-40-23-23-22-72-46-79-39-116-10-159-71 73-39 265 22 373-15 126-41 357-29 511-52 167-26 283 9 422 79 3 2 8 5 12 7l23 16c36 20 4 6 53 25l765 313c4 1 15 6 19 8l29 15c143 74 315 109 450 190l1024 432c5 1 10 4 14 6 4 1 9 4 13 6 57 22 113 19 176 18-3-121-6-63-70-88-9-3-25-11-39-15-173-53-173-83-258-104l-171-62c-3-1-9-3-11-4l-195-77c-2-1-7-4-10-5l-234-100c-2-1-6-5-8-6l-79-39c-5-2-20-9-25-11-4-2-9-5-12-6l-23-9c-41-14-10 9-70-17l344-395c27-43 3 6 24-54l8-31c42-111 73-98 72-259-1-203 27-206-62-348l-313-367c-3-2-7-6-10-9l-697-469c-4-2-9-5-12-7l-350-194c-73-61 1-14-85-51-5-1-10-3-14-5l-362-182c20-76 65-125 108-184 27-35 5-4 24-34l129-202c45-104 133-184 203-276l80-140c2-4 5-8 7-13 1-4 4-9 5-14 11-34 8-34 8-70 54 21 17-12 35 42l19 202c1 1 1 6 1 8l41 603c106-45 19 61 92-5 32-28 12-122 10-145l-19-85c-15-57 3 17-8-33-44-201-3-410-50-629-14-68 3-58 53-65 219-32 197 196 229 403z"/><path d="m5936 12584c-29-10-24-14-37-20-114-62-89-16-201-52-5-1-9-4-14-6l-136-19 78-194c114 10 175 7 273 40 48 17-59 20 54 14 123-8-47-19 100-35-8 79-36 67-92 200-28 67-12-45-25 72zm273-272l128-66c38-38 62-117 66-167l20 369-174-79c-62-42-21-32-40-57zm19-136c10-40 23-88 37-119 2-4 5-8 7-12 2-4 5-9 7-12 82-152 51-243 78-311 20-52 6 41 25-52l19-195c8-61 15-94 19-136 8-68-9-65 22-114 83 94 2 120-16 216-19 98 11 206-10 301-21 91-41 78-73 239-13 66-18 43-53 102-44 73 3 45-62 93zm-61-99c-80 97 0 90-114 99 19-69 33-59 88-124 85-99 49-114 69-245 13-83 31-24 30-104-2-272 51-229 56-389 2-65-15-45 49-90-2 161-13 159-47 284-19 70-32 425-93 529-2 3-6 8-8 11l-30 29zm-37-658c54-19 64-28 79-195 46 18 42-29 17 114l-42 176c-1 3 0 8 0 12-1 15 9 26 1 62-11 51-16 0-40 116-43 206-20 267-170 433l2-96 76-40c3-222 89-129 77-582zm-77-214c12-14 41-5 77-20-2 134-38 60-38 136 0 64 37-24 1 58-89 198-18 23-39 254-10 103-21 31-48 146-12 50-27 119-33 168l-56-43c69-65 54-105 58-175 3-61 80-241 78-524zm894-1360c30-20-45-28 52-12 40 7 52 30 98 75 174 117 658 627 465 960-41 56 14 15-52 65l-27-131c-86-371-119-557-394-827-3-3-8-7-10-10-3-3-7-7-10-9l-122-111zm-331 1068c35-300 259-867 117-1166 140 4 55 2 75 59l24 33c1 1 6 4 8 5l33 53c205 399 178 618 214 996 3 38 102 139-266 69-8-2-52-13-63-17-134-42-84-8-142-32zm-1009-582c72-48 49-54 93-101 137-134 710-562 967-512l-8 34c-101 63-147 190-240 264l-379 670c-1-2-4 9-6 14-84-8-26 0-92-40l-18-10c-38-28-19-30-58-73-16-18-35-28-54-44l-205-202zm-137-253c0 144 18 120 65 226 2 5 4 10 5 15 24 67-13 41 33 103l41 36c3 3 8 6 11 9l147 151c49 53 114 79 172 114 4 2 9 5 12 8 4 2 8 5 12 7l95 48c2 1 6 5 7 6 81 55 169 51 255 94 4 2 8 5 12 7l163 50v214c-57-27-112-16-176-38-56-19 60-7-57-21-122 0-163-19-292-19l-74 645c-11 136 31 152-120 152-151 0-216-39-369-39-2 76-41 147-10 223 5 12 49 65 60 76 73 74-23 39 86 51-2 84-22 149-49 184-43 56-62 85-68 165 86 41-92-26 30 5 81 21 0 27 126 34l427 79c3-5 6-16 7-14 0 3 5-10 6-13 25-70 58-236 123-246 92-12 33 4 74 42l28 31c3 3 7 7 10 10l90 65c27 20 0 2 34 27 31 21 24 29 63 33 111 8 15-276 64-428 54-163 46-395 46-576 2 4 5 6 5 13l21 390c-1 26-10 37-6 80 13 132 37-18 37 158 0 103 16 157 19 274 1 64 10 150 73 103 45-34 28-252 27-321-2-91-90-363-87-815 0-62 18-32-9-118-31-97 2-152-28-245-6-18-16-10-13-62 4-82 25-66 26-59l80 33c170 63 434 17 613 25 131 6 155-22 290-20 1-37-3-76 5-112 131-581-250-891-683-1191-17-7 9-4-44-15-27-5-46-3-73-5-73-5-144-15-226-26-222-33-715-4-869 119-25 19-33 29-63 53l-155 176c-31 39-29-32-29 49z"/><path d="m4237 6505l46-16c23-70 37-74 60-169l-70 160-38 35-89 125c-99-50-97-61-154-144l-45-67c-3-5-8-12-11-17-119-189-95-631 71-630 136 55-21 50 114 86l157 13c7 1 17 3 26 7 35-117 44-52 93-161 29 39 20-23 15 49-12 172 28-103-14 36-2 8-55-62-6 23 27 46-51-5 35 20l42-184c69 94 13 403-35 495 86-33 69-33 126-86l-57-28c11-162 0-361 93-464 185-205 164-243 244-318 82 331-183 559-279 781l213-311c134-234 87-329 167-408-32 249-33 201 37 220 1-2-1-12-1-9l-19-113c0-10 9-92 11-98 28-87-12-54 64-81 133 65 31 205-37 270 6-3 16-16 19-11 0 0 79-30 101-131 58-39-30-21 65-11 4 1 13 19 16 13 3-7 11 10 14 17l-8 51c-5 73 6-20-2-46-18-62 3-7-52-94l-61-113c-76 29-43-38-197 96l-52-93c-70-41-41 27-60 61l-249 342c-4 2-11 6-14 8-4 2-11 6-14 7-3 2-11 5-14 6-45 23-53 27-95 64-205 181-87 72-178 102-40 13 10 17-97 54l-18-45c-3-4-7-15-11-20-63-85-74-52-115-31l-95 84c-3 2-11 6-14 8l-58 24c-30 13-44 20-78 34l-139 97 37 51 54-68c47-34 30-18 73-28l-16 246c-97-76-114-171-236-156-104 12-72 25-137 64-89 52-49 12-134 37-5-6-10-25-11-21-2 5-9-15-11-20-2-4-7-15-9-20-12-33 16 0-16-72-52 140-251 226-404 274 44-112 53-63 15-164-40 82-35 182-122 213-177 64-130 200-322 187-15-124-8-177 37-271-9-2-25 5-64-28 4-101 9-177 85-230l-115-130c3-13 24-64 25-70 13-77 2 22-7-73l-30-211c-1 141-23 132-25 273-3 136 80 211 85 220-74 146-54 366-22 551 201 37 314-204 498-245 108-25 40 12 132-35l171-144c47 45 83 79 177 50 154-46-3-41 147-87 149 112 397 356 421 551 27 223-249 447-248 714 28-27 12-3 47-65 4-7 29-62 35-75l181-400c130-414-294-492-348-726 116 15 83 102 213 119 33-83 23-246 67-310 86 33 35 65 18 204-11 84-11 155 28 237 38 82 82 131 122 191 107 161 26 43 54 136 152 13 177-60 202-158zm58 986c9-78-17-39 38-79l-201 59c-11-194 31-373 103-526 58-123-41 79 19-36 50-99 138-267 232-303-84-91 10-13-57-24-108-19 57 74-34 3v18c-36 188-289 176-308 897-145-58-31-34-176-7 53-66 29-30 61-106-146 69-56 115-241 145-137 22-110 1-117-16-34-78 60-18-27-182-9 169-1 148-54 216 170 20 52 53 263 17l291-51c153-39 71-55 208-25zm681-1801c63 26 55 36 27-26 61 14 49 25 33-35-52-2-42-15-33 35-45-10-36-19-27 26l-32-10-243 430c-46 98-75 166-105 225l-105 200c-2 4-6 13-8 20 73-37 9 29 84-76 3-5 8-12 11-17l75-149c3-7 6-14 8-21l232-434c4-8 17-28 21-35l55-111c2-5 5-14 7-22z"/><path d="m3714 8144l7-14 27-6-17-16-10 22-219-25c50-157-6 40 51-51 0-1 1-4 2-5 3-7-84 1 52-64 166-79 207-37 251 1l-17-14c8-163 50-54-95-109 415-19 819-58 1256-24v87c6 47 19 38-24 38l-2 34c63-31 16-46 51 7 40 14 25-7 54 28 70 86 9 3 12 69-37 2-61 19-88-19l-30 29-36-38c50-35 18-16 42-53l-31-1-38 63-35 87c-322-50-878 12-1198 52-173 22-365 43-529 77-54 11-461 133-443 164l22 30c79-88 192-112 332-146 276-68 955-164 1214-133 103-64 411-36 540-37 83-2 76-15 90 11 61-62 48 0-14-78 62-11-3-59 75 19l41 2 52-11 11 14 50-45-1 11-39-72 7-31c-40 5-30 13-24-28l-18-127c525 31 1249 146 1462 504 171 289-84 560-215 657-102 75-411 152-562 183l-185 63c149-5 363-58 507-98 389-107 212-181 355-127l-16-30c20-131 93-62 170-279 218-613-678-790-1107-870-752-140-1946-36-2639 173-119 36-235 84-332 140-128 74-173 121-222 223-195 405 32 548 119 664-463 488 259 811 790 827-126-81-808-87-888-441-39-168 28-292 115-335 101-33 487 172 714 136-87-40-272-51-373-78-357-96-688-387-408-816 116-177 371-233 628-314 217-68 582-158 802-144-55 52-119 57-172 80-87 38-81 30-104 115 54 82 110 93 230 69z"/><path d="m2858 8971c-1-1 6-3 6 0l28 48c18 1 78 0 88 1 84 10 35 5 62 18-116 41-122 28-231 18l4 7c162 58 136 43 290-33l-32-86c-31-57-32-25-75-99l-7 13c14 34 20 36 26 65 6 31 1 21-7 38-137-2-47 39-86-56l-8-52c-24 174-8 68-58 118zm2298-793l-96 7-54-3-10 37c252-4 563 56 814 135 135 42 149 21 176 137-48 75-22 52-137 94-541 200-1655 108-2230 93-361-10-587-73-787-82l79 52c2-5 11 6 18 10l-25 38c5 7 13 8 15 20 2 11 12 15 14 20l36 66c0 0 0 4-2 4l-17-159c721 152 1881 142 2581 68 211-22 554-72 553-337-3 6-7 15-10 18l-76 87c-45-171-176-176-374-224-178-44-330-47-468-81zm-2332 782l21-9-78-17c96-170 135-143 94-201-45 154-108 106-138 172l101 55z"/><path d="m5571 9846l-20-95 22-35 21-5 62-179c-99 45-150 158-175 262-4 2-12 4-14 5l-96 50c-55-59-38-61-150-85l80 127c4-6 10-14 11-16l109 23 150-52zm108-102l50-97c-2-3 40-126-80 45-68 98 69 44-96 72l60 35c2 2 5 13 6 15 1 2 4 11 6 17 17-141-2-49 54-87zm62 50l24 20c208 24 557-61 713-211l27-29c80-91 114-178 89-315-27-145-68-240-203-265l16 30c104 53 92 44 127 160-4 6-10 14-13 17l-54 89c-131-23-114 1-165-89l-92 63c208 91 159-11 265 109l89-109-1 123c-40-29 23-109-249 82-57 41 12 47-122 42-96-4-99-7-167-50-1-109 63-92 185-197-150 27-218 79-235 230 85 33 198 43 305 57 5-5 11-13 14-16 3-4 10-12 14-16l93-78c53-28 87-31 145-45-6 89-34 131-166 219-96 63-278 109-388 135l-251 44c-46-70 16-43-75-45-63 104-1-14-19 81 8-3 19-13 23-6l71-30z"/><path d="m5907 7518c-59 4-108 16-153 16l-94-7c-574-31-565 51-573-118 97 60 234 42 392 41 141 0 84 13 210 32l218 36zm-976-24c-1-1-5-7-6-7l19 26c-5 5-12-16-13-19zm781-39c-12-10 48-15 12 9-44 29-11-9-12-9zm-1165 34c94 2 178-17 316 15 87 20 5 6 84 33 0 0 44 12 45 12l164 21c57 2 47-3 101-3h404c269 1 159-30 378-38l-40-45c-87-104-192-49-308-70-43-7-5 49-21-14l-43 2c27-15 65-26 91-54 4-5 9-12 13-17 4-5 8-16 11-21 3-5 7-11 9-24 3-13 6-17 9-26-179 77-331 205-755 100-17 23-51 3 27 92l-485 37z"/><path d="m2609 7722c0-3 4-8 6-6 2 1-6 6-6 6zm486-91c-246 3-83 57-289 41-96-8-103 11-191 44 28-33 5-11 44-47 77-69 65-50 105-49 4 0 12 2 16 2 3 0 12 2 15 3l188-17c217-82 151-123 241-118 4 0 12 1 16 2 69 14 117 81 121 73 3-5 12 8 18 11l-284 55zm174-216c11-23-22 47 0 0zm-708 326c41 46-12 21 55 19 3 0 40-17 54-20 36-9-62-11 46-6 76 3-14 8 38 10 25 1 95-14 124-22 96-25 73-18 110-63 80 96 296-22 538-65-90-109-51-39-114-81-89-59 93 90-32-50l-86-78 52-108c-184 71-39 107-237 210l-293 10c-63 76-193 119-202 122-87 33 6 15-36-3l-17 125z"/><path d="m5076 9681l-15 22c105 43 81 14 0 39l21 18c0 0 33 60-100 74-47 6-110-9-157-16 23-12-11-6 66-29l170-25-15-39-113-3c-40 52 32 30-92 44-1 0-117-16-126-17 74 90-63 0 92 84 37 20 27 15 76 25 116 21 87-12 200 36-664 53-1156-38-1420-20 108 70 632 94 816 101 211 9 622-14 799-66-84-64-81 1-217-31 29-118 32-28 147-158-139 15-71-24-86-41l13-6c61 19 32 18 19-63l-34-10 15 73-59 8z"/><path d="m4933 9722l113 3 15 39 21-4-21-18-15-17 15-22 15-22-66 28-9-258c5 6 11 15 14 19l27 39c71 110 18 69 78 91l34 10c13 81 42 82-19 63l-13 6 55-24c9-45 18-31-23-45-52-34-65-51-98-119-26-54-41-111-63-182l555-79c-343 1-699 59-1069 61-247 1-906-46-1090-15l-20 21c268 6 524 34 805 37 279 3 543-17 818-22-52 156-19 199-16 387l-155-24 78-98c36-47 35-31 48-108-44 43-45 57-99 114-4 4-10 10-14 14l-79 72c69 68 71 47 178 53z"/><path d="m5771 4656c90 74-64-73 71 23-34-37-15-36-30-70-83-148-319-235-497-210-59-117-303-313-328-324-51-23-135-12-194-13-75-215-98-258-426-309-137-21-217-9-349 10-84 13-235 8-336 13 9 5 22 1 28 13 50 103 757-139 988 158 2 2 2 5 2 9l-1 18c8 52-27-32 8 28 2 4 25 31 30 39l47 68c180-83 223 44 236 57 74 73 49 8 135 100 4 4 9 11 12 15l115 151c180-10 281 8 390 99l99 125z"/><path d="m2906 4775c-171 45 76-13-116-4-104 5-284 73-340 227-93 255-20-65-97 297l-42 218c159-147 8 10 85-211l148-406c46-39 180-92 247-84l98 41c32-61-9-42 72-64 26-140-36-84 68-181-39-39-24-20-51-86 155-67 139-137 144-143l49-22c5-2 17-3 26-5l-15-145c66-50 63-23 113-89 7-10-17-8 34-45l57-28c5-4 14-6 20-9l63-76c52-56 66-37 122-70 5-3 12-7 17-10l63-61c4-4 9-12 14-18-9 2-23-5-28 7l-189 98c-51 29-11-2-59 50-59 63 12 4-54 59-28 23-21 6-65 46-210 194-113 150-175 271l-41 62c-149 253-64-55-168 381z"/><path d="m4839 8494c-5 3-12 8-15 9-98 46-266 58-373 66-3-7-8-16-10-20-1-3-6-14-8-18-1-3-4-13-5-15l-5-25c-125 29-104 18-239-8l94-35c73-22 5 5 48-12-114-52-154 24-179 60 139 73 195 18 269 72l-726-1c15 10-9 47 178 51 180 3 820 4 948-64 58-31 49-41 80-91-39-44-12-36-76-47 26 34 34 35 19 78z"/><path d="m3165 9657c-33 133-10 72 16 128 72-79 22 28 45-86 29-139-30-66 88-158 5-4 16-5 20-17 4-12 14-12 21-19-54-1-341 28-307-119 21-92-5-12 32-52-94-21-152 5-258 10-424 20-133 272 10 328 102 40 247 52 337-3l-50-12c-210-29-97 44-223 3l-207-119c3-89-4-9 36-100-102 40-52 94-108-44l337-36c77 92 145 164 272 201l-61 95z"/><path d="m3065 10415c34-78-20-42 41-69l-69 6c-9-65-10-37-27-61-19 21-39 17-55 29-2-41 8-32-33-23l-2-38c5-4 12-11 15-13l100-57c122-35 68 2 141-90-231 8-114 55-277 86 7 67 0 41 23 65 52-84 5-52 95-90l-97 99c-19 5-33 17-36 8-2-8-6 28-15 25l-24-25 34-31-97 35c-32-38 66-49-46-24l28 14 18 10c22 41-24 12 36 51l91-2 13-23-4 19 37 4-14 70h-10l-18 22-118 20c-5-8-17 6-25 10l74 7c-43 139-23 56 5 94l41-90c1-7 6-8 6-11l30 106 49 29 3 16 56 24 47 3 61-29c47 11 39 25 39-19-40 12-30 19-26-23 43-72 12-19 58-52l-15-45-50 1 7 96-21 32 8 10-26-13-141-1c9-98 9-85-30-146 52-21 49 9 112 38-6-8-16-20-19-25-54-100-91 49-1-38l28 9z"/><path d="m5867 4663l-5 33c161 44 54 97 195 195 39 26 18-5 50 30 35 38 21 40 36 76 16 36 12 29 27 58l34 59c3 6 8 15 11 23-6 3-16 1-18 8l-52 20c233 309-18 600-18 601 22 127 6 87-18 187-8 33 3 186-2 254 98-128 11-274 86-465 35-90 61-92 78-199 27-168-40-202-33-317 2-44 65-93-88-289l-283-274z"/><path d="m4759 8990l-3 28c83-19 42-15 99-16-9 31-18 84-6 155-49-10-117-34-173-26-125 16-81 126-121 57-4-6-14 8-21 11-192-28-269-22-359-127 80-114 228-133 372-159l157 111-1-34c-141-44-67-60-113-119-210 56-390 47-436 202 97 155 399 174 453 154 6-2 12-8 18-11 7-3 11-10 18-14l36-27c69-28 167 10 254 19-122-153-33-121-8-262l-166 58z"/><path d="m4275 8214c253 5 458-15 721 5l10-37c57-43 25-24 54 3l96-7c88-79-54 149 43-75-151 38-54 19-79-14l-50 45c109 12 11 3 10 3 0 0-8-3-8-7-1-6-10-6-13-10l-52 11c-2 2 27 81-41-2-78-78-13-30-75-19 62 78 75 16 14 78-14-26-7-13-90-11-129 1-437-27-540 37zm637-131c-24 20-34 35-37 27-2-5-15 4-21 8 68-13 1-12 23 52l35-87zm27-9l36 38c0-50 12-38-36-38zm37-76l-26 22 31 1 24 62c27 38 51 21 88 19-3-66 58 17-12-69-29-35-14-14-54-28-35-53 12-38-51-7zm2-34c43 0 30 9 24-38l-24 38zm85 5c-6 41-16 33 24 28l-24-28zm56 131c49-30 50 38 39-35-40-19-43-17-78-37l39 72z"/><path d="m2978 10593l-3-16-49-29c-20 62-78 158-183 96-50-30-46-57-25-113l52-89c8-4 20-18 25-10l118-20-146-35c19-81-3-34 51-55-60-39-14-10-36-51l-18-10-33 87c2 9 16 38 17 45 1 6 4 16 5 22 7 41 0 39-8 61-88 50-113 77-239 45-20-111-30-78 48-133 11-47-54-56 53-26l-6-44c-91 23-100 41-201 22l-17-96-47 17c46 121 6 79 104 131l31 167 190-3c39 200 168 136 317 37zm-23-273l-37-4 4-19-13 23 9-4 13 74h10l14-70z"/><path d="m5404 5630c76-45 21-19 47 4l37 19c47-13 31-16 20 35l20 35c41-5 34-15 29 23 22 164 27 204 143 278l95 69c2 2 78 219 237 206 67-5 22 11 65-39 3-4 8-15 10-18 2-3 5-13 8-18-6 1-15-2-18 5l-107 48c-11-62 8-90-88-40-3-5-26-67-29-75l-18-39c-49-94-75-50-72-177-120 104-157-19-181-127l-41-132c-33-21-67 14-4-39l3-39-21 6c-4 7-12 17-16 18-3 2-13 8-16 9-36 13-28 14-33-23l-2-55-16-4-27 28c-74 80-28 42-43 0l-47-30-61 28c-22-60 1-13-28-70l-29-3c45 120-12-36 19 83 39 8 102 19 164 34z"/><path d="m3731 8108l17 16-27 6-7 14 30 31 4-51 196-5c20-32 47-62 59-83 67-120 5-86 4-89l-166 25 17 14 50 47c2-4 6 10 9 15-133 86 97-11-55 18-101 19-54-21-131 42z"/><path d="m3542 9832l-33-54c-50 9-16 29-28-11l25-94-35-31c-89 51-78 61-101 157l107 9c-7 111 8 28 32 69l33-45zm-189 2c-54-22-32-20-18 41l-35 27c56-1 57 17 35-27 44-3 31 6 18-41l50 12c-30-36 12-68-50-12zm219 23c46 8 31 17 43-28-57 0-52-18-43 28l17-35-64 48c2 1 62 81 47-13z"/><path d="m3213 10497c-46 33-15-20-58 52-4 42-14 35 26 23 103 25 111 29 259 12-62-193-1-81 21-117 4 7 10 17 13 21l36 50c44 54-16-8 26 23 8-5 16-13 21-16l96-33c-41-15 24-63-60 14-129-77-96-11-212-100l-54-43-23 24c64 44 51 7 79 145-131 12-136 32-170-55zm-97 81l26 13-8-10-18-3zm-82 39l47 3-47-3z"/><path d="m5476 8855l-29 21c-4 2-12 6-17 8l-127 51 110 54-47 176c107-18 84-29 140-93l26 3-4-30-49-17 2 7 25 37-29 3-48 21c20-129 5-111-43-150l97 3 11 3-2-10-10-34-6-53c5-4 12-13 13-16 0-3 3-14 3-17 5-51 55-39-26-39l10 72z"/><path d="m3235 10334c11-92-6-132-29-182-52 73-8-15-17 64-4 27 7 12-6 65-2 6-4 16-5 18-1 3-6 13-8 15-65 105 96-29-27 16l-37 16c-61 27-7-9-41 69l83 38 50-1 92-9-106-26 46-1c-43-21-11-33-96-14l85-59c2-9 11-6 16-9z"/><path d="m3902 7019l-39-7c-22 53-48 128-38 219l155 33c67-46 35-21 95-40-5-3-15-13-17-7l-93-32c89-31 110-22 114-121-55 81-89 105-220 141 4-102 18-137 43-186z"/><path d="m6452 7625c-37-60-33 10-1-105-185 26-119 6-186-10-67-16-113 2-165 39 34 35 10 4 66 10l286 66z"/><path d="m5203 5449c-39 11-33-1-77 27-90 58-10-1-68 77-42 56-67 66-114 127l32 10c-9-45-18-36 27-26-9-50-19-37 33-35 100-50 11 0 84-74 84-86 7-55 101-42l29 3c-26-164 9-134-101-207 55 87 34 32 52 94 8 26-3 119 2 46zm-87-70c106 11 46-20 95 19-3-7-11-24-14-17-3 6-12-12-16-13-95-10-7-28-65 11z"/><path d="m2454 10139c-87 15-112-11-172 26l55-22c202 19 174-12 248 121-37-33-21-44-122-51 50 32 89 55 131 71 2 7 10 8 12 16 35 129-53-72 43 30l20-30-40-29c8-246 48-179 101-198l68-28c-133-2-159 20-223 118-68-15-27-24-121-24z"/><path d="m4283 6489l-46 16c56 60 57-91 48 126l110-28v-18c-72 1-62 23-62-30 135-40-15 30 40-15 9-8 77-35 22-132-66 11-31-25-112 81zm-48 26l38-35-38 35z"/><path d="m5642 8991c-21 24-7 13-42 39-88 63 73-27-35 14l-12 32 21-8 5 48c83-4 64 19 64-62l-69 14c25-19 64-71 64 3l45-1-18-90c140-65 72-3 88-98l-137-12c-62 63-67-107-43 54 85-15 88-16 144 24-91 21-56 24-75 43z"/><path d="m3750 10452l-4 57c-7-6-20-15-24-14-61 17-2-11-52 29 146-20 16-7 64 23l24 29c43-20-20-5 43-9 5 0 49 5 59 6-49-86 12-29-68-76l71-34 54-80-167 69z"/><path d="m5729 9647l27-50c-85 33-35 4-103 71-6 6-31 31-36 35-2 1-10 8-11 5-2-3-8 2-12 3l-21 5c67 62 15 19-22 35l20 95 78 25c55-32 95-40 116-57l-24-20-71 30c-4-7-15 3-23 6 18-95-44 23 19-81l13-5c-56 38-37-54-54 87-2-6-5-15-6-17-1-2-4-13-6-15l-60-35c165-28 28 26 96-72 120-171 78-48 80-45z"/><path d="m2564 8436c64 112 127 135 272 171l-143-79c-227-120 8-230 46-268-106 29-153 38-175 176z"/><path d="m3471 9642l35 31 151-304c-64 77-160 125-186 273z"/><path d="m3300 9902l35-27c-14-61-36-63 18-41 62-56 20-24 50 12 14 16-11 20 37 45l85-21 64-48-17 35c-9-46-14-28 43-28l-73 3-33 45c-24-41-39 42-32-69l-107-9c-86 32-36 29-166 26l96 77z"/><path d="m2282 10165c5 11 16 41 19 48 30 56 32 44 35 48l47-17c-69-88-21-12-46-101l-55 22c60-37 85-11 172-26l-81-32c-17-3-84-9-117-15l26 73z"/><path d="m5212 8424l59 104-318 67c98 8 202 13 288-29 52-25 31-17 66-58l-95-84z"/><path d="m3863 7012l39 7c59 75 74 53 161 58l-133-128c-76 28-19-38-67 63z"/><path d="m2824 8960c-7 3-16 2-21 4-6 2-16 3-22 6l-104 78 138 15-4-7c26-50-54-40 81-37l-28-48c0-3-7-1-6 0l-13-20-21 9z"/><path d="m2669 10300l-20 30c-96-102-8 99-43-30-2-8-10-9-12-16l7 34 6 44c43 14 32 6 71 39 46 38 34 31 67 75 8-22 15-20 8-61-1-6-4-16-5-22-1-7-15-36-17-45l-88 21c79-58 78 3 26-69z"/><path d="m3750 10452c-95 13-73 21-134 10l-23 64c84-77 19-29 60-14l-96 33c-5 3-13 11-21 16 123-21 24-8 113-13 4 0 65 0 85-1-48-30 82-43-64-23 50-40-9-12 52-29 4-1 17 8 24 14l4-57z"/><path d="m5339 5558l47 30c15 42-31 80 43 0l27-28 16 4-16-4c-42-5-33-14-27 28h-43l18-117c-67 44-44 9-65 87zm112 76l37 19 20 35c-11 48-25 42 20 35l29 23c5-38 12-28-29-23l-20-35c11-51 27-48-20-35l-37-19c-26-23 29-49-47-4l47 4zm88-19l21-6-21 6-65 4c5 37-3 36 33 23 3-1 13-7 16-9 4-1 12-11 16-18zm18 33c-63 53-29 18 4 39l-4-39z"/><path d="m2879 10236l-34 31 24 25c9 3 13-33 15-25 3 9 17-3 36-8l97-99c-90 38-43 6-95 90-23-24-16 2-23-65-46-158-69-99-94-81 30 20 44-19 74 132z"/><path d="m4295 7491c9 2 66 9 74 9l54-19c-31-78 61-17-90-69-55 40-29 1-38 79z"/><path d="m3183 10281l-40 49c123-45-38 89 27-16 2-2 7-12 8-15 1-2 3-12 5-18zm47 135l74-9 23-24-92-49c-5 3-14 0-16 9l-85 59c85-19 53-7 96 14z"/><path d="m5481 8595c116-26 116-18 133-97 1-6-5-40-6-49l-38 56c-31 46 16-4-25 35-83 80-7-38-64 55z"/><path d="m3369 9297l20-21c-34-25 53-21-71-31-90-7-31 7-52 18l103 34z"/><path d="m5771 4656l9 38 82 2 5-33-55-54c15 34-4 33 30 70-135-96 19 51-71-23z"/><path d="m4756 9018l3-28h-56l1 34z"/><path d="m2511 7743c-56 14-70 28-92 34-15 4-45 2-92 5l184-39z"/><g font-family="&apos;Coaster Shadow&apos;"><text x="10500" y="14850" font-size="1200.69" transform="matrix(.91911 0 0 1-7869.44 5647.07)">Texto 01  </text><text x="1547" y="21567" font-size="892.65"> Texto 02</text><text x="1788" y="22676" font-size="815.19"> 00.00.0000</text></g></g><g fill="#373435" font-family="&apos;Arial Black&apos;" font-weight="900" font-size="529.17"><text x="3814" y="18752">NN 2</text><text x="3814" y="18290">NN 1</text></g></g></g></svg>