<svg xmlns="http://www.w3.org/2000/svg" width="744.09" height="1052.36" viewBox="0 0 21000 29700" shape-rendering="geometricPrecision" image-rendering="optimizeQuality" fill-rule="evenodd" clip-rule="evenodd"><defs><clipPath id="0"><path d="m14476 25242c1252 621 3633 501 4355-649 720-1146 563-4457 631-6052 172-3992 604-7020 716-10240 125-3576-2250-5997-5111-6605-3931-835-3722 4633-3225 7391 293 1520 798 2842 1167 4327 682 2740 76 6994 313 9845 121 985 500 1628 1154 1983"/></clipPath><clipPath id="1"><path d="m6620 25242c-1253 621-3633 501-4356-649-720-1146-563-4457-631-6052-171-3992-604-7020-716-10240-124-3576 2250-5997 5111-6605 3931-835 3723 4633 3226 7391-294 1520-798 2842-1168 4327-681 2740-75 6994-312 9845-122 985-500 1628-1154 1983"/></clipPath></defs><text x="10081" y="24465" fill="#201e1e" font-family="&apos;Arial Black&apos;" stroke="#201e1e" font-weight="900" stroke-width="7.62" font-size="705.56">38</text><g fill="none" stroke="#322f30" stroke-width="80"><circle cx="10533" cy="1326" r="460"/><path d="m10533 515v1621"/><path d="m9723 1326h1621"/><circle cx="10533" cy="25836" r="460"/><path d="m10533 25026v1621"/><path d="m9723 25836h1621"/></g><rect x="9843" y="22866" width="1347" height="637" rx="318" fill="#fff" stroke="#fff" stroke-width="20"/><g fill="#201e1e" font-family="&apos;Arial&apos;" font-size="423.33"><text x="300" y="28462">DESC 1</text><text x="281" y="28926">DESC 2</text><text x="278" y="29422">DESC 3</text></g><g clip-path="url(#0)"><g><g><g/><g/></g><g fill="#201e1e" stroke="#201e1e" stroke-width="7.62"><path d="m17051 15678c1-1 4 2 4 3 0 1 1 2 1 2 0-1-29 14-5-5zm1253-320c0-41 36 3 12 3 0 0-12 53-12-3zm571-260c8-15-19 35 0 0zm-1302-52c26-36 21 34 5 8 0 0-43 43-5-8zm151-53c14-38 15 40 6 18 0-1-34 59-6-18zm255-23l8 10c-1-1-10-7-8-10zm-208-336c18-10-9 5 0 0zm147-91c37-20-16 10 0 0zm-345 503c-152-34-334-314-791-185-250 70-477 278-476 604l186-92c42-28 23 12 87-8 79-25 58-52 80-101 15 30 40 92 150 27 76-46 39-66 22-162l87 118c123-5 131-3 169-91 38 77-25 30 70 49 0 0 104-1 114-1-211 121-289 98-409 317-105 190-102 435 36 576 65-72 97-185 122-230 1-2 4-7 5-10l57-66c41-64 31-35-17-101 109 17 84-24 181-150 90-116 211-212 368-270 25 355 35 702-10 1058-44 345-148 618-193 925h593c40-807-45-1282-196-2016 138 15 163 30 283 69l66 27c5 3 18 15 23 18 107 74 64 0 136 83 31 35 5 18 44 45 36 25 43 19 53 24 89 41-18-32 37 23l183 167c50-254-41-397-180-509-222-178-334-81-567-85 71-9 61-70 177-87 26-4 66-11 83-15l108-41c127-30 138 84 211-60l11 78c173 30 150 50 222-42-2 143 7 98 125 161 97 53 82 86 172 130 10-362-184-572-517-599-258-20-509 114-661 301l-81 75c10-123 47-208 106-273-19-35-35-51-60-85 101 29 65 55 150-48 59-72 152-94 240-162-203-32-366 33-465 134-120 122-133 258-134 480z"/><path d="m13108 15241c-97-146-453-814-563-873l-76 47c31 108-30-18 42 114 93 169 379 588 411 707l-279 19c14 117 177 235 258 318 230 236 661 669 973 736 10 369 114 1328-4 1622l-654 202 1468-1c-105-101-519-169-661-191-87-522-9-1077-2-1608 183-128 381-179 691-488 109-109 527-466 546-584-212-59-1834-35-2150-20z"/><path d="m15160 15667c6-127 145-297 228-348 90 51 82 73 131 184 77 173 70 242-102 257-11 1-101-4-114-6-101-18-90-24-143-87zm701-149c-57 84-66 110-180 121-82-65-174-247-166-383l331 4c126 47 100 132 15 258zm-237-602c215-334 327 107 326 149 0 9-2 18-2 26-1 7-6 18-7 24-2 6-9 28-11 24-1-5-7 16-12 23-29 25-277 66-401-47 19-81 65-134 107-199zm-746 132c-2-173 110-320 286-317 46 112 145 241 130 388-149 30-333 22-416-71zm540 9c-44-40-201-277-170-375 43-142 318-53 400-4 1 158-136 328-230 379zm-374 640c355 407 1273-126 911-821-287-551-1156-380-1170 267 84 12 497 27 541 79 34 57 25 12-33 101l-249 374z"/><path d="m15419 2037l-408-104c8-249 100-660-2-865l-131 2c-110 230 41 599-15 876l-366 61c-45-176-106-339-169-524-89-264-57-434-324-345-50 205 262 681 347 909l-40 38c-137 114-240 212-364 255-57-97-399-605-539-527-58 59-54-91-48 113 2 68 19 69 46 105l477 436c-78 99-86 98-128 230-492-172-1006-630-1201-458-230 256 167 337 373 409 250 88 474 174 715 240-18 110-32 277-92 372-184-1-832-138-833 79 0 217 497 82 871 78l40 346c-161 39-726 172-607 334 23 31-51 179 353-38 112-60 225-107 317-161l228 389c-118 64-178 121-278 205-31 27-90 71-120 116-117 181-3 171 2 175 106 100 311-202 490-414l268 194c-98 328-494 816-429 1137 301 128 302-78 393-355 77-233 149-444 221-683l417 83c-11 233-91 607 3 782l117 4c94-179 20-550-2-790l510-108c49 186 122 384 184 576 45 143 104 568 336 406 165-115-26-377-99-533-84-180-203-386-264-582 292-112 161-178 362-282 290 250 385 577 540 419 159-163-415-527-447-543l101-282c148 57 344 164 484 238 189 101 434 278 429-103-212-158-603-159-845-334l6-204c215 7 565 82 722-13-27-246-17-155-685-128l-68-281c320-118 875-275 1136-421l-11-258c-245-70-956 333-1172 472-80-90-138-213-190-316 77-55 821-597 450-639-137-15-22-27-99 26l-417 515-326-234c121-516 719-1117 400-1271-354-171-356 826-619 1176z"/><path d="m19330 11118c-6-1 0-22 1-15 2 7 13-9 19-14 3-4 403 302 493 544l-343 20-170-535zm-694 227c-72-61-134-130-217-198-71-59-187-136-246-196 51-138 186-312 245-459 109 40 290 158 370 244-8 120-101 516-152 609zm-1174-688c91-98 364-361 493-425l370 180c-21 97-206 421-266 481-86-42-189-88-290-129-93-38-229-59-307-107zm151-648c82-36 408-191 509-203 88-11 327 184 423 243 493 303 552 205 562 496 4 118 2 239 1 357-228-167-437-340-703-494l-792-399zm-787 43c-10-12-150-289-160-313 235 12 531 57 675 198l-515 115zm784 1893c87-158 175-317 269-478 83-142 170-326 255-460 230 130 397 279 533 476 264-14 500 7 674 144 290 228 64-26 607 78-67-439-469-1087-778-1355l-874-531c-155-105-284-141-504-183-450-88-813-61-1240 41 41 91 23 44 82 127 129 182 83 263 176 330 61 43 143 75 213 129 75 57 113 100 169 178 192 263 15 213 377 313 143 39 365 121 460 197-38 141-897 1551-1024 1859 154-14 146-43 211-166l394-699z"/><path d="m17917 4894c114 26 268 227 329 341 73 138 141 349 133 534-71-109-96-285-148-416-50-126-153-276-289-301-305 183-146 659-66 952-33-40-39-63-64-118-54-122-123-323-118-463 6-184 136-462 223-529zm-145-272c-136 51-171 58-236 181-231 438 206 985 448 1482 78 161 206 399 433 326 607-195 59-653-24-1035-62-286 39-440-120-698-75-122-269-342-501-256z"/><path d="m19184 5518c24-136 102-325 110-511 8-200-80-367-192-426-258 46-328 465-433 737-38-329 258-844 453-891 111 94 217 310 234 508 9 110-21 216-52 306l-120 277zm-465 644c219-36 290-238 377-416 165-337 477-782 486-1103 13-521-504-711-800-245-201 317-14 611-216 968-50 89-135 164-111 267 49 204 194 338 264 529z"/><path d="m14435 12310c520 42 1258 100 1759-2l2 190c-610 91-1132 90-1740 2l-21-190zm-75 29c-83-192 107-738 194-863 315-449 1241-448 1541 4 84 128 282 650 198 858l-49-117c-608-56-1229-46-1835-2l-49 120zm2034 91c16-839-253-1383-1067-1382-811 0-1096 538-1070 1384 214 48 51 30 218 147 4 2 14 15 17 10 2-5 12 6 20 10l157 1465c301 64 1054 118 1318-10 17-162 116-1431 170-1465 102-63 59-45 104-97 36-42-4-19 56-47 1-1 72-14 77-15z"/><path d="m16572 13606c34 72 45 79 102 130l123 109c-117-34-118-76-210-162-4-4-12-10-15-13-3-3-13-4-15-13-7-25-43 17 15-51zm-131-116c-231 237-640 524-247 791 189 127 421-153 587-344 81-93 23-39 37-71 1-1 3-7 4-8 1-2 4-8 5-10l-37-154c109-145 459-435 512-561-50-93-40-59-105-127-111 48-447 430-550 533-76-40-64-56-172-80l-34 31z"/><path d="m16392 7728l-36 485c-181 75-272 75-280-140-6-174 12-376-10-472l-58 13-65 8c38 182 35 405-53 531-118 172-295 58-437 114-9 263 321 949 738 1057 626 161 589-687 627-1157 137-75 238-154 369-238 217-138 889-622 1105-614 101 113 157 352 162 508l17-162c-19-122-107-388-205-414-87-22-945 533-1091 614-124 69-233 124-341 202-76-89-88-151-176-218-53-41-200-115-266-117z"/><path d="m14363 7163c9 0 66 0 78-2 61-10 45-3 77-27-6 16-11 33-17 86l1 441c0 165 2 335-2 498l-115 38c-52-167-36-865-22-1034zm-43 1091c59 20 119 24 170 7 119-41 81-63 119-163 71 146 108 195 294 156l33-60 25-26-25 26c-177-36-287 20-286-326 1-141-22-530 19-635-9-13-27-53-38-63 210-10 521-100 740-134 233-37 478-93 720-136 124-22 252-48 360-76 471-119 513 304 605 495 22 45 16 33 40 62 101-170-155-565-357-616-168-43-1460 200-1724 254-139 28-307 57-435 79-174 29-325-31-439 49-101 271 42 930 179 1107zm576-7c-54 17-43-2-40 52 52 0 33 11 40-52z"/><path d="m15583 7974c-3-5-6-12-7-15l-15-150c1-58 3-107 7-162l93 45c0 357 23 275-78 282zm-693-294c96-1 72 6 78 95 4 66 4 146 2 212-60-33 17-18-94-9l14-298zm98 387l87-344 12-18c6-91 35-150-31-179l-15 70-94-18 2-110 120 47c31-69-7-81 20-31l238 78-6 131 158-33 14 411c212-7 247 19 246-203-1-218 6-190-115-294l61-18c-57-48-377-45-490-83-159-52-251-137-411-193 9 196-38 541 30 774l174 13z"/><path d="m15321 7693l-20 84c-55-65-83-109-214-72l-12 18c291 16 248 85 306 383 166 126 324 111 493-26l1-455-100-84-90 15-61 18c121 104 114 76 115 294 1 222-34 196-246 203l-14-411-158 33z"/><path d="m14363 7163c-14 169-30 867 22 1034l115-38c4-163 2-333 2-498l-1-441c6-53 11-70 17-86-32 24-16 17-77 27-12 2-69 2-78 2z"/><path d="m14936 8194l25-26 27-101-174-13c-68-233-21-578-30-774-25-46-45-62-115-47-41 105-18 494-19 635-1 346 109 290 286 326z"/><path d="m16392 7728c-35-28 12-3-66-44-7-3-23 3-28-9-6-13-20-6-30-8 41 122 50 381 7 502l-107 3-14-547c-105-10-20 10-88-24 22 96 4 298 10 472 8 215 99 215 280 140l36-485z"/><path d="m14320 8254c49 95 142 207 268 230 142 26 246-52 268-185-3-54-14-35 40-52l7 7c-186 39-223-10-294-156-38 100 0 122-119 163-51 17-111 13-170-7z"/><path d="m15381 8106c27 88 15 101 72 161 142-56 319 58 437-114 88-126 91-349 53-531l65-8c-56-50-91-42-180-60-7-1-44-10-53-13l100 84-1 455c-169 137-327 152-493 26z"/><path d="m16268 7667l-114-42 14 547 107-3c43-121 34-380-7-502z"/><path d="m15583 7974c101-7 78 75 78-282l-93-45c-4 55-6 104-7 162l15 150c1 3 4 10 7 15z"/><path d="m14876 7978c111-9 34-24 94 9 2-66 2-146-2-212-6-89 18-96-78-95l-14 298z"/><path d="m15056 7526l13-11-120-47-2 110 94 18z"/><path d="m13789 9043c26-16 70-23 145-19-45 29-79 25-145 19zm218 1409l1-1408c-135-92-31 14-55-43-40-94-171-116-273-105-42 94 38 110-100 115 78-53 55 11 64-80 4-37-12-79-32-99-66-66-352-12-400 31-22 19-84 107-25 180 3-3 6-9 8-12l12-25c3-5 8-22 10-27 30-79 28-91 168-111 149-22 208-43 193 124l-26-80-310 38c-3 89 11 85-55 117-62-29-14 5-48-47l-25-51c-100 12-270 11-345 57 191 135 218 98 485 66 128-16 419-64 535-49-4 3-10 5-13 6l-808 126v1443l1039-166z"/><path d="m12591 10479c19-92-12-619-17-761-15-528-58-544 219-572-66-43-115-108-226-105-115 2-199 21-217 118-20 112-3 532 0 672 13 759-61 577 224 779 116 81 129 46 272 29l-4-1446-205 50c-39 130-36 1011-46 1236z"/><path d="m14282 10350l-66-40c-6-112 67-118 69-209 2-85 22-204 134-151 123 59-67 369-137 400zm92-816c80-33 101-22 123 51-55-18-36-18-109-18 39 28 47 21 59 79-60-38-22-28-100-43 30 214 59 232-28 251-20-34-25 6-7-103 8-56 7-90 7-146-82 29-44 21-91 89-1-1-34 6-10-59 11-29 24-30 39-41l-103 30c15-88 58-96 147-62 36-54-3-23 54-66l19 38zm-35-4l6 8c-1-1-4-10-6-8zm-25-398c27-29 5-23 27 1l57-41c-6 89 39 31 6 109l74-21c-20 27-58 48-53 74l7 14c15 25 1-15 25 29h-31c-18 8 8 22-53 8 9 46 5 27 23 81l-97-59-39 64c26-92-8-64-11-65-28-18-7-26-30-73-22-44-36 27-6-19 24-36 9 30 17-13 1-6 8-5 12-8-25-5-10 4-40-12-25-13-15-12-29-28 60 18 53 9 63 4l50-2 28-43zm58 10c-3 4 6 11 7 12l-7-12zm-426-271c-2-5-10 3-14 6 113 62 189 160 396 98-71 3-143 9-198 50v1406c358-31 384-41 388-262 3-219 1-438 5-657 2-112 2-225 5-337 4-144 22-181-90-234-209-98-204-120-383-96-13 2-54 8-64 11l-31 9c-3 1-11 10-14 6z"/><g font-family="&apos;Coaster Shadow&apos;"><text x="10500" y="14850" font-size="1200.69" transform="matrix(.99386 0 0 1.11001 2854.8 5172.58)">Texto 01  </text><text x="10500" y="14850" font-size="892.65" transform="matrix(1.08134 0 0 1.11001 1635.83 6360.2)"> Texto 02</text><text x="10500" y="14850" font-size="815.19" transform="matrix(1.08134 0 0 1.11001 1851.15 7591.75)"> 00.00.0000</text></g></g><g fill="#373435" font-family="&apos;Arial Black&apos;" font-weight="900" font-size="529.17"><text x="10500" y="14850" transform="matrix(1.08134 0 0 1.11001 4257.81 3195.63)">NN 2</text><text x="10500" y="14850" transform="matrix(1.08134 0 0 1.11001 4257.81 2682.64)">NN 1</text></g></g></g><g clip-path="url(#1)"><g><g><g fill="#ff0a4b" stroke="#ff0a4b" stroke-width="7.62"><path d="m20597 31577l82-35271c563-668 610-666 776-783-29 12080-57 24160-85 36240-1 17 6 26-4 25-250-38-321-49-769-211z"/><path d="m18977 29672l68-29584c216-1191 640-2238 780-2397l-78 33306c-589-703-586-881-770-1325z"/></g><g/></g><g fill="#201e1e" stroke="#201e1e" stroke-width="7.62"><path d="m7547 16310c3 1 9 2 12 3 20 5 23 19 96 1-58 80-39 19-188 68-3 1-8 3-11 4-359 124-193 85-472-51-64-31-11 4-64-42l-44-42c-126-109-183-113-229-153 110-26 188-6 261-34l96-74c32 79 141 96 211 129 41 20 18 8 41 23l113 79c4 2 9 5 13 7l153 79c3 1 9 2 12 3zm739-644c132-82 273-51 350-94 4-2 9-6 12-8 5-3 18-13 23-16l57-22c3-1 9-2 12-3 3-1 9-3 11-4 3 0 9-2 12-3l167-93c31-21 6-2 35-29l154-206-19-487c-5-31-4-30-20-64-26-55-1 2-24-41l-97-202c81 31 4-5 60 46 116 107 122 85 228 219 4 5 14 20 18 25l77 114c53 84 65 54 77 158 8 70 8 227-20 301l-36 71c-42 96 0 54-67 147l-92 142c-3 4-7 8-10 12-3 3-7 8-10 12-2 3-6 8-9 12l-101 132c-24 19-11 5-37 27l-23 20c-42 40-61 76-135 68l-593-234zm-558-1711l-183-114c-2-1-8-3-10-4l-48-22c-26-19-1 37-21-24l1-129c67 74 102 55 216 122 150 89 252 135 422 257 4 2 9 6 12 9l116 90c110 64 216 182 243 204l162 207c3 5 13 20 16 26l41 66c101 205 93 115 94 225-72-49-128-167-180-245-71-107-163-191-266-266l-63-44c-34-24-1-5-48-36l-169-96c-8-8-24-32-33-41-76-84-37 8-138-73-43-34-40-36-94-66-4-2-15-8-19-10l-19-12c-4-3-16-13-21-16-3-2-8-6-11-8zm-597-294c0-88 7-69-22-129l196 55c43 29 38 100 56 182-84-24 2 1-73-33l-157-75zm1890 1488c-130 128-149 192-210 216 12-108 13-40 28-79l36-430c-22-123-70-292-143-380-3-3-7-8-10-12l-35-50c-78-108-236-291-352-354l-257-160c-3-1-8-4-10-5l-136-86c-59-42 13-12-79-49-33-13-46-13-79-26-62-23-32-11-73-33l-93-55c-49-29-238-106-168-179 40-40 35 24 138 58 167 53 137 81 230 131 4 2 10 5 14 7 4 2 9 5 13 8l188 90c2 1 8 3 11 4l398 252c1 2 4 8 5 9 3 4 8 20 17 30l104 59c45 29 25 20 56 50 23 23 33 31 55 52 66 63 116 89 156 163 3 4 5 10 7 14l160 394c28 118 29 232 29 361zm-314 75c0 3-2 9-2 13-4 31 5 37-5 78-30 122-262 215-382 238l-25 4c-4 0-10 2-13 3l-27 10c-91 31-151 10-229-32l-509-223c-4-2-10-5-14-7-4-3-9-6-13-8-238-129-411-78-674-65-47 2-50-3-95 10-238 68-241-9-368 31l-238 46c-4 1-9 2-13 2-122 14-168-47-167 127 4 3 11 5 15 7l726 395c5 3 18 8 23 10 157 73 147 16 188 75 50 74-18-62 14 31-157-4-305 1-468 58l-30 13c-5 1-10 4-15 5-6 2-11 4-16 5l-162 31c-258 71-219-47-437-141l-400-83c-430 74-709-48-876 40l-102 34c-70 11-173 34-225 81l41 22c6 3 22 12 28 15l60 25c2 1 47 11 51 12 143 33 179 106 275 151 58 28 112 38 133 98-188-45-478 23-694 22l-1008 21c-407 1-331-43-483-43-96 0-349 15-434-10l-196-33c-184-8-357-53-525-108-155-51-312-45-417-89l-479-156c-152-41-179-30-241-97l-497-482c-108-269 53-383 97-451 23-35 20-36 45-61 63-61 115-121 152-210 89-210 85-92 119-258 1-3 3-9 3-12 14-57-1 24 13-44 56-281-36-449-270-572l-465-172c-5-2-10-4-15-6-160-53-343-45-512-87-62-16-81-23-97-85l196-80c48-20-17-3 61-23l570-105c81-19 214-22 304-33 114-13 276-20 392-52 70-20 126-2 193-20 155-42 363-53 532-53 127-1 187-24 337-22 152 2 223-34 379-28 286 12 329-15 458-15h906c414 0 850 66 1115 64 20 0 64-1 82 2 103 15 31 8 64 20 134 50 374 29 529 61 41 8 34 6 67 18 106 35 231 28 340 61l95 32c52 11 76 11 124 22l1321 435c134 44 107 10 108 191h105c3-4 4-12 5-15l12-58c1-2 1-10 2-12l2-23c39 10 35 8 64 20 59 25 15 6 56 30 193 112 28 247 217 252v-131c78 32-7-4 37 20l199 128c29 14 44 17 73 32l501 348c129 101 122 82 225 222l35 51c126 163 111 152 149 344v139zm-1435-1837c53 34 46 35 47 102l-231-87 1-86c44 17 35 21 40 23l29 13c44 15 40 1 86 20 6 2 22 11 28 15zm-1192 3293c-72 0-115-6-178 13l-768 74c-22 8 21 2-46 17l-1383 68c-123 0-153 17-252 23-126 8-180-22-273-22-91 0 13 8-86 19l-1594-84c-128 0-47-14-134-35-145-36-291-23-433-73l-476-116c-33-11-49-12-83-23l-624-249c-5-2-18-10-24-13-41-20-30-13-59-24l-331-287c-71-66-144-189-170-280-32-114 4-63 3-113l-30-92c-5-206 132-397 272-515 5-4 19-14 24-18 78-69 61-104 185-199l97-94c45-49 115-254 36-325l-292-282c-4-3-9-6-13-9l-169-85c-25-12-17-8-45-18-29-12-26-8-61-24-114-54-270-85-356-121-70-29-13-28-123-55-106-26-226-16-305-76-27-20-72-97-74-130-6-74 33-123 79-168l22-21c84-78 197-152 310-178-32 91 8-4-38 47-58 64-21-29-45 65l34 154 181 134c2 2 8 4 11 5l271 75c5 2 10 4 16 6l138 32c5 1 10 3 14 4l78 16c65 16 218 21 298 53 5 2 11 4 15 6l93 34c77 30 63 25 125 66 54 35 76 43 118 95 83 100 91 396-4 526-1 2-133 251-220 335-4 3-8 7-11 10-4 3-9 7-12 10-42 35-67 44-92 98l-40 90c-54 120-54 265-3 380 24 53 47 59 86 106l62 87c1 1 22 24 30 34 63 80 113 149 205 200 51 29 80 48 120 70l212 85c45 10-9-5 35 7 50 14 27 8 47 17 4 3 9 6 13 8l679 208c5 1 10 4 15 6 5 2 10 4 16 6l262 55c42 12 47 17 71 23 93 21 255 14 331 39l315 42c97 0 409 66 649 67 463 1 737 40 1137 22l524-67c83-1 120 2 199-10l107-21c4-1 10-3 14-4l205-6c175-15 0-21 148-43 60-9 402-25 463-3l84 59c2 2 6 6 8 7l280 202c45 24 78 35 110 78zm-7333-3514c16-45-27-40 71-61 96-20 68 11 76 16-43 22-94 30-147 45zm189-65c69-95-29 8 138-51 58-20 161-52 220-14-16 10-12 10-42 21l-126 23c-81 9-88 20-190 21zm-167 237c1-221 296-126 584-219 5-2 10-4 16-6 5-2 10-3 16-5 6-1 11-2 17-4l563-90c170-59 467-7 631-63 4-2 10-4 13-5 83-28 131 21 234 0 127-26-40-17 112-39 50-7 103 1 160-6 213-29 492-20 720-39 92-8 353-3 450-35l28-12c41-14 1260-6 1336 20l44 19c153 44 508-5 724 36 85 16 7 2 61 17 26 7-17 1 36 8 37 5 48 1 79 2l1157 177c6 2 30 13 30 13l372 93c89 32 180 40 419 129l433 139c0 71 10 97 20 150l-97-72c-117-73-248-57-365-119-2-1-8-4-11-6-2-1-8-4-10-5-3-1-8-3-11-4l-697-210c-20-5-84-22-119-28l-586-110c-139-47-322-37-426-71l-133-23c-49-1-102 3-151 3-26-1-52-1-78-6-64-15-26-10-46-18l-125-23c-393-5-782-41-1178-41l-1473 50c-33 10-161 6-208 2-114-11-128 26-251 35-86 6-205-1-295-2-121 0-181 15-295 22l-104 22c-64 19-118-6-192 18-106 35-334 54-462 66l-142 26c-5 2-10 5-15 7-5 1-10 4-15 5l-515 91c-4 1-10 3-13 3-3 1-9 2-13 2-138 20-124 26-229 106zm725-355c63-7 81-13 155-10-46 29-32 14-115 29-59 10-68 12-135 12 8-52 39-25 95-31zm635-88c18 3 13 4 26 11-21 14-5 9-44 19l-334 46 352-76zm68-10c23-15 2-10 44-19 12-3 26-2 38-4l254-20c-21 54 2 31-61 44l-262 7c-2-6-9-5-13-8zm2017-194c231 0 1478-76 1716 6 134 47 246-21 406 37l1015 122c29 4 62 8 91 15l548 106c2 0 73 13 88 18 79 22 8 1 61 23 153 61 116 12 249 67 5 2 10 5 15 7 115 47-101-33 30 12l292 89c52 19 109 20 153 37 142 52-17 49 126 65v64c-110-10-157-43-240-70l-367-124c-34-10-50-11-84-23l-89-38c-33-11-73-15-104-24-36-10-34-12-48-17l-616-121c-200-66-303-58-532-79-163-15-3-35-188-44-72-3-400-17-451-33-83-26 24-16-97-30l-987-22-2559 125c-47-6-21-1-46-17l47-17c5-1 11-2 17-4 4-1 47-7 55-8l814-67c154-18 97-53 323-24 177 23 176-31 362-31zm5098 164c1-4 4-10 6-13 1-4 3-10 4-13l9-23c30-73 32-46 68-97l24-41c3-4 5-10 8-15l52-68c123-153 78-113 146-224 2-4 6-9 8-13l87-126c187-270 311-116 323-81 34 98-12 67-25 84-24 32-3-5-28 30l-11 20c-98 179-229 333-261 397-92 180-129 200-229 348l-32 53c-91 139-135 92-99 243l-51-22c-3-1-10-2-13-3-155-32-98-52-210-61l224-375zm1179-224c12 78-2 158 4 233 14 168 36 2 44 192 7 155-10 321 42 438l105-27c-13-101 14 43-11-33-29-85-6-230-27-319l-26-209-36-352c-1-5-4-11-5-14l-9-228c-14-51-1-6-18-48l-106-149c-65-54-87-61-203-49-61 6-69 19-106 14-84-12-56-46-89-90l-104-52c-27-3-28-3-55 1l-85 26c-12 4-17 2-33 11l-535 826c-4 9-21 42-21 43-2 4-5 9-8 13-2 4-5 9-8 13l-122 155c-40 71-68 103-73 182-39-40-42-43-104-68l-120-29c-4-2-10-4-14-5l-232-86c-6-2-62-20-64-20-156-42-657-127-776-174l-80-26c-115-17-216-6-327-53l-43-21c-51-18-69-16-132-15-48 1-120 7-165-3-164-36-13-34-383-60l-1869-44c-253 0-1596 48-1687 79l-29 13c-51 17-3 9-70 16-323 36-508 32-803 103-208 49-444 31-641 97-5 2-10 4-15 6l-34 8c-4 1-67 11-73 12l-565 89c-122 30-226 87-333 154l-26 16c-23 16-31 21-50 35-68 52-106 113-156 185l-27 37c-101 157 49 245 165 308l76 34c16 5 12 5 46 14 97 25 198 30 288 73 4 2 9 5 13 7l380 149c104 59 389 163 459 329 27 65 36 104 11 172-55 151-234 262-336 369l-20 22c-20 21-21 18-42 44-3 3-7 8-10 11l-98 201c-15 44-21 57-44 109l-12 26c-1 2-3 8-3 11l-21 182c-4 108 83 385 130 448 4 5 13 14 16 18l194 201c60 41 39 60 136 119 72 43 153 53 236 81l298 147c103 51 188 86 331 114 33 7 91 18 134 35l920 198c92 10 183 18 283 33 382 57 828-19 1222 40l464 2c117-15 70 10 112 10 372 0 937-43 1323-65l1101-98c82-23-17-9 80-28 144-29 146-2 207 40 31 22-33 1 54 31 48 17 21 6 71 14 62 11 75 18 139 11l955-76c25 0 58-1 81-5l77-25c4-1 10-3 14-4l27-4c26-4-24 26 53-7-52-80-35-38-94-61l-218-97c-55-21-45 0-67-79 122 0 209-21 313-49l187-16c3 1 9 4 13 5l35 12c105 37 182 112 283 159l150 69c143 75 226-5 322-7-15-139-3-4-258-152-3-2-8-5-11-7l-353-174c-47-23-55-22-106-42l-397-196c-242-88-86-89-259-144l-175-77c-2-1-7-3-10-5-2-1-8-3-10-5-3-1-9-4-12-6l-284-154c-3-1-8-3-11-5l-214-110c-11-7-17-9-32-15-2-1-8-3-11-4l-105-46c-43-25-25-25-78-51-85-43-125-11-172-79 79-42 286 24 403-16 136-46 387-33 552-59 181-28 307 11 457 89 4 2 9 6 13 8l26 17c38 22 4 7 56 28l828 347c4 2 15 7 20 10l31 16c156 82 341 121 487 211l1108 479c5 2 10 5 14 7 5 2 10 5 15 6 61 25 122 21 190 21-3-134-7-70-75-98-11-4-27-12-43-17-186-59-188-92-279-115l-185-69c-3-1-9-3-12-4l-210-86c-3-1-9-4-12-5l-253-112c-2-1-6-5-8-6l-86-43c-5-2-21-11-27-13-3-2-9-5-13-6l-24-10c-45-16-12 9-76-19l372-439c29-48 3 7 26-60l9-33c45-124 78-109 77-288 0-226 30-229-66-386l-339-408c-3-3-8-7-11-10l-753-521c-4-2-10-5-14-7l-378-215c-79-68 1-17-92-57-5-2-11-4-16-6l-390-202c21-85 69-139 117-204 28-39 5-5 25-38l139-224c49-115 145-205 220-307l87-154c2-5 5-10 7-15 2-5 4-11 6-16 11-37 8-37 8-78 58 24 19-13 38 47l21 224c0 2 1 7 1 9l45 670c114-51 20 67 99-6 35-32 12-135 10-161l-20-95c-16-63 4 20-8-36-48-224-4-455-55-698-15-75 4-64 57-72 238-36 213 217 248 447z"/><path d="m6248 12820c-32-11-27-15-40-23-124-68-96-17-218-57-5-2-10-5-15-7l-147-21 84-215c123 11 189 7 295 44 52 19-64 23 59 15 133-8-51-21 108-38-9 87-39 74-99 222-31 74-14-50-27 80zm294-302l138-73c42-42 68-130 72-186l22 410-188-88c-67-47-23-35-44-63zm21-151c10-45 25-98 40-132 2-4 5-10 7-14 2-4 6-9 8-13 89-168 55-270 84-345 23-58 7 46 28-58l20-217c8-67 16-103 21-151 8-75-10-72 23-126 90 105 3 134-17 240-21 109 13 228-11 334-22 101-44 87-78 265-15 73-20 49-58 113-47 81 3 51-67 104zm-66-110c-86 108 0 100-123 110 20-77 35-66 95-138 92-109 53-126 75-271 13-93 33-28 32-117-2-301 55-254 61-431 2-72-16-50 52-100-2 178-13 176-50 315-21 78-35 472-101 587-2 4-6 9-9 13l-32 32zm-40-731c59-21 69-30 85-216 50 21 45-32 19 127l-46 195c0 3 0 9 0 13-1 17 10 30 2 69-12 57-18 0-44 129-46 229-21 296-183 481l1-107 82-45c4-246 97-142 84-646zm-83-237c13-16 44-5 83-22-2 149-41 66-41 151 0 70 40-26 1 64-96 220-20 26-43 282-10 114-22 34-51 162-13 55-29 133-36 186l-60-47c75-72 59-117 62-194 4-68 87-268 85-582zm967-1510c32-21-49-31 56-13 43 8 57 33 106 83 188 130 711 696 502 1066-44 62 15 17-55 72l-29-145c-94-412-130-619-427-918-3-4-8-8-11-11-3-3-8-8-11-11l-131-123zm-358 1186c38-333 280-962 126-1294 151 4 60 2 81 65l26 36c2 2 7 5 8 7l37 58c221 443 192 686 231 1106 4 42 110 153-288 76-8-2-56-14-67-18-146-47-92-10-154-36zm-1092-647c78-52 53-60 101-111 148-148 768-624 1046-569l-9 38c-109 70-159 211-260 293l-409 744c-1-3-4 10-7 15-90-8-28 1-99-43l-19-12c-42-31-21-34-63-81-18-20-38-32-59-49l-222-225zm-147-280c0 160 19 134 70 251 2 5 4 11 5 16 26 75-14 46 35 115l45 40c4 3 9 7 12 10l159 168c53 58 123 87 186 126 4 2 9 6 13 8 4 3 9 7 13 9l103 53c2 1 6 5 8 6 86 61 182 58 275 105 4 2 9 5 13 7l176 57v237c-61-30-121-18-190-43-61-21 65-8-62-22-132 0-177-21-315-22l-81 716c-11 151 34 169-129 169-163-1-234-44-399-44-2 85-44 163-11 248 5 13 53 72 65 85 79 82-25 43 92 56-1 93-23 165-52 204-46 62-67 95-74 184 93 45-99-29 32 5 89 23 1 30 137 38l462 87c3-5 6-18 7-15 1 3 5-11 6-15 28-77 64-262 134-272 99-14 35 3 80 47l30 34c3 3 8 7 11 10l97 73c30 22 0 2 37 29 33 24 26 33 67 37 121 10 17-306 71-475 57-180 49-438 49-640 2 5 5 7 6 15l22 433c-1 29-11 41-6 89 14 146 39-21 40 175 0 115 17 175 20 304 1 72 11 167 79 114 49-37 30-278 29-355-2-102-97-404-94-905 0-69 20-36-9-131-34-108 1-169-31-272-7-20-17-11-14-69 5-91 27-73 29-66l85 38c184 70 470 18 664 27 141 6 167-24 313-22 1-41-3-85 6-125 141-644-270-989-738-1322-19-8 9-5-48-16-30-6-50-4-79-6-79-5-156-16-245-29-240-36-773-4-940 132-27 22-35 32-68 60l-167 194c-34 44-31-35-31 55z"/><path d="m4410 6072l50-18c25-77 40-82 65-188l-76 178-41 39-96 139c-107-56-106-68-166-160l-49-75c-4-5-9-13-12-19-129-209-103-699 77-699 146 62-23 56 122 96l171 15c7 1 18 3 27 7 39-129 48-57 101-179 31 44 21-25 16 55-13 191 31-115-15 39-2 9-59-68-6 26 29 51-55-5 37 23l45-205c76 104 15 447-36 550 93-37 73-36 135-96l-61-31c12-180 0-401 101-515 200-227 176-269 263-353 89 367-198 620-301 867l230-345c145-259 94-365 180-453-34 277-35 223 40 245 2-4 0-14 0-11l-21-125c0-11 9-102 11-109 31-96-13-60 70-89 144 71 34 226-40 299 7-4 17-18 20-12 0 0 86-34 110-146 62-43-33-24 70-12 4 1 14 21 17 14 4-7 12 12 16 19l-10 57c-5 80 7-22-1-51-20-70 3-8-57-104l-65-126c-82 32-48-43-214 107l-56-104c-76-45-45 30-64 68l-270 379c-4 3-12 8-15 10-4 2-12 6-16 8-3 2-11 5-14 6-49 26-58 30-103 71-222 201-94 80-192 113-44 14 11 19-105 60l-20-49c-3-5-8-17-12-22-68-95-80-59-125-35l-102 93c-3 2-11 6-15 8l-63 27c-32 14-47 23-84 38l-150 108 40 56 58-76c50-37 32-19 79-31l-18 274c-104-84-122-190-254-174-113 15-78 29-149 71-96 59-52 14-144 42-6-7-11-28-13-23-2 5-10-17-12-23-2-4-7-16-9-22-13-36 17 0-18-80-56 155-271 251-436 304 47-124 57-69 16-182-44 91-39 202-132 237-192 71-141 221-348 207-16-137-9-196 40-301-10-2-28 6-69-30 4-112 9-197 91-256l-124-144c4-15 26-71 27-78 14-86 2 24-7-81l-33-234c-1 157-24 146-27 303-3 151 87 235 92 244-80 163-59 406-24 612 217 41 340-226 539-273 117-27 43 14 142-39l185-159c52 50 90 87 192 56 167-52-4-46 159-98 161 125 429 396 454 613 30 247-269 496-267 792 30-29 13-3 51-72 4-8 31-69 37-83l196-445c140-459-318-546-377-805 126 17 90 113 231 132 36-92 26-273 73-344 92 36 37 72 19 226-12 94-12 172 30 264 42 91 89 145 132 211 117 179 29 48 59 152 164 14 191-67 218-176zm63 1095c10-87-18-44 41-88l-217 65c-13-215 33-414 111-584 63-136-45 88 20-40 55-109 149-296 252-336-92-101 10-14-62-27-117-20 62 82-37 4v20c-39 208-313 195-333 996-157-65-33-39-191-8 58-74 32-34 66-118-158 77-60 127-260 161-149 25-119 2-127-18-36-87 65-20-29-202-10 187-1 165-58 240 184 22 56 59 284 19l315-56c165-44 76-62 225-28zm737-1999c67 28 58 39 28-29 66 15 54 27 36-40-56-2-45-16-36 40-48-12-38-21-28 29l-36-11-262 477c-50 108-82 184-114 249l-114 222c-2 5-6 15-8 22 79-41 10 32 91-84 4-5 8-13 11-18l82-167c3-7 6-15 9-23l250-482c5-8 19-30 23-38l59-123c2-6 6-16 9-24z"/><path d="m3845 7891l7-15 29-7-18-18-11 25-236-28c53-174-7 44 55-57 0 0 1-4 1-5 4-8-90 1 57-71 179-88 224-42 272 1l-19-16c8-180 54-59-103-121 449-21 886-64 1358-26v97c7 51 21 42-25 41l-2 38c67-35 17-51 54 7 44 16 28-7 59 32 76 95 9 3 13 77-40 2-66 21-96-22l-32 32-39-41c54-39 19-18 46-59l-34-1-41 70-37 96c-349-55-951 14-1296 58-187 24-395 48-572 85-59 13-499 148-480 183l24 32c86-97 208-123 359-162 299-75 1033-181 1313-148 112-70 445-39 584-41 90-1 82-16 98 13 66-68 52 0-16-86 68-13-3-66 81 20l45 3 56-12 12 15 54-50-1 12-42-80 7-34c-42 6-32 14-25-31l-21-141c569 35 1351 162 1581 560 186 320-90 621-231 728-111 84-445 169-608 204l-201 70c162-6 394-64 549-109 420-119 229-200 383-141l-16-33c21-145 100-69 183-310 235-680-733-876-1197-965-813-156-2104-41-2853 192-129 40-254 93-359 154-139 83-188 135-241 248-210 450 35 609 129 738-500 542 280 899 855 918-137-91-874-98-961-490-42-186 31-325 125-373 108-35 526 191 771 151-93-44-294-56-402-86-387-106-745-429-442-905 125-197 401-259 679-348 234-76 629-176 868-161-60 58-130 63-186 89-94 42-89 33-113 128 58 91 119 102 249 76z"/><path d="m2919 8810c-1-2 6-4 7-1l30 54c19 1 84-1 95 1 91 11 38 5 67 20-125 45-132 31-250 20l5 7c175 65 147 48 313-36l-35-95c-34-64-34-29-81-110l-8 14c16 38 23 40 29 71 6 36 1 24-8 44-148-3-51 42-93-62l-8-59c-26 194-9 76-63 132zm2485-881l-104 8-58-3-11 41c272-5 609 62 880 149 146 47 161 24 190 153-52 83-23 57-147 104-585 222-1790 120-2413 103-390-11-634-81-850-91l85 58c3-6 12 7 20 11l-28 42c6 8 14 9 17 22 2 13 12 17 16 22l37 74c1 0 1 4-1 4l-18-177c779 170 2034 158 2791 77 228-25 599-81 598-375-4 6-8 16-11 21l-83 95c-48-190-190-195-404-249-193-48-357-52-506-89zm-2522 868l23-10-85-19c105-188 147-158 103-223-50 171-118 118-150 191l109 61z"/><path d="m5853 9780l-22-105 24-39 22-6 67-198c-106 50-162 175-188 291-5 2-13 4-16 5l-104 56c-59-65-41-67-162-94l87 140c4-6 10-15 12-18l117 26 163-58zm116-112l55-109c-3-3 43-140-87 51-74 108 75 48-104 80l65 38c2 3 6 14 7 17 1 2 3 13 7 19 17-157-3-55 57-96zm67 55l26 22c225 27 603-67 771-234l29-32c87-102 124-198 97-350-29-161-73-267-219-294l16 33c113 58 100 48 138 178-4 6-11 15-14 19l-59 99c-141-26-123 1-178-99l-99 69c225 101 172-12 286 121l96-121v137c-44-32 24-121-270 92-61 44 13 51-132 46-104-5-107-8-181-55-1-122 68-103 201-220-163 31-236 89-255 256 92 36 215 47 331 63 5-6 11-14 14-18 3-4 11-13 15-17l101-87c58-31 94-35 156-50-6 99-36 145-178 243-104 70-302 121-421 150l-271 49c-50-78 17-48-81-50-68 115 0-16-20 90 8-4 21-15 25-7l76-33z"/><path d="m6216 7196c-63 5-117 19-166 18l-102-8c-620-34-611 57-619-131 105 68 253 47 424 46 152 0 91 14 227 35l236 40zm-1056-26c-1-1-5-8-6-8l20 28c-5 7-12-17-14-20zm845-44c-13-11 52-16 13 10-47 33-12-9-13-10zm-1260 39c101 1 193-20 342 16 94 22 5 6 90 37 1 0 49 13 50 13l176 23c63 3 52-3 110-3h437c291 1 172-34 409-42l-43-51c-95-114-208-54-333-77-47-8-6 55-23-16l-47 3c30-17 70-29 98-60 5-5 11-13 15-19 4-6 8-18 11-23 4-6 8-13 11-27 2-15 6-19 9-29-193 86-358 228-816 111-19 26-55 3 29 102l-525 42z"/><path d="m2650 7423c0-3 4-9 6-7 2 2-6 6-6 7zm525-101c-266 3-89 63-312 45-104-9-112 12-207 49 31-37 6-12 48-52 83-77 70-55 113-55 4 0 13 3 17 3 4 0 13 3 17 3l204-19c233-90 162-136 260-131 4 0 13 2 17 3 75 15 126 90 131 81 3-6 13 8 20 12l-308 61zm189-240c12-26-24 52 0 0zm-767 361c45 52-13 25 60 22 3 0 43-18 59-22 39-10-67-13 50-7 82 3-16 9 41 11 27 1 102-15 134-24 103-28 78-20 119-71 86 108 319-24 582-71-98-121-56-43-124-90-97-66 101 100-35-55l-93-87 56-120c-199 79-41 119-255 233l-318 11c-68 84-208 132-218 136-94 36 6 17-39-4l-19 138z"/><path d="m5317 9597l-16 25c113 48 88 15 0 43l22 20c0 1 37 66-107 83-51 5-119-11-170-19 25-13-12-6 72-31l183-29-16-43-122-4c-43 58 34 35-100 49 0 0-126-17-136-18 80 100-68 0 99 93 40 22 29 17 83 27 125 24 94-13 216 41-718 58-1250-42-1535-22 116 77 683 103 881 112 229 9 674-16 865-74-91-71-88 1-235-34 31-131 35-31 159-176-151 17-77-26-92-44l13-7c66 21 35 20 21-70l-37-12 16 82-64 8z"/><path d="m5163 9642l122 4 16 43 22-4-22-20-16-19 16-24 16-25-71 32-10-287c5 7 12 16 16 22l29 43c77 122 19 76 84 100l37 12c14 90 45 91-21 70l-13 7 59-27c9-50 20-35-25-50-56-39-70-57-106-133-28-59-44-123-69-202l601-87c-371 0-756 65-1157 67-266 2-979-51-1178-17l-21 24c290 7 566 38 870 41 302 3 587-19 885-24-57 173-21 220-18 429l-167-27 84-108c39-52 38-34 52-120-48 48-49 63-107 126-4 5-11 11-15 16l-86 80c74 76 77 52 193 58z"/><path d="m6069 4019c97 82-70-80 76 27-36-42-15-40-32-79-89-164-344-260-538-233-63-129-327-347-354-359-55-26-146-14-210-15-81-239-106-287-461-343-148-23-234-10-377 12-90 13-254 8-363 14 10 5 24 1 30 14 54 114 819-155 1069 175 1 3 1 6 1 10v20c8 59-29-36 8 32 2 4 27 35 33 43l50 76c195-92 242 48 256 62 80 82 53 9 146 112 4 4 9 12 13 16l125 168c194-11 303 8 421 110l107 138z"/><path d="m2971 4152c-185 50 82-15-125-5-113 6-308 81-368 252-101 283-22-72-105 329l-46 243c172-164 9 11 93-234l160-451c49-43 194-102 266-93l107 45c34-67-10-46 77-70 28-156-39-94 74-202-42-43-26-22-56-95 168-75 151-152 156-159l53-24c6-2 19-3 28-5l-16-161c72-56 68-27 123-100 7-10-19-9 36-50l62-31c6-4 15-6 21-10l69-84c56-62 71-41 132-78 5-3 13-8 18-11l68-67c4-5 10-14 15-21-10 3-25-5-30 8l-204 109c-56 33-12-3-64 55-64 70 13 5-59 66-30 26-23 6-70 51-227 216-122 167-189 301l-44 69c-161 280-70-61-182 423z"/><path d="m5061 8280c-5 3-13 8-16 10-106 51-288 64-404 73-3-7-8-18-10-22-1-3-7-16-8-20-2-3-5-14-6-17l-6-28c-135 33-112 21-258-8l102-39c79-25 5 5 51-14-123-57-166 27-193 67 150 81 210 20 290 80l-785-2c17 12-9 53 194 57 194 4 886 5 1024-70 63-35 54-46 87-101-42-50-13-40-83-53 28 38 37 39 21 87z"/><path d="m3251 9571c-36 147-11 79 17 141 78-86 24 32 49-95 31-154-33-73 95-175 6-4 18-6 22-19 4-14 15-14 22-21-58-1-368 31-331-133 23-101-6-12 34-57-102-23-164 5-279 11-458 22-144 303 11 365 110 44 267 57 364-4l-54-13c-227-32-105 48-241 3l-223-132c3-99-5-10 38-111-111 45-56 104-117-49l365-40c83 103 157 182 294 223l-66 106z"/><path d="m3143 10412c36-86-22-47 45-77l-75 7c-10-72-11-41-30-68-21 24-42 19-60 33-1-46 10-36-35-26l-2-42c6-5 13-12 16-15l109-62c131-39 72 2 152-101-250 9-124 62-299 96 7 75-1 45 24 72 56-93 5-58 103-100l-105 110c-20 5-36 19-38 9-3-9-8 30-17 28l-26-28 36-34-105 38c-34-42 72-54-49-26l30 16 19 10c25 46-26 14 40 57l98-3 14-25-4 21 39 5-15 77h-10l-19 25-129 22c-5-9-18 7-26 11l80 8c-47 154-26 62 5 105l44-101c1-7 7-9 7-12l32 118 54 32 2 18 61 26 51 4 66-32c51 12 42 27 42-21-43 13-32 20-28-26 47-80 13-21 63-58l-17-49h-53l7 107-22 35 8 12-28-14-152-2c10-108 9-95-33-162 57-23 53 10 121 42-7-9-17-22-20-28-59-111-99 54-1-41l30 9z"/><path d="m6172 4027l-5 37c174 49 59 108 211 216 42 30 20-5 55 34 37 42 21 44 39 84 16 40 12 32 29 64l36 66c3 6 8 17 12 26-7 3-17 1-20 9l-55 22c251 343-20 665-20 666 23 141 6 98-20 208-8 37 4 207-1 283 105-143 12-305 92-517 38-99 66-102 85-221 29-186-43-224-36-352 2-49 70-102-96-321l-306-304z"/><path d="m4974 8831l-2 30c89-20 45-16 106-18-10 35-19 94-6 173-53-12-127-38-188-30-135 19-86 141-130 64-4-7-15 8-23 12-207-30-290-25-388-141 87-127 246-147 402-176l171 123-2-38c-152-49-72-66-123-131-226 61-421 52-470 224 104 171 430 193 489 171 7-3 13-9 20-13 7-3 12-11 19-15l39-30c75-31 181 11 275 20-132-169-36-134-8-290l-181 65z"/><path d="m4451 7968c274 6 495-16 780 7l11-41c61-48 27-27 58 3l104-8c95-87-58 166 47-83-164 42-59 21-86-16l-54 50c118 14 11 4 11 3 0 0-9-3-9-7-1-7-11-6-14-11l-56 12c-2 2 29 90-45-3-84-86-13-33-81-20 68 86 82 18 16 86-16-29-8-14-98-13-139 2-472-29-584 41zm689-144c-26 21-37 38-40 30-2-6-16 4-22 9 72-15 1-14 25 57l37-96zm29-10l39 41c0-55 14-41-39-41zm41-85l-29 25 34 1 25 68c30 43 56 24 96 22-4-74 63 18-13-77-31-39-15-16-59-32-37-58 13-42-54-7zm2-38c46 1 32 10 25-41l-25 41zm92 6c-7 45-17 37 25 31l-25-31zm60 145c52-33 54 43 42-38-43-22-47-19-84-42l42 80z"/><path d="m3048 10610l-2-18-54-32c-21 69-84 175-197 106-54-33-50-62-28-125l57-99c8-4 21-20 26-11l129-22-159-39c21-89-2-38 56-61-66-43-15-11-40-57l-19-10-36 95c3 10 17 43 19 51 2 6 4 18 5 24 8 46 0 43-8 68-95 56-123 86-258 50-22-123-33-86 51-148 12-52-59-61 57-29l-6-49c-98 26-108 46-217 25l-19-106-50 18c50 135 6 88 112 145l33 186 206-3c42 221 181 150 342 41zm-25-303l-39-5 4-21-14 25 10-4 14 82h10l15-77z"/><path d="m5672 5101c83-50 23-21 51 4l40 21c50-14 33-18 21 39l22 39c44-6 36-17 31 26 24 182 29 225 155 308l103 77c2 2 85 242 256 229 72-6 23 11 70-45 4-4 9-15 11-19 3-4 6-14 9-20-7 1-17-3-20 6l-115 53c-12-69 9-100-96-44-2-6-28-75-31-84l-19-43c-54-104-81-55-78-196-130 115-170-21-196-142l-44-146c-36-23-72 16-5-44l3-42-22 6c-5 8-13 18-17 21-3 1-14 8-17 9-40 14-31 16-36-25l-2-62-18-4-29 31c-80 89-30 46-46 0l-52-33-65 31c-24-67 1-14-31-77l-30-4c48 133-13-40 20 92 42 9 110 21 177 38z"/><path d="m3863 7851l18 18-29 7-7 15 32 35 4-57 213-5c20-36 50-69 63-93 73-133 5-95 4-98l-179 27 19 16 54 52c2-5 6 11 10 16-144 97 104-11-60 21-110 21-59-24-142 46z"/><path d="m3658 9765l-36-60c-53 10-17 33-30-13l28-103-39-35c-95 56-83 68-108 175l116 9c-8 124 8 31 33 77l36-50zm-204 2c-58-24-35-22-19 45l-38 30c61 0 62 20 38-30 47-3 33 7 19-45l54 13c-32-39 13-75-54-13zm237 26c49 9 34 19 47-31-62 0-57-20-47 31l18-39-69 53c2 2 68 90 51-14z"/><path d="m3303 10503c-50 37-16-22-63 58-4 46-15 39 28 26 111 27 120 32 280 13-67-215-1-90 23-130 5 8 11 18 14 23l39 55c48 61-18-8 29 26 7-6 16-14 22-17l104-37c-45-17 26-70-65 15-139-85-104-12-230-111l-58-47-24 26c69 49 54 8 85 161-142 13-148 35-184-61zm-105 91l28 14-8-12-20-2zm-89 42l51 4-51-4z"/><path d="m5750 8680l-31 23c-4 3-13 7-18 9l-138 57 118 60-50 195c115-19 91-31 151-103l29 3-5-32-53-20 2 9 27 40-31 4-52 23c22-143 6-124-46-167l104 4 12 3-2-11-10-37-7-60c6-4 13-14 13-18 1-3 4-15 5-19 5-56 59-42-29-42l11 79z"/><path d="m3327 10322c11-101-7-146-32-201-56 81-8-18-19 70-3 30 8 14-6 73-1 7-3 17-5 20-2 2-7 14-9 16-70 116 104-32-29 18l-39 17c-67 30-9-9-45 77l90 42h53l100-10-115-30h51c-48-24-12-37-104-16l91-66c3-9 12-7 18-10z"/><path d="m4047 6642l-41-8c-24 59-53 142-42 244l168 37c73-51 38-24 103-45-6-4-16-14-19-8l-99-35c96-34 118-25 122-135-59 91-96 117-238 157 5-113 20-152 46-207z"/><path d="m6806 7316c-41-68-36 10-2-117-200 29-129 6-201-12-73-17-122 2-179 44 37 39 11 4 72 11l310 74z"/><path d="m5454 4900c-41 13-35-1-83 30-97 64-11-1-73 85-45 62-73 74-124 142l36 11c-10-50-20-41 28-29-9-56-20-42 36-40 108-55 12 1 91-82 90-95 7-61 110-46l30 4c-27-183 11-150-109-230 60 96 37 34 57 104 8 29-4 131 1 51zm-93-78c114 12 50-22 103 21-4-7-12-26-16-19-3 7-13-13-17-14-103-12-8-31-70 12z"/><path d="m2482 10106c-94 16-121-13-186 28l59-24c219 21 188-14 269 134-40-36-23-48-133-57 55 37 98 62 143 80 2 7 10 8 13 17 38 144-58-79 46 34l22-33-44-33c9-272 52-198 109-220l74-31c-144-2-172 22-241 132-73-18-29-27-131-27z"/><path d="m4460 6054l-50 18c61 67 62-101 52 139l119-30v-20c-77 1-67 26-67-33 146-45-16 32 43-18 10-8 83-38 24-146-71 13-33-28-121 90zm-52 29l41-39-41 39z"/><path d="m5929 8832c-23 26-7 14-46 42-95 71 80-29-37 16l-13 35 23-8 5 53c90-4 69 21 69-69l-74 16c27-22 70-79 70 3h47l-18-100c150-73 78-5 95-110l-149-13c-67 70-72-119-46 61 92-18 95-19 155 26-98 23-61 27-81 48z"/><path d="m3884 10453l-5 63c-8-6-21-17-26-15-65 19-2-12-56 32 158-22 17-8 69 26l26 32c47-23-21-6 46-10 6 0 54 6 64 7-53-96 14-33-73-85l77-37 58-90-180 77z"/><path d="m6024 9559l29-55c-92 36-38 5-112 79-6 7-34 35-39 39-1 1-11 9-12 5-1-3-8 2-13 3l-22 6c72 69 16 21-24 39l22 105 84 28c60-35 103-44 125-63l-26-22-76 33c-4-8-17 3-25 7 20-106-48 25 20-90l14-5c-60 41-40-61-57 96-4-6-6-17-7-19-1-3-5-14-7-17l-65-38c179-32 30 28 104-80 130-191 84-54 87-51z"/><path d="m2601 8215c69 124 138 150 294 190l-155-87c-245-133 9-256 50-298-115 32-165 42-189 195z"/><path d="m3581 9554l39 35 163-338c-69 86-173 139-202 303z"/><path d="m3397 9842l38-30c-16-67-39-69 19-45 67-62 22-26 54 13 15 18-12 23 40 51l92-24 69-53-18 39c-10-51-15-31 47-31l-80 3-36 50c-25-46-41 47-33-77l-116-9c-93 35-39 32-180 28l104 85z"/><path d="m2296 10134c6 13 17 46 21 54 32 62 34 48 38 53l50-18c-74-98-22-14-50-113l-59 24c65-41 92-12 186-28l-87-35c-19-4-91-11-127-17l28 80z"/><path d="m5464 8202l64 115-344 75c106 9 218 14 312-32 56-28 33-20 72-64l-104-94z"/><path d="m4006 6634l41 8c65 84 81 60 175 65l-144-142c-82 30-20-43-72 69z"/><path d="m2882 8797c-7 3-17 2-23 5-6 2-17 3-24 6l-112 87 150 16-5-7c28-56-58-45 88-41l-30-54c-1-3-8-1-7 1l-14-23-23 10z"/><path d="m2715 10285l-22 33c-104-113-8 110-46-34-3-9-11-10-13-17l7 37 6 49c47 15 35 7 77 43 50 43 37 35 73 84 8-25 16-22 8-68-1-6-3-18-5-24-2-8-16-41-19-51l-94 24c85-64 84 3 28-76z"/><path d="m3884 10453c-104 14-80 23-145 12l-25 70c91-85 20-32 65-15l-104 37c-6 3-15 11-22 17 133-23 25-8 122-14 3 0 70 0 91-1-52-34 89-48-69-26 54-44-9-13 56-32 5-2 18 9 26 15l5-63z"/><path d="m5601 5021l52 33c16 46-34 89 46 0l29-31 18 4-18-4c-45-5-35-15-29 31h-46l19-130c-72 49-47 11-71 97zm122 84l40 21 21 39c-12 53-26 47 22 39l31 26c5-43 13-32-31-26l-22-39c12-57 29-53-21-39l-40-21c-28-25 32-54-51-4l51 4zm95-21l22-6-22 6-70 5c5 41-4 39 36 25 3-1 14-8 17-9 4-3 12-13 17-21zm19 36c-67 60-31 21 5 44l-5-44z"/><path d="m2941 10214l-36 34 26 28c9 2 14-37 17-28 2 10 18-4 38-9l105-110c-98 42-47 7-103 100-25-27-17 3-24-72-51-175-76-110-102-90 32 22 47-21 79 147z"/><path d="m4473 7167c10 1 72 10 80 10l58-21c-33-87 66-20-97-77-59 44-31 1-41 88z"/><path d="m3270 10264l-43 54c133-50-41 98 29-18 2-2 7-14 9-16 2-3 4-13 5-20zm52 150l80-11 24-26-99-55c-6 3-15 1-18 10l-91 66c92-21 56-8 104 16z"/><path d="m5756 8392c124-29 125-20 143-108 1-7-5-44-6-54l-42 62c-33 51 18-4-26 39-90 89-8-42-69 61z"/><path d="m3472 9171l21-24c-36-27 57-22-76-33-98-8-35 7-57 19l112 38z"/><path d="m6069 4019l10 43 88 2 5-37-59-60c17 39-4 37 32 79-146-107 21 55-76-27z"/><path d="m4972 8861l2-30-60-1 2 38z"/><path d="m2544 7447c-61 15-76 31-99 37-17 4-50 2-100 5l199-42z"/><g font-family="&apos;Coaster Shadow&apos;"><text x="10500" y="14850" font-size="1200.69" transform="matrix(.99386 0 0 1.11001-8681.05 5119.66)">Texto 01  </text><text x="10500" y="14850" font-size="892.65" transform="matrix(1.08134 0 0 1.11001-9852.97 6307.28)"> Texto 02</text><text x="10500" y="14850" font-size="815.19" transform="matrix(1.08134 0 0 1.11001-9591.85 7538.83)"> 00.00.0000</text></g></g><g fill="#373435" font-family="&apos;Arial Black&apos;" font-weight="900" font-size="529.17"><text x="10500" y="14850" transform="matrix(1.08134 0 0 1.11001-7401.67 3182.33)">NN 2</text><text x="10500" y="14850" transform="matrix(1.08134 0 0 1.11001-7401.67 2669.34)">NN 1</text></g></g></g></svg>