<svg xmlns="http://www.w3.org/2000/svg" width="744.09" height="1052.36" viewBox="0 0 21000 29700" shape-rendering="geometricPrecision" image-rendering="optimizeQuality" fill-rule="evenodd" clip-rule="evenodd" xmlns:xlink="http://www.w3.org/1999/xlink"><defs><path id="2" d="m0 0h1693v282h-1693z" stroke-width="100" fill="#201e1e" stroke="#201e1e"/><clipPath id="0"><path d="m5605 17264c483-227 645-686 699-1163 51-448 56-907 51-1357-6-502-28-1004-44-1506-17-545-29-1092-5-1637 22-488 72-993 202-1467 244-889 640-1732 835-2634 59-276 106-555 140-835 38-311 61-625 65-938 9-770-101-1895-784-2422-431-333-984-342-1506-232-774 164-1509 502-2098 1005-415 355-746 783-967 1268-244 534-342 1106-319 1686 11 297 28 594 48 890 57 840 143 1679 222 2518 89 944 167 1887 212 2834 12 257 13 515 16 772 3 305 7 611 19 916 15 373 39 755 103 1125 44 256 120 587 272 807 145 209 389 347 631 434 292 106 621 154 933 162 414 11 902-49 1275-224z"/></clipPath><clipPath id="1"><path d="m15492 17299c-483-227-645-686-699-1163-51-448-56-907-51-1357 6-502 28-1004 44-1506 17-545 29-1092 5-1637-22-488-72-993-202-1467-244-889-640-1732-835-2634-59-276-106-555-140-835-38-311-61-625-65-938-9-770 101-1895 784-2422 431-333 984-342 1506-232 774 164 1509 502 2098 1005 415 355 746 783 967 1268 244 534 342 1106 319 1686-11 297-28 594-48 890-57 840-143 1679-222 2518-89 944-167 1887-212 2834-12 257-13 515-16 772-3 305-7 611-19 916-15 373-39 755-103 1125-44 256-120 587-272 807-145 209-389 347-631 434-292 106-621 154-933 162-414 11-902-49-1275-224z"/></clipPath></defs><text x="10046" y="19022" fill="#201e1e" font-family="&apos;Arial Black&apos;" stroke="#201e1e" font-weight="900" stroke-width="7.62" font-size="705.56">24</text><g fill="none" stroke-width="80"><g stroke="#322f30"><circle cx="10533" cy="1326" r="460"/><path d="m10533 515v1621"/><path d="m9723 1326h1621"/></g><g stroke="#373435"><circle cx="10498" cy="20686" r="460"/><path d="m10498 19875v1621"/><path d="m9688 20686h1620"/></g></g><g fill="#fff"><rect x="9843" y="17476" width="1347" height="637" rx="318" stroke="#fff" stroke-width="20"/><path d="m5605 17264c483-227 645-686 699-1163 51-448 56-907 51-1357-6-502-28-1004-44-1506-17-545-29-1092-5-1637 22-488 72-993 202-1467 244-889 640-1732 835-2634 59-276 106-555 140-835 38-311 61-625 65-938 9-770-101-1895-784-2422-431-333-984-342-1506-232-774 164-1509 502-2098 1005-415 355-746 783-967 1268-244 534-342 1106-319 1686 11 297 28 594 48 890 57 840 143 1679 222 2518 89 944 167 1887 212 2834 12 257 13 515 16 772 3 305 7 611 19 916 15 373 39 755 103 1125 44 256 120 587 272 807 145 209 389 347 631 434 292 106 621 154 933 162 414 11 902-49 1275-224z"/></g><g clip-path="url(#0)"><g fill="#201e1e" stroke="#201e1e" stroke-width="7.62"><path d="m2943 5853c224-102 268 174 181 241l-181-241zm144 268c-5 15-28 21-51 28-306 93-416-195-326-391 8-17 31-68 35-82l80 103c-140 124-22 413 168 334-36-20-97-32-122-97-20-52-1-104 36-135l144 184c14 18 46 52 38 55zm-425-663c-31-20-127-170-136-211-15-64 9-162 52-195 77 42 121 92 136 200 11 82-13 153-51 206zm464 713c28 18 195 227 83 336-32 31-90 38-120 22 103-84 10-214-97-177-102 35-42 203 67 225 89 18 218-16 235-137 16-111-66-204-128-292 38-56 62-81 76-144 30-135-93-379-380-260-21-36-51-76-76-110-26-36-16-26 12-99 59-154 42-318-85-447-45-46-142-118-188-125-48 55-80 97-87 179-10 114 63 240 142 330 54 62 48 51 32 92-88 217-164 417 65 596 58 46 122 75 193 79 93 5 162-27 255-67z"/><path d="m4493 15463l26 54-839 567-25-53 838-568zm-947 445l455 933c-317 49-260 448-24 281 77-55 131-153 89-245l-287-587c-21-40-36-46-6-69 79-60 189-126 274-185 110-75 455-316 545-368l281 578c-99 16-140 41-190 118-24 38-67 140 10 189 106 67 315-128 247-268-155-319-326-682-485-993-45 17-591 397-682 458-59 40-183 115-228 158z"/><path d="m6016 6475c-4-78 87-167 152-215 40-30 86-59 127-88 54-38 68-53 102-95 10 53-46 165-82 213-67 91-188 143-300 185zm69-780c20 59-15 206-31 250-12 32-16 82-21 121l-52 374c-12 82-28 168-36 247l34 6c21-26 20-66 88-116 139-103 262-144 325-325 52-148 22-176 29-208 2-10 18-27 30-65 32-99 35-194-15-299l-24 9c41 86 39 223-18 307-63 93-214 147-339 194 0-50 41-345 49-388 20-105 105-305-89-336-142-23-364 92-324 227 37 125 200 101 296 68 60-20 62-33 98-67z"/><path d="m3806 4256c51 4 128 44 179 77 66 43 113 94 126 183-57-40-103-72-160-107-63-39-110-66-146-153zm-37-185c47 5 140 45 186 80 70 52 105 99 123 194-85-77-19-42-162-124-59-34-120-66-147-150zm122 776c-59-6-91-17-169 37-43 30-97 83-110 118-21 55 19 117 73 130 52 12 131-19 178-57 46-37 73-86 75-131 2-38-52-277-63-336-7-35-32-138-31-166 14 4 48 18 65 26 141 63 250 75 259 253 3 65-19 127-18 136 55-14 64-262-18-312 13-26 9-68-1-98-20-60-32-42-27-105 5-69-31-151-84-202-148-146-270-140-289-269-6 0-19 4-32 7 33 97 133 605 153 729 12 75 22 167 40 240z"/><path d="m5734 4646l33-1c-1-199 59-645 86-863 5-38 14-89 14-123 24 4 135 76 285-9 46-26 82-60 99-97 80-175-104-219-272-148-123 52-129 122-141 215-14 117-23 127-27 255-4 118-36 384-50 511-5 41-31 236-27 260z"/><path d="m2676 17501l33-1c-1-199 59-645 86-863 5-38 14-89 14-123 24 4 135 76 285-9 46-26 82-60 99-97 80-175-104-219-272-148-123 52-129 122-141 215-14 117-23 127-27 255-4 118-36 384-50 511-5 41-31 236-27 260z"/><path d="m4442 4132l25-1c10-28-18-105 30-188 38-65 62-83 105-167 27-52 46-122 4-202-38-72-43-110-93-169-16-19-20-35-43-25 30 60 129 135 120 278-5 89-52 160-173 211l-100-480c56 24 135 12 190-48 24-26 35-48 54-74 57-77-37-197-191-99-67 43-102 86-98 155 2 39 156 733 170 810z"/><path d="m4184 5839c-34-68-61-88-105-143-31-39-67-113-51-154 39 14 100 82 128 122 44 62 43 123 28 174zm-60 280c54-11 77-123 84-162 6-36-16-73-9-100 8-32 23-42 27-87 6-73-30-145-82-205-37-42-122-142-93-188-20 0-11-2-29 3l-98 663c-46-26-67-34-135-24-162 24-163 164-100 194 37 17 90 22 146 0 124-48 109-140 122-230l39-253c15 1 2-2 16 4 4 2 9 4 13 7 8 5 16 10 24 16 51 36 101 88 123 148 22 61 8 112-21 164-13 24-25 28-26 50z"/><path d="m4119 6671l68 140-96 82-68-140 95-81zm-51-104l-95 82-72-147-31 11 77 159-43 38 49 103 44-36 69 140c-57 45-50 24 6 140l44-36 61 125 30-14-66-135 96-81 70 143 30-13-72-150c8-13 24-26 38-37l-50-103-40 34-68-138c9-14 26-26 39-37l-51-103-40 34-64-130-32 12 69 142z"/><path d="m6621 4054l68 140-96 82-68-140 95-81zm-51-104l-95 82-72-147-31 11 77 159-43 38 49 103 44-36 69 140c-57 45-50 24 6 140l44-36 61 125 30-14-66-135 96-81 70 143 30-13-72-150c8-13 24-26 38-37l-50-103-40 34-68-138c9-14 26-26 39-37l-51-103-40 34-64-130-32 12 69 142z"/><path d="m5574 16451l68 140-96 82-68-140 95-81zm-51-104l-95 82-72-147-31 11 77 159-43 38 49 103 44-36 69 140c-57 45-50 24 6 140l44-36 61 125 30-14-66-135 96-81 70 143 30-13-72-150c8-13 24-26 38-37l-50-103-40 34-68-138c9-14 26-26 39-37l-51-103-40 34-64-130-32 12 69 142z"/><path d="m7230 5861c-1 17-28 48-44 62-55 48-235 141-247 64-11-70 294-212 291-126zm10-48c-56-1-6-31-105-32-122-2-273 109-218 228 33 73 144 70 225 33 134-59 124-150 133-289 3-40 11-70 16-105l50-432c4-38 22-196 19-220l-31 1c5 71-48 532-59 612-5 35-19 183-29 204z"/><path d="m2210 6810c-27 1-34-8-71 9-45 20-120 82-115 131 12 117 158 51 202-8 28-37 23-59 9-115-27-109-64-281-93-375 67-5 143 35 180 110 49 100 13 179 16 211 23-7 16-13 28-68 60-277-159-252-239-377-44-68-14-75-51-69-3 14 62 241 71 277 22 91 38 187 62 274z"/><path d="m4828 5393c60 59-110 220-154 205-66-23 76-197 154-205zm1 889l24-6c2-52-185-601-183-649 63-8 99-2 171-75 41-42 68-94 24-158-50-71-244-10-246 148-1 99 46 255 80 360 21 64 42 127 65 190 16 43 60 153 64 189z"/><path d="m2369 8762l-33 14c-3-71 119-125 170-177 10 61-62 131-137 163zm-5-337c1 69-26 259-42 339-4 22-23 100-18 111 24 5 27-33 101-89 162-121 81-150 125-231 17-32 17-94-7-137-48 23 31 58-16 136-28 47-94 67-155 93-4-35 18-131 23-175 5-52 44-139-43-158-62-13-161 37-150 97 19 108 150 30 181 14z"/><path d="m4666 4281c1-125 162-142 239-75 69 61 58 210 24 305-18 51-41 81-67 120-11 17-31 38-44 52-62 66-128 128-213 173-11 6-20 11-31 15-35 15-33 9-31 37 166-55 221-87 351-171l96-80c291-306 96-579-205-537-96 14-168 77-193 155-70 214 276 195 210 38-22-52-76-40-137-33z"/><path d="m5179 4435c-67 24-28 113 35 92 64-22 29-115-35-92z"/><path d="m5178 4228c-64 22-29 113 36 92 59-19 34-116-36-92z"/><path d="m2703 7482c1-125 162-142 239-75 69 61 58 210 24 305-18 51-41 81-67 120-11 17-31 38-44 52-62 66-128 128-213 173-11 6-20 11-31 15-35 15-33 9-31 37 166-55 221-87 351-171l96-80c291-306 96-579-205-537-96 13-168 77-193 155-70 214 276 195 210 38-22-52-76-40-137-33z"/><path d="m3216 7636c-67 24-28 113 35 92 64-22 29-115-35-92z"/><path d="m3215 7429c-64 22-29 113 36 92 59-19 34-116-36-92z"/><path d="m5328 15313c1-125 162-142 239-75 69 61 58 210 24 305-18 51-41 81-67 120-11 17-31 38-44 52-62 66-128 128-213 173-11 6-20 11-31 15-35 15-33 9-31 37 166-55 221-87 351-171l96-80c291-306 96-579-205-537-96 14-168 77-193 155-70 214 276 195 210 38-22-52-76-40-137-33z"/><path d="m5841 15467c-67 24-28 113 35 92 64-22 29-115-35-92z"/><path d="m5839 15259c-64 22-29 113 36 92 59-19 34-116-36-92z"/></g></g><path d="m5605 17264c483-227 645-686 699-1163 51-448 56-907 51-1357-6-502-28-1004-44-1506-17-545-29-1092-5-1637 22-488 72-993 202-1467 244-889 640-1732 835-2634 59-276 106-555 140-835 38-311 61-625 65-938 9-770-101-1895-784-2422-431-333-984-342-1506-232-774 164-1509 502-2098 1005-415 355-746 783-967 1268-244 534-342 1106-319 1686 11 297 28 594 48 890 57 840 143 1679 222 2518 89 944 167 1887 212 2834 12 257 13 515 16 772 3 305 7 611 19 916 15 373 39 755 103 1125 44 256 120 587 272 807 145 209 389 347 631 434 292 106 621 154 933 162 414 11 902-49 1275-224z" fill="none" stroke="#fff" stroke-width="20"/><use transform="matrix(.55869.27968-.31717.49263 2450.53 11239.6)" xlink:href="#2"/><use transform="matrix(.59697.29884-.33891.52639 2619.47 11001.6)" xlink:href="#2"/><use transform="matrix(.5096.23807-.29411.4268 2820.21 10771)" xlink:href="#2"/><use transform="matrix(.59426.29748-.33737.524 3256.17 10248.3)" xlink:href="#2"/><use transform="matrix(.67207.33643-.38155.59261 3484.54 9980.05)" xlink:href="#2"/><use transform="matrix(.67207.33643-.38155.59261 3778.08 9595.91)" xlink:href="#2"/><use transform="matrix(.67207.33643-.38155.59261 4010.65 9318.13)" xlink:href="#2"/><use transform="matrix(.67207.33643-.38155.59261 4243.21 9040.35)" xlink:href="#2"/><use transform="matrix(.67207.33643-.38155.59261 4472.84 8593.34)" xlink:href="#2"/><use transform="matrix(.67207.33643-.38155.59261 4653.72 8370.27)" xlink:href="#2"/><use transform="matrix(.67207.33643-.38155.59261 4940.74 8007.14)" xlink:href="#2"/><g stroke="#201e1e" stroke-width="100"><g fill="#201e1e"><path d="m5231 11448c227 56 380 255 429 374 255 611-383 1315-864 1276l270-1636c-2-13-7-3-2-44 7-50-4 3 15-31l110 26 41 35zm-1044 1188l6-15c-117-71-250-276-271-371-107-482 387-999 1010-876l-283 1732c-502-67-746-229-969-522-214-280-269-590-138-931 315-819 1327-1055 1524-1195l-77 462c-114 30-221 27-343 59-595 155-1038 690-890 1221 36 130 223 360 430 435zm1333-2897l-101 30 30-80c133-413 202-592 484-895 791-848 1087-28 343 524-120 89-433 294-551 347l-206 74zm-2340 4590l319 88c182-29 285 12 495-51 733-221 686-760 783-1113 318 39 732-103 908-236 524-397 756-1089 351-1618-221-288-445-357-876-469l123-578c365-89 1022-450 1322-856 232-314 339-872 204-1235-82-221-69-160-217-292l-124-34c-171 40-251 47-430 186-448 349-635 765-771 1297-159 625 46 313-609 601-282 124-519 215-789 423-589 452-857 960-691 1680 22 95 132 312 177 377 72 105 167 223 283 328 113 103 243 198 411 268 192 80 561 151 571 175-8 502-327 871-698 975-226 64-436 84-710-40-207-94-267-265-322-441 5-2 12-3 15-3 4 0 11-2 16-3l97 1c33 0 73-3 105-7 449-68 509-625 104-767-183-64-347-38-446 33-257 186-268 514-162 755 181 412 499 499 560 558z"/><path d="m5066 11462l15-59 150 45-41-35-110-26c-19 34-9-19-15 31-6 41-1 31 2 44z"/><path d="m5519 9738l-52 15-18-65-30 80z"/><path d="m4193 12621l-6 15c8 6 14 14 40 25 25 10 27 3 37 2l-70-41z"/></g><g fill="none"><path d="m2532 10781l899 466"/><path d="m2863 10261l962 484"/><path d="m2691 10533l1029 517"/><path d="m3037 9986l1067 536"/><path d="m3218 9703l1126 564"/><path d="m3400 9420l1185 593"/><path d="m3588 9120l1312 655"/><path d="m3778 8820l1436 718"/><path d="m3947 8554l1372 685"/><path d="m4054 8384l1458 728"/><path d="m4205 8148l1527 762"/><path d="m4340 7935l1557 777"/><path d="m4482 7713l1600 798"/><path d="m4617 7487l1650 823"/><path d="m4767 7269l1686 841"/></g></g><g fill="#201e1e" font-family="&apos;Arial Black&apos;" font-weight="900" font-size="354.35"><text x="10500" y="14850" transform="matrix(1.06516 0 0 1-6215.13-1160.14)">NN 1</text><text x="10500" y="14850" transform="matrix(1.06516 0 0 1-6217.44-834.61)">NN 2</text></g><path d="m15492 17299c-483-227-645-686-699-1163-51-448-56-907-51-1357 6-502 28-1004 44-1506 17-545 29-1092 5-1637-22-488-72-993-202-1467-244-889-640-1732-835-2634-59-276-106-555-140-835-38-311-61-625-65-938-9-770 101-1895 784-2422 431-333 984-342 1506-232 774 164 1509 502 2098 1005 415 355 746 783 967 1268 244 534 342 1106 319 1686-11 297-28 594-48 890-57 840-143 1679-222 2518-89 944-167 1887-212 2834-12 257-13 515-16 772-3 305-7 611-19 916-15 373-39 755-103 1125-44 256-120 587-272 807-145 209-389 347-631 434-292 106-621 154-933 162-414 11-902-49-1275-224z" fill="#fff"/><g clip-path="url(#1)"><g><g><use transform="matrix(.63741.43378-.48001.55608 13879 7268.15)" xlink:href="#2"/><use transform="matrix(.68109.46351-.5129.59418 14130.2 7002.1)" xlink:href="#2"/><use transform="matrix(.5845.37469-.43966.47868 14419.3 6750.1)" xlink:href="#2"/><use transform="matrix(.678.4614-.51057.59148 15051.1 6175.98)" xlink:href="#2"/><use transform="matrix(.76678.52182-.57742.66893 15381 5882.09)" xlink:href="#2"/><use transform="matrix(.76678.52182-.57742.66893 15812.3 5455.86)" xlink:href="#2"/><use transform="matrix(.76678.52182-.57742.66893 16149.1 5150.9)" xlink:href="#2"/><use transform="matrix(.76678.52182-.57742.66893 16485.9 4845.93)" xlink:href="#2"/><use transform="matrix(.76678.52182-.57742.66893 16849.8 4332.06)" xlink:href="#2"/><use transform="matrix(.76678.52182-.57742.66893 17113.1 4086.22)" xlink:href="#2"/><use transform="matrix(.76678.52182-.57742.66893 17532.4 3684.82)" xlink:href="#2"/><g fill="#201e1e" stroke="#201e1e" stroke-width="100"><path d="m17266 7969c269 105 421 375 461 529 203 793-710 1559-1296 1433l629-1972c-1-16-8-5 6-54 17-60-5 4 25-36l131 49 44 50zm-1501 1296l10-17c-131-106-258-380-267-501-44-611 657-1169 1403-917l-662 2088c-606-163-878-402-1099-797-212-379-224-770-1-1168 537-959 1825-1088 2094-1229l-178 557c-146 18-277-2-433 17-761 96-1403 684-1317 1362 21 166 209 479 451 604zm2167-3356l-129 20 51-93c239-487 356-697 759-1025 1128-919 1344 139 328 701-164 91-587 293-741 339l-267 58zm-3715 5279l377 159c229-7 349 60 619 16 943-156 983-826 1166-1246 384 99 920-9 1161-146 717-405 1129-1221 726-1936-220-390-483-511-994-718l256-692c466-52 1340-391 1784-843 343-350 575-1020 475-1489-61-285-56-208-214-394l-146-62c-218 22-318 18-563 161-615 358-921 841-1185 1474-310 745 0 393-859 643-370 108-678 182-1049 394-807 463-1229 1045-1156 1959 10 120 107 405 150 493 69 141 166 301 289 449 120 145 264 283 457 396 223 130 663 275 672 307-100 616-561 1020-1036 1090-290 43-552 34-867-163-238-149-280-369-317-595 6-2 15-2 19-2 5 0 14-1 20-1l119 16c41 6 91 8 130 8 565-12 740-689 268-928-214-109-421-103-555-31-350 188-423 591-337 904 148 537 524 695 589 777z"/><path d="m17060 7960l29-71 177 80-44-50-131-49c-30 39-7-24-25 36-14 49-7 38-6 54z"/><path d="m17931 5909l-67 10-11-83-51 94z"/><path d="m15774 9248l-10 17c8 9 15 20 44 37 29 16 32 7 45 8l-79-62z"/></g><g fill="none" stroke="#201e1e" stroke-width="100"><path d="m14062 6716l1024 718"/><path d="m14564 6129l1097 750"/><path d="m14303 6437l1174 800"/><path d="m14829 5818l1216 830"/><path d="m15103 5498l1285 875"/><path d="m15378 5178l1353 921"/><path d="m15665 4839l1496 1017"/><path d="m15952 4500l1639 1114"/><path d="m16209 4199l1565 1064"/><path d="m16372 4008l1663 1129"/><path d="m16601 3741l1742 1183"/><path d="m16806 3500l1776 1206"/><path d="m17021 3249l1826 1239"/><path d="m17228 2993l1883 1277"/><path d="m17452 2748l1924 1305"/></g></g><g fill="#201e1e" stroke="#201e1e" stroke-width="7.62"><path d="m14679 4279l17 35c-7 9-528 366-565 385l-17-35 565-384zm92 121l-308-633c148-19 187-173 118-209-43-22-109 19-138 56-28 36-48 80-21 135l208 428-566 384-191-391c120-6 198-163 121-206-80-45-209 93-166 182l327 669c29-9 261-172 306-204 104-71 205-139 309-210z"/><path d="m13759 5955h26c14-36-4-76 69-179 127-181 234-217 132-463-12-28-39-94-69-100-4 15 18 37 34 73 44 102 52 252-25 337-41 45-89 57-150 65l-21-489c126 73 353-99 260-203-43-49-137-40-206 1-72 43-87 97-87 166 0 96 14 284 18 396 5 132 12 266 17 396z"/><path d="m15430 3995c-24-87-74-543-103-680-5-25-10-22-33-17 7 80 44 283 59 380 19 129 40 257 60 385 22 142 269 71 297-50 13-55-38-206-216-90-47 31-41 44-64 71z"/><path d="m15719 3907c-24-87-74-543-103-680-5-25-10-22-33-17 7 80 44 283 59 380 19 129 40 257 60 385 22 142 269 71 297-50 13-55-38-206-216-90-47 31-41 44-64 71z"/><path d="m14834 4943c-61-38-111-31-185-7-23 8-29 15-42 36-62 101 89 129 172 92 69-31 77-119 108-217 25-78 48-176 78-249 149 59 128 230 38 330-15 17-26 23-36 41 24-1 29-13 59-47 16-19 33-37 47-57 109-154-49-279-56-367-2-28 14-75 0-96-24-3-14-7-31 57-31 118-112 391-152 482z"/><path d="m14948 3321c11 28 52 244 64 304 1 5 3 18 4 23l12 18c10-9 10 5-1-43-4-17-7-33-10-50-7-33-14-66-21-100-11-55-26-147-47-200-41-102-127 11-139 49-9 27 19 122 137-2z"/><path d="m15507 13303c224-102 268 174 181 241l-181-241zm144 268c-5 15-28 21-51 28-306 93-416-195-326-391 8-17 31-68 35-82l80 103c-140 124-22 413 168 334-36-20-97-32-122-97-20-52-1-104 36-135l144 184c14 18 46 52 38 55zm-425-663c-31-20-127-170-136-211-15-64 9-162 52-195 77 42 121 92 136 200 11 82-13 153-51 206zm464 713c28 18 195 227 83 336-32 31-90 38-120 22 103-84 10-214-97-177-102 35-42 203 67 225 89 18 218-16 235-137 16-111-66-204-128-292 38-56 62-81 76-144 30-135-93-379-380-260-21-36-51-76-76-110-26-36-16-26 12-99 59-154 42-318-85-447-45-46-142-118-188-125-48 55-80 97-87 178-10 114 63 240 142 330 54 62 48 51 32 92-88 217-164 417 65 596 58 46 122 75 193 79 93 5 162-27 255-67z"/><path d="m18147 11072c-4-78 87-167 152-215 40-30 86-59 127-88 54-38 68-53 102-95 10 53-46 165-82 213-67 91-188 142-300 185zm69-780c20 59-15 207-31 250-12 32-16 82-21 121l-52 374c-12 82-28 168-36 247l34 6c21-26 20-66 88-116 139-103 262-144 325-325 52-148 22-176 29-208 2-10 18-27 30-65 32-99 35-194-15-299l-24 9c41 86 39 223-18 307-63 93-214 147-339 194 0-50 41-345 49-388 20-105 105-305-89-336-142-23-364 92-324 227 37 125 200 101 296 68 60-20 62-33 98-67z"/><path d="m16066 12675l33-1c-1-199 59-645 86-863 5-38 14-89 14-123 24 4 135 76 285-9 46-26 82-60 99-97 80-175-104-219-272-148-123 52-129 122-141 215-14 117-23 127-27 255-4 118-36 384-50 511-5 41-31 236-27 260z"/><path d="m17282 12360c-34-68-61-88-105-143-31-39-67-113-51-154 39 14 100 82 128 122 44 62 43 123 28 174zm-60 280c54-11 77-123 84-162 6-36-16-73-9-100 8-32 23-42 27-87 6-73-30-145-82-205-37-42-122-142-93-188-20 0-11-2-29 3l-98 663c-46-26-67-34-135-24-162 24-163 164-100 194 37 17 90 22 146 0 124-48 109-140 122-230l39-253c15 1 2-2 16 4 4 2 9 4 13 7 8 5 16 10 24 16 51 36 101 88 123 148 22 61 8 112-21 164-13 24-25 28-26 50z"/><path d="m16967 10979l68 140-96 82-68-140 95-81zm-51-104l-95 82-72-147-31 11 77 159-43 38 49 103 44-36 69 140c-57 45-50 24 6 140l44-36 61 125 30-14-66-135 96-81 70 143 30-13-72-150c8-13 24-26 38-37l-50-103-40 34-68-138c9-14 26-26 39-37l-51-103-40 34-64-130-32 12 69 142z"/><path d="m17148 13591c-27 1-34-8-71 9-45 20-120 82-115 131 12 117 158 51 202-8 28-37 23-59 9-115-27-109-64-281-93-375 67-5 143 35 180 110 49 100 13 179 16 211 23-7 16-13 28-68 60-277-159-252-239-377-44-68-14-75-51-69-3 14 62 241 71 277 22 91 38 187 62 274z"/><path d="m17944 12562c1-125 162-142 239-75 69 61 58 210 24 305-18 51-41 81-67 120-11 17-31 38-44 52-62 66-128 128-213 173-11 6-20 11-31 15-35 15-33 9-31 37 166-55 221-87 351-171l96-80c291-306 96-579-205-537-96 13-168 77-193 155-70 214 276 195 210 38-22-52-76-40-137-33z"/><path d="m18457 12716c-67 24-28 113 35 92 64-22 29-115-35-92z"/><path d="m18455 12509c-64 22-29 113 36 92 59-19 34-116-36-92z"/></g><g/><g/></g></g><g fill="#201e1e"><g font-family="&apos;Cassandra&apos;" stroke="#201e1e" stroke-linejoin="round" stroke-linecap="round" stroke-width="40"><text x="10500" y="14850" font-size="887.15" transform="matrix(.95381-.44514.47415.89546-1966.93 7175.62)">Texto 01</text><text x="10500" y="14850" font-size="728.68" transform="matrix(.95381-.44514.47415.89546-1424.97 7939.82)">Texto 02</text><text x="10500" y="14850" font-size="546.8" transform="matrix(.95381-.44514.47415.89546-899.8 8522.34)">00.00.0000</text></g><g font-family="&apos;Arial Black&apos;" font-weight="900" font-size="354.35"><text x="10500" y="14850" transform="matrix(1.06516 0 0 1 4723.76-1660.19)">NN 1</text><text x="10500" y="14850" transform="matrix(1.06516 0 0 1 4705.36-1354.02)">NN 2</text></g></g><g fill="#373435" font-family="&apos;Arial&apos;" font-weight="normal" font-size="423.33"><text x="1586" y="22989">DESC 1</text><text x="1589" y="23409">DESC 2</text><text x="1587" y="23790">DESC 3</text></g></svg>