<svg xmlns="http://www.w3.org/2000/svg" width="744.09" height="1052.36" viewBox="0 0 21000 29700" shape-rendering="geometricPrecision" image-rendering="optimizeQuality" fill-rule="evenodd" clip-rule="evenodd" xmlns:xlink="http://www.w3.org/1999/xlink"><defs><path id="2" d="m0 0h1693v282h-1693z" stroke-width="100" fill="#201e1e" stroke="#201e1e"/><clipPath id="0"><path d="m6573 25239c732-377 978-1138 1060-1928 77-743 86-1503 77-2250-9-832-42-1664-67-2496-26-903-44-1811-8-2714 33-809 110-1646 307-2432 370-1473 971-2871 1266-4367 90-457 161-920 212-1384 58-516 93-1036 98-1555 13-1277-153-3142-1188-4015-654-552-1491-567-2283-384-1174 271-2288 831-3180 1665-630 589-1130 1298-1466 2102-369 885-518 1834-484 2794 17 492 42 984 73 1476 87 1393 217 2783 337 4173 135 1565 253 3128 321 4697 18 426 20 854 24 1280 5 506 10 1012 29 1518 22 619 60 1252 156 1864 67 424 182 973 413 1337 219 346 589 575 957 720 443 175 941 255 1414 269 627 18 1367-81 1933-372z"/></clipPath><clipPath id="1"><path d="m14523 25239c-732-377-978-1138-1060-1928-77-743-86-1503-77-2250 9-832 42-1664 67-2496 26-903 44-1811 8-2714-33-809-110-1646-307-2432-370-1473-971-2871-1266-4367-90-457-161-920-212-1384-58-516-93-1036-98-1555-13-1277 153-3142 1188-4015 654-552 1491-567 2283-384 1174 271 2288 831 3180 1665 630 589 1130 1298 1466 2102 369 885 518 1834 484 2794-17 492-42 984-73 1476-87 1393-217 2783-337 4173-135 1565-253 3128-321 4697-18 426-20 854-24 1280-5 506-11 1012-29 1518-22 619-60 1252-156 1864-67 424-182 973-413 1337-219 346-589 575-957 720-443 175-941 255-1414 269-627 18-1367-81-1933-372z"/></clipPath></defs><text x="10081" y="24465" fill="#201e1e" font-family="&apos;Arial Black&apos;" stroke="#201e1e" font-weight="900" stroke-width="7.62" font-size="705.56">38</text><g fill="none" stroke="#322f30" stroke-width="80"><circle cx="10533" cy="1326" r="460"/><path d="m10533 515v1621"/><path d="m9723 1326h1621"/><circle cx="10533" cy="25836" r="460"/><path d="m10533 25026v1621"/><path d="m9723 25836h1621"/></g><g fill="#fff"><rect x="9843" y="22866" width="1347" height="637" rx="318" stroke="#fff" stroke-width="20"/><path d="m6573 25239c732-377 978-1138 1060-1928 77-743 86-1503 77-2250-9-832-42-1664-67-2496-26-903-44-1811-8-2714 33-809 110-1646 307-2432 370-1473 971-2871 1266-4367 90-457 161-920 212-1384 58-516 93-1036 98-1555 13-1277-153-3142-1188-4015-654-552-1491-567-2283-384-1174 271-2288 831-3180 1665-630 589-1130 1298-1466 2102-369 885-518 1834-484 2794 17 492 42 984 73 1476 87 1393 217 2783 337 4173 135 1565 253 3128 321 4697 18 426 20 854 24 1280 5 506 10 1012 29 1518 22 619 60 1252 156 1864 67 424 182 973 413 1337 219 346 589 575 957 720 443 175 941 255 1414 269 627 18 1367-81 1933-372z"/></g><g clip-path="url(#0)"><g fill="#201e1e" stroke="#201e1e" stroke-width="7.62"><path d="m2537 6325c339-168 406 288 275 400l-275-400zm218 444c-7 25-42 34-78 46-464 153-631-323-495-648 11-27 47-112 53-135l121 171c-212 206-33 685 254 554-54-32-148-52-186-161-30-87-2-172 55-223l218 305c21 29 69 85 57 91zm-645-1099c-46-33-192-282-207-349-23-106 13-268 79-323 117 70 184 152 205 331 17 137-20 254-78 341zm704 1182c43 30 296 377 126 557-48 51-137 63-181 37 156-139 16-355-147-293-155 58-63 337 102 373 135 29 331-27 356-227 24-185-100-337-194-484 58-93 94-135 115-239 45-225-140-628-577-431-32-60-78-125-115-182-40-60-24-43 19-165 90-255 63-527-128-741-68-76-216-196-285-206-73 92-121 161-131 296-15 189 95 397 216 546 82 102 73 85 48 152-134 360-248 691 98 988 89 76 185 124 292 130 141 9 246-45 387-111z"/><path d="m4886 22254l39 90-1271 940-38-89 1270-941zm-1435 738l690 1547c-480 82-394 742-36 465 117-90 199-254 136-406l-435-973c-31-67-54-76-8-115 120-100 286-210 415-306 167-125 690-524 826-610l426 957c-150 26-213 68-288 196-37 63-102 232 16 313 161 112 477-212 374-444-236-528-494-1130-735-1645-68 29-896 657-1034 759-90 66-277 191-345 262z"/><path d="m7196 7356c-6-130 132-277 231-357 61-50 130-97 192-145 81-63 104-88 155-158 15 88-70 274-124 353-102 151-285 236-454 307zm104-1293c30 98-22 342-48 414-19 53-24 135-32 201l-80 621c-19 136-43 278-54 409l52 11c32-44 31-109 134-192 210-170 397-238 493-539 79-245 34-292 44-344 3-17 27-45 45-107 49-164 53-321-22-496l-36 14c63 142 60 370-27 509-96 154-325 243-514 321-1-82 62-573 74-643 30-174 160-505-136-557-215-38-552 153-492 376 57 208 303 167 448 113 91-34 94-55 148-111z"/><path d="m3845 3677c77 7 194 73 272 128 99 71 172 155 191 303-87-66-156-120-242-177-96-64-167-109-221-254zm-56-306c72 8 212 75 282 132 107 87 160 164 187 322-129-128-28-70-246-206-90-56-182-110-222-248zm185 1286c-89-9-137-28-257 61-66 49-146 137-167 196-32 91 28 195 110 215 78 20 199-32 269-94 70-61 111-142 114-217 3-62-78-459-96-557-10-58-48-229-46-275 22 7 73 30 99 43 214 105 379 125 393 419 5 107-28 210-27 226 84-22 97-435-27-517 20-44 14-112-2-163-31-100-49-69-41-175 8-114-48-250-127-335-225-242-410-231-439-446-8 0-29 6-48 12 50 161 201 1003 232 1208 19 125 34 277 60 397z"/><path d="m6767 4324l51-1c-1-331 90-1068 131-1430 7-63 22-148 21-204 37 6 204 126 431-15 69-43 124-100 150-161 121-290-158-362-412-246-187 86-196 203-213 356-22 193-34 210-41 422-6 196-55 636-76 847-7 68-47 391-41 431z"/><path d="m2132 25632l51-1c-1-331 90-1068 131-1430 7-63 22-148 21-204 37 6 204 126 431-15 69-43 124-100 150-161 121-290-158-362-412-246-187 86-196 203-213 356-22 193-34 210-41 422-6 196-55 636-76 847-7 68-47 391-41 431z"/><path d="m4810 3472l37-2c15-47-28-174 45-312 57-108 94-137 159-276 41-86 69-202 6-335-57-119-65-182-141-280-24-31-30-59-66-41 46 100 195 224 183 460-8 147-79 265-263 349l-152-796c84 39 204 20 289-80 36-43 53-79 82-123 86-128-56-327-290-164-102 71-155 142-148 257 4 65 236 1215 258 1343z"/><path d="m4417 6302c-51-113-92-147-159-236-48-64-102-187-78-255 60 24 151 136 195 203 67 104 65 203 42 288zm-91 465c82-18 117-203 127-268 9-60-24-121-14-165 12-53 35-69 41-144 8-121-45-240-125-339-57-70-185-235-141-312-31 0-16-4-43 5l-149 1099c-69-42-102-56-205-40-246 39-248 271-151 321 56 29 136 36 221 1 188-79 166-233 186-382l59-419c22 2 3-3 24 6 7 3 13 7 19 12 12 8 24 17 36 26 78 59 153 146 186 246 34 101 12 185-32 272-20 40-38 46-39 83z"/><path d="m4319 7680l103 232-145 135-103-232 144-135zm-77-172l-144 135-109-244-48 19 117 264-65 62 75 170 67-60 105 233c-87 75-76 40 10 232l67-59 93 207 46-24-100-225 145-134 106 237 46-22-110-248c12-22 37-43 58-62l-76-171-61 56-102-229c13-23 39-44 59-61l-77-171-61 56-97-215-48 20 105 236z"/><path d="m8112 3343l103 232-145 135-103-232 144-135zm-77-172l-144 135-109-244-48 19 117 264-65 62 75 170 67-60 105 233c-87 75-76 40 10 232l67-59 93 207 46-24-100-225 145-134 106 237 46-22-110-248c12-22 37-43 58-62l-76-171-61 56-102-229c13-23 39-44 59-61l-77-171-61 56-97-215-48 20 105 236z"/><path d="m6525 23891l103 232-145 135-103-232 144-135zm-77-172l-144 135-109-244-48 19 117 264-65 62 75 170 67-60 105 233c-87 75-76 40 10 232l67-59 93 207 46-24-100-225 145-134 106 237 46-22-110-248c12-22 37-43 58-62l-76-171-61 56-102-229c13-23 39-44 59-61l-77-171-61 56-97-215-48 20 105 236z"/><path d="m9035 6338c-1 28-42 79-67 103-84 79-357 233-375 106-16-116 446-351 442-209zm15-79c-85-2-10-51-160-53-185-3-414 181-331 379 51 121 218 115 342 56 203-98 189-248 202-479 4-66 17-116 24-175l76-717c6-63 33-325 29-365l-48 1c8 118-73 883-89 1015-7 58-29 304-45 338z"/><path d="m1426 7910c-41 2-52-12-107 15-68 33-182 136-174 217 19 193 239 84 307-13 43-61 34-98 14-190-40-180-97-466-141-622 102-9 216 58 273 183 75 165 20 296 24 350 35-12 24-22 42-113 92-459-242-418-362-625-66-113-22-124-77-115-4 23 95 399 108 459 34 150 58 310 94 454z"/><path d="m5395 5562c91 99-167 365-233 339-100-38 115-326 233-339zm2 1474l36-10c4-85-280-996-278-1075 96-14 151-3 260-124 62-69 104-157 37-261-75-118-369-17-372 246-2 163 70 422 122 597 32 107 64 210 98 315 24 72 91 254 97 313z"/><path d="m1666 11146l-50 23c-5-117 181-208 257-294 15 101-94 217-207 270zm-7-559c1 114-40 429-63 561-6 36-34 165-27 184 37 8 40-55 154-147 246-201 122-248 189-383 26-52 25-156-10-227-73 38 48 95-25 226-43 77-143 111-235 155-6-58 27-217 34-290 8-85 67-231-65-261-94-21-244 62-228 161 29 179 227 49 275 23z"/><path d="m5149 3719c1-207 246-236 362-125 104 100 88 348 36 505-28 85-63 134-101 199-17 28-46 64-66 87-94 110-194 213-322 288-16 10-30 17-47 26-54 25-50 16-47 62 252-91 335-144 532-283l146-133c441-507 146-959-310-890-146 22-255 128-293 256-106 355 418 323 318 63-33-87-115-66-207-55z"/><path d="m5927 3975c-102 41-43 187 53 152 98-36 44-190-53-152z"/><path d="m5924 3631c-97 37-43 187 55 152 90-32 52-193-55-152z"/><path d="m2174 9025c1-207 246-236 362-125 104 100 88 349 36 505-28 85-63 134-101 199-17 28-46 64-66 87-94 110-194 213-322 288-16 10-30 17-47 26-54 25-50 16-47 62 252-91 335-144 532-283l146-133c441-507 146-959-310-890-146 22-255 128-293 256-106 355 418 323 318 63-33-87-115-66-207-55z"/><path d="m2951 9281c-102 41-43 187 53 152 98-36 44-190-53-152z"/><path d="m2949 8937c-97 37-43 187 55 152 90-32 52-193-55-152z"/><path d="m6152 22005c1-207 246-236 362-125 104 100 88 349 36 505-28 85-63 134-101 199-17 28-46 64-66 87-94 110-194 213-322 288-16 10-30 17-47 26-54 25-50 16-47 62 252-91 335-144 532-283l146-133c441-507 146-959-310-890-146 22-255 128-293 256-106 355 418 323 318 63-33-87-115-66-207-55z"/><path d="m6930 22260c-102 41-43 187 53 152 98-36 44-190-53-152z"/><path d="m6928 21916c-97 37-43 187 55 152 90-32 52-193-55-152z"/></g></g><path d="m6573 25239c732-377 978-1138 1060-1928 77-743 86-1503 77-2250-9-832-42-1664-67-2496-26-903-44-1811-8-2714 33-809 110-1646 307-2432 370-1473 971-2871 1266-4367 90-457 161-920 212-1384 58-516 93-1036 98-1555 13-1277-153-3142-1188-4015-654-552-1491-567-2283-384-1174 271-2288 831-3180 1665-630 589-1130 1298-1466 2102-369 885-518 1834-484 2794 17 492 42 984 73 1476 87 1393 217 2783 337 4173 135 1565 253 3128 321 4697 18 426 20 854 24 1280 5 506 10 1012 29 1518 22 619 60 1252 156 1864 67 424 182 973 413 1337 219 346 589 575 957 720 443 175 941 255 1414 269 627 18 1367-81 1933-372z" fill="none" stroke="#fff" stroke-width="20"/><use transform="matrix(.84697.46359-.48084.81659 1790.14 15253.3)" xlink:href="#2"/><use transform="matrix(.90501.49536-.51379.87254 2046.26 14858.9)" xlink:href="#2"/><use transform="matrix(.77256.39462-.44588.70746 2350.58 14476.6)" xlink:href="#2"/><use transform="matrix(.90089.4931-.51145.86857 3011.5 13610.2)" xlink:href="#2"/><use transform="matrix(1.01886.55767-.57842.98231 3357.71 13165.5)" xlink:href="#2"/><use transform="matrix(1.01886.55767-.57842.98231 3802.73 12528.8)" xlink:href="#2"/><use transform="matrix(1.01886.55767-.57842.98231 4155.29 12068.3)" xlink:href="#2"/><use transform="matrix(1.01886.55767-.57842.98231 4507.86 11607.9)" xlink:href="#2"/><use transform="matrix(1.01886.55767-.57842.98231 4855.98 10866.9)" xlink:href="#2"/><use transform="matrix(1.01886.55767-.57842.98231 5130.2 10497.2)" xlink:href="#2"/><use transform="matrix(1.01886.55767-.57842.98231 5565.31 9895.25)" xlink:href="#2"/><g stroke="#201e1e" stroke-width="100"><g fill="#201e1e"><path d="m6005 15598c344 92 576 423 651 620 386 1013-580 2180-1310 2115l409-2711c-4-22-11-5-2-73 10-82-6 6 23-51l167 43 62 58zm-1583 1969l9-25c-177-118-379-457-411-615-162-799 586-1656 1532-1451l-429 2871c-761-112-1131-380-1469-865-324-464-408-979-209-1543 478-1358 2011-1749 2311-1982l-116 766c-173 49-335 45-520 97-902 257-1573 1144-1349 2024 55 216 338 597 652 721zm2020-4803l-152 49 45-132c202-685 306-981 734-1483 1199-1406 1648-47 520 869-182 148-657 487-835 575l-313 123zm-3548 7608l484 146c276-48 433 20 750-85 1111-367 1040-1260 1187-1845 481 64 1109-170 1376-391 794-658 1146-1806 532-2681-335-477-675-592-1328-778l186-958c553-148 1549-746 2004-1419 352-521 514-1446 309-2048-124-366-104-265-328-484l-187-56c-259 67-381 78-651 309-679 579-963 1269-1169 2150-242 1036 69 519-923 997-427 206-787 357-1197 701-892 750-1298 1591-1048 2785 33 157 201 517 268 625 109 174 254 369 429 544 171 170 369 328 623 444 292 133 850 250 866 290-12 831-496 1443-1058 1617-343 106-661 140-1076-67-314-156-404-440-488-732 7-3 18-5 23-5 5-1 17-4 24-5l147 1c50 1 111-4 159-12 680-112 771-1036 158-1272-278-107-527-63-676 54-389 308-406 852-246 1251 275 683 756 828 849 925z"/><path d="m5754 15621l22-98 228 75-62-58-167-43c-29 57-13-31-23 51-8 68-1 51 2 73z"/><path d="m6443 12765l-80 24-28-108-45 133z"/><path d="m4431 17543l-9 25c12 10 21 24 60 41 37 16 40 4 55 3l-107-69z"/></g><g fill="none"><path d="m1913 14493l1364 773"/><path d="m2415 13632l1458 802"/><path d="m2154 14082l1560 857"/><path d="m2679 13176l1617 887"/><path d="m2953 12706l1708 936"/><path d="m3229 12237l1797 984"/><path d="m3515 11739l1988 1087"/><path d="m3802 11243l2178 1189"/><path d="m4059 10801l2079 1137"/><path d="m4222 10521l2209 1206"/><path d="m4450 10129l2314 1263"/><path d="m4655 9776l2360 1287"/><path d="m4871 9408l2424 1323"/><path d="m5075 9034l2501 1364"/><path d="m5302 8672l2555 1393"/></g></g><g fill="#201e1e" font-family="&apos;Arial Black&apos;" font-weight="900" font-size="529.17"><text x="10500" y="14850" transform="matrix(.97417 0 0 1-4620.6 4464.89)">NN 1</text><text x="10500" y="14850" transform="matrix(.97417 0 0 1-4624.1 5004.49)">NN 2</text></g><path d="m14523 25239c-732-377-978-1138-1060-1928-77-743-86-1503-77-2250 9-832 42-1664 67-2496 26-903 44-1811 8-2714-33-809-110-1646-307-2432-370-1473-971-2871-1266-4367-90-457-161-920-212-1384-58-516-93-1036-98-1555-13-1277 153-3142 1188-4015 654-552 1491-567 2283-384 1174 271 2288 831 3180 1665 630 589 1130 1298 1466 2102 369 885 518 1834 484 2794-17 492-42 984-73 1476-87 1393-217 2783-337 4173-135 1565-253 3128-321 4697-18 426-20 854-24 1280-5 506-11 1012-29 1518-22 619-60 1252-156 1864-67 424-182 973-413 1337-219 346-589 575-957 720-443 175-941 255-1414 269-627 18-1367-81-1933-372z" fill="#fff"/><g clip-path="url(#1)"><g><g><use transform="matrix(.96632.71903-.72769.92175 12077 8611.83)" xlink:href="#2"/><use transform="matrix(1.03254.76831-.77756.98491 12457.9 8170.83)" xlink:href="#2"/><use transform="matrix(.88611.62108-.66653.79345 12896.1 7753.12)" xlink:href="#2"/><use transform="matrix(1.02784.76481-.77402.98044 13853.9 6801.47)" xlink:href="#2"/><use transform="matrix(1.16243.86496-.87538 1.10882 14354.1 6314.31)" xlink:href="#2"/><use transform="matrix(1.16243.86496-.87538 1.10882 15007.8 5607.8)" xlink:href="#2"/><use transform="matrix(1.16243.86496-.87538 1.10882 15518.4 5102.29)" xlink:href="#2"/><use transform="matrix(1.16243.86496-.87538 1.10882 16029.1 4596.78)" xlink:href="#2"/><use transform="matrix(1.16243.86496-.87538 1.10882 16580.7 3744.98)" xlink:href="#2"/><use transform="matrix(1.16243.86496-.87538 1.10882 16979.8 3337.48)" xlink:href="#2"/><use transform="matrix(1.16243.86496-.87538 1.10882 17615.6 2672.12)" xlink:href="#2"/><g fill="#201e1e" stroke="#201e1e" stroke-width="100"><path d="m17211 9773c409 174 639 622 698 877 307 1315-1076 2584-1964 2375l954-3268c-1-27-12-8 9-90 26-99-8 6 37-59l199 82 67 83zm-2276 2149l15-29c-198-176-391-629-404-830-67-1012 997-1937 2127-1520l-1004 3462c-919-271-1330-666-1666-1322-322-629-340-1277-2-1937 814-1590 2767-1803 3175-2037l-270 924c-221 30-420-4-656 29-1154 159-2128 1135-1997 2258 32 275 317 795 684 1002zm3285-5563l-196 34 78-155c362-808 540-1155 1151-1699 1710-1523 2038 230 497 1162-249 150-890 485-1124 562l-405 97zm-5632 8751l572 264c347-11 530 100 938 27 1430-258 1490-1370 1768-2065 582 164 1394-16 1760-241 1088-672 1712-2024 1100-3210-333-646-733-847-1506-1190l388-1147c706-86 2031-648 2704-1398 520-580 872-1691 721-2468-92-473-84-344-324-654l-222-102c-330 37-482 29-853 266-932 594-1397 1394-1796 2444-469 1234 0 651-1302 1066-560 179-1028 302-1590 654-1223 767-1863 1732-1752 3248 15 199 162 671 227 817 105 234 251 499 438 745 182 240 400 469 693 656 337 215 1006 456 1019 509-152 1022-851 1691-1571 1807-440 71-837 56-1314-271-361-247-425-612-480-987 9-3 23-3 29-3 7 0 21-2 30-1l181 27c62 10 138 14 197 13 857-20 1122-1142 406-1539-325-180-638-170-842-51-530 311-642 979-511 1498 225 890 794 1152 893 1288z"/><path d="m16899 9758l44-117 268 133-67-83-199-82c-46 65-11-40-37 59-22 82-10 63-9 90z"/><path d="m18220 6360l-102 16-16-138-78 155z"/><path d="m14950 11893l-15 29c13 14 22 33 67 61 43 26 49 12 68 14l-120-103z"/></g><g fill="none" stroke="#201e1e" stroke-width="100"><path d="m12355 7697l1551 1190"/><path d="m13115 6724l1664 1242"/><path d="m12720 7233l1779 1328"/><path d="m13517 6209l1844 1375"/><path d="m13932 5677l1948 1452"/><path d="m14350 5148l2050 1526"/><path d="m14784 4585l2268 1687"/><path d="m15220 4024l2485 1846"/><path d="m15610 3525l2372 1763"/><path d="m15857 3208l2521 1872"/><path d="m16203 2765l2641 1961"/><path d="m16514 2366l2693 1998"/><path d="m16841 1950l2767 2054"/><path d="m17154 1525l2855 2118"/><path d="m17494 1119l2917 2163"/></g></g><g fill="#201e1e" stroke="#201e1e" stroke-width="7.62"><path d="m13289 3657l26 58c-11 15-800 606-857 637l-26-58 857-637zm139 201l-467-1049c224-32 283-286 179-346-65-37-165 31-209 92-42 59-72 133-32 224l316 709-858 636-290-649c182-9 301-270 184-342-121-75-317 154-251 301l495 1109c44-14 395-286 465-338 157-117 311-230 468-348z"/><path d="m11896 6435l39 1c22-59-6-125 105-297 193-300 355-360 200-768-17-46-58-156-104-166-5 25 28 61 52 122 66 169 80 418-37 559-63 75-135 94-227 107l-31-811c191 121 535-164 395-336-66-81-208-66-312 2-109 72-132 161-132 276 1 159 22 471 28 656 7 219 18 441 25 657z"/><path d="m14428 3187c-37-145-113-900-156-1127-8-41-14-37-50-28 11 133 67 470 89 630 29 213 60 426 91 638 34 235 407 118 451-83 20-91-57-342-327-148-72 51-62 73-98 118z"/><path d="m14867 3040c-37-145-113-900-156-1127-8-41-14-37-50-28 11 133 67 470 89 630 29 213 60 426 91 638 34 235 407 118 451-83 20-91-57-342-327-148-72 51-62 73-98 118z"/><path d="m13525 4758c-92-63-168-52-280-11-36 13-44 25-64 60-95 168 134 214 261 152 104-52 117-198 164-359 37-130 73-293 118-412 226 98 194 381 58 548-23 29-39 38-55 69 37-1 44-22 90-78 25-31 50-61 71-94 165-256-74-462-85-609-4-46 21-125 0-159-37-4-22-12-47 95-47 195-170 648-230 800z"/><path d="m13698 2068c16 46 79 405 97 504 2 9 4 30 7 39l18 31c15-16 15 9-1-72-6-28-10-55-15-83-11-55-21-109-32-166-17-92-39-244-71-331-62-169-192 18-211 82-13 44 29 202 208-3z"/><path d="m14546 18616c339-168 406 288 275 400l-275-400zm218 444c-7 25-42 34-78 46-464 153-631-323-495-648 11-27 47-112 53-135l121 171c-212 206-33 685 254 554-54-32-148-52-186-161-30-87-2-172 55-223l218 305c21 29 69 85 57 91zm-645-1099c-46-33-192-282-207-349-23-106 13-268 79-323 117 70 184 152 205 331 17 137-20 254-78 341zm704 1182c43 30 296 377 126 557-48 51-137 63-181 37 156-139 16-355-147-293-155 58-63 337 102 373 135 29 331-27 356-227 24-185-100-337-194-484 58-93 94-135 115-239 45-225-140-628-577-431-32-60-78-125-115-182-40-60-24-43 19-165 90-255 63-527-128-741-68-76-216-196-285-206-73 92-121 161-131 296-15 189 95 397 216 546 82 102 73 85 48 152-134 360-248 691 98 988 89 76 185 124 292 130 141 9 246-45 387-111z"/><path d="m18547 14916c-6-130 132-277 231-357 61-50 130-97 192-145 81-63 104-88 155-158 15 88-70 274-124 353-102 151-285 236-454 307zm104-1293c30 98-22 342-48 414-19 53-24 135-32 201l-79 621c-19 136-43 278-54 409l52 11c32-44 31-109 134-192 210-170 397-238 493-539 79-245 34-292 44-344 3-17 27-45 45-107 49-164 53-321-22-496l-36 14c63 142 60 370-27 509-96 154-325 243-514 321-1-82 62-573 74-643 30-174 160-505-136-557-215-38-552 153-492 376 57 208 303 167 448 113 91-34 94-55 148-111z"/><path d="m15393 17574l51-1c-1-331 90-1068 131-1430 7-63 22-148 21-204 37 6 204 126 431-15 69-43 124-100 150-161 121-290-158-362-412-246-187 86-196 203-213 356-22 193-34 210-41 422-6 196-55 636-76 847-7 68-47 391-41 431z"/><path d="m17236 17052c-51-113-92-147-159-236-48-64-102-187-78-255 60 24 151 136 195 203 67 104 65 203 42 288zm-91 465c82-18 117-203 127-268 9-60-24-121-14-165 12-53 35-69 41-144 8-121-45-240-125-339-57-70-185-235-141-312-31 0-16-4-43 5l-149 1099c-69-42-102-56-205-40-246 39-248 271-151 321 56 29 136 36 221 1 188-79 166-233 186-382l59-419c22 2 3-3 24 6 7 3 13 7 19 12 12 8 24 16 36 26 78 59 153 146 186 246 34 101 12 185-32 271-20 40-38 46-39 83z"/><path d="m16758 14763l103 232-145 135-103-232 144-135zm-77-172l-144 135-109-244-48 19 117 264-65 62 75 170 67-60 105 233c-87 75-76 40 10 232l67-59 93 207 46-24-100-225 145-134 106 237 46-22-110-248c12-22 37-43 58-62l-76-171-61 56-102-229c13-23 39-44 59-61l-77-171-61 56-97-215-48 20 105 236z"/><path d="m17032 19093c-41 2-52-12-107 15-68 33-182 136-174 217 19 193 239 84 307-13 43-61 34-98 14-190-40-180-97-466-141-622 102-9 216 58 273 183 75 165 20 296 24 350 35-12 24-22 42-113 92-459-242-418-362-625-66-113-22-124-77-115-4 23 95 399 108 459 34 150 58 310 94 454z"/><path d="m18239 17387c1-207 246-236 362-125 104 100 88 349 36 505-28 85-63 134-101 199-17 28-46 64-66 87-94 110-194 213-322 288-16 10-30 17-47 26-54 25-50 16-47 62 252-91 335-144 532-283l146-133c441-507 146-959-310-890-146 22-255 128-293 256-106 355 418 323 318 63-33-87-115-66-207-55z"/><path d="m19016 17642c-102 41-43 187 53 152 98-36 44-190-53-152z"/><path d="m19014 17298c-97 37-43 187 55 152 90-32 52-193-55-152z"/></g><g/><g/></g></g><g fill="#201e1e"><g font-family="&apos;Cassandra&apos;" stroke="#201e1e" stroke-linejoin="round" stroke-linecap="round" stroke-width="40"><text x="10500" y="14850" font-size="1470.53" transform="matrix(.87233-.44514.43365.89546-1687.53 14129.3)">Texto 01</text><text x="10500" y="14850" font-size="1207.85" transform="matrix(.87233-.44514.43365.89546-865.93 15396)">Texto 02</text><text x="10500" y="14850" font-size="906.37" transform="matrix(.87233-.44514.43365.89546-69.766 16361.6)">00.00.0000</text></g><g font-family="&apos;Arial Black&apos;" font-weight="900" font-size="529.17"><text x="10500" y="14850" transform="matrix(.97417 0 0 1 5135.73 3577.55)">NN 1</text><text x="10500" y="14850" transform="matrix(.97417 0 0 1 5107.83 4085.06)">NN 2</text></g></g><g fill="#373435" font-family="&apos;Arial&apos;" font-weight="normal" font-size="423.33"><text x="985" y="27613">DESC 1</text><text x="988" y="28033">DESC 2</text><text x="986" y="28414">DESC 3</text></g></svg>