<svg xmlns="http://www.w3.org/2000/svg" width="744.09" height="1052.36" viewBox="0 0 21000 29700" shape-rendering="geometricPrecision" image-rendering="optimizeQuality" fill-rule="evenodd" clip-rule="evenodd"><defs><clipPath id="0"><path d="m14053 22068c1152 561 3343 453 4008-585 663-1034 513-3969 575-5407 157-3603 555-6335 658-9240 114-3226-2080-5360-4703-5960-3700-847-3481 4118-2967 6670 270 1371 803 2564 1142 3905 627 2472 59 6246 277 8819 112 889 408 1479 1009 1800z"/></clipPath><clipPath id="1"><path d="m6933 22080c-1152 561-3343 453-4008-585-663-1034-513-3969-575-5407-157-3603-555-6335-658-9240-114-3226 2080-5360 4703-5960 3700-847 3481 4118 2967 6670-270 1371-803 2564-1142 3905-627 2472-59 6246-277 8819-112 889-408 1479-1009 1800z"/></clipPath></defs><text x="9938" y="22454" fill="#201e1e" font-family="&apos;Arial Black&apos;" stroke="#201e1e" font-weight="900" stroke-width="7.62" font-size="705.56">34</text><g fill="none" stroke-width="80"><g stroke="#322f30"><circle cx="10533" cy="1326" r="460"/><path d="m10533 515v1621"/><path d="m9723 1326h1621"/></g><g stroke="#373435"><circle cx="10390" cy="23825" r="460"/><path d="m10390 23015v1621"/><path d="m9580 23825h1621"/></g></g><g fill="#373435" font-family="&apos;Arial&apos;" font-weight="normal" font-size="423.33"><text x="812" y="25179">DESC 1</text><text x="776" y="25783">DESC 2</text><text x="759" y="26383">DESC 3</text></g><g clip-path="url(#0)"><g><g fill="#201e1e" stroke="#201e1e"><g stroke-linejoin="round" stroke-linecap="round"><text x="8384" y="14850" font-family="&apos;Pristina&apos;" stroke-width="40" font-size="1915.41" transform="matrix(1.07977 0 0 .99125 4367.37 5281.43)">Direito </text><text x="10500" y="14850" font-family="&apos;Arial&apos;" stroke-width="50" font-size="720.21" transform="matrix(1.01733 0 0 .99125 3017.98 6534.55)">Texto 2</text></g><g stroke-width="50"><path d="m14019 9881c0 0 294 19 567-118 272-136 491-244 714-244 0 0 205-19 419 112 0 0 11 5 25 19 13 14 13-131 13-131h234l2 140c0 0 212-275 783-45 0 0 642 324 915 258 0 0 31-122 152-52 0 0 85 122-45 174 0 0-56 7-98-38 0 0-156 143-868-164 0 0-489-256-863 125l4 216c0 0 112 80 0 160l-4 2801c0 0 129 47 49 136l129-5 18 122c0 0 758 5 861 324 0 0 223 0 232 132h-2775c0 0-36-108 205-132 0 0 80-309 825-315v-108l170-5c0 0-45-150 62-141l-9-2815c0 0-138-80 0-164l4-211c0 0-321-390-812-127 0 0-633 320-919 179 0 0-174 103-174-80 0-183 228-85 183-5z"/><ellipse cx="13916" cy="10045" rx="41" ry="45"/><ellipse cx="17797" cy="10045" rx="41" ry="45"/><path d="m13913 11885l-854-4 854-1604 911 1613-911-4zm1068 8l-1058-1804c-2 0-4 1-7 1-6 0-12-2-17-4l-980 1763v81c216 694 1701 704 2062-37z"/><path d="m17803 11885l-860-4 860-1585 934 1593-934-4zm1068 8l-1058-1804c-2 0-4 1-7 1-6 0-12-2-17-4l-980 1763v81c216 694 1701 704 2062-37z"/></g><text x="10500" y="14850" font-family="&apos;Pristina&apos;" stroke-width="50" font-size="1345.46" transform="matrix(.74703.63716-.62683.75934 15606.9-15214.8)">Texto 1</text></g><g fill="#373435" font-family="&apos;Arial&apos;" font-size="545.37"><text x="10500" y="14850" transform="matrix(.97518 0 0 .99125 4966.87-108.64)">NN 1</text><text x="10500" y="14850" transform="matrix(.97518 0 0 .99125 4957.17 336.22)">NN 2</text></g></g></g><g clip-path="url(#1)"><g><g fill="#201e1e" stroke="#201e1e"><g stroke-linejoin="round" stroke-linecap="round"><text x="8384" y="14850" font-family="&apos;Pristina&apos;" stroke-width="40" font-size="1915.41" transform="matrix(1.07977 0 0 .99125-6070.46 5293.41)">Direito </text><text x="10500" y="14850" font-family="&apos;Arial&apos;" stroke-width="50" font-size="720.21" transform="matrix(1.01733 0 0 .99125-7439.04 6546.53)">Texto 2</text></g><g stroke-width="50"><path d="m3245 9893c0 0 294 19 567-118 272-136 491-244 714-244 0 0 205-19 419 112 0 0 11 5 25 19 13 14 13-131 13-131h234l2 140c0 0 212-275 783-45 0 0 642 324 915 258 0 0 31-122 152-52 0 0 85 122-45 174 0 0-56 7-98-38 0 0-156 143-868-164 0 0-489-256-863 125l4 216c0 0 112 80 0 160l-4 2801c0 0 129 47 49 136l129-5 18 122c0 0 758 5 861 324 0 0 223 0 232 132h-2775c0 0-36-108 205-132 0 0 80-309 825-315v-108l170-5c0 0-45-150 62-141l-9-2815c0 0-138-80 0-164l4-211c0 0-321-390-812-127 0 0-633 320-919 179 0 0-174 103-174-80 0-183 228-85 183-5z"/><ellipse cx="3142" cy="10057" rx="41" ry="45"/><ellipse cx="7023" cy="10057" rx="41" ry="45"/><path d="m3139 11897l-854-4 854-1604 911 1613-911-4zm1068 8l-1058-1804c-2 0-4 1-7 1-6 0-12-2-17-4l-980 1763v81c216 694 1701 704 2062-37z"/><path d="m7029 11897l-860-4 860-1585 934 1593-934-4zm1068 8l-1058-1804c-2 0-4 1-7 1-6 0-12-2-17-4l-980 1763v81c216 694 1701 704 2062-37z"/></g><text x="10500" y="14850" font-family="&apos;Pristina&apos;" stroke-width="50" font-size="1345.46" transform="matrix(.74703-.63716.62683.75934-14821.3 2245.14)">Texto 1</text></g><g fill="#373435" font-family="&apos;Arial&apos;" font-size="545.37"><text x="10500" y="14850" transform="matrix(.97518 0 0 .99125-5748.18 95.67)">NN 1</text><text x="10500" y="14850" transform="matrix(.97518 0 0 .99125-5757.87 540.53)">NN 2</text></g></g></g></svg>