<svg xmlns="http://www.w3.org/2000/svg" width="744.09" height="1052.36" viewBox="0 0 21000 29700" shape-rendering="geometricPrecision" image-rendering="optimizeQuality" fill-rule="evenodd" clip-rule="evenodd"><defs><clipPath id="0"><path d="m13556 21608c1153 560 3342 451 4007-588 662-1035 510-3969 572-5408 155-3603 551-6336 652-9241 112-3227-2083-5358-4706-5957-3700-845-3478 4120-2963 6672 271 1371 804 2564 1145 3904 628 2472 63 6247 283 8819 112 889 408 1479 1010 1799"/></clipPath><clipPath id="1"><path d="m6406 21609c-1153 560-3342 449-4006-590-661-1035-508-3970-569-5409-153-3603-548-6336-647-9242-111-3227 2086-5358 4708-5955 3700-843 3475 4122 2959 6674-271 1371-805 2563-1147 3904-630 2471-66 6247-287 8820-113 889-409 1479-1011 1799z"/></clipPath></defs><text x="9938" y="22454" fill="#201e1e" font-family="&apos;Arial Black&apos;" stroke="#201e1e" font-weight="900" stroke-width="7.62" font-size="705.56">34</text><g fill="none" stroke-width="80"><g stroke="#322f30"><circle cx="10533" cy="1326" r="460"/><path d="m10533 515v1621"/><path d="m9723 1326h1621"/></g><g stroke="#373435"><circle cx="10390" cy="23825" r="460"/><path d="m10390 23015v1621"/><path d="m9580 23825h1621"/></g></g><g fill="#373435" font-family="&apos;Arial&apos;" font-weight="normal" font-size="423.33"><text x="812" y="25179">DESC 1</text><text x="776" y="25783">DESC 2</text><text x="759" y="26383">DESC 3</text></g><path d="m13556 21608c1153 560 3342 451 4007-588 662-1035 510-3969 572-5408 155-3603 551-6336 652-9241 112-3227-2083-5358-4706-5957-3700-845-3478 4120-2963 6672 271 1371 804 2564 1145 3904 628 2472 63 6247 283 8819 112 889 408 1479 1010 1799" fill="#fff"/><g clip-path="url(#0)"><g><g stroke="#201e1e"><g fill="#201e1e"><g stroke-width="20"><path d="m12190 10430c3447-2697 4940-5383 5779-7501l110 88c-1099 3421-2483 4924-5885 7428l-4-15z"/><path d="m11155 1798c6837 37 7218 8134 7160 9633 427-4393-1121-9979-7157-9643l-3 10z"/></g><path d="m12780 20741c28-27 56-55 82-83 1050-1129 1345-2132 1671-3031 326-899 1155-3539 3588-3384 0 0 32 2 85 10l1-16c-67-11-108-14-108-14-2433-155-3262 2485-3588 3384-326 899-621 1902-1671 3031-23 25-48 49-72 73 4 10 8 19 12 29z" stroke-linejoin="round" stroke-linecap="round" stroke-width="75"/></g><g stroke-linejoin="round" stroke-linecap="round" stroke-width="75"><g fill="none"><path d="m13170 19983c0 0 835-1131 2047-1717 876-424 1887-282 2847 376"/><path d="m18067 18598c-947-611-1982-767-2814-364-1212 587-2045 1630-2045 1630"/></g><g fill="#201e1e"><path d="m15925 14631c-127 336-440 1129-432 2044 2 160-21 1451 509 2605 115 250 512 1275 1578 1736-6 9-12 18-18 26-54 77-119 148-192 213-471-388-1087-1004-1426-1789-600-1388-458-3115-438-3299 20-183 96-692 261-1124 648-1700 2232-1922 2463-1594 162 230-775-810-2306 1181z"/><path d="m15552 17329c0 0 206 2236 2106 3518-14 29-28 56-42 83-806-586-1802-1681-2064-3601z"/><path d="m15878 14688c0 0-1332 3621 2158 4354l2-17c-3481-734-2158-4339-2158-4339l-2 2z"/><path d="m12655 20378c199-156 393-339 575-554 320-379 804-1132 780-1784-24-652-264-973 297-1765 330-465 763-244 828-207 65 37 474 473 104 740-196 142-483-80-364-245 66-91 137 24 137 24 0 0 38-70-37-111-75-41-257 101-128 273 129 173 498 198 560-170 66-391-446-794-864-531-418 263-643 813-650 1342l3 94c0 0 79 398 82 579 3 181-63 705-329 915 0 0 155-59 255-344 0 0-330 809-686 1281-151 200-295 410-514 623-17-53-34-107-49-162z"/><path d="m12678 18053c203 121 371 47 431-29 0 0 123-124 61-303-39-112-183-262-362-232-180 30-208 135-208 135 0 0-6-307 187-467 193-160 511-168 730-48 219 120 401 424 449 713l-59-337c0 0-166-367-562-483-396-115-635 133-708 228-73 95-187 330-91 585 96 255 357 248 399 179 42-68-24-106-40-121-17-15-126-75-90-176 35-101 131-83 148-82 17 1 146 25 181 149 34 124-48 356-293 335-132-11-298-141-354-338v7c56 195 219 324 351 338 0 0 124 19 212-57 88-76 164-305 6-419-158-114-354 20-361 137 0 0-38-165 180-215 148-34 293 147 291 251-2 104-13 142-73 218-60 76-221 155-425 33zm-176-599c30-100 88-208 183-320-95 111-153 218-183 318v1z"/><path d="m14274 16314c0 0-157 243-147 581 7 254 56 356 87 416 31 59 21 75-37 34-58-42-115-180-123-250-8-70-67-348 220-781z"/><path d="m13758 18579c0 0 334-332 135-803-95-224-300-340-517-263-116 41-255 194-188 352 31 71 101 162 219 149 94-10 133-77 102-125-19-29-34-23-63-54-30-31 13-87 83-52 70 35 44 131 38 151-6 20-68 111-177 106-109-5-266-111-227-315 19-99 132-252 368-249 237 3 425 254 452 585 27 331-95 545-227 519z"/><path d="m12649 20354c200-152 383-327 546-526 0 0-188 203-564 451 6 25 12 50 19 75z"/><path d="m12517 19371c155 170 243 481 83 769-21-105-39-215-53-331-12-142-22-289-29-438zm93 819c109-51 327-155 355-188 0 0-118 107-342 250-5-21-9-41-14-62z"/><path d="m12870 20292c0 0 2761-1921 5205-1839 3-58 6-116 8-174-1118-3-3050 303-5213 2013z"/><path d="m12696 20514c392-265 1714-1125 2750-1404 877-236 1670-330 2600-188-1 18-3 35-4 53-276-48-564-83-820-81-815 5-2045 9-4519 1641-2-7-4-13-7-20z"/><path d="m17409 19492c0 0-261 1220-1486 1545-1225 325-1961 41-2449-52-147-28-387-96-665-180 9 20 19 39 28 58 914 262 1946 492 2800 389 1529-185 1878-805 1860-1254 0 0 129 1234-2460 1214 0 0 1903 89 2373-1720z"/><path d="m12758 19831c0 0 497 84 820-466 128-218 120-219 140-280 20-61 61-388-208-498-97-40-236-44-338 66-102 109-94 261-33 347 61 86 153 119 241 67 88-53 95-181 20-211 0 0 2 45-13 68-14 23-58 68-115 22-58-45-27-119 20-145 47-26 88-12 113 0 25 12 63 62 71 97 8 35 3 116-60 173-63 57-161 51-245-12-84-63-111-185-77-292 34-107 133-212 280-215 147-3 227 74 296 156 68 82 92 256 34 433-30 90-384 734-641 804-256 70-305-102-304-113z"/><path d="m14626 21203c0 0-822-3-960-745-98-525 422-695 517-700 95-5 353 51 432 285 79 234-5 447-253 454-248 7-276-376-35-379 241-3 167 278 54 296-113 19-183-49-190-145-6-76 53-121 53-121 0 0-152 118 8 264 72 66 186 28 232-45 46-73 65-231-103-297-168-65-265 129-278 195-13 67 36 270 238 312 202 42 328-157 363-245 35-89 40-360-135-509-174-149-534-274-865 172-331 447 107 917 221 1013 113 96 446 218 680 206l27-11-7-2z"/><path d="m15358 16466c4 48-29 91-75 96-46 4-87-31-92-80-4-48 29-91 75-96 46-4 87 31 92 80z"/><path d="m15085 20050c9 95-58 180-149 188-91 9-172-62-180-157-9-95 58-180 149-188 91-9 172 62 180 157z"/><path d="m14895 20315c4 43-26 80-66 84-41 4-77-28-80-70-4-43 26-80 66-84 41-4 77 28 80 70z"/><path d="m12597 19182c4 43-26 80-66 84-6 1-13 0-19-1-2-50-4-101-6-151 3-1 7-2 11-2 41-4 77 28 80 70z"/><path d="m14489 20739c2 21-13 40-33 42-20 2-38-14-40-35-2-21 13-40 33-42 20-2 38 14 40 35z"/><path d="m12911 16934c4 48-29 91-75 96-46 4-87-31-92-80-4-48 29-91 75-96 46-4 87 31 91 80z"/><path d="m14442 16049c3 31-19 58-48 61-29 3-55-20-58-51-3-31 19-58 48-61 29-3 55 20 58 51z"/><path d="m14989 14561c8 84-51 158-130 165-80 8-150-54-158-138-8-84 51-158 130-165 80-8 150 54 158 138z"/><path d="m15143 15789c8 84-51 158-130 165-80 8-150-54-158-138-8-84 51-158 130-165 80-8 150 54 158 138z"/></g></g><g fill="#201e1e"><g font-family="&apos;Arial&apos;" stroke-width="7.62" font-size="529.17"><text x="10500" y="14850" transform="matrix(.97503 0 0 .99131 2536.63 571.15)">NN 1</text><text x="10500" y="14850" transform="matrix(.97503 0 0 .99131 2536.64 1095.72)">NN 2</text></g><text x="10500" y="14850" font-family="&apos;Big Truck&apos;" stroke-linejoin="round" stroke-linecap="round" stroke-width="300" font-size="910.2" transform="matrix(.89926.13868-.12706.98156 5332.9-4867.5)">Texto 3</text></g></g><text x="10500" y="14850" fill="#fff" font-family="&apos;Big Truck&apos;" font-size="910.2" transform="matrix(.89926.13868-.12706.98156 5332.9-4867.5)">Texto 3</text></g></g><path d="m6406 21609c-1153 560-3342 449-4006-590-661-1035-508-3970-569-5409-153-3603-548-6336-647-9242-111-3227 2086-5358 4708-5955 3700-843 3475 4122 2959 6674-271 1371-805 2563-1147 3904-630 2471-66 6247-287 8820-113 889-409 1479-1011 1799z" fill="#fff"/><g clip-path="url(#1)"><g><g stroke="#201e1e"><g fill="#201e1e"><g stroke-width="7.62"><path d="m6510 7622c0-415 349-751 778-751 430 0 778 336 778 751 0 415-349 751-778 751-430 0-778-336-778-751zm1851 0c0-603-480-1091-1073-1091-593 0-1073 488-1073 1091 0 603 480 1091 1073 1091 593 0 1073-488 1073-1091z"/><path d="m7288 6969c-374 0-677 292-677 653 0 360 303 653 677 653 374 0 677-292 677-653 0-360-303-653-677-653z"/><path d="m3436 5762c617 0 1117-482 1117-1077 0-595-500-1077-1117-1077-617 0-1117 482-1117 1077 0 595 500 1077 1117 1077zm0-1826c429 0 776 335 776 748 0 413-347 748-776 748-429 0-776-335-776-748 0-413 347-748 776-748z"/><path d="m3436 3294c755 0 1368 623 1368 1391 0 768-612 1391-1368 1391-755 0-1368-623-1368-1391 0-768 612-1391 1368-1391zm1771 1391c0-995-793-1801-1771-1801-978 0-1771 806-1771 1801 0 995 793 1801 1771 1801 978 0 1771-806 1771-1801z"/><path d="m6928 3713c0-582 489-1054 1092-1054 603 0 1092 472 1092 1054 0 582-489 1054-1092 1054-603 0-1092-472-1092-1054zm2329-218c-13 208-29 414-49 617-171 474-638 813-1187 813-694 0-1257-543-1257-1212 0-670 563-1212 1257-1212 617 0 1130 429 1237 995z"/><path d="m6288 3713c0-973 776-1762 1732-1762 498 0 946 214 1262 555-1-124-5-247-10-370-342-282-778-450-1253-450-1101 0-1993 907-1993 2027 0 1119 892 2027 1993 2027 363 0 703-99 996-271 21-117 42-237 62-361-293 230-660 367-1058 367-957 0-1732-789-1732-1762z"/></g><path d="m7230 20622c-462-258-924-515-1150-603-451-175-1661-787-1792-1639-130-853 370-1397 1021-1279 652 118 707 846 498 1045-194 185-348 207-566 126-218-81-229-539 75-515 0 0 129 55 10 71-119 16-269 122-158 344 111 222 573 109 648-130 75-238 92-669-332-854-424-186-861 22-1065 359-203 336-175 936 72 1313 247 377 722 800 1631 1223 283 132 659 348 1090 588 6-16 13-33 19-49z" stroke-linejoin="round" stroke-linecap="round" stroke-width="75"/></g><g stroke-linejoin="round" stroke-linecap="round" stroke-width="75"><g fill="none"><path d="m7236 20608c-966-1026-2524-1829-4754-1097-166 55-329 101-486 139"/><path d="m1990 19616c139-35 281-76 427-124 2270-745 3844 100 4805 1152"/></g><g fill="#201e1e"><path d="m2738 21382c719-436 1497-216 1497-216 0 0 1456 313 2687 16 9-11 18-23 27-34-1241 315-2732-5-2732-5 0 0-783-221-1504 220 8 7 16 13 24 19z"/><path d="m2298 20829c894-407 1918-132 1918-132 0 0 936 198 1392 213 296 10 913-3 1603-239-37 94-79 183-125 266-319 112-723 205-1255 267-858 99-1883-413-2765-168-198 55-361 123-497 195-64-66-121-137-169-213-37-57-71-121-102-189z"/><path d="m6948 20507c0 0-1948-1206-3013-144 0 0 787-1150 3013 112l80 37-80-5z"/><path d="m4294 20545c0 0-1179-361-2045 120 0 0 855-313 2057-14 853 212 1949 286 2923-23 14-38 28-77 40-117-698 202-1714 332-2974 33z"/><path d="m5292 20579c0 0 1398 45 2012-188-8 28-16 55-24 81-488 131-1175 229-1989 106zm2145-1039c-68-23-139-1-189 87 0 0-122-248 197-345 2-1 4-1 6-2-4 88-9 174-14 260z"/><path d="m6925 20504c0 0-1983-1274-2541-771 0 0 289-535 2541 771z"/></g><path d="m2886 21487c175-89 409-170 706-195 754-64 1025 160 2012 112-987 48-1251-240-2005-176-331 28-584 126-764 226" fill="none"/><g fill="#201e1e"><path d="m2303 20354c-8 75-62 134-129 150-32-104-61-216-88-333 22-8 46-11 71-8 91 10 156 96 145 191z"/><path d="m3707 20333c-4 37-36 63-70 59-35-4-60-37-56-73 4-37 36-63 70-59 35 4 60 37 56 74z"/><path d="m3128 20202c-7 60-58 103-116 97-57-7-98-60-91-121 7-60 58-103 116-97 57 7 98 61 91 121z"/><path d="m2816 21358c-3 24-11 46-25 64-70-50-134-105-194-163 26-32 66-50 109-46 68 8 117 72 109 144z"/><path d="m3340 21150c-4 37-36 63-70 59-35-4-60-37-56-73 4-37 36-63 70-59 35 4 60 37 56 74z"/><path d="m5005 20514c-4 37-36 63-70 59-35-4-60-37-56-74 4-37 36-63 70-59 35 4 60 37 56 74z"/><path d="m4060 21297c-4 37-36 63-70 59-35-4-60-37-56-74 4-37 36-63 70-59 35 4 60 37 56 74z"/><path d="m3193 20016c-2 21-21 37-41 34-20-2-35-21-32-43 2-21 21-37 41-34 20 2 35 21 32 43z"/><path d="m3048 21514c-2 21-21 37-41 34-20-2-35-21-32-43 2-21 21-37 41-34 20 2 35 21 32 43z"/><path d="m7348 19214c-3 25-24 43-48 40-24-3-41-25-38-50 3-25 24-43 48-40 24 3 41 25 38 50z"/><path d="m7221 19157c-7 60-58 103-116 97-57-7-98-61-91-121 7-60 58-103 116-97 57 7 98 61 91 121z"/><path d="m4610 20479c-3 25-24 43-48 40-24-3-41-25-38-50 3-25 24-43 48-40 24 3 41 25 38 50z"/><path d="m4484 20422c-7 60-58 103-116 97-57-7-98-61-91-121 7-60 58-103 116-97 57 7 98 61 91 121z"/></g></g><g fill="#201e1e"><g stroke-width="7.62"><path d="m2824 14886c0-520 437-941 976-941 539 0 976 421 976 941 0 520-437 941-976 941-539 0-976-421-976-941zm-147 0c0 598 503 1083 1122 1083 620 0 1122-485 1122-1083 0-598-503-1083-1122-1083-620 0-1122 485-1122 1083z"/><path d="m6400 12981c-207 0-375 162-375 361 0 200 168 361 375 361 207 0 375-162 375-361 0-200-168-361-375-361z"/><path d="m5739 13342c0-371 296-671 660-671 365 0 660 301 660 671 0 371-296 671-660 671-365 0-660-301-660-671zm1515 0c0-480-383-869-855-869-472 0-855 389-855 869 0 480 383 869 855 869 472 0 855-389 855-869z"/></g><g font-family="&apos;Big Truck&apos;" stroke-linejoin="round" stroke-linecap="round" stroke-width="300" font-size="1047.94"><text x="10500" y="14850" transform="matrix(.84314.13869-.11913.98161-5357.06-6327.04)">Texto 1</text><text x="10500" y="14850" transform="matrix(.84314.13869-.11913.98161-4455.69-4710.2)">Texto 2</text></g><path d="m2253 14886c0-869 693-1573 1547-1573 854 0 1547 704 1547 1573 0 869-693 1573-1547 1573-854 0-1547-704-1547-1573zm3327 0c0-1000-797-1810-1780-1810-983 0-1780 810-1780 1810 0 1000 797 1810 1780 1810 983 0 1780-810 1780-1810z" stroke-width="7.62"/><g stroke-linejoin="round" stroke-linecap="round" stroke-width="75"><path d="m5787 17059c-5 48-47 83-93 78-46-5-79-49-74-97 5-48 47-83 93-78 46 5 79 49 74 97z"/><path d="m5366 16893c-9 83-81 144-161 135-79-9-136-84-127-168 9-84 81-144 161-135 79 9 136 84 127 168z"/><path d="m4740 17100c-3 25-24 43-48 40-24-3-41-25-38-50 3-25 24-43 48-40 24 3 41 25 38 50z"/></g></g></g><text x="10500" y="14850" fill="#fff" font-family="&apos;Big Truck&apos;" font-size="1047.94" transform="matrix(.87355.13869-.12342.98161-4781.01-4675.24)">Texto 2</text><g fill="#201e1e" font-family="&apos;Arial&apos;" stroke="#201e1e" stroke-width="7.62" font-size="529.17"><text x="10500" y="14850" transform="matrix(.97491 0 0 .99136-4393.41 912.4)">NN 1</text><text x="10500" y="14850" transform="matrix(.97491 0 0 .99136-4393.41 1402.01)">NN 2</text></g><text x="10500" y="14850" fill="#fff" font-family="&apos;Big Truck&apos;" font-size="1047.94" transform="matrix(.80706.13869-.11403.98161-4966.43-6292.08)">Texto 1</text></g></g></svg>