<svg xmlns="http://www.w3.org/2000/svg" width="744.09" height="1052.36" viewBox="0 0 21000 29700" shape-rendering="geometricPrecision" image-rendering="optimizeQuality" fill-rule="evenodd" clip-rule="evenodd" xmlns:xlink="http://www.w3.org/1999/xlink"><defs><clipPath id="2"><path d="m13945 26657c1334 681 3868 548 4636-715 766-1259 590-4828 662-6578 179-4382 638-7706 755-11240 130-3925-2410-6518-5445-7246-4282-1028-4025 5012-3428 8115 313 1667 931 3118 1325 4748 727 3006 73 7598 327 10727 130 1082 473 1799 1169 2188z"/></clipPath><clipPath id="3"><path d="m7187 26658c-1334 681-3868 546-4635-718-765-1259-588-4828-658-6579-177-4383-634-7707-749-11241-128-3925 2413-6516 5448-7243 4282-1025 4022 5014 3424 8118-314 1667-932 3118-1327 4748-729 3006-77 7598-333 10727-131 1082-474 1799-1170 2188"/></clipPath></defs><text x="10081" y="23623" fill="#201e1e" font-family="&apos;Arial Black&apos;" stroke="#201e1e" font-weight="900" stroke-width="7.62" font-size="705.56">42</text><circle cx="10533" cy="1326" r="460" fill="none" stroke="#373435" stroke-width="80"/><path fill="none" stroke="#373435" stroke-width="80" d="m10533 515v1621" id="0"/><path fill="none" stroke="#373435" stroke-width="80" d="m9723 1326h1621" id="1"/><g fill="none" stroke="#373435" stroke-width="80"><circle cx="10533" cy="24995" r="460"/><path d="m10533 24184v1621"/><path d="m9723 24995h1621"/></g><rect x="9508" y="21571" width="1347" height="637" rx="318" fill="#fff" stroke="#fff" stroke-width="20"/><g fill="#373435" font-family="&apos;Arial&apos;" font-weight="normal" font-size="423.33"><text x="665" y="27449">DESC 1</text><text x="630" y="28053">DESC 2</text><text x="612" y="28653">DESC 3</text></g><circle cx="10533" cy="1326" r="460" fill="none" stroke="#373435" stroke-width="80"/><use xlink:href="#0"/><use xlink:href="#1"/><path d="m13945 26657c1334 681 3868 548 4636-715 766-1259 590-4828 662-6578 179-4382 638-7706 755-11240 130-3925-2410-6518-5445-7246-4282-1028-4025 5012-3428 8115 313 1667 931 3118 1325 4748 727 3006 73 7598 327 10727 130 1082 473 1799 1169 2188z" fill="#fff"/><g clip-path="url(#2)"><g><g stroke="#201e1e"><g fill="#201e1e"><g stroke-width="20"><path d="m12363 13061c3989-3280 5716-6547 6687-9124l127 106c-1271 4161-2873 5989-6810 9035l-5-18z"/><path d="m11166 2562c7911 45 8353 9894 8286 11717 494-5344-1297-12138-8282-11729l-4 12z"/></g><path d="m13047 25602c33-33 65-66 95-101 1215-1373 1557-2593 1934-3687 377-1094 1336-4305 4152-4116 0 0 36 2 98 12l1-19c-78-14-125-17-125-17-2815-189-3775 3023-4152 4116-377 1094-719 2314-1934 3687-27 31-55 60-84 89 5 12 9 24 14 35z" stroke-linejoin="round" stroke-linecap="round" stroke-width="75"/></g><g stroke-linejoin="round" stroke-linecap="round" stroke-width="75"><g fill="none"><path d="m13498 24680c0 0 966-1376 2368-2089 1013-516 2184-343 3295 458"/><path d="m19164 22996c-1096-743-2293-933-3257-443-1402 713-2366 1983-2366 1983"/></g><g fill="#201e1e"><path d="m16686 18171c-146 409-509 1374-499 2487 2 194-24 1764 589 3168 133 304 593 1551 1826 2112-7 11-13 21-20 32-63 93-137 180-222 259-545-472-1257-1222-1650-2176-694-1688-530-3789-507-4012 23-223 111-841 302-1367 750-2068 2583-2338 2851-1939 188 280-896-986-2669 1436z"/><path d="m16254 21452c0 0 238 2720 2437 4279-16 35-32 68-49 101-932-713-2085-2045-2388-4380z"/><path d="m16631 18240c0 0-1541 4405 2498 5295l2-20c-4028-893-2497-5278-2497-5278l-2 3z"/><path d="m12902 25161c230-190 455-412 665-673 370-461 931-1377 903-2169-28-792-305-1183 344-2146 382-566 883-297 958-252 75 45 548 575 120 901-227 173-558-98-422-298 76-111 158 29 158 29 0 0 44-85-43-135-86-50-297 123-148 333 149 210 577 241 648-206 76-476-516-965-1000-646-484 320-744 988-752 1632l3 115c0 0 91 485 95 704 4 220-73 858-381 1114 0 0 180-72 296-418 0 0-382 984-794 1558-175 244-342 499-595 757-20-64-39-130-57-198z"/><path d="m12928 22333c235 148 430 57 499-36 0 0 142-151 71-368-45-136-212-319-419-282-208 37-241 164-241 164 0 0-7-373 216-568 224-195 592-204 845-58 253 146 464 516 520 867l-68-410c0 0-192-447-651-587-458-140-734 161-819 277-84 116-216 401-105 711 111 310 413 301 462 218 49-83-28-129-47-147-19-18-145-91-104-214 41-123 152-101 171-100 19 1 169 30 209 181 40 151-55 432-339 407-153-14-345-171-410-411v8c65 238 254 394 406 412 0 0 143 23 245-69 102-92 190-372 7-510-183-138-410 24-417 166 0 0-44-200 209-262 171-42 339 179 337 305-2 126-15 173-84 265-69 92-256 188-491 40zm-203-729c34-122 101-253 212-389-110 135-177 266-212 387v2z"/><path d="m14776 20218c0 0-181 295-170 706 9 309 64 434 101 506 36 72 25 92-43 41-68-51-133-219-143-304-10-85-78-424 255-949z"/><path d="m14179 22973c0 0 387-404 157-977-109-273-347-414-598-320-135 50-295 236-217 429 35 87 117 197 254 181 109-13 154-94 118-152-22-36-39-28-73-66-34-38 15-105 96-63 81 42 51 160 44 184-7 24-79 135-205 129-126-6-307-136-263-383 22-121 153-306 426-303 274 3 492 309 523 712 31 403-110 663-262 631z"/><path d="m12895 25131c231-185 444-397 631-640 0 0-218 247-653 549 7 31 14 61 22 91z"/><path d="m12742 23936c180 206 281 585 96 935-24-128-45-262-62-402-14-173-25-351-34-533zm108 997c126-62 378-189 411-229 0 0-136 130-395 304-5-25-11-50-16-76z"/><path d="m13150 25057c0 0 3195-2336 6023-2237 3-70 6-141 9-212-1294-4-3529 368-6032 2448z"/><path d="m12949 25327c454-323 1984-1369 3182-1708 1014-287 1933-402 3009-229-2 22-3 43-5 65-319-59-652-101-949-99-943 6-2367 11-5229 1996-3-8-5-16-8-25z"/><path d="m18403 24083c0 0-301 1484-1719 1879-1418 396-2269 50-2834-63-170-34-448-117-770-219 11 24 22 47 33 71 1058 319 2252 599 3240 473 1769-225 2173-979 2152-1525 0 0 149 1501-2847 1477 0 0 2202 108 2746-2092z"/><path d="m13022 24496c0 0 575 102 948-567 148-266 138-266 161-340 23-74 70-471-240-606-113-49-273-53-391 80-118 133-109 318-38 423 70 105 177 145 279 81 101-64 110-220 23-257 0 0 2 55-15 83-17 28-67 82-133 27-67-55-32-144 23-176 55-32 101-14 131 0 29 14 73 76 83 118 10 42 4 141-69 211-73 69-187 62-284-15-97-77-129-225-89-355 40-130 154-258 324-262 170-4 263 89 342 189 79 100 106 311 39 526-34 110-445 893-741 978-297 85-353-125-351-138z"/><path d="m15182 26164c0 0-951-3-1111-906-113-639 489-846 599-852 110-6 408 62 500 346 91 284-6 543-293 552-287 9-319-457-40-460 279-3 193 338 62 360-131 23-211-60-220-176-7-92 61-147 61-147 0 0-176 144 9 321 83 80 216 34 269-55 53-88 75-281-119-361-194-80-306 156-321 237-15 81 42 328 276 380 234 51 380-191 420-299 40-108 46-437-156-619-202-182-617-334-1001 210-384 543 124 1115 255 1233 131 117 516 265 787 251l31-13-8-3z"/><path d="m16030 20403c5 59-34 111-87 116-53 5-101-38-106-97-5-59 34-111 87-116 53-5 101 38 106 97z"/><path d="m15714 24762c10 116-67 219-172 229-105 10-198-75-209-191-10-116 67-218 172-229 105-10 198 75 209 191z"/><path d="m15494 25084c5 52-30 97-77 102-47 5-89-33-93-85-5-52 30-98 77-102 47-5 89 34 93 85z"/><path d="m12835 23706c5 52-30 98-77 102-7 1-15 0-22-1-3-61-5-122-7-184 4-1 8-2 12-2 47-5 89 33 93 85z"/><path d="m15024 25600c2 26-15 49-38 51-23 2-44-17-47-43-2-26 15-49 38-51 23-2 44 17 47 43z"/><path d="m13198 20972c5 59-34 111-87 116-53 5-101-38-106-97-5-59 34-111 87-116 53-5 101 38 106 97z"/><path d="m14970 19895c3 38-22 71-56 74-34 3-64-24-67-62-3-37 22-71 56-74 34-3 64 24 67 62z"/><path d="m15603 18085c9 102-59 192-151 201-92 9-174-66-183-168-9-102 59-192 151-201 92-9 174 66 183 168z"/><path d="m15781 19580c9 102-59 192-151 201-92 9-174-66-183-168-9-102 59-192 151-201 92-9 174 66 183 168z"/></g></g><g fill="#201e1e"><g font-family="&apos;Arial&apos;" stroke-width="7.62" font-size="529.17"><text x="10500" y="14850" transform="matrix(1.12827 0 0 1.20574 1193.31 1069.77)">NN 1</text><text x="10500" y="14850" transform="matrix(1.12827 0 0 1.20574 1193.32 1707.81)">NN 2</text></g><text x="10500" y="14850" font-family="&apos;Big Truck&apos;" stroke-linejoin="round" stroke-linecap="round" stroke-width="300" font-size="910.2" transform="matrix(1.04058.16868-.14702 1.19388 4429.05-5545.3)">Texto 3</text></g></g><text x="10500" y="14850" fill="#fff" font-family="&apos;Big Truck&apos;" font-size="910.2" transform="matrix(1.04058.16868-.14702 1.19388 4429.05-5545.3)">Texto 3</text></g></g><path d="m7187 26658c-1334 681-3868 546-4635-718-765-1259-588-4828-658-6579-177-4383-634-7707-749-11241-128-3925 2413-6516 5448-7243 4282-1025 4022 5014 3424 8118-314 1667-932 3118-1327 4748-729 3006-77 7598-333 10727-131 1082-474 1799-1170 2188" fill="#fff"/><g clip-path="url(#3)"><g><g stroke="#201e1e"><g fill="#201e1e"><g stroke-width="7.62"><path d="m7308 9646c0-504 403-913 901-913 498 0 901 409 901 913 0 504-403 913-901 913-498 0-901-409-901-913zm2142 0c0-733-556-1327-1242-1327-686 0-1242 594-1242 1327 0 733 556 1327 1242 1327 686 0 1242-594 1242-1327z"/><path d="m8208 8852c-432 0-783 355-783 794 0 438 351 794 783 794 432 0 783-355 783-794 0-438-351-794-783-794z"/><path d="m3750 7383c714 0 1292-587 1292-1310 0-724-579-1310-1292-1310-714 0-1292 587-1292 1310 0 724 579 1310 1292 1310zm0-2220c496 0 898 408 898 910 0 503-402 910-898 910-496 0-898-408-898-910 0-503 402-910 898-910z"/><path d="m3750 4381c874 0 1583 757 1583 1691 0 934-709 1691-1583 1691-874 0-1583-757-1583-1691 0-934 709-1691 1583-1691zm2049 1691c0-1210-917-2190-2049-2190-1132 0-2049 981-2049 2190 0 1210 917 2190 2049 2190 1132 0 2049-981 2049-2190z"/><path d="m7791 4891c0-708 566-1282 1264-1282 698 0 1264 574 1264 1282 0 708-566 1282-1264 1282-698 0-1264-574-1264-1282zm2695-265c-15 253-34 504-57 750-198 576-738 989-1374 989-803 0-1454-660-1454-1475 0-814 651-1475 1454-1475 714 0 1308 522 1431 1210z"/><path d="m7051 4891c0-1183 898-2143 2005-2143 576 0 1095 260 1461 676-2-151-5-301-11-450-396-342-900-548-1449-548-1274 0-2306 1104-2306 2465 0 1362 1033 2465 2306 2465 420 0 814-120 1153-330 25-142 48-289 71-439-339 280-763 446-1224 446-1107 0-2005-959-2005-2143z"/></g><path d="m8142 25458c-535-314-1069-626-1331-733-522-213-1922-957-2073-1994-151-1037 428-1699 1182-1556 754 143 818 1030 576 1271-225 224-402 252-655 153-253-99-265-656 87-626 0 0 150 67 12 86-138 19-311 149-183 419 128 270 663 132 750-158 87-290 106-813-384-1039-491-226-997 27-1232 436-235 409-203 1138 83 1597 286 459 835 973 1887 1488 327 160 763 424 1261 716 7-20 15-40 22-60z" stroke-linejoin="round" stroke-linecap="round" stroke-width="75"/></g><g stroke-linejoin="round" stroke-linecap="round" stroke-width="75"><g fill="none"><path d="m8148 25440c-1117-1248-2921-2225-5502-1335-193 66-380 122-563 169"/><path d="m2078 24234c161-43 325-92 494-150 2626-906 4448 122 5560 1401"/></g><g fill="#201e1e"><path d="m2943 26383c833-531 1733-263 1733-263 0 0 1684 380 3110 19 10-14 21-28 31-42-1436 384-3161-6-3161-6 0 0-906-269-1740 268 9 8 19 16 28 23z"/><path d="m2434 25710c1035-495 2219-161 2219-161 0 0 1084 241 1611 259 342 12 1057-3 1855-291-43 115-91 223-145 324-369 136-836 249-1452 324-993 121-2179-503-3200-204-229 67-418 149-575 237-74-81-140-167-196-259-42-70-82-147-119-230z"/><path d="m7814 25318c0 0-2254-1467-3487-175 0 0 911-1399 3486 136l93 45-93-6z"/><path d="m4744 25364c0 0-1365-439-2367 146 0 0 990-380 2380-17 987 258 2255 347 3382-28 16-46 32-93 47-142-808 246-1984 404-3442 41z"/><path d="m5899 25405c0 0 1617 54 2328-228-9 34-18 67-27 99-565 160-1360 279-2301 129zm2482-1264c-79-28-160-1-218 106 0 0-141-301 228-420 2-1 5-1 7-2-5 107-10 212-16 316z"/><path d="m7788 25315c0 0-2294-1550-2940-937 0 0 335-650 2940 937z"/></g><path d="m3115 26510c202-108 473-207 818-237 872-78 1186 195 2328 137-1142 58-1448-292-2320-214-383 34-676 153-884 275" fill="none"/><g fill="#201e1e"><path d="m2440 25132c-10 92-71 163-149 183-37-127-71-262-101-405 26-10 54-13 82-10 105 13 180 117 168 233z"/><path d="m4064 25106c-5 45-41 77-82 72-40-5-69-45-64-89 5-45 41-77 81-72 40 5 69 45 65 89z"/><path d="m3394 24947c-8 73-68 126-134 118-66-8-114-74-106-147 8-73 68-126 134-118 66 8 114 74 106 147z"/><path d="m3033 26353c-3 29-13 56-28 78-81-61-156-127-224-198 30-39 77-61 126-55 79 10 136 88 126 175z"/><path d="m3640 26100c-5 45-41 77-82 72-40-5-69-45-64-89 5-45 41-77 82-72 40 5 69 45 64 89z"/><path d="m5567 25326c-5 45-41 77-82 72-40-5-69-45-64-89 5-45 41-77 82-72 40 5 69 45 65 89z"/><path d="m4473 26279c-5 45-41 77-82 72-40-5-69-45-64-89 5-45 41-77 81-72 40 5 69 45 65 89z"/><path d="m3470 24721c-3 26-24 44-47 42-23-3-40-26-37-52 3-26 24-44 47-42 23 3 40 26 37 52z"/><path d="m3302 26542c-3 26-24 44-47 42-23-3-40-26-37-52 3-26 24-44 47-42 23 3 40 26 37 52z"/><path d="m8277 23746c-3 30-28 52-55 49-27-3-47-31-44-61 3-30 28-52 55-49 27 3 47 31 44 61z"/><path d="m8131 23676c-8 73-68 126-134 118-66-8-114-74-106-147 8-73 68-126 134-118 66 8 114 74 106 147z"/><path d="m5110 25284c-3 30-28 52-55 49-27-3-47-31-44-61 3-30 28-52 55-49 27 3 47 31 44 61z"/><path d="m4964 25214c-8 73-68 126-134 118-66-8-114-74-106-147 8-73 68-126 134-118 66 8 114 74 106 147z"/></g></g><g fill="#201e1e"><g stroke-width="7.62"><path d="m3043 18481c0-632 505-1144 1129-1144 623 0 1129 512 1129 1144 0 632-505 1144-1129 1144-623 0-1129-512-1129-1144zm-170 0c0 727 582 1317 1299 1317 717 0 1299-590 1299-1317 0-727-582-1317-1299-1317-717 0-1299 590-1299 1317z"/><path d="m7180 16164c-239 0-434 197-434 440 0 243 194 440 434 440 239 0 434-197 434-440 0-243-194-440-434-440z"/><path d="m6416 16603c0-451 342-817 764-817 422 0 764 366 764 817 0 451-342 817-764 817-422 0-764-366-764-817zm1753 0c0-584-443-1057-989-1057-546 0-989 473-989 1057 0 584 443 1057 989 1057 546 0 989-473 989-1057z"/></g><g font-family="&apos;Big Truck&apos;" stroke-linejoin="round" stroke-linecap="round" stroke-width="300" font-size="1047.94"><text x="10500" y="14850" transform="matrix(.97565.16869-.13785 1.19394-6424.08-7320.54)">Texto 1</text><text x="10500" y="14850" transform="matrix(.97565.16869-.13785 1.19394-5381.04-5353.97)">Texto 2</text></g><path d="m2382 18481c0-1057 801-1913 1790-1913 989 0 1790 857 1790 1913 0 1057-801 1913-1790 1913-989 0-1790-857-1790-1913zm3850 0c0-1216-922-2201-2060-2201-1138 0-2060 986-2060 2201 0 1216 922 2201 2060 2201 1138 0 2060-986 2060-2201z" stroke-width="7.62"/><g stroke-linejoin="round" stroke-linecap="round" stroke-width="75"><path d="m6472 21124c-6 59-54 101-108 95-53-6-91-59-85-118 6-59 54-101 108-95 53 6 91 59 85 118z"/><path d="m5984 20922c-11 101-94 175-186 164-92-11-158-102-147-204 11-102 94-175 186-164 92 11 158 102 147 204z"/><path d="m5260 21174c-3 30-28 52-55 49-27-3-47-30-44-61 3-30 28-52 55-49 27 3 47 30 44 61z"/></g></g></g><text x="10500" y="14850" fill="#fff" font-family="&apos;Big Truck&apos;" font-size="1047.94" transform="matrix(1.0108.16869-.14282 1.19394-5757.5-5311.44)">Texto 2</text><g fill="#201e1e" font-family="&apos;Arial&apos;" stroke="#201e1e" stroke-width="7.62" font-size="529.17"><text x="10500" y="14850" transform="matrix(1.12813 0 0 1.2058-5308.98 1484.84)">NN 1</text><text x="10500" y="14850" transform="matrix(1.12813 0 0 1.2058-5308.98 2080.36)">NN 2</text></g><text x="10500" y="14850" fill="#fff" font-family="&apos;Big Truck&apos;" font-size="1047.94" transform="matrix(.9339.16869-.13195 1.19394-5972.05-7278.01)">Texto 1</text></g></g></svg>