<svg xmlns="http://www.w3.org/2000/svg" viewBox="0 0 500 707" shape-rendering="geometricPrecision" image-rendering="optimizeQuality" fill-rule="evenodd" clip-rule="evenodd"><defs><clipPath id="0"><path d="m336 616c28 13 81 11 98-14 16-25 12-95 14-130 3-87 13-152 15-222 3-77-50-129-114-143-91-20-85 99-73 160 7 33 20 62 28 94 15 59 2 150 7 212 3 21 10 35 25 43"/></clipPath><clipPath id="1"><path d="m167 616c-28 13-82 11-98-14-16-25-12-95-14-130-3-87-13-152-16-222-2-77 51-129 115-143 91-20 85 99 73 160-7 33-20 62-28 94-16 59-2 150-7 212-3 21-10 35-25 43"/></clipPath></defs><g clip-path="url(#0)"><g><g stroke="#201e1e"><g fill="#201e1e"><g stroke-width=".476"><path d="m302 348c85-65 121-130 141-181l3 2c-27 83-60 119-144 179z"/><path d="m277 140c167 1 176 196 175 232 10-106-27-240-175-232z"/></g><path d="m317 595c0 0 1-1 2-2 25-27 33-51 41-73 8-21 28-85 87-81 0 0 1 0 2 0-1 0-2 0-2 0-60-4-80 59-88 81-8 22-15 46-41 73 0 0-1 1-2 2 1 0 1 0 1 0z" stroke-linejoin="round" stroke-linecap="round" stroke-width="1.786"/></g><g stroke-linejoin="round" stroke-linecap="round"><g stroke-width="1.786"><g fill="none"><path d="m326 577c0 0 21-27 50-41 22-10 46-7 70 9"/><path d="m446 544c-23-15-49-19-69-9-29 14-50 39-50 39"/></g><g fill="#201e1e"><path d="m394 448c-4 9-11 28-11 50 0 3 0 34 12 62 3 6 13 31 39 42-2 2-3 4-5 6-12-10-27-25-35-43-15-34-11-75-11-80 1-4 3-16 7-27 16-40 54-46 60-38 4 6-19-19-56 28z"/><path d="m384 513c0 0 5 54 52 85 0 0-1 1-1 2-20-14-44-41-51-87z"/><path d="m392 450c0 0-32 87 53 104-85-18-53-104-53-104z"/><path d="m314 586c5-3 9-8 14-13 8-9 19-27 19-43-1-15-7-23 7-42 8-11 19-6 20-5 2 1 12 11 3 18-5 3-12-2-9-6 2-2 3 0 3 0 0 0 1-1-1-2-1-1-6 2-3 6 3 5 12 5 14-4 2-9-11-19-21-12-10 6-16 19-16 32v2c0 0 2 10 2 14 0 4-2 17-8 22 0 0 4-1 6-8 0 0-8 19-17 30-3 5-7 10-12 15-1-1-1-2-1-4z"/><path d="m314 531c5 3 9 1 11-1 0 0 3-3 1-7-1-3-4-7-9-6-4 1-5 3-5 3 0 0 0-7 5-11 5-4 12-4 18-1 5 3 10 10 11 17l-2-8c0 0-4-9-13-12-10-2-16 4-18 6-2 2-4 8-2 14 2 6 9 6 10 4 1-1-1-2-1-3-1 0-3-1-2-4 0-2 3-2 3-2 1 0 4 1 5 4 0 3-2 8-8 8-3-1-7-4-8-8 1 4 5 8 8 8 0 0 3 0 6-1 2-2 4-8 0-11-4-2-9 1-9 4 0 0-1-4 4-5 4-1 7 3 7 6 0 2 0 3-1 5-2 2-6 4-11 1zm-4-15c1-2 2-5 4-7-2 2-3 5-4 7z"/><path d="m353 489c0 0-4 6-3 14 0 6 1 8 2 10 1 1 0 2-1 1-2-1-3-5-3-6 0-2-2-9 5-19z"/><path d="m341 543c0 0 8-8 3-19-2-5-7-8-13-6-2 1-6 4-4 8 1 2 2 4 5 4 2-1 3-2 3-3-1-1-1-1-2-2-1 0 0-2 2-1 2 1 1 3 1 4 0 0-2 2-4 2-3 0-7-2-6-7 1-3 3-6 9-6 6 0 11 6 11 14 1 8-2 13-5 12z"/><path d="m314 586c4-4 9-8 13-13 0 0-5 5-14 11 0 1 0 1 1 2z"/><path d="m310 562c4 4 6 12 2 19 0-3-1-5-1-8 0-4 0-7-1-11zm3 20c2-1 8-4 8-5 0 0-3 3-8 6 0 0 0-1 0-1z"/><path d="m319 584c0 0 67-46 127-44 0-1 0-3 0-4-27 0-74 7-127 48z"/><path d="m315 590c9-7 42-27 67-34 21-6 41-8 63-4 0 0 0 0 0 1-6-1-14-2-20-2-20 0-50 0-110 39z"/><path d="m430 565c0 0-7 30-36 37-30 8-48 1-60-1-4-1-10-2-17-4 1 0 1 1 1 1 22 6 48 12 69 9 37-4 45-19 45-30 0 0 3 30-60 30 0 0 46 2 58-42z"/><path d="m316 573c0 0 12 2 20-11 3-5 3-5 4-7 0-1 1-9-5-12-3 0-6-1-9 2-2 3-2 6 0 8 1 2 3 3 5 2 3-1 3-4 1-5 0 0 0 1 0 2-1 0-2 1-3 0-2-1-1-3 0-3 1-1 2-1 3 0 1 0 2 1 2 2 0 1 0 3-2 4-1 2-4 1-6 0-2-2-2-5-2-7 1-3 4-5 7-5 4 0 6 1 7 3 2 2 3 7 1 11 0 2-9 17-15 19-7 2-8-2-8-3z"/><path d="m362 606c0 0-20 0-24-18-2-12 11-16 13-16 2-1 9 1 11 6 1 6-1 11-7 11-6 1-6-9 0-9 5 0 4 7 1 7-3 1-5-1-5-3 0-2 2-3 2-3 0 0-4 3 0 6 1 2 4 1 5-1 1-2 2-5-2-7-4-1-7 3-7 5 0 1 1 6 6 7 5 1 8-3 9-6 1-2 1-8-4-12-4-3-13-6-21 4-8 11 3 22 6 25 3 2 11 5 16 5l1-1z"/><path d="m380 493c0 1-1 2-2 2-1 0-2-1-2-2 0-1 0-2 1-2 2 0 3 0 3 2z"/><path d="m373 579c0 2-1 4-4 4-2 0-4-1-4-4 0-2 1-4 4-4 2 0 4 1 4 4z"/><path d="m368 585c1 1 0 2-1 2-1 0-2-1-2-2 0-1 0-2 1-2 1 0 2 1 2 2z"/><path d="m312 558c0 1 0 2-1 2 0 0-1 0-1 0 0-1 0-3 0-4 1 0 2 1 2 2z"/><path d="m358 595c1 1 0 1 0 1-1 0-1 0-1-1 0 0 0-1 1-1 0 0 0 1 0 1z"/><path d="m320 504c0 1-1 2-2 2-1 0-2-1-2-2 0-1 1-2 2-2 1 0 2 1 2 2z"/><path d="m357 483c0 0 0 1-1 1-1 0-1 0-1-1 0-1 0-2 1-2 1 0 1 1 1 2z"/><path d="m371 447c0 2-2 4-3 4-2 0-4-2-4-4-1-2 1-3 3-4 2 0 4 2 4 4z"/><path d="m374 476c1 2-1 4-3 4-2 0-3-1-4-3 0-2 2-4 4-4 2 0 3 1 3 3z"/></g></g><text x="250" y="354" fill="#201e1e" font-family="&apos;Big Truck&apos;" stroke-width="7.143" font-size="21.671" transform="matrix(.92229.1399-.13031.99017 134.91-19.855)">Texto 03</text></g></g><text x="250" y="354" fill="#fff" font-family="&apos;Big Truck&apos;" font-size="21.671" transform="matrix(.92229.1399-.13031.99017 134.91-19.855)">Texto 03</text></g></g><g clip-path="url(#1)"><g><g stroke="#201e1e"><g fill="#201e1e"><g stroke-width=".181"><path d="m170 280c0-10 8-18 19-18 10 0 19 8 19 18 0 10-9 18-19 18-11 0-19-8-19-18zm45 0c0-14-12-26-26-26-15 0-27 12-27 26 0 15 12 26 27 26 14 0 26-11 26-26z"/><path d="m189 264c-10 0-17 7-17 16 0 9 7 16 17 16 9 0 16-7 16-16 0-9-7-16-16-16z"/><path d="m94 235c16 0 28-11 28-25 0-15-12-26-28-26-15 0-27 11-27 26 0 14 12 25 27 25zm0-43c11 0 19 8 19 18 0 10-8 18-19 18-10 0-18-8-18-18 0-10 8-18 18-18z"/><path d="m94 176c19 0 34 15 34 34 0 18-15 33-34 33-18 0-33-15-33-33 0-19 15-34 33-34zm44 34c0-24-20-44-44-44-23 0-43 20-43 44 0 23 20 43 43 43 24 0 44-20 44-43z"/><path d="m180 186c0-14 12-25 26-25 15 0 27 11 27 25 0 14-12 26-27 26-14 0-26-12-26-26zm57-5c-1 5-1 10-2 15-4 11-15 19-29 19-17 0-30-13-30-29 0-16 13-29 30-29 15 0 28 10 31 24z"/><path d="m164 186c0-23 19-42 42-42 13 0 24 5 31 13 0-3 0-6 0-9-8-6-19-10-31-10-26 0-48 21-48 48 0 27 22 49 48 49 9 0 18-2 25-7 0-2 1-5 1-8-7 5-16 9-26 9-23 0-42-19-42-43z"/></g><path d="m187 592c-11-6-22-12-28-14-11-4-41-19-44-39-3-21 9-34 25-31 16 3 17 20 12 25-4 4-8 5-13 3-6-2-6-13 1-12 0 0 4 1 1 1-3 1-7 3-4 9 2 5 14 2 16-4 1-5 2-16-9-20-10-5-21 0-26 8-4 9-4 23 2 32 6 9 18 19 40 29 7 4 16 9 27 15 0-1 0-1 0-2z" stroke-linejoin="round" stroke-linecap="round" stroke-width="1.786"/></g><g stroke-linejoin="round" stroke-linecap="round" stroke-width="1.786"><g fill="none"><path d="m187 592c-23-25-61-44-116-26-4 1-8 2-12 3"/><path d="m59 568c4-1 7-2 11-3 55-18 93 3 117 28"/></g><g fill="#201e1e"><path d="m77 611c18-11 37-6 37-6 0 0 36 8 66 1 0 0 0-1 0-1-30 8-66 0-66 0 0 0-20-5-37 5 0 0 0 0 0 1z"/><path d="m67 597c22-9 47-3 47-3 0 0 22 5 34 5 7 1 22 0 39-5-1 2-2 4-3 6-8 3-18 5-31 6-21 3-46-10-68-4-4 2-8 3-12 5-1-2-3-3-4-5-1-2-2-3-2-5z"/><path d="m180 590c0 0-47-29-73-4 0 0 19-28 73 3l2 1h-2z"/><path d="m115 590c0 0-28-8-50 3 0 0 21-7 51 0 21 5 47 7 71-1 0 0 1-1 1-2-17 5-42 8-73 0z"/><path d="m140 591c0 0 34 1 49-4 0 0 0 1-1 2-12 3-28 5-48 2zm52-25c-1 0-3 0-4 2 0 0-3-5 4-8 0 0 0 0 1 0-1 2-1 4-1 6z"/><path d="m180 590c0 0-49-31-62-19 0 0 7-13 62 19z"/></g><path d="m81 613c4-2 10-4 17-5 19-1 25 4 49 3-24 1-30-6-49-4-8 1-14 3-18 5" fill="none"/><g fill="#201e1e"><path d="m67 586c0 2-2 3-3 4-1-3-2-6-2-8 0-1 1-1 1-1 2 1 4 3 4 5z"/><path d="m101 585c0 1-1 2-2 2 0 0-1-1-1-2 0-1 1-1 2-1 1 0 1 1 1 1z"/><path d="m87 582c0 2-1 3-3 3-1-1-2-2-2-3 0-2 1-3 3-3 1 1 2 2 2 3z"/><path d="m79 610c0 1 0 1 0 2-2-2-4-3-5-4 1-1 2-2 3-1 1 0 3 1 2 3z"/><path d="m92 605c0 1-1 2-2 1 0 0-1 0-1-1 0-1 1-2 2-2 1 0 1 1 1 2z"/><path d="m133 590c0 1-1 1-2 1-1 0-1-1-1-2 0 0 1-1 1-1 1 0 2 1 2 2z"/><path d="m110 609c0 0-1 1-2 1-1 0-1-1-1-2 0-1 0-1 1-1 1 0 2 1 2 2z"/><path d="m89 578c-1 0-1 1-1 1-1 0-1-1-1-1 0-1 0-1 1-1 0 0 1 0 1 1z"/><path d="m85 614c0 0-1 1-1 1-1 0-1-1-1-1 0-1 1-1 1-1 1 0 1 0 1 1z"/><path d="m190 559c0 0-1 1-1 1-1-1-1-1-1-2 0 0 1-1 1-1 1 0 1 1 1 2z"/><path d="m187 557c0 2-2 3-3 2-1 0-2-1-2-2 0-2 1-3 3-3 1 0 2 2 2 3z"/><path d="m123 589c0 1 0 1-1 1-1 0-1-1-1-1 0-1 1-1 1-1 1 0 1 0 1 1z"/><path d="m120 588c0 1-1 2-3 2-1 0-2-2-2-3 0-1 1-3 3-2 1 0 2 1 2 3z"/></g></g><g fill="#201e1e"><g stroke-width=".181"><path d="m80 455c0-13 10-23 23-23 14 0 24 10 24 23 0 12-10 22-24 22-13 0-23-10-23-22zm-4 0c0 14 12 26 27 26 16 0 28-12 28-26 0-15-12-26-28-26-15 0-27 11-27 26z"/><path d="m167 409c-5 0-9 4-9 9 0 4 4 8 9 8 5 0 9-4 9-8 0-5-4-9-9-9z"/><path d="m151 418c0-9 7-17 16-17 9 0 16 8 16 17 0 8-7 16-16 16-9 0-16-8-16-16zm37 0c0-12-10-21-21-21-12 0-21 9-21 21 0 11 9 20 21 20 11 0 21-9 21-20z"/></g><g font-family="&apos;Big Truck&apos;" stroke-linejoin="round" stroke-linecap="round" stroke-width="7.143" font-size="24.951"><text x="250" y="354" transform="matrix(.86484.1399-.12219.99017-120.27-54.89)">Texto 01</text><text x="250" y="354" transform="matrix(.86484.1399-.12219.99017-98.26-16.06)">Texto 02</text></g><path d="m66 455c0-21 16-38 37-38 21 0 38 17 38 38 0 20-17 37-38 37-21 0-37-17-37-37zm81 0c0-24-20-44-44-44-24 0-43 20-43 44 0 24 19 43 43 43 24 0 44-19 44-43z" stroke-width=".181"/><g stroke-linejoin="round" stroke-linecap="round" stroke-width="1.786"><path d="m152 507c0 1-1 2-2 2-2 0-2-2-2-3 0-1 1-2 2-2 1 1 2 2 2 3z"/><path d="m142 503c-1 2-2 3-4 3-2 0-4-2-3-4 0-2 2-3 4-3 1 0 3 2 3 4z"/><path d="m126 508c0 0 0 1-1 1 0 0-1-1-1-1 0-1 1-1 1-1 1 0 1 0 1 1z"/></g></g></g><g fill="#fff" font-family="&apos;Big Truck&apos;" font-size="24.951"><text x="250" y="354" transform="matrix(.89603.1399-.1266.99017-106.21-15.219)">Texto 02</text><text x="250" y="354" transform="matrix(.82783.1399-.11696.99017-110.73-54.05)">Texto 01</text></g></g></g></svg>