<svg xmlns="http://www.w3.org/2000/svg" width="744.09" height="1052.36" viewBox="0 0 21000 29700" shape-rendering="geometricPrecision" image-rendering="optimizeQuality" fill-rule="evenodd" clip-rule="evenodd"><defs><clipPath id="0"><path d="m14269 18000c956 469 2772 378 3323-489 549-864 425-3316 477-4518 131-3010 461-5292 546-7720 95-2696-1724-4478-3899-4979-3068-708-2887 3440-2460 5572 224 1145 665 2142 947 3262 520 2065 49 5218 230 7368 93 743 338 1236 837 1503z"/></clipPath><clipPath id="1"><path d="m6717 18012c-956 469-2772 378-3323-489-549-864-425-3316-477-4518-131-3010-461-5292-546-7720-95-2696 1724-4478 3899-4979 3068-708 2887 3440 2460 5572-224 1145-665 2142-947 3262-520 2065-49 5218-230 7368-93 743-338 1236-837 1503z"/></clipPath></defs><text x="10117" y="22243" fill="#201e1e" font-family="&apos;Arial Black&apos;" stroke="#201e1e" font-weight="900" stroke-width="7.62" font-size="705.56">30</text><g fill="none" stroke-width="80"><g stroke="#322f30"><circle cx="10533" cy="1326" r="460"/><path d="m10533 515v1621"/><path d="m9723 1326h1621"/></g><g stroke="#373435"><circle cx="10569" cy="23614" r="460"/><path d="m10569 22803v1621"/><path d="m9758 23614h1621"/></g></g><rect x="9843" y="20496" width="1347" height="637" rx="318" fill="#fff" stroke="#fff" stroke-width="20"/><g fill="#373435" font-family="&apos;Arial&apos;" font-weight="normal" font-size="423.33"><text x="959" y="24959">DESC 1</text><text x="924" y="25564">DESC 2</text><text x="907" y="26163">DESC 3</text></g><g clip-path="url(#0)"><g><g fill="#201e1e" stroke="#201e1e"><g stroke-width="50"><path d="m14241 7819c0 0 244 16 470-98 226-114 407-204 592-204 0 0 170-16 348 94 0 0 9 4 20 16 11 12 11-109 11-109h194l2 117c0 0 176-230 649-37 0 0 533 271 758 216 0 0 26-102 126-43 0 0 70 102-37 145 0 0-46 6-81-31 0 0-129 120-719-137 0 0-405-214-716 104l4 181c0 0 92 67 0 133l-4 2340c0 0 107 39 41 114l107-4 15 102c0 0 629 4 714 271 0 0 185 0 192 110h-2301c0 0-30-90 170-110 0 0 66-258 684-263v-90l141-4c0 0-37-126 52-118l-7-2352c0 0-115-67 0-137l4-177c0 0-266-326-673-106 0 0-525 267-762 149 0 0-144 86-144-67 0-153 189-71 152-4z"/><ellipse cx="14156" cy="7956" rx="34" ry="37"/><ellipse cx="17374" cy="7956" rx="34" ry="37"/><path d="m14153 9494l-791-4 791-1433 839 1441-839-4zm886 7l-877-1507c-2 0-4 1-6 1-5 0-10-1-14-4l-813 1473v68c179 580 1410 588 1710-31z"/><path d="m17379 9494l-791-4 791-1433 839 1441-839-4zm886 7l-877-1507c-2 0-4 1-6 1-5 0-10-1-14-4l-813 1473v68c179 580 1410 588 1710-31z"/></g><g font-family="&apos;Pristina&apos;" stroke-linejoin="round" stroke-linecap="round" stroke-width="40" font-size="1437.34"><text x="8917" y="14850" transform="matrix(.59936 0 0 .82813 8185.36 3504.03)">Texto 1</text><text x="8784" y="14850" transform="matrix(.59936 0 0 .82813 8422.19 4898.75)">Texto 2</text></g></g><g fill="#373435" font-family="&apos;Arial&apos;" font-size="669.46"><text x="10500" y="14850" transform="matrix(.80858 0 0 .82813 6719.58 695.04)">NN 1</text><text x="10500" y="14850" transform="matrix(.80858 0 0 .82813 6726.78 1159.31)">NN 2</text></g></g></g><g clip-path="url(#1)"><g><g fill="#201e1e" stroke="#201e1e"><g stroke-width="50"><path d="m3645 7831c0 0 244 16 470-98 226-114 407-204 592-204 0 0 170-16 348 94 0 0 9 4 20 16 11 12 11-109 11-109h194l2 117c0 0 176-230 649-37 0 0 533 271 758 216 0 0 26-102 126-43 0 0 70 102-37 145 0 0-46 6-81-31 0 0-129 120-719-137 0 0-405-214-716 104l4 181c0 0 92 67 0 133l-4 2340c0 0 107 39 41 114l107-4 15 102c0 0 629 4 714 271 0 0 185 0 192 110h-2301c0 0-30-90 170-110 0 0 66-258 684-263v-90l141-4c0 0-37-126 52-118l-7-2352c0 0-115-67 0-137l4-177c0 0-266-326-673-106 0 0-525 267-762 149 0 0-144 86-144-67 0-153 189-71 152-4z"/><ellipse cx="3560" cy="7968" rx="34" ry="37"/><ellipse cx="6778" cy="7968" rx="34" ry="37"/><path d="m3558 9506l-791-4 791-1433 839 1441-839-4zm886 7l-877-1507c-2 0-4 1-6 1-5 0-10-1-14-4l-813 1473v68c179 580 1410 588 1710-31z"/><path d="m6783 9506l-791-4 791-1433 839 1441-839-4zm886 7l-877-1507c-2 0-4 1-6 1-5 0-10-1-14-4l-813 1473v68c179 580 1410 588 1710-31z"/></g><g font-family="&apos;Pristina&apos;" stroke-linejoin="round" stroke-linecap="round" stroke-width="40" font-size="1437.34"><text x="8917" y="14850" transform="matrix(.59936 0 0 .82813-2306.59 3697.93)">Texto 1</text><text x="8784" y="14850" transform="matrix(.59936 0 0 .82813-1984.56 5032.01)">Texto 2</text></g></g><g fill="#373435" font-family="&apos;Arial&apos;" font-size="669.46"><text x="10500" y="14850" transform="matrix(.80858 0 0 .82813-3914.63 474.91)">NN 1</text><text x="10500" y="14850" transform="matrix(.80858 0 0 .82813-3907.43 939.18)">NN 2</text></g></g></g><g fill="#201e1e"><g font-family="&apos;Brush455 BT&apos;" stroke="#201e1e" stroke-width="7.62" font-size="1187.75"><text x="3199" y="5224"><tspan rotate="274">M</tspan></text><text x="3313" y="4164"><tspan rotate="285">e</tspan></text><text x="3429" y="3722"><tspan rotate="294">l</tspan></text><text x="3583" y="3353"><tspan rotate="299">h</tspan></text><text x="3836" y="2905"><tspan rotate="306">o</tspan></text><text x="4125" y="2508"><tspan rotate="315">r</tspan></text><text x="4426" y="2204"><tspan rotate="319"/></text><text x="4649" y="1994"><tspan rotate="326">p</tspan></text><text x="5202" y="1608"><tspan rotate="336">a</tspan></text><text x="5743" y="1369"><tspan rotate="339">r</tspan></text><text x="6144" y="1214"><tspan rotate="347">t</tspan></text><text x="6528" y="1116"><tspan rotate="354">e</tspan></text><text x="6985" y="1065"><tspan rotate="13"/></text><text x="7311" y="1095"><tspan rotate="43">d</tspan></text><text x="7673" y="1422"><tspan rotate="64">o</tspan></text><text x="7879" y="1866"><tspan rotate="74"/></text><text x="7968" y="2158"><tspan rotate="79">s</tspan></text><text x="8044" y="2535"><tspan rotate="83">o</tspan></text><text x="8109" y="3021"><tspan rotate="89">n</tspan></text><text x="8118" y="3571"><tspan rotate="92">h</tspan></text><text x="8104" y="4086"><tspan rotate="95">o</tspan></text><text x="8071" y="4532"><tspan rotate="97">.</tspan></text><text x="8035" y="4835"><tspan rotate="97">.</tspan></text><text x="7995" y="5137"><tspan rotate="98">.</tspan></text><text x="7951" y="5439"><tspan rotate="102"/></text></g><path d="m12854 3786c0 7-6 16-19 26-13 10-25 15-37 15h-21c-18 0-40-14-64-43-24-29-36-49-36-61 0-13 9-25 28-36 18-11 42-17 72-17 12 0 28 14 48 41 19 27 29 53 29 76zm-1-304c0 7-7 16-19 25-13 10-25 14-37 14h-21c-18 0-39-16-63-45-23-30-35-51-34-62 0-13 10-25 29-36 19-10 43-15 72-15 12 0 28 14 46 42 19 28 27 54 27 77m9-304c0 7-7 16-20 25-13 9-26 14-37 13l-21-1c-18-1-39-16-62-46-23-30-34-51-33-63 1-13 10-25 29-35 19-10 43-15 73-13 12 1 27 15 45 43 18 28 26 54 25 77zm-154-447c-21-44-50-81-85-111-35-30-69-47-100-51-9-1-17 0-22 2-5 3-8 7-9 12-3 27 16 57 59 88 43 31 95 51 157 61zm55-8c16-7 30-17 40-32 10-14 17-30 19-49 3-22-1-45-12-70-11-24-16-38-15-41 1-7 4-12 8-16 5-4 10-6 16-5 18 2 35 25 51 68 16 43 23 80 19 111-2 13-8 36-18 69-10 33-17 59-19 78-3 23-17 40-42 52-25 12-56 15-94 11-30-4-66-18-108-44-42-25-78-55-108-89-34-38-61-80-81-125-21-45-30-80-27-103 3-21 13-37 31-47 18-10 41-14 70-10 20 3 40 10 58 21 2 1 3 2 4 2 7 4 17 7 31 11 14 4 24 8 30 12 33 17 62 43 89 78 26 35 45 73 57 115zm-418-149c-1 4-1 7-3 8-2 2-4 3-6 2-5-1-20-11-45-30-25-19-51-42-77-69-10-10-16-19-19-29-2-9-2-26 1-51l6-50c2-15 4-25 6-30 2-5 5-7 9-7 6 1 22 23 50 68 7 12 13 21 17 27 8 13 19 28 32 48 24 36 35 63 33 81l-4 30zm369-544l-3 10c-4 14-8 22-11 25-3 3-8 4-15 2-6-2-13-12-23-32-10-20-20-46-31-78-71-66-115-109-133-129-18-20-28-35-29-44 0-3 1-8 2-15 1-7 1-13 1-18 0-5-2-12-3-20-3-16-4-27-2-34 2-7 6-13 12-17 6-3 13-6 23-6 4 0 8 1 12 1 4 0 7 1 9 1 5 2 23 18 53 49 30 31 61 60 93 86 3-8 8-20 14-34 12-30 23-43 35-40 10 3 21 13 33 32 5 7 8 12 11 15 2 2 4 5 6 7 11 13 14 28 8 46 0 1-2 8-6 19-4 12-8 24-11 35 20 20 39 37 58 50 18 13 35 22 51 27 17 5 30 5 41-1 11-6 19-16 23-32 5-15 6-34 4-58-2-23-2-38 0-43 2-7 6-13 12-16 6-3 13-4 20-2 16 5 31 33 45 84 14 52 14 102-1 150-9 30-30 53-62 67-32 14-64 16-96 7-12-4-34-18-65-42-31-24-55-43-73-55zm174-654c21 47 46 91 78 131 31 40 59 67 82 81 11 7 21 10 30 9 9-1 16-5 21-13 10-16 9-46-3-89-12-43-33-83-63-122-24 11-48 17-74 17-26 0-49-4-71-14m-79-34c-9-9-14-26-14-50 0-25 3-42 9-52 8-13 31-22 70-29 39-7 72-1 100 15 5 3 11 7 17 12 7 5 14 12 23 20 34 20 61 44 82 71 21 27 37 60 49 98 15 48 21 97 18 146-3 49-13 89-32 120-17 29-40 47-69 54-29 8-54 4-77-9-57-34-102-88-135-162-33-73-47-152-41-236zm571-378c-5 40-3 85 6 137 9 52 13 81 13 87 0 16-6 37-17 63-11 26-21 43-30 49-14 10-33 12-57 6-24-6-40-14-48-25-6-8-6-21 1-38 6-17 9-30 10-38 1-17-4-40-16-66-11-27-28-56-50-87-6-9-11-14-16-15-5-1-11 1-19 7-11 7-20 11-28 12-8 0-15-3-19-9-8-11-8-27 0-48 7-21 19-38 36-51 11-9 20-20 27-34 7-14 13-23 16-25 9-6 19-6 29 0 11 6 23 19 36 37 11 16 23 38 35 64 12 26 27 65 44 115-1-8-3-21-4-36-8-69-10-114-7-136-8-6-16-13-22-20-7-7-13-15-20-24-13-19-22-38-28-56-5-18-6-33-1-46 8-23 16-43 23-58 7-15 12-24 14-26 9-6 24-5 45 6 21 10 35 21 42 31 1 2 3 15 6 38 3 23 8 41 17 54 5 8 15 13 30 16 14 3 26 12 36 26 5 7 8 12 9 17 1 5 2 9 1 14-1 5-7 16-18 33-12 17-20 27-25 30-5 4-13 6-23 5-10 0-20-3-29-8zm386-92c30-65 59-121 89-169 30-47 57-83 83-106 6-11 15-20 27-28 12-8 24-13 37-14 17-2 31 3 42 16 12 13 19 31 22 55 4 35 2 82-7 140-9 59-12 98-10 118 2 13 6 23 13 32 7 8 11 14 12 17 1 12-12 30-41 55-29 24-54 38-74 40-15 2-28-5-38-20-10-15-17-38-21-70-1-5 0-16 3-33 3-17 8-45 16-84 7-31 12-57 16-78 4-22 5-35 5-39 0-1-1-2-2-3-1-1-3-1-4-1-4 1-14 12-29 35-15 23-35 56-60 99-25 44-48 86-70 127-22 41-33 62-33 62 0 1-12 8-35 21-23 14-35 20-36 21-4 1-13-5-25-16-12-11-19-20-20-26 0-3 2-24 7-63 5-39 12-81 20-126 9-53 18-99 27-137 9-39 15-62 19-69 3-4 14-12 34-24 20-12 33-19 40-20 15-2 30 1 44 9 14 8 21 17 23 28 0 1-10 27-31 78-21 51-35 109-44 174zm597 63c18 3 46-5 85-26 39-21 80-50 122-87 31-28 57-53 77-77 20-24 31-40 33-50 1-3 0-5-2-6-2-2-4-3-8-3-14-3-41 6-80 26-40 20-82 47-127 80-31 24-57 47-75 69-19 22-30 41-33 57-1 6-1 10 0 13 1 2 4 4 9 5zm178-24c-32 26-63 46-92 59-29 14-59 23-88 28-31 5-60 8-89 10-28 2-45 2-51 1-16-3-29-14-37-32-8-18-10-38-6-60 2-13 10-28 24-47 13-18 33-41 59-68 31-32 65-60 105-85 39-25 85-47 138-68 36-14 72-24 106-30 34-6 62-7 82-3 30 6 56 17 77 34 21 17 30 33 27 48-1 4-9 22-24 52-15 31-29 59-40 85-24 52-43 97-58 134-16 38-24 60-25 68-1 8-1 16 1 26 2 10 3 16 2 19-1 7-7 14-17 20-10 6-21 8-33 6-4-1-10-3-18-8-7-4-13-7-18-8-3-1-7-1-12 0-5 0-9 0-11 0-14-3-23-14-27-33-3-19-2-47 6-84 2-9 4-19 7-29 3-10 7-22 11-36zm136-353c-4-1-7-2-8-4-2-2-2-4-2-7 1-5 12-19 33-43 21-24 46-48 74-72 11-9 20-15 30-17 9-2 26 0 51 5l49 9c15 3 25 6 29 8 5 3 7 6 6 9-1 6-25 21-71 45-12 6-22 11-28 15-13 7-30 17-50 29-37 22-65 31-83 28l-30-6zm391 365l12 4c12 4 27 8 47 13 20 5 33 8 41 11 9 3 15 7 19 12 3 5 4 11 2 18-1 3-6 11-15 25-9 14-19 27-30 40-5 6-11 10-17 11-6 1-15 0-26-4 0 0-9-4-27-10-18-7-35-13-53-19l-14-5-52-18c-12-4-28-9-47-13-19-5-32-9-39-11-10-3-16-7-19-13-3-5-4-11-2-18 1-3 6-11 15-24 9-13 19-26 30-39 5-6 11-10 18-11 6-1 15 0 26 4 2 1 5 2 12 5 28 11 55 21 82 30l40 13zm676-186c7 3 11 7 13 12 1 5 0 12-3 21-6 14-47 58-125 131l-14 14c-99 93-165 158-198 194-33 36-54 64-62 84-5 11-6 21-2 30 3 8 10 15 21 19 25 11 56 11 93 1 37-10 57-14 61-13 6 2 10 7 12 13 2 6 1 13-2 20-4 10-15 19-33 29-18 10-42 18-71 26-37 10-75 15-113 18-38 2-61 2-70-2-7-3-15-11-21-23-7-12-11-20-14-24-3-3-6-6-11-11-25-26-35-45-29-59 1-2 4-7 10-15 5-8 9-16 12-22 0-1 1-3 2-6 1-3 1-5 2-5 10-24 52-73 128-150l19-20c20-20 46-47 80-80 75-74 116-120 123-138 2-6 5-13 7-20 2-8 4-13 5-14 2-4 3-7 5-8 2-2 5-3 8-3 9-1 30-1 64-1 24 0 43 0 58 1 5 0 12 0 21 0 14 0 23 0 27 2zm177 496c-46 22-89 49-129 81-39 32-66 60-79 84-7 12-9 22-8 31 1 9 5 16 14 20 17 9 46 8 89-6 42-13 83-35 121-66-12-23-18-48-19-73-1-26 3-49 12-71zm32-80c9-9 25-14 50-15 25-1 42 2 52 7 13 7 23 30 31 69 8 39 3 72-13 101-3 5-7 11-12 18-5 7-12 15-19 23-19 34-42 62-69 84-27 22-59 39-97 51-48 16-97 23-146 22-49-2-89-11-121-29-29-17-48-39-56-67-8-28-6-54 7-77 33-58 85-104 158-139 73-35 151-51 235-47zm628 657c-39 6-83 21-130 43-47 23-74 35-80 36-15 4-37 4-65 1-28-3-47-8-55-15-13-11-20-28-21-53-1-25 3-42 11-53 6-8 18-11 36-10 18 1 31 1 40-1 17-4 37-15 60-34 23-18 46-42 70-72 7-8 10-15 10-20 0-5-4-10-12-17-10-8-16-16-19-24-3-8-2-15 3-21 8-10 24-15 46-14 22 1 42 8 59 20 11 8 25 14 40 17 16 3 25 6 29 9 8 7 11 16 8 28-3 12-12 27-26 45-13 16-30 33-52 52-22 19-55 43-98 75 8-4 19-8 33-14 64-27 107-41 129-44 4-10 8-18 13-27 5-9 11-17 17-25 15-18 30-32 46-42 16-10 30-15 43-14 25 2 45 4 62 6 17 2 26 5 29 7 9 7 11 22 7 45-4 23-10 39-18 49-1 2-13 7-35 16-22 9-37 20-47 32-6 7-8 18-8 33 1 15-4 29-15 42-5 6-10 11-13 13-4 3-8 4-13 5-5 1-18-2-37-8-19-7-31-12-36-15-5-4-9-11-11-21-2-10-3-20 0-31zm187 291c48 10 94 11 140 2 46-9 80-25 102-47 7-6 11-13 12-18 1-6 0-11-4-14-19-20-54-22-105-8-51 14-99 43-145 86zm-28 48c-5 17-5 34 0 51 5 17 13 32 27 45 16 16 36 27 62 34 26 7 40 12 42 14 5 5 7 10 8 16 0 6-2 11-6 15-13 13-41 12-85-3-44-14-77-32-98-54-9-9-24-28-43-57-20-29-36-50-49-63-16-17-21-38-15-65 6-27 23-54 50-80 21-21 55-40 101-57 46-17 91-27 136-30 51-3 100 2 149 14 48 12 81 26 97 43 15 15 21 33 18 53-3 20-15 41-36 61-15 14-32 25-53 32-2 1-3 1-4 2-7 3-16 9-28 17-12 8-21 14-28 16-34 15-72 22-116 21-44-1-86-10-126-26zm306 325c10 14 37 27 80 38 43 11 92 18 149 19 42 1 78 0 109-4 31-4 50-8 58-14 2-2 3-3 3-6 0-2-1-5-4-8-8-11-34-23-77-36-43-13-92-22-148-28-40-4-74-4-102-1-29 3-50 10-63 20-5 4-8 7-9 9-1 3 0 6 3 9zm146 104c-41-3-77-9-108-19-31-10-59-23-83-40-26-18-50-35-71-53-22-18-34-29-38-34-10-13-11-30-5-49 7-19 19-35 37-48 10-8 27-14 49-18 22-4 52-8 90-10 44-2 89 1 134 9 46 9 95 23 147 44 36 14 68 31 98 51 29 19 50 37 62 54 18 25 29 50 33 77 4 27 0 45-12 54-3 2-21 10-53 22-32 12-61 24-88 35-52 22-97 41-134 58-37 17-58 28-65 32-6 5-12 11-17 19-5 8-9 14-12 16-6 4-15 5-26 3-12-3-21-9-28-18-3-4-5-10-8-18-2-8-5-14-8-18-2-3-5-5-9-8-4-3-6-6-8-7-9-12-8-26 3-42 10-16 31-36 62-58 8-5 16-11 25-16 9-5 20-12 33-19zm818 277c3 6 4 12 2 17-2 5-8 10-16 14-13 7-73 14-180 21l-20 1c-136 9-228 16-276 23-48 7-82 15-101 25-11 6-18 13-21 21-3 9-2 18 4 28 13 24 37 44 71 60 35 16 53 25 55 29 3 6 3 12 1 17-3 6-8 11-15 14-9 5-24 5-44 1-20-4-44-12-71-25-35-16-68-36-98-58-30-22-48-38-52-46-4-7-4-18-2-32 3-14 4-23 4-27 0-4-1-9-1-15-3-36 2-57 15-64 2-1 8-3 17-6 9-3 17-6 23-9 1-1 3-2 5-3 2-2 4-3 5-3 23-12 87-23 194-34l27-3c28-3 65-6 113-11 105-10 166-19 183-28 5-3 12-7 19-11 7-5 11-7 13-8 4-2 7-3 9-3 2 0 5 1 8 3 8 5 24 18 49 40 18 15 33 28 44 37 4 3 9 8 16 13 11 9 18 15 20 19zm-105 326c-3-6-1-13 4-21 5-8 12-14 22-19 5-2 19-2 42 2 10 2 19 3 25 4 12 2 27 12 45 29 17 17 30 34 37 51 4 10 5 18 2 27-3 8-9 14-19 19-6 2-14 4-26 6-12 1-25 2-40 2-13 0-29-10-47-30-18-20-33-43-45-70m-479 127c-9-21-9-42 1-63 10-21 28-37 54-48 9-4 23-7 43-10 20-3 47-4 81-5 27-1 62-2 105-3 66-2 102-2 109 0 10 3 22 13 38 30 8 8 14 15 19 19 4 4 12 9 22 17 11 8 17 15 20 20 3 7 3 15-1 21-4 7-11 12-21 17-11 5-34 6-71 3-27-2-49-3-66-4-36-1-68 1-96 4-28 3-49 8-63 14-11 5-18 11-22 19-4 8-4 16-1 24 4 8 15 18 33 30 19 12 29 21 32 27 3 6 3 12 0 18-2 6-7 10-13 13-10 4-30 1-60-11-30-12-52-29-68-50-12-15-27-31-45-47-18-16-28-28-32-37zm604 422c-55-35-112-60-172-76-60-15-106-18-138-8-12 4-21 9-25 16-4 7-5 16-1 27 11 35 43 60 97 74 54 14 111 12 170-6 11-4 23-7 34-12 11-5 23-10 35-15m52-29c45-35 82-69 111-102 29-33 48-65 58-95 8-21 11-47 11-77 0-30 4-47 13-49 10-3 27 8 51 34 23 26 38 48 44 67 6 21 6 48-1 82-7 34-19 67-37 99-24 43-56 80-96 110-39 30-86 54-140 71-43 13-88 20-134 21-47 1-95-5-145-17-19-5-50-20-91-45-6-4-11-7-14-9-34-20-64-43-89-71-25-27-41-52-48-74-10-31-8-59 6-83 14-24 37-41 70-52 13-4 39-7 76-9 38-2 66 0 85 4 40 8 84 29 133 64 49 35 94 78 137 130zm-251 440c3 18 22 40 56 69 34 29 76 56 126 81 37 19 71 34 100 44 29 10 49 14 59 12 3-1 4-2 5-4 1-2 1-5 0-9-3-14-21-35-54-65-33-30-74-59-121-89-34-20-65-35-92-45-27-9-49-12-65-9-6 1-10 3-12 5-2 2-2 5-1 10zm87 157c-36-20-65-42-89-64-24-22-43-46-58-72-16-27-29-53-42-79-12-25-19-41-20-47-3-16 3-32 17-46 14-14 32-23 54-27 13-2 30-1 52 5 22 6 50 15 85 30 41 17 80 39 117 66 37 27 75 62 114 103 26 29 48 58 66 88 18 30 29 55 33 75 6 30 4 58-3 84-8 26-19 40-34 43-4 1-23 0-58-3-34-3-65-5-94-6-57-3-106-4-146-5-41-1-65 0-72 1-8 1-15 5-23 10-8 6-14 9-17 9-7 1-16-2-25-9-9-7-15-17-17-28-1-4-1-11 1-19 1-8 2-15 1-19-1-3-2-7-4-11-2-4-3-8-4-10-3-14 4-27 21-37 16-10 43-19 80-26 9-2 19-3 29-4 11-1 23-2 38-3zm298 598c-43-49-91-89-144-120-53-31-97-46-130-45-13 0-22 3-28 9-6 5-9 14-9 25 1 37 25 69 73 98 48 28 103 42 165 41 12 0 24-1 36-2 12-1 25-3 38-5zm58-13c53-21 98-43 134-67 37-24 64-49 82-75 13-18 24-42 32-71 8-29 17-44 26-44 11 0 24 15 39 46 15 31 23 57 24 77 0 22-7 48-23 79-16 31-37 59-63 85-35 35-76 61-123 80-46 18-98 28-154 29-45 1-90-5-135-17-45-12-90-31-135-57-17-10-42-33-75-68-5-5-9-10-11-12-27-29-49-59-66-93-17-33-25-62-26-85-1-32 9-58 29-78 20-19 47-30 81-30 14 0 39 4 76 13 37 9 63 18 81 27 36 18 73 51 110 98 37 47 69 101 96 163zm-301 360c25 42 56 76 94 103 38 27 72 41 104 43 9 0 16-1 22-4 5-3 8-7 8-13 1-27-21-55-66-82-45-28-99-43-162-47m-54 13c-16 8-28 20-37 35-9 15-14 32-15 50-1 22 5 45 17 68 13 23 19 37 19 40 0 7-2 13-7 17-4 4-9 6-16 6-18-1-37-22-56-64-20-42-29-78-28-109 1-13 4-37 12-71 8-34 12-60 12-79 1-23 13-42 37-56 24-14 55-20 93-19 30 1 67 13 111 34 44 22 82 48 115 79 37 35 68 74 92 118 24 43 36 77 35 100-1 21-10 38-27 49-17 12-40 17-69 16-20-1-40-6-60-16-2-1-3-2-4-2-7-3-17-6-32-9-14-3-25-6-31-9-34-14-65-38-95-70-29-32-51-69-67-110zm119 407c0-4 2-7 6-10 4-3 9-4 14-4 2 0 27 9 74 26 47 17 96 33 144 49 21 6 43 12 65 17 22 5 34 7 35 8 12 4 25 17 38 37 1 2 3 4 3 5 7 10 16 23 28 39 21 29 31 47 31 56 0 7-3 13-8 16-5 3-12 5-21 4-26-1-68-15-128-40-59-26-135-63-227-114-13-6-25-21-37-44-12-23-18-38-18-45zm-266-70c0-8 11-19 31-32 20-13 37-20 50-19 18 1 38 14 60 39 22 25 33 47 32 68-1 16-9 28-25 35-16 7-40 10-72 8-16-1-30-15-44-43-3-6-6-11-7-13-1-2-4-5-7-8-13-15-20-27-20-34z" fill-rule="nonzero"/></g><path d="m12854 3786c0 7-6 16-19 26-13 10-25 15-37 15h-21c-18 0-40-14-64-43-24-29-36-49-36-61 0-13 9-25 28-36 18-11 42-17 72-17 12 0 28 14 48 41 19 27 29 53 29 76zm-1-304c0 7-7 16-19 25-13 10-25 14-37 14h-21c-18 0-39-16-63-45-23-30-35-51-34-62 0-13 10-25 29-36 19-10 43-15 72-15 12 0 28 14 46 42 19 28 27 54 27 77zm9-304c0 7-7 16-20 25-13 9-26 14-37 13l-21-1c-18-1-39-16-62-46-23-30-34-51-33-63 1-13 10-25 29-35 19-10 43-15 73-13 12 1 27 15 45 43 18 28 26 54 25 77zm-154-447c-21-44-50-81-85-111-35-30-69-47-100-51-9-1-17 0-22 2-5 3-8 7-9 12-3 27 16 57 59 88 43 31 95 51 157 61zm55-8c16-7 30-17 40-32 10-14 17-30 19-49 3-22-1-45-12-70-11-24-16-38-15-41 1-7 4-12 8-16 5-4 10-6 16-5 18 2 35 25 51 68 16 43 23 80 19 111-2 13-8 36-18 69-10 33-17 59-19 78-3 23-17 40-42 52-25 12-56 15-94 11-30-4-66-18-108-44-42-25-78-55-108-89-34-38-61-80-81-125-21-45-30-80-27-103 3-21 13-37 31-47 18-10 41-14 70-10 20 3 40 10 58 21 2 1 3 2 4 2 7 4 17 7 31 11 14 4 24 8 30 12 33 17 62 43 89 78 26 35 45 73 57 115zm-418-149c-1 4-1 7-3 8-2 2-4 3-6 2-5-1-20-11-45-30-25-19-51-42-77-69-10-10-16-19-19-29-2-9-2-26 1-51l6-50c2-15 4-25 6-30 2-5 5-7 9-7 6 1 22 23 50 68 7 12 13 21 17 27 8 13 19 28 32 48 24 36 35 63 33 81l-4 30zm369-544l-3 10c-4 14-8 22-11 25-3 3-8 4-15 2-6-2-13-12-23-32-10-20-20-46-31-78-71-66-115-109-133-129-18-20-28-35-29-44 0-3 1-8 2-15 1-7 1-13 1-18 0-5-2-12-3-20-3-16-4-27-2-34 2-7 6-13 12-17 6-3 13-6 23-6 4 0 8 1 12 1 4 0 7 1 9 1 5 2 23 18 53 49 30 31 61 60 93 86 3-8 8-20 14-34 12-30 23-43 35-40 10 3 21 13 33 32 5 7 8 12 11 15 2 2 4 5 6 7 11 13 14 28 8 46 0 1-2 8-6 19-4 12-8 24-11 35 20 20 39 37 58 50 18 13 35 22 51 27 17 5 30 5 41-1 11-6 19-16 23-32 5-15 6-34 4-58-2-23-2-38 0-43 2-7 6-13 12-16 6-3 13-4 20-2 16 5 31 33 45 84 14 52 14 102-1 150-9 30-30 53-62 67-32 14-64 16-96 7-12-4-34-18-65-42-31-24-55-43-73-55zm174-654c21 47 46 91 78 131 31 40 59 67 82 81 11 7 21 10 30 9 9-1 16-5 21-13 10-16 9-46-3-89-12-43-33-83-63-122-24 11-48 17-74 17-26 0-49-4-71-14zm-79-34c-9-9-14-26-14-50 0-25 3-42 9-52 8-13 31-22 70-29 39-7 72-1 100 15 5 3 11 7 17 12 7 5 14 12 23 20 34 20 61 44 82 71 21 27 37 60 49 98 15 48 21 97 18 146-3 49-13 89-32 120-17 29-40 47-69 54-29 8-54 4-77-9-57-34-102-88-135-162-33-73-47-152-41-236zm571-378c-5 40-3 85 6 137 9 52 13 81 13 87 0 16-6 37-17 63-11 26-21 43-30 49-14 10-33 12-57 6-24-6-40-14-48-25-6-8-6-21 1-38 6-17 9-30 10-38 1-17-4-40-16-66-11-27-28-56-50-87-6-9-11-14-16-15-5-1-11 1-19 7-11 7-20 11-28 12-8 0-15-3-19-9-8-11-8-27 0-48 7-21 19-38 36-51 11-9 20-20 27-34 7-14 13-23 16-25 9-6 19-6 29 0 11 6 23 19 36 37 11 16 23 38 35 64 12 26 27 65 44 115-1-8-3-21-4-36-8-69-10-114-7-136-8-6-16-13-22-20-7-7-13-15-20-24-13-19-22-38-28-56-5-18-6-33-1-46 8-23 16-43 23-58 7-15 12-24 14-26 9-6 24-5 45 6 21 10 35 21 42 31 1 2 3 15 6 38 3 23 8 41 17 54 5 8 15 13 30 16 14 3 26 12 36 26 5 7 8 12 9 17 1 5 2 9 1 14-1 5-7 16-18 33-12 17-20 27-25 30-5 4-13 6-23 5-10 0-20-3-29-8zm386-92c30-65 59-121 89-169 30-47 57-83 83-106 6-11 15-20 27-28 12-8 24-13 37-14 17-2 31 3 42 16 12 13 19 31 22 55 4 35 2 82-7 140-9 59-12 98-10 118 2 13 6 23 13 32 7 8 11 14 12 17 1 12-12 30-41 55-29 24-54 38-74 40-15 2-28-5-38-20-10-15-17-38-21-70-1-5 0-16 3-33 3-17 8-45 16-84 7-31 12-57 16-78 4-22 5-35 5-39 0-1-1-2-2-3-1-1-3-1-4-1-4 1-14 12-29 35-15 23-35 56-60 99-25 44-48 86-70 127-22 41-33 62-33 62 0 1-12 8-35 21-23 14-35 20-36 21-4 1-13-5-25-16-12-11-19-20-20-26 0-3 2-24 7-63 5-39 12-81 20-126 9-53 18-99 27-137 9-39 15-62 19-69 3-4 14-12 34-24 20-12 33-19 40-20 15-2 30 1 44 9 14 8 21 17 23 28 0 1-10 27-31 78-21 51-35 109-44 174zm597 63c18 3 46-5 85-26 39-21 80-50 122-87 31-28 57-53 77-77 20-24 31-40 33-50 1-3 0-5-2-6-2-2-4-3-8-3-14-3-41 6-80 26-40 20-82 47-127 80-31 24-57 47-75 69-19 22-30 41-33 57-1 6-1 10 0 13 1 2 4 4 9 5zm178-24c-32 26-63 46-92 59-29 14-59 23-88 28-31 5-60 8-89 10-28 2-45 2-51 1-16-3-29-14-37-32-8-18-10-38-6-60 2-13 10-28 24-47 13-18 33-41 59-68 31-32 65-60 105-85 39-25 85-47 138-68 36-14 72-24 106-30 34-6 62-7 82-3 30 6 56 17 77 34 21 17 30 33 27 48-1 4-9 22-24 52-15 31-29 59-40 85-24 52-43 97-58 134-16 38-24 60-25 68-1 8-1 16 1 26 2 10 3 16 2 19-1 7-7 14-17 20-10 6-21 8-33 6-4-1-10-3-18-8-7-4-13-7-18-8-3-1-7-1-12 0-5 0-9 0-11 0-14-3-23-14-27-33-3-19-2-47 6-84 2-9 4-19 7-29 3-10 7-22 11-36zm136-353c-4-1-7-2-8-4-2-2-2-4-2-7 1-5 12-19 33-43 21-24 46-48 74-72 11-9 20-15 30-17 9-2 26 0 51 5l49 9c15 3 25 6 29 8 5 3 7 6 6 9-1 6-25 21-71 45-12 6-22 11-28 15-13 7-30 17-50 29-37 22-65 31-83 28l-30-6zm391 365l12 4c12 4 27 8 47 13 20 5 33 8 41 11 9 3 15 7 19 12 3 5 4 11 2 18-1 3-6 11-15 25-9 14-19 27-30 40-5 6-11 10-17 11-6 1-15 0-26-4 0 0-9-4-27-10-18-7-35-13-53-19l-14-5-52-18c-12-4-28-9-47-13-19-5-32-9-39-11-10-3-16-7-19-13-3-5-4-11-2-18 1-3 6-11 15-24 9-13 19-26 30-39 5-6 11-10 18-11 6-1 15 0 26 4 2 1 5 2 12 5 28 11 55 21 82 30l40 13zm676-186c7 3 11 7 13 12 1 5 0 12-3 21-6 14-47 58-125 131l-14 14c-99 93-165 158-198 194-33 36-54 64-62 84-5 11-6 21-2 30 3 8 10 15 21 19 25 11 56 11 93 1 37-10 57-14 61-13 6 2 10 7 12 13 2 6 1 13-2 20-4 10-15 19-33 29-18 10-42 18-71 26-37 10-75 15-113 18-38 2-61 2-70-2-7-3-15-11-21-23-7-12-11-20-14-24-3-3-6-6-11-11-25-26-35-45-29-59 1-2 4-7 10-15 5-8 9-16 12-22 0-1 1-3 2-6 1-3 1-5 2-5 10-24 52-73 128-150l19-20c20-20 46-47 80-80 75-74 116-120 123-138 2-6 5-13 7-20 2-8 4-13 5-14 2-4 3-7 5-8 2-2 5-3 8-3 9-1 30-1 64-1 24 0 43 0 58 1 5 0 12 0 21 0 14 0 23 0 27 2zm177 496c-46 22-89 49-129 81-39 32-66 60-79 84-7 12-9 22-8 31 1 9 5 16 14 20 17 9 46 8 89-6 42-13 83-35 121-66-12-23-18-48-19-73-1-26 3-49 12-71zm32-80c9-9 25-14 50-15 25-1 42 2 52 7 13 7 23 30 31 69 8 39 3 72-13 101-3 5-7 11-12 18-5 7-12 15-19 23-19 34-42 62-69 84-27 22-59 39-97 51-48 16-97 23-146 22-49-2-89-11-121-29-29-17-48-39-56-67-8-28-6-54 7-77 33-58 85-104 158-139 73-35 151-51 235-47zm628 657c-39 6-83 21-130 43-47 23-74 35-80 36-15 4-37 4-65 1-28-3-47-8-55-15-13-11-20-28-21-53-1-25 3-42 11-53 6-8 18-11 36-10 18 1 31 1 40-1 17-4 37-15 60-34 23-18 46-42 70-72 7-8 10-15 10-20 0-5-4-10-12-17-10-8-16-16-19-24-3-8-2-15 3-21 8-10 24-15 46-14 22 1 42 8 59 20 11 8 25 14 40 17 16 3 25 6 29 9 8 7 11 16 8 28-3 12-12 27-26 45-13 16-30 33-52 52-22 19-55 43-98 75 8-4 19-8 33-14 64-27 107-41 129-44 4-10 8-18 13-27 5-9 11-17 17-25 15-18 30-32 46-42 16-10 30-15 43-14 25 2 45 4 62 6 17 2 26 5 29 7 9 7 11 22 7 45-4 23-10 39-18 49-1 2-13 7-35 16-22 9-37 20-47 32-6 7-8 18-8 33 1 15-4 29-15 42-5 6-10 11-13 13-4 3-8 4-13 5-5 1-18-2-37-8-19-7-31-12-36-15-5-4-9-11-11-21-2-10-3-20 0-31zm187 291c48 10 94 11 140 2 46-9 80-25 102-47 7-6 11-13 12-18 1-6 0-11-4-14-19-20-54-22-105-8-51 14-99 43-145 86zm-28 48c-5 17-5 34 0 51 5 17 13 32 27 45 16 16 36 27 62 34 26 7 40 12 42 14 5 5 7 10 8 16 0 6-2 11-6 15-13 13-41 12-85-3-44-14-77-32-98-54-9-9-24-28-43-57-20-29-36-50-49-63-16-17-21-38-15-65 6-27 23-54 50-80 21-21 55-40 101-57 46-17 91-27 136-30 51-3 100 2 149 14 48 12 81 26 97 43 15 15 21 33 18 53-3 20-15 41-36 61-15 14-32 25-53 32-2 1-3 1-4 2-7 3-16 9-28 17-12 8-21 14-28 16-34 15-72 22-116 21-44-1-86-10-126-26zm306 325c10 14 37 27 80 38 43 11 92 18 149 19 42 1 78 0 109-4 31-4 50-8 58-14 2-2 3-3 3-6 0-2-1-5-4-8-8-11-34-23-77-36-43-13-92-22-148-28-40-4-74-4-102-1-29 3-50 10-63 20-5 4-8 7-9 9-1 3 0 6 3 9zm146 104c-41-3-77-9-108-19-31-10-59-23-83-40-26-18-50-35-71-53-22-18-34-29-38-34-10-13-11-30-5-49 7-19 19-35 37-48 10-8 27-14 49-18 22-4 52-8 90-10 44-2 89 1 134 9 46 9 95 23 147 44 36 14 68 31 98 51 29 19 50 37 62 54 18 25 29 50 33 77 4 27 0 45-12 54-3 2-21 10-53 22-32 12-61 24-88 35-52 22-97 41-134 58-37 17-58 28-65 32-6 5-12 11-17 19-5 8-9 14-12 16-6 4-15 5-26 3-12-3-21-9-28-18-3-4-5-10-8-18-2-8-5-14-8-18-2-3-5-5-9-8-4-3-6-6-8-7-9-12-8-26 3-42 10-16 31-36 62-58 8-5 16-11 25-16 9-5 20-12 33-19zm818 277c3 6 4 12 2 17-2 5-8 10-16 14-13 7-73 14-180 21l-20 1c-136 9-228 16-276 23-48 7-82 15-101 25-11 6-18 13-21 21-3 9-2 18 4 28 13 24 37 44 71 60 35 16 53 25 55 29 3 6 3 12 1 17-3 6-8 11-15 14-9 5-24 5-44 1-20-4-44-12-71-25-35-16-68-36-98-58-30-22-48-38-52-46-4-7-4-18-2-32 3-14 4-23 4-27 0-4-1-9-1-15-3-36 2-57 15-64 2-1 8-3 17-6 9-3 17-6 23-9 1-1 3-2 5-3 2-2 4-3 5-3 23-12 87-23 194-34l27-3c28-3 65-6 113-11 105-10 166-19 183-28 5-3 12-7 19-11 7-5 11-7 13-8 4-2 7-3 9-3 2 0 5 1 8 3 8 5 24 18 49 40 18 15 33 28 44 37 4 3 9 8 16 13 11 9 18 15 20 19zm-105 326c-3-6-1-13 4-21 5-8 12-14 22-19 5-2 19-2 42 2 10 2 19 3 25 4 12 2 27 12 45 29 17 17 30 34 37 51 4 10 5 18 2 27-3 8-9 14-19 19-6 2-14 4-26 6-12 1-25 2-40 2-13 0-29-10-47-30-18-20-33-43-45-70zm-479 127c-9-21-9-42 1-63 10-21 28-37 54-48 9-4 23-7 43-10 20-3 47-4 81-5 27-1 62-2 105-3 66-2 102-2 109 0 10 3 22 13 38 30 8 8 14 15 19 19 4 4 12 9 22 17 11 8 17 15 20 20 3 7 3 15-1 21-4 7-11 12-21 17-11 5-34 6-71 3-27-2-49-3-66-4-36-1-68 1-96 4-28 3-49 8-63 14-11 5-18 11-22 19-4 8-4 16-1 24 4 8 15 18 33 30 19 12 29 21 32 27 3 6 3 12 0 18-2 6-7 10-13 13-10 4-30 1-60-11-30-12-52-29-68-50-12-15-27-31-45-47-18-16-28-28-32-37zm604 422c-55-35-112-60-172-76-60-15-106-18-138-8-12 4-21 9-25 16-4 7-5 16-1 27 11 35 43 60 97 74 54 14 111 12 170-6 11-4 23-7 34-12 11-5 23-10 35-15zm52-29c45-35 82-69 111-102 29-33 48-65 58-95 8-21 11-47 11-77 0-30 4-47 13-49 10-3 27 8 51 34 23 26 38 48 44 67 6 21 6 48-1 82-7 34-19 67-37 99-24 43-56 80-96 110-39 30-86 54-140 71-43 13-88 20-134 21-47 1-95-5-145-17-19-5-50-20-91-45-6-4-11-7-14-9-34-20-64-43-89-71-25-27-41-52-48-74-10-31-8-59 6-83 14-24 37-41 70-52 13-4 39-7 76-9 38-2 66 0 85 4 40 8 84 29 133 64 49 35 94 78 137 130zm-251 440c3 18 22 40 56 69 34 29 76 56 126 81 37 19 71 34 100 44 29 10 49 14 59 12 3-1 4-2 5-4 1-2 1-5 0-9-3-14-21-35-54-65-33-30-74-59-121-89-34-20-65-35-92-45-27-9-49-12-65-9-6 1-10 3-12 5-2 2-2 5-1 10zm87 157c-36-20-65-42-89-64-24-22-43-46-58-72-16-27-29-53-42-79-12-25-19-41-20-47-3-16 3-32 17-46 14-14 32-23 54-27 13-2 30-1 52 5 22 6 50 15 85 30 41 17 80 39 117 66 37 27 75 62 114 103 26 29 48 58 66 88 18 30 29 55 33 75 6 30 4 58-3 84-8 26-19 40-34 43-4 1-23 0-58-3-34-3-65-5-94-6-57-3-106-4-146-5-41-1-65 0-72 1-8 1-15 5-23 10-8 6-14 9-17 9-7 1-16-2-25-9-9-7-15-17-17-28-1-4-1-11 1-19 1-8 2-15 1-19-1-3-2-7-4-11-2-4-3-8-4-10-3-14 4-27 21-37 16-10 43-19 80-26 9-2 19-3 29-4 11-1 23-2 38-3zm298 598c-43-49-91-89-144-120-53-31-97-46-130-45-13 0-22 3-28 9-6 5-9 14-9 25 1 37 25 69 73 98 48 28 103 42 165 41 12 0 24-1 36-2 12-1 25-3 38-5zm58-13c53-21 98-43 134-67 37-24 64-49 82-75 13-18 24-42 32-71 8-29 17-44 26-44 11 0 24 15 39 46 15 31 23 57 24 77 0 22-7 48-23 79-16 31-37 59-63 85-35 35-76 61-123 80-46 18-98 28-154 29-45 1-90-5-135-17-45-12-90-31-135-57-17-10-42-33-75-68-5-5-9-10-11-12-27-29-49-59-66-93-17-33-25-62-26-85-1-32 9-58 29-78 20-19 47-30 81-30 14 0 39 4 76 13 37 9 63 18 81 27 36 18 73 51 110 98 37 47 69 101 96 163zm-301 360c25 42 56 76 94 103 38 27 72 41 104 43 9 0 16-1 22-4 5-3 8-7 8-13 1-27-21-55-66-82-45-28-99-43-162-47zm-54 13c-16 8-28 20-37 35-9 15-14 32-15 50-1 22 5 45 17 68 13 23 19 37 19 40 0 7-2 13-7 17-4 4-9 6-16 6-18-1-37-22-56-64-20-42-29-78-28-109 1-13 4-37 12-71 8-34 12-60 12-79 1-23 13-42 37-56 24-14 55-20 93-19 30 1 67 13 111 34 44 22 82 48 115 79 37 35 68 74 92 118 24 43 36 77 35 100-1 21-10 38-27 49-17 12-40 17-69 16-20-1-40-6-60-16-2-1-3-2-4-2-7-3-17-6-32-9-14-3-25-6-31-9-34-14-65-38-95-70-29-32-51-69-67-110zm119 407c0-4 2-7 6-10 4-3 9-4 14-4 2 0 27 9 74 26 47 17 96 33 144 49 21 6 43 12 65 17 22 5 34 7 35 8 12 4 25 17 38 37 1 2 3 4 3 5 7 10 16 23 28 39 21 29 31 47 31 56 0 7-3 13-8 16-5 3-12 5-21 4-26-1-68-15-128-40-59-26-135-63-227-114-13-6-25-21-37-44-12-23-18-38-18-45zm-266-70c0-8 11-19 31-32 20-13 37-20 50-19 18 1 38 14 60 39 22 25 33 47 32 68-1 16-9 28-25 35-16 7-40 10-72 8-16-1-30-15-44-43-3-6-6-11-7-13-1-2-4-5-7-8-13-15-20-27-20-34z" fill="none" fill-rule="nonzero" stroke="#201e1e" stroke-width="7.62"/></svg>