<svg xmlns="http://www.w3.org/2000/svg" width="744.09" height="1052.36" viewBox="0 0 21000 29700" shape-rendering="geometricPrecision" image-rendering="optimizeQuality" fill-rule="evenodd" clip-rule="evenodd"><defs><clipPath id="0"><path d="m14177 20090c1040 513 3016 414 3616-535 598-945 462-3626 519-4941 142-3292 501-5788 594-8443 103-2948-1876-4897-4243-5446-3338-774-3141 3762-2677 6094 243 1253 724 2343 1031 3568 566 2259 53 5707 250 8058 101 813 368 1352 910 1644z"/></clipPath><clipPath id="1"><path d="m6809 20102c-1040 513-3016 414-3616-535-598-945-462-3626-519-4941-142-3292-501-5788-594-8443-103-2948 1876-4897 4243-5446 3338-774 3141 3762 2677 6094-243 1253-724 2343-1031 3568-566 2259-53 5707-250 8058-101 813-368 1352-910 1644z"/></clipPath></defs><text x="9938" y="20932" fill="#201e1e" font-family="&apos;Arial Black&apos;" stroke="#201e1e" font-weight="900" stroke-width="7.62" font-size="705.56">32</text><g fill="none" stroke-width="80"><g stroke="#322f30"><circle cx="10533" cy="1326" r="460"/><path d="m10533 515v1621"/><path d="m9723 1326h1621"/></g><g stroke="#373435"><circle cx="10390" cy="22303" r="460"/><path d="m10390 21493v1621"/><path d="m9580 22303h1621"/></g></g><rect x="9843" y="22722" width="1347" height="637" rx="318" fill="#fff" stroke="#fff" stroke-width="20"/><g fill="#373435" font-family="&apos;Arial&apos;" font-weight="normal" font-size="423.33"><text x="665" y="24080">DESC 1</text><text x="630" y="24685">DESC 2</text><text x="612" y="25285">DESC 3</text></g><g clip-path="url(#0)"><g><g fill="#201e1e" stroke="#201e1e"><g stroke-width="50"><path d="m14146 8955c0 0 266 17 511-107 246-125 443-223 644-223 0 0 185-18 378 102 0 0 10 4 22 17 12 13 12-120 12-120h211l2 128c0 0 191-251 706-41 0 0 580 296 825 236 0 0 28-112 137-47 0 0 76 112-40 159 0 0-50 6-89-34 0 0-141 131-783-150 0 0-441-234-779 114l4 198c0 0 101 73 0 146l-4 2559c0 0 117 43 44 125l117-4 16 112c0 0 684 4 777 296 0 0 201 0 209 120h-2503c0 0-32-99 185-120 0 0 72-283 745-288v-99l153-4c0 0-40-137 56-129l-8-2572c0 0-125-73 0-150l4-193c0 0-290-356-733-116 0 0-572 292-829 163 0 0-157 94-157-73 0-167 205-77 165-4z"/><ellipse cx="14054" cy="9105" rx="37" ry="41"/><ellipse cx="17555" cy="9105" rx="37" ry="41"/><path d="m14051 10787l-860-4 860-1567 913 1576-913-4zm964 7l-955-1648c-2 0-4 1-6 1-6 0-11-1-16-4l-884 1611v74c195 634 1534 643 1860-34z"/><path d="m17560 10787l-860-4 860-1567 913 1576-913-4zm964 7l-955-1648c-2 0-4 1-6 1-6 0-11-1-16-4l-884 1611v74c195 634 1534 643 1860-34z"/></g><g font-family="&apos;Pristina&apos;" stroke-linejoin="round" stroke-linecap="round" stroke-width="40" font-size="1437.34"><text x="8917" y="14850" transform="matrix(.65216 0 0 .9057 7557.04 4236.05)">Texto 1</text><text x="8784" y="14850" transform="matrix(.65216 0 0 .9057 7814.73 5761.4)">Texto 2</text></g></g><g fill="#373435" font-family="&apos;Arial&apos;" font-size="669.46"><text x="10500" y="14850" transform="matrix(.8798 0 0 .9057 5962.15 1163.97)">NN 1</text><text x="10500" y="14850" transform="matrix(.8798 0 0 .9057 5969.99 1671.72)">NN 2</text></g></g></g><g clip-path="url(#1)"><g><g fill="#201e1e" stroke="#201e1e"><g stroke-width="50"><path d="m3467 8967c0 0 266 17 511-107 246-125 443-223 644-223 0 0 185-18 378 102 0 0 10 4 22 17 12 13 12-120 12-120h211l2 128c0 0 191-251 706-41 0 0 580 296 825 236 0 0 28-112 137-47 0 0 76 112-40 159 0 0-50 6-89-34 0 0-141 131-783-150 0 0-441-234-779 114l4 198c0 0 101 73 0 146l-4 2559c0 0 117 43 44 125l117-4 16 112c0 0 684 4 777 296 0 0 201 0 209 120h-2503c0 0-32-99 185-120 0 0 72-283 745-288v-99l153-4c0 0-40-137 56-129l-8-2572c0 0-125-73 0-150l4-193c0 0-290-356-733-116 0 0-572 292-829 163 0 0-157 94-157-73 0-167 205-77 165-4z"/><ellipse cx="3375" cy="9117" rx="37" ry="41"/><ellipse cx="6876" cy="9117" rx="37" ry="41"/><path d="m3372 10799l-860-4 860-1567 913 1576-913-4zm964 7l-955-1648c-2 0-4 1-6 1-6 0-11-1-16-4l-884 1611v74c195 634 1534 643 1860-34z"/><path d="m6881 10799l-860-4 860-1567 913 1576-913-4zm964 7l-955-1648c-2 0-4 1-6 1-6 0-11-1-16-4l-884 1611v74c195 634 1534 643 1860-34z"/></g><g font-family="&apos;Pristina&apos;" stroke-linejoin="round" stroke-linecap="round" stroke-width="40" font-size="1437.34"><text x="8917" y="14850" transform="matrix(.65216 0 0 .9057-3008.9 4447)">Texto 1</text><text x="8784" y="14850" transform="matrix(.65216 0 0 .9057-2658.51 5906.02)">Texto 2</text></g></g><g fill="#373435" font-family="&apos;Arial&apos;" font-size="669.46"><text x="10500" y="14850" transform="matrix(.8798 0 0 .9057-4758.57 922.1)">NN 1</text><text x="10500" y="14850" transform="matrix(.8798 0 0 .9057-4750.74 1429.86)">NN 2</text></g></g></g><g fill="#201e1e"><g font-family="&apos;Brush455 BT&apos;" stroke="#201e1e" stroke-width="7.62" font-size="1187.75"><text x="2924" y="5487"><tspan rotate="282">M</tspan></text><text x="3167" y="4448"><tspan rotate="293">e</tspan></text><text x="3337" y="4025"><tspan rotate="299">l</tspan></text><text x="3528" y="3674"><tspan rotate="304">h</tspan></text><text x="3812" y="3244"><tspan rotate="311">o</tspan></text><text x="4138" y="2878"><tspan rotate="317">r</tspan></text><text x="4452" y="2587"><tspan rotate="322"/></text><text x="4688" y="2392"><tspan rotate="328">p</tspan></text><text x="5256" y="2033"><tspan rotate="336">a</tspan></text><text x="5795" y="1789"><tspan rotate="342">r</tspan></text><text x="6200" y="1646"><tspan rotate="347">t</tspan></text><text x="6584" y="1545"><tspan rotate="354">e</tspan></text><text x="7038" y="1497"><tspan rotate="7"/></text><text x="7351" y="1515"><tspan rotate="28">d</tspan></text><text x="7767" y="1761"><tspan rotate="54">o</tspan></text><text x="8043" y="2166"><tspan rotate="69"/></text><text x="8159" y="2449"><tspan rotate="75">s</tspan></text><text x="8265" y="2820"><tspan rotate="80">o</tspan></text><text x="8353" y="3302"><tspan rotate="85">n</tspan></text><text x="8400" y="3850"><tspan rotate="89">h</tspan></text><text x="8407" y="4365"><tspan rotate="92">o</tspan></text><text x="8391" y="4811"><tspan rotate="93">.</tspan></text><text x="8374" y="5116"><tspan rotate="95">.</tspan></text><text x="8352" y="5420"><tspan rotate="97">.</tspan></text><text x="8315" y="5723"><tspan rotate="97"/></text></g><path d="m12568 3960c0 7-7 16-20 25-13 9-26 14-37 13l-21-1c-18-1-39-16-62-47-23-30-34-51-33-63 1-13 10-25 29-35 19-10 43-15 73-13 12 1 27 15 45 43 18 28 26 54 25 77zm16-303c-1 7-8 15-21 24-13 9-26 13-38 12l-21-2c-18-1-39-18-60-49-22-31-32-52-31-64 1-13 11-24 31-34 19-9 44-13 73-11 12 1 27 16 44 45 17 29 24 55 23 78zm24-301c-1 7-9 15-23 22-14 8-27 10-39 8l-20-3c-18-3-37-21-56-54-19-33-27-55-25-67 2-13 13-23 34-31 20-8 45-9 74-4 12 2 25 18 40 49 14 30 19 57 16 80zm-110-457c-18-45-44-84-77-117-33-33-65-52-96-58-9-2-16-2-22 0-5 2-9 6-10 11-5 27 12 58 52 92 40 34 91 58 153 72m55-4c17-6 31-15 42-29 11-13 19-29 22-47 4-22 2-45-6-70-9-25-13-39-12-42 1-7 4-12 9-16 5-4 10-5 16-4 17 4 33 28 46 72 13 44 17 82 11 112-3 13-10 36-23 68-13 32-21 58-25 76-5 23-20 39-46 49-26 10-57 11-94 4-30-6-64-23-104-51-40-28-74-60-101-96-31-41-55-84-72-131-17-47-24-81-19-105 4-21 16-36 34-44 19-9 42-11 70-5 20 4 39 12 56 25 2 1 3 2 4 3 6 4 16 9 30 14 14 5 23 10 29 14 31 20 59 48 83 84 24 37 40 76 49 119zm-407-179c-1 4-2 7-4 8-2 2-4 2-7 2-5-1-19-12-43-33-23-21-47-46-72-74-9-11-15-21-17-30-2-9 0-26 5-51l10-49c3-15 6-25 8-29 3-5 6-7 10-6 6 1 20 25 45 71 6 12 11 22 15 28 7 13 17 30 29 50 22 37 31 65 27 84l-6 30zm429-539l-5 9c-6 13-12 21-15 23-4 2-9 2-15-1-5-3-11-14-18-36-7-21-12-49-18-83-58-77-95-127-109-150-14-23-21-39-21-48 1-3 2-8 4-14 2-7 4-13 4-17 1-5 1-12 0-20-1-16 1-28 4-34 3-7 8-12 14-14 6-2 14-3 24-2 4 1 8 2 12 3 4 1 7 2 8 3 5 2 19 22 43 58 24 36 50 70 77 101 5-7 11-18 19-31 17-27 30-39 41-34 9 4 18 17 27 37 3 8 6 13 8 16 2 2 3 5 5 8 9 14 9 30 0 47 0 1-4 7-10 18-6 11-12 22-17 32 16 24 32 43 48 60 16 16 31 28 45 35 16 8 29 10 41 6 12-4 21-13 28-28 7-14 12-33 14-56 2-23 5-37 7-42 3-7 8-12 15-14 6-2 13-2 20 2 15 7 25 38 30 91 5 53-4 103-26 148-14 28-38 47-72 55-34 8-66 5-95-10-11-6-30-23-57-52-27-29-47-51-63-67zm285-611c13 50 31 97 55 142 24 45 47 76 67 94 10 9 19 13 28 14 9 1 17-2 23-9 12-15 16-44 12-88-5-44-19-88-42-131-25 7-50 9-76 5-25-4-48-12-67-26zm-73-47c-8-10-9-28-5-52 4-24 10-41 17-50 10-11 34-17 73-17 39 0 71 11 96 32 5 4 9 9 15 15 6 6 12 14 19 23 30 26 53 54 69 84 16 30 27 66 32 105 6 50 4 99-7 147-11 48-28 86-51 113-22 26-47 40-77 42-29 3-54-5-75-22-50-43-86-104-106-182-20-78-21-158-2-240zm675-245c-15 37-25 82-30 134-5 52-8 81-10 87-4 15-15 34-32 57-17 23-31 36-41 40-16 6-35 3-57-9-22-12-35-24-40-37-3-9 0-21 10-36 10-15 17-26 20-35 5-17 6-40 2-68-4-29-13-61-26-97-4-10-7-16-12-19-4-3-11-2-20 1-12 4-22 6-30 4-8-2-13-6-16-13-5-12-1-28 12-46 12-19 28-32 48-41 13-6 24-14 35-26 10-12 18-19 22-20 10-4 20-1 28 8 9 9 17 24 25 45 7 19 13 43 18 71 5 28 9 69 14 123 1-9 3-21 5-36 10-69 19-113 28-133-6-8-12-16-17-25-5-9-9-18-13-28-8-22-12-42-13-61 0-19 3-34 10-44 14-20 26-37 37-50 11-13 17-20 21-22 11-4 25 2 42 17 18 15 29 29 33 40 1 2-1 15-4 38-3 23-2 42 3 57 3 9 11 16 24 23 13 7 23 18 28 34 3 8 4 14 5 18 0 5-1 9-3 14-2 5-11 14-26 27-16 13-26 21-31 23-6 2-14 2-24-1-10-3-18-8-26-15zm370-3c37-61 73-114 108-157 35-44 66-76 94-95 7-10 17-18 30-25 13-7 26-10 39-10 17 0 30 7 40 21 10 14 16 33 16 57 0 35-8 81-23 139-16 57-23 96-23 116 0 13 3 24 10 33 6 9 10 15 10 18 0 12-16 29-47 50-32 21-58 32-78 32-15 0-27-8-35-24-8-16-12-40-13-72 0-5 2-16 7-32 5-16 13-44 25-82 10-30 19-55 25-76 6-21 9-34 9-39 0-1-1-2-2-3-1-1-2-1-4-1-4 0-15 10-33 31-18 21-41 51-71 92-30 41-57 80-84 118-26 38-40 58-40 58 0 1-13 7-37 17-25 11-38 16-39 16-4 0-12-6-23-19-11-13-16-22-16-28 0-3 5-24 15-62 10-38 21-79 34-123 15-51 30-96 43-133 13-38 22-60 26-66 3-4 15-10 37-20 22-10 35-15 42-15 15 0 30 4 42 14 13 9 19 20 19 31 0 1-13 26-39 74-26 48-48 104-64 168zm581 113c17 4 46-4 85-23 40-20 81-47 125-83 32-26 59-51 80-74 21-23 33-39 35-49 1-3 0-5-2-6-2-2-4-3-8-4-14-3-41 5-81 23-41 19-84 44-130 76-32 23-58 45-78 66-19 21-31 40-35 56-1 6-2 10 0 13 1 2 4 4 8 5zm178-17c-33 25-64 43-94 56-30 13-59 21-89 25-31 3-61 6-89 6-28 1-45 1-51-1-16-4-28-15-36-34-7-19-9-39-4-60 3-13 11-28 25-46 14-18 34-40 61-66 32-31 68-58 108-81 40-23 87-44 140-63 37-13 72-21 107-26 35-4 62-4 82 0 30 7 55 19 75 37 20 18 29 34 26 49-1 4-10 21-26 52-16 30-31 58-43 84-25 51-46 95-63 132-17 37-26 59-28 67-2 8-2 16 0 26 2 10 2 16 2 19-2 7-8 14-18 19-10 6-21 7-33 5-4-1-10-4-17-8-7-5-13-7-17-8-3-1-7-1-12-1-5 0-9 0-11 0-14-3-23-14-26-34-3-19 0-47 9-84 2-9 5-19 8-28 3-10 8-22 13-36zm149-347c-4-1-7-2-8-4-2-2-2-4-2-7 1-5 13-19 35-42 22-23 47-46 76-70 11-9 21-14 30-16 9-1 26 1 51 6l49 11c15 3 24 6 29 9 5 3 7 6 6 10-1 6-25 20-72 42-12 6-22 10-29 14-13 7-30 16-51 27-38 21-66 29-84 25l-30-7zm369 368l12 4c12 4 27 8 47 13 20 5 33 8 41 11 9 3 15 7 19 12 4 5 4 11 2 18-1 3-6 11-15 25-9 14-19 27-30 40-5 6-11 10-17 11-6 1-15 0-26-4 0 0-9-4-27-10-18-7-35-13-53-19l-14-5-52-17c-12-4-28-8-47-13-19-5-32-9-39-11-10-3-16-7-19-13-4-5-4-11-2-18 1-3 6-11 15-24 9-13 19-26 30-40 5-6 11-10 17-11 6-1 15 0 26 4 2 1 5 2 12 5 28 11 55 20 82 29l40 13zm677-182c7 3 11 7 13 12 1 5 0 12-3 21-6 14-48 57-125 131l-14 14c-99 93-166 157-199 193-33 36-54 64-62 84-5 11-6 21-2 30 3 8 10 15 21 19 25 11 56 11 93 1 37-10 57-14 61-13 6 3 10 7 12 13 2 6 1 13-2 20-4 10-15 19-33 29-18 10-42 18-71 26-37 10-75 15-113 17-38 2-61 1-70-2-7-3-15-11-21-23-7-12-11-20-14-24-3-3-6-6-11-11-25-26-35-45-29-59 1-2 4-7 10-15 5-8 9-16 12-22 0-1 1-3 2-6 1-3 1-5 2-5 10-24 53-73 128-149l20-20c20-20 46-47 80-80 75-74 116-120 123-138 2-6 5-13 7-20 2-8 4-13 5-14 2-4 3-7 5-8 2-2 5-3 8-3 9-1 30-1 64-1 24 0 43 1 58 1 5 0 12 0 21 0 14 0 23 0 27 2zm177 496c-46 22-89 49-129 81-39 32-66 60-79 84-7 12-9 22-8 31 1 9 5 16 13 20 17 9 46 8 89-5 42-13 83-35 121-66-12-23-18-48-19-73-1-26 3-49 12-71zm32-80c9-9 25-14 50-15 25-1 42 2 52 7 13 7 23 30 30 69 7 39 3 72-13 101-3 5-7 11-12 18-5 7-12 15-19 23-19 34-43 62-69 84-27 22-59 39-97 51-48 16-97 23-146 21-49-2-89-11-121-29-29-17-48-39-56-67-8-28-6-54 8-77 33-58 86-104 158-138 73-35 151-50 235-47zm632 646c-39 7-83 21-130 44-47 23-74 35-80 37-15 4-37 5-65 2-28-3-47-8-55-14-13-11-21-28-22-53-1-25 2-43 10-53 6-8 18-11 36-10 18 1 31 1 40-1 17-4 37-16 59-34 22-18 45-43 69-73 7-8 10-15 10-20 0-5-4-10-12-17-10-8-16-16-19-24-3-8-2-15 3-21 8-10 23-15 46-14 22 1 42 7 59 20 12 8 25 13 41 16 16 3 25 6 29 8 8 7 11 16 8 28-3 12-11 27-26 45-12 16-30 33-52 52-22 19-54 44-98 76 8-4 19-9 33-14 64-27 107-42 128-45 4-10 8-19 13-27 5-9 10-17 17-26 14-18 30-32 46-42 16-10 30-15 43-14 25 1 45 3 62 5 17 2 26 4 29 6 9 7 11 22 7 45-4 23-10 40-17 49-1 2-13 7-35 17-22 9-37 20-47 32-6 7-8 18-7 33 1 15-4 29-14 42-5 6-9 11-13 14-4 3-8 4-13 5-5 1-18-2-37-8-19-6-31-11-36-15-5-4-9-11-12-21-2-10-3-20-1-31zm190 284c48 9 94 8 140-3 45-11 79-27 101-51 6-7 10-13 11-19 1-6 0-11-4-14-20-19-55-20-105-4-50 16-98 46-142 91zm-26 49c-4 17-4 34 2 51 5 17 15 31 28 44 16 15 37 26 63 32 26 6 40 10 42 12 5 5 8 10 8 16 1 6-1 11-6 16-12 13-41 13-85 1-45-12-78-29-100-50-9-9-25-27-46-55-21-28-38-48-52-61-17-16-23-37-17-65 5-27 21-55 47-82 21-22 54-42 99-61 45-19 90-30 135-35 51-5 100-2 149 8 49 10 82 23 99 40 15 15 22 32 20 53-2 21-13 41-33 62-14 15-31 26-52 34-2 1-3 1-4 2-7 3-16 9-28 18-12 9-21 15-28 17-33 16-72 24-115 25-44 1-86-7-127-22zm321 311c11 14 38 26 81 35 43 10 93 14 149 14 42 0 78-3 109-8 31-5 50-10 58-16 2-2 3-4 3-6 0-2-2-5-4-8-9-11-35-22-78-33-43-11-93-18-148-22-40-2-74-1-102 3-28 5-49 12-62 22-5 4-8 7-8 10-1 3 0 6 3 9zm150 98c-41-1-77-6-108-15-31-8-59-21-85-37-26-17-51-34-73-51-22-17-35-28-39-32-10-13-12-29-7-48 6-19 17-35 35-49 10-8 26-15 48-20 22-5 52-10 89-13 44-4 89-3 135 4 46 7 95 20 149 39 37 13 70 29 99 47 30 18 51 35 64 51 19 24 31 49 36 76 5 27 1 45-10 54-3 3-21 11-52 24-32 13-60 26-86 38-52 24-96 45-132 63-36 18-57 30-63 35-6 5-11 11-16 20-5 9-8 14-11 16-6 5-15 6-26 4-12-2-21-8-28-17-3-4-6-9-8-17-3-8-5-14-8-17-2-2-5-5-9-8-4-3-7-5-8-7-9-12-9-26 1-42 10-17 30-37 59-60 7-6 15-12 24-17 9-6 20-12 32-20zm814 203c4 6 5 12 4 17-2 5-7 11-15 16-13 8-71 21-177 39l-20 3c-134 22-225 39-273 50-47 11-80 23-98 35-10 7-16 15-19 23-2 9 0 18 7 28 15 23 41 40 77 53 36 12 55 20 57 23 4 5 4 11 2 17-2 6-7 11-13 16-9 6-23 8-44 6-20-2-45-8-73-18-36-13-71-29-103-48-32-19-51-33-57-41-4-7-6-17-5-31 1-14 2-23 1-28-1-4-2-9-3-15-6-35-4-57 9-65 2-1 7-4 16-7 9-4 17-8 22-11 1-1 3-2 5-4 2-2 4-3 4-4 21-14 84-32 190-53l27-5c27-6 64-13 111-22 104-20 163-35 179-46 5-3 11-8 17-13 6-5 10-8 12-9 3-2 6-4 9-4 2 0 5 0 9 2 8 4 26 16 53 35 20 14 35 24 47 33 4 3 10 7 17 11 12 8 19 13 22 17zm-70 348c-3-6-2-13 2-21 5-8 11-15 21-20 5-3 19-3 42-1 11 1 19 2 25 2 13 1 28 10 47 26 19 16 32 32 41 48 5 9 6 18 3 26-3 8-8 15-18 20-5 3-14 5-25 8-12 2-25 4-39 5-13 1-29-8-49-26-20-18-36-40-50-66zm-468 161c-11-20-12-41-3-63 9-21 25-39 50-52 9-5 23-9 43-13 20-4 47-8 81-11 27-2 62-6 105-11 66-7 102-9 109-8 10 3 23 12 40 27 9 8 15 14 20 18 4 3 12 8 24 15 11 7 18 13 21 19 4 7 4 14 1 21-3 7-10 13-20 18-10 5-34 8-71 8-27 0-49 0-66 1-36 2-68 6-96 11-28 5-48 11-62 18-10 5-17 12-20 21-3 8-3 17 1 24 4 8 16 17 36 28 20 11 31 19 34 25 3 6 4 12 2 18-2 6-6 11-12 14-10 5-30 3-60-7-30-10-54-25-72-45-13-14-29-29-48-44-19-15-30-26-35-34zm629 369c-58-30-117-49-178-59-61-9-107-7-138 6-12 5-20 11-23 18-4 7-3 16 1 27 14 34 49 55 104 64 55 9 111 1 169-22 11-5 22-10 33-15 11-6 22-12 33-19zm49-34c42-39 75-76 100-112 25-36 42-69 49-100 6-22 7-48 4-78-3-30 0-47 9-50 10-4 28 6 54 29 26 23 42 44 50 63 8 20 11 47 7 82-4 34-13 68-28 102-20 45-48 85-85 119-36 34-80 62-132 84-41 17-85 28-132 33-46 5-95 4-146-3-20-3-52-15-95-36-6-3-11-6-15-7-36-17-68-37-95-62-28-25-46-48-55-70-13-30-13-58-2-83 11-25 33-45 65-58 13-5 38-11 75-16 37-5 65-7 85-5 40 4 86 21 138 51 52 30 101 69 149 116zm-206 464c5 17 25 39 61 65 36 26 80 50 131 72 39 16 73 28 103 36 30 8 50 11 60 8 3-1 4-2 5-4 1-2 1-5-1-9-4-13-23-34-58-61-35-27-78-54-128-79-35-18-67-31-95-38-28-7-50-9-66-4-6 2-10 3-11 6-2 2-2 5-1 10zm98 150c-37-18-68-37-93-57-25-20-46-43-63-67-18-26-33-51-47-76-14-24-22-40-23-45-4-16 0-32 13-47 13-15 30-26 51-31 12-3 30-3 52 1 22 4 51 12 87 23 42 14 83 33 122 57 39 25 80 56 121 95 28 26 52 54 73 83 20 28 33 53 38 72 8 30 9 58 3 84-6 26-16 42-31 45-4 1-23 1-58 1-34 0-66 0-94 1-57 1-106 3-146 6-41 2-65 5-72 7-7 2-15 6-23 12-8 6-13 10-16 11-7 2-16 0-26-7-10-7-16-16-19-27-1-4-1-11-1-19 1-8 1-15-1-19-1-3-2-7-5-11-3-4-4-8-5-10-4-14 2-27 18-38 16-11 42-22 78-32 9-2 19-5 29-6 10-2 23-3 38-5zm354 538c-50-42-104-74-161-96-58-22-103-30-136-24-13 2-22 7-27 13-5 6-7 15-5 26 7 36 36 65 88 85 52 21 108 25 169 14 12-2 24-5 35-8 12-3 24-7 36-11zm55-22c49-29 90-58 122-88 33-29 56-59 69-87 10-20 17-45 21-75 4-30 10-46 19-47 11-2 26 11 46 40 20 28 32 52 35 72 4 21 0 48-11 81-11 33-27 64-49 94-29 40-66 72-109 98-43 25-92 43-147 53-44 8-89 9-136 4-46-5-94-17-142-35-19-7-47-26-85-55-5-4-10-8-13-11-31-24-58-51-80-81-22-30-34-57-39-80-6-32 0-59 16-81 16-22 42-37 76-43 14-3 39-2 77 1 38 3 65 8 84 14 38 12 80 39 124 79 44 40 84 89 120 145zm-263 421c27 40 61 73 100 97 39 25 75 37 107 36 9 0 16-2 21-5 5-3 7-8 7-13-1-28-24-54-71-78-47-25-102-37-165-37zm-53 16c-15 9-27 22-35 37-8 15-12 32-12 51 0 22 8 45 22 67 14 23 21 36 21 39 0 7-2 13-6 17-4 5-9 7-15 7-18 0-38-20-60-60-22-40-34-76-35-107 0-13 2-37 7-71 5-34 8-61 7-80-1-23 11-42 34-58 23-15 54-24 91-24 30-1 68 8 113 27 45 19 85 43 120 72 39 33 72 70 99 112 27 42 41 74 41 98 0 21-7 38-24 51-16 13-39 19-68 20-20 0-41-4-61-13-2-1-3-1-4-2-7-3-18-5-32-7-15-2-25-4-32-7-35-12-68-34-99-64-31-31-56-66-74-106zm142 402c0-4 2-7 6-10 4-3 9-4 14-4 2 0 27 7 75 22 48 15 97 29 147 41 22 5 44 10 66 13 22 4 34 6 36 6 13 3 26 15 40 35 2 2 3 4 4 5 7 10 17 22 29 38 22 28 34 46 34 54 0 7-2 13-7 16-5 3-12 5-21 5-26 0-69-11-130-34-60-23-138-57-233-102-13-6-26-20-39-42-13-22-20-37-20-44zm-270-57c0-8 10-19 29-34 19-14 36-22 49-22 18 0 39 12 62 36 23 24 35 46 35 67 0 16-8 28-23 36-15 8-39 12-71 12-16 0-31-14-46-41-4-6-6-11-8-13-2-2-4-4-7-8-14-15-21-26-21-33z" fill-rule="nonzero"/></g><path d="m12568 3960c0 7-7 16-20 25-13 9-26 14-37 13l-21-1c-18-1-39-16-62-47-23-30-34-51-33-63 1-13 10-25 29-35 19-10 43-15 73-13 12 1 27 15 45 43 18 28 26 54 25 77zm16-303c-1 7-8 15-21 24-13 9-26 13-38 12l-21-2c-18-1-39-18-60-49-22-31-32-52-31-64 1-13 11-24 31-34 19-9 44-13 73-11 12 1 27 16 44 45 17 29 24 55 23 78zm24-301c-1 7-9 15-23 22-14 8-27 10-39 8l-20-3c-18-3-37-21-56-54-19-33-27-55-25-67 2-13 13-23 34-31 20-8 45-9 74-4 12 2 25 18 40 49 14 30 19 57 16 80zm-110-457c-18-45-44-84-77-117-33-33-65-52-96-58-9-2-16-2-22 0-5 2-9 6-10 11-5 27 12 58 52 92 40 34 91 58 153 72zm55-4c17-6 31-15 42-29 11-13 19-29 22-47 4-22 2-45-6-70-9-25-13-39-12-42 1-7 4-12 9-16 5-4 10-5 16-4 17 4 33 28 46 72 13 44 17 82 11 112-3 13-10 36-23 68-13 32-21 58-25 76-5 23-20 39-46 49-26 10-57 11-94 4-30-6-64-23-104-51-40-28-74-60-101-96-31-41-55-84-72-131-17-47-24-81-19-105 4-21 16-36 34-44 19-9 42-11 70-5 20 4 39 12 56 25 2 1 3 2 4 3 6 4 16 9 30 14 14 5 23 10 29 14 31 20 59 48 83 84 24 37 40 76 49 119zm-407-179c-1 4-2 7-4 8-2 2-4 2-7 2-5-1-19-12-43-33-23-21-47-46-72-74-9-11-15-21-17-30-2-9 0-26 5-51l10-49c3-15 6-25 8-29 3-5 6-7 10-6 6 1 20 25 45 71 6 12 11 22 15 28 7 13 17 30 29 50 22 37 31 65 27 84l-6 30zm429-539l-5 9c-6 13-12 21-15 23-4 2-9 2-15-1-5-3-11-14-18-36-7-21-12-49-18-83-58-77-95-127-109-150-14-23-21-39-21-48 1-3 2-8 4-14 2-7 4-13 4-17 1-5 1-12 0-20-1-16 1-28 4-34 3-7 8-12 14-14 6-2 14-3 24-2 4 1 8 2 12 3 4 1 7 2 8 3 5 2 19 22 43 58 24 36 50 70 77 101 5-7 11-18 19-31 17-27 30-39 41-34 9 4 18 17 27 37 3 8 6 13 8 16 2 2 3 5 5 8 9 14 9 30 0 47 0 1-4 7-10 18-6 11-12 22-17 32 16 24 32 43 48 60 16 16 31 28 45 35 16 8 29 10 41 6 12-4 21-13 28-28 7-14 12-33 14-56 2-23 5-37 7-42 3-7 8-12 15-14 6-2 13-2 20 2 15 7 25 38 30 91 5 53-4 103-26 148-14 28-38 47-72 55-34 8-66 5-95-10-11-6-30-23-57-52-27-29-47-51-63-67zm285-611c13 50 31 97 55 142 24 45 47 76 67 94 10 9 19 13 28 14 9 1 17-2 23-9 12-15 16-44 12-88-5-44-19-88-42-131-25 7-50 9-76 5-25-4-48-12-67-26zm-73-47c-8-10-9-28-5-52 4-24 10-41 17-50 10-11 34-17 73-17 39 0 71 11 96 32 5 4 9 9 15 15 6 6 12 14 19 23 30 26 53 54 69 84 16 30 27 66 32 105 6 50 4 99-7 147-11 48-28 86-51 113-22 26-47 40-77 42-29 3-54-5-75-22-50-43-86-104-106-182-20-78-21-158-2-240zm675-245c-15 37-25 82-30 134-5 52-8 81-10 87-4 15-15 34-32 57-17 23-31 36-41 40-16 6-35 3-57-9-22-12-35-24-40-37-3-9 0-21 10-36 10-15 17-26 20-35 5-17 6-40 2-68-4-29-13-61-26-97-4-10-7-16-12-19-4-3-11-2-20 1-12 4-22 6-30 4-8-2-13-6-16-13-5-12-1-28 12-46 12-19 28-32 48-41 13-6 24-14 35-26 10-12 18-19 22-20 10-4 20-1 28 8 9 9 17 24 25 45 7 19 13 43 18 71 5 28 9 69 14 123 1-9 3-21 5-36 10-69 19-113 28-133-6-8-12-16-17-25-5-9-9-18-13-28-8-22-12-42-13-61 0-19 3-34 10-44 14-20 26-37 37-50 11-13 17-20 21-22 11-4 25 2 42 17 18 15 29 29 33 40 1 2-1 15-4 38-3 23-2 42 3 57 3 9 11 16 24 23 13 7 23 18 28 34 3 8 4 14 5 18 0 5-1 9-3 14-2 5-11 14-26 27-16 13-26 21-31 23-6 2-14 2-24-1-10-3-18-8-26-15zm370-3c37-61 73-114 108-157 35-44 66-76 94-95 7-10 17-18 30-25 13-7 26-10 39-10 17 0 30 7 40 21 10 14 16 33 16 57 0 35-8 81-23 139-16 57-23 96-23 116 0 13 3 24 10 33 6 9 10 15 10 18 0 12-16 29-47 50-32 21-58 32-78 32-15 0-27-8-35-24-8-16-12-40-13-72 0-5 2-16 7-32 5-16 13-44 25-82 10-30 19-55 25-76 6-21 9-34 9-39 0-1-1-2-2-3-1-1-2-1-4-1-4 0-15 10-33 31-18 21-41 51-71 92-30 41-57 80-84 118-26 38-40 58-40 58 0 1-13 7-37 17-25 11-38 16-39 16-4 0-12-6-23-19-11-13-16-22-16-28 0-3 5-24 15-62 10-38 21-79 34-123 15-51 30-96 43-133 13-38 22-60 26-66 3-4 15-10 37-20 22-10 35-15 42-15 15 0 30 4 42 14 13 9 19 20 19 31 0 1-13 26-39 74-26 48-48 104-64 168zm581 113c17 4 46-4 85-23 40-20 81-47 125-83 32-26 59-51 80-74 21-23 33-39 35-49 1-3 0-5-2-6-2-2-4-3-8-4-14-3-41 5-81 23-41 19-84 44-130 76-32 23-58 45-78 66-19 21-31 40-35 56-1 6-2 10 0 13 1 2 4 4 8 5zm178-17c-33 25-64 43-94 56-30 13-59 21-89 25-31 3-61 6-89 6-28 1-45 1-51-1-16-4-28-15-36-34-7-19-9-39-4-60 3-13 11-28 25-46 14-18 34-40 61-66 32-31 68-58 108-81 40-23 87-44 140-63 37-13 72-21 107-26 35-4 62-4 82 0 30 7 55 19 75 37 20 18 29 34 26 49-1 4-10 21-26 52-16 30-31 58-43 84-25 51-46 95-63 132-17 37-26 59-28 67-2 8-2 16 0 26 2 10 2 16 2 19-2 7-8 14-18 19-10 6-21 7-33 5-4-1-10-4-17-8-7-5-13-7-17-8-3-1-7-1-12-1-5 0-9 0-11 0-14-3-23-14-26-34-3-19 0-47 9-84 2-9 5-19 8-28 3-10 8-22 13-36zm149-347c-4-1-7-2-8-4-2-2-2-4-2-7 1-5 13-19 35-42 22-23 47-46 76-70 11-9 21-14 30-16 9-1 26 1 51 6l49 11c15 3 24 6 29 9 5 3 7 6 6 10-1 6-25 20-72 42-12 6-22 10-29 14-13 7-30 16-51 27-38 21-66 29-84 25l-30-7zm369 368l12 4c12 4 27 8 47 13 20 5 33 8 41 11 9 3 15 7 19 12 4 5 4 11 2 18-1 3-6 11-15 25-9 14-19 27-30 40-5 6-11 10-17 11-6 1-15 0-26-4 0 0-9-4-27-10-18-7-35-13-53-19l-14-5-52-17c-12-4-28-8-47-13-19-5-32-9-39-11-10-3-16-7-19-13-4-5-4-11-2-18 1-3 6-11 15-24 9-13 19-26 30-40 5-6 11-10 17-11 6-1 15 0 26 4 2 1 5 2 12 5 28 11 55 20 82 29l40 13zm677-182c7 3 11 7 13 12 1 5 0 12-3 21-6 14-48 57-125 131l-14 14c-99 93-166 157-199 193-33 36-54 64-62 84-5 11-6 21-2 30 3 8 10 15 21 19 25 11 56 11 93 1 37-10 57-14 61-13 6 3 10 7 12 13 2 6 1 13-2 20-4 10-15 19-33 29-18 10-42 18-71 26-37 10-75 15-113 17-38 2-61 1-70-2-7-3-15-11-21-23-7-12-11-20-14-24-3-3-6-6-11-11-25-26-35-45-29-59 1-2 4-7 10-15 5-8 9-16 12-22 0-1 1-3 2-6 1-3 1-5 2-5 10-24 53-73 128-149l20-20c20-20 46-47 80-80 75-74 116-120 123-138 2-6 5-13 7-20 2-8 4-13 5-14 2-4 3-7 5-8 2-2 5-3 8-3 9-1 30-1 64-1 24 0 43 1 58 1 5 0 12 0 21 0 14 0 23 0 27 2zm177 496c-46 22-89 49-129 81-39 32-66 60-79 84-7 12-9 22-8 31 1 9 5 16 13 20 17 9 46 8 89-5 42-13 83-35 121-66-12-23-18-48-19-73-1-26 3-49 12-71zm32-80c9-9 25-14 50-15 25-1 42 2 52 7 13 7 23 30 30 69 7 39 3 72-13 101-3 5-7 11-12 18-5 7-12 15-19 23-19 34-43 62-69 84-27 22-59 39-97 51-48 16-97 23-146 21-49-2-89-11-121-29-29-17-48-39-56-67-8-28-6-54 8-77 33-58 86-104 158-138 73-35 151-50 235-47zm632 646c-39 7-83 21-130 44-47 23-74 35-80 37-15 4-37 5-65 2-28-3-47-8-55-14-13-11-21-28-22-53-1-25 2-43 10-53 6-8 18-11 36-10 18 1 31 1 40-1 17-4 37-16 59-34 22-18 45-43 69-73 7-8 10-15 10-20 0-5-4-10-12-17-10-8-16-16-19-24-3-8-2-15 3-21 8-10 23-15 46-14 22 1 42 7 59 20 12 8 25 13 41 16 16 3 25 6 29 8 8 7 11 16 8 28-3 12-11 27-26 45-12 16-30 33-52 52-22 19-54 44-98 76 8-4 19-9 33-14 64-27 107-42 128-45 4-10 8-19 13-27 5-9 10-17 17-26 14-18 30-32 46-42 16-10 30-15 43-14 25 1 45 3 62 5 17 2 26 4 29 6 9 7 11 22 7 45-4 23-10 40-17 49-1 2-13 7-35 17-22 9-37 20-47 32-6 7-8 18-7 33 1 15-4 29-14 42-5 6-9 11-13 14-4 3-8 4-13 5-5 1-18-2-37-8-19-6-31-11-36-15-5-4-9-11-12-21-2-10-3-20-1-31zm190 284c48 9 94 8 140-3 45-11 79-27 101-51 6-7 10-13 11-19 1-6 0-11-4-14-20-19-55-20-105-4-50 16-98 46-142 91zm-26 49c-4 17-4 34 2 51 5 17 15 31 28 44 16 15 37 26 63 32 26 6 40 10 42 12 5 5 8 10 8 16 1 6-1 11-6 16-12 13-41 13-85 1-45-12-78-29-100-50-9-9-25-27-46-55-21-28-38-48-52-61-17-16-23-37-17-65 5-27 21-55 47-82 21-22 54-42 99-61 45-19 90-30 135-35 51-5 100-2 149 8 49 10 82 23 99 40 15 15 22 32 20 53-2 21-13 41-33 62-14 15-31 26-52 34-2 1-3 1-4 2-7 3-16 9-28 18-12 9-21 15-28 17-33 16-72 24-115 25-44 1-86-7-127-22zm321 311c11 14 38 26 81 35 43 10 93 14 149 14 42 0 78-3 109-8 31-5 50-10 58-16 2-2 3-4 3-6 0-2-2-5-4-8-9-11-35-22-78-33-43-11-93-18-148-22-40-2-74-1-102 3-28 5-49 12-62 22-5 4-8 7-8 10-1 3 0 6 3 9zm150 98c-41-1-77-6-108-15-31-8-59-21-85-37-26-17-51-34-73-51-22-17-35-28-39-32-10-13-12-29-7-48 6-19 17-35 35-49 10-8 26-15 48-20 22-5 52-10 89-13 44-4 89-3 135 4 46 7 95 20 149 39 37 13 70 29 99 47 30 18 51 35 64 51 19 24 31 49 36 76 5 27 1 45-10 54-3 3-21 11-52 24-32 13-60 26-86 38-52 24-96 45-132 63-36 18-57 30-63 35-6 5-11 11-16 20-5 9-8 14-11 16-6 5-15 6-26 4-12-2-21-8-28-17-3-4-6-9-8-17-3-8-5-14-8-17-2-2-5-5-9-8-4-3-7-5-8-7-9-12-9-26 1-42 10-17 30-37 59-60 7-6 15-12 24-17 9-6 20-12 32-20zm814 203c4 6 5 12 4 17-2 5-7 11-15 16-13 8-71 21-177 39l-20 3c-134 22-225 39-273 50-47 11-80 23-98 35-10 7-16 15-19 23-2 9 0 18 7 28 15 23 41 40 77 53 36 12 55 20 57 23 4 5 4 11 2 17-2 6-7 11-13 16-9 6-23 8-44 6-20-2-45-8-73-18-36-13-71-29-103-48-32-19-51-33-57-41-4-7-6-17-5-31 1-14 2-23 1-28-1-4-2-9-3-15-6-35-4-57 9-65 2-1 7-4 16-7 9-4 17-8 22-11 1-1 3-2 5-4 2-2 4-3 4-4 21-14 84-32 190-53l27-5c27-6 64-13 111-22 104-20 163-35 179-46 5-3 11-8 17-13 6-5 10-8 12-9 3-2 6-4 9-4 2 0 5 0 9 2 8 4 26 16 53 35 20 14 35 24 47 33 4 3 10 7 17 11 12 8 19 13 22 17zm-70 348c-3-6-2-13 2-21 5-8 11-15 21-20 5-3 19-3 42-1 11 1 19 2 25 2 13 1 28 10 47 26 19 16 32 32 41 48 5 9 6 18 3 26-3 8-8 15-18 20-5 3-14 5-25 8-12 2-25 4-39 5-13 1-29-8-49-26-20-18-36-40-50-66zm-468 161c-11-20-12-41-3-63 9-21 25-39 50-52 9-5 23-9 43-13 20-4 47-8 81-11 27-2 62-6 105-11 66-7 102-9 109-8 10 3 23 12 40 27 9 8 15 14 20 18 4 3 12 8 24 15 11 7 18 13 21 19 4 7 4 14 1 21-3 7-10 13-20 18-10 5-34 8-71 8-27 0-49 0-66 1-36 2-68 6-96 11-28 5-48 11-62 18-10 5-17 12-20 21-3 8-3 17 1 24 4 8 16 17 36 28 20 11 31 19 34 25 3 6 4 12 2 18-2 6-6 11-12 14-10 5-30 3-60-7-30-10-54-25-72-45-13-14-29-29-48-44-19-15-30-26-35-34zm629 369c-58-30-117-49-178-59-61-9-107-7-138 6-12 5-20 11-23 18-4 7-3 16 1 27 14 34 49 55 104 64 55 9 111 1 169-22 11-5 22-10 33-15 11-6 22-12 33-19zm49-34c42-39 75-76 100-112 25-36 42-69 49-100 6-22 7-48 4-78-3-30 0-47 9-50 10-4 28 6 54 29 26 23 42 44 50 63 8 20 11 47 7 82-4 34-13 68-28 102-20 45-48 85-85 119-36 34-80 62-132 84-41 17-85 28-132 33-46 5-95 4-146-3-20-3-52-15-95-36-6-3-11-6-15-7-36-17-68-37-95-62-28-25-46-48-55-70-13-30-13-58-2-83 11-25 33-45 65-58 13-5 38-11 75-16 37-5 65-7 85-5 40 4 86 21 138 51 52 30 101 69 149 116zm-206 464c5 17 25 39 61 65 36 26 80 50 131 72 39 16 73 28 103 36 30 8 50 11 60 8 3-1 4-2 5-4 1-2 1-5-1-9-4-13-23-34-58-61-35-27-78-54-128-79-35-18-67-31-95-38-28-7-50-9-66-4-6 2-10 3-11 6-2 2-2 5-1 10zm98 150c-37-18-68-37-93-57-25-20-46-43-63-67-18-26-33-51-47-76-14-24-22-40-23-45-4-16 0-32 13-47 13-15 30-26 51-31 12-3 30-3 52 1 22 4 51 12 87 23 42 14 83 33 122 57 39 25 80 56 121 95 28 26 52 54 73 83 20 28 33 53 38 72 8 30 9 58 3 84-6 26-16 42-31 45-4 1-23 1-58 1-34 0-66 0-94 1-57 1-106 3-146 6-41 2-65 5-72 7-7 2-15 6-23 12-8 6-13 10-16 11-7 2-16 0-26-7-10-7-16-16-19-27-1-4-1-11-1-19 1-8 1-15-1-19-1-3-2-7-5-11-3-4-4-8-5-10-4-14 2-27 18-38 16-11 42-22 78-32 9-2 19-5 29-6 10-2 23-3 38-5zm354 538c-50-42-104-74-161-96-58-22-103-30-136-24-13 2-22 7-27 13-5 6-7 15-5 26 7 36 36 65 88 85 52 21 108 25 169 14 12-2 24-5 35-8 12-3 24-7 36-11zm55-22c49-29 90-58 122-88 33-29 56-59 69-87 10-20 17-45 21-75 4-30 10-46 19-47 11-2 26 11 46 40 20 28 32 52 35 72 4 21 0 48-11 81-11 33-27 64-49 94-29 40-66 72-109 98-43 25-92 43-147 53-44 8-89 9-136 4-46-5-94-17-142-35-19-7-47-26-85-55-5-4-10-8-13-11-31-24-58-51-80-81-22-30-34-57-39-80-6-32 0-59 16-81 16-22 42-37 76-43 14-3 39-2 77 1 38 3 65 8 84 14 38 12 80 39 124 79 44 40 84 89 120 145zm-263 421c27 40 61 73 100 97 39 25 75 37 107 36 9 0 16-2 21-5 5-3 7-8 7-13-1-28-24-54-71-78-47-25-102-37-165-37zm-53 16c-15 9-27 22-35 37-8 15-12 32-12 51 0 22 8 45 22 67 14 23 21 36 21 39 0 7-2 13-6 17-4 5-9 7-15 7-18 0-38-20-60-60-22-40-34-76-35-107 0-13 2-37 7-71 5-34 8-61 7-80-1-23 11-42 34-58 23-15 54-24 91-24 30-1 68 8 113 27 45 19 85 43 120 72 39 33 72 70 99 112 27 42 41 74 41 98 0 21-7 38-24 51-16 13-39 19-68 20-20 0-41-4-61-13-2-1-3-1-4-2-7-3-18-5-32-7-15-2-25-4-32-7-35-12-68-34-99-64-31-31-56-66-74-106zm142 402c0-4 2-7 6-10 4-3 9-4 14-4 2 0 27 7 75 22 48 15 97 29 147 41 22 5 44 10 66 13 22 4 34 6 36 6 13 3 26 15 40 35 2 2 3 4 4 5 7 10 17 22 29 38 22 28 34 46 34 54 0 7-2 13-7 16-5 3-12 5-21 5-26 0-69-11-130-34-60-23-138-57-233-102-13-6-26-20-39-42-13-22-20-37-20-44zm-270-57c0-8 10-19 29-34 19-14 36-22 49-22 18 0 39 12 62 36 23 24 35 46 35 67 0 16-8 28-23 36-15 8-39 12-71 12-16 0-31-14-46-41-4-6-6-11-8-13-2-2-4-4-7-8-14-15-21-26-21-33z" fill="none" fill-rule="nonzero" stroke="#201e1e" stroke-width="7.62"/></svg>