<svg xmlns="http://www.w3.org/2000/svg" width="744.09" height="1052.36" viewBox="0 0 21000 29700" shape-rendering="geometricPrecision" image-rendering="optimizeQuality" fill-rule="evenodd" clip-rule="evenodd" xmlns:xlink="http://www.w3.org/1999/xlink"><defs><path id="2" d="m14958 4228c27-7 19-11 40-11 41 0 88 59 88 108v10c0 78-182 151-265 151-6 0-21-15-29-21l-21-162v-86c0-22 32-75 59-75h59c43 0 55 53 69 86z" stroke-width="7.62" fill="#201e1e" stroke="#201e1e"/><path id="3" d="m6158 4228c-27-7-19-11-40-11-41 0-88 59-88 108v10c0 78 182 151 265 151 6 0 21-15 29-21l21-162v-86c0-22-32-75-59-75h-59c-43 0-55 53-69 86z" stroke-width="7.62" fill="#201e1e" stroke="#201e1e"/><clipPath id="0"><path d="m14394 2487c2165-59 5632 1714 5640 5942 2 1129-436 4887-541 6379-124 1788-217 4334-255 6146-17 1568-379 2476-1073 2843-924 322-1884 417-2895 182-1045-268-1564-1101-1579-2786 39-2176 303-5943-107-7921-530-2560-1200-2896-1458-5981-156-1856-99-4740 2268-4804"/></clipPath><clipPath id="1"><path d="m6642 2487c-2165-59-5632 1714-5639 5942-2 1129 436 4887 540 6379 125 1788 217 4334 255 6146 17 1568 379 2476 1073 2843 925 322 1884 417 2895 182 1045-268 1565-1101 1580-2786-40-2176-303-5943 106-7921 531-2560 1201-2896 1459-5981 155-1856 99-4740-2269-4804"/></clipPath></defs><text x="10081" y="24465" fill="#201e1e" font-family="&apos;Arial Black&apos;" stroke="#201e1e" font-weight="900" stroke-width="7.62" font-size="705.56">34</text><g fill="none" stroke-width="80"><g stroke="#322f30"><circle cx="10533" cy="1326" r="460"/><path d="m10533 515v1621"/><path d="m9723 1326h1621"/></g><g stroke="#373435"><circle cx="10533" cy="25836" r="460"/><path d="m10533 25026v1621"/><path d="m9723 25836h1621"/></g></g><rect x="9843" y="22866" width="1347" height="637" rx="318" fill="#fff" stroke="#fff" stroke-width="20"/><g fill="#373435" font-family="&apos;Arial&apos;" font-size="423.33"><text x="999" y="27531">DESC 1</text><text x="999" y="27960">DESC 2</text><text x="999" y="28436">DESC 3</text></g><g transform="matrix(1.0077 0 0 1-20147.9-808.33)" fill="#634038" font-family="&apos;Brush455 BT&apos;" stroke="#fff" stroke-linejoin="round" stroke-linecap="round" stroke-width="400" font-size="1282.29"><text x="33581" y="4233"><tspan rotate="347">.</tspan></text><text x="33911" y="4156">.</text><text x="34240" y="4156"><tspan rotate="365">.</tspan></text><text x="34569" y="4181"><tspan rotate="371">q</tspan></text><text x="35186" y="4310"><tspan rotate="378">u</tspan></text><text x="35753" y="4502"><tspan rotate="385">e</tspan></text><text x="36207" y="4707"><tspan rotate="391">r</tspan></text><text x="36605" y="4938"><tspan rotate="396">o</tspan></text><text x="37031" y="5258"><tspan rotate="401"/></text><text x="37284" y="5464"><tspan rotate="404">s</tspan></text><text x="37571" y="5759"><tspan rotate="410">e</tspan></text><text x="37884" y="6143"><tspan rotate="417">r</tspan></text><text x="38141" y="6528"><tspan rotate="419"/></text><text x="38304" y="6810"><tspan rotate="426">s</tspan></text><text x="38476" y="7195"><tspan rotate="429">e</tspan></text><text x="38635" y="7656"><tspan rotate="436">u</tspan></text><text x="38779" y="8246"><tspan rotate="441"/></text><text x="38826" y="8567"><tspan rotate="445">p</tspan></text><text x="38871" y="9298"><tspan rotate="452">a</tspan></text><text x="38843" y="9939"><tspan rotate="453">r</tspan></text><text x="38818" y="10400"><tspan rotate="454">!</tspan></text></g><path d="m14394 2487c2165-59 5632 1714 5640 5942 2 1129-436 4887-541 6379-124 1788-217 4334-255 6146-17 1568-379 2476-1073 2843-924 322-1884 417-2895 182-1045-268-1564-1101-1579-2786 39-2176 303-5943-107-7921-530-2560-1200-2896-1458-5981-156-1856-99-4740 2268-4804" fill="#fff"/><g clip-path="url(#0)"><g><g fill="#201e1e" stroke="#201e1e"><path d="m16575 21264c-40-33-75-67-107-100-32-34-60-68-85-103-46 3-85 21-116 54-31 33-47 72-47 117 0 42 13 74 38 99 26 24 60 36 104 36 37 0 75-9 111-26 37-18 71-44 102-77zm175 85c0-20-8-45-23-73-16-28-37-57-64-86-8 14-16 26-23 36-8 10-15 20-23 29 24 22 47 41 69 57 22 15 43 28 64 37zm-153-109c11-12 20-23 28-34 9-12 16-24 21-37-28-27-57-48-87-65-31-16-62-27-95-32 15 30 33 60 55 88 22 27 48 54 78 80zm-2 39c-44 43-88 75-132 95-45 21-92 31-142 31-54 0-100-16-136-48-36-32-54-72-54-119 0-56 22-103 67-144 44-41 100-64 167-69-13-24-24-48-30-72-7-24-11-47-11-70 0-64 23-116 68-157 46-41 104-62 174-62 15 0 30 2 45 4 14 2 29 6 43 11l-17 40c-17-8-33-14-48-18-15-4-29-6-42-6-46 0-81 14-106 44-26 29-39 70-39 122 0 27 4 55 10 82 7 28 17 56 30 83 38 9 75 24 111 44 36 19 71 45 104 75 7-17 12-34 15-52 3-17 5-35 5-54 0-7-1-19-3-36 0-2 0-4 0-6l215-7c31-1 55-4 72-11 17-6 31-17 42-31l6-1 2 4c-11 41-32 70-64 87-32 16-85 24-159 24-16 0-43-1-81-2-1 0-3 0-3 0-3 16-6 33-11 50-4 18-9 36-16 55 39 47 70 89 93 126 24 37 40 70 49 99l-4 6c-25 0-54-9-88-27-34-19-78-48-132-90z" stroke-linejoin="round" stroke-linecap="round" stroke-width="50"/><g stroke-width="7.62"><path d="m13875 3091c-7 2-18-2-31-13-14-11-22-23-25-35l-5-22c-5-19 6-45 31-78 25-32 43-49 56-52 14-3 29 3 45 20 16 17 28 41 35 72 3 13-8 33-32 60-24 27-49 43-74 48zm325-71c-8 0-18-7-28-20-11-14-16-27-16-40v-22c0-20 16-43 47-69 32-26 54-39 67-39 14 0 28 10 40 30 11 20 17 46 17 78 0 13-15 30-45 51-30 21-57 31-82 31zm328 2c-8-1-16-9-26-23-9-15-13-28-12-41l2-22c1-20 19-42 53-65 34-23 57-33 70-32 14 1 27 12 37 33 10 21 14 47 11 79-1 13-18 29-50 47-31 18-60 26-85 24zm428-119c-1 4 0 8 2 11 3 2 6 4 9 5 18 3 48-5 91-25 44-19 87-47 129-82 36-29 68-60 96-92 29-32 44-52 45-60 1-1 0-2 0-3-1-2-3-2-5-3-19-3-56 7-110 30-54 23-103 54-147 92-28 24-54 50-75 77-22 26-34 43-35 50zm215-4c-69 46-133 79-191 101-58 22-104 29-137 23-24-5-42-17-54-38-12-20-16-44-11-71 4-16 12-35 26-56 14-22 33-43 55-66 46-45 96-83 150-115 54-32 109-56 164-72 38-11 80-19 126-24 46-5 74-7 83-5 14 2 25 17 34 43 3 9 5 16 7 21 3 6 7 14 13 25 11 19 15 35 13 47-3 11-35 59-99 142-64 84-120 164-170 240 29-21 62-48 101-81 41-34 66-50 76-48 8 2 13 5 18 11 3 6 5 13 4 20-3 10-37 44-105 100-67 57-126 116-175 177-35 43-61 86-80 127-1 2-2 4-2 5-6 12-14 20-22 24-9 4-22 4-39 1-19-4-33-10-43-19-10-10-13-20-11-32 16-84 91-223 225-416 19-28 34-49 44-64zm690 105c-48 40-93 74-134 99-41 26-72 41-92 44-5 2-11 3-20 3-9 1-15 1-19 2-5 2-12 4-21 6-30 8-49 11-59 8-15-5-28-20-38-45-10-24-13-43-9-56 2-6 12-24 29-53 17-29 35-59 56-89 38-54 71-97 99-130 28-33 50-54 66-63 8-5 17-8 27-9 10-1 15-2 15-2 3-1 7-3 15-6 27-11 50-14 66-9 11 4 19 17 25 40 4 23 6 39 3 48-3 7-24 33-64 77l-10 11c-14 15-33 36-57 60-43 47-66 75-69 85-2 6-2 10-1 14 2 3 5 6 10 8 19 6 73-29 160-106 49-42 87-75 116-98 10-9 27-15 51-19 25-4 40-5 47-3 13 4 20 14 23 30 3 17 0 36-7 60-9 27-29 66-61 117-31 50-50 86-57 109-4 12-7 26-8 42 0 15-2 25-3 29-5 14-24 28-59 42-34 14-59 18-76 13-11-4-20-15-27-33-8-19-9-33-6-43 1-5 18-40 51-105 16-32 29-58 38-78zm385 240c52-7 100-25 143-51 43-26 72-55 87-86 4-9 6-17 5-23-1-6-4-11-9-13-27-13-64-2-111 31-46 34-84 81-115 142zm-10 59c2 19 8 36 20 52 11 15 26 27 44 35 22 10 47 14 76 11 29-2 45-3 48-1 7 3 11 7 14 13 2 6 2 12-1 18-8 18-37 27-87 30-51 2-91-3-121-17-13-6-35-20-66-41-31-22-56-37-75-46-22-10-36-30-40-60-4-30 3-63 20-100 14-30 41-62 82-96 40-35 82-62 127-82 51-22 103-36 157-42 54-6 92-4 115 7 21 9 34 25 39 47 4 22 0 46-13 75-10 20-24 38-42 53-1 1-3 2-3 3-6 5-14 15-23 28-9 13-16 22-22 27-29 28-66 49-110 65-45 16-91 23-139 21zm635 149c-42 13-86 35-134 66-47 31-74 48-80 51-16 6-39 10-70 11-31 1-52-2-62-8-16-9-26-27-31-53-5-26-4-46 4-58 5-10 18-15 37-16 20-2 34-4 43-7 18-7 38-22 59-45 22-23 43-52 64-87 6-10 9-17 8-23 0-5-5-10-15-16-12-7-20-15-24-23-4-8-3-15 1-22 7-13 23-20 47-22 25-2 47 2 67 13 14 7 29 11 46 12 17 1 28 2 33 5 10 6 14 15 13 29-2 13-9 30-22 51-11 19-27 40-48 63-21 24-53 55-95 95 8-5 20-12 34-20 66-38 110-60 132-67 3-10 6-21 10-30 4-10 9-20 15-30 13-22 28-39 43-52 16-13 31-20 45-21 27-2 49-3 68-4 18 0 29 1 32 3 10 6 15 22 14 47-1 26-5 44-12 55-1 3-13 10-35 23-22 13-37 27-46 41-5 8-6 21-3 36 3 16 0 32-10 47-4 8-9 13-12 17-4 3-9 5-14 7-5 1-19 0-41-4-22-4-35-8-41-11-6-3-11-10-15-20-4-10-6-21-5-33zm450 156c-53 17-103 41-149 70-47 30-79 57-96 81-9 11-13 22-13 32 0 9 4 17 12 23 17 12 49 14 97 5 47-9 93-27 138-56-9-26-13-53-11-81 2-27 9-52 22-74zm44-83c11-9 30-12 56-10 27 3 45 7 56 15 13 9 21 35 24 77 3 43-6 78-26 107-4 5-9 11-15 17-7 7-15 14-24 23-26 34-54 61-85 82-32 20-69 34-112 42-54 11-107 13-160 6-53-8-95-23-127-46-30-22-47-48-52-79-6-32 0-59 17-83 43-58 105-101 188-129 83-28 170-35 260-22zm646 636c-6 1-12 3-17 5-5 2-9 5-13 9-7 7-16 38-27 93-12 55-29 94-52 118-33 34-82 47-146 40-65-7-121-33-168-78-29-28-49-55-57-79-9-24-7-43 7-58 15-15 41-24 78-25 37-2 61 3 73 14 13 12 14 35 6 69-9 34-8 56 2 65 5 5 10 7 16 6 6-1 11-4 18-11 34-35 55-79 63-132 7-53 18-86 30-99 10-10 23-18 38-23 15-5 35-7 58-8 46-1 89 4 132 13 42 10 69 21 81 32 9 9 15 21 18 36 3 16 1 27-6 34-26 26-47 43-64 49-18 6-33 3-46-10-9-8-15-17-20-28-4-11-5-21-4-32zm84 436c51 15 101 20 152 14 50-6 88-20 115-42 7-6 12-13 14-18 2-7 1-12-2-16-20-23-57-29-114-18-56 11-111 37-165 80zm-34 49c-6 18-8 37-4 55 3 19 12 36 25 51 15 18 37 32 64 42 27 10 42 16 44 18 5 6 7 12 7 19 0 6-3 12-8 16-15 12-46 9-92-10-47-19-81-41-102-66-10-11-24-33-43-65-18-33-35-57-48-73-16-19-20-42-11-71 10-28 30-56 61-82 25-21 64-39 115-53 51-15 101-22 150-21 56 2 109 11 160 28 52 16 85 35 102 54 15 18 20 37 15 59-5 22-20 42-44 63-17 14-37 24-60 30-2 1-4 1-5 1-7 3-18 8-32 16-14 9-24 14-32 16-38 13-80 17-127 12-48-4-92-17-135-39zm499 415c-43-6-93-6-150 1-56 7-88 11-95 11-17-1-39-8-68-21-28-12-45-23-52-33-10-16-11-36-4-62 7-26 17-43 29-51 9-6 23-5 41 3 18 7 32 11 42 12 19 1 43-3 72-15 30-11 62-28 97-50 9-6 15-12 17-17 2-5 0-12-6-21-8-12-12-22-12-31 0-9 3-15 11-20 12-8 29-7 52 1 22 9 40 22 54 41 9 12 21 22 36 31 15 8 24 14 27 18 6 10 6 21-1 32-7 11-21 24-42 37-18 12-42 24-71 36-29 11-72 26-127 43 9-1 22-2 39-3 76-6 125-6 149-2 7-9 14-16 22-24 8-7 17-13 27-20 21-13 41-23 61-28 20-4 37-4 50 1 25 10 46 18 62 26 16 8 26 14 28 17 6 10 4 26-8 48-12 22-24 37-35 45-2 1-16 3-42 5-25 1-45 7-59 16-9 6-15 16-19 32-4 15-14 28-30 38-7 4-13 8-18 9-5 1-10 2-15 0-6-1-18-8-36-21-18-13-28-22-32-27-4-6-5-15-4-25 0-11 4-22 10-32zm497 617c-6-2-12-2-17-2-6 0-11 2-15 4-10 4-30 29-61 76-31 46-62 76-93 90-43 19-93 13-151-17-57-31-99-76-125-135-17-37-25-69-24-94 1-26 11-43 29-51 20-9 47-7 82 5 34 12 55 26 62 41 7 15 0 37-21 66-21 28-28 48-23 61 3 6 7 9 13 11 6 1 13 0 21-3 45-20 81-53 108-100 27-46 49-72 66-80 13-6 28-8 43-7 16 1 35 6 58 14 42 16 81 37 116 61 36 25 57 45 63 60 6 11 7 25 4 40-3 15-10 25-19 29-33 15-59 22-78 22-18-1-31-10-39-26-5-11-7-22-7-34 0-11 3-21 8-31zm-65 428c42 31 89 51 138 62 49 11 90 10 123-2 9-4 16-8 19-13 4-5 5-11 3-16-11-28-45-45-101-53-57-8-118-1-182 22zm-49 36c-12 15-19 31-22 50-3 19 0 38 7 56 8 23 24 43 47 61 22 18 34 28 35 31 3 7 3 14 1 20-2 6-7 10-13 13-18 7-46-7-84-40-38-33-63-64-75-95-5-13-11-38-18-75-7-37-15-65-22-84-9-24-5-47 13-71 18-24 46-44 85-58 30-12 72-16 125-14 53 3 103 13 149 30 52 19 100 45 143 77 43 33 69 61 78 85 8 21 6 41-6 60-11 19-32 34-62 45-20 8-43 11-66 10-2-1-4-1-5-1-8 0-20 2-36 5-15 3-27 5-35 4-40 0-82-9-125-29-43-20-81-46-114-80zm321 606c-60-20-112-40-156-61-44-21-72-39-86-54-3-3-8-8-13-15-5-7-9-12-12-15-4-4-9-9-16-15-22-20-35-35-37-45-4-16 2-34 17-56 16-21 30-34 43-37 7-1 28-3 61-4 34-1 69-1 106 0 66 4 120 8 164 14 43 7 72 14 89 23 8 4 15 10 21 18 7 7 10 11 10 11 2 2 6 5 13 10 24 17 38 34 42 50 3 12-4 26-21 43-17 16-30 25-38 28-8 1-41-3-100-13l-15-3c-21-3-48-9-82-15-62-12-98-17-109-14-6 1-10 4-12 7-2 3-3 7-1 12 4 19 63 46 175 79 61 18 110 34 145 46 12 3 27 14 43 32 17 19 26 31 28 38 3 13-2 24-14 35-13 11-31 20-55 26-28 7-72 11-132 11-59 1-100 4-123 10-13 3-26 8-40 15-14 8-23 12-27 13-15 4-37-5-67-27-30-22-47-41-51-57-3-12 2-25 14-41 12-16 23-25 33-28 5-1 44-5 117-12 35-4 64-7 86-9zm1 914c0 10-1 21 0 32 0 11 1 22 2 33 1 10 2 22 4 35 2 13 5 27 8 42 43 28 82 50 117 64 36 14 65 20 87 18 11-1 21-5 29-11 9-7 13-13 12-20-2-24-28-57-79-99-51-42-111-73-180-94zm16-157c65 17 122 30 172 40 50 10 80 15 91 14 4 0 8-1 10-2 2-2 4-3 3-4-1-14-18-37-50-71-33-33-65-57-99-71-2-1-5-2-9-3-22-7-34-21-36-43-1-8 1-13 4-18 3-4 7-6 13-7 21-2 61 15 122 52 60 36 114 79 163 128 19 20 32 39 41 56 9 18 14 38 16 60 1 19-4 35-15 46-12 11-31 17-55 19-21 2-96-10-228-37l-34-6c74 34 135 76 184 124 48 49 74 94 78 134 2 24-6 43-25 55-18 13-49 21-92 25-44 4-84-2-120-19-36-16-80-49-130-99-1 14-3 24-7 31-3 6-9 10-16 10-8 1-14-6-21-20-3-8-5-14-7-17-5-8-12-20-21-36-47-79-73-147-78-204l-2-22c-66-27-127-48-183-65-56-16-92-23-108-22-6 1-13 3-23 7-10 4-17 6-21 7-9 0-17-2-24-9-6-6-11-15-13-26-4-19-12-39-24-60-13-21-19-35-20-43-1-8 2-15 9-22 6-7 14-11 24-11 20-2 135 25 345 82l36 9c0-40 3-65 9-77 5-11 15-17 29-19 9 0 16 1 23 4 7 3 15 8 22 16 19 18 36 36 49 54 13 18 20 30 21 36 0 3 0 6 0 9-1 3-1 8-3 15zm7 767c-1 19 13 48 42 86 29 38 67 76 114 115 35 29 68 52 96 70 29 17 49 26 60 27 3 0 5-1 6-3 2-3 2-6 2-10 1-15-13-42-41-81-28-39-64-80-108-122-31-30-60-53-87-69-27-16-49-24-67-25-7 0-11 1-14 2-2 2-3 5-3 10zm55 186c-33-30-60-60-79-88-20-29-35-59-45-90-10-32-19-63-25-92-7-30-10-48-10-54 0-18 10-33 28-45 19-11 40-17 64-16 14 1 31 6 54 17 22 11 49 28 83 52 39 27 75 59 109 97 33 38 65 83 96 136 21 36 37 72 50 108 11 36 17 64 16 86-1 34-9 63-23 88-15 25-30 38-47 37-4 0-25-6-60-16-36-11-68-21-99-29-59-16-111-30-154-40-42-10-68-15-77-16-8 0-17 2-27 6-10 4-17 6-20 6-8-1-17-6-25-16-8-9-12-21-12-33 1-5 2-12 6-20 3-9 5-16 5-21 0-3 0-7-1-12-2-6-2-9-2-12 0-16 11-27 30-34 20-7 51-10 92-8 10 0 21 1 32 2 11 2 25 4 41 7z"/><path d="m19401 9059c-31-30-71-59-121-86-51-27-78-42-84-47-13-10-27-29-43-56-15-26-22-46-22-57 1-19 12-36 33-53 21-17 39-25 54-24 11 1 21 9 32 26 10 16 19 28 26 34 14 12 37 23 68 31 30 8 66 13 107 15 12 1 20 0 24-3 4-3 7-10 7-21 1-14 4-25 9-32 6-7 12-11 21-10 14 1 28 11 41 31 13 20 20 42 20 65 0 15 4 30 11 46 8 15 11 25 11 31-1 11-7 20-20 24-12 6-31 7-56 6-21-1-48-5-78-13-31-7-74-20-129-38 8 4 20 11 34 20 65 39 105 68 121 85 11-3 22-5 32-6 11-1 22-2 34-1 25 1 47 6 66 14 19 7 32 17 40 29 15 22 26 41 35 57 8 16 13 26 12 30 0 12-12 24-35 34-23 11-41 17-54 16-3 0-15-7-37-20-22-14-41-21-58-22-10 0-21 5-34 15-12 10-28 14-47 13-8 0-15-1-20-3-5-2-9-4-12-8-4-4-10-17-16-38-7-21-10-35-10-41 0-7 4-15 11-23 7-8 16-15 27-20zm-28 295c1-4 3-7 7-10 5-3 10-4 16-4 2 0 29 10 80 30 51 19 103 38 156 55 23 7 47 14 71 19 23 6 36 9 38 9 13 5 27 19 41 41 1 3 2 4 3 5 7 11 17 26 29 43 22 32 33 52 33 61-1 8-4 13-9 17-6 3-14 5-24 4-28-2-74-18-138-46-64-29-145-72-245-128-13-7-26-23-39-47-13-25-19-41-19-49zm-288-80c1-9 12-21 34-35 22-14 40-21 55-20 20 2 41 16 65 43 24 27 35 52 33 75-1 17-10 30-27 37-18 7-44 9-78 7-18-1-33-17-47-47-3-7-6-12-7-15-2-2-4-5-7-8-15-17-22-30-21-37z"/><path d="m18438 8178c26-7 18-11 39-11 42 0 89 59 89 108v10c0 78-182 151-266 151-6 0-20-15-28-22l-21-161v-86c0-22 32-76 59-76h59c42 0 55 54 69 87z"/><path d="m18461 10714c26-7 19-11 39-11 42 0 89 59 89 108v11c0 77-182 151-266 151-5 0-20-15-28-22l-21-162v-86c0-22 32-75 59-75h59c43 0 55 53 69 86z"/><path d="m13269 3381l40-11c28 16 88 43 88 86v22c0 119-171 148-266 174l-29-23v-22c0-44-19-68-19-129v-76c0-55 24-108 68-108h50c34 0 61 53 68 87z"/><path d="m13641 3894c12-8 10-11 29-11 46 0 99 42 99 97v21c0 78-183 151-266 151-37 0-49-105-49-151v-107c0-42 38-97 69-97h29c57 0 78 46 89 97z"/><path d="m12805 3861v43c12-7 11-10 30-10h29c29 0 79 63 79 97 0 122-198 136-267 174l-28-23c-1-59-20-76-20-141v-107c0-40 27-87 59-87h49c25 0 46 37 69 54z"/><path d="m17013 4195c12-7 11-10 30-10 46 0 98 41 98 97 0 107-179 163-275 172-19-39-40-113-40-172v-87c0-42 38-97 69-97h30c67 0 67 49 88 97z"/><path d="m15617 4206l39-21c46 24 99 35 99 107 0 123-206 136-274 171l-21-20c-1-59-20-76-20-140v-108c0-39 27-86 59-86h59c38 0 58 51 59 97z"/></g></g><use xlink:href="#2"/><use xlink:href="#2"/><use xlink:href="#2"/><g fill="#201e1e"><g stroke="#201e1e"><g stroke-width="7.62"><path d="m16581 6790c27-7 19-11 40-11 41 0 88 59 88 108v11c0 77-182 151-265 151-6 0-21-15-29-22l-21-162v-86c0-22 32-75 59-75h59c43 0 55 53 69 86z"/><path d="m17688 7238c27-7 19-11 40-11 41 0 88 59 88 108v10c0 78-182 151-265 151-6 0-21-15-29-22l-20-161v-86c0-22 31-76 59-76h59c42 0 54 54 68 87z"/><path d="m17315 6587c26-7 18-11 39-11 42 0 88 59 88 108v11c0 77-182 151-265 151-6 0-20-15-28-22l-21-161v-87c0-22 32-75 59-75h59c42 0 54 54 69 86z"/><path d="m15348 6537c27-7 19-11 40-11 42 0 88 59 88 108v10c0 78-182 151-265 151-6 0-21-15-28-22l-21-161v-86c0-22 31-76 59-76h59c42 0 54 54 68 87z"/><path d="m13746 6929c26-6 18-10 39-10 42 0 89 58 89 107v11c0 78-183 151-266 151-6 0-20-15-28-22l-21-161v-86c0-22 32-76 59-76h59c42 0 54 54 69 86z"/><path d="m14251 7622c26-7 18-11 39-11 42 0 89 59 89 108v11c0 77-182 151-266 151-6 0-20-15-28-22l-21-161v-87c0-22 32-75 59-75h59c43 0 55 53 69 86z"/><path d="m15801 7272c26-7 19-11 39-11 42 0 89 59 89 108v11c0 77-182 151-266 151-6 0-20-15-28-22l-21-161v-87c0-22 32-75 59-75h59c43 0 55 54 69 86z"/><path d="m19290 14823c27-7 19-11 40-11 41 0 88 59 88 108v11c0 77-182 151-265 151-6 0-21-15-29-22l-21-162v-86c0-22 32-75 59-75h59c43 0 55 53 69 86z"/><path d="m19259 16799c26-7 18-11 39-11 42 0 88 59 88 108v11c0 77-182 151-265 151-6 0-20-15-28-22l-21-161v-87c0-22 32-75 59-75h59c42 0 54 53 69 86z"/><path d="m18668 17724c26-7 19-11 39-11 42 0 89 59 89 108v10c0 78-182 151-266 151-5 0-20-15-28-21l-21-162v-86c0-22 32-75 59-75h59c43 0 55 53 69 86z"/><path d="m18885 18871c26-7 19-11 39-11 42 0 89 59 89 108v11c0 77-182 151-266 151-5 0-20-15-28-22l-21-162v-86c0-22 32-75 59-75h59c43 0 55 53 69 86z"/><path d="m17955 15810c27-7 19-10 40-10 41 0 88 58 88 107v11c0 78-182 151-265 151-6 0-21-15-29-22l-21-161v-86c0-22 32-76 59-76h59c43 0 55 54 69 86z"/><path d="m17025 12750c27-7 19-11 40-11 41 0 88 59 88 108v11c0 77-182 150-265 150-6 0-21-14-29-21l-20-162v-86c0-22 31-75 58-75h59c43 0 55 53 69 86z"/><path d="m17251 11003c26-7 18-11 39-11 42 0 89 59 89 108v11c0 77-183 151-266 151-6 0-20-15-28-22l-21-161v-87c0-22 32-75 59-75h59c42 0 54 53 69 86z"/><path d="m15823 13837c26-6 18-10 39-10 42 0 89 58 89 107v11c0 78-182 151-266 151-6 0-20-15-28-22l-21-161v-86c0-22 32-76 59-76h59c42 0 55 54 69 86z"/><path d="m16503 15066c27-7 19-11 40-11 42 0 88 59 88 108v11c0 77-182 151-265 151-6 0-21-15-28-22l-21-162v-86c0-22 32-75 59-75h59c42 0 54 53 68 86z"/><path d="m17132 17000c26-7 19-11 39-11 42 0 89 59 89 108v11c0 77-182 150-266 150-5 0-20-14-28-21l-21-162v-86c0-22 32-75 59-75h59c43 0 55 53 69 86z"/><path d="m15673 11861c27-7 19-10 40-10 41 0 88 58 88 107v11c0 77-182 151-265 151-6 0-21-15-29-22l-21-161v-86c0-22 32-76 59-76h59c43 0 55 54 69 86z"/><path d="m17893 13972c26-7 18-11 39-11 42 0 89 59 89 108v11c0 77-183 151-266 151-6 0-20-15-28-22l-21-161v-87c0-22 32-75 59-75h59c42 0 54 53 69 86z"/><path d="m15793 17292c27-7 19-10 40-10 42 0 88 58 88 107v11c0 78-182 151-265 151-6 0-21-15-28-22l-21-161v-86c0-22 31-76 59-76h59c42 0 54 54 68 86z"/><path d="m19258 13112c26-7 18-11 39-11 42 0 89 59 89 108v11c0 77-183 151-266 151-6 0-20-15-28-22l-21-162v-86c0-22 32-75 59-75h59c42 0 54 53 69 86z"/><path d="m18271 12203c27-7 19-11 40-11 42 0 88 59 88 108v11c0 77-182 151-265 151-6 0-21-15-28-22l-21-161v-87c0-22 32-75 59-75h59c42 0 54 53 68 86z"/><path d="m19369 11651c26-7 18-11 39-11 42 0 88 59 88 108v11c0 77-182 151-265 151-6 0-21-15-28-22l-21-161v-87c0-22 32-75 59-75h59c42 0 54 54 69 86z"/><path d="m17594 8108c27-7 19-11 40-11 41 0 88 59 88 108v11c0 77-182 151-265 151-6 0-21-15-29-22l-20-161v-87c0-22 31-75 59-75h59c42 0 54 54 68 86z"/><path d="m16497 9838c26-7 18-11 39-11 42 0 89 59 89 108v11c0 77-182 151-266 151-6 0-20-15-28-22l-21-162v-86c0-22 32-75 59-75h59c42 0 55 53 69 86z"/><path d="m17721 9345c26-7 18-11 39-11 42 0 89 59 89 108v11c0 77-182 151-266 151-6 0-20-15-28-22l-21-162v-86c0-22 32-75 59-75h59c42 0 55 53 69 86z"/><path d="m15525 8766c26-7 18-11 39-11 42 0 89 59 89 108v11c0 77-183 151-266 151-6 0-20-15-28-22l-21-161v-87c0-22 32-75 59-75h59c42 0 54 53 69 86z"/><path d="m16529 8143c27-7 19-11 40-11 41 0 88 59 88 108v11c0 77-182 151-265 151-6 0-21-15-29-22l-20-162v-86c0-22 31-75 59-75h59c42 0 54 53 68 86z"/><path d="m15812 5970c27-7 19-11 40-11 41 0 88 59 88 108v11c0 77-182 151-265 151-6 0-21-15-29-22l-20-161v-87c0-22 31-75 59-75h59c42 0 54 53 68 86z"/><path d="m14792 5063c26-7 18-11 39-11 42 0 89 59 89 108v10c0 78-183 151-266 151-6 0-20-15-28-22l-21-161v-86c0-22 32-76 59-76h59c42 0 54 54 69 87z"/><path d="m16044 5404c27-7 19-11 40-11 41 0 88 59 88 108v11c0 77-182 151-265 151-6 0-21-15-29-22l-20-162v-86c0-22 31-75 59-75h59c42 0 54 53 68 86z"/><path d="m15433 5196c26-7 18-11 39-11 42 0 89 59 89 108v11c0 77-183 151-266 151-6 0-20-15-28-22l-21-162v-86c0-22 32-75 59-75h59c42 0 54 53 69 86z"/><path d="m13237 4241l40 84c12-8 11-11 30-11 48 0 98 43 98 86v32c0 78-191 149-275 151-12-24-30-71-30-107v-22c0-110-28-122 30-213l58-10 49 10z"/><path d="m16148 4400h10c35 0 45 48 59 76h19 30c29 0 79 54 79 86v32c0 94-203 141-286 162-15-35-29-89-29-140v-140c0-40 15-53 30-73l49-14c14 8 16 11 39 11z"/><path d="m14319 4497c38 0 4 3 30-11 40 24 88 39 88 108v11c0 70-168 151-246 151-37 0-3-4-29 11-23-49-39-121-39-194v-65c0-42 37-97 68-97h50c50 0 57 86 78 86z"/><path d="m12628 4518l39 44v43c40-4 24-11 50-11 35 0 88 59 88 97 0 107-168 164-267 174l-27-23-20-162v-75c0-49 21-56 39-86h19l10-4 69 3z"/><path d="m13660 4874c12-7 11-10 30-10h10c48 0 88 43 88 97 0 123-178 147-275 172-15-35-29-89-29-140v-151c0-26 35-65 59-65h49c36 0 65 56 68 97z"/><path d="m16669 5036v21 32l49-21c33 19 89 42 89 97 0 141-195 141-276 183-18-39-39-112-39-172v-97c0-39 27-86 59-86h59c24 0 37 27 59 43z"/><path d="m17367 5071l39 40v43c27-6 19-10 40-10 42 0 98 56 98 86 0 131-164 157-267 185l-28-23c-1-59-20-76-20-141v-97c0-68 40-76 79-96l59 13z"/><path d="m12455 5382h19c49 0 89 43 89 97 0 117-181 148-275 172-16-32-30-81-30-129l-3-22 3-140c0-26 36-64 59-64h49c56 0 48 86 89 86z"/><path d="m13021 5362l40 40v43c26-6 18-10 39-10 45 0 98 51 98 97 0 103-173 164-266 174l-29-23c-1-59-19-76-19-141v-97c0-49 21-56 40-83l48-11 49 11z"/><path d="m14093 5596l39-10c32 16 89 37 89 86v21c0 93-164 162-246 162-37 0-3-3-29 11-15-35-30-89-30-140l3-12-13-75c6-25 10-31 10-64 0-16 21-48 30-65h19 59c35 0 62 53 69 86z"/><path d="m17082 5779v44c12-8 10-11 29-11h30c29 0 79 63 79 97 0 83-163 161-246 161-38 0-4-3-28 9l-21-19c-2-59-20-76-20-140v-108c0-40 27-86 59-86h39c54 0 50 30 79 53z"/><path d="m18193 6200c-41 92-70 116-171 147-30 9-107 36-121 11-6-12-23-113-23-137v-118c0-52 31-86 79-86h29c37 0 66 55 69 97 26-15-8-11 30-11h10c63 0 78 52 98 97z"/><path d="m13631 6264c0 55-64 103-105 123-49 22-125 31-160 50l-29-23c-2-58-21-75-21-139v-108c0-52 31-86 79-86h20c53 0 49 31 78 54v43c26-14-8-11 30-11h29c29 0 79 64 79 97z"/><path d="m12409 6318l3-43c0-26 35-64 59-64h49c36 0 66 55 69 97 26-15-8-11 29-11h10c49 0 89 43 89 97 0 120-180 148-276 172-15-34-29-88-29-140l-3-54v-54z"/><path d="m12717 7369c0 102-181 140-266 162l-28-23-1-20c0-45-20-68-20-130v-86c0-42 38-97 69-97h39c25 0 45 37 69 54v43c22-6 23-11 49-11 42 0 89 59 89 108z"/><path d="m15043 9921c0 102-181 140-265 162l-29-23-1-20c0-45-20-68-20-130v-86c0-42 38-97 69-97h40c25 0 45 37 68 54v43c22-6 23-11 50-11 41 0 88 59 88 108z"/><path d="m13063 9370c0 102-181 140-265 161l-28-23-2-20c0-44-19-68-19-129v-86c0-42 37-97 69-97h39c25 0 45 36 69 54v43c22-6 22-11 49-11 42 0 88 59 88 108z"/><path d="m13623 11179c0 103-181 140-266 162l-28-23-1-20c0-45-20-68-20-129v-87c0-42 38-97 69-97h39c25 0 46 37 69 54v43c22-5 23-10 49-10 42 0 89 58 89 107z"/><path d="m14360 12987c0 103-181 140-265 162l-28-23-2-20c0-45-19-68-19-130v-86c0-42 37-97 69-97h39c25 0 45 37 69 54v43c22-5 22-11 49-11 42 0 88 59 88 108z"/><path d="m14465 15168c0 103-180 140-265 162l-28-23-2-20c0-45-19-68-19-129v-87c0-42 37-97 69-97h39c25 0 45 37 69 54v43c22-5 22-10 49-10 42 0 88 58 88 107z"/><path d="m14550 17018c0 103-181 140-266 162l-28-23-1-20c0-45-20-68-20-129v-87c0-42 38-97 69-97h39c25 0 46 37 69 54v43c22-5 23-10 49-10 42 0 89 58 89 107z"/><path d="m12841 8181c0 103-181 140-265 162l-29-23-1-20c0-45-20-68-20-129v-87c0-42 38-97 69-97h40c25 0 45 37 68 54v43c22-5 23-10 50-10 41 0 88 58 88 107z"/></g><g font-family="&apos;Amazone BT&apos;" stroke-linejoin="round" stroke-linecap="round" stroke-width="50"><text x="10500" y="14850" font-size="846.67" transform="matrix(.93832 0 0 .93113 5115.51 9692.79)">00.00.0000</text><text x="10500" y="14850" font-size="1595.9" transform="matrix(.93832 0 0 .93113 3960 6667.71)">Texto 01</text><text x="10500" y="14850" font-size="1491.78" transform="matrix(.93832 0 0 .93113 4320.25 8457.48)">Texto 02</text></g></g><g font-family="&apos;Arial Black&apos;" font-weight="900" font-size="529.17"><text x="10500" y="14850" transform="matrix(.93832 0 0 .93113 6096 5068.54)">NN 1</text><text x="10500" y="14850" transform="matrix(.93832 0 0 .93113 6097.74 5527.09)">NN 2</text></g></g></g></g><path d="m14394 2487c2165-59 5632 1714 5640 5942 2 1129-436 4887-541 6379-124 1788-217 4334-255 6146-17 1568-379 2476-1073 2843-924 322-1884 417-2895 182-1045-268-1564-1101-1579-2786 39-2176 303-5943-107-7921-530-2560-1200-2896-1458-5981-156-1856-99-4740 2268-4804z" fill="none" stroke="#fff" stroke-width="7.62"/><g fill="#201e1e" font-family="&apos;Arial Black&apos;" font-weight="900" font-size="492.71"><text x="10500" y="14850" transform="matrix(1.0077 0 0 1 5367.26 4045.79)">NN 1</text><text x="10500" y="14850" transform="matrix(1.0077 0 0 1 5369 4504.34)">NN 2</text></g><g fill-rule="nonzero"><path d="m2199 7621c-21 10-36 18-47 22-12 4-19 6-23 6-4-1-9-8-14-19-5-12-13-36-24-74-71-45-162-102-274-170-195-119-290-191-286-217 2-8 6-14 12-18 7-3 16-5 25-3 7 1 19 5 35 11 16 6 28 11 36 13 13 4 28 9 45 13 16 4 27 7 31 8 21 7 76 37 164 89 89 52 164 95 227 129-15-105-55-197-121-274-66-77-141-123-225-138-85-15-160 9-227 71-66 61-109 150-130 266-13 72-15 139-7 201 8 61 24 107 49 135 8 10 20 21 35 34 18 14 26 28 23 41-2 10-7 19-16 27-8 7-16 11-24 9l-14-2c-16-3-28-6-35-10-7-3-14-8-20-14-13-14-26-36-39-64-13-29-25-63-37-103-17-63-28-124-33-184-4-59-1-116 9-172 24-136 80-240 168-313 87-73 188-100 302-80 95 17 176 54 243 113 67 59 114 133 140 222 2 10 8 47 17 112 9 65 21 124 36 178 73 45 123 74 149 88 26 14 45 22 57 24 4 1 10 0 17-2 7-2 12-3 15-2 7 1 12 5 16 13 3 8 6 24 9 47 1 16 5 35 10 56 6 21 8 35 7 41-2 9-6 16-12 20-7 5-14 6-23 5-8-2-29-11-61-29-33-17-95-53-185-106m-128-1043c32 45 68 86 110 122 41 36 76 59 104 69 14 5 25 7 34 4 10-3 16-9 20-18 7-20 0-51-22-94-22-42-52-81-92-117-23 17-48 28-75 34-28 6-54 5-79 0m-92-20c-12-8-20-25-25-51-5-26-6-45-1-57 5-15 28-30 68-44 40-15 77-17 110-4 7 2 13 5 21 9 9 4 18 10 29 17 40 14 75 34 103 58 28 25 52 56 72 95 25 48 42 99 49 151 7 53 4 97-9 134-13 34-34 58-63 72-28 13-57 15-84 5-68-24-127-72-177-143-50-72-81-152-93-242m430-471c17 40 43 82 78 126 36 44 55 69 58 75 8 15 14 38 18 69 3 30 3 51-3 61-8 17-25 29-51 36-26 7-45 7-59 1-9-5-16-17-19-36-3-19-6-33-10-42-9-16-26-35-51-54-24-19-55-38-93-56-10-5-18-7-23-6-5 1-10 6-15 16-6 13-13 21-21 26-7 5-15 5-23 1-12-6-21-21-25-45-4-23-2-46 7-67 6-14 8-29 8-46-1-17 0-28 2-33 5-10 14-15 28-15 13 0 31 6 54 16 19 10 42 24 67 43 25 18 59 47 103 85-6-7-14-18-23-32-44-61-70-103-78-125-11-1-22-4-32-7-10-3-21-7-31-12-23-11-41-24-56-38-14-14-23-29-25-42-5-27-8-49-9-67-2-18-2-29 0-32 5-11 20-17 46-18 25-1 44 1 56 7 2 1 11 12 26 33 14 20 30 34 45 42 9 4 21 4 37 0 15-5 31-3 48 5 8 4 13 8 17 11 4 3 7 8 8 13 2 5 2 19 0 41-2 22-4 35-7 41-3 6-10 12-19 17-10 5-21 7-33 8m334-759c19 52 44 101 74 146 31 46 59 77 83 94 12 8 22 12 32 12 10 0 18-4 24-12 12-17 13-49 3-96-10-47-29-92-59-137-26 10-53 15-81 13-28-1-53-8-76-20m-83-43c-10-11-13-29-11-56 1-26 6-44 13-55 9-13 35-21 78-25 42-4 78 4 108 24 5 4 11 9 17 15 7 6 15 14 24 23 35 25 63 52 83 83 21 31 36 68 45 110 13 53 15 106 9 159-7 52-22 95-44 127-21 29-48 47-79 53-32 6-59 0-83-16-59-41-104-103-134-185-30-81-39-167-26-257m510-181c-23-74-40-140-51-200-11-59-14-107-10-144-3-13-3-27 1-42 4-15 11-28 20-39 12-13 27-19 46-18 19 2 38 11 58 28 29 25 61 65 96 118 36 53 62 87 79 101 10 9 21 14 33 16 12 1 20 3 22 5 10 8 12 33 7 74-6 40-16 69-30 86-12 12-27 16-46 11-19-5-41-18-68-41-4-3-11-13-21-29-10-15-26-42-48-78-17-30-32-55-44-75-13-20-21-31-25-35-1 0-3-1-4-1-2 1-3 1-4 3-3 3-3 19 2 48 4 29 12 70 24 123 12 53 24 103 37 152 12 49 19 74 19 74 0 1-4 15-13 43-9 28-14 42-15 43-3 3-13 5-32 5-18-1-29-3-34-7-3-2-17-21-41-56-24-36-50-74-76-116-31-49-57-92-78-130-22-38-33-61-35-68-1-6 2-20 10-45 7-24 13-39 17-44 11-13 25-21 42-25 17-4 29-1 39 7 1 0 11 29 32 84 20 56 51 113 91 172m420-748c-13 69-14 137-4 203 10 66 27 112 50 140 9 11 18 17 27 18 9 2 18-2 27-9 31-26 42-69 34-128-9-60-35-116-78-167-8-10-17-19-26-28-10-10-20-19-30-29m-51-39c-54-31-104-54-149-68-45-15-85-21-119-19-24 2-52 8-82 21-30 13-49 15-55 7-8-9-3-30 12-64 16-34 33-58 50-72 17-15 45-26 82-33 37-8 75-9 115-5 54 6 104 23 151 49 47 27 91 64 130 110 31 37 57 79 77 125 20 46 35 97 44 152 3 21 1 58-6 109-2 8-3 14-3 18-6 42-17 82-34 118-17 36-35 63-54 79-27 22-56 32-86 28-30-3-57-20-81-48-10-12-23-36-41-72-17-37-28-66-32-86-9-43-6-96 8-159 15-63 39-127 73-190m516 15c21-49 31-98 30-148 0-50-10-89-30-118-5-8-11-14-17-16-6-3-11-3-16 1-25 16-34 53-29 110 4 57 25 114 62 171m46 39c18 8 36 11 55 10 19-2 37-8 54-20 20-13 36-33 48-59 13-25 21-39 23-41 7-4 13-6 19-5 7 1 12 4 16 10 11 16 4 45-20 90-24 44-49 75-77 93-12 8-35 20-69 35-35 15-61 29-78 40-21 14-45 15-73 3-27-12-53-35-76-68-18-27-32-67-41-119-9-52-11-102-5-150 7-55 22-107 44-155 23-49 44-81 66-95 19-13 39-16 60-8 21 7 41 23 58 49 13 19 21 39 25 63 0 2 0 3 0 4 2 8 7 19 13 34 7 14 11 25 12 33 9 39 9 81 0 127-10 46-28 89-54 129m706-479c-3 70-1 134 5 192 6 59 16 103 29 133 12 28 28 49 49 62 20 13 40 15 58 7 11-4 24-17 38-37 14-20 26-42 35-67 12-35 18-70 19-104 0-34-6-65-18-94-16-37-43-64-79-80-37-16-82-20-136-12m-124 20c-9 0-22 1-37 2-38 4-59 2-62-4-4-11-4-32 0-64 5-32 11-53 19-64 2-2 11-8 27-18 16-11 30-20 42-28-5-228 2-379 19-452 17-74 49-121 96-140 9-4 17-4 25 0 8 3 14 11 18 21 2 3 3 8 4 12 1 6 2 9 2 10 2 4 6 10 13 19 7 9 12 17 14 24 10 22 6 50-12 83-6 11-10 19-12 24-10 29-19 70-25 123-7 53-12 121-15 204 45-24 90-50 135-80 12-9 20-13 22-14 9-4 19-5 29-1 9 3 16 9 20 18 5 12 5 27 0 44-6 18-15 35-29 51-5 7-29 20-71 41-43 21-79 40-109 56 94-14 165-14 215 1 50 15 85 46 106 94 16 39 18 94 4 163-14 70-44 158-90 264-22 52-40 89-55 112-15 22-29 37-43 43-3 1-15 2-36 3-22 2-36 2-42 2-14-2-29-15-45-39-15-24-36-66-62-127-33-76-52-177-59-304-2-36-4-62-6-79m674-461c-16 53-25 107-27 162-2 55 2 96 11 124 5 13 11 23 19 28 8 6 17 7 27 4 20-7 40-32 59-75 20-44 31-92 34-145-28-8-52-20-74-37-21-18-38-38-49-61m-42-83c-1-14 7-31 24-52 17-20 31-32 43-36 15-6 41 3 78 24 37 22 61 49 73 83 2 6 4 13 6 22 1 9 3 20 5 32 14 41 20 79 18 117-1 37-11 75-28 115-22 50-51 94-88 133-36 38-73 64-110 77-35 12-67 11-96-3-29-14-48-34-57-62-24-67-24-143 1-227 24-83 68-158 131-223m655 50c-22 37-40 83-53 138-13 55-21 86-24 92-7 16-21 34-43 56-22 21-39 34-51 36-18 4-38-2-59-18-22-16-35-31-38-45-2-11 4-23 17-37 13-15 22-26 27-34 8-17 12-42 12-73 0-31-4-67-13-108-2-11-5-18-10-21-4-4-11-4-22-2-13 3-24 3-33 0-8-4-13-9-15-17-3-14 4-30 20-48 16-18 35-30 58-36 14-4 28-12 41-23 13-11 23-17 28-18 11-2 21 2 29 13 8 10 15 28 20 52 4 21 7 47 8 78 0 32-1 76-5 134 3-9 6-22 11-38 22-72 39-118 51-138-5-10-10-19-13-29-4-10-7-21-10-32-5-25-6-47-4-67 3-20 9-36 18-46 18-20 34-36 47-48 14-13 22-19 26-20 12-2 26 6 42 25 17 19 27 35 30 48 0 3-3 16-11 41-7 24-9 44-5 61 2 9 9 19 22 28 13 10 22 23 26 41 2 9 2 16 2 21-1 5-2 10-5 14-3 5-14 13-33 25-19 12-31 19-37 20-7 1-16 0-25-5-10-4-19-11-26-20m155 271c-8 2-18-3-31-15-13-11-20-24-23-36l-4-22c-3-20 9-45 35-76 27-31 47-47 59-50 14-2 29 6 45 23 15 18 25 42 31 74 2 13-10 32-36 58-25 25-51 40-76 44m328-35c-8 0-18-6-29-19-11-13-17-26-18-39l-1-22c-1-20 13-44 44-71 30-28 52-42 64-42 15-1 28 8 41 28 13 19 21 45 22 76 1 14-13 31-42 54-29 22-56 34-81 35m324-22c-8-1-16-9-24-24-9-16-12-30-9-42l3-22c4-20 24-40 59-60 36-20 60-29 73-26 14 2 25 14 34 36 8 22 9 48 4 80-3 13-21 27-54 42-33 15-62 21-86 16" fill="#fff"/><path d="m2199 7621c-21 10-36 18-47 22-12 4-19 6-23 6-4-1-9-8-14-19-5-12-13-36-24-74-71-45-162-102-274-170-195-119-290-191-286-217 2-8 6-14 12-18 7-3 16-5 25-3 7 1 19 5 35 11 16 6 28 11 36 13 13 4 28 9 45 13 16 4 27 7 31 8 21 7 76 37 164 89 89 52 164 95 227 129-15-105-55-197-121-274-66-77-141-123-225-138-85-15-160 9-227 71-66 61-109 150-130 266-13 72-15 139-7 201 8 61 24 107 49 135 8 10 20 21 35 34 18 14 26 28 23 41-2 10-7 19-16 27-8 7-16 11-24 9l-14-2c-16-3-28-6-35-10-7-3-14-8-20-14-13-14-26-36-39-64-13-29-25-63-37-103-17-63-28-124-33-184-4-59-1-116 9-172 24-136 80-240 168-313 87-73 188-100 302-80 95 17 176 54 243 113 67 59 114 133 140 222 2 10 8 47 17 112 9 65 21 124 36 178 73 45 123 74 149 88 26 14 45 22 57 24 4 1 10 0 17-2 7-2 12-3 15-2 7 1 12 5 16 13 3 8 6 24 9 47 1 16 5 35 10 56 6 21 8 35 7 41-2 9-6 16-12 20-7 5-14 6-23 5-8-2-29-11-61-29-33-17-95-53-185-106zm-128-1043c32 45 68 86 110 122 41 36 76 59 104 69 14 5 25 7 34 4 10-3 16-9 20-18 7-20 0-51-22-94-22-42-52-81-92-117-23 17-48 28-75 34-28 6-54 5-79 0zm-92-20c-12-8-20-25-25-51-5-26-6-45-1-57 5-15 28-30 68-44 40-15 77-17 110-4 7 2 13 5 21 9 9 4 18 10 29 17 40 14 75 34 103 58 28 25 52 56 72 95 25 48 42 99 49 151 7 53 4 97-9 134-13 34-34 58-63 72-28 13-57 15-84 5-68-24-127-72-177-143-50-72-81-152-93-242zm430-471c17 40 43 82 78 126 36 44 55 69 58 75 8 15 14 38 18 69 3 30 3 51-3 61-8 17-25 29-51 36-26 7-45 7-59 1-9-5-16-17-19-36-3-19-6-33-10-42-9-16-26-35-51-54-24-19-55-38-93-56-10-5-18-7-23-6-5 1-10 6-15 16-6 13-13 21-21 26-7 5-15 5-23 1-12-6-21-21-25-45-4-23-2-46 7-67 6-14 8-29 8-46-1-17 0-28 2-33 5-10 14-15 28-15 13 0 31 6 54 16 19 10 42 24 67 43 25 18 59 47 103 85-6-7-14-18-23-32-44-61-70-103-78-125-11-1-22-4-32-7-10-3-21-7-31-12-23-11-41-24-56-38-14-14-23-29-25-42-5-27-8-49-9-67-2-18-2-29 0-32 5-11 20-17 46-18 25-1 44 1 56 7 2 1 11 12 26 33 14 20 30 34 45 42 9 4 21 4 37 0 15-5 31-3 48 5 8 4 13 8 17 11 4 3 7 8 8 13 2 5 2 19 0 41-2 22-4 35-7 41-3 6-10 12-19 17-10 5-21 7-33 8zm334-759c19 52 44 101 74 146 31 46 59 77 83 94 12 8 22 12 32 12 10 0 18-4 24-12 12-17 13-49 3-96-10-47-29-92-59-137-26 10-53 15-81 13-28-1-53-8-76-20zm-83-43c-10-11-13-29-11-56 1-26 6-44 13-55 9-13 35-21 78-25 42-4 78 4 108 24 5 4 11 9 17 15 7 6 15 14 24 23 35 25 63 52 83 83 21 31 36 68 45 110 13 53 15 106 9 159-7 52-22 95-44 127-21 29-48 47-79 53-32 6-59 0-83-16-59-41-104-103-134-185-30-81-39-167-26-257zm510-181c-23-74-40-140-51-200-11-59-14-107-10-144-3-13-3-27 1-42 4-15 11-28 20-39 12-13 27-19 46-18 19 2 38 11 58 28 29 25 61 65 96 118 36 53 62 87 79 101 10 9 21 14 33 16 12 1 20 3 22 5 10 8 12 33 7 74-6 40-16 69-30 86-12 12-27 16-46 11-19-5-41-18-68-41-4-3-11-13-21-29-10-15-26-42-48-78-17-30-32-55-44-75-13-20-21-31-25-35-1 0-3-1-4-1-2 1-3 1-4 3-3 3-3 19 2 48 4 29 12 70 24 123 12 53 24 103 37 152 12 49 19 74 19 74 0 1-4 15-13 43-9 28-14 42-15 43-3 3-13 5-32 5-18-1-29-3-34-7-3-2-17-21-41-56-24-36-50-74-76-116-31-49-57-92-78-130-22-38-33-61-35-68-1-6 2-20 10-45 7-24 13-39 17-44 11-13 25-21 42-25 17-4 29-1 39 7 1 0 11 29 32 84 20 56 51 113 91 172zm420-748c-13 69-14 137-4 203 10 66 27 112 50 140 9 11 18 17 27 18 9 2 18-2 27-9 31-26 42-69 34-128-9-60-35-116-78-167-8-10-17-19-26-28-10-10-20-19-30-29zm-51-39c-54-31-104-54-149-68-45-15-85-21-119-19-24 2-52 8-82 21-30 13-49 15-55 7-8-9-3-30 12-64 16-34 33-58 50-72 17-15 45-26 82-33 37-8 75-9 115-5 54 6 104 23 151 49 47 27 91 64 130 110 31 37 57 79 77 125 20 46 35 97 44 152 3 21 1 58-6 109-2 8-3 14-3 18-6 42-17 82-34 118-17 36-35 63-54 79-27 22-56 32-86 28-30-3-57-20-81-48-10-12-23-36-41-72-17-37-28-66-32-86-9-43-6-96 8-159 15-63 39-127 73-190zm516 15c21-49 31-98 30-148 0-50-10-89-30-118-5-8-11-14-17-16-6-3-11-3-16 1-25 16-34 53-29 110 4 57 25 114 62 171zm46 39c18 8 36 11 55 10 19-2 37-8 54-20 20-13 36-33 48-59 13-25 21-39 23-41 7-4 13-6 19-5 7 1 12 4 16 10 11 16 4 45-20 90-24 44-49 75-77 93-12 8-35 20-69 35-35 15-61 29-78 40-21 14-45 15-73 3-27-12-53-35-76-68-18-27-32-67-41-119-9-52-11-102-5-150 7-55 22-107 44-155 23-49 44-81 66-95 19-13 39-16 60-8 21 7 41 23 58 49 13 19 21 39 25 63 0 2 0 3 0 4 2 8 7 19 13 34 7 14 11 25 12 33 9 39 9 81 0 127-10 46-28 89-54 129zm706-479c-3 70-1 134 5 192 6 59 16 103 29 133 12 28 28 49 49 62 20 13 40 15 58 7 11-4 24-17 38-37 14-20 26-42 35-67 12-35 18-70 19-104 0-34-6-65-18-94-16-37-43-64-79-80-37-16-82-20-136-12zm-124 20c-9 0-22 1-37 2-38 4-59 2-62-4-4-11-4-32 0-64 5-32 11-53 19-64 2-2 11-8 27-18 16-11 30-20 42-28-5-228 2-379 19-452 17-74 49-121 96-140 9-4 17-4 25 0 8 3 14 11 18 21 2 3 3 8 4 12 1 6 2 9 2 10 2 4 6 10 13 19 7 9 12 17 14 24 10 22 6 50-12 83-6 11-10 19-12 24-10 29-19 70-25 123-7 53-12 121-15 204 45-24 90-50 135-80 12-9 20-13 22-14 9-4 19-5 29-1 9 3 16 9 20 18 5 12 5 27 0 44-6 18-15 35-29 51-5 7-29 20-71 41-43 21-79 40-109 56 94-14 165-14 215 1 50 15 85 46 106 94 16 39 18 94 4 163-14 70-44 158-90 264-22 52-40 89-55 112-15 22-29 37-43 43-3 1-15 2-36 3-22 2-36 2-42 2-14-2-29-15-45-39-15-24-36-66-62-127-33-76-52-177-59-304-2-36-4-62-6-79zm674-461c-16 53-25 107-27 162-2 55 2 96 11 124 5 13 11 23 19 28 8 6 17 7 27 4 20-7 40-32 59-75 20-44 31-92 34-145-28-8-52-20-74-37-21-18-38-38-49-61zm-42-83c-1-14 7-31 24-52 17-20 31-32 43-36 15-6 41 3 78 24 37 22 61 49 73 83 2 6 4 13 6 22 1 9 3 20 5 32 14 41 20 79 18 117-1 37-11 75-28 115-22 50-51 94-88 133-36 38-73 64-110 77-35 12-67 11-96-3-29-14-48-34-57-62-24-67-24-143 1-227 24-83 68-158 131-223zm655 50c-22 37-40 83-53 138-13 55-21 86-24 92-7 16-21 34-43 56-22 21-39 34-51 36-18 4-38-2-59-18-22-16-35-31-38-45-2-11 4-23 17-37 13-15 22-26 27-34 8-17 12-42 12-73 0-31-4-67-13-108-2-11-5-18-10-21-4-4-11-4-22-2-13 3-24 3-33 0-8-4-13-9-15-17-3-14 4-30 20-48 16-18 35-30 58-36 14-4 28-12 41-23 13-11 23-17 28-18 11-2 21 2 29 13 8 10 15 28 20 52 4 21 7 47 8 78 0 32-1 76-5 134 3-9 6-22 11-38 22-72 39-118 51-138-5-10-10-19-13-29-4-10-7-21-10-32-5-25-6-47-4-67 3-20 9-36 18-46 18-20 34-36 47-48 14-13 22-19 26-20 12-2 26 6 42 25 17 19 27 35 30 48 0 3-3 16-11 41-7 24-9 44-5 61 2 9 9 19 22 28 13 10 22 23 26 41 2 9 2 16 2 21-1 5-2 10-5 14-3 5-14 13-33 25-19 12-31 19-37 20-7 1-16 0-25-5-10-4-19-11-26-20zm155 271c-8 2-18-3-31-15-13-11-20-24-23-36l-4-22c-3-20 9-45 35-76 27-31 47-47 59-50 14-2 29 6 45 23 15 18 25 42 31 74 2 13-10 32-36 58-25 25-51 40-76 44zm328-35c-8 0-18-6-29-19-11-13-17-26-18-39l-1-22c-1-20 13-44 44-71 30-28 52-42 64-42 15-1 28 8 41 28 13 19 21 45 22 76 1 14-13 31-42 54-29 22-56 34-81 35zm324-22c-8-1-16-9-24-24-9-16-12-30-9-42l3-22c4-20 24-40 59-60 36-20 60-29 73-26 14 2 25 14 34 36 8 22 9 48 4 80-3 13-21 27-54 42-33 15-62 21-86 16z" fill="none" stroke="#fff" stroke-linejoin="round" stroke-linecap="round" stroke-width="400"/></g><path d="m7847 3381l-40-11c-28 16-88 43-88 86v22c0 119 171 148 266 174l29-23v-22c0-44 19-68 19-129v-76c0-55-24-108-68-108h-50c-34 0-61 53-68 87z" fill="#201e1e" stroke="#201e1e" stroke-width="7.62"/><path d="m6642 2487c-2165-59-5632 1714-5639 5942-2 1129 436 4887 540 6379 125 1788 217 4334 255 6146 17 1568 379 2476 1073 2843 925 322 1884 417 2895 182 1045-268 1565-1101 1580-2786-40-2176-303-5943 106-7921 531-2560 1201-2896 1459-5981 155-1856 99-4740-2269-4804" fill="#fff"/><g clip-path="url(#1)"><g><g fill="#201e1e" stroke="#201e1e"><g stroke-linejoin="round" stroke-linecap="round" stroke-width="50"><path d="m4606 21264c-39-33-75-67-107-100-32-34-60-68-85-103-46 3-84 21-116 54-31 33-47 72-47 117 0 42 13 74 39 99 25 24 60 36 103 36 38 0 75-9 112-26 37-18 70-44 101-77zm175 85c0-20-7-45-23-73-15-28-36-57-63-86-9 14-16 26-24 36-7 10-15 20-23 29 25 22 48 41 70 57 22 15 43 28 63 37zm-153-109c11-12 20-23 29-34 8-12 15-24 21-37-28-27-57-48-88-65-30-16-62-27-95-32 15 30 34 60 56 88 22 27 48 54 77 80zm-2 39c-43 43-88 75-132 95-44 21-92 31-142 31-54 0-99-16-135-48-36-32-54-72-54-119 0-56 22-103 66-144 44-41 100-64 168-69-14-24-24-48-31-72-7-24-10-47-10-70 0-64 23-116 68-157 45-41 103-62 173-62 16 0 31 2 45 4 15 2 29 6 43 11l-17 40c-17-8-33-14-48-18-15-4-29-6-41-6-46 0-82 14-107 44-26 29-38 70-38 122 0 27 3 55 10 82 7 28 16 56 29 83 38 9 76 24 112 44 36 19 70 45 104 75 6-17 11-34 14-52 4-17 5-35 5-54 0-7 0-19-2-36 0-2 0-4 0-6l215-7c30-1 54-4 71-11 18-6 31-17 42-31l6-1 2 4c-11 41-32 70-64 87-31 16-84 24-158 24-16 0-43-1-81-2-2 0-3 0-4 0-2 16-6 33-10 50-4 18-10 36-17 55 39 47 70 89 94 126 23 37 39 70 48 99l-3 6c-25 0-54-9-89-27-34-19-78-48-132-90z"/><g font-family="&apos;Amazone BT&apos;"><text x="10500" y="14850" font-size="1595.9" transform="matrix(.93832 0 0 .93113-8008.53 6667.71)">Texto 01</text><text x="10500" y="14850" font-size="1491.78" transform="matrix(.93832 0 0 .93113-7648.28 8457.48)">Texto 02</text><text x="10500" y="14850" font-size="846.67" transform="matrix(.93832 0 0 .93113-6750.78 9692.79)">00.00.0000</text></g></g><g stroke-width="7.62"><path d="m2231 18871c-26-7-19-11-39-11-42 0-89 59-89 108v11c0 77 182 151 266 151 5 0 20-15 28-22l21-162v-86c0-22-32-75-59-75h-59c-43 0-55 53-69 86z"/><path d="m1866 9244c-27-7-19-10-40-10-41 0-87 53-87 97v9c0 70 180 136 263 136 6 0 20-13 28-20l21-145v-77c0-20-32-68-59-68h-58c-42 0-54 48-68 78z"/><path d="m2655 10714c-26-7-19-11-39-11-42 0-89 59-89 108v11c0 77 182 151 266 151 5 0 20-15 28-22l21-162v-86c0-22-32-75-59-75h-59c-43 0-55 53-69 86z"/><path d="m1826 14823c-27-7-19-11-40-11-41 0-88 59-88 108v11c0 77 182 151 265 151 6 0 21-15 29-22l21-162v-86c0-22-32-75-59-75h-59c-43 0-55 53-69 86z"/><path d="m1857 16799c-26-7-18-11-39-11-42 0-88 59-88 108v11c0 77 182 151 265 151 6 0 20-15 28-22l21-161v-87c0-22-32-75-59-75h-59c-42 0-54 53-69 86z"/><path d="m2448 17724c-26-7-19-11-39-11-42 0-89 59-89 108v10c0 78 182 151 266 151 5 0 20-15 28-21l21-162v-86c0-22-32-75-59-75h-59c-43 0-55 53-69 86z"/><path d="m3161 15810c-27-7-19-10-40-10-41 0-88 58-88 107v11c0 78 182 151 265 151 6 0 21-15 29-22l21-161v-86c0-22-32-76-59-76h-59c-43 0-55 54-69 86z"/><path d="m4091 12750c-27-7-19-11-40-11-41 0-88 59-88 108v11c0 77 182 150 265 150 6 0 21-14 29-21l20-162v-86c0-22-31-75-59-75h-59c-42 0-54 53-68 86z"/><path d="m3865 11003c-26-7-18-11-39-11-42 0-89 59-89 108v11c0 77 182 151 266 151 6 0 20-15 28-22l21-161v-87c0-22-32-75-59-75h-59c-42 0-55 53-69 86z"/><path d="m5293 13837c-26-6-18-10-39-10-42 0-89 58-89 107v11c0 78 182 151 266 151 6 0 20-15 28-22l21-161v-86c0-22-32-76-59-76h-59c-42 0-55 54-69 86z"/><path d="m4613 15066c-27-7-19-11-40-11-42 0-88 59-88 108v11c0 77 182 151 265 151 6 0 21-15 28-22l21-162v-86c0-22-32-75-59-75h-59c-42 0-54 53-68 86z"/><path d="m3984 17000c-26-7-19-11-39-11-42 0-89 59-89 108v11c0 77 182 150 266 150 5 0 20-14 28-21l21-162v-86c0-22-32-75-59-75h-59c-43 0-55 53-69 86z"/><path d="m5443 11861c-27-7-19-10-40-10-41 0-88 58-88 107v11c0 77 182 151 265 151 6 0 21-15 29-22l20-161v-86c0-22-31-76-59-76h-58c-43 0-55 54-69 86z"/><path d="m3223 13972c-26-7-18-11-39-11-42 0-89 59-89 108v11c0 77 183 151 266 151 6 0 20-15 28-22l21-161v-87c0-22-32-75-59-75h-59c-42 0-54 53-69 86z"/><path d="m5857 17741c-26-7-18-11-39-11-42 0-88 59-88 108v11c0 77 182 151 265 151 6 0 20-15 28-22l21-161v-87c0-22-32-75-59-75h-59c-42 0-54 53-69 86z"/><path d="m1858 13112c-26-7-18-11-39-11-42 0-89 59-89 108v11c0 77 182 151 266 151 6 0 20-15 28-22l21-162v-86c0-22-32-75-59-75h-59c-42 0-55 53-69 86z"/><path d="m2845 12203c-27-7-19-11-40-11-42 0-88 59-88 108v11c0 77 182 151 265 151 6 0 21-15 28-22l21-161v-87c0-22-32-75-59-75h-59c-42 0-54 53-68 86z"/><path d="m1747 11651c-26-7-18-11-39-11-42 0-88 59-88 108v11c0 77 182 151 265 151 6 0 20-15 28-22l21-161v-87c0-22-32-75-59-75h-59c-42 0-54 54-69 86z"/><path d="m4619 9838c-26-7-18-11-39-11-42 0-89 59-89 108v11c0 77 182 151 266 151 6 0 20-15 28-22l21-162v-86c0-22-32-75-59-75h-59c-42 0-55 53-69 86z"/><path d="m3395 9345c-26-7-18-11-39-11-42 0-89 59-89 108v11c0 77 182 151 266 151 6 0 20-15 28-22l21-162v-86c0-22-32-75-59-75h-59c-42 0-55 53-69 86z"/><path d="m5591 8766c-26-7-18-11-39-11-42 0-89 59-89 108v11c0 77 182 151 266 151 6 0 20-15 28-22l21-161v-87c0-22-32-75-59-75h-59c-42 0-54 53-69 86z"/><path d="m6073 9921c0 102 181 140 265 162l29-23 1-20c0-45 20-68 20-130v-86c0-42-38-97-69-97h-40c-25 0-45 37-68 54v43c-22-6-23-11-50-11-41 0-88 59-88 108z"/><path d="m8053 9370c0 102 180 140 265 161l28-23 2-20c0-44 19-68 19-129v-86c0-42-37-97-69-97h-39c-25 0-45 36-69 54v43c-22-6-22-11-49-11-42 0-88 59-88 108z"/><path d="m7493 11179c0 103 181 140 266 162l28-23 1-20c0-45 20-68 20-129v-87c0-42-38-97-69-97h-39c-26 0-46 37-69 54v43c-22-5-23-10-49-10-42 0-89 58-89 107z"/><path d="m6756 12987c0 103 181 140 265 162l28-23 2-20c0-45 19-68 19-130v-86c0-42-37-97-69-97h-39c-25 0-45 37-69 54v43c-22-5-22-11-49-11-42 0-88 59-88 108z"/><path d="m6651 15168c0 103 180 140 265 162l28-23 1-20c0-45 20-68 20-129v-87c0-42-37-97-69-97h-39c-25 0-45 37-69 54v43c-22-5-22-10-49-10-42 0-88 58-88 107z"/><path d="m6566 17018c0 103 181 140 266 162l28-23 1-20c0-45 20-68 20-129v-87c0-42-38-97-69-97h-39c-25 0-46 37-69 54v43c-22-5-23-10-49-10-42 0-89 58-89 107z"/></g></g><g><g fill="#201e1e" stroke="#201e1e" stroke-width="7.62"><path d="m1774 8161c-26-6-18-9-39-9-41 0-88 53-88 97v9c0 70 181 136 264 136 5 0 20-14 28-20l20-145v-77c0-20-31-68-58-68h-59c-42 0-54 48-68 77z"/><path d="m2678 8178c-26-7-18-11-39-11-42 0-89 59-89 108v10c0 78 182 151 266 151 6 0 20-15 28-22l21-161v-86c0-22-32-76-59-76h-59c-42 0-55 54-69 87z"/><path d="m7475 3894c-12-8-10-11-29-11-46 0-99 42-99 97v21c0 78 182 151 266 151 37 0 49-105 49-151v-107c0-42-38-97-69-97h-29c-57 0-78 46-89 97z"/><path d="m8311 3861v43c-12-7-11-10-30-10h-29c-29 0-79 63-79 97 0 122 198 136 267 174l28-23c1-59 20-76 20-141v-107c0-40-27-87-59-87h-49c-25 0-46 37-69 54z"/><path d="m5499 4206l-39-21c-46 24-99 35-99 107 0 123 206 136 274 171l21-20c1-59 20-76 20-140v-108c0-39-27-86-59-86h-59c-38 0-58 51-59 97z"/></g><use xlink:href="#3"/><use xlink:href="#3"/><use xlink:href="#3"/><g fill="#201e1e" stroke="#201e1e" stroke-width="7.62"><path d="m4535 6790c-27-7-19-11-40-11-41 0-88 59-88 108v11c0 77 182 151 265 151 6 0 21-15 29-22l21-162v-86c0-22-32-75-59-75h-59c-43 0-55 53-69 86z"/><path d="m3428 7238c-27-7-19-11-40-11-42 0-88 59-88 108v10c0 78 182 151 265 151 6 0 21-15 28-22l21-161v-86c0-22-31-76-59-76h-59c-42 0-54 54-68 87z"/><path d="m3801 6587c-26-7-18-11-39-11-42 0-88 59-88 108v11c0 77 182 151 265 151 6 0 20-15 28-22l21-161v-87c0-22-32-75-59-75h-59c-42 0-54 54-69 86z"/><path d="m5768 6537c-27-7-19-11-40-11-42 0-88 59-88 108v10c0 78 182 151 265 151 6 0 21-15 28-22l21-161v-86c0-22-31-76-59-76h-59c-42 0-54 54-68 87z"/><path d="m7370 6929c-26-6-18-10-39-10-42 0-89 58-89 107v11c0 78 183 151 266 151 6 0 20-15 28-22l21-161v-86c0-22-32-76-59-76h-59c-42 0-54 54-69 86z"/><path d="m6865 7622c-26-7-19-11-39-11-42 0-89 59-89 108v11c0 77 182 151 266 151 6 0 20-15 28-22l21-161v-87c0-22-32-75-59-75h-59c-43 0-55 53-69 86z"/><path d="m5315 7272c-26-7-19-11-39-11-42 0-89 59-89 108v11c0 77 182 151 266 151 6 0 20-15 28-22l21-161v-87c0-22-32-75-59-75h-59c-43 0-55 54-69 86z"/><path d="m3522 8108c-27-7-19-11-40-11-41 0-88 59-88 108v11c0 77 182 151 265 151 6 0 21-15 29-22l20-161v-87c0-22-31-75-59-75h-59c-42 0-54 54-68 86z"/><path d="m4587 8143c-27-7-19-11-40-11-41 0-88 59-88 108v11c0 77 182 151 265 151 6 0 21-15 29-22l20-162v-86c0-22-31-75-59-75h-59c-42 0-54 53-68 86z"/><path d="m5304 5970c-27-7-19-11-40-11-41 0-88 59-88 108v11c0 77 182 151 265 151 6 0 21-15 29-22l20-161v-87c0-22-31-75-59-75h-59c-42 0-54 53-68 86z"/><path d="m6324 5063c-26-7-18-11-39-11-42 0-89 59-89 108v10c0 78 183 151 266 151 6 0 20-15 28-22l21-161v-86c0-22-32-76-59-76h-59c-42 0-54 54-69 87z"/><path d="m5072 5404c-27-7-19-11-40-11-41 0-88 59-88 108v11c0 77 182 151 265 151 6 0 21-15 29-22l20-162v-86c0-22-31-75-59-75h-59c-42 0-54 53-68 86z"/><path d="m5683 5196c-26-7-18-11-39-11-42 0-89 59-89 108v11c0 77 183 151 266 151 6 0 20-15 28-22l21-162v-86c0-22-32-75-59-75h-59c-42 0-54 53-69 86z"/><path d="m7879 4241l-40 84c-12-8-11-11-30-11-48 0-98 43-98 86v32c0 78 191 149 275 151 12-24 30-71 30-107v-22c0-110 27-122-30-213l-58-10-49 10z"/><path d="m4968 4400h-10c-35 0-45 48-59 76h-19-30c-29 0-79 54-79 86v32c0 94 203 141 286 162 15-35 29-89 29-140v-140c0-40-15-53-30-73l-49-14c-14 8-16 11-39 11z"/><path d="m6797 4497c-38 0-4 3-30-11-40 24-88 39-88 108v11c0 70 168 151 246 151 37 0 3-4 29 11 23-49 39-121 39-194v-65c0-42-37-97-68-97h-50c-50 0-57 86-78 86z"/><path d="m8488 4518l-39 44v43c-40-4-24-11-50-11-35 0-88 59-88 97 0 107 168 164 267 174l27-23 20-162v-75c0-49-21-56-39-86h-20l-9-4-69 3z"/><path d="m7455 4874c-12-7-10-10-29-10h-10c-48 0-88 43-88 97 0 123 178 147 275 172 15-35 29-89 29-140v-151c0-26-35-65-59-65h-49c-36 0-65 56-69 97z"/><path d="m4447 5036v21 32l-49-21c-33 19-89 42-89 97 0 141 195 141 276 183 18-39 39-112 39-172v-97c0-39-27-86-59-86h-59c-24 0-37 27-59 43z"/><path d="m3749 5071l-39 40v43c-27-6-19-10-40-10-42 0-98 56-98 86 0 131 164 157 267 185l28-23c1-59 20-76 20-141v-97c0-68-40-76-79-96l-59 13z"/><path d="m8661 5382h-20c-48 0-88 43-88 97 0 117 181 148 275 172 16-32 30-81 30-129l3-22-3-140c0-26-36-64-59-64h-49c-56 0-48 86-89 86z"/><path d="m8095 5362l-40 40v43c-26-6-18-10-39-10-45 0-98 51-98 97 0 103 173 164 266 174l29-23c1-59 19-76 19-141v-97c0-49-21-56-40-83l-48-11-49 11z"/><path d="m7023 5596l-39-10c-32 16-89 37-89 86v21c0 93 164 162 246 162 37 0 3-3 29 11 15-35 30-89 30-140l-3-12 13-75c-6-25-10-31-10-64 0-16-21-48-30-65h-19-59c-35 0-62 53-69 86z"/><path d="m4034 5779v44c-12-8-10-11-29-11h-30c-29 0-79 63-79 97 0 83 163 161 246 161 38 0 4-3 28 9l21-19c2-59 20-76 20-140v-108c0-40-27-86-59-86h-39c-54 0-50 30-79 53z"/><path d="m2923 6200c40 92 70 116 171 147 30 9 107 36 120 11 7-12 24-113 24-137v-118c0-52-31-86-79-86h-30c-36 0-65 55-68 97-26-15 8-11-30-11h-10c-63 0-78 52-98 97z"/><path d="m7485 6264c0 55 64 103 105 123 49 22 125 31 160 50l29-23c2-58 21-75 21-139v-108c0-52-31-86-79-86h-20c-53 0-49 31-78 54v43c-26-14 8-11-30-11h-29c-29 0-79 64-79 97z"/><path d="m8707 6318l-3-43c0-26-35-64-59-64h-49c-36 0-66 55-69 97-26-15 8-11-29-11h-10c-49 0-89 43-89 97 0 120 180 148 276 172 15-34 29-88 29-140l3-54v-54z"/><path d="m8399 7369c0 102 181 140 266 162l28-23 1-20c0-45 20-68 20-130v-86c0-42-38-97-69-97h-39c-25 0-46 37-69 54v43c-22-6-23-11-49-11-42 0-89 59-89 108z"/><path d="m8275 8181c0 103 181 140 265 162l29-23 1-20c0-45 20-68 20-129v-87c0-42-38-97-69-97h-40c-25 0-45 37-68 54v43c-22-5-23-10-50-10-41 0-88 58-88 107z"/></g></g><path d="m2199 7621c-20 10-36 18-47 22-11 4-19 6-23 5-4 0-9-7-14-18-5-12-13-36-24-74-71-45-162-102-274-170-195-119-290-191-286-217 2-8 6-14 13-18 7-4 15-5 24-3 7 1 19 5 35 11 16 6 28 11 37 13 12 4 27 8 44 13 16 4 27 7 31 8 21 7 76 37 164 89 89 52 164 95 227 129-15-105-55-197-121-274-66-77-141-123-225-138-85-15-160 9-227 71-66 61-109 150-130 265-13 73-15 140-7 202 8 61 24 107 49 135 8 10 20 21 35 33 18 15 26 29 23 42-2 10-7 19-15 27-9 7-17 11-25 9l-14-2c-16-3-28-6-35-10-7-3-14-8-20-14-13-14-26-36-39-65-13-28-25-62-36-102-18-63-29-124-34-184-4-59-1-116 9-172 24-136 80-240 168-313 87-73 188-100 302-80 95 17 176 54 243 113 67 59 114 133 140 222 2 10 9 47 17 112 9 65 21 124 36 178 73 45 123 74 149 88 26 14 45 22 57 24 4 1 10 0 17-2 7-2 12-3 15-2 7 1 12 5 16 13 3 8 6 24 9 47 1 16 5 34 10 56 6 21 8 35 7 41-2 9-6 16-12 20-6 5-14 6-23 5-8-2-29-11-61-29-33-17-95-53-185-106zm-128-1043c32 45 68 86 110 122 41 36 76 59 104 69 14 5 25 6 34 4 10-3 16-9 20-18 7-20 0-51-22-94-21-42-52-81-92-117-23 17-48 28-75 34-28 5-54 5-79 0zm-92-21c-11-7-20-24-25-50-5-26-6-45-1-57 5-15 28-30 68-45 40-14 77-16 111-4 6 3 13 6 21 10 8 4 17 10 28 17 40 14 75 34 103 58 28 25 52 56 72 95 26 48 42 98 49 151 7 53 4 97-9 134-13 34-33 58-62 71-29 14-58 16-85 6-68-24-127-72-177-143-50-72-81-152-93-243zm431-471c16 40 42 83 77 127 36 44 55 69 58 75 8 15 14 38 18 69 3 30 3 51-3 61-8 17-25 28-51 36-26 7-45 7-58 1-10-5-17-17-20-36-3-19-6-33-10-42-9-17-25-35-50-54-25-19-56-38-94-56-10-5-18-7-23-6-5 1-10 6-15 16-6 13-13 21-21 26-7 4-15 5-22 1-13-6-22-21-26-45-4-23-2-46 7-67 6-14 8-29 8-46-1-17 0-28 2-33 5-10 14-16 28-15 14 0 31 6 54 16 19 10 42 24 67 43 25 18 60 47 103 85-6-7-13-18-23-32-44-61-70-103-78-125-11-1-22-4-32-7-10-3-20-7-31-12-23-11-41-24-56-38-14-14-23-29-25-42-5-27-8-49-9-67-2-18-2-29 0-32 5-11 20-17 46-18 25-1 44 1 56 7 2 1 11 12 26 33 15 20 30 34 45 42 9 4 21 4 37 0 15-5 31-3 48 5 8 4 14 7 17 11 4 3 7 8 8 13 3 5 3 18 0 41-2 22-4 35-7 41-3 6-10 12-19 17-10 5-21 7-32 7zm333-758c19 52 44 101 74 146 31 46 59 77 83 94 12 8 22 12 32 12 10 0 18-4 24-12 12-17 13-49 3-96-10-47-29-93-58-137-27 10-54 14-82 13-28-1-53-8-76-20zm-83-43c-9-11-13-29-11-56 2-26 6-44 13-55 9-13 35-21 78-25 43-4 79 4 108 24 5 4 11 9 17 15 7 6 15 14 24 23 35 24 63 52 84 83 20 31 35 68 45 110 12 53 15 106 8 159-7 52-22 95-44 127-21 29-47 47-79 53-32 6-59 0-83-16-59-41-104-103-134-185-30-81-38-167-26-257zm511-181c-24-74-41-140-52-200-10-59-14-108-10-144-3-13-3-27 1-42 4-16 11-28 20-39 12-13 27-19 46-18 19 2 38 11 58 28 29 25 61 64 97 118 35 53 61 87 78 101 10 9 21 14 33 16 12 1 20 3 22 5 10 8 12 33 7 74-6 40-16 69-30 86-11 12-26 16-45 11-20-5-42-18-68-41-4-3-12-13-22-29-10-15-26-42-48-78-17-30-31-55-44-75-13-20-21-31-25-35-1-1-2-1-4-1-2 1-3 1-4 3-3 3-2 19 2 48 4 29 13 70 24 123 12 53 24 103 37 152 12 49 19 74 19 74 0 1-4 15-13 43-9 27-14 42-14 43-4 3-14 5-32 5-19-1-30-3-35-7-3-3-16-21-41-56-24-36-49-74-76-116-31-49-57-92-78-130-21-38-33-61-35-69-1-5 3-19 10-44 7-24 13-39 17-44 11-13 25-21 42-25 17-4 30-2 39 6 1 1 12 29 32 85 21 56 51 113 92 172zm419-748c-13 69-14 137-4 203 10 66 27 112 51 140 9 11 17 17 26 18 9 2 18-2 28-9 30-26 41-69 33-128-9-60-35-116-78-167-8-10-17-19-26-29-9-9-19-18-30-28zm-51-40c-54-30-103-53-149-67-45-15-85-21-119-19-24 1-52 8-82 21-30 13-49 15-55 7-8-9-3-30 13-64 16-34 32-58 49-72 18-15 45-26 82-34 37-7 75-8 115-4 54 6 104 23 151 49 48 27 91 63 130 110 31 37 57 79 77 125 21 46 35 97 44 152 3 21 1 57-6 109-1 7-2 14-3 18-6 42-17 81-34 118-17 36-35 63-54 79-27 22-56 32-86 28-30-4-57-20-81-48-10-12-23-36-40-72-18-37-29-66-33-86-9-43-6-96 8-159 15-63 39-127 73-191zm517 16c20-49 30-98 29-148 0-50-10-90-29-118-6-8-12-14-17-16-6-3-12-3-17 1-24 16-34 53-29 110 5 56 26 113 63 171zm46 39c17 8 35 11 54 10 19-2 37-8 54-20 20-13 36-33 48-59 13-26 21-39 24-41 6-5 12-6 19-5 6 1 11 4 15 9 11 16 4 46-20 90-24 44-49 76-77 94-11 8-35 20-69 35-35 15-61 29-78 40-21 14-45 15-72 3-28-12-54-35-77-68-18-27-32-67-41-119-9-52-11-102-4-150 7-55 21-107 44-155 22-49 44-81 65-95 19-13 39-16 60-9 22 8 41 24 59 50 12 18 20 39 24 63 0 2 0 3 1 4 1 8 6 19 12 34 7 14 11 25 12 33 9 38 9 81 0 127-10 46-27 89-53 129zm705-480c-3 71-1 135 5 193 6 58 16 103 29 133 12 28 28 49 49 62 20 12 40 15 58 7 11-5 24-17 38-37 14-20 26-42 35-67 12-36 18-70 19-104 0-34-6-65-18-94-16-37-42-64-79-80-37-16-82-20-136-13zm-123 21c-10 0-22 1-38 2-38 3-59 2-61-4-5-11-5-32-1-64 5-33 11-54 19-64 2-2 11-8 27-19 16-10 30-19 42-27-4-228 2-379 19-453 17-73 49-120 96-139 9-4 17-4 25-1 8 4 14 12 19 22 1 3 2 7 3 12 1 5 2 9 2 10 2 4 6 10 13 19 7 9 12 17 15 24 9 22 5 50-13 83-6 11-10 19-12 24-10 29-19 70-25 123-7 53-12 121-15 204 45-24 90-51 135-80 12-9 20-13 22-14 10-4 19-5 29-2 9 4 16 10 20 18 5 13 5 28 0 45-5 18-15 35-29 51-5 7-29 20-71 41-43 21-79 39-109 56 94-14 166-14 215 1 50 15 85 46 106 94 17 39 18 94 4 163-14 70-44 158-89 264-23 52-41 89-56 112-15 22-29 37-43 43-3 1-15 2-36 3-21 2-35 2-42 2-14-2-29-15-44-39-16-24-37-66-63-127-33-76-52-177-59-304-2-36-4-62-5-79zm673-461c-16 53-25 107-27 162-2 54 2 96 12 124 4 13 11 23 19 28 8 6 16 7 26 4 20-7 40-32 59-76 20-43 31-92 34-144-27-8-52-20-74-37-21-18-38-38-49-61zm-42-84c-1-13 7-30 24-51 17-20 31-32 43-37 16-5 42 4 79 25 36 22 61 49 72 83 2 6 4 13 6 22 2 9 3 20 5 32 14 41 20 79 19 116-2 38-12 76-29 116-22 50-51 94-88 133-36 38-73 64-110 77-35 12-67 11-96-3-29-14-48-34-57-62-24-67-23-143 1-227 24-83 68-158 131-224zm655 51c-22 37-39 83-53 138-13 55-21 86-24 92-7 15-21 34-43 56-22 21-39 33-51 36-18 4-38-2-59-18-22-16-34-31-37-45-3-11 3-23 16-38 14-14 22-25 27-34 8-17 12-41 12-72 0-32-4-67-13-108-2-11-5-18-9-21-4-4-12-4-22-2-14 3-25 3-34-1-8-3-13-8-15-16-3-14 4-30 20-48 16-18 35-30 58-36 15-4 28-12 42-23 13-11 22-17 27-18 11-2 21 2 29 12 8 11 15 29 20 53 5 21 7 47 8 78 1 31-1 76-4 133 2-9 6-21 11-37 21-72 38-118 51-138-6-10-10-19-14-29-4-10-7-21-10-32-5-25-6-47-4-67 3-20 9-36 18-46 18-20 34-36 47-48 14-13 22-19 26-20 12-3 26 6 43 25 16 19 26 35 29 48 0 3-3 16-10 40-8 25-10 45-6 62 2 9 10 19 23 28 13 10 21 23 25 41 2 9 3 16 2 21 0 5-2 9-5 14-3 5-14 13-33 25-18 12-31 18-37 20-7 1-15 0-25-5-10-4-19-11-26-20zm156 271c-8 2-19-3-32-15-13-12-20-24-22-36l-4-22c-4-20 8-45 34-76 27-31 47-48 60-50 14-2 28 5 44 23 15 18 25 42 31 73 2 14-10 33-35 58-26 26-52 41-76 45zm327-35c-8 0-17-6-29-19-11-13-17-26-18-39l-1-22c-1-20 14-44 44-71 30-28 52-42 65-42 14-1 27 8 41 28 12 19 20 45 22 76 0 14-14 31-43 54-29 22-56 34-81 35zm324-22c-8-1-16-9-24-24-9-16-11-30-9-42l4-22c3-20 23-40 59-60 35-20 60-29 72-26 14 2 25 14 34 36 8 22 9 48 4 80-2 13-20 27-53 42-34 15-62 21-87 16z" fill="#201e1e" stroke="#201e1e" stroke-width="7.62"/></g></g><path d="m6642 2487c-2165-59-5632 1714-5639 5942-2 1129 436 4887 540 6379 125 1788 217 4334 255 6146 17 1568 379 2476 1073 2843 925 322 1884 417 2895 182 1045-268 1565-1101 1580-2786-40-2176-303-5943 106-7921 531-2560 1201-2896 1459-5981 155-1856 99-4740-2269-4804z" fill="none" stroke="#fff" stroke-width="7.62"/><g fill="#201e1e" font-family="&apos;Arial Black&apos;" font-weight="900" font-size="492.72"><text x="10500" y="14850" transform="matrix(1.0077 0 0 1-6771.65 4045.79)">NN 1</text><text x="10500" y="14850" transform="matrix(1.0077 0 0 1-6769.91 4504.34)">NN 2</text></g></svg>