<svg xmlns="http://www.w3.org/2000/svg" width="744.09" height="1052.36" viewBox="0 0 21000 29700" shape-rendering="geometricPrecision" image-rendering="optimizeQuality" fill-rule="evenodd" clip-rule="evenodd" xmlns:xlink="http://www.w3.org/1999/xlink"><defs><path id="2" d="m14695 3544c28-8 20-12 42-12 45 0 96 65 96 120v12c0 86-197 167-287 167-7 0-22-16-31-24l-22-179v-96c0-24 34-84 63-84h64c46 0 59 60 75 96z" stroke-width="7.62" fill="#201e1e" stroke="#201e1e"/><path id="3" d="m6487 3544c-29-8-20-12-43-12-45 0-95 65-95 120v12c0 86 197 167 287 167 6 0 22-16 30-24l23-179v-96c0-24-34-84-64-84h-64c-45 0-58 60-74 96z" stroke-width="7.62" fill="#201e1e" stroke="#201e1e"/><clipPath id="0"><path d="m14084 1612c2341-65 6091 1903 6099 6595 2 1254-472 5426-584 7081-135 1985-235 4811-276 6822-19 1741-410 2749-1161 3156-999 358-2037 464-3130 202-1130-297-1692-1222-1708-3092 42-2416 328-6597-116-8792-573-2843-1298-3215-1577-6639-168-2060-106-5262 2453-5333"/></clipPath><clipPath id="1"><path d="m7011 1612c-2341-65-6091 1903-6098 6595-3 1254 471 5426 584 7081 135 1985 235 4811 276 6822 18 1741 410 2749 1160 3156 1000 358 2037 464 3130 202 1131-297 1692-1222 1708-3092-42-2416-327-6597 116-8792 573-2843 1298-3215 1577-6639 168-2060 107-5262-2453-5333"/></clipPath></defs><text x="10081" y="24465" fill="#201e1e" font-family="&apos;Arial Black&apos;" stroke="#201e1e" font-weight="900" stroke-width="7.62" font-size="705.56">38</text><g fill="none" stroke="#322f30" stroke-width="80"><circle cx="10533" cy="1326" r="460"/><path d="m10533 515v1621"/><path d="m9723 1326h1621"/><circle cx="10533" cy="25836" r="460"/><path d="m10533 25026v1621"/><path d="m9723 25836h1621"/></g><rect x="9843" y="22866" width="1347" height="637" rx="318" fill="#fff" stroke="#fff" stroke-width="20"/><g fill="#373435" font-family="&apos;Arial&apos;" font-size="423.33"><text x="999" y="27531">DESC 1</text><text x="999" y="27960">DESC 2</text><text x="999" y="28436">DESC 3</text></g><g transform="matrix(.9817 0 0 1-22133.2-412.25)" fill="#634038" font-family="&apos;Brush455 BT&apos;" stroke="#fff" stroke-linejoin="round" stroke-linecap="round" stroke-width="400" font-size="1423.36"><text x="36120" y="3065"><tspan rotate="347">.</tspan></text><text x="36486" y="2979">.</text><text x="36852" y="2979"><tspan rotate="365">.</tspan></text><text x="37217" y="3008"><tspan rotate="371">q</tspan></text><text x="37902" y="3150"><tspan rotate="378">u</tspan></text><text x="38531" y="3363"><tspan rotate="385">e</tspan></text><text x="39035" y="3591"><tspan rotate="391">r</tspan></text><text x="39477" y="3847"><tspan rotate="396">o</tspan></text><text x="39950" y="4203"><tspan rotate="401"/></text><text x="40230" y="4431"><tspan rotate="404">s</tspan></text><text x="40550" y="4758"><tspan rotate="410">e</tspan></text><text x="40897" y="5185"><tspan rotate="417">r</tspan></text><text x="41182" y="5612"><tspan rotate="419"/></text><text x="41363" y="5926"><tspan rotate="426">s</tspan></text><text x="41554" y="6353"><tspan rotate="429">e</tspan></text><text x="41730" y="6865"><tspan rotate="436">u</tspan></text><text x="41890" y="7520"><tspan rotate="441"/></text><text x="41942" y="7876"><tspan rotate="445">p</tspan></text><text x="41992" y="8687"><tspan rotate="452">a</tspan></text><text x="41961" y="9399"><tspan rotate="453">r</tspan></text><text x="41934" y="9911"><tspan rotate="454">!</tspan></text></g><path d="m14084 1612c2341-65 6091 1903 6099 6595 2 1254-472 5426-584 7081-135 1985-235 4811-276 6822-19 1741-410 2749-1161 3156-999 358-2037 464-3130 202-1130-297-1692-1222-1708-3092 42-2416 328-6597-116-8792-573-2843-1298-3215-1577-6639-168-2060-106-5262 2453-5333" fill="#fff"/><g clip-path="url(#0)"><g><g fill="#201e1e" stroke="#201e1e"><path d="m16443 22454c-43-36-82-73-116-111-35-37-65-75-92-114-50 3-92 23-125 60-34 37-51 80-51 131 0 45 14 82 41 109 28 27 65 40 112 40 41 0 81-10 121-29 40-20 76-49 110-86zm189 95c0-23-8-50-25-81-17-31-40-63-69-95-9 15-17 28-25 39-8 12-16 23-25 33 26 25 51 45 75 63 24 17 47 31 69 41zm-166-122c12-12 22-24 31-37 9-13 17-26 23-40-30-30-62-54-95-72-33-19-67-31-102-37 16 34 36 67 60 98 23 30 51 60 83 88zm-2 44c-47 48-95 84-143 106-48 23-99 34-153 34-59 0-108-18-147-54-39-35-58-79-58-132 0-61 24-114 72-159 48-45 108-71 181-77-15-27-26-53-33-80-7-26-11-52-11-78 0-70 24-128 73-174 49-45 112-68 188-68 17 0 33 1 49 4 15 2 31 7 46 12l-19 44c-18-8-35-15-51-20-17-4-32-7-45-7-50 0-88 17-116 50-27 32-41 77-41 135 0 31 4 61 11 92 7 30 18 61 32 92 41 10 81 26 120 48 39 22 77 50 113 84 7-19 12-38 15-58 4-19 6-39 6-60 0-8-1-21-3-40 0-3 0-5 0-7l233-8c33-1 59-5 77-12 19-7 34-18 45-34l7-2 2 5c-12 46-35 78-69 96-34 19-92 28-171 28-18 0-47-1-88-3-2 0-3 0-4 0-3 18-6 37-11 56-5 19-11 39-18 60 42 53 76 99 101 141 25 41 43 78 53 110l-4 6c-27 0-59-10-96-30-37-20-84-53-143-100z" stroke-linejoin="round" stroke-linecap="round" stroke-width="50"/><g stroke-width="7.62"><path d="m13524 2283c-9 2-20-3-35-15-15-12-23-25-27-39l-5-24c-5-22 6-51 33-87 27-35 48-55 61-58 15-3 32 4 49 23 18 18 30 45 38 79 3 15-8 37-35 67-26 30-53 48-79 54zm350-79c-8 0-19-8-30-23-12-15-17-30-17-44v-25c0-22 17-47 51-76 34-29 58-43 72-43 16 0 30 11 43 33 13 22 19 51 19 86 0 15-16 34-48 57-33 23-62 35-90 35zm356 1c-9 0-18-9-29-25-10-16-14-31-13-45l2-25c2-22 21-46 58-71 36-26 62-38 76-37 15 2 28 14 39 37 11 24 15 53 12 88-1 15-19 32-53 52-35 20-65 29-92 26zm462-131c-1 5 0 8 3 11 2 4 5 5 9 6 19 4 52-5 99-27 47-22 93-52 139-91 38-33 73-67 104-102 31-36 47-58 49-67 0-1 0-2-1-4-1-1-3-2-5-2-21-4-61 7-119 33-58 25-111 60-159 102-31 27-58 55-82 85-23 29-36 48-37 56zm233-4c-75 50-144 87-207 111-63 25-112 33-148 26-26-5-46-19-59-42-13-23-17-49-11-79 4-18 13-39 28-63 15-24 35-47 59-72 50-50 104-93 163-129 58-35 117-62 177-79 41-12 86-21 136-27 50-6 80-8 90-6 15 3 27 19 37 49 3 10 5 17 7 23 3 6 7 15 14 27 12 22 16 39 14 52-3 13-38 66-107 159-69 92-130 181-183 265 30-23 66-53 109-89 44-37 71-55 82-53 8 1 14 6 19 12 4 7 5 14 4 21-2 12-40 50-113 112-73 63-136 128-189 197-38 48-67 95-87 141-1 2-2 3-2 5-7 14-15 23-24 27-10 4-24 4-41 1-21-4-37-12-47-22-11-10-15-22-12-35 17-93 99-247 243-462 21-31 37-54 48-70zm746 116c-53 45-101 82-146 110-44 29-77 45-98 49-6 1-13 2-22 3-10 1-17 1-21 2-6 2-13 4-23 7-32 9-53 11-63 8-17-5-31-22-41-49-11-27-15-48-10-62 2-8 13-27 31-60 18-32 38-65 61-98 41-60 76-108 107-145 30-36 54-60 71-70 9-5 19-8 29-9 11-2 16-3 17-3 2-1 7-3 15-6 31-13 54-16 72-10 12 4 21 19 27 45 5 25 6 43 3 52-2 8-25 37-69 86l-10 12c-16 17-36 40-62 67-46 52-71 83-75 94-2 7-2 12-1 16 2 4 6 6 11 8 21 7 78-32 173-117 53-47 94-83 126-109 10-9 29-17 55-21 26-5 43-6 50-4 14 5 22 16 25 34 3 18 1 40-8 66-9 31-31 74-65 130-33 56-54 96-62 121-4 14-7 29-8 47-1 17-2 28-4 32-5 16-26 32-63 47-38 15-65 20-83 14-12-4-22-16-29-37-8-21-10-36-7-47 2-6 20-44 56-116 17-36 31-65 41-87zm416 266c57-8 108-27 155-56 46-29 78-61 93-96 5-10 7-18 6-25-1-7-4-12-10-15-29-14-69-2-119 35-50 37-92 90-125 157zm-11 66c2 21 9 40 22 57 12 17 27 30 47 40 24 11 51 15 82 12 32-3 49-4 52-2 8 3 13 8 15 15 3 7 3 13 0 20-9 19-41 30-95 33-54 3-98-4-131-19-13-7-37-22-71-46-33-24-60-40-80-50-25-12-40-34-44-67-4-33 3-70 22-111 15-33 44-68 88-107 43-38 89-68 138-90 55-25 111-41 169-47 58-7 100-5 125 7 23 11 36 28 41 53 6 24 1 51-14 83-10 22-25 42-44 59-2 1-3 2-4 3-7 6-15 16-24 31-10 15-18 25-25 30-31 31-71 55-119 73-48 17-98 25-150 23zm687 165c-45 14-93 39-145 73-51 35-80 54-87 57-17 7-42 11-76 12-33 1-55-2-66-8-18-11-29-31-34-60-5-29-4-50 4-64 6-11 20-17 41-18 21-1 36-4 46-8 19-7 41-24 64-49 23-26 46-58 69-97 7-11 10-19 9-25-1-6-6-12-16-18-13-8-22-16-26-25-4-9-4-18 0-26 9-13 26-21 52-23 26-3 50 2 72 14 15 8 31 12 50 13 18 1 30 3 35 6 11 6 16 17 14 32-2 15-9 34-23 57-12 21-30 44-52 70-23 26-57 61-103 105 9-6 21-13 37-22 71-43 118-67 143-74 3-12 6-24 11-34 4-11 9-22 16-33 14-24 29-43 46-58 17-14 34-22 49-24 29-2 53-3 73-3 20 0 31 1 35 3 11 7 16 24 15 52-1 28-5 49-13 61-1 3-14 11-38 25-24 14-40 30-50 46-5 9-6 23-3 40 3 17 0 35-11 52-5 9-9 15-13 18-4 4-9 7-15 8-6 2-20 1-44-4-24-4-38-8-44-12-7-4-12-12-17-23-4-11-6-23-5-36zm486 173c-57 19-111 45-161 78-50 33-85 63-104 90-9 12-13 24-13 35 0 11 4 19 13 26 18 14 53 16 104 6 51-10 101-31 150-62-10-30-15-60-13-90 3-31 11-59 24-83zm49-91c11-10 31-14 60-11 29 2 49 7 60 15 14 11 23 40 26 86 4 47-6 87-28 119-5 5-10 12-17 19-7 7-15 16-26 25-27 38-58 69-92 91-34 22-74 38-120 47-58 13-116 15-173 6-57-8-103-25-138-51-32-23-50-53-56-88-6-34 0-65 19-91 46-64 114-112 203-143 90-32 184-40 282-24zm698 706c-7 0-13 2-19 4-5 3-9 6-13 10-8 9-18 43-30 104-13 60-31 104-57 131-35 37-88 52-158 44-69-7-130-36-180-86-32-32-53-61-63-88-10-27-7-48 8-64 17-17 45-27 85-28 40-2 66 3 79 16 13 13 15 39 6 76-10 38-9 62 2 72 5 6 11 8 17 7 6-1 13-5 19-12 38-40 60-88 69-147 8-58 19-95 33-110 11-11 24-20 40-25 17-6 38-9 64-9 49-1 96 4 141 15 46 11 75 22 88 35 10 10 17 23 20 40 3 17 1 30-7 38-27 29-50 47-69 54-19 7-35 3-50-11-9-9-16-19-21-31-4-12-6-24-4-35zm91 483c54 17 109 22 163 15 55-6 96-21 125-46 8-7 13-14 16-20 2-7 1-13-3-18-21-25-62-32-123-20-61 12-120 42-178 89zm-37 55c-7 20-9 40-5 61 4 20 13 39 27 56 17 21 40 36 69 47 30 10 46 17 48 20 6 7 8 13 8 21 0 7-3 13-9 17-16 14-49 10-100-11-50-21-87-45-110-73-10-12-25-36-46-72-20-36-38-63-52-80-17-22-21-48-11-80 9-31 31-62 65-91 27-23 69-43 124-59 55-16 110-24 163-23 60 2 117 12 173 31 55 18 92 38 110 60 16 20 21 42 16 66-6 24-21 47-48 69-18 16-40 27-65 34-2 0-4 1-5 1-8 3-19 9-34 18-15 9-27 15-35 17-41 15-87 19-138 14-51-5-99-19-145-43zm539 460c-47-7-100-7-162 1-61 9-95 12-102 12-19-1-43-8-74-22-30-14-49-27-56-38-11-17-12-40-5-68 8-29 18-48 32-56 10-7 24-6 44 2 20 8 34 12 45 14 20 1 47-4 79-17 31-12 66-31 104-56 10-6 16-13 18-18 2-6 0-13-6-24-9-12-13-24-13-34 0-10 4-17 11-22 13-9 32-8 57 1 24 10 44 25 59 45 9 14 22 25 39 34 16 9 26 16 29 21 7 11 6 23-1 35-8 13-23 27-46 41-20 13-45 27-77 40-31 13-77 29-137 48 10-1 24-2 43-3 81-7 135-7 160-3 7-9 16-18 24-26 9-8 18-15 29-22 23-15 45-25 67-31 21-5 39-5 53 0 27 11 50 21 67 30 18 9 28 15 30 18 8 11 5 29-8 54-13 25-26 41-38 49-2 2-17 3-45 6-28 2-49 8-64 18-10 6-16 18-21 35-4 17-15 31-32 42-8 6-15 9-20 11-5 1-11 1-16 0-6-1-19-9-38-23-20-15-31-25-35-31-4-7-6-16-5-28 1-12 4-23 11-35zm538 685c-7-2-13-2-19-2-6 0-11 2-16 4-11 5-33 33-66 84-34 52-67 85-101 100-46 21-100 15-162-19-62-34-108-83-136-149-18-41-27-76-26-105 1-29 12-48 31-57 22-9 51-7 89 6 37 14 60 29 67 46 8 17 0 41-22 73-23 31-31 54-25 67 3 7 7 11 14 13 6 1 13 0 22-4 49-22 88-59 117-110 29-51 53-81 71-89 15-6 30-9 47-8 18 1 38 7 62 16 46 18 88 40 126 68 39 27 61 49 69 65 5 14 7 29 3 46-3 17-10 27-20 32-36 16-64 24-84 24-20-1-34-11-42-29-5-12-8-25-8-37 0-13 3-24 9-35zm-71 475c46 34 96 57 150 69 53 12 97 11 132-3 10-3 17-8 22-14 4-5 5-11 2-17-11-31-48-51-109-60-62-9-127 0-197 25zm-53 40c-13 16-21 35-24 56-2 21 0 41 8 62 9 25 26 47 51 67 24 20 37 32 38 35 3 8 4 15 1 22-3 7-7 11-14 14-20 8-50-7-91-43-41-37-68-72-81-107-5-14-12-42-20-83-8-41-16-72-24-93-9-26-5-52 15-79 19-27 50-48 91-64 33-13 79-18 136-15 57 3 111 14 161 32 56 22 108 50 154 86 47 37 75 68 85 94 9 24 7 46-6 67-13 21-35 38-67 50-23 9-47 13-72 11-3 0-4-1-5-1-9 0-22 2-39 6-17 3-29 5-38 4-43 0-88-10-135-32-47-22-88-52-124-89zm348 673c-65-22-121-44-169-68-47-23-78-43-93-59-4-4-9-10-14-18-6-8-10-13-13-16-4-4-10-10-17-16-25-24-38-40-41-51-4-17 2-38 19-62 17-23 33-37 47-41 7-2 29-3 66-5 36-1 74-1 114 1 71 3 130 9 177 15 47 8 79 16 96 25 9 5 17 12 24 20 6 8 10 13 10 13 2 2 7 5 14 10 26 20 42 39 46 57 3 13-4 28-23 47-18 18-32 28-42 31-8 2-44-3-108-15l-15-2c-23-4-52-10-89-18-67-13-107-18-118-15-6 2-11 4-13 8-3 3-3 8-2 14 5 21 69 50 190 87 66 20 118 37 157 51 13 4 29 16 47 36 18 20 27 34 29 42 4 14-1 27-15 39-13 12-33 22-59 28-30 8-78 12-142 13-65 0-109 4-134 10-14 4-28 10-43 18-15 8-25 13-29 14-16 4-40-6-73-30-32-24-51-45-55-64-3-12 2-27 15-45 13-18 25-28 36-31 5-1 47-6 126-13 39-4 70-8 94-10zm1 1015c-1 11-1 22-1 34 0 13 1 25 2 38 1 11 3 24 5 38 2 15 5 30 8 47 47 31 89 55 127 71 39 15 70 22 94 20 12-1 23-5 32-13 9-7 14-14 13-21-2-27-31-64-86-110-55-47-120-81-194-104zm17-176c70 19 132 35 186 46 54 11 87 16 98 15 5-1 8-1 11-3 3-1 4-3 4-4-1-15-20-41-55-78-35-38-71-64-106-80-3 0-6-1-11-3-23-7-36-23-38-47-1-9 0-15 3-20 4-5 9-7 15-8 23-2 66 17 132 57 65 40 123 88 176 143 20 22 35 43 45 62 9 20 14 42 16 67 2 21-3 38-16 50-13 12-33 20-59 22-22 2-104-12-246-41l-37-8c80 38 146 85 198 139 53 54 81 104 85 148 2 27-7 48-27 62-20 14-53 23-99 27-48 4-92-3-130-21-39-18-86-55-141-110-1 15-3 27-7 34-4 7-10 11-18 12-8 1-15-7-22-23-4-9-6-15-8-19-5-8-13-22-23-39-51-88-79-163-84-227l-2-24c-72-30-138-54-198-72-61-18-99-26-117-25-6 1-14 4-25 8-10 4-18 7-23 7-10 1-18-2-25-9-7-7-12-17-14-30-5-21-14-43-27-66-13-23-20-39-21-47-1-10 2-18 9-25 7-8 16-12 27-13 21-2 145 29 373 92l39 10c0-44 3-73 9-85 6-13 16-20 32-21 9-1 17 0 25 4 7 3 15 9 23 17 21 21 39 41 53 60 15 20 22 34 23 40 0 4 0 7 0 11 0 3-1 8-3 15zm7 852c-1 22 15 53 46 96 32 42 73 85 124 128 37 32 72 57 103 77 31 19 53 29 65 30 3 0 5-1 7-4 1-2 2-5 2-10 1-17-14-47-45-90-31-44-69-89-116-136-34-32-66-58-95-76-29-18-53-27-72-28-7 0-12 1-15 2-3 2-4 6-4 11zm60 206c-36-33-65-65-86-97-21-32-38-65-48-99-11-36-20-70-28-103-7-33-11-53-10-60 0-20 11-36 31-50 19-12 42-18 68-17 15 0 34 6 59 19 23 12 53 31 89 57 43 30 82 66 118 108 36 42 71 92 104 151 23 40 41 80 54 119 13 40 19 72 18 97-1 36-10 68-25 97-16 28-33 42-51 41-5 0-27-6-65-18-39-13-74-23-106-32-65-18-121-33-167-44-46-12-74-17-83-18-9 0-19 2-30 6-10 5-18 7-22 7-9-1-17-6-26-17-9-11-14-24-13-38 0-5 2-13 6-22 4-9 6-17 6-22 0-4-1-9-2-15-2-5-2-10-2-13 1-17 11-30 33-37 21-8 54-11 99-9 11 0 22 1 34 2 13 2 28 5 45 7z"/><path d="m19498 8907c-33-33-77-65-131-95-54-30-84-48-90-52-14-12-29-33-46-63-17-29-25-51-24-64 1-20 13-39 36-58 22-18 42-27 58-26 11 0 23 10 34 28 11 18 21 31 28 38 16 14 40 25 74 34 32 9 71 15 116 17 12 1 21 0 26-4 4-3 7-11 8-23 1-15 4-27 9-35 6-8 13-12 23-11 15 0 30 12 44 35 15 22 22 46 22 71 0 17 4 34 12 51 8 17 12 29 11 34 0 13-7 23-21 28-13 6-34 8-60 6-24-1-52-6-85-14-33-8-80-23-139-43 9 5 21 13 36 23 70 43 114 75 131 94 12-3 23-5 35-7 11-1 23-1 36-1 27 2 51 7 72 15 20 9 35 20 43 33 16 25 28 46 37 64 10 17 14 28 14 32-1 14-13 27-38 39-25 12-45 18-59 17-3 0-16-8-40-23-23-14-44-22-62-23-11-1-23 5-37 16-13 11-30 16-50 15-10-1-17-2-22-4-5-2-10-5-14-9-4-5-10-18-17-42-7-23-11-38-10-45 0-8 4-17 11-26 8-9 18-16 29-22zm-29 328c0-5 3-9 7-12 5-3 11-4 17-4 2 0 31 11 87 33 55 21 112 42 169 61 24 8 50 16 76 22 26 6 39 9 41 10 15 5 30 20 44 45 2 3 3 5 4 6 8 12 18 28 32 48 24 35 35 57 35 67-1 8-4 15-10 18-6 4-15 6-26 5-30-2-80-19-149-51-69-32-157-79-265-142-14-7-28-25-42-52-14-28-21-46-20-54zm-312-90c1-10 13-22 37-38 24-16 43-23 59-22 22 2 45 18 71 48 25 30 37 57 35 82-1 20-11 33-30 41-18 8-46 11-84 8-18-1-35-18-50-52-4-8-7-13-8-16-2-2-4-6-8-10-15-18-23-32-22-41z"/><path d="m18457 7929c29-8 20-12 43-12 45 0 95 65 95 119v12c0 86-197 168-287 168-6 0-22-17-30-25l-23-179v-95c0-25 35-84 64-84h64c46 0 59 59 74 96z"/><path d="m18482 10744c29-8 20-12 43-12 45 0 96 65 96 120v12c0 85-197 167-288 167-6 0-22-17-30-24l-23-179v-96c0-24 35-84 64-84h64c46 0 59 60 74 96z"/><path d="m12868 2604l43-12c30 18 95 48 95 96v24c0 132-185 164-288 193l-30-26v-24c0-49-22-75-22-143v-84c0-62 27-120 75-120h53c37 0 67 58 74 96z"/><path d="m13270 3173c13-8 11-12 32-12 49 0 106 47 106 108v24c0 86-197 167-287 167-40 0-53-117-53-167v-120c0-46 41-107 74-107h32c61 0 84 51 96 107z"/><path d="m12366 3137v48c13-8 12-12 32-12h32c31 0 85 71 85 108 0 136-214 152-288 193l-31-26c-1-65-21-84-21-155v-120c0-43 29-95 64-95h53c27 0 49 40 74 59z"/><path d="m16917 3508c13-8 11-12 31-12 50 0 107 47 107 108 0 119-194 182-298 191-20-43-42-125-42-191v-96c0-46 40-107 74-107h32c73 0 73 53 96 107z"/><path d="m15407 3520l42-24c50 27 107 40 107 120 0 136-223 151-296 189l-23-22c-2-65-21-84-21-155v-120c0-43 29-95 63-95h64c42 0 63 56 64 107z"/></g></g><use xlink:href="#2"/><use xlink:href="#2"/><use xlink:href="#2"/><g fill="#201e1e"><g stroke="#201e1e"><g stroke-width="7.62"><path d="m16450 6388c28-7 20-12 42-12 45 0 96 66 96 120v12c0 86-197 167-287 167-7 0-22-16-31-24l-22-179v-96c0-24 34-83 63-83h64c46 0 59 59 75 95z"/><path d="m17647 6885c28-8 20-12 42-12 45 0 96 65 96 120v12c0 86-197 167-287 167-6 0-22-16-31-24l-22-179v-96c0-24 34-84 64-84h63c46 0 59 60 75 96z"/><path d="m17243 6163c28-7 20-12 42-12 45 0 96 66 96 120v12c0 86-197 167-287 167-7 0-22-16-31-24l-22-179v-96c0-24 34-83 63-83h64c46 0 59 59 75 95z"/><path d="m15116 6107c29-8 20-12 43-12 45 0 96 65 96 120v12c0 85-197 167-287 167-7 0-22-16-31-24l-23-179v-96c0-24 35-84 64-84h64c46 0 59 60 74 96z"/><path d="m13383 6543c29-8 20-12 43-12 45 0 96 65 96 120v12c0 86-197 167-288 167-6 0-22-16-30-24l-23-179v-96c0-24 35-84 64-84h64c46 0 59 60 74 96z"/><path d="m13930 7312c28-8 20-12 42-12 45 0 96 65 96 120v12c0 85-197 167-287 167-6 0-22-16-31-24l-22-179v-96c0-24 34-84 63-84h64c46 0 59 60 75 96z"/><path d="m15606 6924c28-8 20-12 42-12 45 0 96 65 96 119v12c0 86-197 168-287 168-6 0-22-17-31-24l-22-180v-95c0-25 34-84 64-84h63c46 0 59 59 75 96z"/><path d="m19379 15305c28-8 20-12 42-12 46 0 96 65 96 120v12c0 85-197 167-287 167-6 0-22-16-31-24l-22-179v-96c0-24 34-84 64-84h63c46 0 59 60 75 96z"/><path d="m19345 17499c28-8 20-12 42-12 45 0 96 65 96 119v12c0 86-197 168-287 168-7 0-22-17-31-24l-22-180v-95c0-25 34-84 63-84h64c46 0 59 59 75 96z"/><path d="m18706 18525c29-8 20-12 43-12 45 0 95 65 95 120v11c0 86-197 168-287 168-6 0-22-17-30-24l-23-179v-96c0-25 35-84 64-84h64c46 0 59 60 74 96z"/><path d="m18941 19798c28-7 20-12 42-12 45 0 96 66 96 120v12c0 86-197 167-287 167-6 0-22-16-31-24l-22-179v-96c0-24 34-83 64-83h63c46 0 59 59 75 95z"/><path d="m17935 16401c29-8 20-12 43-12 45 0 95 65 95 120v12c0 86-197 167-287 167-6 0-22-16-30-24l-23-179v-96c0-24 35-84 64-84h64c46 0 59 60 74 96z"/><path d="m16930 13004c28-8 20-12 42-12 45 0 96 65 96 119v12c0 86-197 168-287 168-6 0-22-17-31-24l-22-180v-95c0-25 34-84 63-84h64c46 0 59 59 75 96z"/><path d="m17174 11065c28-8 20-12 42-12 45 0 96 65 96 120v12c0 85-197 167-287 167-7 0-22-16-31-24l-22-179v-96c0-24 34-84 63-84h64c46 0 59 60 75 96z"/><path d="m15629 14211c29-8 21-12 43-12 45 0 96 65 96 120v12c0 86-197 167-287 167-7 0-22-16-31-24l-23-179v-96c0-24 35-84 64-84h64c46 0 59 60 74 96z"/><path d="m16365 15575c29-8 20-12 43-12 45 0 96 65 96 119v12c0 86-197 168-287 168-7 0-22-17-31-24l-23-179v-96c0-25 35-84 64-84h64c46 0 59 59 74 96z"/><path d="m17045 17721c29-7 20-12 43-12 45 0 95 66 95 120v12c0 86-197 167-287 167-6 0-22-16-30-24l-23-179v-96c0-24 35-83 64-83h64c46 0 59 59 74 95z"/><path d="m15468 12018c28-8 20-12 42-12 45 0 96 65 96 119v12c0 86-197 168-287 168-6 0-22-17-31-25l-22-179v-95c0-25 34-84 64-84h63c46 0 59 59 75 96z"/><path d="m17868 14361c28-8 20-12 42-12 45 0 96 65 96 119v12c0 86-197 168-287 168-7 0-22-17-31-25l-22-179v-95c0-25 34-84 63-84h64c46 0 59 59 75 96z"/><path d="m15598 18046c28-8 20-12 42-12 45 0 96 65 96 120v12c0 86-197 167-287 167-7 0-22-16-31-24l-22-179v-96c0-24 34-84 63-84h64c46 0 59 60 75 96z"/><path d="m19344 13406c28-8 20-12 42-12 46 0 96 65 96 119v12c0 86-197 168-287 168-6 0-22-17-31-24l-22-180v-95c0-25 34-84 64-84h63c46 0 59 59 75 96z"/><path d="m18277 12397c29-8 20-12 43-12 45 0 95 65 95 120v12c0 85-197 167-287 167-6 0-22-17-30-24l-23-179v-96c0-24 35-84 64-84h64c46 0 59 60 74 96z"/><path d="m19464 11784c28-7 20-12 42-12 45 0 96 66 96 120v12c0 86-197 167-287 167-7 0-22-16-31-24l-22-179v-96c0-24 34-83 63-83h64c46 0 59 59 75 95z"/><path d="m17545 7852c29-8 20-12 43-12 45 0 95 65 95 119v12c0 86-197 168-287 168-6 0-22-17-30-24l-23-180v-95c0-25 34-84 64-84h64c45 0 59 59 74 96z"/><path d="m16358 9772c29-8 20-12 43-12 45 0 96 65 96 119v12c0 86-197 168-288 168-6 0-22-17-30-25l-23-179v-95c0-25 35-84 64-84h64c46 0 59 59 74 96z"/><path d="m17682 9224c28-7 20-12 42-12 46 0 96 66 96 120v12c0 86-197 167-287 167-6 0-22-16-31-24l-22-179v-96c0-24 34-83 64-83h63c46 0 59 59 75 95z"/><path d="m15307 8582c29-8 20-12 43-12 45 0 95 65 95 119v12c0 86-197 168-287 168-6 0-22-17-30-24l-23-179v-96c0-25 35-84 64-84h64c46 0 59 59 74 96z"/><path d="m16393 7890c29-8 20-12 43-12 45 0 96 65 96 120v12c0 86-197 167-287 167-7 0-22-16-31-24l-23-179v-96c0-24 35-84 64-84h64c46 0 59 60 74 96z"/><path d="m15618 5478c29-7 20-12 43-12 45 0 95 66 95 120v12c0 86-197 167-287 167-6 0-22-16-30-24l-23-179v-96c0-24 35-83 64-83h64c45 0 59 59 74 95z"/><path d="m14514 4471c29-8 20-12 43-12 45 0 96 65 96 119v12c0 86-197 168-287 168-7 0-22-17-31-24l-23-179v-96c0-25 35-84 64-84h64c46 0 59 59 74 96z"/><path d="m15869 4850c28-8 20-12 42-12 46 0 96 65 96 119v12c0 86-197 168-287 168-6 0-22-17-30-24l-23-180v-95c0-25 34-84 64-84h64c45 0 58 59 74 96z"/><path d="m15208 4619c28-8 20-12 42-12 45 0 96 65 96 120v11c0 86-197 168-287 168-7 0-22-17-31-24l-22-179v-96c0-25 34-84 63-84h64c46 0 59 59 75 96z"/><path d="m12834 3559l43 93c13-8 11-12 31-12 53 0 107 47 107 96v35c0 86-207 166-298 168-13-27-32-79-32-120v-24c0-122-30-135 33-236l62-12 54 12z"/><path d="m15981 3736h11c38 0 49 52 63 83h22 32c31 0 85 61 85 96v36c0 105-220 156-309 179-16-38-32-98-32-155v-156c0-44 17-58 33-81l52-14c15 8 18 12 43 12z"/><path d="m14004 3843c40 0 3 4 31-12 44 26 96 44 96 120v12c0 78-182 167-266 167-40 0-4-3-32 12-25-53-42-134-42-215v-72c0-47 40-107 74-107h53c55 0 63 95 86 95z"/><path d="m12175 3866l42 49v48c43-4 26-12 54-12 37 0 95 65 95 108 0 118-182 181-288 193l-29-26-23-179v-84c0-55 23-63 43-96h21l11-4 74 3z"/><path d="m13291 4262c13-8 12-12 32-12h11c52 0 95 48 95 108 0 136-192 163-297 191-17-38-32-98-32-156v-167c0-29 38-72 64-72h53c39 0 71 62 74 108z"/><path d="m16544 4441v24 36l54-24c35 21 95 47 95 108 0 156-211 156-297 203-21-43-43-125-43-191v-108c0-44 29-96 64-96h64c26 0 40 30 63 48z"/><path d="m17299 4480l43 45v48c28-8 20-12 42-12 46 0 107 63 107 96 0 146-178 174-289 205l-30-26c-2-65-22-84-22-155v-108c0-77 43-85 85-107l64 14z"/><path d="m11987 4825h22c52 0 95 49 95 108 0 130-196 164-297 191-17-35-32-90-32-143l-4-24 4-156c0-29 38-72 64-72h53c60 0 51 96 95 96z"/><path d="m12600 4803l43 45v48c28-8 20-12 42-12 49 0 107 57 107 108 0 114-188 182-289 193l-30-26c-2-65-22-84-22-156v-107c0-55 23-63 43-93l52-12 54 12z"/><path d="m13759 5063l43-12c34 19 95 42 95 96v24c0 102-178 179-266 179-40 0-3-3-31 12-17-38-32-98-32-155l2-13-13-83c6-28 11-35 11-72 0-17 23-52 32-71h21 64c37 0 66 58 74 95z"/><path d="m16991 5267v47c13-8 11-11 32-11h32c31 0 85 70 85 107 0 93-176 180-266 180-41 0-4-4-30 9l-23-21c-1-66-21-85-21-156v-119c0-44 29-96 63-96h43c57 0 53 34 85 60z"/><path d="m18192 5733c-43 103-76 129-184 163-33 10-116 40-131 13-7-13-25-125-25-152v-132c0-57 34-95 85-95h32c40 0 71 61 74 107 29-15-8-12 32-12h11c68 0 85 58 106 108z"/><path d="m13259 5805c0 61-69 114-113 136-53 25-136 35-174 55l-30-25c-3-64-23-83-23-154v-120c0-58 34-95 85-95h21c58 0 54 33 85 59v48c28-15-8-12 32-12h32c32 0 85 71 85 108z"/><path d="m11938 5865l3-48c0-29 38-72 64-72h53c39 0 71 62 74 108 28-16-8-12 32-12h11c52 0 96 48 96 107 0 134-194 165-298 192-16-38-32-98-32-156l-3-59v-60z"/><path d="m12271 7031c0 114-196 155-287 179l-31-25-1-22c0-50-22-76-22-144v-96c0-46 41-107 75-107h42c27 0 49 40 75 60v47c24-6 24-12 53-12 45 0 96 66 96 120z"/><path d="m14786 9864c0 113-195 155-287 179l-30-25-2-23c0-49-21-75-21-143v-96c0-47 41-108 74-108h43c27 0 49 41 74 60v48c24-6 25-12 54-12 45 0 95 65 95 120z"/><path d="m12645 9252c0 113-195 155-287 179l-30-26-1-22c0-49-22-75-22-143v-96c0-47 41-108 75-108h42c27 0 49 41 75 60v48c23-6 24-12 53-12 45 0 95 65 95 120z"/><path d="m13251 11261c0 113-196 155-287 179l-31-26-1-22c0-49-22-75-22-143v-96c0-47 41-108 75-108h42c27 0 49 41 75 60v48c24-6 24-12 53-12 45 0 96 65 96 120z"/><path d="m14048 13267c0 114-196 156-287 180l-31-26-1-22c0-50-21-75-21-144v-95c0-47 40-108 74-108h43c27 0 49 41 74 60v48c24-7 25-12 53-12 45 0 96 65 96 119z"/><path d="m14162 15688c0 114-196 156-287 180l-31-26-1-22c0-49-22-75-22-143v-96c0-47 41-108 75-108h42c27 0 49 41 75 60v48c24-6 24-12 53-12 45 0 96 65 96 119z"/><path d="m14253 17742c0 114-196 155-287 179l-31-25-1-22c0-50-21-76-21-144v-96c0-46 40-107 74-107h43c27 0 49 40 74 59v48c24-6 24-12 53-12 45 0 96 66 96 120z"/><path d="m12405 7933c0 113-195 155-287 179l-31-25-1-23c0-49-21-75-21-143v-96c0-47 40-108 74-108h43c27 0 49 41 74 60v48c24-6 25-12 53-12 46 0 96 65 96 120z"/></g><g font-family="&apos;Amazone BT&apos;" stroke-linejoin="round" stroke-linecap="round" stroke-width="50"><text x="10500" y="14850" font-size="846.67" transform="matrix(1.01464 0 0 1.03356 4051.2 9610.44)">00.00.0000</text><text x="10500" y="14850" font-size="1595.9" transform="matrix(1.01464 0 0 1.03356 2801.69 6252.58)">Texto 01</text><text x="10500" y="14850" font-size="1491.78" transform="matrix(1.01464 0 0 1.03356 3191.25 8239.24)">Texto 02</text></g></g><g font-family="&apos;Arial Black&apos;" font-weight="900" font-size="529.17"><text x="10500" y="14850" transform="matrix(1.01464 0 0 1.03356 5111.44 4477.48)">NN 1</text><text x="10500" y="14850" transform="matrix(1.01464 0 0 1.03356 5113.31 4986.47)">NN 2</text></g></g></g></g><path d="m14084 1612c2341-65 6091 1903 6099 6595 2 1254-472 5426-584 7081-135 1985-235 4811-276 6822-19 1741-410 2749-1161 3156-999 358-2037 464-3130 202-1130-297-1692-1222-1708-3092 42-2416 328-6597-116-8792-573-2843-1298-3215-1577-6639-168-2060-106-5262 2453-5333z" fill="none" stroke="#fff" stroke-width="7.62"/><g fill="#201e1e" font-family="&apos;Arial Black&apos;" font-weight="900" font-size="546.92"><text x="10500" y="14850" transform="matrix(.9817 0 0 1 5457.38 4975.86)">NN 1</text><text x="10500" y="14850" transform="matrix(.9817 0 0 1 5459.26 5484.86)">NN 2</text></g><g fill-rule="nonzero"><path d="m2206 7311c-22 11-39 19-51 24-12 5-20 7-24 6-5-1-10-8-16-21-5-12-14-40-26-81-76-50-175-113-296-189-211-132-314-212-309-241 2-9 6-15 13-20 8-4 17-5 27-3 8 1 20 5 38 12 17 7 31 12 39 14 14 5 30 10 48 14 18 5 29 8 34 10 23 8 82 41 178 99 95 58 177 105 245 143-16-117-59-219-131-304-71-86-152-137-244-153-91-17-173 9-245 78-71 68-118 167-140 295-14 80-17 154-8 223 9 69 26 119 53 150 9 11 22 24 38 38 19 16 27 31 25 46-2 11-8 21-17 29-9 9-18 12-27 11l-15-3c-17-3-30-6-37-10-8-4-16-9-22-16-14-16-28-40-42-72-14-32-28-70-40-113-19-71-31-139-36-205-4-65-1-129 10-190 26-151 86-267 181-348 95-82 204-111 327-89 103 19 191 60 263 126 72 65 123 147 151 246 3 11 9 52 19 124 9 72 22 138 38 197 80 51 133 83 161 99 28 15 49 24 62 26 4 1 11 0 19-2 7-2 13-3 16-3 7 1 13 7 17 15 3 9 7 27 10 52 1 18 5 38 11 62 6 24 8 39 7 46-2 10-6 17-13 22-7 5-15 7-25 5-9-1-31-12-66-31-35-20-102-59-200-118m-138-1159c34 51 74 96 119 137 45 40 82 65 112 77 15 5 27 6 38 3 10-3 17-9 21-20 7-21 0-56-24-103-23-48-57-91-100-130-25 18-52 30-81 37-30 6-58 6-85-1m-99-22c-13-8-22-27-27-56-6-29-7-50-2-63 6-16 31-33 74-49 43-17 83-18 119-5 7 3 14 6 23 11 9 5 19 11 31 18 43 16 81 38 111 65 30 28 57 63 78 105 28 54 46 110 53 168 8 58 5 108-10 148-13 38-36 65-67 80-32 15-62 18-92 7-73-28-137-81-191-160-54-79-88-169-100-269m465-523c18 45 45 92 84 141 38 49 59 77 63 83 8 17 15 42 19 76 4 34 3 57-3 69-9 18-27 31-55 39-28 8-49 8-64 1-10-5-17-18-20-39-4-22-8-37-12-47-9-18-27-39-54-60-27-22-61-42-101-62-11-6-19-8-25-7-6 1-11 7-16 18-7 14-14 24-23 29-8 5-16 5-24 1-14-7-24-23-28-50-5-26-2-51 7-74 7-16 10-33 9-52-1-19 0-31 2-36 6-12 16-17 30-17 15 0 34 6 59 18 21 11 45 27 72 47 28 21 65 53 112 95-6-8-15-20-25-35-48-68-76-114-85-139-12-2-23-4-34-8-11-3-22-8-34-13-24-12-44-27-60-43-15-16-25-31-28-47-4-29-7-53-9-73-2-20-2-32 0-36 6-12 22-19 49-20 28-1 48 1 61 7 3 2 12 14 28 37 16 23 33 38 49 47 10 4 23 4 40 0 16-5 34-3 52 6 8 4 15 8 19 12 4 4 7 8 8 14 3 6 3 21 1 45-3 25-6 40-8 46-4 7-11 13-21 19-11 5-22 8-35 8m361-842c20 58 47 112 80 163 33 51 63 85 89 104 13 9 25 13 35 13 11 0 19-4 26-13 13-19 14-55 3-107-10-52-32-102-63-152-29 12-58 16-88 15-30-2-58-9-82-23m-90-48c-10-11-14-31-12-61 1-29 6-50 14-61 10-14 38-24 84-28 46-5 85 4 117 27 5 4 12 9 19 16 7 7 16 16 25 26 38 27 68 58 91 92 22 34 39 75 48 122 14 59 17 118 9 176-7 58-23 105-47 141-23 33-51 53-86 59-34 7-64 1-89-18-64-45-113-114-145-205-32-90-42-186-28-286m552-200c-26-82-44-156-56-222-11-66-15-119-11-160-3-15-3-30 2-47 4-17 11-31 21-43 13-15 29-21 50-19 20 1 41 12 62 31 32 27 66 71 105 130 38 59 67 97 84 112 12 11 24 16 37 18 13 1 21 3 23 5 11 10 13 37 8 82-6 45-17 77-33 96-12 14-28 18-49 12-21-5-45-20-73-45-5-4-12-15-23-32-11-17-29-46-53-87-18-33-34-60-48-83-13-22-22-35-26-39-1-1-3-1-5-1-1 1-3 1-4 3-3 4-3 22 2 54 5 32 14 77 26 136 13 59 27 115 40 169 14 54 20 82 20 82 1 1-4 17-13 47-10 31-15 47-16 48-3 4-15 6-34 5-20 0-33-2-38-7-3-3-18-23-44-62-26-40-54-82-82-129-34-54-62-102-85-144-23-42-35-67-38-76 0-6 3-22 11-49 8-27 14-44 19-49 12-14 27-24 45-28 18-4 32-2 42 7 1 1 13 32 35 94 22 62 55 125 99 191m453-830c-13 77-14 152-4 225 11 73 29 125 55 156 9 11 19 18 29 19 9 2 19-2 29-10 33-29 45-76 36-142-9-66-37-128-84-185-9-11-19-22-28-32-10-10-21-21-33-31m-55-44c-58-34-112-59-160-75-50-17-93-23-130-21-26 1-55 9-88 23-33 14-53 17-60 8-8-10-3-34 14-71 17-38 35-65 53-80 19-17 49-29 89-37 40-8 81-10 125-5 58 7 112 25 163 55 51 29 98 70 140 121 34 41 62 87 84 139 22 51 37 107 47 168 4 24 2 64-7 122-1 8-2 15-3 19-6 47-18 91-36 131-19 41-38 70-59 88-29 25-60 36-93 31-32-4-61-21-87-53-11-13-26-40-44-80-19-41-31-73-35-96-10-47-7-106 9-176 15-70 41-140 78-211m559 17c22-54 33-109 32-164-1-56-11-100-32-131-6-9-12-16-19-19-6-2-12-2-17 2-27 18-38 59-32 122 5 63 28 126 68 190m50 43c18 9 38 13 59 11 20-2 39-9 57-21 22-15 40-37 53-66 14-29 22-44 25-46 7-5 14-7 21-6 7 1 12 5 16 11 12 18 5 51-21 100-26 49-53 84-83 104-13 9-38 22-75 39-38 17-66 32-84 44-23 16-49 17-79 4-30-14-57-39-82-77-20-29-35-73-45-131-10-58-11-113-5-167 8-61 24-118 48-172 24-55 47-90 71-106 20-14 42-17 65-9 23 8 44 27 63 56 13 20 22 43 26 69 0 2 1 4 1 5 2 9 7 21 14 37 7 16 11 28 13 37 10 43 9 90-1 141-10 51-29 99-57 143m763-532c-4 78-2 149 5 214 7 65 17 114 31 148 13 31 31 53 53 68 22 14 43 17 63 8 12-5 26-19 41-41 16-22 28-47 38-75 13-39 20-78 20-115 0-38-6-73-19-104-17-42-46-71-86-89-40-18-88-23-146-14m-134 22c-11 1-24 2-41 3-41 4-63 2-66-5-5-12-5-35 0-71 5-36 12-59 20-70 2-3 12-10 29-21 17-12 32-22 45-31-5-253 2-421 21-502 18-81 53-133 104-155 10-4 19-4 27 0 8 4 15 12 20 24 1 3 3 8 4 13 1 6 2 9 2 11 2 4 7 11 14 21 7 10 12 19 16 26 10 26 6 56-14 93-6 12-11 21-13 27-11 31-20 77-27 136-7 59-13 134-16 226 49-26 97-56 146-88 13-10 21-15 23-16 11-5 21-5 32-2 10 4 17 11 21 20 6 14 6 31 0 50-5 20-16 39-31 57-5 7-31 22-77 45-46 23-85 44-117 62 101-16 179-16 232 1 54 16 92 51 114 105 18 43 20 104 5 181-15 77-47 175-97 293-24 57-44 98-60 123-16 26-31 42-46 48-3 1-16 3-39 4-24 2-39 2-46 2-15-2-31-16-48-43-17-27-39-74-67-141-36-84-57-197-64-338-2-39-4-68-6-88m728-511c-17 59-27 119-29 180-2 60 2 106 12 137 5 15 12 26 21 32 9 6 18 8 28 4 22-8 43-35 65-84 21-48 33-102 36-161-30-8-56-22-80-41-23-19-41-41-53-67m-45-93c-2-15 7-34 26-56 18-23 34-37 47-41 16-6 44 3 84 27 40 24 66 55 79 92 2 6 4 14 6 24 1 10 3 22 5 36 15 45 22 88 20 129-1 42-12 84-31 128-23 56-55 105-94 148-40 43-80 71-120 85-37 13-72 12-103-3-31-15-52-38-62-68-26-75-25-159 1-252 26-93 73-176 142-249m708 56c-24 42-43 93-57 154-15 61-23 95-26 102-8 17-23 38-47 62-24 24-42 37-55 40-19 4-41-3-64-20-23-18-37-35-40-50-3-12 3-26 18-42 14-15 24-28 28-37 9-19 14-46 14-81 0-35-5-75-14-119-3-13-6-21-10-25-5-3-13-4-24-1-15 3-27 3-36-1-9-3-15-10-17-19-3-15 4-33 22-53 17-20 38-33 62-40 16-4 31-12 45-25 15-12 24-19 30-20 12-2 23 2 31 14 9 12 16 31 22 58 5 23 8 52 9 87 0 35-1 84-5 148 2-10 6-24 12-42 23-80 42-131 55-153-6-11-11-21-15-32-4-11-8-23-10-36-6-27-7-52-5-74 3-22 10-40 20-51 19-22 37-40 51-54 14-13 23-21 27-21 13-3 29 6 47 27 18 21 28 39 31 54 1 2-3 17-11 44-8 27-10 50-6 68 2 11 10 22 25 32 14 11 23 26 27 46 2 9 3 17 2 22 0 6-2 11-5 16-3 6-15 15-35 28-21 13-34 20-41 22-7 2-17 0-27-5-11-5-20-13-28-23m168 302c-8 1-20-5-34-17-14-13-22-27-24-41l-4-24c-4-22 8-50 37-84 29-35 50-53 64-55 15-3 31 5 48 25 16 19 28 47 34 81 2 15-11 36-39 65-28 28-55 45-82 50m355-40c-9 1-20-6-32-21-12-14-19-29-20-43l-1-24c-1-23 15-49 48-80 32-30 56-46 70-46 15-1 30 9 44 31 14 21 22 50 24 85 1 15-15 34-46 59-31 25-60 38-87 39m349-24c-8-1-17-10-26-27-9-17-12-33-9-47l4-24c4-22 25-44 64-66 38-22 64-32 78-30 15 3 27 17 36 41 9 24 11 54 5 88-3 15-22 30-58 47-36 17-67 23-94 18" fill="#fff"/><path d="m2206 7311c-22 11-39 19-51 24-12 5-20 7-24 6-5-1-10-8-16-21-5-12-14-40-26-81-76-50-175-113-296-189-211-132-314-212-309-241 2-9 6-15 13-20 8-4 17-5 27-3 8 1 20 5 38 12 17 7 31 12 39 14 14 5 30 10 48 14 18 5 29 8 34 10 23 8 82 41 178 99 95 58 177 105 245 143-16-117-59-219-131-304-71-86-152-137-244-153-91-17-173 9-245 78-71 68-118 167-140 295-14 80-17 154-8 223 9 69 26 119 53 150 9 11 22 24 38 38 19 16 27 31 25 46-2 11-8 21-17 29-9 9-18 12-27 11l-15-3c-17-3-30-6-37-10-8-4-16-9-22-16-14-16-28-40-42-72-14-32-28-70-40-113-19-71-31-139-36-205-4-65-1-129 10-190 26-151 86-267 181-348 95-82 204-111 327-89 103 19 191 60 263 126 72 65 123 147 151 246 3 11 9 52 19 124 9 72 22 138 38 197 80 51 133 83 161 99 28 15 49 24 62 26 4 1 11 0 19-2 7-2 13-3 16-3 7 1 13 7 17 15 3 9 7 27 10 52 1 18 5 38 11 62 6 24 8 39 7 46-2 10-6 17-13 22-7 5-15 7-25 5-9-1-31-12-66-31-35-20-102-59-200-118zm-138-1159c34 51 74 96 119 137 45 40 82 65 112 77 15 5 27 6 38 3 10-3 17-9 21-20 7-21 0-56-24-103-23-48-57-91-100-130-25 18-52 30-81 37-30 6-58 6-85-1zm-99-22c-13-8-22-27-27-56-6-29-7-50-2-63 6-16 31-33 74-49 43-17 83-18 119-5 7 3 14 6 23 11 9 5 19 11 31 18 43 16 81 38 111 65 30 28 57 63 78 105 28 54 46 110 53 168 8 58 5 108-10 148-13 38-36 65-67 80-32 15-62 18-92 7-73-28-137-81-191-160-54-79-88-169-100-269zm465-523c18 45 45 92 84 141 38 49 59 77 63 83 8 17 15 42 19 76 4 34 3 57-3 69-9 18-27 31-55 39-28 8-49 8-64 1-10-5-17-18-20-39-4-22-8-37-12-47-9-18-27-39-54-60-27-22-61-42-101-62-11-6-19-8-25-7-6 1-11 7-16 18-7 14-14 24-23 29-8 5-16 5-24 1-14-7-24-23-28-50-5-26-2-51 7-74 7-16 10-33 9-52-1-19 0-31 2-36 6-12 16-17 30-17 15 0 34 6 59 18 21 11 45 27 72 47 28 21 65 53 112 95-6-8-15-20-25-35-48-68-76-114-85-139-12-2-23-4-34-8-11-3-22-8-34-13-24-12-44-27-60-43-15-16-25-31-28-47-4-29-7-53-9-73-2-20-2-32 0-36 6-12 22-19 49-20 28-1 48 1 61 7 3 2 12 14 28 37 16 23 33 38 49 47 10 4 23 4 40 0 16-5 34-3 52 6 8 4 15 8 19 12 4 4 7 8 8 14 3 6 3 21 1 45-3 25-6 40-8 46-4 7-11 13-21 19-11 5-22 8-35 8zm361-842c20 58 47 112 80 163 33 51 63 85 89 104 13 9 25 13 35 13 11 0 19-4 26-13 13-19 14-55 3-107-10-52-32-102-63-152-29 12-58 16-88 15-30-2-58-9-82-23zm-90-48c-10-11-14-31-12-61 1-29 6-50 14-61 10-14 38-24 84-28 46-5 85 4 117 27 5 4 12 9 19 16 7 7 16 16 25 26 38 27 68 58 91 92 22 34 39 75 48 122 14 59 17 118 9 176-7 58-23 105-47 141-23 33-51 53-86 59-34 7-64 1-89-18-64-45-113-114-145-205-32-90-42-186-28-286zm552-200c-26-82-44-156-56-222-11-66-15-119-11-160-3-15-3-30 2-47 4-17 11-31 21-43 13-15 29-21 50-19 20 1 41 12 62 31 32 27 66 71 105 130 38 59 67 97 84 112 12 11 24 16 37 18 13 1 21 3 23 5 11 10 13 37 8 82-6 45-17 77-33 96-12 14-28 18-49 12-21-5-45-20-73-45-5-4-12-15-23-32-11-17-29-46-53-87-18-33-34-60-48-83-13-22-22-35-26-39-1-1-3-1-5-1-1 1-3 1-4 3-3 4-3 22 2 54 5 32 14 77 26 136 13 59 27 115 40 169 14 54 20 82 20 82 1 1-4 17-13 47-10 31-15 47-16 48-3 4-15 6-34 5-20 0-33-2-38-7-3-3-18-23-44-62-26-40-54-82-82-129-34-54-62-102-85-144-23-42-35-67-38-76 0-6 3-22 11-49 8-27 14-44 19-49 12-14 27-24 45-28 18-4 32-2 42 7 1 1 13 32 35 94 22 62 55 125 99 191zm453-830c-13 77-14 152-4 225 11 73 29 125 55 156 9 11 19 18 29 19 9 2 19-2 29-10 33-29 45-76 36-142-9-66-37-128-84-185-9-11-19-22-28-32-10-10-21-21-33-31zm-55-44c-58-34-112-59-160-75-50-17-93-23-130-21-26 1-55 9-88 23-33 14-53 17-60 8-8-10-3-34 14-71 17-38 35-65 53-80 19-17 49-29 89-37 40-8 81-10 125-5 58 7 112 25 163 55 51 29 98 70 140 121 34 41 62 87 84 139 22 51 37 107 47 168 4 24 2 64-7 122-1 8-2 15-3 19-6 47-18 91-36 131-19 41-38 70-59 88-29 25-60 36-93 31-32-4-61-21-87-53-11-13-26-40-44-80-19-41-31-73-35-96-10-47-7-106 9-176 15-70 41-140 78-211zm559 17c22-54 33-109 32-164-1-56-11-100-32-131-6-9-12-16-19-19-6-2-12-2-17 2-27 18-38 59-32 122 5 63 28 126 68 190zm50 43c18 9 38 13 59 11 20-2 39-9 57-21 22-15 40-37 53-66 14-29 22-44 25-46 7-5 14-7 21-6 7 1 12 5 16 11 12 18 5 51-21 100-26 49-53 84-83 104-13 9-38 22-75 39-38 17-66 32-84 44-23 16-49 17-79 4-30-14-57-39-82-77-20-29-35-73-45-131-10-58-11-113-5-167 8-61 24-118 48-172 24-55 47-90 71-106 20-14 42-17 65-9 23 8 44 27 63 56 13 20 22 43 26 69 0 2 1 4 1 5 2 9 7 21 14 37 7 16 11 28 13 37 10 43 9 90-1 141-10 51-29 99-57 143zm763-532c-4 78-2 149 5 214 7 65 17 114 31 148 13 31 31 53 53 68 22 14 43 17 63 8 12-5 26-19 41-41 16-22 28-47 38-75 13-39 20-78 20-115 0-38-6-73-19-104-17-42-46-71-86-89-40-18-88-23-146-14zm-134 22c-11 1-24 2-41 3-41 4-63 2-66-5-5-12-5-35 0-71 5-36 12-59 20-70 2-3 12-10 29-21 17-12 32-22 45-31-5-253 2-421 21-502 18-81 53-133 104-155 10-4 19-4 27 0 8 4 15 12 20 24 1 3 3 8 4 13 1 6 2 9 2 11 2 4 7 11 14 21 7 10 12 19 16 26 10 26 6 56-14 93-6 12-11 21-13 27-11 31-20 77-27 136-7 59-13 134-16 226 49-26 97-56 146-88 13-10 21-15 23-16 11-5 21-5 32-2 10 4 17 11 21 20 6 14 6 31 0 50-5 20-16 39-31 57-5 7-31 22-77 45-46 23-85 44-117 62 101-16 179-16 232 1 54 16 92 51 114 105 18 43 20 104 5 181-15 77-47 175-97 293-24 57-44 98-60 123-16 26-31 42-46 48-3 1-16 3-39 4-24 2-39 2-46 2-15-2-31-16-48-43-17-27-39-74-67-141-36-84-57-197-64-338-2-39-4-68-6-88zm728-511c-17 59-27 119-29 180-2 60 2 106 12 137 5 15 12 26 21 32 9 6 18 8 28 4 22-8 43-35 65-84 21-48 33-102 36-161-30-8-56-22-80-41-23-19-41-41-53-67zm-45-93c-2-15 7-34 26-56 18-23 34-37 47-41 16-6 44 3 84 27 40 24 66 55 79 92 2 6 4 14 6 24 1 10 3 22 5 36 15 45 22 88 20 129-1 42-12 84-31 128-23 56-55 105-94 148-40 43-80 71-120 85-37 13-72 12-103-3-31-15-52-38-62-68-26-75-25-159 1-252 26-93 73-176 142-249zm708 56c-24 42-43 93-57 154-15 61-23 95-26 102-8 17-23 38-47 62-24 24-42 37-55 40-19 4-41-3-64-20-23-18-37-35-40-50-3-12 3-26 18-42 14-15 24-28 28-37 9-19 14-46 14-81 0-35-5-75-14-119-3-13-6-21-10-25-5-3-13-4-24-1-15 3-27 3-36-1-9-3-15-10-17-19-3-15 4-33 22-53 17-20 38-33 62-40 16-4 31-12 45-25 15-12 24-19 30-20 12-2 23 2 31 14 9 12 16 31 22 58 5 23 8 52 9 87 0 35-1 84-5 148 2-10 6-24 12-42 23-80 42-131 55-153-6-11-11-21-15-32-4-11-8-23-10-36-6-27-7-52-5-74 3-22 10-40 20-51 19-22 37-40 51-54 14-13 23-21 27-21 13-3 29 6 47 27 18 21 28 39 31 54 1 2-3 17-11 44-8 27-10 50-6 68 2 11 10 22 25 32 14 11 23 26 27 46 2 9 3 17 2 22 0 6-2 11-5 16-3 6-15 15-35 28-21 13-34 20-41 22-7 2-17 0-27-5-11-5-20-13-28-23zm168 302c-8 1-20-5-34-17-14-13-22-27-24-41l-4-24c-4-22 8-50 37-84 29-35 50-53 64-55 15-3 31 5 48 25 16 19 28 47 34 81 2 15-11 36-39 65-28 28-55 45-82 50zm355-40c-9 1-20-6-32-21-12-14-19-29-20-43l-1-24c-1-23 15-49 48-80 32-30 56-46 70-46 15-1 30 9 44 31 14 21 22 50 24 85 1 15-15 34-46 59-31 25-60 38-87 39zm349-24c-8-1-17-10-26-27-9-17-12-33-9-47l4-24c4-22 25-44 64-66 38-22 64-32 78-30 15 3 27 17 36 41 9 24 11 54 5 88-3 15-22 30-58 47-36 17-67 23-94 18z" fill="none" stroke="#fff" stroke-linejoin="round" stroke-linecap="round" stroke-width="400"/></g><path d="m8313 2604l-42-12c-30 18-96 48-96 96v24c0 132 185 164 288 193l31-26v-24c0-49 21-75 21-143v-84c0-62-26-120-74-120h-53c-38 0-67 58-75 96z" fill="#201e1e" stroke="#201e1e" stroke-width="7.62"/><path d="m7011 1612c-2341-65-6091 1903-6098 6595-3 1254 471 5426 584 7081 135 1985 235 4811 276 6822 18 1741 410 2749 1160 3156 1000 358 2037 464 3130 202 1131-297 1692-1222 1708-3092-42-2416-327-6597 116-8792 573-2843 1298-3215 1577-6639 168-2060 107-5262-2453-5333" fill="#fff"/><g clip-path="url(#1)"><g><g fill="#201e1e" stroke="#201e1e"><g stroke-linejoin="round" stroke-linecap="round" stroke-width="50"><path d="m4809 22454c-42-36-81-73-115-111-35-37-66-75-92-114-50 3-92 23-125 60-34 37-51 80-51 131 0 45 13 82 41 109 28 27 65 40 112 40 41 0 81-10 121-29 40-20 76-49 109-86zm190 95c0-23-9-50-25-81-17-31-40-63-69-95-9 15-17 28-25 39-8 12-17 23-25 33 26 25 51 45 75 63 24 17 47 31 69 41zm-166-122c12-12 22-24 31-37 9-13 17-26 22-40-30-30-61-54-94-72-33-19-67-31-102-37 16 34 36 67 60 98 23 30 51 60 83 88zm-2 44c-47 48-95 84-143 106-48 23-99 34-153 34-59 0-108-18-147-54-39-35-58-79-58-132 0-61 24-114 72-159 47-45 108-71 181-77-15-27-26-53-33-80-8-26-11-52-11-78 0-70 24-128 73-174 49-45 112-68 188-68 17 0 33 1 48 4 16 2 31 7 47 12l-19 44c-18-8-35-15-52-20-16-4-31-7-45-7-49 0-87 17-115 50-27 32-41 77-41 135 0 31 4 61 11 92 7 30 18 61 32 92 41 10 81 26 120 48 39 22 77 50 113 84 7-19 12-38 15-58 4-19 6-39 6-60 0-8-1-21-3-40 0-3 0-5 0-7l233-8c33-1 58-5 77-12 19-7 33-18 45-34l6-2 3 5c-12 46-35 78-69 96-35 19-92 28-172 28-17 0-46-1-87-3-2 0-3 0-4 0-3 18-6 37-11 56-5 19-11 39-18 60 42 53 76 99 101 141 25 41 43 78 52 110l-3 6c-27 0-59-10-96-30-37-20-84-53-143-100z"/><g font-family="&apos;Amazone BT&apos;"><text x="10500" y="14850" font-size="1595.9" transform="matrix(1.01464 0 0 1.03356-8831.47 6252.58)">Texto 01</text><text x="10500" y="14850" font-size="1491.78" transform="matrix(1.01464 0 0 1.03356-8441.91 8239.24)">Texto 02</text><text x="10500" y="14850" font-size="846.67" transform="matrix(1.01464 0 0 1.03356-7471.41 9610.44)">00.00.0000</text></g></g><g stroke-width="7.62"><path d="m2241 19798c-29-7-20-12-43-12-45 0-95 66-95 120v12c0 86 197 167 287 167 6 0 22-16 30-24l23-179v-96c0-24-35-83-64-83h-64c-46 0-59 59-74 95z"/><path d="m1846 9112c-29-7-20-11-42-11-45 0-95 59-95 107v11c0 77 195 151 284 151 7 0 22-15 31-22l22-161v-86c0-22-34-75-63-75h-63c-46 0-59 53-74 86z"/><path d="m2699 10744c-28-8-20-12-42-12-45 0-96 65-96 120v12c0 85 197 167 287 167 6 0 22-17 31-24l22-179v-96c0-24-34-84-64-84h-63c-46 0-59 60-75 96z"/><path d="m1803 15305c-29-8-20-12-43-12-45 0-95 65-95 120v12c0 85 196 167 287 167 6 0 22-16 30-24l23-179v-96c0-24-35-84-64-84h-64c-46 0-59 60-74 96z"/><path d="m1837 17499c-29-8-20-12-43-12-45 0-95 65-95 119v12c0 86 197 168 287 168 6 0 22-17 30-24l23-180v-95c0-25-35-84-64-84h-64c-45 0-59 59-74 96z"/><path d="m2475 18525c-28-8-20-12-42-12-45 0-96 65-96 120v11c0 86 197 168 287 168 7 0 22-17 31-24l22-179v-96c0-25-34-84-63-84h-64c-46 0-59 60-75 96z"/><path d="m3246 16401c-28-8-20-12-42-12-45 0-96 65-96 120v12c0 86 197 167 287 167 7 0 22-16 31-24l22-179v-96c0-24-34-84-63-84h-64c-46 0-59 60-75 96z"/><path d="m4252 13004c-29-8-20-12-43-12-45 0-95 65-95 119v12c0 86 197 168 287 168 6 0 22-17 30-24l23-180v-95c0-25-35-84-64-84h-64c-46 0-59 59-74 96z"/><path d="m4008 11065c-29-8-20-12-43-12-45 0-95 65-95 120v12c0 85 197 167 287 167 6 0 22-16 30-24l23-179v-96c0-24-34-84-64-84h-64c-45 0-59 60-74 96z"/><path d="m5552 14211c-28-8-20-12-42-12-46 0-96 65-96 120v12c0 86 197 167 287 167 6 0 22-16 30-24l23-179v-96c0-24-34-84-64-84h-64c-45 0-58 60-74 96z"/><path d="m4816 15575c-28-8-20-12-42-12-46 0-96 65-96 119v12c0 86 197 168 287 168 6 0 22-17 31-24l22-179v-96c0-25-34-84-64-84h-63c-46 0-59 59-75 96z"/><path d="m4136 17721c-28-7-20-12-42-12-45 0-96 66-96 120v12c0 86 197 167 287 167 7 0 22-16 31-24l22-179v-96c0-24-34-83-63-83h-64c-46 0-59 59-75 95z"/><path d="m5714 12018c-29-8-20-12-43-12-45 0-95 65-95 119v12c0 86 197 168 287 168 6 0 22-17 30-25l23-179v-95c0-25-35-84-64-84h-64c-46 0-59 59-74 96z"/><path d="m3314 14361c-29-8-20-12-43-12-45 0-95 65-95 119v12c0 86 197 168 287 168 6 0 22-17 30-25l23-179v-95c0-25-35-84-64-84h-64c-45 0-59 59-74 96z"/><path d="m6162 18544c-28-8-20-12-42-12-45 0-96 65-96 120v12c0 86 197 167 287 167 6 0 22-16 31-24l22-179v-96c0-24-34-84-64-84h-63c-46 0-59 60-75 96z"/><path d="m1838 13406c-29-8-20-12-43-12-45 0-95 65-95 119v12c0 86 196 168 287 168 6 0 22-17 30-24l23-180v-95c0-25-35-84-64-84h-64c-46 0-59 59-74 96z"/><path d="m2904 12397c-28-8-20-12-42-12-45 0-96 65-96 120v12c0 85 197 167 287 167 7 0 22-17 31-24l22-179v-96c0-24-34-84-63-84h-64c-46 0-59 60-75 96z"/><path d="m1718 11784c-28-7-20-12-43-12-45 0-95 66-95 120v12c0 86 197 167 287 167 6 0 22-16 30-24l23-179v-96c0-24-34-83-64-83h-64c-45 0-58 59-74 95z"/><path d="m4823 9772c-28-8-20-12-42-12-45 0-96 65-96 119v12c0 86 197 168 287 168 6 0 22-17 31-25l22-179v-95c0-25-34-84-64-84h-63c-46 0-59 59-75 96z"/><path d="m3500 9224c-29-7-20-12-43-12-45 0-95 66-95 120v12c0 86 196 167 287 167 6 0 22-16 30-24l23-179v-96c0-24-35-83-64-83h-64c-46 0-59 59-74 95z"/><path d="m5874 8582c-28-8-20-12-42-12-45 0-96 65-96 119v12c0 86 197 168 287 168 7 0 22-17 31-24l22-179v-96c0-25-34-84-63-84h-64c-46 0-59 59-75 96z"/><path d="m6395 9864c0 113 196 155 287 179l31-25 1-23c0-49 22-75 22-143v-96c0-47-41-108-75-108h-42c-27 0-49 41-75 60v48c-24-6-24-12-53-12-45 0-96 65-96 120z"/><path d="m8536 9252c0 113 196 155 287 179l31-26 1-22c0-49 21-75 21-143v-96c0-47-40-108-74-108h-43c-27 0-49 41-74 60v48c-24-6-25-12-53-12-45 0-96 65-96 120z"/><path d="m7931 11261c0 113 196 155 287 179l31-26 1-22c0-49 21-75 21-143v-96c0-47-40-108-74-108h-43c-27 0-49 41-74 60v48c-24-6-25-12-53-12-46 0-96 65-96 120z"/><path d="m7134 13267c0 114 195 156 287 180l30-26 2-22c0-50 21-75 21-144v-95c0-47-41-108-75-108h-42c-27 0-49 41-75 60v48c-23-7-24-12-53-12-45 0-95 65-95 119z"/><path d="m7020 15688c0 114 196 156 287 180l31-26 1-22c0-49 21-75 21-143v-96c0-47-40-108-74-108h-43c-27 0-49 41-74 60v48c-24-6-25-12-53-12-46 0-96 65-96 119z"/><path d="m6929 17742c0 114 195 155 287 179l30-25 2-22c0-50 21-76 21-144v-96c0-46-41-107-75-107h-42c-27 0-49 40-74 59v48c-24-6-25-12-54-12-45 0-95 66-95 120z"/></g></g><g><g fill="#201e1e" stroke="#201e1e" stroke-width="7.62"><path d="m1747 7911c-28-7-20-11-42-11-45 0-95 59-95 107v11c0 77 195 151 285 151 6 0 21-15 30-22l22-161v-86c0-22-34-75-63-75h-63c-46 0-59 53-74 86z"/><path d="m2724 7929c-28-8-20-12-42-12-45 0-96 65-96 119v12c0 86 197 168 287 168 7 0 22-17 31-25l22-179v-95c0-25-34-84-63-84h-64c-46 0-59 59-75 96z"/><path d="m7912 3173c-13-8-12-12-32-12-50 0-107 47-107 108v24c0 86 197 167 287 167 41 0 54-117 54-167v-120c0-46-41-107-75-107h-32c-61 0-84 51-95 107z"/><path d="m8815 3137v48c-13-8-11-12-32-12h-31c-32 0-86 71-86 108 0 136 214 152 289 193l30-26c2-65 22-84 22-155v-120c0-43-30-95-64-95h-53c-27 0-49 40-75 59z"/><path d="m5775 3520l-43-24c-49 27-106 40-106 120 0 136 222 151 295 189l24-22c1-65 21-84 21-155v-120c0-43-29-95-64-95h-64c-41 0-62 56-63 107z"/></g><use xlink:href="#3"/><use xlink:href="#3"/><use xlink:href="#3"/><g fill="#201e1e" stroke="#201e1e" stroke-width="7.62"><path d="m4732 6388c-28-7-20-12-42-12-46 0-96 66-96 120v12c0 86 197 167 287 167 6 0 22-16 30-24l23-179v-96c0-24-34-83-64-83h-64c-45 0-58 59-74 95z"/><path d="m3535 6885c-29-8-20-12-43-12-45 0-95 65-95 120v12c0 86 197 167 287 167 6 0 22-16 30-24l23-179v-96c0-24-35-84-64-84h-64c-46 0-59 60-74 96z"/><path d="m3939 6163c-29-7-20-12-43-12-45 0-95 66-95 120v12c0 86 197 167 287 167 6 0 22-16 30-24l23-179v-96c0-24-34-83-64-83h-64c-45 0-58 59-74 95z"/><path d="m6065 6107c-28-8-20-12-42-12-46 0-96 65-96 120v12c0 85 197 167 287 167 6 0 22-16 31-24l22-179v-96c0-24-34-84-64-84h-63c-46 0-59 60-75 96z"/><path d="m7798 6543c-28-8-20-12-42-12-45 0-96 65-96 120v12c0 86 197 167 287 167 6 0 22-16 31-24l22-179v-96c0-24-34-84-64-84h-63c-46 0-59 60-75 96z"/><path d="m7252 7312c-29-8-20-12-43-12-45 0-95 65-95 120v12c0 85 197 167 287 167 6 0 22-16 30-24l23-179v-96c0-24-35-84-64-84h-64c-46 0-59 60-74 96z"/><path d="m5576 6924c-29-8-20-12-43-12-45 0-95 65-95 119v12c0 86 197 168 287 168 6 0 22-17 30-24l23-180v-95c0-25-35-84-64-84h-64c-46 0-59 59-74 96z"/><path d="m3637 7852c-29-8-20-12-43-12-45 0-96 65-96 119v12c0 86 197 168 287 168 7 0 22-17 31-24l23-180v-95c0-25-35-84-64-84h-64c-46 0-59 59-74 96z"/><path d="m4788 7890c-28-8-20-12-42-12-46 0-96 65-96 120v12c0 86 197 167 287 167 6 0 22-16 31-24l22-179v-96c0-24-34-84-64-84h-63c-46 0-59 60-75 96z"/><path d="m5563 5478c-28-7-20-12-42-12-45 0-96 66-96 120v12c0 86 197 167 287 167 7 0 22-16 31-24l22-179v-96c0-24-34-83-63-83h-64c-46 0-59 59-75 95z"/><path d="m6667 4471c-28-8-20-12-42-12-46 0-96 65-96 119v12c0 86 197 168 287 168 6 0 22-17 31-24l22-179v-96c0-25-34-84-64-84h-63c-46 0-59 59-75 96z"/><path d="m5313 4850c-29-8-20-12-43-12-45 0-96 65-96 119v12c0 86 197 168 287 168 7 0 23-17 31-24l23-180v-95c0-25-35-84-64-84h-64c-46 0-59 59-74 96z"/><path d="m5974 4619c-29-8-20-12-43-12-45 0-95 65-95 120v11c0 86 197 168 287 168 6 0 22-17 30-24l23-179v-96c0-25-35-84-64-84h-64c-45 0-59 59-74 96z"/><path d="m8348 3559l-43 93c-13-8-11-12-32-12-52 0-106 47-106 96v35c0 86 206 166 297 168 13-27 32-79 32-120v-24c0-122 30-135-32-236l-63-12-53 12z"/><path d="m5201 3736h-11c-38 0-49 52-64 83h-21-32c-31 0-85 61-85 96v36c0 105 219 156 308 179 17-38 32-98 32-155v-156c0-44-16-58-32-81l-53-14c-15 8-18 12-42 12z"/><path d="m7178 3843c-41 0-4 4-32-12-43 26-96 44-96 120v12c0 78 183 167 266 167 41 0 4-3 32 12 25-53 43-134 43-215v-72c0-47-41-107-75-107h-53c-55 0-62 95-85 95z"/><path d="m9007 3866l-43 49v48c-42-4-25-12-53-12-38 0-96 65-96 108 0 118 182 181 289 193l29-26 23-179v-84c0-55-23-63-43-96h-21l-11-4-74 3z"/><path d="m7890 4262c-13-8-11-12-32-12h-10c-53 0-96 48-96 108 0 136 193 163 298 191 16-38 32-98 32-156v-167c0-29-38-72-64-72h-53c-40 0-71 62-75 108z"/><path d="m4637 4441v24 36l-53-24c-36 21-96 47-96 108 0 156 211 156 298 203 20-43 42-125 42-191v-108c0-44-29-96-63-96h-64c-27 0-40 30-64 48z"/><path d="m3883 4480l-43 45v48c-29-8-20-12-43-12-45 0-106 63-106 96 0 146 177 174 288 205l31-26c1-65 21-84 21-155v-108c0-77-42-85-85-107l-63 14z"/><path d="m9194 4825h-21c-53 0-96 49-96 108 0 130 196 164 298 191 16-35 32-90 32-143l4-24-4-156c0-29-38-72-64-72h-53c-61 0-51 96-96 96z"/><path d="m8582 4803l-43 45v48c-29-8-20-12-43-12-48 0-106 57-106 108 0 114 188 182 288 193l31-26c1-65 21-84 21-156v-107c0-55-22-63-43-93l-52-12-53 12z"/><path d="m7423 5063l-43-12c-35 19-96 42-96 96v24c0 102 178 179 266 179 41 0 4-3 32 12 16-38 32-98 32-155l-3-13 14-83c-6-28-11-35-11-72 0-17-23-52-32-71h-21-64c-38 0-67 58-74 95z"/><path d="m4191 5267v47c-13-8-12-11-32-11h-32c-31 0-85 70-85 107 0 93 175 180 266 180 40 0 3-4 29 9l24-21c1-66 21-85 21-156v-119c0-44-29-96-64-96h-42c-58 0-54 34-85 60z"/><path d="m2989 5733c44 103 76 129 185 163 32 10 115 40 130 13 8-13 25-125 25-152v-132c0-57-33-95-85-95h-32c-39 0-71 61-74 107-28-15 9-12-32-12h-10c-69 0-85 58-107 108z"/><path d="m7922 5805c0 61 69 114 114 136 52 25 135 35 173 55l31-25c2-64 22-83 22-154v-120c0-58-33-95-85-95h-21c-57 0-53 33-85 59v48c-28-15 9-12-32-12h-32c-31 0-85 71-85 108z"/><path d="m9243 5865l-2-48c0-29-39-72-64-72h-53c-40 0-71 62-75 108-28-16 9-12-32-12h-10c-53 0-96 48-96 107 0 134 194 165 298 192 16-38 32-98 32-156l2-59v-60z"/><path d="m8911 7031c0 114 196 155 287 179l31-25 1-22c0-50 21-76 21-144v-96c0-46-40-107-74-107h-43c-27 0-49 40-74 60v47c-24-6-25-12-53-12-46 0-96 66-96 120z"/><path d="m8776 7933c0 113 196 155 288 179l30-25 1-23c0-49 22-75 22-143v-96c0-47-41-108-75-108h-42c-27 0-49 41-75 60v48c-24-6-24-12-53-12-45 0-96 65-96 120z"/></g></g><path d="m2206 7311c-22 11-39 19-51 24-12 5-20 7-24 6-5-1-10-8-15-21-6-12-15-40-27-81-76-50-175-113-296-189-211-132-314-212-309-241 2-9 6-15 14-20 7-4 16-5 26-3 8 1 21 5 38 12 18 7 31 12 39 14 14 5 30 10 48 14 18 5 29 8 34 10 23 8 82 41 178 99 95 58 177 105 245 143-16-117-59-219-131-304-71-86-152-137-244-153-91-17-173 9-244 78-72 68-119 167-141 295-14 80-17 154-8 223 9 69 26 119 53 150 9 11 22 24 38 37 19 17 28 32 25 47-2 11-8 21-17 29-9 9-18 12-27 11l-15-3c-17-3-30-7-37-10-8-4-16-9-22-16-14-16-28-40-42-72-14-32-27-70-40-113-19-71-31-139-36-205-4-65-1-129 10-191 26-150 86-267 181-348 95-81 204-110 327-88 103 19 191 60 263 126 72 65 123 147 151 246 3 11 9 52 19 124 9 72 22 138 39 197 79 51 132 83 160 98 28 16 49 25 62 27 4 1 11 0 19-2 8-2 13-3 16-3 7 1 13 7 17 15 4 9 7 27 10 52 1 18 5 38 11 62 6 24 8 39 7 46-2 10-6 17-13 22-7 5-15 7-25 5-8-1-31-12-66-31-35-20-102-59-200-118zm-138-1159c34 51 74 96 119 137 45 40 82 65 113 76 14 6 26 7 37 4 10-3 17-9 21-20 7-21 0-56-24-103-23-48-57-91-100-130-25 18-52 30-81 37-30 6-58 6-85-1zm-99-22c-13-8-22-27-27-56-6-29-7-50-2-63 6-16 31-33 74-49 43-17 83-18 119-5 7 2 14 6 23 11 9 4 19 11 31 18 44 16 81 38 111 65 30 28 57 63 78 105 28 54 46 110 53 168 8 58 5 108-10 148-13 38-36 65-67 80-31 15-62 17-91 7-74-28-138-81-192-160-54-79-88-169-100-269zm465-523c18 45 45 92 84 141 38 49 59 77 63 83 8 17 15 42 19 76 4 34 3 57-3 69-9 18-27 31-55 39-28 8-49 8-64 1-10-5-17-18-20-40-4-21-8-36-12-46-9-18-27-39-54-60-27-22-61-42-101-62-11-6-19-8-25-7-6 1-11 7-16 18-7 14-14 23-23 29-8 5-16 5-24 1-14-7-23-23-28-50-5-26-2-51 7-74 7-16 10-33 9-52-1-19 0-31 2-36 6-12 16-17 31-17 14 0 34 6 58 18 21 11 45 27 72 47 28 21 65 53 112 95-6-8-15-20-25-35-47-68-76-114-85-139-11-2-23-4-34-8-11-3-22-8-34-13-24-13-44-27-60-43-15-16-25-31-27-47-5-29-8-53-10-73-2-21-2-32 0-36 6-12 22-19 50-20 27-2 47 1 60 7 3 2 12 14 28 37 16 23 33 38 49 47 10 4 23 4 40 0 17-5 34-3 52 6 9 4 15 8 19 12 4 4 7 8 9 14 2 6 2 21 0 45-3 25-5 40-8 46-4 7-11 13-21 19-11 5-22 8-35 8zm361-842c20 58 47 112 80 163 33 50 63 85 89 104 13 9 25 13 35 13 11 0 19-4 26-14 13-18 14-54 3-106-10-52-31-102-63-152-29 12-58 16-88 15-30-2-57-9-82-23zm-90-48c-10-11-14-31-12-61 2-29 6-50 14-61 10-15 38-24 84-29 46-4 85 5 117 28 5 4 12 9 19 16 7 7 16 15 25 26 38 27 68 58 91 92 22 34 39 75 49 122 13 59 16 118 8 176-7 58-23 105-47 141-23 33-51 53-85 59-35 6-65 0-90-18-64-45-113-114-145-205-32-90-42-186-28-286zm552-201c-26-81-44-155-56-221-11-66-15-120-11-160-3-15-2-30 2-47 4-17 11-31 21-43 13-15 29-21 50-19 20 1 41 12 62 31 32 27 67 71 105 130 38 59 67 97 84 112 12 11 24 16 37 18 13 1 21 3 23 5 11 10 14 37 8 82-6 45-17 77-33 96-12 14-28 18-49 12-21-5-45-20-73-45-5-4-12-15-23-32-11-17-29-47-53-87-18-33-34-60-47-83-14-22-23-35-27-39-1-1-3-1-5-1-1 1-3 1-4 3-3 4-2 22 2 54 5 32 14 77 27 136 13 59 26 115 39 169 14 54 21 81 21 82 0 1-5 17-14 47-10 31-15 47-16 48-3 4-15 6-34 5-20 0-33-2-38-7-3-3-17-24-44-62-26-40-54-82-82-129-33-54-62-102-85-144-23-42-35-68-38-76 0-6 3-22 11-49 8-27 14-44 19-49 12-14 27-24 45-28 18-4 32-2 42 7 1 1 13 32 35 94 22 62 55 125 99 190zm453-829c-13 77-14 152-4 225 11 73 29 125 55 155 10 12 19 19 29 20 9 2 19-2 29-10 33-29 45-76 36-142-9-67-37-128-84-185-9-11-18-22-28-32-10-10-21-21-33-31zm-55-44c-58-34-112-59-160-75-49-17-93-23-130-21-26 1-55 9-88 23-33 14-53 17-60 8-8-10-3-34 14-71 17-38 35-65 53-80 19-17 49-29 89-37 40-9 82-10 125-5 58 6 112 25 163 54 51 30 98 70 140 122 34 41 62 87 84 139 22 51 37 107 47 168 4 24 2 64-6 122-2 8-3 15-4 19-6 47-18 91-36 131-18 41-38 70-59 88-29 25-60 36-92 31-33-4-62-22-88-53-11-13-25-40-44-80-19-41-30-73-35-96-10-47-7-106 9-176 15-70 41-141 78-211zm559 17c22-54 33-109 32-164 0-56-11-100-32-131-6-9-12-16-19-19-6-2-12-2-17 2-27 18-38 59-32 122 5 63 28 126 68 190zm50 43c19 9 38 13 59 11 20-2 39-9 58-22 21-14 39-36 52-65 14-29 22-44 25-46 7-5 14-7 21-6 7 1 12 5 16 11 12 18 5 51-21 100-26 49-53 84-83 104-13 9-38 22-75 39-37 17-65 32-84 44-23 16-49 17-79 4-30-14-57-39-82-77-20-30-35-73-45-131-10-58-11-114-5-167 8-61 24-118 48-172 24-55 48-90 71-106 20-14 42-17 65-9 23 8 44 27 63 55 13 21 22 44 26 70 1 2 1 4 1 5 2 9 7 21 14 37 7 16 12 28 13 37 10 43 9 90-1 141-10 51-29 99-57 143zm763-532c-4 78-2 149 5 214 7 64 17 114 31 147 13 31 31 54 53 69 22 14 43 17 63 8 12-5 26-19 41-41 16-22 28-47 38-75 13-39 20-78 20-115 0-38-6-73-19-104-17-42-46-71-86-89-39-18-88-23-146-14zm-134 22c-11 1-24 2-41 3-41 4-63 2-66-5-5-12-5-35 0-71 5-36 12-59 20-70 2-3 12-10 29-21 17-12 32-22 45-31-4-253 2-421 21-502 18-81 53-133 104-155 10-4 19-5 27 0 8 4 15 12 20 24 1 3 3 8 4 13 1 6 2 9 2 10 2 5 7 12 14 22 7 10 13 19 16 26 10 25 6 56-14 93-6 12-11 21-13 27-11 31-20 77-27 136-7 59-13 134-16 226 49-26 97-56 146-88 13-10 21-15 23-16 11-5 21-5 32-2 10 4 17 11 21 20 6 14 6 31 0 50-5 20-16 39-31 57-5 7-31 22-77 45-46 23-85 44-117 62 101-16 179-16 232 1 54 16 92 51 114 105 19 43 20 104 5 181-15 77-47 175-97 293-24 57-44 98-60 123-16 26-31 42-46 48-3 1-16 3-39 4-23 2-38 2-46 2-14-2-31-16-48-43-17-27-39-74-67-141-36-84-57-197-64-338-2-39-4-69-6-88zm728-511c-17 59-26 119-29 179-2 61 2 107 13 138 5 15 11 26 20 32 9 6 18 8 29 4 21-8 43-36 64-84 21-48 33-102 36-161-29-8-56-22-79-41-24-19-41-42-54-67zm-45-93c-2-15 7-34 26-57 18-22 34-36 47-40 16-6 44 3 84 27 40 24 66 55 79 92 2 6 4 14 6 24 2 10 4 22 5 36 15 45 22 88 20 129-1 41-12 84-31 128-23 56-54 105-94 148-40 43-80 71-120 85-37 13-72 12-103-3-31-15-52-38-62-68-26-75-25-160 1-252 26-93 73-176 142-249zm708 56c-24 41-43 93-57 154-14 61-23 95-26 102-8 17-23 37-47 61-24 25-42 38-54 41-20 4-41-3-65-20-23-18-37-35-40-51-3-11 3-25 18-41 14-16 24-28 28-38 9-18 14-45 14-80 0-35-5-75-14-120-3-12-6-20-10-24-5-3-13-4-24-2-15 4-27 4-36 0-9-3-15-10-17-19-3-15 4-33 22-53 17-20 38-33 62-40 16-4 31-12 46-25 14-12 23-19 29-20 12-3 23 2 32 14 9 12 16 31 21 58 5 23 8 52 9 87 0 35-1 84-5 148 2-10 6-24 12-42 23-80 42-131 55-153-6-11-11-22-15-32-4-11-7-23-10-36-6-27-7-52-4-74 2-23 9-40 19-51 20-22 37-40 51-54 14-13 24-21 27-22 13-2 29 7 47 28 18 21 28 39 31 54 1 2-3 17-11 44-8 27-10 50-6 68 2 11 11 22 25 32 14 11 23 26 27 46 2 9 3 17 2 22 0 6-2 11-5 16-3 6-15 15-35 28-21 13-34 20-41 22-7 1-16 0-27-5-11-5-20-13-28-23zm168 301c-8 2-20-4-33-16-14-13-23-27-25-41l-4-24c-4-22 8-50 37-84 29-35 51-53 64-55 15-3 31 5 48 25 16 19 28 47 34 81 2 15-11 36-39 65-28 28-55 45-82 49zm355-39c-9 1-20-6-32-21-12-14-19-29-19-43l-2-25c-1-22 15-48 48-79 32-30 56-46 70-46 15-1 30 9 44 31 14 21 22 50 24 85 1 15-15 34-46 59-31 25-60 38-87 39zm349-24c-8-1-17-11-26-27-8-17-12-33-9-47l4-24c4-22 25-44 64-66 38-22 65-32 78-30 15 3 28 17 37 41 8 24 10 53 4 88-3 15-22 30-58 47-35 17-67 23-94 18z" fill="#201e1e" stroke="#201e1e" stroke-width="7.62"/></g></g><path d="m7011 1612c-2341-65-6091 1903-6098 6595-3 1254 471 5426 584 7081 135 1985 235 4811 276 6822 18 1741 410 2749 1160 3156 1000 358 2037 464 3130 202 1131-297 1692-1222 1708-3092-42-2416-327-6597 116-8792 573-2843 1298-3215 1577-6639 168-2060 107-5262-2453-5333z" fill="none" stroke="#fff" stroke-width="7.62"/><g fill="#201e1e" font-family="&apos;Arial Black&apos;" font-weight="900" font-size="546.92"><text x="10500" y="14850" transform="matrix(.9817 0 0 1-6360.02 4975.86)">NN 1</text><text x="10500" y="14850" transform="matrix(.9817 0 0 1-6358.14 5484.86)">NN 2</text></g></svg>