<svg xmlns="http://www.w3.org/2000/svg" viewBox="0 0 500 707" shape-rendering="geometricPrecision" image-rendering="optimizeQuality" fill-rule="evenodd" clip-rule="evenodd" xmlns:xlink="http://www.w3.org/1999/xlink"><defs><path id="2" d="m348 145c1 0 1 0 1 0 1 0 2 1 2 2 0 2-4 4-6 4 0 0-1 0-1 0v-4-2c0-1 0-2 1-2h1c1 0 2 1 2 2z" fill="#201e1e" stroke="#201e1e" stroke-width=".181"/><path id="3" d="m154 145c0 0 0 0-1 0-1 0-2 1-2 2 0 2 4 4 6 4 1 0 1 0 1 0l1-4v-2c0-1-1-2-2-2h-1c-1 0-1 1-2 2z" fill="#201e1e" stroke="#201e1e" stroke-width=".181"/><clipPath id="0"><path d="m335 103c51-1 134 41 134 142 0 27-10 116-13 152-3 42-5 103-6 146 0 37-9 59-26 68-22 7-44 10-68 4-25-6-38-26-38-66 1-52 7-142-3-189-12-61-28-69-34-142-4-44-3-113 54-115"/></clipPath><clipPath id="1"><path d="m166 103c-52-1-134 41-135 142 0 27 11 116 13 152 3 42 5 103 6 146 1 37 9 59 26 68 22 7 45 10 69 4 25-6 37-26 37-66 0-52-7-142 3-189 13-61 29-69 35-142 3-44 2-113-54-115"/></clipPath></defs><g clip-path="url(#0)"><g><g fill="#201e1e" stroke="#201e1e"><path d="m387 550c-1 0-2-1-3-2-1-1-1-2-2-2-1 0-2 0-3 1-1 1-1 2-1 3 0 1 0 1 1 2 1 1 1 1 2 1 1 0 2 0 3-1 1 0 2-1 3-2zm4 3c0-1 0-2-1-2 0-1-1-2-1-2-1 0-1 0-1 1 0 1 1 1 1 2 1 0 1 0 2 1zm-4-3c0 0 1-1 1-1 0 0 0 0 0-1 0 0-1-1-2-1-1-1-1-1-2-1 0 1 1 1 1 2 1 1 1 1 2 2zm0 1c-1 1-2 2-3 2-1 1-2 1-3 1-2 0-3-1-4-1-1-1-1-2-1-3 0-1 1-3 2-4 1-1 2-1 4-1-1-1-1-1-1-2 0 0 0-1 0-2 0-1 0-2 1-3 1-1 3-2 4-2 1 0 1 0 1 0 1 0 1 0 1 1 0 0-1 0-1 0 0 0-1 0-1 0-1 0-2 0-3 1 0 1-1 2-1 3 0 1 1 1 1 2 0 1 0 1 0 2 1 0 2 0 3 1 1 0 2 1 3 2 0-1 0-1 0-2 0 0 0 0 0-1 0 0 0 0 0-1h5c1 0 1 0 2 0 0 0 0-1 1-1 0 1-1 2-2 2 0 0-2 1-3 1-1 0-1 0-2 0 0 0-1 0-1 1 0 0 0 1 0 1 1 1 2 2 2 3 1 1 1 2 1 2v1c0 0-1-1-2-1-1 0-2-1-3-2z" stroke-linejoin="round" stroke-linecap="round" stroke-width="1.19"/><g stroke-width=".181"><path d="m322 118c0 0 0 0 0-1-1 0-1 0-1 0v-1c0 0 0-1 1-2 0 0 1-1 1-1 0 0 1 0 1 1 0 0 1 0 1 1 0 1 0 1-1 2-1 0-1 1-2 1zm8-2c0 0 0 0-1 0 0-1 0-1 0-1v-1c0 0 0-1 1-1 1-1 1-1 2-1 0 0 0 0 1 0 0 1 0 1 0 2 0 0 0 1-1 1-1 1-1 1-2 1zm8 0c0 0-1 0-1 0 0-1 0-1 0-1v-1c0 0 0-1 1-1 1-1 2-1 2-1 0 0 1 0 1 1 0 0 0 1 0 1 0 1 0 1-1 2-1 0-2 0-2 0zm10-3c0 0 0 1 0 1 1 0 1 0 2-1 1 0 3-1 4-2 0-1 1-1 2-2 0-1 1-1 1-1 0 0 0-1 0-1-1 0-2 1-3 1-1 1-2 1-3 2-1 1-2 1-2 2-1 1-1 1-1 1zm5 0c-2 1-3 2-4 3-2 0-3 0-4 0 0 0-1 0-1-1 0 0 0-1 0-1 0-1 0-1 0-2 1 0 1-1 2-1 1-1 2-2 3-3 2-1 3-1 4-2 1 0 2 0 3 0 1 0 2-1 2 0 1 0 1 0 1 1 0 0 0 0 0 1 1 0 1 0 1 1 0 0-1 1-3 3-1 2-2 4-4 6 1-1 2-1 3-2 1-1 1-1 2-1 0 0 0 0 0 1 0 0-1 1-2 2-2 1-3 3-5 4 0 1-1 2-1 3-1 0-1 0-1 0 0 1 0 1 0 1h-1c0 0-1 0-1-1 0-2 2-6 5-10 1-1 1-1 1-2zm17 3c-2 1-3 1-4 2-1 1-1 1-2 1-1 0-1 0-1 0-1 1-1 1-2 1 0-1 0-1-1-1 0-1 0-2 0-2 0 0 1 0 1-1 0-1 1-1 1-2 1-1 2-3 3-3 0-1 1-2 1-2 0 0 1 0 1 0 0 0 0 0 1 0 0 0 1-1 1 0 0 0 1 0 1 1 0 0 0 0 0 1 0 0-1 0-2 2 0 0-1 1-1 1-1 1-2 2-2 2 0 0 0 0 0 1 1 0 2-1 4-3 1-1 2-2 3-2 0 0 0 0 1-1 1 0 1 0 1 0l1 1c0 0 0 1 0 2-1 0-1 1-2 2-1 1-1 2-1 3 0 0 0 1 0 1 0 0-1 0-1 1 0 0 0 0-1 1-1 0-1 0-2 0 0 0 0 0 0-1-1 0-1-1-1-1 0 0 1-1 2-2 0-1 0-2 1-2zm9 5c1 0 2 0 3-1 1 0 2-1 2-2 0-1 0-1 0-1-1 0-1 0-3 1-1 1-2 2-2 3zm0 2c0 0 0 1 0 1 0 0 1 1 1 1 1 0 1 0 2 0 1 0 1 0 1 0 0 1 0 1 0 1s-1 1-2 1c-1 0-2 0-3-1 0 0-1 0-1-1-1 0-2-1-2-1-1 0-1-1-1-1 0-1 0-2 1-3 0 0 0-1 1-2 1-1 2-1 3-2 2 0 3-1 4-1 1 0 2 0 3 0 0 0 1 1 1 1 0 1 0 1 0 2-1 1-1 1-1 1s0 0-1 0c0 1 0 1 0 1s0 1-1 1c0 0-1 1-2 1-1 1-2 1-3 1zm15 3c-1 1-2 1-4 2-1 1-1 1-1 1-1 0-1 0-2 0-1 0-1 0-2 0 0 0 0 0 0-1 0-1 0-1 0-1 0-1 0-1 1-1 0 0 0 0 1 0 0 0 1 0 1-1 1-1 1-1 2-2 0 0 0 0 0-1 0 0 0 0-1 0 0 0 0 0 0-1 0 0 0-1 1-1 1 0 1 0 2 1 0 0 0 0 1 0 1 0 1 0 1 1 0 0 0 1-1 1 0 0 0 1-1 2 0 0-1 1-2 2 0 0 0-1 1-1 1-1 2-1 3-1 0-1 0-1 0-1s0 0 0-1c1 0 1-1 1-1 1 0 1 0 1 0 1-1 2-1 2-1 1 0 1 0 1 1 0 0 0 0 0 1 0 0 0 1 0 1 0 0 0 0-1 0 0 1-1 1-1 1 0 1 0 1 0 1 0 1 0 1 0 1 0 1-1 1-1 1 0 0 0 0-1 0 0 0-1 0-1 0 0 0 0-1 0-1 0 0 0 0 0-1zm10 4c-1 1-2 1-3 2-1 0-2 1-3 2 0 1 0 1 0 1 1 0 2 0 3 0 1 0 2-1 3-1 0-1 0-1 0-2 0-1 0-1 0-2zm1-2c1 0 1 0 2 0 0 0 1 0 1 0 0 0 1 1 1 2 0 1-1 2-1 3-1 0-1 0-1 1-1 0-1 1-2 2-1 0-2 0-3 1-1 0-2 0-3 0-2-1-3-1-3-1-1-1-2-2-2-2 0-1 0-2 1-2 1-2 2-3 4-3 2-1 4-1 6-1zm16 15c0 0-1 0-1 0 0 0 0 1 0 1 0 0 0 1-1 2 0 1 0 2-1 3-1 0-2 1-3 1-2-1-3-1-4-2-1-1-1-2-2-2 0-1 0-1 1-2 0 0 0 0 1 0 1 0 2 0 2 0 0 0 0 1 0 2 0 1 0 1 0 1 0 1 1 1 1 1 0 0 0-1 0-1 1-1 1-2 2-3 0-1 0-2 0-2 1 0 1-1 1-1 1 0 1 0 2 0 1 0 2 0 3 0 1 1 1 1 2 1 0 0 0 1 0 1 0 0 0 1 0 1-1 0-1 1-2 1 0 0 0 0-1 0 0 0 0-1 0-1 0 0 0 0 0-1zm2 11c1 0 2 0 3 0 2 0 2 0 3-1 1-1 0-1 0-1 0 0-1-1-2 0-2 0-3 1-4 2zm-1 1c0 0 0 1 0 1 0 1 0 1 0 1 1 1 1 1 2 1 1 1 1 1 1 1v1c0 0-1 0-2-1-1 0-2-1-3-1 0 0 0-1-1-2 0-1 0-1-1-1 0-1 0-2 0-2 0-1 1-2 1-2 1-1 2-1 3-1 1-1 3-1 4-1 1 0 2 0 4 1 1 0 2 1 2 1 0 0 0 1 0 1 0 1 0 1-1 2 0 0-1 1-1 1 0 0-1 0-1 0 0 0-1 0-1 0-1 1-2 1-3 1-1 0-2-1-3-1zm12 10c-1 0-2 0-4 0-1 0-2 0-2 0 0 0-1 0-2-1 0 0-1 0-1 0 0-1 0-1 0-2 0 0 0-1 1-1 0 0 0 0 1 0 0 0 0 0 1 0 0 0 1 0 1 0 1 0 2-1 3-1 0 0 0 0 0-1 0 0 0-1 0-1 0 0 1 0 1 0 1 0 1 0 1 1 1 0 1 0 1 0 1 1 1 1 1 1s0 0 0 1c0 0-1 0-1 1 0 0-1 0-2 0 0 1-1 1-3 1 0 0 1 0 1 0 2 0 3 0 4 0 0 0 1-1 1-1 0 0 1 0 1 0 1-1 1-1 2 0 0 0 1 0 1 0 0 0 1 1 1 1 0 0 0 0-1 1 0 0 0 1 0 1 0 0-1 0-1 0-1 0-1 0-2 0 0 0 0 1 0 1 0 0-1 1-1 1 0 0-1 0-1 0 0 0 0 0-1 0 0-1 0-1 0-1s0 0 0-1zm12 14c0 0-1 0-1 0 0 1-1 1-2 2 0 1-1 2-2 2-1 1-2 1-3 0-2-1-3-2-3-3-1-1-1-2-1-2 0-1 0-1 1-2 0 0 1 0 2 0 1 1 1 1 1 1 0 1 0 1 0 2-1 1-1 1-1 1 0 1 0 1 0 1 1 0 1 0 1 0 1-1 2-2 3-3 0-1 1-1 1-2 0 0 1 0 1 0 1 0 1 0 2 1 1 0 1 0 2 1 1 1 2 1 2 1 0 1 0 1 0 1 0 1 0 1-1 1 0 0-1 1-1 1-1 0-1-1-1-1 0 0-1-1-1-1 0 0 1 0 1-1zm-2 11c1 0 2 1 3 1 2 0 3 0 3 0 1 0 1 0 1 0v-1c0 0-1-1-3-1-1 0-2 0-4 1zm-1 0c0 1-1 1-1 2 0 0 0 1 1 1 0 1 0 1 1 1 0 1 1 1 1 1 0 0 0 0 0 1 0 0-1 0-1 0 0 0-1 0-2-1-1-1-1-2-2-2 0-1 0-1 0-2 0-1 0-2 0-2-1-1-1-1 0-2 0 0 1-1 2-1 1 0 2-1 3 0 1 0 2 0 3 0 2 1 3 1 4 2 1 1 1 2 2 2 0 1 0 1 0 2-1 0-1 0-2 1 0 0-1 0-2 0 0 0 0 0-1 0-1 0-2 0-3-1-1 0-2-1-3-2zm8 15c-2-1-3-1-4-2-1 0-2-1-2-1-1 0-1-1-1-1-1 0-1-1-1-1 0 0 0-1 0-1 1-1 1-1 1-1 1 0 1 0 2 0 1 0 2 0 2 0 2 0 3 0 4 0 1 0 2 0 2 1 1 0 1 0 1 0 1 1 1 1 1 2 1 0 0 0 0 1 0 0-1 0-1 0 0 0-1 0-2 0h-1c0 0-1 0-2 0-1-1-2-1-2-1 0 0 0 0-1 0 0 1 0 1 0 1 1 0 2 1 5 2 1 0 2 0 3 1 0 0 1 0 1 0 0 1 1 1 1 1 0 1 0 1-1 1 0 0 0 1-1 1-1 0-2 0-3 0-1 0-2 0-3 0 0 0-1 1-1 1 0 0 0 0-1 0 0 0 0 0-1-1-1 0-1-1-1-1 0 0 0-1 0-1 0 0 1-1 1-1 0 0 1 0 3 0 0 0 1 0 2 0zm0 22c0 0 0 0 0 0 0 1 0 1 0 1v1c0 0 0 1 0 1 1 1 2 1 3 2 1 0 1 0 2 0 0 0 0 0 1 0 0 0 0-1 0-1 0 0-1-1-2-2-1-1-3-2-4-2zm0-4c2 0 3 1 4 1 1 0 2 0 2 0 1 0 1 0 1 0s-1-1-2-2c0 0-1-1-2-1-1-1-1-1-1-1 0-1 0-1 0-1 1 0 2 0 3 1 2 1 3 2 4 3 1 1 1 1 1 2 0 0 0 0 0 1 1 0 0 1 0 1 0 0-1 1-1 1-1 0-2-1-6-1 1 0 3 1 4 2 1 2 2 3 2 4 0 0 0 1-1 1 0 0-1 0-2 1-1 0-2 0-3-1-1 0-2-1-3-2 0 1 0 1 0 1-1 0-1 0-1-1 0 0 0-1-1-1-1-2-1-3-1-5h-1c-1-1-3-2-4-2-1 0-2 0-2 0-1 0-1 0-1 0s0 0-1 0c0 0 0-1 0-1 0 0-1-1-1-1 0-1 0-1 0-1 0-1 0-1 0-1 1 0 4 0 9 2 0-1 1-2 1-2 1 0 1 0 1 0 1 1 1 1 2 1 0 1 0 1 0 1s0 0 0 1zm0 18c0 1 0 1 1 2 1 1 2 2 3 3 1 1 1 1 2 2 1 0 1 0 2 0 0 0-1-1-1-2-1-1-2-2-3-3-1-1-1-1-2-2 0 0-1 0-1 0-1 0-1 0-1 0zm1 5c0-1-1-2-1-3-1 0-1-1-1-2-1 0-1-1-1-2 0-1 0-1 0-1 0-1 0-1 0-1 1 0 1-1 2-1 0 0 1 1 1 1 1 0 1 0 2 1 1 1 2 1 3 2 1 1 1 2 2 4 1 0 1 1 1 2 0 1 1 2 1 2 0 1-1 2-1 2 0 1-1 1-1 1 0 0-1 0-2 0 0 0-1-1-2-1-1 0-2-1-4-1-1 0-1 0-1 0-1 0-1 0-1 0-1 0-1 0-1 0 0-1 0-1 0-1s0 0 0-1c0 0 0-1 0-1 0 0 0 0 1 0 0-1 1-1 2-1 1 0 1 1 1 1z"/><path d="m454 260c-1-1-2-2-3-2-1-1-2-1-2-1 0-1-1-1-1-2 0 0-1-1-1-1 0 0 1-1 1-1 1-1 1-1 1-1 1 0 1 0 1 1 0 0 1 0 1 1 0 0 1 0 1 0 1 1 2 1 3 1 0 0 1 0 1 0 0 0 0-1 0-1 0 0 0 0 0-1 1 0 1 0 1 1 1 0 1 1 1 1 0 1 0 1 0 2 0 1 0 1 0 1h-1c-1 0-1 0-2 0-1 0-2-1-3-1 0 0 0 0 1 0 1 1 2 2 2 2 1 0 1 0 1 0h1c1 0 1 0 2 0 0 1 0 1 1 1 0 1 0 1 0 1 1 1 1 1 1 1l-1 1c-1 0-1 0-1 0-1 0-1 0-1 0-1 0-1-1-2-1 0 0 0 1-1 1 0 0 0 0-1 0-1 0-1-1-1-1 0-1 0-1 0-1s0 0 0-1c0 0 1 0 1 0zm-1 7c0 0 0 0 0 0h1c0 0 0 0 2 0 1 1 2 1 3 2 1 0 1 0 2 0 1 0 1 0 1 0l1 1c0 1 0 1 1 1 0 1 0 2 0 2-1 0-2 0-4-1-1 0-3-1-5-3-1 0-1 0-1-1-1-1-1-1-1-1zm-7-2c0 0 1 0 1-1 1 0 1 0 1 0 1 0 1 0 2 1 1 0 1 1 1 2 0 0 0 0-1 0 0 1-1 1-2 1 0 0-1-1-1-2-1-1-1-1-1-1z"/><path d="m431 239c1 0 0 0 1 0 1 0 2 1 2 2 0 2-4 4-6 4 0 0-1 0-1 0l-1-4v-2c0-1 1-2 2-2h1c1 0 2 1 2 2z"/><path d="m431 299c1 0 1 0 1 0 1 0 3 1 3 3 0 2-5 3-7 3l-1-4v-2c0 0 1-2 1-2h2c1 0 1 2 1 2z"/><path d="m308 125l1-1c0 1 2 1 2 2v1c0 3-4 4-6 4h-1v-1c0-1-1-2-1-3v-2c0-1 1-2 2-2h1c1 0 2 1 2 2z"/><path d="m317 137c0 0 0 0 0 0 2 0 3 1 3 2 0 2-5 4-7 4 0 0-1-2-1-4v-2c0-1 1-2 2-2h1c1 0 1 1 2 2z"/><path d="m297 136v1c0 0 0 0 1 0 1 0 2 1 2 2 0 3-5 3-6 4h-1c0-2 0-2 0-4v-2c0-1 0-2 1-2h1c1 0 1 1 2 1z"/><path d="m397 144c0 0 0 0 1 0 1 0 2 1 2 2 0 3-4 4-7 4 0-1 0-2 0-4v-2c0-1 0-2 1-2h1c2 0 1 1 2 2z"/><path d="m364 144h1c1 0 2 1 2 2 0 3-5 4-6 4h-1c0-1 0-2 0-3v-3c0-1 0-2 1-2h1c1 0 2 1 2 2z"/></g></g><use xlink:href="#2"/><use xlink:href="#2"/><use xlink:href="#2"/><g fill="#201e1e" stroke="#201e1e"><g stroke-width=".181"><path d="m387 206c0 0 0 0 1 0 1 0 2 1 2 2 0 2-5 4-7 4l-1-4v-2c0-1 1-2 2-2h1c1 0 1 1 2 2z"/><path d="m413 217c1-1 1-1 1-1 1 0 2 2 2 3 0 2-4 4-6 4 0 0-1-1-1-1v-4-2c0 0 0-2 1-2h1c1 0 2 2 2 3z"/><path d="m404 201c1 0 1 0 1 0 1 0 2 1 2 2v1c0 1-4 3-6 3 0 0-1 0-1 0v-4-2c0-1 0-2 1-2h2c1 0 1 1 1 2z"/><path d="m357 200c1 0 1 0 1 0 1 0 2 1 2 2 0 2-4 4-6 4 0 0 0 0-1-1v-3-2c0-1 1-2 1-2h2c1 0 1 1 1 2z"/><path d="m319 209c1 0 1 0 1 0 1 0 2 1 2 2v1c0 2-4 3-6 3 0 0-1 0-1 0v-4-2c0-1 1-2 1-2h2c1 0 1 1 1 2z"/><path d="m331 226c1 0 1-1 1-1 1 0 2 2 2 3 0 2-4 4-6 4 0 0-1-1-1-1v-4-2c0 0 1-1 1-1h2c1 0 1 1 1 2z"/><path d="m368 217c1 0 1 0 1 0 1 0 2 1 2 3 0 2-4 4-6 4 0 0-1-1-1-1v-4-2c0 0 0-2 1-2h2c1 0 1 2 1 2z"/><path d="m451 397c1 0 1 0 1 0 1 0 2 1 2 2v1c0 2-4 3-6 3 0 0-1 0-1 0v-4-2c0-1 1-2 1-2h2c1 0 1 1 1 2z"/><path d="m450 444c1 0 1 0 1 0 1 0 3 1 3 2v1c0 2-5 3-7 3l-1-4v-2c0-1 1-2 1-2h2c1 0 1 1 1 2z"/><path d="m436 466c1 0 1 0 1 0 1 0 2 1 2 2v1c0 2-4 3-6 3 0 0 0 0-1 0v-4-2c0-1 1-2 1-2h2c1 0 1 1 1 2z"/><path d="m442 494c0-1 0-1 1-1 1 0 2 2 2 3 0 2-5 4-7 4 0 0 0-1 0-1l-1-4v-2c0 0 1-2 2-2h1c1 0 1 2 2 3z"/><path d="m419 421c1-1 1-1 1-1 1 0 2 2 2 3 0 2-4 4-6 4 0 0 0-1-1-1v-4-2c0 0 1-1 1-1h2c1 0 1 1 1 2z"/><path d="m397 348c1 0 1 0 1 0 1 0 2 1 2 2 0 2-4 4-6 4 0 0 0 0-1-1v-3-2c0-1 1-2 1-2h2c1 0 1 1 1 2z"/><path d="m403 306c0 0 0 0 1 0 1 0 2 1 2 2v1c0 2-5 3-7 3l-1-4v-2c0-1 1-2 2-2h1c1 0 1 1 2 2z"/><path d="m369 374c0-1 0-1 1-1 1 0 2 2 2 3 0 2-5 4-7 4 0 0 0-1 0-1l-1-4v-2c0 0 1-1 2-1h1c1 0 1 1 2 2z"/><path d="m385 403c0 0 0 0 1 0 1 0 2 1 2 2 0 2-4 4-6 4-1 0-1 0-1 0l-1-4v-2c0-1 1-2 2-2h1c1 0 2 1 2 2z"/><path d="m400 449c0 0 0 0 1 0 1 0 2 1 2 2v1c0 1-4 3-6 3-1 0-1 0-1 0l-1-4v-2c0-1 1-2 2-2h1c1 0 1 1 2 2z"/><path d="m365 327c1-1 1-1 1-1 1 0 2 2 2 3 0 2-4 4-6 4 0 0-1-1-1-1v-4-2c0 0 0-1 1-1h1c1 0 2 1 2 2z"/><path d="m418 377c1 0 0 0 1 0 1 0 2 1 2 2 0 2-4 4-6 4 0 0-1 0-1 0l-1-4v-2c0-1 1-2 2-2h1c1 0 2 1 2 2z"/><path d="m368 456c1 0 0 0 1 0 1 0 2 1 2 2 0 2-4 4-6 4 0 0-1 0-1 0v-4-2c0-1 0-2 1-2h1c1 0 2 1 2 2z"/><path d="m450 356c1 0 1 0 1 0 1 0 2 2 2 3 0 2-4 4-6 4 0 0 0-1-1-1v-4-2c0 0 1-2 1-2h2c1 0 1 2 1 2z"/><path d="m427 335c1 0 0-1 1-1 1 0 2 2 2 3 0 2-4 4-6 4 0 0-1 0-1-1v-3-3c0 0 0-1 1-1h1c1 0 2 1 2 2z"/><path d="m453 322c1-1 1-1 1-1 1 0 2 2 2 3 0 2-4 4-6 4 0 0-1-1-1-1v-4-2c0 0 0-1 1-1h1c1 0 2 1 2 2z"/><path d="m411 237c0 0 0 0 1 0 1 0 2 1 2 3 0 2-4 3-6 3-1 0-1 0-1 0l-1-4v-2c0-1 1-2 2-2h1c1 0 1 1 2 2z"/><path d="m385 278c0 0 0 0 1 0 1 0 2 2 2 3 0 2-5 4-7 4 0 0 0-1 0-1l-1-4v-2c0 0 1-2 2-2h1c1 0 1 2 2 2z"/><path d="m414 267c0 0 0-1 1-1 1 0 2 2 2 3 0 2-4 4-6 4-1 0-1-1-1-1l-1-4v-2c0 0 1-1 2-1h1c1 0 2 1 2 2z"/><path d="m362 253c0 0 0 0 1 0 0 0 2 1 2 2 0 2-5 4-7 4l-1-4v-2c0-1 1-2 2-2h1c1 0 1 1 2 2z"/><path d="m385 238c1 0 1 0 1 0 1 0 3 1 3 2v1c0 1-5 3-7 3l-1-4v-2c0-1 1-2 1-2h2c1 0 1 1 1 2z"/><path d="m368 186c1 0 1 0 1 0 1 0 2 1 2 3 0 2-4 4-6 4 0 0 0-1-1-1v-4-2c0 0 1-2 1-2h2c1 0 1 2 1 2z"/><path d="m344 165c1 0 1-1 1-1 1 0 2 2 2 3 0 2-4 4-6 4 0 0-1 0-1-1v-3-3c0 0 0-1 1-1h1c1 0 2 1 2 2z"/><path d="m374 173c1 0 0 0 1 0 1 0 2 1 2 2 0 2-4 4-6 4 0 0-1 0-1 0l-1-4v-2c0-1 1-2 2-2h1c1 0 2 1 2 2z"/><path d="m359 168c1 0 1 0 1 0 1 0 2 1 2 2 0 2-4 4-6 4 0 0 0 0-1 0v-4-2c0-1 1-2 1-2h2c1 0 1 1 1 2z"/><path d="m307 145l1 2c0 0 0 0 1 0 1 0 2 1 2 2v1c0 2-4 3-6 3-1 0-1-1-1-2v-1c0-2-1-3 1-5h1 1z"/><path d="m376 149h1c0 0 1 1 1 2h1c1 0 2 1 2 2v1c0 2-5 3-7 3 0 0 0-2 0-3v-3c0-1 0-1 0-2h1c1 0 1 0 1 0z"/><path d="m333 151c1 0 0 0 1 0 1 1 2 1 2 3 0 2-4 3-6 3-1 0 0 0-1 1 0-1-1-3-1-5v-1c0-1 1-3 2-3h1c1 0 1 2 2 2z"/><path d="m293 152l1 1v1c0 0 0 0 1 0 1 0 2 1 2 2 0 2-4 4-7 4v-1l-1-3v-2c0-1 1-1 1-2h1 2z"/><path d="m317 160c0 0 0 0 1 0 1 0 2 1 2 2 0 3-4 4-6 4-1 0-1-2-1-3v-4c0 0 1-1 1-1h2c0 0 1 1 1 2z"/><path d="m389 164v1h1c1 0 2 1 2 2 0 4-5 4-6 5-1-1-1-3-1-5v-2c0-1 0-2 1-2h1c1 0 1 1 2 1z"/><path d="m405 165l1 1v1c1 0 1 0 1 0 1 0 3 1 3 2 0 3-4 3-7 4 0-2-1-2-1-4v-2c0-2 1-2 2-2h1z"/><path d="m288 172h1c1 0 2 1 2 3 0 2-4 3-7 4 0-1 0-2 0-3v-1-3c0-1 1-2 1-2h1c2 0 1 2 2 2z"/><path d="m302 172l1 1v1c1 0 0 0 1 0 1 0 2 1 2 2 0 2-4 4-6 4l-1-1c0-1 0-1 0-3v-2c0-1 0-1 1-2h1 1z"/><path d="m327 177h1c1 1 3 1 3 2v1c0 2-4 4-6 4-1 0 0 0-1 0 0-1-1-2-1-3v-1-2c0 0 0 0 0-1 0 0 1-1 1-2h2c1 0 1 2 1 2z"/><path d="m399 182v1c0 0 0 0 0 0h1c1 0 2 1 2 2 0 2-4 4-6 4-1 0 0 0-1 0v-1c0-1-1-1-1-3v-2c0-1 1-2 2-2h1c1 0 1 0 2 1z"/><path d="m425 192c-1 2-2 3-4 3-1 1-3 1-3 1 0-1 0-3 0-4v-2c0-2 0-3 1-3h1c1 0 2 2 2 3 0-1 0 0 1 0 1 0 2 1 2 2z"/><path d="m316 193c0 2-1 3-2 3-1 1-3 1-4 1h-1c0-1 0-2 0-3v-3c0-1 1-2 2-2 2 0 2 1 2 1v1c1 0 0 0 1 0h1c0 0 1 2 1 2z"/><path d="m287 195v-1c0-1 1-2 2-2h1c1 0 2 1 2 2h1c1 0 2 1 2 2 0 3-5 4-7 5 0-1-1-3-1-4v-1-1z"/><path d="m295 220c0 2-5 3-7 4v-1-1c0-1-1-1-1-3v-2c0-1 1-2 2-2h1c0 0 1 1 1 1v1c1 0 1 0 2 0 1 0 2 1 2 3z"/><path d="m350 280c0 3-4 4-6 4h-1v-1c0-1 0-1 0-3v-2c0-1 0-2 1-2h1c1 0 1 1 2 1v1c0 0 0 0 1 0 1 0 2 1 2 2z"/><path d="m303 267c0 3-4 4-6 4h-1v-1c0-1-1-2-1-3v-2c0-1 1-2 2-2h1c1 0 1 1 2 1v1c0 0 0 0 1 0 1 0 2 1 2 2z"/><path d="m316 310c0 3-4 4-6 4h-1v-1c0-1 0-1 0-3v-2c0-1 1-2 1-2h1c1 0 1 1 2 1v1c1 0 1 0 1 0 1 0 2 1 2 2z"/><path d="m334 353c0 3-4 4-6 4h-1v-1c0-1-1-1-1-3v-2c0-1 1-2 2-2h1c1 0 1 1 2 1v1c0 0 0 0 1 0 1 0 2 1 2 2z"/><path d="m336 405c0 3-4 4-6 4h-1v-1c0-1 0-1 0-3v-2c0-1 1-2 1-2h1c1 0 2 1 2 1v1c1 0 1 0 1 0 1 0 2 1 2 2z"/><path d="m338 449c0 3-4 4-6 4h-1v-1c0-1 0-1 0-3v-2c0-1 1-2 1-2h1c1 0 2 1 2 1v1c1 0 1 0 1 0 1 0 2 1 2 2z"/><path d="m298 239c0 2-5 3-7 4v-1c0-1-1-2-1-3v-2c0-1 1-3 2-3h1c0 0 1 1 1 2v1c1 0 1-1 2-1 1 0 2 2 2 3z"/></g><g font-family="&apos;Amazone BT&apos;" stroke-linejoin="round" stroke-linecap="round" stroke-width="1.19"><text x="250" y="354" font-size="20.16" transform="matrix(.93832 0 0 .93111 113.72 274.98)">00.00.0000</text><text x="250" y="354" font-size="37.998" transform="matrix(.93832 0 0 .93111 86.21 202.96)">Texto 01</text><text x="250" y="354" font-size="35.519" transform="matrix(.93832 0 0 .93111 94.79 245.57)">Texto 02</text></g></g></g></g><g clip-path="url(#1)"><g><g fill="#201e1e" stroke="#201e1e"><g stroke-linejoin="round" stroke-linecap="round" stroke-width="1.19"><path d="m117 550c-1 0-2-1-2-2-1-1-2-2-2-2-1 0-2 0-3 1-1 1-1 2-1 3 0 1 0 1 1 2 0 1 1 1 2 1 1 0 2 0 3-1 1 0 2-1 2-2zm4 3c0-1 0-2 0-2 0-1-1-2-2-2 0 0 0 0 0 1 0 0-1 0-1 0 1 1 1 1 2 2 0 0 1 0 1 1zm-3-3c0 0 0-1 0-1 1 0 1 0 1-1-1 0-1-1-2-1-1-1-2-1-2-1 0 1 0 1 1 2 0 1 1 1 2 2zm0 1c-1 1-2 2-3 2-1 1-3 1-4 1-1 0-2-1-3-1-1-1-1-2-1-3 0-1 0-3 1-4 1-1 3-1 4-1 0-1 0-1 0-2-1 0-1-1-1-2 0-1 1-2 2-3 1-1 2-2 4-2 0 0 1 0 1 0 0 0 1 0 1 1-1 0-1 0-1 0-1 0-1 0-1 0-1 0-2 0-3 1-1 1-1 2-1 3 0 1 0 1 0 2 1 1 1 1 1 2 1 0 2 0 3 1 1 0 1 1 2 2 0-1 0-1 1-2 0 0 0 0 0-1 0 0 0 0 0-1h5c0 0 1 0 1 0 1 0 1-1 1-1h1c-1 1-1 2-2 2-1 0-2 1-4 1 0 0-1 0-2 0 0 0 0 0 0 1 0 0 0 1 0 1 1 1 1 2 2 3 0 1 1 2 1 2v1c-1 0-1-1-2-1-1 0-2-1-3-2z"/><g font-family="&apos;Amazone BT&apos;"><text x="250" y="354" font-size="37.998" transform="matrix(.93832 0 0 .93111-183.09 202.96)">Texto 01</text><text x="250" y="354" font-size="35.519" transform="matrix(.93832 0 0 .93111-174.51 245.57)">Texto 02</text><text x="250" y="354" font-size="20.16" transform="matrix(.93832 0 0 .93111-153.14 274.98)">00.00.0000</text></g></g><g stroke-width=".181"><path d="m61 494c-1-1-1-1-1-1-1 0-2 2-2 3 0 2 4 4 6 4 0 0 0-1 1-1v-4-2c0 0-1-2-1-2h-2c-1 0-1 2-1 3z"/><path d="m52 264c-1 0 0 0-1 0-1 0-2 1-2 2v1c0 1 4 3 6 3 0 0 1-1 1-1v-3-2c0 0 0-2-1-2h-1c-1 0-2 2-2 2z"/><path d="m71 299c-1 0-1 0-1 0-1 0-2 1-2 3 0 2 4 3 6 3 0 0 1 0 1 0v-4-2c0 0-1-2-1-2h-2c-1 0-1 2-1 2z"/><path d="m51 397c-1 0 0 0-1 0-1 0-2 1-2 2v1c0 2 4 3 6 3 0 0 1 0 1 0l1-4v-2c0-1-1-2-2-2h-1c-1 0-2 1-2 2z"/><path d="m52 444c-1 0-1 0-1 0-1 0-2 1-2 2v1c0 2 4 3 6 3 0 0 1 0 1 0v-4-2c0-1 0-2-1-2h-2c-1 0-1 1-1 2z"/><path d="m66 466c-1 0-1 0-1 0-1 0-2 1-2 2v1c0 2 4 3 6 3 0 0 1 0 1 0v-4-2c0-1 0-2-1-2h-1c-1 0-2 1-2 2z"/><path d="m83 421c-1-1-1-1-1-1-1 0-2 2-2 3 0 2 4 4 6 4 0 0 1-1 1-1v-4-2c0 0 0-1-1-1h-2c-1 0-1 1-1 2z"/><path d="m105 348c-1 0 0 0-1 0-1 0-2 1-2 2 0 2 4 4 6 4 0 0 1 0 1-1v-3-2c0-1 0-2-1-2h-1c-1 0-2 1-2 2z"/><path d="m100 306c-1 0-1 0-1 0-1 0-2 1-2 2v1c0 2 4 3 6 3 0 0 0 0 1 0v-4-2c0-1-1-2-1-2h-2c-1 0-1 1-1 2z"/><path d="m134 374c-1-1-1-1-1-1-1 0-2 2-2 3 0 2 4 4 6 4 0 0 0-1 1-1v-4-2c0 0-1-1-1-1h-2c-1 0-1 1-1 2z"/><path d="m117 403c0 0 0 0-1 0-1 0-2 1-2 2 0 2 5 4 7 4l1-4v-2c0-1-1-2-2-2h-1c-1 0-1 1-2 2z"/><path d="m102 449c0 0 0 0 0 0-1 0-3 1-3 2v1c0 1 5 3 7 3l1-4v-2c0-1-1-2-2-2h-1c-1 0-1 1-2 2z"/><path d="m137 327c0-1 0-1-1-1-1 0-2 2-2 3 0 2 4 4 6 4 1 0 1-1 1-1l1-4v-2c0 0-1-1-2-1h-1c-1 0-1 1-2 2z"/><path d="m84 377c0 0 0 0-1 0-1 0-2 1-2 2 0 2 5 4 7 4l1-4v-2c0-1-1-2-2-2h-1c-1 0-1 1-2 2z"/><path d="m147 467c-1-1 0-1-1-1-1 0-2 2-2 3 0 2 4 4 6 4 0 0 1-1 1-1v-4-2c0 0 0-1-1-1h-1c-1 0-2 1-2 2z"/><path d="m52 356c-1 0-1 0-1 0-1 0-2 2-2 3 0 2 4 4 6 4 0 0 1-1 1-1v-4-2c0 0 0-2-1-2h-2c-1 0-1 2-1 2z"/><path d="m75 335c0 0 0-1-1-1-1 0-2 2-2 3 0 2 5 4 7 4 0 0 0 0 0-1l1-3v-3c0 0-1-1-2-1h-1c-1 0-1 1-2 2z"/><path d="m49 322c0-1 0-1-1-1-1 0-2 2-2 3 0 2 4 4 6 4 1 0 1-1 1-1l1-4v-2c0 0-1-1-2-1h-1c-1 0-1 1-2 2z"/><path d="m118 278c-1 0-1 0-1 0-1 0-2 2-2 3 0 2 4 4 6 4 0 0 0-1 1-1v-4-2c0 0-1-2-1-2h-2c-1 0-1 2-1 2z"/><path d="m88 267c0 0 0-1-1-1-1 0-2 2-2 3 0 2 5 4 7 4 0 0 0-1 0-1l1-4v-2c0 0-1-1-2-1h-1c-1 0-1 1-2 2z"/><path d="m141 253c-1 0-1 0-1 0-1 0-2 1-2 2 0 2 4 4 6 4 0 0 0 0 1 0v-4-2c0-1-1-2-1-2h-2c-1 0-1 1-1 2z"/><path d="m152 280c0 3 4 4 7 4v-1c0-1 1-1 1-3v-2c0-1-1-2-2-2h-1c0 0-1 1-2 1v1c0 0 0 0-1 0-1 0-2 1-2 2z"/><path d="m199 267c0 3 5 4 7 4v-1c0-1 1-2 1-3v-2c0-1-1-2-2-2h-1c0 0-1 1-1 1v1c-1 0-1 0-2 0-1 0-2 1-2 2z"/><path d="m186 310c0 3 4 4 6 4h1v-1c0-1 0-1 0-3v-2c0-1 0-2-1-2h-1c-1 0-1 1-2 1v1c0 0 0 0-1 0-1 0-2 1-2 2z"/><path d="m168 353c0 3 5 4 7 4v-1c0-1 1-1 1-3v-2c0-1-1-2-2-2h-1c0 0-1 1-1 1v1c-1 0-1 0-1 0-1 0-3 1-3 2z"/><path d="m166 405c0 3 4 4 6 4h1v-1c0-1 0-1 0-3v-2c0-1 0-2-1-2h-1c-1 0-1 1-2 1v1c0 0 0 0-1 0-1 0-2 1-2 2z"/><path d="m164 449c0 3 4 4 6 4h1v-1c0-1 0-1 0-3v-2c0-1 0-2-1-2h-1c-1 0-1 1-2 1v1c0 0 0 0-1 0-1 0-2 1-2 2z"/></g></g><g><g fill="#201e1e" stroke="#201e1e" stroke-width=".181"><path d="m50 239c-1-1-1-1-1-1-1 0-2 2-2 3 0 1 4 3 6 3 0 0 1 0 1 0v-4-2c0 0-1-1-1-1h-2c-1 0-1 1-1 2z"/><path d="m71 239c0 0 0 0-1 0-1 0-2 1-2 2 0 2 5 4 7 4l1-4v-2c0-1-1-2-2-2h-1c-1 0-1 1-2 2z"/><path d="m186 137c-1 0-1 0-1 0-1 0-2 1-2 2 0 2 4 4 6 4 1 0 1-2 1-4v-2c0-1-1-2-2-2-2 0-2 1-2 2z"/><path d="m205 136v1c0 0 0 0 0 0h-1c-1 0-2 1-2 2 0 3 5 3 7 4 0-2 1-2 1-4v-2c0-1-1-2-2-2h-1c0 0-1 1-2 1z"/><path d="m139 144h-1c-2 0-3 1-3 2 0 3 5 4 7 4 0-1 1-2 1-3v-3c0-1-1-2-2-2h-1c-1 0-1 1-1 2z"/></g><use xlink:href="#3"/><use xlink:href="#3"/><use xlink:href="#3"/><g fill="#201e1e" stroke="#201e1e" stroke-width=".181"><path d="m116 206c-1 0-1 0-1 0-1 0-2 1-2 2 0 2 4 4 6 4 0 0 0 0 1 0v-4-2c0-1-1-2-1-2h-2c-1 0-1 1-1 2z"/><path d="m89 217c0-1 0-1-1-1-1 0-2 2-2 3 0 2 4 4 6 4 1 0 1-1 1-1l1-4v-2c0 0-1-2-2-2h-1c-1 0-1 2-2 3z"/><path d="m98 201c-1 0 0 0-1 0-1 0-2 1-2 2v1c0 1 4 3 6 3 1 0 1 0 1 0l1-4v-2c0-1-1-2-2-2h-1c-1 0-2 1-2 2z"/><path d="m145 200c-1 0-1 0-1 0-1 0-2 1-2 2 0 2 4 4 6 4 0 0 1 0 1-1v-3-2c0-1 0-2-1-2h-1c-1 0-2 1-2 2z"/><path d="m183 209c-1 0 0 0-1 0-1 0-2 1-2 2v1c0 2 4 3 6 3 0 0 1 0 1 0l1-4v-2c0-1-1-2-2-2h-1c-1 0-2 1-2 2z"/><path d="m171 226c-1 0 0-1-1-1-1 0-2 2-2 3 0 2 4 4 6 4 0 0 1-1 1-1v-4-2c0 0 0-1-1-1h-1c-1 0-2 1-2 2z"/><path d="m134 217c0 0 0 0-1 0-1 0-2 1-2 3 0 2 4 4 6 4 1 0 1-1 1-1l1-4v-2c0 0-1-2-2-2h-1c-1 0-2 2-2 2z"/><path d="m91 237c0 0 0 0 0 0-1 0-3 1-3 3 0 2 5 3 7 3l1-4v-2c0-1-1-2-2-2h-1c-1 0-1 1-2 2z"/><path d="m117 238c-1 0-1 0-1 0-1 0-2 1-2 2v1c0 1 4 3 6 3 0 0 1 0 1 0v-4-2c0-1-1-2-1-2h-2c-1 0-1 1-1 2z"/><path d="m134 186c-1 0-1 0-1 0-1 0-2 1-2 3 0 2 4 4 6 4 0 0 1-1 1-1v-4-2c0 0 0-2-1-2h-1c-2 0-2 2-2 2z"/><path d="m158 165c0 0 0-1-1-1-1 0-2 2-2 3 0 2 4 4 6 4 1 0 1 0 1-1l1-3v-3c0 0-1-1-2-1h-1c-1 0-1 1-2 2z"/><path d="m128 173c0 0 0 0-1 0-1 0-2 1-2 2 0 2 5 4 7 4l1-4v-2c0-1-1-2-2-2h-1c-1 0-1 1-2 2z"/><path d="m143 168c-1 0-1 0-1 0-1 0-2 1-2 2 0 2 4 4 6 4 0 0 1 0 1 0v-4-2c0-1 0-2-1-2h-1c-1 0-2 1-2 2z"/><path d="m195 145l-1 2c0 0 0 0 0 0-2 0-3 1-3 2v1c0 2 5 3 7 3 0 0 0-1 0-2v-1c0-2 1-3 0-5h-2-1z"/><path d="m126 149c-1 0-1 1-2 2h-1c-1 0-2 1-2 2v1c0 2 5 3 7 3 0 0 1-2 1-3v-3c0-1-1-1-1-2h-1c-1 0-1 0-1 0z"/><path d="m169 151c0 0 0 0 0 0-1 1-2 1-2 3 0 2 4 3 5 3 1 0 1 0 1 1 1-1 1-3 1-5v-1c0-1-1-3-2-3h-1c-1 0-1 2-2 2z"/><path d="m210 152l-1 1v1c-1 0-1 0-1 0-1 0-3 1-3 2 0 2 4 4 7 4v-1l1-3v-2c0-1-1-1-1-2h-1-1z"/><path d="m185 160c0 0 0 0-1 0-1 0-2 1-2 2 0 3 4 4 7 4 0 0 0-2 0-3v-4c0 0-1-1-1-1h-1c-1 0-2 1-2 2z"/><path d="m113 164v1h-1c0 0-2 1-2 2 0 4 5 4 7 5 0-1 1-3 1-5v-2c0-1-1-2-2-2h-1c-1 0-1 1-2 1z"/><path d="m97 165l-1 1v1c-1 0-1 0-1 0-1 0-2 1-2 2 0 3 4 3 6 4h1c0-2 0-2 0-4v-2c0-2-1-2-2-2h-1z"/><path d="m214 172h-1c-1 0-2 1-2 3 0 2 5 3 7 4 0-1 0-2 0-3l1-1-1-3c0-1 0-2-1-2h-1c-1 0-1 2-2 2z"/><path d="m200 172l-1 1v1c0 0 0 0-1 0-1 0-2 1-2 2 0 2 4 4 6 4l1-1c0-1 1-1 1-3v-2c0-1-1-1-1-2h-2-1z"/><path d="m175 177h-1c-1 1-2 1-2 2v1c0 2 4 4 6 4 1-1 1-2 1-3v-1-2c0 0 0 0 0-1 0 0 0-1-1-2h-2c0 0-1 2-1 2z"/><path d="m104 182v1c-1 0-1 0-1 0h-1c0 0-2 1-2 2 0 2 4 4 6 4 1 0 0 0 1 0v-1c0-1 1-1 1-3v-2c0-1-1-2-2-2-2 0-2 0-2 1z"/><path d="m77 192c1 2 2 3 4 3 1 1 3 1 3 1 0-1 1-3 1-4v-2c0-2-1-3-2-3h-1c-1 0-1 2-2 3-2 0-2 1-3 2z"/><path d="m186 193c0 2 1 3 2 3 1 1 3 1 4 1h1c0-1 0-2 0-3v-3c0-1 0-2-2-2-1 0-1 1-2 1v1c-1 0 0 0-1 0-1 0-2 2-2 2z"/><path d="m215 195v-1c0-1-1-2-2-2h-1c-1 0-1 1-1 2-1 0 0 0-1 0-1 0-2 1-2 2 0 3 4 4 6 5 0-1 1-3 1-4v-1-1z"/><path d="m208 220c0 2 4 3 6 4l1-1v-1c0-1 0-1 0-3v-2c0-1-1-2-2-2h-1c0 0-1 1-1 1v1c-1 0-1 0-1 0-1 0-2 1-2 3z"/><path d="m205 239c0 2 4 3 6 4l1-1c0-1 0-2 0-3v-2c0-1-1-3-2-3-1 0-2 1-2 2v1c-1 0-1-1-1-1-1 0-2 2-2 3z"/></g></g><path d="m60 226c-1 0-1 0-1 0h-1c0 0 0-1-1-2-1-1-3-2-6-4-5-3-7-4-7-5 0 0 0 0 0-1 1 0 1 0 1 0s0 1 1 1c0 0 0 0 1 0 0 0 0 0 1 0 1 1 2 1 4 3 2 1 4 2 6 3-1-3-2-5-3-7-2-2-4-3-6-3-2-1-3 0-5 2-1 1-3 3-3 6 0 2 0 3 0 5 0 1 0 2 1 3 0 0 0 0 1 1 0 0 0 0 0 1 0 0 0 1-1 1v-1c0 0-1 0-1 0-1 0-1-1-1-2 0 0-1-1-1-2 0-2-1-3-1-4 0-2 0-3 0-5 1-3 2-5 4-7 2-2 5-2 8-2 2 0 4 1 5 3 2 1 3 3 4 5 0 0 0 1 0 3 0 1 1 3 1 4 2 1 3 2 4 2 0 0 1 1 1 1 0 0 1 0 1 0 0 0 0 0 0 1 0 0 0 1 0 1 1 1 1 1 1 1l-1 1c0 0-1 0-2-1 0 0-2-1-4-2zm-3-25c1 1 2 2 3 3 1 1 1 1 2 1 0 0 1 1 1 0 0 0 0-1 0-2-1-1-1-2-2-3-1 0-2 1-2 1-1 0-2 0-2 0zm-2-1c-1 0-1 0-1-1 0 0 0-1 0-1 0-1 1-1 2-1 1-1 2-1 2 0 0 0 1 0 1 0 0 0 0 0 1 0 0 1 1 1 2 2 1 0 1 1 2 2 0 1 1 2 1 3 0 2 0 3 0 4-1 0-1 1-2 1-1 1-1 1-2 1-1-1-3-2-4-4-1-2-2-4-2-6zm10-11c0 1 1 2 2 3 1 1 1 2 1 2 0 0 1 1 1 2 0 0 0 1 0 1-1 0-1 1-2 1 0 0-1 0-1 0 0 0 0-1-1-1 0 0 0-1 0-1 0 0 0-1-1-1-1-1-1-1-2-2 0 0-1 0-1 0 0 0 0 0 0 1 0 0 0 0-1 0 0 0-1 0-1-1 0 0 0-1 0-1 1-1 1-1 1-1 0-1 0-1 0-1v-1c1 0 1 1 2 1 0 0 1 0 1 1 1 0 2 1 3 2 0 0-1-1-1-1-1-1-2-2-2-3 0 0 0 0-1 0-1-1-1-1-2-1 0-1 0-1 0-1 0-1 0-1 0-2 0 0 0-1 0-1 0 0 0 0 1 0 0 0 1 0 1 0 0 0 0 0 1 1 0 0 0 1 1 1 0 0 0 0 1 0 0 0 0 0 1 0 0 0 0 0 0 1 0 0 0 0 0 1 0 0 0 0 0 1-1 0-1 0-1 0zm8-18c0 1 1 2 2 4 0 1 1 1 2 2 1 0 1 0 1 0 0-1 0-1 0-3 0-1-1-2-1-3-1 0-2 1-2 1-1-1-2-1-2-1zm-2-1c0 0 0-1 0-1 0-1 0-1 0-2 0 0 1 0 2 0 1 0 2 0 2 0 1 0 1 1 1 1 1 1 2 2 2 2 1 1 1 2 1 3 1 1 1 2 1 4-1 1-1 2-1 3-1 0-2 1-2 1-1 0-2 0-2 0-2-1-3-3-3-5-1-2-1-4-1-6zm12-4c0-2-1-4-1-5 0-1 0-3 0-3 0-1 0-1 0-1 0-1 0-1 0-1 0-1 1-1 1-1 1 0 1 0 2 1 0 0 1 1 2 3 1 1 1 2 2 2 0 0 0 0 1 0 0 0 0 1 0 1 0 0 0 0 0 1 0 1 0 2 0 2-1 1-1 1-2 1 0 0-1-1-1-1 0 0 0-1-1-1 0 0 0-1-1-2 0-1-1-1-1-2 0 0 0 0 0-1-1 0-1 0-1 0s0 0 0 1c0 0 0 0 0 1 0 0 1 1 1 3 0 1 1 2 1 3 0 1 0 2 0 2 0 0 0 0 0 1 0 1 0 1 0 1h-1c-1 0-1 0-1 0s0-1-1-1c-1-1-1-2-2-3 0-1-1-2-2-3 0-1 0-2 0-2 0 0 0 0 0-1 0 0 0-1 0-1 0 0 1 0 1-1 1 0 1 0 1 1 0 0 0 0 1 2 0 1 1 2 2 4zm10-18c0 2 0 3 0 5 0 1 1 2 1 3 0 0 1 0 1 1 0 0 0-1 0-1 1 0 1-1 1-3 0-1-1-3-2-4 0-1-1-1-1-1zm-1-1c-1-1-3-1-4-2-1 0-2 0-3 0 0 0-1 0-1 0-1 1-2 1-2 1 0-1 0-1 1-2 0-1 0-1 1-2 0 0 1 0 2 0 1-1 1-1 2-1 2 1 3 1 4 2 1 0 2 1 3 2 1 1 1 2 2 3 0 1 1 3 1 4 0 0 0 1 0 2 0 1 0 1 0 1 0 1-1 2-1 3 0 1-1 1-1 2-1 0-2 0-2 0-1 0-2 0-2-1-1 0-1-1-1-2-1-1-1-1-1-2 0-1 0-2 0-3 0-2 1-4 2-5zm12 0c1-1 1-2 1-3 0-1 0-2-1-3 0 0-1 0-1 0 0 0 0 1 0 2 0 2 0 3 1 4zm1 1c1 0 1 1 2 1 0-1 0-1 1-1 0 0 1-1 1-1 0-1 0-1 1-1 1 0 0 1 0 2-1 1-1 2-2 2 0 0-1 1-2 1 0 0-1 1-1 1-1 0-2 0-2 0-1 0-1-1-2-2 0 0-1-1-1-2 0-2 0-3 0-4 0-1 0-3 1-4 0-1 1-2 2-2 0 0 0 0 1 0 0 0 1 0 1 1 1 0 1 1 1 1 0 1 0 1 0 1 0 1 0 1 1 1 0 1 0 2 0 3-1 1-1 2-2 3zm17-11c0 2 0 3 0 4 0 2 1 3 1 4 0 0 1 1 1 1 1 0 1 0 1 0 1 0 1 0 1-1 1 0 1-1 1-1 0-1 1-2 1-3 0-1-1-1-1-2 0-1-1-1-2-2-1 0-2 0-3 0zm-3 0c0 0 0 0-1 0-1 0-1 0-1 0s0 0 0-1c0-1 0-2 0-2 0 0 0 0 1 0 0 0 1-1 1-1 0-5 0-9 0-11 1-1 1-2 3-3 0 0 0 0 1 1 0 0 0 0 0 1 1 1 1 1 0 2 0 0 0 1 0 1 0 0-1 1-1 3 0 1 0 2 0 4 1 0 2-1 3-1 0-1 1-1 1-1 1 0 1 0 1 1 0 0 0 0 0 1 0 0-1 0-1 1 0 0-1 0-2 1-1 0-1 1-2 1 2 0 4 0 5 0 1 1 2 1 2 2 1 1 1 3 1 4-1 2-2 4-3 7 0 1-1 2-1 2 0 1-1 1-1 1 0 0 0 0-1 0 0 0-1 0-1 0 0 0 0 0-1-1 0 0-1-1-1-3-1-1-2-4-2-7 0-1 0-1 0-2zm16-11c0 2 0 3-1 4 0 2 1 3 1 3 0 0 0 1 0 1 0 0 1 0 1 0 0 0 1-1 1-2 1-1 1-2 1-3-1 0-1-1-2-1 0-1-1-1-1-2zm-1-2c0 0 0 0 1-1 0 0 0-1 1-1 0 0 1 0 2 1 0 0 1 1 1 2 1 1 1 1 1 1 0 1 0 2 0 3 0 1 0 2-1 3 0 1-1 2-2 3-1 1-1 1-2 2-1 0-2 0-3 0 0-1-1-1-1-2-1-1-1-3 0-5 1-2 2-4 3-6zm16 2c-1 0-1 2-2 3 0 1 0 2 0 2 0 0-1 1-1 1-1 1-1 1-1 1-1 0-1 0-2 0 0-1-1-1-1-1 0-1 0-1 1-1 0 0 0-1 0-1 1 0 1-1 1-2 0 0 0-1-1-2 0-1 0-1 0-1-1 0-1 0-1 0s0 0-1 0c0-1 1-1 1-1 0-1 1-1 1-1 1 0 1 0 1-1 1 0 1 0 1 0s0 0 1 0c0 0 0 1 0 1 0 1 0 1 0 2 0 1 0 2 0 3 1-2 1-3 2-4 0 0-1 0-1 0 0-1 0-1 0-1 0-1 0-1 0-2 0 0 0-1 0-1 1 0 1-1 2-1 0 0 0-1 0-1 0 0 1 1 1 1 1 1 1 1 1 1v1c-1 1-1 1 0 2 0 1 1 1 1 1 0 0 0 1 0 1 0 0-1 0-1 1-1 0-1 0-1 0s0 0-1 0zm3 6c0 0 0 0 0 0-1-1-1-1-1-1v-1c0 0 0-1 1-2 1 0 1-1 1-1 1 0 1 0 1 1 1 0 1 1 1 2 0 0 0 0-1 1 0 1-1 1-2 1zm8-1c0 0 0 0 0 0-1-1-1-1-1-1v-1c0 0 0-1 1-1 1-1 1-1 2-1 0 0 0 0 1 0 0 1 0 1 0 2 0 0 0 1-1 1-1 1-1 1-2 1zm8 0c0 0 0-1-1-1 0 0 0-1 0-1 0-1 1-1 2-2 0 0 1-1 1 0 1 0 1 0 1 0 0 1 0 2 0 2 0 1 0 1-1 1-1 1-1 1-2 1z" fill="#201e1e" stroke="#201e1e" stroke-width=".181"/></g></g></svg>