<svg xmlns="http://www.w3.org/2000/svg" width="744.09" height="1052.36" viewBox="0 0 21000 29700" shape-rendering="geometricPrecision" image-rendering="optimizeQuality" fill-rule="evenodd" clip-rule="evenodd"><g fill="none" stroke="#373435" stroke-width="80"><path d="m9688 22661h1621"/><path d="m10498 21851v1621"/><circle cx="10498" cy="22661" r="460"/></g><text x="10046" y="21290" fill="#201e1e" font-family="&apos;Arial Black&apos;" stroke="#201e1e" font-weight="900" stroke-width="7.62" font-size="705.56">28</text><g fill="none" stroke="#322f30" stroke-width="80"><circle cx="10533" cy="1326" r="460"/><path d="m10533 515v1621"/><path d="m9723 1326h1621"/></g><rect x="9843" y="19706" width="1347" height="637" rx="318" fill="#fff" stroke="#fff" stroke-width="20"/><g fill="#201e1e"><path d="m4231 18839l-82-2c-3 60 12 92 70 97 30 3 46-7 40-38l-27-57zm351 64c-17-54-128-83-184-49-1 50 25 55 71 63 45 8 80-1 113-14m-284-76c5 23 27 55 27 80 0 123-200 113-234-8-13-44 10-344 12-425 1-37-1-76 0-114 0-40 7-60 7-106-28-13-35-8-72-29-19-11 8-11-49-11 1 57 67 56 49 135-7 30-14 51-34 67-107 81-246-52-138-157 49-47 58-3 63-51-107-25-54-57-47-140-55-15-193-131-249-173-97-74-179-171-264-258-50-52-327-408-334-408-247 0-452 140-525 372-85 271 26 657 140 909 13 29 21 50 34 80 13 29 24 47 37 77 56 138 228 432 313 583 18 31 158 260 163 284 67-1 618-259 704-295 32-13 49-21 78-36l217-111c41-22 195-110 211-131-76-18-67-67-67-107-43-4-23-19-40-27zm1042-27l-21-8c-7-1-21-2-29-3-21-3-33-7-51-10-34-7-57 16-67 41 19 35 50 33 92 25 65-12 62-20 76-45m317-7c-21-12-106 0-144 1-10 14-23 24-29 45 63 16 157 13 172-46zm-439-396c-41-15-101-44-150-67-428-200-946-430-1390-575-89-29-89-26-140-81-57-62-46-45-97-117-363-515-508-1379-588-2016-52-417-75-793-89-1210-5-132 6-305-8-429-95 525-134 1126-87 1670 21 241 117 905 214 1125 47 106 90 206 136 312 104 238 111 182 220 342 53 78 189 226 260 302 279 298 570 466 991 576l728 168m-618 423c40 0 209-198 255-267 41-60 61-84 61-147-33-1-68-14-100-21l-303-66c0 85 22 291 27 413 1 21 3 47 13 60 4 5 39 26 47 26zm-336-576l-92 13-18 460 95 3 15-476m-372 111c27 50 106 16 81-45-19-46-102-9-81 45m467 372c57-1 61-11 118 4l-29-427-118-38 29 460zm1768-441l-16 20c-5 5-12 12-17 16-74 56-210-3-210-128 0-167 200-178 289-54 15 21 32 50 38 83 5 28 11 83 7 108-16 105-41 182-103 258-88 106-223 165-361 188-70 12-16 21-50 71-27 39-70 54-121 61-86 12-200-19-149-115h-34c0 82-64 101-134 114-30 5-76 6-105-10-94-51-26-140-23-150-118-27-171-122-208-147l-153 182c-18 18-26 21-44 37l-86 81c-29 51-22 56-91 76-61 18-106 61-161 94l-323 179c-21 11-36 16-56 24l-289 133c-76 34-155 69-234 101-80 32-160 67-242 100-112 45-93 13-170-113-95-156-183-318-272-477-12-22-19-32-31-56-20-41-40-72-58-109-166-332-422-877-278-1309 37-112 106-200 198-270 91-68 222-128 349-128-6-24-19-48-29-71-11-26-19-44-30-70-64-148-134-283-174-441-56-224-97-436-134-681-117-786-27-1626 129-2397 11-52 27-123 29-178 2-85 16-90 38-163 15-50 27-121 35-172 20-115 13-261 27-380l21-585c0-67 7-125 7-200l7-740c0-49 0-98 0-147l-7-146c0-49 1-98 0-147 0-48-7-89-7-146 1-159-26-346-27-493-1-86-46-545-56-624-11-85-22-180-32-268-10-85-34-181-34-267 0-63 96-632 112-735 7-41 7-85 49-85 48 0 57 76 67 113 13 46 27 96 43 144 137 417 265 1109 307 1541 37 380 64 947 21 1341-2 18 0 35-1 52l-36 371c-34 265-100 737-164 990-14 55-47 115-68 166-48 118-170 367-195 493-7 33-11 60-18 96-7 35-16 68-16 104l-13 573c0 199 11 381 13 573 0 34 5 37 7 66l14 280c2 26 6 33 6 67 2 120 55 564 71 676l82 512c50 286 123 547 213 815 13 38 63 190 91 210 60 44 123 24 275 174 46 45 92 112 120 174 15 31 32 76 41 106 27 86 5 45 75 78 28-19 51-39 82-59 70-43 42-60 78-209 55-230 16-130-124-235-45-34-81-73-115-119-68-90-150-214-150-345 0-103 73-210 136-252 271-182 479-44 596-62 87-13 174 30 227 97 23 29 70 102 80 141 2 8-3 174-3 209 0 158-179 364-289 373 21 29 146 104 190 132l128 87c24 16 38 28 63 44 36 23 93 74 130 84 10-43 99-179 121-220-99-23-225-147-264-238-57-131-27-264 36-382-198-46 72-310 356-333-71-105-50-207 74-207 46 0 60 32 60 80 45-47 73-2 93-2 15 0 23-12 39-20 63-35 182-19 240 13 40 22 48 42 78 62 81-152 221 4 143 142-18 32-33 40-49 64 76 20 128 187 13 187-35 0-48-23-55-52-9-35 12-50 28-74l-35-18c-12 7-17 10-32 18 30 62 55 158 82 226 35 87 77 174 133 248 83 109 193 200 350 200 57 0 116 0 171-11 46-9 39-11 71 11-1 38-31 130-45 162-113 264-282 400-550 507-55 22-273 97-332 97-57 0-208-244-215-327-55 1-134 65-168 7l-13-20c25 108 115 252 181 340 62 82 129 161 212 223 110 82 312 177 455 92 27-16 47-37 63-64l11-38zm12-86l-2 2c0 0 3-1 2-2m-6-12c0-3-10-8-13-10-22-19-50-58-103-58-92 0-84 134-20 154 38 12 72-2 81-41-34-23-46-12-65-22-72-40 55-102 112-18l8-6zm-2106-33c-15-18-66-39-90-51l-8 40 98 11m1176 65c-2 41-2 51-25 72l497 207c69 27 139 29 116 104-51 18-138-15-197-30-98-24-584-149-615-144-13 106-31 103 34 167 141 139 339 149 548 136 164-10 409-42 504-179 26-38 66-94 75-154-35 22-37 41-111 64-49 16-104 19-158 15-94-8-188-53-254-94-116-73-243-216-322-333l-24-27-30 36c27 29 66 31 48 89-14 45-32 71-84 70zm-108-337c-47 2 14 30-76 41-3 29-6 22 0 47 5 23 14 11 0 39-14 26-36 44-52 71 64 35 35-9 44 84 123 10 66 73 125 76l14-83c34-5 65 12 73-12 11-34 6-7-40-50-145 139-175-25-157-71 21-52 118-39 78 10-19 24-27 8-18 54 57-19 69-51 29-88-66-60-25-87-20-118m109 131l12-32c-45-19-35-2-55-33-11-16 4-9-16-13 3 15 45 64 60 78zm-290-117l-92-76-8 18c17 14 32 22 48 33l35 25c15 13 1 0 9 10l9-9zm-609 6l-86-424-11 387 97 37m866-74c-10-36-29-83-42-122-15-44-21-79-31-127l-37-1-13 243c43-9 72 7 123 7m32-110c0-17-11-1-4 0 0 0 4 19 4 0m-7-20l-2 2c0 0 3-1 2-2m-255 486l8-40c-33-8-48-30-48-67 0-43 72-59-61-147-118-78-115-62-81-127-75-50-208-144-316-147l83 298c21 74 20 46 148 107 32 15 56 25 87 40l179 82zm814-567c-15-1-33-22-73 20 45 43 132 29 155-21-75-25-35 2-82 1m-1608 220c5-97 4-198 6-295 2-104 18-134-19-204-14-27-7-29-41-31l-1 510 55 20m871-364l-98 178c27 13 61 45 84 49l14-228zm64 44c12-19 4-37 4-61-3-70 3-44-17-51-6 7-9-2-10 32-1 73-4 76 23 80m-665 47c50 4 109 30 155 40l-135-119c-18-15-27-28-46-41 1 40 23 77 27 120zm847 140c39-1 64-17 101-20l-27-160c-7-52-15-120-20-174-20 5-47 25-72 35-30 13-55 18-96 18 0 108 96 223 114 300zm-284 145l9-83-516-330 350 305c70 58 102 106 156 108zm-606 85l90 36-181-670c-34 64-23 79-9 146 11 54 23 108 34 160 22 106 52 223 67 328zm-683-263c-14-30-23-66-49-118-21-42-40-66-66-101-26-35-52-55-86-82l-110-60c0 2 4 3 4 5l59 102c24 39 43 64 67 100 54 79 98 136 180 155zm899-918c-55-5-170 8-213-2-37-9-87-56-100-109-54 18-141 75-196 103-58 30-144 71-181 113-22 25-117 126-91 195 7 20 52 65 67 80 160 160 417 126 549 33 166-117 169-242 165-414zm1027 434c-52 8-100-27-152-38-10 63-51 128-87 149 1 128 29 247 47 367 43-8 92-25 137-38 77-22 65-37 119-61-27-56-74-56-55-173-69 2-99-31-80-98 61-28 91-6 110 54 0 2 1 4 2 5l3 10c63-19 72 18 116-4 136-69 161 28 129 101-17 37-45 65-63 90 30 29 55 24 70 67-13 67-123 128-220 95-60-20-41-50-112-29-42 12-95 29-137 37 15 84 132 295 191 284 201-40 529-175 651-328 69-85 134-182 168-318-343 31-503-74-648-350-32-61-97-229-105-241l-36 5c50 173 23 274-46 413zm-582-335c0 35 17 59-2 84-62 82-159-99-159-118 0-26 20-27 47-27-2-28-3-17-30-11-25 6-30 5-57 5-19 29-37 60-50 97-62 178 18 335 171 422 212 121 447-48 450-180-27-6-61-30-82-46-28-22-49-36-66-68-13 3-77 40-96-25-10-35 15-47 15-55 0-40-25-86-36-124-12-42-24-86-24-136-24 6-49 28-71 43-22 14-51 31-77 37 12 46 12 13 47 13 44 0 20 54 20 87zm-595-197c20-23 4-19 14-46 0 0 51-61-37-90-49-16-68-32-79-34l-294 27c-31 6-53 32-28 57 21 21 59 17 91 19-37 33-104 32-76 107 50 7 227-136 284-127 1 0 66 113 124 88zm1368-216c-29 19-32 16-74 7 0 43 2 65-7 100 36-9 75-66 81-107m-13-73c-23 6-21 4-27 27 25 1 17-5 32 8 9 9 10 23 15 32-1-30-10-47-20-67m-558 0c-36 19-54 33-81-7l46 69c44 32 35-22 35-62m-87-47l-2 2c0 0 3-1 2-2m47-7v-20c-16 4-27 7-40 13 15 21-6-4 40 7m-2249-3480c83-152 132-328 164-500 192-1032 247-1979 67-3023-32-188-69-365-111-549-8-35-115-480-145-520-33 172-55 357-83 530-15 90 8 180 19 270 114 879 148 1733 131 2621-4 198-10 396-18 593-3 87-30 535-25 579zm1919 3312c-17 18-36 69-50 90l-36-3c-14-22-16-39-24-67-1 1-3 3-3 4-32 51 11 139 56 167 21-49 125-115 72-202-11 6-4 0-15 12zm89 35c0 83-57 136-102 192-38 48-51 79-98 6-30-45-75-75-75-172 0-118 108-130 121-80 37-27 26-60 94-60 36 0 60 70 60 113zm240-402c-25 59-31 96 9 147 52-36 139-102 138-176-65 25-56 103-128 87l-16-52c0-3-2-4-3-5zm210-25c0 78-42 111-82 152-22 22-39 31-61 53-78 78-77 58-116-8-70-117-8-237 58-237 39 0 34 3 60 20 52-77 141-68 141 20m-491 61c-7 19-1 23 8 37 9-5 21-18 29-19l-37-18m149-55c0 74-42 93-105 143-22 18-19 23-50 30-116-100-45-245 54-193 29-43 101-44 101 20m-81 1279c0 28-75 160 61 160 103 0 89-93 141-93 49 0 24 74-27 114-28 22-52 36-99 42-32 4-78-6-107-25-106-71-34-224-3-224 14 0 34 20 34 27zm-861-59c22 22-13 188 128 167 44-7 81-47 102-47 19 0 34 15 29 35-8 32-155 124-257 30-74-69-62-246-1-186zm-2-160c23 10 25 3 36 34 24 64-30 125-95 94-67-31-35-169 59-128m213-77c82 31 39 168-52 134-72-27-43-169 52-134m1432 460c54 19 54 139-23 112-59-20-57-140 23-112m152 23c71 39 16 117-37 100-56-18-25-134 37-100"/><g stroke="#201e1e"><g stroke-linejoin="round" stroke-linecap="round"><text x="10500" y="14850" font-family="&apos;Arial&apos;" font-weight="bold" stroke-width="25" font-size="384.54" transform="matrix(.54948.83859-.84583.54477 9300.14 843.89)">00.00.0000</text><text x="10500" y="14850" font-family="&apos;French Script MT&apos;" stroke-width="50" font-size="1417.77" transform="matrix(0-1 1.0086 0-10047.5 26064.1)"> Texto 01</text></g><g stroke-width="50"><g fill-rule="nonzero"><path d="m1915 5932c3 1 5 2 6 4l54 28h1c7 4 11 7 13 8 2 1 2 3 2 4-1 2-2 4-5 5-2 1-7 1-15 1-6 0-11 1-14 4-4 3-7 8-11 14-4 6-11 22-23 48l-40 86c-4 8-9 21-17 38-8 17-17 39-28 65-6 15-12 28-16 40-4 12-8 23-12 33-14 39-21 75-21 109 0 31 8 63 23 95 15 32 35 61 60 87 20 21 43 39 69 54 26 15 62 32 106 50 9 3 12 8 10 14-1 4-3 6-6 6-3 0-8-1-18-4-9-3-19-6-30-10-54-20-102-47-144-84-41-36-73-77-95-123-15-33-23-67-24-100-1-33 6-70 21-109l3-9c2-4 11-28 29-69l32-76c8-19 15-35 20-49 6-13 10-24 13-32l23-62 14-38 5-18 1-2c2-4 3-7 5-8 2-1 4 0 8 1zm478 217c7 2 15 7 25 13 10 6 20 14 30 22 11 8 21 17 32 27 11 10 20 19 28 28 39 44 65 90 78 138 13 48 11 95-6 140-8 22-21 42-38 59-17 17-37 30-59 40-22 9-46 15-71 16-26 1-51-3-76-12-22-8-44-19-67-33-23-14-52-33-87-57l-266-190-3-2c-9-8-15-13-18-16-3-3-5-8-6-14l-9-67 1-2c-2-9-2-15-1-18 1-3 3-4 6-3 3 1 7 6 12 16 2 2 4 5 6 8 2 3 4 6 5 8 3 3 6 6 9 9 3 3 8 7 15 12l15 12 14 10 255 182c1 1 3 3 7 5 3 2 7 5 11 8 17 11 32 21 44 28 12 7 22 13 32 18 9 5 17 9 24 13 7 3 14 6 22 9 41 15 78 15 112 0 34-15 58-43 73-83 18-49 15-100-9-151-24-52-69-103-135-154-10-8-14-13-13-16 1-3 5-3 11-1zm64-357c12 6 23 16 33 30 10 14 19 30 27 48 8 19 14 39 18 61 4 22 7 45 9 68l1 23v16c0 2-1 4-3 8-1 3-3 4-5 3-2-1-4-4-4-10l1-1c-1-2-1-5-1-9-3-42-11-79-26-109-15-30-35-52-60-65-12-6-24-8-34-5-11 3-19 11-25 22-9 17-9 35-1 55 10 26 30 53 61 82 30 29 66 54 106 74 69 35 115 30 139-16 9-18 14-37 14-57 0-21-4-41-12-60l-8-19c-1-2-1-4-1-4 1-2 3-3 5-2 9 5 19 21 28 49 20 58 21 105 3 139-15 29-38 46-69 52-31 5-65-2-104-21-35-18-67-41-95-69-28-29-51-60-68-96-14-31-23-62-26-92-3-30 1-55 11-75 7-14 19-23 37-28 17-4 34-2 50 6zm450-293c3 2 6 6 6 12l5 17 5 21 7 36c2 6 4 18 7 37 2 13 3 22 3 27 0 7 0 14-1 20-1 7-3 12-5 15-9 14-23 16-41 4l-11-7-8-8-44-37c14 53 21 95 22 128 1 32-6 59-19 80-20 32-50 37-88 13-10-6-21-14-34-25-13-11-29-25-46-44l-131-130v-2c-3-3-6-5-8-6-2-1-5-3-7-4-8-5-14-5-17 0-2 3-3 7-3 13v10c0 6 0 8 0 8l-1 3c0 5 0 7-1 8-2 3-5 3-9 0-2-1-3-3-4-4 0-2-1-6 0-12 0-2 1-12 1-29l2-32c0-5 0-9 1-14 0-5 0-10 0-16 0-8 0-13 0-15 0-3 1-5 2-6 4-7 10-8 19-3 3 2 7 5 10 9l2 1 194 193c12 12 20 20 27 26 6 5 12 10 18 14 27 16 47 13 63-12 3-4 5-9 6-14 2-5 3-9 3-13 3-16 2-37-2-62-5-31-12-54-19-72-8-17-18-35-32-52-10-12-22-24-34-37-13-12-29-28-50-48-18-17-30-28-37-34-7-6-12-10-16-12-10-6-16-5-21 1-3 5-4 9-4 13l-1 13-1 8 1 1-1 2c1 2 1 4 0 4-1 2-3 2-5 1-1 0-3 0-5-2-1-1-2-3-2-5 0-3 0-8 0-16l2-69 1-4c0-17 2-29 7-35 2-3 5-5 10-6 4-1 8 0 11 2 2 1 5 3 8 6 3 3 7 6 10 10l1 1 232 243 1 1c2 2 6 5 11 8 10 6 17 5 21-2 6-9 5-23-1-41l-8-28-8-30c-3-11-4-16-4-16 0-1 0-1 0-2 0-1 1-1 0-2 0-1 0-1 0-2 3-4 6-5 11-2zm178-698c3 3 7 8 11 15 4 8 8 15 11 21l6 13c2 6 2 10 0 13-1 1-3 1-7 0-21-8-42-11-62-8-20 3-36 12-48 25-12 14-19 31-19 53-1 21 3 45 12 70 9 25 22 51 39 77 18 26 38 49 62 71 58 52 106 56 145 13 36-40 36-96 0-168-2-4-3-7-4-9-1-2-2-4-2-5-1-1-2-2-1-2-1-2-1-4 0-5 3-3 6-3 9 0 5 4 10 14 17 28 6 14 12 29 16 43 10 34 12 68 8 101-5 33-16 59-33 79-19 21-45 30-76 28-31-3-62-17-91-43-29-26-53-57-73-94-20-37-34-77-42-118-13-66-2-120 35-160 8-8 16-15 24-22 9-6 20-11 34-16 15-5 25-5 32 1zm535-93c4 5 6 21 5 49-1 34-3 58-6 72-3 14-7 24-14 30-12 11-25 10-37-3-4-5-10-12-16-21-6-10-14-22-23-38l-41-66c13 60 18 112 15 158-4 46-15 78-35 96-16 15-35 19-58 14-23-5-45-19-67-42-38-40-65-88-81-143-17-55-20-110-10-165 9-53 27-92 56-119 19-17 39-26 59-27 21-1 40 7 58 22l162 260 1 1c1 2 2 4 4 6 2 2 3 4 5 5 4 5 8 6 10 4 1-1 2-3 4-7 0-2 0-4 1-5 0-1 1-3 1-5 0-9 1-20 2-33 1-13 1-24 0-32 0-6 1-9 2-10 2-2 5-2 7 0zm-219-124c-9-10-17-16-24-19-7-3-14-4-23-4-19 1-36 9-52 24-32 30-44 70-34 121 3 18 7 37 13 55 6 19 13 37 22 54 8 17 17 34 28 50 10 16 21 29 32 41 17 18 35 30 54 34 19 5 34 2 45-8 6-5 11-15 16-28 5-13 8-27 10-40 3-34 2-66-3-98-3-16-8-33-14-51-6-17-13-34-20-51-7-17-15-32-24-46-9-14-17-25-25-34zm789-364c1 2 2 5 2 9 0 1 0 3 0 5 0 2 0 5 1 9 2 14 2 29 2 45-1 16-3 33-6 50-8 49-23 81-44 96-16 11-31 6-44-14-4-7-9-15-13-24-4-9-9-22-15-38-4-10-7-19-11-28-3-9-6-18-9-27-3-9-6-19-10-29-4-10-8-22-12-36-7-20-12-37-17-51-5-15-9-27-12-37-4-10-7-18-9-25-2-6-5-13-6-18-3-7-6-13-9-17-9-14-19-17-30-10-9 6-18 23-27 51-9 28-16 64-22 108-6 41-8 72-5 95 1 8 3 19 5 32 3 13 6 28 11 43 4 15 9 30 14 46 5 16 11 30 16 44l18 46 1 2c2 4 0 7-4 10l-43 29c-1 0-2 1-3 0 0-1-1-1-2-1-1 0-1-1-2-1-1-1-1-3-2-5 0-1-2-6-4-17 0-4-1-7-2-10-1-3-1-6-2-10l-1-4c-5-18-9-33-12-45-3-12-8-29-15-49l-44-126c-6-17-11-31-15-42-4-11-8-21-11-28-3-8-6-14-8-19-3-5-6-9-8-13-9-13-17-16-27-9-5 4-10 11-15 21-5 11-10 24-14 39-4 15-8 33-12 52-3 19-6 39-9 60-3 27-4 53-3 77 1 25 3 46 8 66 4 20 11 44 23 73 11 29 23 56 36 81l-5 10-40 27c-1 1-2 1-3 0-1 0-1 0-2 0 0-1-1-1-2-1l-1-1c0-1-1-2 0-3l-2-3c0-1 0-2-1-4l-11-35-29-85c-5-17-10-30-14-42-4-11-7-22-10-31-3-9-6-19-10-29-4-10-8-21-13-36-7-19-12-34-17-46-4-12-8-22-11-29-3-7-6-13-8-17-2-4-4-7-6-10-9-13-19-15-32-6-4 3-10 8-17 16-4 5-6 7-6 7-1 0-1 0-2 0-2 0-4-1-5-4-2-3-1-8 5-15 2-2 4-5 7-9 3-4 7-9 13-16 2-4 5-7 9-11 3-4 7-8 11-14 3-3 5-5 7-7 2-2 3-4 4-5 13-14 22-22 27-25 8-5 15-4 20 4 2 3 4 7 6 11 2 4 4 10 6 18 1 4 1 7 1 8l51 165 2-40c1-18 1-33 2-45 1-12 2-23 3-32 1-10 3-18 4-27 2-8 3-17 5-26 2-9 4-18 6-26 2-9 5-18 8-28 7-27 14-47 22-60 8-13 18-24 30-32 21-14 38-10 52 10 2 3 5 8 7 15 3 7 6 15 9 24l2 5 35 109c0-5 1-10 1-14 0-4 0-7 0-10 0-17 2-33 4-50 2-16 5-33 8-50 6-29 12-55 20-78 8-23 16-43 24-59 4-6 8-12 13-18 5-6 10-10 15-13 21-14 38-10 52 11 4 5 7 12 10 19 3 7 6 16 9 24l2 5 69 215 8 22c8 23 15 39 22 49 8 11 15 14 22 9 11-8 19-32 22-74 2-16 3-32 2-50 0-3 0-5 0-8 0-2-1-4-2-5 0-4 1-7 3-8 1-1 3-1 4-1 1-1 2-1 3 1zm34-531c5 10 5 21 0 34-5 13-14 23-26 32-7-11-14-20-22-29-7-8-17-19-29-30 1-2 2-4 2-6 1-2 2-4 4-6 3-6 6-11 8-15 2-4 6-10 10-16l3-4c10 2 20 7 29 15 9 8 16 17 21 26zm191 408c1 3 2 8 3 15 0 7 0 15-1 23-1 9-3 18-5 27-2 10-4 19-7 27-3 11-7 22-12 32-4 10-9 20-14 29-10 16-21 26-33 32-22 11-40 3-53-22-8-16-14-37-18-64l-2-9-37-216c-5-31-10-51-15-60-3-6-7-9-11-7-6 3-13 10-21 22-5 5-8 8-7 7-3 1-5 0-7-4-1-1-1-3 0-5l51-86c4-6 7-10 9-11 9-4 18 3 27 22 4 7 7 16 10 27 3 11 7 27 10 50l28 154 3 11c7 31 13 57 17 78 4 21 8 35 11 41 5 11 13 14 23 9 9-5 16-12 21-23 6-11 11-23 13-37 3-14 5-32 6-54 1-6 3-9 5-11 2-1 4 0 5 3zm339-420c6 15 10 32 12 51l2 7 24 211c3 22 6 38 10 47 5 13 13 18 24 14l6-2c0 0 1-1 4-4 0 0 2-2 5-7 2-3 4-4 4-5 1-1 2-1 3-2 4-2 8 0 10 5 1 3 1 6 1 8-1 2-3 6-6 12-23 36-42 57-59 63-17 7-31-3-42-31-4-9-6-18-9-27-2-9-4-22-6-36l-16-152c-3-27-6-49-9-64-3-16-7-29-11-39-8-18-19-25-34-19-7 3-16 10-25 21-9 11-18 24-27 40-9 16-17 33-24 52-7 19-14 38-19 57-7 25-11 49-12 73-1 24 0 49 4 76 2 12 4 26 7 42 3 15 6 30 9 43 2 8 4 14 5 19 1 5 2 8 2 11 0 3 1 6 2 8 1 5-1 9-7 12l-40 16c-4 2-7 1-9-3-1-1-1-5-2-12l-25-177c-1-7-2-13-3-17-1-4-1-7-1-9-1-7-2-15-4-24-2-10-4-21-7-35-5-25-9-45-13-60-4-15-8-28-12-38-3-7-7-10-11-8-1 1-3 2-6 3-2 1-7 4-14 9l-4 2-5-13 73-79c2-2 4-3 7-4 7-3 13-1 15 5 2 4 2 6 2 8l1 3-1 2 10 62 15 128c1-5 3-9 4-14 1-4 2-7 3-9 4-17 9-33 13-47 5-14 10-28 16-41 6-13 12-26 20-39 7-13 15-28 25-43 15-23 28-41 39-53 11-12 22-20 33-25 11-4 22-4 32 2 10 6 18 16 24 31zm614 34c0 1 0 3-1 6-4 13-8 23-11 32-3 9-7 18-11 28-17 36-35 66-55 89-20 24-39 38-58 43-20 5-34-4-40-29-2-8-4-19-5-33-1-13-1-28 0-45v-9l6-145v-12c0-8 1-15 1-23 0-8 1-15 0-22 1-19 1-33 0-43-1-9-2-16-3-21-4-13-13-17-30-13-20 5-42 24-64 55-23 31-44 72-65 123-9 23-16 45-21 65-5 20-9 40-12 59-1 12-2 23-3 32-1 10-1 20 0 30 1 11 2 22 3 34 1 12 3 27 6 45l-3 6-56 15c-2 1-4-1-5-4l-1-5 1-5 4-609c0-23 0-46-1-69-1-23-1-44-2-64 0-7 0-12-1-18-1-5-1-11-2-16v-1c-3-10-9-14-18-11-5 1-9 3-13 5-4 2-9 6-16 11l-6 5h-1c-2 1-4-1-5-4-1-3 1-7 7-12 11-9 21-18 31-27 10-8 20-17 31-25 14-10 25-17 35-19 10-3 17 1 19 12 1 5 2 8 2 11v1l-9 621c5-16 9-30 13-41 4-11 8-22 13-32 4-10 9-20 13-29 4-10 10-20 16-32 7-16 16-31 25-46 9-14 19-29 29-43 34-44 64-70 91-77 27-7 45 7 55 42 2 8 4 17 4 25 0 8 0 19 0 33l-10 204v6c-1 13-1 26 0 36 0 11 2 20 3 26 3 12 11 17 24 14 11-3 21-12 31-29 10-16 24-42 41-78 3-5 5-9 6-11 1-3 2-5 3-7l3-4c1-4 3-6 5-6 2 0 3 0 4 0 1 1 2 2 2 3z"/><path d="m5731 3444c6 35 4 74-6 117-10 43-27 86-51 128-20 34-41 62-64 82-23 21-46 33-69 37-15 3-30 1-43-4-14-5-27-14-39-25-12-12-22-26-31-43-9-17-15-36-19-57-7-37-4-77 9-119 12-43 32-80 59-113 16-20 32-36 47-50 15-14 26-21 33-22 2 0 3 0 3 2 0 2 0 3-2 5h-1c-5 5-9 10-13 14-4 5-8 10-13 16-27 35-47 74-59 118-12 44-14 86-7 126 7 38 19 66 37 86 18 20 38 28 61 24 21-4 39-14 56-31 17-17 31-38 41-64 11-25 18-53 22-84 4-31 3-62-2-93-3-14-6-27-10-38-4-11-9-22-15-33-7-11-14-18-20-21-7-3-17-4-30-2-9 2-16 2-19 2-3 0-5-2-6-4 0-2 4-7 13-14l2-2 42-29c3-2 5-4 7-4 2-1 3-1 5-1 10-2 21 3 33 15 13 11 24 24 33 39 8 14 14 29 16 44zm240 241c0 10-3 19-9 27-6 8-17 17-33 26l-25 14c-4 2-7 4-8 4-2 0-2-1-2-4 0-2 0-3 1-5l2-11c2-10 4-18 4-26 0-15-6-27-19-36l-11-6c-2-2-2-4-2-6 0-2 3-6 10-10l1-1 47-30c3-2 7-4 12-4 4 0 8 2 12 7 6 9 12 19 16 30 4 11 6 21 6 30zm260-7c-2 9-7 17-15 24-8 7-21 12-38 17l-28 8c-4 1-7 2-9 1-2 0-2-2-1-4 0-2 1-3 2-4l5-10c5-9 8-17 10-25 4-15 0-28-10-39l-9-8c-1-2-1-4-1-6 1-2 4-5 12-7l1-1 53-18c4-2 8-2 13-1 4 1 7 4 10 10 4 10 7 21 8 33 1 12 1 22-1 30zm270 56c-6 8-13 13-23 17-10 3-24 4-42 2l-29-3c-5 0-8-1-9-2-1-1-1-2 0-4 1-1 2-2 4-3l8-7c8-6 14-13 18-19 9-12 10-26 5-40l-5-11c0-2 0-4 1-6 1-2 6-3 13-2h2l56 2c4 0 8 1 12 4 3 2 5 7 6 13 0 11-1 22-4 33-3 11-7 21-12 28z"/></g><g stroke-linejoin="round" stroke-linecap="round"><path d="m7298 7614c13-20 21-22 45-12 18-18 35-18 48-14 20 6 34 27 34 58-28-17-37-23-57-1 2 39-21 64-67 53-119-28-77-217 32-207 155 15 252 198 159 309 14 22 1 38-14 52 3-19 5-16-6-33-19 22-29 32-73 44 0 0 0-9 5-11 52-30 95-96 96-156 0-29-8-60-30-93-3 98-29 165-82 206-55 42-126 69-214 90-93 23-154 35-218 108-27 31-42 70-47 110-4 39-1 84 37 128 12-10 24-21 36-31 15 30 47 65 83 67 32 2 52-10 62-29 23-41-3-112-63-124 95-25 164 37 153 116-12 89-94 154-187 135-69-14-122-75-144-128-51-129 19-238 95-301-103-1-192-9-276-63-49-33-82-96-111-126-18-4-28-5-36-3-11 4-17 14-30 31-10-47 15-70 61-67-47-47-106-83-170-56-25 10-37 29-3 57-2 16-2 23-6 26-14 7-25 0-34-11-30-40-12-83 29-100 46-20 100-9 144 17-4-8-8-15-13-23-36-6-60-6-89-33 19 1 31-2 52-6-35-43-59-74-45-128 69 14 77 60 85 121 11-12 13-20 20-36 17 32 12 49-5 75 3 11 11 23 14 35 10 13 19 25 28 38 13-56 38-86 77-125 38-24 72-38 107-34 62 6 106 31 129 65 31 44 29 103-8 155-17 11-28 80 26 91 10 2 21-2 33-15 18 35-11 55-43 48-26-6-54-31-59-84-32 8-64 3-89-11-38-21-63-60-55-99 9-45 44-68 82-63 53 7 68 51 57 76-11 26-49 24-53-6 15-21 9-36-3-41-17-7-46 6-53 51-2 34 24 57 60 64 28 5 49 0 64-11 69-51 52-164-38-187-43-11-82-10-111 3-46 20-71 55-82 93-21 76 12 141 67 185 100 79 267 84 369 36-180-65-161-292 9-275 39 4 88 48 87 88-1 58-48 78-98 69 43-30 39-85 11-94-35-11-63 39-78 62-8 1-16 2-25 3-8 75 63 111 132 123 34 6 68 6 93 1 67-12 130-34 180-85 27-27 48-63 58-110 5-30 6-58-1-81-9-34-35-60-88-73-6 14-8 18-21 27-6-10-8-16-10-28-15-2-30 4-42 14-13 12-21 30-17 53 7 8 15 16 22 24-8 2-18 9-26 11 5 12 13 23 22 31 14 11 26 11 34 5 16-10 19-40-19-44z"/><path d="m6994 8189c23 4 43-11 45-33 2-22-15-43-39-47-23-4-43 11-45 33-2 22 15 43 39 47z"/><path d="m7024 8063c20 3 37-9 38-28 2-19-13-37-33-40-20-3-37 9-38 28-2 19 13 37 33 40z"/><path d="m7107 7999c16 3 30-8 31-23 1-15-11-30-27-33-16-3-30 8-31 23-1 15 11 30 27 33z"/><path d="m7196 7964c12 2 23-6 24-18 1-12-8-23-21-25-12-2-23 6-24 18-1 12 8 23 21 25z"/><path d="m7271 7933c9 1 17-4 17-13 1-8-6-16-15-18-9-1-16 4-17 13-1 8 6 16 15 18z"/><path d="m7334 7899c7 1 13-3 13-10 1-7-5-13-11-14-7-1-13 3-13 10-1 7 5 13 11 14z"/><path d="m6906 7995c-48 65-94 124-179 148-105 31-189-8-278-67 63 0 109-8 165-33 23-13 46-26 69-39 80-38 137-40 223-9z"/><path d="m6647 7905c55-11 88 8 136 29-36 23-62 40-96 42-56 4-144-54-143-113 34 21 63 39 104 41z"/><path d="m6847 7817c-18 20-29 39-59 42-33 3-61-18-89-34 19 1 34 1 46-4 19-6 21-8 38-12 17-3 38 1 63 7z"/><path d="m6752 7357c-23 21-41 46-54 78-5 80-20 122-91 165-42-138 13-211 145-243z"/><path d="m6818 7485c61 97 126 130 224 75-48-36-80-55-138-53-31-2-58-9-86-22z"/><path d="m6998 7504c-24-2-42-5-57-12-52-25-71-66-68-107 2-23 11-46 25-66-5 62 18 85 75 105 27 34 26 40 25 81z"/><path d="m6581 8106c70 24 138 33 200-9 20-13 35-32 49-64-76 74-136 85-249 74z"/><path d="m6989 7571c-38 9-87 5-124-39 45 28 79 38 124 39z"/><path d="m6677 7406c-47 40-60 69-66 131 13-51 35-92 66-131z"/><path d="m6725 7952c-29 16-66 19-119-12 42 11 76 17 119 12z"/><path d="m6521 7582c-6-26-12-59-37-75 4 36 9 51 37 75z"/><path d="m7084 6161c4-33-1-44-35-58-1-37-19-54-37-64-26-15-59-8-87 23 44 12 59 16 58 58-37 37-36 87 20 123 146 95 275-140 155-242-171-146-435-62-441 147-34 7-35 38-33 68 14-22 10-22 36-27 0 42 0 63 34 121 0 0 8-9 6-16-26-84-9-196 45-257 26-30 63-52 115-63-86 102-121 197-105 293 17 100 65 201 135 314 74 119 124 195 123 335 0 60-21 115-53 160-31 44-75 87-154 92-3-23-6-46-8-68-42 15-107 17-145-18-34-31-43-64-36-94 15-65 105-111 176-60-74-124-200-132-260-41-69 103-45 253 67 331 82 57 192 51 261 20 169-77 197-261 178-403 105 106 202 191 336 222 79 18 171-12 226-13 22 14 34 24 39 35 7 15 5 32 2 62 53-38 48-86-1-131 90 1 182 26 224 120 16 36 11 68-49 61-13 18-19 26-17 32 7 22 25 27 44 24 67-10 88-71 61-132-29-67-93-114-161-132 11-3 22-6 33-10 43 31 66 56 120 59-19-19-29-34-47-59 75-7 127-14 162-83-82-57-133-19-196 34 0-24 5-33 12-58-47 14-57 38-63 82-13 8-32 12-45 20-21 3-42 6-63 9 38-70 39-127 35-206-16-63-38-112-77-146-68-58-135-78-190-69-71 12-123 74-133 166 8 29-45 110-110 65-11-8-19-24-19-49-49 17-39 68 0 93 32 21 83 24 136-24 25 42 62 69 101 81 58 19 119 5 146-42 31-55 17-115-25-149-60-48-115-18-127 18-12 37 27 75 59 49 4-36 24-46 40-38 23 11 41 55 7 107-29 37-75 33-119 2-34-24-50-51-55-77-23-123 96-219 208-149 54 34 92 74 110 118 28 68 22 130-1 179-48 99-140 130-236 117-173-24-346-192-407-347 241 121 428-128 240-288-43-37-132-43-168-2-51 60-23 129 36 172-16-76 38-127 75-106 44 25 29 105 23 144 7 10 15 19 22 29-59 84-164 48-246-13-40-30-74-65-95-95-57-82-100-169-105-272-3-56 9-113 41-171 23-35 47-64 74-81 41-25 90-25 155 18-7 20-8 27-3 49 16-4 22-8 35-18 17 14 28 35 30 57 3 26-6 53-30 71-15 1-30 1-45 2 6 11 10 28 16 39-17 7-34 10-50 8-24-3-36-16-39-30-7-27 17-61 59-24z"/><path d="m6870 7059c-27-20-34-56-15-81 18-24 55-28 82-8 27 20 34 56 15 81-18 24-55 28-82 8z"/><path d="m6953 6900c-23-17-29-47-13-68 15-21 46-24 69-7 23 17 29 47 13 68-15 21-46 24-69 7z"/><path d="m6927 6748c-19-14-23-39-11-56 13-17 38-19 56-5 19 14 23 39 11 56-13 17-38 19-56 5z"/><path d="m6869 6620c-14-11-18-30-8-43 10-13 29-15 44-4 14 11 18 30 8 43-10 13-29 15-44 4z"/><path d="m6822 6512c-10-8-13-21-6-31 7-9 21-11 31-3 10 8 13 21 6 31-7 9-21 11-31 3z"/><path d="m6789 6412c-8-6-10-17-5-24 5-7 16-8 24-2 8 6 10 17 5 24-5 7-16 8-24 2z"/><path d="m7135 6953c-11 115-17 223 46 336 79 140 199 189 343 221-63-65-103-121-138-205-11-37-22-74-34-111-46-122-102-182-218-241z"/><path d="m7478 7131c-46-68-96-84-164-112 16 61 26 104 59 143 53 62 195 94 248 35-54-14-99-26-142-66z"/><path d="m7356 6835c0 39-7 70 21 103 31 37 78 46 121 58-20-20-35-34-44-52-14-26-14-31-28-51-15-21-40-39-70-57z"/><path d="m7870 6468c4 45 0 90-16 134-68 86-91 144-57 262 167-96 178-227 73-396z"/><path d="m7686 6529c-150 35-245 1-295-156 81 14 131 28 188 90 33 31 68 51 107 67z"/><path d="m7487 6361c26 23 47 38 69 46 76 29 132 7 166-38 19-25 31-58 34-93-51 68-96 67-171 28-58 7-62 14-98 56z"/><path d="m7363 7403c-93-49-170-110-194-217-8-34-6-69 9-116 10 154 61 228 185 333z"/><path d="m7435 6438c30 48 83 95 160 89-71-18-114-44-160-89z"/><path d="m7901 6595c12 89-1 132-53 201 33-65 49-130 53-201z"/><path d="m7357 7098c15 46 49 88 132 112-53-33-93-62-132-112z"/><path d="m7899 6935c30-21 66-47 106-38-37 32-55 42-106 38z"/><path d="m6685 8295c20-14 28-14 48 3 24-11 40-6 53 3 18 12 25 36 15 65-22-25-30-33-56-19-11 37-42 53-84 28-109-64-4-227 101-183 149 63 184 264 55 338 7 25-12 36-32 44 9-17 10-14 5-33-26 14-39 21-87 18 0 0 3-8 8-9 62-11 126-60 147-115 10-27 12-59 2-96-35 91-84 145-150 166-69 22-148 25-243 17-100-8-164-16-252 32-38 20-66 52-83 88-17 35-29 78-6 132 15-6 31-12 46-17 5 32 25 75 60 89 31 12 55 7 71-8 36-31 35-106-21-135 103 7 150 87 113 157-42 80-144 114-231 67-64-35-97-108-100-165-8-137 98-216 194-251-102-33-188-69-253-146-38-46-50-116-68-152-16-10-26-14-35-14-12 0-22 7-40 20 6-47 38-60 83-43-31-59-77-110-150-106-28 2-47 15-22 52-7 15-10 21-15 22-16 2-25-8-30-21-16-47 15-81 63-84 52-4 103 23 137 61-2-8-3-17-5-25-34-17-57-24-77-59 18 6 31 8 53 11-20-52-34-88-2-134 63 35 56 81 44 140 15-8 19-14 32-27 7 35-5 50-31 69-1 11 3 25 2 37 5 15 10 30 16 45 32-48 67-68 118-92 45-10 84-13 117 2 59 25 94 62 107 102 16 51-5 105-60 142-21 5-54 66-4 94 9 5 21 4 38-4 6 38-30 48-58 31-24-14-43-46-30-97-34-2-64-18-85-39-31-32-43-76-22-110 24-39 67-50 102-33 50 23 50 69 31 89-19 20-56 7-51-23 21-15 21-31 10-39-15-12-48-9-70 31-13 31 4 60 38 78 26 14 49 16 67 10 85-26 106-136 25-186-39-24-78-35-111-32-52 4-89 29-112 61-46 64-35 135 5 193 73 105 237 162 354 150-157-117-62-323 101-254 38 16 72 72 57 109-21 53-73 58-120 34 53-15 67-67 42-84-31-21-76 16-98 33-9-2-17-3-26-5-33 67 25 124 90 157 32 16 66 27 91 31 71 10 140 9 207-22 36-17 68-44 94-84 15-27 25-52 26-76 2-35-15-67-63-96-11 11-14 14-30 18-3-12-2-17 0-29-14-6-31-6-46 0-17 7-31 22-35 44 5 10 9 20 14 30-9 0-21 3-30 2 1 13 5 26 12 36 10 14 22 18 32 16 19-5 32-32-5-47z"/><path d="m6191 8736c22 11 47 3 56-17 9-20-1-45-22-56-22-11-47-3-56 17-9 20 1 45 22 56z"/><path d="m6264 8628c18 9 39 3 47-14 8-17-1-38-19-47-18-9-39-3-47 14-8 17 1 38 19 47z"/><path d="m6368 8594c15 7 32 2 39-12 6-14-1-31-16-39-15-8-32-2-39 12-6 14 1 31 16 39z"/><path d="m6468 8590c12 6 25 2 30-9 5-11 0-24-12-30-12-6-25-2-30 9-5 11 0 24 12 30z"/><path d="m6552 8584c8 4 18 1 21-6 4-8 0-17-9-21-8-4-18-1-21 6-4 8 0 17 9 21z"/><path d="m6626 8573c6 3 14 1 16-5 3-6 0-13-7-17-6-3-14-1-16 5-3 6 0 13 7 17z"/><path d="m6169 8527c-69 46-135 86-227 82-115-5-185-67-254-150 62 19 111 27 175 22 27-5 54-10 81-15 92-10 149 6 225 62z"/><path d="m5942 8362c58 7 85 35 125 70-44 10-74 18-110 9-57-14-125-96-105-150 27 30 49 56 89 71z"/><path d="m6170 8343c-24 13-41 28-72 21-34-8-55-36-77-60 19 7 33 11 47 11 21 0 24-1 42 1 18 2 38 13 60 27z"/><path d="m6229 7883c-30 12-57 30-79 55-32 73-60 108-146 125 4-142 84-192 225-181z"/><path d="m6252 8024c28 110 82 161 197 141-36-49-61-77-119-93-30-11-55-27-78-48z"/><path d="m6424 8098c-23-9-39-18-52-30-44-40-49-84-31-122 10-21 26-39 47-53-26 56-10 85 39 121 15 40 12 45-3 83z"/><path d="m5809 8528c62 45 126 74 202 54 24-6 45-19 70-45-100 45-164 36-271-10z"/><path d="m6393 8158c-40-4-88-23-110-75 35 40 66 60 110 75z"/><path d="m6139 7906c-60 22-83 45-109 102 30-43 65-75 109-102z"/><path d="m6004 8430c-34 6-72-3-115-49 38 23 70 40 115 49z"/><path d="m5925 8021c3-26 7-59-12-82-8 35-8 50 12 82z"/><path d="m6955 4149c4 9 14 23 28 32 27 18 64 10 65-23 1-52-56-71-97-67-105 11-168 84-189 166-85 322 130 647 317 931 23 35 41 72 60 107 43 102 61 195 51 302-69 2-132 39-169 86-17 22-29 48-33 75-12 79 43 127 124 105 84-23 132-142 144-227 22-2 53 8 68 15 7 92-5 173-27 251-24 83-66 159-65 249 1 75 32 142 104 210-50-69-66-113-73-196-1-47 7-88 19-129 14-49 34-95 49-147 20-68 25-140 30-218 85 66 145 151 147 257 1 68-17 115-54 166-19-4-32-5-45-4-31 3-82 28-69 67 7 20 24 31 45 35 24 5 53 2 70-9 39-26 62-72 73-123 39-181-16-344-163-437-32-189-79-348-207-499-31-31-62-61-93-92-68-66-105-132-153-213-51-106-91-212-122-323-19-119-30-251 68-332 26-22 58-32 98-17z"/><path d="m7326 5613c-21-9-43-14-65-16-5-119-28-219-78-327 80 102 118 217 143 343z"/><path d="m7198 5643c-13 70-43 180-121 184-40 2-54-16-49-54 9-73 116-133 170-130z"/><path d="m6963 5688l-89-143-160 26 106-114-89-144 154 73 105-114-10 159 154 73-161 25z"/><path d="m6852 5243l-88-92-110 46 56-102-89-92 122 28 55-102 21 120 123 28-111 46z"/><path d="m6740 4926l-62-61-73 34 35-71-62-61 84 17 36-71 16 82 83 17-73 33z"/><path d="m6703 4665l-42-40-48 24 22-48-42-40 56 11 22-48 12 54 56 10-49 23z"/><text x="10500" y="14850" font-family="&apos;French Script MT&apos;" font-size="1417.77" transform="matrix(-.0114-.99994 1.0086-.01131-9898 21561.1)">Texto 02</text><path d="m4744 11033c35 39 56 77 66 114 10 37 6 80-10 131-12 37-32 62-61 77-29 15-63 16-103 3-11-3-22-8-33-13 16 22 28 40 38 52l-22 17c-64-83-103-144-119-182-16-39-18-75-8-107 6-18 16-32 30-40 14-8 30-10 47-5 58 18 99 86 123 205 36-4 61-27 75-71 7-21 6-46-1-76-7-30-22-60-44-90l22-15zm-82 256c-13-84-41-133-85-147-13-4-25-4-36 1-11 5-18 13-22 26-7 23-3 45 13 67 16 22 39 38 68 47 16 5 30 7 42 7 12 0 18 0 20 0z" fill-rule="nonzero"/></g></g></g><g font-family="&apos;Arial Black&apos;" font-weight="900" font-size="416.48"><text x="10500" y="14850" transform="matrix(1.0086 0 0 1-4608.23-5365.46)">NN 1</text><text x="10500" y="14850" transform="matrix(1.0086 0 0 1-4593.02-4942.4)">NN 2</text></g><path d="m16830 18795l83-2c3 60-13 92-70 97-31 3-47-7-40-38l28-57zm-354 64c17-54 129-83 186-49 1 50-25 55-71 63-45 8-80-1-114-14zm286-76c-5 23-27 55-27 80 0 123 201 113 235-8 13-44-10-344-12-425-1-37 1-76 0-114 0-40-7-60-7-106 28-13 35-8 72-29 19-11-8-11 49-11-1 57-68 56-49 135 7 30 14 51 34 67 108 81 248-52 139-157-49-47-59-3-63-51 107-25 54-57 47-140 56-15 194-131 250-173 98-74 180-171 266-258 51-52 329-408 336-408 248 0 455 140 528 372 85 271-26 657-141 909-13 29-21 50-34 80-13 29-24 47-37 77-57 138-229 432-315 583-18 31-159 260-164 284-67-1-622-259-708-295-32-13-49-21-79-36l-219-111c-41-22-196-110-212-131 77-18 68-67 68-107 43-4 23-19 41-27zm-1049-27l21-8c7-1 21-2 29-3 21-3 33-7 51-10 34-7 58 16 67 41-19 35-51 33-93 25-66-12-63-20-76-45zm-319-7c21-12 107 0 145 1 10 14 23 24 29 45-64 16-158 13-173-46zm442-396c41-15 102-44 151-67 431-200 952-430 1399-575 90-29 89-26 141-81 57-62 47-45 98-117 365-515 511-1379 591-2016 52-417 75-793 90-1210 5-132-6-305 8-429 95 525 135 1126 87 1670-21 241-118 905-216 1125-47 106-90 206-137 312-104 238-112 182-221 342-53 78-190 226-261 302-280 298-574 466-998 576l-733 168zm622 423c-40 0-211-198-257-267-41-60-61-84-61-147 33-1 68-14 101-21l305-66c0 85-22 291-27 413-1 21-3 47-13 60-4 5-39 26-48 26zm338-576l93 13 18 460-96 3-15-476m374 111c-27 50-107 16-82-45 19-46 103-9 82 45m-470 372c-57-1-62-11-119 4l29-427 119-38-29 460zm-1779-441l16 20c5 5 12 12 18 16 75 56 211-3 211-128 0-167-201-178-291-54-15 21-32 50-38 83-5 28-11 83-7 108 16 105 41 182 104 258 88 106 225 165 363 188 71 12 16 21 50 71 27 39 70 54 121 61 87 12 201-19 150-115h34c0 82 64 101 135 114 30 5 76 6 105-10 95-51 26-140 23-150 119-27 172-122 210-147l154 182c18 18 27 21 44 37l87 81c30 51 22 56 92 76 62 18 107 61 162 94l325 179c21 11 36 16 56 24l291 133c76 34 156 69 236 101 80 32 161 67 244 100 113 45 94 13 171-113 95-156 184-318 274-477 12-22 19-32 32-56 20-41 40-72 59-109 167-332 425-877 280-1309-38-112-106-200-200-270-91-68-223-128-351-128 6-24 19-48 29-71 11-26 19-44 30-70 64-148 135-283 175-441 57-224 98-436 134-681 118-786 27-1626-130-2397-11-52-27-123-29-178-2-85-16-90-38-163-15-50-27-121-36-172-20-115-13-261-27-380l-21-585c0-67-7-125-7-200l-7-740c0-49 0-98 0-147l7-146c0-49-1-98 0-147 0-48 7-89 7-146-1-159 26-346 27-493 1-86 46-545 56-624 11-85 22-180 32-268 10-85 34-181 34-267 0-63-96-632-113-735-7-41-7-85-49-85-48 0-57 76-68 113-13 46-27 96-43 144-138 417-267 1109-309 1541-37 380-64 947-21 1341 2 18 0 35 1 52l36 371c34 265 101 737 166 990 14 55 47 115 68 166 48 118 171 367 197 493 7 33 11 60 18 96 7 35 16 68 17 104l13 573c0 199-11 381-13 573 0 34-5 37-7 66l-14 280c-2 26-6 33-6 67-2 120-56 564-72 676l-82 512c-50 286-124 547-214 815-13 38-64 190-91 210-60 44-123 24-277 174-46 45-92 112-121 174-15 31-32 76-41 106-27 86-5 45-76 78-28-19-51-39-83-59-70-43-43-60-78-209-55-230-17-130 124-235 46-34 81-73 116-119 68-90 151-214 151-345 0-103-73-210-136-252-273-182-482-44-600-62-87-13-175 30-229 97-23 29-70 102-80 141-2 8 3 174 3 209 0 158 180 364 291 373-22 29-147 104-191 132l-129 87c-24 16-38 28-64 44-36 23-93 74-131 84-10-43-100-179-122-220 100-23 226-147 266-238 57-131 27-264-36-382 199-46-72-310-359-333 72-105 50-207-74-207-46 0-61 32-61 80-46-47-74-2-94-2-15 0-23-12-39-20-63-35-183-19-241 13-40 22-48 42-79 62-82-152-223 4-144 142 18 32 33 40 50 64-77 20-129 187-14 187 35 0 48-23 56-52 9-35-12-50-29-74l35-18c12 7 18 10 33 18-30 62-55 158-82 226-35 87-78 174-134 248-83 109-194 200-352 200-58 0-117 0-172-11-47-9-39-11-71 11 1 38 32 130 45 162 114 264 284 400 554 507 56 22 275 97 334 97 57 0 209-244 216-327 56 1 135 65 169 7l13-20c-26 108-115 252-183 340-63 82-130 161-213 223-110 82-314 177-458 92-27-16-47-37-63-64l-11-38zm-12-86l2 2c0 0-3-1-2-2m6-12c0-3 10-8 13-10 22-19 51-58 103-58 93 0 85 134 21 154-38 12-72-2-81-41 35-23 46-12 65-22 72-40-55-102-113-18l-8-6zm2119-33c15-18 66-39 91-51l8 40-99 11m-1184 65c2 41 2 51 25 72l-501 207c-70 27-140 29-116 104 52 18 139-15 199-30 99-24 588-149 619-144 13 106 31 103-34 167-142 139-341 149-551 136-165-10-411-42-507-179-26-38-66-94-75-154 35 22 38 41 111 64 49 16 105 19 159 15 94-8 189-53 256-94 117-73 245-216 325-333l24-27 30 36c-27 29-66 31-48 89 14 45 33 71 85 70zm109-337c48 2-14 30 76 41 3 29 6 22 0 47-5 23-15 11 0 39 14 26 36 44 52 71-64 35-35-9-44 84-124 10-66 73-126 76l-14-83c-35-5-65 12-73-12-11-34-6-7 41-50 146 139 176-25 158-71-21-52-118-39-79 10 19 24 27 8 18 54-57-19-70-51-29-88 67-60 26-87 21-118zm-110 131l-12-32c45-19 35-2 56-33 11-16-4-9 17-13-3 15-46 64-60 78zm292-117l93-76 8 18c-17 14-32 22-48 33l-35 25c-15 13-1 0-9 10l-9-9zm613 6l87-424 11 387-98 37m-871-74c10-36 29-83 43-122 15-44 21-79 32-127l37-1 13 243c-43-9-72 7-124 7zm-33-110c0-17 11-1 4 0 0 0-4 19-4 0m7-20l2 2c0 0-3-1-2-2m257 486l-8-40c33-8 48-30 48-67 0-43-73-59 61-147 119-78 116-62 81-127 75-50 209-144 318-147l-83 298c-21 74-20 46-149 107-32 15-57 25-88 40l-180 82zm-819-567c15-1 34-22 74 20-45 43-133 29-156-21 76-25 35 2 82 1m1618 220c-5-97-4-198-6-295-2-104-18-134 19-204 15-27 7-29 42-31l1 510-55 20zm-876-364l99 178c-27 13-61 45-85 49l-14-228zm-64 44c-12-19-5-37-4-61 3-70-3-44 17-51 6 7 9-2 10 32 1 73 4 76-23 80m670 47c-50 4-110 30-156 40l136-119c19-15 27-28 46-41-1 40-23 77-27 120zm-852 140c-39-1-65-17-101-20l27-160c7-52 15-120 20-174 21 5 48 25 72 35 31 13 55 18 97 18 0 108-97 223-115 300zm286 145l-9-83 519-330-353 305c-71 58-103 106-157 108m609 85l-90 36 183-670c34 64 23 79 9 146-11 54-23 108-34 160-22 106-53 223-68 328m687-263c15-30 23-66 50-118 21-42 40-66 66-101 26-35 52-55 86-82l110-60c0 2-4 3-4 5l-59 102c-24 39-43 64-68 100-55 79-98 136-181 155zm-905-918c55-5 171 8 214-2 37-9 88-56 101-109 54 18 142 75 197 103 58 30 145 71 183 113 22 25 117 126 91 195-7 20-52 65-68 80-161 160-420 126-552 33-167-117-171-242-166-414zm-1033 434c52 8 101-27 153-38 10 63 52 128 88 149-1 128-30 247-47 367-43-8-93-25-138-38-77-22-66-37-120-61 27-56 74-56 55-173 70 2 99-31 81-98-61-28-92-6-110 54 0 2-1 4-2 5l-3 10c-63-19-73 18-117-4-136-69-162 28-130 101 17 37 45 65 63 90-30 29-55 24-70 67 13 67 123 128 221 95 60-20 41-50 113-29 43 12 95 29 138 37-16 84-133 295-192 284-202-40-532-175-655-328-69-85-135-182-169-318 345 31 506-74 652-350 32-61 98-229 105-241l37 5c-50 173-23 274 46 413zm586-335c0 35-17 59 2 84 62 82 160-99 160-118 0-26-20-27-47-27 2-28 4-17 30-11 25 6 30 5 58 5 20 29 37 60 50 97 63 178-18 335-172 422-213 121-450-48-453-180 27-6 62-30 82-46 28-22 49-36 67-68 13 3 77 40 97-25 10-35-15-47-15-55 0-40 25-86 36-124 13-42 25-86 25-136 24 6 49 28 72 43 22 14 51 31 77 37-12 46-12 13-47 13-44 0-20 54-20 87zm599-197c-21-23-5-19-14-46 0 0-51-61 37-90 49-16 69-32 79-34l295 27c31 6 54 32 28 57-21 21-59 17-91 19 38 33 105 32 77 107-50 7-228-136-286-127-1 0-66 113-125 88zm-1377-216c29 19 32 16 74 7 0 43-2 65 7 100-36-9-76-66-81-107m14-73c23 6 21 4 27 27-26 1-18-5-32 8-9 9-10 23-15 32 1-30 10-47 20-67m561 0c36 19 54 33 81-7l-46 69c-45 32-35-22-35-62m88-47l2 2c0 0-3-1-2-2m-47-7v-20c16 4 27 7 41 13-15 21 6-4-41 7m2264-3480c-84-152-133-328-165-500-193-1032-248-1979-68-3023 32-188 70-365 112-549 8-35 115-480 146-520 33 172 55 357 84 530 15 90-8 180-19 270-114 879-149 1733-132 2621 4 198 10 396 18 593 4 87 30 535 25 579zm-1931 3312c17 18 36 69 50 90l37-3c14-22 17-39 24-67 1 1 3 3 3 4 32 51-11 139-57 167-21-49-125-115-73-202 11 6 4 0 15 12zm-89 35c0 83 58 136 102 192 38 48 51 79 99 6 30-45 76-75 76-172 0-118-108-130-122-80-37-27-26-60-95-60-36 0-61 70-61 113zm-242-402c25 59 31 96-9 147-52-36-140-102-139-176 66 25 56 103 129 87l16-52c0-3 2-4 3-5zm-211-25c0 78 42 111 83 152 23 22 39 31 61 53 78 78 78 58 117-8 71-117 8-237-58-237-39 0-34 3-61 20-52-77-142-68-142 20m495 61c7 19 1 23-8 37-9-5-21-18-29-19l37-18m-150-55c0 74 43 93 105 143 23 18 19 23 50 30 116-100 45-245-54-193-29-43-101-44-101 20m81 1279c0 28 75 160-61 160-103 0-90-93-142-93-49 0-24 74 27 114 28 22 52 36 100 42 33 4 79-6 108-25 106-71 35-224 3-224-14 0-34 20-34 27zm866-59c-23 22 13 188-129 167-44-7-82-47-102-47-19 0-34 15-29 35 8 32 156 124 259 30 75-69 62-246 1-186zm2-160c-23 10-25 3-37 34-24 64 30 125 96 94 68-31 36-169-59-128m-215-77c-83 31-40 168 53 134 72-27 43-169-53-134m-1441 460c-54 19-54 139 24 112 59-20 58-140-24-112m-153 23c-72 39-16 117 37 100 56-18 26-134-37-100"/><g stroke="#201e1e"><text x="10500" y="14850" font-family="&apos;Arial&apos;" stroke-linejoin="round" stroke-linecap="round" font-weight="bold" stroke-width="25" font-size="384.54" transform="matrix(.54973-.84064.85327.54159-983.38 20011.7)">00.00.0000</text><g stroke-width="50"><path d="m14563 3700c3 9 2 19-2 28-4 10-12 21-25 33l-21 20c-3 3-6 5-7 6-2 0-3-1-3-3 0-2 0-3 0-5v-11c0-10-1-19-3-26-4-15-13-25-28-30l-12-3c-2-1-3-3-4-5-1-2 2-6 7-12l1-1 38-41c2-3 6-5 11-7 4-1 8 0 14 4 9 7 16 15 23 25 7 10 11 19 14 27zm262-60c0 10-3 18-10 27-6 8-17 17-34 25l-26 14c-4 2-7 3-9 3-2 0-2-1-2-4 0-2 0-3 1-5l3-11c3-10 4-18 4-26 0-15-6-27-19-36l-11-6c-2-2-2-4-2-6 0-2 3-6 10-9l1-1 48-29c3-2 7-3 12-3 4 0 8 3 12 7 6 9 11 19 15 30 4 11 6 21 6 30zm251-2c-1 10-5 18-11 26-7 8-19 15-35 23l-27 12c-4 2-7 3-9 3-2 0-2-1-2-4 0-2 1-3 2-5l3-11c3-9 5-18 6-26 1-15-4-28-16-37l-10-7c-1-2-2-4-2-6 0-2 4-5 11-9l1-1 50-26c3-2 8-3 12-3 4 0 8 3 11 8 6 9 10 20 13 31 3 11 4 22 3 30zm562-184c-9 35-27 70-54 105-27 35-60 67-99 96-32 23-63 40-93 49-29 10-56 12-78 6-15-4-28-11-38-21-11-10-19-23-25-39-6-15-10-33-11-52-1-19 1-39 6-60 9-36 28-71 57-105 29-34 63-61 101-80 23-12 44-20 64-27 20-6 33-9 39-7 2 0 2 1 2 3 0 2-2 3-4 4h-1c-6 3-13 5-18 8-6 3-12 6-19 9-39 21-73 49-102 84-29 35-48 72-58 112-9 37-10 68-2 94 8 25 24 41 46 46 20 5 42 3 64-6 23-9 44-23 64-41 20-19 38-41 55-68 16-26 28-55 36-86 4-14 6-27 7-38 1-12 1-24 0-36-2-13-5-22-10-27-5-5-14-10-27-14-9-2-16-4-19-6-3-2-4-3-4-6 1-2 7-5 18-8l3-1 51-10c4-1 6-1 8-1 2 0 3 0 5 1 10 3 18 11 24 27 8 16 12 32 14 48 2 16 1 32-3 47zm889 522c-1 0-3 1-5 3-2 1-4 3-7 5-11 9-24 17-38 25-14 8-30 15-47 21-47 20-82 24-106 14-18-8-22-23-12-44 3-7 8-15 14-23 6-8 14-19 25-33 6-8 13-16 19-24 6-7 12-15 19-22 6-7 13-15 20-24 7-9 15-18 24-29 13-16 25-30 35-41 10-12 19-22 25-30 7-8 12-15 17-21 4-6 8-11 12-15 5-7 8-12 10-16 7-15 4-26-7-31-10-5-30-3-59 4-29 7-64 20-105 39-38 16-67 32-85 47-7 5-15 12-25 22-10 10-20 20-31 32-11 12-21 24-32 36-11 13-20 25-29 37l-30 39-1 2c-2 3-6 4-10 2l-48-21c-1 0-1-1-2-2 0-1 0-1 0-2 0-1 0-1 0-2 1-1 2-3 3-4 0-1 4-5 12-13 3-2 5-4 8-6 2-2 5-4 8-6l3-3c12-14 23-25 32-34 9-9 20-22 34-39l85-104c12-14 21-26 29-35 7-9 14-17 19-24 5-6 9-12 12-17 3-5 5-10 7-14 6-14 4-23-6-28-6-3-15-3-26-2-12 1-25 4-41 9-16 4-33 10-51 18-18 7-37 15-56 24-25 12-48 24-68 38-21 14-38 27-52 41-15 13-32 33-51 58-19 25-36 49-51 73l-11 2-44-19c-1-1-2-1-2-2-1 0-1-1-1-2 0-1 0-2 0-3l1-1c0-1 1-1 2-2l1-3c1 0 2-1 3-3l24-27 58-69c11-13 21-25 29-34 8-9 15-18 21-25 7-8 13-15 19-24 6-8 14-18 24-29 12-16 23-28 31-38 8-10 14-18 19-25 5-7 8-12 10-15 2-3 4-7 5-11 6-14 2-24-12-30-4-2-12-4-22-6-7-1-9-2-9-1-1 0-1-1-1-2-1-1-1-4 0-6 2-4 7-5 15-4 3 0 6 1 11 1 5 0 12 1 20 2 4 0 9 1 14 2 5 1 11 1 18 2 4 1 7 1 10 2 3 0 5 0 7 0 19 4 30 7 36 9 9 4 11 10 7 19-2 4-4 7-6 11-3 4-7 9-12 15-3 3-5 5-6 5l-115 130 35-20c16-9 29-16 40-22 11-6 21-10 30-14 9-4 17-7 25-10 8-3 16-6 25-9 9-3 17-6 26-9 9-3 18-5 28-8 27-8 48-13 64-13 16-1 30 2 43 8 23 10 29 26 19 49-2 4-5 8-9 14-4 6-10 13-16 20l-3 4-75 87c5-2 9-4 12-6 4-2 7-4 9-5 14-8 29-16 45-23 15-7 31-13 47-19 28-10 54-19 78-25 24-6 46-10 64-11 7 0 15 0 23 1 8 1 14 3 19 5 23 10 29 27 19 50-3 6-6 12-11 19-5 7-10 13-16 20l-3 4-148 172-15 18c-15 19-26 33-31 44-6 12-4 20 4 24 13 6 38-1 76-20 15-7 29-15 44-25 2-2 5-3 7-4 2-1 3-3 4-4 4-2 6-2 9-1 1 1 2 2 3 3 5 2-4 8-6 9zm440-43c-7 11-18 22-33 30-15 9-32 16-51 22-19 6-41 10-64 12-23 2-46 3-70 3l-24-1-16-2c-2 0-4-1-8-3-3-2-3-4-2-6 1-2 5-3 11-3l1 1c2-1 5-1 9 0 43 1 81-4 113-17 32-12 56-30 71-54 7-11 10-23 8-33-2-11-9-20-20-27-16-10-35-12-56-6-27 8-56 25-88 53-32 27-60 60-84 98-41 65-40 111 4 139 17 10 36 17 57 19 21 2 41 0 62-6l19-6c2-1 4-1 4 0 2 1 2 3 1 5-6 9-23 16-52 23-61 14-108 11-141-9-28-17-44-41-46-72-3-31 7-64 30-101 21-33 47-62 78-88 31-25 66-45 103-59 33-12 65-17 95-17 30 0 55 6 74 18 14 8 22 21 25 39 3 17-1 34-10 49zm246 473c-2 3-7 5-13 6l-18 4-22 4-36 5c-6 2-19 3-37 5-13 2-22 2-28 1-7 0-14-1-20-2-7-2-12-4-15-6-14-10-15-23-2-41l8-11 8-7 40-41c-54 11-98 16-130 15-33-1-59-9-80-23-32-22-35-51-9-88 6-9 16-20 27-32 12-12 27-27 47-44l138-123h2c3-3 5-5 7-8 2-2 3-4 5-6 6-8 6-14 1-17-3-2-7-3-13-3l-10-1c-6 0-9 0-9 0l-4-1c-5 0-7-1-8-1-2-2-2-5 0-8 1-2 3-3 5-3 2 0 6 0 12 0 2 1 12 2 30 3l33 4c5 0 10 1 15 1 5 1 10 1 16 1 8 0 13 1 15 1 3 0 5 1 6 2 7 5 7 11 2 19-2 3-6 6-10 9l-1 2-206 182c-13 11-22 19-27 25-6 6-11 12-15 18-18 25-15 46 9 63 4 3 8 5 13 7 5 2 9 3 13 4 16 3 37 4 63 1 31-4 56-9 74-15 18-7 36-16 54-29 13-10 26-20 39-32 13-12 30-27 51-47 18-17 30-29 37-35 7-7 11-12 13-15 6-9 6-16 0-21-5-3-9-5-13-5l-13-2-8-1-1 1-2-1c-2 0-4 0-4 0-2-1-2-3-1-5 0-1 0-3 2-5 1-1 3-2 5-2 3 0 8 0 16 1l70 6 4 1c17 1 29 4 35 8 3 2 5 6 6 10 0 4 0 8-3 11-1 2-4 4-7 8-3 3-7 6-11 9l-1 1-259 216-1 1c-3 2-5 6-9 10-7 9-6 16 1 21 9 6 23 6 42 1l28-7 31-6c11-2 17-3 17-3 1 0 1 0 2 0 1 0 1 1 2 1 1 0 1 0 2 1 4 3 4 6 1 11zm649 219c-14 14-30 22-47 22-3 0-7 0-10-1-3-1-6-1-7-2-1-1-1-1-1-3 0-1 0-2 1-3 1-1 3-2 4-3 6-2 11-6 16-11 13-14 19-30 18-48-2-18-10-35-26-50-16-15-34-24-52-24-18-1-34 6-48 20-11 11-18 25-19 40-1 15 2 35 10 58 4 13 8 23 10 31 2 8 4 15 5 20 1 6 2 11 2 15 0 4-1 9-1 16-1 10-4 20-8 31-5 11-11 19-18 27-26 27-65 41-115 42-49 1-90-14-122-45-22-21-34-44-36-68-2-24 7-46 26-66 19-19 41-29 66-30 14 0 23 2 27 5l2 2c0 1-1 2-2 3l-1 1-3 1-1 1-13 4c-10 5-20 11-28 20-16 17-24 36-23 59 1 23 11 43 31 62 21 20 44 31 69 33 25 2 46-6 63-23 24-25 29-58 15-101l-13-40c-7-20-8-39-4-57 4-18 13-34 25-47 22-22 54-34 97-34 46 1 83 14 109 38 17 16 25 33 26 52 0 19-7 36-23 52zm244 262c-11 9-24 15-41 19-17 4-35 6-56 5-20 0-42-3-64-8-23-5-45-11-67-18l-23-8-15-6c-2-1-4-3-6-6-2-2-2-4 0-6 2-2 6-2 11 0l1 1c2 0 5 1 8 2 41 14 78 20 112 19 34-2 62-12 84-30 11-9 16-19 18-29 1-11-2-21-11-32-12-15-29-22-51-23-28-1-61 7-101 23-39 16-76 39-111 67-60 50-73 94-39 133 13 15 29 27 48 35 19 8 39 13 61 13h21c2 0 4 1 4 1 2 2 1 4 0 5-8 7-27 9-56 6-62-5-106-22-131-52-21-25-28-53-21-83 7-30 27-59 61-87 30-25 64-45 102-59 38-15 76-23 116-24 35-1 67 3 96 12 29 9 51 22 65 40 10 12 14 27 12 44-3 17-11 32-25 44zm242 262c-9 6-24 9-45 9-9-1-15-1-17 0-15-1-23-2-24-3-2-3-1-7 5-10l7-6 2-3c14-12 16-26 6-41-15-22-44-26-88-12l-191 58c-26 8-43 15-50 19-6 4-10 9-12 15-2 6-2 12 2 17 5 8 18 16 39 23 21 7 45 12 73 15l27 3c3 1 5 2 6 3 1 2 1 4-1 5-3 2-10 2-23 2-12-1-25-2-38-4-10-1-21-4-35-7-14-3-27-7-40-11-35-10-58-22-68-38-6-9-7-19-3-29 4-10 12-19 25-28 9-6 22-12 37-19 15-6 34-13 57-20l166-53c29-9 51-18 65-27 10-7 12-14 7-23-2-3-6-7-12-12-2-2-4-4-6-6-2-3-2-6 0-7 2-1 7 0 14 4l22 10c10 4 18 10 25 16 7 6 12 12 16 18 11 17 5 32-17 46-3 2-7 4-9 5-3 1-7 3-12 6l65 15c11 2 19 5 25 8 5 3 9 7 12 11 6 9 8 18 6 28-2 10-7 18-17 24zm427 265c-5 3-10 4-15 3-5-1-14-5-26-11-2-1-3-2-4-2-1-1-3-1-4-2l-158-77-16-27 167 53c25 7 42 13 51 17 9 4 15 9 19 15 3 5 3 10 1 17-2 6-7 11-13 15zm-482 237c-6 3-22 1-50-6-33-9-56-16-69-22-13-6-22-13-26-20-8-14-5-26 11-35 6-3 14-7 25-11 11-4 25-8 42-14l75-25c-62-1-115-8-160-22-44-14-74-32-87-56-11-19-11-38-1-59 10-21 29-39 57-55 48-27 101-43 160-47 58-4 113 6 165 27 50 20 85 47 105 81 13 22 17 43 13 63-4 20-16 37-35 51l-294 98-1 1c-2 0-4 1-6 2-2 1-4 2-6 3-6 3-8 6-6 9 1 1 3 3 6 5 2 1 4 1 5 2 1 1 3 1 5 2 9 2 20 5 33 9 13 4 23 6 31 7 6 1 9 3 9 4 2 3 1 5-2 7zm172-183c12-7 20-13 25-19 5-6 8-13 9-21 3-18-1-37-12-55-22-38-60-58-112-60-19-1-38-1-58 0-20 2-40 5-59 9-19 4-38 9-55 16-18 6-34 14-48 22-22 12-37 27-46 44-9 17-10 32-2 45 4 7 12 14 24 22 12 8 25 14 38 19 33 11 65 17 98 19 17 0 35 0 53-2 19-2 37-4 55-8 18-3 35-8 51-13 16-5 29-11 39-17zm692 309c-5 2-10 2-16 2l-2 1-610 52c-3 0-7-2-13-5-6-4-12-8-19-13l-15-12c-1-1-1-2-2-3-1 0-1-1-1-1 1-1 2-2 3-2 2-1 6-2 11-3 5-1 11-2 17-3l9-1 461-53 7-1c12-3 23-5 32-6 10-1 17-3 23-5 8-3 13-7 15-13 2-5 1-14-2-26h1c-2-4-1-7 2-8 2-1 5 0 9 3l85 68c6 5 10 9 12 15 3 7 0 13-8 16zm-778 105c-14 5-25 6-34 2-2-1-4-2-5-3-8-4-14-7-18-11-4-3-12-7-22-13l-8-5c-4-3-7-5-8-7-1-2 0-4 3-5 2-1 3-1 5-1 7-1 12-2 16-2 4-1 8-2 13-4 20-7 30-20 30-37v-10c1-2 2-3 3-4 1 0 3 1 6 3l35 24 8 6c10 6 17 13 19 20 3 7 0 15-9 24-8 10-19 17-33 22z" fill-rule="nonzero"/><g stroke-linejoin="round" stroke-linecap="round"><path d="m13740 7570c-13-20-21-22-45-12-18-18-35-18-49-14-20 6-34 27-35 58 28-17 38-23 57-1-2 39 21 64 68 53 120-28 77-217-32-207-156 15-254 198-160 309-14 22-1 38 14 52-3-19-5-16 6-33 19 22 29 32 74 44 0 0 0-9-5-11-53-30-95-96-96-156 0-29 8-60 30-93 3 98 29 165 82 206 55 42 127 69 216 90 94 23 155 35 219 108 28 31 43 70 47 110 4 39 1 84-37 129-12-10-24-21-36-31-15 30-47 65-83 67-32 2-52-10-62-29-23-41 3-112 63-124-96-25-165 37-154 116 12 89 94 154 188 135 69-14 123-75 144-128 52-129-19-238-95-301 104-1 194-9 277-63 49-33 83-96 111-126 18-4 28-5 37-3 11 4 17 14 30 31 10-47-15-70-62-67 47-47 106-83 171-56 25 10 37 29 3 57 2 16 2 24 6 26 14 7 25 0 34-11 30-40 13-83-30-100-46-20-101-9-145 17 4-8 9-15 13-23 37-6 60-6 89-33-19 1-31-2-52-6 35-43 59-74 45-128-69 14-77 60-85 121-11-12-13-20-20-36-17 32-12 49 5 75-3 11-11 23-14 35-10 13-19 25-29 38-13-56-39-86-78-125-38-24-72-38-107-34-62 6-106 31-130 65-31 44-29 103 8 155 17 11 28 80-27 91-10 2-21-2-33-15-18 35 11 55 43 48 26-6 54-31 59-84 32 8 64 3 90-11 39-21 64-60 56-99-9-45-44-68-82-63-54 7-68 51-57 76 11 26 49 24 53-6-15-21-9-36 4-41 17-7 47 6 53 51 2 34-24 57-61 64-29 5-49 0-64-11-69-51-52-164 38-187 44-11 82-10 112 3 46 20 72 55 82 93 21 76-12 141-68 185-100 79-268 84-372 36 181-65 162-292-9-275-40 4-89 48-88 88 1 58 48 78 98 69-44-30-39-85-11-94 35-11 64 39 79 62 8 1 17 2 25 3 8 74-63 111-133 123-34 6-69 6-93 1-68-12-130-34-181-85-27-27-48-63-58-110-5-30-6-58 1-81 10-34 35-60 89-73 6 14 8 18 21 27 6-10 8-16 10-28 15-2 31 4 42 14 13 12 22 30 17 53-7 8-15 16-22 24 8 2 18 9 26 11-5 12-13 23-22 31-14 11-26 11-34 5-16-10-19-40 19-44z"/><path d="m14046 8145c-23 4-44-11-45-33-2-22 16-43 39-47 23-4 44 11 45 33 2 22-16 43-39 47z"/><path d="m14015 8019c-20 3-37-9-38-28-2-19 13-37 33-40 20-3 37 9 38 28 2 19-13 37-33 40z"/><path d="m13931 7955c-16 3-30-8-31-23-1-15 11-30 27-33 16-3 30 8 31 23 1 15-11 30-27 33z"/><path d="m13841 7920c-12 2-23-6-24-18-1-12 8-23 21-25 12-2 23 6 24 18 1 12-8 23-21 25z"/><path d="m13767 7889c-9 1-17-4-17-13-1-8 6-16 15-18 9-1 17 4 17 13 1 8-6 16-15 18z"/><path d="m13703 7855c-7 1-13-3-13-10-1-7 5-13 11-14 7-1 13 3 13 10 1 7-5 13-11 14z"/><path d="m14134 7951c48 65 95 124 180 148 106 31 191-8 280-67-63 0-110-8-166-33-23-13-46-26-69-39-81-38-138-40-225-9z"/><path d="m14394 7861c-55-11-89 8-137 29 36 23 62 40 97 42 56 4 145-54 144-113-34 21-63 39-104 41z"/><path d="m14193 7773c18 20 29 39 59 42 33 3 61-18 89-34-20 1-34 1-47-4-19-6-21-8-39-12-18-3-39 1-63 7z"/><path d="m14289 7313c23 21 42 46 54 78 5 80 20 122 92 165 42-138-14-211-146-243z"/><path d="m14222 7441c-61 97-127 130-225 75 49-36 81-55 139-53 31-2 59-9 86-22z"/><path d="m14041 7460c24-2 42-5 57-12 53-25 72-66 68-107-2-23-11-46-25-66 5 62-19 85-75 105-27 34-26 40-25 81z"/><path d="m14461 8062c-71 24-139 33-201-9-20-13-35-32-49-64 77 74 137 85 250 74z"/><path d="m14050 7527c38 9 87 5 124-39-45 28-79 38-124 39z"/><path d="m14364 7362c47 40 61 69 66 131-14-51-35-92-66-131z"/><path d="m14316 7908c29 16 66 19 120-12-43 11-77 17-120 12z"/><path d="m14521 7538c6-26 12-59 37-75-4 36-9 51-37 75z"/><path d="m13954 6117c-4-33 1-44 35-58 1-37 19-54 37-64 26-15 59-8 88 23-44 12-59 16-59 58 38 37 36 87-20 123-147 95-277-140-156-242 172-146 437-62 444 147 34 7 35 38 33 68-14-22-10-22-37-27 0 42 0 63-34 121 0 0-8-9-6-16 26-84 9-196-45-257-26-30-64-52-116-63 87 102 122 197 105 293-17 100-65 201-136 314-74 119-125 195-124 335 0 60 21 115 53 160 31 43 76 87 155 92 3-23 6-46 8-68 42 15 107 17 146-18 34-31 43-64 36-94-15-65-106-111-177-60 75-124 201-132 262-41 69 103 46 253-67 331-83 57-193 51-263 20-170-77-198-261-179-403-106 106-204 191-338 222-80 18-172-12-228-13-22 14-34 24-40 35-7 15-5 32-2 62-54-38-48-86 1-131-90 1-183 26-225 120-16 36-11 68 49 61 13 18 19 26 17 32-7 22-26 27-45 24-67-10-88-71-62-132 29-67 94-114 162-132-11-3-22-6-34-10-43 31-66 56-121 59 19-19 30-34 48-59-76-7-128-14-163-83 83-57 133-19 197 34 0-24-5-33-12-58 47 14 57 38 63 82 13 8 32 12 46 20 21 3 43 6 64 9-38-70-39-127-36-206 16-63 38-112 77-146 69-58 136-78 191-69 71 12 123 74 133 166-8 29 45 110 111 65 12-8 19-24 19-49 50 17 39 68 0 93-32 21-84 24-137-24-25 42-63 69-101 81-58 19-119 5-147-42-32-55-17-115 26-149 61-48 116-18 128 18 12 37-28 75-60 49-4-36-24-46-41-38-23 11-42 55-7 107 30 37 76 33 119 2 34-24 50-51 55-77 23-123-97-219-209-149-54 34-92 74-111 118-28 68-22 130 1 179 48 99 141 130 237 117 174-24 348-192 409-347-243 121-431-128-242-288 44-37 133-43 169-2 51 60 23 129-36 172 16-76-39-127-75-106-45 25-29 105-23 144-7 10-15 19-22 29 60 84 165 48 247-13 40-30 75-65 96-95 57-82 101-169 105-272 3-56-9-113-41-171-23-35-47-64-75-81-41-25-90-25-156 18 7 20 8 27 3 49-16-4-22-8-35-18-17 14-28 35-30 57-3 26 6 53 31 71 15 1 30 1 45 2-6 11-10 28-16 39 17 7 35 10 51 8 24-3 36-16 40-30 7-27-17-61-59-24z"/><path d="m14170 7015c27-20 34-56 16-81-18-24-55-28-82-8-27 20-34 56-16 81 18 24 55 28 82 8z"/><path d="m14087 6856c23-17 29-47 13-68-16-21-47-24-70-7-23 17-29 47-13 68 16 21 47 24 70 7z"/><path d="m14112 6704c19-14 23-39 11-56-13-17-38-19-57-5-19 14-23 39-11 56 13 17 38 19 57 5z"/><path d="m14171 6576c14-11 18-30 8-43-10-13-30-15-44-4-14 11-18 30-8 43 10 13 30 15 44 4z"/><path d="m14218 6468c10-8 13-21 6-31-7-9-21-11-31-3-10 8-13 21-6 31 7 9 21 11 31 3z"/><path d="m14252 6368c8-6 10-17 5-24-5-7-16-8-24-2-8 6-10 17-5 24 5 7 16 8 24 2z"/><path d="m13904 6909c11 115 17 223-47 336-79 140-200 189-345 221 63-65 104-121 139-205 11-37 23-74 34-111 47-122 103-182 219-241z"/><path d="m13558 7087c46-68 97-84 165-112-16 61-26 104-59 143-53 62-196 94-249 35 54-14 100-26 143-66z"/><path d="m13681 6791c0 39 7 70-21 103-31 37-78 46-122 58 20-20 35-34 44-52 14-26 14-31 28-51 15-21 40-39 70-57z"/><path d="m13164 6424c-4 45 0 90 16 134 68 86 92 144 58 262-168-96-179-227-74-396z"/><path d="m13348 6484c151 35 247 1 297-156-82 14-132 28-189 90-33 31-68 51-108 67z"/><path d="m13549 6317c-26 23-47 38-69 46-76 29-133 7-167-38-19-25-31-58-34-93 51 68 96 67 172 28 58 7 62 14 99 56z"/><path d="m13674 7359c94-49 171-110 195-217 8-34 6-69-9-116-11 154-61 228-186 333z"/><path d="m13601 6394c-30 48-84 95-161 89 71-18 115-44 161-89z"/><path d="m13133 6551c-12 89 1 132 53 201-33-65-49-129-53-201z"/><path d="m13680 7053c-15 46-50 88-132 112 53-33 94-62 132-112z"/><path d="m13135 6891c-30-21-67-47-106-38 37 32 56 42 106 38z"/><path d="m14356 8251c-20-14-28-14-49 3-24-11-41-6-53 3-18 12-25 36-15 65 22-25 30-33 56-19 11 37 43 53 85 28 110-64 4-227-101-183-150 63-185 264-55 338-7 25 12 36 32 44-9-17-11-14-5-33 26 14 39 21 88 18 0 0-3-8-8-9-62-11-127-60-148-115-10-27-12-59-2-96 36 91 84 145 151 166 69 22 149 25 244 17 101-8 165-16 254 32 38 20 66 52 84 88 17 35 30 78 6 132-15-6-31-12-46-17-5 32-25 75-60 89-31 12-55 7-72-8-36-31-35-106 21-135-103 7-151 87-114 157 42 80 145 114 233 67 64-35 97-108 100-165 8-137-99-216-196-251 103-33 189-69 254-146 38-46 50-116 68-152 16-10 26-14 36-14 12 0 22 7 40 20-6-47-38-60-83-43 31-59 78-110 151-106 28 2 47 15 22 52 7 15 10 21 15 22 16 2 25-8 30-21 16-47-15-81-63-84-52-4-103 23-138 61 2-8 3-17 5-25 34-17 58-24 78-59-18 6-32 8-53 11 21-52 34-88 2-134-64 35-57 81-44 140-15-8-19-14-32-27-7 35 5 50 31 69 1 11-3 25-2 37-5 15-10 30-16 45-32-48-67-68-119-92-46-10-84-13-118 2-60 25-95 62-107 102-16 51 5 105 61 142 21 5 55 66 4 94-9 5-21 4-38-4-6 38 30 48 59 31 24-14 43-46 30-97 35-2 64-18 85-39 31-32 43-76 22-110-24-39-67-50-103-33-51 23-50 69-31 89 20 20 57 7 51-23-22-15-21-31-10-39 15-12 49-9 70 31 13 31-5 60-39 78-27 14-49 16-68 10-86-26-107-136-25-186 40-24 78-35 112-32 53 4 90 29 113 61 47 64 35 135-5 193-73 105-238 162-357 150 158-117 63-323-102-254-38 16-72 72-58 109 21 53 74 58 121 34-54-15-67-67-42-84 31-21 76 16 99 33 9-2 17-3 26-5 33 67-25 124-91 157-32 16-66 27-92 31-71 10-141 9-208-22-36-17-69-44-94-84-15-27-25-52-26-76-2-35 15-67 63-96 11 11 14 14 30 18 3-12 2-17 0-29 14-6 32-6 46 0 17 7 32 22 35 44-5 10-9 20-14 30 9 0 21 3 30 2-1 13-5 26-12 36-10 14-22 18-32 16-20-5-33-32 5-47z"/><path d="m14853 8692c-22 11-47 3-56-17-9-20 1-45 23-56 22-11 47-3 56 17 9 20-1 45-23 56z"/><path d="m14780 8584c-18 9-40 3-48-14-8-17 1-38 19-47 18-9 40-3 48 14 8 17-1 38-19 47z"/><path d="m14676 8550c-15 8-32 2-39-12-6-14 1-31 16-39 15-8 32-2 39 12 6 14-1 31-16 39z"/><path d="m14575 8546c-12 6-25 2-30-9-5-11 0-24 12-30 12-6 25-2 30 9 5 11 0 24-12 30z"/><path d="m14490 8540c-8 4-18 1-21-6-4-8 0-17 9-21 8-4 18-1 21 6 4 8 0 17-9 21z"/><path d="m14416 8528c-6 3-14 1-17-5-3-6 0-13 7-17 6-3 14-1 17 5 3 6 0 13-7 17z"/><path d="m14875 8483c69 46 136 86 228 82 116-5 186-67 256-150-63 19-111 27-176 22-27-5-55-10-82-15-93-10-150 6-226 62z"/><path d="m15104 8318c-58 7-86 35-126 70 44 10 75 18 110 9 57-14 125-96 105-150-27 30-50 56-90 71z"/><path d="m14875 8299c25 13 42 28 73 21 34-8 55-36 77-60-19 7-33 11-48 11-21 0-24-1-42 1-18 2-38 13-60 27z"/><path d="m14815 7839c30 12 57 30 80 55 32 73 61 108 147 125-5-142-84-192-227-181z"/><path d="m14792 7980c-28 110-82 161-198 141 36-49 62-77 120-93 30-11 55-27 78-48z"/><path d="m14619 8054c23-9 40-18 52-30 44-40 49-84 32-122-10-21-26-39-47-53 26 56 10 85-40 121-15 40-12 45 3 83z"/><path d="m15238 8484c-62 45-127 74-203 54-24-6-46-19-70-45 101 45 165 36 273-10z"/><path d="m14650 8114c40-4 88-23 110-75-35 40-66 60-110 75z"/><path d="m14906 7862c60 22 83 45 110 102-31-43-66-75-110-102z"/><path d="m15042 8386c34 6 72-3 115-49-39 23-71 40-115 49z"/><path d="m15121 7977c-3-26-8-59 12-82 8 35 8 50-12 82z"/><path d="m14084 4105c-4 9-14 23-28 32-27 18-65 10-65-23-1-52 57-71 97-67 106 11 169 84 190 166 86 322-131 647-319 931-23 35-42 72-61 107-43 102-62 195-51 302 69 2 132 39 170 86 17 22 29 48 33 75 12 79-43 127-125 105-85-23-133-142-145-227-22-2-53 8-68 15-7 92 5 173 27 251 24 83 66 159 65 249-1 75-32 142-105 210 50-69 67-113 73-196 1-47-7-88-19-129-14-49-34-95-49-147-20-68-25-140-31-218-86 66-146 151-148 257-1 68 17 115 55 166 19-4 32-5 45-4 32 3 83 28 70 67-7 20-25 31-45 35-25 5-54 2-70-9-39-26-62-72-73-123-39-181 17-344 164-437 33-189 80-348 209-499 31-31 62-61 93-92 69-66 105-132 154-213 51-106 91-212 123-323 20-119 30-251-68-332-26-22-58-32-98-17z"/><path d="m13712 5569c21-9 43-14 66-16 5-119 29-219 78-327-81 102-119 217-144 343z"/><path d="m13840 5599c13 70 43 180 121 184 40 2 54-16 49-54-9-73-117-133-171-130z"/><path d="m14076 5644l90-143 161 26-107-114 90-144-155 73-106-114 11 159-156 73 162 25z"/><path d="m14188 5199l89-92 110 46-55-103 89-91-124 28-55-102-20 120-124 28 111 46z"/><path d="m14301 4882l62-61 74 34-36-71 62-61-84 17-35-71-17 82-84 17 74 33z"/><path d="m14338 4621l43-40 48 24-22-48 42-40-56 10-22-48-13 55-56 10 49 23z"/><g font-family="&apos;French Script MT&apos;" font-size="1417.77"><text x="10500" y="14850" transform="matrix(0-1 1.01502 0 1690.86 26020)"> Texto 01</text><text x="10500" y="14850" transform="matrix(-.01148-.99994 1.01496-.01131 1841.32 21517)">Texto 02</text></g><path d="m16643 11103c10 37 6 80-10 131-12 37-32 62-61 77-29 15-64 16-104 3-11-3-22-8-33-13 16 22 29 40 38 52l-22 17c-64-83-104-144-120-182-16-39-19-75-8-107 6-18 16-32 30-40 14-8 30-10 47-5 58 18 99 86 123 205 36-4 61-27 75-71 7-21 6-46-1-76-7-30-22-60-44-90 45-30 79 62 89 99zm-149 141c-13-84-41-133-86-147-13-4-25-4-36 1-11 5-18 13-22 26-7 23-3 45 14 67 16 22 39 38 68 47 16 5 30 7 43 7 12 0 18 0 20 0z" fill-rule="nonzero"/></g></g></g><g font-family="&apos;Arial Black&apos;" font-weight="900" font-size="416.48"><text x="10500" y="14850" transform="matrix(1.01502 0 0 1 3548-5409.56)">NN 1</text><text x="10500" y="14850" transform="matrix(1.01502 0 0 1 3563.3-4986.5)">NN 2</text></g></g><g fill="#373435" font-family="&apos;Arial&apos;" font-weight="normal" font-size="423.33"><text x="1242" y="22993">DESC 1</text><text x="1242" y="23420">DESC 2</text><text x="1220" y="23864">DESC 3</text></g></svg>