<svg xmlns="http://www.w3.org/2000/svg" width="744.09" height="1052.36" viewBox="0 0 21000 29700" shape-rendering="geometricPrecision" image-rendering="optimizeQuality" fill-rule="evenodd" clip-rule="evenodd"><defs><clipPath id="0"><path d="m6816 20102c-1040 513-3016 414-3616-535-598-945-462-3626-519-4941-142-3292-501-5788-594-8443-103-2948 1876-4897 4243-5446 3338-774 3141 3762 2677 6094-243 1253-724 2343-1031 3568-566 2259-53 5707-250 8058-101 813-368 1352-910 1644z"/></clipPath><clipPath id="1"><path d="m14184 20090c1040 513 3016 414 3616-535 598-945 462-3626 519-4941 142-3292 501-5788 594-8443 103-2948-1876-4897-4243-5446-3338-774-3141 3762-2677 6094 243 1253 724 2343 1031 3568 566 2259 53 5707 250 8058 101 813 368 1352 910 1644z"/></clipPath></defs><text x="9938" y="20932" fill="#201e1e" font-family="&apos;Arial Black&apos;" stroke="#201e1e" font-weight="900" stroke-width="7.62" font-size="705.56">32</text><g fill="none" stroke-width="80"><g stroke="#322f30"><circle cx="10533" cy="1326" r="460"/><path d="m10533 515v1621"/><path d="m9723 1326h1621"/></g><g stroke="#373435"><circle cx="10390" cy="22303" r="460"/><path d="m10390 21493v1621"/><path d="m9580 22303h1621"/></g></g><rect x="9843" y="22722" width="1347" height="637" rx="318" fill="#fff" stroke="#fff" stroke-width="20"/><g fill="#373435" font-family="&apos;Arial&apos;" font-weight="normal" font-size="423.33"><text x="665" y="24080">DESC 1</text><text x="630" y="24685">DESC 2</text><text x="612" y="25285">DESC 3</text></g><path d="m6816 20102c-1040 513-3016 414-3616-535-598-945-462-3626-519-4941-142-3292-501-5788-594-8443-103-2948 1876-4897 4243-5446 3338-774 3141 3762 2677 6094-243 1253-724 2343-1031 3568-566 2259-53 5707-250 8058-101 813-368 1352-910 1644z" fill="#fff"/><g clip-path="url(#0)"><g><g stroke="#201e1e"><path d="m2824 16570c0 0 906 311 994-422 0 0 331-3085 508-1620 0 0 508 3351 685 2508 0 0 221-821 817-377 0 0 177 1864 287 954 0 0 221-4217 420-2930 0 0 309 3174 619 2264 0 0-147-326 620-385" fill="none" stroke-linejoin="round" stroke-linecap="round" stroke-width="150"/><g fill="#201e1e"><g font-family="&apos;Bell MT&apos;" stroke-width="50"><text x="10500" y="14850" font-size="1917.98" transform="matrix(.38837 0 0 .9057-1049.74 4693.67)">Dra.</text><text x="10500" y="14850" font-size="1562.73" transform="matrix(.41328 0 0 .9057-1401.29 5916.83)">Texto 1</text></g><g stroke-linejoin="round" stroke-linecap="round"><g stroke-width="20"><path d="m4622 7169c2-10 12-23 22-32 36-34 86-53 159-57 30-2 116-3 116 29 0 12-13 19-26 21-33 5-63-12-98-16-81-8-137 16-174 55z"/><path d="m5045 7559c4-1 4 2 2 2-3 18-9 30-8 46 3 29 30 44 37 60-26-10-61-17-65-46-4-28 18-44 33-63z"/><path d="m5381 7675c1 0 3 0 4 0-14 76-57 149-116 197-72 59-206 89-297 32 7-16 19-24 22-39 13-63-44-100-69-131 166 38 338 0 455-59zm-305 119c-30 0-58-8-85-15 20 22 50 70 21 101 140 61 261-38 308-139 0-1 0-3-2-2-59 24-158 56-242 55z"/></g><path d="m5407 7819c-19 3-24-15-19-22 10-16 39 5 19 22z" stroke-width="50"/><path d="m6095 10921c8 97 19 194 23 292 6 152-2 310-15 462-4 47-15 94-20 142-12 100-16 200-18 300-2 103-5 204 1 303 17 283 32 581 56 870-23 6-51 7-81 7 4 21 17 38 28 56 58 86 131 154 212 225 32 28 106 102 43 142-24 15-60 16-96 19-98 10-231 16-317-17-113-43-184-136-239-234-3 54 1 100-2 154-45-1-89-2-134-3 2-36 1-70 0-103 0-33 3-69-4-99-8-34-43-57-43-93-15 4-42 10-58 1-9-7-11-20-14-31-53-164-45-399-36-620 8-202 33-394 59-582 2-13 3-28 5-42 2-13 7-26 7-37 0-10-6-22-8-33-11-79-13-173-15-259-2-98-12-196-23-288-11-92-24-186-40-275-12-68-23-133-44-192-6-17-11-40-29-49-11 72-13 143-20 214-20 190-44 379-63 580-2 17-7 38-6 53 1 11 8 26 12 40 26 87 41 195 52 300 32 299 36 622 39 962 0 27 1 64 2 99 1 36 5 69-4 90-12 28-36 38-73 42-1 29-24 56-30 87-7 36-6 78-9 118-3 39-6 79-7 118-40-1-81-2-121-3 1-32 2-78 1-114-59 107-147 197-285 232-98 25-242 22-356 2-39-7-81-15-86-44-3-17 5-39 12-50 8-13 27-28 44-41 109-83 217-182 272-320-40 0-74 5-113 6 20-91 21-190 24-289 3-103 14-207 12-311-2-101-5-201-8-301-5-198-22-379-42-569-20-188-20-389-15-595 2-100 14-200 5-303-81-7-166-15-218-49-14-9-25-18-31-34 2-54 29-99 44-150 39-134 67-289 94-443 3-15 9-32 7-41-3-17-39-37-58-52-58-46-117-112-162-167-46-56-93-127-132-196-13-24-30-46-39-69-13-32-21-71-29-106-26-106-39-240-13-362 8-38 18-75 28-111 31-107 78-193 124-284 61-120 124-243 188-359 33-60 63-116 106-166 42-49 89-87 146-121-18-41-47-78-70-120-63-116-120-261-150-412-10-52-21-105-28-159-22-173-6-353 30-524 44-209 122-389 216-552 44-77 95-154 159-220 62-64 139-123 258-107 13 2 40-14 56-18 146-40 285 46 368 115 59 49 108 103 158 162 16 19 33 38 50 56 138 150 251 320 341 507 95 196 164 393 167 680 1 139-8 277-21 412-11 112-34 220-53 330-3 16-9 34-8 46 1 14 16 33 26 53 61 119 144 228 203 345 50 101 97 216 124 348 9 42 22 86 27 128 25 208-24 398-84 546-61 152-155 271-217 418 52 159 92 356 158 517 16 41 29 79-3 105-43 34-131 29-197 39zm-1409-3052c-30-42-59-97-79-151-58-156-91-373-46-576 39-177 119-331 220-451 33-39 73-87 111-109 23-13 60-22 92-17 3-13-5-28 3-33 151 15 244 107 325 199 124 139 217 312 297 488 28 61 49 123 83 178 63 102 141 189 222 269 4 4 12 10 12 18-60-19-105-63-142-102-5-5-14-18-17-11 25 67 68 127 104 174-59-33-101-85-135-139-12-19-20-41-35-58-47 130-91 256-158 362-10 16-26 29-31 43-7 20-3 47-6 68 40 0 70 3 93 16 36 19 52 58 79 85 18-6 51-5 66 4 108 306 54 777 32 1153 65-119 108-260 148-406 20-72 43-147 54-225 12-79 23-160 38-243 14-77 30-155 44-236 27-159 36-346 40-523 2-86-8-171-22-251-26-150-79-285-135-407-57-124-129-237-207-339-77-101-161-195-255-290-42-42-88-90-142-131-70-53-166-97-269-71-22 6-43 19-64 20-23 1-46-7-72-4-11 1-28 6-41 10-76 26-140 94-189 160-51 69-95 147-133 220-82 157-145 323-181 533-80 461 66 860 241 1118 32-21 68-38 116-41 13-64 60-103 132-95-3-27-9-50-11-77-106-86-170-213-237-337-9 86 29 154 53 208 0-1 0-1 0-2zm633-623c-4 48 78 53 87 7 14-58-41-66-73-56-68 22-116 70-156 110 44-76 121-144 241-140 34 4 62 17 90 23 8 4 17 8 25 9-26-38-42-86-61-131-74-25-149-12-205 14-13 6-32 15-54 21-12 4-51 19-55-2-2-21 53-34 76-41 72-15 172-31 234-4-15-62-40-118-68-166-34-57-73-110-116-157-56-61-122-130-207-154-19-5-40-5-57-6-3 8 13 28 10 35-54-27-124-2-158 29-23 21-44 51-66 77-136 169-242 396-232 709 1 25-2 53 3 70 3 13 18 28 27 45 62 110 124 213 193 308 82 114 167 227 337 237 165 10 287-94 367-197 86-112 141-238 197-383-18-45-35-90-54-133-20-43-45-80-72-116-27 24-51 53-93 61 17-19 51-34 50-63-1-20-30-40-50-50-27-14-61-17-88-12 22 5 32 16 40 32 31 62-35 117-87 92-43-20-46-101-6-114-8 9-20 28-16 45zm96 785l7-3c-1 27-1 56-2 83 29-14 60-81 59-128-13 14-52 32-63 47zm-45 29c1 31-4 67 0 94 10-14 44-23 50-43 7-23-4-53 2-83-16 5-38 25-52 32zm-453 41l3-20c0-16 7-22 8-38-7-2-23-21-33-21-3 20 10 67 22 79zm570 23c5 14 38 28 48 36 33 27 75 86 99 152 58 158 45 375 10 560-7 39-19 83-5 107 21 34 96 26 115-6 9-15 11-42 14-68 31-215 32-427-30-608-30-88-65-148-125-201-23-20-60-60-99-49-18 5-39 45-27 76zm-570-23l13 7c11 11 24 20 38 27 0-20 2-46 3-66-15-4-29-22-43-27 0 17-11 42-11 58zm401-14c1 32-5 70 0 99 12-8 41-22 52-32 1-31 2-63 2-94-1 0-3 0-4 0-11 7-50 27-50 27zm-350 49l14 6c15 5 23 17 38 23 1-22 1-44 2-66-11-9-39-22-50-30-1 21-2 45-3 66zm350-49c-12 6-41 11-50 21 3 26 4 69 0 94 17 1 34-15 49-16-1-32 5-70 0-99zm-99 35c-1 31-1 61-2 92 9 2 42-7 51-12 1-31 2-63 2-94-1 0-3 0-4 0-11 4-34 12-47 14zm-199 43l10 7c14 5 22 14 38 16 1-24 1-48 2-72-14-2-35-14-49-17-1 23-1 43-2 66zm-171-61c-57 1-73 50-84 108-19 100-31 207-33 317-4 168 19 295 52 398 25-7 42-22 65-31-58-199-37-493 8-697 7-32 20-63 15-90-7-6-16-5-23-5zm321 26c-1 29-1 54-2 83 13 0 32 1 49 1 1-31 1-61 2-92-12 2-37 6-49 8zm-102 59l13 7c12 3 22 8 36 10 1-26 1-53 2-79-14 0-37-8-49-10-1 25-1 47-2 72zm102-59c-7-1-42-7-51-4-1 26-1 53-2 79 12 0 42 11 51 8 1-28 1-56 2-83zm295 40c-136 268-205 740-158 1139 3 29 2 55 11 77 40-116 83-218 134-323 41-86 91-178 149-248 10-12 21-23 24-32 10-32-2-74 0-103-54-14-98-40-128-78 31-34 65-68 98-96 12-10 27-17 37-30 4-114-42-190-98-250-19-20-43-51-63-59-3 1-5 2-6 4zm-603 77c-12 91-11 223-12 302 30 41 110 50 172 35-28 79-70 142-105 212 147 135 257 311 339 507 2 6 4 14 10 18-13-496-170-851-366-1168-1 0-3 0-4 0-22 8-30 58-34 93zm375 18c-97 16-182-22-235-61-8-6-15-15-25-16 27 48 48 101 73 151 25 49 52 98 75 149 12 26 20 55 30 82 32 81 63 160 96 239 33-224 96-427 147-624-37 31-106 70-162 79zm-523-53c-57 23-113 47-160 77-49 32-86 70-122 120-64 88-116 208-172 316-56 107-109 216-161 327-54 114-91 263-87 408 6 204 99 364 193 481 104 130 215 228 341 338 36-58 77-111 100-188 16-53 29-120 36-183 3-23 10-50 8-68-1-8-10-19-16-31-61-123-126-230-205-328-30-37-60-71-89-101 28 1 44 14 66 21 4-59-3-111-18-150-6-16-15-26-16-38 9 5 18 12 27 18 10 6 19 14 27 16 11-43 27-76 47-108 7-11 19-23 20-32 1-11-7-31-10-46-9-51-14-104 0-160 18 83 39 171 73 234 5 9 11 19 12 29-11 1-44-26-55-17-12 10 3 38 7 53 25 91 26 212 11 318-2 13-6 28-5 37 2 13 22 40 29 51 31 50 67 107 97 145 2-12-2-29 3-37 46 140 23 328-30 445-48 105-125 186-183 274-8 13-15 27-26 37 23-51 52-96 74-147-16-19-43-35-58-54-4-5-10-23-15-16-1 36-10 69-15 105-11 77-34 143-48 218-13 70-34 146-58 207-8 21-21 52-14 70 9 25 75 34 118 38 158 16 295 5 422-20 78-15 161-42 232-75 32-15 67-33 99-57 25-19 67-51 81-77 11-21 14-52 17-83 10-93 10-198 16-294 8-134 11-252 9-377-18 14-66 21-72-6-7-29 14-44 23-52 14-14 34-21 41-32 10-14 14-50 15-74 2-74-16-143-33-203-36-123-80-232-148-331-32-46-74-104-116-124-41-19-88-8-118 12-29 20-58 56-83 92-34 49-61 93-57 167 3 54 12 110 22 165 23 133 64 247 143 328 17 17 38 40 52 43 16 3 35-3 53-1 14 2 32 5 42 12 27 17 31 62-4 72-45 14-79-19-104-38-17-13-33-26-48-39-97-84-142-200-173-344-21-98-34-197-40-304-5-106-7-222 46-302-47-177-96-439-48-657 6-29 23-56 21-85-8-1-13 0-17 2zm930 223c1 15 6 35 3 46-3 9-21 22-31 30-12 11-24 20-33 28-25 22-47 41-59 64 32 27 68 51 116 62 4 28 2 71 2 97 24-118 20-264-2-371 0 16 2 29 3 44zm355 384c-22 78-45 176-74 253-5 13-14 29-14 35 1 11 17 25 27 38 30 42 45 83 56 140 14 73 6 180-8 243-15 68-51 136-83 184-23 34-55 80-84 114-10 12-27 27-29 39-1 6 5 25 8 37 9 37 23 76 34 104 53 139 100 258 194 356 51-58 89-128 126-199 37-70 80-138 118-210 37-70 69-147 95-232 26-87 45-185 43-291-8-418-197-661-352-937 0-1 0-3-2-2-17 105-24 216-55 328zm-1112 83c116 59 198 153 264 257 11 18 28 45 37 54-66-121-132-240-220-335-29-32-62-62-91-94 14-26 32-51 47-78 15-27 31-56 38-85-28 15-69 10-98-3-13 100-10 216 23 284zm1098 1465c-49-57-92-119-130-188-36-67-73-140-95-222-17-63-25-135-27-209 0-24-2-51 6-77 9 45 22 85 51 111 35-32 75-84 103-131 9-15 25-38 27-54 2-17-6-41-9-62-11-82-15-192 0-272 4-20 15-41 14-57-1-9-8-20-12-29-5-9-10-19-19-25-30 29-41 74-64 110-18 27-39 50-61 69-7 6-13 18-24 17 6-57 12-117 11-175-9-2-13 8-19 13-7 5-17 10-26 13-162 56-250-154-154-252 10-10 25-19 41-25 16-49 39-104 42-159-3 29-17 43-31 63-123 175-210 392-275 627-5 19-14 38-14 52 0 14 9 30 14 46 22 77 28 167 11 255 24-6 41 4 46 19 14 42-28 72-43 84 1 73-1 154-3 226-4 143-6 263-12 414-1 29-7 59-4 88 6 65 64 109 112 139 42 26 94 42 148 56 187 48 330 49 530 40 42-2 142-8 148-42 3-15-13-44-20-62-8-22-16-47-20-64-24-96-45-176-75-259-15-41-30-82-40-128-20 32-32 72-56 99 21 43 57 96 69 133-39-67-90-125-140-183zm-999-1355c-35-33-112-105-175-57-63 47-70 201-52 299 12-10 16-27 22-41 43-90 101-175 230-170-3-13-15-22-25-31zm728 23c-54 12-88-30-114-58 0-1 0-3-2-2-69 66-22 194 74 188 65-4 84-69 85-147-18 4-27 15-43 19zm-1228 289c-7 77 14 134 43 174 1 1 3 14 8 7 4-109 6-215-14-301-14 32-33 75-37 120zm1462 184c16-63 18-158 5-221 0-2-2-3-4-2-5 72-8 157-1 224zm-777 1298c16 1 33 6 47 14 30 17 74 56 94 81 29 37 47 90 63 144 14 50 25 103 35 154 20 111 36 221 47 332 6 58 12 115 15 174 10 179 10 366 45 517-13-17-25-38-33-58-3-7-3-17-10-22-34 357-87 813-11 1143 40-21 78-39 127-47 51-8 108-2 168 0 110 3 230 37 322 2-17-184-31-373-44-565-13-194-26-391-13-593 12-194 38-390 48-587 10-201-2-398-9-593-152 4-304-6-438-29-134-23-242-80-320-153-1 0-3 0-4 0-38 33-83 58-128 84zm-14 1015c14-96 20-195 31-293 15-150 38-289 51-435 5-51 5-102 8-156 1-16 7-39 3-55-3-11-22-30-37-43-21-18-43-33-61-26-156 66-343 119-572 115 7 99 0 197-5 296-10 205-6 406 13 590 10 93 16 185 23 277 23 276 34 573 15 880-6 98-2 198-30 284 78-17 167-18 243-16 29 1 61 3 89 7 27 4 53 13 81 15 75 7 157 3 220-10 14-3 29-4 37-12-6-472 6-966-84-1356-15 75-31 150-40 232-12-99 1-198 16-296zm498 1601c31 23 52 63 74 94 60 85 126 154 241 182 69 17 139 15 219 10 60-4 155 3 112-65-26-43-63-66-102-97-68-54-128-119-174-198-23-40-27-50-80-55-81-7-178-25-270-18-61 4-116 17-144 53 42 61 30 184 32 277 26-4 59 0 83 4-3-47-5-107 4-153-7-13-16-21-27-29-10-8-23-15-31-25 29 0 47 7 63 19zm-613-121c-64-5-126-6-185-11-34-3-68-7-96-5-43 4-62 55-79 86-32 58-75 101-121 146-43 42-96 77-144 119-9 8-41 31-35 54 4 18 43 26 65 30 165 28 336 18 440-55 66-46 110-108 149-176 22-39 37-81 98-81-16 20-44 24-48 56-2 12 5 27 5 42 2 36-3 74-7 105 25 1 47-4 70 2 14-90 1-215 29-304-50 3-93-4-143-8z" stroke-width="40"/><path d="m4870 7232c11 15 21 16 27 29 22 46-12 99-58 99-29 0-65-22-67-63-2-41 22-61 53-71-48-8-114 27-134 65-18 35 6 58 22 75-22-3-66-20-67-43-1-8 13-30 18-39 30-48 79-94 160-84 80 10 131 69 177 103 2 4 7 9 0 4-37-31-78-59-130-76zm-71 11c-17 24 1 58 26 60 49 3 49-80-2-75-6 1-20 9-24 15z" stroke-width="20"/></g></g></g><g fill="#373435" font-family="&apos;Arial&apos;" font-size="601.33"><text x="10500" y="14850" transform="matrix(.8798 0 0 .9057-2607.16-7484.21)">NN 1</text><text x="10500" y="14850" transform="matrix(.8798 0 0 .9057-2608.84-6946.08)">NN 2</text></g></g></g><path d="m14184 20090c1040 513 3016 414 3616-535 598-945 462-3626 519-4941 142-3292 501-5788 594-8443 103-2948-1876-4897-4243-5446-3338-774-3141 3762-2677 6094 243 1253 724 2343 1031 3568 566 2259 53 5707 250 8058 101 813 368 1352 910 1644z" fill="#fff"/><g clip-path="url(#1)"><g><g stroke="#201e1e"><g stroke-linejoin="round" stroke-linecap="round"><g fill="#201e1e"><g stroke-width="20"><path d="m15062 7157c2-10 12-23 22-32 36-34 86-53 159-57 30-2 116-3 116 29 0 12-13 19-26 21-33 5-63-12-98-16-81-8-137 16-174 55z"/><path d="m15485 7547c4-1 4 2 2 2-3 18-9 30-8 46 3 29 30 44 37 60-26-10-61-17-65-46-4-28 18-44 33-63z"/><path d="m15821 7663c1 0 3 0 4 0-14 76-57 149-116 197-72 59-206 89-297 32 7-16 19-24 22-39 13-63-44-100-69-131 166 38 338 0 455-59zm-305 119c-30 0-58-8-85-15 20 22 50 70 21 101 140 61 261-38 308-139 0-1 0-3-2-2-59 24-158 56-242 55z"/></g><path d="m15848 7807c-19 3-24-15-19-22 10-16 39 5 19 22z" stroke-width="50"/><path d="m16535 10909c8 97 19 194 23 292 6 152-2 310-15 462-4 47-15 94-21 142-12 100-16 200-18 300-2 103-5 204 1 303 17 283 32 581 56 870-23 6-51 7-81 7 4 21 17 38 28 56 58 86 131 154 212 225 32 28 106 102 43 142-24 15-60 16-96 19-98 10-231 16-317-17-113-43-184-136-239-234-3 54 1 100-2 154-45-1-89-2-134-3 2-36 1-70 0-103 0-33 3-69-4-99-8-34-43-57-43-93-15 4-42 10-58 1-9-7-11-20-14-31-53-164-45-399-36-620 8-202 33-394 59-582 2-13 3-28 5-42 2-13 7-26 7-37 0-10-6-22-8-33-11-79-13-173-15-259-2-98-12-196-23-288-11-92-24-186-40-275-12-68-23-133-44-192-6-17-11-40-29-49-11 72-13 143-20 214-20 190-44 379-63 580-2 17-7 38-6 53 1 11 8 26 12 40 26 87 41 195 52 300 32 299 36 622 39 962 0 27 1 64 2 99 1 36 5 69-4 90-12 28-36 38-73 42-1 29-24 56-30 87-7 36-6 78-9 118-3 39-6 79-7 118-40-1-81-2-121-3 1-32 2-78 1-114-59 107-147 197-285 232-98 25-242 22-356 2-39-7-81-15-86-44-3-17 5-39 12-50 8-13 27-28 44-41 109-83 217-182 272-320-40 0-74 5-113 6 20-91 21-190 24-289 3-103 14-207 12-311-2-101-5-201-8-301-5-198-22-379-42-569-20-188-20-389-15-595 2-100 14-200 5-303-81-7-166-15-218-49-14-9-25-18-31-34 2-54 29-99 44-150 39-134 67-289 94-443 3-15 9-32 7-41-3-17-39-37-58-52-58-46-117-112-162-167-46-56-93-127-132-196-13-24-30-46-39-69-13-32-21-71-29-106-26-106-39-240-13-362 8-38 18-75 28-111 31-107 78-193 124-284 61-120 124-243 188-359 33-60 63-116 106-166 42-49 89-87 146-121-18-41-47-78-70-120-63-116-120-261-150-412-10-52-21-105-28-159-22-173-6-353 30-524 44-209 122-389 216-552 44-77 95-154 159-220 62-64 139-123 258-107 13 2 40-14 56-18 146-40 285 46 368 115 59 49 108 103 158 162 16 19 33 38 50 56 138 150 251 320 341 507 95 196 164 393 167 680 1 139-8 277-21 412-11 112-34 220-53 330-3 16-9 34-8 46 1 14 16 33 26 53 61 119 144 228 203 345 50 101 97 216 124 348 9 42 22 86 27 128 25 208-24 398-84 546-61 152-155 271-217 418 52 159 92 356 158 517 16 41 29 79-3 105-43 34-131 29-197 39zm-1409-3052c-30-42-59-97-79-151-58-156-91-373-46-576 39-177 119-331 220-451 33-39 73-87 111-109 23-13 60-22 92-17 3-13-5-28 3-33 151 15 244 107 325 199 124 139 217 312 297 488 28 61 49 123 83 178 63 102 141 189 222 269 4 4 12 10 12 18-60-19-105-63-142-102-5-5-14-18-17-11 25 67 68 127 104 174-59-33-101-85-135-139-12-19-20-41-35-58-47 130-91 256-158 362-10 16-26 29-31 43-7 20-3 47-6 68 40 0 70 3 93 16 36 19 52 58 79 85 18-6 51-5 66 4 108 306 54 777 32 1153 65-119 108-260 148-406 20-72 43-147 54-225 12-79 23-160 38-243 14-77 30-155 44-236 27-159 36-346 40-523 2-86-8-171-22-251-26-150-79-285-135-407-57-124-129-237-207-339-77-101-161-195-255-290-42-42-88-90-142-131-70-53-166-97-269-71-22 6-43 19-64 20-23 1-46-7-72-4-11 1-28 6-41 10-76 26-140 94-189 160-51 69-95 147-133 220-82 157-145 323-181 533-80 461 66 860 241 1118 32-21 68-38 116-41 13-64 60-103 132-95-3-27-9-50-11-77-106-86-170-213-237-337-9 86 29 154 53 208 0-1 0-1 0-2zm633-623c-4 48 78 53 87 7 14-58-41-66-73-56-68 22-116 70-156 110 44-76 121-144 241-140 34 4 62 17 90 23 8 4 17 8 25 9-26-38-42-86-61-131-74-25-149-12-205 14-13 6-32 15-54 21-12 4-51 19-55-2-2-21 53-34 76-41 72-15 172-31 234-4-15-62-40-118-68-166-34-57-73-110-116-157-56-61-122-130-207-154-19-5-40-5-57-6-3 8 13 28 10 35-54-27-124-2-158 29-23 21-44 51-66 77-136 169-242 396-232 709 1 25-2 53 3 70 3 13 18 28 27 45 62 110 124 213 193 308 82 114 167 227 337 237 165 10 287-94 367-197 86-112 141-238 197-383-18-45-35-90-54-133-20-43-45-80-72-116-27 24-51 53-93 61 17-19 51-34 50-63-1-20-30-40-50-50-27-14-61-17-88-12 22 5 32 16 40 32 31 62-35 117-87 92-43-20-46-101-6-114-8 9-20 28-16 45zm96 785l7-3c-1 27-1 56-2 83 29-14 60-81 59-128-13 14-52 32-63 47zm-45 29c1 31-4 67 0 94 10-14 44-23 50-43 7-23-4-53 2-83-16 5-38 25-52 32zm-453 41l3-20c0-16 7-22 8-38-7-2-23-21-33-21-3 20 10 67 22 79zm570 23c5 14 38 28 48 36 33 27 75 86 99 152 58 158 45 375 10 560-7 39-19 83-5 107 21 34 96 26 115-6 9-15 11-42 14-68 31-215 32-427-30-608-30-88-65-148-125-201-23-20-60-60-99-49-18 5-39 45-27 76zm-570-23l13 7c11 11 24 20 38 27 0-20 2-46 3-66-15-4-29-22-43-27 0 17-11 42-11 58zm401-14c1 32-5 70 0 99 12-8 41-22 52-32 1-31 2-63 2-94-1 0-3 0-4 0-11 7-50 27-50 27zm-350 49l14 6c15 5 23 17 38 23 1-22 1-44 2-66-11-9-39-22-50-30-1 21-2 45-3 66zm350-49c-12 6-41 11-50 21 3 26 4 69 0 94 17 1 34-15 49-16-1-32 5-70 0-99zm-99 35c-1 31-1 61-2 92 9 2 42-7 51-12 1-31 2-63 2-94-1 0-3 0-4 0-11 4-34 12-47 14zm-199 43l10 7c13 5 22 14 38 16 1-24 1-48 2-72-14-2-35-14-49-17-1 23-1 43-2 66zm-171-61c-57 1-73 50-84 108-19 100-31 207-33 317-4 168 19 295 52 398 25-7 42-22 65-31-58-199-37-493 8-697 7-32 20-63 15-90-7-6-16-5-23-5zm321 26c-1 29-1 54-2 83 13 0 32 1 49 1 1-31 1-61 2-92-12 2-37 6-49 8zm-102 59l13 7c12 3 22 8 36 10 1-26 1-53 2-79-14 0-37-8-49-10-1 25-1 47-2 72zm102-59c-7-1-42-7-51-4-1 26-1 53-2 79 12 0 42 11 51 8 1-28 1-56 2-83zm295 40c-136 268-205 740-158 1139 3 29 2 55 11 77 40-116 83-218 134-323 41-86 91-178 149-248 10-12 21-23 24-32 10-32-2-74 0-103-54-14-98-40-128-78 31-34 65-68 98-96 12-10 27-17 37-30 4-114-42-190-98-250-19-20-43-51-63-59-3 1-5 2-6 4zm-603 77c-12 91-11 223-12 302 30 41 110 50 172 35-28 79-70 142-105 212 147 135 257 311 339 507 2 6 4 14 10 18-13-496-170-851-366-1168-1 0-3 0-4 0-22 8-30 58-34 93zm375 18c-97 16-182-22-235-61-8-6-15-15-25-16 27 48 48 101 73 151 25 49 52 98 75 149 12 26 20 55 30 82 32 81 63 160 96 239 33-224 96-427 147-624-37 31-106 70-162 79zm-523-53c-57 23-113 47-160 77-49 32-86 70-122 120-64 88-116 208-172 316-56 107-109 216-161 327-54 114-91 263-87 408 6 204 99 364 193 481 104 130 215 228 341 338 36-58 77-111 100-188 16-53 29-120 36-183 3-23 10-50 8-68-1-8-10-19-16-31-61-123-126-230-205-328-30-37-60-71-89-101 28 1 44 14 66 21 4-59-3-111-18-150-6-16-15-26-16-38 9 5 18 12 27 18 10 6 19 14 27 16 11-43 27-76 47-108 7-11 19-23 20-32 1-11-7-31-10-46-9-51-14-104 0-160 18 83 39 171 73 234 5 9 11 19 12 29-11 1-44-26-55-17-12 10 3 38 7 53 25 91 26 212 11 318-2 13-6 28-5 37 2 13 22 40 29 51 31 50 67 107 97 145 2-12-2-29 3-37 46 140 23 328-30 445-48 105-125 186-184 274-8 13-15 27-26 37 23-51 52-96 74-147-16-19-43-35-58-54-4-5-10-23-15-16-1 36-10 69-15 105-11 77-34 143-48 218-13 70-34 146-58 207-8 21-21 52-14 70 9 25 75 34 118 38 158 16 295 5 422-20 78-15 161-42 232-75 32-15 67-33 99-57 25-19 67-51 81-77 11-21 14-52 17-83 10-93 10-198 16-294 8-134 11-252 9-377-18 14-66 21-72-6-7-29 14-44 23-52 14-14 34-21 41-32 10-14 14-50 15-74 2-74-16-143-33-203-36-123-80-232-148-331-32-46-74-104-116-124-41-19-88-8-118 12-29 20-58 56-83 92-34 49-61 93-57 167 3 54 12 110 22 165 23 133 64 247 143 328 17 17 38 40 52 43 16 3 35-3 53-1 14 2 32 5 42 12 27 17 31 62-4 72-45 14-79-19-104-38-17-13-33-26-48-39-97-84-142-200-173-344-21-98-34-197-40-304-5-106-7-222 46-302-47-177-96-439-48-657 6-29 23-56 21-85-8-1-13 0-17 2zm930 223c1 15 6 35 3 46-3 9-21 22-31 30-12 11-24 20-33 28-25 22-47 41-59 64 32 27 68 51 116 62 4 28 2 71 2 97 24-118 20-264-2-371 0 16 2 29 3 44zm355 384c-22 78-45 176-74 253-5 13-14 29-14 35 1 11 17 25 27 38 30 42 45 83 56 140 14 73 6 180-8 243-15 68-51 136-83 184-23 34-55 80-84 114-10 12-27 27-29 39-1 6 5 25 8 37 9 37 23 76 34 104 53 139 100 258 194 356 51-58 89-128 126-199 37-70 80-138 118-210 37-70 69-147 95-232 26-87 45-185 43-291-8-418-197-661-352-937 0-1 0-3-2-2-17 105-24 216-55 328zm-1112 83c116 59 198 153 264 257 11 18 28 45 37 54-66-121-132-240-220-335-29-32-62-62-91-94 14-26 32-51 47-78 15-27 31-56 38-85-28 15-69 10-98-3-13 100-10 216 23 284zm1098 1465c-49-57-92-119-130-188-36-67-73-140-95-222-17-63-25-135-27-209 0-24-2-51 6-77 9 45 22 85 51 111 35-32 75-84 103-131 9-15 25-38 27-54 2-17-6-41-9-62-11-82-15-192 0-272 4-20 15-41 14-57-1-9-8-20-12-29-5-9-10-19-19-25-30 29-41 74-64 110-18 27-39 50-61 69-7 6-13 18-24 17 6-57 12-117 11-175-9-2-13 8-19 13-7 5-17 10-26 13-162 56-250-154-154-252 10-10 25-19 41-25 16-49 39-104 42-159-3 29-17 43-31 63-123 175-210 392-275 627-5 19-14 38-14 52 0 14 9 30 14 46 22 77 28 167 11 255 24-6 41 4 46 19 14 42-28 72-43 84 1 73-1 154-3 226-4 143-6 263-12 414-1 29-7 59-4 88 6 65 64 109 112 139 42 26 94 42 148 56 187 48 330 49 530 40 42-2 142-8 148-42 3-15-13-44-20-62-8-22-16-47-20-64-24-96-45-176-75-259-15-41-30-82-40-128-20 32-32 72-56 99 21 43 57 96 69 133-39-67-90-125-140-183zm-999-1355c-35-33-112-105-175-57-63 47-70 201-52 299 12-10 16-27 22-41 43-90 101-175 230-170-3-13-15-22-25-31zm728 23c-54 12-88-30-114-58 0-1 0-3-2-2-69 66-22 194 74 188 65-4 84-69 85-147-18 4-27 15-43 19zm-1228 289c-7 77 14 134 43 174 1 1 3 14 8 7 4-109 6-215-14-301-14 32-33 75-37 120zm1462 184c16-63 18-158 5-221 0-2-2-3-4-2-5 72-8 157-1 224zm-777 1298c16 1 33 6 47 14 30 17 74 56 94 81 29 37 47 90 63 144 14 50 25 103 35 154 20 111 36 221 47 332 6 58 12 115 15 174 10 179 10 366 45 517-13-17-25-38-33-58-3-7-3-17-10-22-34 357-87 813-11 1143 40-21 78-39 127-47 51-8 108-2 168 0 110 3 230 37 322 2-17-184-31-373-44-565-13-194-26-391-13-593 12-194 38-390 48-587 10-201-2-398-9-593-152 4-304-6-438-29-134-23-242-80-320-153-1 0-3 0-4 0-38 33-83 58-128 84zm-14 1015c14-96 20-195 31-293 15-150 38-289 51-435 5-51 5-102 8-156 1-16 7-39 3-55-3-11-22-30-37-43-21-18-43-33-61-26-156 66-343 119-572 115 7 99 0 197-5 296-10 205-6 406 13 590 10 93 16 185 23 277 23 276 34 573 15 880-6 98-2 198-30 284 78-17 167-18 243-16 29 1 61 3 89 7 27 4 53 13 81 15 75 7 157 3 220-10 14-3 29-4 37-12-6-472 6-966-84-1356-15 75-31 150-40 232-12-99 1-198 16-296zm498 1601c31 23 52 63 74 94 60 85 126 154 241 182 69 17 139 15 219 10 60-4 155 3 112-65-26-43-63-66-102-97-68-54-128-119-174-198-23-40-27-50-80-55-81-7-178-25-270-18-61 4-116 17-144 53 42 61 30 184 32 277 26-4 59 0 83 4-3-47-5-107 4-153-7-13-16-21-27-29-10-8-23-15-31-25 29 0 47 7 63 19zm-613-121c-64-5-126-6-185-11-34-3-68-7-96-5-43 4-62 55-79 86-32 58-75 101-121 146-43 42-96 77-144 119-9 8-41 31-35 54 4 18 43 26 65 30 165 28 336 18 440-55 66-46 110-108 149-176 22-39 37-81 98-81-16 20-44 24-48 56-2 12 5 27 5 42 2 36-3 74-7 105 25 1 47-4 70 2 14-90 1-215 29-304-50 3-93-4-143-8z" stroke-width="40"/><path d="m15310 7220c11 15 21 16 27 29 22 46-12 99-58 99-29 0-65-22-67-63-2-41 22-61 53-71-48-8-114 27-134 65-18 35 6 58 22 75-22-3-66-20-67-43-1-8 13-30 18-39 30-48 79-94 160-84 80 10 131 69 177 103 2 4 7 9 0 4-37-31-78-59-130-76zm-71 11c-17 24 1 58 26 60 49 3 49-80-2-75-6 1-20 9-24 15z" stroke-width="20"/></g><path fill="none" stroke-width="150" d="m13226 16526l3514 34"/></g><g fill="#201e1e"><ellipse cx="16818" cy="16573" rx="175" ry="210" stroke-width="7.62"/><g font-family="&apos;Bell MT&apos;" stroke-width="50"><text x="10500" y="14850" font-size="1917.98" transform="matrix(.38837 0 0 .9057 9421.64 4681.69)">Dra.</text><text x="10500" y="14850" font-size="1562.73" transform="matrix(.41328 0 0 .9057 9070.09 5904.85)">Texto 1</text><text x="10500" y="14850" font-size="2054.91" transform="matrix(.41328 0 0 .9057 9972.73 2220.68)">Texto 2</text></g></g></g><g fill="#373435" font-family="&apos;Arial&apos;" font-size="601.33"><text x="10500" y="14850" transform="matrix(.8798 0 0 .9057 3819.19-7364.92)">NN 1</text><text x="10500" y="14850" transform="matrix(.8798 0 0 .9057 3817.52-6826.79)">NN 2</text></g></g></g><g fill-rule="nonzero"><path d="m15142 906c-4 134-5 252-4 356 2 125 1 227-2 308-3 81-2 162 3 244 156-151 357-376 602-676l245 96c8 5 10 12 7 20-3 8-10 11-20 8-46-12-79-12-100 0-22 12-42 39-62 80-20 41-54 119-102 232-48 114-86 209-116 286-57 147-89 233-97 258-8 25-8 47-2 66 7 19 27 39 60 59 9 6 13 13 10 21-3 8-11 10-24 5l-239-93-63-24c-14-5-19-12-16-21 3-7 9-10 19-8 37 7 63 8 78 2 15-6 31-22 48-48 16-25 45-93 88-203l161-381 80-188c6-15 7-22 4-24-5-2-11 1-17 8l-244 267c-156 171-254 281-293 330l-85 107c-26 32-41 50-45 52-4 3-7 3-11 2-5-2-7-10-4-26 5-36 8-156 7-361 3-114 4-245 3-393-1-148-2-226-4-233-2-7-4-11-6-12-4-2-9 4-14 18l-195 484-64 160c-33 85-46 144-38 177 8 33 28 56 61 69 21 8 30 18 25 30-3 9-10 11-20 7l-13-6-40-15-87-34c-38-15-88-31-149-48-3-6-4-11-2-16 4-11 13-13 28-8 42 14 79 8 111-18 32-26 71-98 117-216l55-142 146-357c32-84 45-145 38-183-7-38-28-67-62-87-15-9-20-17-17-25 4-9 11-12 23-7 6 2 14 6 22 9l216 93zm809 1162c-17 24-30 43-40 57-44 68-65 136-64 204 1 67 25 115 71 145 45 29 101 32 169 10 20-6 31-8 34-6 6 4 5 12-2 25-36 25-78 38-128 40-49 1-95-11-137-38-62-39-96-102-102-187-6-85 19-172 76-261 60-95 134-159 222-193 88-33 158-33 212 1 50 32 80 86 89 161 9 76-8 147-51 214-6 10-12 17-18 20-5 3-21-3-47-20l-283-172zm24-37c47 34 93 65 138 94l31 17c23 13 44 18 62 16 19-3 36-18 53-44 26-41 38-84 36-128-2-44-18-75-47-94-27-17-65-17-114 1-49 18-102 64-161 138zm1344 102c-82 91-194 214-334 368l-372 400c-41 45-48 85-23 121 8 12 9 21 4 28-5 5-9 7-14 4-5-2-27-21-66-57-20-19-39-37-59-56 22-27 39-45 49-57 13-14 32-34 57-60-56 26-105 40-147 40-42 1-77-12-104-37-39-35-57-95-53-179 3-84 42-166 115-247 72-79 153-130 243-154 90-24 162-11 217 39 27 25 44 54 51 87 6 33 2 70-13 112 47-48 91-94 131-138 123-135 188-212 196-231 8-20 4-40-13-60-10-13-12-23-7-29 7-7 18-4 33 10l110 96zm-587 507c66-73 106-136 120-189 14-53 2-97-36-132-40-36-89-42-147-18-58 24-126 78-203 162-77 85-121 157-131 215-10 58-1 100 27 126 28 25 72 31 134 16 61-15 140-75 235-179zm862-202c11 13 15 29 12 50-3 21-12 37-26 50-17 15-35 24-54 26-19 3-35-3-48-18-11-13-16-29-14-48 2-19 12-37 30-53 18-16 36-24 55-26 19-1 34 5 46 18zm-267 333l-147 128-135 121-102 90-78 69c-31 27-47 49-49 64-2 15 4 31 17 47 15 19 18 32 10 39-6 6-13 5-19-2-2-3-5-6-7-10-22-35-45-66-68-92-37-42-65-70-83-83-4-3-7-5-10-9-7-8-7-15 1-22 7-7 21-2 40 14 19 16 35 23 47 22 12-2 36-18 72-49l271-233c72-63 111-105 117-125 6-20-1-42-21-66-7-8-7-15 0-21 4-4 8-5 13-5 5 1 25 18 60 52 36 34 60 58 73 72zm-167 413c85-61 175-94 269-98 94-4 163 25 206 85 28 39 43 85 44 139 1 54-17 94-54 121-15 10-30 16-45 17-16 1-27-3-34-12-15-20-5-51 29-91 52-62 63-114 33-155-29-41-75-55-136-44-61 12-129 44-203 98-87 63-148 129-182 199-34 69-36 125-5 167 20 28 53 44 100 50 46 5 90-4 133-28 15-8 24-9 29-3 5 6 3 13-6 19-46 33-100 48-164 44-64-3-115-33-154-87-43-59-49-131-20-213 30-83 83-152 160-208m1123 233c8 15 8 32 0 51-8 19-21 33-37 42-20 10-40 15-59 12-19-2-33-12-42-29-8-15-8-32-2-50 6-18 20-33 42-44 21-11 41-15 59-12 19 3 32 13 40 29zm-338 259l-173 89-160 85-121 63-92 48c-37 19-58 36-63 50-5 14-3 31 5 50 10 22 10 36 0 41-8 4-14 2-18-6-2-3-3-7-5-11-13-39-28-75-44-106-26-50-46-84-60-100-3-3-6-7-8-11-5-9-3-16 6-21 9-5 21 3 36 23 15 20 28 31 40 32 12 1 39-9 81-31l319-162c85-44 133-75 143-93 10-18 9-41-5-70-5-9-3-16 5-21 5-3 9-3 14-1 4 2 20 23 46 65 27 41 44 70 54 87m164 373c-27 23-78 50-151 81 63 5 113 17 151 38 39 21 65 49 80 86 11 28 15 57 12 89-3 31-18 61-46 88-28 27-81 57-161 89l-271 104c-49 20-79 35-89 47-10 11-15 29-14 53 1 16-3 26-9 28-8 3-13 1-16-6-1-3-2-6-3-9-3-21-11-50-26-86-13-33-29-68-48-104-6-15-4-25 5-28 7-3 13 0 18 7 15 20 28 32 37 36 10 4 21 5 33 4 13-2 52-15 118-39 66-24 120-44 161-61 112-45 183-85 211-122 29-37 37-71 24-104-19-48-69-74-149-79-80-5-199 24-357 87-72 28-116 50-132 65-17 15-21 38-14 68 3 9-1 16-10 19-7 3-13 0-17-9l-9-33c-3-12-18-50-43-114l-21-48c-7-18-6-29 2-32 9-4 20 3 33 21 12 17 25 26 40 28 15 2 56-10 125-35 68-25 153-57 255-97 94-38 151-66 170-85 19-19 28-38 26-58-1-18 2-28 11-32 9-4 16 1 21 13l19 50c2 5 14 32 35 82zm-328 1106c-44-13-80-32-106-57-26-25-43-56-51-93-9-44-1-81 24-112 25-31 63-52 112-62 37-8 73-7 108 1 35 8 62 20 80 37 18 16 43 46 74 90 44 63 77 99 100 109 22 10 49 11 81 5 50-10 87-28 111-51 24-24 33-52 26-85-6-27-18-46-36-56-19-10-53-14-102-12-53 3-83-9-88-35-2-10 2-21 12-35 10-14 27-23 51-28 42-9 83 2 121 31 39 29 64 76 77 138 10 50 9 91-3 125-12 33-29 56-51 69-22 12-66 26-134 40l-223 42c-86 18-146 34-180 50-35 16-50 35-45 56 1 4 3 11 6 18l4 11c2 10-1 16-11 18-22 4-41-36-59-123-5-25-1-43 12-55 13-12 43-23 90-33zm329-69c-25-9-57-32-98-71-40-39-75-65-107-79-32-14-68-17-107-9-35 7-64 22-85 43-21 21-30 44-25 68 5 25 20 46 45 64 24 18 53 29 86 33 33 4 80 0 141-13 45-9 96-21 151-36z" fill="#201e1e"/><path d="m15142 906c-4 134-5 252-4 356 2 125 1 227-2 308-3 81-2 162 3 244 156-151 357-376 602-676l245 96c8 5 10 12 7 20-3 8-10 11-20 8-46-12-79-12-100 0-22 12-42 39-62 80-20 41-54 119-102 232-48 114-86 209-116 286-57 147-89 233-97 258-8 25-8 47-2 66 7 19 27 39 60 59 9 6 13 13 10 21-3 8-11 10-24 5l-239-93-63-24c-14-5-19-12-16-21 3-7 9-10 19-8 37 7 63 8 78 2 15-6 31-22 48-48 16-25 45-93 88-203l161-381 80-188c6-15 7-22 4-24-5-2-11 1-17 8l-244 267c-156 171-254 281-293 330l-85 107c-26 32-41 50-45 52-4 3-7 3-11 2-5-2-7-10-4-26 5-36 8-156 7-361 3-114 4-245 3-393-1-148-2-226-4-233-2-7-4-11-6-12-4-2-9 4-14 18l-195 484-64 160c-33 85-46 144-38 177 8 33 28 56 61 69 21 8 30 18 25 30-3 9-10 11-20 7l-13-6-40-15-87-34c-38-15-88-31-149-48-3-6-4-11-2-16 4-11 13-13 28-8 42 14 79 8 111-18 32-26 71-98 117-216l55-142 146-357c32-84 45-145 38-183-7-38-28-67-62-87-15-9-20-17-17-25 4-9 11-12 23-7 6 2 14 6 22 9l216 93zm809 1162c-17 24-30 43-40 57-44 68-65 136-64 204 1 67 25 115 71 145 45 29 101 32 169 10 20-6 31-8 34-6 6 4 5 12-2 25-36 25-78 38-128 40-49 1-95-11-137-38-62-39-96-102-102-187-6-85 19-172 76-261 60-95 134-159 222-193 88-33 158-33 212 1 50 32 80 86 89 161 9 76-8 147-51 214-6 10-12 17-18 20-5 3-21-3-47-20l-283-172zm24-37c47 34 93 65 138 94l31 17c23 13 44 18 62 16 19-3 36-18 53-44 26-41 38-84 36-128-2-44-18-75-47-94-27-17-65-17-114 1-49 18-102 64-161 138zm1344 102c-82 91-194 214-334 368l-372 400c-41 45-48 85-23 121 8 12 9 21 4 28-5 5-9 7-14 4-5-2-27-21-66-57-20-19-39-37-59-56 22-27 39-45 49-57 13-14 32-34 57-60-56 26-105 40-147 40-42 1-77-12-104-37-39-35-57-95-53-179 3-84 42-166 115-247 72-79 153-130 243-154 90-24 162-11 217 39 27 25 44 54 51 87 6 33 2 70-13 112 47-48 91-94 131-138 123-135 188-212 196-231 8-20 4-40-13-60-10-13-12-23-7-29 7-7 18-4 33 10l110 96zm-587 507c66-73 106-136 120-189 14-53 2-97-36-132-40-36-89-42-147-18-58 24-126 78-203 162-77 85-121 157-131 215-10 58-1 100 27 126 28 25 72 31 134 16 61-15 140-75 235-179zm862-202c11 13 15 29 12 50-3 21-12 37-26 50-17 15-35 24-54 26-19 3-35-3-48-18-11-13-16-29-14-48 2-19 12-37 30-53 18-16 36-24 55-26 19-1 34 5 46 18zm-267 333l-147 128-135 121-102 90-78 69c-31 27-47 49-49 64-2 15 4 31 17 47 15 19 18 32 10 39-6 6-13 5-19-2-2-3-5-6-7-10-22-35-45-66-68-92-37-42-65-70-83-83-4-3-7-5-10-9-7-8-7-15 1-22 7-7 21-2 40 14 19 16 35 23 47 22 12-2 36-18 72-49l271-233c72-63 111-105 117-125 6-20-1-42-21-66-7-8-7-15 0-21 4-4 8-5 13-5 5 1 25 18 60 52 36 34 60 58 73 72zm-167 413c85-61 175-94 269-98 94-4 163 25 206 85 28 39 43 85 44 139 1 54-17 94-54 121-15 10-30 16-45 17-16 1-27-3-34-12-15-20-5-51 29-91 52-62 63-114 33-155-29-41-75-55-136-44-61 12-129 44-203 98-87 63-148 129-182 199-34 69-36 125-5 167 20 28 53 44 100 50 46 5 90-4 133-28 15-8 24-9 29-3 5 6 3 13-6 19-46 33-100 48-164 44-64-3-115-33-154-87-43-59-49-131-20-213 30-83 83-152 160-208zm1123 233c8 15 8 32 0 51-8 19-21 33-37 42-20 10-40 15-59 12-19-2-33-12-42-29-8-15-8-32-2-50 6-18 20-33 42-44 21-11 41-15 59-12 19 3 32 13 40 29zm-338 259l-173 89-160 85-121 63-92 48c-37 19-58 36-63 50-5 14-3 31 5 50 10 22 10 36 0 41-8 4-14 2-18-6-2-3-3-7-5-11-13-39-28-75-44-106-26-50-46-84-60-100-3-3-6-7-8-11-5-9-3-16 6-21 9-5 21 3 36 23 15 20 28 31 40 32 12 1 39-9 81-31l319-162c85-44 133-75 143-93 10-18 9-41-5-70-5-9-3-16 5-21 5-3 9-3 14-1 4 2 20 23 46 65 27 41 44 70 54 87zm164 373c-27 23-78 50-151 81 63 5 113 17 151 38 39 21 65 49 80 86 11 28 15 57 12 89-3 31-18 61-46 88-28 27-81 57-161 89l-271 104c-49 20-79 35-89 47-10 11-15 29-14 53 1 16-3 26-9 28-8 3-13 1-16-6-1-3-2-6-3-9-3-21-11-50-26-86-13-33-29-68-48-104-6-15-4-25 5-28 7-3 13 0 18 7 15 20 28 32 37 36 10 4 21 5 33 4 13-2 52-15 118-39 66-24 120-44 161-61 112-45 183-85 211-122 29-37 37-71 24-104-19-48-69-74-149-79-80-5-199 24-357 87-72 28-116 50-132 65-17 15-21 38-14 68 3 9-1 16-10 19-7 3-13 0-17-9l-9-33c-3-12-18-50-43-114l-21-48c-7-18-6-29 2-32 9-4 20 3 33 21 12 17 25 26 40 28 15 2 56-10 125-35 68-25 153-57 255-97 94-38 151-66 170-85 19-19 28-38 26-58-1-18 2-28 11-32 9-4 16 1 21 13l19 50c2 5 14 32 35 82zm-328 1106c-44-13-80-32-106-57-26-25-43-56-51-93-9-44-1-81 24-112 25-31 63-52 112-62 37-8 73-7 108 1 35 8 62 20 80 37 18 16 43 46 74 90 44 63 77 99 100 109 22 10 49 11 81 5 50-10 87-28 111-51 24-24 33-52 26-85-6-27-18-46-36-56-19-10-53-14-102-12-53 3-83-9-88-35-2-10 2-21 12-35 10-14 27-23 51-28 42-9 83 2 121 31 39 29 64 76 77 138 10 50 9 91-3 125-12 33-29 56-51 69-22 12-66 26-134 40l-223 42c-86 18-146 34-180 50-35 16-50 35-45 56 1 4 3 11 6 18l4 11c2 10-1 16-11 18-22 4-41-36-59-123-5-25-1-43 12-55 13-12 43-23 90-33zm329-69c-25-9-57-32-98-71-40-39-75-65-107-79-32-14-68-17-107-9-35 7-64 22-85 43-21 21-30 44-25 68 5 25 20 46 45 64 24 18 53 29 86 33 33 4 80 0 141-13 45-9 96-21 151-36z" fill="none" stroke="#201e1e" stroke-linejoin="round" stroke-linecap="round" stroke-width="50"/><path d="m2168 5282c131-24 248-47 349-69 122-27 222-47 302-60 80-13 159-31 238-53-179-122-441-273-784-452l44-259c3-9 9-12 18-11 9 1 13 7 12 18-2 47 4 80 21 98 17 19 47 33 91 44 44 11 127 29 248 52 121 24 222 42 303 55 156 26 247 40 273 42 26 2 48-1 65-12 17-11 33-34 46-71 4-11 10-15 19-14 8 1 12 9 9 22l-43 253-11 67c-2 15-8 21-17 20-8-1-12-7-12-17 0-38-5-63-14-77-9-14-28-26-56-37-28-11-100-26-217-45l-406-80-201-40c-15-3-23-2-24 1-1 5 3 10 11 15l311 184c199 118 326 191 383 220l122 62c37 19 57 30 60 33 3 3 5 7 4 10-1 5-9 9-24 10-36 2-155 24-355 66-112 20-241 46-385 77-145 31-221 48-227 51-7 3-10 6-11 9-1 4 6 8 20 10l514 93 170 30c90 15 151 15 181 1 31-14 49-39 55-74 4-23 12-33 24-31 9 1 13 8 11 19l-3 13-6 43-16 92c-7 40-12 92-17 156-5 4-10 6-15 6-11-2-16-10-14-26 5-44-8-79-40-105-32-26-111-50-235-71l-150-25-379-71c-88-15-151-15-187 0-36 15-60 41-73 79-6 16-13 23-21 22-10-2-14-8-12-21 1-6 3-14 5-24l47-230zm1003-1033c26 13 47 23 63 29 75 31 146 40 212 28 66-13 109-44 130-95 20-49 14-105-19-169-9-18-13-29-12-32 3-6 11-7 25-2 31 31 51 71 61 119 10 48 5 95-14 141-28 68-84 112-166 133-83 21-173 11-270-30-104-43-180-105-228-185-48-80-60-150-36-209 23-55 71-94 144-115 73-22 146-17 220 13 11 5 19 9 23 14 4 5 0 22-12 50l-121 309zm-41-17c25-52 48-103 69-152l11-34c9-25 11-46 5-64-6-18-24-33-52-45-45-19-89-23-132-14-43 10-71 30-84 62-12 29-5 67 21 112 26 45 81 90 164 134zm-96-1350c102 68 240 159 414 275l452 307c50 33 91 35 123 5 11-10 20-13 27-8 6 4 8 8 7 14-1 5-17 30-46 74-16 22-31 45-46 67-30-18-51-31-64-40-16-11-39-26-68-47 34 52 55 98 62 139 7 41 0 77-20 108-29 44-86 70-169 80-84 9-171-16-262-77-89-59-152-131-189-217-37-85-35-159 6-220 21-31 47-52 79-63 32-11 69-13 113-4-55-40-107-76-156-109-152-101-238-154-259-159-21-5-40 2-58 22-12 12-21 16-28 11-8-6-7-17 5-34l78-123zm590 504c-82-54-150-85-205-90-55-6-96 13-125 55-30 45-28 94 4 148 33 54 96 113 191 176 96 64 173 96 232 97 59 1 99-14 120-46 21-31 19-76-5-135-24-58-95-127-213-205zm-306-842c11-13 27-19 48-18 21 1 39 7 53 20 17 15 28 32 33 51 5 19 1 35-12 50-11 13-26 19-46 20-19 1-38-7-56-23-18-16-28-33-32-51-4-18 0-34 12-48zm363 223l145 130 137 119 102 90 78 69c31 27 54 41 69 41 15 0 30-8 45-23 17-17 30-22 38-15 6 6 7 12 1 19-2 3-5 5-9 8-32 26-60 53-83 79-37 42-61 73-72 92-2 4-5 8-7 11-7 8-14 9-22 2-8-7-5-21 9-42 14-21 19-38 16-49-3-12-22-33-58-65l-266-239c-72-63-118-97-138-100-20-3-41 7-63 30-7 8-14 9-21 2-4-4-6-8-6-12 0-5 15-27 44-66 29-40 50-67 62-81zm429 116c-72-76-116-161-132-254-16-93 3-165 57-216 35-33 79-53 132-61 53-8 95 5 127 38 12 13 20 27 23 43 3 16 1 27-7 35-18 17-49 11-94-17-68-43-121-47-158-12-37 34-45 81-25 140 19 59 61 122 123 188 74 78 147 130 221 154 73 24 129 19 166-17 25-23 37-58 36-105-1-46-16-89-45-128-10-14-12-23-7-28 6-5 12-4 19 3 39 41 60 93 65 157 5 64-17 118-66 164-53 50-123 66-209 48-86-18-161-62-227-132zm66-1135c14-10 30-12 51-7 20 5 36 16 47 31 13 18 20 37 21 56 1 19-7 35-22 46-14 10-30 13-49 9-19-4-36-15-50-35-14-19-21-38-20-57 0-19 8-33 23-44zm306 297l113 158 108 146 80 110 61 84c24 34 44 52 59 55 15 3 31-1 48-12 20-13 34-15 40-6 5 7 4 13-4 19-3 2-6 4-10 6-37 19-70 39-98 59-46 33-76 58-90 74-3 4-6 7-10 9-9 6-16 5-22-3-6-8 0-21 18-39 18-18 27-33 26-45 0-12-14-38-42-76l-207-292c-56-77-94-120-113-128-19-8-42-3-68 15-9 6-16 5-21-2-3-5-4-9-3-14 1-5 20-23 57-55 37-32 63-54 78-66zm346-228c26 24 60 70 102 139-4-63 1-114 16-155 15-41 40-71 74-91 26-15 55-23 86-24 32-1 63 10 94 34 31 24 68 73 110 148l140 255c26 46 46 74 59 82 13 8 31 11 54 6 16-3 26-1 29 5 4 7 3 13-3 17-3 1-5 3-9 4-20 5-48 18-82 37-31 18-63 38-97 62-14 8-24 8-29-1-3-6-2-12 4-19 18-18 28-32 31-42 3-10 2-21-1-34-3-12-22-50-55-112-33-62-60-112-82-151-60-105-110-169-150-193-40-23-75-26-106-9-45 25-64 78-58 158 6 80 51 194 135 341 38 67 66 108 83 122 17 15 40 16 70 5 9-4 16-2 21 7 4 7 2 13-7 18l-32 14c-11 5-47 25-107 59l-45 28c-17 9-27 10-32 2-5-9 0-20 16-35 15-14 22-29 22-44 0-15-17-54-51-119-34-64-78-144-132-239-50-88-86-141-107-157-21-16-42-22-61-18-17 4-28 2-33-7-5-9-2-16 10-23l47-26c5-3 30-18 76-46zm1128 151c-5 46-18 84-39 114-21 30-48 52-84 65-42 16-80 14-114-6-35-20-61-54-80-101-14-35-19-71-17-107 2-36 10-64 23-85 13-20 39-50 77-88 55-54 85-92 91-116 6-24 3-51-9-81-18-48-41-81-69-101-28-20-57-24-89-11-26 10-42 25-50 45-7 21-5 55 5 103 12 52 5 83-20 93-9 4-21 2-37-6-15-8-28-23-36-46-15-40-12-82 11-125 23-43 64-76 124-99 47-18 89-24 123-18 35 6 60 20 76 39 16 20 36 61 61 125l78 213c32 82 58 138 79 170 21 32 42 43 63 35 4-2 10-4 17-9l10-5c10-4 16-1 20 8 8 21-29 47-111 79-24 9-43 8-56-3-14-11-30-39-48-83zm-122-313c-4 26-22 62-54 108-32 46-52 85-61 119-8 34-5 70 9 107 13 34 32 59 56 77 25 18 48 22 71 13 24-9 42-27 56-54 14-27 20-57 18-91-2-33-13-79-36-137-17-43-37-91-60-143z" fill="#201e1e"/><path d="m2168 5282c131-24 248-47 349-69 122-27 222-47 302-60 80-13 159-31 238-53-179-122-441-273-784-452l44-259c3-9 9-12 18-11 9 1 13 7 12 18-2 47 4 80 21 98 17 19 47 33 91 44 44 11 127 29 248 52 121 24 222 42 303 55 156 26 247 40 273 42 26 2 48-1 65-12 17-11 33-34 46-71 4-11 10-15 19-14 8 1 12 9 9 22l-43 253-11 67c-2 15-8 21-17 20-8-1-12-7-12-17 0-38-5-63-14-77-9-14-28-26-56-37-28-11-100-26-217-45l-406-80-201-40c-15-3-23-2-24 1-1 5 3 10 11 15l311 184c199 118 326 191 383 220l122 62c37 19 57 30 60 33 3 3 5 7 4 10-1 5-9 9-24 10-36 2-155 24-355 66-112 20-241 46-385 77-145 31-221 48-227 51-7 3-10 6-11 9-1 4 6 8 20 10l514 93 170 30c90 15 151 15 181 1 31-14 49-39 55-74 4-23 12-33 24-31 9 1 13 8 11 19l-3 13-6 43-16 92c-7 40-12 92-17 156-5 4-10 6-15 6-11-2-16-10-14-26 5-44-8-79-40-105-32-26-111-50-235-71l-150-25-379-71c-88-15-151-15-187 0-36 15-60 41-73 79-6 16-13 23-21 22-10-2-14-8-12-21 1-6 3-14 5-24l47-230zm1003-1033c26 13 47 23 63 29 75 31 146 40 212 28 66-13 109-44 130-95 20-49 14-105-19-169-9-18-13-29-12-32 3-6 11-7 25-2 31 31 51 71 61 119 10 48 5 95-14 141-28 68-84 112-166 133-83 21-173 11-270-30-104-43-180-105-228-185-48-80-60-150-36-209 23-55 71-94 144-115 73-22 146-17 220 13 11 5 19 9 23 14 4 5 0 22-12 50l-121 309zm-41-17c25-52 48-103 69-152l11-34c9-25 11-46 5-64-6-18-24-33-52-45-45-19-89-23-132-14-43 10-71 30-84 62-12 29-5 67 21 112 26 45 81 90 164 134zm-96-1350c102 68 240 159 414 275l452 307c50 33 91 35 123 5 11-10 20-13 27-8 6 4 8 8 7 14-1 5-17 30-46 74-16 22-31 45-46 67-30-18-51-31-64-40-16-11-39-26-68-47 34 52 55 98 62 139 7 41 0 77-20 108-29 44-86 70-169 80-84 9-171-16-262-77-89-59-152-131-189-217-37-85-35-159 6-220 21-31 47-52 79-63 32-11 69-13 113-4-55-40-107-76-156-109-152-101-238-154-259-159-21-5-40 2-58 22-12 12-21 16-28 11-8-6-7-17 5-34l78-123zm590 504c-82-54-150-85-205-90-55-6-96 13-125 55-30 45-28 94 4 148 33 54 96 113 191 176 96 64 173 96 232 97 59 1 99-14 120-46 21-31 19-76-5-135-24-58-95-127-213-205zm-306-842c11-13 27-19 48-18 21 1 39 7 53 20 17 15 28 32 33 51 5 19 1 35-12 50-11 13-26 19-46 20-19 1-38-7-56-23-18-16-28-33-32-51-4-18 0-34 12-48zm363 223l145 130 137 119 102 90 78 69c31 27 54 41 69 41 15 0 30-8 45-23 17-17 30-22 38-15 6 6 7 12 1 19-2 3-5 5-9 8-32 26-60 53-83 79-37 42-61 73-72 92-2 4-5 8-7 11-7 8-14 9-22 2-8-7-5-21 9-42 14-21 19-38 16-49-3-12-22-33-58-65l-266-239c-72-63-118-97-138-100-20-3-41 7-63 30-7 8-14 9-21 2-4-4-6-8-6-12 0-5 15-27 44-66 29-40 50-67 62-81zm429 116c-72-76-116-161-132-254-16-93 3-165 57-216 35-33 79-53 132-61 53-8 95 5 127 38 12 13 20 27 23 43 3 16 1 27-7 35-18 17-49 11-94-17-68-43-121-47-158-12-37 34-45 81-25 140 19 59 61 122 123 188 74 78 147 130 221 154 73 24 129 19 166-17 25-23 37-58 36-105-1-46-16-89-45-128-10-14-12-23-7-28 6-5 12-4 19 3 39 41 60 93 65 157 5 64-17 118-66 164-53 50-123 66-209 48-86-18-161-62-227-132zm66-1135c14-10 30-12 51-7 20 5 36 16 47 31 13 18 20 37 21 56 1 19-7 35-22 46-14 10-30 13-49 9-19-4-36-15-50-35-14-19-21-38-20-57 0-19 8-33 23-44zm306 297l113 158 108 146 80 110 61 84c24 34 44 52 59 55 15 3 31-1 48-12 20-13 34-15 40-6 5 7 4 13-4 19-3 2-6 4-10 6-37 19-70 39-98 59-46 33-76 58-90 74-3 4-6 7-10 9-9 6-16 5-22-3-6-8 0-21 18-39 18-18 27-33 26-45 0-12-14-38-42-76l-207-292c-56-77-94-120-113-128-19-8-42-3-68 15-9 6-16 5-21-2-3-5-4-9-3-14 1-5 20-23 57-55 37-32 63-54 78-66zm346-228c26 24 60 70 102 139-4-63 1-114 16-155 15-41 40-71 74-91 26-15 55-23 86-24 32-1 63 10 94 34 31 24 68 73 110 148l140 255c26 46 46 74 59 82 13 8 31 11 54 6 16-3 26-1 29 5 4 7 3 13-3 17-3 1-5 3-9 4-20 5-48 18-82 37-31 18-63 38-97 62-14 8-24 8-29-1-3-6-2-12 4-19 18-18 28-32 31-42 3-10 2-21-1-34-3-12-22-50-55-112-33-62-60-112-82-151-60-105-110-169-150-193-40-23-75-26-106-9-45 25-64 78-58 158 6 80 51 194 135 341 38 67 66 108 83 122 17 15 40 16 70 5 9-4 16-2 21 7 4 7 2 13-7 18l-32 14c-11 5-47 25-107 59l-45 28c-17 9-27 10-32 2-5-9 0-20 16-35 15-14 22-29 22-44 0-15-17-54-51-119-34-64-78-144-132-239-50-88-86-141-107-157-21-16-42-22-61-18-17 4-28 2-33-7-5-9-2-16 10-23l47-26c5-3 30-18 76-46zm1128 151c-5 46-18 84-39 114-21 30-48 52-84 65-42 16-80 14-114-6-35-20-61-54-80-101-14-35-19-71-17-107 2-36 10-64 23-85 13-20 39-50 77-88 55-54 85-92 91-116 6-24 3-51-9-81-18-48-41-81-69-101-28-20-57-24-89-11-26 10-42 25-50 45-7 21-5 55 5 103 12 52 5 83-20 93-9 4-21 2-37-6-15-8-28-23-36-46-15-40-12-82 11-125 23-43 64-76 124-99 47-18 89-24 123-18 35 6 60 20 76 39 16 20 36 61 61 125l78 213c32 82 58 138 79 170 21 32 42 43 63 35 4-2 10-4 17-9l10-5c10-4 16-1 20 8 8 21-29 47-111 79-24 9-43 8-56-3-14-11-30-39-48-83zm-122-313c-4 26-22 62-54 108-32 46-52 85-61 119-8 34-5 70 9 107 13 34 32 59 56 77 25 18 48 22 71 13 24-9 42-27 56-54 14-27 20-57 18-91-2-33-13-79-36-137-17-43-37-91-60-143z" fill="none" stroke="#201e1e" stroke-linejoin="round" stroke-linecap="round" stroke-width="50"/></g></svg>