<svg xmlns="http://www.w3.org/2000/svg" width="744.09" height="1052.36" viewBox="0 0 21000 29700" shape-rendering="geometricPrecision" image-rendering="optimizeQuality" fill-rule="evenodd" clip-rule="evenodd"><defs><clipPath id="0"><path d="m7107 25520c-1304 659-3784 532-4536-687-750-1215-580-4662-651-6352-178-4232-629-7441-745-10854-130-3790 2354-6295 5323-7001 4189-995 3941 4837 3359 7834-305 1610-908 3012-1293 4586-710 2904-67 7337-313 10359-127 1045-461 1738-1142 2114z"/></clipPath><clipPath id="1"><path d="m13893 25508c1304 659 3784 532 4536-687 750-1215 580-4662 651-6352 178-4232 629-7441 745-10854 130-3790-2354-6295-5323-7001-4189-995-3941 4837-3359 7834 305 1610 908 3012 1293 4586 710 2904 67 7337 313 10359 127 1045 461 1738 1142 2114z"/></clipPath></defs><text x="10081" y="24148" fill="#201e1e" font-family="&apos;Arial Black&apos;" stroke="#201e1e" font-weight="900" stroke-width="7.62" font-size="705.56">40</text><g fill="none" stroke="#373435" stroke-width="80"><circle cx="10533" cy="1008" r="460"/><path d="m10533 198v1621"/><path d="m9723 1008h1621"/><circle cx="10533" cy="25519" r="460"/><path d="m10533 24708v1621"/><path d="m9723 25519h1621"/></g><rect x="9843" y="22866" width="1347" height="637" rx="318" fill="#fff" stroke="#fff" stroke-width="20"/><g fill="#373435" font-family="&apos;Arial&apos;" font-weight="normal" font-size="423.33"><text x="665" y="27229">DESC 1</text><text x="630" y="27833">DESC 2</text><text x="612" y="28433">DESC 3</text></g><path d="m7107 25520c-1304 659-3784 532-4536-687-750-1215-580-4662-651-6352-178-4232-629-7441-745-10854-130-3790 2354-6295 5323-7001 4189-995 3941 4837 3359 7834-305 1610-908 3012-1293 4586-710 2904-67 7337-313 10359-127 1045-461 1738-1142 2114z" fill="#fff"/><g clip-path="url(#0)"><g><g stroke="#201e1e"><path d="m2098 20979c0 0 1136 399 1247-542 0 0 416-3966 637-2083 0 0 637 4308 859 3224 0 0 277-1056 1026-485 0 0 222 2397 360 1227 0 0 277-5421 527-3766 0 0 388 4080 776 2910 0 0-185-420 778-495" fill="none" stroke-linejoin="round" stroke-linecap="round" stroke-width="150"/><g fill="#201e1e"><g font-family="&apos;Bell MT&apos;" stroke-width="50"><text x="10500" y="14850" font-size="1917.98" transform="matrix(.48728 0 0 1.16435-2762.13 5711.16)">Dra.</text><text x="10500" y="14850" font-size="1562.73" transform="matrix(.51853 0 0 1.16435-3203.21 7283.64)">Texto 1</text></g><g stroke-linejoin="round" stroke-linecap="round"><g stroke-width="20"><path d="m4354 8893c2-13 15-29 28-42 45-44 107-68 200-74 38-2 146-4 146 38 0 15-17 25-33 27-42 6-79-16-123-20-101-11-172 20-218 70z"/><path d="m4885 9395c5-1 5 3 3 3-4 23-11 38-9 59 3 38 38 56 46 77-33-13-76-22-82-59-5-36 23-57 42-81z"/><path d="m5306 9544c2 0 4 0 5 0-18 97-71 191-145 253-91 76-258 115-373 41 9-20 24-30 28-50 16-81-55-128-87-169 208 49 424 1 571-75zm-383 153c-37-1-73-11-106-20 25 29 63 90 26 130 176 79 328-49 387-179 0-2 0-3-3-3-74 31-199 73-304 71z"/></g><path d="m5340 9729c-24 4-30-19-23-29 13-21 49 6 23 29z" stroke-width="50"/><path d="m6202 13716c10 125 24 249 29 376 7 195-2 399-19 595-5 61-19 121-26 183-15 129-20 257-22 386-3 132-6 262 1 389 21 364 41 747 70 1119-29 8-65 9-102 9 5 26 21 49 36 71 72 111 164 198 266 289 40 35 133 131 55 182-30 20-76 20-121 25-123 13-290 21-398-22-142-56-231-174-300-301-4 69 1 129-2 197-56-1-112-3-168-4 3-46 1-90 0-133 0-43 3-88-5-127-10-44-54-74-53-120-19 6-53 13-72 1-11-9-13-26-18-40-67-211-56-513-45-796 10-259 42-507 74-748 2-17 4-36 7-53 2-17 9-33 9-48 0-13-8-28-10-43-14-102-16-222-19-333-3-126-15-252-29-370-14-118-30-239-50-354-15-87-29-172-56-247-8-22-14-51-36-63-14 92-16 184-25 276-25 244-55 487-79 745-2 22-9 48-7 68 1 14 10 34 15 51 33 112 52 251 66 385 41 384 46 800 48 1236 0 35 1 82 2 127 1 46 6 88-5 115-15 36-45 49-92 54-2 38-30 72-37 112-9 47-7 100-12 152-4 50-7 102-9 152-51-1-102-3-152-4 1-41 2-100 1-147-74 137-184 253-357 298-123 32-303 29-447 2-48-9-101-19-108-56-4-22 7-50 15-64 10-17 33-36 55-52 137-106 272-234 341-411-50 0-93 7-142 8 25-118 27-245 30-371 4-132 18-266 15-400-3-130-7-259-10-387-6-254-27-487-52-732-25-242-26-500-19-765 3-128 17-258 7-389-101-9-208-20-274-64-17-11-31-23-39-43 2-70 37-128 55-193 49-172 84-372 118-569 3-20 11-41 9-53-4-21-49-47-73-67-73-59-147-145-203-214-58-72-117-163-165-253-17-31-38-60-49-89-16-42-26-91-37-136-33-136-49-309-16-466 10-49 23-97 35-143 38-138 97-248 156-365 77-154 156-312 236-462 41-77 79-149 133-214 52-62 112-112 183-156-23-52-59-100-87-155-79-150-150-336-188-529-13-67-27-134-35-204-28-223-7-454 37-673 55-269 153-500 271-709 55-98 119-198 199-282 78-83 174-159 324-138 16 2 51-18 70-24 183-51 358 59 462 148 74 63 135 133 198 208 20 24 41 48 62 72 174 193 315 411 428 651 119 252 206 505 209 874 2 179-10 356-26 530-14 144-43 283-66 424-3 20-11 44-9 59 2 18 20 43 33 69 76 153 181 293 254 444 63 130 122 278 155 447 11 55 27 110 34 164 31 268-30 512-105 702-77 196-194 349-272 537 65 205 116 457 198 665 21 52 37 102-3 135-53 44-165 38-247 50zm-1768-3924c-38-55-74-124-100-194-73-201-114-479-57-740 49-228 149-426 276-579 42-50 91-111 140-140 28-17 75-28 115-22 4-17-6-36 4-42 189 19 306 138 408 256 155 179 272 402 373 627 35 78 62 158 104 228 79 131 176 243 278 346 6 6 15 13 16 23-75-24-132-81-179-132-6-6-18-23-21-15 32 86 85 163 131 223-74-42-127-109-170-179-15-24-25-53-44-74-59 167-114 329-198 466-12 20-33 37-39 55-9 26-4 61-7 87 50 0 88 4 117 20 45 25 65 75 99 110 23-8 63-7 83 5 135 393 68 999 40 1482 81-153 135-334 186-522 25-93 53-189 68-289 15-102 28-206 47-312 18-100 38-200 55-303 34-205 45-445 51-673 3-110-10-220-27-322-33-193-99-366-169-523-71-159-162-304-260-435-97-130-202-250-320-372-53-54-111-116-178-168-87-68-209-125-337-91-28 7-54 25-81 26-29 2-58-9-91-5-14 2-35 7-51 13-96 33-176 120-237 205-64 89-119 189-167 283-102 202-181 415-227 685-101 593 83 1105 303 1438 40-27 85-48 146-53 16-82 75-132 166-123-3-34-11-64-14-99-133-110-214-274-297-434-12 111 36 198 66 267 0-1 0-2 0-3zm794-801c-5 62 98 68 109 9 18-74-52-85-91-72-85 28-145 90-196 142 55-97 151-185 302-180 43 5 78 22 113 30 10 5 21 10 32 12-32-49-53-111-76-168-92-32-187-15-257 18-17 8-40 19-68 27-15 5-65 24-69-2-2-27 67-44 96-53 90-19 216-40 293-5-19-80-50-152-86-214-43-73-91-142-145-201-71-78-154-168-260-199-24-7-50-7-72-8-3 10 16 36 12 45-68-35-156-3-199 37-29 27-56 65-83 99-171 217-304 510-292 912 1 32-3 68 3 90 4 17 22 36 33 57 78 141 156 273 242 396 103 147 209 292 423 304 207 12 361-120 461-253 108-144 176-306 247-493-23-58-43-116-68-171-25-55-56-103-90-149-34 31-64 68-117 79 21-24 64-44 62-81-1-26-37-51-63-64-34-18-77-22-110-15 28 7 40 21 50 41 39 79-44 150-110 118-54-26-58-129-7-147-10 11-25 36-21 58zm121 1009l9-3c-1 35-2 72-3 107 36-18 76-104 73-164-16 18-65 41-79 61zm-57 37c1 40-6 86 0 121 12-17 55-30 63-55 9-30-4-69 3-107-20 6-48 32-65 41zm-568 53l4-26c0-21 9-29 10-49-9-3-29-27-41-26-3 25 12 86 28 102zm716 30c6 18 48 36 60 47 41 35 94 111 124 195 72 203 56 482 12 719-9 50-24 107-6 138 26 44 120 34 145-7 12-20 13-53 18-87 39-277 40-549-38-782-38-114-82-190-157-258-29-26-76-77-124-62-23 7-49 58-34 98zm-716-30l16 9c13 14 30 26 48 35 1-25 3-60 4-85-19-5-36-28-54-34-1 22-13 54-14 75zm503-18c1 41-6 90 0 127 15-10 52-29 65-41 1-40 2-81 3-121-2 0-4 0-5 0-14 9-62 35-62 35zm-439 62l17 8c19 7 29 22 47 29 1-28 1-56 2-85-14-11-49-28-63-38-1 27-3 58-4 85zm439-62c-16 8-51 14-62 27 4 33 5 88 0 121 22 1 42-19 62-21-1-41 6-90 0-127zm-124 45c-1 39-2 79-3 118 11 2 52-9 65-15 1-40 2-81 3-121-2 0-4 0-5 0-14 5-43 16-59 18zm-250 55l13 9c17 6 27 19 48 21 1-31 1-62 2-93-18-3-44-17-61-21-1 29-1 55-2 85zm-215-79c-72 1-91 64-105 138-24 128-38 266-42 408-5 216 24 380 65 512 31-9 53-29 81-40-73-255-46-634 10-897 9-41 25-81 19-115-9-7-20-7-29-6zm403 33c-1 38-2 70-3 107 16 0 40 1 61 2 1-39 2-79 3-118-15 2-46 8-62 10zm-127 76l16 9c15 4 28 11 45 12 1-34 2-68 2-101-18 0-46-11-61-13-1 32-1 61-2 93zm127-76c-8-2-52-8-64-5-1 34-2 68-2 101 16 1 53 14 64 10 1-36 2-71 3-107zm370 52c-171 345-258 952-198 1464 4 37 3 71 14 99 50-149 104-280 168-416 52-111 114-229 187-319 12-15 27-29 30-42 13-41-3-94 0-133-68-19-123-51-161-100 39-44 81-87 123-124 15-13 34-22 46-38 5-147-53-244-123-322-23-26-54-65-78-75-3 1-6 3-8 5zm-756 99c-15 117-14 287-15 389 37 53 138 64 215 45-35 101-88 182-132 273 185 173 323 400 426 651 3 7 5 18 13 23-16-638-214-1093-459-1501-2 0-4 0-5 0-28 11-37 74-43 120zm470 24c-121 20-228-29-295-78-10-7-18-19-32-21 34 62 60 129 92 194 31 63 65 126 94 191 15 33 24 71 38 105 40 104 80 206 121 308 41-288 120-549 185-802-46 40-133 90-203 102zm-656-68c-71 29-141 60-200 99-62 41-108 90-153 154-80 114-145 267-215 406-70 138-136 277-202 421-68 147-114 338-109 525 8 263 124 467 242 618 130 167 270 293 428 434 46-74 96-142 126-242 20-68 37-155 46-236 3-29 13-65 10-87-1-11-13-25-20-40-76-158-158-295-257-421-38-48-76-91-112-130 36 1 55 18 82 28 5-76-3-142-22-192-7-20-18-34-20-48 11 7 23 16 34 23 12 8 24 18 34 21 14-55 34-97 59-139 9-15 24-29 25-42 2-14-9-40-12-60-11-66-17-134 0-206 23 107 49 220 92 301 6 11 14 24 15 37-14 1-55-33-69-22-16 13 4 49 9 68 32 118 32 273 14 409-2 17-8 36-6 48 2 17 27 52 36 66 38 65 84 137 121 186 2-15-3-38 4-48 58 181 29 422-38 572-60 134-157 239-230 352-10 16-19 35-33 47 29-66 65-123 93-189-21-24-54-45-73-70-6-7-13-29-18-20-1 46-13 88-19 135-14 100-42 184-60 280-17 90-42 188-73 266-11 27-26 67-18 90 12 32 94 43 149 49 199 21 370 7 530-26 98-20 203-55 291-97 40-19 84-42 125-73 32-24 84-65 101-99 14-27 17-67 21-107 13-119 12-254 20-377 11-172 14-324 11-485-23 18-83 27-91-8-8-37 18-56 28-67 17-18 43-27 52-41 12-18 18-64 18-95 2-95-20-184-42-261-46-159-100-298-185-425-40-59-93-134-146-159-51-25-110-10-147 16-37 26-73 72-104 119-43 63-77 120-72 215 3 70 15 141 27 212 29 171 81 318 180 422 21 22 48 51 66 55 20 4 44-4 67-1 18 2 40 7 53 16 34 22 39 79-5 93-57 17-99-24-130-49-21-17-42-33-60-50-121-107-179-258-217-443-26-127-43-254-50-390-7-136-9-286 57-388-60-228-120-564-60-845 8-38 29-71 27-109-10-1-16 0-21 2zm1167 287c2 19 8 44 4 59-3 12-27 28-38 38-15 14-30 26-41 36-31 28-58 52-74 83 40 35 85 65 145 80 5 36 3 91 2 124 31-152 26-340-2-477-1 21 2 38 4 57zm446 494c-27 101-57 226-93 325-6 17-17 38-17 45 1 14 22 32 34 49 38 53 57 106 71 180 18 94 8 232-10 313-19 87-64 175-105 237-29 44-68 103-105 147-13 16-34 35-36 50-1 7 6 32 10 48 11 48 29 98 42 134 67 179 126 332 243 458 63-75 112-165 158-255 47-90 101-177 148-270 46-90 87-189 119-299 33-112 57-238 54-374-10-537-247-850-442-1205 0-2 0-3-3-3-22 135-30 277-69 421zm-1396 107c146 76 249 197 332 330 14 23 35 57 47 69-82-155-166-308-276-430-37-41-78-79-115-121 17-34 40-65 59-100 19-35 38-72 48-109-35 20-87 13-123-3-16 128-13 277 29 365zm1378 1883c-62-73-116-153-163-241-45-86-91-180-119-285-21-81-32-174-34-269-1-31-2-66 8-99 12 57 28 109 63 143 44-41 95-107 130-169 11-20 32-49 34-70 2-22-8-53-12-79-14-105-18-246 0-350 5-26 19-53 18-73-1-11-10-26-15-37-6-12-13-25-23-32-37 37-52 95-81 142-22 35-49 64-77 88-9 8-16 23-30 22 7-73 15-151 13-225-11-2-16 11-24 16-9 6-22 12-32 16-204 72-314-198-193-324 12-13 31-24 52-32 20-63 49-133 53-204-4 37-22 55-39 81-154 225-263 504-345 806-7 24-18 49-18 67 0 18 12 39 17 60 27 99 35 215 14 328 30-7 52 5 58 24 17 54-36 92-53 109 1 94-2 198-4 290-5 183-7 339-15 533-2 38-9 76-5 113 8 84 80 140 140 179 53 34 117 55 185 73 235 62 414 63 665 51 53-2 178-10 186-54 3-19-17-56-25-80-10-29-19-61-25-82-31-124-56-227-94-332-19-52-38-106-50-165-25 41-40 92-70 128 27 55 72 124 87 172-50-86-112-161-176-236zm-1253-1742c-44-43-141-135-220-73-79 61-88 258-65 385 15-13 20-35 28-53 54-116 127-225 289-218-3-16-18-28-31-40zm914 30c-68 15-110-38-143-74 0-2 0-3-3-3-87 84-28 249 93 242 81-5 105-88 106-189-23 5-34 19-54 24zm-1541 371c-9 99 18 173 54 224 1 2 4 18 10 9 5-140 7-277-18-387-17 42-41 96-46 154zm1834 237c21-81 23-203 7-285-1-2-2-3-5-3-7 93-10 201-1 288zm-975 1669c20 1 41 8 58 18 38 22 92 72 118 105 37 47 59 116 79 185 18 64 32 132 43 199 25 142 45 283 59 427 8 74 15 148 19 223 12 230 12 470 56 664-16-22-31-49-41-74-4-9-4-22-13-29-42 459-109 1045-13 1469 50-26 97-50 159-61 65-11 135-2 211 0 138 4 288 48 404 2-22-237-39-480-55-726-16-249-32-502-17-762 15-249 48-502 61-754 13-258-3-511-11-762-191 6-382-7-550-37-168-30-303-102-402-197-2 0-4 0-5 0-47 43-105 75-160 109zm-17 1305c18-123 26-250 38-377 19-193 48-371 64-560 6-65 6-131 10-200 1-20 9-49 4-70-3-14-28-38-47-55-26-23-54-43-77-33-195 85-430 153-717 148 9 127 0 253-6 381-12 263-8 522 17 759 13 120 20 238 29 356 29 354 43 737 19 1131-8 127-3 255-38 366 98-22 210-24 305-20 36 1 77 4 112 9 34 5 66 16 101 20 94 9 197 4 276-12 17-4 36-6 46-16-8-607 8-1241-106-1743-19 97-38 193-50 298-16-128 1-255 20-380zm625 2058c39 29 65 81 93 121 75 109 158 198 302 234 87 22 175 19 275 13 75-5 194 4 141-84-33-55-79-85-128-125-86-69-161-152-219-254-29-52-33-65-100-70-102-9-223-32-339-23-77 6-146 22-181 69 53 79 37 236 40 356 33-5 74 0 104 6-4-61-7-138 5-197-8-16-20-26-34-38-13-11-28-19-39-32 37 0 59 9 80 25zm-769-156c-80-7-158-8-232-15-42-4-86-9-120-6-54 5-78 71-99 110-41 75-95 130-151 188-53 54-120 98-180 153-11 10-51 39-44 69 5 23 55 34 82 39 207 37 422 23 552-70 83-59 138-139 187-226 28-50 46-104 123-104-20 26-55 31-61 72-2 16 6 35 7 54 3 47-4 95-9 135 31 2 59-5 88 2 18-115 2-276 36-391-63 4-117-5-179-10z" stroke-width="40"/><path d="m4665 8975c14 19 26 21 34 38 28 59-15 127-73 128-37 0-81-28-84-81-3-53 27-78 66-91-61-11-143 34-168 83-22 45 7 75 27 97-28-4-82-26-84-56-1-10 16-39 23-50 38-62 99-121 200-108 100 13 165 89 221 133 2 5 9 11 0 6-46-40-98-76-163-97zm-89 15c-21 31 1 75 33 77 62 4 62-103-3-96-8 1-25 11-30 19z" stroke-width="20"/></g></g></g><g fill="#373435" font-family="&apos;Arial&apos;" font-size="601.33"><text x="10500" y="14850" transform="matrix(1.10386 0 0 1.16435-4716.19-9944.45)">NN 1</text><text x="10500" y="14850" transform="matrix(1.10386 0 0 1.16435-4718.29-9252.65)">NN 2</text></g></g></g><path d="m13893 25508c1304 659 3784 532 4536-687 750-1215 580-4662 651-6352 178-4232 629-7441 745-10854 130-3790-2354-6295-5323-7001-4189-995-3941 4837-3359 7834 305 1610 908 3012 1293 4586 710 2904 67 7337 313 10359 127 1045 461 1738 1142 2114z" fill="#fff"/><g clip-path="url(#1)"><g><g stroke="#201e1e"><g stroke-linejoin="round" stroke-linecap="round"><g fill="#201e1e"><g stroke-width="20"><path d="m14995 8881c2-13 15-29 28-42 45-44 107-68 200-74 38-2 146-4 146 38 0 15-17 25-33 27-42 6-79-16-123-20-101-11-172 20-218 70z"/><path d="m15526 9383c5-1 5 3 3 3-4 23-11 38-9 59 3 38 38 56 46 77-33-13-76-22-82-59-5-36 23-57 42-81z"/><path d="m15947 9532c2 0 4 0 5 0-18 97-71 191-145 253-91 76-258 115-373 41 9-20 24-30 28-50 16-81-55-128-87-169 208 49 424 1 571-75zm-383 153c-38-1-73-11-106-20 25 29 63 90 26 130 176 79 328-49 387-179 0-2 0-3-3-3-74 31-199 73-304 71z"/></g><path d="m15980 9717c-24 4-30-19-23-29 13-21 49 6 23 29z" stroke-width="50"/><path d="m16843 13704c10 125 24 249 29 376 7 195-2 399-19 595-5 61-19 121-26 183-15 129-20 257-22 386-3 132-6 262 1 389 21 364 41 747 70 1119-29 8-65 9-102 9 5 26 21 49 36 71 72 111 164 198 266 289 40 35 133 131 55 182-30 20-76 20-121 25-123 13-290 21-398-22-142-56-231-174-300-301-4 69 1 129-2 197-56-1-112-3-168-4 3-46 1-90 0-133 0-43 3-88-5-127-10-44-54-74-53-120-19 6-53 13-72 1-11-9-13-26-18-40-67-211-56-513-45-796 10-259 42-507 74-748 2-17 4-36 7-53 2-17 9-33 9-48 0-13-8-28-10-43-14-102-16-222-19-333-3-126-15-252-29-370-14-118-30-239-50-354-15-87-29-172-56-247-8-22-14-51-36-63-14 92-16 184-25 276-25 244-55 487-79 745-2 22-9 48-7 68 1 14 10 34 15 51 33 112 52 251 66 385 41 384 46 800 48 1236 0 35 1 82 2 127 1 46 6 88-5 115-15 36-45 49-92 54-2 38-30 72-37 112-9 47-7 100-12 152-4 50-7 102-9 152-51-1-102-3-152-4 1-41 2-100 1-147-74 137-184 253-357 298-123 32-303 29-447 2-48-9-101-19-108-56-4-22 7-50 15-64 10-17 33-36 55-52 137-106 272-234 341-411-50 0-93 7-142 8 25-118 27-245 30-371 4-132 18-266 15-400-3-130-7-259-10-387-6-254-27-487-52-732-25-242-26-500-19-765 3-128 17-258 7-389-101-9-208-20-274-64-17-11-31-23-39-43 2-70 37-128 55-193 49-172 84-372 118-569 3-20 11-41 9-53-4-21-49-47-73-67-73-59-147-145-203-214-58-72-117-163-165-253-17-31-38-60-49-89-16-42-26-91-37-136-33-136-49-309-16-466 10-49 23-97 35-143 38-138 97-248 156-365 77-154 156-312 235-462 41-77 79-149 133-214 52-62 112-112 183-156-23-52-59-100-87-155-79-150-150-336-188-529-13-67-27-134-35-204-28-223-7-454 37-673 55-269 153-500 271-709 55-98 119-198 199-282 78-83 174-159 324-138 16 2 51-18 70-24 183-51 358 59 462 148 74 63 135 133 198 208 20 24 41 48 62 72 174 193 315 411 428 651 119 252 206 505 209 874 2 179-10 356-26 530-14 144-43 283-66 424-3 20-11 44-9 59 2 18 20 43 33 69 76 153 181 293 254 444 63 130 122 278 155 447 11 55 27 110 34 164 31 268-30 512-105 702-77 196-194 349-272 537 65 205 116 457 198 665 21 52 37 102-3 135-53 44-165 38-247 50zm-1768-3924c-38-55-74-124-100-194-73-201-114-479-57-740 49-228 149-426 276-579 42-50 91-111 140-140 28-17 75-28 116-22 4-17-6-36 4-42 189 19 306 138 408 256 155 179 272 402 373 627 35 78 62 158 104 228 79 131 176 243 278 346 6 6 15 13 15 23-75-24-132-81-179-132-6-6-18-23-21-15 32 86 85 163 131 223-74-42-127-109-170-179-15-24-25-53-44-74-59 167-114 329-198 466-12 20-33 37-39 55-9 26-4 61-7 87 50 0 88 4 117 20 45 25 65 75 99 110 23-8 64-7 83 5 135 393 68 999 40 1482 81-153 135-334 186-522 25-93 53-189 68-289 15-102 28-206 47-312 18-100 38-200 55-303 34-205 45-445 51-673 3-110-10-220-27-322-33-193-99-366-169-523-71-159-162-304-260-435-97-130-202-250-320-372-53-54-111-116-178-168-87-68-209-125-337-91-28 7-54 25-81 26-29 2-58-9-91-5-14 2-35 7-51 13-96 33-176 120-237 205-64 89-119 189-167 283-102 202-181 415-227 685-101 593 83 1105 303 1438 40-27 85-48 146-53 16-82 75-132 166-123-3-34-11-64-14-99-133-110-214-274-297-434-12 111 36 198 66 267 0-1 0-2 0-3zm794-801c-5 62 98 68 109 9 18-74-52-85-91-72-85 28-145 90-196 142 55-97 151-185 302-180 43 5 78 22 113 30 10 5 21 10 32 12-32-49-53-111-76-168-92-32-187-15-257 18-17 8-40 19-68 27-15 5-65 24-69-2-2-27 67-44 96-53 90-19 216-40 293-5-19-80-50-152-86-214-43-73-91-142-145-201-71-78-154-168-260-199-24-7-50-7-72-8-3 10 16 36 12 45-68-35-156-3-199 37-29 27-56 65-83 99-171 217-304 510-292 912 1 32-3 68 3 90 4 17 22 36 33 57 78 141 156 273 242 396 103 147 209 292 423 304 207 12 361-120 461-253 108-144 176-306 247-493-23-58-43-116-68-171-25-55-56-103-90-149-34 31-64 68-117 79 21-24 64-44 62-81-1-26-37-51-63-64-34-18-77-22-110-15 28 7 40 21 50 41 39 79-44 150-110 118-54-26-58-129-7-147-10 11-25 36-21 58zm121 1009l9-3c-1 35-2 72-3 107 36-18 76-104 73-164-16 18-65 41-79 61zm-57 37c1 40-6 86 0 121 12-17 55-30 63-55 9-30-4-69 3-107-20 6-48 32-65 41zm-568 53l4-26c0-21 9-29 10-49-9-3-29-27-41-26-3 25 12 86 28 102zm716 30c6 18 48 36 60 47 41 35 94 111 124 195 72 203 56 482 12 719-9 50-24 107-6 138 26 44 120 34 145-7 12-20 13-53 18-87 39-277 40-549-38-782-38-114-82-190-157-258-29-26-76-77-124-62-23 7-49 58-34 98zm-716-30l16 9c13 14 30 26 48 35 1-25 3-60 4-85-19-5-36-28-54-34-1 22-13 54-14 75zm503-18c1 41-6 90 0 127 15-10 52-29 65-41 1-40 2-81 3-121-2 0-4 0-5 0-14 9-62 35-62 35zm-439 62l17 8c19 7 29 22 47 29 1-28 1-56 2-85-14-11-49-28-63-38-1 27-3 58-4 85zm439-62c-16 8-51 14-62 27 4 33 5 88 0 121 22 1 42-19 62-21-1-41 6-90 0-127zm-124 45c-1 39-2 79-3 118 11 2 52-9 65-15 1-40 2-81 3-121-2 0-4 0-5 0-14 5-43 16-59 18zm-250 55l13 9c17 6 27 19 48 21 1-31 1-62 2-93-18-3-44-17-61-21-1 29-1 55-2 85zm-215-79c-72 1-91 64-105 138-24 128-38 266-42 408-5 216 24 380 65 512 31-9 53-29 81-40-73-255-46-634 10-897 9-41 25-81 19-115-9-7-20-7-29-6zm403 33c-1 38-2 70-3 107 16 0 40 1 61 2 1-39 2-79 3-118-15 2-46 8-62 10zm-127 76l16 9c15 4 28 11 45 12 1-34 2-68 2-101-18 0-46-11-61-13-1 32-1 61-2 93zm127-76c-8-2-52-8-64-5-1 34-2 68-2 101 16 1 53 14 64 10 1-36 2-71 3-107zm370 52c-171 345-258 952-198 1464 4 37 3 71 14 99 50-149 104-280 168-416 52-111 114-229 187-319 12-15 27-29 30-42 13-41-3-94 0-133-68-19-123-51-161-100 39-44 81-87 123-124 15-13 34-22 46-38 5-147-53-244-123-322-23-26-54-65-78-75-3 1-6 3-8 5zm-756 99c-15 117-14 287-15 389 37 53 138 64 216 45-35 101-88 182-132 273 185 173 323 400 426 651 3 7 5 18 13 23-16-638-214-1093-459-1501-2 0-4 0-5 0-28 11-37 74-43 120zm470 24c-121 20-228-29-295-78-10-7-18-19-32-21 34 62 60 129 92 194 31 63 65 126 94 191 15 33 24 71 38 105 40 104 80 206 121 308 41-288 120-549 185-802-46 40-133 90-203 102zm-656-68c-71 29-141 60-200 99-62 41-108 90-153 154-80 114-145 267-215 406-70 138-136 277-202 421-68 147-114 338-109 525 8 263 124 467 242 618 130 167 270 293 428 434 46-74 96-142 126-242 20-68 37-155 46-236 3-29 13-65 10-87-1-11-13-25-20-40-76-158-158-295-257-421-38-48-76-91-112-130 36 1 55 18 82 28 5-76-3-142-22-192-7-20-18-34-20-48 11 7 23 16 34 23 12 8 24 18 34 21 14-55 34-97 59-139 9-15 24-29 25-42 2-14-9-40-12-60-11-66-17-134 0-206 23 107 49 220 92 301 6 11 14 24 15 37-14 1-55-33-69-22-16 13 4 49 9 68 32 118 32 273 14 409-2 17-8 36-6 48 2 17 27 52 36 66 38 65 84 137 121 186 2-15-3-38 4-48 58 181 29 422-38 572-60 134-157 239-230 352-10 16-19 35-33 47 29-66 65-123 93-189-21-24-54-45-73-70-6-7-13-29-18-20-1 46-13 88-19 135-14 100-42 184-60 280-17 90-42 188-73 266-11 27-26 67-18 90 12 32 94 43 149 49 199 21 370 7 530-26 98-20 203-55 291-97 40-19 84-42 125-73 32-24 84-65 101-99 14-27 17-67 21-107 13-119 12-254 20-377 11-172 14-324 11-485-23 18-83 27-91-8-8-37 18-56 28-67 17-18 43-27 52-41 12-18 18-64 18-95 2-95-20-184-42-261-46-159-100-298-185-425-40-59-93-134-146-159-51-25-110-10-147 16-37 26-73 72-104 119-43 63-77 120-72 215 3 70 15 141 27 212 29 171 81 318 180 422 21 22 48 51 66 55 20 4 44-4 67-1 18 2 40 7 53 16 34 22 39 79-5 93-57 17-99-24-130-49-21-17-42-33-60-50-121-107-179-258-217-443-26-127-43-254-50-390-7-136-9-286 57-388-60-228-120-564-60-845 8-38 29-71 27-109-10-1-16 0-21 2zm1167 287c2 19 8 44 4 59-3 12-27 28-38 38-15 14-30 26-41 36-31 28-58 52-74 83 40 35 85 65 145 80 5 36 3 91 2 124 31-152 26-340-2-477-1 21 2 38 4 57zm446 494c-27 101-57 226-93 325-6 17-17 38-17 45 1 14 22 32 34 49 38 53 57 106 71 180 18 94 8 232-10 313-19 87-64 175-105 237-29 44-68 103-105 147-13 16-34 35-36 50-1 7 6 32 10 48 11 48 29 98 42 134 67 179 126 332 243 458 63-75 112-165 158-255 47-90 101-177 148-270 46-90 87-189 119-299 33-112 57-238 54-374-10-537-247-850-442-1205 0-2 0-3-3-3-22 135-30 277-69 421zm-1395 107c146 76 249 197 332 330 14 23 35 57 46 69-82-155-166-308-276-430-37-41-78-79-115-121 17-34 40-65 59-100 19-35 38-72 48-109-35 20-87 13-123-3-16 128-13 277 29 365zm1378 1883c-62-73-116-153-163-241-45-86-91-180-119-285-21-81-32-174-34-269-1-31-2-66 8-99 12 57 28 109 63 143 44-41 95-107 130-169 11-20 32-49 34-70 2-22-8-53-12-79-14-105-18-246 0-350 5-26 19-53 18-73-1-11-10-26-15-37-6-12-13-25-23-32-37 37-52 95-81 142-22 35-49 64-77 88-9 8-16 23-30 22 7-73 15-151 13-225-11-2-16 11-24 16-9 6-22 12-32 16-204 72-314-198-193-324 12-13 31-24 52-32 20-63 49-133 53-204-4 37-22 55-39 81-154 225-263 504-345 806-7 24-18 49-18 67 0 18 12 39 17 60 27 99 35 215 14 328 30-7 52 5 58 24 17 54-36 92-53 109 1 94-2 198-4 290-5 183-7 339-15 533-2 38-9 76-5 113 8 84 80 140 140 179 53 34 117 55 185 73 235 62 414 63 665 51 53-2 178-10 186-54 3-19-17-56-25-80-10-29-19-61-25-82-31-124-56-227-94-332-19-52-38-106-50-165-25 41-40 92-70 128 27 55 72 124 87 172-50-86-112-161-176-236zm-1253-1742c-44-43-141-135-220-73-79 61-88 258-65 385 15-13 20-35 28-53 54-116 127-225 289-218-3-16-18-28-31-40zm914 30c-68 15-110-38-143-74 0-2 0-3-3-3-87 84-28 249 93 242 81-5 105-88 106-189-23 5-34 19-54 24zm-1541 371c-9 99 18 173 54 224 1 2 4 18 10 9 5-140 7-277-18-387-17 42-41 96-46 154zm1834 237c21-81 23-203 7-285-1-2-2-3-5-3-7 93-10 201-1 288zm-975 1669c20 1 41 8 58 18 38 22 92 72 118 105 37 47 59 116 78 185 18 64 32 132 43 199 25 142 45 283 59 427 8 74 15 148 19 223 12 230 12 470 56 664-16-22-31-49-41-74-4-9-4-22-13-29-42 459-109 1045-13 1469 50-26 97-50 159-61 65-11 135-2 211 0 138 4 288 48 404 2-22-237-39-480-55-726-16-249-32-502-17-762 15-249 48-502 61-754 13-258-3-511-11-762-191 6-382-7-550-37-168-30-303-102-402-197-2 0-4 0-5 0-47 43-105 75-160 109zm-17 1305c18-123 26-250 38-377 19-193 48-371 64-560 6-65 6-131 10-200 1-20 9-49 4-70-3-14-28-38-47-55-26-23-54-43-77-33-195 85-430 153-717 148 9 127 0 253-6 381-12 263-8 522 17 759 13 120 20 238 29 356 29 354 43 737 19 1131-8 127-3 255-38 366 98-22 210-24 305-20 36 1 77 4 112 9 34 5 66 16 101 20 94 9 197 4 276-12 17-4 36-6 46-16-8-607 7-1241-106-1743-19 97-38 193-50 298-16-128 1-255 20-380zm625 2058c39 29 65 81 93 121 75 109 158 198 302 234 87 22 175 19 275 13 75-5 194 4 141-84-33-55-79-85-128-125-86-69-161-152-219-254-29-52-33-65-100-70-102-9-223-32-339-23-77 6-146 22-181 69 53 79 37 236 40 356 33-5 74 0 104 6-4-61-7-138 5-197-8-16-20-26-34-38-13-11-28-19-39-32 37 0 59 9 80 25zm-769-156c-80-7-158-8-232-15-42-4-86-9-120-6-54 5-78 71-99 110-41 75-95 130-151 188-53 54-120 98-180 153-11 10-51 39-44 69 5 23 55 34 82 39 207 37 422 23 552-70 83-59 138-139 187-226 28-50 46-104 123-104-20 26-55 31-61 72-2 16 6 35 7 54 3 47-4 95-9 135 31 2 59-5 88 2 18-115 2-276 36-391-63 4-117-5-179-10z" stroke-width="40"/><path d="m15306 8963c14 19 26 21 34 38 28 59-15 127-73 128-37 0-81-28-84-81-3-53 27-78 66-91-61-11-143 34-168 83-22 45 7 75 27 97-28-4-82-26-84-56-1-10 16-39 23-50 38-62 99-121 200-108 100 13 165 89 221 133 2 5 9 11 0 6-46-40-98-76-163-97zm-89 15c-21 31 1 75 33 77 62 4 62-103-3-96-8 1-25 11-30 19z" stroke-width="20"/></g><path fill="none" stroke-width="150" d="m12692 20926l4409 43"/></g><g fill="#201e1e"><ellipse cx="17198" cy="20986" rx="219" ry="270" stroke-width="7.62"/><g font-family="&apos;Bell MT&apos;" stroke-width="50"><text x="10500" y="14850" font-size="1917.98" transform="matrix(.48728 0 0 1.16435 7917.94 5699.18)">Dra.</text><text x="10500" y="14850" font-size="1562.73" transform="matrix(.51853 0 0 1.16435 7476.86 7271.66)">Texto 1</text><text x="10500" y="14850" font-size="2054.91" transform="matrix(.51853 0 0 1.16435 8609.38 2535.37)">Texto 2</text></g></g></g><g fill="#373435" font-family="&apos;Arial&apos;" font-size="601.33"><text x="10500" y="14850" transform="matrix(1.10386 0 0 1.16435 888.68-9787.68)">NN 1</text><text x="10500" y="14850" transform="matrix(1.10386 0 0 1.16435 886.58-9095.88)">NN 2</text></g></g></g><g fill-rule="nonzero"><path d="m15949 1174c-19 132-33 250-43 353-12 124-24 226-37 305-12 80-20 161-24 243 172-132 397-334 674-604l233 123c7 6 9 13 5 20-4 8-11 10-21 6-44-17-77-21-100-11-23 10-46 34-71 73-24 38-67 112-127 219-60 108-109 198-147 271-73 140-115 222-125 246-11 24-14 46-9 66 5 20 23 42 53 66 9 7 11 14 7 22-4 8-12 8-24 2l-227-120-60-31c-13-7-18-15-13-23 4-7 10-9 20-6 36 11 62 15 78 10 16-5 33-19 53-42 19-23 56-87 110-192l202-361 100-178c7-14 9-21 6-23-5-3-11 0-18 6l-272 238c-174 152-283 250-328 295l-97 96c-30 29-47 45-51 47-4 2-8 2-11 1-5-3-5-11-1-26 9-35 25-155 48-358 16-113 31-243 47-390 16-147 23-225 22-232-1-8-3-12-5-13-4-2-9 3-16 16l-248 459-82 152c-42 81-61 138-57 172 4 34 22 59 53 75 20 11 28 21 22 33-4 8-11 10-21 5l-12-7-38-19-82-44c-36-19-84-40-143-65-2-7-3-12-1-16 5-10 15-12 29-5 40 19 78 17 113-5 35-22 82-90 140-201l70-135 186-338c41-79 61-139 58-178-3-39-20-70-52-94-13-10-18-19-14-27 5-9 12-10 23-5 6 3 13 7 21 12l204 116zm665 1236c-19 22-34 40-44 54-49 65-76 131-80 198-4 67 15 117 59 150 43 32 99 40 168 24 20-4 31-5 34-3 6 4 4 12-4 25-38 22-81 32-130 29-49-3-94-19-133-49-58-44-87-109-86-195 1-86 33-170 97-254 68-90 147-148 237-174 90-26 160-20 211 18 48 36 73 92 75 168 3 76-20 146-68 209-7 10-14 16-20 19-6 3-21-5-46-24l-269-195zm27-35c44 37 87 73 130 105l30 19c22 15 42 22 61 21 19-1 38-15 57-39 29-39 45-80 46-125 1-44-11-77-39-97-25-19-63-22-113-8-50 14-107 55-171 124zm1302 160c-85 88-201 207-346 357l-385 388c-42 43-51 83-27 120 8 12 9 22 3 28-5 5-10 6-15 4-5-2-26-22-65-59-19-19-38-39-57-58 23-26 40-44 51-55 14-14 33-33 59-58-57 24-107 36-148 35-42-1-76-14-103-40-38-37-53-97-47-181 6-84 47-165 123-243 74-76 157-125 248-145 91-21 163-5 216 46 27 26 43 55 48 89 5 33 0 71-17 111 49-46 94-91 136-133 127-131 195-206 204-225 9-19 5-39-11-61-10-14-12-23-6-29 7-7 18-3 33 11l107 99zm-604 487c69-71 111-132 127-185 16-53 5-97-31-133-38-37-87-45-146-23-59 22-128 74-208 156-80 82-126 153-138 211-12 58-4 100 23 126 27 26 71 33 133 20 62-13 142-70 241-172zm854-189c11 13 15 29 11 50-4 21-13 37-27 49-17 15-35 23-55 25-19 2-35-4-47-18-11-13-15-29-13-48 2-19 12-37 31-52 18-15 36-24 55-25 19-1 34 5 46 19zm-271 329l-149 125-137 119-104 89-79 68c-32 27-48 48-50 63-2 15 4 31 16 47 14 19 17 32 9 40-6 6-13 5-19-2-2-3-5-6-7-10-22-35-44-66-67-93-37-43-64-71-81-84-4-3-7-6-10-9-7-8-6-15 1-22 8-7 21-2 40 14 19 16 35 24 47 23 12-1 36-17 72-48l274-229c73-62 112-103 118-123 6-20-1-42-20-67-7-8-7-15 1-21 4-4 9-5 13-4 5 1 25 18 60 53 35 34 59 59 72 73zm-167 404c86-60 176-92 270-95 94-3 163 27 205 88 28 39 42 86 42 140 0 54-18 94-56 120-15 10-30 16-46 16-16 1-27-3-33-12-14-20-4-51 30-91 52-62 64-113 35-155-29-41-74-56-135-45-61 11-129 43-204 95-88 62-150 127-184 196-35 69-37 125-7 167 20 28 53 45 99 51 46 6 90-3 133-26 15-8 24-9 29-3 5 6 3 13-6 19-46 32-101 47-164 42-64-4-115-34-153-89-42-60-48-131-17-214 31-82 85-151 163-206zm1082 153c9 14 10 31 3 51-7 20-18 35-34 45-19 12-38 17-58 17-19-1-34-9-44-25-9-14-11-31-6-50 5-19 18-34 38-47 20-12 39-18 58-16 19 2 33 10 42 26zm-318 283l-166 101-154 97-116 72-89 55c-35 22-55 40-59 55-4 15-1 31 9 49 11 21 12 35 3 40-7 4-13 3-18-5-2-3-4-6-6-11-16-38-33-72-52-102-30-48-52-80-68-96-3-3-6-7-9-10-6-9-4-16 4-21 8-5 21 2 38 20 16 19 31 29 43 29 12 1 38-12 79-36l306-185c81-50 127-85 136-103 9-19 6-42-10-69-6-9-4-16 4-21 5-3 9-4 14-2 4 2 21 22 51 61 30 39 49 67 60 83zm200 371c-26 24-75 54-147 90 63 1 114 11 153 29 40 19 68 45 84 81 13 27 18 56 16 88-2 32-15 62-42 91-26 29-78 61-156 98l-265 118c-48 22-77 40-87 52-9 12-13 30-11 53 1 16-1 26-7 29-8 4-13 2-16-5-1-3-2-6-3-9-4-20-14-49-30-85-15-32-33-66-54-102-7-15-6-24 3-28 6-3 12-1 18 6 16 19 30 30 39 34 10 4 21 4 33 2 13-2 51-17 116-45 65-28 117-51 157-70 110-51 178-95 204-133 27-38 33-73 18-105-22-47-73-70-153-71-80 0-198 35-351 106-70 32-113 56-129 72-16 16-19 39-11 69 3 9 0 16-9 20-7 3-13 1-17-8l-11-33c-4-12-21-49-50-111l-24-47c-8-17-8-28 1-32 9-4 20 2 34 19 13 16 27 24 42 25 15 1 56-13 123-41 67-28 150-65 249-111 92-43 147-74 165-94 18-20 26-40 23-59-2-18 1-28 9-32 9-4 16 0 22 12l22 49c2 5 16 32 40 80zm-231 1107c-45-9-82-25-110-48-28-23-48-52-58-89-13-43-8-80 15-114 23-33 58-57 107-71 36-11 72-14 108-8 36 5 63 15 83 30 19 15 46 42 82 83 49 59 85 92 109 100 23 8 50 7 81-2 49-15 84-35 106-61 22-26 28-55 18-87-8-26-21-44-41-53-20-9-54-10-103-3-53 8-83-2-91-27-3-9 0-21 9-36 9-15 25-26 49-33 41-12 82-6 123 21 41 26 71 70 89 131 15 49 17 90 8 124-9 34-24 59-45 73-21 14-64 31-130 51l-219 61c-84 25-143 47-175 65-33 19-46 39-40 60 1 4 4 10 7 18l5 10c3 10 0 16-9 19-21 6-44-33-70-117-7-24-5-43 7-56 12-13 41-26 87-41zm322-97c-25-6-60-27-104-62-43-35-81-59-114-70-33-11-69-11-108 1-35 10-62 27-81 50-20 23-26 46-19 70 7 24 24 44 50 60 26 16 56 24 89 25 33 1 80-7 139-25 45-13 94-30 147-49z" fill="#201e1e"/><path d="m15949 1174c-19 132-33 250-43 353-12 124-24 226-37 305-12 80-20 161-24 243 172-132 397-334 674-604l233 123c7 6 9 13 5 20-4 8-11 10-21 6-44-17-77-21-100-11-23 10-46 34-71 73-24 38-67 112-127 219-60 108-109 198-147 271-73 140-115 222-125 246-11 24-14 46-9 66 5 20 23 42 53 66 9 7 11 14 7 22-4 8-12 8-24 2l-227-120-60-31c-13-7-18-15-13-23 4-7 10-9 20-6 36 11 62 15 78 10 16-5 33-19 53-42 19-23 56-87 110-192l202-361 100-178c7-14 9-21 6-23-5-3-11 0-18 6l-272 238c-174 152-283 250-328 295l-97 96c-30 29-47 45-51 47-4 2-8 2-11 1-5-3-5-11-1-26 9-35 25-155 48-358 16-113 31-243 47-390 16-147 23-225 22-232-1-8-3-12-5-13-4-2-9 3-16 16l-248 459-82 152c-42 81-61 138-57 172 4 34 22 59 53 75 20 11 28 21 22 33-4 8-11 10-21 5l-12-7-38-19-82-44c-36-19-84-40-143-65-2-7-3-12-1-16 5-10 15-12 29-5 40 19 78 17 113-5 35-22 82-90 140-201l70-135 186-338c41-79 61-139 58-178-3-39-20-70-52-94-13-10-18-19-14-27 5-9 12-10 23-5 6 3 13 7 21 12l204 116zm665 1236c-19 22-34 40-44 54-49 65-76 131-80 198-4 67 15 117 59 150 43 32 99 40 168 24 20-4 31-5 34-3 6 4 4 12-4 25-38 22-81 32-130 29-49-3-94-19-133-49-58-44-87-109-86-195 1-86 33-170 97-254 68-90 147-148 237-174 90-26 160-20 211 18 48 36 73 92 75 168 3 76-20 146-68 209-7 10-14 16-20 19-6 3-21-5-46-24l-269-195zm27-35c44 37 87 73 130 105l30 19c22 15 42 22 61 21 19-1 38-15 57-39 29-39 45-80 46-125 1-44-11-77-39-97-25-19-63-22-113-8-50 14-107 55-171 124zm1302 160c-85 88-201 207-346 357l-385 388c-42 43-51 83-27 120 8 12 9 22 3 28-5 5-10 6-15 4-5-2-26-22-65-59-19-19-38-39-57-58 23-26 40-44 51-55 14-14 33-33 59-58-57 24-107 36-148 35-42-1-76-14-103-40-38-37-53-97-47-181 6-84 47-165 123-243 74-76 157-125 248-145 91-21 163-5 216 46 27 26 43 55 48 89 5 33 0 71-17 111 49-46 94-91 136-133 127-131 195-206 204-225 9-19 5-39-11-61-10-14-12-23-6-29 7-7 18-3 33 11l107 99zm-604 487c69-71 111-132 127-185 16-53 5-97-31-133-38-37-87-45-146-23-59 22-128 74-208 156-80 82-126 153-138 211-12 58-4 100 23 126 27 26 71 33 133 20 62-13 142-70 241-172zm854-189c11 13 15 29 11 50-4 21-13 37-27 49-17 15-35 23-55 25-19 2-35-4-47-18-11-13-15-29-13-48 2-19 12-37 31-52 18-15 36-24 55-25 19-1 34 5 46 19zm-271 329l-149 125-137 119-104 89-79 68c-32 27-48 48-50 63-2 15 4 31 16 47 14 19 17 32 9 40-6 6-13 5-19-2-2-3-5-6-7-10-22-35-44-66-67-93-37-43-64-71-81-84-4-3-7-6-10-9-7-8-6-15 1-22 8-7 21-2 40 14 19 16 35 24 47 23 12-1 36-17 72-48l274-229c73-62 112-103 118-123 6-20-1-42-20-67-7-8-7-15 1-21 4-4 9-5 13-4 5 1 25 18 60 53 35 34 59 59 72 73zm-167 404c86-60 176-92 270-95 94-3 163 27 205 88 28 39 42 86 42 140 0 54-18 94-56 120-15 10-30 16-46 16-16 1-27-3-33-12-14-20-4-51 30-91 52-62 64-113 35-155-29-41-74-56-135-45-61 11-129 43-204 95-88 62-150 127-184 196-35 69-37 125-7 167 20 28 53 45 99 51 46 6 90-3 133-26 15-8 24-9 29-3 5 6 3 13-6 19-46 32-101 47-164 42-64-4-115-34-153-89-42-60-48-131-17-214 31-82 85-151 163-206zm1082 153c9 14 10 31 3 51-7 20-18 35-34 45-19 12-38 17-58 17-19-1-34-9-44-25-9-14-11-31-6-50 5-19 18-34 38-47 20-12 39-18 58-16 19 2 33 10 42 26zm-318 283l-166 101-154 97-116 72-89 55c-35 22-55 40-59 55-4 15-1 31 9 49 11 21 12 35 3 40-7 4-13 3-18-5-2-3-4-6-6-11-16-38-33-72-52-102-30-48-52-80-68-96-3-3-6-7-9-10-6-9-4-16 4-21 8-5 21 2 38 20 16 19 31 29 43 29 12 1 38-12 79-36l306-185c81-50 127-85 136-103 9-19 6-42-10-69-6-9-4-16 4-21 5-3 9-4 14-2 4 2 21 22 51 61 30 39 49 67 60 83zm200 371c-26 24-75 54-147 90 63 1 114 11 153 29 40 19 68 45 84 81 13 27 18 56 16 88-2 32-15 62-42 91-26 29-78 61-156 98l-265 118c-48 22-77 40-87 52-9 12-13 30-11 53 1 16-1 26-7 29-8 4-13 2-16-5-1-3-2-6-3-9-4-20-14-49-30-85-15-32-33-66-54-102-7-15-6-24 3-28 6-3 12-1 18 6 16 19 30 30 39 34 10 4 21 4 33 2 13-2 51-17 116-45 65-28 117-51 157-70 110-51 178-95 204-133 27-38 33-73 18-105-22-47-73-70-153-71-80 0-198 35-351 106-70 32-113 56-129 72-16 16-19 39-11 69 3 9 0 16-9 20-7 3-13 1-17-8l-11-33c-4-12-21-49-50-111l-24-47c-8-17-8-28 1-32 9-4 20 2 34 19 13 16 27 24 42 25 15 1 56-13 123-41 67-28 150-65 249-111 92-43 147-74 165-94 18-20 26-40 23-59-2-18 1-28 9-32 9-4 16 0 22 12l22 49c2 5 16 32 40 80zm-231 1107c-45-9-82-25-110-48-28-23-48-52-58-89-13-43-8-80 15-114 23-33 58-57 107-71 36-11 72-14 108-8 36 5 63 15 83 30 19 15 46 42 82 83 49 59 85 92 109 100 23 8 50 7 81-2 49-15 84-35 106-61 22-26 28-55 18-87-8-26-21-44-41-53-20-9-54-10-103-3-53 8-83-2-91-27-3-9 0-21 9-36 9-15 25-26 49-33 41-12 82-6 123 21 41 26 71 70 89 131 15 49 17 90 8 124-9 34-24 59-45 73-21 14-64 31-130 51l-219 61c-84 25-143 47-175 65-33 19-46 39-40 60 1 4 4 10 7 18l5 10c3 10 0 16-9 19-21 6-44-33-70-117-7-24-5-43 7-56 12-13 41-26 87-41zm322-97c-25-6-60-27-104-62-43-35-81-59-114-70-33-11-69-11-108 1-35 10-62 27-81 50-20 23-26 46-19 70 7 24 24 44 50 60 26 16 56 24 89 25 33 1 80-7 139-25 45-13 94-30 147-49z" fill="none" stroke="#201e1e" stroke-linejoin="round" stroke-linecap="round" stroke-width="50"/><path d="m1453 5464c133-5 252-11 356-18 124-9 226-15 307-17 81-2 162-8 243-18-160-147-397-333-712-559l80-251c4-8 11-11 19-8 8 3 12 9 10 20-9 46-7 80 6 100 14 21 42 40 84 57 42 17 122 46 238 87 117 41 214 73 292 98 150 48 238 75 264 81 25 6 48 5 66-2 19-8 37-29 55-64 6-10 12-13 20-11 8 3 10 10 6 24l-79 245-20 64c-5 14-11 20-20 17-8-2-11-9-9-19 5-37 4-63-3-78-7-15-24-30-51-45-26-14-96-40-208-75l-391-137-193-68c-15-5-23-5-24-2-2 5 2 11 9 17l281 227c180 145 296 236 347 272l112 79c34 24 52 38 55 42 3 4 4 7 3 11-2 5-10 7-25 6-36-3-157 2-361 15-114 4-245 11-392 21-148 10-225 16-232 18-7 2-11 5-12 7-1 4 5 8 18 13l495 165 164 54c87 28 147 37 179 27 33-10 54-32 65-65 7-22 16-31 28-27 9 3 12 9 8 20l-5 13-12 41-29 89c-12 39-25 89-39 152-6 4-11 5-16 3-11-3-14-13-10-28 12-43 3-79-25-110-28-31-102-65-223-103l-145-46-365-124c-85-27-147-36-185-27-38 9-65 32-83 67-8 15-16 21-24 19-10-3-12-10-9-22 2-6 5-14 8-23l79-221zm1097-877c25 15 45 27 60 35 72 38 141 54 208 48 67-6 113-34 139-82 25-47 24-104-3-170-7-19-10-30-9-33 3-6 12-6 25 1 28 34 44 75 50 124 5 49-4 95-27 139-34 65-94 103-178 116-85 13-173-6-266-55-99-53-169-122-210-206-40-85-45-155-16-211 28-53 79-86 154-101 75-15 147-3 217 34 11 6 18 11 22 16 4 5-2 22-16 49l-150 296m-39-21c30-49 58-98 83-145l14-32c11-24 15-45 11-63-4-19-20-35-48-50-43-23-86-32-130-26-44 6-74 24-90 54-15 28-12 66 10 113 22 47 72 97 150 149m-93-1276c104 66 243 155 419 267l458 298c51 32 92 33 123 2 11-10 19-13 27-8 6 4 8 8 7 13-1 5-16 30-45 75-15 23-30 45-45 68-30-17-51-30-64-39-16-10-39-26-69-46 35 51 57 97 65 138 8 41 2 77-18 109-28 44-84 72-168 83-83 11-171-13-263-72-90-57-154-128-193-213-39-85-38-158 1-221 20-31 46-53 77-65 32-12 69-14 113-6-55-38-108-74-158-106-154-98-241-149-262-154-21-5-40 3-57 23-11 12-20 16-27 12-8-5-7-17 4-34l75-125zm600 492c-83-53-152-82-207-86-55-5-96 14-124 58-29 45-26 94 7 148 34 53 99 111 194 172 97 62 175 92 234 92 59 0 99-16 119-48 20-32 18-77-7-134-25-58-98-125-217-201zm-306-830c11-13 27-19 48-19 21 0 39 7 53 19 17 15 28 31 33 50 5 19 2 35-11 50-11 13-26 20-45 21-19 1-38-6-56-22-18-15-29-32-33-51-4-18 0-34 12-48zm367 217l147 128 139 117 104 89 79 68c32 27 55 40 70 40 15-1 30-8 44-23 17-17 29-22 38-15 6 6 7 12 1 19-2 3-5 5-8 9-32 27-59 54-82 81-37 43-60 74-71 93-2 4-4 8-7 11-7 8-14 9-22 2-8-6-5-21 8-42 13-21 18-38 15-50-3-12-23-33-59-64l-269-235c-73-62-119-95-140-98-20-3-41 7-63 30-7 8-14 9-21 3-4-4-6-8-6-12 0-5 14-27 43-67 29-40 49-67 61-82zm425 104c-73-75-119-159-136-252-17-93 0-165 54-217 35-34 78-55 131-64 53-9 95 3 127 36 13 13 20 27 24 42 3 16 1 27-7 35-18 17-49 12-95-15-69-42-122-45-158-10-36 35-44 82-23 141 20 59 63 121 126 186 75 77 149 127 223 151 74 23 129 17 166-19 24-24 36-59 35-106-1-46-17-89-47-127-10-14-12-23-7-28 6-6 12-5 19 3 39 40 62 92 68 156 6 64-15 119-63 165-52 51-122 68-208 51-86-17-163-60-229-128m-21-1099c13-11 29-15 50-11 21 4 37 13 49 27 15 17 23 35 25 55 2 19-4 35-18 47-13 11-29 15-48 13-19-2-37-12-52-30-15-18-24-36-25-55-1-19 5-34 19-46m329 270l126 148 120 137 89 103 68 79c27 31 48 48 63 50 15 2 31-4 47-16 19-14 32-17 40-9 6 6 5 13-2 19-3 2-6 5-10 7-35 22-66 44-93 67-43 37-71 64-84 82-3 4-6 7-9 10-8 7-15 7-22-1-7-8-2-21 14-40 16-19 24-35 22-47-1-12-17-36-48-72l-230-274c-62-72-103-112-123-118-20-6-42 1-67 21-8 7-15 7-21-1-4-4-5-9-4-13 1-5 18-25 52-60 34-35 58-59 72-72m326-262c28 22 65 65 112 131-9-62-8-114 4-156 12-42 34-74 67-96 25-17 53-27 84-30 31-4 63 5 96 27 33 21 73 67 121 139l159 243c30 44 51 70 65 77 13 7 31 8 54 2 16-4 26-3 30 3 5 7 4 13-2 17-2 2-5 3-8 4-20 7-46 22-79 44-29 20-60 43-92 69-13 9-23 10-29 1-4-6-3-12 3-19 16-19 25-34 27-44 2-10 1-21-4-33-4-12-25-48-63-107-38-59-69-107-94-144-68-100-122-160-164-180-42-20-77-21-106-1-43 29-58 83-46 162 12 79 66 190 161 330 43 64 74 102 92 115 18 13 41 13 70-1 9-4 16-3 21 5 4 7 3 13-5 18l-30 16c-11 6-45 28-102 67l-43 31c-16 11-27 12-32 5-6-8-1-20 13-37 14-16 20-30 18-45-1-15-22-53-60-115-39-62-89-138-150-228-57-84-96-134-119-148-22-15-43-19-62-13-17 5-28 4-34-4-6-8-3-16 8-23l45-29c5-3 29-20 72-52zm1119 41c0 46-9 85-26 117-17 32-42 57-76 74-39 21-78 23-114 7-37-16-67-46-90-91-18-34-27-68-29-104-2-36 3-65 13-87 11-22 33-54 66-96 48-59 74-101 77-126 3-24-3-51-18-79-24-45-50-76-80-93-30-17-59-17-89-2-24 13-39 29-44 50-5 21 1 55 16 101 17 51 14 82-10 95-9 4-21 4-37-2-16-6-30-20-41-41-20-38-21-80-3-125 18-45 55-82 112-112 45-24 85-34 121-31 35 2 62 13 80 30 18 18 43 57 75 118l101 203c41 78 73 131 97 160 25 29 47 38 67 28 4-2 9-6 16-11l9-7c9-5 16-3 20 6 10 20-24 50-102 91-23 12-41 13-56 4-15-9-34-35-57-77zm-156-298c-1 26-15 64-42 114-26 49-42 90-47 125-5 35 2 70 21 106 17 32 38 55 64 70 26 15 50 16 72 5 23-12 39-32 50-60 10-28 13-59 8-92-5-33-22-77-51-132-21-41-47-86-76-135z" fill="#201e1e"/><path d="m1453 5464c133-5 252-11 356-18 124-9 226-15 307-17 81-2 162-8 243-18-160-147-397-333-712-559l80-251c4-8 11-11 19-8 8 3 12 9 10 20-9 46-7 80 6 100 14 21 42 40 84 57 42 17 122 46 238 87 117 41 214 73 292 98 150 48 238 75 264 81 25 6 48 5 66-2 19-8 37-29 55-64 6-10 12-13 20-11 8 3 10 10 6 24l-79 245-20 64c-5 14-11 20-20 17-8-2-11-9-9-19 5-37 4-63-3-78-7-15-24-30-51-45-26-14-96-40-208-75l-391-137-193-68c-15-5-23-5-24-2-2 5 2 11 9 17l281 227c180 145 296 236 347 272l112 79c34 24 52 38 55 42 3 4 4 7 3 11-2 5-10 7-25 6-36-3-157 2-361 15-114 4-245 11-392 21-148 10-225 16-232 18-7 2-11 5-12 7-1 4 5 8 18 13l495 165 164 54c87 28 147 37 179 27 33-10 54-32 65-65 7-22 16-31 28-27 9 3 12 9 8 20l-5 13-12 41-29 89c-12 39-25 89-39 152-6 4-11 5-16 3-11-3-14-13-10-28 12-43 3-79-25-110-28-31-102-65-223-103l-145-46-365-124c-85-27-147-36-185-27-38 9-65 32-83 67-8 15-16 21-24 19-10-3-12-10-9-22 2-6 5-14 8-23l79-221zm1097-877c25 15 45 27 60 35 72 38 141 54 208 48 67-6 113-34 139-82 25-47 24-104-3-170-7-19-10-30-9-33 3-6 12-6 25 1 28 34 44 75 50 124 5 49-4 95-27 139-34 65-94 103-178 116-85 13-173-6-266-55-99-53-169-122-210-206-40-85-45-155-16-211 28-53 79-86 154-101 75-15 147-3 217 34 11 6 18 11 22 16 4 5-2 22-16 49l-150 296zm-39-21c30-49 58-98 83-145l14-32c11-24 15-45 11-63-4-19-20-35-48-50-43-23-86-32-130-26-44 6-74 24-90 54-15 28-12 66 10 113 22 47 72 97 150 149zm-93-1276c104 66 243 155 419 267l458 298c51 32 92 33 123 2 11-10 19-13 27-8 6 4 8 8 7 13-1 5-16 30-45 75-15 23-30 45-45 68-30-17-51-30-64-39-16-10-39-26-69-46 35 51 57 97 65 138 8 41 2 77-18 109-28 44-84 72-168 83-83 11-171-13-263-72-90-57-154-128-193-213-39-85-38-158 1-221 20-31 46-53 77-65 32-12 69-14 113-6-55-38-108-74-158-106-154-98-241-149-262-154-21-5-40 3-57 23-11 12-20 16-27 12-8-5-7-17 4-34l75-125zm600 492c-83-53-152-82-207-86-55-5-96 14-124 58-29 45-26 94 7 148 34 53 99 111 194 172 97 62 175 92 234 92 59 0 99-16 119-48 20-32 18-77-7-134-25-58-98-125-217-201zm-306-830c11-13 27-19 48-19 21 0 39 7 53 19 17 15 28 31 33 50 5 19 2 35-11 50-11 13-26 20-45 21-19 1-38-6-56-22-18-15-29-32-33-51-4-18 0-34 12-48zm367 217l147 128 139 117 104 89 79 68c32 27 55 40 70 40 15-1 30-8 44-23 17-17 29-22 38-15 6 6 7 12 1 19-2 3-5 5-8 9-32 27-59 54-82 81-37 43-60 74-71 93-2 4-4 8-7 11-7 8-14 9-22 2-8-6-5-21 8-42 13-21 18-38 15-50-3-12-23-33-59-64l-269-235c-73-62-119-95-140-98-20-3-41 7-63 30-7 8-14 9-21 3-4-4-6-8-6-12 0-5 14-27 43-67 29-40 49-67 61-82zm425 104c-73-75-119-159-136-252-17-93 0-165 54-217 35-34 78-55 131-64 53-9 95 3 127 36 13 13 20 27 24 42 3 16 1 27-7 35-18 17-49 12-95-15-69-42-122-45-158-10-36 35-44 82-23 141 20 59 63 121 126 186 75 77 149 127 223 151 74 23 129 17 166-19 24-24 36-59 35-106-1-46-17-89-47-127-10-14-12-23-7-28 6-6 12-5 19 3 39 40 62 92 68 156 6 64-15 119-63 165-52 51-122 68-208 51-86-17-163-60-229-128zm-21-1099c13-11 29-15 50-11 21 4 37 13 49 27 15 17 23 35 25 55 2 19-4 35-18 47-13 11-29 15-48 13-19-2-37-12-52-30-15-18-24-36-25-55-1-19 5-34 19-46zm329 270l126 148 120 137 89 103 68 79c27 31 48 48 63 50 15 2 31-4 47-16 19-14 32-17 40-9 6 6 5 13-2 19-3 2-6 5-10 7-35 22-66 44-93 67-43 37-71 64-84 82-3 4-6 7-9 10-8 7-15 7-22-1-7-8-2-21 14-40 16-19 24-35 22-47-1-12-17-36-48-72l-230-274c-62-72-103-112-123-118-20-6-42 1-67 21-8 7-15 7-21-1-4-4-5-9-4-13 1-5 18-25 52-60 34-35 58-59 72-72zm326-262c28 22 65 65 112 131-9-62-8-114 4-156 12-42 34-74 67-96 25-17 53-27 84-30 31-4 63 5 96 27 33 21 73 67 121 139l159 243c30 44 51 70 65 77 13 7 31 8 54 2 16-4 26-3 30 3 5 7 4 13-2 17-2 2-5 3-8 4-20 7-46 22-79 44-29 20-60 43-92 69-13 9-23 10-29 1-4-6-3-12 3-19 16-19 25-34 27-44 2-10 1-21-4-33-4-12-25-48-63-107-38-59-69-107-94-144-68-100-122-160-164-180-42-20-77-21-106-1-43 29-58 83-46 162 12 79 66 190 161 330 43 64 74 102 92 115 18 13 41 13 70-1 9-4 16-3 21 5 4 7 3 13-5 18l-30 16c-11 6-45 28-102 67l-43 31c-16 11-27 12-32 5-6-8-1-20 13-37 14-16 20-30 18-45-1-15-22-53-60-115-39-62-89-138-150-228-57-84-96-134-119-148-22-15-43-19-62-13-17 5-28 4-34-4-6-8-3-16 8-23l45-29c5-3 29-20 72-52zm1119 41c0 46-9 85-26 117-17 32-42 57-76 74-39 21-78 23-114 7-37-16-67-46-90-91-18-34-27-68-29-104-2-36 3-65 13-87 11-22 33-54 66-96 48-59 74-101 77-126 3-24-3-51-18-79-24-45-50-76-80-93-30-17-59-17-89-2-24 13-39 29-44 50-5 21 1 55 16 101 17 51 14 82-10 95-9 4-21 4-37-2-16-6-30-20-41-41-20-38-21-80-3-125 18-45 55-82 112-112 45-24 85-34 121-31 35 2 62 13 80 30 18 18 43 57 75 118l101 203c41 78 73 131 97 160 25 29 47 38 67 28 4-2 9-6 16-11l9-7c9-5 16-3 20 6 10 20-24 50-102 91-23 12-41 13-56 4-15-9-34-35-57-77zm-156-298c-1 26-15 64-42 114-26 49-42 90-47 125-5 35 2 70 21 106 17 32 38 55 64 70 26 15 50 16 72 5 23-12 39-32 50-60 10-28 13-59 8-92-5-33-22-77-51-132-21-41-47-86-76-135z" fill="none" stroke="#201e1e" stroke-linejoin="round" stroke-linecap="round" stroke-width="50"/></g></svg>