<svg xmlns="http://www.w3.org/2000/svg" viewBox="0 0 500 707" shape-rendering="geometricPrecision" image-rendering="optimizeQuality" fill-rule="evenodd" clip-rule="evenodd"><defs><clipPath id="0"><path d="m165 613c-27 14-79 11-95-13-16-25-12-95-14-129-4-86-13-151-16-220-2-77 50-128 112-142 89-20 83 98 71 159-6 32-19 61-27 93-15 59-2 148-7 210-2 21-9 35-24 42"/></clipPath><clipPath id="1"><path d="m335 613c27 14 79 11 95-13 16-25 12-95 14-129 4-86 13-151 16-220 2-77-50-128-112-142-89-20-83 98-71 159 6 32 19 61 27 93 15 59 2 148 7 210 2 21 9 35 24 42"/></clipPath></defs><g clip-path="url(#0)"><g stroke="#201e1e"><path d="m60 521c0 0 24 9 26-11 0 0 9-80 14-42 0 0 13 88 18 66 0 0 5-22 21-10 0 0 5 48 8 25 0 0 6-110 11-77 0 0 8 83 16 59 0 0-4-8 16-10" fill="none" stroke-linejoin="round" stroke-linecap="round" stroke-width="3.571"/><g fill="#201e1e"><g font-family="&apos;Bell MT&apos;" stroke-width="1.19"><text x="250" y="354" font-size="45.666" transform="matrix(.43048 0 0 .99123-42.35 211.97)">Dra.</text><text x="250" y="354" font-size="37.21" transform="matrix(.45809 0 0 .99123-51.627 243.84)">Texto 01</text></g><g stroke-linejoin="round" stroke-linecap="round"><g stroke-width=".476"><path d="m107 276c0 0 1 0 1 0 1-1 2-2 4-2 1 0 3 0 3 1 0 0 0 0-1 0 0 1-1 0-2 0-2 0-4 0-5 1z"/><path d="m118 287c1 0 1 0 1 0-1 0-1 0-1 1 0 1 1 1 1 1 0 0-1 0-1-1 0 0 0-1 0-1z"/><path d="m127 290c0 0 0 0 0 0 0 2-1 4-3 5-1 1-5 2-7 1 0-1 0-1 0-1 1-2-1-3-2-4 5 1 9 0 12-1zm-8 3c0 0-1 0-2-1 1 1 1 2 1 3 3 2 7-1 8-4-2 1-4 2-7 2z"/></g><path d="m128 293c0 0-1 0 0 0z" stroke-width="1.19"/><path d="m146 374c0 3 1 5 1 8 0 4 0 8-1 12 0 1 0 2 0 4 0 2-1 5-1 7 0 3 0 6 0 8 1 8 1 15 2 23-1 0-1 0-2 0 0 1 0 1 0 2 2 2 4 4 6 5 1 1 3 3 1 4 0 1-1 1-2 1-3 0-6 0-9-1-3-1-5-3-6-6 0 2 0 3 0 4-1 0-2 0-4 0 0-1 0-2 0-3 0-1 1-1 0-2 0-1-1-2-1-3 0 0-1 1-1 0-1 0-1 0-1 0-1-5-1-11-1-17 1-5 1-10 2-15 0 0 0 0 0-1 0 0 0-1 0-1 0 0 0 0 0-1 0-2 0-4 0-6 0-3-1-6-1-8 0-2-1-5-1-7 0-2-1-4-1-5 0-1 0-1-1-1 0 1 0 3 0 5-1 5-2 10-2 15 0 1 0 1 0 2 0 0 0 0 0 1 1 2 1 5 1 8 1 7 1 16 1 25 0 0 0 1 0 2 1 1 1 2 0 2 0 1-1 1-2 2 0 0 0 1 0 2-1 1-1 2-1 3 0 1 0 2 0 3-1 0-2 0-3 0 0-1 0-2 0-3-2 3-4 5-7 6-3 1-7 1-10 0-1 0-2 0-2-1 0-1 0-1 0-1 0-1 1-1 1-1 3-3 6-5 7-9-1 0-1 0-3 0 1-2 1-5 1-7 0-3 0-6 0-8 0-3 0-6 0-8 0-5 0-10-1-15 0-5 0-10 0-15 0-3 0-6 0-8-2-1-5-1-6-2 0 0-1 0-1-1 0-1 1-2 1-3 1-4 2-8 3-12 0 0 0-1 0-1 0 0-1-1-1-1-2-2-4-3-5-5-1-1-2-3-3-5-1 0-1-1-1-2-1 0-1-1-1-2-1-3-1-7 0-10 0-1 0-2 0-3 1-3 2-5 4-7 1-3 3-6 5-10 1-1 1-3 2-4 2-1 3-2 4-3 0-1-1-2-2-3-1-3-3-7-3-11-1-1-1-3-1-4-1-5 0-9 1-14 1-5 3-10 5-14 1-2 3-4 4-6 2-1 4-3 7-3 1 0 1 0 2 0 4-1 7 1 9 3 2 1 3 3 5 4 0 1 0 1 1 2 4 4 7 8 9 13 2 5 4 10 4 18 0 3 0 7 0 10 0 3-1 6-2 9 0 0 0 1 0 1 0 0 1 1 1 1 2 4 4 6 5 9 2 3 3 6 4 10 0 1 0 2 0 3 1 5 0 10-2 14-2 4-4 7-6 11 2 4 3 9 4 13 1 2 1 3 0 3-1 1-3 1-5 1zm-37-79c-1-1-2-3-2-4-2-4-2-10-1-15 1-5 3-9 6-12 0-1 1-2 2-3 1 0 2 0 3 0 0-1 0-1 0-1 4 0 6 3 9 5 3 4 5 8 7 13 1 1 2 3 3 4 1 3 3 5 5 7 1 1 1 1 1 1-2-1-3-2-4-3 0 2 1 3 2 4-1 0-2-2-3-3-1-1-1-1-1-2-1 4-3 7-4 10-1 0-1 0-1 1 0 0 0 1 0 2 1 0 2 0 2 0 1 1 2 2 2 2 1 0 2 0 2 0 3 8 1 21 1 30 2-3 3-6 4-10 0-2 1-4 1-6 0-2 1-4 1-6 1-2 1-4 1-7 1-4 1-9 1-13 0-2 0-5 0-7-1-4-2-7-4-10-1-4-3-6-5-9-2-3-4-5-7-8-1-1-2-2-4-3-2-1-4-3-7-2 0 0-1 1-1 1-1 0-2-1-2-1-1 1-1 1-1 1-2 0-4 2-5 4-2 2-3 4-4 6-2 4-4 8-5 14-2 12 2 22 7 29 0-1 1-1 3-1 0-2 1-3 3-3 0-1 0-1 0-2-3-2-5-5-6-9-1 3 0 4 1 6zm17-17c0 2 2 2 2 1 0-2-1-2-2-2-2 1-3 2-4 3 1-2 3-4 6-4 1 0 2 1 3 1 0-1-1-2-1-3-2-1-4 0-6 0 0 0 0 1-1 1 0 0-1 0-2 0 0-1 2-1 3-1 1-1 4-1 6 0-1-2-1-4-2-5-1-1-2-3-3-4-2-1-3-3-6-4 0 0-1 0-1 0 0 0 0 1 0 1-1-1-3 0-4 1-1 0-1 1-2 2-3 4-6 10-6 18 0 1 0 1 0 2 0 0 1 1 1 1 1 3 3 6 5 8 2 3 4 6 9 6 4 1 7-2 9-5 3-3 4-6 6-10-1-1-1-2-2-3 0-1-1-2-2-3 0 0-1 1-2 1 0 0 1-1 1-1 0-1-1-1-1-2-1 0-2 0-2 0 0 0 0 0 1 1 0 1-1 3-3 2-1 0-1-2 0-3 0 1 0 1 0 1zm2 21c0 1 0 1 0 2 1 0 2-2 2-3 0 0-1 1-2 1zm-1 1c0 0 0 1 0 2 0 0 1 0 1-1 1-1 0-1 0-2 0 0-1 0-1 1zm-12 1v-1c0 0 0 0 0-1-1 0 0 1 0 2zm15 0c0 1 1 1 1 1 1 1 2 3 3 4 2 4 1 10 0 15 0 1 0 2 0 3 1 1 3 0 3-1 0 0 1-1 1-1 0-6 0-11-1-16-1-2-2-4-3-5-1-1-2-2-3-2-1 0-1 2-1 2zm-15 0c1 0 1 0 1 1l1-2c-1 0-1-1-2-1 0 1 0 1 0 2zm11-1c0 1 0 2 0 3 0 0 1-1 1-1 0-1 0-2 0-2 0 0-1 0-1 0zm-10 2h1c0 0 0 0 1 0 0 0 0-1 0-1 0-1-1-1-1-1 0 0-1 1-1 2zm10-2c-1 1-1 1-2 1 0 1 0 2 0 2 1 0 1 0 2 0 0-1 0-2 0-3zm-3 1c0 1 0 2 0 3 0 0 1-1 1-1 0 0 0-1 0-2 0 0-1 0-1 0zm-5 1v1c0 0 1 0 1 0 0-1 0-1 0-2 0 0-1 0-1 0 0 0 0 1 0 1zm-5-1c-1 0-2 1-2 3 0 2-1 5-1 8 0 4 1 8 2 10 0 0 1 0 1-1-1-5-1-12 1-18 0-1 0-1 0-2 0 0 0 0-1 0zm9 0c0 1 0 2 0 3 0 0 1 0 1 0 0-1 0-2 0-3 0 0-1 0-1 0zm-3 2c1 0 1 0 1 0s0-1 0-2c0 0-1 0-1 0 0 1 0 1 0 2zm3-2c0 0-1 0-2 0 0 1 0 2 0 2 1 0 2 1 2 1 0-1 0-2 0-3zm8 2c-4 7-6 19-5 29 1 1 0 2 1 2 1-3 2-5 3-8 1-2 3-5 4-7 0 0 1 0 1-1 0 0 0-1 0-2-2-1-3-1-4-2 1-1 2-2 3-3 0 0 1 0 1-1 0-3-1-4-3-6 0-1-1-1-1-2 0 0 0 0 0 1zm-16 2c-1 2-1 5-1 7 1 1 3 2 5 1-1 2-2 4-3 6 4 3 7 8 9 13 0 0 0 0 0 1 0-13-4-23-9-31-1 0-1 2-1 3zm10 0c-3 0-5-1-7-2 0 1 1 3 2 4 0 1 1 2 2 4 0 0 0 1 0 2 1 2 2 4 3 6 1-6 2-11 4-16-1 1-3 2-4 2zm-14-1c-2 0-3 1-4 2-2 0-3 1-4 3-1 2-3 5-4 8-2 3-3 6-4 9-2 2-3 6-3 10 0 5 3 10 5 13 3 3 6 6 9 8 1-1 2-2 3-4 0-2 1-4 1-5 0-1 0-2 0-2 0 0 0 0 0-1-2-3-4-6-6-8 0-1-1-2-2-3 1 0 1 0 2 1 0-2 0-3-1-4 0-1 0-1 0-1s0 0 1 0c0 0 0 1 0 1 1-2 1-2 1-3 1-1 1-1 1-1v-1c0-2-1-3 0-4 0 2 1 4 2 6 0 0-1 0-1 0-1 0 0 1 0 1 0 3 0 6 0 9 0 0 0 0 0 1 0 0 0 1 1 1 0 1 1 3 2 4 0-1 0-1 0-1 2 3 1 8 0 11-2 3-4 5-5 7-1 1-1 1-1 1 1-1 1-2 2-3-1-1-1-1-2-2 0 1 0 2 0 3-1 2-1 3-2 5 0 2-1 4-1 6 0 0-1 1-1 1 1 1 2 1 4 1 4 1 7 1 11 0 2-1 4-1 6-2 1 0 2-1 2-2 1 0 2-1 3-2 0 0 0-1 0-2 0-2 0-5 0-7 1-4 1-7 1-10-1 0-2 0-2 0 0-1 0-1 0-2 1 0 1 0 1-1 1 0 1-1 1-1 0-2-1-4-1-6-1-3-2-6-4-8-1-2-2-3-3-4-1 0-2 0-3 1-1 0-2 1-2 2-1 1-2 3-2 4 0 2 0 3 1 5 0 3 1 6 4 8 0 1 1 1 1 1 0 1 1 0 1 0 1 0 1 1 1 1 1 0 1 1 0 2-1 0-2-1-2-1-1-1-1-1-2-1-2-3-3-6-4-9-1-3-1-5-1-8 0-3 0-6 1-8-1-5-3-12-1-17 0-1 0-2 0-2zm24 5c0 1 0 1 0 2-1 1-1 1-1 1-1 1-2 1-2 2 1 1 2 1 3 1 0 1 0 2 0 3 1-3 1-7 0-10 0 1 0 1 0 1zm10 10c-1 2-2 5-2 7 0 0-1 1-1 1 0 0 1 1 1 1 1 1 1 2 2 4 0 1 0 4-1 6 0 2-1 3-2 5 0 1-1 2-2 3 0 0-1 0-1 1 0 0 0 0 0 1 1 1 1 2 1 2 2 4 3 7 5 10 2-2 3-4 4-6 1-1 2-3 3-5 1-2 2-4 2-6 1-2 2-5 1-8 0-10-5-17-9-24 0 3-1 6-1 8zm-30 3c3 1 6 4 7 6 1 1 1 1 1 2-1-3-3-7-6-9 0-1-1-2-2-2 0-1 1-2 1-2 1-1 1-2 1-3 0 1-2 1-2 0-1 3-1 6 0 8zm29 38c-1-2-2-3-3-5-1-2-2-4-3-6 0-1 0-3 0-5 0-1 0-2 0-2s0 2 1 3c1-1 2-3 3-4 0 0 1-1 1-1 0-1-1-1-1-2 0-2 0-5 0-7 0 0 1-1 1-1 0-1 0-1-1-1 0 0 0-1 0-1-1 1-1 2-2 3 0 1-1 1-1 2-1 0-1 0-1 0 0-1 0-3 0-4 0 0-1 0-1 0-4 2-7-4-4-6 0 0 1-1 1-1 1-1 1-3 1-4 0 1 0 1-1 2-3 4-5 10-7 16 0 0 0 1 0 1 0 1 0 1 0 2 1 2 1 4 0 6 1 0 1 0 2 1 0 1-1 2-2 2 1 2 0 4 0 6 0 3 0 7 0 11 0 0 0 1 0 2 0 2 2 3 3 3 1 1 2 2 4 2 5 1 9 1 14 1 1 0 4 0 4-1 0-1-1-1-1-2 0 0 0-1 0-1-1-3-2-5-2-7-1-1-1-2-1-3-1 0-1 1-2 2 1 1 2 3 2 4-1-2-2-4-4-5zm-26-36c-1 0-3-2-5-1-1 1-2 5-1 8 0 0 0-1 1-1 1-3 2-5 6-5 0 0-1 0-1-1zm19 1c-1 0-2-1-3-1-2 1 0 5 2 4 2 0 2-1 2-3 0 0 0 0-1 0zm-32 8c0 2 0 3 1 4 0-2 0-5 0-7-1 0-1 1-1 3zm38 4c1-1 1-4 0-5 0 1 0 4 0 5zm-20 34c0 0 1 0 1 1 1 0 2 1 3 2 0 1 1 2 1 4 1 1 1 2 1 4 1 2 1 5 1 8 0 2 1 3 1 5 0 4 0 9 1 13 0 0-1-1-1-1 0-1 0-1 0-1-1 9-2 21 0 30 1-1 2-1 3-1 1-1 3 0 4 0 3 0 6 1 9 0-1-5-1-10-1-15-1-5-1-10-1-15 1-6 1-11 2-16 0-5 0-10-1-15-4 0-8 0-11-1-4-1-7-2-9-4-1 1-2 2-3 2zm-1 27c1-3 1-5 1-8 1-4 1-7 2-11 0-2 0-3 0-4 0-1 0-1 0-2 0 0-1-1-1-1-1 0-1-1-2-1-4 2-9 4-15 3 0 3 0 6 0 8 0 6 0 11 0 16 1 2 1 4 1 7 1 7 1 15 0 23 0 2 0 5 0 7 2 0 4 0 6 0 1 0 2 0 2 0 1 0 2 0 3 0 2 0 4 0 5 0 1 0 1 0 1 0 0-13 0-25-2-36 0 2-1 4-1 6 0-2 0-5 0-7zm14 41c0 1 1 2 2 3 1 2 3 4 6 5 2 0 4 0 6 0 1 0 4 0 3-2-1-1-2-2-3-2-2-2-3-3-5-5 0-2 0-2-2-2-2 0-4-1-7 0-1 0-3 0-4 1 1 2 1 5 1 7 1 0 2 0 2 0 0-1 0-2 0-4-1-1-1-1-1-1 1 0 1 0 2 0zm-17-3c-1 0-3 0-4 0-1 0-2 0-3 0-1 0-2 1-2 2-1 2-2 3-3 4-1 1-3 2-4 3 0 0-1 1-1 1 0 1 1 1 2 1 4 1 9 1 11-1 2-1 3-3 4-5 1-1 1-2 3-2-1 1-1 1-1 2 0 0 0 0 0 1 0 1 0 2 0 2 0 0 1 0 1 0 1-2 0-5 1-8-1 1-2 0-4 0z" stroke-width=".952"/><path d="m114 278c0 1 0 1 1 1 0 1-1 2-2 2-1 0-2 0-2-1 0-1 1-2 2-2-2 0-3 1-4 2 0 1 0 1 1 2-1 0-2-1-2-2 0 0 0 0 0-1 1-1 3-2 5-2 2 1 3 2 4 3-1-1-2-1-3-2zm-2 0c0 1 0 2 1 2 1 0 1-2 0-2-1 0-1 0-1 0z" stroke-width=".476"/></g><path d="m43 221c3 0 6-1 9-1 2-1 5-1 7-1 2 0 3-1 5-1-4-3-10-7-17-12l1-6c0 0 0 0 0 0 1 0 1 0 1 0-1 2 0 2 0 3 0 0 1 1 2 1 1 0 3 1 6 2 2 0 5 1 7 1 3 1 5 1 6 1 1 1 1 0 1 0 1 0 1-1 2-1 0-1 0-1 0-1v1l-1 6v1c0 1-1 1-1 1 0 0 0 0 0-1 0 0 0-1 0-1 0-1-1-1-2-1 0-1-2-1-5-2l-9-2-4-1c-1 0-1 0-1 0l7 5c5 3 8 5 9 6l3 1c0 1 1 1 1 1 0 0 0 0-1 0 0 0-3 1-8 2-2 0-5 0-9 1-3 0-5 1-5 1l12 3 4 1c2 0 3 1 4 0 1 0 1-1 1-1 0-1 1-1 1-1v1 1l-1 2c0 1 0 2 0 3 0 0 0 1-1 1 0-1 0-1 0-1 0-1 0-2-1-3 0 0-2-1-5-2h-3l-9-2c-2-1-4-1-5-1 0 1-1 1-1 2 0 0-1 1-1 1 0 0 0-1 0-1l1-6zm24-23c1 1 2 1 2 1 2 1 3 1 5 1 1-1 2-1 3-3 0-1 0-2-1-4 0 0 0 0 1 0 0 0 1 1 1 2 0 2 0 3 0 4-1 1-2 2-4 3-2 0-4 0-6-1-3-1-5-2-6-4-1-2-1-4 0-5 0-1 1-2 3-3 2 0 3 0 5 1 1 0 1 0 0 1l-3 7zm-1 0c1-1 2-3 2-4 1-1 1-2 0-2 0 0 0-1-1-1-1 0-2-1-3 0-1 0-1 0-2 1 0 1 0 2 1 3 0 1 2 2 3 3zm-2-32c3 2 6 4 10 7l11 7c1 1 2 1 2 0 1 0 1 0 1 0s0 1-1 2c0 0-1 1-1 1-1 0-1 0-1 0-1-1-1-1-2-2 1 2 1 3 1 4 1 1 0 2 0 2-1 1-2 2-4 2-2 0-4 0-6-2-2-1-4-3-4-5-1-2-1-3 0-5 0-1 1-1 2-1 0-1 1-1 2-1-1 0-2-1-3-2-4-2-6-4-6-4-1 0-1 0-2 1-1 0-1 0 0-1l1-3zm14 12c-2-1-3-2-5-2-1 0-2 0-2 1-1 1-1 2 0 4 0 1 2 2 4 4 2 1 4 2 5 2 2 0 3 0 3-1 1-1 1-2 0-3 0-1-2-3-5-5zm-7-19c0-1 0-1 1-1 0 0 1 0 1 1 0 0 1 0 1 1 0 0 0 1 0 1-1 0-1 1-1 1-1 0-1-1-2-1 0 0 0-1-1-1 0-1 0-1 1-1zm8 5l4 3 3 2 2 3 2 1c1 1 1 1 2 1 0 0 1 0 1 0 0-1 1-1 1-1 0 0 0 0 0 1-1 0-2 1-2 2-1 1-2 1-2 2 0 0 0 0-1 0 0 0 0 0 1-1 0 0 0-1 0-1 0 0-1-1-1-1l-7-6c-1-1-3-2-3-2-1 0-1 0-1 1-1 0-1 0-1 0v-1c0 0 0 0 1-1 1-1 1-2 1-2zm10 2c-1-2-2-4-3-6 0-2 0-4 1-5 1-1 2-1 4-1 1-1 2 0 3 0 0 1 0 1 0 1 0 1 0 1 0 1-1 1-1 1-2 0-2-1-3-1-4 0-1 0-1 2-1 3 1 1 2 3 3 4 2 2 4 3 5 4 2 1 3 0 4 0 1-1 1-2 1-3 0-1 0-2-1-3 0 0 0 0 0-1 1 1 2 3 2 4 0 2 0 3-2 4-1 1-2 2-4 1-2 0-4-1-6-3zm1-26c0 0 0 0 1 0 0 0 1 0 1 0 0 1 0 1 0 2 0 0 0 1 0 1 0 0-1 0-1 0-1 0-1 0-1-1-1 0-1-1-1-1 0 0 0-1 1-1zm7 7l3 3 3 3 1 3 2 2c1 1 1 1 1 1 1 0 1 0 2 0-1 1-1 1-2 2-1 1-2 1-2 2 0 0-1 0-1 0 0 0 0-1 1-1 0-1 0-1 0-1 0-1 0-1-1-2l-5-7c-1-1-2-2-3-3 0 0-1 0-1 1-1 0-1 0-1 0 0-1 0-1 1-2 1-1 2-1 2-1zm7-6c1 1 2 2 3 3 0-1 0-2 0-3 0-1 1-2 2-3 0 0 1 0 2 0 0-1 1 0 2 0 1 1 2 2 3 3l3 6c1 1 2 2 2 2 0 0 1 0 1 0 1 0 1 0 1 0 0 1 0 1 0 1-1 0-1 0-2 1-1 0-2 1-2 1-1 0-1 0-1 0 0-1 1-1 1-1 0 0 0-1 0-1 0 0-1-1-2-3-1-1-1-2-2-3-2-2-3-4-4-4-1-1-2-1-2 0-1 1-2 2-1 4 0 2 1 4 3 7 1 2 2 3 3 3 0 0 0 0 1 0 0 0 1 0 1 0 0 0 0 1 0 1h-1c0 0-1 1-3 2h-1c0 1 0 1 0 1 0-1 0-1 0-1 0-1 0-1 0-1 0-1 0-2-1-3-1-2-2-3-3-5-2-2-3-4-3-4-1 0-1 0-2 0-1-1-1-1 0-1l1-1c0 0 0 0 1-1zm27 2c0 1 0 2-1 2 0 1-1 2-2 2 0 1-1 1-2 0-1 0-2-1-2-2-1-1-1-1-1-2 0-1 0-2 0-2 1-1 1-2 2-3 1-1 2-2 2-3 0 0 0-1-1-1 0-2-1-2-1-3-1 0-2 0-2 0-1 1-1 1-1 1-1 1 0 2 0 3 0 1 0 2 0 2-1 0-1 0-1 0-1 0-1 0-1-1-1-1-1-2 0-3 0-1 1-2 2-3 2 0 2 0 3 0 1 0 2 0 2 1 1 0 1 1 2 2l2 5c1 2 2 3 2 4 1 1 1 1 2 1 0 0 0 0 0-1 1 0 1 0 1 0 0 1-1 2-3 2 0 1 0 1-1 1 0-1-1-1-1-2zm-4-7c0 0 0 1-1 2 0 1-1 2-1 3 0 1 0 2 1 3 0 0 1 1 1 1 1 1 1 1 2 1 0-1 1-1 1-2 0-1 0-1 0-2 0-1 0-2-1-3 0-1-1-2-2-3z" stroke-linejoin="round" stroke-linecap="round" stroke-width="1.19"/></g></g></g><g clip-path="url(#1)"><g stroke="#201e1e"><g stroke-linejoin="round" stroke-linecap="round"><g fill="#201e1e"><g stroke-width=".476"><path d="m358 276c0 0 0 0 1 0 0-1 2-2 4-2 1 0 3 0 3 1 0 0-1 0-1 0-1 1-2 0-2 0-3 0-4 0-5 1z"/><path d="m369 287c0 0 0 0 0 0s0 0 0 1c0 1 1 1 1 1s-2 0-2-1c0 0 1-1 1-1z"/><path d="m378 290c0 0 0 0 0 0 0 2-1 4-3 5-2 1-5 2-8 1 0-1 1-1 1-1 0-2-1-3-2-4 4 1 9 0 12-1zm-8 3c-1 0-2 0-2-1 0 1 1 2 0 3 4 2 7-1 8-4-1 1-4 2-6 2z"/></g><path d="m379 293c-1 0-1 0-1 0 0-1 1 0 1 0z" stroke-width="1.19"/><path d="m397 374c0 3 0 5 0 8 1 4 0 8 0 12 0 1 0 2-1 4 0 2 0 5 0 7 0 3 0 6 0 8 0 8 1 15 1 23 0 0-1 0-2 0 0 1 1 1 1 2 2 2 4 4 6 5 1 1 3 3 1 4-1 1-2 1-3 1-2 0-6 0-8-1-3-1-5-3-6-6 0 2 0 3 0 4-2 0-3 0-4 0 0-1 0-2 0-3 0-1 0-1 0-2 0-1-1-2-1-3-1 0-1 1-2 0-1-5-1-11-1-17 0-5 1-10 2-15 0 0 0 0 0-1 0 0 0-1 0-1 0 0 0 0 0-1-1-2-1-4-1-6 0-3 0-6 0-8-1-2-1-5-1-7-1-2-1-4-2-5 0-1 0-1 0-1-1 1-1 3-1 5 0 5-1 10-2 15 0 1 0 1 0 2 0 0 1 0 1 1 0 2 1 5 1 8 1 7 1 16 1 25 0 0 0 1 0 2 0 1 0 2 0 2 0 1-1 1-2 2 0 0-1 1-1 2 0 1 0 2 0 3 0 1 0 2 0 3-1 0-2 0-3 0 0-1 0-2 0-3-2 3-4 5-8 6-2 1-6 1-9 0-1 0-2 0-3-1 0-1 1-1 1-1 0-1 0-1 1-1 3-3 6-5 7-9-1 0-2 0-3 0 1-2 1-5 1-7 0-3 0-6 0-8 0-3 0-6 0-8 0-5-1-10-1-15-1-5-1-10-1-15 0-3 1-6 0-8-2-1-4-1-5-2-1 0-1 0-1-1 0-1 1-2 1-3 1-4 2-8 3-12 0 0 0-1 0-1 0 0-1-1-2-1-1-2-3-3-4-5-1-1-3-3-4-5 0 0 0-1-1-2 0 0 0-1 0-2-1-3-1-7-1-10 1-1 1-2 1-3 1-3 2-5 3-7 2-3 4-6 5-10 1-1 2-3 3-4 1-1 2-2 4-3-1-1-1-2-2-3-2-3-3-7-4-11 0-1 0-3-1-4 0-5 0-9 1-14 1-5 3-10 6-14 1-2 2-4 4-6 2-1 4-3 7-3 0 0 1 0 1 0 4-1 8 1 10 3 2 1 3 3 4 4 1 1 1 1 2 2 3 4 6 8 9 13 2 5 4 10 4 18 0 3 0 7-1 10 0 3 0 6-1 9 0 0 0 1 0 1 0 0 0 1 1 1 1 4 3 6 5 9 1 3 2 6 3 10 0 1 1 2 1 3 0 5-1 10-2 14-2 4-4 7-6 11 1 4 2 9 4 13 1 2 1 3 0 3-1 1-3 1-5 1zm-37-79c-1-1-2-3-2-4-2-4-3-10-2-15 1-5 3-9 6-12 1-1 2-2 3-3 1 0 2 0 2 0 1-1 0-1 1-1 4 0 6 3 8 5 3 4 6 8 8 13 1 1 1 3 2 4 2 3 4 5 6 7 0 1 0 1 0 1-1-1-2-2-3-3-1 0-1 0-1 0 1 2 2 3 3 4-2 0-3-2-4-3 0-1 0-1-1-2-1 4-2 7-4 10 0 0 0 0-1 1 0 0 0 1 0 2 1 0 2 0 3 0 1 1 1 2 2 2 0 0 1 0 2 0 2 8 1 21 0 30 2-3 3-6 4-10 1-2 1-4 2-6 0-2 0-4 1-6 0-2 1-4 1-7 1-4 1-9 1-13 0-2 0-5-1-7 0-4-2-7-3-10-2-4-4-6-6-9-2-3-4-5-6-8-1-1-3-2-4-3-2-1-4-3-7-2-1 0-1 1-2 1 0 0-1-1-2-1 0 1-1 1-1 1-2 0-4 2-5 4-1 2-2 4-3 6-3 4-4 8-5 14-2 12 2 22 6 29 1-1 2-1 3-1 1-2 2-3 4-3 0-1 0-1-1-2-2-2-4-5-6-9 0 3 1 4 2 6zm16-17c0 2 2 2 3 1 0-2-1-2-2-2-2 1-3 2-4 3 1-2 3-4 6-4 1 0 2 1 2 1 1 0 1 0 1 0-1-1-1-2-2-3-2-1-4 0-5 0 0 0-1 1-1 1-1 0-2 0-2 0 0-1 1-1 2-1 2-1 5-1 6 0 0-2-1-4-2-5 0-1-1-3-3-4-1-1-3-3-5-4-1 0-1 0-2 0 0 0 1 1 1 1-2-1-4 0-4 1-1 0-2 1-2 2-4 4-7 10-6 18 0 1 0 1 0 2 0 0 0 1 0 1 2 3 4 6 6 8 2 3 4 6 8 6 5 1 8-2 10-5 2-3 4-6 5-10 0-1-1-2-1-3-1-1-1-2-2-3-1 0-1 1-2 1 0 0 1-1 1-1 0-1-1-1-2-2 0 0-1 0-2 0 1 0 1 0 1 1 1 1-1 3-2 2-1 0-1-2 0-3 0 1-1 1-1 1zm3 21c0 1 0 1 0 2 1 0 2-2 2-3-1 0-2 1-2 1zm-1 1c0 0 0 1 0 2 0 0 1 0 1-1 0-1 0-1 0-2 0 0-1 0-1 1zm-12 1v-1c0 0 0 0 0-1 0 0-1 0-1 0 0 0 0 1 1 2zm15 0c0 1 1 1 1 1 1 1 2 3 3 4 1 4 1 10 0 15 0 1-1 2 0 3 0 1 2 0 3-1 0 0 0-1 0-1 1-6 1-11-1-16 0-2-1-4-3-5 0-1-1-2-2-2-1 0-2 2-1 2zm-15 0c0 0 1 0 1 1 0-1 0-2 0-2 0 0-1-1-1-1 0 1 0 1 0 2zm10-1c0 1 0 2 0 3 1 0 1-1 2-1 0-1 0-2 0-2-1 0-2 0-2 0zm-9 2c1 0 1 0 1 0v-1c0-1-1-1-1-1 0 0 0 1 0 2zm9-2c0 1-1 1-1 1 0 1 0 2 0 2 0 0 1 0 1 0 0-1 0-2 0-3zm-2 1c0 1 0 2 0 3 0 0 1-1 1-1 0 0 0-1 0-2 0 0-1 0-1 0zm-6 1l1 1c0 0 0 0 1 0 0-1 0-1 0-2-1 0-1 0-2 0 0 0 0 1 0 1zm-4-1c-2 0-2 1-2 3-1 2-1 5-1 8 0 4 0 8 1 10 1 0 1 0 2-1-2-5-1-12 0-18 0-1 1-1 1-2-1 0-1 0-1 0zm8 0c0 1 0 2 0 3 1 0 1 0 2 0 0-1 0-2 0-3-1 0-1 0-2 0zm-2 2c0 0 1 0 1 0 0 0 0-1 0-2 0 0-1 0-1 0 0 1 0 1 0 2zm2-2c0 0-1 0-1 0 0 1 0 2 0 2 0 0 1 1 1 1 0-1 0-2 0-3zm8 2c-3 7-5 19-4 29 0 1 0 2 0 2 1-3 3-5 4-8 1-2 2-5 4-7 0 0 0 0 0-1 1 0 0-1 0-2-1-1-2-1-3-2 1-1 2-2 3-3 0 0 0 0 1-1 0-3-2-4-3-6 0-1-1-1-2-2 0 0 0 0 0 1zm-16 2c0 2 0 5 0 7 1 1 3 2 5 1-1 2-2 4-3 6 4 3 7 8 9 13 0 0 0 0 0 1 0-13-5-23-10-31 0 0-1 2-1 3zm10 0c-2 0-5-1-6-2 0 0 0 0-1 0 1 1 2 3 2 4 1 1 2 2 2 4 1 0 1 1 1 2 1 2 2 4 3 6 0-6 2-11 3-16-1 1-2 2-4 2zm-14-1c-1 0-3 1-4 2-1 0-2 1-3 3-2 2-3 5-5 8-1 3-2 6-4 9-1 2-2 6-2 10 0 5 2 10 5 13 3 3 6 6 9 8 1-1 2-2 3-4 0-2 0-4 1-5 0-1 0-2 0-2 0 0 0 0-1-1-1-3-3-6-5-8-1-1-2-2-2-3 0 0 1 0 1 1 0-2 0-3 0-4 0-1-1-1-1-1h1l1 1c0-2 1-2 1-3 0-1 1-1 1-1 0 0-1-1-1-1 0-2 0-3 0-4 1 2 1 4 2 6 0 0 1 0 1 0h-2c0 0 0 1 0 1 1 3 1 6 1 9 0 0-1 0 0 1 0 0 0 1 0 1 1 1 2 3 3 4 0-1 0-1 0-1 1 3 1 8-1 11-1 3-3 5-5 7 0 1 0 1 0 1 0-1 1-2 2-3-1-1-2-1-2-2 0 1-1 2-1 3 0 2-1 3-1 5 0 2-1 4-2 6 0 0 0 1 0 1 0 1 2 1 3 1 4 1 8 1 11 0 2-1 5-1 6-2 1 0 2-1 3-2 1 0 2-1 2-2 0 0 1-1 1-2 0-2 0-5 0-7 0-4 0-7 0-10 0 0-1 0-2 0 0-1 1-1 1-2 0 0 1 0 1-1 0 0 0-1 0-1 0-2 0-4 0-6-1-3-3-6-4-8-1-2-2-3-3-4-1 0-3 0-4 1 0 0-1 1-2 2-1 1-1 3-1 4 0 2 0 3 0 5 1 3 2 6 4 8 1 1 1 1 2 1 0 1 0 0 1 0 0 0 1 1 1 1 1 0 1 1 0 2-1 0-2-1-3-1 0-1-1-1-1-1-3-3-4-6-5-9 0-3-1-5-1-8 0-3 0-6 2-8-2-5-3-12-2-17 0-1 1-2 1-2 0 0-1 0-1 0zm25 5c0 1 0 1 0 2 0 0-1 0-1 0 0 1 0 1-1 1 0 1-1 1-1 2 1 1 2 1 3 1 0 1 0 2 0 3 1-3 0-7 0-10 0 1 0 1 0 1zm9 10c0 2-1 5-2 7 0 0 0 1 0 1 0 0 0 1 1 1 0 1 1 2 1 4 1 1 0 4 0 6 0 2-1 3-2 5-1 1-2 2-2 3-1 0-1 0-1 1 0 0 0 0 0 1 0 1 1 2 1 2 1 4 3 7 5 10 1-2 2-4 3-6 1-1 2-3 3-5 1-2 2-4 3-6 1-2 1-5 1-8 0-10-5-17-9-24-1 3-1 6-2 8zm-29 3c3 1 5 4 7 6 0 1 1 1 1 2-2-3-4-7-6-9-1-1-2-2-2-2 0-1 1-2 1-2 0-1 1-2 1-3-1 1-2 1-3 0 0 3 0 6 1 8zm29 38c-1-2-3-3-4-5 0-2-1-4-2-6 0-1-1-3-1-5 0-1 0-2 0-2 1 1 1 2 2 3 1-1 2-3 3-4 0 0 0-1 0-1 0-1 0-1 0-2 0-2 0-5 0-7 0 0 0-1 0-1 0-1 0-1 0-1v-1c-1 1-2 2-2 3-1 1-1 1-2 2 0-1 0-3 0-4 0 0 0 0-1 0-5 2-7-4-4-6 0 0 0-1 1-1 0-1 1-3 1-4 0 1-1 1-1 2-3 4-6 10-7 16 0 0-1 1-1 1 0 1 1 1 1 2 0 2 0 4 0 6 1 0 1 0 1 1 1 1-1 2-1 2 0 2 0 4 0 6 0 3 0 7 0 11 0 0 0 1 0 2 0 2 1 3 3 3 1 1 2 2 3 2 5 1 9 1 14 1 2 0 4 0 4-1 0-1 0-1 0-2 0 0-1-1-1-1 0-3-1-5-2-7 0-1 0-2-1-3 0 0-1 1-1 2 0 1 1 3 2 4-1-2-3-4-4-5zm-26-36c-1 0-3-2-5-1-2 1-2 5-1 8 0 0 0-1 0-1 1-3 3-5 6-5 0 0 0 0 0-1zm19 1c-2 0-3-1-3-1-2 1-1 5 2 4 1 0 2-1 2-3-1 0-1 0-1 0zm-33 8c0 2 1 3 1 4 1 0 1 1 1 0 0-2 0-5-1-7 0 0-1 1-1 3zm39 4c0-1 0-4 0-5 0 1 0 4 0 5zm-21 34c1 0 1 0 2 1 0 0 2 1 2 2 1 1 1 2 2 4 0 1 0 2 1 4 0 2 1 5 1 8 0 2 0 3 0 5 1 4 1 9 2 13-1 0-1-1-1-1 0-1 0-1-1-1 0 9-2 21 0 30 1-1 2-1 3-1 2-1 3 0 5 0 3 0 6 1 8 0 0-5 0-10-1-15 0-5 0-10 0-15 0-6 1-11 1-16 0-5 0-10 0-15-4 0-8 0-12-1-3-1-6-2-8-4-1 1-2 2-4 2zm0 27c0-3 1-5 1-8 0-4 1-7 1-11 0-2 0-3 0-4 0-1 1-1 1-2-1 0-1-1-1-1-1 0-2-1-2-1-4 2-9 4-15 3 0 3 0 6 0 8-1 6 0 11 0 16 0 2 0 4 1 7 0 7 1 15 0 23 0 2 0 5-1 7 2 0 5 0 7 0 0 0 1 0 2 0 1 0 1 0 2 0 2 0 4 0 6 0 0 0 1 0 1 0 0-13 0-25-2-36-1 2-1 4-1 6-1-2 0-5 0-7zm13 41c1 1 2 2 2 3 2 2 3 4 7 5 1 0 3 0 5 0 2 0 4 0 3-2 0-1-1-2-2-2-2-2-4-3-5-5-1-2-1-2-2-2-2 0-5-1-7 0-2 0-3 0-4 1 1 2 1 5 1 7 0 0 1 0 2 0 0-1 0-2 0-4 0 0 0 0-1 0 0-1 0-1 0-1h1zm-16-3c-2 0-3 0-5 0-1 0-2 0-2 0-2 0-2 1-2 2-1 2-2 3-4 4-1 1-2 2-3 3-1 0-1 1-1 1 0 1 1 1 1 1 5 1 9 1 12-1 2-1 3-3 4-5 1-1 1-2 2-2 0 1-1 1-1 2 0 0 0 0 0 1 0 1 0 2 0 2 1 0 1 0 2 0 0-2 0-5 1-8-2 1-3 0-4 0z" stroke-width=".952"/><path d="m364 278c1 1 1 1 1 1 1 1 0 2-1 2-1 0-2 0-2-1 0-1 0-2 1-2-1 0-3 1-3 2-1 1 0 1 0 2 0 0-1-1-1-2 0 0 0 0 0-1 1-1 2-2 4-2 2 1 4 2 5 3-1-1-2-1-4-2zm-1 0c-1 1 0 2 0 2 2 0 2-2 0-2z" stroke-width=".476"/></g><path fill="none" stroke-width="3.571" d="m309 521h93"/></g><g fill="#201e1e"><circle cx="404" cy="522" r="5" stroke-width=".181"/><g stroke-width="1.19"><g font-family="&apos;Bell MT&apos;"><text x="250" y="354" font-size="45.666" transform="matrix(.43048 0 0 .99123 209.08 211.97)">Dra.</text><text x="250" y="354" font-size="37.21" transform="matrix(.45809 0 0 .99123 199.81 243.84)">Texto 01</text><text x="250" y="354" font-size="48.926" transform="matrix(.45809 0 0 .99123 223.63 147.84)">Texto 02</text></g><path d="m372 118c-1 3-1 6-1 8 0 3 0 5 0 7 0 2 0 4 0 6 3-3 8-8 14-15l6 2c0 0 0 0 0 1 0 0 0 0-1 0-1 0-1 0-2 0 0 0-1 1-1 2-1 1-2 2-3 5-1 3-2 5-3 7-1 3-2 5-2 6-1 0-1 1 0 1 0 1 0 1 1 2l-6-2-1-1c-1 0-1 0-1 0s1-1 1 0c1 0 1 0 2 0 0-1 0-1 1-1 0-1 1-3 2-5l4-9 2-4c0-1 0-1 0-1l-6 6c-4 4-6 7-7 8l-2 2c-1 1-1 1-1 1-1 1-1 1-1 1 0-1 0-1 0-1 0-1 1-4 1-9 0-2 0-5 0-9 0-3 0-5 0-5 0-1 0-1 0-1s0 0 0 1l-5 11-2 4c-1 2-1 3-1 4 0 1 1 1 2 2h-1-1l-2-1c0 0-2-1-3-1 0 0 0-1 0-1 0 0 0 0 1 0 1 1 1 0 2 0 1-1 2-2 3-5l2-3 3-9c1-2 1-3 1-4 0-1 0-2-1-2 0 0-1-1 0-1 0 0 0 0 1 0l5 3zm17 28c0 1-1 1-1 2-1 1-2 3-2 4 0 2 1 3 2 4 1 0 2 1 4 0 0 0 1 0 1 0 0 0 0 0 0 1-1 0-2 0-3 0-2 0-3 0-4-1-1-1-2-2-2-4 0-2 1-4 2-6 2-2 3-4 5-5 3 0 4 0 5 1 2 0 2 2 2 3 0 2 0 4-1 6-1 0-1 0-2-1l-6-4zm1-1c1 1 2 2 3 3 1 0 1 1 2 0 0 0 1 0 1-1 1 0 1-1 1-2 0-2 0-2-1-3-1 0-1 0-3 0-1 1-2 2-3 3zm30 3c-2 3-4 5-7 9l-9 9c-1 1-1 2-1 3 0 0 0 1 0 1 0 0-1-1-2-2 0 0-1 0-1-1 1 0 1-1 1-1 0-1 1-1 2-2-2 1-3 1-4 1-1 0-2 0-2-1-1 0-2-2-1-4 0-2 1-4 2-6 2-1 4-3 6-3 2-1 4 0 5 1 1 0 1 1 1 2 0 1 0 2 0 3 1-2 2-3 3-4 3-3 4-5 5-5 0 0 0-1-1-1 0-1 0-1 0-1h1l2 2zm-13 12c1-2 2-3 2-4 1-2 1-3 0-3-1-1-2-1-4-1-1 1-3 2-4 4-2 2-3 4-4 5 0 1 0 2 1 3 1 0 2 1 3 0 2 0 3-1 6-4zm19-5c1 1 1 1 1 1 0 1-1 1-1 2 0 0-1 0-1 0-1 0-1 0-1 0-1 0-1-1-1-1 0-1 1-1 1-2 0 0 1 0 1 0 1 0 1 0 1 0zm-6 8l-3 3-3 3-3 2-1 2c-1 0-2 1-2 1 0 1 0 1 1 1 0 1 0 1 0 1-1 0-1 0-1 0 0-1-1-1-1-2-1-1-2-2-2-2-1 0-1-1 0-1 0 0 0 0 1 1 0 0 0 0 1 0 0 0 1 0 1-1l7-6c1-1 2-2 2-3 0 0 0-1 0-1 0 0 0 0 0-1 0 0 1 1 2 1 0 1 1 2 1 2zm-3 10c2-1 4-2 6-2 2 0 4 1 5 2 0 1 1 2 1 3 0 2-1 3-2 3 0 0 0 1-1 1 0 0 0 0 0-1-1 0-1-1 0-2 2-1 2-2 1-3 0-1-1-2-3-2-1 1-3 1-5 2-2 2-3 3-4 5-1 2-1 3 0 4 0 1 1 1 2 1 1 0 2 0 3 0 0 0 1-1 1 0-2 1-3 1-4 1-2 0-3-1-4-2-1-2-1-3 0-5 1-2 2-4 4-5zm25 4c0 1 0 1 0 1 0 1-1 1-1 1 0 1-1 1-1 1-1 0-1 0-1-1 0 0 0-1 0-1 0 0 0-1 1-1 0 0 0 0 1 0 0 0 1 0 1 0zm-8 7l-4 2-3 2-3 2-2 1c-1 1-1 1-1 1-1 1 0 1 0 1 0 1 0 1 0 1 0 1-1 0-1 0 0-1 0-2-1-2-1-2-1-2-1-3 0 0-1 0-1 0 0 0 0 0 1 0 1 0 1 1 1 1 1 0 1-1 2-1l7-4c2-1 3-2 4-3 0 0 0-1-1-1 0 0 0-1 1-1 0 0 0 1 1 2 1 1 1 1 1 2zm5 9c-1 0-2 1-4 2 2 0 3 0 4 1 1 0 1 1 2 2 0 0 0 1 0 2 0 0 0 1-1 2-1 0-2 1-4 2l-6 2c-1 1-2 1-2 2 0 0 0 0 0 1 0 0 0 0-1 1 0 0 0 0 0-1 0 0 0-1-1-2 0-1 0-1-1-2 0-1 0-1 0-1h1c0 1 0 1 1 1 1 0 2 0 3-1 2 0 3-1 4-1 2-1 4-2 5-3 0-1 0-2 0-3 0-1-1-1-3-2-2 0-5 1-9 3-1 0-2 1-3 1 0 1 0 1 0 2 0 0 0 0-1 0v-1c0 0 0-1-1-2v-1c0-1 0-1 0-1s0 0 1 0c0 1 0 1 0 1 1 0 2 0 3-1 2-1 4-1 6-2 2-1 4-2 4-2 1-1 1-1 1-2 0 0 0-1 0-1 0 0 0 0 0 1l1 1c0 0 0 1 1 2zm-7 26c-1 0-2-1-3-1 0-1-1-2-1-3 0-1 0-1 1-2 0-1 1-1 2-2 1 0 2 0 3 0 1 0 1 1 2 1 0 0 1 1 2 2 1 2 1 3 2 3 0 0 1 0 2 0 1 0 2-1 2-1 1-1 1-2 1-2 0-1 0-1-1-2 0 0-1 0-2 0-2 0-2 0-2-1 0 0 0 0 0-1 0 0 1 0 1 0 1-1 2 0 3 0 1 1 1 2 2 4 0 1 0 2 0 3-1 0-1 1-1 1-1 1-2 1-4 1l-5 1c-2 1-3 1-4 1-1 1-1 1-1 2 0 1 0 1 0 1s-1-1-1-3c-1-1 0-1 0-1 0-1 1-1 2-1zm8-2c-1 0-2-1-3-1-1-1-1-2-2-2-1-1-2-1-3 0-1 0-1 0-2 1 0 0 0 1 0 1 0 1 0 1 1 2 0 0 1 0 2 0 1 1 2 0 3 0 1 0 2 0 4-1z" stroke-linejoin="round" stroke-linecap="round"/></g></g></g></g></svg>