<svg xmlns="http://www.w3.org/2000/svg" width="744.09" height="1052.36" viewBox="0 0 21000 29700" shape-rendering="geometricPrecision" image-rendering="optimizeQuality" fill-rule="evenodd" clip-rule="evenodd" xmlns:xlink="http://www.w3.org/1999/xlink"><defs><clipPath id="0"><path d="m14510 25241c1246 623 3615 503 4334-650 717-1148 554-4405 622-6002 170-3999 601-7032 712-10257 124-3581-2249-5949-5085-6616-4001-941-3765 4571-3209 7403 292 1522 868 2846 1235 4334 678 2744 64 6933 299 9789 121 987 441 1642 1091 1998z"/></clipPath><clipPath id="1"><path d="m6585 25241c-1246 623-3615 503-4334-650-717-1148-554-4405-622-6002-170-3999-601-7032-712-10257-124-3581 2249-5949 5085-6616 4001-941 3765 4571 3209 7403-292 1522-868 2846-1235 4334-678 2744-64 6933-299 9789-121 987-441 1642-1091 1998z"/></clipPath></defs><text x="10081" y="24465" fill="#201e1e" font-family="&apos;Arial Black&apos;" stroke="#201e1e" font-weight="900" stroke-width="7.62" font-size="705.56">38</text><g fill="none" stroke="#322f30" stroke-width="80"><circle cx="10533" cy="1326" r="460"/><path d="m10533 515v1621"/><path d="m9723 1326h1621"/><circle cx="10533" cy="25836" r="460"/><path d="m10533 25026v1621"/><path d="m9723 25836h1621"/></g><path d="m14510 25241c1246 623 3615 503 4334-650 717-1148 554-4405 622-6002 170-3999 601-7032 712-10257 124-3581-2249-5949-5085-6616-4001-941-3765 4571-3209 7403 292 1522 868 2846 1235 4334 678 2744 64 6933 299 9789 121 987 441 1642 1091 1998z" fill="#fff"/><g clip-path="url(#0)"><g><g fill="#201e1e"><path d="m20064 162c-123 0-223 104-223 233 0 129 100 233 223 233 123 0 223-104 223-233 0-129-100-233-223-233"/><path d="m18809 162c-123 0-223 104-223 233 0 129 100 233 223 233 123 0 223-104 223-233 0-129-100-233-223-233"/><path d="m17553 162c-123 0-223 104-223 233 0 129 100 233 223 233 123 0 223-104 223-233 0-129-100-233-223-233"/><path d="m16298 162c-123 0-223 104-223 233 0 129 100 233 223 233 123 0 223-104 223-233 0-129-100-233-223-233"/><path d="m15042 162c-123 0-223 104-223 233 0 129 100 233 223 233 123 0 223-104 223-233 0-129-100-233-223-233"/><path d="m13787 162c-123 0-223 104-223 233 0 129 100 233 223 233 123 0 223-104 223-233 0-129-100-233-223-233"/><path d="m12531 162c-123 0-223 104-223 233 0 129 100 233 223 233 123 0 223-104 223-233 0-129-100-233-223-233"/><path d="m11276 162c-123 0-223 104-223 233 0 129 100 233 223 233 123 0 223-104 223-233 0-129-100-233-223-233"/><path d="m10020 162c-123 0-223 104-223 233 0 129 100 233 223 233 123 0 223-104 223-233 0-129-100-233-223-233"/><path d="m20706 861c-123 0-223 104-223 233 0 129 100 233 223 233 123 0 223-104 223-233 0-129-100-233-223-233"/><path d="m19451 861c-123 0-223 104-223 233 0 129 100 233 223 233 123 0 223-104 223-233 0-129-100-233-223-233"/><path d="m18195 861c-123 0-223 104-223 233 0 129 100 233 223 233 123 0 223-104 223-233 0-129-100-233-223-233"/><path d="m16940 861c-123 0-223 104-223 233 0 129 100 233 223 233 123 0 223-104 223-233 0-129-100-233-223-233"/><path d="m15684 861c-123 0-223 104-223 233 0 129 100 233 223 233 123 0 223-104 223-233 0-129-100-233-223-233"/><path d="m14429 861c-123 0-223 104-223 233 0 129 100 233 223 233 123 0 223-104 223-233 0-129-100-233-223-233"/><path d="m13173 861c-123 0-223 104-223 233 0 129 100 233 223 233 123 0 223-104 223-233 0-129-100-233-223-233"/><path d="m11918 861c-123 0-223 104-223 233 0 129 100 233 223 233 123 0 223-104 223-233 0-129-100-233-223-233"/><path d="m20064 1676c-123 0-223 104-223 233 0 129 100 233 223 233 123 0 223-104 223-233 0-129-100-233-223-233"/><path d="m18809 1676c-123 0-223 104-223 233 0 129 100 233 223 233 123 0 223-104 223-233 0-129-100-233-223-233"/><path d="m17553 1676c-123 0-223 104-223 233 0 129 100 233 223 233 123 0 223-104 223-233 0-129-100-233-223-233"/><path d="m16298 1676c-123 0-223 104-223 233 0 129 100 233 223 233 123 0 223-104 223-233 0-129-100-233-223-233"/><path d="m15042 1676c-123 0-223 104-223 233 0 129 100 233 223 233 123 0 223-104 223-233 0-129-100-233-223-233"/><path d="m13787 1676c-123 0-223 104-223 233 0 129 100 233 223 233 123 0 223-104 223-233 0-129-100-233-223-233"/><path d="m12531 1676c-123 0-223 104-223 233 0 129 100 233 223 233 123 0 223-104 223-233 0-129-100-233-223-233"/><path d="m11276 1676c-123 0-223 104-223 233 0 129 100 233 223 233 123 0 223-104 223-233 0-129-100-233-223-233"/><path d="m10020 1676c-123 0-223 104-223 233 0 129 100 233 223 233 123 0 223-104 223-233 0-129-100-233-223-233"/><path d="m20706 2374c-123 0-223 104-223 233 0 129 100 233 223 233 123 0 223-104 223-233 0-129-100-233-223-233"/><path d="m19451 2374c-123 0-223 104-223 233 0 129 100 233 223 233 123 0 223-104 223-233 0-129-100-233-223-233"/><path d="m18195 2374c-123 0-223 104-223 233 0 129 100 233 223 233 123 0 223-104 223-233 0-129-100-233-223-233"/><path d="m16940 2374c-123 0-223 104-223 233 0 129 100 233 223 233 123 0 223-104 223-233 0-129-100-233-223-233"/><path d="m15684 2374c-123 0-223 104-223 233 0 129 100 233 223 233 123 0 223-104 223-233 0-129-100-233-223-233"/><path d="m14429 2374c-123 0-223 104-223 233 0 129 100 233 223 233 123 0 223-104 223-233 0-129-100-233-223-233"/><path d="m13173 2374c-123 0-223 104-223 233 0 129 100 233 223 233 123 0 223-104 223-233 0-129-100-233-223-233"/><path d="m11918 2374c-123 0-223 104-223 233 0 129 100 233 223 233 123 0 223-104 223-233 0-129-100-233-223-233"/><path d="m20064 3190c-123 0-223 104-223 233 0 129 100 233 223 233 123 0 223-104 223-233 0-129-100-233-223-233"/><path d="m18809 3190c-123 0-223 104-223 233 0 129 100 233 223 233 123 0 223-104 223-233 0-129-100-233-223-233"/><path d="m17553 3190c-123 0-223 104-223 233 0 129 100 233 223 233 123 0 223-104 223-233 0-129-100-233-223-233"/><path d="m16298 3190c-123 0-223 104-223 233 0 129 100 233 223 233 123 0 223-104 223-233 0-129-100-233-223-233"/><path d="m15042 3190c-123 0-223 104-223 233 0 129 100 233 223 233 123 0 223-104 223-233 0-129-100-233-223-233"/><path d="m13787 3190c-123 0-223 104-223 233 0 129 100 233 223 233 123 0 223-104 223-233 0-129-100-233-223-233"/><path d="m12531 3190c-123 0-223 104-223 233 0 129 100 233 223 233 123 0 223-104 223-233 0-129-100-233-223-233"/><path d="m11276 3190c-123 0-223 104-223 233 0 129 100 233 223 233 123 0 223-104 223-233 0-129-100-233-223-233"/><path d="m10020 3190c-123 0-223 104-223 233 0 129 100 233 223 233 123 0 223-104 223-233 0-129-100-233-223-233"/><path d="m20706 3888c-123 0-223 104-223 233 0 129 100 233 223 233 123 0 223-104 223-233 0-129-100-233-223-233"/><path d="m19451 3888c-123 0-223 104-223 233 0 129 100 233 223 233 123 0 223-104 223-233 0-129-100-233-223-233"/><path d="m18195 3888c-123 0-223 104-223 233 0 129 100 233 223 233 123 0 223-104 223-233 0-129-100-233-223-233"/><path d="m16940 3888c-123 0-223 104-223 233 0 129 100 233 223 233 123 0 223-104 223-233 0-129-100-233-223-233"/><path d="m15684 3888c-123 0-223 104-223 233 0 129 100 233 223 233 123 0 223-104 223-233 0-129-100-233-223-233"/><path d="m14429 3888c-123 0-223 104-223 233 0 129 100 233 223 233 123 0 223-104 223-233 0-129-100-233-223-233"/><path d="m13173 3888c-123 0-223 104-223 233 0 129 100 233 223 233 123 0 223-104 223-233 0-129-100-233-223-233"/><path d="m11918 3888c-123 0-223 104-223 233 0 129 100 233 223 233 123 0 223-104 223-233 0-129-100-233-223-233"/><path d="m20064 4703c-123 0-223 104-223 233 0 129 100 233 223 233 123 0 223-104 223-233 0-129-100-233-223-233"/><path d="m18809 4703c-123 0-223 104-223 233 0 129 100 233 223 233 123 0 223-104 223-233 0-129-100-233-223-233"/><path d="m17553 4703c-123 0-223 104-223 233 0 129 100 233 223 233 123 0 223-104 223-233 0-129-100-233-223-233"/><path d="m16298 4703c-123 0-223 104-223 233 0 129 100 233 223 233 123 0 223-104 223-233 0-129-100-233-223-233"/><path d="m15042 4703c-123 0-223 104-223 233 0 129 100 233 223 233 123 0 223-104 223-233 0-129-100-233-223-233"/><path d="m13787 4703c-123 0-223 104-223 233 0 129 100 233 223 233 123 0 223-104 223-233 0-129-100-233-223-233"/><path d="m12531 4703c-123 0-223 104-223 233 0 129 100 233 223 233 123 0 223-104 223-233 0-129-100-233-223-233"/><path d="m11276 4703c-123 0-223 104-223 233 0 129 100 233 223 233 123 0 223-104 223-233 0-129-100-233-223-233"/><path d="m10020 4703c-123 0-223 104-223 233 0 129 100 233 223 233 123 0 223-104 223-233 0-129-100-233-223-233"/><path d="m20706 5402c-123 0-223 104-223 233 0 129 100 233 223 233 123 0 223-104 223-233 0-129-100-233-223-233"/><path d="m19451 5402c-123 0-223 104-223 233 0 129 100 233 223 233 123 0 223-104 223-233 0-129-100-233-223-233"/><path d="m18195 5402c-123 0-223 104-223 233 0 129 100 233 223 233 123 0 223-104 223-233 0-129-100-233-223-233"/><path d="m16940 5402c-123 0-223 104-223 233 0 129 100 233 223 233 123 0 223-104 223-233 0-129-100-233-223-233"/><path d="m15684 5402c-123 0-223 104-223 233 0 129 100 233 223 233 123 0 223-104 223-233 0-129-100-233-223-233"/><path d="m14429 5402c-123 0-223 104-223 233 0 129 100 233 223 233 123 0 223-104 223-233 0-129-100-233-223-233"/><path d="m13173 5402c-123 0-223 104-223 233 0 129 100 233 223 233 123 0 223-104 223-233 0-129-100-233-223-233"/><path d="m11918 5402c-123 0-223 104-223 233 0 129 100 233 223 233 123 0 223-104 223-233 0-129-100-233-223-233"/><path d="m20064 6217c-123 0-223 104-223 233 0 129 100 233 223 233 123 0 223-104 223-233 0-129-100-233-223-233"/><path d="m18809 6217c-123 0-223 104-223 233 0 129 100 233 223 233 123 0 223-104 223-233 0-129-100-233-223-233"/><path d="m17553 6217c-123 0-223 104-223 233 0 129 100 233 223 233 123 0 223-104 223-233 0-129-100-233-223-233"/><path d="m16298 6217c-123 0-223 104-223 233 0 129 100 233 223 233 123 0 223-104 223-233 0-129-100-233-223-233"/><path d="m15042 6217c-123 0-223 104-223 233 0 129 100 233 223 233 123 0 223-104 223-233 0-129-100-233-223-233"/><path d="m13787 6217c-123 0-223 104-223 233 0 129 100 233 223 233 123 0 223-104 223-233 0-129-100-233-223-233"/><path d="m12531 6217c-123 0-223 104-223 233 0 129 100 233 223 233 123 0 223-104 223-233 0-129-100-233-223-233"/><path d="m11276 6217c-123 0-223 104-223 233 0 129 100 233 223 233 123 0 223-104 223-233 0-129-100-233-223-233"/><path d="m10020 6217c-123 0-223 104-223 233 0 129 100 233 223 233 123 0 223-104 223-233 0-129-100-233-223-233"/><path d="m20706 6916c-123 0-223 104-223 233 0 129 100 233 223 233 123 0 223-104 223-233 0-129-100-233-223-233"/><path d="m19451 6916c-123 0-223 104-223 233 0 129 100 233 223 233 123 0 223-104 223-233 0-129-100-233-223-233"/><path d="m18195 6916c-123 0-223 104-223 233 0 129 100 233 223 233 123 0 223-104 223-233 0-129-100-233-223-233"/><path d="m16940 6916c-123 0-223 104-223 233 0 129 100 233 223 233 123 0 223-104 223-233 0-129-100-233-223-233"/><path d="m15684 6916c-123 0-223 104-223 233 0 129 100 233 223 233 123 0 223-104 223-233 0-129-100-233-223-233"/><path d="m14429 6916c-123 0-223 104-223 233 0 129 100 233 223 233 123 0 223-104 223-233 0-129-100-233-223-233"/><path d="m13173 6916c-123 0-223 104-223 233 0 129 100 233 223 233 123 0 223-104 223-233 0-129-100-233-223-233"/><path d="m11918 6916c-123 0-223 104-223 233 0 129 100 233 223 233 123 0 223-104 223-233 0-129-100-233-223-233"/><path d="m20064 7731c-123 0-223 104-223 233 0 129 100 233 223 233 123 0 223-104 223-233 0-129-100-233-223-233"/><path d="m18809 7731c-123 0-223 104-223 233 0 129 100 233 223 233 123 0 223-104 223-233 0-129-100-233-223-233"/><path d="m17553 7731c-123 0-223 104-223 233 0 129 100 233 223 233 123 0 223-104 223-233 0-129-100-233-223-233"/><path d="m16298 7731c-123 0-223 104-223 233 0 129 100 233 223 233 123 0 223-104 223-233 0-129-100-233-223-233"/><path d="m15042 7731c-123 0-223 104-223 233 0 129 100 233 223 233 123 0 223-104 223-233 0-129-100-233-223-233"/><path d="m13787 7731c-123 0-223 104-223 233 0 129 100 233 223 233 123 0 223-104 223-233 0-129-100-233-223-233"/><path d="m12531 7731c-123 0-223 104-223 233 0 129 100 233 223 233 123 0 223-104 223-233 0-129-100-233-223-233"/><path d="m11276 7731c-123 0-223 104-223 233 0 129 100 233 223 233 123 0 223-104 223-233 0-129-100-233-223-233"/><path d="m10020 7731c-123 0-223 104-223 233 0 129 100 233 223 233 123 0 223-104 223-233 0-129-100-233-223-233"/><path d="m20706 8430c-123 0-223 104-223 233 0 129 100 233 223 233 123 0 223-104 223-233 0-129-100-233-223-233"/><path d="m19451 8430c-123 0-223 104-223 233 0 129 100 233 223 233 123 0 223-104 223-233 0-129-100-233-223-233"/><path d="m18195 8430c-123 0-223 104-223 233 0 129 100 233 223 233 123 0 223-104 223-233 0-129-100-233-223-233"/><path d="m16940 8430c-123 0-223 104-223 233 0 129 100 233 223 233 123 0 223-104 223-233 0-129-100-233-223-233"/><path d="m15684 8430c-123 0-223 104-223 233 0 129 100 233 223 233 123 0 223-104 223-233 0-129-100-233-223-233"/><path d="m14429 8430c-123 0-223 104-223 233 0 129 100 233 223 233 123 0 223-104 223-233 0-129-100-233-223-233"/><path d="m13173 8430c-123 0-223 104-223 233 0 129 100 233 223 233 123 0 223-104 223-233 0-129-100-233-223-233"/><path d="m11918 8430c-123 0-223 104-223 233 0 129 100 233 223 233 123 0 223-104 223-233 0-129-100-233-223-233"/><path d="m20064 9245c-123 0-223 104-223 233 0 129 100 233 223 233 123 0 223-104 223-233 0-129-100-233-223-233"/><path d="m18809 9245c-123 0-223 104-223 233 0 129 100 233 223 233 123 0 223-104 223-233 0-129-100-233-223-233"/><path d="m17553 9245c-123 0-223 104-223 233 0 129 100 233 223 233 123 0 223-104 223-233 0-129-100-233-223-233"/><path d="m16298 9245c-123 0-223 104-223 233 0 129 100 233 223 233 123 0 223-104 223-233 0-129-100-233-223-233"/><path d="m15042 9245c-123 0-223 104-223 233 0 129 100 233 223 233 123 0 223-104 223-233 0-129-100-233-223-233"/><path d="m13787 9245c-123 0-223 104-223 233 0 129 100 233 223 233 123 0 223-104 223-233 0-129-100-233-223-233"/><path d="m12531 9245c-123 0-223 104-223 233 0 129 100 233 223 233 123 0 223-104 223-233 0-129-100-233-223-233"/><path d="m11276 9245c-123 0-223 104-223 233 0 129 100 233 223 233 123 0 223-104 223-233 0-129-100-233-223-233"/><path d="m10020 9245c-123 0-223 104-223 233 0 129 100 233 223 233 123 0 223-104 223-233 0-129-100-233-223-233"/><path d="m20706 9944c-123 0-223 104-223 233 0 129 100 233 223 233 123 0 223-104 223-233 0-129-100-233-223-233"/><path d="m19451 9944c-123 0-223 104-223 233 0 129 100 233 223 233 123 0 223-104 223-233 0-129-100-233-223-233"/><path d="m18195 9944c-123 0-223 104-223 233 0 129 100 233 223 233 123 0 223-104 223-233 0-129-100-233-223-233"/><path d="m16940 9944c-123 0-223 104-223 233 0 129 100 233 223 233 123 0 223-104 223-233 0-129-100-233-223-233"/><path d="m15684 9944c-123 0-223 104-223 233 0 129 100 233 223 233 123 0 223-104 223-233 0-129-100-233-223-233"/><path d="m14429 9944c-123 0-223 104-223 233 0 129 100 233 223 233 123 0 223-104 223-233 0-129-100-233-223-233"/><path d="m13173 9944c-123 0-223 104-223 233 0 129 100 233 223 233 123 0 223-104 223-233 0-129-100-233-223-233"/><path d="m11918 9944c-123 0-223 104-223 233 0 129 100 233 223 233 123 0 223-104 223-233 0-129-100-233-223-233"/><path d="m20064 10759c-123 0-223 104-223 233 0 129 100 233 223 233 123 0 223-104 223-233 0-129-100-233-223-233"/><path d="m18809 10759c-123 0-223 104-223 233 0 129 100 233 223 233 123 0 223-104 223-233 0-129-100-233-223-233"/><path d="m17553 10759c-123 0-223 104-223 233 0 129 100 233 223 233 123 0 223-104 223-233 0-129-100-233-223-233"/><path d="m16298 10759c-123 0-223 104-223 233 0 129 100 233 223 233 123 0 223-104 223-233 0-129-100-233-223-233"/><path d="m15042 10759c-123 0-223 104-223 233 0 129 100 233 223 233 123 0 223-104 223-233 0-129-100-233-223-233"/><path d="m13787 10759c-123 0-223 104-223 233 0 129 100 233 223 233 123 0 223-104 223-233 0-129-100-233-223-233"/><path d="m12531 10759c-123 0-223 104-223 233 0 129 100 233 223 233 123 0 223-104 223-233 0-129-100-233-223-233"/><path d="m11276 10759c-123 0-223 104-223 233 0 129 100 233 223 233 123 0 223-104 223-233 0-129-100-233-223-233"/><path d="m10020 10759c-123 0-223 104-223 233 0 129 100 233 223 233 123 0 223-104 223-233 0-129-100-233-223-233"/><path d="m20706 11457c-123 0-223 104-223 233 0 129 100 233 223 233 123 0 223-104 223-233 0-129-100-233-223-233"/><path d="m19451 11457c-123 0-223 104-223 233 0 129 100 233 223 233 123 0 223-104 223-233 0-129-100-233-223-233"/><path d="m18195 11457c-123 0-223 104-223 233 0 129 100 233 223 233 123 0 223-104 223-233 0-129-100-233-223-233"/><path d="m16940 11457c-123 0-223 104-223 233 0 129 100 233 223 233 123 0 223-104 223-233 0-129-100-233-223-233"/><path d="m15684 11457c-123 0-223 104-223 233 0 129 100 233 223 233 123 0 223-104 223-233 0-129-100-233-223-233"/><path d="m14429 11457c-123 0-223 104-223 233 0 129 100 233 223 233 123 0 223-104 223-233 0-129-100-233-223-233"/><path d="m13173 11457c-123 0-223 104-223 233 0 129 100 233 223 233 123 0 223-104 223-233 0-129-100-233-223-233"/><path d="m11918 11457c-123 0-223 104-223 233 0 129 100 233 223 233 123 0 223-104 223-233 0-129-100-233-223-233"/><path d="m20064 12273c-123 0-223 104-223 233 0 129 100 233 223 233 123 0 223-104 223-233 0-129-100-233-223-233"/><path d="m18809 12273c-123 0-223 104-223 233 0 129 100 233 223 233 123 0 223-104 223-233 0-129-100-233-223-233"/><path d="m17553 12273c-123 0-223 104-223 233 0 129 100 233 223 233 123 0 223-104 223-233 0-129-100-233-223-233"/><path d="m16298 12273c-123 0-223 104-223 233 0 129 100 233 223 233 123 0 223-104 223-233 0-129-100-233-223-233"/><path d="m15042 12273c-123 0-223 104-223 233 0 129 100 233 223 233 123 0 223-104 223-233 0-129-100-233-223-233"/><path d="m13787 12273c-123 0-223 104-223 233 0 129 100 233 223 233 123 0 223-104 223-233 0-129-100-233-223-233"/><path d="m12531 12273c-123 0-223 104-223 233 0 129 100 233 223 233 123 0 223-104 223-233 0-129-100-233-223-233"/><path d="m11276 12273c-123 0-223 104-223 233 0 129 100 233 223 233 123 0 223-104 223-233 0-129-100-233-223-233"/><path d="m10020 12273c-123 0-223 104-223 233 0 129 100 233 223 233 123 0 223-104 223-233 0-129-100-233-223-233"/><path d="m20706 12971c-123 0-223 104-223 233 0 129 100 233 223 233 123 0 223-104 223-233 0-129-100-233-223-233"/><path d="m19451 12971c-123 0-223 104-223 233 0 129 100 233 223 233 123 0 223-104 223-233 0-129-100-233-223-233"/><path d="m18195 12971c-123 0-223 104-223 233 0 129 100 233 223 233 123 0 223-104 223-233 0-129-100-233-223-233"/><path d="m16940 12971c-123 0-223 104-223 233 0 129 100 233 223 233 123 0 223-104 223-233 0-129-100-233-223-233"/><path d="m15684 12971c-123 0-223 104-223 233 0 129 100 233 223 233 123 0 223-104 223-233 0-129-100-233-223-233"/><path d="m14429 12971c-123 0-223 104-223 233 0 129 100 233 223 233 123 0 223-104 223-233 0-129-100-233-223-233"/><path d="m13173 12971c-123 0-223 104-223 233 0 129 100 233 223 233 123 0 223-104 223-233 0-129-100-233-223-233"/><path d="m11918 12971c-123 0-223 104-223 233 0 129 100 233 223 233 123 0 223-104 223-233 0-129-100-233-223-233"/><path d="m20064 13786c-123 0-223 104-223 233 0 129 100 233 223 233 123 0 223-104 223-233 0-129-100-233-223-233"/><path d="m18809 13786c-123 0-223 104-223 233 0 129 100 233 223 233 123 0 223-104 223-233 0-129-100-233-223-233"/><path d="m17553 13786c-123 0-223 104-223 233 0 129 100 233 223 233 123 0 223-104 223-233 0-129-100-233-223-233"/><path d="m16298 13786c-123 0-223 104-223 233 0 129 100 233 223 233 123 0 223-104 223-233 0-129-100-233-223-233"/><path d="m15042 13786c-123 0-223 104-223 233 0 129 100 233 223 233 123 0 223-104 223-233 0-129-100-233-223-233"/><path d="m13787 13786c-123 0-223 104-223 233 0 129 100 233 223 233 123 0 223-104 223-233 0-129-100-233-223-233"/><path d="m12531 13786c-123 0-223 104-223 233 0 129 100 233 223 233 123 0 223-104 223-233 0-129-100-233-223-233"/><path d="m11276 13786c-123 0-223 104-223 233 0 129 100 233 223 233 123 0 223-104 223-233 0-129-100-233-223-233"/><path d="m10020 13786c-123 0-223 104-223 233 0 129 100 233 223 233 123 0 223-104 223-233 0-129-100-233-223-233"/><path d="m20706 14485c-123 0-223 104-223 233 0 129 100 233 223 233 123 0 223-104 223-233 0-129-100-233-223-233"/><path d="m19451 14485c-123 0-223 104-223 233 0 129 100 233 223 233 123 0 223-104 223-233 0-129-100-233-223-233"/><path d="m18195 14485c-123 0-223 104-223 233 0 129 100 233 223 233 123 0 223-104 223-233 0-129-100-233-223-233"/><path d="m16940 14485c-123 0-223 104-223 233 0 129 100 233 223 233 123 0 223-104 223-233 0-129-100-233-223-233"/><path d="m15684 14485c-123 0-223 104-223 233 0 129 100 233 223 233 123 0 223-104 223-233 0-129-100-233-223-233"/><path d="m14429 14485c-123 0-223 104-223 233 0 129 100 233 223 233 123 0 223-104 223-233 0-129-100-233-223-233"/><path d="m13173 14485c-123 0-223 104-223 233 0 129 100 233 223 233 123 0 223-104 223-233 0-129-100-233-223-233"/><path d="m11918 14485c-123 0-223 104-223 233 0 129 100 233 223 233 123 0 223-104 223-233 0-129-100-233-223-233"/><path d="m20064 15300c-123 0-223 104-223 233 0 129 100 233 223 233 123 0 223-104 223-233 0-129-100-233-223-233"/><path d="m18809 15300c-123 0-223 104-223 233 0 129 100 233 223 233 123 0 223-104 223-233 0-129-100-233-223-233"/><path d="m17553 15300c-123 0-223 104-223 233 0 129 100 233 223 233 123 0 223-104 223-233 0-129-100-233-223-233"/><path d="m16298 15300c-123 0-223 104-223 233 0 129 100 233 223 233 123 0 223-104 223-233 0-129-100-233-223-233"/><path d="m15042 15300c-123 0-223 104-223 233 0 129 100 233 223 233 123 0 223-104 223-233 0-129-100-233-223-233"/><path d="m13787 15300c-123 0-223 104-223 233 0 129 100 233 223 233 123 0 223-104 223-233 0-129-100-233-223-233"/><path d="m12531 15300c-123 0-223 104-223 233 0 129 100 233 223 233 123 0 223-104 223-233 0-129-100-233-223-233"/><path d="m11276 15300c-123 0-223 104-223 233 0 129 100 233 223 233 123 0 223-104 223-233 0-129-100-233-223-233"/><path d="m10020 15300c-123 0-223 104-223 233 0 129 100 233 223 233 123 0 223-104 223-233 0-129-100-233-223-233"/><path d="m20706 15999c-123 0-223 104-223 233 0 129 100 233 223 233 123 0 223-104 223-233 0-129-100-233-223-233"/><path d="m19451 15999c-123 0-223 104-223 233 0 129 100 233 223 233 123 0 223-104 223-233 0-129-100-233-223-233"/><path d="m18195 15999c-123 0-223 104-223 233 0 129 100 233 223 233 123 0 223-104 223-233 0-129-100-233-223-233"/><path d="m16940 15999c-123 0-223 104-223 233 0 129 100 233 223 233 123 0 223-104 223-233 0-129-100-233-223-233"/><path d="m15684 15999c-123 0-223 104-223 233 0 129 100 233 223 233 123 0 223-104 223-233 0-129-100-233-223-233"/><path d="m14429 15999c-123 0-223 104-223 233 0 129 100 233 223 233 123 0 223-104 223-233 0-129-100-233-223-233"/><path d="m13173 15999c-123 0-223 104-223 233 0 129 100 233 223 233 123 0 223-104 223-233 0-129-100-233-223-233"/><path d="m11918 15999c-123 0-223 104-223 233 0 129 100 233 223 233 123 0 223-104 223-233 0-129-100-233-223-233"/><path d="m20064 16814c-123 0-223 104-223 233 0 129 100 233 223 233 123 0 223-104 223-233 0-129-100-233-223-233"/><path d="m18809 16814c-123 0-223 104-223 233 0 129 100 233 223 233 123 0 223-104 223-233 0-129-100-233-223-233"/><path d="m17553 16814c-123 0-223 104-223 233 0 129 100 233 223 233 123 0 223-104 223-233 0-129-100-233-223-233"/><path d="m16298 16814c-123 0-223 104-223 233 0 129 100 233 223 233 123 0 223-104 223-233 0-129-100-233-223-233"/><path d="m15042 16814c-123 0-223 104-223 233 0 129 100 233 223 233 123 0 223-104 223-233 0-129-100-233-223-233"/><path d="m13787 16814c-123 0-223 104-223 233 0 129 100 233 223 233 123 0 223-104 223-233 0-129-100-233-223-233"/><path d="m12531 16814c-123 0-223 104-223 233 0 129 100 233 223 233 123 0 223-104 223-233 0-129-100-233-223-233"/><path d="m11276 16814c-123 0-223 104-223 233 0 129 100 233 223 233 123 0 223-104 223-233 0-129-100-233-223-233"/><path d="m10020 16814c-123 0-223 104-223 233 0 129 100 233 223 233 123 0 223-104 223-233 0-129-100-233-223-233"/><path d="m20706 17513c-123 0-223 104-223 233 0 129 100 233 223 233 123 0 223-104 223-233 0-129-100-233-223-233"/><path d="m19451 17513c-123 0-223 104-223 233 0 129 100 233 223 233 123 0 223-104 223-233 0-129-100-233-223-233"/><path d="m18195 17513c-123 0-223 104-223 233 0 129 100 233 223 233 123 0 223-104 223-233 0-129-100-233-223-233"/><path d="m16940 17513c-123 0-223 104-223 233 0 129 100 233 223 233 123 0 223-104 223-233 0-129-100-233-223-233"/><path d="m15684 17513c-123 0-223 104-223 233 0 129 100 233 223 233 123 0 223-104 223-233 0-129-100-233-223-233"/><path d="m14429 17513c-123 0-223 104-223 233 0 129 100 233 223 233 123 0 223-104 223-233 0-129-100-233-223-233"/><path d="m13173 17513c-123 0-223 104-223 233 0 129 100 233 223 233 123 0 223-104 223-233 0-129-100-233-223-233"/><path d="m11918 17513c-123 0-223 104-223 233 0 129 100 233 223 233 123 0 223-104 223-233 0-129-100-233-223-233"/><path d="m20064 18328c-123 0-223 104-223 233 0 129 100 233 223 233 123 0 223-104 223-233 0-129-100-233-223-233"/><path d="m18809 18328c-123 0-223 104-223 233 0 129 100 233 223 233 123 0 223-104 223-233 0-129-100-233-223-233"/><path d="m17553 18328c-123 0-223 104-223 233 0 129 100 233 223 233 123 0 223-104 223-233 0-129-100-233-223-233"/><path d="m16298 18328c-123 0-223 104-223 233 0 129 100 233 223 233 123 0 223-104 223-233 0-129-100-233-223-233"/><path d="m15042 18328c-123 0-223 104-223 233 0 129 100 233 223 233 123 0 223-104 223-233 0-129-100-233-223-233"/><path d="m13787 18328c-123 0-223 104-223 233 0 129 100 233 223 233 123 0 223-104 223-233 0-129-100-233-223-233"/><path d="m12531 18328c-123 0-223 104-223 233 0 129 100 233 223 233 123 0 223-104 223-233 0-129-100-233-223-233"/><path d="m11276 18328c-123 0-223 104-223 233 0 129 100 233 223 233 123 0 223-104 223-233 0-129-100-233-223-233"/><path d="m10020 18328c-123 0-223 104-223 233 0 129 100 233 223 233 123 0 223-104 223-233 0-129-100-233-223-233"/><path d="m20706 19027c-123 0-223 104-223 233 0 129 100 233 223 233 123 0 223-104 223-233 0-129-100-233-223-233"/><path d="m19451 19027c-123 0-223 104-223 233 0 129 100 233 223 233 123 0 223-104 223-233 0-129-100-233-223-233"/><path d="m18195 19027c-123 0-223 104-223 233 0 129 100 233 223 233 123 0 223-104 223-233 0-129-100-233-223-233"/><path d="m16940 19027c-123 0-223 104-223 233 0 129 100 233 223 233 123 0 223-104 223-233 0-129-100-233-223-233"/><path d="m15684 19027c-123 0-223 104-223 233 0 129 100 233 223 233 123 0 223-104 223-233 0-129-100-233-223-233"/><path d="m14429 19027c-123 0-223 104-223 233 0 129 100 233 223 233 123 0 223-104 223-233 0-129-100-233-223-233"/><path d="m13173 19027c-123 0-223 104-223 233 0 129 100 233 223 233 123 0 223-104 223-233 0-129-100-233-223-233"/><path d="m11918 19027c-123 0-223 104-223 233 0 129 100 233 223 233 123 0 223-104 223-233 0-129-100-233-223-233"/><path d="m20064 19842c-123 0-223 104-223 233 0 129 100 233 223 233 123 0 223-104 223-233 0-129-100-233-223-233"/><path d="m18809 19842c-123 0-223 104-223 233 0 129 100 233 223 233 123 0 223-104 223-233 0-129-100-233-223-233"/><path d="m17553 19842c-123 0-223 104-223 233 0 129 100 233 223 233 123 0 223-104 223-233 0-129-100-233-223-233"/><path d="m16298 19842c-123 0-223 104-223 233 0 129 100 233 223 233 123 0 223-104 223-233 0-129-100-233-223-233"/><path d="m15042 19842c-123 0-223 104-223 233 0 129 100 233 223 233 123 0 223-104 223-233 0-129-100-233-223-233"/><path d="m13787 19842c-123 0-223 104-223 233 0 129 100 233 223 233 123 0 223-104 223-233 0-129-100-233-223-233"/><path d="m12531 19842c-123 0-223 104-223 233 0 129 100 233 223 233 123 0 223-104 223-233 0-129-100-233-223-233"/><path d="m11276 19842c-123 0-223 104-223 233 0 129 100 233 223 233 123 0 223-104 223-233 0-129-100-233-223-233"/><path d="m10020 19842c-123 0-223 104-223 233 0 129 100 233 223 233 123 0 223-104 223-233 0-129-100-233-223-233"/><path d="m20706 20540c-123 0-223 104-223 233 0 129 100 233 223 233 123 0 223-104 223-233 0-129-100-233-223-233"/><path d="m19451 20540c-123 0-223 104-223 233 0 129 100 233 223 233 123 0 223-104 223-233 0-129-100-233-223-233"/><path d="m18195 20540c-123 0-223 104-223 233 0 129 100 233 223 233 123 0 223-104 223-233 0-129-100-233-223-233"/><path d="m16940 20540c-123 0-223 104-223 233 0 129 100 233 223 233 123 0 223-104 223-233 0-129-100-233-223-233"/><path d="m15684 20540c-123 0-223 104-223 233 0 129 100 233 223 233 123 0 223-104 223-233 0-129-100-233-223-233"/><path d="m14429 20540c-123 0-223 104-223 233 0 129 100 233 223 233 123 0 223-104 223-233 0-129-100-233-223-233"/><path d="m13173 20540c-123 0-223 104-223 233 0 129 100 233 223 233 123 0 223-104 223-233 0-129-100-233-223-233"/><path d="m11918 20540c-123 0-223 104-223 233 0 129 100 233 223 233 123 0 223-104 223-233 0-129-100-233-223-233"/><path d="m20064 21356c-123 0-223 104-223 233 0 129 100 233 223 233 123 0 223-104 223-233 0-129-100-233-223-233"/><path d="m18809 21356c-123 0-223 104-223 233 0 129 100 233 223 233 123 0 223-104 223-233 0-129-100-233-223-233"/><path d="m17553 21356c-123 0-223 104-223 233 0 129 100 233 223 233 123 0 223-104 223-233 0-129-100-233-223-233"/><path d="m16298 21356c-123 0-223 104-223 233 0 129 100 233 223 233 123 0 223-104 223-233 0-129-100-233-223-233"/><path d="m15042 21356c-123 0-223 104-223 233 0 129 100 233 223 233 123 0 223-104 223-233 0-129-100-233-223-233"/><path d="m13787 21356c-123 0-223 104-223 233 0 129 100 233 223 233 123 0 223-104 223-233 0-129-100-233-223-233"/><path d="m12531 21356c-123 0-223 104-223 233 0 129 100 233 223 233 123 0 223-104 223-233 0-129-100-233-223-233"/><path d="m11276 21356c-123 0-223 104-223 233 0 129 100 233 223 233 123 0 223-104 223-233 0-129-100-233-223-233"/><path d="m10020 21356c-123 0-223 104-223 233 0 129 100 233 223 233 123 0 223-104 223-233 0-129-100-233-223-233"/><path d="m20706 22054c-123 0-223 104-223 233 0 129 100 233 223 233 123 0 223-104 223-233 0-129-100-233-223-233"/><path d="m19451 22054c-123 0-223 104-223 233 0 129 100 233 223 233 123 0 223-104 223-233 0-129-100-233-223-233"/><path d="m18195 22054c-123 0-223 104-223 233 0 129 100 233 223 233 123 0 223-104 223-233 0-129-100-233-223-233"/><path d="m16940 22054c-123 0-223 104-223 233 0 129 100 233 223 233 123 0 223-104 223-233 0-129-100-233-223-233"/><path d="m15684 22054c-123 0-223 104-223 233 0 129 100 233 223 233 123 0 223-104 223-233 0-129-100-233-223-233"/><path d="m14429 22054c-123 0-223 104-223 233 0 129 100 233 223 233 123 0 223-104 223-233 0-129-100-233-223-233"/><path d="m13173 22054c-123 0-223 104-223 233 0 129 100 233 223 233 123 0 223-104 223-233 0-129-100-233-223-233"/><path d="m11918 22054c-123 0-223 104-223 233 0 129 100 233 223 233 123 0 223-104 223-233 0-129-100-233-223-233"/><path d="m20064 22869c-123 0-223 104-223 233 0 129 100 233 223 233 123 0 223-104 223-233 0-129-100-233-223-233"/><path d="m18809 22869c-123 0-223 104-223 233 0 129 100 233 223 233 123 0 223-104 223-233 0-129-100-233-223-233"/><path d="m17553 22869c-123 0-223 104-223 233 0 129 100 233 223 233 123 0 223-104 223-233 0-129-100-233-223-233"/><path d="m16298 22869c-123 0-223 104-223 233 0 129 100 233 223 233 123 0 223-104 223-233 0-129-100-233-223-233"/><path d="m15042 22869c-123 0-223 104-223 233 0 129 100 233 223 233 123 0 223-104 223-233 0-129-100-233-223-233"/><path d="m13787 22869c-123 0-223 104-223 233 0 129 100 233 223 233 123 0 223-104 223-233 0-129-100-233-223-233"/><path d="m12531 22869c-123 0-223 104-223 233 0 129 100 233 223 233 123 0 223-104 223-233 0-129-100-233-223-233"/><path d="m11276 22869c-123 0-223 104-223 233 0 129 100 233 223 233 123 0 223-104 223-233 0-129-100-233-223-233"/><path d="m10020 22869c-123 0-223 104-223 233 0 129 100 233 223 233 123 0 223-104 223-233 0-129-100-233-223-233"/><path d="m20706 23568c-123 0-223 104-223 233 0 129 100 233 223 233 123 0 223-104 223-233 0-129-100-233-223-233"/><path d="m19451 23568c-123 0-223 104-223 233 0 129 100 233 223 233 123 0 223-104 223-233 0-129-100-233-223-233"/><path d="m18195 23568c-123 0-223 104-223 233 0 129 100 233 223 233 123 0 223-104 223-233 0-129-100-233-223-233"/><path d="m16940 23568c-123 0-223 104-223 233 0 129 100 233 223 233 123 0 223-104 223-233 0-129-100-233-223-233"/><path d="m15684 23568c-123 0-223 104-223 233 0 129 100 233 223 233 123 0 223-104 223-233 0-129-100-233-223-233"/><path d="m14429 23568c-123 0-223 104-223 233 0 129 100 233 223 233 123 0 223-104 223-233 0-129-100-233-223-233"/><path d="m13173 23568c-123 0-223 104-223 233 0 129 100 233 223 233 123 0 223-104 223-233 0-129-100-233-223-233"/><path d="m11918 23568c-123 0-223 104-223 233 0 129 100 233 223 233 123 0 223-104 223-233 0-129-100-233-223-233"/><path d="m20064 24383c-123 0-223 104-223 233 0 129 100 233 223 233 123 0 223-104 223-233 0-129-100-233-223-233"/><path d="m18809 24383c-123 0-223 104-223 233 0 129 100 233 223 233 123 0 223-104 223-233 0-129-100-233-223-233"/><path d="m17553 24383c-123 0-223 104-223 233 0 129 100 233 223 233 123 0 223-104 223-233 0-129-100-233-223-233"/><path d="m16298 24383c-123 0-223 104-223 233 0 129 100 233 223 233 123 0 223-104 223-233 0-129-100-233-223-233"/><path d="m15042 24383c-123 0-223 104-223 233 0 129 100 233 223 233 123 0 223-104 223-233 0-129-100-233-223-233"/><path d="m13787 24383c-123 0-223 104-223 233 0 129 100 233 223 233 123 0 223-104 223-233 0-129-100-233-223-233"/><path d="m12531 24383c-123 0-223 104-223 233 0 129 100 233 223 233 123 0 223-104 223-233 0-129-100-233-223-233"/><path d="m11276 24383c-123 0-223 104-223 233 0 129 100 233 223 233 123 0 223-104 223-233 0-129-100-233-223-233"/><path d="m10020 24383c-123 0-223 104-223 233 0 129 100 233 223 233 123 0 223-104 223-233 0-129-100-233-223-233"/><path d="m20706 25082c-123 0-223 104-223 233 0 129 100 233 223 233 123 0 223-104 223-233 0-129-100-233-223-233"/><path d="m19451 25082c-123 0-223 104-223 233 0 129 100 233 223 233 123 0 223-104 223-233 0-129-100-233-223-233"/><path d="m18195 25082c-123 0-223 104-223 233 0 129 100 233 223 233 123 0 223-104 223-233 0-129-100-233-223-233"/><path d="m16940 25082c-123 0-223 104-223 233 0 129 100 233 223 233 123 0 223-104 223-233 0-129-100-233-223-233"/><path d="m15684 25082c-123 0-223 104-223 233 0 129 100 233 223 233 123 0 223-104 223-233 0-129-100-233-223-233"/><path d="m14429 25082c-123 0-223 104-223 233 0 129 100 233 223 233 123 0 223-104 223-233 0-129-100-233-223-233"/><path d="m13173 25082c-123 0-223 104-223 233 0 129 100 233 223 233 123 0 223-104 223-233 0-129-100-233-223-233"/><path d="m11918 25082c-123 0-223 104-223 233 0 129 100 233 223 233 123 0 223-104 223-233 0-129-100-233-223-233"/><path d="m20064 25897c-123 0-223 104-223 233 0 129 100 233 223 233 123 0 223-104 223-233 0-129-100-233-223-233"/><path d="m18809 25897c-123 0-223 104-223 233 0 129 100 233 223 233 123 0 223-104 223-233 0-129-100-233-223-233"/><path d="m17553 25897c-123 0-223 104-223 233 0 129 100 233 223 233 123 0 223-104 223-233 0-129-100-233-223-233"/><path d="m16298 25897c-123 0-223 104-223 233 0 129 100 233 223 233 123 0 223-104 223-233 0-129-100-233-223-233"/><path d="m15042 25897c-123 0-223 104-223 233 0 129 100 233 223 233 123 0 223-104 223-233 0-129-100-233-223-233"/><path d="m13787 25897c-123 0-223 104-223 233 0 129 100 233 223 233 123 0 223-104 223-233 0-129-100-233-223-233"/><path d="m12531 25897c-123 0-223 104-223 233 0 129 100 233 223 233 123 0 223-104 223-233 0-129-100-233-223-233"/><path d="m11276 25897c-123 0-223 104-223 233 0 129 100 233 223 233 123 0 223-104 223-233 0-129-100-233-223-233"/><path d="m10020 25897c-123 0-223 104-223 233 0 129 100 233 223 233 123 0 223-104 223-233 0-129-100-233-223-233"/><path d="m20706 26596c-123 0-223 104-223 233 0 129 100 233 223 233 123 0 223-104 223-233 0-129-100-233-223-233"/><path d="m19451 26596c-123 0-223 104-223 233 0 129 100 233 223 233 123 0 223-104 223-233 0-129-100-233-223-233"/><path d="m18195 26596c-123 0-223 104-223 233 0 129 100 233 223 233 123 0 223-104 223-233 0-129-100-233-223-233"/><path d="m16940 26596c-123 0-223 104-223 233 0 129 100 233 223 233 123 0 223-104 223-233 0-129-100-233-223-233"/><path d="m15684 26596c-123 0-223 104-223 233 0 129 100 233 223 233 123 0 223-104 223-233 0-129-100-233-223-233"/><path d="m14429 26596c-123 0-223 104-223 233 0 129 100 233 223 233 123 0 223-104 223-233 0-129-100-233-223-233"/><path d="m13173 26596c-123 0-223 104-223 233 0 129 100 233 223 233 123 0 223-104 223-233 0-129-100-233-223-233"/><path d="m11918 26596c-123 0-223 104-223 233 0 129 100 233 223 233 123 0 223-104 223-233 0-129-100-233-223-233"/></g><g><path d="m5042 13456c21-123 31-8 6-155l402-2c20 64 72 103 99 135 12 15 6 7 15 22h-521zm440-269c36-19 71-48 121-64 244-75 318 181 372 104 24-34-59-141-26-305 20-99 83-186 144-220 86 58 145 115 160 227 29 222-86 254-75 301 43 75 81-18 104-46 70-86 193-113 299-77 41 14 114 52 134 76-21 91-83 163-159 207-110 63-285 26-302 39-80 63 105 61 197 178 75 96 65 255 13 326-133 17-191-42-254-130-110-155-39-273-146-239-12 50-1 121-15 173-45 169-239 229-330 200-19-108-18-218 25-305 50-103 164-137 192-157l-7-50c-78-20-164 59-296-15-60-34-136-126-150-224zm-2548-2026h-790v5330h1881c15-89 74-245 104-336l322-968c112-321 215-652 326-964 36-101 81-222 107-320l754 5c22 56 1 75 37 97 55 33 317 2 407-174l32-58c75 226 338 273 400 217 44-40 123-358-72-479 19-16 49-18 73-25 53-16 126-63 161-100 30-32 127-165 106-236-21-32-144-97-202-114-115-34-164-5-260 24 5-122-2-207-55-290-34-53-156-149-189-143-22 4-82 55-96 72-93 108-120 248-102 401-71-27-106-63-206-60-78 2-143 33-194 68-41 28-37 27-101 27l-380 3-348-1234 417 5 1-747h-806l287 556c23 43 80 143 94 187-88 135-175 269-267 401-46 66-86 135-133 201-32 44-645 961-658 998-21-14-27-28-41-51l-922-1448c-22-35-46-67-60-103l369-741z" fill="#fff" stroke="#fff" stroke-linejoin="round" stroke-linecap="round" stroke-width="50" id="2"/><path d="m3564 12377c-203 70-101 365 87 307 68-21 130-104 103-200-20-70-97-140-191-108z" fill="#fff" stroke="#fff" stroke-linejoin="round" stroke-linecap="round" stroke-width="50" id="3"/><path d="m3566 11612c-117 44-135 169-71 252l14 16c6 6 13 11 21 17 37 26 87 34 133 18 184-65 99-377-98-303z" fill="#fff" stroke="#fff" stroke-linejoin="round" stroke-linecap="round" stroke-width="50" id="4"/><path d="m6061 13355l14-6c33-21 65-2 74 28 12 36-3 66-25 77-69 33-118-60-62-99zm-4-77c-169 65-68 301 81 246 153-57 72-305-81-246z" fill="#fff" stroke="#fff" stroke-linejoin="round" stroke-linecap="round" stroke-width="50" id="5"/><path d="m3564 12377c93-32 171 37 191 108 27 95-35 179-103 200-189 58-291-237-87-307zm2-766c197-74 281 238 98 303-46 16-96 8-133-18-9-6-15-11-21-17l-14-16c-64-83-46-208 71-252zm-1001 290c14 36 38 68 60 103l922 1448c14 23 20 36 41 51 13-37 627-954 658-998 47-66 88-135 133-201 92-132 179-266 267-401-14-44-71-144-94-187l-287-556h806l-1 747-417-5 348 1234 380-3c64 0 60 2 101-27 50-35 116-66 194-68 100-3 135 33 206 60-18-153 9-293 102-401 14-17 74-68 96-72 33-6 156 90 189 143 53 82 60 167 55 290 96-30 144-58 260-24 58 17 181 81 202 114 21 71-77 204-106 236-35 38-108 84-161 100-24 7-54 10-73 25 195 121 115 439 72 479-62 57-325 9-400-217l-32 58c-90 176-353 207-407 174-37-22-15-41-37-97l-754-5c-27 98-72 219-107 320-111 312-215 642-326 964l-322 968c-30 92-89 247-104 336h-1881v-5330h790l-369 741zm-601-725v5286c0 91 31 145 83 182 59 43 137 31 235 31 525 0 1050 0 1575 0 30 116 272 79 379 79h1431c159 0 299-8 462-8h954c87 0 150 8 206-30 144-96 76-223 46-313-18-55-32-98-51-152-19-51-35-99-53-150-19-56-34-98-51-152-89-279-220-616-309-895l-311-908c32-46 61-12 114-150 77-203 41-275 7-427 21-6 76-53 93-69l71-92c72-113 146-270 32-382-54-53-183-121-259-141-139-36-164 3-164-50 0-45 51-172 65-225 26-96 200-610 200-676 0-63-28-119-63-147-53-42-82-43-171-42-66 0-122-8-197-8-347 0-700-16-1037-16v-514c0-125-61-229-167-229h-2968c-66 0-151 86-151 198z" fill="#201e1e" id="6"/><path d="m6057 13279c153-59 234 188 81 246-149 56-250-180-81-246m-575-91c14 98 90 190 150 224 132 74 218-5 296 15l7 50c-28 19-142 54-192 157-43 87-44 197-25 305 92 29 285-31 330-200 14-53 4-123 15-173 106-34 35 85 146 239 62 88 120 147 254 130 52-70 62-230-13-326-91-117-277-115-197-178 17-13 192 24 302-39 76-44 138-116 159-207-20-24-92-62-134-76-105-36-228-10-299 77-23 28-61 121-104 46-11-46 104-79 75-301-15-112-74-169-160-227-61 34-125 121-144 220-32 164 50 271 26 305-54 77-128-179-372-104-50 15-85 45-121 64z" fill="#201e1e" id="7"/><path d="m5042 13456h521c-9-15-2-7-15-22-27-32-79-71-99-135l-402 2c25 147 15 32-6 155z" fill="#201e1e" id="8"/><path d="m6061 13355c-56 40-7 132 62 99 23-11 37-41 25-77-8-43-56-50-88-22z" fill="#201e1e" id="9"/></g><g><g fill="#fff" stroke="#fff" stroke-linejoin="round" stroke-linecap="round" stroke-width="50"><path d="m17034 13456c21-123 31-8 6-155l402-2c20 64 72 103 99 135 12 15 6 7 15 22h-521zm440-269c36-19 71-48 121-64 244-75 318 181 372 104 24-34-59-141-26-305 20-99 83-186 144-220 86 58 145 115 160 227 29 222-86 254-75 301 43 75 81-18 104-46 70-86 193-113 299-77 41 14 114 52 134 76-21 91-83 163-159 207-110 63-285 26-302 39-80 63 105 61 197 178 75 96 65 255 13 326-133 17-191-42-254-130-110-155-39-273-146-239-12 50-1 121-15 173-45 169-239 229-330 200-19-108-18-218 25-305 50-103 164-137 192-157l-7-50c-78-20-164 59-296-15-60-34-136-126-150-224zm-2548-2026h-790v5330h1881c15-89 74-245 104-336l322-968c112-321 215-652 326-964 36-101 81-222 107-320l754 5c22 56 1 75 37 97 55 33 317 2 407-174l32-58c75 226 338 273 400 217 44-40 123-358-72-479 19-16 49-18 73-25 53-16 126-63 161-100 30-32 127-165 106-236-21-32-144-97-202-114-115-34-164-5-260 24 5-122-2-207-55-290-34-53-156-149-189-143-22 4-82 55-96 72-93 108-120 248-102 401-71-27-106-63-206-60-78 2-143 33-194 68-41 28-37 27-101 27l-380 3-348-1234 417 5 1-747h-806l287 556c23 43 80 143 94 187-88 135-175 269-267 401-46 66-86 135-133 201-32 44-645 961-658 998-21-14-27-28-41-51l-922-1448c-22-35-46-67-60-103l369-741z"/><path d="m15556 12377c-203 70-101 365 87 307 68-21 130-104 103-200-20-70-97-140-191-108z"/><path d="m15558 11612c-117 44-135 169-71 252l14 16c6 6 13 11 21 17 37 26 87 34 133 18 184-65 99-377-98-303z"/><path d="m18053 13355l14-6c33-21 65-2 74 28 12 36-3 66-25 77-69 33-118-60-62-99zm-4-77c-169 65-68 301 81 246 153-57 72-305-81-246z"/></g><g fill="#201e1e"><path d="m15556 12377c93-32 171 37 191 108 27 95-35 179-103 200-189 58-291-237-87-307zm2-766c197-74 281 238 98 303-46 16-96 8-133-18-9-6-15-11-21-17l-14-16c-64-83-46-208 71-252zm-1001 290c14 36 38 68 60 103l922 1448c14 23 20 36 41 51 13-37 627-954 658-998 47-66 88-135 133-201 92-132 179-266 267-401-14-44-71-144-94-187l-287-556h806l-1 747-417-5 348 1234 380-3c64 0 60 2 101-27 50-35 116-66 194-68 100-3 135 33 206 60-18-153 9-293 102-401 14-17 74-68 96-72 33-6 156 90 189 143 53 82 60 167 55 290 96-30 144-58 260-24 58 17 181 81 202 114 21 71-77 204-106 236-35 38-108 84-161 100-24 7-54 10-73 25 195 121 115 439 72 479-62 57-325 9-400-217l-32 58c-90 176-353 207-407 174-37-22-15-41-37-97l-754-5c-27 98-72 219-107 320-111 312-215 642-326 964l-322 968c-30 92-89 247-104 336h-1881v-5330h790l-369 741zm-601-725v5286c0 91 31 145 83 182 59 43 137 31 235 31 525 0 1050 0 1575 0 30 116 272 79 379 79h1431c159 0 299-8 462-8h954c87 0 150 8 206-30 144-96 76-223 46-313-18-55-32-98-51-152-19-51-35-99-53-150-19-56-34-98-51-152-89-279-220-616-309-895l-311-908c32-46 61-12 114-150 77-203 41-275 7-427 21-6 76-53 93-69l71-92c72-113 146-270 32-382-54-53-183-121-259-141-139-36-164 3-164-50 0-45 51-172 65-225 26-96 200-610 200-676 0-63-28-119-63-147-53-42-82-43-171-42-66 0-122-8-197-8-347 0-700-16-1037-16v-514c0-125-61-229-167-229h-2968c-66 0-151 86-151 198z"/><path d="m18049 13279c153-59 234 188 81 246-149 56-250-180-81-246m-575-91c14 98 90 190 150 224 132 74 218-5 296 15l7 50c-28 19-142 54-192 157-43 87-44 197-25 305 92 29 285-31 330-200 14-53 4-123 15-173 106-34 35 85 146 239 62 88 120 147 254 130 52-70 62-230-13-326-91-117-277-115-197-178 17-13 192 24 302-39 76-44 138-116 159-207-20-24-92-62-134-76-105-36-228-10-299 77-23 28-61 121-104 46-11-46 104-79 75-301-15-112-74-169-160-227-61 34-125 121-144 220-32 164 50 271 26 305-54 77-128-179-372-104-50 15-85 45-121 64z"/><path d="m17034 13456h521c-9-15-2-7-15-22-27-32-79-71-99-135l-402 2c25 147 15 32-6 155z"/><path d="m18053 13355c-56 40-7 132 62 99 23-11 37-41 25-77-8-43-56-50-88-22z"/></g></g></g></g><g font-family="&apos;Harrington&apos;" font-size="1558.73" transform="matrix(.95837 0 0 1 3672.42 7447.83)"><text x="10500" y="14850" fill="#fff" stroke="#fff" stroke-linejoin="round" stroke-linecap="round" stroke-width="300">Texto 02</text><text x="10500" y="14850" fill="#201e1e" stroke="#201e1e" stroke-width="75">Texto 02</text></g><rect x="16097" y="18955" width="1535" height="600" rx="767.5" ry="300" fill="#fff" stroke="#fff" stroke-width="7.62"/><text x="10500" y="14850" fill="#201e1e" font-family="&apos;Arial Black&apos;" font-weight="900" font-size="582.22" transform="matrix(.95837 0 0 1 6085.21 4616.42)">NN 1</text><path d="m6585 25241c-1246 623-3615 503-4334-650-717-1148-554-4405-622-6002-170-3999-601-7032-712-10257-124-3581 2249-5949 5085-6616 4001-941 3765 4571 3209 7403-292 1522-868 2846-1235 4334-678 2744-64 6933-299 9789-121 987-441 1642-1091 1998z" fill="#fff"/><g clip-path="url(#1)"><g><g fill="#201e1e"><path d="m1031 162c123 0 223 104 223 233 0 129-100 233-223 233-123 0-223-104-223-233 0-129 100-233 223-233"/><path d="m2286 162c123 0 223 104 223 233 0 129-100 233-223 233-123 0-223-104-223-233 0-129 100-233 223-233"/><path d="m3542 162c123 0 223 104 223 233 0 129-100 233-223 233-123 0-223-104-223-233 0-129 100-233 223-233"/><path d="m4797 162c123 0 223 104 223 233 0 129-100 233-223 233-123 0-223-104-223-233 0-129 100-233 223-233"/><path d="m6053 162c123 0 223 104 223 233 0 129-100 233-223 233-123 0-223-104-223-233 0-129 100-233 223-233"/><path d="m7308 162c123 0 223 104 223 233 0 129-100 233-223 233-123 0-223-104-223-233 0-129 100-233 223-233"/><path d="m8564 162c123 0 223 104 223 233 0 129-100 233-223 233-123 0-223-104-223-233 0-129 100-233 223-233"/><path d="m9819 162c123 0 223 104 223 233 0 129-100 233-223 233-123 0-223-104-223-233 0-129 100-233 223-233"/><path d="m11075 162c123 0 223 104 223 233 0 129-100 233-223 233-123 0-223-104-223-233 0-129 100-233 223-233"/><path d="m389 861c123 0 223 104 223 233 0 129-100 233-223 233-123 0-223-104-223-233 0-129 100-233 223-233"/><path d="m1645 861c123 0 223 104 223 233 0 129-100 233-223 233-123 0-223-104-223-233 0-129 100-233 223-233"/><path d="m2900 861c123 0 223 104 223 233 0 129-100 233-223 233-123 0-223-104-223-233 0-129 100-233 223-233"/><path d="m4156 861c123 0 223 104 223 233 0 129-100 233-223 233-123 0-223-104-223-233 0-129 100-233 223-233"/><path d="m5411 861c123 0 223 104 223 233 0 129-100 233-223 233-123 0-223-104-223-233 0-129 100-233 223-233"/><path d="m6667 861c123 0 223 104 223 233 0 129-100 233-223 233-123 0-223-104-223-233 0-129 100-233 223-233"/><path d="m7922 861c123 0 223 104 223 233 0 129-100 233-223 233-123 0-223-104-223-233 0-129 100-233 223-233"/><path d="m9178 861c123 0 223 104 223 233 0 129-100 233-223 233-123 0-223-104-223-233 0-129 100-233 223-233"/><path d="m1031 1676c123 0 223 104 223 233 0 129-100 233-223 233-123 0-223-104-223-233 0-129 100-233 223-233"/><path d="m2286 1676c123 0 223 104 223 233 0 129-100 233-223 233-123 0-223-104-223-233 0-129 100-233 223-233"/><path d="m3542 1676c123 0 223 104 223 233 0 129-100 233-223 233-123 0-223-104-223-233 0-129 100-233 223-233"/><path d="m4797 1676c123 0 223 104 223 233 0 129-100 233-223 233-123 0-223-104-223-233 0-129 100-233 223-233"/><path d="m6053 1676c123 0 223 104 223 233 0 129-100 233-223 233-123 0-223-104-223-233 0-129 100-233 223-233"/><path d="m7308 1676c123 0 223 104 223 233 0 129-100 233-223 233-123 0-223-104-223-233 0-129 100-233 223-233"/><path d="m8564 1676c123 0 223 104 223 233 0 129-100 233-223 233-123 0-223-104-223-233 0-129 100-233 223-233"/><path d="m9819 1676c123 0 223 104 223 233 0 129-100 233-223 233-123 0-223-104-223-233 0-129 100-233 223-233"/><path d="m11075 1676c123 0 223 104 223 233 0 129-100 233-223 233-123 0-223-104-223-233 0-129 100-233 223-233"/><path d="m389 2374c123 0 223 104 223 233 0 129-100 233-223 233-123 0-223-104-223-233 0-129 100-233 223-233"/><path d="m1645 2374c123 0 223 104 223 233 0 129-100 233-223 233-123 0-223-104-223-233 0-129 100-233 223-233"/><path d="m2900 2374c123 0 223 104 223 233 0 129-100 233-223 233-123 0-223-104-223-233 0-129 100-233 223-233"/><path d="m4156 2374c123 0 223 104 223 233 0 129-100 233-223 233-123 0-223-104-223-233 0-129 100-233 223-233"/><path d="m5411 2374c123 0 223 104 223 233 0 129-100 233-223 233-123 0-223-104-223-233 0-129 100-233 223-233"/><path d="m6667 2374c123 0 223 104 223 233 0 129-100 233-223 233-123 0-223-104-223-233 0-129 100-233 223-233"/><path d="m7922 2374c123 0 223 104 223 233 0 129-100 233-223 233-123 0-223-104-223-233 0-129 100-233 223-233"/><path d="m9178 2374c123 0 223 104 223 233 0 129-100 233-223 233-123 0-223-104-223-233 0-129 100-233 223-233"/><path d="m1031 3190c123 0 223 104 223 233 0 129-100 233-223 233-123 0-223-104-223-233 0-129 100-233 223-233"/><path d="m2286 3190c123 0 223 104 223 233 0 129-100 233-223 233-123 0-223-104-223-233 0-129 100-233 223-233"/><path d="m3542 3190c123 0 223 104 223 233 0 129-100 233-223 233-123 0-223-104-223-233 0-129 100-233 223-233"/><path d="m4797 3190c123 0 223 104 223 233 0 129-100 233-223 233-123 0-223-104-223-233 0-129 100-233 223-233"/><path d="m6053 3190c123 0 223 104 223 233 0 129-100 233-223 233-123 0-223-104-223-233 0-129 100-233 223-233"/><path d="m7308 3190c123 0 223 104 223 233 0 129-100 233-223 233-123 0-223-104-223-233 0-129 100-233 223-233"/><path d="m8564 3190c123 0 223 104 223 233 0 129-100 233-223 233-123 0-223-104-223-233 0-129 100-233 223-233"/><path d="m9819 3190c123 0 223 104 223 233 0 129-100 233-223 233-123 0-223-104-223-233 0-129 100-233 223-233"/><path d="m11075 3190c123 0 223 104 223 233 0 129-100 233-223 233-123 0-223-104-223-233 0-129 100-233 223-233"/><path d="m389 3888c123 0 223 104 223 233 0 129-100 233-223 233-123 0-223-104-223-233 0-129 100-233 223-233"/><path d="m1645 3888c123 0 223 104 223 233 0 129-100 233-223 233-123 0-223-104-223-233 0-129 100-233 223-233"/><path d="m2900 3888c123 0 223 104 223 233 0 129-100 233-223 233-123 0-223-104-223-233 0-129 100-233 223-233"/><path d="m4156 3888c123 0 223 104 223 233 0 129-100 233-223 233-123 0-223-104-223-233 0-129 100-233 223-233"/><path d="m5411 3888c123 0 223 104 223 233 0 129-100 233-223 233-123 0-223-104-223-233 0-129 100-233 223-233"/><path d="m6667 3888c123 0 223 104 223 233 0 129-100 233-223 233-123 0-223-104-223-233 0-129 100-233 223-233"/><path d="m7922 3888c123 0 223 104 223 233 0 129-100 233-223 233-123 0-223-104-223-233 0-129 100-233 223-233"/><path d="m9178 3888c123 0 223 104 223 233 0 129-100 233-223 233-123 0-223-104-223-233 0-129 100-233 223-233"/><path d="m1031 4703c123 0 223 104 223 233 0 129-100 233-223 233-123 0-223-104-223-233 0-129 100-233 223-233"/><path d="m2286 4703c123 0 223 104 223 233 0 129-100 233-223 233-123 0-223-104-223-233 0-129 100-233 223-233"/><path d="m3542 4703c123 0 223 104 223 233 0 129-100 233-223 233-123 0-223-104-223-233 0-129 100-233 223-233"/><path d="m4797 4703c123 0 223 104 223 233 0 129-100 233-223 233-123 0-223-104-223-233 0-129 100-233 223-233"/><path d="m6053 4703c123 0 223 104 223 233 0 129-100 233-223 233-123 0-223-104-223-233 0-129 100-233 223-233"/><path d="m7308 4703c123 0 223 104 223 233 0 129-100 233-223 233-123 0-223-104-223-233 0-129 100-233 223-233"/><path d="m8564 4703c123 0 223 104 223 233 0 129-100 233-223 233-123 0-223-104-223-233 0-129 100-233 223-233"/><path d="m9819 4703c123 0 223 104 223 233 0 129-100 233-223 233-123 0-223-104-223-233 0-129 100-233 223-233"/><path d="m11075 4703c123 0 223 104 223 233 0 129-100 233-223 233-123 0-223-104-223-233 0-129 100-233 223-233"/><path d="m389 5402c123 0 223 104 223 233 0 129-100 233-223 233-123 0-223-104-223-233 0-129 100-233 223-233"/><path d="m1645 5402c123 0 223 104 223 233 0 129-100 233-223 233-123 0-223-104-223-233 0-129 100-233 223-233"/><path d="m2900 5402c123 0 223 104 223 233 0 129-100 233-223 233-123 0-223-104-223-233 0-129 100-233 223-233"/><path d="m4156 5402c123 0 223 104 223 233 0 129-100 233-223 233-123 0-223-104-223-233 0-129 100-233 223-233"/><path d="m5411 5402c123 0 223 104 223 233 0 129-100 233-223 233-123 0-223-104-223-233 0-129 100-233 223-233"/><path d="m6667 5402c123 0 223 104 223 233 0 129-100 233-223 233-123 0-223-104-223-233 0-129 100-233 223-233"/><path d="m7922 5402c123 0 223 104 223 233 0 129-100 233-223 233-123 0-223-104-223-233 0-129 100-233 223-233"/><path d="m9178 5402c123 0 223 104 223 233 0 129-100 233-223 233-123 0-223-104-223-233 0-129 100-233 223-233"/><path d="m1031 6217c123 0 223 104 223 233 0 129-100 233-223 233-123 0-223-104-223-233 0-129 100-233 223-233"/><path d="m2286 6217c123 0 223 104 223 233 0 129-100 233-223 233-123 0-223-104-223-233 0-129 100-233 223-233"/><path d="m3542 6217c123 0 223 104 223 233 0 129-100 233-223 233-123 0-223-104-223-233 0-129 100-233 223-233"/><path d="m4797 6217c123 0 223 104 223 233 0 129-100 233-223 233-123 0-223-104-223-233 0-129 100-233 223-233"/><path d="m6053 6217c123 0 223 104 223 233 0 129-100 233-223 233-123 0-223-104-223-233 0-129 100-233 223-233"/><path d="m7308 6217c123 0 223 104 223 233 0 129-100 233-223 233-123 0-223-104-223-233 0-129 100-233 223-233"/><path d="m8564 6217c123 0 223 104 223 233 0 129-100 233-223 233-123 0-223-104-223-233 0-129 100-233 223-233"/><path d="m9819 6217c123 0 223 104 223 233 0 129-100 233-223 233-123 0-223-104-223-233 0-129 100-233 223-233"/><path d="m11075 6217c123 0 223 104 223 233 0 129-100 233-223 233-123 0-223-104-223-233 0-129 100-233 223-233"/><path d="m389 6916c123 0 223 104 223 233 0 129-100 233-223 233-123 0-223-104-223-233 0-129 100-233 223-233"/><path d="m1645 6916c123 0 223 104 223 233 0 129-100 233-223 233-123 0-223-104-223-233 0-129 100-233 223-233"/><path d="m2900 6916c123 0 223 104 223 233 0 129-100 233-223 233-123 0-223-104-223-233 0-129 100-233 223-233"/><path d="m4156 6916c123 0 223 104 223 233 0 129-100 233-223 233-123 0-223-104-223-233 0-129 100-233 223-233"/><path d="m5411 6916c123 0 223 104 223 233 0 129-100 233-223 233-123 0-223-104-223-233 0-129 100-233 223-233"/><path d="m6667 6916c123 0 223 104 223 233 0 129-100 233-223 233-123 0-223-104-223-233 0-129 100-233 223-233"/><path d="m7922 6916c123 0 223 104 223 233 0 129-100 233-223 233-123 0-223-104-223-233 0-129 100-233 223-233"/><path d="m9178 6916c123 0 223 104 223 233 0 129-100 233-223 233-123 0-223-104-223-233 0-129 100-233 223-233"/><path d="m1031 7731c123 0 223 104 223 233 0 129-100 233-223 233-123 0-223-104-223-233 0-129 100-233 223-233"/><path d="m2286 7731c123 0 223 104 223 233 0 129-100 233-223 233-123 0-223-104-223-233 0-129 100-233 223-233"/><path d="m3542 7731c123 0 223 104 223 233 0 129-100 233-223 233-123 0-223-104-223-233 0-129 100-233 223-233"/><path d="m4797 7731c123 0 223 104 223 233 0 129-100 233-223 233-123 0-223-104-223-233 0-129 100-233 223-233"/><path d="m6053 7731c123 0 223 104 223 233 0 129-100 233-223 233-123 0-223-104-223-233 0-129 100-233 223-233"/><path d="m7308 7731c123 0 223 104 223 233 0 129-100 233-223 233-123 0-223-104-223-233 0-129 100-233 223-233"/><path d="m8564 7731c123 0 223 104 223 233 0 129-100 233-223 233-123 0-223-104-223-233 0-129 100-233 223-233"/><path d="m9819 7731c123 0 223 104 223 233 0 129-100 233-223 233-123 0-223-104-223-233 0-129 100-233 223-233"/><path d="m11075 7731c123 0 223 104 223 233 0 129-100 233-223 233-123 0-223-104-223-233 0-129 100-233 223-233"/><path d="m389 8430c123 0 223 104 223 233 0 129-100 233-223 233-123 0-223-104-223-233 0-129 100-233 223-233"/><path d="m1645 8430c123 0 223 104 223 233 0 129-100 233-223 233-123 0-223-104-223-233 0-129 100-233 223-233"/><path d="m2900 8430c123 0 223 104 223 233 0 129-100 233-223 233-123 0-223-104-223-233 0-129 100-233 223-233"/><path d="m4156 8430c123 0 223 104 223 233 0 129-100 233-223 233-123 0-223-104-223-233 0-129 100-233 223-233"/><path d="m5411 8430c123 0 223 104 223 233 0 129-100 233-223 233-123 0-223-104-223-233 0-129 100-233 223-233"/><path d="m6667 8430c123 0 223 104 223 233 0 129-100 233-223 233-123 0-223-104-223-233 0-129 100-233 223-233"/><path d="m7922 8430c123 0 223 104 223 233 0 129-100 233-223 233-123 0-223-104-223-233 0-129 100-233 223-233"/><path d="m9178 8430c123 0 223 104 223 233 0 129-100 233-223 233-123 0-223-104-223-233 0-129 100-233 223-233"/><path d="m1031 9245c123 0 223 104 223 233 0 129-100 233-223 233-123 0-223-104-223-233 0-129 100-233 223-233"/><path d="m2286 9245c123 0 223 104 223 233 0 129-100 233-223 233-123 0-223-104-223-233 0-129 100-233 223-233"/><path d="m3542 9245c123 0 223 104 223 233 0 129-100 233-223 233-123 0-223-104-223-233 0-129 100-233 223-233"/><path d="m4797 9245c123 0 223 104 223 233 0 129-100 233-223 233-123 0-223-104-223-233 0-129 100-233 223-233"/><path d="m6053 9245c123 0 223 104 223 233 0 129-100 233-223 233-123 0-223-104-223-233 0-129 100-233 223-233"/><path d="m7308 9245c123 0 223 104 223 233 0 129-100 233-223 233-123 0-223-104-223-233 0-129 100-233 223-233"/><path d="m8564 9245c123 0 223 104 223 233 0 129-100 233-223 233-123 0-223-104-223-233 0-129 100-233 223-233"/><path d="m9819 9245c123 0 223 104 223 233 0 129-100 233-223 233-123 0-223-104-223-233 0-129 100-233 223-233"/><path d="m11075 9245c123 0 223 104 223 233 0 129-100 233-223 233-123 0-223-104-223-233 0-129 100-233 223-233"/><path d="m389 9944c123 0 223 104 223 233 0 129-100 233-223 233-123 0-223-104-223-233 0-129 100-233 223-233"/><path d="m1645 9944c123 0 223 104 223 233 0 129-100 233-223 233-123 0-223-104-223-233 0-129 100-233 223-233"/><path d="m2900 9944c123 0 223 104 223 233 0 129-100 233-223 233-123 0-223-104-223-233 0-129 100-233 223-233"/><path d="m4156 9944c123 0 223 104 223 233 0 129-100 233-223 233-123 0-223-104-223-233 0-129 100-233 223-233"/><path d="m5411 9944c123 0 223 104 223 233 0 129-100 233-223 233-123 0-223-104-223-233 0-129 100-233 223-233"/><path d="m6667 9944c123 0 223 104 223 233 0 129-100 233-223 233-123 0-223-104-223-233 0-129 100-233 223-233"/><path d="m7922 9944c123 0 223 104 223 233 0 129-100 233-223 233-123 0-223-104-223-233 0-129 100-233 223-233"/><path d="m9178 9944c123 0 223 104 223 233 0 129-100 233-223 233-123 0-223-104-223-233 0-129 100-233 223-233"/><path d="m1031 10759c123 0 223 104 223 233 0 129-100 233-223 233-123 0-223-104-223-233 0-129 100-233 223-233"/><path d="m2286 10759c123 0 223 104 223 233 0 129-100 233-223 233-123 0-223-104-223-233 0-129 100-233 223-233"/><path d="m3542 10759c123 0 223 104 223 233 0 129-100 233-223 233-123 0-223-104-223-233 0-129 100-233 223-233"/><path d="m4797 10759c123 0 223 104 223 233 0 129-100 233-223 233-123 0-223-104-223-233 0-129 100-233 223-233"/><path d="m6053 10759c123 0 223 104 223 233 0 129-100 233-223 233-123 0-223-104-223-233 0-129 100-233 223-233"/><path d="m7308 10759c123 0 223 104 223 233 0 129-100 233-223 233-123 0-223-104-223-233 0-129 100-233 223-233"/><path d="m8564 10759c123 0 223 104 223 233 0 129-100 233-223 233-123 0-223-104-223-233 0-129 100-233 223-233"/><path d="m9819 10759c123 0 223 104 223 233 0 129-100 233-223 233-123 0-223-104-223-233 0-129 100-233 223-233"/><path d="m11075 10759c123 0 223 104 223 233 0 129-100 233-223 233-123 0-223-104-223-233 0-129 100-233 223-233"/><path d="m389 11457c123 0 223 104 223 233 0 129-100 233-223 233-123 0-223-104-223-233 0-129 100-233 223-233"/><path d="m1645 11457c123 0 223 104 223 233 0 129-100 233-223 233-123 0-223-104-223-233 0-129 100-233 223-233"/><path d="m2900 11457c123 0 223 104 223 233 0 129-100 233-223 233-123 0-223-104-223-233 0-129 100-233 223-233"/><path d="m4156 11457c123 0 223 104 223 233 0 129-100 233-223 233-123 0-223-104-223-233 0-129 100-233 223-233"/><path d="m5411 11457c123 0 223 104 223 233 0 129-100 233-223 233-123 0-223-104-223-233 0-129 100-233 223-233"/><path d="m6667 11457c123 0 223 104 223 233 0 129-100 233-223 233-123 0-223-104-223-233 0-129 100-233 223-233"/><path d="m7922 11457c123 0 223 104 223 233 0 129-100 233-223 233-123 0-223-104-223-233 0-129 100-233 223-233"/><path d="m9178 11457c123 0 223 104 223 233 0 129-100 233-223 233-123 0-223-104-223-233 0-129 100-233 223-233"/><path d="m1031 12273c123 0 223 104 223 233 0 129-100 233-223 233-123 0-223-104-223-233 0-129 100-233 223-233"/><path d="m2286 12273c123 0 223 104 223 233 0 129-100 233-223 233-123 0-223-104-223-233 0-129 100-233 223-233"/><path d="m3542 12273c123 0 223 104 223 233 0 129-100 233-223 233-123 0-223-104-223-233 0-129 100-233 223-233"/><path d="m4797 12273c123 0 223 104 223 233 0 129-100 233-223 233-123 0-223-104-223-233 0-129 100-233 223-233"/><path d="m6053 12273c123 0 223 104 223 233 0 129-100 233-223 233-123 0-223-104-223-233 0-129 100-233 223-233"/><path d="m7308 12273c123 0 223 104 223 233 0 129-100 233-223 233-123 0-223-104-223-233 0-129 100-233 223-233"/><path d="m8564 12273c123 0 223 104 223 233 0 129-100 233-223 233-123 0-223-104-223-233 0-129 100-233 223-233"/><path d="m9819 12273c123 0 223 104 223 233 0 129-100 233-223 233-123 0-223-104-223-233 0-129 100-233 223-233"/><path d="m11075 12273c123 0 223 104 223 233 0 129-100 233-223 233-123 0-223-104-223-233 0-129 100-233 223-233"/><path d="m389 12971c123 0 223 104 223 233 0 129-100 233-223 233-123 0-223-104-223-233 0-129 100-233 223-233"/><path d="m1645 12971c123 0 223 104 223 233 0 129-100 233-223 233-123 0-223-104-223-233 0-129 100-233 223-233"/><path d="m2900 12971c123 0 223 104 223 233 0 129-100 233-223 233-123 0-223-104-223-233 0-129 100-233 223-233"/><path d="m4156 12971c123 0 223 104 223 233 0 129-100 233-223 233-123 0-223-104-223-233 0-129 100-233 223-233"/><path d="m5411 12971c123 0 223 104 223 233 0 129-100 233-223 233-123 0-223-104-223-233 0-129 100-233 223-233"/><path d="m6667 12971c123 0 223 104 223 233 0 129-100 233-223 233-123 0-223-104-223-233 0-129 100-233 223-233"/><path d="m7922 12971c123 0 223 104 223 233 0 129-100 233-223 233-123 0-223-104-223-233 0-129 100-233 223-233"/><path d="m9178 12971c123 0 223 104 223 233 0 129-100 233-223 233-123 0-223-104-223-233 0-129 100-233 223-233"/><path d="m1031 13786c123 0 223 104 223 233 0 129-100 233-223 233-123 0-223-104-223-233 0-129 100-233 223-233"/><path d="m2286 13786c123 0 223 104 223 233 0 129-100 233-223 233-123 0-223-104-223-233 0-129 100-233 223-233"/><path d="m3542 13786c123 0 223 104 223 233 0 129-100 233-223 233-123 0-223-104-223-233 0-129 100-233 223-233"/><path d="m4797 13786c123 0 223 104 223 233 0 129-100 233-223 233-123 0-223-104-223-233 0-129 100-233 223-233"/><path d="m6053 13786c123 0 223 104 223 233 0 129-100 233-223 233-123 0-223-104-223-233 0-129 100-233 223-233"/><path d="m7308 13786c123 0 223 104 223 233 0 129-100 233-223 233-123 0-223-104-223-233 0-129 100-233 223-233"/><path d="m8564 13786c123 0 223 104 223 233 0 129-100 233-223 233-123 0-223-104-223-233 0-129 100-233 223-233"/><path d="m9819 13786c123 0 223 104 223 233 0 129-100 233-223 233-123 0-223-104-223-233 0-129 100-233 223-233"/><path d="m11075 13786c123 0 223 104 223 233 0 129-100 233-223 233-123 0-223-104-223-233 0-129 100-233 223-233"/><path d="m389 14485c123 0 223 104 223 233 0 129-100 233-223 233-123 0-223-104-223-233 0-129 100-233 223-233"/><path d="m1645 14485c123 0 223 104 223 233 0 129-100 233-223 233-123 0-223-104-223-233 0-129 100-233 223-233"/><path d="m2900 14485c123 0 223 104 223 233 0 129-100 233-223 233-123 0-223-104-223-233 0-129 100-233 223-233"/><path d="m4156 14485c123 0 223 104 223 233 0 129-100 233-223 233-123 0-223-104-223-233 0-129 100-233 223-233"/><path d="m5411 14485c123 0 223 104 223 233 0 129-100 233-223 233-123 0-223-104-223-233 0-129 100-233 223-233"/><path d="m6667 14485c123 0 223 104 223 233 0 129-100 233-223 233-123 0-223-104-223-233 0-129 100-233 223-233"/><path d="m7922 14485c123 0 223 104 223 233 0 129-100 233-223 233-123 0-223-104-223-233 0-129 100-233 223-233"/><path d="m9178 14485c123 0 223 104 223 233 0 129-100 233-223 233-123 0-223-104-223-233 0-129 100-233 223-233"/><path d="m1031 15300c123 0 223 104 223 233 0 129-100 233-223 233-123 0-223-104-223-233 0-129 100-233 223-233"/><path d="m2286 15300c123 0 223 104 223 233 0 129-100 233-223 233-123 0-223-104-223-233 0-129 100-233 223-233"/><path d="m3542 15300c123 0 223 104 223 233 0 129-100 233-223 233-123 0-223-104-223-233 0-129 100-233 223-233"/><path d="m4797 15300c123 0 223 104 223 233 0 129-100 233-223 233-123 0-223-104-223-233 0-129 100-233 223-233"/><path d="m6053 15300c123 0 223 104 223 233 0 129-100 233-223 233-123 0-223-104-223-233 0-129 100-233 223-233"/><path d="m7308 15300c123 0 223 104 223 233 0 129-100 233-223 233-123 0-223-104-223-233 0-129 100-233 223-233"/><path d="m8564 15300c123 0 223 104 223 233 0 129-100 233-223 233-123 0-223-104-223-233 0-129 100-233 223-233"/><path d="m9819 15300c123 0 223 104 223 233 0 129-100 233-223 233-123 0-223-104-223-233 0-129 100-233 223-233"/><path d="m11075 15300c123 0 223 104 223 233 0 129-100 233-223 233-123 0-223-104-223-233 0-129 100-233 223-233"/><path d="m389 15999c123 0 223 104 223 233 0 129-100 233-223 233-123 0-223-104-223-233 0-129 100-233 223-233"/><path d="m1645 15999c123 0 223 104 223 233 0 129-100 233-223 233-123 0-223-104-223-233 0-129 100-233 223-233"/><path d="m2900 15999c123 0 223 104 223 233 0 129-100 233-223 233-123 0-223-104-223-233 0-129 100-233 223-233"/><path d="m4156 15999c123 0 223 104 223 233 0 129-100 233-223 233-123 0-223-104-223-233 0-129 100-233 223-233"/><path d="m5411 15999c123 0 223 104 223 233 0 129-100 233-223 233-123 0-223-104-223-233 0-129 100-233 223-233"/><path d="m6667 15999c123 0 223 104 223 233 0 129-100 233-223 233-123 0-223-104-223-233 0-129 100-233 223-233"/><path d="m7922 15999c123 0 223 104 223 233 0 129-100 233-223 233-123 0-223-104-223-233 0-129 100-233 223-233"/><path d="m9178 15999c123 0 223 104 223 233 0 129-100 233-223 233-123 0-223-104-223-233 0-129 100-233 223-233"/><path d="m1031 16814c123 0 223 104 223 233 0 129-100 233-223 233-123 0-223-104-223-233 0-129 100-233 223-233"/><path d="m2286 16814c123 0 223 104 223 233 0 129-100 233-223 233-123 0-223-104-223-233 0-129 100-233 223-233"/><path d="m3542 16814c123 0 223 104 223 233 0 129-100 233-223 233-123 0-223-104-223-233 0-129 100-233 223-233"/><path d="m4797 16814c123 0 223 104 223 233 0 129-100 233-223 233-123 0-223-104-223-233 0-129 100-233 223-233"/><path d="m6053 16814c123 0 223 104 223 233 0 129-100 233-223 233-123 0-223-104-223-233 0-129 100-233 223-233"/><path d="m7308 16814c123 0 223 104 223 233 0 129-100 233-223 233-123 0-223-104-223-233 0-129 100-233 223-233"/><path d="m8564 16814c123 0 223 104 223 233 0 129-100 233-223 233-123 0-223-104-223-233 0-129 100-233 223-233"/><path d="m9819 16814c123 0 223 104 223 233 0 129-100 233-223 233-123 0-223-104-223-233 0-129 100-233 223-233"/><path d="m11075 16814c123 0 223 104 223 233 0 129-100 233-223 233-123 0-223-104-223-233 0-129 100-233 223-233"/><path d="m389 17513c123 0 223 104 223 233 0 129-100 233-223 233-123 0-223-104-223-233 0-129 100-233 223-233"/><path d="m1645 17513c123 0 223 104 223 233 0 129-100 233-223 233-123 0-223-104-223-233 0-129 100-233 223-233"/><path d="m2900 17513c123 0 223 104 223 233 0 129-100 233-223 233-123 0-223-104-223-233 0-129 100-233 223-233"/><path d="m4156 17513c123 0 223 104 223 233 0 129-100 233-223 233-123 0-223-104-223-233 0-129 100-233 223-233"/><path d="m5411 17513c123 0 223 104 223 233 0 129-100 233-223 233-123 0-223-104-223-233 0-129 100-233 223-233"/><path d="m6667 17513c123 0 223 104 223 233 0 129-100 233-223 233-123 0-223-104-223-233 0-129 100-233 223-233"/><path d="m7922 17513c123 0 223 104 223 233 0 129-100 233-223 233-123 0-223-104-223-233 0-129 100-233 223-233"/><path d="m9178 17513c123 0 223 104 223 233 0 129-100 233-223 233-123 0-223-104-223-233 0-129 100-233 223-233"/><path d="m1031 18328c123 0 223 104 223 233 0 129-100 233-223 233-123 0-223-104-223-233 0-129 100-233 223-233"/><path d="m2286 18328c123 0 223 104 223 233 0 129-100 233-223 233-123 0-223-104-223-233 0-129 100-233 223-233"/><path d="m3542 18328c123 0 223 104 223 233 0 129-100 233-223 233-123 0-223-104-223-233 0-129 100-233 223-233"/><path d="m4797 18328c123 0 223 104 223 233 0 129-100 233-223 233-123 0-223-104-223-233 0-129 100-233 223-233"/><path d="m6053 18328c123 0 223 104 223 233 0 129-100 233-223 233-123 0-223-104-223-233 0-129 100-233 223-233"/><path d="m7308 18328c123 0 223 104 223 233 0 129-100 233-223 233-123 0-223-104-223-233 0-129 100-233 223-233"/><path d="m8564 18328c123 0 223 104 223 233 0 129-100 233-223 233-123 0-223-104-223-233 0-129 100-233 223-233"/><path d="m9819 18328c123 0 223 104 223 233 0 129-100 233-223 233-123 0-223-104-223-233 0-129 100-233 223-233"/><path d="m11075 18328c123 0 223 104 223 233 0 129-100 233-223 233-123 0-223-104-223-233 0-129 100-233 223-233"/><path d="m389 19027c123 0 223 104 223 233 0 129-100 233-223 233-123 0-223-104-223-233 0-129 100-233 223-233"/><path d="m1645 19027c123 0 223 104 223 233 0 129-100 233-223 233-123 0-223-104-223-233 0-129 100-233 223-233"/><path d="m2900 19027c123 0 223 104 223 233 0 129-100 233-223 233-123 0-223-104-223-233 0-129 100-233 223-233"/><path d="m4156 19027c123 0 223 104 223 233 0 129-100 233-223 233-123 0-223-104-223-233 0-129 100-233 223-233"/><path d="m5411 19027c123 0 223 104 223 233 0 129-100 233-223 233-123 0-223-104-223-233 0-129 100-233 223-233"/><path d="m6667 19027c123 0 223 104 223 233 0 129-100 233-223 233-123 0-223-104-223-233 0-129 100-233 223-233"/><path d="m7922 19027c123 0 223 104 223 233 0 129-100 233-223 233-123 0-223-104-223-233 0-129 100-233 223-233"/><path d="m9178 19027c123 0 223 104 223 233 0 129-100 233-223 233-123 0-223-104-223-233 0-129 100-233 223-233"/><path d="m1031 19842c123 0 223 104 223 233 0 129-100 233-223 233-123 0-223-104-223-233 0-129 100-233 223-233"/><path d="m2286 19842c123 0 223 104 223 233 0 129-100 233-223 233-123 0-223-104-223-233 0-129 100-233 223-233"/><path d="m3542 19842c123 0 223 104 223 233 0 129-100 233-223 233-123 0-223-104-223-233 0-129 100-233 223-233"/><path d="m4797 19842c123 0 223 104 223 233 0 129-100 233-223 233-123 0-223-104-223-233 0-129 100-233 223-233"/><path d="m6053 19842c123 0 223 104 223 233 0 129-100 233-223 233-123 0-223-104-223-233 0-129 100-233 223-233"/><path d="m7308 19842c123 0 223 104 223 233 0 129-100 233-223 233-123 0-223-104-223-233 0-129 100-233 223-233"/><path d="m8564 19842c123 0 223 104 223 233 0 129-100 233-223 233-123 0-223-104-223-233 0-129 100-233 223-233"/><path d="m9819 19842c123 0 223 104 223 233 0 129-100 233-223 233-123 0-223-104-223-233 0-129 100-233 223-233"/><path d="m11075 19842c123 0 223 104 223 233 0 129-100 233-223 233-123 0-223-104-223-233 0-129 100-233 223-233"/><path d="m389 20540c123 0 223 104 223 233 0 129-100 233-223 233-123 0-223-104-223-233 0-129 100-233 223-233"/><path d="m1645 20540c123 0 223 104 223 233 0 129-100 233-223 233-123 0-223-104-223-233 0-129 100-233 223-233"/><path d="m2900 20540c123 0 223 104 223 233 0 129-100 233-223 233-123 0-223-104-223-233 0-129 100-233 223-233"/><path d="m4156 20540c123 0 223 104 223 233 0 129-100 233-223 233-123 0-223-104-223-233 0-129 100-233 223-233"/><path d="m5411 20540c123 0 223 104 223 233 0 129-100 233-223 233-123 0-223-104-223-233 0-129 100-233 223-233"/><path d="m6667 20540c123 0 223 104 223 233 0 129-100 233-223 233-123 0-223-104-223-233 0-129 100-233 223-233"/><path d="m7922 20540c123 0 223 104 223 233 0 129-100 233-223 233-123 0-223-104-223-233 0-129 100-233 223-233"/><path d="m9178 20540c123 0 223 104 223 233 0 129-100 233-223 233-123 0-223-104-223-233 0-129 100-233 223-233"/><path d="m1031 21356c123 0 223 104 223 233 0 129-100 233-223 233-123 0-223-104-223-233 0-129 100-233 223-233"/><path d="m2286 21356c123 0 223 104 223 233 0 129-100 233-223 233-123 0-223-104-223-233 0-129 100-233 223-233"/><path d="m3542 21356c123 0 223 104 223 233 0 129-100 233-223 233-123 0-223-104-223-233 0-129 100-233 223-233"/><path d="m4797 21356c123 0 223 104 223 233 0 129-100 233-223 233-123 0-223-104-223-233 0-129 100-233 223-233"/><path d="m6053 21356c123 0 223 104 223 233 0 129-100 233-223 233-123 0-223-104-223-233 0-129 100-233 223-233"/><path d="m7308 21356c123 0 223 104 223 233 0 129-100 233-223 233-123 0-223-104-223-233 0-129 100-233 223-233"/><path d="m8564 21356c123 0 223 104 223 233 0 129-100 233-223 233-123 0-223-104-223-233 0-129 100-233 223-233"/><path d="m9819 21356c123 0 223 104 223 233 0 129-100 233-223 233-123 0-223-104-223-233 0-129 100-233 223-233"/><path d="m11075 21356c123 0 223 104 223 233 0 129-100 233-223 233-123 0-223-104-223-233 0-129 100-233 223-233"/><path d="m389 22054c123 0 223 104 223 233 0 129-100 233-223 233-123 0-223-104-223-233 0-129 100-233 223-233"/><path d="m1645 22054c123 0 223 104 223 233 0 129-100 233-223 233-123 0-223-104-223-233 0-129 100-233 223-233"/><path d="m2900 22054c123 0 223 104 223 233 0 129-100 233-223 233-123 0-223-104-223-233 0-129 100-233 223-233"/><path d="m4156 22054c123 0 223 104 223 233 0 129-100 233-223 233-123 0-223-104-223-233 0-129 100-233 223-233"/><path d="m5411 22054c123 0 223 104 223 233 0 129-100 233-223 233-123 0-223-104-223-233 0-129 100-233 223-233"/><path d="m6667 22054c123 0 223 104 223 233 0 129-100 233-223 233-123 0-223-104-223-233 0-129 100-233 223-233"/><path d="m7922 22054c123 0 223 104 223 233 0 129-100 233-223 233-123 0-223-104-223-233 0-129 100-233 223-233"/><path d="m9178 22054c123 0 223 104 223 233 0 129-100 233-223 233-123 0-223-104-223-233 0-129 100-233 223-233"/><path d="m1031 22869c123 0 223 104 223 233 0 129-100 233-223 233-123 0-223-104-223-233 0-129 100-233 223-233"/><path d="m2286 22869c123 0 223 104 223 233 0 129-100 233-223 233-123 0-223-104-223-233 0-129 100-233 223-233"/><path d="m3542 22869c123 0 223 104 223 233 0 129-100 233-223 233-123 0-223-104-223-233 0-129 100-233 223-233"/><path d="m4797 22869c123 0 223 104 223 233 0 129-100 233-223 233-123 0-223-104-223-233 0-129 100-233 223-233"/><path d="m6053 22869c123 0 223 104 223 233 0 129-100 233-223 233-123 0-223-104-223-233 0-129 100-233 223-233"/><path d="m7308 22869c123 0 223 104 223 233 0 129-100 233-223 233-123 0-223-104-223-233 0-129 100-233 223-233"/><path d="m8564 22869c123 0 223 104 223 233 0 129-100 233-223 233-123 0-223-104-223-233 0-129 100-233 223-233"/><path d="m9819 22869c123 0 223 104 223 233 0 129-100 233-223 233-123 0-223-104-223-233 0-129 100-233 223-233"/><path d="m11075 22869c123 0 223 104 223 233 0 129-100 233-223 233-123 0-223-104-223-233 0-129 100-233 223-233"/><path d="m389 23568c123 0 223 104 223 233 0 129-100 233-223 233-123 0-223-104-223-233 0-129 100-233 223-233"/><path d="m1645 23568c123 0 223 104 223 233 0 129-100 233-223 233-123 0-223-104-223-233 0-129 100-233 223-233"/><path d="m2900 23568c123 0 223 104 223 233 0 129-100 233-223 233-123 0-223-104-223-233 0-129 100-233 223-233"/><path d="m4156 23568c123 0 223 104 223 233 0 129-100 233-223 233-123 0-223-104-223-233 0-129 100-233 223-233"/><path d="m5411 23568c123 0 223 104 223 233 0 129-100 233-223 233-123 0-223-104-223-233 0-129 100-233 223-233"/><path d="m6667 23568c123 0 223 104 223 233 0 129-100 233-223 233-123 0-223-104-223-233 0-129 100-233 223-233"/><path d="m7922 23568c123 0 223 104 223 233 0 129-100 233-223 233-123 0-223-104-223-233 0-129 100-233 223-233"/><path d="m9178 23568c123 0 223 104 223 233 0 129-100 233-223 233-123 0-223-104-223-233 0-129 100-233 223-233"/><path d="m1031 24383c123 0 223 104 223 233 0 129-100 233-223 233-123 0-223-104-223-233 0-129 100-233 223-233"/><path d="m2286 24383c123 0 223 104 223 233 0 129-100 233-223 233-123 0-223-104-223-233 0-129 100-233 223-233"/><path d="m3542 24383c123 0 223 104 223 233 0 129-100 233-223 233-123 0-223-104-223-233 0-129 100-233 223-233"/><path d="m4797 24383c123 0 223 104 223 233 0 129-100 233-223 233-123 0-223-104-223-233 0-129 100-233 223-233"/><path d="m6053 24383c123 0 223 104 223 233 0 129-100 233-223 233-123 0-223-104-223-233 0-129 100-233 223-233"/><path d="m7308 24383c123 0 223 104 223 233 0 129-100 233-223 233-123 0-223-104-223-233 0-129 100-233 223-233"/><path d="m8564 24383c123 0 223 104 223 233 0 129-100 233-223 233-123 0-223-104-223-233 0-129 100-233 223-233"/><path d="m9819 24383c123 0 223 104 223 233 0 129-100 233-223 233-123 0-223-104-223-233 0-129 100-233 223-233"/><path d="m11075 24383c123 0 223 104 223 233 0 129-100 233-223 233-123 0-223-104-223-233 0-129 100-233 223-233"/><path d="m389 25082c123 0 223 104 223 233 0 129-100 233-223 233-123 0-223-104-223-233 0-129 100-233 223-233"/><path d="m1645 25082c123 0 223 104 223 233 0 129-100 233-223 233-123 0-223-104-223-233 0-129 100-233 223-233"/><path d="m2900 25082c123 0 223 104 223 233 0 129-100 233-223 233-123 0-223-104-223-233 0-129 100-233 223-233"/><path d="m4156 25082c123 0 223 104 223 233 0 129-100 233-223 233-123 0-223-104-223-233 0-129 100-233 223-233"/><path d="m5411 25082c123 0 223 104 223 233 0 129-100 233-223 233-123 0-223-104-223-233 0-129 100-233 223-233"/><path d="m6667 25082c123 0 223 104 223 233 0 129-100 233-223 233-123 0-223-104-223-233 0-129 100-233 223-233"/><path d="m7922 25082c123 0 223 104 223 233 0 129-100 233-223 233-123 0-223-104-223-233 0-129 100-233 223-233"/><path d="m9178 25082c123 0 223 104 223 233 0 129-100 233-223 233-123 0-223-104-223-233 0-129 100-233 223-233"/><path d="m1031 25897c123 0 223 104 223 233 0 129-100 233-223 233-123 0-223-104-223-233 0-129 100-233 223-233"/><path d="m2286 25897c123 0 223 104 223 233 0 129-100 233-223 233-123 0-223-104-223-233 0-129 100-233 223-233"/><path d="m3542 25897c123 0 223 104 223 233 0 129-100 233-223 233-123 0-223-104-223-233 0-129 100-233 223-233"/><path d="m4797 25897c123 0 223 104 223 233 0 129-100 233-223 233-123 0-223-104-223-233 0-129 100-233 223-233"/><path d="m6053 25897c123 0 223 104 223 233 0 129-100 233-223 233-123 0-223-104-223-233 0-129 100-233 223-233"/><path d="m7308 25897c123 0 223 104 223 233 0 129-100 233-223 233-123 0-223-104-223-233 0-129 100-233 223-233"/><path d="m8564 25897c123 0 223 104 223 233 0 129-100 233-223 233-123 0-223-104-223-233 0-129 100-233 223-233"/><path d="m9819 25897c123 0 223 104 223 233 0 129-100 233-223 233-123 0-223-104-223-233 0-129 100-233 223-233"/><path d="m11075 25897c123 0 223 104 223 233 0 129-100 233-223 233-123 0-223-104-223-233 0-129 100-233 223-233"/><path d="m389 26596c123 0 223 104 223 233 0 129-100 233-223 233-123 0-223-104-223-233 0-129 100-233 223-233"/><path d="m1645 26596c123 0 223 104 223 233 0 129-100 233-223 233-123 0-223-104-223-233 0-129 100-233 223-233"/><path d="m2900 26596c123 0 223 104 223 233 0 129-100 233-223 233-123 0-223-104-223-233 0-129 100-233 223-233"/><path d="m4156 26596c123 0 223 104 223 233 0 129-100 233-223 233-123 0-223-104-223-233 0-129 100-233 223-233"/><path d="m5411 26596c123 0 223 104 223 233 0 129-100 233-223 233-123 0-223-104-223-233 0-129 100-233 223-233"/><path d="m6667 26596c123 0 223 104 223 233 0 129-100 233-223 233-123 0-223-104-223-233 0-129 100-233 223-233"/><path d="m7922 26596c123 0 223 104 223 233 0 129-100 233-223 233-123 0-223-104-223-233 0-129 100-233 223-233"/><path d="m9178 26596c123 0 223 104 223 233 0 129-100 233-223 233-123 0-223-104-223-233 0-129 100-233 223-233"/></g><g><use xlink:href="#2"/><use xlink:href="#3"/><use xlink:href="#4"/><use xlink:href="#5"/><use xlink:href="#6"/><use xlink:href="#7"/><use xlink:href="#8"/><use xlink:href="#9"/></g></g></g><g font-family="&apos;Harrington&apos;" font-size="1558.73" transform="matrix(.95837 0 0 1-8010.45 7447.83)"><text x="10500" y="14850" fill="#fff" stroke="#fff" stroke-linejoin="round" stroke-linecap="round" stroke-width="300">Texto 01</text><text x="10500" y="14850" fill="#201e1e" stroke="#201e1e" stroke-width="75">Texto 01</text></g><rect x="4038" y="18955" width="1535" height="600" rx="767.5" ry="300" fill="#fff" stroke="#fff" stroke-width="7.62"/><text x="10500" y="14850" fill="#201e1e" font-family="&apos;Arial Black&apos;" font-weight="900" font-size="582.22" transform="matrix(.95837 0 0 1-5973.39 4616.42)">NN 1</text><g font-family="&apos;Harrington&apos;" stroke-linejoin="round" stroke-linecap="round"><text x="10500" y="14850" fill="#fff" stroke="#fff" stroke-width="400" font-size="665.29" transform="matrix(1.31102 0 0 1-10957.7 9090.85)">00.00.0000</text><g font-size="611.35"><text x="10500" y="14850" fill="#201e1e" stroke="#201e1e" stroke-width="75" transform="matrix(1.04788 0 0 1-7800.2 9057.3)">00.00.0000</text><text x="10500" y="14850" fill="#fff" stroke="#fff" stroke-width="400" transform="matrix(1.36773 0 0 1-42.1 9136.68)">00.00.0000</text><text x="10500" y="14850" fill="#201e1e" stroke="#201e1e" stroke-width="75" transform="matrix(1.04788 0 0 1 3848.1 9136.68)">00.00.0000</text></g></g><g fill="#373435" font-family="&apos;Arial&apos;" font-size="423.33"><text x="1447" y="28255">DESC 2</text><text x="1447" y="27691">DESC 1</text><text x="1447" y="28784">DESC 3</text></g></svg>