<svg xmlns="http://www.w3.org/2000/svg" width="744.09" height="1052.36" viewBox="0 0 21000 29700" shape-rendering="geometricPrecision" image-rendering="optimizeQuality" fill-rule="evenodd" clip-rule="evenodd"><defs><clipPath id="0"><path d="m14334 26812c1334 682 3868 551 4637-712 767-1258 593-4827 666-6577 182-4382 643-7705 762-11239 132-3924-2407-6519-5442-7249-4282-1031-4028 5008-3434 8112 312 1667 929 3119 1322 4749 725 3007 68 7597 320 10727 129 1082 472 1799 1168 2189z"/></clipPath><clipPath id="1"><path d="m6582 26812c-1334 682-3868 551-4637-712-767-1258-593-4827-666-6577-182-4382-643-7705-762-11239-132-3924 2407-6519 5442-7249 4282-1031 4028 5008 3434 8112-312 1667-929 3119-1322 4749-725 3007-68 7597-320 10727-129 1082-472 1799-1168 2189z"/></clipPath></defs><text x="10081" y="23623" fill="#201e1e" font-family="&apos;Arial Black&apos;" stroke="#201e1e" font-weight="900" stroke-width="7.62" font-size="705.56">42</text><g fill="none" stroke="#373435" stroke-width="80"><circle cx="10533" cy="1326" r="460"/><path d="m10533 515v1621"/><path d="m9723 1326h1621"/><circle cx="10533" cy="24995" r="460"/><path d="m10533 24184v1621"/><path d="m9723 24995h1621"/></g><g fill="#fff"><rect x="9508" y="21571" width="1347" height="637" rx="318" stroke="#fff" stroke-width="20"/><path d="m14334 26812c1334 682 3868 551 4637-712 767-1258 593-4827 666-6577 182-4382 643-7705 762-11239 132-3924-2407-6519-5442-7249-4282-1031-4028 5008-3434 8112 312 1667 929 3119 1322 4749 725 3007 68 7597 320 10727 129 1082 472 1799 1168 2189z"/></g><g clip-path="url(#0)"><g><g fill="#201e1e"><path d="m20964 97c-132 0-239 114-239 255 0 141 107 255 239 255 132 0 239-114 239-255 0-141-107-255-239-255"/><path d="m19620 97c-132 0-239 114-239 255 0 141 107 255 239 255 132 0 239-114 239-255 0-141-107-255-239-255"/><path d="m18277 97c-132 0-239 114-239 255 0 141 107 255 239 255 132 0 239-114 239-255 0-141-107-255-239-255"/><path d="m16933 97c-132 0-239 114-239 255 0 141 107 255 239 255 132 0 239-114 239-255 0-141-107-255-239-255"/><path d="m15590 97c-132 0-239 114-239 255 0 141 107 255 239 255 132 0 239-114 239-255 0-141-107-255-239-255"/><path d="m14246 97c-132 0-239 114-239 255 0 141 107 255 239 255 132 0 239-114 239-255 0-141-107-255-239-255"/><path d="m12903 97c-132 0-239 114-239 255 0 141 107 255 239 255 132 0 239-114 239-255 0-141-107-255-239-255"/><path d="m11559 97c-132 0-239 114-239 255 0 141 107 255 239 255 132 0 239-114 239-255 0-141-107-255-239-255"/><path d="m20277 990c-132 0-239 114-239 255 0 141 107 255 239 255 132 0 239-114 239-255 0-141-107-255-239-255"/><path d="m18934 990c-132 0-239 114-239 255 0 141 107 255 239 255 132 0 239-114 239-255 0-141-107-255-239-255"/><path d="m17590 990c-132 0-239 114-239 255 0 141 107 255 239 255 132 0 239-114 239-255 0-141-107-255-239-255"/><path d="m16247 990c-132 0-239 114-239 255 0 141 107 255 239 255 132 0 239-114 239-255 0-141-107-255-239-255"/><path d="m14903 990c-132 0-239 114-239 255 0 141 107 255 239 255 132 0 239-114 239-255 0-141-107-255-239-255"/><path d="m13560 990c-132 0-239 114-239 255 0 141 107 255 239 255 132 0 239-114 239-255 0-141-107-255-239-255"/><path d="m12216 990c-132 0-239 114-239 255 0 141 107 255 239 255 132 0 239-114 239-255 0-141-107-255-239-255"/><path d="m10872 990c-132 0-239 114-239 255 0 141 107 255 239 255 132 0 239-114 239-255 0-141-107-255-239-255"/><path d="m9529 990c-132 0-239 114-239 255 0 141 107 255 239 255 132 0 239-114 239-255 0-141-107-255-239-255"/><path d="m20964 1755c-132 0-239 114-239 255 0 141 107 255 239 255 132 0 239-114 239-255 0-141-107-255-239-255"/><path d="m19620 1755c-132 0-239 114-239 255 0 141 107 255 239 255 132 0 239-114 239-255 0-141-107-255-239-255"/><path d="m18277 1755c-132 0-239 114-239 255 0 141 107 255 239 255 132 0 239-114 239-255 0-141-107-255-239-255"/><path d="m16933 1755c-132 0-239 114-239 255 0 141 107 255 239 255 132 0 239-114 239-255 0-141-107-255-239-255"/><path d="m15590 1755c-132 0-239 114-239 255 0 141 107 255 239 255 132 0 239-114 239-255 0-141-107-255-239-255"/><path d="m14246 1755c-132 0-239 114-239 255 0 141 107 255 239 255 132 0 239-114 239-255 0-141-107-255-239-255"/><path d="m12903 1755c-132 0-239 114-239 255 0 141 107 255 239 255 132 0 239-114 239-255 0-141-107-255-239-255"/><path d="m11559 1755c-132 0-239 114-239 255 0 141 107 255 239 255 132 0 239-114 239-255 0-141-107-255-239-255"/><path d="m20277 2649c-132 0-239 114-239 255 0 141 107 255 239 255 132 0 239-114 239-255 0-141-107-255-239-255"/><path d="m18934 2649c-132 0-239 114-239 255 0 141 107 255 239 255 132 0 239-114 239-255 0-141-107-255-239-255"/><path d="m17590 2649c-132 0-239 114-239 255 0 141 107 255 239 255 132 0 239-114 239-255 0-141-107-255-239-255"/><path d="m16247 2649c-132 0-239 114-239 255 0 141 107 255 239 255 132 0 239-114 239-255 0-141-107-255-239-255"/><path d="m14903 2649c-132 0-239 114-239 255 0 141 107 255 239 255 132 0 239-114 239-255 0-141-107-255-239-255"/><path d="m13560 2649c-132 0-239 114-239 255 0 141 107 255 239 255 132 0 239-114 239-255 0-141-107-255-239-255"/><path d="m12216 2649c-132 0-239 114-239 255 0 141 107 255 239 255 132 0 239-114 239-255 0-141-107-255-239-255"/><path d="m10872 2649c-132 0-239 114-239 255 0 141 107 255 239 255 132 0 239-114 239-255 0-141-107-255-239-255"/><path d="m9529 2649c-132 0-239 114-239 255 0 141 107 255 239 255 132 0 239-114 239-255 0-141-107-255-239-255"/><path d="m20964 3414c-132 0-239 114-239 255 0 141 107 255 239 255 132 0 239-114 239-255 0-141-107-255-239-255"/><path d="m19620 3414c-132 0-239 114-239 255 0 141 107 255 239 255 132 0 239-114 239-255 0-141-107-255-239-255"/><path d="m18277 3414c-132 0-239 114-239 255 0 141 107 255 239 255 132 0 239-114 239-255 0-141-107-255-239-255"/><path d="m16933 3414c-132 0-239 114-239 255 0 141 107 255 239 255 132 0 239-114 239-255 0-141-107-255-239-255"/><path d="m15590 3414c-132 0-239 114-239 255 0 141 107 255 239 255 132 0 239-114 239-255 0-141-107-255-239-255"/><path d="m14246 3414c-132 0-239 114-239 255 0 141 107 255 239 255 132 0 239-114 239-255 0-141-107-255-239-255"/><path d="m12903 3414c-132 0-239 114-239 255 0 141 107 255 239 255 132 0 239-114 239-255 0-141-107-255-239-255"/><path d="m11559 3414c-132 0-239 114-239 255 0 141 107 255 239 255 132 0 239-114 239-255 0-141-107-255-239-255"/><path d="m20277 4307c-132 0-239 114-239 255 0 141 107 255 239 255 132 0 239-114 239-255 0-141-107-255-239-255"/><path d="m18934 4307c-132 0-239 114-239 255 0 141 107 255 239 255 132 0 239-114 239-255 0-141-107-255-239-255"/><path d="m17590 4307c-132 0-239 114-239 255 0 141 107 255 239 255 132 0 239-114 239-255 0-141-107-255-239-255"/><path d="m16247 4307c-132 0-239 114-239 255 0 141 107 255 239 255 132 0 239-114 239-255 0-141-107-255-239-255"/><path d="m14903 4307c-132 0-239 114-239 255 0 141 107 255 239 255 132 0 239-114 239-255 0-141-107-255-239-255"/><path d="m13560 4307c-132 0-239 114-239 255 0 141 107 255 239 255 132 0 239-114 239-255 0-141-107-255-239-255"/><path d="m12216 4307c-132 0-239 114-239 255 0 141 107 255 239 255 132 0 239-114 239-255 0-141-107-255-239-255"/><path d="m10872 4307c-132 0-239 114-239 255 0 141 107 255 239 255 132 0 239-114 239-255 0-141-107-255-239-255"/><path d="m9529 4307c-132 0-239 114-239 255 0 141 107 255 239 255 132 0 239-114 239-255 0-141-107-255-239-255"/><path d="m20964 5073c-132 0-239 114-239 255 0 141 107 255 239 255 132 0 239-114 239-255 0-141-107-255-239-255"/><path d="m19620 5073c-132 0-239 114-239 255 0 141 107 255 239 255 132 0 239-114 239-255 0-141-107-255-239-255"/><path d="m18277 5073c-132 0-239 114-239 255 0 141 107 255 239 255 132 0 239-114 239-255 0-141-107-255-239-255"/><path d="m16933 5073c-132 0-239 114-239 255 0 141 107 255 239 255 132 0 239-114 239-255 0-141-107-255-239-255"/><path d="m15590 5073c-132 0-239 114-239 255 0 141 107 255 239 255 132 0 239-114 239-255 0-141-107-255-239-255"/><path d="m14246 5073c-132 0-239 114-239 255 0 141 107 255 239 255 132 0 239-114 239-255 0-141-107-255-239-255"/><path d="m12903 5073c-132 0-239 114-239 255 0 141 107 255 239 255 132 0 239-114 239-255 0-141-107-255-239-255"/><path d="m11559 5073c-132 0-239 114-239 255 0 141 107 255 239 255 132 0 239-114 239-255 0-141-107-255-239-255"/><path d="m20277 5966c-132 0-239 114-239 255 0 141 107 255 239 255 132 0 239-114 239-255 0-141-107-255-239-255"/><path d="m18934 5966c-132 0-239 114-239 255 0 141 107 255 239 255 132 0 239-114 239-255 0-141-107-255-239-255"/><path d="m17590 5966c-132 0-239 114-239 255 0 141 107 255 239 255 132 0 239-114 239-255 0-141-107-255-239-255"/><path d="m16247 5966c-132 0-239 114-239 255 0 141 107 255 239 255 132 0 239-114 239-255 0-141-107-255-239-255"/><path d="m14903 5966c-132 0-239 114-239 255 0 141 107 255 239 255 132 0 239-114 239-255 0-141-107-255-239-255"/><path d="m13560 5966c-132 0-239 114-239 255 0 141 107 255 239 255 132 0 239-114 239-255 0-141-107-255-239-255"/><path d="m12216 5966c-132 0-239 114-239 255 0 141 107 255 239 255 132 0 239-114 239-255 0-141-107-255-239-255"/><path d="m10872 5966c-132 0-239 114-239 255 0 141 107 255 239 255 132 0 239-114 239-255 0-141-107-255-239-255"/><path d="m9529 5966c-132 0-239 114-239 255 0 141 107 255 239 255 132 0 239-114 239-255 0-141-107-255-239-255"/><path d="m20964 6732c-132 0-239 114-239 255 0 141 107 255 239 255 132 0 239-114 239-255 0-141-107-255-239-255"/><path d="m19620 6732c-132 0-239 114-239 255 0 141 107 255 239 255 132 0 239-114 239-255 0-141-107-255-239-255"/><path d="m18277 6732c-132 0-239 114-239 255 0 141 107 255 239 255 132 0 239-114 239-255 0-141-107-255-239-255"/><path d="m16933 6732c-132 0-239 114-239 255 0 141 107 255 239 255 132 0 239-114 239-255 0-141-107-255-239-255"/><path d="m15590 6732c-132 0-239 114-239 255 0 141 107 255 239 255 132 0 239-114 239-255 0-141-107-255-239-255"/><path d="m14246 6732c-132 0-239 114-239 255 0 141 107 255 239 255 132 0 239-114 239-255 0-141-107-255-239-255"/><path d="m12903 6732c-132 0-239 114-239 255 0 141 107 255 239 255 132 0 239-114 239-255 0-141-107-255-239-255"/><path d="m11559 6732c-132 0-239 114-239 255 0 141 107 255 239 255 132 0 239-114 239-255 0-141-107-255-239-255"/><path d="m20277 7625c-132 0-239 114-239 255 0 141 107 255 239 255 132 0 239-114 239-255 0-141-107-255-239-255"/><path d="m18934 7625c-132 0-239 114-239 255 0 141 107 255 239 255 132 0 239-114 239-255 0-141-107-255-239-255"/><path d="m17590 7625c-132 0-239 114-239 255 0 141 107 255 239 255 132 0 239-114 239-255 0-141-107-255-239-255"/><path d="m16247 7625c-132 0-239 114-239 255 0 141 107 255 239 255 132 0 239-114 239-255 0-141-107-255-239-255"/><path d="m14903 7625c-132 0-239 114-239 255 0 141 107 255 239 255 132 0 239-114 239-255 0-141-107-255-239-255"/><path d="m13560 7625c-132 0-239 114-239 255 0 141 107 255 239 255 132 0 239-114 239-255 0-141-107-255-239-255"/><path d="m12216 7625c-132 0-239 114-239 255 0 141 107 255 239 255 132 0 239-114 239-255 0-141-107-255-239-255"/><path d="m10872 7625c-132 0-239 114-239 255 0 141 107 255 239 255 132 0 239-114 239-255 0-141-107-255-239-255"/><path d="m9529 7625c-132 0-239 114-239 255 0 141 107 255 239 255 132 0 239-114 239-255 0-141-107-255-239-255"/><path d="m20964 8391c-132 0-239 114-239 255 0 141 107 255 239 255 132 0 239-114 239-255 0-141-107-255-239-255"/><path d="m19620 8391c-132 0-239 114-239 255 0 141 107 255 239 255 132 0 239-114 239-255 0-141-107-255-239-255"/><path d="m18277 8391c-132 0-239 114-239 255 0 141 107 255 239 255 132 0 239-114 239-255 0-141-107-255-239-255"/><path d="m16933 8391c-132 0-239 114-239 255 0 141 107 255 239 255 132 0 239-114 239-255 0-141-107-255-239-255"/><path d="m15590 8391c-132 0-239 114-239 255 0 141 107 255 239 255 132 0 239-114 239-255 0-141-107-255-239-255"/><path d="m14246 8391c-132 0-239 114-239 255 0 141 107 255 239 255 132 0 239-114 239-255 0-141-107-255-239-255"/><path d="m12903 8391c-132 0-239 114-239 255 0 141 107 255 239 255 132 0 239-114 239-255 0-141-107-255-239-255"/><path d="m11559 8391c-132 0-239 114-239 255 0 141 107 255 239 255 132 0 239-114 239-255 0-141-107-255-239-255"/><path d="m20277 9284c-132 0-239 114-239 255 0 141 107 255 239 255 132 0 239-114 239-255 0-141-107-255-239-255"/><path d="m18934 9284c-132 0-239 114-239 255 0 141 107 255 239 255 132 0 239-114 239-255 0-141-107-255-239-255"/><path d="m17590 9284c-132 0-239 114-239 255 0 141 107 255 239 255 132 0 239-114 239-255 0-141-107-255-239-255"/><path d="m16247 9284c-132 0-239 114-239 255 0 141 107 255 239 255 132 0 239-114 239-255 0-141-107-255-239-255"/><path d="m14903 9284c-132 0-239 114-239 255 0 141 107 255 239 255 132 0 239-114 239-255 0-141-107-255-239-255"/><path d="m13560 9284c-132 0-239 114-239 255 0 141 107 255 239 255 132 0 239-114 239-255 0-141-107-255-239-255"/><path d="m12216 9284c-132 0-239 114-239 255 0 141 107 255 239 255 132 0 239-114 239-255 0-141-107-255-239-255"/><path d="m10872 9284c-132 0-239 114-239 255 0 141 107 255 239 255 132 0 239-114 239-255 0-141-107-255-239-255"/><path d="m9529 9284c-132 0-239 114-239 255 0 141 107 255 239 255 132 0 239-114 239-255 0-141-107-255-239-255"/><path d="m20964 10049c-132 0-239 114-239 255 0 141 107 255 239 255 132 0 239-114 239-255 0-141-107-255-239-255"/><path d="m19620 10049c-132 0-239 114-239 255 0 141 107 255 239 255 132 0 239-114 239-255 0-141-107-255-239-255"/><path d="m18277 10049c-132 0-239 114-239 255 0 141 107 255 239 255 132 0 239-114 239-255 0-141-107-255-239-255"/><path d="m16933 10049c-132 0-239 114-239 255 0 141 107 255 239 255 132 0 239-114 239-255 0-141-107-255-239-255"/><path d="m15590 10049c-132 0-239 114-239 255 0 141 107 255 239 255 132 0 239-114 239-255 0-141-107-255-239-255"/><path d="m14246 10049c-132 0-239 114-239 255 0 141 107 255 239 255 132 0 239-114 239-255 0-141-107-255-239-255"/><path d="m12903 10049c-132 0-239 114-239 255 0 141 107 255 239 255 132 0 239-114 239-255 0-141-107-255-239-255"/><path d="m11559 10049c-132 0-239 114-239 255 0 141 107 255 239 255 132 0 239-114 239-255 0-141-107-255-239-255"/><path d="m20277 10943c-132 0-239 114-239 255 0 141 107 255 239 255 132 0 239-114 239-255 0-141-107-255-239-255"/><path d="m18934 10943c-132 0-239 114-239 255 0 141 107 255 239 255 132 0 239-114 239-255 0-141-107-255-239-255"/><path d="m17590 10943c-132 0-239 114-239 255 0 141 107 255 239 255 132 0 239-114 239-255 0-141-107-255-239-255"/><path d="m16247 10943c-132 0-239 114-239 255 0 141 107 255 239 255 132 0 239-114 239-255 0-141-107-255-239-255"/><path d="m14903 10943c-132 0-239 114-239 255 0 141 107 255 239 255 132 0 239-114 239-255 0-141-107-255-239-255"/><path d="m13560 10943c-132 0-239 114-239 255 0 141 107 255 239 255 132 0 239-114 239-255 0-141-107-255-239-255"/><path d="m12216 10943c-132 0-239 114-239 255 0 141 107 255 239 255 132 0 239-114 239-255 0-141-107-255-239-255"/><path d="m10872 10943c-132 0-239 114-239 255 0 141 107 255 239 255 132 0 239-114 239-255 0-141-107-255-239-255"/><path d="m9529 10943c-132 0-239 114-239 255 0 141 107 255 239 255 132 0 239-114 239-255 0-141-107-255-239-255"/><path d="m20964 11708c-132 0-239 114-239 255 0 141 107 255 239 255 132 0 239-114 239-255 0-141-107-255-239-255"/><path d="m19620 11708c-132 0-239 114-239 255 0 141 107 255 239 255 132 0 239-114 239-255 0-141-107-255-239-255"/><path d="m18277 11708c-132 0-239 114-239 255 0 141 107 255 239 255 132 0 239-114 239-255 0-141-107-255-239-255"/><path d="m16933 11708c-132 0-239 114-239 255 0 141 107 255 239 255 132 0 239-114 239-255 0-141-107-255-239-255"/><path d="m15590 11708c-132 0-239 114-239 255 0 141 107 255 239 255 132 0 239-114 239-255 0-141-107-255-239-255"/><path d="m14246 11708c-132 0-239 114-239 255 0 141 107 255 239 255 132 0 239-114 239-255 0-141-107-255-239-255"/><path d="m12903 11708c-132 0-239 114-239 255 0 141 107 255 239 255 132 0 239-114 239-255 0-141-107-255-239-255"/><path d="m11559 11708c-132 0-239 114-239 255 0 141 107 255 239 255 132 0 239-114 239-255 0-141-107-255-239-255"/><path d="m20277 12601c-132 0-239 114-239 255 0 141 107 255 239 255 132 0 239-114 239-255 0-141-107-255-239-255"/><path d="m18934 12601c-132 0-239 114-239 255 0 141 107 255 239 255 132 0 239-114 239-255 0-141-107-255-239-255"/><path d="m17590 12601c-132 0-239 114-239 255 0 141 107 255 239 255 132 0 239-114 239-255 0-141-107-255-239-255"/><path d="m16247 12601c-132 0-239 114-239 255 0 141 107 255 239 255 132 0 239-114 239-255 0-141-107-255-239-255"/><path d="m14903 12601c-132 0-239 114-239 255 0 141 107 255 239 255 132 0 239-114 239-255 0-141-107-255-239-255"/><path d="m13560 12601c-132 0-239 114-239 255 0 141 107 255 239 255 132 0 239-114 239-255 0-141-107-255-239-255"/><path d="m12216 12601c-132 0-239 114-239 255 0 141 107 255 239 255 132 0 239-114 239-255 0-141-107-255-239-255"/><path d="m10872 12601c-132 0-239 114-239 255 0 141 107 255 239 255 132 0 239-114 239-255 0-141-107-255-239-255"/><path d="m9529 12601c-132 0-239 114-239 255 0 141 107 255 239 255 132 0 239-114 239-255 0-141-107-255-239-255"/><path d="m20964 13367c-132 0-239 114-239 255 0 141 107 255 239 255 132 0 239-114 239-255 0-141-107-255-239-255"/><path d="m19620 13367c-132 0-239 114-239 255 0 141 107 255 239 255 132 0 239-114 239-255 0-141-107-255-239-255"/><path d="m18277 13367c-132 0-239 114-239 255 0 141 107 255 239 255 132 0 239-114 239-255 0-141-107-255-239-255"/><path d="m16933 13367c-132 0-239 114-239 255 0 141 107 255 239 255 132 0 239-114 239-255 0-141-107-255-239-255"/><path d="m15590 13367c-132 0-239 114-239 255 0 141 107 255 239 255 132 0 239-114 239-255 0-141-107-255-239-255"/><path d="m14246 13367c-132 0-239 114-239 255 0 141 107 255 239 255 132 0 239-114 239-255 0-141-107-255-239-255"/><path d="m12903 13367c-132 0-239 114-239 255 0 141 107 255 239 255 132 0 239-114 239-255 0-141-107-255-239-255"/><path d="m11559 13367c-132 0-239 114-239 255 0 141 107 255 239 255 132 0 239-114 239-255 0-141-107-255-239-255"/><path d="m20277 14260c-132 0-239 114-239 255 0 141 107 255 239 255 132 0 239-114 239-255 0-141-107-255-239-255"/><path d="m18934 14260c-132 0-239 114-239 255 0 141 107 255 239 255 132 0 239-114 239-255 0-141-107-255-239-255"/><path d="m17590 14260c-132 0-239 114-239 255 0 141 107 255 239 255 132 0 239-114 239-255 0-141-107-255-239-255"/><path d="m16247 14260c-132 0-239 114-239 255 0 141 107 255 239 255 132 0 239-114 239-255 0-141-107-255-239-255"/><path d="m14903 14260c-132 0-239 114-239 255 0 141 107 255 239 255 132 0 239-114 239-255 0-141-107-255-239-255"/><path d="m13560 14260c-132 0-239 114-239 255 0 141 107 255 239 255 132 0 239-114 239-255 0-141-107-255-239-255"/><path d="m12216 14260c-132 0-239 114-239 255 0 141 107 255 239 255 132 0 239-114 239-255 0-141-107-255-239-255"/><path d="m10872 14260c-132 0-239 114-239 255 0 141 107 255 239 255 132 0 239-114 239-255 0-141-107-255-239-255"/><path d="m9529 14260c-132 0-239 114-239 255 0 141 107 255 239 255 132 0 239-114 239-255 0-141-107-255-239-255"/><path d="m20964 15026c-132 0-239 114-239 255 0 141 107 255 239 255 132 0 239-114 239-255 0-141-107-255-239-255"/><path d="m19620 15026c-132 0-239 114-239 255 0 141 107 255 239 255 132 0 239-114 239-255 0-141-107-255-239-255"/><path d="m18277 15026c-132 0-239 114-239 255 0 141 107 255 239 255 132 0 239-114 239-255 0-141-107-255-239-255"/><path d="m16933 15026c-132 0-239 114-239 255 0 141 107 255 239 255 132 0 239-114 239-255 0-141-107-255-239-255"/><path d="m15590 15026c-132 0-239 114-239 255 0 141 107 255 239 255 132 0 239-114 239-255 0-141-107-255-239-255"/><path d="m14246 15026c-132 0-239 114-239 255 0 141 107 255 239 255 132 0 239-114 239-255 0-141-107-255-239-255"/><path d="m12903 15026c-132 0-239 114-239 255 0 141 107 255 239 255 132 0 239-114 239-255 0-141-107-255-239-255"/><path d="m11559 15026c-132 0-239 114-239 255 0 141 107 255 239 255 132 0 239-114 239-255 0-141-107-255-239-255"/><path d="m20277 15919c-132 0-239 114-239 255 0 141 107 255 239 255 132 0 239-114 239-255 0-141-107-255-239-255"/><path d="m18934 15919c-132 0-239 114-239 255 0 141 107 255 239 255 132 0 239-114 239-255 0-141-107-255-239-255"/><path d="m17590 15919c-132 0-239 114-239 255 0 141 107 255 239 255 132 0 239-114 239-255 0-141-107-255-239-255"/><path d="m16247 15919c-132 0-239 114-239 255 0 141 107 255 239 255 132 0 239-114 239-255 0-141-107-255-239-255"/><path d="m14903 15919c-132 0-239 114-239 255 0 141 107 255 239 255 132 0 239-114 239-255 0-141-107-255-239-255"/><path d="m13560 15919c-132 0-239 114-239 255 0 141 107 255 239 255 132 0 239-114 239-255 0-141-107-255-239-255"/><path d="m12216 15919c-132 0-239 114-239 255 0 141 107 255 239 255 132 0 239-114 239-255 0-141-107-255-239-255"/><path d="m10872 15919c-132 0-239 114-239 255 0 141 107 255 239 255 132 0 239-114 239-255 0-141-107-255-239-255"/><path d="m9529 15919c-132 0-239 114-239 255 0 141 107 255 239 255 132 0 239-114 239-255 0-141-107-255-239-255"/><path d="m20964 16685c-132 0-239 114-239 255 0 141 107 255 239 255 132 0 239-114 239-255 0-141-107-255-239-255"/><path d="m19620 16685c-132 0-239 114-239 255 0 141 107 255 239 255 132 0 239-114 239-255 0-141-107-255-239-255"/><path d="m18277 16685c-132 0-239 114-239 255 0 141 107 255 239 255 132 0 239-114 239-255 0-141-107-255-239-255"/><path d="m16933 16685c-132 0-239 114-239 255 0 141 107 255 239 255 132 0 239-114 239-255 0-141-107-255-239-255"/><path d="m15590 16685c-132 0-239 114-239 255 0 141 107 255 239 255 132 0 239-114 239-255 0-141-107-255-239-255"/><path d="m14246 16685c-132 0-239 114-239 255 0 141 107 255 239 255 132 0 239-114 239-255 0-141-107-255-239-255"/><path d="m12903 16685c-132 0-239 114-239 255 0 141 107 255 239 255 132 0 239-114 239-255 0-141-107-255-239-255"/><path d="m11559 16685c-132 0-239 114-239 255 0 141 107 255 239 255 132 0 239-114 239-255 0-141-107-255-239-255"/><path d="m20277 17578c-132 0-239 114-239 255 0 141 107 255 239 255 132 0 239-114 239-255 0-141-107-255-239-255"/><path d="m18934 17578c-132 0-239 114-239 255 0 141 107 255 239 255 132 0 239-114 239-255 0-141-107-255-239-255"/><path d="m17590 17578c-132 0-239 114-239 255 0 141 107 255 239 255 132 0 239-114 239-255 0-141-107-255-239-255"/><path d="m16247 17578c-132 0-239 114-239 255 0 141 107 255 239 255 132 0 239-114 239-255 0-141-107-255-239-255"/><path d="m14903 17578c-132 0-239 114-239 255 0 141 107 255 239 255 132 0 239-114 239-255 0-141-107-255-239-255"/><path d="m13560 17578c-132 0-239 114-239 255 0 141 107 255 239 255 132 0 239-114 239-255 0-141-107-255-239-255"/><path d="m12216 17578c-132 0-239 114-239 255 0 141 107 255 239 255 132 0 239-114 239-255 0-141-107-255-239-255"/><path d="m10872 17578c-132 0-239 114-239 255 0 141 107 255 239 255 132 0 239-114 239-255 0-141-107-255-239-255"/><path d="m9529 17578c-132 0-239 114-239 255 0 141 107 255 239 255 132 0 239-114 239-255 0-141-107-255-239-255"/><path d="m20964 18343c-132 0-239 114-239 255 0 141 107 255 239 255 132 0 239-114 239-255 0-141-107-255-239-255"/><path d="m19620 18343c-132 0-239 114-239 255 0 141 107 255 239 255 132 0 239-114 239-255 0-141-107-255-239-255"/><path d="m18277 18343c-132 0-239 114-239 255 0 141 107 255 239 255 132 0 239-114 239-255 0-141-107-255-239-255"/><path d="m16933 18343c-132 0-239 114-239 255 0 141 107 255 239 255 132 0 239-114 239-255 0-141-107-255-239-255"/><path d="m15590 18343c-132 0-239 114-239 255 0 141 107 255 239 255 132 0 239-114 239-255 0-141-107-255-239-255"/><path d="m14246 18343c-132 0-239 114-239 255 0 141 107 255 239 255 132 0 239-114 239-255 0-141-107-255-239-255"/><path d="m12903 18343c-132 0-239 114-239 255 0 141 107 255 239 255 132 0 239-114 239-255 0-141-107-255-239-255"/><path d="m11559 18343c-132 0-239 114-239 255 0 141 107 255 239 255 132 0 239-114 239-255 0-141-107-255-239-255"/><path d="m20277 19237c-132 0-239 114-239 255 0 141 107 255 239 255 132 0 239-114 239-255 0-141-107-255-239-255"/><path d="m18934 19237c-132 0-239 114-239 255 0 141 107 255 239 255 132 0 239-114 239-255 0-141-107-255-239-255"/><path d="m17590 19237c-132 0-239 114-239 255 0 141 107 255 239 255 132 0 239-114 239-255 0-141-107-255-239-255"/><path d="m16247 19237c-132 0-239 114-239 255 0 141 107 255 239 255 132 0 239-114 239-255 0-141-107-255-239-255"/><path d="m14903 19237c-132 0-239 114-239 255 0 141 107 255 239 255 132 0 239-114 239-255 0-141-107-255-239-255"/><path d="m13560 19237c-132 0-239 114-239 255 0 141 107 255 239 255 132 0 239-114 239-255 0-141-107-255-239-255"/><path d="m12216 19237c-132 0-239 114-239 255 0 141 107 255 239 255 132 0 239-114 239-255 0-141-107-255-239-255"/><path d="m10872 19237c-132 0-239 114-239 255 0 141 107 255 239 255 132 0 239-114 239-255 0-141-107-255-239-255"/><path d="m9529 19237c-132 0-239 114-239 255 0 141 107 255 239 255 132 0 239-114 239-255 0-141-107-255-239-255"/><path d="m20964 20002c-132 0-239 114-239 255 0 141 107 255 239 255 132 0 239-114 239-255 0-141-107-255-239-255"/><path d="m19620 20002c-132 0-239 114-239 255 0 141 107 255 239 255 132 0 239-114 239-255 0-141-107-255-239-255"/><path d="m18277 20002c-132 0-239 114-239 255 0 141 107 255 239 255 132 0 239-114 239-255 0-141-107-255-239-255"/><path d="m16933 20002c-132 0-239 114-239 255 0 141 107 255 239 255 132 0 239-114 239-255 0-141-107-255-239-255"/><path d="m15590 20002c-132 0-239 114-239 255 0 141 107 255 239 255 132 0 239-114 239-255 0-141-107-255-239-255"/><path d="m14246 20002c-132 0-239 114-239 255 0 141 107 255 239 255 132 0 239-114 239-255 0-141-107-255-239-255"/><path d="m12903 20002c-132 0-239 114-239 255 0 141 107 255 239 255 132 0 239-114 239-255 0-141-107-255-239-255"/><path d="m11559 20002c-132 0-239 114-239 255 0 141 107 255 239 255 132 0 239-114 239-255 0-141-107-255-239-255"/><path d="m20277 20895c-132 0-239 114-239 255 0 141 107 255 239 255 132 0 239-114 239-255 0-141-107-255-239-255"/><path d="m18934 20895c-132 0-239 114-239 255 0 141 107 255 239 255 132 0 239-114 239-255 0-141-107-255-239-255"/><path d="m17590 20895c-132 0-239 114-239 255 0 141 107 255 239 255 132 0 239-114 239-255 0-141-107-255-239-255"/><path d="m16247 20895c-132 0-239 114-239 255 0 141 107 255 239 255 132 0 239-114 239-255 0-141-107-255-239-255"/><path d="m14903 20895c-132 0-239 114-239 255 0 141 107 255 239 255 132 0 239-114 239-255 0-141-107-255-239-255"/><path d="m13560 20895c-132 0-239 114-239 255 0 141 107 255 239 255 132 0 239-114 239-255 0-141-107-255-239-255"/><path d="m12216 20895c-132 0-239 114-239 255 0 141 107 255 239 255 132 0 239-114 239-255 0-141-107-255-239-255"/><path d="m10872 20895c-132 0-239 114-239 255 0 141 107 255 239 255 132 0 239-114 239-255 0-141-107-255-239-255"/><path d="m9529 20895c-132 0-239 114-239 255 0 141 107 255 239 255 132 0 239-114 239-255 0-141-107-255-239-255"/><path d="m20964 21661c-132 0-239 114-239 255 0 141 107 255 239 255 132 0 239-114 239-255 0-141-107-255-239-255"/><path d="m19620 21661c-132 0-239 114-239 255 0 141 107 255 239 255 132 0 239-114 239-255 0-141-107-255-239-255"/><path d="m18277 21661c-132 0-239 114-239 255 0 141 107 255 239 255 132 0 239-114 239-255 0-141-107-255-239-255"/><path d="m16933 21661c-132 0-239 114-239 255 0 141 107 255 239 255 132 0 239-114 239-255 0-141-107-255-239-255"/><path d="m15590 21661c-132 0-239 114-239 255 0 141 107 255 239 255 132 0 239-114 239-255 0-141-107-255-239-255"/><path d="m14246 21661c-132 0-239 114-239 255 0 141 107 255 239 255 132 0 239-114 239-255 0-141-107-255-239-255"/><path d="m12903 21661c-132 0-239 114-239 255 0 141 107 255 239 255 132 0 239-114 239-255 0-141-107-255-239-255"/><path d="m11559 21661c-132 0-239 114-239 255 0 141 107 255 239 255 132 0 239-114 239-255 0-141-107-255-239-255"/><path d="m20277 22554c-132 0-239 114-239 255 0 141 107 255 239 255 132 0 239-114 239-255 0-141-107-255-239-255"/><path d="m18934 22554c-132 0-239 114-239 255 0 141 107 255 239 255 132 0 239-114 239-255 0-141-107-255-239-255"/><path d="m17590 22554c-132 0-239 114-239 255 0 141 107 255 239 255 132 0 239-114 239-255 0-141-107-255-239-255"/><path d="m16247 22554c-132 0-239 114-239 255 0 141 107 255 239 255 132 0 239-114 239-255 0-141-107-255-239-255"/><path d="m14903 22554c-132 0-239 114-239 255 0 141 107 255 239 255 132 0 239-114 239-255 0-141-107-255-239-255"/><path d="m13560 22554c-132 0-239 114-239 255 0 141 107 255 239 255 132 0 239-114 239-255 0-141-107-255-239-255"/><path d="m12216 22554c-132 0-239 114-239 255 0 141 107 255 239 255 132 0 239-114 239-255 0-141-107-255-239-255"/><path d="m10872 22554c-132 0-239 114-239 255 0 141 107 255 239 255 132 0 239-114 239-255 0-141-107-255-239-255"/><path d="m9529 22554c-132 0-239 114-239 255 0 141 107 255 239 255 132 0 239-114 239-255 0-141-107-255-239-255"/><path d="m20964 23320c-132 0-239 114-239 255 0 141 107 255 239 255 132 0 239-114 239-255 0-141-107-255-239-255"/><path d="m19620 23320c-132 0-239 114-239 255 0 141 107 255 239 255 132 0 239-114 239-255 0-141-107-255-239-255"/><path d="m18277 23320c-132 0-239 114-239 255 0 141 107 255 239 255 132 0 239-114 239-255 0-141-107-255-239-255"/><path d="m16933 23320c-132 0-239 114-239 255 0 141 107 255 239 255 132 0 239-114 239-255 0-141-107-255-239-255"/><path d="m15590 23320c-132 0-239 114-239 255 0 141 107 255 239 255 132 0 239-114 239-255 0-141-107-255-239-255"/><path d="m14246 23320c-132 0-239 114-239 255 0 141 107 255 239 255 132 0 239-114 239-255 0-141-107-255-239-255"/><path d="m12903 23320c-132 0-239 114-239 255 0 141 107 255 239 255 132 0 239-114 239-255 0-141-107-255-239-255"/><path d="m11559 23320c-132 0-239 114-239 255 0 141 107 255 239 255 132 0 239-114 239-255 0-141-107-255-239-255"/><path d="m20277 24213c-132 0-239 114-239 255 0 141 107 255 239 255 132 0 239-114 239-255 0-141-107-255-239-255"/><path d="m18934 24213c-132 0-239 114-239 255 0 141 107 255 239 255 132 0 239-114 239-255 0-141-107-255-239-255"/><path d="m17590 24213c-132 0-239 114-239 255 0 141 107 255 239 255 132 0 239-114 239-255 0-141-107-255-239-255"/><path d="m16247 24213c-132 0-239 114-239 255 0 141 107 255 239 255 132 0 239-114 239-255 0-141-107-255-239-255"/><path d="m14903 24213c-132 0-239 114-239 255 0 141 107 255 239 255 132 0 239-114 239-255 0-141-107-255-239-255"/><path d="m13560 24213c-132 0-239 114-239 255 0 141 107 255 239 255 132 0 239-114 239-255 0-141-107-255-239-255"/><path d="m12216 24213c-132 0-239 114-239 255 0 141 107 255 239 255 132 0 239-114 239-255 0-141-107-255-239-255"/><path d="m10872 24213c-132 0-239 114-239 255 0 141 107 255 239 255 132 0 239-114 239-255 0-141-107-255-239-255"/><path d="m9529 24213c-132 0-239 114-239 255 0 141 107 255 239 255 132 0 239-114 239-255 0-141-107-255-239-255"/><path d="m20964 24979c-132 0-239 114-239 255 0 141 107 255 239 255 132 0 239-114 239-255 0-141-107-255-239-255"/><path d="m19620 24979c-132 0-239 114-239 255 0 141 107 255 239 255 132 0 239-114 239-255 0-141-107-255-239-255"/><path d="m18277 24979c-132 0-239 114-239 255 0 141 107 255 239 255 132 0 239-114 239-255 0-141-107-255-239-255"/><path d="m16933 24979c-132 0-239 114-239 255 0 141 107 255 239 255 132 0 239-114 239-255 0-141-107-255-239-255"/><path d="m15590 24979c-132 0-239 114-239 255 0 141 107 255 239 255 132 0 239-114 239-255 0-141-107-255-239-255"/><path d="m14246 24979c-132 0-239 114-239 255 0 141 107 255 239 255 132 0 239-114 239-255 0-141-107-255-239-255"/><path d="m12903 24979c-132 0-239 114-239 255 0 141 107 255 239 255 132 0 239-114 239-255 0-141-107-255-239-255"/><path d="m11559 24979c-132 0-239 114-239 255 0 141 107 255 239 255 132 0 239-114 239-255 0-141-107-255-239-255"/><path d="m20277 25872c-132 0-239 114-239 255 0 141 107 255 239 255 132 0 239-114 239-255 0-141-107-255-239-255"/><path d="m18934 25872c-132 0-239 114-239 255 0 141 107 255 239 255 132 0 239-114 239-255 0-141-107-255-239-255"/><path d="m17590 25872c-132 0-239 114-239 255 0 141 107 255 239 255 132 0 239-114 239-255 0-141-107-255-239-255"/><path d="m16247 25872c-132 0-239 114-239 255 0 141 107 255 239 255 132 0 239-114 239-255 0-141-107-255-239-255"/><path d="m14903 25872c-132 0-239 114-239 255 0 141 107 255 239 255 132 0 239-114 239-255 0-141-107-255-239-255"/><path d="m13560 25872c-132 0-239 114-239 255 0 141 107 255 239 255 132 0 239-114 239-255 0-141-107-255-239-255"/><path d="m12216 25872c-132 0-239 114-239 255 0 141 107 255 239 255 132 0 239-114 239-255 0-141-107-255-239-255"/><path d="m10872 25872c-132 0-239 114-239 255 0 141 107 255 239 255 132 0 239-114 239-255 0-141-107-255-239-255"/><path d="m9529 25872c-132 0-239 114-239 255 0 141 107 255 239 255 132 0 239-114 239-255 0-141-107-255-239-255"/><path d="m20964 26637c-132 0-239 114-239 255 0 141 107 255 239 255 132 0 239-114 239-255 0-141-107-255-239-255"/><path d="m19620 26637c-132 0-239 114-239 255 0 141 107 255 239 255 132 0 239-114 239-255 0-141-107-255-239-255"/><path d="m18277 26637c-132 0-239 114-239 255 0 141 107 255 239 255 132 0 239-114 239-255 0-141-107-255-239-255"/><path d="m16933 26637c-132 0-239 114-239 255 0 141 107 255 239 255 132 0 239-114 239-255 0-141-107-255-239-255"/><path d="m15590 26637c-132 0-239 114-239 255 0 141 107 255 239 255 132 0 239-114 239-255 0-141-107-255-239-255"/><path d="m14246 26637c-132 0-239 114-239 255 0 141 107 255 239 255 132 0 239-114 239-255 0-141-107-255-239-255"/><path d="m12903 26637c-132 0-239 114-239 255 0 141 107 255 239 255 132 0 239-114 239-255 0-141-107-255-239-255"/><path d="m11559 26637c-132 0-239 114-239 255 0 141 107 255 239 255 132 0 239-114 239-255 0-141-107-255-239-255"/><path d="m20277 27531c-132 0-239 114-239 255 0 141 107 255 239 255 132 0 239-114 239-255 0-141-107-255-239-255"/><path d="m18934 27531c-132 0-239 114-239 255 0 141 107 255 239 255 132 0 239-114 239-255 0-141-107-255-239-255"/><path d="m17590 27531c-132 0-239 114-239 255 0 141 107 255 239 255 132 0 239-114 239-255 0-141-107-255-239-255"/><path d="m16247 27531c-132 0-239 114-239 255 0 141 107 255 239 255 132 0 239-114 239-255 0-141-107-255-239-255"/><path d="m14903 27531c-132 0-239 114-239 255 0 141 107 255 239 255 132 0 239-114 239-255 0-141-107-255-239-255"/><path d="m13560 27531c-132 0-239 114-239 255 0 141 107 255 239 255 132 0 239-114 239-255 0-141-107-255-239-255"/><path d="m12216 27531c-132 0-239 114-239 255 0 141 107 255 239 255 132 0 239-114 239-255 0-141-107-255-239-255"/><path d="m10872 27531c-132 0-239 114-239 255 0 141 107 255 239 255 132 0 239-114 239-255 0-141-107-255-239-255"/><path d="m9529 27531c-132 0-239 114-239 255 0 141 107 255 239 255 132 0 239-114 239-255 0-141-107-255-239-255"/><path d="m20964 28296c-132 0-239 114-239 255 0 141 107 255 239 255 132 0 239-114 239-255 0-141-107-255-239-255"/><path d="m19620 28296c-132 0-239 114-239 255 0 141 107 255 239 255 132 0 239-114 239-255 0-141-107-255-239-255"/><path d="m18277 28296c-132 0-239 114-239 255 0 141 107 255 239 255 132 0 239-114 239-255 0-141-107-255-239-255"/><path d="m16933 28296c-132 0-239 114-239 255 0 141 107 255 239 255 132 0 239-114 239-255 0-141-107-255-239-255"/><path d="m15590 28296c-132 0-239 114-239 255 0 141 107 255 239 255 132 0 239-114 239-255 0-141-107-255-239-255"/><path d="m14246 28296c-132 0-239 114-239 255 0 141 107 255 239 255 132 0 239-114 239-255 0-141-107-255-239-255"/><path d="m12903 28296c-132 0-239 114-239 255 0 141 107 255 239 255 132 0 239-114 239-255 0-141-107-255-239-255"/><path d="m11559 28296c-132 0-239 114-239 255 0 141 107 255 239 255 132 0 239-114 239-255 0-141-107-255-239-255"/></g><g><g fill="#fff" stroke="#fff" stroke-linejoin="round" stroke-linecap="round" stroke-width="50"><path d="m16815 13898c23-135 33-9 7-170l430-2c21 71 77 113 105 148 13 16 7 7 16 24h-558zm470-294c38-21 76-53 129-70 261-82 340 199 398 114 25-37-63-155-28-334 21-109 89-204 154-241 92 63 156 126 171 249 31 243-92 279-80 329 46 82 87-20 111-51 75-95 207-123 320-84 44 15 121 57 143 83-23 100-88 178-170 227-118 70-305 29-323 43-85 69 113 67 211 195 80 105 69 280 14 357-143 19-205-46-271-142-118-169-42-300-156-262-13 55-1 132-17 190-49 185-255 250-354 219-20-118-19-239 27-334 54-113 176-151 206-172l-8-55c-83-22-176 64-317-17-64-37-146-138-160-245zm-2726-2220h-845v5840h2013c16-98 79-268 111-369l345-1060c120-352 230-714 349-1056 38-110 87-243 115-350l807 6c24 62 1 83 40 107 58 36 339 2 436-191l34-64c80 247 361 299 428 237 47-44 132-392-77-525 20-17 52-20 78-28 57-18 135-69 172-110 32-35 136-181 114-259-22-36-154-106-216-125-124-37-175-6-278 27 6-134-2-227-59-317-36-58-167-164-203-157-24 5-88 60-103 79-100 119-128 272-109 440-75-29-113-69-220-66-84 2-153 36-207 75-44 31-40 29-108 29l-406 3-372-1352 447 5 1-818h-862l307 609c25 47 86 157 101 205-94 148-187 295-286 440-49 72-92 147-143 220-34 49-690 1053-704 1094-22-16-29-31-44-56l-986-1587c-23-38-49-73-64-113l395-812z"/><path d="m15234 12716c-217 77-109 400 94 337 72-23 139-114 110-219-21-77-104-153-204-118z"/><path d="m15235 11877c-125 48-144 185-75 276l15 17c7 6 14 12 23 19 39 28 93 37 142 19 196-71 106-413-104-332z"/><path d="m17906 13788l15-6c35-23 69-2 79 31 12 39-3 73-27 84-74 36-127-65-67-109zm-4-84c-181 72-72 330 86 269 164-63 77-334-86-269z"/></g><g fill="#201e1e"><path d="m15234 12716c100-35 183 41 204 118 28 105-38 196-110 219-202 63-311-260-94-337m2-839c211-81 301 261 104 332-49 18-103 9-142-19-9-7-16-12-23-19l-15-17c-69-91-50-228 75-276zm-1071 318c15 40 41 75 64 113l986 1587c15 25 21 40 44 56 14-41 671-1045 704-1094 51-73 94-148 143-220 99-145 192-291 286-440-15-48-76-158-101-205l-307-609h862l-1 818-447-5 372 1352 406-3c68 0 65 2 108-29 54-38 124-72 207-75 107-3 145 37 220 66-19-168 9-321 109-440 16-18 79-74 103-79 36-7 166 99 203 157 56 90 64 183 59 317 103-33 154-64 278-27 62 19 194 89 216 125 22 78-82 224-114 259-37 41-115 92-172 110-26 8-58 11-78 28 209 133 124 481 77 525-67 62-348 10-428-237l-34 64c-96 193-377 227-436 191-39-24-16-45-40-107l-807-6c-28 107-77 240-115 350-119 342-230 704-349 1056l-345 1060c-33 100-96 271-111 369h-2013v-5840h845l-395 812zm-643-794v5792c0 100 34 158 89 200 63 47 147 34 252 34 562 0 1124 0 1686 0 32 127 291 87 405 87h1532c170 0 320-9 494-9h1021c94 0 160 9 221-33 154-105 81-245 50-343-19-60-34-108-55-166-20-56-38-108-56-165-20-61-36-108-55-167-95-305-235-675-330-980l-333-995c35-50 65-13 122-164 83-223 44-301 8-468 23-6 81-58 99-76l76-101c77-124 156-296 34-419-58-58-196-133-277-154-149-40-175 4-175-55 0-50 54-188 70-246 28-105 214-668 214-741 0-69-30-131-68-161-57-46-88-47-183-46-71 1-130-9-211-9-371 0-749-17-1110-17v-563c0-137-65-251-178-251h-3177c-71 0-162 94-162 216z"/><path d="m17901 13704c164-65 250 206 86 269-159 61-267-198-86-269m-616-100c15 107 96 208 160 245 141 81 234-6 317 17l8 55c-30 21-152 59-206 172-46 95-47 215-27 334 98 32 305-34 354-219 15-58 4-135 17-190 114-37 38 93 156 262 67 96 129 161 271 142 56-77 66-252-14-357-98-128-296-127-211-195 18-14 205 27 323-43 82-48 147-127 170-227-22-26-99-68-143-83-113-39-244-10-320 84-25 31-65 133-111 51-12-51 111-86 80-329-16-123-79-185-171-249-65 37-133 132-154 241-35 179 54 297 28 334-58 85-137-196-398-114-53 17-91 49-129 70z"/><path d="m16815 13898h558c-9-17-2-7-16-24-28-35-84-77-105-148l-430 2c27 161 16 35-7 170"/></g><path d="m17906 13788c-60 44-7 145 67 109 24-12 40-45 27-84-8-47-60-55-94-24z" fill="#fff"/></g></g></g><g font-family="&apos;Harrington&apos;" font-size="1708" transform="matrix(.93595 0 0 1 3676.84 8736.72)"><text x="10500" y="14850" fill="#fff" stroke="#fff" stroke-linejoin="round" stroke-linecap="round" stroke-width="300">Texto 02</text><text x="10500" y="14850" fill="#201e1e" stroke="#201e1e" stroke-width="75">Texto 02</text></g><rect x="16031" y="19923" width="1642" height="657" rx="821" ry="328.5" fill="#fff" stroke="#fff" stroke-width="7.62"/><text x="10500" y="14850" fill="#201e1e" font-family="&apos;Arial Black&apos;" font-weight="900" font-size="637.98" transform="matrix(.93595 0 0 1 6258.81 5634.17)">NN 1</text><path d="m6582 26812c-1334 682-3868 551-4637-712-767-1258-593-4827-666-6577-182-4382-643-7705-762-11239-132-3924 2407-6519 5442-7249 4282-1031 4028 5008 3434 8112-312 1667-929 3119-1322 4749-725 3007-68 7597-320 10727-129 1082-472 1799-1168 2189z" fill="#fff"/><g clip-path="url(#1)"><g><g fill="#201e1e"><path d="m-48 97c132 0 239 114 239 255 0 141-107 255-239 255-132 0-239-114-239-255 0-141 107-255 239-255"/><path d="m1295 97c132 0 239 114 239 255 0 141-107 255-239 255-132 0-239-114-239-255 0-141 107-255 239-255"/><path d="m2639 97c132 0 239 114 239 255 0 141-107 255-239 255-132 0-239-114-239-255 0-141 107-255 239-255"/><path d="m3982 97c132 0 239 114 239 255 0 141-107 255-239 255-132 0-239-114-239-255 0-141 107-255 239-255"/><path d="m5326 97c132 0 239 114 239 255 0 141-107 255-239 255-132 0-239-114-239-255 0-141 107-255 239-255"/><path d="m6669 97c132 0 239 114 239 255 0 141-107 255-239 255-132 0-239-114-239-255 0-141 107-255 239-255"/><path d="m8013 97c132 0 239 114 239 255 0 141-107 255-239 255-132 0-239-114-239-255 0-141 107-255 239-255"/><path d="m9356 97c132 0 239 114 239 255 0 141-107 255-239 255-132 0-239-114-239-255 0-141 107-255 239-255"/><path d="m638 990c132 0 239 114 239 255 0 141-107 255-239 255-132 0-239-114-239-255 0-141 107-255 239-255"/><path d="m1982 990c132 0 239 114 239 255 0 141-107 255-239 255-132 0-239-114-239-255 0-141 107-255 239-255"/><path d="m3325 990c132 0 239 114 239 255 0 141-107 255-239 255-132 0-239-114-239-255 0-141 107-255 239-255"/><path d="m4669 990c132 0 239 114 239 255 0 141-107 255-239 255-132 0-239-114-239-255 0-141 107-255 239-255"/><path d="m6012 990c132 0 239 114 239 255 0 141-107 255-239 255-132 0-239-114-239-255 0-141 107-255 239-255"/><path d="m7356 990c132 0 239 114 239 255 0 141-107 255-239 255-132 0-239-114-239-255 0-141 107-255 239-255"/><path d="m8700 990c132 0 239 114 239 255 0 141-107 255-239 255-132 0-239-114-239-255 0-141 107-255 239-255"/><path d="m10043 990c132 0 239 114 239 255 0 141-107 255-239 255-132 0-239-114-239-255 0-141 107-255 239-255"/><path d="m11387 990c132 0 239 114 239 255 0 141-107 255-239 255-132 0-239-114-239-255 0-141 107-255 239-255"/><path d="m-48 1755c132 0 239 114 239 255 0 141-107 255-239 255-132 0-239-114-239-255 0-141 107-255 239-255"/><path d="m1295 1755c132 0 239 114 239 255 0 141-107 255-239 255-132 0-239-114-239-255 0-141 107-255 239-255"/><path d="m2639 1755c132 0 239 114 239 255 0 141-107 255-239 255-132 0-239-114-239-255 0-141 107-255 239-255"/><path d="m3982 1755c132 0 239 114 239 255 0 141-107 255-239 255-132 0-239-114-239-255 0-141 107-255 239-255"/><path d="m5326 1755c132 0 239 114 239 255 0 141-107 255-239 255-132 0-239-114-239-255 0-141 107-255 239-255"/><path d="m6669 1755c132 0 239 114 239 255 0 141-107 255-239 255-132 0-239-114-239-255 0-141 107-255 239-255"/><path d="m8013 1755c132 0 239 114 239 255 0 141-107 255-239 255-132 0-239-114-239-255 0-141 107-255 239-255"/><path d="m9356 1755c132 0 239 114 239 255 0 141-107 255-239 255-132 0-239-114-239-255 0-141 107-255 239-255"/><path d="m638 2649c132 0 239 114 239 255 0 141-107 255-239 255-132 0-239-114-239-255 0-141 107-255 239-255"/><path d="m1982 2649c132 0 239 114 239 255 0 141-107 255-239 255-132 0-239-114-239-255 0-141 107-255 239-255"/><path d="m3325 2649c132 0 239 114 239 255 0 141-107 255-239 255-132 0-239-114-239-255 0-141 107-255 239-255"/><path d="m4669 2649c132 0 239 114 239 255 0 141-107 255-239 255-132 0-239-114-239-255 0-141 107-255 239-255"/><path d="m6012 2649c132 0 239 114 239 255 0 141-107 255-239 255-132 0-239-114-239-255 0-141 107-255 239-255"/><path d="m7356 2649c132 0 239 114 239 255 0 141-107 255-239 255-132 0-239-114-239-255 0-141 107-255 239-255"/><path d="m8700 2649c132 0 239 114 239 255 0 141-107 255-239 255-132 0-239-114-239-255 0-141 107-255 239-255"/><path d="m10043 2649c132 0 239 114 239 255 0 141-107 255-239 255-132 0-239-114-239-255 0-141 107-255 239-255"/><path d="m11387 2649c132 0 239 114 239 255 0 141-107 255-239 255-132 0-239-114-239-255 0-141 107-255 239-255"/><path d="m-48 3414c132 0 239 114 239 255 0 141-107 255-239 255-132 0-239-114-239-255 0-141 107-255 239-255"/><path d="m1295 3414c132 0 239 114 239 255 0 141-107 255-239 255-132 0-239-114-239-255 0-141 107-255 239-255"/><path d="m2639 3414c132 0 239 114 239 255 0 141-107 255-239 255-132 0-239-114-239-255 0-141 107-255 239-255"/><path d="m3982 3414c132 0 239 114 239 255 0 141-107 255-239 255-132 0-239-114-239-255 0-141 107-255 239-255"/><path d="m5326 3414c132 0 239 114 239 255 0 141-107 255-239 255-132 0-239-114-239-255 0-141 107-255 239-255"/><path d="m6669 3414c132 0 239 114 239 255 0 141-107 255-239 255-132 0-239-114-239-255 0-141 107-255 239-255"/><path d="m8013 3414c132 0 239 114 239 255 0 141-107 255-239 255-132 0-239-114-239-255 0-141 107-255 239-255"/><path d="m9356 3414c132 0 239 114 239 255 0 141-107 255-239 255-132 0-239-114-239-255 0-141 107-255 239-255"/><path d="m638 4307c132 0 239 114 239 255 0 141-107 255-239 255-132 0-239-114-239-255 0-141 107-255 239-255"/><path d="m1982 4307c132 0 239 114 239 255 0 141-107 255-239 255-132 0-239-114-239-255 0-141 107-255 239-255"/><path d="m3325 4307c132 0 239 114 239 255 0 141-107 255-239 255-132 0-239-114-239-255 0-141 107-255 239-255"/><path d="m4669 4307c132 0 239 114 239 255 0 141-107 255-239 255-132 0-239-114-239-255 0-141 107-255 239-255"/><path d="m6012 4307c132 0 239 114 239 255 0 141-107 255-239 255-132 0-239-114-239-255 0-141 107-255 239-255"/><path d="m7356 4307c132 0 239 114 239 255 0 141-107 255-239 255-132 0-239-114-239-255 0-141 107-255 239-255"/><path d="m8700 4307c132 0 239 114 239 255 0 141-107 255-239 255-132 0-239-114-239-255 0-141 107-255 239-255"/><path d="m10043 4307c132 0 239 114 239 255 0 141-107 255-239 255-132 0-239-114-239-255 0-141 107-255 239-255"/><path d="m11387 4307c132 0 239 114 239 255 0 141-107 255-239 255-132 0-239-114-239-255 0-141 107-255 239-255"/><path d="m-48 5073c132 0 239 114 239 255 0 141-107 255-239 255-132 0-239-114-239-255 0-141 107-255 239-255"/><path d="m1295 5073c132 0 239 114 239 255 0 141-107 255-239 255-132 0-239-114-239-255 0-141 107-255 239-255"/><path d="m2639 5073c132 0 239 114 239 255 0 141-107 255-239 255-132 0-239-114-239-255 0-141 107-255 239-255"/><path d="m3982 5073c132 0 239 114 239 255 0 141-107 255-239 255-132 0-239-114-239-255 0-141 107-255 239-255"/><path d="m5326 5073c132 0 239 114 239 255 0 141-107 255-239 255-132 0-239-114-239-255 0-141 107-255 239-255"/><path d="m6669 5073c132 0 239 114 239 255 0 141-107 255-239 255-132 0-239-114-239-255 0-141 107-255 239-255"/><path d="m8013 5073c132 0 239 114 239 255 0 141-107 255-239 255-132 0-239-114-239-255 0-141 107-255 239-255"/><path d="m9356 5073c132 0 239 114 239 255 0 141-107 255-239 255-132 0-239-114-239-255 0-141 107-255 239-255"/><path d="m638 5966c132 0 239 114 239 255 0 141-107 255-239 255-132 0-239-114-239-255 0-141 107-255 239-255"/><path d="m1982 5966c132 0 239 114 239 255 0 141-107 255-239 255-132 0-239-114-239-255 0-141 107-255 239-255"/><path d="m3325 5966c132 0 239 114 239 255 0 141-107 255-239 255-132 0-239-114-239-255 0-141 107-255 239-255"/><path d="m4669 5966c132 0 239 114 239 255 0 141-107 255-239 255-132 0-239-114-239-255 0-141 107-255 239-255"/><path d="m6012 5966c132 0 239 114 239 255 0 141-107 255-239 255-132 0-239-114-239-255 0-141 107-255 239-255"/><path d="m7356 5966c132 0 239 114 239 255 0 141-107 255-239 255-132 0-239-114-239-255 0-141 107-255 239-255"/><path d="m8700 5966c132 0 239 114 239 255 0 141-107 255-239 255-132 0-239-114-239-255 0-141 107-255 239-255"/><path d="m10043 5966c132 0 239 114 239 255 0 141-107 255-239 255-132 0-239-114-239-255 0-141 107-255 239-255"/><path d="m11387 5966c132 0 239 114 239 255 0 141-107 255-239 255-132 0-239-114-239-255 0-141 107-255 239-255"/><path d="m-48 6732c132 0 239 114 239 255 0 141-107 255-239 255-132 0-239-114-239-255 0-141 107-255 239-255"/><path d="m1295 6732c132 0 239 114 239 255 0 141-107 255-239 255-132 0-239-114-239-255 0-141 107-255 239-255"/><path d="m2639 6732c132 0 239 114 239 255 0 141-107 255-239 255-132 0-239-114-239-255 0-141 107-255 239-255"/><path d="m3982 6732c132 0 239 114 239 255 0 141-107 255-239 255-132 0-239-114-239-255 0-141 107-255 239-255"/><path d="m5326 6732c132 0 239 114 239 255 0 141-107 255-239 255-132 0-239-114-239-255 0-141 107-255 239-255"/><path d="m6669 6732c132 0 239 114 239 255 0 141-107 255-239 255-132 0-239-114-239-255 0-141 107-255 239-255"/><path d="m8013 6732c132 0 239 114 239 255 0 141-107 255-239 255-132 0-239-114-239-255 0-141 107-255 239-255"/><path d="m9356 6732c132 0 239 114 239 255 0 141-107 255-239 255-132 0-239-114-239-255 0-141 107-255 239-255"/><path d="m638 7625c132 0 239 114 239 255 0 141-107 255-239 255-132 0-239-114-239-255 0-141 107-255 239-255"/><path d="m1982 7625c132 0 239 114 239 255 0 141-107 255-239 255-132 0-239-114-239-255 0-141 107-255 239-255"/><path d="m3325 7625c132 0 239 114 239 255 0 141-107 255-239 255-132 0-239-114-239-255 0-141 107-255 239-255"/><path d="m4669 7625c132 0 239 114 239 255 0 141-107 255-239 255-132 0-239-114-239-255 0-141 107-255 239-255"/><path d="m6012 7625c132 0 239 114 239 255 0 141-107 255-239 255-132 0-239-114-239-255 0-141 107-255 239-255"/><path d="m7356 7625c132 0 239 114 239 255 0 141-107 255-239 255-132 0-239-114-239-255 0-141 107-255 239-255"/><path d="m8700 7625c132 0 239 114 239 255 0 141-107 255-239 255-132 0-239-114-239-255 0-141 107-255 239-255"/><path d="m10043 7625c132 0 239 114 239 255 0 141-107 255-239 255-132 0-239-114-239-255 0-141 107-255 239-255"/><path d="m11387 7625c132 0 239 114 239 255 0 141-107 255-239 255-132 0-239-114-239-255 0-141 107-255 239-255"/><path d="m-48 8391c132 0 239 114 239 255 0 141-107 255-239 255-132 0-239-114-239-255 0-141 107-255 239-255"/><path d="m1295 8391c132 0 239 114 239 255 0 141-107 255-239 255-132 0-239-114-239-255 0-141 107-255 239-255"/><path d="m2639 8391c132 0 239 114 239 255 0 141-107 255-239 255-132 0-239-114-239-255 0-141 107-255 239-255"/><path d="m3982 8391c132 0 239 114 239 255 0 141-107 255-239 255-132 0-239-114-239-255 0-141 107-255 239-255"/><path d="m5326 8391c132 0 239 114 239 255 0 141-107 255-239 255-132 0-239-114-239-255 0-141 107-255 239-255"/><path d="m6669 8391c132 0 239 114 239 255 0 141-107 255-239 255-132 0-239-114-239-255 0-141 107-255 239-255"/><path d="m8013 8391c132 0 239 114 239 255 0 141-107 255-239 255-132 0-239-114-239-255 0-141 107-255 239-255"/><path d="m9356 8391c132 0 239 114 239 255 0 141-107 255-239 255-132 0-239-114-239-255 0-141 107-255 239-255"/><path d="m638 9284c132 0 239 114 239 255 0 141-107 255-239 255-132 0-239-114-239-255 0-141 107-255 239-255"/><path d="m1982 9284c132 0 239 114 239 255 0 141-107 255-239 255-132 0-239-114-239-255 0-141 107-255 239-255"/><path d="m3325 9284c132 0 239 114 239 255 0 141-107 255-239 255-132 0-239-114-239-255 0-141 107-255 239-255"/><path d="m4669 9284c132 0 239 114 239 255 0 141-107 255-239 255-132 0-239-114-239-255 0-141 107-255 239-255"/><path d="m6012 9284c132 0 239 114 239 255 0 141-107 255-239 255-132 0-239-114-239-255 0-141 107-255 239-255"/><path d="m7356 9284c132 0 239 114 239 255 0 141-107 255-239 255-132 0-239-114-239-255 0-141 107-255 239-255"/><path d="m8700 9284c132 0 239 114 239 255 0 141-107 255-239 255-132 0-239-114-239-255 0-141 107-255 239-255"/><path d="m10043 9284c132 0 239 114 239 255 0 141-107 255-239 255-132 0-239-114-239-255 0-141 107-255 239-255"/><path d="m11387 9284c132 0 239 114 239 255 0 141-107 255-239 255-132 0-239-114-239-255 0-141 107-255 239-255"/><path d="m-48 10049c132 0 239 114 239 255 0 141-107 255-239 255-132 0-239-114-239-255 0-141 107-255 239-255"/><path d="m1295 10049c132 0 239 114 239 255 0 141-107 255-239 255-132 0-239-114-239-255 0-141 107-255 239-255"/><path d="m2639 10049c132 0 239 114 239 255 0 141-107 255-239 255-132 0-239-114-239-255 0-141 107-255 239-255"/><path d="m3982 10049c132 0 239 114 239 255 0 141-107 255-239 255-132 0-239-114-239-255 0-141 107-255 239-255"/><path d="m5326 10049c132 0 239 114 239 255 0 141-107 255-239 255-132 0-239-114-239-255 0-141 107-255 239-255"/><path d="m6669 10049c132 0 239 114 239 255 0 141-107 255-239 255-132 0-239-114-239-255 0-141 107-255 239-255"/><path d="m8013 10049c132 0 239 114 239 255 0 141-107 255-239 255-132 0-239-114-239-255 0-141 107-255 239-255"/><path d="m9356 10049c132 0 239 114 239 255 0 141-107 255-239 255-132 0-239-114-239-255 0-141 107-255 239-255"/><path d="m638 10943c132 0 239 114 239 255 0 141-107 255-239 255-132 0-239-114-239-255 0-141 107-255 239-255"/><path d="m1982 10943c132 0 239 114 239 255 0 141-107 255-239 255-132 0-239-114-239-255 0-141 107-255 239-255"/><path d="m3325 10943c132 0 239 114 239 255 0 141-107 255-239 255-132 0-239-114-239-255 0-141 107-255 239-255"/><path d="m4669 10943c132 0 239 114 239 255 0 141-107 255-239 255-132 0-239-114-239-255 0-141 107-255 239-255"/><path d="m6012 10943c132 0 239 114 239 255 0 141-107 255-239 255-132 0-239-114-239-255 0-141 107-255 239-255"/><path d="m7356 10943c132 0 239 114 239 255 0 141-107 255-239 255-132 0-239-114-239-255 0-141 107-255 239-255"/><path d="m8700 10943c132 0 239 114 239 255 0 141-107 255-239 255-132 0-239-114-239-255 0-141 107-255 239-255"/><path d="m10043 10943c132 0 239 114 239 255 0 141-107 255-239 255-132 0-239-114-239-255 0-141 107-255 239-255"/><path d="m11387 10943c132 0 239 114 239 255 0 141-107 255-239 255-132 0-239-114-239-255 0-141 107-255 239-255"/><path d="m-48 11708c132 0 239 114 239 255 0 141-107 255-239 255-132 0-239-114-239-255 0-141 107-255 239-255"/><path d="m1295 11708c132 0 239 114 239 255 0 141-107 255-239 255-132 0-239-114-239-255 0-141 107-255 239-255"/><path d="m2639 11708c132 0 239 114 239 255 0 141-107 255-239 255-132 0-239-114-239-255 0-141 107-255 239-255"/><path d="m3982 11708c132 0 239 114 239 255 0 141-107 255-239 255-132 0-239-114-239-255 0-141 107-255 239-255"/><path d="m5326 11708c132 0 239 114 239 255 0 141-107 255-239 255-132 0-239-114-239-255 0-141 107-255 239-255"/><path d="m6669 11708c132 0 239 114 239 255 0 141-107 255-239 255-132 0-239-114-239-255 0-141 107-255 239-255"/><path d="m8013 11708c132 0 239 114 239 255 0 141-107 255-239 255-132 0-239-114-239-255 0-141 107-255 239-255"/><path d="m9356 11708c132 0 239 114 239 255 0 141-107 255-239 255-132 0-239-114-239-255 0-141 107-255 239-255"/><path d="m638 12601c132 0 239 114 239 255 0 141-107 255-239 255-132 0-239-114-239-255 0-141 107-255 239-255"/><path d="m1982 12601c132 0 239 114 239 255 0 141-107 255-239 255-132 0-239-114-239-255 0-141 107-255 239-255"/><path d="m3325 12601c132 0 239 114 239 255 0 141-107 255-239 255-132 0-239-114-239-255 0-141 107-255 239-255"/><path d="m4669 12601c132 0 239 114 239 255 0 141-107 255-239 255-132 0-239-114-239-255 0-141 107-255 239-255"/><path d="m6012 12601c132 0 239 114 239 255 0 141-107 255-239 255-132 0-239-114-239-255 0-141 107-255 239-255"/><path d="m7356 12601c132 0 239 114 239 255 0 141-107 255-239 255-132 0-239-114-239-255 0-141 107-255 239-255"/><path d="m8700 12601c132 0 239 114 239 255 0 141-107 255-239 255-132 0-239-114-239-255 0-141 107-255 239-255"/><path d="m10043 12601c132 0 239 114 239 255 0 141-107 255-239 255-132 0-239-114-239-255 0-141 107-255 239-255"/><path d="m11387 12601c132 0 239 114 239 255 0 141-107 255-239 255-132 0-239-114-239-255 0-141 107-255 239-255"/><path d="m-48 13367c132 0 239 114 239 255 0 141-107 255-239 255-132 0-239-114-239-255 0-141 107-255 239-255"/><path d="m1295 13367c132 0 239 114 239 255 0 141-107 255-239 255-132 0-239-114-239-255 0-141 107-255 239-255"/><path d="m2639 13367c132 0 239 114 239 255 0 141-107 255-239 255-132 0-239-114-239-255 0-141 107-255 239-255"/><path d="m3982 13367c132 0 239 114 239 255 0 141-107 255-239 255-132 0-239-114-239-255 0-141 107-255 239-255"/><path d="m5326 13367c132 0 239 114 239 255 0 141-107 255-239 255-132 0-239-114-239-255 0-141 107-255 239-255"/><path d="m6669 13367c132 0 239 114 239 255 0 141-107 255-239 255-132 0-239-114-239-255 0-141 107-255 239-255"/><path d="m8013 13367c132 0 239 114 239 255 0 141-107 255-239 255-132 0-239-114-239-255 0-141 107-255 239-255"/><path d="m9356 13367c132 0 239 114 239 255 0 141-107 255-239 255-132 0-239-114-239-255 0-141 107-255 239-255"/><path d="m638 14260c132 0 239 114 239 255 0 141-107 255-239 255-132 0-239-114-239-255 0-141 107-255 239-255"/><path d="m1982 14260c132 0 239 114 239 255 0 141-107 255-239 255-132 0-239-114-239-255 0-141 107-255 239-255"/><path d="m3325 14260c132 0 239 114 239 255 0 141-107 255-239 255-132 0-239-114-239-255 0-141 107-255 239-255"/><path d="m4669 14260c132 0 239 114 239 255 0 141-107 255-239 255-132 0-239-114-239-255 0-141 107-255 239-255"/><path d="m6012 14260c132 0 239 114 239 255 0 141-107 255-239 255-132 0-239-114-239-255 0-141 107-255 239-255"/><path d="m7356 14260c132 0 239 114 239 255 0 141-107 255-239 255-132 0-239-114-239-255 0-141 107-255 239-255"/><path d="m8700 14260c132 0 239 114 239 255 0 141-107 255-239 255-132 0-239-114-239-255 0-141 107-255 239-255"/><path d="m10043 14260c132 0 239 114 239 255 0 141-107 255-239 255-132 0-239-114-239-255 0-141 107-255 239-255"/><path d="m11387 14260c132 0 239 114 239 255 0 141-107 255-239 255-132 0-239-114-239-255 0-141 107-255 239-255"/><path d="m-48 15026c132 0 239 114 239 255 0 141-107 255-239 255-132 0-239-114-239-255 0-141 107-255 239-255"/><path d="m1295 15026c132 0 239 114 239 255 0 141-107 255-239 255-132 0-239-114-239-255 0-141 107-255 239-255"/><path d="m2639 15026c132 0 239 114 239 255 0 141-107 255-239 255-132 0-239-114-239-255 0-141 107-255 239-255"/><path d="m3982 15026c132 0 239 114 239 255 0 141-107 255-239 255-132 0-239-114-239-255 0-141 107-255 239-255"/><path d="m5326 15026c132 0 239 114 239 255 0 141-107 255-239 255-132 0-239-114-239-255 0-141 107-255 239-255"/><path d="m6669 15026c132 0 239 114 239 255 0 141-107 255-239 255-132 0-239-114-239-255 0-141 107-255 239-255"/><path d="m8013 15026c132 0 239 114 239 255 0 141-107 255-239 255-132 0-239-114-239-255 0-141 107-255 239-255"/><path d="m9356 15026c132 0 239 114 239 255 0 141-107 255-239 255-132 0-239-114-239-255 0-141 107-255 239-255"/><path d="m638 15919c132 0 239 114 239 255 0 141-107 255-239 255-132 0-239-114-239-255 0-141 107-255 239-255"/><path d="m1982 15919c132 0 239 114 239 255 0 141-107 255-239 255-132 0-239-114-239-255 0-141 107-255 239-255"/><path d="m3325 15919c132 0 239 114 239 255 0 141-107 255-239 255-132 0-239-114-239-255 0-141 107-255 239-255"/><path d="m4669 15919c132 0 239 114 239 255 0 141-107 255-239 255-132 0-239-114-239-255 0-141 107-255 239-255"/><path d="m6012 15919c132 0 239 114 239 255 0 141-107 255-239 255-132 0-239-114-239-255 0-141 107-255 239-255"/><path d="m7356 15919c132 0 239 114 239 255 0 141-107 255-239 255-132 0-239-114-239-255 0-141 107-255 239-255"/><path d="m8700 15919c132 0 239 114 239 255 0 141-107 255-239 255-132 0-239-114-239-255 0-141 107-255 239-255"/><path d="m10043 15919c132 0 239 114 239 255 0 141-107 255-239 255-132 0-239-114-239-255 0-141 107-255 239-255"/><path d="m11387 15919c132 0 239 114 239 255 0 141-107 255-239 255-132 0-239-114-239-255 0-141 107-255 239-255"/><path d="m-48 16685c132 0 239 114 239 255 0 141-107 255-239 255-132 0-239-114-239-255 0-141 107-255 239-255"/><path d="m1295 16685c132 0 239 114 239 255 0 141-107 255-239 255-132 0-239-114-239-255 0-141 107-255 239-255"/><path d="m2639 16685c132 0 239 114 239 255 0 141-107 255-239 255-132 0-239-114-239-255 0-141 107-255 239-255"/><path d="m3982 16685c132 0 239 114 239 255 0 141-107 255-239 255-132 0-239-114-239-255 0-141 107-255 239-255"/><path d="m5326 16685c132 0 239 114 239 255 0 141-107 255-239 255-132 0-239-114-239-255 0-141 107-255 239-255"/><path d="m6669 16685c132 0 239 114 239 255 0 141-107 255-239 255-132 0-239-114-239-255 0-141 107-255 239-255"/><path d="m8013 16685c132 0 239 114 239 255 0 141-107 255-239 255-132 0-239-114-239-255 0-141 107-255 239-255"/><path d="m9356 16685c132 0 239 114 239 255 0 141-107 255-239 255-132 0-239-114-239-255 0-141 107-255 239-255"/><path d="m638 17578c132 0 239 114 239 255 0 141-107 255-239 255-132 0-239-114-239-255 0-141 107-255 239-255"/><path d="m1982 17578c132 0 239 114 239 255 0 141-107 255-239 255-132 0-239-114-239-255 0-141 107-255 239-255"/><path d="m3325 17578c132 0 239 114 239 255 0 141-107 255-239 255-132 0-239-114-239-255 0-141 107-255 239-255"/><path d="m4669 17578c132 0 239 114 239 255 0 141-107 255-239 255-132 0-239-114-239-255 0-141 107-255 239-255"/><path d="m6012 17578c132 0 239 114 239 255 0 141-107 255-239 255-132 0-239-114-239-255 0-141 107-255 239-255"/><path d="m7356 17578c132 0 239 114 239 255 0 141-107 255-239 255-132 0-239-114-239-255 0-141 107-255 239-255"/><path d="m8700 17578c132 0 239 114 239 255 0 141-107 255-239 255-132 0-239-114-239-255 0-141 107-255 239-255"/><path d="m10043 17578c132 0 239 114 239 255 0 141-107 255-239 255-132 0-239-114-239-255 0-141 107-255 239-255"/><path d="m11387 17578c132 0 239 114 239 255 0 141-107 255-239 255-132 0-239-114-239-255 0-141 107-255 239-255"/><path d="m-48 18343c132 0 239 114 239 255 0 141-107 255-239 255-132 0-239-114-239-255 0-141 107-255 239-255"/><path d="m1295 18343c132 0 239 114 239 255 0 141-107 255-239 255-132 0-239-114-239-255 0-141 107-255 239-255"/><path d="m2639 18343c132 0 239 114 239 255 0 141-107 255-239 255-132 0-239-114-239-255 0-141 107-255 239-255"/><path d="m3982 18343c132 0 239 114 239 255 0 141-107 255-239 255-132 0-239-114-239-255 0-141 107-255 239-255"/><path d="m5326 18343c132 0 239 114 239 255 0 141-107 255-239 255-132 0-239-114-239-255 0-141 107-255 239-255"/><path d="m6669 18343c132 0 239 114 239 255 0 141-107 255-239 255-132 0-239-114-239-255 0-141 107-255 239-255"/><path d="m8013 18343c132 0 239 114 239 255 0 141-107 255-239 255-132 0-239-114-239-255 0-141 107-255 239-255"/><path d="m9356 18343c132 0 239 114 239 255 0 141-107 255-239 255-132 0-239-114-239-255 0-141 107-255 239-255"/><path d="m638 19237c132 0 239 114 239 255 0 141-107 255-239 255-132 0-239-114-239-255 0-141 107-255 239-255"/><path d="m1982 19237c132 0 239 114 239 255 0 141-107 255-239 255-132 0-239-114-239-255 0-141 107-255 239-255"/><path d="m3325 19237c132 0 239 114 239 255 0 141-107 255-239 255-132 0-239-114-239-255 0-141 107-255 239-255"/><path d="m4669 19237c132 0 239 114 239 255 0 141-107 255-239 255-132 0-239-114-239-255 0-141 107-255 239-255"/><path d="m6012 19237c132 0 239 114 239 255 0 141-107 255-239 255-132 0-239-114-239-255 0-141 107-255 239-255"/><path d="m7356 19237c132 0 239 114 239 255 0 141-107 255-239 255-132 0-239-114-239-255 0-141 107-255 239-255"/><path d="m8700 19237c132 0 239 114 239 255 0 141-107 255-239 255-132 0-239-114-239-255 0-141 107-255 239-255"/><path d="m10043 19237c132 0 239 114 239 255 0 141-107 255-239 255-132 0-239-114-239-255 0-141 107-255 239-255"/><path d="m11387 19237c132 0 239 114 239 255 0 141-107 255-239 255-132 0-239-114-239-255 0-141 107-255 239-255"/><path d="m-48 20002c132 0 239 114 239 255 0 141-107 255-239 255-132 0-239-114-239-255 0-141 107-255 239-255"/><path d="m1295 20002c132 0 239 114 239 255 0 141-107 255-239 255-132 0-239-114-239-255 0-141 107-255 239-255"/><path d="m2639 20002c132 0 239 114 239 255 0 141-107 255-239 255-132 0-239-114-239-255 0-141 107-255 239-255"/><path d="m3982 20002c132 0 239 114 239 255 0 141-107 255-239 255-132 0-239-114-239-255 0-141 107-255 239-255"/><path d="m5326 20002c132 0 239 114 239 255 0 141-107 255-239 255-132 0-239-114-239-255 0-141 107-255 239-255"/><path d="m6669 20002c132 0 239 114 239 255 0 141-107 255-239 255-132 0-239-114-239-255 0-141 107-255 239-255"/><path d="m8013 20002c132 0 239 114 239 255 0 141-107 255-239 255-132 0-239-114-239-255 0-141 107-255 239-255"/><path d="m9356 20002c132 0 239 114 239 255 0 141-107 255-239 255-132 0-239-114-239-255 0-141 107-255 239-255"/><path d="m638 20895c132 0 239 114 239 255 0 141-107 255-239 255-132 0-239-114-239-255 0-141 107-255 239-255"/><path d="m1982 20895c132 0 239 114 239 255 0 141-107 255-239 255-132 0-239-114-239-255 0-141 107-255 239-255"/><path d="m3325 20895c132 0 239 114 239 255 0 141-107 255-239 255-132 0-239-114-239-255 0-141 107-255 239-255"/><path d="m4669 20895c132 0 239 114 239 255 0 141-107 255-239 255-132 0-239-114-239-255 0-141 107-255 239-255"/><path d="m6012 20895c132 0 239 114 239 255 0 141-107 255-239 255-132 0-239-114-239-255 0-141 107-255 239-255"/><path d="m7356 20895c132 0 239 114 239 255 0 141-107 255-239 255-132 0-239-114-239-255 0-141 107-255 239-255"/><path d="m8700 20895c132 0 239 114 239 255 0 141-107 255-239 255-132 0-239-114-239-255 0-141 107-255 239-255"/><path d="m10043 20895c132 0 239 114 239 255 0 141-107 255-239 255-132 0-239-114-239-255 0-141 107-255 239-255"/><path d="m11387 20895c132 0 239 114 239 255 0 141-107 255-239 255-132 0-239-114-239-255 0-141 107-255 239-255"/><path d="m-48 21661c132 0 239 114 239 255 0 141-107 255-239 255-132 0-239-114-239-255 0-141 107-255 239-255"/><path d="m1295 21661c132 0 239 114 239 255 0 141-107 255-239 255-132 0-239-114-239-255 0-141 107-255 239-255"/><path d="m2639 21661c132 0 239 114 239 255 0 141-107 255-239 255-132 0-239-114-239-255 0-141 107-255 239-255"/><path d="m3982 21661c132 0 239 114 239 255 0 141-107 255-239 255-132 0-239-114-239-255 0-141 107-255 239-255"/><path d="m5326 21661c132 0 239 114 239 255 0 141-107 255-239 255-132 0-239-114-239-255 0-141 107-255 239-255"/><path d="m6669 21661c132 0 239 114 239 255 0 141-107 255-239 255-132 0-239-114-239-255 0-141 107-255 239-255"/><path d="m8013 21661c132 0 239 114 239 255 0 141-107 255-239 255-132 0-239-114-239-255 0-141 107-255 239-255"/><path d="m9356 21661c132 0 239 114 239 255 0 141-107 255-239 255-132 0-239-114-239-255 0-141 107-255 239-255"/><path d="m638 22554c132 0 239 114 239 255 0 141-107 255-239 255-132 0-239-114-239-255 0-141 107-255 239-255"/><path d="m1982 22554c132 0 239 114 239 255 0 141-107 255-239 255-132 0-239-114-239-255 0-141 107-255 239-255"/><path d="m3325 22554c132 0 239 114 239 255 0 141-107 255-239 255-132 0-239-114-239-255 0-141 107-255 239-255"/><path d="m4669 22554c132 0 239 114 239 255 0 141-107 255-239 255-132 0-239-114-239-255 0-141 107-255 239-255"/><path d="m6012 22554c132 0 239 114 239 255 0 141-107 255-239 255-132 0-239-114-239-255 0-141 107-255 239-255"/><path d="m7356 22554c132 0 239 114 239 255 0 141-107 255-239 255-132 0-239-114-239-255 0-141 107-255 239-255"/><path d="m8700 22554c132 0 239 114 239 255 0 141-107 255-239 255-132 0-239-114-239-255 0-141 107-255 239-255"/><path d="m10043 22554c132 0 239 114 239 255 0 141-107 255-239 255-132 0-239-114-239-255 0-141 107-255 239-255"/><path d="m11387 22554c132 0 239 114 239 255 0 141-107 255-239 255-132 0-239-114-239-255 0-141 107-255 239-255"/><path d="m-48 23320c132 0 239 114 239 255 0 141-107 255-239 255-132 0-239-114-239-255 0-141 107-255 239-255"/><path d="m1295 23320c132 0 239 114 239 255 0 141-107 255-239 255-132 0-239-114-239-255 0-141 107-255 239-255"/><path d="m2639 23320c132 0 239 114 239 255 0 141-107 255-239 255-132 0-239-114-239-255 0-141 107-255 239-255"/><path d="m3982 23320c132 0 239 114 239 255 0 141-107 255-239 255-132 0-239-114-239-255 0-141 107-255 239-255"/><path d="m5326 23320c132 0 239 114 239 255 0 141-107 255-239 255-132 0-239-114-239-255 0-141 107-255 239-255"/><path d="m6669 23320c132 0 239 114 239 255 0 141-107 255-239 255-132 0-239-114-239-255 0-141 107-255 239-255"/><path d="m8013 23320c132 0 239 114 239 255 0 141-107 255-239 255-132 0-239-114-239-255 0-141 107-255 239-255"/><path d="m9356 23320c132 0 239 114 239 255 0 141-107 255-239 255-132 0-239-114-239-255 0-141 107-255 239-255"/><path d="m638 24213c132 0 239 114 239 255 0 141-107 255-239 255-132 0-239-114-239-255 0-141 107-255 239-255"/><path d="m1982 24213c132 0 239 114 239 255 0 141-107 255-239 255-132 0-239-114-239-255 0-141 107-255 239-255"/><path d="m3325 24213c132 0 239 114 239 255 0 141-107 255-239 255-132 0-239-114-239-255 0-141 107-255 239-255"/><path d="m4669 24213c132 0 239 114 239 255 0 141-107 255-239 255-132 0-239-114-239-255 0-141 107-255 239-255"/><path d="m6012 24213c132 0 239 114 239 255 0 141-107 255-239 255-132 0-239-114-239-255 0-141 107-255 239-255"/><path d="m7356 24213c132 0 239 114 239 255 0 141-107 255-239 255-132 0-239-114-239-255 0-141 107-255 239-255"/><path d="m8700 24213c132 0 239 114 239 255 0 141-107 255-239 255-132 0-239-114-239-255 0-141 107-255 239-255"/><path d="m10043 24213c132 0 239 114 239 255 0 141-107 255-239 255-132 0-239-114-239-255 0-141 107-255 239-255"/><path d="m11387 24213c132 0 239 114 239 255 0 141-107 255-239 255-132 0-239-114-239-255 0-141 107-255 239-255"/><path d="m-48 24979c132 0 239 114 239 255 0 141-107 255-239 255-132 0-239-114-239-255 0-141 107-255 239-255"/><path d="m1295 24979c132 0 239 114 239 255 0 141-107 255-239 255-132 0-239-114-239-255 0-141 107-255 239-255"/><path d="m2639 24979c132 0 239 114 239 255 0 141-107 255-239 255-132 0-239-114-239-255 0-141 107-255 239-255"/><path d="m3982 24979c132 0 239 114 239 255 0 141-107 255-239 255-132 0-239-114-239-255 0-141 107-255 239-255"/><path d="m5326 24979c132 0 239 114 239 255 0 141-107 255-239 255-132 0-239-114-239-255 0-141 107-255 239-255"/><path d="m6669 24979c132 0 239 114 239 255 0 141-107 255-239 255-132 0-239-114-239-255 0-141 107-255 239-255"/><path d="m8013 24979c132 0 239 114 239 255 0 141-107 255-239 255-132 0-239-114-239-255 0-141 107-255 239-255"/><path d="m9356 24979c132 0 239 114 239 255 0 141-107 255-239 255-132 0-239-114-239-255 0-141 107-255 239-255"/><path d="m638 25872c132 0 239 114 239 255 0 141-107 255-239 255-132 0-239-114-239-255 0-141 107-255 239-255"/><path d="m1982 25872c132 0 239 114 239 255 0 141-107 255-239 255-132 0-239-114-239-255 0-141 107-255 239-255"/><path d="m3325 25872c132 0 239 114 239 255 0 141-107 255-239 255-132 0-239-114-239-255 0-141 107-255 239-255"/><path d="m4669 25872c132 0 239 114 239 255 0 141-107 255-239 255-132 0-239-114-239-255 0-141 107-255 239-255"/><path d="m6012 25872c132 0 239 114 239 255 0 141-107 255-239 255-132 0-239-114-239-255 0-141 107-255 239-255"/><path d="m7356 25872c132 0 239 114 239 255 0 141-107 255-239 255-132 0-239-114-239-255 0-141 107-255 239-255"/><path d="m8700 25872c132 0 239 114 239 255 0 141-107 255-239 255-132 0-239-114-239-255 0-141 107-255 239-255"/><path d="m10043 25872c132 0 239 114 239 255 0 141-107 255-239 255-132 0-239-114-239-255 0-141 107-255 239-255"/><path d="m11387 25872c132 0 239 114 239 255 0 141-107 255-239 255-132 0-239-114-239-255 0-141 107-255 239-255"/><path d="m-48 26637c132 0 239 114 239 255 0 141-107 255-239 255-132 0-239-114-239-255 0-141 107-255 239-255"/><path d="m1295 26637c132 0 239 114 239 255 0 141-107 255-239 255-132 0-239-114-239-255 0-141 107-255 239-255"/><path d="m2639 26637c132 0 239 114 239 255 0 141-107 255-239 255-132 0-239-114-239-255 0-141 107-255 239-255"/><path d="m3982 26637c132 0 239 114 239 255 0 141-107 255-239 255-132 0-239-114-239-255 0-141 107-255 239-255"/><path d="m5326 26637c132 0 239 114 239 255 0 141-107 255-239 255-132 0-239-114-239-255 0-141 107-255 239-255"/><path d="m6669 26637c132 0 239 114 239 255 0 141-107 255-239 255-132 0-239-114-239-255 0-141 107-255 239-255"/><path d="m8013 26637c132 0 239 114 239 255 0 141-107 255-239 255-132 0-239-114-239-255 0-141 107-255 239-255"/><path d="m9356 26637c132 0 239 114 239 255 0 141-107 255-239 255-132 0-239-114-239-255 0-141 107-255 239-255"/><path d="m638 27531c132 0 239 114 239 255 0 141-107 255-239 255-132 0-239-114-239-255 0-141 107-255 239-255"/><path d="m1982 27531c132 0 239 114 239 255 0 141-107 255-239 255-132 0-239-114-239-255 0-141 107-255 239-255"/><path d="m3325 27531c132 0 239 114 239 255 0 141-107 255-239 255-132 0-239-114-239-255 0-141 107-255 239-255"/><path d="m4669 27531c132 0 239 114 239 255 0 141-107 255-239 255-132 0-239-114-239-255 0-141 107-255 239-255"/><path d="m6012 27531c132 0 239 114 239 255 0 141-107 255-239 255-132 0-239-114-239-255 0-141 107-255 239-255"/><path d="m7356 27531c132 0 239 114 239 255 0 141-107 255-239 255-132 0-239-114-239-255 0-141 107-255 239-255"/><path d="m8700 27531c132 0 239 114 239 255 0 141-107 255-239 255-132 0-239-114-239-255 0-141 107-255 239-255"/><path d="m10043 27531c132 0 239 114 239 255 0 141-107 255-239 255-132 0-239-114-239-255 0-141 107-255 239-255"/><path d="m11387 27531c132 0 239 114 239 255 0 141-107 255-239 255-132 0-239-114-239-255 0-141 107-255 239-255"/><path d="m-48 28296c132 0 239 114 239 255 0 141-107 255-239 255-132 0-239-114-239-255 0-141 107-255 239-255"/><path d="m1295 28296c132 0 239 114 239 255 0 141-107 255-239 255-132 0-239-114-239-255 0-141 107-255 239-255"/><path d="m2639 28296c132 0 239 114 239 255 0 141-107 255-239 255-132 0-239-114-239-255 0-141 107-255 239-255"/><path d="m3982 28296c132 0 239 114 239 255 0 141-107 255-239 255-132 0-239-114-239-255 0-141 107-255 239-255"/><path d="m5326 28296c132 0 239 114 239 255 0 141-107 255-239 255-132 0-239-114-239-255 0-141 107-255 239-255"/><path d="m6669 28296c132 0 239 114 239 255 0 141-107 255-239 255-132 0-239-114-239-255 0-141 107-255 239-255"/><path d="m8013 28296c132 0 239 114 239 255 0 141-107 255-239 255-132 0-239-114-239-255 0-141 107-255 239-255"/><path d="m9356 28296c132 0 239 114 239 255 0 141-107 255-239 255-132 0-239-114-239-255 0-141 107-255 239-255"/></g><g><g fill="#fff" stroke="#fff" stroke-linejoin="round" stroke-linecap="round" stroke-width="50"><path d="m4931 13898c23-135 33-9 7-170l430-2c21 71 77 113 105 148 13 16 7 7 16 24h-558zm470-294c38-21 76-53 129-70 261-82 340 199 398 114 25-37-63-155-28-334 21-109 89-204 154-241 92 63 156 126 171 249 31 243-92 279-80 329 46 82 87-20 111-51 75-95 207-123 320-84 44 15 121 57 143 83-23 100-88 178-170 227-118 70-305 29-323 43-85 69 113 67 211 195 80 105 69 280 14 357-143 19-205-46-271-142-118-169-42-300-156-262-13 55-1 132-17 190-49 185-255 250-354 219-20-118-19-239 27-334 54-113 176-151 206-172l-8-55c-83-22-176 64-317-17-64-37-146-138-160-245zm-2726-2220h-845v5840h2013c16-98 79-268 111-369l345-1060c120-352 230-714 349-1056 38-110 87-243 115-350l807 6c24 62 1 83 40 107 58 36 339 2 436-191l34-64c80 247 361 299 428 237 47-44 132-392-77-525 20-17 52-20 78-28 57-18 135-69 172-110 32-35 136-181 114-259-22-36-154-106-216-125-124-37-175-6-278 27 6-134-2-227-59-317-36-58-167-164-203-157-24 5-88 60-103 79-100 119-128 272-109 440-75-29-113-69-220-66-84 2-153 36-207 75-44 31-40 29-108 29l-406 3-372-1352 447 5 1-818h-862l307 609c25 47 86 157 101 205-94 148-187 295-286 440-49 72-92 147-143 220-34 49-690 1053-704 1094-22-16-29-31-44-56l-986-1587c-23-38-49-73-64-113l395-812z"/><path d="m3349 12716c-217 77-109 400 94 337 72-23 139-114 110-219-21-77-104-153-204-118z"/><path d="m3351 11877c-125 48-144 185-75 276l15 17c7 6 14 12 23 19 39 28 93 37 142 19 196-71 106-413-104-332z"/><path d="m6021 13788l15-6c35-23 69-2 79 31 12 39-3 73-27 84-74 36-127-65-67-109zm-4-84c-181 72-72 330 86 269 164-63 77-334-86-269z"/></g><g fill="#201e1e"><path d="m3349 12716c100-35 183 41 204 118 28 105-38 196-110 219-202 63-311-260-94-337m2-839c211-81 301 261 104 332-49 18-103 9-142-19-9-7-16-12-23-19l-15-17c-69-91-50-228 75-276zm-1071 318c15 40 41 75 64 113l986 1587c15 25 21 40 44 56 14-41 671-1045 704-1094 51-73 94-148 143-220 99-145 192-291 286-440-15-48-76-158-101-205l-307-609h862l-1 818-447-5 372 1352 406-3c68 0 65 2 108-29 54-38 124-72 207-75 107-3 145 37 220 66-19-168 9-321 109-440 16-18 79-74 103-79 36-7 166 99 203 157 56 90 64 183 59 317 103-33 154-64 278-27 62 19 194 89 216 125 22 78-82 224-114 259-37 41-115 92-172 110-26 8-58 11-78 28 209 133 124 481 77 525-67 62-348 10-428-237l-34 64c-96 193-377 227-436 191-39-24-16-45-40-107l-807-6c-28 107-77 240-115 350-119 342-230 704-349 1056l-345 1060c-33 100-96 271-111 369h-2013v-5840h845l-395 812zm-643-794v5792c0 100 34 158 89 200 63 47 147 34 252 34 562 0 1124 0 1686 0 32 127 291 87 405 87h1532c170 0 320-9 494-9h1021c94 0 160 9 221-33 154-105 81-245 50-343-19-60-34-108-55-166-20-56-38-108-56-165-20-61-36-108-55-167-95-305-235-675-330-980l-333-995c35-50 65-13 122-164 83-223 44-301 8-468 23-6 81-58 99-76l76-101c77-124 156-296 34-419-58-58-196-133-277-154-149-40-175 4-175-55 0-50 54-188 70-246 28-105 214-668 214-741 0-69-30-131-68-161-57-46-88-47-183-46-71 1-130-9-211-9-371 0-749-17-1110-17v-563c0-137-65-251-178-251h-3177c-71 0-162 94-162 216z"/><path d="m6017 13704c164-65 250 206 86 269-159 61-267-198-86-269m-616-100c15 107 96 208 160 245 141 81 234-6 317 17l8 55c-30 21-152 59-206 172-46 95-47 215-27 334 98 32 305-34 354-219 15-58 4-135 17-190 114-37 38 93 156 262 67 96 129 161 271 142 56-77 66-252-14-357-98-128-296-127-211-195 18-14 205 27 323-43 82-48 147-127 170-227-22-26-99-68-143-83-113-39-244-10-320 84-25 31-65 133-111 51-12-51 111-86 80-329-16-123-79-185-171-249-65 37-133 132-154 241-35 179 54 297 28 334-58 85-137-196-398-114-53 17-91 49-129 70z"/><path d="m4931 13898h558c-9-17-2-7-16-24-28-35-84-77-105-148l-430 2c27 161 16 35-7 170"/></g><path d="m6021 13788c-60 44-7 145 67 109 24-12 40-45 27-84-8-47-60-55-94-24z" fill="#fff"/></g></g></g><g font-family="&apos;Harrington&apos;" font-size="1708" transform="matrix(.93595 0 0 1-8095.91 8736.72)"><text x="10500" y="14850" fill="#fff" stroke="#fff" stroke-linejoin="round" stroke-linecap="round" stroke-width="300">Texto 01</text><text x="10500" y="14850" fill="#201e1e" stroke="#201e1e" stroke-width="75">Texto 01</text></g><rect x="3857" y="19923" width="1642" height="657" rx="821" ry="328.5" fill="#fff" stroke="#fff" stroke-width="7.62"/><text x="10500" y="14850" fill="#201e1e" font-family="&apos;Arial Black&apos;" font-weight="900" font-size="637.98" transform="matrix(.93595 0 0 1-5916.01 5634.17)">NN 1</text><g font-family="&apos;Harrington&apos;" stroke-linejoin="round" stroke-linecap="round"><text x="10500" y="14850" fill="#fff" stroke="#fff" stroke-width="400" font-size="665.29" transform="matrix(1.42253 0 0 1-1026.18 10601.7)">00.00.0000</text><text x="10500" y="14850" fill="#201e1e" stroke="#201e1e" stroke-width="75" font-size="611.35" transform="matrix(1.04788 0 0 1 3659.57 10568.1)">00.00.0000</text><text x="10500" y="14850" fill="#fff" stroke="#fff" stroke-width="400" font-size="665.29" transform="matrix(1.42253 0 0 1-12667.9 10601.7)">00.00.0000</text><text x="10500" y="14850" fill="#201e1e" stroke="#201e1e" stroke-width="75" font-size="611.35" transform="matrix(1.04788 0 0 1-7982.11 10568.1)">00.00.0000</text></g><g fill="#373435" font-family="&apos;Arial&apos;" font-size="423.33"><text x="1447" y="28537">DESC 2</text><text x="1447" y="27973">DESC 1</text><text x="1447" y="29066">DESC 3</text></g></svg>