<svg xmlns="http://www.w3.org/2000/svg" width="744.09" height="1052.36" viewBox="0 0 21000 29700" shape-rendering="geometricPrecision" image-rendering="optimizeQuality" fill-rule="evenodd" clip-rule="evenodd"><defs><clipPath id="0"><path d="m15492 17299c-483-227-645-686-699-1163-51-448-56-907-51-1357 6-502 28-1004 44-1506 17-545 29-1092 5-1637-22-488-72-993-202-1467-244-889-640-1732-835-2634-59-276-106-555-140-835-38-311-61-625-65-938-9-770 101-1895 784-2422 431-333 984-342 1506-232 774 164 1509 502 2098 1005 415 355 746 783 967 1268 244 534 342 1106 319 1686-11 297-28 594-48 890-57 840-143 1679-222 2518-89 944-167 1887-212 2834-12 257-13 515-16 772-3 305-7 611-19 916-15 373-39 755-103 1124-44 256-120 587-272 807-145 209-389 347-631 434-292 106-621 154-933 162-414 11-902-49-1275-224z"/></clipPath><clipPath id="1"><path d="m5605 17264c483-227 645-686 699-1163 51-448 56-907 51-1357-6-502-28-1004-44-1506-17-545-29-1092-5-1637 22-488 72-993 202-1467 244-889 640-1732 835-2634 59-276 106-555 140-835 38-311 61-625 65-938 9-770-101-1895-784-2422-431-333-984-342-1506-232-774 164-1509 502-2098 1005-415 355-746 783-967 1268-244 534-342 1106-319 1686 11 297 28 594 48 890 57 840 143 1679 222 2518 89 944 167 1887 212 2834 12 257 13 515 16 772 3 305 7 611 19 916 15 373 39 755 103 1124 44 256 120 587 272 807 145 209 389 347 631 434 292 106 621 154 933 162 414 11 902-49 1275-224z"/></clipPath></defs><text x="10046" y="19022" fill="#201e1e" font-family="&apos;Arial Black&apos;" stroke="#201e1e" font-weight="900" stroke-width="7.62" font-size="705.56">24</text><g fill="none" stroke-width="80"><g stroke="#322f30"><circle cx="10533" cy="1326" r="460"/><path d="m10533 515v1621"/><path d="m9723 1326h1621"/></g><g stroke="#373435"><circle cx="10498" cy="20686" r="460"/><path d="m10498 19875v1621"/><path d="m9688 20686h1620"/></g></g><g fill="#fff" stroke="#fff" stroke-width="20"><rect x="9843" y="17476" width="1347" height="637" rx="318"/><rect x="9843" y="22866" width="1347" height="637" rx="318"/></g><g fill="#201e1e" font-family="&apos;Arial&apos;" font-size="423.33"><text x="1793" y="27404">DESC 1</text><text x="1801" y="27813">DESC 2</text><text x="1803" y="28210">DESC 3</text></g><path d="m15492 17299c-483-227-645-686-699-1163-51-448-56-907-51-1357 6-502 28-1004 44-1506 17-545 29-1092 5-1637-22-488-72-993-202-1467-244-889-640-1732-835-2634-59-276-106-555-140-835-38-311-61-625-65-938-9-770 101-1895 784-2422 431-333 984-342 1506-232 774 164 1509 502 2098 1005 415 355 746 783 967 1268 244 534 342 1106 319 1686-11 297-28 594-48 890-57 840-143 1679-222 2518-89 944-167 1887-212 2834-12 257-13 515-16 772-3 305-7 611-19 916-15 373-39 755-103 1124-44 256-120 587-272 807-145 209-389 347-631 434-292 106-621 154-933 162-414 11-902-49-1275-224z" fill="#fff"/><g clip-path="url(#0)"><g fill="#201e1e"><g stroke="#201e1e" stroke-linejoin="round" stroke-linecap="round" stroke-width="50"><path d="m15615 13367c4 42 9 33-26 34 8-21 10-20 26-34zm20 29c0-60-4-58 34-88 21-17 47-35 71-45-8 144-6 140-105 133zm252-5l-154 1c15-58 26-73 28-143l129-75c4 67-15 139-39 185 29-51 53-73 60-161 3-36-4-37 19-58 80-74 69-56 127-174l108-10c47 60 210 403 235 493-60-1-159-24-227-32-84-11-164-15-248-23 10-32 32-66 46-110 14-45 21-89 17-140-17 113-61 169-101 247zm216-541l38 60c-26-10-34-25-38-60zm-272-405c18 26 40 53 62 84 14 21 56 72 61 97-21-9-62-48-115-74l-8-107zm-102-70c28 10 64 31 82 52l9 102c-29-10-56-35-74-52-32-31-18-43-17-102zm-741 1219c6 60-9 174-4 194 7 25-10 6 12 20 103-48 285-146 409-150l14 130 3-133 103-17c-42 38-80 96-85 168 21-30 68-166 176-174 239-17 608 50 853 112l32 14c25 48 71 282 84 354 180 985 56 1921-33 2903l1118-516c58-250-247-1279-321-1528-120-400-320-998-466-1380 1-1 3-4 4-3 5 11 37-60 40-66 84-197 170-376 253-583 130-326 279-730 332-1093 9-58 5-47 51-68 224-100 541-280 681-487 12-18 38-49 46-67l23 103c-34 34-67 64-81 128 41-57 12-32 79-105 18 25 16 95 13 123-28 24-66 63-77 103 34-46 28-38 72-73 1 57-27 105-46 155 72-99 76-247 55-374-3-20-8-42-11-64-6-45 1-39 10-73 11 10 7 3 14 18l66 168c49 150-3 298-95 401l-93 104c-6 6-11 10-17 16-2 1-6 5-8 6-10 7-2 2-12 8l9 7c3 2 77-63 84-71 179-180 221-345 106-586-18-38-51-67-30-110 14-29 36-91 52-114 33 16 98 85 119 117 97 144 120 377 166 558l17-103c10-79-25-194-39-270 49 17 123 57 170 83 32 18 48 35 74 56 46 38 45 46 64 62-44-102-176-196-291-240-46-17-35-29-54-78-28-72-113-241-151-258 94-101 306 21 425 31l122-6c25-4 13 2 23-13-25 3-38 14-60-3 14-12 28-21 34-45-33 11-43 35-63 55-37-1-89-7-118-26 15-15 31-29 51-45 18-14 44-26 60-38-71 6-113 61-131 70-19 10-51-8-67-14-29-11-58-16-75-33 33-14 37-28 67-52 17-14 48-32 76-34-65-8-108 41-154 74-28 20-72 3-114 5-44 2-69 12-109 20 16-91 45-188 63-284 35-189 61-405 107-588 25-98 58-174 86-260 47 31 31 61 55 147l-7-91 48 35c19-13 13-4-2-24-19-15-124-108-50-124 5-1 25-1 31-1 99-3 96-43 143-10 52 36 97 61 174 55-65-15-125-38-167-77l133-71c34 21 71 50 117 54-7-20-24-20-43-32-17-12-37-24-49-35 35-27 86-32 102-49l-10-3c-8-1 0-2-16-1-100 8-261 153-402 123 14-44 62-97 90-130 17-20 35-39 54-58 25-26 161-134 196-150 29-14 46-18 73-38 48-36 37-17 61-59l-3-6v-24c-57 61-19 27-90 63-33 17-71 42-103 53 31-107 18-61 95-109 32-20 94-62 105-101-10 9-22 20-33 30-28 24-102 63-132 72l29-176c36-18 62-26 91-51 28-24 53-41 66-75-11 9-15 15-29 28-27 26-87 56-123 65 24-192 56-136 142-194l28-22c-1-1-3-7-3-5 0 2-3-2-5-3l-10 9c-28 23-55 27-95 38 20-54 58-79 74-116-31 19-97 114-119 165-66 155-63 336-128 445-56 93-164 125-283 287-37 51-78 120-108 183-54 116-124 299-146 434l-29-31c-41-55-1-63-36-134l7 98-69-50-4-70c0 0 0 1 0 2l-4 60c-31-13-31-18-54-36v-7c28 79 160 97 173 224-41 2-73-3-116 4-91 15-54 38-132-9-45-27-92-44-146-46l44 20c39 14 89 40 119 69-27 11-137 76-153 72-8-2-51-32-73-42-18-8-26-11-44-15-28-6 5 1-11-2l-11-2c-15-2-15-2-31-2 17 11-1 1 19 9 44 16 96 37 128 73-42 16-86 43-139 45-38-26-78-67-135-70 19 12 36 17 58 34 15 11 39 26 44 43-83 4-137-13-211-26 370 145 504-152 735-105 27 6 27 10 42-8-17 164-120 483-187 631-41 91-107 196-158 251-44 46-158 144-228 173 185-240 95-349 156-520 22-62 58-109 97-129l-9-5c0 0-32 20-41 28-176 152-15 323-225 605-40 54-93 97-181 123 22-90 25-66 92-109 34-22 81-62 94-97-21 35-99 84-152 100 34-200-4-119 98-190l61-57c-13-14-11 6-57 34-18 11-50 25-71 32 16-144 39-123 94-150l49-40c-22 10-57 26-91 34 14-47 90-124 118-148-70 37-161 165-191 287-21 84-43 326-141 340 10-394-44-704-151-1046-82-263-191-496-304-738-7-14-4-10-8-22-7-26-34-41-34-72 154-6 48-27 154 44 41 27 88 57 147 58-56-35-132-63-179-121l165-55c23 16 32 32 61 49 48 29 74 35 123 50 26 8 21 20 70 75 1 2 6 6 7 8 11 14-1-5 11 16l-52 16-20-57 7 63c-127 27-235 13-356-34-37-14-70-37-100-49 5 9 1 4 9 14 3 4 7 8 10 11l67 47c122 75 247 75 381 49 24 47 35 85 63 129 116 187 238 152 415 141-91-37-181 31-305-48-58-37-127-138-152-225 73-54 217-32 295-3 95 36 139 97 200 173 1 1 3 3 4 4 1 1 3 3 4 4 1 1 3 3 4 4-15-67-88-147-133-174-76-46-133-50-228-67 119-68 229-88 349-10-93-129-267-73-384-22-54 24-89 8-125-39-4-6-11-17-13-20-10-12-4-7-19-13-55-20-120-53-157-106 52-13 96-30 153-28 31 37 73 89 137 98-37-33-83-50-105-98 90 3 133 32 200 48-74-58-250-80-366-54-113 25-243 92-365 74l-50-92c26-64 94-131 152-303 23-68 14-49 77-72 124-46 296-184 329-281-52 42-104 105-167 142-41 24-167 90-206 101l59-326c14-99 50-29 211-153 64-50 115-93 145-167-1 1-3 1-4 3l-69 65c-53 42-106 75-170 104-29 13-67 34-95 44 9-91 41-182 72-265 15-40 13-56 54-64 87-17 241-90 276-175-79 42-61 77-275 130 19-56 116-177 147-211 31-33 56-58 89-88 32-30 64-54 95-81-87 33-241 201-291 265-71 91-147 232-193 376-99 314-89 652-290 846-27-25-47-78-63-109l-183-335c-205-383-406-765-547-1187-25-76-64-195-76-276 35-17 25-30 63-6 75 46 147 62 234 67 28 55 110 146 188 157-43-14-144-122-157-157l179-18c24 63 93 115 153 134-20-19-47-38-69-63-17-20-50-50-55-76 35-2 66-4 102-2 47 3 46-1 66 36 18 33 73 92 109 100-33-14-77-77-93-120 60 9 157 66 184 93l8-4c1-3-63-44-78-54-30-19-52-30-86-42-175-65-290-15-463-26-93-6-129-36-182-81 40-56 164-123 264-306 49-91 79-14 291-117 34-16 76-40 102-61 20-16 32-26 46-39 11-10 10-10 18-21 7-9 10-15 20-25-5-8-24 16-42 29-118 78-242 109-383 138 11-44 52-122 71-172 23-58 43-119 64-180 131-18 261-55 360-146l37-45c-19 10-46 31-78 48-92 51-194 64-294 91 10-69 119-254 154-292 37-19 235 17 355-131-71 59-208 93-321 85 18-11 55-61 80-83 167-145 149-112 310-210-112 16-318 176-381 243-319 341-274 516-456 813-52 84-74 121-138 177-42 37-138 102-203 111-95-262 66-360 83-603 5-75-2-186-28-233 10 66 20 101 18 183-34-22-48-70-73-107 9 74 44 88 65 136 13 30-21 128-35 155-68-110-84-126-64-292 14-111 32-224 55-328 43 33 99 154 119 202 185 435-127 520-143 711 2-30 70-109 88-129 199-221 159-532-15-752-51-64-59-89 4-145 76-67 146-95 246-87l-27-13c-11-4-25-6-38-7-81-6-134 40-196 72l45-170c42 4 154 54 182 76l7-3c1-3-70-47-84-55-28-16-72-31-93-48 9-65 80-250 106-318 40-104 83-206 122-309 74-1 84-63 66-126-12-38-8-19-25-46 38 9-2 16 62 7 38-5 42-16 81-20 74-8 64 37 135 50-21-18-52-39-72-52 15-16 69-39 88-29 31 16 39 39 88 43-31-12-53-31-75-50 6-6 3-4 13-9 15-8 40-14 56-10 16 4 1-2 12 5l7 6c16 14 14 17 36 26l-41-48c-100-2-155 44-247 46 8-43-6-59-19-84 9-25 29-57 43-91 24-58 3-49 58-72 34-14 55-27 82-49 30-25 51-39 67-75-2 1-4 1-5 3-6 19-160 96-173 101l34-190c71-39 139-65 182-146-38 48-105 90-176 114 33-262 123-123 208-259-46 35-76 51-141 66 19-48 128-179 170-194-94 27-214 217-249 323-50 154-52 351-150 442-61 0-60-4-108 21 15-25 55-24 77-62 37-64 34-193-74-132-45 25-34 43-66 80-37-204-220-135-123 54-177-65-217 146-7 143-21 31-42 39-53 85-37 145 111 134 150 10l7-47c4-21-5-2 4-15 15 36-19 137 66 167-12 46-44 107-64 152-54 124-157 356-182 475-162-25-252-64-411 37-105 67-157 183-236 281 101-61 141-181 237-252 126-94 239-72 396-40-5 34-17 53-21 88-170-14-285 2-401 93-49 38-250 211-343 153-4-4 113-96 176-202 149-250 106-582 269-741 19-19 80-68 121-75-121-3-216 121-254 212-49 115-61 259-98 390-41 144-99 230-174 308-56 58-120 118-190 163-22 14-60 30-81 45 72-6 89-38 166-35 91 4 165-19 241-56 39-19 134 54 236 18-94-3-113-22-190-39 13-23 42-37 61-54 24-20 39-40 66-54 62 20 120 50 190 22-59-2-122-12-165-41l23-24c147-111 122 17 247-12-47-11-82-20-119-48 48-36 146-22 210-26-5 37-19 73-29 110-17 64-19 49-53 82l-35-49 23 59c-32 44-125 100-191 116-42 11-89 17-136 20-24 1-125-10-142 0 132 34 242 57 378-22 36-21 66-48 97-64 13 135-59 224-103 322-69 155-96 367 0 529 57 95 38 50 53 169 15 122 62 321 67 368-12-12-38-41-49-58 5-93 2-157-37-223 14 83 13 111 16 203-24-5-109-80-135-100 8-86 1-140-33-204 13 74 14 102 13 185-27-13-92-78-103-102-6-13 14-102-13-169 0 25 3 47 2 73 0 8-2 25-3 31-1 3-4 14-5 16-5 12-3 8-8 16-21-65-55-99-74-199 4 144 110 296 206 376 117 97 234 157 240 348-236 56-386-28-565-154-309-217-446-372-874-379-1-31 92-190 108-235 112-11 256 24 347 64 324 141 458 532 658 620l-96-118c-151-217-288-440-534-547-104-45-222-73-346-74 7-40 82-214 102-273l89-289c1 1 4 8 4 10 7 20 9 54 22 66 37 19 82 17 127 16 30 26 75 88 136 84-34-5-91-61-109-84l114-31c20 35 65 68 106 76-9-6-15-9-23-15-3-2-8-6-11-8 0 0-12-10-14-12-16-15-29-27-41-44l103-13c19 40 40 53 74 77l7-2c1-3-31-21-35-26-13-14-17-23-23-41 54 6 87 24 131 47-209-155-437 41-545-73 13-20 33-33 49-54 14-18 30-40 44-62 14-21 26-43 38-68 7-14 11-24 16-37 10-24 5-25 25-34 17-8 57-16 79-25 25-10 47-22 69-35 46-28 80-64 114-103-10-13-20 11-28 18-65 55-148 82-227 108l64-240c52-21 84-25 135-53 48-27 76-62 104-91l-5-8c-2 0-3 3-4 5-1 5-3 4-6 7-5 5-4 4-10 9-7 6-17 13-26 19-15 10-35 22-54 31-25 12-96 38-123 43 18-77 45-141 81-202 119-19 140-35 210-94-8-11-26 17-80 37-31 12-69 18-105 23 10-25 30-50 48-70 56-65 121-110 191-157-162 66-299 240-365 410-54 139-79 308-158 434-37 59-46 58-95 98 0-32 12-90 15-128 25-234-8-477-64-701-20-79-51-164-68-239 54-62 23-37 104-38 34 0 44-13 71 1 26 14 20 21 58 28-21-18-37-18-51-46 23-7 52-28 76-19 27 10 28 29 71 26-23-1-50-22-64-32l28-20c37-14 43 18 82 27-17-14-19-14-31-33 45-5 59 12 96 15-27 5-87-43-186-8-67 24-107 55-186 28 3-18 34-59 47-88 13-29 18-85 42-104l85-52c40-31 41-45 66-77l-3-8c-3-1-2 3-7 9l-26 26c-11 10-22 21-35 30-20 14-58 36-81 44 26-224-10-125 97-210 35-28 38-44 62-68l-60 43c-17 12-54 32-77 40 19-193 55-117 153-215l-26 13c-22 15-57 32-82 33l13-24c26-47 55-90 95-123l-5-6c-15 5-64 71-77 89l-17 23c-130 199-59 492-228 597-47-42-39-102-32-178 9-103-13-116-39-184 11 23 21 40 24 72-22-9-20-11-37-26 11 25 22 30 42 44l1 66c-21-11-39-28-49-48 11 33 27 45 44 66l-8 73c-53-38-68-94-100-170-13-31-81-168-81-190 20 81 134 302 142 374l5-30c49 68 21 17 41 99 9 38 44 74 33 101-23-45-33-105-56-151l-18-23c12 64 53 159 74 230 21 69 51 165 61 238-61-32-49-97-87-155-22-34-39-35-40-76-1-40-7-76-21-102l9 111c-29-11-54-40-79-56 2-65-17-93-18-118l7 104c-84-34-47-71-65-147l-5 65c-15-10-23-22-31-45-5-14-11-31-15-47 20 215 267 233 252 402-327 65-393-295-821-309-27-1-55 0-82 4-21 3-48 16-58 13 83 0 199-29 283 21-32 19-121 70-164 60 134 16 135-36 194-47 27-5 139 73 155 89-12 12-27 15-43 21-61 23-113 32-180 32 191 37 219-35 255-29 16 3 61 50 77 63 35 27 45 41 84 60-15 15-30 17-50 25-69 25-123 33-195 37 53 15 82 18 142 8 50-8 89-32 123-40 24-5 131 54 177 63 57 11 45 1 69 15-23 91-112 122-188 167-54 32-143 122-154 195 4-24 30-72 49-91 11-11 2-5 20-14l-6 72c48-109-28-62 93-145-4 47-8 72-25 109 27-31 30-75 45-117l88-44-9 97c6-23 16-45 21-74 9-52-1-31 33-59 112-94 7-96 162-103 54 240 72 518 25 767-7 38-15 79-24 115l-34 109c-13-16-49-53-53-66-12-41 5-66-24-106l11 95c-27-9-48-32-75-42 0-32-1-61-15-89-1-1-2-3-3-5l5 76c-66-28-55-54-63-124-8 23 0 35-12 57-16-20-24-41-36-67 45 181 232 178 251 322-45 4-77 2-122 12-34 8-79 35-109 20-77-38-110-68-215-57 151 37 112 44 203 76-17 20-48 32-72 47-100 62-53 49-154 10-40-15-62-20-106-21 28 23 109 37 150 76-18 17-111 67-142 59-32-8-62-62-143-64l13 8c35 18 73 37 101 66-90 16-139-1-220-9 120 57 305 22 417-38 128-69 209-143 379-124-16 81-94 238-126 311-279 18-526 113-753 269l-44 35c-29 20-63 46-88 72 68-43 104-70 182-108 65-32 136-62 208-90 140-54 301-108 462-120-2 24-72 150-87 180-23 45-18 53-72 59-46 5-68 16-104 24l134-14c-7 27-47 92-61 117-19 31-53 86-65 119-28-12-37-29-61-46-64-45-129-84-209-107-57-17-118-24-181-17-64 7-141 37-159 53 136-24 206-26 331 22 94 36 187 102 235 162-28 72-90 167-130 234-49 83-96 182-139 270l-46 94c-35 60-150 341-151 415l36 96c1 2 3 2 3 5 1 3 5 8 6 10l6 10c1 1 2 4 3 5 17-87 102-191 145-266 21-36 44-39 32-94 11 26-3 14 17 26 19-42 125-151 168-181 176-122 325-158 538-94 117 35 168 47 300 35-178 19-580-323-980 145-9 11-14 17-24 29l-31 41c-28 32 18-23-6 7-48 58-80 138-118 198 13-69 59-185 86-253 16-41 32-85 47-118 19-40 37-75 56-117 35-77 75-154 112-226 34-68 95-158 117-221 38 15 101 92 137 121 16 12 31 26 47 38 145 106 248 191 431 240 114 31 186 25 303 31-189 255-593 71-906 271-67 43-171 126-206 187 49-61 189-175 285-202-20 74-67 138-116 185 123-70 135-186 164-205 9-5 48-13 62-16 48-9 94-13 143-13-19 64-114 187-174 219 92-25 174-132 210-218l247-1c-34 73-111 178-176 226-22 16-236 156-240 157-137 35-344-54-527 23l-93 58c-13 12-17 8-11 31l9 2c36-3 104-78 246-76 100 2 204 19 310 20-6 14-119 122-191 263-32 62-33 39-17 114-7-19-5-20-17-35-54 90-60 305-49 427 15 162 50 257 47 425 16-109 29-171 16-293-19-179-40-324 6-502 35-136 222-386 299-404 103-24 147-23 239-72 173-91 208-183 251-214 17-12 99-36 114-33l-99 12c10-33 29-48 38-85-36 40-54 90-115 108-57 18-118 48-169 60 25-33 59-51 84-83 18-23 50-65 67-98 13-26 13-34 38-42 19-6 46-8 68-14 114-29 227-102 306-182 39-40 49-30 110-53 47-18 76-37 114-56-14-11-59 15-84 21-98 23-202 23-302 17-120-7-254-27-359-65-162-60-261-154-381-262-29-26-96-76-115-107 45-95 103-185 148-281 90-1 208 16 284 45-15 14-100 58-125 69-56 24-107 24-159 41 96 11 181-6 266-48 19-9 58-38 69-39 51-7 238 133 272 157-21 18-59 26-87 37-111 44-193 56-310 52 91 43 229 25 329-5 103-31 82-77 168-1l216 170c12 12 1-2 11 14-180 36-153 95-421 89l9 6c89 47 257 10 345-18 39-12 67-31 100-43 33-12 131 54 196 79 72 27 149 44 231 49-26 156-196 225-323 295-90 50-150 106-200 186-32 51-61 97-76 162 20-39 42-92 68-130 7-9 0 0 8-11 16-22 27-44 50-55 0 62-6 81-15 135l18-30c18-45 18-89 19-136 38-23 77-67 132-85-10 76-23 126-43 182l28-40c8-16 14-30 20-47 15-42 14-67 22-112 54-20 107-59 160-77-5 34-10 71-18 106l-22 71c0 1-4 8-4 8-4 7-5 8-7 10 1 2 3 3 3 6 2 12 9-7 10-9 94-170 29-187 92-233 79-58 104-102 156-191l64-1c32 67 70 186 100 262 68 170 145 343 227 507 38 77 92 164 120 244-79 6-130-24-190-57l-155-97c-105-65-278-107-407-57 70-8 149-17 218 2l-24 23c-7 5-20 13-28 18-45 24-33 8-60 27 30 0 56-7 82-17 103-43 44-69 204 28-45 48-124 39-164 68 101 4 116-21 190-48l144 100c-64 50-133 42-198 67 118 15 129-19 219-47 9-3 107 34 172 45 108 18-42 120-78 143-73 48-77 62-128 126l3 9c3 1 8-14 11-19 10-14 2-5 15-15l8 49c7-73 0-84 65-110-3 50-7 57-17 96 15-45 23-33 32-108 25-18 50-33 75-41-3 46-5 64-19 103 20-25 26-56 32-96 5-34 24-48 47-67 12-10-5 0 15-10 42 106 110 219 162 322 124 243 237 498 340 754 16 39 27 51 8 85-54 98-153 186-243 236-223 125-739 143-997 678-50-81-9-238 23-319 37-92 84-171 127-257 84-167 146-438 68-645 8 79 39 275 3 345-32-59-71-115-82-200-4 51 3 89 18 133 49 149 95 61 2 267-4 10-7 17-12 27l-21 24c-10-39-28-73-43-111-17-42-24-85-30-132-38 72 49 252 59 281l-126 221c-26-94-65-145-79-249l-6-36c-1-2-2-4-2-6 0-1-1-4-2-6-8 99 10 189 43 270 24 58 40 42 19 103-47 132-56 268-33 410 14 91-33 173-26 269 35-95 33-139 89-242 118-214 244-412 468-531 250-133 566-156 747-403 23-32 39-74 64-110 4 6 1-1 8 13l16 44c33 96 19 115 1 219-17 99-37 191-62 287-94 360-278 636-630 737-168 48-297 34-477 108-11 4-15 6-27 12-1 1-13 7-13 7l-16 13c156-30 94-24 267-39 334-29 615-151 788-446 42-72 71-129 104-213 74-183 82-317 110-526l9 15c32 70 70 267 83 337 75 415 52 795-53 1195-113 433-288 822-479 1214l-23 38c-3-4-183-373-271-509l-155-235c-17-24-39-50-56-76-34-50-72-103-109-149-40-50-76-93-116-140-23-27-110-122-119-146 35 1 58 35 92 51 37 18 67 30 111 28-27-13-56-19-85-36-14-8-24-17-38-27l-38-31c36-10 135-70 160-56 23 12 38 31 72 46 29 12 57 20 91 19-57-16-113-49-149-84 134-75 141-25 195 10 23 15 46 24 73 25-42-17-80-52-105-77 64-9 124 11 177 23-76-47-216-48-314-20-75 22-211 98-280 95-28-48-106-107-127-148 163-333 591-367 845-597 58-53 93-97 140-149 50-55 194-285 199-384-9 64-199 392-274 422 22-151 6-179 67-312-81 82-99 210-105 356-82 48-167 127-266 158 19-153 69-323 145-409-120 85-176 274-191 429l-320 143c13-74 33-175 55-244 26-84 61-133 95-194-78 47-171 250-190 397-9 68 2 68-48 99-59 35-110 79-160 128-29 28-45 54-69 80-21-16-45-42-66-62-21-21-51-42-55-77-7-68 11-186 14-260 5-154-59-333-131-407 23 41 94 154 91 219-31-27-78-52-103-95 8 40 62 92 89 111 32 21 27 22 29 70 2 37 0 69-2 106-34-3-115-106-127-143 10 66 81 153 121 171l-18 190c-67-50-87-89-135-153 5 25 12 38 23 66-51-51-85-62-98-148-13-83-1-168 12-247 13-78 31-159 18-242-11-71-53-145-94-166 64 125 85 161 54 317-27 138-37 213-24 359-55-33-354-321-473-407l-22-19c-8-9-4-4-11-14 45-5 69-24 86-52 33-54 17-79 29-108 15 6-11 47 14 106 69 159 214 25 107-101 69 14 176 2 144-87-22-62-121-73-175-35 3-16 23-16 38-26 18-11 26-20 37-36 94-142-77-217-137-49-14-31-11-56-32-89-13-20-42-47-79-37-28 7-44 39-44 79 0 50 18 64 30 97l-34-5-14-3 10 53 61 10-3 31-52-9c-7 10 5 53 12 63l8-1c18-6 12-8 12 13-41 14-13 12-8 98-19-26-13-35-20-68l-15 5c-16 34-27 57-19 116l-303-246c-2 36-4 52 6 77 26 48 75 274 78 342 25 39-11 6 41 53l93 90c18 16 36 27 53 45 67 70 128 119 194 181l369 372c-104-45-209-109-320-152-26-10-58-22-81-33-87-42-178-64-266-100-3-148-5-150-45-276l-3 20 66 514c81 31 161 69 244 107 172 80 291 155 453 244l214 134c20 221 103 349 272 411 50 19 120 29 161 57-69-70-158-58-270-142-72-55-130-166-138-308 60 19 93 47 106 105 8-20-2 3 3-28 0-1 1-4 1-5 0-1 0-3 1-5l46 27-3 63c-20-12-17-22-33-44l-6-7c-1-1-2-2-3-3 17 91 128 180 194 227 79 57 168 112 177 254-155 29-222 38-360-32-104-53-178-107-272-168-212-140-383-195-630-175-32 3-29-3-51 17 102-4 220-10 303 18-7 11-1 4-11 13l-35 24c-109 64-97 41-155 66l-10 5c74 6 127-15 188-47l72-43c40-6 203 100 234 117-15 19-52 28-73 39-63 30-96 44-166 54l-88 6c137 38 252-8 364-66 37 18 87 61 122 89 28 22 94 67 127 80-9 12 2 3-16 14l-64 28c-139 61-140 54-290 64 61 4 79 32 209 5 68-14 126-37 180-66 46-26 67 11 169 45 70 24 130 29 207 34-3 69-54 121-89 151-94 81-195 106-278 212-46 59-50 94-161 85 66-241 241-249 361-292 27-10 45-17 64-35-181 44-355 59-440 298-20 57-28 40-186 78 22-40 64-90 74-153-4 51-110 143-143 170-58 48-160 64-208 111zm-1060-4822l-2 6c15 11-2 9 22 4 10-26 8-13-3-31-18 11-10-1-17 21zm4326 1208l1 4c-4 23-7 9 7 29l-8-34zm60 7h1v-13l-1 13zm503-92l9 35-6-81 10-1c7-1-3 4 9-1-10-9-15-12-30-21 9 25 8 42 9 70zm-3825 915c-26-7-19-6-34-27-12-17-29-29-13-45 22-22 42 47 47 71zm-191 28c5-43 32-87 52-107l19 15c-25 39-35 77-70 92zm189-166c3-29-8-27 32-24 2 0 24 4 24 4 14 6 8 4 17 16l-74 3zm-154-176c19 11 17 10 28 33 10 21 14 25 10 46l-16 8c-16-23-23-55-22-87zm123 91l-18-17c15-24 23-49 54-56-5 31-19 58-36 73zm-253-1965c94-50 200-130 304-166-10 13-13 14-32 28-77 57-138 95-227 131-8 3-19 8-24 9l-22-2zm1285-1612c-17-46-7-254-1-311 22 100 40 101 65 156l-64 156zm-65 88c-16-13 1 7-16-17-2-3-8-17-8-19l-29-112c-22-124-25-224 19-340 9-23 46-112 64-131-5 62-17 125-22 188-6 62-8 127-13 189-1 0-2 0-2 0 0 0-2 0-2 0-16-1 6-8-10 1 5 47 14 64 15 116 0 43 4 84 5 127zm276-1959c2-25 11-45 21-63 28-57 26-43 44-35 4 32-43 87-64 99zm153-58c-32-48-14-33-10-40 21-11 19-4 32 23 8 16 12 26 15 48-27-8-21-8-37-31zm36-134l73 12c-15 21-44 20-74 19l1-31zm-168 10c-27 1-69-6-84-36 109-3 86 13 84 36zm117-84c20-28 18-45 55-59-7 37-19 53-34 75l-20-16zm-94-77c12 22 26 46 34 77l-24 12c-7-15-12-29-16-44-11-41-1-37 6-45z"/><path d="m17887 12744c28-20 140-45 176-1-34 13-93 18-120 45 8 25 76 77 100 101-10 15-13 8-23 31-4 8-9 26-11 34-18-6-29-13-49-20-26-118-21-60-62-106l13-71-24-12zm-49-43c-12 25-12 25-41 7l41-7zm73-150c-10-13-39-91 8-105 29-9 31 1 46-26 9-16 11-37 28-45 33-16 47 43 60 75 16 39 29 57 54 80-17-6-16-12-35-22l-11 34c-8 12-7 10-18 9-16-1-36-25-46-21-1 0-3 1-3 2-37 18-54 26-81 17zm-89-60c10 21 18 31 28 51-18 18-15 18-22 43-22-16-61-81-49-132 42-2 24-1 43 38zm299-76c-15-13-21-22-37-34-15-12-21-16-34-31 43-84 81 27 70 65zm-419-166c16-15 46-9 68-3l3 54c-43 7-70-9-72-51zm227 6c-8 6 14 14-18 1l-48-31c19-34 94-15 66 29zm405 172c-36-53 22-139-148-296-36-33-9-15-24-50-10-23-31-20-53-13-12 37-8 55 32 54 33-1 31 7 56 32 27 27 68 73 87 117 67 150 12 208 7 248-2 12 9 46-43 63 1-33 2-21 24-44-6-30-55-133-70-156-53-78-156-185-237-220-26-11-146-55-167-53-2 33-4 59-12 86-52-10-139-55-177-54 7 61-11 72-12 118-1 51 36 60 50 95 17 44 2 74 32 117 23 33 46 47 68 76 87 112-61 102-31 179 10 26 15 19 17 56 5 106 44 67 96 124 16 17 9 18 30 35 22 18 59 49 68 76 22 68 20 13 81 62 65 53 99-39 119-70 91-138 17-77 32-215 9-85 33-110 56-164 14-32 3-28 34-41-15 65-44 91-62 161-14 55-20 143 15 186 27-11 29-45 44-91 78-243 198-554 104-785-15-37-59-118-60-137-1-18 4-34-8-49-25-29-75-1-51 43 20 37 31-15 72 66 61 121 87 194 69 338-10 82-5 85-35 105z"/><path d="m15234 8403c-59 18-134 82-159 117-144 204-111 443-140 694-30 263-127 396-263 574l-101 116c-14 14-14-19-13 33 32-11 12-8 21-14 1 0 2-2 3-2l58-19c275-38 310-134 349-141 21-4 124 27 212 9 39-8 54-23 79-32-129 27-140 6-262-2 21-46 104-116 136-164 49 5 76 19 134 16 56-3 74-14 117-30-68 5-157 15-219-14 12-27 99-104 127-117 15-7 96 31 197 16l-44-9c-37-3-72-19-108-25 15-18 40-27 62-36 71-27 130-39 216-43-13 49-39 88-46 141l64-127c22-44 53-82 74-117 19 1 38 4 56 8l40 15-41 42c23-12 46-38 72-38-6 36-22 69-50 83-68 34-98 75-158 116-26 18-48 40-59 73l10-10c7-7 19-28 26-19-86 86-105 180-265 272-146 84-271 88-426 89 11-1 99 37 205 28 213-18 324-125 451-272 207-240 33-146 314-173 71-7 128-26 178-61 36-26 99-87 112-136-31 18-56 53-84 78-112 96-209 94-355 95 10-16 32-31 48-41 19-11 32-18 52-26 45-19 79-21 131-28l-47-10c14-20 24-22 39-47l21-39c8-12-1-2 10-12l115-7-41 83c26-3 5 8 25-15 18-20 22-58 44-74 18-13 78-27 108-48 37-25 55-50 83-74 22-19 69-32 97-55-168 66-378 35-506-57-112-81-249-235-404-182l-25 15c91 10 138-6 213 47 56 39 96 81 148 120 180 137 214 109 396 128-30 27-42 54-98 72-46 14-94 18-144 24-52 6-93 13-139 35-44 21-70-6-121-17 14-27 48-45 76-59 110-55 211 10 326-7-150-10-226-96-391 26-65 48-60 15-186 6-520-37-575 392-692 552 60-48 100-127 138-201 154-295 354-343 675-302-15 39-50 71-65 111-266-19-434 119-582 288-76 87-195 209-329 184 25-18 78-93 102-127 247-349 128-736 210-993 34-107 83-191 161-254l28-26zm352 1124c-6 12 5-10 0 0zm182-218l17-12-8-4-15 13 6 3zm-267-508c16 5-1-12-10-4-12 13 9 4 10 4zm583 487c-25 13-13 6-16 23 22-15 13-9 16-23zm-215-30l74 23c-4 11-1 18-18 27l-85 12 30-62zm9-14c17-23 76-29 105-29-7 21-23 49-37 63l-68-34z"/><path d="m18244 7483c-7 37-26 76-37 117-54 210 12 419 157 558l152 144c-70-171-428-268-242-806 42-121 64-156 116-258-27 27-62 83-83 124-37 72-44 113-81 124-117 36-178 89-237 166-144 189-140 371-176 650-56 440-173 566-411 828-101 110-162 120-233 173 95-13 158-80 240-82 143-4 257-38 372-115 62-42 35-22 109-4 86 21 195 21 268-19-57 7-105 15-167 3-31-6-115-24-139-34l185-179c85 32 216 51 298 3-74 7-219 5-272-34 17-18 146-132 180-129 9 1 80 32 114 39 43 8 88 8 126-7-76-5-148-15-206-53 112-53 203-54 335-64-17 1-56-7-85-6-30 1-61 4-88 8-167 25-288 81-411 191-174 157-279 304-515 297l19-26c7-7 14-11 21-18 14-13 23-22 36-36 25-28 40-51 64-81 139-170 203-416 235-650 38-281 8-468 192-700 46-58 88-83 164-124z"/><path d="m18481 6396c13-43 49-78 86-96 3 7 0 16 16 31 6 6 19 11 26 18-2 38-11 28 7 64 20 40 10 4 5 61-12-2-21-4-30-6l-24-9 4-105c-49 7-47 35-91 44zm93-142c9-27 4-18 32-31-4 40-1 28-32 31zm-245-79c35-10 27 3 54 2 31-1 13-12 46-18 65 57 28 69 2 85-53 31-9 9-32 50-40 4-18-16-45-2-6-54-29-66-25-117zm-38 90c-4-2-15-3-26-30-7-18-6-25-3-42l27-1c9 21 3 43 2 74zm202-172c21 8 31 60 35 87l-38-5c-4-32-33-94 2-82zm-196-18c-10-30-2-55 31-53-1 7-4 27-6 33-10 34 6 16-25 21zm91-99c10-23 13-36 41-32 7 34 2 41-16 59-20-8-15-7-26-28zm-37-19c-28-13-25-25-51-33-90 150-94 297-39 461 16 46 25 29 46 42-2 1-4 0-5 2l-97-36c-59-40-88-149-81-230 4-50 17-22 22-51 6-29-26-23-40-17-11 48 8-10 10 89 1 43 5 88 19 122l55 89c-21 15-17 12-42-6-96-71-128-109-166-246-14-48 5-15 8-55 2-30-21-33-43-27-14 52 5 29 24 68 36 77 6 149 191 279 65 46 310 180 350 177 4-92-160-135-194-150 39-26 151 48 169 69 30 35 7 51 60 64 26 6 87 20 111 11 25-8 36-62 41-85 6-28-6-22-10-51-7-53 13-163 7-187-8-31-13-17-27-38-16-24-4-26-23-44-42-29-94 58-98-98-1-58-10-63-31-97-25-39-8-72-31-96l-75-53c-8 20-16 44-26 67-12 28-17 45-34 60z"/><path d="m16426 7230c147 7 149-46 261-25 167 30 251 18 397-40 36-14 60 18 100 36 63 27 184 70 252 35-134-2-190-54-291-95l165-107c91-58 36-8 177 32 60 17 97 20 161 13-30-13-91-14-136-33-23-10-39-18-61-29-25-13-43-18-59-38 35-16 169-103 208-77 68 45 123 87 221 79-21-1-76-22-100-34-19-10-25-15-44-27l-35-25c-8-8-4-4-11-12 81-19 259-14 334 15-75-40-229-50-325-39-107 13-204 52-285 96-154 84-341 249-557 170 23-21 60-41 87-60 442-301 455-870 594-1092 42-67 77-111 136-166 71-65 97-71 194-109-168-13-335 145-418 304-79 152-125 373-194 543-108 266-296 444-520 577-181 107-151 64-252 110z"/><path d="m16839 12537c-30 0-57-60-59-70l24-10c16 20 31 50 35 80zm-204 31c1-31 25-81 45-105 7-9 2-4 10-9l20 10c-10 35-52 92-74 104zm202-203c23-3 63-3 78 17-21 13-50 15-79 12v-29zm-179 10c-38-3-67-15-91-35 8-12 38-7 56-5 45 5 38 0 36 39zm126-94c16-23 34-50 57-62-2 38-20 55-33 82l-24-20zm-109-80c18 14 36 49 43 81l-23 11c-12-20-31-69-20-93zm232 385c0-47-24-80-38-106 43 8 69 18 112-3 86-41 42-134-35-150-54-12-76 3-113 21 15-32 49-6 85-71 69-122-20-187-91-131-30 23-42 49-63 89-22-232-249-155-128 52-196-79-230 160-15 151-7 12-2 4-9 14-131 177 22 250 94 140 10-15 18-34 24-56 5-21 2-15 4-36l6-26c9 17-10 78 17 124 14 24 45 62 79 66 49 6 69-29 70-78z"/><path d="m16831 7891v-27c-41-10-19 6-53 30-35 26-70 39-98 85-19 31-9 41-48 49-12-40-28-69-54-90l-83-62c-14 11-9-2-15 23 36 26 14-20 88 36 61 46 62 88 55 153-9 81-35 24-16 200-13-12-14-13-19-36-12-59 12-110 26-156-26-45-72-80-128-110-69-37-117-39-203-41 3 30-1 72 10 95 13 28 20 7 37 63 21 68 89 57 68 119-13 40-25 22-5 73 31 79-3 40 69 75 32 16 10 10 27 25 14 12 60 18 80 14 21-12 33-67 38-79 14-33-1-13 18-22 20 37 2 66 34 106 24 3 66-3 82-16 16-12 3-10 31-21 89-34 42-14 81-76 30-48 4-33 4-78 0-59 60-38 94-116 38-86 29 29 71-148-96 2-127 1-210 34-71 28-101 66-148 100 9 48 22 104 2 158-2 4-6 15-8 18l-16 19c13-51 26-52 22-132-1-25-7-44-6-65 5-81 10-128 111-186 36-21 30-1 61-14zm-117 334c46 0 81 16 114 31-1 1-3 1-4 4l-9 12c-33 58 2 10-45 47l-50 41c-14 13 10 7-19 13-17-22-3-11-11-36-5-17-8-14-16-33 40 11 48-1 78-16-8-44-3-9-39-63zm-216 49c22 44 70 30 73 30-32 25-18 21-32 65-27-6-11-3-27-19-1-1-2-2-3-3l-7-6c-8-6-2 1-14-12-16-17-1-8-23-23-25-17-16 5-28-40 0-1-1-3-1-5-8-38 95-41 108-35-15 23-30 20-45 48zm314-253c8 3 35 31 41 41 12 19 3 17 12 34 9 18 8 7 22 23-7 31-24 41-37 61-14-20 0-23-26-31-14-5-46-1-63-1 21-21 10-1 22-31-24 3-42-1-75 1 17-26 30-20 57-49 22-24 19-33 47-48zm-421 81c38-13 23-25 42-48l45-41c32 14 26 30 44 56 16 24 31 23 49 40-8 4-68 3-80 2 8 19 11 17 21 32-77-9-76-11-90 26-19-17-31-30-32-68zm547-73c-31 1-15-31-15-31 22-10 11-9 32-1 0 0 15-4 1 22-2 4-12 10-18 10zm-580-13c-21 0-19-11-21-33h43c-3 20-1 32-22 33z"/><path d="m16977 9201c12-49 26-87 35-148 29-219-13-341 1-532 30-425 287-672 617-845 81-42 158-76 243-114 81-36 254-83 267-90-155-3-439 106-567 164-264 118-415 289-538 564-158 354-18 669-56 1003z"/><path d="m16671 9789c-10-72-50-133-104-107-47 22-27 122 0 151-50-10-129-23-131 45-2 64 64 81 122 81-30 38-87 119-26 159 62 41 95-50 115-87 36 192 211 107 109-38 165 41 178-140 6-125l28-36c7-9 15-21 19-33 11-32 6-71-16-85-59-40-107 50-122 76zm26 223c-9-15-18-24-6-35 18-17 36 42 40 63-23-8-20-6-34-28zm-129 52c-2-25 4-32 15-54 24-48 17-34 33-39 8 14 13 2 3 29l-51 63zm162-149c6-11-12-21 30-17 34 3 34 18 34 19-30 5-48 14-65-2zm-146-10c-20 0-27-2-44-8-30-11-24-14-29-23 71-2 75 2 73 31zm103-71c9-19 28-42 45-52-1 28-16 49-29 63l-16-11zm-83-69c41 74 33 66 11 75-6-10-12-22-16-37-9-35 2-33 5-38z"/><path d="m17730 5342c46 13 154 1 122-78-16-41-75-59-121-46-29 8-29 25-28 11-14-2 13-8 23-13 17-9 26-16 36-32 15-22 35-64 20-105-26-66-128-6-137 62-14-66-31-121-99-114-64 42-29 99-11 153-50-10-126-20-128 49-2 62 62 78 118 78-16 29-37 42-44 79-23 120 112 122 137-25l7-27c-29 212 210 200 104 7zm-74-14c27-10 24-2 34 18 7 15 10 24 12 42-27-12-36-34-46-60zm-119 83c5-40 24-67 43-92l17 10c-14 33-31 64-60 82zm165-164c26-3 44-2 62 11-1 1-3 3-4 3l-8 5c-5 2-10 3-15 3-13 2-22 1-35 0v-23zm-218-20l20-7c65-5 51 20 52 26-14 8 15 7-17 6-18-1-44-14-54-25zm84-114c12 8 17 17 26 34 17 33 14 31-13 41-6-22-15-47-13-76zm98 73c-6-13-15 18-3-19 2-7 6-8 12-15 12-13 13-15 30-24-3 17-7 28-13 41-14 28-5 25-25 18z"/><path d="m14672 13807l4 27-3 230c35-18 2-16 44-23 27 65 59 89 58 193-1 160-60 284-23 463 7 32 16 64 28 94 11 28 24 65 43 86-18-52-47-110-55-181 46 16 69 57 96 97-20-64-52-102-101-128-5-44-7-129 12-163 22 21 107 113 112 164-1-83-74-164-110-195l31-174c21 9 16 6 39 33 28 33 37 41 59 80l17 9c0 0-3-8-4-10-23-59-65-111-108-148 1-184-21-154-28-225 79-3 120 42 163 74 47 34 82 77 165 77-17-5-28-3-46-19l35-19c-32-1-48 14-68 10-14-3-39-22-49-41l77-17c-42-4-63-7-94 14-15-23-38-34-60-62 16-12 22-4 37-24-73 9-32 21-97-10-19-9-29-11-50-14-34-5-27 5-40-25 4-28-10-3 15-25l73-52c21-15 83-51 95-64 0-14-4-11 8-10 2-35 3-74 4-110 1-18 1-37 1-55 1-55 0-41-10-47-84 42-130 35-233 36v48h97c-18 20-48 39-70 55-14 10-21 20-33 30-6 5-18 12-30 20z"/><path d="m16278 7044c5-6 4-4 10-13 78-124 100-450 130-572 53-217 125-324 262-458 249-243 723-326 1064-341-117-47-499 7-625 44-351 102-635 327-740 700-28 97-45 205-55 311-5 57-7 114-13 170-7 63-21 104-31 160z"/><path d="m17710 9025l6 7c70-74 52-47 116-134 37-50 61-106 99-159 180-253 397-312 705-249 133 27 270 63 372 121-44-42-171-96-230-119-29-11-66-20-88-32 9-11 12-17 21-29 16-22 7-17 38-22 40-7 56-9 82-31l-91 20 37-86c44-9 67-6 98-35-29 11-50 17-86 17 11-34 23-43 38-69 51 0 50-2 89-17l-67 6c20-38 59-47 97-68-63 36-117 42-174 141-43 76-73 174-152 159-6-50-8-81-22-128-13-44-38-71-21-109 33-74 52-155 33-243-3 98-25 156-55 232-13-11 2 7-15-15l-86-142c-4-24 51-75 42-221l-4 10c-9 30-5 44-19 88-9 29-20 66-37 90-19-18-69-115-68-149 1-23 53-80 52-174-4 9 1-7-6 15l-43 105c-1 1-2 3-3 4l-12 13c-11-72-11-116-11-190-1 2-2 2-2 6 0 3-2 4-2 6-2 10-2 7-4 19-1 10-1 30-1 41 0 29-1 53 2 82 22 256 197 389 223 567 16 113-9 84-58 80-49-4-100-3-150 3-180 21-317 109-401 208-38 45-91 122-123 186-28 55-83 164-121 196z"/><path d="m15021 13048c26 2 7 0 14 10 170 78 260 48 398 58-73 111-187 138-356 154-73 7-150 14-216 33-94 27-138 68-174 80l6 18c26-19 26-17 56-30-21 99-43 73-67 84v-3l34-5c-4 26-12 39-36 55l3 2 2 6c13-7 45-43 58-63 55-85-22-112 218-131-38 100-90 134-118 181 26-11 29-14 53-36 17-16 26-26 40-46 11-17 20-35 32-53 13-21 20-36 26-56 40 19 151-1 204-6-48 114-92 147-150 214 108-40 162-180 180-208 30-47 115 14 326-201 19-20 13-21 46-32 17-6 35-13 51-20 34-16 70-36 91-56-111 48-226 61-365 57-143-4-222-20-344-66l-12-2c0 28-9 33-1 62z"/><path d="m14458 9607c-18-26-18-73-29-89-16-22 10-2-12-10-3 74-25 197-41 267-28 125-38 135-84 222l17 80 10 19c28-35 65-121 83-178 35-113-1-78 79-119 35-18 19-15 20-28 41 22 212-140 244-237-37 56-72 82-121 126-24 21-46 32-75 49-16 10-28 15-43 23-20 12-27 11-10 36-33-27-17-13-57 2 5-55 21-105 18-164zm17-132l2-23c94-34 238-142 273-241l-19 18c-5 5-7 8-13 14-61 66-153 131-235 161 2-53 16-115 28-164 22-92 25-108 66-119 142-40 212-153 212-153l-5-5c-38 48-135 102-217 123 79-180 181-246 219-308l-41 30c-40 35-110 120-139 163-62 90-171 317-167 437 10 64-28 4 9 138 4 16 8 31 11 46 11-85-25-100-22-152 5 4 4-3 12 16 3 7 4 19 6 27l8 39 13-42z"/><path d="m18987 9222c22-73 12-156 2-234-16-133 53-284 140-363 98-90 128-74 128-124-64 26-162 113-186 157-52-3-97-46-210-20-283 64-331 409-702 525-136 43-274 60-413 29 66 22 65 43 183 52 280 22 484-126 654-327l115-135c38-39 86-73 148-100 84-36 122-31 213-23-9 27-28 46-56 114-15 36-29 84-33 134-9 109 12 204 18 314z"/><path d="m17036 7265l22 20c81 61 242 90 341 89 145-3 253-51 359-115 131-79 199-152 276-200 107-66 248-88 368-30-91-79-226-85-346-34-191 82-332 299-615 320-166 12-283-7-406-49z"/><path d="m15994 9462c54 230-31 358-146 519l-46 73c-75 115-136 282-142 439-4 111 19 254 71 351 11 20 12 22 22 32-37-131-51-268-40-424 12-155 79-299 156-408 78-109 167-254 171-395 2-51-9-130-38-175-1-1-2-3-3-4l-7-8z"/><path d="m17621 6373c5 9 6 18 8 27-16-9-28-20-30-44 17 4 11-5 22 17zm14-96l-10 9 2 31c63 19 47-8 53-18l-48-20c1-1 2-2 2-2zm64 5c-7-9-18-16-28-33-1-1-1-2-2-2l9-8c19-23 12-47 4-72-52-18-75 8-90 49-1-2-2-6-3-5-2 4-24-82-71-69-42 12-26 79-11 109-45-11-63-13-90 19-7 59 34 70 85 75-29 21-46 68-23 113 57 18 65-22 89-55 10 33 27 78 68 73 49-6 26-70 16-105 111 11 103-77 45-88zm-188 135c3-19 3-20 11-37 3-6 4-10 10-17 8-10 2-3 12-10 8 14 13-18 5 20-1 6-19 33-37 43zm-39-126c5-5-3-15 31-9 31 5 16 7 21 13-10 9 7 18-52-4zm130-36c-2-10-9 13 0-12 5-13 17-20 28-26-4 19-5 31-20 39-1 0-3 1-4 0 0-1-3 0-4-1zm-52-31c18 37 0 29-2 32-6-6-4 0-10-13l-3-10c-1-5-3-21-4-27 8 5 13 7 19 18z"/><path d="m18644 8285c29-36 30-83 56-115 47-59 74-79 96-168 17-69-5-19 84-93 26-21 27-34 43-48 0 0-8-17-10-6l-19 21c-8 8-16 15-24 22-16 12-42 28-59 36 10-199-9-95 78-185 26-27 21-28 37-48l-50 40c-1 1-2 2-4 3-1 1-3 2-4 3l-47 29c-10-128 44-125 72-144 17-12 26-24 38-33l-81 36c11-50 52-91 85-136-60 44-121 159-136 270-20 148-6 244-94 322-18-201 9-234-132-446-97-145-182-215-149-423-78 122 1 278 74 383 14 21 23 33 35 51 62 92 114 164 130 308 14 128 6 206-19 323z"/><path d="m16636 4883c48-8 62-33 108-37 176-14 178-75 224-68 62 10 67 19 137 9-15-8-49-8-66-11-21-4-45-10-67-17 8-8 89-87 90-88 18-7 89 30 143-1-52 1-77-6-122-18 11-19 61-62 84-67 10-2 72 22 122 18-35-6-63-18-95-28l8-7c36-23 67-17 95-28-258 4-288 252-498 252 9-19 2-8 15-23 43-50 76-81 111-153 123-257 10-544 240-667-210 40-200 362-225 500-30 158-142 306-248 393-11 9-14 11-27 19-14 9-18 12-28 20z"/><path d="m14474 6478c-114 16-155-57-415 113-110 72-211 190-391 121 110 104 275 10 361-51 106-75 196-145 361-146 89-1 179 16 249 40-13-15-25-22-51-35-38-18-27-13-50-42-20-24-61-63-95-81-91-48-60-1-98-78-20-39-47-74-82-93 31 36 58 71 77 131-122-17-109-4-131-46l-60-84c-15 16-5 5-4 11 1 3 6 5 7 6 20 21 42 70 47 94-33-5-88-11-104-39-8-14-11-35-21-52-12-20-21-30-33-46-10 10-2 5 7 19l28 74c-46-16-80-61-113-93 91 162 306 161 402 193 82 28 84 60 110 83z"/><path d="m14734 12242l-21 14v39l31-9c90 3 166-47 354-5 284 64 372 268 553 437 39 36 73 51 116 84 16-5-1-4-48-49-115-110-262-442-618-516-176-37-225-6-367 5z"/><path d="m16999 7092c216-85 294-396 651-411 151-6 304 50 418 108 94 48 263 136 318 205-119-115-161-158-301-237-223-125-510-171-736-11-179 126-216 251-350 347z"/><path d="m13540 6065c3-27 69-53 109-64 61-16 102-2 161 0 0 24 3 32 8 54 10 50 24 105 47 153 30 62 63 117 104 153 158 138 256 74 395 65-110-49-218 77-386-82-56-53-152-229-172-341 32 10 7-3 25 22 1 1 2 3 2 4 1 1 2 3 2 4 71 110 192 82 301 100 93 15 192 82 247 156l18 23c7 7 3 3 12 11-11-34-18-45-41-77-47-64-122-114-203-134-68-17-130-12-200-20-28-3-60-15-81-28-29-17-51-33-62-61 114-4 174 6 271-52 61-37 134-102 156-170-23 24-33 37-61 62-291 261-455 19-635 185-15 14-21 17-19 37z"/><path d="m14986 6198c54-96 32-286 52-410 42-261 202-410 418-503 77-33 208-81 295-98l32-8c10-4 11-5 16-9-144 1-403 69-520 158-47 36-88 68-119 109-222 294-145 443-174 761z"/><path d="m14333 5629c-9 21-15 24-36 40-54 42-114 47-181 51-45 2-95 2-139 8-75 10-107 14-106 52 27-27 89-34 131-28-26 49-41 61-67 96-1 1-2 3-3 4l-6 9c52-25 69-68 102-112h137c-26 52-56 82-85 117-9 11-2 2-10 13 43-19 75-53 101-99 40-71 24-17 132-69 39-19 89-57 115-81 33-31 91-37 129-67-134 55-363 27-497-45-34-18-96-63-117-91-16 12-12 9-21 38 5-30 10-25 4-53-18 17-3-6-14 16-11 22-6 26 5 41 1 1 2 3 3 4 10 11 32 26 47 38 110 84 230 122 374 118z"/><path d="m16045 9500c47 50 134 244 169 343 46 131 87 280 69 439-39 344-281 401-375 638 21-30 30-49 53-75 25-28 43-38 70-61 136-121 263-288 285-500 18-167-19-326-73-461-24-62-60-127-88-178-16-29-32-52-52-80l-43-57c-12-17-7-23-16-9z"/><path d="m17373 10291c1 8 14 13 23 18 25 15 58 24 88 25 237 11 286-258 685-176 85 18 99 47 116 32-32-18-67-38-96-74-24-29-45-58-83-81-20-12-37-17-56-28-36-21-28-93-103-143 26 34 54 74 66 128l-112-22c-14-47-63-133-75-116 26 27 42 64 55 109-143-16-77-82-148-139 18 31 27 51 34 92l-75-52c21 15 28 29 46 45 140 124 329 70 393 207-178-30-256-3-395 77-132 76-192 151-364 97z"/><path d="m14970 5091c39-9 57-33 93-39 174-29 134-79 198-71 46 6 76 12 115-8-30-1-93 6-119-16 24-23 48-48 65-78 43 4 83 18 118-4-32 0-69 0-94-12 4-6 44-49 55-55 22-12 62 7 97 5l-15-6c-2-1-12-4-15-4l-31-16c26-11 104-40 130-37-255-2-290 258-461 252 78-110 122-147 140-335 18-195-21-224 86-369 1-2 5-7 6-8 6-9 1-1 9-14-156 69-119 329-143 461-28 148-149 296-235 355z"/><path d="m18668 12166c2-111-13-46-78-206-75-184-44-348-41-516 1-115-13-162-34-258 26 246-80 511 41 798 26 60 69 153 112 182z"/><path d="m15253 8907c57-223 236-222 407-315 155-84 293-274 282-456-47 175-149 343-306 424-79 41-174 69-249 115-61 37-139 120-135 232z"/><path d="m16279 7568c-3 5 69 82 75 88 27 27 61 48 94 68 201 120 362 42 538 20 97-12 202 31 241 85 8-9-2-19-32-48-131-128-297-50-454-34-116 11-174-9-266-52-34-16-77-40-103-58-24-16-70-53-86-78-1 1-3 2-4 4 0 2-1 4-3 5z"/><path d="m16523 4804c41-87 2-240 14-345 24-198 159-336 313-410 40-19 77-37 119-56 41-18 102-34 132-49-88 4-199 49-274 82-163 70-287 225-316 415-20 130 11 237 11 364z"/><path d="m13705 6764l-8 5c2 11 181 141 214 159 81 46 182 82 294 70 117-13 187-53 260-111 37-29 68-61 96-94 15-18 25-33 41-51 19-20 33-33 50-50-73 29-128 102-196 165-60 55-138 104-244 110-106 7-197-26-282-66-66-31-188-93-224-137z"/><path d="m15519 8748l118-59c229-114 450-167 648 42 31 33 33 47 86 98 35 33 52 49 100 75-105-64-149-274-413-337-116-28-208-10-306 35-136 62-181 116-233 146z"/><path d="m16314 7429c205 2 424-283 772 148 23 28 150 192 148 228-22-135-197-355-335-435-88-51-190-75-306-49-69 15-209 78-279 109z"/><path d="m18716 11747c-3 83 128 271 186 344 5 6 13 17 18 21 16 16 7 9 26 19-6-36-23-38-57-87-18-26-44-59-56-91 48 10 96 39 119 26-7-31-52-44-80-53-55-18-56 4-79-51-21-51-56-157-60-216l-9-12c38-9 7-3 20 5 18 17 83 40 109 54 61 32 77 57 110 71-6-48-58-76-95-101-32-22-84-59-127-60l-18-6-7 139z"/><path d="m15234 8880c6-308 58-640 338-738 50-17 90-23 140-33 25-5 50-12 70-20 13-5 23-10 32-14 16-8 18-9 29-17l-70 14c-88 12-134 14-223 48-88 33-157 97-201 158-82 115-121 275-125 427-2 58 12 140 10 176z"/><path d="m17086 9526c201-37 367-378 784-38 36 29 67 57 102 87 50 42 69 76 87 92-148-239-454-463-747-294-41 24-84 52-116 79-33 28-64 56-111 74z"/><path d="m15505 10812c-47-41-146-123-217-143 207 150 459 360 383 683-23 99-73 174-71 287 63-213 179-353 64-610-40-90-103-170-158-218z"/><path d="m17446 10399c7 7 4 4 11 9 129 103 236 197 426 177 167-17 234-93 334-193 19-19 65-67 96-74-202 43-305 482-872 59l-11-9c-1-1-3-2-4-3-11-7 1 0-15-9l35 41z"/><path d="m18982 11360l-1-62c-17-3-5-4-2-24-14-10-24-25-34-28l74-5 1-60c-81-21-182-22-198-27-18-6-54-28-78-38-31-13-51-25-86-24 22 4 77 34 91 45 122 97 110 94 207 206 18 21 2 9 26 18z"/><path d="m14407 10295c0 1 32 26 40 32 52 38 151 65 219 64l53-8c178-4 345-231 522-107-83-78-166-74-276-22-44 21-80 42-125 63-21 10-46 20-70 27-68 20-58-3-60 31-13-25-2-15-36-16-2 0-8 0-10 0-67-5-162-22-223-52l-24-14c-2-7-7-2-10 3z"/><path d="m15922 7611c-13-18-19-20-45-35-123-74-232-69-321-231-97-174-77-367-56-574-66 163-51 425 27 571 83 157 216 206 395 268z"/><path d="m15903 11931c129-37 218-236 461-193 135 24 224 99 322 168 38 27 53 48 86 75-29-48-117-133-175-169-41-25-63-42-111-63-139-59-277-56-398 24l-184 158z"/><path d="m14877 5035c19-249-98-479 258-686 43-25 175-100 214-97-125 0-323 121-412 232-142 178-82 362-61 551z"/><path d="m14701 12841c43 25 80 67 127 98 47 30 88 56 137 87l-3-77c-48-21-89-57-130-89-19-16-110-92-131-94v76z"/><path d="m14562 5423c14-8 8 1-24-34-81-89-157-330-450-385-54-10-95 17-30 28 189 33 261 97 384 270 63 88 66 66 120 121z"/><path d="m17612 11359c27-53-2-201 8-276 38-277 303-330 440-404-152 10-314 121-376 202-115 151-96 259-73 478z"/><path d="m14349 10214v12l6 17c32-2 52-7 80-11 44-6 79 72 187 75-55-35-94-37-141-88 38-15 103-49 138-58l22 19c19 14-2 4 24 14-4-37-9-22-24-47 153-50 96-37 183 17 18 11 34 21 59 22-36-20-73-43-90-72 73-2 102 12 162 25-72-49-232-45-321-12-6 2-13 5-18 7-6 2-12 4-19 6-63 21-105 47-180 60-13 2-26 4-40 5-36 3-15-6-29 8z"/><path d="m14422 10167c119-34 188-196 398-172 78 9 152 46 208 82 78 51 106 83 157 118 1 1 4 4 5 3 1-1 3 2 5 3-8-15-5-12-17-27-6-7-12-13-19-20-157-153-367-258-569-124-63 42-75 56-127 101l-32 28c-1 1-3 5-4 4-1-1-2 3-4 4z"/><path d="m16934 4839c55 30 139 25 203 6 136-39 196-145 269-221 71-74 125-58 168-77-162-26-219 108-292 176-92 86-184 123-349 117z"/><path d="m18821 8026c59-8 133-99 159-146 125-228-21-416 138-553-146 72-98 274-112 391-16 133-146 309-185 308z"/><path d="m14971 14408c5 64 28 102 26 186-1 60-25 132-24 177v105l16-43c21-59 38-164 41-233 4-105-17-154-43-238-16-14-14-10-21-29l3 76z"/><path d="m14692 13182l-1 28c29-7 55-29 133-40 194-29 287 62 458 27-173-7-346-122-558-30-14 6-22 10-32 16z"/><path d="m13541 5995c19-25 31-60 47-84 98-145 195-285 390-268 82 7 137 44 222 37-33-18-163-55-210-60-171-19-267 75-358 187-28 34-86 140-92 187z"/><path d="m19164 9800l-1-7v-26l-71 4c-109-4-132-15-231-43 1 1 3 2 4 4l36 25c38 27 51 87 141 127 63 28 28 21 60 72 10 15 19 32 30 43-10-46-38-57-27-84 10-25 8 26 15-29-61-13-109-42-129-91 74 10 100 13 174 6z"/><path d="m15002 14340c85 48 106 129 158 230 34 66 125 162 202 181-45-25-88-47-114-84l77 4c-28-21-53-19-95-21-15-23-43-57-53-93 50 5 71 11 113 30-12-13-33-26-52-34-35-14-40-7-70-20-13-6-44-90-49-108l100 13-59-25c-50-13-45 7-71-32-34-52-58-67-111-102-36 42 16 56 16 56l9 6z"/><path d="m15107 14341c380 139 235 472 464 490-151-85-108-134-189-294-53-104-154-204-275-196z"/><path d="m19086 10525c-1-13-3-1-1-21 3-38-5 25 2-13l4-12 12-176c-69-22-67 47-40 105-159-27-82 124-6 86 0 0 18-5-2-32l-22-18c-1-1-2-2-3-3l47 1c-4 39-21 16-20 126 1-1 3-6 4-4l12-18c5-9 4-10 12-21z"/><path d="m18941 12405c0-68-4-44-116-133-26-21-41-35-65-59-22-21-37-51-64-63 1 62-1 61 31 93 47 46 158 149 215 162z"/><path d="m15667 6636c-84-106-187-53-306-22-133 35-209-3-319-62-1-1-3-2-5-3 57 99 224 114 315 95 119-26 205-96 316-8z"/><path d="m18750 7982c21-172-73-251 31-422 26-43 76-96 118-125l146-97c-96 22-228 120-283 216-98 172-26 253-12 429z"/><path d="m16898 4748c82-61 114-206 238-262 136-62 280-8 407 31-84-69-286-106-407-52-154 69-175 213-238 282z"/><path d="m15240 5035c44 24 122 7 168-11 75-31 119-85 168-146 18-22 29-42 44-62 44-56 113-60 141-72-239-25-124 244-521 291z"/><path d="m15545 14850c-130-16-256-27-344-98-133-108-94-257-145-324 16 169 43 260 134 336 93 78 211 100 355 86z"/><path d="m14990 14832l-16 43v-105c-25 39-20 70-31 111-56 199 68 309 71 304 1-1 3 2 5 3l-20-39c-18-37-30-85-33-126-7-82 15-129 26-191z"/><path d="m15055 6441c139-25 237-208 499 38 20 19 100 102 107 129-11-38-77-123-98-145-86-92-220-155-348-111-51 18-93 46-139 75l-21 14z"/><path d="m14317 6103c37-56 29-71 95-103 45-21 94-36 136-59 72-38 159-129 164-241l-17 32c-41 89-73 144-160 188-90 47-210 68-218 182z"/><path d="m19071 10757l-2-12c-1-27-3-19-26-28-43-16-73-27-121-33-38-5-105-3-141 9-25 8-22 1-22 31 15 6 55-5 71-7 66-9 103-3 165 16 26 8 50 22 76 22z"/><path d="m13726 5083c51-14 99-32 156-43 31-6 61-6 91-12 69-13 43 19 59-21l-25-4c-6 0-7 6-16-7-56 1-108 8-157 20-92 23-110 21-108 67z"/><path d="m14950 15166c-11-18-23-21-39-37-61-60-135-140-183-211l-60-97c-1 50 6 65 43 122 51 78 165 193 238 224z"/><path d="m15197 4952c37-30 55-79 81-127 98-183 298-147 458-105-94-51-239-75-349-23-111 53-127 144-189 254z"/><path d="m14301 6080c21-124 16-224 82-313 27-36 56-66 110-86 26-10 48-14 77-20 30-6 42-9 67-24 1-1 3-2 4-3-120 19-211 30-269 122-61 96-83 181-72 324z"/><path d="m14691 10578c-1 1-2 2-3 3l-9-1c-58 19-22 118 42 125l-30-127zm56 134h20l-15-67c-12 4-8 6-8-8l-7-11 9-6-8-55-31 5c3 11 6 21 10 34 10 36 17 81 30 109z"/><path d="m14809 6484c9-123-58-201-117-244-87-65-146-56-184-173-3 150 163 123 254 282 17 30 44 97 47 135z"/><path d="m14941 13619c11 6 11-8 10 47 0 18-1 37-1 55-1 36-2 75-4 110-11-2-8-4-8 10 12-2 10 2 8-10 29 1 32-3 50-23-22-15-6 4-12-20-6-21 10-134 4-194-20 4-34 14-47 25z"/><path d="m16589 5082l40 38c60 33 127 38 193 19 62-17 119-59 171-61 29-1 33 6 51 3 15-3 5 1 14-6-116-33-135 9-232 41-75 25-184 10-236-34z"/><path d="m16274 9510c20-105 108-115 190-166 59-37 131-118 130-226-47 110-58 159-148 214-73 45-177 69-172 178z"/><path d="m14881 13999c202 1 188 41 307 146 33 29 63 39 119 33-47-23-61-2-110-49-28-27-48-55-80-84-61-55-169-82-235-47z"/><path d="m19000 8161c-64 72-25 188-231 285l-26 15c79-2 150-60 179-103 32-49 79-139 90-194l-4-12c2 12 5 9-7 9z"/><path d="m18828 9608c77-18 166-128 248-176 17-10 30-16 48-23 59-21 38-8 47-27-5-4 5-21-56 4-158 64-223 208-288 221z"/><path d="m18410 10009c17 37 34 84 39 130 24-272-257-261-262-421-14 164 149 127 223 291z"/><path d="m14710 5377c-77-63-139-57-205-138-68-83-55-196-54-315-3 6-2 3-6 16l-9 62c-6 81 8 173 51 236 71 103 161 99 224 138z"/><path d="m16594 4998c78-21 179-172 369-27 36 28 77 63 93 84 10-9 7 0-25-41-5-7-6-9-12-14-36-40-113-87-172-99-110-23-195 47-252 98z"/><path d="m16261 9493c14-439 141-329 271-420-161 25-249 86-274 255-7 45 4 162 3 165z"/><path d="m14738 6513c-62-58-136-25-197-128-54-91-51-174-49-291-23 98-15 216 34 294 46 72 105 104 212 125z"/><path d="m18990 8089l23-13c-124-10-249 53-292 171-20 55-31 113-21 136 17-79 38-167 83-212 45-45 123-78 207-82z"/><path d="m15002 14340l-9-6c0 0-53-14-16-56l-40-20c-21-11-16-12-29-30-11-16-44-47-64-53 34 19 92 159 110 201l16 31-3-76c7 19 4 16 21 29l-10-26c2 1 5-1 6 1l19 4z"/><path d="m14935 5259c56 40 111 71 204 40 85-28 98-70 204-65-52-46-145 23-194 43-74 31-152 10-214-18z"/><path d="m19032 11063c-8-22 22-6-61-4-115 3-143-41-211-65 0 33-11 21 47 51 23 12 43 19 69 26 32 9 126 18 151-1 26-20-7 23 5-7z"/><path d="m14691 10578l-12 3 9 1c0-1 2-2 3-3l30 127c7 15 8 10 26 6 7 8 13 16 20 0 12 6 9-2 15 8l-12 21c-7 11-4 4-11 19l15-5c7 33 0 42 20 68-4-87-33-84 8-98 0-21 5-19-12-13-5 10 3 19-8 1-8-10-19-53-12-63-4-9 8-8-16-5 1-11 3-7-8-8 0 14-3 12 8 8l15 67h-20c-13-29-20-74-30-109-4-13-7-23-10-34l31-5 8 55 16-1-10-53 14 3c-9-11-25-11-42-9-9 1-13 2-21 6-14 8-6 2-12 14z"/><path d="m18169 9757c-52 185 3 358 209 406-25-28-65-32-102-54-35-21-56-42-75-76-50-87-34-178-32-276z"/><path d="m18938 10126c-10-68-53-89-92-116-17-11-25-18-41-31-44-35-63-69-83-122l-13-41c-5-10-6-11-10-16 6 193 167 215 210 278 13 19 12 28 30 48z"/><path d="m14870 14092l9 10c4 6 4 6 7 12 34 58 82 118 149 138 85 25 205-8 258-54-68 30-168 66-253 42-94-27-97-71-155-146-1-1-2-3-3-4l-13 2z"/><path d="m14121 9440l8 18 6 15c3 3 4 2 9 11l5 9c21 40 37 112 38 158l6 18 1 7c9 6 10-12 7 16 25-53-19-179-45-233-35-70-29-30-35-53-1-3-3-2-4-4l6 39z"/><path d="m14940 5192c88-32 171-206 418 29-69-95-207-178-326-103-35 22-62 60-91 74z"/><path d="m14781 5074c114-181 1-322-121-391 76 50 173 153 154 270-8 49-30 73-33 120z"/><path d="m18704 11567l-17 103c6 29 8 60 28 77l7-139 18 6c-23-30-19 5-24-53l-12 6zm28 92c1-11-1-8 11-7-13-8 18-14-20-5l9 12z"/><path d="m14439 9405c-9 14-2 1-8 23-3 12-4 16-6 29-3 20-5 33-8 52 22 8-4-12 12 10 11 15 12 63 29 89 12-19 15-101 17-132l-13 42-8-39c-2-8-4-20-6-27-8-19-7-12-12-16-3 53 33 68 22 152-3-15-6-30-11-46-37-134 2-74-9-138z"/><path d="m18957 10115c37-121-1-262-73-309 2 27 44 43 64 118 17 65 9 124 9 191z"/><path d="m18612 10790c2-1 5-4 6-2 1 2 4-2 6-2l10-5c7-3 10-5 17-9 106-53 102-7 105-69-46 11-117 43-144 87z"/><path d="m18819 9849c14 9 20 11 29 21 14 14 2 8 20 19 1 52-6 37 8 88l4-64c33 56 17 35 36 82-5-62-38-119-78-155l-43-37c15 20 20 11 2 24l14 51c6 27 1 6 7 17 0-28 0-45-9-70 15 9 20 13 30 21-11 5-2 0-9 1l-10 1z"/><path d="m18264 10019v7c23 18 23 23 54 36l4-60c0-1 0-2 0-2 0-16 4-14-8-14h-1v65c-15-5-16-6-28-16l-20-19c-1-47 14-57-10-98l-2 61 8 34c-14-21-10-6-7-29-28-30-26-50-44-91 3 44 21 98 53 126z"/><path d="m18990 8089c19-1 38-4 56-6 13-1 26 4 53 2-31 23-50 11-86 59l-5 8c-10 0-6-2-7 9 12 0 10 3 7-9l4 12c31-12 24-22 46-39 17-13 36-21 58-28-25-3-46-30-102-21l-23 13z"/><path d="m19042 10616c8-13 16-38 15-106-12 7-24 11-32 45-3 12-4 23-1 36 6 27 5 16 18 25z"/><path d="m18884 9817c-11-36 16-12-57-49-22-11-61-20-74-24 18 31 49 38 88 51 20 7 18 10 43 22z"/><path d="m14965 13025c10 8 5 3 15 7l13 6c20 16 10 9 29 10l14 10c-7-10 11-8-14-10-8-29 1-34 1-62l12 2-12-2-15-4c-1-13 8-7-10-12l10 12 3 49c-12 10 1 4-17 7l-13-6 3-70c-14-17 5-4-21-14l3 77z"/><path d="m18739 11000c-3-40-21-42-51-58-25-13-48-26-77-30 67 33 87 72 128 87z"/><path d="m19125 10066c-5-51 7-9-46-72-15-18-34-47-49-69 9 56 65 119 95 141z"/><path d="m14696 14373c29-33 48-123 47-164-14 66-52 92-47 164z"/><path d="m14980 13032l13 6c18-3 5 3 17-7l-3-49-10-12-15-8-3 70z"/><path d="m14449 9986c24-3 43-12 65-21 33-15 42-9 42-47-32 11-67 54-106 68z"/><path d="m14686 12289l-2 11 24 8c13-13 19-3 36-21l-31 9v-39l21-14c-10 3-13 4-22 7l-23 6-4 34z"/><path d="m18997 11394l12-78c-6-18-2-9-17-16-16 27-11 68 5 94z"/><path d="m18692 12199c2-22 7-51-5-70-12-18-7-7-17-13-1 49-8 60 22 83z"/><path d="m13947 8839l-2 8c11 31-6-5 17 13 12-42 23-66 28-101-1 2-4 2-5 5l-8 10c-1 1-2 3-3 5l-28 60z"/><path d="m14767 10230l-99-53c5 33 9 29 40 40 19 7 36 11 59 12z"/><path d="m19260 8525c12-4 23-7 34-16 16-13 10-2 12-34-36 13-44 7-47 49z"/><path d="m18959 12421c0 0 10-4 8-34-2-25-4-19-21-25-8 68 0 52 13 59z"/><path d="m14679 13668l2 33h24v-48l-30 3z"/><path d="m14683 13452l-2 50c24-16 31-29 36-55l-34 5z"/><path d="m19052 10622c8-1 35 9 26-36-4-20 2-3-8-16-19 13-8-7-15 15-3 9-3 28-3 37z"/><path d="m14675 14427c19-32 19-40 17-86-24 21-19 36-17 86z"/><path d="m15615 13367c-16 14-17 13-26 34 35-1 30 8 26-34z"/><path d="m18964 12000c0 0 22 4 11-19-7-15-11-8-23-12 5 33-4 12 12 31z"/><path d="m16102 12850c4 35 12 50 38 60l-38-60z"/><path d="m19123 9896c5 24-5 16 20 18 0 0 5-13-1-19-13-14-18 0-19 1z"/><path d="m19173 9384c9 7-14 19 15 7 18-8 2 4 10-14-8-4 12-15-15-5-24 10 3-2-10 12z"/><path d="m19127 9858c23-1 19-1 27-10-1-1 9-12-12-6-35 11 6-1-15 16z"/><path d="m18986 11796c-14-25-4-16-22-28 4 28 0 22 22 28z"/><path d="m18750 11010c1-2 3-7 3-6 0 1 6-3-3-21-9 14-8 16 0 27z"/></g><g font-family="&apos;Arial Black&apos;" font-weight="900" font-size="529.13"><text x="10500" y="14850" transform="matrix(.71329 0 0 .66965 9671.01 3561.31)">NN 1</text><text x="10500" y="14850" transform="matrix(.71329 0 0 .66965 9671.01 3880.23)">NN 2</text></g></g></g><path d="m15492 17299c-483-227-645-686-699-1163-51-448-56-907-51-1357 6-502 28-1004 44-1506 17-545 29-1092 5-1637-22-488-72-993-202-1467-244-889-640-1732-835-2634-59-276-106-555-140-835-38-311-61-625-65-938-9-770 101-1895 784-2422 431-333 984-342 1506-232 774 164 1509 502 2098 1005 415 355 746 783 967 1268 244 534 342 1106 319 1686-11 297-28 594-48 890-57 840-143 1679-222 2518-89 944-167 1887-212 2834-12 257-13 515-16 772-3 305-7 611-19 916-15 373-39 755-103 1124-44 256-120 587-272 807-145 209-389 347-631 434-292 106-621 154-933 162-414 11-902-49-1275-224z" fill="none" stroke="#fff" stroke-width="20"/><path d="m5605 17264c483-227 645-686 699-1163 51-448 56-907 51-1357-6-502-28-1004-44-1506-17-545-29-1092-5-1637 22-488 72-993 202-1467 244-889 640-1732 835-2634 59-276 106-555 140-835 38-311 61-625 65-938 9-770-101-1895-784-2422-431-333-984-342-1506-232-774 164-1509 502-2098 1005-415 355-746 783-967 1268-244 534-342 1106-319 1686 11 297 28 594 48 890 57 840 143 1679 222 2518 89 944 167 1887 212 2834 12 257 13 515 16 772 3 305 7 611 19 916 15 373 39 755 103 1124 44 256 120 587 272 807 145 209 389 347 631 434 292 106 621 154 933 162 414 11 902-49 1275-224z" fill="#fff"/><g clip-path="url(#1)"><g><g stroke="#201e1e"><g fill="#201e1e" stroke-linejoin="round" stroke-linecap="round" stroke-width="50"><path d="m7025 8728c-3-11-6-9 5-9l48-143 8-16c-10-59-50 18-4-133 22-74 15-97-13-150-18 19 32 26 6 114-11 36-23 68-30 108-21-11-19-15-40-39-25-29-100-100-111-126 62-88 60-86 104-190 12-28 31-27 62-38 71-25 131-67 186-113 19-16 30-37 52-53l-3-12c-22 31-80 70-123 91-36 17-121 57-152 66l50-246c120-27 220-110 271-190-21 19-24 28-47 46-56 43-143 90-216 107 11-65 32-126 59-185 2-5 4-8 6-11 13-21 51-19 74-27 61-21 114-57 156-95-7-9-20 8-43 21-15 9-29 17-47 24-29 12-79 25-110 30 24-73 173-203 248-248-58 15-181 129-220 174-63 73-111 156-144 248-50 135-61 280-113 411-7 18-51 91-81 124l-17 15c-22-15-80-93-99-118-159-205-306-426-407-668-30-73-103-241-114-318 176 3 297 181 523 194l90-2c22-5 8-1 15-5-66 1-98-1-159-11 26-25 72-42 120-48-91-9-102 29-145 36-32 5-106-39-124-55 35-25 100-38 151-44-55-28-145 28-175 29l-130-80c38-31 134-42 194-48-67 2-102-19-189 20-57 26-64-7-184-30-35-122-63-243-86-372-20-108-53-297-50-406 32 9 23 42 90 98 31 26 17 27 25 67 5 27 18 49 30 65l-22-101 80 38c29 23 10 68 43 108-10-27-19-61-14-93 120 67 34 56 86 137l-8-69c21 9 31 24 44 47 10 19 22 38 26 60-20-42-19-64-51-105-92-121-261-139-270-249 57-4 89-3 144-18 46-12 83-40 121-22 38 17 73 32 119 41 79 16 87-1 139 0-53-3-89-4-136-19-21-7-98-37-112-46l167-99c33 8 67 29 110 40 41 10 98 18 132 3-89-4-142-33-211-59 21-15 133-75 165-69 7 1 54 33 81 42 33 12 67 18 106 15-51-6-123-39-153-65 47-23 184-9 240-5-58-30-203-20-273-7-163 31-263 116-411 179-66 28-189 56-257 14 10-103 115-133 183-185 17-13 20-15 34-31 5-6 7-8 14-15l17-16c-17-14 4-1-8-2-29-2 16 9-8 1l-3-52c-14 26-7 44-10 76-24 14-30 27-63 40l10-85c-22 42-16 48-26 99-28 11-57 34-78 41 0-16 1-34 3-50 2-16 5-22 9-41-30 39-13 92-43 117-24 20-55 52-67 89-19-99-15-291-15-398 0-200 6-398 19-598 7-105 18-65 65-146 34-59 15-75 65-91 62-21 124-60 154-115-42 44-98 74-171 99 30-198 24-124 119-186 31-21 42-38 66-61l-3-6c-2-1-10 10-13 13-36 34-89 48-132 69-2-24 7-46 14-67 39-110 55-33 158-123-5-7-31 15-52 24-20 8-40 13-63 17 19-48 90-110 123-131l-5-5c-10-5-105 94-115 107-121 146-110 417-199 459 2-43-1-123 17-155l5 89c54-224-116-431 371-623 16-6 37-14 56-20l41-13c15-6-17 9 9-4 1-1 3-2 4-3 1-1 3-2 4-3-212 21-447 156-493 359-15 67-2 126-11 191-8 62-13 123-22 184-18 121-23 253-37 378-32-28-40-82-156-173-62-49-118-100-120-214-50 136 85 212 168 294 117 115 107 171 91 365-8-6-28-31-30-42-3-13 17-85 11-127-3-19-15-38-17-48 17 47 0 105-11 154-32-28-56-61-89-83 4-49 28-98 0-144 0 40 0 92-19 121-14-12-65-66-64-89 1-11 15-39 17-61 3-27-5-48-4-61-2 19-2 37-7 56l-22 49c-14-38-43-108-31-161-13 125 39 217 102 292 72 85 152 133 151 258-122-16-154-36-293-24-45 4-41-8-67-32-54-50-179-136-293-127 41 1 130 47 156 63 37 23 65 50 96 74 6 5 9 7 16 13l15 16c-9 4-243 62-255 63-31-47-168-141-270-142 44 25 84 33 129 65l106 89c-81 16-141 29-232 27-37-53-110-124-203-142 22 18 66 39 90 59 25 21 59 51 71 79-91-4-265-52-313-92-2 1-5 0-5 2-1 9-5 1 24 18 11 6 22 11 32 16 64 29 129 52 199 67 341 71 556-93 806-64 50 6 120 37 141 38l54-54c6 74-1 161-1 236 0 39 0 79 2 118v84c0 6 3 13 4 24 8 72 8 153 14 226 7 73 21 154 24 226-11-9-4-1-14-14-6-7-7-12-11-19-18-32-80-79-85-91-8-49-5-87-37-121 10 41 18 59 19 108-30-11-59-31-94-45-5-52-9-81-37-118 13 33 21 64 19 104-32-16-50-33-75-49 0-41 0-64-17-95l6 75c-35-19-48-61-67-97 54 212 316 209 338 361-58 0-100 5-151 17-42 10-94 44-132 26-71-32-181-74-271-46 137 7 158 40 260 67-10 13-185 111-189 111-90-38-141-67-264-50 43 9 81 7 125 22 39 12 72 32 112 42-23 31-134 75-167 77-19 1-97-61-186-61l14 8c46 21 85 30 126 62-66 34-228 6-296-3 36 3 119 47 300 22 189-27 304-127 469-197 90-38 180-54 284-20-11 99-82 128-161 174-57 34-136 111-147 190 3-17 12-32 20-49 5-10 8-17 15-26 12-16 8-12 23-21l-1 77c-3-8 7-21 11-36 5-21 2-41 2-61 21-16 38-34 69-46-1 32-4 64-13 91 22-26 26-62 29-101l87-48-9 89 19-45c5-22 5-37 5-60 68-57 46-52 90-105l78 338c72 259 174 503 315 731 26 41 60 88 79 129l-188-140c-63-48-141-85-207-127-331-204-690-282-1097-245-102 9-198 24-297 44-48 9-95 19-142 30-22 5-45 11-67 16-12 3-21 6-33 9-13 3-41 8-42-10 0-1-1-3-1-4 0-19 12-38 16-57 6-32 5-58 2-89 4-14 54-56 66-104l-32 41c-15 16-22 25-35 35-33-105-40-64 4-132 14-21 20-35 25-57l-28 37c-12 13-21 24-32 37-16-20-17-60-16-89 31-19 47-37 61-77-12 25-33 47-58 56 3-47 18-85 40-124-43 53-64 154-49 234 8 42 21 81 28 125 11 70-3 81-21 133-22-7-99-82-183-116-39-16-43-6-55-44-30-94-96-190-164-218 45 15 116 158 136 230l-161-39c-93-18-38-37-107-136-26-36-55-72-93-91 49 55 96 130 115 206-62-11-133-36-177-66-13-24-16-71-34-104-17-32-41-57-60-76 30 56 47 79 60 159-55-21-165-137-188-179-9 12 7 26 32 56 42 51 78 88 132 130 144 112 346 130 512 196 70 28 164 93 186 166-120 20-72 45-175-19-45-27-111-56-182-54-151 4-227 108-293 175 5 11 25-22 51-42 57-45 108-92 187-112 64-16 116-6 169 16 23 10 45 24 66 34 22 10 53 14 72 28-57 14-97-4-152-15-79-15-103-2-169 6 1 0 4-1 4 1l44-1c-17 21-27 31-52 48 47-13 45-34 78-51l82 9c-20 28-45 43-80 58 39-2 76-28 92-51l72 16c-285 89-605 167-909 190-304 23-588-36-852-167-18-9-28-19-48-14 6 26 18 22 44 35l162 74c81 31 153 56 243 77 232 54 376 28 601 25-86 65-129 91-165 206-27 86-27 195-134 236 59-3 97-47 118-94 49-110 32-202 136-290 49-41 66-65 156-73-29 76-43 26-147 103 8 11 14-4 25-10 27-15 61-26 91-31-34 129-17 77-97 122-20 11-36 21-48 36 41-23 54-29 106-42-15 89-48 82-81 91-7 2-15 4-22 8l50-2c-10 26-72 82-105 90 61-15 148-111 175-174 48-112 42-195 154-208 9 43 25 77 46 115 12 23 61 86 61 100 3 87-51 85 1 273 5-13-8-95 12-188 4-21 5-45 21-60 25 39 108 115 147 143-6 45-21 74-22 131 0 44 7 95 27 125-9-74-8-155 19-225 29 12 106 104 116 138 6 20-60 135-20 206 3-83 17-99 35-167 13 13 19 31 25 48 24 63 21 105 35 153l9 20c-1-127-43-253-116-352-107-145-330-292-325-468l540-131c88-22 184-42 268-63 91-24 188-41 283-56 296-47 621-53 904 47 43 15 216 82 228 104-184 5-259 3-351-104 88 200 332 107 430 142 55 20 208 129 260 167 42 31 39 32 69 73l-166-6-52-74c-25-29-43-35-74-58l-8 3c-1 3 1 1 8 6 1 1 3 2 4 2 37 26 77 79 91 118-28 1-56-3-83-8-85-16-49-16-96-79l-43-49c-1 1-4 1-5 3-2 16 5-3 30 46 9 17 19 35 24 52-58-15-170-96-189-126 26 39 90 89 138 117 56 32 125 58 198 68 94 14 270 4 346 59 23 16 61 45 72 65-125 49-253 158-314 240-147-1-370 18-466 128 109-73 276-82 430-88-59 94-113 160-176 270-133 0-321 15-412 112 129-65 215-68 383-72-25 56-147 193-186 217-15 4-211-30-311 34l-15 12c127-24 150-26 285-14-24 34-126 84-176 108-33 16-66 29-101 41-20 7-34 12-53 18l-58 21c118-10 314-103 398-160 176-119 278-267 393-432 120-171 243-323 479-350 52 145-26 230-86 330-57 95-116 250-71 364-3-51-18-119 7-168 20 18 50 76 51 108 15-116-78-84-22-196 11-23 20-42 38-56 8 22 17 38 26 60 22 51 8 44 23 67 2-35 0-57-12-89-7-20-29-46-22-67 1-3 74-110 80-117 27 66 43 87 52 171-3-26 10-48-2-100-8-34-33-73-36-90-4-18 22-69 29-94 10-38 0-74 45-89 25 50 226 282 284 330zm280-805l-2 3 2-3z"/><path d="m6581 10689v-23c2-34 6-74 11-107-35 8-42 7-45 41-3-39 1-10-11-20l-47 18c12-44 16-55 42-66 30-13 49-22 74-34l-2-4-3-15c-27 14-48 25-79 33l28-141c7-8 2-3 11-9 31-20 71-12 62-47-23 10-41 18-66 25 5-51 27-85 40-126 23-6 31-4 53-13l-3-5-8-4c-25-10-10 14-20-8-1-3-4-2-3-2l45-49-3-5c-10-3-51 53-58 62-93 121-88 397-204 452-39 19-155 76-190 80 7-145-14-132-13-160 1-25 42-62 39-130-18 46-23 66-49 106-8-10-49-83-49-89 0-10 31-57 33-103-1 1-2 3-2 4-1 1-2 3-2 4l-36 74-17-22c-45-86 14-66 19-148-13 30-23 45-44 65-7-60 3-76 8-127-29 97-22 171 21 257 32 64 93 154 52 236-37-20-71-40-118-56-42-14-104-22-138-34-16-12-90-172-218-200 45 29 71 49 103 88 19 22 67 84 77 107l-226-3c-25-67-119-162-195-182 71 51 119 103 162 179-39 1-79-3-116-9-34-6-73-6-87-37-19-42-40-79-76-109-25-21-29-28-40-19 7 4 3 2 10 8l19 22c27 30 48 68 62 105-81-18-207-113-250-155 34 51 125 111 188 146 270 154 661 19 807 218-17 17-52 29-77 41-64 30-157-60-293-21-94 27-205 135-232 224 70-66 133-239 335-218 27 3 51 9 77 17 17 5 21 6 38 9l33 10c-49 14-31 17-98 17-86 0-189 27-245 82 48-30 55-34 102-50-5 11-8 20-19 35-8 11-13 15-23 25 33-18 43-39 64-71l88-4c-29 47-44 46-99 73-177 85-705 331-868 363l-5-87c22-31 71-75 64-132 4 34-52 91-68 108l-31-94c19-31 58-61 58-116-10 40-42 72-64 92-14-24-17-60-17-89 27-16 51-44 57-78-19 28-28 41-56 60-2-48 20-95 36-132-7 28-34 64-42 106-29 141 95 345 16 380-27 12-81-56-194-98-36-13-39-6-51-42-30-87-101-180-168-211 60 54 118 145 141 225l-218-45c-35-78-71-166-159-208 54 53 108 129 125 205-35-5-68-15-103-27-28-9-74-19-85-44-21-51-30-119-81-157-1-1-3-1-4-3-1-2-3-2-4-3 14 30 54 92 59 153-55-24-202-152-218-204 21 59 111 147 153 178 34 25 58 45 101 69 119 66 255 83 389 120 84 23 194 64 220 116-67 39-413 92-518 102-478 44-970-92-1393-283-33-15-77-39-111-46 7 31 19 27 53 44 149 73 303 136 461 193 611 224 1152 195 1759 7 44-14 96-35 138-44-14 23-39 37-53 61-35-1-80-9-111 4l91 8c-38 74-107 47-129 47 5 4 6 4 15 8l27 9c-16 16-55 23-75 30 139-13 194-113 292-182 15-10 31-19 52-25 8-2 28-5 35-6 8 0 8 0 16 1 44 8 9 128 0 154-43 121-153 201-234 294-45 52-103 132-135 217-26 68-41 145-42 218 0 20 7 66 6 70 3-78 7-151 31-226l19-50c5-8 3-5 9-11 21 69 36 84 37 169 10-43 15-65 6-114-17-90-81-76 84-238 8 14 25 96 28 116 6 50 0 83-8 127 4-15 17-35 22-58 21-91-13-148-15-218 55-35 100-107 153-145 21 121 34 134 20 264 21-55 32-74 30-145-1-34-25-144-25-146 1-10 52-85 64-109 23-45 28-78 45-127 161 72 91 285 332 400-39-19-95-54-106-91l69 15c-59-54-94 14-127-112 77 11 84 39 97 26l-107-49-31-94c18 4 41 10 58 15l24 10c12 6 16 7 26 11-12-15-10-13-34-26-13-7-23-12-41-18-57-17-36-6-67-50-25-36-81-72-85-92-2-9 3-39 4-50 96-36 198-81 294-123 99-44 192-84 290-129l516-221c46-19 32-3 58-42zm-691 186c8-20 10-26 35-16l-35 16z"/><path d="m3781 5447c1-37 17-65 34-93 15-26 31-58 63-68 3 25-8 73 8 89 13 13 7 13 70-7 33-10 23-26 41-50 18 22-1 31 16 53 18 25 32 3 29 49-25 7-33 1-56-4-24 15-10 20-48 20-38 0-28-8-61 11-60 35-24-30-96 1zm-393-151c48-21 49 40 12 52-48 16-49-36-12-52zm174 71c3-16 14-29 6-47-7-16-22-14-26-39-4-25 9-18 0-51-5-19-15-25 6-37 24-14 85 2 120-1 38-3 70-26 98-19l-50 42c-16 18-3 3-5 11 0 1 7-13-1 7-7 17-21 17-30 28 30 13 65-5 91-10-47 28-105 52-113 112 16 18 16 5 23 26-60 1-75 7-118-21zm493-263c6-24 115-107 168-102-11 13-8 7-9 27 53 49 27 18 15 70-5 22 5 25 6 45 1 23-7 15-17 37 0 11 20 17 13 38-13 35-43-8-71-12-19-2-29 3-52 0 14-14 39-20 47-36 5-10 16-55 7-72-33-9-70 9-107 5zm-43-286c18 4 28 16 46 17 17 0 23-9 42-13 30 19 41 58 39 103-67-46-96 13-140 94 2-37 12-42 2-82-2 1-3 2-4 3l-7 6c-1 1-2 2-3 4-20 25 4 12-21 20-46 15-8 38-60 55 3-43 20-63 10-110-5-23-30-69-5-87 16-11 28 0 51-3 24-3 25-13 52-7zm29-110c-61 15-63-24-31-46 43-29 59 11 31 46zm-199 349c43 10 40 1 74 25 23 16 42 21 64 36 29 20 82 68 80 116l-51-64c-27-33-115-87-152-95-62-13 10-3-77-51-71-39-60-163-40-236 9-34 4-22 27-37 36-24 7-54-32-31-6 33 10 22-4 70-39 128-7 141 18 222-35 20-14 20-62 9-7-2-12-3-20-4-2 0-3-1-5-1-2 0-3-1-5-1-43-7-73-6-113 0l-108 25c-15 2-103-19-63 44 86 15-33-29 172-61 59-9 104-3 158 12 56 16 19 26 69 54 26 15 23 1 37 22 11 18 2 20 21 36 91 79 67 77 188 117-35 28-117-25-140-44l-72-73c-8-14-5-21-18-36-143 0-342 66-439 154-19 17-30 33-48 51-25 24-41 19-51 55 54 8 72 49 124 55 33 3 46-10 80-4 27 5 47 17 76 18 54 3 103-31 159-13 57 18 18 76 99 82 60 4 77 38 139 7 17-9 40-24 59-29 38-10 47 7 75-20 33-32 90-41 63-97-17-34-70-76-67-106 43-9 158 84 197 27 18-26-10-4 35-52 27-28 6-35 9-66 5-38 58-84 22-129-26-33-14-13-28-58-17-54-83-20-106-64-27-51 8-99-10-149-8-22-25-35-31-56-9-30 5-49-10-75l-82-89c-18 9-72 73-87 90-102 114-134 256-122 414z"/><path d="m5520 12226c19 4 33 16 49 25 19 11 26 20 39 35-15 15-36 21-56 25l-33-85zm1014-1129c-4-94 31-208 28-291-10-10 0-8-14 11l-39 66c-19 29-32 60-47 92-158 345-142 666-386 1002-59 81-219 215-321 247 8-96 3-174-38-253-28-54-65-106-115-141-24-17-15-20-25-10 46 32 112 147 137 232 16 54 17 106 9 163-5 36-13 34-45 48-22 9-41 20-65 24-24-45-58-61-99-91-6-41-10-86 1-126 9 11 40 33 54 45 20 17 35 38 52 54-15-59-65-89-104-125l15-141c36 11 105 90 128 129-9-49-50-92-77-117-12-12-44-32-49-48-15-47 10-96-74-220-47-69-19-35-41-108-2-5-4-12-6-17l-5-8c-1-1-2-2-3-4 0-2-2-3-3-4 11 132-6 239-46 354-78 225-270 298-376 437-125 163-49 281-50 297-10-117 12-184 73-265 26-34 59-57 90-85 101-91 181-145 260-269 82-129 64-224 88-256 72 81 63 172 52 298-17 196 19 185 53 301-34 8-59 24-94 27-15-38-36-63-49-112-43-166 70-263 67-380-15 25-34 76-49 106-57 116-71 235-12 351 40 78 13 28 56 88 18 26 52 59 74 77 44 35 138 101 190 116l-34-25c-42-30-67-45-109-84-28-25-107-91-122-128 23-14 62-23 90-27l52 66c-16-24-30-40-42-67l147-53c-7 66-29 117-18 188 7 48 32 109 79 131-1-1-2-3-2-4-1-1-2-3-2-4 0-1-71-81-39-228 35-155-2-72 139-157 68-41 116-68 179-120 44-36 96-101 138-159 49-67 62-111 93-166 96-173 190-547 257-658z"/><path d="m3525 9950c57 1 112 13 146 42-37 20-17-4-29 45-28 11-31 2-52 24-24 26-7 19-52 25-8 21-14 31-34 26-1-1-2-5-2-4 0 1-1-3-2-5-11-49 12-9-28-63 18-1 49 24 102-25-8-38-16-7-49-65zm-277 53c8 12 27 25 39 31 30 16 31-7 54 12-60 25-9 54-57 63-22-17-6-15-19-27-14-13-11 1-30-16-34-30 20-5-57-41-5-37 4-29-14-45l-8-5c42-16 96-37 154-29-12 28-49 30-62 58zm370-172c-50 6-25 0-47-3-20-3-26 9-52 1 15-18 58-31 75-46 30-27 18-55 77-57 18 51 26 24 40 51 20 39-14 29 39 52-3 37-37 58-55 77l-5-34c-46-9-85-10-130 6 27-17 51-21 57-46zm-467 58c-19-23-39-40-38-79 58-12 26-20 53-51l62-46c32 15 29 31 50 58 10 12 18 19 31 27 31 19 25 9 35 29-20 0-39-6-55-5l-19 4c-7 1-7 0-13 1-12 2-7-1-14 3 13 27 23 21 48 42-28-13-41-17-76-19-75-4-45 11-66 36zm638-178c9-13 21-16 43-13 7 7 9 8 13 19-15 25-50 32-56-6zm-696-4c-9 8-23 13-38 3-18-12-10-15-3-24 26-28 63-1 40 20zm330 25c-21-94-88-109-137-143-23-15 2 3-17-18-7-7-3-12-20-10-18 3-24 26-5 32 24 8 14-14 54 7 60 31 130 86 118 159-3 19 0 43-4 55-7 19-24 45-33 103-6 38 13 89 7 102-24-28-31-70-21-114 18-78 11-51 36-100-103-110-246-189-423-173 1 157 27 99 51 152 17 38 8 41 38 66 23 18 43 26 55 50 18 37-10 49-17 76-6 23 13 46 22 77 17 61 65 22 115 90l69 11c73 12 62-101 100-116 28 26 5 96 48 120 7 3 83 1 104-18 36-32 42-17 87-37 39-17 32-40 58-69 62-70-72-70 70-154 34-20 39-28 59-63 45-80 41 22 90-157-93-13-190 5-274 35-82 29-134 73-186 112 36 113 10 145-24 216-7-10-9-11 2-32 45-84 5-158 13-192 7-31 1-52 5-68 10-39 59-85 84-101 119-76 73-35 126-45 13-20 14-16 1-36-32-3-25 0-39 17-13 16-12 13-31 23-28 14-48 26-66 39-89 66-48 93-114 104z"/><path d="m4790 8436c54 35 189 63 277 67 236 10 351-76 552-124 80-19 225-28 281 23-27 15-69 26-100 40-215 100-303 192-433 378-82 118-172 337-249 421-160 176-291 166-355 193 105 5 199-20 274-61 213-116 280-374 408-547 51-69 87-123 145-174 142-126 466-281 689-286-49-8-83-12-137-9-71 3-57 12-123-8-238-72-262-26-388-20-27 1-31-9-49-22-59-44-199-106-263-86 145 39 134 42 259 118-14 11-109 41-129 49-81 32-77 44-113 16-59-46-162-88-265-76 49-21 217 71 255 109-48 18-138 46-199 46-7-2-92-99-203-101 78 20 125 73 165 103-106 15-215-26-299-48z"/><path d="m6436 9723l13-75-16-10c-12-9 3 9-10-10 14-11-13 10 13-3l21-4 7-27c4 24 19 10 29-4l21-31c35 0 15-4 33 14 39 38 17 26 31 49 11 18 8 1 20 21-7 25-20 33-33 48l-12-16c-8-8-1-6-15-8h-48l-5 31c-23-31 10-18-22-26-16 14-10 29-19 52l21 5c1-7 1-14 3-20 4-13 6-10 13-14l-7 35c12 2 7 0 17 3 8 2 10 4 14 7l26 22c-26 44 2 14-45 42-14 8-3 3-16 13l-51 38c-15 32 3 21 5 23 20-10 16 5 13-31 5 15 0 18 11 31l9-5c83-50 73-17 97-62 13-25 30-29 24-57-5-25-14-35 6-56 16-17 36-19 54-34 19-16 15-26 34-48 16-19 46-20 56-105-88-10-147 5-221 35-29 12-35 10-38 44-3-32 4-13-9-25-16 11-62 44-70 52-6 14 35 108-27 161 18-71 32-34 16-149-2-15 4-21 4-42 1-104 128-117 100-129-25 18-49 28-68 48-39 40-14 42-52 57-20-12-16-25-31-45-29-40-66-48-86-66-12-11-31-34-34 5 26 15 14-7 48 9 133 64 80 150 67 202-16 63-2 59-2 110-45-48 0-123 11-162-21-18-33-35-57-53-60-45-176-83-258-70 5 23 0 59 12 77 17 27 16 4 34 53 16 45 83 53 63 101-17 41-22 16-3 61 14 32 4 36 37 50 68 28 33 19 56 32 13 8 59 14 71 10 34-18 27-68 53-84 22 23 1 92 49 89 22-1 19-12 20-30 1-43-13-48-20-61 56 14 52-7 64-16 21-17-21 9 10-2-34-47-41-22-32-49zm-210 44c17 21 34 28 68 21-20 32-16 1-28 55-47-7-7 1-34-21l-14-9c-10-8-10-11-17-17-33-28-17 10-32-38l-5-15c23-14 71-27 107-19-18 21-36 20-45 43zm-101-142c14-8 16-4 25-14 7-8 6-17 14-26 8-10 10-8 23-18 19-16 2-16 27-15 22 1 23 25 39 44 15 17 31 20 45 37l-75-2c10 26 5 13 22 29-91-13-81-5-90 21-18-14-28-25-31-55zm505-82c1-2 14-6 22-5 14 2 5 0 17 9-8 27-40 29-39-4zm-556-7c11-18 29-23 42 0-15 24-27 20-42 0z"/><path d="m3194 6428l15-11c12 7 2-4 14 11 12 15 18 34 22 53-25-8-38-22-51-53zm-129 74c3-38 28-64 45-89l21 14c-18 29-34 64-66 75zm212-131c-42 2-25 1-31-16 12-9-13-5 20-8 14-1 35 4 49 14-13 8-17 9-37 10zm-192-17c-18-2-31-5-48-11-20-7-24-4-30-23l81 10-4 24zm113-65c8-20 33-48 53-52-6 25-19 47-34 58l-20-6zm-95-69c15 11 36 38 36 65l-18 6c-13-15-27-51-18-71zm-33 64c-8-1-137-42-145 37-7 65 85 80 135 80-24 15-42 32-53 66-30 87 58 130 119 55 33-40 21-77 31-92 9 13-2 16-1 42 2 38 33 96 82 105 44 8 63-15 67-49 5-42-18-63-29-90 191 30 177-132 8-120 17-33 37-31 51-68 32-87-77-146-152-2-29-209-228-81-114 36z"/><path d="m5561 5638c-120-35-167-64-320-63-264 2-458 129-619 142-118 10-255-28-302-78-8 6-4 6 25 33 27 25 74 50 113 63 322 114 532-205 1008-77 156 42 210 67 326 147-41-61-106-84-128-125-44-82-108-159-185-204-56-33-34-12-49-78-17-70-57-127-97-159 45 56 56 118 80 200l-170-62c-12-58-23-111-64-160-2-2-8-9-8-10-6-8-2-2-7-11l13 39c22 47 29 77 38 131-39-11-131-51-140-79-8-26-4-57-17-92-10-27-24-49-43-67 27 44 33 84 36 142-19-6-18-4-41-30-11-12-22-25-32-38l-47-69c-7-9-4-5-9-10 43 117 169 221 297 277 74 32 238 92 286 149 13 15 47 63 55 91z"/><path d="m7373 5657c12 18 26 38 30 65-19-7-42-35-52-55l23-10zm30-64c19-12 54-4 70 7-18 14-46 12-71 12l1-18zm-47-68c11-20 28-44 51-49-3 24-17 49-34 61l-17-12zm-89-64c10-2 7-3 5 7l5 8c6 9 24 35 17 46-15 26-25-5-30-17l-7-11 1-10c-7 33 25 121 22 167 11-5 7-5 5 6 1 1 3 3 3 4 0 1 1 3 1 4 2 11 9 10-4 10-9 12-15 22-25 34-17 21-12 23-40 30 10-41 32-56 41-87l-13-20c-30 3-17 5-40 11 0 8 2 6-8 4 1 8 3 6-6 5 1 8 3 6-6 5 1 9 4 7-5 7l-3 8c3 11 6 9-5 9-73 163 120 144 135 10l6-16c1 24-10 40 12 83 35 69 128 82 135 6 4-39-17-64-30-90 59 11 83 5 124-14l-2-44 2-20c-45-57-96-48-156-25 10-18 35-4 73-52 57-72 8-144-68-109-31 14-48 37-60 68-27-42-20-94-80-101l-28 1 15 87c0-2-3-4 5-8 21-13 7 0 11 1z"/><path d="m4846 9476c31 13 93 23 129 28 497 74 1042-37 1253-510 36-80 58-152 81-241 11-44 18-83 34-126 26-71 31-62 51-104l-4-5c-19 27-42 53-60 85-18 31-32 59-47 91-31 67-46 137-72 209-52 146-129 262-220 340-281 243-744 266-1154 226l9 5z"/><path d="m2898 8511c13 11 25 30 27 51-9-3-21-13-30-24-15-17-18-18 3-28zm-119 69c-2-25 23-56 32-73l20 8c-10 28-31 51-52 65zm203-116c-49 25-56 0-56 0 6-6-13-17 32-11 20 3 21 8 25 11zm-187-23c-5 22-5 19-34 10-24-7-25-8-32-20 14 0 26-1 40 1 26 4 23 7 26 9zm29-77c27 39 8 38 2 43-18-14-19-30-22-59 18 9 7-3 20 16zm105-4c-3 15-19 63-39 44-8-8 3-19 10-27 14-16 8-11 29-17zm19 281c47-16 25-92 1-113 32 2 52 12 85-4 18-9 40-26 29-56-24-65-134-30-138-32 34-10 47-16 63-40 68-104-70-136-109-32-18-28-30-103-92-84-21 7-34 31-32 59 2 29 13 40 23 60-44-13-117-16-117 36-1 50 55 60 110 63-39 24-61 75-31 125 85 21 89-38 114-61 9 38 44 97 96 79z"/><path d="m7196 7236c-41 16-66 49-94 64-70 39-225-106-303-152-151-90-320-127-491-30 62-28 149-28 225-24 131 7 188 40 281 102 45 30 111 83 155 103 27 12 80 21 97 31-96 86-29 76-170 115-81 22-177 31-260 9-184-49-202-175-336-240l113 122c113 133 276 176 456 139 31-6 71-22 94-24-55 61-95 211-101 302-8 138 26 252 24 386 30-38 25-193 20-234-17-152-2-312 88-436 27-37 27-45 67-67 31-16 69-37 87-56-23 9-50 22-70 30l32-36c29-23 46-18 55-29l4-12c15-20 22-17 28-63z"/><path d="m3481 9022c21-39 46-68 68-123 83-213-55-380 57-522l14-15c13 30 19 96 34 137 42 117 124 217 216 293 138 115 280 191 277 402 12-14 13-18 15-43 20-203-172-310-305-431-153-139-226-367-205-571-6 7-2 0-9 12-8 14 7-19-4 9-21 49 5 53-40 120-65 97-57 123-69 212-5 37-99 70-119 161 5-4 5-4 10-10 72-81-11-3 108-109l22 146c-45 25-102 84-107 137 25-51 73-86 111-116 4 28 6 56 5 84-1 43 2 42-31 59-28 16-73 55-78 95 2-31 69-68 97-85-4 30-16 57-28 84-6 13-12 25-20 38l-22 30 5 6z"/><path d="m4486 10648c-21-11-26-24-44-47-10-13-31-39-32-53-1-12 30-75 24-139-14 40-12 70-37 111-22-52-38-125-34-187-42 344 304 422 272 645-33-25-55-54-91-84-96-83-241-124-374-145-214-33-362-17-478-209 13 95 120 176 210 207 105 36 245 38 359 64 174 39 275 125 388 244 19 20 32 34 48 57l40 61c-4-28-15-51-26-74-44-91 21-108-83-283-31-53 43-44-3-217 2 56 6 137-27 179-24-41-73-70-97-107 4-27 15-47 18-79 6-68-8-73-9-77 0-2-2-3-3-4 0 67-11 82-22 141z"/><path d="m4864 10133c16 18 25 35 43 54 16 17 31 28 54 45 131 95 386 42 538 53 155 12 315 96 419 182 19 16 36 27 54 45 15 15 29 36 43 50-13-39-30-55-52-86-28-39-14-101-80-196-22-32-42-45-61-74 10-87 5-138-36-200 27 53 18 118 18 182-14-4-95-68-123-84 2-58 11-121-24-165 8 57 12 83 3 145-24-19-75-59-89-82-13-23 16-92-10-141 0 36 3 80-13 107-23-26-80-149-68-189-16 147 119 300 240 383 21 14 50 39 67 55 40 37 79 85 88 165-23-10-35-21-53-34-137-90-276-114-448-111-98 2-208 22-301 2-63-14-145-50-188-95-3-4-5-6-8-9l-12-3z"/><path d="m4212 7312c-62-62-91-105-181-154-74-40-163-68-261-88-98-20-200-23-286-59-93-39-136-82-182-161 46 245 392 239 556 283 131 35 196 87 269 153 49 44 159 157 180 234-2-51-38-97-39-133-4-96 2-132-47-221-16-29-20-27-8-62 15-41 31-116 7-153-3 69-13 96-31 158-18-15-88-94-97-112 20-62 28-80 18-154-8 17-8 49-13 72-3 11-5 20-9 31-7 23-10 24-22 32-12-27-48-65-58-94-10-31 27-34 27-122l-18 44c-5 14-15 31-21 43-30-46-25-134-26-193 3 36-20 88 11 194 38 128 104 169 181 281 34 49 63 104 50 181z"/><path d="m5073 6536c-49-13-124-73-144-98l-6 4c15 21 95 80 130 99 51 28 108 46 174 56 145 22 291 21 348 115-120 3-171-12-289 28-195 66-328 202-408 237-94 42-175 52-276 30l69 29c285 63 417-247 752-280 62-6 129-7 191-2l126 18c2 0 8 2 9 2 2 0 3 1 5 1l23 2c-1-1-6-5-7-5l-11-6c-65-34-49-6-103-55-35-32-67-59-120-85-27-13-45-17-75-24-63-16 3-30-151-150l10 17c45 38 61 82 88 120l-149-11c-10-10-3-3-10-14-62-101-36-49-95-107l-9 4c0 3 4 2 5 4l21 20c36 40 32 37 60 90l-112-19c-53-18-17-69-102-120 26 32 44 54 58 101z"/><path d="m6306 6379c33 25 96 39 123 67 45 47 113 89 185 108 47 12 34 11 54 46 27 46 58 68 99 97l7-2c1-2-12-8-15-11l-42-45c-13-20-29-52-42-68l142 9c17 45 65 97 106 116-29-31-65-61-81-113 29 2 47 5 74 11 58 13 43 12 51 31 15 37 40 73 68 84-20-17-42-57-51-90 46 13 116 68 140 96 14-12-124-128-276-153-114-19-209-8-300-73-17-12-20-16-28-35 167 4 288-7 436-109l160-110c75-54 164-60 172-63 25-10 13 7 16-21-102-51-339 151-442 201-90 44-144 60-262 65-105 4-207-4-293-38z"/><path d="m4334 5706c-7 11 165 199 180 214 258 267 622 373 971 185 80-43 153-95 238-132 14-6 1 0 13-6 13-7 6-3 13-7-246 26-405 293-813 173-177-52-346-187-474-299-32-28-103-98-123-134l-5 7z"/><path d="m4388 8272c15 22 98 59 144 68 178 36 333-71 490-132 129-50 223-62 375-42 127 16 224 45 317 99-56-63-171-116-285-140-139-29-258-14-383 26-215 68-354 211-579 150-52-14-70-35-78-28z"/><path d="m4581 6633c17 5 20 19 24 38-16-8-33-22-24-38zm-88 49c4-14 8-24 15-35 13-21 7-14 23-15-1 24-17 41-38 50zm114-85c5-5-11-12 20-9 10 1 17 4 23 8-14 6-28 12-43 1zm-100-17c-4 9 4 16-24 7-16-5-19-11-24-15 22 0 32-2 48 8zm-99-27c-13 56 22 66 79 69-29 18-43 57-25 95 54 12 69-14 86-53 10 41 29 74 79 66 29-29 14-51 1-84 128 8 100-81 3-78 13-22 55-56 20-92-42-19-65 20-84 40-15-41-26-72-82-57-16 39-12 57 5 86-33-9-52-8-83 8zm178 0c-2-3-17-1 1-23 7-9 12-9 22-12-10 41-17 32-23 35zm-70-45c11 8 29 26 16 43-7-5-3 1-9-8-2-3-4-8-5-12-3-12-2-12-2-23z"/><path d="m5683 8406c-2 3-18 5-26 7-39 13-100 46-132 68-25 18-42 31-68 49-28 19-40 25-69 42-99 59-239 93-379 70-211-35-393-159-547-281l-17-13c-30-24-22-35-31-21 14 12 21 22 30 33 64 72 138 131 225 184 236 144 482 193 737 58 45-24 166-110 206-145 40-36 43-23 71-50z"/><path d="m4180 9185c111-190 205-462 93-698-141-299-386-288-500-415 143 205 585 201 498 779-20 133-54 224-92 334z"/><path d="m4595 11277c-16-3-33-4-50-5-173-14-382 56-591-144-111-107-265-411-272-552-5 101 44 246 79 333 80 199 239 347 464 387 145 26 269-6 412-5-9-6 6 1-13-7l-29-7z"/><path d="m5231 11471c-1 1-3 2-4 3-86 57-171 84-267 156-318 238-235 707-65 933-83-177-164-473-85-685 44-118 106-175 189-234 58-41 200-115 238-165l8-12c0-2 2-3 3-4l-17 10z"/><path d="m4224 7621c-204-57-226-14-379-36-230-33-363-176-450-367l-84-220c-7-23-12-64-23-82 2 224 138 464 251 562 134 117 289 154 483 144 79-4 124-5 202-1z"/><path d="m5042 10466c-16-20-31-39-45-59-100-141-80-123-148-260 22 51 30 102 56 155 75 152 154 264 299 363 213 146 398 115 628 50 34-10 68-12 87-27-191-5-360 104-581 15-153-62-206-129-295-236z"/><path d="m4634 7055c-11 8-15-2 23 28l104 66c156 90 345 154 542 126 142-20 223-78 302-143 40-33 73-68 111-110 40-44 54-71 116-104-140 62-137 94-237 183-68 60-160 127-290 146-138 21-261-11-377-50-80-27-252-100-294-140z"/><path d="m5531 5471c22-152-138-334-300-405-207-90-370-67-451-269 6 206 296 246 423 295 188 73 345 325 328 378z"/><path d="m6303 6246c1 1 3 2 4 4 3 14 95-63 102-68 83-68 152-174 314-213 105-25 215-14 315 13 44 12 92 29 132 45 36 14 93 45 127 53-4-32-59-51-110-76-136-64-304-98-460-65-109 23-179 76-240 125-38 30-57 56-89 92l-82 81c-13 9-5 4-15 9z"/><path d="m5429 5532l-130-39c-53-7-94-9-145-21-100-24-165-69-213-122-55-62-89-114-120-209-14-41-24-83-34-127l-29-142c-5 252 88 538 368 619 94 27 201 28 302 40z"/><path d="m6186 5117c72-3 163-74 194-106 151-153 117-309 152-444 21-83 71-137 132-168-189 37-172 283-200 397-20 82-65 149-108 192-31 31-117 119-170 129z"/><path d="m5864 9988c-37-75-78-111-134-156-56-45-120-78-180-119-84-56-90-141-108-179-5 102 33 150 89 197 126 105 224 111 305 272 33 65 55 137 62 219 30-67-6-178-34-235z"/><path d="m3299 9241c52-27 87-102 83-185-8-164-94-237 3-446 26-55 68-131 106-156-48 21-102 84-132 137-91 163-41 285-9 441 22 108-26 156-51 208z"/><path d="m4382 10075c-45 69 11 168 47 212 96 116 299 191 257 549 29-89 44-126 20-233-35-158-150-232-245-322-45-43-84-117-78-205z"/><path d="m6538 9281c-8 30-2 26 10 54 4-50-19-34 2-117 25-99 46-96 76-138 35-49 42-44 90-119 37-57 66-130 70-211 4-76-20-176-59-220 34 90 36 235 6 324-6 17-12 29-19 44-28 67-16 20-49 79-43 79-165 156-138 303 16 7-9 0 5 0 28 0-19-9 4 0z"/><path d="m4270 7166c77-135 14-319-63-410-64-75-75-76-138-141-56-57-73-106-72-204-82 134 119 287 163 339 45 52 77 89 98 172 21 82 26 164 12 244z"/><path d="m4737 6236c0 1 24 34 26 37 81 107 296 75 404 90 129 18 298 134 337 210-10-70-114-156-170-187-216-118-491 6-591-157l-5 7z"/><path d="m7165 5640c45 2 63 3 87-18-3-22-2-19-11-30l-4 1-61-16c-15-9-6-3-12-14h62l18 2-8-35c-2-10-2-18-3-29-4-26-12-37-8-62 12 13 13 33 16 49l24 162c17-26-10-103-13-134-3-25-18-109-26-130-7-2-6-4-4 4l4 49c-3-3-2-1-6-11-11-27 1-14-12-25-15 29-13 62 2 92 0 0 6 10 6 11 9 13 6 7 11 12-1 1-3 2-3 4 0 2-3 2-5 3-2 1-23-9-29-10-137-21-134 111-22 125z"/><path d="m6374 8213c-200-8-506 201-788-410 13 68 61 164 97 218 44 66 100 124 160 166 182 125 324 78 497 39 4-1 11-2 15-4l20-9z"/><path d="m7288 6895c-15-51-94-90-149-101-74-14-164-3-242-14-132-19-266-123-315-194 17 56 74 111 110 137 230 168 390 22 563 143 18 13 18 18 33 28z"/><path d="m6611 8525c-33 55-236 141-262 351-28 226 158 440 161 440l3-7c-32-33-80-137-101-192-28-74-53-159-40-248 22-147 116-200 179-260 4-4 66-77 65-79l-6-7z"/><path d="m5415 9575c-58 87-68 347 18 474 115 170 241 159 371 229-80-86-244-77-347-229-97-144-59-302-42-473z"/><path d="m3590 8491c3 145 154 246 43 465-54 105-200 228-306 289 144-57 269-163 331-288 79-163 26-274-45-413-8-16-14-37-22-53z"/><path d="m4340 10115c-32 35-74 145-87 218-71 382 259 451 342 536-97-115-232-138-297-284-76-170 6-335 43-470z"/><path d="m4174 7198c-112-167-410-164-263-631 11-36 30-73 39-108-16 12-21 26-30 43-9 17-16 32-24 51-82 187-71 394 104 526 49 37 140 80 173 119z"/><path d="m5461 6657c-118-10-175 18-280 16-176-3-278-111-360-241-17-27-100-166-93-193 0 54 51 164 78 212 76 131 209 241 380 243 103 2 193-39 274-38z"/><path d="m5754 13525c34 1 140 30 187 40l302 51c20 3 31 3 42 4 93 11 170 21 269 19v-31c-16-8-33-6-55-5-78 1-178-3-257-11-33-4-67-6-99-10l-388-55z"/><path d="m6625 6504c186 9 124-11 238-14 207-5 304 137 389 283 27 47 21 30 42 87 0-18-4-33-11-49-8-18-12-27-20-49-51-146-204-291-388-293-95-1-161 29-250 34z"/><path d="m6439 10555c51-167-82-348 195-536 11-8 24-13 33-20 16-11 14-6 15-33-90 55-166 91-223 210-65 134-19 239-20 379z"/><path d="m5949 5788c-49-69-200-109-254-226-67-143-11-264 21-400-33 37-57 123-66 183-11 73-6 153 23 214 43 92 109 139 197 182 33 16 56 25 79 46z"/><path d="m5541 11335c99 53 177 103 216 213 24 69 44 243 172 245-39-5-90-66-106-103-20-46-27-112-48-164-35-85-121-184-234-192z"/><path d="m6570 13230c9-23 8-21-13-42-1-1-2-2-3-3-2-2-9-9-11-12-14-17-24-31-36-51-84-141-68-305-60-457-35 81-37 238-15 330 21 87 56 156 121 215 11 10 16 14 17 20z"/><path d="m5989 6697c16-245-288-290-351-360l-43-63c10 160 226 119 330 285 28 45 51 80 65 138z"/><path d="m7525 7115l-2-15c-6-9-2-9-15-3-18 8-6-8-11 17-3-10 9-18-25-9-51 14-149 58-198 81-41 20-43 13-48 67l237-110c22-9 22-4 28-25 0 0-3 23 34-3z"/><path d="m6158 10004c-99 152 110 233 105 433-1 54-9 115-33 155 68-77 75-206 23-304-60-114-135-161-95-284z"/><path d="m4952 11237c61-65 107-160 73-282-14-53-33-89-52-137-41-101 18-138 3-156-27 46-47 74-28 147 28 109 120 207 19 397l-19 28 4 3z"/><path d="m4515 7566l5 7c5 0 110-109 81-263-23-123-82-148-42-288l-21 24c-5 9-9 24-11 35-5 28-3 54 4 82 11 44 30 85 42 129 25 89-11 232-57 274z"/><path d="m7699 5220l1 7c21 24 19 4 43 21 89 62 49 34 135 104 11 9 18 16 28 24l35 22 8-44c-56-33-144-125-199-129-20-1 8 11-10-4-4-3 3-8-33-15 1 25 1 8-7 14z"/><path d="m5930 6745c-178-113-334 10-353-448-40 98 13 259 62 321 83 105 218 95 291 127z"/><path d="m6499 6882c17-164-208-130-306-283-17-27-60-100-60-136-11 101 60 194 145 242 55 31 225 78 220 177z"/><path d="m4863 11216c-21-108-225-211 31-490l32-32c1-1 3-2 3-2 13-10 5-1 4-9 0-2-3-2-5-3l-24 22c-1 1-2 2-3 3-1 1-2 2-3 3l-27 20c-19 17-31 35-48 57-29 38-55 81-68 140-23 108 36 220 107 291z"/><path d="m3165 8450c127 8 260-51 321-106 104-94 81-214 89-318-5 27-17 45-19 84-2 34-1 61-8 94-13 64-40 97-78 130-41 36-74 53-136 75-46 16-118 39-168 41z"/><path d="m6144 10574c-17-43-68-81-98-120-105-139-5-327 87-438-63 49-142 169-149 280-7 118 82 236 159 278z"/><path d="m5889 11800c-458-75-355-260-411-414 4 142 7 237 97 312 70 58 183 110 314 102z"/><path d="m4429 7557c-20-100-119-154-78-296 28-97 90-145 151-213l14-17c-65 29-158 144-181 227-36 131 42 224 94 300z"/><path d="m6516 6836c38-94-3-305-164-369-40-16-108-28-155-38 143 89 308-2 319 407z"/><path d="m5648 7414c-1-429 162-335 317-435-57 35-182 17-266 127-66 86-79 193-51 309z"/><path d="m4728 11514c20 14 52 21 77 26 82 17 176 15 249-20 46-22 75-51 100-86 12-18 24-36 35-58l30-56c1-4 9 1-2-8l-72 107c-24 40-48 64-94 86-110 52-207 25-322 9z"/><path d="m6177 6196c120-20 171-42 231-112 50-58 74-189 43-272-1 140-3 275-149 336-23 10-38 13-63 20-25 7-40 11-59 25-1 1-2 2-4 3z"/><path d="m7224 5387c8 21 23 105 26 130 3 31 30 108 13 134l-24-162c-3-16-4-36-16-49-4 24 4 36 8 62 2 10 2 18 3 29l8 35-18-2 24 12-8 18-4 1 4-1c9 11 8 7 11 30-24 21-41 20-87 18 22 9 19 4 44 7-10-1-9-4-8 4-9-2-7-4-6 5-9-1-7-3-6 5-9-1-7-2-5 7l-3 8-5 9c11 0 8 2 5-9l3-8c9 0 6 2 5-7 9 1 7 3 6-5 9 1 7 3 6-5 9 2 8 4 8-4 23-6 10-8 40-11l13 20 19-3c-3 9-4 7 5 6v18c14 0 6 2 4-10 0-1-1-3-1-4 0-1-2-3-3-4 2-12 5-12-5-6 4-46-28-134-22-167-1-18-6-22 9-24l5 7c-3 10-6 8 5 8l-5-8c3-10 6-9-5-7-4-1 10-14-11-1-7 4-4 6-5 8l-15-87 28-1c-6-5 1-9-20-5-20 4 5-3-9 3-11 5-5 3-11 8zm34 108l7 11c0-14 5-11-7-11zm-38-105c-22 8-8 1-15 13 13 11 1-2 12 25 4 10 3 8 6 11l-4-49z"/><path d="m7209 8179c-2-20-3-10 5-13l8-41-177 117c-1 1-3 2-4 3 38-5 95-28 128-48 11-7 0-2 19-11 8-3 13-5 21-8z"/><path d="m2354 7775c-11-23-133-81-184-117-18-13-43-30-62-39 0 22-6 8 49 46l177 111c38 15 7 6 20-1z"/><path d="m7897 5664c-4 11-2 14-9 29-3 6-11 13-18 22-13 16-19 30-36 38 30-6 80-49 80-105-41 12-129 51-155 93l49-27c44-31 58-28 85-46 1-1 4-2 4-3z"/><path d="m4041 4708c28-35 12-75-31-46-31 21-30 60 31 46z"/><path d="m6489 12689c-3-7-5-13-8-21-1-2-4-8-4-9l-6-9c1 56 37 132 75 151 2-59-21-34-57-112z"/><path d="m6461 9637c1 1 3 1 4 2 1 0 3 1 4 2 33 19 8 2 17 15l-29 9 4-28zm-25 86h8c9-24 3-38 19-52 32 8-1-6 22 26l5-31h48c-17-10-43-2-60-3 9-5 5-1 14-12 5-6 5-7 11-16l-73-1c0 0 3-7 5-10-26 13 1-8-13 3 13 19-2 1 10 10l16 10-13 75zm29 5l40 11c-4-2-6-4-14-7-10-3-5-1-17-3l7-35c-7 3-8 1-13 14-2 6-2 13-3 20z"/><path d="m7650 7174l-1 20c21-5 15-7 33-27 35-39 66-46 107-75-59 7-99 44-134 65l-3 17z"/><path d="m2452 10962l266 145c0-26 3-18-23-29l-243-117z"/><path d="m7427 6161c-21-27-33-26-54-49-21-22-43-34-77-46 7 43-3 15 31 33 14 7 15 13 31 22 18 9 18 5 36 17 16 11 18 14 33 23z"/><path d="m7190 7276c19-5 24-2 33-21 6-12 7-27 9-41-36 9-36 24-41 62z"/><path d="m2779 8580c21-14 42-37 52-65l-20-8c-9 17-34 48-32 73z"/><path d="m6494 9460c32-7 56 8 57-30-10-6 12-7-17-7-11 0-24 13-31 22l-10 14z"/><path d="m7138 8308c-38-29-5-12-46-28-1 11 53 58 66 61 8-33 5-14-20-33z"/><path d="m7329 6163l10 4c7 2 10 2 17 3 32 4 36 2 72 13-17-14-74-45-96-25-1 1-1 3-3 5z"/><path d="m2796 8441c-2-1 0-5-26-9-14-2-26-2-40-1 6 12 8 13 32 20 29 9 30 12 34-10z"/><path d="m2827 8406c6-4 25-3-2-43-13-19-2-8-20-16 3 29 3 45 22 59z"/><path d="m2930 8360c-20 6-14 1-29 17-7 8-18 19-10 27 20 19 36-28 39-44z"/><path d="m2926 8463c0 0 8 25 56 0-4-3-5-9-25-11-45-6-26 5-32 11z"/><path d="m6581 13637l1-35-27-2 2 40z"/><path d="m2925 8562c-2-22-14-41-27-51-21 10-17 11-3 28 9 10 20 20 30 24z"/><path d="m7740 5102c35-8 36-4 40-36-38 8-32 3-40 36z"/><path d="m6549 12777c-1 33-4 32 18 45 2-34 6-35-18-45z"/><path d="m2383 7792c-4-11 1-5-9-14-1-1-11-6-14-8 0 0-16 23 10 26 15 2 6-1 13-4z"/><path d="m2737 11123c0 0 28-10-7-28 0 0-27-2 7 28z"/><path d="m6457 9665l29-9c-8-13 16 4-17-15-1-1-3-1-4-2-1 0-3-1-4-2l-4 28z"/><path d="m2063 7598c12 0 8-2 4 10 21 6 19 15 34 9-8-13-22-21-39-25v5z"/><path d="m5890 10876l35-16c-25-10-27-4-35 16z"/><path d="m7314 6169c12-14 9 18 6-8-1-15 1-5-6-14-12 18-5 17 0 22z"/></g><g stroke-width="100"><g fill="none"><path d="m3070 14137c-259 294-394 278-626 295 543 483 1313 539 1607 118 34-77 53-150 61-219 12-111-6-209-47-290-166-331-697-389-994 96z"/><path d="m4051 14550c-367 331-1025 267-1601-117 305 1 493-104 605-306 168-367 454-485 773-310 259 206 287 415 222 733z"/><path stroke-linejoin="round" stroke-linecap="round" d="m3046 14953l103-152"/><path d="m2876 14913l142-149"/></g><path d="m5106 13399c339-3 231-370-61-243 243-228 121-473-89-265-117-316-652-177-255 178-431-90-377 389 111 363 23 331 295 321 294-33z" fill="#fff"/><path d="m4813 13432c-136 400-923 1104-942 1074" fill="none"/><path d="m4912 13193c26 6 43 34 36 63-7 29-34 47-60 41-26-6-43-34-36-63 7-29 34-47 60-41z" fill="#fff"/><g fill="#201e1e"><path d="m4946 13517c11 2 18 9 17 15-1 6-11 9-22 6-11-2-18-9-17-15 1-6 11-9 22-6z"/><path d="m5149 13239c5 1 7 11 5 23-3 12-9 20-15 19-5-1-7-11-5-23 3-12 9-20 15-19z"/><path d="m4743 12833c11 2 18 9 17 15-1 6-11 9-22 6-11-2-18-9-17-15 1-6 11-9 22-6z"/><path d="m4999 12976c11 2 18 9 17 15-1 6-11 9-22 6-11-2-18-9-17-15 1-6 11-9 22-6z"/></g><g fill="none"><path d="m4750 12854c82 107 123 241 150 390"/><path d="m4997 12986l-97 258 244 16-244-16c-36 105-22 199 44 283-70-78-85-175-40-292-121 41-232 43-333 1"/></g><g fill="#fff"><path d="m4570 14470c48-117 99-202 174-287l-319-14 145 301z"/><path d="m4113 14371c9-126 0-224-29-332l294 122-265 210z"/></g><path d="m4988 14284c-23-5-47 10-52 34-6 24 9 48 32 53 23 5 47-10 52-34 6-24-9-48-32-53z" fill="#201e1e"/><g fill="none"><path d="m5607 14710c103 374 231 417 433 530-704 206-1423-68-1501-572 4-84 19-158 42-223 38-105 99-185 172-242 297-228 802-56 853 506z"/><path d="m4544 14694c101 540 805 673 1495 570-275-128-398-302-409-532 12-402-193-629-559-605-325 77-451 283-527 567z"/><path stroke-linejoin="round" stroke-linecap="round" d="m5384 15307l15 178"/><path d="m5544 15514l-46-190"/><path d="m5981 15207c113 71 202 54 265 17 70-53 18-118-50-87-67 42-61 94-2 144 97 58 170 15 204-26"/><path d="m5047 14106c-30-78 58-165 190-187"/><path d="m5054 14101c-17-65 63-126 170-133"/><path d="m5054 14101c6-53 84-78 166-53"/></g><g fill="#201e1e"><path d="m3817 14014c23 5 38 29 32 53-6 24-29 39-52 34-23-5-38-29-32-53 6-24 29-39 52-34z"/><path d="m4563 13202c8 2 11 17 7 34-4 17-13 29-21 27-8-2-11-17-7-34 4-17 13-29 21-27z"/></g></g><g fill="#201e1e" font-family="&apos;Allegro&apos;" stroke-linejoin="round" stroke-linecap="round" stroke-width="50" font-size="2040.39"><text x="10500" y="14850" transform="matrix(.71329 0 0 .66965-4884.67 6200.1)">T1</text><text x="10500" y="14850" transform="matrix(.71329 0 0 .66965-3844.18 7189.93)">T2</text></g></g><g fill="#201e1e" font-family="&apos;Arial Black&apos;" font-weight="900" font-size="529.13"><text x="10500" y="14850" transform="matrix(.71329 0 0 .66965-3960.34 1988.36)">NN 1</text><text x="10500" y="14850" transform="matrix(.71329 0 0 .66965-3960.34 2307.29)">NN 2</text></g></g></g></svg>