<svg xmlns="http://www.w3.org/2000/svg" width="744.09" height="1052.36" viewBox="0 0 21000 29700" shape-rendering="geometricPrecision" image-rendering="optimizeQuality" fill-rule="evenodd" clip-rule="evenodd" xmlns:xlink="http://www.w3.org/1999/xlink"><defs><clipPath id="1"><path d="m14404 27714c-793-434-1059-1310-1148-2220-84-856-93-1731-84-2591 10-958 46-1916 72-2874 28-1040 48-2085 8-3125-36-932-119-1896-332-2801-401-1697-1052-3306-1371-5028-98-527-174-1060-230-1594-63-594-101-1193-106-1791-14-1470 166-3618 1287-4624 709-636 1616-653 2473-442 1272 313 2479 957 3445 1918 682 678 1225 1495 1588 2421 400 1020 561 2112 524 3218-19 567-46 1133-79 1699-94 1604-235 3205-365 4806-146 1802-274 3602-348 5409-20 490-22 983-26 1474-5 583-11 1166-31 1748-24 713-65 1442-169 2146-72 489-197 1121-447 1540-238 398-638 662-1037 829-480 202-1019 294-1532 309-679 21-1481-93-2094-428z"/></clipPath><clipPath id="2"><path d="m6567 27714c793-434 1059-1310 1148-2220 84-856 93-1731 84-2591-10-958-46-1916-72-2874-28-1040-48-2085-8-3125 36-932 119-1896 332-2801 401-1697 1052-3306 1371-5028 98-527 174-1060 230-1594 63-594 101-1193 106-1791 14-1470-166-3618-1287-4624-709-636-1616-653-2473-442-1272 313-2479 957-3445 1918-682 678-1225 1495-1588 2421-400 1020-561 2112-524 3218 19 567 46 1133 79 1699 94 1604 235 3205 365 4806 146 1802 274 3602 348 5409 20 490 22 983 26 1474 5 583 11 1166 31 1748 24 713 65 1442 169 2146 72 489 197 1121 447 1540 238 398 638 662 1037 829 480 202 1019 294 1532 309 679 21 1481-93 2094-428z"/></clipPath></defs><text x="10081" y="23989" fill="#201e1e" font-family="&apos;Arial Black&apos;" stroke="#201e1e" font-weight="900" stroke-width="7.62" font-size="705.56">44</text><g fill="none" stroke="#373435" stroke-width="80"><circle cx="10533" cy="849" r="460"/><path d="m10533 39v1621"/><path d="m9723 849h1621"/><circle cx="10533" cy="25360" r="460"/><path d="m10533 24550v1621"/><path d="m9723 25360h1621"/></g><rect x="9843" y="22866" width="1347" height="637" rx="318" fill="#fff" stroke="#fff" stroke-width="20" id="0"/><use xlink:href="#0"/><path d="m14404 27714c-793-434-1059-1310-1148-2220-84-856-93-1731-84-2591 10-958 46-1916 72-2874 28-1040 48-2085 8-3125-36-932-119-1896-332-2801-401-1697-1052-3306-1371-5028-98-527-174-1060-230-1594-63-594-101-1193-106-1791-14-1470 166-3618 1287-4624 709-636 1616-653 2473-442 1272 313 2479 957 3445 1918 682 678 1225 1495 1588 2421 400 1020 561 2112 524 3218-19 567-46 1133-79 1699-94 1604-235 3205-365 4806-146 1802-274 3602-348 5409-20 490-22 983-26 1474-5 583-11 1166-31 1748-24 713-65 1442-169 2146-72 489-197 1121-447 1540-238 398-638 662-1037 829-480 202-1019 294-1532 309-679 21-1481-93-2094-428z" fill="#fff"/><g clip-path="url(#1)"><g fill="#201e1e"><g stroke="#201e1e" stroke-linejoin="round" stroke-linecap="round" stroke-width="50"><path d="m14605 20208c7 80 15 64-42 65 14-40 16-38 42-65zm32 55c0-115-7-111 56-168 35-32 77-66 117-86-14 275-9 267-172 254zm414-9l-253 2c24-110 43-140 46-274l213-143c6 128-25 266-63 354 48-98 87-139 98-307 5-69-6-71 32-112 132-141 113-107 209-332l177-18c77 115 345 768 386 941-99-2-262-45-373-62-138-21-269-30-408-44 16-62 53-126 75-211 23-86 34-170 28-268-28 215-101 322-167 472zm355-1033l63 114c-43-19-57-47-63-114zm-446-774c30 50 66 101 101 159 24 40 91 137 100 185-35-17-102-92-188-140l-13-204zm-168-133c47 19 104 60 134 99l14 195c-48-20-92-66-121-100-52-59-29-82-27-194zm-1217 2327c10 115-15 332-6 371 11 47-16 11 20 39 169-91 468-279 672-287l22 249 5-253 170-32c-69 72-131 184-139 320 34-57 112-318 289-332 392-32 998 96 1401 213l52 26c42 91 117 539 139 675 296 1880 92 3666-55 5541l1837-986c95-477-405-2442-527-2917-196-764-525-1904-765-2634 2-2 5-8 6-6 8 21 61-115 65-125 138-376 279-718 415-1113 213-622 458-1394 545-2087 14-111 8-90 84-129 368-191 888-535 1118-930 20-35 62-94 76-128l37 196c-56 66-110 122-133 245 68-108 19-62 130-200 29 47 26 182 22 235-46 45-108 121-127 196 56-88 46-73 118-139 2 109-44 200-75 296 118-189 125-471 91-713-5-39-13-81-17-122-10-86 1-75 16-138 19 18 11 6 24 35l109 321c80 286-5 568-157 766l-153 198c-10 12-17 20-28 30-3 2-10 9-13 11-17 13-3 3-20 15l15 14c5 4 126-121 138-135 294-343 364-658 173-1118-30-73-84-128-49-211 23-55 59-174 85-217 54 31 160 163 195 223 159 274 197 719 272 1065l27-197c16-151-41-371-65-515 80 32 203 109 278 159 52 34 78 66 121 108 75 73 75 88 105 119-72-195-289-374-478-457-75-33-57-55-88-150-46-138-186-461-249-492 155-193 503 40 698 59l200-12c41-8 21 4 38-26-41 6-62 26-98-5 22-22 45-40 56-86-54 20-71 67-104 104-61-2-147-13-194-49 24-28 51-55 84-86 30-27 71-49 98-73-116 12-186 116-216 134-31 19-84-16-109-27-48-22-96-31-122-63 55-27 61-53 111-99 28-26 79-62 125-65-107-15-177 79-253 142-46 38-118 7-187 10-73 3-113 23-179 39 26-174 74-358 103-542 57-361 100-772 176-1123 40-188 95-332 141-497 77 60 51 116 91 281l-12-173 79 67c31-24 22-7-3-46-31-29-204-207-82-236 8-2 41-2 52-3 162-6 158-81 234-20 86 69 160 116 285 105-106-29-204-72-274-148l218-135c56 41 117 95 193 104-12-37-40-37-71-61-28-22-61-46-81-67 57-52 141-61 168-93l-17-6c-14-2 0-4-27-2-164 15-428 292-660 234 23-84 102-186 148-248 28-38 58-74 88-111 41-50 265-256 321-287 48-26 75-34 120-73 79-69 61-32 100-112l-4-11v-46c-94 116-31 52-147 120-55 32-117 81-168 102 51-205 30-116 155-208 53-39 155-118 172-194-17 18-36 39-54 57-45 45-168 120-216 138l48-335c59-35 102-49 150-97 45-46 87-77 109-144-18 17-25 28-47 53-44 50-142 107-202 125 40-367 91-259 234-370l47-43c-2-3-5-13-5-9-1 3-5-4-7-6l-16 17c-46 44-91 51-156 73 32-103 96-150 121-222-50 37-159 218-195 316-109 296-104 642-211 849-91 177-269 238-465 548-61 97-129 230-177 350-88 221-203 571-240 828l-48-58c-67-105-2-120-60-257l11 187-114-96-7-133c0-1 0 2 0 3l-7 115c-50-25-50-35-88-69l-1-13c45 150 263 186 285 427-67 4-120-6-190 8-150 28-88 73-217-17-73-52-151-83-240-87l72 39c64 27 146 76 195 132-44 22-225 145-251 137-12-4-84-61-120-80-29-15-43-22-72-29-45-12 9 1-17-4l-18-3c-24-3-25-4-51-3 27 22-1 2 32 17 72 31 158 70 210 140-69 31-141 82-228 86-62-50-129-127-221-134 32 24 58 32 96 64 25 22 63 50 72 83-137 8-224-26-347-50 607 278 828-290 1207-200 45 11 45 19 69-16-27 312-197 923-307 1204-68 173-175 374-260 479-72 89-260 275-375 331 303-457 156-667 256-993 36-118 95-209 159-246l-15-10c0 1-52 38-68 54-289 291-24 616-370 1155-66 102-152 185-297 234 36-172 40-126 151-208 56-42 133-118 155-185-34 67-162 160-250 191 56-382-7-227 161-362l100-109c-22-27-18 12-93 65-30 21-81 48-117 61 26-274 64-234 154-285l80-75c-37 19-93 49-149 66 23-90 147-236 193-282-115 71-265 315-314 549-34 161-71 623-231 650 17-753-72-1343-249-1997-135-502-313-947-498-1409-11-27-7-20-13-42-12-49-56-78-55-138 253-11 79-52 253 84 67 52 145 108 242 110-93-66-216-119-294-230l271-105c38 31 53 60 100 93 78 55 121 66 201 95 43 16 34 39 114 143 2 3 9 12 12 16 18 27-1-9 18 31l-86 30-33-108 11 120c-209 51-386 24-585-64-62-27-114-71-165-93 8 17 2 8 15 26 5 8 11 15 16 20l109 89c201 143 406 143 626 94 40 89 57 162 103 247 190 356 391 289 681 269-150-71-297 59-501-92-96-71-209-264-250-429 119-104 356-61 485-5 157 68 229 186 329 329 2 2 4 5 6 8 2 2 5 6 6 8 1 2 4 5 6 8-24-128-144-281-219-333-125-87-219-95-374-127 196-130 375-169 573-19-152-247-438-140-631-42-89 45-146 15-205-74-7-11-18-33-22-38-16-22-7-14-32-24-91-38-197-101-259-202 86-26 158-58 252-53 51 71 121 169 224 187-61-63-136-95-172-188 149 6 219 60 328 92-122-112-410-153-600-103-185 48-399 176-600 141l-82-175c43-123 155-250 249-578 38-131 22-94 127-138 204-87 485-351 541-537-86 79-172 201-274 272-68 46-275 172-339 194l96-623c23-189 83-56 347-292 106-95 190-178 238-319-2 2-6 2-7 6l-113 124c-87 81-174 144-279 198-48 25-109 65-156 84 15-173 67-347 118-506 25-77 21-106 89-122 143-33 395-172 453-333-130 80-100 147-452 249 32-106 191-338 242-403 50-64 93-111 146-168 53-57 105-102 156-155-142 62-396 384-478 506-117 173-242 443-317 718-163 599-146 1245-477 1615-44-48-78-150-103-208l-301-640c-337-732-667-1460-899-2266-42-146-105-372-125-528 58-33 41-57 104-12 123 87 242 119 384 128 46 105 181 278 309 299-70-26-236-234-258-300l293-34c40 120 153 220 251 256-33-36-78-72-113-119-28-38-82-96-91-146 58-4 109-8 167-3 78 6 75-2 109 70 30 64 120 176 179 192-53-26-127-147-153-229 99 17 258 125 303 178l13-8c1-6-103-84-129-103-49-36-86-57-142-81-288-124-476-29-760-50-152-11-212-69-299-155 65-107 269-234 433-585 81-173 129-26 479-222 56-31 126-76 167-116 32-31 53-50 75-75 18-19 17-20 30-40 12-18 17-28 33-48-9-16-39 31-69 55-193 150-398 208-630 263 17-84 85-234 117-328 37-111 71-228 105-344 215-35 429-104 592-278l61-85c-32 20-75 59-128 93-152 98-318 123-483 173 16-132 195-485 254-557 62-37 385 32 584-250-117 112-342 177-527 162 29-22 90-116 132-158 275-277 245-213 509-401-183 31-523 336-626 464-523 650-449 985-749 1552-85 161-121 231-227 338-69 70-226 195-334 212-156-500 109-687 137-1150 9-143-3-354-46-445 16 125 33 193 29 349-55-43-79-134-120-204 15 142 72 167 107 259 22 57-34 245-58 297-111-210-139-241-105-557 22-213 52-428 91-626 71 64 162 294 196 386 303 831-208 992-236 1357 3-58 115-208 145-247 326-422 262-1016-25-1435-83-122-97-169 7-276 125-128 240-182 403-167l-45-25c-18-7-42-12-63-14-133-12-220 75-321 138l74-324c69 7 253 103 299 146l11-5c2-5-114-89-139-105-45-30-118-59-152-91 15-125 132-478 175-607 66-199 136-392 201-591 122-2 138-121 108-240-19-73-13-36-41-89 62 18-3 30 102 13 63-10 69-30 133-39 122-16 105 70 222 96-35-34-86-74-119-99 25-31 113-75 145-56 50 31 65 74 144 82-51-23-87-60-123-95 10-11 4-8 21-17 24-14 65-27 92-20 27 7 2-3 20 10l11 11c26 27 23 32 59 50l-67-92c-165-4-254 84-406 89 13-82-10-113-31-159 14-48 48-109 71-173 40-111 4-93 96-138 55-27 91-51 135-93 49-47 83-75 111-142-3 2-6 1-7 6-9 36-263 183-284 193l55-362c117-75 229-123 298-279-63 92-172 173-289 217 55-501 201-235 341-494-76 66-124 98-231 126 32-91 210-343 279-370-155 52-352 415-409 617-82 294-86 670-247 844-100 0-99-8-178 40 25-47 90-46 126-118 61-122 55-368-122-253-74 48-56 82-108 154-61-389-361-258-201 104-291-123-356 279-12 274-35 58-69 75-88 163-61 277 183 256 246 19l11-89c6-40-7-3 7-28 25 70-32 262 108 318-20 88-73 205-105 290-89 236-259 679-299 908-265-47-413-122-675 70-173 127-259 349-388 535 167-116 232-346 390-482 208-179 393-137 651-75-8 65-28 101-34 168-278-26-468 4-659 178-80 73-411 403-563 292-7-7 186-183 289-385 245-478 174-1110 442-1415 32-36 132-131 199-144-199-6-354 232-417 404-80 220-101 495-161 744-67 275-163 439-285 588-92 111-198 225-312 311-36 27-98 57-133 86 119-11 147-73 273-66 149 9 270-35 396-108 65-37 220 104 387 34-154-5-186-41-312-75 22-43 69-71 101-102 39-39 64-77 109-103 101 39 197 96 312 43-97-5-200-23-272-77l38-45c241-211 200 33 405-23-77-22-135-37-196-92 78-69 241-43 345-50-8 71-31 138-47 210-28 122-32 93-88 156l-57-94 38 112c-52 84-205 190-315 222-69 20-147 33-223 38-40 2-205-19-233 0 217 65 398 109 621-43 60-41 108-92 159-123 22 257-97 428-168 614-113 296-158 700 0 1009 93 182 62 95 87 322 25 232 101 614 109 703-19-23-62-79-80-111 8-177 3-299-61-427 23 159 22 213 27 387-39-10-180-153-222-191 12-164 2-267-54-389 21 142 23 194 22 352-45-25-151-148-169-194-10-26 23-195-21-322 0 48 5 90 3 140-1 15-3 47-5 60-1 5-6 27-7 31-8 23-4 16-14 30-34-125-91-188-121-379 7 275 181 565 338 717 192 186 384 301 393 664-387 107-634-54-928-293-507-414-732-709-1436-724-2-59 150-363 177-448 184-21 421 47 570 123 532 270 753 1015 1081 1184l-157-226c-248-415-473-840-878-1044-170-86-365-139-569-141 11-76 135-408 168-521l147-552c1 3 6 15 7 19 12 38 15 103 36 127 61 37 135 32 209 31 50 50 123 168 224 161-55-9-150-116-179-160l187-60c33 66 107 130 173 145-14-11-24-17-38-28-5-4-13-11-18-16-1-1-19-20-23-24-26-29-48-51-67-84l169-25c32 76 66 102 121 146l12-5c2-5-51-40-58-50-21-26-28-44-39-78 89 12 143 46 216 90-343-296-718 79-895-139 21-38 54-64 80-103 23-33 49-77 72-118 23-40 43-82 63-129 11-26 18-46 27-70 16-45 8-48 41-65 29-16 94-30 130-47 40-19 77-41 113-67 75-53 131-122 187-196-16-24-33 21-47 34-107 105-244 157-373 207l106-459c85-40 138-47 221-102 79-52 125-118 172-174l-9-15c-3 0-6 5-6 9-2 10-5 8-10 13-8 9-6 7-17 17-12 11-28 25-43 37-25 20-57 42-88 59-42 22-158 72-203 81 30-146 74-269 134-386 196-36 229-67 346-179-14-20-43 33-131 71-51 22-114 35-172 43 16-48 49-95 78-134 93-123 198-211 313-300-266 125-492 458-600 783-88 265-130 588-259 828-60 112-76 111-156 186 0-61 19-172 25-243 40-448-14-911-106-1338-33-152-84-313-112-456 88-118 38-71 172-73 56-1 72-25 116 2 43 27 33 40 95 54-35-34-60-35-84-88 37-14 86-53 124-36 44 20 46 55 117 49-37-2-83-43-105-61l46-38c61-27 70 34 135 52-28-27-31-27-51-62 74-9 97 23 157 29-45 9-142-83-305-15-110 45-176 105-305 53 6-34 56-113 77-167 21-55 29-163 69-199l139-99c65-59 67-86 108-147l-5-15c-4-2-3 5-11 17l-43 51c-18 19-36 41-58 58-34 27-96 69-134 84 43-428-17-238 159-402 58-54 62-84 103-129l-98 83c-28 23-89 62-126 76 31-369 91-224 251-410l-42 24c-35 29-94 62-135 63l21-47c42-90 90-172 156-235l-8-12c-24 10-105 136-126 169l-27 44c-214 380-97 938-375 1140-78-79-64-195-53-339 15-197-21-221-64-351 18 44 35 77 40 137-37-18-33-21-60-50 18 47 36 58 69 85l1 126c-35-21-65-54-81-91 18 63 45 85 73 127l-14 140c-88-72-112-180-164-324-21-58-133-321-132-363 33 154 220 577 233 714l9-57c80 129 35 32 67 189 15 72 73 141 55 194-38-85-54-200-93-288l-29-44c20 122 87 304 122 439 34 131 84 315 101 454-101-61-80-185-142-296-36-65-64-66-66-145-2-76-11-144-34-195l16 211c-48-21-88-77-130-107 4-125-27-177-29-225l11 198c-138-64-77-135-107-280l-7 124c-25-18-38-42-51-85-8-27-18-60-24-89 34 410 439 445 414 768-537 124-645-562-1348-589-44-2-91 0-135 7-34 5-79 31-96 24 137 0 327-56 465 41-52 35-199 134-270 114 219 30 221-68 319-90 45-10 229 140 255 170-20 22-45 28-71 40-100 45-186 60-295 62 314 70 359-67 420-55 26 5 101 96 126 119 58 52 74 77 138 114-24 28-49 33-83 47-113 48-202 63-321 70 88 29 135 34 233 15 82-16 147-62 202-76 40-10 215 103 291 121 93 21 73 3 113 28-37 174-184 233-309 319-88 61-235 234-253 372 7-47 49-138 81-173 18-20 3-9 33-26l-10 137c79-207-47-119 153-278-6 90-13 137-41 208 44-60 49-142 73-224l145-84-15 186c10-45 27-86 35-142 14-98-1-59 54-113 183-179 12-183 265-196 89 458 118 989 40 1463-12 73-25 151-40 219l-56 207c-21-30-81-101-87-126-19-78 8-125-40-203l18 181c-45-17-79-62-124-81-1-60-1-116-25-170-1-2-3-6-4-9l8 145c-109-54-90-103-103-237-13 43 0 67-19 109-26-37-40-79-60-127 74 346 381 340 412 616-73 8-127 3-200 23-55 15-131 67-179 39-126-72-181-130-353-109 247 70 183 85 333 145-27 38-79 61-118 89-164 118-88 93-253 20-66-29-103-38-175-41 45 44 179 71 247 145-30 32-183 128-234 112-53-16-102-119-235-122l22 15c57 35 119 71 166 125-149 30-228-1-361-17 198 109 502 42 685-73 210-131 344-273 622-236-26 154-155 454-207 593-458 35-863 216-1236 513l-72 67c-48 39-103 89-145 138 112-82 171-134 298-207 107-61 224-119 342-171 230-102 495-206 759-229-3 45-119 287-143 343-37 86-30 101-119 113-75 10-112 31-172 46l219-27c-11 52-77 176-100 224-31 60-86 164-108 228-46-23-61-55-100-87-105-86-212-161-343-205-94-32-195-46-297-33-106 13-231 71-261 102 223-46 338-50 543 43 154 70 307 194 386 309-46 137-149 319-214 447-81 159-157 348-228 515l-75 180c-57 115-246 651-248 793l59 183c2 3 4 4 5 10 1 6 9 16 11 19l11 19c1 3 3 7 5 10 28-166 167-365 239-507 35-69 73-75 53-179 18 50-4 27 28 49 32-81 205-288 276-345 289-232 534-302 884-179 192 67 275 90 493 66-292 37-952-617-1609 277-15 20-24 33-39 55l-52 77c-46 61 30-43-10 13-79 111-132 263-194 378 21-132 97-352 140-482 27-78 52-163 78-225 32-77 61-143 92-222 58-147 123-294 183-431 56-129 156-302 192-422 63 29 165 176 225 231 26 24 50 50 77 72 238 203 408 364 708 459 187 59 305 48 497 60-310 487-974 135-1488 517-110 82-282 241-339 356 81-117 310-335 468-385-33 142-109 263-191 354 201-134 222-356 270-391 14-10 79-25 101-30 79-18 154-25 235-25-32 122-188 358-286 418 150-49 287-251 346-416l406-2c-56 140-183 340-289 431-36 31-387 297-394 299-226 68-565-103-865 44l-152 110c-22 23-29 14-19 60l14 3c60-6 171-149 404-145 165 3 334 37 509 39-11 26-196 233-314 503-52 119-54 74-27 217-12-37-8-37-28-67-89 171-99 581-80 814 25 309 83 490 77 811 26-208 48-327 26-560-32-341-66-618 10-958 58-260 365-738 491-771 169-45 241-44 393-137 283-173 342-350 412-408 28-24 162-69 187-64l-162 23c17-64 48-91 62-163-60 76-89 171-189 207-94 34-193 91-277 115 41-63 97-98 137-158 30-45 83-124 109-188 21-49 22-66 63-80 32-11 75-16 112-26 188-56 373-194 503-347 65-76 81-57 180-101 78-34 125-70 187-106-24-20-97 29-138 41-161 45-331 44-495 33-198-13-417-51-589-125-267-114-428-294-625-499-48-50-157-146-189-204 74-181 169-353 243-537 148-2 342 31 466 86-25 26-164 111-206 132-92 47-175 45-261 78 157 20 298-12 438-92 31-18 96-72 114-75 84-13 390 255 447 300-34 35-97 50-143 71-183 85-317 107-509 99 149 82 375 49 540-9 169-59 135-146 276-2l354 324c19 22 1-5 18 26-295 68-251 182-691 170l15 12c146 89 422 19 567-34 64-23 109-60 165-82 55-22 215 103 321 150 118 52 244 84 379 93-42 297-322 429-530 563-148 95-246 202-329 355-52 97-99 185-124 309 33-74 68-176 111-247 11-18-1 1 14-21 27-41 45-84 82-105 0 119-9 155-25 257l30-57c30-85 30-169 31-260 62-43 126-128 216-163-17 144-37 240-71 348l46-76c13-30 23-57 32-89 24-81 24-128 35-214 88-38 176-113 262-147-8 65-17 136-29 202l-36 136c-1 1-7 15-7 16-6 13-9 16-12 20 2 3 4 6 5 11 3 24 15-13 17-18 154-324 47-356 152-445 130-110 170-195 256-365l105-2c52 128 114 355 164 501 111 325 238 654 373 968 63 146 152 313 197 466-129 12-214-46-312-108l-255-185c-172-124-457-205-668-108 115-15 244-33 358 4l-39 43c-11 10-33 25-46 33-73 46-54 16-99 51 50 1 91-12 134-33 169-82 72-131 334 54-74 92-203 75-269 130 166 7 191-41 313-91l236 191c-106 95-218 80-325 128 193 29 211-36 359-91 14-5 176 64 283 85 178 35-69 228-128 273-120 91-127 119-209 241l5 17c5 2 13-28 18-36 16-27 2-10 24-28l12 93c12-140 1-161 108-211-6 95-11 108-29 183 24-85 38-63 52-206 41-34 81-64 124-79-5 88-9 123-31 196 33-49 42-106 52-183 8-65 39-92 77-127 20-18-8 1 24-19 69 202 180 418 266 615 204 464 389 951 559 1440 26 74 44 97 13 162-88 188-251 355-398 451-366 239-1213 272-1637 1294-82-154-15-455 38-609 60-175 138-327 208-490 137-318 239-836 111-1231 13 150 65 525 5 659-52-112-116-220-135-382-7 98 5 169 29 255 80 285 156 117 3 510-7 18-11 33-20 51l-35 46c-17-74-47-140-71-212-27-80-39-162-50-253-63 137 81 481 97 537l-206 421c-43-179-107-276-129-475l-10-68c-1-3-3-8-3-11-1-3-2-7-4-11-13 188 17 361 71 515 39 111 66 80 30 197-77 252-91 512-55 783 24 174-55 330-42 513 57-181 54-265 147-461 193-409 401-786 768-1013 410-254 929-297 1227-769 38-60 64-141 105-210 7 11 2-2 13 25l27 85c55 184 31 219 1 419-28 190-61 365-102 547-154 688-457 1214-1034 1407-276 92-488 65-784 206-17 8-25 12-44 23-2 1-21 14-21 14l-26 26c256-57 154-46 438-75 548-55 1010-289 1294-852 69-137 116-247 171-407 121-350 135-605 180-1004l14 28c53 134 115 509 136 644 124 793 85 1518-87 2282-186 826-473 1568-787 2316l-38 73c-5-8-300-712-445-971l-255-449c-27-46-63-96-92-145-56-95-119-197-178-285-66-96-124-177-191-268-38-52-180-233-196-278 58 2 96 67 152 98 60 34 110 57 182 53-44-24-91-37-139-69-24-16-39-32-63-51l-63-58c58-20 221-133 263-107 37 23 62 60 118 87 47 23 94 38 150 36-94-30-185-93-245-160 220-143 231-48 321 19 38 29 76 46 120 48-69-32-131-99-173-147 105-18 203 21 291 43-125-90-355-92-516-37-124 42-346 186-459 182-46-92-174-204-208-283 268-636 970-701 1387-1139 96-101 152-186 230-284 83-105 319-544 327-732-15 123-326 748-450 805 35-288 10-342 110-595-132 156-163 401-173 680-134 91-275 242-436 301 32-292 113-617 238-780-197 163-289 523-313 818l-526 274c22-141 54-334 90-466 43-160 101-254 157-370-128 90-281 477-312 758-14 129 4 130-79 188-96 68-181 150-263 243-48 54-73 104-114 153-34-30-74-80-108-119-34-40-84-79-90-147-12-131 19-356 22-496 8-294-97-636-215-776 38 78 154 294 150 418-51-52-129-100-169-182 14 77 102 176 146 211 52 41 45 42 48 134 3 70 0 133-4 202-56-6-189-203-209-273 16 126 133 292 199 327l-30 363c-110-96-142-170-221-292 8 48 20 73 39 126-84-98-139-119-162-283-22-158-1-320 20-471 21-150 51-304 30-461-18-135-87-278-154-316 105 238 139 307 89 605-44 264-61 406-40 686-91-62-581-612-776-777l-36-37c-13-17-6-7-18-27 75-9 113-45 141-99 55-103 27-151 48-206 24 11-18 90 23 201 114 304 351 49 176-192 114 27 290 4 237-167-37-119-198-139-287-66 4-31 38-31 62-49 29-21 43-38 60-68 154-270-127-415-224-94-23-60-18-108-53-169-21-38-69-90-130-71-46 14-72 74-72 151 0 95 30 123 49 185l-55-10-23-6 16 102 100 19-5 59-85-17c-11 20 8 102 20 121l14-1c29-11 20-15 20 26-67 27-21 22-14 188-32-50-21-67-33-130l-25 9c-26 65-45 108-31 222l-498-470c-3 68-6 99 10 148 43 91 123 522 128 653 42 75-19 11 68 102l152 173c30 30 59 51 87 85 110 134 210 227 318 345l606 711c-171-86-343-208-526-290-42-19-95-42-134-64-143-79-293-123-437-190-5-282-8-287-73-527l-5 39 108 981c133 59 265 131 400 204 282 153 478 295 744 466l352 255c33 421 170 666 446 785 82 35 197 55 264 108-113-133-260-110-444-272-119-104-213-316-227-589 98 37 152 90 175 200 13-39-4 5 5-54 0-2 1-7 2-9 0-2 1-6 2-9l75 52-4 120c-33-22-28-41-55-83l-10-14c-1-1-3-5-5-7 28 173 210 344 318 434 130 109 276 215 291 485-254 56-364 73-591-61-171-101-293-204-446-321-349-267-629-372-1036-333-52 5-47-7-84 32 167-8 362-20 497 34-12 21-1 7-18 26l-58 46c-179 122-159 78-255 126l-16 9c121 11 209-28 310-90l118-82c66-11 334 191 384 223-25 37-85 54-120 74-103 57-157 84-272 103l-144 11c225 73 414-15 598-127 61 34 144 116 201 169 45 42 154 128 209 153-15 22 4 5-27 26l-105 53c-228 117-230 103-476 122 101 8 130 61 343 10 111-27 207-70 295-127 76-49 110 21 277 86 115 45 213 56 340 65-6 132-88 230-146 288-154 154-320 203-457 404-76 112-82 179-264 163 109-461 396-475 593-557 44-19 73-32 106-67-298 84-583 113-723 569-33 109-46 77-305 149 36-77 106-171 122-292-7 97-181 273-235 325-95 92-262 123-342 213zm-1740-9203l-3 11c24 20-3 18 36 8 16-50 14-25-5-59-29 21-16-2-28 41zm7105 2306l2 8c-6 44-12 16 11 56l-13-64zm98 13h2v-24l-2 24zm826-175l15 67-11-155 16-2c11-2-4 7 15-2-17-17-24-24-49-41 14 48 14 79 14 134zm-6282 1746c-43-13-32-11-56-51-19-32-48-55-22-86 36-42 69 89 77 136zm-314 53c8-83 52-167 85-204l31 29c-41 74-58 148-116 176zm310-317c5-55-13-52 53-46 3 0 40 8 40 9 23 12 14 9 29 31l-121 6zm-253-335c32 20 29 20 46 63 16 40 24 47 17 87l-27 15c-26-43-37-105-36-166zm201 174l-30-33c25-47 38-94 89-107-9 60-31 110-59 140zm-416-3751c154-95 329-248 500-317-17 25-21 28-52 54-127 109-227 181-372 250-13 6-31 15-39 16l-37-4zm2110-3077c-29-87-11-485-1-594 36 191 66 193 107 297l-106 297zm-107 169c-26-25 1 14-26-33-3-5-12-32-14-36l-48-215c-37-236-41-427 32-648 14-44 76-214 105-250-8 119-27 239-37 359-9 119-13 242-21 361-1 0-3-1-3-1 0 0-3-1-3-1-27-2 10-16-17 2 9 90 23 122 24 221 1 82 6 160 9 242zm453-3740c2-48 19-85 34-121 46-108 43-83 72-68 6 61-70 166-106 188zm251-111c-53-92-22-63-17-76 35-22 31-7 52 43 13 31 20 50 25 92-44-16-35-15-60-59zm60-256l120 24c-24 40-73 39-121 36l1-59zm-277 18c-45 3-114-12-138-69 180-5 141 24 138 69zm193-159c33-53 30-85 90-112-11 70-31 102-56 143l-33-31zm-154-147c20 41 43 89 56 148l-39 22c-11-29-20-55-26-85-18-79-2-70 9-85z"/><path d="m18338 19019c45-39 230-86 289-2-56 25-153 35-197 85 12 49 124 147 164 192-17 29-21 16-39 59-6 15-15 51-19 64-29-11-47-25-80-38-43-225-34-114-102-202l21-135-39-23zm-81-82c-20 48-20 48-67 12l67-12zm120-285c-16-26-64-173 13-201 47-17 51 2 75-49 14-30 19-71 45-86 53-31 78 82 99 143 26 74 48 108 88 154-29-11-27-23-58-42l-19 65c-13 23-11 20-30 18-26-2-60-49-75-39-1 1-4 3-6 4-60 35-89 50-133 33zm-146-114c17 39 30 59 45 98-30 35-24 34-36 81-37-30-101-155-81-251 68-4 40-3 71 72zm492-146c-24-24-34-41-61-66-25-22-35-31-55-59 70-160 134 52 116 125zm-688-317c27-29 75-16 112-6l6 104c-71 13-115-18-118-98zm373 11c-14 11 23 27-30 3l-79-59c32-65 154-30 109 56zm665 329c-60-101 36-265-244-566-59-63-16-29-40-96-16-43-51-38-87-25-20 71-13 104 52 103 54-1 50 14 92 61 44 51 112 139 144 224 110 287 20 396 11 473-3 24 14 87-71 121 2-63 4-41 40-83-10-57-90-254-115-297-86-149-256-352-389-421-42-22-239-104-275-101-3 62-7 113-20 164-86-18-228-104-291-102 12 116-18 137-20 226-2 98 59 115 82 182 29 84 3 142 52 223 38 62 75 90 112 146 142 214-100 195-52 342 16 50 25 36 27 106 7 202 72 128 158 236 26 33 15 35 49 68 37 35 98 94 112 146 36 129 33 24 133 119 107 102 162-75 196-134 150-264 28-147 53-411 15-163 55-209 92-313 22-61 5-54 56-78-24 125-73 174-102 307-23 106-32 273 25 355 45-21 48-86 72-173 129-463 325-1058 170-1498-25-71-97-225-99-261-2-34 7-66-13-94-42-56-124-2-84 81 33 70 51-29 118 126 100 232 142 370 113 645-17 157-8 161-57 201z"/><path d="m13981 10733c-97 34-220 157-261 224-237 390-183 847-230 1325-49 503-209 756-432 1095l-165 221c-23 26-23-37-22 63 53-21 20-16 35-27 1-1 3-3 5-4l95-36c452-73 509-255 572-270 35-8 204 52 348 16 64-16 89-44 130-60-212 51-230 12-430-5 34-88 171-221 223-312 80 9 124 36 220 31 93-5 122-27 192-57-111 10-258 30-360-26 20-52 162-199 209-223 24-13 158 60 323 31l-72-16c-61-6-119-36-177-49 24-35 66-52 102-69 116-52 214-74 355-81-21 94-64 167-76 269l106-243c36-84 88-156 122-223 31 2 63 9 92 15l66 28-67 79c37-22 76-73 118-73-9 68-36 131-82 158-111 65-160 144-259 222-43 34-79 77-97 139l17-19c11-12 30-54 43-37-142 165-173 344-436 520-239 160-445 168-699 170 19-1 163 70 336 53 350-34 532-239 740-519 341-457 55-278 516-331 117-13 211-50 292-117 60-50 163-166 184-259-52 35-92 102-138 148-183 184-343 180-583 181 16-31 52-60 80-79 31-21 53-34 85-50 74-36 129-41 215-54l-76-19c23-37 40-42 63-89l35-75c14-22-1-4 17-24l188-14-67 158c43-6 8 15 41-28 29-39 36-111 72-141 29-24 128-51 178-91 60-47 90-95 136-141 36-36 113-61 159-106-276 127-621 67-830-109-184-154-409-448-663-348l-41 29c149 19 226-12 349 89 91 75 158 154 243 228 296 262 352 209 650 244-49 51-68 102-161 137-75 28-154 34-236 45-85 12-152 25-228 67-72 40-115-12-199-33 23-51 79-85 124-112 180-105 347 20 536-13-247-20-372-183-642 49-107 92-99 28-305 11-854-70-945 748-1136 1053 99-92 164-243 226-383 252-563 582-656 1109-576-25 75-83 135-107 211-436-36-713 226-956 550-125 167-320 399-540 351 40-34 128-178 168-243 406-667 210-1405 344-1896 56-204 137-364 265-485l47-50zm579 2145c-10 23 8-19 0 0zm299-417l27-22-13-7-25 24 10 5zm-438-970c26 10-2-23-16-7-20 24 15 7 16 7zm957 929c-40 24-22 11-27 44 37-28 21-18 27-44zm-353-56l121 43c-7 22-2 35-30 51l-140 24 49-118zm15-26c28-44 124-55 173-56-12 40-38 94-61 120l-112-64z"/><path d="m18923 8978c-12 70-43 145-61 223-89 401 20 799 258 1064l249 274c-115-327-703-511-398-1538 69-230 105-297 191-492-45 52-101 158-136 237-61 138-72 215-133 237-191 70-293 171-389 317-237 360-230 709-289 1240-93 839-284 1081-676 1580-165 211-265 230-382 331 156-26 260-153 394-157 234-8 423-72 610-219 102-80 57-42 180-8 142 39 321 41 440-36-94 14-173 28-274 6-50-11-189-45-229-65l303-341c140 61 355 98 489 5-121 14-359 9-447-65 28-35 239-253 295-247 15 2 131 62 188 74 71 15 144 14 207-13-125-10-243-28-338-100 183-102 334-104 550-122-27 3-93-14-140-12-49 1-100 7-144 14-273 48-474 154-675 365-286 300-458 580-845 567l31-50c11-13 23-22 34-34 23-25 37-43 59-70 42-53 66-98 105-154 228-325 334-794 386-1240 62-536 13-893 316-1336 76-111 145-159 269-236z"/><path d="m19313 6903c21-82 80-149 142-184 5 13 0 30 27 58 10 11 31 21 43 33-3 73-18 54 11 121 33 77 17 8 9 116-20-3-34-7-49-12l-40-17 7-200c-80 14-78 67-149 84zm153-271c15-52 7-35 52-59-7 76-1 54-52 59zm-403-151c58-19 44 7 89 4 52-3 22-24 75-34 106 109 46 133 3 162-87 60-15 18-53 95-66 7-29-31-74-3-9-103-48-125-41-223zm-63 171c-6-5-25-5-43-57-12-34-10-48-5-81l44-2c15 39 5 82 3 140zm331-329c35 14 51 114 58 166l-62-10c-6-60-54-180 4-156zm-321-35c-17-58-3-105 51-102-1 14-7 51-9 63-17 65 11 31-42 39zm149-189c17-44 22-68 68-60 12 65 3 79-25 113-32-16-25-14-43-53zm-62-36c-45-24-42-48-83-63-148 287-155 567-63 880 26 89 42 55 75 80-3 2-7 0-9 4l-160-70c-98-77-145-285-134-440 7-95 27-41 37-97 9-55-43-45-65-33-18 91 14-19 16 171 1 82 8 167 32 232l90 170c-35 29-28 23-69-12-158-136-210-208-273-469-22-92 8-29 13-105 4-57-34-63-70-52-22 100 8 55 39 130 60 147 9 285 313 532 107 87 509 343 575 339 7-176-263-258-319-287 65-50 249 92 278 131 49 66 12 98 99 122 43 12 142 38 183 22 41-16 60-119 67-162 9-53-10-42-16-97-11-101 21-312 11-356-13-59-21-33-45-73-27-45-6-49-37-85-70-55-154 112-161-186-2-111-16-120-51-185-40-75-12-138-51-183l-123-102c-13 38-27 85-42 128-20 54-28 86-55 115z"/><path d="m15937 8495c241 13 244-87 428-49 274 57 412 33 653-76 60-27 98 35 164 68 103 52 302 133 413 67-220-3-311-102-478-182l271-204c150-110 59-16 290 61 99 33 159 38 265 25-49-26-150-27-224-64-38-19-65-35-99-56-41-25-71-34-97-73 58-30 277-197 341-148 112 86 201 166 364 151-34-2-125-41-164-65-31-19-41-28-72-52l-57-47c-13-15-7-7-18-23 133-35 426-27 548 29-124-76-377-95-533-74-175 24-335 100-468 183-252 160-561 476-915 324 38-40 98-78 144-114 726-575 747-1661 976-2085 69-128 126-212 223-317 116-125 160-135 318-209-275-26-550 276-686 580-130 291-206 712-319 1037-178 508-486 848-854 1101-298 204-248 122-415 210z"/><path d="m16616 18625c-50 0-94-115-98-133l39-20c27 38 51 96 58 152zm-335 59c1-58 41-154 73-201 12-17 3-7 16-16l32 19c-16 67-85 176-122 198zm331-387c38-5 104-5 129 32-34 25-82 29-129 23v-56zm-294 19c-62-6-111-28-150-66 14-23 63-13 91-9 74 10 62-1 59 75zm207-179c26-44 56-96 94-119-4 72-33 105-54 157l-40-38zm-178-152c30 27 60 93 71 155l-38 21c-20-37-50-132-32-177zm381 735c1-90-40-153-63-203 71 15 114 34 185-5 142-78 70-255-57-287-88-22-124 5-185 40 24-61 80-11 140-136 113-233-32-358-150-250-49 45-69 93-103 169-36-442-409-296-210 100-322-151-378 305-24 288-11 23-4 8-15 26-215 337 35 478 154 268 16-28 30-65 39-107 8-39 3-28 6-69l9-49c15 33-17 148 28 237 23 45 73 119 130 127 80 11 114-55 115-149z"/><path d="m16603 9756l1-51c-67-20-32 11-87 58-58 50-115 75-161 162-31 59-15 78-79 93-20-76-46-132-88-172l-136-119c-23 21-15-4-24 43 59 49 22-37 144 70 100 88 102 168 90 292-14 155-58 46-27 381-21-23-23-25-31-69-20-113 20-211 43-298-43-86-119-153-211-210-114-71-193-74-333-79 6 57-2 137 17 182 22 53 33 14 61 120 35 130 145 108 112 228-21 77-41 43-9 139 51 151-5 77 113 144 52 30 17 20 45 47 23 23 98 35 131 27 35-23 53-129 62-151 23-62-1-25 30-42 32 70 3 127 57 202 39 6 108-6 135-31 26-24 5-19 51-40 146-66 69-27 134-146 50-92 7-63 7-148 0-112 98-73 154-221 62-164 47 56 116-282-158 4-208 1-345 64-117 54-165 126-242 190 14 91 35 198 3 302-3 8-11 29-14 35l-27 37c21-98 42-99 36-251-2-48-12-84-10-123 8-155 16-244 182-356 59-40 49-1 101-26zm-193 638c75-1 132 30 187 59-2 2-5 2-6 7l-15 22c-54 111 4 20-73 90l-82 79c-23 24 16 13-31 24-27-43-5-22-18-68-9-32-13-27-26-63 66 22 78-2 128-30-13-84-5-18-65-121zm-354 93c36 84 115 57 120 58-53 49-30 40-53 124-45-11-17-5-45-37-2-2-4-5-5-7l-12-12c-12-12-3 2-23-23-26-32-2-15-38-43-41-33-27 9-46-77-1-3-2-7-2-9-13-73 156-79 178-66-24 44-49 39-74 92zm516-482c13 7 57 60 67 79 19 36 6 32 20 66 15 34 13 14 36 44-12 60-39 78-60 116-23-38 1-44-43-60-24-9-76-2-103-1 34-41 17-2 36-59-39 6-69-3-124 1 27-50 50-38 93-93 36-46 30-63 77-92zm-692 155c62-25 38-47 69-91l74-78c53 26 43 57 72 107 26 45 52 44 81 76-13 8-111 6-131 4 13 37 18 33 34 62-127-16-125-21-148 50-32-32-51-58-52-129zm898-138c-51 3-25-59-25-59 36-18 18-16 53-2 0 0 25-8 1 42-3 7-19 19-29 19zm-952-24c-35 0-32-21-34-63l71 1c-4 38-2 62-36 62z"/><path d="m16842 12257c19-94 43-166 57-283 48-418-21-650 1-1016 49-811 471-1283 1014-1613 134-81 259-145 399-218 132-69 417-158 438-172-255-5-721 203-931 312-433 225-682 552-884 1076-260 675-30 1276-93 1914z"/><path d="m16341 13379c-16-138-82-254-171-204-77 43-44 233 0 288-83-19-212-45-215 85-3 122 104 154 200 156-50 72-143 228-42 304 102 78 157-95 189-167 59 367 347 204 179-72 272 78 293-267 9-239l46-69c11-17 24-40 32-64 19-61 10-135-26-163-97-77-176 95-201 146zm43 426c-15-28-30-45-10-67 29-32 59 80 66 121-38-15-33-11-56-54zm-212 99c-3-48 7-62 25-102 39-91 28-65 55-74 14 26 22 3 5 56l-84 121zm265-284c10-22-19-40 50-32 55 6 55 34 56 36-50 10-78 26-106-3zm-239-19c-32-1-44-4-72-16-49-20-39-27-48-44 116-4 124 4 120 59zm170-136c15-36 46-81 73-100-2 53-26 94-47 121l-26-21zm-136-131c68 141 54 126 17 143-10-19-19-42-26-71-15-68 3-64 8-72z"/><path d="m18080 4890c76 25 253 1 201-149-27-78-124-112-199-88-47 15-47 47-46 21-23-3 21-15 37-25 28-18 42-31 59-60 24-42 58-123 32-200-42-126-210-12-224 118-23-125-51-231-162-217-106 80-47 190-17 291-83-20-207-38-211 93-3 118 103 148 194 150-26 55-60 80-72 152-38 228 183 233 226-47l12-51c-48 404 344 382 170 13zm-122-26c45-20 40-3 55 34 12 29 17 45 20 80-44-24-60-65-75-114zm-195 159c8-77 39-128 71-176l28 19c-23 63-50 122-99 157zm270-312c43-6 72-3 102 21-2 2-5 5-6 6l-13 10c-8 4-16 5-25 7-21 3-37 2-58 0l-1-43zm-357-38l32-13c106-9 84 38 85 50-22 16 25 14-29 11-29-2-72-27-89-48zm138-217c19 14 27 32 43 66 28 63 23 59-22 79-10-43-25-90-21-144zm161 140c-11-24-25 35-6-37 4-14 10-16 20-29 19-24 21-29 49-45-5 33-11 53-22 78-22 53-8 48-41 34z"/><path d="m13057 21049l6 51-5 438c57-35 4-30 72-43 44 123 97 170 96 368-2 305-99 542-38 884 11 62 26 122 45 179 18 53 40 124 70 164-30-100-77-209-91-346 75 31 113 108 158 185-32-121-86-194-165-244-8-83-12-246 19-311 37 41 176 216 184 314-2-159-121-313-181-372l52-332c35 16 26 11 64 64 46 63 61 77 97 152l28 17c0-1-5-15-6-18-37-113-107-211-178-282 2-350-35-294-45-429 130-5 197 80 268 141 77 65 135 146 272 147-29-10-46-5-76-35l58-36c-53-1-79 28-112 19-23-6-64-42-81-78l126-32c-69-8-104-13-154 26-24-44-62-64-99-117 27-22 36-8 61-46-119 18-53 39-160-19-30-17-47-20-83-27-56-10-44 9-66-48 7-54-16-6 25-49l119-98c35-29 136-97 156-122 0-26-6-22 12-19 3-67 5-142 7-211 1-34 2-71 2-105 1-105 1-79-17-90-138 80-214 66-383 69v91l160-1c-29 39-79 75-115 106-23 20-34 38-55 58-11 10-29 22-49 39z"/><path d="m15696 8139c8-11 7-7 16-24 127-237 165-859 213-1092 86-413 204-618 430-875 408-464 1188-622 1747-651-192-90-819 13-1027 83-577 196-1042 624-1216 1336-45 186-74 391-91 594-9 109-12 217-21 324-11 119-34 199-51 305z"/><path d="m18047 11920l10 14c115-141 85-90 191-256 61-95 100-202 162-303 296-483 652-596 1158-475 218 52 444 121 611 232-73-80-280-183-378-227-47-21-108-39-145-61 14-21 20-32 35-56 26-42 11-32 63-42 66-13 92-17 135-60l-149 39 61-165c72-17 111-12 160-67-48 22-82 32-141 33 18-64 37-83 63-132 83 1 82-3 147-32l-111 12c33-72 96-89 160-130-104 68-192 80-285 269-71 144-119 333-250 303-10-96-14-156-37-244-22-85-62-136-34-209 54-141 85-295 54-464-5 187-41 297-90 442-22-21 3 13-24-29l-141-270c-6-46 83-142 70-422l-7 19c-15 57-8 83-31 167-15 56-33 126-60 171-31-34-114-219-111-285 2-44 87-152 85-332-7 16 2-14-10 29l-70 200c-2 3-4 5-5 8l-19 24c-18-137-19-221-19-363-2 3-3 5-4 11 0 6-3 8-3 11-4 19-4 12-6 36-2 19-1 58-1 79-1 55-2 102 2 157 37 489 324 742 366 1083 26 215-15 161-95 153-81-8-165-5-246 6-295 39-521 209-658 397-63 86-149 233-203 356-46 106-137 314-198 375z"/><path d="m13631 19600c42 4 12-1 23 18 279 148 427 92 654 110-120 213-307 264-585 294-120 13-246 27-355 63-154 51-227 129-286 152l10 35c43-36 43-32 92-57-34 188-70 139-109 161v-5l56-10c-7 50-19 74-59 105l5 4 3 12c21-13 74-83 94-119 91-162-37-213 359-249-63 191-147 257-193 345 42-22 48-27 87-69 28-30 43-49 65-87 19-33 34-68 53-102 22-39 32-68 43-107 66 36 247-3 334-12-79 217-151 281-247 408 177-76 266-343 296-397 50-89 189 28 536-383 32-38 22-39 76-61 28-12 57-24 84-39 56-31 115-69 150-108-183 91-371 116-600 109-235-7-364-38-565-127l-19-5c0 53-15 62-2 118z"/><path d="m12705 13032c-29-49-30-140-48-170-26-42 17-4-19-18-4 142-41 375-67 510-46 238-63 258-138 425l27 152 16 35c46-66 107-230 137-340 58-215-2-149 130-227 58-34 32-29 33-53 67 41 348-268 400-452-61 108-119 157-199 240-39 40-76 61-122 94-26 19-46 28-70 44-33 22-45 20-16 68-54-52-27-25-93 4 8-106 35-201 30-314zm28-252l3-44c155-65 391-272 449-461l-32 33c-8 10-12 16-21 27-101 127-252 250-385 307 3-101 26-219 46-314 37-176 42-205 108-227 233-76 348-293 348-293l-7-10c-62 92-222 194-357 234 129-344 297-469 360-588l-67 56c-65 66-181 229-229 310-103 173-281 605-275 833 17 122-47 8 14 263 7 31 12 59 17 88 19-162-41-190-35-291 8 8 7-6 19 31 4 12 7 36 10 51l13 74 21-81z"/><path d="m20144 12296c36-139 19-298 4-446-26-254 88-542 229-693 161-171 211-141 210-237-105 50-266 215-306 300-85-5-159-87-344-39-465 123-544 780-1153 1002-224 82-450 115-679 56 109 41 107 81 301 99 459 43 794-241 1074-625l188-258c63-73 142-139 244-191 137-69 201-58 350-43-14 52-46 87-92 218-24 69-48 161-55 256-15 209 20 390 30 600z"/><path d="m16939 8562l36 38c134 117 397 173 560 169 237-5 415-97 590-220 215-150 327-291 453-382 175-127 407-169 605-56-149-150-371-162-568-65-314 156-545 570-1010 610-272 23-465-13-666-94z"/><path d="m15229 12755c89 439-50 684-240 990l-75 139c-123 219-224 538-232 839-6 212 31 485 116 671 18 39 20 41 37 61-61-249-85-511-65-810 19-297 129-571 256-778 127-207 274-484 281-753 3-98-15-248-62-335-1-2-4-6-5-8l-11-16z"/><path d="m17900 6857c8 18 10 34 13 52-26-17-46-37-50-85 28 7 18-10 37 33zm23-182l-16 17 3 59c103 35 77-15 88-34l-79-38c1-2 3-3 4-4zm105 9c-12-18-29-31-45-64-1-2-2-3-3-5l15-16c31-44 19-89 7-137-85-35-123 15-147 94-2-3-4-12-5-10-3 8-40-157-117-131-69 24-43 151-18 209-74-20-104-25-148 35-11 113 56 133 139 143-48 40-76 129-38 216 94 34 107-42 146-106 17 63 45 149 112 139 80-12 43-135 27-200 182 20 169-148 74-169zm-309 257c4-35 5-38 17-70 5-12 7-20 16-32 13-19 4-6 19-19 13 26 22-35 9 39-2 11-31 63-61 82zm-64-240c9-9-4-28 51-18 51 10 26 14 35 24-17 17 11 33-85-7zm214-68c-3-19-15 24 1-24 8-24 28-39 46-50-7 36-8 59-33 75-1 1-5 2-6 0-1-2-4-1-6-1zm-86-59c30 70 0 55-3 60-9-12-6-1-16-25l-6-19c-2-9-5-40-6-51 14 9 21 13 31 35z"/><path d="m19580 10508c48-68 49-158 92-220 78-112 121-151 158-321 29-132-9-36 138-178 42-41 45-65 70-92 0 0-13-33-17-12l-31 41c-13 15-26 29-40 41-26 22-69 54-97 70 17-380-15-181 128-353 42-51 34-54 60-92l-82 77c-2 2-4 4-6 5-2 2-4 4-6 5l-78 55c-16-244 73-238 119-274 28-22 43-45 62-64l-132 69c18-95 85-174 140-260-98 83-198 304-223 514-33 283-10 466-155 614-29-385 15-447-217-851-159-276-300-409-245-807-127 233 2 531 121 730 24 40 38 63 57 97 101 175 187 313 214 587 23 244 10 394-31 616z"/><path d="m16283 4015c79-16 102-63 177-70 290-26 292-143 367-130 102 18 110 37 226 17-25-16-81-15-108-20-35-7-74-20-110-32 13-15 146-167 148-167 29-14 146 57 234-1-86 1-127-12-201-34 17-36 101-119 138-127 17-4 118 42 200 34-58-11-103-34-155-53l14-13c60-44 110-33 156-54-424 7-473 482-819 481 14-37 3-15 24-43 71-96 125-154 182-292 202-491 16-1038 394-1273-344 75-328 691-370 954-49 302-233 583-407 750-19 18-23 20-44 36-22 17-30 22-45 39z"/><path d="m12731 7059c-187 30-255-108-682 215-181 137-347 362-642 231 180 198 452 19 594-98 174-143 322-276 593-280 146-2 294 31 408 76-21-28-42-43-84-66-63-35-44-25-81-79-32-47-100-120-157-154-149-91-98-2-162-148-32-74-78-142-134-177 51 68 95 135 126 250-201-32-180-7-216-88l-99-161c-25 31-9 9-6 21 1 6 10 10 11 12 33 40 69 134 78 180-54-10-145-22-170-75-12-26-19-67-35-100-19-38-35-58-54-87-16 19-4 9 12 37l45 141c-76-31-131-116-185-177 149 309 502 307 660 369 135 53 138 115 181 159z"/><path d="m13159 18062l-34 28v74l51-17c148 6 273-90 581-9 466 123 610 511 909 833 64 69 120 97 191 160 26-10-2-7-79-93-189-211-430-844-1015-986-290-70-370-12-603 10z"/><path d="m16879 8231c355-162 482-756 1069-784 248-12 499 95 687 206 155 92 431 260 523 391-195-220-264-302-495-453-365-239-837-326-1209-22-294 240-355 479-575 662z"/><path d="m11198 6270c5-51 114-101 179-121 100-31 168-3 265-1 0 45 5 61 12 103 16 95 39 200 76 292 49 118 103 224 172 293 260 264 421 141 649 123-180-94-358 147-633-156-92-101-250-436-282-652 52 20 12-6 41 43 1 2 3 6 4 8 1 2 3 6 4 8 117 210 315 157 494 191 152 29 315 156 405 297l30 44c11 13 5 7 20 21-18-64-30-87-68-147-77-123-201-218-334-255-112-32-213-22-328-39-45-6-99-29-134-53-48-33-84-63-101-116 188-8 286 12 445-100 101-71 220-195 257-325-38 45-54 71-100 119-479 499-747 36-1043 352-24 26-34 33-31 71z"/><path d="m13573 6523c88-183 53-546 86-783 69-497 332-783 686-960 127-64 342-154 485-188l53-15c17-9 18-10 27-17-236 2-663 131-855 301-78 69-145 130-196 209-364 561-238 846-285 1454z"/><path d="m12500 5438c-15 41-25 46-59 77-88 80-187 90-297 97-74 5-156 4-228 16-123 20-176 27-174 99 44-51 147-65 216-54-42 93-67 116-109 184-2 3-4 6-5 8l-10 18c86-48 113-129 168-213h225c-43 100-93 156-140 223-15 21-4 4-16 25 71-37 124-101 167-188 66-135 40-32 217-132 65-36 146-109 188-155 55-59 149-71 211-128-220 106-596 52-817-85-56-35-157-120-192-174-26 23-20 17-35 72 8-57 16-48 6-101-30 32-5-11-22 30-18 42-10 50 8 78 1 2 4 5 5 7 16 21 53 50 78 72 181 160 378 233 614 226z"/><path d="m15313 12826c78 96 221 466 278 655 76 250 143 535 114 837-64 658-461 766-616 1218 35-57 49-93 88-142 41-53 70-72 114-117 223-231 431-550 469-955 30-319-31-621-119-880-40-117-98-242-145-340-27-56-52-99-86-153l-70-108c-20-32-11-44-27-17z"/><path d="m17493 14337c2 16 24 25 37 35 42 29 96 45 144 48 389 21 470-493 1125-336 139 33 162 89 190 60-52-35-110-73-158-141-40-56-74-110-135-155-32-23-61-32-92-54-59-41-46-178-169-273 42 66 88 141 109 245l-184-42c-24-89-103-254-124-221 43 52 69 122 91 209-235-30-126-157-244-266 30 58 45 97 56 175l-123-99c34 29 46 55 76 86 230 237 541 135 646 396-293-57-421-6-649 147-217 145-315 288-598 185z"/><path d="m13547 4410c64-17 93-63 153-75 285-56 220-151 326-135 75 11 124 22 189-15-49-2-153 11-196-30 40-44 78-91 107-149 70 7 136 34 194-8-52 0-114 0-154-23 6-11 72-94 90-105 37-23 101 13 159 10l-24-12c-4-2-20-7-25-9l-50-31c43-21 170-76 213-70-419-5-477 492-756 481 128-210 201-282 230-639 30-372-34-428 142-704 2-3 8-13 10-16 10-18 2-2 15-28-255 131-195 628-236 880-45 283-245 565-386 678z"/><path d="m19620 17915c4-211-21-89-128-393-123-351-72-664-68-985 2-219-22-309-56-492 43 470-132 975 68 1522 42 115 114 292 184 347z"/><path d="m14011 11696c94-426 388-423 669-600 254-160 482-523 463-870-77 335-245 655-502 809-130 78-285 132-408 219-100 71-228 230-222 443z"/><path d="m15696 9140c-5 9 113 157 123 168 45 51 100 92 155 130 331 230 595 80 884 39 159-23 331 59 395 162 13-18-3-36-52-92-214-245-488-95-746-65-190 22-286-18-437-100-56-30-126-76-170-111-39-31-115-102-141-149-2 3-6 3-6 7 0 5-2 7-4 10z"/><path d="m16097 3863c68-166 3-457 24-659 39-378 261-641 514-783 65-37 126-71 196-106 67-34 167-64 217-94-144 7-327 94-450 156-268 134-472 430-519 792-32 248 18 452 17 694z"/><path d="m11469 7605l-13 9c4 21 298 268 352 304 132 88 299 157 483 134 192-25 307-102 426-212 60-56 111-116 157-180 25-35 41-63 68-97 31-39 55-62 81-95-120 55-210 195-321 314-98 105-227 198-402 211-175 13-323-50-463-126-109-59-308-177-368-262z"/><path d="m14448 11392l193-112c376-218 740-320 1064 80 51 63 54 90 142 187 57 63 86 94 165 143-172-122-244-522-678-643-191-53-342-20-503 66-223 119-298 222-383 278z"/><path d="m15754 8875c337 3 696-541 1268 282 37 53 247 366 243 434-37-257-324-677-550-830-144-97-311-142-503-94-113 28-343 149-458 208z"/><path d="m19699 17117c-5 159 209 518 306 656 8 11 22 32 29 40 26 30 11 18 42 36-10-68-38-72-94-166-30-50-72-112-92-174 79 20 158 75 195 49-11-59-86-84-131-101-90-34-93 7-130-97-35-98-92-299-99-412l-15-23c63-17 12-7 33 9 29 32 136 76 179 102 100 61 126 109 180 135-10-91-95-144-156-193-53-42-137-112-208-115l-29-12-11 265z"/><path d="m13980 11643c10-588 95-1221 554-1409 81-33 147-43 230-63 41-10 82-23 115-38 21-10 38-19 53-27 26-15 29-17 47-33l-115 27c-144 23-220 27-366 91-145 64-258 185-329 302-134 219-198 524-206 815-3 111 19 267 16 335z"/><path d="m17022 12877c330-70 604-722 1288-72 59 56 110 108 168 165 82 80 113 146 143 176-244-456-745-885-1227-561-67 45-138 99-191 151-54 53-105 108-182 140z"/><path d="m14425 15332c-78-79-240-234-356-272 341 287 753 686 629 1304-38 189-120 333-117 548 103-406 294-674 104-1164-66-171-169-324-260-416z"/><path d="m17612 14542c12 13 6 7 18 17 212 196 387 376 700 339 275-33 384-177 548-368 31-36 107-129 157-141-332 83-501 921-1432 113l-18-16c-2-2-5-4-7-5-18-14 1-1-24-16l58 79z"/><path d="m20136 16377l-1-119c-29-5-9-8-4-46-23-19-39-49-56-53l121-10 1-115c-133-41-300-42-325-52-30-12-89-53-128-72-52-26-84-47-142-47 35 7 127 65 150 86 201 186 181 179 339 393 30 41 3 17 43 34z"/><path d="m12621 14344c0 1 52 49 67 61 85 72 249 125 360 122l87-14c292-7 567-441 857-205-137-148-272-141-454-43-72 39-132 81-205 120-34 18-76 38-115 52-112 38-95-6-98 60-21-48-4-29-60-31-3 0-13-1-16-1-109-9-267-43-366-99l-39-27c-3-13-11-3-17 5z"/><path d="m15110 9221c-21-34-31-37-74-67-203-141-381-132-528-440-159-333-126-701-91-1095-108 311-84 810 44 1091 137 300 355 392 649 512z"/><path d="m15078 17468c212-70 358-451 757-368 222 46 368 188 529 321 63 52 88 92 141 142-48-91-192-254-288-322-67-48-103-81-183-121-228-113-455-107-653 46l-303 301z"/><path d="m13393 4305c31-476-161-914 425-1309 71-48 287-191 352-185-206 0-531 230-676 442-233 339-134 691-100 1052z"/><path d="m13104 19204c70 48 131 128 208 186 77 58 145 107 225 165l-5-147c-78-40-147-109-214-171-32-30-181-175-215-180l1 146z"/><path d="m12876 5045c23-15 14 2-40-65-133-169-258-630-740-734-88-19-157 32-50 53 310 63 429 185 631 516 103 168 108 127 198 231z"/><path d="m17885 16375c45-101-4-384 13-527 62-529 497-630 723-771-249 19-515 232-617 386-190 288-157 494-119 912z"/><path d="m12526 14189l1 23 9 32c52-4 86-14 132-21 72-11 129 137 308 144-90-67-154-71-231-168 62-28 169-93 227-111l37 37c31 27-3 7 40 26-7-70-14-42-40-89 252-95 157-71 300 33 29 21 57 40 97 42-58-37-120-83-147-138 120-4 168 24 265 47-118-94-380-86-526-24-9 4-21 10-30 14-10 4-20 8-32 12-104 40-173 89-295 115-22 5-43 8-65 10-59 6-24-12-48 15z"/><path d="m12647 14100c195-66 308-374 654-328 129 17 249 88 341 157 128 97 175 158 258 225 2 1 6 8 7 6 1-3 5 4 7 6-13-28-8-23-28-51-10-14-20-25-31-38-258-292-603-493-935-237-104 80-123 106-209 192l-53 54c-1 1-5 9-6 7-1-2-4 5-6 7z"/><path d="m16772 3930c90 57 228 47 334 11 223-75 322-277 441-422 116-142 205-111 276-147-266-49-360 206-479 336-150 164-301 234-573 223z"/><path d="m19872 10013c97-16 219-190 261-279 206-434-35-795 226-1055-240 137-160 523-184 746-26 253-240 589-304 588z"/><path d="m13547 22195c8 123 46 195 43 354-2 115-41 252-39 337l1 200 27-82c34-113 63-313 67-444 7-201-28-294-71-454-27-26-23-20-34-56l6 144z"/><path d="m13090 19855l-2 53c48-12 90-54 219-77 319-56 472 118 753 51-285-14-569-233-917-58-23 12-37 19-53 31z"/><path d="m11199 6136c31-47 51-115 78-161 161-278 320-545 641-511 134 14 225 85 365 72-53-35-268-104-344-114-281-36-438 143-589 358-46 66-141 268-151 356z"/><path d="m20435 13400l-2-14v-50l-117 8c-180-8-217-28-379-83 2 3 5 3 6 8l59 48c63 52 84 166 232 243 103 54 46 40 98 138 16 30 31 60 50 81-16-88-62-108-45-160 16-49 14 49 25-55-100-25-179-81-213-174 121 19 164 26 285 12z"/><path d="m13600 22066c140 92 173 247 259 439 56 126 205 310 331 346-74-48-144-91-187-161l126 8c-46-40-87-37-156-40-25-45-71-108-86-177 83 10 117 21 186 57-20-25-55-50-86-65-57-27-66-13-116-39-21-11-73-172-81-207l164 26-97-49c-83-24-74 14-116-61-55-99-95-128-182-194-60 80 27 107 27 107l14 11z"/><path d="m13772 22068c625 265 386 900 763 936-247-162-177-255-311-561-87-198-253-389-452-375z"/><path d="m20308 14783c-2-25-5-3-2-41 5-73-8 48 3-25l6-23 20-335c-113-41-110 90-65 200-261-52-135 236-9 164 0 0 29-9-4-61l-36-34c-1-1-4-4-5-6l77 2c-7 74-35 31-32 241 2-3 5-11 6-9l20-35c9-18 7-20 20-40z"/><path d="m20069 18373c0-130-6-83-191-253-43-40-68-68-107-112-36-41-60-98-105-121 1 119-1 117 51 177 77 88 259 285 352 309z"/><path d="m14691 7360c-138-203-307-101-503-41-218 67-343-7-525-118-2-1-6-3-8-5 94 189 367 218 517 180 195-49 336-184 519-16z"/><path d="m19755 9930c34-329-120-478 50-806 43-82 125-183 194-239l240-186c-157 41-375 229-464 412-161 327-43 483-19 819z"/><path d="m16712 3756c134-116 187-394 391-501 224-118 460-14 668 60-137-132-470-202-669-98-254 132-288 407-390 539z"/><path d="m13989 4303c72 46 201 14 276-21 123-58 196-162 275-279 29-43 48-80 73-117 73-107 185-115 231-137-393-47-203 466-855 555z"/><path d="m14491 23038c-213-30-421-52-565-187-219-206-154-490-238-619 27 322 71 497 220 642 153 149 347 190 583 164z"/><path d="m13579 23005l-27 82-1-200c-42 75-32 133-52 212-92 380 111 591 116 580 1-3 6 4 8 6l-33-74c-30-70-49-161-55-241-11-156 25-246 43-365z"/><path d="m13686 6988c229-48 390-396 819 72 33 36 164 194 175 246-18-72-126-234-161-278-142-176-361-296-572-211-84 34-153 87-228 144l-34 27z"/><path d="m12474 6342c61-106 47-136 155-196 74-41 154-69 223-112 119-73 261-247 269-460l-28 62c-68 169-120 274-262 360-148 89-345 131-357 347z"/><path d="m20282 15226l-3-22c-2-52-5-37-43-53-71-30-119-51-199-62-62-9-173-6-232 17-41 16-35 3-36 60 24 12 91-10 117-14 108-17 169-5 272 31 42 15 83 41 125 42z"/><path d="m11503 4396c83-26 162-62 257-83 51-11 100-12 149-23 113-24 71 37 97-41l-40-7c-11 1-12 11-27-13-91 1-178 15-258 39-151 44-180 40-177 127z"/><path d="m13513 23642c-17-35-37-40-64-71-101-115-222-266-300-404l-98-186c-2 95 10 124 71 233 83 148 270 368 392 428z"/><path d="m13919 4145c61-57 91-152 132-242 161-349 490-281 752-200-154-98-392-144-574-44-182 100-208 275-311 486z"/><path d="m12447 6299c34-236 27-428 135-598 44-69 93-126 181-164 43-19 78-27 127-38 49-11 70-16 111-46 2-1 5-4 7-6-196 36-346 57-442 233-100 183-136 345-118 619z"/><path d="m13089 14884c-1 2-4 3-4 6l-15-1c-94 37-36 226 69 238l-50-243zm92 255h32l-24-129c-19 7-13 11-14-16l-11-22 15-12-13-105-51 9c4 22 10 40 16 65 16 68 28 154 49 209z"/><path d="m13281 7069c14-234-96-384-192-467-143-124-240-107-302-331-5 286 268 234 417 539 27 56 73 185 78 258z"/><path d="m13498 20689c18 11 18-15 17 90 0 34-1 71-2 105-2 69-4 143-7 211-18-3-13-7-12 19 19-3 16 4 12-19 47 1 53-6 83-43-36-28-9 8-20-39-9-40 16-256 6-371-33 7-56 27-76 48z"/><path d="m16206 4393l65 72c99 63 209 72 316 37 101-33 195-112 280-117 48-3 54 12 84 6 25-5 7 2 23-11-190-63-222 17-381 78-123 47-302 18-388-65z"/><path d="m15688 12846c32-200 177-219 312-317 97-70 215-226 214-431-77 210-96 303-243 408-120 86-290 132-283 340z"/><path d="m13401 21416c331 3 309 77 504 280 54 56 104 74 195 62-77-44-101-4-181-93-46-52-79-104-132-159-100-104-278-156-386-89z"/><path d="m20166 10271c-106 138-40 358-379 545l-43 28c130-4 246-115 293-197 53-94 129-265 147-371l-6-22c4 24 7 17-12 18z"/><path d="m19883 13034c127-34 272-244 407-335 28-19 49-31 79-43 97-40 63-16 78-51-8-7 9-40-92 7-260 122-367 396-473 422z"/><path d="m19196 13799c28 71 56 161 63 249 40-519-422-498-430-804-22 313 245 243 367 555z"/><path d="m13120 4958c-127-121-229-108-337-263-112-159-90-374-89-602-5 12-4 5-10 31l-15 119c-10 155 13 331 84 451 117 197 265 190 368 264z"/><path d="m16214 4234c128-40 294-328 606-51 60 53 126 120 152 160 16-17 12 0-41-79-9-13-11-16-19-28-60-76-185-166-283-190-181-44-319 90-414 188z"/><path d="m15666 12814c23-838 232-628 445-802-264 47-409 165-450 486-11 86 6 309 5 316z"/><path d="m13165 7126c-102-110-223-48-324-244-89-173-83-332-81-555-38 187-24 412 57 560 75 138 173 198 348 239z"/><path d="m20150 10134l38-26c-204-20-408 101-480 327-33 105-51 216-34 259 27-150 62-320 136-404 74-85 202-150 340-156z"/><path d="m13600 22066l-14-11c0 0-86-27-27-107l-66-39c-35-22-26-23-48-57-19-30-72-89-105-101 56 36 152 304 181 384l27 60-6-144c11 37 7 30 34 56l-17-51c3 1 8-2 10 2l32 7z"/><path d="m13489 4732c91 77 183 135 335 76 139-54 161-134 336-125-86-88-238 43-319 83-122 59-249 18-351-34z"/><path d="m20219 15811c-13-43 36-11-100-7-189 6-235-78-346-124 0 63-18 40 77 97 37 22 71 36 114 50 53 17 207 35 248-3 43-39-11 43 8-13z"/><path d="m13089 14884l-20 5 15 1c1-3 3-4 4-6l50 243c11 29 13 20 42 12 12 15 22 30 32 0 20 12 15-4 24 16l-20 41c-11 20-7 7-19 36l25-9c12 62 1 79 33 130-7-166-54-161 14-188 0-41 9-36-20-26-8 19 5 35-14 1-13-19-31-101-20-121-7-16 14-15-26-10 2-20 5-13-14-16 0 26-5 23 14 16l24 129h-32c-21-55-33-141-49-209-6-25-12-43-16-65l51-9 13 105 26-2-16-102 23 6c-15-20-41-22-68-18-14 2-22 4-34 12-23 15-10 3-20 26z"/><path d="m18801 13318c-86 353 6 684 343 775-41-54-106-61-167-104-57-40-92-81-123-144-81-166-56-340-53-527z"/><path d="m20064 14022c-16-130-88-169-152-221-27-22-40-34-68-59-73-67-103-131-136-233l-22-78c-8-20-10-20-16-30 9 368 274 410 345 530 21 36 20 53 49 91z"/><path d="m13383 21591l15 19c7 11 6 11 12 23 55 111 135 226 244 263 140 48 337-15 425-103-112 58-276 126-415 80-155-52-160-135-255-278-1-2-3-5-5-7l-21 3z"/><path d="m12152 12712l13 35 9 28c6 6 6 4 15 20l8 16c34 77 61 214 62 301l9 34 1 13c15 12 16-23 11 30 41-101-31-342-74-444-57-133-48-56-58-102-1-5-5-5-7-7l10 74z"/><path d="m13497 4604c144-60 281-392 686 55-113-182-339-339-536-197-58 42-103 114-150 142z"/><path d="m13235 4379c187-346 2-614-199-746 126 95 285 292 254 516-13 93-49 139-54 229z"/><path d="m19680 16772l-27 197c9 55 14 114 46 147l11-265 29 12c-38-58-32 10-39-102l-19 11zm46 175c2-21-2-14 18-14-21-15 30-26-33-9l15 23z"/><path d="m12674 12645c-15 27-4 2-13 43-5 22-7 31-10 56-5 38-9 63-13 99 36 15-6-23 19 18 18 29 19 120 48 170 20-37 25-193 28-252l-21 81-13-74c-3-14-6-38-10-51-12-37-11-23-19-31-5 101 54 129 35 291-5-29-10-58-17-88-61-255 3-141-14-263z"/><path d="m20095 14001c61-231-2-500-120-590 4 52 72 81 105 226 28 124 15 236 15 364z"/><path d="m19529 15290c3-2 8-8 9-5 2 3 7-3 9-5l17-9c11-6 16-10 29-17 174-101 167-13 173-131-75 21-192 82-237 167z"/><path d="m19868 13492c23 17 32 21 48 41 22 27 3 16 32 37 1 100-10 71 13 169l7-123c54 107 27 67 59 156-9-119-63-228-129-296l-71-70c24 39 33 22 3 46l22 97c11 51 1 11 12 32-1-54 0-85-14-134 25 17 32 24 49 41-19 9-3 1-15 2l-16 2z"/><path d="m18957 13818l1 13c38 34 38 44 88 69l7-115c0-1 0-4 0-3 0-31 7-26-14-26h-2l1 125c-25-9-26-12-46-31l-34-36c-1-90 22-109-16-187l-4 117 13 64c-22-39-17-11-11-56-46-57-43-95-71-175 5 84 34 187 87 241z"/><path d="m20150 10134c31-1 62-9 92-11 22-2 43 7 86 3-51 43-83 21-142 112l-9 15c-16 0-10-4-12 18 20 0 16 6 12-18l6 22c51-24 40-43 76-74 28-24 59-40 95-53-40-7-75-57-167-40l-38 26z"/><path d="m20235 14956c14-25 26-72 24-202-20 13-40 21-52 86-4 23-6 44-1 69 10 51 9 30 29 47z"/><path d="m19974 13431c-19-68 27-23-94-93-35-21-101-38-121-46 29 59 80 72 144 97 33 13 30 20 70 41z"/><path d="m13538 19556c16 16 8 6 25 13l21 12c32 30 16 17 47 19l23 18c-11-19 19-15-23-18-14-56 2-65 2-118l19 5-19-5-25-7c-1-26 13-13-16-24l16 24 5 93c-20 20 2 8-28 13l-21-12 5-134c-23-32 8-7-35-26l5 147z"/><path d="m19736 15690c-5-76-34-79-84-110-42-26-79-49-126-57 109 63 142 137 210 166z"/><path d="m20371 13907c-8-98 12-17-76-137-25-34-55-90-80-132 15 106 106 227 156 270z"/><path d="m13097 22128c47-64 79-234 77-313-23 126-86 176-77 313z"/><path d="m13562 19569l21 12c30-6 9 7 28-13l-5-93-16-24-24-15-5 134z"/><path d="m12691 13754c39-6 70-22 107-41 54-28 69-17 68-90-52 21-109 103-175 130z"/><path d="m13080 18151l-3 21 40 15c21-25 31-5 59-40l-51 17v-74l34-28c-16 5-22 8-35 13l-37 11-6 65z"/><path d="m20161 16441l19-149c-10-34-3-17-27-31-26 51-18 131 8 180z"/><path d="m19660 17978c3-43 12-97-9-133-20-34-11-13-27-25-2 93-14 114 36 158z"/><path d="m11866 11565l-3 16c17 60-9-10 28 25 19-81 38-126 47-193-2 3-6 3-7 10l-13 19c-2 3-3 6-5 9l-46 114z"/><path d="m13212 14220l-162-100c8 63 14 55 66 77 31 13 59 22 97 23z"/><path d="m20592 10966c20-8 39-13 57-30 27-25 16-3 20-64-59 24-72 14-76 94z"/><path d="m20097 18402c0 0 17-8 13-65-3-47-6-36-35-48-14 130 1 99 22 113z"/><path d="m13068 20783l3 64 40-1v-91l-48 5z"/><path d="m13075 20371l-3 95c40-31 52-55 59-105l-56 10z"/><path d="m20250 14969c13-3 57 16 43-69-6-39 2-6-13-31-32 25-12-13-25 29-5 17-5 53-5 71z"/><path d="m13061 22232c30-62 32-76 29-164-39 40-32 69-29 164z"/><path d="m14605 20208c-26 27-28 25-42 65 57-2 49 14 42-65z"/><path d="m20106 17599c1-1 36 8 18-36-12-29-19-16-38-22 8 64-7 23 19 59z"/><path d="m15406 19221c6 67 20 95 63 114l-63-114z"/><path d="m20367 13583c8 45-9 30 34 35 0 0 8-25-2-37-22-27-29 0-32 2z"/><path d="m20450 12605c14 13-23 36 24 13 30-15 3 8 17-26-13-8 20-29-24-9-39 18 5-3-17 22z"/><path d="m20374 13510c38-2 31-3 44-20-2-2 14-24-20-11-57 21 10-2-24 31z"/><path d="m20142 17209c-22-47-7-30-37-53 6 53 0 41 37 53z"/><path d="m19755 15709c1-4 5-13 5-11 0 1 10-6-5-40-15 26-12 30 0 51z"/></g><g font-family="&apos;Arial Black&apos;" font-weight="900" font-size="529.13"><text x="10500" y="14850" transform="matrix(1.17154 0 0 1.27824 4843.11 1491.14)">NN 1</text><text x="10500" y="14850" transform="matrix(1.17154 0 0 1.27824 4843.11 2099.91)">NN 2</text></g></g></g><path d="m14404 27714c-793-434-1059-1310-1148-2220-84-856-93-1731-84-2591 10-958 46-1916 72-2874 28-1040 48-2085 8-3125-36-932-119-1896-332-2801-401-1697-1052-3306-1371-5028-98-527-174-1060-230-1594-63-594-101-1193-106-1791-14-1470 166-3618 1287-4624 709-636 1616-653 2473-442 1272 313 2479 957 3445 1918 682 678 1225 1495 1588 2421 400 1020 561 2112 524 3218-19 567-46 1133-79 1699-94 1604-235 3205-365 4806-146 1802-274 3602-348 5409-20 490-22 983-26 1474-5 583-11 1166-31 1748-24 713-65 1442-169 2146-72 489-197 1121-447 1540-238 398-638 662-1037 829-480 202-1019 294-1532 309-679 21-1481-93-2094-428z" fill="none" stroke="#fff" stroke-width="20"/><path d="m6567 27714c793-434 1059-1310 1148-2220 84-856 93-1731 84-2591-10-958-46-1916-72-2874-28-1040-48-2085-8-3125 36-932 119-1896 332-2801 401-1697 1052-3306 1371-5028 98-527 174-1060 230-1594 63-594 101-1193 106-1791 14-1470-166-3618-1287-4624-709-636-1616-653-2473-442-1272 313-2479 957-3445 1918-682 678-1225 1495-1588 2421-400 1020-561 2112-524 3218 19 567 46 1133 79 1699 94 1604 235 3205 365 4806 146 1802 274 3602 348 5409 20 490 22 983 26 1474 5 583 11 1166 31 1748 24 713 65 1442 169 2146 72 489 197 1121 447 1540 238 398 638 662 1037 829 480 202 1019 294 1532 309 679 21 1481-93 2094-428z" fill="#fff"/><g clip-path="url(#2)"><g><g stroke="#201e1e"><g fill="#201e1e" stroke-linejoin="round" stroke-linecap="round" stroke-width="50"><path d="m8899 11420c-5-22-11-18 8-18l78-272 13-31c-16-113-81 35-7-255 36-141 25-186-22-286-29 36 52 50 10 218-17 69-38 129-48 207-35-21-32-28-65-74-41-56-164-191-183-241 101-168 99-164 170-363 19-54 51-52 102-72 117-47 215-128 305-216 31-30 49-70 85-101l-5-23c-37 60-131 134-202 174-59 33-199 109-249 125l83-471c197-52 362-210 445-363-35 36-40 54-78 87-92 83-234 172-354 203 17-125 53-241 97-354 3-9 6-15 9-22 22-40 84-37 122-52 101-40 188-108 257-182-12-17-33 14-71 40-25 17-48 33-77 46-48 22-129 47-180 58 39-138 283-388 407-473-96 29-297 245-362 332-104 138-182 298-237 473-81 258-99 535-185 784-12 34-83 174-134 236l-27 28c-36-28-131-177-163-224-261-392-502-814-668-1274-50-139-169-460-187-607 290 6 488 345 859 370l148-4c36-9 12-2 25-10-108 2-161-2-262-21 43-47 119-80 196-91-150-18-167 55-238 69-53 10-174-75-204-106 58-49 163-72 247-85-91-54-237 54-288 55l-214-153c62-59 220-80 318-92-111 3-167-36-310 39-93 49-105-14-303-57-57-232-103-464-141-709-32-206-86-567-83-774 52 17 38 80 148 188 50 49 28 52 40 129 9 51 30 94 49 125l-36-194 131 73c47 43 16 131 71 207-16-51-31-117-24-177 197 127 55 106 141 261l-13-132c35 17 51 46 72 90 16 36 36 73 43 114-32-80-32-123-83-201-151-232-429-266-443-476 93-8 147-6 236-34 76-24 136-76 199-42 62 33 119 61 195 78 130 30 143-1 229-1-86-6-147-7-224-36-34-13-162-71-183-88l274-188c54 15 111 55 181 76 68 20 161 34 217 6-146-7-233-63-346-113 35-28 218-142 271-131 11 2 89 62 133 80 55 22 110 34 174 28-84-12-202-74-251-124 77-44 302-17 394-10-95-58-334-39-448-14-268 59-432 222-675 342-108 53-310 107-423 27 17-197 188-254 301-353 28-24 32-28 56-58 9-11 12-16 23-29l28-31c-28-26 7-2-13-4-48-4 26 18-13 2l-5-100c-24 51-12 83-16 145-39 28-50 52-103 76l16-162c-36 80-26 92-43 189-47 22-94 65-128 77 1-30 1-65 4-95 3-30 8-41 15-78-50 74-21 175-71 223-40 38-90 99-110 171-31-189-24-555-24-759 0-381 11-761 31-1141 11-200 30-124 107-279 56-113 25-143 106-175 102-40 204-115 253-220-69 84-161 142-281 188 49-379 40-237 196-356 52-39 70-72 109-116l-4-11c-4-2-16 19-21 24-58 64-146 91-217 132-3-46 12-88 24-127 64-210 90-63 259-234-8-13-50 29-86 45-32 14-66 25-104 33 31-91 147-211 202-250l-9-9c-16-9-172 179-190 204-198 279-181 797-327 875 3-83-1-234 27-296l9 170c88-427-190-823 610-1189 27-12 60-26 93-39l67-25c24-12-28 17 15-8 2-1 6-4 7-5 2-1 5-3 7-5-348 40-733 297-810 686-25 129-4 241-17 365-13 118-21 235-36 351-30 230-38 483-61 722-52-54-66-156-257-330-102-93-193-191-198-409-82 259 140 405 276 560 193 220 176 327 149 696-12-11-46-59-50-80-5-25 28-162 18-242-5-37-24-72-28-91 27 90 0 200-18 294-53-54-92-116-147-159 6-93 45-188 0-276 1 76 0 176-31 230-23-23-108-126-105-169 1-20 24-74 29-116 6-51-8-92-6-117-4 37-4 70-11 106l-36 93c-23-73-71-206-51-308-21 239 64 414 168 558 118 163 249 253 248 492-200-31-254-69-481-46-74 7-67-14-110-61-89-95-293-260-480-242 68 2 213 89 257 120 61 43 106 96 157 141 11 9 15 13 26 25l25 31c-15 8-399 119-420 120-51-90-276-270-444-270 72 48 138 63 212 124l175 169c-133 30-232 55-381 52-61-102-180-237-334-270 36 35 109 74 148 112 42 40 96 98 116 151-149-8-436-100-515-176-3 2-8 0-9 4-2 16-9 2 40 33 19 12 36 21 52 30 106 56 212 99 328 127 560 136 913-177 1324-122 82 11 197 71 232 73l89-103c9 140-2 308-2 451 0 75 1 151 2 226v161c1 11 5 25 7 45 13 138 12 292 23 432 11 140 34 295 40 432-18-16-7-1-23-27-9-14-12-24-17-36-29-61-131-152-139-174-13-94-9-167-61-231 16 79 29 112 32 206-49-20-97-59-154-85-8-99-15-155-61-225 22 63 34 123 31 198-53-30-83-64-124-94 0-79 1-123-28-182l10 142c-57-36-78-116-110-185 88 405 520 398 555 690-94 1-163 9-249 33-69 20-154 84-218 50-116-62-297-141-446-87 224 13 260 77 427 128-17 26-304 212-310 211-148-73-231-128-434-96 71 17 133 14 205 41 63 24 119 61 184 81-38 59-220 144-274 147-32 2-159-117-306-116l22 15c76 39 139 57 206 119-108 65-375 12-487-5 59 6 196 90 493 41 311-51 499-242 771-375 148-73 296-104 466-37-18 189-135 244-265 333-94 64-223 213-242 362 5-33 19-62 33-93 9-19 14-32 24-49 19-31 13-24 38-40l-2 146c-4-15 12-39 18-69 8-39 3-78 4-117 34-30 62-65 113-87-1 61-6 123-21 174 35-49 43-118 47-194l142-91-15 171 32-86c8-42 8-71 8-114 112-109 76-99 147-200l128 645c118 495 285 959 517 1394 42 79 99 169 130 246l-309-267c-103-92-231-163-341-241-544-390-1133-538-1802-467-167 18-325 47-487 84-79 18-156 37-234 58-37 10-75 20-110 31-20 6-35 11-55 17-21 6-67 15-69-19 0-2-1-6-1-8 0-37 20-72 26-109 10-60 8-110 4-171 6-26 88-107 108-199l-53 79c-24 30-37 48-57 67-54-200-66-122 7-251 23-41 33-67 41-108l-46 71c-19 25-35 46-53 71-26-38-27-115-26-169 50-36 77-70 100-148-19 48-54 89-96 108 5-90 29-162 66-236-71 101-105 293-80 447 13 81 34 155 46 239 19 134-5 155-35 253-36-14-163-157-300-221-64-30-71-10-90-83-48-180-157-362-269-417 75 30 190 302 224 439l-264-74c-153-33-62-71-176-259-42-69-91-138-153-173 80 105 158 248 189 393-102-21-218-68-290-125-21-47-26-135-55-199-28-61-67-109-99-144 49 107 78 151 99 303-90-40-271-261-308-342-14 24 12 49 53 107 68 98 128 168 216 248 236 214 568 248 841 375 116 53 269 178 305 318-196 37-118 85-288-36-73-52-182-106-298-102-249 8-374 205-481 333 8 21 42-41 84-80 94-86 177-176 308-213 104-30 190-12 278 30 39 19 74 46 108 65 36 19 86 26 118 54-93 27-159-8-249-28-129-29-169-3-278 11 2 1 6-1 7 2l72-1c-28 40-44 59-85 91 78-25 74-64 128-97l135 17c-33 53-74 83-132 111 65-3 124-53 151-98l119 31c-469 171-994 319-1494 362-500 43-966-69-1399-318-29-17-46-37-78-27 10 49 30 42 72 66l266 141c134 60 251 106 398 146 382 104 618 53 986 47-141 123-211 175-271 394-45 164-45 372-220 450 96-7 159-89 194-179 80-210 52-386 223-554 80-79 109-125 257-139-48 145-71 50-242 197 13 20 22-7 41-19 45-29 100-50 149-59-55 246-27 148-159 232-33 21-60 40-79 70 67-44 89-55 175-80-25 170-79 157-134 174-12 4-25 8-36 15l82-3c-17 50-118 157-173 172 100-28 243-212 287-332 78-213 68-372 252-397 15 82 41 148 75 220 20 44 99 164 100 191 4 165-84 163 1 522 9-24-13-181 20-359 7-40 9-87 34-115 41 74 178 220 241 273-10 86-35 142-36 250-1 83 11 181 44 238-15-142-12-296 31-429 47 24 175 199 190 263 9 39-98 258-33 393 5-158 28-189 58-319 21 24 31 59 42 91 39 120 35 200 58 291l14 38c-2-243-71-483-191-673-176-276-542-557-534-894l888-250c145-43 302-80 439-121 149-45 309-78 465-106 486-90 1020-102 1484 90 70 29 355 157 374 199-302 10-425 6-577-198 144 381 546 204 706 271 90 38 341 245 427 319 69 59 64 61 113 139l-272-12-85-140c-41-56-71-67-122-111l-13 5c-1 5 2 3 14 12 1 1 4 3 6 4 61 50 126 151 150 225-46 2-92-5-136-15-140-30-81-30-158-151l-71-94c-2 2-7 2-8 6-3 30 8-5 50 87 14 32 30 66 39 99-95-29-279-184-311-241 43 74 147 169 227 222 92 61 206 110 325 130 154 26 443 7 568 113 37 31 100 87 118 123-205 94-415 301-515 457-241-2-607 34-765 245 180-138 453-156 707-168-97 180-185 306-289 515-218 1-528 28-677 213 213-123 353-129 629-138-41 106-241 368-305 415-25 8-347-57-511 64l-25 22c208-45 246-49 468-28-39 66-207 160-289 205-54 30-109 55-165 78-33 13-55 23-87 34l-96 40c193-18 515-196 653-305 289-227 457-510 646-824 197-326 399-617 787-667 85 277-42 439-141 629-94 180-190 476-116 695-5-97-30-227 12-320 32 35 82 146 84 206 25-221-128-161-36-374 19-43 32-79 62-107 13 42 28 72 43 114 35 98 13 85 38 128 3-67 0-108-20-171-12-38-47-88-37-127 1-5 122-210 132-223 44 126 71 166 86 327-5-50 16-91-3-191-13-65-54-139-59-172-6-35 36-131 47-179 16-73 0-142 74-169 41 96 372 537 467 630zm459-1536l-3 7 3-7z"/><path d="m8171 15165v-45c3-66 9-142 19-205-58 16-68 14-75 77-4-75 2-20-18-38l-77 34c19-84 27-104 68-125 49-25 81-41 122-64l-3-8-5-28c-44 27-79 47-130 63l46-268c12-15 3-6 18-17 51-38 117-22 102-89-39 18-68 34-109 48 9-98 44-161 65-241 37-12 52-7 87-25l-5-10-13-8c-41-20-17 26-33-16-2-5-6-4-5-4l73-94-5-10c-17-6-83 101-95 118-152 231-144 758-334 863-64 35-255 145-312 153 11-276-23-253-22-306 1-47 68-118 65-249-30 88-38 126-80 203-13-19-80-159-80-170-1-19 52-109 54-196-1 2-3 6-4 8-1 2-3 5-4 8l-59 142-28-41c-74-163 23-127 32-283-21 56-38 86-73 124-11-115 5-145 13-242-47 184-36 326 35 491 53 123 153 294 86 451-60-39-116-76-194-107-69-27-171-41-226-65-26-23-147-328-358-381 74 56 116 93 169 168 31 43 111 161 127 205l-371-5c-41-128-196-309-320-347 116 97 195 197 266 342-64 2-130-6-191-17-56-11-119-12-143-71-32-80-65-151-125-208-42-39-47-53-66-37 12 8 6 3 17 15l31 41c44 57 79 130 102 200-133-35-340-216-411-296 56 97 206 211 309 279 444 293 1085 36 1326 416-29 33-85 56-126 78-105 58-257-115-481-41-155 51-337 259-381 428 115-127 218-456 550-417 45 5 84 17 127 32 27 9 35 11 62 18l54 20c-80 27-51 33-161 33-141 0-310 52-402 157 79-57 90-65 168-96-9 21-13 38-32 67-13 20-22 29-37 48 53-33 70-75 105-135l145-7c-47 90-71 88-163 139-291 163-1158 632-1426 692l-8-167c37-59 117-143 105-252 7 64-86 174-111 206l-51-180c32-60 96-117 95-220-16 76-69 137-105 175-23-45-28-114-27-170 44-31 83-84 94-149-31 54-47 79-93 114-3-92 33-182 59-251-11 53-55 123-69 202-48 270 156 659 26 725-44 22-133-106-318-187-59-26-64-11-85-80-49-166-166-343-275-402 98 104 194 277 232 429l-357-86c-58-150-117-317-261-397 89 102 177 247 206 391-58-10-111-28-169-51-45-18-122-36-139-84-34-98-50-227-134-299-1-1-6-1-7-5-1-4-4-3-7-5 22 57 88 176 97 292-90-46-331-290-358-390 35 112 182 281 252 340 56 48 94 85 166 131 195 125 418 159 639 229 138 44 319 122 362 221-109 75-678 176-851 195-784 83-1594-176-2288-540-55-29-127-75-182-87 11 59 31 51 87 83 245 140 498 259 757 369 1003 427 1892 373 2888 13 73-26 157-66 227-83-23 44-65 71-87 117-57-2-131-18-182 7l150 16c-63 140-176 90-212 89 8 7 9 8 24 16l45 17c-27 31-91 43-123 58 228-25 318-216 480-348 24-20 50-37 86-47 13-4 45-10 58-11 13 0 14 0 26 2 73 15 15 245 0 294-71 231-252 384-384 560-74 98-169 253-222 415-42 129-67 277-69 417-1 39 12 126 11 135 5-148 11-288 51-431l32-95c9-15 6-10 15-20 35 131 59 160 62 323 17-82 24-125 9-217-29-173-133-145 137-454 12 27 42 183 46 222 10 96 0 159-14 242 7-28 28-67 37-110 35-174-21-282-25-417 91-67 165-204 251-276 34 231 56 255 32 503 34-106 52-142 49-277-2-65-41-275-41-279 1-19 85-163 105-207 38-87 46-149 75-242 264 138 150 543 545 764-64-37-155-104-175-174l113 29c-96-103-154 27-209-214 126 22 138 74 160 50l-175-94-51-179c29 7 67 19 94 30l40 20c21 11 26 14 43 21-19-29-17-25-56-50-21-13-38-23-67-34-93-33-60-12-110-95-41-68-133-136-139-175-3-18 5-74 7-95 157-68 325-155 484-236 163-83 316-160 476-245l848-423c75-36 52-6 96-81zm-1136 356c13-38 17-50 57-31l-57 31z"/><path d="m3572 5158c2-70 28-123 55-178 24-49 51-111 103-130 5 47-13 140 14 170 21 25 12 24 114-14 54-20 38-49 67-96 30 41-1 59 26 101 30 47 53 6 48 94-41 13-55 1-92-7-40 29-17 38-78 37-63 0-46-16-100 21-99 67-40-58-157 1zm-646-288c79-39 80 76 20 99-78 30-81-69-20-99zm285 135c4-31 23-55 9-90-11-30-36-27-42-74-6-49 14-35 0-97-8-36-25-48 10-71 39-26 140 3 196-2 62-6 115-50 162-36l-82 79c-27 33-4 6-8 21-1 2 11-25-2 13-11 33-34 33-48 53 49 24 107-9 149-20-77 53-172 99-186 214 27 34 26 9 38 49-99 2-124 14-194-39zm810-502c9-46 190-203 276-195-18 24-13 14-14 51 87 94 44 33 24 134-8 42 8 49 10 86 2 45-12 28-28 71 0 21 34 33 21 73-22 67-71-15-117-22-32-5-47 6-85 0 23-26 64-38 77-69 8-19 27-105 11-138-55-18-115 17-175 10zm-71-547c30 8 46 31 75 32 29 0 39-17 69-25 49 36 68 110 64 197-111-88-158 25-231 179 4-70 19-81 3-156-2 2-5 4-7 6l-12 12c-2 2-3 5-5 7-32 47 6 23-35 39-76 29-13 73-99 105 6-82 33-121 16-211-8-44-50-132-8-167 26-22 47 0 85-5 39-5 41-26 85-13zm48-209c-100 28-103-46-51-87 71-56 97 21 51 87zm-327 666c71 19 65 1 122 48 38 31 69 40 105 68 48 39 135 130 131 222l-83-122c-45-63-189-166-250-181-102-26 17-6-126-98-117-75-99-311-66-450 15-64 6-42 44-71 59-45 12-104-53-59-9 63 17 43-7 133-64 245-11 269 30 423-58 38-23 39-102 16-12-4-20-5-34-8-3-1-5-1-8-2-3-1-5-1-8-2-71-14-120-12-185 0l-177 48c-25 5-169-37-104 83 142 29-54-54 282-117 97-18 170-6 260 23 93 30 31 49 113 103 43 28 38 2 60 42 18 34 3 38 35 70 150 152 111 147 309 223-57 53-192-48-230-84l-119-139c-13-27-8-39-30-69-235 1-562 126-722 294-31 33-49 63-79 97-41 46-68 36-84 104 89 14 119 94 203 104 54 6 76-19 132-7 45 9 77 32 125 35 89 5 168-59 262-26 93 34 29 144 162 156 98 8 127 73 228 14 28-16 66-46 96-56 63-20 78 14 124-39 53-61 148-79 103-185-28-65-115-145-110-202 70-17 260 160 323 52 30-50-17-8 57-99 44-54 10-67 16-126 8-73 95-160 37-247-42-64-23-25-47-111-28-102-137-39-175-121-44-97 13-189-16-284-13-43-41-66-51-106-15-58 8-93-16-144l-135-170c-29 17-119 140-143 172-167 217-220 489-200 791z"/><path d="m6426 18097c32 8 54 30 80 48 31 21 43 38 65 67-24 29-60 40-91 48l-54-162zm1666-2155c-7-179 52-397 46-556-16-19 0-16-23 22l-64 125c-31 56-52 114-77 175-260 659-234 1271-634 1913-97 155-360 410-527 471 13-183 5-333-63-483-47-104-106-202-188-268-39-32-25-38-41-19 75 61 183 280 225 444 26 103 28 201 15 311-8 69-21 65-74 91-36 18-67 38-107 47-39-85-96-117-162-174-10-78-17-164 1-240 15 21 66 63 89 86 33 33 57 73 85 104-25-113-106-171-170-239l25-268c60 21 173 173 211 246-15-93-82-175-127-224-20-22-72-61-81-92-25-91 17-183-122-419-77-132-32-68-67-207-3-10-6-23-10-33l-8-16c-1-2-4-3-5-8-1-4-3-5-5-8 18 251-10 456-75 675-127 429-443 569-617 834-206 312-81 536-82 567-17-223 19-352 119-505 43-65 96-109 147-163 166-174 297-277 426-514 134-247 106-428 144-489 118 154 103 328 85 569-27 375 31 353 87 575-56 15-96 46-154 52-24-73-59-121-80-214-71-316 114-502 111-725-24 48-56 145-81 203-93 221-117 448-19 671 65 148 21 53 92 168 30 49 85 113 122 147 72 67 226 193 312 221l-57-47c-69-58-110-86-179-160-45-48-175-174-200-245 37-27 102-44 149-52l85 125c-26-46-50-76-68-128l242-102c-12 125-47 223-29 358 12 92 53 208 130 251-1-3-3-6-4-8-1-2-3-6-4-8-1-1-117-155-63-435 57-295-3-137 229-299 112-78 190-130 294-229 73-69 157-192 226-303 80-128 102-213 152-317 158-329 311-1043 421-1256z"/><path d="m3150 13753c94 1 184 26 241 80-60 37-27-7-48 85-46 22-51 3-85 46-39 50-11 36-85 47-14 40-22 60-57 50-1-3-3-10-3-8 0 1-2-6-3-9-19-93 20-18-47-121 29-3 80 45 167-48-14-72-27-13-81-123zm-455 102c12 23 45 47 63 58 49 30 50-13 89 23-98 47-15 102-94 120-35-32-10-29-31-51-23-25-18 1-50-31-56-56 33-10-94-79-8-71 7-55-22-86l-13-10c69-31 158-71 254-56-19 54-80 58-101 112zm608-329c-82 12-41 0-78-6-33-5-42 18-85 1 25-35 95-59 124-89 50-52 29-106 126-109 29 97 43 46 66 98 34 74-23 56 64 100-4 70-60 111-90 146l-8-65c-75-17-139-18-213 11 44-32 84-40 94-87zm-767 110c-31-44-65-76-62-151 96-23 43-39 87-96l103-88c52 29 48 59 83 110 16 23 29 36 51 51 50 36 41 18 57 55-33-1-63-12-90-9l-32 7c-12 2-12 0-21 2-20 3-11-1-22 6 22 52 38 40 79 81-45-25-68-32-125-35-123-7-75 21-109 69zm1048-340c14-25 34-31 71-25 11 13 15 15 22 35-24 47-82 62-93-11zm-1143-8c-15 16-38 24-62 6-30-23-17-29-4-45 43-53 104-2 66 39zm543 48c-35-180-144-208-226-272-37-29 4 6-28-35-11-14-5-24-33-18-29 6-40 50-9 62 39 14 23-26 89 13 99 59 213 164 193 304-5 37 0 81-7 104-11 37-40 86-55 197-9 72 21 170 12 195-39-53-50-133-34-217 29-148 18-97 59-191-169-210-405-361-694-330 1 299 45 188 83 290 27 73 13 79 63 126 37 35 70 49 90 96 30 71-17 94-28 145-9 44 22 88 36 146 28 117 108 41 188 171l113 21c121 23 102-192 164-222 46 50 8 182 79 229 11 5 137 1 171-34 60-61 69-32 143-70 64-33 52-76 95-132 102-133-117-134 115-294 56-38 64-53 97-121 73-153 68 42 147-300-152-24-312 10-450 66-134 55-221 140-305 214 59 216 16 277-40 412-12-20-15-21 4-61 74-161 8-302 21-366 12-60 1-99 8-131 17-74 97-163 138-193 195-145 121-66 208-86 21-37 23-30 1-68-52-6-41 0-64 32-22 31-19 25-50 43-45 27-79 49-109 75-147 125-78 177-187 198z"/><path d="m5228 10864c89 66 311 121 455 127 388 18 576-145 907-237 132-37 369-54 462 43-45 28-114 50-164 77-352 191-498 367-711 721-135 224-283 643-408 803-263 336-477 316-583 369 173 10 327-39 449-116 349-221 461-714 671-1044 83-131 143-235 238-333 234-240 765-536 1131-546-80-15-137-22-226-17-117 6-93 24-202-15-391-137-430-51-637-38-44 3-51-17-80-42-96-83-326-203-432-164 239 75 220 80 425 224-23 21-179 78-212 94-132 62-126 84-186 30-97-88-266-168-435-145 80-40 357 136 419 209-79 34-227 88-327 88-12-5-150-188-333-193 128 38 205 140 271 196-175 28-354-50-492-91z"/><path d="m7932 13319l22-143-27-19c-19-17 5 18-17-19 23-21-21 18 22-7l34-8 12-51c7 47 31 19 48-8l34-59c57 0 25-7 54 26 65 73 28 49 52 94 17 34 13 2 33 41-12 47-32 63-55 91l-20-31c-14-15-2-11-24-15h-80l-8 59c-37-60 16-34-36-49-26 26-16 54-32 99l35 9c2-13 2-26 5-38 7-24 10-20 21-26l-11 67c19 3 12 0 28 5 13 4 16 9 22 13l42 42c-43 83 2 28-73 80-23 16-5 5-26 26l-84 72c-25 62 5 39 8 43 32-20 26 9 21-59 8 28 0 34 18 59l14-9c136-95 120-32 159-119 21-48 49-55 40-108-8-49-24-67 10-107 27-32 59-37 89-65 31-30 24-49 55-91 27-36 75-39 92-200-144-19-241 10-363 67-48 23-58 19-62 85-5-61 6-25-14-48-26 21-103 84-114 99-10 27 58 207-44 308 30-136 52-66 27-285-3-28 7-41 7-79 2-198 210-224 164-246-42 34-80 53-111 91-64 76-22 80-85 110-33-24-26-47-50-87-47-77-108-91-141-126-20-20-51-64-55 9 43 28 24-13 79 18 218 121 131 287 110 385-26 120-3 113-3 209-74-91 0-235 18-309-35-33-55-67-94-101-98-86-288-158-424-134 8 43-1 112 19 147 29 51 26 7 55 101 27 86 137 101 104 193-28 79-37 31-5 117 23 62 7 69 61 95 111 54 55 37 91 62 21 14 96 26 117 18 55-34 44-129 87-160 37 45 2 176 80 170 35-3 32-23 33-56 2-82-21-91-32-116 92 26 86-14 104-31 34-32-34 18 16-4-57-90-67-43-53-94zm-345 83c28 41 56 53 112 41-33 61-26 3-46 105-77-13-11 3-56-40l-23-18c-16-15-16-20-29-33-54-54-29 20-53-72l-8-29c38-27 116-51 176-37-29 39-59 38-74 82zm-166-271c22-16 26-8 41-27 11-15 11-32 23-50 13-19 16-14 38-35 32-30 3-31 44-28 37 3 37 48 64 83 24 32 51 39 74 71l-123-5c16 50 8 24 37 55-149-26-132-9-147 41-30-27-47-48-50-105zm829-157c2-3 24-11 36-10 23 3 8 0 28 18-13 51-65 56-64-8zm-913-13c18-35 47-44 69 0-25 46-44 38-69 0z"/><path d="m2607 7030l24-21c20 13 3-7 23 21 20 28 30 64 36 101-41-14-63-43-83-101zm-213 140c5-72 47-122 74-169l34 26c-29 56-56 123-109 143zm348-250c-70 3-42 1-51-30 20-18-21-10 32-16 23-3 58 7 80 27-21 15-28 18-61 20zm-316-32c-30-4-50-10-78-21-33-13-39-8-49-45l133 19-6 46zm186-123c13-39 55-92 87-99-10 47-32 89-55 111l-32-12zm-156-131c24 20 59 72 59 124l-29 11c-22-28-44-98-30-135zm-55 122c-13-3-225-79-238 71-11 125 140 153 222 152-39 28-68 62-87 126-49 166 95 248 196 106 54-77 34-147 51-176 15 24-4 30-2 81 3 73 53 183 135 200 72 15 104-29 110-94 8-81-29-120-48-173 314 58 291-252 13-229 28-63 61-59 83-129 52-166-126-279-249-4-47-398-374-154-186 70z"/><path d="m6494 5523c-198-66-274-122-525-121-434 3-752 245-1016 271-195 19-419-53-497-148-13 11-7 12 40 63 44 48 122 95 185 121 528 217 874-391 1655-148 256 80 345 128 536 281-67-117-174-160-210-238-72-157-177-304-304-390-92-62-55-24-81-149-27-134-93-242-159-304 75 107 92 226 131 381l-279-119c-20-111-38-211-104-306-3-4-13-18-13-18-10-16-4-5-11-21l22 74c36 89 47 147 62 250-64-21-215-97-230-151-13-49-6-109-28-175-17-51-40-94-70-129 44 85 54 161 58 271-31-12-30-9-67-57-18-24-36-47-53-72l-77-133c-11-17-6-9-15-20 71 223 278 421 488 528 121 62 391 175 470 284 21 29 77 120 90 174z"/><path d="m9471 5558c20 35 43 73 49 124-32-13-69-67-86-106l37-19zm49-122c32-24 88-8 116 13-29 26-75 22-117 23l1-35zm-77-129c18-39 46-84 84-94-5 46-27 94-56 116l-28-22zm-146-122c17-3 12-6 8 14l8 16c10 18 39 67 29 89-24 50-42-10-49-33l-11-22 1-18c-11 63 42 230 35 319 18-10 12-10 9 12 2 2 4 6 5 8 0 2 2 7 2 8 3 22 15 18-7 18-14 24-25 43-41 65-28 41-20 43-66 58 16-79 53-106 67-165l-22-39c-48 6-27 10-65 22 0 16 3 12-12 9 2 15 4 11-10 10 2 15 5 12-10 10 2 17 6 13-8 13l-6 15c4 21 9 17-8 17-119 311 197 276 221 19l9-31c1 45-16 77 19 158 58 132 210 157 222 11 6-75-29-122-50-171 96 20 136 9 204-27l-4-84 3-39c-74-109-158-92-256-47 16-35 58-8 120-99 93-137 12-275-112-208-50 27-78 70-99 130-44-80-33-180-131-192l-46 2 25 166c1-3-4-7 8-15 35-24 12-1 18 2z"/><path d="m5320 12849c50 25 153 43 211 53 816 140 1712-70 2058-973 58-152 95-290 133-459 19-85 30-159 55-241 42-136 51-118 83-198l-6-9c-31 52-68 102-98 163-29 59-53 112-77 174-51 128-76 261-118 399-85 279-212 500-361 650-462 464-1222 507-1895 432l15 9z"/><path d="m2121 11006c21 20 42 57 44 98-15-6-34-26-49-45-24-32-30-35 4-53zm-196 132c-3-47 38-108 53-139l32 15c-17 53-51 97-85 124zm334-222c-80 47-92 0-92 0 10-11-21-33 52-22 33 5 34 15 41 22zm-307-43c-8 42-8 36-56 20-39-14-42-16-52-39 23-1 42-2 66 2 42 7 39 14 42 17zm48-148c44 75 12 73 3 81-30-26-31-57-36-112 29 16 11-6 33 31zm173-7c-5 29-32 120-64 83-13-15 6-36 17-51 23-31 14-21 47-32zm31 537c77-31 41-176 1-217 52 3 85 23 139-8 30-17 65-50 47-108-39-124-221-57-226-61 56-19 77-30 103-76 111-199-115-259-178-61-30-53-50-196-152-160-35 13-56 58-53 113 3 55 21 76 37 115-72-25-191-30-192 69-1 95 90 114 180 121-64 45-101 144-51 238 139 41 146-73 187-116 15 72 72 186 158 151z"/><path d="m9180 8573c-67 30-108 93-155 123-116 74-369-202-497-291-247-172-526-242-807-57 102-54 245-54 370-46 215 13 309 76 461 195 73 57 182 159 254 197 44 23 131 40 160 59-158 164-47 146-280 219-134 42-290 59-427 17-303-93-332-333-552-458l185 234c186 254 453 337 749 265 51-12 117-42 155-46-91 116-157 402-165 576-13 264 42 482 40 737 50-73 41-369 34-447-28-291-3-595 144-831 44-70 44-87 110-127 51-31 113-70 142-107-38 17-82 42-116 57l52-68c48-44 76-35 91-56l6-23c25-38 37-33 47-120z"/><path d="m3078 11983c35-75 76-130 111-234 137-406-90-725 93-997l23-29c21 57 32 184 56 262 70 224 204 414 355 560 226 219 459 364 454 767 19-26 21-34 25-82 32-388-283-592-501-823-251-266-372-700-337-1090-9 13-3-1-14 23-13 27 12-35-7 17-35 94 7 100-66 229-106 185-93 235-114 406-9 70-163 133-196 307 8-8 7-7 17-19 118-154-18-5 177-207l35 278c-74 47-168 161-176 262 41-98 119-164 183-222 7 53 10 106 8 160-2 82 3 79-51 114-47 30-120 106-127 181 4-59 113-130 159-163-6 58-26 109-46 159-10 24-20 47-33 72l-36 58 9 11z"/><path d="m4729 15086c-35-20-43-46-73-90-17-24-50-74-53-102-2-23 49-144 40-265-24 76-19 134-61 212-36-98-62-238-56-358-68 656 500 806 448 1232-54-48-91-102-149-160-158-158-396-237-614-277-352-64-594-33-784-399 22 182 198 337 345 394 173 68 403 73 590 121 286 74 452 239 638 466 32 39 52 64 78 109l66 116c-7-54-24-98-43-142-73-173 35-206-136-541-52-101 71-84-6-415 4 106 10 261-44 341-39-77-119-133-160-205 7-51 25-89 29-151 9-130-13-139-14-147-1-5-3-6-4-8-1 129-18 157-36 268z"/><path d="m5350 14103c26 35 41 67 71 103 27 32 52 54 89 86 216 181 633 79 884 102 255 23 517 183 688 347 32 31 60 52 88 87 24 29 48 69 70 96-22-74-49-105-86-165-47-75-23-193-131-374-37-61-69-86-100-142 17-167 9-263-59-381 44 102 30 226 29 348-22-7-157-130-203-159 4-111 18-230-39-314 13 109 20 159 5 277-40-37-124-112-146-157-21-44 26-176-16-269 1 69 5 152-22 205-37-50-132-285-111-361-27 281 195 573 393 731 34 27 82 75 111 105 65 70 130 163 144 315-38-18-57-41-88-64-226-171-454-218-736-211-161 4-342 42-494 4-103-26-239-95-309-181-6-7-8-11-13-18l-20-7z"/><path d="m4278 8717c-101-119-149-201-297-294-122-77-268-130-428-168-161-38-328-43-470-112-153-74-224-157-298-307 75 467 643 456 913 541 215 67 322 166 443 293 81 85 261 299 295 446-3-97-62-185-65-255-6-183 3-253-78-423-26-55-34-52-13-117 24-79 50-221 11-292-5 132-21 184-51 302-30-28-144-180-159-213 33-118 46-152 30-293-14 31-12 94-22 137-4 20-9 39-14 59-12 43-16 46-36 62-20-51-79-124-94-179-16-58 44-64 44-232l-30 84c-9 26-24 59-34 81-49-88-41-256-43-369 5 68-33 168 18 369 62 244 170 323 298 536 56 93 104 199 81 346z"/><path d="m5693 7237c-80-25-204-139-236-187l-10 8c25 40 156 152 214 190 84 54 178 89 286 108 238 42 478 39 572 220-198 6-282-23-475 53-320 125-539 385-671 453-155 80-287 100-454 56l113 55c468 121 685-472 1235-535 101-12 212-13 314-5l207 35c3 1 12 3 16 4 3 1 5 1 8 2l37 5c-2-2-10-9-12-10l-19-12c-106-65-80-11-170-105-58-60-110-113-198-161-45-25-75-32-124-47-104-31 5-56-248-287l17 32c74 73 101 157 145 230l-244-22c-16-19-6-5-17-26-101-193-58-93-156-205l-15 7c0 5 7 5 7 8l35 39c59 76 52 70 98 172l-183-35c-86-35-27-132-167-229 42 60 72 102 95 192z"/><path d="m7718 6938c55 47 158 74 202 128 74 90 186 170 304 206 77 23 56 21 89 87 44 87 95 131 163 185l11-4c2-4-20-16-25-21l-69-86c-21-38-48-100-69-130l234 17c28 86 106 186 174 221-48-59-107-116-133-216 47 3 77 9 122 21 95 25 71 23 84 58 25 71 65 139 111 161-33-32-68-108-84-172 76 24 191 129 229 184 23-23-203-244-453-292-187-36-343-15-493-140-29-24-33-30-46-66 275 7 473-14 717-208l262-210c123-104 270-114 283-120 41-19 22 13 27-39-167-98-557 289-726 384-147 83-237 115-431 123-172 8-340-7-481-72z"/><path d="m4480 5653c-11 21 272 379 296 408 423 511 1021 713 1595 352 132-83 251-182 391-253 23-12 2 0 21-11 22-13 10-5 21-14-404 49-666 559-1335 331-290-99-568-358-779-571-53-53-169-186-202-256l-9 13z"/><path d="m4568 10550c25 42 162 112 237 129 292 68 547-136 805-253 212-96 366-118 616-81 209 31 369 85 520 189-92-121-281-221-468-267-228-55-424-26-629 49-353 129-581 402-951 286-85-27-114-68-129-54z"/><path d="m4885 7421c28 10 33 37 40 72-26-14-54-42-40-72zm-145 94c6-28 13-47 24-67 21-39 11-26 38-28-1 47-28 79-62 95zm187-163c9-10-18-22 33-18 16 1 27 9 38 16-23 11-45 22-71 2zm-165-32c-7 18 6 30-40 13-26-9-32-21-39-29 37-1 52-4 79 16zm-162-51c-21 106 35 126 130 132-48 34-71 109-40 182 89 23 113-27 141-101 16 78 48 141 131 126 47-56 24-97 2-160 210 14 164-155 5-149 22-42 90-107 34-176-69-37-106 38-137 76-25-77-42-138-135-109-26 74-19 108 8 164-54-17-85-16-137 15zm292 0c-3-5-28-2 1-44 11-16 19-17 37-24-16 78-28 62-38 67zm-115-87c18 16 47 49 26 82-11-9-5 2-15-14-4-6-6-16-8-23-6-23-4-23-3-44z"/><path d="m6695 10807c-3 6-30 9-43 14-65 24-165 87-217 130-41 34-69 58-112 93-45 37-66 48-114 80-163 112-392 177-623 133-346-66-645-303-898-537l-28-24c-49-46-36-66-50-41 23 23 34 42 50 62 105 137 227 251 369 351 388 275 791 369 1211 110 73-45 273-210 338-277 66-69 71-45 117-95z"/><path d="m4226 12293c182-363 337-882 154-1333-232-571-633-551-821-793 234 391 961 384 818 1487-33 255-89 428-151 638z"/><path d="m4908 16286c-27-5-54-8-82-10-284-28-628 107-971-276-183-204-436-784-447-1054-8 193 72 470 129 637 131 380 393 662 763 739 239 50 441-11 677-9-15-11 10 2-22-13l-47-13z"/><path d="m5953 16656c-2 1-4 3-6 5-141 109-281 161-438 297-522 454-386 1350-107 1782-136-338-270-903-140-1308 72-226 175-335 311-447 95-78 329-219 392-316l13-23c1-5 3-6 4-9l-28 19z"/><path d="m4299 9308c-335-109-371-27-622-69-377-62-596-335-739-701l-138-421c-11-43-20-122-39-156 3 427 226 885 412 1073 220 224 475 293 793 274 130-8 204-10 332-2z"/><path d="m5643 14739c-27-37-51-74-75-113-165-270-131-235-243-497 36 97 49 194 92 296 123 291 253 504 491 693 350 278 654 220 1031 96 55-18 112-24 143-52-314-9-592 199-954 28-251-118-338-247-484-451z"/><path d="m4973 8227c-19 16-24-3 39 53l171 126c256 172 567 294 890 241 233-39 366-148 497-274 65-62 119-131 182-211 66-84 88-135 191-199-230 119-224 180-389 349-112 115-263 241-476 279-227 40-429-21-620-96-131-52-414-191-484-267z"/><path d="m6445 5204c36-290-226-638-492-773-340-172-608-129-741-513 9 394 486 469 694 563 308 140 566 620 539 722z"/><path d="m7713 6684c2 2 5 3 6 7 5 26 156-119 168-131 136-129 249-332 516-407 172-48 353-27 518 25 73 23 151 55 217 86 59 28 153 86 209 102-6-61-97-98-180-144-223-123-500-187-755-124-179 44-294 144-394 238-62 58-94 108-146 175l-134 155c-22 18-8 8-25 17z"/><path d="m6278 5320l-213-74c-87-14-155-17-238-41-164-46-271-131-350-233-90-118-146-218-197-399-22-78-40-159-55-242l-47-270c-9 481 144 1027 605 1181 154 51 330 54 496 77z"/><path d="m7522 4527c118-5 267-141 319-202 248-291 193-590 249-847 35-159 117-261 217-321-310 70-283 541-328 758-32 156-107 284-177 366-51 60-192 227-280 246z"/><path d="m6991 13826c-61-143-129-213-220-298-92-87-197-149-296-226-138-107-147-269-178-341-8 195 54 287 146 376 206 201 367 212 500 520 54 125 90 261 103 418 48-128-9-341-55-449z"/><path d="m2779 12399c85-52 142-196 136-353-13-313-155-452 5-851 42-105 112-250 174-297-79 40-168 161-216 262-150 312-67 545-15 842 36 207-43 298-84 396z"/><path d="m4558 13991c-74 131 19 321 77 404 157 222 492 365 422 1048 48-170 72-240 32-446-58-301-247-443-403-615-75-82-138-224-128-391z"/><path d="m8099 12477c-12 58-4 50 16 104 7-95-31-64 4-223 41-189 75-182 125-263 58-94 68-84 148-227 61-109 108-248 115-403 6-145-33-335-96-420 56 172 59 448 11 618-9 32-20 56-31 85-46 129-27 38-80 150-71 150-270 298-227 579 26 14-14 1 9 1 47 0-31-16 7-1z"/><path d="m4374 8438c126-258 23-609-104-782-105-143-123-146-226-270-91-109-119-202-118-390-134 255 195 548 268 646 73 99 127 170 162 329 35 156 43 313 19 466z"/><path d="m5142 6664c0 2 40 65 43 70 133 203 485 142 663 171 212 34 489 255 553 401-16-134-188-298-279-356-355-225-807 11-971-299l-9 13z"/><path d="m9129 5525c74 4 103 5 143-35-5-43-3-36-18-56l-6 1-100-30c-25-17-10-6-21-27l101 1 30 4-13-67c-3-20-3-35-5-54-7-49-20-72-13-118 20 25 21 62 26 94l40 309c28-49-16-197-22-255-5-48-29-209-43-248-12-4-10-7-7 7l6 94c-5-6-3-1-10-21-18-51 2-26-20-48-25 55-21 118 3 176 0 1 10 20 10 21 15 24 9 14 18 22-2 2-5 4-6 7-1 4-6 3-8 5-2 2-37-18-48-20-224-41-221 212-37 239z"/><path d="m7830 10437c-329-16-832 383-1295-782 21 129 100 313 159 416 73 127 163 237 263 316 298 238 532 148 816 74 6-2 18-4 24-7l33-17z"/><path d="m9331 7921c-24-96-154-172-245-192-122-28-270-7-397-28-217-36-437-235-518-370 27 108 121 212 181 262 378 321 641 43 924 273 30 25 29 35 55 54z"/><path d="m8219 11033c-55 104-387 269-430 670-47 432 260 840 265 840l6-13c-52-63-132-262-166-366-47-141-87-304-65-473 35-280 191-382 293-496 7-8 108-146 107-150l-9-13z"/><path d="m6255 13037c-96 167-112 661 30 904 189 324 396 303 609 437-131-164-402-148-570-438-159-275-97-577-70-903z"/><path d="m3257 10968c5 277 254 470 70 887-88 200-329 436-503 551 237-108 443-311 543-550 130-310 43-523-74-788-13-30-23-72-37-101z"/><path d="m4489 14068c-53 67-121 277-144 416-117 729 425 860 561 1022-159-220-381-263-488-541-125-325 10-640 71-897z"/><path d="m4216 8500c-184-319-673-314-431-1205 19-69 49-139 65-206-26 23-35 50-49 83-14 33-25 61-39 97-135 357-116 752 171 1004 81 71 230 153 284 227z"/><path d="m6330 7467c-194-20-287 35-459 31-289-6-457-211-591-459-28-52-165-317-152-368-1 104 83 314 128 405 124 250 344 459 624 464 170 3 318-75 450-73z"/><path d="m6811 20577c56 3 230 58 307 76l495 97c33 5 51 5 69 8 153 21 279 41 442 36l-1-59c-25-16-53-11-91-10-127 2-292-5-422-22-54-7-110-12-162-19l-636-105z"/><path d="m8242 7176c305 18 203-21 391-26 340-9 499 262 638 541 45 89 34 58 69 166 1-35-6-63-18-93-13-34-19-52-32-94-84-278-335-556-637-559-155-2-264 55-411 65z"/><path d="m7936 14908c84-320-135-665 321-1024 19-15 39-26 54-38 27-20 22-12 24-63-148 105-272 173-367 400-107 255-32 457-33 724z"/><path d="m7131 5808c-80-132-329-208-417-431-109-274-18-503 35-763-54 71-93 235-108 349-19 140-9 291 38 409 70 175 178 265 323 348 55 31 93 47 130 87z"/><path d="m6462 16397c162 101 291 196 355 407 40 132 72 464 282 469-64-10-148-127-175-197-33-88-45-215-79-312-57-162-198-352-384-366z"/><path d="m8152 20015c15-43 13-40-21-79-1-2-4-4-5-5-3-4-14-18-18-24-23-32-39-59-59-98-139-268-111-581-99-872-58 155-60 455-25 629 34 167 92 297 198 410 18 19 27 26 28 39z"/><path d="m7198 7544c27-468-474-553-577-687l-71-120c17 305 372 226 542 543 47 87 83 152 106 263z"/><path d="m9721 8341l-4-29c-10-17-3-16-24-6-30 15-10-15-18 33-5-19 14-35-41-18-84 26-244 111-325 155-68 38-70 24-78 129l389-211c37-17 36-7 46-48 0 0-5 43 55-6z"/><path d="m7475 13857c-163 290 180 445 173 826-2 102-14 219-54 296 111-147 123-394 37-581-99-217-222-308-156-541z"/><path d="m5495 16210c100-123 175-305 121-539-23-100-54-170-86-262-67-192 29-263 5-297-44 89-77 141-47 280 46 208 196 395 31 759l-31 54 7 6z"/><path d="m4776 9204l8 14c9 0 180-208 132-502-38-235-135-282-69-550l-35 46c-7 17-15 45-18 67-8 54-5 103 6 156 18 83 50 163 70 246 40 170-18 443-94 523z"/><path d="m10007 4724l2 14c35 46 32 8 70 39 146 118 80 64 221 198 17 17 29 31 46 47l57 42 14-84c-92-62-236-239-327-246-32-2 13 21-17-7-7-6 5-15-55-30 2 48 2 15-11 27z"/><path d="m7100 7636c-292-216-549 18-580-855-65 186 21 495 102 613 137 200 358 182 478 243z"/><path d="m8036 7898c28-312-341-248-502-540-29-52-99-190-98-259-19 192 99 370 238 461 90 59 370 149 362 338z"/><path d="m5349 16170c-34-207-370-402 51-935l52-61c1-1 4-4 6-5 21-19 8-1 6-16 0-4-5-3-8-5l-39 43c-2 1-4 4-5 5-2 1-4 4-5 5l-44 38c-31 32-51 66-78 109-47 72-91 154-111 267-37 206 59 420 175 556z"/><path d="m2558 10889c209 15 427-97 527-202 171-179 132-409 145-607-9 51-28 87-32 160-3 65-2 116-13 180-22 122-66 186-128 249-67 69-122 102-223 144-76 31-194 75-277 77z"/><path d="m7452 14945c-28-82-112-155-160-230-173-265-8-625 143-836-103 93-233 323-244 534-11 225 135 450 261 531z"/><path d="m7033 17285c-752-144-583-497-675-790 7 271 12 452 159 595 114 111 301 209 516 195z"/><path d="m4635 9185c-32-191-196-293-129-566 45-185 148-278 248-407l24-32c-107 56-260 275-298 432-59 250 70 427 154 572z"/><path d="m8064 7809c62-179-5-582-269-704-65-30-177-53-254-73 235 169 505-4 524 776z"/><path d="m6637 8912c-2-818 266-639 521-831-93 66-299 32-437 242-108 164-130 369-84 589z"/><path d="m5127 16738c33 27 85 39 127 49 135 33 288 29 408-39 75-43 124-98 165-165 21-34 40-70 57-110l49-107c1-8 14 2-3-15l-119 205c-40 76-78 122-155 164-180 100-340 48-529 18z"/><path d="m7506 6588c197-38 280-81 379-214 82-111 121-361 71-518-2 266-5 524-244 641-38 19-62 25-103 38-41 13-65 21-97 47-1 1-4 4-6 5z"/><path d="m9226 5043c14 39 38 200 43 248 6 58 50 206 22 255l-40-309c-4-31-6-69-26-94-7 46 6 69 13 118 3 19 3 35 5 54l13 67-30-4 39 22-14 34-6 1 6-1c15 21 13 13 18 56-40 40-68 39-143 35 36 16 30 8 71 13-16-3-14-8-12 9-15-3-12-7-10 10-15-2-12-5-10 10-15-1-11-4-8 13l-6 15-8 17c17 0 12 4 8-17l6-15c14 1 10 4 8-13 14 1 11 5 10-10 15 2 12 6 10-10 16 3 13 7 12-9 38-11 17-15 65-22l22 39 32-5c-4 17-7 13 9 12v35c22 0 10 3 7-18 0-2-2-7-2-8 0-2-3-6-5-8 3-22 9-22-9-12 6-89-46-256-35-319-1-35-10-42 14-46l8 14c-4 20-9 16 8 16l-8-16c4-20 9-17-8-14-6-2 17-26-18-2-12 8-7 12-8 15l-25-166 46-2c-10-10 2-17-33-10-33 7 9-6-14 6-18 10-7 5-18 16zm55 206l11 22c1-26 8-22-11-22zm-62-200c-36 16-13 3-24 24 22 22 2-3 20 48 7 20 5 16 10 21l-6-94z"/><path d="m9201 10372c-3-37-5-18 8-25l14-78-291 224c-2 1-4 4-6 6 63-9 156-53 209-92 19-13-1-4 31-20 13-6 22-10 35-15z"/><path d="m1227 9602c-19-44-218-155-302-223-30-25-70-58-103-75 0 42-10 16 81 88l291 212c63 28 11 11 33-1z"/><path d="m10332 5572c-6 21-3 27-15 55-5 11-18 24-30 42-21 30-31 58-59 73 49-11 132-94 132-200-68 24-212 97-255 177l80-52c73-59 95-53 139-89 2-1 6-3 7-6z"/><path d="m3999 3748c46-66 19-143-51-87-51 40-49 115 51 87z"/><path d="m8019 18981c-5-14-7-25-13-39-1-3-6-14-7-17l-10-17c1 107 61 252 123 287 4-113-34-65-93-215z"/><path d="m7973 13155c2 1 6 3 7 3 2 1 5 2 7 4 54 36 14 3 27 29l-48 17 6-53zm-41 164h13c15-45 6-73 32-99 53 15-1-11 36 49l8-59h80c-29-19-70-4-98-7 15-10 8-3 23-22 8-11 9-13 18-30l-120-2c1-1 4-14 9-18-42 25 1-15-22 7 22 37-3 2 17 19l27 19-22 143zm48 9l66 20c-6-4-9-9-22-13-16-5-9-2-28-5l11-67c-11 6-14 2-21 26-4 12-4 26-5 38z"/><path d="m9926 8455l-2 38c34-10 25-14 53-51 58-75 108-87 175-143-97 14-162 84-220 124l-6 32z"/><path d="m1389 15686l437 278c-1-49 4-34-38-55l-399-223z"/><path d="m9559 6521c-34-51-54-50-89-93-34-42-71-65-126-87 12 81-5 30 52 62 23 13 25 26 51 42 29 18 30 10 58 32 26 20 29 27 54 43z"/><path d="m9171 8649c31-10 39-4 54-41 9-23 12-52 14-78-59 17-59 45-68 118z"/><path d="m1925 11138c34-27 68-71 85-124l-32-15c-15 32-56 92-53 139z"/><path d="m8026 12818c53-14 92 16 94-56-16-11 20-13-27-12-19 0-39 25-50 42l-16 27z"/><path d="m9084 10619c-62-55-9-22-75-54-1 21 88 110 108 117 13-63 8-26-33-63z"/><path d="m9398 6524l16 8c12 3 16 4 28 6 53 7 59 3 118 26-28-26-121-86-158-48-1 2-2 6-4 9z"/><path d="m1953 10873c-4-3 0-10-42-17-23-4-43-3-66-2 10 23 13 25 52 39 48 17 48 23 56-20z"/><path d="m2004 10806c9-8 41-6-3-81-21-37-3-14-33-31 4 55 6 86 36 112z"/><path d="m2174 10718c-33 12-24 1-47 32-11 15-29 36-17 51 32 37 59-54 64-83z"/><path d="m2167 10916c0 0 13 47 92 0-6-6-7-17-41-22-73-11-42 10-52 22z"/><path d="m8170 20791l2-66-45-4 4 75z"/><path d="m2165 11104c-3-41-23-78-44-98-34 18-28 21-4 53 15 19 33 39 49 45z"/><path d="m10073 4500c58-15 60-8 66-69-63 15-53 6-66 69z"/><path d="m8118 19149c-2 63-6 60 29 86 4-65 10-66-29-86z"/><path d="m1275 9635c-7-20 2-9-15-26-2-2-19-12-23-15 0 0-26 44 17 50 25 3 9-1 22-8z"/><path d="m1857 15992c0 0 45-19-12-53-1 1-45-4 12 53z"/><path d="m7967 13209l48-17c-13-25 27 7-27-29-2-1-6-3-7-4-2-1-5-2-7-3l-6 53z"/><path d="m749 9263c19 0 13-4 7 20 35 12 31 29 56 18-13-25-36-41-63-48l1 10z"/><path d="m7035 15520l57-31c-40-19-44-7-57 31z"/><path d="m9374 6537c20-26 15 35 10-16-2-28 1-9-10-27-20 34-9 33 0 43z"/></g><g stroke-width="100"><g fill="none"><path d="m2404 21746c-426 561-647 531-1029 563 892 922 2156 1029 2639 226 55-147 88-287 100-418 20-211-10-398-78-554-273-631-1145-742-1633 183z"/><path d="m4014 22534c-603 633-1683 509-2629-224 500 1 809-198 994-585 276-701 745-926 1269-591 425 394 472 791 365 1400z"/><path stroke-linejoin="round" stroke-linecap="round" d="m2363 23304l170-290"/><path d="m2085 23226l233-283"/></g><path d="m5747 20337c556-5 380-707-100-463 399-435 199-903-146-506-192-604-1071-338-418 340-708-172-619 743 183 693 38 633 484 612 482-63z" fill="#fff"/><path d="m5265 20400c-224 764-1516 2108-1547 2051" fill="none"/><path d="m5429 19943c43 11 70 65 59 119-11 55-55 90-99 79-43-11-70-65-59-119 11-55 55-90 99-79z" fill="#fff"/><g fill="#201e1e"><path d="m5485 20561c17 5 30 17 28 28-2 11-18 16-36 12-17-5-30-17-28-28 2-11 18-16 36-12z"/><path d="m5818 20032c9 2 12 22 8 44-4 22-15 38-24 36-9-2-12-22-8-44 4-22 15-38 24-36z"/><path d="m5152 19257c17 5 30 17 28 28-2 11-18 16-36 12-18-5-30-17-28-28 2-11 18-16 36-12z"/><path d="m5572 19529c17 5 30 17 28 28-2 11-18 16-36 12-18-5-30-17-28-28 2-11 18-16 36-12z"/></g><g fill="none"><path d="m5162 19297c135 204 201 459 247 744"/><path d="m5568 19549l-159 493 401 30-401-30c-59 200-36 380 72 540-115-149-139-334-66-557-198 78-381 82-547 1"/></g><g fill="#fff"><path d="m4867 22381c79-223 163-386 286-548l-525-26 239 574z"/><path d="m4116 22193c15-240 0-428-48-634l483 234-435 401z"/></g><path d="m5554 22025c-38-10-77 19-86 65-9 46 14 91 53 101 38 10 77-19 86-65 9-46-14-91-53-101z" fill="#201e1e"/><g fill="none"><path d="m6570 22839c169 714 379 795 712 1012-1157 394-2338-130-2465-1091 6-160 31-301 70-425 62-200 162-354 282-461 488-435 1316-107 1402 966z"/><path d="m4824 22808c167 1031 1322 1284 2455 1088-452-244-653-576-672-1015 20-768-317-1200-918-1155-534 147-740 540-865 1082z"/><path stroke-linejoin="round" stroke-linecap="round" d="m6203 23979l26 340"/><path d="m6467 24375l-76-363"/><path d="m7184 23788c186 135 331 103 435 32 114-102 29-225-81-167-111 80-101 179-3 275 159 111 279 29 334-49"/><path d="m5650 21687c-50-149 96-314 312-358"/><path d="m5662 21677c-27-124 103-241 280-253"/><path d="m5662 21677c10-102 137-149 273-101"/></g><g fill="#201e1e"><path d="m3631 21511c38 10 62 55 53 101-9 46-48 75-86 65-38-10-62-55-53-101 9-46 48-75 86-65z"/><path d="m4856 19961c13 3 18 32 11 64-6 32-22 56-35 52-13-3-18-32-11-64 6-32 22-56 35-52z"/></g></g><g fill="#201e1e" font-family="&apos;Allegro&apos;" stroke-linejoin="round" stroke-linecap="round" stroke-width="50" font-size="2040.39"><text x="10500" y="14850" transform="matrix(1.17154 0 0 1.27824-10661.9 6595.47)">T1</text><text x="10500" y="14850" transform="matrix(1.17154 0 0 1.27824-8952.95 8484.88)">T2</text></g></g><g fill="#201e1e" font-family="&apos;Arial Black&apos;" font-weight="900" font-size="529.13"><text x="10500" y="14850" transform="matrix(1.17154 0 0 1.27824-9143.73-1443.97)">NN 1</text><text x="10500" y="14850" transform="matrix(1.17154 0 0 1.27824-9143.73-835.19)">NN 2</text></g></g></g><g fill="#201e1e" font-family="&apos;Arial&apos;" font-size="423.33"><text x="787" y="28727">DESC 1</text><text x="796" y="29136">DESC 2</text><text x="798" y="29533">DESC 3</text></g></svg>