<svg xmlns="http://www.w3.org/2000/svg" width="744.09" height="1052.36" viewBox="0 0 21000 29700" shape-rendering="geometricPrecision" image-rendering="optimizeQuality" fill-rule="evenodd" text-rendering="geometricPrecision" clip-rule="evenodd"><text x="10081" y="24465" fill="#201e1e" font-family="&apos;Arial Black&apos;" stroke="#201e1e" font-weight="900" stroke-width="7.62" font-size="705.56">34</text><g fill="none" stroke-width="80"><g stroke="#322f30"><circle cx="10533" cy="1326" r="460"/><path d="m10533 515v1621"/><path d="m9723 1326h1621"/></g><g stroke="#373435"><circle cx="10533" cy="25836" r="460"/><path d="m10533 25026v1621"/><path d="m9723 25836h1621"/></g></g><g fill="#fff"><rect x="9843" y="22866" width="1347" height="637" rx="318" stroke="#fff" stroke-width="20"/><path d="m6248 23774c-1152 561-3343 453-4008-585-663-1034-513-3969-575-5407-157-3603-555-6335-658-9240-114-3226 2080-5360 4703-5960 3700-847 3481 4118 2967 6670-270 1371-803 2564-1142 3905-627 2472-59 6246-277 8819-112 889-408 1479-1009 1800z"/></g><g fill="#201e1e"><g stroke="#201e1e"><g stroke-linejoin="round" stroke-linecap="round" stroke-width="17.64"><path d="m2786 18101c6 20 47 13 66 6 19-7 11-24 21-32 9-8 34-15 34-15 5-17 0-21-34-21-34 0-91-39-91-39-47-13-7 43-2 49 5 6 0 34 6 54z"/><path d="m2316 18214c75-22 116-59 207-78 91-20 160-20 169-6 9 14 25 36 19 53 0 0 53-112 9-179-44-67-82-42-82-42 0 0-163 17-204 53-41 36-60-34-56-42 0 0-66 3-66 115 0 112-91 14-107 3-16-11 3-22 0-62-3-39-75-76-141-39-66 36-69 106-6 165 63 59 182 81 257 59z"/><path d="m1673 18004c20-25 31-52 32-67 4-34 8-79-37-76 2 46 3 94 5 142z"/><path d="m3871 16519c-9-283-204-325-298-330-94-6-207 20-194 118 13 98 172 188 188 90 16-98-60-90-60-90 0 0-25 0-25-28 0-28 66-64 138-48 72 17 6 78 16 129 9 50 125 67 113 193-11 114-114 152-134 158 1-1 2-3 3-4 53-92-31-171-31-171 3 176-254 232-351 224-68-6-145-56-185-85 26 4 72 6 154 1 220-14 78-277 78-277 28 81-56 140-125 143-69 3-116 6-267-98-151-104-311-303-311-303 0 0 254 39 379 36 125-3 88-123 78-179-9-56-53-106-163-81-110 25-100 81-370 73-270-8-386-106-433-154-44-45-208-75-227-78 9 1 59 3 302-31 282-39 332-3 332-3-28 70 22 90 82 73 60-17 75-56 53-123-22-67-304-22-304-22 0 0 417-140 477-294 60-154 47-238 44-227-3 11-38 95-47 73-9-22-13-59 13-90 25-31 22-157 22-157 0 14-53 34-53 34 0 0-31 70 0-6 31-76 3-188 3-188 0 56-72 56-72 56-191-132-288-17-288-17 188 25 151 182 151 182 0 0-188-64-129-28 1 1 2 1 2 2 56 37 32 102 7 130-25 28-60 93-56 145 4 53 70 95 96 148 26 53-33 95-118 161-74 58-287 87-338 94 39-6 167-40 158-219-11-210-180-210-254-190-74 20-74 99-74 99 107-33 158-16 154 95-4 112-85 174-173 210-85 35-126 27-290 26l7 100c76 2 159 14 244 45 289 106 282 342 314 487 31 146-97 179-97 179 207 36 169-232 198-210 1 1 1 1 2 2 28 34 58 290-59 320-119 31-185-31-185-31-6 104 72 151 223 157 151 6 141-238 141-238 88 182-75 386-204 412-129 25-245-126-245-126-147 123 88 230 88 230-166-3-213-28-307-84-18-11-32-25-43-41 2 40 4 81 7 121 66 42 170 76 334 88 414 31 373-400 411-263 1 2 1 5 2 7 28 136-202 315-202 315l7 1c-75 70-138 132-170 161-31 18-63 33-78 28-34-11-42-83-98-106-55-23-81-34-149-38-19-1-35-5-47-10 2 44 5 89 7 133 87 18 134 88 134 88-53 5-95 4-129 0 3 52 5 105 8 157 20-14 39-28 45-36 0 0 140-19 170-23 0 0 7-90 34-102 9-4 85-23 119-45 0 0-59 102-64 182-4 80-21 250 55 311l55 19c0 0-104-121-17-334l9-38c39-89 103-166 217-282 22-23 41-44 55-63 32-25 131-127 131-444 0-378-245-686-245-686 339 148 257 168 467 361 210 193 116 549 94 591-22 42-176 20-176 20 0 0 38 104 220 50 182-53 94-361 94-361 178 71 170 409 169 423-17 83-61 189-183 230 0 0 193-22 214-132 0 0 86 139-16 231l-28 25c0 0-82-53-144-8-61 44-35 122-26 145 9 23 61 29 61 29 0 0-56 120 5 183 61 63 160 13 160 13 0 0 59-42 56-99 0 0 14 23 96 23 82 0 113-34 132-67 19-34-5-128-56-143-52-15-158-36-167 19l-7 19-61 2v-42l64-32c0 0 49-34 42-160 0 0 71 74 169 61 99-13 221-44 214-141-7-97-56-151-111-149-54 2-113 55-113 92 0 38 24 59 59 61 35 2 47-46 47-53 0-6-19-23-19-23 0 0 56-34 64 4 7 38 45 90-26 126-71 36-143 46-205-19-51-54-75-86-95-174h1c-2-78-32-217-48-288-3-15-6-28-9-37-1-6-2-9-2-9 270 92 721-6 712-288zm-2262 168c4-10 9-20 14-28 41-64 163-53 163-53 0 0 3 36-6 36-9 0-47 17-47 50 0 34 44 67 88 76 44 8 56-59 56-59 0 0 53-154-144-151-55 1-97 15-129 36l5 93zm1010-1544c60-52 38-131 38-131 0 0 60 96 53 210-7 115-98 201-98 201 98-141 42-235 42-235 0 0 2 31-49 68-51 37-67 117-67 117-91-133 22-178 82-230zm-529 2208v-10h8l-8 10zm1164 258v-5c112-23 67 11 82 49 15 39-18 23-45 27-27 4-34-8-43-13-9-5-1-11-4-29-3-19 9-20 10-28zm-284-35c-10-9-9-17-6-39 3-21 25-24 25-24 83-4 55 7 63 25 7 19-22 39-33 47-10 8-39 0-49-9zm168 109c18 16 6 39-10 73-16 35-64 35-83 35-19 0-25-21-33-68-7-47 43-55 48-56 0 0 61 0 79 16z"/><path d="m4659 4630c-10 6-16 10-16 10 6-3 11-7 16-10z"/><path d="m2999 3914c20 99 123 169 201 169 97 0 107-28 110-101 3-73-31-81-56-84-25-3-41 22-41 39 0 17 16 53-25 48-41-6-34-17-63-56-28-39 13-137 53-140 41-3 50 17 50 17l66-3c0 0-16-50-31-64-6-5-11-12-14-24-85 64-168 131-249 199z"/><path d="m2480 4410c108 26 260 9 265-56 6-78-91-90-119-78-7 3-16 5-25 7-41 42-82 84-122 128z"/><path d="m2764 4250c60 48 110 92 194 92 85 0 157-39 157-81 0-42-19-134-97-134-78 0-94 50-94 50l-9 28c0 0-116 6-78-132 2-9 4-16 6-23-40 36-79 73-119 111 2 35 13 68 40 89z"/><path d="m3484 4263c161 72 36 260 0 260-19 0-24-4-26-14 21-5 37-20 37-38 0-22-24-40-54-40-18 0-34 7-44 17-8 7-14 17-15 28-4 43-32 159 81 144 113-14 238-123 133-339 0 0 133 36 291 36 157 0 372-68 525-213 153-144 323-306 493-285 0 0-36-94-186-94-149 0-161 108-161 108 0 0 4-94 4-180 0-87-157-353-513-353-355 0-323 206-323 296 0 90 36 162 125 162 89 0 85-76 85-76 0 0 24-76-117-76l-24 32c0 0-40-72-4-87 0 0 202-14 246-137 0 0 101-50 194 4l20 18c0 0-149-7-153 94 0 0 238-36 283 54 44 90 105 224 36 389 0 0-28-288-178-285-149 4-206-54-198-76 0 0-89 76-61 155 28 79 190 14 214 29 24 14 77 40 77 40 0 0-250-29-275 50-24 79 0 151 61 148 2 0 3 0 5-1 5 1 11 2 17 2 38 0 69-27 69-60 0-33-31-60-69-60-8 0-16 1-24 4 9-20 45-49 176-52 206-4 36 209-81 274-117 65-283 137-509 79 0 0 275-130 202-303 0 0-125 256-489 159 0 0-32 112 129 184z"/><path d="m4395 11878c-10 6-16 10-16 10 6-3 11-7 16-10z"/><path d="m2669 10630c6 20 47 13 66 6 19-7 11-24 21-32 9-8 34-15 34-15 5-17 0-21-34-21-34 0-91-39-91-39-47-13-7 43-2 49 5 6 0 34 6 54z"/><path d="m2200 10743c75-22 116-59 207-78 91-20 160-20 169-6 9 14 25 36 19 53 0 0 53-112 9-179-44-67-82-42-82-42 0 0-163 17-204 53-41 36-60-34-56-42 0 0-66 3-66 115 0 112-91 14-107 3-16-11 3-22 0-62-3-39-75-76-141-39-66 36-69 106-6 165 63 59 182 81 257 59z"/><path d="m2394 10822c-28 92 38 213 38 213l19 98c0 0 31-14 34-39 3-25 63-78 85-78 22 0 119-3 135-17 16-14 41-101 41-101 13 6 31 45-6 185-38 140 100 249 198 249 97 0 107-28 110-101 3-73-31-81-56-84-25-3-41 22-41 39 0 17 16 53-25 48-41-6-34-17-63-56-28-39 13-137 53-140 41-3 50 17 50 17l66-3c0 0-16-50-31-64-16-14-22-36-19-132 3-95-163-182-163-182l-47 42-38-11c0 0-22 17-22 42 0 25 0 98-25 126-25 28-135 14-135 14 0 0 6-101 47-112 41-11 50-36 50-36l19-62c0 0-13 31-60 48-47 17-185 6-213 98z"/><path d="m2338 11144c0 0 22-45 31-67 9-22 13-64 0-78 0 0-13 22-19 34-6 11-22 92-13 112z"/><path d="m2244 10984l6-34c0 0-66 31-75 64-9 34 72 76 72 76 0 0 9-31 6-42-3-11-28-28-38-36-9-8 28-28 28-28z"/><path d="m2300 10950l-19 39c0 0 9 17 28 14 19-3 41-31 41-31 0 0-19-28-50-22z"/><path d="m2096 11160c-16 20-16 25-34 31-19 6 34 17 56 8 22-8 31-53 31-53 0 0-38-6-53 14z"/><path d="m2209 11127c-9 17-25 34-13 42 13 8 56 11 60 3 3-8 16-45 0-45-16 0-47 0-47 0z"/><path d="m1920 11256c-151 28-179-143-179-143-85 160 69 241 163 244 94 3 157-109 179-112 0 0-13-17-163 11z"/><path d="m1927 11088c104-3 210-112 235-146 25-34 22-118 22-118-34 92-125 106-144 118 0 0-100 14-141-6-41-20-6-70 6-95 13-25 28-84 28-84-13 0-248-3-245 148 3 151 135 185 238 182z"/><path d="m2494 11157c1-1 2-1 3-2 0 0-1 1-3 2z"/><path d="m1971 11468c0 0 6-7 17-18l-14 10-3 8z"/><path d="m1987 11450l112-80c0 0 144-112 204-143 60-31 75-17 113-31 32-12 68-34 78-40-20 9-93 10-125 15-35 6-132 59-182 87-40 23-156 145-200 192z"/><path d="m2336 11341c7-1 11-1 11-1-3 0-7 1-11 1z"/><path d="m2336 11341c-32 4-128 21-193 72-78 62-85 171 13 224 97 53 320 45 326-34 6-78-91-90-119-78-28 11-72 14-122-11-50-25-28-84-22-109 6-23 82-57 118-63z"/><path d="m2607 11093c0 0 13-34-22-39-35-6-63 48-31 53l53-14z"/><path d="m2259 10880c-3 14 19 25 31 28 13 3 25-8 38-28 13-20-19-48-19-48-41 3-47 34-50 48z"/><path d="m2501 11499c60 48 110 92 194 92 85 0 157-39 157-81 0-42-19-134-97-134-78 0-94 50-94 50l-9 28c0 0-116 6-78-132 38-137 0-62 78-193 0 0-132 95-163 157-31 62-47 165 13 213z"/><path d="m3220 11512c161 72 36 260 0 260-19 0-24-4-26-14 22-5 37-20 37-38 0-22-24-40-54-40-18 0-34 7-44 17-8 7-14 17-15 28-4 43-32 159 81 144 113-14 238-123 133-339 0 0 133 36 291 36 157 0 371-69 525-213 153-144 323-306 493-285 0 0-36-94-186-94-149 0-161 108-161 108 0 0 4-94 4-180 0-87-157-353-513-353-355 0-323 206-323 296 0 90 36 162 125 162 89 0 85-76 85-76 0 0 24-76-117-76l-24 32c0 0-40-72-4-87 0 0 202-14 246-137 0 0 101-50 194 4l20 18c0 0-149-7-153 94 0 0 238-36 283 54 44 90 105 224 36 389 0 0-28-288-178-285-149 4-206-54-198-76 0 0-89 76-61 155 28 79 190 14 214 29 24 14 77 40 77 40 0 0-250-29-275 50-24 79 0 151 61 148 2 0 3 0 5-1 5 1 11 2 17 2 38 0 69-27 69-60 0-33-31-60-69-60-8 0-16 2-24 4 9-20 45-49 176-52 206-4 36 209-81 274-117 65-283 137-509 79 0 0 275-130 202-303 0 0-125 256-489 159 0 0-32 112 129 184z"/><path d="m4759 5872c0 0 118 8 151-44 33-53-59-128-242-134 0 0 108 44 120 74 12 29 24 71-28 105z"/><path d="m5363 5089c-40 2-104 82-153 101-49 19-172 8-172 8 0 0 188-95 165-183-24-88-68-88-85-97-16-8-106-27-106-27 0 0-12 32-9 57 2 25 75 84 64 122-12 38-49 59-87 90-38 32-104 63-139 63-35 0-104-27-71-67 0 0-45 44-155 32-111-13-122-10-122-10l-122 101c0 0-5 55 73 63 78 8 148-15 223-11 75 4 122 44 122 44 0 0-104-145-146-149-42-4 7-4 7-4 0 0 99 11 127 29 28 19 71 76 136 120 66 44 202 120 202 120 0 0-198-99-294-82-96 17-143 101-120 124 0 0-82-63-47-109 0 0-37 57-193 36-155-21-186-61-186-61 0 0 21 69 143 128 122 59 151 90 263 116 113 25 193 2 273 2 80 0 151 53 160 86l2 23c0 0-14-32-75-25-61 6-45 84 2 103 47 19 146 23 165-19 19-42 2-181-332-218 0 0-139 4-120-109 0 0 19-23 75-23 56 0 179 67 247 107 68 40 167 113 179 166 0 0 26-103-31-181 0 0 49 23 87 13 0 0-35-244-195-248-160-4-172 15-200 8-28-6-49-38-28-59 21-21 162-25 230 6 68 32 87 61 179 53 92-8 120-17 160 19 40 36 45 61 45 61 0 0 99-124 31-218-68-95-134-101-174-99z"/><path d="m5201 4731c-41 4-49 15-49 28 0 13 20 49 45 55 25 6 72-4 80-22 8-18 5-60 5-60h-82z"/><path d="m5235 4967c3 10 25 42 42 36 17-6 36-27 36-36 0-10-6-56-20-53-14 3-36 15-36 15-25 14-25 28-22 38z"/><path d="m5076 4724c-9-25 6-64-56-81-63-17-358-53-561 249 0 0 179-216 423-185 0 0-9 98 60 95 69-3 144-53 135-78z"/><path d="m5364 4967c44 87 201 106 213 148 13 42 78 73 35 218 0 0 94-210 22-372-72-162-88-151-88-151 0 0-141-22-176-3 0 0-50 73-6 160z"/><path d="m4975 4374c-77 7-154-44-191-53 38-19 98-71-46-93 0 0-106-4-69 100 38 104 165 55 252 80 0 0-107-28-182 109 0 0-14 66-81 113 40-26 150-92 223-107 0 0 35 31 22 59-13 28-3 8-3 8 0 0 107-28 163-31 56-3 110 98 97 129 0 0 198-31 201-182 3-151-176-258-285-258-110 0-119 53-119 53 0 0 116-8 141 53 25 62 34 78 16 132 0 0-41-120-138-112z"/><path d="m4801 4870c26 4 40-11 45-17 5-6 26-67-2-61 0 0-46 4-60 17-14 13-3 48-3 48 0 0-5 8 21 13z"/><path d="m5101 4869c11 10 52 45 63 45 11 0 41-13 38-32-3-20-27-31-38-34-11-3-36-10-36-10-19 1-38 21-27 31z"/><path d="m4686 4834c9 8 24 32 38 23 14-8 35-55 35-55 0 0-31-23-38-25-4-1-19 7-29 14-6 4-11 7-11 7l7-2c0 6-12 29-2 38z"/><path d="m4923 5049c14-1 50-14 45-32-5-18-30-29-38-32-8-3-24 0-24 0-5 10-15 25-14 36 1 11 16 29 30 28z"/><path d="m4629 4845c-7 6-31 27-21 29 9 2 33 2 33 2 0 0 19-15 16-23-2-8-21-15-28-8z"/><path d="m4938 4945c6-8 25-45 24-49-2-4-25-43-39-45-48-5-53 48-49 60 5 13 58 42 64 34z"/><path d="m4444 5647c0 0-33-44-52-69-19-25-75-95-104-74-28 21-45 120-47 109-2-11-2-153-2-153 0 0-12-55-12-82 0-27 16-53-28-107-45-55-235-59-235-59 144-27 212 11 212 11 0 0 64 2 127 128 64 126 322 50 322 50 0 0-139 4-198-2-59-6-101-80-101-80l-19-53c0 0 130-65 160-113 31-48 108-86 108-86-42 25-61 90-61 90 0 0 82 8 143 4 61-4 120-88 141-130 21-42 42-99 42-99 0 0-24-32-120-34-96-2-198 61-221 95-23 34-63 141-85 166-21 25-108 76-108 76l-37-6c0 0 52-42 78-63 26-21 68-74 73-111 5-38 2-103 2-103-40-2-122 29-167 80-45 50 2 126 2 126l-19 54c0 0-45-54-59-67-13-13-12-85 10-117 22-31 77-73 84-126 7-52 59-45 77-162 16-99 80-177 99-198-35 46-16 220-6 214 10-6 117-126 131-194 13-69 80-157 80-157 0 0-40 36-167-21-127-57-293-16-293-16-8 5-97 21-97 21 184 75 169 193 169 193l-15 21-42-9c0-36-15-66-55-109-40-43-124-34-124-34 0 0 8 55 44 79 35 24 32 138 28 310-1 71 6 135 14 187 4-84 31-254 172-290 0 0-167 130-145 394l-8-17c5 20 9 32 9 32-77-48-104-75-149-117-45-42-54-129-54-129 60 15 92 96 92 96h23c15-36-5-106-57-181-52-75-174-118-174-118 27 93 117 124 117 124 0 0-10 24-124-30-114-54-226 36-226 36 23 40 60 87 142 96 82 9 117 39 117 39-79 3-122 63-122 63 157-24 236 34 236 34 0 0 26 32-160 88-186 57-202 185-202 185 158-67 186 74 325 86 139 13 223-53 223-53l14 44-9 23c-94 128-12 338-45 363-33 25-92 36-92 36 167 82 315-25 336-103 21-78 87-82 87-82z"/><path d="m4599 5920c28-101 113-92 42-200-63-95-192-126-225-151 17 20 58 68 68 73 12 6 89 55 89 120 0 0-59-92-118-88 0 0-56 19-64 63-7 44 7 123 28 162 21 39 52 105 0 151 0 0 151-29 179-130z"/><path d="m3514 7484c-85 46-256 25-256-87 0-112-81-123-116-123-36 0-81 97-140 102 0 0 128 13 156 157 28 144 81 104 232 108 0 0 17 121 92 108 76-13 220-99 237-216 17-116 9-239 154-233 0 0 0-112-144-102-144 11-130 239-215 286z"/><path d="m2302 5964c1 17 3 34 6 52 52 321 199 488 512 496 312 8 395-217 395-298 0-81-65-147-143-147-78 0-152 43-152 101 0 58 43 116 160 97 0 0-35 116-191 132-156 15-251-58-251-58 0 0 78-97 199-74 0 0-182-62-256 15l-22 23c0 0-169-39-173-290 0-12 0-24 1-36-33-14-61-16-85-12z"/><path d="m3166 5320c-152-108-227-260-142-300 85-40 33-114 14-118-19-4-116-13-116 66 0 0-140-159-50-264 0 0-180 91-168 216 12 125 81 258 175 319 0 0-111-13-206-150-95-137-137-146-156-387 0 0-19-104 57-116 76-13 73 59 118 42 45-17 73-108-9-121-83-13-187 15-197 89-9 74-14 203 7 252 0 0-157-44-218 30-61 74-108 142-37 195 71 53 107 13 104-13-2-26-51-46-67-26 0 0-54-6-16-61 38-55 114-121 204-76 90 44 71 71 111 137 40 66 182 273 325 286 142 13 173 47 173 47 0 0-265-42-442 74-147 96-306 209-327 427 40 15 68 43 88 69 25-207 167-340 403-430 0 0-108 244 173 286 0 0-90-357 324-308 0 0-194 99-172 258 0 0 221-27 295-74 0 0-61 74-22 159 0 0 74-101 221-89 147 12 286 89 251 434 0 0-39-310-191-341-152-31-182 8-182 8 0 0 17 74 117 139 100 66 113 101 117 178 4 77-108 228-39 348 0 0-212 228-238 321-26 93-30 139-30 139l-30-228c0 0-30-128-117-132-87-4-121 74-121 108 0 35 82 85 160 54l39 151c0 0 26 31 26 116 0 85-43 201-43 244 0 43-22 124 39 136 61 12 100 15 126 4 26-12 37-98 21-204 0 0 36-283 199-398 163-114 260-91 268-40 7 51 57 123-33 288 0 0 289-140 180-357 0 0 170 40 192 97 21 56 70 148-104 231-2 1-5 2-7 4 0 0 218 57 253-102 0 0 31 125-17 154-47 30-97 40-97 80 0 40-59 192-284 144 0 0 126 125 296 55 170-70 225-150 225-315 0-165-52-410-455-446 0 0 497-8 597 192 0 0 21 68-73 114 0 0 40 21 71-4 0 0-62 70-62 146 0 76-7 169-38 201 0 0 126-99 137-161 12-61 83-95 90-102 0 0 2 95-26 150-28 55-50 25-71 89-21 63-54 163-111 207-57 44-63 80-201 97 0 0 291-8 336-61 45-53 92-68 111-133 18-63 6 108-22 155 24-37 166-254 134-341 0 0 34 5 45 15 1 1 2 3 3 4 5 13 21-51 28-51 0 0 47 2 59 34 0 0 19-85-107-85-126 0 14-252-317-379l-19-30c0 0 123-95 137-247 0 0-114 157-244 169-130 13-189-42-189-42 0 0 332-97 355-241 24-144-47-195-107-199-59-4-166 53-152 104 14 51 38 70 62 70 24 0 111-55 50-95 0 0 57-17 66 11 10 27 71 209-275 298-346 89-398 2-573 127-175 125-185 133-185 133 0 0 81-142 168-243 88-102 64-271 348-292 0 0-69-91-189-36 0 0-36-121-14-224 21-104-52-209-33-273 19-63 52-188 154-235 0 0-199 25-244 184v42c0 0-135-133-225-169-90-36-171-209-156-273 14-63 50-51 76-61 26-11 83-74-9-112-92-38-171-27-178 66-7 93 83 275 133 345 0 0-154-44-305-152zm895 1388c0 0 81 111 0 202 0 0 32-72-48-187l48-14z"/><path d="m4200 6476c0 0 98-16 139-63 41-48 59-121-7-190 0 0-5 33-71 37 0 0 108 138-60 217z"/><path d="m3877 6903c-87-16-132 13-187 51-55 38-53 103-53 103 57-106 146-86 146-86-25 41 32 65 78 56 46-10 103-108 16-124z"/><path d="m3970 4667c0 0 75 29 88 105 0 0 20-236-91-236-111 0-94 61-94 76 0 15 20 73 98 55z"/><path d="m1419 10599c115 0 166-99 170-133 4-34 8-80-38-76-47 4-106 23-106 53 0 30 30 57 30 57l-55 19c-89-15-157-102-161-208-4-106 102-208 102-208 0 0-187 91-187 258 0 167 132 239 246 239z"/><path d="m1096 10214c22-19 34-34 34-34-13 6-24 11-35 15l1 20z"/><path d="m3755 9048c-9-283-204-325-298-330-94-6-207 20-194 118 13 98 172 188 188 90 16-98-60-90-60-90 0 0-25 0-25-28 0-28 66-64 138-48 72 17 6 78 16 129 9 50 125 67 113 193-11 114-114 152-134 158 1-1 2-3 3-4 53-92-31-171-31-171 3 176-254 232-351 224-68-6-145-56-185-85 26 4 72 6 154 1 220-14 78-277 78-277 28 81-56 140-125 143-69 3-116 6-267-98-151-104-311-302-311-302 0 0 254 39 379 36 125-3 88-123 78-179-9-56-53-106-163-81-110 25-100 81-370 73-270-8-386-106-433-154-44-45-208-75-227-78 9 1 59 3 302-31 282-39 332-3 332-3-28 70 22 90 82 73 60-17 75-56 53-123-22-67-304-22-304-22 0 0 417-140 477-294 60-154 47-238 44-227-3 11-38 95-47 73-9-22-13-59 13-90 25-31 22-157 22-157 0 14-53 34-53 34 0 0-31 70 0-6 31-76 3-188 3-188 0 56-72 56-72 56-191-132-288-17-288-17 188 25 151 182 151 182 0 0-188-64-129-28 1 1 2 1 2 2 56 37 32 102 7 130-25 28-60 93-56 145 4 53 70 95 96 148 26 53-33 95-118 161-74 58-287 87-338 94 39-6 167-40 158-219-11-210-180-210-254-190-74 20-74 99-74 99 107-33 158-16 154 95-4 112-85 174-173 210-88 36-129 26-309 26-180 0-327 125-327 125l33 30c0 0 275-115 564-9 289 106 282 342 314 487 31 146-97 179-97 179 207 36 169-232 198-210 1 1 1 1 2 2 28 34 58 290-59 320-119 31-185-31-185-31-6 104 72 151 223 157 151 6 141-238 141-238 88 182-75 386-204 412-129 25-245-126-245-126-147 123 88 230 88 230-166-3-213-28-307-84-94-56-82-210-41-274 41-64 163-53 163-53 0 0 3 36-6 36-9 0-47 17-47 50 0 34 44 67 88 76 44 8 56-59 56-59 0 0 53-154-144-151-198 3-229 174-223 258 6 84 38 255 452 286 414 31 373-400 411-263 1 2 1 5 2 7 28 136-202 315-202 315h7c-75 70-138 132-170 161-31 18-63 33-78 28-34-11-42-83-98-106-55-23-81-34-149-38-68-4-89-38-89-57 0-19-68 38-119 38-51 0-119-83-115-133 4-49 47-125 47-125 0 0-191 61-149 186 42 125 144 193 144 193 0 0-115 42-136 102 0 0 119 91 276 87l42-15c0 0-8 102 0 136 0 0 98-57 115-80 0 0 140-19 170-23 0 0 7-90 34-102 9-4 85-23 119-45 0 0-59 102-64 182-4 80-21 250 55 311l55 19c0 0-104-121-17-334l9-38c39-89 103-166 217-282 22-23 41-44 55-63 32-25 131-127 131-444 0-378-245-686-245-686 339 148 257 168 467 361 210 193 116 549 94 591-22 42-176 20-176 20 0 0 38 104 220 50 182-53 94-361 94-361 178 71 170 409 169 423-17 83-61 189-183 230 0 0 193-22 214-132 0 0 86 139-16 231l-28 25c0 0-82-53-144-8-61 44-35 122-26 145 9 23 61 29 61 29 0 0-56 120 5 183 61 63 160 13 160 13 0 0 59-42 56-99 0 0 14 23 96 23 82 0 113-34 132-67 19-34-5-128-56-143-52-15-158-36-167 19l-7 19-61 2v-42l64-32c0 0 49-34 42-160 0 0 71 74 169 61 99-13 221-44 214-141-7-97-56-151-111-149-54 2-113 55-113 92 0 38 24 59 59 61 35 2 47-46 47-53 0-6-19-23-19-23 0 0 56-34 64 4 7 38 45 90-26 126-71 36-143 46-205-19-51-54-75-86-95-174h1c-2-78-32-217-48-288-3-15-6-28-9-37-1-6-2-9-2-9 270 92 721-6 712-288zm-1252-1377c60-52 38-131 38-131 0 0 60 96 53 211-7 115-98 201-98 201 98-141 42-235 42-235 0 0 2 31-49 68-51 37-67 117-67 117-91-133 22-178 82-230zm-1105 2200c170-64 263 76 263 76-250 23-263-76-263-76zm576 8v-10h8l-8 10zm1164 258v-5c112-23 67 11 82 49 15 39-18 23-45 27-27 4-34-8-43-13-9-5-1-11-4-29-3-19 9-20 10-28zm-284-35c-10-9-9-17-6-39 3-21 25-24 25-24 83-4 55 7 63 25 7 19-22 39-33 47-10 8-39 0-49-9zm168 109c18 16 6 39-10 73-16 35-64 35-83 35-19 0-25-21-33-68-7-47 43-55 48-56 0 0 61 0 79 16z"/><path d="m1665 6703c0 0-22 24-9 32 13 8 22 40 36 28 13-12 9-60-27-60z"/><path d="m1721 6635c0 0-12-42-28-35 0 0-35 8-35 29 0 21 26 37 37 37 12 0 26-31 26-31z"/><path d="m1733 6527c-5-10-2-42-49-33 0 0-35 13-30 29 5 17 21 40 40 40 19 0 44-25 40-35z"/><path d="m1649 6365c-23 2-23 29-21 48 2 19 33 42 44 37 12-4 37-23 37-44 0-21-54-42-61-42z"/><path d="m1607 6215c0 0-47 27-44 50 2 23 9 35 72 35 63 0 75-13 70-46-5-33-51-42-98-40z"/><path d="m1581 6123c0 0-23 23-12 31 12 8 33 19 56 19 23 0 72-35 63-52-9-17-65-40-107 2z"/><path d="m1433 6049c4 5 9 11 14 16 50 50 75 56 75 56 0 0 60-59 116-56 0 0-41-81 25-134 0 0-95-53-181 1l-3 8c6 5 16 15 9 25 0 0-6-4-16-9-13 31-26 62-39 93z"/><path d="m1649 5585c3-1 5-3 8-4 0 0-7 12-21 29-43 82-83 166-122 251 7 1 14 1 21 0 63-8 129 8 129 8 35 0 100 31 103 56 3 25-28 22-31 31-3 8-16 48 0 48 16 0 85 34 110-56 25-90-35-112-50-120-16-8 82-90 85-160 3-70-85-115-85-115 0 0 216-193 373-62 0 0 19-171-198-174-95-1-152 11-187 26-47 79-92 159-135 241zm323-537c30 2 66-15 68-45 1-13 0-29-6-44-21 29-41 59-62 89zm-274 740c-6-62-104-56-104-56 129-45 125-171 125-171 94 90-16 288-22 227z"/><path d="m2302 5865c-52-20-122-17-215 40-249 155-186 212-202 288-16 76-38 139-38 139 0 0 24-269-158-290 0 0 94 65 99 284 5 218-7 317-33 410-26 92-106 269-127 298-21 29-40-101-33-185 7-84 56-302-42-395-99-92-92-137-85-155 7-19 38-46 38-53 0-6 47-36-5-74 0 0 21 44-85 38-19-1-32-6-42-14-6 16-12 33-18 49 13 9 23 19 25 27 6 25 53 129 53 129 0 0-48-57-101-91-6 16-11 32-16 47 73 40 259 155 256 377 0 0-125-263-276-280-4 0-8-1-12-1-18 56-35 113-52 171 77 37 194 73 239 268 53 230-31 316-31 316 0 0-47-3-44-101 3-98 13-232-147-280 0 0-82 62-78 168 2 57 16 89 29 108-17-15-42-35-73-49-3 13-6 26-8 40l55 64c63 73 100 171 88 218-11 43-89 170-224 249-4 34-7 67-10 101 6 12 11 23 11 29 0 0 127-125 173-178 47-53 103-101 154-94 51 8 80 29 86 57 6 29-10 34-39 31-29-3-96-23-122 23-26 47 9 125 100 122 92-3 176-96 170-173-6-77-76-134-154-146 0 0 31-81 130-158 99-78 205-129 318-115 113 14 133 115 133 115 0 0 48-166-87-209-135-43-7-99 88-106 95-7 153-23 316 36 0 0-43-155-203-157-160-2-191 27-362 134 0 0 45-183 139-267 0 0 108-15 127 48 0 0-2-82-75-95 0 0 101-95 174-105 73-11 162-34 249 34 44 34 11 50-33 58 9-7 15-16 15-26 0-23-31-42-68-42-38 0-68 19-68 42 0 2 1 4 1 7 0 0-1 14 24 26-2 0-3 0-4 0 0 0 2 0 5 1 10 5 25 9 46 13 54 8 92-3 114-16 0 0 1 0 1-1 1-1 2-1 3-2 2-1 4-3 6-4 3-3 7-5 9-8h-1c6-7 11-17 12-29 7-57-24-113-188-147 0 0 0-65 134-65 0 0-169-74-249 78 0 0-26 44-31 50-5 6-103 48-214 141 0 0 14-233 59-321 45-88 188-84 205-42 0 0 87-8 101-111 14-103-31-107-31-107 0 0 31-72 102-85 24-4 52-2 85 12 12 5 25 12 39 20 0 0-11-30-35-62-20-26-49-54-88-69z"/><path d="m4495 13121c0 0 118 8 151-44 33-53-59-128-242-134 0 0 108 44 120 74 12 29 24 71-28 105z"/><path d="m5100 12337c-40 2-104 82-153 101-49 19-172 8-172 8 0 0 188-95 165-183-24-88-68-88-85-97-16-8-106-27-106-27 0 0-12 32-9 57 2 25 75 84 64 122-12 38-49 59-87 90-38 32-104 63-139 63-35 0-104-27-71-67 0 0-45 44-155 31-111-13-122-10-122-10l-122 101c0 0-5 55 73 63 78 8 148-15 223-10 75 4 122 44 122 44 0 0-104-145-146-149-42-4 7-4 7-4 0 0 99 11 127 29 28 19 71 76 136 120 66 44 202 120 202 120 0 0-198-99-294-82-96 17-143 101-120 124 0 0-82-63-47-109 0 0-37 57-193 36-155-21-186-61-186-61 0 0 21 69 143 128 122 59 151 90 263 116 113 25 193 2 273 2 80 0 150 53 160 86l2 23c0 0-14-32-75-25-61 6-45 84 2 103 47 19 146 23 165-19 19-42 2-181-332-218 0 0-139 4-120-109 0 0 19-23 75-23 56 0 179 67 247 107 68 40 167 113 179 166 0 0 26-103-31-181 0 0 49 23 87 13 0 0-35-244-195-248-160-4-172 15-200 8-28-6-49-38-28-59 21-21 162-25 230 6 68 32 87 61 179 53 92-8 120-17 160 19 40 36 45 61 45 61 0 0 99-124 31-218-68-95-134-101-174-99z"/><path d="m4937 11980c-41 4-49 15-49 28 0 13 20 49 45 55 25 6 72-4 80-22 8-18 5-60 5-60h-82z"/><path d="m4972 12216c3 10 25 42 42 36 17-6 36-27 36-36 0-10-6-56-20-53-14 3-36 15-36 15-25 14-25 28-22 38z"/><path d="m4812 11973c-9-25 6-64-56-81-63-17-358-53-561 249 0 0 179-216 423-185 0 0-9 98 60 95 69-3 144-53 135-78z"/><path d="m5101 12216c44 87 201 106 213 148 13 42 78 73 35 218 0 0 94-210 22-372-72-162-88-151-88-151 0 0-141-22-176-3 0 0-50 73-6 160z"/><path d="m4712 11622c-77 7-154-44-191-53 38-19 98-71-46-93 0 0-106-4-69 100 38 104 165 55 252 80 0 0-107-28-182 109 0 0-14 66-81 113 40-26 150-92 223-107 0 0 35 31 22 59-13 28-3 8-3 8 0 0 107-28 163-31 56-3 110 98 97 129 0 0 198-31 201-182 3-151-176-258-285-258-110 0-119 53-119 53 0 0 116-8 141 53 25 62 34 78 16 132 0 0-41-120-138-112z"/><path d="m4538 12119c26 4 40-11 45-17 5-6 26-67-2-61 0 0-46 4-60 17-14 13-3 48-3 48 0 0-5 8 21 13z"/><path d="m4837 12118c11 10 52 45 63 45 11 0 41-13 38-32-3-20-27-31-38-34-11-3-36-10-36-10-19 1-38 21-27 31z"/><path d="m4422 12083c9 8 24 32 38 23 14-8 35-55 35-55 0 0-31-23-38-25-4-1-19 7-29 14-6 4-11 7-11 7l7-2c0 6-12 29-2 38z"/><path d="m4660 12297c14-1 50-14 45-32-5-18-30-29-38-32-8-3-24 0-24 0-5 10-15 25-14 36 1 11 16 29 30 28z"/><path d="m4366 12094c-7 6-31 27-21 29 9 2 33 2 33 2 0 0 19-15 16-23-2-8-21-15-28-8z"/><path d="m4674 12194c6-8 25-45 24-49-2-4-25-43-39-45-48-5-53 48-49 60 5 13 58 42 64 34z"/><path d="m4180 12896c0 0-33-44-52-69-19-25-75-95-104-74-28 21-45 120-47 109-2-11-2-153-2-153 0 0-12-55-12-82 0-27 17-53-28-107-45-55-235-59-235-59 144-27 212 11 212 11 0 0 64 2 127 128 63 126 322 50 322 50 0 0-139 4-198-2-59-6-101-80-101-80l-19-53c0 0 130-65 160-113 31-48 108-86 108-86-42 25-61 90-61 90 0 0 82 8 143 4 61-4 120-88 141-130 21-42 42-99 42-99 0 0-24-31-120-34-96-2-198 61-221 95-23 34-63 141-85 166-21 25-108 76-108 76l-37-6c0 0 52-42 78-63 26-21 68-74 73-111 5-38 2-103 2-103-40-2-122 29-167 80-45 50 2 126 2 126l-19 54c0 0-45-54-59-67-13-13-12-85 10-117 22-31 77-73 84-126 7-52 59-45 77-162 16-99 80-177 99-198-35 46-16 220-6 214 10-6 117-126 131-194 13-69 80-157 80-157 0 0-40 36-167-21-127-57-293-16-293-16-8 5-97 21-97 21 184 75 169 193 169 193l-15 21-42-9c0-36-15-66-55-109-40-43-124-34-124-34 0 0 8 55 44 79 35 24 32 138 28 310-1 71 6 135 14 187 4-84 31-254 172-290 0 0-167 130-145 394l-8-17c5 20 9 32 9 32-77-48-104-75-149-117-45-42-54-129-54-129 60 15 92 96 92 96h23c15-36-5-106-57-181-52-75-174-118-174-118 27 93 117 124 117 124 0 0-10 24-124-30-114-54-226 36-226 36 23 40 60 87 142 96 82 9 117 39 117 39-79 3-122 63-122 63 157-24 236 34 236 34 0 0 26 32-160 88-186 57-202 185-202 185 158-67 186 74 325 86 139 13 223-53 223-53l14 44-9 23c-94 128-12 338-45 363-33 25-92 36-92 36 167 82 315-25 336-103 21-78 87-82 87-82z"/><path d="m4335 13169c28-101 113-92 42-200-63-95-192-126-225-151 17 20 58 68 68 73 12 6 89 55 89 120 0 0-59-92-118-88 0 0-56 19-64 63-7 44 7 123 28 162 21 39 52 105 0 151 0 0 151-29 179-130z"/><path d="m3251 14732c-85 46-256 25-256-87 0-112-81-123-116-123-36 0-81 97-140 102 0 0 128 13 156 157 28 144 81 104 232 108 0 0 17 121 92 108 76-13 220-99 237-216 17-116 9-239 154-233 0 0 0-112-144-102-144 11-130 239-215 286z"/><path d="m2038 13212c1 17 3 34 6 52 52 321 199 488 512 496 312 8 395-217 395-298 0-81-65-147-143-147-78 0-152 43-152 101 0 58 43 116 160 97 0 0-35 116-191 132-156 15-251-58-251-58 0 0 78-97 199-74 0 0-182-62-256 15l-22 23c0 0-169-39-173-290 0-12 0-24 1-36-33-14-61-16-85-12z"/><path d="m2902 12569c-152-108-227-260-142-300 85-40 33-114 14-118-19-4-116-13-116 66 0 0-140-159-50-264 0 0-180 91-168 216 12 125 81 258 175 319 0 0-111-13-206-150-95-137-137-146-156-387 0 0-19-104 57-116 76-13 73 59 118 42 45-17 73-108-9-121-83-13-187 15-197 89-9 74-14 203 7 252 0 0-157-44-218 30-61 74-108 142-37 195 71 53 107 13 104-13-2-26-51-46-67-26 0 0-54-6-16-61 38-55 114-121 204-76 90 44 71 71 111 137 40 66 182 273 325 286 142 13 173 47 173 47 0 0-265-42-442 74-147 96-306 209-327 427 40 15 68 43 88 69 25-207 167-340 403-430 0 0-108 244 173 286 0 0-90-357 324-308 0 0-194 99-172 258 0 0 221-27 295-74 0 0-61 74-22 159 0 0 74-101 221-89 147 12 286 89 251 434 0 0-39-310-191-341-152-31-182 8-182 8 0 0 17 74 117 139 100 66 113 101 117 178 4 77-108 228-39 348 0 0-212 228-238 321-26 93-30 139-30 139l-30-228c0 0-30-128-117-132-87-4-121 74-121 108 0 35 82 85 160 54l39 151c0 0 26 31 26 116 0 85-43 201-43 244 0 43-22 124 39 136 61 12 100 15 126 4 26-12 37-98 21-204 0 0 36-283 199-398 163-114 260-91 268-40 7 51 57 123-33 288 0 0 289-140 180-357 0 0 170 40 192 97 21 56 70 148-104 231-2 1-5 2-7 4 0 0 218 57 253-102 0 0 31 125-17 154-47 30-97 40-97 80 0 40-59 192-284 144 0 0 126 125 296 55 170-70 225-150 225-315 0-165-52-410-455-446 0 0 497-8 597 192 0 0 21 68-73 114 0 0 40 21 71-4 0 0-62 70-62 146 0 76-7 169-38 201 0 0 126-99 137-161 12-61 83-95 90-101 0 0 2 95-26 150-28 55-50 25-71 89-21 63-54 163-111 207-57 44-63 80-201 97 0 0 291-8 336-61 45-53 92-68 111-133 18-63 6 108-22 155 24-37 166-254 134-341 0 0 34 5 45 15 1 1 2 3 3 4 5 13 21-51 28-51 0 0 47 2 59 34 0 0 19-85-107-85-126 0 14-252-317-379l-19-30c0 0 123-95 137-247 0 0-114 157-244 169-130 13-189-42-189-42 0 0 332-97 355-241 24-144-47-195-107-199-59-4-166 53-152 104 14 51 38 70 62 70 24 0 111-55 50-95 0 0 57-17 66 11 10 27 71 209-275 298-346 89-398 2-573 127-175 125-185 133-185 133 0 0 81-142 168-243 88-102 64-271 348-292 0 0-69-91-189-36 0 0-36-121-14-224 21-104-52-209-33-273 19-63 52-188 154-235 0 0-199 25-244 184v42c0 0-135-133-225-169-90-36-171-209-156-273 14-63 50-51 76-61 26-11 83-74-9-112-92-38-171-27-178 66-7 93 83 275 133 345 0 0-154-44-306-152zm895 1388c0 0 81 111 0 202 0 0 32-72-48-187l48-14z"/><path d="m3937 13725c0 0 98-16 139-63 41-48 59-121-7-190 0 0-5 33-71 37 0 0 108 138-60 217z"/><path d="m3613 14152c-87-16-132 13-187 51-55 38-53 103-53 103 57-106 146-86 146-86-25 41 32 65 78 56 46-10 103-108 16-124z"/><path d="m3706 11915c0 0 75 29 88 105 0 0 20-236-91-236-111 0-94 61-94 76 0 15 20 73 98 55z"/><path d="m1412 14007c5 7 11 10 17 5 13-11 9-55-21-60l5 55z"/><path d="m1458 13884c0 0-12-42-28-35 0 0-20 5-30 16l3 33c9 10 22 17 29 17 12 0 26-31 26-31z"/><path d="m1469 13776c-5-10-2-42-49-33 0 0-23 8-29 20l1 16c7 15 21 33 37 33 19 0 44-25 40-35z"/><path d="m1385 13613c-3 0-5 1-7 2l6 75c9 7 18 11 24 9 12-4 37-23 37-44 0-21-54-42-61-42z"/><path d="m1373 13549c62 0 73-13 69-46-4-28-38-38-76-40l7 85z"/><path d="m1362 13422h1c23 0 72-35 63-52-7-12-37-27-70-19l6 71z"/><path d="m1352 13316c7-2 15-2 23-2 0 0-41-81 25-134 0 0-25-14-61-20l14 157z"/><path d="m1258 12247c18 11 40 22 66 33 0 0 72-89 76-101 3-12 10-46-62-49 0 0 17-79-94-44l14 162z"/><path d="m1296 12384c0 0-11-8-28-23 9 106 19 213 28 320 23-41 38-102 31-191l31-76c0 0 79 268-52 389l4 47c31-3 63-9 82-21 0 0-29 48-77 84l17 195c37 3 66 10 66 10 35 0 100 31 103 56 3 25-28 22-31 31-3 8-16 48 0 48 16 0 85 34 110-56 25-90-35-112-50-120-16-8 82-90 85-160 3-70-85-115-85-115 0 0 216-193 373-62 0 0 19-171-198-174-216-3-238 67-238 67 0 0-19-134 72-151 91-17 78-90 88-106 0 0-44 34-97 11 0 0 6-90 72-115 66-25 50-3 78 17 28 20 91 3 94-36 3-39-13-112-147-106-135 6-295 238-295 238h-38zm138 653c-6-62-103-56-103-56 129-45 125-171 125-171 94 90-16 288-22 227z"/><path d="m1193 11483c88 0 109 13 128 59 21 52 21 141 21 141 0 0-45-71-137-63l3 36c60 45 151 152 75 354 0 0 169-135 172-316 3-164-64-330-274-361 4 50 8 101 12 151z"/><path d="m2038 13114c-52-20-123-17-215 40-249 155-186 212-202 288-16 76-38 139-38 139 0 0 24-269-158-290 0 0 94 65 99 284 5 218-7 317-33 410-13 47-40 116-67 176 6 77 13 154 19 231 48-16 97-23 147-17 113 14 133 115 133 115 0 0 48-166-87-209-135-43-7-99 88-106 95-7 153-23 316 36 0 0-43-155-203-157-160-2-191 27-362 134 0 0 45-183 139-267 0 0 108-15 127 48 0 0-2-82-75-95 0 0 101-95 174-105 73-11 162-34 249 34 44 34 11 50-33 58 9-7 15-16 15-26 0-23-31-42-68-42-38 0-68 19-68 42 0 2 1 4 1 7 0 0-1 14 24 26-2 0-3 0-4 0 0 0 2 0 5 1 10 5 25 9 46 13 54 8 92-3 114-16 0 0 1 0 1-1 1-1 2-1 3-2 2-1 4-3 6-4 3-3 7-5 9-8h-1c6-7 11-17 12-29 7-57-24-113-188-147 0 0 0-65 134-65 0 0-169-74-249 78 0 0-26 44-31 50-5 6-103 48-214 141 0 0 14-233 59-321 45-88 188-84 205-42 0 0 87-8 101-111 14-103-31-107-31-107 0 0 31-72 102-85 24-4 52-2 85 12 12 5 25 12 39 20 0 0-11-30-35-62-20-26-49-54-88-69z"/><path d="m1057 8778c-12 1-26 8-41 19 3 72 6 144 9 216 69-7 95-10 130 22 40 36 45 61 45 61 0 0 99-124 31-218-68-95-134-101-174-99z"/><path d="m1058 8657c44 87 201 106 213 148 13 42 78 73 34 218 0 0 94-210 22-372-72-162-88-151-88-151 0 0-141-22-176-3 0 0-50 73-6 160z"/><path d="m1003 8308c29-27 51-63 52-113 1-50-18-95-48-133-3 81-4 163-4 246z"/></g><g stroke-width="7.62"><text x="10500" y="14850" font-family="&apos;Monotype Corsiva&apos;" font-style="italic" font-size="3753.22" transform="matrix(.98379 0 0 1-8029.69 7040.18)">T1</text><text x="10500" y="14850" font-family="&apos;Arial&apos;" font-weight="bold" font-size="706.63" transform="matrix(.98379 0 0 1-7482.08 8514.12)">00.00.0000</text></g></g><g font-family="&apos;Arial Black&apos;" font-weight="900" font-size="524.5"><text x="10500" y="14850" transform="matrix(.98379 0 0 1-6432.85 3288.16)">NN 1</text><text x="10500" y="14850" transform="matrix(.98379 0 0 1-6453.98 3812.7)">NN 2</text></g></g><path d="m14788 23774c1152 561 3343 453 4008-585 663-1034 513-3969 575-5407 157-3603 555-6335 658-9240 114-3226-2080-5360-4703-5960-3700-847-3481 4118-2967 6670 270 1371 803 2564 1142 3905 627 2472 59 6246 277 8819 112 889 408 1479 1009 1800z" fill="#fff"/><g fill="#201e1e"><g stroke="#201e1e"><g stroke-linejoin="round" stroke-linecap="round" stroke-width="17.64"><path d="m18251 18101c-6 20-47 13-66 6-19-7-11-24-21-32-9-8-34-15-34-15-5-17 0-21 34-21 34 0 91-39 91-39 47-13 7 43 2 49-5 6 0 34-6 54z"/><path d="m18720 18214c-75-22-116-59-207-78-91-20-160-20-169-6-9 14-25 36-19 53 0 0-53-112-9-179 44-67 82-42 82-42 0 0 163 17 204 53 41 36 60-34 56-42 0 0 66 3 66 115 0 112 91 14 107 3 16-11-3-22 0-62 3-39 75-76 141-39 66 36 69 106 6 165-63 59-182 81-257 59z"/><path d="m19363 18004c-20-25-31-52-32-67-4-34-8-79 37-76-2 46-3 94-5 142z"/><path d="m17165 16519c9-283 204-325 298-330 94-6 207 20 194 118-13 98-172 188-188 90-16-98 60-90 60-90 0 0 25 0 25-28 0-28-66-64-138-48-72 17-6 78-16 129-9 50-125 67-113 193 11 114 114 152 134 158-1-1-2-3-3-4-53-92 31-171 31-171-3 176 254 232 351 224 68-6 145-56 185-85-26 4-72 6-154 1-220-14-78-277-78-277-28 81 56 140 125 143 69 3 116 6 267-98 151-104 311-303 311-303 0 0-254 39-379 36-125-3-88-123-78-179 9-56 53-106 163-81 110 25 100 81 370 73 270-8 386-106 433-154 44-45 208-75 227-78-9 1-59 3-302-31-282-39-332-3-332-3 28 70-22 90-82 73-60-17-75-56-53-123 22-67 304-22 304-22 0 0-417-140-477-294-60-154-47-238-44-227 3 11 38 95 47 73 9-22 13-59-13-90-25-31-22-157-22-157 0 14 53 34 53 34 0 0 31 70 0-6-31-76-3-188-3-188 0 56 72 56 72 56 191-132 288-17 288-17-188 25-151 182-151 182 0 0 188-64 129-28-1 1-2 1-2 2-56 37-32 102-7 130 25 28 60 93 56 145-4 53-70 95-96 148-26 53 33 95 118 161 74 58 287 87 338 94-39-6-167-40-158-219 11-210 180-210 254-190 74 20 74 99 74 99-107-33-158-16-154 95 4 112 85 174 173 210 85 35 126 27 290 26l-7 100c-76 2-159 14-244 45-289 106-282 342-314 487-31 146 97 179 97 179-207 36-169-232-198-210-1 1-1 1-2 2-28 34-58 290 59 320 119 31 185-31 185-31 6 104-72 151-223 157-151 6-141-238-141-238-88 182 75 386 204 412 129 25 245-126 245-126 147 123-88 230-88 230 166-3 213-28 307-84 18-11 32-25 43-41-2 40-4 81-7 121-66 42-170 76-334 88-414 31-373-400-411-263-1 2-1 5-2 7-28 136 202 315 202 315l-7 1c75 70 138 132 170 161 31 18 63 33 78 28 34-11 42-83 98-106 55-23 81-34 149-38 19-1 35-5 47-10-2 44-5 89-7 133-87 18-134 88-134 88 53 5 95 4 129 0-3 52-5 105-8 157-20-14-39-28-45-36 0 0-140-19-170-23 0 0-7-90-34-102-9-4-85-23-119-45 0 0 59 102 64 182 4 80 21 250-55 311l-55 19c0 0 104-121 17-334l-9-38c-39-89-103-166-217-282-22-23-41-44-55-63-32-25-131-127-131-444 0-378 245-686 245-686-339 148-257 168-467 361-210 193-116 549-94 591 22 42 176 20 176 20 0 0-38 104-220 50-182-53-94-361-94-361-178 71-170 409-169 423 17 83 61 189 183 230 0 0-193-22-214-132 0 0-86 139 16 231l28 25c0 0 82-53 144-8 61 44 35 122 26 145-9 23-61 29-61 29 0 0 56 120-5 183-61 63-160 13-160 13 0 0-59-42-56-99 0 0-14 23-96 23-82 0-113-34-132-67-19-34 5-128 56-143 52-15 158-36 167 19l7 19 61 2v-42l-64-32c0 0-49-34-42-160 0 0-71 74-169 61-99-13-221-44-214-141 7-97 56-151 111-149 54 2 113 55 113 92 0 38-24 59-59 61-35 2-47-46-47-53 0-6 19-23 19-23 0 0-56-34-64 4-7 38-45 90 26 126 71 36 143 46 205-19 51-54 75-86 95-174h-1c2-78 32-217 48-288 3-15 6-28 9-37 1-6 2-9 2-9-270 92-721-6-712-288zm2262 168c-4-10-9-20-14-28-41-64-163-53-163-53 0 0-3 36 6 36 9 0 47 17 47 50 0 34-44 67-88 76-44 8-56-59-56-59 0 0-53-154 144-151 55 1 97 15 129 36l-5 93zm-1010-1544c-60-52-38-131-38-131 0 0-60 96-53 210 7 115 98 201 98 201-98-141-42-235-42-235 0 0-2 31 49 68 51 37 67 117 67 117 91-133-22-178-82-230zm529 2208v-10h-8l8 10zm-1164 258v-5c-112-23-67 11-82 49-15 39 18 23 45 27 27 4 34-8 43-13 9-5 1-11 4-29 3-19-9-20-10-28zm284-35c10-9 9-17 6-39-3-21-25-24-25-24-83-4-55 7-63 25-7 19 22 39 33 47 10 8 39 0 49-9zm-168 109c-18 16-6 39 10 73 16 35 64 35 83 35 19 0 25-21 33-68 7-47-43-55-48-56 0 0-61 0-79 16z"/><path d="m16378 4630c10 6 16 10 16 10-6-3-11-7-16-10z"/><path d="m18037 3914c-20 99-123 169-201 169-97 0-107-28-110-101-3-73 31-81 56-84 25-3 41 22 41 39 0 17-16 53 25 48 41-6 34-17 63-56 28-39-13-137-53-140-41-3-50 17-50 17l-66-3c0 0 16-50 31-64 6-5 11-12 14-24 85 64 168 131 249 199z"/><path d="m18556 4410c-108 26-260 9-265-56-6-78 91-90 119-78 7 3 16 5 25 7 41 42 82 84 122 128z"/><path d="m18272 4250c-60 48-110 92-194 92-85 0-157-39-157-81 0-42 19-134 97-134 78 0 94 50 94 50l9 28c0 0 116 6 78-132-2-9-4-16-6-23 40 36 79 73 119 111-2 35-13 68-40 89z"/><path d="m17552 4263c-161 72-36 260 0 260 19 0 24-4 26-14-21-5-37-20-37-38 0-22 24-40 54-40 18 0 34 7 44 17 8 7 14 17 15 28 4 43 32 159-81 144-113-14-238-123-133-339 0 0-133 36-291 36-157 0-372-68-525-213-153-144-323-306-493-285 0 0 36-94 186-94 149 0 161 108 161 108 0 0-4-94-4-180 0-87 157-353 513-353 355 0 323 206 323 296 0 90-36 162-125 162-89 0-85-76-85-76 0 0-24-76 117-76l24 32c0 0 40-72 4-87 0 0-202-14-246-137 0 0-101-50-194 4l-20 18c0 0 149-7 153 94 0 0-238-36-283 54-44 90-105 224-36 389 0 0 28-288 178-285 149 4 206-54 198-76 0 0 89 76 61 155-28 79-190 14-214 29-24 14-77 40-77 40 0 0 250-29 275 50 24 79 0 151-61 148-2 0-3 0-5-1-5 1-11 2-17 2-38 0-69-27-69-60 0-33 31-60 69-60 8 0 16 1 24 4-9-20-45-49-176-52-206-4-36 209 81 274 117 65 283 137 509 79 0 0-275-130-202-303 0 0 125 256 489 159 0 0 32 112-129 184z"/><path d="m16641 11878c10 6 16 10 16 10-6-3-11-7-16-10z"/><path d="m18367 10630c-6 20-47 13-66 6-19-7-11-24-21-32-9-8-34-15-34-15-5-17 0-21 34-21 34 0 91-39 91-39 47-13 7 43 2 49-5 6 0 34-6 54z"/><path d="m18837 10743c-75-22-116-59-207-78-91-20-160-20-169-6-9 14-25 36-19 53 0 0-53-112-9-179 44-67 82-42 82-42 0 0 163 17 204 53 41 36 60-34 56-42 0 0 66 3 66 115 0 112 91 14 107 3 16-11-3-22 0-62 3-39 75-76 141-39 66 36 69 106 6 165-63 59-182 81-257 59z"/><path d="m18642 10822c28 92-38 213-38 213l-19 98c0 0-31-14-34-39-3-25-63-78-85-78-22 0-119-3-135-17-16-14-41-101-41-101-13 6-31 45 6 185 38 140-100 249-198 249-97 0-107-28-110-101-3-73 31-81 56-84 25-3 41 22 41 39 0 17-16 53 25 48 41-6 34-17 63-56 28-39-13-137-53-140-41-3-50 17-50 17l-66-3c0 0 16-50 31-64 16-14 22-36 19-132-3-95 163-182 163-182l47 42 38-11c0 0 22 17 22 42 0 25 0 98 25 126 25 28 135 14 135 14 0 0-6-101-47-112-41-11-50-36-50-36l-19-62c0 0 13 31 60 48 47 17 185 6 213 98z"/><path d="m18699 11144c0 0-22-45-31-67-9-22-13-64 0-78 0 0 13 22 19 34 6 11 22 92 13 112z"/><path d="m18793 10984l-6-34c0 0 66 31 75 64 9 34-72 76-72 76 0 0-9-31-6-42 3-11 28-28 38-36 9-8-28-28-28-28z"/><path d="m18736 10950l19 39c0 0-9 17-28 14-19-3-41-31-41-31 0 0 19-28 50-22z"/><path d="m18940 11160c16 20 16 25 34 31 19 6-34 17-56 8-22-8-31-53-31-53 0 0 38-6 53 14z"/><path d="m18827 11127c9 17 25 34 13 42-13 8-56 11-60 3-3-8-16-45 0-45 16 0 47 0 47 0z"/><path d="m19116 11256c151 28 179-143 179-143 85 160-69 241-163 244-94 3-157-109-179-112 0 0 13-17 163 11z"/><path d="m19110 11088c-104-3-210-112-235-146-25-34-22-118-22-118 34 92 125 106 144 118 0 0 100 14 141-6 41-20 6-70-6-95-13-25-28-84-28-84 13 0 248-3 245 148-3 151-135 185-238 182z"/><path d="m18542 11157c-1-1-2-1-3-2 0 0 1 1 3 2z"/><path d="m19066 11468c0 0-6-7-17-18l14 10 3 8z"/><path d="m19049 11450l-112-80c0 0-144-112-204-143-60-31-75-17-113-31-32-12-68-34-78-40 20 9 93 10 125 15 35 6 132 59 182 87 40 23 156 145 200 192z"/><path d="m18700 11341c-7-1-11-1-11-1 3 0 7 1 11 1z"/><path d="m18700 11341c32 4 128 21 193 72 78 62 85 171-13 224-97 53-320 45-326-34-6-78 91-90 119-78 28 11 72 14 122-11 50-25 28-84 22-109-6-23-82-57-118-63z"/><path d="m18429 11093c0 0-13-34 22-39 35-6 63 48 31 53l-53-14z"/><path d="m18777 10880c3 14-19 25-31 28-13 3-25-8-38-28-13-20 19-48 19-48 41 3 47 34 50 48z"/><path d="m18536 11499c-60 48-110 92-194 92-85 0-157-39-157-81 0-42 19-134 97-134 78 0 94 50 94 50l9 28c0 0 116 6 78-132-38-137 0-62-78-193 0 0 132 95 163 157 31 62 47 165-13 213z"/><path d="m17816 11512c-161 72-36 260 0 260 19 0 24-4 26-14-22-5-37-20-37-38 0-22 24-40 54-40 18 0 34 7 44 17 8 7 14 17 15 28 4 43 32 159-81 144-113-14-238-123-133-339 0 0-133 36-291 36-157 0-372-69-525-213-153-144-323-306-493-285 0 0 36-94 186-94 149 0 161 108 161 108 0 0-4-94-4-180 0-87 157-353 513-353 355 0 323 206 323 296 0 90-36 162-125 162-89 0-85-76-85-76 0 0-24-76 117-76l24 32c0 0 40-72 4-87 0 0-202-14-246-137 0 0-101-50-194 4l-20 18c0 0 149-7 153 94 0 0-238-36-283 54-44 90-105 224-36 389 0 0 28-288 178-285 149 4 206-54 198-76 0 0 89 76 61 155-28 79-190 14-214 29-24 14-77 40-77 40 0 0 250-29 275 50 24 79 0 151-61 148-2 0-3 0-5-1-5 1-11 2-17 2-38 0-69-27-69-60 0-33 31-60 69-60 8 0 16 2 24 4-9-20-45-49-176-52-206-4-36 209 81 274 117 65 283 137 509 79 0 0-275-130-202-303 0 0 125 256 489 159 0 0 32 112-129 184z"/><path d="m16277 5872c0 0-118 8-151-44-33-53 59-128 242-134 0 0-108 44-120 74-12 29-24 71 28 105z"/><path d="m15673 5089c40 2 103 82 153 101 49 19 172 8 172 8 0 0-188-95-165-183 24-88 68-88 85-97 16-8 106-27 106-27 0 0 12 32 9 57-2 25-75 84-64 122 12 38 49 59 87 90 38 32 104 63 139 63 35 0 104-27 71-67 0 0 45 44 155 32 111-13 122-10 122-10l122 101c0 0 5 55-73 63-78 8-148-15-223-11-75 4-122 44-122 44 0 0 104-145 146-149 42-4-7-4-7-4 0 0-99 11-127 29-28 19-71 76-136 120-66 44-202 120-202 120 0 0 198-99 294-82 96 17 143 101 120 124 0 0 82-63 47-109 0 0 37 57 193 36 155-21 186-61 186-61 0 0-21 69-143 128-122 59-151 90-263 116-113 25-193 2-273 2-80 0-151 53-160 86l-2 23c0 0 14-32 75-25 61 6 45 84-2 103-47 19-146 23-165-19-19-42-2-181 332-218 0 0 139 4 120-109 0 0-19-23-75-23-56 0-179 67-247 107-68 40-167 113-179 166 0 0-26-103 31-181 0 0-49 23-87 13 0 0 35-244 195-248 160-4 172 15 200 8 28-6 49-38 28-59-21-21-162-25-230 6-68 32-87 61-179 53-92-8-120-17-160 19-40 36-45 61-45 61 0 0-99-124-31-218 68-95 134-101 174-99z"/><path d="m15835 4731c41 4 49 15 49 28 0 13-20 49-45 55-25 6-72-4-80-22-8-18-5-60-5-60h82z"/><path d="m15801 4967c-3 10-25 42-42 36-17-6-36-27-36-36 0-10 6-56 20-53 14 3 36 15 36 15 25 14 25 28 22 38z"/><path d="m15961 4724c9-25-6-64 56-81 63-17 358-53 561 249 0 0-179-216-423-185 0 0 9 98-60 95-69-3-144-53-135-78z"/><path d="m15672 4967c-44 87-201 106-213 148-13 42-78 73-35 218 0 0-94-210-22-372 72-162 88-151 88-151 0 0 141-22 176-3 0 0 50 73 6 160z"/><path d="m16061 4374c77 7 154-44 191-53-38-19-98-71 46-93 0 0 106-4 69 100-38 104-165 55-252 80 0 0 107-28 182 109 0 0 14 66 81 113-40-26-150-92-223-107 0 0-35 31-22 59 13 28 3 8 3 8 0 0-107-28-163-31-56-3-110 98-97 129 0 0-198-31-201-182-3-151 176-258 285-258 110 0 119 53 119 53 0 0-116-8-141 53-25 62-34 78-16 132 0 0 41-120 138-112z"/><path d="m16235 4870c-26 4-40-11-45-17-5-6-26-67 2-61 0 0 46 4 60 17 14 13 3 48 3 48 0 0 5 8-21 13z"/><path d="m15936 4869c-11 10-52 45-63 45-11 0-41-13-38-32 3-20 27-31 38-34 11-3 36-10 36-10 19 1 38 21 27 31z"/><path d="m16350 4834c-9 8-24 32-38 23-14-8-35-55-35-55 0 0 31-23 38-25 4-1 19 7 29 14 6 4 11 7 11 7l-7-2c0 6 12 29 2 38z"/><path d="m16113 5049c-14-1-50-14-45-32 5-18 30-29 38-32 8-3 24 0 24 0 5 10 15 25 14 36-1 11-16 29-30 28z"/><path d="m16407 4845c7 6 31 27 21 29-9 2-33 2-33 2 0 0-19-15-16-23 2-8 21-15 28-8z"/><path d="m16099 4945c-6-8-25-45-24-49 2-4 25-43 39-45 48-5 53 48 49 60-5 13-58 42-64 34z"/><path d="m16593 5647c0 0 33-44 52-69 19-25 75-95 104-74 28 21 45 120 47 109 2-11 2-153 2-153 0 0 12-55 12-82 0-27-16-53 28-107 45-55 235-59 235-59-144-27-212 11-212 11 0 0-64 2-127 128-64 126-322 50-322 50 0 0 139 4 198-2 59-6 101-80 101-80l19-53c0 0-130-65-160-113-31-48-108-86-108-86 42 25 61 90 61 90 0 0-82 8-143 4-61-4-120-88-141-130-21-42-42-99-42-99 0 0 24-32 120-34 96-2 198 61 221 95 23 34 63 141 85 166 21 25 108 76 108 76l37-6c0 0-52-42-78-63-26-21-68-74-73-111-5-38-2-103-2-103 40-2 122 29 167 80 45 50-2 126-2 126l19 54c0 0 45-54 59-67 13-13 12-85-10-117-22-31-77-73-84-126-7-52-59-45-77-162-16-99-80-177-99-198 35 46 16 220 6 214-10-6-117-126-131-194-13-69-80-157-80-157 0 0 40 36 167-21 127-57 293-16 293-16 8 5 97 21 97 21-184 75-169 193-169 193l15 21 42-9c0-36 15-66 55-109 40-43 124-34 124-34 0 0-8 55-44 79-35 24-32 138-28 310 1 71-6 135-14 187-4-84-31-254-172-290 0 0 167 130 145 394l8-17c-5 20-9 32-9 32 77-48 104-75 149-117 45-42 54-129 54-129-60 15-92 96-92 96h-23c-15-36 5-106 57-181 52-75 174-118 174-118-27 93-117 124-117 124 0 0 10 24 124-30 114-54 226 36 226 36-23 40-60 87-142 96-82 9-117 39-117 39 79 3 122 63 122 63-157-24-236 34-236 34 0 0-26 32 160 88 186 57 202 185 202 185-158-67-186 74-325 86-139 13-223-53-223-53l-14 44 9 23c94 128 12 338 45 363 33 25 92 36 92 36-167 82-315-25-336-103-21-78-87-82-87-82z"/><path d="m16437 5920c-28-101-113-92-42-200 63-95 192-126 225-151-17 20-58 68-68 73-12 6-89 55-89 120 0 0 59-92 118-88 0 0 56 19 64 63 7 44-7 123-28 162-21 39-52 105 0 151 0 0-151-29-179-130z"/><path d="m17522 7484c85 46 256 25 256-87 0-112 81-123 116-123 36 0 81 97 140 102 0 0-128 13-156 157-28 144-81 104-232 108 0 0-17 121-92 108-76-13-220-99-237-216-17-116-9-239-154-233 0 0 0-112 144-102 144 11 130 239 215 286z"/><path d="m18735 5964c-1 17-3 34-6 52-52 321-199 488-512 496-312 8-395-217-395-298 0-81 65-147 143-147 78 0 152 43 152 101 0 58-43 116-160 97 0 0 35 116 191 132 156 15 251-58 251-58 0 0-78-97-199-74 0 0 182-62 256 15l22 23c0 0 169-39 173-290 0-12 0-24-1-36 33-14 61-16 85-12z"/><path d="m17870 5320c152-108 227-260 142-300-85-40-33-114-14-118 19-4 116-13 116 66 0 0 140-159 50-264 0 0 180 91 168 216-12 125-81 258-175 319 0 0 111-13 206-150 95-137 137-146 156-387 0 0 19-104-57-116-76-13-73 59-118 42-45-17-73-108 9-121 83-13 187 15 197 89 9 74 14 203-7 252 0 0 157-44 218 30 61 74 108 142 37 195-71 53-107 13-104-13 2-26 51-46 67-26 0 0 54-6 16-61-38-55-114-121-204-76-90 44-71 71-111 137-40 66-182 273-325 286-142 13-173 47-173 47 0 0 265-42 442 74 147 96 306 209 327 427-40 15-68 43-88 69-25-207-167-340-403-430 0 0 108 244-173 286 0 0 90-357-324-308 0 0 194 99 172 258 0 0-221-27-295-74 0 0 61 74 22 159 0 0-74-101-221-89-147 12-286 89-251 434 0 0 39-310 191-341 152-31 182 8 182 8 0 0-17 74-117 139-100 66-113 101-117 178-4 77 108 228 39 348 0 0 212 228 238 321 26 93 30 139 30 139l30-228c0 0 30-128 117-132 87-4 121 74 121 108 0 35-82 85-160 54l-39 151c0 0-26 31-26 116 0 85 43 201 43 244 0 43 22 124-39 136-61 12-100 15-126 4-26-12-37-98-21-204 0 0-36-283-199-398-163-114-260-91-268-40-7 51-57 123 33 288 0 0-289-140-180-357 0 0-170 40-192 97-21 56-70 148 104 231 2 1 5 2 7 4 0 0-218 57-253-102 0 0-31 125 17 154 47 30 97 40 97 80 0 40 59 192 284 144 0 0-126 125-296 55-170-70-225-150-225-315 0-165 52-410 455-446 0 0-497-8-597 192 0 0-21 68 73 114 0 0-40 21-71-4 0 0 62 70 62 146 0 76 7 169 38 201 0 0-126-99-137-161-12-61-83-95-90-102 0 0-2 95 26 150 28 55 50 25 71 89 21 63 54 163 111 207 57 44 63 80 201 97 0 0-291-8-336-61-45-53-92-68-111-133-18-63-6 108 22 155-24-37-166-254-134-341 0 0-34 5-45 15-1 1-2 3-3 4-5 13-21-51-28-51 0 0-47 2-59 34 0 0-19-85 107-85 126 0-14-252 317-379l19-30c0 0-123-95-137-247 0 0 114 157 244 169 130 13 189-42 189-42 0 0-332-97-355-241-24-144 47-195 107-199 59-4 166 53 152 104-14 51-38 70-62 70-24 0-111-55-50-95 0 0-57-17-66 11-10 27-71 209 275 298 346 89 398 2 573 127 175 125 185 133 185 133 0 0-81-142-168-243-88-102-64-271-348-292 0 0 69-91 189-36 0 0 36-121 14-224-21-104 52-209 33-273-19-63-52-188-154-235 0 0 199 25 244 184v42c0 0 135-133 225-169 90-36 171-209 156-273-14-63-50-51-76-61-26-11-83-74 9-112 92-38 171-27 178 66 7 93-83 275-133 345 0 0 154-44 305-152zm-895 1388c0 0-81 111 0 202 0 0-32-72 48-187l-48-14z"/><path d="m16836 6476c0 0-98-16-139-63-41-48-59-121 7-190 0 0 5 33 71 37 0 0-108 138 60 217z"/><path d="m17160 6903c87-16 132 13 187 51 55 38 53 103 53 103-57-106-146-86-146-86 25 41-32 65-78 56-46-10-103-108-16-124z"/><path d="m17067 4667c0 0-75 29-88 105 0 0-20-236 91-236 111 0 94 61 94 76 0 15-20 73-98 55z"/><path d="m19617 10599c-115 0-166-99-170-133-4-34-8-80 38-76 47 4 106 23 106 53 0 30-30 57-30 57l55 19c89-15 157-102 161-208 4-106-102-208-102-208 0 0 187 91 187 258 0 167-132 239-246 239z"/><path d="m19941 10214c-22-19-34-34-34-34 13 6 24 11 35 15l-1 20z"/><path d="m17282 9048c9-283 204-325 298-330 94-6 207 20 194 118-13 98-172 188-188 90-16-98 60-90 60-90 0 0 25 0 25-28 0-28-66-64-138-48-72 17-6 78-16 129-9 50-125 67-113 193 11 114 114 152 134 158-1-1-2-3-3-4-53-92 31-171 31-171-3 176 254 232 351 224 68-6 145-56 185-85-26 4-72 6-154 1-220-14-78-277-78-277-28 81 56 140 125 143 69 3 116 6 267-98 151-104 311-302 311-302 0 0-254 39-379 36-125-3-88-123-78-179 9-56 53-106 163-81 110 25 100 81 370 73 270-8 386-106 433-154 44-45 208-75 227-78-9 1-59 3-302-31-282-39-332-3-332-3 28 70-22 90-82 73-60-17-75-56-53-123 22-67 304-22 304-22 0 0-417-140-477-294-60-154-47-238-44-227 3 11 38 95 47 73 9-22 13-59-13-90-25-31-22-157-22-157 0 14 53 34 53 34 0 0 31 70 0-6-31-76-3-188-3-188 0 56 72 56 72 56 191-132 288-17 288-17-188 25-151 182-151 182 0 0 188-64 129-28-1 1-2 1-2 2-56 37-32 102-7 130 25 28 60 93 56 145-4 53-70 95-96 148-26 53 33 95 118 161 74 58 287 87 338 94-39-6-167-40-158-219 11-210 180-210 254-190 74 20 74 99 74 99-107-33-158-16-154 95 4 112 85 174 173 210 88 36 129 26 309 26 180 0 327 125 327 125l-33 30c0 0-275-115-564-9-289 106-282 342-314 487-31 146 97 179 97 179-207 36-169-232-198-210-1 1-1 1-2 2-28 34-58 290 59 320 119 31 185-31 185-31 6 104-72 151-223 157-151 6-141-238-141-238-88 182 75 386 204 412 129 25 245-126 245-126 147 123-88 230-88 230 166-3 213-28 307-84 94-56 82-210 41-274-41-64-163-53-163-53 0 0-3 36 6 36 9 0 47 17 47 50 0 34-44 67-88 76-44 8-56-59-56-59 0 0-53-154 144-151 198 3 229 174 223 258-6 84-38 255-452 286-414 31-373-400-411-263-1 2-1 5-2 7-28 136 202 315 202 315h-7c75 70 138 132 170 161 31 18 63 33 78 28 34-11 42-83 98-106 55-23 81-34 149-38 68-4 89-38 89-57 0-19 68 38 119 38 51 0 119-83 115-133-4-49-47-125-47-125 0 0 191 61 149 186-42 125-144 193-144 193 0 0 115 42 136 102 0 0-119 91-276 87l-42-15c0 0 8 102 0 136 0 0-98-57-115-80 0 0-140-19-170-23 0 0-7-90-34-102-9-4-85-23-119-45 0 0 59 102 64 182 4 80 21 250-55 311l-55 19c0 0 104-121 17-334l-9-38c-39-89-103-166-217-282-22-23-41-44-55-63-32-25-131-127-131-444 0-378 245-686 245-686-339 148-257 168-467 361-210 193-116 549-94 591 22 42 176 20 176 20 0 0-38 104-220 50-182-53-94-361-94-361-178 71-170 409-169 423 17 83 61 189 183 230 0 0-193-22-214-132 0 0-86 139 16 231l28 25c0 0 82-53 144-8 61 44 35 122 26 145-9 23-61 29-61 29 0 0 56 120-5 183-61 63-160 13-160 13 0 0-59-42-56-99 0 0-14 23-96 23-82 0-113-34-132-67-19-34 5-128 56-143 52-15 158-36 167 19l7 19 61 2v-42l-64-32c0 0-49-34-42-160 0 0-71 74-169 61-99-13-221-44-214-141 7-97 56-151 111-149 54 2 113 55 113 92 0 38-24 59-59 61-35 2-47-46-47-53 0-6 19-23 19-23 0 0-56-34-64 4-7 38-45 90 26 126 71 36 143 46 205-19 51-54 75-86 95-174h-1c2-78 32-217 48-288 3-15 6-28 9-37 1-6 2-9 2-9-270 92-721-6-712-288zm1252-1377c-60-52-38-131-38-131 0 0-60 96-53 211 7 115 98 201 98 201-98-141-42-235-42-235 0 0-2 31 49 68 51 37 67 117 67 117 91-133-22-178-82-230zm1105 2200c-170-64-263 76-263 76 250 23 263-76 263-76zm-576 8v-10h-8l8 10zm-1164 258v-5c-112-23-67 11-82 49-15 39 18 23 45 27 27 4 34-8 43-13 9-5 1-11 4-29 3-19-9-20-10-28zm284-35c10-9 9-17 6-39-3-21-25-24-25-24-83-4-55 7-63 25-7 19 22 39 33 47 10 8 39 0 49-9zm-168 109c-18 16-6 39 10 73 16 35 64 35 83 35 19 0 25-21 33-68 7-47-43-55-48-56 0 0-61 0-79 16z"/><path d="m19371 6703c0 0 22 24 9 32-13 8-22 40-36 28-13-12-9-60 27-60z"/><path d="m19315 6635c0 0 12-42 28-35 0 0 35 8 35 29 0 21-26 37-37 37-12 0-26-31-26-31z"/><path d="m19303 6527c5-10 2-42 49-33 0 0 35 13 30 29-5 17-21 40-40 40-19 0-44-25-40-35z"/><path d="m19387 6365c23 2 23 29 21 48-2 19-33 42-44 37-12-4-37-23-37-44 0-21 54-42 61-42z"/><path d="m19429 6215c0 0 47 27 44 50-2 23-9 35-72 35-63 0-75-13-70-46 5-33 51-42 98-40z"/><path d="m19455 6123c0 0 23 23 12 31-12 8-33 19-56 19-23 0-72-35-63-52 9-17 65-40 107 2z"/><path d="m19604 6049c-4 5-9 11-14 16-50 50-75 56-75 56 0 0-60-59-116-56 0 0 41-81-25-134 0 0 95-53 181 1l3 8c-6 5-16 15-9 25 0 0 6-4 16-9 13 31 26 62 39 93z"/><path d="m19387 5585c-3-1-5-3-8-4 0 0 7 12 21 29 43 82 83 166 122 251-7 1-14 1-21 0-63-8-129 8-129 8-35 0-100 31-103 56-3 25 28 22 31 31 3 8 16 48 0 48-16 0-85 34-110-56-25-90 35-112 50-120 16-8-82-90-85-160-3-70 85-115 85-115 0 0-216-193-373-62 0 0-19-171 198-174 95-1 152 11 187 26 47 79 92 159 135 241zm-323-537c-30 2-66-15-68-45-1-13 0-29 6-44 21 29 41 59 62 89zm274 740c6-62 104-56 104-56-129-45-125-171-125-171-94 90 16 288 22 227z"/><path d="m18735 5865c52-20 122-17 215 40 249 155 186 212 202 288 16 76 38 139 38 139 0 0-24-269 158-290 0 0-94 65-99 284-5 218 7 317 33 410 26 92 106 269 127 298 21 29 40-101 33-185-7-84-56-302 42-395 99-92 92-137 85-155-7-19-38-46-38-53 0-6-47-36 5-74 0 0-21 44 85 38 19-1 32-6 42-14 6 16 12 33 18 49-13 9-23 19-25 27-6 25-53 129-53 129 0 0 48-57 101-91 6 16 11 32 16 47-73 40-259 155-256 377 0 0 125-263 276-280 4 0 8-1 12-1 18 56 35 113 52 171-77 37-194 73-239 268-53 230 31 316 31 316 0 0 47-3 44-101-3-98-13-232 147-280 0 0 82 62 78 168-2 57-16 89-29 108 17-15 42-35 73-49 3 13 6 26 8 40l-55 64c-63 73-100 171-88 218 11 43 89 170 224 249 4 34 7 67 10 101-6 12-11 23-11 29 0 0-127-125-173-178-47-53-103-101-154-94-51 8-80 29-86 57-6 29 10 34 39 31 29-3 96-23 122 23 26 47-9 125-100 122-92-3-176-96-170-173 6-77 76-134 154-146 0 0-31-81-130-158-99-78-205-129-318-115-113 14-133 115-133 115 0 0-48-166 87-209 135-43 7-99-88-106-95-7-153-23-316 36 0 0 43-155 203-157 160-2 191 27 362 134 0 0-45-183-139-267 0 0-108-15-127 48 0 0 2-82 75-95 0 0-101-95-174-105-73-11-162-34-249 34-44 34-11 50 33 58-9-7-15-16-15-26 0-23 31-42 68-42 38 0 68 19 68 42 0 2-1 4-1 7 0 0 1 14-24 26 2 0 3 0 4 0 0 0-2 0-5 1-10 5-25 9-46 13-54 8-92-3-114-16 0 0-1 0-1-1-1-1-2-1-3-2-2-1-4-3-6-4-3-3-7-5-9-8h1c-6-7-11-17-12-29-7-57 24-113 188-147 0 0 0-65-134-65 0 0 169-74 249 78 0 0 26 44 31 50 5 6 103 48 214 141 0 0-14-233-59-321-45-88-188-84-205-42 0 0-87-8-101-111-14-103 31-107 31-107 0 0-31-72-102-85-24-4-52-2-85 12-12 5-25 12-39 20 0 0 11-30 35-62 20-26 49-54 88-69z"/><path d="m16541 13121c0 0-118 8-151-44-33-53 59-128 242-134 0 0-108 44-120 74-12 29-24 71 28 105z"/><path d="m15937 12337c40 2 104 82 153 101 49 19 172 8 172 8 0 0-188-95-165-183 24-88 68-88 85-97 16-8 106-27 106-27 0 0 12 32 9 57-2 25-75 84-64 122 12 38 49 59 87 90 38 32 104 63 139 63 35 0 104-27 71-67 0 0 45 44 155 31 111-13 122-10 122-10l122 101c0 0 5 55-73 63-78 8-148-15-223-10-75 4-122 44-122 44 0 0 104-145 146-149 42-4-7-4-7-4 0 0-99 11-127 29-28 19-71 76-136 120-66 44-202 120-202 120 0 0 198-99 294-82 96 17 143 101 120 124 0 0 82-63 47-109 0 0 37 57 193 36 155-21 186-61 186-61 0 0-21 69-143 128-122 59-151 90-263 116-113 25-193 2-273 2-80 0-150 53-160 86l-2 23c0 0 14-32 75-25 61 6 45 84-2 103-47 19-146 23-165-19-19-42-2-181 332-218 0 0 139 4 120-109 0 0-19-23-75-23-56 0-179 67-247 107-68 40-167 113-179 166 0 0-26-103 31-181 0 0-49 23-87 13 0 0 35-244 195-248 160-4 172 15 200 8 28-6 49-38 28-59-21-21-162-25-230 6-68 32-87 61-179 53-92-8-120-17-160 19-40 36-45 61-45 61 0 0-99-124-31-218 68-95 134-101 174-99z"/><path d="m16099 11980c41 4 49 15 49 28 0 13-20 49-45 55-25 6-72-4-80-22-8-18-5-60-5-60h82z"/><path d="m16064 12216c-3 10-25 42-42 36-17-6-36-27-36-36 0-10 6-56 20-53 14 3 36 15 36 15 25 14 25 28 22 38z"/><path d="m16224 11973c9-25-6-64 56-81 63-17 358-53 561 249 0 0-179-216-423-185 0 0 9 98-60 95-69-3-144-53-135-78z"/><path d="m15936 12216c-44 87-201 106-213 148-13 42-78 73-35 218 0 0-94-210-22-372 72-162 88-151 88-151 0 0 141-22 176-3 0 0 50 73 6 160z"/><path d="m16325 11622c77 7 154-44 191-53-38-19-98-71 46-93 0 0 106-4 69 100-38 104-165 55-252 80 0 0 107-28 182 109 0 0 14 66 81 113-40-26-150-92-223-107 0 0-35 31-22 59 13 28 3 8 3 8 0 0-107-28-163-31-56-3-110 98-97 129 0 0-198-31-201-182-3-151 176-258 285-258 110 0 119 53 119 53 0 0-116-8-141 53-25 62-34 78-16 132 0 0 41-120 138-112z"/><path d="m16499 12119c-26 4-40-11-45-17-5-6-26-67 2-61 0 0 46 4 60 17 14 13 3 48 3 48 0 0 5 8-21 13z"/><path d="m16199 12118c-11 10-52 45-63 45-11 0-41-13-38-32 3-20 27-31 38-34 11-3 36-10 36-10 19 1 38 21 27 31z"/><path d="m16614 12083c-9 8-24 32-38 23-14-8-35-55-35-55 0 0 31-23 38-25 4-1 19 7 29 14 6 4 11 7 11 7l-7-2c0 6 12 29 2 38z"/><path d="m16376 12297c-14-1-50-14-45-32 5-18 30-29 38-32 8-3 24 0 24 0 5 10 15 25 14 36-1 11-16 29-30 28z"/><path d="m16670 12094c7 6 31 27 21 29-9 2-33 2-33 2 0 0-19-15-16-23 2-8 21-15 28-8z"/><path d="m16362 12194c-6-8-25-45-24-49 2-4 25-43 39-45 48-5 53 48 49 60-5 13-58 42-64 34z"/><path d="m16856 12896c0 0 33-44 52-69 19-25 75-95 104-74 28 21 45 120 47 109 2-11 2-153 2-153 0 0 12-55 12-82 0-27-17-53 28-107 45-55 235-59 235-59-144-27-212 11-212 11 0 0-64 2-127 128-63 126-322 50-322 50 0 0 139 4 198-2 59-6 101-80 101-80l19-53c0 0-130-65-160-113-31-48-108-86-108-86 42 25 61 90 61 90 0 0-82 8-143 4-61-4-120-88-141-130-21-42-42-99-42-99 0 0 24-31 120-34 96-2 198 61 221 95 23 34 63 141 85 166 21 25 108 76 108 76l37-6c0 0-52-42-78-63-26-21-68-74-73-111-5-38-2-103-2-103 40-2 122 29 167 80 45 50-2 126-2 126l19 54c0 0 45-54 59-67 13-13 12-85-10-117-22-31-77-73-84-126-7-52-59-45-77-162-16-99-80-177-99-198 35 46 16 220 6 214-10-6-117-126-131-194-13-69-80-157-80-157 0 0 40 36 167-21 127-57 293-16 293-16 8 5 97 21 97 21-184 75-169 193-169 193l15 21 42-9c0-36 15-66 55-109 40-43 124-34 124-34 0 0-8 55-44 79-35 24-32 138-28 310 1 71-6 135-14 187-4-84-31-254-172-290 0 0 167 130 145 394l8-17c-5 20-9 32-9 32 77-48 104-75 149-117 45-42 54-129 54-129-60 15-92 96-92 96h-23c-15-36 5-106 57-181 52-75 174-118 174-118-27 93-117 124-117 124 0 0 10 24 124-30 114-54 226 36 226 36-23 40-60 87-142 96-82 9-117 39-117 39 79 3 122 63 122 63-157-24-236 34-236 34 0 0-26 32 160 88 186 57 202 185 202 185-158-67-186 74-325 86-139 13-223-53-223-53l-14 44 9 23c94 128 12 338 45 363 33 25 92 36 92 36-167 82-315-25-336-103-21-78-87-82-87-82z"/><path d="m16701 13169c-28-101-113-92-42-200 63-95 192-126 225-151-17 20-58 68-68 73-12 6-89 55-89 120 0 0 59-92 118-88 0 0 56 19 64 63 7 44-7 123-28 162-21 39-52 105 0 151 0 0-151-29-179-130z"/><path d="m17786 14732c85 46 256 25 256-87 0-112 81-123 116-123 36 0 81 97 140 102 0 0-128 13-156 157-28 144-81 104-232 108 0 0-17 121-92 108-76-13-220-99-237-216-17-116-9-239-154-233 0 0 0-112 144-102 144 11 130 239 215 286z"/><path d="m18998 13212c-1 17-3 34-6 52-52 321-199 488-512 496-312 8-395-217-395-298 0-81 65-147 143-147 78 0 152 43 152 101 0 58-43 116-160 97 0 0 35 116 191 132 156 15 251-58 251-58 0 0-78-97-199-74 0 0 182-62 256 15l22 23c0 0 169-39 173-290 0-12 0-24-1-36 33-14 61-16 85-12z"/><path d="m18134 12569c152-108 227-260 142-300-85-40-33-114-14-118 19-4 116-13 116 66 0 0 140-159 50-264 0 0 180 91 168 216-12 125-81 258-175 319 0 0 111-13 206-150 95-137 137-146 156-387 0 0 19-104-57-116-76-13-73 59-118 42-45-17-73-108 9-121 83-13 187 15 197 89 9 74 14 203-7 252 0 0 157-44 218 30 61 74 108 142 37 195-71 53-107 13-104-13 2-26 51-46 67-26 0 0 54-6 16-61-38-55-114-121-204-76-90 44-71 71-111 137-40 66-182 273-325 286-142 13-173 47-173 47 0 0 265-42 442 74 147 96 306 209 327 427-40 15-68 43-88 69-25-207-167-340-403-430 0 0 108 244-173 286 0 0 90-357-324-308 0 0 194 99 172 258 0 0-221-27-295-74 0 0 61 74 22 159 0 0-74-101-221-89-147 12-286 89-251 434 0 0 39-310 191-341 152-31 182 8 182 8 0 0-17 74-117 139-100 66-113 101-117 178-4 77 108 228 39 348 0 0 212 228 238 321 26 93 30 139 30 139l30-228c0 0 30-128 117-132 87-4 121 74 121 108 0 35-82 85-160 54l-39 151c0 0-26 31-26 116 0 85 43 201 43 244 0 43 22 124-39 136-61 12-100 15-126 4-26-12-37-98-21-204 0 0-36-283-199-398-163-114-260-91-268-40-7 51-57 123 33 288 0 0-289-140-180-357 0 0-170 40-192 97-21 56-70 148 104 231 2 1 5 2 7 4 0 0-218 57-253-102 0 0-31 125 17 154 47 30 97 40 97 80 0 40 59 192 284 144 0 0-126 125-296 55-170-70-225-150-225-315 0-165 52-410 455-446 0 0-497-8-597 192 0 0-21 68 73 114 0 0-40 21-71-4 0 0 62 70 62 146 0 76 7 169 38 201 0 0-126-99-137-161-12-61-83-95-90-101 0 0-2 95 26 150 28 55 50 25 71 89 21 63 54 163 111 207 57 44 63 80 201 97 0 0-291-8-336-61-45-53-92-68-111-133-18-63-6 108 22 155-24-37-166-254-134-341 0 0-34 5-45 15-1 1-2 3-3 4-5 13-21-51-28-51 0 0-47 2-59 34 0 0-19-85 107-85 126 0-14-252 317-379l19-30c0 0-123-95-137-247 0 0 114 157 244 169 130 13 189-42 189-42 0 0-332-97-355-241-24-144 47-195 107-199 59-4 166 53 152 104-14 51-38 70-62 70-24 0-111-55-50-95 0 0-57-17-66 11-10 27-71 209 275 298 346 89 398 2 573 127 175 125 185 133 185 133 0 0-81-142-168-243-88-102-64-271-348-292 0 0 69-91 189-36 0 0 36-121 14-224-21-104 52-209 33-273-19-63-52-188-154-235 0 0 199 25 244 184v42c0 0 135-133 225-169 90-36 171-209 156-273-14-63-50-51-76-61-26-11-83-74 9-112 92-38 171-27 178 66 7 93-83 275-133 345 0 0 154-44 306-152zm-895 1388c0 0-81 111 0 202 0 0-32-72 48-187l-48-14z"/><path d="m17100 13725c0 0-98-16-139-63-41-48-59-121 7-190 0 0 5 33 71 37 0 0-108 138 60 217z"/><path d="m17423 14152c87-16 132 13 187 51 55 38 53 103 53 103-57-106-146-86-146-86 25 41-32 65-78 56-46-10-103-108-16-124z"/><path d="m17330 11915c0 0-75 29-88 105 0 0-20-236 91-236 111 0 94 61 94 76 0 15-20 73-98 55z"/><path d="m19624 14007c-5 7-11 10-17 5-13-11-9-55 21-60l-5 55z"/><path d="m19579 13884c0 0 12-42 28-35 0 0 20 5 30 16l-3 33c-9 10-22 17-29 17-12 0-26-31-26-31z"/><path d="m19567 13776c5-10 2-42 49-33 0 0 23 8 29 20l-1 16c-7 15-21 33-37 33-19 0-44-25-40-35z"/><path d="m19651 13613c3 0 5 1 7 2l-6 75c-9 7-18 11-24 9-12-4-37-23-37-44 0-21 54-42 61-42z"/><path d="m19664 13549c-62 0-73-13-69-46 4-28 38-38 76-40l-7 85z"/><path d="m19675 13422h-1c-23 0-72-35-63-52 7-12 37-27 70-19l-6 71z"/><path d="m19684 13316c-7-2-15-2-23-2 0 0 41-81-25-134 0 0 25-14 61-20l-14 157z"/><path d="m19778 12247c-18 11-40 22-66 33 0 0-72-89-76-101-3-12-10-46 62-49 0 0-17-79 94-44l-14 162z"/><path d="m19740 12384c0 0 11-8 28-23-9 106-19 213-28 320-23-41-38-102-31-191l-31-76c0 0-79 268 52 389l-4 47c-31-3-63-9-82-21 0 0 29 48 77 84l-17 195c-37 3-66 10-66 10-35 0-100 31-103 56-3 25 28 22 31 31 3 8 16 48 0 48-16 0-85 34-110-56-25-90 35-112 50-120 16-8-82-90-85-160-3-70 85-115 85-115 0 0-216-193-373-62 0 0-19-171 198-174 216-3 238 67 238 67 0 0 19-134-72-151-91-17-78-90-88-106 0 0 44 34 97 11 0 0-6-90-72-115-66-25-50-3-78 17-28 20-91 3-94-36-3-39 13-112 147-106 135 6 295 238 295 238h38zm-138 653c6-62 103-56 103-56-129-45-125-171-125-171-94 90 16 288 22 227z"/><path d="m19843 11483c-88 0-109 13-128 59-21 52-21 141-21 141 0 0 45-71 137-63l-3 36c-60 45-151 152-75 354 0 0-169-135-172-316-3-164 64-330 274-361-4 50-8 101-12 151z"/><path d="m18998 13114c52-20 123-17 215 40 249 155 186 212 202 288 16 76 38 139 38 139 0 0-24-269 158-290 0 0-94 65-99 284-5 218 7 317 33 410 13 47 40 116 67 176-6 77-13 154-19 231-48-16-97-23-147-17-113 14-133 115-133 115 0 0-48-166 87-209 135-43 7-99-88-106-95-7-153-23-316 36 0 0 43-155 203-157 160-2 191 27 362 134 0 0-45-183-139-267 0 0-108-15-127 48 0 0 2-82 75-95 0 0-101-95-174-105-73-11-162-34-249 34-44 34-11 50 33 58-9-7-15-16-15-26 0-23 31-42 68-42 38 0 68 19 68 42 0 2-1 4-1 7 0 0 1 14-24 26 2 0 3 0 4 0 0 0-2 0-5 1-10 5-25 9-46 13-54 8-92-3-114-16 0 0-1 0-1-1-1-1-2-1-3-2-2-1-4-3-6-4-3-3-7-5-9-8h1c-6-7-11-17-12-29-7-57 24-113 188-147 0 0 0-65-134-65 0 0 169-74 249 78 0 0 26 44 31 50 5 6 103 48 214 141 0 0-14-233-59-321-45-88-188-84-205-42 0 0-87-8-101-111-14-103 31-107 31-107 0 0-31-72-102-85-24-4-52-2-85 12-12 5-25 12-39 20 0 0 11-30 35-62 20-26 49-54 88-69z"/><path d="m19979 8778c12 1 26 8 41 19-3 72-6 144-9 216-69-7-95-10-130 22-40 36-45 61-45 61 0 0-99-124-31-218 68-95 134-101 174-99z"/><path d="m19978 8657c-44 87-201 106-213 148-13 42-78 73-34 218 0 0-94-210-22-372 72-162 88-151 88-151 0 0 141-22 176-3 0 0 50 73 6 160z"/><path d="m20033 8308c-29-27-51-63-52-113-1-50 18-95 48-133 3 81 4 163 4 246z"/></g><g stroke-width="7.62"><text x="10500" y="14850" font-family="&apos;Arial&apos;" font-weight="bold" font-size="706.63" transform="matrix(.98379 0 0 1 4532.62 8514.12)">00.00.0000</text><text x="10500" y="14850" font-family="&apos;Monotype Corsiva&apos;" font-style="italic" font-size="3753.18" transform="matrix(.98379 0 0 1 4213.41 7149.71)">T2</text></g></g><g font-family="&apos;Arial Black&apos;" font-weight="900" font-size="524.49"><text x="10500" y="14850" transform="matrix(.98379 0 0 1 5306.63 3288.16)">NN 1</text><text x="10500" y="14850" transform="matrix(.98379 0 0 1 5285.49 3812.7)">NN 2</text></g></g><g fill="#373435" font-family="&apos;Arial&apos;" font-weight="normal" font-size="423.33"><text x="1597" y="27770">DESC 01</text><text x="1597" y="28242">DESC 02</text><text x="1597" y="28715">DESC 03</text></g></svg>