<svg xmlns="http://www.w3.org/2000/svg" width="744.09" height="1052.36" viewBox="0 0 21000 29700" shape-rendering="geometricPrecision" image-rendering="optimizeQuality" fill-rule="evenodd" text-rendering="geometricPrecision" clip-rule="evenodd"><text x="10081" y="24465" fill="#201e1e" font-family="&apos;Arial Black&apos;" stroke="#201e1e" font-weight="900" stroke-width="7.62" font-size="705.56">36</text><g fill="none" stroke="#373435" stroke-width="80"><circle cx="10533" cy="1326" r="460"/><path d="m10533 515v1621"/><path d="m9723 1326h1621"/><circle cx="10533" cy="25836" r="460"/><path d="m10533 25026v1621"/><path d="m9723 25836h1621"/></g><g fill="#fff"><rect x="9843" y="22866" width="1347" height="637" rx="318" stroke="#fff" stroke-width="20"/><path d="m6675 25329c-1191 595-3453 480-4140-621-685-1098-530-4211-595-5737-163-3822-574-6721-680-9803-118-3423 2148-5686 4858-6324 3823-899 3597 4369 3066 7076-279 1454-829 2720-1180 4143-648 2623-61 6627-286 9357-116 944-421 1570-1043 1909"/></g><g fill="#201e1e"><g stroke="#201e1e"><g stroke-linejoin="round" stroke-linecap="round" stroke-width="17.64"><path d="m3098 19310c7 21 49 13 69 6 20-7 11-25 21-34 10-9 35-16 35-16 5-18 0-23-35-23-35 0-94-41-94-41-49-14-7 46-2 52 5 6 0 36 7 57z"/><path d="m2613 19430c78-24 120-62 214-83 94-21 165-21 175-6 10 15 26 39 19 56 0 0 55-119 10-190-45-71-84-45-84-45 0 0-168 18-211 56-42 39-62-36-58-45 0 0-68 3-68 122 0 119-94 15-110 3-16-12 3-24 0-65-3-42-78-80-146-42-68 39-71 113-6 175 65 62 188 86 266 62z"/><path d="m1949 19207c21-27 32-55 34-71 4-36 9-84-38-81 2 49 3 99 5 151z"/><path d="m4220 17631c-10-300-211-345-308-351-97-6-214 21-201 125 13 104 178 199 194 95 16-104-62-95-62-95 0 0-26 0-26-30 0-30 68-68 143-51 75 18 6 83 16 137 10 53 130 71 117 205-12 121-118 161-139 168 1-2 2-3 3-5 55-98-32-181-32-181 3 187-262 247-363 238-70-6-150-59-192-90 26 5 74 7 159 1 227-15 81-294 81-294 29 86-58 149-130 152-71 3-120 6-275-104-156-110-321-321-321-321 0 0 262 42 392 39 130-3 91-131 81-190-10-59-55-113-169-86-113 27-104 86-382 77-279-9-399-113-447-163-46-48-215-79-235-83 9 1 61 3 312-33 292-42 343-3 343-3-29 74 23 95 84 77 62-18 78-59 55-131-23-71-314-24-314-24 0 0 431-149 492-312 62-163 49-253 45-241-3 12-39 101-49 77-10-24-13-62 13-95 26-33 23-166 23-166 0 15-55 36-55 36 0 0-32 74 0-6 32-80 3-199 3-199 0 59-75 59-75 59-198-140-298-18-298-18 194 27 156 193 156 193 0 0-194-68-133-30 1 1 2 1 2 2 58 39 33 109 7 138-26 30-62 98-58 154 4 56 72 101 99 157 27 56-34 101-122 171-77 61-297 93-349 100 40-7 173-43 163-232-11-223-186-223-262-202-76 21-76 105-76 105 110-35 163-17 160 101-4 118-87 185-178 223-88 37-130 29-300 28l7 107c78 2 164 15 252 48 298 113 292 363 324 517 32 155-100 190-100 190 214 39 175-247 204-223 1 1 1 1 2 2 29 36 59 308-61 339-123 33-191-33-191-33-6 110 75 160 230 166 156 6 146-253 146-253 91 193-78 410-211 437-133 27-253-134-253-134-152 131 91 244 91 244-172-3-220-30-318-89-19-11-33-26-44-44 2 43 5 86 7 128 68 45 176 81 345 94 428 33 386-425 424-279 1 3 1 5 2 8 29 145-209 334-209 334l7 1c-77 74-142 140-175 171-32 19-65 35-81 29-35-12-44-88-101-113-57-24-83-36-153-40-20-1-36-5-49-10 2 47 5 94 7 142 90 20 138 94 138 94-55 5-99 4-134 0 3 55 5 111 8 167 21-15 40-29 47-39 0 0 145-20 175-24 0 0 7-96 35-109 9-4 88-24 123-48 0 0-61 109-66 193-4 84-22 265 57 330l57 20c0 0-107-129-18-354l10-40c40-94 106-176 224-299 23-24 42-46 57-67 33-26 136-135 136-471 0-401-253-728-253-728 350 157 266 178 483 383 217 205 120 582 97 627-23 45-181 21-181 21 0 0 39 110 227 54 188-56 97-383 97-383 184 76 175 434 175 449-17 88-63 200-189 244 0 0 199-23 221-140 0 0 89 148-17 245l-29 27c0 0-85-56-148-9-63 47-36 129-27 154 10 25 63 31 63 31 0 0-58 127 5 194 63 67 165 13 165 13 0 0 61-45 58-105 0 0 15 25 100 25 85 0 117-36 136-71 19-36-5-136-58-152-53-16-163-38-173 20l-7 20-63 2v-45l66-33c0 0 51-36 44-169 0 0 73 78 175 65 102-13 228-47 221-149-7-103-58-160-114-158-56 2-117 58-117 98 0 40 24 62 61 65 36 2 49-49 49-56 0-7-19-25-19-25 0 0 58-36 66 4 7 40 46 96-27 134-73 38-148 49-211-20-52-57-78-92-98-184h1c-2-83-33-230-50-306-3-16-6-29-9-40-1-6-2-10-2-10 279 98 745-6 735-306zm-2337 178c4-11 9-21 14-29 42-68 168-56 168-56 0 0 3 39-6 39-10 0-49 18-49 54 0 36 45 71 91 80 45 9 58-62 58-62 0 0 55-163-149-160-57 1-100 15-133 38l6 98zm1044-1638c62-55 39-139 39-139 0 0 62 101 54 223-8 122-101 213-101 213 101-149 43-249 43-249 0 0 2 33-51 72-52 40-69 124-69 124-94-141 22-189 84-244zm-546 2342v-11h8l-8 11zm1203 274v-6c115-24 69 11 85 52 15 41-18 24-46 28-28 4-35-8-45-14-9-6-2-11-5-31-3-20 9-21 11-30zm-294-37c-11-10-9-18-6-41 3-23 26-25 26-25 86-4 57 7 65 27 8 20-23 41-34 49-11 8-40 0-51-10zm174 116c18 17 6 41-11 78-17 37-66 37-86 37-20 0-26-23-34-72-8-49 45-58 49-59 0 0 63 0 82 17z"/><path d="m5033 5017c-10 7-16 11-16 11 6-3 11-7 16-11z"/><path d="m3319 4257c20 105 127 179 207 179 100 0 110-30 113-107 3-77-32-86-58-89-26-3-42 24-42 42 0 18 16 56-26 50-42-6-36-18-65-59-29-42 13-146 55-149 42-3 52 18 52 18l68-3c0 0-16-53-32-68-6-6-11-13-14-25-88 68-174 139-258 211z"/><path d="m2782 4784c111 27 269 9 274-59 6-83-94-95-123-83-7 3-16 6-26 7-43 44-84 90-126 135z"/><path d="m3076 4615c62 51 113 98 201 98 87 0 162-42 162-86 0-45-19-143-100-143-81 0-97 53-97 53l-10 30c0 0-120 6-81-140 2-9 5-17 6-25-41 39-82 78-122 118 2 37 14 72 41 95z"/><path d="m3819 4628c167 77 38 275 0 275-19 0-25-4-27-14 22-6 38-21 38-41 0-24-25-43-55-43-19 0-35 7-45 18-8 8-14 18-15 30-4 46-33 168 83 153 117-15 246-130 138-360 0 0 138 38 300 38 163 0 384-73 542-226 159-153 334-325 509-302 0 0-38-99-192-99-154 0-167 115-167 115 0 0 4-99 4-191 0-92-163-375-530-375-367 0-334 218-334 314 0 96 38 172 129 172 92 0 88-80 88-80 0 0 25-80-121-80l-25 34c0 0-42-76-4-92 0 0 209-15 254-145 0 0 104-54 200 4l21 19c0 0-154-8-159 99 0 0 246-38 292 57 46 96 108 237 38 413 0 0-29-306-184-302-154 4-213-57-204-80 0 0-92 80-63 164 29 84 196 15 221 31 25 15 79 42 79 42 0 0-259-31-284 54-25 84 0 161 63 157 2 0 3 0 5-1 6 1 11 2 17 2 40 0 72-28 72-63 0-35-32-63-72-63-9 0-17 2-25 4 9-22 46-52 182-55 213-4 38 222-83 291-121 69-292 145-526 84 0 0 284-138 209-321 0 0-129 272-505 168 0 0-33 119 133 195z"/><path d="m4760 12708c-10 7-16 11-16 11 6-3 11-7 16-11z"/><path d="m2977 11383c7 21 49 13 69 6 20-7 11-25 21-34 10-9 35-16 35-16 5-18 0-23-35-23-35 0-94-41-94-41-49-14-7 46-2 52 5 6 0 36 7 57z"/><path d="m2492 11503c78-24 120-62 214-83 94-21 165-21 175-6 10 15 26 39 19 56 0 0 55-119 10-190-45-71-84-45-84-45 0 0-168 18-211 56-42 39-62-36-58-45 0 0-68 3-68 122 0 119-94 15-110 3-16-12 3-24 0-65-3-42-78-80-146-42-68 39-71 113-6 175 65 62 188 86 266 62z"/><path d="m2693 11587c-29 98 39 226 39 226l19 104c0 0 32-15 36-42 3-27 65-83 87-83 23 0 123-3 139-18 16-15 42-107 42-107 13 6 32 48-6 196-39 149 104 264 204 264 100 0 110-30 113-107 3-77-32-86-58-89-26-3-42 24-42 42 0 18 16 56-26 51-42-6-36-18-65-59-29-42 13-146 55-149 42-3 52 18 52 18l68-3c0 0-16-53-32-68-16-15-23-39-19-140 3-101-168-193-168-193l-49 45-39-12c0 0-23 18-23 45 0 27 0 104-26 134-26 30-139 15-139 15 0 0 6-107 49-119 42-12 52-39 52-39l19-65c0 0-13 33-62 51-49 18-191 6-220 104z"/><path d="m2635 11928c0 0 23-48 32-71 10-24 13-68 0-83 0 0-13 24-19 36-6 12-23 98-13 119z"/><path d="m2538 11759l6-36c0 0-68 33-78 68-10 36 75 80 75 80 0 0 10-33 6-45-3-12-29-30-39-39-10-9 29-30 29-30z"/><path d="m2596 11723l-19 42c0 0 10 18 29 15 19-3 42-33 42-33 0 0-19-30-52-24z"/><path d="m2385 11946c-16 21-16 27-36 33-19 6 36 18 58 9 23-9 32-56 32-56 0 0-39-6-55 15z"/><path d="m2502 11910c-10 18-26 36-13 45 13 9 58 12 62 3 3-9 16-48 0-48-16 0-49 0-49 0z"/><path d="m2204 12047c-156 30-185-152-185-152-87 169 71 256 168 259 97 3 162-116 185-119 0 0-13-18-168 12z"/><path d="m2211 11869c107-3 217-119 243-155 26-36 23-125 23-125-36 98-130 113-149 125 0 0-104 15-146-6-42-21-6-74 6-101 13-27 29-89 29-89-13 0-256-3-253 157 3 160 139 196 246 193z"/><path d="m2797 11942c1-1 3-1 3-2 0 0-1 1-3 2z"/><path d="m2256 12273c0 0 6-7 17-19l-14 10-3 9z"/><path d="m2273 12254l116-85c0 0 149-119 211-152 62-33 78-18 117-33 33-13 70-36 81-42-20 10-96 10-129 16-36 6-136 62-188 92-42 24-161 154-206 204z"/><path d="m2634 12138c7-1 11-1 11-1-3 0-7 1-11 1z"/><path d="m2634 12138c-33 4-133 22-200 76-81 65-87 181 13 238 100 56 330 48 337-36 6-83-94-95-123-83-29 12-75 15-126-12-52-27-29-89-23-116 6-24 85-60 122-67z"/><path d="m2914 11875c0 0 13-36-23-42-36-6-65 51-32 56l55-15z"/><path d="m2554 11649c-3 15 19 27 32 30 13 3 26-9 39-30 13-21-19-51-19-51-42 3-49 36-52 51z"/><path d="m2803 12306c62 51 113 98 201 98 87 0 162-42 162-86 0-45-19-143-100-143-81 0-97 53-97 53l-10 30c0 0-120 6-81-140 39-146 0-65 81-205 0 0-136 101-168 166-32 65-49 175 13 226z"/><path d="m3547 12319c167 77 38 275 0 275-19 0-25-4-27-14 22-6 38-21 38-41 0-24-25-43-55-43-19 0-35 7-45 18-8 8-14 18-15 30-4 46-33 168 83 153 117-15 246-130 138-360 0 0 138 38 300 38 163 0 384-73 542-226 159-153 334-325 509-302 0 0-38-99-192-99-154 0-167 115-167 115 0 0 4-99 4-191 0-92-163-375-530-375-367 0-334 218-334 314 0 96 38 172 129 172 92 0 88-80 88-80 0 0 25-80-121-80l-25 34c0 0-42-76-4-92 0 0 209-15 254-145 0 0 104-54 200 4l21 19c0 0-154-8-159 99 0 0 246-38 292 57 46 96 108 237 38 413 0 0-29-306-184-302-154 4-213-57-204-80 0 0-92 80-63 164 29 84 196 15 221 31 25 15 79 42 79 42 0 0-259-31-284 54-25 84 0 161 63 157 2 0 3 0 5-1 6 1 11 2 17 2 40 0 72-28 72-63 0-35-32-63-72-63-9 0-17 2-25 4 9-22 46-52 182-55 213-4 38 222-83 291-121 69-292 145-526 84 0 0 284-138 209-321 0 0-129 272-505 168 0 0-33 119 133 195z"/><path d="m5136 6335c0 0 121 9 156-47 34-56-61-136-250-143 0 0 112 47 124 78 12 31 24 76-29 111z"/><path d="m5761 5504c-41 2-107 87-158 107-51 20-177 9-177 9 0 0 194-100 170-194-24-94-70-94-87-102-17-9-109-29-109-29 0 0-12 33-10 60 2 27 78 89 66 129-12 40-51 62-90 96-39 33-107 67-143 67-36 0-107-29-73-71 0 0-46 47-160 33-114-13-126-11-126-11l-126 107c0 0-5 58 75 67 80 9 153-16 231-11 78 4 126 47 126 47 0 0-107-154-151-158-44-4 7-4 7-4 0 0 102 11 131 31 29 20 73 80 141 127 68 47 209 127 209 127 0 0-204-105-304-87-100 18-148 107-124 131 0 0-85-67-49-116 0 0-39 60-199 38-161-22-192-65-192-65 0 0 22 74 148 136 126 62 156 96 272 123 117 27 199 2 282 2 83 0 155 56 165 91l2 25c0 0-15-33-78-27-63 7-46 89 2 109 49 20 151 25 170-20 19-45 2-192-343-232 0 0-143 4-124-116 0 0 19-25 78-25 58 0 185 71 255 114 70 42 173 120 185 176 0 0 27-109-32-192 0 0 51 25 90 13 0 0-36-259-202-263-165-4-177 16-207 9-29-7-51-40-29-62 22-22 168-27 238 7 70 33 90 65 185 56 95-9 124-18 165 20 41 38 46 65 46 65 0 0 102-131 32-232-70-100-138-107-180-105z"/><path d="m5593 5124c-42 4-50 16-50 30 0 13 21 52 47 58 26 6 75-4 83-24 8-19 5-64 5-64h-84z"/><path d="m5629 5375c3 10 26 45 44 39 18-6 37-28 37-39 0-10-6-59-21-56-15 3-37 16-37 16-26 15-26 30-23 40z"/><path d="m5464 5117c-10-27 6-68-58-86-65-18-369-56-580 264 0 0 185-229 437-196 0 0-10 104 62 101 71-3 149-56 139-83z"/><path d="m5762 5375c45 92 207 113 220 157 13 45 81 77 36 232 0 0 97-223 23-395-75-172-91-160-91-160 0 0-146-24-181-3 0 0-52 77-6 169z"/><path d="m5360 4746c-80 7-159-47-197-56 39-20 101-76-47-99 0 0-110-4-71 106 39 110 170 58 261 85 0 0-110-30-188 116 0 0-14 70-84 120 42-27 155-97 230-114 0 0 36 33 23 62-13 30-3 9-3 9 0 0 110-30 168-33 58-3 113 104 100 137 0 0 204-33 207-193 3-160-181-273-295-273-113 0-123 56-123 56 0 0 120-9 146 56 26 65 36 83 16 140 0 0-42-128-143-119z"/><path d="m5180 5272c27 4 41-11 46-18 5-7 27-71-2-65 0 0-48 4-62 18-15 14-3 51-3 51 0 0-5 9 22 13z"/><path d="m5489 5271c11 10 54 48 65 48 11 0 42-13 39-34-3-21-28-33-39-36-11-3-37-10-37-10-19 2-39 22-28 33z"/><path d="m5061 5234c10 9 24 33 39 25 15-9 36-58 36-58 0 0-32-25-39-27-5-1-20 8-30 15-6 4-11 7-11 7l7-2c0 7-12 31-2 40z"/><path d="m5306 5462c15-1 52-15 47-34-5-19-31-31-39-34-8-3-24 0-24 0-5 10-16 27-15 39 1 12 16 31 31 30z"/><path d="m5003 5245c-7 7-32 29-22 31 10 2 34 2 34 2 0 0 19-16 17-25-2-9-22-16-29-9z"/><path d="m5321 5352c7-9 26-48 24-52-2-4-26-46-40-48-50-5-55 50-50 64 5 13 60 45 66 36z"/><path d="m4811 6097c0 0-34-47-53-74-19-27-78-100-107-78-29 22-46 127-49 116-2-11-2-163-2-163 0 0-12-58-12-87 0-29 17-56-29-114-46-58-243-62-243-62 148-29 219 11 219 11 0 0 66 2 131 136 66 134 333 53 333 53 0 0-143 4-204-2-61-7-104-85-104-85l-20-56c0 0 134-69 165-120 32-51 112-91 112-91-44 27-63 96-63 96 0 0 85 9 148 4 63-4 124-94 146-138 22-45 44-105 44-105 0 0-24-33-124-36-100-2-204 65-228 100-24 36-66 149-87 176-22 27-112 80-112 80l-39-7c0 0 53-45 80-67 27-22 70-78 75-118 5-40 2-109 2-109-41-2-126 31-172 85-46 53 2 134 2 134l-20 57c0 0-47-57-61-71-14-14-12-90 10-124 23-33 80-78 86-133 7-56 61-48 80-171 16-105 82-188 102-210-36 49-17 233-7 227 10-6 121-133 135-206 14-73 83-167 83-167 0 0-41 38-173-22-132-60-303-17-303-17-9 5-100 22-100 22 190 79 175 205 175 205l-16 22-43-10c0-38-16-70-57-116-42-46-128-37-128-37 0 0 9 59 45 84 36 25 33 146 29 329-1 75 6 144 15 198 5-89 32-269 177-307 0 0-172 138-150 418l-8-18c6 22 10 34 10 34-80-51-107-79-154-124-47-44-55-136-55-136 62 16 95 102 95 102h24c16-38-5-113-59-192-54-79-180-125-180-125 28 98 121 132 121 132 0 0-10 25-128-32-118-57-234 38-234 38 24 43 62 92 147 102 85 10 121 41 121 41-81 3-126 67-126 67 163-25 244 37 244 37 0 0 27 33-165 94-192 60-209 196-209 196 163-71 192 78 335 91 143 13 231-56 231-56l15 47-10 25c-97 136-12 359-46 386-34 27-95 38-95 38 173 87 326-27 347-109 22-82 90-87 90-87z"/><path d="m4971 6386c29-107 117-98 44-212-65-101-199-133-233-160 18 21 60 72 70 77 12 7 92 58 92 127 0 0-61-98-121-94 0 0-58 20-66 67-7 47 7 130 29 172 22 41 53 111 0 160 0 0 156-31 185-138z"/><path d="m3850 8045c-88 49-264 27-264-92 0-119-83-130-120-130-37 0-83 103-144 108 0 0 132 13 161 166 29 153 83 110 240 114 0 0 17 128 95 114 78-13 228-105 245-229 17-123 10-254 159-247 0 0 0-119-149-108-149 11-135 254-223 303z"/><path d="m2598 6432c1 18 4 36 7 55 54 341 206 518 529 526 322 8 408-230 408-316 0-86-67-156-148-156-81 0-157 45-157 107 0 62 45 123 166 103 0 0-36 123-197 140-161 16-260-62-260-62 0 0 81-103 206-78 0 0-188-66-264 16l-22 25c0 0-175-41-179-308 0-13 0-25 1-38-34-15-63-17-88-13z"/><path d="m3491 5750c-157-114-235-276-147-319 88-43 34-121 15-126-20-4-120-13-120 70 0 0-144-168-51-280 0 0-186 96-174 229 12 132 83 274 181 339 0 0-115-13-213-159-98-146-142-155-161-411 0 0-20-110 59-123 78-13 76 63 122 45 46-18 76-114-10-128-86-13-193 16-203 94-10 79-15 215 7 267 0 0-163-47-226 31-63 79-112 150-39 206 73 56 110 14 108-13-3-28-53-48-69-28 0 0-56-6-17-64 39-58 117-128 210-81 93 47 73 75 115 145 42 70 189 290 335 304 147 13 179 49 179 49 0 0-274-45-457 78-152 102-317 221-338 453 41 16 71 45 91 73 26-219 173-361 417-456 0 0-112 259 179 304 0 0-92-378 334-327 0 0-200 105-178 273 0 0 228-29 305-78 0 0-63 78-22 168 0 0 76-107 228-94 152 12 296 94 260 460 0 0-40-329-197-361-157-33-188 8-188 8 0 0 18 78 121 148 103 70 116 107 121 189 4 82-112 242-40 370 0 0-219 242-246 341-27 99-31 148-31 148l-31-242c0 0-31-136-121-140-90-4-125 78-125 115 0 37 85 90 166 58l40 160c0 0 27 33 27 123 0 90-45 214-45 259 0 45-22 131 40 144 63 12 103 16 130 4 27-12 38-104 21-216 0 0 37-301 206-422 169-121 269-96 276-43 7 54 59 130-34 305 0 0 299-148 186-379 0 0 176 43 198 103 22 60 72 157-107 245-3 1-5 3-8 4 0 0 225 61 262-108 0 0 32 132-17 164-49 31-100 43-100 85 0 43-61 204-294 153 0 0 130 132 306 58 176-74 232-159 232-334 0-175-54-435-470-473 0 0 514-9 617 204 0 0 22 72-76 121 0 0 42 22 73-4 0 0-64 74-64 155 0 81-7 180-39 213 0 0 130-105 142-171 12-65 86-101 93-108 0 0 2 101-27 159-29 58-51 27-73 94-22 67-56 173-115 220-59 47-66 85-208 103 0 0 301-9 347-65 46-56 95-72 115-141 19-67 6 114-23 165 25-39 172-270 138-362 0 0 35 5 46 16 1 1 2 3 3 4 5 13 22-54 29-54 0 0 49 2 61 36 0 0 20-90-110-90-130 0 15-267-328-402l-20-31c0 0 127-101 142-263 0 0-117 166-252 180-135 13-196-45-196-45 0 0 343-103 367-256 25-153-49-206-110-211-61-5-171 56-157 110 15 54 39 74 64 74 24 0 115-58 51-101 0 0 59-18 68 11 10 29 73 222-284 316-357 94-411 2-592 135-181 132-191 141-191 141 0 0 83-150 174-258 91-108 66-287 360-310 0 0-71-96-196-38 0 0-37-128-15-238 22-110-54-222-34-289 20-67 54-200 159-249 0 0-206 27-252 195v45c0 0-139-141-232-180-93-38-176-222-161-289 15-67 51-54 78-65 27-11 86-79-10-119-95-40-176-29-184 70-7 99 86 292 137 366 0 0-159-47-316-162zm925 1472c0 0 83 117 0 214 0 0 33-77-50-199l50-15z"/><path d="m4559 6976c0 0 101-17 143-67 42-51 61-128-7-202 0 0-6 35-73 39 0 0 112 146-62 231z"/><path d="m4225 7429c-90-17-136 13-193 54-57 40-55 109-55 109 59-113 151-91 151-91-26 44 33 69 81 59 48-10 106-115 17-131z"/><path d="m4321 5056c0 0 77 31 91 111 0 0 20-250-94-250-114 0-98 65-98 80 0 15 20 77 101 59z"/><path d="m1686 11350c118 0 171-105 175-141 4-36 9-84-39-80-48 4-110 24-110 56 0 32 31 60 31 60l-57 20c-92-16-162-109-167-221-4-113 105-221 105-221 0 0-193 97-193 273 0 177 136 253 254 253z"/><path d="m1352 10941c23-20 35-36 35-36-13 6-25 11-37 16l1 21z"/><path d="m4099 9705c-10-300-211-345-308-351-97-6-214 21-201 125 13 104 178 199 194 95 16-104-62-95-62-95 0 0-26 0-26-30 0-30 68-68 143-51 75 18 6 83 16 137 10 53 130 71 117 205-12 121-118 161-139 168 1-2 2-3 3-5 55-98-32-181-32-181 3 187-262 247-363 238-70-6-150-59-192-90 26 5 74 7 159 1 227-15 81-294 81-294 29 86-58 149-130 152-71 3-120 6-275-104-156-110-321-321-321-321 0 0 262 42 392 39 130-3 91-131 81-190-10-59-55-113-169-86-113 27-104 86-382 77-279-9-399-113-447-163-46-48-215-79-235-83 9 1 61 3 312-33 292-42 343-3 343-3-29 74 23 95 84 77 62-18 78-59 55-131-23-71-314-24-314-24 0 0 431-149 492-312 62-163 49-253 45-241-3 12-39 101-49 77-10-24-13-62 13-95 26-33 23-166 23-166 0 15-55 36-55 36 0 0-32 74 0-6 32-80 3-199 3-199 0 59-75 59-75 59-198-140-298-18-298-18 194 27 156 193 156 193 0 0-194-68-133-30 1 1 2 1 2 2 58 39 33 109 7 138-26 30-62 98-58 154 4 56 72 101 99 157 27 56-34 101-122 171-77 61-297 93-349 100 40-7 173-43 163-232-11-223-186-223-262-202-76 21-76 105-76 105 110-35 163-17 160 101-4 118-87 185-178 223-91 38-133 28-319 28-186 0-338 132-338 132l34 31c0 0 284-122 582-9 298 113 292 363 324 517 32 155-100 190-100 190 214 39 175-247 204-223 1 1 1 1 2 2 29 36 59 308-61 339-123 33-191-33-191-33-6 110 75 160 230 166 156 6 146-253 146-253 91 193-78 410-211 437-133 27-253-134-253-134-152 131 91 244 91 244-172-3-220-30-318-89-97-59-84-223-42-291 42-68 168-56 168-56 0 0 3 39-6 39-10 0-49 18-49 53 0 36 45 71 91 80 45 9 58-62 58-62 0 0 55-163-149-160-204 3-237 184-230 273 7 89 39 270 467 303 428 33 386-425 424-279 1 3 1 5 2 8 29 145-209 334-209 334l7 1c-77 74-142 140-175 171-32 19-65 35-81 29-35-12-44-88-101-113-57-24-83-36-153-40-70-4-92-40-92-60 0-20-70 40-123 40-53 0-123-88-118-141 4-52 48-133 48-133 0 0-197 64-153 197 44 133 149 205 149 205 0 0-118 44-140 109 0 0 123 97 285 93l44-16c0 0-9 109 0 145 0 0 101-60 118-84 0 0 145-20 175-24 0 0 7-96 35-109 9-4 88-24 123-48 0 0-61 109-66 193-4 84-22 265 57 330l57 20c0 0-107-129-18-354l10-40c40-94 106-176 224-299 23-24 42-46 57-67 33-26 136-135 136-471 0-401-253-728-253-728 350 157 266 178 483 383 217 205 120 582 97 627-23 45-181 21-181 21 0 0 39 110 227 53 188-56 97-383 97-383 184 76 175 434 175 449-17 88-63 200-189 244 0 0 199-23 221-140 0 0 89 148-17 245l-29 27c0 0-85-56-148-9-63 47-36 129-27 154 10 25 63 31 63 31 0 0-58 127 5 194 63 67 165 13 165 13 0 0 61-45 58-105 0 0 15 25 100 25 85 0 117-36 136-71 19-36-5-136-58-152-53-16-163-38-173 20l-7 20-63 2v-45l66-33c0 0 51-36 44-169 0 0 73 78 175 65 102-13 228-47 221-149-7-103-58-160-114-158-56 2-117 58-117 98 0 40 24 62 61 65 36 2 49-49 49-56 0-7-19-25-19-25 0 0 58-36 66 4 7 40 46 96-27 134-73 38-148 49-211-20-52-57-78-92-98-184h1c-2-83-33-230-50-306-3-16-6-29-9-40-1-6-2-10-2-10 279 98 745-6 735-306zm-1293-1460c62-55 39-139 39-139 0 0 62 101 54 223-8 122-101 213-101 213 101-149 43-249 43-249 0 0 2 33-51 72-52 40-69 124-69 124-94-141 22-189 84-244zm-1141 2334c175-68 272 80 272 80-259 24-272-80-272-80zm595 8v-10h8l-8 10zm1203 274v-6c115-24 69 11 85 52 15 41-18 24-46 28-28 4-35-8-45-14-9-6-2-11-5-31-3-20 9-21 11-30zm-294-37c-11-10-9-18-6-41 3-23 26-25 26-25 86-4 57 7 65 27 8 20-23 41-34 49-11 8-40 0-51-10zm174 116c18 17 6 41-11 78-17 37-66 37-86 37-20 0-26-23-34-72-8-49 45-58 49-59 0 0 63 0 81 17z"/><path d="m1941 7217c0 0-23 26-9 34 14 9 23 43 37 30 14-13 9-64-28-64z"/><path d="m1998 7145c0 0-12-44-29-38 0 0-36 9-36 31 0 22 27 40 39 40 12 0 26-33 26-33z"/><path d="m2010 7030c-5-11-2-44-51-35 0 0-36 13-31 31 5 18 22 42 41 42 19 0 46-27 41-38z"/><path d="m1924 6858c-24 2-24 31-22 51 2 20 34 44 46 40 12-4 39-24 39-46 0-22-55-45-63-44z"/><path d="m1880 6699c0 0-48 29-46 53 2 24 10 38 75 38 65 0 77-13 72-49-5-35-53-44-101-42z"/><path d="m1854 6602c0 0-24 24-12 33 12 9 34 20 58 20 24 0 75-38 65-55-10-18-67-42-111 2z"/><path d="m1700 6523c4 6 9 12 15 17 52 53 78 59 78 59 0 0 62-62 120-59 0 0-42-86 26-143 0 0-98-56-187 1l-4 8c6 5 16 16 9 27 0 0-6-4-17-9-14 33-27 66-40 99z"/><path d="m1924 6031c3-1 6-3 8-4 0 0-8 13-22 31-44 87-86 176-126 266 7 1 14 1 21 0 65-9 133 9 133 9 36 0 104 33 107 59 3 27-29 24-32 33-3 9-16 51 0 51 16 0 88 36 113-59 26-95-36-119-52-128-16-9 84-95 87-169 3-74-87-122-87-122 0 0 224-205 386-65 0 0 19-181-204-184-98-1-157 12-193 28-48 84-95 169-139 256zm333-569c31 2 68-16 70-47 1-13 0-30-6-47-22 31-43 63-64 94zm-283 785c-6-65-107-59-107-59 133-48 130-181 130-181 97 95-16 306-23 241z"/><path d="m2598 6328c-54-21-127-18-222 43-258 165-192 225-209 305-17 80-39 147-39 147 0 0 24-285-163-308 0 0 97 69 102 301 5 232-7 336-34 435-27 98-109 285-131 316-22 31-41-107-34-196 7-89 58-321-44-419-102-98-95-145-87-165 7-20 39-49 39-56 0-7 49-38-5-78 0 0 22 47-87 40-20-1-34-7-43-15-6 17-13 35-19 52 14 10 23 20 25 29 7 27 55 137 55 137 0 0-50-61-105-97-6 17-11 33-17 50 75 42 268 164 264 400 0 0-130-279-285-297-4 0-8-1-12-1-19 60-36 120-53 181 79 39 201 77 247 284 55 244-32 336-32 336 0 0-49-3-45-107 3-104 13-247-152-297 0 0-84 65-81 178 2 60 16 95 29 114-17-16-44-37-75-52-3 14-6 28-9 42l57 68c65 77 104 181 91 232-12 46-92 180-231 264-4 36-7 71-10 107 6 13 11 25 11 31 0 0 131-132 179-189 48-57 107-108 159-99 53 8 83 30 89 61 6 30-11 36-41 33-30-3-99-25-126 25-27 50 9 132 104 130 95-3 182-102 176-184-6-81-78-142-159-155 0 0 32-85 134-168 102-82 212-137 329-122 116 14 137 122 137 122 0 0 50-176-90-221-139-46-7-105 91-112 98-8 158-24 326 38 0 0-45-165-210-167-165-2-197 29-374 143 0 0 46-194 143-283 0 0 112-16 131 51 0 0-2-87-78-100 0 0 104-100 180-111 75-11 168-36 258 36 45 36 12 53-34 61 10-7 15-17 15-27 0-24-32-44-71-44-39 0-71 20-71 44 0 2 1 5 1 7 0 0-1 15 25 28-2 0-4 0-4 0 0 0 2 0 5 1 11 5 26 10 48 13 56 9 95-3 118-17 0 0 1 0 1-1 1-1 2-1 3-2 2-1 4-3 6-4 4-3 7-6 9-8h-1c6-8 11-18 13-31 7-60-24-120-194-156 0 0 0-69 139-69 0 0-175-78-258 82 0 0-27 47-32 53-5 7-107 51-221 149 0 0 15-247 61-341 46-94 194-89 211-45 0 0 90-9 104-118 15-109-32-114-32-114 0 0 32-76 105-90 25-5 54-2 88 13 13 5 26 13 40 22 0 0-11-32-37-66-21-28-50-57-91-73z"/><path d="m4864 14026c0 0 121 9 156-47 34-56-61-136-250-143 0 0 112 47 124 78 12 31 24 76-29 111z"/><path d="m5489 13195c-41 2-107 87-158 107-51 20-177 9-177 9 0 0 194-100 170-194-24-94-70-94-87-102-17-9-109-29-109-29 0 0-12 33-10 60 2 27 78 89 66 129-12 40-51 62-90 96-39 33-107 67-143 67-36 0-107-29-73-71 0 0-46 47-160 33-114-13-126-11-126-11l-126 107c0 0-5 58 75 67 80 9 153-16 231-11 78 4 126 47 126 47 0 0-107-154-151-158-44-4 7-4 7-4 0 0 102 11 131 31 29 20 73 80 141 127 68 47 209 127 209 127 0 0-204-105-304-87-100 18-148 107-124 131 0 0-85-67-49-116 0 0-39 60-199 38-161-22-192-65-192-65 0 0 22 74 148 136 126 62 156 96 272 123 117 27 199 2 282 2 83 0 155 56 165 91l2 25c0 0-15-33-78-27-63 7-46 89 2 109 49 20 151 25 170-20 19-45 2-192-343-232 0 0-143 4-124-116 0 0 19-25 78-25 58 0 185 71 255 114 70 42 173 120 185 176 0 0 27-109-32-192 0 0 51 25 90 13 0 0-36-259-202-263-165-4-177 16-207 9-29-7-51-40-29-62 22-22 168-27 238 7 70 33 90 65 185 56 95-9 124-18 165 20 41 38 46 65 46 65 0 0 102-131 32-232-70-100-138-107-180-105z"/><path d="m5321 12815c-42 4-50 16-50 30 0 13 21 52 47 58 26 6 75-4 83-24 8-19 5-64 5-64h-84z"/><path d="m5357 13066c3 10 26 45 44 39 18-6 37-28 37-39 0-10-6-59-21-56-15 3-37 16-37 16-26 15-26 30-23 40z"/><path d="m5191 12808c-10-27 6-68-58-86-65-18-369-56-580 264 0 0 185-229 437-196 0 0-10 104 62 101 71-3 149-56 139-83z"/><path d="m5489 13066c45 92 207 113 220 157 13 45 81 77 36 232 0 0 97-223 23-395-75-172-91-160-91-160 0 0-146-24-181-3 0 0-52 77-7 169z"/><path d="m5088 12436c-80 7-159-47-197-56 39-20 101-76-47-99 0 0-110-4-71 106 39 110 170 58 261 85 0 0-110-30-188 116 0 0-14 70-84 120 42-27 155-97 230-114 0 0 36 33 23 62-13 30-3 9-3 9 0 0 110-30 168-33 58-3 113 104 100 137 0 0 204-33 207-193 3-160-181-273-295-273-113 0-123 56-123 56 0 0 120-9 146 56 26 65 36 83 16 140 0 0-42-128-143-119z"/><path d="m4908 12963c27 4 41-11 46-18 5-7 27-71-2-65 0 0-48 4-62 18-15 14-3 51-3 51 0 0-5 9 22 13z"/><path d="m5217 12962c11 10 54 48 65 48 11 0 42-13 39-34-3-21-28-33-39-36-11-3-37-10-37-10-19 2-39 22-28 33z"/><path d="m4789 12925c10 9 24 33 39 25 15-9 36-58 36-58 0 0-32-25-39-27-5-1-20 8-30 15-6 4-11 7-11 7l7-2c0 7-12 31-2 40z"/><path d="m5034 13152c15-1 52-15 47-34-5-19-31-31-39-34-8-3-24 0-24 0-5 10-16 27-15 39 1 12 16 31 31 30z"/><path d="m4730 12936c-7 7-32 29-22 31 10 2 34 2 34 2 0 0 19-16 17-25-2-9-22-16-29-9z"/><path d="m5049 13042c6-9 26-48 24-52-2-4-26-46-40-48-50-5-55 51-50 64 5 13 60 45 66 36z"/><path d="m4538 13788c0 0-34-47-53-74-19-27-78-100-107-78-29 22-46 127-49 116-2-11-2-163-2-163 0 0-12-58-12-87 0-29 17-56-29-114-46-58-243-62-243-62 148-29 219 11 219 11 0 0 66 2 131 136 66 134 333 53 333 53 0 0-143 4-204-2-61-7-104-85-104-85l-20-56c0 0 134-69 165-120 32-51 112-91 112-91-44 27-63 96-63 96 0 0 85 9 148 4 63-4 124-94 146-138 22-45 44-105 44-105 0 0-24-33-124-36-100-2-204 65-228 100-24 36-66 149-87 176-22 27-112 80-112 80l-39-7c0 0 53-45 80-67 27-22 70-78 75-118 5-40 2-109 2-109-41-2-126 31-172 85-46 53 2 134 2 134l-20 57c0 0-47-57-61-71-14-14-12-90 10-124 22-33 80-78 86-133 7-56 61-48 80-171 16-105 82-188 102-210-36 49-17 233-7 227 10-6 121-133 135-206 14-73 83-167 83-167 0 0-42 38-173-22-132-60-303-17-303-17-9 5-100 22-100 22 190 79 175 205 175 205l-16 22-43-10c0-38-16-70-57-116-42-46-128-37-128-37 0 0 9 59 45 84 36 25 33 146 29 329-1 75 6 144 15 198 5-89 32-269 177-307 0 0-172 138-150 418l-8-18c6 22 10 34 10 34-80-51-107-79-154-124-47-44-55-136-55-136 62 16 95 102 95 102h24c16-38-5-113-59-192-54-79-180-125-180-125 28 98 121 132 121 132 0 0-10 25-128-32-118-57-234 38-234 38 24 43 62 92 147 102 85 10 121 41 121 41-81 3-126 67-126 67 163-25 244 37 244 37 0 0 27 33-165 94-192 60-209 196-209 196 163-71 192 78 335 91 143 13 231-56 231-56l15 47-10 25c-97 136-12 359-46 386-34 27-95 38-95 38 173 87 326-27 347-109 22-82 90-87 90-87z"/><path d="m4699 14077c29-107 117-98 44-212-65-101-199-133-233-160 18 21 60 72 70 77 12 7 92 58 92 127 0 0-61-98-121-94 0 0-58 20-66 67-7 47 7 130 29 172 22 41 53 111 0 160 0 0 156-31 185-138z"/><path d="m3578 15736c-88 49-264 27-264-92 0-119-83-130-120-130-37 0-83 103-144 108 0 0 132 13 161 166 29 153 83 110 240 114 0 0 17 128 95 114 78-13 228-105 245-229 17-123 10-254 159-247 0 0 0-119-149-108-149 11-135 254-223 303z"/><path d="m2326 14123c1 18 4 36 7 55 54 341 206 518 529 526 322 8 408-230 408-316 0-86-67-156-148-156-81 0-157 45-157 107 0 62 45 123 166 103 0 0-36 123-197 140-161 16-260-62-260-62 0 0 81-103 206-78 0 0-188-66-264 16l-22 25c0 0-175-41-179-308 0-13 0-25 1-38-34-15-63-17-88-13z"/><path d="m3219 13440c-157-114-235-276-147-319 88-43 34-121 15-126-20-4-120-13-120 70 0 0-144-168-51-280 0 0-186 96-174 229 12 132 83 274 181 339 0 0-115-13-213-159-98-146-142-155-161-411 0 0-20-110 59-123 78-13 76 63 122 45 46-18 76-114-10-128-86-13-193 16-203 94-10 79-15 215 7 267 0 0-163-47-226 31-63 79-112 150-39 206 73 56 110 14 108-13-3-28-53-48-69-28 0 0-56-6-17-64 39-58 117-128 210-81 93 47 73 75 115 145 42 70 188 290 335 304 147 13 179 49 179 49 0 0-274-45-457 78-152 102-317 221-338 453 41 16 71 45 91 73 26-219 173-361 417-456 0 0-112 259 179 304 0 0-92-378 334-327 0 0-200 105-178 273 0 0 228-29 305-78 0 0-63 78-22 168 0 0 76-107 228-94 152 12 296 94 260 460 0 0-40-329-197-361-157-33-188 8-188 8 0 0 18 78 121 148 103 70 116 107 121 189 4 82-112 242-40 370 0 0-219 242-246 341-27 99-31 148-31 148l-31-242c0 0-31-136-121-140-90-4-125 78-125 115 0 37 85 90 166 58l40 160c0 0 27 33 27 123 0 90-45 214-45 259 0 45-22 131 40 144 63 12 103 16 130 4 27-12 38-104 21-216 0 0 37-301 206-422 169-121 269-96 276-43 7 54 59 130-34 305 0 0 299-148 186-379 0 0 176 43 198 103 22 60 72 157-107 245-3 1-5 3-8 4 0 0 225 61 262-108 0 0 32 132-17 164-49 31-100 43-100 85 0 43-61 204-294 153 0 0 130 132 306 58 176-74 232-159 232-334 0-175-54-435-470-473 0 0 514-9 617 204 0 0 22 72-76 121 0 0 42 22 73-4 0 0-64 74-64 155 0 81-7 180-39 213 0 0 130-105 142-171 12-65 86-101 93-108 0 0 2 101-27 159-29 58-51 27-73 94-22 67-56 173-115 220-59 47-66 85-208 103 0 0 301-9 347-65 46-56 95-72 115-141 19-67 6 114-23 165 25-39 172-270 138-362 0 0 35 5 46 16 1 1 2 3 3 4 5 13 22-54 29-54 0 0 49 2 61 36 0 0 20-90-110-90-130 0 15-267-328-402l-20-31c0 0 127-101 142-263 0 0-117 166-252 180-135 13-196-45-196-45 0 0 343-103 367-256 24-153-49-206-110-211-61-5-171 56-157 110 15 54 39 74 64 74 24 0 115-58 51-101 0 0 59-18 68 11 10 29 73 222-284 316-357 94-411 2-592 135-181 132-191 141-191 141 0 0 83-150 174-258 91-108 66-287 360-310 0 0-71-96-196-38 0 0-37-128-15-238 22-110-54-222-34-289 20-67 54-200 159-249 0 0-206 27-252 195v45c0 0-139-141-232-180-93-38-176-222-161-289 15-67 51-54 78-65 27-11 86-79-10-119-95-40-176-29-184 70-7 99 86 292 137 366 0 0-159-47-316-162zm925 1472c0 0 83 117 0 214 0 0 33-77-50-199l50-15z"/><path d="m4287 14667c0 0 101-17 143-67 42-51 61-128-7-202 0 0-6 35-73 39 0 0 112 146-62 231z"/><path d="m3953 15120c-90-17-136 13-193 54-57 40-55 109-55 109 59-113 151-91 151-91-26 44 33 69 81 59 48-10 106-114 17-131z"/><path d="m4049 12747c0 0 77 31 91 111 0 0 20-250-94-250-114 0-98 65-98 80 0 15 20 77 101 59z"/><path d="m1679 14967c5 7 11 11 17 5 13-12 10-58-22-63l5 58z"/><path d="m1726 14836c0 0-12-44-29-38 0 0-21 5-31 17l3 35c9 11 23 18 30 18 12 0 26-33 26-33z"/><path d="m1738 14721c-5-11-2-44-51-35 0 0-24 9-30 22l1 17c7 16 22 35 38 35 19 0 46-26 41-38z"/><path d="m1651 14549c-3 0-5 1-7 2l7 80c9 7 19 11 25 9 12-4 39-24 39-46 0-22-55-45-63-44z"/><path d="m1638 14480c64 0 76-14 71-49-4-30-39-41-79-42l8 91z"/><path d="m1627 14345h1c24 0 75-38 65-55-7-13-39-29-72-21l6 76z"/><path d="m1617 14233c8-2 16-2 23-2 0 0-42-86 26-143 0 0-26-15-63-22l14 166z"/><path d="m1520 13098c19 11 41 23 68 35 0 0 75-95 78-108 4-13 11-49-64-52 0 0 18-83-97-47l15 172z"/><path d="m1559 13244c0 0-11-9-29-24 10 113 19 226 29 340 23-44 39-108 32-203l32-80c0 0 82 284-54 412l4 50c32-3 65-10 85-22 0 0-30 51-79 89l18 207c39 3 68 10 68 10 36 0 104 33 107 59 3 27-29 24-32 33-3 9-16 51 0 51 16 0 87 36 113-59 26-95-36-119-52-128-16-9 84-95 87-169 3-74-87-122-87-122 0 0 224-205 386-65 0 0 19-181-204-184-224-3-246 71-246 71 0 0-19-143 75-160 94-18 81-95 91-113 0 0-45 36-100 12 0 0 6-95 75-122 68-27 52-3 81 18 29 21 94 3 97-39 3-42-13-119-152-113-139 6-305 253-305 253h-39zm143 692c-6-65-107-59-107-59 133-48 130-181 130-181 97 95-16 306-23 241z"/><path d="m1452 12288c91 0 113 13 132 63 21 55 21 150 21 150 0 0-46-75-142-67l3 38c62 48 156 162 78 375 0 0 174-143 178-336 3-174-66-350-283-383 4 53 9 107 13 160z"/><path d="m2326 14019c-54-21-127-18-222 43-258 165-192 225-209 305-17 80-39 147-39 147 0 0 24-285-163-308 0 0 97 69 102 301 5 232-7 336-34 435-14 50-42 123-69 187 7 81 13 163 20 245 49-17 100-25 152-18 116 14 137 122 137 122 0 0 50-176-90-221-139-46-7-105 91-112 98-8 158-24 326 38 0 0-45-165-210-167-165-2-197 29-374 143 0 0 46-194 143-283 0 0 112-16 131 51 0 0-2-87-78-100 0 0 104-100 180-111 75-11 168-36 258 36 45 36 12 53-34 61 10-7 15-17 15-27 0-24-32-44-71-44-39 0-71 20-71 44 0 2 1 5 1 7 0 0-1 15 25 28-2 0-4 0-4 0 0 0 2 0 5 1 11 5 26 10 48 13 56 9 95-3 118-17 0 0 1 0 1-1 1-1 2-1 3-2 2-1 4-3 6-4 4-3 7-6 9-8h-1c6-8 11-18 13-31 7-60-24-120-194-156 0 0 0-69 139-69 0 0-175-78-258 82 0 0-27 47-32 53-5 7-107 51-221 149 0 0 15-247 61-341 46-94 194-89 211-45 0 0 90-9 104-118 15-109-32-114-32-114 0 0 32-76 105-90 25-5 54-2 88 13 13 5 26 13 40 22 0 0-11-32-37-66-21-28-50-57-91-73z"/><path d="m1312 9419c-12 1-27 8-42 20 3 76 6 153 10 229 71-7 98-10 134 23 41 38 46 65 46 65 0 0 102-131 32-232-70-100-138-107-180-105z"/><path d="m1313 9290c45 92 207 113 220 157 13 45 81 77 36 232 0 0 97-223 23-395-75-172-91-160-91-160 0 0-146-24-181-3 0 0-52 77-7 169z"/><path d="m1256 8920c30-28 53-67 54-120 1-53-19-101-49-141-3 86-4 173-4 261z"/></g><g stroke-width="7.62"><text x="10500" y="14850" font-family="&apos;Monotype Corsiva&apos;" font-style="italic" font-size="3982.05" transform="matrix(.95794 0 0 1-7462.11 8480.07)">T1</text><text x="10500" y="14850" font-family="&apos;Arial&apos;" font-weight="bold" font-size="749.71" transform="matrix(.95794 0 0 1-6896.38 10043.9)">00.00.0000</text></g></g><g font-family="&apos;Arial Black&apos;" font-weight="900" font-size="556.47"><text x="10500" y="14850" transform="matrix(.95794 0 0 1-5812.43 4499.28)">NN 1</text><text x="10500" y="14850" transform="matrix(.95794 0 0 1-5834.26 5055.8)">NN 2</text></g></g><path d="m14447 25329c1191 595 3453 480 4140-621 685-1098 530-4211 595-5737 163-3822 574-6721 680-9803 118-3423-2148-5686-4858-6324-3823-899-3597 4369-3066 7076 279 1454 829 2720 1180 4143 648 2623 61 6627 286 9357 116 944 421 1570 1043 1909" fill="#fff"/><g fill="#201e1e"><g stroke="#201e1e"><g stroke-linejoin="round" stroke-linecap="round" stroke-width="17.64"><path d="m18024 19310c-7 21-49 13-69 6-20-7-11-25-21-34-10-9-35-16-35-16-5-18 0-23 35-23 35 0 94-41 94-41 49-14 7 46 2 52-5 6 0 36-7 57z"/><path d="m18509 19430c-78-24-120-62-214-83-94-21-165-21-175-6-10 15-26 39-19 56 0 0-55-119-10-190 45-71 84-45 84-45 0 0 168 18 211 56 42 39 62-36 58-45 0 0 68 3 68 122 0 119 94 15 110 3 16-12-3-24 0-65 3-42 78-80 146-42 68 39 71 113 6 175-65 62-188 86-266 62z"/><path d="m19173 19207c-21-27-32-55-34-71-4-36-9-84 38-81-2 49-3 99-5 151z"/><path d="m16902 17631c10-300 211-345 308-351 97-6 214 21 201 125-13 104-178 199-194 95-16-104 62-95 62-95 0 0 26 0 26-30 0-30-68-68-143-51-75 18-6 83-16 137-10 53-130 71-117 205 12 121 118 161 139 168-1-2-2-3-3-5-55-98 32-181 32-181-3 187 262 247 363 238 70-6 150-59 192-90-26 5-74 7-159 1-227-15-81-294-81-294-29 86 58 149 130 152 71 3 120 6 275-104 156-110 321-321 321-321 0 0-262 42-392 39-130-3-91-131-81-190 10-59 55-113 169-86 113 27 104 86 382 77 279-9 399-113 447-163 46-48 215-79 235-83-9 1-61 3-312-33-292-42-343-3-343-3 29 74-23 95-84 77-62-18-78-59-55-131 23-71 314-24 314-24 0 0-431-149-492-312-62-163-49-253-45-241 3 12 39 101 49 77 10-24 13-62-13-95-26-33-23-166-23-166 0 15 55 36 55 36 0 0 32 74 0-6-32-80-3-199-3-199 0 59 75 59 75 59 198-140 298-18 298-18-194 27-156 193-156 193 0 0 194-68 133-30-1 1-2 1-2 2-58 39-33 109-7 138 26 30 62 98 58 154-4 56-72 101-99 157-27 56 34 101 122 171 77 61 297 93 349 100-40-7-173-43-163-232 11-223 186-223 262-202 76 21 76 105 76 105-110-35-163-17-160 101 4 118 87 185 178 223 88 37 130 29 300 28l-7 107c-78 2-164 15-252 48-298 113-292 363-324 517-32 155 100 190 100 190-214 39-175-247-204-223-1 1-1 1-2 2-29 36-59 308 61 339 123 33 191-33 191-33 6 110-75 160-230 166-156 6-146-253-146-253-91 193 78 410 211 437 133 27 253-134 253-134 152 131-91 244-91 244 172-3 220-30 318-89 19-11 33-26 44-44-2 43-5 86-7 128-68 45-176 81-345 94-428 33-386-425-424-279-1 3-1 5-2 8-29 145 209 334 209 334l-7 1c77 74 142 140 175 171 32 19 65 35 81 29 35-12 44-88 101-113 57-24 83-36 153-40 20-1 36-5 49-10-2 47-5 94-7 142-90 20-138 94-138 94 55 5 99 4 134 0-3 55-5 111-8 167-21-15-40-29-47-39 0 0-145-20-175-24 0 0-7-96-35-109-9-4-88-24-123-48 0 0 61 109 66 193 4 84 22 265-57 330l-57 20c0 0 107-129 18-354l-10-40c-40-94-106-176-224-299-23-24-42-46-57-67-33-26-136-135-136-471 0-401 253-728 253-728-350 157-266 178-483 383-217 205-120 582-97 627 23 45 181 21 181 21 0 0-39 110-227 54-188-56-97-383-97-383-184 76-175 434-175 449 17 88 63 200 189 244 0 0-199-23-221-140 0 0-89 148 17 245l29 27c0 0 85-56 148-9 63 47 36 129 27 154-10 25-63 31-63 31 0 0 58 127-5 194-63 67-165 13-165 13 0 0-61-45-58-105 0 0-15 25-100 25-85 0-117-36-136-71-19-36 5-136 58-152 53-16 163-38 173 20l7 20 63 2v-45l-66-33c0 0-51-36-44-169 0 0-73 78-175 65-102-13-228-47-221-149 7-103 58-160 114-158 56 2 117 58 117 98 0 40-24 62-61 65-36 2-49-49-49-56 0-7 19-25 19-25 0 0-58-36-66 4-7 40-46 96 27 134 73 38 148 49 211-20 52-57 78-92 98-184h-1c2-83 33-230 50-306 3-16 6-29 9-40 1-6 2-10 2-10-279 98-745-6-735-306zm2337 178c-4-11-9-21-14-29-42-68-168-56-168-56 0 0-3 39 6 39 10 0 49 18 49 54 0 36-45 71-91 80-45 9-58-62-58-62 0 0-55-163 149-160 57 1 100 15 133 38l-6 98zm-1044-1638c-62-55-39-139-39-139 0 0-62 101-54 223 8 122 101 213 101 213-101-149-43-249-43-249 0 0-2 33 51 72 52 40 69 124 69 124 94-141-22-189-84-244zm546 2342v-11h-8l8 11zm-1203 274v-6c-115-24-69 11-85 52-15 41 18 24 46 28 28 4 35-8 45-14 9-6 2-11 5-31 3-20-9-21-11-30zm294-37c11-10 9-18 6-41-3-23-26-25-26-25-86-4-57 7-65 27-8 20 23 41 34 49 11 8 40 0 51-10zm-174 116c-18 17-6 41 11 78 17 37 66 37 86 37 20 0 26-23 34-72 8-49-45-58-49-59 0 0-63 0-82 17z"/><path d="m16089 5017c10 7 16 11 16 11-6-3-11-7-16-11z"/><path d="m17803 4257c-20 105-127 179-207 179-100 0-110-30-113-107-3-77 32-86 58-89 26-3 42 24 42 42 0 18-16 56 26 50 42-6 36-18 65-59 29-42-13-146-55-149-42-3-52 18-52 18l-68-3c0 0 16-53 32-68 6-6 11-13 14-25 88 68 174 139 258 211z"/><path d="m18340 4784c-111 27-269 9-274-59-6-83 94-95 123-83 7 3 16 6 26 7 43 44 84 90 126 135z"/><path d="m18046 4615c-62 51-113 98-201 98-87 0-162-42-162-86 0-45 19-143 100-143 81 0 97 53 97 53l10 30c0 0 120 6 81-140-2-9-5-17-6-25 41 39 82 78 122 118-2 37-14 72-41 95z"/><path d="m17303 4628c-167 77-38 275 0 275 19 0 25-4 27-14-22-6-38-21-38-41 0-24 25-43 55-43 19 0 35 7 45 18 8 8 14 18 15 30 4 46 33 168-83 153-117-15-246-130-138-360 0 0-138 38-300 38-163 0-384-73-542-226-159-153-334-325-509-302 0 0 38-99 192-99 154 0 167 115 167 115 0 0-4-99-4-191 0-92 163-375 530-375 367 0 334 218 334 314 0 96-38 172-129 172-92 0-88-80-88-80 0 0-25-80 121-80l25 34c0 0 42-76 4-92 0 0-209-15-254-145 0 0-104-54-200 4l-21 19c0 0 154-8 159 99 0 0-246-38-292 57-46 96-108 237-38 413 0 0 29-306 184-302 154 4 213-57 204-80 0 0 92 80 63 164-29 84-196 15-221 31-25 15-79 42-79 42 0 0 259-31 284 54 25 84 0 161-63 157-2 0-3 0-5-1-6 1-11 2-17 2-40 0-72-28-72-63 0-35 32-63 72-63 9 0 17 2 25 4-9-22-46-52-182-55-213-4-38 222 83 291 121 69 292 145 526 84 0 0-284-138-209-321 0 0 129 272 505 168 0 0 33 119-133 195z"/><path d="m16361 12708c10 7 16 11 16 11-6-3-11-7-16-11z"/><path d="m18145 11383c-7 21-49 13-69 6-20-7-11-25-21-34-10-9-35-16-35-16-5-18 0-23 35-23 35 0 94-41 94-41 49-14 7 46 2 52-5 6 0 36-7 57z"/><path d="m18629 11503c-78-24-120-62-214-83-94-21-165-21-175-6-10 15-26 39-19 56 0 0-55-119-10-190 45-71 84-45 84-45 0 0 168 18 211 56 42 39 62-36 58-45 0 0 68 3 68 122 0 119 94 15 110 3 16-12-3-24 0-65 3-42 78-80 146-42 68 39 71 113 6 175-65 62-188 86-266 62z"/><path d="m18429 11587c29 98-39 226-39 226l-19 104c0 0-32-15-36-42-3-27-65-83-87-83-23 0-123-3-139-18-16-15-42-107-42-107-13 6-32 48 6 196 39 149-104 264-204 264-100 0-110-30-113-107-3-77 32-86 58-89 26-3 42 24 42 42 0 18-16 56 26 51 42-6 36-18 65-59 29-42-13-146-55-149-42-3-52 18-52 18l-68-3c0 0 16-53 32-68 16-15 23-39 19-140-3-101 168-193 168-193l49 45 39-12c0 0 23 18 23 45 0 27 0 104 26 134 26 30 139 15 139 15 0 0-6-107-49-119-42-12-52-39-52-39l-19-65c0 0 13 33 62 51 49 18 191 6 220 104z"/><path d="m18487 11928c0 0-23-48-32-71-10-24-13-68 0-83 0 0 13 24 19 36 6 12 23 98 13 119z"/><path d="m18584 11759l-6-36c0 0 68 33 78 68 10 36-75 80-75 80 0 0-10-33-6-45 3-12 29-30 39-39 10-9-29-30-29-30z"/><path d="m18526 11723l19 42c0 0-10 18-29 15-19-3-42-33-42-33 0 0 19-30 52-24z"/><path d="m18736 11946c16 21 16 27 36 33 19 6-36 18-58 9-23-9-32-56-32-56 0 0 39-6 55 15z"/><path d="m18620 11910c10 18 26 36 13 45-13 9-58 12-62 3-3-9-16-48 0-48 16 0 49 0 49 0z"/><path d="m18918 12047c156 30 185-152 185-152 87 169-71 256-168 259-97 3-162-116-185-119 0 0 13-18 168 12z"/><path d="m18911 11869c-107-3-217-119-243-155-26-36-23-125-23-125 36 98 130 113 149 125 0 0 104 15 146-6 42-21 6-74-6-101-13-27-29-89-29-89 13 0 256-3 253 157-3 160-139 196-246 193z"/><path d="m18325 11942c-1-1-3-1-3-2 0 0 1 1 3 2z"/><path d="m18866 12273c0 0-6-7-17-19l14 10 3 9z"/><path d="m18849 12254l-116-85c0 0-149-119-211-152-62-33-78-18-117-33-33-13-70-36-81-42 20 10 96 10 129 16 36 6 136 62 188 92 42 24 161 154 206 204z"/><path d="m18488 12138c-7-1-11-1-11-1 3 0 7 1 11 1z"/><path d="m18488 12138c33 4 133 22 200 76 81 65 87 181-13 238-100 56-330 48-337-36-6-83 94-95 123-83 29 12 75 15 126-12 52-27 29-89 23-116-6-24-85-60-122-67z"/><path d="m18208 11875c0 0-13-36 23-42 36-6 65 51 32 56l-55-15z"/><path d="m18568 11649c3 15-19 27-32 30-13 3-26-9-39-30-13-21 19-51 19-51 42 3 49 36 52 51z"/><path d="m18318 12306c-62 51-113 98-201 98-87 0-162-42-162-86 0-45 19-143 100-143 81 0 97 53 97 53l10 30c0 0 120 6 81-140-39-146 0-65-81-205 0 0 136 101 168 166 32 65 49 175-13 226z"/><path d="m17575 12319c-167 77-38 275 0 275 19 0 25-4 27-14-22-6-38-21-38-41 0-24 25-43 55-43 19 0 35 7 45 18 8 8 14 18 15 30 4 46 33 168-83 153-117-15-246-130-138-360 0 0-138 38-300 38-163 0-384-73-542-226-159-153-334-325-509-302 0 0 38-99 192-99 154 0 167 115 167 115 0 0-4-99-4-191 0-92 163-375 530-375 367 0 334 218 334 314 0 96-38 172-129 172-92 0-88-80-88-80 0 0-25-80 121-80l25 34c0 0 42-76 4-92 0 0-209-15-254-145 0 0-104-54-200 4l-21 19c0 0 154-8 159 99 0 0-246-38-292 57-46 96-108 237-38 413 0 0 29-306 184-302 154 4 213-57 204-80 0 0 92 80 63 164-29 84-196 15-221 31-25 15-79 42-79 42 0 0 259-31 284 54 25 84 0 161-63 157-2 0-3 0-5-1-6 1-11 2-17 2-40 0-72-28-72-63 0-35 32-63 72-63 9 0 17 2 25 4-9-22-46-52-182-55-213-4-38 222 83 291 121 69 292 145 526 84 0 0-284-138-209-321 0 0 129 272 505 168 0 0 33 119-133 195z"/><path d="m15986 6335c0 0-121 9-156-47-34-56 61-136 250-143 0 0-112 47-124 78-12 31-24 76 29 111z"/><path d="m15361 5504c41 2 107 87 158 107 51 20 177 9 177 9 0 0-194-100-170-194 24-94 70-94 87-102 17-9 109-29 109-29 0 0 12 33 10 60-2 27-78 89-66 129 12 40 51 62 90 96 39 33 107 67 143 67 36 0 107-29 73-71 0 0 46 47 160 33 114-13 126-11 126-11l126 107c0 0 5 58-75 67-80 9-153-16-231-11-78 4-126 47-126 47 0 0 107-154 151-158 44-4-7-4-7-4 0 0-102 11-131 31-29 20-73 80-141 127-68 47-209 127-209 127 0 0 204-105 304-87 100 18 148 107 124 131 0 0 85-67 49-116 0 0 39 60 199 38 161-22 192-65 192-65 0 0-22 74-148 136-126 62-156 96-272 123-117 27-199 2-282 2-83 0-155 56-165 91l-2 25c0 0 15-33 78-27 63 7 46 89-2 109-49 20-151 25-170-20-19-45-2-192 343-232 0 0 143 4 124-116 0 0-19-25-78-25-58 0-185 71-255 114-70 42-173 120-185 176 0 0-27-109 32-192 0 0-51 25-90 13 0 0 36-259 202-263 165-4 177 16 207 9 29-7 51-40 29-62-22-22-168-27-238 7-70 33-90 65-185 56-95-9-124-18-165 20-41 38-46 65-46 65 0 0-102-131-32-232 70-100 138-107 180-105z"/><path d="m15529 5124c42 4 50 16 50 30 0 13-21 52-47 58-26 6-75-4-83-24-8-19-5-64-5-64h84z"/><path d="m15493 5375c-3 10-26 45-44 39-18-6-37-28-37-39 0-10 6-59 21-56 15 3 37 16 37 16 26 15 26 30 23 40z"/><path d="m15658 5117c10-27-6-68 58-86 65-18 369-56 580 264 0 0-185-229-437-196 0 0 10 104-62 101-71-3-149-56-139-83z"/><path d="m15360 5375c-45 92-207 113-220 157-13 45-81 77-36 232 0 0-97-223-23-395 75-172 91-160 91-160 0 0 146-24 181-3 0 0 52 77 7 169z"/><path d="m15762 4746c80 7 159-47 197-56-39-20-101-76 47-99 0 0 110-4 71 106-39 110-170 58-261 85 0 0 110-30 188 116 0 0 14 70 84 120-42-27-155-97-230-114 0 0-36 33-23 62 13 30 3 9 3 9 0 0-110-30-168-33-58-3-113 104-100 137 0 0-204-33-207-193-3-160 181-273 295-273 113 0 123 56 123 56 0 0-120-9-146 56-26 65-36 83-16 140 0 0 42-128 143-119z"/><path d="m15942 5272c-27 4-41-11-46-18-5-7-27-71 2-65 0 0 48 4 62 18 15 14 3 51 3 51 0 0 5 9-22 13z"/><path d="m15632 5271c-11 10-54 48-65 48-11 0-42-13-39-34 3-21 28-33 39-36 11-3 37-10 37-10 19 2 39 22 28 33z"/><path d="m16061 5234c-10 9-24 33-39 25-15-9-36-58-36-58 0 0 32-25 39-27 5-1 20 8 30 15 6 4 11 7 11 7l-7-2c0 7 12 31 2 40z"/><path d="m15815 5462c-15-1-52-15-47-34 5-19 31-31 39-34 8-3 24 0 24 0 5 10 16 27 15 39-1 12-16 31-31 30z"/><path d="m16119 5245c7 7 32 29 22 31-10 2-34 2-34 2 0 0-19-16-17-25 2-9 22-16 29-9z"/><path d="m15801 5352c-7-9-26-48-24-52 2-4 26-46 40-48 50-5 55 50 50 64-5 13-60 45-66 36z"/><path d="m16311 6097c0 0 34-47 53-74 19-27 78-100 107-78 29 22 46 127 49 116 2-11 2-163 2-163 0 0 12-58 12-87 0-29-17-56 29-114 46-58 243-62 243-62-148-29-219 11-219 11 0 0-66 2-131 136-66 134-333 53-333 53 0 0 143 4 204-2 61-7 104-85 104-85l20-56c0 0-134-69-165-120-32-51-112-91-112-91 44 27 63 96 63 96 0 0-85 9-148 4-63-4-124-94-146-138-22-45-44-105-44-105 0 0 24-33 124-36 100-2 204 65 228 100 24 36 66 149 87 176 22 27 112 80 112 80l39-7c0 0-53-45-80-67-27-22-70-78-75-118-5-40-2-109-2-109 41-2 126 31 172 85 46 53-2 134-2 134l20 57c0 0 47-57 61-71 14-14 12-90-10-124-23-33-80-78-86-133-7-56-61-48-80-171-16-105-82-188-102-210 36 49 17 233 7 227-10-6-121-133-135-206-14-73-83-167-83-167 0 0 41 38 173-22 132-60 303-17 303-17 9 5 100 22 100 22-190 79-175 205-175 205l16 22 43-10c0-38 16-70 57-116 42-46 128-37 128-37 0 0-9 59-45 84-36 25-33 146-29 329 1 75-6 144-15 198-5-89-32-269-177-307 0 0 172 138 150 418l8-18c-6 22-10 34-10 34 80-51 107-79 154-124 47-44 55-136 55-136-62 16-95 102-95 102h-24c-16-38 5-113 59-192 54-79 180-125 180-125-28 98-121 132-121 132 0 0 10 25 128-32 118-57 234 38 234 38-24 43-62 92-147 102-85 10-121 41-121 41 81 3 126 67 126 67-163-25-244 37-244 37 0 0-27 33 165 94 192 60 209 196 209 196-163-71-192 78-335 91-143 13-231-56-231-56l-15 47 10 25c97 136 12 359 46 386 34 27 95 38 95 38-173 87-326-27-347-109-22-82-90-87-90-87z"/><path d="m16151 6386c-29-107-117-98-44-212 65-101 199-133 233-160-18 21-60 72-70 77-12 7-92 58-92 127 0 0 61-98 121-94 0 0 58 20 66 67 7 47-7 130-29 172-22 41-53 111 0 160 0 0-156-31-185-138z"/><path d="m17271 8045c88 49 264 27 264-92 0-119 83-130 120-130 37 0 83 103 144 108 0 0-132 13-161 166-29 153-83 110-240 114 0 0-17 128-95 114-78-13-228-105-245-229-17-123-10-254-159-247 0 0 0-119 149-108 149 11 135 254 223 303z"/><path d="m18524 6432c-1 18-4 36-7 55-54 341-206 518-529 526-322 8-408-230-408-316 0-86 67-156 148-156 81 0 157 45 157 107 0 62-45 123-166 103 0 0 36 123 197 140 161 16 260-62 260-62 0 0-81-103-206-78 0 0 188-66 264 16l22 25c0 0 175-41 179-308 0-13 0-25-1-38 34-15 63-17 88-13z"/><path d="m17631 5750c157-114 235-276 147-319-88-43-34-121-15-126 20-4 120-13 120 70 0 0 144-168 51-280 0 0 186 96 174 229-12 132-83 274-181 339 0 0 115-13 213-159 98-146 142-155 161-411 0 0 20-110-59-123-78-13-76 63-122 45-46-18-76-114 10-128 86-13 193 16 203 94 10 79 15 215-7 267 0 0 163-47 226 31 63 79 112 150 39 206-73 56-110 14-108-13 3-28 53-48 69-28 0 0 56-6 17-64-39-58-117-128-210-81-93 47-73 75-115 145-42 70-189 290-335 304-147 13-179 49-179 49 0 0 274-45 457 78 152 102 317 221 338 453-41 16-71 45-91 73-26-219-173-361-417-456 0 0 112 259-179 304 0 0 92-378-334-327 0 0 200 105 178 273 0 0-228-29-305-78 0 0 63 78 22 168 0 0-76-107-228-94-152 12-296 94-260 460 0 0 40-329 197-361 157-33 188 8 188 8 0 0-18 78-121 148-103 70-116 107-121 189-4 82 112 242 40 370 0 0 219 242 246 341 27 99 31 148 31 148l31-242c0 0 31-136 121-140 90-4 125 78 125 115 0 37-85 90-166 58l-40 160c0 0-27 33-27 123 0 90 45 214 45 259 0 45 22 131-40 144-63 12-103 16-130 4-27-12-38-104-21-216 0 0-37-301-206-422-169-121-269-96-276-43-7 54-59 130 34 305 0 0-299-148-186-379 0 0-176 43-198 103-22 60-72 157 107 245 3 1 5 3 8 4 0 0-225 61-262-108 0 0-32 132 17 164 49 31 100 43 100 85 0 43 61 204 294 153 0 0-130 132-306 58-176-74-232-159-232-334 0-175 54-435 470-473 0 0-514-9-617 204 0 0-22 72 76 121 0 0-42 22-73-4 0 0 64 74 64 155 0 81 7 180 39 213 0 0-130-105-142-171-12-65-86-101-93-108 0 0-2 101 27 159 29 58 51 27 73 94 22 67 56 173 115 220 59 47 66 85 208 103 0 0-301-9-347-65-46-56-95-72-115-141-19-67-6 114 23 165-25-39-172-270-138-362 0 0-35 5-46 16-1 1-2 3-3 4-5 13-22-54-29-54 0 0-49 2-61 36 0 0-20-90 110-90 130 0-15-267 328-402l20-31c0 0-127-101-142-263 0 0 117 166 252 180 135 13 196-45 196-45 0 0-343-103-367-256-24-153 49-206 110-211 61-5 171 56 157 110-15 54-39 74-64 74-24 0-115-58-51-101 0 0-59-18-68 11-10 29-73 222 284 316 357 94 411 2 592 135 181 132 191 141 191 141 0 0-83-150-174-258-91-108-66-287-360-310 0 0 71-96 196-38 0 0 37-128 15-238-22-110 54-222 34-289-20-67-54-200-159-249 0 0 206 27 252 195v45c0 0 139-141 232-180 93-38 176-222 161-289-15-67-51-54-78-65-27-11-86-79 10-119 95-40 176-29 184 70 7 99-86 292-137 366 0 0 159-47 316-162zm-925 1472c0 0-83 117 0 214 0 0-33-77 50-199l-50-15z"/><path d="m16563 6976c0 0-101-17-143-67-42-51-61-128 7-202 0 0 6 35 73 39 0 0-112 146 62 231z"/><path d="m16897 7429c90-17 136 13 193 54 57 40 55 109 55 109-59-113-151-91-151-91 26 44-33 69-81 59-48-10-106-115-17-131z"/><path d="m16801 5056c0 0-77 31-91 111 0 0-20-250 94-250 114 0 98 65 98 80 0 15-20 77-101 59z"/><path d="m19436 11350c-118 0-171-105-175-141-4-36-9-84 39-80 48 4 110 24 110 56 0 32-31 60-31 60l57 20c92-16 162-109 167-221 4-113-105-221-105-221 0 0 193 97 193 273 0 177-136 253-254 253z"/><path d="m19770 10941c-23-20-35-36-35-36 13 6 25 11 37 16l-1 21z"/><path d="m17023 9705c10-300 211-345 308-351 97-6 214 21 201 125-13 104-178 199-194 95-16-104 62-95 62-95 0 0 26 0 26-30 0-30-68-68-143-51-75 18-6 83-16 137-10 53-130 71-117 205 12 121 118 161 139 168-1-2-2-3-3-5-55-98 32-181 32-181-3 187 262 247 363 238 70-6 150-59 192-90-26 5-74 7-159 1-227-15-81-294-81-294-29 86 58 149 130 152 71 3 120 6 275-104 155-110 321-321 321-321 0 0-262 42-392 39-130-3-91-131-81-190 10-59 55-113 169-86 113 27 104 86 382 77 279-9 399-113 447-163 46-48 215-79 235-83-9 1-61 3-312-33-292-42-343-3-343-3 29 74-23 95-84 77-62-18-78-59-55-131 23-71 314-24 314-24 0 0-431-149-492-312-62-163-49-253-45-241 3 12 39 101 49 77 10-24 13-62-13-95-26-33-23-166-23-166 0 15 55 36 55 36 0 0 32 74 0-6-32-80-3-199-3-199 0 59 75 59 75 59 198-140 298-18 298-18-194 27-156 193-156 193 0 0 194-68 133-30-1 1-2 1-2 2-58 39-33 109-7 138 26 30 62 98 58 154-4 56-72 101-99 157-27 56 34 101 122 171 77 61 297 93 349 100-40-7-173-43-163-232 11-223 186-223 262-202 76 21 76 105 76 105-110-35-163-17-160 101 4 118 87 185 178 223 91 38 133 28 319 28 186 0 338 132 338 132l-34 31c0 0-284-122-582-9-298 113-292 363-324 517-32 155 100 190 100 190-214 39-175-247-204-223-1 1-1 1-2 2-29 36-59 308 61 339 123 33 191-33 191-33 6 110-75 160-230 166-156 6-146-253-146-253-91 193 78 410 211 437 133 27 253-134 253-134 152 131-91 244-91 244 172-3 220-30 318-89 97-59 84-223 42-291-42-68-168-56-168-56 0 0-3 39 6 39 10 0 49 18 49 53 0 36-45 71-91 80-45 9-58-62-58-62 0 0-55-163 149-160 204 3 237 184 230 273-7 89-39 270-467 303-428 33-386-425-424-279-1 3-1 5-2 8-29 145 209 334 209 334l-7 1c77 74 142 140 175 171 32 19 65 35 81 29 35-12 44-88 101-113 57-24 83-36 153-40 70-4 92-40 92-60 0-20 70 40 123 40 53 0 123-88 118-141-4-52-48-133-48-133 0 0 197 64 153 197-44 133-149 205-149 205 0 0 118 44 140 109 0 0-123 97-285 93l-44-16c0 0 9 109 0 145 0 0-101-60-118-84 0 0-145-20-175-24 0 0-7-96-35-109-9-4-88-24-123-48 0 0 61 109 66 193 4 84 22 265-57 330l-57 20c0 0 107-129 18-354l-10-40c-40-94-106-176-224-299-23-24-42-46-57-67-33-26-136-135-136-471 0-401 253-728 253-728-350 157-266 178-483 383-217 205-120 582-97 627 23 45 181 21 181 21 0 0-39 110-227 53-188-56-97-383-97-383-184 76-175 434-175 449 17 88 63 200 189 244 0 0-199-23-221-140 0 0-89 148 17 245l29 27c0 0 85-56 148-9 63 47 36 129 27 154-10 25-63 31-63 31 0 0 58 127-5 194-63 67-165 13-165 13 0 0-61-45-58-105 0 0-15 25-100 25-85 0-117-36-136-71-19-36 5-136 58-152 53-16 163-38 173 20l7 20 63 2v-45l-66-33c0 0-51-36-44-169 0 0-73 78-175 65-102-13-228-47-221-149 7-103 58-160 114-158 56 2 117 58 117 98 0 40-24 62-61 65-36 2-49-49-49-56 0-7 19-25 19-25 0 0-58-36-66 4-7 40-46 96 27 134 73 38 148 49 211-20 52-57 78-92 98-184h-1c2-83 33-230 50-306 3-16 6-29 9-40 1-6 2-10 2-10-279 98-745-6-735-306zm1293-1460c-62-55-39-139-39-139 0 0-62 101-54 223 8 122 101 213 101 213-101-149-43-249-43-249 0 0-2 33 51 72 52 40 69 124 69 124 94-141-22-189-84-244zm1141 2334c-175-68-272 80-272 80 259 24 272-80 272-80zm-595 8v-10h-8l8 10zm-1203 274v-6c-115-24-69 11-85 52-15 41 18 24 46 28 28 4 35-8 45-14 9-6 2-11 5-31 3-20-9-21-11-30zm294-37c11-10 9-18 6-41-3-23-26-25-26-25-86-4-57 7-65 27-8 20 23 41 34 49 11 8 40 0 51-10zm-174 116c-18 17-6 41 11 78 17 37 66 37 86 37 20 0 26-23 34-72 8-49-45-58-49-59 0 0-63 0-81 17z"/><path d="m19181 7217c0 0 23 26 9 34-14 9-23 43-37 30-14-13-9-64 28-64z"/><path d="m19124 7145c0 0 12-44 29-38 0 0 36 9 36 31 0 22-27 40-39 40-12 0-26-33-26-33z"/><path d="m19112 7030c5-11 2-44 51-35 0 0 36 13 31 31-5 18-22 42-41 42-19 0-46-27-41-38z"/><path d="m19198 6858c24 2 24 31 22 51-2 20-34 44-46 40-12-4-39-24-39-46 0-22 55-45 63-44z"/><path d="m19242 6699c0 0 48 29 46 53-2 24-10 38-75 38-65 0-77-13-72-49 5-35 53-44 101-42z"/><path d="m19268 6602c0 0 24 24 12 33-12 9-34 20-58 20-24 0-75-38-65-55 10-18 67-42 111 2z"/><path d="m19422 6523c-4 6-9 12-15 17-52 53-78 59-78 59 0 0-62-62-120-59 0 0 42-86-26-143 0 0 98-56 187 1l4 8c-6 5-16 16-9 27 0 0 6-4 17-9 14 33 27 66 40 99z"/><path d="m19198 6031c-3-1-6-3-8-4 0 0 8 13 22 31 44 87 86 176 126 266-7 1-14 1-21 0-65-9-133 9-133 9-36 0-104 33-107 59-3 27 29 24 32 33 3 9 16 51 0 51-16 0-88 36-113-59-26-95 36-119 52-128 16-9-84-95-87-169-3-74 87-122 87-122 0 0-224-205-386-65 0 0-19-181 204-184 98-1 157 12 193 28 48 84 95 169 139 256zm-333-569c-31 2-68-16-70-47-1-13 0-30 6-47 22 31 43 63 64 94zm283 785c6-65 107-59 107-59-133-48-130-181-130-181-97 95 16 306 23 241z"/><path d="m18524 6328c54-21 127-18 222 43 258 165 192 225 209 305 17 80 39 147 39 147 0 0-24-285 163-308 0 0-97 69-102 301-5 232 7 336 34 435 27 98 109 285 131 316 22 31 41-107 34-196-7-89-58-321 44-419 102-98 95-145 87-165-7-20-39-49-39-56 0-7-49-38 5-78 0 0-22 47 87 40 20-1 34-7 43-15 6 17 13 35 19 52-14 10-23 20-25 29-7 27-55 137-55 137 0 0 50-61 105-97 6 17 11 33 17 50-75 42-268 164-264 400 0 0 130-279 285-297 4 0 8-1 12-1 19 60 36 120 53 181-79 39-201 77-247 284-55 244 32 336 32 336 0 0 49-3 45-107-3-104-13-247 152-297 0 0 84 65 81 178-2 60-16 95-29 114 17-16 44-37 75-52 3 14 6 28 9 42l-57 68c-65 77-104 181-91 232 12 46 92 180 231 264 4 36 7 71 10 107-6 13-11 25-11 31 0 0-131-132-179-189-48-57-107-108-159-99-53 8-83 30-89 61-6 30 11 36 41 33 30-3 99-25 126 25 27 50-9 132-104 130-95-3-182-102-176-184 6-81 78-142 159-155 0 0-32-85-134-168-102-82-212-137-329-122-116 14-137 122-137 122 0 0-50-176 90-221 139-46 7-105-91-112-98-8-158-24-326 38 0 0 45-165 210-167 165-2 197 29 374 143 0 0-46-194-143-283 0 0-112-16-131 51 0 0 2-87 78-100 0 0-104-100-180-111-75-11-168-36-258 36-45 36-12 53 34 61-10-7-15-17-15-27 0-24 32-44 71-44 39 0 71 20 71 44 0 2-1 5-1 7 0 0 1 15-25 28 2 0 4 0 4 0 0 0-2 0-5 1-11 5-26 10-48 13-56 9-95-3-118-17 0 0-1 0-1-1-1-1-2-1-3-2-2-1-4-3-6-4-4-3-7-6-9-8h1c-6-8-11-18-13-31-7-60 24-120 194-156 0 0 0-69-139-69 0 0 175-78 258 82 0 0 27 47 32 53 5 7 107 51 221 149 0 0-15-247-61-341-46-94-194-89-211-45 0 0-90-9-104-118-15-109 32-114 32-114 0 0-32-76-105-90-25-5-54-2-88 13-13 5-26 13-40 22 0 0 11-32 37-66 21-28 50-57 91-73z"/><path d="m16258 14026c0 0-121 9-156-47-34-56 61-136 250-143 0 0-112 47-124 78-12 31-24 76 29 111z"/><path d="m15633 13195c41 2 107 87 158 107 51 20 177 9 177 9 0 0-194-100-170-194 24-94 70-94 87-102 17-9 109-29 109-29 0 0 12 33 10 60-2 27-78 89-66 129 12 40 51 62 90 96 39 33 107 67 143 67 36 0 107-29 73-71 0 0 46 47 160 33 114-13 126-11 126-11l126 107c0 0 5 58-75 67-80 9-153-16-231-11-78 4-126 47-126 47 0 0 107-154 151-158 44-4-7-4-7-4 0 0-102 11-131 31-29 20-73 80-141 127-68 47-209 127-209 127 0 0 204-105 304-87 100 18 148 107 124 131 0 0 85-67 49-116 0 0 39 60 199 38 161-22 192-65 192-65 0 0-22 74-148 136-126 62-156 96-272 123-117 27-199 2-282 2-83 0-155 56-165 91l-2 25c0 0 15-33 78-27 63 7 46 89-2 109-49 20-151 25-170-20-19-45-2-192 343-232 0 0 143 4 124-116 0 0-19-25-78-25-58 0-185 71-255 114-70 42-173 120-185 176 0 0-27-109 32-192 0 0-51 25-90 13 0 0 36-259 202-263 165-4 177 16 207 9 29-7 51-40 29-62-22-22-168-27-238 7-70 33-90 65-185 56-95-9-124-18-165 20-41 38-46 65-46 65 0 0-102-131-32-232 70-100 138-107 180-105z"/><path d="m15801 12815c42 4 50 16 50 30 0 13-21 52-47 58-26 6-75-4-83-24-8-19-5-64-5-64h84z"/><path d="m15765 13066c-3 10-26 45-44 39-18-6-37-28-37-39 0-10 6-59 21-56 15 3 37 16 37 16 26 15 26 30 23 40z"/><path d="m15931 12808c10-27-6-68 58-86 65-18 369-56 580 264 0 0-185-229-437-196 0 0 10 104-62 101-71-3-149-56-139-83z"/><path d="m15633 13066c-45 92-207 113-220 157-13 45-81 77-36 232 0 0-97-223-23-395 75-172 91-160 91-160 0 0 146-24 181-3 0 0 52 77 7 169z"/><path d="m16034 12436c80 7 159-47 197-56-39-20-101-76 47-99 0 0 110-4 71 106-39 110-170 58-261 85 0 0 110-30 188 116 0 0 14 70 84 120-42-27-155-97-230-114 0 0-36 33-23 62 13 30 3 9 3 9 0 0-110-30-168-33-58-3-113 104-100 137 0 0-204-33-207-193-3-160 181-273 295-273 113 0 123 56 123 56 0 0-120-9-146 56-26 65-36 83-16 140 0 0 42-128 143-119z"/><path d="m16214 12963c-27 4-41-11-46-18-5-7-27-71 2-65 0 0 48 4 62 18 15 14 3 51 3 51 0 0 5 9-22 13z"/><path d="m15905 12962c-11 10-54 48-65 48-11 0-42-13-39-34 3-21 28-33 39-36 11-3 37-10 37-10 19 2 39 22 28 33z"/><path d="m16333 12925c-10 9-24 33-39 25-15-9-36-58-36-58 0 0 32-25 39-27 5-1 20 8 30 15 6 4 11 7 11 7l-7-2c0 7 12 31 2 40z"/><path d="m16088 13152c-15-1-52-15-47-34 5-19 31-31 39-34 8-3 24 0 24 0 5 10 16 27 15 39-1 12-16 31-31 30z"/><path d="m16391 12936c7 7 32 29 22 31-10 2-34 2-34 2 0 0-19-16-17-25 2-9 22-16 29-9z"/><path d="m16073 13042c-6-9-26-48-24-52 2-4 26-46 40-48 50-5 55 51 50 64-5 13-60 45-66 36z"/><path d="m16583 13788c0 0 34-47 53-74 19-27 78-100 107-78 29 22 46 127 49 116 2-11 2-163 2-163 0 0 12-58 12-87 0-29-17-56 29-114 46-58 243-62 243-62-148-29-219 11-219 11 0 0-66 2-131 136-66 134-333 53-333 53 0 0 143 4 204-2 61-7 104-85 104-85l20-56c0 0-134-69-165-120-32-51-112-91-112-91 44 27 63 96 63 96 0 0-85 9-148 4-63-4-124-94-146-138-22-45-44-105-44-105 0 0 24-33 124-36 100-2 204 65 228 100 24 36 66 149 87 176 22 27 112 80 112 80l39-7c0 0-53-45-80-67-27-22-70-78-75-118-5-40-2-109-2-109 41-2 126 31 172 85 46 53-2 134-2 134l20 57c0 0 47-57 61-71 14-14 12-90-10-124-22-33-80-78-86-133-7-56-61-48-80-171-16-105-82-188-102-210 36 49 17 233 7 227-10-6-121-133-135-206-14-73-83-167-83-167 0 0 42 38 173-22 132-60 303-17 303-17 9 5 100 22 100 22-190 79-175 205-175 205l16 22 43-10c0-38 16-70 57-116 42-46 128-37 128-37 0 0-9 59-45 84-36 25-33 146-29 329 1 75-6 144-15 198-5-89-32-269-177-307 0 0 172 138 150 418l8-18c-6 22-10 34-10 34 80-51 107-79 154-124 47-44 55-136 55-136-62 16-95 102-95 102h-24c-16-38 5-113 59-192 54-79 180-125 180-125-28 98-121 132-121 132 0 0 10 25 128-32 118-57 234 38 234 38-24 43-62 92-147 102-85 10-121 41-121 41 81 3 126 67 126 67-163-25-244 37-244 37 0 0-27 33 165 94 192 60 209 196 209 196-163-71-192 78-335 91-143 13-231-56-231-56l-15 47 10 25c97 136 12 359 46 386 34 27 95 38 95 38-173 87-326-27-347-109-22-82-90-87-90-87z"/><path d="m16423 14077c-29-107-117-98-44-212 65-101 199-133 233-160-18 21-60 72-70 77-12 7-92 58-92 127 0 0 61-98 121-94 0 0 58 20 66 67 7 47-7 130-29 172-22 41-53 111 0 160 0 0-156-31-185-138z"/><path d="m17544 15736c88 49 264 27 264-92 0-119 83-130 120-130 37 0 83 103 144 108 0 0-132 13-161 166-29 153-83 110-240 114 0 0-17 128-95 114-78-13-228-105-245-229-17-123-10-254-159-247 0 0 0-119 149-108 149 11 135 254 223 303z"/><path d="m18796 14123c-1 18-4 36-7 55-54 341-206 518-529 526-322 8-408-230-408-316 0-86 67-156 148-156 81 0 157 45 157 107 0 62-45 123-166 103 0 0 36 123 197 140 161 16 260-62 260-62 0 0-81-103-206-78 0 0 188-66 264 16l22 25c0 0 175-41 179-308 0-13 0-25-1-38 34-15 63-17 88-13z"/><path d="m17903 13440c157-114 235-276 147-319-88-43-34-121-15-126 20-4 120-13 120 70 0 0 144-168 51-280 0 0 186 96 174 229-12 132-83 274-181 339 0 0 115-13 213-159 98-146 142-155 161-411 0 0 20-110-59-123-78-13-76 63-122 45-46-18-76-114 10-128 86-13 193 16 203 94 10 79 15 215-7 267 0 0 163-47 226 31 63 79 112 150 39 206-73 56-110 14-108-13 3-28 53-48 69-28 0 0 56-6 17-64-39-58-117-128-210-81-93 47-73 75-115 145-42 70-188 290-335 304-147 13-179 49-179 49 0 0 274-45 457 78 152 102 317 221 338 453-41 16-71 45-91 73-26-219-173-361-417-456 0 0 112 259-179 304 0 0 92-378-334-327 0 0 200 105 178 273 0 0-228-29-305-78 0 0 63 78 22 168 0 0-76-107-228-94-152 12-296 94-260 460 0 0 40-329 197-361 157-33 188 8 188 8 0 0-18 78-121 148-103 70-116 107-121 189-4 82 112 242 40 370 0 0 219 242 246 341 27 99 31 148 31 148l31-242c0 0 31-136 121-140 90-4 125 78 125 115 0 37-85 90-166 58l-40 160c0 0-27 33-27 123 0 90 45 214 45 259 0 45 22 131-40 144-63 12-103 16-130 4-27-12-38-104-21-216 0 0-37-301-206-422-169-121-269-96-276-43-7 54-59 130 34 305 0 0-299-148-186-379 0 0-176 43-198 103-22 60-72 157 107 245 3 1 5 3 8 4 0 0-225 61-262-108 0 0-32 132 17 164 49 31 100 43 100 85 0 43 61 204 294 153 0 0-130 132-306 58-176-74-232-159-232-334 0-175 54-435 470-473 0 0-514-9-617 204 0 0-22 72 76 121 0 0-42 22-73-4 0 0 64 74 64 155 0 81 7 180 39 213 0 0-130-105-142-171-12-65-86-101-93-108 0 0-2 101 27 159 29 58 51 27 73 94 22 67 56 173 115 220 59 47 66 85 208 103 0 0-301-9-347-65-46-56-95-72-115-141-19-67-6 114 23 165-25-39-172-270-138-362 0 0-35 5-46 16-1 1-2 3-3 4-5 13-22-54-29-54 0 0-49 2-61 36 0 0-20-90 110-90 130 0-15-267 328-402l20-31c0 0-127-101-142-263 0 0 117 166 252 180 135 13 196-45 196-45 0 0-343-103-367-256-24-153 49-206 110-211 61-5 171 56 157 110-15 54-39 74-64 74-24 0-115-58-51-101 0 0-59-18-68 11-10 29-73 222 284 316 357 94 411 2 592 135 181 132 191 141 191 141 0 0-83-150-174-258-91-108-66-287-360-310 0 0 71-96 196-38 0 0 37-128 15-238-22-110 54-222 34-289-20-67-54-200-159-249 0 0 206 27 252 195v45c0 0 139-141 232-180 93-38 176-222 161-289-15-67-51-54-78-65-27-11-86-79 10-119 95-40 176-29 184 70 7 99-86 292-137 366 0 0 159-47 316-162zm-925 1472c0 0-83 117 0 214 0 0-33-77 50-199l-50-15z"/><path d="m16835 14667c0 0-101-17-143-67-42-51-61-128 7-202 0 0 6 35 73 39 0 0-112 146 62 231z"/><path d="m17169 15120c90-17 136 13 193 54 57 40 55 109 55 109-59-113-151-91-151-91 26 44-33 69-81 59-48-10-106-114-17-131z"/><path d="m17073 12747c0 0-77 31-91 111 0 0-20-250 94-250 114 0 98 65 98 80 0 15-20 77-101 59z"/><path d="m19443 14967c-5 7-11 11-17 5-13-12-10-58 22-63l-5 58z"/><path d="m19396 14836c0 0 12-44 29-38 0 0 21 5 31 17l-3 35c-9 11-23 18-30 18-12 0-26-33-26-33z"/><path d="m19384 14721c5-11 2-44 51-35 0 0 24 9 30 22l-1 17c-7 16-22 35-38 35-19 0-46-26-41-38z"/><path d="m19471 14549c3 0 5 1 7 2l-7 80c-9 7-19 11-25 9-12-4-39-24-39-46 0-22 55-45 63-44z"/><path d="m19484 14480c-64 0-76-14-71-49 4-30 39-41 79-42l-8 91z"/><path d="m19495 14345h-1c-24 0-75-38-65-55 7-13 39-29 72-21l-6 76z"/><path d="m19505 14233c-8-2-16-2-23-2 0 0 42-86-26-143 0 0 26-15 63-22l-14 166z"/><path d="m19602 13098c-19 11-41 23-68 35 0 0-75-95-78-108-4-13-11-49 64-52 0 0-18-83 97-47l-15 172z"/><path d="m19563 13244c0 0 11-9 29-24-10 113-19 226-29 340-23-44-39-108-32-203l-32-80c0 0-82 284 54 412l-4 50c-32-3-65-10-85-22 0 0 30 51 79 89l-18 207c-39 3-68 10-68 10-36 0-104 33-107 59-3 27 29 24 32 33 3 9 16 51 0 51-16 0-87 36-113-59-26-95 36-119 52-128 16-9-84-95-87-169-3-74 87-122 87-122 0 0-224-205-386-65 0 0-19-181 204-184 224-3 246 71 246 71 0 0 19-143-75-160-94-18-81-95-91-113 0 0 45 36 100 12 0 0-6-95-75-122-68-27-52-3-81 18-29 21-94 3-97-39-3-42 13-119 152-113 139 6 305 253 305 253h39zm-143 692c6-65 107-59 107-59-133-48-130-181-130-181-97 95 16 306 23 241z"/><path d="m19669 12288c-91 0-113 13-132 63-21 55-21 150-21 150 0 0 46-75 142-67l-3 38c-62 48-156 162-78 375 0 0-174-143-178-336-3-174 66-350 283-383-4 53-9 107-13 160z"/><path d="m18796 14019c54-21 127-18 222 43 258 165 192 225 209 305 17 80 39 147 39 147 0 0-24-285 163-308 0 0-97 69-102 301-5 232 7 336 34 435 14 50 42 123 69 187-7 81-13 163-20 245-49-17-100-25-152-18-116 14-137 122-137 122 0 0-50-176 90-221 139-46 7-105-91-112-98-8-158-24-326 38 0 0 45-165 210-167 165-2 197 29 374 143 0 0-46-194-143-283 0 0-112-16-131 51 0 0 2-87 78-100 0 0-104-100-180-111-75-11-168-36-258 36-45 36-12 53 34 61-10-7-15-17-15-27 0-24 32-44 71-44 39 0 71 20 71 44 0 2-1 5-1 7 0 0 1 15-25 28 2 0 4 0 4 0 0 0-2 0-5 1-11 5-26 10-48 13-56 9-95-3-118-17 0 0-1 0-1-1-1-1-2-1-3-2-2-1-4-3-6-4-4-3-7-6-9-8h1c-6-8-11-18-13-31-7-60 24-120 194-156 0 0 0-69-139-69 0 0 175-78 258 82 0 0 27 47 32 53 5 7 107 51 221 149 0 0-15-247-61-341-46-94-194-89-211-45 0 0-90-9-104-118-15-109 32-114 32-114 0 0-32-76-105-90-25-5-54-2-88 13-13 5-26 13-40 22 0 0 11-32 37-66 21-28 50-57 91-73z"/><path d="m19810 9419c12 1 27 8 42 20-3 76-6 153-10 229-71-7-98-10-134 23-41 38-46 65-46 65 0 0-102-131-32-232 70-100 138-107 180-105z"/><path d="m19809 9290c-45 92-207 113-220 157-13 45-81 77-36 232 0 0-97-223-23-395 75-172 91-160 91-160 0 0 146-24 181-3 0 0 52 77 7 169z"/><path d="m19866 8920c-30-28-53-67-54-120-1-53 19-101 49-141 3 86 4 173 4 261z"/></g><g stroke-width="7.62"><text x="10500" y="14850" font-family="&apos;Arial&apos;" font-weight="bold" font-size="749.71" transform="matrix(.95794 0 0 1 4465.34 10043.9)">00.00.0000</text><text x="10500" y="14850" font-family="&apos;Monotype Corsiva&apos;" font-style="italic" font-size="3982.01" transform="matrix(.95794 0 0 1 4135.57 8596.27)">T2</text></g></g><g font-family="&apos;Arial Black&apos;" font-weight="900" font-size="556.46"><text x="10500" y="14850" transform="matrix(.95794 0 0 1 5264.96 4499.28)">NN 1</text><text x="10500" y="14850" transform="matrix(.95794 0 0 1 5243.13 5055.8)">NN 2</text></g></g><g fill="#373435" font-family="&apos;Arial&apos;" font-weight="normal" font-size="423.33"><text x="1244" y="27770">DESC 01</text><text x="1244" y="28242">DESC 02</text><text x="1244" y="28715">DESC 03</text></g></svg>