<svg xmlns="http://www.w3.org/2000/svg" width="744.09" height="1052.36" viewBox="0 0 21000 29700" shape-rendering="geometricPrecision" image-rendering="optimizeQuality" fill-rule="evenodd" text-rendering="geometricPrecision" clip-rule="evenodd"><text x="10081" y="24465" fill="#201e1e" font-family="&apos;Arial Black&apos;" stroke="#201e1e" font-weight="900" stroke-width="7.62" font-size="705.56">38</text><g fill="none" stroke="#322f30" stroke-width="80"><circle cx="10533" cy="1326" r="460"/><path d="m10533 515v1621"/><path d="m9723 1326h1621"/><circle cx="10533" cy="25836" r="460"/><path d="m10533 25026v1621"/><path d="m9723 25836h1621"/></g><g fill="#fff"><rect x="9843" y="22866" width="1347" height="637" rx="318" stroke="#fff" stroke-width="20"/><path d="m6585 25241c-1246 623-3615 503-4334-650-717-1148-554-4405-622-6002-170-3999-601-7032-712-10257-124-3581 2249-5949 5085-6616 4001-941 3765 4571 3209 7403-292 1522-868 2846-1235 4334-678 2744-64 6933-299 9789-121 987-441 1642-1091 1998z"/></g><g fill="#201e1e"><g stroke="#201e1e"><g stroke-linejoin="round" stroke-linecap="round" stroke-width="17.64"><path d="m2841 18944c7 22 51 14 72 6 20-8 12-27 22-36 10-9 36-17 36-17 5-19 0-24-36-24-36 0-99-43-99-43-51-15-7 48-2 54 5 6 0 38 7 60z"/><path d="m2333 19069c81-25 125-65 224-87 98-22 173-22 183-6 10 16 27 40 20 59 0 0 58-124 10-199-47-75-88-47-88-47 0 0-176 19-220 59-44 40-64-37-61-47 0 0-71 3-71 127 0 124-98 16-115 3-17-12 3-25 0-68-3-44-81-84-153-44-71 40-75 118-7 183 68 65 197 90 278 65z"/><path d="m1638 18836c22-28 33-58 35-74 5-38 9-88-40-84 2 51 4 104 5 158z"/><path d="m4015 17188c-10-314-220-361-322-367-102-6-224 22-210 131 14 109 187 208 203 99 17-109-64-99-64-99 0 0-27 0-27-31 0-31 71-72 149-53 78 19 7 87 17 143 10 56 136 75 122 215-12 126-124 169-145 176 1-2 2-3 3-5 58-103-34-190-34-190 3 196-275 258-380 249-74-7-157-62-201-94 28 5 78 7 167 1 237-16 85-308 85-308 31 90-61 155-136 159-75 3-125 6-288-109-163-115-336-336-336-336 0 0 275 44 410 40 136-3 95-137 85-199-10-62-58-118-176-90-119 28-109 90-400 81-292-9-417-118-468-171-48-50-225-83-246-87 10 1 64 3 327-35 305-43 359-3 359-3-31 78 24 100 88 81 64-19 81-62 58-137-24-75-329-25-329-25 0 0 451-155 515-326 64-171 51-264 48-252-3 12-41 106-51 81-10-25-14-65 14-100 27-34 24-174 24-174 0 16-58 37-58 37 0 0-34 78 0-6 34-84 3-208 3-208 0 62-78 62-78 62-207-146-312-19-312-19 203 28 163 202 163 202 0 0-203-72-139-31 1 1 2 1 3 2 61 41 34 114 8 144-27 31-65 103-61 161 4 58 76 106 103 164 28 58-36 106-127 179-80 64-311 97-366 104 42-7 181-45 171-243-12-233-195-233-274-211-80 22-80 109-80 109 115-36 171-18 167 106-4 124-91 193-187 233-92 39-136 30-314 29l8 111c82 2 172 15 264 50 312 118 305 379 339 541 34 162-105 199-105 199 224 40 183-258 214-233 1 1 2 1 2 2 30 37 62 322-63 355-129 34-200-34-200-34-7 115 78 168 241 174 163 6 153-264 153-264 95 202-81 429-220 457-139 28-265-140-265-140-159 137 95 255 95 255-180-3-231-31-332-93-19-12-35-28-46-46 2 45 5 89 7 134 72 47 184 85 361 98 448 34 404-445 444-292 1 3 1 5 2 8 30 151-219 349-219 349l7 1c-81 77-149 146-184 179-34 20-68 36-84 31-37-13-46-93-106-118-60-25-87-38-161-42-21-1-38-5-51-11 3 49 5 99 7 148 94 20 145 98 145 98-57 5-103 5-140 0 3 58 5 116 8 175 22-15 42-31 49-40 0 0 151-21 184-25 0 0 7-100 37-114 9-4 92-25 129-51 0 0-64 114-69 202-5 88-23 278 60 345l60 21c0 0-112-135-18-370l10-42c42-99 111-184 234-313 24-25 44-49 60-70 35-27 142-141 142-493 0-420-265-762-265-762 366 165 278 187 505 401 227 215 125 609 102 656-24 47-190 22-190 22 0 0 41 115 237 56 197-59 102-401 102-401 192 79 183 454 183 470-18 92-66 209-197 255 0 0 209-24 231-147 0 0 93 155-18 257l-30 28c0 0-89-58-155-9-66 49-38 135-28 161 10 26 66 33 66 33 0 0-61 133 5 203 66 70 173 14 173 14 0 0 64-47 61-110 0 0 15 26 104 26 89 0 122-37 142-75 20-37-5-142-61-159-56-16-170-40-181 21l-8 21-66 2v-47l69-35c0 0 53-37 46-177 0 0 76 82 183 68 107-14 239-49 231-156-8-107-61-168-120-166-58 2-122 61-122 103 0 42 25 65 64 68 38 2 51-51 51-58 0-7-20-26-20-26 0 0 61-37 69 5 8 42 48 100-28 140-76 40-155 51-221-21-55-60-82-96-102-193h1c-2-87-34-240-52-320-3-16-6-31-9-42-1-6-2-10-2-10 292 103 780-6 770-320zm-2446 186c4-12 9-22 15-31 44-71 176-59 176-59 0 0 3 40-7 40-10 0-51 19-51 56 0 37 47 75 95 84 47 9 61-65 61-65 0 0 58-171-156-168-59 1-105 16-139 40l6 103zm1092-1714c65-58 41-146 41-146 0 0 65 106 57 234-8 128-106 223-106 223 106-156 45-261 45-261 0 0 2 34-53 75-55 41-73 129-73 129-98-147 24-198 88-255zm-572 2451v-11h9l-8 11zm1259 286v-6c121-25 72 12 88 55 16 43-19 25-48 30-29 4-37-9-47-15-10-6-2-12-5-32-3-21 10-22 11-31zm-307-38c-11-10-10-19-6-43 3-24 27-27 27-27 90-4 60 7 68 28 8 21-24 43-35 52-11 9-42 0-53-10zm182 121c19 18 6 43-11 81-18 38-69 38-90 38-21 0-27-24-35-75-8-52 47-61 52-62 0 0 66 0 85 18z"/><path d="m4866 3990c-11 7-17 11-17 11s12-7 17-11z"/><path d="m3072 3196c21 110 133 187 217 187 105 0 115-31 119-112 3-81-34-90-61-93-27-3-44 25-44 44 0 19 17 59-27 53-44-6-37-19-68-62-31-44 14-152 58-155 44-3 54 19 54 19l71-3c0 0-17-56-34-72-7-6-12-13-15-26-92 71-182 145-270 221z"/><path d="m2510 3746c117 29 281 10 287-62 7-87-98-99-129-87-8 3-17 6-27 7-44 47-88 94-131 142z"/><path d="m2817 3569c64 53 119 103 210 103 92 0 170-44 170-90 0-47-20-149-105-149-85 0-102 56-102 56l-10 31c0 0-125 6-85-146 3-10 5-18 7-26-43 40-86 81-128 123 2 39 14 75 43 99z"/><path d="m3596 3583c175 80 39 288 0 288-20 0-26-4-28-15 23-6 40-22 40-42 0-25-26-45-58-45-20 0-37 8-47 19-9 8-15 19-16 31-4 48-35 176 87 160 122-16 258-136 144-376 0 0 144 40 314 40 170 0 402-76 568-236 166-160 349-340 533-316 0 0-39-104-201-104-162 0-175 120-175 120 0 0 4-104 4-200 0-96-170-392-554-392-384 0-349 228-349 328 0 100 39 180 135 180 96 0 92-84 92-84 0 0 26-84-127-84l-26 36c0 0-44-80-4-96 0 0 218-16 266-152 0 0 109-56 210 4l22 20c0 0-162-8-166 104 0 0 258-40 306 60 48 100 114 248 39 432 0 0-31-320-192-316-162 4-223-60-214-84 0 0-96 84-65 172 31 88 205 16 231 32 26 16 83 44 83 44 0 0-271-32-297 56-26 88 0 168 66 164 2 0 3 0 5-1 6 1 12 2 18 2 42 0 75-30 75-66 0-37-34-66-75-66-9 0-18 2-26 4 10-23 48-55 191-57 223-4 39 232-87 304-127 72-306 152-550 88 0 0 297-144 218-336 0 0-135 284-528 176 0 0-35 124 140 204z"/><path d="m4581 12036c-11 7-17 11-17 11s12-7 17-11z"/><path d="m2715 10651c7 22 51 14 72 6 20-8 12-27 22-36 10-9 36-17 36-17 5-19 0-24-36-24-36 0-99-43-99-43-51-15-7 48-2 54 5 6 0 38 7 59z"/><path d="m2207 10776c81-25 125-65 224-87 98-22 173-22 183-6 10 16 27 40 20 59 0 0 58-124 10-199-47-75-88-47-88-47 0 0-176 19-220 59-44 40-64-37-61-47 0 0-71 3-71 127 0 124-98 16-115 3-17-12 3-25 0-68-3-44-81-84-153-44-71 40-75 118-7 183 68 65 197 90 278 65z"/><path d="m2417 10863c-31 103 41 236 41 236l20 109c0 0 34-16 37-44 3-28 68-87 92-87 24 0 129-3 146-19 17-16 44-112 44-112 14 6 34 50-7 205-41 155 108 277 214 277 105 0 115-31 119-112 3-81-34-90-61-93-27-3-44 25-44 44 0 19 17 59-27 53-44-6-37-19-68-62-31-44 14-152 58-155 44-3 54 19 54 19l71-3c0 0-17-56-34-71-17-16-24-40-20-146 3-106-176-202-176-202l-51 47-41-12c0 0-24 19-24 47 0 28 0 109-27 140-27 31-146 16-146 16 0 0 7-112 51-124 44-12 54-40 54-40l20-68c0 0-14 34-64 53-51 19-200 6-231 109z"/><path d="m2356 11221c0 0 24-50 34-75 10-25 14-71 0-87 0 0-14 25-20 37-7 12-24 103-14 124z"/><path d="m2254 11044l7-37c0 0-71 34-81 72-10 37 78 84 78 84 0 0 10-34 7-47-3-12-31-31-41-40-10-9 31-31 31-31z"/><path d="m2316 11006l-20 44c0 0 10 19 31 16 20-3 44-34 44-34 0 0-20-31-54-25z"/><path d="m2095 11239c-17 22-17 28-37 34-20 6 37 19 61 9 24-9 34-59 34-59 0 0-41-6-58 16z"/><path d="m2217 11202c-10 19-27 37-14 47 14 9 61 12 64 3 3-9 17-50 0-50-17 0-51 0-51 0z"/><path d="m1905 11345c-163 31-193-159-193-159-92 177 75 267 176 270 102 3 170-121 193-124 0 0-14-19-176 12z"/><path d="m1912 11159c112-3 227-124 254-162 27-37 24-131 24-131-37 103-136 118-156 131 0 0-109 16-153-6-44-22-7-78 7-106 14-28 31-93 31-93-14 0-268-3-265 165 3 168 146 205 258 202z"/><path d="m2526 11235c1-1 3-1 4-2 0 0-1 1-4 2z"/><path d="m1959 11581c0 0 7-8 18-20l-15 11-3 9z"/><path d="m1978 11561l121-89c0 0 156-124 220-159 64-34 81-19 122-34 34-13 73-37 85-44-21 10-101 11-136 16-37 6-142 65-197 96-44 25-169 161-216 213z"/><path d="m2355 11440c7-1 11-1 11-1-3 0-7 1-11 1z"/><path d="m2355 11440c-34 5-139 23-209 79-85 68-92 190 14 249 105 59 346 50 353-37 7-87-98-99-129-87-31 12-78 16-132-12-54-28-31-93-24-121 6-25 89-63 128-70z"/><path d="m2648 11165c0 0 14-37-24-44-37-6-68 53-34 59l58-16z"/><path d="m2271 10929c-3 16 20 28 34 31 14 3 27-9 41-31 14-22-20-53-20-53-44 3-51 37-54 53z"/><path d="m2533 11616c64 53 119 103 210 103 92 0 170-44 170-90 0-47-20-149-105-149-85 0-102 56-102 56l-10 31c0 0-125 6-85-146 41-152 0-68 85-214 0 0-142 106-176 174-34 68-51 183 14 236z"/><path d="m3311 11630c175 80 39 288 0 288-20 0-26-4-28-15 23-6 40-22 40-42 0-25-26-45-58-45-20 0-37 8-47 19-9 8-15 19-16 31-4 48-35 176 87 160 122-16 258-136 144-376 0 0 144 40 314 40 170 0 402-76 568-236 166-160 349-340 533-316 0 0-39-104-201-104-162 0-175 120-175 120 0 0 4-104 4-200 0-96-170-392-555-392-384 0-349 228-349 328 0 100 39 180 135 180 96 0 92-84 92-84 0 0 26-84-127-84l-26 36c0 0-44-80-4-96 0 0 218-16 266-152 0 0 109-56 210 4l22 20c0 0-162-8-166 104 0 0 258-40 306 60 48 100 114 248 39 432 0 0-31-320-192-316-162 4-223-60-214-84 0 0-96 84-65 172 31 88 205 16 231 32 26 16 83 44 83 44 0 0-271-32-297 56-26 88 0 168 66 164 2 0 3 0 5-1 6 1 12 2 18 2 42 0 75-30 75-66 0-37-34-66-75-66-9 0-18 2-26 4 10-23 48-55 191-57 223-4 39 232-87 304-127 72-306 152-550 88 0 0 297-144 218-336 0 0-135 284-528 176 0 0-35 124 140 204z"/><path d="m4974 5369c0 0 127 9 163-49 36-58-64-142-262-149 0 0 117 49 130 82 13 33 25 79-31 117z"/><path d="m5628 4500c-43 2-112 91-165 112-53 21-186 9-186 9 0 0 203-105 178-203-25-98-74-98-92-107-18-9-114-30-114-30 0 0-13 35-10 63 3 28 81 93 69 135-13 42-53 65-94 100-41 35-112 70-150 70-38 0-112-30-76-75 0 0-48 49-168 35-120-14-132-12-132-12l-132 112c0 0-5 61 79 70 84 9 160-16 242-12 81 5 132 49 132 49 0 0-112-161-158-166-46-5 8-5 8-5 0 0 107 12 137 33 30 21 76 84 148 133 71 49 219 133 219 133 0 0-214-110-318-91-104 19-155 112-130 138 0 0-89-70-51-121 0 0-40 63-209 40-168-23-201-68-201-68 0 0 23 77 155 142 132 65 163 100 285 128 122 28 209 2 295 2 86 0 163 58 173 96l3 26c0 0-15-35-81-28-66 7-48 93 3 114 51 21 158 26 178-21 20-47 3-200-359-242 0 0-150 5-130-121 0 0 20-26 81-26 61 0 193 75 267 119 74 44 181 126 193 184 0 0 28-114-33-201 0 0 53 26 94 14 0 0-38-270-211-275-173-5-186 16-216 9-30-7-53-42-30-65 23-23 175-28 249 7 74 35 94 68 193 58 99-9 130-19 173 21 43 40 48 68 48 68 0 0 107-138 33-242-74-105-145-112-188-110z"/><path d="m5452 4103c-44 5-53 17-53 31 0 14 22 54 49 61 27 6 78-5 87-25 8-20 5-67 5-67h-88z"/><path d="m5490 4365c3 11 27 47 46 40 19-6 39-30 39-40 0-11-7-62-22-59-15 3-39 17-39 17-27 16-27 31-24 42z"/><path d="m5317 4095c-10-28 7-71-61-90-68-19-387-59-607 277 0 0 193-239 458-205 0 0-10 109 64 106 75-3 156-59 146-87z"/><path d="m5629 4365c47 96 217 118 231 165 14 47 85 81 37 242 0 0 102-233 24-413-78-180-95-168-95-168 0 0-153-25-190-3 0 0-54 81-7 177z"/><path d="m5208 3706c-84 7-166-49-206-59 41-21 106-79-50-104 0 0-115-4-74 111 41 115 178 61 273 89 0 0-115-31-197 121 0 0-15 73-88 125 44-28 162-102 241-119 0 0 37 34 24 65-14 31-3 9-3 9 0 0 115-31 176-34 61-3 119 109 105 143 0 0 214-34 217-202 3-168-190-286-309-286-119 0-129 59-129 59 0 0 125-9 153 59 27 68 37 87 17 146 0 0-44-134-149-124z"/><path d="m5020 4257c28 5 43-12 48-19 5-7 28-75-3-68 0 0-50 4-65 19-15 15-3 53-3 53 0 0-5 9 23 14z"/><path d="m5344 4256c12 11 56 50 68 50 12 0 44-14 41-36-3-22-29-34-41-37-12-3-39-11-39-11-20 2-41 23-29 34z"/><path d="m4895 4218c10 9 25 35 41 26 15-9 38-61 38-61 0 0-33-26-41-28-5-1-21 8-32 16-7 4-11 8-11 8l8-2c0 7-13 33-3 42z"/><path d="m5152 4455c15-2 54-16 49-36-5-20-32-33-41-36-8-3-25 0-25 0-5 11-17 28-15 40 1 12 17 33 32 31z"/><path d="m4834 4229c-8 7-33 30-23 33 10 2 36 2 36 2 0 0 20-16 18-26-3-9-23-16-31-9z"/><path d="m5168 4340c7-9 27-50 25-54-2-5-27-48-42-50-52-5-58 53-53 67 5 14 63 47 69 37z"/><path d="m4633 5120c0 0-36-49-56-77-20-28-81-105-112-82-31 23-48 133-51 121-3-12-3-170-3-170 0 0-13-61-13-91 0-30 18-58-31-119-48-61-254-65-254-65 155-30 229 12 229 12 0 0 69 2 137 142 69 140 348 56 348 56 0 0-150 5-214-2-64-7-109-89-109-89l-21-58c0 0 140-72 173-126 33-54 117-96 117-96-46 28-66 100-66 100 0 0 89 9 155 5 66-5 130-98 153-145 23-47 46-110 46-110 0 0-25-35-130-37-104-2-214 68-239 105-25 37-69 156-92 184-23 28-117 84-117 84l-40-7c0 0 56-47 84-70 28-23 74-82 79-124 5-42 3-114 3-114-43-2-132 33-181 89-48 56 3 140 3 140l-20 60c0 0-49-60-63-75-15-15-13-95 11-130 24-35 83-81 91-139 7-58 63-50 83-179 17-110 86-196 107-219-38 51-17 244-7 238 11-7 127-139 141-216 15-76 87-174 87-174 0 0-43 40-181-23-138-63-317-18-317-18-9 5-105 23-105 23 199 83 183 214 183 214l-16 23-45-10c0-40-16-73-60-121-43-48-134-38-134-38 0 0 9 61 47 88 38 27 34 153 31 344-2 79 6 150 15 207 5-93 34-282 186-322 0 0-181 144-157 438l-9-19c6 23 10 36 10 36-83-53-112-83-161-129-49-46-58-143-58-143 65 17 100 106 100 106h25c16-39-5-118-62-201-56-83-188-131-188-131 29 103 127 138 127 138 0 0-11 27-134-33-123-60-245 40-245 40 25 45 65 96 154 106 89 10 127 43 127 43-85 3-132 70-132 70 170-27 255 38 255 38 0 0 28 35-173 98-201 63-219 205-219 205 170-75 201 82 351 96 150 14 242-58 242-58l15 49-10 26c-102 142-13 375-48 403-36 28-99 40-99 40 181 91 341-28 364-114 23-86 94-91 94-91z"/><path d="m4801 5423c31-112 122-103 46-221-68-106-208-140-243-167 19 22 63 75 73 81 13 7 97 61 97 133 0 0-64-103-127-98 0 0-61 21-69 70-8 49 8 136 31 180 23 43 56 117 0 168 0 0 163-33 193-145z"/><path d="m3628 7158c-92 52-277 28-277-96 0-124-87-136-125-136-38 0-87 108-151 113 0 0 138 14 169 174 31 160 87 115 251 120 0 0 18 134 100 120 82-14 238-110 256-239 18-129 10-265 166-258 0 0 0-124-156-113-156 12-141 265-233 317z"/><path d="m2317 5471c2 19 4 38 7 57 56 357 216 541 553 550 338 9 427-241 427-331 0-90-70-163-155-163-84 0-164 47-164 112 0 64 47 129 174 107 0 0-38 129-206 146-169 17-272-64-272-64 0 0 84-107 216-82 0 0-197-69-277 17l-23 26c0 0-183-43-188-322 0-14 0-27 1-40-36-15-66-18-92-13z"/><path d="m3252 4757c-164-120-246-289-154-333 92-45 36-127 15-131-20-5-126-14-126 73 0 0-151-176-54-293 0 0-195 101-182 239 13 139 87 286 190 354 0 0-120-14-223-167-102-153-149-162-169-430 0 0-21-115 61-129 82-14 79 66 128 47 49-19 79-120-10-134-90-14-202 16-213 99-10 82-15 225 8 279 0 0-170-49-236 33-66 82-117 157-40 216 77 59 115 15 113-14-3-29-55-51-72-29 0 0-58-6-17-67 41-61 123-134 220-85 97 49 77 79 120 152 44 73 197 303 351 318 154 14 187 52 187 52 0 0-286-47-478 82-159 107-331 231-354 474 43 17 74 47 96 76 27-229 181-377 436-477 0 0-117 271 188 318 0 0-97-396 350-342 0 0-209 110-186 286 0 0 239-30 319-82 0 0-66 82-23 176 0 0 80-112 239-99 159 13 309 99 272 481 0 0-42-344-206-378-164-34-197 9-197 9 0 0 19 82 127 155 108 73 122 112 127 198 5 86-117 254-42 387 0 0-230 254-258 357-28 103-33 155-33 155l-33-254c0 0-33-142-127-146-94-4-131 82-131 120 0 39 89 95 173 60l42 168c0 0 28 34 28 129 0 95-47 224-47 271 0 47-23 138 42 150 66 13 108 17 136 4 28-13 40-109 22-226 0 0 38-315 215-441 177-127 282-101 289-45 8 56 62 136-36 319 0 0 312-155 195-397 0 0 184 45 207 108 23 62 75 164-112 257-3 1-5 3-8 4 0 0 236 63 274-113 0 0 33 139-18 171-51 33-105 45-105 89 0 45-64 214-307 160 0 0 136 138 320 61 184-77 243-167 243-350 0-183-56-455-492-495 0 0 538-9 645 214 0 0 23 75-79 127 0 0 44 24 77-5 0 0-67 77-67 162 0 84-8 188-41 223 0 0 136-110 149-178 13-68 90-106 97-113 0 0 3 106-28 167-31 61-54 28-77 99-23 70-59 181-120 230-61 49-69 89-218 108 0 0 315-9 364-68 49-59 100-75 120-148 20-70 6 120-24 172 26-41 180-282 145-379 0 0 37 6 48 17 1 1 2 3 3 4 5 14 23-56 31-56 0 0 51 2 64 38 0 0 21-94-115-94-136 0 15-279-343-420l-20-33c0 0 133-106 149-275 0 0-123 174-264 188-141 14-205-47-205-47 0 0 359-108 384-268 26-160-51-216-115-221-64-5-179 59-164 115 15 56 41 77 67 77 26 0 120-61 54-106 0 0 61-19 72 12 10 31 77 232-297 331-374 99-430 2-620 141-190 139-200 148-200 148 0 0 87-157 182-270 95-113 69-301 376-324 0 0-74-101-205-40 0 0-38-134-15-249 23-115-56-232-36-303 20-70 56-209 166-261 0 0-215 28-264 204v47c0 0-146-148-243-188-97-40-184-232-169-303 15-70 54-56 82-68 28-12 90-82-10-124-100-42-184-31-192 73-8 103 90 305 143 383 0 0-166-49-330-169zm968 1540c0 0 87 123 0 224 0 0 35-80-52-208l52-16z"/><path d="m4370 6040c0 0 106-18 150-70 44-53 63-134-8-211 0 0-6 37-77 41 0 0 117 153-65 241z"/><path d="m4021 6514c-94-18-142 14-202 56-60 42-58 114-58 114 61-118 158-95 158-95-27 46 35 72 85 62 50-11 111-120 17-137z"/><path d="m4121 4031c0 0 81 32 95 116 0 0 21-261-99-261-120 0-102 68-102 84 0 16 21 81 106 61z"/><path d="m1363 10616c124 0 179-109 184-147 5-38 9-88-41-84-50 4-115 25-115 59 0 34 32 63 32 63l-60 21c-96-17-170-114-174-231-5-118 110-231 110-231 0 0-202 101-202 286 0 185 142 265 266 265z"/><path d="m1013 10189c24-21 37-38 37-38-14 6-26 12-38 16l1 22z"/><path d="m3889 8894c-10-314-220-361-322-367-102-6-224 22-210 131 14 109 187 208 203 99 17-109-64-99-64-99 0 0-27 0-27-31 0-31 71-72 149-53 78 19 7 87 17 143 10 56 136 75 122 215-12 126-124 169-145 176 1-2 2-3 3-5 58-103-34-190-34-190 3 196-275 258-380 249-74-7-157-62-201-94 28 5 78 7 167 1 237-16 85-308 85-308 31 90-61 155-136 159-75 3-125 6-288-109-163-115-336-336-336-336 0 0 275 44 410 40 136-3 95-137 85-199-10-62-58-118-176-90-119 28-108 90-400 81-292-9-417-118-468-171-48-50-225-83-246-87 10 1 64 3 327-35 305-44 359-3 359-3-31 78 24 100 88 81 64-19 81-62 58-137-24-75-329-25-329-25 0 0 451-155 515-326 64-171 51-264 48-252-3 12-41 106-51 81-10-25-14-65 14-100 27-34 24-174 24-174 0 16-58 37-58 37 0 0-34 78 0-6 34-84 3-208 3-208 0 62-78 62-78 62-207-146-312-19-312-19 203 28 163 202 163 202 0 0-203-72-139-31 1 1 2 1 3 2 61 41 34 114 8 144-27 31-65 103-61 161 4 58 76 106 103 164 28 58-36 106-127 179-80 64-311 97-366 104 42-7 181-45 171-243-12-233-195-233-274-211-80 22-80 109-80 109 115-36 171-18 167 106-4 124-91 193-187 233-95 40-139 29-334 29-195 0-354 138-354 138l36 33c0 0 298-128 610-10 312 118 305 379 339 541 34 162-105 199-105 199 224 40 183-258 214-233 1 1 2 1 2 2 30 37 62 322-63 355-129 34-200-34-200-34-7 115 78 168 241 174 163 6 153-264 153-264 95 202-81 429-220 457-139 28-265-140-265-140-159 137 95 255 95 255-180-3-231-31-332-93-102-62-88-233-44-305 44-72 176-59 176-59 0 0 3 40-7 40-10 0-51 19-51 56 0 37 47 75 95 84 47 9 61-65 61-65 0 0 58-171-156-168-214 3-248 193-241 286 7 93 41 283 488 317 448 34 404-445 444-292 1 3 1 5 2 8 30 151-219 349-219 349l7 1c-81 77-149 146-184 179-34 20-68 36-84 31-37-13-46-93-106-118-60-25-87-38-161-42-73-4-96-42-96-63 0-21-73 42-129 42-55 0-129-93-124-147 5-55 50-139 50-139 0 0-207 67-161 206 46 139 156 215 156 215 0 0-124 46-147 114 0 0 129 101 298 97l46-17c0 0-9 114 0 151 0 0 106-63 124-88 0 0 151-21 184-25 0 0 7-100 37-114 9-4 92-25 129-50 0 0-64 114-69 202-5 88-23 278 60 345l60 21c0 0-112-135-18-370l10-42c42-99 111-184 234-313 24-25 44-49 60-70 35-27 142-141 142-493 0-420-265-762-265-762 366 165 278 187 505 401 227 215 125 609 102 656-24 47-190 22-190 22 0 0 41 115 237 56 197-59 102-401 102-401 192 79 183 454 183 470-18 92-66 209-197 255 0 0 209-24 231-147 0 0 93 155-18 256l-30 28c0 0-89-58-155-9-66 49-38 135-28 161 10 26 66 33 66 33 0 0-61 133 5 203 66 70 173 14 173 14 0 0 64-47 61-110 0 0 15 26 104 26 89 0 122-37 142-75 20-37-5-142-61-159-56-16-170-40-181 21l-8 21-66 2v-47l69-35c0 0 53-37 46-177 0 0 76 82 183 68 107-14 239-49 231-156-8-107-61-168-120-166-58 2-122 61-122 103 0 42 25 65 64 68 38 2 51-51 51-58 0-7-20-26-20-26 0 0 61-37 69 5 8 42 48 100-28 140-76 40-155 51-221-21-55-60-82-96-102-193h1c-2-87-34-240-52-320-3-16-6-31-9-42-1-6-2-10-2-10 292 103 780-6 770-320zm-1354-1528c65-58 41-146 41-146 0 0 65 106 57 234-8 128-106 223-106 223 106-156 45-261 45-261 0 0 2 34-53 75-55 41-73 129-73 129-98-147 24-198 88-255zm-1195 2442c184-72 285 84 285 84-271 25-285-84-285-84zm623 9v-11h9l-8 11zm1259 286v-6c121-25 72 12 88 55 16 43-19 25-48 30-29 4-37-9-47-15-10-6-2-12-5-32-3-21 10-22 11-31zm-307-38c-11-10-10-19-6-43 3-24 27-27 27-27 90-4 60 7 68 28 8 21-24 43-35 52-11 9-42 0-53-10zm182 121c19 18 6 43-11 81-18 38-69 38-90 38-21 0-27-24-35-75-8-52 47-61 52-62 0 0 66 0 85 18z"/><path d="m1629 6292c0 0-24 27-10 36 15 9 24 45 39 31 15-13 10-67-29-67z"/><path d="m1690 6217c0 0-13-46-30-39 0 0-38 9-38 32 0 23 28 42 40 42 13 0 28-35 28-35z"/><path d="m1702 6096c-5-12-3-46-53-37 0 0-38 14-33 32 5 18 23 44 43 44 20 0 48-28 43-39z"/><path d="m1612 5916c-25 2-25 32-23 53 3 21 35 46 48 42 13-5 40-25 40-48 0-23-58-47-66-46z"/><path d="m1566 5750c0 0-50 30-48 55 3 25 10 39 78 39 68 0 81-14 76-51-5-37-55-46-106-44z"/><path d="m1538 5648c0 0-25 25-13 35 13 9 35 21 61 21 25 0 78-39 68-58-10-19-71-44-116 2z"/><path d="m1378 5566c5 6 10 12 15 18 54 56 81 62 81 62 0 0 64-65 125-62 0 0-44-90 27-149 0 0-103-59-196 1l-4 9c6 5 17 17 9 28 0 0-7-5-17-10-14 34-28 69-42 103z"/><path d="m1612 5051c3-1 6-3 9-5 0 0-8 14-23 32-46 91-90 184-132 279 7 1 15 1 22 0 68-9 139 9 139 9 37 0 109 34 112 62 3 28-31 25-34 34-3 9-17 53 0 53 17 0 92 37 119-62 27-99-37-124-54-134-17-9 88-99 92-177 3-78-92-127-92-127 0 0 234-215 404-68 0 0 20-190-214-193-102-1-164 13-202 29-51 88-99 177-146 268zm349-596c32 2 71-17 73-49 1-14 0-32-7-49-23 33-45 66-67 99zm-296 821c-7-68-112-62-112-62 139-50 136-190 136-190 102 99-17 320-24 252z"/><path d="m2317 5362c-56-22-132-19-232 45-270 173-201 235-219 319-18 84-41 154-41 154 0 0 25-298-170-322 0 0 102 72 107 315 5 242-8 352-36 455-28 103-114 298-137 331-23 33-43-112-36-205 8-93 61-336-46-438-107-103-99-152-92-173 8-21 41-51 41-58 0-7 51-40-5-82 0 0 23 49-92 42-20-1-35-7-45-16-7 18-13 36-20 55 14 10 24 21 27 31 7 28 58 143 58 143 0 0-52-63-110-102-6 17-12 35-18 53 79 44 280 172 277 419 0 0-136-292-298-311-4-1-9-1-13-1-20 62-38 126-56 189 83 41 210 81 259 297 58 255-34 351-34 351 0 0-51-3-47-112 3-109 14-258-159-311 0 0-88 68-85 187 2 63 17 99 31 119-18-17-46-39-78-55-3 15-6 29-9 44l60 71c68 81 109 190 95 243-12 48-97 189-242 277-4 37-7 75-11 112 7 14 11 26 11 32 0 0 137-139 187-198 50-59 112-113 167-104 55 9 87 32 93 64 6 32-11 38-43 35-32-3-104-26-132 26-28 52 9 139 109 136 99-3 191-107 184-192-6-85-82-149-167-162 0 0 33-89 140-175 107-86 222-143 344-128 122 15 143 128 143 128 0 0 52-184-94-231-146-48-8-109 95-118 103-8 165-26 341 40 0 0-47-172-220-175-173-2-206 30-392 149 0 0 48-203 150-296 0 0 117-16 137 54 0 0-3-91-81-105 0 0 109-105 188-117 79-12 175-37 270 37 47 38 12 56-36 64 10-8 16-18 16-28 0-26-33-46-74-46-41 0-74 21-74 46 0 3 1 5 1 7 0 0-1 16 26 29-2 0-4 0-4 0 0 0 2 0 5 1 11 5 27 10 50 14 58 9 100-4 124-18 0 0 1 0 1-1 1-1 2-1 3-2 2-1 4-3 6-4 4-3 7-6 9-9h-1c7-8 12-19 13-32 8-63-25-126-203-163 0 0 0-72 145-72 0 0-183-82-270 86 0 0-28 49-33 56-5 7-112 54-231 156 0 0 15-259 64-357 48-98 203-93 221-47 0 0 94-9 109-124 15-114-33-119-33-119 0 0 33-80 110-94 26-5 56-2 92 13 13 6 27 13 42 23 0 0-12-33-38-69-22-29-53-60-96-76z"/><path d="m4689 13416c0 0 127 9 163-49 36-58-64-142-262-149 0 0 117 49 130 82 13 33 25 79-31 117z"/><path d="m5343 12546c-43 2-112 91-165 112-53 21-186 9-186 9 0 0 203-105 178-203-25-98-74-98-92-107-18-9-114-30-114-30 0 0-13 35-10 63 3 28 81 93 69 135-13 42-53 65-94 100-41 35-112 70-150 70-38 0-112-30-76-75 0 0-48 49-168 35-120-14-132-12-132-12l-132 112c0 0-5 61 79 70 84 9 160-16 242-12 81 5 132 49 132 49 0 0-112-161-158-166-46-5 8-5 8-5 0 0 107 12 137 33 30 21 76 84 148 133 71 49 219 133 219 133 0 0-214-110-318-91-104 19-155 112-130 138 0 0-89-70-51-121 0 0-40 63-209 40-168-23-201-68-201-68 0 0 23 77 155 142 132 65 163 100 285 128 122 28 209 2 295 2 86 0 163 58 173 96l3 26c0 0-15-35-81-28-66 7-48 93 3 114 51 21 158 26 178-21 20-47 3-201-359-242 0 0-150 5-130-121 0 0 20-26 81-26 61 0 193 75 267 119 74 44 181 126 193 184 0 0 28-114-33-201 0 0 53 26 94 14 0 0-38-270-211-275-173-5-186 16-216 9-31-7-53-42-31-65 23-23 175-28 249 7 74 35 94 68 193 58 99-9 130-19 173 21 43 40 48 68 48 68 0 0 107-138 33-242-74-105-145-112-188-110z"/><path d="m5168 12149c-44 5-53 17-53 31 0 14 22 54 49 61 27 6 78-5 87-25 8-20 5-67 5-67h-88z"/><path d="m5205 12411c3 11 27 47 46 40 19-6 39-30 39-40 0-11-7-62-22-59-15 3-39 17-39 17-27 16-27 31-24 42z"/><path d="m5032 12141c-10-28 7-71-61-90-68-19-387-59-607 277 0 0 193-239 458-205 0 0-10 109 64 106 75-3 156-59 146-87z"/><path d="m5344 12411c47 96 217 118 231 165 14 47 85 81 37 242 0 0 102-233 24-413-78-180-95-168-95-168 0 0-153-25-190-3 0 0-54 81-7 177z"/><path d="m4923 11752c-84 7-166-49-206-59 41-21 106-79-50-104 0 0-115-4-74 111 41 115 178 61 273 89 0 0-115-31-197 121 0 0-15 73-88 125 44-28 162-102 241-119 0 0 37 34 24 65-14 31-3 9-3 9 0 0 115-31 176-34 61-3 119 109 105 143 0 0 214-34 217-202 3-168-190-286-309-286-119 0-129 59-129 59 0 0 125-9 153 59 27 68 37 87 17 146 0 0-44-134-149-124z"/><path d="m4735 12303c28 5 43-12 48-19 5-7 28-75-3-68 0 0-50 4-65 19-15 15-3 53-3 53 0 0-5 9 23 14z"/><path d="m5059 12303c12 11 56 50 68 50 12 0 44-14 41-36-3-22-29-34-41-37-12-3-39-11-39-11-20 2-41 23-29 34z"/><path d="m4611 12264c10 9 25 35 41 26 15-9 38-61 38-61 0 0-33-26-41-28-5-1-21 8-32 16-7 4-11 8-11 8l8-2c0 7-13 33-3 42z"/><path d="m4867 12502c15-2 54-16 49-36-5-20-32-33-41-36-8-3-25 0-25 0-5 11-17 28-15 40 1 12 17 33 32 31z"/><path d="m4549 12275c-8 7-33 30-23 33 10 2 36 2 36 2 0 0 20-16 18-26-3-9-23-16-30-9z"/><path d="m4883 12387c7-9 27-50 25-54-2-5-27-48-42-50-52-5-58 53-53 67 5 14 63 47 69 37z"/><path d="m4349 13166c0 0-36-49-56-77-20-28-81-105-112-82-31 23-48 133-51 121-3-12-3-170-3-170 0 0-13-61-13-91 0-30 18-58-31-119-48-61-254-65-254-65 155-30 229 12 229 12 0 0 69 2 137 142 69 140 348 56 348 56 0 0-150 5-214-2-64-7-109-89-109-89l-21-58c0 0 140-72 173-126 33-54 117-96 117-96-46 28-66 100-66 100 0 0 89 9 155 5 66-5 130-98 153-145 23-47 46-110 46-110 0 0-25-35-130-37-104-2-214 68-239 105-25 37-69 156-92 184-23 28-117 84-117 84l-40-7c0 0 56-47 84-70 28-23 74-82 79-124 5-42 3-114 3-114-43-2-132 33-181 89-48 56 3 140 3 140l-20 60c0 0-49-60-63-75-15-15-13-95 11-129 24-35 83-81 91-139 7-58 63-50 83-179 17-110 86-196 107-219-38 51-17 244-7 238 11-7 127-139 141-216 15-76 87-174 87-174 0 0-43 40-181-23-138-63-317-18-317-18-9 5-105 23-105 23 199 83 183 214 183 214l-16 23-45-10c0-40-16-73-60-121-43-48-134-38-134-38 0 0 9 61 47 88 38 27 34 153 31 344-2 79 6 150 15 207 5-93 34-282 186-322 0 0-181 144-157 438l-9-19c6 23 10 36 10 36-83-53-112-83-161-130-49-46-58-143-58-143 65 17 100 106 100 106h25c16-39-5-118-62-201-56-83-188-131-188-131 29 103 127 138 127 138 0 0-11 27-134-33-123-60-245 40-245 40 25 45 65 96 154 106 89 10 127 43 127 43-85 3-132 70-132 70 170-27 255 38 255 38 0 0 28 35-173 98-201 63-219 205-219 205 170-75 201 82 351 96 150 14 242-58 242-58l15 49-10 26c-102 142-13 375-48 403-36 28-99 40-99 40 181 91 341-28 364-114 23-86 94-91 94-91z"/><path d="m4516 13469c31-112 122-103 46-221-68-106-208-140-243-167 19 22 63 75 73 81 13 7 97 61 97 133 0 0-64-103-127-98 0 0-61 21-69 70-8 49 8 136 31 180 23 43 56 117 0 168 0 0 163-33 193-145z"/><path d="m3343 15204c-92 52-277 28-277-96 0-124-87-136-125-136-38 0-87 108-151 113 0 0 138 14 169 174 31 160 87 115 251 120 0 0 18 134 100 120 82-14 238-110 256-239 18-129 10-265 166-258 0 0 0-124-156-113-156 12-141 265-233 317z"/><path d="m2032 13517c2 19 4 37 7 57 56 357 216 541 553 550 338 9 427-241 427-331 0-90-70-163-155-163-84 0-164 47-164 112 0 64 47 129 174 107 0 0-38 129-206 146-169 17-272-64-272-64 0 0 84-107 216-82 0 0-197-69-277 17l-23 26c0 0-183-43-188-322 0-14 0-27 1-40-36-15-66-18-92-13z"/><path d="m2967 12803c-164-120-246-289-154-333 92-45 36-127 15-131-20-5-126-14-126 73 0 0-151-176-54-293 0 0-195 101-182 239 13 139 87 286 190 354 0 0-120-14-223-167-102-153-149-162-169-430 0 0-20-115 61-129 82-14 79 66 128 47 49-19 79-120-10-134-90-14-202 16-213 99-10 82-15 225 8 279 0 0-170-49-236 33-66 82-117 157-40 216 77 59 115 15 113-14-3-29-55-51-72-29 0 0-58-6-17-67 41-61 123-134 220-85 97 49 77 79 120 152 44 73 197 303 351 318 154 14 187 52 187 52 0 0-286-47-478 82-159 107-331 232-354 474 43 17 74 47 96 76 27-229 181-377 436-477 0 0-117 271 188 318 0 0-97-396 350-342 0 0-209 110-186 286 0 0 239-30 319-82 0 0-66 82-23 176 0 0 80-112 239-99 159 13 309 99 272 481 0 0-42-344-206-378-164-34-197 9-197 9 0 0 19 82 127 155 108 73 122 112 127 198 5 86-117 254-42 387 0 0-230 254-258 357-28 103-33 155-33 155l-33-254c0 0-33-142-127-146-94-4-131 82-131 120 0 39 89 95 173 60l42 168c0 0 28 34 28 129 0 95-47 224-47 271 0 47-23 138 42 150 66 13 108 17 136 4 28-13 40-109 22-226 0 0 38-315 215-441 177-127 282-101 289-45 8 56 61 136-36 319 0 0 312-155 195-397 0 0 184 45 207 108 23 62 75 164-112 257-3 1-5 3-8 4 0 0 236 63 274-113 0 0 33 139-18 171-51 33-105 45-105 89 0 45-64 214-307 160 0 0 136 138 320 61 184-77 243-167 243-350 0-183-56-455-492-495 0 0 538-9 645 214 0 0 23 75-79 127 0 0 44 24 77-5 0 0-67 77-67 162 0 84-8 188-41 223 0 0 136-110 149-178 13-68 90-106 97-113 0 0 3 106-28 167-31 61-54 28-77 99-23 70-59 181-120 230-61 49-69 89-218 108 0 0 315-9 364-68 49-59 100-75 120-148 20-70 6 120-24 172 26-41 180-282 145-379 0 0 37 6 48 17 1 1 2 3 3 4 5 14 23-56 31-56 0 0 51 2 64 38 0 0 21-94-115-94-136 0 15-279-343-420l-20-33c0 0 133-106 149-275 0 0-123 174-264 188-141 14-205-47-205-47 0 0 359-108 384-268 26-160-51-216-115-221-64-5-179 59-164 115 15 56 41 77 67 77 26 0 120-61 54-106 0 0 61-19 72 12 10 30 77 232-297 331-374 99-430 2-620 141-190 139-200 148-200 148 0 0 87-157 182-270 95-113 69-301 376-324 0 0-74-101-205-40 0 0-38-134-15-249 23-115-56-232-36-303 21-70 56-209 166-261 0 0-215 28-264 204v47c0 0-146-148-243-188-97-40-184-232-169-303 15-70 54-56 82-68 28-12 90-82-10-124-100-42-184-31-192 73-8 103 90 305 143 383 0 0-166-49-330-169zm968 1540c0 0 87 123 0 224 0 0 35-80-52-208l52-16z"/><path d="m4085 14086c0 0 106-18 150-70 44-53 63-134-8-211 0 0-6 37-77 41 0 0 117 153-65 241z"/><path d="m3736 14560c-94-18-142 14-202 56-60 42-58 114-58 114 61-118 158-95 158-95-27 46 35 72 85 62 50-11 111-120 17-137z"/><path d="m3836 12078c0 0 81 32 95 116 0 0 21-261-99-261-120 0-102 68-102 84 0 16 21 81 106 61z"/><path d="m1355 14400c6 7 11 12 18 5 14-13 10-61-23-66l5 61z"/><path d="m1405 14263c0 0-13-46-30-39 0 0-22 5-32 18l3 37c9 12 24 19 32 19 13 0 28-35 28-35z"/><path d="m1417 14143c-5-12-3-46-53-37 0 0-25 9-32 23l1 17c7 17 23 36 40 36 20 0 48-28 43-39z"/><path d="m1327 13962c-3 0-5 1-8 2l7 83c10 7 20 12 26 10 13-5 40-25 40-49 0-23-58-47-66-46z"/><path d="m1313 13891c67 0 79-14 74-51-4-31-41-43-82-44l8 95z"/><path d="m1301 13750h1c25 0 78-39 68-58-7-13-40-30-75-21l7 79z"/><path d="m1291 13632c8-2 16-2 24-2 0 0-44-90 27-149 0 0-27-16-66-23l15 174z"/><path d="m1189 12445c20 12 43 24 71 36 0 0 78-99 82-113 4-14 11-51-67-55 0 0 18-87-101-49l15 179z"/><path d="m1230 12598c0 0-12-9-30-26 10 118 20 237 30 356 25-46 41-113 34-212l34-84c0 0 85 297-56 431l4 52c34-3 68-10 89-23 0 0-31 53-83 93l19 216c40 3 71 11 71 11 37 0 109 34 112 62 3 28-31 25-34 34-3 9-17 53 0 53 17 0 92 37 119-62 27-99-37-124-54-134-17-9 88-99 92-177 3-78-92-127-92-127 0 0 234-214 404-68 0 0 20-190-214-193-234-3-258 75-258 75 0 0-20-149 78-168 98-19 85-99 95-118 0 0-48 37-105 12 0 0 7-99 78-127 71-28 54-3 85 19 31 22 98 3 102-40 3-44-14-124-159-118-146 6-319 264-319 264h-41zm149 724c-7-68-112-62-112-62 139-50 136-190 136-190 102 99-17 320-24 252z"/><path d="m1118 11598c96 0 118 14 138 65 22 58 22 157 22 157 0 0-49-79-148-70l3 39c65 50 163 169 82 393 0 0 182-150 186-351 3-182-69-366-297-400 4 56 9 112 13 168z"/><path d="m2032 13408c-56-22-132-19-232 45-270 173-201 235-219 319-18 84-41 154-41 154 0 0 25-298-170-322 0 0 102 72 107 315 5 242-8 352-36 455-14 52-44 129-72 195 7 85 14 171 21 257 52-18 105-26 159-19 122 15 143 128 143 128 0 0 52-184-94-231-146-48-8-109 95-117 103-8 165-26 341 40 0 0-47-172-220-175-173-2-206 30-392 149 0 0 48-203 150-296 0 0 117-16 137 54 0 0-3-91-81-105 0 0 109-105 188-117 79-12 176-37 270 37 47 38 12 56-36 64 10-8 16-18 16-28 0-26-33-46-74-46-41 0-74 21-74 46 0 3 1 5 1 7 0 0-1 16 26 29-2 0-4 0-4 0 0 0 2 0 5 1 11 5 27 10 50 14 58 9 100-4 124-18 0 0 1 0 1-1 1-1 2-1 3-2 2-1 4-3 6-4 4-3 7-6 9-9h-1c7-8 12-19 13-32 8-63-25-126-203-163 0 0 0-72 145-72 0 0-183-82-270 86 0 0-28 49-33 56-5 7-112 54-231 156 0 0 15-259 64-357 48-98 203-93 221-47 0 0 94-9 109-124 15-114-33-119-33-119 0 0 33-80 110-94 26-5 56-2 92 13 13 6 27 13 42 23 0 0-12-33-38-69-22-29-53-60-96-76z"/><path d="m972 8595c-13 1-28 9-44 21 3 80 7 160 10 240 74-8 102-11 140 24 43 40 48 68 48 68 0 0 107-138 33-242-74-105-145-112-188-110z"/><path d="m973 8461c47 96 217 118 231 165 14 47 85 81 37 242 0 0 102-233 24-413-78-180-95-168-95-168 0 0-153-25-190-3 0 0-54 81-7 177z"/><path d="m913 8073c31-30 55-70 56-125 1-56-19-106-52-148-3 90-5 181-5 273z"/></g><g stroke-width="7.62"><text x="10500" y="14850" font-family="&apos;Monotype Corsiva&apos;" font-style="italic" font-size="4166.1" transform="matrix(.95838 0 0 1-7747.32 8299.68)">T1</text><text x="10500" y="14850" font-family="&apos;Arial&apos;" font-weight="bold" font-size="784.36" transform="matrix(.95838 0 0 1-7155.17 9935.77)">00.00.0000</text></g></g><g font-family="&apos;Arial Black&apos;" font-weight="900" font-size="582.19"><text x="10500" y="14850" transform="matrix(.95838 0 0 1-6020.6 4134.89)">NN 1</text><text x="10500" y="14850" transform="matrix(.95838 0 0 1-6043.45 4717.14)">NN 2</text></g></g><path d="m14510 25241c1246 623 3615 503 4334-650 717-1148 554-4405 622-6002 170-3999 601-7032 712-10257 124-3581-2249-5949-5085-6616-4001-941-3765 4571-3209 7403 292 1522 868 2846 1235 4334 678 2744 64 6933 299 9789 121 987 441 1642 1091 1998z" fill="#fff"/><g fill="#201e1e"><g stroke="#201e1e"><g stroke-linejoin="round" stroke-linecap="round" stroke-width="17.64"><path d="m18255 18944c-7 22-51 14-72 6-20-8-12-27-22-36-10-9-36-17-36-17-5-19 0-24 36-24 36 0 99-43 99-43 51-15 7 48 2 54-5 6 0 38-7 60z"/><path d="m18762 19069c-81-25-125-65-224-87-98-22-173-22-183-6-10 16-27 40-20 59 0 0-58-124-10-199 47-75 88-47 88-47 0 0 176 19 220 59 44 40 64-37 61-47 0 0 71 3 71 127 0 124 98 16 115 3 17-12-3-25 0-68 3-44 81-84 153-44 71 40 75 118 7 183-68 65-197 90-278 65z"/><path d="m19458 18836c-22-28-33-58-35-74-5-38-9-88 40-84-2 51-4 104-5 158z"/><path d="m17081 17188c10-314 220-361 322-367 102-6 224 22 210 131-14 109-187 208-203 99-17-109 64-99 64-99 0 0 27 0 27-31 0-31-71-72-149-53-78 19-7 87-17 143-10 56-136 75-122 215 12 126 124 169 145 176-1-2-2-3-3-5-58-103 34-190 34-190-3 196 275 258 380 249 74-7 157-62 201-94-28 5-78 7-167 1-237-16-85-308-85-308-31 90 61 155 136 159 75 3 125 6 288-109 163-115 336-336 336-336 0 0-275 44-410 40-136-3-95-137-85-199 10-62 58-118 176-90 119 28 109 90 400 81 292-9 417-118 468-171 48-50 225-83 246-87-10 1-64 3-327-35-305-43-359-3-359-3 31 78-24 100-88 81-64-19-81-62-58-137 24-75 329-25 329-25 0 0-451-155-515-326-64-171-51-264-48-252 3 12 41 106 51 81 10-25 14-65-14-100-27-34-24-174-24-174 0 16 58 37 58 37 0 0 34 78 0-6-34-84-3-208-3-208 0 62 78 62 78 62 207-146 312-19 312-19-203 28-163 202-163 202 0 0 203-72 139-31-1 1-2 1-3 2-61 41-34 114-8 144 27 31 65 103 61 161-4 58-76 106-103 164-28 58 36 106 127 179 80 64 311 97 366 104-42-7-181-45-171-243 12-233 195-233 274-211 80 22 80 109 80 109-115-36-171-18-167 106 4 124 91 193 187 233 92 39 136 30 314 29l-8 111c-82 2-172 15-264 50-312 118-305 379-339 541-34 162 105 199 105 199-224 40-183-258-214-233-1 1-2 1-2 2-30 37-62 322 63 355 129 34 200-34 200-34 7 115-78 168-241 174-163 6-153-264-153-264-95 202 81 429 220 457 139 28 265-140 265-140 159 137-95 255-95 255 180-3 231-31 332-93 19-12 35-28 46-46-2 45-5 89-7 134-72 47-184 85-361 98-448 34-404-445-444-292-1 3-1 5-2 8-30 151 219 349 219 349l-7 1c81 77 149 146 184 179 34 20 68 36 84 31 37-13 46-93 106-118 60-25 87-38 161-42 21-1 38-5 51-11-3 49-5 99-7 148-94 20-145 98-145 98 57 5 103 5 140 0-3 58-5 116-8 175-22-15-42-31-49-40 0 0-151-21-184-25 0 0-7-100-37-114-9-4-92-25-129-51 0 0 64 114 69 202 5 88 23 278-60 345l-60 21c0 0 112-135 18-370l-10-42c-42-99-111-184-234-313-24-25-44-49-60-70-35-27-142-141-142-493 0-420 265-762 265-762-366 165-278 187-505 401-227 215-125 609-102 656 24 47 190 22 190 22 0 0-41 115-237 56-197-59-102-401-102-401-192 79-183 454-183 470 18 92 66 209 197 255 0 0-209-24-231-147 0 0-93 155 18 257l30 28c0 0 89-58 155-9 66 49 38 135 28 161-10 26-66 33-66 33 0 0 61 133-5 203-66 70-173 14-173 14 0 0-64-47-61-110 0 0-15 26-104 26-89 0-122-37-142-75-20-37 5-142 61-159 56-16 170-40 181 21l8 21 66 2v-47l-69-35c0 0-53-37-46-177 0 0-76 82-183 68-107-14-239-49-231-156 8-107 61-168 120-166 58 2 122 61 122 103 0 42-25 65-64 68-38 2-51-51-51-58 0-7 20-26 20-26 0 0-61-37-69 5-8 42-48 100 28 140 76 40 155 51 221-21 55-60 82-96 102-193h-1c2-87 34-240 52-320 3-16 6-31 9-42 1-6 2-10 2-10-292 103-780-6-770-320zm2446 186c-4-12-9-22-15-31-44-71-176-59-176-59 0 0-3 40 7 40 10 0 51 19 51 56 0 37-47 75-95 84-47 9-61-65-61-65 0 0-58-171 156-168 59 1 105 16 139 40l-6 103zm-1092-1714c-65-58-41-146-41-146 0 0-65 106-57 234 8 128 106 223 106 223-106-156-45-261-45-261 0 0-2 34 53 75 55 41 73 129 73 129 98-147-24-198-88-255zm572 2451v-11h-9l8 11zm-1259 286v-6c-121-25-72 12-88 55-16 43 19 25 48 30 29 4 37-9 47-15 10-6 2-12 5-32 3-21-10-22-11-31zm307-38c11-10 10-19 6-43-3-24-27-27-27-27-90-4-60 7-68 28-8 21 24 43 35 52 11 9 42 0 53-10zm-182 121c-19 18-6 43 11 81 18 38 69 38 90 38 21 0 27-24 35-75 8-52-47-61-52-62 0 0-66 0-85 18z"/><path d="m16229 3990c11 7 17 11 17 11s-12-7-17-11z"/><path d="m18023 3196c-21 110-133 187-217 187-105 0-115-31-119-112-3-81 34-90 61-93 27-3 44 25 44 44 0 19-17 59 27 53 44-6 37-19 68-62 31-44-14-152-58-155-44-3-54 19-54 19l-71-3c0 0 17-56 34-72 7-6 12-13 15-26 92 71 182 145 270 221z"/><path d="m18585 3746c-117 29-281 10-287-62-7-87 98-99 129-87 8 3 17 6 27 7 44 47 88 94 131 142z"/><path d="m18278 3569c-64 53-119 103-210 103-92 0-170-44-170-90 0-47 20-149 105-149 85 0 102 56 102 56l10 31c0 0 125 6 85-146-3-10-5-18-7-26 43 40 86 81 128 123-2 39-14 75-43 99z"/><path d="m17500 3583c-175 80-39 288 0 288 20 0 26-4 28-15-23-6-40-22-40-42 0-25 26-45 58-45 20 0 37 8 47 19 9 8 15 19 16 31 4 48 35 176-87 160-122-16-258-136-144-376 0 0-144 40-314 40-170 0-402-76-568-236-166-160-349-340-533-316 0 0 39-104 201-104 162 0 175 120 175 120 0 0-4-104-4-200 0-96 170-392 554-392 384 0 349 228 349 328 0 100-39 180-135 180-96 0-92-84-92-84 0 0-26-84 127-84l26 36c0 0 44-80 4-96 0 0-218-16-266-152 0 0-109-56-210 4l-22 20c0 0 162-8 166 104 0 0-258-40-306 60-48 100-114 248-39 432 0 0 31-320 192-316 162 4 223-60 214-84 0 0 96 84 65 172-31 88-205 16-231 32-26 16-83 44-83 44 0 0 271-32 297 56 26 88 0 168-66 164-2 0-3 0-5-1-6 1-12 2-18 2-42 0-75-30-75-66 0-37 34-66 75-66 9 0 18 2 26 4-10-23-48-55-191-57-223-4-39 232 87 304 127 72 306 152 550 88 0 0-297-144-218-336 0 0 135 284 528 176 0 0 35 124-140 204z"/><path d="m16514 12036c11 7 17 11 17 11s-12-7-17-11z"/><path d="m18381 10651c-7 22-51 14-72 6-20-8-12-27-22-36-10-9-36-17-36-17-5-19 0-24 36-24 36 0 99-43 99-43 51-15 7 48 2 54-5 6 0 38-7 59z"/><path d="m18888 10776c-81-25-125-65-224-87-98-22-173-22-183-6-10 16-27 40-20 59 0 0-58-124-10-199 47-75 88-47 88-47 0 0 176 19 220 59 44 40 64-37 61-47 0 0 71 3 71 127 0 124 98 16 115 3 17-12-3-25 0-68 3-44 81-84 153-44 71 40 75 118 7 183-68 65-197 90-278 65z"/><path d="m18678 10863c31 103-41 236-41 236l-20 109c0 0-34-16-37-44-3-28-68-87-92-87-24 0-129-3-146-19-17-16-44-112-44-112-14 6-34 50 7 205 41 155-108 277-214 277-105 0-115-31-119-112-3-81 34-90 61-93 27-3 44 25 44 44 0 19-17 59 27 53 44-6 37-19 68-62 31-44-14-152-58-155-44-3-54 19-54 19l-71-3c0 0 17-56 34-71 17-16 24-40 20-146-3-106 176-202 176-202l51 47 41-12c0 0 24 19 24 47 0 28 0 109 27 140 27 31 146 16 146 16 0 0-7-112-51-124-44-12-54-40-54-40l-20-68c0 0 14 34 64 53 51 19 200 6 231 109z"/><path d="m18739 11221c0 0-24-50-34-75-10-25-14-71 0-87 0 0 14 25 20 37 7 12 24 103 14 124z"/><path d="m18841 11044l-7-37c0 0 71 34 81 72 10 37-78 84-78 84 0 0-10-34-7-47 3-12 31-31 41-40 10-9-31-31-31-31z"/><path d="m18780 11006l20 44c0 0-10 19-31 16-20-3-44-34-44-34 0 0 20-31 54-25z"/><path d="m19000 11239c17 22 17 28 37 34 20 6-37 19-61 9-24-9-34-59-34-59 0 0 41-6 58 16z"/><path d="m18878 11202c10 19 27 37 14 47-14 9-61 12-64 3-3-9-17-50 0-50 17 0 51 0 51 0z"/><path d="m19190 11345c163 31 193-159 193-159 92 177-75 267-176 270-102 3-170-121-193-124 0 0 14-19 176 12z"/><path d="m19183 11159c-112-3-227-124-254-162-27-37-24-131-24-131 37 103 136 118 156 131 0 0 109 16 153-6 44-22 7-78-7-106-14-28-31-93-31-93 14 0 268-3 265 165-3 168-146 205-258 202z"/><path d="m18570 11235c-1-1-3-1-4-2 0 0 1 1 4 2z"/><path d="m19136 11581c0 0-7-8-18-20l15 11 3 9z"/><path d="m19118 11561l-121-89c0 0-156-124-220-159-64-34-81-19-122-34-34-13-73-37-85-44 21 10 101 11 136 16 37 6 142 65 197 96 44 25 169 161 216 213z"/><path d="m18740 11440c-7-1-11-1-11-1 3 0 7 1 11 1z"/><path d="m18740 11440c34 5 139 23 209 79 85 68 92 190-14 249-105 59-346 50-353-37-7-87 98-99 129-87 31 12 78 16 132-12 54-28 31-93 24-121-6-25-89-63-128-70z"/><path d="m18448 11165c0 0-14-37 24-44 37-6 68 53 34 59l-58-16z"/><path d="m18824 10929c3 16-20 28-34 31-14 3-27-9-41-31-14-22 20-53 20-53 44 3 51 37 54 53z"/><path d="m18563 11616c-64 53-119 103-210 103-92 0-170-44-170-90 0-47 20-149 105-149 85 0 102 56 102 56l10 31c0 0 125 6 85-146-41-152 0-68-85-214 0 0 142 106 176 174 34 68 51 183-14 236z"/><path d="m17785 11630c-175 80-39 288 0 288 20 0 26-4 28-15-23-6-40-22-40-42 0-25 26-45 58-45 20 0 37 8 47 19 9 8 15 19 16 31 4 48 35 176-87 160-122-16-258-136-144-376 0 0-144 40-314 40-170 0-402-76-568-236-166-160-349-340-533-316 0 0 39-104 201-104 162 0 175 120 175 120 0 0-4-104-4-200 0-96 170-392 554-392 384 0 349 228 349 328 0 100-39 180-135 180-96 0-92-84-92-84 0 0-26-84 127-84l26 36c0 0 44-80 4-96 0 0-218-16-266-152 0 0-109-56-210 4l-22 20c0 0 162-8 166 104 0 0-258-40-306 60-48 100-114 248-39 432 0 0 31-320 192-316 162 4 223-60 214-84 0 0 96 84 66 172-31 88-205 16-231 32-26 16-83 44-83 44 0 0 271-32 297 56 26 88 0 168-66 164-2 0-3 0-5-1-6 1-12 2-18 2-42 0-75-30-75-66 0-37 34-66 75-66 9 0 18 2 26 4-10-23-48-55-191-57-223-4-39 232 87 304 127 72 306 152 550 88 0 0-297-144-218-336 0 0 135 284 528 176 0 0 35 124-140 204z"/><path d="m16121 5369c0 0-127 9-163-49-36-58 64-142 262-149 0 0-117 49-130 82-13 33-25 79 31 117z"/><path d="m15467 4500c43 2 112 91 165 112 53 21 186 9 186 9 0 0-203-105-178-203 25-98 74-98 92-107 18-9 114-30 114-30 0 0 13 35 10 63-3 28-81 93-69 135 13 42 53 65 94 100 41 35 112 70 150 70 38 0 112-30 76-75 0 0 48 49 168 35 120-14 132-12 132-12l132 112c0 0 5 61-79 70-84 9-160-16-242-12-81 5-132 49-132 49 0 0 112-161 158-166 46-5-8-5-8-5 0 0-107 12-137 33-30 21-76 84-148 133-71 49-219 133-219 133 0 0 214-110 318-91 104 19 155 112 130 138 0 0 89-70 51-121 0 0 40 63 209 40 168-23 201-68 201-68 0 0-23 77-155 142-132 65-163 100-285 128-122 28-209 2-295 2-86 0-163 58-173 96l-3 26c0 0 15-35 81-28 66 7 48 93-3 114-51 21-158 26-178-21-20-47-3-200 359-242 0 0 150 5 130-121 0 0-20-26-81-26-61 0-193 75-267 119-74 44-181 126-193 184 0 0-28-114 33-201 0 0-53 26-94 14 0 0 38-270 211-275 173-5 186 16 216 9 30-7 53-42 30-65-23-23-175-28-249 7-74 35-94 68-193 58-99-9-130-19-173 21-43 40-48 68-48 68 0 0-107-138-33-242 74-105 145-112 188-110z"/><path d="m15643 4103c44 5 53 17 53 31 0 14-22 54-49 61-27 6-78-5-87-25-8-20-5-67-5-67h88z"/><path d="m15606 4365c-3 11-27 47-46 40-19-6-39-30-39-40 0-11 7-62 22-59 15 3 39 17 39 17 27 16 27 31 24 42z"/><path d="m15779 4095c10-28-7-71 61-90 68-19 387-59 607 277 0 0-193-239-458-205 0 0 10 109-64 106-75-3-156-59-146-87z"/><path d="m15467 4365c-47 96-217 118-231 165-14 47-85 81-37 242 0 0-102-233-24-413 78-180 95-168 95-168 0 0 153-25 190-3 0 0 54 81 7 177z"/><path d="m15887 3706c84 7 166-49 206-59-41-21-106-79 50-104 0 0 115-4 74 111-41 115-178 61-273 89 0 0 115-31 197 121 0 0 15 73 88 125-44-28-162-102-241-119 0 0-37 34-24 65 14 31 3 9 3 9 0 0-115-31-176-34-61-3-119 109-105 143 0 0-214-34-217-202-3-168 190-286 309-286 119 0 129 59 129 59 0 0-125-9-153 59-27 68-37 87-17 146 0 0 44-134 149-124z"/><path d="m16075 4257c-28 5-43-12-48-19-5-7-28-75 3-68 0 0 50 4 65 19 15 15 3 53 3 53 0 0 5 9-23 14z"/><path d="m15751 4256c-12 11-56 50-68 50-12 0-44-14-41-36 3-22 29-34 41-37 12-3 39-11 39-11 20 2 41 23 29 34z"/><path d="m16200 4218c-10 9-25 35-41 26-15-9-38-61-38-61 0 0 33-26 41-28 5-1 21 8 32 16 7 4 11 8 11 8l-8-2c0 7 13 33 3 42z"/><path d="m15943 4455c-15-2-54-16-49-36 5-20 32-33 41-36 8-3 25 0 25 0 5 11 17 28 15 40-1 12-17 33-32 31z"/><path d="m16261 4229c8 7 33 30 23 33-10 2-36 2-36 2 0 0-20-16-18-26 3-9 23-16 31-9z"/><path d="m15928 4340c-7-9-27-50-25-54 2-5 27-48 42-50 52-5 58 53 53 67-5 14-63 47-69 37z"/><path d="m16462 5120c0 0 36-49 56-77 20-28 81-105 112-82 31 23 48 133 51 121 3-12 3-170 3-170 0 0 13-61 13-91 0-30-18-58 31-119 48-61 254-65 254-65-155-30-229 12-229 12 0 0-69 2-137 142-69 140-348 56-348 56 0 0 150 5 214-2 64-7 109-89 109-89l21-58c0 0-140-72-173-126-33-54-117-96-117-96 46 28 66 100 66 100 0 0-89 9-155 5-66-5-130-98-153-145-23-47-46-110-46-110 0 0 25-35 130-37 104-2 214 68 239 105 25 37 69 156 92 184 23 28 117 84 117 84l40-7c0 0-56-47-84-70-28-23-74-82-79-124-5-42-3-114-3-114 43-2 132 33 181 89 48 56-3 140-3 140l20 60c0 0 49-60 63-75 15-15 13-95-11-130-24-35-83-81-91-139-7-58-63-50-83-179-17-110-86-196-107-219 38 51 17 244 7 238-11-7-127-139-141-216-15-76-87-174-87-174 0 0 43 40 181-23 138-63 317-18 317-18 9 5 105 23 105 23-199 83-183 214-183 214l16 23 45-10c0-40 16-73 60-121 43-48 134-38 134-38 0 0-9 61-47 88-38 27-34 153-31 344 2 79-6 150-15 207-5-93-34-282-186-322 0 0 181 144 157 438l9-19c-6 23-10 36-10 36 83-53 112-83 161-129 49-46 58-143 58-143-65 17-100 106-100 106h-25c-16-39 5-118 62-201 56-83 188-131 188-131-29 103-127 138-127 138 0 0 11 27 134-33 123-60 245 40 245 40-25 45-65 96-154 106-89 10-127 43-127 43 85 3 132 70 132 70-170-27-255 38-255 38 0 0-28 35 173 98 201 63 219 205 219 205-170-75-201 82-351 96-150 14-242-58-242-58l-15 49 10 26c102 142 13 375 48 403 36 28 99 40 99 40-181 91-341-28-364-114-23-86-94-91-94-91z"/><path d="m16294 5423c-31-112-122-103-46-221 68-106 208-140 243-167-19 22-63 75-73 81-13 7-97 61-97 133 0 0 64-103 127-98 0 0 61 21 69 70 8 49-8 136-31 180-23 43-56 117 0 168 0 0-163-33-193-145z"/><path d="m17467 7158c92 52 277 28 277-96 0-124 87-136 125-136 38 0 87 108 151 113 0 0-138 14-169 174-31 160-87 115-251 120 0 0-18 134-100 120-82-14-238-110-256-239-18-129-10-265-166-258 0 0 0-124 156-113 156 12 141 265 233 317z"/><path d="m18778 5471c-2 19-4 38-7 57-56 357-216 541-553 550-338 9-427-241-427-331 0-90 70-163 155-163 84 0 164 47 164 112 0 64-47 129-174 107 0 0 38 129 206 146 169 17 272-64 272-64 0 0-84-107-216-82 0 0 197-69 277 17l23 26c0 0 183-43 188-322 0-14 0-27-1-40 36-15 66-18 92-13z"/><path d="m17843 4757c164-120 246-289 154-333-92-45-36-127-15-131 20-5 126-14 126 73 0 0 151-176 54-293 0 0 195 101 182 239-13 139-87 286-190 354 0 0 120-14 223-167 102-153 149-162 169-430 0 0 21-115-61-129-82-14-79 66-128 47-49-19-79-120 10-134 90-14 202 16 213 99 10 82 15 225-8 279 0 0 170-49 236 33 66 82 117 157 40 216-77 59-115 15-113-14 3-29 55-51 72-29 0 0 58-6 17-67-41-61-123-134-220-85-97 49-77 79-120 152-44 73-197 303-351 318-154 14-187 52-187 52 0 0 286-47 478 82 159 107 331 231 354 474-43 17-74 47-96 76-27-229-181-377-436-477 0 0 117 271-188 318 0 0 97-396-350-342 0 0 209 110 186 286 0 0-239-30-319-82 0 0 66 82 23 176 0 0-80-112-239-99-159 13-309 99-272 481 0 0 42-344 206-378 164-34 197 9 197 9 0 0-19 82-127 155-108 73-122 112-127 198-5 86 117 254 42 387 0 0 230 254 258 357 28 103 33 155 33 155l33-254c0 0 33-142 127-146 94-4 131 82 131 120 0 39-89 95-173 60l-42 168c0 0-28 34-28 129 0 95 47 224 47 271 0 47 23 138-42 150-66 13-108 17-136 4-28-13-40-109-22-226 0 0-38-315-215-441-177-127-282-101-289-45-8 56-62 136 36 319 0 0-312-155-195-397 0 0-184 45-207 108-23 62-75 164 112 257 3 1 5 3 8 4 0 0-236 63-274-113 0 0-33 139 18 171 51 33 105 45 105 89 0 45 64 214 307 160 0 0-136 138-320 61-184-77-243-167-243-350 0-183 56-455 492-495 0 0-538-9-645 214 0 0-23 75 79 127 0 0-44 24-77-5 0 0 67 77 67 162 0 84 8 188 41 223 0 0-136-110-149-178-13-68-90-106-97-113 0 0-3 106 28 167 31 61 54 28 77 99 23 70 59 181 120 230 61 49 69 89 218 108 0 0-315-9-364-68-49-59-100-75-120-148-20-70-6 120 24 172-26-41-180-282-145-379 0 0-37 6-48 17-1 1-2 3-3 4-5 14-23-56-31-56 0 0-51 2-64 38 0 0-21-94 115-94 136 0-15-279 343-420l20-33c0 0-133-106-149-275 0 0 123 174 264 188 141 14 205-47 205-47 0 0-359-108-384-268-26-160 51-216 115-221 64-5 179 59 164 115-15 56-41 77-67 77-26 0-120-61-54-106 0 0-61-19-72 12-10 31-77 232 297 331 374 99 430 2 620 141 190 139 200 148 200 148 0 0-87-157-182-270-95-113-69-301-376-324 0 0 74-101 205-40 0 0 38-134 15-249-23-115 56-232 36-303-20-70-56-209-166-261 0 0 215 28 264 204v47c0 0 146-148 243-188 97-40 184-232 169-303-15-70-54-56-82-68-28-12-90-82 10-124 100-42 184-31 192 73 8 103-90 305-143 383 0 0 166-49 330-169zm-968 1540c0 0-87 123 0 224 0 0-35-80 52-208l-52-16z"/><path d="m16725 6040c0 0-106-18-150-70-44-53-63-134 8-211 0 0 6 37 77 41 0 0-117 153 65 241z"/><path d="m17075 6514c94-18 142 14 202 56 60 42 58 114 58 114-61-118-158-95-158-95 27 46-35 72-85 62-50-11-111-120-17-137z"/><path d="m16974 4031c0 0-81 32-95 116 0 0-21-261 99-261 120 0 102 68 102 84 0 16-21 81-106 61z"/><path d="m19732 10616c-124 0-179-109-184-147-5-38-9-88 41-84 50 4 115 25 115 59 0 34-32 63-32 63l60 21c96-17 170-114 174-231 5-118-110-231-110-231 0 0 202 101 202 286 0 185-142 265-266 265z"/><path d="m20082 10189c-24-21-37-38-37-38 14 6 26 12 38 16l-1 22z"/><path d="m17207 8894c10-314 220-361 322-367 102-6 224 22 210 131-14 109-187 208-203 99-17-109 64-99 64-99 0 0 27 0 27-31 0-31-71-72-149-53-78 19-7 87-17 143-10 56-136 75-122 215 12 126 124 169 145 176-1-2-2-3-3-5-58-103 34-190 34-190-3 196 275 258 380 249 74-7 157-62 201-94-28 5-78 7-167 1-237-16-85-308-85-308-31 90 61 155 136 159 75 3 125 6 288-109 163-115 336-336 336-336 0 0-275 44-410 40-136-3-95-137-85-199 10-62 58-118 176-90 119 28 108 90 400 81 292-9 417-118 468-171 48-50 225-83 246-87-10 1-64 3-327-35-305-44-359-3-359-3 31 78-24 100-88 81-64-19-81-62-58-137 24-75 329-25 329-25 0 0-451-155-515-326-64-171-51-264-48-252 3 12 41 106 51 81 10-25 14-65-14-100-27-34-24-174-24-174 0 16 58 37 58 37 0 0 34 78 0-6-34-84-3-208-3-208 0 62 78 62 78 62 207-146 312-19 312-19-203 28-163 202-163 202 0 0 203-72 139-31-1 1-2 1-3 2-61 41-34 114-8 144 27 31 65 103 61 161-4 58-76 106-103 164-28 58 36 106 127 179 80 64 311 97 366 104-42-7-181-45-171-243 12-233 195-233 274-211 80 22 80 109 80 109-115-36-171-18-167 106 4 124 91 193 187 233 95 40 139 29 334 29 195 0 354 138 354 138l-36 33c0 0-298-128-610-10-312 118-305 379-339 541-34 162 105 199 105 199-224 40-183-258-214-233-1 1-2 1-2 2-30 37-62 322 63 355 129 34 200-34 200-34 7 115-78 168-241 174-163 6-153-264-153-264-95 202 81 429 220 457 139 28 265-140 265-140 159 137-95 255-95 255 180-3 231-31 332-93 102-62 88-233 44-305-44-72-176-59-176-59 0 0-3 40 7 40 10 0 51 19 51 56 0 37-47 75-95 84-47 9-61-65-61-65 0 0-58-171 156-168 214 3 248 193 241 286-7 93-41 283-488 317-448 34-404-445-444-292-1 3-1 5-2 8-30 151 219 349 219 349l-7 1c81 77 149 146 184 179 34 20 68 36 84 31 37-13 46-93 106-118 60-25 87-38 161-42 73-4 96-42 96-63 0-21 73 42 129 42 55 0 129-93 124-147-5-55-50-139-50-139 0 0 207 67 161 206-46 139-156 215-156 215 0 0 124 46 147 114 0 0-129 101-298 97l-46-17c0 0 9 114 0 151 0 0-106-63-124-88 0 0-151-21-184-25 0 0-7-100-37-114-9-4-92-25-129-50 0 0 64 114 69 202 5 88 23 278-60 345l-60 21c0 0 112-135 18-370l-10-42c-42-99-111-184-234-313-24-25-44-49-60-70-35-27-142-141-142-493 0-420 265-762 265-762-366 165-278 187-505 401-227 215-125 609-102 656 24 47 190 22 190 22 0 0-41 115-237 56-197-59-102-401-102-401-192 79-183 454-183 470 18 92 66 209 197 255 0 0-209-24-231-147 0 0-93 155 18 256l30 28c0 0 89-58 155-9 66 49 38 135 28 161-10 26-66 33-66 33 0 0 61 133-5 203-66 70-173 14-173 14 0 0-64-47-61-110 0 0-15 26-104 26-89 0-122-37-142-75-20-37 5-142 61-159 56-16 170-40 181 21l8 21 66 2v-47l-69-35c0 0-53-37-46-177 0 0-76 82-183 68-107-14-239-49-231-156 8-107 61-168 120-166 58 2 122 61 122 103 0 42-25 65-64 68-38 2-51-51-51-58 0-7 20-26 20-26 0 0-61-37-69 5-8 42-48 100 28 140 76 40 155 51 221-21 55-60 82-96 102-193h-1c2-87 34-240 52-320 3-16 6-31 9-42 1-6 2-10 2-10-292 103-780-6-770-320zm1354-1528c-65-58-41-146-41-146 0 0-65 106-57 234 8 128 106 223 106 223-106-156-45-261-45-261 0 0-2 34 53 75 55 41 73 129 73 129 98-147-24-198-88-255zm1195 2442c-184-72-285 84-285 84 271 25 285-84 285-84zm-623 9v-11h-9l8 11zm-1259 286v-6c-121-25-72 12-88 55-16 43 19 25 48 30 29 4 37-9 47-15 10-6 2-12 5-32 3-21-10-22-11-31zm307-38c11-10 10-19 6-43-3-24-27-27-27-27-90-4-60 7-68 28-8 21 24 43 35 52 11 9 42 0 53-10zm-182 121c-19 18-6 43 11 81 18 38 69 38 90 38 21 0 27-24 35-75 8-52-47-61-52-62 0 0-66 0-85 18z"/><path d="m19466 6292c0 0 24 27 10 36-15 9-24 45-39 31-15-13-10-67 29-67z"/><path d="m19406 6217c0 0 13-46 30-39 0 0 38 9 38 32 0 23-28 42-40 42-13 0-28-35-28-35z"/><path d="m19393 6096c5-12 3-46 53-37 0 0 38 14 33 32-5 18-23 44-43 44-20 0-48-28-43-39z"/><path d="m19484 5916c25 2 25 32 23 53-3 21-35 46-48 42-13-5-40-25-40-48 0-23 58-47 66-46z"/><path d="m19529 5750c0 0 50 30 48 55-3 25-10 39-78 39-68 0-81-14-76-51 5-37 55-46 106-44z"/><path d="m19557 5648c0 0 25 25 13 35-13 9-35 21-61 21-25 0-78-39-68-58 10-19 71-44 116 2z"/><path d="m19718 5566c-5 6-10 12-15 18-54 56-81 62-81 62 0 0-64-65-125-62 0 0 44-90-27-149 0 0 103-59 196 1l4 9c-6 5-17 17-9 28 0 0 7-5 17-10 14 34 28 69 42 103z"/><path d="m19484 5051c-3-1-6-3-9-5 0 0 8 14 23 32 46 91 90 184 132 279-7 1-15 1-22 0-68-9-139 9-139 9-37 0-109 34-112 62-3 28 31 25 34 34 3 9 17 53 0 53-17 0-92 37-119-62-27-99 37-124 54-134 17-9-88-99-92-177-3-78 92-127 92-127 0 0-234-215-404-68 0 0-20-190 214-193 102-1 164 13 202 29 51 88 99 177 146 268zm-349-596c-32 2-71-17-73-49-1-14 0-32 7-49 23 33 45 66 67 99zm296 821c7-68 112-62 112-62-139-50-136-190-136-190-102 99 17 320 24 252z"/><path d="m18778 5362c56-22 132-19 232 45 270 173 201 235 219 319 18 84 41 154 41 154 0 0-25-298 170-322 0 0-102 72-107 315-5 242 8 352 36 455 28 103 114 298 137 331 23 33 43-112 36-205-8-93-61-336 46-438 107-103 99-152 92-173-8-21-41-51-41-58 0-7-51-40 5-82 0 0-23 49 92 42 20-1 35-7 45-16 7 18 13 36 20 55-14 10-24 21-27 31-7 28-58 143-58 143 0 0 52-63 110-102 6 17 12 35 18 53-79 44-280 172-277 419 0 0 136-292 298-311 4-1 9-1 13-1 20 62 38 126 56 189-83 41-210 81-259 297-58 255 34 351 34 351 0 0 51-3 47-112-3-109-14-258 159-311 0 0 88 68 85 187-2 63-17 99-31 119 18-17 46-39 78-55 3 15 6 29 9 44l-60 71c-68 81-109 190-95 243 12 48 97 189 242 277 4 37 7 75 11 112-7 14-11 26-11 32 0 0-137-139-187-198-50-59-112-113-167-104-55 9-87 32-93 64-6 32 11 38 43 35 32-3 104-26 132 26 28 52-9 139-109 136-99-3-191-107-184-192 6-85 82-149 167-162 0 0-33-89-140-175-107-86-222-143-344-128-122 15-143 128-143 128 0 0-52-184 94-231 146-48 8-109-95-118-103-8-165-26-341 40 0 0 47-172 220-175 173-2 206 30 392 149 0 0-48-203-150-296 0 0-117-16-137 54 0 0 3-91 81-105 0 0-109-105-188-117-79-12-175-37-270 37-47 38-12 56 36 64-10-8-16-18-16-28 0-26 33-46 74-46 41 0 74 21 74 46 0 3-1 5-1 7 0 0 1 16-26 29 2 0 4 0 4 0 0 0-2 0-5 1-11 5-27 10-50 14-58 9-100-4-124-18 0 0-1 0-1-1-1-1-2-1-3-2-2-1-4-3-6-4-4-3-7-6-9-9h1c-7-8-12-19-13-32-8-63 25-126 203-163 0 0 0-72-145-72 0 0 183-82 270 86 0 0 28 49 33 56 5 7 112 54 231 156 0 0-15-259-64-357-48-98-203-93-221-47 0 0-94-9-109-124-15-114 33-119 33-119 0 0-33-80-110-94-26-5-56-2-92 13-13 6-27 13-42 23 0 0 12-33 38-69 22-29 53-60 96-76z"/><path d="m16406 13416c0 0-127 9-163-49-36-58 64-142 262-149 0 0-117 49-130 82-13 33-25 79 31 117z"/><path d="m15752 12546c43 2 112 91 165 112 53 21 186 9 186 9 0 0-203-105-178-203 25-98 74-98 92-107 18-9 114-30 114-30 0 0 13 35 10 63-3 28-81 93-69 135 13 42 53 65 94 100 41 35 112 70 150 70 38 0 112-30 76-75 0 0 48 49 168 35 120-14 132-12 132-12l132 112c0 0 5 61-79 70-84 9-160-16-242-12-81 5-132 49-132 49 0 0 112-161 158-166 46-5-8-5-8-5 0 0-107 12-137 33-30 21-76 84-148 133-71 49-219 133-219 133 0 0 214-110 318-91 104 19 155 112 130 138 0 0 89-70 51-121 0 0 40 63 209 40 168-23 201-68 201-68 0 0-23 77-155 142-132 65-163 100-285 128-122 28-209 2-295 2-86 0-163 58-173 96l-3 26c0 0 15-35 81-28 66 7 48 93-3 114-51 21-158 26-178-21-20-47-3-201 359-242 0 0 150 5 130-121 0 0-20-26-81-26-61 0-193 75-267 119-74 44-181 126-193 184 0 0-28-114 33-201 0 0-53 26-94 14 0 0 38-270 211-275 173-5 186 16 216 9 31-7 53-42 31-65-23-23-175-28-249 7-74 35-94 68-193 58-99-9-130-19-173 21-43 40-48 68-48 68 0 0-107-138-33-242 74-105 145-112 188-110z"/><path d="m15928 12149c44 5 53 17 53 31 0 14-22 54-49 61-27 6-78-5-87-25-8-20-5-67-5-67h88z"/><path d="m15891 12411c-3 11-27 47-46 40-19-6-39-30-39-40 0-11 7-62 22-59 15 3 39 17 39 17 27 16 27 31 24 42z"/><path d="m16064 12141c10-28-7-71 61-90 68-19 387-59 607 277 0 0-193-239-458-205 0 0 10 109-64 106-75-3-156-59-146-87z"/><path d="m15752 12411c-47 96-217 118-231 165-14 47-85 81-37 242 0 0-102-233-24-413 78-180 95-168 95-168 0 0 153-25 190-3 0 0 54 81 7 177z"/><path d="m16172 11752c84 7 166-49 206-59-41-21-106-79 50-104 0 0 115-4 74 111-41 115-178 61-273 89 0 0 115-31 197 121 0 0 15 73 88 125-44-28-162-102-241-119 0 0-37 34-24 65 14 31 3 9 3 9 0 0-115-31-176-34-61-3-119 109-105 143 0 0-214-34-217-202-3-168 190-286 309-286 119 0 129 59 129 59 0 0-125-9-153 59-27 68-37 87-17 146 0 0 44-134 149-124z"/><path d="m16360 12303c-28 5-43-12-48-19-5-7-28-75 3-68 0 0 50 4 65 19 15 15 3 53 3 53 0 0 5 9-23 14z"/><path d="m16036 12303c-12 11-56 50-68 50-12 0-44-14-41-36 3-22 29-34 41-37 12-3 39-11 39-11 20 2 41 23 29 34z"/><path d="m16485 12264c-10 9-25 35-41 26-15-9-38-61-38-61 0 0 33-26 41-28 5-1 21 8 32 16 7 4 11 8 11 8l-8-2c0 7 13 33 3 42z"/><path d="m16228 12502c-15-2-54-16-49-36 5-20 32-33 41-36 8-3 25 0 25 0 5 11 17 28 15 40-1 12-17 33-32 31z"/><path d="m16546 12275c8 7 33 30 23 33-10 2-36 2-36 2 0 0-20-16-18-26 3-9 23-16 30-9z"/><path d="m16213 12387c-7-9-27-50-25-54 2-5 27-48 42-50 52-5 58 53 53 67-5 14-63 47-69 37z"/><path d="m16747 13166c0 0 36-49 56-77 20-28 81-105 112-82 31 23 48 133 51 121 3-12 3-170 3-170 0 0 13-61 13-91 0-30-18-58 31-119 48-61 254-65 254-65-155-30-229 12-229 12 0 0-69 2-137 142-69 140-348 56-348 56 0 0 150 5 214-2 64-7 109-89 109-89l21-58c0 0-140-72-173-126-33-54-117-96-117-96 46 28 66 100 66 100 0 0-89 9-155 5-66-5-130-98-153-145-23-47-46-110-46-110 0 0 25-35 130-37 104-2 214 68 239 105 25 37 69 156 92 184 23 28 117 84 117 84l40-7c0 0-56-47-84-70-28-23-74-82-79-124-5-42-3-114-3-114 43-2 132 33 181 89 48 56-3 140-3 140l20 60c0 0 49-60 63-75 15-15 13-95-11-129-24-35-83-81-91-139-7-58-63-50-83-179-17-110-86-196-107-219 38 51 17 244 7 238-11-7-127-139-141-216-15-76-87-174-87-174 0 0 43 40 181-23 138-63 317-18 317-18 9 5 105 23 105 23-199 83-183 214-183 214l16 23 45-10c0-40 16-73 60-121 43-48 134-38 134-38 0 0-9 61-47 88-38 27-34 153-31 344 2 79-6 150-15 207-5-93-34-282-186-322 0 0 181 144 157 438l9-19c-6 23-10 36-10 36 83-53 112-83 161-130 49-46 58-143 58-143-65 17-100 106-100 106h-25c-16-39 5-118 62-201 56-83 188-131 188-131-29 103-127 138-127 138 0 0 11 27 134-33 123-60 245 40 245 40-25 45-65 96-154 106-89 10-127 43-127 43 85 3 132 70 132 70-170-27-255 38-255 38 0 0-28 35 173 98 201 63 219 205 219 205-170-75-201 82-351 96-150 14-242-58-242-58l-15 49 10 26c102 142 13 375 48 403 36 28 99 40 99 40-181 91-341-28-364-114-23-86-94-91-94-91z"/><path d="m16579 13469c-31-112-122-103-46-221 68-106 208-140 243-167-19 22-63 75-73 81-13 7-97 61-97 133 0 0 64-103 127-98 0 0 61 21 69 70 8 49-8 136-31 180-23 43-56 117 0 168 0 0-163-33-193-145z"/><path d="m17752 15204c92 52 277 28 277-96 0-124 87-136 125-136 38 0 87 108 151 113 0 0-138 14-169 174-31 160-87 115-251 120 0 0-18 134-100 120-82-14-238-110-256-239-18-129-10-265-166-258 0 0 0-124 156-113 156 12 141 265 233 317z"/><path d="m19063 13517c-2 19-4 37-7 57-56 357-216 541-553 550-338 9-427-241-427-331 0-90 70-163 155-163 84 0 164 47 164 112 0 64-47 129-174 107 0 0 38 129 206 146 169 17 272-64 272-64 0 0-84-107-216-82 0 0 197-69 277 17l23 26c0 0 183-43 188-322 0-14 0-27-1-40 36-15 66-18 92-13z"/><path d="m18128 12803c164-120 246-289 154-333-92-45-36-127-15-131 20-5 126-14 126 73 0 0 151-176 54-293 0 0 195 101 182 239-13 139-87 286-190 354 0 0 120-14 223-167 102-153 149-162 169-430 0 0 20-115-61-129-82-14-79 66-128 47-49-19-79-120 10-134 90-14 202 16 213 99 10 82 15 225-8 279 0 0 170-49 236 33 66 82 117 157 40 216-77 59-115 15-113-14 3-29 55-51 72-29 0 0 58-6 17-67-41-61-123-134-220-85-97 49-77 79-120 152-44 73-197 303-351 318-154 14-187 52-187 52 0 0 286-47 478 82 159 107 331 232 354 474-43 17-74 47-96 76-27-229-181-377-436-477 0 0 117 271-188 318 0 0 97-396-350-342 0 0 209 110 186 286 0 0-239-30-319-82 0 0 66 82 23 176 0 0-80-112-239-99-159 13-309 99-272 481 0 0 42-344 206-378 164-34 197 9 197 9 0 0-19 82-127 155-108 73-122 112-127 198-5 86 117 254 42 387 0 0 230 254 258 357 28 103 33 155 33 155l33-254c0 0 33-142 127-146 94-4 131 82 131 120 0 39-89 95-173 60l-42 168c0 0-28 34-28 129 0 95 47 224 47 271 0 47 23 138-42 150-66 13-108 17-136 4-28-13-40-109-22-226 0 0-38-315-215-441-177-127-282-101-289-45-8 56-61 136 36 319 0 0-312-155-195-397 0 0-184 45-207 108-23 62-75 164 112 257 3 1 5 3 8 4 0 0-236 63-274-113 0 0-33 139 18 171 51 33 105 45 105 89 0 45 64 214 307 160 0 0-136 138-320 61-184-77-243-167-243-350 0-183 56-455 492-495 0 0-538-9-645 214 0 0-23 75 79 127 0 0-44 24-77-5 0 0 67 77 67 162 0 84 8 188 41 223 0 0-136-110-149-178-13-68-90-106-97-113 0 0-3 106 28 167 31 61 54 28 77 99 23 70 59 181 120 230 61 49 69 89 218 108 0 0-315-9-364-68-49-59-100-75-120-148-20-70-6 120 24 172-26-41-180-282-145-379 0 0-37 6-48 17-1 1-2 3-3 4-5 14-23-56-31-56 0 0-51 2-64 38 0 0-21-94 115-94 136 0-15-279 343-420l20-33c0 0-133-106-149-275 0 0 123 174 264 188 141 14 205-47 205-47 0 0-359-108-384-268-26-160 51-216 115-221 64-5 179 59 164 115-15 56-41 77-67 77-26 0-120-61-54-106 0 0-61-19-72 12-10 30-77 232 297 331 374 99 430 2 620 141 190 139 200 148 200 148 0 0-87-157-182-270-95-113-69-301-376-324 0 0 74-101 205-40 0 0 38-134 15-249-23-115 56-232 36-303-21-70-56-209-166-261 0 0 215 28 264 204v47c0 0 146-148 243-188 97-40 184-232 169-303-15-70-54-56-82-68-28-12-90-82 10-124 100-42 184-31 192 73 8 103-90 305-143 383 0 0 166-49 330-169zm-968 1540c0 0-87 123 0 224 0 0-35-80 52-208l-52-16z"/><path d="m17010 14086c0 0-106-18-150-70-44-53-63-134 8-211 0 0 6 37 77 41 0 0-117 153 65 241z"/><path d="m17360 14560c94-18 142 14 202 56 60 42 58 114 58 114-61-118-158-95-158-95 27 46-35 72-85 62-50-11-111-120-17-137z"/><path d="m17259 12078c0 0-81 32-95 116 0 0-21-261 99-261 120 0 102 68 102 84 0 16-21 81-106 61z"/><path d="m19740 14400c-6 7-11 12-18 5-14-13-10-61 23-66l-5 61z"/><path d="m19691 14263c0 0 13-46 30-39 0 0 22 5 32 18l-3 37c-9 12-24 19-32 19-13 0-28-35-28-35z"/><path d="m19678 14143c5-12 3-46 53-37 0 0 25 9 32 23l-1 17c-7 17-23 36-40 36-20 0-48-28-43-39z"/><path d="m19769 13962c3 0 5 1 8 2l-7 83c-10 7-20 12-26 10-13-5-40-25-40-49 0-23 58-47 66-46z"/><path d="m19783 13891c-67 0-79-14-74-51 4-31 41-43 82-44l-8 95z"/><path d="m19795 13750h-1c-25 0-78-39-68-58 7-13 40-30 75-21l-7 79z"/><path d="m19805 13632c-8-2-16-2-24-2 0 0 44-90-27-149 0 0 27-16 66-23l-15 174z"/><path d="m19906 12445c-20 12-43 24-71 36 0 0-78-99-82-113-4-14-11-51 67-55 0 0-18-87 101-49l-15 179z"/><path d="m19865 12598c0 0 12-9 30-26-10 118-20 237-30 356-25-46-41-113-34-212l-34-84c0 0-85 297 56 431l-4 52c-34-3-68-10-89-23 0 0 32 53 83 93l-19 216c-40 3-71 11-71 11-37 0-109 34-112 62-3 28 31 25 34 34 3 9 17 53 0 53-17 0-92 37-119-62-27-99 37-124 54-134 17-9-88-99-92-177-3-78 92-127 92-127 0 0-234-214-404-68 0 0-20-190 214-193 234-3 258 75 258 75 0 0 20-149-78-168-98-19-85-99-95-118 0 0 47 37 105 12 0 0-7-99-78-127-71-28-54-3-85 19-31 22-98 3-102-40-3-44 14-124 159-118 146 6 319 264 319 264h41zm-149 724c7-68 112-62 112-62-139-50-136-190-136-190-102 99 17 320 24 252z"/><path d="m19977 11598c-96 0-118 14-138 65-22 58-22 157-22 157 0 0 49-79 148-70l-3 39c-65 50-163 169-82 393 0 0-182-150-186-351-3-182 69-366 297-400-4 56-9 112-13 168z"/><path d="m19063 13408c56-22 132-19 232 45 270 173 201 235 219 319 18 84 41 154 41 154 0 0-25-298 170-322 0 0-102 72-107 315-5 242 8 352 36 455 14 52 44 129 72 195-7 85-14 171-21 257-52-18-105-26-159-19-122 15-143 128-143 128 0 0-52-184 94-231 146-48 8-109-95-117-103-8-165-26-341 40 0 0 47-172 220-175 173-2 206 30 392 149 0 0-48-203-150-296 0 0-117-16-137 54 0 0 3-91 81-105 0 0-109-105-188-117-79-12-176-37-270 37-47 38-12 56 36 64-10-8-16-18-16-28 0-26 33-46 74-46 41 0 74 21 74 46 0 3-1 5-1 7 0 0 1 16-26 29 2 0 4 0 4 0 0 0-2 0-5 1-11 5-27 10-50 14-58 9-100-4-124-18 0 0-1 0-1-1-1-1-2-1-3-2-2-1-4-3-6-4-4-3-7-6-9-9h1c-7-8-12-19-13-32-8-63 25-126 203-163 0 0 0-72-145-72 0 0 183-82 270 86 0 0 28 49 33 56 5 7 112 54 231 156 0 0-15-259-64-357-48-98-203-93-221-47 0 0-94-9-109-124-15-114 33-119 33-119 0 0-34-80-110-94-26-5-56-2-92 13-13 6-27 13-42 23 0 0 12-33 38-69 22-29 53-60 96-76z"/><path d="m20124 8595c13 1 28 9 44 21-3 80-7 160-10 240-74-8-102-11-140 24-43 40-48 68-48 68 0 0-107-138-33-242 74-105 145-112 188-110z"/><path d="m20123 8461c-47 96-217 118-231 165-14 47-85 81-37 242 0 0-102-233-24-413 78-180 95-168 95-168 0 0 153-25 190-3 0 0 54 81 7 177z"/><path d="m20182 8073c-31-30-55-70-56-125-1-56 19-106 52-148 3 90 5 181 5 273z"/></g><g stroke-width="7.62"><text x="10500" y="14850" font-family="&apos;Arial&apos;" font-weight="bold" font-size="784.36" transform="matrix(.95838 0 0 1 4527.92 9935.77)">00.00.0000</text><text x="10500" y="14850" font-family="&apos;Monotype Corsiva&apos;" font-style="italic" font-size="4166.05" transform="matrix(.95838 0 0 1 4182.74 8421.25)">T2</text></g></g><g font-family="&apos;Arial Black&apos;" font-weight="900" font-size="582.17"><text x="10500" y="14850" transform="matrix(.95838 0 0 1 5364.88 4134.89)">NN 1</text><text x="10500" y="14850" transform="matrix(.95838 0 0 1 5342.03 4717.14)">NN 2</text></g></g><g fill="#373435" font-family="&apos;Arial&apos;" font-weight="normal" font-size="423.33"><text x="1701" y="27770">DESC 01</text><text x="1701" y="28242">DESC 02</text><text x="1701" y="28715">DESC 03</text></g></svg>