<svg xmlns="http://www.w3.org/2000/svg" width="744.09" height="1052.36" viewBox="0 0 21000 29700" shape-rendering="geometricPrecision" image-rendering="optimizeQuality" fill-rule="evenodd" clip-rule="evenodd"><defs><clipPath id="0"><path d="m15117 19700c932 441 2702 356 3239-460 536-812 419-3160 469-4291 128-2831 449-4978 533-7261 92-2535-1673-4252-3801-4683-2923-592-2768 3285-2398 5241 218 1077 593 2015 868 3068 507 1943 56 4959 232 6981 91 698 372 1154 858 1405"/></clipPath><clipPath id="1"><path d="m5915 19744c-931 441-2701 356-3239-459-535-813-418-3161-469-4292-127-2831-449-4978-532-7260-93-2536 1673-4253 3800-4684 2923-592 2768 3285 2398 5241-218 1077-593 2015-868 3068-506 1943-56 4959-232 6981-90 698-372 1154-858 1405"/></clipPath></defs><g fill="none" stroke="#373435" stroke-width="80"><path d="m9688 22661h1621"/><path d="m10498 21851v1621"/><circle cx="10498" cy="22661" r="460"/></g><text x="10046" y="21290" fill="#201e1e" font-family="&apos;Arial Black&apos;" stroke="#201e1e" font-weight="900" stroke-width="7.62" font-size="705.56">28</text><g fill="none" stroke="#322f30" stroke-width="80"><circle cx="10533" cy="1326" r="460"/><path d="m10533 515v1621"/><path d="m9723 1326h1621"/></g><rect x="9843" y="19706" width="1347" height="637" rx="318" fill="#fff" stroke="#fff" stroke-width="20"/><g fill="#201e1e" font-family="&apos;Arial&apos;" font-size="423.33"><text x="300" y="28462">DESC 1</text><text x="281" y="28926">DESC 2</text><text x="278" y="29422">DESC 3</text></g><g clip-path="url(#0)"><g><g><g/><g/></g><g fill="#201e1e"><path d="m18755 6334l-89-547c-261-210-768-191-720 264 12 96 88 193 193 283h616"/><path d="m19277 6334l89-547c261-210 768-191 720 264-12 96-88 193-193 283h-616"/><path d="m18797 6331l-81-637c4-53 29-66 77-32 185 144 278 93 438 0 52-28 83-12 79 36l-83 631-430 2"/><path d="m18191 6643l-127-266h1905l-135 266z"/><path d="m18214 6803l2-109h1579v109z"/><circle cx="18633" cy="5672" r="40"/><ellipse cx="18520" cy="5613" rx="50" ry="49"/><ellipse cx="18395" cy="5574" rx="61" ry="59"/><ellipse cx="18246" cy="5552" rx="66" ry="65"/><ellipse cx="18088" cy="5574" rx="75" ry="74"/><ellipse cx="17939" cy="5660" rx="80" ry="78"/><ellipse cx="17847" cy="5802" rx="69" ry="68"/><ellipse cx="17818" cy="5949" rx="64" ry="62"/><ellipse cx="17906" cy="6203" rx="42" ry="41"/><ellipse cx="17854" cy="6079" rx="48" ry="47"/><ellipse cx="17993" cy="6292" rx="39" ry="38"/><circle cx="19392" cy="5672" r="40"/><ellipse cx="19504" cy="5613" rx="50" ry="49"/><ellipse cx="19629" cy="5574" rx="61" ry="59"/><ellipse cx="19779" cy="5552" rx="66" ry="65"/><ellipse cx="19936" cy="5574" rx="75" ry="74"/><ellipse cx="20086" cy="5660" rx="80" ry="78"/><ellipse cx="20177" cy="5802" rx="69" ry="68"/><ellipse cx="20206" cy="5949" rx="64" ry="62"/><ellipse cx="20119" cy="6203" rx="42" ry="41"/><ellipse cx="20170" cy="6079" rx="48" ry="47"/><ellipse cx="20031" cy="6292" rx="39" ry="38"/><path d="m18954 5178v-96h-126v-106h129v-111h108v106h123v120h-119v88l-115-1m54-5c20 0 40 2 59 6 124 26 216 132 216 258 0 146-123 264-275 264-152 0-275-118-275-264 0-128 95-235 222-259 17-3 35-5 53-5"/><path d="m18150 8033h-1500v116h1500z"/><path d="m18313 7465c57 0 103 45 103 101 0 56-46 101-103 101-4 0-8-1-12-1l-151 339-1513 2-142-349 76-40 196 122 94-317 19-3c-44-9-77-48-77-94 0-53 44-96 98-96 54 0 98 43 98 96 0 35-19 65-47 82l22-4 209 256 163-353h22c-45-12-78-53-78-101 0-58 48-106 108-106 59 0 108 48 108 106 0 51-37 93-86 103l30 1 159 353 207-255 16 2c-27-18-45-49-45-84 0-55 46-100 103-100 57 0 103 45 103 100 0 46-31 84-73 97l13 2 88 319 201-120 12 6c-15-18-24-40-24-64 0-56 46-101 103-101m-1831 0c53 0 95 42 95 94 0 51-42 93-95 93-53 0-96-42-96-93 0-52 43-94 96-94"/><path d="m16221 4022v113l-138 126h-147l-53-41-109 109v78l116 109 68-48h145l115 128v163l-36 68 116 123h55l123-123-31-66v-149l123-127 101-10 99 50 126-118-3-87-115-104-56 42h-147l-126-130-4-113 45-71-101-106h-96l-123 106z"/><path d="m15186 5011c-51-324 111-545 516-649l22 99 157 135 72-64 116 10 79 99 3 118-44 75 80 74-101 141h-90l-195-151c-59-17-89 6-84 78l9 189c-49 93-129 120-236 87l-53-137-251-104"/><path d="m17474 5011c51-324-111-545-517-649l-21 99-157 135-72-64-116 10-80 99-2 118 43 75-79 74 101 141h89l196-151c59-17 89 6 84 78l-10 189c50 93 130 120 237 87l53-137 251-104"/><path d="m15417 5521c-47-195-147-337-290-437 68-4 134 16 198 78l80 2-3 90c60 60 135 83 227 64 77-34 133-93 162-187l10-163 130 104c69 39 129 37 186 12l98-106h213l113 104c48 23 100 24 155 9l176-132c-31 180 30 342 231 364l159-48 8-108 84-14c34-54 94-80 186-74-135 101-237 240-285 442h-1838"/><path d="m17251 5572h-1836v142h1836z"/><path d="m12953 3927l1344 568c392-458 779-655 1162-735-278-166-503-149-670 67-121-170-240-209-358-102-35 38-58 79-74 121 300 42 102 355-59 245-60-57-87-125-56-197-142 26-214-6-275-73-126-189 142-391 275-95 89-41 116-121 106-216-25-102-91-154-226-158 143-161 179-342 97-510-185 23-296 171-353 411-92-84-198-104-273-45-64 65-87 144-67 236 119-71 214-52 255 60 27 96-3 181-123 196-94-4-172-49-235-135-404 280-360-334-77-128 64-129 86-213-19-276-87-43-177-53-265-49 21-334-146-414-395-497 222 362 320 797 286 1312"/><path d="m13066 4076l-82-95-63 19-46 107 33 78 1272 521 53-39 45-105-47-70-100 26-52-85-95 28-60-95-94 20-61-86-95 36-69-95-91 27-166-68-59-97-81 37-60-95z"/><path d="m15476 7685h-2811v218h2811z"/><path d="m15783 6620c107 0 194 85 194 189 0 105-87 189-194 189-8 0-16 0-23-1l-284 635-2836 4-266-655 144-74 367 229 176-594 35-6c-83-18-145-90-145-177 0-99 83-180 185-180 101 0 184 81 184 180 0 65-35 122-88 154l41-7 392 479 305-662 42 2c-85-24-147-100-147-191 0-109 90-197 202-197 112 0 202 88 202 197 0 96-69 176-161 194l56 2 299 662 388-479 31 5c-52-34-86-92-86-157 0-105 86-190 193-190 107 0 193 85 193 190 0 85-57 157-137 180l25 4 166 598 377-225 21 11c-27-33-44-74-44-120 0-104 87-189 193-189m-3433 1c99 0 179 78 179 175 0 96-80 175-179 175-99 0-179-79-179-175 0-97 80-175 179-175"/><path d="m16022 12215v111l-134 122h-144l-51-39-106 106v76l113 106 66-46h141l113 124v159l-35 67 113 120h54l120-120-31-65v-145l120-124 99-9 96 48 123-115-3-85-113-102-54 42h-143l-123-127-4-111 44-69-98-103h-95l-120 103z"/><path d="m15013 13181c-50-317 108-533 503-634l21 97 153 131 71-62 113 9 78 97 2 115-42 74 77 71-99 138h-87l-190-147c-58-17-87 6-83 76l10 184c-48 92-126 117-231 86l-52-134-244-101"/><path d="m17245 13181c50-317-109-533-504-634l-21 97-153 131-71-62-113 9-77 97-3 115 43 74-78 71 99 138h87l190-147c58-17 88 6 83 76l-10 184c48 92 126 117 231 86l52-134 245-101"/><path d="m15238 13678c-45-190-143-329-282-427 65-4 130 16 193 76l77 3-2 87c58 59 131 81 221 63 75-33 130-91 158-182l9-159 127 101c68 37 127 36 182 11l96-103h207l111 101c47 23 97 24 150 9l172-129c-29 176 29 334 226 355l155-46 7-106 83-14c33-52 92-77 181-71-131 98-231 234-278 431h-1793"/><path d="m17027 13728h-1791v138h1791z"/><path d="m17692 15714c-121-12-184 21-209 93 385-52 212 537-98 251-54-78-22-144 18-199-72-1-129 22-173 65-90-45-172-37-248 15 225 42 374 170 390 451h852c0-245 119-401 380-451-75-50-156-62-245-15-47-51-105-74-173-71 53 86 56 165-11 233-293 199-447-326-59-283-39-71-113-93-225-84-8-67-43-137-95-194-48 53-83 116-104 189"/><path d="m18056 14632c84 0 151 67 151 149 0 82-67 148-151 148-7 0-13 0-19-1l-223 500-2228 2-209-514 113-58 288 180 138-467 28-5c-65-14-114-71-114-139 0-78 65-141 145-141 80 0 145 63 145 141 0 52-28 96-69 121l32-5 308 376 240-520 33 1c-67-18-116-78-116-149 0-86 71-156 159-156 88 0 159 70 159 156 0 75-55 138-127 152l44 2 235 519 305-376 24 4c-41-27-67-72-67-124 0-82 68-148 152-148 83 0 151 66 151 148 0 67-45 124-107 142l19 3 130 470 297-177 16 9c-21-26-34-58-34-94 0-82 68-149 152-149m-2698 1c77 0 140 61 140 137 0 76-63 138-140 138-78 0-141-62-141-138 0-76 63-137 141-137"/><path d="m16952 17317h-1499v117h1499z"/><path d="m17116 16749c57 0 103 45 103 101 0 56-46 101-103 101-4 0-8 0-12-1l-152 339-1512 2-142-349 76-39 196 122 94-318 19-3c-44-9-78-48-78-94 0-53 44-96 99-96 54 0 98 43 98 96 0 35-19 65-47 82l22-3 209 255 163-353 22 1c-45-13-78-54-78-102 0-58 48-105 108-105 59 0 108 47 108 105 0 51-37 94-87 104l31 1 159 353 207-256 16 3c-27-18-46-49-46-84 0-56 47-101 104-101 56 0 103 45 103 101 0 45-31 84-73 96l13 2 88 319 201-120 11 6c-14-17-23-40-23-64 0-56 46-101 103-101m-1831 1c52 0 95 41 95 93 0 52-43 93-95 93-53 0-96-41-96-93 0-52 43-93 96-93"/><path d="m14482 9511l1100 11c137-429 346-675 588-839-242-36-393 40-445 237-134-84-228-77-278 31-13 36-17 71-15 105 220-56 176 217 31 187-58-23-97-63-97-122-90 59-150 57-212 28-144-95-18-311 162-144 50-53 45-117 10-180-48-63-109-80-204-45 52-152 22-288-84-381-121 68-154 203-123 385-88-32-168-16-202 47-25 63-18 124 24 182 61-83 132-97 194-31 47 59 52 127-28 171-66 24-133 15-202-27-197 309-349-129-91-66 6-108-4-173-96-187-73-5-138 15-198 42-84-237-224-245-421-232 261 187 459 461 587 828"/><path d="m14605 9582l-85-43-38 31v88l46 45h1036l25-43v-86l-53-35-61 47-62-45-58 47-69-49-60 41-67-43-56 53-75-47-56 45h-135l-69-51-46 49-69-49z"/><path d="m17703 11633l193-378c-67-244-390-453-567-150-36 65-33 158-9 259l383 269"/><path d="m18027 11860l303-301c257-16 564 216 327 477-51 55-142 82-248 92l-382-268"/><path d="m17730 11649l239-430c27-31 48-29 63 14 48 169 129 178 271 190 45 5 57 29 33 56l-338 356-268-186"/><path d="m17213 11579l41-220 1182 829-204 106z"/><path d="m17154 11689l51-67 980 687-50 68z"/><circle transform="matrix(1.08388.75988-.77626 1.061 17927.5 11168.9)" r="23"/><circle transform="matrix(1.34186.94074-.96103 1.31353 17884.2 11083.6)" r="23"/><circle transform="matrix(1.62605 1.13998-1.16456 1.59173 17824.5 11004.6)" r="23"/><circle transform="matrix(1.78056 1.2483-1.27522 1.74297 17741.7 10926.2)" r="23"/><circle transform="matrix(2.0128 1.41111-1.44154 1.97029 17633.9 10871)" r="23"/><circle transform="matrix(2.14201 1.5017-1.53409 2.09679 17502.4 10859.3)" r="23"/><circle transform="matrix(1.85922 1.30344-1.33155 1.81997 17381 10907.8)" r="23"/><circle transform="matrix(1.70424 1.1948-1.22056 1.66827 17296 10986.3)" r="23"/><circle transform="matrix(1.13538.79598-.81315 1.11141 17234.8 11182.3)" r="23"/><circle transform="matrix(1.29082.90496-.92448 1.26357 17259.7 11082.9)" r="23"/><circle transform="matrix(1.03238.72377-.73938 1.0106 17249 11275.4)" r="23"/><circle transform="matrix(-1.08388-.75988-.77626 1.061 18398.3 11498.9)" r="23"/><circle transform="matrix(-1.34186-.94074-.96103 1.31353 18494.7 11511.7)" r="23"/><circle transform="matrix(-1.62605-1.13998-1.16456 1.59173 18590.4 11541.6)" r="23"/><circle transform="matrix(-1.78056-1.2483-1.27522 1.74297 18692.8 11593)" r="23"/><circle transform="matrix(-2.0128-1.41111-1.44154 1.97029 18781 11675.2)" r="23"/><circle transform="matrix(-2.14201-1.5017-1.53409 2.09679 18834.6 11793.3)" r="23"/><circle transform="matrix(-1.85922-1.30344-1.33155 1.81997 18826.8 11921.4)" r="23"/><circle transform="matrix(-1.70424-1.1948-1.22056 1.66827 18778.2 12025.4)" r="23"/><circle transform="matrix(-1.13538-.79598-.81315 1.11141 18608.3 12145.2)" r="23"/><circle transform="matrix(-1.29082-.90496-.92448 1.26357 18696.5 12090.2)" r="23"/><circle transform="matrix(-1.03238-.72377-.73938 1.0106 18513.7 12162.1)" r="23"/><path d="m18351 11002l44-59-79-55 48-66 80 56 51-69 67 47-48 66 76 53-54 75-74-52-40 55-71-51m36 21c12 9 24 19 34 29 65 70 74 176 17 254-66 91-197 110-291 44-94-66-117-193-51-283 58-80 166-105 255-64 12 5 24 12 36 20"/><path d="m14554 11451l-396-509c234-29 121 76 219 117 32-19 64-38 96-57l57 27-19 79-83 35c53 165 329 125 356-32 5-36-11-53-48-49-29 10-39 29-29 59-118-45-46-142 40-117-33-59-33-104-19-143 56 26 94 63 92 124 20-33 49-50 89-47 43 6 52 45 36 96-27-35-54-39-81-13l20 56c218 49 300-198 195-265l-124 49c-61-21-75-60-44-114l130-40-48-143 17-135 125 92 35 126 154-48c69 29 76 72 37 124l-134 42c-9 131 226 228 344 68 2-31-7-52-33-54-33 2-47 19-50 59-43-14-74-48-60-89 20-34 57-37 107-29-22-47-28-95-22-143 49 30 85 67 100 117 21-32 39-52 80-48 45 11 60 45 35 106-17-33-42-38-74-19 99 201 321 46 320-90-2-40-27-53-72-41l-55 13-62-49 50-60 108-11c54-73-98-103 63-235l65 645-1517 546"/><path d="m14630 11619l-56-134 1509-547 58 138z"/><path d="m18300 8695l25 81-71 119-106 31-47-18-55 102 17 56 108 54 38-49 104-30 112 68 35 117-11 57 111 64 40-12 61-114-37-41-32-107 60-118 71-28 82 15 65-111-21-63-106-50-31 42-106 31-119-67-28-81 17-61-96-55-70 20-65 103z"/><path d="m17772 9625c-108-223-40-416 229-576l38 66 142 65 38-62 86-17 79 55 28 84-15 64 73 36-42 123-64 19-174-68c-47 0-63 23-44 74l49 134c-15 78-67 114-151 113l-69-88-203-22"/><path d="m19420 9144c-34-244-199-370-514-359l6 76-84 130-66-31-81 31-36 88 25 86 47 45-41 70 104 81 64-19 108-150c39-25 66-15 78 38l34 138c56 57 120 60 190 14l8-110 158-128"/><path d="m18050 9943c-76-130-179-211-304-254 47-17 99-16 159 15l58-15 18 65c56 31 115 31 177-1 48-41 76-96 76-169l-29-119 117 47c58 13 101-1 136-30l48-98 153-44 105 51c39 6 77-4 113-26l98-132c17 136 96 240 246 213l105-67-19-80 58-28c12-46 50-77 118-92-75 101-118 223-109 378l-1324 386"/><path d="m19383 9595l-1323 386 31 102 1323-386z"/><path d="m18446 13864l-397-510c234-28 122 77 219 117 32-19 64-38 96-57l58 27-20 79-83 35c53 165 329 125 356-32 5-36-11-53-48-48-28 9-39 28-29 58-118-44-46-142 41-117-33-58-34-104-20-143 56 26 94 63 93 125 19-34 48-50 88-48 43 7 53 45 36 96-27-35-53-39-80-13l19 57c218 48 300-199 196-265l-124 49c-62-22-75-61-45-115l130-40-48-142 18-136 124 92 35 126 155-48c68 30 76 72 37 124l-134 43c-10 130 225 227 343 67 2-31-6-52-32-54-34 2-48 19-51 59-43-14-74-48-59-88 19-35 56-38 106-29-22-48-28-96-21-143 48 29 84 67 99 116 21-32 40-51 81-48 44 11 59 45 35 106-17-33-43-38-75-18 99 200 322 45 320-91-1-40-26-53-72-41l-55 13-62-49 50-60 108-11c54-73-98-103 63-235l65 645-1516 547"/><path d="m18521 14031l-56-133 1509-547 58 137z"/><path d="m15133 18698c-115-12-175 20-198 89 365-50 201 509-94 237-50-74-20-136 18-189-69-1-122 22-164 62-86-43-163-35-236 15 214 39 356 160 370 426h808c0-232 112-380 360-426-71-48-148-59-232-15-45-48-100-70-164-67 50 81 53 156-10 221-278 189-424-309-57-269-37-67-107-88-213-79-7-64-40-130-90-184-46 50-79 110-98 179"/><path d="m17619 18387c-89-9-135 16-153 68 282-38 155 394-72 184-40-57-16-105 13-146-53-1-94 17-127 48-66-33-126-27-182 11 165 30 275 124 286 330h625c0-179 87-294 279-330-56-37-115-45-180-11-35-37-78-54-127-52 39 63 41 120-8 171-215 146-328-239-43-208-29-52-83-68-165-61-6-50-32-101-70-143-35 39-61 85-76 139"/></g><text x="10500" y="14850" fill="#373435" font-family="&apos;Arial Black&apos;" font-weight="900" font-size="529.17" transform="matrix(.80404 0 0 .78707 7414.87 6760.54)">NN 1</text></g></g><g clip-path="url(#1)"><g><g><g fill="#ff0a4b" stroke="#ff0a4b" stroke-width="7.62"><path d="m16308 24237l61-25010c419-473 453-472 577-555-21 8565-42 17131-64 25697 0 11 5 18-2 17-186-27-239-34-572-149z"/><path d="m15103 22886l51-20977c161-844 476-1587 580-1699l-58 23616c-438-499-436-626-573-940z"/><path d="m17474 24450l64-26157c4-1 469-243 576-239l-65 26420c-134-2-133 34-575-24z"/><path d="m18629 24382l65-26477c-5 0 290-63 576-39l-65 26191c-149 124-138 157-576 325z"/><path d="m19706 24781l65-26477c-5 0 290-63 576-39l-65 26191c-149 124-138 157-576 325z"/><path d="m20783 25180l65-26477c-5 1 290-63 576-39l-65 26191c-149 124-138 157-576 325z"/></g><g/></g><text x="10500" y="14850" fill="#201e1e" font-family="&apos;FlemishScript BT&apos;" stroke="#201e1e" stroke-linejoin="round" stroke-linecap="round" stroke-width="25" font-size="3587.09" transform="matrix(0-.78707.90125 0-8257.82 25663.3)">Texto 01</text><text x="10500" y="14850" fill="#373435" font-family="&apos;Arial Black&apos;" font-weight="900" font-size="529.17" transform="matrix(.80404 0 0 .78707-4491.81 6795.22)">NN 1</text><text x="10500" y="14850" fill="#201e1e" font-family="&apos;Lucida Calligraphy&apos;" stroke="#201e1e" stroke-linejoin="round" stroke-linecap="round" stroke-width="25" font-size="839.95" transform="matrix(0-.78707.90125 0-7485.78 22994.2)">Texto 02</text></g></g></svg>