<svg xmlns="http://www.w3.org/2000/svg" width="744.09" height="1052.36" viewBox="0 0 21000 29700" shape-rendering="geometricPrecision" image-rendering="optimizeQuality" fill-rule="evenodd" clip-rule="evenodd"><defs><clipPath id="0"><path d="m14476 25242c1252 621 3633 501 4355-649 720-1146 563-4457 631-6052 172-3992 604-7020 716-10240 125-3576-2250-5997-5111-6605-3931-835-3722 4633-3225 7391 293 1520 798 2842 1167 4327 682 2740 76 6994 313 9845 121 985 500 1628 1154 1983"/></clipPath><clipPath id="1"><path d="m6620 25242c-1253 621-3633 501-4356-649-720-1146-563-4457-631-6052-171-3992-604-7020-716-10240-124-3576 2250-5997 5111-6605 3931-835 3723 4633 3226 7391-294 1520-798 2842-1168 4327-681 2740-75 6994-312 9845-122 985-500 1628-1154 1983"/></clipPath></defs><text x="10081" y="24465" fill="#201e1e" font-family="&apos;Arial Black&apos;" stroke="#201e1e" font-weight="900" stroke-width="7.62" font-size="705.56">38</text><g fill="none" stroke="#322f30" stroke-width="80"><circle cx="10533" cy="1326" r="460"/><path d="m10533 515v1621"/><path d="m9723 1326h1621"/><circle cx="10533" cy="25836" r="460"/><path d="m10533 25026v1621"/><path d="m9723 25836h1621"/></g><rect x="9843" y="22866" width="1347" height="637" rx="318" fill="#fff" stroke="#fff" stroke-width="20"/><g fill="#201e1e" font-family="&apos;Arial&apos;" font-size="423.33"><text x="300" y="28462">DESC 1</text><text x="281" y="28926">DESC 2</text><text x="278" y="29422">DESC 3</text></g><g clip-path="url(#0)"><g><g><g/><g/></g><g fill="#201e1e"><path d="m19367 6390l-119-771c-351-295-1033-269-968 372 15 137 117 272 259 399h828"/><path d="m20070 6390l119-771c351-295 1034-269 968 372-15 137-117 272-259 399h-828"/><path d="m19425 6387l-109-899c5-74 38-93 103-45 248 203 374 132 588 0 71-39 112-17 106 50l-111 891-577 3"/><path d="m18610 6827l-171-375h2561l-181 375z"/><path d="m18641 7053l2-155h2124v155z"/><ellipse cx="19203" cy="5457" rx="54" ry="56"/><ellipse cx="19052" cy="5375" rx="67" ry="69"/><ellipse cx="18884" cy="5319" rx="82" ry="84"/><ellipse cx="18683" cy="5288" rx="89" ry="92"/><ellipse cx="18471" cy="5319" rx="101" ry="104"/><ellipse cx="18270" cy="5440" rx="107" ry="110"/><ellipse cx="18147" cy="5640" rx="93" ry="96"/><ellipse cx="18107" cy="5848" rx="86" ry="88"/><ellipse cx="18225" cy="6207" rx="57" ry="58"/><ellipse cx="18157" cy="6031" rx="65" ry="66"/><ellipse cx="18343" cy="6332" rx="52" ry="53"/><ellipse cx="20224" cy="5457" rx="54" ry="56"/><ellipse cx="20375" cy="5375" rx="67" ry="69"/><ellipse cx="20544" cy="5319" rx="82" ry="84"/><ellipse cx="20744" cy="5288" rx="89" ry="92"/><ellipse cx="20957" cy="5319" rx="101" ry="104"/><path d="m19636 4761v-136h-170v-149h173v-157h145v149h166v170h-160v125l-154-2m72-7c27 0 54 3 80 9 166 36 290 185 290 363 0 206-166 372-370 372-205 0-370-166-370-372 0-181 128-331 298-365 23-5 47-7 72-7"/><path d="m18553 8787h-2016v164h2016z"/><path d="m18774 7986c76 0 138 64 138 142 0 79-62 142-138 142-6 0-12 0-17-1l-203 478-2035 3-191-492 103-56 263 172 127-447 25-5c-59-13-104-67-104-132 0-75 59-136 132-136 73 0 132 61 132 136 0 49-25 92-63 115l30-5 281 360 219-497 30 1c-61-18-106-75-106-143 0-83 65-149 146-149 80 0 145 66 145 149 0 72-50 132-116 145l40 2 214 498 279-360 22 3c-37-26-62-69-62-118 0-79 62-143 139-143 77 0 139 64 139 143 0 64-42 118-99 136l18 2 119 450 271-169 15 8c-20-24-32-56-32-90 0-78 62-142 139-142m-2463 0c70 0 128 59 128 132 0 73-58 132-128 132-71 0-129-59-129-132 0-73 58-132 129-132"/><path d="m15959 3130v160l-185 177h-197l-72-57-146 153v110l156 153 91-66h194l156 180v229l-48 97 155 173h75l165-173-42-93v-210l166-180 136-13 133 70 169-167-4-123-155-147-75 60h-198l-169-183-6-160 62-100-137-149h-130l-165 149z"/><path d="m14568 4526c-69-457 149-770 694-916l29 140 211 190 97-90 156 13 107 140 3 166-58 107 107 103-136 200h-120l-263-213c-80-25-120 8-114 110l13 266c-66 132-173 169-318 124l-71-194-337-146"/><path d="m17644 4526c70-457-149-770-694-916l-29 140-211 190-97-90-156 13-107 140-3 166 58 107-107 103 136 200h120l263-213c80-25 120 8 114 110l-13 266c66 132 174 169 318 124l71-194 337-146"/><path d="m14878 5244c-62-274-197-475-389-616 91-6 180 23 266 110l107 3-3 127c80 85 181 116 305 90 103-47 179-131 217-263l13-230 175 147c93 54 175 51 250 16l133-150h286l152 147c65 33 135 34 208 13l237-186c-41 253 40 481 311 513l214-67 10-153 114-20c45-76 126-112 249-103-181 142-318 338-382 622h-2473"/><path d="m17345 5317h-2469v200h2469z"/><path d="m11565 2996l1807 801c528-646 1047-923 1563-1036-374-234-677-210-901 95-163-240-323-296-481-144-47 53-79 111-100 171 403 59 137 500-80 345-80-81-116-177-75-279-191 38-288-8-370-102-170-267 191-552 370-134 120-58 156-171 143-305-34-143-122-216-305-223 194-226 241-482 132-718-250 31-399 240-475 578-123-118-266-146-368-63-85 92-116 203-89 333 159-101 287-73 343 85 36 135-5 256-167 276-126-5-231-70-315-191-543 396-484-470-104-179 87-183 116-302-25-391-117-60-239-73-357-68 28-471-196-583-531-701 298 510 431 1124 385 1850"/><path d="m11717 3206l-111-134-84 27-62 151 44 110 1711 736 71-56 60-149-62-98-135 37-70-121-128 40-80-133-127 28-81-122-129 52-92-135-123 38-223-96-79-136-110 51-80-133z"/><path d="m14958 8296h-3780v308h3780z"/><path d="m15371 6794c144 0 260 120 260 267 0 147-116 267-260 267-11 0-21-1-32-2l-381 896-3814 5-358-923 194-104 493 322 237-838 48-9c-112-24-195-126-195-248 0-141 110-254 247-254 137 0 248 113 248 254 0 92-47 172-118 217l55-10 527 675 411-933 56 2c-114-33-198-141-198-268 0-155 122-280 272-280 150 0 272 125 272 280 0 135-93 247-217 273l76 3 401 933 522-675 42 6c-70-48-116-129-116-222 0-147 116-266 260-266 143 0 260 119 260 266 0 121-78 222-184 256l33 5 222 843 508-317 28 15c-37-46-59-105-59-169 0-147 117-267 260-267m-4617 1c133 0 240 111 240 247 0 137-107 247-240 247-133 0-241-110-241-247 0-136 108-247 241-247"/><path d="m15692 14685v156l-180 173h-193l-70-56-142 150v107l152 150 88-65h190l152 175v224l-47 94 152 169h73l161-169-41-91v-204l161-176 133-13 130 69 164-163-3-120-152-143-72 58h-193l-165-178-6-156 60-98-133-146h-127l-161 146z"/><path d="m14335 16047c-68-446 145-751 677-894l28 137 206 185 95-88 152 13 105 137 3 162-57 104 104 101-133 195h-117l-256-208c-78-24-118 8-111 107l13 260c-65 128-170 165-311 120l-69-188-329-143"/><path d="m17336 16047c68-446-145-751-677-894l-28 137-206 185-95-88-152 13-105 137-3 162 57 104-104 101 133 195h117l256-208c78-24 118 8 111 107l-13 260c65 128 170 165 311 120l69-188 329-143"/><path d="m14638 16748c-61-268-192-464-380-601 89-6 175 22 260 107l104 3-3 124c78 82 177 113 297 87 101-46 175-128 212-256l13-225 171 143c90 53 170 51 244 17l130-147h278l149 143c63 32 131 33 202 13l231-182c-39 248 40 470 304 501l209-65 10-150 110-19c45-74 124-109 244-101-177 139-311 330-373 608h-2412"/><path d="m17044 16819h-2408v194h2408z"/><path d="m17938 19620c-163-18-248 30-281 131 518-73 285 758-132 354-72-110-29-203 24-282-97-1-173 33-233 93-121-64-231-52-333 22 303 58 504 239 524 635h1147c0-346 159-566 511-635-101-72-210-88-330-22-64-72-142-104-233-100 72 121 76 232-14 329-394 281-602-461-80-400-53-101-152-131-302-118-11-95-58-193-129-274-64 75-111 163-139 267"/><path d="m18427 18094c113 0 204 94 204 210 0 115-91 209-204 209-8 0-17 0-25-1l-299 704-2997 4-281-726 151-82 388 254 186-659 38-7c-88-19-154-99-154-195 0-110 88-200 195-200 108 0 195 90 195 200 0 72-38 135-93 171l43-8 414 530 323-733 44 2c-90-26-155-111-155-211 0-121 95-219 214-219 118 0 213 98 213 219 0 106-73 194-171 215l60 2 316 733 410-530 32 5c-54-38-90-102-90-175 0-115 91-209 204-209 113 0 204 94 204 209 0 95-61 175-145 201l26 4 175 663 399-250 22 12c-29-36-46-82-46-132 0-116 91-210 204-210m-3628 1c104 0 189 87 189 194 0 107-85 194-189 194-104 0-189-87-189-194 0-107 85-194 189-194"/><path d="m16943 21881h-2016v164h2016z"/><path d="m17164 21080c76 0 138 63 138 142 0 78-62 142-138 142-6 0-12 0-17-1l-203 478-2035 3-191-493 103-55 263 172 126-448 26-4c-59-13-104-67-104-132 0-75 59-136 132-136 73 0 132 61 132 136 0 48-25 91-63 115l30-5 281 360 219-498 30 1c-61-17-106-75-106-143 0-82 65-149 145-149 81 0 146 67 146 149 0 72-50 132-116 146l40 2 214 497 279-360 22 4c-37-26-62-69-62-119 0-78 62-142 139-142 76 0 139 64 139 142 0 64-42 119-99 136l18 3 119 450 271-169 15 8c-20-25-32-56-32-90 0-79 62-142 139-142m-2463 0c70 0 128 59 128 132 0 73-58 131-128 131-71 0-129-58-129-131 0-73 58-132 129-132"/><path d="m13622 10871l1479 17c183-605 465-952 790-1185-325-50-528 57-598 335-180-118-307-109-374 44-17 51-23 100-21 148 297-79 237 306 43 263-79-32-131-88-131-171-122 83-202 80-286 39-193-134-23-439 219-203 67-76 60-165 13-254-65-89-146-113-275-63 71-215 31-407-112-538-163 97-208 286-165 543-119-45-226-22-273 66-33 89-23 175 32 257 83-117 179-136 262-43 64 82 69 179-37 241-89 34-180 20-273-39-264 437-468-181-122-93 8-152-5-243-129-263-98-7-186 20-266 59-114-335-301-346-567-328 352 265 617 651 791 1168"/><path d="m13786 10972l-114-61-51 44v124l61 63h1394l34-60v-121l-71-50-83 66-83-63-77 66-94-69-80 58-91-60-74 74-102-66-75 63h-181l-94-71-61 68-94-68z"/><path d="m17953 13864l259-533c-90-344-524-639-762-211-49 91-44 222-12 365l515 379"/><path d="m18388 14184l408-424c346-23 758 304 440 673-69 77-191 115-333 129l-515-378"/><path d="m17990 13887l321-607c36-44 64-40 84 19 66 240 175 253 365 269 61 8 77 40 44 79l-455 502-359-262"/><path d="m17293 13789l57-311 1589 1169-275 149z"/><path d="m17215 13943l68-94 1318 968-67 96z"/><circle transform="matrix(1.45768 1.07166-1.04398 1.49633 18254.9 13209.6)" r="23"/><circle transform="matrix(1.80463 1.32673-1.29246 1.85248 18196.5 13089.4)" r="23"/><circle transform="matrix(2.18684 1.60772-1.56619 2.24482 18116.3 12977.9)" r="23"/><circle transform="matrix(2.39463 1.76049-1.71501 2.45812 18005 12867.4)" r="23"/><circle transform="matrix(2.70695 1.99009-1.93869 2.77872 17860 12789.5)" r="23"/><circle transform="matrix(2.88073 2.11786-2.06316 2.95712 17683.1 12773)" r="23"/><circle transform="matrix(2.50041 1.83826-1.79077 2.56671 17519.9 12841.4)" r="23"/><circle transform="matrix(2.29199 1.68503-1.64151 2.35277 17405.6 12952.1)" r="23"/><circle transform="matrix(1.52695 1.12258-1.09359 1.56743 17323.3 13228.6)" r="23"/><circle transform="matrix(1.736 1.27627-1.2433 1.78203 17356.7 13088.4)" r="23"/><circle transform="matrix(1.38842 1.02074-.99437 1.42523 17342.3 13359.9)" r="23"/><circle transform="matrix(-1.45768-1.07166-1.04398 1.49633 18888 13675.1)" r="23"/><circle transform="matrix(-1.80463-1.32673-1.29246 1.85248 19017.7 13693.1)" r="23"/><circle transform="matrix(-2.18684-1.60772-1.56619 2.24482 19146.3 13735.2)" r="23"/><circle transform="matrix(-2.39463-1.76049-1.71501 2.45812 19284.1 13807.8)" r="23"/><circle transform="matrix(-2.70695-1.99009-1.93869 2.77872 19402.6 13923.6)" r="23"/><circle transform="matrix(-2.88073-2.11786-2.06316 2.95712 19474.8 14090.2)" r="23"/><circle transform="matrix(-2.50041-1.83826-1.79077 2.56671 19464.3 14270.9)" r="23"/><circle transform="matrix(-2.29199-1.68503-1.64151 2.35277 19398.9 14417.6)" r="23"/><circle transform="matrix(-1.52695-1.12258-1.09359 1.56743 19170.4 14586.6)" r="23"/><circle transform="matrix(-1.736-1.27627-1.2433 1.78203 19289 14509)" r="23"/><circle transform="matrix(-1.38842-1.02074-.99437 1.42523 19043.2 14610.3)" r="23"/><path d="m18825 12975l58-84-105-78 64-92 108 79 68-97 90 66-64 92 102 76-73 105-100-73-54 77-94-71m47 28c17 13 33 27 46 42 87 99 100 248 23 358-89 128-264 156-391 62-127-93-158-272-69-400 79-112 224-147 344-90 16 8 32 17 47 28"/><path d="m13718 13608l-533-718c315-41 163 108 294 164 43-26 86-53 130-79l77 37-26 111-112 50c71 233 443 176 479-45 6-51-14-75-65-69-38 14-52 41-38 83-159-63-63-200 54-165-45-83-45-146-26-201 75 36 126 88 124 175 26-47 65-71 119-67 58 9 71 63 49 136-36-50-73-55-109-19l26 80c294 68 404-280 264-374l-168 69c-82-31-100-85-59-162l175-56-65-201 24-191 167 130 47 178 208-68c92 41 102 101 50 174l-181 61c-12 184 304 321 463 95 2-44-9-73-44-77-46 3-64 28-68 84-58-20-100-68-80-125 26-49 76-52 143-41-29-67-38-134-29-201 66 41 114 94 134 164 28-45 53-73 108-68 60 15 80 63 47 150-23-47-57-54-100-26 134 282 433 63 431-128-2-57-36-75-97-58l-75 19-82-69 67-85 144-16c74-102-131-145 86-331l87 909-2040 771"/><path d="m13819 13844l-74-188 2029-771 78 193z"/><path d="m18756 9720l34 115-97 168-142 44-63-25-74 142 23 79 145 77 51-68 140-43 150 95 48 165-15 81 149 90 54-16 83-161-50-58-44-151 82-166 95-40 110 21 87-157-28-88-143-72-41 60-143 44-160-95-38-114 24-85-130-78-93 28-88 145z"/><path d="m18045 11032c-145-314-53-587 309-813l50 95 192 90 51-86 115-25 107 77 37 119-20 90 99 51-57 174-86 26-234-95c-63-1-85 32-59 104l65 189c-20 110-90 160-203 159l-92-124-274-31"/><path d="m20262 10354c-46-344-268-521-691-507l8 108-112 183-89-44-110 44-48 125 33 120 64 64-55 98 139 114 87-26 145-212c52-35 88-20 105 55l46 194c75 81 161 84 255 19l11-155 212-180"/><path d="m18419 11481c-102-184-241-298-409-358 64-24 134-23 215 21l78-21 24 91c75 44 155 44 238-2 65-57 102-134 102-237l-39-169 157 67c78 19 137-1 184-43l64-137 206-63 140 72c54 9 104-5 153-36l131-187c24 192 130 339 332 301l140-95-25-113 78-39c17-64 68-109 158-129-100 142-158 314-145 533l-1782 544"/><path d="m20212 10990l-1779 544 42 144 1779-544z"/><path d="m18952 17010l-534-718c315-41 164 107 295 164 43-26 86-53 129-79l77 37-26 111-111 50c71 233 442 176 478-45 7-51-14-75-64-69-39 14-52 41-39 83-159-63-62-200 54-165-44-83-45-147-26-201 75 36 126 88 124 175 26-47 65-71 120-67 57 9 70 63 48 136-36-50-72-55-108-19l25 80c294 68 405-280 264-374l-167 69c-83-31-101-85-60-162l175-56-64-201 23-191 168 130 46 178 208-68c93 41 102 101 50 174l-180 61c-13 184 303 321 462 95 2-44-9-74-44-77-45 3-64 28-68 84-57-20-100-68-80-125 26-49 76-52 143-41-29-67-38-134-29-201 66 41 114 94 135 164 27-45 52-73 107-68 61 15 81 63 48 150-23-47-57-54-101-26 134 282 433 63 431-128-2-57-36-75-97-58l-75 19-82-69 67-85 145-16c73-103-132-146 85-332l88 910-2040 771"/><path d="m19053 17246l-75-188 2030-771 77 193z"/><path d="m14496 23829c-155-17-235 28-266 124 491-70 270 718-126 335-68-104-27-192 24-267-92-1-164 31-221 88-115-61-219-50-316 20 287 56 477 227 497 602h1087c-1-327 151-536 484-602-96-68-199-83-313-20-60-68-134-99-221-95 69 115 73 220-13 312-374 266-570-436-76-379-50-95-144-125-286-112-10-90-55-183-122-260-61 71-106 155-132 254"/><path d="m17840 23390c-120-13-182 21-206 96 379-54 209 555-97 259-53-80-21-148 18-206-71-1-127 23-171 68-89-47-170-39-245 15 223 43 370 176 385 466h841c-1-253 116-415 374-466-74-52-154-64-242-15-47-53-104-77-171-73 53 88 56 169-10 240-289 206-441-337-58-293-39-73-112-96-222-86-8-70-42-142-94-201-47 55-82 120-102 196"/></g><text x="10500" y="14850" fill="#373435" font-family="&apos;Arial Black&apos;" font-weight="900" font-size="529.17" transform="matrix(1.08134 0 0 1.11001 4116.63 6992.49)">NN 1</text></g></g><g clip-path="url(#1)"><g><g><g fill="#ff0a4b" stroke="#ff0a4b" stroke-width="7.62"><path d="m20597 31577l82-35271c563-668 610-666 776-783-29 12080-57 24160-85 36240-1 17 6 26-4 25-250-38-321-49-769-211z"/><path d="m18977 29672l68-29584c216-1191 640-2238 780-2397l-78 33306c-589-703-586-881-770-1325z"/></g><g/></g><text x="10500" y="14850" fill="#201e1e" font-family="&apos;FlemishScript BT&apos;" stroke="#201e1e" stroke-linejoin="round" stroke-linecap="round" stroke-width="25" font-size="3587.09" transform="matrix(0-1.11001 1.21207 0-12440.9 33589)">Texto 01</text><text x="10500" y="14850" fill="#373435" font-family="&apos;Arial Black&apos;" font-weight="900" font-size="529.17" transform="matrix(1.08134 0 0 1.11001-7376.05 6979.2)">NN 1</text><text x="10500" y="14850" fill="#201e1e" font-family="&apos;Lucida Calligraphy&apos;" stroke="#201e1e" stroke-linejoin="round" stroke-linecap="round" stroke-width="25" font-size="839.95" transform="matrix(0-1.11001 1.21207 0-11402.6 29824.8)">Texto 02</text></g></g></svg>