<svg xmlns="http://www.w3.org/2000/svg" viewBox="0 0 500 707" shape-rendering="geometricPrecision" image-rendering="optimizeQuality" fill-rule="evenodd" clip-rule="evenodd"><defs><clipPath id="0"><path d="m334 616c28 13 82 11 98-14 16-25 12-96 14-130 4-87 13-152 16-222 3-78-51-129-115-143-90-21-85 99-72 160 6 33 19 61 28 94 15 59 1 150 6 211 3 22 10 36 25 44"></path></clipPath><clipPath id="1"><path d="m166 616c-28 13-82 11-98-14-16-25-12-96-14-130-4-87-13-152-16-222-3-78 51-129 115-143 90-21 85 99 72 160-6 33-19 61-28 94-15 59-1 150-6 211-3 22-10 36-25 44"></path></clipPath></defs><g clip-path="url(#0)"><g><g fill="#FFFFFF" stroke="#FFFFFF" stroke-width=".476"><path d="m387 594c-8 0-15 7-15 15 0 7 4 12 10 15 4-1 9-1 14-2 3-3 6-8 6-13 0-8-7-15-15-15z"></path><path d="m328 594c-5 0-8 1-11 4 4 8 9 14 17 18 2 1 4 1 6 2 2-2 3-6 3-9 0-8-7-15-15-15z"></path><path d="m445 533c-8 0-14 7-14 15 0 7 5 13 12 15 1-10 1-20 2-30z"></path><path d="m387 532c-9 0-15 7-15 16 0 9 6 16 15 16 8 0 15-7 15-16 0-9-7-16-15-16z"></path><path d="m327 532c-8 0-15 7-15 16 0 9 7 16 15 16 8 0 15-7 15-16 0-9-7-16-15-16z"></path><path d="m446 471c-9 0-15 7-15 16 0 8 6 15 14 15 0-11 1-22 1-30v-1c0 0 0 0 0 0z"></path><path d="m386 471c-8 0-15 7-15 16 0 8 7 15 15 15 8 0 15-7 15-15 0-9-7-16-15-16z"></path><path d="m327 471c-8 0-15 7-15 16 0 8 7 15 15 15 8 0 15-7 15-15 0-9-7-16-15-16z"></path><path d="m445 410c-8 0-15 7-15 16 0 8 7 15 15 15 1 0 2 0 3 0 0-10 1-20 2-30-2 0-3-1-5-1z"></path><path d="m386 410c-8 0-15 7-15 16 0 8 7 15 15 15 8 0 15-7 15-15 0-9-7-16-15-16z"></path><path d="m326 410c-8 0-14 7-14 16 0 8 6 15 14 15 9 0 15-7 15-15 0-9-6-16-15-16z"></path><path d="m445 349c-8 0-15 7-15 16 0 8 7 15 15 15 3 0 5-1 7-2 1-8 2-17 3-25-3-2-6-4-10-4z"></path><path d="m385 349c-8 0-14 7-14 16 0 8 6 15 14 15 9 0 15-7 15-15 0-9-6-16-15-16z"></path><path d="m326 349c-8 0-15 7-15 16 0 8 7 15 15 15 8 0 15-7 15-15 0-9-7-16-15-16z"></path><path d="m444 288c-8 0-14 7-14 16 0 8 6 15 14 15 7 0 12-4 14-10 1-3 1-6 1-9-1-7-7-12-15-12z"></path><path d="m385 288c-8 0-15 7-15 16 0 8 7 15 15 15 8 0 15-7 15-15 0-9-7-16-15-16z"></path><path d="m326 288c-9 0-15 7-15 16 0 8 6 15 15 15 8 0 14-7 14-15 0-9-6-16-14-16z"></path><path d="m444 227c-8 0-15 7-15 15 0 9 7 16 15 16 8 0 15-7 15-16 0-8-7-15-15-15z"></path><path d="m385 227c-9 0-15 7-15 15 0 9 6 16 15 16 8 0 14-7 14-16 0-8-6-15-14-15z"></path><path d="m325 227c-8 0-15 7-15 15 0 9 7 16 15 16 8 0 15-7 15-16 0-8-7-15-15-15z"></path><path d="m273 256c4-2 8-8 8-14 0-7-5-13-12-15 1 10 2 20 4 29z"></path><path d="m439 167c-6 2-10 8-10 14 0 9 6 16 15 16 3 0 6-1 9-4-4-9-8-18-14-26z"></path><path d="m384 166c-8 0-15 7-15 15 0 9 7 16 15 16 8 0 15-7 15-16 0-8-7-15-15-15z"></path><path d="m325 166c-9 0-15 7-15 15 0 9 6 16 15 16 8 0 15-7 15-16 0-8-7-15-15-15z"></path><path d="m268 197c7-2 12-8 12-16 0-6-4-12-10-14-1 9-2 19-2 30z"></path><path d="m370 114c-1 2-1 4-1 6 0 9 6 16 15 16 6 0 11-4 13-9-8-5-17-10-27-13z"></path><path d="m324 105c-8 0-15 7-15 15 0 9 7 16 15 16 9 0 15-7 15-16 0-8-6-15-15-15z"></path><path d="m417 564c-9 0-15 7-15 15 0 9 6 16 15 16 8 0 14-7 14-16 0-8-6-15-14-15z"></path><path d="m357 564c-8 0-15 7-15 15 0 9 7 16 15 16 8 0 15-7 15-16 0-8-7-15-15-15z"></path><path d="m312 585c0-2 1-4 1-6 0-4-2-7-4-10 0 1 0 2 0 3 1 5 2 9 3 13z"></path><path d="m417 502c-9 0-15 7-15 16 0 8 6 15 15 15 8 0 14-7 14-15 0-9-6-16-14-16z"></path><path d="m357 502c-8 0-15 7-15 16 0 8 7 15 15 15 8 0 15-7 15-15 0-9-7-16-15-16z"></path><path d="m308 529c3-3 5-7 5-11 0-4-2-8-4-11-1 7-1 15-1 22z"></path><path d="m417 440c-9 0-15 7-15 16 0 9 6 15 15 15 8 0 14-6 14-15 0-9-6-16-14-16z"></path><path d="m357 440c-8 0-15 7-15 16 0 9 7 15 15 15 8 0 15-6 15-15 0-9-7-16-15-16z"></path><path d="m310 465c2-2 3-6 3-9 0-3-1-6-3-9 0 6 0 12 0 18z"></path><path d="m417 379c-9 0-15 7-15 15 0 9 6 16 15 16 8 0 14-7 14-16 0-8-6-15-14-15z"></path><path d="m357 379c-8 0-15 7-15 15 0 9 7 16 15 16 8 0 15-7 15-16 0-8-7-15-15-15z"></path><path d="m309 404c2-2 4-6 4-10 0-5-3-9-6-12 1 7 1 15 2 22z"></path><path d="m417 317c-9 0-15 7-15 16 0 8 6 15 15 15 8 0 14-7 14-15 0-9-6-16-14-16z"></path><path d="m357 317c-8 0-15 7-15 16 0 8 7 15 15 15 8 0 15-7 15-15 0-9-7-16-15-16z"></path><path d="m298 317c-3 0-6 1-8 2 3 10 6 19 9 29 8-1 14-7 14-15 0-9-7-16-15-16z"></path><path d="m417 256c-9 0-15 6-15 15 0 9 6 16 15 16 8 0 14-7 14-16 0-9-6-15-14-15z"></path><path d="m357 256c-8 0-15 6-15 15 0 9 7 16 15 16 8 0 15-7 15-16 0-9-7-15-15-15z"></path><path d="m298 256c-9 0-15 6-15 15 0 9 6 16 15 16 8 0 15-7 15-16 0-9-7-15-15-15z"></path><path d="m417 194c-9 0-15 7-15 15 0 9 6 16 15 16 8 0 14-7 14-16 0-8-6-15-14-15z"></path><path d="m357 194c-8 0-15 7-15 15 0 9 7 16 15 16 8 0 15-7 15-16 0-8-7-15-15-15z"></path><path d="m298 194c-9 0-15 7-15 15 0 9 6 16 15 16 8 0 15-7 15-16 0-8-7-15-15-15z"></path><path d="m408 135c-4 3-6 7-6 13 0 8 6 15 15 15 5 0 10-3 13-8-7-8-14-14-22-20z"></path><path d="m357 132c-8 0-15 7-15 16 0 8 7 15 15 15 8 0 15-7 15-15 0-9-7-16-15-16z"></path><path d="m298 132c-9 0-15 7-15 16 0 8 6 15 15 15 8 0 15-7 15-15 0-9-7-16-15-16z"></path></g><path d="m376 520c30 0 54 20 54 45 0 25-24 45-54 45-30 0-55-20-55-45 0-25 25-45 55-45" fill="#002180"></path><g fill="#FFFFFF" font-family="'Berlin Sans FB Demi'" stroke="#FFFFFF" font-weight="bold" stroke-width=".181"><text x="250" y="354" font-size="32.32" transform="matrix(.83929 0 0 1 116.27 219.16)">Karol 15</text><text x="340" y="591" font-size="20.16">13/07/16</text></g></g></g><g clip-path="url(#1)"><g><g fill="#FFFFFF" stroke="#FFFFFF" stroke-width=".476"><path d="m113 594c8 0 15 7 15 15 0 7-4 12-10 15-4-1-9-1-14-2-3-3-6-8-6-13 0-8 7-15 15-15z"></path><path d="m172 594c5 0 8 1 11 4-4 8-9 14-17 18-2 1-4 1-6 2-2-2-3-6-3-9 0-8 7-15 15-15z"></path><path d="m55 533c8 0 14 7 14 15 0 7-5 13-12 15-1-10-1-20-2-30z"></path><path d="m113 532c9 0 15 7 15 16 0 9-6 16-15 16-8 0-15-7-15-16 0-9 7-16 15-16z"></path><path d="m173 532c8 0 15 7 15 16 0 9-7 16-15 16-8 0-15-7-15-16 0-9 7-16 15-16z"></path><path d="m54 471c9 0 15 7 15 16 0 8-6 15-14 15 0-11-1-22-1-30v-1c0 0 0 0 0 0z"></path><path d="m114 471c8 0 15 7 15 16 0 8-7 15-15 15-8 0-15-7-15-15 0-9 7-16 15-16z"></path><path d="m173 471c8 0 15 7 15 16 0 8-7 15-15 15-8 0-15-7-15-15 0-9 7-16 15-16z"></path><path d="m55 410c8 0 15 7 15 16 0 8-7 15-15 15-1 0-2 0-3 0 0-10-1-20-2-30 2 0 3-1 5-1z"></path><path d="m114 410c8 0 15 7 15 16 0 8-7 15-15 15-8 0-15-7-15-15 0-9 7-16 15-16z"></path><path d="m174 410c8 0 14 7 14 16 0 8-6 15-14 15-9 0-15-7-15-15 0-9 6-16 15-16z"></path><path d="m55 349c8 0 15 7 15 16 0 8-7 15-15 15-3 0-5-1-7-2-1-8-2-17-3-25 3-2 6-4 10-4z"></path><path d="m115 349c8 0 14 7 14 16 0 8-6 15-14 15-9 0-15-7-15-15 0-9 6-16 15-16z"></path><path d="m174 349c8 0 15 7 15 16 0 8-7 15-15 15-8 0-15-7-15-15 0-9 7-16 15-16z"></path><path d="m56 288c8 0 14 7 14 16 0 8-6 15-14 15-7 0-12-4-14-10-1-3-1-6-1-9 1-7 7-12 15-12z"></path><path d="m115 288c8 0 15 7 15 16 0 8-7 15-15 15-8 0-15-7-15-15 0-9 7-16 15-16z"></path><path d="m174 288c9 0 15 7 15 16 0 8-6 15-15 15-8 0-14-7-14-15 0-9 6-16 14-16z"></path><path d="m56 227c8 0 15 7 15 15 0 9-7 16-15 16-8 0-15-7-15-16 0-8 7-15 15-15z"></path><path d="m115 227c9 0 15 7 15 15 0 9-6 16-15 16-8 0-14-7-14-16 0-8 6-15 14-15z"></path><path d="m175 227c8 0 15 7 15 15 0 9-7 16-15 16-8 0-15-7-15-16 0-8 7-15 15-15z"></path><path d="m227 256c-4-2-8-8-8-14 0-7 5-13 12-15-1 10-2 20-4 29z"></path><path d="m61 167c6 2 10 8 10 14 0 9-6 16-15 16-3 0-6-1-9-4 4-9 8-18 14-26z"></path><path d="m116 166c8 0 15 7 15 15 0 9-7 16-15 16-8 0-15-7-15-16 0-8 7-15 15-15z"></path><path d="m175 166c9 0 15 7 15 15 0 9-6 16-15 16-8 0-15-7-15-16 0-8 7-15 15-15z"></path><path d="m232 197c-7-2-12-8-12-16 0-6 4-12 10-14 1 9 2 19 2 30z"></path><path d="m130 114c1 2 1 4 1 6 0 9-6 16-15 16-6 0-11-4-13-9 8-5 17-10 27-13z"></path><path d="m176 105c8 0 15 7 15 15 0 9-7 16-15 16-9 0-15-7-15-16 0-8 6-15 15-15z"></path><path d="m83 564c9 0 15 7 15 15 0 9-6 16-15 16-8 0-14-7-14-16 0-8 6-15 14-15z"></path><path d="m143 564c8 0 15 7 15 15 0 9-7 16-15 16-8 0-15-7-15-16 0-8 7-15 15-15z"></path><path d="m188 585c0-2-1-4-1-6 0-4 2-7 4-10 0 1 0 2 0 3-1 5-2 9-3 13z"></path><path d="m83 502c9 0 15 7 15 16 0 8-6 15-15 15-8 0-14-7-14-15 0-9 6-16 14-16z"></path><path d="m143 502c8 0 15 7 15 16 0 8-7 15-15 15-8 0-15-7-15-15 0-9 7-16 15-16z"></path><path d="m192 529c-3-3-5-7-5-11 0-4 2-8 4-11 1 7 1 15 1 22z"></path><path d="m83 440c9 0 15 7 15 16 0 9-6 15-15 15-8 0-14-6-14-15 0-9 6-16 14-16z"></path><path d="m143 440c8 0 15 7 15 16 0 9-7 15-15 15-8 0-15-6-15-15 0-9 7-16 15-16z"></path><path d="m190 465c-2-2-3-6-3-9 0-3 1-6 3-9 0 6 0 12 0 18z"></path><path d="m83 379c9 0 15 7 15 15 0 9-6 16-15 16-8 0-14-7-14-16 0-8 6-15 14-15z"></path><path d="m143 379c8 0 15 7 15 15 0 9-7 16-15 16-8 0-15-7-15-16 0-8 7-15 15-15z"></path><path d="m191 404c-2-2-4-6-4-10 0-5 3-9 6-12-1 7-1 15-2 22z"></path><path d="m83 317c9 0 15 7 15 16 0 8-6 15-15 15-8 0-14-7-14-15 0-9 6-16 14-16z"></path><path d="m143 317c8 0 15 7 15 16 0 8-7 15-15 15-8 0-15-7-15-15 0-9 7-16 15-16z"></path><path d="m202 317c3 0 6 1 8 2-3 10-6 19-9 29-8-1-14-7-14-15 0-9 7-16 15-16z"></path><path d="m83 256c9 0 15 6 15 15 0 9-6 16-15 16-8 0-14-7-14-16 0-9 6-15 14-15z"></path><path d="m143 256c8 0 15 6 15 15 0 9-7 16-15 16-8 0-15-7-15-16 0-9 7-15 15-15z"></path><path d="m202 256c9 0 15 6 15 15 0 9-6 16-15 16-8 0-15-7-15-16 0-9 7-15 15-15z"></path><path d="m83 194c9 0 15 7 15 15 0 9-6 16-15 16-8 0-14-7-14-16 0-8 6-15 14-15z"></path><path d="m143 194c8 0 15 7 15 15 0 9-7 16-15 16-8 0-15-7-15-16 0-8 7-15 15-15z"></path><path d="m202 194c9 0 15 7 15 15 0 9-6 16-15 16-8 0-15-7-15-16 0-8 7-15 15-15z"></path><path d="m92 135c4 3 6 7 6 13 0 8-6 15-15 15-5 0-10-3-13-8 7-8 14-14 22-20z"></path><path d="m143 132c8 0 15 7 15 16 0 8-7 15-15 15-8 0-15-7-15-15 0-9 7-16 15-16z"></path><path d="m202 132c9 0 15 7 15 16 0 8-6 15-15 15-8 0-15-7-15-15 0-9 7-16 15-16z"></path></g><path d="m125 525c30 0 54 21 54 46 0 25-24 45-54 45-30 0-55-20-55-45 0-25 25-46 55-46" fill="#002180"></path><g fill="#FFFFFF" font-family="'Berlin Sans FB Demi'" stroke="#FFFFFF" font-weight="bold" stroke-width=".181"><text x="250" y="354" font-size="32.32" transform="matrix(.83929 0 0 1-134.03 219.16)">Karol 15</text><text x="90" y="591" font-size="20.16">13/07/16</text></g></g></g></svg>