<svg xmlns="http://www.w3.org/2000/svg" width="744.09" height="1052.36" viewBox="0 0 21000 29700" shape-rendering="geometricPrecision" image-rendering="optimizeQuality" fill-rule="evenodd" clip-rule="evenodd"><defs><clipPath id="0"><path d="m6582 26812c-1334 682-3868 550-4637-712-767-1258-594-4827-666-6577-183-4382-643-7705-762-11239-133-3924 2406-6519 5441-7249 4282-1031 4029 5008 3434 8112-312 1667-929 3119-1322 4749-725 3007-68 7597-320 10727-130 1081-472 1799-1168 2189"/></clipPath><clipPath id="1"><path d="m14334 26812c1333 682 3868 550 4637-712 767-1258 593-4827 666-6577 182-4382 643-7705 762-11239 132-3924-2407-6519-5442-7249-4282-1031-4028 5008-3434 8112 313 1667 929 3119 1322 4749 726 3007 69 7597 321 10727 129 1081 471 1799 1168 2189"/></clipPath></defs><text x="10081" y="23623" fill="#201e1e" font-family="&apos;Arial Black&apos;" stroke="#201e1e" font-weight="900" stroke-width="7.62" font-size="705.56">42</text><g fill="none" stroke="#373435" stroke-width="80"><circle cx="10533" cy="1326" r="460"/><path d="m10533 515v1621"/><path d="m9723 1326h1621"/><circle cx="10533" cy="24995" r="460"/><path d="m10533 24184v1621"/><path d="m9723 24995h1621"/></g><rect x="9508" y="21571" width="1347" height="637" rx="318" fill="#fff" stroke="#fff" stroke-width="20"/><path d="m6582 26812c-1334 682-3868 550-4637-712-767-1258-594-4827-666-6577-183-4382-643-7705-762-11239-133-3924 2406-6519 5441-7249 4282-1031 4029 5008 3434 8112-312 1667-929 3119-1322 4749-725 3007-68 7597-320 10727-130 1081-472 1799-1168 2189" fill="#fefefe"/><g clip-path="url(#0)"><g fill="#201e1e"><g stroke="#201e1e"><path d="m4514 23029c-12-22-20-47-27-74-6-22-8-40-8-55 0-21 8-39 26-54 19-16 44-24 74-24 24 0 46 8 66 24 18 16 28 35 28 55 0 25-11 47-31 66-26 24-68 45-128 62zm157 295c-18 11-38 20-61 25-22 6-46 9-72 9-57 0-105-16-145-46-38-31-57-69-57-112 0-27 11-52 32-75 24-25 59-44 103-56 26 47 57 93 92 138 37 48 73 87 108 117zm59-257c34 0 57 5 69 13 12 9 16 24 12 44-6 31-17 59-31 87-17 31-39 59-65 82-33-31-66-68-98-109-34-43-64-89-92-136 77-23 131-47 162-73 22-20 33-44 33-71 0-29-13-54-39-74-27-21-61-31-101-31-51 0-91 11-121 33-29 22-43 51-43 86 0 17 3 35 11 56 6 19 17 43 33 74-68 23-118 49-148 79-30 29-44 64-44 106 0 38 22 74 66 107 46 36 102 54 168 54 34 0 68-5 104-15 32-10 61-22 87-37 22 15 45 27 70 36 25 8 47 12 68 12 32 0 62-7 89-22 22-13 43-30 63-52l-12-13c-18 18-39 30-62 38-20 6-46 9-78 9-17 0-34-4-51-12-16-6-31-15-47-27 28-22 54-52 76-88 19-32 35-66 46-102 6-19 16-32 30-41 15-8 37-13 67-13v-19h-222v19z" stroke-width="50"/><path d="m1488 13262c14 31 9 37 9 82 55-5 128-35 173-50 31-11 56-16 89-28 35-13 50-24 92-25 14 68 270 356 267 388-16 32-30 54-48 82 24-7 125-74 125-102 0-53-109-197-148-251l-91-157c106-10 248-112 328-181 32-28 64-65 92-85 0 158 35 278 102 402 20 37 40 77 80 88 96-75 82-414 50-543-17-68-49-102-79-151 33-53 154-219 191-245 0 74 4 164 1 235-3 54-16 48-35 86-43 90-35 407 63 434 10-40 149-236 77-429-7-20-12-25-15-35-14-46 5-102 5-158 0-419-25-129 143-541 26-63 82-164 134-204 39 9 93 49 124 71 64 44 53 45 83 125 113 306 225 566 415 823 183 248 134 152 324 491 47 83 92 182 147 262 40 57 119 83 198 216 31 51 78 239 100 312 66 215 61 538 61 772-1 75 10 121 9 204 0 179-12 803 5 936l-15 503c-4 55-15 126-24 189-7 54-32 159 25 159h535c110 0 32-144 4-250-48-179-75-559-80-751-2-52-10-63-10-122v-286c0-63-9-79-10-132-2-88 6-190 0-276-20-252 2-536-53-790-93-432-89-424-317-784-158-250-134-681-73-962 12-54 23-83 33-138 17-87 35-196 55-278 23-100 55-170 70-272 16-106 27-179 59-274 40-116 217-281 309-364 44-39 135-136 185-150 21 266 372 346 372 255 0-87-37-173-69-232-72-130-105-114-141-166 64-18 460-347 509-396 45-45 68-29 131-12 312 81 230 99 230 296-88 8-136 96-164 172-85 226-49 271-47 410 118-3 253-216 278-327 1 2 2 3 2 7l12 39c70 308 27 302-77 581l-90 179c11 25 16 47 28 72l118-110c26-39-12-56 51-190 12-24 17-36 29-61l19-40c12-19 4-7 13-18l63 239c11 47 17 77 28 123 11 47 30 86 33 128-63 0-89 10-126 39-19 16-65 66-82 87-56 71-78 152-98 242 150 77 321-12 388-157 1-3 5-11 7-14 0-2 2-5 3-6 1-2 2-5 3-7 30 119 298 385 373 439-60 96-124 134-124 357l19 184c133-75 229-260 229-429 41 29 91 98 96 153 10 129-16 128 37 226 62 114 200 203 345 203v-71c0-151-162-502-325-419l-38-81c118-11 179-81 239-154-25-40-40-59-83-85-86-51-278-62-290 85-185-132-306-278-411-490 65 0 129 8 182 21 12-25 17-47 28-72h-47c12-57 38-69 38-153 0-95-34-228-86-265-33 9-24 6-43 36-13 20-21 35-30 60-32 84-42 191-23 282-88-8-82-30-104-104-12-41-38-136-39-182 134-76 162-209 162-378 0-74-14-136-38-184-109 10-158 144-207 228-12 19-4 7-12 17-3-33-13-61-20-91-46-203-29-204-103-452-17-58-11-139-11-212l157 98c92 60 399 253 460 304 50 42 160 139 187 198 14 32 56 551 56 615 37 3 25 9 67 10l-10-399c0-58-9-77-10-122 30 21 51 43 80 69l163 131c23 18 23 19 42 37 19 18 24 19 43 36l158 147c27 22 60 42 88 59 36 22 61 48 105 52 31 402 174 458-76 828-25 38-29 58-29 121 43-12 155-175 188-227 11-17 1-4 12-18 2 88 27 236 46 319 8 36 18 64 21 100-123 0-229 198-229 316v72h57c98 0 220-108 239-194 40 31-2 27 48 41 3-43 19-54 19-92 0-9-33-96-38-123 28 7 44 18 67 31l20-71c-96-67-104-51-133-176-11-46-105-767-107-856 35 4 89 24 130 35 50 14 90 20 144 30 249 44 238-2 299-3-40-64-22-48 32-221 75-238 113-272-13-473-110 78-172 298-172 479 0 84 26 96 38 153-46-23-302-54-531-176-29-16-49-25-77-41-31-18-45-38-79-48v-20c68-17 134-81 216-106 52-16 67-22 114-42 130-57 161 70 281-189 36-78 57-159 57-276-97-24-182 47-236 105-85 90-98 110-98 283-113 58-232 41-430 153-49-35-83-74-131-115-39-34-108-79-137-120 47-73 81-127 86-245 6-110 12-206-28-296-103 26-201 270-201 419-40-29-161-165-222-222l-141-125c34-54 115-126 167-169 77-65 137-147 212-213 38-34 92-164 319-292 27 44 73 91 113 124 24 20 30 13 39 50-159 45-178 413-105 561 37-21 69-36 99-68 65-71 159-241 139-348-5-23-1-11-8-23 14-21 24 10 43 25 47 35 81 53 138 67 0-105-88-92-166-200-30-41-167-179-172-205-7-38 47-22 90-24 43-2 59-10 114-10 109 0 321 8 411 31-61 98-114 193-114 357 118 34 245-73 293-176 19-42 22-81 22-140 65 16 92 81 162 81 127 0 301-146 325-255-58-33-107-61-181-61-127 0-213 53-268 163-54-5-146-37-200-51l-211-41c28-126 58-93 58-306 0-77-15-152-39-204-122 30-214 341-181 490-61 0-121 0-182 0-72-1-112 15-172 20 46-101 28-257 6-363-18-88-31-104-63-168-125 71-162 319-162 460 0 74 23 115 47 163-44 13-113 94-152 123-5-58-28-148-29-206-1-47 12-49 36-73 81-82 85-254 67-372-5-28-19-61-27-95-55 16-94 74-121 126-117 229-35 299-31 405l9 306c0 44-219 255-257 288-56 48-104 119-163 162-23-13-54-35-77-41v-21c121-34 112-333 92-445-10-55-25-62-35-106-116 33-267 332-210 460-29-9-101-64-132-84-190-128-282-141-441-223 11-16 63-62 84-84 109-116 197-251 293-381 72-99 155-189 237-277l168-168c63-54 119-108 176-169 14-16 23-27 38-41 71-62 271-293 294-309 77 123 149 143 296 143 40 0 68-8 96-20 37-17 47-31 76-51-35-71-68-121-128-170-26-21-58-44-89-58l-108-38c41-82 199-159 279-212l275-217c14 10 98 90 105 103-34 50-59 47-91 136-36 98-53 285-4 384 122-11 238-231 239-357l-2-59c-4-22-1-10-8-23l8-12c0 0 90 43 174 43 10 49 44 89 83 115 67 44 159 48 242 48 65 0 109-37 152-61-25-116-219-276-353-276-170 0-78 198-339 15-49-35-114-75-129-137 142-102 264-237 403-345l132-125c0 162 39 392 162 480 27-43 60-103 75-155 35-124 55-323 0-446-21-47-42-56-65-93 52-105 105-203 147-312 15-38 29-87 53-107 19 88 170 215 268 215h67c0-129-21-229-70-334-34-72-84-154-179-156 4-53 28-82 29-143 44 12 78 61 134 61 136 0 309-148 334-265-89-64-138-72-248-72-52 0-106 16-144 51l-11-8c0-4 5-10 5-8l10-21c4-10 9-28 12-38l80-190c123 69 207-6 279-101 45-60 96-139 103-236-36-9-45-23-98-25-96-5-201 48-263 119-54 62-41 126-70 190-30 65-69 111-85 186-37-11-53-62-90-88-125-93-407-20-407 57 0 133 287 319 411 255-54 248-300 931-468 1052 46-213 10-492 10-705-88-45-67 8-67 102-46-32-77-51-144-51-70 0-437 113-83 293 80 41 161 30 227-17 0 126-17 525-144 561 0-161-202-326-353-326-48 0-93-14-84 56 11 77 43 151 78 215 36 65 109 191 187 198-12 50-171 166-216 207l-77 71c-62 61-252 224-328 243 174-350 268-937 366-1346 23-97 164-576 233-617 15-9 51-10 76-21 72-32 112-99 144-173 40-93 80-237 80-365 0-35-8-39-10-71-156 0-354 287-354 429 0 79 22 149-9 173-2-105-88-251-170-308-23-16-18-16-50-18-73 147-55 509 115 551-8 36-28 80-42 118-18 45-30 86-43 128-35 113-199 693-202 805-51-36-84-81-172-81-52 0-99 17-137 37-86 44-121 87-52 165 60 67 204 161 294 94l-6 44c-76 213-126 423-263 607l-90 139c-74 102-242 301-329 363 0-77 10-128 10-214 0-75 0-150 0-225 0-160 14-278 29-418l41-406c5-46 17-409 24-423 13-27 83-80 109-108l311-342c310-356 242-516 241-916 0-75-18-157-19-225 146 37 249-85 305-214 19-43 29-68 29-133-129-11-189-21-302 76-31 26-26 37-51 57 0-101 114-95 114-337 0-80-11-152-30-213-24-82-34-100-75-165-129 93-220 462-116 605 18 25 40 33 47 61 5 22 2 94 2 120-14-3-67-20-76-20-147 0-304 197-335 337 98 24 133 45 242 3 90-34 124-69 179-136 0 52 9 56 9 112 0 208 28 443-54 637-9 21-11 24-22 37-8-100-97-369-134-469-16-44-48-103-57-143-28 20-13 20-48 30 25 52 40 143 67 184l-8 12c-29 0-53-73-218 33-55 35-75 65-108 118 50 103 162 123 267 123 48 0 85-40 115-61 7 16 58 256 56 275-5 51-417 475-467 511 0-68-10-89-10-153 184 0 274-400 211-541-73 6-106 36-152 72-41 33-74 81-106 121 0-95-65-696-84-798-9-49-16-78-27-124-12-49-23-76-33-119 21-33 48-48 67-82 69-118 77-248 77-398 134 97 221 45 332-73 44-48 117-133 117-223-75-6-138-63-325 52-125 76-83 130-134 193 0-95-17-152-48-214-46 26-54 39-85 83-67 97-135 248-135 376h-19c-18-72-207-244-260-303-26-29-75-79-84-115 84-47 118-109 153-204 15-40 33-90 43-139 15-79 10-89 5-157-131 3-295 223-306 357-39-48-84-129-86-194 172-43 157-400 77-561-65 36-98 77-134 143-50 92-99 262-42 371l49 91c27 75 56 135 89 201-133 75-151 330-86 459 63-5 95-58 124-102 25-37 65-112 67-173 49 38 100 139 145 191 22 26 38 36 55 64-128 0-329 101-363 235 120 86 164 92 316 92 141 0 147-115 210-133 32 129 93 97 164 539 16 101 17 212 32 323l63 657c11 99 32 228 37 329 6 130 2 202 0 337-1 111-29 226-29 336-201 0-296 298-296 480 35 0 69-2 99-17 59-31 109-90 159-126 0 51-9 56-10 112 0 50 2 80-5 127-12 83-4 176-4 261-37-10-50-30-105-30-83 0-157 58-191 112 67 83 178 163 286 102 0 143-39 138-117 222-32 35-143 156-179 166 0-166-212-313-363-276 0 164 121 390 239 419l-318 415c-55 70-121 125-181 185-101 100-220 192-331 279-43 34-92 86-145 101-43-89-99-199-136-293-99-248-173-388-216-668-10-68-20-122-31-191-9-54-23-140-27-196 28 23 10 17 36 43 80 78 228 87 328 51 38-14 53-34 85-43-4-45-19-62-40-90-62-88-147-129-237-175 24-38 301-289 353-327-31 141-15 332 38 439 138-98 201-310 201-490 0-61-27-92-38-143 33-23 70-66 105-91 9 112 40 189 79 272 36 76 86 166 169 187 36-164 29-379-55-523-22-38-40-48-59-79l122-125c2 89 52 164 95 209 53 57 134 110 222 110 0-37 5-46 4-69 0-13-5-65-8-80-7-42-26-104-41-140-28-72-84-174-165-181 0-1 121-271 160-421 38-145 84-322 99-486 27-304 11-630 116-917 7-19 10-33 21-50 34-58 48-40 15-106-124 11-182 423-182 510-34-26-141-235-372-235-41 0-27 36-22 62 31 154 165 428 327 428h29c0 288-68 539-136 805-37 144-99 276-173 396-35 55-113 172-169 188 0-125 2-241-12-355-11-92-26-236-26-340l48-9c66-16 105-66 139-127 46-82 81-210 81-323-149 0-155 65-249 133l19-225c-11 14-13 15-21 39-5 15-7 27-7 53l-58-91c-2-2-4-4-5-5-2-2-4-4-5-5-53-54-125-103-209-103-33 0-37 7-67 10 2 122 109 378 239 378h47l-21 173c-82-61-109-71-218-71-59 0-85 29-124 51 19 86 67 148 123 196 108 92 124 63 221 39l10 561c0 163-53 181-150 269-39 34-70 67-108 99-22 18-36 33-57 51-84 69-481 429-516 439-8-34-17-107-20-143 58-41 205-279 235-362 51-136 58-267 107-397 16-42 7-4 2-58-60 2-50 30-69 79-1 3-5 11-6 14-1 2-3 5-4 6l-7 13c-15-69-69-147-133-163-15 65-29 119-29 194 0 96 24 204 95 225-46 102-64 139-129 229-23 31-32 45-62 67 0-95-1-192 0-287 2-172 34-474 57-653 6-46 17-91 20-132 79 56 98 81 210 81 115 0 160-35 239-91-54-110-163-178-278-204-68-16-72-6-133 10 11-140 103-416 162-541 30-63 50-116 20-184-44 34-127 265-153 337-104 279-230 954-230 1255-58-16-116-79-162-112 64-101 105-110 105-306 0-212-13-147-48-306-122 30-191 343-191 449 0 38 7 19 10 61-22-5-22-8-48-10-7 30-10 31-10 71 70 2 108 68 151 115 49 53 90 77 143 123 32 27 41 31 42 88 2 132-15 288 1 417 8 59 27 198-18 240-16 15-19 14-33 26l-176 159c-18 15-20 19-36 34-57 51-108 122-169 166 0-202-173-1442-205-1690-22-168-37-165 86-264 103-83 208-170 333-216 50-18 118 0 149-35-9-27-52-51-86-51-145 0-370 178-506 255 0-62 2-120-6-178-23-153 245-440 357-559 56-60 108-144 174-192 0 87 52 390 153 419 12-46 43-103 55-156 24-107 32-255-1-361-16-53-39-77-64-116 7-9 14-17 22-28 163-220 291-231 523-350-8 98-73 314 10 480 155-88 254-415 172-582 58-42 76-34 76-132-31 8-23 11-48 30-229 175-527 179-738 395-33 34-47 69-83 95-89-179-413-150-507 0 45 72 73 98 144 143 58 36 127 61 219 61-25 51-184 223-231 273-22 23-37 38-58 61-43 48-132 188-169 218 0-429 70-793 175-1181 31-116 76-235 102-351 9 11 0-3 12 18 6 11 4 8 10 20 15 28 7 18 28 42 83 95 185 145 313 145 77 0-52-223-71-251-52-77-107-157-225-157 2-36 36-117 49-152 18-48 37-105 56-155 32-86 96-222 114-306l23 57c52 139 264 368 264 249 0-124-11-250-54-360-28-69-66-143-137-160 5-60 27-74 38-123 52 64 94 118 193 132 93 12 203 9 247-60-25-112-251-303-363-245 39-183 159-122 199-369 28-170 26-371-37-499-102 29-229 346-229 500 0 75 5 129 32 191 15 33 11 49-7 81-10 20-7 13-16 24 0-110-29-180-93-257-50-60-110-133-203-141 0 181 48 500 258 500-11 53-41 109-64 157l-130 310c-13 32-19 48-32 78-17 40-12 55-42 78-11-145-246-360-382-327 0 142 44 236 93 330 42 81 111 191 223 191-17 36-33 88-47 124-17 46-33 87-49 131-61 163-236 683-239 837-45-32-103-107-139-157-71-98-154-182-236-269-67-72-133-132-210-194-74-58-142-132-217-186 14-24 31-37 46-63 12-22 24-54 30-80 39-152-8-82 124-82 0-182-112-498-286-541 21-33 45-46 74-74 78-74 168-150 260-201l-40-50c-118 65-234 167-352 233 0-65-23-244-76-286 0 48-6 43-9 83-13 169 6 206-28 460-8 61-20 111-20 172l-24-36c-11-19-11-19-21-39-106-211-190-420-242-660 56-32 86-67 109-139 51-160 40-267 6-422-63 35-97 80-131 146-13 24-18 48-41 58 0-118-10-198-10-317 172-49 183-411 161-600-7-58-27-88-37-135-141 41-289 470-216 660 27 69 25 40 25 137-37-27-51-52-102-75-104-48-159-43-261-17 2 109 174 316 277 316 36 0 67-4 96-20 0 66-2 123 12 191 5 28-1 10 7 23-12 18-9 7-22-7-2-1-4-3-5-5-82-79-346-112-346-39 0 105 194 306 325 306 103 0 65-73 99 78 13 55 41 129 44 178-155 44-191 337-191 490 0 35 7 39 10 71 102-9 250-222 258-327h19c33 153 195 365 267 511-139 0-248 158-311 269-31 54-30 101-52 149 35 9 45 21 86 21 180 0 358-131 392-286l127 120c122 125 290 219 395 364 36 50 74 91 109 139 19 26 35 44 56 72l113 144c23 26 41 42 36 84-8 76-33 155-33 230-50-39-135-163-297-163-32 0-37 8-66 10 12 157 165 398 324 398 0 94-10 147-9 235 0 85 0 170 0 255-31 22-61 40-89 69-29 31-50 61-83 84 0-115 12-259-10-357-133 0-36 6-149-65-65-39-153-67-233-47 0 123 130 330 239 357v21c-80 7-157 119-193 181-99 168-27 213-27 298 0 132 7 604-11 702-13 66-115 260-158 311-108 129-223 244-321 383-35 50-56 102-102 136-5-59-18-123-29-174-64 6-12 25-76 31 22 103-10 227-10 336-18-13-19-18-36-32-70-55-151-59-241-59-56 0-90 26-124 51 47 95 107 165 197 218 78 45 96 33 166 27l-67 326c-9 38-20 65-28 102-45-35-200-407-219-460-16-46-27-81-43-128-23-67-26-56-25-146 1-119 0-239 0-358 80 58 217 97 315 41-8-108-200-319-325-255v-225c80 57 200 52 287 11 56-27 55-43 96-72-74-117-190-174-325-174-35 0-34 12-67 21 0-36 2-78 0-113-2-39-16-62-9-100 6-40 65-93 85-134 123 0 164-49 226-147 50-81 99-220 99-333-183 0-343 192-361 319-6 42 6 69-10 101-5 10-41 53-49 60 0-140-50-278-21-431 16-81 70-53 130-147 52-80 82-236 82-351 0-119-270 146-274 328 0 41 17 72 8 112-18 79-30 160-30 254 0 57 9 60 9 112-55-68-109-224-267-224-18 81 22 191 54 258 32 69 79 160 165 160 25 0 10-7 48-10 21 94 29 806 29 939 0 74-10 102-10 174-44-55-87-166-203-304-96-116-189-235-271-364-26-40-21-35-11-95l86-439c25-129 78-146-40-146l-134 490-66-297c-35-224-28-410-10-632 103 0 140-39 191-122 41-67 86-183 86-276-63 0-118 19-163 51l-95 82c3-43 3-27 25-55 115-147 60-487-30-635-17-29-15-8-24-45-121 35-143 443-120 557 18 91 46 100 82 157-12 53-19 160-19 225-49-35-68-69-128-99-72-36-188-57-271-31-29 8-37 20-69 28 33 155 272 412 439 327 0 197-8 529 56 716 8 25 7 22 20 39-21 33-6-60-189-94-93-17-159 8-221 53 33 68 57 107 113 155 70 59 194 129 283 64 27-19 35-22 43-56h19c13 64-45 37-85 155-43 127-39 342 18 458 27-19 48-42 70-69 55-67 112-224 112-319l239 306c-48 25-380 92-421 92-81 0-105-24-172 10-40 20-82 68-112 105-68 87-117 192-117 314h57c142 0 335-170 335-347 187 0 342-61 525-61 9 33 55 100 75 134 29 51 41 87 65 145 13 29 14 45 26 74 1 2 2 5 3 7l10 20c1 2 2 5 3 7l76 205c40 105 81 192 128 292l105 215c111 220 213 424 282 678 52 190 105 500 183 672-185-46-362-148-551-26-38 25-97 76-137 88-10-40-58-60-86-82-70-52-175-209-214-292-72-155-120-338-187-494-35-80-96-123-178-158-153-64-147 26-84-162 16-48 29-80 43-128 18-61 12-77 21-152 9-76 1-65-37-119-26-36-38-74-71-98 0 112-34 60 27 155 53 83-12 233-49 312-20 41-55 105-64 146-92 0-180-21-258-61 59-95 67-174 67-296 0-37-3-57-9-83-8-40-13-37-20-71-109 28-172 252-172 368-125-11-149-16-258 61-89 63-200 154-35 211 93 33 263 38 322-47l-11 69c-32 162 22 377 87 482 76-55 134-285 134-429 0-60-25-103-29-153l308 69c53 11 102 18 135 50 31 30 53 88 64 136-55 0-66 10-125 10h-152c-35 0-34-12-67-20-6 24-10 51-19 71l158 46c60 10 131 5 195 5-37 60-75 123-94 196-18 74-35 181-23 257 10 60 22 52 64 22 79-57 132-143 174-234 1-2 5-11 6-13l7-13c16 72 93 225 132 277 16 21 30 31 47 52 21 27 23 35 48 61 31 34 75 80 79 130-63 16-123 44-190 63-17 5-26 5-48 10l-145 50c-123 37-277 89-410 92-59-94-263-213-297-347-34 8-68 24-86 51 38 10 47 37 69 70 38 55 69 113 115 162 20 22 63 57 74 74-107 27-236 2-338-16-46-8-78-13-124-20-48-8-90-22-130-25 16-24 26-24 48-41 85-63 136-186 168-290 22-68 32-146 32-221-178 0-349 199-384 376-14 70-41 57-19 157 30 131 430 194 528 202-90 144-128 261-181 430-24 80-45 155-77 224-20 41-34 62-79 69-75 12-112-5-112 74 0 44 43 30 86 30-24 109-84 34-60 228l40 497c26-20 23-37 36-74 57-159 90-341 12-498 14-22 32-41 48-61 11 144 213 266 363 266 45 0 69-12 105-21 0-97-82-206-131-258-74-77-108-140-251-140 79-159 124-346 187-515 14-36 23-69 39-101 23-46 61-81 89-120 18-25 9-26 48-30-33 154-50 179 23 364 31 78 60 134 120 177 55-109 67-315 31-440-13-45-41-74-50-111 248 0 390-91 516-102-16 36-20 74-34 117l-90 220c-25 46-30 58-86 71 12 26 21 61 30 91 10 33 12 64 37 83v-112c109-62 138-222 191-337 11-23 15-37 26-64 6-16 6-17 12-28 1-2 2-5 3-7l16-24c-8 106-12 145 10 255 12 58 45 105 57 154 87-62 124-249 124-368 0-62-17-93-28-143 113-10 367-205 525-183l95 12c-84 165-83 250-124 334-35 72-93 135-141 197l-242 333c-54 79-51 66-153 54-519-60-314 67-314 315l10-214c98-25 200 10 296 10-19 77-181 157-252 190-36 18-65 28-106 40l-425 168zm2120-3604c66-42 388-82 507-138 12 18 45 155 61 196 24 62 49 116 77 172 58 119 118 222 179 332l-71 38c-58 35-93 107-122 176-40 100-77 217-66 347 139-5 250-157 316-274 12-19 8-13 18-26 29 257 134 852 67 1096-29 104-40 222-72 322-67 213-84 448-146 661-30 106-59 209-83 319-61 292 4 442-94 295-167-250-207-282-390-513-254-322-481-1025-608-1454-65-217-106-382-190-592-42-106-94-155-69-182 22 33 54 63 90 77 44 19 97 21 148 17 96-9 177-46 221-103-20-67-102-129-166-162-98-51-152-58-258-23 3-85 33-324 57-394 76 119 170 245 328 234-3-111-36-192-82-273-81-146-117-123-173-165l25-32c64 20 93 47 182 59 81 10 140 6 220 0 5 226 143 310 197 491l66-21c-18-153-181-296-169-480zm1810 1156c-44 19-122 80-166 110-75 50-413 284-455 332l-149-1059c77 30 135 92 228 117 104 28 220-9 328 8 62 10 57 41 79 100 32 87 125 328 135 392zm-796-786c-3-36-13-105-12-135 3-56 125-207 158-241 59-63 202-231 266-268l51 346c-167-47-245-22-352 67 11 77 102 151 161 183 99 55 155 52 237-2l67 227c-120-6-254 29-348-25-73-43-147-124-228-152zm-413-587c37-25 74-79 99-138 31-77 27-118 50-164 1-2 4-4 5-8 1-5 3-6 1-8l70 843c-11-9-7-5-17-17l-62-97c-71-128-146-250-146-411zm-260 17c21-71 111-256 175-280l-10 213c-49 30-98 58-165 67zm-2175-851l3 3c0 0-4-2-3-3zm1958-314c41 16 68 25 122 25-18 41-79 136-116 168l-6-193zm595 559c0 23-54 147-66 206-14 67-16 163-51 213-13-90 49-470-227-60-219 327-82 256-304 309-150 36-368 78-493-25 24-73 91-130 116-185 25 7 20 8 37 35l2-74c137-43 296-70 442-21l33-71c-94-76-235-34-346-53 32-30 79-84 97-126 52 8 78 40 140 28 93-18 244-151 264-258-105-56-124-38-245-31 45-112 110-206 170-294 26-39 67-138 83-157 34-43 74-34 119-110-26-38-43-47-81-81l13-256c40-16 62-5 108-36 44-31 44-50 78-71 22 392 110 718 111 1118zm-432-1409h77c0 65-10 86-10 153 0 52 3 113 0 164l-19 306c-64-33-154-27-220 10 0-60-9-92-9-163 165-41 214-396 181-470zm-2427 6401l20 112c137-34 305-307 305-459 0-148-5-78-28-184-232 0-297 322-297 531zm1290 2807c32 144 50 200 166 262 103 56 225 73 331 14-11-136-210-345-346-355-78-6-109 49-151 79zm2847-6472c0 367 192 148 229 50 41-111 76-353 20-479-106 27-249 285-249 429zm602 6370v61c0 126 151 276 268 276h76c0-125-4-206-63-320-96-183-230-152-265-102-15 21-16 59-16 85zm-4051 265c68 136 317 179 409 80 137-147-7-274-113-274-130 0-251 103-296 194zm1405-81c0 61-6 103 106 62 120-43 263-212 201-391-19-56-57-49-107-49-118 0-200 239-200 378zm1968-51v51c0 35 78 71 115 71 127 0 267-207 277-337-170-96-392 45-392 215zm1834-4563c0 109-6 166 39 265 99-25 200-219 200-388 0-42-38-153-67-153-113 0-172 149-172 276zm-5178-1185c0 158 10 90 29 174 200 0 229-278 229-449 0-51-9-46-10-92-120 11-248 274-248 367zm1553-2448c37-32 98-127 116-168-54 0-81-9-122-25l6 193z" stroke-width="7.62"/></g><g font-family="&apos;Arial Black&apos;" font-weight="900" font-size="354.37"><text x="10500" y="14850" transform="matrix(1.12844 0 0 1.20566-3737.94-14017.1)">NN 1</text><text x="10500" y="14850" transform="matrix(1.12844 0 0 1.20566-3734.28-13593.1)">NN 2</text></g><g stroke="#201e1e" stroke-width="50"><g font-family="&apos;Menuet script&apos;" font-size="1070.52"><text x="7746" y="14850" transform="matrix(1.56338 0 0 1.20566-10394.1 4378.87)">Texto 01 </text><text x="10500" y="14850" transform="matrix(1.56338 0 0 1.20566-14548.7 6824.53)">Texto 02</text></g><text x="8802" y="14850" font-family="&apos;Batang&apos;" font-size="635" transform="matrix(1.10072 0 0 1.20566-7013.92 8451.04)">00.00.0000</text></g></g></g><path d="m6582 26812c-1334 682-3868 550-4637-712-767-1258-594-4827-666-6577-183-4382-643-7705-762-11239-133-3924 2406-6519 5441-7249 4282-1031 4029 5008 3434 8112-312 1667-929 3119-1322 4749-725 3007-68 7597-320 10727-130 1081-472 1799-1168 2189z" fill="none" stroke="#fefefe" stroke-width="7.62"/><path d="m14334 26812c1333 682 3868 550 4637-712 767-1258 593-4827 666-6577 182-4382 643-7705 762-11239 132-3924-2407-6519-5442-7249-4282-1031-4028 5008-3434 8112 313 1667 929 3119 1322 4749 726 3007 69 7597 321 10727 129 1081 471 1799 1168 2189" fill="#fefefe"/><g clip-path="url(#1)"><g fill="#201e1e"><g stroke="#201e1e"><g stroke-width="50"><path d="m16247 23029c-12-22-20-47-27-74-6-22-8-40-8-55 0-21 8-39 26-54 19-16 44-24 74-24 24 0 46 8 66 24 18 16 28 35 28 55 0 25-11 47-31 66-26 24-68 45-128 62zm157 295c-18 11-38 20-61 25-22 6-46 9-72 9-57 0-105-16-145-46-38-31-57-69-57-112 0-27 11-52 32-75 24-25 59-44 103-56 26 47 57 93 92 138 37 48 73 87 108 117zm59-257c34 0 57 5 69 13 12 9 16 24 12 44-6 31-17 59-32 87-16 31-38 59-65 82-32-31-65-68-97-109-34-43-64-89-92-136 77-23 131-47 161-73 23-20 34-44 34-71 0-29-13-54-39-74-27-21-61-31-101-31-51 0-91 11-121 33-29 22-43 51-43 86 0 17 3 35 11 56 6 19 17 43 33 74-68 23-118 49-148 79-30 29-44 64-44 106 0 38 22 74 66 107 46 36 102 54 168 54 34 0 68-5 104-15 32-10 61-22 86-37 22 15 46 27 71 36 25 8 47 12 67 12 33 0 63-7 90-22 22-13 43-30 63-52l-12-13c-18 18-39 30-62 38-20 6-46 9-79 9-16 0-33-4-51-12-15-6-30-15-46-27 28-22 53-52 75-88 20-32 35-66 47-102 6-19 16-32 30-41 15-8 37-13 66-13v-19h-221v19z"/><g font-family="&apos;Menuet script&apos;" font-size="1070.52"><text x="7746" y="14850" transform="matrix(1.56338 0 0 1.20566 1424.43 4275.77)">Texto 01</text><text x="10500" y="14850" transform="matrix(1.56338 0 0 1.20566-2869.49 6725.68)">Texto 02</text></g><text x="8802" y="14850" font-family="&apos;Batang&apos;" font-size="635" transform="matrix(1.10072 0 0 1.20566 4608.35 8451.04)">00.00.0000</text></g><path d="m19413 13185c-14 31-9 37-9 81-55-4-128-34-173-49-31-11-56-16-89-28-35-13-50-24-92-25-14 68-270 356-267 388 16 32 30 53 48 82-24-7-125-74-125-102 0-53 109-197 148-251l91-157c-106-10-248-112-328-181-32-28-64-65-92-85 0 158-35 278-102 402-20 37-40 77-80 88-96-75-82-414-50-543 17-68 49-102 79-151-33-53-154-219-191-245 0 74-4 163-1 235 3 53 16 48 35 86 43 90 35 406-63 434-10-40-149-236-77-429 7-20 12-25 15-35 14-46-5-102-5-158 0-420 25-129-143-541-26-63-82-164-134-205-39 10-93 50-124 72-64 44-53 45-83 125-113 306-225 565-415 823-183 248-134 152-324 491-47 83-92 182-147 262-40 57-119 82-198 216-31 51-78 239-100 312-66 215-61 538-61 772 1 75-10 120-9 204 0 179 12 803-5 935l15 504c4 55 15 126 24 189 7 54 32 159-25 159h-535c-110 0-32-144-4-250 48-179 75-559 80-751 2-52 10-63 10-122v-286c0-63 9-79 10-132 2-88-6-191 0-276 20-253-2-536 53-790 93-432 89-424 317-784 158-250 134-681 73-962-12-54-23-83-33-138-17-87-35-196-55-279-23-99-55-170-70-272-16-105-27-178-59-273-40-116-217-282-309-364-44-39-135-136-185-150-21 266-372 346-372 255 0-87 37-173 69-232 72-130 105-114 141-166-64-18-460-347-509-396-45-45-68-29-131-12-312 81-230 98-230 296 88 7 136 96 164 172 85 226 49 271 47 410-118-3-253-216-278-327-1 2-2 3-2 7l-12 39c-70 308-27 302 77 581l90 179c-11 25-16 47-28 72l-118-111c-26-39 12-55-51-189-12-24-17-36-29-61l-19-40c-12-19-4-7-13-18l-63 239c-11 46-17 76-28 123-11 47-30 85-33 128 63 0 89 10 126 39 19 16 65 66 82 87 56 70 78 152 98 242-150 76-321-12-388-157-1-3-5-12-7-14 0-2-2-5-3-6-1-2-2-5-3-7-30 119-298 385-373 439 60 96 124 134 124 357l-19 184c-133-75-229-260-229-429-41 29-91 98-96 153-10 129 16 127-37 226-62 114-200 203-345 203v-71c0-151 162-503 325-419l38-82c-118-10-179-80-239-153 25-40 40-59 83-85 86-51 278-62 290 85 185-132 306-278 411-490-65 0-129 8-182 21-12-25-17-47-28-72h47c-12-57-38-69-38-153 0-95 34-228 86-265 33 9 24 6 43 36 13 20 21 35 30 60 32 84 42 191 23 281 88-7 82-29 104-103 12-42 38-137 39-182-134-76-162-209-162-378 0-74 14-136 38-184 109 10 158 144 207 228 12 19 4 7 12 17 3-33 13-61 20-91 46-203 29-204 103-452 17-58 11-139 11-212l-157 98c-92 60-399 253-460 304-50 42-160 139-187 198-14 31-56 551-56 615-37 3-25 9-67 10l10-399c0-58 9-77 10-122-30 21-51 43-80 68l-163 132c-23 18-23 19-42 37-19 18-24 19-43 36l-158 147c-27 22-60 42-88 59-36 22-61 48-105 52-31 402-174 458 76 828 25 38 29 58 29 121-43-12-155-175-188-227-11-17-1-4-12-18-2 88-27 236-46 319-8 36-18 64-21 100 123 0 229 198 229 316v72h-57c-98 0-220-108-239-194-40 31 2 26-48 41-3-43-19-55-19-92 0-9 33-96 38-123-28 7-44 18-67 31l-20-71c96-67 104-51 133-176 11-46 105-767 107-856-35 3-89 24-130 35-50 14-90 20-144 30-249 44-238-2-299-3 40-64 22-48-32-221-75-238-113-272 13-473 110 78 172 298 172 479 0 84-26 96-38 153 46-24 302-54 531-177 29-15 49-24 77-40 31-18 45-38 79-48v-20c-68-18-134-81-216-106-52-16-67-22-113-42-131-57-162 70-282-189-36-78-57-159-57-276 97-24 182 46 236 105 85 90 98 110 98 283 113 58 232 41 430 153 49-35 83-74 131-115 39-34 108-79 137-120-47-73-81-127-86-245-6-110-12-206 28-296 103 26 201 270 201 419 40-29 161-165 222-222l141-125c-34-54-115-127-167-169-77-65-137-147-212-213-38-34-92-164-319-292-27 44-73 91-113 124-24 20-30 13-39 50 159 45 178 413 105 561-37-21-69-36-99-68-65-71-159-241-139-348 5-23 1-11 8-23-14-21-23 10-43 25-47 35-81 53-138 67 0-105 88-92 166-200 30-41 167-179 172-205 7-38-47-22-90-24-43-2-59-10-114-10-109 0-321 8-411 31 61 98 114 193 114 357-118 33-245-73-293-177-19-41-22-80-22-140-65 17-92 82-162 82-127 0-301-146-325-255 58-33 107-61 181-61 127 0 213 53 268 163 54-5 146-37 200-51l211-41c-28-126-58-93-58-306 0-77 15-152 39-204 122 30 214 341 181 490 61 0 121 0 182-1 72 0 112 16 172 21-46-101-28-257-6-363 18-88 31-104 63-168 125 71 162 319 162 460 0 74-23 115-47 163 44 13 113 94 152 123 5-58 28-148 29-206 1-47-12-49-36-73-81-82-85-254-67-372 5-28 19-61 27-95 55 16 94 74 121 126 117 229 35 299 31 405l-9 306c0 44 219 255 257 288 56 48 104 119 163 162 23-13 54-35 77-41v-21c-121-34-112-334-92-445 10-56 25-62 35-106 116 33 267 332 210 459 29-8 101-63 132-83 190-128 282-142 441-223-11-16-63-62-84-84-109-116-197-252-293-381-72-99-155-189-237-278l-168-167c-63-54-119-108-176-169-14-16-23-27-38-41-71-62-271-293-294-309-77 123-149 143-296 143-40 0-68-8-96-20-37-17-47-31-76-51 35-71 68-121 128-170 26-21 58-44 89-58l108-38c-41-82-199-159-279-212l-275-217c-14 10-98 90-105 102 34 51 59 48 91 137 36 98 53 285 4 384-122-11-238-231-239-357l2-59c4-22 1-11 8-23l-8-12c0 0-90 43-174 43-10 49-44 89-83 114-67 45-159 49-242 49-65 0-109-37-152-61 25-116 219-276 353-276 170 0 78 198 339 15 49-35 114-75 129-137-142-102-264-237-403-345l-132-125c0 162-39 392-162 480-27-43-60-103-75-155-35-124-55-323 0-446 21-47 42-56 65-93-52-105-105-203-147-312-15-38-29-87-53-107-19 88-170 215-268 215h-67c0-129 21-229 70-334 34-73 84-154 179-156-4-54-28-82-29-143-44 12-78 61-134 61-136 0-309-148-334-265 89-64 138-72 248-72 52 0 106 16 144 51l11-8c0-4-5-10-5-9l-10-20c-4-10-9-28-12-38l-80-190c-123 69-207-6-279-101-45-60-96-139-103-236 36-9 45-23 98-25 96-5 201 48 263 119 54 62 41 126 70 190 30 65 69 111 85 185 37-10 53-61 90-87 125-93 407-20 407 57 0 132-287 319-411 255 54 248 300 931 468 1051-46-212-10-491-10-704 88-45 67 7 67 102 46-32 77-51 144-51 70 0 437 113 83 293-80 41-161 30-227-17 0 126 17 525 144 561 0-161 202-326 353-326 48 0 93-15 84 56-11 77-43 151-78 215-36 65-109 191-187 198 12 50 171 166 216 207l77 71c62 61 252 224 328 243-174-350-268-937-366-1346-23-97-164-576-233-617-15-10-51-10-76-21-72-32-112-99-144-173-40-93-80-237-80-365 0-35 8-39 10-71 156 0 354 287 354 429 0 79-22 149 9 173 2-105 88-251 170-308 23-16 18-16 50-19 73 148 55 509-115 552 8 36 28 79 42 118 18 45 30 86 43 128 35 113 199 693 202 805 51-36 84-82 172-82 52 0 99 18 137 37 86 45 121 88 52 166-60 67-204 161-294 94l6 44c76 213 126 423 263 607l90 139c74 102 242 301 329 363 0-77-10-128-10-214 0-75 0-150 0-225 0-161-14-278-29-418l-41-406c-5-46-17-409-24-423-13-27-83-80-109-108l-311-342c-310-356-242-516-241-916 0-75 18-157 19-225-146 37-249-85-305-214-19-43-29-68-29-133 129-11 189-21 302 76 31 26 26 37 51 57 0-101-114-95-114-337 0-80 11-152 30-213 24-82 34-100 75-165 129 93 220 462 116 604-18 26-40 34-47 62-5 21-2 94-2 120 14-3 67-20 76-20 147 0 304 197 335 337-98 24-133 45-242 3-90-35-124-69-179-136 0 52-9 56-9 112 0 207-28 443 54 637 9 21 11 23 22 37 8-100 97-370 134-470 16-44 48-102 57-142 28 19 13 20 48 30-25 51-40 143-67 184l8 12c29 0 53-73 218 33 55 35 75 65 108 118-50 103-162 123-267 123-48 0-85-40-115-61-7 16-58 256-56 275 5 51 417 475 467 511 0-68 10-89 10-154-184 0-274-399-211-541 73 7 106 37 152 73 41 33 74 81 106 121 0-95 65-696 84-799 9-48 16-77 27-124 12-48 23-75 33-118-21-34-48-48-67-82-69-118-77-248-77-398-134 97-221 45-332-74-44-47-117-133-117-222 75-6 138-63 325 52 125 76 83 130 134 193 0-96 17-152 48-214 46 26 54 39 85 83 67 96 135 247 135 376h19c18-72 207-245 260-303 26-29 75-79 84-115-84-47-118-109-153-204-15-40-33-90-43-139-15-79-10-89-5-157 131 3 295 223 306 357 39-49 84-129 86-194-172-43-157-400-77-561 65 36 98 77 134 143 50 91 99 262 42 371l-49 91c-27 75-56 135-89 201 133 75 151 330 86 459-63-5-95-58-124-102-25-37-65-112-67-173-49 38-100 139-145 191-22 25-38 36-55 64 128 0 329 101 363 235-120 85-164 92-316 92-141 0-147-115-210-133-32 129-93 97-164 539-16 101-17 212-32 323l-63 657c-11 99-32 228-37 329-6 130-2 202 0 337 1 111 29 226 29 336 201 0 296 298 296 480-35 0-69-2-99-17-59-31-109-90-159-126 0 51 9 56 10 112 0 50-2 80 5 127 12 83 4 176 4 261 37-10 50-30 105-30 83 0 157 58 191 112-67 82-178 163-286 102 0 143 39 138 117 222 32 35 143 156 179 166 0-166 212-313 363-276 0 164-121 390-239 419l318 415c55 70 121 125 181 185 101 100 220 192 331 279 43 34 92 86 145 101 43-89 99-199 136-293 99-248 173-388 216-668 10-68 20-123 31-191 9-54 23-140 27-196-28 23-10 17-36 43-80 77-228 87-328 51-38-14-53-34-85-43 4-45 19-62 40-90 62-88 147-129 237-175-24-38-301-289-353-327 31 141 15 332-38 439-138-98-201-310-201-490 0-61 27-93 38-143-33-23-70-66-105-92-9 113-40 190-79 273-36 76-86 166-169 187-36-164-29-380 55-523 22-38 40-48 59-79l-122-125c-2 89-52 164-95 209-53 57-134 110-222 110 0-37-5-46-4-69 0-13 5-65 8-80 7-43 26-104 41-140 28-72 84-174 165-181 0-1-121-271-160-421-38-145-84-322-99-487-27-303-11-629-116-917-7-18-10-32-21-49-34-58-48-40-15-106 124 11 182 423 182 510 34-27 141-235 372-235 41 0 27 36 22 62-31 153-165 428-327 428h-29c0 288 68 539 136 805 37 144 99 275 174 396 34 55 112 172 168 188 0-125-2-241 12-355 11-92 26-236 26-340l-48-9c-66-16-105-66-139-127-46-82-81-210-81-323 149 0 155 65 249 133l-19-225c11 14 13 15 21 39 5 15 7 27 7 53l58-91c2-2 4-4 5-5 2-2 4-4 5-5 53-54 125-103 209-103 33 0 37 7 67 10-2 122-109 378-239 378h-47l21 173c82-61 109-71 218-71 59 0 85 29 124 51-19 85-67 148-123 196-108 92-124 63-221 39l-10 561c0 163 54 181 150 269 39 34 70 67 108 99 22 18 36 32 58 51 83 69 480 429 515 439 8-34 17-107 20-143-58-41-205-279-235-362-51-136-58-267-107-397-15-42-7-4-2-58 60 1 50 30 69 79 1 3 5 11 6 14 1 2 3 5 4 6l7 13c15-69 69-147 133-163 15 65 29 119 29 194 0 96-24 204-95 224 46 103 64 140 129 229 23 32 32 46 62 68 0-96 1-192 0-287-2-172-34-474-57-653-6-46-17-91-20-132-79 56-98 81-210 81-115 0-160-35-239-92 54-109 163-177 278-203 68-16 72-6 133 10-11-140-103-416-162-541-30-63-50-116-20-184 44 34 127 265 153 337 104 279 230 954 230 1255 58-16 116-79 162-112-64-101-105-110-105-306 0-212 13-147 48-307 122 31 191 344 191 450 0 38-7 19-10 61 22-6 22-8 48-10 7 30 10 31 10 71-70 2-108 68-151 115-49 53-90 77-143 123-32 27-41 31-42 88-2 132 15 288-1 416-8 60-27 199 18 241 16 15 19 14 33 26l176 159c18 15 20 19 36 33 57 52 108 123 169 167 0-202 173-1442 205-1690 22-168 37-165-86-264-103-83-208-170-333-216-50-18-118 0-149-35 9-27 52-51 86-51 145 0 370 178 506 255 0-62-2-120 6-178 23-153-245-440-357-559-56-60-108-144-174-192 0 87-52 390-153 419-12-46-43-104-55-156-24-108-32-255 1-362 16-52 39-77 64-115-7-9-14-17-22-28-163-220-291-231-523-350 8 98 73 314-10 480-155-88-254-415-172-582-58-42-76-34-76-133 31 9 23 12 48 31 229 175 527 179 738 395 33 34 47 69 83 95 89-179 413-150 507 0-45 72-73 98-144 143-58 36-127 61-219 61 25 51 184 223 231 273 22 23 37 38 58 61 43 48 132 188 169 217 0-428-70-792-175-1180-31-116-76-235-102-351-9 11 0-3-12 18-6 11-4 8-10 20-15 28-7 18-28 42-83 95-185 145-313 145-77 0 52-223 71-251 52-77 107-158 225-158-2-35-36-117-49-151-18-49-37-105-56-155-32-86-96-222-114-306l-23 57c-52 139-264 368-264 249 0-124 11-250 54-360 28-69 66-143 137-160-5-60-27-74-38-123-52 64-94 118-193 131-93 13-203 10-247-59 25-112 251-303 363-245-39-183-159-122-199-369-28-170-26-371 37-499 102 29 229 345 229 500 0 75-4 129-32 191-15 32-11 49 7 81 10 20 7 13 16 24 0-110 29-180 93-258 50-59 110-132 203-140 0 181-48 500-258 500 12 53 41 109 64 157l130 310c13 32 19 48 32 78 17 40 12 55 42 78 11-145 246-361 382-327 0 142-44 236-93 330-42 81-111 191-223 191 17 36 33 87 47 124 17 46 33 87 49 131 61 163 236 683 239 837 45-33 103-107 139-157 71-98 154-182 236-269 67-72 133-132 210-194 74-58 142-132 217-186-14-24-31-37-46-63-12-22-24-55-30-80-39-152 8-82-124-82 0-182 112-498 286-541-21-33-45-46-74-74-78-74-168-150-260-202l40-49c118 65 234 167 352 233 0-65 23-244 76-286 0 48 6 43 9 83 13 169-6 206 28 460 8 61 20 110 20 172l24-36c11-19 11-19 21-39 106-211 190-420 242-660-56-32-86-67-109-139-51-160-39-267-6-422 63 35 97 79 131 146 13 24 18 48 41 58 0-118 10-198 10-317-172-49-183-411-161-600 7-59 27-88 37-135 141 41 289 470 216 660-27 69-25 40-25 137 37-27 51-52 102-75 104-48 159-43 261-17-2 109-174 316-277 316-36 0-67-4-96-20 0 66 2 123-12 191-5 28 1 10-7 23 12 18 9 7 22-7 2-1 4-3 5-5 82-79 346-112 346-39 0 104-194 306-325 306-103 0-65-74-99 78-13 55-41 129-44 177 155 45 191 338 191 490 0 36-7 40-10 72-102-9-250-222-258-327h-19c-33 153-195 365-267 511 139 0 248 158 311 269 31 54 30 101 52 149-35 9-45 21-86 21-180 0-358-132-392-286l-127 120c-122 125-290 219-395 364-36 50-74 90-109 138-19 27-35 45-56 73l-113 144c-23 26-41 42-36 84 8 76 33 155 33 230 50-39 135-163 297-163 32 0 37 7 66 10-12 157-165 398-324 398 0 94 10 147 9 235 0 85 0 170 0 255 31 22 61 40 89 69 29 31 50 61 83 84 0-115-12-259 10-357 133 0 36 5 149-65 65-39 153-67 233-47 0 123-130 330-239 357v20c80 8 157 120 193 182 99 167 27 213 27 298 0 132-7 604 11 702 13 66 115 260 158 311 108 129 223 244 321 383 35 50 56 102 102 135 5-58 18-122 29-173 64 6 12 25 76 31-22 103 10 227 10 336 18-13 19-18 36-32 70-55 151-60 241-60 56 0 90 27 124 52-47 95-107 165-197 217-78 46-96 34-166 28l67 326c9 38 20 65 28 102 45-35 200-407 219-461 16-45 27-80 43-127 23-68 26-56 25-147-1-119 0-238 0-357-80 57-217 96-315 41 8-108 200-319 325-255v-225c-80 57-200 51-287 10-56-26-55-42-96-71 74-117 190-174 325-174 35 0 34 12 67 21 0-36-2-78 0-113 2-39 16-62 9-101-6-39-65-93-85-133-123 0-164-49-226-147-50-81-99-220-99-333 183 0 343 192 361 319 6 42-6 69 10 101 5 10 41 53 49 60 0-140 50-278 21-431-15-81-70-53-130-147-52-80-82-236-82-351 0-119 270 146 274 328 0 41-17 72-8 112 18 79 30 160 30 254 0 57-9 60-9 112 55-68 109-224 267-224 18 81-22 191-54 258-32 69-79 160-165 160-25 0-10-7-48-10-21 94-29 806-29 939 0 74 10 102 10 174 44-55 87-166 203-304 96-116 189-235 271-364 26-40 21-35 11-95l-86-439c-25-129-78-146 40-146l134 490 66-297c35-224 28-410 10-632-103 0-140-40-191-122-41-67-86-183-86-276 63 0 118 19 163 51l95 82c-3-43-3-27-25-55-115-147-60-487 30-635 17-29 15-8 24-45 121 34 143 443 120 557-18 91-46 100-82 157 12 53 19 159 19 225 49-35 68-69 128-99 72-36 188-57 271-31 29 8 37 20 69 28-33 155-272 412-439 326 0 198 8 529-56 717-8 25-7 22-20 39 21 33 6-60 189-94 93-17 159 8 221 53-33 68-57 107-113 155-70 59-194 128-283 64-27-19-35-23-43-56h-19c-13 64 45 37 85 155 43 127 39 341-18 458-27-19-48-42-70-69-55-67-112-225-112-319l-239 306c48 25 380 92 421 92 81 0 105-24 172 10 40 20 82 68 112 105 68 87 117 192 117 314h-57c-142 0-335-170-335-347-187 0-342-62-525-62-9 34-55 100-75 135-29 51-41 87-65 144-13 30-14 46-26 75-1 2-2 5-3 7l-10 20c-1 2-2 5-3 7l-76 205c-40 105-81 192-128 292l-105 215c-111 220-213 424-282 678-52 190-105 500-183 672 185-46 362-148 551-26 38 25 97 76 137 88 10-40 58-60 86-82 70-52 175-209 214-293 72-154 120-337 187-493 35-80 96-124 178-158 153-64 147 26 84-162-16-48-29-80-43-128-18-61-12-77-21-152-9-76-1-65 37-119 26-36 38-74 71-98 0 111 34 60-27 155-53 83 12 233 49 312 20 41 55 104 64 146 92 0 180-22 258-61-59-95-67-174-67-296 0-37 3-58 9-84 8-39 13-36 20-70 109 28 172 252 172 368 125-11 149-16 258 61 89 63 200 154 35 211-93 33-263 38-322-48l11 70c32 162-22 377-87 482-76-55-134-285-134-429 0-60 25-103 29-153l-308 69c-53 11-102 18-135 50-31 30-53 87-64 136 55 0 66 10 125 10h152c35 0 34-12 67-20 6 24 10 51 19 71l-158 46c-60 10-131 5-195 5 37 60 75 123 94 196 18 74 35 181 23 257-10 60-22 52-64 22-79-57-132-143-174-234-1-2-5-11-6-13l-7-13c-16 72-93 225-132 277-16 21-30 31-47 52-21 27-23 35-48 61-31 34-75 79-79 130 63 16 123 44 190 63 17 5 26 5 48 10l145 50c123 36 277 88 410 92 59-94 263-213 297-347 34 8 68 24 86 51-38 10-47 37-69 69-38 56-69 114-115 163-20 21-63 57-74 74 107 27 236 2 338-16 46-8 78-13 124-20 48-8 90-22 130-25-16-24-26-25-48-41-85-63-136-186-168-290-22-69-32-146-32-221 178 0 349 199 384 376 14 70 41 57 19 157-30 131-430 194-528 202 90 144 128 261 181 430 24 80 45 155 77 224 20 41 34 62 79 69 75 12 112-5 112 74 0 44-43 30-86 30 24 109 84 34 60 228l-40 497c-26-20-23-37-36-74-57-159-90-341-12-498-14-22-32-41-48-61-11 144-213 265-363 265-45 0-69-11-105-20 0-97 82-206 131-258 74-77 108-140 251-140-79-159-124-346-187-515-14-36-23-69-39-101-23-46-61-81-89-120-18-25-9-26-48-30 33 154 50 179-23 364-31 78-60 134-120 177-55-109-67-315-31-440 13-45 41-74 50-111-248 0-390-91-516-102 16 35 20 74 34 116l90 221c25 46 30 57 86 71-12 26-21 61-30 91-10 33-12 64-37 83v-112c-109-62-138-222-191-337-11-23-15-37-26-65-6-16-6-16-12-27-1-2-2-5-3-7l-16-24c8 106 12 145-10 255-12 58-45 105-57 154-86-62-124-249-124-368 0-62 17-93 28-143-113-10-367-205-525-184l-95 13c84 165 83 250 124 334 35 72 93 135 141 197l242 333c54 79 51 66 153 54 519-60 314 67 314 315l-10-215c-98-24-200 11-296 11 19 77 181 157 252 190 36 18 65 28 106 40l425 168zm-2120-3604c-66-42-388-82-507-138-12 18-45 155-61 196-24 62-49 115-77 172-58 119-118 222-179 332l71 38c58 35 93 107 122 176 40 100 78 217 66 347-139-5-250-157-316-274-12-19-8-13-18-26-29 257-134 852-67 1096 29 104 40 222 72 322 67 213 84 447 146 661 30 106 59 208 83 319 61 292-4 442 94 295 167-251 207-283 390-513 254-322 481-1026 608-1454 65-217 106-382 190-593 42-105 94-154 69-181-22 33-54 62-90 77-44 18-97 21-148 16-96-8-177-45-221-102 20-68 102-129 166-162 98-51 152-58 258-23-3-85-33-324-57-394-76 119-170 245-328 234 3-111 36-192 82-273 81-146 117-123 173-165l-25-33c-64 21-93 48-182 60-81 10-140 5-220 0-5 226-143 310-197 491l-66-21c18-153 181-296 169-480zm-1810 1156c44 19 122 80 166 110 75 50 413 284 455 332l149-1059c-77 30-135 92-228 117-104 28-220-9-328 8-62 9-57 41-79 99-32 88-125 329-135 393zm796-787c3-35 13-104 12-134-3-56-125-207-158-241-59-63-202-231-266-268l-51 346c167-47 245-22 352 67-11 77-102 151-161 183-99 54-155 52-237-3l-67 228c120-6 254 29 348-25 73-43 147-124 228-153zm413-586c-37-25-74-79-99-138-31-77-27-118-50-165-1-2-4-3-5-7-1-5-3-6-1-8l-70 843c11-9 7-5 17-17l62-97c71-128 146-250 146-411zm260 17c-21-71-111-256-175-280l10 213c49 30 98 58 165 67zm2175-851l-3 3c0 0 4-2 3-3zm-1958-314c-41 16-68 25-122 25 18 41 79 136 116 168l6-193zm-595 559c0 23 54 147 66 206 14 67 16 163 51 213 13-90-49-470 227-60 219 327 82 255 304 309 150 36 368 78 493-25-24-73-91-130-116-186-25 8-20 9-37 35l-2-73c-137-43-296-70-442-21l-33-71c94-76 235-34 346-54-32-29-79-83-97-125-52 8-78 40-140 28-93-18-244-151-264-258 105-56 124-38 245-32-45-111-110-205-170-293-26-39-67-138-83-157-34-43-74-34-119-110 26-38 43-47 81-82l-13-255c-40-17-62-5-108-36-44-31-44-50-78-71-22 392-110 718-111 1118zm432-1409h-77c0 65 10 85 10 153 0 52-3 113 0 164l19 306c64-33 154-27 220 10 0-60 9-93 9-163-165-41-214-397-181-470zm2427 6401l-20 112c-137-34-305-307-305-459 0-148 5-78 28-184 232 0 297 322 297 531zm-1290 2807c-32 144-50 200-166 262-103 56-225 73-331 13 11-135 210-344 346-354 78-6 109 49 151 79zm-2847-6472c0 366-192 148-229 50-41-112-76-353-20-479 106 27 249 285 249 429zm-602 6370v61c0 126-151 276-268 276h-76c0-126 4-207 63-320 96-183 230-152 265-103 15 22 16 60 16 86zm4051 265c-68 136-317 179-409 80-137-147 7-274 113-274 130 0 251 103 296 194zm-1405-82c0 62 6 104-106 63-120-43-263-212-201-391 19-56 57-49 107-49 118 0 200 239 200 377zm-1968-51v51c0 36-78 72-115 72-127 0-267-208-277-337 170-96 392 45 392 214zm-1834-4563c0 110 6 167-39 266-99-25-200-219-200-388 0-42 38-153 67-153 113 0 172 148 172 275zm5178-1184c0 158-10 90-29 174-200 0-229-278-229-449 0-52 9-46 10-92 120 11 248 273 248 367zm-1553-2448c-37-32-98-127-116-168 54 0 81-9 122-25l-6 193z" stroke-width="7.62"/></g><g font-family="&apos;Arial Black&apos;" font-weight="900" font-size="354.37"><text x="10500" y="14850" transform="matrix(1.12844 0 0 1.20566-114.04-14017.1)">NN 1</text><text x="10500" y="14850" transform="matrix(1.12844 0 0 1.20566-110.37-13593.1)">NN 2</text></g></g></g><path d="m14334 26812c1333 682 3868 550 4637-712 767-1258 593-4827 666-6577 182-4382 643-7705 762-11239 132-3924-2407-6519-5442-7249-4282-1031-4028 5008-3434 8112 313 1667 929 3119 1322 4749 726 3007 69 7597 321 10727 129 1081 471 1799 1168 2189z" fill="none" stroke="#fefefe" stroke-width="7.62"/><g fill="#201e1e" font-family="&apos;Arial&apos;" font-weight="normal" font-size="423.33"><text x="576" y="28304">DESC 1</text><text x="573" y="28736">DESC 2</text><text x="574" y="29196">DESC 3</text></g></svg>