<svg xmlns="http://www.w3.org/2000/svg" width="744.09" height="1052.36" viewBox="0 0 21000 29700" shape-rendering="geometricPrecision" image-rendering="optimizeQuality" fill-rule="evenodd" clip-rule="evenodd"><defs><clipPath id="0"><path d="m14722 20732c956 466 2772 376 3323-486 549-860 425-3298 477-4494 131-2994 461-5264 546-7679 95-2681-1724-4454-3899-4953-3068-704-2887 3422-2460 5543 224 1139 665 2131 947 3245 520 2054 49 5191 230 7329 93 739 338 1229 837 1496z"/></clipPath><clipPath id="1"><path d="m6255 20726c-956 466-2772 376-3323-486-549-859-425-3297-477-4492-131-2993-461-5263-546-7676-95-2680 1724-4452 3899-4951 3068-704 2887 3421 2460 5541-224 1139-665 2130-947 3244-520 2054-49 5189-230 7326-93 739-338 1229-837 1495z"/></clipPath></defs><text x="10117" y="22243" fill="#201e1e" font-family="&apos;Arial Black&apos;" stroke="#201e1e" font-weight="900" stroke-width="7.62" font-size="705.56">30</text><g fill="none" stroke-width="80"><g stroke="#322f30"><circle cx="10533" cy="1326" r="460"/><path d="m10533 515v1621"/><path d="m9723 1326h1621"/></g><g stroke="#373435"><circle cx="10569" cy="23614" r="460"/><path d="m10569 22803v1621"/><path d="m9758 23614h1621"/></g></g><rect x="9843" y="20496" width="1347" height="637" rx="318" fill="#fff" stroke="#fff" stroke-width="20"/><g fill="#373435" font-family="&apos;Arial&apos;" font-size="423.33"><text x="1877" y="25053">DESC 1</text><text x="1870" y="25523">DESC 2</text><text x="1874" y="25983">DESC 3</text></g><path d="m14722 20732c956 466 2772 376 3323-486 549-860 425-3298 477-4494 131-2994 461-5264 546-7679 95-2681-1724-4454-3899-4953-3068-704-2887 3422-2460 5543 224 1139 665 2131 947 3245 520 2054 49 5191 230 7329 93 739 338 1229 837 1496z" fill="#fff"/><g clip-path="url(#0)"><g><g fill="#201e1e"><path d="m18831 2461h-98v20182h98z"/><path d="m18601 2461h-391v20182h391z"/><path d="m17685 2461h-98v20182h98z"/><path d="m17455 2461h-391v20182h391z"/><path d="m16539 2461h-98v20182h98z"/><path d="m16309 2461h-392v20182h392z"/><path d="m15393 2461h-98v20182h98z"/><path d="m15163 2461h-392v20182h392z"/><path d="m14247 2461h-98v20182h98z"/><path d="m14017 2461h-392v20182h392z"/><path d="m13101 2461h-98v20182h98z"/><path d="m12871 2461h-392v20182h392z"/></g><g fill="#fff" stroke="#fff" stroke-width="7.62"><path d="m16826 3153h-39c-108 5-215 54-299 161-86 111-110 220-110 369-21-2-24-7-48-7-238 0-388 99-526 260-32 37-47 77-49 113v20c5 84 75 151 151 151 56 0 85-14 137-14-46 89-35 145-14 237-68 0-130 16-172 68-85 105-76 267 17 362 82 84 93 55 170 92 0 132 67 272 192 272 68 0 109-41 151-70 61 92 257 146 370 146 128 0 117-67 164-35-18 28-44 46-64 81-78 136-15 314 119 386-4 54-14 56-14 139 0 92 54 188 151 188 42 0 92-6 123-21 27 52 61 100 105 137 21 17 24 14 39 37-12 16-43 30-63 47-58 49-112 107-147 178-53 109-73 242-54 365 14 92 47 167 94 239 85 127 197 176 355 176 0 1-105 161-140 262-33 95-59 220-59 344 0 50 7 73 7 126-40 27-82 66-82 133 0 65 0 138 33 190 11 17 18 22 25 45 6 19 7 37 12 57 46 173 172 301 325 380 35 18 67 24 98 39-25 53-8 129-37 172-18 27-73 102-80 128-16-8-157-49-178-49-54 0-97 9-135 50-30 32-43 81-43 131 0 86 123 169 123 209 0 37-110 118-110 244-68 16-130 77-130 160 0 61 37 100 48 146-44 66-153 123-96 244-18 28-41 49-41 98 0 38 5 75 21 105-41 22-68 68-68 119 0 94 20 91 62 153-16 71-12 94-16 110-7 28-32 42-32 93 0 81 27 142 105 172 80 30 43 38 102 70 61 33 21 44 26 106l25 226c34 181 117 313 261 411 74 50 144 76 208 82h69c213-23 330-259 209-410-29-37-94-86-156-86-138 0-98 22-171 42-38-58-62-106-62-202 0-61 14-175 28-223l99-276c59-143 131-272 222-395 95-128 242-212 360-372 130-177 209-387 263-604 30-120 8-84 87-155 43-38 83-81 118-131 129-186 162-463 112-700l-47-141c-11-24-12-15-18-38 39-1 67-13 99-25 17-6 16-3 31-10 14 52 88 112 144 112 178 0 214-179 151-314 128 11 153 16 232-126 11-20 21-37 32-58 20-39 40-94 53-141 51-182 13-207 4-317 59-1 128-34 168-59 114-69 84-190 23-283-51-78-118-104-128-142-10-38-5-38 6-65 177-407-399-655-481-295l-60-22c-22-11-7 2-20-21-68-124-184-172-337-172 70-134 205-212 205-300 0-73-2-54-28-112-16-36 92-171 22-384-36-110-42-272-213-285-59-4-78-29-108-58-13-13-34-26-50-33-41-19-20-6-48-35-38-40-72-32-108-57-20-15-16-22-45-38-23-12-40-12-53-30 38-10 93-73 114-107 125-213-4-488-196-590-42-22-108-49-171-49l-116 7c-9-111-84-159-123-237-104-207-248-140-294-140-37 0-46-4-76-21-30-16-70-15-102-28-78-31-119-22-156-37-39-15-62-22-105-12 7-27 19-26 34-49 9-15 20-34 27-49 16-37 28-88 28-139 0-224-216-415-442-425z"/><path d="m14127 2337h-46c-82 5-168 40-247 115-12 12-35 40-44 52-82 109-98 239-34 363-20 5-28 10-49 13-88 12-79 22-138 34-33 7-56 25-88 29-44 6-183-50-267 111l-58 88c-15 26-37 65-44 95-90 0-111 1-181 25-208 73-338 404-187 566 14 15 21 19 33 36-14 10-23 20-40 29-14 8-30 13-43 19l-116 84c-41 41-82 26-134 52-105 52-103 154-121 204-35 95-41 208-6 303 14 36 15 22 1 55-67 158 102 206 123 286-62 15-91 21-141 52-33 20-83 62-92 102h-21c-12-46-67-91-112-109-58-23-118-13-172 8-157 63-208 238-150 390 19 51-14 54-44 82-84 78-147 237-33 324 47 36 79 35 127 58-28 122 14 283 71 381 42 73 72 134 175 142-1 32-7 28-7 63 0 179 221 253 301 98 17 4 27 7 41 14-9 39-24 73-33 113-37 178-15 393 73 543 76 129 156 155 170 210 29 111 48 196 90 292 66 153 153 286 276 396 80 72 165 157 222 255 26 44 47 75 68 126 57 140 181 408 106 569-37-3-50-21-89-21-94 0-174 35-212 118-107 234 166 464 462 268 197-131 230-320 230-582 33-18 33-31 58-45 38-22 134-46 134-157 0-67-37-105-33-168 3-43 91-103 18-215-26-41-13-31-13-84 0-49-27-79-27-112 0-32 8-17 2-57-12-77-77-113-77-131 0-22 27-44 27-91 0-108-31-119-87-162-12-9-7-3-13-15-28-58 6-34-72-143-6-8-7-10-12-15 31-47 96-101 96-174 0-84-59-174-151-174-63 0-101 28-157 28-7-29-29-48-44-73-14-24-15-72-17-101 57-14 116-51 156-85 97-81 144-167 179-292 9-33 24-42 37-81 27-81 22-179-39-238-11-10-26-22-33-29-11-11-13-24-23-39-41-68-15-78-47-140-23-44-20-98-48-139-32-46-22-29-39-86-15-50-65-86-68-119 112 0 185 44 337-110 171-173 152-528-31-683-14-12-33-28-46-37 13-20 26-29 43-47 14-16 23-32 33-51 64 32 158 3 198-49 60-78 35-135 35-223 102-55 146-211 89-321 143 0 234-31 342-105 30 16 72 42 116 42 120 0 164-107 184-203 11-51 14-9 94-65 170-120 119-425-72-429 17-35 3-84 0-119 21 2 24 7 48 7 127 0 206-151 140-254-37-58-90-104-145-145-91-69-197-103-331-103v-35c0-196-166-371-362-384z"/></g><g fill="#201e1e" stroke="#201e1e" stroke-width="7.62"><path d="m18567 5787c21 36 33 42 73 29 28 35 56 38 78 33 33-7 56-40 59-92-47 24-62 32-92-9 5-66-32-114-108-104-196 25-135 358 43 362 254 5 420-291 273-500 24-34 3-65-21-93 4 33 8 29-12 56-30-41-45-61-118-90 0 0 0 15 7 20 84 61 151 184 150 287 0 50-16 102-53 155 0-169-40-290-125-370-88-83-203-143-346-197-151-57-249-90-351-227-43-59-66-129-72-199-5-67 1-145 66-214 19 20 38 40 57 60 26-48 80-103 138-100 52 3 84 28 100 62 35 75-10 193-107 201 154 61 269-33 254-170-16-156-146-284-300-269-113 10-203 105-240 192-89 212 21 414 142 537-169-19-314-23-452 55-81 47-138 150-186 195-29 4-46 4-60-3-17-8-27-27-47-59-18 80 22 123 97 127-78 72-176 122-280 64-40-22-59-57-2-99-2-28-2-41-9-45-22-15-41-5-56 13-50 64-24 140 44 178 74 42 163 36 236-1-7 12-14 24-22 37-60 4-98-1-146 40 31 3 50 10 84 20-59 68-99 116-79 212 113-11 128-89 144-192 17 23 20 36 32 66 30-52 21-83-6-131 6-19 19-38 24-57 16-20 32-40 48-60 19 99 59 155 121 230 60 48 115 79 173 80 101 2 173-33 214-87 52-69 52-171-7-269-28-22-42-144 47-152 16-2 33 8 53 33 30-56-16-97-68-91-43 5-89 44-99 134-52-20-104-17-146 2-64 28-106 91-95 159 13 79 69 126 131 125 87-2 113-75 96-120-17-46-78-51-87 1 23 38 13 63-7 69-28 8-76-20-84-99-2-59 41-93 101-98 47-4 80 9 104 31 110 101 78 292-70 314-71 11-134 2-182-27-74-44-114-108-130-176-31-135 25-240 117-305 166-117 438-92 604 9-297 77-275 471 4 475 65 1 146-65 146-134 0-99-74-144-157-138 70 61 60 154 13 164-57 11-102-79-125-122-13-3-27-7-40-10-10-130 107-179 221-186 56-3 111 3 151 16 109 34 210 84 290 181 43 52 75 117 90 200 6 53 7 100-5 139-17 57-59 97-147 108-9-26-13-32-33-50-11 16-13 26-17 46-25 0-50-12-68-32-21-23-34-56-26-94 12-13 25-25 37-38-13-6-29-19-42-24 9-20 22-38 37-48 23-16 43-13 56-2 26 21 30 73-33 71zm-472-1049c38-2 70 27 72 66 2 39-27 72-65 74-38 2-70-27-72-66-2-39 27-72 65-74zm45 222c32-2 59 23 61 56 2 33-23 60-55 62-32 2-59-23-61-56-2-33 23-60 55-62zm133 127c26-1 48 19 50 46 1 27-19 49-45 51-26 1-48-19-50-46-1-27 19-49 45-51zm144 77c20-1 38 15 39 35 1 21-14 38-35 39-20 1-38-15-39-35-1-21 14-38 35-39zm120 67c14-1 27 10 28 25 1 15-10 27-25 28-14 1-27-10-28-25-1-15 10-27 25-28zm101 71c11-1 21 8 21 19 1 11-8 21-19 22-11 1-21-8-21-19-1-11 8-21 19-22zm-694-248c-75-122-148-231-285-290-171-73-309-23-457 61 102 13 177 34 268 88 37 27 74 54 110 81 129 81 222 95 364 59zm-426 104c89 29 145 4 223-24-58-47-99-81-155-92-91-17-237 66-239 166 57-30 104-55 171-51zm322 190c-28-38-45-73-94-83-54-11-100 18-146 42 32 3 55 6 76 15 31 14 34 19 62 27 28 9 63 5 102-1zm-175 774c-37-41-66-87-84-144-5-139-27-214-142-302-74 229 13 365 227 446zm114-208c103-155 211-199 368-86-80 52-133 79-228 64-51-3-96 4-141 22zm294 2c-39-1-68 1-93 10-87 33-119 100-115 172 2 40 16 81 38 118-6-108 34-142 126-166 45-54 43-63 44-134zm-656-1117c116-27 227-30 326 55 31 27 55 63 77 120-122-141-219-173-403-175zm645 1000c-61-22-141-26-203 43 74-39 130-50 203-43zm-516 223c-75-77-95-130-102-239 20 90 53 166 102 239zm101-930c-46-33-107-46-195-3 69-10 126-15 195 3zm-348 597c-10 44-23 100-63 122 8-62 17-85 63-122zm860 2555c6 58-4 75-59 94-4 63-33 89-62 103-43 20-96 2-141-56 72-12 96-16 97-88-59-71-55-156 38-208 243-136 443 294 243 447-284 219-712 22-714-338-55-19-56-72-51-123 22 40 15 39 58 53 1-72 2-108 61-201 0 0 13 17 9 29-46 140-22 335 62 451 41 57 101 102 185 132-136-192-189-363-158-525 32-169 114-333 233-514 125-191 210-312 214-553 2-103-30-203-80-286-48-81-119-164-248-187-5 39-11 77-17 116-68-33-173-50-237 3-56 46-73 102-63 155 21 115 167 211 285 138-126 198-331 188-426 20-108-191-63-445 122-558 136-83 315-51 427 17 273 166 311 487 273 728 176-163 338-290 558-317 130-15 278 54 369 66 36-20 56-34 66-53 13-24 9-54 6-107 85 75 75 158-8 225 147 16 298-10 370-163 28-59 21-115-77-114-21-34-30-48-26-59 13-36 42-41 73-32 109 30 140 139 95 239-50 111-157 177-269 196 18 8 36 16 54 23 71-46 110-84 198-77-32 29-49 53-80 93 122 27 207 48 261 174-137 82-217 7-318-97-1 40 7 58 18 102-75-34-91-76-99-153-21-16-52-28-73-44-34-9-69-19-103-28 59 128 59 226 49 362-29 106-67 186-132 236-114 87-223 108-313 81-115-35-197-151-210-311 14-48-68-198-177-133-19 11-31 37-33 82-80-38-61-124 3-160 53-30 137-26 220 68 42-67 104-106 168-120 95-21 194 15 236 101 49 100 23 201-48 251-101 71-189 9-207-56-18-67 48-123 99-72 5 63 36 83 64 72 38-14 70-86 16-183-46-69-122-71-194-26-56 35-83 77-93 123-43 207 148 396 333 298 90-48 153-110 185-183 49-112 42-219 5-308-74-179-223-251-380-247-283 7-572 263-678 518 399-162 693 304 380 543-72 55-218 49-274-29-80-113-32-226 66-288-30 127 57 225 117 197 74-35 51-175 43-243 12-15 25-30 37-45-93-156-266-114-402-26-66 43-124 97-159 145-96 130-170 272-182 448-6 96 10 196 60 302 35 65 73 119 118 154 65 51 145 60 254-1-11-37-12-47-3-84 25 10 36 19 56 38 28-21 46-55 51-93 6-44-7-92-47-128-24-4-49-8-73-11 10-18 18-46 28-63-27-15-56-24-82-23-39 1-59 21-65 44-12 46 26 108 95 53zm-313-1587c-45 29-57 90-29 136 29 46 88 59 133 29 45-29 57-90 29-136-29-46-88-59-133-29zm129 289c-38 25-49 76-24 115 24 38 75 50 113 25 38-25 49-76 24-115-24-38-75-50-113-25zm-48 256c-31 20-40 62-20 94 20 31 61 40 92 20 31-20 40-62 20-94-20-31-61-40-92-20zm-101 209c-24 16-31 48-15 73 15 24 47 31 71 16 24-16 31-48 15-73-15-24-47-31-71-16zm-81 177c-17 11-22 34-11 52 11 17 34 22 51 11 17-11 22-34 11-52-11-17-34-22-51-11zm-58 166c-13 9-17 27-8 40 9 13 26 17 39 9 13-9 17-27 8-40-9-13-26-17-39-9zm587-864c-13-201-19-387 89-569 135-226 332-286 568-314-105 100-174 188-233 326-20 62-40 123-60 185-81 200-175 294-365 372zm568-240c-77 107-161 126-272 160 28-102 47-175 102-234 89-96 322-124 405-12-88 14-163 25-235 86zm-212 486c1-67-8-121 39-173 52-58 129-63 200-76-34 30-58 53-74 81-24 42-24 50-48 83-25 34-67 59-117 85zm824 731c9-77 4-154-21-234-107-161-143-266-83-462 269 198 281 426 103 697zm-297-140c-243-89-401-49-488 212 133-8 216-22 310-118 55-46 112-75 177-94zm-332 249c43-34 78-56 114-66 125-36 216 14 269 98 30 47 47 106 52 166-81-127-153-133-277-82-95-23-101-35-158-116zm-159-1818c-154 66-282 157-325 336-14 57-12 117 10 201 23-263 109-380 315-537zm77 1676c51-77 139-147 265-122-116 18-188 53-265 122zm766-180c23-151 3-227-78-357 51 119 74 232 78 357zm-866-971c26-76 84-142 219-167-87 47-154 89-219 167zm878 385c47 42 106 94 171 85-59-63-89-82-171-85zm-1924-2577c31 28 45 29 79 4 38 24 66 18 86 6 30-18 42-57 27-108-37 38-50 51-92 22-16-65-67-99-137-65-181 89-16 389 157 334 246-79 312-419 104-571 12-41-18-64-50-83 14 30 16 26 6 57-42-29-63-44-142-48 0 0 5 15 13 17 101 31 203 128 235 227 15 49 17 104-1 166-54-163-130-266-237-316-111-51-241-71-395-76-163-5-269-5-410-103-60-42-105-103-132-168-26-63-45-140-4-228 25 13 49 26 74 39 9-55 44-125 101-141 50-15 90-1 116 27 58 61 52 189-40 229 168 8 248-120 191-248-65-145-231-225-374-161-105 47-162 168-170 264-18 234 151 392 307 470-168 38-310 82-418 202-63 72-86 190-117 249-27 14-43 19-58 17-19-2-35-17-64-41 8 83 60 111 134 90-52 95-131 175-250 154-46-8-75-36-33-94-11-27-15-39-23-41-26-7-41 8-50 30-28 78 21 142 99 157 85 16 169-20 226-79-3 14-6 28-9 42-56 23-95 31-128 87 30-7 52-7 87-9-36 85-59 144-9 230 105-48 95-128 78-232 24 16 31 28 52 53 12-59-6-87-47-124 0-20 6-43 5-63 9-25 18-49 27-74 50 89 106 130 189 182 73 27 136 38 192 20 98-32 157-89 179-154 28-84-4-182-92-257-34-12-86-124-3-162 15-7 35-3 61 14 11-64-46-89-94-65-40 19-72 71-53 161-56-3-105 18-140 50-52 48-73 123-41 184 38 72 107 99 166 77 83-31 85-109 54-148-31-39-91-23-83 29 34 29 33 57 15 69-24 17-79 6-113-67-20-57 10-103 66-128 44-19 80-18 110-4 138 61 167 255 32 325-65 34-128 46-183 34-85-18-144-67-181-127-73-119-52-239 16-332 123-167 393-233 585-190-261 171-115 544 155 456 62-20 120-110 98-177-32-96-117-114-195-82 86 36 106 129 65 153-51 30-123-43-159-76-14 1-28 2-42 3-51-122 46-208 154-252 53-22 108-34 151-35 116-3 229 12 336 79 58 36 109 88 150 163 23 49 38 94 40 136 2 61-27 112-107 152-17-22-23-27-48-37-5 19-4 30-2 50-24 8-52 5-75-8-28-15-50-43-55-82 8-16 16-32 24-49-14-1-34-8-48-10 3-22 9-43 21-59 17-23 37-27 53-21 31 12 52 61-9 79zm-787-854c36-15 76 3 91 40 14 36-3 78-39 92-36 14-76-3-91-40-14-36 3-78 39-92zm113 199c30-12 65 3 77 34 12 31-3 66-33 78-30 12-65-3-77-34-12-31 3-66 33-78zm169 79c25-10 53 2 63 27 10 25-2 54-27 64-25 10-53-2-63-27-10-25 2-54 27-64zm163 27c19-8 41 2 49 21 8 20-2 42-21 49-19 8-41-2-49-21-8-20 2-42 21-49zm137 25c14-6 29 1 34 15 5 14-1 30-15 35-14 6-29-1-34-15-5-14 1-30 15-35zm120 35c11-4 22 1 27 12 4 11-1 23-11 27-11 4-22-1-27-12-4-11 1-23 12-27zm-747-10c-111-92-216-174-367-185-188-14-305 80-421 210 102-21 182-25 287-3 44 14 88 28 132 42 150 36 243 18 369-63zm-377 241c95-1 140-44 207-96-71-26-121-45-178-37-93 13-207 141-177 239 45-47 83-88 148-105zm371 77c-39-27-67-56-117-50-56 7-91 51-128 88 31-8 55-13 78-10 34 3 39 7 68 6 30-1 62-15 98-34zm77 803c-49-27-91-62-127-111-49-132-94-198-233-244 1 245 129 347 360 355zm44-237c50-183 140-261 328-204-61 77-103 120-199 137-50 13-91 36-129 67zm284-95c-38 11-65 23-86 41-73 60-83 136-56 203 15 38 41 73 74 101-40-102-13-148 69-201 26-66 22-75-1-144zm-986-859c103-65 209-103 331-54 39 16 73 42 112 91-162-96-266-94-443-36zm938 750c-66-2-144 22-182 108 59-62 110-91 182-108zm-426 385c-97-49-133-94-174-196 48 80 103 142 174 196zm-198-928c-55-17-118-9-189 62 64-33 116-55 189-62zm-146 689c4 46 10 103-22 138-12-62-10-88 22-138zm1520 6864c7-15 24-36 47-49 45-25 105-4 105 52 0 89-95 111-161 96-172-39-270-178-302-323-126-570 240-1088 557-1542 39-56 70-115 103-173 74-167 108-324 96-510-112-16-213-92-271-181-27-41-45-87-51-135-16-138 75-211 207-157 137 57 209 269 226 419 36 7 87-3 111-12 15-156-1-299-34-438-35-147-100-287-96-441 4-130 57-238 178-341-85 108-113 181-127 323-3 80 8 153 26 225 21 86 51 171 73 263 29 120 35 246 40 380 142-97 243-231 251-414 5-117-23-201-82-296-31 2-52 2-73-2-51-11-133-65-110-130 12-33 41-49 74-52 40-4 87 7 113 29 63 52 98 136 113 226 55 318-41 588-285 720-61 320-144 585-359 819-52 47-103 94-155 140-114 101-176 206-259 336-87 172-157 347-212 533-37 201-59 427 96 584 42 42 93 67 159 49zm665-2447c-35 11-71 16-107 15-13 204-55 371-140 547 135-160 202-351 247-562zm-207-76c-18-123-62-318-189-340-65-11-88 16-82 84 12 127 184 252 271 256zm-382-124l-150 230-261-76 168 217-151 229 254-96 167 218-11-276 255-95-261-75-10-276zm-199 745l-148 141-177-101 86 187-149 141 201-26 85 187 38-203 201-25-178-100 39-203zm-196 523l-103 93-119-72 55 129-104 93 137-14 55 129 30-137 137-13-119-71 30-137zm-72 443l-70 60-78-50 35 87-71 60 92-7 34 87 22-91 92-6-78-50 23-91z"/><path d="m12818 4463c-16 29-26 33-58 23-22 28-44 30-63 26-27-6-45-32-47-74 37 19 49 26 74-7-4-53 26-91 86-83 156 20 107 286-35 288-202 4-334-232-217-399-19-27-2-52 17-74-3 26-6 23 9 44 24-32 36-49 94-72 0 0 0 12-6 16-67 49-120 147-119 229 0 40 13 81 42 123 0-135 32-231 99-295 70-67 162-114 276-157 120-45 199-72 280-181 35-47 53-103 57-159 4-54-1-116-53-171-15 16-30 32-46 48-20-38-64-82-110-79-41 2-67 22-80 50-28 60 8 154 86 160-123 48-214-26-203-136 13-125 117-226 239-215 90 8 162 84 191 153 71 169-17 330-113 428 134-15 251-18 361 44 65 37 110 119 148 156 23 3 37 3 48-2 14-7 22-22 38-47 15 64-17 98-77 101 62 57 140 97 223 51 32-18 47-46 2-79 2-23 2-33 7-36 18-12 33-4 44 10 40 51 19 111-35 142-59 34-130 28-188-1 6 10 12 19 17 29 47 3 78-1 117 32-24 2-40 8-67 16 47 54 79 92 63 169-90-9-102-71-114-153-14 18-16 29-25 53-24-41-17-66 5-104-4-15-15-30-19-45-13-16-26-32-38-48-15 79-47 124-96 183-48 39-92 63-138 64-81 1-138-26-171-69-41-55-41-136 6-214 22-18 34-115-37-121-13-1-27 7-42 26-24-45 13-78 54-73 34 4 71 35 79 106 41-16 83-13 117 2 51 23 84 73 75 127-10 63-55 100-104 99-69-2-90-60-77-96 13-37 62-40 69 0-18 31-10 51 6 55 22 6 60-16 67-79 1-47-33-74-80-78-37-3-64 7-83 25-88 81-62 232 56 250 57 9 106 1 145-21 59-35 91-86 103-140 25-107-20-191-94-243-132-93-349-74-482 7 236 61 219 375-3 379-51 1-116-52-116-107 0-79 59-115 125-110-55 48-48 123-11 131 45 9 81-63 100-97 11-3 21-6 32-8 8-103-85-143-176-149-45-3-89 3-120 12-87 27-167 67-231 144-34 42-60 93-72 159-5 42-5 80 4 111 13 46 47 77 117 86 7-20 10-26 26-40 8 13 10 21 13 36 20 0 39-10 54-25 17-18 27-45 21-75-10-10-20-20-30-30 10-5 23-15 34-20-7-16-18-30-30-38-18-13-34-10-44-2-20 17-24 58 26 57zm376-836c-30-2-56 22-58 53-2 31 21 57 52 59 30 2 56-22 58-53 2-31-21-57-52-59zm-36 177c-26-1-47 18-49 44-1 26 18 48 44 50 26 1 47-18 49-44 1-26-18-48-44-50zm-106 102c-21-1-39 15-40 36-1 21 15 39 36 41 21 1 39-15 40-36 1-21-15-39-36-41zm-115 62c-16-1-30 12-31 28-1 16 11 31 28 31 16 1 30-12 31-28 1-16-11-31-28-31zm-95 54c-11-1-21 8-22 20-1 12 8 22 20 22 12 1 21-8 22-20 1-12-8-22-20-22zm-81 57c-9 0-16 6-17 16 0 9 6 17 15 17 9 1 16-6 17-15 0-9-6-17-15-17zm553-198c60-97 118-184 228-231 136-58 246-18 364 49-81 10-141 27-214 70-29 22-59 43-88 65-103 65-177 76-290 47zm340 83c-71 23-115 3-178-19 46-38 79-64 124-73 72-14 189 52 190 132-45-24-83-44-136-41zm-257 151c23-30 36-59 75-67 43-9 80 15 117 33-25 2-44 4-60 12-25 11-27 15-49 22-23 7-50 4-82-1zm139 617c29-32 52-70 67-115 4-111 21-171 114-241 59 182-11 291-181 355zm-91-166c-82-124-168-159-294-69 64 42 106 63 181 51 40-3 76 4 112 17zm-235 2c31-1 54 1 74 8 69 26 95 80 92 137-2 32-13 65-31 94 5-86-27-114-101-132-36-43-35-51-35-107zm523-890c-92-22-181-24-260 44-25 21-44 50-61 96 97-113 175-138 321-140zm-514 797c48-18 112-20 162 34-59-31-104-40-162-34zm411 178c60-61 76-104 81-190-16 72-42 132-81 190zm-80-741c37-26 85-36 156-2-55-8-100-12-156 2zm277 476c8 35 18 79 51 97-7-49-14-68-51-97zm-685 2037c-5 47 3 60 47 75 3 50 26 71 50 82 35 16 77 2 113-44-57-10-77-12-78-70 47-56 44-124-30-166-194-108-353 234-194 356 227 174 567 18 569-270 44-15 44-57 41-98-18 32-12 31-46 43-1-57-2-86-48-160 0 0-10 14-7 23 37 112 18 267-50 360-33 45-80 81-147 105 109-153 151-289 126-418-26-134-91-265-186-410-100-152-167-249-171-441-1-82 24-161 64-228 39-64 95-130 198-149 4 31 9 62 13 93 54-27 138-39 189 2 45 37 58 82 50 123-17 92-133 168-227 110 100 158 264 150 340 16 86-152 50-354-98-444-109-66-251-41-341 14-217 132-248 388-218 580-141-130-270-231-445-253-103-12-221 43-294 52-29-16-44-27-52-42-10-19-7-43-5-85-68 60-60 126 6 179-117 13-238-8-295-130-22-47-17-92 62-91 16-27 24-39 21-47-10-29-34-33-58-26-87 24-112 110-75 190 40 88 125 141 214 156-14 6-29 12-43 19-56-36-88-67-158-62 26 23 39 43 63 74-97 22-165 38-208 139 109 65 173 5 253-77 1 32-5 46-14 81 60-27 72-61 79-122 17-13 41-22 58-35 27-7 55-15 82-22-47 102-47 180-39 289 23 84 53 148 105 188 90 69 178 86 250 65 92-28 157-120 167-248-11-39 55-158 141-106 15 9 25 30 26 65 63-30 48-99-3-128-42-24-109-20-176 55-34-53-83-84-134-96-76-17-155 12-188 81-39 80-19 160 38 200 80 56 150 8 165-44 15-53-38-98-79-58-4 50-29 66-51 58-31-11-56-69-13-146 37-55 97-57 154-21 45 28 67 62 74 98 34 165-118 316-266 237-72-38-122-88-147-146-39-89-33-174-4-246 59-143 178-200 303-197 226 6 456 210 540 413-318-129-552 242-303 433 58 44 174 39 218-23 64-90 26-180-52-230 24 102-46 180-94 157-59-28-41-140-34-194-10-12-20-24-29-36 74-124 212-91 320-20 53 34 99 77 127 115 77 104 136 217 145 357 5 76-8 156-48 241-28 52-58 95-94 123-52 40-116 48-202 0 8-29 9-38 2-67-20 8-29 15-45 30-22-17-37-44-41-74-5-35 6-74 37-102 19-3 39-6 58-9-8-14-14-36-22-50 21-12 44-19 65-19 31 1 47 17 52 35 10 36-20 86-76 42zm249-1265c36 23 46 72 23 108-23 36-71 47-106 23-36-23-46-72-23-108 23-36 71-47 106-23zm-103 231c30 20 39 61 19 91-19 31-60 39-90 20-30-20-39-61-19-91 19-31 60-39 90-20zm38 204c25 16 32 50 16 75-16 25-49 32-73 16-25-16-32-50-16-75 16-25 49-32 73-16zm80 166c19 13 25 38 12 58-12 19-38 25-57 12-19-13-25-38-12-58 12-19 38-25 57-12zm65 141c14 9 17 27 9 41-9 14-27 18-40 9-14-9-17-27-9-41 9-14 27-18 40-9zm46 132c10 7 13 21 7 32-7 11-21 14-31 7-10-7-13-21-7-32 7-11 21-14 31-7zm-467-688c11-160 15-308-71-453-107-180-265-228-453-250 84 80 138 150 186 260 16 49 32 98 47 147 64 160 139 234 291 297zm-452-191c62 86 128 100 217 128-22-82-37-139-81-187-71-76-256-99-323-9 70 11 130 20 187 68zm169 388c-1-53 7-96-31-138-42-46-103-51-159-60 27 24 46 42 59 64 19 33 19 40 39 66 20 27 53 47 93 68zm-657 583c-7-62-3-123 16-187 85-129 114-212 66-369-214 158-224 339-82 555zm237-112c194-71 319-39 389 169-106-7-172-18-247-94-44-37-90-60-141-75zm265 199c-34-27-62-45-91-53-99-28-172 11-215 78-24 38-38 84-41 132 64-101 122-106 221-65 75-18 80-28 126-92zm127-1449c123 53 225 125 259 268 11 45 10 94-8 160-19-209-87-303-251-428zm-61 1336c-41-61-111-117-211-97 92 14 150 42 211 97zm-611-144c-18-120-2-181 62-284-40 95-59 185-62 284zm690-773c-20-61-67-113-175-133 69 37 123 71 175 133zm-699 307c-38 33-85 75-136 68 47-50 71-66 136-68zm1534-2054c-25 22-36 23-63 3-30 19-52 14-69 5-24-14-33-46-22-86 30 30 39 41 73 17 13-52 53-79 109-51 144 71 13 310-125 266-196-63-248-334-83-455-10-33 14-51 40-66-11 24-13 20-5 46 33-23 50-35 113-38 0 0-4 12-10 14-80 25-162 102-187 181-12 39-13 83 1 133 43-130 104-212 189-252 89-41 192-57 315-61 130-4 214-4 327-82 48-34 84-82 105-134 21-50 36-112 4-181-20 10-39 21-59 31-7-44-35-100-81-113-40-12-72 0-92 22-46 49-41 151 32 183-134 6-198-96-152-197 52-116 184-179 298-128 84 38 129 134 135 210 15 186-121 312-245 375 134 30 247 65 333 161 50 57 68 151 93 198 21 11 35 15 46 14 15-2 28-14 51-33-6 66-48 89-106 72 42 76 104 140 199 122 36-7 60-28 27-75 9-21 12-31 18-32 21-6 33 7 39 24 23 62-17 113-79 125-68 13-134-16-181-63 2 11 5 22 7 34 45 19 75 25 102 69-24-6-41-6-69-7 28 68 47 115 7 183-84-38-76-102-62-185-19 13-24 22-41 43-10-47 5-69 37-99 0-16-5-34-4-50-7-20-14-39-22-59-40 71-85 104-151 145-59 21-108 30-153 16-78-25-125-71-142-123-22-67 4-145 74-205 27-10 69-99 2-129-12-5-28-2-49 12-9-51 37-71 75-52 32 15 58 57 42 128 45-2 84 14 112 40 42 39 58 98 32 147-30 57-85 79-132 61-66-24-68-87-43-118 25-31 73-18 66 23-27 23-26 45-12 55 19 14 63 5 90-54 16-45-8-82-53-102-35-15-64-14-88-3-110 49-133 203-26 259 52 27 102 36 146 27 68-14 115-53 144-101 58-95 41-191-13-265-98-133-313-186-466-151 208 137 92 434-123 364-50-16-96-88-78-141 25-76 94-91 155-65-69 28-85 103-52 122 41 24 98-34 127-61 11 1 22 2 33 3 41-97-37-166-123-201-42-17-86-27-120-28-92-3-183 9-268 63-46 29-87 70-119 130-18 39-31 75-32 108-2 48 21 90 85 121 13-17 18-21 38-30 4 15 3 24 1 39 19 6 41 4 60-7 22-12 40-34 43-65-6-13-13-26-19-39 12-1 27-7 39-8-2-18-8-35-17-47-13-18-30-21-42-17-25 9-41 48 7 63zm627-681c-29-12-61 3-72 32-11 29 3 62 31 74 29 12 61-3 72-32 11-29-3-62-31-74zm-90 159c-24-10-51 2-61 27-10 25 2 52 26 62 24 10 51-2 61-27 10-25-2-52-26-62zm-134 63c-20-8-42 2-50 22-8 20 2 43 21 51 20 8 42-2 50-22 8-20-2-43-21-51zm-130 22c-15-6-33 1-39 17-6 16 1 33 17 39 15 6 33-1 39-17 6-16-1-33-17-39zm-109 20c-11-4-23 1-27 12-4 11 1 24 12 28 11 4 23-1 27-12 4-11-1-24-12-28zm-96 28c-8-3-18 1-21 9-3 9 1 18 9 22 8 3 18-1 21-9 3-9-1-18-9-22zm595-8c88-74 172-139 292-148 150-11 243 63 335 167-82-17-145-20-228-3-35 11-70 22-105 33-119 28-194 15-294-50zm301 192c-75-1-112-35-165-77 57-21 96-36 142-30 74 11 165 112 141 190-36-38-66-70-118-84zm-295 61c31-22 53-45 93-39 44 6 72 40 102 70-25-6-44-10-62-8-27 3-31 5-55 5-24-1-50-12-78-27zm-61 640c39-22 73-50 101-88 39-105 75-158 186-194-1 195-102 277-287 283zm-35-189c-40-146-112-208-261-163 48 61 82 96 158 109 40 11 72 29 103 54zm-226-76c30 9 52 19 69 32 58 48 66 108 45 162-12 30-33 58-59 80 32-81 10-118-55-160-21-53-17-60 1-115zm786-685c-82-51-167-82-264-43-31 12-58 34-89 72 129-77 212-75 353-29zm-747 598c52-1 115 17 145 86-47-49-88-72-145-86zm340 307c77-39 106-75 139-157-38 64-82 113-139 157zm158-740c44-13 94-7 151 49-51-26-93-44-151-49zm116 549c-3 37-8 82 18 110 9-49 8-70-18-110zm-1211 5470c-5-12-19-29-37-39-36-20-84-3-84 42 0 71 76 88 128 76 137-31 215-142 241-257 100-455-191-867-444-1229-31-44-56-92-82-138-59-133-86-258-76-406 89-13 170-74 216-144 22-33 36-70 41-107 13-110-60-168-165-125-109 45-167 215-180 334-29 6-69-2-89-9-12-125 1-238 27-349 28-117 80-228 76-352-3-103-46-190-142-272 68 86 90 144 101 258 3 64-7 122-21 179-17 69-41 136-58 209-23 96-28 196-32 303-113-77-194-184-200-330-4-93 19-160 65-236 25 2 41 2 58-2 41-8 106-52 88-103-10-27-33-39-59-42-32-3-69 5-90 23-50 42-78 108-90 180-44 254 33 469 227 574 49 255 115 466 286 653 41 37 82 75 123 112 91 81 140 164 206 268 70 137 125 276 169 425 29 160 47 340-77 465-34 34-74 53-127 39zm-530-1950c28 9 56 13 85 12 10 163 44 295 112 436-108-127-161-280-197-448zm165-61c14-98 50-254 151-271 52-9 71 13 65 67-9 101-147 200-216 204zm304-99l120 183 208-60-134 173 121 183-203-77-133 173 9-220-203-76 208-60 8-220zm159 594l118 113 141-80-69 149 118 112-160-20-68 149-31-162-161-20 142-80-31-162zm156 417l82 74 95-57-44 103 83 74-110-11-44 103-24-109-110-10 95-57-24-109zm57 353l56 48 62-40-28 69 56 48-73-5-27 69-18-72-73-5 62-40-18-72z"/></g></g></g><path d="m15847 16796c-66 2-104 55-130 105-28-7-52-2-75-3-43-2-65-16-116 3-42 16-78 53-92 102-16 54-45 51-81 112-26 44-40 93-40 162-90 0-208-93-310-2-38 33-66 86-80 135-21 73-6 37-69 83-16 11-25 22-39 37-15 16-20 24-38 31-8 4-16 5-26 9-32 13-48 26-84 33-47 9-86 27-117 62-41 47-103 67-130 133-9 22-8 39-20 56-13 19-17 12-30 39-26 50-10 128-58 164-9 7-11 7-20 14l-73 44c-96 65-181 152-137 277 19 54-15 57-15 112 0 84 71 180 137 195-22 94-34 118 14 209-75 18-151 109-151 202 0 38 21 69 21 84 0 13-12 29-18 45-29 80 12 150 67 197 12 11 14 10 27 21 14 13 12 13 30 25 29 21 39 24 70 40 48 25 77 71 90 125 8 32 11 53 26 78 43 70 31 99 71 143 27 30 27 27 63 48 41 24 42 64 121 93 36 13 50-1 83 20l75 36c38 24 64 87 122 92 0 92 73 223 171 223 58 0 112-5 160-26 125-56 40 64 147 195 25 30 29 12 49 54 72 145 137 112 287 112 4 44 50 78 87 93 76 31 23 26 63 124 41 101 120 166 195 174h30c47-5 90-34 121-93 26-49 57-122 57-193 123-29 87-105 151-105 136 0 212 33 269-116 13-35 40-45 64-74 37-44 50-115 50-179 84-2 15-11 99 18 64 22 168 32 221-19 35-33 55-74 75-119 12-27 8-52 27-70 31-28 59-35 93-73 25-28 3-14 42-27 48-15 44-31 93-38 40-5 67-14 95-36 5-4 10-9 15-13l53-51c65-45 80-74 107-149 12-32 30-41 43-88 12-42 24-58 35-97 16-53 77-55 150-113 164-130 91-217 87-263-2-25 56-117-18-213-17-22-46-57-73-65 43-83 59-163 14-251 158-85 75-263 75-265 0-64 104-138-116-286-25-17-43-23-71-39-8-5-29-19-32-23-18-18-25-56-36-82-27-65-10-46-54-120-31-53-16-97-85-144-12-8-25-13-34-21-11-9-15-18-25-30-64-72-101-49-190-92-30-15-54-12-76-41-23-30-58-67-102-71-7-33-8-55-20-84-32-71-100-146-185-146-39 0-92 15-128 30-1 0-18 8-19 9-26 14-22 18-65-3 0-93-24-167-88-217-40-31-18-17-39-65-36-79-112-108-191-92-31 6-65 4-99 4-11-49-63-100-116-105 0-114-93-279-199-279h-34c-107 0-199 164-199 279z" fill="#fff" stroke="#fff" stroke-width="7.62"/><g fill="#201e1e" stroke="#201e1e" stroke-linejoin="round" stroke-linecap="round" stroke-width="40"><path d="m17650 19246c-12 155 277 136 197-21-9 21-34 26-58 14 0-19-3-41 7-50 86-10 81 67 116 106-45 39-94 111-189 78-19 12 28 19 22 43-101 29-130-71-138-156 15-4 21-18 44-14z"/><path d="m17673 19143c-81 44-113 246-82 373 19-3 20-23 51-14 10 12 19 24 15 50-6 6-20 4-22 14-40 9-44-18-66-28 0 21 0 43 0 64 6 17 18-20 44-7 31 25 12 81-44 64-7-16-25-23-22-50-23 28-31 69-29 120 8-23 48-15 58 0 2 75-97 51-87-14-28 15-41 46-51 78 9 3 43-1 44 28-8 69-106 18-73-35-28-5-70 36-95 57 5 7 33-4 36 21 7 51-68 40-73 7-5-31 13-40 22-57-97-8-175-33-175-135 13-20 57-17 80-7 5 16 14 43 0 57-23 6-28-6-36-14-12 60 108 87 182 64-15-16-45-18-44-50 1-21 17-26 29-35 18-1 23 11 36 14 6 23-6 27-15 35 44-10 77-29 109-50-13-16-41-17-51-35-1-31 13-49 51-43 9 9 9 26 0 35 30-15 43-48 58-78-14-12-47-7-58-21-3-31 4-53 36-50 16-3 14 10 15 21 35-34 26-111 37-170-10-16-13 34-44 21-32-116 79-174 124-248-135 74-141 273-364 262-18-15-46-22-51-50-11-4-38 8-36-7-9-9-3-11 0-21 41-19 36-83 109-71 15 9 22 47 7 64-27 1-59 5-51-28-17 6-20 44-7 57 139 110 279-143 357-219-23 13-39 33-80 28-4-72 83-56 131-78 54 17 237-47 262 50-53-20-129-17-182 14-27 16-37 52-73 50 2-14 6-26 16-33zm0 0c2-1 4-2 6-3-2 1-4 2-6 3z"/><path d="m17587 18505c-75-80-165-295-346-223-9 20-9 44 0 64 7-21 22-36 58-28 15 16 7 54-7 64-72 2-92-47-109-99 10 0 19 0 29 0 17-10 23-29 36-43 224-42 251 167 372 248-28-74-145-128-109-234 29-7 32 11 44 21-6-63-7-130-29-177-4 26-36 24-58 14 0-14 0-28 0-43 16-8 30-18 58-14-8-37-32-58-51-85-14 1 11 26-7 35-81 17-46-93 0-64-13-42-66-44-102-64 1 3 14 41-15 50-27 3-33-15-44-28-2-33 24-38 44-50-62-34-176-9-189 49 12 23 15-22 44-7 14 14 5 41 0 57-23 10-67 12-80-7-1-100 76-125 168-134 2-9-32-62 0-85 28-4 47 2 58 14 8 24-17 54-29 35-6 34 66 54 95 78-14-17-7-59 0-78 26-13 61-7 66 21 0 24-22 47-44 28 1 43 32 58 44 92 21-6 9-43 22-57 38-34 96 12 58 50-14-3-44 10-36-14-22 38 9 86 14 120 12-14 15-37 29-50 56-17 74 39 44 64-25 6-31-8-44-14 0 26 0 52 0 78 13-9 15-28 29-35 28-4 42 6 58 14 5 26-5 38-15 50-24 4-37-2-44-14-47 122-4 313 73 383 14-10-28-27-7-50 46 59 144 112 248 71-20 74-177 65-240 35-42 23-154 2-153-64 28 3 53 9 69 24z"/><path d="m17839 18396c100-144-205-185-189-21-23 3-29-10-44-14 9-84 37-185 138-156 1 25-25 23-29 43 100-38 143 40 197 71-23 49-44 135-124 106-5-26 5-38 15-49 19 1 38 1 36 21z"/><path d="m17839 18772c27 99-157 153-160 7 25 16 33 48 66 57 26-3 40-18 51-35-21-13-45-22-73-28 14-60 105-43 117 0z"/><path d="m17737 18906c-50-3-59 32-66 71-31-8-37-40-44-71-18 1-23 13-36 0 4-48 46-59 66-92 27 31 61 54 80 92z"/><path d="m17657 18616c28 41 86 84 58 156-19-12-24-38-51-43-36-6-28 30-58 28-24-65 36-93 51-142z"/><path d="m17679 19140c-2 1-4 2-6 3 2-1 4-2 6-3z"/><path d="m17562 18828c30-2 41-22 73-21-62 161-253-70-95-78 33-2 51 19 66 50-34-5-50 8-80 7-12 10 24 33 36 43z"/><path d="m17497 19069c-1 18-11 27-29 28-31 8-13-30-29-35-110 32-22 123 51 120-65 43-139-20-131-85 3-26 33-34 36-64 27 2 80-1 102 35z"/><path d="m17460 18523c23-6 23 11 36 14-4 53-77 44-95 50-95-48-12-214 87-149-36 29-125 6-102 92 9 17 30 23 51 28 16-3-1-39 22-35z"/><path d="m17300 18049c4 103-70 130-168 135-18 12 24 24 15 50 7 67-103 43-66-14 17-2 28 1 36 7-22-33-57-53-95-71-10 20 5 54-22 71-15 0-29 0-44 0-4-15-18-20-15-43 10-4 18-11 22-21 15 2 19 14 29 21-7-42-31-69-51-99-16 30-18 73-73 64-19-12-19-51 0-64 27-7 24 15 36 21 4-51-7-88-22-120-12 22-20 47-51 50-24-5-40-18-36-50 13-18 45-18 58 0-4-32 13-44 7-78-22 52-138 24-80-35 32-7 33 15 51 21 34-134 1-307-73-383-18 6 23 29 0 43-49-56-133-100-248-71 32-91 197-32 255-49 49 23 138 8 138 78-30 3-49-4-65-14-8-9-15-16-23-21 7 8 14 15 23 21 58 64 136 214 232 234 52 11 148 2 109-85-12 12-7 41-36 35-30 0-31-26-29-57 64-38 104 37 131 78-9 8-13 20-36 14-160 168-325-143-423-227 25 68 162 138 124 255-28 6-26-17-44-21 14 53 4 129 29 170 13-6 9-29 36-21 18 8 27 26 22 57-11 11-37 6-58 7 5 36 27 54 44 78 15-9 13-34 44-28 18 9 27 26 22 57-16 6-25 18-51 14 18 32 59 41 95 57 7-5-5-33 15-43 71-19 65 88 0 71 57 40 184 18 197-50-7-17-29 29-44 7-35-51 47-84 80-50z"/><path d="m17170 19974c65-68-37-93-89-83-119 21-174 199-262 241 19 11 41-35 87-21 2 66-118 80-153 64-71 28-210 34-240-36 106 23 205-4 240-71 31 9 0 36-7 50 92-62 126-268 80-397-12 2 7 22-15 28-23 3-28-10-44-14-24-60 80-68 80-21 29-8 8-49 7-71-6-17-18 20-44 7-3-6-6-13-15-14-12-67 90-60 80 0 26-22 29-66 29-113-8-19-9 29-36 14-19-12-19-51 0-64 50-6 63 24 66 64 31-17 40-56 58-85 0-13-34 11-44-7-10-22-3-32 7-50 56-12 76 32 58 71 25 3 68-38 95-57-6-6-27-2-36-21 1-30 17-45 51-43 7 7 14 14 22 21 9 42-16 51-29 71 108-1 183 30 182 135-33 34-115 2-80-50 26-13 24 5 44 14-9-78-126-89-197-64 26 12 60 17 51 64-12 9-24 19-51 14-9-11-23-28-7-43-43 7-71 30-102 50 43 1 72 55 29 78-21 6-47-19-29-28-23-8-45 46-58 71 3 16 36 3 51 7 10 21 10 51-7 64-21 1-40 1-36-21-38 29-20 113-36 163 23 3 17-22 44-14 34 114-81 176-124 248 116-51 172-309 357-269 41 9 50 52 102 64-28 39-46 88-109 92-5-7-13-11-22-14-2-31 0-57 29-57 21 0 36 19 23 34z"/><path d="m16935 20067c69-46 141 16 131 85-4 28-38 29-29 64-49-6-125-11-102-64 15 0 29 0 44 0 9 9 9 26 0 35 111-15 49-130-44-120z"/><path d="m17038 17517c16-43-10-77-51-85-14 1 11 26-7 35-15 0-29 0-44 0 1-8-2-13-7-14 5-42 57-39 95-49 83 50 34 209-87 156 21-27 81-15 102-42z"/><path d="m16842 17496c-9-6-16-13-23-21 7 5 15 12 23 21z"/><path d="m16687 19819c101-3 138 92 124 177-17-3-16 13-36 7 18-161-280-135-197 21 10-14 20-28 51-21 11 18 18 28 7 50-77 27-90-61-124-99 40-49 115-122 204-78-7-21-40-18-29-57z"/><path d="m16776 17616c26 9 24 10 44 14-2 91-41 182-131 163-10-36 25-28 29-50-90 47-156-31-204-71 28-45 47-131 124-106 4 27 6 29-7 50-22 0-48 4-44-21-106 146 211 190 189 21z"/><path d="m16658 20358c1 36-10 61-29 78-27 2-29-19-36-35-63 22-107-25-182-14 66 18 150 19 167 85-25 14-37 39-29 85-42-39-98 29-138-28 2-34 54-18 51-57-69-78-312-14-342-135-10-39 2-107 73-99 10 14 19 29 22 50-17 7-19 29-51 21-15 90 195 101 153 0 22-5 27 7 44 7 1-18-11-22-22-28-36-5-41 21-66 28-44-34 18-63 0-99 24 0 49 0 73 0 13-47 31-125 102-92-30 31-13 65-15 120 43 0 69-18 109-21 24 115-125 63-153 127 65-13 183-49 211 21 16-8 30-18 58-14z"/><path d="m16652 17255c-25 3-41-3-58-7-35 56-152 34-211 14 25 68 172 17 153 128-40-1-72-10-102-21-21 36-22 85 0 128-19 0-39 0-58 0-8-37-46-45-36-99-25 2-42 11-73 7 8-33-28-49-22-99 42-7 43 25 73 28 19-1 28-10 29-28-1-16-18 9-36 0 30-101-162-84-160 0 5 17 45-1 51 14 4 28-6 41-15 57-25 3-41-3-58-7-15-30-30-49-22-85 27-120 257-70 350-135 0-35-33-39-58-50 29-74 97-1 138-42 17 22-8 83 36 78-19 60-76 82-153 85 54 26 107-30 160-7 7-17 19-29 36-35 23 16 30 47 36 78z"/><path d="m16235 20528c21 40 5 76 22 128-105-35-146-132-182-234-41 102-92 194-197 234 22-125 79-216 175-269-29-77 4-150 0-241 12 0 24 0 36 0 33 86-8 168 7 234 12 51 114 102 138 149z"/><path d="m16244 16958c5 147-92 194-160 269 14 67 17 187-15 248-67-59-12-169-29-234-11-42-81-67-109-106-42-57-39-108-58-177 93 47 159 119 182 234 47-37 39-104 73-149 29-38 72-63 117-85z"/><path d="m16061 20542c90 81 86 295 22 397-105-83-54-275-22-397z"/><path d="m16062 16681c90 87 66 290 0 390-54-106-89-296 0-390z"/><path d="m15937 20294c0-108 116-41 95 43-32 122-268 59-350 127-3 41 44 33 58 57-28 59-94 7-138 35-17-19 7-78-29-78 10-73 90-78 168-85-58-30-120 33-175 7-22 7-15 42-51 35-10-25-26-46-29-78 29-4 42 6 58 14 35-62 143-40 211-21-25-65-165-19-153-121 32-17 70 15 109 14 13-42 19-94-7-120 11-11 37-6 58-7 8 37 45 46 36 99 27 0 53 0 80 0-21 43 26 40 15 92-24 21-83-61-102 0 6 21 18-9 36 0-18 110 160 79 160 7-10-14-38-11-51-21z"/><path d="m15974 17312c20-96-193-110-153-7-22 5-27-7-44-7 0 21 17 26 29 35 35 1 31-36 73-28 6 46-16 65-22 99-29 5-42-7-66-7 3 32-23 70-44 99-21-1-48 4-58-7 1-18 11-27 29-28-11-24-17-54-14-92-36 8-68 19-109 21-20-112 126-61 153-127-59 18-178 44-211-14-17 4-33 10-58 7 0-36 16-55 29-78 17 7 39 10 36 35 59-16 117 27 168 14-60-20-139-21-153-85 25-14 37-39 29-85 45 40 103-29 138 36-6 29-60 13-51 57 31 58 119 28 182 36 115 14 242 127 102 198-22-9-35-28-29-64 9-8 26-8 44-7z"/><path d="m15530 17559c68 0 58 76 102 99-37 50-108 130-197 85-18 13 33 19 22 50-94 21-128-72-131-163 21-4 13-5 36-14-16 165 298 128 197-21-3 28-45 26-58 7-3-27 15-32 29-43z"/><path d="m15383 20067c44 61 136 98 248 71-32 71-183 66-248 28-11 3 3 9 0 21-60-18-142-13-153-78 52-10 62 20 95 28-83-45-144-223-255-248-51-12-149-2-109 85 3-62 91-31 58 28-72 26-87-48-124-78-3-22 16-23 36-21 161-167 315 139 415 220-25-61-161-143-116-248 23-6 23 11 36 14 4-65-6-117-22-163-11 10-14 29-44 21-20-16-21-29-14-57 11-11 37-6 58-7-10-35-31-60-51-85-7 5 4 32-22 35-31 0-42-21-36-57 15-4 21-17 44-14-10-40-60-41-95-57-14 9 17 15 0 35-17 2-27 11-51 7-9-20-9-44 0-64 17 0 21-12 44-7-58-36-186-23-197 50-1 9 36-23 51 0 4 46-24 61-73 57-54-80 49-156 153-149 4-9-31-55-7-85 17 0 21-12 44-7 13 11 18 30 15 57-10-1-27 4-30-4 0-3 0-7 1-10-2 5-2 8-1 10 3 34 66 53 95 75 2-23-13-30-7-57 16-13 30-28 66-21 11 10 11 46 0 57-23 6-28-6-36-14 1 51 37 68 51 106 11-37 13-82 73-71 19 12 19 51 0 64-13-2-36 7-29-14-22 34 4 81 7 113 14-42 93-77 95 0-6 11-60 32-51-7-20 16-14 58-15 92 16-23 33-44 80-35 18 19 15 49-7 64-21 1-40 1-36-21-50 119-10 316 65 383 18-6-23-29 0-43z"/><path d="m15632 17481c-106-23-206 3-240 71-32-10-2-38 7-50-93 58-120 248-88 383 10 11 31-31 58-7 33 67-70 81-80 21-21 23 2 64 0 92 3-28 45-26 58-7 5 31-13 39-29 50-37 2-46-22-58-43-22 19-23 58-22 99 7 19 14-19 36-7 63 73-94 90-66-7-25 28-49 56-58 99 4 17 11-21 36-7 11 10 11 46 0 57-25 3-41-3-58-7-6-17-14-49 0-64-47 9-71 40-102 64 1 16 18-9 36 0 3 27-2 45-15 57-22 5-27-7-44-7-15-30-5-69 15-85-109 9-215-67-160-149 45-2 78 9 73 57-20 16-40 17-51-7 6 81 126 89 197 64-37-5-67-36-44-78 15 0 29 0 44 0 10 9 10 33 0 43 45-8 80-26 109-49-28-11-61-16-51-64 14-3 18-15 36-14 10 10 33 18 15 35 31-14 42-49 58-78-11-11-38 1-58-14 0-17 0-33 0-50 18-7 50-14 51 14 28-34 29-94 29-156-7-19-14 19-36 7-35-105 69-171 109-234-126 75-140 260-350 255-18-15-46-22-51-50-19 0-43 4-44-14 21-43 83-133 131-64 1 27-12 41-37 43-23 3-23-15-22-35-17 7-15 33-15 57 180 114 267-160 379-220-22-12-59 53-102 21 11-49 119-77 153-57 79-25 211-34 248 36z"/><path d="m15551 20024c123-131-206-201-182-21-23 3-28-10-44-14 2-92 38-183 131-163 5 31-24 29-29 50 90-44 154 31 204 71-20 45-78 161-131 85 1-18 11-27 29-28 19-4 26 3 22 21z"/><path d="m15208 20152c1 68-46 48-102 64-63-70-14-203 102-156-72 9-171 85-51 127 14-1-11-26 7-35 15 0 29 0 44 0z"/><path d="m15165 17432c-113 14-52 134 44 120-86 67-184-73-102-128-9-9-3-11 0-21 52 18 101-5 102 57-9 8-26 8-44 7-9-9-9-26 0-35z"/><path d="m15034 19387c-1 4-1 7-1 10-1-2-1-5 1-10z"/><path d="m14550 19114c83 83 169 296 353 223 6-28 6-36 0-64-7 21-22 36-58 28-12-17-19-34-7-57 71-24 110 38 124 92-52-6-56 36-87 49-224 10-238-185-364-269-7 19 45 41 44 78 7 0 6-9 7-14 34 51 110 128 65 191-23 3-19-19-36-21 1 65 7 126 29 170 2-29 55-27 58 0 0 33-21 46-58 42 1 44 33 58 51 85 14-1-11-26 7-35 12 0 24 0 36 0 10 4 1 27 15 28-2 29-29 33-51 43 26 32 66 49 116 57 3-17-33 4-22-21 36-81 108 52 15 50 66 33 189 13 197-57-21-1-14 24-44 14-13-20-12-22-7-50 17-12 41-17 73-14 44 90-62 144-153 149-3 17 31 64-7 85-30 3-51-3-51-28 0-21 21-36 36-21-21-34-59-51-95-71 31 51-72 126-73 28 11-9 28-23 44-7-9-41-28-72-58-92 4 30-4 48-15 64-34 11-70 3-66-43 10-13 42-22 58-7 2-46-17-73-22-113-12 14-15 37-29 50-56 17-74-39-44-64 13 2 37-7 29 14 26-5 10-52 15-78-16 19-28 44-73 35-13-11-18-30-15-57 17-5 55-18 51 14 58-113 11-319-65-390-17 6 20 17 7 43-56-47-144-107-248-64 17-96 204-35 248-49 62 13 139 11 146 78-34 1-58-10-76-25zm0 0c-4-4-8-7-11-11 4 4 7 7 11 11z"/><path d="m15020 17942c-16 22-70 16-87 0-4-27-6-29 7-50 23-6 28 6 36 14 12-60-108-87-182-64 33 16 64 65 14 85-23-3-42-11-36-43-42 4-67 25-95 43 32 11 69 44 36 78-26 9-60-11-36-28-19-4-53 38-58 71 38 2 82 38 44 71-24 4-37-2-44-14-22 40-29 94-29 156 6 17 18-19 44-7 19 116-81 176-131 248 137-77 145-279 372-269 20 14 41 26 51 50 12 0 24 0 36 0-6 57-86 139-131 71-1-18 11-22 15-35 23 1 56-7 51 21 41-46-25-86-87-78-120 16-200 215-277 248 19 12 61-47 95-21-8 52-114 82-153 57-62 29-224 42-240-36 106 43 190-17 248-64 6 24-8 30-15 43 90-65 121-264 80-390-10 14-20 28-51 21-15-16-7-54 7-64 38-4 62 6 66 35 17-10 3-49 7-71-13-23-19 18-44 7-13-11-18-30-15-57 17-4 33-10 58-7 7 16 25 23 22 50 20-23 23-63 29-99-19-11-48 3-58-28 0-40 33-45 66-35 8 15 19 29 15 57 23 6 47-48 58-78-5-7-34 5-44-14-10-57 51-57 73-28-1 20 4 46-7 57 44-12 71-40 102-64-3-9-31 9-36-14 7-97 119 0 51 43 96 8 174 34 175 135z"/><path d="m14786 19096c6 63-69 136-138 78 89 20 159-92 58-113-16 3 1 39-22 35-23 3-30-9-36-21 39-69 131-53 138 21z"/><path d="m14757 18522c19-74-73-55-109-92 123-42 171 91 102 163-40-19-77-4-102-43 1-18 11-27 29-28 31-8 13 30 29 35 30-3 47-20 51-35z"/><path d="m14713 18763c30 131-174 137-160 14 24 36 91 85 117 21-16-17-48-20-73-28 18-60 83-45 117-7z"/><path d="m14611 18905c-25-6-28 11-51 7-5 24-5 52-22 64-40-14-22-86-73-71 6-46 43-62 66-92 24 33 63 52 80 92z"/><path d="m14524 18622c38 29 88 77 65 142-28-1-29-29-51-35-31-1-31 27-58 28-24-62 29-89 44-135z"/><path d="m14550 19114c-4-3-8-7-11-11 4 3 8 7 11 11z"/><path d="m14531 18367c-17 0-21 12-44 7 21-161-275-132-189 21 11-10 14-29 44-21 3 6 6 13 15 14-29 113-126-37-124-64 43-42 92-112 189-78 14-9-31-21-22-50 109-6 131 71 131 170z"/><path d="m14487 19245c22-5 21 12 44 7-1 98-23 176-131 170-5-31 24-29 29-50-103 36-152-41-204-78 22-34 97-173 131-64-6 3-13 6-15 14-21 1-40 1-36-21-106 142 205 190 182 21z"/><path d="m14436 18827c28-4 40-22 73-21-17 83-155 58-160-7-5-65 102-103 131-21-35-5-47 11-80 7-15 12 30 27 36 43z"/><g font-family="&apos;Monotype Corsiva&apos;" font-style="italic" font-size="1162.4"><text x="10500" y="14850" transform="matrix(.98158 0 0 1 4939.1 3798.43)">T1 </text><text x="10500" y="14850" transform="matrix(.98158 0 0 1 5466.06 4640.26)">T2</text></g></g><rect x="15608" y="14404" width="1305" height="453" rx="652.5" ry="226.5" fill="#fff" stroke="#fff" stroke-width="7.62"/><text x="10500" y="14850" fill="#201e1e" font-family="&apos;Arial Black&apos;" font-weight="900" font-size="435.9" transform="matrix(.98158 0 0 1 5405.04-61.14)">NN 1</text><path d="m6255 20726c-956 466-2772 376-3323-486-549-859-425-3297-477-4492-131-2993-461-5263-546-7676-95-2680 1724-4452 3899-4951 3068-704 2887 3421 2460 5541-224 1139-665 2130-947 3244-520 2054-49 5189-230 7326-93 739-338 1229-837 1495z" fill="#fff"/><g clip-path="url(#1)"><g><g fill="#201e1e"><path d="m2146 2461h98v20175h-98z"/><path d="m2376 2461h392v20175h-392z"/><path d="m3292 2461h98v20175h-98z"/><path d="m3522 2461h392v20175h-392z"/><path d="m4438 2461h98v20175h-98z"/><path d="m4668 2461h392v20175h-392z"/><path d="m5584 2461h98v20175h-98z"/><path d="m5814 2461h392v20175h-392z"/><path d="m6730 2461h98v20175h-98z"/><path d="m6960 2461h392v20175h-392z"/><path d="m7877 2461h97v20175h-97z"/><path d="m8106 2461h392v20175h-392z"/></g><g fill="#fff" stroke="#fff" stroke-width="7.62"><path d="m4151 3153h39c108 5 215 54 299 161 86 111 110 220 110 369 21-2 24-7 48-7 238 0 388 99 526 260 32 37 47 77 49 113v20c-5 84-75 151-151 151-56 0-85-14-137-14 46 89 35 145 14 237 68 0 130 16 172 68 84 105 76 267-17 362-82 84-93 55-170 92 0 131-67 272-192 272-68 0-109-41-151-70-61 92-257 146-370 146-128 0-117-67-164-35 18 28 44 46 64 81 78 136 15 314-119 386 4 54 14 56 14 139 0 92-54 188-151 188-42 0-92-6-123-21-27 52-61 100-105 137-21 17-24 14-39 37 12 16 43 30 63 47 58 49 112 107 147 178 53 109 73 242 54 365-14 92-47 167-94 238-85 127-197 176-355 176 0 1 105 161 140 262 33 95 59 220 59 344 0 50-7 73-7 125 40 27 82 66 82 132 0 65 0 138-33 190-11 17-18 22-25 45-6 19-7 37-12 57-46 173-172 301-325 380-35 18-67 24-98 39 25 53 8 129 37 172 18 27 73 102 80 128 16-8 157-49 178-49 54 0 97 9 135 50 30 32 43 81 43 131 0 86-123 169-123 209 0 37 110 118 110 244 68 16 130 77 130 160 0 61-37 100-48 146 44 66 153 123 96 244 18 28 41 49 41 98 0 38-5 75-21 105 41 22 68 68 68 119 0 94-20 91-62 153 16 71 12 94 16 110 7 28 32 42 32 93 0 81-27 142-105 171-80 30-43 38-102 70-61 33-21 44-26 106l-25 226c-34 181-117 313-261 411-74 50-144 76-208 82h-69c-213-23-330-259-209-410 29-37 94-86 156-86 138 0 98 22 171 42 38-58 62-106 62-202 0-61-14-175-28-222l-99-276c-59-143-131-272-222-395-95-128-242-212-360-372-130-177-209-386-263-604-30-120-8-84-87-155-43-38-83-81-118-131-129-186-162-463-112-700l47-141c11-24 12-15 18-38-39-1-67-13-99-25-17-6-16-3-31-10-14 52-88 112-144 112-178 0-214-179-151-314-128 11-153 16-232-126-11-20-21-37-32-58-20-39-40-94-53-141-51-182-13-207-4-317-59-1-128-34-168-59-114-69-84-190-23-283 51-78 118-104 128-142 10-37 5-38-6-65-177-407 399-654 481-295l60-22c22-11 7 2 20-21 68-124 184-172 337-172-70-134-205-212-205-300 0-73 2-54 28-112 16-36-92-171-22-384 36-110 42-272 213-285 59-4 78-29 108-58 13-13 34-26 50-33 41-19 20-6 48-35 38-40 72-32 108-57 20-15 16-22 45-38 23-12 40-12 53-30-38-10-93-73-114-107-125-213 4-488 196-590 42-22 108-49 171-49l116 7c9-111 84-158 123-237 104-207 248-140 294-140 37 0 46-4 76-21 30-16 70-15 102-28 78-31 119-22 156-37 39-15 62-22 105-12-7-27-19-26-34-49-9-15-20-34-27-49-16-37-28-88-28-139 0-224 216-415 442-425z"/><path d="m6850 2337h46c82 5 168 40 247 115 12 12 35 40 44 52 82 109 98 239 34 363 20 5 28 10 49 13 88 12 79 22 138 34 33 7 56 25 88 29 44 6 183-50 267 111l58 88c15 26 37 65 44 95 90 0 111 1 181 25 208 73 338 404 187 566-14 15-21 19-33 36 14 10 23 20 40 29 14 8 30 13 43 19l116 84c41 41 82 26 134 52 105 52 103 154 121 204 35 95 41 208 6 303-14 36-15 22-1 55 67 158-102 206-123 286 62 15 91 21 141 52 33 20 83 62 92 102h21c12-46 67-91 112-109 58-23 118-13 172 8 157 63 208 238 150 390-19 51 14 54 44 82 84 78 147 237 33 323-47 36-79 35-127 58 28 122-14 283-71 381-42 73-72 134-175 142 1 32 7 28 7 63 0 179-221 252-301 98-17 4-27 7-41 14 9 39 24 73 33 113 37 178 15 393-73 543-76 129-156 155-170 210-29 111-48 196-90 292-66 153-153 285-276 396-80 72-165 157-222 255-26 44-47 75-68 126-57 140-181 408-106 569 37-3 50-21 89-21 94 0 174 35 212 118 107 234-166 464-462 268-197-131-230-320-230-582-33-18-33-31-58-45-38-22-134-46-134-157 0-67 37-105 33-168-3-43-91-103-18-215 26-41 13-31 13-84 0-49 27-79 27-112 0-32-8-17-2-57 12-77 77-113 77-131 0-22-27-44-27-91 0-108 31-119 87-162 12-9 7-3 13-15 28-58-6-34 72-142 6-8 7-10 12-15-31-47-96-101-96-174 0-84 59-174 151-174 63 0 101 28 157 28 7-29 29-48 44-73 14-24 15-72 17-101-57-14-116-51-156-85-97-81-144-167-179-292-9-33-24-42-37-80-27-81-22-179 39-238 11-10 26-22 33-29 11-11 13-24 23-39 41-68 15-78 47-140 23-44 20-98 48-139 32-46 22-29 39-86 15-50 65-86 68-119-112 0-185 44-337-110-171-173-152-528 31-683 14-12 34-28 46-37-13-20-26-28-43-47-14-16-23-32-33-51-64 31-158 3-198-49-60-78-35-135-35-222-102-55-146-211-89-321-143 0-234-31-342-105-30 16-72 42-116 42-120 0-164-107-184-203-11-51-14-9-94-65-170-120-119-425 72-429-17-35-3-84 0-119-21 2-24 7-48 7-127 0-206-151-140-254 37-58 90-104 145-145 91-69 197-103 331-103v-35c0-196 166-371 362-383z"/></g><g fill="#201e1e" stroke="#201e1e" stroke-width="7.62"><path d="m2410 5786c-21 36-33 42-73 29-28 35-56 38-78 33-33-7-56-40-59-92 47 24 62 32 92-9-5-66 32-114 108-104 196 25 135 358-43 362-254 5-420-291-273-500-24-34-3-65 21-93-4 33-8 29 12 56 30-41 45-61 118-90 0 0 0 15-7 20-84 61-151 184-150 287 0 50 16 102 53 155 0-169 40-290 125-370 88-83 203-143 346-197 151-57 249-90 351-227 43-59 66-129 72-199 5-67-1-145-66-214-19 20-38 40-57 60-26-48-80-103-138-100-52 3-84 28-100 62-35 75 10 193 107 201-154 61-269-33-254-170 16-156 146-283 300-269 113 10 203 105 240 192 89 212-21 414-142 537 169-19 314-23 452 55 81 47 138 150 186 195 29 4 46 4 60-3 17-8 27-27 47-59 18 80-22 123-97 127 78 72 176 122 280 64 40-22 59-57 2-99 2-28 2-41 9-45 22-15 41-5 56 13 50 64 24 140-44 178-74 42-163 36-236-1 7 12 14 24 22 37 60 4 98-1 146 40-31 3-50 10-84 20 59 68 99 116 79 211-113-11-128-89-144-191-17 23-20 36-32 66-30-52-21-83 6-131-6-19-19-38-24-57-16-20-32-40-48-60-19 99-59 155-121 230-60 48-115 79-173 80-101 2-173-33-214-87-52-69-52-171 7-269 28-22 42-144-47-152-16-2-33 8-53 33-30-56 16-97 68-91 43 5 89 44 99 134 52-20 104-17 146 2 64 28 106 91 95 159-13 79-69 126-131 125-87-2-113-75-96-120 17-46 78-51 87 1-23 38-13 63 7 69 28 8 76-20 84-99 2-59-41-93-101-98-47-4-80 9-104 31-110 101-78 291 70 314 71 11 134 2 182-27 74-44 114-108 130-176 31-135-25-240-117-305-166-117-438-92-604 9 297 77 275 471-4 475-65 1-146-65-146-134 0-99 74-144 157-138-70 61-60 154-13 164 57 11 102-79 125-122 13-3 27-7 40-10 10-130-107-179-221-186-56-3-111 3-151 16-109 34-210 84-290 181-43 52-75 117-90 200-6 53-7 100 5 139 17 57 59 96 147 108 9-26 13-32 33-50 11 16 13 26 17 46 25 0 50-12 68-32 21-23 34-56 26-94-12-13-25-25-37-38 13-6 29-19 42-24-9-20-22-38-38-48-23-16-43-13-56-2-26 21-30 73 33 71zm472-1049c-38-2-70 27-72 66-2 39 27 72 65 74 38 2 70-27 72-66 2-39-27-72-65-74zm-45 222c-32-2-59 23-61 56-2 33 23 60 55 62 32 2 59-23 61-56 2-33-23-60-55-62zm-133 127c-26-1-48 19-50 46-1 27 19 49 45 51 26 1 48-19 50-46 1-27-19-49-45-51zm-144 77c-20-1-38 15-39 35-1 21 14 38 35 39 20 1 38-15 39-35 1-21-14-38-35-39zm-120 67c-14-1-27 10-28 25-1 15 10 27 25 28 14 1 27-10 28-25 1-15-10-27-25-28zm-101 71c-11-1-21 8-21 19-1 11 8 21 19 22 11 1 21-8 21-19 1-11-8-21-19-22zm694-248c75-122 148-231 285-290 171-73 309-23 457 61-102 13-177 34-268 88-37 27-74 54-110 81-129 81-222 95-364 59zm426 104c-89 29-145 4-223-24 58-47 99-81 155-91 91-17 237 66 239 166-57-30-104-55-171-51zm-322 190c28-38 45-73 94-83 54-11 100 18 146 42-32 3-55 6-76 15-31 14-34 19-62 27-28 9-63 5-102-1zm175 774c37-41 66-87 84-144 5-139 27-214 142-302 74 229-13 365-227 446zm-114-208c-103-155-211-199-368-86 80 52 133 79 228 64 51-3 96 4 141 22zm-294 2c39-1 68 1 93 10 87 33 119 100 115 172-2 40-16 81-38 118 6-108-34-142-126-165-45-54-43-63-44-134zm656-1116c-116-27-227-30-326 55-31 27-55 63-77 120 122-141 219-173 403-175zm-645 999c61-22 141-26 203 43-74-39-130-50-203-43zm516 223c75-77 95-130 102-239-20 90-53 166-102 239zm-101-929c46-33 107-46 195-3-69-10-126-15-195 3zm348 597c10 44 23 99 63 122-8-62-17-85-63-122zm-860 2555c-6 58 4 75 59 94 4 63 33 89 62 103 43 20 96 2 141-56-72-12-96-16-97-88 59-71 55-156-38-208-243-136-443 294-243 447 284 219 712 22 714-338 55-19 56-72 51-123-22 40-15 39-58 53-1-72-2-108-61-201 0 0-13 17-9 29 46 140 22 335-62 451-41 57-101 102-185 132 136-192 189-363 158-525-32-169-114-333-233-514-125-191-210-312-214-553-2-103 30-203 80-286 48-81 119-164 248-187 6 39 11 77 17 116 68-33 173-50 237 3 56 46 73 102 63 155-21 115-167 211-285 138 126 198 331 188 426 20 108-191 63-445-122-557-136-83-315-51-427 17-273 166-311 487-273 728-176-163-338-290-558-317-130-15-278 54-369 66-36-20-56-34-66-53-13-24-9-54-6-107-85 75-75 158 8 225-147 16-298-10-370-163-28-59-21-115 77-114 21-34 30-48 26-59-13-36-42-41-73-32-109 30-140 139-95 239 50 111 157 177 269 196-18 8-36 15-54 23-71-46-110-84-198-77 32 29 49 53 80 93-122 27-207 48-261 174 137 82 217 7 318-97 1 40-7 58-18 102 75-34 91-76 99-153 21-16 52-28 73-44 34-9 69-19 103-28-59 128-59 226-49 362 29 106 67 186 132 236 114 87 223 108 313 81 115-35 197-150 210-311-14-48 68-198 177-133 19 11 31 37 33 81 80-38 61-124-3-160-53-30-137-26-220 68-42-67-104-106-168-120-95-21-194 15-236 101-49 100-23 201 48 251 101 71 189 9 207-56 18-67-48-123-99-72-5 63-36 83-64 72-38-14-70-86-16-183 46-69 122-71 194-26 56 35 83 77 93 123 43 207-148 396-333 297-90-48-153-110-185-183-49-112-42-219-5-308 74-179 223-251 380-247 283 7 572 263 678 518-399-162-693 304-380 543 72 55 218 49 274-29 80-113 32-226-66-288 30 127-57 225-117 197-74-35-51-175-43-243-12-15-25-30-37-45 93-156 266-114 402-26 66 43 124 97 159 145 96 130 170 272 182 448 6 96-10 196-60 302-35 65-73 119-118 154-65 51-145 60-254-1 11-37 12-47 3-84-25 10-36 19-56 38-28-21-46-55-51-93-6-44 7-92 47-128 24-4 49-8 73-11-10-18-18-46-28-63 27-15 56-24 82-23 39 1 59 21 65 44 12 46-26 108-95 53zm313-1586c45 29 57 90 29 136-29 45-88 59-133 29-45-29-57-90-29-136 29-45 88-59 133-29zm-129 289c38 25 49 76 24 115-24 38-75 49-113 25-38-25-49-76-24-115 24-38 75-49 113-25zm48 256c31 20 40 62 20 94-20 31-61 40-92 20-31-20-40-62-20-94 20-31 61-40 92-20zm101 209c24 16 31 48 15 73-15 24-47 31-71 16-24-16-31-48-15-73 15-24 47-31 71-16zm81 177c17 11 22 34 11 52-11 17-34 22-51 11-17-11-22-34-11-52 11-17 34-22 51-11zm58 166c13 9 17 27 8 40-9 13-26 17-39 9-13-9-17-27-8-40 9-13 26-17 39-9zm-587-864c13-201 19-387-89-569-135-226-332-286-568-314 105 100 174 188 233 326 20 62 40 123 60 185 81 200 175 293 365 372zm-568-240c77 107 161 126 272 160-28-102-47-175-102-234-89-96-322-124-405-12 88 14 163 25 235 86zm212 486c-1-67 8-121-39-173-52-58-129-63-200-76 34 30 58 52 74 81 24 42 24 50 48 83 25 34 67 59 117 85zm-824 731c-9-77-4-154 21-234 107-161 143-266 83-462-269 198-281 425-103 696zm297-140c243-89 401-49 488 212-133-8-216-22-310-118-55-46-112-75-177-94zm332 249c-43-34-78-56-114-66-125-36-216 14-269 98-30 47-47 106-52 166 81-127 153-133 277-82 95-23 101-35 158-116zm159-1817c154 66 282 157 325 336 14 57 12 117-10 201-23-262-109-380-315-537zm-77 1675c-51-77-139-147-265-122 116 18 188 53 265 122zm-766-180c-23-151-3-227 78-357-51 119-74 232-78 357zm866-970c-26-76-84-142-219-167 87 47 154 89 219 167zm-878 385c-47 42-106 94-171 85 59-63 89-82 171-85zm1924-2576c-31 28-45 29-79 4-38 24-66 18-86 6-30-18-42-57-27-108 37 38 50 51 92 22 16-65 67-99 137-65 181 89 16 389-157 334-246-79-312-418-104-571-12-41 18-64 50-83-14 30-16 26-6 57 42-29 63-44 142-48 0 0-5 15-13 17-101 31-203 127-235 227-15 49-17 104 1 166 54-163 130-266 237-316 111-51 241-71 395-76 163-5 269-5 410-103 60-42 105-103 132-168 26-63 45-140 4-228-25 13-49 26-74 39-9-55-44-125-101-141-50-14-90-1-116 27-58 61-52 189 40 229-168 8-248-120-191-248 65-145 231-225 374-161 105 47 162 168 170 264 18 234-151 391-307 470 168 38 310 82 418 202 63 72 86 190 117 249 27 14 43 19 58 17 19-2 35-17 64-41-8 83-60 111-134 90 52 95 131 175 250 154 46-8 75-36 33-94 11-27 15-39 23-41 26-7 41 8 50 30 28 78-21 142-99 157-85 16-169-20-226-79 3 14 6 28 9 42 56 23 95 31 128 87-30-7-52-7-87-9 36 85 59 144 9 230-105-48-95-128-78-232-24 16-31 28-52 53-12-59 6-87 47-124 0-20-6-43-5-63-9-25-18-49-27-74-50 89-106 130-189 182-73 27-136 38-192 20-98-32-157-89-179-154-28-84 4-181 92-257 34-12 86-124 3-162-15-7-35-3-61 14-11-64 46-88 94-65 40 19 72 71 53 161 56-3 105 18 140 50 52 48 73 123 41 184-38 71-107 99-166 77-83-31-85-109-54-148 31-39 91-23 83 29-34 29-33 57-15 69 24 17 79 6 113-67 20-57-10-103-66-127-44-19-80-18-110-4-138 61-167 255-32 325 65 34 128 46 183 34 85-18 144-67 181-127 73-119 52-239-16-332-123-167-393-233-585-190 261 171 115 544-155 456-62-20-120-110-98-177 32-96 118-114 195-82-86 36-106 129-65 153 51 30 123-43 159-76 14 1 28 2 42 3 51-122-46-208-154-252-53-22-108-34-151-35-116-3-229 12-336 79-58 36-109 88-150 163-23 49-38 94-40 136-2 61 27 112 107 152 17-22 23-27 48-37 5 19 4 30 2 49 24 8 52 5 75-8 28-15 50-43 55-82-8-16-16-32-24-49 14-1 34-8 48-10-3-22-9-43-21-59-17-23-37-27-53-21-31 12-52 60 9 79zm787-854c-36-14-76 3-91 40-14 36 3 78 39 92 36 14 76-3 91-40 14-36-3-78-39-92zm-113 199c-30-12-65 3-77 34-12 31 3 66 33 78 30 12 65-3 77-34 12-31-3-66-33-78zm-169 79c-25-10-53 2-63 27-10 25 2 54 27 64 25 10 53-2 63-27 10-25-2-54-27-64zm-163 27c-19-8-41 2-49 21-8 20 2 42 21 49 19 8 41-2 49-21 8-20-2-42-21-49zm-137 25c-14-6-29 1-34 15-5 14 1 30 15 35 14 6 29-1 34-15 5-14-1-30-15-35zm-120 35c-11-4-22 1-27 12-4 11 1 23 11 27 11 4 22-1 27-12 4-11-1-23-12-27zm747-10c111-92 216-174 367-185 188-14 305 80 421 210-102-21-182-25-287-3-44 14-88 28-132 42-150 36-243 18-369-63zm377 240c-95-1-140-44-207-96 71-26 121-45 178-37 93 13 207 141 177 239-45-47-83-88-148-105zm-371 77c39-27 66-56 117-50 56 7 91 51 128 88-31-8-55-13-78-10-34 3-39 7-68 6-30-1-62-15-98-34zm-77 802c48-27 91-62 127-111 49-132 94-198 233-244-1 245-129 347-360 355zm-44-237c-50-183-140-261-328-204 61 77 103 120 199 137 50 13 91 36 129 67zm-284-95c38 11 65 23 86 41 73 60 83 136 56 203-15 38-41 73-74 101 40-102 13-148-69-201-26-66-22-75 1-144zm986-859c-103-65-209-103-331-54-39 16-73 42-112 90 162-96 266-94 443-36zm-938 750c66-2 144 22 182 108-59-62-110-91-182-108zm426 385c97-49 133-94 174-196-48 80-103 142-174 196zm198-928c55-17 118-9 189 62-64-33-116-55-189-62zm146 689c-4 46-10 103 22 138 12-62 10-88-22-138zm-1520 6861c-7-15-24-36-47-49-45-25-105-4-105 52 0 89 95 111 161 96 172-39 270-178 302-323 126-570-240-1088-557-1541-39-56-70-115-103-172-74-167-108-324-96-509 112-16 213-92 271-181 27-41 45-87 51-135 16-138-75-211-207-156-137 57-209 269-226 419-36 7-87-3-111-12-15-156 1-299 34-437 35-147 100-287 96-441-4-130-57-238-178-341 85 108 113 181 127 323 3 80-8 153-26 225-21 86-51 171-73 263-29 120-35 246-40 380-142-97-243-231-251-414-5-117 23-201 82-296 31 2 52 2 73-2 51-11 133-65 110-130-12-33-41-49-74-52-40-4-87 7-113 29-63 52-98 136-113 226-55 318 41 588 285 720 61 320 144 584 359 819 52 47 103 94 155 140 114 101 176 206 259 336 87 172 157 347 212 533 37 201 59 427-96 584-42 42-93 67-159 49zm-665-2446c35 11 71 16 107 15 13 204 55 371 140 547-135-160-202-351-247-562zm207-76c18-123 62-318 189-340 65-11 88 16 82 84-12 127-184 251-271 256zm382-124l150 230 261-76-168 217 151 229-254-96-167 217 11-276-255-95 261-75 10-276zm199 745l148 141 177-100-86 187 149 141-201-26-85 187-38-203-201-25 178-100-39-203zm196 523l103 93 119-72-55 129 104 93-137-14-55 129-30-137-137-13 119-71-30-137zm72 442l70 60 78-50-35 87 71 60-92-7-34 87-22-91-92-6 78-50-23-91z"/><path d="m8159 4463c16 29 26 33 58 23 22 28 44 30 63 26 27-6 45-32 47-74-37 19-49 26-74-7 4-53-26-91-86-83-156 20-107 286 35 288 202 4 334-232 217-398 19-27 2-52-17-74 3 26 6 23-9 44-24-32-36-49-94-72 0 0 0 12 6 16 67 49 120 147 119 228 0 40-13 81-42 123 0-135-32-231-99-295-70-67-162-114-276-157-120-45-199-72-280-181-35-47-53-103-57-159-4-54 1-116 53-170 15 16 30 32 46 48 20-38 64-82 110-79 41 2 67 22 80 50 28 60-8 154-86 160 123 48 214-26 203-136-13-124-117-226-239-215-90 8-162 84-191 153-71 169 17 330 113 428-134-15-251-18-361 44-65 37-110 119-148 156-23 3-37 3-48-2-14-7-22-22-38-47-15 64 17 98 77 101-62 57-140 97-223 51-32-18-47-46-2-79-2-23-2-33-7-36-18-12-33-4-44 10-40 51-19 111 35 142 59 34 130 28 188-1-6 10-12 19-17 29-47 3-78-1-117 32 24 2 40 8 67 16-47 54-79 92-63 169 90-9 102-71 114-153 14 18 16 29 25 53 24-41 17-66-5-104 4-15 15-30 19-45 13-16 26-32 38-48 15 79 47 124 96 183 48 39 92 63 138 64 81 1 138-26 171-69 41-55 41-136-6-214-22-18-34-114 37-121 13-1 27 7 42 26 24-45-13-78-54-73-34 4-71 35-79 106-41-16-83-13-117 2-51 23-84 73-75 127 10 63 55 100 104 99 69-2 90-60 77-96-13-37-62-40-69 0 18 31 10 51-6 55-22 6-60-16-67-79-1-47 33-74 80-78 37-3 64 7 83 25 88 81 62 232-56 250-57 9-106 1-145-21-59-35-91-86-103-140-25-107 20-191 94-243 132-93 349-74 482 7-236 61-219 375 3 379 51 1 116-52 116-107 0-79-59-115-125-110 55 48 48 123 11 131-45 9-81-63-100-97-11-3-21-6-32-8-8-103 85-143 176-148 45-3 89 3 120 12 87 27 167 67 231 144 34 42 60 93 72 159 5 42 5 80-4 111-13 46-47 77-117 86-7-20-10-26-26-40-8 13-10 21-13 36-20 0-39-10-54-25-17-18-27-45-21-75 10-10 20-20 30-30-10-5-23-15-34-20 7-16 18-30 30-38 18-13 34-10 44-2 20 17 24 58-26 57zm-376-836c30-2 56 22 58 53 2 31-21 57-52 59-30 2-56-22-58-53-2-31 21-57 52-59zm36 177c26-1 47 18 49 44 1 26-18 48-44 50-26 1-47-18-49-44-1-26 18-48 44-50zm106 102c21-1 39 15 40 36 1 21-15 39-36 41-21 1-39-15-40-36-1-21 15-39 36-41zm115 62c16-1 30 12 31 28 1 16-12 31-28 31-16 1-30-12-31-28-1-16 11-31 28-31zm95 54c11-1 21 8 22 20 1 12-8 22-20 22-12 1-21-8-22-20-1-12 8-22 20-22zm81 56c9 0 16 6 17 16 0 9-6 17-15 17-9 1-16-6-17-15 0-9 6-17 15-17zm-553-197c-60-97-118-184-228-231-136-58-246-18-364 49 81 10 141 27 214 70 29 22 59 43 88 65 103 65 177 75 290 47zm-340 83c71 23 115 3 178-19-46-38-79-64-124-73-72-14-189 52-190 132 45-24 83-44 136-41zm257 151c-23-30-36-58-75-66-43-9-80 15-117 33 25 2 44 4 60 12 25 11 27 15 49 22 23 7 50 4 82-1zm-139 616c-29-32-52-70-67-115-4-111-21-171-114-241-59 182 11 291 181 355zm91-165c82-123 168-159 294-68-64 42-106 63-181 51-40-3-76 4-112 17zm235 2c-31-1-54 1-74 8-69 26-95 80-92 137 2 32 13 65 31 94-5-86 27-113 101-132 36-43 35-50 35-107zm-523-889c92-22 181-24 260 44 25 21 44 50 61 96-97-113-175-138-321-140zm514 796c-48-18-112-20-162 34 59-31 104-40 162-34zm-411 178c-60-61-76-103-81-190 16 72 42 132 81 190zm80-741c-37-26-85-36-156-2 55-8 100-12 156 2zm-277 475c-8 35-18 79-51 97 7-49 14-68 51-97zm685 2036c5 47-3 60-47 75-3 50-26 71-50 82-35 16-77 2-113-44 57-10 77-12 78-70-47-56-44-124 30-166 194-108 353 234 194 356-227 174-567 18-569-270-44-15-44-57-41-98 18 32 12 31 46 43 1-57 2-86 48-160 0 0 10 14 7 23-37 112-18 267 50 359 33 45 80 81 147 105-109-153-151-289-126-418 26-134 91-265 186-410 100-152 167-248 171-440 1-82-24-161-64-228-39-64-95-130-198-149-4 31-9 62-13 93-54-27-138-39-189 2-45 37-58 82-50 123 17 92 133 168 227 110-100 158-264 150-340 16-86-152-50-354 98-444 109-66 251-41 341 14 217 132 248 388 218 580 141-130 270-231 445-253 103-12 221 43 294 52 29-16 44-27 52-42 10-19 7-43 5-85 68 60 60 126-6 179 117 13 238-8 295-130 22-47 17-92-62-91-16-27-24-39-21-47 10-29 34-32 58-26 87 24 111 110 75 190-40 88-125 141-214 156 14 6 29 12 43 19 56-36 88-67 158-62-26 23-39 43-63 74 97 22 165 38 208 139-109 65-173 5-253-77-1 32 5 46 14 81-60-27-72-61-79-122-17-13-41-22-58-35-27-7-55-15-82-22 47 102 47 180 39 288-23 84-53 148-105 188-90 69-178 86-250 65-92-28-157-120-167-248 11-39-55-158-141-106-15 9-25 30-26 65-63-30-48-99 3-128 42-24 109-20 176 55 34-53 83-84 134-96 76-17 155 12 188 81 39 80 19 160-38 200-80 56-150 8-165-44-15-53 38-98 79-58 4 50 29 66 51 58 31-11 56-68 13-146-37-55-97-57-154-21-45 28-67 62-74 98-34 165 118 316 266 237 72-38 122-88 147-146 39-89 33-174 4-246-59-143-178-200-303-197-226 6-456 210-540 413 318-129 552 242 303 432-58 44-174 39-218-23-64-90-26-180 52-230-24 101 46 180 94 157 59-28 41-140 34-194 10-12 20-24 29-36-74-124-212-91-320-20-53 34-99 77-127 115-77 104-136 217-145 357-5 76 8 156 48 241 28 52 58 95 94 123 52 40 116 48 202 0-8-29-9-38-2-67 20 8 29 15 45 30 22-17 37-44 41-74 5-35-6-73-37-102-19-3-39-6-58-9 8-14 14-36 22-50-21-12-44-19-65-19-31 1-47 17-52 35-10 36 20 86 76 42zm-249-1264c-36 23-46 72-23 108 23 36 71 47 106 23 36-23 46-72 23-108-23-36-71-47-106-23zm103 230c-30 20-39 61-19 91 19 31 60 39 90 20 30-20 39-61 19-91-19-31-60-39-90-20zm-38 204c-25 16-32 50-16 75 16 25 49 32 73 16 25-16 32-50 16-75-16-25-49-32-73-16zm-80 166c-19 13-25 38-12 58 12 19 38 25 57 12 19-13 25-38 12-58-12-19-38-25-57-12zm-65 141c-14 9-17 27-9 41 9 14 27 18 40 9 14-9 17-27 9-41-9-14-27-18-40-9zm-46 132c-10 7-14 21-7 32 7 11 21 14 31 7 10-7 13-21 7-32-7-11-21-14-31-7zm467-688c-11-160-15-308 71-453 107-180 265-228 453-250-84 80-138 150-186 260-16 49-32 98-47 147-64 160-139 234-291 297zm452-191c-62 86-128 100-217 128 22-82 37-139 81-187 71-76 256-99 323-9-70 11-130 20-187 68zm-169 387c1-53-7-96 31-138 42-46 103-50 159-60-27 24-46 42-59 64-19 33-19 40-39 66-20 27-53 47-93 68zm657 583c7-62 3-123-16-187-85-129-114-212-66-368 214 158 224 339 82 555zm-237-112c-193-71-319-39-389 169 106-7 172-18 247-94 44-37 90-60 141-75zm-265 199c34-27 62-45 91-53 99-28 172 11 215 78 24 38 38 84 41 132-64-101-122-106-221-65-75-18-80-28-126-92zm-127-1448c-123 53-225 125-259 268-11 45-10 94 8 160 19-209 87-303 251-428zm61 1335c41-61 111-117 211-97-92 14-150 42-211 97zm611-144c18-120 2-181-62-284 40 95 59 185 62 284zm-690-773c20-61 67-113 175-133-69 37-123 71-175 133zm699 307c38 33 85 75 136 68-47-50-71-66-136-68zm-1534-2053c25 22 36 23 63 3 30 19 52 14 69 5 24-14 33-46 22-86-30 30-39 41-73 17-13-52-53-79-109-51-144 71-13 310 125 266 196-63 248-333 83-455 10-33-14-51-40-66 11 24 13 20 5 46-33-23-50-35-113-38 0 0 4 12 10 14 80 25 162 102 187 181 12 39 13 82-1 133-43-130-104-212-189-251-89-41-192-57-315-61-130-4-214-4-327-82-48-34-84-82-105-134-21-50-36-112-4-181 20 10 39 21 59 31 7-44 35-100 81-113 40-12 72-1 92 22 46 49 41 151-32 183 134 6 198-96 152-197-52-116-184-179-298-128-84 38-129 134-135 210-15 186 121 312 245 375-134 30-247 65-333 161-50 57-68 151-93 198-21 11-35 15-46 14-15-2-28-14-51-33 6 66 48 89 106 72-42 76-104 140-199 122-36-7-60-28-27-75-9-21-12-31-18-32-21-6-33 7-39 24-23 62 17 113 79 125 68 13 134-16 181-63-2 11-5 22-7 34-45 19-75 25-102 69 24-6 41-6 69-7-28 68-47 115-7 183 84-38 76-102 62-185 19 13 24 22 41 43 10-47-5-69-37-99 0-16 5-34 4-50 7-20 14-39 22-59 40 71 85 104 151 145 59 21 108 30 153 16 78-25 125-71 142-123 22-67-4-145-74-205-27-10-69-99-2-129 12-5 28-2 49 12 9-51-37-71-75-52-32 15-58 57-42 128-45-2-84 14-112 40-42 39-58 98-32 147 30 57 85 79 132 61 66-24 68-87 43-118-25-31-73-18-66 23 27 23 26 45 12 55-19 14-63 5-90-54-16-45 8-82 53-102 35-15 64-14 88-3 110 49 133 203 26 259-52 27-102 36-146 27-68-14-115-53-144-101-58-95-41-191 13-264 98-133 313-186 466-151-208 137-92 433 123 364 50-16 96-88 78-141-25-76-94-91-155-65 69 28 85 103 52 122-41 24-98-34-127-61-11 1-22 2-33 3-41-97 37-166 123-201 42-17 86-27 120-28 92-3 183 9 268 63 46 29 87 70 119 130 18 39 31 75 32 108 2 48-21 90-85 121-13-17-18-21-38-30-4 15-3 24-1 39-19 6-41 4-60-7-22-12-40-34-43-65 6-13 13-26 19-39-12-1-27-7-39-8 2-18 8-35 17-47 13-18 30-21 42-17 25 9 41 48-7 63zm-627-681c29-12 61 3 72 32 11 29-3 62-31 73-29 12-61-3-72-32-11-29 3-62 31-74zm90 159c24-10 51 2 61 27 10 25-2 52-26 62-24 10-51-2-61-27-10-25 2-52 26-62zm134 63c20-8 42 2 50 22 8 20-2 43-21 51-20 8-42-2-50-22-8-20 2-43 21-51zm130 22c15-6 33 1 39 17 6 16-1 33-17 39-15 6-33-1-39-17-6-16 1-33 17-39zm109 20c11-4 23 1 27 12 4 11-1 24-12 28-11 4-23-1-27-12-4-11 1-24 12-28zm96 28c8-3 18 1 21 9 3 9-1 18-9 22-8 3-18-1-21-9-3-9 1-18 9-22zm-595-8c-88-74-172-138-292-148-150-11-243 63-335 167 82-17 145-20 228-3 35 11 70 22 105 33 119 28 194 15 294-50zm-301 192c75-1 112-35 165-77-57-21-96-36-142-30-74 11-165 112-141 190 36-38 66-70 118-84zm295 61c-31-22-53-45-93-39-44 6-72 40-102 70 25-6 44-10 62-8 27 3 31 5 55 5 24-1 50-12 78-27zm61 639c-39-22-73-50-101-88-39-105-75-157-186-194 1 195 102 277 287 283zm35-189c40-146 112-208 261-163-48 61-82 96-158 109-40 11-72 29-103 54zm226-76c-30 9-52 19-69 32-58 48-66 108-45 162 12 30 33 58 59 80-32-81-10-118 55-160 21-53 17-60-1-115zm-786-684c82-51 167-82 264-43 31 12 58 33 89 72-129-77-212-75-353-29zm747 598c-52-1-115 17-145 86 47-49 88-72 145-86zm-340 307c-77-39-106-75-139-157 38 64 82 113 139 157zm-158-739c-44-13-94-7-151 49 51-26 93-44 151-49zm-116 549c3 37 8 82-18 110-9-49-8-70 18-110zm1211 5468c5-12 19-29 37-39 36-20 84-3 84 42 0 71-76 88-128 76-137-31-215-142-241-257-100-454 191-867 444-1228 31-44 56-92 82-137 59-133 86-258 76-406-89-13-170-74-216-144-22-33-36-70-41-107-13-110 60-168 165-125 109 45 167 214 180 334 29 6 69-2 89-9 12-125-1-238-27-349-28-117-80-228-76-351 3-103 46-189 142-272-68 86-90 144-101 258-3 64 7 122 21 179 17 69 41 136 58 209 23 96 28 196 32 303 113-77 194-184 200-330 4-93-19-160-65-236-25 2-41 2-58-2-41-8-106-52-88-103 10-27 33-39 59-42 32-3 69 5 90 23 50 42 78 108 90 180 44 254-33 469-227 573-49 255-115 466-286 653-41 37-82 75-123 112-91 81-140 164-206 268-70 137-125 276-169 424-29 160-47 340 77 465 34 34 74 53 127 39zm530-1950c-28 9-56 13-85 12-10 163-44 295-112 436 108-127 161-280 197-448zm-165-61c-14-98-50-253-151-271-52-9-70 13-65 67 9 101 147 200 216 204zm-304-99l-120 183-208-60 134 173-121 183 203-76 133 173-9-220 203-76-208-60-8-220zm-159 594l-118 113-141-80 69 149-118 112 160-20 68 149 31-162 161-20-142-80 31-162zm-156 417l-82 74-95-57 44 103-83 74 110-11 44 103 24-109 110-10-95-57 24-109zm-57 353l-56 48-62-40 28 69-56 48 73-5 27 69 18-72 73-5-62-40 18-72z"/></g></g></g><path d="m4599 16798c-66 2-104 55-130 105-28-7-52-2-75-3-43-2-65-16-116 3-42 16-78 53-92 102-16 54-45 51-81 112-26 44-40 93-40 162-90 0-208-93-310-2-38 33-66 86-80 135-21 73-6 37-69 83-16 11-25 22-39 37-15 16-20 24-38 31-8 4-16 5-26 9-32 13-48 26-84 33-47 9-86 27-117 62-41 47-103 67-130 133-9 22-8 39-20 56-13 19-17 12-30 39-26 50-10 128-58 164-9 7-11 7-20 14l-73 44c-96 65-181 152-137 277 19 54-15 57-15 112 0 84 71 180 137 195-22 94-34 117 14 209-75 18-151 109-151 202 0 38 21 69 21 84 0 13-12 29-18 45-29 80 12 150 67 197 12 11 14 10 27 21 14 13 12 13 30 25 29 21 39 24 70 40 48 25 77 71 90 125 8 32 11 53 26 78 43 70 31 99 71 143 27 30 27 27 63 48 41 24 42 64 121 93 36 13 50-1 83 20l75 36c38 24 64 87 122 92 0 92 73 223 171 223 58 0 112-5 160-26 125-56 40 64 147 194 25 30 29 12 49 54 72 145 137 112 287 112 4 44 50 78 87 93 76 31 23 26 63 124 41 101 120 166 195 174h30c47-5 90-34 121-93 26-49 57-122 57-193 123-29 87-105 151-105 136 0 212 33 269-116 13-35 40-45 64-74 37-44 50-115 50-179 84-2 15-11 99 18 64 22 168 32 221-19 35-33 55-74 75-119 12-27 8-52 27-70 31-28 59-35 93-73 25-28 3-14 42-27 48-15 44-31 93-38 40-5 67-14 95-36 5-4 10-9 15-13l53-51c65-45 80-74 107-149 12-32 30-41 43-88 12-42 24-58 35-96 16-53 77-55 150-113 164-130 91-217 87-263-2-25 56-117-18-213-17-22-46-57-73-65 43-83 59-163 14-251 158-85 75-263 75-265 0-64 104-138-116-286-25-17-43-23-71-39-8-5-29-19-32-23-18-18-25-56-36-82-27-65-10-46-54-120-31-53-16-97-85-143-12-8-25-13-34-21-11-9-15-18-25-30-64-72-101-49-190-92-30-15-54-12-76-41-23-30-58-67-102-71-7-33-8-55-20-84-32-71-100-146-185-146-39 0-92 15-128 30-1 0-18 8-19 9-26 14-22 18-65-3 0-93-24-167-88-217-40-31-18-17-39-65-36-79-112-108-191-92-31 6-65 4-99 4-11-49-63-100-116-105 0-114-93-279-199-279h-34c-107 0-199 164-199 279z" fill="#fff" stroke="#fff" stroke-width="7.62"/><g fill="#201e1e" stroke="#201e1e" stroke-linejoin="round" stroke-linecap="round" stroke-width="40"><path d="m6402 19247c-12 155 277 136 197-21-9 21-34 26-58 14 0-19-3-41 7-50 86-10 81 67 116 106-45 39-94 111-189 78-19 12 28 19 22 42-101 29-130-71-138-156 15-4 21-18 44-14z"/><path d="m6425 19143c-81 44-113 246-82 372 19-3 20-23 51-14 10 12 19 24 15 50-6 6-20 4-22 14-40 9-44-18-66-28 0 21 0 42 0 64 6 17 18-20 44-7 31 25 12 81-44 64-7-16-25-23-22-50-23 28-31 69-29 120 8-23 48-15 58 0 2 75-97 51-87-14-28 15-41 46-51 78 9 3 43-1 44 28-8 69-106 18-73-35-28-5-70 36-95 57 5 7 33-4 36 21 7 51-68 40-73 7-5-31 13-40 22-57-97-8-175-33-175-135 13-20 57-17 80-7 5 16 14 43 0 57-23 6-28-6-36-14-12 60 108 87 182 64-15-16-45-18-44-50 1-21 17-26 29-35 18-1 23 11 36 14 6 23-6 27-15 35 44-10 77-29 109-50-13-16-41-17-51-35-1-31 13-49 51-42 9 9 9 26 0 35 30-15 43-48 58-78-14-12-47-7-58-21-3-31 4-53 36-50 16-3 14 10 15 21 35-34 26-111 37-170-10-16-13 34-44 21-32-116 79-174 124-248-135 74-141 273-364 262-18-15-46-22-51-50-11-4-38 8-36-7-9-9-3-11 0-21 41-19 36-83 109-71 15 9 22 47 7 64-27 1-59 5-51-28-17 6-20 44-7 57 139 110 279-143 357-219-23 13-39 33-80 28-4-72 83-56 131-78 54 17 237-47 262 50-53-20-129-17-182 14-27 16-37 52-73 50 2-14 6-26 16-33zm0 0c2-1 4-2 6-3-2 1-4 2-6 3z"/><path d="m6340 18506c-75-80-165-295-346-222-9 20-9 44 0 64 7-21 22-36 58-28 15 16 7 54-7 64-72 2-92-47-109-99 10 0 19 0 29 0 17-10 23-29 36-42 224-42 251 166 372 248-28-74-145-128-109-234 29-7 32 11 44 21-6-63-7-130-29-177-4 26-36 24-58 14 0-14 0-28 0-42 16-8 30-18 58-14-8-37-32-58-51-85-14 1 11 26-7 35-81 17-46-93 0-64-13-42-66-44-102-64 1 3 14 41-15 50-27 3-33-15-44-28-2-33 24-38 44-50-62-34-176-9-189 49 12 23 15-22 44-7 14 14 5 41 0 57-23 10-67 12-80-7-1-100 76-125 168-134 2-9-32-62 0-85 28-4 47 2 58 14 8 24-17 54-29 35-6 34 66 54 95 78-14-17-7-59 0-78 26-13 61-7 66 21 0 24-22 47-44 28 1 43 32 58 44 92 21-6 9-43 22-57 38-34 96 12 58 50-14-3-44 10-36-14-22 38 9 86 14 120 12-14 15-37 29-50 56-17 74 39 44 64-25 6-31-8-44-14 0 26 0 52 0 78 13-9 15-28 29-35 28-4 42 6 58 14 5 26-5 38-15 50-24 4-37-2-44-14-47 122-4 313 73 382 14-10-28-27-7-50 46 59 144 112 248 71-20 74-177 65-240 35-42 23-154 2-153-64 28 3 53 9 69 24z"/><path d="m6592 18397c100-144-205-184-189-21-23 3-29-10-44-14 9-84 37-185 138-156 1 25-25 23-29 42 100-38 143 40 197 71-23 49-44 135-124 106-5-26 5-38 15-49 19 1 38 1 36 21z"/><path d="m6591 18772c27 99-157 153-160 7 25 16 33 48 66 57 26-3 40-18 51-35-21-13-45-22-73-28 14-60 105-42 117 0z"/><path d="m6489 18907c-50-4-59 32-66 71-31-8-37-40-44-71-18 1-23 13-36 0 4-48 46-59 66-92 27 31 61 54 80 92z"/><path d="m6409 18616c28 41 86 84 58 156-19-12-24-38-51-42-36-6-28 30-58 28-24-65 36-93 51-142z"/><path d="m6431 19140c-2 1-4 2-6 3 2-1 4-2 6-3z"/><path d="m6314 18829c30-2 41-22 73-21-62 161-253-70-95-78 33-2 51 19 66 50-34-5-50 8-80 7-12 10 24 33 36 42z"/><path d="m6249 19070c-1 18-11 27-29 28-31 8-13-30-29-35-110 32-22 123 51 120-65 43-139-20-131-85 3-26 33-34 36-64 27 2 80-1 102 35z"/><path d="m6213 18524c23-6 23 11 36 14-4 53-77 44-95 50-95-48-12-214 87-149-36 29-125 6-102 92 9 17 30 23 51 28 16-3-1-39 22-35z"/><path d="m6052 18050c4 103-70 130-168 134-18 12 24 24 15 50 7 67-103 43-66-14 17-2 28 1 36 7-22-33-57-53-95-71-10 20 5 54-22 71-15 0-29 0-44 0-4-15-18-20-15-42 10-4 18-11 22-21 15 2 19 14 29 21-7-42-31-69-51-99-16 30-18 73-73 64-19-12-19-51 0-64 27-7 24 15 36 21 4-51-7-88-22-120-12 22-20 47-51 50-24-5-40-18-36-50 13-18 45-18 58 0-4-32 13-44 7-78-22 52-138 24-80-35 32-7 33 15 51 21 34-134 1-307-73-382-18 6 23 29 0 42-49-56-133-100-248-71 32-91 197-32 255-49 49 23 138 8 138 78-30 3-49-4-65-14-8-9-15-16-23-21 7 8 14 15 23 21 58 64 136 213 232 234 52 11 148 2 109-85-12 12-7 41-36 35-30 0-31-26-29-57 64-38 104 37 131 78-9 8-13 20-36 14-160 168-325-143-423-227 25 68 162 138 124 255-28 6-26-17-44-21 14 53 4 129 29 170 13-6 9-29 36-21 18 8 27 26 22 57-11 11-37 6-58 7 5 36 27 54 44 78 15-9 13-34 44-28 18 9 27 26 22 57-16 6-25 18-51 14 18 32 59 41 95 57 7-5-5-33 15-42 71-19 65 88 0 71 57 40 184 18 197-50-7-17-29 29-44 7-35-51 47-84 80-49z"/><path d="m5922 19974c65-68-37-93-89-83-119 21-174 199-262 241 19 11 41-35 87-21 2 66-118 80-153 64-71 28-210 34-240-36 106 23 205-4 240-71 31 9 0 36-7 50 92-62 126-268 80-397-12 2 7 22-15 28-23 3-28-10-44-14-24-60 80-68 80-21 29-8 8-49 7-71-6-17-18 20-44 7-3-6-6-13-15-14-12-67 90-60 80 0 26-22 29-66 29-113-8-19-9 29-36 14-19-12-19-51 0-64 50-6 63 24 66 64 31-17 40-56 58-85 0-13-34 11-44-7-10-22-3-32 7-50 56-12 76 32 58 71 25 3 68-38 95-57-6-6-27-2-36-21 1-30 17-45 51-42 7 7 14 14 22 21 9 42-16 51-29 71 108-1 183 30 182 135-33 34-115 2-80-50 26-13 24 5 44 14-9-78-126-89-197-64 26 12 60 17 51 64-12 9-24 19-51 14-9-11-23-28-7-42-43 7-71 30-102 49 43 1 72 55 29 78-21 6-47-19-29-28-23-8-45 46-58 71 3 16 36 3 51 7 10 21 10 51-7 64-21 1-40 1-36-21-38 29-20 113-36 163 23 3 17-22 44-14 34 114-81 176-124 248 116-51 172-309 357-269 41 9 50 52 102 64-28 39-46 88-109 92-5-7-13-11-22-14-2-31 0-57 29-57 21 0 36 19 23 34z"/><path d="m5687 20068c69-46 141 16 131 85-4 28-38 29-29 64-49-6-125-11-102-64 15 0 29 0 44 0 9 9 9 26 0 35 111-15 49-130-44-120z"/><path d="m5790 17519c16-43-10-77-51-85-14 1 11 26-7 35-15 0-29 0-44 0 1-8-2-13-7-14 5-42 57-39 95-49 83 50 34 209-87 156 21-27 81-15 102-42z"/><path d="m5594 17497c-9-6-16-13-23-21 7 5 15 12 23 21z"/><path d="m5440 19820c101-3 138 92 124 177-17-3-16 13-36 7 18-161-280-135-197 21 10-14 20-28 51-21 11 18 18 28 7 50-77 27-90-61-124-99 40-49 115-122 204-78-7-21-40-18-29-57z"/><path d="m5528 17618c26 9 24 10 44 14-2 91-41 182-131 163-10-36 25-28 29-50-90 47-156-31-204-71 28-45 47-131 124-106 4 27 6 29-7 50-22 0-48 4-44-21-106 146 211 190 189 21z"/><path d="m5410 20358c1 36-10 61-29 78-27 2-29-19-36-35-63 22-107-25-182-14 66 18 150 19 167 85-25 14-37 39-29 85-42-39-98 29-138-28 2-34 54-18 51-57-69-78-312-14-342-135-10-39 2-107 73-99 10 14 19 29 22 50-17 7-19 29-51 21-15 90 195 101 153 0 22-5 27 7 44 7 1-18-11-22-22-28-36-5-41 21-66 28-44-34 18-63 0-99 24 0 49 0 73 0 13-47 31-125 102-92-30 31-13 65-15 120 43 0 69-18 109-21 24 115-125 63-153 127 65-13 183-49 211 21 16-8 30-18 58-14z"/><path d="m5404 17256c-25 3-41-3-58-7-35 56-152 34-211 14 25 68 172 17 153 128-40-1-72-10-102-21-21 36-22 85 0 127-19 0-39 0-58 0-8-37-46-45-36-99-25 2-42 11-73 7 8-33-28-49-22-99 42-7 43 25 73 28 19-1 28-10 29-28-1-16-18 9-36 0 30-101-162-84-160 0 5 17 45-1 51 14 4 28-6 41-15 57-25 3-41-3-58-7-15-30-30-49-22-85 27-120 257-70 350-134 0-35-33-39-58-50 29-74 97-1 138-42 17 22-8 83 36 78-19 60-76 82-153 85 54 26 107-30 160-7 7-17 19-29 36-35 23 16 30 47 36 78z"/><path d="m4988 20528c21 40 5 76 22 127-105-35-146-132-182-234-41 102-92 194-197 234 22-125 79-216 175-269-29-77 4-150 0-241 12 0 24 0 36 0 33 86-8 168 7 234 12 51 114 102 138 149z"/><path d="m4996 16959c5 147-92 194-160 269 14 67 17 186-15 248-67-59-12-169-29-234-11-42-81-67-109-106-42-57-39-108-58-177 93 47 159 119 182 234 47-37 39-103 73-149 29-38 72-63 117-85z"/><path d="m4813 20542c90 81 86 295 22 397-105-83-54-275-22-397z"/><path d="m4814 16683c90 86 66 290 0 389-54-106-89-296 0-389z"/><path d="m4689 20294c0-108 116-41 95 42-32 122-268 59-350 127-3 41 44 33 58 57-28 59-94 7-138 35-17-19 7-78-29-78 10-73 90-78 168-85-58-30-120 33-175 7-22 7-15 42-51 35-10-25-26-46-29-78 29-4 42 6 58 14 35-62 143-40 211-21-25-65-165-19-153-120 32-17 70 15 109 14 13-42 19-94-7-120 11-11 37-6 58-7 8 37 45 46 36 99 27 0 53 0 80 0-21 43 26 40 15 92-24 21-83-61-102 0 6 21 18-9 36 0-18 110 160 79 160 7-10-14-38-11-51-21z"/><path d="m4727 17313c20-96-193-110-153-7-22 5-27-7-44-7 0 21 17 26 29 35 35 1 31-36 73-28 6 46-16 65-22 99-29 5-42-7-66-7 3 32-23 70-44 99-21-1-48 4-58-7 1-18 11-27 29-28-11-24-17-54-14-92-36 8-68 19-109 21-20-112 126-61 153-127-59 18-178 44-211-14-17 4-33 10-58 7 0-36 16-55 29-78 17 7 39 10 36 35 59-16 117 27 168 14-60-20-139-21-153-85 25-14 37-39 29-85 45 40 103-29 138 36-6 29-60 13-51 57 31 58 119 28 182 36 115 14 242 127 102 198-22-9-35-28-29-64 9-8 26-8 44-7z"/><path d="m4282 17561c68 0 58 76 102 99-37 50-108 130-197 85-18 13 33 19 22 50-94 21-128-72-131-163 21-4 13-5 36-14-16 164 298 128 197-21-3 28-45 26-58 7-3-27 15-32 29-43z"/><path d="m4135 20067c44 61 136 98 248 71-32 71-183 66-248 28-11 3 3 9 0 21-60-18-142-13-153-78 52-10 62 20 95 28-83-45-144-223-255-248-51-12-149-2-109 85 3-62 91-31 58 28-72 26-87-48-124-78-3-22 16-23 36-21 161-167 315 139 415 220-25-61-161-143-116-248 23-6 23 11 36 14 4-65-6-117-22-163-11 10-14 29-44 21-20-16-21-29-14-57 11-11 37-6 58-7-10-35-31-60-51-85-7 5 4 32-22 35-31 0-42-21-36-57 15-4 21-17 44-14-10-40-60-41-95-57-14 9 17 15 0 35-17 2-27 11-51 7-9-20-9-44 0-64 17 0 21-12 44-7-58-36-186-23-197 49-1 9 36-23 51 0 4 46-24 61-73 57-54-80 49-156 153-149 4-9-31-55-7-85 17 0 21-12 44-7 13 11 18 30 15 57-10-1-27 4-30-4 0-3 0-7 1-10-2 5-2 8-1 10 3 34 66 53 95 75 2-23-13-30-7-57 16-13 30-28 66-21 11 10 11 46 0 57-23 6-28-6-36-14 1 51 37 68 51 106 11-37 13-82 73-71 19 12 19 51 0 64-13-2-36 7-29-14-22 34 4 81 7 113 14-42 93-77 95 0-6 11-60 32-51-7-20 16-14 58-15 92 16-23 33-44 80-35 18 19 15 49-7 64-21 1-40 1-36-21-50 119-10 316 65 382 18-6-23-29 0-42z"/><path d="m4384 17483c-106-23-206 3-240 71-32-10-2-38 7-50-93 58-120 248-88 382 10 11 31-31 58-7 33 67-70 81-80 21-21 23 2 64 0 92 3-28 45-26 58-7 5 31-13 39-29 50-37 2-46-22-58-42-22 19-23 58-22 99 7 19 14-19 36-7 63 73-94 90-66-7-25 28-49 56-58 99 4 17 11-21 36-7 11 10 11 46 0 57-25 3-41-3-58-7-6-17-14-49 0-64-47 9-71 40-102 64 1 16 18-9 36 0 3 27-2 45-15 57-22 5-27-7-44-7-15-30-5-69 15-85-109 9-215-67-160-149 45-2 78 9 73 57-20 16-40 17-51-7 6 81 126 89 197 64-37-5-67-36-44-78 15 0 29 0 44 0 10 9 10 33 0 42 45-8 80-26 109-49-28-11-61-16-51-64 14-3 18-15 36-14 10 10 33 18 15 35 31-14 42-49 58-78-11-11-38 1-58-14 0-17 0-33 0-50 18-7 50-14 51 14 28-34 29-94 29-156-7-19-14 19-36 7-35-105 69-171 109-234-126 75-140 260-350 255-18-15-46-22-51-50-19 0-43 4-44-14 21-43 83-133 131-64 1 27-12 41-37 42-23 3-23-15-22-35-17 7-15 33-15 57 180 114 267-160 379-219-22-12-59 53-102 21 11-49 119-77 153-57 79-25 211-34 248 36z"/><path d="m4303 20025c123-131-206-201-182-21-23 3-28-10-44-14 2-92 38-183 131-163 5 31-24 29-29 50 90-44 154 31 204 71-20 45-78 161-131 85 1-18 11-27 29-28 19-4 26 3 22 21z"/><path d="m3960 20152c1 68-46 48-102 64-63-70-14-203 102-156-72 9-171 85-51 127 14-1-11-26 7-35 15 0 29 0 44 0z"/><path d="m3918 17433c-113 14-52 134 44 120-86 67-184-73-102-128-9-9-3-11 0-21 52 18 101-5 102 57-9 8-26 8-44 7-9-9-9-26 0-35z"/><path d="m3786 19387c-1 3-1 7-1 10-1-2-1-5 1-10z"/><path d="m3302 19115c83 83 169 296 353 223 6-28 6-36 0-64-7 21-22 36-58 28-12-17-19-34-7-57 71-24 110 38 124 92-52-6-56 36-87 49-224 10-238-185-364-269-7 19 45 41 44 78 7 0 6-9 7-14 34 51 110 128 65 191-23 3-19-19-36-21 1 65 7 125 29 170 2-29 55-27 58 0 0 33-21 46-58 42 1 44 33 58 51 85 14-1-11-26 7-35 12 0 24 0 36 0 10 4 1 27 15 28-2 29-29 33-51 42 26 32 66 49 116 57 3-17-33 4-22-21 36-81 108 52 15 50 66 33 189 13 197-57-21-1-14 24-44 14-13-20-12-22-7-50 17-12 41-17 73-14 44 90-62 144-153 149-3 17 31 64-7 85-30 3-51-3-51-28 0-21 21-36 36-21-21-34-59-51-95-71 31 51-72 126-73 28 11-9 28-23 44-7-9-41-28-72-58-92 4 30-4 48-15 64-34 11-70 3-66-43 10-13 42-22 58-7 2-46-17-73-22-113-12 14-15 37-29 50-56 17-74-39-44-64 13 2 37-7 29 14 26-5 10-52 15-78-16 19-28 44-73 35-13-11-18-30-15-57 17-5 55-18 51 14 58-113 11-318-65-389-17 6 20 17 7 42-56-47-144-107-248-64 17-96 204-35 248-49 62 13 139 11 146 78-34 1-58-10-76-25zm0 0c-4-4-8-7-11-11 4 4 7 7 11 11z"/><path d="m3772 17943c-16 22-70 16-87 0-4-27-6-29 7-50 23-6 28 6 36 14 12-60-108-87-182-64 33 16 64 64 14 85-23-3-42-11-36-42-42 4-67 25-95 42 32 11 69 44 36 78-26 9-60-11-36-28-19-4-53 38-58 71 38 2 82 38 44 71-24 4-37-2-44-14-22 40-29 94-29 156 6 17 18-19 44-7 19 116-81 176-131 248 137-77 145-279 372-269 20 14 41 26 51 50 12 0 24 0 36 0-6 57-86 139-131 71-1-18 11-22 15-35 23 1 56-7 51 21 41-46-25-86-87-78-120 16-200 215-277 248 19 12 61-47 95-21-8 52-114 82-153 57-62 29-224 42-240-36 106 43 190-17 248-64 6 24-8 30-15 42 90-65 121-264 80-389-10 14-20 28-51 21-15-16-7-54 7-64 38-4 62 6 66 35 17-10 3-49 7-71-13-23-19 18-44 7-13-11-18-30-15-57 17-4 33-10 58-7 7 16 25 23 22 50 20-23 23-63 29-99-19-11-48 3-58-28 0-40 33-45 66-35 8 15 19 29 15 57 23 6 47-48 58-78-5-7-34 5-44-14-10-57 51-57 73-28-1 20 4 46-7 57 44-12 71-40 102-64-3-9-31 8-36-14 7-97 119 0 51 42 96 8 174 34 175 135z"/><path d="m3538 19097c6 63-69 135-138 78 89 20 159-92 58-113-16 3 1 39-22 35-23 3-30-9-36-21 39-69 131-52 138 21z"/><path d="m3509 18523c19-74-73-55-109-92 123-42 171 91 102 163-40-19-77-4-102-42 1-18 11-27 29-28 31-8 13 30 29 35 30-3 47-20 51-35z"/><path d="m3465 18764c30 131-174 137-160 14 24 36 91 85 117 21-16-17-48-20-73-28 18-60 83-45 117-7z"/><path d="m3363 18906c-25-6-28 11-51 7-5 24-5 52-22 64-40-14-22-86-73-71 6-46 43-62 66-92 24 33 63 52 80 92z"/><path d="m3276 18622c38 29 88 77 65 142-28-1-29-29-51-35-31-1-31 27-58 28-24-62 29-89 44-135z"/><path d="m3302 19114c-4-3-8-7-11-11 4 3 8 7 11 11z"/><path d="m3283 18367c-17 0-21 12-44 7 21-161-275-132-189 21 11-10 14-29 44-21 3 6 6 13 15 14-29 113-126-37-124-64 43-42 92-112 189-78 14-9-31-21-22-50 109-6 131 71 131 170z"/><path d="m3239 19246c22-5 21 12 44 7-1 98-23 176-131 170-5-31 24-29 29-50-103 36-152-41-204-78 22-34 97-173 131-64-6 3-13 6-15 14-21 1-40 1-36-21-106 142 205 190 182 21z"/><path d="m3188 18828c28-4 40-22 73-21-17 83-155 58-160-7-5-65 102-103 131-21-35-5-47 11-80 7-15 12 30 27 36 42z"/><g font-family="&apos;Monotype Corsiva&apos;" font-style="italic" font-size="1162"><text x="10500" y="14850" transform="matrix(.98191 0 0 1-6318.82 3799.25)">T1 </text><text x="10500" y="14850" transform="matrix(.98191 0 0 1-5791.86 4640.8)">T2</text></g></g><rect x="4128" y="14406" width="1305" height="453" rx="652.5" ry="226.5" fill="#fff" stroke="#fff" stroke-width="7.62"/><text x="10500" y="14850" fill="#201e1e" font-family="&apos;Arial Black&apos;" font-weight="900" font-size="435.75" transform="matrix(.98191 0 0 1-6078.24-59.04)">NN 1</text></svg>