<svg xmlns="http://www.w3.org/2000/svg" width="744.09" height="1052.36" viewBox="0 0 21000 29700" shape-rendering="geometricPrecision" image-rendering="optimizeQuality" fill-rule="evenodd" clip-rule="evenodd"><defs><clipPath id="0"><path d="m14362 26193c1304 656 3784 529 4536-684 750-1209 580-4637 651-6318 178-4209 629-7402 745-10796 130-3770-2354-6262-5323-6964-4189-990-3941 4811-3359 7793 305 1602 908 2996 1293 4562 710 2888 67 7298 313 10304 127 1039 461 1729 1142 2103z"/></clipPath><clipPath id="1"><path d="m6620 26184c-1304 655-3784 529-4536-683-750-1208-580-4636-651-6316-178-4208-629-7399-745-10793-130-3769 2354-6260 5323-6962 4189-990 3941 4809 3359 7790-305 1601-908 2995-1293 4561-710 2887-67 7296-313 10301-127 1039-461 1728-1142 2102z"/></clipPath></defs><text x="10081" y="24148" fill="#201e1e" font-family="&apos;Arial Black&apos;" stroke="#201e1e" font-weight="900" stroke-width="7.62" font-size="705.56">40</text><g fill="none" stroke="#373435" stroke-width="80"><circle cx="10533" cy="1008" r="460"/><path d="m10533 198v1621"/><path d="m9723 1008h1621"/><circle cx="10533" cy="25519" r="460"/><path d="m10533 24708v1621"/><path d="m9723 25519h1621"/></g><rect x="9843" y="22866" width="1347" height="637" rx="318" fill="#fff" stroke="#fff" stroke-width="20"/><g fill="#373435" font-family="&apos;Arial&apos;" font-size="423.33"><text x="1052" y="27730">DESC 1</text><text x="1046" y="28200">DESC 2</text><text x="1049" y="28660">DESC 3</text></g><path d="m14362 26193c1304 656 3784 529 4536-684 750-1209 580-4637 651-6318 178-4209 629-7402 745-10796 130-3770-2354-6262-5323-6964-4189-990-3941 4811-3359 7793 305 1602 908 2996 1293 4562 710 2888 67 7298 313 10304 127 1039 461 1729 1142 2103z" fill="#fff"/><g clip-path="url(#0)"><g><g fill="#201e1e"><path d="m19972 503h-134v28376h134z"/><path d="m19658 503h-535v28376h535z"/><path d="m18407 503h-134v28376h134z"/><path d="m18093 503h-534v28376h534z"/><path d="m16842 503h-133v28376h133z"/><path d="m16529 503h-535v28376h535z"/><path d="m15278 503h-134v28376h134z"/><path d="m14964 503h-535v28376h535z"/><path d="m13713 503h-134v28376h134z"/><path d="m13399 503h-534v28376h534z"/><path d="m12148 503h-133v28376h133z"/><path d="m11835 503h-535v28376h535z"/></g><g fill="#fff" stroke="#fff" stroke-width="7.62"><path d="m17235 1477h-53c-147 7-294 75-408 227-118 156-151 309-151 518-29-3-33-10-65-10-325 0-529 140-718 365-44 53-64 108-67 159v28c7 118 102 213 206 213 76 0 116-20 187-20-63 126-48 204-19 333-93 0-178 23-235 96-115 147-104 375 23 510 111 119 127 77 232 130 0 185 91 382 262 382 93 0 149-58 206-98 83 130 350 206 505 206 174 0 160-94 224-49-25 39-60 65-87 114-106 191-20 441 162 543-6 76-19 79-19 196 0 129 74 265 206 265 58 0 126-8 168-29 37 72 83 141 143 193 28 24 32 19 53 52-16 23-59 42-86 66-79 68-152 150-200 251-73 153-100 340-74 513 19 130 64 235 129 335 116 178 269 247 484 247 0 2-143 227-191 369-45 134-80 309-80 484 0 70 9 102 9 177-55 39-112 92-112 186 0 91 0 194 45 267 15 23 25 32 34 63 8 27 10 53 17 81 62 243 234 423 444 535 48 25 91 34 134 55-34 74-11 181-50 242-25 38-100 144-109 180-22-11-215-69-243-69-74 0-133 13-185 71-41 45-58 114-58 184 0 121 168 237 168 294 0 51-150 166-150 343-93 23-178 108-178 226 0 86 51 141 65 206-59 93-209 173-131 343-25 40-56 69-56 137 0 53 7 105 28 147-56 31-93 95-93 167 0 132 28 128 84 216-22 100-16 133-21 154-9 39-44 59-44 130 0 114 36 199 144 241 109 42 59 54 140 99 84 47 28 62 35 149l34 318c47 254 160 440 356 578 100 71 196 106 284 116h94c291-32 450-364 285-576-40-51-129-120-212-120-188 0-134 31-234 59-52-81-84-149-84-284 0-85 19-247 38-313l135-388c80-201 179-383 303-555 130-180 330-298 492-524 178-249 286-544 359-849 40-168 10-118 119-218 59-54 114-113 161-184 175-262 221-651 153-985l-64-198c-14-33-16-22-24-53 53-1 92-19 135-35 23-9 22-4 42-15 19 74 120 157 196 157 243 0 292-252 206-441 175 15 209 22 317-177 15-28 29-52 44-81 28-54 55-133 73-198 69-256 17-292 5-446 81-2 174-48 230-82 156-97 115-267 32-398-69-110-161-146-175-200-14-53-7-53 9-91 242-572-544-920-657-415l-82-32c-30-16-10 3-28-30-93-174-251-243-460-243 95-189 280-298 280-422 0-103-3-75-38-157-21-50 126-240 30-540-50-155-57-383-291-401-81-6-106-40-147-81-18-18-46-36-68-46-55-26-27-9-65-50-51-56-99-45-147-81-28-20-22-32-61-53-32-18-54-17-72-42 52-15 128-103 155-151 170-299-5-686-267-830-57-31-148-68-234-68l-159 10c-12-156-115-223-168-333-141-291-339-196-402-196-51 0-63-6-103-29-41-23-95-21-140-40-107-44-162-31-212-52-53-22-85-31-143-17 10-38 26-37 46-69 13-21 28-48 37-69 21-52 38-124 38-195 0-315-295-584-603-598z"/><path d="m13549 330h-62c-112 8-229 57-337 161-17 16-47 56-61 74-112 153-134 337-47 510-27 7-39 14-67 18-121 17-108 31-188 48-45 10-77 35-120 41-60 8-250-70-365 156l-79 123c-21 36-51 92-60 133-123 0-151 1-247 35-284 103-461 568-256 796 19 22 29 27 45 51-19 14-32 28-54 41-19 11-40 18-58 27l-159 118c-56 58-112 37-182 73-143 74-141 217-166 287-48 134-56 293-8 426 19 51 20 31 2 77-92 222 139 289 167 402-84 21-124 30-193 73-46 29-113 87-125 143h-28c-17-65-92-128-153-153-79-33-162-19-235 11-214 89-284 334-204 548 26 71-19 76-60 115-114 109-200 334-45 455 65 51 107 49 174 82-38 171 20 398 97 535 58 102 99 188 239 200-1 44-9 39-9 88 0 251 301 355 411 137 23 6 38 10 56 20-12 55-33 103-45 159-51 251-20 552 100 763 103 181 214 218 233 295 39 156 66 276 123 411 90 215 209 401 376 556 110 102 225 220 303 359 35 63 64 105 92 178 77 196 247 574 144 800-50-4-68-29-122-29-128 0-238 49-290 166-146 329 227 652 630 377 269-184 314-450 314-818 46-25 45-43 79-64 52-32 182-64 182-221 0-94-50-147-45-236 4-61 125-145 25-303-36-57-18-44-18-118 0-69-37-111-37-157 0-45 11-23 2-80-17-108-105-159-105-185 0-31 37-62 37-127 0-152-42-168-119-228-16-12-10-5-18-21-38-81 8-48-99-200-8-11-10-14-17-22 42-66 131-142 131-245 0-119-81-245-206-245-86 0-138 39-215 39-10-40-40-67-61-103-19-33-20-101-24-142 78-19 158-72 213-120 132-114 197-234 245-410 13-46 33-59 51-113 37-113 30-251-53-335-15-15-36-30-45-41-14-16-18-33-31-55-55-95-21-109-65-197-31-62-27-137-66-195-44-65-30-41-53-121-20-71-89-120-93-168 154 0 253 62 460-154 234-243 207-743-43-961-19-16-46-40-63-52 18-29 36-40 58-66 20-23 31-45 44-71 88 44 216 4 270-70 81-110 48-190 48-313 139-77 200-296 122-451 195 0 319-43 467-147 42 23 98 59 159 59 163 0 224-150 251-285 15-71 19-12 128-91 233-169 162-598-99-604 23-50 4-118 0-167 29 3 33 10 65 10 173 0 281-212 191-357-51-82-123-146-198-204-124-97-268-144-451-144v-49c0-275-227-521-494-539z"/></g><g fill="#201e1e" stroke="#201e1e" stroke-width="7.62"><path d="m19611 5180c28 51 45 59 99 41 38 49 76 53 107 46 45-10 77-56 80-130-64 33-85 45-126-13 7-93-44-160-147-146-268 36-184 504 59 509 347 7 573-409 372-703 33-48 4-92-29-131 5 46 10 41-16 78-41-57-62-86-161-127 0 0 0 21 9 29 115 86 206 259 204 403-1 71-22 143-72 218-1-238-54-408-170-521-120-117-277-202-472-277-206-80-341-127-479-320-59-83-91-182-98-280-7-95 2-204 90-301 26 28 52 56 78 84 35-68 109-144 188-140 70 4 115 39 136 88 48 106-13 271-147 283 211 85 367-46 347-240-22-220-200-399-409-379-154 15-277 147-327 270-122 299 29 582 194 755-230-26-429-32-618 77-111 66-189 210-253 274-40 6-63 6-81-4-23-12-37-38-65-83-25 112 29 173 132 178-106 101-240 171-383 90-55-31-81-81-3-139-3-40-3-57-12-64-30-22-56-8-76 18-69 89-32 196 60 251 101 60 223 50 322-2-10 17-20 34-30 51-81 5-133-2-200 56 42 4 69 14 115 28-81 95-136 163-108 297 154-16 175-125 196-269 24 32 27 51 43 93 40-72 29-116-8-184 8-26 25-54 33-80 22-28 44-56 66-84 26 139 81 219 165 323 82 68 157 111 236 112 138 2 237-46 292-122 71-98 71-240-10-378-38-31-58-202 64-214 21-2 46 12 72 46 41-79-22-137-93-128-59 7-122 61-135 188-71-29-142-23-200 3-87 40-144 128-129 224 18 111 95 177 179 175 119-3 154-106 131-169-23-65-107-71-118 1 31 54 18 89-10 97-38 11-103-28-115-139-2-83 56-131 138-138 64-5 109 13 142 44 150 142 106 410-95 441-97 15-182 2-248-37-101-61-156-152-177-247-43-189 34-337 160-428 227-164 599-130 825 13-405 108-375 662 5 668 88 1 199-91 199-188 0-140-102-203-214-195 95 86 81 217 18 230-77 16-139-111-171-172-18-5-36-10-55-15-14-183 146-252 302-262 76-5 152 5 206 22 149 48 287 118 395 254 59 74 102 165 123 281 9 74 9 141-6 196-23 80-81 136-200 152-12-36-17-45-45-70-14 23-18 37-23 64-34 0-68-17-93-45-29-32-46-79-35-132 17-18 34-35 51-53-18-8-40-26-58-34 13-28 30-53 51-68 31-22 58-18 76-3 35 30 40 103-45 100zm-645-1475c52-3 96 39 99 93 3 54-37 101-88 104-52 3-96-39-99-93-3-54 37-101 88-104zm61 312c44-3 81 33 83 78 2 46-31 85-75 88-44 3-81-33-83-78-2-46 31-85 75-88zm182 179c36-2 66 27 68 64 2 37-25 69-61 71-36 2-66-27-68-64-2-37 25-69 61-71zm196 109c28-2 51 21 53 50 2 29-20 54-47 55-28 2-51-21-53-50-2-29 20-54 47-55zm163 95c20-1 37 15 38 35 1 21-14 38-34 39-20 1-37-15-38-35-1-21 14-38 34-39zm139 100c15-1 28 11 29 27 1 16-11 30-26 31-15 1-28-11-29-27-1-16 11-30 26-31zm-947-349c-102-171-203-325-390-408-233-103-422-32-624 86 139 18 242 48 367 124 50 38 100 76 151 114 176 114 302 133 497 83zm-582 146c121 41 197 6 304-34-79-66-135-114-212-129-124-24-323 92-326 234 77-42 142-78 233-71zm440 267c-39-53-61-103-128-117-74-16-137 26-200 59 43 4 75 8 103 21 42 20 47 26 85 38 39 13 86 8 140-1zm-239 1088c-50-57-90-123-115-202-7-195-37-301-194-425-101 322 18 514 310 627zm155-292c141-218 288-280 503-121-110 73-182 111-311 90-69-5-131 6-192 30zm402 3c-53-2-93 1-127 15-118 46-163 141-157 241 3 56 22 114 52 166-8-151 46-200 173-233 61-75 59-89 59-189zm-896-1570c158-39 310-42 445 77 43 38 75 88 105 169-166-199-299-243-550-246zm880 1405c-83-32-193-36-278 60 102-55 178-70 278-60zm-705 314c-103-108-130-183-139-336 27 127 72 233 139 336zm137-1307c-63-46-146-64-267-4 95-15 171-21 267 4zm-475 839c-14 62-31 140-87 172 11-87 24-120 87-172zm1174 3593c8 82-5 105-80 132-5 89-45 126-85 145-59 28-132 3-193-78 98-17 131-22 133-123-81-100-76-219 52-293 332-191 604 413 332 628-388 308-972 31-975-476-75-26-76-101-70-173 30 57 21 55 80 75 2-101 3-151 83-283 0 0 17 24 12 41-63 197-30 471 85 634 56 80 138 144 252 185-186-271-259-510-216-738 44-237 156-468 318-723 171-269 287-439 292-777 2-145-40-285-109-403-66-114-163-230-338-264-8 54-15 109-23 163-93-47-237-70-324 4-77 65-99 144-86 217 29 162 228 296 389 194-172 279-452 265-582 28-147-269-86-625 167-784 186-117 430-72 584 24 373 234 425 685 373 1024 241-229 462-407 762-446 177-21 379 76 503 92 50-27 76-48 90-74 17-33 13-75 8-150 116 106 102 222-10 317 200 23 407-13 505-229 38-83 29-162-106-160-28-48-41-68-36-83 18-51 58-57 100-45 148 42 191 195 129 336-68 155-214 249-367 276 25 11 49 22 74 33 97-64 150-118 271-109-44 40-67 75-109 131 167 38 282 68 356 245-187 115-296 9-434-136-2 57 9 81 24 143-103-47-124-107-136-215-29-23-71-39-100-62-47-13-94-26-141-39 80 181 80 318 67 509-40 148-91 262-180 331-155 122-305 152-427 114-157-49-269-212-286-438 18-68-93-279-241-187-26 16-43 53-45 115-109-53-83-174 5-225 72-42 187-36 301 96 58-94 142-149 229-169 130-30 265 21 322 142 67 141 32 283-65 353-137 100-258 13-282-78-25-94 65-173 135-102 7 88 50 117 88 102 52-20 95-121 22-257-63-97-166-100-264-37-76 49-114 109-127 173-58 291 201 557 455 418 123-67 209-155 252-257 66-157 57-308 7-434-100-252-304-353-518-347-386 10-781 370-926 728 544-228 946 427 519 763-99 78-298 69-374-41-110-159-44-318 90-406-41 179 78 317 160 277 101-49 70-247 59-342 17-21 34-43 51-64-127-219-363-160-549-36-91 61-169 137-217 203-132 183-233 382-249 630-9 134 13 276 82 425 48 92 100 168 161 217 89 71 199 84 346-1-14-51-16-67-4-119 35 14 49 27 76 53 38-29 63-78 70-131 8-62-10-130-64-180-33-5-66-11-100-16 14-25 25-64 38-89-37-21-76-34-111-33-53 1-81 30-89 62-16 64 35 151 130 74zm-427-2231c-61 41-78 127-39 191 39 64 121 82 182 41 61-41 78-127 39-191-39-64-121-82-182-41zm176 407c-52 35-66 107-33 161 33 54 102 70 154 35 52-35 66-107 33-161-33-54-102-70-154-35zm-65 360c-42 29-54 87-27 132 27 44 83 57 125 28 42-29 54-88 27-132-27-44-83-57-125-28zm-137 294c-33 22-42 68-21 102 21 34 65 44 97 22 33-22 42-68 21-102-21-34-65-44-97-22zm-111 249c-23 16-30 48-15 73 15 24 46 31 69 16 23-16 30-48 15-73-15-24-46-31-69-16zm-79 233c-18 12-23 37-12 56 12 19 36 24 54 12 18-12 23-37 12-56-12-19-36-24-54-12zm801-1215c-18-282-26-544 122-800 184-318 454-402 776-442-144 141-237 264-318 458-27 87-54 173-81 260-110 282-239 413-499 524zm775-337c-106 151-219 177-372 225 38-144 64-246 139-329 122-134 439-175 553-17-120 19-223 35-321 121zm-290 684c2-94-12-170 53-244 71-82 176-89 273-106-46 42-79 74-100 113-32 59-33 70-66 117-34 48-91 83-159 120zm1126 1028c12-109 5-217-28-329-146-227-195-374-113-650 367 278 383 598 141 979zm-406-197c-331-125-547-69-666 298 182-12 294-31 424-166 75-65 153-106 242-132zm-454 351c59-48 106-79 156-93 170-50 295 19 368 138 41 67 65 148 71 233-110-179-210-187-379-115-129-33-137-50-216-163zm-217-2556c-210 93-385 220-444 472-19 80-17 165 14 283 32-369 149-534 430-755zm105 2356c69-108 190-207 362-172-158 25-257 75-362 172zm1046-253c31-212 4-320-106-502 69 167 101 327 106 502zm-1183-1365c35-107 115-199 300-235-119 65-211 125-300 235zm1198 541c65 58 145 132 233 120-81-89-121-116-233-120zm-2627-3623c43 39 61 41 108 6 52 34 90 25 117 8 41-25 57-80 37-152-51 54-68 72-125 30-22-92-92-139-187-91-247 125-22 547 214 470 336-111 426-588 142-803 17-58-25-89-68-116 19 42 23 36 9 81-57-41-86-62-194-68 0 0 6 21 18 24 137 44 278 179 321 319 21 68 23 146-2 234-74-229-178-374-324-444-152-72-329-100-540-107-223-7-367-7-560-146-83-59-143-145-181-236-36-89-61-197-6-320 34 18 68 36 101 55 13-77 60-176 138-199 69-20 123-1 158 38 79 86 71 266-54 322 229 11 339-169 260-348-89-204-315-316-511-226-144 66-221 236-232 371-25 329 207 551 419 661-230 53-423 115-571 284-86 101-117 267-160 350-36 19-59 27-79 24-26-3-48-24-88-58 11 116 82 156 182 127-71 133-179 246-341 216-62-12-103-50-46-133-15-38-21-54-32-57-36-10-57 12-68 43-39 109 29 200 135 221 116 23 230-28 309-111-4 20-8 40-13 60-77 33-129 43-175 122 41-10 71-10 119-12-49 119-80 203-12 323 143-68 130-180 106-326 33 23 42 40 70 75 17-83-8-122-64-174-1-28 8-60 7-88 12-35 25-69 37-104 68 125 145 183 258 255 100 38 185 54 262 28 134-45 214-125 244-217 38-118-6-255-126-361-46-17-118-175-4-228 20-9 48-4 83 20 16-90-63-124-129-92-54 27-99 100-72 227-77-4-144 25-191 71-71 68-100 173-55 259 51 101 146 139 226 108 114-43 116-154 74-208-42-55-125-32-114 41 47 41 45 80 20 97-33 24-108 8-154-94-28-80 13-145 90-179 60-27 109-25 150-6 188 86 229 359 44 457-89 48-175 64-250 48-116-25-197-94-247-178-99-168-71-337 22-467 168-235 536-328 798-267-357 241-157 765 211 642 85-29 164-155 134-249-43-135-160-161-266-115 118 50 145 182 89 216-70 42-168-60-217-107-19 2-38 3-57 4-70-171 63-292 210-355 72-31 148-47 205-49 158-5 313 17 459 111 79 51 149 124 204 229 31 68 52 132 54 191 3 85-36 158-146 214-23-31-31-38-65-52-7 27-6 42-2 70-32 11-70 6-103-12-38-21-69-61-74-115 11-23 22-46 33-68-20-2-46-12-66-14 4-31 13-61 28-83 23-32 51-38 72-29 43 17 70 85-13 112zm-1075-1201c49-20 104 5 124 56 19 51-4 109-53 130-49 20-104-5-124-56-19-51 4-109 53-130zm155 280c41-17 88 4 105 47 16 43-4 92-45 110-41 17-88-4-104-47-16-43 4-92 45-110zm230 111c34-14 72 3 85 39 13 35-3 76-37 90-34 14-72-3-85-39-13-35 3-75 37-90zm223 38c26-11 56 3 66 30 10 27-2 59-29 69-26 11-56-3-66-30-10-27 2-59 29-69zm187 36c19-8 40 2 47 21 7 20-2 42-20 49-19 8-40-2-47-21-7-20 2-42 20-49zm164 49c14-6 31 1 36 16 6 15-1 32-16 38-14 6-31-1-36-16-6-15 1-32 16-38zm-1019-15c-151-130-295-244-501-260-256-20-417 112-574 295 140-30 248-36 391-5 60 20 120 39 180 59 205 50 332 26 504-89zm-515 338c129-2 192-61 283-136-97-37-165-64-244-52-127 19-283 198-242 336 61-66 113-123 203-148zm506 108c-54-38-91-79-159-70-76 10-124 71-174 124 43-11 75-18 106-15 47 5 53 9 93 8 41-1 85-22 134-48zm105 1128c-66-38-124-88-173-156-66-186-128-278-318-343 2 344 176 488 491 499zm60-334c69-258 191-367 447-287-83 108-141 169-271 192-68 19-124 50-176 94zm388-134c-52 16-89 33-118 57-100 84-113 191-77 286 20 53 56 102 101 142-54-143-17-208 94-283 36-93 30-106-1-202zm-1346-1208c141-91 285-145 452-76 53 22 100 59 153 127-221-135-363-132-605-51zm1280 1055c-90-2-196 31-249 152 81-87 150-128 249-152zm-582 541c-132-70-182-132-238-276 65 113 141 200 238 276zm-270-1305c-75-23-161-12-258 87 87-46 159-78 258-87zm-199 969c6 65 13 145-30 195-16-87-14-123 30-195zm2075 9650c9-21 33-51 64-69 61-35 143-6 143 73 0 126-130 156-219 135-234-55-368-250-412-454-172-802 327-1530 760-2168 53-78 96-162 140-243 101-235 148-455 131-717-153-23-291-130-371-254-37-58-62-123-69-189-21-195 103-297 282-220 187 80 286 378 308 589 50 10 118-4 152-17 20-220-1-420-46-615-48-207-137-403-130-620 5-182 78-334 243-480-116 152-154 254-173 455-4 113 11 216 35 316 29 122 69 240 100 369 40 169 48 345 55 535 194-137 332-325 342-583 6-164-32-282-112-417-42 3-71 3-100-3-70-15-182-91-150-182 16-47 56-69 101-74 55-6 119 10 155 40 86 73 133 191 155 318 76 448-56 827-389 1012-83 449-196 822-490 1152-71 66-141 132-212 197-156 142-241 290-353 473-119 242-214 487-290 749-50 282-81 600 132 821 57 60 128 94 217 69zm908-3441c-48 16-96 23-146 21-17 287-75 521-191 770 185-225 276-494 338-791zm-282-107c-24-173-85-447-258-478-89-16-121 23-112 119 16 178 252 354 370 360zm-521-174l-205 323-356-107 230 305-207 323 347-135 229 306-15-388 348-134-357-105-14-388zm-272 1048l-202 199-242-141 118 263-203 198 275-36 117 264 52-285 275-35-243-140 53-285zm-268 736l-141 131-162-101 75 181-142 131 188-19 75 182 41-193 188-19-163-100 41-193zm-98 622l-96 85-106-70 47 122-96 84 125-9 47 122 30-128 125-9-107-70 31-128z"/><path d="m11762 3319c-22 41-36 47-79 32-31 39-61 42-85 37-36-8-61-45-64-104 51 27 67 36 100-10-6-74 35-127 117-116 213 28 146 402-47 405-276 5-457-326-297-560-26-39-3-73 23-104-4 37-8 33 13 62 33-46 49-69 128-101 0 0 0 17-8 23-92 68-164 206-163 321 1 56 18 114 57 173 1-190 43-325 136-415 96-94 221-161 376-221 164-64 271-101 382-255 47-66 72-145 78-223 6-75-1-163-72-240-21 22-42 45-62 67-28-54-87-115-150-112-56 3-91 31-109 70-38 84 11 216 117 226-168 68-292-37-277-191 18-175 159-318 326-302 123 12 221 118 261 216 97 238-23 464-154 602 184-21 342-25 492 62 88 52 150 168 202 219 32 5 50 4 65-3 19-9 30-30 52-66 20 89-23 138-105 142 85 81 191 136 305 71 44-25 65-64 2-110 2-32 3-46 10-51 24-17 45-6 61 14 55 71 26 156-48 200-81 48-178 40-256-2 8 14 16 27 24 41 65 4 106-2 159 45-33 3-55 11-91 22 65 76 108 130 86 237-123-13-139-100-156-215-19 25-22 40-35 74-32-58-23-93 6-147-6-21-20-43-26-64-17-22-35-45-52-67-21 111-64 174-131 258-66 54-125 88-188 89-110 2-189-37-233-97-57-78-56-191 8-301 30-25 46-161-51-171-17-2-36 9-57 37-33-63 18-109 74-102 47 6 97 49 108 150 56-23 113-19 159 3 69 32 115 102 103 178-14 88-75 141-142 140-95-2-123-84-105-135 18-52 85-57 94 1-25 43-14 71 8 78 30 9 82-22 92-110 2-67-44-104-110-110-51-4-87 10-113 35-119 114-85 327 76 352 78 12 145 2 198-30 80-49 124-121 141-197 34-151-27-269-128-341-181-131-477-104-657 11 323 86 299 528-4 533-70 1-159-73-159-150 0-111 81-162 170-155-76 68-65 173-15 184 62 13 111-89 136-137 15-4 29-8 44-12 11-145-116-201-241-209-61-4-121 4-164 17-119 38-229 94-315 203-47 59-82 131-98 224-7 59-7 112 5 156 18 64 65 108 160 121 10-29 14-36 36-56 11 18 14 29 18 51 27 0 54-14 74-36 23-26 37-63 28-105-14-14-27-28-41-42 14-6 32-21 46-27-10-22-24-42-41-54-25-18-47-15-61-3-28 24-32 82 36 80zm514-1175c-41-2-76 31-79 74-2 43 29 80 71 83 41 2 76-31 79-74 2-43-29-80-71-83zm-49 249c-35-2-65 26-66 63-2 37 25 68 60 70 35 2 65-26 66-63 2-37-25-68-60-70zm-145 143c-28-2-53 21-54 51-2 30 20 55 49 57 28 2 53-21 54-51 2-30-20-55-49-57zm-157 87c-22-1-41 16-42 40-1 23 16 43 38 44 22 1 41-16 42-40 1-23-16-43-38-44zm-130 76c-16-1-29 12-30 28-1 16 11 31 27 31 16 1 29-12 30-28 1-16-11-31-27-31zm-110 79c-12-1-23 9-23 22-1 13 9 24 21 24 12 1 23-9 23-22 1-13-9-24-21-24zm755-278c81-136 161-259 311-325 186-82 337-26 497 69-111 14-193 38-292 99-40 30-80 61-120 91-140 91-241 106-396 66zm464 117c-97 33-157 5-243-27 63-53 108-91 169-103 99-19 258 73 260 186-62-33-114-62-186-57zm-351 213c31-42 49-82 102-94 59-12 109 21 159 47-34 3-60 6-82 17-34 16-37 21-68 31-31 10-68 6-111-1zm190 867c40-46 72-98 92-161 5-155 29-240 155-339 80 256-14 409-247 500zm-124-233c-113-174-230-223-401-96 87 58 145 89 248 72 55-4 104 5 153 24zm-320 2c42-2 74 1 101 12 94 37 130 112 125 192-2 45-18 91-42 132 6-121-37-160-138-185-49-60-47-71-47-151zm714-1251c-126-31-247-33-355 62-34 30-60 70-84 135 132-158 238-194 438-196zm-702 1120c66-25 153-29 221 48-81-44-142-56-221-48zm562 250c82-86 104-146 111-268-22 101-58 186-111 268zm-109-1042c50-37 116-51 213-3-75-12-137-16-213 3zm379 669c11 50 25 112 69 137-9-69-19-96-69-137zm-935 2863c-6 65 4 84 64 105 4 71 36 100 68 116 47 22 105 2 154-62-78-14-105-18-106-98 65-79 60-175-41-233-264-152-482 329-265 501 309 245 774 25 777-379 60-21 61-80 56-138-24 45-16 44-63 60-1-80-2-121-66-225 0 0-14 19-9 32 50 157 24 376-68 506-45 63-110 115-201 147 148-216 206-406 172-588-35-189-124-373-253-576-136-214-229-349-233-619-2-116 32-227 87-321 53-91 130-183 270-210 6 43 12 87 18 130 74-37 189-56 258 3 61 52 79 115 69 173-23 129-182 236-310 155 137 222 361 211 464 23 117-214 69-498-133-625-148-93-343-58-465 19-297 186-338 546-297 816-192-182-368-325-607-356-141-17-302 60-401 74-40-22-61-39-71-59-14-27-10-60-6-120-93 84-82 177 8 252-159 18-324-11-402-183-30-66-23-129 84-127 22-38 33-54 29-66-14-41-46-46-80-36-118 33-152 155-103 268 54 124 170 199 292 220-20 9-39 17-59 26-77-51-119-94-216-87 35 32 54 60 87 104-133 30-225 54-283 195 149 91 236 7 346-108 2 45-7 65-19 114 82-38 99-85 108-172 23-18 57-31 80-49 37-10 75-21 112-31-64 144-64 253-54 406 32 118 73 209 143 264 124 97 243 121 341 91 125-39 214-169 228-349-15-54 74-222 192-149 21 13 34 42 36 91 87-43 66-139-4-180-58-34-149-29-240 77-46-75-113-119-183-135-104-24-211 16-257 113-53 112-26 225 52 282 109 79 205 11 225-63 20-75-52-138-108-81-5 70-40 93-70 81-42-16-76-96-17-205 50-77 132-80 211-30 61 39 91 87 101 137 46 232-160 444-363 333-98-53-166-124-201-205-53-125-46-245-5-346 80-201 242-281 413-277 308 8 623 295 738 580-434-181-754 340-414 608 79 62 237 55 298-33 88-126 35-254-71-323 32 143-62 253-128 221-80-39-56-197-47-273-13-17-27-34-40-51 102-175 290-128 437-29 72 48 135 109 173 162 105 146 185 305 198 502 7 107-11 220-65 338-38 73-80 134-128 173-71 57-158 67-276-1 11-41 13-53 3-95-28 11-39 21-61 42-30-23-50-62-56-104-6-49 8-103 51-144 26-4 53-8 79-13-11-20-20-51-31-71 29-17 60-27 89-26 42 1 64 24 71 49 13 51-28 121-104 59zm340-1778c49 33 63 101 31 152-31 51-96 66-145 33-49-33-63-101-31-152 31-51 96-66 145-33zm-140 324c41 28 53 85 26 128-27 43-81 55-122 28-41-28-53-85-26-128 27-43 81-55 122-28zm52 287c34 23 43 70 21 105-22 35-66 45-100 23-34-23-43-70-22-105 22-35 66-45 100-23zm109 234c26 18 34 54 17 81-17 27-52 35-78 18-26-18-33-54-17-81 17-27 52-35 78-18zm88 198c19 13 24 38 12 58-12 19-37 25-55 12-19-13-24-38-12-58 12-19 37-25 55-12zm63 186c14 10 18 30 9 45-9 15-28 19-43 10-14-10-18-30-9-45 9-15 28-19 43-10zm-638-968c15-225 20-434-97-637-147-254-362-320-618-352 115 112 189 211 254 365 22 69 43 138 65 207 88 224 190 329 397 417zm-618-269c84 120 175 141 296 179-30-115-51-196-111-262-97-107-350-139-441-13 96 15 178 28 256 96zm231 545c-2-75 9-136-42-194-57-65-140-71-217-85 37 33 63 59 80 90 26 47 26 56 53 93 27 38 73 66 127 95zm-897 819c-10-87-4-173 22-262 116-181 156-298 90-518-293 222-305 477-112 780zm323-157c264-100 436-55 531 237-145-9-234-25-338-132-60-52-122-85-193-105zm362 279c-47-38-85-63-124-74-136-40-235 15-293 110-32 53-52 118-56 186 88-142 167-149 302-92 103-26 109-40 172-130zm173-2037c167 74 307 176 354 376 15 64 13 132-11 225-26-294-118-426-343-602zm-84 1878c-55-86-152-165-289-137 126 20 205 60 289 137zm-834-202c-25-169-3-255 84-400-55 133-81 260-84 400zm942-1087c-28-85-92-159-239-187 95 52 168 99 239 187zm-955 431c-52 47-116 105-186 96 64-71 96-92 186-96zm2094-2887c-34 31-49 33-86 4-41 27-71 20-94 6-32-20-45-64-29-121 41 43 54 57 100 24 17-73 73-111 149-72 196 100 17 436-170 374-268-89-339-469-113-640-13-46 20-71 54-93-15 34-18 29-7 64 46-33 69-49 154-54 0 0-5 16-14 19-109 35-221 143-256 254-17 54-18 116 2 186 59-182 142-298 258-354 121-58 262-80 430-85 178-6 292-5 446-116 66-47 114-115 144-188 29-71 49-157 5-255-27 15-54 29-81 44-10-62-48-140-110-159-55-16-98-1-126 30-63 68-56 212 43 257-182 9-270-134-208-278 71-163 251-252 407-180 114 53 176 188 185 296 20 262-165 439-334 527 183 42 337 91 455 226 69 80 93 212 127 279 29 15 47 21 63 19 21-3 38-19 70-46-8 93-65 125-145 101 57 106 142 196 272 172 50-9 82-40 36-106 12-30 17-43 25-46 29-8 45 9 54 34 31 87-23 159-107 176-92 18-183-22-246-88 3 16 7 32 10 47 61 26 103 35 139 97-33-8-56-8-95-10 39 95 64 162 10 257-114-54-103-143-84-260-26 18-33 32-56 60-13-67 6-97 51-139 1-22-6-48-6-70-10-28-20-55-30-83-54 100-116 146-206 204-80 30-148 43-209 22-107-36-170-99-194-173-31-94 5-203 100-288 37-14 94-139 3-182-16-7-38-4-66 16-12-72 50-99 102-73 43 22 79 80 58 181 61-3 114 20 152 56 57 54 79 138 44 207-41 80-116 111-180 86-91-34-92-123-59-165 34-44 99-26 91 33-37 33-36 64-16 77 27 19 86 6 122-75 22-64-11-116-72-143-47-21-87-20-120-5-150 69-182 286-35 364 71 38 139 51 199 38 93-20 157-75 197-142 79-134 56-268-18-372-134-187-427-261-636-213 284 192 126 610-168 511-68-23-131-124-107-198 34-107 128-128 212-92-94 40-116 145-71 172 56 33 134-48 173-86 15 1 30 2 45 4 56-136-50-233-167-283-57-24-118-38-164-39-126-4-249 13-366 88-63 41-119 99-163 182-25 54-42 106-43 152-2 68 29 126 116 171 18-24 25-30 52-42 5 22 5 33 2 55 26 9 56 5 82-9 30-17 55-48 59-92-9-18-17-36-26-54 16-1 37-9 53-11-3-25-10-49-23-66-18-26-40-30-58-23-34 13-56 68 10 89zm857-957c-39-16-83 4-99 45-15 41 4 87 42 103 39 16 83-4 99-45 15-41-4-87-42-103zm-123 223c-33-14-70 3-83 38-13 35 3 74 36 87 33 14 70-3 83-38 13-35-3-74-36-87zm-183 88c-27-11-57 3-68 31-11 28 2 60 29 71 27 11 57-3 68-31 11-28-2-60-29-71zm-177 31c-21-9-44 2-53 24-8 22 2 47 23 55 21 9 44-2 53-24 8-22-2-47-23-55zm-149 29c-15-6-32 1-38 17-6 16 1 33 16 39 15 6 32-1 38-17 6-16-1-33-16-39zm-131 39c-11-5-24 1-29 13-5 12 1 26 13 30 11 5 24-1 29-13 5-12-1-26-13-30zm812-12c120-104 235-195 399-207 204-16 332 89 458 235-111-24-198-28-312-4-48 16-96 31-144 47-163 40-265 21-402-71zm410 269c-103-1-153-49-225-108 77-29 131-51 194-41 101 15 225 158 193 267-49-53-90-98-161-118zm-403 86c43-30 72-63 127-55 60 8 99 57 139 99-34-9-59-14-84-12-37 4-42 7-74 7-33-1-68-17-107-38zm-84 899c53-30 99-70 138-124 53-148 102-221 253-273-2 274-140 389-392 397zm-48-266c-55-205-152-293-356-229 66 86 112 135 216 153 54 15 99 40 140 75zm-309-106c41 13 71 26 94 46 79 67 90 152 61 228-16 42-45 82-81 113 43-114 14-166-75-225-29-74-24-84 1-161zm1073-963c-112-72-228-116-360-61-42 17-79 47-122 101 176-108 289-106 482-40zm-1020 841c71-2 157 24 198 121-64-70-120-102-198-121zm464 431c106-55 145-105 189-220-52 90-113 159-189 220zm215-1040c60-19 128-10 206 69-69-37-126-62-206-69zm159 772c-5 52-11 116 24 155 13-70 11-98-24-155zm-1654 7691c-7-17-26-41-51-55-49-28-114-5-114 58 0 100 103 124 175 107 187-43 294-199 328-362 137-639-261-1219-606-1727-42-63-77-129-112-193-80-187-118-363-104-571 122-18 232-103 295-202 30-46 49-98 55-151 17-155-82-236-225-175-149 64-228 302-245 470-40 8-94-3-121-13-16-175 1-335 37-490 38-165 109-321 104-494-4-145-63-267-194-382 92 121 123 203 138 362 4 90-9 172-28 252-23 97-55 191-80 294-32 135-39 275-44 426-154-109-265-259-273-464-5-131 25-225 89-332 34 3 56 2 80-3 56-12 145-73 120-145-13-37-45-55-81-59-44-5-95 8-123 32-68 59-106 152-123 254-60 357 45 659 310 807 66 358 156 655 391 918 56 52 112 105 169 157 124 113 192 231 282 377 95 193 170 388 231 597 40 225 65 478-105 654-46 47-102 75-173 55zm-724-2742c38 13 77 18 117 17 14 229 60 415 153 613-147-179-220-394-269-630zm225-86c19-138 68-356 206-381 71-13 96 18 89 94-13 142-200 282-295 287zm415-139l164 258 284-85-183 243 165 257-277-108-182 244 12-310-277-106 284-84 11-310zm217 835l161 158 193-113-94 210 162 158-219-29-93 210-42-227-219-28 193-112-42-227zm214 586l112 105 129-80-60 144 113 104-150-15-60 145-32-154-150-15 130-80-33-154zm78 496l77 68 85-56-38 97 77 67-100-7-37 97-24-102-100-7 85-56-25-102z"/></g></g></g><path d="m15898 20659c-90 2-142 77-178 147-38-9-71-3-102-4-59-2-89-23-159 5-57 22-106 75-125 143-21 76-61 71-111 158-35 62-54 131-54 228-123 0-284-131-423-3-51 47-90 121-109 190-28 103-8 52-95 116-21 16-34 31-53 52-21 23-27 33-51 44-11 5-22 7-35 12-44 19-65 37-115 46-64 13-117 37-160 87-56 66-140 94-177 187-12 31-11 54-28 79-18 26-23 17-41 55-35 70-14 180-79 231-13 10-16 10-28 20l-100 62c-131 91-247 214-187 390 26 76-20 80-20 158 0 119 97 253 187 275-29 132-46 165 19 294-102 25-206 153-206 284 0 53 28 96 28 118 0 19-16 41-24 63-39 113 16 211 92 277 17 15 20 14 37 30 20 18 17 18 41 36 40 29 53 33 96 56 66 35 105 99 122 176 10 44 15 74 36 109 58 98 42 139 98 202 37 42 37 39 85 67 56 34 57 90 166 130 50 18 68-1 114 28l102 50c51 34 88 122 167 129 0 129 99 314 234 314 80 0 153-6 218-36 170-78 54 90 201 274 34 43 39 16 68 76 98 204 188 157 392 157 5 62 69 109 119 130 104 43 32 36 87 174 57 142 163 234 267 245h41c64-7 123-48 166-131 35-69 78-171 78-272 168-41 119-147 206-147 185 0 289 47 368-163 18-49 55-64 88-104 50-61 68-162 68-252 114-3 21-15 135 25 88 31 229 44 302-27 47-46 75-104 102-168 17-39 10-74 37-98 42-39 81-50 126-103 34-39 4-20 57-38 65-21 60-44 127-53 55-7 92-20 129-51 6-5 14-13 20-18l72-71c89-64 109-105 146-209 16-44 41-58 59-124 16-59 32-82 48-136 22-75 106-78 204-158 224-183 124-305 119-370-3-35 76-165-24-300-23-31-63-81-100-91 59-116 81-230 19-353 215-119 103-370 103-373 0-90 142-193-159-402-34-24-59-33-97-55-11-7-39-27-44-32-25-25-34-78-49-115-37-92-14-65-73-168-43-74-21-136-116-202-17-11-34-19-46-30-15-13-20-25-35-42-87-102-138-69-259-130-41-21-74-17-104-57-32-42-80-94-139-100-10-46-11-78-28-118-43-100-136-206-252-206-54 0-126 21-175 42-1 0-25 11-26 12-35 19-30 25-89-5 0-131-32-235-120-305-55-44-25-24-54-91-49-111-153-151-261-129-42 9-89 5-135 5-15-68-86-141-159-147 0-161-126-392-271-392h-47c-147 0-271 231-271 392z" fill="#fff" stroke="#fff" stroke-width="7.62"/><g fill="#201e1e" stroke="#201e1e" stroke-linejoin="round" stroke-linecap="round" stroke-width="40"><path d="m18358 24104c-16 217 377 191 269-30-12 30-47 37-80 20 0-27-4-57 10-70 117-14 111 94 159 149-61 55-129 157-259 109-25 17 39 27 30 60-137 40-178-100-189-219 21-6 28-25 60-20z"/><path d="m18390 23958c-111 61-155 346-112 524 26-4 28-32 70-20 13 17 26 33 20 70-8 9-27 6-30 20-55 12-60-26-90-40 0 30 0 60 0 90 8 24 25-27 60-10 42 35 16 113-60 90-10-23-34-32-30-70-31 39-42 97-40 169 11-32 65-21 80 0 2 106-132 72-119-20-38 22-55 64-70 110 12 4 59-1 60 40-11 96-145 25-99-50-38-7-96 50-129 80 7 9 45-5 50 30 10 72-94 56-99 10-7-43 17-56 30-80-132-11-239-47-239-189 18-27 78-23 109-10 6 23 20 60 0 80-32 9-38-9-50-20-16 85 147 122 249 90-21-22-61-25-60-70 1-29 23-37 40-50 25-2 31 16 50 20 8 32-9 38-20 50 59-14 105-41 149-70-18-22-56-24-70-50-1-44 18-68 70-60 13 13 13 37 0 50 42-21 59-67 80-110-19-18-64-9-80-30-4-44 6-74 50-70 21-5 19 14 20 30 48-48 36-157 50-239-14-23-18 48-60 30-44-163 108-245 169-348-185 104-193 384-498 368-25-22-62-31-70-70-14-5-51 12-50-10-12-13-4-16 0-30 57-26 49-117 149-99 20 13 30 67 10 90-37 1-81 7-70-40-23 8-27 61-10 80 190 155 381-202 488-308-32 18-53 46-109 40-5-102 113-79 179-109 74 24 323-66 358 70-73-28-176-24-249 20-37 22-50 73-99 70 3-20 8-37 22-46zm0 0c3-1 5-3 8-4-3 1-5 2-8 4z"/><path d="m18274 23062c-102-113-226-415-472-313-12 28-12 61 0 90 10-30 29-50 80-40 20 23 10 76-10 90-99 2-126-67-149-140 13 0 27 0 40 0 23-14 32-41 50-60 305-59 342 234 507 349-38-104-199-180-149-329 40-10 44 16 60 30-8-89-10-183-40-249-6 36-49 34-80 20 0-20 0-40 0-60 22-11 41-26 80-20-11-52-44-82-70-120-19 1 16 37-10 50-110 23-63-131 0-90-18-59-91-62-139-90 1 5 19 57-20 70-37 4-45-21-60-40-3-46 33-54 60-70-84-48-240-12-259 70 17 32 21-31 60-10 20 20 6 57 0 80-31 13-92 18-109-10-1-140 103-175 229-189 3-13-44-87 0-120 38-5 64 3 80 20 10 34-23 76-40 50-8 48 90 75 129 110-19-24-10-83 0-110 36-18 83-9 90 30 1 34-30 67-60 40 2 61 44 82 60 129 28-8 12-61 30-80 52-48 131 17 80 70-19-5-60 13-50-20-31 54 12 121 20 169 16-20 21-52 40-70 76-24 102 55 60 90-34 8-42-11-60-20 0 37 0 73 0 110 17-13 20-40 40-50 39-6 58 9 80 20 6 36-7 53-20 70-32 6-50-3-60-20-64 171-6 440 99 538 18-15-38-39-10-70 63 82 196 158 338 100-27 105-241 92-328 50-58 33-211 2-209-90 39 4 73 12 94 34z"/><path d="m18618 22908c137-203-280-259-259-30-31 5-39-14-60-20 12-118 51-260 189-219 2 35-34 33-40 60 137-53 196 56 269 100-31 69-61 190-169 149-6-36 7-53 20-70 25 1 51 2 50 30z"/><path d="m18617 23436c38 139-215 215-219 10 34 22 45 68 90 80 36-4 55-25 70-50-28-18-62-31-99-40 19-85 143-60 159 0z"/><path d="m18478 23625c-68-5-81 45-90 100-42-11-50-56-60-100-25 1-31 19-50 0 6-67 63-83 90-129 37 43 84 76 109 129z"/><path d="m18369 23217c38 58 117 118 79 219-27-17-32-54-70-60-49-9-38 42-80 40-33-92 49-131 70-199z"/><path d="m18398 23954c-3 1-5 2-8 4 2-1 5-3 8-4z"/><path d="m18239 23516c41-2 56-30 99-30-85 226-346-99-129-110 45-2 69 27 90 70-47-7-68 11-109 10-16 14 33 46 50 60z"/><path d="m18150 23854c-1 25-14 39-40 40-42 12-18-42-40-50-151 45-31 173 70 169-89 60-189-28-179-120 4-37 45-48 50-90 37 3 109-1 139 50z"/><path d="m18100 23087c32-9 31 16 50 20-6 74-105 62-129 70-130-67-16-301 119-209-49 40-170 9-139 129 12 24 41 32 70 40 22-4-1-55 30-50z"/><path d="m17882 22420c6 145-96 183-229 189-25 16 32 33 20 70 9 94-141 60-90-20 23-3 38 2 50 10-30-46-77-75-129-100-13 28 7 76-30 100-20 0-40 0-60 0-6-21-25-28-20-60 14-6 24-16 30-30 20 3 26 20 40 30-10-59-42-97-70-139-21 42-24 102-99 90-26-18-26-72 0-90 37-10 32 21 50 30 5-71-10-123-30-169-16 31-27 66-70 70-33-7-54-26-50-70 18-25 62-25 80 0-6-45 18-62 10-110-30 73-188 33-109-50 43-10 46 21 70 30 46-189 1-432-99-538-24 8 31 41 0 60-67-79-182-140-338-100 44-128 270-45 348-70 67 33 188 11 189 110-41 4-68-5-88-20-11-12-21-22-31-29 9 11 19 21 31 29 79 90 186 300 317 329 71 16 202 3 149-120-16 17-9 57-50 50-40 1-43-37-40-80 87-53 142 52 179 110-12 11-18 28-50 20-218 237-443-201-577-319 34 96 221 194 169 359-38 9-35-24-60-30 18 75 5 181 40 239 18-9 13-40 50-30 25 12 37 36 30 80-14 15-51 9-80 10 6 50 37 76 60 110 20-13 18-48 60-40 25 12 37 36 30 80-21 8-34 26-70 20 24 46 81 58 129 80 9-7-7-47 20-60 97-27 88 124 0 100 78 57 251 26 269-70-10-24-40 41-60 10-48-72 64-118 109-70z"/><path d="m17704 25127c89-95-50-130-121-117-163 29-237 280-358 338 26 16 56-50 119-30 2 92-161 113-209 90-96 39-287 48-328-50 145 33 280-5 328-99 42 12 0 51-10 70 126-87 172-377 110-558-17 3 9 31-20 40-31 5-39-14-60-20-32-84 110-95 109-30 40-11 11-69 10-100-8-24-25 27-60 10-5-9-9-18-20-20-17-95 123-84 109 0 36-30 40-93 40-159-11-26-12 40-50 20-26-18-26-72 0-90 69-9 86 33 90 90 42-24 54-79 80-119 0-18-47 16-60-10-14-31-4-45 10-70 76-16 104 46 79 100 34 4 93-53 129-80-9-8-37-3-50-30 1-42 23-63 70-60 10 10 20 20 30 30 12 59-22 71-40 100 148-2 250 42 249 189-45 48-157 2-109-70 35-18 33 8 60 20-12-109-172-125-269-90 36 17 82 24 70 90-17 13-33 26-70 20-12-16-32-39-10-60-59 10-97 42-139 70 58 1 98 77 40 110-29 9-65-27-40-40-31-11-62 64-80 100 4 22 49 4 70 10 14 30 14 72-10 90-28 2-54 1-50-30-52 41-28 158-50 229 31 5 23-31 60-20 46 161-110 247-169 349 158-72 234-434 488-378 55 12 68 74 139 90-38 55-63 123-149 129-7-9-18-15-30-20-3-43-1-80 40-80 29-1 49 27 32 48z"/><path d="m17383 25258c95-65 193 22 179 120-5 39-51 41-40 90-66-8-171-15-139-90 20 0 40 0 60 0 13 13 13 37 0 50 151-21 67-183-60-169z"/><path d="m17524 21673c22-61-14-108-70-120-19 1 16 37-10 50-20 0-40 0-60 0 2-12-2-18-10-20 7-60 78-54 129-70 114 70 47 293-119 219 29-38 111-22 139-60z"/><path d="m17256 21643c-12-9-21-19-31-29 10 7 20 17 31 29z"/><path d="m17045 24910c138-5 188 130 169 249-24-4-22 18-50 10 25-226-382-190-269 30 14-20 28-39 70-30 14 25 24 39 10 70-105 38-123-86-169-139 55-69 157-171 279-110-10-30-55-25-40-80z"/><path d="m17166 21812c35 12 33 14 60 20-3 128-56 255-179 229-13-50 34-39 40-70-123 66-213-44-279-100 39-64 64-185 169-149 6 39 8 41-10 70-30 0-66 6-60-30-144 205 288 267 259 30z"/><path d="m17005 25667c1 51-13 86-40 110-36 3-40-27-50-50-86 32-147-36-249-20 90 26 205 27 229 120-34 19-51 56-40 120-57-55-134 41-189-40 3-47 74-26 70-80-95-110-426-20-467-189-14-55 2-151 99-139 14 19 26 40 30 70-24 9-26 40-70 30-20 126 267 142 209 0 30-7 36 10 60 10 2-25-15-31-30-40-50-7-56 30-90 40-60-48 25-88 0-139 33 0 66 0 99 0 18-66 42-175 139-129-41 44-18 91-20 169 59-1 94-26 149-30 32 162-171 88-209 179 89-18 250-69 288 30 22-11 41-26 80-20z"/><path d="m16997 21304c-34 4-56-4-80-10-48 78-208 48-288 20 34 95 235 24 209 179-55-2-98-15-139-30-29 51-30 120 0 179-27 0-53 0-80 0-12-52-63-63-50-139-34 3-57 16-99 10 11-47-38-68-30-139 57-10 58 35 99 40 25-1 39-14 40-40-1-22-25 13-50 0 42-143-221-118-219 0 6 24 61-1 70 20 6 39-9 58-20 80-34 4-56-4-80-10-21-42-41-68-30-120 36-168 351-98 477-189 0-50-45-55-79-70 39-103 132-2 189-60 23 31-11 117 50 110-25 84-103 116-209 119 74 37 146-42 219-10 9-24 26-40 50-50 31 22 40 66 50 110z"/><path d="m16428 25906c28 57 7 107 30 179-144-49-200-185-249-329-56 144-125 273-269 329 31-175 108-303 239-378-40-108 5-211 0-339 17 0 33 0 50 0 45 121-12 236 10 329 16 72 156 143 189 209z"/><path d="m16440 20886c7 207-125 273-219 378 20 95 24 262-20 349-91-82-16-238-40-329-15-59-110-95-149-150-57-80-54-152-79-249 127 66 218 167 249 329 64-52 53-146 100-209 39-54 99-89 159-119z"/><path d="m16189 25925c123 113 118 415 30 558-144-116-74-386-30-558z"/><path d="m16191 20497c122 122 91 408 0 548-73-149-122-416 0-548z"/><path d="m16020 25577c0-151 159-58 129 60-43 172-366 83-477 179-5 58 60 46 79 80-38 83-128 10-189 50-23-27 10-109-40-110 14-102 122-110 229-119-80-42-164 47-239 10-30 10-20 59-70 50-14-36-35-64-40-110 39-6 58 9 80 20 47-88 195-56 288-30-34-92-225-27-209-169 44-24 95 21 149 20 18-59 26-133-10-169 14-15 51-9 80-10 11 52 61 65 50 139 36 0 73 0 109 0-28 60 35 56 20 129-32 30-113-85-139 0 8 29 25-13 50 0-25 154 219 111 219 10-14-19-51-15-70-30z"/><path d="m16072 21384c27-135-264-154-209-10-30 7-36-10-60-10 1 29 23 37 40 50 48 1 43-50 99-40 8 64-22 91-30 139-40 7-57-10-90-10 4 45-31 98-60 139-29-1-65 5-80-10 1-25 14-39 40-40-16-34-23-76-20-129-49 11-93 27-149 30-28-157 172-86 209-179-80 25-243 62-288-20-24 6-45 14-80 10-1-50 22-78 40-110 23 10 53 13 50 50 80-23 160 37 229 20-82-28-190-29-209-120 34-19 51-56 40-120 62 57 141-41 189 50-9 41-82 18-70 80 42 81 162 39 249 50 157 20 330 178 139 279-30-13-47-39-40-90 12-11 35-11 60-10z"/><path d="m15465 21732c93 0 79 107 139 139-51 70-148 183-269 120-25 19 45 27 30 70-128 30-175-102-179-229 29-6 17-7 50-20-21 231 407 180 269-30-4 39-62 36-80 10-4-38 21-45 40-60z"/><path d="m15264 25258c60 85 185 137 338 100-44 99-249 93-338 40-15 4 4 13 0 30-81-25-194-18-209-110 71-14 84 28 129 40-113-63-196-313-348-349-69-16-204-3-149 120 4-87 124-44 80 40-99 37-119-68-169-110-5-31 21-32 50-30 220-234 430 195 567 309-34-86-219-201-159-349 32-9 31 16 50 20 5-91-8-164-30-229-15 14-20 40-60 30-27-22-28-41-20-80 14-15 51-9 80-10-14-49-42-84-70-120-10 7 5 45-30 50-42-1-57-29-50-80 21-6 28-25 60-20-13-57-82-57-129-80-19 13 23 21 0 50-23 3-37 16-70 10-12-28-12-61 0-90 23 0 29-17 60-10-79-50-254-33-269 70-2 12 49-32 70 0 5 65-33 86-99 80-74-113 66-219 209-209 6-12-43-77-10-120 23 0 29-17 60-10 17 16 25 42 20 80-14-2-36 5-41-6-1-5 0-9 1-14-2 7-2 11-1 14 5 48 90 75 130 105 2-32-18-42-10-80 22-18 40-39 90-30 15 14 15 65 0 80-32 9-38-9-50-20 1 72 50 96 70 150 15-51 18-115 99-100 26 18 26 72 0 90-18-2-50 10-40-20-30 47 5 114 10 159 20-59 127-108 129 0-8 15-81 45-70-10-27 23-19 81-20 129 21-32 45-62 110-50 25 27 20 69-10 90-28 2-54 1-50-30-68 167-13 445 89 538 24-8-31-41 0-60z"/><path d="m15604 21622c-145-33-281 4-328 99-44-14-3-53 10-70-127 82-164 349-120 538 13 16 42-43 80-10 45 94-96 114-109 30-28 32 2 90 0 129 4-39 62-36 80-10 7 43-18 55-40 70-50 3-62-30-80-60-30 26-32 81-30 139 9 27 18-27 50-10 86 102-129 126-90-10-34 39-67 79-80 139 6 24 16-30 50-10 15 14 15 65 0 80-34 4-56-4-80-10-8-24-20-69 0-90-64 12-97 56-139 90 1 22 25-13 50 0 5 38-3 64-20 80-30 7-36-10-60-10-21-42-7-96 20-120-149 13-293-94-219-209 62-2 106 13 99 80-28 22-55 23-70-10 8 113 172 125 269 90-51-7-91-51-60-110 20 0 40 0 60 0 14 13 14 47 0 60 62-11 109-36 149-70-38-16-84-23-70-90 19-4 25-21 50-20 13 14 46 25 20 50 43-20 57-69 80-110-14-16-52 2-80-20 0-23 0-46 0-70 25-9 68-19 70 20 38-48 40-133 40-219-9-27-18 27-50 10-48-148 94-241 149-329-173 106-192 366-478 358-25-22-62-31-70-70-26 0-59 5-60-20 29-60 114-187 179-90 2 39-16 57-50 60-31 5-32-21-30-50-23 10-21 46-20 80 246 161 365-226 517-309-30-17-81 75-139 30 15-69 163-108 209-80 108-35 288-48 338 50z"/><path d="m15493 25198c168-184-282-283-249-30-31 5-39-14-60-20 2-129 52-258 179-229 7 44-32 41-40 70 123-62 211 44 279 100-27 64-107 227-179 120 1-25 14-39 40-40 26-6 36 4 30 30z"/><path d="m15026 25377c2 96-63 68-139 90-87-98-20-286 139-219-98 12-233 120-70 179 19-1-16-37 10-50 20 0 40 0 60 0z"/><path d="m14967 21553c-155 19-71 189 60 169-118 95-251-102-139-179-12-13-4-16 0-30 71 25 137-7 139 80-12 11-35 11-60 10-13-13-13-37 0-50z"/><path d="m14787 24301c-1 5-1 10-1 14-1-3-1-8 1-14z"/><path d="m14127 23918c113 116 231 416 481 314 9-40 9-50 0-90-10 30-29 50-80 40-16-24-25-48-10-80 97-33 150 53 169 130-71-8-76 50-119 70-306 14-324-260-497-379-9 26 62 57 60 110 10 0 8-12 10-20 46 72 151 180 89 269-31 5-26-27-50-30 1 92 9 176 40 239 3-41 75-38 80 0 0 46-28 65-80 60 1 62 45 81 70 120 19-1-16-37 10-50 17 0 33 0 50 0 14 6 1 38 20 40-3 41-40 46-70 60 35 44 91 68 159 80 4-24-45 6-30-30 49-114 147 73 20 70 91 46 257 18 269-80-28-2-19 34-60 20-18-29-16-31-10-70 23-17 56-24 99-20 60 127-84 203-209 209-4 23 42 90-10 120-40 4-69-4-70-40-1-30 29-50 50-30-28-48-81-72-129-100 42 72-99 178-99 40 16-12 39-32 60-10-12-57-38-102-80-129 5 42-6 67-20 90-47 15-95 4-90-60 13-18 58-31 80-10 2-65-23-103-30-159-16 20-21 52-40 70-76 24-102-55-60-90 18 2 50-10 40 20 36-7 14-73 20-110-22 27-38 62-99 50-17-16-25-42-20-80 23-7 74-25 70 20 80-159 15-448-89-548-23 8 27 25 10 60-76-66-196-150-338-90 23-134 278-50 338-70 84 18 190 16 199 110-47 1-79-14-103-35zm0 0c-5-5-10-10-16-15 5 5 10 10 16 15z"/><path d="m14768 22270c-21 31-95 23-119 0-6-39-8-41 10-70 32-9 38 9 50 20 16-85-147-122-249-90 45 22 87 91 20 120-32-4-58-15-50-60-57 6-91 35-129 60 44 15 94 62 50 110-36 12-82-16-50-40-26-6-72 54-80 99 52 2 112 53 60 100-32 6-50-3-60-20-30 56-40 133-40 219 8 24 25-27 60-10 26 163-110 247-179 348 187-108 199-392 507-378 28 19 57 37 70 70 17 0 33 0 50 0-8 80-118 196-179 99-2-25 16-31 20-50 32 1 76-10 70 30 56-64-35-121-119-110-163 22-273 303-378 348 26 16 83-66 129-30-11 73-155 115-209 80-85 40-305 59-328-50 145 60 260-24 338-90 8 34-11 42-20 60 123-91 165-372 110-548-14 20-28 39-70 30-20-23-10-76 10-90 52-6 84 9 90 50 23-14 4-69 10-100-17-32-26 26-60 10-17-16-25-42-20-80 24-6 45-14 80-10 10 23 34 32 30 70 27-32 31-88 40-139-26-15-66 5-79-40 0-56 45-63 90-50 11 22 26 41 20 80 31 8 64-68 80-110-7-9-47 6-60-20-13-80 70-80 99-40-1 29 5 65-10 80 60-17 97-56 139-90-5-13-43 12-50-20 10-137 162 0 70 60 132 11 237 48 239 189z"/><path d="m14449 23893c8 89-94 191-189 110 122 27 217-129 80-159-22 4 1 55-30 50-31 5-41-12-50-30 53-96 179-74 189 30z"/><path d="m14410 23086c26-104-100-77-149-129 168-59 233 128 139 229-55-27-106-5-139-60 1-25 14-39 40-40 42-12 18 42 40 50 41-4 64-28 70-50z"/><path d="m14350 23425c41 184-238 193-219 20 32 51 124 120 159 30-22-24-65-28-99-40 24-84 113-63 159-10z"/><path d="m14211 23624c-35-8-38 15-70 10-6 34-7 73-30 90-54-20-30-121-99-100 8-65 59-87 90-129 33 46 86 74 109 129z"/><path d="m14091 23225c52 40 120 108 89 199-38-1-39-40-70-50-42-2-42 38-80 40-33-87 40-126 60-189z"/><path d="m14127 23918c-6-5-11-10-16-15 5 5 10 10 16 15z"/><path d="m14101 22867c-23 0-29 17-60 10 29-226-375-185-259 30 15-14 20-40 60-30 4 9 9 18 20 20-39 159-172-52-169-90 58-58 126-158 259-109 19-13-43-30-30-70 148-9 179 100 179 239z"/><path d="m14041 24102c31-7 29 17 60 10-1 138-31 248-179 239-7-44 32-41 40-70-141 50-207-58-279-110 31-48 133-244 179-90-9 5-18 9-20 20-29 2-54 1-50-30-145 199 280 267 249 30z"/><path d="m13972 23514c38-5 55-31 99-30-23 116-212 81-219-10-7-91 139-145 179-30-47-8-64 16-109 10-20 18 42 37 50 60z"/><g font-family="&apos;Monotype Corsiva&apos;" font-style="italic" font-size="1634.32"><text x="10500" y="14850" transform="matrix(.95309 0 0 1 5069.28 8413.3)">T1 </text><text x="10500" y="14850" transform="matrix(.95309 0 0 1 5788.69 9596.91)">T2</text></g></g><rect x="15572" y="17295" width="1782" height="637" rx="891" ry="318.5" fill="#fff" stroke="#fff" stroke-width="7.62"/><text x="10500" y="14850" fill="#201e1e" font-family="&apos;Arial Black&apos;" font-weight="900" font-size="612.87" transform="matrix(.95309 0 0 1 5705.38 2986.78)">NN 1</text><path d="m6620 26184c-1304 655-3784 529-4536-683-750-1208-580-4636-651-6316-178-4208-629-7399-745-10793-130-3769 2354-6260 5323-6962 4189-990 3941 4809 3359 7790-305 1601-908 2995-1293 4561-710 2887-67 7296-313 10301-127 1039-461 1728-1142 2102z" fill="#fff"/><g clip-path="url(#1)"><g><g fill="#201e1e"><path d="m1010 504h134v28366h-134z"/><path d="m1324 504h535v28366h-535z"/><path d="m2575 504h134v28366h-134z"/><path d="m2889 504h534v28366h-534z"/><path d="m4140 504h133v28366h-133z"/><path d="m4453 504h535v28366h-535z"/><path d="m5704 504h134v28366h-134z"/><path d="m6018 504h535v28366h-535z"/><path d="m7269 504h134v28366h-134z"/><path d="m7583 504h534v28366h-534z"/><path d="m8834 504h133v28366h-133z"/><path d="m9147 504h535v28366h-535z"/></g><g fill="#fff" stroke="#fff" stroke-width="7.62"><path d="m3747 1477h53c147 7 294 75 408 227 118 156 151 309 151 518 29-3 33-10 65-10 325 0 529 140 718 365 44 53 64 108 67 159v28c-7 118-102 213-206 213-76 0-116-20-187-20 63 126 48 204 19 333 93 0 178 23 235 96 115 147 104 375-23 509-111 119-127 77-232 130 0 185-91 382-262 382-93 0-149-58-206-98-83 130-350 206-505 206-174 0-160-94-224-49 25 39 60 65 87 114 106 191 20 441-162 543 6 76 19 79 19 196 0 129-74 265-206 265-58 0-126-8-168-29-37 72-83 141-143 193-28 24-32 19-53 52 16 23 59 42 86 66 79 68 152 150 200 251 73 153 100 340 74 513-19 130-64 235-129 335-116 178-269 247-484 247 0 2 143 227 191 369 45 134 80 309 80 484 0 70-9 102-9 176 55 39 112 92 112 186 0 91 0 194-45 267-15 23-25 32-34 63-8 27-10 53-17 81-62 243-234 423-444 534-48 25-91 34-134 55 34 74 11 181 50 242 25 38 100 144 109 180 22-11 215-69 243-69 74 0 133 13 185 71 41 45 58 114 58 184 0 121-168 237-168 294 0 51 150 166 150 343 93 23 178 108 178 225 0 86-51 141-65 206 59 93 209 173 131 343 25 39 56 69 56 137 0 53-7 105-28 147 56 31 93 95 93 167 0 132-28 128-84 216 22 100 16 132 21 154 9 39 44 59 44 130 0 114-36 199-144 241-109 42-59 54-140 99-84 47-28 62-35 149l-34 318c-47 254-160 440-356 578-100 71-196 106-284 116h-94c-291-32-450-364-285-576 40-51 129-120 212-120 188 0 134 31 234 59 52-81 84-149 84-284 0-85-19-247-38-313l-135-387c-80-201-179-383-303-555-130-180-330-297-492-524-178-249-286-543-359-849-40-168-10-118-119-218-59-54-114-113-161-184-175-262-221-650-153-984l64-198c14-33 16-22 24-53-53-1-92-19-135-35-23-9-22-4-42-15-19 74-120 157-196 157-243 0-292-252-206-441-175 15-209 22-317-177-15-28-29-52-44-81-28-54-55-133-73-198-69-256-17-292-5-445-81-2-174-48-230-82-156-97-115-267-32-398 69-110 161-146 175-200 14-53 7-53-9-91-242-572 544-920 657-415l82-32c30-16 10 3 28-30 93-174 251-242 460-242-95-188-280-298-280-422 0-103 3-75 38-157 21-50-126-240-30-540 50-155 57-382 291-401 81-6 106-40 147-81 18-18 46-36 68-46 55-26 27-9 65-50 51-56 99-45 147-81 28-20 22-31 61-53 32-18 54-17 72-42-52-15-128-103-155-151-170-299 5-686 267-830 57-31 148-68 234-68l159 10c12-156 115-223 168-333 141-291 339-196 402-196 51 0 63-6 103-29 41-23 95-21 140-40 107-44 162-31 212-52 53-22 85-31 143-17-10-38-26-37-46-69-13-21-28-48-37-69-21-52-38-124-38-195 0-315 295-584 603-598z"/><path d="m7433 330h62c112 7 229 57 337 161 17 16 47 56 61 74 112 153 134 337 47 510 27 7 39 14 67 18 121 17 108 31 188 48 45 10 77 35 120 41 60 8 250-70 365 156l79 123c21 36 51 92 60 133 123 0 151 1 247 35 284 103 461 567 256 796-19 22-29 27-45 51 19 14 32 28 54 41 19 11 40 18 58 27l159 118c56 58 112 37 182 73 143 74 141 217 166 287 48 134 56 293 8 426-19 51-20 31-2 77 92 222-139 289-167 402 84 21 124 30 193 73 46 29 113 87 125 143h28c17-65 92-128 153-153 79-33 162-19 235 11 214 89 284 334 204 548-26 71 19 76 60 115 114 109 200 333 45 455-65 51-107 49-174 82 38 171-20 398-97 535-58 102-99 188-239 200 1 44 9 39 9 88 0 251-301 355-411 137-23 6-38 10-56 20 12 55 33 103 45 159 51 251 20 552-100 763-103 181-214 218-233 295-39 156-66 276-123 410-90 215-209 401-376 556-110 102-225 220-303 358-35 63-64 105-92 177-77 196-247 574-144 800 50-4 68-29 122-29 128 0 238 49 290 166 146 328-227 652-630 377-269-183-314-450-314-818-46-25-45-43-79-64-52-32-182-64-182-220 0-94 50-147 45-236-4-61-125-145-25-303 36-57 18-44 18-118 0-69 37-111 37-157 0-45-11-23-2-80 17-108 105-159 105-185 0-31-37-62-37-127 0-152 42-168 119-228 16-12 10-5 18-21 38-81-8-48 99-200 8-11 10-14 17-22-42-66-131-142-131-245 0-119 81-245 206-245 86 0 138 39 215 39 10-40 40-67 61-103 19-33 20-101 24-142-78-19-158-72-213-120-132-114-197-234-245-410-13-46-33-59-51-113-37-113-30-251 53-335 15-15 36-30 45-41 14-16 18-33 31-55 55-95 21-109 65-197 31-62 27-137 66-195 44-65 30-41 53-121 20-71 89-120 93-168-154 0-253 62-460-154-234-243-207-742 43-960 19-16 46-40 63-52-18-29-36-40-58-66-20-23-31-45-44-71-88 44-216 4-270-70-81-110-48-189-48-313-139-77-200-296-122-451-195 0-319-43-467-147-42 23-98 59-159 59-163 0-224-150-251-285-15-71-19-12-128-91-233-169-162-598 99-604-23-50-4-118 0-167-29 3-33 10-65 10-173 0-281-212-191-357 51-82 123-146 198-204 124-97 268-144 451-144v-49c0-275 227-521 494-539z"/></g><g fill="#201e1e" stroke="#201e1e" stroke-width="7.62"><path d="m1371 5179c-28 51-45 59-99 41-38 49-76 53-107 46-45-10-77-56-80-130 64 33 85 45 126-13-7-93 44-160 147-146 267 36 184 504-59 508-347 7-573-409-372-703-33-48-4-92 29-131-5 46-10 41 16 78 41-57 62-86 161-127 0 0 0 21-9 29-115 86-206 259-204 403 1 71 22 143 72 218 1-238 54-408 170-521 120-117 277-202 472-277 206-80 341-127 479-320 59-83 91-182 98-280 7-95-2-204-90-301-26 28-52 56-78 84-35-68-109-144-188-140-70 4-115 39-136 88-48 106 13 271 147 283-211 85-367-46-347-240 22-220 200-399 409-379 154 15 277 147 327 270 122 298-29 582-194 755 230-26 429-32 618 77 111 66 189 210 253 274 40 6 63 6 81-4 23-12 37-38 65-83 25 112-29 173-132 178 106 101 240 171 383 90 55-31 81-81 3-139 3-40 3-57 12-64 30-22 56-8 76 18 69 89 32 196-60 250-101 60-223 50-322-2 10 17 20 34 30 51 81 5 133-2 200 56-42 4-69 14-115 28 81 95 136 163 108 297-154-16-175-125-196-269-24 32-27 51-43 93-40-72-29-116 8-184-8-26-25-54-33-80-22-28-44-56-66-84-26 139-81 218-165 323-82 68-157 111-236 112-138 2-237-46-292-122-71-97-71-240 10-378 38-31 58-202-64-214-21-2-46 12-72 46-41-79 22-137 93-128 59 7 122 61 135 188 71-29 142-23 200 3 87 40 144 128 129 224-18 111-95 177-179 175-119-3-154-106-131-169 23-65 107-71 118 1-31 54-18 89 10 97 38 11 103-28 115-139 2-83-56-131-138-138-64-5-109 13-142 44-150 142-106 410 95 441 97 15 182 2 248-37 101-61 156-152 177-247 43-189-34-337-160-428-227-164-599-130-825 13 405 108 375 662-5 668-88 1-199-91-199-188 0-140 102-203 214-195-95 85-81 217-18 230 77 16 139-111 171-171 18-5 36-10 55-15 14-182-146-252-302-262-76-5-152 5-206 22-149 48-287 118-395 254-59 74-102 165-123 281-9 74-9 141 6 196 23 80 81 136 200 152 12-36 17-45 45-70 14 23 18 37 23 64 34 0 68-17 93-45 29-32 46-79 35-132-17-18-34-35-51-53 18-8 40-26 58-34-13-28-30-53-51-68-31-22-58-18-76-3-35 30-40 103 45 100zm645-1474c-52-3-96 39-99 93-3 54 37 101 88 104 52 3 96-39 99-93 3-54-37-101-88-104zm-61 312c-44-3-81 33-83 78-2 46 31 85 75 88 44 3 81-33 83-78 2-46-31-85-75-88zm-182 179c-36-2-66 27-68 64-2 37 25 69 61 71 36 2 66-27 68-64 2-37-25-69-61-71zm-196 109c-28-2-51 21-53 50-2 29 20 54 47 55 28 2 51-21 53-50 2-29-20-54-47-55zm-163 95c-20-1-37 15-38 35-1 21 14 38 34 39 20 1 37-15 38-35 1-21-14-38-34-39zm-139 100c-15-1-28 11-29 27-1 16 11 30 26 30 15 1 28-11 29-27 1-16-11-30-26-31zm947-348c102-171 203-325 390-408 233-103 422-32 624 86-139 18-242 48-367 124-50 38-100 76-151 114-176 114-302 133-497 83zm582 146c-121 41-197 6-304-34 79-66 135-114 212-129 124-24 323 92 326 234-77-42-142-78-233-71zm-440 267c39-53 61-103 128-117 74-16 137 26 200 59-43 4-75 8-103 21-42 20-47 26-85 38-39 13-86 8-140-1zm239 1088c50-57 90-123 115-202 7-195 37-301 194-425 101 322-18 513-310 627zm-155-292c-141-218-288-280-503-121 110 73 182 111 311 90 69-5 131 6 192 30zm-402 3c53-2 93 1 127 15 118 46 163 141 157 241-3 56-22 114-52 166 8-151-46-200-173-233-61-75-59-89-59-189zm896-1569c-158-39-310-42-445 77-43 38-75 88-105 169 166-199 299-243 550-246zm-880 1405c83-32 193-36 278 60-102-55-178-70-278-60zm705 314c103-108 130-183 139-336-27 127-72 233-139 336zm-137-1307c63-46 146-64 267-4-95-15-171-21-267 4zm475 839c14 62 31 140 87 172-11-87-24-120-87-172zm-1174 3592c-8 82 5 105 80 132 5 89 45 126 85 145 59 28 132 3 193-78-98-17-131-22-133-123 81-100 76-219-52-293-332-191-604 413-332 628 388 308 972 31 975-476 75-26 76-101 70-173-30 57-21 55-80 75-2-101-3-151-83-283 0 0-17 24-12 41 63 197 30 471-85 634-56 80-138 144-252 185 186-270 259-510 216-738-44-237-156-468-318-723-171-269-287-438-292-777-2-145 40-285 109-402 66-114 163-230 338-264 8 54 15 109 23 163 93-47 237-70 324 4 77 65 99 144 86 217-29 162-228 296-389 194 172 279 452 265 582 28 147-269 86-625-167-784-186-117-430-72-584 24-373 234-425 685-373 1024-241-229-462-407-762-446-177-21-379 76-503 92-50-27-76-48-90-74-17-33-13-75-8-150-116 106-102 222 10 316-200 23-407-13-505-229-38-83-29-162 106-160 28-48 41-68 36-83-18-51-58-57-100-45-148 42-191 195-129 336 68 155 214 249 367 276-25 11-49 22-74 33-97-64-150-118-271-109 44 40 67 75 109 131-167 38-282 68-356 244 187 115 296 9 434-136 2 57-9 81-24 143 103-47 124-107 136-215 29-23 71-39 100-62 47-13 94-26 141-39-80 181-80 318-67 509 40 148 91 262 180 331 155 122 305 152 427 114 157-49 269-212 286-438-18-68 93-279 241-187 26 16 43 53 45 115 109-53 83-174-5-225-72-42-187-36-301 96-58-94-142-149-229-169-130-30-265 21-322 142-67 141-32 283 65 353 137 100 258 13 282-78 25-94-65-173-135-101-7 88-50 116-88 102-52-20-95-121-22-257 63-96 166-100 264-37 76 49 114 109 127 172 58 291-201 557-455 418-123-67-209-155-252-257-66-157-57-308-7-434 100-252 304-353 518-347 386 10 781 370 926 728-544-228-946 427-519 763 99 78 298 69 374-41 110-159 44-318-90-405 41 179-78 317-160 277-101-49-70-247-59-342-17-21-34-43-51-64 127-219 363-160 549-36 91 61 169 137 217 203 132 183 233 382 249 630 9 134-13 276-82 424-48 92-100 168-161 217-89 71-199 84-346-1 14-51 16-67 4-119-35 14-49 27-76 53-38-29-63-78-70-131-8-62 10-130 64-180 33-5 66-11 100-16-14-25-25-64-38-89 37-21 76-34 111-33 53 1 81 30 89 62 16 64-35 151-130 74zm427-2230c61 41 78 127 39 191-39 64-121 82-182 41-61-41-78-127-39-191 39-64 121-82 182-41zm-176 407c52 35 66 107 33 161-33 54-102 70-154 35-52-35-66-107-33-161 33-54 102-70 154-35zm65 360c42 29 54 87 27 132-27 44-83 57-125 28-42-29-54-87-27-132 27-44 83-57 125-28zm137 293c33 22 42 68 21 102-21 34-65 44-97 22-33-22-42-68-21-102 21-34 65-44 97-22zm111 249c23 16 30 48 15 73-15 24-46 31-69 16-23-16-30-48-15-73 15-24 46-31 69-16zm79 233c18 12 23 37 12 56-12 19-36 24-54 12-18-12-23-37-12-56 12-19 36-24 54-12zm-801-1214c18-282 26-544-122-799-184-318-454-402-776-442 144 141 237 264 318 458 27 87 54 173 81 260 110 282 239 413 499 524zm-775-337c106 151 219 177 372 225-38-144-64-246-139-329-122-134-439-175-553-17 120 19 223 35 321 121zm290 683c-2-94 12-170-53-244-71-81-176-89-273-106 46 42 79 74 100 113 32 59 33 70 66 117 34 48 91 83 159 120zm-1126 1028c-12-109-5-217 28-329 146-227 195-374 113-650-367 278-383 598-141 979zm406-197c331-125 547-69 666 298-182-12-294-31-424-166-75-65-153-106-242-132zm454 351c-59-48-106-79-156-93-170-50-295 19-368 138-41 66-65 148-71 233 110-178 210-187 379-115 129-33 137-50 216-163zm217-2555c210 93 385 220 444 472 19 80 17 165-14 283-32-369-149-534-430-755zm-105 2355c-69-108-190-207-362-172 158 25 257 75 362 172zm-1046-253c-31-212-4-320 106-502-69 167-101 327-106 502zm1183-1364c-35-107-115-199-300-235 119 65 211 125 300 235zm-1198 541c-65 58-145 132-233 120 81-89 121-116 233-120zm2627-3622c-43 39-61 41-108 6-52 34-90 25-117 8-41-25-57-80-37-152 51 54 68 72 125 30 22-92 92-139 187-91 247 125 22 547-214 469-336-111-426-588-142-803-17-58 25-89 68-116-19 42-23 36-9 81 57-41 86-62 194-68 0 0-6 21-18 24-137 44-278 179-321 319-21 68-23 146 2 234 74-229 178-374 324-444 152-72 329-100 540-107 223-7 367-7 560-145 83-59 143-145 181-236 36-89 61-197 6-320-34 18-68 36-101 55-13-77-60-176-138-199-69-20-123-1-158 38-79 86-71 266 54 322-229 11-339-169-260-348 89-204 315-316 511-226 144 66 221 236 232 371 25 329-207 550-419 661 230 53 423 115 571 284 86 101 117 266 160 350 36 19 59 27 79 24 26-3 48-24 88-58-11 116-82 156-182 127 71 133 179 246 341 216 62-12 103-50 46-132 15-38 21-54 32-57 36-10 57 12 68 43 39 109-29 200-135 221-116 23-230-27-309-111 4 20 8 40 13 60 77 33 129 43 175 122-41-10-71-10-119-12 49 119 80 203 12 323-143-67-130-180-106-326-33 23-42 40-70 75-17-83 8-122 64-174 1-28-8-60-7-88-12-35-25-69-37-104-68 125-145 183-258 255-100 38-185 54-262 28-134-45-214-125-244-216-38-118 6-255 126-361 46-17 118-175 4-228-20-9-48-4-83 20-16-90 63-124 129-92 54 27 99 100 72 227 77-4 144 25 191 71 71 68 100 173 55 259-51 101-146 139-226 108-114-43-116-154-74-207 42-55 125-32 114 41-47 41-45 80-20 97 33 24 108 8 154-94 28-80-13-145-90-179-60-27-109-25-150-6-188 86-229 359-44 457 89 48 175 64 250 48 116-25 197-94 247-178 99-168 71-336-22-467-168-235-536-328-798-267 357 241 157 765-211 642-85-29-164-155-134-248 43-135 160-161 266-115-118 50-145 182-89 215 70 42 168-60 217-107 19 1 38 3 57 4 70-171-63-292-210-355-72-31-148-47-205-49-158-5-313 17-459 111-79 51-149 124-204 229-31 68-52 132-54 191-3 85 36 158 146 214 23-31 31-38 65-52 7 27 6 42 2 70 32 11 70 6 103-12 38-21 69-61 74-115-11-23-22-46-33-68 20-2 46-12 66-14-4-31-13-61-28-83-23-32-51-38-72-29-43 17-70 85 13 112zm1075-1201c-49-20-104 5-124 56-19 51 4 109 53 130 49 20 104-5 124-56 19-51-4-109-53-130zm-155 280c-41-17-88 4-105 47-16 43 4 92 45 110 41 17 88-4 104-47 16-43-4-92-45-110zm-230 111c-34-14-72 3-85 39-13 35 3 75 37 90 34 14 72-3 85-39 13-35-3-75-37-90zm-223 38c-26-11-56 3-66 30-10 27 2 59 29 69 26 11 56-3 66-30 10-27-2-59-29-69zm-187 36c-19-8-40 2-47 21-7 20 2 42 20 49 19 8 40-2 47-21 7-20-2-42-20-49zm-164 49c-14-6-31 1-36 16-6 15 1 32 16 38 14 6 31-1 36-16 6-15-1-32-16-38zm1019-15c151-130 295-244 501-260 256-20 417 112 574 295-140-30-248-36-391-5-60 20-120 39-180 59-205 50-332 26-504-89zm515 338c-129-2-192-61-283-136 97-37 165-64 244-52 127 19 283 198 242 335-61-66-113-123-203-148zm-506 108c54-38 91-79 159-70 76 10 124 71 174 124-43-11-75-18-106-15-47 5-53 9-93 8-41-1-85-22-134-48zm-105 1128c66-38 124-88 173-156 66-185 128-278 318-343-2 344-176 488-491 499zm-60-334c-69-258-191-367-447-287 83 108 141 169 271 192 68 19 124 50 176 94zm-388-133c52 16 89 33 118 57 100 84 113 191 77 285-20 53-56 102-101 142 54-143 17-208-94-282-36-93-30-106 1-202zm1346-1207c-141-91-285-145-452-76-53 22-100 59-153 127 221-135 363-132 605-51zm-1280 1054c90-2 196 31 249 152-81-87-150-127-249-152zm582 541c132-70 182-132 238-276-65 113-141 200-238 276zm270-1305c75-23 161-12 258 87-87-46-159-78-258-87zm199 969c-6 65-13 145 30 195 16-87 14-123-30-195zm-2075 9647c-9-21-33-51-64-69-61-35-143-6-143 73 0 126 130 156 219 135 234-55 368-250 412-454 172-802-327-1529-760-2167-53-78-96-162-140-243-101-235-148-455-131-716 153-23 291-130 371-254 37-58 62-123 69-189 21-195-103-297-282-220-187 80-286 378-308 589-50 10-118-4-152-17-20-220 1-420 46-615 48-207 137-403 130-620-5-182-78-334-243-479 116 152 154 254 173 455 4 113-11 215-35 316-29 122-69 240-100 369-40 169-48 345-55 535-194-137-332-325-342-582-6-164 32-282 112-417 42 3 71 3 100-3 70-15 182-91 150-182-16-47-56-69-101-74-55-6-119 10-155 40-86 73-133 191-155 318-76 448 56 827 389 1012 83 449 196 822 490 1151 71 66 141 132 212 197 156 142 241 290 353 473 119 242 214 487 290 749 50 282 81 600-132 821-57 60-128 94-217 69zm-908-3440c48 16 96 23 146 21 17 287 75 521 191 769-185-225-276-494-338-791zm282-107c24-173 85-447 258-478 89-16 121 23 112 118-16 178-252 354-370 360zm521-174l205 323 356-106-230 305 207 323-347-135-229 306 15-388-348-134 357-105 14-388zm272 1048l202 199 242-141-118 263 203 198-275-36-117 264-52-285-275-35 243-140-53-285zm268 735l141 131 162-101-75 181 142 131-188-19-75 182-41-193-188-18 163-100-41-193zm98 622l96 85 106-70-47 122 96 84-125-9-47 122-30-128-125-9 107-70-31-128z"/><path d="m9220 3318c22 41 36 47 79 32 31 39 61 42 85 37 36-8 61-45 64-104-51 27-67 36-100-10 6-74-35-127-117-116-213 28-146 401 47 405 276 5 457-326 297-560 26-39 3-73-23-104 4 37 8 33-13 62-33-46-49-69-128-101 0 0 0 17 8 23 92 68 164 206 163 321-1 56-18 114-57 173 0-190-43-325-135-415-96-93-221-161-376-221-164-64-271-101-382-255-47-66-72-145-78-223-6-75 1-163 72-240 21 22 42 45 62 67 28-54 87-115 150-112 56 3 91 31 109 70 38 84-11 216-117 225 168 68 292-37 277-191-18-175-159-318-326-302-123 12-221 118-261 215-97 238 23 464 154 601-184-21-342-25-492 62-88 52-150 168-202 219-32 5-50 4-65-3-19-9-30-30-52-66-20 89 23 138 105 142-85 80-191 136-305 71-44-25-65-64-2-110-2-32-3-46-10-51-24-17-45-6-61 14-55 71-26 156 48 200 81 48 178 40 256-2-8 14-16 27-24 41-65 4-106-2-159 45 33 3 55 11 91 22-65 76-108 130-86 237 123-13 139-100 156-215 19 25 22 40 35 74 32-58 23-93-6-147 6-21 20-43 26-64 17-22 35-45 52-67 21 111 64 174 131 257 66 54 125 88 188 89 110 2 189-37 233-97 57-78 56-191-8-301-30-25-46-161 51-170 17-2 36 9 57 37 33-63-18-109-74-102-47 6-97 49-108 150-56-23-113-19-159 3-69 32-115 102-103 178 14 88 75 141 142 140 95-2 123-84 105-135-18-52-85-57-94 1 25 43 14 71-8 78-30 9-82-22-92-110-2-67 44-104 110-110 51-4 87 10 113 35 119 114 85 327-76 352-78 12-145 2-198-30-80-49-124-121-141-197-34-151 27-269 128-341 181-131 477-104 657 11-323 86-299 528 4 533 70 1 159-73 159-150 0-111-81-162-170-155 76 68 65 173 15 184-62 13-111-89-136-137-15-4-29-8-44-12-11-145 116-201 241-209 61-4 121 4 164 17 119 38 229 94 315 202 47 59 82 131 98 224 7 59 7 112-5 156-18 64-65 108-160 121-10-29-14-36-36-56-11 18-14 29-18 51-27 0-54-14-74-36-23-26-37-63-28-105 14-14 27-28 41-42-14-6-32-21-46-27 10-22 24-42 41-54 25-18 47-15 61-3 28 24 32 82-36 80zm-514-1175c41-2 76 31 79 74 2 43-29 80-71 83-41 2-76-31-79-74-2-43 29-80 71-82zm49 249c35-2 65 26 66 62 2 37-25 68-60 70-35 2-65-26-66-63-2-37 25-68 60-70zm145 143c28-2 53 21 54 51 2 30-20 55-49 57-28 2-53-21-54-51-2-30 20-55 49-57zm157 87c22-1 41 16 42 40 1 23-16 43-38 44-22 1-41-16-42-40-1-23 16-43 38-44zm130 76c16-1 29 12 30 28 1 16-11 31-27 31-16 1-29-12-30-28-1-16 11-31 27-31zm110 79c12-1 23 9 23 22 1 13-9 24-21 24-12 1-23-9-23-22-1-13 9-24 21-24zm-755-278c-81-136-161-259-311-325-186-82-337-26-497 69 111 14 193 38 292 99 40 30 80 61 120 91 140 91 241 106 396 66zm-464 117c97 33 157 5 243-27-63-53-108-91-169-102-99-19-258 73-260 186 62-33 114-62 186-57zm351 213c-31-42-49-82-102-94-59-12-109 21-159 47 34 3 60 6 82 17 34 16 37 21 68 31 31 10 68 6 111-1zm-190 867c-40-46-72-98-92-161-5-155-29-240-155-338-80 256 14 409 247 500zm124-233c113-174 230-223 401-96-87 58-145 89-248 72-55-4-104 5-153 24zm320 2c-42-2-74 1-101 12-94 37-130 112-125 192 2 45 18 91 42 132-6-121 37-160 138-185 49-60 47-71 47-151zm-714-1251c126-31 247-33 355 62 34 30 60 70 84 135-132-158-238-194-438-196zm702 1120c-66-25-153-29-221 48 81-44 142-56 221-48zm-562 250c-82-86-104-146-111-268 22 101 58 186 111 268zm109-1041c-50-37-116-51-213-3 75-12 137-16 213 3zm-379 668c-11 50-25 111-69 137 9-69 19-96 69-137zm935 2862c6 65-4 84-64 105-4 71-36 100-68 116-47 22-105 2-154-62 78-14 105-18 106-98-65-79-60-175 41-233 264-152 482 329 265 501-309 245-774 25-777-379-60-21-61-80-56-138 24 45 16 44 63 60 1-80 2-121 66-225 0 0 14 19 9 32-50 157-24 375 68 505 45 63 110 115 201 147-148-215-206-406-172-588 35-189 124-373 253-576 136-214 229-349 233-619 2-115-32-227-87-321-53-91-130-183-270-210-6 43-12 87-18 130-74-37-189-56-258 3-61 52-79 115-69 173 23 129 182 236 310 155-137 222-361 211-464 23-117-214-69-498 133-625 148-93 343-58 465 19 297 186 338 546 297 816 192-182 368-324 607-356 141-17 302 60 401 73 40-22 61-39 71-59 14-27 10-60 6-120 93 84 82 177-8 252 159 18 324-11 402-183 30-66 23-129-84-127-22-38-33-54-29-66 14-41 46-46 80-36 118 33 152 155 103 268-54 124-170 199-292 220 20 9 39 17 59 26 77-51 119-94 216-87-35 32-54 60-87 104 133 30 225 54 283 195-149 91-236 7-346-108-2 45 7 64 19 114-82-38-99-85-108-172-23-18-57-31-80-49-37-10-75-21-112-31 64 144 64 253 54 406-32 118-73 209-143 264-124 97-243 121-341 91-125-39-214-169-228-349 15-54-74-222-192-149-21 13-34 42-36 91-87-43-66-139 4-179 58-34 149-29 240 77 46-75 113-119 183-135 104-24 211 16 257 113 53 112 26 225-52 282-109 79-205 11-225-63-20-75 52-138 108-81 5 70 40 93 70 81 42-16 76-96 17-205-50-77-132-80-211-30-61 39-91 87-101 137-46 232 160 444 363 333 98-53 166-123 201-205 53-125 46-245 5-346-80-201-242-281-413-277-308 8-623 295-738 580 434-181 754 340 414 608-79 62-237 55-298-33-88-126-35-254 71-323-32 143 62 252 128 221 80-39 56-197 47-273 13-17 27-34 40-51-102-175-290-128-437-29-72 48-135 109-173 162-105 146-185 304-198 502-7 107 11 220 65 338 38 73 80 134 128 173 71 57 158 67 276-1-11-41-13-53-3-94 28 11 39 21 61 42 30-23 50-62 56-104 6-49-8-103-51-144-26-4-53-8-79-13 11-20 20-51 31-71-29-17-60-27-89-26-42 1-64 24-71 49-13 51 28 121 104 59zm-340-1777c-49 33-63 101-31 152 31 51 96 66 145 33 49-33 63-101 31-152-31-51-96-66-145-33zm140 324c-41 28-53 85-26 128 27 43 81 55 122 28 41-28 53-85 26-128-27-43-81-55-122-28zm-52 287c-34 23-43 70-21 105 22 35 66 45 100 23 34-23 43-70 22-105-22-35-66-45-100-23zm-109 234c-26 18-34 54-17 81 17 27 52 35 78 17 26-18 33-54 17-81-17-27-52-35-78-17zm-88 198c-19 13-24 38-12 58 12 19 37 25 55 12 19-13 24-38 12-58-12-19-37-25-55-12zm-63 186c-14 10-18 30-9 45 9 15 28 19 43 10 14-10 18-30 9-45-9-15-28-19-43-10zm638-968c-15-225-20-434 97-637 147-254 362-320 618-352-115 112-189 211-254 365-22 69-43 138-65 207-88 224-190 329-397 417zm618-268c-84 120-175 141-296 179 30-115 51-196 111-262 97-107 350-139 441-13-96 15-178 28-256 96zm-231 545c2-75-9-136 42-194 57-65 140-71 217-85-37 33-63 59-80 90-26 47-26 56-53 93-27 38-73 66-127 95zm897 819c10-87 4-173-22-262-116-181-156-298-90-518 293 221 305 477 112 780zm-323-157c-264-100-436-55-531 237 145-9 234-25 338-132 60-52 122-84 193-105zm-362 279c47-38 85-63 124-74 136-40 235 15 293 110 32 53 52 118 56 186-88-142-167-149-302-91-103-26-109-40-172-130zm-173-2036c-167 74-307 176-354 376-15 64-13 132 11 225 26-294 118-426 343-602zm84 1877c55-86 152-165 289-137-126 20-205 60-289 137zm834-202c25-169 3-255-84-400 55 133 81 260 84 400zm-942-1087c28-85 92-159 239-187-95 52-168 99-239 187zm955 431c52 47 116 105 186 96-64-71-96-92-186-96zm-2094-2886c34 31 49 33 86 4 41 27 71 20 94 6 32-20 45-64 29-121-41 43-54 57-100 24-17-73-73-111-149-72-196 100-17 436 170 374 268-89 339-469 113-640 13-46-20-71-54-93 15 34 18 29 7 64-46-33-69-49-154-54 0 0 5 16 14 19 109 35 221 143 256 254 17 54 18 116-2 186-59-182-142-298-258-354-121-58-262-80-430-85-178-6-292-5-446-116-66-47-114-115-144-188-29-71-49-157-5-255 27 15 54 29 81 44 10-62 48-140 110-158 55-16 98-1 126 30 63 68 56 212-43 257 182 9 270-134 208-278-71-162-251-252-407-180-114 53-176 188-185 296-20 262 165 439 334 527-183 42-337 91-455 226-69 80-93 212-127 279-29 15-47 21-63 19-21-3-38-19-70-46 8 93 65 125 145 101-57 106-142 196-272 172-50-9-82-40-36-106-12-30-17-43-25-46-29-8-45 9-54 34-31 87 23 159 107 176 92 18 183-22 246-88-3 16-7 32-10 47-61 26-103 35-139 97 33-8 56-8 95-10-39 95-64 162-10 257 114-54 103-143 84-260 26 18 33 32 56 60 13-66-6-97-51-139-1-22 6-48 6-70 10-28 20-55 30-83 54 100 116 146 206 203 80 30 148 43 209 22 107-36 170-99 194-173 31-94-5-203-100-288-37-14-94-139-3-181 16-7 38-4 66 16 12-72-50-99-102-73-43 22-79 80-58 181-61-3-114 20-152 56-57 54-79 137-44 207 41 80 116 110 180 86 91-34 92-123 59-165-34-44-99-26-91 33 37 33 36 64 16 77-27 19-86 6-122-75-22-64 11-115 72-143 47-21 87-20 120-5 150 69 182 286 35 364-71 38-139 51-199 38-93-20-157-75-197-142-79-134-56-268 18-372 134-187 427-261 636-213-284 192-126 609 168 511 68-23 131-124 107-198-34-107-128-128-212-92 94 40 116 145 71 172-56 33-134-48-173-86-15 1-30 2-45 4-56-136 50-233 167-283 57-24 118-38 164-39 126-4 249 13 366 88 63 41 119 99 163 182 25 54 42 105 43 152 2 68-29 126-116 171-18-24-25-30-52-42-5 22-5 33-2 55-26 9-56 5-82-9-30-17-55-48-59-92 9-18 17-36 26-54-16-1-37-9-53-11 3-25 10-49 23-66 18-26 40-30 58-23 34 13 56 68-10 89zm-857-957c39-16 83 4 99 45 15 41-4 87-42 103-39 16-83-4-99-45-15-41 4-87 42-103zm123 223c33-14 70 3 83 38 13 35-3 74-36 87-33 14-70-3-83-38-13-35 3-74 36-87zm183 88c27-11 57 3 68 31 11 28-2 60-29 71-27 11-57-3-68-31-11-28 2-60 29-71zm177 31c21-9 44 2 53 24 8 22-2 47-23 55-21 9-44-2-53-24-8-22 2-47 23-55zm149 29c15-6 32 1 38 17 6 16-1 33-16 39-15 6-32-1-38-17-6-16 1-33 16-39zm131 39c11-5 24 1 29 13 5 12-1 26-13 30-11 5-24-1-29-13-5-12 1-26 13-30zm-812-12c-120-104-235-195-399-207-204-16-332 89-458 235 111-24 198-28 312-4 48 16 96 31 144 47 163 40 265 20 401-71zm-410 269c103-1 153-49 225-108-77-29-131-51-194-41-101 15-225 158-193 267 49-53 90-98 161-118zm403 86c-43-30-72-63-127-55-60 8-99 57-139 99 34-9 59-14 84-12 37 4 42 7 74 7 33-1 68-17 107-38zm84 899c-53-30-99-70-138-124-53-148-102-221-253-273 2 274 140 389 392 397zm48-266c55-205 152-293 356-229-66 86-112 135-216 153-54 15-99 40-140 75zm309-106c-41 13-71 26-94 46-79 67-90 152-61 228 16 42 45 82 81 113-43-114-14-166 75-225 29-74 24-84-1-161zm-1073-962c112-72 228-116 360-61 42 17 79 47 122 101-176-108-289-106-482-40zm1020 840c-71-2-157 24-198 121 64-70 120-102 198-121zm-464 431c-106-55-145-105-189-220 52 90 113 159 189 220zm-215-1040c-60-19-128-10-206 69 69-37 126-62 206-69zm-159 772c5 52 11 116-24 155-13-70-11-98 24-155zm1654 7688c7-17 26-41 51-55 49-28 114-5 114 58 0 100-103 124-175 107-187-43-294-199-328-362-137-639 261-1219 606-1727 42-62 77-129 112-193 80-187 118-363 104-571-122-18-232-103-295-202-30-46-49-98-55-151-17-155 82-236 225-175 149 64 228 302 245 469 40 8 94-3 121-13 16-175-1-335-37-490-38-165-109-321-104-494 4-145 63-266 194-382-92 121-123 203-138 362-4 90 9 172 28 252 23 97 55 191 80 294 32 135 39 275 44 426 154-109 265-259 273-464 5-131-25-225-89-332-34 3-56 2-80-3-56-12-145-73-120-145 13-37 45-55 81-59 44-5 95 8 123 32 68 59 106 152 123 253 60 357-45 659-310 806-66 358-156 655-391 918-56 52-112 105-169 157-124 113-192 231-282 377-95 193-170 388-231 597-40 225-65 478 105 654 46 47 102 75 173 55zm724-2741c-38 13-77 18-117 17-14 228-60 415-153 613 147-179 220-393 269-630zm-225-86c-19-138-68-356-206-381-71-13-96 18-89 94 13 142 200 282 295 287zm-415-139l-164 258-284-85 183 243-165 257 277-108 182 244-12-309 277-106-284-84-11-309zm-217 835l-161 158-193-113 94 210-162 158 219-29 93 210 42-227 219-28-193-112 42-227zm-214 586l-112 105-129-80 60 144-113 104 150-15 60 145 32-154 150-15-130-80 33-154zm-78 496l-77 68-85-56 38 97-77 67 100-7 37 97 24-102 100-7-85-56 25-102z"/></g></g></g><path d="m4360 20661c-90 2-142 77-178 147-38-9-71-3-102-4-59-2-89-23-159 5-57 22-106 75-125 143-21 76-61 71-111 158-35 62-54 131-54 228-123 0-284-131-423-3-51 47-90 121-109 190-28 103-8 52-95 116-21 16-34 31-53 52-21 23-27 33-51 44-11 5-22 7-35 12-44 19-65 37-115 46-64 13-117 37-160 87-56 66-140 94-177 187-12 31-11 54-28 79-18 26-23 17-41 55-35 70-14 180-79 231-13 10-16 10-28 20l-100 62c-131 91-247 214-187 390 26 76-20 80-20 158 0 119 97 253 187 274-29 132-46 165 19 294-102 25-206 153-206 284 0 53 28 96 28 118 0 19-16 41-24 63-39 113 16 211 92 277 17 15 20 14 37 30 20 18 17 18 41 36 40 29 53 33 96 56 66 35 105 99 122 176 10 44 15 74 36 109 58 98 42 139 98 202 37 42 37 39 85 67 56 34 57 90 166 130 50 18 68-1 114 28l102 50c51 34 88 122 167 129 0 129 99 314 234 314 80 0 153-7 218-36 170-78 54 90 201 273 34 43 39 16 68 76 98 204 188 157 392 157 5 62 69 109 119 130 104 43 32 36 87 174 57 142 163 234 267 245h41c64-7 123-48 166-130 35-69 78-171 78-271 168-41 119-147 206-147 185 0 289 47 368-163 18-49 55-64 88-104 50-61 68-162 68-252 114-3 21-15 135 25 88 31 229 44 302-27 47-46 75-104 102-168 17-39 10-74 37-98 42-39 81-50 126-103 34-39 4-20 57-38 65-21 60-44 127-53 55-7 92-20 129-51 6-5 14-13 20-18l72-71c89-64 109-105 146-209 16-44 41-58 59-124 16-59 32-82 48-136 22-75 106-78 204-158 224-183 124-305 119-370-3-35 76-165-24-300-23-31-63-81-100-91 59-116 81-230 19-353 215-119 103-370 103-373 0-90 142-193-159-402-34-24-59-33-97-55-11-7-39-27-44-32-25-25-34-78-49-115-37-92-14-65-73-168-43-74-21-136-116-202-17-11-34-19-46-30-15-13-20-25-35-42-87-102-138-69-259-130-41-20-74-17-104-57-32-42-80-94-139-100-10-46-11-78-28-118-43-100-136-206-252-206-54 0-126 21-175 42-1 0-25 11-26 12-35 19-30 25-89-5 0-131-32-235-120-305-55-44-25-24-54-91-49-111-153-151-261-129-42 9-89 5-135 5-15-68-86-141-159-147 0-161-126-392-271-392h-47c-147 0-271 231-271 392z" fill="#fff" stroke="#fff" stroke-width="7.62"/><g fill="#201e1e" stroke="#201e1e" stroke-linejoin="round" stroke-linecap="round" stroke-width="40"><path d="m6820 24104c-16 217 377 191 269-30-12 30-47 37-80 20 0-27-4-57 10-70 117-14 111 94 159 149-61 55-129 157-259 109-25 17 39 27 30 60-137 40-178-100-189-219 21-6 28-25 60-20z"/><path d="m6852 23959c-111 61-155 346-112 524 26-4 28-32 70-20 13 17 26 33 20 70-8 9-27 6-30 20-55 12-60-26-90-40 0 30 0 60 0 90 8 24 25-27 60-10 42 35 16 113-60 90-10-23-34-32-30-70-31 39-42 97-40 169 11-32 65-21 80 0 2 106-132 72-119-20-38 22-55 64-70 110 12 4 59-1 60 40-11 96-145 25-99-50-38-7-96 50-129 80 7 9 45-5 50 30 10 72-94 56-99 10-7-43 17-56 30-80-132-11-239-47-239-189 18-27 78-23 109-10 6 23 20 60 0 80-32 9-38-9-50-20-16 85 147 122 249 90-21-22-61-25-60-70 1-29 23-37 40-50 25-2 31 16 50 20 8 32-9 38-20 50 59-14 105-41 149-70-18-22-56-24-70-50-1-44 18-68 70-60 13 13 13 37 0 50 42-21 59-67 80-110-19-18-64-9-80-30-4-44 6-74 50-70 21-5 19 14 20 30 48-48 36-157 50-239-14-23-18 48-60 30-44-163 108-245 169-348-185 104-193 384-498 368-25-22-62-31-70-70-14-5-51 12-50-10-12-13-4-16 0-30 57-26 49-117 149-99 20 13 30 67 10 90-37 1-81 7-70-40-23 8-27 61-10 80 190 155 381-202 488-308-32 18-53 46-109 40-5-102 113-79 179-109 74 24 323-66 358 70-73-28-176-24-249 20-37 22-50 73-99 70 3-20 8-37 22-46zm0 0c3-1 5-3 8-4-3 1-5 2-8 4z"/><path d="m6735 23063c-102-113-226-415-472-313-12 28-12 61 0 90 10-30 29-50 80-40 20 23 10 76-10 90-99 2-126-67-149-140 13 0 27 0 40 0 23-14 32-41 50-60 305-59 342 234 507 349-38-104-199-180-149-329 40-10 44 16 60 30-8-89-10-183-40-249-6 36-49 34-80 20 0-20 0-40 0-60 22-11 41-26 80-20-11-52-44-82-70-120-19 1 16 37-10 50-110 23-63-131 0-90-18-59-91-62-139-90 1 5 19 57-20 70-37 4-45-21-60-40-3-46 33-54 60-70-84-48-240-12-259 70 17 32 21-31 60-10 20 20 6 57 0 80-31 13-92 18-109-10-1-140 103-175 229-189 3-13-44-87 0-119 38-5 64 3 80 20 10 34-23 76-40 50-8 48 90 75 129 110-19-24-10-83 0-110 36-18 83-9 90 30 1 34-30 67-60 40 2 61 44 82 60 129 28-8 12-61 30-80 52-48 131 17 80 70-19-5-60 13-50-20-31 54 12 121 20 169 16-20 21-52 40-70 76-24 102 55 60 90-34 8-42-11-60-20 0 37 0 73 0 110 17-13 20-40 40-50 39-6 58 9 80 20 6 36-7 53-20 70-32 6-50-3-60-20-64 171-6 440 99 538 18-15-38-38-10-70 63 82 196 158 338 100-27 104-241 92-328 50-58 33-211 2-209-90 39 4 73 12 94 34z"/><path d="m7079 22910c137-203-280-259-259-30-31 5-39-14-60-20 12-118 51-260 189-219 2 35-34 33-40 60 137-53 196 56 269 100-31 69-61 190-169 149-6-36 7-53 20-70 25 1 51 2 50 30z"/><path d="m7079 23437c38 139-215 215-219 10 34 22 45 68 90 80 36-4 55-25 70-50-28-18-62-31-99-40 19-85 143-60 159 0z"/><path d="m6940 23626c-68-5-81 45-90 100-42-11-50-56-60-100-25 1-31 19-50 0 6-67 63-83 90-129 37 43 84 76 109 129z"/><path d="m6830 23218c38 58 117 118 79 219-27-17-32-54-70-60-49-9-38 42-80 40-33-92 49-131 70-199z"/><path d="m6860 23955c-3 1-5 2-8 4 2-1 5-3 8-4z"/><path d="m6701 23517c41-2 56-30 99-30-85 226-346-99-129-110 45-2 69 27 90 70-47-7-68 11-109 10-16 14 33 46 50 60z"/><path d="m6611 23855c-1 25-14 39-40 40-42 12-18-42-40-50-151 45-31 172 70 169-89 60-189-28-179-119 4-37 45-48 50-90 37 3 109-1 139 50z"/><path d="m6562 23089c32-9 31 16 50 20-6 74-105 62-129 70-130-67-16-300 119-209-49 40-170 9-139 129 12 24 41 32 70 40 22-4-1-55 30-50z"/><path d="m6343 22422c6 145-96 183-229 189-25 16 32 33 20 70 9 94-141 60-90-20 23-3 38 2 50 10-30-46-77-75-129-100-13 28 7 76-30 100-20 0-40 0-60 0-6-21-25-28-20-60 14-6 24-16 30-30 20 3 26 20 40 30-10-59-42-97-70-139-21 42-24 102-99 90-26-18-26-72 0-90 37-10 32 21 50 30 5-71-10-123-30-169-16 31-27 66-70 70-33-7-54-26-50-70 18-25 62-25 80 0-6-45 18-62 10-110-30 73-188 33-109-50 43-10 46 21 70 30 46-189 1-432-99-538-24 8 31 41 0 60-67-79-182-140-338-100 44-128 270-45 348-70 67 33 188 11 189 110-41 4-68-5-88-20-11-12-21-22-31-29 9 11 19 21 31 29 79 90 186 300 317 329 71 16 202 3 149-119-16 17-9 57-50 50-40 1-43-37-40-80 87-53 142 52 179 110-12 11-18 28-50 20-218 237-443-200-577-319 34 96 221 194 169 358-38 9-35-24-60-30 18 74 5 181 40 239 18-9 13-40 50-30 25 12 37 36 30 80-14 15-51 9-80 10 6 50 37 76 60 110 20-13 18-48 60-40 25 12 37 36 30 80-21 8-34 26-70 20 24 46 81 58 129 80 9-7-7-47 20-60 97-27 88 124 0 100 78 57 251 26 269-70-10-24-40 41-60 10-48-72 64-117 109-70z"/><path d="m6165 25128c89-95-50-130-121-117-163 29-237 280-358 338 26 16 56-50 119-30 2 92-161 113-209 90-96 39-287 48-328-50 145 33 280-5 328-99 42 12 0 51-10 70 126-87 172-377 110-558-17 3 9 31-20 40-31 5-39-14-60-20-32-84 110-95 109-30 40-11 11-69 10-100-8-23-25 27-60 10-5-9-9-18-20-20-17-95 123-84 109 0 36-30 40-93 40-159-11-26-12 40-50 20-26-18-26-72 0-90 69-9 86 33 90 90 42-24 54-79 80-119 0-18-47 16-60-10-14-31-4-45 10-70 76-16 104 46 79 100 34 4 93-53 129-80-9-8-37-3-50-30 1-42 23-63 70-60 10 10 20 20 30 30 12 59-22 71-40 100 147-2 250 42 249 189-45 48-157 2-109-70 35-18 33 8 60 20-12-109-172-125-269-90 36 17 82 24 70 90-17 13-33 26-70 20-12-16-32-39-10-60-59 10-97 42-139 70 58 1 98 77 40 110-29 8-65-27-40-40-31-11-62 64-80 100 4 22 49 4 70 10 14 30 14 72-10 90-28 2-54 1-50-30-52 41-28 158-50 229 31 5 23-31 60-20 46 161-110 247-169 348 158-72 234-434 488-378 55 12 68 74 139 90-38 55-63 123-149 129-7-9-18-15-30-20-3-43-1-80 40-80 29-1 49 27 32 48z"/><path d="m5845 25259c95-65 193 22 179 120-5 39-51 40-40 90-66-8-171-15-139-90 20 0 40 0 60 0 13 13 13 37 0 50 151-21 67-183-60-169z"/><path d="m5985 21675c22-61-14-108-70-120-19 1 16 37-10 50-20 0-40 0-60 0 2-12-2-18-10-20 7-60 78-54 129-70 114 70 47 293-119 219 29-38 111-22 139-60z"/><path d="m5718 21644c-12-8-21-19-31-29 10 7 20 17 31 29z"/><path d="m5507 24910c138-5 188 130 169 249-24-4-22 18-50 10 25-226-382-190-269 30 14-20 28-39 70-30 14 25 24 39 10 70-105 38-123-86-169-139 55-69 157-171 279-110-10-30-55-25-40-80z"/><path d="m5627 21814c35 12 33 14 60 20-3 128-56 255-179 229-13-50 34-39 40-70-123 66-213-44-279-100 39-64 64-185 169-149 6 39 8 41-10 70-30 0-66 6-60-30-144 205 288 267 259 30z"/><path d="m5467 25667c1 51-13 86-40 110-36 3-40-27-50-50-86 32-147-36-249-20 90 26 205 27 229 120-34 19-51 56-40 119-57-55-134 40-189-40 3-47 74-26 70-80-95-110-426-20-467-189-14-55 2-151 99-139 14 19 26 40 30 70-24 9-26 40-70 30-20 126 267 142 209 0 30-7 36 10 60 10 2-25-15-31-30-40-50-7-56 30-90 40-60-48 25-88 0-139 33 0 66 0 99 0 18-66 42-175 139-129-41 44-18 91-20 169 59-1 94-26 149-30 32 162-171 88-209 179 89-18 250-69 288 30 22-11 41-26 80-20z"/><path d="m5458 21306c-34 4-56-4-80-10-48 78-208 48-288 20 34 95 235 24 209 179-55-2-98-15-139-30-29 51-30 120 0 179-27 0-53 0-80 0-12-52-63-63-50-139-34 3-57 16-99 10 11-47-38-68-30-139 57-10 58 35 99 40 25-1 39-14 40-40-1-22-25 13-50 0 42-143-221-118-219 0 6 24 61-1 70 20 6 39-9 58-20 80-34 4-56-4-80-10-21-42-41-68-30-119 36-168 351-98 477-189 0-50-45-55-79-70 39-103 132-2 189-60 23 31-11 117 50 110-25 84-103 116-209 119 74 37 146-42 219-10 9-24 26-40 50-50 31 22 40 66 50 110z"/><path d="m4890 25906c28 57 7 107 30 179-144-49-200-185-249-329-56 144-125 273-269 328 31-175 108-303 239-378-40-108 5-211 0-339 17 0 33 0 50 0 45 121-12 236 10 329 16 72 156 143 189 209z"/><path d="m4901 20888c7 207-125 273-219 378 20 95 24 262-20 348-91-82-16-238-40-329-15-59-110-95-149-149-57-80-54-152-79-249 127 66 218 167 249 329 64-52 53-146 100-209 39-54 99-89 159-119z"/><path d="m4651 25926c123 113 118 415 30 558-144-116-74-386-30-558z"/><path d="m4653 20499c122 122 91 408 0 548-73-149-122-416 0-548z"/><path d="m4482 25577c0-151 159-58 129 60-43 172-366 83-477 179-5 57 60 46 79 80-38 83-128 10-189 50-23-27 10-109-40-110 14-102 122-110 229-119-80-42-164 47-239 10-30 10-20 59-70 50-14-36-35-64-40-110 39-6 58 9 80 20 47-88 195-56 288-30-34-92-225-27-209-169 44-24 95 21 149 20 18-59 26-133-10-169 14-15 51-9 80-10 11 52 61 65 50 139 36 0 73 0 109 0-28 60 35 56 20 129-33 30-113-85-139 0 8 29 25-13 50 0-25 154 219 111 219 10-14-19-51-15-70-30z"/><path d="m4533 21386c27-135-264-154-209-10-30 7-36-10-60-10 1 29 23 37 40 50 48 1 43-50 99-40 8 64-22 91-30 139-40 7-57-10-90-10 4 45-31 98-60 139-29-1-65 5-80-10 1-25 14-39 40-40-16-34-23-76-20-129-49 11-93 27-149 30-28-157 172-86 209-179-80 25-243 62-288-20-24 6-45 14-80 10-1-50 22-78 40-110 23 10 53 13 50 50 80-23 160 37 229 20-82-27-190-29-209-120 34-19 51-55 40-119 62 57 141-41 189 50-9 41-82 18-70 80 42 81 162 39 249 50 157 20 330 178 139 279-30-13-47-39-40-90 12-11 35-11 60-10z"/><path d="m3926 21734c93 0 79 107 139 139-51 70-148 183-269 119-25 19 45 27 30 70-128 30-175-102-179-229 29-6 17-7 50-20-21 231 407 180 269-30-4 39-62 36-80 10-4-38 21-45 40-60z"/><path d="m3726 25258c60 85 185 137 338 100-44 99-249 93-338 40-15 4 4 13 0 30-81-25-194-18-209-110 71-14 84 28 129 40-113-63-196-313-348-349-69-16-204-3-149 119 4-87 124-44 80 40-99 37-119-68-169-110-5-31 21-32 50-30 220-234 430 195 567 309-34-86-219-201-159-348 32-9 31 16 50 20 5-91-8-164-30-229-15 14-20 40-60 30-27-22-28-41-20-80 14-15 51-9 80-10-14-49-42-84-70-119-10 7 5 45-30 50-42-1-57-29-50-80 21-6 28-25 60-20-13-57-82-57-129-80-19 13 23 21 0 50-23 3-37 16-70 10-12-28-12-61 0-90 23 0 29-17 60-10-79-50-254-33-269 70-2 12 49-32 70 0 5 65-33 86-99 80-74-113 66-219 209-209 6-12-43-77-10-119 23 0 29-17 60-10 17 16 25 42 20 80-14-2-36 5-41-6-1-5 0-9 1-14-2 7-2 11-1 14 5 48 90 75 130 105 2-32-18-42-10-80 22-18 40-39 90-30 15 14 15 65 0 80-32 9-38-9-50-20 1 72 50 96 69 149 15-51 18-115 99-100 26 18 26 72 0 90-18-2-50 10-40-20-30 47 5 114 10 159 20-59 127-108 129 0-8 15-81 45-70-10-27 23-19 81-20 129 21-32 45-62 110-50 25 27 20 69-10 90-28 2-54 1-50-30-68 167-13 444 89 538 24-8-31-41 0-60z"/><path d="m4066 21624c-145-33-281 4-328 99-44-14-3-53 10-70-127 82-164 349-120 538 13 16 42-43 80-10 45 94-96 114-109 30-28 32 2 90 0 129 4-39 62-36 80-10 7 43-18 55-40 70-50 3-62-30-80-60-30 26-32 81-30 139 9 27 18-27 50-10 86 102-129 126-90-10-34 39-67 79-80 139 6 24 16-30 50-10 15 14 15 65 0 80-34 4-56-4-80-10-8-24-20-69 0-90-64 12-97 56-139 90 1 22 25-13 50 0 5 38-3 64-20 80-30 7-36-10-60-10-21-42-7-96 20-119-149 13-293-94-219-209 62-2 106 13 99 80-28 22-55 23-70-10 8 113 172 125 269 90-51-7-91-51-60-110 20 0 40 0 60 0 14 13 14 47 0 60 62-11 109-36 149-70-38-16-84-23-70-90 19-4 25-21 50-20 13 14 46 25 20 50 43-20 57-69 80-110-14-16-52 2-80-20 0-23 0-46 0-70 25-9 68-19 70 20 38-48 40-132 40-219-9-27-18 27-50 10-48-148 94-241 149-329-173 106-192 366-478 358-25-22-62-31-70-70-26 0-59 5-60-20 29-60 114-187 179-90 2 39-16 57-50 60-31 5-32-21-30-50-23 10-21 46-20 80 246 161 365-226 517-309-30-17-81 75-139 30 15-69 163-108 209-80 108-35 288-48 338 50z"/><path d="m3955 25199c168-184-282-283-249-30-31 5-39-14-60-20 2-129 52-258 179-229 7 44-32 41-40 70 123-62 211 44 279 100-27 64-107 227-179 119 1-25 14-39 40-40 26-6 36 4 30 30z"/><path d="m3487 25378c2 96-63 68-139 89-87-98-20-286 139-219-98 12-233 120-70 179 19-1-16-37 10-50 20 0 40 0 60 0z"/><path d="m3429 21554c-155 19-71 189 60 169-118 95-251-102-139-179-12-13-4-16 0-30 71 25 137-7 139 80-12 11-35 11-60 10-13-13-13-37 0-50z"/><path d="m3249 24302c-1 5-1 10-1 14-1-3-1-8 1-14z"/><path d="m2589 23919c113 116 231 416 481 314 9-40 9-50 0-90-10 30-29 50-80 40-16-24-25-48-10-80 97-33 150 53 169 130-71-8-76 50-119 70-306 14-324-260-497-378-9 26 62 57 60 110 10 0 8-12 10-20 46 72 151 180 89 269-31 5-26-27-50-30 1 92 9 176 40 239 3-41 75-38 80 0 0 46-28 65-80 60 1 62 45 81 70 120 19-1-16-37 10-50 17 0 33 0 50 0 14 6 1 38 20 40-3 40-40 46-70 60 35 44 91 68 159 80 4-24-45 6-30-30 49-114 147 73 20 70 91 46 257 18 269-80-28-2-19 34-60 20-18-29-16-31-10-70 23-17 56-24 99-20 60 127-84 203-209 209-4 23 42 89-10 119-40 4-69-4-70-40-1-30 29-50 50-30-28-48-81-72-129-100 42 72-99 177-99 40 16-12 39-32 60-10-12-57-38-102-80-129 5 42-6 67-20 90-47 15-95 4-90-60 13-18 58-31 80-10 2-65-23-103-30-159-16 20-21 52-40 70-76 24-102-55-60-90 18 2 50-10 40 20 36-7 14-72 20-110-22 27-38 62-99 50-17-16-25-42-20-80 23-7 74-25 70 20 80-159 15-448-89-548-23 8 27 25 10 60-76-66-196-150-338-90 23-134 278-50 338-70 84 18 190 16 199 110-47 1-79-14-103-35zm0 0c-5-5-10-10-16-15 5 5 10 10 16 15z"/><path d="m3230 22271c-21 31-96 23-119 0-6-39-8-41 10-70 32-9 38 9 50 20 16-85-147-122-249-90 45 22 87 91 20 119-32-4-58-15-50-60-57 6-91 35-129 60 44 15 94 62 50 110-36 12-82-16-50-40-26-6-72 54-80 99 52 2 112 53 60 100-32 6-50-3-60-20-30 56-40 132-40 219 8 24 25-27 60-10 26 163-110 247-179 348 187-108 199-392 507-378 28 19 57 37 70 70 17 0 33 0 50 0-8 80-118 196-179 99-2-25 16-31 20-50 32 1 76-10 70 30 56-64-35-121-119-110-163 22-273 303-378 348 26 16 83-66 129-30-11 73-155 115-209 80-85 40-305 59-328-50 145 60 260-24 338-89 8 34-11 42-20 60 123-91 165-372 110-548-14 20-28 39-70 30-20-23-10-76 10-90 52-6 84 9 90 50 23-14 4-69 10-100-17-32-26 26-60 10-17-16-25-42-20-80 24-6 45-14 80-10 10 23 34 32 30 70 27-32 31-88 40-139-26-15-66 5-79-40 0-56 45-63 90-50 11 22 26 41 20 80 31 8 64-68 80-110-7-9-47 6-60-20-13-80 70-80 99-40-1 29 5 65-10 80 60-17 97-56 139-90-5-13-43 12-50-20 10-137 162 0 70 60 132 11 237 48 239 189z"/><path d="m2911 23894c8 89-94 191-189 110 122 27 217-129 80-159-22 4 1 55-30 50-31 5-41-12-50-30 53-96 179-74 189 30z"/><path d="m2871 23087c26-104-100-77-149-129 168-59 233 128 139 229-55-27-106-5-139-60 1-25 14-39 40-40 42-12 18 42 40 50 41-4 64-28 70-50z"/><path d="m2811 23426c41 184-238 193-219 20 32 51 124 120 159 30-22-24-65-28-99-40 24-84 113-63 159-10z"/><path d="m2672 23625c-35-8-38 15-70 10-6 34-7 73-30 90-54-20-30-121-99-100 8-65 59-87 90-129 33 46 86 74 109 129z"/><path d="m2553 23227c52 40 120 108 89 199-38-1-39-40-70-50-42-2-42 38-80 40-33-87 40-126 60-189z"/><path d="m2588 23919c-6-5-11-10-16-15 5 5 10 10 16 15z"/><path d="m2563 22868c-23 0-29 17-60 10 29-226-376-185-259 30 15-14 20-40 60-30 4 9 9 18 20 20-39 159-172-52-169-90 58-58 126-158 259-109 19-13-43-30-30-70 148-9 179 100 179 239z"/><path d="m2503 24103c31-7 29 17 60 10-1 138-31 248-179 239-7-44 32-41 40-70-141 50-207-58-279-110 31-48 133-244 179-90-9 5-18 9-20 20-29 2-54 1-50-30-145 199 280 267 249 30z"/><path d="m2433 23515c38-5 55-31 99-30-23 116-212 81-219-10-7-91 139-145 179-30-47-8-64 16-109 10-20 18 42 37 50 60z"/><g font-family="&apos;Monotype Corsiva&apos;" font-style="italic" font-size="1633.77"><text x="10500" y="14850" transform="matrix(.95341 0 0 1-6481.47 8414.45)">T1 </text><text x="10500" y="14850" transform="matrix(.95341 0 0 1-5762.07 9597.67)">T2</text></g></g><rect x="3717" y="17298" width="1782" height="637" rx="891" ry="318.5" fill="#fff" stroke="#fff" stroke-width="7.62"/><text x="10500" y="14850" fill="#201e1e" font-family="&apos;Arial Black&apos;" font-weight="900" font-size="612.66" transform="matrix(.95341 0 0 1-6153.03 2989.74)">NN 1</text></svg>