<svg xmlns="http://www.w3.org/2000/svg" width="744.09" height="1052.36" viewBox="0 0 21000 29700" shape-rendering="geometricPrecision" image-rendering="optimizeQuality" fill-rule="evenodd" clip-rule="evenodd"><defs><clipPath id="0"><path d="m14334 26675c1334 679 3868 548 4637-708 767-1252 593-4802 666-6542 182-4359 643-7664 762-11179 132-3904-2407-6484-5442-7211-4282-1025-4028 4982-3434 8069 312 1658 929 3102 1322 4724 725 2991 68 7557 320 10670 129 1076 472 1790 1168 2177z"/></clipPath><clipPath id="1"><path d="m6582 26666c-1334 679-3868 548-4637-708-767-1251-593-4800-666-6540-182-4357-643-7662-762-11176-132-3902 2407-6482 5442-7209 4282-1025 4028 4980 3434 8067-312 1658-929 3101-1322 4722-725 2990-68 7555-320 10666-129 1076-472 1789-1168 2177z"/></clipPath></defs><text x="10081" y="23623" fill="#201e1e" font-family="&apos;Arial Black&apos;" stroke="#201e1e" font-weight="900" stroke-width="7.62" font-size="705.56">42</text><g fill="none" stroke="#373435" stroke-width="80"><circle cx="10533" cy="1326" r="460"/><path d="m10533 515v1621"/><path d="m9723 1326h1621"/><circle cx="10533" cy="24995" r="460"/><path d="m10533 24184v1621"/><path d="m9723 24995h1621"/></g><rect x="9508" y="21571" width="1347" height="637" rx="318" fill="#fff" stroke="#fff" stroke-width="20"/><g fill="#373435" font-family="&apos;Arial&apos;" font-size="423.33"><text x="704" y="28200">DESC 1</text><text x="697" y="28669">DESC 2</text><text x="701" y="29130">DESC 3</text></g><path d="m14334 26675c1334 679 3868 548 4637-708 767-1252 593-4802 666-6542 182-4359 643-7664 762-11179 132-3904-2407-6484-5442-7211-4282-1025-4028 4982-3434 8069 312 1658 929 3102 1322 4724 725 2991 68 7557 320 10670 129 1076 472 1790 1168 2177z" fill="#fff"/><g clip-path="url(#0)"><g><g fill="#201e1e"><path d="m20068 74h-137v29383h137z"/><path d="m19747 74h-546v29383h546z"/><path d="m18468 74h-136v29383h136z"/><path d="m18148 74h-547v29383h547z"/><path d="m16869 74h-137v29383h137z"/><path d="m16548 74h-546v29383h546z"/><path d="m15269 74h-136v29383h136z"/><path d="m14949 74h-547v29383h547z"/><path d="m13670 74h-137v29383h137z"/><path d="m13349 74h-546v29383h546z"/><path d="m12071 74h-137v29383h137z"/><path d="m11750 74h-547v29383h547z"/></g><g fill="#fff" stroke="#fff" stroke-width="7.62"><path d="m17270 1082h-54c-150 8-300 78-417 235-121 161-154 320-154 537-30-3-34-10-67-10-332 0-541 145-734 378-45 55-66 112-69 165v29c7 122 105 220 210 220 78 0 118-20 191-20-65 130-49 211-19 345-95 0-182 24-241 100-118 152-106 388 23 528 114 123 130 80 237 134 0 191 93 396 268 396 95 0 152-60 210-102 85 134 358 213 516 213 178 0 164-97 229-51-26 41-61 67-89 118-108 197-21 457 166 562-6 79-19 82-19 203 0 133 75 274 210 274 59 0 129-8 172-30 37 75 85 146 146 200 29 25 33 20 54 54-16 24-60 44-88 69-80 71-156 155-205 260-74 159-102 352-76 531 20 134 65 244 132 347 118 185 275 256 495 256 0 2-146 235-195 382-46 138-82 320-82 501 0 72 10 106 10 183-56 40-115 95-115 193 0 94 0 201 46 276 15 24 25 33 34 65 8 28 10 54 17 83 64 251 240 439 454 554 49 26 93 35 137 57-35 77-11 188-51 250-25 39-102 149-111 186-22-11-220-71-248-71-75 0-136 14-189 73-42 47-59 118-59 191 0 125 172 246 172 305 0 53-153 172-153 355-96 24-182 112-182 234 0 89 52 146 67 213-61 96-213 179-134 355-26 41-57 71-57 142 0 55 7 109 29 152-57 32-96 99-96 173 0 136 29 132 86 223-23 104-17 137-22 160-9 40-45 61-45 135 0 118 37 206 147 250 111 44 61 56 143 102 86 49 29 64 36 154l35 329c48 263 163 455 364 598 103 73 201 110 290 120h96c297-34 460-377 291-596-41-53-131-125-217-125-193 0-137 32-239 61-53-84-86-154-86-294 0-88 19-255 39-324l138-401c82-208 183-396 310-575 133-186 337-308 502-542 182-258 292-563 367-879 41-174 10-122 122-226 60-56 116-117 165-191 179-271 226-674 157-1020l-65-205c-15-35-16-23-25-55 54-1 94-19 138-36 24-9 23-5 43-15 19 76 123 162 201 162 248 0 299-261 210-457 179 16 214 23 324-183 16-29 30-54 45-84 28-56 56-138 74-206 71-265 18-302 5-461 82-2 178-49 235-85 159-100 117-276 33-412-71-114-164-152-179-207-14-55-7-55 9-94 247-592-556-953-671-430l-84-33c-31-16-10 3-28-31-95-180-256-251-471-251 97-195 287-308 287-437 0-107-3-78-38-163-22-52 129-249 30-560-51-160-59-396-298-415-83-6-109-42-150-84-18-19-47-37-70-48-57-27-28-9-66-51-52-58-101-46-151-84-28-21-22-33-63-55-32-18-56-18-74-44 53-15 130-106 159-156 174-310-6-711-273-859-58-32-151-71-239-71l-162 10c-13-162-117-231-172-345-145-302-347-203-411-203-52 0-64-6-106-30-41-24-97-22-143-41-110-46-165-32-217-54-55-22-87-32-146-18 10-39 27-38 47-71 13-21 28-49 37-72 22-54 39-129 39-202 0-326-302-604-617-619z"/><path d="m13503-106h-63c-115 8-234 59-344 167-17 17-49 58-62 76-115 158-137 349-48 528-28 7-40 15-68 19-123 18-110 32-192 50-46 10-79 36-123 43-62 8-256-73-373 161l-81 128c-22 37-52 95-61 138-126 0-155 1-252 37-290 106-472 588-262 824 20 22 30 28 46 53-20 14-33 29-56 42-20 11-41 19-59 28l-162 122c-57 60-115 38-187 76-146 76-144 224-169 297-49 139-57 303-8 441 19 53 21 32 2 79-94 230 142 299 171 417-86 21-127 31-197 75-47 30-115 90-128 148h-29c-17-67-94-133-156-159-81-34-165-19-240 12-219 92-290 346-209 568 27 74-19 78-61 120-117 113-205 345-46 471 66 52 110 50 178 85-39 178 20 412 100 554 59 106 101 195 244 207-1 46-10 40-10 91 0 260 308 368 420 142 23 6 38 11 57 20-12 57-34 107-46 165-52 260-20 572 102 790 105 187 218 226 238 306 40 161 68 286 125 425 92 223 214 416 385 576 112 105 230 228 310 371 36 65 65 109 95 184 79 203 253 595 147 828-51-5-70-30-124-30-131 0-243 51-296 172-150 340 232 675 644 390 275-190 321-466 321-847 47-26 46-45 81-66 53-33 186-67 186-228 0-97-51-152-46-244 4-63 128-150 26-314-37-59-18-46-18-122 0-72-38-115-38-162 0-47 11-24 2-83-17-112-107-164-107-191 0-32 38-65 38-132 0-158-43-174-122-236-16-13-10-5-18-21-39-84 8-50-101-207-8-12-10-14-17-22 43-69 134-147 134-254 0-123-83-254-210-254-88 0-141 41-220 41-10-42-41-70-62-107-19-34-21-105-24-147 80-20 161-75 218-124 135-118 201-243 250-425 13-48 34-61 52-117 38-117 31-260-54-347-15-15-37-31-46-42-15-17-19-34-32-57-57-99-21-113-66-204-32-64-28-142-68-202-44-67-31-42-54-125-21-73-91-125-95-174 157 0 258 64 471-160 239-252 212-769-44-995-19-17-47-41-64-54 19-30 37-42 60-69 20-24 32-46 45-74 90 46 221 4 276-72 83-114 49-196 49-324 142-80 204-307 124-467 200 0 326-45 478-152 43 24 100 61 162 61 167 0 229-155 257-295 15-74 19-13 131-95 238-175 165-619-101-625 23-52 4-123 0-173 30 3 34 10 67 10 177 0 288-219 195-370-52-85-126-151-202-212-127-101-274-149-461-149v-51c0-285-232-540-505-558z"/></g><g fill="#201e1e" stroke="#201e1e" stroke-width="7.62"><path d="m19699 4917c29 53 46 61 101 42 39 51 78 55 110 48 46-10 79-58 82-135-65 35-86 47-129-13 7-96-45-166-150-151-273 37-188 522 61 527 355 7 586-424 381-728 34-50 4-95-30-135 5 48 10 42-16 81-42-59-63-89-164-131 0 0 0 22 10 30 118 89 210 268 209 418-1 73-22 149-73 225-1-246-56-422-174-539-123-122-283-209-483-287-211-83-348-131-490-331-61-85-93-188-100-290-7-98 2-212 92-312 27 29 53 58 80 87 36-70 111-149 192-145 72 4 117 41 139 91 49 110-14 281-150 293 215 88 375-48 355-248-23-227-204-413-419-392-157 15-283 153-334 280-124 309 29 602 198 782-235-27-439-33-631 80-113 68-193 218-259 284-41 6-65 6-83-4-24-12-38-39-66-86-25 116 30 179 135 184-109 105-245 177-391 93-56-32-83-83-3-144-3-41-3-59-13-66-31-22-58-8-78 18-70 93-33 203 61 259 104 62 228 52 329-2-10 18-20 35-30 53-83 6-136-2-204 58 43 4 70 14 117 29-83 99-139 169-110 308 157-17 179-129 200-279 24 33 28 52 44 96 41-75 29-120-8-190 8-27 26-56 34-83 22-29 45-58 67-87 26 144 83 226 168 335 84 70 161 115 241 116 141 2 242-48 299-126 73-101 72-249-10-392-39-32-59-209 66-222 22-2 47 12 73 48 42-81-22-142-95-132-60 8-125 63-138 194-72-30-145-24-204 3-89 41-148 133-132 232 18 115 97 184 183 182 122-3 157-109 134-175-23-67-109-74-121 1 32 56 18 92-10 101-39 12-105-29-118-144-2-86 57-136 141-143 65-5 112 13 145 45 153 148 109 424-98 457-100 16-186 2-253-39-103-64-159-158-181-256-44-196 35-349 164-443 232-170 612-135 843 14-414 112-384 686 5 692 90 1 204-94 204-195 0-145-104-210-218-202 97 89 83 225 19 238-79 17-142-115-174-178-19-5-37-10-56-15-14-189 149-261 309-271 78-5 155 5 211 23 152 49 293 122 404 263 60 76 105 171 125 291 9 77 10 146-7 203-24 83-83 141-205 157-13-37-18-47-46-73-15 24-18 38-23 67-34 0-69-18-95-46-30-33-47-82-36-137 17-18 35-37 52-55-18-8-41-27-59-36 13-29 31-55 52-70 32-23 60-19 78-4 36 31 41 106-46 104zm-659-1527c53-3 98 40 101 96 3 56-38 104-90 107-53 3-98-40-101-96-3-56 38-104 90-107zm62 323c45-3 83 34 85 81 2 47-32 88-76 91-45 3-83-34-85-81-2-47 32-88 76-91zm186 186c36-2 68 28 70 66 2 39-26 72-62 74-36 2-68-28-70-66-2-39 26-72 62-74zm201 113c28-2 53 21 54 51 2 30-20 56-48 57-28 2-53-21-54-52-2-30 20-56 48-57zm167 98c20-1 37 15 38 37 1 21-14 40-34 41-20 1-37-15-38-37-1-21 14-40 34-41zm142 103c16-1 29 12 30 28 1 17-11 31-27 32-16 1-29-12-30-28-1-17 11-31 27-32zm-968-361c-104-177-207-337-398-422-238-106-432-34-638 89 143 19 248 50 375 129 51 39 103 79 154 118 180 118 309 138 508 86zm-595 152c124 42 202 6 311-35-81-69-138-118-217-133-127-25-330 96-333 242 79-43 146-81 238-74zm450 276c-39-55-63-107-131-122-75-16-140 27-204 61 44 4 77 8 106 22 43 21 48 27 87 40 39 13 88 8 143-1zm-244 1126c-52-59-92-127-118-209-7-202-37-312-199-440-103 333 18 532 317 649zm159-302c144-226 295-290 514-125-112 76-186 115-318 94-71-5-134 6-197 31zm411 3c-54-2-95 1-130 15-121 48-166 146-161 250 3 58 22 118 54 172-8-157 47-207 176-241 63-78 61-92 61-196zm-916-1626c162-40 317-43 455 80 44 39 77 91 107 175-170-206-306-252-562-255zm900 1455c-85-33-197-37-284 62 104-57 182-72 284-62zm-720 325c-105-112-133-189-142-348 28 131 74 241 142 348zm140-1354c-64-48-149-67-273-4 97-15 175-21 273 4zm-486 869c-14 64-32 145-88 178 11-90 24-124 88-178zm1200 3720c8 85-5 109-82 136-5 92-46 130-87 150-61 29-135 3-197-81 101-18 134-23 136-128-83-103-77-227 53-303 339-198 618 428 340 651-397 319-993 32-997-493-77-27-78-104-72-180 31 59 21 57 81 78 2-104 3-157 85-293 0 0 17 25 12 42-65 204-31 488 87 657 58 82 141 149 258 192-190-280-264-528-221-764 45-246 159-485 325-748 175-278 293-454 299-805 2-150-41-295-111-417-68-118-166-238-346-273-8 56-15 113-23 169-95-48-242-72-331 4-79 67-101 149-88 225 29 167 233 307 397 201-176 289-463 274-595 29-150-278-88-647 171-812 190-121 440-75 597 25 381 242 434 709 382 1060 246-237 472-422 779-462 181-22 388 78 514 96 51-28 78-50 92-77 18-35 13-78 8-156 119 109 105 229-11 328 204 23 416-14 516-237 38-86 29-167-108-166-29-50-42-70-37-86 18-53 59-59 102-47 152 43 195 202 132 348-70 161-219 258-375 286 25 11 50 23 76 34 99-66 153-122 277-113-45 42-69 78-111 135 171 40 288 70 364 253-191 119-303 9-444-141-2 59 9 84 25 148-105-49-127-111-139-223-30-24-73-40-102-64-48-13-96-27-144-40 82 187 82 329 69 527-41 154-93 271-184 343-158 126-312 158-437 118-161-51-275-219-292-453 19-70-95-289-246-194-27 17-44 54-46 119-111-55-85-181 5-233 74-44 191-37 308 100 59-97 145-154 234-175 133-31 271 21 329 147 68 146 33 293-66 366-140 103-263 14-288-81-26-97 67-179 138-105 7 92 51 121 90 105 53-21 97-125 22-266-65-100-170-104-270-39-78 51-117 113-130 179-59 302 206 577 465 433 125-69 213-160 257-266 68-162 58-319 7-449-103-261-311-366-530-360-395 10-799 383-946 754 556-236 967 442 531 790-101 81-304 71-382-43-112-164-45-330 92-420-41 185 80 328 164 287 103-50 72-255 60-354 17-22 34-44 52-66-130-227-371-166-561-37-93 63-173 142-222 211-135 190-238 396-255 653-9 139 13 285 83 440 49 95 102 174 165 224 91 74 203 87 354-1-15-53-16-69-4-123 35 14 50 27 78 55 39-30 65-81 71-135 8-64-10-134-65-187-34-6-68-11-102-17 14-26 25-67 39-92-37-22-78-35-114-34-54 1-83 31-91 64-17 66 36 157 133 77zm-437-2310c-62 43-80 131-40 197 40 66 123 85 186 42 62-43 80-131 40-197-40-66-123-85-186-42zm180 421c-53 36-68 111-34 167 34 56 104 72 157 36 53-36 68-111 34-167-34-56-104-72-157-36zm-67 373c-43 30-55 91-28 136 28 46 85 59 128 29 43-30 55-91 28-136-28-46-85-59-128-29zm-140 304c-33 23-43 70-21 106 22 35 66 46 100 23 33-23 43-70 21-106-22-35-66-46-100-23zm-113 258c-24 16-31 50-15 75 15 25 47 32 71 16 24-16 31-50 15-75-15-25-47-32-71-16zm-81 241c-18 13-24 39-12 58 12 20 36 25 55 12 18-13 24-39 12-58-12-20-36-25-55-13zm819-1258c-19-292-26-563 125-828 188-330 464-416 793-457-147 146-242 274-325 474-28 90-55 179-83 269-113 292-244 427-510 542zm792-349c-108 157-224 183-380 233 39-149 65-254 142-341 125-139 449-181 566-17-123 20-228 36-328 125zm-296 708c2-97-12-176 54-252 73-84 180-92 279-110-47 43-81 76-103 117-33 61-34 73-67 121-35 49-93 86-163 124zm1151 1065c12-112 6-225-29-341-149-235-200-387-116-673 376 288 392 620 144 1014zm-415-204c-339-130-559-71-681 308 186-12 301-32 433-172 76-67 157-110 247-136zm-464 363c60-50 109-82 159-97 174-52 302 20 376 143 42 69 66 154 72 242-112-185-214-194-387-119-132-34-140-52-221-169zm-222-2647c-215 96-393 228-454 489-19 83-17 171 14 293 33-382 152-553 440-782zm108 2440c71-111 195-215 370-178-162 26-263 77-370 178zm1069-262c32-219 4-331-108-519 71 173 103 338 108 519zm-1209-1413c36-111 118-206 306-244-122 68-215 129-306 244zm1225 561c66 61 148 137 238 124-83-92-124-120-238-124zm-2686-3752c44 41 63 43 110 6 53 35 92 26 120 8 42-26 58-83 38-158-52 56-69 75-128 31-22-95-94-144-191-94-252 130-22 567 218 486 344-115 435-609 145-832 17-60-25-93-70-120 20 44 23 37 9 84-59-43-88-64-198-70 0 0 6 21 18 25 140 45 284 186 328 330 22 71 24 151-2 242-76-237-182-388-331-460-155-75-336-104-552-111-228-7-375-7-572-151-84-61-146-150-185-245-37-92-62-204-6-332 35 19 69 38 104 57 13-80 62-182 141-206 70-21 125-1 162 40 81 89 72 275-55 334 234 11 347-175 266-361-91-211-322-327-522-234-147 69-226 244-237 384-26 340 211 570 428 685-235 55-432 119-584 294-88 104-119 276-163 363-37 20-61 28-81 25-27-4-49-25-90-60 11 120 83 162 186 131-73 138-183 255-349 224-64-12-105-52-47-137-16-39-21-56-32-59-37-11-58 12-69 44-40 113 30 207 138 229 119 24 235-28 316-115-4 21-9 41-13 62-78 34-132 45-179 126 42-11 72-11 122-13-50 124-82 210-12 334 146-70 133-186 108-337 34 23 43 41 72 78 17-86-8-126-66-181-1-29 8-62 7-91 13-36 25-72 38-107 69 130 148 189 264 264 103 39 190 55 268 29 137-46 219-129 249-224 39-122-6-264-129-374-47-18-120-181-4-236 20-10 49-5 85 21 16-93-65-129-131-95-55 28-101 104-74 235-79-4-147 26-195 73-73 70-102 179-57 268 52 104 149 144 231 112 116-45 118-159 76-215-43-57-127-33-116 42 48 43 46 83 21 101-34 25-110 8-157-98-28-83 14-150 92-186 61-28 111-26 154-6 192 89 234 371 45 474-91 49-179 66-256 50-119-26-201-97-252-184-102-174-72-348 23-483 172-243 548-340 816-276-364 250-161 792 216 665 87-30 167-161 137-257-44-139-164-167-272-119 120 52 148 188 91 223-71 43-172-62-222-111-19 2-39 3-58 5-71-177 64-302 215-367 74-32 151-49 210-51 162-5 320 17 469 115 81 53 153 128 209 237 32 71 54 137 55 197 3 88-37 164-149 222-23-32-32-39-67-54-7 28-6 43-2 72-33 11-72 7-105-12-39-22-70-63-76-119 11-24 22-47 34-71-20-2-48-12-68-14 4-33 13-63 29-86 24-33 52-39 74-30 44 17 72 88-13 116zm-1099-1244c50-21 107 5 126 58 20 53-5 113-54 134-50 21-107-5-126-58-20-53 5-113 54-134zm158 290c42-18 90 4 107 49 17 45-4 96-46 114-42 18-90-4-107-49-17-45 4-96 46-114zm235 115c34-15 74 3 87 40 14 37-3 78-38 93-34 15-74-3-87-40-14-37 3-78 38-93zm228 40c27-11 57 3 68 31 11 28-2 61-29 72-27 11-57-3-68-31-11-28 2-61 29-72zm191 37c19-8 41 2 48 22 8 20-2 43-21 51-19 8-41-2-48-22-8-20 2-43 21-51zm168 51c15-6 31 1 37 17 6 16-1 33-16 40-15 6-31-1-37-17-6-16 1-33 16-40zm-1042-15c-154-135-302-253-512-270-262-21-426 116-587 305 143-31 254-37 400-5 61 20 123 41 184 61 209 52 340 27 515-92zm-527 350c132-2 196-64 289-140-99-38-169-66-249-54-130 20-289 205-247 347 63-69 116-128 207-153zm517 112c-55-40-93-81-163-72-77 10-127 74-178 129 44-11 76-18 108-15 48 5 54 9 95 9 42-1 87-22 137-50zm108 1168c-68-39-127-91-177-161-68-192-131-288-325-355 2 356 179 506 502 516zm61-346c70-267 195-380 457-297-85 112-144 175-277 199-70 20-127 52-180 98zm396-138c-53 17-91 34-121 59-102 87-116 198-79 296 21 55 58 106 104 147-55-148-18-216 97-293 37-97 30-110-1-209zm-1376-1251c144-94 292-151 462-79 54 23 102 61 157 132-226-140-371-137-619-53zm1309 1092c-92-2-201 32-254 157 83-90 153-132 254-157zm-595 560c-135-72-186-136-243-286 67 117 144 207 243 286zm-276-1351c-77-24-164-13-264 90 89-48 162-81 264-90zm-203 1003c6 67 14 150-31 202-16-90-15-128 31-202zm2121 9993c9-22 33-53 65-71 62-36 147-6 147 76 0 130-132 161-224 140-240-56-377-259-421-470-176-831 335-1584 777-2245 54-81 98-168 143-251 103-243 151-471 134-742-156-24-297-134-379-263-38-60-63-127-71-196-22-202 105-307 289-228 191 83 292 392 315 610 51 10 121-4 156-17 21-228-1-435-47-637-49-214-140-417-133-642 6-189 80-346 249-497-118 158-158 263-177 471-5 117 12 223 36 327 30 126 71 249 102 382 41 175 49 358 56 554 198-142 340-337 350-603 6-170-33-292-114-432-43 4-72 3-102-4-72-15-186-94-153-189 17-49 57-71 104-76 56-6 121 10 158 42 87 76 136 198 158 329 77 464-57 856-397 1048-85 465-201 851-501 1193-72 68-144 136-216 204-159 147-246 300-361 490-122 251-219 505-296 776-51 292-83 621 135 850 59 62 130 97 222 71zm929-3563c-49 16-99 24-150 22-18 297-77 540-196 797 189-233 282-511 345-819zm-288-111c-25-179-87-463-264-495-91-17-123 24-115 123 17 185 257 366 379 373zm-533-180l-210 335-364-110 235 316-211 334 355-140 234 317-15-402 356-138-365-109-14-402zm-278 1085l-207 206-247-146 120 272-207 205 281-37 119 273 53-296 281-36-248-145 55-295zm-274 762l-144 136-166-104 77 188-145 135 192-20 76 188 41-200 192-19-166-104 42-200zm-100 644l-98 88-109-73 48 126-99 87 128-10 48 127 31-132 128-9-109-72 31-132z"/><path d="m11676 2989c-23 42-37 48-81 34-31 40-62 44-87 38-37-8-63-46-65-107 52 28 69 37 103-11-6-77 36-132 120-121 218 30 150 416-48 420-283 6-467-338-303-580-27-40-3-76 24-108-4 38-8 34 13 65 34-47 51-71 131-105 0 0 0 18-8 24-94 71-168 213-167 333 1 58 18 118 58 180 1-196 44-337 139-430 98-97 225-166 385-229 168-66 277-105 390-264 48-68 74-150 80-231 6-78-2-169-73-248-21 23-43 46-64 70-29-56-89-119-153-116-57 3-93 33-111 72-39 87 11 224 119 234-172 70-299-38-283-198 18-181 163-329 334-313 125 12 226 122 266 223 99 246-23 480-158 623 188-22 350-26 503 64 90 54 154 174 207 226 32 5 52 5 66-3 19-10 31-31 53-69 20 93-24 143-108 147 87 83 196 141 312 74 45-26 66-66 2-114 2-33 3-47 10-53 25-18 46-6 62 15 56 74 26 162-49 207-83 49-182 41-262-2 8 14 16 28 24 42 66 5 109-2 163 46-34 3-56 11-94 23 66 79 111 135 88 245-125-13-142-103-160-222-19 26-22 42-35 77-33-60-23-96 6-152-6-21-21-44-27-66-18-23-36-46-53-70-21 115-66 180-134 267-67 56-128 92-192 93-113 2-193-38-238-101-58-80-57-198 8-312 31-26 47-167-52-177-17-2-37 9-58 38-34-65 18-113 75-106 48 6 99 51 110 155 58-24 115-19 163 3 71 33 118 106 105 185-15 91-77 146-146 145-97-2-125-87-107-140 19-54 87-59 97 1-26 45-15 74 8 80 31 9 84-23 94-114 2-69-45-108-112-114-52-4-89 10-116 36-122 118-87 338 78 364 79 13 149 2 202-31 82-51 127-126 144-204 35-156-28-278-131-353-185-135-488-107-672 11 330 89 306 547-4 552-72 1-162-75-162-155 0-115 83-167 174-161-77 71-66 179-15 190 63 13 113-92 139-142 15-4 30-8 45-12 11-151-119-208-246-216-62-4-124 4-168 18-121 39-234 97-322 210-48 61-83 136-100 232-7 61-8 116 5 162 19 66 66 112 163 125 10-30 14-37 37-58 12 19 14 30 19 53 27 0 55-14 75-37 24-27 37-65 29-109-14-15-28-29-42-44 15-7 32-22 47-28-10-23-25-44-42-56-25-19-48-15-62-3-29 25-33 85 37 83zm525-1217c-42-2-78 32-80 77-2 45 30 83 72 85 42 2 78-32 80-77 2-45-30-83-72-85zm-50 258c-36-2-66 27-68 65-2 38 25 70 61 72 36 2 66-27 68-65 2-38-25-70-61-72zm-148 148c-29-2-54 22-56 53-2 31 21 57 50 59 29 2 54-22 56-53 2-31-21-57-50-59zm-160 90c-23-1-42 17-43 41-1 24 16 44 39 46 23 1 42-17 43-41 1-24-16-44-39-46zm-133 78c-16-1-30 12-31 29-1 17 11 32 27 33 16 1 30-12 31-29 1-17-11-32-27-33zm-113 82c-12-1-23 9-24 23-1 13 9 24 21 25 12 1 23-9 24-23 1-13-9-24-21-25zm772-288c83-141 165-268 318-336 190-85 344-27 508 71-114 15-197 40-299 103-41 31-82 63-123 94-143 94-246 110-405 68zm474 121c-99 34-161 5-248-28 65-55 110-94 173-106 101-20 263 76 266 193-63-34-116-64-190-59zm-359 220c31-44 50-85 104-97 60-13 112 21 163 48-35 3-61 7-84 18-34 16-38 22-69 32-31 10-70 6-114-1zm194 898c41-47 73-101 94-167 5-161 30-249 158-351 82 266-15 424-252 517zm-127-241c-115-180-235-231-410-100 89 61 148 92 253 75 56-4 107 5 157 25zm-327 2c43-2 76 1 104 12 96 38 133 116 128 199-3 46-18 94-43 137 6-125-37-165-141-192-50-62-48-74-48-156zm730-1295c-129-32-252-35-362 64-35 31-61 73-86 140 135-164 244-200 448-203zm-717 1160c68-26 157-30 226 50-83-45-145-58-226-50zm574 259c84-90 106-151 113-277-22 105-59 192-113 277zm-112-1079c51-38 119-53 217-3-77-12-140-17-217 3zm387 692c11 51 25 115 71 142-9-72-19-99-71-142zm-956 2965c-7 68 4 87 66 109 4 73 36 104 69 120 48 23 107 2 157-65-80-14-107-18-108-102 66-82 62-181-42-242-270-157-492 341-271 519 316 254 792 26 794-393 61-22 62-83 57-143-25 47-17 46-65 62-2-83-2-125-67-233 0 0-14 20-10 33 52 162 25 389-69 523-46 66-112 119-206 153 152-223 211-421 176-609-36-196-127-386-259-596-139-222-234-362-238-641-2-120 33-235 89-332 54-94 132-190 276-218 6 45 12 90 18 135 76-39 193-58 264 3 63 54 81 119 70 179-23 133-186 245-317 160 140 230 369 219 474 23 120-222 70-516-136-647-152-96-350-60-475 20-304 193-346 565-304 845-196-189-376-336-621-368-144-17-309 62-410 76-40-23-62-40-73-61-14-28-10-62-7-124-95 87-83 183 8 261-163 19-332-11-411-189-31-69-23-133 86-132 23-40 34-56 29-69-14-42-47-47-82-38-121 35-156 161-105 277 55 128 174 206 299 228-20 9-40 18-60 27-79-53-122-97-221-90 36 33 55 62 88 108-136 32-230 56-290 202 152 95 242 8 354-112 2 47-7 67-20 118 84-39 101-88 110-178 24-19 58-32 82-51 38-11 77-22 115-32-65 149-65 262-55 420 33 122 74 216 146 274 126 101 249 126 348 94 128-41 219-175 233-361-15-56 76-230 196-155 21 13 35 43 37 95 89-44 67-144-4-186-59-35-152-30-245 79-47-77-116-123-187-139-106-24-216 17-263 118-54 116-26 233 53 292 112 82 210 11 230-65 20-77-53-143-110-84-5 73-41 96-72 84-43-17-77-100-18-212 52-80 135-83 215-31 62 40 93 90 103 142 47 240-164 460-371 345-100-55-170-128-205-212-54-129-47-254-6-358 82-208 248-291 422-287 315 8 637 305 754 601-443-188-771 352-423 630 81 64 242 57 304-34 89-131 36-263-73-335 33 148-64 262-131 229-82-40-57-204-48-282-14-18-27-35-41-53 104-181 296-132 447-30 74 50 138 113 177 168 107 151 190 315 203 520 7 111-11 227-66 350-39 76-81 139-131 179-73 59-162 69-282-1 12-42 13-55 3-98-28 11-40 22-62 44-31-24-52-64-57-108-6-51 8-107 52-149 27-4 54-9 81-13-11-20-20-53-31-73 30-17 62-28 91-27 43 1 66 24 73 51 13 53-28 125-106 61zm348-1841c50 34 64 105 32 157-32 53-98 68-148 34-50-34-64-105-32-157 32-53 98-68 148-34zm-143 336c42 29 54 88 27 133-27 45-83 57-125 29-42-29-54-88-27-133 27-45 83-57 125-29zm53 297c34 24 44 72 22 109-22 36-68 47-102 23-34-24-44-72-22-109 22-36 68-47 102-23zm112 242c27 18 34 56 17 84-17 28-53 36-79 18-27-18-34-56-17-84 17-28 53-36 79-18zm90 205c19 13 24 40 12 60-12 20-37 26-56 13-19-13-24-40-12-60 12-20 37-26 56-13zm64 192c15 10 19 31 9 46-9 16-29 20-44 10-15-10-19-31-9-46 9-16 29-20 44-10zm-652-1002c15-233 21-449-99-660-150-263-370-332-632-365 117 116 193 218 259 378 22 71 44 143 66 214 90 232 194 341 406 432zm-631-278c86 125 179 146 303 186-31-119-52-203-113-272-99-111-358-144-451-14 98 16 182 29 261 100zm236 564c-2-77 9-140-43-201-58-67-143-74-222-88 38 34 64 61 82 94 26 49 27 58 54 96 28 39 74 68 130 99zm-917 848c-10-90-4-179 23-272 119-187 159-308 92-537-299 229-312 494-115 808zm331-162c270-103 446-57 542 246-148-10-240-26-345-137-61-54-125-88-197-109zm370 289c-48-40-87-65-127-77-139-41-241 16-300 114-33 55-53 122-58 193 90-147 171-155 308-95 105-27 112-41 176-135zm177-2109c171 77 313 182 362 390 15 66 13 136-11 233-26-305-121-441-351-623zm-86 1944c-57-89-155-171-295-142 129 21 209 62 295 142zm-852-209c-26-175-3-264 86-414-56 138-82 270-86 414zm963-1126c-29-88-94-165-244-194 97 54 172 103 244 194zm-976 447c-53 48-118 109-190 99 66-73 99-96 190-99zm2140-2990c-35 33-50 34-88 5-42 28-73 21-96 7-33-21-46-66-30-126 42 44 55 59 102 25 18-76 75-115 152-75 201 103 18 452-174 388-274-92-347-486-116-663-14-48 20-74 55-96-16 35-18 30-7 67 47-34 70-51 158-56 0 0-5 17-15 20-112 36-226 148-261 263-17 56-19 120 2 193 60-189 145-309 264-366 124-60 268-83 440-88 182-6 299-6 456-120 67-49 117-119 147-195 29-73 50-163 5-264-28 15-55 30-83 45-10-64-49-145-113-164-56-17-100-1-129 31-64 71-58 219 44 266-187 9-276-139-212-288 73-168 257-261 416-186 117 55 180 195 189 306 21 271-168 454-341 546 187 44 345 95 465 234 70 83 95 220 130 289 30 16 48 22 65 20 21-3 39-20 72-48-9 96-66 129-149 104 58 110 145 203 278 178 51-10 84-41 37-109 12-31 17-45 26-47 29-9 46 10 55 35 32 90-24 165-110 182-94 19-187-23-252-92 3 16 7 33 10 49 62 27 105 36 143 101-34-9-57-8-97-10 40 98 66 168 10 266-117-56-106-148-86-269-27 19-34 33-57 62-14-69 7-100 52-144 1-23-6-50-6-73-10-28-20-57-30-85-55 104-118 151-210 211-82 31-151 44-213 23-109-37-174-103-199-179-31-97 5-211 103-298 37-14 96-144 3-188-16-8-39-4-68 17-13-74 52-103 105-76 44 22 80 83 59 187 63-3 117 21 156 58 58 56 81 142 45 214-42 83-119 114-184 89-93-36-94-127-61-171 34-45 102-27 93 34-38 34-36 66-17 80 27 20 88 7 125-78 23-66-11-120-73-148-49-22-89-20-122-5-153 71-186 296-36 377 73 39 142 53 204 40 95-21 160-77 201-147 81-139 58-278-18-385-137-194-437-271-650-220 290 199 128 631-172 530-69-24-133-128-109-205 35-111 131-133 216-95-96 41-118 150-72 178 57 34 137-50 177-89 16 1 31 2 47 4 57-141-51-241-171-293-59-25-120-39-167-40-129-4-255 14-374 91-65 42-122 102-167 189-25 56-43 109-44 157-2 70 30 131 119 177 19-25 25-31 53-43 6 22 5 34 2 57 26 9 57 5 84-10 31-17 56-50 61-95-9-19-18-38-27-56 16-1 38-10 54-11-3-26-11-50-23-68-19-27-41-31-59-24-35 14-57 70 10 92zm876-991c-40-17-85 4-101 46-16 42 4 90 43 107 40 17 85-4 101-46 16-42-4-90-43-107zm-126 231c-34-14-72 3-85 39-13 36 3 76 37 90 34 14 72-3 85-39 13-36-3-76-37-90zm-187 92c-27-12-59 3-70 32-11 29 2 62 30 74 28 12 59-3 70-32 11-29-3-62-30-74zm-181 32c-21-9-45 2-54 25-8 23 2 48 23 57 21 9 45-2 54-25 8-23-2-48-23-57zm-152 30c-15-6-32 1-38 18-6 16 1 34 17 41 15 6 32-1 38-18 6-16-1-34-17-41zm-134 40c-12-5-25 1-30 14-5 12 1 27 13 32 12 5 25-1 30-14 5-12-1-27-13-32zm830-12c123-107 240-202 408-215 209-16 339 92 468 243-114-25-202-29-319-4-49 16-98 32-147 49-167 41-271 21-410-73zm420 279c-105-2-156-51-230-112 79-30 134-53 198-43 103 16 230 164 197 277-50-55-92-102-165-122zm-412 89c44-31 74-65 130-57 62 8 101 59 142 102-35-9-61-15-86-12-38 4-43 8-76 7-33-1-69-18-109-40zm-86 931c54-31 101-72 141-128 54-153 104-229 259-283-2 284-143 403-400 412zm-49-276c-56-213-156-303-364-237 68 89 115 140 221 159 55 16 101 42 143 78zm-316-110c42 13 72 27 96 47 81 70 92 158 63 236-17 44-46 85-83 117 44-118 14-172-77-233-29-77-24-87 1-167zm1096-997c-115-75-233-120-368-63-43 18-81 49-125 105 180-112 296-109 493-42zm-1043 870c73-2 160 25 203 125-66-72-122-105-203-125zm474 446c108-57 148-109 194-228-53 93-115 165-194 228zm220-1077c61-19 131-10 210 72-71-38-129-64-210-72zm162 800c-5 53-11 120 25 161 13-72 12-102-25-161zm-1691 7964c-7-17-27-42-52-57-50-29-117-5-117 61 0 104 106 129 179 111 191-45 300-206 336-375 140-662-267-1263-619-1789-43-65-78-134-114-200-82-194-120-376-107-591 125-19 237-107 302-210 31-48 51-101 57-156 18-161-84-245-230-182-152 66-233 312-251 486-40 8-97-3-124-14-17-182 1-347 38-508 39-171 112-333 106-512-4-150-64-276-198-396 94 126 126 210 141 375 4 93-9 178-29 261-24 100-57 198-81 305-32 139-39 285-45 441-158-113-271-268-279-481-5-135 26-233 91-344 35 3 58 2 82-3 57-12 148-75 122-150-13-39-46-57-83-61-44-5-97 8-126 33-70 61-109 158-126 263-62 369 46 682 317 835 68 371 160 678 399 950 57 54 115 109 172 163 127 117 196 239 288 390 97 200 174 402 236 618 41 233 66 495-107 677-47 49-104 77-177 57zm-740-2839c39 13 79 19 119 18 14 237 61 430 156 635-150-186-225-408-275-653zm230-89c20-142 69-369 210-395 72-13 98 19 91 98-13 147-205 292-302 297zm425-144l167 267 290-88-187 252 168 266-283-111-186 252 12-321-283-110 291-87 11-321zm221 865l165 164 197-117-96 217 165 163-224-30-95 218-43-236-224-29 198-116-43-235zm218 607l115 108 132-83-61 150 115 108-153-16-61 150-33-159-153-15 132-83-34-159zm80 513l78 70 87-58-38 101 79 70-102-8-38 101-25-105-102-7 87-58-25-105z"/></g></g></g><path d="m15904 20945c-92 2-145 80-182 152-39-10-73-3-104-4-61-2-91-23-162 5-58 23-109 77-128 148-22 78-62 74-113 164-36 64-55 136-55 236-126 0-290-135-433-3-52 49-92 125-111 197-29 107-8 54-97 121-22 16-35 32-55 54-21 23-27 34-53 46-12 5-23 7-36 13-45 19-66 38-117 48-66 13-120 39-164 90-58 68-144 98-181 193-13 33-11 56-28 82-18 27-24 18-42 57-36 73-15 186-81 239-13 10-16 11-28 21l-102 64c-134 94-253 222-191 404 27 79-21 83-21 163 0 123 99 262 191 284-30 137-47 171 19 305-104 26-210 158-210 294 0 55 29 100 29 122 0 19-17 43-25 65-40 117 17 218 94 287 17 15 20 15 38 31 20 19 17 19 42 37 41 30 54 34 98 58 67 36 107 103 125 182 11 46 15 77 37 113 60 102 43 144 100 209 38 43 38 40 87 70 58 35 59 93 169 135 51 19 69-1 116 29l104 52c52 36 90 126 171 134 0 134 102 325 239 325 82 0 156-7 223-38 174-81 55 93 206 283 35 44 40 17 69 79 100 212 192 163 401 163 5 64 70 113 122 135 106 45 32 38 89 180 58 147 167 242 273 254h42c65-7 126-50 169-135 36-71 79-177 79-281 172-42 122-152 210-152 189 0 296 49 376-169 19-51 56-66 90-108 51-64 70-168 70-261 117-3 21-16 138 26 90 32 234 46 309-28 48-48 76-107 104-174 17-40 10-76 38-102 43-40 83-52 129-106 35-41 4-21 59-39 66-22 61-46 130-55 56-8 94-21 132-53 7-6 14-13 20-19l74-74c91-66 112-108 150-217 16-46 42-60 60-129 17-61 33-85 49-141 22-78 108-81 209-164 229-190 127-316 122-383-3-37 78-171-25-310-24-32-65-84-102-94 60-120 83-238 19-366 220-124 105-384 105-386 0-93 145-200-162-416-35-25-60-34-99-57-11-7-40-28-45-33-26-26-35-81-50-119-38-95-14-68-75-174-44-77-22-141-119-209-17-12-35-20-47-31-15-13-20-26-35-44-89-105-141-71-265-135-42-21-75-18-107-59-33-43-81-98-142-103-10-48-11-80-29-122-44-103-139-213-258-213-55 0-129 22-179 43-1 1-25 12-26 13-36 20-31 26-91-5 0-136-33-243-123-316-57-46-25-25-55-94-50-115-157-157-267-134-43 9-91 6-138 6-16-71-88-146-162-152 0-167-129-406-277-406h-48c-150 0-277 239-277 406z" fill="#fff" stroke="#fff" stroke-width="7.62"/><g fill="#201e1e" stroke="#201e1e" stroke-linejoin="round" stroke-linecap="round" stroke-width="40"><path d="m18419 24511c-17 225 386 197 275-31-12 31-48 38-81 21 0-28-4-59 10-72 120-15 114 98 163 155-62 57-131 162-264 113-26 17 40 28 31 62-140 42-182-104-193-227 21-6 29-26 61-21z"/><path d="m18451 24361c-113 64-158 358-114 542 27-4 28-33 71-21 14 17 27 35 20 72-8 9-28 6-31 21-56 13-62-27-92-41 0 31 0 62 0 93 9 24 25-28 61-10 43 36 17 117-61 93-10-24-35-33-31-72-31 40-43 101-41 175 11-33 67-22 81 0 2 109-135 74-122-21-39 22-57 66-71 113 13 4 60-2 61 41-11 100-148 26-102-52-38-8-98 52-132 83 7 10 46-5 51 31 10 75-96 58-102 10-7-45 18-58 31-83-135-11-244-48-244-196 18-28 80-24 112-10 6 24 20 62 0 83-32 9-39-9-51-21-17 88 150 126 254 93-21-23-63-26-61-72 1-30 23-38 41-52 25-2 32 16 51 21 9 33-9 39-20 52 61-14 107-42 153-72-18-23-57-24-71-52-1-46 18-71 71-62 13 14 13 38 0 52 42-22 60-70 81-113-19-18-65-9-81-31-4-46 6-77 51-72 22-5 19 15 20 31 49-50 37-162 51-247-14-23-18 50-61 31-45-169 111-254 173-361-189 108-197 398-509 381-25-22-64-32-71-72-15-6-53 12-51-10-12-13-4-16 0-31 58-27 50-122 153-103 21 14 31 69 10 93-38 1-82 8-71-41-23 9-28 63-10 83 194 160 390-209 498-319-32 19-55 48-112 41-6-105 116-82 183-113 76 25 331-69 366 72-75-29-180-25-254 20-38 23-51 76-102 72 3-20 8-38 22-47zm0 0c3-1 5-3 8-4-3 1-6 2-8 4z"/><path d="m18332 23433c-104-117-231-430-482-324-12 29-13 64 0 93 10-31 30-52 81-41 20 24 10 79-10 93-101 2-129-69-153-145 14 0 27 0 41 0 23-14 33-42 51-62 312-61 350 242 518 361-39-108-203-186-152-340 41-10 45 16 61 31-8-92-10-189-41-258-6 38-50 36-81 20 0-21 0-41 0-62 22-12 41-27 81-20-11-54-45-85-71-124-20 1 16 39-10 52-113 24-64-135 0-93-18-61-93-64-142-93 1 5 19 59-20 72-38 4-46-22-61-41-3-48 33-56 61-72-86-50-246-13-264 72 17 33 22-32 61-10 20 20 6 59 0 83-32 14-94 18-112-10-1-145 106-182 234-196 3-13-45-90 0-124 39-5 65 3 81 21 11 36-23 78-41 52-8 50 92 78 132 113-20-25-10-86 0-113 37-19 85-10 92 31 1 35-31 69-61 41 2 63 45 85 61 134 29-9 12-63 31-83 53-50 134 18 81 72-19-5-61 14-51-21-31 56 12 125 20 175 17-21 21-54 41-72 78-24 104 57 61 93-35 8-43-12-61-21 0 38 0 76 0 113 17-13 20-41 41-52 40-6 59 9 81 21 7 38-7 55-20 72-33 6-51-3-61-21-66 178-6 456 101 557 19-15-39-40-10-72 64 85 200 164 346 103-28 108-247 95-336 51-59 34-215 2-214-93 40 4 74 13 96 35z"/><path d="m18684 23274c140-210-286-269-264-31-32 5-40-15-61-21 13-122 52-270 193-227 2 36-34 34-41 62 140-55 200 58 275 103-32 72-62 197-173 155-7-38 7-55 20-72 26 1 52 2 51 31z"/><path d="m18684 23821c38 144-220 223-224 10 35 23 46 70 92 83 36-4 56-26 71-51-29-19-63-32-102-41 19-88 146-62 163 0z"/><path d="m18541 24016c-70-5-83 47-92 103-43-11-51-58-61-103-25 1-32 19-51 0 6-70 65-86 92-134 37 45 85 78 112 134z"/><path d="m18429 23594c39 60 119 122 81 227-27-17-33-56-71-62-50-9-39 43-81 41-33-95 50-136 71-206z"/><path d="m18460 24357c-3 1-5 2-8 4 2-2 5-3 8-4z"/><path d="m18297 23903c42-2 57-31 102-31-87 234-353-102-132-113 46-2 71 28 92 72-48-8-70 12-112 10-17 14 34 48 51 62z"/><path d="m18205 24253c-1 26-15 40-41 41-43 12-18-43-41-52-154 47-31 179 71 175-91 62-193-29-183-124 4-39 46-50 51-93 38 3 112-1 142 52z"/><path d="m18155 23459c32-9 31 16 51 21-6 77-107 64-132 72-133-69-16-311 122-217-50 42-174 9-142 134 13 25 42 33 71 41 23-4-1-57 31-52z"/><path d="m17931 22768c6 151-98 189-234 196-26 17 33 35 20 72 9 98-144 62-92-21 24-3 39 2 51 10-31-48-79-78-132-103-13 29 7 79-31 103-20 0-41 0-61 0-6-21-25-29-20-62 15-6 25-16 31-31 21 3 27 21 41 31-10-61-43-101-71-144-22 43-25 106-102 93-27-18-27-75 0-93 38-11 33 22 51 31 5-74-10-127-31-175-16 32-27 68-71 72-34-7-55-27-51-72 19-26 63-26 81 0-6-47 18-64 10-113-31 75-193 35-112-52 44-11 47 21 71 31 47-195 1-447-102-557-25 8 32 42 0 62-69-82-186-145-346-103 45-133 276-46 356-72 68 34 192 11 193 113-41 5-69-5-90-21-11-13-22-23-32-31 10 11 20 22 32 31 81 93 190 311 324 341 72 16 207 3 153-124-16 18-9 59-51 52-41 1-44-38-41-83 89-55 145 53 183 113-12 12-18 29-51 21-223 245-453-208-590-330 34 99 226 200 173 371-39 9-36-25-61-31 19 77 5 187 41 248 18-9 13-42 51-31 25 12 38 37 30 83-15 16-52 9-81 10 6 52 38 79 61 113 21-13 19-50 61-41 25 12 38 37 31 83-22 9-35 27-71 20 25 47 83 60 132 83 10-7-7-48 20-62 99-28 90 128 0 103 80 59 257 27 275-72-10-25-41 42-61 10-49-75 66-122 112-72z"/><path d="m17749 25571c91-99-51-135-124-122-167 30-243 290-366 351 27 17 57-51 122-31 2 95-164 117-214 93-99 40-294 50-336-52 148 34 286-6 336-103 43 13 0 53-10 72 129-90 176-391 112-578-17 3 9 32-20 41-32 5-40-15-61-21-33-87 112-98 112-31 41-11 11-72 10-103-9-24-25 28-61 10-5-9-9-18-20-21-17-98 126-87 112 0 37-31 41-96 41-165-11-27-12 42-51 21-27-18-27-75 0-93 70-9 88 34 92 93 43-25 55-81 81-124 0-18-48 16-61-10-14-32-4-46 10-72 78-17 106 47 81 103 35 4 95-55 132-83-9-8-38-4-51-31 1-44 24-65 71-62 10 11 20 21 31 31 13 61-22 74-41 103 151-2 255 44 254 196-46 50-161 2-112-72 36-19 34 8 61 21-12-113-175-129-275-93 37 18 84 25 71 93-17 14-34 27-71 21-12-16-32-40-10-62-61 11-99 43-142 72 60 1 100 80 41 113-30 9-66-28-41-41-32-11-63 66-81 103 4 23 50 4 71 10 14 31 15 75-10 93-29 2-55 1-51-31-53 42-28 164-51 237 32 5 23-32 61-21 47 167-112 256-173 361 162-75 239-450 498-392 57 13 70 76 142 93-39 57-64 127-153 134-7-10-18-16-31-21-3-44-1-83 41-83 29-1 50 28 32 49z"/><path d="m17422 25707c97-67 197 23 183 124-6 40-52 42-41 93-68-8-174-16-142-93 20 0 41 0 61 0 13 14 13 38 0 52 155-22 68-189-61-175z"/><path d="m17566 21995c23-63-14-112-71-124-20 1 16 39-10 52-20 0-41 0-61 0 2-12-2-18-10-21 7-62 80-56 132-72 116 72 48 304-122 227 29-39 113-22 142-62z"/><path d="m17292 21963c-12-9-22-19-32-31 10 7 21 18 32 31z"/><path d="m17076 25346c141-5 192 134 173 258-24-4-22 19-51 10 25-234-391-197-275 31 14-20 28-40 71-31 15 26 25 41 10 72-107 40-126-89-173-144 56-72 160-177 285-113-10-31-56-26-41-83z"/><path d="m17199 22139c36 12 33 15 61 21-3 132-57 264-183 237-14-52 35-40 41-72-126 68-218-46-285-103 40-66 65-191 173-155 6 40 8 42-10 72-31 0-67 6-61-31-148 213 295 277 264 31z"/><path d="m17035 26130c1 53-14 90-41 113-37 3-40-28-51-52-88 33-150-37-254-21 92 27 210 28 234 124-35 20-52 57-41 124-58-57-137 42-193-41 3-49 75-27 71-83-97-114-435-20-478-196-14-57 2-156 102-144 14 20 27 42 31 72-24 10-27 42-71 31-21 131 273 148 214 0 31-7 37 11 61 10 2-26-16-32-31-41-51-7-58 31-92 41-62-49 26-91 0-144 34 0 68 0 102 0 19-69 43-182 143-134-42 45-18 94-20 175 60-1 96-27 153-31 33 167-174 91-214 185 91-19 256-72 295 31 22-12 41-27 81-21z"/><path d="m17027 21613c-35 5-57-4-81-10-49 81-213 50-295 20 35 98 240 24 213 186-56-2-100-15-142-31-30 52-31 124 0 186-27 0-54 0-81 0-12-53-64-66-51-144-34 3-58 16-102 10 12-48-39-71-30-144 58-11 60 36 102 41 26-1 39-15 41-41-1-23-26 13-51 0 42-148-226-123-224 0 6 24 63-2 71 21 6 40-9 60-20 83-35 5-57-4-81-10-21-43-42-71-31-124 37-174 359-102 488-196 0-51-46-57-81-72 40-107 135-2 193-62 23 32-11 121 51 113-26 87-106 120-214 124 76 38 150-44 224-10 10-25 27-42 51-52 31 23 41 68 51 113z"/><path d="m16445 26377c29 59 7 111 31 186-147-51-204-192-254-340-57 149-128 283-275 340 31-181 111-314 244-392-41-112 5-218 0-351 17 0 34 0 51 0 46 126-12 244 10 340 17 74 160 148 193 217z"/><path d="m16457 21180c8 214-128 283-224 392 20 98 24 272-20 361-93-85-16-246-41-340-16-61-112-98-153-155-58-83-55-157-81-258 130 68 223 173 254 340 65-54 55-151 102-217 40-56 101-92 163-124z"/><path d="m16201 26398c126 117 121 430 30 578-147-120-76-400-30-578z"/><path d="m16203 20777c125 126 93 423 0 567-75-154-124-431 0-567z"/><path d="m16029 26037c0-157 163-60 132 62-44 178-374 86-488 186-5 60 61 48 81 83-39 86-131 10-193 51-24-28 10-113-41-113 14-106 125-114 234-124-82-43-167 48-244 10-31 10-21 62-71 52-15-37-36-67-41-113 40-6 59 9 81 21 48-91 200-58 295-31-35-95-230-28-214-175 45-24 97 22 153 21 18-61 26-137-10-175 15-16 52-9 81-10 11 54 62 68 51 144 37 0 75 0 112 0-29 62 36 58 20 134-33 31-116-88-142 0 9 30 26-13 51 0-25 160 224 115 224 10-14-20-53-15-71-31z"/><path d="m16081 21695c28-140-270-160-214-10-31 7-37-11-61-10 1 30 23 38 41 52 49 2 44-52 102-41 8 67-22 94-31 144-41 7-58-10-92-10 4 46-31 102-61 144-29-1-67 6-81-10 1-26 15-40 41-41-16-35-24-79-20-134-50 11-95 28-153 31-28-163 176-89 214-185-82 26-248 65-295-21-24 6-46 15-81 10-1-52 23-80 41-113 23 11 54 14 51 52 82-24 163 39 234 21-84-28-194-30-214-124 35-20 52-57 41-124 63 59 144-42 193 52-9 43-83 19-71 82 43 84 166 40 254 52 161 21 337 185 142 289-31-14-48-40-41-93 12-12 36-12 61-10z"/><path d="m15461 22056c95 0 81 111 142 144-52 73-151 190-275 124-25 20 46 28 31 72-131 31-179-105-183-237 29-6 18-7 51-21-22 240 416 187 275-31-4 41-63 38-81 10-4-39 21-47 41-62z"/><path d="m15256 25706c62 88 190 142 346 103-45 103-255 97-346 41-15 5 4 13 0 31-83-26-198-19-214-113 72-15 86 29 132 41-115-65-201-324-356-361-71-17-208-3-153 124 4-90 127-46 81 41-101 38-121-70-173-113-5-32 22-33 51-31 224-243 439 202 580 320-34-89-224-208-163-361 32-9 31 16 51 21 5-94-9-170-31-237-16 15-20 42-61 31-28-23-29-43-20-83 15-16 52-9 81-10-14-51-43-87-71-124-10 7 5 47-31 52-43-1-59-30-51-83 21-6 29-25 61-20-13-59-84-59-132-83-20 13 24 21 0 52-24 3-38 16-71 10-12-29-12-64 0-93 24 0 30-18 61-10-81-52-260-34-275 72-2 13 50-33 71 0 5 67-34 89-102 82-76-117 68-227 214-216 6-13-44-80-10-124 24 0 30-18 61-10 18 17 25 43 20 83-14-2-37 6-42-6-1-5 0-10 1-15-2 7-2 12-1 15 5 49 92 78 133 109 2-33-18-44-10-83 23-18 41-41 92-31 15 15 15 68 0 83-32 9-39-9-51-21 1 75 51 99 71 155 15-53 18-119 102-103 27 18 27 75 0 93-18-2-51 10-41-21-31 49 5 118 10 165 20-61 129-112 132 0-8 15-83 46-71-10-28 23-19 84-20 134 22-33 46-64 112-52 26 28 20 72-10 93-29 2-55 1-51-31-70 173-14 460 91 557 25-8-32-42 0-62z"/><path d="m15603 21942c-148-34-288 4-336 103-45-15-3-55 10-72-130 85-168 361-122 557 14 16 43-45 81-10 46 98-98 118-112 31-29 33 2 94 0 134 4-41 63-38 81-10 7 45-18 57-41 72-51 4-64-31-81-62-31 27-33 84-31 144 9 28 19-28 51-10 88 106-132 131-92-10-34 41-68 82-81 144 6 25 16-31 51-10 15 15 15 68 0 83-35 4-57-4-81-10-8-24-20-71 0-93-66 13-99 58-143 93 1 23 26-13 51 0 5 39-3 66-20 83-31 7-37-11-61-10-21-43-7-100 20-124-152 14-300-97-224-217 63-2 109 14 102 83-28 23-56 24-71-10 8 117 176 129 275 93-52-7-93-53-61-113 20 0 41 0 61 0 14 13 14 49 0 62 63-11 112-38 153-72-39-16-85-23-71-93 19-4 26-22 51-20 13 15 47 26 20 52 44-21 58-72 81-113-15-16-53 2-81-21 0-24 0-48 0-72 25-10 70-20 71 21 39-50 41-137 41-227-9-28-19 28-51 10-49-153 96-249 153-340-176 110-196 379-488 371-25-23-64-32-71-72-27 0-60 6-61-21 29-63 116-194 183-93 2 40-16 59-51 62-32 5-32-22-30-52-24 10-21 47-20 83 251 167 373-234 529-320-30-17-83 77-142 31 15-72 166-112 214-83 110-36 295-50 346 52z"/><path d="m15490 25645c172-191-288-293-254-31-32 5-40-15-61-21 2-134 53-267 183-237 7 45-33 42-41 72 126-64 215 46 285 103-28 66-109 235-183 124 1-26 15-40 41-41 26-6 37 4 31 31z"/><path d="m15012 25830c2 100-65 70-143 93-89-101-20-296 143-227-101 13-238 124-71 185 20-1-16-38 10-51 20 0 41 0 61 0z"/><path d="m14952 21870c-158 20-72 195 61 175-120 98-257-106-142-186-12-13-4-16 0-31 72 26 140-7 142 83-12 12-36 12-61 10-13-14-13-38 0-52z"/><path d="m14768 24716c-1 5-1 10-1 15-2-3-1-8 1-15z"/><path d="m14093 24319c115 120 236 431 492 325 9-41 9-52 0-93-10 31-30 52-81 41-17-25-26-50-10-83 100-35 153 55 173 134-73-8-78 52-122 72-312 14-332-269-508-392-10 27 63 59 61 113 10 0 8-13 10-21 47 75 154 187 91 279-32 5-27-28-51-31 1 95 10 183 41 248 3-43 76-40 81 0 0 48-29 67-81 62 1 64 46 84 71 124 20-1-16-39 10-52 17 0 34 0 51 0 14 6 1 40 20 41-3 42-41 48-71 62 36 46 93 71 163 83 4-25-46 6-31-31 50-118 151 76 20 72 93 47 263 19 275-82-29-2-20 35-61 21-19-30-16-32-10-72 23-18 57-25 102-21 61 131-86 210-214 216-4 24 43 93-10 124-41 4-71-4-71-41-1-31 30-52 51-31-29-50-83-74-132-103 43 74-101 184-102 41 16-13 40-33 61-10-13-59-39-105-81-134 5 43-6 70-20 93-48 15-97 4-92-62 14-18 59-32 81-10 2-68-24-107-30-165-17 21-21 54-41 72-78 24-104-57-61-93 18 2 51-10 41 21 37-7 14-75 20-113-23 28-39 64-102 52-17-17-25-43-20-83 24-8 76-26 71 21 82-164 15-464-91-567-24 9 28 25 10 62-78-69-201-156-346-93 23-139 284-51 346-72 86 19 194 16 203 114-48 1-80-14-106-36zm0 0c-5-6-11-11-16-15 5 5 10 11 16 15z"/><path d="m14748 22612c-22 32-98 24-122 0-6-40-8-43 10-72 32-9 39 9 51 21 17-88-150-126-254-93 46 23 89 94 20 124-33-5-59-16-51-62-58 6-93 36-132 62 45 16 96 65 51 113-37 13-84-17-51-41-27-6-73 56-81 103 53 2 114 55 61 103-33 6-51-3-61-21-31 58-41 137-41 227 9 24 25-28 61-10 26 169-113 256-183 361 191-112 203-406 519-392 28 20 58 38 71 72 17 0 34 0 51 0-8 83-121 203-183 103-2-26 16-32 20-52 33 2 78-10 71 31 57-67-36-125-122-114-167 23-279 314-387 361 27 17 85-68 132-31-11 76-159 119-214 83-87 42-312 61-336-52 148 62 265-24 346-93 8 36-11 44-20 62 126-94 168-385 112-567-14 20-28 40-71 31-21-24-10-79 10-93 54-6 86 9 92 52 23-14 4-72 10-103-18-33-27 27-61 10-17-17-25-43-20-83 24-6 46-15 81-10 10 24 35 33 31 72 28-33 32-91 41-144-26-16-67 5-81-41 0-58 46-66 92-51 12 23 26 42 20 83 32 8 66-70 81-113-7-10-48 7-61-21-14-83 71-83 102-41-1 30 6 68-10 83 61-17 99-58 142-93-5-14-44 12-51-21 10-142 165 0 71 62 135 12 243 50 244 196z"/><path d="m14422 24293c8 92-96 197-193 113 124 28 222-134 81-165-23 4 1 57-31 52-32 5-42-13-51-31 54-100 183-76 193 31z"/><path d="m14382 23458c27-108-102-80-153-134 172-61 238 133 142 237-56-28-108-5-142-62 1-26 15-40 41-41 43-12 18 43 41 52 42-4 65-29 71-52z"/><path d="m14321 23809c42 191-243 200-224 20 33 53 127 124 163 31-23-25-66-29-102-41 25-87 116-65 163-10z"/><path d="m14179 24015c-35-8-39 15-71 10-7 35-7 75-31 93-56-21-31-125-102-103 8-67 61-90 92-134 34 48 88 76 112 134z"/><path d="m14057 23602c54 42 123 112 91 206-39-1-40-42-71-52-43-2-43 39-81 41-34-90 40-130 61-196z"/><path d="m14093 24319c-6-5-11-10-16-15 5 5 11 10 16 15z"/><path d="m14067 23231c-24 0-30 18-61 10 29-234-384-192-264 31 16-15 20-42 61-31 4 9 9 19 20 21-40 164-176-54-173-93 60-61 129-164 264-113 19-13-44-31-31-72 152-9 183 103 183 248z"/><path d="m14005 24510c31-7 30 18 61 10-1 143-32 256-183 248-8-46 33-42 41-72-144 52-212-60-285-114 31-50 136-252 183-93-9 5-18 9-20 21-29 2-55 1-51-31-148 206 286 276 254 31z"/><path d="m13935 23901c39-6 56-32 102-31-24 120-217 84-224-10-7-95 143-150 183-31-49-8-65 16-112 10-20 18 42 39 51 62z"/><g font-family="&apos;Monotype Corsiva&apos;" font-style="italic" font-size="1692.31"><text x="10500" y="14850" transform="matrix(.94093 0 0 1 5184.31 8791.39)">T1 </text><text x="10500" y="14850" transform="matrix(.94093 0 0 1 5919.73 10017)">T2</text></g></g><rect x="15570" y="17461" width="1821" height="660" rx="910.5" ry="330" fill="#fff" stroke="#fff" stroke-width="7.62"/><text x="10500" y="14850" fill="#201e1e" font-family="&apos;Arial Black&apos;" font-weight="900" font-size="634.62" transform="matrix(.94093 0 0 1 5834.57 3172.32)">NN 1</text><path d="m6582 26666c-1334 679-3868 548-4637-708-767-1251-593-4800-666-6540-182-4357-643-7662-762-11176-132-3902 2407-6482 5442-7209 4282-1025 4028 4980 3434 8067-312 1658-929 3101-1322 4722-725 2990-68 7555-320 10666-129 1076-472 1789-1168 2177z" fill="#fff"/><g clip-path="url(#1)"><g><g fill="#201e1e"><path d="m848 74h136v29373h-136z"/><path d="m1168 74h547v29373h-547z"/><path d="m2447 74h137v29373h-137z"/><path d="m2768 74h546v29373h-546z"/><path d="m4047 74h136v29373h-136z"/><path d="m4367 74h547v29373h-547z"/><path d="m5646 74h137v29373h-137z"/><path d="m5967 74h546v29373h-546z"/><path d="m7246 74h136v29373h-136z"/><path d="m7566 74h547v29373h-547z"/><path d="m8845 74h137v29373h-137z"/><path d="m9166 74h546v29373h-546z"/></g><g fill="#fff" stroke="#fff" stroke-width="7.62"><path d="m3646 1082h54c150 8 300 78 417 235 121 161 154 320 154 537 30-3 34-10 67-10 332 0 541 145 734 378 45 55 66 111 69 165v29c-7 122-105 220-210 220-78 0-118-20-191-20 65 130 49 211 19 345 95 0 182 24 241 100 118 152 106 388-23 527-114 123-130 80-237 134 0 191-93 396-268 396-95 0-152-60-210-101-85 134-358 213-516 213-178 0-164-97-229-51 26 41 61 67 89 118 108 197 21 457-166 562 6 79 19 82 19 203 0 133-75 274-210 274-59 0-129-8-172-30-37 75-85 146-146 200-29 25-33 20-54 54 16 24 60 44 88 69 80 71 156 155 205 259 74 159 102 352 76 531-20 134-65 244-132 347-118 185-275 256-495 256 0 2 146 235 195 382 46 138 82 320 82 501 0 72-10 106-10 183 56 40 115 95 115 193 0 94 0 201-46 276-15 24-25 33-34 65-8 28-10 54-17 83-64 251-240 438-454 553-49 26-93 35-137 57 35 77 11 188 51 250 25 39 102 149 111 186 22-11 220-71 248-71 75 0 136 14 189 73 42 47 59 118 59 191 0 125-172 245-172 305 0 53 153 172 153 355 96 24 182 112 182 233 0 89-52 146-67 213 61 96 213 179 134 355 26 41 57 71 57 142 0 55-7 109-29 152 57 32 96 99 96 173 0 136-29 132-86 223 23 104 17 137 22 160 9 40 45 61 45 135 0 118-37 206-147 250-111 44-61 56-143 102-86 49-29 64-36 154l-35 329c-48 263-163 455-364 598-103 73-201 110-290 120h-96c-297-34-460-376-291-596 41-53 131-124 217-124 193 0 137 32 239 61 53-84 86-154 86-294 0-88-19-255-39-324l-138-401c-82-208-183-396-310-574-133-186-337-308-502-542-182-258-292-563-367-879-41-174-10-122-122-226-60-56-116-117-165-191-179-271-226-674-157-1019l65-205c15-35 16-23 25-55-54-1-94-19-138-36-24-9-23-5-43-15-19 76-123 162-201 162-248 0-299-261-210-457-179 16-214 23-324-183-16-29-30-54-45-84-28-56-56-137-74-205-71-265-18-302-5-461-82-2-178-49-235-85-159-100-117-276-33-412 71-114 164-152 179-207 14-55 7-55-9-94-247-592 556-953 671-430l84-33c31-16 10 3 28-31 95-180 256-251 471-251-97-195-287-308-287-436 0-106 3-78 38-163 22-52-129-249-30-559 51-160 59-396 298-415 83-6 109-42 150-84 18-19 47-37 70-48 57-27 28-9 66-51 52-58 101-46 151-84 28-21 22-33 63-55 32-18 56-18 74-44-53-15-130-106-159-156-174-310 6-711 273-859 58-32 151-71 239-71l162 10c13-162 117-231 172-345 145-301 347-203 411-203 52 0 64-6 106-30 41-24 97-22 143-41 110-46 165-32 217-53 55-22 87-32 146-18-10-39-27-38-47-71-13-21-28-49-37-72-22-54-39-129-39-202 0-326 302-604 617-619z"/><path d="m7413-105h63c115 8 234 59 344 167 17 17 49 58 62 76 115 158 137 349 48 528 28 7 40 15 68 19 123 18 110 32 192 50 46 10 79 36 123 43 62 8 256-73 373 161l81 128c22 37 52 95 61 138 126 0 155 1 252 37 290 106 472 588 262 824-20 22-30 28-46 53 20 14 33 29 56 42 20 11 41 19 59 28l162 122c57 60 115 38 187 76 146 76 144 224 169 297 49 139 57 303 8 441-19 53-21 32-2 79 94 229-142 299-171 416 86 21 127 31 197 75 47 30 115 90 128 148h29c17-67 94-133 156-159 81-34 165-19 240 12 219 92 290 346 209 568-27 74 19 78 61 120 117 113 205 345 46 471-66 52-110 50-178 85 39 177-20 412-100 554-59 106-101 195-244 207 1 46 10 40 10 91 0 260-308 368-420 142-23 6-38 11-57 20 12 57 34 107 46 165 52 260 20 572-102 790-105 187-218 226-238 306-40 161-68 286-125 425-92 222-214 416-385 576-112 105-230 228-310 371-36 65-65 109-95 184-79 203-253 594-147 828 51-5 70-30 124-30 131 0 243 51 296 172 150 340-232 675-644 390-275-190-321-466-321-847-47-26-46-45-81-66-53-33-186-67-186-228 0-97 51-152 46-244-4-63-128-150-26-314 37-59 18-46 18-122 0-72 38-115 38-162 0-47-11-24-2-83 17-112 107-164 107-191 0-32-38-65-38-132 0-158 43-174 122-236 16-13 10-5 18-21 39-84-8-50 101-207 8-12 10-14 17-22-43-69-134-147-134-254 0-123 83-254 210-254 88 0 141 41 220 41 10-42 41-70 62-107 19-34 21-105 24-147-80-20-161-75-218-124-135-118-201-242-250-424-13-48-34-61-52-117-38-117-31-260 54-347 15-15 37-31 46-42 15-17 19-34 32-57 57-99 21-113 66-204 32-64 28-142 68-202 44-67 31-42 54-125 21-73 91-125 95-173-157 0-258 64-471-160-239-252-212-769 44-994 19-17 47-41 64-54-19-30-37-41-60-68-20-24-32-46-45-74-90 46-221 4-276-72-83-114-49-196-49-324-142-80-204-307-124-467-200 0-326-45-478-152-43 24-100 61-162 61-167 0-229-155-257-295-15-74-19-13-131-95-238-175-165-619 101-625-23-52-4-123 0-173-30 3-34 10-67 10-177 0-288-219-195-370 52-85 126-151 202-212 127-101 274-149 461-149v-51c0-285 232-540 505-558z"/></g><g fill="#201e1e" stroke="#201e1e" stroke-width="7.62"><path d="m1217 4915c-29 53-46 61-101 42-39 51-78 55-110 48-46-10-79-58-82-135 65 35 86 47 129-13-7-96 45-165 150-151 273 37 188 522-61 527-355 7-586-424-381-728-34-50-4-95 30-135-5 48-10 42 16 81 42-59 63-89 164-131 0 0 0 22-10 30-118 89-210 268-209 417 1 73 22 148 73 225 1-246 56-422 174-539 123-121 283-209 482-287 211-83 348-131 490-331 61-85 93-188 100-290 7-98-2-211-92-311-27 29-53 58-80 87-36-70-111-149-192-145-72 4-117 41-139 91-49 110 14 281 150 293-215 88-375-48-355-248 23-227 204-413 419-392 157 15 283 153 334 280 124 309-29 602-198 781 235-27 439-33 631 80 113 68 193 218 259 284 41 6 65 6 83-4 24-12 38-39 66-86 25 116-30 179-135 184 109 105 245 177 391 93 56-32 83-83 3-144 3-41 3-59 13-66 31-22 58-8 78 18 70 93 33 203-61 259-104 62-228 52-329-2 10 18 20 35 30 53 83 6 136-2 204 58-43 4-70 14-117 29 83 99 139 169 110 308-157-17-179-129-200-279-24 33-28 52-44 96-41-75-29-120 8-190-8-27-26-56-34-83-22-29-45-58-67-87-26 144-83 226-168 335-84 70-161 115-241 116-141 2-242-48-299-126-73-101-72-249 10-392 39-32 59-209-66-221-22-2-47 12-73 48-42-81 22-142 95-132 60 8 125 63 138 194 72-30 145-24 204 3 89 41 148 133 132 232-18 115-97 184-183 181-122-3-157-109-134-175 23-67 109-74 121 1-32 56-18 92 10 101 39 12 105-29 118-144 2-86-57-136-141-143-65-5-112 13-145 45-153 147-109 424 98 457 100 16 186 2 253-39 103-64 159-158 181-256 44-196-35-349-164-443-232-170-612-135-843 14 414 112 384 686-5 692-90 1-204-94-204-195 0-145 104-210 218-201-97 89-83 225-19 238 79 17 142-115 174-178 19-5 37-10 56-15 14-189-149-261-309-271-78-5-155 5-211 23-152 49-293 122-404 263-60 76-105 171-125 291-9 77-10 146 7 203 24 83 83 140 205 157 13-37 18-47 46-73 15 24 18 38 23 67 34 0 69-18 95-46 30-33 47-82 36-137-17-18-35-37-52-55 18-8 41-27 59-36-13-29-31-55-52-70-32-23-60-19-78-4-36 31-41 106 46 104zm659-1527c-53-3-98 40-101 96-3 56 38 104 90 107 53 3 98-40 101-96 3-56-38-104-90-107zm-62 323c-45-3-83 34-85 81-2 47 32 88 76 91 45 3 83-34 85-81 2-47-32-88-76-91zm-186 186c-36-2-68 28-70 66-2 39 26 72 62 74 36 2 68-28 70-66 2-39-26-72-62-74zm-201 113c-28-2-53 21-54 51-2 30 20 56 48 57 28 2 53-21 54-51 2-30-20-56-48-57zm-167 98c-20-1-37 15-38 37-1 21 14 40 34 41 20 1 37-15 38-37 1-21-14-40-34-41zm-142 103c-16-1-29 12-30 28-1 17 11 31 27 32 16 1 29-12 30-28 1-17-11-31-27-32zm968-361c104-177 207-337 398-422 238-106 432-34 638 89-143 19-248 50-375 129-51 39-103 79-154 118-180 118-309 138-508 86zm595 152c-124 42-202 6-311-35 81-69 138-118 217-133 127-25 330 95 333 242-79-43-146-81-238-74zm-450 276c39-55 63-107 131-121 75-16 140 27 204 61-44 4-77 8-106 22-43 21-48 27-87 40-39 13-88 8-143-1zm244 1126c52-59 92-127 118-209 7-202 37-312 199-440 103 333-18 532-317 649zm-159-302c-144-226-295-290-514-125 112 76 186 115 318 94 71-5 134 6 197 31zm-411 3c54-2 95 1 130 15 121 48 166 146 161 250-3 58-22 118-54 172 8-157-47-207-176-241-63-78-61-92-61-196zm916-1625c-162-40-317-43-455 80-44 39-77 91-107 175 170-206 306-251 562-255zm-900 1455c85-33 197-37 284 62-104-57-182-72-284-62zm720 325c105-112 133-189 142-348-28 131-74 241-142 348zm-140-1353c64-48 149-67 273-4-97-15-175-21-273 4zm486 869c14 64 32 145 88 178-11-90-24-124-88-178zm-1200 3719c-8 85 5 109 82 136 5 92 46 130 87 150 61 29 135 3 197-81-101-18-134-23-136-128 83-103 77-227-53-303-339-197-618 427-340 650 397 318 993 32 997-493 77-27 78-104 72-180-31 59-21 57-81 78-2-104-3-157-85-293 0 0-17 25-12 42 65 204 31 488-87 657-58 82-141 149-258 191 190-280 264-528 221-764-45-245-159-485-325-748-175-278-293-454-299-805-2-150 41-295 111-417 68-118 166-238 346-273 8 56 15 113 23 169 95-48 242-72 331 4 79 67 101 149 88 225-29 167-233 307-397 201 176 289 463 274 595 29 150-278 88-647-171-812-190-121-440-75-597 25-381 242-434 709-382 1060-246-237-472-422-779-462-181-22-388 78-514 95-51-28-78-50-92-77-18-35-13-78-8-156-119 109-105 229 11 328-204 23-416-14-516-237-38-86-29-167 108-165 29-50 42-70 37-86-18-53-59-59-102-47-152 43-195 202-132 348 70 161 219 258 375 286-25 11-50 23-76 34-99-66-153-122-277-113 45 42 69 78 111 135-171 40-288 70-364 253 191 119 303 9 444-141 2 59-9 84-25 148 105-49 127-111 139-223 30-24 73-40 102-64 48-13 96-27 144-40-82 187-82 329-69 527 41 154 93 271 184 343 158 126 312 158 437 118 161-51 275-219 292-453-19-70 95-289 246-194 27 17 44 54 46 119 111-55 85-181-5-233-74-44-191-37-308 100-59-97-145-154-234-175-133-31-271 21-329 147-68 146-33 293 66 366 140 103 263 14 288-81 26-97-67-179-138-105-7 92-51 121-90 105-53-21-97-125-22-266 65-100 170-104 270-39 78 51 117 113 130 179 59 302-206 577-465 433-125-69-213-160-257-266-68-162-58-318-7-449 103-261 311-365 530-360 395 10 799 383 946 754-556-236-967 442-531 790 101 81 304 71 382-43 112-164 45-329-92-420 41 185-80 328-164 287-103-50-72-255-60-354-17-22-34-44-52-66 130-227 371-166 561-37 93 63 173 141 222 210 135 189 238 396 255 652 9 139-13 285-83 439-49 95-102 174-165 224-91 74-203 87-354-1 15-53 16-69 4-123-35 14-50 27-78 55-39-30-65-81-71-135-8-64 10-134 65-186 34-6 68-11 102-17-14-26-25-67-39-92 37-22 78-35 114-34 54 1 83 31 91 64 17 66-36 157-133 77zm437-2309c62 43 80 131 40 197-40 66-123 85-186 42-62-43-80-131-40-197 40-66 123-85 186-42zm-180 421c53 36 68 111 34 167-34 56-104 72-157 36-53-36-68-111-34-167 34-56 104-72 157-36zm67 373c43 30 55 91 28 136-28 46-85 59-128 29-43-30-55-91-28-136 28-46 85-59 128-29zm140 304c33 23 43 70 21 106-22 35-66 46-100 23-33-23-43-70-21-106 22-35 66-46 100-23zm113 258c24 16 31 50 15 75-15 25-47 32-71 16-24-16-31-50-15-75 15-25 47-32 71-16zm81 241c18 13 24 39 12 58-12 20-36 25-55 12-18-13-24-39-12-58 12-20 36-25 55-13zm-819-1257c19-292 26-563-125-828-188-330-464-416-793-457 147 146 242 274 325 474 28 90 55 179 83 269 113 292 244 427 510 542zm-792-349c108 156 224 183 380 233-39-149-65-254-142-341-125-139-449-181-566-17 123 20 228 36 328 125zm296 708c-2-97 12-176-54-252-73-84-180-92-279-110 47 43 81 76 103 117 33 61 34 73 67 121 35 49 93 86 163 124zm-1151 1064c-12-112-6-225 29-341 149-235 200-387 116-673-376 288-392 619-144 1014zm415-204c339-130 559-71 681 308-186-12-301-32-433-172-76-67-157-110-247-136zm464 363c-60-50-109-81-159-97-174-52-302 20-376 143-42 69-66 154-72 242 112-185 214-194 387-119 132-34 140-52 221-169zm222-2646c215 96 393 228 454 489 19 83 17 171-14 293-33-382-152-553-440-782zm-108 2439c-71-111-195-214-370-178 162 26 263 77 370 178zm-1069-262c-32-219-4-331 108-519-71 173-103 338-108 519zm1209-1412c-36-111-118-206-306-243 122 68 215 129 306 243zm-1225 560c-66 61-148 137-238 124 83-92 124-120 238-124zm2686-3750c-44 41-63 43-110 6-53 35-92 26-120 8-42-26-58-83-38-158 52 56 69 75 128 31 22-95 94-144 191-94 252 129 22 567-218 486-344-115-435-609-145-832-17-60 25-92 70-120-20 44-23 37-9 84 59-43 88-64 198-70 0 0-6 21-18 25-140 45-284 186-328 330-22 71-24 151 2 242 76-237 182-387 331-459 155-75 336-104 552-111 228-7 375-7 572-151 84-61 146-150 185-245 37-92 62-204 6-331-35 19-69 38-104 57-13-80-62-182-141-206-70-21-125-1-162 39-81 89-72 275 55 333-234 11-347-175-266-361 91-211 322-327 522-234 147 69 226 244 237 384 26 340-211 570-428 684 235 55 432 119 584 294 88 104 119 276 163 362 37 20 61 28 81 25 27-4 49-25 90-60-11 120-83 162-186 131 73 138 183 255 349 224 64-12 105-52 47-137 16-39 21-56 32-59 37-11 58 12 69 44 40 113-30 207-138 229-119 24-235-28-316-115 4 21 9 41 13 62 78 34 132 45 179 126-42-11-72-11-122-13 50 123 82 210 12 334-146-70-133-186-108-337-34 23-43 41-72 78-17-86 8-126 66-181 1-29-8-62-7-91-13-36-25-71-38-107-69 130-148 189-264 264-103 39-190 55-268 29-137-46-219-129-249-224-39-122 6-264 129-374 47-18 120-181 4-236-20-10-49-5-85 21-16-93 65-129 131-95 55 28 101 104 74 235 79-4 147 26 195 73 73 70 102 179 57 268-52 104-149 144-231 112-116-45-118-159-76-215 43-57 127-33 116 42-48 43-46 83-21 101 34 25 110 8 157-98 28-82-14-150-92-186-61-28-111-26-154-6-192 89-234 371-45 473 91 49 179 66 256 50 119-26 201-97 252-184 102-174 72-348-23-483-172-243-548-340-816-276 364 250 161 792-216 664-87-30-167-161-137-257 44-139 164-167 272-119-120 52-148 188-91 223 71 43 172-62 222-111 19 2 39 3 58 5 71-177-64-302-215-367-74-32-151-49-210-51-162-5-320 17-469 115-81 53-153 128-209 237-32 71-54 137-55 197-3 88 37 164 149 222 23-32 32-39 67-54 7 28 6 43 2 72 33 11 72 7 105-12 39-22 70-63 76-119-11-24-22-47-34-71 20-2 48-12 68-14-4-33-13-63-29-86-24-33-52-39-74-30-44 17-72 88 13 116zm1099-1244c-50-21-107 5-126 58-20 53 5 113 54 134 50 21 107-5 126-58 20-53-5-113-54-134zm-158 290c-42-18-90 4-107 49-17 45 4 96 46 113 42 18 90-4 107-49 17-45-4-96-46-113zm-235 115c-34-15-74 3-87 40-14 37 3 78 38 93 34 15 74-3 87-40 14-37-3-78-38-93zm-228 40c-27-11-57 3-68 31-11 28 2 61 29 72 27 11 57-3 68-31 11-28-2-61-29-72zm-191 37c-19-8-41 2-48 22-8 20 2 43 21 51 19 8 41-2 48-22 8-20-2-43-21-51zm-168 51c-15-6-31 1-37 17-6 16 1 33 16 40 15 6 31-1 37-17 6-16-1-33-16-40zm1042-15c154-135 302-253 512-270 262-21 426 116 587 305-143-31-254-37-400-5-61 20-123 41-184 61-209 52-340 27-515-92zm527 350c-132-2-196-64-289-140 99-38 169-66 249-54 130 20 289 205 247 347-63-69-116-128-207-153zm-517 112c55-39 93-81 163-72 77 10 127 74 178 129-44-11-76-18-108-15-48 5-54 10-95 9-42-1-87-22-137-50zm-108 1168c68-39 127-91 177-161 68-192 131-288 325-355-2 356-179 506-502 516zm-61-346c-70-267-195-380-457-297 85 112 144 175 277 199 70 20 127 52 180 98zm-396-138c53 17 91 34 121 59 102 87 116 198 79 296-21 55-58 106-104 147 55-148 18-216-97-292-37-97-30-110 1-209zm1376-1250c-144-94-292-151-462-79-54 23-102 61-157 132 226-140 371-137 619-53zm-1309 1092c92-2 201 32 254 157-83-90-153-132-254-157zm595 560c135-72 186-136 243-286-67 117-144 207-243 286zm276-1351c77-24 164-13 264 90-89-48-162-81-264-90zm203 1003c-6 67-14 150 31 201 16-90 15-128-31-201zm-2121 9989c-9-22-33-53-65-71-62-36-147-6-147 76 0 130 132 161 224 140 240-56 377-259 421-470 176-830-335-1584-777-2244-54-81-98-168-143-251-103-243-151-471-134-742 156-24 297-134 379-263 38-60 63-127 71-196 22-201-105-307-289-228-191 82-292 392-315 610-51 10-121-4-156-17-21-228 1-435 47-637 49-214 140-417 133-642-6-189-80-346-249-496 118 158 158 263 177 471 5 117-12 223-36 327-30 126-71 248-102 382-41 175-49 358-56 554-198-142-340-337-350-603-6-170 33-292 114-432 43 4 72 3 102-4 72-15 186-94 153-189-17-49-57-71-104-76-56-6-121 10-158 42-87 76-136 198-158 329-77 463 57 856 397 1048 85 465 201 851 501 1192 72 68 144 136 216 204 159 147 246 300 361 489 122 251 219 504 296 775 51 292 83 621-135 850-59 62-130 97-222 71zm-929-3562c49 16 99 24 150 22 18 297 77 540 196 797-189-233-282-511-345-819zm288-111c25-179 87-463 264-495 91-17 123 24 115 123-17 185-257 366-379 373zm533-180l210 335 364-110-235 316 211 334-355-140-234 317 15-402-356-138 365-109 14-402zm278 1085l207 206 247-146-120 272 207 205-281-37-119 273-53-295-281-36 248-145-55-295zm274 761l144 136 166-104-77 188 145 135-192-20-76 188-41-200-192-19 166-104-42-200zm100 644l98 88 109-73-48 126 99 87-128-10-48 127-31-132-128-9 109-72-31-132z"/><path d="m9240 2989c23 42 37 48 81 34 31 40 62 44 87 38 37-8 63-46 65-107-52 28-69 37-103-11 6-77-36-132-120-121-218 29-150 416 48 420 283 6 467-338 303-580 27-40 3-76-23-108 4 38 8 34-13 65-34-47-51-71-131-105 0 0 0 18 8 24 94 71 168 213 167 333-1 58-18 118-58 180-1-196-44-336-139-430-98-97-225-166-385-229-168-66-277-105-390-264-48-68-74-150-80-231-6-78 2-169 73-248 21 23 43 46 64 70 29-56 89-119 153-116 57 3 93 33 111 72 39 87-11 224-119 233 172 70 299-38 283-198-18-181-163-329-334-313-125 12-226 122-266 223-99 246 23 480 158 623-188-22-350-26-503 64-90 54-154 174-207 226-32 5-52 5-66-3-19-10-31-31-53-69-20 92 24 143 108 147-87 83-196 141-312 74-45-26-66-66-2-114-2-33-3-47-10-53-25-18-46-6-62 15-56 74-26 162 49 207 83 49 182 41 262-2-8 14-16 28-24 42-66 5-109-2-163 46 34 3 56 11 94 23-66 79-111 135-88 245 125-13 142-103 160-222 19 26 22 42 35 77 33-60 23-96-6-152 6-21 21-44 27-66 18-23 36-46 53-70 21 115 66 180 134 267 67 56 128 92 192 93 113 2 193-38 238-101 58-80 57-198-8-312-31-26-47-167 52-177 17-2 37 9 58 38 34-65-18-113-75-106-48 6-99 50-110 155-58-24-115-19-163 3-71 33-118 106-105 185 15 91 77 146 146 145 97-2 125-87 107-140-19-54-87-59-97 1 26 45 15 74-8 80-31 9-84-23-94-114-2-69 45-108 112-114 52-4 89 10 116 36 122 118 87 338-78 364-79 13-149 2-202-31-82-51-127-126-144-204-35-156 28-278 131-353 185-135 488-107 672 11-330 89-306 546 4 551 72 1 162-75 162-155 0-115-83-167-174-161 77 71 66 179 15 190-63 13-113-92-139-142-15-4-30-8-45-12-11-151 119-208 246-216 62-4 124 4 168 18 121 39 234 97 322 210 48 61 83 136 100 232 7 61 8 116-5 162-19 66-66 112-163 125-10-30-14-37-37-58-12 19-15 30-19 53-27 0-55-14-75-37-24-27-37-65-29-109 14-15 28-29 42-44-15-7-32-22-47-28 10-23 25-44 42-56 25-19 48-15 62-3 29 24 33 85-37 83zm-525-1217c42-2 78 32 80 77 2 45-30 83-72 85-42 2-78-32-80-77-2-45 30-83 72-85zm50 257c36-2 66 27 68 65 2 38-25 70-61 72-36 2-66-27-68-65-2-38 25-70 61-72zm148 148c29-2 54 22 56 53 2 31-21 57-50 59-29 2-54-22-56-53-2-31 21-57 50-59zm160 90c23-1 42 17 43 41 1 24-16 44-39 46-23 1-42-17-43-41-1-24 16-44 39-46zm133 78c16-1 30 12 31 29 1 17-11 32-27 33-16 1-30-12-31-29-1-17 11-32 27-33zm113 82c12-1 23 9 24 23 1 13-9 24-21 25-12 1-23-9-24-23-1-13 9-24 21-25zm-772-288c-83-141-165-268-318-336-190-85-344-27-508 71 114 15 197 40 299 103 41 31 82 63 123 94 143 94 246 110 405 68zm-474 121c99 34 161 5 248-28-65-55-110-94-173-106-101-20-263 76-266 193 63-34 116-64 190-59zm359 220c-31-44-50-85-104-97-60-13-112 21-163 48 35 3 61 7 84 18 34 16 38 22 69 32 31 10 70 6 114-1zm-194 897c-41-47-73-101-94-167-5-161-30-249-158-350-82 266 15 424 252 517zm127-241c115-180 235-231 410-100-89 61-148 92-253 75-56-4-107 5-157 25zm327 2c-43-2-76 1-104 12-96 38-133 116-128 199 3 46 18 94 43 137-6-125 37-165 141-192 50-62 48-74 48-156zm-730-1295c129-32 252-35 362 64 35 31 61 73 86 140-135-164-244-200-448-203zm717 1159c-68-26-157-30-226 50 83-45 145-58 226-50zm-574 259c-84-89-106-151-113-277 22 105 59 192 113 277zm112-1078c-51-38-119-53-217-3 77-12 140-17 217 3zm-387 692c-11 51-25 115-71 142 9-72 19-99 71-142zm956 2964c7 68-4 87-66 109-4 73-36 104-69 120-48 23-107 2-157-65 80-14 107-18 108-102-66-82-62-181 42-242 270-157 492 341 271 518-316 254-792 26-794-393-61-22-62-83-57-143 25 47 17 46 65 62 2-83 2-125 67-233 0 0 14 20 10 33-52 162-25 389 69 523 46 66 112 119 206 153-152-223-211-421-176-609 36-196 127-386 259-596 139-222 234-362 238-641 2-120-33-235-89-332-54-94-132-190-276-217-6 45-12 90-18 135-76-39-193-57-264 3-63 54-81 119-70 179 23 133 186 245 317 160-140 230-369 219-474 23-120-222-70-516 136-647 152-96 350-60 475 20 304 193 346 565 304 845 196-189 376-336 621-368 144-17 309 62 410 76 40-23 62-40 73-61 14-28 10-62 6-124 95 87 83 183-8 261 163 19 332-11 411-189 31-69 23-133-86-132-23-40-34-56-29-69 14-42 47-47 82-38 121 35 156 161 105 277-55 128-174 206-299 228 20 9 40 18 60 27 79-53 122-97 221-90-36 33-55 62-88 108 136 32 230 56 290 202-152 95-242 8-354-112-2 47 7 67 20 118-84-39-101-88-110-178-24-19-58-32-82-51-38-11-77-22-115-32 65 149 65 262 55 420-33 122-74 216-146 273-126 101-249 126-348 94-128-41-219-175-233-361 15-56-76-230-196-154-21 13-35 43-37 95-89-44-67-144 4-186 59-35 152-30 245 79 47-77 116-123 187-139 106-24 216 17 263 117 54 116 26 233-53 291-112 82-210 11-230-65-20-77 53-143 110-84 5 73 41 96 72 84 43-17 77-100 18-212-52-80-135-83-215-31-62 40-93 90-103 142-47 240 164 460 371 345 100-55 170-128 205-212 54-129 47-254 6-358-82-208-248-291-422-287-315 8-637 305-754 601 443-188 771 352 423 630-81 64-242 57-304-34-89-131-36-263 73-335-33 148 64 261 131 229 82-40 57-204 48-282 14-18 27-35 41-53-104-181-296-132-447-30-74 50-138 113-177 168-107 151-190 315-203 520-7 111 11 227 66 350 39 76 81 138 131 179 73 59 162 69 282-1-12-42-13-55-3-98 28 11 40 22 62 44 31-24 52-64 57-108 6-51-8-107-52-149-27-4-54-9-81-13 11-20 20-53 31-73-30-17-62-28-91-27-43 1-66 24-73 51-13 53 28 125 106 61zm-348-1840c-50 34-64 105-32 157 32 53 98 68 148 34 50-34 64-105 32-157-32-53-98-68-148-34zm143 336c-42 29-54 88-27 133 27 45 83 57 125 29 42-29 54-88 27-133-27-45-83-57-125-29zm-53 297c-34 24-44 72-22 109 22 36 68 47 102 23 34-24 44-72 22-109-22-36-68-47-102-23zm-112 242c-27 18-34 56-17 84 17 28 53 36 79 18 27-18 34-56 17-84-17-28-53-36-79-18zm-90 205c-19 13-24 40-12 60 12 20 37 26 56 13 19-13 24-40 12-60-12-20-37-26-56-13zm-64 192c-15 10-19 31-9 46 9 16 29 20 44 10 15-10 19-31 9-46-9-16-29-20-44-10zm652-1002c-15-233-21-449 99-660 150-263 370-332 632-364-117 116-193 218-259 378-22 71-44 143-66 214-90 232-194 341-406 432zm631-278c-86 125-179 146-303 186 31-119 52-203 113-272 99-111 358-144 451-14-98 16-182 29-261 99zm-236 564c2-77-9-140 43-201 58-67 143-74 222-88-38 34-64 61-82 94-26 49-27 58-54 96-28 39-74 68-130 99zm917 848c10-90 4-179-23-272-119-187-159-308-92-536 299 229 312 494 115 808zm-331-162c-270-103-446-57-542 246 148-10 240-26 345-137 61-54 125-87 197-109zm-370 289c48-40 87-65 127-77 139-41 241 16 300 114 33 55 53 122 58 193-90-147-171-155-308-95-105-27-112-41-176-135zm-177-2109c-171 77-313 182-362 390-15 66-13 136 11 233 26-305 121-441 351-623zm86 1944c57-89 155-171 295-142-129 21-209 62-295 142zm852-209c26-175 3-264-86-414 56 138 82 269 86 414zm-963-1126c29-88 94-165 244-194-97 54-172 103-244 194zm976 447c53 48 118 109 190 99-66-73-99-96-190-99zm-2140-2989c35 33 50 34 88 5 42 28 73 21 96 7 33-21 46-66 30-126-42 44-55 59-102 25-18-76-75-115-152-75-201 103-18 452 174 387 274-92 347-485 116-663 14-48-20-74-55-96 16 35 18 30 7 67-47-34-70-51-158-56 0 0 5 17 15 20 112 36 226 148 261 263 17 56 19 120-2 193-60-189-145-309-264-366-124-60-268-83-440-88-182-6-299-6-456-120-67-49-117-119-147-195-29-73-50-163-5-264 28 15 55 30 83 45 10-64 49-145 113-164 56-17 100-1 129 31 64 71 58 219-44 266 187 9 276-139 212-287-73-168-257-261-416-186-117 55-180 195-189 306-21 271 168 454 341 545-187 44-345 95-465 234-70 83-95 220-130 289-30 16-48 22-65 20-21-3-39-20-72-48 9 96 66 129 149 104-58 110-145 203-278 178-51-10-84-41-37-109-12-31-17-45-26-47-29-9-46 10-55 35-32 90 24 165 110 182 94 19 187-23 252-92-3 16-7 33-10 49-62 27-105 36-143 101 34-9 57-8 97-10-40 98-66 168-10 266 117-56 106-148 86-269 27 19 34 33 57 62 14-69-7-100-52-144-1-23 6-50 6-73 10-28 20-57 30-85 55 103 118 151 210 211 82 31 151 44 213 23 109-37 174-103 199-179 31-97-5-211-103-298-37-14-96-144-3-188 16-8 39-4 68 17 13-74-52-103-105-76-44 22-80 83-59 187-63-3-117 21-156 58-58 56-81 142-45 214 42 83 119 114 184 89 93-36 94-127 61-171-34-45-102-27-93 34 38 34 36 66 17 80-27 20-88 7-125-78-23-66 11-120 73-148 49-22 89-20 122-5 153 71 186 296 36 377-73 39-142 53-204 40-95-20-160-77-201-147-81-139-58-278 18-385 137-194 437-271 650-220-290 199-128 631 172 529 69-24 133-128 109-205-35-111-131-133-216-95 96 41 118 150 72 178-57 34-137-50-177-89-16 1-31 2-47 4-57-141 51-241 171-293 59-25 120-39 167-40 129-4 255 14 374 91 65 42 122 102 167 189 25 56 43 109 44 157 2 70-30 130-119 177-19-25-25-31-53-43-6 22-5 34-2 57-26 9-57 5-84-10-31-17-56-50-61-95 9-19 18-38 27-56-16-1-38-10-54-11 3-26 11-50 23-68 19-27 41-31 59-24 35 14 57 70-10 92zm-876-991c40-17 85 4 101 46 16 42-4 90-43 107-40 17-85-4-101-46-16-42 4-90 43-107zm126 231c34-14 72 3 85 39 13 36-3 76-37 90-34 14-72-3-85-39-13-36 3-76 37-90zm187 92c27-12 59 3 70 32 11 29-2 62-30 74-28 12-59-3-70-32-11-29 3-62 30-74zm181 32c21-9 45 2 54 25 8 23-2 48-23 57-21 9-45-2-54-25-8-23 2-48 23-57zm152 30c15-6 32 1 38 18 6 16-1 34-17 41-15 6-32-1-38-18-6-16 1-34 17-41zm134 40c12-5 25 1 30 14 5 12-1 27-13 32-12 5-25-1-30-14-5-12 1-27 13-32zm-830-12c-123-107-240-202-408-215-209-16-339 92-468 243 114-25 202-29 319-4 49 16 98 32 147 49 167 41 271 21 410-73zm-420 279c105-2 156-51 230-112-79-30-134-53-198-43-103 16-230 164-197 277 50-55 92-102 165-122zm412 89c-44-31-74-65-130-57-62 8-101 59-142 102 35-9 61-15 86-12 38 4 43 8 76 7 33-1 69-18 109-40zm86 931c-54-31-101-72-141-128-54-153-104-229-259-283 2 284 143 403 400 411zm49-275c56-213 156-303 364-237-68 89-115 139-221 159-55 16-101 42-143 78zm316-110c-42 13-72 27-96 47-81 70-92 158-63 236 17 44 46 84 83 117-44-118-14-172 77-233 29-77 24-87-1-167zm-1096-996c115-75 233-120 368-63 43 18 81 49 125 105-180-112-296-109-493-42zm1043 870c-73-2-160 25-203 125 66-72 122-105 203-125zm-474 446c-108-57-148-109-194-228 53 93 115 165 194 228zm-220-1077c-61-19-131-10-210 71 71-38 129-64 210-71zm-162 799c5 53 11 120-25 161-13-72-12-102 25-161zm1691 7961c7-17 27-42 52-57 50-29 117-5 117 61 0 104-106 128-179 111-191-45-300-206-336-375-140-662 267-1262 619-1788 43-65 78-134 114-200 82-194 120-376 107-591-125-19-237-107-302-209-31-48-51-101-57-156-18-161 84-245 230-182 152 66 233 312 251 486 40 8 97-3 124-14 17-181-1-346-38-507-39-171-112-332-106-512 4-150 64-276 198-396-94 126-126 210-141 375-4 93 9 178 29 261 24 100 57 198 81 305 32 139 39 285 45 441 158-113 271-268 279-481 5-135-26-233-91-344-35 3-58 2-82-3-57-12-148-75-122-150 13-39 46-57 83-61 44-5 97 8 126 33 70 61 109 158 126 262 62 369-46 682-317 835-68 371-160 678-399 950-57 54-115 109-172 163-127 117-196 239-288 390-97 200-174 402-236 618-41 233-66 495 107 677 47 49 104 77 177 57zm740-2838c-39 13-79 19-119 18-14 237-61 430-156 635 150-185 225-407 275-652zm-230-89c-20-142-69-369-210-395-72-13-98 19-91 98 13 147 205 292 302 297zm-425-144l-167 267-290-88 187 252-168 266 283-111 186 252-12-320 283-110-291-87-11-320zm-221 864l-165 164-197-117 96 217-165 163 224-30 95 217 43-235 224-29-198-116 43-235zm-218 607l-115 108-132-83 61 150-115 108 153-16 61 150 33-159 153-15-132-83 34-159zm-80 513l-78 70-87-58 38 101-79 70 102-8 38 101 25-105 102-7-87-58 25-105z"/></g></g></g><path d="m4272 20947c-92 2-145 80-182 152-39-10-73-3-104-4-61-2-91-23-162 5-58 23-109 77-128 148-22 78-62 74-113 164-36 64-55 136-55 236-126 0-290-135-433-3-52 49-92 125-111 197-29 106-8 54-97 120-22 16-35 32-55 54-21 23-27 34-53 46-12 5-23 7-36 13-45 19-66 38-117 48-66 13-120 39-164 90-58 68-144 98-181 193-13 32-11 56-28 82-18 27-24 18-42 57-36 73-15 186-81 239-13 10-16 11-28 21l-102 64c-134 94-253 222-191 404 27 79-21 83-21 163 0 123 99 262 191 284-30 137-47 171 19 305-104 26-210 158-210 294 0 55 29 100 29 122 0 19-17 42-25 65-40 117 17 218 94 287 17 15 20 15 38 31 20 19 17 19 42 37 41 30 54 34 98 58 67 36 107 103 125 182 11 46 15 77 37 113 60 102 43 144 100 209 38 43 38 40 87 70 58 35 59 93 169 135 51 19 69-1 116 29l104 52c52 36 90 126 171 133 0 134 102 325 239 325 82 0 156-7 223-38 174-81 55 93 206 283 35 44 40 17 69 79 100 212 192 163 401 163 5 64 70 113 122 135 106 45 32 38 89 180 58 147 167 242 273 254h42c65-7 126-50 169-135 36-71 79-177 79-281 172-42 122-152 210-152 189 0 296 49 376-169 19-51 56-66 90-108 51-64 70-168 70-261 117-3 21-16 138 26 90 32 234 46 309-28 48-48 76-107 104-174 17-40 10-76 38-102 43-40 83-51 129-106 35-41 4-21 59-39 66-22 61-46 130-55 56-8 94-21 132-53 7-6 14-13 20-19l74-74c91-66 112-108 150-217 16-46 42-60 60-129 17-61 33-85 49-140 22-78 108-80 209-164 229-190 127-316 122-383-3-37 78-171-25-310-24-32-65-84-102-94 60-120 83-238 19-365 220-124 105-383 105-386 0-93 145-200-162-416-35-25-60-34-99-57-11-7-40-28-45-33-26-26-35-81-50-119-38-95-14-68-75-174-44-77-22-141-119-209-17-12-35-20-47-31-15-13-20-26-35-44-89-105-141-71-265-134-42-21-75-18-107-59-33-43-81-98-142-103-10-48-11-80-29-122-44-103-140-213-258-213-55 0-129 22-179 43-1 1-25 12-26 13-36 20-31 25-91-5 0-136-33-243-123-316-57-46-25-25-55-94-50-115-157-157-267-134-43 9-91 6-138 6-16-71-88-146-162-152 0-167-129-406-277-406h-48c-150 0-277 239-277 406z" fill="#fff" stroke="#fff" stroke-width="7.62"/><g fill="#201e1e" stroke="#201e1e" stroke-linejoin="round" stroke-linecap="round" stroke-width="40"><path d="m6787 24512c-17 225 386 197 275-31-12 31-48 38-81 21 0-27-4-59 10-72 120-15 114 98 163 155-62 57-131 162-264 113-26 17 40 28 31 62-140 42-182-104-193-227 21-6 29-26 61-21z"/><path d="m6819 24362c-113 64-158 358-114 542 27-4 28-33 71-21 14 17 27 35 20 72-8 9-28 6-31 21-56 13-62-27-92-41 0 31 0 62 0 93 9 24 25-28 61-10 43 36 17 117-61 93-10-24-35-33-31-72-31 40-43 101-41 175 11-33 67-22 81 0 2 109-135 74-122-21-39 22-57 66-71 113 13 4 60-2 61 41-11 100-148 26-102-52-38-8-98 52-132 82 7 10 46-5 51 31 10 75-96 58-102 10-7-45 18-58 31-82-135-11-244-48-244-196 18-28 80-24 112-10 6 24 20 62 0 82-32 9-39-9-51-21-17 88 150 126 254 93-21-23-63-26-61-72 1-30 23-38 41-52 25-2 32 16 51 21 9 33-9 39-20 52 61-14 107-42 153-72-18-23-57-24-71-52-1-46 18-71 71-62 13 14 13 38 0 52 42-22 60-70 81-113-19-18-65-9-81-31-4-46 6-77 51-72 22-5 19 15 20 31 49-50 37-162 51-247-14-23-18 50-61 31-45-169 111-254 173-361-189 108-197 398-509 381-25-22-64-32-71-72-15-6-53 12-51-10-12-13-4-16 0-31 58-27 50-122 153-103 21 14 31 69 10 93-38 1-82 8-71-41-23 9-28 63-10 82 194 160 390-209 498-319-32 19-55 48-112 41-6-105 116-82 183-113 76 25 331-69 366 72-75-29-180-25-254 20-38 23-51 76-102 72 3-20 8-38 22-47zm0 0c3-1 5-3 8-4-3 1-6 2-8 4z"/><path d="m6700 23434c-104-117-231-430-482-324-12 29-13 64 0 93 10-31 30-52 81-41 20 24 10 79-10 93-101 2-129-69-153-144 14 0 27 0 41 0 23-14 33-42 51-62 312-61 350 242 518 361-39-108-203-186-152-340 41-10 45 16 61 31-8-92-10-189-41-258-6 38-50 36-81 20 0-21 0-41 0-62 22-12 41-27 81-20-11-54-45-85-71-124-20 1 16 38-10 52-113 24-64-135 0-93-18-61-93-64-142-93 1 5 19 59-20 72-38 4-46-22-61-41-3-48 33-56 61-72-86-50-246-13-264 72 17 33 22-32 61-10 20 20 6 59 0 82-32 14-94 18-112-10-1-145 106-181 234-196 3-13-45-90 0-124 39-5 65 3 81 21 11 36-23 78-41 52-8 50 92 78 132 113-20-25-10-86 0-113 37-19 85-10 92 31 1 35-31 69-61 41 2 63 45 85 61 134 29-9 12-63 31-82 53-50 134 18 81 72-19-5-61 14-51-21-31 56 12 125 20 175 17-21 21-54 41-72 78-24 104 57 61 93-35 8-43-12-61-21 0 38 0 76 0 113 17-13 20-41 41-52 40-6 59 9 81 21 7 38-7 55-20 72-33 6-51-3-61-21-66 177-6 456 101 557 19-15-39-40-10-72 64 85 200 163 346 103-28 108-247 95-336 51-59 34-215 2-214-93 40 4 74 13 96 35z"/><path d="m7052 23275c140-210-286-269-264-31-32 5-40-15-61-21 13-122 52-270 193-227 2 36-34 34-41 62 140-55 200 58 275 103-32 72-62 197-173 155-7-38 7-55 20-72 26 1 52 2 51 31z"/><path d="m7051 23822c38 144-220 223-224 10 35 23 46 70 92 82 36-4 56-26 71-51-29-19-63-32-102-41 19-88 146-62 163 0z"/><path d="m6909 24017c-70-5-83 47-92 103-43-11-51-58-61-103-25 1-32 19-51 0 6-70 65-86 92-134 37 45 85 78 112 134z"/><path d="m6797 23595c39 60 119 122 81 227-27-17-33-56-71-62-50-9-39 43-81 41-33-95 50-136 71-206z"/><path d="m6828 24358c-3 1-5 2-8 4 2-2 5-3 8-4z"/><path d="m6665 23904c42-2 57-31 102-31-87 234-353-102-132-113 46-2 71 28 92 72-48-8-70 12-112 10-17 14 34 48 51 62z"/><path d="m6573 24254c-1 26-15 40-41 41-43 12-18-43-41-52-154 47-31 179 71 175-91 62-193-29-183-124 4-38 46-50 51-93 38 3 112-1 142 52z"/><path d="m6523 23461c32-9 31 16 51 21-6 77-107 64-132 72-133-69-16-311 122-217-50 42-174 9-142 134 13 25 42 33 71 41 23-4-1-57 31-52z"/><path d="m6299 22770c6 151-98 189-234 196-26 17 33 35 20 72 9 98-144 62-92-21 24-3 39 2 51 10-31-48-79-78-132-103-13 29 7 79-31 103-20 0-41 0-61 0-6-21-25-29-20-62 15-6 25-16 31-31 21 3 27 21 41 31-10-61-43-101-71-144-22 43-25 106-102 93-27-18-27-75 0-93 38-11 33 22 51 31 5-74-10-127-31-175-16 32-27 68-71 72-34-7-55-27-51-72 19-26 63-26 81 0-6-47 18-64 10-113-31 75-193 35-112-52 44-11 47 21 71 31 47-195 1-447-102-557-25 8 32 42 0 62-69-82-186-145-346-103 45-133 276-46 356-72 68 34 192 11 193 113-41 5-69-5-90-21-11-13-22-23-32-31 10 11 20 22 32 31 81 93 190 311 324 341 72 16 207 3 153-124-16 18-9 59-51 52-41 1-44-38-41-82 89-55 145 53 183 113-12 12-18 29-51 21-223 245-453-208-590-330 34 99 226 200 173 371-39 9-36-25-61-31 19 77 5 187 41 247 18-9 13-42 51-31 25 12 38 37 30 82-15 16-52 9-81 10 6 52 38 79 61 113 21-13 19-50 61-41 25 12 38 37 31 83-22 9-35 27-71 20 25 47 83 60 132 83 10-7-7-48 20-62 99-28 90 128 0 103 80 59 257 27 275-72-10-25-41 42-61 10-49-75 66-122 112-72z"/><path d="m6117 25572c91-99-51-135-124-122-167 30-243 290-366 350 27 17 57-51 122-31 2 95-164 117-214 93-99 40-294 50-336-52 148 34 286-6 336-103 43 13 0 53-10 72 129-90 176-391 112-577-17 3 9 32-20 41-32 5-40-15-61-21-33-87 112-98 112-31 41-11 11-72 10-103-9-24-25 28-61 10-5-9-9-18-20-21-17-98 126-87 112 0 37-31 41-96 41-165-11-27-12 42-51 21-27-18-27-75 0-93 70-9 88 34 92 93 43-25 55-81 81-124 0-18-48 16-61-10-14-32-4-46 10-72 78-17 106 47 81 103 35 4 95-55 132-82-9-8-38-4-51-31 1-44 24-65 71-62 10 11 20 21 31 31 13 61-22 74-41 103 151-2 255 44 254 196-46 49-161 2-112-72 36-19 33 8 61 21-12-113-175-129-275-93 37 18 84 25 71 93-17 14-34 27-71 21-12-16-32-40-10-62-61 11-99 43-142 72 60 1 100 80 41 113-30 9-66-28-41-41-32-11-63 66-81 103 4 23 50 4 71 10 14 31 15 75-10 93-29 2-55 1-51-31-53 42-28 164-51 237 32 5 23-32 61-21 47 167-112 256-173 361 162-75 239-450 498-392 57 13 70 76 142 93-39 57-64 127-153 134-7-10-18-16-31-21-3-44-1-83 41-82 29-1 50 28 32 49z"/><path d="m5790 25708c97-67 197 23 183 124-6 40-52 42-41 93-68-8-174-16-142-93 20 0 41 0 61 0 13 14 13 38 0 52 155-22 68-189-61-175z"/><path d="m5933 21996c23-63-14-111-71-124-20 1 16 38-10 52-20 0-41 0-61 0 2-12-2-18-10-21 7-62 80-56 132-72 116 72 48 304-122 227 29-39 113-22 142-62z"/><path d="m5660 21965c-12-9-22-19-32-31 10 7 21 18 32 31z"/><path d="m5444 25347c141-5 192 134 173 258-24-4-22 19-51 10 25-234-391-197-275 31 14-20 28-40 71-31 15 26 25 41 10 72-107 40-126-89-173-144 56-72 160-177 285-113-10-31-56-26-41-82z"/><path d="m5567 22141c36 12 33 15 61 21-3 132-57 264-183 237-14-52 35-40 41-72-126 68-218-46-285-103 40-66 65-191 173-155 6 40 8 42-10 72-31 0-67 6-61-31-148 213 295 277 264 31z"/><path d="m5403 26130c1 53-14 89-41 113-37 3-40-28-51-52-88 33-150-37-254-21 92 27 210 28 234 124-35 20-52 57-41 124-58-57-137 42-193-41 3-49 75-27 71-82-97-114-435-20-478-196-14-57 2-156 102-144 14 20 27 42 31 72-24 10-27 42-71 31-21 131 273 148 214 0 31-7 37 11 61 10 2-26-16-32-31-41-51-7-58 31-92 41-62-49 26-91 0-144 34 0 68 0 102 0 19-69 43-181 143-134-42 45-18 94-20 175 60-1 96-27 153-31 33 167-174 91-214 185 91-19 256-71 295 31 22-12 41-27 81-21z"/><path d="m5395 21615c-35 5-57-4-81-10-49 81-213 50-295 20 35 98 240 24 213 186-56-2-100-15-142-31-30 52-31 124 0 186-27 0-54 0-81 0-12-53-64-66-51-144-34 3-58 16-102 10 12-48-39-71-30-144 58-11 60 36 102 41 26-1 39-15 41-41-1-23-26 13-51 0 42-148-226-123-224 0 6 24 63-2 71 21 6 40-9 60-20 82-35 5-57-4-81-10-21-43-42-71-31-124 37-174 359-102 488-196 0-51-46-57-81-72 40-107 135-2 193-62 23 32-11 121 51 113-26 87-106 120-214 124 76 38 150-44 224-10 10-25 27-42 51-52 31 23 41 68 51 113z"/><path d="m4813 26378c29 59 7 111 31 186-147-51-204-192-254-340-57 149-128 283-275 340 31-181 111-314 244-392-41-112 5-218 0-351 17 0 34 0 51 0 46 126-12 244 10 340 17 74 160 148 193 217z"/><path d="m4825 21182c8 214-128 283-224 392 20 98 24 271-20 361-93-85-16-246-41-340-16-61-112-98-153-155-58-83-55-157-81-258 130 68 223 173 254 340 65-54 55-151 102-217 40-56 101-92 163-124z"/><path d="m4569 26398c126 117 121 430 30 577-147-120-76-400-30-577z"/><path d="m4571 20779c125 126 93 423 0 567-75-154-124-431 0-567z"/><path d="m4396 26037c0-157 163-60 132 62-44 178-374 86-488 185-5 60 61 48 81 82-39 86-131 10-193 51-24-27 10-113-41-113 14-106 125-114 234-124-82-43-167 48-244 10-31 10-21 62-71 52-15-37-36-67-41-113 40-6 59 9 81 21 48-91 200-58 295-31-35-95-230-28-214-175 45-24 97 22 153 21 18-61 26-137-10-175 15-16 52-9 81-10 11 54 62 68 51 144 37 0 75 0 112 0-29 62 36 58 20 134-33 31-116-88-142 0 9 30 26-13 51 0-25 159 224 115 224 10-14-20-53-15-71-31z"/><path d="m4449 21697c28-140-270-160-214-10-31 7-37-11-61-10 1 30 23 38 41 52 49 2 44-52 102-41 8 67-22 94-31 144-41 7-58-10-92-10 4 46-31 102-61 144-29-1-67 6-81-10 1-26 15-40 41-41-16-35-24-79-20-134-50 11-95 28-153 31-28-163 176-89 214-185-82 26-248 65-295-21-24 6-46 15-81 10-1-52 23-80 41-113 23 11 54 14 51 52 82-24 163 39 234 21-84-28-194-30-214-124 35-20 52-57 41-124 63 59 144-42 193 52-9 43-83 19-71 82 43 84 166 40 254 52 161 21 337 185 142 289-31-14-48-40-41-93 12-12 36-12 61-10z"/><path d="m3828 22058c95 0 81 111 142 144-52 73-151 190-275 124-25 20 46 28 31 72-131 31-179-105-183-237 29-6 18-7 51-21-22 239 416 187 275-31-4 41-63 38-81 10-4-39 21-47 41-62z"/><path d="m3624 25707c62 88 190 142 346 103-45 103-255 97-346 41-15 5 4 13 0 31-83-26-198-19-214-113 72-15 86 29 132 41-115-65-201-324-356-361-71-17-208-3-153 124 4-90 127-46 81 41-101 38-121-70-173-113-5-32 22-33 51-31 224-243 439 202 580 320-34-89-224-208-163-361 32-9 31 16 51 21 5-94-9-170-31-237-16 15-20 42-61 31-28-23-29-43-20-82 15-16 52-9 81-10-14-51-43-87-71-124-10 7 5 47-31 52-43-1-59-30-51-83 21-6 29-25 61-20-13-59-84-59-132-83-20 13 24 21 0 52-24 3-38 16-71 10-12-29-12-64 0-93 24 0 30-18 61-10-81-52-260-34-275 72-2 13 50-33 71 0 5 67-34 89-102 82-76-117 68-227 214-216 6-13-44-80-10-124 24 0 30-18 61-10 17 17 25 43 20 82-14-2-37 6-42-6-1-5 0-10 1-15-2 7-2 12-1 15 5 49 92 78 133 109 2-33-18-44-10-82 23-18 41-41 92-31 15 15 15 68 0 82-32 9-39-9-51-21 1 75 51 99 71 155 15-53 18-119 102-103 27 18 27 75 0 93-18-2-51 10-41-21-31 49 5 118 10 165 20-61 129-112 132 0-8 15-83 46-71-10-28 23-19 84-20 134 22-33 46-64 112-52 26 28 20 72-10 93-29 2-55 1-51-31-70 173-14 460 91 557 25-8-32-42 0-62z"/><path d="m3971 21944c-148-34-288 4-336 103-45-15-3-55 10-72-130 85-168 361-122 557 14 16 43-45 81-10 46 98-98 118-112 31-29 33 2 93 0 134 4-41 63-38 81-10 7 45-18 57-41 72-51 4-64-31-81-62-31 27-33 84-31 144 9 28 19-27 51-10 88 106-132 131-92-10-34 41-68 82-81 144 6 25 16-31 51-10 15 15 15 68 0 82-35 4-57-4-81-10-8-24-20-71 0-93-66 13-99 58-143 93 2 23 26-13 51 0 5 39-3 66-20 82-31 7-37-11-61-10-21-43-7-100 20-124-152 14-300-97-224-217 63-2 109 14 102 83-28 23-56 24-71-10 8 117 176 129 275 93-52-7-93-53-61-113 20 0 41 0 61 0 14 13 14 49 0 62 63-11 112-38 153-72-39-16-85-23-71-93 19-4 26-22 51-20 13 15 47 26 20 52 44-21 58-72 81-113-15-16-53 2-81-21 0-24 0-48 0-72 25-9 70-20 71 21 39-50 41-137 41-227-9-28-19 27-51 10-49-153 96-249 153-340-176 110-196 379-488 371-25-23-64-32-71-72-27 0-60 6-61-21 29-63 116-194 183-93 2 40-16 59-51 62-32 5-32-22-30-52-24 10-21 47-20 82 251 166 373-234 529-319-30-17-83 77-142 31 15-72 166-111 214-82 110-36 295-50 346 52z"/><path d="m3858 25645c172-191-288-293-254-31-32 5-40-15-61-21 2-133 53-267 183-237 7 45-33 42-41 72 126-64 215 46 285 103-28 66-109 235-183 124 1-26 15-40 41-41 26-6 37 4 31 31z"/><path d="m3380 25831c2 100-65 70-143 93-89-101-20-296 143-227-101 13-238 124-71 185 20-1-16-38 10-51 20 0 41 0 61 0z"/><path d="m3320 21872c-158 20-72 195 61 175-120 98-257-106-142-186-12-13-4-16 0-31 72 26 140-7 142 83-12 12-36 12-61 10-13-14-13-38 0-52z"/><path d="m3136 24717c-1 5-1 10-1 15-1-3-1-8 1-15z"/><path d="m2461 24320c115 120 236 430 492 325 9-41 9-52 0-93-10 31-30 52-81 41-17-25-26-50-10-82 100-35 153 55 173 134-73-8-78 52-122 72-312 14-332-269-508-392-9 27 63 59 61 113 10 0 8-13 10-21 47 75 154 187 91 279-32 5-27-28-51-31 1 95 10 183 41 247 3-43 76-40 81 0 0 48-29 67-81 62 1 64 46 84 71 124 20-1-16-38 10-52 17 0 34 0 51 0 14 6 1 40 20 41-3 42-41 48-71 62 36 46 93 71 163 82 4-25-46 6-31-31 50-118 151 75 20 72 93 47 263 19 275-82-29-2-20 35-61 21-19-30-16-32-10-72 23-18 57-25 102-21 61 131-86 210-214 216-4 24 43 93-10 124-41 4-71-4-71-41-1-31 30-52 51-31-29-50-83-74-132-103 43 74-101 184-102 41 16-13 40-33 61-10-13-59-39-105-81-134 5 43-6 70-20 93-48 15-97 4-92-62 14-18 59-32 81-10 2-68-24-107-30-165-17 21-21 54-41 72-78 24-104-57-61-93 18 2 51-10 41 21 37-7 14-75 20-113-23 28-39 64-102 52-17-17-25-43-20-82 24-8 76-26 71 21 82-164 15-464-91-567-24 9 28 25 10 62-78-69-201-155-346-93 23-139 284-51 346-72 86 19 194 16 203 114-48 1-80-14-106-36zm0 0c-5-6-11-11-16-15 5 5 10 11 16 15z"/><path d="m3116 22614c-22 32-98 24-122 0-6-40-8-42 10-72 32-9 39 9 51 21 17-88-150-126-254-93 46 23 89 94 20 124-33-5-59-16-51-62-58 6-93 36-132 62 45 16 96 65 51 113-37 13-84-17-51-41-27-6-73 56-81 103 53 2 114 55 61 103-33 6-51-3-61-21-31 58-41 137-41 227 9 24 25-28 61-10 26 169-113 256-183 361 191-112 203-406 519-392 28 20 58 38 71 72 17 0 34 0 51 0-8 83-121 203-183 103-2-26 16-32 20-52 33 2 78-10 71 31 57-67-36-125-122-114-167 23-279 314-387 361 27 17 85-68 132-31-11 76-159 119-214 82-87 42-312 61-336-52 148 62 265-24 346-93 8 36-11 44-20 62 126-94 168-385 112-567-14 20-28 40-71 31-21-24-10-79 10-93 54-6 86 9 92 52 23-14 4-72 10-103-18-33-27 27-61 10-17-17-25-43-20-82 24-6 46-15 81-10 10 24 35 33 31 72 28-33 32-91 41-144-26-16-67 5-81-41 0-58 46-66 92-51 12 23 26 42 20 82 32 8 66-70 81-113-7-10-48 7-61-21-14-83 71-83 102-41-1 30 6 68-10 82 61-17 99-58 142-93-5-14-44 12-51-21 10-142 165 0 71 62 135 12 243 50 244 196z"/><path d="m2790 24294c8 92-96 197-193 113 124 28 222-134 81-165-23 4 1 57-31 52-32 5-42-13-51-31 54-100 183-76 193 31z"/><path d="m2750 23459c27-108-102-80-153-134 172-61 238 133 142 237-56-28-108-5-142-62 1-26 15-40 41-41 43-12 18 43 41 52 42-4 65-29 71-52z"/><path d="m2689 23810c42 191-243 200-224 20 33 53 127 124 163 31-23-25-66-29-102-41 25-87 116-65 163-10z"/><path d="m2546 24016c-35-8-39 15-71 10-7 35-7 75-31 93-56-21-31-125-102-103 8-67 61-90 92-134 34 48 88 76 112 134z"/><path d="m2425 23603c54 42 123 111 91 206-39-1-40-42-71-52-43-2-43 39-81 41-34-90 40-130 61-196z"/><path d="m2461 24320c-6-5-11-10-16-15 5 5 11 10 16 15z"/><path d="m2435 23232c-24 0-30 18-61 10 29-234-384-192-264 31 16-15 20-42 61-31 4 9 9 19 20 21-40 164-176-54-173-93 60-60 129-164 264-113 19-13-44-31-31-72 152-9 183 103 183 247z"/><path d="m2373 24511c31-7 30 18 61 10-1 143-32 256-183 247-8-46 33-42 41-72-144 52-212-60-285-114 31-50 136-252 183-93-9 5-18 9-20 21-29 2-55 1-51-31-148 206 286 276 254 31z"/><path d="m2302 23902c39-6 56-32 102-31-24 120-217 84-224-10-7-95 143-150 183-31-49-8-65 16-112 10-20 18 42 39 51 62z"/><g font-family="&apos;Monotype Corsiva&apos;" font-style="italic" font-size="1691.74"><text x="10500" y="14850" transform="matrix(.94124 0 0 1-6460.35 8792.58)">T1 </text><text x="10500" y="14850" transform="matrix(.94124 0 0 1-5724.92 10017.8)">T2</text></g></g><rect x="3614" y="17465" width="1821" height="660" rx="910.5" ry="330" fill="#fff" stroke="#fff" stroke-width="7.62"/><text x="10500" y="14850" fill="#201e1e" font-family="&apos;Arial Black&apos;" font-weight="900" font-size="634.4" transform="matrix(.94124 0 0 1-6124.59 3175.38)">NN 1</text></svg>