<svg xmlns="http://www.w3.org/2000/svg" width="744.09" height="1052.36" viewBox="0 0 21000 29700" shape-rendering="geometricPrecision" image-rendering="optimizeQuality" fill-rule="evenodd" clip-rule="evenodd"><defs><clipPath id="0"><path d="m6577 15763c-822 376-2384 303-2859-392-473-693-366-2658-410-3621-112-2413-396-4242-470-6188-82-2161 1483-3589 3354-3991 2639-567 2483 2757 2117 4466-192 918-572 1717-815 2615-447 1655-42 4183-197 5906-80 596-291 991-720 1205"/></clipPath><clipPath id="1"><path d="m14423 15751c822 376 2384 303 2859-392 473-693 366-2658 410-3621 112-2413 396-4242 470-6188 82-2161-1483-3589-3354-3991-2639-567-2483 2757-2117 4466 192 918 572 1717 815 2615 447 1655 42 4183 198 5906 80 596 291 991 720 1205z"/></clipPath></defs><text x="10046" y="19022" fill="#201e1e" font-family="&apos;Arial Black&apos;" stroke="#201e1e" font-weight="900" stroke-width="7.62" font-size="705.56">24</text><g fill="none" stroke-width="80"><g stroke="#322f30"><circle cx="10533" cy="1326" r="460"/><path d="m10533 515v1621"/><path d="m9723 1326h1621"/></g><g stroke="#373435"><circle cx="10498" cy="20686" r="460"/><path d="m10498 19875v1621"/><path d="m9688 20686h1620"/></g></g><g fill="#373435" font-family="&apos;Arial&apos;" font-weight="normal" font-size="423.33"><text x="2424" y="22378">DESC 1</text><text x="2389" y="22982">DESC 2</text><text x="2371" y="23582">DESC 3</text></g><path d="m6577 15763c-822 376-2384 303-2859-392-473-693-366-2658-410-3621-112-2413-396-4242-470-6188-82-2161 1483-3589 3354-3991 2639-567 2483 2757 2117 4466-192 918-572 1717-815 2615-447 1655-42 4183-197 5906-80 596-291 991-720 1205" fill="#fff"/><g clip-path="url(#0)"><g fill="#201e1e" stroke="#201e1e"><g font-family="&apos;Menuet script&apos;" stroke-linejoin="round" stroke-linecap="round" stroke-width="70" font-size="1403.01"><text x="8981" y="14850" transform="matrix(.52711 0 0 .66379-1065.65 4455.55)">Texto 1</text><text x="8305" y="14850" transform="matrix(.52562 0 0 .66379-157.27 5372.19)">Medicina</text></g><g stroke-width="75"><text x="10500" y="14850" font-family="&apos;Batang&apos;" font-size="1333.77" transform="matrix(.57158 0 0 .66379-2674.37-2359.46)">Texto 2</text><path d="m3999 4781l18-75c0 0-18-120 442-562 0 0 362-306 488-375 0 0 465-304 746-406 0 0 266-129 535-180 0 0 181-47 341 64 0 0 158 98 186 200 0 0 49 224-106 535 0 0-186 484-240 586 0 0 511-442 824-473 0 0 170-13 245 127 0 0 72 113-77 475 0 0-289 777-563 1177 0 0-57 91-31 122 0 0 57 51 129-60 0 0 498-548 622-644l460-428c0 0 220-196 417-358 4 31 8 62 11 93-131 107-276 231-434 374 0 0-578 497-1234 1217l-145 178c0 0-201 84-212-5 0 0-24-17 65-137 0 0 529-915 658-1235 0 0 367-768 201-804 0 0-124-155-914 444 0 0-150 115-232 280 0 0-429 724-775 1159 0 0-367 537-671 568 0 0-160-9 57-409 0 0 377-648 1353-1474 0 0 325-546 449-1052 0 0 129-440-176-440 0 0-610 44-1291 497 0 0-930 608-1033 937 0 0-160 275 114 311l186 18c0 0 21 84-227 67 0 0-212-49-186-311zm1973 226l78-40c0 0-687 1150-1116 1514 0 0-108 27-41-62 0 0 140-537 1080-1412z"/></g><g stroke-width="7.62"><path d="m3633 7797c876-180 1075 1016 259 1167-69 497-263 1127-291 1717-43 900 124 1740 738 1946 140 47 282 10 447 23 126-76 121-187 259-206 224-30 318 272 612 206 95 83 101 253 188 343 113-549 32-1170 136-1762 31-178 61-482 212-481 172 2 157 302 165 481 24 516 188 973 217 1419 167-28 187-117 329-114 49 1 235 35 422 71-4 90-9 179-16 265-197 11-372 7-430-39-73 107-339 114-494 69-154-104-46-399-141-595-46 213-72 492-118 755-40 232-15 590-306 595-115-224-212-465-306-710-177-34-302-118-424-206-94 231-561 194-841 146-1357-232-835-3023-682-3926-210-70-347-211-411-372-11-108-21-215-32-322 40-220 209-416 507-470zm140 177c200 0 449 114 400 381-49 266-254 329-454 329-200 0-352-152-352-345 0-193 205-365 405-365z"/><g font-family="&apos;Arial&apos;" font-size="423.33"><text x="10500" y="14850" transform="matrix(.69558 0 0 .66379-2402.04 791.16)">NN 1</text><text x="10500" y="14850" transform="matrix(.69558 0 0 .66379-2416.65 1124.97)">NN 2</text></g><ellipse cx="3763" cy="8332" rx="251" ry="237"/></g></g></g><path d="m14423 15751c822 376 2384 303 2859-392 473-693 366-2658 410-3621 112-2413 396-4242 470-6188 82-2161-1483-3589-3354-3991-2639-567-2483 2757-2117 4466 192 918 572 1717 815 2615 447 1655 42 4183 198 5906 80 596 291 991 720 1205z" fill="#fff"/><g clip-path="url(#1)"><g stroke="#201e1e"><g fill="#201e1e"><g stroke-width="75"><path d="m12506 4418c11-9 22-18 32-27 0 0 742-627 1032-696 0 0 245-127 363 109 0 0 123 242 13 380 0 0-298 391-603 884 0 0-407 622-597 1200-17-69-33-138-48-207 83-249 236-625 490-1014l430-733 250-377c0 0 140-236-220-173 0 0-395 136-1152 768-1-13-1-26-2-39 4-24 8-49 12-73zm359 2278c9 29 18 58 27 86 133-43 291-136 291-136 395-302 430-428 430-428 10-62-55-18-55-18-275 320-620 466-620 466-27 13-51 23-72 30z"/><path d="m13558 5308l30-15c0 0 85-51 135 4 0 0 105 98-45 195l-105 51c0 0 250 2 318-9 0 0 67-20 88-64 0 0 75-2 42 33 0 0 115-129 298-60l125-202c0 0-170 2-113-115 0 0 22-98 305-151 0 0 210-406 780-753 0 0 210-127 463-153 0 0 210-29 365 62 0 0 175 56 263 298 0 0 50 255-265 424 0 0-518 271-1045 351 0 0-380 51-500 40 0 0 58 47-40 98 0 0-82 58-105-2 0 0-13-24 82-89l-120-2c0 0-335 517-325 737 0 0 73 2 58 35 0 0-35 51-85-16 0 0-45-149 95-437 0 0-398 428-585 446 0 0-120 42-77-109 0 0 42-155 325-337 0 0-133 40-580 24 0 0-195 195-110 346 0 0 50 84 330-56 0 0 75-20 5 38 0 0-173 100-268 91 0 0-185-24-137-249 0 0 112-291 400-455zm995-280l43-2-128 173c0 0-180 20-40-111 0 0 83-58 125-60zm33 171l-33-2c0 0 468-786 1101-1039 0 0 383-155 675 62 0 0 290 204-37 493 0 0-250 195-625 322 0 0-445 175-1080 164zm-343 333l-22 22c-149 151-306 272-468 375 0 0-93 33-25-95 0 0 98-184 403-357 0 0 154-37 112 55zm-838 13l-28-4c0 0 175-195 315-206 0 0 93 131-287 211z"/><path d="m14546 5428l-17 20c0 0-190 306-215 453 0 0-8 109 93 133 0 0 83 13 258-124 0 0 65-40 100-53 0 0 28 246 278 142l168-95c0 0 28-58-75 2 0 0-154 90-253 53 0 0-95-60-30-180 0 0 40-162 235-315 0 0 218-211 248-87 0 0-15 73-170 160 0 0 12 47 128-40 0 0 123-67 93-178 0 0-90-100-225 2 0 0-308 169-390 475 0 0-268 153-283 164 0 0-168 51-103-58 0 0 125-284 215-402 0 0 35-80-53-73z"/><path d="m15499 5288l25-16c0 0 55-69 100-38 0 0 52 44-22 95 0 0-63 64-113 40 0 0-59-30 10-82z"/><path d="m15536 5466l-5 15-208 389c0 0-83 118 35 104 0 0 118-24 160-67 0 0 245-373 323-426 0 0 88-27 45 20 0 0-215 224-205 317 0 0 265-233 455-322 0 0 155-62 70 42 0 0-470 646-270 784 0 0 75 80 278-60 0 0 408-282 245-317 0 0-48-47 32-47 0 0 60-17 44 86 0 0 149-340 192-374 0 0-460 407-556 396 0 0-163 30 20-248 0 0 170-211 403-315 0 0 83-44 165-38 0 0 135 36 155-9 0 0 68-11-17 84 0 0-273 329-353 655 0 0-95 242 40 273 0 0 240 73 630-342l50-58c0 0 58-27 15 42 0 0-215 309-525 400 0 0-261 85-295-138 0 0 18-176 60-282 0 0-215 320-513 362 0 0-220 40-205-209 0 0 60-306 290-573 0 0 73-60-22-40 0 0-240 167-438 355 0 0-63 51-135 51 0 0-153 93-220 9 0 0-77-44 15-229l150-295c0 0 39-70 95 3zm1048 15l38-17c0 0 146-29 136 50 0 0-314 313-480 393 0 0-83 22-30-78 0 0 160-273 335-349z"/></g><path d="m13698 13141c118 28 271 34 393 2 101-94 88-277 92-446 60 63 71 171 92 268 20 94 48 188 69 286 37 175-32 480 275 464 96-66 112-174 160-268 45-87 116-174 137-268 169-23 312-66 389-161 92 35 129 113 229 143 1395 20 1054-2023 1115-2542 330-94 768-277 687-750-41-123-58-264-69-411 10-67-72-63-92-107-117-567-67-1285-293-1855-41-103-103-171-92-232 32-172 352-257 595-161 101 45 241 222 435 196 71-10 136-45 156-108v-2-1-2-1-1-2-1-1-1-1-2-1-1-2-1-3-1l1-6v-1l2-21v-1-1-1-1-1-1-1c0-4-1-7-1-11-25-157-205-104-458-143-148-23-287-85-435-71-174 16-316 103-389 196-158-42-183-167-343-196-170-32-299 47-481 71-168 23-323-19-458 36-79 120-36 259 92 286 287 60 421-351 824-232 174 52 263 183 183 357-20 43-81 96-92 125-203 545-502 1220-577 1766 10 67-72 63-92 107-4 247-121 473-69 678 72 281 357 428 687 518-85 766 266 2155-772 2328-90-79-109-148-229-161-207-22-338 219-595 178-93 53-104 169-160 250-111-404-200-900-298-1374-30-147-37-367-183-375-240-13-153 365-160 500-16 312-67 656-92 964-86 35-126-39-209-64 5 94 12 186 22 276zm2309-3789c-31 78 89 38 69 107-87 328-178 731 160 857 341 127 750-6 801-286 33-181-94-371-92-571-20-69 100-29 69-107-163-604-69-1298-339-1819-275 518-510 1210-668 1819z" stroke-width="7.62"/><text x="10500" y="14850" font-family="&apos;Batang&apos;" stroke-width="75" font-size="720.68" transform="matrix(.69558 0 0 .66379 7023.59 5056.85)">00.00.0000</text></g><text x="10500" y="14850" fill="#3e4095" font-family="&apos;CygnetRound&apos;" stroke-linejoin="round" stroke-linecap="round" stroke-width="50" font-size="931.07" transform="matrix(.69558 0 0 .66379 6231.82-3169.01)">Texto 3</text><g fill="#201e1e" font-family="&apos;Arial&apos;" stroke-width="7.62" font-size="423.33"><text x="10500" y="14850" transform="matrix(.69558 0 0 .66379 7444.75 888.07)">NN 1</text><text x="10500" y="14850" transform="matrix(.69558 0 0 .66379 7430.15 1221.87)">NN 2</text></g></g></g></svg>