<svg xmlns="http://www.w3.org/2000/svg" width="744.09" height="1052.36" viewBox="0 0 21000 29700" shape-rendering="geometricPrecision" image-rendering="optimizeQuality" fill-rule="evenodd" clip-rule="evenodd"><defs><clipPath id="0"><path d="m6692 17840c-927 442-2688 356-3222-461-533-814-412-3124-463-4256-127-2836-447-4986-529-7273-92-2539 1672-4218 3781-4691 2975-667 2799 3241 2386 5249-217 1079-645 2018-919 3073-504 1946-47 4916-223 6941-90 700-328 1164-811 1416z"/></clipPath><clipPath id="1"><path d="m14308 17828c927 442 2688 356 3222-461 533-814 412-3124 463-4256 127-2836 447-4986 529-7273 92-2539-1672-4218-3781-4691-2975-667-2799 3241-2386 5249 217 1079 645 2018 919 3073 504 1946 47 4916 223 6941 90 700 328 1164 811 1416z"/></clipPath></defs><g fill="none" stroke="#373435" stroke-width="80"><path d="m9688 22661h1621"/><path d="m10498 21851v1621"/><circle cx="10498" cy="22661" r="460"/></g><text x="10046" y="21290" fill="#201e1e" font-family="&apos;Arial Black&apos;" stroke="#201e1e" font-weight="900" stroke-width="7.62" font-size="705.56">28</text><g fill="none" stroke="#322f30" stroke-width="80"><circle cx="10533" cy="1326" r="460"/><path d="m10533 515v1621"/><path d="m9723 1326h1621"/></g><g fill="#373435" font-family="&apos;Arial&apos;" font-weight="normal" font-size="423.33"><text x="1033" y="24300">DESC 1</text><text x="997" y="24905">DESC 2</text><text x="980" y="25504">DESC 3</text></g><path d="m6692 17840c-927 442-2688 356-3222-461-533-814-412-3124-463-4256-127-2836-447-4986-529-7273-92-2539 1672-4218 3781-4691 2975-667 2799 3241 2386 5249-217 1079-645 2018-919 3073-504 1946-47 4916-223 6941-90 700-328 1164-811 1416z" fill="#fff"/><g clip-path="url(#0)"><g fill="#201e1e" stroke="#201e1e"><g font-family="&apos;Menuet script&apos;" stroke-linejoin="round" stroke-linecap="round" stroke-width="70" font-size="1403.01"><text x="8981" y="14850" transform="matrix(.5925 0 0 .78018-1842.02 4583.07)">Texto 1</text><text x="8305" y="14850" transform="matrix(.5925 0 0 .78018-899.26 5627.07)">Medicina</text></g><g stroke-width="75"><text x="10500" y="14850" font-family="&apos;Batang&apos;" font-size="1333.77" transform="matrix(.57284 0 0 .78018-3149.39-3467.78)">Texto 2</text><path d="m3786 4932l20-89c0 0-20-141 498-660 0 0 408-360 550-441 0 0 524-358 841-478 0 0 300-151 603-211 0 0 204-55 384 76 0 0 178 115 210 235 0 0 55 264-120 629 0 0-210 569-271 689 0 0 576-519 929-556 0 0 192-16 276 149 0 0 82 133-87 558 0 0-326 913-635 1383 0 0-64 107-35 144 0 0 64 60 146-70 0 0 562-645 702-757l518-504c0 0 249-231 470-421 5 36 9 73 13 110-148 126-311 271-489 439 0 0-652 585-1392 1430l-163 209c0 0-227 99-239-5 0 0-27-20 74-162 0 0 596-1075 742-1451 0 0 413-903 227-945 0 0-140-183-1031 522 0 0-169 136-262 329 0 0-483 851-873 1362 0 0-413 632-757 668 0 0-180-10 64-480 0 0 425-762 1525-1733 0 0 367-642 507-1237 0 0 146-517-198-517 0 0-687 52-1456 584 0 0-1048 715-1165 1101 0 0-180 324 128 365l210 21c0 0 23 99-256 78 0 0-239-57-210-365zm2224 266l87-47c0 0-774 1352-1258 1780 0 0-122 31-47-73 0 0 157-631 1217-1660z"/></g><g stroke-width="7.62"><path d="m3373 8477c988-211 1211 1194 292 1372-78 584-296 1325-328 2017-49 1058 140 2046 832 2287 158 55 318 12 504 27 142-89 137-220 292-242 252-36 358 320 690 242 108 97 114 297 212 404 127-646 36-1375 153-2071 35-210 69-567 239-565 194 2 176 356 186 565 27 606 212 1143 245 1668 188-33 211-138 371-135 55 1 265 41 476 84-4 106-10 210-18 312-222 13-419 8-484-46-83 125-382 134-557 81-173-122-52-469-159-699-52 251-81 578-133 888-45 273-17 693-345 699-129-263-239-546-345-834-200-40-340-139-477-242-106 272-632 228-948 172-1530-273-941-3553-768-4615-237-82-391-248-463-437-12-127-24-253-36-378 45-258 236-489 571-553zm158 209c225 0 506 134 451 447-55 313-286 387-511 387-225 0-396-179-396-406 0-227 232-429 457-429z"/><g font-family="&apos;Arial&apos;" font-size="423.33"><text x="10500" y="14850" transform="matrix(.78408 0 0 .78018-3429.67 242.81)">NN 1</text><text x="10500" y="14850" transform="matrix(.78408 0 0 .78018-3446.13 635.14)">NN 2</text></g><ellipse cx="3520" cy="9106" rx="282" ry="278"/></g></g></g><path d="m14308 17828c927 442 2688 356 3222-461 533-814 412-3124 463-4256 127-2836 447-4986 529-7273 92-2539-1672-4218-3781-4691-2975-667-2799 3241-2386 5249 217 1079 645 2018 919 3073 504 1946 47 4916 223 6941 90 700 328 1164 811 1416z" fill="#fff"/><g clip-path="url(#1)"><g stroke="#201e1e"><g fill="#201e1e"><g stroke-width="75"><path d="m12148 4508c12-11 24-21 36-31 0 0 837-737 1164-818 0 0 276-149 409 128 0 0 138 284 14 446 0 0-336 459-679 1038 0 0-459 731-673 1410-19-81-37-162-54-244 94-292 266-734 552-1192l485-861 282-444c0 0 157-277-248-204 0 0-445 160-1299 902-1-15-1-31-2-46 4-29 9-57 14-86zm405 2678c10 34 20 68 30 102 150-51 328-160 328-160 445-355 485-504 485-504 11-73-62-21-62-21-310 376-699 548-699 548-30 16-57 27-82 35z"/><path d="m13333 5554l34-18c0 0 96-60 152 5 0 0 118 115-51 230l-118 60c0 0 282 3 358-10 0 0 76-24 99-76 0 0 85-3 48 39 0 0 130-151 335-70l141-237c0 0-192 3-127-136 0 0 25-115 344-177 0 0 237-478 880-885 0 0 237-149 522-180 0 0 237-34 412 73 0 0 197 65 296 350 0 0 56 300-299 498 0 0-583 318-1178 412 0 0-429 60-564 47 0 0 65 55-45 115 0 0-93 68-118-3 0 0-14-29 93-104l-135-3c0 0-378 608-367 866 0 0 82 3 65 42 0 0-39 60-96-18 0 0-51-175 107-514 0 0-448 504-660 524 0 0-135 50-87-128 0 0 48-183 366-397 0 0-149 47-654 29 0 0-220 230-124 407 0 0 56 99 372-65 0 0 85-23 6 44 0 0-194 117-302 107 0 0-209-29-155-292 0 0 127-342 451-535zm1122-329l48-3-144 204c0 0-203 23-45-130 0 0 93-68 141-70zm37 201l-37-2c0 0 528-924 1241-1221 0 0 431-183 761 73 0 0 327 240-42 579 0 0-282 230-705 378 0 0-502 206-1218 193zm-386 391l-25 26c-167 178-345 319-527 441 0 0-104 39-28-112 0 0 110-217 454-420 0 0 174-43 127 65zm-944 16l-31-5c0 0 197-230 355-243 0 0 104 154-324 248z"/><path d="m14447 5695l-20 24c0 0-214 360-243 532 0 0-8 128 104 157 0 0 93 16 290-146 0 0 73-47 113-63 0 0 31 290 313 167l189-112c0 0 31-68-85 3 0 0-173 105-285 63 0 0-107-70-34-211 0 0 45-190 265-370 0 0 245-248 279-102 0 0-17 86-192 188 0 0 14 55 144-47 0 0 138-78 104-209 0 0-102-117-254 3 0 0-347 198-440 558 0 0-302 180-319 193 0 0-189 60-116-68 0 0 141-334 242-472 0 0 39-94-59-86z"/><path d="m15521 5530l28-18c0 0 62-81 113-44 0 0 59 52-25 112 0 0-71 76-127 47 0 0-66-35 11-97z"/><path d="m15563 5740l-5 17-234 457c0 0-93 138 39 123 0 0 133-29 180-78 0 0 276-438 364-501 0 0 99-31 51 23 0 0-242 264-231 373 0 0 299-274 513-378 0 0 175-73 79 50 0 0-530 759-305 921 0 0 85 94 313-71 0 0 460-331 276-373 0 0-54-56 36-56 0 0 68-20 49 102 0 0 168-400 217-439 0 0-518 478-627 465 0 0-183 35 22-291 0 0 192-248 454-370 0 0 93-52 186-44 0 0 152 42 175-10 0 0 76-13-20 99 0 0-307 386-398 770 0 0-107 284 45 321 0 0 271 86 710-402l56-68c0 0 65-31 17 50 0 0-242 363-592 470 0 0-294 100-333-162 0 0 21-207 68-331 0 0-242 376-578 425 0 0-248 47-231-245 0 0 68-360 327-673 0 0 83-71-25-47 0 0-271 196-493 418 0 0-70 60-152 60 0 0-172 110-248 10 0 0-87-52 17-269l169-347c0 0 44-82 107 3zm1182 17l43-20c0 0 165-34 153 59 0 0-354 368-541 462 0 0-93 26-34-91 0 0 180-321 378-410z"/></g><path d="m13491 14761c133 33 305 40 443 3 114-110 99-325 103-524 68 74 80 201 103 315 23 111 54 221 77 336 42 206-36 564 310 545 108-78 126-204 181-315 51-102 131-205 155-315 191-27 351-78 439-189 104 42 146 133 258 168 1573 24 1188-2377 1257-2988 372-110 866-325 774-881-46-144-65-311-77-482 11-79-81-74-103-126-132-667-75-1511-330-2180-46-121-116-201-103-273 36-202 397-302 671-189 114 53 271 261 490 231 81-11 153-53 176-127v-2-1-2-1-1-2-1-1-1-2-1-2-1-1-2-1-3-1l1-8v-1l2-25v-1-1-2-2-1-1-1c0-4-1-8-2-13-28-185-231-123-516-168-167-27-324-100-490-84-196 19-356 122-439 231-178-49-206-196-387-231-192-37-337 55-542 84-190 27-364-22-516 42-89 141-41 304 103 336 324 71 475-413 929-273 196 61 297 215 206 420-22 51-91 113-103 147-229 640-566 1434-650 2075 11 79-81 74-103 126-5 290-136 556-77 797 81 331 402 504 774 608-96 901 299 2533-870 2736-101-93-123-174-258-189-233-26-381 257-671 210-105 62-117 199-181 294-125-475-225-1058-335-1615-34-173-41-431-206-441-271-15-173 429-181 587-18 367-75 771-103 1133-97 41-142-46-235-75 6 111 14 219 24 324zm2603-4454c-35 92 100 45 77 126-98 385-200 860 181 1007 384 149 845-7 903-336 38-212-105-436-103-671-23-81 113-34 77-126-184-710-78-1525-382-2138-310 608-575 1423-753 2138z" stroke-width="7.62"/><text x="10500" y="14850" font-family="&apos;Batang&apos;" stroke-width="75" font-size="720.68" transform="matrix(.78408 0 0 .78018 5967.17 5258.55)">00.00.0000</text></g><text x="10500" y="14850" fill="#3e4095" font-family="&apos;CygnetRound&apos;" stroke-linejoin="round" stroke-linecap="round" stroke-width="50" font-size="931.07" transform="matrix(.78408 0 0 .78018 5074.64-4409.66)">Texto 3</text><g fill="#201e1e" font-family="&apos;Arial&apos;" stroke-width="7.62" font-size="423.33"><text x="10500" y="14850" transform="matrix(.78408 0 0 .78018 6441.92 358.8)">NN 1</text><text x="10500" y="14850" transform="matrix(.78408 0 0 .78018 6425.45 751.14)">NN 2</text></g></g></g></svg>