<svg xmlns="http://www.w3.org/2000/svg" width="744.09" height="1052.36" viewBox="0 0 21000 29700" shape-rendering="geometricPrecision" image-rendering="optimizeQuality" fill-rule="evenodd" clip-rule="evenodd" xmlns:xlink="http://www.w3.org/1999/xlink"><defs><clipPath id="2"><path d="m6852 26176c-1334 682-3868 551-4637-712-767-1258-593-4827-666-6577-182-4382-643-7705-762-11239-132-3924 2407-6519 5442-7249 4282-1031 4028 5008 3434 8112-312 1667-929 3119-1322 4749-725 3007-68 7597-320 10727-129 1082-472 1799-1168 2189z"/></clipPath><clipPath id="3"><path d="m13574 26164c1334 682 3868 551 4637-712 767-1258 593-4827 666-6577 182-4382 643-7705 762-11239 132-3924-2407-6519-5442-7249-4282-1031-4028 5008-3434 8112 312 1667 929 3119 1322 4749 725 3007 68 7597 320 10727 129 1082 472 1799 1168 2189z"/></clipPath></defs><text x="10081" y="23623" fill="#201e1e" font-family="&apos;Arial Black&apos;" stroke="#201e1e" font-weight="900" stroke-width="7.62" font-size="705.56">42</text><circle cx="10533" cy="1326" r="460" fill="none" stroke="#373435" stroke-width="80"/><path fill="none" stroke="#373435" stroke-width="80" d="m10533 515v1621" id="0"/><path fill="none" stroke="#373435" stroke-width="80" d="m9723 1326h1621" id="1"/><g fill="none" stroke="#373435" stroke-width="80"><circle cx="10533" cy="24995" r="460"/><path d="m10533 24184v1621"/><path d="m9723 24995h1621"/></g><rect x="9508" y="21571" width="1347" height="637" rx="318" fill="#fff" stroke="#fff" stroke-width="20"/><g fill="#373435" font-family="&apos;Arial&apos;" font-weight="normal" font-size="423.33"><text x="665" y="27449">DESC 1</text><text x="630" y="28053">DESC 2</text><text x="612" y="28653">DESC 3</text></g><circle cx="10533" cy="1326" r="460" fill="none" stroke="#373435" stroke-width="80"/><use xlink:href="#0"/><use xlink:href="#1"/><path d="m6852 26176c-1334 682-3868 551-4637-712-767-1258-593-4827-666-6577-182-4382-643-7705-762-11239-132-3924 2407-6519 5442-7249 4282-1031 4028 5008 3434 8112-312 1667-929 3119-1322 4749-725 3007-68 7597-320 10727-129 1082-472 1799-1168 2189z" fill="#fff"/><g clip-path="url(#2)"><g fill="#201e1e" stroke="#201e1e"><g font-family="&apos;Menuet script&apos;" stroke-linejoin="round" stroke-linecap="round" stroke-width="70" font-size="1403.01"><text x="8981" y="14850" transform="matrix(.85272 0 0 1.20566-5568.5 5739.35)">Texto 1</text><text x="8305" y="14850" transform="matrix(.85272 0 0 1.20566-4073.36 7303.49)">Medicina</text></g><g stroke-width="75"><text x="10500" y="14850" font-family="&apos;Batang&apos;" font-size="1333.77" transform="matrix(.82128 0 0 1.20566-7369.67-6760.58)">Texto 2</text><path d="m2669 6229l29-137c0 0-29-218 717-1020 0 0 587-556 792-681 0 0 754-553 1211-738 0 0 432-234 867-327 0 0 293-85 553 117 0 0 256 177 302 363 0 0 80 407-172 972 0 0-302 879-390 1065 0 0 830-803 1337-859 0 0 276-24 398 230 0 0 117 206-126 863 0 0-469 1411-913 2137 0 0-92 165-50 222 0 0 92 93 210-109 0 0 809-996 1010-1169l746-778c0 0 358-356 677-651 7 56 13 113 19 170-213 195-447 419-704 679 0 0-938 903-2003 2210l-235 323c0 0-327 153-343-8 0 0-38-30 106-250 0 0 858-1662 1067-2242 0 0 595-1395 327-1460 0 0-201-282-1483 807 0 0-243 210-377 508 0 0-695 1315-1257 2105 0 0-595 976-1089 1032 0 0-260-16 92-742 0 0 612-1177 2195-2678 0 0 528-992 729-1911 0 0 209-798-285-798 0 0-989 81-2095 903 0 0-1508 1105-1676 1702 0 0-260 500 184 564l302 32c0 0 33 153-369 121 0 0-343-89-302-565zm3201 411l126-73c0 0-1115 2089-1810 2750 0 0-176 48-67-113 0 0 226-976 1751-2565z"/></g><g stroke-width="7.62"><path d="m2075 11708c1422-327 1743 1845 420 2120-112 903-427 2047-472 3118-70 1635 201 3161 1198 3534 228 85 458 19 725 42 205-138 197-340 420-374 363-55 515 494 993 374 155 150 164 459 305 624 183-998 52-2125 220-3201 51-324 99-876 344-873 279 3 254 549 267 873 38 937 305 1767 352 2577 271-51 303-213 534-208 79 2 382 64 685 130-6 164-15 325-25 482-319 20-603 12-697-72-119 194-549 208-802 125-249-188-75-724-229-1081-74 388-117 893-191 1372-65 422-24 1071-496 1081-186-407-345-844-496-1289-287-61-490-215-687-374-153 420-909 352-1365 265-2202-422-1354-5491-1106-7131-341-127-563-383-666-675-17-197-35-391-52-584 65-399 340-756 822-854zm227 322c324 0 728 208 649 691-79 484-412 598-736 598-324 0-570-277-570-627 0-350 333-663 658-663z"/><g font-family="&apos;Arial&apos;" font-size="423.33"><text x="10500" y="14850" transform="matrix(1.12844 0 0 1.20566-7715.07-1017.16)">NN 1</text><text x="10500" y="14850" transform="matrix(1.12844 0 0 1.20566-7738.76-410.85)">NN 2</text></g><ellipse cx="2286" cy="12680" rx="406" ry="430"/></g></g></g><path d="m13574 26164c1334 682 3868 551 4637-712 767-1258 593-4827 666-6577 182-4382 643-7705 762-11239 132-3924-2407-6519-5442-7249-4282-1031-4028 5008-3434 8112 312 1667 929 3119 1322 4749 725 3007 68 7597 320 10727 129 1082 472 1799 1168 2189z" fill="#fff"/><g clip-path="url(#3)"><g stroke="#201e1e"><g fill="#201e1e"><g stroke-width="75"><path d="m10464 5580c18-16 35-33 52-48 0 0 1204-1139 1675-1264 0 0 398-230 588 198 0 0 199 440 20 690 0 0-483 710-978 1605 0 0-660 1129-968 2179-28-124-54-250-78-377 135-451 383-1135 795-1843l698-1331 406-686c0 0 227-428-357-314 0 0-641 247-1869 1394-1-24-2-47-3-71 6-44 13-88 20-132zm582 4138c14 52 29 105 43 157 216-79 472-248 472-248 641-549 698-778 698-778 16-113-89-32-89-32-446 581-1006 847-1006 847-43 24-82 42-118 55z"/><path d="m12171 7197l49-28c0 0 138-93 219 8 0 0 170 177-73 355l-170 93c0 0 406 4 515-16 0 0 109-36 142-117 0 0 122-4 69 60 0 0 187-234 483-109l203-367c0 0-276 4-183-210 0 0 36-177 495-274 0 0 341-738 1266-1367 0 0 341-230 751-278 0 0 341-52 592 113 0 0 284 101 426 540 0 0 81 464-430 770 0 0-840 492-1696 637 0 0-617 93-812 73 0 0 93 85-65 177 0 0-134 105-170-4 0 0-20-44 134-161l-195-4c0 0-544 940-528 1339 0 0 118 4 93 64 0 0-57 93-138-28 0 0-73-270 154-794 0 0-645 778-949 811 0 0-195 77-126-198 0 0 69-282 527-613 0 0-215 73-941 44 0 0-317 355-178 629 0 0 81 153 535-101 0 0 122-36 8 69 0 0-280 181-434 165 0 0-300-44-223-452 0 0 182-528 649-827zm1615-508l69-4-207 315c0 0-292 36-65-202 0 0 134-105 203-109zm53 311l-54-4c0 0 759-1428 1786-1888 0 0 621-282 1095 113 0 0 471 371-61 895 0 0-406 355-1014 585 0 0-722 318-1753 298zm-556 605l-36 40c-241 274-496 493-759 682 0 0-150 61-41-173 0 0 158-335 653-649 0 0 251-66 182 101zm-1359 24l-45-8c0 0 284-355 511-375 0 0 150 238-466 383z"/><path d="m13773 7414l-28 36c0 0-309 556-349 823 0 0-12 198 150 242 0 0 134 24 418-226 0 0 106-73 162-97 0 0 45 448 450 258l272-173c0 0 45-105-122 4 0 0-250 163-410 97 0 0-154-109-49-327 0 0 65-294 381-573 0 0 353-383 402-157 0 0-24 133-276 290 0 0 20 85 207-73 0 0 199-121 150-323 0 0-146-182-365 4 0 0-499 306-633 863 0 0-434 278-458 298 0 0-272 93-166-105 0 0 203-516 349-730 0 0 57-145-85-133z"/><path d="m15319 7160l41-28c0 0 89-125 162-69 0 0 85 81-36 173 0 0-101 117-183 73 0 0-95-54 16-149z"/><path d="m15379 7484l-7 27-337 706c0 0-134 214 57 190 0 0 191-44 260-121 0 0 398-677 523-774 0 0 142-48 73 36 0 0-349 407-333 577 0 0 430-423 738-585 0 0 252-113 114 77 0 0-763 1173-438 1424 0 0 122 145 450-109 0 0 661-512 398-577 0 0-77-86 52-86 0 0 97-30 71 157 0 0 241-618 312-679 0 0-746 739-902 719 0 0-264 54 32-450 0 0 276-383 653-573 0 0 134-81 268-69 0 0 219 65 251-16 0 0 110-20-28 153 0 0-442 597-572 1190 0 0-154 440 65 496 0 0 389 133 1022-621l81-105c0 0 93-48 24 77 0 0-349 561-852 726 0 0-423 154-479-250 0 0 30-320 97-512 0 0-349 581-832 657 0 0-357 73-333-379 0 0 97-556 471-1040 0 0 119-110-36-73 0 0-390 302-710 645 0 0-101 93-219 93 0 0-247 169-357 16 0 0-126-81 24-415l244-536c0 0 63-126 153 5zm1701 27l62-30c0 0 237-52 221 91 0 0-510 569-778 714 0 0-134 40-49-141 0 0 260-496 544-633z"/></g><path d="m12398 21425c192 51 439 61 638 4 164-170 142-503 149-810 98 115 115 310 149 486 33 171 78 342 111 519 61 318-52 872 446 843 155-120 181-316 260-486 73-158 189-316 223-486 274-41 506-120 631-292 149 64 210 206 371 259 2264 36 1710-3674 1809-4617 535-170 1246-503 1114-1362-67-223-94-480-111-746 16-122-116-115-149-195-189-1030-108-2335-476-3369-66-187-167-310-149-421 52-312 571-467 965-292 164 81 390 404 706 357 116-17 221-81 253-196v-3-2-3-2-2-1-3-2-2-1-3-2-3-1-2-2-3-2-5-2l1-12v-2l3-39v-2-2-2-3-2-2-2c-1-6-1-13-2-20-40-285-333-190-743-259-240-41-466-154-706-130-282 29-512 188-631 357-256-75-297-302-557-357-276-57-485 85-780 130-273 42-524-34-743 65-128 218-59 470 149 519 466 109 684-638 1337-421 283 94 427 333 297 648-32 78-131 175-149 227-329 989-814 2216-936 3207 16 122-116 115-149 195-7 449-196 859-111 1232 116 511 579 778 1114 940-138 1392 431 3915-1252 4228-146-144-177-268-371-292-335-40-549 398-966 324-151 95-168 307-260 454-179-734-324-1635-483-2496-49-267-60-666-297-681-390-24-248 663-260 908-27 567-108 1191-149 1751-139 63-205-71-339-116 8 172 20 339 35 501zm3747-6882c-51 142 144 69 111 195-142 595-288 1328 260 1556 553 230 1216-11 1300-519 54-328-152-673-149-1037-32-126 162-53 111-195-265-1098-112-2357-550-3304-446 940-828 2198-1084 3304z" stroke-width="7.62"/><text x="10500" y="14850" font-family="&apos;Batang&apos;" stroke-width="75" font-size="720.68" transform="matrix(1.12844 0 0 1.20566 1569.73 6740.51)">00.00.0000</text></g><text x="10500" y="14850" fill="#3e4095" font-family="&apos;CygnetRound&apos;" stroke-linejoin="round" stroke-linecap="round" stroke-width="50" font-size="931.07" transform="matrix(1.12844 0 0 1.20566 285.23-8200.36)">Texto 3</text><g fill="#201e1e" font-family="&apos;Arial&apos;" stroke-width="7.62" font-size="423.33"><text x="10500" y="14850" transform="matrix(1.12844 0 0 1.20566 2252.98-831.37)">NN 1</text><text x="10500" y="14850" transform="matrix(1.12844 0 0 1.20566 2229.28-225.07)">NN 2</text></g></g></g></svg>