<svg xmlns="http://www.w3.org/2000/svg" width="744.09" height="1052.36" viewBox="0 0 21000 29700" shape-rendering="geometricPrecision" image-rendering="optimizeQuality" fill-rule="evenodd" text-rendering="geometricPrecision" clip-rule="evenodd"><g fill="none" stroke="#373435" stroke-width="80"><path d="m9688 22661h1621"/><path d="m10498 21851v1621"/><circle cx="10498" cy="22661" r="460"/></g><text x="10046" y="21290" fill="#201e1e" font-family="&apos;Arial Black&apos;" stroke="#201e1e" font-weight="900" stroke-width="7.62" font-size="705.56">28</text><g fill="none" stroke="#322f30" stroke-width="80"><circle cx="10533" cy="1326" r="460"/><path d="m10533 515v1621"/><path d="m9723 1326h1621"/></g><rect x="9843" y="19706" width="1347" height="637" rx="318" fill="#fff" stroke="#fff" stroke-width="20"/><g fill="#373435" font-family="&apos;Arial&apos;" font-weight="normal" font-size="423.33"><text x="1566" y="24314">DESC 1</text><text x="1566" y="24777">DESC 2</text><text x="1566" y="25227">DESC 3</text></g><g fill="#201e1e"><path d="m16759 10157c-11 64 52 137 89 174 67 67 161 123 230 174 109-67 276-144 311-276 5-19 13-42 7-65-30-134-249-49-319 7-48-82-298-128-319-15zm326-44c126-108 422-91 348 145-41 133-242 232-356 298-97-65-291-183-348-305-104-221 225-262 356-138z" stroke="#201e1e" stroke-width="7.62"/><path d="m15834 11906c-162-7-157 184-19 189-52 164 150 193 197 73 56 136 306 87 213-80 128-33 96-181-12-196 79-152-154-244-192-103-27-142-300-47-187 118zm25-1568c-459-84-386 350-393 516-15 363-10 803-15 1149 74-51 174-139 304-160v-553c173 0 368 0 541 0l5 562c11 33 103 93 150 129 357 271 510 679 526 1301-657-5-1334 10-1979-7 5-293 20-576 133-763-352 54-640-85-645-414-3-173 83-366 237-422 136-50 299 15 363 87-171 8-305 37-319 174-14 136 116 287 252 284 100-3 189-117 207-225 17-103 0-236 0-363 0-203-23-999 22-1149 50-165 196-311 371-334 195-26 302 60 415 160 216 33 367 145 393 342 36 277-167 498-467 458-158-21-312-174-333-327-28-202 76-342 230-443z"/><g stroke="#201e1e"><path d="m17856 10324c307-46 593 234 452 553-62 141-247 262-452 233-285-41-423-394-274-618 47-71 151-149 274-167z" stroke-width="7.62"/><path d="m17159 11458c0 596 0 1192 0 1788 506 0 1013 0 1519 0 0-603 0-1207 0-1810-64 0-128 0-193 0-194 258-372 532-563 792-123-177-273-405-408-603-32-47-102-175-148-189h-200c-9 1-8 11-7 22zm771-36l-231-207 1 418c77-55 143-122 230-167 76 54 144 116 222 167l-1-435-221 225zm241-282l4 282c173 0 346 0 519 0 0 616 0 1231 0 1847-519 0-1038 0-1556 0 0-616 0-1231 0-1847 180 0 361 0 541 0l-3-266 255 237 241-253z" stroke-width="75"/><path d="m15972 11872c86-22 149 23 155 97 6 85-63 125-111 127-134 8-176-190-43-225z" stroke-width="7.62"/></g><path d="m17503 4943c-67 0-121 53-121 119 0 66 54 119 121 119 67 0 121-53 121-119 0-66-54-119-121-119"/><path d="m18823 5892c-67 0-121 53-121 119 0 66 54 119 121 119 67 0 121-53 121-119 0-66-54-119-121-119"/><path d="m16860 6850c-67 0-121 53-121 119 0 66 54 119 121 119 67 0 121-53 121-119 0-66-54-119-121-119"/><path d="m18887 8107c-67 0-121 53-121 119 0 66 54 119 121 119 67 0 121-53 121-119 0-66-54-119-121-119"/><path d="m15887 8724c-67 0-121 53-121 119 0 66 54 119 121 119 67 0 121-53 121-119 0-66-54-119-121-119"/><path d="m13477 5483c-67 0-121 53-121 119 0 66 54 119 121 119 67 0 121-53 121-119 0-66-54-119-121-119"/><path d="m14398 3504c-67 0-121 53-121 119 0 66 54 119 121 119 67 0 121-53 121-119 0-66-54-119-121-119"/><path d="m15761 5368c-67 0-121 53-121 119 0 66 54 119 121 119 67 0 121-53 121-119 0-66-54-119-121-119"/><path d="m16307 3471c-67 0-121 53-121 119 0 66 54 119 121 119 67 0 121-53 121-119 0-66-54-119-121-119"/><path d="m13930 7933c-67 0-121 53-121 119 0 66 54 119 121 119 67 0 121-53 121-119 0-66-54-119-121-119"/><path d="m18008 9551c-67 0-121 53-121 119 0 66 54 119 121 119 67 0 121-53 121-119 0-66-54-119-121-119"/><path d="m18519 14258c-67 0-121 53-121 119 0 66 54 119 121 119 67 0 121-53 121-119 0-66-54-119-121-119"/><path d="m16589 15229c-67 0-121 53-121 119 0 66 54 119 121 119 67 0 121-53 121-119 0-66-54-119-121-119"/><path d="m14732 16395c-67 0-121 53-121 119 0 66 54 119 121 119 67 0 121-53 121-119 0-66-54-119-121-119"/><path d="m18440 16645c-67 0-121 53-121 119 0 66 54 119 121 119 67 0 121-53 121-119 0-66-54-119-121-119"/><path d="m14951 13735c-67 0-121 53-121 119 0 66 54 119 121 119 67 0 121-53 121-119 0-66-54-119-121-119"/><g stroke="#201e1e" stroke-linejoin="round" stroke-linecap="round" stroke-width="50"><path d="m17166 17109c0 18-12 28-37 28-18 0-28-7-31-22l6-17-3-4c-34 0-66 19-96 55-20 30-40 59-61 89 13 27 19 65 19 112 0 84-39 150-116 199-71 44-159 66-265 66-131 0-197-32-197-97 0-38 27-72 80-102 48-27 98-41 148-41 9 0 17 1 25 2 0 6-8 9-24 10-48 3-94 16-136 37-49 26-74 56-74 91 0 56 48 84 145 84 116 0 208-27 277-81 69-54 104-127 104-220 0-14-2-30-5-47-44 43-99 65-163 65-36 0-64-8-85-24-21-16-32-38-32-66 0-24 10-47 29-68 19-21 43-36 70-45 27-4 66-12 118-23-7-11-10-26-10-43 0-11 0-20 1-25 1-20 16-37 44-52 26-13 52-19 79-19 16 0 30 5 44 14 13 9 20 20 20 33 0 30-16 55-48 75-28 17-62 27-102 30 10 13 18 32 24 57 7 29 13 48 19 59 51-95 108-143 174-143 39 0 58 11 58 32zm-140-99c0-12-5-23-16-32-10-9-23-14-38-14-31 0-55 8-73 25-18 17-27 38-27 64 0 10 4 22 13 36 33 0 63-6 90-19 34-15 50-35 50-60zm-108 228c-9-13-16-35-21-67-6-30-15-51-27-65-117 20-175 72-175 156 0 29 27 43 80 43 54 0 102-22 142-67z" fill-rule="nonzero"/><g font-family="&apos;Easy Street Alt EPS&apos;" font-size="1397.29"><text x="10500" y="14850" transform="matrix(.88827 0 0 1 5580.23 1889.67)">Texto 01</text><text x="10500" y="14850" transform="matrix(.88827 0 0 1 5580.23 3738.54)">Texto 02</text></g></g><text x="10500" y="14850" font-family="&apos;Fawn Script&apos;" font-size="564.34" transform="matrix(1.02157 0 0 1 4654.28 4725.8)">00.00.0000</text><g font-family="&apos;Arial Black&apos;" font-weight="900" font-size="416.47"><text x="10500" y="14850" transform="matrix(1.02157 0 0 1 5432.17-698.18)">NN 1</text><text x="10500" y="14850" transform="matrix(1.02157 0 0 1 5433.63-275.74)">NN 2</text></g><path d="m4440 10201c-11 64 52 137 89 174 67 67 161 123 230 174 109-67 276-144 311-276 5-19 13-42 7-65-30-134-249-49-319 7-48-82-298-128-319-15zm326-44c126-108 422-91 348 145-41 133-242 232-356 298-97-65-291-183-348-305-104-221 225-262 356-138z" stroke="#201e1e" stroke-width="7.62"/><path d="m3515 11951c-162-7-157 184-19 189-52 164 150 193 197 73 56 136 306 87 213-80 128-33 96-181-12-196 79-152-154-244-192-103-27-142-300-47-187 118zm25-1568c-459-84-386 350-393 516-15 363-10 803-15 1149 74-51 174-139 304-160v-553c173 0 368 0 541 0l5 562c11 33 103 93 150 129 357 271 510 679 526 1301-657-5-1334 10-1979-7 5-293 20-576 133-763-352 54-640-85-645-414-3-173 83-366 237-422 136-50 299 15 363 87-171 8-305 37-319 174-14 136 116 287 252 284 100-3 189-117 208-225 17-103 0-236 0-363 0-203-23-999 22-1149 50-165 196-311 371-334 195-26 302 60 415 160 216 33 367 145 393 342 36 277-167 498-467 458-158-21-312-174-333-327-28-202 76-342 230-443z"/><g stroke="#201e1e"><path d="m5537 10368c307-46 593 234 452 553-62 141-247 262-452 233-285-41-423-394-274-618 47-71 151-149 274-167z" stroke-width="7.62"/><path d="m4840 11503c0 596 0 1192 0 1788 506 0 1013 0 1519 0 0-603 0-1207 0-1810-64 0-128 0-193 0-194 258-372 532-563 792-123-177-273-405-408-603-32-47-102-175-148-189h-200c-9 1-8 11-7 22zm771-36l-231-207 1 418c77-55 143-122 230-167 76 54 144 116 222 167l-1-435-221 225zm241-282l4 282c173 0 346 0 519 0 0 616 0 1231 0 1847-519 0-1038 0-1556 0 0-616 0-1231 0-1847 180 0 361 0 541 0l-3-266 255 237 241-253z" stroke-width="75"/><path d="m3654 11916c86-22 149 23 155 97 6 85-63 125-111 127-134 8-176-190-43-225z" stroke-width="7.62"/></g><path d="m3529 4987c67 0 121 53 121 119 0 66-54 119-121 119-67 0-121-53-121-119 0-66 54-119 121-119"/><path d="m2209 5936c67 0 121 53 121 119 0 66-54 119-121 119-67 0-121-53-121-119 0-66 54-119 121-119"/><path d="m4173 6894c67 0 121 53 121 119 0 66-54 119-121 119-67 0-121-53-121-119 0-66 54-119 121-119"/><path d="m2145 8151c67 0 121 53 121 119 0 66-54 119-121 119-67 0-121-53-121-119 0-66 54-119 121-119"/><path d="m5145 8769c67 0 121 53 121 119 0 66-54 119-121 119-67 0-121-53-121-119 0-66 54-119 121-119"/><path d="m7555 5527c67 0 121 53 121 119 0 66-54 119-121 119-67 0-121-53-121-119 0-66 54-119 121-119"/><path d="m6634 3548c67 0 121 53 121 119 0 66-54 119-121 119-67 0-121-53-121-119 0-66 54-119 121-119"/><path d="m5268 5475c67 0 121 53 121 119 0 66-54 119-121 119-67 0-121-53-121-119 0-66 54-119 121-119"/><path d="m4726 3515c67 0 121 53 121 119 0 66-54 119-121 119-67 0-121-53-121-119 0-66 54-119 121-119"/><path d="m7102 7977c67 0 121 53 121 119 0 66-54 119-121 119-67 0-121-53-121-119 0-66 54-119 121-119"/><path d="m3024 9595c67 0 121 53 121 119 0 66-54 119-121 119-67 0-121-53-121-119 0-66 54-119 121-119"/><path d="m2513 14302c67 0 121 53 121 119 0 66-54 119-121 119-67 0-121-53-121-119 0-66 54-119 121-119"/><path d="m4443 15273c67 0 121 53 121 119 0 66-54 119-121 119-67 0-121-53-121-119 0-66 54-119 121-119"/><text x="10500" y="14850" font-family="&apos;Fawn Script&apos;" font-size="564.34" transform="matrix(1.02157 0 0 1-7363.62 4769.9)">00.00.0000</text><path d="m6300 16439c67 0 121 53 121 119 0 66-54 119-121 119-67 0-121-53-121-119 0-66 54-119 121-119"/><path d="m2592 16689c67 0 121 53 121 119 0 66-54 119-121 119-67 0-121-53-121-119 0-66 54-119 121-119"/><path d="m6081 13779c67 0 121 53 121 119 0 66-54 119-121 119-67 0-121-53-121-119 0-66 54-119 121-119"/><g stroke="#201e1e" stroke-linejoin="round" stroke-linecap="round" stroke-width="50"><text x="10500" y="14850" font-family="&apos;Easy Street Alt EPS&apos;" font-size="1397.29" transform="matrix(.88827 0 0 1-6568.58 1933.77)">Texto 01</text><path d="m5196 17153c0 18-12 28-37 28-18 0-28-7-31-22l6-17-3-4c-34 0-66 19-96 55-20 30-40 59-61 89 13 27 19 65 19 112 0 84-39 150-116 199-71 44-159 66-265 66-131 0-197-32-197-97 0-38 27-72 80-102 48-27 98-41 148-41 9 0 17 1 25 2 0 6-8 9-24 10-48 3-94 16-136 37-49 26-74 56-74 91 0 56 48 84 145 84 116 0 208-27 277-81 69-54 104-127 104-220 0-14-2-30-5-47-44 43-99 65-163 65-36 0-64-8-85-24-21-16-32-38-32-66 0-24 10-47 29-68 19-21 43-36 70-45 27-4 66-12 118-23-7-11-10-26-10-43 0-11 0-20 1-25 1-20 16-37 44-52 26-13 52-19 79-19 16 0 30 5 44 14 13 9 20 20 20 33 0 30-16 55-48 75-28 17-62 27-102 30 10 13 18 32 24 57 7 29 13 48 19 59 51-95 108-143 174-143 39 0 58 11 58 32zm-140-99c0-12-5-23-16-32-10-9-23-14-38-14-31 0-55 8-73 25-18 17-27 38-27 64 0 10 4 22 13 36 33 0 63-6 90-19 34-15 50-35 50-60zm-108 228c-9-13-16-35-21-67-6-30-15-51-27-65-117 20-175 72-175 156 0 29 27 43 80 43 54 0 102-22 142-67z" fill-rule="nonzero"/><text x="10500" y="14850" font-family="&apos;Easy Street Alt EPS&apos;" font-size="1397.29" transform="matrix(.88827 0 0 1-6568.58 3782.64)">Texto 02</text></g><g font-family="&apos;Arial Black&apos;" font-weight="900" font-size="416.47"><text x="10500" y="14850" transform="matrix(1.02157 0 0 1-6852.05-654.08)">NN 1</text><text x="10500" y="14850" transform="matrix(1.02157 0 0 1-6850.59-231.64)">NN 2</text></g></g></svg>