<svg xmlns="http://www.w3.org/2000/svg" width="744.09" height="1052.36" viewBox="0 0 21000 29700" shape-rendering="geometricPrecision" image-rendering="optimizeQuality" fill-rule="evenodd" clip-rule="evenodd"><defs><clipPath id="0"><path d="m6620 26325c-1304 659-3784 532-4536-687-750-1215-580-4662-651-6352-178-4232-629-7441-745-10854-130-3790 2354-6295 5323-7001 4189-995 3941 4837 3359 7834-305 1610-908 3012-1293 4586-710 2904-67 7337-313 10359-127 1045-461 1738-1142 2114z"/></clipPath><clipPath id="1"><path d="m14362 26325c1304 659 3784 532 4536-687 750-1215 580-4662 651-6352 178-4232 629-7441 745-10854 130-3790-2354-6295-5323-7001-4189-995-3941 4837-3359 7834 305 1610 908 3012 1293 4586 710 2904 67 7337 313 10359 127 1045 461 1738 1142 2114z"/></clipPath></defs><text x="10081" y="24148" fill="#201e1e" font-family="&apos;Arial Black&apos;" stroke="#201e1e" font-weight="900" stroke-width="7.62" font-size="705.56">40</text><g fill="none" stroke="#373435" stroke-width="80"><circle cx="10533" cy="1008" r="460"/><path d="m10533 198v1621"/><path d="m9723 1008h1621"/><circle cx="10533" cy="25519" r="460"/><path d="m10533 24708v1621"/><path d="m9723 25519h1621"/></g><g fill="#fff"><rect x="9843" y="22866" width="1347" height="637" rx="318" stroke="#fff" stroke-width="20"/><path d="m6620 26325c-1304 659-3784 532-4536-687-750-1215-580-4662-651-6352-178-4232-629-7441-745-10854-130-3790 2354-6295 5323-7001 4189-995 3941 4837 3359 7834-305 1610-908 3012-1293 4586-710 2904-67 7337-313 10359-127 1045-461 1738-1142 2114z"/></g><g clip-path="url(#0)"><g stroke="#201e1e" stroke-linejoin="round" stroke-linecap="round" stroke-width="140"><g fill="none"><path d="m4854 11231c0 0 575-1650 284-3974 0 0 409-3534 3036-2561 0 0 169-126 423-221"/><path d="m9669 5333c-751-386-2952-1216-3889 1711 0 0 286 1310-204 2253"/><path d="m8093 5163c0 0-671 723-1532 936"/><path d="m6824 5554c0 0-409 356-365 1553 0 0 0 391-175 1102 0 0 29 356 146 688 0 0 44 213-204 403 0 0-657 723-306 1316"/><path d="m9064 5081c0 0-358 401-1540 781"/><path d="m9290 7237c0 0-1080 1292-2247 0"/><path d="m9990 7770c0 0-1693 1482-3254 36 0 0-128-110-279-996"/><path d="m8992 8316l-24 580c0 0 452 36 831 415"/><path d="m6736 7806c0 0 452 616 175 1043 0 0-146 119-146 427"/><path d="m7620 8341c0 0 79 508-387 722 0 0-321 225-759 830 0 0-248 202-306 735"/><path d="m5919 10615l13 71c-116 96-111 236 46 278-208 120-89 260 52 288-182 101-152 225 45 249l1229 68 1605-24 53-2"/><path d="m6032 11237l1390 11h1605"/><path d="m5982 10963l3132-23"/><path d="m5934 10696l3389-49"/><path d="m6473 9892c0 0 1094-220 1532 147 0 0 219-367 540-367"/><path d="m8899 11710c-406 123-1813 525-2630 475"/></g><path d="m5751 12137l-7 77c0 0 277-397 525-30 0 0 139 373-379 237 0 0 212 373-44 445 0 0-452 107-314-314 0 0-306 207-489 24 0 0-241-338 357-367 0 0-219-350 175-332 0 0 204 36 175 261z" fill="#fefefe"/><path d="m5401 12208l124 59c0 0 88-95 219-53 0 0 146 101 146 207 0 0 7 166-357 130 0 0-124-202-66-243 58-41 58-41 58-41" fill="none"/><path d="m5008 11447l-7 77c0 0 277-397 525-30 0 0 139 373-379 237 0 0 212 373-44 445 0 0-452 107-314-314 0 0-306 207-489 24 0 0-241-338 357-367 0 0-219-350 175-332 0 0 204 36 175 261z" fill="#fefefe"/><path d="m4658 11518l124 59c0 0 88-95 219-53 0 0 146 101 146 207 0 0 7 166-357 130 0 0-124-202-66-243 58-41 58-41 58-41" fill="none"/><path d="m3656 11507l38 71c0 0 19-456 449-224 0 0 336 279-201 353 0 0 401 251 215 410 0 0-340 265-457-160 0 0-153 299-420 205 0 0-406-209 107-460 0 0-393-227-34-360 0 0 201-45 304 165z" fill="#fefefe"/><path d="m3386 11702l144 6c0 0 23-117 164-130 0 0 187 34 248 129 0 0 101 144-242 250 0 0-225-132-197-191 28-59 28-59 28-59" fill="none"/><path d="m4237 12361l69 54c0 0-201-426 305-348 0 0 443 150-16 389 0 0 489 104 395 310 0 0-186 352-498-3 0 0 3 324-288 322 0 0-474-64-122-458 0 0-471-85-204-321 0 0 164-106 359 56z" fill="#fefefe"/><g fill="none"><path d="m4082 12626l135-40c0 0-35-115 88-171 0 0 188-28 290 40 0 0 162 101-103 307 0 0-270-50-273-113-2-63-2-63-2-63"/><path d="m5197 12650l343 1004"/><path d="m4927 12846l175 820"/><path d="m4679 12905l73 1034"/><path d="m4428 12977l-391 773-248 213c0 0 1634 356 2028 533"/><path d="m8376 20792c-1181-27-3060-110-3405-368 0 0-379-56-409-818 0 0 467-1764 657-1961 0 0 1080-2272 1109-2342 29-71 959-2825 972-3204"/><path d="m8387 21302c-50 31-112 55-192 66l-2087-42c0 0-695-146-92-666"/></g><g fill="#201e1e"><path d="m8589 6453c89 0 161 64 161 142 0 79-72 142-161 142-89 0-161-64-161-142 0-79 72-142 161-142z"/><path d="m7860 6424c89 0 161 64 161 142 0 79-72 142-161 142-89 0-161-64-161-142 0-79 72-142 161-142z"/></g><path fill="none" d="m6080 11497l-540 53"/></g></g><g fill="#201e1e"><g stroke="#201e1e" stroke-linejoin="round" stroke-linecap="round" stroke-width="50"><text x="10500" y="14850" font-family="&apos;Monotype Corsiva&apos;" font-style="italic" font-size="1296.52" transform="matrix(.96954 0 0 1-7317.63 7674.33)">Texto 01</text><path d="m5134 23180c0 14-5 29-15 44-10 15-22 22-36 22-17 0-25-10-25-29 0-4 1-9 2-15 1-6 2-11 2-14 0-15-9-23-28-23-31 0-89 39-175 117-19 18-74 72-165 164 44 62 66 120 66 173 0 67-26 124-77 172-51 47-110 71-175 71-20 0-40-5-60-15-24-12-36-28-36-48 0-2 1-4 3-6 16 34 47 51 93 51 52 0 96-20 131-60 35-40 53-88 53-142 0-52-13-104-39-158-94 78-171 118-232 118-37 0-55-16-55-48 0-68 75-137 225-207-6-21-9-43-9-66 0-33 11-64 34-94 22-30 50-45 82-45 28 0 42 16 42 48 0 45-36 94-109 147 18 36 36 69 55 97 110-112 170-173 181-182 88-79 157-119 208-119 40 0 60 16 60 49zm-412 17c0-22-10-32-30-32-21 0-38 13-52 39-14 26-21 51-21 75 0 14 2 29 7 43 64-47 96-89 96-125zm-78 270c-23-40-39-76-49-109-49 35-81 59-96 72-42 37-63 70-63 98 0 19 12 29 37 29 40 0 97-30 171-90z" fill-rule="nonzero"/><text x="10500" y="14850" font-family="&apos;Monotype Corsiva&apos;" font-style="italic" font-size="1346.37" transform="matrix(.96954 0 0 1-7560.95 10159.1)">Texto 02</text><path d="m1063 7879l-37-11c-6-83-16-154-29-213 38 14 86 30 147 47l228 70 3-79c2-37-5-77-23-120-18-44-50-83-97-118-47-35-98-53-153-55-55-1-98 19-131 59-33 41-50 104-51 189-2 97 19 193 63 288 44 95 101 168 171 220 70 52 140 79 209 81 34 1 64-5 89-18 26-13 51-36 76-69 20-27 39-41 58-41 12 0 22 5 30 14 8 9 12 20 12 33-1 34-23 66-68 97-45 30-101 45-168 43-123-3-234-55-334-157-131-134-194-311-189-531 2-84 13-152 35-205 22-53 51-93 87-119 36-26 75-38 117-37 53 1 105 21 155 60 50 39 91 95 121 169 30 74 44 155 42 244 0 14-1 35-3 65l252 75c43 12 85 26 126 40 11-44 17-83 17-116 1-42-5-87-19-135l45 11c10 45 15 83 14 114-1 30-4 73-11 130-6 46-10 83-10 112-1 55 4 113 15 171l-43-11c-8-60-20-101-37-123-24-32-72-58-145-79l-485-141c-22-6-38-10-47-10-9 0-16 3-23 11-7 7-10 16-11 26 0 4 0 10 1 17zm215-1087c9-55 38-98 86-127 48-29 109-37 183-23 119 22 218 86 298 192 80 106 112 207 95 306-10 60-37 106-81 136-44 30-98 39-163 27-112-21-211-74-295-159-104-107-146-225-125-352zm49 84c-8 48 17 100 74 157 58 57 144 96 258 117 70 13 127 9 172-11 33-15 52-39 58-73 8-47-13-95-62-145-64-63-149-104-257-124-80-15-139-14-178 2-38 17-60 42-66 76zm726-383l-30 124-198-116c-97-57-190-108-279-154-22-11-36-18-42-19-12-3-20 1-22 13-2 9 0 23 7 43 7 20 26 59 58 115l-34 18c-41-68-70-133-84-193-14-61-18-105-11-134 2-10 6-17 12-22 6-5 12-6 18-4 7 2 24 10 52 26l133 75c-70-79-126-161-168-247-20-41-28-73-22-96 4-17 13-29 26-38 13-8 26-11 40-7 14 4 25 12 32 26 7 13 13 44 16 91 3 45 11 82 23 113 12 31 34 67 64 108 31 41 58 71 83 91 25 20 86 56 182 108l143 79zm-181-1408c24-51 62-83 116-96 54-14 114-3 182 32 108 56 186 147 235 272 49 125 52 232 10 322-26 55-64 91-113 107-50 16-104 8-163-22-102-53-182-133-240-240-71-134-80-259-26-374zm25 95c-20 44-10 101 30 173 40 72 112 134 216 189 63 33 119 46 168 40 35-5 60-22 75-53 20-43 13-95-21-157-45-79-116-144-213-195-73-38-130-55-171-50-41 5-69 23-83 54zm339-314l-39 8c-17-100-22-175-17-225 5-49 15-87 32-113 6-10 13-17 21-20 7-3 14-3 20 1 4 3 10 9 19 18l116 128c-21-84-30-179-28-283 2-55 10-95 26-120 12-19 27-29 44-32 18-3 37 3 58 18 14 10 28 23 43 40 25 28 76 93 155 195 73 95 125 153 155 174 10 7 18 10 24 11 7 0 12-2 15-7 9-14 10-45 3-92-5-34-9-67-11-99l35 1c18 76 27 147 25 214-1 43-7 73-20 93-11 18-26 28-45 29-19 1-42-8-71-28-40-28-124-125-251-291-47-56-75-88-84-94-13-9-26-5-37 12-12 19-18 50-18 94 0 65 9 125 28 182 13 36 41 80 87 130l200 224-67 107c-55-68-109-130-162-189l-218-244c-9-10-15-16-19-19-12-8-21-8-27 2-5 8-7 22-7 43 0 43 5 87 15 131zm1183-934l39 7c-9 100-20 171-31 212-16 57-34 96-54 116-9 10-20 15-31 15-11 0-20-3-26-10-6-7-15-21-25-41l-48-97c2 102-4 178-18 229-14 51-33 89-59 115-21 21-47 29-79 24-32-5-65-26-99-63-54-59-96-146-128-262-32-115-40-215-27-299 14-84 40-146 79-185 9-9 23-20 43-35-55-99-91-176-107-230-17-54-24-108-22-162 2-54 14-105 35-155 21-49 46-89 76-119 16-16 32-24 50-25 18-1 32 6 44 19 12 13 17 28 16 45-1 17-9 33-24 48-10 10-30 27-60 50-30 23-50 40-60 50-14 14-22 31-24 50-3 19 5 48 21 87 11 25 51 99 120 221l259 459c31 54 53 88 66 103 14 15 27 17 38 6 7-7 13-18 18-33 6-21 13-68 21-139zm-415-196c-38 24-64 43-77 56-26 27-42 64-47 111-5 47 9 114 43 201 34 86 72 153 114 200 19 21 40 33 63 36 23 3 42-3 55-17 16-17 28-43 35-80 10-54 8-106-4-156-8-32-40-97-96-196l-87-153zm819-201l43 11c-24 192-73 320-147 383-30 25-61 34-93 26-32-8-66-35-102-82-73-95-118-213-135-354-20-160 12-276 98-349 30-25 59-37 87-35 28 2 52 17 74 45 22 29 34 65 37 110 2 44-9 102-35 174-14 36-46 107-97 213 15 27 30 52 47 74 24 32 46 50 65 54 19 4 38-1 56-17 17-15 32-36 45-64 17-37 36-100 58-189zm-295 93c44-90 68-168 74-234 3-46-4-81-24-106-15-19-31-30-49-34-18-3-35 2-50 15-16 13-26 32-31 57-7 33-5 72 7 117 18 65 42 127 73 185zm566-821l171-99c-37-142-54-254-49-336 5-82 26-158 66-227 40-69 85-118 137-148 29-17 54-23 75-20 21 4 36 13 45 30 8 15 10 31 5 46-5 16-15 29-31 38-17 10-51 23-103 39-25 8-45 16-57 23-31 18-49 55-53 111-4 55 5 122 26 201l46 182 190-110 17 61-191 111 138 547c41 166 43 309 6 429-37 120-101 205-190 257-30 17-56 24-78 21-22-3-37-14-47-32-8-15-9-31-3-46 6-15 19-29 39-41 10-6 25-13 46-22 36-15 69-31 100-49 47-27 75-59 84-95 9-36 1-105-25-209l-175-700-171 99-15-61zm848-503c49-22 98-21 147 6 49 26 89 76 119 149 48 117 52 239 12 368-40 129-103 212-190 252-53 24-104 26-152 4-48-22-85-65-111-128-45-110-58-226-36-347 27-151 97-252 210-303zm-39 89c-42 19-70 70-83 152-13 82 3 179 50 291 28 68 63 117 103 145 30 21 60 24 90 11 42-19 68-64 80-134 15-91 0-189-43-294-32-79-66-131-100-155-34-24-66-30-97-16zm701 423l-115 42-19-238c-9-117-20-227-33-331-3-25-6-41-8-47-4-12-12-17-23-12-8 3-18 13-30 30-12 17-32 56-59 115l-33-19c31-74 66-135 106-181 40-46 73-74 99-84 9-3 17-4 24-1 7 2 11 7 14 14 2 7 5 27 8 60l15 158c23-105 57-200 102-285 22-41 43-65 64-73 16-6 30-5 44 2 14 7 23 17 27 31 5 15 4 29-3 43-7 14-27 35-63 64-34 28-59 55-76 83-18 28-34 67-49 116-15 50-24 91-26 124-2 33 4 106 15 220l18 170zm352-309c20-6 40-3 58 9 18 12 31 31 37 55 9 36 9 66-3 91-11 25-29 41-53 48-20 6-40 3-57-8-18-11-30-28-36-52-9-35-7-68 5-99 9-23 25-38 49-45zm372-90c21-4 40 1 57 14 17 14 28 33 33 58 6 36 3 67-10 91-13 24-32 39-57 44-21 4-40 0-56-13-17-13-28-31-32-55-6-35-2-68 13-98 11-22 28-36 52-41zm379-58c21-2 40 4 55 20 16 15 25 36 28 61 3 37-2 67-17 89-15 23-35 35-60 38-21 2-40-4-55-18-16-14-25-33-27-58-3-36 4-68 21-97 13-21 31-33 56-36z" fill-rule="nonzero"/><text x="10500" y="14850" font-family="&apos;Monotype Corsiva&apos;" font-style="italic" font-size="817.1" transform="matrix(.94805 0 0 1-6844.42 11346.6)">00.00.0000</text></g><g font-family="&apos;Arial Black&apos;" font-weight="900" font-size="616.05"><text x="10500" y="14850" transform="matrix(.94805 0 0 1-6586.77 573.12)">NN 1</text><text x="10500" y="14850" transform="matrix(.94805 0 0 1-6618.55 1142.05)">NN 2</text></g></g><path d="m14362 26325c1304 659 3784 532 4536-687 750-1215 580-4662 651-6352 178-4232 629-7441 745-10854 130-3790-2354-6295-5323-7001-4189-995-3941 4837-3359 7834 305 1610 908 3012 1293 4586 710 2904 67 7337 313 10359 127 1045 461 1738 1142 2114z" fill="#fff"/><g clip-path="url(#1)"><g stroke="#201e1e" stroke-linejoin="round" stroke-linecap="round" stroke-width="140"><g fill="none"><path d="m11491 4879c67-46-95 8-290 165m76 2296c106 128 228 260 369 398 0 0 940 506 2131 341 0 0 2062-82 1913-1812 0 0-66-400-447-835l-195-565"/><path d="m14617 4644c218-150 697-29 178 730"/><path d="m14173 4456c218-150 856-76 262 824"/><path d="m14066 4334c300 19 607 127 85 710"/><path d="m13693 4262c357 37 759 155 271 758"/><path d="m13507 4256c367-192 558 194 181 600"/><path d="m13094 4180c305-65 807 42 273 746"/><path d="m12748 4159c316-68 827-10 375 568"/><path d="m12252 4185c218-150 1120-17 565 588"/><path d="m12038 4232c218-150 870 42 432 706"/><path d="m11717 4314c218-150 787-194 400 588"/><path d="m11435 4354c276-116 854-106 376 749"/><path d="m11287 4487c271-47 614 68 323 628"/><path d="m11721 7776l-3 269c0 0-166 126-240 335"/><path d="m11584 8788l710 92c0 0 1509 47 1898 541"/><path d="m11718 8045l1774 423 143-372"/><path d="m13492 8468l145 627"/><path d="m14191 9421l528 1212c0 0 528 47 196 265 0 0 327 206 45 306 0 0 292 141 64 235l-2435-22"/><path d="m14961 11204l-2461-11"/><path d="m14916 10898l-2539-4"/><path d="m14719 10633l-2476-58"/><path d="m14287 9641c201-139-1660-885-2320 257"/></g><path d="m15103 11320c218-150 3493-135 2923 507-272 173-517 589-517 589 0 0-2417-1017-2406-1095z" fill="#fefefe"/><g fill="none"><path d="m18026 11826c218-150 1384-461 1586 140"/><path d="m19612 11966c-106 135-147 113-972 32 0 0 905 91 922 342 17 251-849-36-849-36l695 294c120 54 398 721-700 108 0 0 117-442-541-367-658 75-658 75-658 75"/><path d="m18707 12706l-468 92c0 0 1235 212 1053 530 0 0-639 177-1099-141 0 0 1150 424 811 659 0 0-343 47-1228-459 0 0 862 471 619 741 0 0-81 94-872-400 0 0 356 530 81 530 0 0-636-259-777-988l-3479-1200"/><path d="m17509 12415l-681 854"/><path d="m13922 12267l154 595c0 0-295 380-897 707"/><path d="m13814 13207l1373 6404c0 0 922-132 893 295 0 0 65 551-889 510l-918-83-11-606 925-116"/><path d="m15153 20412c705-35 1314 511-80 911l-2317-22"/><path d="m12812 20361c851-47 1051-75 1461-28"/><path d="m14262 19727l-821-6269"/><path d="m12246 6621c144 735 596 1036 1779 930"/></g><g fill="#201e1e"><path d="m13026 6068c94 0 175 66 182 147 7 81-64 147-158 147-94 0-175-66-182-147-7-81 64-147 158-147z"/><path d="m14037 6316c94 0 175 66 182 147 7 81-64 147-158 147-94 0-175-66-182-147-7-81 64-147 158-147z"/></g></g></g><g fill="#201e1e"><g stroke="#201e1e" stroke-linejoin="round" stroke-linecap="round" stroke-width="50"><path d="m13904 2145c20-2 38 4 53 18 15 14 25 34 27 58 4 35-1 64-15 86-14 22-33 34-57 37-20 2-38-3-53-16-15-13-24-32-27-55-4-34 3-65 19-93 12-21 30-32 53-35zm387 3c20 2 36 12 48 29 12 17 17 39 15 63-3 35-14 62-32 81-18 18-39 26-63 24-20-2-36-11-49-28-12-17-18-36-15-60 3-34 16-63 37-87 16-18 35-25 59-23zm363 54c20 4 35 15 46 34 11 18 14 40 10 64-6 35-19 61-38 77-19 17-41 23-65 18-20-4-35-15-46-32-11-18-14-38-10-61 6-34 21-61 44-83 17-16 37-22 60-17zm971-305l51 15c-48 75-118 200-209 373l-280 536c-5 11-9 22-11 32-4 14-2 27 6 37 8 11 35 27 80 48l-23 40c-49-26-100-47-155-63-50-14-119-29-208-43l21-41c48 10 83 13 105 8 22-5 42-17 60-35 18-19 43-59 76-122l159-306c-66 46-132 79-199 98-51 15-92 17-124 8-25-7-43-26-54-56-11-30-11-70 2-118 31-118 108-226 232-322 123-96 241-128 353-96 23 7 51 19 82 36l36-29zm-131 105c-33-21-63-36-90-44-44-13-87-10-128 7-41 17-85 59-132 123-46 64-79 131-97 201-8 31-8 57 1 77 8 21 22 34 42 40 17 5 42 2 74-11 60-23 107-50 143-82 25-22 57-70 95-142l91-168zm758 216l103 46-174 236c-101 137-156 216-165 237-4 10-4 18-2 25 2 7 6 12 12 14 8 4 19 4 34 1 20-5 62-21 125-48l12 38c-138 63-230 85-276 64-15-7-26-19-32-36-6-17-4-37 5-60 10-26 29-59 57-98-63 33-134 55-212 66-52 7-93 4-124-9-17-8-28-19-33-35-5-16-3-36 8-62 8-20 18-40 32-61 19-29 60-86 124-171 81-108 126-174 136-199 6-14 4-23-6-28-9-4-22-4-41-2-18 3-53 14-103 34l-20-40c88-32 153-50 194-54 41-4 72-2 93 7 12 5 19 14 23 26 4 12 2 28-6 47-14 35-66 113-155 235-80 110-123 173-130 191-4 11-5 21-1 32 4 10 9 17 17 21 27 12 74 5 142-20 68-25 121-64 160-117l202-278zm398 717l8 44c-168 55-293 60-375 17-33-17-53-42-59-75-6-33 3-75 27-127 50-105 129-193 239-265 124-82 233-98 328-49 33 17 54 39 63 66 9 27 7 55-8 85-15 32-40 58-76 77-36 20-88 32-158 37-35 2-106 1-215-4-17 24-31 48-42 72-16 35-23 62-19 81 4 19 16 34 36 45 19 10 43 15 71 16 38 1 97-6 179-22zm-194-234c92 4 166-4 223-25 39-15 65-36 78-64 10-21 13-40 8-59-5-18-15-31-32-40-17-9-37-11-60-6-31 7-62 24-94 53-47 43-88 89-123 140zm343 578l-99-64 156-159c76-78 147-154 212-226 16-18 25-30 28-35 6-11 5-19-5-25-7-4-20-6-39-5-20 1-58 9-116 24l-6-38c71-21 135-30 191-27 57 3 96 12 119 27 8 5 13 11 16 18 3 7 2 13-1 19-4 6-16 20-37 43l-102 108c88-46 175-77 262-93 42-8 72-6 90 6 13 9 22 20 26 35 4 15 2 28-5 40-7 13-18 21-32 24-14 3-42 0-83-10-40-9-75-12-105-9-30 3-67 14-112 32-44 18-78 36-103 55-24 19-73 67-145 145l-109 117zm997-97c40 34 60 78 61 134 1 56-21 113-66 173-72 95-169 154-290 176-121 22-217 3-288-57-43-37-67-81-71-134-4-53 14-105 53-157 68-90 156-152 263-188 133-43 246-26 337 52zm-89 5c-35-29-88-31-159-7-72 25-142 83-212 175-42 56-66 108-70 157-3 36 7 64 32 85 34 29 82 32 144 12 79-28 152-84 217-170 49-64 76-117 80-158 4-41-6-72-31-93zm828 716c33 34 53 67 58 100 6 32 0 57-16 75-10 11-22 16-37 16-15 0-28-5-39-16-7-7-12-15-14-24-2-9-2-25 1-48 5-45-1-76-19-94-15-16-35-23-58-23-23 0-43 10-60 28-15 16-26 36-32 58-6 23-10 67-11 131-1 89-21 154-60 196-38 42-89 61-151 58-62-3-120-32-173-86-45-46-69-89-73-130-4-41 7-76 32-104 13-14 27-21 44-22 17-1 31 5 43 17 10 11 16 23 17 38 1 15-3 27-12 37-4 4-9 9-15 15-5 5-9 9-12 13-12 13-17 29-15 49 2 19 12 38 29 56 20 21 41 35 63 44 22 8 44 9 66 3 22-6 40-16 53-31 13-14 22-32 27-55 5-23 8-64 10-126 3-86 24-150 62-192 35-39 81-57 138-56 56 1 107 25 153 72zm47 864l-12 43c-174-31-288-84-342-161-22-31-29-63-21-95 8-32 34-66 78-101 89-70 198-112 326-124 146-15 250 22 314 111 22 31 32 61 29 89-3 28-17 52-43 73-27 21-61 32-101 33-40 1-93-13-157-41-32-15-95-50-190-105-25 14-48 29-68 45-29 23-47 45-51 64-5 19 0 38 13 57 13 18 32 34 57 48 33 19 90 40 169 65zm-74-301c80 47 150 75 210 83 41 5 74-2 97-20 18-14 28-30 32-49 3-18 0-35-12-51-12-16-28-27-51-33-30-9-66-7-106 3-60 16-117 38-170 67zm65 676l-61-105 208-67c102-33 197-66 287-100 22-9 35-14 40-17 10-7 12-15 6-25-4-7-15-15-32-24-18-9-56-20-114-35l11-37c72 15 133 38 182 68 49 30 80 57 94 81 5 8 7 16 6 23-1 7-4 13-9 16-6 4-23 11-52 21l-138 47c98 2 189 16 273 43 40 13 66 29 77 48 8 14 11 29 8 44-3 15-11 26-22 33-12 8-25 10-38 6-14-4-37-20-70-49-31-28-61-47-89-59-28-12-66-20-113-25-47-5-85-5-115 0-30 5-94 25-192 60l-147 52zm1060 699c18 45 24 84 17 116-7 32-21 53-43 62-13 6-27 6-40 0-14-6-24-16-30-31-4-10-5-19-4-28 1-9 8-24 18-44 21-39 27-70 18-95-8-21-23-36-45-45-21-9-43-9-66 1-20 9-37 22-51 41-14 18-34 57-58 116-34 81-76 133-127 156-51 23-104 20-160-9-56-29-99-79-128-150-24-60-31-110-19-150 12-40 34-67 68-82 17-7 33-8 48-2 16 6 26 17 33 34 6 14 6 28 1 42-5 14-13 24-25 29-5 2-11 5-19 7-6 2-12 5-16 7-16 7-26 20-32 39-6 19-3 40 6 64 11 27 25 49 42 66 17 17 37 27 60 30 23 4 43 2 61-6 17-8 32-21 45-39 13-19 31-56 56-112 34-78 77-128 128-151 47-21 96-19 147 5 51 24 89 67 114 129zm-236 783l-24 37c-156-86-249-174-278-265-12-37-9-69 8-97 17-28 52-51 104-70 105-38 221-42 347-11 143 33 231 102 266 208 12 37 12 68 1 94-11 26-32 44-62 55-32 12-67 11-106-1-39-12-84-42-137-91-26-25-76-78-150-162-28 5-54 12-78 20-35 13-57 27-67 44-10 17-11 36-4 59 7 21 20 42 40 64 26 29 74 68 142 117zm18-311c62 71 121 120 175 147 38 18 71 22 99 12 21-8 36-19 45-36 9-16 10-34 4-52-6-19-19-35-39-48-26-18-60-29-102-32-62-5-122-2-181 9zm528 954l19 117-282-27c-164-16-256-23-278-19-10 2-17 6-21 11-4 6-6 12-5 18 2 9 7 20 17 31 15 16 50 44 106 85l-24 32c-125-89-192-159-201-210-3-17 1-33 12-48 10-14 27-24 50-28 27-5 63-6 109-2-60-39-116-89-167-153-34-42-54-81-60-115-3-19 0-35 10-48 10-13 28-22 53-27 20-4 42-5 66-4 34 1 102 7 204 18 130 14 207 18 232 14 14-3 21-9 19-20-2-10-9-22-20-37-12-15-40-39-82-73l21-40c73 61 123 109 148 143 25 34 40 63 44 86 2 13-1 24-8 34-8 10-21 16-40 20-35 7-126 3-271-11-131-12-205-16-222-13-11 2-19 7-26 16-6 9-9 17-8 26 5 30 36 69 92 115 57 47 117 73 180 79l331 30zm-126 719l31-32c57 50 98 100 125 149 27 50 40 92 40 128 0 14-3 24-10 33-6 8-16 12-29 12-15 0-31-2-47-5-16-4-54-15-113-34 79 84 129 142 147 173 32 52 47 99 47 142 0 28-13 51-38 71-25 19-63 28-113 28-126 0-245-42-359-125-113-83-170-175-169-276 0-39 10-79 30-118l-257-71c-15-4-28-7-38-7-19 0-33 7-42 23-13 24-24 73-32 149l-38-11c7-88 10-158 10-208 0-52-3-120-9-203l38 11c4 42 15 72 33 91 18 19 49 34 94 46l592 151c110 28 172 43 184 43 14 0 20-7 20-20 0-24-33-70-99-138zm-370 164c-41 43-62 88-62 134 0 66 48 124 146 174 97 50 192 75 284 76 30 0 52-7 68-21 15-14 23-33 23-56 0-26-12-56-37-90-38-51-75-90-113-118-27-19-74-38-140-55l-169-44zm539 1158l8 56-195-71c-77-28-167-56-269-83-55-15-91-22-107-23-16-1-24 6-25 19 0 8 4 23 14 42 17 35 39 68 66 100l-32 25c-51-65-81-106-92-125-21-36-36-70-46-102-6-21-9-42-8-61 1-14 4-25 11-32 6-7 16-10 28-9 8 0 18 3 32 8l103 38c-51-50-95-109-130-176-22-41-32-78-31-112 1-32 13-56 35-72 30-22 68-31 114-29 55 3 116 21 182 55 66 35 126 79 179 134 53 55 91 111 115 170 18 45 25 103 22 172-1 18-3 35-6 53l30 21zm-116-108c7-29 11-54 12-74 2-49-9-93-33-131-24-38-69-74-134-109-65-35-132-54-198-57-35-2-61 3-77 15-16 12-25 28-26 48-2 38 16 79 53 124 37 45 91 80 163 103l241 80zm-571 374l7-123 207 70c101 34 198 65 289 91 23 6 37 10 42 10 12 1 18-5 19-17 0-8-4-21-14-39-10-18-35-50-75-97l29-24c51 56 88 111 112 166 24 54 35 95 33 123-1 10-3 18-8 23-5 6-10 8-16 8-7 0-25-5-53-14l-138-45c79 60 146 127 201 200 26 35 39 64 37 86-1 17-7 30-17 40-11 10-23 15-36 14-14-1-26-7-35-18-9-11-20-39-31-82-11-42-25-75-41-102-17-27-43-56-79-89-36-33-67-56-94-70-27-14-90-36-190-67l-149-46zm227 579l2-47c246 51 454 89 625 114 10 1 17 4 21 9 7 9 13 25 17 48 7 38 11 65 10 79-1 12-6 17-17 16-7 0-17-3-29-8-19-8-103-37-250-87l-379-123zm-87-49c-1 21-10 39-26 52-16 14-36 20-59 19-34-2-59-12-78-30-18-18-27-40-25-66 1-21 9-39 24-52 15-14 34-20 56-19 32 2 60 14 84 35 17 16 25 36 24 61z" fill-rule="nonzero"/><text x="10500" y="14850" font-family="&apos;Monotype Corsiva&apos;" font-style="italic" font-size="1296.55" transform="matrix(.96954 0 0 1 4280.43 7674.33)">Texto 01</text><path d="m16732 23180c0 14-5 29-15 44-10 15-22 22-36 22-17 0-25-10-25-29 0-4 1-9 2-15 1-6 2-11 2-14 0-15-9-23-28-23-31 0-89 39-175 117-19 18-74 72-165 164 44 62 66 120 66 173 0 67-26 124-77 172-51 47-110 71-175 71-20 0-40-5-60-15-24-12-36-28-36-48 0-2 1-4 3-6 16 34 47 51 93 51 52 0 96-20 131-60 35-40 53-88 53-142 0-52-13-104-39-158-94 78-171 118-232 118-37 0-55-16-55-48 0-68 75-137 225-207-6-21-9-43-9-66 0-33 11-64 34-94 22-30 50-45 82-45 28 0 42 16 42 48 0 45-36 94-109 147 18 36 36 69 55 97 110-112 170-173 181-182 88-79 157-119 208-119 40 0 60 16 60 49zm-412 17c0-22-10-32-30-32-21 0-38 13-52 39-14 26-21 51-21 75 0 14 2 29 7 43 64-47 96-89 96-125zm-78 270c-23-40-39-76-49-109-49 35-81 59-96 72-42 37-63 70-63 98 0 19 12 29 37 29 40 0 97-30 171-90z" fill-rule="nonzero"/><g font-family="&apos;Monotype Corsiva&apos;" font-style="italic"><text x="10500" y="14850" font-size="1346.4" transform="matrix(.96954 0 0 1 4056.58 10159.1)">Texto 02</text><text x="10500" y="14850" font-size="817.13" transform="matrix(.94805 0 0 1 4870.46 11346.6)">00.00.0000</text></g></g><g font-family="&apos;Arial Black&apos;" font-weight="900" font-size="616.05"><text x="10500" y="14850" transform="matrix(.94805 0 0 1 5655.8 573.12)">NN 1</text><text x="10500" y="14850" transform="matrix(.94805 0 0 1 5624.02 1142.05)">NN 2</text></g></g><g fill="#373435" font-family="&apos;Arial&apos;" font-weight="normal" font-size="423.33"><text x="4052" y="27966">DESC 1</text><text x="4052" y="28478">DESC 2</text><text x="4052" y="28972">DESC 3</text></g></svg>