<svg xmlns="http://www.w3.org/2000/svg" width="744.09" height="1052.36" viewBox="0 0 21000 29700" shape-rendering="geometricPrecision" image-rendering="optimizeQuality" fill-rule="evenodd" clip-rule="evenodd"><defs><clipPath id="0"><path d="m5882 3008c-1549-41-4030 1189-4035 4120-1 783 312 3389 387 4423 89 1240 155 3005 183 4262 12 1087 271 1717 768 1972 661 223 1348 289 2071 126 748-185 1120-763 1130-1932-28-1509-217-4121 76-5492 380-1776 859-2008 1043-4147 111-1287 71-3287-1623-3331z"/></clipPath><clipPath id="1"><path d="m15122 3043c1538-41 4000 1189 4006 4120 1 783-310 3389-384 4423-89 1240-154 3005-181 4262-12 1087-269 1717-762 1972-656 223-1338 289-2056 126-743-185-1111-763-1122-1932 28-1509 215-4121-76-5492-377-1776-853-2008-1036-4147-110-1287-70-3287 1611-3331z"/></clipPath></defs><text x="10011" y="19315" fill="#201e1e" font-family="&apos;Arial Black&apos;" stroke="#201e1e" font-weight="900" stroke-width="7.62" font-size="705.56">26</text><g fill="none" stroke-width="80"><g stroke="#322f30"><circle cx="10533" cy="1326" r="460"/><path d="m10533 515v1621"/><path d="m9723 1326h1621"/></g><g stroke="#373435"><path d="m10463 19875v1621"/><circle cx="10463" cy="20686" r="460"/><path d="m9652 20686h1621"/></g></g><g fill="#fff"><rect x="9843" y="17476" width="1347" height="637" rx="318" stroke="#fff" stroke-width="20"/><path d="m5882 3008c-1549-41-4030 1189-4035 4120-1 783 312 3389 387 4423 89 1240 155 3005 183 4262 12 1087 271 1717 768 1972 661 223 1348 289 2071 126 748-185 1120-763 1130-1932-28-1509-217-4121 76-5492 380-1776 859-2008 1043-4147 111-1287 71-3287-1623-3331z"/></g><g clip-path="url(#0)"><g fill="#201e1e" stroke="#201e1e" stroke-width="7.62"><path d="m7104 5303c15 34 26 40 64 33 22 34 48 39 69 38 32-2 57-29 65-75-46 16-61 21-85-18 12-58-17-103-88-103-185 1-166 300-1 323 236 32 424-209 311-409 26-28 10-57-9-84 0 29 4 26-17 48-23-39-35-59-99-92 0 0-2 13 4 19 72 63 119 178 107 269-6 44-27 88-66 130 19-149-4-259-74-339-72-83-172-148-299-212-134-67-222-107-301-239-34-56-47-121-44-183 3-60 18-128 86-181 16 20 31 39 47 59 29-40 86-81 140-72 48 8 75 34 86 66 24 70-31 168-123 165 137 70 254 1 256-121 2-139-104-265-249-270-106-3-201 70-245 142-107 177-27 366 71 487-155-35-290-55-427-2-81 32-146 116-195 151-28 1-44-2-55-9-15-9-22-27-37-57-26 68 6 110 76 122-81 54-178 87-268 25-35-24-49-57 9-87 1-25 2-36-3-41-19-16-38-9-53 5-54 50-38 120 20 161 64 46 148 49 219 25-8 10-16 20-24 30-56-3-91-12-141 19 28 6 46 14 76 27-63 53-106 91-97 177 106 3 129-64 155-152 14 22 14 34 22 62 33-42 29-70 10-116 7-16 22-32 29-47 17-16 34-32 52-47 6 89 37 143 86 215 51 49 98 82 152 89 94 13 165-10 209-52 56-55 67-144 24-237-23-23-23-131 61-128 15 0 30 11 45 35 35-46-4-87-53-87-40 0-88 28-107 106-46-24-95-26-136-14-62 18-109 68-106 129 3 71 50 118 108 124 81 8 113-53 103-95-10-43-67-53-81-9 17 36 5 57-15 60-27 4-68-26-67-96 5-52 49-77 105-75 44 2 73 17 93 39 91 101 39 265-101 268-68 2-124-13-166-44-64-47-94-108-101-169-14-122 51-208 144-255 168-84 419-32 561 75-285 34-309 383-50 418 60 8 143-41 151-101 11-87-53-135-130-139 58 61 38 142-6 145-54 4-86-81-102-121-12-5-24-9-36-14 5-115 120-146 227-139 52 3 103 15 139 30 98 42 186 97 249 191 34 51 57 111 61 185 0 47-5 89-20 122-22 48-66 78-149 79-5-23-8-30-25-47-12 13-15 22-21 38-23-3-45-16-59-35-17-23-25-53-13-85 13-10 26-19 39-29-12-7-25-20-37-26 11-17 25-31 40-38 23-12 41-7 52 4 22 21 19 67-39 59zm-320-974c35 2 62 32 60 66-2 34-33 60-69 57-35-2-62-32-60-66 2-34 33-60 69-57zm16 200c30 2 53 27 51 56-2 29-28 51-58 49-30-2-53-27-51-56 2-29 28-51 58-49zm109 127c24 2 43 22 41 46-2 24-23 41-47 40-24-2-43-22-41-46 2-24 23-41 47-40zm125 84c19 1 33 17 32 35-1 18-18 32-37 31-19-1-33-17-32-35 1-18 18-32 37-31zm104 73c14 1 24 12 23 25-1 13-13 23-26 22-14-1-24-12-23-25 1-13 13-23 26-22zm86 74c10 1 18 9 18 19-1 10-10 18-20 17-10-1-18-9-18-19 1-10 10-18 20-17zm-617-295c-56-115-112-220-233-286-151-83-285-55-432 3 94 23 161 50 240 108 31 28 62 56 93 84 111 86 195 108 332 92zm-408 44c79 35 134 20 210 4-49-48-83-82-134-98-83-25-228 31-241 119 56-20 103-37 165-26zm278 203c-22-36-33-69-78-84-49-16-96 5-141 20 29 6 50 11 69 22 27 16 30 20 55 31 25 11 58 12 95 11zm-251 660c-30-40-51-84-62-136 11-122-1-191-98-281-95 193-29 322 160 417zm130-170c114-125 219-151 353-35-81 37-133 55-219 31-47-9-90-7-134 3zm274 34c-36-6-63-7-88-1-84 19-122 75-127 138-2 35 6 73 22 108 7-95 48-121 136-131 48-42 48-51 56-113zm-484-1054c111-11 215-1 297 84 26 27 44 61 58 114-97-138-184-176-355-199zm487 950c-54-26-128-38-194 15 74-26 127-29 194-15zm-506 139c-61-76-74-125-68-221 8 81 30 151 68 221zm199-805c-39-34-94-52-182-24 66-1 118 1 182 24zm-391 486c-15 38-32 85-73 100 15-53 26-73 73-100zm510 2340c-1 52-12 65-65 76-11 55-41 75-70 84-43 13-90-9-125-65 68-3 91-3 101-66-47-69-34-143 59-179 241-92 379 307 176 420-290 161-665-60-626-377-49-23-44-69-34-114 16 38 10 36 48 53 9-63 14-94 79-170 0 0 10 16 5 26-59 118-59 292 7 403 32 54 82 101 157 136-105-184-135-340-88-479 49-145 144-280 275-426 138-154 231-251 262-462 13-90-4-181-42-260-36-76-92-157-209-192-10 33-19 67-29 100-60-37-156-63-221-24-58 34-79 82-76 129 7 103 132 204 249 153-140 160-330 129-399-30-79-180-8-398 177-476 136-58 299-10 396 63 235 176 234 463 172 670 183-123 348-217 555-217 123 1 252 78 336 99 36-13 56-24 67-39 14-20 15-46 18-93 71 76 52 147-33 197 135 30 279 25 363-102 32-49 33-99-59-108-15-32-23-46-18-55 16-30 44-31 72-20 98 38 114 137 61 220-59 92-166 138-272 143 16 9 32 18 48 26 71-32 112-61 193-46-33 22-52 41-85 73 111 37 187 65 223 182-137 56-203-18-285-120-6 35 0 51 5 91-66-38-76-77-75-146-18-17-45-30-63-47-31-12-62-24-93-36 40 119 29 205 5 323-39 89-83 156-149 192-116 64-220 70-301 37-103-44-166-154-160-297 18-41-41-182-149-137-19 8-33 29-40 68-70-42-42-116 21-140 53-20 130-7 197 85 47-54 109-82 170-87 91-8 179 34 208 115 34 94-1 179-73 215-102 51-177-13-186-72-10-61 58-103 100-52-3 56 25 77 52 71 37-8 75-68 36-159-35-65-105-76-177-45-56 24-86 59-100 97-63 177 92 364 276 298 89-32 155-80 192-140 58-93 64-188 40-270-48-166-179-245-325-259-264-25-563 168-690 380 389-98 611 344 292 519-74 41-208 19-251-56-62-108-4-202 94-246-42 109 28 204 87 186 72-22 68-148 68-209 13-12 26-24 40-36-69-147-235-130-371-67-67 30-126 72-164 109-105 104-189 220-221 374-17 83-13 173 21 272 26 61 55 113 92 148 55 52 129 69 236 28-6-33-5-43 7-74 22 11 31 21 48 39 28-15 49-44 58-76 10-38 4-82-29-118-22-6-44-12-67-18 11-14 22-38 33-52-23-16-49-27-73-30-36-3-57 12-66 31-16 39 12 97 83 57zm-111-1429c-45 21-64 73-42 116 22 43 76 61 121 40 45-21 64-73 42-116-22-43-76-61-121-40zm87 268c-38 18-54 62-36 98 18 37 64 52 102 34 38-18 54-62 36-98-18-36-64-52-102-34zm-74 220c-31 14-44 50-29 80 15 30 52 42 83 28 31-14 44-50 29-80-15-30-52-42-83-28zm-117 172c-24 11-34 39-23 62 12 23 41 33 65 22 24-11 34-39 23-62-12-23-41-33-65-22zm-96 146c-17 8-24 28-16 44 8 16 29 23 46 15 17-8 24-28 16-44-8-16-29-23-46-15zm-73 139c-13 6-19 21-12 34 6 13 22 18 36 12 13-6 19-21 12-34-6-13-22-18-36-12zm644-694c10-178 27-342 148-490 151-184 342-214 565-213-110 76-183 146-254 260-25 52-51 104-76 156-98 167-196 238-382 287zm556-147c-84 86-164 93-272 110 38-87 63-148 122-194 94-74 314-74 379 35-84 2-155 4-228 49zm-253 404c9-58 6-107 56-148 55-45 127-41 194-44-35 22-60 40-78 63-27 34-28 41-54 68-27 27-69 44-118 62zm684 734c17-67 21-135 7-208-81-154-103-249-25-415 228 204 213 405 17 623zm-261-156c-216-105-367-87-478 132 125 8 203 5 302-69 56-35 113-54 176-63zm-338 182c44-25 79-41 114-46 120-17 200 36 240 116 22 45 32 98 29 152-61-121-128-134-249-103-85-31-90-42-134-120zm59-1615c-151 41-280 106-341 259-19 48-25 102-13 178 52-228 144-322 354-437zm-119 1481c56-62 146-114 261-78-110 3-181 26-261 78zm733-73c39-130 29-199-32-322 34 110 43 212 32 322zm-696-949c33-64 95-115 223-123-86 31-154 61-223 123zm773 436c39 42 88 94 149 94-48-62-73-82-149-94zm-1498-2478c26 28 39 31 73 12 33 26 59 23 79 15 30-12 45-46 37-92-39 29-52 40-88 9-8-59-51-94-120-72-178 58-59 340 108 311 238-42 338-333 162-490 16-35-10-58-37-78 10 28 12 24-1 51-36-30-54-46-127-58 0 0 3 13 10 17 90 38 175 135 193 225 9 44 4 93-20 146-32-149-91-248-185-304-98-58-216-89-359-111-151-23-250-34-370-137-51-44-86-102-104-162-17-58-26-128 22-201 22 14 43 28 65 42 15-47 55-105 110-113 49-7 84 9 105 37 47 60 27 172-63 197 155 25 245-78 206-196-44-135-189-223-330-183-103 30-170 129-188 213-44 203 96 361 232 447-161 14-298 37-412 131-67 56-101 157-137 206-26 9-43 12-56 9-17-4-31-19-55-44-2 74 43 104 114 94-59 77-142 139-250 107-42-12-66-40-20-86-7-25-10-36-17-38-24-9-40 3-50 21-35 65 4 127 74 149 77 24 159 2 220-44-4 12-9 24-13 36-55 14-92 17-129 62 29-3 49-1 82 2-43 71-71 120-34 201 103-31 103-102 98-195 21 17 25 28 42 53 18-51 4-77-30-114 2-17 10-37 12-54 11-21 22-41 34-62 36 84 84 126 155 181 65 32 122 49 176 39 95-17 156-61 184-115 36-71 16-160-57-236-30-14-66-119 16-143 14-4 33 1 55 19 18-55-33-83-80-68-39 12-75 55-68 136-52-9-100 4-136 29-54 37-82 100-59 157 27 67 88 98 145 86 81-18 91-87 67-124-24-38-82-30-81 16 29 30 24 53 6 62-25 12-74-4-97-72-12-52 21-89 76-105 43-12 76-7 103 9 121 69 127 243-7 289-65 23-124 26-174 10-77-25-127-75-154-131-54-113-21-216 53-290 133-133 392-161 566-102-262 122-169 465 92 418 60-11 124-84 111-144-18-88-96-114-172-93 76 41 84 125 43 142-51 20-110-51-139-85-13-1-26-1-39-2-34-113 66-177 172-204 52-13 105-17 144-14 108 10 212 36 304 107 50 38 92 90 121 160 16 45 25 87 22 124-5 53-37 96-117 122-13-21-18-26-40-38-7 16-7 26-7 43-23 4-48-2-69-16-24-16-42-44-41-78 9-13 19-27 28-40-13-3-31-11-44-14 5-19 14-37 26-49 18-18 38-19 52-12 28 14 41 59-18 69zm-636-838c35-9 71 11 80 45 9 34-12 68-47 77-35 9-71-11-80-45-9-34 12-68 47-77zm83 187c30-7 60 10 67 38 8 28-10 57-40 65-30 7-60-10-67-38-8-28 10-57 40-65zm148 88c24-6 49 8 55 31 6 23-8 47-32 53-24 6-49-8-55-31-6-23 8-47 32-53zm149 42c19-5 38 6 43 24 5 18-6 36-25 41-19 5-38-6-43-24-5-18 6-36 25-41zm124 38c13-3 27 4 30 17 3 13-5 26-18 29-13 3-27-4-30-17-3-13 5-26 18-29zm108 44c10-3 21 3 24 13 3 10-3 20-14 23-10 3-21-3-23-13-3-10 3-20 14-23zm-693-92c-92-94-181-177-320-203-173-33-293 36-415 137 98-7 172-2 267 29 39 17 79 34 118 51 135 48 224 43 351-14zm-378 169c88 9 136-23 204-62-63-31-107-53-162-52-88 2-209 101-192 190 47-36 87-68 150-76zm336 109c-33-28-56-56-103-56-52 0-90 35-129 63 30-3 52-5 73 0 31 7 36 10 63 13 28 3 60-7 95-19zm-19 714c-42-29-78-65-106-111-30-121-65-184-189-240-26 215 80 319 295 352zm68-204c68-155 160-214 328-143-65 61-110 94-200 98-48 6-89 21-127 45zm275-52c-37 6-63 13-85 26-75 45-93 110-76 172 10 35 30 69 58 97-25-94 5-132 87-169 32-55 29-64 16-126zm-820-864c103-45 206-68 314-11 34 18 63 45 94 92-140-102-237-112-408-81zm788 763c-61-9-136 3-182 75 62-48 113-67 182-75zm-440 291c-85-54-113-97-140-192 35 76 80 136 140 192zm-79-837c-49-21-108-21-183 33 63-22 114-36 183-33zm-214 589c-1 41-3 92-36 119-4-56 0-78 36-119zm635 6198c8-12 26-29 49-38 44-17 98 8 92 58-10 78-101 87-160 66-155-53-231-186-244-317-52-515 347-929 693-1292 43-45 79-94 115-140 88-138 138-272 147-437-102-27-188-105-232-189-21-39-32-82-32-124 1-123 94-177 210-114 121 65 164 260 162 393 33 10 81 7 105 2 32-136 33-262 18-388-16-133-61-263-39-398 18-113 80-203 205-280-91 86-126 146-155 270-12 70-10 136-1 200 10 78 28 156 38 239 14 109 5 220-6 339 143-70 253-176 280-336 18-102 1-179-42-270-29-1-48-4-68-10-46-15-116-72-88-126 15-28 44-38 75-38 38 1 80 16 102 38 52 53 75 130 80 211 15 286-105 512-347 601-93 274-200 497-427 680-53 35-107 71-160 106-118 76-187 162-279 267-101 142-185 287-258 444-57 172-104 368 24 524 34 42 79 69 142 61zm897-2076c-34 6-68 6-101 1-35 178-94 319-193 465 144-125 228-286 294-467zm-184-90c-3-110-22-286-137-320-59-17-84 5-86 65-3 113 143 241 223 255zm-341-151l-166 185-234-96 132 209-167 185 248-56 131 210 21-244 248-55-235-95 22-244zm-270 633l-154 108-154-108 59 174-154 107h190l58 174 59-174 190 1-154-107 59-174zm-242 438l-107 71-102-76 37 119-107 70 129 3 36 120 43-117 129 4-103-76 44-117zm-117 381l-72 45-67-52 22 80-73 45 86 4 22 80 31-77 86 5-67-52 31-77z"/><path d="m3227 16288c-34-32-50-34-90-9-42-28-74-23-98-11-35 17-51 59-37 115 45-39 59-52 106-18 15 71 71 110 152 77 211-86 40-418-160-368-285 72-378 433-150 609-16 43 17 69 52 92-14-33-17-28-4-62 46 34 70 51 159 59 0 0-4-16-14-19-113-39-225-148-255-257-15-53-13-112 11-179 53 178 134 293 253 352 124 61 270 90 446 103 186 14 306 20 461 133 66 49 114 116 141 188 27 69 43 153-8 245-27-15-55-31-82-46-14 59-57 132-123 147-58 13-102-4-131-35-62-69-49-206 58-244-191-17-289 116-231 256 66 159 251 254 417 193 122-45 194-172 208-275 34-250-151-429-323-522 194-31 357-71 487-194 76-74 108-199 147-261 31-13 50-18 67-15 22 4 39 20 71 48-4-89-62-123-147-104 65-99 159-181 293-152 52 11 84 42 33 103 11 29 15 42 24 45 30 9 48-7 58-30 37-82-17-154-104-174-96-22-193 12-262 73 4-15 9-30 13-45 65-22 109-28 151-86-35 6-59 5-100 5 45-89 75-152 23-246-122 46-115 132-101 245-26-19-33-32-56-60-17 63 2 93 47 136-1 21-9 46-10 67-12 26-23 52-35 78-52-99-114-146-205-206-82-33-153-48-217-32-113 29-183 87-212 156-37 89-5 195 91 281 38 15 91 138-6 174-17 6-40 1-69-19-17 68 48 98 104 75 46-19 86-73 69-170 64 6 121-14 162-47 62-49 90-128 56-196-39-79-116-112-184-92-97 28-103 113-70 156 33 44 103 30 97-27-38-33-34-63-13-75 29-17 90-2 124 78 20 62-17 110-82 134-51 18-92 15-126-1-154-74-177-283-19-351 76-33 148-42 211-27 96 24 161 80 199 146 76 132 46 260-37 356-149 173-460 230-676 172 307-170 161-579-151-499-72 18-143 112-121 185 31 105 127 129 217 98-96-43-114-145-65-168 60-29 138 53 177 91 16 0 32-1 48-1 51 134-64 221-189 263-61 21-125 30-173 29-132-3-260-25-378-103-64-42-120-101-162-183-23-53-38-103-38-148 1-65 36-119 130-158 18 24 24 30 52 42 7-21 6-32 5-53 27-7 59-2 85 13 31 18 55 49 58 91-10 17-20 34-30 51 16 2 38 11 55 13-4 24-13 46-27 62-20 24-44 27-61 19-35-14-55-68 15-85zm849 961c-42 14-87-8-101-48-14-40 8-83 50-97 42-14 87 8 101 48 14 40-8 83-50 97zm-118-220c-35 12-73-7-85-40-12-34 7-71 42-82 35-12 73 7 85 40 12 34-7 71-42 82zm-188-94c-29 9-60-5-70-33-10-28 6-58 34-67 29-9 60 5 70 33 10 28-6 58-34 67zm-184-38c-22 7-46-4-54-26-8-21 4-45 27-52 22-7 46 4 54 26 8 21-4 45-27 52zm-154-35c-16 5-33-3-38-18-5-15 3-32 19-37 16-5 33 3 38 18 5 15-3 32-19 37zm-135-44c-12 4-26-2-30-14-4-12 2-25 15-29 12-4 26 2 30 14 4 12-2 25-15 29zm850 52c121 105 237 199 408 219 213 25 352-69 491-203-118 17-208 17-327-12-49-17-99-35-148-52-169-46-276-33-424 48zm443-238c-108-4-162 39-241 92 79 32 135 55 201 49 106-9 244-140 215-247-54 48-99 90-175 105zm-418-103c43 31 73 64 130 60 64-5 106-50 150-88-36 7-63 11-89 7-39-6-44-9-78-10-34-1-72 13-114 32zm-43-867c54 32 100 72 138 126 48 145 96 218 252 275 12-263-127-380-390-401zm-63 253c-68 194-174 273-384 202 73-79 124-124 234-136 57-12 105-34 150-65zm-329 87c44-10 76-22 101-39 86-61 102-142 75-215-15-41-43-81-79-112 40 112 6 160-90 212-34 70-29 80-7 155zm1075 977c-121 64-244 100-380 41-43-19-81-49-123-103 179 112 297 116 503 63zm-1027-857c75 5 165-16 214-106-71 64-130 92-214 106zm507-391c108 58 146 108 187 221-50-89-110-158-187-221zm174 1009c62 21 133 16 219-56-74 32-135 53-219 56zm204-733c-2-50-5-112 33-148 10 67 7 95-33 148zm-1745-2430c-25-60-19-80 37-116-15-67 9-104 38-127 42-34 107-31 175 16-77 35-103 46-81 122 88 57 110 148 22 231-229 216-584-175-409-397 250-316 787-238 900 141 67 3 84 59 95 114-37-36-29-37-81-39 21 76 31 114-6 230 0 0-19-14-18-28 9-161-79-359-208-456-63-47-144-77-247-83 211 161 323 324 338 505 16 187-25 385-101 611-81 239-138 392-69 646 30 109 95 204 177 277 79 70 183 136 334 123-6-42-12-85-17-127 86 14 209 0 264-74 49-66 49-130 23-182-59-115-251-172-360-60 79-247 311-298 469-150 179 169 208 449 35 624-126 128-335 149-482 111-355-93-497-419-529-684-146 225-288 407-524 502-140 55-326 27-431 42-35 32-52 53-57 76-7 29 6 59 26 114-118-53-132-143-61-239-168 27-329 100-362 283-13 70 12 127 121 96 33 30 49 42 48 54-3 42-35 56-72 56-130 1-199-104-179-223 22-131 120-234 239-288-23-3-45-5-68-8-65 69-97 121-197 141 27-40 39-71 60-122-145 8-245 12-344-104 128-127 240-72 384 6-11-43-25-59-51-102 94 13 125 53 158 131 29 11 67 14 95 24 41-1 82-1 124-2-105-117-135-220-166-366 0-120 17-216 74-288 100-126 216-182 324-180 139 2 266 99 330 264 0 55 137 188 238 87 18-18 23-49 12-96 101 16 106 112 46 170-50 48-144 68-267-6-27 83-84 143-150 177-100 51-221 43-294-35-85-91-88-205-24-279 90-105 207-67 248-4 41 65-15 144-88 106-25-65-66-76-94-57-38 27-51 111 38 197 73 58 158 38 224-31 52-54 69-107 66-157-16-231-286-373-463-213-85 77-137 162-149 248-20 132 21 243 89 326 137 166 326 197 499 146 313-93 557-450 596-750-394 291-866-110-591-456 64-80 228-117 314-52 124 94 106 228 16 323-6-143-133-220-192-172-71 59-3 200 27 269-9 20-18 39-27 59 152 136 332 40 456-94 61-65 108-140 133-200 67-166 106-338 65-527-22-103-71-203-160-300-59-58-118-104-179-127-89-34-181-19-283 77 23 35 27 46 29 88-31-3-46-9-74-23-24 30-35 72-28 113 7 48 37 95 92 121 28-3 57-7 85-10-6 22-6 54-12 75 35 8 69 8 98 0 43-13 60-40 59-66-1-52-62-106-122-27zm837 1575c41-44 36-112-10-151-46-39-117-35-157 9-41 44-36 112 10 151 46 39 117 35 157-9zm-233-266c34-38 31-95-8-128-39-33-99-30-133 8-34 38-31 95 8 128 39 33 99 30 133-8zm-26-284c28-31 25-77-7-105-32-27-81-24-109 7-28 31-25 77 7 105 32 27 81 24 109-7zm48-250c22-24 19-60-5-81-25-21-62-19-84 5-22 24-19 60 5 81 25 21 62 19 84-5zm36-211c16-17 14-43-4-58-18-15-44-13-60 4-16 17-14 43 4 58 18 15 44 13 60-4zm13-192c12-13 11-33-3-45-14-12-34-10-46 3-12 13-11 33 3 45 14 12 34 10 46-3zm-388 1086c77 207 140 402 75 625-80 279-282 401-537 502 87-137 136-250 160-413 3-71 6-142 9-212 28-235 104-362 292-502zm-559 424c53-136 140-181 254-251 0 116 2 198-42 277-70 127-320 228-448 135 94-41 174-75 236-161zm87-576c19 71 47 125 10 194-40 77-124 106-199 140 29-41 48-73 57-107 13-51 11-60 28-102 17-43 56-82 104-125zm-1144-521c14 84 43 164 95 240 169 138 241 237 235 462-361-127-444-363-330-702zm375 58c298 20 462-70 478-370-146 49-233 88-310 218-47 65-102 113-169 152zm294-363c-37 49-70 82-107 104-128 75-245 51-331-22-48-41-85-97-109-159 129 109 212 94 334 2 112-4 123 7 212 74zm737 1865c151-116 266-250 259-452-2-64-23-127-73-209 55 283-4 433-186 660zm-602-1740c-33 96-110 197-258 209 124-54 193-113 258-209zm-799 421c21 166 67 240 196 352-93-110-154-222-196-352zm1265 760c-5 88-50 175-193 242 83-75 145-140 193-242zm-1097-140c-66-29-147-67-217-38 85 49 124 60 217 38zm2939 2131c-44-20-59-17-89 20-50-14-79 1-98 20-28 28-29 73 3 122 30-51 39-69 96-50 38 64 105 84 172 27 174-148-102-415-277-304-250 157-219 535 60 633-1 47 40 61 81 72-25-28-26-22-25-59 56 18 84 27 173 8 0 0-10-14-20-14-122-2-266-73-332-168-32-46-51-104-50-175 110 155 227 241 362 261 140 21 290 2 464-39 184-44 301-76 489-15 80 26 149 77 199 137 49 58 93 134 75 238-32-6-63-12-95-19 6 61-11 145-69 179-52 30-100 28-138 6-83-47-116-183-26-253-189 43-240 201-136 318 118 133 327 167 467 56 103-81 129-225 108-329-51-252-289-366-487-402 176-90 320-179 404-339 48-95 37-225 54-297 25-22 43-33 60-36 22-3 44 7 85 24-34-85-101-99-177-54 29-116 92-224 231-237 54-5 95 15 66 89 21 25 29 36 38 36 32 0 44-21 46-47 8-91-68-143-158-136-100 8-182 71-228 151-1-16-2-32-3-47 55-42 96-61 116-130-31 17-55 23-94 36 14-100 21-170-61-244-102 82-67 163-15 267-32-10-43-20-74-41 5 66 33 89 91 116 7 21 7 47 13 67-3 29-5 57-8 86-83-79-159-105-267-134-90-6-163 1-220 37-99 63-147 141-152 216-6 97 61 190 182 242 41 3 134 105 53 170-14 11-38 14-72 3 7 71 79 79 125 40 38-32 59-97 9-186 64-14 112-51 141-95 43-67 44-151-12-206-64-64-149-72-208-31-83 57-61 141-15 172 46 32 109-3 84-56-47-21-54-50-38-68 22-25 86-30 146 37 40 54 21 111-34 154-43 33-84 43-121 38-173-23-265-218-136-333 62-55 129-87 194-91 100-7 181 27 240 79 118 104 131 236 84 354-86 213-366 364-593 376 238-259-39-607-313-434-63 40-100 152-55 216 65 91 166 85 242 27-107-12-158-104-120-142 48-47 151 8 201 32 15-5 30-11 46-16 94 113 13 232-94 312-52 39-110 68-157 82-128 38-259 57-399 19-76-21-149-60-217-126-40-44-72-88-86-131-21-63-5-126 72-192 25 18 33 21 65 25 0-22-4-32-13-53 24-15 56-20 87-14 36 7 69 30 86 70-4 19-8 39-12 58 16-3 41-1 57-4 4 24 3 49-5 68-12 29-33 39-53 38-39-3-76-48-14-86zm1141 662c-35 26-86 20-113-15-27-34-20-83 15-109 35-26 86-20 113 15 27 34 20 83-15 109zm-188-175c-30 22-73 17-96-12-23-29-17-70 13-92 30-22 73-17 96 12 23 29 17 70-13 92zm-212-32c-24 18-59 13-78-10-19-24-14-57 10-75 24-18 59-13 78 10 19 24 14 57-10 75zm-190 21c-19 14-46 10-61-8-15-18-11-44 8-58 19-14 46-10 61 8 15 18 11 44-8 58zm-160 14c-13 10-33 7-43-6-10-13-8-32 6-41 13-10 33-7 43 6 10 13 8 32-6 41zm-145 0c-10 8-25 6-33-4-8-10-6-24 4-32 10-8 25-6 33 4 8 10 6 24-4 32zm835-214c152 64 295 118 466 84 214-42 316-176 404-348-108 53-195 82-318 90-53-1-107-3-160-4-178 8-277 54-392 178zm347-367c-105 30-143 88-201 164 87 6 149 11 210-15 99-42 188-211 124-305-36 63-65 117-133 155zm-437 31c52 17 91 39 145 17 60-24 86-81 115-131-33 18-57 30-83 34-39 7-45 5-78 14-33 10-65 35-99 66zm-333-821c62 14 121 38 176 78 95 124 165 180 335 186-77-257-250-327-510-265zm24 263c0 208-76 317-302 314 44-99 78-158 179-204 51-29 90-65 123-110zm-287 186c39-23 65-44 84-69 63-85 51-168 0-231-28-35-68-64-114-84 76 95 60 152-15 232-9 78-1 86 45 151zm1364 607c-95 99-201 172-352 157-48-5-94-22-153-61 210 52 325 19 505-96zm-1277-507c74-18 154-66 170-169-47 83-95 129-170 169zm357-533c123 23 177 58 254 154-78-70-159-118-254-154zm507 917c66 1 134-26 192-122-61 54-112 93-192 122zm-50-769c-19-47-43-106-18-152 32 62 39 89 18 152zm-3808-6764c-3 18-16 45-37 66-42 40-116 36-133-23-27-94 72-145 150-149 203-11 356 106 436 249 316 562 68 1217-146 1790-26 70-43 143-61 213-31 198-21 373 50 565 130-17 266 33 358 108 43 35 78 78 98 126 60 141-19 245-182 227-170-18-316-220-380-373-43 3-96 29-121 46 32 169 93 314 172 450 84 144 200 271 242 435 35 138 9 268-94 413 61-140 70-224 42-379-21-85-57-159-98-229-50-85-109-164-163-254-70-118-115-248-162-388-128 145-200 317-152 512 31 124 88 204 182 287 34-12 57-18 83-20 60-4 168 28 162 103-3 39-31 64-67 78-43 17-99 19-135 4-86-36-151-114-196-204-160-318-135-631 96-843-31-355-20-658 148-970 43-65 86-130 129-195 96-141 133-270 185-432 44-208 68-412 72-625-21-222-65-467-287-585-60-32-125-42-192-4zm12 2776c35-22 74-38 115-48-49-218-53-407-12-618-101 209-117 431-103 667zm254 18c58 124 167 316 316 301 76-8 94-44 66-114-52-130-283-209-381-187zm464 15l97-287 314 1-254-177 98-287-254 178-254-178 97 287-255 177h314l96 288zm-8-844l122-193 229 52-154-171 122-193-217 88-153-172 20 225-217 87 229 51 19 225zm58-610l86-129 155 40-101-119 87-129-149 56-101-119 9 154-149 55 155 39 9 154z"/></g></g><g fill="#201e1e"><g stroke="#201e1e"><path d="m2163 7750c4 3 6 6 6 9-81 63-149 96-205 99-32 2-58-7-81-26-22-19-41-54-57-104-15-50-25-105-28-164-1-19-1-38 0-59 1-21 3-45 6-74 4-29 11-57 23-84 12-28 32-50 60-67 29-17 59-26 93-27 30-2 58 5 85 19 27 14 48 36 64 64 16 29 27 54 33 76 7 22 11 48 13 79 0 6-5 9-16 10-8 0-15-1-20-3-6-2-9-6-9-10l5-56c-2-40-16-70-43-90-26-21-57-30-93-28-30 1-58 11-86 27-20 13-36 32-49 57-13 25-22 52-27 81-5 29-6 62-4 97 2 43 9 81 20 116 11 35 29 63 53 84 24 21 58 31 102 29 46-2 94-22 143-59 4 0 7 1 11 5zm225-140l-12-6c-10-8-19-14-25-18-6-5-14-9-23-12-9-4-17-7-24-9-7-2-15-4-22-5-7-1-19-3-36-5-17-2-28-3-34-3l-62-6-89-7c-38-2-64-7-80-13-16-7-33-20-52-41l-18-22-17-20c0-9 1-13 6-13l8 3c13 10 29 18 47 21 17 4 43 7 77 9l61 5 110 11c16 2 35 7 56 14 22 7 42 19 62 35 20 16 39 37 57 65l8 17zm-26-102l1-81c-1-26-9-52-22-79l-7-8-8-18c-1-17 2-26 9-26 4 4 7 8 8 12 1 4 5 10 11 17l25 33 26 36c12 20 19 49 21 87l-2 54c-2 16-3 30-4 43-1 13-1 27 0 42 2 45 10 78 23 98 13 21 20 34 20 39 1 10-4 15-12 16-7 0-15-4-23-13-6-8-16-20-29-34-14-14-23-27-28-39-6-12-10-29-11-52l-1-13-1-10 3-105zm-314-456l-2-20c0-16 13-34 39-56 26-21 52-32 79-31l32 3 46 11 49 11c15 3 25 8 31 14 6 6 11 12 17 18 5 6 10 13 16 21l29 45c16 23 24 47 23 71 0 24-13 42-37 55-25 13-54 19-88 19-27 0-62-7-103-19-42-12-69-25-82-37-13-12-24-32-33-60l-15-45zm191 90c24 0 45-2 65-8 20-6 33-14 40-25 7-11 11-20 11-27 0-4-5-12-15-23-10-11-30-20-60-29-30-8-63-12-97-13-21 0-42 2-63 6-12 2-22 6-33 14-10 8-15 17-15 26 0 5 1 10 4 14 3 4 5 7 7 10 2 3 6 7 12 13 7 5 16 9 28 14l75 22c9 3 23 5 41 5zm151-310l22 68c-1-1-3-2-7-3-3-1-7-2-10-3l-97-18-150-28c-15-1-23 0-23 4 0 4 3 10 9 20 6 10 10 17 11 22l1 5 1 5-2 3c-5 0-10-3-13-8l-33-52-29-47c-5-9-7-17-7-22 1-8 9-11 25-10l30 5c104 21 169 34 195 40 26 6 53 11 78 17zm-153-95c-4-1-10-2-16-4-7-2-17-5-32-11-15-6-26-9-34-10-6 0-9 1-10 6-1 8 9 23 30 45l18 22c7 10 10 18 9 23-3 3-6 4-8 4-11-1-18-6-22-17l-40-34c-20-18-36-36-47-55-11-19-16-34-15-45 1-15 11-21 28-20 11 1 37 16 78 46 41 30 62 47 61 52zm-96-501l1-20c3-15 19-32 48-48 29-17 57-23 84-18l31 8 43 19 46 19c14 6 23 12 28 19 5 7 9 14 13 20 4 7 8 15 11 24l20 49c12 25 15 50 10 74-5 23-20 40-47 48-26 9-56 10-90 4-27-5-59-17-98-36-39-19-63-36-74-50-10-14-17-36-22-65l-6-47zm172 120c23 4 45 5 65 3 20-2 35-8 44-18 9-9 15-17 16-24 1-4-3-12-10-25-8-12-26-25-54-38-28-13-59-23-93-29-20-4-41-5-63-5-12 0-23 2-35 8-11 6-18 14-20 23-1 5-1 10 1 14 2 4 4 8 5 11 1 3 4 8 9 15 6 6 14 12 25 18l70 34c8 5 21 8 39 12zm201-259l17 76-24-11-66-25-168-60c-15-3-23-3-23 0-1 3 1 10 6 21 4 11 7 19 7 24v5 4l-3 3c-5-1-9-4-12-9l-25-59-20-47c-3-10-4-17-3-23 2-7 11-9 27-6l29 9c99 36 161 59 186 69 25 9 50 19 75 29zm-236-121c-14-26-26-51-35-76-9-25-13-41-11-50 3-13 18-17 46-10 35 8 109 37 222 89 14 3 22 2 23-3 2-10-8-31-31-61l-1-6c1-3 2-5 3-6h7l5 3c30 38 48 70 55 94 7 25 9 41 7 50-2 10-14 13-34 9-6-1-11-2-15-3-4-1-12-4-25-9l-74-28-95-35c-23-5-35-5-36 0-2 6 6 25 22 55 16 30 24 49 22 56-4 2-6 3-8 3-11-2-17-9-19-20l-27-50zm317-429c1-4 5-5 10-3 6 2 10 6 11 11 38 80 54 127 48 143-4 10-18 12-41 3l-40-17-62-30-86-42-154-78c-54-28-86-44-97-48-13-4-20-4-22 2-2 5 0 18 5 40v11c-1 3-4 5-9 4-6-2-11-11-13-26-3-15-8-39-17-71-8-32-12-51-10-56 3-8 13-8 31-2 23 8 92 44 207 108 115 64 190 102 226 115 19 7 30 7 33 0 2-5-1-17-9-33-8-17-12-27-10-31zm-225 56l-4 11c-8 21-8 40 0 57 8 16 30 36 67 58 37 22 64 36 80 42 27 9 42 8 47-4 5-12-1-34-18-66-23-39-33-62-30-68 1-3 4-3 9-1 10 3 17 10 23 18 6 9 13 23 20 42l17 39c27 54 37 90 29 110-8 21-32 24-73 10-14-5-30-12-48-21l-68-38c-15-9-30-21-47-35-16-14-29-31-39-49-10-18-12-47-8-87 4-40 8-63 11-72 3-9 8-12 13-10 4 1 11 7 19 16 8 9 11 17 9 24l-10 26zm141-285c-11-4-18-1-23 10-6 13-9 24-8 32 1 8 5 16 13 25 8 9 23 22 45 39 22 17 44 30 67 40 45 18 74 12 87-18 7-16 9-37 6-64l-3-27-1-18 11-1c4 2 8 6 11 13l7 27 6 24c18 56 21 97 9 125-8 18-22 29-43 33-20 4-47-1-78-14l-32-16c-20-8-36-17-50-28-14-11-31-27-51-48-20-21-34-47-41-79-7-31-4-62 9-93 11-25 25-35 41-28 12 5 24 16 36 33 12 17 21 33 27 46 6 14 10 23 12 28 2 5 6 16 12 35 6 19 10 36 13 52 3 16 3 28 2 34-4 9-8 13-12 11-3-1-7-7-10-17l-11-44-13-50c-2-7-4-14-7-20-2-6-6-13-11-22-5-9-12-15-22-19zm93-273l37-58 51-78c12-19 21-26 27-23 1 1 1 2 2 3 1 1 1 3 1 6 0 3-1 7-4 13-3 6 2 18 14 36 11 19 24 37 41 54 17 18 32 32 45 44 13 12 26 21 39 29 41 25 68 28 81 9 3-5 5-19 6-44 1-24-21-64-67-120l-35-12c-9-3-17-7-24-10-8-3-15-8-24-13-28-17-42-35-43-54-1-4-1-8-1-13 0-5 2-9 4-13 7-11 23-9 48 6 12 7 21 13 27 18 5 4 13 11 22 20 9 9 16 16 22 23 6 6 11 13 15 19l15 6 18 4c7 2 17 2 28 0l6 11c-3 5-9 9-19 12l-11 2-11-1c56 106 71 177 47 215-11 17-28 27-52 29-18 3-38-2-60-15-22-13-44-33-66-59-22-26-39-49-50-68-11-19-19-30-24-33-5-3-11 0-16 9l-8 12-7 10c-15 23-11 42 11 55l2 1-3 4-3 5-8 4-76-46zm321-455l11-17c10-12 32-19 66-21 34-2 61 6 83 22l23 21 29 36 31 38c9 11 15 21 15 29 1 8 1 16 2 24 0 8 0 16-1 26l-6 53c-2 28-11 51-27 70-16 19-37 26-65 22-28-4-55-17-81-37-21-17-44-42-69-76-25-34-38-60-40-78-2-17 2-40 13-67l17-44zm93 184c18 14 37 25 56 32 19 7 35 8 48 5 13-4 21-9 26-14 3-3 4-12 3-26-1-14-10-34-29-58-19-24-41-47-68-68-16-12-34-23-53-33-10-6-22-8-35-8-13 0-23 4-29 12-3 4-5 8-6 13 0 5-1 8-1 12 0 3 0 9 1 17 2 8 7 17 13 27l45 62c5 8 15 17 29 28zm141-383l-15 13c-8 9-10 18-7 29 3 11 8 22 15 34 7 12 18 28 33 49 15 21 30 37 44 49 37 31 66 33 88 9 11-12 19-28 24-49 6-21 9-34 10-40 1-6 2-10 3-13 5 1 9 2 11 3 4 3 6 8 6 14l-1 28-2 24c-1 58-11 99-32 122-13 15-30 21-51 18-21-2-44-14-70-36l-25-24c-16-14-29-27-39-41-9-14-20-34-31-60-11-26-15-54-10-85 4-30 18-58 40-83 22-25 37-34 44-28 3 2 6 9 9 20l7 20 13 15c6 5 8 9 8 12 0 4-1 6-3 8-4 4-9 3-18-2l-9-7-9-11c-6-5-12-6-16-1l-17 15zm246-193c-8-8-16-8-25-1-11 10-18 18-21 26-3 7-3 17 1 28 4 11 12 29 24 54 12 24 27 45 43 63 32 35 61 41 87 19 13-11 24-30 34-55l9-26 7-16 11 4c3 3 5 9 4 16l-5 27-5 24c-8 58-24 97-47 117-15 13-33 17-53 13-20-5-42-20-65-44l-22-27c-14-15-25-30-33-46-8-15-16-37-25-64-9-27-10-57-2-88 7-31 24-58 49-81 21-18 38-21 49-9 9 9 15 24 18 44 4 20 5 38 5 53-1 15-1 25-1 30 0 5-2 17-5 36-3 19-6 37-11 52-5 16-9 26-14 32-8 7-13 8-16 5-2-3-3-9-1-20l10-45 10-51c1-7 2-14 3-21 1-6 1-14 0-24-1-10-4-19-12-26zm-207 24l16-152 119 35-14 27-79-8-6 104-37-6zm442-486l-23 16c-17 16-14 37 7 64l43 46c21 21 36 37 45 49l14 18c23 38 45 76 65 116l59 104 55 102 60 110-17 80-59-97-49-81-46-80-53-95c-6-11-13-24-22-39-9-15-17-27-25-37l-58-82c-10-13-19-27-27-40-7-14-16-31-24-51-9-20-13-39-15-58-1-18-2-32-2-40 0-8 0-16 1-23 1-7 3-15 6-22l11-29 53 68zm-63 241l161-116 9 16-158 115-12-15zm297-194l16-13c14-9 37-9 70-2 33 8 57 23 72 44l16 27 17 43 18 45c6 13 8 24 6 32-2 8-4 16-6 23-2 7-5 16-9 24l-22 49c-10 26-26 46-47 59-21 13-43 14-69 2-25-12-47-31-66-58-15-22-29-52-43-92-13-40-18-68-15-86 3-17 14-37 32-60l30-37zm33 202c13 19 28 34 44 46 16 12 31 18 44 18 13 0 23-2 29-6 4-2 7-10 11-24 4-14 0-35-10-64-10-28-25-56-45-84-12-16-25-32-41-46-8-8-18-14-31-18-12-4-23-3-31 3-5 3-8 7-9 11-2 4-3 8-4 11-1 3-3 8-4 17 0 8 1 18 4 30l24 72c3 9 9 21 19 35zm348-54l-48 54c0-1-1-4-1-7-1-3-2-7-3-10l-37-88-58-136c-7-13-13-18-16-17-3 2-7 8-13 18-5 11-10 17-14 21l-4 3-4 3h-4c-3-5-3-10 0-15l28-55 25-49c5-9 11-15 16-18 7-4 14 1 22 15l12 27c38 95 62 155 72 179 10 24 19 49 28 73zm0-175c-2-4-3-9-6-15-2-6-5-17-8-32-3-15-6-26-10-33-3-5-6-7-10-5-7 4-15 20-23 48l-10 26c-5 11-10 18-15 20-4-1-7-2-8-4-5-9-4-18 3-28l8-51c4-26 12-49 23-68 11-19 21-32 31-37 13-7 24-3 33 12 5 9 6 39 3 88-3 49-8 75-12 78zm204 68c-5-10-5-21-1-31 4-11 10-18 20-22 7-3 15-4 26-3 11 1 19 8 25 21 4 10 5 20 1 31-4 11-10 18-20 22-6 3-12 3-18 2-16 0-27-7-33-21zm149-61c-4-10-5-21-1-31 4-11 11-18 21-22 7-3 15-3 26-3 11 1 19 8 24 22 4 10 4 20 0 31-4 11-11 18-20 22-6 2-12 3-18 2-16-1-27-8-33-21zm151-60c-4-10-3-21 1-31 4-10 12-17 22-21 7-2 16-3 26-1 10 1 18 9 23 23 4 10 3 20-1 31-4 11-12 18-21 21-6 2-12 3-18 1-16-2-26-9-31-23z" fill-rule="nonzero" stroke-width="7.62"/><g stroke-linejoin="round" stroke-linecap="round"><text x="10500" y="14850" font-family="&apos;ElGar&apos;" stroke-width="25" font-size="911.05" transform="matrix(.94715.41268-.42911.91088-561-7583.75)">Texto 01</text><text x="10500" y="14850" font-family="&apos;Vijaya&apos;" font-weight="bold" stroke-width="20" font-size="556.09" transform="matrix(.93708.43341-.45068.90119 298.73-7009.55)">00.00.0000</text></g></g><g font-family="&apos;Arial Black&apos;" font-weight="900" font-size="341.64"><text x="10500" y="14850" transform="matrix(1.03983 0 0 1-5731.08 1069.86)">NN 1</text><text x="10500" y="14850" transform="matrix(1.03983 0 0 1-5736.56 1365.05)">NN 2</text></g></g><path d="m15122 3043c1538-41 4000 1189 4006 4120 1 783-310 3389-384 4423-89 1240-154 3005-181 4262-12 1087-269 1717-762 1972-656 223-1338 289-2056 126-743-185-1111-763-1122-1932 28-1509 215-4121-76-5492-377-1776-853-2008-1036-4147-110-1287-70-3287 1611-3331z" fill="#fff"/><g clip-path="url(#1)"><g fill="#201e1e" stroke="#201e1e" stroke-width="7.62"><path d="m13898 5338c-15 34-26 40-64 33-22 34-47 39-69 38-32-2-57-29-65-75 46 16 61 21 84-18-12-58 17-103 88-103 184 1 165 300 1 323-234 32-421-209-308-409-26-28-10-57 9-84 0 29-4 26 17 48 23-39 35-59 99-92 0 0 2 13-4 19-71 63-118 178-106 269 6 44 26 88 66 130-19-149 4-259 73-339 72-83 171-148 297-212 133-67 220-107 299-239 34-56 47-121 44-183-3-60-18-128-85-181-15 20-31 39-46 59-29-40-85-81-139-72-47 8-74 34-85 66-24 70 31 168 122 165-136 70-252 1-254-121-2-139 103-265 247-270 105-3 199 70 243 142 106 177 27 366-71 487 154-35 288-55 424-2 80 32 145 116 193 151 27 1 43-2 55-9 15-9 22-27 37-57 26 68-6 110-75 122 80 54 176 87 266 25 35-24 48-57-9-87-1-25-2-36 3-41 19-16 38-9 53 5 54 50 38 120-20 161-64 46-147 49-218 25 8 10 16 20 24 30 55-3 90-12 140 19-28 6-46 14-75 27 62 53 105 91 97 177-105 3-128-64-154-152-14 22-14 34-22 62-33-42-29-70-9-116-7-16-21-32-29-47-17-16-34-32-51-47-6 89-37 143-85 215-50 49-97 82-151 89-93 13-164-10-207-52-56-55-67-144-24-237 23-23 23-131-61-128-15 0-30 11-45 35-34-46 4-87 52-87 40 0 87 28 107 106 46-24 94-26 135-14 62 18 108 68 105 129-3 71-50 118-107 124-81 8-113-53-102-95 10-43 67-53 80-9-17 36-5 57 15 60 27 4 68-26 67-96-5-52-48-77-104-75-43 2-73 17-93 39-90 101-39 265 100 268 67 2 124-13 165-44 63-47 93-108 100-169 14-122-50-208-143-255-167-84-415-32-557 75 283 34 307 383 50 418-60 8-142-41-150-101-11-87 53-135 129-139-57 61-38 142 6 145 54 4 85-81 102-121 12-5 24-9 36-14-5-115-119-146-225-139-52 3-103 15-138 30-97 42-185 97-247 191-34 51-56 111-60 185 0 47 5 89 20 122 22 48 66 78 148 79 5-23 8-30 25-47 12 13 15 22 21 38 23-3 44-16 59-35 17-23 25-53 13-85-13-10-26-19-39-29 11-7 25-20 36-26-11-17-25-31-40-38-23-12-41-7-52 4-21 21-19 67 39 59zm318-974c-35 2-62 32-59 66 2 34 33 60 68 57 35-2 62-32 59-66-2-34-33-60-68-57zm-16 200c-30 2-52 27-50 56 2 29 28 51 58 49 30-2 52-27 50-56-2-29-28-51-58-49zm-109 127c-24 2-43 22-41 46 2 24 23 41 47 40 24-2 43-22 41-46-2-24-23-41-47-40zm-124 84c-19 1-33 17-32 35 1 18 18 32 37 31 19-1 33-17 32-35-1-18-18-32-37-31zm-103 73c-13 1-24 12-23 25 1 13 13 23 26 22 13-1 24-12 23-25-1-13-13-23-26-22zm-86 74c-10 1-18 9-17 19 1 10 10 18 20 17 10-1 18-9 17-19-1-10-10-18-20-17zm613-295c55-115 111-220 231-286 150-83 283-55 429 3-93 23-160 50-238 108-31 28-62 56-93 84-110 86-194 108-329 92zm405 44c-79 35-133 20-209 4 48-48 82-82 133-98 82-25 226 31 239 119-56-20-103-37-164-26zm-276 203c22-36 33-69 77-84 49-16 95 5 140 20-29 6-50 11-68 22-27 16-30 20-54 31-25 11-57 12-95 11zm249 660c30-40 51-84 62-136-11-122 1-191 98-281 94 193 29 322-159 417zm-129-170c-113-125-217-151-350-35 80 37 132 55 218 31 46-9 89-7 133 3zm-272 34c36-6 63-7 87-1 84 19 121 75 126 138 2 35-6 73-22 108-7-95-47-121-135-131-48-42-47-51-55-113zm480-1054c-110-11-213-1-295 84-26 27-44 61-57 114 96-138 183-176 352-199zm-483 950c54-26 127-38 193 15-73-26-126-29-193-15zm502 139c61-76 73-125 67-221-8 81-30 151-67 221zm-198-805c39-34 94-52 180-24-65-1-118 1-180 24zm389 486c14 38 32 85 72 100-15-53-26-73-72-100zm-506 2340c1 52 12 65 65 76 11 55 40 75 69 84 42 13 89-9 124-65-68-3-91-3-100-66 47-69 34-143-59-179-240-92-376 307-175 420 287 161 660-60 622-377 49-23 43-69 33-114-16 38-10 36-48 53-9-63-14-94-79-170 0 0-10 16-5 26 59 118 58 292-7 403-32 54-82 101-156 136 104-184 134-340 87-479-49-145-143-280-273-426-137-154-229-251-260-462-13-90 4-181 41-260 36-76 92-157 208-192 9 33 19 67 28 100 59-37 155-63 219-24 57 34 79 82 76 129-7 103-131 204-247 153 139 160 327 129 396-30 78-180 8-398-176-476-135-58-297-10-393 63-233 176-232 463-170 670-181-123-345-217-551-217-122 1-251 78-333 99-36-13-55-24-67-39-14-20-15-46-17-93-70 76-52 147 32 197-134 30-276 25-360-102-32-49-32-99 59-108 15-32 23-46 18-55-16-30-44-31-71-20-97 38-114 137-60 220 59 92 165 138 270 143-16 9-32 18-47 26-70-32-111-61-192-46 33 22 52 41 84 73-110 37-185 65-221 182 136 56 201-18 283-120 6 35 0 51-5 91 66-38 75-77 75-146 18-17 45-30 63-47 31-12 61-24 92-36-40 119-29 205-5 323 39 89 83 156 148 192 115 64 219 70 298 37 102-44 165-154 158-297-18-41 41-182 148-137 19 8 33 29 40 68 69-42 42-116-21-140-52-20-129-7-196 85-47-54-108-82-169-87-90-8-178 34-207 115-34 94 1 179 72 215 101 51 175-13 185-72 9-61-58-103-100-52 3 56-24 77-51 71-37-8-74-68-35-159 35-65 104-76 176-45 56 24 86 59 100 97 63 177-92 364-274 298-88-32-154-80-191-140-57-93-63-188-39-270 48-166 178-245 323-259 262-25 558 168 685 380-386-98-606 344-290 519 73 41 207 19 250-56 62-108 4-202-93-246 42 109-28 204-86 186-72-22-67-148-67-209-13-12-26-24-39-36 69-147 233-130 368-67 66 30 125 72 163 109 104 104 188 220 219 374 17 83 13 173-21 272-25 61-54 113-92 148-55 52-128 69-234 28 6-33 5-43-7-74-22 11-31 21-47 39-28-15-49-44-58-76-10-38-4-82 29-118 22-6 44-12 66-18-11-14-22-38-33-52 23-16 49-27 73-30 36-3 57 12 65 31 16 39-11 97-82 57zm110-1429c45 21 63 73 42 116-22 43-75 61-120 40-45-21-63-73-42-116 22-43 75-61 120-40zm-87 268c38 18 53 62 35 98-18 37-63 52-101 34-38-18-53-62-35-98 18-36 63-52 101-34zm73 220c31 14 44 50 29 80-15 30-52 42-83 28-31-14-44-50-29-80 15-30 52-42 83-28zm116 172c24 11 34 39 22 62-12 23-40 33-64 22-24-11-34-39-22-62 12-23 40-33 64-22zm95 146c17 8 24 28 16 44-8 16-29 23-46 15-17-8-24-28-16-44 8-16 29-23 46-15zm72 139c13 6 19 21 12 34-6 13-22 18-35 12-13-6-19-21-12-34 6-13 22-18 35-12zm-639-694c-10-178-26-342-147-490-150-184-339-214-561-213 109 76 182 146 252 260 25 52 51 104 76 156 97 167 195 238 379 287zm-551-147c84 86 163 93 270 110-37-87-63-148-121-194-93-74-311-74-376 35 83 2 154 4 227 49zm251 404c-9-58-6-107-55-148-55-45-126-41-193-44 35 22 59 40 77 63 27 34 28 41 54 68 27 27 68 44 117 62zm-679 734c-17-67-21-135-7-208 80-154 102-249 24-415-226 204-211 405-17 623zm259-156c214-105 365-87 474 132-124 8-202 5-300-69-56-35-112-54-174-63zm335 182c-43-25-78-41-113-46-119-17-198 36-238 116-22 45-32 98-29 152 60-121 127-134 247-103 85-31 89-42 133-120zm-58-1615c150 41 278 106 338 259 19 48 24 102 13 178-51-228-143-322-352-437zm118 1481c-56-62-145-114-259-78 109 3 180 26 259 78zm-728-73c-38-130-29-199 31-322-33 110-42 212-31 322zm691-949c-32-64-94-115-222-123 86 31 153 61 222 123zm-767 436c-39 42-88 94-148 94 48-62 73-82 148-94zm1487-2478c-26 28-38 31-73 12-32 26-59 23-79 15-30-12-45-46-37-92 39 29 52 40 87 9 7-59 51-94 119-72 177 58 59 340-107 311-236-42-335-333-160-490-16-35 10-58 37-78-10 28-12 24 1 51 36-30 53-46 126-58 0 0-3 13-10 17-89 38-174 135-192 225-9 44-4 93 20 146 32-149 90-248 184-304 97-58 214-89 357-111 150-23 248-34 367-137 51-44 85-102 103-162 17-58 26-128-22-201-21 14-43 28-64 42-15-47-55-105-109-113-48-7-83 9-104 37-46 60-27 172 62 197-154 25-243-78-204-196 44-135 188-223 328-183 103 30 169 129 186 213 43 203-96 361-230 447 160 14 295 37 409 131 66 56 100 157 136 206 26 9 42 12 56 9 17-4 30-19 55-44 2 74-43 104-113 94 59 77 141 139 248 107 41-12 66-40 20-86 7-25 10-36 17-38 24-9 39 3 49 21 35 65-4 127-73 149-77 24-158 2-218-44 4 12 9 24 13 36 54 14 91 17 128 62-29-3-49-1-82 2 42 71 71 120 34 201-102-31-102-102-98-195-20 17-25 28-42 53-18-51-4-77 29-114-2-17-10-37-12-54-11-21-22-41-33-62-36 84-84 126-154 181-65 32-121 49-175 39-94-17-155-61-182-115-35-71-16-160 56-236 30-14 66-119-16-143-14-4-33 1-55 19-18-55 33-83 80-68 39 12 75 55 67 136 52-9 99 4 135 29 54 37 81 100 58 157-27 67-87 98-144 86-80-18-91-87-67-124 24-38 82-30 80 16-28 30-24 53-6 62 24 12 74-4 96-72 12-52-21-89-75-105-42-12-76-7-102 9-120 69-126 243 7 289 64 23 123 26 173 10 77-25 126-75 153-131 54-113 21-216-53-290-132-133-389-161-562-102 261 122 168 465-91 418-60-11-123-84-111-144 18-88 96-114 171-93-76 41-84 125-43 142 50 20 109-51 138-85 13-1 26-1 39-2 33-113-66-177-171-204-51-13-104-17-143-14-107 10-210 36-302 107-50 38-91 90-120 160-16 45-25 87-21 124 5 53 37 96 116 122 13-21 18-26 40-38 7 16 7 26 7 43 23 4 48-2 69-16 24-16 42-44 41-78-9-13-18-27-28-40 13-3 31-11 44-14-5-19-14-37-26-49-18-18-37-19-51-12-28 14-41 59 18 69zm631-838c-35-9-70 11-79 45-9 34 12 68 46 77 35 9 70-11 79-45 9-34-12-68-46-77zm-82 187c-29-7-59 10-67 38-8 28 10 57 39 65 29 7 59-10 67-38 8-28-10-57-39-65zm-147 88c-24-6-48 8-55 31-6 23 8 47 32 53 24 6 48-8 55-31 6-23-8-47-32-53zm-148 42c-19-5-38 6-42 24-5 18 6 36 25 41 19 5 38-6 42-24 5-18-6-36-25-41zm-123 38c-13-3-27 4-30 17-3 13 4 26 18 29 13 3 27-4 30-17 3-13-4-26-18-29zm-107 44c-10-3-21 3-23 13-3 10 3 20 14 23 10 3 21-3 23-13 3-10-3-20-14-23zm688-92c92-94 180-177 318-203 172-33 291 36 412 137-97-7-171-2-265 29-39 17-78 34-117 51-134 48-223 43-348-14zm376 169c-88 9-135-23-202-62 63-31 106-53 161-52 87 2 207 101 191 190-47-36-86-68-149-76zm-334 109c33-28 55-56 102-56 52 0 90 35 128 63-30-3-52-5-73 0-31 7-35 10-63 13-28 3-59-7-95-19zm19 714c42-29 77-65 105-111 30-121 64-184 188-240 26 215-80 319-292 352zm-67-204c-67-155-159-214-326-143 65 61 109 94 199 98 48 6 88 21 127 45zm-273-52c36 6 63 13 84 26 74 45 92 110 75 172-9 35-30 69-57 97 25-94-5-132-87-169-32-55-29-64-16-126zm814-864c-102-45-205-68-312-11-34 18-63 45-93 92 139-102 235-112 406-81zm-782 763c60-9 135 3 181 75-62-48-112-67-181-75zm437 291c84-54 112-97 139-192-35 76-80 136-139 192zm78-837c49-21 108-21 182 33-62-22-114-36-182-33zm212 589c1 41 3 92 36 119 4-56 0-78-36-119zm-631 6198c-8-12-26-29-49-38-44-17-98 8-91 58 10 78 100 87 159 66 154-53 229-186 242-317 52-515-344-929-688-1292-42-45-78-94-114-140-87-138-137-272-146-437 102-27 186-105 230-189 21-39 32-82 32-124-1-123-93-177-209-114-120 65-163 260-161 393-33 10-81 7-104 2-31-136-33-262-18-388 16-133 60-263 39-398-18-113-80-203-203-280 90 86 125 146 153 270 12 70 10 136 1 200-10 78-28 156-38 239-13 109-5 220 6 339-142-70-251-176-278-336-17-102-1-179 42-270 29-1 48-4 67-10 46-15 116-72 87-126-15-28-44-38-75-38-37 1-80 16-101 38-52 53-75 130-79 211-15 286 104 512 344 601 92 274 199 497 424 680 53 35 106 71 159 106 117 76 186 162 277 267 100 142 184 287 256 444 57 172 103 368-23 524-34 42-79 69-141 61zm-890-2076c33 6 67 6 101 1 35 178 93 319 191 465-143-125-227-286-292-467zm182-90c3-110 22-286 136-320 59-17 84 5 85 65 3 113-142 241-222 255zm339-151l165 185 233-96-131 209 166 185-246-56-130 210-21-244-246-55 233-95-22-244zm268 633l153 108 152-108-59 174 153 107h-189l-58 174-58-174-189 1 153-107-59-174zm240 438l106 71 102-76-37 119 106 70-129 3-36 120-43-117-128 4 102-76-43-117zm116 381l72 45 66-52-22 80 72 45-85 4-22 80-31-77-85 5 66-52-31-77z"/><path d="m17747 16323c34-32 49-34 89-9 42-28 73-23 97-11 35 17 50 59 37 115-44-39-59-52-105-18-15 71-70 110-151 77-209-86-39-418 159-368 283 72 375 433 149 609 16 43-17 69-52 92 14-33 17-28 4-62-46 34-69 51-158 59 0 0 4-16 14-19 112-39 223-148 253-257 15-53 13-112-11-179-52 178-133 293-251 352-123 61-268 90-443 103-184 14-304 20-458 133-66 49-113 116-140 188-26 69-43 153 8 245 27-15 55-31 82-46 14 59 57 132 122 147 58 13 102-4 130-35 62-69 48-206-57-244 189-17 287 116 229 256-66 159-249 254-414 193-122-45-192-172-206-275-34-250 150-429 321-522-192-31-355-71-484-194-75-74-107-199-146-261-31-13-50-18-67-15-21 4-39 20-71 48 4-89 61-123 146-104-64-99-157-181-291-152-51 11-83 42-33 103-11 29-15 42-24 45-29 9-47-7-58-30-36-82 16-154 103-174 95-22 192 12 260 73-4-15-9-30-13-45-65-22-109-28-150-86 35 6 59 5 99 5-45-89-75-152-23-246 121 46 114 132 100 245 26-19 33-32 55-60 17 63-2 93-46 136 1 21 9 46 9 67 12 26 23 52 35 78 51-99 113-146 204-206 82-33 152-48 216-32 113 29 182 87 210 156 36 89 5 195-90 281-37 15-91 138 6 174 17 6 40 1 68-19 16 68-48 98-103 75-46-19-86-73-69-170-64 6-120-14-161-47-62-49-89-128-56-196 39-79 115-112 183-92 96 28 102 113 70 156-33 44-102 30-96-27 37-33 34-63 13-75-29-17-90-2-124 78-20 62 17 110 82 134 50 18 91 15 125-1 152-74 175-283 19-351-76-33-147-42-209-27-95 24-159 80-197 146-76 132-45 260 37 356 148 173 457 230 672 172-305-170-160-579 150-499 72 18 142 112 121 185-30 105-127 129-216 98 96-43 113-145 65-168-59-29-137 53-176 91-16 0-32-1-47-1-51 134 63 221 188 263 61 21 124 30 172 29 131-3 258-25 376-103 64-42 119-101 160-183 23-53 38-103 37-148-1-65-36-119-129-158-18 24-24 30-52 42-7-21-6-32-5-53-27-7-59-2-85 13-31 18-54 49-57 91 10 17 20 34 30 51-16 2-38 11-54 13 4 24 13 46 27 62 20 24 43 27 61 19 35-14 55-68-15-85zm-843 961c41 14 86-8 100-48 14-40-8-83-49-97-41-14-86 8-100 48-14 40 8 83 49 97zm117-220c35 12 73-7 85-40 12-34-7-71-42-82-35-12-73 7-85 40-12 34 7 71 42 82zm186-94c28 9 59-5 69-33 10-28-5-58-34-67-28-9-59 5-69 33-10 28 5 58 34 67zm183-38c22 7 46-4 54-26 8-21-4-45-26-52-22-7-46 4-54 26-8 21 4 45 26 52zm153-35c16 5 33-3 38-18 5-15-3-32-19-37-16-5-33 3-38 18-5 15 3 32 19 37zm134-44c12 4 25-2 30-14 4-12-2-25-15-29-12-4-25 2-30 14-4 12 2 25 14 29zm-843 52c-120 105-235 199-405 219-211 25-349-69-487-203 117 17 207 17 324-12 49-17 98-35 147-52 168-46 274-33 421 48zm-440-238c107-4 161 39 240 92-79 32-134 55-200 49-106-9-242-140-213-247 54 48 99 90 174 105zm415-103c-43 31-72 64-129 60-63-5-105-50-149-88 36 7 63 11 88 7 38-6 44-9 77-10 34-1 71 13 113 32zm43-867c-53 32-99 72-137 126-48 145-95 218-250 275-12-263 126-380 387-401zm63 253c67 194 173 273 382 202-73-79-123-124-232-136-57-12-105-34-149-65zm326 87c-43-10-75-22-100-39-86-61-101-142-75-215 15-41 43-81 78-112-39 112-6 160 89 212 33 70 29 80 7 155zm-1067 977c120 64 242 100 377 41 43-19 80-49 122-103-178 112-295 116-499 63zm1019-857c-74 5-164-16-212-106 70 64 129 92 212 106zm-503-391c-107 58-145 108-186 221 49-89 109-158 186-221zm-173 1009c-61 21-132 16-217-56 74 32 134 53 217 56zm-203-733c2-50 5-112-33-148-10 67-7 95 33 148zm1733-2430c24-60 19-80-37-116 15-67-9-104-38-127-42-34-106-31-173 16 76 35 102 46 81 122-87 57-109 148-22 231 227 216 580-175 406-397-248-316-781-238-894 141-67 3-83 59-94 114 37-36 29-37 81-39-20 76-31 114 6 230 0 0 19-14 18-28-8-161 78-359 207-456 63-47 143-77 245-83-210 161-321 324-336 505-16 187 24 385 100 611 80 239 137 392 68 646-30 109-95 204-176 277-78 70-182 136-332 123 6-42 11-85 17-127-86 14-207 0-262-74-48-66-49-130-22-182 59-115 249-172 357-60-79-247-309-298-466-150-178 169-206 449-35 624 126 128 333 149 478 111 353-93 493-419 525-684 145 225 286 407 520 502 139 55 324 27 428 42 34 32 51 53 56 76 7 29-6 59-26 114 117-53 131-143 60-239 167 27 327 100 359 283 12 70-12 127-120 96-33 30-48 42-47 54 3 42 35 56 71 56 129 1 197-104 178-223-21-131-119-234-237-288 22-3 45-5 67-8 64 69 96 121 196 141-27-40-38-71-60-122 144 8 243 12 342-104-127-127-238-72-381 6 11-43 25-59 51-102-94 13-124 53-157 131-29 11-66 14-95 24-41-1-82-1-123-2 104-117 134-220 165-366 0-120-17-216-74-288-99-126-214-182-322-180-138 2-264 99-327 264 0 55-136 188-236 87-18-18-23-49-12-96-100 16-105 112-45 170 49 48 143 68 265-6 26 83 83 143 149 177 99 51 219 43 292-35 85-91 87-205 24-279-90-105-206-67-246-4-41 65 15 144 87 106 25-65 66-76 93-57 38 27 51 111-38 197-72 58-156 38-222-31-51-54-69-107-65-157 16-231 284-373 460-213 85 77 136 162 148 248 20 132-21 243-89 326-136 166-323 197-496 146-311-93-553-450-592-750 392 291 860-110 587-456-63-80-226-117-312-52-123 94-105 228-16 323 6-143 132-220 190-172 71 59 3 200-27 269 9 20 18 39 27 59-151 136-329 40-453-94-60-65-107-140-132-200-67-166-106-338-65-527 22-103 71-203 158-300 59-58 118-104 178-127 88-34 179-19 281 77-23 35-27 46-29 88 31-3 46-9 73-23 24 30 34 72 28 113-7 48-36 95-91 121-28-3-56-7-84-10 6 22 6 54 12 75-34 8-69 8-97 0-43-13-59-40-59-66 1-52 61-106 122-27zm-831 1575c-40-44-36-112 10-151 46-39 116-35 156 9 40 44 36 112-10 151-46 39-116 35-156-9zm231-266c-34-38-30-95 8-128 39-33 98-30 132 8 34 38 30 95-8 128-39 33-98 30-132-8zm25-284c-28-31-25-77 7-105 32-27 80-24 108 7 28 31 25 77-7 105-32 27-80 24-108-7zm-48-250c-22-24-19-60 5-81 25-21 62-19 84 5 22 24 19 60-5 81-25 21-62 19-84-5zm-36-211c-15-17-14-43 4-58 17-15 44-13 60 4 15 17 14 43-4 58-17 15-44 13-60-4zm-13-192c-12-13-11-33 3-45 14-12 34-10 46 3 12 13 11 33-3 45-14 12-34 10-46-3zm385 1086c-76 207-139 402-75 625 80 279 280 401 533 502-86-137-135-250-158-413-3-71-6-142-9-212-28-235-104-362-290-502zm555 424c-53-136-139-181-253-251 0 116-2 198 41 277 70 127 318 228 445 135-93-41-173-75-234-161zm-86-576c-19 71-46 125-10 194 40 77 123 106 198 140-28-41-48-73-57-107-13-51-11-60-28-102-17-43-56-82-103-125zm1136-521c-14 84-43 164-94 240-167 138-240 237-233 462 358-127 441-363 327-702zm-372 58c-296 20-458-70-475-370 145 49 232 88 307 218 46 65 101 113 168 152zm-292-363c37 49 69 82 106 104 127 75 244 51 328-22 47-41 85-97 108-159-128 109-211 94-332 2-112-4-122 7-211 74zm-731 1865c-150-116-264-250-257-452 2-64 23-127 73-209-54 283 4 433 185 660zm598-1740c33 96 109 197 256 209-123-54-192-113-256-209zm793 421c-21 166-66 240-195 352 92-110 153-222 195-352zm-1255 760c5 88 50 175 192 242-82-75-144-140-192-242zm1089-140c65-29 146-67 215-38-85 49-123 60-215 38zm-2917 2131c43-20 59-17 89 20 50-14 78 1 97 20 28 28 29 73-3 122-30-51-39-69-95-50-38 64-104 84-171 27-173-148 101-415 275-304 248 157 217 535-60 633 1 47-39 61-80 72 25-28 26-22 25-59-55 18-83 27-172 8 0 0 10-14 20-14 121-2 264-73 330-168 32-46 50-104 49-175-110 155-226 241-359 261-139 21-288 2-461-39-182-44-299-76-485-15-80 26-148 77-198 137-49 58-92 134-75 238 31-6 63-12 94-19-6 61 11 145 69 179 51 30 99 28 137 6 83-47 115-183 26-253 188 43 238 201 135 318-117 133-324 167-463 56-102-81-128-225-107-329 51-252 287-366 483-402-175-90-318-179-401-339-48-95-37-225-53-297-25-22-42-33-59-36-22-3-44 7-84 24 34-85 100-99 175-54-29-116-91-224-229-237-53-5-94 15-66 89-20 25-29 36-38 36-31 0-43-21-46-47-8-91 67-143 157-136 99 8 181 71 227 151 1-16 2-32 3-47-55-42-95-61-115-130 31 17 55 23 94 36-13-100-21-170 60-244 101 82 66 163 15 267 32-10 42-20 73-41-5 66-33 89-90 116-7 21-7 47-13 67 3 29 5 57 8 86 82-79 157-105 265-134 89-6 162 1 218 37 99 63 146 141 150 216 5 97-60 190-181 242-41 3-133 105-53 170 14 11 38 14 72 3-7 71-78 79-124 40-38-32-58-97-9-186-63-14-111-51-140-95-43-67-43-151 12-206 63-64 148-72 207-31 83 57 60 141 15 172-46 32-108-3-83-56 47-21 53-50 38-68-22-25-86-30-145 37-40 54-21 111 34 154 43 33 83 43 120 38 171-23 263-218 135-333-62-55-128-87-192-91-99-7-180 27-239 79-117 104-130 236-83 354 85 213 363 364 589 376-237-259 39-607 311-434 63 40 99 152 55 216-64 91-165 85-240 27 106-12 157-104 119-142-47-47-149 8-199 32-15-5-30-11-45-16-94 113-13 232 93 312 52 39 110 68 156 82 127 38 257 57 396 19 75-21 148-60 215-126 40-44 71-88 85-131 21-63 5-126-72-192-25 18-33 21-64 25 0-22 4-32 13-53-24-15-56-20-86-14-35 7-69 30-85 70 4 19 8 39 12 58-16-3-40-1-57-4-4 24-3 49 5 68 12 29 33 39 52 38 38-3 76-48 14-86zm-1132 662c35 26 85 20 112-15 27-34 20-83-15-109-35-26-85-20-112 15-27 34-20 83 15 109zm186-175c30 22 72 17 95-12 23-29 17-70-13-92-30-22-72-17-95 12-23 29-17 70 13 92zm211-32c24 18 59 13 78-10 19-24 14-57-10-75-24-18-59-13-78 10-19 24-14 57 10 75zm189 21c19 14 46 10 60-8 14-18 11-44-8-58-19-14-46-10-60 8-14 18-11 44 8 58zm159 14c13 10 33 7 43-6 10-13 8-32-6-41-13-10-33-7-43 6-10 13-8 32 6 41zm144 0c10 8 25 6 33-4 8-10 6-24-4-32-10-8-25-6-33 4-8 10-6 24 4 32zm-829-214c-151 64-292 118-463 84-212-42-313-176-402-348 107 53 193 82 316 90 53-1 106-3 159-4 177 8 275 54 389 178zm-344-367c104 30 142 88 200 164-87 6-148 11-209-15-99-42-186-211-123-305 35 63 65 117 132 155zm434 31c-52 17-91 39-144 17-59-24-85-81-114-131 32 18 57 30 83 34 39 7 45 5 78 14 33 10 64 35 98 66zm331-821c-62 14-120 38-174 78-94 124-164 180-332 186 76-257 248-327 507-265zm-24 263c0 208 75 317 300 314-44-99-78-158-178-204-51-29-90-65-122-110zm285 186c-38-23-65-44-83-69-62-85-50-168 0-231 28-35 68-64 113-84-75 95-59 152 15 232 9 78 1 86-45 151zm-1354 607c94 99 200 172 350 157 48-5 94-22 152-61-209 52-323 19-502-96zm1267-507c-73-18-153-66-169-169 47 83 94 129 169 169zm-354-533c-122 23-176 58-253 154 77-70 158-118 253-154zm-503 917c-66 1-133-26-190-122 60 54 112 93 190 122zm49-769c19-47 42-106 18-152-32 62-38 89-18 152zm3780-6764c3 18 15 45 37 66 42 40 115 36 132-23 27-94-71-145-149-149-202-11-353 106-433 249-314 562-67 1217 145 1790 26 70 43 143 61 213 31 198 21 373-50 565-129-17-264 33-356 108-43 35-77 78-97 126-60 141 19 245 181 227 169-18 314-220 378-373 42 3 95 29 120 46-31 169-92 314-171 450-84 144-199 271-241 435-35 138-9 268 93 413-61-140-70-224-41-379 21-85 56-159 97-229 50-85 108-164 161-254 69-118 114-248 161-388 127 145 199 317 151 512-31 124-87 204-181 287-34-12-57-18-82-20-60-4-167 28-161 103 3 39 31 64 66 78 43 17 98 19 134 4 85-36 150-114 195-204 159-318 134-631-95-843 30-355 20-658-147-970-43-65-86-130-129-195-95-141-132-270-184-432-44-208-67-412-72-625 21-222 65-467 285-585 60-32 124-42 191-4zm-12 2776c-35-22-73-38-114-48 48-218 52-407 12-618 101 209 117 431 102 667zm-252 18c-57 124-166 316-313 301-76-8-93-44-65-114 52-130 281-209 379-187zm-460 15l-96-287-312 1 253-177-97-287 252 178 252-178-97 287 253 177h-312l-95 288zm8-844l-121-193-227 52 153-171-121-193 215 88 152-172-20 225 215 87-227 51-19 225zm-57-610l-86-129-153 40 101-119-86-129 148 56 100-119-9 154 148 55-154 39-9 154z"/></g></g><g fill="#201e1e"><g stroke="#201e1e"><path d="m16127 3648c4-11 10-19 20-25 10-6 20-7 30-4 7 2 14 7 21 14 7 7 9 18 4 32-3 10-10 18-20 24-10 6-20 7-30 4-6-2-11-5-15-9-12-10-15-23-11-36zm148 55c4-10 11-18 21-23 10-5 20-6 30-2 7 3 14 8 21 15 7 8 8 18 2 32-4 10-11 17-22 23-11 5-21 6-30 3-6-2-11-6-14-10-11-11-14-23-9-37zm139 54c4-10 12-18 22-23 10-5 21-5 30-1 7 3 13 8 20 16 7 8 7 18 1 32-4 10-12 17-22 22-11 5-21 6-30 2-6-3-11-6-14-11-11-11-13-24-7-37zm388-71c10-20 14-36 13-49-1-13-6-22-15-27-14-6-30-4-49 7-19 11-34 20-44 28-10 8-24 22-40 44-17 21-30 41-39 61-14 29-13 46 1 53 11 5 26 4 43-2 17-7 31-13 43-20 11-7 25-17 42-31 17-14 32-34 46-62zm-129 164l33-41 1-2c-2 0-5 1-7 2-3 1-21 10-56 27-35 17-65 20-91 9-25-11-26-42-2-91 13-26 29-52 50-78 20-26 47-46 79-61 32-15 65-24 98-27 33-3 59 0 78 8 25 11 35 25 33 41-3 16-7 31-13 43-4 9-11 20-19 34-9 14-18 28-28 42l-77 105c-16 20-27 36-35 47-8 11-15 22-22 32l-40 59-29 48c-6 12-6 19 0 21 4 2 16 2 34-1l-3 6-2 4c-2 4-13 7-34 11l-47 12c-29 8-47 11-55 7-9-4-10-15-2-32 6-12 21-36 46-72l47-68c19-28 40-57 64-85zm455-51l77 10c-20 17-44 40-72 71-28 30-63 79-104 145-3 6-4 9 0 11 3 2 11 2 23 1 12-1 21 0 24 2l5 1 6 2 1 4c-2 4-6 6-12 7l-63 4-55 4c-11 0-18-1-23-4-8-5-7-14 1-27l17-22c45-55 82-99 109-131 28-33 50-59 66-78zm-188 179c-9 1-23 3-40 5-18 2-36 3-55 4-19 1-33-2-43-7-11-7-10-21 4-44 4-7 8-12 11-16 3-4 9-12 19-24l49-57 73-78c7-12 9-19 4-22-9-5-31-2-67 10l-10-6 6-10 21-8 46-12c18-3 36-4 54-3 18 1 30 4 37 8 9 5 8 17-3 35l-23 32-52 64-61 73c-12 20-15 31-10 34 7 4 27 3 61-3 33-6 53-7 59-4 1 4 1 6 0 8-2 4-4 6-7 6l-19 5-55 9zm439 32c7-9 5-17-5-24-12-9-22-13-30-15-8-1-17 1-28 7-11 6-27 17-49 34-22 17-40 34-55 54-28 38-29 66-2 85 14 10 35 17 63 20l28 3 18 3-1 11c-3 4-8 6-16 7l-28 1-25 1c-60 5-103-2-128-20-17-12-24-27-24-47 1-20 11-43 32-70l23-26c12-17 26-30 40-41 14-11 34-23 60-37 26-14 55-21 88-20 33 0 64 10 92 30 23 16 29 31 19 45-7 10-21 19-41 26-20 8-37 13-53 15-15 3-25 4-31 5-5 1-18 2-38 3-20 1-38 2-55 1-17-1-28-3-35-6-8-6-11-10-9-14 2-3 9-5 20-6h47l53-1c8 0 15-1 21-2 7-1 15-2 24-5 10-3 18-8 24-17zm-21 310l-70-22c1-1 3-2 6-4 3-2 6-4 8-6l71-66 109-103c9-11 13-18 10-20-3-2-10-4-22-5-12-1-20-2-25-4l-5-3-5-3-2-4c3-4 8-6 14-6l63 4 56 4c11 1 18 4 23 8 6 5 4 13-6 26l-21 21c-77 70-125 114-145 131-20 18-39 35-59 52zm168-66c3-3 7-6 12-11 5-4 14-10 28-19 13-8 23-15 28-21 4-5 4-8 1-11-7-5-25-6-55-3l-29 1c-13-1-21-3-24-6 0-4 0-7 1-8 7-8 16-11 27-8l52-12c27-6 51-8 74-5 23 2 38 7 47 14 12 9 12 20 1 34-7 8-35 20-83 35-49 15-75 22-79 18zm333 75l17 12c12 11 17 33 16 65-1 33-11 58-30 77l-24 20-40 25-42 27c-12 8-23 12-31 12-9 0-17 0-25-1-8 0-17-2-27-4l-54-10c-28-4-51-15-70-32-18-17-23-38-17-64 7-26 22-51 45-74 19-19 47-39 84-59 38-21 65-31 83-32 18-1 41 6 68 18l44 20zm-197 73c-16 16-29 33-38 51-9 18-12 33-9 45 3 13 7 21 12 26 3 3 12 5 27 5 15 1 36-7 62-23 27-16 52-36 76-59 14-14 27-30 38-48 7-9 11-20 12-32 1-12-2-22-9-29-4-4-8-6-13-7-5-1-9-1-12-2-3-1-9-1-18-1-8 1-18 5-29 10l-68 38c-8 4-19 13-31 25zm480 385l11-5c15-11 15-27-1-48-8-10-17-18-27-24-10-6-19-7-25-2-6 4-10 12-11 22l-3 52c0 11-1 22-1 31 0 10-1 21-2 34-1 13-4 24-9 33-5 9-11 17-19 25-24 17-52 22-84 14-32-8-55-17-69-25-13-9-24-17-33-26-9-8-15-15-20-21-21-27-22-46-4-59 11-8 23-13 36-14 13-1 21-2 23-2 2 0 5 0 7 1l7 2 3 4 3 3-9 6c-9 7-12 17-10 32 2 15 9 30 20 44 9 12 20 20 32 26 12 5 22 5 30 0 8-6 12-15 14-28 3-12 5-32 5-60l3-60c1-14 3-24 7-31 4-7 9-13 15-18 13-10 32-14 55-13 23 1 47 8 73 21 25 13 47 31 65 54 6 12 2 23-12 33-12 8-31 17-58 25-11-14-16-23-14-25zm173 210c10-6 11-14 5-24-8-12-16-20-23-24-7-4-17-5-29-3-12 2-32 6-58 14-27 8-50 18-71 31-40 25-51 52-33 79 10 14 27 28 51 41l25 13 16 9-5 10c-4 3-10 3-17 2l-27-9-24-8c-58-17-95-38-112-63-11-17-13-34-4-52 8-18 27-37 55-55l31-16c18-11 35-19 52-24 17-5 40-10 69-14 29-4 59 0 90 12 31 12 56 32 74 60 15 23 16 39 1 48-11 7-27 10-48 10-21 0-40-1-55-4-15-3-25-5-30-6-5-1-17-4-36-10-19-6-36-12-52-19-15-7-25-13-30-18-6-8-7-14-3-16 3-2 10-1 21 2l44 16 50 17c7 2 14 4 21 6 6 2 15 3 25 4 10 1 20-1 29-7zm-137 279l-55-48c1 0 4 0 7-1 3-1 7-2 10-3l92-33 143-51c13-7 19-11 18-15-2-3-8-7-18-13-11-6-18-10-21-14l-3-4-3-4v-4c5-2 10-2 15 0l56 28 49 26c9 5 15 11 18 16 4 7-2 14-16 21l-28 11c-100 33-162 54-188 63-26 8-51 16-76 24zm181 6c4-1 9-3 16-5 6-2 18-4 33-6 16-2 27-5 34-8 5-3 7-6 5-9-4-7-20-15-49-24l-27-10c-11-6-18-11-20-15 1-4 3-6 4-7 10-5 19-4 28 4l52 10c27 5 50 13 70 24 20 11 32 21 37 31 7 13 2 23-13 31-10 5-40 5-91 0-51-5-77-10-80-15zm280 407l12-2c18-7 22-22 12-47-5-11-11-22-19-30-8-9-16-12-23-9-7 3-13 9-17 19l-17 50c-4 11-7 21-9 30-3 9-7 20-12 32-5 12-11 22-18 30-7 8-15 14-25 19-28 10-56 7-85-9-29-16-48-31-59-43-10-12-18-23-24-34-6-10-10-19-13-26-12-31-8-50 13-58 13-5 26-6 39-4 13 2 21 4 23 4 2 0 5 1 6 3l6 4 2 5 2 4-10 4c-10 4-17 13-19 28-2 15 0 31 7 47 5 14 13 25 23 33 10 8 20 11 29 8 9-3 16-11 22-23 7-11 14-30 22-56l20-56c5-13 10-22 15-28 6-6 12-10 20-13 16-6 35-5 56 2 22 7 43 21 64 40 21 20 36 43 47 69 2 13-4 22-21 28-13 5-34 8-63 8-7-17-9-26-6-28zm108 244c11-3 14-11 11-22-5-14-10-24-15-29-6-6-15-9-27-10-12-1-32-2-60-1-28 1-54 5-77 12-46 14-64 37-53 68 5 16 18 34 38 52l20 18 13 13-8 8c-5 1-10 0-17-3l-23-16-21-14c-51-30-82-60-92-89-6-19-3-36 10-52 13-16 35-29 68-39l34-8c20-6 39-10 57-11 18-1 41 1 71 4 29 3 57 15 84 34 27 19 45 45 56 76 9 26 5 42-12 47-12 4-28 3-49-2-21-5-38-11-52-18-14-7-23-11-28-13-5-2-15-9-32-19-17-10-32-21-45-31-13-10-21-19-25-25-3-9-3-15 1-16 3-1 10 1 19 7l38 27 44 29c6 4 13 8 18 11 6 3 13 6 23 10 9 3 19 4 30 0zm114 297l47 60c-27-2-61-2-103 1-42 2-102 13-180 32-6 2-9 4-8 7 1 3 6 9 16 17 9 8 15 14 16 18l3 4 2 6-2 3c-5 1-9 0-14-3l-48-40-42-35c-7-7-12-13-13-18-2-8 5-15 20-18l28-4c72-8 130-14 173-18 44-4 78-8 104-10zm-264-2c-8-5-18-13-32-24-14-11-28-23-42-35-14-13-22-24-25-34-3-12 9-22 36-28 8-2 15-3 19-4 5-1 15-2 31-4l76-7 109-5c14-3 20-7 19-13-2-10-21-23-55-39l-3-11 11-3 20 9 41 23c15 10 29 22 40 35 12 13 18 23 20 31 3 10-7 18-28 23l-39 7-84 10-96 9c-23 6-33 11-32 18 2 8 17 21 45 40 28 18 43 31 45 38-2 3-4 5-6 6-4 1-7 1-9 0l-17-9-45-31zm226 362c0-4 2-6 8-7 7-1 28 14 63 45 36 30 54 53 56 69 1 11-12 18-38 20l-45 1-85-3-74-2-139-5-100-5-39 2c-15 1-22 5-22 11 0 5 7 16 20 33 1 10-4 15-15 16-16 1-25-3-26-15-1-15-4-26-8-34-4-7-7-14-10-19-3-5-7-12-13-21l-13-28c-1-10 10-17 33-19 28-2 83 0 167 7l140 11 100 6 58-1c20-2 29-6 29-13-1-9-9-18-23-28-15-10-22-17-23-21zm-195 168c1 16 13 30 34 40 21 10 51 18 90 22 39 5 71 6 96 4 28-2 41-10 40-23-1-12-16-29-45-51-37-26-56-42-57-50 3-3 5-5 8-5 10-1 19 2 28 7 9 6 21 15 37 29l33 28c52 40 78 69 80 90 2 20-18 32-60 36-9 1-18 1-28 2-10 0-35-1-74-4-40-3-82-10-127-23-45-13-70-42-74-88l-4-39-3-31-5-17c0-1 0-2 1-4 1-1 2-2 2-3 4 0 12 2 22 6l9 2c4 0 7 0 10 1 3 1 4 3 5 7 0 5-1 10-5 15-10 19-14 35-13 49zm308 326l-1-21c0-12-3-22-9-31-5-9-16-17-32-24-16-7-40-14-73-19-33-5-61-7-83-6-32 1-48 9-47 23 0 12 10 27 29 43 19 16 38 30 56 42l26 19c-4 2-8 4-11 4-10 0-21-2-31-8-11-5-21-13-31-22l-35-29c-47-41-72-73-72-97-1-26 22-39 70-41 4 0 11 0 19 0 9 0 20 1 33 3 13 2 28 4 45 8 16 4 38 10 63 18 26 8 49 21 68 37 20 16 33 31 41 45 8 14 12 28 13 44l9 66c1 17-4 26-13 27-5 0-10-1-16-4-6-3-10-7-13-11l-4-16-1-23-1-27zm-102 74l-97-11-37-2c-4 0-6 1-8 2-1 1-3 2-3 2l14 18c4 4 9 8 13 14 4 5 9 11 13 17 4 6 7 11 7 15-2 3-3 4-4 5-2-1-4-1-6-2-2-1-4-3-7-5-35-36-59-61-71-77-14-16-21-28-21-38 0-10 11-15 33-16l43 1 75 6 79 7c15 1 28 2 39 4 11 2 23 5 37 11 14 5 26 12 36 20 9 9 13 18 14 25 0 13-10 20-31 20l-117-14zm-182 145l-24-67c1 1 3 1 7 2 3 1 7 2 10 3l97 15 150 23c15 1 23-1 23-4 0-4-3-10-10-20-7-10-10-17-11-22l-1-5-1-5 2-3c5 0 10 3 13 7l35 51 30 46c5 9 8 16 7 22 0 8-9 11-25 11l-30-4c-104-18-169-29-195-33-26-5-53-10-78-14zm155 90c4 1 10 2 16 3 7 1 17 5 32 10 15 5 26 8 34 9 6 0 9-2 9-6 0-8-10-23-31-44l-18-22c-7-10-10-18-10-22 3-3 6-4 7-4 11 0 18 6 23 17l41 33c21 17 37 35 49 54 12 19 17 34 17 45-1 15-10 22-27 21-11 0-37-15-79-43-42-28-63-45-63-50zm-10 218c-2-6-3-10-3-12l4-9c3-2 5-2 6-2 4 0 8 2 12 6 4 4 7 7 9 9 1 2 20 8 56 18 36 10 82 19 138 28 56 8 107 14 153 16l32 47 9 13c5 7 8 14 7 19 0 3-2 5-4 7-7 0-12-2-16-6-4-3-6-6-8-9-2-2-3-5-4-6-42-2-91-8-149-18-58-10-118-23-180-40l-56-54-7-6zm-139-47c14 1 26 6 37 17 11 10 16 22 15 36-1 9-4 20-11 33-7 13-21 18-41 17-14-1-26-6-37-17-11-10-16-23-15-37 0-9 4-19 11-32 7-12 21-18 41-17z" fill-rule="nonzero" stroke-width="7.62"/><g stroke-linejoin="round" stroke-linecap="round"><text x="10500" y="14850" font-family="&apos;ElGar&apos;" stroke-width="29" font-size="911.05" transform="matrix(.93927-.41477.42815.90993-728.17 2297.63)">Texto 02</text><text x="10500" y="14850" font-family="&apos;Vijaya&apos;" font-weight="bold" stroke-width="20" font-size="556.09" transform="matrix(.93138-.43114.44505.90228-681.52 3049.98)">00.00.0000</text></g></g><g font-family="&apos;Arial Black&apos;" font-weight="900" font-size="341.64"><text x="10500" y="14850" transform="matrix(1.03225 0 0 1 4089.61 1105.12)">NN 1</text><text x="10500" y="14850" transform="matrix(1.03225 0 0 1 4084.17 1400.31)">NN 2</text></g></g><g fill="#373435" font-family="&apos;Arial&apos;" font-size="317.5"><text x="10500" y="14850" transform="translate(-7736.68 8091.38)">DESC 1</text><text x="10500" y="14850" transform="translate(-7733.7 8364.91)">DESC 2</text><text x="10500" y="14850" transform="translate(-7739.36 8664.77)">DESC 3</text></g></svg>