<svg xmlns="http://www.w3.org/2000/svg" width="744.09" height="1052.36" viewBox="0 0 21000 29700" shape-rendering="geometricPrecision" image-rendering="optimizeQuality" fill-rule="evenodd" clip-rule="evenodd"><defs><clipPath id="0"><path d="m7103 2744c-2217-62-5769 1819-5776 6304-2 1199 447 5186 553 6768 128 1897 222 4598 261 6521 17 1663 388 2627 1099 3017 947 342 1929 443 2964 192 1071-284 1603-1168 1618-2956-40-2309-310-6305 109-8404 543-2717 1229-3073 1494-6345 159-1969 101-5030-2323-5098z"/></clipPath><clipPath id="1"><path d="m14002 2744c2201-62 5727 1819 5734 6304 2 1199-444 5186-549 6768-127 1897-221 4598-259 6521-17 1663-386 2627-1091 3017-940 342-1915 443-2943 192-1063-284-1591-1168-1606-2956 40-2309 308-6305-109-8404-539-2717-1220-3073-1483-6345-158-1969-100-5030 2307-5098z"/></clipPath></defs><text x="10081" y="24465" fill="#201e1e" font-family="&apos;Arial Black&apos;" stroke="#201e1e" font-weight="900" stroke-width="7.62" font-size="705.56">36</text><g fill="none" stroke="#373435" stroke-width="80"><circle cx="10533" cy="1326" r="460"/><path d="m10533 515v1621"/><path d="m9723 1326h1621"/><circle cx="10533" cy="25836" r="460"/><path d="m10533 25026v1621"/><path d="m9723 25836h1621"/></g><g fill="#fff"><rect x="9843" y="22866" width="1347" height="637" rx="318" stroke="#fff" stroke-width="20"/><path d="m7103 2744c-2217-62-5769 1819-5776 6304-2 1199 447 5186 553 6768 128 1897 222 4598 261 6521 17 1663 388 2627 1099 3017 947 342 1929 443 2964 192 1071-284 1603-1168 1618-2956-40-2309-310-6305 109-8404 543-2717 1229-3073 1494-6345 159-1969 101-5030-2323-5098z"/></g><g clip-path="url(#0)"><g fill="#201e1e" stroke="#201e1e" stroke-width="7.62"><path d="m8852 6255c22 52 37 62 92 51 32 51 68 60 99 57 45-4 82-44 93-114-66 24-88 33-121-28 18-88-24-158-127-158-265 1-238 459-1 494 338 50 606-320 445-626 38-42 14-87-13-129 0 45 5 40-25 73-34-60-51-90-142-141 0 0-3 20 6 29 102 96 171 273 153 411-9 67-38 134-95 199 27-227-6-397-106-519-104-127-247-227-428-324-192-102-318-164-431-365-48-86-67-185-63-280 4-91 25-195 123-276 22 30 44 60 67 90 42-61 123-124 200-111 68 12 107 52 123 101 35 107-44 258-176 252 196 108 363 2 366-186 4-213-149-406-356-413-152-5-287 106-350 218-153 270-39 560 102 746-222-54-415-84-612-3-116 49-208 178-279 231-39 1-62-3-79-14-21-14-32-41-54-88-37 104 9 169 109 187-115 83-254 134-384 38-50-37-70-87 13-133 2-39 3-55-5-63-27-24-54-14-76 8-78 77-54 184 29 247 92 70 212 76 314 38-12 15-23 30-35 45-80-5-130-19-201 29 40 9 66 22 109 41-90 81-151 139-139 271 152 4 185-98 222-233 20 34 21 52 31 94 48-64 42-108 14-177 10-24 31-48 41-72 25-24 49-48 74-73 9 136 54 219 123 329 73 75 141 126 217 137 135 19 236-15 299-80 81-84 97-221 34-363-33-34-33-200 87-197 21 1 43 17 65 53 49-70-6-134-76-134-58 0-126 43-154 163-66-36-135-40-195-22-89 27-156 105-152 198 5 108 72 181 154 190 116 12 162-82 148-145-15-65-96-81-116-14 24 55 7 87-21 92-39 6-97-40-96-147 8-80 70-118 150-115 63 3 105 26 133 60 130 155 56 405-144 410-97 2-178-20-238-67-91-71-134-165-144-258-20-186 73-318 206-389 240-129 599-50 803 115-407 53-443 586-72 640 86 12 205-62 216-155 16-134-76-207-186-213 83 94 54 218-9 222-77 6-123-124-147-185-17-7-34-14-52-21 7-176 171-223 325-213 75 5 148 23 199 47 140 64 266 149 356 292 49 78 81 170 87 284 0 72-7 136-29 186-32 74-95 120-213 120-8-36-12-46-36-73-17 20-22 33-30 59-33-5-64-25-85-54-25-34-36-82-19-131 19-15 37-30 56-44-17-10-36-30-52-40 16-25 36-47 58-59 33-18 59-10 75 6 31 33 28 103-56 90zm-459-1490c51 4 89 49 86 101-4 52-48 92-98 88-51-4-89-49-86-101 4-52 48-92 98-88zm23 306c43 3 75 41 72 85-3 44-40 77-83 74-43-3-75-41-72-85 3-44 40-77 83-74zm157 194c35 2 62 34 59 70-2 36-33 63-68 61-35-2-62-34-59-70 2-36 33-63 68-61zm179 129c27 2 48 26 46 54-2 28-25 49-53 47-27-2-48-26-46-54 2-28 25-49 53-47zm149 111c19 1 34 19 33 38-1 20-18 35-37 34-19-1-34-19-33-38 1-20 18-35 37-34zm124 113c15 1 26 14 25 30-1 15-14 27-29 26-15-1-26-14-25-30 1-15 14-27 29-26zm-884-451c-80-176-160-336-333-438-216-127-408-84-619 5 134 35 231 76 343 165 45 43 89 85 134 128 159 131 280 165 475 141zm-585 67c114 54 192 30 301 6-70-73-118-126-192-149-118-38-326 48-345 183 80-30 148-57 236-39zm399 310c-31-56-48-106-111-128-70-24-137 8-202 31 42 9 72 17 98 33 39 24 43 31 78 47 36 17 83 18 136 17zm-359 1010c-43-61-73-129-89-208 16-187-1-293-141-430-136 295-42 493 230 638zm185-260c163-191 313-232 505-53-115 56-191 84-314 48-67-13-128-10-191 5zm392 53c-51-9-91-10-126-2-121 29-175 115-181 211-3 54 8 112 32 165 10-146 68-186 195-201 69-64 68-78 80-173zm-693-1612c159-17 307-1 425 129 37 41 63 94 83 175-139-211-264-269-508-304zm696 1453c-77-41-184-58-278 23 105-40 182-44 278-23zm-724 212c-88-117-106-191-97-339 12 125 44 232 97 339zm285-1232c-56-52-135-80-260-37 94-2 170 2 260 37zm-560 743c-21 58-46 130-104 153 21-82 37-112 104-153zm730 3581c-2 80-17 100-94 116-15 84-58 115-100 128-61 19-129-14-179-99 98-4 131-5 144-101-68-105-49-219 85-274 346-141 542 470 252 642-414 246-952-92-896-576-71-35-62-106-48-174 23 58 14 56 69 82 13-96 20-144 113-260 0 0 14 25 7 40-84 180-84 447 10 617 46 83 118 155 225 208-150-282-193-520-126-732 71-221 206-428 394-651 198-236 330-383 375-707 19-138-6-277-60-398-51-117-132-240-300-294-14 51-27 102-41 153-85-56-223-96-316-37-83 52-113 125-109 197 9 158 188 312 357 234-200 245-472 197-571-46-113-275-12-608 254-729 195-88 428-15 567 96 337 270 335 708 246 1025 261-189 498-332 795-332 175 2 361 120 480 151 52-20 80-37 96-60 21-30 21-71 25-143 101 116 74 225-47 301 193 47 399 38 519-156 46-75 47-151-85-166-22-49-33-70-26-84 23-46 63-48 103-31 140 59 164 210 87 337-84 140-237 212-390 218 23 13 46 27 68 40 102-49 160-94 277-70-48 33-74 63-121 111 158 57 267 100 319 278-196 86-290-28-408-184-9 54-1 79 7 140-95-58-109-118-107-223-26-26-65-46-91-72-44-18-89-37-133-55 57 183 41 314 7 495-56 137-119 239-214 294-165 97-315 108-430 56-148-67-238-236-229-454 26-63-59-278-213-209-27 12-48 45-57 104-100-65-61-177 30-215 75-31 186-11 282 130 67-82 156-125 243-133 130-12 256 53 298 176 49 143-1 274-104 330-145 78-253-19-266-110-14-93 84-157 144-80-4 85 35 118 74 108 53-13 107-104 51-243-51-100-150-117-254-69-80 37-124 90-144 149-90 271 132 558 396 457 127-49 222-122 275-214 83-142 91-287 57-414-69-253-256-375-466-397-378-39-805 256-987 581 557-150 874 526 418 794-106 62-298 29-360-86-89-165-6-310 134-377-60 166 40 313 124 285 104-34 97-227 97-320 19-18 38-36 57-55-99-225-336-198-531-103-95 47-181 110-235 167-150 159-271 336-316 571-24 127-19 265 30 416 37 94 78 173 132 227 79 79 184 105 338 42-8-51-8-66 10-114 32 18 45 31 68 60 40-23 71-67 83-116 15-58 5-125-41-180-32-9-64-18-95-28 16-22 31-58 48-80-33-25-70-42-105-45-52-5-82 18-94 48-23 59 16 149 118 87zm-159-2186c-64 32-91 111-60 177 31 66 108 94 173 62 64-32 91-111 60-177-31-66-108-94-173-62zm125 411c-54 27-77 94-51 150 26 56 92 79 146 52 54-27 77-94 51-150-26-56-92-79-146-52zm-105 336c-44 22-63 77-42 123 21 46 75 65 119 43 44-22 63-77 42-122-21-46-75-65-119-43zm-168 263c-34 17-49 60-32 95 17 35 58 50 92 33 34-17 49-60 32-95-17-35-58-50-92-33zm-137 224c-24 12-35 42-23 68 12 25 41 36 66 24 24-12 35-42 23-68-12-25-41-36-66-24zm-104 213c-19 9-27 33-18 52 9 19 32 28 51 18 19-9 27-33 18-52-9-19-32-28-51-18zm922-1061c15-272 38-523 211-749 216-281 489-328 808-326-157 117-262 223-364 398-36 79-73 159-109 238-140 256-281 365-547 438zm795-226c-120 131-235 142-389 169 54-133 91-227 174-297 134-113 449-112 542 53-120 4-221 6-327 75zm-362 617c13-89 8-164 80-227 79-69 182-63 278-68-50 34-85 61-111 96-38 52-40 63-78 103-39 41-99 68-169 95zm979 1123c24-102 30-207 11-318-116-235-147-382-35-636 326 312 305 620 25 954zm-373-239c-309-161-526-134-684 202 179 12 291 7 433-106 80-53 162-82 251-96zm-483 279c63-39 113-62 163-70 172-27 286 55 343 178 32 69 46 150 42 232-87-184-183-205-356-157-122-47-128-65-192-183zm84-2470c-216 63-401 163-488 396-28 74-35 156-19 272 74-349 207-492 507-668zm-170 2265c80-94 210-174 373-119-157 5-259 40-373 119zm1050-112c55-199 41-305-45-493 48 169 61 325 45 493zm-996-1452c47-98 135-176 320-187-124 48-220 93-320 187zm1107 667c56 64 126 144 214 144-69-95-105-126-214-144zm-2145-3791c37 43 55 47 105 19 47 39 84 35 114 22 43-19 65-70 54-141-56 45-74 61-126 13-11-91-73-144-172-110-255 89-85 521 154 476 341-64 483-509 231-750 23-53-14-88-53-120 14 43 18 37-1 78-51-46-77-70-181-89 0 0 4 21 15 25 129 59 250 206 276 345 13 68 6 142-29 223-46-228-130-380-265-465-140-88-309-137-514-170-217-35-357-52-529-209-74-67-123-156-149-249-25-89-37-196 31-307 31 22 62 43 93 65 21-72 79-161 158-173 69-11 120 14 150 56 67 92 38 263-90 301 222 39 350-119 294-301-63-206-271-341-472-280-148 45-243 198-269 326-63 311 138 552 332 684-230 22-426 57-590 200-96 86-145 240-196 315-38 14-61 18-80 13-25-7-44-29-79-67-3 113 62 160 163 144-85 119-203 213-358 164-60-19-95-61-29-132-10-38-14-54-24-59-34-14-57 4-71 33-51 100 5 195 106 228 110 37 228 2 315-68-6 18-13 37-19 55-79 22-131 25-185 95 42-5 70-1 118 3-61 108-102 184-49 307 147-47 147-156 141-298 29 26 36 43 60 80 26-78 6-117-42-175 3-27 15-57 17-83 16-31 32-63 48-94 52 128 120 193 222 276 93 48 175 74 252 59 136-26 223-93 263-177 51-108 24-245-81-361-43-22-95-182 22-218 21-6 47 2 79 30 26-84-47-127-115-104-56 19-108 84-97 208-75-13-143 6-195 44-77 56-117 153-84 241 38 103 126 151 208 132 116-27 131-133 97-189-35-58-118-46-116 25 41 45 34 82 9 95-35 19-106-6-139-109-18-80 30-137 109-160 61-18 109-10 147 13 174 106 182 371-10 443-92 34-178 40-250 15-110-38-181-114-220-201-78-173-30-331 76-443 191-204 561-247 810-156-376 186-242 712 132 640 87-17 178-128 159-221-26-134-138-174-246-143 109 63 121 192 61 217-73 31-157-78-199-130-19-1-37-2-56-3-48-172 95-271 246-313 74-20 150-27 206-21 155 15 303 55 435 163 71 59 131 137 173 244 23 69 36 133 31 189-7 82-54 147-167 186-19-32-26-40-57-58-10 25-10 39-10 66-33 7-69-3-99-24-35-25-60-67-59-119 13-20 27-41 40-61-19-4-44-17-63-21 7-30 20-57 37-76 26-28 54-30 74-19 40 21 59 90-25 105zm-910-1282c50-13 101 17 114 69 13 51-17 104-67 117-50 13-101-17-114-69-13-51 17-104 67-117zm119 287c42-11 85 15 96 58 11 43-14 88-57 99-42 11-85-15-96-58-11-43 14-88 57-99zm212 135c35-9 70 12 79 48 9 36-12 72-46 81-35 9-70-12-79-48-9-35 12-72 46-81zm213 64c27-7 54 9 61 37 7 28-9 56-36 63-27 7-54-9-61-37-7-28 9-56 36-63zm178 58c19-5 39 7 43 26 5 20-6 40-26 45-19 5-39-7-43-26-5-20 6-40 26-45zm154 67c15-4 30 5 34 20 4 15-5 31-20 35-15 4-30-5-34-20-4-15 5-31 20-35zm-993-141c-132-143-260-270-459-311-248-51-419 55-594 210 140-11 246-3 382 44 56 26 113 52 169 79 194 73 321 66 502-22zm-542 259c126 14 194-35 292-94-90-47-154-82-232-80-126 2-299 154-275 291 68-56 125-104 215-116zm481 166c-48-43-80-86-147-86-75 0-129 53-184 97 43-5 75-8 105-1 45 10 51 15 90 20 40 4 85-10 137-29zm-28 1092c-60-45-111-99-151-170-43-186-93-282-271-368-38 329 115 489 422 538zm97-312c97-238 229-327 469-219-93 93-157 144-287 150-69 10-127 33-182 68zm394-79c-52 9-91 20-122 40-107 68-132 168-108 263 14 53 43 105 83 148-36-143 7-201 125-258 46-85 41-98 22-193zm-1174-1322c148-69 295-103 450-17 49 27 90 69 135 141-200-157-339-172-585-124zm1127 1168c-87-13-195 5-260 114 89-73 161-103 260-114zm-630 445c-121-83-162-149-200-294 50 116 115 209 200 294zm-113-1281c-70-32-155-32-262 51 90-33 164-55 262-51zm-306 901c-2 63-4 140-52 182-5-85 0-120 52-182zm910 9484c11-19 38-45 70-58 64-26 141 12 131 88-15 120-144 133-230 102-222-81-331-285-350-485-75-788 496-1422 992-1977 61-68 113-143 165-214 126-212 197-417 211-669-147-41-269-160-332-289-30-60-46-125-46-190 2-189 135-271 301-175 173 99 235 397 232 602 47 16 116 11 150 3 45-208 48-402 26-594-23-204-87-402-56-609 26-174 115-310 293-428-130 131-180 224-221 413-17 107-14 207-2 307 14 120 40 238 55 366 19 166 7 336-8 518 205-107 362-269 401-514 25-156 1-274-61-412-42-2-69-6-97-16-67-23-167-110-125-193 21-43 63-59 108-58 54 1 115 24 146 58 75 81 108 199 114 323 22 437-150 783-496 919-133 419-286 761-611 1040-76 54-153 108-229 162-168 116-268 247-399 408-144 217-265 439-369 680-82 263-149 564 34 801 49 64 114 105 204 93zm1284-3176c-48 9-97 10-145 2-50 272-134 489-276 712 206-192 327-438 421-714zm-263-138c-4-168-31-438-197-490-85-26-121 7-123 99-5 172 205 369 320 390zm-488-232l-238 284-335-146 189 320-239 283 355-86 188 321 30-373 355-84-336-145 32-373zm-386 968l-220 165-220-165 84 266-221 164h272l83 267 84-266 272 1-220-164 85-266zm-346 670l-153 108-147-117 53 183-153 107 185 5 52 183 62-180 185 6-147-116 63-179zm-167 583l-104 69-96-80 32 123-104 69 123 7 31 123 44-118 123 7-96-80 45-118z"/><path d="m3302 23063c-49-49-71-52-129-13-60-43-106-35-140-17-50 27-73 91-53 176 64-60 85-80 151-28 21 109 102 168 218 118 301-131 57-639-229-562-408 110-541 663-215 931-23 67 25 106 75 140-21-51-25-44-6-95 66 52 100 78 228 91 0 0-6-25-20-30-161-59-322-227-365-393-21-81-19-172 16-273 75 272 191 449 362 539 177 94 387 137 639 158 266 22 438 30 660 204 95 74 163 178 202 288 38 106 62 235-11 375-39-23-79-47-118-70-20 90-82 202-176 224-83 20-146-6-187-54-89-105-70-315 83-374-273-26-414 177-331 392 95 244 359 389 597 295 175-69 278-263 298-420 49-383-216-657-463-799 277-48 512-109 698-297 109-113 155-305 210-400 44-20 72-28 96-23 31 6 56 31 102 74-6-137-89-188-211-159 93-152 227-277 419-232 74 17 120 65 47 158 16 45 22 65 34 69 42 14 68-10 83-46 53-126-24-236-148-267-137-34-276 18-376 111 6-23 12-46 19-69 93-34 157-43 216-132-50 10-85 8-143 7 65-137 107-233 32-377-175 70-165 202-145 375-38-29-48-49-80-92-25 97 3 143 67 208-1 32-13 70-14 103-17 40-34 79-50 119-74-151-163-223-294-314-118-50-218-74-311-49-162 44-262 133-303 239-53 136-7 299 130 430 54 23 131 212-8 267-24 10-57 2-98-29-24 104 69 149 148 115 66-28 123-111 99-261 92 9 173-21 232-71 89-75 129-196 81-300-56-121-166-171-264-140-138 44-147 173-101 238 47 67 147 45 138-41-54-51-49-96-19-115 41-26 129-3 178 120 29 95-24 169-118 204-73 28-132 22-180-2-220-112-253-434-27-538 109-50 212-64 301-41 137 36 230 122 285 223 109 203 65 398-53 545-214 265-659 351-968 264 439-260 231-885-216-764-103 28-204 172-174 283 44 160 182 198 311 151-138-66-163-221-94-258 86-45 198 81 253 139 23-1 46-1 68-2 74 204-91 338-271 402-88 31-179 46-248 45-189-4-372-38-542-157-92-65-171-154-231-280-33-82-55-158-54-226 2-100 52-183 186-242 26 37 35 46 75 65 10-31 9-48 7-81 39-11 84-3 122 20 44 27 79 75 82 139-14 26-29 52-43 78 23 3 55 17 78 20-6 37-19 71-39 95-29 36-63 41-88 30-50-22-79-104 22-130zm1216 1471c-59 21-124-12-144-73-20-61 11-128 71-149 59-21 124 12 144 73 20 61-11 128-71 149zm-169-337c-50 18-105-10-122-62-17-52 10-108 60-126 50-18 105 10 122 62 17 52-10 108-60 126zm-269-144c-41 14-86-8-100-50-14-42 8-88 49-103 41-14 86 8 100 50 14 42-8 88-49 103zm-264-58c-32 11-67-6-77-39-11-33 6-68 38-80 32-11 67 6 77 39 11 33-6 68-38 80zm-221-53c-23 8-47-4-55-28-8-23 4-49 27-57 23-8 47 5 55 28 8 23-4 49-27 57zm-193-67c-18 6-37-3-43-21-6-18 3-38 21-44 18-6 37 3 43 21 6 18-3 38-21 44zm1216 79c173 161 339 304 583 335 305 39 504-106 703-310-169 26-298 27-467-18-71-27-141-53-212-80-242-71-395-50-607 73zm634-364c-154-6-232 60-345 141 114 49 193 85 288 76 152-14 349-215 308-378-77 74-142 137-250 161zm-598-157c62 48 104 97 186 91 91-7 152-76 215-135-52 10-90 16-127 11-55-8-63-14-111-15-49-1-103 20-163 48zm-62-1327c77 49 143 110 198 193 69 221 137 333 360 421 17-403-182-582-559-613zm-90 387c-97 297-249 418-550 309 105-121 178-189 335-209 82-18 151-51 215-100zm-471 133c63-16 108-33 144-60 124-93 146-217 108-329-21-63-61-123-113-172 57 171 9 245-129 325-48 107-41 122-10 237zm1539 1495c-173 98-349 153-544 62-62-29-116-75-176-158 256 172 426 177 720 96zm-1470-1312c107 8 236-24 306-163-101 97-186 140-306 163zm725-598c154 89 209 165 268 338-71-136-157-242-268-338zm249 1543c88 32 191 24 313-86-106 49-194 82-313 86zm292-1122c-3-76-8-171 47-226 14 103 10 145-47 226zm-2498-3718c-35-91-27-123 53-178-22-103 13-159 54-195 60-52 153-48 250 25-110 53-147 70-117 186 126 87 157 226 31 353-328 331-836-268-586-607 357-484 1126-364 1289 215 96 5 120 90 136 175-53-55-41-57-117-59 29 116 44 174-8 352 0 0-28-22-26-43 12-247-112-550-298-698-91-72-206-118-353-127 302 247 462 496 484 772 23 287-35 589-145 935-116 366-198 599-98 989 43 167 136 313 253 424 113 108 262 209 478 187-8-65-17-130-25-195 123 22 299 0 377-114 70-100 71-198 32-278-84-175-360-262-515-91 114-378 446-456 672-229 256 258 297 687 50 954-181 196-480 228-690 170-509-142-711-641-757-1047-210 344-412 623-750 769-201 84-467 42-617 65-49 48-74 81-81 116-10 44 9 91 38 175-169-82-189-219-87-366-241 42-472 153-518 433-18 108 17 195 174 147 48 45 70 64 68 83-5 64-50 85-103 86-187 2-284-159-256-341 31-201 172-358 342-440-32-4-65-8-97-12-93 106-138 185-283 216 39-61 55-109 86-186-207 13-351 18-492-160 183-195 344-111 550 9-16-66-36-90-73-156 135 19 179 81 226 201 41 16 95 21 136 37 59-1 118-2 177-3-150-180-193-337-238-560 0-184 24-331 106-440 143-192 309-278 464-275 199 3 381 151 472 405 0 84 197 288 340 133 25-27 34-75 17-146 144 25 151 172 65 259-71 73-207 104-382-8-38 127-120 219-215 271-143 78-316 66-421-54-122-139-126-313-35-427 129-160 297-102 354-6 59 99-22 220-126 162-36-99-95-117-135-87-55 41-73 171 55 302 104 89 226 59 321-47 74-82 99-163 94-240-23-353-410-570-663-325-122 118-196 248-214 379-28 202 30 372 128 499 196 255 466 301 715 223 449-142 797-688 854-1147-565 445-1240-169-846-698 91-123 326-180 450-79 178 144 151 350 22 495-9-219-191-336-274-263-102 90-5 306 38 412-13 30-26 60-39 90 218 208 475 61 653-144 87-100 155-214 190-306 97-254 152-516 93-806-32-157-102-311-228-459-85-89-170-158-256-194-127-52-258-29-405 118 33 54 39 71 42 135-45-4-66-14-106-35-35 46-50 111-41 173 10 73 53 145 131 185 41-5 81-10 121-15-9 33-9 82-17 115 49 12 99 13 141 0 61-19 85-61 85-101-1-79-88-161-175-41zm1199 2411c58-68 52-172-14-232-66-60-167-53-225 15-58 68-52 172 14 232 66 60 167 53 225-15zm-333-406c49-57 44-145-12-196-56-51-141-45-190 12-49 57-44 145 12 196 56 51 141 45 190-12zm-37-435c40-47 36-119-10-160-46-41-115-37-156 10-40 47-36 119 10 160 46 41 115 37 156-10zm69-383c31-36 28-92-8-124-35-32-89-29-121 8-31 36-28 92 8 124 35 32 89 29 121-8zm52-323c22-26 20-65-5-88-25-23-64-20-86 6-22 26-20 65 5 88 25 23 64 20 86-6zm19-293c17-20 15-51-4-68-19-18-49-16-66 4-17 20-15 51 4 68 19 18 49 16 66-4zm-555 1662c110 317 200 615 108 957-115 427-404 614-769 768 124-210 194-383 228-632 5-108 9-217 14-325 41-360 150-553 419-768zm-800 648c76-209 201-277 364-384 1 178 3 303-60 424-100 195-459 349-642 206 135-63 249-115 337-247zm124-881c27 108 67 191 14 297-58 117-178 162-286 214 41-63 69-111 82-164 19-78 16-91 41-156 25-66 81-126 149-191zm-1638-797c20 129 62 250 136 367 242 211 346 362 336 706-517-194-635-556-472-1074zm536 88c427 31 661-106 685-566-209 75-334 135-443 333-67 100-146 173-242 233zm420-555c-53 75-100 126-153 160-183 115-351 78-473-34-68-62-122-148-156-243 184 167 304 144 479 3 161-6 176 11 304 114zm1055 2854c216-178 381-383 371-691-3-98-32-195-105-319 78 434-6 662-266 1010zm-862-2663c-47 147-158 302-369 319 177-83 277-173 369-319zm-1143 644c30 253 95 368 281 539-133-168-221-340-281-539zm1810 1163c-7 134-72 267-277 371 118-115 207-214 277-371zm-1570-215c-94-45-211-102-310-59 122 74 178 92 310 59zm4207 3261c-62-31-85-26-128 30-71-21-113 1-140 30-40 42-41 111 5 187 43-79 56-105 137-77 54 98 151 128 247 41 249-227-146-634-397-466-358 241-313 818 86 968-2 72 57 94 116 110-36-42-38-34-36-90 80 28 120 42 248 12 0 0-14-22-29-22-174-3-381-111-475-257-46-71-73-159-71-268 158 237 325 368 518 399 200 31 416 4 665-60 263-67 431-116 700-23 115 40 213 117 285 210 70 89 133 205 107 365-45-9-90-19-136-28 9 93-15 222-99 274-74 47-143 42-197 10-119-72-166-280-38-387-271 65-343 308-195 487 168 203 468 255 668 86 147-124 185-345 154-504-74-385-414-561-697-615 252-138 458-275 578-518 69-145 53-345 77-455 36-34 61-51 85-55 32-5 63 11 121 37-49-130-144-152-253-83 42-177 131-342 331-363 77-8 136 23 95 136 30 38 41 55 55 55 45 0 62-33 66-72 11-139-97-219-227-208-143 13-260 109-327 232-1-24-3-48-4-72 79-64 137-93 166-199-45 26-79 35-135 54 19-153 30-260-87-374-146 126-95 250-22 409-45-15-61-31-106-62 7 101 48 137 130 178 9 31 10 72 19 103-4 44-7 87-11 131-119-121-227-160-382-205-129-9-234 1-315 56-142 96-211 215-217 330-8 148 87 290 260 371 59 4 192 161 76 260-20 17-54 21-104 5 10 108 113 121 179 62 55-49 84-148 13-284 91-22 160-78 201-146 62-102 62-231-17-316-92-98-214-110-298-48-119 88-87 215-22 263 66 49 156-5 120-85-68-31-77-76-54-104 31-39 124-46 209 56 57 82 30 171-49 236-61 51-120 65-174 58-247-35-380-333-195-509 89-85 184-133 277-140 143-11 260 41 344 120 169 159 188 362 120 542-123 326-524 557-849 576 341-397-56-929-448-664-91 62-143 233-79 330 92 140 238 130 347 42-153-18-227-159-171-217 68-71 216 12 287 49 22-8 44-16 65-24 135 172 18 356-134 477-75 59-158 104-225 125-183 59-371 87-571 28-109-32-214-91-311-193-58-68-103-134-123-200-30-97-7-193 104-295 36 27 48 33 92 38-1-33-6-50-19-80 34-24 80-31 124-21 51 11 99 46 123 107-6 30-11 60-17 89 24-5 58-2 82-7 6 37 4 74-7 104-17 45-47 60-75 58-55-5-109-74-20-132zm1633 1012c-51 40-123 30-162-22-39-52-29-127 22-167 51-40 123-30 162 22 39 52 29 127-22 167zm-269-268c-43 34-104 25-137-19-33-44-25-107 18-141 43-34 104-25 137 19 33 44 25 107-18 141zm-304-49c-35 28-85 21-112-15-27-36-20-87 15-115 35-28 85-21 112 15 27 36 20 87-15 115zm-272 31c-27 21-66 16-87-12-21-28-16-68 12-89 27-21 66-16 87 12 21 28 16 68-12 89zm-229 22c-19 15-47 11-62-8-15-20-11-48 8-63 19-15 47-11 62 8 15 20 11 48-8 63zm-207-1c-15 12-36 9-48-7-11-15-9-37 6-49 15-12 36-9 48 7 11 15 9 37-6 49zm1196-328c217 98 422 180 667 129 306-64 452-269 579-532-154 81-279 125-456 138-76-2-153-4-229-6-255 12-396 83-561 272zm496-561c-151 46-205 135-288 251 125 10 213 17 301-23 142-65 268-323 177-466-51 97-94 179-190 238zm-625 48c75 26 131 59 208 26 85-37 123-124 165-201-47 27-82 46-119 52-56 10-65 7-112 22-48 15-92 54-142 101zm-477-1257c89 21 173 59 251 120 136 190 237 275 479 285-110-393-358-500-731-405zm35 403c0 318-108 485-433 480 63-151 112-241 257-312 74-45 129-100 176-168zm-411 284c55-36 94-68 120-106 90-130 72-257 0-353-40-54-98-98-163-128 108 145 86 233-22 356-13 119-1 131 65 231zm1952 928c-136 152-288 263-505 240-69-7-135-34-219-94 301 80 466 29 723-147zm-1827-775c106-28 220-102 243-258-67 127-135 197-243 258zm510-816c177 35 254 89 364 236-112-107-228-181-364-236zm725 1403c95 1 192-40 275-187-87 82-161 143-275 187zm-71-1177c-27-72-61-162-25-233 46 95 55 137 25 233zm-5452-10350c-4 27-22 69-53 101-60 61-166 55-191-36-39-144 103-222 214-229 291-17 509 162 624 381 452 861 97 1863-209 2740-38 108-62 218-88 325-44 303-30 571 72 865 186-26 381 50 513 166 62 54 111 120 141 193 86 216-27 375-261 348-243-28-453-337-545-571-61 5-137 45-173 70 45 259 133 481 247 689 121 221 286 415 347 666 51 211 13 410-134 632 87-213 100-343 60-579-30-131-81-243-140-350-72-129-156-251-233-389-100-180-165-379-232-594-184 222-286 485-217 783 44 190 126 312 261 440 48-18 82-27 118-30 86-7 241 43 233 158-4 59-44 98-96 119-62 25-142 29-193 6-123-55-216-174-281-312-229-487-194-966 137-1291-44-543-28-1008 212-1485 62-99 124-198 185-298 138-215 190-414 265-661 63-318 97-630 104-956-30-340-93-715-411-896-86-49-179-64-275-5zm17 4248c51-34 106-59 164-74-70-334-75-622-18-946-145 320-168 659-147 1020zm363 28c83 189 240 484 452 461 109-12 134-67 94-174-75-199-405-320-546-287zm664 23l139-440 450 1-364-272 140-439-364 272-363-273 139 440-365 271h450l138 440zm-11-1292l174-296 327 80-220-262 175-295-310 134-219-262 28 345-311 133 328 79 27 345zm83-933l124-198 221 61-145-182 124-198-213 86-144-183 13 235-214 85 221 60 12 235z"/></g></g><g fill="#201e1e"><g stroke="#201e1e"><path d="m1779 9999c5 4 8 9 9 14-116 97-214 147-294 151-45 2-84-11-116-40-32-29-59-82-81-159-22-77-36-160-40-251-1-29-2-59-1-90 1-32 4-69 9-113 5-44 16-87 33-129 17-42 45-76 86-102 41-25 85-39 133-42 42-2 83 7 121 29 38 22 69 54 91 98 22 44 38 83 48 117 10 34 16 74 18 120 0 9-7 14-23 15-11 1-21-1-29-4-8-4-12-9-12-15l7-86c-3-61-23-107-61-138-38-31-82-46-133-43-42 2-84 16-123 41-29 20-52 49-71 87-19 38-31 79-38 124-7 45-9 95-6 149 3 65 13 124 29 177 16 53 41 96 76 129 34 33 83 47 146 44 66-4 134-34 205-90 5 0 11 2 16 7zm322-214l-17-8c-15-12-27-21-36-28-9-7-20-13-33-19-12-6-24-10-35-14-11-3-21-6-32-8-11-2-27-5-51-7-24-3-40-4-49-5l-89-9-127-11c-54-3-92-10-114-20-22-10-47-31-75-62l-25-34-24-31c-1-13 2-20 8-21l12 5c19 16 42 27 68 33 25 7 61 11 110 14l88 7 157 17c23 3 50 11 80 22 31 11 61 29 89 54 28 24 55 57 82 99l12 26zm-37-156l2-123c-2-39-12-79-31-120l-10-12-12-28c-1-26 3-39 12-40 6 6 10 12 12 19 2 7 7 16 15 27l35 50 37 56c17 30 27 74 30 132l-3 82c-3 24-4 46-5 66-1 20-1 41 0 64 4 69 15 119 33 150 19 32 28 51 28 59 1 15-5 23-17 24-10 1-21-6-33-20-8-13-22-30-42-52-20-22-33-42-40-60-9-18-14-45-15-80l-1-20-1-15 4-161zm-450-698l-3-31c0-24 19-53 55-85 37-33 74-49 113-48l46 5 66 17 70 17c21 5 35 12 44 21 9 9 16 18 24 27 7 9 15 20 22 33l42 69c23 35 34 72 33 109-1 37-18 65-53 85-35 20-77 29-125 29-39-1-88-11-148-29-60-19-98-38-117-57-18-19-34-50-47-92l-21-69zm274 137c34 1 65-4 93-12 28-9 47-21 58-38 11-16 16-30 16-41 0-6-7-18-21-35-14-17-43-31-86-44-43-12-90-19-139-20-30-1-60 2-90 9-17 2-32 9-47 21-15 12-22 25-22 40 0 8 2 15 6 21 4 6 7 11 10 15 3 4 8 11 17 20 9 7 23 14 40 21l108 34c13 5 32 7 58 8zm217-475l31 104c-2-1-5-2-10-4-5-2-10-3-15-4l-139-27-215-42c-22-2-33 0-33 6 0 5 4 16 13 31 9 15 14 27 15 34l1 8 1 8-3 5c-8-1-14-5-19-12l-47-80-41-71c-7-14-10-25-10-34 1-12 13-17 36-15l43 7c149 32 242 53 280 61 38 9 75 17 112 26zm-219-146c-6-1-14-3-23-6-9-2-25-8-46-17-21-9-37-14-49-15-9-1-13 2-14 8-1 12 13 35 42 69l25 34c9 16 14 27 13 35-5 4-8 6-11 6-16-1-26-10-32-26l-57-52c-29-27-52-55-68-85-16-29-23-52-22-69 2-22 15-32 40-31 16 1 53 24 112 70 59 45 88 72 88 80zm-137-767l2-31c4-24 28-48 69-74 42-26 82-35 120-27l44 13 62 29 66 30c20 8 33 18 40 28 7 10 13 21 19 31 6 10 11 22 16 36l29 75c17 39 21 77 14 113-7 36-29 61-67 74-38 13-81 15-128 6-38-8-85-26-140-55-55-29-90-55-105-77-15-22-25-55-31-99l-9-71zm246 184c33 7 64 8 93 4 29-4 50-13 63-27 13-14 21-27 23-37 1-6-4-19-15-38-11-19-37-38-77-58-40-20-85-35-134-44-29-6-59-8-90-7-17-1-33 4-49 13-16 9-26 21-29 36-2 8-1 15 2 22 3 6 5 12 7 16 2 4 6 12 13 22 8 9 20 18 36 28l100 53c12 7 31 13 56 18zm288-397l24 116-35-17-94-38-241-92c-21-5-32-5-33 0-1 4 2 15 8 32 6 17 10 29 10 37v8 7l-4 5c-8-2-13-6-17-14l-36-91-28-73c-5-15-6-27-4-35 3-11 15-14 38-9l41 14c142 56 231 91 267 105 36 14 72 29 107 44zm-338-185c-20-40-37-78-50-116-13-37-18-63-15-76 4-20 26-25 66-16 50 12 156 57 318 136 21 5 32 3 33-4 4-16-11-47-45-93l-1-8c2-5 4-8 5-9l9-1 7 4c43 59 69 107 79 144 9 38 13 63 10 76-4 16-20 20-48 13-8-2-15-4-21-5-6-1-18-6-36-14l-107-43-136-54c-33-8-50-8-52 0-2 10 9 38 32 84 23 46 34 75 32 85-5 3-9 5-12 4-15-4-24-14-28-31l-39-77zm454-657c2-6 7-7 14-5 9 3 15 9 16 17 55 122 78 195 69 218-6 16-25 18-59 5l-58-26-89-46-123-65-221-120c-77-43-123-67-138-73-18-7-29-5-32 4-3 8 0 28 7 61v17c-2 5-6 7-13 6-9-3-15-17-19-40-4-23-12-59-24-109-12-49-17-78-14-86 4-12 19-13 44-3 33 13 132 68 296 166 164 98 272 156 323 176 28 10 43 11 47 0 3-8-1-25-13-51-12-26-16-42-14-47zm-322 86l-6 16c-12 33-12 62 0 87 11 25 43 55 97 89 53 34 91 56 115 64 38 14 60 12 67-6 7-18-2-52-26-101-32-60-47-94-43-104 1-4 6-5 13-2 14 5 25 15 33 28 9 14 18 35 29 64l24 59c39 82 53 138 42 168-11 32-46 37-104 15-20-8-43-19-69-33l-97-58c-21-14-43-31-67-54-24-22-42-47-56-75-14-28-18-72-12-133 6-61 11-97 15-110 5-13 11-19 19-16 6 2 15 10 27 24 12 14 16 26 13 36l-14 40zm202-435c-15-7-26-2-33 15-8 21-12 37-12 49 1 12 7 25 19 38 12 13 33 33 65 59 31 26 63 46 96 61 64 28 105 19 124-27 10-24 13-56 9-98l-4-41-2-27 16-2c6 3 12 9 16 20l10 41 9 36c26 85 30 149 13 192-12 28-32 45-61 50-29 6-67-1-112-21l-45-24c-28-12-52-27-72-43-20-17-44-41-73-73-29-32-48-73-58-121-10-48-6-96 14-142 16-39 35-53 59-43 17 7 34 24 51 50 18 26 31 50 39 71 9 21 14 35 17 42 3 7 8 25 17 53 9 28 15 55 19 79 4 25 5 42 2 53-6 14-11 20-17 17-5-2-10-11-14-27l-16-68-19-77c-3-11-6-21-9-30-3-9-8-20-15-34-7-13-17-23-32-29zm133-418l54-88 73-120c17-29 31-40 39-34 1 2 2 3 3 5 1 2 2 5 2 9 0 4-2 11-6 21-4 9 3 28 20 56 15 28 35 56 59 83 24 27 46 50 65 68 19 18 38 33 56 45 59 38 98 42 116 13 4-7 8-30 9-67 1-37-30-98-96-183l-50-19c-12-5-24-10-35-16-11-5-22-11-34-19-40-26-61-53-62-83-1-6-2-13-1-20 1-8 2-14 6-20 10-17 33-14 69 8 18 11 31 20 38 27 8 7 18 17 31 30 13 13 23 25 31 35 8 10 15 19 21 29l21 9 26 6c11 3 24 2 41-1l8 16c-5 8-14 14-27 19l-15 3-16-1c80 162 102 271 67 329-16 26-41 41-75 45-25 5-54-3-86-23-32-20-63-50-95-90-32-40-55-74-71-104-16-29-27-46-34-50-7-5-15 0-23 13l-11 18-10 16c-22 36-16 64 16 85l3 2-4 6-5 8-12 6-109-70zm460-695l16-26c15-19 46-29 95-32 48-3 88 9 118 34l33 33 42 55 45 58c13 17 21 32 22 44 1 13 2 25 2 36 0 12 0 25-2 40l-9 81c-3 42-16 78-39 107-22 28-53 39-93 33-40-7-78-26-116-57-30-25-63-64-99-117-36-53-55-92-58-119-3-27 3-61 18-102l25-67zm133 282c26 22 53 38 80 49 27 11 50 13 68 7 18-6 31-13 37-22 4-5 5-18 4-40-1-22-15-52-41-89-27-37-59-72-98-104-23-19-48-36-76-50-14-9-31-13-49-13-19 0-32 6-42 18-5 6-8 13-8 20-1 7-1 13-1 18 0 5 0 13 1 26 3 12 9 26 19 42l64 95c7 12 21 26 41 43zm201-587l-22 20c-11 13-15 28-10 44 5 16 12 33 22 51 10 18 25 43 47 75 22 32 42 56 63 75 52 47 94 51 126 13 15-18 27-43 35-75 8-32 13-52 14-61 2-9 3-15 4-21 7 1 12 3 16 5 5 5 8 12 9 22l-2 43-2 37c-1 89-16 151-46 186-19 22-43 31-73 28-30-4-63-22-100-55l-36-37c-23-21-42-42-56-63-14-21-29-52-45-92-16-40-21-83-15-130 6-47 25-89 58-128 32-38 53-52 63-43 4 4 8 14 13 31l10 31 19 22c8 7 12 13 11 19-1 5-2 9-4 12-5 6-14 5-25-3l-13-11-13-17c-9-8-17-9-23-1l-24 23zm353-295c-11-13-23-13-36-1-16 15-26 28-31 39-4 11-4 25 2 43 5 17 17 45 34 82 17 37 38 70 62 97 46 53 88 63 124 29 19-17 35-46 49-85l13-39 10-25 15 6c5 5 7 14 6 25l-8 41-6 37c-11 89-34 148-67 179-22 20-47 27-76 19-29-8-60-30-93-68l-31-41c-20-23-36-47-48-70-11-24-23-56-36-98-13-42-14-87-3-135 10-48 34-89 71-123 30-28 54-32 71-13 12 14 21 37 26 68 5 31 7 58 6 81-1 23-1 38-2 46 0 8-3 26-7 56-4 29-9 56-16 80-6 24-13 40-20 49-11 10-18 13-23 8-3-4-4-14-2-30l14-68 14-78c2-11 3-22 4-32 1-10 1-22 0-37-1-15-6-28-17-40zm-296 36l24-233 171 53-20 42-114-12-8 159-53-9zm633-744l-32 25c-24 24-20 57 10 98l61 70c30 32 52 57 64 74l20 28c32 58 64 117 94 177l85 159 79 157 85 169-25 123-84-149-70-124-66-122-76-145c-9-17-19-37-32-59-13-23-25-41-36-56l-83-125c-15-20-27-41-38-62-11-21-22-47-34-78-12-31-19-60-21-89-2-28-3-49-3-61 0-12 0-24 1-35 1-11 4-23 8-34l16-44 76 104zm-90 368l230-178 13 25-227 176-16-22zm425-297l23-21c19-13 53-14 100-2 47 12 82 35 103 68l22 41 24 65 26 69c8 20 11 37 8 49-2 12-5 24-8 36-3 11-7 24-13 37l-31 75c-15 39-38 70-68 91-30 20-62 22-98 4-36-18-68-48-95-89-22-33-42-80-61-141-19-61-26-105-22-131 5-26 20-57 46-92l43-57zm47 309c19 29 40 53 63 71 23 18 44 27 63 27 19 0 33-4 42-10 5-4 10-16 16-37 5-21 0-54-14-97-15-43-36-86-64-128-17-25-36-49-59-71-11-13-26-22-44-27-18-5-33-4-45 5-6 4-11 10-13 17-3 7-5 12-6 17-2 4-4 13-6 25 0 12 2 27 6 46l35 110c4 14 13 31 27 54zm498-83l-68 83c0-2-1-5-2-10-1-5-3-10-4-15l-53-135-83-209c-11-20-18-28-23-25-5 3-11 12-18 28-8 16-14 27-19 32l-6 5-6 5h-6c-4-7-4-15 0-23l39-84 36-74c8-14 15-23 23-27 10-6 20 2 32 23l18 41c55 146 89 237 103 274 14 37 27 74 40 111zm0-268c-2-6-5-14-8-23-3-9-7-26-11-49-4-23-9-40-14-50-4-8-9-10-14-7-11 6-22 31-33 74l-14 40c-8 17-15 27-21 30-6-2-9-4-11-6-8-14-6-28 4-42l12-78c6-40 17-75 32-104 15-30 30-49 45-57 19-11 35-5 47 18 8 14 9 59 4 134-5 76-11 115-18 119zm291 104c-6-16-7-32-2-48 5-16 15-28 29-34 10-4 22-6 37-5 15 1 27 12 35 33 6 15 7 31 1 47-5 17-15 28-28 34-9 4-17 5-25 4-23-1-39-11-47-32zm213-93c-6-16-7-32-1-48 5-16 15-27 30-33 10-4 22-5 37-4 15 1 27 13 35 33 6 15 6 31 0 47-6 17-15 28-29 34-9 4-17 5-25 3-23-1-38-12-47-33zm216-92c-5-16-5-32 1-48 6-16 17-26 31-32 10-3 22-4 37-2 15 2 26 14 33 35 5 15 4 31-2 47-6 16-17 27-31 32-9 3-18 4-26 2-23-2-38-14-45-35z" fill-rule="nonzero" stroke-width="7.62"/><g stroke-linejoin="round" stroke-linecap="round"><text x="10500" y="14850" font-family="&apos;ElGar&apos;" stroke-width="25" font-size="1394.01" transform="matrix(.88612.41268-.40146.91088-349.04-3995.43)">Texto 01</text><text x="10500" y="14850" font-family="&apos;Vijaya&apos;" font-weight="bold" stroke-width="20" font-size="850.87" transform="matrix(.8767.43341-.42163.90119 670.42-3077.61)">00.00.0000</text></g></g><g font-family="&apos;Arial Black&apos;" font-weight="900" font-size="522.72"><text x="10500" y="14850" transform="matrix(.97281 0 0 1-4107.08 7650.22)">NN 1</text><text x="10500" y="14850" transform="matrix(.97281 0 0 1-4114.93 8101.9)">NN 2</text></g></g><path d="m14002 2744c2201-62 5727 1819 5734 6304 2 1199-444 5186-549 6768-127 1897-221 4598-259 6521-17 1663-386 2627-1091 3017-940 342-1915 443-2943 192-1063-284-1591-1168-1606-2956 40-2309 308-6305-109-8404-539-2717-1220-3073-1483-6345-158-1969-100-5030 2307-5098z" fill="#fff"/><g clip-path="url(#1)"><g fill="#201e1e" stroke="#201e1e" stroke-width="7.62"><path d="m12249 6255c-21 52-37 62-91 51-32 51-68 60-98 57-45-4-81-44-92-114 65 24 87 33 121-28-17-88 24-158 126-158 263 1 236 459 1 494-335 50-602-320-441-626-37-42-14-87 13-129 0 45-5 40 24 73 33-60 50-90 141-141 0 0 3 20-6 29-102 96-170 273-152 411 9 67 38 134 94 199-27-227 6-397 105-519 103-127 245-227 425-324 190-102 315-164 427-365 48-86 67-185 63-280-4-91-25-195-122-276-22 30-44 60-66 90-42-61-122-124-198-111-68 12-107 52-122 101-34 107 44 258 174 252-194 108-361 2-364-186-4-213 148-406 353-413 151-5 285 106 348 218 152 270 39 560-101 746 220-54 412-84 607-3 115 49 207 178 277 231 39 1 62-3 78-14 21-14 32-41 53-88 37 104-9 169-108 187 115 83 252 134 381 38 50-37 69-87-13-133-2-39-3-55 5-63 27-24 54-14 76 8 77 77 54 184-29 247-91 70-210 76-312 38 12 15 23 30 35 45 79-5 129-19 200 29-40 9-65 22-108 41 89 81 150 139 138 271-151 4-184-98-221-233-19 34-20 52-31 94-48-64-41-108-14-177-10-24-31-48-41-72-24-24-49-48-73-73-9 136-53 219-122 329-72 75-139 126-216 137-134 19-235-15-297-80-80-84-96-221-34-363 33-34 33-200-87-197-21 1-43 17-64 53-49-70 6-134 75-134 58 0 125 43 152 163 65-36 135-40 194-22 89 27 155 105 151 198-5 108-71 181-153 190-116 12-161-82-147-145 15-65 95-81 115-14-24 55-7 87 21 92 38 6 97-40 96-147-8-80-69-118-149-115-62 3-104 26-133 60-129 155-56 405 143 410 96 2 177-20 236-67 91-71 133-165 143-258 20-186-72-318-204-389-239-129-595-50-797 115 404 53 440 586 72 640-85 12-203-62-215-155-16-134 75-207 185-213-82 94-54 218 9 222 77 6 122-124 146-185 17-7 34-14 51-21-7-176-170-223-323-213-75 5-147 23-197 47-139 64-264 149-354 292-48 78-80 170-86 284 0 72 7 136 29 186 32 74 94 120 211 120 8-36 12-46 36-73 17 20 21 33 29 59 32-5 64-25 85-54 25-34 35-82 19-131-19-15-37-30-56-44 16-10 36-30 52-40-16-25-35-47-57-59-33-18-59-10-74 6-31 33-27 103 55 90zm455-1490c-50 4-88 49-85 101 3 52 47 92 98 88 50-4 88-49 85-101-3-52-47-92-98-88zm-23 306c-43 3-75 41-72 85 3 44 40 77 82 74 43-3 75-41 72-85-3-44-40-77-82-74zm-155 194c-35 2-61 34-59 70 2 36 33 63 67 61 35-2 61-34 59-70-2-36-33-63-67-61zm-178 129c-27 2-47 26-46 54 2 28 25 49 52 47 27-2 47-26 46-54-2-28-25-49-52-47zm-147 111c-19 1-34 19-32 38 1 20 18 35 37 34 19-1 34-19 32-38-1-20-18-35-37-34zm-123 113c-15 1-26 14-25 30 1 15 14 27 29 26 15-1 26-14 25-30-1-15-14-27-29-26zm877-451c79-176 159-336 331-438 214-127 405-84 614 5-133 35-229 76-341 165-44 43-89 85-133 128-157 131-278 165-472 141zm580 67c-113 54-190 30-299 6 69-73 118-126 190-149 117-38 324 48 342 183-80-30-147-57-234-39zm-396 310c31-56 48-106 111-128 70-24 136 8 200 31-41 9-72 17-98 33-39 24-42 31-78 47-36 17-82 18-135 17zm356 1010c42-61 73-129 88-208-16-187 1-293 140-430 135 295 41 493-228 638zm-184-260c-162-191-311-232-501-53 115 56 189 84 311 48 66-13 127-10 190 5zm-389 53c51-9 90-10 125-2 120 29 174 115 180 211 3 54-8 112-32 165-10-146-68-186-194-201-68-64-68-78-79-173zm688-1612c-158-17-305-1-422 129-37 41-63 94-82 175 138-211 262-269 504-304zm-691 1453c77-41 182-58 276 23-105-40-180-44-276-23zm718 212c87-117 105-191 96-339-12 125-43 232-96 339zm-283-1232c56-52 134-80 258-37-93-2-168 2-258 37zm556 743c21 58 46 130 104 153-21-82-37-112-104-153zm-725 3581c2 80 17 100 93 116 15 84 58 115 99 128 61 19 128-14 178-99-97-4-130-5-143-101 67-105 48-219-84-274-343-141-538 470-250 642 411 246 945-92 890-576 70-35 62-106 48-174-23 58-14 56-68 82-13-96-20-144-113-260 0 0-14 25-7 40 84 180 83 447-9 617-45 83-117 155-223 208 149-282 192-520 125-732-70-221-205-428-391-651-197-236-328-383-373-707-19-138 6-277 59-398 51-117 131-240 298-294 14 51 27 102 41 153 85-56 221-96 314-37 82 52 113 125 108 197-9 158-187 312-354 234 199 245 469 197 567-46 112-275 12-608-252-729-194-88-425-15-562 96-334 270-333 708-244 1025-259-189-494-332-789-332-174 2-359 120-477 151-51-20-79-37-95-60-21-30-21-71-25-143-101 116-74 225 46 301-191 47-396 38-515-156-46-75-46-151 84-166 22-49 32-70 26-84-23-46-63-48-102-31-139 59-163 210-87 337 84 140 236 212 387 218-23 13-45 27-68 40-101-49-159-94-275-70 47 33 74 63 120 111-157 57-266 100-316 278 194 86 288-28 405-184 8 54 1 79-7 140 94-58 108-118 107-223 26-26 64-46 90-72 44-18 88-37 132-55-57 183-41 314-7 495 56 137 118 239 212 294 164 97 313 108 427 56 147-67 236-236 227-454-26-63 58-278 212-209 27 12 47 45 57 104 99-65 60-177-30-215-75-31-185-11-280 130-67-82-155-125-241-133-129-12-254 53-296 176-48 143 1 274 103 330 144 78 251-19 264-110 14-93-83-157-142-80 4 85-35 118-74 108-53-13-106-104-51-243 50-100 149-117 252-69 80 37 123 90 143 149 90 271-131 558-393 457-126-49-220-122-273-214-82-142-91-287-56-414 68-253 254-375 462-397 375-39 799 256 980 581-553-150-868 526-415 794 105 62 296 29 357-86 88-165 6-310-133-377 60 166-40 313-123 285-103-34-96-227-96-320-19-18-37-36-56-55 98-225 334-198 527-103 95 47 179 110 234 167 149 159 269 336 313 571 24 127 19 265-30 416-36 94-78 173-131 227-78 79-183 105-336 42 8-51 8-66-10-114-32 18-45 31-68 60-40-23-70-67-83-116-15-58-5-125 41-180 32-9 63-18 95-28-16-22-31-58-47-80 33-25 70-42 104-45 51-5 82 18 93 48 23 59-16 149-117 87zm158-2186c64 32 91 111 60 177-31 66-108 94-171 62-64-32-91-111-60-177 31-66 108-94 171-62zm-124 411c54 27 77 94 50 150-26 56-91 79-145 52-54-27-77-94-50-150 26-56 91-79 145-52zm105 336c44 22 63 77 41 123-21 46-74 65-118 43-44-22-63-77-41-122 21-46 74-65 118-43zm167 263c34 17 49 60 32 95-17 35-58 50-92 33-34-17-49-60-32-95 17-35 58-50 92-33zm136 224c24 12 34 42 23 68-12 25-41 36-65 24-24-12-34-42-23-68 12-25 41-36 65-24zm103 213c19 9 27 33 18 52-9 19-32 28-50 18-19-9-27-33-18-52 9-19 32-28 50-18zm-915-1061c-15-272-38-523-210-749-215-281-486-328-802-326 156 117 260 223 361 398 36 79 72 159 109 238 139 256 278 365 543 438zm-789-226c120 131 233 142 386 169-53-133-90-227-173-297-133-113-446-112-538 53 119 4 220 6 325 75zm359 617c-13-89-8-164-79-227-78-69-181-63-276-68 49 34 85 61 110 96 38 52 40 63 77 103 38 41 98 68 168 95zm-972 1123c-24-102-30-207-11-318 115-235 146-382 35-636-324 312-302 620-24 954zm371-239c307-161 522-134 679 202-178 12-289 7-429-106-80-53-161-82-250-96zm480 279c-62-39-112-62-162-70-171-27-284 55-340 178-32 69-46 150-42 232 86-184 181-205 354-157 121-47 127-65 190-183zm-83-2470c214 63 398 163 484 396 27 74 35 156 19 272-73-349-205-492-504-668zm168 2265c-80-94-208-174-371-119 156 5 257 40 371 119zm-1042-112c-55-199-41-305 45-493-48 169-60 325-45 493zm989-1452c-46-98-134-176-317-187 123 48 218 93 317 187zm-1098 667c-56 64-125 144-212 144 68-95 104-126 212-144zm2129-3791c-37 43-55 47-104 19-46 39-84 35-113 22-42-19-64-70-53-141 56 45 74 61 125 13 11-91 73-144 170-110 253 89 84 521-153 476-338-64-480-509-230-750-23-53 14-88 53-120-14 43-18 37 1 78 51-46 76-70 180-89 0 0-4 21-15 25-128 59-248 206-274 345-13 68-6 142 29 223 45-228 129-380 263-465 139-88 307-137 511-170 215-35 355-52 526-209 73-67 122-156 148-249 25-89 37-196-31-307-31 22-61 43-92 65-21-72-79-161-157-173-69-11-119 14-149 56-66 92-38 263 89 301-221 39-348-119-292-301 63-206 269-341 469-280 147 45 241 198 267 326 62 311-137 552-330 684 229 22 423 57 586 200 95 86 144 240 195 315 37 14 60 18 80 13 25-7 43-29 78-67 3 113-61 160-162 144 84 119 201 213 355 164 59-19 94-61 29-132 10-38 14-54 24-59 34-14 56 4 70 33 50 100-5 195-105 228-110 37-226 2-312-68 6 18 13 37 19 55 78 22 130 25 183 95-41-5-70-1-117 3 61 108 101 184 49 307-146-47-146-156-140-298-29 26-36 43-60 80-26-78-6-117 42-175-3-27-15-57-17-83-16-31-32-63-48-94-51 128-120 193-221 276-93 48-174 74-250 59-135-26-221-93-261-177-51-108-23-245 81-361 43-22 94-182-22-218-20-6-47 2-78 30-25-84 47-127 114-104 55 19 107 84 96 208 74-13 142 6 193 44 77 56 116 153 83 241-38 103-125 151-206 132-115-27-130-133-96-189 35-58 117-46 115 25-41 45-34 82-9 95 35 19 105-6 138-109 18-80-30-137-108-160-61-18-108-10-146 13-172 106-180 371 10 443 92 34 177 40 248 15 110-38 180-114 219-201 77-173 30-331-75-443-190-204-557-247-804-156 373 186 240 712-131 640-86-17-176-128-158-221 26-134 137-174 244-143-108 63-120 192-61 217 72 31 156-78 198-130 19-1 37-2 56-3 48-172-94-271-244-313-73-20-149-27-205-21-154 15-301 55-432 163-71 59-131 137-172 244-22 69-36 133-31 189 7 82 53 147 166 186 19-32 26-40 57-58 10 25 10 39 10 66 33 7 69-3 98-24 34-25 60-67 59-119-13-20-26-41-40-61 19-4 44-17 63-21-7-30-20-57-37-76-26-28-53-30-73-19-40 21-58 90 25 105zm903-1282c-50-13-100 17-113 69-13 51 17 104 67 117 50 13 100-17 113-69 13-51-17-104-67-117zm-118 287c-42-11-85 15-96 58-11 43 14 88 56 99 42 11 85-15 96-58 11-43-14-88-56-99zm-210 135c-34-9-69 12-78 48-9 36 12 72 46 81 34 9 69-12 78-48 9-35-12-72-46-81zm-211 64c-27-7-54 9-61 37-7 28 9 56 36 63 27 7 54-9 61-37 7-28-9-56-36-63zm-177 58c-19-5-38 7-43 26-5 20 6 40 25 45 19 5 38-7 43-26 5-20-6-40-25-45zm-153 67c-15-4-30 5-33 20-4 15 5 31 20 35 15 4 30-5 33-20 4-15-5-31-20-35zm986-141c131-143 258-270 455-311 246-51 416 55 590 210-139-11-244-3-379 44-56 26-112 52-168 79-192 73-319 66-498-22zm538 259c-125 14-193-35-289-94 90-47 152-82 230-80 125 2 297 154 273 291-67-56-124-104-213-116zm-478 166c47-43 79-86 146-86 75 0 128 53 183 97-43-5-74-8-104-1-45 10-51 15-90 20-40 4-85-10-136-29zm28 1092c60-45 110-99 150-170 43-186 92-282 269-368 38 329-114 489-419 538zm-96-312c-96-238-227-327-466-219 93 93 156 144 285 150 68 10 126 33 181 68zm-391-79c52 9 90 20 121 40 106 68 132 168 107 263-14 53-43 105-82 148 36-143-7-201-124-258-46-85-41-98-22-193zm1165-1322c-147-69-293-103-447-17-49 27-90 69-134 141 199-157 336-172 580-124zm-1119 1168c87-13 194 5 258 114-88-73-160-103-258-114zm626 445c120-83 161-149 198-294-50 116-114 209-198 294zm112-1281c70-32 154-32 260 51-89-33-163-55-260-51zm304 901c2 63 4 140 52 182 5-85 0-120-52-182zm-903 9484c-11-19-37-45-70-58-63-26-140 12-131 88 15 120 143 133 228 102 221-81 328-285 347-485 74-788-493-1422-985-1977-61-68-112-143-164-214-125-212-195-417-209-669 146-41 267-160 330-289 30-60 46-125 45-190-2-189-134-271-299-175-172 99-233 397-231 602-47 16-115 11-149 3-45-208-47-402-26-594 22-204 86-402 55-609-26-174-114-310-291-428 130 131 178 224 220 413 17 107 14 207 2 307-14 120-40 238-54 366-19 166-7 336 8 518-203-107-359-269-398-514-25-156-1-274 60-412 41-2 69-6 97-16 66-23 166-110 125-193-21-43-62-59-107-58-54 1-114 24-145 58-74 81-107 199-113 323-22 437 149 783 493 919 132 419 284 761 607 1040 76 54 152 108 228 162 167 116 266 247 396 408 143 217 263 439 366 680 81 263 147 564-33 801-49 64-113 105-202 93zm-1275-3176c48 9 96 10 144 2 50 272 133 489 274 712-205-192-324-438-418-714zm261-138c4-168 31-438 195-490 84-26 120 7 122 99 5 172-203 369-318 390zm485-232l236 284 333-146-188 320 237 283-352-86-186 321-30-373-352-84 333-145-31-373zm383 968l219 165 218-165-84 266 219 164h-270l-83 267-83-266-270 1 219-164-84-266zm344 670l152 108 146-117-52 183 152 107-184 5-52 183-61-180-184 6 146-116-62-179zm166 583l103 69 95-80-32 123 103 69-122 7-31 123-44-118-122 7 95-80-44-118z"/><path d="m17759 23063c49-49 71-52 128-13 60-43 105-35 139-17 50 27 72 91 52 176-63-60-84-80-150-28-21 109-101 168-216 118-299-131-56-639 227-562 405 110 537 663 213 931 23 67-24 106-74 140 20-51 25-44 6-95-66 52-99 78-226 91 0 0 6-25 20-30 160-59 319-227 363-393 21-81 19-172-15-273-75 272-190 449-359 539-176 94-384 137-634 158-264 22-435 30-656 204-94 74-162 178-201 288-38 106-61 235 11 375 39-23 78-47 117-70 20 90 81 202 175 224 83 20 145-6 186-54 89-105 69-315-82-374 271-26 411 177 328 392-94 244-356 389-593 295-174-69-275-263-295-420-48-383 214-657 460-799-275-48-508-109-693-297-108-113-153-305-209-400-44-20-72-28-96-23-31 6-55 31-101 74 6-137 88-188 209-159-92-152-225-277-416-232-73 17-119 65-47 158-16 45-22 65-34 69-42 14-68-10-83-46-52-126 24-236 147-267 136-34 274 18 373 111-6-23-12-46-18-69-93-34-156-43-214-132 50 10 84 8 142 7-64-137-107-233-32-377 173 70 164 202 144 375 38-29 47-49 79-92 24 97-3 143-66 208 1 32 13 70 13 103 17 40 33 79 50 119 73-151 162-223 292-314 117-50 217-74 309-49 161 44 260 133 301 239 52 136 7 299-129 430-54 23-130 212 8 267 24 10 57 2 98-29 24 104-68 149-147 115-66-28-123-111-98-261-91 9-172-21-231-71-88-75-128-196-80-300 55-121 165-171 262-140 137 44 146 173 100 238-47 67-146 45-137-41 53-51 48-96 19-115-41-26-128-3-177 120-28 95 24 169 117 204 72 28 131 22 178-2 218-112 251-434 27-538-108-50-211-64-299-41-136 36-228 122-283 223-108 203-65 398 53 545 212 265 654 351 961 264-436-260-229-885 214-764 103 28 203 172 173 283-43 160-181 198-308 151 137-66 162-221 93-258-85-45-196 81-251 139-23-1-45-1-68-2-73 204 91 338 269 402 87 31 178 46 246 45 188-4 370-38 538-157 91-65 170-154 230-280 33-82 55-158 54-226-2-100-52-183-185-242-25 37-34 46-74 65-10-31-9-48-6-81-39-11-84-3-121 20-44 27-78 75-82 139 14 26 29 52 43 78-23 3-54 17-78 20 6 37 19 71 38 95 29 36 62 41 87 30 50-22 79-104-21-130zm-1207 1471c59 21 123-12 143-73 20-61-11-128-70-149-59-21-123 12-143 73-20 61 11 128 70 149zm168-337c50 18 104-10 121-62 17-52-10-108-60-126-50-18-104 10-121 62-17 52 10 108 60 126zm267-144c41 14 85-8 99-50 14-42-8-88-49-103-41-14-85 8-99 50-14 42 8 88 49 103zm262-58c32 11 66-6 77-39 11-33-6-68-38-80-32-11-66 6-77 39-11 33 6 68 38 80zm219-53c23 8 47-4 55-28 8-23-4-49-27-57-22-8-47 5-55 28-8 23 4 49 27 57zm192-67c17 6 36-3 42-21 6-18-3-38-21-44-17-6-36 3-42 21-6 18 3 38 21 44zm-1207 79c-172 161-336 304-579 335-303 39-500-106-697-310 167 26 296 27 464-18 70-27 140-53 210-80 240-71 393-50 602 73zm-630-364c153-6 231 60 343 141-113 49-192 85-286 76-151-14-346-215-305-378 77 74 141 137 248 161zm594-157c-61 48-103 97-185 91-90-7-151-76-214-135 51 10 89 16 126 11 55-8 63-14 110-15 49-1 102 20 162 48zm62-1327c-76 49-142 110-197 193-68 221-136 333-358 421-17-403 181-582 555-613zm90 387c96 297 247 418 546 309-104-121-177-189-332-209-82-18-150-51-214-100zm467 133c-62-16-107-33-143-60-123-93-145-217-107-329 21-63 61-123 112-172-56 171-9 245 128 325 48 107 41 122 10 237zm-1528 1495c172 98 347 153 540 62 61-29 115-75 174-158-254 172-423 177-715 96zm1459-1312c-106 8-235-24-304-163 101 97 185 140 304 163zm-720-598c-153 89-208 165-266 338 71-136 156-242 266-338zm-248 1543c-87 32-190 24-311-86 105 49 192 82 311 86zm-290-1122c3-76 8-171-47-226-14 103-10 145 47 226zm2480-3718c35-91 27-123-52-178 22-103-13-159-54-195-60-52-152-48-248 25 109 53 146 70 116 186-125 87-156 226-31 353 325 331 830-268 581-607-355-484-1118-364-1280 215-96 5-120 90-135 175 53-55 41-57 116-59-29 116-44 174 8 352 0 0 27-22 26-43-12-247 112-550 296-698 90-72 204-118 350-127-300 247-459 496-481 772-23 287 35 589 144 935 115 366 196 599 97 989-42 167-135 313-252 424-112 108-260 209-475 187 8-65 16-130 25-195-123 22-297 0-375-114-69-100-70-198-32-278 84-175 357-262 511-91-113-378-443-456-667-229-254 258-295 687-50 954 180 196 477 228 685 170 505-142 706-641 752-1047 208 344 409 623 745 769 199 84 464 42 613 65 49 48 73 81 81 116 10 44-9 91-38 175 168-82 188-219 87-366 239 42 468 153 514 433 18 108-17 195-172 147-48 45-69 64-68 83 5 64 49 85 102 86 185 2 282-159 254-341-31-201-170-358-340-440 32-4 64-8 96-12 92 106 137 185 281 216-39-61-55-109-85-186 205 13 349 18 489-160-181-195-341-111-546 9 15-66 36-90 72-156-134 19-177 81-224 201-41 16-95 21-135 37-59-1-117-2-176-3 149-180 192-337 236-560 0-184-24-331-105-440-142-192-307-278-460-275-198 3-378 151-468 405 0 84-195 288-338 133-25-27-33-75-17-146-143 25-150 172-65 259 71 73 205 104 379-8 38 127 119 219 213 271 142 78 314 66 418-54 121-139 125-313 35-427-128-160-295-102-352-6-58 99 22 220 125 162 35-99 94-117 134-87 54 41 73 171-55 302-103 89-224 59-318-47-73-82-98-163-93-240 23-353 407-570 658-325 121 118 194 248 212 379 28 202-29 372-127 499-195 255-463 301-710 223-445-142-792-688-847-1147 560 445 1231-169 840-698-91-123-324-180-447-79-177 144-150 350-22 495 9-219 190-336 272-263 101 90 5 306-38 412 13 30 26 60 39 90-216 208-471 61-648-144-86-100-154-214-189-306-96-254-151-516-93-806 32-157 101-311 227-459 85-89 168-158 254-194 126-52 257-29 402 118-33 54-39 71-41 135 44-4 65-14 105-35 35 46 49 111 40 173-10 73-52 145-130 185-40-5-80-10-121-15 8 33 8 82 17 115-49 12-99 13-139 0-61-19-85-61-84-101 1-79 87-161 174-41zm-1190 2411c-58-68-52-172 14-232 66-60 166-53 224 15 58 68 52 172-14 232-66 60-166 53-224-15zm331-406c-49-57-44-145 12-196 55-51 140-45 189 12 49 57 44 145-12 196-55 51-140 45-189-12zm36-435c-40-47-36-119 10-160 45-41 114-37 154 10 40 47 36 119-10 160-45 41-114 37-154-10zm-68-383c-31-36-28-92 8-124 35-32 89-29 120 8 31 36 28 92-8 124-35 32-89 29-120-8zm-51-323c-22-26-20-65 5-88 25-23 63-20 85 6 22 26 20 65-5 88-25 23-63 20-85-6zm-19-293c-17-20-15-51 4-68 19-18 49-16 66 4 17 20 15 51-4 68-19 18-49 16-66-4zm551 1662c-109 317-199 615-107 957 114 427 401 614 763 768-123-210-193-383-227-632-4-108-9-217-13-325-40-360-148-553-416-768zm795 648c-75-209-200-277-361-384-1 178-3 303 59 424 100 195 455 349 637 206-134-63-248-115-335-247zm-123-881c-27 108-66 191-14 297 57 117 176 162 283 214-41-63-69-111-81-164-19-78-16-91-40-156-24-66-80-126-148-191zm1626-797c-20 129-61 250-135 367-240 211-343 362-334 706 513-194 631-556 469-1074zm-532 88c-424 31-656-106-680-566 208 75 332 135 440 333 66 100 145 173 240 233zm-417-555c53 75 99 126 152 160 182 115 349 78 470-34 68-62 121-148 155-243-183 167-301 144-475 3-160-6-175 11-301 114zm-1047 2854c-215-178-378-383-368-691 3-98 32-195 104-319-78 434 6 662 264 1010zm855-2663c47 147 156 302 367 319-176-83-275-173-367-319zm1135 644c-30 253-95 368-279 539 132-168 219-340 279-539zm-1797 1163c7 134 72 267 275 371-118-115-206-214-275-371zm1559-215c93-45 209-102 308-59-121 74-176 92-308 59zm-4176 3261c62-31 84-26 127 30 71-21 112 1 139 30 39 42 41 111-5 187-42-79-56-105-136-77-54 98-150 128-245 41-247-227 145-634 394-466 355 241 311 818-85 968 2 72-57 94-115 110 36-42 37-34 35-90-79 28-119 42-246 12 0 0 14-22 28-22 173-3 378-111 472-257 46-71 72-159 70-268-157 237-323 368-514 399-199 31-413 4-660-60-261-67-428-116-695-23-114 40-211 117-283 210-70 89-132 205-107 365 45-9 90-19 135-28-9 93 15 222 98 274 74 47 142 42 196 10 118-72 165-280 38-387 269 65 341 308 194 487-167 203-464 255-663 86-146-124-183-345-153-504 73-385 411-561 692-615-250-138-455-275-574-518-69-145-53-345-76-455-36-34-60-51-85-55-31-5-63 11-120 37 48-130 143-152 251-83-41-177-131-342-328-363-76-8-135 23-94 136-29 38-41 55-54 55-45 0-62-33-65-72-11-139 96-219 225-208 142 13 258 109 324 232 1-24 3-48 4-72-79-64-136-93-165-199 45 26 79 35 134 54-19-153-30-260 87-374 145 126 95 250 21 409 45-15 61-31 105-62-7 101-47 137-129 178-9 31-10 72-19 103 4 44 7 87 11 131 118-121 225-160 379-205 128-9 232 1 313 56 141 96 209 215 215 330 8 148-86 290-258 371-59 4-191 161-76 260 20 17 54 21 103 5-10 108-112 121-178 62-54-49-83-148-13-284-90-22-159-78-200-146-62-102-62-231 16-316 91-98 212-110 296-48 118 88 86 215 22 263-66 49-155-5-119-85 67-31 77-76 54-104-31-39-123-46-208 56-57 82-30 171 49 236 61 51 119 65 172 58 245-35 377-333 194-509-89-85-183-133-275-140-142-11-258 41-342 120-168 159-187 362-119 542 122 326 520 557 843 576-339-397 55-929 445-664 90 62 142 233 78 330-92 140-236 130-344 42 152-18 225-159 170-217-68-71-214 12-285 49-22-8-43-16-65-24-134 172-18 356 133 477 74 59 157 104 223 125 182 59 368 87 567 28 108-32 212-91 308-193 57-68 102-134 122-200 30-97 7-193-103-295-36 27-48 33-92 38 1-33 6-50 19-80-34-24-80-31-123-21-51 11-99 46-122 107 6 30 11 60 17 89-23-5-58-2-81-7-6 37-4 74 7 104 17 45 47 60 75 58 55-5 108-74 20-132zm-1621 1012c50 40 122 30 161-22 38-52 29-127-21-167-50-40-122-30-161 22-38 52-29 127 21 167zm267-268c43 34 103 25 136-19 33-44 24-107-18-141-43-34-103-25-136 19-33 44-24 107 18 141zm302-49c35 28 84 21 111-15 27-36 20-87-15-115-35-28-84-21-111 15-27 36-20 87 15 115zm270 31c27 21 66 16 86-12 21-28 15-68-12-89-27-21-66-16-86 12-21 28-15 68 12 89zm228 22c19 15 47 11 61-8 15-20 11-48-8-63-19-15-47-11-61 8-15 20-11 48 8 63zm206-1c15 12 36 9 47-7 11-15 9-37-6-49-15-12-36-9-47 7-11 15-9 37 6 49zm-1187-328c-216 98-419 180-662 129-304-64-449-269-575-532 153 81 277 125 453 138 76-2 152-4 227-6 253 12 394 83 557 272zm-492-561c149 46 203 135 286 251-124 10-211 17-299-23-141-65-267-323-176-466 51 97 93 179 189 238zm621 48c-74 26-130 59-207 26-85-37-122-124-164-201 46 27 81 46 118 52 56 10 65 7 111 22 47 15 92 54 141 101zm473-1257c-89 21-171 59-249 120-135 190-235 275-476 285 109-393 356-500 725-405zm-35 403c0 318 108 485 430 480-63-151-111-241-255-312-73-45-128-100-175-168zm408 284c-55-36-93-68-119-106-89-130-72-257 0-353 40-54 97-98 162-128-107 145-85 233 22 356 13 119 1 131-64 231zm-1938 928c135 152 286 263 501 240 68-7 134-34 217-94-299 80-462 29-718-147zm1814-775c-105-28-218-102-241-258 67 127 134 197 241 258zm-507-816c-175 35-252 89-362 236 111-107 226-181 362-236zm-720 1403c-94 1-190-40-273-187 86 82 160 143 273 187zm71-1177c27-72 61-162 25-233-46 95-55 137-25 233zm5412-10350c4 27 22 69 53 101 60 61 165 55 189-36 39-144-102-222-213-229-289-17-505 162-620 381-449 861-96 1863 207 2740 37 108 61 218 87 325 44 303 30 571-71 865-185-26-378 50-509 166-62 54-110 120-139 193-86 216 27 375 259 348 241-28 450-337 541-571 61 5 136 45 171 70-45 259-132 481-245 689-120 221-284 415-344 666-50 211-13 410 133 632-87-213-100-343-59-579 30-131 80-243 139-350 71-129 155-251 231-389 99-180 164-379 230-594 182 222 284 485 216 783-44 190-125 312-259 440-48-18-81-27-117-30-86-7-239 43-231 158 4 59 44 98 95 119 61 25 141 29 192 6 122-55 214-174 279-312 227-487 192-966-136-1291 43-543 28-1008-210-1485-61-99-123-198-184-298-137-215-189-414-263-661-63-318-97-630-103-956 30-340 93-715 408-896 85-49 177-64 273-5zm-17 4248c-50-34-105-59-163-74 69-334 75-622 17-946 144 320 167 659 146 1020zm-361 28c-82 189-238 484-449 461-108-12-133-67-93-174 74-199 402-320 542-287zm-659 23l-138-440-447 1 361-272-139-439 361 272 360-273-138 440 362 271h-447l-137 440zm11-1292l-173-296-325 80 218-262-174-295 308 134 217-262-28 345 308 133-325 79-27 345zm-82-933l-123-198-220 61 144-182-124-198 212 86 143-183-13 235 212 85-220 60-12 235z"/></g></g><g fill="#201e1e"><g stroke="#201e1e"><path d="m15440 3669c5-16 15-29 29-37 14-9 29-11 43-6 10 3 20 11 31 22 11 11 13 27 6 48-5 15-15 27-29 37-15 9-29 11-43 7-9-3-16-8-21-14-17-16-22-35-15-56zm212 84c6-16 16-28 31-36 15-8 29-9 44-3 10 4 19 12 29 23 10 12 11 28 3 49-6 15-16 27-31 35-15 8-29 10-43 4-9-4-16-9-21-15-16-17-20-36-12-57zm199 83c6-16 17-27 32-35 15-8 29-8 44-2 10 4 19 12 29 24 10 12 10 28 2 49-6 15-17 26-32 34-15 8-30 9-43 3-9-4-15-9-20-16-15-17-19-36-10-57zm556-108c14-31 20-56 19-75-1-19-9-33-22-42-20-9-43-6-70 10-27 16-48 31-63 43-15 12-34 34-58 67-24 32-43 63-56 93-20 44-19 71 2 81 16 8 37 7 62-4 25-10 45-21 61-31 16-10 36-26 60-47 24-21 46-53 65-96zm-184 251l48-63 2-4c-3 0-7 1-10 2-4 1-31 15-81 42-50 27-93 31-130 13-36-17-37-64-3-139 18-40 42-80 71-119 29-39 67-70 113-93 46-23 93-37 141-41 48-5 85 0 111 12 35 17 51 38 47 62-4 25-10 47-19 66-6 14-15 31-28 52-12 21-26 42-40 64l-110 161c-22 31-39 54-51 72-12 17-22 33-32 48l-57 91-41 73c-8 18-8 29 0 32 6 3 23 3 49-1l-4 10-3 6c-3 6-19 11-48 17l-67 18c-41 13-68 16-79 11-13-6-14-22-2-48 8-18 30-54 66-110l67-103c27-43 57-87 91-130zm651-77l110 15c-29 26-64 62-104 108-40 46-90 121-149 222-5 8-5 14-1 17 4 3 16 3 33 2 18-1 29 0 35 3l7 1 8 4 1 6c-4 6-9 10-17 11l-90 7-79 6c-15 0-26-2-33-6-11-7-11-21 1-41l24-34c65-84 117-151 157-201 40-50 71-90 94-119zm-269 275c-13 2-33 5-58 7-25 3-51 4-79 6-27 1-48-2-61-11-16-10-14-33 6-68 6-11 11-19 15-25 4-6 13-18 27-36l70-88 105-119c11-18 13-29 6-34-13-8-44-3-96 15l-14-9 9-15 30-12 66-18c26-5 52-7 77-5 25 2 43 6 53 12 13 8 12 26-4 54l-33 49-75 99-88 111c-17 30-22 47-14 52 10 6 39 5 87-4 48-9 76-11 85-6 2 5 2 10 0 13-3 5-6 8-10 9l-27 8-79 13zm629 49c10-14 7-26-6-36-17-13-32-21-43-23-11-2-25 2-40 10-15 9-39 26-70 51-32 25-58 53-79 82-41 58-41 101-2 131 20 15 50 26 90 31l40 5 26 4-2 17c-4 6-12 10-22 11l-41 1-36 1c-86 7-147-3-183-30-24-18-35-42-34-73 1-31 16-66 45-108l33-40c18-25 37-46 57-62 20-16 48-35 85-57 37-21 79-32 127-31 48 0 91 16 131 46 33 25 42 47 27 68-11 15-30 29-59 40-28 12-54 20-76 23-22 4-36 6-44 8-7 1-25 3-54 5-29 2-55 2-79 1-24-2-41-5-50-10-12-9-16-16-12-21 3-4 12-7 28-8l67-1 77-2c11-1 21-1 31-3 9-1 21-4 35-8 14-4 25-12 35-25zm-30 475l-100-34c2-1 5-3 9-6 4-3 8-6 12-10l101-101 156-157c14-17 18-28 14-31-4-3-15-6-32-7-17-1-29-3-36-7l-7-4-7-4-2-5c5-6 12-9 20-9l90 6 80 6c15 2 26 6 33 12 9 7 6 20-9 39l-30 32c-110 107-179 174-208 201-28 27-56 53-85 79zm240-100c4-4 10-10 18-16 7-7 21-16 40-29 19-13 32-23 39-32 5-7 6-12 1-16-9-8-36-9-79-4l-41 2c-18-1-30-4-35-9-1-6 0-10 1-13 10-12 23-16 39-12l74-18c38-9 73-12 105-8 32 3 55 11 67 21 17 14 17 31 1 52-10 13-49 31-119 54-69 24-107 33-113 28zm477 114l24 19c17 17 24 50 23 100-2 50-16 89-43 118l-34 31-57 38-60 41c-17 12-32 19-44 19-12 0-24 0-35-1-11-1-24-3-38-5l-77-16c-40-7-74-23-100-49-25-25-33-58-24-98 10-40 31-78 65-114 27-29 67-59 121-91 54-32 93-48 119-49 26-1 58 8 97 27l63 31zm-282 112c-23 25-41 51-54 78-13 27-17 50-13 69 4 19 10 32 18 40 4 4 17 7 39 8 21 1 51-11 89-35 38-24 74-54 108-91 20-22 39-46 55-74 10-14 15-31 17-50 2-19-3-34-14-44-6-6-12-9-18-10-7-1-12-2-17-3-5-1-13-1-25-1-12 2-25 7-42 16l-97 58c-12 7-27 19-45 39zm687 589l16-7c22-17 21-42-2-74-11-15-24-27-39-37-15-10-27-11-36-4-8 7-14 18-16 34l-4 80c0 17-1 33-1 48 0 15-1 32-3 52-2 20-6 37-13 51-7 14-15 27-27 38-34 26-74 33-120 21-46-12-79-25-98-39-19-14-35-27-47-39-12-13-22-24-29-33-30-41-31-71-6-91 15-12 33-19 52-21 19-2 30-3 33-3 3-1 7 0 10 2l10 3 4 6 4 5-12 10c-13 10-17 26-14 49 4 23 13 45 29 67 13 18 28 31 45 39 17 8 32 8 43-1 11-9 18-23 21-43 4-19 7-50 8-92l5-91c1-21 4-37 10-48 6-11 13-20 22-27 19-15 45-22 78-20 33 2 68 13 104 33 36 20 67 48 93 83 9 18 3 35-17 50-17 13-44 25-83 38-16-22-23-35-20-38zm247 321c14-9 16-21 7-36-12-19-23-31-33-37-10-6-24-8-41-5-17 3-45 10-83 22-38 12-72 28-102 48-58 39-74 79-47 121 14 22 38 43 73 63l35 19 22 14-8 15c-6 4-14 5-25 2l-38-14-34-12c-83-25-136-57-161-96-16-25-18-52-6-80 12-28 38-56 79-84l44-25c25-17 50-29 74-37 24-8 57-15 99-21 42-6 85 0 129 18 44 18 80 49 107 91 22 35 23 60 2 74-15 10-38 15-69 16-31 0-57-2-79-6-22-4-36-8-43-9-7-2-24-7-52-15-28-9-52-18-74-28-22-10-36-19-43-27-8-13-9-21-4-24 4-3 14-2 29 3l63 25 72 27c10 4 20 7 29 9 9 2 21 4 35 6 14 2 28-2 41-11zm-197 428l-78-73c2 0 5-1 10-2 5-1 10-2 15-4l132-50 204-78c19-10 28-18 25-22-2-5-11-11-26-20-15-8-25-15-30-21l-5-7-5-7v-6c7-4 14-4 22 0l80 43 71 39c13 8 21 16 25 24 5 10-3 21-23 32l-40 17c-143 51-232 83-268 96-37 13-73 25-109 37zm259 9c6-2 13-5 23-7 9-3 25-6 48-9 23-3 39-8 49-13 8-4 10-9 7-14-5-11-29-23-70-37l-38-16c-16-9-25-16-28-23 2-6 4-10 6-11 14-7 27-5 41 6l75 15c38 8 72 20 100 37 28 17 46 33 53 48 10 20 3 36-19 48-14 7-57 7-130-1-73-8-111-15-114-22zm402 622l17-2c26-10 32-34 18-72-6-18-16-33-28-46-12-13-23-18-34-14-10 4-18 13-24 28l-25 76c-5 16-10 32-14 46-4 14-10 30-17 49-7 19-16 34-26 45-10 12-22 21-36 29-39 16-80 11-121-14-41-25-69-47-84-66-15-19-26-36-35-51-9-16-15-29-19-40-18-47-11-77 19-89 18-7 37-9 55-5 18 4 29 6 33 6 3 0 7 2 9 4l9 6 3 7 2 6-14 6c-15 6-24 20-27 44-3 23 0 47 10 72 8 21 19 38 33 51 14 13 28 17 41 12 13-5 23-17 31-35 9-17 20-46 32-86l29-86c7-20 14-34 22-43 8-9 18-16 28-20 23-9 49-8 81 3 31 11 62 31 91 61 30 30 52 65 67 106 4 20-6 34-30 43-19 8-49 12-89 13-10-26-13-40-9-42zm155 373c16-5 21-16 15-33-7-21-14-36-22-45-8-9-21-14-38-16-17-2-46-3-86-1-40 1-77 8-110 19-66 22-91 57-76 104 8 25 26 51 55 80l29 28 18 19-11 12c-7 2-15 1-25-4l-33-24-30-21c-74-47-117-92-131-136-9-29-4-55 14-79 18-24 51-44 98-60l49-12c29-10 56-15 81-16 25-1 59 1 101 6 42 5 82 22 120 52 38 29 65 68 80 117 13 40 7 64-17 72-17 6-41 5-70-3-30-8-54-17-74-27-20-10-33-17-40-20-7-3-22-13-46-29-24-16-46-31-64-47-19-16-30-29-35-38-5-14-4-23 2-25 5-2 14 2 28 10l55 41 63 45c9 6 18 12 26 17 8 5 19 10 33 15 13 5 28 6 42 1zm163 455l68 92c-38-3-87-3-147 1-60 4-146 20-257 48-9 2-13 6-12 11 1 5 9 14 22 26 14 12 21 21 23 27l4 6 3 9-3 5c-7 2-13 0-20-5l-68-61-60-54c-11-11-17-20-19-28-3-13 7-22 29-28l40-6c103-12 186-21 248-27 62-6 112-12 148-15zm-378-3c-11-8-26-21-46-37-20-17-39-34-60-54-20-19-32-37-36-52-5-19 12-34 51-43 12-3 21-5 28-6 7-1 21-3 44-5l109-11 156-7c20-5 29-11 27-19-4-15-30-34-78-59l-4-17 16-4 29 13 59 36c22 15 41 33 58 53 17 20 26 36 29 47 4 16-10 27-40 35l-56 10-120 15-138 14c-33 8-48 17-45 27 3 12 24 32 65 61 40 28 61 48 64 58-2 5-5 8-8 9-6 2-10 1-13-1l-25-14-65-48zm323 554c-1-6 3-10 11-10 9-1 40 22 91 68 51 46 78 82 80 106 1 17-17 27-55 30l-65 2-122-4-105-4-199-8-143-8-56 2c-21 2-32 8-31 18 1 7 10 24 29 50 1 15-6 23-21 25-23 2-36-5-37-22-2-23-6-40-11-51-5-11-10-21-14-29-4-8-10-19-18-33l-19-43c-1-16 14-25 47-28 39-4 119 0 238 10l200 16 144 9 83-1c28-3 42-9 41-20-1-13-12-28-34-43-21-16-32-26-33-33zm-279 258c2 25 18 45 49 61 30 16 73 27 129 34 56 7 102 9 137 6 39-4 58-15 57-35-2-19-23-45-65-79-53-39-81-64-82-76 4-5 8-7 11-8 14-1 27 2 40 11 13 9 31 24 53 45l47 43c74 60 112 106 115 137 3 31-26 49-86 55-13 1-26 2-40 2-14 0-50-1-106-5-57-4-117-16-182-36-65-20-100-65-106-135l-5-59-4-48-7-27c0-2 0-4 2-6 1-2 2-3 3-4 6-1 17 2 32 9l13 3c6-1 10 0 14 1 4 1 6 5 8 10 1 8-2 16-7 23-14 29-20 54-18 76zm442 499l-1-32c-1-18-5-34-13-47-8-14-23-26-46-37-23-11-58-21-105-28-47-8-87-11-119-10-46 2-68 14-67 36 1 19 15 41 42 65 27 25 54 46 80 64l37 29c-6 4-11 6-15 6-15 1-30-3-45-12-15-8-30-19-44-33l-50-44c-68-63-103-112-104-149-1-39 32-60 100-63 6 0 15 0 28 0 13 0 28 2 47 4 19 2 40 6 64 12 23 5 54 15 91 28 37 13 70 32 98 57 28 25 48 48 59 69 11 21 18 44 18 68l12 101c1 27-5 40-18 41-7 0-15-2-23-7-9-5-15-10-18-17l-6-25-1-35-1-41zm-146 114l-139-18-53-3c-5 0-9 1-11 2-2 1-4 3-4 4l20 27c6 6 13 13 19 21 6 8 13 16 19 25 6 9 10 17 10 23-2 5-5 7-6 7-3-1-5-2-8-4-3-2-6-4-11-8-50-54-84-94-101-118-20-24-30-44-30-58-1-15 15-23 47-24l61 1 108 10 113 11c22 1 40 3 55 6 15 3 33 8 54 16 21 8 37 18 51 31 13 15 19 27 19 38 1 20-14 30-44 31l-168-21zm-260 222l-34-103c2 1 5 2 10 4 5 2 10 3 15 4l139 22 215 35c22 1 32-2 33-7 0-5-4-16-14-31-9-15-15-26-16-33l-1-8-1-8 3-5c8 0 14 4 19 11l50 78 43 70c8 14 11 25 11 34 0 12-12 17-35 16l-43-6c-149-27-242-44-280-51-38-7-75-15-112-22zm222 138c6 1 14 3 23 5 9 2 25 7 46 16 21 8 38 13 49 13 9 0 13-3 13-9 0-12-14-35-44-67l-26-33c-10-16-15-27-14-34 4-4 8-6 11-6 16 1 26 9 33 25l58 50c30 26 53 53 70 82 17 29 25 52 24 69-1 22-14 33-39 32-16-1-53-22-113-66-60-43-90-69-90-77zm-14 333c-3-9-4-15-4-19l6-13c4-2 8-4 9-4 5 0 11 3 17 10 6 6 10 11 12 13 2 3 29 12 80 27 51 15 117 29 198 42 80 13 153 21 219 25l46 72 13 19c7 11 11 21 10 29 0 4-2 8-6 10-9-1-17-3-22-9-5-5-9-10-12-13-2-4-4-7-6-10-60-3-131-12-214-28-83-15-168-36-257-61l-80-82-10-10zm-200-71c20 1 37 10 53 26 16 16 23 34 22 55-1 14-6 31-16 50-10 19-30 28-59 26-20-1-37-10-53-26-16-16-23-35-22-56 1-13 6-30 16-49 10-19 30-28 59-26z" fill-rule="nonzero" stroke-width="7.62"/><g stroke-linejoin="round" stroke-linecap="round"><text x="10500" y="14850" font-family="&apos;ElGar&apos;" stroke-width="29" font-size="1394.01" transform="matrix(.87874-.41477.40055.90993-643.73 6457.07)">Texto 02</text><text x="10500" y="14850" font-family="&apos;Vijaya&apos;" font-weight="bold" stroke-width="20" font-size="850.87" transform="matrix(.87136-.43114.41637.90228-493.54 7456.94)">00.00.0000</text></g></g><g font-family="&apos;Arial Black&apos;" font-weight="900" font-size="522.72"><text x="10500" y="14850" transform="matrix(.96573 0 0 1 3583.89 7650.22)">NN 1</text><text x="10500" y="14850" transform="matrix(.96573 0 0 1 3576.1 8101.9)">NN 2</text></g></g><g fill="#373435" font-family="&apos;Arial&apos;" font-size="317.5"><text x="10500" y="14850" transform="translate(-7736.68 12579.5)">DESC 1</text><text x="10500" y="14850" transform="translate(-7733.7 12853)">DESC 2</text><text x="10500" y="14850" transform="translate(-7739.36 13152.9)">DESC 3</text></g></svg>