<svg xmlns="http://www.w3.org/2000/svg" width="744.09" height="1052.36" viewBox="0 0 21000 29700" shape-rendering="geometricPrecision" image-rendering="optimizeQuality" fill-rule="evenodd" clip-rule="evenodd"><defs><clipPath id="0"><path d="m7070 3543c-2307-63-6003 1841-6010 6381-2 1213 465 5249 576 6851 133 1921 231 4655 272 6601 18 1684 404 2660 1144 3054 985 346 2007 448 3085 195 1114-287 1668-1182 1684-2992-42-2337-323-6382 114-8507 565-2750 1279-3111 1554-6423 166-1993 105-5091-2418-5160z"/></clipPath><clipPath id="1"><path d="m13946 3543c2307-63 6003 1841 6010 6381 2 1213-465 5249-576 6851-133 1921-231 4655-272 6601-18 1684-404 2660-1144 3054-985 346-2007 448-3085 195-1114-287-1668-1182-1684-2992 42-2337 323-6382-114-8507-565-2750-1279-3111-1554-6423-166-1993-105-5091 2418-5160z"/></clipPath></defs><path d="m7070 3543c-2307-63-6003 1841-6010 6381-2 1213 465 5249 576 6851 133 1921 231 4655 272 6601 18 1684 404 2660 1144 3054 985 346 2007 448 3085 195 1114-287 1668-1182 1684-2992-42-2337-323-6382 114-8507 565-2750 1279-3111 1554-6423 166-1993 105-5091-2418-5160z" fill="#fff"/><g clip-path="url(#0)"><g fill="#201e1e" stroke="#201e1e" stroke-width="7.62"><path d="m8891 7098c23 53 39 62 96 52 33 52 71 61 103 58 47-4 85-45 97-116-69 24-91 33-126-28 18-89-25-160-132-160-276 1-247 464-1 500 351 50 631-324 463-633 39-43 15-88-14-130 0 45 5 41-26 74-35-61-53-91-148-143 0 0-3 21 6 29 107 98 178 276 159 416-9 68-40 136-99 202 28-230-6-402-110-525-108-129-257-230-446-328-200-103-331-166-448-370-50-87-70-188-66-283 4-93 26-197 128-280 23 30 46 61 69 91 44-61 128-126 208-112 71 12 112 53 128 102 36 109-46 261-183 255 204 109 378 2 381-188 4-215-155-411-370-418-158-5-299 108-365 220-159 274-41 567 106 755-231-54-432-85-636-3-120 50-217 180-290 234-41 1-65-3-82-14-22-14-33-41-56-89-39 105 9 171 113 189-120 84-264 135-399 39-52-37-73-88 14-135 2-39 4-56-5-63-28-25-56-14-79 8-81 78-56 186 30 250 96 71 220 76 327 39-12 15-24 31-36 46-83-5-135-19-210 29 42 9 68 22 113 41-94 82-157 141-145 274 158 4 192-99 231-236 20 34 21 52 33 96 50-65 43-109 14-179 11-24 32-49 43-73 26-24 51-49 77-73 10 138 56 222 128 333 75 76 146 127 226 138 140 20 246-15 311-81 84-85 101-224 36-367-35-35-34-203 91-199 22 1 45 17 67 54 51-71-6-135-79-135-60 0-131 44-160 165-68-37-141-41-203-22-93 28-162 106-158 200 5 109 75 183 160 192 121 12 169-83 154-147-15-66-100-82-120-14 25 56 7 88-22 93-40 6-101-40-100-149 8-81 72-120 156-116 65 3 109 26 139 60 135 157 59 410-150 415-101 2-185-21-247-67-95-72-140-167-150-262-21-189 76-322 214-394 250-130 623-50 836 117-424 53-461 594-75 647 89 12 213-63 225-157 17-135-79-209-194-215 86 95 56 220-9 225-81 6-128-125-153-188-18-7-36-14-54-21 8-178 178-226 338-215 78 5 154 24 207 47 146 65 277 151 371 296 51 79 84 172 91 287 0 73-7 137-30 189-33 75-99 121-222 122-8-36-12-46-37-74-17 21-23 33-31 59-34-5-67-25-89-55-26-35-37-83-20-132 19-15 39-30 58-45-17-10-37-31-54-41 16-26 37-47 60-59 34-18 62-11 78 6 32 33 29 104-58 91zm-477-1508c53 4 93 49 89 102-4 53-49 93-102 89-53-4-93-49-89-102 4-53 49-93 102-89zm24 310c45 3 78 42 75 86-3 45-42 78-86 75-45-3-78-42-75-86 3-45 42-78 86-75zm163 196c36 3 64 34 61 71-3 36-34 64-71 61-36-3-64-34-61-71 3-36 34-64 71-61zm186 130c28 2 50 26 48 55-2 28-26 50-55 48-28-2-50-26-48-55 2-28 26-50 55-48zm155 112c20 1 35 19 34 39-1 20-19 35-39 34-20-1-35-19-34-39 1-20 19-35 39-34zm129 114c16 1 27 15 26 30-1 16-15 27-30 26-16-1-27-15-26-30 1-16 15-27 30-26zm-920-457c-83-178-167-340-347-444-224-129-425-85-644 5 139 35 240 77 357 167 46 43 93 86 139 129 165 133 291 167 494 143zm-608 68c118 55 200 30 313 6-73-74-123-127-200-151-123-39-339 48-359 185 83-31 154-57 245-40zm415 314c-33-56-50-108-116-130-73-24-142 8-210 32 43 9 75 17 102 34 40 25 45 31 81 48 38 17 86 18 142 17zm-373 1023c-44-62-76-130-93-210 17-190-1-296-146-436-141 299-43 499 239 646zm193-263c170-193 326-235 525-53-120 57-198 85-326 48-70-13-134-10-199 5zm408 53c-54-9-94-10-131-2-126 30-182 116-189 214-4 55 9 113 33 167 10-147 71-188 203-203 71-65 71-79 83-175zm-721-1632c165-17 320-2 442 131 39 42 66 95 86 177-145-213-274-273-529-308zm725 1471c-81-41-191-59-289 23 110-40 189-45 289-23zm-753 215c-91-118-110-193-101-343 12 126 45 234 101 343zm297-1248c-58-53-141-81-270-37 98-2 176 2 270 37zm-583 752c-22 58-48 131-109 155 22-82 38-113 109-155zm760 3625c-2 81-18 101-98 117-16 85-61 116-104 130-64 20-134-14-186-100 102-4 136-5 150-103-70-107-50-222 88-277 360-143 564 476 262 650-431 249-990-93-933-584-73-35-65-107-50-177 24 59 14 56 72 83 14-97 21-146 118-263 0 0 14 25 7 41-88 183-87 452 10 624 48 84 122 156 234 211-156-285-201-526-131-741 73-224 214-433 410-659 206-239 344-388 390-715 20-140-7-281-62-403-53-118-137-243-312-298-14 52-28 103-43 155-89-57-232-97-329-37-86 53-118 127-113 200 10 160 196 316 371 237-208 248-491 199-594-46-117-279-13-616 264-738 203-89 445-16 590 97 350 273 349 716 256 1038 272-191 518-336 827-336 183 2 376 121 500 153 54-20 83-37 100-61 21-30 22-71 26-145 105 117 77 227-49 305 200 47 415 38 540-158 48-76 49-153-88-168-23-50-34-71-27-85 24-47 66-48 107-31 146 59 170 213 91 341-88 142-247 214-405 221 24 14 47 27 71 41 106-50 166-95 288-71-50 34-77 64-126 113 165 58 278 101 332 281-204 87-302-29-424-186-9 55-1 79 7 142-99-59-113-119-112-226-27-26-67-47-94-73-46-19-92-37-138-56 60 185 43 318 7 501-59 139-124 242-222 298-172 99-328 109-448 57-154-67-247-239-238-460 27-63-61-282-222-212-28 12-50 45-59 105-104-65-63-179 32-217 78-32 194-11 294 131 70-83 162-126 253-135 135-12 266 53 310 178 51 145-2 278-108 334-151 79-263-20-277-112-14-94 87-159 149-81-4 86 37 119 77 110 55-13 111-105 53-246-53-101-157-118-264-69-83 38-129 91-149 151-94 275 137 565 412 462 132-49 231-124 287-217 86-143 95-290 59-419-72-256-266-380-484-402-394-39-838 260-1027 588 580-152 909 533 435 804-110 63-310 29-375-87-92-167-6-314 140-381-63 168 41 317 129 288 108-35 101-230 101-324 20-18 39-37 59-55-103-228-350-201-553-104-99 47-188 111-245 169-156 160-282 341-329 578-25 129-20 268 32 421 38 95 81 175 137 230 82 80 192 106 352 43-8-52-8-66 10-115 33 18 47 32 71 61 42-24 74-67 87-118 15-59 5-127-43-182-33-9-66-19-99-28 17-22 33-59 50-81-35-25-73-42-109-46-54-5-86 18-98 49-24 60 17 151 123 88zm-165-2213c-67 32-95 113-63 180 32 67 113 95 180 63 67-32 95-113 63-180-32-67-113-95-180-63zm130 416c-57 27-80 95-53 152 27 57 95 80 152 53 57-27 80-95 53-152-27-57-95-80-152-53zm-110 341c-46 22-66 78-43 124 22 46 78 66 124 43 46-22 66-78 43-124-22-46-78-66-124-43zm-175 267c-36 17-51 60-34 96 17 36 60 51 96 34 36-17 51-60 34-96-17-36-60-51-96-34zm-143 227c-25 12-36 43-24 68 12 25 43 36 68 24 25-12 36-43 24-68-12-25-43-36-68-24zm-108 215c-20 10-28 33-18 53 10 20 33 28 53 18 20-10 28-33 18-53-10-20-33-28-53-18zm959-1074c15-276 40-530 220-758 225-285 509-332 841-330-163 118-272 226-378 403-38 80-76 161-114 241-146 259-292 369-569 444zm827-228c-125 133-244 144-405 171 56-134 94-230 181-301 140-115 467-114 564 54-125 4-230 6-340 76zm-376 625c13-90 9-166 83-229 82-70 189-64 290-68-52 35-89 61-116 97-40 53-42 64-81 105-40 42-103 69-176 96zm1019 1137c25-104 32-209 11-322-121-238-153-386-37-643 340 315 317 627 26 965zm-388-242c-321-163-547-135-712 204 186 12 302 7 450-107 84-54 168-83 262-97zm-503 282c65-39 118-63 169-71 179-27 298 56 357 180 33 69 48 152 44 235-90-187-190-208-371-159-127-48-133-66-200-185zm87-2501c-224 64-417 165-508 401-29 75-37 158-20 275 77-353 215-498 528-676zm-177 2293c83-95 218-176 388-121-164 5-270 40-388 121zm1093-113c57-201 43-309-47-499 50 171 63 329 47 499zm-1037-1470c48-99 141-178 333-190-129 48-229 94-333 190zm1151 675c59 65 131 146 222 145-71-96-109-127-222-145zm-2232-3837c39 44 57 48 109 19 49 40 88 36 118 23 44-19 67-71 56-143-58 46-77 61-131 14-11-92-76-146-178-111-265 90-88 527 160 481 355-65 503-516 241-759 24-54-14-90-55-121 14 43 19 38-1 79-53-47-80-71-189-90 0 0 4 21 15 26 134 59 260 208 287 349 13 69 6 144-30 226-47-231-136-385-276-470-146-89-322-138-535-172-226-35-372-53-551-211-77-68-128-158-155-252-26-90-38-199 32-311 32 22 64 44 96 66 22-73 82-163 164-175 72-11 125 15 156 57 70 93 40 266-94 305 231 39 364-120 306-304-66-209-282-346-492-283-154 46-253 200-280 330-65 315 144 559 346 693-240 22-443 58-614 203-100 87-151 243-204 319-39 14-63 18-84 13-26-7-46-29-82-67-3 114 64 162 170 146-88 120-211 216-372 166-62-19-98-61-30-134-11-38-15-55-25-59-35-15-59 4-74 33-53 101 6 197 110 231 115 37 237 2 327-68-7 19-13 37-20 56-82 22-136 26-192 96 43-5 73-1 122 3-64 109-106 186-51 311 153-47 153-157 147-302 31 26 38 44 62 81 27-79 6-119-44-177 3-27 15-57 18-84 17-32 33-64 50-96 54 130 125 195 231 280 97 49 182 75 262 60 141-26 232-94 273-179 53-109 25-248-84-365-45-22-98-184 23-221 21-6 49 2 82 30 27-85-49-128-119-105-58 19-112 85-101 210-78-13-149 7-203 44-80 57-122 154-87 244 40 104 131 153 216 133 121-27 136-134 100-191-36-58-123-47-120 25 43 46 36 83 9 97-37 19-111-6-145-111-19-81 31-139 113-162 64-18 114-10 153 13 181 107 189 376-10 448-96 35-185 40-260 15-115-39-189-116-229-203-81-175-31-335 79-449 199-206 584-250 843-158-391 188-252 720 137 648 90-17 185-130 166-224-27-136-143-176-256-145 113 63 126 194 64 220-76 32-164-79-208-131-19-1-39-2-59-3-50-174 99-275 256-317 77-21 156-27 214-21 161 15 315 55 453 165 74 59 137 139 180 247 23 70 37 135 32 191-8 83-56 148-174 189-20-32-27-40-60-59-10 25-11 40-11 67-34 7-72-3-103-24-36-25-62-67-62-121 14-21 28-41 42-62-20-4-46-17-66-22 7-30 21-58 39-76 27-28 56-30 77-19 42 22 61 91-26 106zm-947-1298c52-14 105 18 119 70 14 52-18 105-70 119-52 14-105-18-119-70-14-52 18-105 70-119zm123 290c44-11 89 15 100 59 11 44-15 89-59 100-44 11-89-15-100-59-11-44 15-89 59-100zm220 136c36-9 73 12 82 48 9 36-12 73-48 82-36 9-73-12-82-48-9-36 12-73 48-82zm222 65c28-7 56 9 64 37 7 28-9 56-37 64-28 7-56-9-64-37-7-28 9-56 37-64zm185 58c20-5 40 7 45 27 5 20-7 40-27 45-20 5-40-7-45-27-5-20 7-40 27-45zm161 68c15-4 31 5 35 21 4 15-5 31-21 35-15 4-31-5-35-21-4-15 5-31 21-35zm-1033-143c-138-145-270-274-477-315-258-52-436 56-619 213 146-11 256-3 398 45 59 27 117 53 176 80 202 74 334 67 522-22zm-564 262c131 15 202-35 303-95-94-48-160-83-241-81-131 2-311 156-286 294 70-56 130-105 223-118zm501 168c-50-44-83-88-153-87-78 0-134 54-192 98 45-5 78-8 109-1 47 11 53 16 94 20 42 4 89-10 142-30zm-29 1105c-63-45-116-101-157-172-45-188-97-285-282-372-39 333 119 495 439 545zm101-316c101-241 238-331 488-221-97 94-164 146-299 152-71 10-132 33-190 69zm410-80c-54 9-94 21-127 41-111 69-138 171-113 267 14 54 45 106 86 150-38-145 7-204 130-261 48-86 43-99 23-196zm-1221-1339c154-70 307-105 468-17 51 28 94 70 140 142-208-159-352-174-608-126zm1173 1182c-91-13-203 5-271 116 93-74 168-104 271-116zm-656 450c-126-84-169-150-208-297 52 118 119 211 208 297zm-118-1297c-73-32-161-32-272 51 94-34 170-55 272-51zm-318 912c-2 63-4 142-54 184-6-86 0-121 54-184zm946 9600c12-19 39-45 73-59 66-26 146 13 137 89-15 121-150 134-239 103-231-82-344-289-364-491-78-798 516-1439 1032-2002 63-69 117-145 171-217 131-214 205-422 219-677-153-41-280-162-346-292-31-61-48-127-48-192 2-191 140-274 313-177 180 101 245 402 242 609 49 16 121 11 156 3 47-210 49-407 27-601-24-206-91-407-58-617 27-176 120-314 305-433-136 133-187 227-230 418-18 109-14 210-2 310 15 121 42 241 57 370 20 168 8 340-8 524 213-108 376-273 417-521 26-158 1-277-63-417-43-2-72-6-101-16-69-23-174-111-131-195 22-43 65-59 112-59 56 1 120 24 152 58 78 82 112 202 119 327 23 443-156 793-516 930-138 424-298 770-636 1053-79 55-159 110-238 164-175 118-279 250-415 413-150 219-276 445-384 688-85 267-155 571 35 811 51 65 118 107 212 94zm1336-3215c-50 9-101 10-151 2-52 275-139 495-287 720 214-194 340-443 438-723zm-273-140c-4-170-33-444-205-496-88-27-125 7-128 101-5 175 213 374 333 395zm-508-234l-247 287-349-148 197 324-249 286 369-87 195 325 31-378 369-85-349-147 33-378zm-402 980l-229 167-229-167 88 269-230 166h283l87 270 87-270 283 1-229-166 88-269zm-361 678l-159 109-153-118 55 185-159 109 193 5 54 185 64-182 193 6-153-117 65-182zm-174 590l-108 70-99-81 33 124-108 69 128 7 33 124 46-120 128 7-100-81 47-120z"/><path d="m3115 24112c-51-49-74-52-134-13-63-44-110-35-145-17-52 27-75 92-55 178 67-60 88-81 157-28 22 110 106 170 226 119 314-133 59-647-238-569-424 111-563 671-224 943-24 67 26 107 78 142-21-51-26-44-6-96 69 52 104 79 237 92 0 0-7-25-21-30-168-60-335-229-380-398-22-82-20-174 16-277 78 276 199 454 377 546 184 95 402 139 665 160 277 22 456 31 687 207 99 75 170 180 211 291 40 107 64 237-11 380-41-24-82-47-123-71-20 91-85 205-183 227-87 20-152-7-195-55-93-106-72-319 86-378-284-27-431 179-344 397 99 247 373 394 622 299 182-70 289-266 310-425 51-388-225-665-482-809 289-48 532-110 726-301 113-114 161-308 219-405 46-21 75-28 100-24 32 6 58 31 106 74-6-138-92-190-219-161 96-154 236-281 436-235 77 18 125 66 49 160 17 45 23 65 36 70 44 15 71-11 87-47 55-127-25-239-154-270-143-35-287 18-391 112 6-23 13-46 19-70 97-34 163-43 225-134-52 10-88 8-149 7 67-138 112-236 34-382-182 71-172 205-151 379-39-29-50-49-83-93-26 98 3 145 69 211-1 33-13 71-14 104-17 40-35 80-52 120-77-153-170-226-306-318-122-51-227-75-324-49-169 45-273 135-316 242-55 137-7 303 135 435 56 23 136 214-8 270-25 10-59 2-102-29-25 105 71 151 154 117 69-29 128-113 103-264 95 9 180-21 242-72 93-76 134-198 84-304-58-122-173-173-274-142-144 44-153 175-105 241 49 68 153 46 144-42-56-52-51-97-20-116 43-26 135-3 185 121 30 96-25 171-123 207-76 28-137 23-187-2-229-114-263-439-28-544 114-51 221-65 314-41 143 37 239 123 296 226 114 205 68 403-55 551-222 268-686 356-1008 267 457-264 241-896-225-773-108 29-213 174-181 286 46 162 190 200 323 152-143-67-170-224-97-261 89-45 206 82 264 140 24-1 47-1 71-2 77 207-95 342-282 407-91 32-186 47-258 45-197-4-388-39-564-159-95-65-178-156-241-284-35-83-57-160-56-229 2-101 54-185 194-245 27 38 36 47 78 66 10-32 10-49 7-82 41-11 88-3 127 20 46 27 82 76 86 141-15 26-30 53-45 79 24 3 57 17 81 20-6 37-20 72-40 96-30 37-65 41-92 30-52-22-83-105 22-131zm1265 1489c-62 21-129-12-150-74-21-62 12-129 74-150 62-21 129 12 150 74 21 62-12 129-74 150zm-176-341c-52 18-109-10-127-62-18-52 10-109 62-127 52-18 109 10 127 62 18 52-10 109-62 127zm-279-146c-43 15-89-8-104-51-15-43 8-89 51-104 43-15 89 8 104 51 15 43-8 89-51 104zm-275-59c-33 11-69-6-81-40-11-33 6-69 40-81 33-11 69 6 81 40 11 33-6 69-40 81zm-230-54c-24 8-49-5-57-28-8-24 5-49 28-57 24-8 49 5 57 28 8 24-5 49-28 57zm-201-68c-18 6-38-4-44-22-6-18 4-38 22-44 18-6 38 4 44 22 6 18-4 38-22 44zm1266 80c180 163 353 308 607 339 317 39 524-107 731-314-175 27-310 27-486-19-73-27-147-54-220-81-251-72-411-51-631 74zm660-369c-161-6-242 61-359 143 118 50 201 86 300 77 159-15 363-218 320-383-80 75-148 139-260 163zm-622-159c64 48 108 99 194 92 95-7 158-77 224-136-54 10-94 16-133 11-58-9-66-14-116-16-51-1-107 20-170 49zm-65-1343c80 49 149 112 206 195 72 224 143 337 375 426 18-408-190-589-581-621zm-94 392c-101 301-259 423-572 312 109-123 185-192 348-211 86-18 157-52 224-101zm-490 134c65-16 112-33 150-61 129-94 152-219 112-333-22-64-64-125-118-174 59 173 9 248-134 329-50 109-43 124-11 240zm1602 1513c-180 99-363 155-566 63-64-29-120-76-183-160 267 174 443 179 749 97zm-1529-1328c111 8 246-24 318-165-106 98-194 142-318 165zm755-605c160 91 218 167 279 342-74-138-164-245-279-342zm259 1562c92 32 199 25 326-87-110 49-202 83-326 87zm304-1135c-3-77-8-173 49-229 15 104 11 147-49 229zm-2600-3764c-37-93-28-124 55-180-23-105 13-161 56-197 63-53 159-48 260 25-114 54-153 71-121 189 131 88 164 229 32 357-341 335-870-272-609-615 372-490 1172-368 1341 218 100 5 125 91 142 177-55-56-43-57-121-60 31 117 46 176-8 356 0 0-29-22-28-43 13-250-117-557-310-706-94-73-214-120-367-128 315 250 481 503 504 782 24 290-37 596-151 947-120 370-206 607-102 1001 44 169 142 316 264 430 118 109 273 211 498 190-9-66-17-131-26-197 128 22 311 0 393-115 72-102 74-201 34-282-88-178-374-266-536-92 118-382 464-462 699-232 267 261 309 695 53 966-188 199-500 231-718 172-529-143-740-649-788-1059-218 348-429 630-781 778-209 85-486 42-642 65-51 49-77 82-85 117-10 45 9 92 39 177-176-83-197-222-91-371-251 42-491 155-539 439-19 109 18 197 181 149 50 46 73 65 71 84-5 65-52 86-107 87-194 2-296-161-267-345 32-203 179-362 356-446-34-4-67-8-101-13-97 107-144 188-294 219 41-62 57-110 90-189-215 13-365 18-512-162 190-197 358-112 572 9-16-67-37-91-76-158 140 19 186 82 235 203 43 17 99 21 142 38 61-1 123-2 184-3-156-182-201-341-248-567 0-186 25-335 110-446 149-195 321-281 483-279 207 3 396 153 491 410 0 85 205 292 354 135 26-28 35-76 17-148 150 25 157 174 68 263-74 74-215 106-397-9-40 128-124 222-223 274-148 79-329 67-438-55-127-141-131-317-36-432 134-162 309-104 369-6 61 100-23 223-131 164-37-100-99-118-140-88-57 41-76 173 57 305 108 90 235 59 334-47 77-83 103-165 98-243-24-358-427-577-690-329-127 120-203 251-223 384-30 205 31 376 133 505 204 258 485 305 744 225 467-144 830-697 888-1161-587 450-1290-171-880-707 95-124 340-182 468-80 185 146 157 354 23 501-9-222-199-341-285-267-106 91-5 310 40 417-14 30-27 61-41 91 227 211 494 61 679-146 90-101 161-216 198-310 100-257 158-523 97-816-33-159-106-315-238-464-89-90-176-160-267-196-132-52-269-29-421 120 34 55 41 72 43 136-47-4-69-14-110-36-36 47-52 112-42 176 11 74 55 147 136 187 42-5 84-10 126-16-9 33-9 83-18 116 51 12 103 13 146 0 64-20 89-62 88-102-1-80-92-163-182-42zm1247 2440c61-69 54-174-15-234-69-61-174-54-234 15-61 69-54 174 15 234 69 61 174 54 234-15zm-347-411c51-58 46-147-12-198-58-51-147-46-198 12-51 58-46 147 12 198 58 51 147 46 198-12zm-38-440c42-48 37-120-10-162-48-42-120-37-162 10-42 48-37 120 10 162 48 42 120 37 162-10zm71-387c33-37 29-93-8-126-37-33-93-29-126 8-33 37-29 93 8 126 37 33 93 29 126-8zm54-327c23-26 21-66-6-89-26-23-66-21-89 6-23 26-21 66 6 89 26 23 66 21 89-6zm20-297c18-20 16-51-4-69-20-18-51-16-69 4-18 20-16 51 4 69 20 18 51 16 69-4zm-578 1682c115 321 209 622 112 969-120 432-421 621-800 778 129-213 202-387 238-640 5-110 9-219 14-329 42-364 156-560 436-778zm-833 656c79-211 209-280 379-388 1 180 3 307-62 429-104 197-477 353-668 209 140-64 260-117 351-250zm129-892c28 109 70 193 15 301-60 119-185 163-297 217 42-64 72-113 85-166 20-79 17-93 42-158 26-67 84-127 155-193zm-1704-807c21 130 64 253 142 372 251 213 360 366 350 715-538-196-661-563-491-1087zm558 89c444 32 688-108 713-573-218 76-348 137-461 338-70 101-152 175-251 236zm437-562c-56 76-104 128-159 161-191 116-366 79-492-34-71-63-127-150-162-246 192 169 316 146 498 4 168-6 183 11 316 115zm1098 2889c225-180 396-387 386-700-3-99-34-197-109-323 81 439-6 670-277 1023zm-897-2695c-49 149-164 305-384 323 184-84 288-175 384-323zm-1190 652c31 257 99 372 292 545-139-170-230-344-292-545zm1884 1177c-8 136-75 271-288 375 123-117 215-217 288-375zm-1634-218c-98-46-219-103-323-59 127 75 185 93 323 59zm4378 3301c-65-31-88-27-133 30-74-22-117 2-145 31-41 43-43 113 5 189 45-80 59-107 142-78 57 99 157 130 257 41 259-229-152-642-413-471-373 244-326 828 89 980-2 73 59 95 121 111-37-43-39-34-37-91 83 28 125 42 258 12 0 0-14-22-30-22-181-4-396-113-494-260-48-72-75-161-74-272 164 240 339 373 539 404 208 32 432 4 692-61 274-68 449-118 728-23 120 41 221 119 297 212 73 90 139 208 112 369-47-10-94-19-141-29 10 94-16 224-103 278-77 47-149 43-205 10-124-72-173-284-39-392-282 66-357 312-203 493 175 206 487 259 695 87 153-126 192-349 161-510-77-390-431-567-725-623 262-140 477-278 602-525 72-146 55-349 80-461 38-35 63-51 89-55 33-5 66 11 126 37-51-131-150-153-263-84 43-179 137-347 344-367 80-8 142 23 99 138 31 38 43 56 57 56 47 0 65-33 68-73 11-140-101-222-236-210-149 13-271 111-340 234-1-24-3-49-4-73 82-64 143-94 173-201-47 26-83 36-141 55 20-155 32-263-91-378-152 127-99 253-22 414-47-15-64-32-110-63 7 102 50 138 135 180 10 32 10 73 20 104-4 44-8 89-11 133-123-122-236-162-397-208-134-9-243 1-328 57-148 98-219 218-226 334-8 150 91 294 271 375 62 4 200 163 79 263-21 18-56 21-108 5 10 109 118 123 186 62 57-50 87-150 14-288 95-22 166-79 209-148 64-103 65-234-17-319-95-99-222-111-310-48-124 89-91 218-23 266 69 49 162-5 125-86-71-32-80-77-56-106 33-39 129-46 218 57 60 83 31 173-51 239-64 51-125 66-181 58-257-36-395-338-203-515 93-86 192-134 289-141 149-11 270 41 358 122 176 161 196 366 125 549-128 330-545 564-884 583 355-401-58-941-466-672-94 62-149 236-82 334 96 141 248 132 361 42-160-18-236-161-178-220 71-72 224 12 299 50 23-8 45-16 68-25 141 174 19 360-140 483-78 60-164 105-234 127-191 60-386 88-594 29-113-32-222-93-323-195-60-69-107-136-128-203-31-98-7-196 108-298 38 28 50 33 96 38-1-34-7-50-20-81 36-24 83-32 129-22 53 12 103 47 128 108-6 30-12 60-18 90 25-5 60-2 85-7 6 38 4 75-8 106-17 45-49 61-78 59-58-5-113-75-21-134zm1699 1025c-53 40-128 30-169-23-40-53-30-128 23-169 53-40 128-30 169 23 40 53 30 128-23 169zm-279-271c-45 34-108 26-143-19-34-45-26-108 19-143 45-34 108-26 143 19 34 45 26 108-19 143zm-316-50c-36 28-89 21-116-16-28-36-21-89 16-116 36-28 89-21 116 16 28 36 21 89-16 116zm-283 32c-28 22-69 16-90-12-22-28-16-69 12-90 28-22 69-16 90 12 22 28 16 69-12 90zm-239 22c-20 15-49 12-64-9-15-20-12-49 9-64 20-15 49-12 64 9 15 20 12 49-9 64zm-216-1c-16 12-38 9-50-7-12-16-9-38 7-50 16-12 38-9 50 7 12 16 9 38-7 50zm1244-332c226 99 439 182 694 130 318-65 470-272 602-538-160 82-290 126-474 139-79-2-159-4-238-6-265 12-413 84-584 275zm516-568c-157 46-213 137-300 254 130 10 221 18 313-23 148-65 279-327 185-472-53 98-98 182-198 241zm-651 48c78 26 136 60 217 26 89-37 127-125 171-204-48 27-85 46-124 53-58 10-68 8-116 22-50 15-96 54-148 102zm-496-1272c93 21 180 59 262 121 141 192 246 278 499 289-115-398-373-506-760-410zm36 408c0 322-113 491-450 486 66-153 116-244 267-316 77-45 134-101 183-170zm-428 287c58-36 98-68 125-107 94-132 75-260 0-357-42-55-102-99-170-130 113 147 89 236-23 360-13 121-2 133 67 234zm2031 940c-141 153-300 266-525 243-71-7-141-34-228-95 313 81 485 29 753-148zm-1902-785c110-28 229-103 253-261-70 129-141 199-253 261zm531-826c184 35 264 91 379 239-116-109-237-183-379-239zm755 1420c99 1 199-41 286-189-90 83-168 145-286 189zm-74-1191c-28-73-64-164-26-236 48 96 58 138 26 236zm-5673-10477c-4 27-23 70-55 102-63 62-173 56-198-36-41-146 107-225 223-231 303-17 530 164 649 385 471 871 101 1886-217 2773-39 109-64 221-91 329-46 306-31 578 75 875 193-26 396 51 534 168 65 55 116 121 146 196 90 218-28 379-272 352-253-29-471-341-567-578-64 5-143 45-180 71 47 262 138 487 257 697 125 223 298 420 361 674 53 213 14 415-140 639 91-216 105-347 62-586-31-132-84-246-146-355-75-131-163-255-242-394-104-182-171-384-242-601-191 225-298 491-226 793 46 192 131 316 272 445 50-19 85-27 123-30 90-7 251 43 242 160-5 60-46 99-99 120-64 26-148 30-201 6-128-56-225-176-292-316-238-493-201-978 143-1306-46-550-30-1020 221-1503 64-100 129-201 193-301 143-218 198-419 275-669 66-322 101-638 108-968-31-344-97-724-428-907-89-49-186-65-286-5zm18 4300c53-35 110-59 171-75-73-338-78-630-18-958-151 324-175 667-153 1032zm378 28c86 192 249 489 470 466 113-12 139-68 98-176-78-201-421-324-568-290zm691 24l144-445 468 2-379-275 146-445-379 275-378-276 145 445-380 274h468l143 446zm-11-1308l181-300 341 81-229-265 182-299-323 136-228-266 30 349-323 135 341 80 28 349zm86-944l129-200 230 61-151-184 129-200-222 87-150-185 14 238-222 86 230 60 13 238z"/></g></g><path d="m13946 3543c2307-63 6003 1841 6010 6381 2 1213-465 5249-576 6851-133 1921-231 4655-272 6601-18 1684-404 2660-1144 3054-985 346-2007 448-3085 195-1114-287-1668-1182-1684-2992 42-2337 323-6382-114-8507-565-2750-1279-3111-1554-6423-166-1993-105-5091 2418-5160z" fill="#fff"/><g clip-path="url(#1)"><g fill="#201e1e" stroke="#201e1e" stroke-width="7.62"><path d="m12108 7098c-23 53-39 62-96 52-33 52-71 61-103 58-47-4-85-45-97-116 69 24 91 33 126-28-18-89 25-160 132-160 276 1 247 464 1 500-351 50-631-324-463-633-39-43-15-88 14-130 0 45-5 41 26 74 35-61 53-91 148-143 0 0 3 21-6 29-107 98-178 276-159 416 9 68 40 136 99 202-28-230 6-402 110-525 108-129 257-230 446-328 200-103 331-166 448-370 50-87 70-188 66-283-4-93-26-197-128-280-23 30-46 61-69 91-44-61-128-126-208-112-71 12-112 53-128 102-36 109 46 261 183 255-204 109-378 2-381-188-4-215 155-411 370-418 158-5 299 108 365 220 159 274 41 567-106 755 231-54 432-85 636-3 120 50 217 180 290 234 41 1 65-3 82-14 22-14 33-41 56-89 39 105-9 171-113 189 120 84 264 135 399 39 52-37 73-88-14-135-2-39-4-56 5-63 28-25 56-14 79 8 81 78 56 186-30 250-96 71-220 76-327 39 12 15 24 31 36 46 83-5 135-19 210 29-42 9-68 22-113 41 94 82 157 141 145 274-158 4-192-99-231-236-20 34-21 52-33 96-50-65-43-109-14-179-11-24-32-49-43-73-26-24-51-49-77-73-10 138-56 222-128 333-75 76-146 127-226 138-140 20-246-15-311-81-84-85-101-224-36-367 35-35 34-203-91-199-22 1-45 17-67 54-51-71 6-135 79-135 60 0 131 44 160 165 68-37 141-41 203-22 93 28 162 106 158 200-5 109-75 183-160 192-121 12-169-83-154-147 15-66 100-82 120-14-25 56-7 88 22 93 40 6 101-40 100-149-8-81-72-120-156-116-65 3-109 26-139 60-135 157-59 410 150 415 101 2 185-21 247-67 95-72 140-167 150-262 21-189-76-322-214-394-250-130-623-50-836 117 424 53 461 594 75 647-89 12-213-63-225-157-17-135 79-209 194-215-86 95-56 220 9 225 81 6 128-125 153-188 18-7 36-14 54-21-8-178-178-226-338-215-78 5-154 24-207 47-146 65-277 151-371 296-51 79-84 172-91 287 0 73 7 137 30 189 33 75 99 121 222 122 8-36 12-46 37-74 17 21 23 33 31 59 34-5 67-25 89-55 26-35 37-83 20-132-19-15-39-30-58-45 17-10 37-31 54-41-16-26-37-47-60-59-34-18-62-11-78 6-32 33-29 104 58 91zm477-1508c-53 4-93 49-89 102 4 53 49 93 102 89 53-4 93-49 89-102-4-53-49-93-102-89zm-24 310c-45 3-78 42-75 86 3 45 42 78 86 75 45-3 78-42 75-86-3-45-42-78-86-75zm-163 196c-36 3-64 34-61 71 3 36 34 64 71 61 36-3 64-34 61-71-3-36-34-64-71-61zm-186 130c-28 2-50 26-48 55 2 28 26 50 55 48 28-2 50-26 48-55-2-28-26-50-55-48zm-155 112c-20 1-35 19-34 39 1 20 19 35 39 34 20-1 35-19 34-39-1-20-19-35-39-34zm-129 114c-16 1-27 15-26 30 1 16 15 27 30 26 16-1 27-15 26-30-1-16-15-27-30-26zm920-457c83-178 167-340 347-444 224-129 425-85 644 5-139 35-240 77-357 167-46 43-93 86-139 129-165 133-291 167-494 143zm608 68c-118 55-200 30-313 6 73-74 123-127 200-151 123-39 339 48 359 185-83-31-154-57-245-40zm-415 314c33-56 50-108 116-130 73-24 142 8 210 32-43 9-75 17-102 34-40 25-45 31-81 48-38 17-86 18-142 17zm373 1023c44-62 76-130 93-210-17-190 1-296 146-436 141 299 43 499-239 646zm-193-263c-170-193-326-235-525-53 120 57 198 85 326 48 70-13 134-10 199 5zm-408 53c54-9 94-10 131-2 126 30 182 116 189 214 4 55-9 113-33 167-10-147-71-188-203-203-71-65-71-79-83-175zm721-1632c-165-17-320-2-442 131-39 42-66 95-86 177 145-213 274-273 529-308zm-725 1471c81-41 191-59 289 23-110-40-189-45-289-23zm753 215c91-118 110-193 101-343-12 126-45 234-101 343zm-297-1248c58-53 141-81 270-37-98-2-176 2-270 37zm583 752c22 58 48 131 109 155-22-82-38-113-109-155zm-760 3625c2 81 18 101 98 117 16 85 61 116 104 130 64 20 134-14 186-100-102-4-136-5-150-103 70-107 50-222-88-277-360-143-564 476-262 650 431 249 990-93 933-584 73-35 65-107 50-177-24 59-14 56-72 83-14-97-21-146-118-263 0 0-14 25-7 41 88 183 87 452-10 624-48 84-122 156-234 211 156-285 201-526 131-741-73-224-214-433-410-659-206-239-344-388-390-715-20-140 7-281 62-403 53-118 137-243 312-298 14 52 28 103 43 155 89-57 232-97 329-37 86 53 118 127 113 200-10 160-196 316-371 237 208 248 491 199 594-46 117-279 13-616-264-738-203-89-445-16-590 97-350 273-349 716-256 1038-272-191-518-336-827-336-183 2-376 121-500 153-54-20-83-37-100-61-21-30-22-71-26-145-105 117-77 227 49 305-200 47-415 38-540-158-48-76-49-153 88-168 23-50 34-71 27-85-24-47-66-48-107-31-146 59-170 213-91 341 88 142 247 214 405 221-24 14-47 27-71 41-106-50-166-95-288-71 50 34 77 64 126 113-165 58-278 101-332 281 204 87 302-29 424-186 9 55 1 79-7 142 99-59 113-119 112-226 27-26 67-47 94-73 46-19 92-37 138-56-60 185-43 318-7 501 59 139 124 242 222 298 172 99 328 109 448 57 154-67 247-239 238-460-27-63 61-282 222-212 28 12 50 45 59 105 104-65 63-179-32-217-78-32-194-11-294 131-70-83-162-126-253-135-135-12-266 53-310 178-51 145 2 278 108 334 151 79 263-20 277-112 14-94-87-159-149-81 4 86-37 119-77 110-55-13-111-105-53-246 53-101 157-118 264-69 83 38 129 91 149 151 94 275-137 565-412 462-132-49-231-124-287-217-86-143-95-290-59-419 72-256 266-380 484-402 394-39 838 260 1027 588-580-152-909 533-435 804 110 63 310 29 375-87 92-167 6-314-140-381 63 168-41 317-129 288-108-35-101-230-101-324-20-18-39-37-59-55 103-228 350-201 553-104 99 47 188 111 245 169 156 160 282 341 329 578 25 129 20 268-32 421-38 95-81 175-137 230-82 80-192 106-352 43 8-52 8-66-10-115-33 18-47 32-71 61-42-24-74-67-87-118-15-59-5-127 43-182 33-9 66-19 99-28-17-22-33-59-50-81 35-25 73-42 109-46 54-5 86 18 98 49 24 60-17 151-123 88zm165-2213c67 32 95 113 63 180-32 67-113 95-180 63-67-32-95-113-63-180 32-67 113-95 180-63zm-130 416c57 27 80 95 53 152-27 57-95 80-152 53-57-27-80-95-53-152 27-57 95-80 152-53zm110 341c46 22 66 78 43 124-22 46-78 66-124 43-46-22-66-78-43-124 22-46 78-66 124-43zm175 267c36 17 51 60 34 96-17 36-60 51-96 34-36-17-51-60-34-96 17-36 60-51 96-34zm143 227c25 12 36 43 24 68-12 25-43 36-68 24-25-12-36-43-24-68 12-25 43-36 68-24zm108 215c20 10 28 33 18 53-10 20-33 28-53 18-20-10-28-33-18-53 10-20 33-28 53-18zm-959-1074c-15-276-40-530-220-758-225-285-509-332-841-330 163 118 272 226 378 403 38 80 76 161 114 241 146 259 292 369 569 444zm-827-228c125 133 244 144 405 171-56-134-94-230-181-301-140-115-467-114-564 54 125 4 230 6 340 76zm376 625c-13-90-9-166-83-229-82-70-189-64-290-68 52 35 89 61 116 97 40 53 42 64 81 105 40 42 103 69 176 96zm-1019 1137c-25-104-32-209-11-322 121-238 153-386 37-643-340 315-317 627-26 965zm388-242c321-163 547-135 712 204-186 12-302 7-450-107-84-54-168-83-262-97zm503 282c-65-39-118-63-169-71-179-27-298 56-357 180-33 69-48 152-44 235 90-187 190-208 371-159 127-48 133-66 200-185zm-87-2501c224 64 417 165 508 401 29 75 37 158 20 275-77-353-215-498-528-676zm177 2293c-83-95-218-176-388-121 164 5 270 40 388 121zm-1093-113c-57-201-43-309 47-499-50 171-63 329-47 499zm1037-1470c-48-99-141-178-333-190 129 48 229 94 333 190zm-1151 675c-59 65-131 146-222 145 71-96 109-127 222-145zm2232-3837c-39 44-57 48-109 19-49 40-88 36-118 23-44-19-67-71-56-143 58 46 77 61 131 14 11-92 76-146 178-111 265 90 88 527-160 481-355-65-503-516-241-759-24-54 14-90 55-121-14 43-19 38 1 79 53-47 80-71 189-90 0 0-4 21-15 26-134 59-260 208-287 349-13 69-6 144 30 226 47-231 136-385 276-470 146-89 322-138 535-172 226-35 372-53 551-211 77-68 128-158 155-252 26-90 38-199-32-311-32 22-64 44-96 66-22-73-82-163-164-175-72-11-125 15-156 57-70 93-40 266 94 305-231 39-364-120-306-304 66-209 282-346 492-283 154 46 253 200 280 330 65 315-144 559-346 693 240 22 443 58 614 203 100 87 151 243 204 319 39 14 63 18 84 13 26-7 46-29 82-67 3 114-64 162-170 146 88 120 211 216 372 166 62-19 98-61 30-134 11-38 15-55 25-59 35-15 59 4 74 33 53 101-6 197-110 231-115 37-237 2-327-68 7 19 13 37 20 56 82 22 136 26 192 96-43-5-73-1-122 3 64 109 106 186 51 311-153-47-153-157-147-302-31 26-38 44-62 81-27-79-6-119 44-177-3-27-15-57-18-84-17-32-33-64-50-96-54 130-125 195-231 280-97 49-182 75-262 60-141-26-232-94-273-179-53-109-25-248 84-365 45-22 98-184-23-221-21-6-49 2-82 30-27-85 49-128 119-105 58 19 112 85 101 210 78-13 149 7 203 44 80 57 122 154 87 244-40 104-131 153-216 133-121-27-136-134-100-191 36-58 123-47 120 25-43 46-36 83-9 97 37 19 111-6 145-111 19-81-31-139-113-162-64-18-114-10-153 13-181 107-189 376 10 448 96 35 185 40 260 15 115-39 189-116 229-203 81-175 31-335-79-449-199-206-584-250-843-158 391 188 252 720-137 648-90-17-185-130-166-224 27-136 143-176 256-145-113 63-126 194-64 220 76 32 164-79 208-131 19-1 39-2 59-3 50-174-99-275-256-317-77-21-156-27-214-21-161 15-315 55-453 165-74 59-137 139-180 247-23 70-37 135-32 191 8 83 56 148 174 189 20-32 27-40 60-59 10 25 11 40 11 67 34 7 72-3 103-24 36-25 62-67 62-121-14-21-28-41-42-62 20-4 46-17 66-22-7-30-21-58-39-76-27-28-56-30-77-19-42 22-61 91 26 106zm947-1298c-52-14-105 18-119 70-14 52 18 105 70 119 52 14 105-18 119-70 14-52-18-105-70-119zm-123 290c-44-11-89 15-100 59-11 44 15 89 59 100 44 11 89-15 100-59 11-44-15-89-59-100zm-220 136c-36-9-73 12-82 48-9 36 12 73 48 82 36 9 73-12 82-48 9-36-12-73-48-82zm-222 65c-28-7-56 9-64 37-7 28 9 56 37 64 28 7 56-9 64-37 7-28-9-56-37-64zm-185 58c-20-5-40 7-45 27-5 20 7 40 27 45 20 5 40-7 45-27 5-20-7-40-27-45zm-161 68c-15-4-31 5-35 21-4 15 5 31 21 35 15 4 31-5 35-21 4-15-5-31-21-35zm1033-143c138-145 270-274 477-315 258-52 436 56 619 213-146-11-256-3-398 45-59 27-117 53-176 80-202 74-334 67-522-22zm564 262c-131 15-202-35-303-95 94-48 160-83 241-81 131 2 311 156 286 294-70-56-130-105-223-118zm-501 168c50-44 83-88 153-87 78 0 134 54 192 98-45-5-78-8-109-1-47 11-53 16-94 20-42 4-89-10-142-30zm29 1105c63-45 116-101 157-172 45-188 97-285 282-372 39 333-119 495-439 545zm-101-316c-101-241-238-331-488-221 97 94 164 146 299 152 71 10 132 33 190 69zm-410-80c54 9 94 21 127 41 111 69 138 171 113 267-14 54-45 106-86 150 38-145-7-204-130-261-48-86-43-99-23-196zm1221-1339c-154-70-307-105-468-17-51 28-94 70-140 142 208-159 352-174 608-126zm-1173 1182c91-13 203 5 271 116-93-74-168-104-271-116zm656 450c126-84 169-150 208-297-52 118-119 211-208 297zm118-1297c73-32 161-32 272 51-94-34-170-55-272-51zm318 912c2 63 4 142 54 184 6-86 0-121-54-184zm-946 9600c-12-19-39-45-73-59-66-26-146 13-137 89 15 121 150 134 239 103 231-82 344-289 364-491 78-798-516-1439-1032-2002-63-69-117-145-171-217-131-214-205-422-219-677 153-41 280-162 346-292 31-61 48-127 48-192-2-191-140-274-313-177-180 101-245 402-242 609-49 16-121 11-156 3-47-210-49-407-27-601 24-206 91-407 58-617-27-176-120-314-305-433 136 133 187 227 230 418 18 109 14 210 2 310-15 121-42 241-57 370-20 168-8 340 8 524-213-108-376-273-417-521-26-158-1-277 63-417 43-2 72-6 101-16 69-23 174-111 131-195-22-43-65-59-112-59-56 1-120 24-152 58-78 82-112 202-119 327-23 443 156 793 516 930 138 424 298 770 636 1053 79 55 159 110 238 164 175 118 279 250 415 413 150 219 276 445 384 688 85 267 155 571-35 811-51 65-118 107-212 94zm-1336-3215c50 9 101 10 151 2 52 275 139 495 287 720-214-194-340-443-438-723zm273-140c4-170 33-444 205-496 88-27 125 7 128 101 5 175-213 374-333 395zm508-234l247 287 349-148-197 324 249 286-369-87-195 325-31-378-369-85 349-147-33-378zm402 980l229 167 229-167-88 269 230 166h-283l-87 270-87-270-283 1 229-166-88-269zm361 678l159 109 153-118-55 185 159 109-193 5-54 185-64-182-193 6 153-117-65-182zm174 590l108 70 99-81-33 124 108 69-128 7-33 124-46-120-128 7 100-81-47-120z"/><path d="m17884 24112c51-49 74-52 134-13 63-44 110-35 145-17 52 27 75 92 55 178-67-60-88-81-157-28-22 110-106 170-226 119-314-133-59-647 238-569 424 111 563 671 224 943 24 67-26 107-78 142 21-51 26-44 6-96-69 52-104 79-237 92 0 0 7-25 21-30 168-60 335-229 380-398 22-82 20-174-16-277-78 276-199 454-377 546-184 95-402 139-665 160-277 22-456 31-687 207-99 75-170 180-211 291-40 107-64 237 11 380 41-24 82-47 123-71 20 91 85 205 183 227 87 20 152-7 195-55 93-106 72-319-86-378 284-27 431 179 344 397-99 247-373 394-622 299-182-70-289-266-310-425-51-388 225-665 482-809-289-48-532-110-726-301-113-114-161-308-219-405-46-21-75-28-100-24-32 6-58 31-106 74 6-138 92-190 219-161-96-154-236-281-436-235-77 18-125 66-49 160-17 45-23 65-36 70-44 15-71-11-87-47-55-127 25-239 154-270 143-35 287 18 391 112-6-23-13-46-19-70-97-34-163-43-225-134 52 10 88 8 149 7-67-138-112-236-34-382 182 71 172 205 151 379 39-29 50-49 83-93 26 98-3 145-69 211 1 33 13 71 14 104 17 40 35 80 52 120 77-153 170-226 306-318 122-51 227-75 324-49 169 45 273 135 316 242 55 137 7 303-135 435-56 23-136 214 8 270 25 10 59 2 102-29 25 105-71 151-154 117-69-29-128-113-103-264-95 9-180-21-242-72-93-76-134-198-84-304 58-122 173-173 274-142 144 44 153 175 105 241-49 68-153 46-144-42 56-52 51-97 20-116-43-26-135-3-185 121-30 96 25 171 123 207 76 28 137 23 187-2 229-114 263-439 28-544-114-51-221-65-314-41-143 37-239 123-296 226-114 205-68 403 55 551 222 268 686 356 1008 267-457-264-241-896 225-773 108 29 213 174 181 286-46 162-190 200-323 152 143-67 170-224 97-261-89-45-206 82-264 140-24-1-47-1-71-2-77 207 95 342 282 407 91 32 186 47 258 45 197-4 388-39 564-159 95-65 178-156 241-284 35-83 57-160 56-229-2-101-54-185-194-245-27 38-36 47-78 66-10-32-10-49-7-82-41-11-88-3-127 20-46 27-82 76-86 141 15 26 30 53 45 79-24 3-57 17-81 20 6 37 20 72 40 96 30 37 65 41 92 30 52-22 83-105-22-131zm-1265 1489c62 21 129-12 150-74 21-62-12-129-74-150-62-21-129 12-150 74-21 62 12 129 74 150zm176-341c52 18 109-10 127-62 18-52-10-109-62-127-52-18-109 10-127 62-18 52 10 109 62 127zm279-146c43 15 89-8 104-51 15-43-8-89-51-104-43-15-89 8-104 51-15 43 8 89 51 104zm275-59c33 11 69-6 81-40 11-33-6-69-40-81-33-11-69 6-81 40-11 33 6 69 40 81zm230-54c24 8 49-5 57-28 8-24-5-49-28-57-24-8-49 5-57 28-8 24 5 49 28 57zm201-68c18 6 38-4 44-22 6-18-4-38-22-44-18-6-38 4-44 22-6 18 4 38 22 44zm-1266 80c-180 163-353 308-607 339-317 39-524-107-731-314 175 27 310 27 486-19 73-27 147-54 220-81 251-72 411-51 631 74zm-660-369c161-6 242 61 359 143-118 50-201 86-300 77-159-15-363-218-320-383 80 75 148 139 260 163zm622-159c-64 48-108 99-194 92-95-7-158-77-224-136 54 10 94 16 133 11 58-9 66-14 116-16 51-1 107 20 170 49zm65-1343c-80 49-149 112-206 195-72 224-143 337-375 426-18-408 190-589 581-621zm94 392c101 301 259 423 572 312-109-123-185-192-348-211-86-18-157-52-224-101zm490 134c-65-16-112-33-150-61-129-94-152-219-112-333 22-64 64-125 118-174-59 173-9 248 134 329 50 109 43 124 11 240zm-1602 1513c180 99 363 155 566 63 64-29 120-76 183-160-267 174-443 179-749 97zm1529-1328c-111 8-246-24-318-165 106 98 194 142 318 165zm-755-605c-160 91-218 167-279 342 74-138 164-245 279-342zm-259 1562c-92 32-199 25-326-87 110 49 202 83 326 87zm-304-1135c3-77 8-173-49-229-15 104-11 147 49 229zm2600-3764c37-93 28-124-55-180 23-105-13-161-56-197-63-53-159-48-260 25 114 54 153 71 121 189-131 88-164 229-32 357 341 335 870-272 609-615-372-490-1172-368-1341 218-100 5-125 91-142 177 55-56 43-57 121-60-31 117-46 176 8 356 0 0 29-22 28-43-13-250 117-557 310-706 94-73 214-120 367-128-315 250-481 503-504 782-24 290 37 596 151 947 120 370 206 607 102 1001-44 169-142 316-264 430-118 109-273 211-498 190 9-66 17-131 26-197-128 22-311 0-393-115-72-102-74-201-34-282 88-178 374-266 536-92-118-382-464-462-699-232-267 261-309 695-53 966 188 199 500 231 718 172 529-143 740-649 788-1059 218 348 429 630 781 778 209 85 486 42 642 65 51 49 77 82 85 117 10 45-9 92-39 177 176-83 197-222 91-371 251 42 491 155 539 439 19 109-18 197-181 149-50 46-73 65-71 84 5 65 52 86 107 87 194 2 296-161 267-345-32-203-179-362-356-446 34-4 67-8 101-13 97 107 144 188 294 219-41-62-57-110-90-189 215 13 365 18 512-162-190-197-358-112-572 9 16-67 37-91 76-158-140 19-186 82-235 203-43 17-99 21-142 38-61-1-123-2-184-3 156-182 201-341 248-567 0-186-25-335-110-446-149-195-321-281-483-279-207 3-396 153-491 410 0 85-205 292-354 135-26-28-35-76-17-148-150 25-157 174-68 263 74 74 215 106 397-9 40 128 124 222 223 274 148 79 329 67 438-55 127-141 131-317 36-432-134-162-309-104-369-6-61 100 23 223 131 164 37-100 99-118 140-88 57 41 76 173-57 305-108 90-235 59-334-47-77-83-103-165-98-243 24-358 427-577 690-329 127 120 203 251 223 384 30 205-31 376-133 505-204 258-485 305-744 225-467-144-830-697-888-1161 587 450 1290-171 880-707-95-124-340-182-468-80-185 146-157 354-23 501 9-222 199-341 285-267 106 91 5 310-40 417 14 30 27 61 41 91-227 211-494 61-679-146-90-101-161-216-198-310-100-257-158-523-97-816 33-159 106-315 238-464 89-90 176-160 267-196 132-52 269-29 421 120-34 55-41 72-43 136 47-4 69-14 110-36 36 47 52 112 42 176-11 74-55 147-136 187-42-5-84-10-126-16 9 33 9 83 18 116-51 12-103 13-146 0-64-20-89-62-88-102 1-80 92-163 182-42zm-1247 2440c-61-69-54-174 15-234 69-61 174-54 234 15 61 69 54 174-15 234-69 61-174 54-234-15zm347-411c-51-58-46-147 12-198 58-51 147-46 198 12 51 58 46 147-12 198-58 51-147 46-198-12zm38-440c-42-48-37-120 10-162 48-42 120-37 162 10 42 48 37 120-10 162-48 42-120 37-162-10zm-71-387c-33-37-29-93 8-126 37-33 93-29 126 8 33 37 29 93-8 126-37 33-93 29-126-8zm-54-327c-23-26-21-66 6-89 26-23 66-21 89 6 23 26 21 66-6 89-26 23-66 21-89-6zm-20-297c-18-20-16-51 4-69 20-18 51-16 69 4 18 20 16 51-4 69-20 18-51 16-69-4zm578 1682c-115 321-209 622-112 969 120 432 421 621 800 778-129-213-202-387-238-640-5-110-9-219-14-329-42-364-156-560-436-778zm833 656c-79-211-209-280-379-388-1 180-3 307 62 429 104 197 477 353 668 209-140-64-260-117-351-250zm-129-892c-28 109-70 193-15 301 60 119 185 163 297 217-42-64-72-113-85-166-20-79-17-93-42-158-26-67-84-127-155-193zm1704-807c-21 130-64 253-142 372-251 213-360 366-350 715 538-196 661-563 491-1087zm-558 89c-444 32-688-108-713-573 218 76 348 137 461 338 70 101 152 175 251 236zm-437-562c56 76 104 128 159 161 191 116 366 79 492-34 71-63 127-150 162-246-192 169-316 146-498 4-168-6-183 11-316 115zm-1098 2889c-225-180-396-387-386-700 3-99 34-197 109-323-81 439 6 670 277 1023zm897-2695c49 149 164 305 384 323-184-84-288-175-384-323zm1190 652c-31 257-99 372-292 545 139-170 230-344 292-545zm-1884 1177c8 136 75 271 288 375-123-117-215-217-288-375zm1634-218c98-46 219-103 323-59-127 75-185 93-323 59zm-4378 3301c65-31 88-27 133 30 74-22 117 2 145 31 41 43 43 113-5 189-45-80-59-107-142-78-57 99-157 130-257 41-259-229 152-642 413-471 373 244 326 828-89 980 2 73-59 95-121 111 37-43 39-34 37-91-83 28-125 42-258 12 0 0 14-22 30-22 181-4 396-113 494-260 48-72 75-161 74-272-164 240-339 373-539 404-208 32-432 4-692-61-274-68-449-118-728-23-120 41-221 119-297 212-73 90-139 208-112 369 47-10 94-19 141-29-10 94 16 224 103 278 77 47 149 43 205 10 124-72 173-284 39-392 282 66 357 312 203 493-175 206-487 259-695 87-153-126-192-349-161-510 77-390 431-567 725-623-262-140-477-278-602-525-72-146-55-349-80-461-38-35-63-51-89-55-33-5-66 11-126 37 51-131 150-153 263-84-43-179-137-347-344-367-80-8-142 23-99 138-31 38-43 56-57 56-47 0-65-33-68-73-11-140 101-222 236-210 149 13 271 111 340 234 1-24 3-49 4-73-82-64-143-94-173-201 47 26 83 36 141 55-20-155-32-263 91-378 152 127 99 253 22 414 47-15 64-32 110-63-7 102-50 138-135 180-10 32-10 73-20 104 4 44 8 89 11 133 123-122 236-162 397-208 134-9 243 1 328 57 148 98 219 218 226 334 8 150-91 294-271 375-62 4-200 163-79 263 21 18 56 21 108 5-10 109-118 123-186 62-57-50-87-150-14-288-95-22-166-79-209-148-64-103-65-234 17-319 95-99 222-111 310-48 124 89 91 218 23 266-69 49-162-5-125-86 71-32 80-77 56-106-33-39-129-46-218 57-60 83-31 173 51 239 64 51 125 66 181 58 257-36 395-338 203-515-93-86-192-134-289-141-149-11-270 41-358 122-176 161-196 366-125 549 128 330 545 564 884 583-355-401 58-941 466-672 94 62 149 236 82 334-96 141-248 132-361 42 160-18 236-161 178-220-71-72-224 12-299 50-23-8-45-16-68-25-141 174-19 360 140 483 78 60 164 105 234 127 191 60 386 88 594 29 113-32 222-93 323-195 60-69 107-136 128-203 31-98 7-196-108-298-38 28-50 33-96 38 1-34 7-50 20-81-36-24-83-32-129-22-53 12-103 47-128 108 6 30 12 60 18 90-25-5-60-2-85-7-6 38-4 75 8 106 17 45 49 61 78 59 58-5 113-75 21-134zm-1699 1025c53 40 128 30 169-23 40-53 30-128-23-169-53-40-128-30-169 23-40 53-30 128 23 169zm279-271c45 34 108 26 143-19 34-45 26-108-19-143-45-34-108-26-143 19-34 45-26 108 19 143zm316-50c36 28 89 21 116-16 28-36 21-89-16-116-36-28-89-21-116 16-28 36-21 89 16 116zm283 32c28 22 69 16 90-12 22-28 16-69-12-90-28-22-69-16-90 12-22 28-16 69 12 90zm239 22c20 15 49 12 64-9 15-20 12-49-9-64-20-15-49-12-64 9-15 20-12 49 9 64zm216-1c16 12 38 9 50-7 12-16 9-38-7-50-16-12-38-9-50 7-12 16-9 38 7 50zm-1244-332c-226 99-439 182-694 130-318-65-470-272-602-538 160 82 290 126 474 139 79-2 159-4 238-6 265 12 413 84 584 275zm-516-568c157 46 213 137 300 254-130 10-221 18-313-23-148-65-279-327-185-472 53 98 98 182 198 241zm651 48c-78 26-136 60-217 26-89-37-127-125-171-204 48 27 85 46 124 53 58 10 68 8 116 22 50 15 96 54 148 102zm496-1272c-93 21-180 59-261 121-141 192-246 278-499 289 115-398 373-506 760-410zm-36 408c0 322 113 491 450 486-66-153-116-244-267-316-77-45-134-101-183-170zm428 287c-58-36-98-68-125-107-94-132-75-260 0-357 42-55 102-99 170-130-113 147-89 236 23 360 13 121 2 133-67 234zm-2031 940c141 153 300 266 525 243 71-7 141-34 228-95-313 81-485 29-753-148zm1902-785c-110-28-229-103-253-261 70 129 141 199 253 261zm-531-826c-184 35-264 91-379 239 116-109 237-183 379-239zm-755 1420c-99 1-199-41-286-189 90 83 168 145 286 189zm74-1191c28-73 64-164 26-236-48 96-58 138-26 236zm5673-10477c4 27 23 70 55 102 63 62 173 56 198-36 41-146-107-225-223-231-303-17-530 164-649 385-471 871-101 1886 217 2773 39 109 64 221 91 329 46 306 31 578-75 875-193-26-396 51-534 168-65 55-116 121-146 196-90 218 28 379 272 352 253-29 471-341 567-578 64 5 143 45 180 71-47 262-138 487-257 697-125 223-298 420-361 674-53 213-14 415 140 639-91-216-105-347-62-586 31-132 84-246 146-355 75-131 163-255 242-394 104-182 171-384 242-601 191 225 298 491 226 793-46 192-131 316-272 445-50-19-85-27-123-30-90-7-251 43-242 160 5 60 46 99 99 120 64 26 148 30 201 6 128-56 225-176 292-316 238-493 201-978-143-1306 46-550 30-1020-221-1503-64-100-129-201-193-301-143-218-198-419-275-669-66-322-101-638-108-968 31-344 97-724 428-907 89-49 186-65 286-5zm-18 4300c-53-35-110-59-171-75 73-338 78-630 18-958 151 324 175 667 153 1032zm-378 28c-86 192-249 489-470 466-113-12-139-68-98-176 78-201 421-324 568-290zm-691 24l-144-445-468 2 379-275-146-445 379 275 378-276-145 445 380 274h-468l-143 446zm11-1308l-181-300-341 81 229-265-182-299 323 136 228-266-30 349 323 135-341 80-28 349zm-86-944l-129-200-230 61 151-184-129-200 222 87 150-185-14 238 222 86-230 60-13 238z"/></g></g><g fill="#201e1e"><g stroke="#201e1e"><g fill-rule="nonzero" stroke-width="7.62"><path d="m1530 10887c6 4 9 9 9 14-121 98-222 149-305 153-47 2-87-11-120-41-33-29-61-83-84-160-23-78-37-162-42-254-2-29-2-59-1-92 1-32 4-70 10-114 5-44 17-88 34-131 17-43 47-77 90-103 43-26 89-40 138-43 44-2 86 7 126 29 40 22 72 55 95 100 23 44 40 84 50 118 10 34 16 75 19 122 0 9-7 14-24 15-12 1-22-1-30-5-8-4-13-9-13-15l8-87c-3-61-24-108-64-140-39-32-85-46-139-44-44 2-87 16-128 42-30 21-54 50-73 88-19 38-32 80-40 126-7 46-9 96-6 151 3 66 14 126 30 180 17 54 43 97 79 130 36 33 86 48 152 44 69-4 140-34 214-91 5 0 11 2 17 7zm335-217l-18-9c-15-12-28-21-37-29-10-7-21-14-34-19-13-6-25-10-36-14-11-3-22-6-33-8-11-2-29-5-53-7-25-3-41-4-50-5l-93-9-132-11c-56-3-96-10-119-20-23-10-49-31-78-63l-26-34-25-31c-1-14 2-20 8-21l12 5c20 16 43 27 71 33 26 7 64 12 115 14l91 7 163 17c24 3 52 11 84 22 32 11 63 29 92 54 29 25 58 58 85 100l12 27zm-39-158l2-125c-2-40-13-80-32-122l-10-12-12-28c-1-26 3-40 13-40 7 6 11 12 13 19 2 7 7 16 16 27l37 51 38 56c18 31 28 75 31 134l-3 83c-3 25-4 47-5 67-1 20-1 42 0 65 4 69 15 120 34 152 19 32 29 52 30 60 1 15-5 23-18 24-10 1-22-6-35-20-9-13-23-31-44-53-20-22-34-42-41-61-9-19-14-45-16-81l-1-20-1-15 5-163zm-468-707l-4-31c0-24 20-53 58-86 38-33 77-49 118-49l47 5 69 17 73 18c22 5 37 12 45 21 9 9 17 18 25 28 8 9 15 20 23 33l43 70c24 36 35 72 35 110-1 37-19 66-55 86-37 20-80 30-130 29-41-1-92-11-154-30-62-19-102-38-121-58-19-19-35-50-49-93l-22-70zm285 139c35 1 67-4 96-13 29-9 49-22 60-38 11-17 17-30 17-41 0-6-7-18-22-35-15-17-44-32-89-44-45-13-93-19-145-20-31-1-62 3-94 9-17 2-33 10-48 22-15 12-23 26-23 41 0 8 2 15 6 21 4 6 7 11 10 15 3 4 8 11 17 20 10 7 24 14 42 21l112 34c13 5 34 7 61 8zm225-481l32 105c-2-1-5-2-10-4-5-2-10-3-15-4l-145-28-224-43c-23-2-34 0-34 6 0 5 4 16 13 32 9 16 15 27 16 34l1 8 1 8-3 5c-8-1-15-5-20-12l-49-81-43-72c-7-14-11-26-10-35 1-12 13-17 38-15l45 7c155 33 252 53 291 62 39 9 78 17 117 27zm-227-148c-6-1-14-3-24-6-10-2-26-8-48-18-22-9-39-14-51-15-9-1-14 2-14 9-1 13 14 36 44 70l26 34c10 16 14 28 14 35-5 4-9 6-11 6-16-1-27-10-33-27l-59-53c-30-27-54-56-70-86-16-30-24-53-23-70 2-23 16-33 42-31 16 1 55 25 116 71 61 46 92 73 91 81zm-143-777l2-31c5-24 29-49 72-75 43-26 85-35 125-28l46 13 65 29 69 30c20 9 34 18 41 29 7 11 14 21 19 31 6 10 12 22 17 36l30 76c17 39 22 77 15 115-7 36-30 61-70 75-39 13-84 15-133 6-40-8-89-26-146-56-58-30-94-56-110-78-15-22-26-56-32-100l-9-72zm256 187c35 7 67 8 97 4 30-4 52-13 66-27 14-14 22-27 24-37 1-6-4-19-15-38-11-19-38-39-80-59-42-20-88-35-139-45-30-6-61-8-94-7-17-1-35 4-51 13-17 9-27 21-30 36-2 8-1 15 2 22 3 7 5 12 7 17 2 5 6 12 14 23 8 9 21 18 37 28l104 53c12 7 32 13 59 18zm299-402l25 117-36-17-98-38-251-93c-22-5-34-5-35 0-1 4 2 15 8 33 7 17 10 30 10 37l-1 8v7l-4 5c-8-2-14-6-18-14l-38-92-29-74c-5-15-7-27-4-36 3-11 16-14 40-9l43 14c148 56 240 92 278 107 37 15 75 30 111 44zm-351-187c-21-40-39-79-52-117-14-38-19-63-16-77 5-20 27-26 68-16 52 12 162 58 331 138 21 5 33 3 35-5 4-16-12-47-46-94l-1-9c2-5 4-8 5-9l10-1 7 4c45 59 72 108 82 146 10 38 13 64 10 77-4 16-20 20-50 13-9-2-16-4-22-5-6-1-18-6-38-14l-111-44-142-55c-34-8-52-8-54 0-2 10 9 38 33 85 24 47 35 76 33 86-5 3-9 5-12 4-16-4-25-14-29-32l-41-78zm473-665c2-6 7-8 15-5 10 3 15 9 17 18 57 124 81 197 72 221-6 16-26 18-61 5l-60-26-93-47-128-65-229-121c-80-43-128-68-144-74-19-7-30-6-33 4-3 8 0 28 8 62v17c-2 5-6 7-14 6-9-3-16-17-20-40-4-24-12-60-25-110-13-50-17-79-14-87 4-12 20-13 46-3 35 13 138 69 308 168 171 99 283 158 336 178 29 11 45 11 49 0 3-8-1-26-14-52-12-26-17-42-15-48zm-335 87l-6 17c-12 33-12 62 0 88 12 25 45 55 100 90 55 35 95 56 119 65 40 14 63 12 70-6 7-19-2-53-27-102-34-60-49-96-45-106 2-4 6-5 14-2 14 5 26 15 35 28 9 14 19 35 30 64l25 60c40 83 55 140 44 170-12 32-48 37-108 15-21-8-45-19-72-33l-101-59c-22-14-45-32-70-54-25-22-44-48-58-76-14-28-18-73-12-134 6-61 11-98 16-111 5-14 11-19 20-16 6 2 16 11 28 25 13 14 17 26 13 37l-15 41zm210-441c-16-7-27-2-34 15-9 21-13 37-12 49 1 12 7 25 20 39 12 14 35 34 67 60 32 27 66 47 100 61 67 28 110 19 129-27 10-24 13-57 10-99l-4-42-2-27 17-2c7 3 12 10 16 20l10 41 10 36c27 86 32 151 13 194-12 28-33 45-64 51-30 6-69-1-117-22l-47-24c-29-12-54-27-75-44-21-17-46-41-76-74-30-33-50-73-61-122-11-49-6-97 14-144 17-39 37-54 61-43 17 7 35 24 54 51 18 26 32 50 41 72 9 21 15 36 18 43 3 7 9 25 18 54 9 29 15 56 20 80 4 25 5 43 2 53-6 14-12 20-18 18-5-2-10-11-15-27l-16-69-20-78c-3-11-6-21-10-31-3-9-9-21-16-34-7-13-18-23-33-30zm139-423l56-89 76-121c18-29 32-41 41-35 1 2 2 3 4 5 1 2 2 5 2 9 0 4-2 11-6 21-4 10 3 28 21 56 16 29 36 57 62 84 25 27 48 50 68 68 20 18 39 33 58 45 62 39 102 43 120 13 5-7 8-30 10-68 1-38-32-99-100-185l-52-19c-13-5-25-10-36-16-11-5-23-12-35-19-41-26-63-54-64-84-1-6-2-13-1-21 1-8 3-14 6-20 11-17 35-15 72 9 19 12 32 21 40 28 8 7 19 17 32 31 13 13 24 25 33 35 8 10 16 19 22 29l22 9 27 6c11 3 25 2 42-1l9 17c-5 8-14 14-28 19l-16 3-17-1c83 164 106 275 70 333-16 26-42 41-78 46-26 5-56-3-89-24-33-21-66-51-99-91-33-40-58-75-74-105-17-30-28-47-35-51-8-5-16 0-24 14l-12 18-10 16c-23 36-17 65 17 86l3 2-4 6-5 8-12 7-114-71zm478-704l16-27c15-19 48-30 99-33 50-3 91 9 123 34l34 33 43 56 46 59c14 17 22 32 23 45 1 13 2 25 2 37 0 12 0 25-2 40l-9 82c-3 43-17 79-41 108-23 29-56 40-97 33-41-7-81-26-121-58-32-26-66-65-103-118-37-53-57-93-60-120-3-27 3-61 19-103l26-68zm139 285c27 22 55 39 84 49 28 11 52 13 71 7 19-6 32-13 39-22 4-5 5-19 4-41-1-22-15-52-43-90-28-38-62-73-102-105-24-19-50-36-79-50-15-9-32-13-51-13-19 0-34 6-43 18-5 6-8 13-8 20-1 7-1 13-1 18 0 5 0 14 1 26 3 12 10 26 20 42l67 96c8 12 22 27 43 44zm210-594l-23 20c-12 14-15 29-10 45 5 16 12 34 23 52 10 18 26 44 49 76 22 32 44 57 65 75 54 47 98 52 131 14 16-18 28-44 36-76 8-32 13-53 15-62 2-9 3-16 4-21 7 1 13 3 17 5 5 5 9 12 9 22l-2 43-2 37c-1 90-17 153-48 188-20 23-45 32-76 28-31-4-66-22-104-55l-37-38c-24-21-44-43-58-64-14-21-30-52-47-93-17-40-22-84-16-131 6-47 26-90 60-129 33-38 55-53 65-44 4 4 9 14 14 32l11 31 20 23c8 7 12 13 11 19-1 5-2 10-4 12-5 6-14 5-26-3l-13-12-14-17c-10-8-18-9-24-1l-25 23zm367-298c-11-13-24-13-37-1-17 15-27 28-32 40-4 11-4 26 2 43 5 18 17 45 35 83 18 38 40 70 64 98 48 54 91 64 129 30 19-18 36-46 51-86l14-40 10-25 16 6c5 5 7 14 6 25l-8 42-7 37c-12 90-35 150-70 182-23 21-49 27-79 19-30-8-62-31-97-69l-32-42c-21-23-38-47-50-71-12-24-24-57-37-99-13-42-14-88-3-136 11-49 35-90 74-125 32-28 56-33 74-13 13 14 22 37 27 69 5 32 8 59 7 82-1 23-2 39-2 46 0 8-3 26-7 56-4 30-10 57-16 81-7 24-13 41-20 49-11 10-19 13-23 8-4-4-4-14-2-31l14-69 15-79c2-11 3-22 4-32 1-10 1-22 0-37-1-15-7-29-18-41zm-308 37l25-236 178 54-20 42-118-12-9 161-55-9zm659-753l-34 25c-25 24-21 57 10 99l64 71c32 33 54 58 67 75l21 28c34 58 66 118 98 179l88 161 82 158 89 171-26 124-87-151-73-125-69-123-80-147c-9-17-20-37-33-60-13-23-26-42-37-57l-87-126c-15-20-28-41-40-63-11-22-23-48-36-79-13-31-20-61-22-90-2-29-3-49-3-61 0-12 0-24 1-36 1-11 4-23 9-35l17-45 79 105zm-94 373l239-180 14 25-236 178-17-23zm442-301l24-21c20-14 55-14 104-2 49 12 85 35 108 69l23 42 25 66 27 70c8 21 11 37 9 49-2 13-5 25-8 36-3 11-8 24-14 38l-32 76c-16 40-39 71-71 92-31 21-65 22-102 4-37-18-70-48-98-90-23-34-44-81-64-143-20-62-27-106-22-133 5-27 21-58 48-93l44-58zm49 313c20 29 42 53 66 72 24 19 46 28 66 27 20 0 34-4 43-10 5-4 11-16 16-38 6-22 1-55-15-99-16-44-38-87-66-130-17-25-38-49-61-71-12-13-27-22-45-27-18-6-34-4-47 5-7 5-11 10-14 17-3 7-5 12-7 17-2 5-4 13-6 26 0 12 2 28 7 46l36 111c4 14 13 32 28 54zm518-84l-71 84c0-2-1-6-2-11-1-5-3-10-5-15l-56-137-86-211c-11-20-19-28-24-26-5 3-11 12-19 28-8 16-15 27-20 32l-6 5-6 5h-6c-4-7-4-15 0-23l41-85 37-75c8-14 16-23 24-27 10-6 21 2 33 23l18 41c57 148 93 240 107 278 14 38 28 75 41 112zm0-271c-2-6-5-14-8-23-3-10-7-26-11-50-4-23-9-40-15-51-4-8-9-10-15-7-11 6-23 31-34 75l-15 41c-8 17-15 27-22 31-6-2-10-4-11-6-8-14-6-28 4-43l12-79c6-41 18-76 34-106 16-30 31-49 46-57 20-11 36-5 49 18 8 14 9 60 4 136-5 76-11 117-18 121zm303 105c-7-16-7-32-2-48 5-16 15-28 30-34 10-4 23-6 39-5 16 1 28 12 37 33 6 15 7 31 1 48-6 17-15 29-29 35-9 4-18 5-26 4-24-1-40-11-49-32zm222-94c-6-16-7-32-1-48 6-16 16-28 31-34 10-4 23-5 39-4 16 1 28 13 36 34 6 15 6 31 0 48-6 17-16 28-30 34-9 4-18 5-26 3-24-1-40-12-48-33zm224-93c-6-16-5-32 1-48 6-16 17-27 33-32 10-4 23-4 39-2 16 2 27 14 34 35 5 15 5 31-2 48-7 17-17 27-32 32-9 3-18 4-27 2-24-2-39-14-47-36z"/><path d="m15453 4480c5-16 15-29 30-38 15-9 30-11 45-6 10 3 21 11 32 22 11 11 13 28 6 49-5 15-15 28-31 37-15 9-30 12-45 7-9-3-17-8-22-14-18-16-23-35-16-56zm222 85c6-16 17-28 32-36 15-8 30-9 46-4 10 4 20 12 31 23 10 12 12 28 4 49-6 15-17 27-32 35-16 8-31 10-45 4-9-4-16-9-22-16-17-17-21-36-13-57zm208 84c7-16 18-28 33-35 16-8 31-8 46-2 10 4 20 12 30 25 10 12 11 29 2 49-6 15-18 26-34 34-16 8-31 9-45 3-9-4-16-9-21-16-16-18-20-37-11-58zm583-109c15-31 21-56 20-76-1-20-9-34-23-42-20-10-45-6-74 11-29 17-51 31-66 43-15 12-35 35-61 67-25 33-45 64-59 94-21 44-20 71 2 82 17 8 39 7 64-4 26-10 47-21 64-31 17-11 38-26 63-47 25-21 48-53 68-97zm-193 254l50-63 2-4c-3 1-7 1-11 2-4 1-32 15-85 42-52 27-98 31-136 13-38-18-39-64-3-141 19-41 44-81 74-121 30-40 70-71 118-94 48-23 97-37 147-42 50-5 89 0 117 13 37 17 53 38 49 63-4 25-11 47-20 67-6 14-16 32-29 53-13 21-27 43-42 65l-115 163c-23 31-41 55-53 72-12 17-23 34-33 49l-59 92-43 74c-8 18-9 29 0 33 7 3 24 3 51-1l-5 10-3 6c-3 6-19 11-51 17l-70 18c-43 13-71 16-83 11-14-6-15-23-2-49 8-18 32-55 70-111l71-105c28-44 60-88 95-132zm682-78l116 15c-31 26-67 63-109 110-42 47-94 122-156 225-5 9-5 14-1 17 5 3 16 3 35 2 19-1 31 0 36 3l7 1 9 4 1 6c-4 6-10 10-18 11l-94 7-83 6c-16 0-27-2-34-6-12-7-11-21 1-42l25-34c68-85 123-153 164-204 42-51 75-91 99-121zm-282 278c-14 2-34 5-60 7-26 3-54 5-83 6-29 1-50-2-64-11-17-10-15-33 7-69 7-11 12-19 16-25 4-6 14-18 29-36l73-89 110-120c11-19 13-30 6-34-13-8-47-3-100 16l-15-9 9-15 31-12 69-18c27-5 54-7 81-5 27 2 45 6 55 12 14 8 12 27-4 55l-34 49-78 100-92 112c-18 30-23 48-14 53 11 7 41 5 91-4 50-10 80-11 89-6 2 5 2 10 0 13-3 5-7 9-10 10l-29 8-83 14zm659 49c10-14 8-26-7-37-18-13-33-21-45-23-12-2-26 2-42 11-16 9-41 26-74 52-33 26-61 53-82 83-42 58-43 103-2 132 21 15 53 26 94 32l42 5 27 4-2 17c-4 6-12 10-23 11l-43 1-38 1c-90 7-154-3-192-31-25-18-37-43-35-73 1-31 17-67 47-109l34-40c19-26 38-47 59-63 21-17 51-36 89-57 39-22 83-32 133-32 50 1 96 16 137 46 34 25 44 48 28 69-11 15-32 29-61 41-30 12-56 20-79 24-23 4-38 7-46 8-8 1-26 3-56 5-30 2-58 3-83 1-25-2-43-5-52-10-12-9-17-16-13-21 3-4 13-7 30-9l71-1 80-2c12-1 22-1 32-3 10-1 22-4 37-8 15-4 27-12 36-26zm-32 480l-105-34c2-1 5-3 9-6 4-3 8-6 12-10l106-103 163-159c14-18 19-28 15-31-4-3-15-6-34-7-18-1-31-4-37-7l-7-4-7-4-3-6c5-6 12-9 21-9l94 6 84 6c16 2 27 6 34 12 9 7 6 21-9 40l-31 32c-115 108-188 176-218 203-30 27-59 54-89 80zm251-102c5-4 11-10 19-16 8-7 22-16 42-29 20-13 34-24 41-33 6-7 6-13 1-17-10-8-37-9-82-4l-43 2c-19-1-31-4-37-9-1-6 0-11 2-13 10-13 24-17 41-12l77-18c40-9 77-12 111-8 34 4 57 11 71 21 18 14 18 32 1 52-10 13-52 31-125 55-73 24-112 33-119 28zm500 116l25 19c18 17 25 51 24 101-2 51-17 90-45 119l-36 31-60 38-62 41c-18 12-34 19-46 19-13 0-25 0-37-1-12-1-25-3-40-6l-81-16c-42-7-77-24-104-50-27-26-35-59-25-99 10-40 33-79 68-115 28-29 70-60 126-92 56-32 98-49 125-49 27-1 61 9 101 28l66 31zm-296 113c-24 25-43 52-57 79-13 27-18 51-13 70 4 19 11 33 18 40 5 4 18 7 40 8 22 1 53-11 93-35 40-24 78-55 113-92 21-22 40-47 57-75 10-14 16-31 17-50 2-19-3-34-14-45-6-6-12-9-19-10-7-1-13-2-18-3-5-1-14-1-26-1-12 2-27 8-44 16l-102 58c-13 7-28 20-47 39zm720 596l17-7c23-17 22-42-2-75-11-15-25-28-41-37-16-10-28-11-38-4-9 7-14 18-17 35l-4 81c-1 17-1 33-1 48 0 15-1 32-3 52-2 20-6 37-13 52-7 14-16 27-28 38-35 27-77 34-126 21-49-13-83-26-103-39-20-14-37-27-50-40-13-13-23-24-30-33-31-41-33-72-6-92 16-12 34-19 54-21 20-2 31-3 35-3 3-1 7 0 11 2l11 3 5 6 4 5-13 10c-13 10-18 27-15 50 4 23 14 46 30 67 14 18 29 31 48 40 18 8 33 8 45-1 12-9 19-23 22-43 5-19 7-50 8-93l5-92c1-21 4-37 10-48 6-11 13-20 23-27 20-15 48-22 82-20 35 2 71 13 109 33 38 21 70 48 97 84 9 18 3 35-18 51-17 13-46 26-87 38-17-22-24-35-21-39zm259 325c14-9 17-22 7-37-12-19-24-31-34-38-10-6-25-8-43-5-18 3-47 10-87 22-40 12-76 28-107 48-61 39-77 80-50 123 14 22 40 43 77 63l37 20 24 14-8 15c-6 4-15 5-26 2l-40-14-36-12c-87-26-143-58-168-97-17-26-19-53-7-81 12-28 40-57 83-85l47-25c27-17 53-30 78-38 26-8 60-15 104-21 44-6 89 0 135 18 46 18 84 49 112 92 23 36 24 61 2 75-16 10-40 16-72 16-32 0-60-2-82-6-23-5-38-8-46-9-7-2-26-7-55-16-29-9-55-18-78-29-23-10-38-20-46-28-8-13-10-21-5-24 5-3 15-2 31 3l66 25 76 27c11 4 21 7 31 9 10 2 22 4 37 6 15 2 29-2 43-11zm-206 433l-82-74c2 0 6-1 11-2 5-1 10-2 15-4l138-51 214-79c20-10 29-18 26-23-2-5-12-12-28-20-16-9-26-16-31-21l-5-7-5-7v-6c7-4 15-4 23 0l84 44 74 40c14 8 22 16 26 25 5 10-3 21-25 32l-42 17c-149 52-243 84-281 97-38 13-76 25-114 37zm271 9c6-2 14-5 24-7 10-3 26-6 50-9 24-3 41-8 51-13 8-4 11-9 8-15-6-11-30-24-74-37l-40-16c-17-9-27-16-30-23 2-6 4-10 7-11 14-7 29-5 42 6l78 15c40 8 75 20 104 37 29 17 48 33 56 48 10 20 4 36-20 48-15 7-60 7-136-1-76-8-116-15-120-23zm421 630l18-3c27-10 33-35 19-72-7-18-16-33-29-47-12-14-24-18-35-14-10 4-19 13-26 29l-26 77c-5 17-10 32-14 46-4 14-10 31-17 49-8 19-16 34-27 46-10 12-23 21-38 29-41 16-84 11-127-14-43-26-73-48-88-66-15-19-28-36-37-52-9-16-16-29-20-40-18-48-12-78 20-90 19-7 38-9 58-6 19 4 31 6 34 6 4 0 7 2 10 5l9 6 3 7 2 6-15 6c-16 6-25 21-28 44-3 23 0 48 10 73 8 21 20 38 35 51 15 13 29 17 43 12 13-5 24-17 33-36 10-17 21-46 33-87l30-87c7-20 15-35 23-44 9-9 18-16 29-20 24-9 52-8 85 3 33 11 65 32 96 62 31 30 54 66 70 107 4 20-7 34-31 44-20 8-52 12-94 13-10-26-13-40-9-43zm162 377c16-5 22-17 16-34-7-21-15-37-23-45-9-9-22-14-40-16-18-2-48-3-90-1-42 1-80 8-116 19-69 22-95 58-80 106 8 25 27 52 58 81l31 29 19 19-12 12c-7 2-15 1-26-4l-35-24-31-21c-77-47-123-93-137-138-9-29-5-56 15-80 19-24 53-44 102-60l52-12c30-10 58-15 85-16 27-1 62 1 106 6 44 5 86 23 126 52 40 30 68 69 84 118 13 40 7 65-18 73-18 6-43 5-74-3-31-8-57-17-78-27-21-10-35-17-42-21-7-3-23-13-49-29-26-16-48-32-68-48-19-16-32-29-37-39-5-15-4-23 2-25 5-2 15 2 29 11l58 41 66 45c10 6 19 12 28 17 9 5 20 10 34 15 14 5 29 6 44 1zm171 461l71 93c-40-3-91-3-154 1-63 4-153 20-269 49-10 2-14 6-13 12 1 5 9 14 23 26 14 12 22 21 24 28l4 6 4 9-3 5c-7 2-14 0-21-5l-71-62-62-54c-11-11-18-21-20-29-3-13 7-23 31-29l42-6c108-12 195-21 260-28 65-7 117-12 155-16zm-396-3c-11-8-27-21-48-38-20-17-41-35-62-54-21-19-34-37-38-53-5-19 13-34 53-44 12-3 22-5 29-7 7-1 23-3 46-5l115-11 163-7c21-5 31-12 29-19-4-15-31-35-82-60l-4-17 17-4 31 13 62 36c23 16 43 34 61 54 17 20 28 36 30 48 4 16-10 28-42 36l-59 11-126 15-144 15c-34 9-50 18-48 27 3 12 26 33 68 61 42 29 64 48 67 59-2 5-5 8-9 9-6 2-11 1-14-1l-26-14-68-49zm339 561c-1-6 3-10 11-11 10-1 42 22 95 69 54 47 81 83 83 107 2 17-18 27-57 31l-68 2-128-4-111-4-209-8-150-8-59 2c-23 2-33 8-32 18 1 7 11 24 30 50 1 15-6 24-22 25-24 2-37-5-39-22-2-23-6-41-11-52-6-11-10-21-15-29-4-8-11-19-19-33l-20-43c-1-16 15-26 49-29 41-4 125 0 250 11l210 17 150 9 87-1c30-3 44-9 43-20-1-14-13-28-35-44-22-16-34-27-34-33zm-293 261c2 25 19 46 51 62 32 16 77 27 136 34 59 7 106 9 143 6 41-4 61-15 60-35-2-19-24-45-68-80-56-40-85-65-86-77 4-5 8-8 12-8 15-1 29 2 42 11 14 9 32 24 56 45l49 43c77 61 118 108 120 139 3 31-27 50-90 55-14 1-28 2-42 2-15 0-52-1-111-5-59-4-123-16-190-36-68-20-105-66-111-137l-5-60-4-48-8-27c0-2 0-4 2-6 1-2 2-3 3-4 7-1 18 3 33 9l14 3c6-1 11 0 15 1 4 1 7 5 8 10 1 8-2 16-7 24-15 29-21 55-19 76zm463 505l-1-33c-1-18-5-34-13-48-8-14-24-26-48-38-24-11-61-21-110-29-50-8-91-11-124-10-48 2-71 14-71 36 1 19 15 41 44 66 29 25 57 47 84 65l39 30c-6 4-12 6-16 6-16 1-31-3-47-12-16-8-31-20-46-34l-52-44c-71-64-107-114-109-151-1-40 34-61 105-63 6 0 16 0 29 0 13 0 30 2 50 4 20 2 42 6 67 12 25 5 56 15 95 28 39 13 73 32 102 57 29 25 50 48 62 70 12 21 18 44 19 68l13 103c1 27-6 41-19 41-7 0-15-2-24-7-9-5-15-11-19-18l-6-26-1-35-1-42zm-153 115l-146-18-56-3c-5 0-9 1-11 2-2 1-4 3-5 4l21 28c7 6 13 13 20 21 7 8 13 16 20 26 7 9 10 17 10 23-3 5-5 7-7 7-3-1-6-2-8-4-3-2-6-4-11-8-53-55-88-95-106-120-21-25-31-44-32-59-1-15 16-24 49-25l64 1 113 10 118 11c23 1 42 3 58 6 16 3 35 9 56 16 22 8 39 18 53 31 13 15 20 28 20 38 1 20-15 30-46 31l-176-21zm-273 225l-36-104c2 1 5 2 10 4 5 2 10 3 15 4l146 23 225 35c23 1 34-2 34-7 0-5-5-16-15-31-10-15-16-27-17-34l-1-8-1-8 3-5c8 0 15 4 20 12l52 79 45 71c8 14 12 25 11 34 0 12-13 17-37 16l-45-6c-156-27-254-44-293-52-40-7-79-15-118-22zm232 140c6 1 14 3 24 5 10 2 26 7 48 16 22 8 39 13 51 13 9 0 14-3 14-9 0-13-15-35-46-68l-27-33c-10-16-15-27-15-34 5-4 8-6 11-6 16 1 28 9 34 26l61 51c31 26 56 54 73 83 18 29 26 52 25 69-1 23-15 33-41 32-16-1-56-23-119-67-63-44-94-70-94-78zm-15 337c-3-9-5-16-4-19l6-13c5-2 8-4 10-4 5 0 11 4 18 10 6 6 11 11 13 14 2 3 30 12 84 27 54 15 123 30 207 43 84 13 161 21 229 25l48 73 14 20c8 11 11 21 11 29 0 5-2 8-6 11-10-1-18-3-23-9-6-5-10-10-12-14-3-4-5-7-6-10-62-3-137-13-224-28-87-15-177-36-270-62l-84-83-10-10zm-209-72c21 1 39 10 56 26 16 16 24 35 23 55-1 14-6 31-17 51-11 19-31 28-62 27-21-1-39-10-56-26-16-16-24-35-23-57 1-14 6-30 17-49 11-19 31-28 62-27z"/></g><g stroke-linejoin="round" stroke-linecap="round"><text x="10500" y="14850" font-family="&apos;ElGar&apos;" stroke-width="25" font-size="1411.11" transform="matrix(.91088.41268-.41268.91088-641.6-3059.4)">Texto 01</text><text x="10500" y="14850" font-family="&apos;Vijaya&apos;" font-weight="bold" stroke-width="20" font-size="861.33" transform="matrix(.90119.43341-.43341.90119 414.17-2129.45)">00.00.0000</text><text x="10500" y="14850" font-family="&apos;ElGar&apos;" stroke-width="29" font-size="1411.11" transform="matrix(.90993-.41477.41477.90993-1212.86 7414.52)">Texto 02</text><text x="10500" y="14850" font-family="&apos;Vijaya&apos;" font-weight="bold" stroke-width="20" font-size="861.33" transform="matrix(.90228-.43114.43114.90228-1053.44 8423.14)">00.00.0000</text></g></g><g font-family="&apos;Arial Black&apos;" font-weight="900" font-size="529.17"><text x="6035" y="23542">NN 1</text><text x="6026" y="23999">NN 2</text><text x="13655" y="23542">NN 1</text><text x="13646" y="23999">NN 2</text></g></g><g fill="#373435" font-family="&apos;Arial&apos;" font-weight="normal" font-size="423.33"><text x="967" y="27888">DESC 1</text><text x="970" y="28263">DESC 2</text><text x="964" y="28655">DESC 3</text></g></svg>