<svg xmlns="http://www.w3.org/2000/svg" width="744.09" height="1052.36" viewBox="0 0 21000 29700" shape-rendering="geometricPrecision" image-rendering="optimizeQuality" fill-rule="evenodd" clip-rule="evenodd"><defs><clipPath id="0"><path d="m6485 1508c-1544-39-4017 1148-4023 3979-1 757 311 3273 385 4272 89 1198 155 2902 182 4116 12 1050 270 1658 766 1904 659 216 1344 279 2065 121 746-179 1116-737 1127-1865-28-1457-216-3980 76-5304 378-1715 856-1940 1040-4005 111-1243 70-3175-1618-3217z"/></clipPath><clipPath id="1"><path d="m14531 1496c1544-39 4017 1148 4023 3979 1 757-311 3273-385 4272-89 1198-155 2902-182 4116-12 1050-270 1658-766 1904-659 216-1344 279-2065 121-746-179-1116-737-1127-1865 28-1457 216-3980-76-5304-378-1715-856-1940-1040-4005-111-1243-70-3175 1618-3217z"/></clipPath></defs><text x="10046" y="19022" fill="#201e1e" font-family="&apos;Arial Black&apos;" stroke="#201e1e" font-weight="900" stroke-width="7.62" font-size="705.56">24</text><g fill="none" stroke-width="80"><g stroke="#322f30"><circle cx="10533" cy="1326" r="460"/><path d="m10533 515v1621"/><path d="m9723 1326h1621"/></g><g stroke="#373435"><circle cx="10498" cy="20686" r="460"/><path d="m10498 19875v1621"/><path d="m9688 20686h1620"/></g></g><g fill="#373435" font-family="&apos;Arial&apos;" font-weight="normal" font-size="423.33"><text x="2424" y="22378">DESC 1</text><text x="2389" y="22982">DESC 2</text><text x="2371" y="23582">DESC 3</text></g><g clip-path="url(#0)"><g><g fill="#201e1e" stroke="#201e1e"><g stroke-width="7.62"><path d="m4702 14934c36-29 6-62-64-77-115-24-241-8-335 43-135 72-180 196-148 311 66 235 377 359 675 335 618-50 920-546 996-926 121-609-252-1146-779-1158-158-4-316 85-317 233 0 91 91 191 220 190 31 0 43-45 7-44-63 1-153-81-145-148 10-81 99-137 204-137 196 1 431 181 550 451 74 167 110 374 70 577-39 197-151 451-338 619-150 135-290 191-470 213-181 22-332-20-440-94-112-77-167-250-33-349 56-42 178-62 232-48 47 12 96 26 116 11z"/><path d="m4075 14126c-6 20-81 55-136 56-91 2-194-39-235-96-70-96-33-257 212-277 338-29 598 153 807 375 205 217 544 344 937 285 351-53 713-213 713-590 0-172-162-428-337-430-45-1-66 22-68 43-3 27 20 46 48 52 30 6-1 33-50 24-75-14-111-103-48-149 164-122 563 118 584 497 21 368-428 671-848 711-439 41-703-82-901-217-265-181-427-532-801-511-145 8-158 88-152 120 14 76 80 102 143 104 40 1 78-21 104-22 18-1 29 14 26 27z"/></g><path d="m6044 7152l-99-117c-9-11-18-21-25-28-7-7-13-12-18-15-5-3-10-6-15-7-5-1-10-2-15-2-97 1-197 192-241 601-115 1055 453 1852 467 2828 5 359-17 779-127 1119-26 79-118 52-90-33 109-327 125-740 120-1085-14-974-529-1800-413-2831 17-151 69-653 285-655 17 0 33 4 49 13 8 4 15 10 23 17 8 7 15 15 23 24l73 88-1-115c0-4 1-8 2-11 1-3 3-7 5-9 2-3 5-5 8-6 3-1 6-2 10-2 3 0 7 1 10 2 3 1 6 4 8 6 2 3 4 6 5 9 1 3 2 7 2 11l2 179c0 2 0 4-1 7 0 2-1 4-2 7-1 4-3 7-5 10-2 2-5 5-8 6-3 2-6 3-9 3-3 0-6-1-9-2-2-1-4-3-6-4-2-2-4-4-6-6z" stroke-width="75"/><text x="10500" y="14850" font-family="&apos;Century Gothic&apos;" stroke-linejoin="round" stroke-linecap="round" stroke-width="50" font-size="2348.09" transform="matrix(-.01229-.62335.62147-.01431-3668.38 18501.5)">Psicologia</text><g stroke-width="7.62"><text x="10500" y="14850" font-family="&apos;Calisto MT&apos;" font-size="846.67" transform="matrix(0-.62353.66929 0-3819.36 13309.8)">Texto 2</text><text x="10500" y="14850" font-family="&apos;Calibri&apos;" font-style="italic" font-weight="bold" font-size="1577.11" transform="matrix(.66929 0 0 .62353-3939.27 3783.33)">Texto 1</text></g></g><g fill="#373435" font-family="&apos;Arial&apos;" font-size="594.64"><text x="10500" y="14850" transform="matrix(.66929 0 0 .62353-3627.98-262.96)">NN 1</text><text x="10500" y="14850" transform="matrix(.66929 0 0 .62353-3630.21 47.995)">NN 2</text></g></g></g><path d="m14531 1496c1544-39 4017 1148 4023 3979 1 757-311 3273-385 4272-89 1198-155 2902-182 4116-12 1050-270 1658-766 1904-659 216-1344 279-2065 121-746-179-1116-737-1127-1865 28-1457 216-3980-76-5304-378-1715-856-1940-1040-4005-111-1243-70-3175 1618-3217z" fill="#fff"/><g clip-path="url(#1)"><g><g fill="#201e1e" stroke="#201e1e"><g stroke-width="7.62"><path d="m15747 14852c37-29 7-62-63-77-115-24-241-8-336 43-137 72-185 196-154 311 62 235 369 359 668 335 619-50 932-546 1015-926 133-609-228-1146-755-1158-158-4-318 85-321 232-2 91 87 191 217 190 31 0 44-44 7-44-63 1-151-81-142-148 11-81 101-137 206-136 196 1 427 181 541 450 71 167 102 374 58 577-43 197-160 451-351 619-153 135-294 191-475 213-182 22-332-20-438-94-111-77-162-250-26-349 57-42 179-62 233-48 46 12 96 26 116 11z"/><path d="m15137 14044c-6 20-82 55-137 56-91 2-193-39-233-96-68-96-27-257 218-277 339-29 595 153 800 375 201 217 537 344 932 285 352-53 718-213 725-590 3-172-153-427-328-430-45-1-66 22-69 43-4 27 19 46 47 52 30 6-2 33-50 24-75-14-109-103-45-149 166-122 561 118 574 496 13 368-442 671-863 710-440 41-701-82-896-217-261-181-416-532-790-511-145 8-160 88-154 120 13 76 78 102 141 104 40 1 78-21 105-22 18-1 29 14 25 27z"/></g><path d="m16985 7140l-99-117c-9-11-18-21-25-28-7-7-13-12-18-15-5-3-10-6-15-7-5-1-10-2-15-2-97 1-197 192-241 601-115 1055 453 1852 467 2828 5 359-17 779-127 1119-26 79-118 52-90-33 109-327 125-740 120-1085-14-974-529-1800-413-2831 17-151 69-653 285-655 17 0 33 4 49 13 8 4 15 10 23 17 8 7 15 15 23 24l73 88-1-115c0-4 1-8 2-11 1-3 3-7 5-9 2-3 5-5 8-6 3-1 6-2 10-2 3 0 7 1 10 2 3 1 6 4 8 6 2 3 4 6 5 9 1 3 2 7 2 11l2 179c0 2 0 4-1 7 0 2-1 4-2 7-1 4-3 7-5 10-2 2-5 5-8 6-3 2-6 3-9 3-3 0-6-1-9-2-2-1-4-3-6-4-2-2-4-4-6-6z" stroke-width="75"/><text x="10500" y="14850" font-family="&apos;Century Gothic&apos;" stroke-linejoin="round" stroke-linecap="round" stroke-width="50" font-size="2348.09" transform="matrix(-.01229-.62335.62147-.01431 7272.53 18489.6)">Psicologia</text><g stroke-width="7.62"><text x="10500" y="14850" font-family="&apos;Calisto MT&apos;" font-size="846.67" transform="matrix(0-.62353.66929 0 7175.57 13271.5)">Texto 2</text><text x="10500" y="14850" font-family="&apos;Calibri&apos;" font-style="italic" font-weight="bold" font-size="1577.11" transform="matrix(.66929 0 0 .62353 7052.08 3771.35)">Texto 1</text></g></g><g fill="#373435" font-family="&apos;Arial&apos;" font-size="594.64"><text x="10500" y="14850" transform="matrix(.66929 0 0 .62353 10107.9-320.6)">NN 1</text><text x="10500" y="14850" transform="matrix(.66929 0 0 .62353 10105.6-9.64)">NN 2</text></g></g></g></svg>