<svg xmlns="http://www.w3.org/2000/svg" viewBox="0 0 500 707" shape-rendering="geometricPrecision" image-rendering="optimizeQuality" fill-rule="evenodd" clip-rule="evenodd"><defs><clipPath id="0"><path d="m166 103c-52-1-134 41-135 142 0 27 11 116 13 152 3 42 5 103 6 146 1 37 9 59 26 68 22 7 45 10 69 4 25-6 37-26 37-66 0-52-7-142 3-189 13-61 29-69 35-142 3-44 2-113-54-115"/></clipPath><clipPath id="1"><path d="m335 103c51-1 134 41 134 142 0 27-10 116-13 152-3 42-5 103-6 146 0 37-9 59-26 68-22 7-44 10-68 4-25-6-38-26-38-66 1-52 7-142-3-189-12-61-28-69-34-142-4-44-3-113 54-115"/></clipPath></defs><g clip-path="url(#0)"><g fill="#201e1e" stroke="#201e1e"><g stroke-width=".181"><path d="m106 581c1-1 0-2-2-3-4-1-8 0-11 2-5 2-6 7-5 11 2 8 13 12 22 12 21-2 31-20 34-33 4-22-9-41-26-42-6 0-11 3-11 9 0 3 3 6 8 6 1 0 1-1 0-1-2 0-5-3-5-5 0-3 3-5 7-5 6 0 14 6 18 16 3 6 4 13 2 20-1 7-5 16-11 22-5 5-10 7-16 8-6 1-11-1-14-3-4-3-6-9-1-13 1-1 6-2 7-2 2 1 4 1 4 1z"/><path d="m85 552c0 1-2 2-4 2-3 0-7-1-8-3-2-4-1-9 7-10 11-1 20 5 27 13 7 8 18 12 31 10 12-2 24-7 24-21 0-6-5-15-11-15-2 0-2 1-3 2 0 0 1 1 2 1 1 1 0 2-2 1-2 0-3-3-1-5 5-4 19 4 19 18 1 13-14 23-28 25-15 1-23-3-30-8-9-6-14-19-27-18-5 0-5 3-5 4 1 3 3 4 5 4 1 0 3-1 3-1 1 0 1 1 1 1z"/></g><path d="m151 304l-3-4c-1 0-1-1-1-1 0 0-1 0-1-1 0 0-1 0-1 0-3 0-6 7-8 21-4 38 15 66 16 101 0 13-1 28-4 40-1 3-4 2-3-1 3-12 4-27 4-39-1-35-18-64-14-101 0-5 2-23 9-23 1 0 1 0 2 1 0 0 0 0 1 0 0 0 0 1 0 1l3 3v-4c0 0 0 0 0 0v-1c0 0 0 0 0 0h1c0 0 0 0 0 0v1c0 0 1 0 1 0v6c0 0 0 1 0 1 0 0 0 0-1 0 0 0 0 1 0 1 0 0 0 0-1-1z" stroke-width="1.786"/><text x="250" y="354" font-family="&apos;Century Gothic&apos;" stroke-linejoin="round" stroke-linecap="round" stroke-width="1.19" font-size="55.907" transform="matrix(-.01722-.93084.87128-.02136-173.19 707.62)">Psicologia</text><g stroke-width=".181"><text x="250" y="354" font-family="&apos;Calisto MT&apos;" font-size="20.16" transform="matrix(0-.93111.93832 0-178.22 523.02)">Texto 02</text><text x="250" y="354" font-family="&apos;Calibri&apos;" font-style="italic" font-weight="bold" font-size="37.55" transform="matrix(.93832 0 0 .93111-182.23 184.32)">Texto 01</text></g></g></g><g clip-path="url(#1)"><g fill="#201e1e" stroke="#201e1e"><g stroke-width=".181"><path d="m375 578c1-1 0-2-2-2-4-1-8-1-11 1-5 3-6 7-5 11 2 8 12 13 22 12 21-2 31-19 34-33 4-22-8-41-25-41-5 0-11 3-11 8 0 3 3 7 7 7 1 0 2-2 1-2-3 0-6-3-5-5 0-3 3-5 7-5 6 0 14 7 18 16 2 6 3 14 2 21-2 7-6 16-12 22-5 5-10 7-16 7-6 1-11 0-15-3-3-3-5-9 0-12 2-2 6-3 7-2 2 0 4 1 4 0z"/><path d="m355 550c0 0-3 2-5 2-3 0-6-2-7-4-3-3-1-9 7-10 11-1 20 6 26 14 7 7 18 12 32 10 11-2 24-8 24-21 0-6-5-15-11-16-2 0-2 1-2 2-1 1 0 2 1 2 1 0 0 1-2 1-2-1-3-4-1-6 5-4 19 5 19 18 1 13-15 24-29 25-14 2-23-3-30-7-8-7-14-19-26-19-5 1-5 4-5 5 0 2 2 3 5 3 1 0 2 0 3 0 1 0 1 0 1 1z"/></g><path d="m417 304l-4-4c0 0 0-1-1-1 0 0 0 0 0-1 0 0-1 0-1 0-3 0-7 7-8 21-4 38 15 66 15 101 1 13 0 28-4 40-1 3-4 2-3-1 4-12 4-27 4-39 0-35-18-64-14-101 1-5 3-23 10-23 0 0 1 0 1 1 1 0 1 0 1 0l1 1 2 3v-4c0 0 0 0 0 0l1-1c0 0 0 0 0 0s0 0 1 0c0 0 0 0 0 0v1 6c0 0 0 1 0 1-1 0-1 1-1 1 0 0 0 0 0-1z" stroke-width="1.786"/><text x="250" y="354" font-family="&apos;Century Gothic&apos;" stroke-linejoin="round" stroke-linecap="round" stroke-width="1.19" font-size="55.907" transform="matrix(-.01722-.93084.87128-.02136 92.36 707.62)">Psicologia</text><g stroke-width=".181"><text x="250" y="354" font-family="&apos;Calisto MT&apos;" font-size="20.16" transform="matrix(0-.93111.93832 0 89.12 522.09)">Texto 02</text><text x="250" y="354" font-family="&apos;Calibri&apos;" font-style="italic" font-weight="bold" font-size="37.55" transform="matrix(.93832 0 0 .93111 84.997 184.32)">Texto 01</text></g></g></g></svg>