<svg xmlns="http://www.w3.org/2000/svg" width="744.09" height="1052.36" viewBox="0 0 21000 29700" shape-rendering="geometricPrecision" image-rendering="optimizeQuality" fill-rule="evenodd" clip-rule="evenodd"><defs><clipPath id="0"><path d="m5889 19744c-926 442-2688 356-3222-461-533-814-412-3123-463-4256-126-2835-446-4986-529-7272-92-2540 1672-4218 3781-4691 2975-667 2799 3241 2386 5249-217 1079-646 2018-919 3073-504 1946-47 4917-222 6942-90 699-328 1164-812 1416"/></clipPath><clipPath id="1"><path d="m15143 19700c927 441 2688 356 3222-461 533-814 413-3123 463-4256 127-2835 447-4986 530-7272 92-2540-1672-4219-3781-4691-2976-667-2800 3241-2386 5249 216 1079 645 2018 918 3073 504 1946 48 4916 223 6941 90 700 328 1165 811 1417"/></clipPath></defs><g fill="none" stroke="#373435" stroke-width="80"><path d="m9688 22661h1621"/><path d="m10498 21851v1621"/><circle cx="10498" cy="22661" r="460"/></g><text x="10046" y="21290" fill="#201e1e" font-family="&apos;Arial Black&apos;" stroke="#201e1e" font-weight="900" stroke-width="7.62" font-size="705.56">28</text><g fill="none" stroke="#322f30" stroke-width="80"><circle cx="10533" cy="1326" r="460"/><path d="m10533 515v1621"/><path d="m9723 1326h1621"/></g><rect x="9843" y="19706" width="1347" height="637" rx="318" fill="#fff" stroke="#fff" stroke-width="20"/><g fill="#201e1e" font-family="&apos;Arial&apos;" font-size="423.33"><text x="192" y="28380">DESC 1</text><text x="193" y="28855">DESC 2</text><text x="190" y="29314">DESC 3</text></g><g clip-path="url(#0)"><g stroke="#201e1e"><g fill="#201e1e" stroke-width="7.62"><g font-family="&apos;BUTECO &apos;" stroke-linejoin="round" stroke-linecap="round"><text x="10500" y="14850" font-size="1533.72" transform="matrix(.92119 0 0 .78018-7310.49 6361.64)">Texto 01</text><text x="10500" y="14850" font-size="1483.27" transform="matrix(.81445 0 0 .78018-5976.03 7708.39)">Texto 02</text></g><g font-family="&apos;Arial Black&apos;" font-weight="900" font-size="529.17"><text x="10500" y="14850" transform="matrix(.78408 0 0 .78018-4344.82 3702.16)">NN 1</text><text x="10500" y="14850" transform="matrix(.78408 0 0 .78018-4346.37 4125.74)">NN 2</text></g></g><path d="m3792 10498c445 226 897 213 1356 16 150 464 480 765 948 939-232 431-218 869-13 1313-479 144-789 463-968 916-445-226-897-213-1355-16-151-464-481-765-949-940 232-430 218-868 14-1312 478-144 788-463 967-916z" fill="none" stroke-width="100"/><g fill="#201e1e" stroke-width="7.62"><path d="m4454 12090l694-1576c-459 197-911 210-1356-16l662 1592z"/><path d="m2811 12726l1643-636-1629-676c204 444 218 882-14 1312z"/><path d="m5115 13682l-661-1592-694 1576c458-197 910-210 1355 16z"/><path d="m6083 12766c-205-444-219-882 13-1313l-1642 637 1629 676z"/></g><g fill="#201e1e"><g stroke-width="20"><path d="m7923 4618c34 100 64 203 90 308-504 92-962 248-1295 453-527 323-956 886-1319 1435-369 557-624 1263-707 1907-85 650-46 1320-111 1959h-267c31-243 62-511 72-618 29-341 5-978 47-1360 91-850 393-1579 777-2228 495-837 1433-1596 2713-1856z"/><path d="m4254 10680c31-243 53-491 61-731 21-640-19-1264 141-1851 300-1096 823-2085 1650-2757 401-327 1048-633 1799-776 6 18 12 36 18 53-1280 260-2218 1019-2713 1856-384 649-686 1378-777 2228-42 382-18 1019-47 1360-10 107-41 375-72 618h-60zm327 0c65-639 26-1309 111-1959 83-644 338-1350 707-1907 363-549 792-1112 1319-1435 333-205 791-361 1295-453 2 9 5 18 7 27-1355 260-2158 1158-2716 2163-318 574-470 1229-541 1983-37 385-23 780-48 1171-8 138-31 275-57 410h-77z"/></g><g stroke-width="7.62"><path d="m2406 7365c11 2 21 5 27 7 1 3 1 5 1 6l-50 10c0 2 0 2-1 3-29 5-51 9-66 14-7 4-13 6-17 6l-2 3c-31 2-52 7-63 13-14 0-47 13-62 13-17 11-29 15-36 17-47 7-73 14-80 25-16 1-26 1-33 1-4 5-9 6-16 8-5 1-12 1-21-1-9-1-16-1-18-1-12 7-23 13-33 15-4-3-5-7-7-8-12 0-20 20-20 22 0 18 5 37 15 55l2 58c2 52 1 78-1 81-1 5-1 8-2 10 0 1 1 9 4 20h5l3-4c2 3 5 4 6 5v7c-12 2-21 2-26 2-2 3-2 6-2 7l-5 3 4 15c6 1 10 0 13-2 2 3 5 5 6 5v-5c31-4 54-7 73-8 22 0 42 2 59 4 4-3 9-4 16-3 9 2 14 4 15 4 0-2 0-2 2-4 21 1 31 3 33 4h7c1-1 1-1 2-3 30 1 48 4 52 9 6 0 21-3 27-3 0 2 0 3 1 3l131 7 3 5c4 0 8-2 9-3 28-1 45 0 50 2 29-1 60-4 95-6 1-2 5-2 9-3 34-1 59-1 75-2 46-1 73 2 82 10l52 11c20 5 38 6 51 7 25 5 40 10 44 13 12 0 19-1 20-3v-19c-1-6-15-25-15-36l21-9 4-13c0-4 0-12-1-23l-23-30c2-5 2-8 3-10-7-5-10-11-10-16 0-1 1-4 2-6 1-11 1-27 2-44 2 0 2 0 3-1l-5-19c-1-2-7 0-14 6-7 0-20 4-43 13-22 8-39 12-49 12-3 0-7-2-10-3-1 1-13 4-37 5-1 5-21 5-56 1-37-4-61-9-72-15l-74 5c-1 2-4 3-7 3-1-2-2-2-2-3l-29-1v-3c1-1 8-3 18-4 37-11 62-23 76-37 33-12 54-25 65-39 10 0 22 0 37-1l2-4c15-1 25-1 32-1 4-6 14-9 30-9 20-7 36-13 48-15 21-4 34-7 38-10 6 6 10 10 14 10 4 0 8-5 10-13 6-1 14-3 21-3 6 1 12 1 17 2 7-11 9-20 7-29-9-12-14-26-14-43 0-9 3-25 7-47 5-23 6-39 5-49l-6-4c-4 4-20 6-50 5l-28-3c-17-2-28-6-29-9-17-2-35-3-57-8-11-5-20-7-29-7-57-12-98-22-127-30-16-10-30-17-42-18-34-6-60-11-77-16 0-4-8-6-8-14 46-1 74 0 83 1l49-11 27 5c9-2 34-1 72 1 2 1 8 3 21 5 13 2 21 2 24 0 26 1 41 2 42 4 25-1 43-2 55-2 3 3 9 5 20 6 9 2 16 1 20-1 3 5 9 6 13 7 2 0 5-2 6-4l15 9c5-2 9-5 10-7 6-26 9-42 7-43l14-27c0-1-13-20-13-33l-4-5c1-14 5-47 5-61l3-3c0-11-1-17-2-19-15 0-24 1-28 6-3-2-7-3-10-3-12 6-22 9-29 7-12 0-25-2-41-4l-3 3c-101 2-171 1-209-1-12 1-50 2-115 1l-43 7-182-6c-4 3-12 5-25 5-15-1-23-2-25-6-36 5-57 6-63 6-4 3-13 3-28 1-14-2-23-5-25-8-22-1-36-6-40-13l-6-1c-4 8-11 10-21 8-9-2-15-7-20-13h-6l-4 9c-6 2-10 5-12 6 0-1 2 5 3 19 3 5 0 27 10 29v4l-6 4c0 4 1 9 4 14 0 19-2 33-3 42-8 9-11 19-10 27 4 1 7 6 6 14 0 3 0 8-1 12l-4 5c-1 2-3 5-3 8 5 8 10 12 14 13 3 0 6-2 7-3l21 6c21 5 38 12 52 17 2 1 2 1 2 3 23 5 39 10 45 16 38 7 57 12 58 17 17 0 27 0 29 2 14 6 26 11 38 13 32 5 49 10 51 15 30 5 53 10 68 15 0 2 0 2 1 3 7 2 13 2 21 2 8 8 14 11 18 13l51 15c0 1 0 3 1 5l3-5c0 1 0 3 1 5 3 0 6-2 10-5zm-459-308c-7-1-2 1 13 4v7c-7 1-12 1-16 1 0-3 1-8 3-12zm-1 100h-2v-5h2v5zm32-21c9 0 15 1 16 6-7 11-10 20-11 25-4 2-8 1-13-2 0-12 3-22 8-29zm-26 78c0 1 0 1-1 3h-6c0-5-2-11-6-16 0-5 2-10 3-11h5l5 24zm124-105c0 1 0 1 1 3-4 5-8 8-12 8-4 0-9-2-13-7-1 2-4 3-8 3-1-3-1-6-1-8l33 1zm-19 47c1 1 1 1 1 3-10-2-17-2-18-4l17 1zm77 7c-8 2-13 1-14 1-2-1-2-3-2-4h16v3zm-149 61c22 0 52 8 93 25 40 16 70 24 90 26v5c-38-2-70-12-94-28-23-2-36-4-41-9-22-5-39-8-51-13l3-6zm237-136l-5-1c-1-1-1-3-1-4h6v5zm-8 40c-22 5-37 4-49 3v-7l49 1v3zm-64 59h-3v-3h3v3zm147-125c2 0 3 2 4 3-1 2-2 2-4 2v-5zm-136 145c7 1 24 4 30 4v8c-8 3-13 4-14 4l-20-9 4-7zm113-78h-16v5l-14-1v-4c4-5 14-6 30-5v5zm12-1c0 1 0 1-1 1h-4v-4l5 3zm12-6c0 1 0 1 1 3h-12c2-2 2-2 2-3h9zm-353 398c-1 11 13 16 37 18v3c-4 4-9 6-15 6-10 0-20-5-32-13 0-8 3-13 10-14zm252-262c0 2 0 3 1 5h-2c0-2 0-3 1-5zm118-117c-3-2-6-2-7-2v-3h7v5zm-375 441c-2 0-3 0-4-1l4-3v4zm258-292c0 1 0 3 1 4h-5v-4h4zm6 4c2 2 2 2 2 4h-6c0-2 0-2 2-4h2zm-265 321c-1-1-2-1-4-1l4-5v6zm466-515h-11v-5l11 5zm-405 461c2 5 2 8 2 11-7 2-12 2-15 2v-5c6-5 10-6 13-8zm212-266c25 0 40 3 43 11-9 2-14 2-18 2-6-4-14-7-23-9-2-1-2-3-2-4zm222-209c0 2 0 3 1 5h-12v-5h11zm-173 176c8 1 20 2 36 7 0 2 0 5 1 10-9 1-16 1-20 1v-8c-2 0-9-2-18-5 0-2 0-3 1-5zm176-157c-4 1-10 1-21 0-1-2-1-4-1-5h22v5zm38-45c1 2 1 3 1 5h-5v-5h4zm-216 249c2 0 4 2 7 4h-7v-4zm-328 378c4 0 7 2 7 5-3 3-5 5-7 5v-10zm178-160c1 5 1 8 1 9-1 5-9 8-21 9-12 2-20 2-24-2-6 0-22 3-29 3-2-3-4-5-2-6 41-9 66-13 75-13zm-108 83c7 2 10 3 10 5-3 0-7 0-10 1v-6zm267-296c4 0 8 0 10 2-4 2-8 1-10 1v-3zm-218 247c2 0 4 0 7 1 6 5 10 7 10 7-4 1-8 1-14 1-1-2-3-5-3-9zm-116 159c1 2 4 2 5 2v3c-2 2-3 3-4 3-1-3-1-6-1-8zm95-111c4 1 7 3 10 3v3c-4 0-8 0-10 2v-8zm42-26c-1 1-4 1-6 1 0-1 1-4 2-6l4 5zm428-491h-4v-5h4v5zm-300 361h-2c-14 9-24 14-32 14 12-10 24-16 34-17v3zm208-267c7 2 12 2 19 2l1 2c-9 1-16 1-20 1v-5zm-278 340c-1 6 1 9 5 9v5c-11-3-16-8-16-15l11 1zm-121 167c1 3 1 7 2 8-17 0-29 3-36 11-10-5-15-10-15-15l7-4-1 8 43-8zm321-453c9 0 22 5 40 16 18 11 32 16 39 18v5c-8 0-32-10-75-30v-3c-2 0-3 0-4-1v-5zm-266 369c4 2 6 7 8 11l-12-4v-5c1-2 3-2 4-2zm382-422l-17 4v-6l8-6 9 8zm-305 358c1 0 3 1 4 3h-4v-3zm-19 26c7 8 11 13 12 17-16 5-26-1-30-16 8 0 14 1 18-1zm344-387c-1 0-3 0-4 1 0-3 0-6-1-7h5v6zm-477 570c-1 2-1 2-1 3-9 0-21 0-34-2v-3c12-3 22-4 33-4l2 6zm176-231c11 0 17 0 20 2l-24 6 4-8zm341-376h-3v-3h3v3zm-252 297c-4 0-6 0-10 2v-5c5-1 9-3 10-3v6zm-201 209c26 1 40 7 41 18-19-3-31-5-35-5v-3h-4v-5h-2v-5zm479-510c-4 1-8 3-9 4 4-5 7-8 9-8v4zm51-61c-1 2-2 2-4 0h4zm-542 646c-15 2-24 2-25 2-1-2-1-2-1-4l26 1v1zm170-196c0 1 0 3 1 4-22 5-34 8-38 8-1-2-1-2-1-4 13-6 26-9 38-8zm223-262c0 1 0 3 2 4h-3c0-1 0-3 1-4zm-297 336c7 1 11 2 14 2v4c-2 2-3 3-4 3-4-1-8-4-10-9zm-70 113c0 2 0 5 2 8h-24c0-2 0-3 1-5l21-3zm216-249c0 14 1 23 3 30h-6v-3c-4-2-7-5-8-10h-3v-5h-3v-8c6-1 10-3 12-4h5zm-110 133c0 2 1 3 3 5-4 1-7 1-8 1v-4c1 0 4 0 5-2zm278-324c-4 0 2 2 19 5v5l-17-5c-2-1-2-3-2-5zm198-199c-7 1-12 1-13 1-1-1-1-3-1-4h14v3zm-247 263c6 0 18 13 22 14v4l-11-1c-5-6-9-11-11-12v-5zm-149 189c4 0 6 3 10 8h-5c-4-1-5-5-5-8zm239-266c0 3 0 6 1 9l-9-4c0-2 0-4 2-5h6zm165-189c3 0 4 0 5 2-2 1-5 1-6 1 1-1 1-1 1-3zm-429 485c3-3 6-5 10-5 11 0 17 8 18 24l-7 6-11-11c-4-2-7-2-8 0l-20-8c0-2 0-3-1-5 5 0 12 0 19-1zm253-273c2 2 2 2 2 3h-9l-2-1c4 0 7 0 9-2zm-2 101c0 1 0 1 1 3-28 7-45 12-54 10-7 3-12 5-13 6-15 1-23 4-24 9l-16-3c-1 3-1 6-3 8-6 0-12-1-15-2-2 3-2 6-2 8-13-2-21-1-24 2-38 8-60 10-64 10 1-1 1-3 1-4 17-5 32-9 45-11l1-3c35-5 55-11 61-18 17 1 67-13 88-12v-4l18 1zm-342 360c1 2 6 3 14 5v5l-42-4c-4 5-13 5-27 3-14-4-23-4-27-1l-39-3c2 0 5 0 7-2l1-5c34 1 52 3 55 4 26-1 46-2 58-2zm558-679c1 2 1 3 1 5-19 0-29-2-28-4 11 1 21 1 27-1zm-334 384c0 2 0 4 1 5h-16v-5h15zm115-125c1 3 1 6 2 8l-26-8c-1-2-1-3-1-5l25 5zm-323 392c-11 0-40 9-52 7-1-1-1-3-1-6 16-3 33-4 51-4l2 3zm197-240c-7 1-11 3-12 1v-3c1 0 5 0 12-1v3zm178-205c1 2 4 4 7 4v3c-1 0-11-2-31-4v-3h24zm-94 84c10 0 29 5 38 5v5c-10 0-23-2-38-5v-5zm-149 227c0 8 0 15 1 25 1 1 2 3 4 3 1 3 1 5 1 6-3 2-5 2-8 2-4 0-8-3-10-8-6 3-11 4-16 4-9 0-19-3-28-11v-5c10 0 32 4 41 4 4-5 8-11 10-19 1 0 4 0 5-1zm108-118c1 3 3 5 3 6-12 14-20 20-27 20-2 0-5 0-6-1-4 3-11 3-18 1l1-3c9-8 25-15 47-23zm-72 55c12 1 19 4 20 9-8-2-14-2-18-2 0-2 0-5-2-7zm83-74c-1 0-3 0-4-1 1 0 3 0 4-2v3zm139-170c2 1 4 3 8 3v6c-8 0-10-3-8-9zm-328 405c-4 1-8 1-9-2h9v2zm312-338l-1 6-20-9v-5l21 8zm-144 163c-2 1-4 6-4 14h-6c-4-5-7-10-8-13 5 0 12-1 18-6v5zm378-423c0 3-1 6 1 8-3 1-16 1-38-1v-4c6 0 10-2 13-3h24zm-546 630c-11 2-19 2-23 2v-5h23v3zm47-63c-2 1-4 1-6 1-1-1-1-3-1-4h7v3zm405-476c1 0 3 0 4 2h-4v-2zm75-109c10 1 21 2 38 4 2 3 2 6 3 8-1 2-3 3-3 5-6 0-14-5-22-13-1 0-10 3-14 3-2-2-2-3-2-7zm-519 595c16 0 25 7 29 18 8 2 13 2 17 2 0 1 0 4 1 6h-33c-6-1-11-2-17-5l2-7c1-4 1-9 1-14zm181-159l-5 5v-8h4l1 3zm284-331c0 1 0 4 1 6-3-2-5-5-5-6h4zm-187 231c-6 1-8-2-9-7 4-1 6-1 9 1v6zm-18 39c1 1 1 1 1 3-24 12-41 18-50 20-1-2-1-5 0-10 7-1 37-13 49-13zm-287 305c2-2 10 0 22 5-9-1-17-1-22 1v-6zm73-95c31 4 50 5 57 7 0 2 0 3 1 5-5 1-25-2-60-7l2-5zm198-176l-41 20c0-6 13-14 41-23v3zm27-39c0 2 0 3 1 5h-8c1-2 1-3 1-5h6zm-42 58c-4 6-6 12-7 18-14 3-25 6-32 9 0-1-2-4 20-18 11-8 18-11 19-11v2zm-163 195h-6v-5c2 0 4 0 6-1v6zm250-301c-1-1-1-1-1-3 8-11 14-17 18-17 3 0 6 3 8 10l-25 10zm-122 165c-1 0-3 0-4 1v-6h4v5zm387-487c2 0 4 1 5 3h18c-2 21-1 35 3 43-4 3-8 4-9 4-4 0-6-3-6-9 2 0 2 0 3-2 0-8-14-28-14-39zm-532 676c-12 1-21 1-30 1 0-3 10-4 30-4v3zm230-274c-4 4-6 11-11 18l-23 5c0-8 29-25 34-23zm-224 254c1 0 2 0 3 1l-5 3c0-1 0-3 2-4zm108-101h-31c-1-2-1-2-1-3h32v3zm210-252c-4 3-7 4-11 4l-4-8 15 4zm-314 375c-4 0-7-2-9-4 4-1 8-1 10-1l-1 5zm134-149v3c-9 3-16 5-17 6-1-1-3-3-3-4 0-2 0-4 2-5h18zm68-62c0 2 0 5 1 7-31 9-48 13-52 13-2-2-2-3-2-5 10 0 27-4 53-15zm105-125c-4 0-8 0-12-2v-3c3-2 6-3 12-1v6zm-300 333c8 1 13 3 16 6h-19l3-6zm306-294c-4 2-8 2-11 2 0 3 1 6 3 9-2 2-3 2-4 2-4-4-7-5-10-4-14 11-29 17-41 18-12 5-19 8-26 8 0-8 16-16 49-23l17-15c10-2 17-2 23-2v5zm-39-165c-2 0 8 3 32 11l25 4v3l108 16c23 8 40 13 54 15 0 0 8 0 25 0v5h7v5l-31-1v3h-8v-3l-51-6c-46-5-72-10-76-13-22-1-34-5-34-16-19-1-34-4-40-12-5-2-9-2-12-3 0-4 0-7 1-8zm275-137c1 1 1 1 1 3-3 1-5 3-7 3 0-2 0-3 2-6h4zm-13 18c10 2 11 7 11 12-20 2-33 4-37 4l3-7c9-1 17-1 22-2 1-2 1-5 1-7zm-464 550v4l-15-1v-3h15zm148-148c-1 2-7 3-13 3-3 6-9 9-21 9-2 3-4 6-7 9l-30 8c0-13 12-20 34-22 7-9 19-13 35-13l2 6zm109-190c39 1 58 6 61 17-27 3-50 4-70 4-1-5-1-8-1-10 4-5 8-9 10-11zm-12 68c5 0 9 3 10 8l-7-1-3-7zm-56 102c-6 2-10 3-13 3-8 8-15 11-20 11-4 0-6-3-6-10 17-7 30-10 39-10v6zm75-96c-1 0-1 0-2 2-2-2-3-5-3-7l5 5zm-229 234c14 0 30 2 44 3 1 4 1 7 1 8h-30c-4-3-9-5-16-7l1-4zm-3 91c-25-2-51-3-79-2v-6c26-1 40-2 40-2 17-2 30 0 39 3v7zm269-337c-2 3-5 5-6 5-2-2-2-3-2-8h8v3zm-136 224c1 2 1 5 2 8l-40-1c-2-1-2-3-1-6 3 0 10 0 19-1h20zm15-22l-7-3c3-1 5-1 7-3v6zm213-246h-10c2 0 2-2 2-3h8v3zm29-28c3 0 5 2 6 5-2 2-5 2-6 2v-7zm6 98c-5 1-10 4-16 9-17 1-39 5-64 13v5c-7 1-12 1-16 1-20 9-45 13-73 15v-5c7 0 26-8 59-24 17-3 33-5 46-6v-5l14 1v-5h38c6-3 10-4 12-4v5zm-56-15c4 0 7 1 10 3-1 2-4 1-6 1-1 0-4 0-5-1 0-2 0-2 1-3zm57-43c-1 1-4 1-8 1v-6l8-5v10zm-9 17c1 3 4 4 8 5-1 1-1 4 1 7-15 6-24 9-28 9l-3 5c-4 0-8 0-9-2 0-4 4-6 12-7 0-3 0-8 2-13 5 0 9-1 11-4h6zm-209 208c4 0 7 2 10 4 18 0 39 0 61 2v2l-30 4c0-2-3-2-9-2-4 0-8 0-9 2-6 0-12 0-21-2-10-2-16-2-21 0v-5l13-5 5 5 1-5zm-56 109c-1 2-1 2 1 4l-8-1 1-3h6zm306-370c0 2 0 2 2 3-4 27-5 46-5 58l-13-3v-10h2c1-14 3-23 7-29-1-10-1-16-1-19h8zm-281 352c1 2 1 3 2 3-4 3-9 5-18 5v-7c3-1 8-3 16-1zm-10 20c-1 2-2 2-4 0h4zm24 12c-2 0-3-2-4-5h4v5zm77-53c12 2 21 2 26 2 0 2 0 2 1 4l-127 4c-4-3-5-7-5-8 38 1 68-1 92-2l13 4v-4zm-22 25c-1 2-1 3-2 3-8 0-12 0-12 0-22-2-38-2-49-2 2-2 2-3 2-5 38-1 56-2 58-4l3 8zm50-89c4 1 8 1 10 2-4 2-8 2-10 2v-4zm-64 109c4 2 6 2 9 2v3c-2 2-6 2-10 2l1-7zm78-69h-6v-3h6v3zm-46 45c2 1 5 1 6 3-3 2-5 1-7 1l1-4zm55-45h-5v-3h5v3zm-8 13c-1 1-2 1-4 1v-3h4v2zm35-34c-3-1-4-1-5-2v-3h5v5zm-47 49c2 0 3 2 4 3h-5c1-1 1-1 1-3zm101-80c2 3 2 6 3 8-8 6-32 9-70 8-1-1-1-3-1-5l21 1c7-8 22-12 47-12zm-75 62c-1 1-1 3 1 3l-6 3c1-2 1-3 2-6h3zm41-28c-2 2-4 1-6 1v-3c3-1 4-1 6-1v3zm-3 83c-4 5-28 6-71 4 0-2 0-2 1-3 31-3 53-4 70-4v3zm9-37c-4 1-8 1-11 1v-8h5l6 7zm31-19c-5 5-10 8-16 9-3-4-9-6-15-6v-6c6-2 17-3 29-3l2 6zm44-23c-1 2-3 2-6 2 0-21-5-33-14-35-2 2-6 2-12 3v-13l4 1 2 3c2 0 22-6 23-5l3 44zm-56 58h-4v-5h4v5zm40-36c4 0 8 2 13 5 1 5 1 9 1 11-5 1-9 1-10 1l-4-17zm-34 55c7 0 12 0 16 1-3 3-8 5-16 5v-6zm7 45h-2v-5h3l-1 5zm57-82c7 0 12 9 14 27-5 3-9 4-11 4-3-14-4-23-3-31zm-21 54c7 1 11 10 10 27-1 2-2 2-3 2-4-2-7-11-7-29z"/><path d="m2722 6388c-3-1-5-1-6-3l-5 4c-10 41-12 68-5 81l-3 9-2 1c-3 9-5 23-8 42-2 2-4 5-5 10-4 17 9 33 40 50 0 6 10 27 8 33l-3 2c-1 6 0 13 2 20-7 13-13 19-15 22-2-7-8-11-17-14-2 11-2 21 2 31v2c-8-2-17-10-26-27-7 0-11 4-13 13l10 18v4c-7 1-14 1-21-1-6-1-12-4-15-8 1-31 0-54-1-68-11-60-15-104-14-135-4-18-5-35-3-47 2-3 6-15 12-38l-6-11c-14-2-31 6-48 21l-26-3c-2 2-5 7-6 13-30 20-49 32-56 35-5 18-14 27-27 27l-6 21c1 2 3 2 2 4-4 17-11 28-21 30l-3 14c1 2 2 4 3 4-1 3-3 6-5 7-2 11 1 37-2 48 1 0 3 1 4 2-3 18-5 29-6 33 6 32 8 57 7 78l7 35c22 40 38 63 48 70l2 7c22 17 36 32 42 44 17 4 26 7 29 9l22-4c15 2 25 2 28 2l49-5c7-4 32-6 37-10 1-1 5-4 9-4 36 2 72-28 86-68 4-1 8 0 10 1 3-6 6-9 8-10 0-14-2-25-3-31 3-9 9-38 15-87-2 0-2 0-3-2l1-20c-5-9-4-28 3-55-5-10-7-23-4-40-8-17-11-27-10-35-16-23-28-42-33-58-6-21-12-35-18-45-5-1-20-1-25-3-1-11-5-17-11-19l-5 4zm-166 47l-4-1 1-3 4 1-1 3zm-18 1c-3 0-5 6-8 15l-27 33c-1 1-1 1-2 1l-6 16c-3 1-5 0-7 0 0-5 0-8 1-13 2-11 28-37 32-47l6-2c2-6 6-8 12-8l-1 5zm76-29c1-4 2 0 1 15-5 2-10 2-15 1-2 3-3 6-4 7-6-1-13-5-20-10l1-3c3-1 5-1 8-6 13-3 23-4 29-4zm-139 115l-6-2 1-6 4 1 1 7zm95-79c9 2 13 13 16 32-14-5-22-12-22-23h3c2-4 3-7 3-9zm-57 57c3 6 3 9 4 13-3-2-5-3-6-5l2-8zm41-22c-1 2-1 3 0 5-2 1-2 1-2 3l-8-2 2-8 8 2zm56-48c2 3 3 3 5 3-1 7-2 11-2 14l-4-1c0-8 0-13 1-16zm-150 135c-2 3-6 4-10 4 1-8 2-14 5-20l5 2v14zm86-27c0 3-1 6-1 7-13 5-24 11-32 15-1-2-1-5-1-8 10 1 19-5 26-16l8 2zm-49 43l-13 4 4-15 3 1 6 10zm-7 27l-3-1 1-4 2 5zm96-86c7 1 12 15 17 42l-3 27c-2 1-3 1-4 1-3-32-7-55-10-70zm-138 132c9 3 13 12 14 28-5 4-8 4-11 4-3-14-5-24-3-32zm272-187c5 1 7 8 9 20l-3-1c-2 3-3 6-3 7l-6-1 3-25zm-165 97c4 25 6 34 3 73-1 20 0 33 3 42-21-2-34-9-39-19-3-3-5-7-7-9l2-7c-6-3-8-12-7-26-4-11-5-19-4-25l7-4c7-22 21-30 42-25zm177-123c15 8 25 20 28 39 0 6-1 11 0 13-2 1-3 1-5 0 2-4-2-12-10-25-8-13-13-22-13-27zm-20 64h-3l1-3h3l-1 3zm-144 56c6 3 8 11 7 24 9 28 14 52 14 73-2 1-4 1-8 0-6-15-9-30-7-47-1-2-4-3-5-3l-1-47zm60 42c-3-1-6-3-5-6 2-1 2-1 2-3l3 9zm88-61c-1 1-1 1-2 3-3-3-7-5-7-9-1-3 1-4 2-4 3 1 5 4 7 10zm-3-25c25 24 39 43 42 57-21-12-32-26-33-42-4-3-7-7-9-15zm-141 155c3 5 4 12 4 17l-9-2c-1-2 0-7 3-16l2 1zm45-6c-7-1-9-10-4-27l2 1 2 26zm-64 51l-17-17 1-5c5 2 10 3 17 3l-1 19zm62-28c-3 1-5 1-7 1l5-18 4 1-2 16zm-158 45c7 0 12 6 16 18 3 4 6 8 9 11 20 35 30 54 31 57l-16-13-28-47c-8-17-12-26-12-26zm42-54c28 34 45 64 51 88 14 15 23 27 29 36 0 2-1 5 0 7-2 1-5 2-8-1-10-10-18-17-26-21-3-7-7-12-12-17-2-2-10-15-24-43-8-16-12-34-10-49zm259-105c10 10 18 22 24 36 1 2 3 3 5 3l-1 3c-13-3-22-17-28-42zm-120 150c-1 1-2 6-2 11-2 4-4 7-5 8-11-4-14-13-11-24l18 5zm134-90c1 3 0 5 0 6 2 2 3 3 5 3 0 5 2 8 5 11l-1 4-7-1c-4-9-8-15-11-18-1-3 0-6 0-8l9 3zm-136 117l-3-1c-1-2-1-2-3-2l4-3 2 6zm8 19h-3c-2-2-3-6-3-7h3l3 7zm108-103c5 11 9 24 10 37-4 2-7 3-10 4l-14-20c4-10 6-18 8-20 1 0 4 1 6-1zm-192 157c7 2 24 13 31 14l2-2c6 6 10 13 9 20-14-2-25-5-33-5-15-2-21-9-22-18 3-1 6-1 8 0 3-4 3-7 5-9zm117-68c4 12 6 19 9 25l-8-2c-2-9-7-13-13-16l1-8c2-1 6 0 11 1zm21-26c4 1 8 6 13 13 14 18 12 18 12 23-5-2-10-6-16-12-6-12-10-17-12-18 1-3 2-4 3-6zm-41 53c8 15 14 25 15 28-7-1-20-21-18-27 1 1 1 1 3-1zm151-74c-1 4-3 10-3 17-4 0-8-2-11-5 0-1 3-7 9-14l5 2zm-182 144h-3c-1 0-2-1-2-6 3-1 5 0 7 0l-2 6zm154-127c6 11 9 20 9 25-6-2-18-18-17-24 0-1 3-2 8-1zm-11 30c8 8 12 14 12 17-5 4-11 14-17 32-16 10-26 16-30 15l2-8c8-11 13-19 14-27l15-3c2-1 2-2 3-4-1-10 0-18 1-22zm-64 68c5 3 8 5 9 7l-2 8-10-3 3-12zm-84-1252c-19-10-29-13-31-12l-5 10c2 6 3 8 5 11l-10 23c-2 10-7 23-17 39-10 18-19 27-25 30l-6 13c3 8 8 14 12 16 4 2 7 2 10-1 19 26 31 40 37 43 6 3 11 2 14-2h9c13 6 20 11 20 13l75 47v5c17 8 28 14 36 20-4 12-28 40-31 47l-13 6v11c-7 12-12 22-14 33 1 3 4 4 5 4-11 9-15 16-14 18-12 38-16 66-10 86-2 25 0 54 8 85-2 13-2 21-2 25 1 6 2 10 2 11 2 3 6 5 7 6 14 22 24 39 34 49 18 15 26 24 28 30 15 9 32 19 49 28 67-8 115-25 145-50 5-10 12-19 20-25 14-25 24-44 31-57 5-10 7-16 8-19 6-4 11-5 13-6 7-14 12-36 14-64-1-3-3-4-4-4 0-26-4-46-8-60-10-19-13-33-8-43l60 30c0 2 2 4 3 5 4 2 18-12 21-11l2-13c-4-3-7-5-8-6 4-20 7-35 8-46 3-4 7-8 9-12 6-12 2-22-14-29-6 0-12-1-19-5-9-4-16-9-24-16-2 0-4 1-5 1-7-7-11-13-12-15-29-14-46-24-52-29-24-7-41-13-51-20-61-42-117-75-167-101-10-6-17-12-26-16-25-16-42-26-51-30l-22-22c-8 1-38-25-36-31zm2 30l-2 5-4-2c0 1-2 4-3 5-7-1-12-2-18-7l8-15 19 14zm-3 36c1 2 1 2 0 3l-9-4c-1-2-1-2 0-4l9 5zm19 28c-1 3-1 5-2 6-6-5-11-7-13-10l3-5 12 9zm-63-3c5 3 10 9 13 15-1 5-3 9-5 12 4 7 8 13 11 16 0 1-1 3 0 3-12-4-23-13-30-25l11-21zm22-15c10 5 18 14 21 28 12 11 23 21 34 29l-1 2c-12-3-19-7-24-11-2 1-1 5 1 9-2 1-4 0-6-1 1-5-5-15-16-27-12-13-14-23-9-29zm109 33c0 1 0 1 0 3l-6-3 2-3 4 3zm31-6c0 1 0 1 0 3l-6 1c-1-2 0-4 2-7l4 3zm-98 39c2 1 4 4 4 9l-6-3c0-3 1-5 2-6zm102-11c-1 1-1 1 0 2-4-1-6-2-7-2 2-1 2-1 2-3l5 3zm6-3c2 1 3 2 4 4l-5-2 1-2zm-33 19c2 1 3 2 4 4-3 0-4 0-6-1l2-3zm41-1c-1 2-1 3-1 5-1-2-3-3-4-4l2-2 3 1zm-7 9c-1 2-1 2 0 2-3 0-5-1-6-3 1-1 2-1 6 1zm29-8c-3-4-4-4-5-6 4 0 6 1 7 1l-2 5zm-49 18c3 1 5 2 6 4l-2 4c-2 1-4 1-7-1l3-7zm67-11l-9-5 1-1 8 4v2zm-46 8c13 9 20 16 20 19 8 6 16 10 20 12l9-1-7 16c-4-2-7-4-13-8l-3 2c-4-2-6-7-8-17l-20-18 2-5zm12 70l-1 2c-22-9-39-17-52-23-11-6-18-9-20-12l3-5c3 3 7 3 11 3l59 35zm24 1c0 3 0 5-1 6l-19-12c2-1 9 0 20 6zm89-32c-3-1 2 3 17 12l-4 7c-7 2-16-1-28-9 0-2-12-7-35-18-1 1-5-1-10-4l2-2c3 1 9 1 17-2 6 2 22 14 28 17 7 1 11 2 13-1zm-67 32c3 3 6 5 6 7-4-1-7-2-8-3l2-4zm88-18c0-2 0-2-1-2 2-1 3-1 3-2l-2 4zm33 9c-5 1-11 0-14-2-4-1-8-5-10-10 2 0 9 3 25 9l-1 3zm13 6c-2 1-6-1-11-3 4-3 7-4 8-3 1 0 3 3 3 6zm-29 16c-5 3-8 3-11 2 4-7 7-7 11-2zm-165 68c9 13 16 22 19 29l-2 5-22-15 1-3c-6-5-9-10-11-13 2-9 4-17 8-24l7 21zm114-9l-13 6c-21 12-35 16-40 13-2 0-3-3-6-6l3-6c14-5 24-12 30-23l27 13-1 3zm53-16c-14-1-21-3-24-7 1-1 6-2 13 0 7 2 11 5 11 7zm-192 86c-1 5 0 9 0 12l-7-6c1-4 1-5 2-7 3 0 4 1 5 1zm-19 28c-8 12-13 16-17 16 2-19 4-35 9-47l8 31zm222-107c0 2-1 3 0 5-2 1-5-2-9-6l1-3 8 4zm32-30c16 14 32 23 46 28 7 12 15 20 21 23-16-8-55-31-71-38-2 0-13-7-32-21 0-2 0-4 3-8l33 16zm7 60c6 3 8 6 9 8-5-3-8-4-11-4l2-4zm71-16c12 7 18 14 15 18-11-4-19-6-23-8l8-10zm-325 120c3 2 5 15 8 40l7 6-1 38c-5-4-8-9-7-12-9-9-20-52-15-63 4-4 6-6 8-9zm21-84c2-1 10 9 28 28 1 6 0 14-2 22l2 3c-1 4-2 9 0 14-2 30-3 54-2 70 12 26 19 47 24 63 8 5 13 10 15 16-10-5-34-25-43-30l4-26-13-48c11-30 11-56 0-79 0-9-1-16-4-19l-9-14zm186-1c3 28 4 47 2 59-6 16-9 27-6 30l-22 45c-2 12-4 19-8 24-12 10-19 17-22 24-16 8-27 17-36 25-34-17-49-40-47-71-5-27-4-47 1-60-3-9-2-19 2-29 5-8 12-17 23-27 9 2 16 2 21 3 3-5 3-20 6-25 13-6 21-13 25-19 9 2 16 4 19 4 7-6 13-6 21-2 8 5 12 11 16 18 2-1 4 0 5 1zm-237 116c4 3 9 14 15 32 5 18 9 31 13 35l-2 5c-6 6-11 13-13 17-6-5-10-10-8-16l5-5-6-8c-1-18-4-31-7-39 2-11 3-17 3-21zm385-101c-9-7-15-10-16-12 10 0 17 2 21 3l-5 9zm-128 35c12 20 19 35 24 46-2 3-4 7-5 12-17-4-24-6-23-6l2-16-4-16c2-4 4-16 6-20zm38-43c11 6 15 15 11 29 10 30 15 59 16 84l-9-20c-10-14-11-28-4-46-3-20-10-34-16-41l2-6zm-214 205c12 8 12 9 11 14-9-3-20-8-35-15 2-4 6-6 11-5 4 0 8 2 13 6zm186-68c-10-3-14 0-16 4-8-9-10-17-5-23 7 0 15 2 22 6l-1 13zm-43 16c-4-1 2 4 22 16l-4 17c-8-2-17-3-25-2l-14-7 21-24zm-129 90l-3 2-24-11 2-3 27 8-2 4zm41-25c-1 3-3 6-2 8l-15-8c1-3 2-5 2-7l15 7zm132-80c13 6 19 16 19 28-7-2-12-4-13-4-3-9-6-16-8-19l2-5zm29-25c4 4 2-1 15 29 3 10 5 19 3 26-3 0-7 0-11-2-1-24-3-42-7-53zm-93 87c-1 23-1 40 1 50-10-8-26-18-46-28l4-7c1 1 2 1 4 1l3-6 10-9c12-3 21-4 24-1zm-82 55c-3 0-4 0-5-1l1-3c2 1 3 2 6 1l-2 3zm129 12c-14 13-22 19-30 19-30 24-63 34-98 29-9 4-21 4-31-1-11-6-34-29-70-72 0-1 0-1 0-3-11-11-15-23-12-35l7 15 22 27c11 14 19 23 25 26 2-1 5-1 7 0 2 6 12 13 32 19 19 6 32 9 38 6 7 4 12 6 12 8 21-9 35-16 44-22 20 1 36-7 52-26l5 3-3 7zm-16-60c11 11 10 14 2 33-2 0-3 0-4-1-3-10-2-20 2-32zm30 43c-1-3-2-3-4-4l2-3 5 3-3 4zm-7 7l-3-1c0-2 1-4 1-5l4 1-2 5z"/><path d="m2789 5298c-17 2-30 2-39 1-17 2-30 11-43 27l-11 4c-1 3 0 7 1 12-10 18-14 30-11 38-7 10-1 52-7 61 5 3 12 22 9 26l18 21 4-6-6-23c2 1 4 4 6 9 2 4 5 5 8 5 0 6 5 11 12 15 20 1 35-6 45-19l7-3c12-20 21-35 27-44 0-2 0-2-1-3 10-17 15-37 15-61-4-20-6-32-8-35-16-12-24-21-26-25zm364 250c-8-7-21-13-36-21-19-9-32-16-39-20 0-2 0-2 1-3-13-7-64-42-153-104-4-2-12-6-24-9-9-4-16-7-21-11-4 4-8 10-16 19 3 5 5 12 6 20-7 13-15 20-24 24-16 22-26 33-31 33l-6 10c0 2 1 3 0 4-2 3-6 5-12 7-2 3-5 7-10 13 3 4 5 8 5 11 6 3 23 3 27 6-1 10 0 17 6 20 5 4 13 4 26 1 30 19 43 30 43 31 4 5 9 12 13 18 5 5 13 4 22 1 21 14 32 24 32 32 42 29 80 54 114 74 6-2 17 4 35 16 18 11 27 19 28 25 3 2 6 2 8 2 8 5 14 9 19 10-1 7 1 12 5 15 6 3 14 5 26 3 10-21 16-38 20-49 0-2-1-2-3-3 4-7 6-11 9-15 6-5 11-10 13-14 3-4 5-8 3-11l17-19c-5-24-8-39-13-50-3-2-10-3-21-3-1 0-8-7-20-18-10-8-16-13-18-13-2 0-20-10-57-30-2-4-5-7-6-8l3-4c16 11 27 14 29 10zm7 4c-1 2-3 4-2 6l5 4c2-3 0-5-3-10zm-403-235c-1 1-1 3-1 5l-15 1c-1-2-1-4 1-6 3 2 11-3 15 0zm9 4l-2-2 1-2 3 1-2 3zm-38 52l-11 3c-7-9-10-16-6-24l5 4 3-4c-1-1-3-1-3-3l2-3c2-1 3 0 4 1l6 26zm20-6c-1 2-3 4-2 6-8-3-12-9-10-21l12 15zm5-32c16 7 26 11 29 13 8 7 9 19 2 33-14-7-22-12-25-14-4-8-8-16-15-23 1-3 3-6 3-7 1 1 3 0 6-2zm-48 38c8 5 4 22-8 50-5-17-2-32 8-50zm87-49c21 28 21 61-2 101-1 1-2 4-4 4-13-10-19-17-21-21l4-6 14 9c3-2 7-5 10-9 9-14 11-32 3-50l2-3-9-21 3-4zm-32 75l-6-3 3-2c3 0 4 1 5 1l-2 4zm-35 27l-3-2 2-3 3 2-2 3zm27-26c7 10 11 18 12 24l13 18c-1 2-3 4-4 9l-24 13-8-13 8-14c-8-7-7-19 3-37zm-27 31c10 14 14 26 14 36-6-3-11-5-14-10 0-9-1-15-3-19 0-3 2-6 3-7zm173 49c-1 1-1 1 0 3l-8 3c-3-4-3-10-5-17l2-2 11 13zm7-22c14 15 19 26 15 34-9-12-16-21-19-29l4-5zm133 41c-3 4-7 11-10 18-13-6-21-11-23-16-13-7-19-9-16-7-2-5-11-13-27-23 0-2 0-4 1-5-2 0-6-2-9-4-4 1-12-4-23-15-13-12-19-20-20-24l2-4 27 17c65 42 98 63 98 63zm-167 6c5 4 7 7 7 9-3-1-6-1-8-3l1-6zm126 6c1 2 1 2 0 3l-21-14 1-1c9 6 15 10 20 12zm-50 7c3 1 4 2 4 4-2 0-4-1-5-2l1-2zm-1 28c-9-3-20-10-34-20 0-2 0-2 0-3 15 9 27 17 35 21l-1 2zm15-20c-1 1-2 3-1 3l-7-4c1-1 2-2 3-2l5 3zm45-6h-8c-1-2 1-5 4-6 1 0 2 1 4 0v6zm27 14c0 2-1 3-2 4-19-11-28-14-26-13 3-4 12-1 28 9zm34-10l-1-5c-2 0-1-2 0-3l5 3-4 5zm-76 22c3 4 14 11 32 24l-3 4c-19-12-29-20-30-25l1-3zm101-5c0 3 0 5-1 6-4-3-10-6-15-12l2-4 14 10zm-55 18c0 2 2 5 6 9-1 2-1 2-1 4-1-1-2-2-3 0-2-4-3-8-4-11l2-2zm20-10c11 7 16 14 14 19l-14-9c-1-3-1-6 0-10zm-128 26c8 3 28 18 58 43l-3 4-33-21-24-24 2-2zm113 13l-17-11 1-3c8 5 15 10 19 11l-3 3zm50-4c-2 0-3-3-5-6l1-3 7 5-3 4zm-3 18l-2 4c3 2-5-5-23-22 1-3 1-5 0-5l17 10 8 13zm-94 22c1 2 0 3-1 4l-6-3 3-4 4 3zm100-27c4 2 5 6 2 10l-4-2c0-4 1-7 2-8zm-76 27c-1 9 7 18 25 31l-3 4c-20-11-37-20-48-27l2-3 2 2c2-1 2-1 3-2 3 0 5 1 6 2l10-9 3 2zm99-24c7 5 18 20 31 43-1 1-1 1 0 3-7-2-12-3-14-3-10-14-25-31-17-43zm-73 30c10 6 29 20 57 42 0 2 0 2-1 4l7 4-3 4c1 0 2 1 3 3l-2 3c2 1 3 2 3 4l1 4-15-15c-10-1-17-4-20-6 3-2 4-4 7-8-15-18-28-30-38-36 1-1 1-1 1-3zm180 32l-9-6c0-2-6-7-17-14-4 1-7 1-9-1-4-2-3-7-1-15-4-5-7-7-7-9l3-5 23 15 17 35zm-45-1c17 11 28 22 31 31-2 5-4 13-7 20-3 0-5-1-6-2-5-12-7-18-7-19-10-8-14-19-11-30zm-46 62c-2 1-3 0-6-2l2-4 6 4-2 2zm33-36c7 11 10 23 12 37 7 9 11 15 11 19-1 1-1 1-2 2-27-19-40-37-38-53 6 2 12 1 17-5zm249-612c-12 4-42-9-54-5-10-7-22-9-40-5-14-1-25-2-33-1-28 15-50 24-63 27-21 15-44 37-71 66-5 14-10 26-15 36 0 2 0 2 1 3-10 21-11 39-2 52-1 10 12 35 9 47 6 11 7 20 4 28 1 9 2 16 1 21l16 20-1 3c41 35 62 56 62 65 4 1 10 6 18 15 8 9 15 12 21 13 10 5 16 8 19 10 12 0 23 1 30 3 39-7 63-15 70-23 16-3 56-42 69-47 13-14 21-21 25-23 12-16 19-26 21-35 10-30 18-53 19-69-1-9 1-15 3-20l-1-31c-20-19-29-45-27-74l-15-13c-3 0-7 3-12 9-5 6-11 15-18 27 0 2 0 2 1 3-14 13-24 20-27 21 0 2-3 8-10 16-7 9-12 13-14 13v4c-11 5-18 7-21 5-4 7-6 13-4 17-4 8-4 14-1 16 2 2 5 2 9 2 2 1 7 10 14 26 1 15-2 27-8 36 5 8 2 20-8 34-9-8-14-10-17-8-1 1-1 3-1 5-2 0-4 0-5 1l-4 5-2 4c-7-2-14-2-20 2-14-10-23-18-29-23-3 2-9 3-17 2-4-7-8-13-11-15l-20-23-3-9c-6-19-10-39-12-59 0-15 0-27 2-36 5-4 9-7 11-9l5-6c5 0 10-4 15-10 11-3 19-6 23-9 3 2 8 5 14 8 6 3 10 6 9 9 5 4 12 6 20 6 17-26 34-51 54-74 0-2-1-3-2-3 12-13 21-19 28-22 8-9 6-19-5-28zm-101-1c4 5 8 9 11 11-4 1-8 4-11 7-1 1-7 15-19 41l-6-5c0-12-1-21-5-26 2-3 6-6 10-8 2-1 2-1 3 0l17-20zm-69 28c9 8 12 14 9 20l-12-16 3-4zm144-2c-7 10-11 19-16 26l-6-1c2-18 4-28 8-31l14 6zm-181 36c-7 13-10 23-9 29-7-5-11-8-11-10l-6-1c0-4 2-7 3-9 6-3 13-9 21-17 4-4 10-3 19 2l-17 6zm125-22c-1 18-3 33-3 43l-21-12c5-6 10-28 17-37l7 6zm-61 38c3 2 3 6 1 13-2 0-3-1-4-2l-27 27c-4-2-8-5-14-12 2-5 3-8 5-10 6 3 11 3 16-1 12-6 20-12 23-15zm-106 21c8 9 13 15 17 19-6 17-9 29-8 34-8-5-17-27-22-31 8-12 12-19 13-22zm55 57c11 9 13 23 5 43-3-11-7-20-11-26 2-8 4-15 6-17zm238-37c0 2 0 5 1 5h-5c-7 9-15 23-20 41l-12-10 32-37 4 1zm32 21c7 6 9 30 3 40-7-6-9-30-3-40zm-57 55c7 6 9 12 9 18-2 0-3-1-4-1l-7-14 2-3zm62-1c5 4 6 9 3 13-5-6-7-10-3-13zm-336-7c-1 1-2 2-1 3 2 4 5 6 6 7-1 6 3 15 11 28 8 13 12 22 10 29 4 17 15 37 34 57-1 1 0 4 3 7 2-1 4-1 5-2 9 12 13 19 15 23l-50-40c-4-18-10-31-20-38l-4 1 1-18c-6-11-12-53-20-61l4-5 6 9zm292 34c-2 0-2 0-2-2 1-1 1-1 3-2l-1 4zm46 6v-6l3 2-3 4zm-35 9c-3 0-6-3-11-7l3-4 10 9-2 2zm-44 7c2 1 2 3 2 5-3 0-4-1-5-2l3-3zm-145 43c11 10 16 16 15 19-8-7-14-12-19-14l4-5zm29 27c-1 1-2 2-2 4l-6-5c2 0 3-1 4-2l4 3zm170-26c-8 2-28 29-38 30 1-7-1-13-4-17 11-7 22-16 33-26 10-6 17-11 21-17l3 2-15 28zm-66 1c6 7 7 18 3 33-4 3-10 2-17-4l14-29zm-45 28c6 11 7 18 5 22-2-1-7-6-15-14 3-4 6-5 10-8zm-29 53c-1 3-3 6-3 8-24-6-42-8-54-8-6-5-10-9-14-10l7-9c16 14 12 15 31-2 7 6 26 15 33 21zm29 0l-5-4 6-7 5 4-6 7zm28-839c-17-2-29-5-38-8-17-2-32 3-47 16l-13 1c-1 3-2 7-1 12-14 15-21 27-20 35-9 8-13 50-21 57 4 4 6 25 3 28l12 25 6-6-1-24c2 2 3 6 4 11 1 4 3 6 6 7-1 6 3 12 8 17 20 5 36 2 49-8l7-1c16-17 29-29 37-37 0-2 0-2-1-3 14-15 24-32 29-56 1-20 2-32 1-36-13-15-19-26-20-30zm296 328c-6-9-17-18-30-30-17-13-28-22-33-28 0-2 0-2 1-3-11-9-52-55-125-136-2-3-10-8-20-15-8-5-14-10-19-15-4 3-10 8-19 15 1 6 2 13 1 21-10 10-20 16-29 18-20 17-34 26-38 24l-9 9c0 2 1 3 0 4-2 2-8 3-14 4-2 2-6 5-12 9 2 5 3 10 2 12 5 5 22 9 25 13-4 9-4 16 1 21 4 5 12 6 26 6 24 26 34 40 33 41 4 5 7 13 9 20 3 6 11 8 22 7 17 18 24 31 23 38 34 38 65 71 93 99 7-1 16 7 31 23 15 15 22 25 21 31 3 3 5 3 8 3 6 7 11 13 15 14-2 8-1 13 2 16 5 5 12 9 25 10 14-19 24-34 30-43 0-2-1-3-1-4 4-7 8-10 11-13 8-3 13-7 17-10 3-3 6-7 5-10l21-15c1-24 1-40-1-51-3-3-9-6-20-8-1-1-6-9-15-22-8-11-13-16-14-17-2 0-18-14-49-43-1-4-3-8-4-8l4-4c13 15 23 20 26 17zm5 5c-1 2-3 4-3 6l4 4c3-2 2-5-1-10zm-336-322c-1 1-2 2-3 4l-15-2c1-2 1-4 3-6 3 3 11 0 15 4zm7 6l-1-2 2-2 2 2-3 2zm-48 42h-11c-5-10-6-18-2-24l5 4 3-3c-1-1-2-2-1-4l2-2c2 0 3 1 4 2v27zm20-1c-1 1-3 3-4 5-6-5-8-11-4-23l8 18zm13-30c14 10 22 17 25 19 6 9 4 20-6 33-12-10-18-17-21-20-2-9-4-18-9-25 1-4 4-6 5-7 1 1 3 1 6 0zm-56 25c6 7-1 23-19 47-1-17 5-32 19-47zm96-27c14 32 6 64-25 98-1 1-4 3-6 3-9-13-13-21-15-25l6-6 12 13c3-2 7-4 11-7 12-12 18-28 14-48l3-2-4-22 4-4zm-49 66l-4-5 3-1c3 1 4 2 5 3l-4 3zm-40 17l-2-2 2-3 3 3-3 2zm32-19c5 12 7 21 6 27l9 21c-1 1-4 3-6 7l-26 7-5-14 11-12c-6-8-3-21 11-36zm-33 25c6 15 8 28 5 37-5-3-9-7-11-12 2-9 3-15 1-19 1-3 4-5 5-6zm157 87c-1 1-1 1-1 3l-9 1c-1-4 0-10-1-17l3-2 8 15zm12-19c10 17 12 29 6 36-6-13-10-24-11-32l5-4zm119 71c-3 3-9 8-14 15-11-10-17-17-18-22-11-9-16-13-14-10-1-6-8-15-21-29 1-2 1-4 2-5-2 0-5-2-7-5-5 0-11-7-19-20-10-15-14-24-14-29l3-3 22 23c53 56 80 85 80 85zm-164-34c5 5 6 8 5 10-3-1-6-1-6-4l1-6zm122 35c0 2 0 2-1 3l-17-18 1-1c7 8 13 13 17 16zm-50-5c2 2 3 3 2 5-2 0-3-2-4-3l2-2zm-8 28c-8-6-17-15-29-27 1-3 1-3 2-4 12 13 21 23 29 29l-2 2zm19-16c-1 1-2 2-2 3l-5-6c1-1 2-2 3-1l4 4zm45 4l-8-2c0-2 3-4 6-5 1 1 2 2 4 2l-2 5zm23 20c0 2-1 3-2 4-17-15-24-21-23-19 4-3 13 1 25 15zm36-2l-1-5c0-1 1-2 2-3l3 4-4 4zm-79 4c2 4 11 14 25 31l-4 3c-15-16-23-27-23-32l2-2zm100 18c-2 3-2 5-3 6-4-3-8-8-13-15l4-3 12 12zm-59 5c0 2 1 6 4 11-1 1-1 1-1 3-1-1-2-2-3-1-2-4-2-8-2-11l2-2zm22-5c9 10 12 18 10 22l-12-12c-1-3 1-6 2-10zm-131-4c8 5 24 24 47 55l-4 3-27-28-18-28 2-2zm108 39l-15-15 2-2c7 6 12 12 16 14l-3 3zm50 7c-3 0-3-3-5-7l3-2 5 6-3 3zm-8 18l-3 3c3 3-3-6-17-27 1-3 2-4 1-5l14 14 5 15zm-96-1c0 2-2 3-3 4l-4-5 3-3 4 4zm103-4c4 4 3 8 0 11l-4-3c1-4 3-7 4-8zm-80 9c-3 9 2 19 17 36l-4 4c-17-16-31-29-40-38l2-2 2 2c2 0 2 0 3-2 3 1 5 3 6 4l11-7 3 3zm101 0c7 7 14 23 21 49-1 1-1 1-2 3-5-4-10-6-12-6-6-16-17-36-7-46zm-77 12c8 8 23 27 45 54 0 2 0 2-2 4l6 5-4 3c1 1 2 2 2 4l-2 3c2 1 2 2 2 4v4l-11-18c-10-3-16-7-18-10 3-1 5-3 9-7-11-20-21-34-29-43 1-1 1-1 2-3zm167 73l-8-8c1-2-4-8-13-18-4 0-7-1-8-2-3-3-1-8 2-16-2-5-5-7-5-9l5-5 19 20 8 38zm-44-11c15 15 22 27 23 37-2 5-6 12-11 18-3-1-5-3-6-3-1-13-3-19-1-20-8-11-10-22-5-32zm-59 50c-2 0-3-1-5-4l3-3 5 4-3 3zm41-28c4 13 5 25 3 39 5 10 7 17 6 21-1 1-1 1-3 1-21-25-30-46-24-60 6 4 12 3 18-1z"/><path d="m4347 4598c2-6 1-13-2-18-7-10-43-27-48-35-4 1-6 1-6 0-6-9-12-15-17-16-14-19-27-26-37-21-13-18-22-31-29-41-2 0-9-8-23-25-13-18-19-28-19-31l-13-20c-30-16-47-25-51-24l-19-21c-22-7-47-2-77 19-12-2-24 1-33 7-10 7-18 19-23 33-9 6-14 11-12 13l-18 21c-1 2 0 3 1 5l-17 20-20 51c3 9 2 16-3 21-6 23-10 40-11 52l-3 1-16-17c-2-1-8-9-19-27-1-7-4-13-7-17-4-10-9-15-12-16-4-8-5-14-7-16-12-1-21 0-27 3-1-3-4-4-8-6l-2-7c18-13 28-26 33-39l-7-1c-38 25-36 28-42 31-2-1-2-1-3-2l-4 3c0 2 0 2 0 3-6 4-11 6-15 7l-27 43-17 11c-14 2-27 6-37 13-2 0-4-3-5-5-8 5-13 9-14 11 24 36 46 65 64 89 6 0 16 12 32 36l3-1 2 3c-1 1-1 1-2 2l6 9c2 0 2 0 3-1 6 7 10 13 13 14 7 13 18 27 32 45 20 24 32 38 35 43 2 0 3-1 4-2 8 12 15 19 17 19 17 25 25 37 24 33 0 3 0 6 1 7 0 1 2 3 4 3 6 6 15 17 25 35 0 2-1 3-3 4l5 8c12-3 18-4 23-4l7-8c3-8 4-14 7-18l-2-3c-4 3-11 14-13 15-6-7-11-15-14-22-6-12-6-20 3-24 10 10 20 13 27 10 1 1 1 4 0 8 7 10 13 14 19 9 6-3 17-28 26-34 1-2 0-3 2-4 16-4 36-14 60-29l-3-21c-2 0-3 1-4 0-11-23-16-35-15-37l-7-11-4-1-8-10c0 2-7-5-22-19l-14-22c-16-14-28-27-34-38 3-7 4-14 1-24l11-18c4-7 5-12 3-17 14-14 43-62 61-79 3 1 9 2 17 2 2-5 3-12 3-20 9 2 28 35 38 36 0 3 2 6 4 12 1 4 4 6 9 7l93 131c8 2 15 4 21 5l-2 8c8 12 22 13 41 5l1-5c11-9 33-24 65-45 4-7 21-22 51-44zm-266-224c1 5 1 8 0 8l-4-5 4-3zm-21 9c-13-8-28-8-43 3l-1 10c-4 1-5 1-6 2l-17-16c10-5 18-7 27-6 21-13 39-12 50 1l-10 6zm-99 35c-2 1-3 2-4 4l-1-2c2 0 3-1 5-2zm223 70c-10-7-16-13-20-16l-29-42 6-1c10 10 17 15 19 15 0 2 2 6 5 10-1 2-1 4 1 7h5l17 25-4 2zm-127-48c7 10 8 21 2 31-4-5-8-28-2-31zm-108-11c5 8-6 39-16 47l-1-2-3 2-5-8 3-2c-1-1-1-1-1-3 4-3 6-8 6-13l-3 2c-2-2-1-4 1-6l2 3 12-13-2-2 7-5zm171 105c-2 3-3 4-4 5l-16-23c-6-10-13-17-20-20l-3-4c6-4 15 1 26 14-16-22-11-13 17 28zm-46-21c-1 2-1 2-2 3-2-2-3-4-7-7l4-2 5 6zm152 29c-2-3-4-6-6-12l1-1 10 10-5 3zm11-1c1 7 1 12-1 13l-5-7c2-3 5-5 6-6zm86 45c-4 4-7 8-8 9l-26-21c-17-18-25-26-22-23 0-2 1-3 3-3l13 11c22 6 36 16 40 27zm-61-2l-13-19c3-1 9 5 16 17l-3 2zm-318-27c-3-1-4-3-5-4l3-18 9-6c3 1 6 2 7 4l-14 24zm300 20c3 7 2 12 3 16-3-2-6-6-9-11l-6 3c0-1-1-2 0-4l3-3c5 1 8 0 9-1zm-101 16c9 14 16 27 22 39l-3 1c-16-25-27-38-33-38v-9c-5-1-8 0-10-1l-12-22c-3-8-9-14-17-17-12-15-17-25-15-29l24 23 3-2c8 14 16 26 24 38 8 7 14 13 17 17zm-253-23c-1-1-3-4-3-7l4-2 4 5-5 4zm27-27c4 9 5 19 1 33 3 6 4 11 7 14l-14 33-5-6 4-3c-1-10 0-23 4-39-1-7-2-17 0-29l3-3zm-106 31c2 6 2 9 1 10l-5-8 4-2zm432 81c-4-4-6-7-8-10 3-4 7-6 11-9l9 2 4-3c0-2-1-3 1-4 7-3 12-6 15-8 0-5 2-8 5-12 6 6 9 10 12 12l-49 32zm-496-142c4 6 6 9 7 13l-1 1-7-2c-7 5-12 11-16 19l3 4c2 0 3 0 4 1l81 103-3 2c-37-35-65-70-88-103-2-1-6-3-9-7l29-31zm-41 69c0 2 0 2 0 3l-2 2-3-5h5zm167 44c-2-3-7-10-15-24l4-3 17 19-6 8zm-157-21l-4-5c2-1 2-1 4-1l2 3-2 3zm10 14l-3-4c1-1 1-1 3-1l1 2-1 3zm36 15c0 2-2 3-3 4-2 0-3-3-4-4l1-4c4 1 7 2 6 4zm9 2c0 2 1 4 3 7l-2 2c-5-3-7-7-6-8l5-1zm168 47c-7-3-15-6-24-5l-5-8c0-2 3-4 4-5 9-6 18-1 29 15l-4 3zm-147-15c-3-3-5-6-8-9l-8 7c-2 0-4-3-6-6l7-9c9 8 15 14 17 16l-2 1zm-5 9l-3-5 2-2 4 5-3 2zm14 7c-3-2-3-6-5-11l1-1 7 10-3 2zm149 14c-3-3-10-6-12-9 8 1 13 3 14 7l-2 2zm-120 0c-7-5-12-12-14-18 1-1 3-2 3-4l13 20-2 2zm-18 7c-5-5-7-8-8-11 3 0 5 4 8 9v2zm176 48l-10-11c-11-2-18-5-20-12-2-6-5-12-6-23h1l42 41-7 5zm-117 84c-7-3-18-18-35-43-6 0-17-14-32-38-8-7-14-13-16-16-2 0-5-2-6-4-2-2-2-5-3-9-3-8-6-12-11-11-46-54-77-94-98-123 1-2 2-3 6-5 7 11 13 16 15 17 2 6 6 11 11 19 14 20 37 46 68 78l5 2c0 2 0 5 1 7 2 4 9 7 16 10 11 16 45 49 56 65 8 12 12 24 11 32 7 7 11 13 13 17l-1 2zm-9-80c-1 2-2 2-3 3l-4-5c1-1 3-2 5-2l2 4zm91 27l-2-2 3-2 1 3-2 1zm-69 17c4 6 4 12-2 17-9-11-13-17-14-21l2-2c7 7 11 12 14 14 0-3-2-5-1-7l1-1zm108 4c-2 6-20 20-19 32l-5 3-3-4 2-2c-1-15 1-27 1-35 1-2 2-3 3-4l6 9c8-3 12-3 15 1zm880-598c-6-7-11-10-16-9 0-2 0-2 1-4l-9-3c-13 7-34 20-65 40l-4-2c-3 1-5 4-8 9-17 9-33-3-51-34l4-2c-2-8-4-17-8-25 2-6 3-11 1-14 0-1-3-3-5-3-12-24-19-38-20-43-2-1-2-5-2-9-1-4-3-6-7-7-8-18-12-27-13-32-12-20-18-33-23-38-9-8-23-15-41-19-9-8-12-6-41-19-14-7-26-10-37-8-21 9-36 17-46 22-5-4-12-3-21 1v3l-56 29c-13 13-25 23-37 32-20 20-33 31-37 35-2-5-5-11-10-16-4 2-8 4-10 7l10 31 22 45c11 10 17 19 21 26-1 9 1 14 4 15l41-20c1-2 0-3 0-4 7-6 13-10 15-15 31-26 48-42 52-47 6-6 11-10 18-13l13 4c7-4 13-6 14-8 12 11 21 21 25 32l-5 15c-14 11-23 18-24 20-22 16-75 58-99 69l-25 28c-12 14-17 25-18 34-9 7-12 15-10 22-7 14-9 25-4 30l4 8c2 1 2 1 3 0 2 8 4 11 4 11 5 10 8 17 10 23l3 7c2 1 2 1 4 0 4 5 8 9 10 10 15 19 22 30 24 30 9 0 20 5 36 13 17 8 29 11 35 10l2 2 27-5 2 4c19-5 34-8 48-11 19-11 30-19 33-25 2 1 4 1 5 0l31-26c21-36 30-62 28-80 2-1 2-1 4-1l30 18c9 14 14 22 17 23 10-4 21-7 28-11 5-3 10-5 12-7 5 0 14-3 27-9 13-7 30-17 52-31 2 1 5 1 9-1 7-4 18-21 30-50-5-8-8-16-6-22-5-18-6-30-1-35zm-303-191l-1 4-4-7 6-3-1 6zm-44 7c-2-5-4-8-4-12 1-2 2-3 4-4l5 12-5 4zm3 62c-2 2-5 4-6 4-6-10-9-23-10-40l3-2 13 38zm24-54c4 19 6 30 3 34l13 25c-4 3-2 10 3 20 0 3-3 6-5 7-9 0-15 0-20 1l-2-5c9-6 14-15 10-27-4-14-5-23-2-28l-7-23 7-4zm129 81c16 42 22 71 21 88l8 22c-1 2-1 2-2 3-8-16-12-27-12-34-29-57-46-92-55-106-1 1-1 1-3 1l-2-4 3-1c-3-9-8-19-14-28-10-17-17-26-17-27 10-1 19 3 28 14l3-2c11 22 23 43 35 60 1 4 0 7 1 9 0 1 3 2 6 5zm-229-83c3 6 1 26 3 30l-3 4-9-6c-8 1-14-2-19-8-19 9-26 23-20 42l-4 2-15-19c-1 1-4 2-8 5l-3-6c13-6 43-31 55-37 7-4 15-6 23-7zm28 30c-2-4 2 12 10 45-12 7-27 20-45 37l-5 7c-16-32-23-52-17-59l-2-11 4-2 18 11c4 12 8 20 14 24 13-8 21-14 22-21-6-16-6-26 1-31zm-120 36c-2-1-2-2-3-3 2-1 3-1 4-3l2 5-3 1zm232 89c-1 2-2 3-3 4-3-2-4-3-4-4 1-1 3-1 7 0zm227 65c-4-3-5-7-7-7 2-6 5-10 12-14l3 5-8 16zm-453-107c-1 0-1 0-2 2-7-11-11-18-11-22l3-1c6 8 9 15 10 21zm21-33c13 23 21 34 21 34 9 15 9 26 0 32-3-1-5-3-7-5-1-4-1-7 0-12-5-18-12-34-17-47l3-2zm333 133l-4-4 6-3 2 5-4 2zm135 34l-9 10c-3-6-2-15 2-27l3-2 4 19zm-479-87l-2 3c-6-6-13-14-18-25 5-5 8-8 10-9l-2-3 4-3 8 37zm196 11c-2 3-5 7-7 14-12 16-21 26-26 30-1-6 10-24 31-47l2 3zm232 72c1 5 3 10 5 15h-1c-4-5-7-9-8-13l4-2zm-28 5l-5 3c-12-5-18-8-24-9h26l3 6zm-258-75c-1 2-4 6-9 10-14 32-24 49-33 53 2-14 5-24 9-32-2-3-3-5-4-10 17-8 26-15 26-21 5-3 7-4 10-3l1 3zm301 100c2 1 4 1 5 2 1 4-11 13-38 28h-3l-10-19c3-5 5-8 10-9 8 6 14 11 18 12 6-3 14-12 18-14zm-80 40c-8 0-13 1-17 3-20-16-36-31-49-42 10-5 13-16 11-34-1-2 1-2 2-3l8 16c0 2 6 15 22 36 15-2 23 0 24 3 2 2 3 5 3 9 1 1 6 6 7 7l-11 5zm-121-131c9 17 12 35 11 54l-2 2c2 8-4 20-22 37-6 13-13 24-18 32l-37 24c-3-3-4-5-5-6-28 4-25 3-41-18-3-14 3-30 20-46 2-6 6-9 11-12 12-16 22-27 32-35-1-3-3-5-2-7 4-2 9-5 12-5l-1-2c18-13 26-26 22-36l5-2c2 0 4 5 5 11-4 3-5 7-1 16 3-2 7-4 11-7zm-168 37c0 17-5 30-13 35l-11-4c-10 3-17 7-21 10-2-12 12-25 45-41zm202 41c3 7-2 21-15 41-13 20-23 31-32 37-4-3-6-5-7-6l15-20-3-6c4-2 9-3 12-3 1-8 3-15 2-21 6-2 21-18 28-22zm-154 3c-7 4-11 10-10 17-7 5-11 7-15 9 4 8 7 14 7 19-1 0-1 0-2 2l-22-12 2-10c2-3 6-5 12-8 2-5 12-11 27-20l1 3zm-74 18c0 3-2 6-3 6l-11 1-1-3c1-4 5-7 8-11 4 3 5 7 7 7zm-37-2h-2l3-3 1 2-2 1zm260 55c0 4-1 8-3 9l-2-5c1-2 3-3 5-4zm-188-12c-2-1-5-3-6-4l3-2c3 2 4 4 6 5l-3 1zm52 29c-8-4-11-8-13-10 2-1 8 2 20 6l-7 4zm-34-1c-10-16-16-24-17-27 1 0 1 0 3 0 9 10 15 19 18 25l-4 2zm-90-62c1 1 0 10 0 27-1 16 2 26 8 33l-6 3-8-16 4-2c-10-24-10-39 2-45zm167 66c-5 7-8 11-12 15-4-3-8-8-13-17 14-4 23-4 25 2zm48 38c-2-1-2-1-3-2 8-8 16-15 25-18l1 2-23 18zm-156-22c-4-13-9-21-12-25l4-2 17 23-9 4zm149 23c0 2 0 3 1 5-4 3-7 6-9 7-2-4 1-8 8-12zm-111 6c-11-4-17-9-19-12 7-5 12-9 14-10 5 6 8 11 11 13l-6 9zm84 13c-3 2-5 4-7 4-15 2-25 4-32 7l-3-6c3-1 5-2 7-1 1-2 7-7 17-12 10 3 15 6 18 8zm-139-19c-6-2-10-4-12-7 1-2 2-3 4-4 1 4 7 7 8 11z"/></g></g></g></g><g clip-path="url(#1)"><g fill="#201e1e" stroke="#201e1e"><g font-family="&apos;BUTECO &apos;" stroke-linejoin="round" stroke-linecap="round" stroke-width="7.62" font-size="1533.72"><text x="10500" y="14850" transform="matrix(.92119 0 0 .78018 4668.42 6326.46)">Texto 01</text><text x="10500" y="14850" transform="matrix(.77022 0 0 .78018 6535.85 7560.17)">Texto 02</text></g><g stroke-width="20"><path d="m16144 5787c-177 268-219 764-330 1133-178 590-415 1023-495 1624 318-92 598-261 1013-283 635-34 1027 117 1367 283 21 74 87-62 94 0 6 34-24 95 47 76 57-144 17-363-94-435-7 82 96 174 24 246-42 16-39 84-95 38-289-871-804-1722-1437-2380-52-31-128 4-141-19-7-144 73-218 188-264-28-22-83-21-141-19zm-2722-1681c-33 94-63 190-89 289 486 44 949 157 1327 353 176 92 368 227 541 397 265 258 497 474 448 925-47 432-250 854-424 1266-416 985-706 2167-730 3455-5 264-19 544 188 661 131 61 280-27 377-56 111-450 1-938 47-1417 25-256 91-684 212-887 450-754 2128-658 2568-19 272 394 330 1209 330 1775 0 210-48 426 47 604 666 25 563-494 542-944-74-1612-602-2722-1366-3720-320-417-565-829-966-1152-117-94-281-160-401-264-646-562-1474-1109-2651-1266z"/><path d="m15413 8450c382-297 1671-345 2168-38-80-404-309-800-542-1190-211-352-548-917-919-1095-1 11-3 22-23 19-2-12-4-23-24-19-81 885-510 1492-660 2323zm872-2644c-115 46-195 120-188 264 13 23 89-12 141 19 633 658 1148 1509 1437 2380 56 46 53-22 95-38 72-72-31-164-24-246 111 72 151 291 94 435-71 19-41-42-47-76-7-63-73 74-94 0-340-166-732-317-1367-283-415 22-695 191-1013 283 80-601 317-1034 495-1624 111-369 153-865 330-1133 58-2 113-3 141 19z"/><path d="m14683 16494c63-82 35-236 94-321 178 28 95 225 71 340-72 27-106 9-165-19z"/><path d="m18958 16689c-146 175-604 73-858-6-447-137-921-464-1131-661-397 288-1056 582-1744 642-257 23-521 8-613-75-155-142-37-465 142-548 229-105 544-2 777 19 383-103 818-163 1084-359-875-1199-1564-2548-1979-4117-105-138-147-107-189-207-160-389 7-1120 48-1492 111-1017 319-1785 659-2606 163-391 390-818 424-1228 36-419-195-611-447-849-414-391-1043-661-1812-753 4-18 9-36 14-54 486 44 949 157 1327 353 176 92 368 227 541 397 265 258 497 474 448 925-47 432-250 854-424 1266-416 985-706 2167-730 3455-5 264-19 544 188 661 131 61 280-27 377-56 111-450 1-938 47-1417 25-256 91-684 212-887 450-754 2128-658 2568-19 272 394 330 1209 330 1775 0 210-48 426 47 604 666 25 563-494 542-944-74-1612-602-2722-1366-3720-320-417-565-829-966-1152-117-94-281-160-401-264-646-562-1474-1109-2651-1266 5-13 10-27 15-40 885 120 1599 449 2189 852 147 102 257 253 400 359-3-2 156 92 212 132 782 566 1524 1552 1956 2436 203 416 383 907 495 1436 110 522 229 1096 188 1624-19 244-46 454-259 566-224 1566-643 3023-1367 4249 299 337 1053 588 1514 516 74 12 114 24 178 106 128 168 14 342 15 347zm-53-48c69-82-1-250-72-318-59-44-290 4-447 4-2 92 100 259-51 337 197 43 431 78 570-23zm-4104-543c-156 128-251 330-94 453 345 272 1177-127 730-453-172-27-465-33-636 0zm2191-114c6 77 372 260 542 359 262 153 528 283 730 246 84-64 74-158 48-227-393-176-852-299-1131-566 22 66-195 113-189 188zm283-831c-249 425-852 890-1720 945 108 133 52 320-24 453 1092-195 1715-720 2050-1530 344-832 682-1870 778-2757-282 1111-517 2039-1084 2889zm-2097-2964c-74-67-103-170-165-246 283 1460 842 2699 1696 3701 160-117-51-276-117-377-446-680-789-1465-1084-2247-121-321-205-657-377-926 35 16 34 61 47 95zm1437-3607c-1025-11-1355 617-1437 1378-45 415 69 872 23 1284-9 89-64 168-70 246-25 331 191 797 306 1095 303 783 480 1298 848 2021 105 206 481 862 636 850 75-6 192-262 260-378 186-323 205-473 306-755 212-596 448-1250 589-1908 47-220 163-662 141-849-10-93-80-123-94-227-51-378 14-805-47-1209-61-402-130-751-283-1057-353-229-633-485-1178-491z"/><path d="m18743 16362c42 0 76 60 76 137 0 77 19 150-23 150-42 0-109-77-109-153 0-77 13-134 56-134z"/></g><g stroke-width="7.62"><g font-family="&apos;Arial Black&apos;" font-weight="900" font-size="529.17"><text x="10500" y="14850" transform="matrix(.78408 0 0 .78018 7871.91 1664.9)">NN 1</text><text x="10500" y="14850" transform="matrix(.78408 0 0 .78018 7870.36 2088.48)">NN 2</text></g><path d="m16847 4036c-7 10-15 16-20 21-3-1-4-2-6-3l17-48c-1 0-1 0-2-2 11-27 19-49 22-64 0-8 2-14 4-17l-2-3c14-28 21-49 21-61 7-12 12-47 20-60-1-20 2-32 4-39 18-44 25-70 19-82 7-14 12-23 15-28-1-6 0-12 2-18 1-5 5-11 11-18 6-7 10-12 11-15-1-14-1-26 4-36 4-1 8-1 10-1 6-10-7-28-9-28-16-10-35-16-55-16l-51-28c-46-25-69-39-70-42-4-3-7-5-7-6-2-1-9-4-20-8l-3 5 3 4c-4 1-7 2-8 3l-6-4c5-10 9-18 12-23-2-3-5-4-6-5v-6l-14-4c-5 5-6 9-6 12-4 0-6 2-7 3l4 2c-12 29-21 50-30 67-11 19-23 35-33 48 0 5-1 10-6 15-6 7-10 11-11 12 2 1 2 1 2 3-11 18-18 26-20 26l-4 7c2 0 2 0 2 2-16 26-28 40-34 41-3 4-8 19-11 24-1-1-3-2-3-1l-73 109h-5c-3 3-3 8-3 9-13 25-23 38-27 42-14 25-28 54-43 84 1 2-1 6-2 10-16 30-29 51-36 65-23 40-40 62-52 65l-35 39c-15 15-25 29-32 40-17 19-29 30-34 31-6 10-8 17-7 19l16 10c6 2 29-1 39 5l-3 23 9 10c4 2 10 6 21 11l37-5c4 4 7 6 7 8 8-4 15-4 19-1 1 1 3 3 4 5 10 6 23 14 37 24-1 2-1 2 0 4l19 5c2 0 3-6 2-16 4-5 6-19 10-43 5-23 10-40 15-47 2-4 5-6 8-8-1-2 3-13 14-34-4-4 7-21 28-49 22-30 38-47 50-54l33-66c-1-2-1-5 1-7 2 0 2-1 4 0l15-25 2 2c1 2-1 8-5 18-10 37-12 64-7 83-6 34-5 60 1 76-5 9-11 19-18 32l2 4c-6 13-12 22-15 27 3 7 0 18-8 31-4 21-7 37-11 48-7 21-12 33-11 38-9 3-13 4-16 8-2 3 0 9 6 14-2 6-4 14-8 20-3 5-6 10-10 13 6 12 13 19 22 21 14-2 29 1 44 10 8 5 20 16 37 30 18 16 31 25 39 29l8-3c-2-6 5-20 21-46l17-21c10-14 18-21 21-21 11-13 22-28 37-45 10-6 16-13 21-21 39-42 69-73 91-93 16-9 29-18 37-27 21-26 39-46 52-58 4 2 10-4 16 0-22 40-37 64-43 71l-15 47-18 21c-3 9-17 30-38 62-2 0-7 5-15 15-8 10-12 17-12 20-14 22-23 34-25 34-12 22-20 39-26 49-4 0-9 5-16 13-6 7-8 13-9 18-6 0-10 4-12 7-1 3-1 6-1 8l-14 8c-1 5-1 10 0 12 20 18 32 29 34 29l16 25c2 0 25-1 35 6l6-1c13 7 39 28 51 35l1 4c10 6 16 8 18 8 7-13 11-21 9-27 2-1 6-4 8-7 1-14 3-23 8-29 6-10 15-20 24-33l-1-4c50-87 87-146 108-178 5-11 23-44 58-99l15-40 98-154c-1-5 2-12 9-23 7-12 13-18 17-19 15-32 24-51 28-57-1-5 4-12 13-24 9-11 16-18 19-17 12-19 24-29 32-28l3-4c-4-8-2-15 4-22 7-7 14-10 22-12l3-4-6-8c2-7 1-12 1-14 1 1-5-1-18-7-6 1-23-13-29-6l-4-3v-6c-4-2-9-4-15-4-16-10-27-18-35-24-3-12-10-19-18-22-3 3-8 2-15-2-3-1-7-4-10-7l-2-6c-1-2-3-5-6-7-9 1-16 3-18 6-1 2-1 5-1 7l-16 15c-15 15-29 27-41 36-2 1-2 1-3 0-17 17-29 28-38 31-25 29-39 42-43 40-9 15-15 24-17 24-13 9-23 17-31 26-21 25-34 37-38 36-20 23-37 41-48 51-2-1-2-1-4-1-4 5-8 10-12 17-11 3-17 7-20 9l-39 36c-2-1-3-1-5-1l3 5c-2-1-3-2-5-2-1 2-1 5-1 10zm501-236c3-5-1-1-11 9l-5-3c2-6 4-11 7-14 2 1 6 5 9 8zm-87-51l2-2 4 2-2 3-4-3zm2 38c-4 8-8 12-13 10-6-11-13-18-16-22 1-4 3-7 8-10 11 7 18 14 21 22zm-54-62c-1-1-1-1-2-3l3-4c4 2 11 3 17 3 4 2 7 6 8 8l-3 4-23-8zm28 160c-1-1-1-1-3-1-2-6-3-11-1-14 2-3 6-7 12-8 0-2 0-5 2-8 3 0 6 2 7 3l-17 28zm-31-41c-2 1-2 1-3 0 7-8 10-14 12-14l-9 14zm-46 63c3-8 6-12 6-13 2-1 4 0 5 1l-8 14-3-2zm24-159c-12 19-34 41-69 67-35 26-57 48-69 64l-4-3c21-31 46-53 72-66 14-18 22-29 29-31 15-16 27-29 37-36l4 5zm-3 273l3-5c2 0 3 1 4 2l-3 5-4-2zm-31-28c7-21 15-34 23-43l5 3-25 41-3-1zm-18-85l1-2 3 1-1 3-3-2zm33 190c-1 1-3 2-5 2-1-2 0-3 1-4l4 2zm-57-191c-3 6-15 19-18 24l-7-4c1-8 3-13 3-15l19-11 3 6zm10 137l9-13-4-3 7-12 4 2c2 6-2 16-12 28l-4-2zm-4 11c-2-1-2-1-1-2l2-4 4 3-5 3zm-1 13c-2-1-2-1-4 0l7-11c0 2 0 2 2 3l-5 8zm-165-505c-9-6-20 3-34 23l-3-1c-2-6-1-11 3-17 5-8 14-14 27-20 7 4 9 9 7 15zm98 349c-1-1-3-1-5-1l2-2c1 1 2 1 3 3zm42 161c2-2 4-4 4-5l3 2-3 5-4-2zm-191-546c0-1 1-2 3-3l1 5-4-2zm121 370c-1-1-2-2-4-1l2-5 4 3-2 3zm-7 3c-2 0-2 0-4 0l3-5c2 1 2 1 2 3l-1 2zm-143-390c2-1 3-2 4-3l2 6-6-3zm209 661l6-9 4 2-10 7zm-193-581c-5-2-8-3-10-5 2-6 5-11 6-13l4 2c1 7 1 11 0 16zm123 317c-13 21-24 32-32 31 3-9 6-13 8-17 6-4 13-9 19-16 2 0 3 1 5 2zm67 296c-1-1-2-2-4-2l6-10 4 3-6 9zm-64-238c-5 7-12 16-24 27-2-1-4-2-9-4 3-8 7-14 9-17l7 4c1-2 6-7 13-13 2 0 3 1 4 3zm46 231c1-4 4-10 11-18 2 0 3 1 5 2l-12 19-4-3zm20 55c-2 0-4 0-5-1l3-5 4 3-2 3zm-106-311c-1 1-4 2-6 3l3-5 3 2zm-160-474c-2 4-5 5-7 3-2-4-2-7-1-8l8 5zm49 234c-5-2-8-3-9-4-4-4-2-12 3-23 5-11 9-17 13-19 4-6 9-21 13-26 4-1 6-1 7 1-14 39-23 63-27 71zm-17-135c-5 5-9 8-10 7 2-4 4-7 4-10l6 3zm119 380c-2 3-4 7-6 7 1-4 3-8 3-9l3 2zm-102-312c-1 1-2 3-5 4-7 4-11 6-11 6 1-4 3-7 7-13 2 0 5 0 9 3zm-79-182c-2 1-3 3-4 4l-2-2c-1-2-2-4-1-5 3 1 6 2 7 3zm48 138c-3 3-6 6-8 8l-2-2c2-3 4-7 4-10l6 4zm1 50c0-2 1-4 2-6 2 1 4 3 4 5l-6 1zm207 617l2-4 4 3-2 3-4-2zm-160-441l2-2c-1-16 0-28 4-34 2 15 1 28-3 38l-3-2zm125 314c-5 5-7 9-11 15h-2c4-9 7-14 9-18l4 3zm-151-412c-6-3-9-3-11 0l-4-3c8-7 15-9 20-6l-5 9zm-84-189c-3 0-6-2-8-1 9-15 12-27 9-36 10-7 16-9 20-6l1 8-7-4-15 39zm229 506c-5 8-16 17-35 27-19 10-30 18-35 24l-4-2c4-7 25-23 64-50l2 1c1-1 2-2 4-2l4 2zm-184-416c-4 3-9 3-14 1l10-7 4 2c1 2 0 3 0 4zm170 543l5-17 6 4 1 9-12 4zm-154-443c0 1-2 1-5 1l3-3 2 2zm-13-30c-10 1-16 2-21 1 4-16 15-21 29-17-4 6-7 12-8 16zm160 492c0-2 1-3 0-5 3 2 6 4 8 3l-3 5-5-3zm-251-699c0-2 0-2-2-3 5-8 11-18 19-28l3 2c-3 11-7 21-13 30l-7-1zm111 268c-6 9-9 15-12 16l7-23 5 7zm151 484l2-3 2 2-1 2-3-1zm-129-367c2-4 4-6 4-10l4 2c-1 6-2 10-2 11l-6-3zm-78-279c-13 22-26 31-36 26 13-15 20-24 22-27l3 1 2-3 4 2 1-2 4 3zm198 670c0-4 1-8 0-10 2 6 4 10 2 12l-2-2zm26 75c-1-2 0-3 2-4l-2 4zm-283-794c7-13 11-21 12-22 2 0 2 0 3 1l-13 22-2-1zm84 246c-1-1-3-2-5-1 8-22 11-33 13-37 2 0 2 0 4 1-2 14-6 27-12 37zm113 325c-2-1-3-2-5-2l1-2c2 1 3 2 4 4zm-140-426c-5 5-7 8-8 11l-4-3c-1-2-1-4-1-5 4-2 8-4 13-3zm-62-118c-2 0-4-2-8-3l13-20c1 1 2 2 3 4l-8 19zm106 312c-12-7-21-11-28-12l3-6 3 2c4-3 8-3 12-2l2-2 4 2 2-3 7 4c-3 6-3 11-3 13l-2 4zm-60-162c-1-1-3 0-5 0 1-4 2-7 3-8l4 3c-1 1-2 3-2 5zm139 403c2-3-2 1-14 14l-4-3 13-12c2 0 3 1 5 1zm71 271c3-6 5-11 6-12 2 0 3 1 5 2l-8 12-3-2zm-101-346c-4 6-21 10-24 12l-3-2 6-9c8-1 14-2 17-3l4 2zm-88-223c-2 3-6 4-12 5l3-5c3-2 6-2 9 0zm108 340c-2-1-5-3-8-3l8-6c2 1 3 2 4 4l-4 5zm80 237c-1 3-2 4-4 4 0-3 1-5 2-6 1 2 1 2 2 2zm-201-614c1 5 1 8-1 11-5 9-16 11-30 4l-2-9 16-5c3-2 5-4 4-6l17-13c1 1 3 2 5 1-3 5-6 11-9 17zm107 356c-2 0-2 0-4 0l5-8 2-1c-2 4-3 6-3 9zm-86-54c-1 0-1 0-3 0 8-28 13-45 19-51 0-8 2-13 1-15 6-13 8-21 4-25l11-12c-2-2-4-4-5-6 3-6 6-10 10-13-2-2-5-4-6-5 8-10 11-18 9-21 13-37 22-57 24-61 1 2 2 3 4 4-5 17-9 31-14 43l2 3c-13 32-17 52-16 61-8 15-22 65-33 82l2 2-9 14zm-137-476c-2 0-6 4-12 10l-4-3 25-34c-2-6 3-13 11-24 10-10 15-18 14-23l24-32c-2 2-3 5-3 8l4 2c-18 29-29 44-32 45-12 23-21 41-27 51zm302 824c-2 0-3 0-4-1 10-17 16-24 18-23-7 10-11 18-14 24zm-161-482c-2-1-3-2-5-1l8-14 4 3-7 12zm49 162c-3 0-6-2-8-2l21-18c2 0 3 1 5 2l-18 18zm-174-476c5-9 12-38 20-47 2-1 3 0 6 2-6 15-13 30-23 46l-3-1zm107 291c2-6 3-10 5-11l3 2c-1 1-3 4-5 11l-3-2zm86 257c-2 0-4 1-6 5l-3-2c1-1 7-9 19-25l3 2-13 20zm-24-123c-5 8-19 22-24 30l-4-2c5-9 14-19 24-30l4 2zm-120-243c-7-4-14-8-22-12-3 0-5 0-5 2-4-1-5-2-6-3 0-3 1-5 2-7 3-3 7-5 13-5 0-6 1-11 4-16 5-8 12-14 24-17l4 2c-5 8-19 25-24 33 2 6 5 12 11 18-1 1-2 3-1 5zm46 152c-3 0-5 0-6-1-6-17-8-27-4-33 1-2 3-4 5-4-1-5 2-11 7-16l3 2c2 12 0 29-5 52zm-11-89c-6 10-12 14-17 12 5-5 9-11 11-14 1 0 4 2 6 2zm22 108c1-1 1-2 3-2 0 1-1 2 0 4l-3-2zm77 206c-3 1-5 2-7 5l-6-3c4-7 8-7 13-2zm-183-487c0-4 2-7 6-7l-5 8-1-1zm133 439l-5-4 19-12 4 2-18 14zm-68-206c0-3-3-6-10-10l4-6c6-1 11-1 14 0-2 4-4 11-4 19l-4-3zm174 539c-3-2-6-4-8-3 0-3 7-15 20-33l4 3c-3 5-4 10-4 13l-12 20zm-268-789c5-10 9-16 11-20l4 3-12 19-3-2zm32 73c-1-2 0-5 1-6 2 0 3 1 5 2l-4 5-2-1zm204 589c0 1-1 2-3 3l2-4 1 1zm56 120c-5 8-12 17-23 31-3-1-6-2-8-2 0-2-1-4-2-5 3-5 11-10 22-12 1-1 3-11 5-14 2 0 3 0 6 2zm-250-747c-8 13-18 17-30 15-5 6-8 10-10 14-1-1-4-3-6-2l17-28c3-6 8-10 13-12l5 4c3 4 7 6 11 9zm45 236l-1-7 7 4-2 3h-4zm142 412c-1-1-4-3-6-3 4-2 7-2 9-1l-3 4zm-104-279c2-5 6-6 10-4 0 4-2 6-4 8l-6-4zm-25-35c-2 1-2 1-3 0 2-27 5-45 9-53 2-1 4 1 8 5-2 6-7 38-14 48zm-117-401c0 3-5 9-16 16 5-7 9-14 11-19l5 3zm44 111c-18 24-30 40-34 45-2-1-3-2-5-1 1-6 14-21 37-48l2 4zm52 259l4-45c5 3 5 18-1 46l-3-1zm20 43c-1-1-3-2-5-2l4-6c1 1 2 2 4 3l-3 5zm-28-65c-4-7-8-11-13-16 5-14 8-24 8-31 2 0 6 0 6 26 1 13 1 20 0 22l-1-1zm-86-240l3-4 4 2c-1 1-2 4-2 6l-5-4zm132 368c2 0 2 0 4 0 5 13 7 22 5 25-1 2-5 3-12 2l3-27zm-80-188c1-2 2-3 1-5l5 4-2 3-4-2zm224 579c-1 1-3 3-5 3l-9 15c-17-12-30-18-39-19 0-5 1-9 1-10 2-4 6-3 11 0-1 1-1 1 0 3 7 4 32 3 41 8zm-314-800c5-11 10-19 15-26 3 1-2 11-12 28l-3-2zm120 337c-2-6-6-11-10-19l8-22c7 4 6 37 2 41zm-105-322c-1 1-1 2-3 3v-6c1 0 2 1 3 3zm32 144l16-26c2 0 2 0 3 1l-16 26-3-1zm111 309c0-5 0-9 2-12l9 1-11 11zm-164-460c2-3 5-6 7-6-1 4-3 8-3 9l-4-3zm60 190l-3-1c2-10 5-16 4-18 2 0 4-1 5 0 2 1 3 2 4 4l-10 15zm19 90c-2-1-4-2-6-2 8-32 13-49 15-52 2 0 3 0 5 1-5 8-10 25-14 53zm55 153c2-3 4-6 8-9l2 2c0 3 0 7-4 11l-6-4zm-135-426c-6 6-10 10-14 10l10-15 4 5zm98 412c1-5 3-8 4-10-2-2-6-2-9-3-1-2 0-3 1-4 4-2 7-3 7-6-2-18 0-34 5-45 2-12 4-20 7-26 7 4 5 22-5 54l4 22c-3 9-7 16-10 20l-4-2zm163 51c1-2-7 5-26 21l-16 20-3-2-69 85c-18 15-31 27-40 38 0 0-4 7-13 22l-4-3-4 6-4-3 16-25-3-2 5-7 2 2 31-41c28-37 46-56 51-58 11-19 22-27 31-21 10-17 21-27 31-29 4-3 6-7 9-8 2 2 5 3 6 5zm-22 305c-2 0-2 0-3-1 0-3 0-6 1-7 1 1 3 2 5 4l-3 4zm-9-20c-7 7-11 5-15 3 7-18 13-30 15-34l4 6c-4 8-8 15-9 20 0 2 3 4 5 5zm-240-678l-2-2 7-12 3 2-8 12zm53 202c0-2 1-7 4-13-4-5-3-12 3-22-2-3-3-7-4-11l9-30c11 7 11 21 1 41 4 10 2 23-6 36l-7-1zm109 191c-20 32-35 46-45 43 11-24 22-45 32-62 5 1 7 3 9 4 2 6 4 12 4 15zm-52-46c-3 5-7 6-12 5l3-5h9zm-61-100c3-6 3-10 5-12-3-11-2-18 1-23 2-3 6-4 11 0-2 18-6 31-11 39l-6-4zm45 114c1-1 1-1 0-3 2-1 6 0 7 1l-7 2zm-85-316c-7 12-17 25-26 36-3 0-6-2-7-3l16-25c5-2 9-6 13-10l4 2zm-77-49c14-20 28-42 41-66l6 3c-13 23-18 35-18 35-8 15-16 26-24 32l-5-4zm154 403c-1-4-1-7-1-9 2 0 4 1 8 3l-4 7-3-1zm-124-231c-2 0-5-2-8-2l21-35c2 0 3 1 6 3-2 3-6 8-9 17l-10 17zm11 24l6-4c0 3-1 5-1 7l-5-3zm105 307l4-8c0 2 1 2 2 3l-4 7-2-2zm9 40c-2 2-4 3-8 3 0-3 2-6 2-7l6 4zm-88-45c2-5 2-11 0-18 8-15 16-37 22-62l-4-2c2-7 5-11 7-15 2-21 11-45 24-69l4 2c-3 6-6 26-9 63-6 16-13 30-18 42l4 2-8 13 4 2-20 32c0 6 0 11-2 13l-4-3zm42-40c-2 3-5 5-8 7-1-2 0-4 2-6 0-1 2-4 4-4 1 1 1 1 2 3zm8 71c-1-2 1-4 3-8l5 3v10l-8-5zm-10-17c-3-1-6 1-8 4-2-1-4-2-8-3 3-15 5-25 7-28l-3-5c2-3 4-7 6-7 4 3 3 7 1 14 2 2 6 4 10 8-3 4-4 9-2 12l-3 5zm-75-285c-2 4-4 5-7 6-10 16-21 34-34 52l-1-1 12-28c1 1 2-1 6-7 2-3 4-7 3-9 3-4 7-10 13-17 6-7 9-12 11-17l4 2-3 14-7 2 3 3zm-65-104c-1-1-1-1-3-1l4-6 2 3-3 4zm164 451c-1-1-1-1-3 0-22-16-37-27-48-34l10-9 8 5-1 2c12 7 18 14 22 21 8 4 14 7 16 9l-4 6zm-161-420c-2 0-3-1-4 1 0-5 1-11 6-18l5 3c0 3-1 8-7 14zm-12-18c-1-2 0-4 2-4l-2 4zm-22 14c0-1 3-2 6-1l-2 3-4-2zm6 92c-8 10-13 17-15 22-2-1-2-1-4-1l61-111c5-2 9-1 10 0-20 32-34 58-45 79l-10 10 3 1zm-11-31c0-1-2-2-1-3 4-7 6-10 6-10 13-19 21-32 27-41 0 2 2 3 3 4-18 33-27 49-26 51l-9-1zm51 88c-2 4-4 7-6 7 1-4 3-7 4-8l2 1zm-61-110c-3 2-5 4-6 7l-3-2c0-2 2-5 4-9l5 4zm20 102l4-5 2 1-3 6-3-2zm-15-63c-2 2-4 4-6 4 0-3 2-5 2-6l4 2zm10 71l3-4 3 1-3 5-3-2zm-6-13c-1-2 0-3 1-4l2 1-2 4-1-1zm12 47c1-2 2-4 4-4l2 2-2 4-4-2zm-19-65c-1 1-3 1-5 1l3-4c0 2 0 2 2 3zm17 127c-3-1-6-2-8-2-1-10 9-32 29-64 2 0 3 1 4 1l-11 18c4 10-1 26-14 47zm-14-96c-2-1-3-2-4-1v-6c2 1 3 2 5 4l-1 3zm3 49c-1-2 0-4 1-5l3 1c0 3-1 4-2 6l-2-2zm-71-45c-2-6 9-26 33-62 1 0 1 0 2 2-13 28-23 47-32 62l-3-2zm28 27c1-5 3-8 4-10l7 4-3 4-8 2zm0 36c-2-7-1-13 0-18 6-1 10-5 14-10l5 3c-2 7-6 16-12 26l-7-1zm-3 49c0-2 0-3 2-6 18 11 31 13 37 6 0-2 2-6 4-12l11 7-2 3-4 1c-1 1-6 21-8 21l-40-20zm-21-77l2-3 4 2-2 4-4-3zm11 52c-2 4-6 6-11 9-5-1-9-4-10-4 1-6 3-9 4-10l17 5zm-30-56c-4 5-6 10-10 12-1-3 0-9 4-15l6 3zm-43-17l1-2 4 2-1 2-4-2zm42 90c-3 6-14 5-30-2 0-6 0-10 1-11 14 4 23 8 29 13zm-37-45c-3 5-13 4-28-5-1-2 0-3 1-5 3-2 13 1 27 10z"/><path d="m17553 4742c2-2 4-4 6-4l-1-6c-33-28-57-41-71-41l-7-6v-3c-7-6-19-14-34-26-2-3-3-6-7-9-13-11-34-6-63 14-6-3-28-3-33-7l-1-4c-5-4-11-6-18-8-9-12-12-20-14-23 8 1 14-2 20-9-8-7-17-11-29-12l-1-1c5-6 17-10 36-11 3-6 1-11-6-17l-21 1-3-2c2-7 5-13 9-18 5-5 10-9 15-10 27 14 48 23 62 30 58 16 100 32 127 47 18 5 34 11 44 18 2 3 11 12 29 27l12 1c8-12 9-31 3-53l14-22c-1-3-4-7-9-11-5-35-7-57-6-65-15-12-19-24-13-36l-17-15c-2 0-2 1-4 0-13-11-20-22-18-32l-11-9c-2 0-4 0-4 1-3-2-4-5-5-7-8-7-33-16-42-24-1 1-2 2-4 2-14-10-23-16-27-19-31-9-54-18-72-28l-36-10c-45 2-73 6-84 12l-7-1c-25 12-44 17-59 17-11 13-17 20-20 22l-6 21c-9 13-14 21-14 24l-19 46c2 8-7 32-6 38 0 2 1 6-1 10-18 31-7 76 23 106-1 4-3 7-5 9 4 5 5 9 5 11 13 6 23 10 30 12 6 7 30 25 71 51 1-1 1-1 3-1l17 10c10 0 27 9 49 27 10 0 23 4 38 14 18 0 29 3 35 7 29-4 51-6 68-4 21 4 36 5 47 4 4-4 11-17 14-21 11 5 18 4 22-1l-1-6zm32-169l2-3 3 2-3 3-2-2zm7-16c1-3-3-8-10-14l-17-38c-1-2-1-2 0-3l-12-13c0-3 2-5 3-6 4 2 7 3 11 6 8 8 21 42 28 50l-1 6c4 5 5 9 2 15l-4-3zm-8 80c4 3-1 1-13-6 0-5 2-10 5-14-1-3-4-5-5-6 4-5 11-10 18-14l3 2c-1 3-1 6 1 10-2 13-6 22-9 28zm-41-175l4-5 5 4-3 3-6-2zm28 120c-6 7-17 6-35 0 11-10 20-14 30-9l-1 2c3 4 5 6 6 7zm-26-77c-6 0-9-1-12-2 2-1 4-3 6-3l6 5zm2 47c-1-1-2-2-4-2 0-2 0-2-2-3l5-6 6 5-5 6zm18 71c-3 1-4 2-4 3-6-3-10-6-12-8l2-3c7 4 12 6 14 8zm-55-193c-1-3 0-7 1-11 7 4 12 8 16 13l-3 4-14-6zm-13 88c-3-1-5-3-7-4 2-14 2-26 1-35 2 0 6 1 8 3-5 8-4 19 3 30l-5 6zm-17-62l2-14 12 10-3 3-11 1zm-22-19l3-3 4 4-7-1zm36 124c-5 5-20 4-46-4l-23-14c-1-2 0-3 1-4 30 11 53 18 68 22zm-58-182c-6 7-16 7-31 0-1-6-1-9 1-11 14 3 24 6 30 11zm47 326c-3 4-11 3-21-1l1-2c-1-3-4-5-5-6l4-5 21 14zm-14-190c-24-8-33-10-67-31-17-9-29-14-38-15 11-18 22-27 34-26 4-2 8-2 11-3l6 5c5-4 14-2 26 5 12 2 19 5 24 9v7c18 16 18 32 4 49zm33 212c-15 10-30 13-48 8-6-3-10-6-12-6 0-2 1-3 2-4 3 3 12 3 27 2 16-2 26-2 31 0zm-50-46l2-2 2 2-1 2-3-2zm14-153c-5 4-14 2-24-5-30-4-53-11-72-20-1-2 1-4 3-7 16 1 31 5 46 15 2 0 4-2 5-3l42 20zm-64 35c2-3 5-4 8-2 0 2 0 2 1 3l-9-1zm15 105c0-2 0-2-1-3 3-2 7-4 10-3 4 1 4 3 3 4-1 2-6 2-12 2zm24 8c-32 12-56 16-69 12 19-13 37-17 52-11 4-2 9-3 17-1zm-76-194c-6 0-13-2-17-4l6-7c2 0 5 3 12 9l-1 2zm-15 42c4-5 13-3 26 8l-2 2-24-10zm-17-79l23-8 3 3c-3 4-6 8-9 14l-17-9zm-3 68c1-3 1-6 2-7l15 12-3 3-14-8zm30-162c-3 6-11 8-23 6-5 1-10 2-14 4-41 2-62 3-65 2l19-8 54-4c19 0 29 0 29 0zm30 62c-43 10-77 11-102 6-19 6-34 9-45 10-2-1-4-3-6-3 0-2 0-5 4-7 13-4 23-8 30-14 8 1 15 0 21-3 3-1 18-2 49-2 19 1 36 5 49 13zm-21 278c-14 4-28 6-43 5-2 0-4 2-5 3l-2-2c8-10 24-12 50-6zm-81-174c-1-1-5-4-9-6-3-4-5-8-6-9 9-8 18-6 27 1l-12 14zm21 160c-3-1-4-3-6-4-3 1-3 2-4 3-5-2-9-2-13 0l-3-3 4-5c10 0 17-1 21-3 3 1 6 4 7 5l-6 7zm-45-174l3-3c2 0 2 0 2-1l1 4h-6zm-21-2l2-2c3-1 6 0 8 0l-3 3-7-1zm45 142c-13 0-25-2-37-7-1-4-1-7 0-10l24-4c7 8 13 13 15 16-1 1-3 3-2 5zm-56-240c-4 5-22 16-26 21l1 3c-8 3-17 3-22-1 8-11 16-20 19-27 9-12 17-15 26-11 0 3-2 5-4 7 3 4 5 6 6 8zm9 134c-12-2-20-3-26-3l5-6c9 2 15-1 21-5l6 5c0 2-2 5-6 9zm14 31c-3 3-8 5-18 6-21 3-21 2-25 0 3-4 10-7 18-9 13 0 20-1 21-2 2 2 4 3 4 5zm-29-61c-18 1-29 2-32 1 4-5 27-8 32-4-1 1-1 1 0 3zm0 168c-4-3-9-7-14-10 1-4 5-6 8-8 2 1 6 6 9 14l-3 4zm-50-226l2-2c1-1 2-2 6 0 0 3-2 5-3 6l-5-4zm46 194c-12 0-22-1-26-3 4-5 24-9 29-5 1 1 0 4-3 8zm-21-24c-11 3-18 4-21 3-2-6-7-16-21-29-2-19-3-30-1-33l6 5c6 12 12 20 19 24l-5 15c1 2 2 3 3 4 9 4 16 8 20 11zm-33-87c-5 3-9 5-11 5l-6-5 7-8 10 8zm1160 439c16-13 23-21 23-23l-7-9c-6-1-9 0-12 0l-17-18c-8-6-18-16-30-31-12-16-17-29-17-35l-9-11c-9 0-16 2-20 5-3 3-4 5-3 9-31 7-50 12-55 17-5 4-6 9-4 13l-3 9c-11 9-18 13-20 13l-73 49-5-2c-14 12-24 20-32 25-9-9-27-42-32-48v-14l-10-4c-8-11-15-20-24-27-3 1-5 3-7 3-4-13-8-19-11-19-29-27-53-41-75-44-22-12-49-22-81-27-11-7-19-10-22-12-6-1-10-1-11-3-4 2-7 4-8 5-26 4-46 6-60 11-20 11-32 15-38 14-14 9-30 21-45 33-20 64-24 115-12 152 7 9 12 19 15 28 17 23 30 41 39 51 8 9 12 14 15 15 1 7 0 12 0 14 10 12 28 26 53 40 4-1 5-2 6-3 24 11 43 15 58 17 21-1 36 1 43 10l-52 42c-2 0-5 1-6 1-3 3 4 22 1 24l12 7c5-2 8-4 9-5 17 12 29 20 39 26 2 5 4 9 7 13 9 10 20 10 33-1 2-6 6-11 12-16 7-6 15-11 25-15 0-2 0-4 1-5 9-3 16-5 18-5 25-21 41-32 47-35 16-20 29-33 39-39 64-39 116-77 160-112 10-6 18-11 25-17 26-17 42-28 49-34l29-12c2-8 38-24 43-20zm-29-10l-3-4 3-2c-1-2-3-4-3-6 4-5 7-10 13-13l11 13-21 12zm-31-17c-2 0-2 0-3-2l8-6c2 0 2 0 3 1l-8 7zm-34 5c-3-1-4-2-5-4 7-4 11-7 14-7l4 4-13 7zm28-56c-5 4-12 6-19 6-4-3-7-7-9-9-8 1-15 2-19 4-1-1-2-3-3-2 9-9 21-15 35-17l15 18zm5 26c-9 8-20 11-34 9-15 6-29 12-40 19l-2-2c8-9 14-14 20-17 0-2-4-3-9-3 0-2 2-4 4-5 4 2 15 1 31-4 16-5 26-3 30 3zm-74 87c-1-1-1-1-3-1l5-5 2 3-4 3zm-7 31c-1-2-1-2-3-2l2-6c2 1 3 2 5 4l-4 4zm4-106c-2 2-5 2-10 0l5-4c3 2 4 3 5 4zm-31 98c-1-1-1-1-2-1 2-3 4-5 5-6 0 2 0 2 1 3l-4 4zm0 6c-2 2-3 2-5 2l4-3 1 1zm-4-38c-2 2-3 3-5 3 1-3 2-4 3-5l2 2zm-16 38c-1-1-2-2-4-2 3-1 4-2 5-3l2 3-3 2zm-5-10c-1-1-1-1-2 0 1-3 3-5 5-4 1 1 0 2-3 4zm-4 30c4-1 5-2 7-2-1 3-3 5-4 6l-3-4zm3-51c-2 1-4 3-6 3l-4-4c0-2 1-3 5-5l5 6zm-17 65l8-7 1 2-7 5h-2zm11-46c-13 9-23 12-26 11-9 5-15 10-19 14l-3 8-11-13c3-2 6-5 12-8v-4c3-2 8-3 18-1l26-11 3 4zm-69-16l-2-3c17-16 31-28 42-37 10-9 16-14 19-14l4 5c-4 1-6 5-8 9l-55 40zm-11 21c-3-1-4-3-5-4l19-12c0 2-4 8-14 16zm-7 94c3-3-3 0-17 10l-5-6c1-7 7-14 19-22 2 0 12-8 31-24 0-2 3-5 7-8l2 2c-3 3-5 9-5 17-5 4-22 14-27 19-4 5-6 9-5 12zm-2-74c-4 1-6 3-8 3 2-4 4-6 5-7l3 4zm-19 88c2 0 2 0 3-1 0 2-1 3 0 4l-3-3zm-21 25c1-5 4-9 7-12 3-2 8-4 13-4 0 2-6 7-18 19l-2-3zm-11 10c0-2 3-5 7-8 2 4 1 7 0 8-1 1-4 1-7 0zm-3-33c0-6 1-9 3-10 5 6 4 9-3 10zm4-177c-16 3-26 5-34 6l-4-5 23-13 2 2c7-4 13-5 16-5 8 5 14 11 19 17l-22-2zm-38 107v-14c-3-24-1-38 4-42 1-1 4-2 8-3l4 5c-1 15 2 27 9 37l-23 20-2-3zm-7 55c7-12 12-18 16-19 1 1 0 6-5 12-4 5-9 7-11 7zm-2-209c-4-3-8-4-11-5l9-4c3 2 4 3 5 4-1 3-2 4-3 5zm-17-29c-8-12-10-18-8-22 16 9 30 18 39 27l-31-5zm8 245c-1-1-2-2-4-2 0-2 4-4 9-6l2 2-7 6zm16 41c-19 10-35 20-45 31-14 1-24 6-29 10 13-11 50-38 64-49 0-2 11-9 32-21 2 0 3 2 6 5l-28 24zm-58-18c-5 5-9 6-11 6 4-4 7-6 8-9l3 3zm-14 71c-12 9-20 11-23 8 8-9 13-15 17-19l6 11zm20-344c-3 2-16-1-40-8l-9 3-34-16c6-3 11-3 14-1 12-4 55 2 64 12 2 4 3 8 5 10zm69 53c0 2-12 6-38 15-5-2-12-6-19-11l-3 1c-4-3-8-6-13-6-27-14-49-25-64-30-28 1-50-1-67-3-9 4-15 7-21 6 8-6 37-20 45-26l22 14 49 8c24 21 48 31 73 31 8 3 15 6 19 4l17-3zm-74 171c-26-9-45-17-55-22-12-13-21-19-25-18l-33-39c-10-5-16-11-19-16-4-15-8-24-13-30-1-18-4-32-9-42 30-25 57-29 84-15 27 6 46 15 56 25 9 1 18 5 25 14 6 7 11 17 16 31-6 7-9 14-12 18 5 5 18 11 22 15 0 15 3 24 7 31-6 7-10 13-11 16 2 8 0 14-7 20-8 5-15 6-23 7 0 2-2 4-3 5zm-12-264c-4 4-16 4-35 1-19-2-32-4-37-1l-4-5c-3-8-8-15-11-18 7-4 13-5 19-1l2 6 10-2c17 6 30 9 38 9 9 7 15 10 18 11zm-61 392c10-6 15-10 17-10-4 10-8 15-11 18l-6-8zm19-131c-23 3-40 3-52 3-2-2-5-6-9-9 11-13 16-19 15-18l14 8 16 3c3 4 13 10 16 13zm24 52c-9 8-19 8-31-1-32-4-60-11-83-20h22c16-3 30 1 43 15 20 5 36 5 45 2l4 4zm-103-277c-12 8-13 7-17 4 6-7 15-15 28-26 3 4 3 8 0 13-2 3-5 6-11 9zm-12 197c7-8 6-13 3-17 11-3 19-2 23 5-3 7-8 13-14 18l-12-6zm3-46c2-3-5 0-23 14l-14-11c5-6 9-14 11-22l12-10 14 29zm-31-154l-1-3 20-17 2 2-18 21-3-3zm6 48c-2-2-4-5-6-5l13-11c2 2 4 5 6 5l-13 11zm21 153c-11 9-22 10-33 5 4-5 8-9 9-10 9 1 16 1 20 0l4 5zm12 35c-6 2 0 2-33 3-11-1-20-4-25-8 1-3 3-6 6-9 22 8 39 14 52 14zm-43-120c-21-9-37-16-47-18 12-6 27-17 44-31l5 6c-1 1-2 2-2 4l4 5 4 13c-1 11-4 20-8 21zm-18-96c1-2 2-3 3-4l2 2c-1 1-2 2-3 5l-2-3zm-63 113c-6-18-8-28-5-35-10-37-6-71 12-101 0-10 5-20 14-28 9-7 40-19 94-35 1 1 1 1 3 1 14-5 27-4 37 4h-17l-33 9c-17 4-29 8-34 13 0 2-1 4-3 6-6-1-16 5-31 21-13 15-21 26-21 32-6 5-10 9-12 8 0 23 2 38 4 49-9 18-9 36 2 57l-5 5-5-6zm61 10c-14 5-16 3-30-12 0-2 1-3 2-4 10 2 19 7 28 16zm-51 10c3-1 4-1 5-2l2 2-4 3-3-3zm-3-10l2-2c2 1 3 2 4 3l-3 3-3-4z"/><path d="m18521 5255c6-16 11-27 16-35 5-16 3-32-6-50l2-12c-3-2-7-3-12-4-12-16-22-25-30-26-7-10-47-23-52-32-5 2-26 1-28-3l-27 7 4 6 24 4c-2 1-6 2-11 2-5 0-7 2-8 4-6-2-12 0-19 5-9 18-9 35-2 49v7c13 19 22 34 28 44 2 0 2 0 3 0 12 16 27 29 49 39 20 5 32 9 36 8 17-9 29-12 33-13zm-383 221c10-4 21-13 35-23 16-14 28-23 35-27 1 1 1 1 2 2 12-9 65-39 160-93 3-2 10-9 19-17 7-7 13-12 18-15-1-5-5-12-10-22-6 0-13-1-21-4-8-11-12-22-11-31-13-24-19-38-17-42l-6-10c-2-1-3 0-4-2-2-2-2-8-1-14-2-3-4-7-7-14-6 1-11 1-13 0-5 4-13 19-17 22-8-6-15-7-21-4-6 3-9 11-12 24-30 18-45 26-46 24-6 2-15 4-22 4-7 3-10 10-11 20-21 13-35 18-42 15-45 25-84 49-117 71 0 6-10 13-29 25-18 11-29 16-34 14-4 2-5 4-6 6-7 5-14 9-17 13-6-4-11-4-16-2-5 4-10 11-14 22 16 18 28 31 36 39 2 0 3 0 4-1 5 6 8 10 10 14 2 8 4 14 7 18 2 4 6 8 9 8l10 23c23 6 39 9 50 10 4-2 8-8 12-19 1 0 10-4 25-9 12-6 19-10 20-11 0-2 17-14 52-38 4-1 8-2 9-2l3 4c-17 10-24 18-22 22zm-7 4c-1-1-2-4-4-5l-6 4c2 2 5 2 10 1zm387-261c-1-1-2-3-4-3l5-15c2 1 4 2 6 4-4 2-3 11-7 14zm-8 6l3-1 1 2-2 2-2-3zm-31-56l3-11c10-3 18-2 23 4l-5 3 2 4c1 0 3-1 5-1l1 3c0 2-1 3-2 4l-27-6zm-3 20c-1-1-2-4-4-5 5-5 13-6 23 1l-19 4zm27 19c-13 11-21 18-25 20-9 4-20-1-30-13 12-9 20-14 23-16 10 0 19 0 28-4 2 2 4 5 5 6-1 1-2 3-1 7zm-14-60c-8 5-22-5-42-28 17 2 30 11 42 28zm7 99c-34 7-64-7-90-45-1-1-3-4-3-6 15-7 24-9 28-9l5 6-15 9c1 4 2 8 4 12 9 15 24 24 45 25l1 2 23 2 2 4zm-54-61l5-4 1 4c-2 3-3 3-4 4l-2-4zm-9-42l3-2 2 2-4 2-1-2zm12 34c-13 3-22 3-28 1l-22 4c-1-1-2-4-6-7l-1-27 15-2 9 13c10-4 21 2 33 18zm-17-37c-17 3-30 2-38-2 4-5 9-8 14-9 9 4 15 6 19 5 2 2 4 5 5 6zm-119 135c-1-1-1-1-3-2l2-8c4-1 10 1 17 2l1 3-17 5zm17 15c-19 6-31 7-37-1 15-3 26-5 34-4l3 5zm-94 102c-3-4-7-11-12-17 11-9 19-13 24-13 12-9 17-13 13-11 6 0 17-5 33-15 2 1 4 2 5 3 0-2 3-4 7-6 0-4 8-9 23-14 16-7 26-9 31-8l2 4-26 16c-67 41-100 61-100 61zm66-153c-6 4-9 4-11 3 2-3 3-5 6-5l5 2zm-59 112c-2-1-2-1-3-2l21-13 1 1c-9 6-16 10-19 14zm15-48c-2 1-3 2-5 1 0-2 2-3 3-4l2 3zm-25-14c7-6 18-13 32-22 2 1 2 1 3 2-14 9-27 17-34 23l-1-3zm12 22c-1-1-2-2-3-2l7-4c0 1 1 3 0 3l-4 3zm-14 43l3-7c2 1 4 3 4 7-1 0-2 1-2 3l-5-3zm-24 19c-2-1-3-2-4-4 19-13 26-19 23-17 3 4-3 11-19 21zm-6 35h5c1 0 2 1 3 2l-5 3-3-5zm12-78c-4 1-15 8-35 18l-3-4c20-12 32-17 37-16l1 2zm-38 93c-3-1-5-2-5-3 4-3 10-7 17-9l3 4-15 8zm8-57c-2-1-7 0-12 1-1-1-1-1-3-2 1-1 3-1 2-3 4 0 8 1 11 1l2 3zm-1 22c-11 7-19 8-23 5l15-9c3 0 6 2 8 4zm32-126c-7 6-29 17-64 33l-2-4 33-20 31-12 2 3zm-61 96l18-11 2 2c-8 5-15 9-17 13l-3-4zm-17 47c0-2 3-2 7-3l2 3-7 4-2-4zm-16-11l-2-4c-4 2 6-2 30-11 3 2 3 4 5 3l-17 10-16 2zm21-93c-2-1-3-2-4-4l6-3 3 4-5 3zm-18 101c-4 2-8 1-11-3l5-3c3 2 5 4 6 6zm8-80c-8-5-19-2-39 9l-3-4c20-14 34-25 46-32l1 3-2 1c0 2 0 2 1 4-2 2-4 4-5 4l4 13-3 2zm-21 99c-8 4-26 8-52 10-1-2-1-2-3-2 5-5 8-9 9-11 16-3 39-9 46 3zm4-78c-10 6-31 17-63 32-1 0-1 0-2-2l-7 5-2-4c-2 0-3 1-5 0l-1-2c-3 1-4 2-6 1l-3-1 20-7c5-9 10-14 13-16 1 4 3 6 5 10 22-6 39-12 49-18 1 1 1 1 2 2zm-106 147l9-5c2 0 10-2 21-9 0-4 2-7 4-8 3-2 8 0 14 6 6-2 9-4 11-3l3 5-23 15-39-1zm20-40c-18 11-32 16-42 15-3-3-10-9-15-15 2-2 4-4 5-5 13 2 19 2 20 3 12-6 23-5 32 2zm-37-67c1-2 2-3 5-5l3 4-6 3-2-2zm19 45c-13 1-25-1-39-5-11 2-18 3-22 2 0-2 0-2 0-4 29-15 51-19 64-11-5 5-6 11-3 18zm458 468c1-13 25-35 26-48 10-7 17-17 20-34 7-12 13-22 15-30-3-32-3-55 0-68-6-26-16-56-32-91-11-11-21-20-28-29-2-1-2-1-3 0-16-17-31-25-47-22-9-5-37-3-47-11-12 1-21-2-27-8-9-2-15-4-20-7l-24 7-3-3c-48 24-77 34-84 31-3 3-10 7-21 11-12 3-18 8-21 13-9 8-14 12-17 14-5 11-10 21-15 26-9 38-11 64-6 73-4 16 16 68 15 82 8 18 11 28 11 31 11 18 17 29 24 34 24 22 42 37 56 44 9 3 14 8 17 11l30 12c25-11 53-8 78 5l18-8c2-3 1-8-3-15-3-7-9-16-18-28-2 0-2 0-3 0-6-18-8-29-9-32-2-1-6-6-10-16-5-10-7-16-6-18l-4-2c0-12 0-19 4-21-5-6-10-11-14-11-6-6-12-8-15-6-3 1-4 3-5 7-3 2-12 3-30 3-14-6-24-13-30-22-9 1-19-7-28-22 11-5 15-8 15-12-1-1-3-2-5-3 1-2 2-2 1-4l-3-6-3-3c4-6 7-12 7-19 14-9 25-14 32-18 0-3 1-9 5-16 8-1 15-2 19-4l29-9 9 1c20 2 40 6 59 12 13 6 25 11 33 16 1 6 2 11 4 14l3 7c-2 4 0 11 3 18-2 11-2 20-1 25-3 1-7 5-12 9-6 5-10 7-13 5-6 3-10 8-13 15 18 26 33 52 46 79 2 0 3 0 5-1 6 16 9 27 8 35 6 11 15 13 28 7zm41-92c-6 1-11 4-15 5 1-4 0-8-2-13 0-1-10-12-30-34l7-3c12 5 20 7 27 6 1 3 2 8 3 12 0 2 0 2-2 3l12 24zm2-74c-11 5-18 5-22 0l19-4 3 4zm-55 132c-7-11-14-18-18-25l3-5c16 8 25 14 26 19l-11 11zm38-180c-9-12-16-18-23-20 7-4 12-6 14-5l3-5c4 1 6 3 7 5 0 7 3 16 7 26 3 6 0 11-9 17l1-18zm-30 123c-15-8-28-16-37-20l19-15c3 7 22 21 27 31l-9 4zm-10-70c-3 1-7 0-12-5 0-2 2-2 3-3l-13-35c2-4 7-6 16-9 3 4 6 6 7 9-5 4-7 9-5 15 0 14 2 23 4 28zm23-106c-12 4-19 6-24 8-14-12-23-20-28-21 7-5 31-5 37-8 8 12 12 19 15 21zm-74 28c-13 6-27 2-42-13 11 1 21 2 28 0 7 5 12 10 14 13zm-62 231c-1-1-3-2-5-1l3-5c-5-9-16-22-31-34l15-7 21 44-3 3zm-32 21c-8 4-31-4-37-13 8-4 31 4 37 13zm-27-74c-9 4-15 4-20 1 0-2 1-2 2-3l16-1 2 3zm-24 57c-5 3-10 2-14-2 8-2 12-2 14 2zm140-303c0-2-1-3-2-2-5 0-8 2-9 2-5-3-15-3-30-1-15 2-26 2-31-2-18-4-40-2-66 8-1-2-4-2-7 0-1 2-1 4-1 5-14 4-22 4-27 5l57-30c18 3 33 3 43-3l1-4 15 8c13-1 54 10 65 6l3 6-11 2zm-147 252c0-2 0-2 2-1 1 2 1 2 1 4l-3-3zm-24 40l5 3-3 2-2-5zm5-36c2-2 6-4 11-7l3 4-12 6-2-3zm12-42c-3 1-5 0-7 0 2-3 3-4 5-4l2 4zm17-150c-13 6-20 8-23 6 9-5 17-8 21-12l2 6zm-36 16c0-2-1-3-3-4l7-4c0 2 0 4 1 5l-5 3zm-44 165c2-8-15-37-13-47 7 4 13 5 18 4 2 13 6 27 11 40 2 12 3 20 8 26l-4 2-20-25zm26-60c-9 2-19-1-32-11-1-5 3-10 11-14l21 25zm-8-52c-13 1-20-1-23-5 2-1 8-4 20-8 2 5 2 8 3 13zm-37-49c-3-2-4-5-6-5 14-20 24-35 29-46 7-4 11-6 14-9l5 10c-19 9-18 5-10 29-8 4-24 17-32 21zm-12 27l6-3 4 9-6 3-4-9zm759 345c8-15 16-24 22-32 8-15 9-30 3-50l4-11c-3-3-6-5-11-6-9-19-17-29-25-31-4-12-41-31-45-41-5 1-26-4-27-9l-28 3 3 7 23 8c-2 1-7 1-11-1-5 0-7 1-9 4-5-3-12-3-19 0-12 17-16 33-11 48l-2 8c10 21 16 37 20 47 2 1 2 1 3 1 9 18 22 34 41 48 19 8 30 14 34 14 19-6 31-7 35-7zm-417 148c10-2 23-9 39-16 18-11 31-17 38-20 2 1 2 1 3 2 13-6 71-27 174-63 4-1 12-6 21-13 8-5 15-9 21-12 0-5-3-12-6-23-6-1-12-3-20-7-6-13-7-24-5-33-9-26-12-41-9-44l-4-12c-2-1-3 0-4-2-1-3 0-8 2-14-1-3-3-7-5-15-5 0-10-1-12-2-6 2-16 16-21 18-7-7-14-10-20-7-6 2-10 9-16 21-33 12-49 17-50 16-6 1-15 0-22 0-7 1-11 7-15 17-23 9-38 11-43 7-49 17-92 33-128 49-2 6-12 11-33 19-20 8-31 11-37 8-4 1-5 3-6 5-9 4-16 6-19 9-6-4-11-6-16-4-6 3-12 8-18 19 12 20 22 35 29 44 1 1 3 1 4 1 4 6 6 11 7 15 1 8 2 15 3 19 2 5 5 8 8 9l5 25c23 10 38 16 49 18 3-1 8-6 15-15 1-1 10-3 26-5 13-4 20-6 21-7 1-2 20-11 58-29 4 0 8 0 10 0l1 4c-18 7-27 14-25 18zm-7 3c-1-1-2-4-4-5l-6 2c1 3 4 4 10 3zm427-187c-1-2-1-3-3-4l8-13c1 1 3 2 4 5-3 1-4 10-9 12zm-8 5l2-1 2 3-3 1-1-3zm-21-61l5-11c11 0 18 2 23 9l-7 2 2 4c1 0 3-1 4 0l1 3c0 2-1 3-3 3l-25-10zm-6 19c-1-2-2-4-4-5 7-5 14-4 23 4l-19 1zm23 23c-15 9-24 14-28 16-10 2-20-4-28-18 14-7 23-11 26-12 9 2 18 3 28 1 2 3 3 6 4 7-2 1-2 3-2 6zm-3-61c-9 3-20-9-36-35 16 5 27 16 36 35zm-11 98c-35 2-62-18-81-60-1-1-2-4-1-6 15-4 25-4 29-4l3 7-16 6c0 3 0 8 2 13 6 16 19 28 39 32l1 3 22 5 2 4zm-43-69l7-3v4c-2 2-4 3-5 3l-2-4zm-1-43l4-2 1 3-4 1-1-2zm6 36c-13 0-22-2-27-5h-23c0-1-1-4-4-8l3-26 15 1 7 14c10-2 20 5 29 24zm-10-40c-17 0-30-4-37-9 5-4 10-6 16-6 7 5 13 8 17 8 2 3 3 6 4 7zm-141 111c-1-1-1-1-3-2l3-8c4 0 10 3 16 6l1 3-17 1zm14 19c-20 2-32 0-37-8 15-1 27 0 35 2l2 6zm-112 83c-1-5-4-12-8-19 13-7 21-10 26-8 13-7 19-11 15-9 6 1 18-2 35-9 1 1 3 2 4 4 0-2 4-4 8-5 1-4 10-7 26-10 17-3 26-3 31-2l2 5-30 11c-72 28-109 42-109 42zm93-139c-6 3-9 2-11 1 2-2 4-5 7-4l4 3zm-78 100c-2-1-2-1-3-3l24-9v2c-10 3-17 6-21 10zm23-45c-2 1-3 2-5 1 1-2 3-3 4-4l1 3zm-22-18c8-5 20-10 36-16 2 1 2 1 2 3-16 6-29 11-37 16l-1-3zm8 24c-1-2-1-3-3-3l8-3c0 2 1 3 0 4l-5 2zm-21 40l4-7c2 1 3 4 3 7-1 1-3 1-3 3l-4-3zm-28 14c-1-1-2-3-2-4 20-10 28-15 25-14 2 5-5 11-23 18zm-12 33l5 1c1 0 2 1 2 3l-5 2-2-6zm26-74c-4 0-16 5-38 11l-1-4c21-8 33-12 38-10l1 3zm-54 85c-2-3-4-4-5-5 5-2 11-4 19-6l2 5-16 6zm18-56c-2-1-6-1-12-1 0-1 0-1-2-2 1 0 2-1 2-2 4 0 8 2 11 2l1 3zm-4 22c-13 5-21 4-24 1l16-7c3 1 5 3 8 6zm54-118c-8 4-32 12-69 21l-2-4 37-14 33-6 1 3zm-78 83l20-7 1 3c-9 3-16 6-19 9l-2-5zm-25 44c0-2 3-2 8-2l1 3-8 3-1-4zm-14-14l-2-4c-3 1 7-1 32-6 3 3 3 4 4 4l-18 7-16-1zm38-88c-2-1-3-3-3-4l6-2 2 4-5 2zm-36 96c-5 2-9 0-10-5l4-1c3 2 5 5 6 6zm22-77c-7-6-19-5-40 1l-2-4c22-10 38-18 50-23l2 3-3 1c-1 2-1 2 0 4-2 2-4 3-6 3l3 13-4 2zm-38 93c-9 4-27 4-54 1 0-2 0-2-2-3 5-4 10-7 10-9 17 0 40-2 46 11zm18-76c-11 5-34 11-68 21-2-1-2-1-2-2l-8 3-1-5c-2 1-3 1-5 0l-1-3c-2 1-3 2-5 1l-4-2 22-3c6-8 12-12 16-13 0 3 1 6 2 10 24-2 41-5 52-9 0 1 0 1 2 2zm-131 126l9-3c2 1 10-1 22-5 2-4 4-7 6-8 4-1 8 2 13 9 6-1 9-2 11-1l2 6-25 10-38-8zm27-35c-20 7-35 10-44 6-3-3-8-10-13-17 2-2 5-3 6-4 13 4 19 5 19 7 13-4 24-1 32 8zm-24-73c0-2 1-3 5-4l2 4-6 2-1-2zm10 48c-14-2-25-6-38-13-10 1-18 0-21-2-1-1-1-1 0-3 31-10 53-10 65 0-6 4-8 10-6 18z"/><path d="m18536 6930c5 4 12 6 19 4 11-2 40-29 49-31 1-3 2-5 3-6 10-2 18-5 21-9 23-6 34-15 33-26 22-6 37-10 49-12 1-2 11-6 32-12 22-6 33-7 36-6l23-5c27-22 41-35 42-38l26-10c15-18 19-43 11-78 6-11 8-23 5-34-2-12-10-23-22-33-2-11-5-17-7-16l-14-25c-1-1-3-1-4 0l-13-23-41-38c-9 0-15-3-18-11-19-13-33-23-44-29l-1-3 23-8c1-2 11-4 32-8 7 1 13 1 19 0 10 0 16-3 19-5 9-1 14 0 17-1 6-11 8-19 8-26 2 0 5-2 8-5l7 1c6 21 14 35 24 44l4-6c-9-44-13-43-13-50 1-2 1-2 2-2l-1-4c-2-2-2-2-3-1-1-8-1-13-1-18l-30-40-4-20c3-14 4-27 2-39 1-2 3-2 6-3-2-9-3-15-5-16-42 9-78 18-107 26-2 5-17 10-45 16l-1 3-2 1c-2-1-2-1-2-3l-11 2c-1 2-1 2 0 4-9 3-15 4-18 7-14 1-32 6-53 13-30 9-48 15-53 16-1 2-1 3 0 5-14 3-23 6-24 8-30 6-44 9-40 10-2-1-5-2-7-2-1 1-3 1-4 3-8 3-22 8-43 11-1-1-1-3-2-5l-9 2c-1 12-3 19-4 22l4 10c7 6 12 9 14 14l4-1c-1-5-9-16-9-18 8-3 17-5 25-5 14-1 21 2 22 11-14 7-20 14-20 22-1 1-4 0-7-3-12 3-17 7-16 15 2 6 21 26 23 36 2 2 3 1 3 3-3 17-1 39 5 66l20 6c1-2 1-4 2-4 25-2 39-2 40-1l13-2 2-4 13-3c-2-1 7-4 25-13l26-6c20-9 36-15 49-17 5 6 11 9 21 10l13 17c5 7 10 9 15 9 8 18 42 62 51 86-2 2-5 7-8 14 4 4 10 8 18 11-6 8-43 12-48 22-3-1-7-1-12-1-5-1-8 2-10 5l-157 39c-5 6-10 12-12 17l-7-5c-14 3-21 16-20 36l4 3c5 13 10 39 18 76 6 7 13 28 22 64zm307-164c-4 0-7-1-7-3l6-1 1 4zm0-22c12-9 17-23 14-41l-10-5c1-3 1-5 0-6l21-10c1 11 0 20-3 27 4 25-4 41-20 46l-2-11zm4-105c-1-2-1-3-3-5h3c-1 2-1 3 0 5zm-148 181c11-7 18-10 23-13l50-11-2 5c-13 6-20 11-21 13-2-1-6 0-11 1-1-2-3-3-7-2l-1 5-30 6-1-4zm93-100c-13 2-23 0-31-10 7-1 29 4 31 10zm49-96c-9 2-34-20-38-32l2-1v-3l9-2v4c2-1 2-1 3 1 3 4 6 8 11 10l-1-4c2-1 4 0 6 3l-4 1 8 16 2-1 2 8zm-161 120c-2-3-2-5-3-6l27-6c12-2 20-6 26-12l5-1c2 8-6 14-23 19 27-7 17-5-32 6zm37-35c-2-2-2-2-2-3 2-1 5-1 8-4l1 5-7 2zm-84 130c4-1 8-2 14-1v1l-12 6-2-6zm-3 10c-7-2-11-4-12-5l9-2c2 3 3 6 3 7zm-74 63c-2-5-4-9-4-11l28-15c24-10 34-14 30-13 1 1 2 3 2 4l-16 8c-13 18-27 27-40 27zm25-55l23-5c-1 3-8 6-23 8v-3zm142-285c3-2 5-2 6-3l16 10 2 11c-2 2-4 4-7 4l-17-22zm-129 271c-7-1-11-3-16-4 3-2 8-3 14-4l-1-6c1-1 2-1 4 0l1 5c-2 4-2 7-2 9zm23-100c-17 4-32 5-45 6v-3c29-6 45-11 48-17l8 3c3-3 4-7 5-9l25-2c9 0 16-3 22-9 19-6 29-7 32-4l-30 14 1 3c-16 2-30 5-44 8-10 6-17 9-22 10zm115-226c1 0 3 0 6 1l1 4-6 2-1-7zm14 36c-9 0-19-2-31-11-6 0-12-1-16 0l-25-25 7-2 1 5c10 3 22 8 35 18 7 2 17 5 28 10l1 5zm11-110c-7 0-10-1-10-3l9-2 1 5zm-235 370c4-3 8-3 12-4 2 4 3 9 4 13l-5 8 1 4c2 2 3 1 4 3 0 8 1 14 2 17 4 2 6 5 9 10-8 3-13 4-15 6l-12-57zm315-406c-7 1-11 2-15 1v-2l4-5c-2-8-6-15-12-22l-5 1c-1 2 0 4-2 4l-126 37-1-3c47-22 89-36 129-44 1-2 5-4 10-5l18 38zm-49-64c-2-1-2-1-3-1l-1-3 5-1-1 5zm-103 138c4-1 13-3 28-5l1 5-23 8-6-8zm77-137l7-2c0 2 0 2-1 4l-4 1-2-3zm-16 3l5-1c0 2 0 2-1 4h-2l-2-3zm-28 29c-1-2-2-3-2-5 1-1 4-2 5-2l3 2c-2 4-4 6-6 5zm-5 7c-1-1-4 0-8 0l-1-3c5-2 9-3 11-2l-2 5zm-106 139c6-6 11-12 14-21l10-2c1 1 2 4 2 6 3 11-5 17-25 21l-1-4zm69-131c3-2 7-3 11-4l-3-10c1-2 3-3 7-3l6 10c-11 5-18 8-21 9v-2zm-7-8l6-1 1 3-7 1v-3zm-11 11c2-2 6-2 12-1v1l-12 3v-3zm-68 132c3-1 9-7 13-8-4 7-9 11-13 11v-3zm44-111c7-5 15-7 22-6 0 1 0 3 2 4l-23 5-1-3zm0-19c6-3 10-4 13-3-1 2-5 2-12 4l-1-1zm-110 145l14-6c6-9 12-14 18-14 7 1 14 1 24 3v2l-54 23-2-8zm-35-140c5-4 23-10 52-16 3-6 20-11 48-15 10-5 17-9 21-10 1-1 3-3 6-4 2-1 5 0 10 1 8 0 13-1 14-6 67-23 116-36 150-45 2 1 2 2 3 7-12 3-20 6-21 8-7 0-13 1-22 3-24 5-57 17-97 34l-5 4c-2-1-4-2-7-2-4 1-10 6-15 12-19 4-62 23-82 27-14 3-26 2-33-1-9 3-17 5-21 6l-1-3zm78 22c-1-2-2-3-2-5l6-1c1 2 1 3 0 5l-4 1zm-59 73h2l1 3-2 1-1-4zm9-69c-6 1-12-1-15-8 14-4 21-6 26-5v3c-8 3-15 4-18 7 3 1 5 0 7 2v1zm-43 98c-5-4-11-25-23-29l-1-6 5-1 1 3c14 5 25 10 32 14 2 1 2 2 3 4l-11 2c1 8-1 12-6 13zm194 1056c9-1 14-5 16-9 1 0 1 0 2 1l7-6c-1-14-4-39-8-75l3-4c0-3-1-6-5-11 0-18 18-28 53-30v4c8 2 17 3 27 3 4 5 8 8 12 8 1-1 4-2 5-4 26 0 42-1 47 1 1-2 5 0 9 1 4 2 7 0 10-3 19 1 30 1 34 2 23-2 38-2 44-4 12-4 24-14 35-28 12-5 11-9 35-29 13-10 21-20 23-31 1-22 1-39 1-50 5-3 7-9 7-19l-3-1-2-63c-6-17-10-33-13-47-10-27-14-44-15-48 5 0 12-1 18-2 0-5 0-10-1-13l-33-4-50 1c-15 5-25 7-33 7-8-5-13-4-16-3l1 46c1 1 3 1 4 1 2 10 3 16 7 20 10 39 17 61 20 68 2 7 4 14 4 21l-9 10c0 8 0 14 2 16-16 6-29 10-41 8l-11-10c-4-18-7-29-8-30-5-27-20-92-20-119l-15-34c-7-17-15-27-23-31-2-11-8-17-16-19-9-12-18-18-25-17l-9 1c-1 1-1 1-1 3-8-2-12-2-12-2-11 1-19 1-25-1l-8 1c-1 1-1 1-1 3-7 1-12 3-13 5-24 5-37 7-38 8-4 8-13 16-27 27-15 12-22 21-25 28h-3l-7 26-4 1c-3 18-7 34-11 47 2 22 5 36 9 41-1 1-3 3-3 4l12 39c23 34 43 54 60 60 0 2 0 2-1 4l-29 19c-17 2-26 4-29 5-1 11-2 22-2 30 0 6 1 11 2 14-3 5-4 14-3 28 0 15 2 35 5 60-2 2-3 5-3 10 0 7 11 24 33 48 9-2 17-1 22 4 19 3 29 7 32 13zm304-189l-3-3h8v6l-5-3zm12-43c5 0 9 0 13 1 2 2 2 4 2 5h-14l-1-6zm-57-24c-1-3-1-6-1-8 11 0 25 3 41 9v3l-40-4zm38 45c-19-4-29-7-32-12l-28 1c-1-5-8-7-19-6-3-2-4-5-5-8 4-8 7-13 8-18h5c2 11 9 19 20 20 15 3 24 6 27 11l24 4v8zm-129 81c-45-4-74-11-88-19l-24-2c-1-2-1-2-1-4 17 0 29 1 35 4 65-1 104-2 120-3 0-2 0-2 1-4h4v3c9 2 20 2 32 0 19-2 30-4 31-4-4 10-11 16-25 19l1 4c-25 0-49 2-70 6-4-2-7-3-8-3-1 0-4 1-8 3zm174-170c-6 0-24-10-29-10l-1-5 9-5c2-8 8-13 15-14 0-21-9-33-29-36v-5l23-5c0-1 0-4-1-9h6c1 14 11 51 11 65 0 8-1 16-4 24zm-39 12c4 0-12-3-45-10-1-14-7-33-14-56l-4-8c35-1 56 2 61 10l10 2v5l-18 12c-12-2-21-2-28 2 2 15 5 25 10 29 17 2 27 6 28 14zm19-123c1-2 2-2 4-2 0 2 0 4 1 5h-5v-3zm-181 170c-1-2-1-3-1-5 2-1 4-1 5-1 0 1-1 3-4 6zm-156 176c4-2 8-2 10-4 4 5 6 10 7 17l-6 1-11-14zm292-361c0-1 0-1-2-3 14-2 21-2 25 0v3c-10 2-18 2-23 0zm20 33c-26 2-39 4-39 4-17 2-28-3-29-14 2-1 5-3 7-3 4 0 7 1 11 4 18 3 36 4 50 6v3zm-263 242l5-2v7h-5v-5zm-89 107l-5-13c6 0 14 5 24 14v3l-19-4zm284-393l-1-4c8-3 18-5 30-5 3 6 4 11 4 13h4v4l-37-8zm-94 171c-1-3-4-8-9-12-10-18-15-30-17-36 7 1 18 18 30 48h-4zm-164 177c-6-1-11-1-16-1v-1c6-2 12-2 15-2l1 4zm7-26v-7c9-8 14-13 18-17l-11 23-7 1zm179-200c-2-2-4-6-6-13-23-26-34-43-34-52 12 7 20 15 26 21 4 0 6 0 10 2 1 18 3 29 9 32 0 5 0 8-1 10h-4zm-221 227c-1 2-2 3-3 3-4 0-7-15-9-45l1-3 21-1c4 5 5 8 4 13-9 5-15 8-18 11 0 6 4 17 4 22zm-1-89c3-7 5-11 5-16 23-12 43-20 58-26 0 11 10 18 27 24 1 0 1 2 1 3l-18 1c-1-2-16-2-42 4-4 14-9 20-13 20-2 0-5 0-9-1-1 0-8 3-9 3v-12zm171-52c-20 0-37-4-54-13v-4c-10-1-18-12-25-35-9-11-16-22-21-30l-6-43c3-2 6-2 7-2 9-27 8-24 34-29 15 3 27 15 34 37 4 5 5 9 5 16 10 17 15 31 18 43 4 0 7 0 8 2 0 4 0 9-1 12h3c4 22 12 34 23 36v4c-2 2-7 2-13 1-1-5-5-8-14-8 0 3 0 8 2 13zm39-168c-16-7-26-16-27-26l9-8c1-11 1-19-1-23 12 3 18 21 19 57zm-125 165c-8 0-18-11-30-31-13-20-18-34-20-45 4-2 7-4 8-4l12 22h7c0 5-1 9-3 13 7 4 12 9 18 10 0 6 8 27 8 35zm63-140c0-8-4-14-11-17-1-8-1-12-1-17-9 0-16 0-20-1 0-2 0-2-1-3l20-15 8 6c2 3 2 8 2 14 4 5 6 16 7 33h-4zm16-74c-3-1-4-5-4-6l4-10h4c2 3 4 8 5 13-4 1-8 2-9 3zm18-33l1-2 1 5h-2v-3zm-162 210c-4-1-6-4-6-6h5c1 1 1 5 1 6zm92-163c2-2 5-4 6-4v4c-2 1-5 1-6 3v-3zm-48 34c6-5 11-7 14-7 0 2-5 6-14 14v-7zm15-31c18-1 29-3 31-3 0 1 0 1-1 3-13 3-23 5-30 5v-5zm95-53c-2 0-10-5-24-12-15-8-25-9-34-7l-1-7h19v5c26 1 39 7 40 21zm-132 122c-4-8-7-13-8-17 4-4 10-5 21-6-3 15-6 23-13 23zm-55 26c2-2 2-2 3-2 4 11 7 21 6 30h-3l-6-28zm87-131c13 2 23 2 28 0v5l-28 5v-10zm-85 125c-2-2-3-2-4-2-2-5-3-9-3-11 4 0 6 5 7 13zm42-103c9-8 16-12 20-12 1 8 3 14 3 18-8 1-13 1-17 3l-6-9zm-47 70c-1-3-1-7-1-8 5-14 7-24 7-32h6c0 3 0 5-1 7 2 1 3 9 3 20-6 8-11 11-14 13zm77-116c3-5 7-8 11-8 2 1 2 3 2 4-4 0-9 4-13 4z"/></g></g></g></svg>