<svg xmlns="http://www.w3.org/2000/svg" width="744.09" height="1052.36" viewBox="0 0 21000 29700" shape-rendering="geometricPrecision" image-rendering="optimizeQuality" fill-rule="evenodd" clip-rule="evenodd"><defs><clipPath id="0"><path d="m6485 1508c-1544-39-4017 1148-4023 3979-1 757 311 3273 385 4272 89 1198 155 2902 182 4116 12 1050 270 1658 766 1904 659 216 1344 279 2065 121 746-179 1116-737 1127-1865-28-1457-216-3980 76-5304 378-1715 856-1940 1040-4005 111-1243 70-3175-1618-3217z"/></clipPath><clipPath id="1"><path d="m14531 1496c1544-39 4017 1148 4023 3979 1 757-311 3273-385 4272-89 1198-155 2902-182 4116-12 1050-270 1658-766 1904-659 216-1344 279-2065 121-746-179-1116-737-1127-1865 28-1457 216-3980-76-5304-378-1715-856-1940-1040-4005-111-1243-70-3175 1618-3217z"/></clipPath></defs><text x="10046" y="19022" fill="#201e1e" font-family="&apos;Arial Black&apos;" stroke="#201e1e" font-weight="900" stroke-width="7.62" font-size="705.56">24</text><g fill="none" stroke-width="80"><g stroke="#322f30"><circle cx="10533" cy="1326" r="460"/><path d="m10533 515v1621"/><path d="m9723 1326h1621"/></g><g stroke="#373435"><circle cx="10498" cy="20686" r="460"/><path d="m10498 19875v1621"/><path d="m9688 20686h1620"/></g></g><g fill="#373435" font-family="&apos;Arial&apos;" font-weight="normal" font-size="423.33"><text x="2424" y="22378">DESC 1</text><text x="2389" y="22982">DESC 2</text><text x="2371" y="23582">DESC 3</text></g><g clip-path="url(#0)"><g><g fill="#201e1e" stroke="#201e1e"><g stroke-width="7.62"><path d="m4550 9276c44-36 7-76-79-93-142-27-296-3-412 61-166 92-221 246-181 386 82 288 465 432 832 395 761-77 1131-695 1223-1164 147-752-313-1404-962-1406-194-1-389 113-389 294 0 112 112 233 272 228 38-1 53-56 8-54-78 2-188-96-179-178 12-100 121-171 250-173 242-3 531 212 678 541 92 204 137 457 87 708-48 244-184 558-414 770-184 170-356 242-578 274-223 32-409-16-542-105-139-92-207-303-42-429 69-53 219-80 285-64 57 14 119 30 143 10z"/><path d="m3776 8298c-7 25-100 69-167 72-112 5-239-43-290-112-86-117-41-315 260-347 416-44 736 173 995 441 254 262 671 410 1155 328 432-74 877-279 876-744-1-212-201-522-416-521-56 0-81 29-84 54-4 33 25 56 60 62 37 6-2 40-61 31-93-15-137-124-60-183 201-154 693 131 721 597 27 452-524 837-1042 896-540 62-865-84-1109-245-327-216-527-644-987-609-178 14-194 112-187 152 18 93 99 123 176 124 49 1 96-28 128-30 22-1 36 17 32 33z"/><path d="m6306 13718c0-10 5-18 13-25 9-7 19-10 31-10 12 0 23 3 31 10 9 7 13 15 13 25 0 10-5 18-13 25-9 7-19 10-31 10-12 0-23-3-31-10-9-7-13-15-13-25zm388 99c34 0 67 6 98 17 31 11 58 26 82 46 23 19 42 41 55 67 14 25 20 53 20 81l-3 183c0 8-3 14-10 19-7 5-14 8-24 8-9 0-17-3-24-8-6-5-10-12-9-19l1-53c-24 21-53 40-86 55-34 15-70 23-108 23-36 0-69-5-100-16-31-10-58-25-82-43-23-18-42-40-55-66-13-25-20-53-19-83 0-29 7-56 21-82 14-26 32-48 56-67 24-19 51-34 83-45 32-11 67-16 104-16zm-198 211c0 21 4 41 14 60 10 19 23 35 41 49 17 14 38 25 61 33 23 8 48 12 75 12 26 0 50-4 73-12 23-8 43-19 61-33 18-14 32-30 43-49 11-19 17-39 19-62 0-21-4-42-14-61-10-19-23-36-41-50-17-14-38-25-61-33-24-8-49-12-75-12-27 0-52 4-75 12-23 8-44 19-62 33-18 14-32 31-42 50-10 19-16 39-16 61zm-683 269c7-5 14-8 23-8 9 0 17 2 23 7 18 14 38 26 61 34 23 8 48 12 75 12 27 0 52-4 75-12 24-8 45-19 62-33 18-14 32-31 42-49 10-19 16-39 16-60v-19c-24 21-53 38-86 51-34 12-70 19-108 19-36 0-69-5-100-16-31-10-58-25-82-43-23-18-42-40-55-66-13-25-20-53-19-83 0-29 7-56 21-81 14-25 32-47 56-66 24-19 51-34 83-45 32-11 67-17 104-19 37 1 72 7 105 20 33 13 61 30 85 52l1-38c0-8 3-14 10-19 7-5 14-8 24-8 9 0 17 3 24 8 6 5 10 12 9 19l-5 335c0 28-8 55-22 80-14 25-33 47-56 66-24 19-51 34-83 45-32 11-66 16-102 16-37 0-70-5-101-16-31-10-58-25-81-43l-1-1c-6-5-9-12-9-19 0-8 4-14 11-19zm-6-268c0 21 4 41 14 60 10 19 23 35 41 49 17 14 38 25 61 33 23 8 48 12 75 12 26 0 50-4 73-12 23-8 43-18 61-32 18-13 32-29 43-47 11-18 17-37 19-58v-13c-1-21-7-40-17-59-10-18-24-34-41-48-17-14-37-24-60-32-23-8-47-12-73-12-27 0-52 4-75 12-23 8-44 19-62 33-18 14-32 31-42 50-10 19-16 39-16 61zm-349-212c34 0 67 6 98 17 31 11 58 26 82 46 23 19 42 41 55 67 14 25 20 53 20 81 0 28-8 55-22 80-14 25-33 47-56 66-24 19-51 34-83 45-32 11-66 16-102 16-36 0-69-5-100-16-31-10-58-25-82-43-23-18-42-40-55-66-13-25-20-53-19-83 0-29 7-56 21-81 14-25 32-47 56-66 24-19 51-34 83-45 32-11 67-17 104-19zm-198 211c0 21 4 41 14 60 10 19 23 35 41 49 17 14 38 25 61 33 23 8 48 12 75 12 27 0 52-4 75-12 24-8 45-19 62-33 18-14 32-31 42-49 10-19 16-39 16-60 0-21-4-42-14-61-10-19-23-36-41-50-17-14-38-25-61-33-24-8-49-12-75-12-27 0-52 4-75 12-23 8-44 19-62 33-18 14-32 31-42 50-10 19-16 39-16 61zm-493-211c34 0 67 6 98 17 31 11 58 26 82 46 23 19 42 41 55 67 14 25 20 53 20 81 0 28-8 55-22 80-14 25-33 47-56 66-24 19-51 34-83 45-32 11-66 16-102 16-36 0-69-5-100-16-31-10-58-25-82-43-23-18-42-40-55-66-13-25-20-53-19-83 0-29 7-56 21-81 14-25 32-47 56-66 24-19 51-34 83-45 32-11 67-17 104-19zm-198 211c0 21 4 41 14 60 10 19 23 35 41 49 17 14 38 25 61 33 23 8 48 12 75 12 27 0 52-4 75-12 24-8 45-19 62-33 18-14 32-31 42-49 10-19 16-39 16-60 0-21-4-42-14-61-10-19-23-36-41-50-17-14-38-25-61-33-24-8-49-12-75-12-27 0-52 4-75 12-23 8-44 19-62 33-18 14-32 31-42 50-10 19-16 39-16 61zm-1428-49l-3 231c0 8-3 14-10 19-7 5-14 8-24 8-9 0-17-3-24-8-6-5-10-12-9-19l8-499c0-8 3-14 10-20 7-5 14-8 24-8h175c26 0 50 4 72 12 22 8 41 18 58 32 17 14 30 29 39 47 9 18 14 37 14 57 0 20-5 39-15 58-10 18-23 34-41 47-17 13-37 24-59 32-22 8-46 12-72 12h-142zm143-54c16 0 31-2 45-7 14-5 27-12 38-20 11-9 19-19 26-30 6-11 9-24 10-37 0-13-3-25-9-36-6-12-14-22-25-30-11-9-23-15-37-20-14-5-29-7-45-7h-142l-3 189h142zm490-25c-6-11-18-19-37-25-19-5-40-8-63-8-12 0-25 1-37 2-13 1-24 4-34 9-10 4-19 10-26 18-7 8-10 17-11 29 0 9 3 16 10 23 7 6 15 12 26 16 10 4 22 8 34 10 13 2 24 4 36 6 26 3 51 9 75 15 23 7 44 15 61 26 17 10 31 23 41 37 10 14 15 31 15 50 0 19-6 37-16 52-10 16-24 29-42 41-18 11-38 20-62 26-24 6-49 9-75 9-45 0-85-8-118-25-34-17-56-40-67-69-3-8-2-15 2-22 4-7 12-12 22-14 9-2 18-1 26 3 8 4 14 10 17 17 9 18 25 33 47 42 22 10 46 14 71 14 35 0 65-7 90-20 25-13 38-31 38-55 0-19-12-35-36-49-24-13-54-22-90-26-52-6-93-17-125-34-32-17-47-42-47-74 0-20 6-37 16-51 10-14 24-25 40-34 17-9 35-15 56-19 21-4 42-6 62-6 17 0 34 1 51 4 17 3 32 6 47 11 14 5 27 11 38 19 11 8 19 16 25 27 5 8 6 15 3 24-3 8-11 14-23 17-9 3-18 2-25-1-7-4-13-9-17-16zm144-58c0-8 3-14 10-19 7-5 14-8 24-8 9 0 17 3 24 8 6 5 10 12 9 19l-6 368c0 8-3 14-10 19-7 5-14 8-24 8-9 0-17-3-24-8-6-5-10-12-9-19l6-368zm-9-124c0-10 5-18 13-25 9-7 19-10 31-10 12 0 23 3 31 10 9 7 13 15 13 25 0 10-5 18-13 25-9 7-19 10-31 10-12 0-23-3-31-10-9-7-13-15-13-25zm520 197c-18-13-38-23-61-31-23-8-48-12-74-12-27 0-52 4-75 12-23 8-44 19-62 33-18 14-32 31-42 50-10 19-16 39-16 61 0 21 4 41 14 60 10 19 23 35 41 49 17 14 38 25 61 33 23 8 48 12 75 12 27 0 51-4 74-12 23-8 44-19 62-33 7-5 14-8 24-8 9 0 17 3 24 8 6 5 9 12 9 20 0 8-5 15-13 21-7 5-15 11-27 18-11 7-25 13-40 19-16 6-33 11-52 14-19 4-40 6-62 6-36 0-69-5-100-16-31-10-58-25-82-43-23-18-42-40-55-66-13-25-20-53-19-83 0-29 7-56 21-81 14-25 32-47 56-66 24-19 51-34 83-45 32-11 67-17 104-19 22 0 41 2 60 7 18 4 35 10 49 16 15 6 28 13 39 20 11 7 21 13 28 18 4 3 8 8 11 16 3 8 1 15-7 21-7 5-14 8-24 8-9 0-17-3-24-8zm649-205c0-8 3-14 10-19 7-5 14-8 24-8 9 0 17 3 24 8 6 5 10 12 9 19l-8 500c0 8-3 14-10 19-7 5-14 8-24 8-9 0-17-3-24-8-6-5-10-12-9-19l8-500zm1235 133c0-8 3-14 10-19 7-5 14-8 24-8 9 0 17 3 24 8 6 5 10 12 9 19l-6 368c0 8-3 14-10 19-7 5-14 8-24 8-9 0-17-3-24-8-6-5-10-12-9-19l6-368z" stroke-linejoin="round" stroke-linecap="round"/></g><path d="m5546 14597l67-51c6-5 12-9 16-13 8-7 14-14 15-25 1-50-105-103-334-128-591-65-1047 226-1595 229-202 1-437-12-627-71-44-14-28-61 20-46 182 58 414 68 608 67 547-3 1018-265 1596-200 84 10 366 39 364 151 0 21-15 37-32 49l-50 37h65c10 0 20 8 15 18-3 5-9 8-15 8h-101c-16 0-25-14-11-24z" stroke-linejoin="round" stroke-linecap="round" stroke-width="50"/><text x="10500" y="14850" font-family="&apos;Calibri&apos;" font-weight="bold" stroke-width="7.62" font-size="613.77" transform="matrix(.52861 0 0 .62353 178.79 5392.04)">Texto 1</text></g><g fill="#373435" font-family="&apos;Arial&apos;" font-size="506.47"><text x="10500" y="14850" transform="matrix(.66929 0 0 .62353-2637.4 2987.22)">NN 1</text><text x="10500" y="14850" transform="matrix(.66929 0 0 .62353-2637.45 3252.73)">NN 2</text></g></g></g><g clip-path="url(#1)"><g><g fill="#201e1e" stroke="#201e1e"><g stroke-width="7.62"><path d="m15550 9264c44-36 7-76-79-93-142-27-296-3-412 61-166 92-221 246-181 386 82 288 465 432 832 395 761-77 1131-695 1223-1164 147-752-313-1404-962-1406-194-1-389 113-389 294 0 112 112 233 272 228 38-1 53-56 8-54-78 2-188-96-179-178 12-100 121-171 250-173 242-3 531 212 678 541 92 204 137 457 87 708-48 244-184 558-414 770-184 170-356 242-578 274-223 32-409-16-542-105-139-92-207-303-42-429 69-53 219-80 285-64 57 14 119 30 143 10z"/><path d="m14776 8286c-7 25-100 69-167 72-112 5-239-43-290-112-86-117-41-315 260-347 416-44 736 173 995 441 254 262 671 410 1155 328 432-74 877-279 876-744-1-212-201-522-416-521-56 0-81 29-84 54-4 33 25 56 60 62 37 6-2 40-61 31-93-15-137-124-60-183 201-154 693 131 721 597 27 452-524 837-1042 896-540 62-865-84-1109-245-327-216-527-644-987-609-178 14-194 112-187 152 18 93 99 123 176 124 49 1 96-28 128-30 22-1 36 17 32 33z"/><path d="m17281 13707c0-10 5-19 13-26 9-7 19-11 31-11 12 0 23 4 31 11 9 7 13 16 13 26 0 10-5 19-13 26-9 7-19 11-31 11-12 0-23-4-31-11-9-7-13-16-13-26zm388 101c34 0 67 6 98 17 31 11 58 27 82 46 23 19 42 42 55 68 14 26 20 54 20 83l-3 186c0 8-3 14-10 19-7 5-14 8-24 8-9 0-17-3-24-8-6-5-10-12-9-19l1-54c-24 22-53 40-86 56-34 16-70 23-108 23-36 0-69-5-100-16-31-11-58-25-82-44-23-19-42-41-55-67-13-26-20-54-19-85 0-29 7-57 21-83 14-26 32-49 56-68 24-19 51-35 83-46 32-11 67-17 104-17zm-198 214c0 22 4 42 14 61 10 19 23 36 41 50 17 14 38 26 61 34 23 8 48 12 75 12 26 0 50-4 73-12 23-8 43-19 61-33 18-14 32-31 43-50 11-19 17-40 19-63 0-22-4-42-14-62-10-19-23-36-41-51-17-14-38-26-61-34-24-8-49-12-75-12-27 0-52 4-75 12-23 8-44 20-62 34-18 14-32 31-42 51-10 19-16 40-16 62zm-683 273c7-5 14-8 23-8 9 0 17 2 23 8 18 15 38 26 61 34 23 8 48 12 75 12 27 0 52-4 75-12 24-8 45-20 62-34 18-14 32-31 42-50 10-19 16-40 16-61v-19c-24 22-53 39-86 52-34 13-70 19-108 19-36 0-69-5-100-16-31-11-58-25-82-44-23-19-42-41-55-67-13-26-20-54-19-85 0-29 7-57 21-82 14-26 32-48 56-67 24-19 51-34 83-46 32-11 67-18 104-19 37 1 72 7 105 20 33 13 61 31 85 53l1-39c0-8 3-14 10-19 7-5 14-8 24-8 9 0 17 3 24 8 6 5 10 12 9 19l-5 340c0 29-8 56-22 82-14 26-33 48-56 67-24 19-51 35-83 46-32 11-66 17-102 17-37 0-70-5-101-16-31-11-58-25-81-44l-1-1c-6-5-9-12-9-19 0-8 4-14 11-19zm-6-273c0 22 4 42 14 61 10 19 23 36 41 50 17 14 38 26 61 34 23 8 48 12 75 12 26 0 50-4 73-12 23-8 43-19 61-32 18-14 32-29 43-48 11-18 17-38 19-59v-13c-1-21-7-41-17-60-10-19-24-35-41-49-17-14-37-25-60-33-23-8-47-12-73-12-27 0-52 4-75 12-23 8-44 20-62 34-18 14-32 31-42 51-10 19-16 40-16 62zm-349-215c34 0 67 6 98 17 31 11 58 27 82 46 23 19 42 42 55 68 14 26 20 54 20 83 0 29-8 56-22 82-14 26-33 48-56 67-24 19-51 35-83 46-32 11-66 17-102 17-36 0-69-5-100-16-31-11-58-25-82-44-23-19-42-41-55-67-13-26-20-54-19-85 0-29 7-57 21-82 14-26 32-48 56-67 24-19 51-34 83-46 32-11 67-18 104-19zm-198 214c0 22 4 42 14 61 10 19 23 36 41 50 17 14 38 26 61 34 23 8 48 12 75 12 27 0 52-4 75-12 24-8 45-20 62-34 18-14 32-31 42-50 10-19 16-40 16-61 0-22-4-42-14-62-10-19-23-36-41-51-17-14-38-26-61-34-24-8-49-12-75-12-27 0-52 4-75 12-23 8-44 20-62 34-18 14-32 31-42 51-10 19-16 40-16 62zm-493-214c34 0 67 6 98 17 31 11 58 27 82 46 23 19 42 42 55 68 14 26 20 54 20 83 0 29-8 56-22 82-14 26-33 48-56 67-24 19-51 35-83 46-32 11-66 17-102 17-36 0-69-5-100-16-31-11-58-25-82-44-23-19-42-41-55-67-13-26-20-54-19-85 0-29 7-57 21-82 14-26 32-48 56-67 24-19 51-34 83-46 32-11 67-18 104-19zm-198 214c0 22 4 42 14 61 10 19 23 36 41 50 17 14 38 26 61 34 23 8 48 12 75 12 27 0 52-4 75-12 24-8 45-20 62-34 18-14 32-31 42-50 10-19 16-40 16-61 0-22-4-42-14-62-10-19-23-36-41-51-17-14-38-26-61-34-24-8-49-12-75-12-27 0-52 4-75 12-23 8-44 20-62 34-18 14-32 31-42 51-10 19-16 40-16 62zm-1428-49l-3 235c0 8-3 14-10 19-7 5-14 8-24 8-9 0-17-3-24-8-6-5-10-12-9-19l8-508c0-8 3-14 10-20 7-6 14-8 24-8h175c26 0 50 4 72 12 22 8 41 19 58 33 17 14 30 30 39 48 9 18 14 38 14 58 0 21-5 40-15 59-10 19-23 35-41 48-17 14-37 24-59 32-22 8-46 12-72 12h-142zm143-55c16 0 31-3 45-8 14-5 27-12 38-21 11-9 19-19 26-30 6-11 9-24 10-37 0-13-3-25-9-37-6-12-14-22-25-31-11-9-23-16-37-21-14-5-29-8-45-8h-142l-3 192h142zm490-26c-6-11-18-20-37-25-19-6-40-8-63-8-12 0-25 1-37 2-13 1-24 4-34 9-10 4-19 10-26 18-7 8-10 18-11 30 0 9 3 16 10 23 7 6 15 12 26 16 10 4 22 8 34 10 13 2 24 4 36 6 26 4 51 9 75 15 23 7 44 15 61 26 17 11 31 23 41 38 10 15 15 32 15 51 0 19-6 37-16 53-10 16-24 30-42 41-18 11-38 20-62 26-24 6-49 9-75 9-45 0-85-9-118-26-34-17-56-41-67-71-3-8-2-15 2-22 4-7 12-12 22-14 9-2 18-1 26 3 8 4 14 10 17 18 9 19 25 33 47 43 22 10 46 15 71 15 35 0 65-7 90-20 25-13 38-32 38-56 0-19-12-36-36-49-24-14-54-22-90-26-52-6-93-18-125-35-32-17-47-42-47-75 0-21 6-38 16-52 10-14 24-26 40-34 17-9 35-15 56-19 21-4 42-6 62-6 17 0 34 1 51 4 17 3 32 6 47 11 14 5 27 11 38 19 11 8 19 17 25 27 5 8 6 16 3 24-3 9-11 14-23 17-9 3-18 3-25-1-7-4-13-9-17-16zm144-59c0-8 3-14 10-19 7-5 14-8 24-8 9 0 17 3 24 8 6 5 10 12 9 19l-6 374c0 8-3 14-10 19-7 5-14 8-24 8-9 0-17-3-24-8-6-5-10-12-9-19l6-374zm-9-126c0-10 5-19 13-26 9-7 19-11 31-11 12 0 23 4 31 11 9 7 13 16 13 26 0 10-5 19-13 26-9 7-19 11-31 11-12 0-23-4-31-11-9-7-13-16-13-26zm520 200c-18-13-38-23-61-31-23-8-48-12-74-12-27 0-52 4-75 12-23 8-44 20-62 34-18 14-32 31-42 51-10 19-16 40-16 62 0 22 4 42 14 61 10 19 23 36 41 50 17 14 38 26 61 34 23 8 48 12 75 12 27 0 51-4 74-12 23-8 44-19 62-33 7-5 14-8 24-8 9 0 17 3 24 8 6 5 9 12 9 20 0 8-5 15-13 22-7 5-15 11-27 18-11 7-25 13-40 19-16 6-33 11-52 15-19 4-40 6-62 6-36 0-69-5-100-16-31-11-58-25-82-44-23-19-42-41-55-67-13-26-20-54-19-85 0-29 7-57 21-82 14-26 32-48 56-67 24-19 51-34 83-46 32-11 67-18 104-19 22 0 41 2 60 7 18 4 35 10 49 16 15 6 28 13 39 20 11 7 21 13 28 19 4 3 8 8 11 16 3 8 1 15-7 22-7 5-14 8-24 8-9 0-17-3-24-8zm649-209c0-8 3-14 10-19 7-5 14-8 24-8 9 0 17 3 24 8 6 5 10 12 9 19l-8 509c0 8-3 14-10 19-7 5-14 8-24 8-9 0-17-3-24-8-6-5-10-12-9-19l8-509zm1235 135c0-8 3-14 10-19 7-5 14-8 24-8 9 0 17 3 24 8 6 5 10 12 9 19l-6 374c0 8-3 14-10 19-7 5-14 8-24 8-9 0-17-3-24-8-6-5-10-12-9-19l6-374z" stroke-linejoin="round" stroke-linecap="round"/></g><path d="m16520 14601l67-52c6-5 12-9 16-13 8-7 14-15 15-25 1-51-105-104-334-130-591-66-1047 230-1595 233-202 1-437-13-627-73-44-14-28-62 20-47 182 59 414 69 608 68 547-3 1018-270 1596-204 84 10 366 40 364 153 0 21-15 37-32 49l-50 38h65c10 0 20 9 15 18-3 5-9 8-15 8h-101c-16 0-25-15-11-25z" stroke-linejoin="round" stroke-linecap="round" stroke-width="50"/><text x="10500" y="14850" font-family="&apos;Calibri&apos;" font-weight="bold" stroke-width="7.62" font-size="613.77" transform="matrix(.52861 0 0 .62353 11176.7 5395.14)">Texto 1</text></g><g fill="#373435" font-family="&apos;Arial&apos;" font-size="506.47"><text x="10500" y="14850" transform="matrix(.66929 0 0 .62353 8630.14 3013.59)">NN 1</text><text x="10500" y="14850" transform="matrix(.66929 0 0 .62353 8630.09 3279.09)">NN 2</text></g></g></g></svg>