<svg xmlns="http://www.w3.org/2000/svg" width="744.09" height="1052.36" viewBox="0 0 21000 29700" shape-rendering="geometricPrecision" image-rendering="optimizeQuality" fill-rule="evenodd" clip-rule="evenodd"><defs><clipPath id="0"><path d="m6799 652c-1953-54-5081 1567-5088 5429-2 1032 394 4466 487 5829 113 1634 196 3960 230 5616 15 1432 342 2263 968 2598 834 294 1699 381 2611 166 943-244 1412-1006 1425-2545-35-1988-273-5430 96-7237 479-2340 1083-2646 1316-5465 140-1696 89-4331-2047-4390z"/></clipPath><clipPath id="1"><path d="m14217 640c1953-54 5081 1567 5088 5429 2 1032-394 4466-487 5829-113 1634-196 3960-230 5616-15 1432-342 2263-968 2598-834 294-1699 381-2611 166-943-244-1412-1006-1425-2545 35-1988 273-5430-96-7237-479-2340-1083-2646-1316-5465-140-1696-89-4331 2047-4390z"/></clipPath></defs><text x="9938" y="20932" fill="#201e1e" font-family="&apos;Arial Black&apos;" stroke="#201e1e" font-weight="900" stroke-width="7.62" font-size="705.56">32</text><g fill="none" stroke-width="80"><g stroke="#322f30"><circle cx="10533" cy="1326" r="460"/><path d="m10533 515v1621"/><path d="m9723 1326h1621"/></g><g stroke="#373435"><circle cx="10390" cy="22303" r="460"/><path d="m10390 21493v1621"/><path d="m9580 22303h1621"/></g></g><rect x="9843" y="22722" width="1347" height="637" rx="318" fill="#fff" stroke="#fff" stroke-width="20"/><g fill="#373435" font-family="&apos;Arial&apos;" font-weight="normal" font-size="423.33"><text x="665" y="24080">DESC 1</text><text x="630" y="24685">DESC 2</text><text x="612" y="25285">DESC 3</text></g><g clip-path="url(#0)"><g><g fill="#201e1e" stroke="#201e1e"><g stroke-width="7.62"><path d="m4351 11252c56-49 9-104-100-127-180-37-375-4-521 83-210 125-280 335-229 527 104 393 588 590 1052 539 962-105 1431-948 1547-1589 186-1027-396-1916-1217-1919-246-1-492 154-492 401 0 153 142 318 344 311 48-2 66-76 10-74-98 3-238-131-226-243 15-137 153-234 316-236 306-5 671 289 858 738 116 278 173 624 111 966-61 333-233 762-524 1051-233 232-450 331-731 374-282 43-517-22-686-143-175-126-261-414-53-585 87-72 277-110 361-88 73 19 150 41 180 14z"/><path d="m3372 9916c-9 34-126 95-211 99-142 6-302-59-366-153-109-160-52-430 329-473 526-60 931 237 1259 602 321 357 849 560 1460 447 546-100 1110-381 1108-1015-1-290-254-712-527-710-71 1-102 39-106 74-5 45 32 77 76 85 47 9-2 55-77 42-117-21-173-169-76-249 254-211 877 179 912 814 34 617-663 1141-1317 1222-683 84-1094-114-1403-335-414-295-667-878-1248-831-225 18-246 152-236 207 22 127 125 168 223 170 62 1 121-38 162-41 28-2 46 23 40 45z"/><path d="m6572 17313c0-13 6-25 17-34 11-9 24-14 40-14 15 0 29 5 39 14 11 9 16 21 16 34 0 13-6 25-17 34-11 9-24 14-40 14-15 0-29-5-39-14-11-9-16-21-16-34zm491 135c44 0 85 8 124 23 39 15 74 36 103 62 30 26 53 56 70 91 17 35 26 72 25 111l-3 250c0 10-4 19-13 26-8 7-18 11-30 11-12 0-22-4-30-11-8-7-12-16-12-26l1-72c-30 29-67 54-109 75-42 21-88 31-137 31-45 0-88-7-127-21-39-14-74-34-103-59-30-25-53-55-69-90-17-35-25-73-24-114 1-39 9-77 27-112 17-35 41-66 71-92 30-26 65-47 106-62 41-15 84-22 132-22zm-250 287c0 29 6 57 18 82 12 26 29 48 51 67 22 19 48 35 77 46 29 11 61 17 94 17 33 0 64-5 93-16 29-11 55-25 77-44 22-19 40-41 54-67 14-26 21-54 24-85 0-29-6-57-18-83-12-26-29-49-51-68-22-19-48-35-78-46-30-11-61-17-95-17-34 0-65 6-95 17-30 11-56 26-78 46-22 19-40 42-53 68-13 26-20 54-20 83zm-863 367c8-7 18-11 29-11 11 0 21 3 29 10 22 20 48 35 77 46 29 11 61 17 95 17 34 0 65-6 95-17 30-11 56-26 79-46 22-19 40-42 53-67 13-26 20-53 20-82v-26c-30 29-67 52-109 69-42 17-88 25-137 25-45 0-88-7-127-21-39-14-74-34-103-59-30-25-53-55-69-90-17-35-25-73-24-114 1-39 9-76 27-111 17-34 41-64 71-90 30-26 65-46 106-62 41-15 84-24 132-25 47 1 91 10 133 27 41 17 77 41 108 71l1-52c0-10 4-19 13-26 8-7 18-11 30-11 12 0 22 4 30 11 8 7 12 16 12 26l-6 457c-1 39-10 75-27 109-18 34-41 64-71 90-30 26-65 47-105 62-40 15-83 22-130 22-46 0-89-7-128-21-39-14-73-34-103-59l-1-1c-8-7-12-16-11-26 1-10 5-19 13-26zm-7-365c0 29 6 57 18 82 12 26 29 48 51 67 22 19 48 34 77 46 29 11 61 17 94 17 33 0 64-5 93-16 29-11 55-25 77-43 22-18 40-39 54-64 13-24 21-51 24-79v-18c-1-28-9-55-21-80-13-25-30-47-52-65-22-19-47-33-76-44-29-11-60-16-92-16-34 0-65 6-95 17-30 11-56 26-78 46-22 19-40 42-53 68-13 26-20 54-20 83zm-441-289c44 0 85 8 124 23 39 15 74 36 103 62 30 26 53 56 70 91 17 35 26 72 25 111-1 39-10 75-27 109-18 34-41 64-71 90-30 26-65 47-105 62-40 15-83 22-130 22-45 0-88-7-127-21-39-14-74-34-103-59-30-25-53-55-69-90-17-35-25-73-24-114 1-39 9-76 27-111 17-34 41-64 71-90 30-26 65-46 106-62 41-15 84-24 132-25zm-250 287c0 29 6 57 18 82 12 26 29 48 51 67 22 19 48 35 77 46 29 11 61 17 94 17 34 0 65-6 95-17 30-11 56-26 79-46 22-19 40-42 53-67 13-26 20-53 20-82 0-29-6-57-18-83-12-26-29-49-51-68-22-19-48-35-78-46-30-11-61-17-95-17-34 0-65 6-95 17-30 11-56 26-78 46-22 19-40 42-53 68-13 26-20 54-20 83zm-623-287c44 0 85 8 124 23 39 15 74 36 103 62 30 26 53 56 70 91 17 35 26 72 25 111-1 39-10 75-27 109-18 34-41 64-71 90-30 26-65 47-105 62-40 15-83 22-130 22-45 0-88-7-127-21-39-14-74-34-103-59-30-25-53-55-69-90-17-35-25-73-24-114 1-39 9-76 27-111 17-34 41-64 71-90 30-26 65-46 106-62 41-15 84-24 132-25zm-250 287c0 29 6 57 18 82 12 26 29 48 51 67 22 19 48 35 77 46 29 11 61 17 94 17 34 0 65-6 95-17 30-11 56-26 79-46 22-19 40-42 53-67 13-26 20-53 20-82 0-29-6-57-18-83-12-26-29-49-51-68-22-19-48-35-78-46-30-11-61-17-95-17-34 0-65 6-95 17-30 11-56 26-78 46-22 19-40 42-53 68-13 26-20 54-20 83zm-1806-66l-4 315c0 10-4 19-13 26-8 7-18 11-30 11-12 0-22-4-30-11-8-7-12-16-12-26l9-681c0-10 4-19 13-27 8-7 18-11 30-11h222c33 0 63 5 91 16 28 11 52 25 74 44 21 19 38 40 49 64 12 24 18 50 17 78 0 28-7 54-19 79-13 25-30 46-51 64-22 18-46 33-75 43-28 11-59 16-91 16h-180zm181-73c20 0 39-3 57-10 18-7 34-16 48-28 14-12 25-25 33-41 8-15 12-32 12-50 0-17-3-34-11-50-7-16-18-30-31-41-13-12-29-21-47-28-18-7-37-10-57-10h-180l-4 258h180zm619-34c-7-15-23-26-46-34-24-7-50-11-79-11-15 0-31 1-47 3-16 2-30 6-43 12-13 6-24 14-32 24-9 10-13 24-13 40 0 12 4 22 13 31 8 9 19 16 32 22 13 6 28 10 43 14 16 3 31 6 45 8 33 5 65 12 94 21 29 9 55 21 77 35 22 14 39 31 52 51 13 20 19 43 19 69 0 26-7 50-20 72-13 22-31 40-53 56-22 15-49 27-79 35-30 8-62 12-95 12-57 0-107-11-150-34-43-23-71-54-85-95-3-10-2-20 3-30 6-9 15-16 27-19 12-3 23-2 33 4 10 6 18 13 22 24 11 25 31 44 60 57 28 13 58 20 90 20 44 0 82-9 114-27 32-18 48-43 48-75 0-26-15-48-45-66-31-18-69-30-114-35-65-8-118-23-158-47-40-23-60-57-59-101 0-28 7-51 20-70 13-19 30-34 51-46 21-12 45-20 71-25 26-5 53-8 79-8 22 0 43 2 65 5 21 4 41 9 59 15 18 7 34 15 48 25 14 10 24 22 31 37 6 10 7 21 4 33-4 11-13 19-29 23-12 4-22 3-31-2-9-5-16-12-21-22zm182-79c0-10 4-19 13-26 8-7 18-11 30-11 12 0 22 4 30 11 8 7 12 16 12 26l-7 501c0 10-4 19-13 26-8 7-18 11-30 11-12 0-22-4-30-11-8-7-12-16-12-26l7-501zm-11-169c0-13 6-25 17-34 11-9 24-14 40-14 15 0 29 5 39 14 11 9 16 21 16 34 0 13-6 25-17 34-11 9-24 14-40 14-15 0-29-5-39-14-11-9-16-21-16-34zm657 268c-22-17-48-31-77-42-29-11-60-16-94-16-34 0-65 6-95 17-30 11-56 26-78 46-22 19-40 42-53 68-13 26-20 54-20 83 0 29 6 57 18 82 12 26 29 48 51 67 22 19 48 34 77 46 29 11 61 17 94 17 34 0 65-5 94-16 29-11 55-25 78-44 8-7 18-11 30-11 12 0 22 4 30 11 8 7 12 16 11 27-1 11-6 20-16 29-8 7-19 15-34 24-14 9-31 18-51 25-20 8-41 14-66 20-24 5-50 8-78 8-45 0-88-7-127-21-39-14-74-34-103-59-30-25-53-55-69-90-17-35-25-73-24-114 1-39 9-76 27-111 17-34 41-64 71-90 30-26 65-46 106-62 41-15 84-24 132-25 27 0 52 3 75 9 23 6 44 13 62 21 18 8 35 17 49 27 14 9 26 18 35 25 5 4 10 11 14 22 4 11 1 20-9 29-8 7-18 11-30 11-12 0-22-4-30-11zm821-280c0-10 4-19 13-26 8-7 18-11 30-11 12 0 22 4 30 11 8 7 12 16 12 26l-9 682c0 10-4 19-13 26-8 7-18 11-30 11-12 0-22-4-30-11-8-7-12-16-12-26l10-682zm1562 181c0-10 4-19 13-26 8-7 18-11 30-11 12 0 22 4 30 11 8 7 12 16 12 26l-7 501c0 10-4 19-13 26-8 7-18 11-30 11-12 0-22-4-30-11-8-7-12-16-12-26l7-501z" stroke-linejoin="round" stroke-linecap="round"/></g><path d="m5611 18512l85-69c8-6 15-12 20-17 10-9 18-19 18-34 1-69-133-140-422-174-747-88-1324 308-2018 312-255 1-553-17-793-97-56-19-35-84 25-63 230 79 523 93 768 92 692-4 1288-362 2019-273 107 13 463 53 460 205 0 29-20 50-41 66l-64 51h82c12 0 25 11 19 25-3 7-12 11-19 11h-127c-20 0-31-19-13-33z" stroke-linejoin="round" stroke-linecap="round" stroke-width="50"/><text x="10500" y="14850" font-family="&apos;Calibri&apos;" font-weight="bold" stroke-width="7.62" font-size="613.77" transform="matrix(.66861 0 0 .85077-1177.78 5951.89)">Texto 1</text></g><g fill="#373435" font-family="&apos;Arial&apos;" font-size="506.47"><text x="10500" y="14850" transform="matrix(.84655 0 0 .85077-4739.82 2670.68)">NN 1</text><text x="10500" y="14850" transform="matrix(.84655 0 0 .85077-4739.88 3032.94)">NN 2</text></g></g></g><g clip-path="url(#1)"><g><g fill="#201e1e" stroke="#201e1e"><g stroke-width="7.62"><path d="m15506 11240c56-49 9-104-100-127-180-37-375-4-521 83-210 125-280 335-229 527 104 393 588 590 1052 539 962-105 1431-948 1547-1589 186-1027-396-1916-1217-1919-246-1-492 154-492 401 0 153 142 318 344 311 48-2 66-76 10-74-98 3-238-131-226-243 15-137 153-234 316-236 306-5 671 289 858 738 116 278 173 624 111 966-61 333-233 762-524 1051-233 232-450 331-731 374-282 43-517-22-686-143-175-126-261-414-53-585 87-72 277-110 361-88 73 19 150 41 180 14z"/><path d="m14527 9904c-9 34-126 95-211 99-142 6-302-59-366-153-109-160-52-430 329-473 526-60 931 237 1259 602 321 357 849 560 1460 447 546-100 1110-381 1108-1015-1-290-254-712-527-710-71 1-102 39-106 74-5 45 32 77 76 85 47 9-2 55-77 42-117-21-173-169-76-249 254-211 877 179 912 814 34 617-663 1141-1317 1222-683 84-1094-114-1403-335-414-295-667-878-1248-831-225 18-246 152-236 207 22 127 125 168 223 170 62 1 121-38 162-41 28-2 46 23 40 45z"/><path d="m17695 17302c0-14 6-25 17-35 11-10 24-14 40-14 15 0 29 5 39 14 11 10 16 21 16 35 0 14-6 25-17 35-11 10-24 14-40 14-15 0-29-5-39-14-11-10-16-21-16-35zm491 137c44 0 85 8 124 23 39 16 74 37 103 63 30 26 53 57 70 93 17 35 26 73 25 113l-3 254c0 10-4 19-13 26-8 7-18 11-30 11-12 0-22-4-30-11-8-7-12-16-12-26l1-73c-30 30-67 55-109 76-42 21-88 32-137 32-45 0-88-7-127-22-39-14-74-35-103-60-30-26-53-56-69-91-17-35-25-74-24-116 1-40 9-78 27-114 17-36 41-67 71-93 30-26 65-47 106-63 41-15 84-23 132-23zm-250 292c0 30 6 58 18 84 12 26 29 49 51 69 22 20 48 35 77 46 29 11 61 17 94 17 33 0 64-5 93-16 29-11 55-26 77-45 22-19 40-42 54-68 14-26 21-55 24-86 0-30-6-58-18-84-12-26-29-50-51-69-22-20-48-35-78-46-30-11-61-17-95-17-34 0-65 6-95 17-30 11-56 27-78 46-22 20-40 43-53 69-13 26-20 55-20 84zm-863 373c8-7 18-11 29-11 11 0 21 3 29 10 22 20 48 36 77 47 29 11 61 17 95 17 34 0 65-6 95-17 30-11 56-27 79-46 22-20 40-43 53-69 13-26 20-54 20-84v-26c-30 30-67 53-109 70-42 17-88 26-137 26-45 0-88-7-127-22-39-14-74-35-103-60-30-26-53-56-69-91-17-35-25-74-24-116 1-40 9-78 27-113 17-35 41-65 71-91 30-26 65-47 106-63 41-16 84-24 132-26 47 1 91 10 133 28 41 18 77 42 108 72l1-53c0-10 4-19 13-26 8-7 18-11 30-11 12 0 22 4 30 11 8 7 12 16 12 26l-6 465c-1 39-10 76-27 111-18 35-41 66-71 92-30 26-65 47-105 63-40 15-83 23-130 23-46 0-89-7-128-22-39-14-73-35-103-60l-1-1c-8-7-12-16-11-26 1-10 5-19 13-26zm-7-372c0 30 6 58 18 84 12 26 29 49 51 69 22 20 48 35 77 46 29 11 61 17 94 17 33 0 64-5 93-16 29-11 55-25 77-44 22-18 40-40 54-65 13-25 21-52 24-81v-18c-1-29-9-56-21-81-13-25-30-47-52-66-22-19-47-34-76-45-29-11-60-16-92-16-34 0-65 6-95 17-30 11-56 27-78 46-22 20-40 43-53 69-13 26-20 55-20 84zm-441-294c44 0 85 8 124 23 39 16 74 37 103 63 30 26 53 57 70 93 17 35 26 73 25 113-1 39-10 76-27 111-18 35-41 66-71 92-30 26-65 47-105 63-40 15-83 23-130 23-45 0-88-7-127-22-39-14-74-35-103-60-30-26-53-56-69-91-17-35-25-74-24-116 1-40 9-78 27-113 17-35 41-65 71-91 30-26 65-47 106-63 41-16 84-24 132-26zm-250 292c0 30 6 58 18 84 12 26 29 49 51 69 22 20 48 35 77 46 29 11 61 17 94 17 34 0 65-6 95-17 30-11 56-27 79-46 22-20 40-43 53-69 13-26 20-54 20-84 0-30-6-58-18-84-12-26-29-50-51-69-22-20-48-35-78-46-30-11-61-17-95-17-34 0-65 6-95 17-30 11-56 27-78 46-22 20-40 43-53 69-13 26-20 55-20 84zm-623-292c44 0 85 8 124 23 39 16 74 37 103 63 30 26 53 57 70 93 17 35 26 73 25 113-1 39-10 76-27 111-18 35-41 66-71 92-30 26-65 47-105 63-40 15-83 23-130 23-45 0-88-7-127-22-39-14-74-35-103-60-30-26-53-56-69-91-17-35-25-74-24-116 1-40 9-78 27-113 17-35 41-65 71-91 30-26 65-47 106-63 41-16 84-24 132-26zm-250 292c0 30 6 58 18 84 12 26 29 49 51 69 22 20 48 35 77 46 29 11 61 17 94 17 34 0 65-6 95-17 30-11 56-27 79-46 22-20 40-43 53-69 13-26 20-54 20-84 0-30-6-58-18-84-12-26-29-50-51-69-22-20-48-35-78-46-30-11-61-17-95-17-34 0-65 6-95 17-30 11-56 27-78 46-22 20-40 43-53 69-13 26-20 55-20 84zm-1806-67l-4 320c0 10-4 19-13 26-8 7-18 11-30 11-12 0-22-4-30-11-8-7-12-16-12-26l9-693c0-10 4-19 13-27 8-8 18-11 30-11h222c33 0 63 5 91 16 28 11 52 26 74 45 21 19 38 41 49 66 12 25 18 51 17 79 0 28-7 55-19 80-13 25-30 47-51 66-22 18-46 33-75 44-28 11-59 16-91 16h-180zm181-75c20 0 39-3 57-10 18-7 34-16 48-28 14-12 25-26 33-42 8-16 12-33 12-51 0-18-3-35-11-51-7-16-18-30-31-42-13-12-29-21-47-28-18-7-37-10-57-10h-180l-4 262h180zm619-35c-7-15-23-27-46-34-24-8-50-11-79-11-15 0-31 1-47 3-16 2-30 6-43 12-13 6-24 14-32 25-9 10-13 24-13 41 0 12 4 22 12 31 9 9 19 16 32 22 13 6 28 11 43 14 16 3 31 6 45 8 33 5 65 12 94 21 29 9 55 21 77 36 22 14 39 32 52 52 13 20 19 43 19 70 0 26-7 51-20 73-13 22-31 41-53 57-22 16-49 28-79 36-30 8-62 13-95 13-57 0-107-12-150-35-43-23-71-55-85-96-3-10-2-20 3-30 6-10 15-16 27-19 12-3 23-2 33 4 10 6 18 14 22 24 11 26 31 45 60 58 28 13 58 20 90 20 44 0 82-9 114-27 32-18 48-44 48-76 0-26-15-49-45-67-31-18-69-30-114-36-65-8-118-24-158-48-40-24-60-58-59-103 0-28 7-52 20-71 13-19 30-35 51-47 21-12 45-21 71-26 26-5 53-8 79-8 22 0 43 2 65 5 21 4 41 9 59 16 18 7 34 15 48 26 14 10 24 23 31 37 6 10 7 21 4 33-4 12-13 19-29 23-12 4-22 3-31-2-9-5-16-13-21-22zm182-81c0-10 4-19 13-26 8-7 18-11 30-11 12 0 22 4 30 11 8 7 12 16 12 26l-7 510c0 10-4 19-13 26-8 7-18 11-30 11-12 0-22-4-30-11-8-7-12-16-12-26l7-510zm-11-172c0-14 6-25 17-35 11-10 24-14 40-14 15 0 29 5 39 14 11 10 16 21 16 35 0 14-6 25-17 35-11 10-24 14-40 14-15 0-29-5-39-14-11-10-16-21-16-35zm657 273c-22-18-48-32-77-43-29-11-60-16-94-16-34 0-65 6-95 17-30 11-56 27-78 46-22 20-40 43-53 69-13 26-20 55-20 84 0 30 6 58 18 84 12 26 29 49 51 69 22 20 48 35 77 46 29 11 61 17 94 17 34 0 65-5 94-16 29-11 55-26 78-45 8-7 18-11 30-11 12 0 22 4 30 11 8 7 12 16 11 27-1 11-6 21-16 29-8 7-19 15-34 25-14 9-31 18-51 26-20 8-41 15-66 20-24 5-50 8-78 8-45 0-88-7-127-22-39-14-74-35-103-60-30-26-53-56-69-91-17-35-25-74-24-116 1-40 9-78 27-113 17-35 41-65 71-91 30-26 65-47 106-63 41-16 84-24 132-26 27 0 52 3 75 9 23 6 44 13 62 22 18 8 35 17 49 27 14 10 26 18 35 25 5 4 10 11 14 22 4 11 1 21-9 29-8 7-18 11-30 11-12 0-22-4-30-11zm821-285c0-10 4-19 13-26 8-7 18-11 30-11 12 0 22 4 30 11 8 7 12 16 12 26l-10 694c0 10-4 19-13 26-8 7-18 11-30 11-12 0-22-4-30-11-8-7-12-16-12-26l10-694zm1562 184c0-10 4-19 13-26 8-7 18-11 30-11 12 0 22 4 30 11 8 7 12 16 12 26l-7 510c0 10-4 19-13 26-8 7-18 11-30 11-12 0-22-4-30-11-8-7-12-16-12-26l7-510z" stroke-linejoin="round" stroke-linecap="round"/></g><path d="m16733 18521l85-71c8-7 15-13 20-18 10-10 18-20 18-34 1-70-133-143-422-177-747-90-1324 314-2018 317-255 1-553-17-793-99-56-19-35-85 25-64 230 81 523 95 768 93 692-4 1288-368 2019-278 107 13 463 54 460 209 0 29-19 51-41 68l-64 52h82c13 0 25 12 19 25-3 7-11 11-19 11h-127c-20 0-32-20-13-34z" stroke-linejoin="round" stroke-linecap="round" stroke-width="50"/><text x="10500" y="14850" font-family="&apos;Calibri&apos;" font-weight="bold" stroke-width="7.62" font-size="613.77" transform="matrix(.66861 0 0 .85077 9974.81 5960.49)">Texto 1</text></g><g fill="#373435" font-family="&apos;Arial&apos;" font-size="506.47"><text x="10500" y="14850" transform="matrix(.84655 0 0 .85077 6753.77 2711.02)">NN 1</text><text x="10500" y="14850" transform="matrix(.84655 0 0 .85077 6753.71 3073.28)">NN 2</text></g></g></g></svg>