<svg xmlns="http://www.w3.org/2000/svg" width="744.09" height="1052.36" viewBox="0 0 21000 29700" shape-rendering="geometricPrecision" image-rendering="optimizeQuality" fill-rule="evenodd" clip-rule="evenodd"><defs><clipPath id="0"><path d="m14053 22068c1152 561 3343 453 4008-585 663-1034 513-3969 575-5407 157-3603 555-6335 658-9240 114-3226-2080-5360-4703-5960-3700-847-3481 4118-2967 6670 270 1371 803 2564 1142 3905 627 2472 59 6246 277 8819 112 889 408 1479 1009 1800z"/></clipPath><clipPath id="1"><path d="m6933 22080c-1152 561-3343 453-4008-585-663-1034-513-3969-575-5407-157-3603-555-6335-658-9240-114-3226 2080-5360 4703-5960 3700-847 3481 4118 2967 6670-270 1371-803 2564-1142 3905-627 2472-59 6246-277 8819-112 889-408 1479-1009 1800z"/></clipPath></defs><text x="9938" y="22454" fill="#201e1e" font-family="&apos;Arial Black&apos;" stroke="#201e1e" font-weight="900" stroke-width="7.62" font-size="705.56">34</text><g fill="none" stroke-width="80"><g stroke="#322f30"><circle cx="10533" cy="1326" r="460"/><path d="m10533 515v1621"/><path d="m9723 1326h1621"/></g><g stroke="#373435"><circle cx="10390" cy="23825" r="460"/><path d="m10390 23015v1621"/><path d="m9580 23825h1621"/></g></g><g fill="#373435" font-family="&apos;Arial&apos;" font-weight="normal" font-size="423.33"><text x="812" y="25179">DESC 1</text><text x="776" y="25783">DESC 2</text><text x="759" y="26383">DESC 3</text></g><g clip-path="url(#0)"><g fill="#201e1e" stroke="#201e1e"><text x="10500" y="14850" font-family="&apos;Adorable&apos;" stroke-linejoin="round" stroke-linecap="round" stroke-width="35.28" font-size="876.06" transform="matrix(1.02347.37865-.33353.93147 7636.47-615.14)">Texto 1</text><g stroke-width="7.62"><path d="m14548 18373c22 50 25 90 53 142 21 41 73 72 88 110 15 39 6 97-6 137-10 32-36 58-41 89-20 124 115 277 0 368 27 44 47 89 53 158 10 119 6 276 6 421 0 185-20 368 76 468 22 23 62 38 53 95 146 49 247 138 309 263-376 8-762 8-1144 11 60-132 178-211 315-273 4-85 108-109 123-216 31-232-45-613 6-836 7-30 20-54 35-79-27-41-44-68-47-110-6-81 53-165 53-237-1-83-85-140-58-252 9-37 55-72 76-110 26-48 38-98 53-147z"/><path d="m13333 19955c217-2 451 5 642-5-97-293-214-568-327-847 0-3-1-6-6-5-97 291-207 570-309 857zm1150-1509c-19 193-249 207-415 273-85 34-203 94-263 163-50 58-53 157-152 184 142 298 298 611 438 894-60 153-243 278-473 263-191-12-340-121-409-247 61-154 146-297 216-447 69-150 134-303 210-452-65-6-132-34-111-100 30-25 64 21 93 0 34-24 21-122 35-158 8-20 30-50 47-68 70-77 191-141 315-195 148-64 293-99 467-110z"/><path d="m15149 19945c210 0 445 0 636 0-100-290-207-575-327-847-92 292-211 560-309 847zm-537-1499c262-7 613 134 753 258 28 25 70 77 82 105 23 55 7 121 29 174 40 19 67-42 105-11 14 58-28 103-105 95 66 151 137 300 210 447 73 146 138 294 216 436-57 125-184 241-362 258-236 22-438-93-514-247 146-291 287-586 426-883-19-24-52-28-70-47-25-27-32-64-47-89-80-140-265-230-450-284-119-35-244-67-269-195-7-1-5-10-6-16z"/></g><text x="10500" y="14850" font-family="&apos;Minion Pro&apos;" stroke-linejoin="round" stroke-linecap="round" stroke-width="50" font-size="778.73" transform="matrix(1.39151 0 0 .99125-981.41 6996.07)">Texto 2</text><g stroke-width="7.62"><path d="m15371 7396c9-102 70-150 164-166 49 102-55 163-164 166zm246-187c23-67 184-103 246-62-101 1-145 61-246 62zm143-541c74 188 267 255 389 395-449 29-828 3-859 458 110-82 294-89 327-250 208-64 407-157 634-104 257 60 384 419 593 499 281-167 503-382 777-624 74-65 202-181 205-250 4-84-124-205-184-291-196-279-364-595-593-811-125 9-251 138-368 229-301 232-630 504-921 749z"/><path d="m15678 7750c-78 11-159 19-164 104 55-34 139-39 164-104z"/><path d="m14471 8768c-14 0-27 0-41 0-23-30-22-51 20-62-1 29 10 46 20 62zm123-83c62 70-76 63 0 0zm-245-146c6 34-19 36-20 62 58 73 15 118 41 187 161 18 255-32 368-62-40-43-69-96-143-104 51-57 79-17 164-21-54-101-284-100-409-62z"/><path d="m14185 10952c0-62-57 88-82 0 29-34 130-48 82 0zm-123 0c-66 18-64-32-82-62 51-4 64 32 82 62zm205-21c-14-56 42-40 61-62 4 45-17 66-61 62zm-619 52c-45-77-206-55-260-19-2-88-138-73-123-178 127-2 225-34 368-21-13 56 61 196 15 218zm701-177c-107 68-215 114-348 42 39-231-40-613 205-686 105 209 234 388 143 645zm184-1019c-138 9-352 193-389 0 151-20 298-43 389-125 0 42 0 83 0 125zm389-686c12-43-33-144 41-125-19 36-7 104-41 125zm-102 250c-51 97-188 159-286 229-120 86-204 169-368 146-140-20-409-236-491-457-97-262-71-497-41-749 31-258 54-373 246-416 181-41 442 60 696 0 125 296 469 826 245 1248zm982-1684c-24-10-46-22-61-42 27-3 113 33 61 42zm-205-21c112-32 142 119 246 83-2 137-135 140-205 208-187 493 6 1254-286 1622-55-76-183-78-205-187 205-513 225-1213 389-1768 26-1 28-27 61-21 0 21 0 42 0 62zm-307 4554c-33-199-127-536-266-769 158-47 374 14 428-140 5-26 4-23 1-68-29-102-45-218-41-354 359-79 487-392 696-624-194-288-424-539-614-832 134-405 55-1026 184-1435 44-73 151-83 184-166 1-211-47-300-20-457-70 36-163-44-143 104-50-12-44-80-123-62 4 129-75 173-123 250-36 372-153 663-184 1040-180-250-319-714-593-977-171-165-471-353-736-208 2 78-88 63-61 166-81 30-208 83-266 166-47 67-44 189-82 333-23 87-85 170-102 250-28 127-34 322-41 478-21 454 163 652 368 811-38 185-47 499 82 582-73 99-164 180-143 374-131 71-237 57-409 62-102-69-110-235-205-312-75-14-78 45-143 42 22 150 167 235 155 359-10 101 38 311 186 301 24 57 36 98 91 151 47 1 93 3 134 10-14 327-35 113 24 569 130-42 253-75 354-84-15 470-74 593 20 1410 30 325 12 927-64 1257-20 85-96 180-82 250 44 213 486 213 696 83 149 248 688 248 941 104 23-25 58-38 41-104 254 63 711 86 839-104-52-100-153-131-225-208-359-380-512-919-614-1560-90-390-83-255-143-686z"/><path d="m13980 8748c69-63 62 77 0 0zm-164-21c14 0 27 0 41 0 0 14 0 28 0 42-14 0-27 0-41 0 0-14 0-28 0-42zm286 62c-17-48-127-144-41-62 51-27-22-101-82-83 3-46 87-9 123-21-43-154-375-122-450-21 46 39 166-24 266 0-64 53-179 53-205 146 112 56 235 77 389 42z"/><path d="m14430 9309c-77 87-403 83-389-21 170 83 241 11 389 21zm-41-312c45 165-313 239-307 0-113 71 32 172 102 187-66 76-252 43-286 42 82 140 148 307 327 312 180 5 324-186 307-374-18 106-130 16-246 42 16-53 84-53 123-83 3-51 3-100-20-125z"/><path d="m12154 2526l325 803 936-246-806 433 427 803-605-653-787 525 596-659-701-621 812 424 544-741-314 807 890 363-921-143-236 867-5-857-896-58 2-17 841-141z"/><path d="m14626 3293c108-32 225 22 260 121 35 99-24 206-132 238-108 32-225-22-260-121-35-99 24-206 132-238z"/><path d="m11622 7531c13 3 26 5 39 7 132 24 267 47 402 38l164-28 157-56 114-65 71-86-2 5 26-83 4 36-72-132-88-94-97-47-106-23-167 38 31-23-77 122c10 121 40 203 120 305 184 233 468 404 778 458 137 24 486 42 549-118l21-84c0-1 0-2 1-3 8-26 38-41 66-34 27 7 44 33 37 58 0 0 0 0 0 0 0 1 0 2-1 3-1 2-1 3-2 5-21 64-28 139-85 179-217 154-607 123-843 31-189-74-356-190-505-320-122-106-262-334-242-496 4-36 70-166 120-179 69-18 138-47 209-41 261 21 331 161 448 349 17 27-11 96-22 118-135 262-540 316-819 294-68-5-138-14-208-27-7-32-13-65-20-97l-3-14z" fill-rule="nonzero"/><path d="m12154 9082l325 803 936-246-806 433 427 803-605-653-22 15c23 70 45 140 68 210l73-270 921 144-890-363 314-807-545 741-67-35-63-190-67-584z"/><path d="m13542 6316l366 261 365 261-463-14-463-14 384-238 383-239-157 400-158 400-128-408z"/><path d="m14626 9848c108-32 225 22 260 121 35 99-24 206-132 238-108 32-225-22-260-121-35-99 24-206 132-238z"/><path d="m15935 6596l52 193 52 192-167 127-166 126-53-192-52-193 167-126z"/><path d="m16677 9082l324 803 937-246-806 433 427 803-605-653-788 525 596-660-700-621 811 424 545-740-314 807 889 363-920-144-236 867-5-856-972-63 919-154z"/><path d="m18044 6809c64-19 133 13 153 72 21 59-14 122-78 141-64 19-133-13-153-72-21-59 14-122 78-141z"/><path d="m13071 14475c156 6 352-17 397-133l21-84c0-1 0-2 1-3 8-26 38-41 66-34 27 7 44 33 37 58 0 0 0 0 0 0 0 1 0 2-1 3-1 2-1 3-2 5-21 64-28 139-85 179-113 80-273 111-434 108 0-33 0-67-1-100z" fill-rule="nonzero"/><path d="m15935 13152l52 192 52 193-167 126-166 127-53-193-52-192 167-127z"/><path d="m15938 14825l325 804 936-247-806 433 427 803-604-653-788 526 596-660-701-621 812 424 544-741-314 807 890 364-921-144-235 867-6-857-971-62 918-154z"/><path d="m17549 12793c170-80 379-18 466 138 87 156 20 348-151 428-170 80-379 18-466-138-87-156-20-348 151-428z"/><path d="m15701 4415l209 516 601-158-517 278 274 516-388-420-507 338 383-424-450-399 522 273 349-476-201 518 571 234-591-93-152 557-3-550-624-40 590-99z"/><path d="m13898 1566l52 193 52 193-167 126-166 126-53-192-52-193 167-126z"/><path d="m17301 3054l-1121 455 111 488 614-972-401-336 125 1118 540 55-818-837-472 247 1198 236z"/><path d="m15405 1630l52 193 53 193-167 126-167 126-52-192-53-193 167-126z"/><path d="m18174 4995c64-19 133 13 153 72 21 59-14 122-78 141-64 19-133-13-153-72-21-59 14-122 78-141z"/></g><g font-family="&apos;Arial&apos;" stroke-width="7.62" font-size="626.61"><text x="10500" y="14850" transform="matrix(.97518 0 0 .99125 3349.44 885.73)">NN 1</text><text x="10500" y="14850" transform="matrix(.97518 0 0 .99125 3330.17 1435.03)">NN 2</text></g></g></g><g clip-path="url(#1)"><g fill="#201e1e" stroke="#201e1e"><g stroke-linejoin="round" stroke-linecap="round"><g transform="matrix(1.09028 0 0 .99125-8907.77 15678.5)" font-family="&apos;Adorable&apos;" stroke-width="35.28" font-size="989.76"><text x="10827" y="4992"><tspan rotate="293">F</tspan></text><text x="11074" y="4428"><tspan rotate="299">o</tspan></text><text x="11294" y="4022"><tspan rotate="304">r</tspan></text><text x="11483" y="3705"><tspan rotate="312">m</tspan></text><text x="12005" y="3141"><tspan rotate="318">a</tspan></text><text x="12390" y="2795"><tspan rotate="324">t</tspan></text><text x="12587" y="2636"><tspan rotate="328">u</tspan></text><text x="13031" y="2369"><tspan rotate="334">r</tspan></text><text x="13358" y="2201"><tspan rotate="338">a</tspan></text><text x="13832" y="2013"><tspan rotate="341"/></text><text x="14087" y="1914"><tspan rotate="347">d</tspan></text><text x="14591" y="1795"><tspan rotate="350">e</tspan></text><text x="14917" y="1736"><tspan rotate="350"/></text></g><text x="10500" y="14850" font-family="&apos;Minion Pro&apos;" stroke-width="50" font-size="778.73" transform="matrix(1.39151 0 0 .99125-11335.2 6924.12)">Texto 2</text></g><g stroke-width="7.62"><path d="m6373 18385c22 50 25 90 53 142 21 41 73 72 88 110 15 39 6 97-6 137-10 32-36 58-41 89-20 124 115 277 0 368 27 44 47 89 53 158 10 119 6 276 6 421 0 185-20 368 76 468 22 23 62 38 53 95 146 49 247 138 309 263-376 8-762 8-1144 11 60-132 178-211 315-273 4-85 108-109 123-216 31-232-45-613 6-836 7-30 20-54 35-79-27-41-44-68-47-110-6-81 53-165 53-237-1-83-85-140-58-252 9-37 55-72 76-110 26-48 38-98 53-147z"/><path d="m5158 19967c217-2 451 5 642-5-97-293-214-568-327-847 0-3-1-6-6-5-97 291-207 570-309 857zm1150-1509c-19 193-249 207-415 273-85 34-203 94-263 163-50 58-53 157-152 184 142 298 298 611 438 894-60 153-243 278-473 263-191-12-340-121-409-247 61-154 146-297 216-447 69-150 134-303 210-452-65-6-132-34-111-100 30-25 64 21 93 0 34-24 21-122 35-158 8-20 30-50 47-68 70-77 191-141 315-195 148-64 293-99 467-110z"/><path d="m6974 19957c210 0 445 0 636 0-100-290-207-575-327-847-92 292-211 560-309 847zm-537-1499c262-7 613 134 753 258 28 25 70 77 82 105 23 55 7 121 29 174 40 19 67-42 105-11 14 58-28 103-105 95 66 151 137 300 210 447 73 146 138 294 216 436-57 125-184 241-362 258-236 22-438-93-514-247 146-291 287-586 426-883-19-24-52-28-70-47-25-27-32-64-47-89-80-140-265-230-450-284-119-35-244-67-269-195-7-1-5-10-6-16z"/></g><g stroke-width="7.62"><path d="m5527 7408c-9-102-70-150-164-166-49 102 55 163 164 166zm-246-187c-23-67-184-103-246-62 101 1 145 61 246 62zm-143-541c-74 188-267 255-389 395 449 29 828 3 859 458-110-82-294-89-327-250-208-64-407-157-634-104-257 60-384 419-593 499-281-167-503-382-777-624-74-65-202-181-205-250-4-84 124-205 184-291 196-279 364-595 593-811 125 9 251 138 368 229 301 232 630 504 921 749z"/><path d="m5220 7762c78 11 159 19 164 104-55-34-139-39-164-104z"/><path d="m6428 8780c14 0 27 0 41 0 23-30 22-51-20-62 1 29-10 46-20 62zm-123-83c-62 70 76 63 0 0zm245-146c-6 34 19 36 20 62-58 73-15 118-41 187-161 18-255-32-368-62 40-43 69-96 143-104-51-57-79-17-164-21 54-101 284-100 409-62z"/><path d="m6714 10964c0-62 57 88 82 0-29-34-130-48-82 0zm123 0c66 18 64-32 82-62-51-4-64 32-82 62zm-205-21c14-56-42-40-61-62-4 45 17 66 61 62zm619 52c45-77 206-55 260-19 2-88 138-73 123-178-127-2-225-34-368-21 13 56-61 196-15 218zm-701-177c107 68 215 114 348 42-39-231 40-613-205-686-105 209-234 388-143 645zm-184-1019c138 9 352 193 389 0-151-20-298-43-389-125 0 42 0 83 0 125zm-389-686c-12-43 33-144-41-125 19 36 7 104 41 125zm102 250c51 97 188 159 286 229 120 86 204 169 368 146 140-20 409-236 491-457 97-262 71-497 41-749-31-258-54-373-246-416-181-41-442 60-696 0-125 296-469 826-245 1248zm-982-1684c24-10 46-22 61-42-27-3-113 33-61 42zm205-21c-112-32-142 119-246 83 2 137 135 140 205 208 187 493-6 1254 286 1622 55-76 183-78 205-187-205-513-225-1213-389-1768-26-1-28-27-61-21 0 21 0 42 0 62zm307 4554c33-199 127-536 266-769-158-47-374 14-428-140-5-26-4-23-1-68 29-102 45-218 41-354-359-79-487-392-696-624 194-288 424-539 614-832-134-405-55-1026-184-1435-44-73-151-83-184-166-1-211 47-300 20-457 70 36 163-44 143 104 50-12 44-80 123-62-4 129 75 173 123 250 36 372 153 663 184 1040 180-250 319-714 593-977 171-165 471-353 736-208-2 78 88 63 61 166 81 30 208 83 266 166 47 67 44 189 82 333 23 87 85 170 102 250 28 127 34 322 41 478 21 454-163 652-368 811 38 185 47 499-82 582 73 99 164 180 143 374 131 71 237 57 409 62 102-69 110-235 205-312 75-14 78 45 143 42-22 150-167 235-155 359 10 101-38 311-186 301-24 57-36 98-91 151-47 1-93 3-134 10 14 327 35 113-24 569-130-42-253-75-354-84 15 470 74 593-20 1410-30 325-12 927 64 1257 20 85 96 180 82 250-44 213-486 213-696 83-149 248-688 248-941 104-23-25-58-38-41-104-254 63-711 86-839-104 52-100 153-131 225-208 359-380 512-919 614-1560 90-390 83-255 143-686z"/><path d="m6919 8760c-69-63-62 77 0 0zm164-21c-14 0-27 0-41 0 0 14 0 28 0 42 14 0 27 0 41 0 0-14 0-28 0-42zm-286 62c17-48 127-144 41-62-51-27 22-101 82-83-3-46-87-9-123-21 43-154 375-122 450-21-46 39-166-24-266 0 64 53 179 53 205 146-112 56-235 77-389 42z"/><path d="m6468 9321c77 87 403 83 389-21-170 83-241 11-389 21zm41-312c-45 165 313 239 307 0 113 71-32 172-102 187 66 76 252 43 286 42-82 140-148 307-327 312-180 5-324-186-307-374 18 106 130 16 246 42-16-53-84-53-123-83-3-51-3-100 20-125z"/><path d="m3773 14279l325 803 936-246-806 433 427 803-604-653-788 525 596-660-701-620 812 424 544-741-314 807 890 363-921-144-235 868-6-857-971-63 918-153z"/><path d="m5407 3294l129 151 129 152-212 25-212 25 83-177z"/><path d="m7780 3165l53 193 52 193-167 126-167 127-52-193-52-193 166-126z"/><path d="m3602 9757c170-80 379-18 466 138 87 156 20 348-151 428-170 80-379 18-466-138-87-156-20-348 151-428z"/><path d="m4925 6650l-1120 455 110 488 615-972-402-336 125 1118 540 55-817-837-472 247 1197 236z"/><path d="m5407 9849l129 152 129 151-212 25-212 26 83-177z"/><path d="m6275 5429l325 804 936-247-806 433 427 803-605-653-788 526 596-660-700-621 811 424 545-741-314 807 889 364-920-144-236 867-5-857-972-62 919-154z"/><path d="m7780 9721l53 193 52 192-167 127-167 126-52-193-52-192 166-127z"/><path d="m8446 6545l306 90 307 89 44 293 44 292-306-89-307-90-44-292z"/><path d="m8759 5933c82-3 169-12 249 10 45 12 85 35 128 52 50 20 106 31 150 61 39 26 64 66 94 100 49 63 127 146 147 221 12 43 3 89 0 134-7 56-13 110-15 164-18 132-38 261-58 386-44-107-54-221-53-350l14-156c5-63 21-139-12-198-47-83-140-207-234-248-71-28-159-72-236-81-54-6-113 0-168 2-6 0-11 0-17-2-28-8-45-35-37-61 7-21 27-35 49-35z" fill-rule="nonzero"/><path d="m3925 12963l209 516 601-158-517 278 274 516-388-420-507 338 383-424-450-399 522 273 349-476-201 518 571 234-591-93-152 557-3-550-624-40 590-99z"/><path d="m3925 4675c108-32 225 22 260 121 35 99-24 206-132 238-108 32-225-22-260-121-35-99 24-206 132-238z"/><path d="m3228 11794l366 261 366 261-463-14-463-14 383-239 384-238-158 400-157 400-129-409z"/><path d="m7619 1775c108-32 225 22 260 121 35 99-24 206-132 238-108 32-225-22-260-121-35-99 24-206 132-238z"/><path d="m4531 3137l-1120 455 110 488 615-972-402-335 126 1118 540 55-818-837-472 247 1198 236z"/><path d="m2419 5853l52 192 53 193-167 127-167 126-52-193-53-192 167-127z"/><path d="m5272 1978l129 151 130 152-213 25-212 25 83-176z"/><g font-family="&apos;Arial&apos;" font-size="626.61"><text x="10500" y="14850" transform="matrix(.97518 0 0 .99125-4775.11 1032.3)">NN 1</text><text x="10500" y="14850" transform="matrix(.97518 0 0 .99125-4794.38 1581.6)">NN 2</text></g></g></g></g></svg>