<svg xmlns="http://www.w3.org/2000/svg" width="744.09" height="1052.36" viewBox="0 0 21000 29700" shape-rendering="geometricPrecision" image-rendering="optimizeQuality" fill-rule="evenodd" clip-rule="evenodd"><defs><clipPath id="0"><path d="m13886 25508c1304 659 3784 532 4536-687 750-1215 580-4662 651-6352 178-4232 629-7441 745-10854 130-3790-2354-6295-5323-7001-4189-995-3941 4837-3359 7834 305 1610 908 3012 1293 4586 710 2904 67 7337 313 10359 127 1045 461 1738 1142 2114z"/></clipPath><clipPath id="1"><path d="m7100 25520c-1304 659-3784 532-4536-687-750-1215-580-4662-651-6352-178-4232-629-7441-745-10854-130-3790 2354-6295 5323-7001 4189-995 3941 4837 3359 7834-305 1610-908 3012-1293 4586-710 2904-67 7337-313 10359-127 1045-461 1738-1142 2114z"/></clipPath></defs><text x="10081" y="24148" fill="#201e1e" font-family="&apos;Arial Black&apos;" stroke="#201e1e" font-weight="900" stroke-width="7.62" font-size="705.56">40</text><g fill="none" stroke="#373435" stroke-width="80"><circle cx="10533" cy="1008" r="460"/><path d="m10533 198v1621"/><path d="m9723 1008h1621"/><circle cx="10533" cy="25519" r="460"/><path d="m10533 24708v1621"/><path d="m9723 25519h1621"/></g><rect x="9843" y="22866" width="1347" height="637" rx="318" fill="#fff" stroke="#fff" stroke-width="20"/><g fill="#373435" font-family="&apos;Arial&apos;" font-weight="normal" font-size="423.33"><text x="665" y="27229">DESC 1</text><text x="630" y="27833">DESC 2</text><text x="612" y="28433">DESC 3</text></g><g clip-path="url(#0)"><g fill="#201e1e" stroke="#201e1e"><text x="10500" y="14850" font-family="&apos;Adorable&apos;" stroke-linejoin="round" stroke-linecap="round" stroke-width="35.28" font-size="876.06" transform="matrix(1.15852.44477-.37754 1.09413 6622.72-1135.69)">Texto 1</text><g stroke-width="7.62"><path d="m14446 21168c25 59 29 106 59 167 24 48 82 84 99 130 17 46 7 114-7 161-11 38-41 69-46 105-23 146 131 326 0 432 31 51 53 105 59 185 12 140 7 324 7 494 0 217-23 432 86 550 25 27 70 45 59 111 165 58 280 163 350 309-426 10-863 9-1295 12 68-154 202-248 357-321 5-99 123-128 139-253 35-273-51-720 7-982 8-35 22-63 40-93-30-48-50-80-53-130-6-95 60-194 59-278-1-97-96-164-66-296 10-44 62-85 86-130 29-56 43-115 59-173z"/><path d="m13071 23027c245-2 510 6 727-6-109-345-243-667-370-994 0-4-1-7-7-6-110 342-235 670-350 1007zm1302-1773c-21 226-282 243-469 321-96 40-229 110-297 191-57 68-60 185-172 216 161 350 337 718 496 1050-67 180-275 326-535 309-216-14-385-142-463-290 69-181 166-348 245-525 79-176 152-356 238-531-73-7-150-40-126-117 34-30 73 25 106 0 38-29 23-144 40-185 9-24 34-59 53-80 79-90 216-165 357-229 168-75 331-116 529-130z"/><path d="m15127 23015c238 0 504-1 720 0-113-341-234-675-370-994-105 343-239 658-350 994zm-608-1760c296-8 694 158 852 303 32 29 79 90 93 124 26 65 8 142 33 204 45 23 76-49 119-12 16 68-31 121-119 111 75 177 155 353 238 525 82 172 156 345 245 513-65 147-209 283-410 303-267 26-495-109-582-290 166-341 325-689 482-1038-22-28-59-33-79-56-28-32-36-75-53-105-91-165-300-270-509-334-135-41-276-78-304-229-8-1-6-11-7-19z"/></g><text x="10500" y="14850" font-family="&apos;Minion Pro&apos;" stroke-linejoin="round" stroke-linecap="round" stroke-width="50" font-size="778.73" transform="matrix(1.57513 0 0 1.16435-3132.36 7804.64)">Texto 2</text><g stroke-width="7.62"><path d="m15378 8274c10-119 80-177 185-195 56 120-62 191-185 195zm278-220c26-79 209-121 278-73-114 2-164 72-278 73zm162-635c84 221 302 300 440 464-508 34-937 3-973 537 125-96 333-105 371-293 236-75 461-184 718-122 291 71 435 492 672 586 318-196 569-449 880-733 84-76 228-213 232-293 4-99-140-241-208-342-221-328-412-699-672-953-141 11-284 162-417 269-341 272-713 592-1042 879z"/><path d="m15726 8690c-89 12-180 22-185 122 63-40 157-46 185-122z"/><path d="m14359 9887c-15 0-31 0-46 0-26-35-25-60 23-73-1 34 11 54 23 73zm139-98c70 82-86 74 0 0zm-278-171c7 39-22 42-23 73 66 86 17 138 46 220 182 21 289-37 417-73-45-50-79-113-162-122 58-67 89-20 185-24-61-118-321-118-463-73z"/><path d="m14035 12451c0-73-64 103-93 0 33-40 147-56 93 0zm-139 0c-74 21-72-38-93-73 58-4 73 38 93 73zm232-24c-16-66 48-47 69-73 4 53-19 78-69 73zm-701 61c-51-90-233-64-294-22-3-103-156-86-140-209 144-3 255-41 417-24-14 66 69 230 17 256zm794-207c-121 80-244 134-394 49 44-272-45-721 232-806 119 246 265 456 162 757zm208-1197c-156 11-398 226-440 0 170-24 338-51 440-147 0 49 0 98 0 147zm440-806c14-50-37-170 46-147-21 43-8 122-46 147zm-116 293c-58 114-213 186-324 269-136 101-231 198-417 171-159-24-463-278-556-537-109-307-81-584-46-879 35-303 61-438 278-489 204-48 500 71 787 0 141 348 531 970 278 1466zm1112-1979c-27-12-53-26-69-49 31-4 128 38 69 49zm-232-24c127-38 160 140 278 98-2 161-153 164-232 244-212 579 7 1473-324 1905-62-89-207-91-232-220 232-602 255-1425 440-2076 30-1 32-31 69-24 0 24 0 49 0 73zm-347 5349c-37-233-144-629-301-904 179-55 424 16 485-164 6-31 4-27 1-80-33-120-50-256-46-415 406-92 551-461 787-733-220-338-481-633-695-977 152-475 62-1205 208-1685 50-86 171-97 208-195 1-247-53-353-23-537-79 42-184-52-162 122-57-14-49-95-139-73 4 151-85 203-139 293-41 437-173 778-208 1221-204-294-362-839-672-1148-194-193-533-414-834-244 2 92-100 74-69 195-92 36-236 97-301 195-53 79-49 222-93 391-26 103-96 200-116 293-31 149-38 378-46 562-24 533 184 765 417 953-42 217-53 587 93 684-83 116-186 211-162 440-148 84-269 67-463 73-116-82-125-276-232-366-85-16-89 53-162 49 25 176 189 276 176 421-11 118 43 365 211 354 27 66 41 115 103 177 53 1 105 3 152 11-16 385-40 133 28 668 147-49 286-88 400-99-17 552-84 697 23 1657 34 382 14 1089-73 1477-22 99-109 211-93 293 50 250 550 250 787 98 169 291 778 292 1065 122 26-29 66-44 46-122 288 74 805 101 949-122-59-118-173-154-255-244-407-446-580-1080-695-1832-102-459-94-299-162-806z"/><path d="m13804 9862c78-74 70 90 0 0zm-185-24c15 0 31 0 46 0 0 16 0 33 0 49-15 0-31 0-46 0 0-16 0-33 0-49zm324 73c-20-56-143-169-46-73 58-32-25-118-93-98 3-54 98-10 139-24-49-181-424-143-509-24 53 46 188-28 301 0-72 62-203 63-232 171 127 66 266 91 440 49z"/><path d="m14313 10522c-87 102-457 98-440-24 192 97 273 13 440 24zm-46-366c51 193-354 281-347 0-128 83 36 201 116 220-75 89-285 50-324 49 92 165 168 360 371 366 203 6 367-219 347-440-20 124-148 18-278 49 19-62 95-62 139-98 3-60 4-118-23-147z"/><path d="m11737 2554l367 944 1060-290-913 509 484 943-685-767-891 617 674-775-793-729 919 498 616-870-355 948 1007 427-1042-169-267 1018-6-1006-1015-68 3-21 952-165z"/><path d="m14534 3454c123-38 254 26 294 143 40 117-27 242-150 280-122 38-254-26-294-143-40-117 27-242 150-280z"/><path d="m11134 8433c15 3 30 6 44 9 150 28 302 55 455 45l186-33 178-65 129-76 81-101-2 6 29-97 4 42-81-155-99-110-110-55-120-27-189 44 35-27-87 143c11 142 45 239 136 359 208 274 530 475 880 538 155 28 550 50 621-139l23-99c0-1 1-2 1-3 9-31 43-48 75-39 31 9 49 39 42 68 0 0 0 0 0 0 0 1-1 2-1 3-1 2-1 4-2 6-24 75-32 163-97 211-246 181-687 145-954 36-214-87-403-223-572-375-139-125-296-393-274-582 5-42 79-194 136-210 78-22 156-55 236-49 296 25 375 189 507 410 19 32-12 113-25 139-153 308-611 371-927 345-77-6-156-17-235-31-8-38-15-76-22-114l-3-16z" fill-rule="nonzero"/><path d="m11737 10254l368 944 1060-289-912 509 483 944-684-767-25 18c26 82 51 164 76 247l83-318 1042 169-1007-427 356-948-616 870-75-41-71-224-76-686z"/><path d="m13307 7006l414 307 414 306-524-16-524-17 434-280 434-280-178 470-178 470-146-480z"/><path d="m14534 11155c123-38 254 26 294 143 40 117-27 242-150 280-122 38-254-26-294-143-40-117 27-242 150-280z"/><path d="m16016 7335l59 226 59 226-189 149-188 148-60-226-59-226 189-149z"/><path d="m16856 10254l368 944 1059-289-912 508 483 944-684-767-892 617 675-775-793-730 918 499 617-871-356 948 1007 427-1042-169-267 1019-6-1007-1100-73 1040-181z"/><path d="m18403 7585c72-22 150 15 174 84 24 69-16 143-89 165-72 22-150-15-174-84-24-69 16-143 89-165z"/><path d="m12775 16589c177 6 398-20 450-156l23-99c0-1 1-2 1-3 9-31 43-48 75-39 31 9 49 39 42 68 0 0 0 0 0 0 0 1-1 2-1 3-1 2-1 4-2 6-24 75-32 163-97 211-128 95-309 130-491 127 0-39 0-78-1-117z" fill-rule="nonzero"/><path d="m16016 15035l59 226 59 227-189 148-188 149-60-226-59-227 189-148z"/><path d="m16020 17001l368 944 1059-290-912 509 483 943-684-767-892 617 675-775-793-729 918 498 617-870-356 948 1007 427-1042-169-266 1018-7-1006-1099-73 1039-181z"/><path d="m17843 14614c193-94 429-21 528 163 99 184 22 409-171 503-193 94-429 21-528-163-99-184-22-409 171-503z"/><path d="m15752 4773l236 606 681-186-586 327 310 606-439-493-573 397 433-498-509-469 590 320 396-559-229 609 647 274-669-108-172 654-4-646-706-47 668-117z"/><path d="m13710 1427l59 226 60 226-189 149-189 148-59-226-60-226 189-149z"/><path d="m17562 3174l-1268 534 125 574 696-1142-455-394 142 1313 611 64-925-983-535 290 1356 278z"/><path d="m15417 1502l59 226 59 226-189 149-189 148-59-226-59-226 189-149z"/><path d="m18551 5454c72-22 150 15 174 84 24 69-16 143-89 165-72 22-150-15-174-84-24-69 16-143 89-165z"/></g><g font-family="&apos;Arial&apos;" stroke-width="7.62" font-size="626.61"><text x="10500" y="14850" transform="matrix(1.10386 0 0 1.16435 1769.98 627.27)">NN 1</text><text x="10500" y="14850" transform="matrix(1.10386 0 0 1.16435 1748.16 1272.49)">NN 2</text></g></g></g><g clip-path="url(#1)"><g fill="#201e1e" stroke="#201e1e"><g stroke-linejoin="round" stroke-linecap="round"><g transform="matrix(1.23415 0 0 1.16435-10831 18001.2)" font-family="&apos;Adorable&apos;" stroke-width="35.28" font-size="989.76"><text x="10827" y="4992"><tspan rotate="293">F</tspan></text><text x="11074" y="4428"><tspan rotate="299">o</tspan></text><text x="11294" y="4022"><tspan rotate="304">r</tspan></text><text x="11483" y="3705"><tspan rotate="312">m</tspan></text><text x="12005" y="3141"><tspan rotate="318">a</tspan></text><text x="12390" y="2795"><tspan rotate="324">t</tspan></text><text x="12587" y="2636"><tspan rotate="328">u</tspan></text><text x="13031" y="2369"><tspan rotate="334">r</tspan></text><text x="13358" y="2201"><tspan rotate="338">a</tspan></text><text x="13832" y="2013"><tspan rotate="341"/></text><text x="14087" y="1914"><tspan rotate="347">d</tspan></text><text x="14591" y="1795"><tspan rotate="350">e</tspan></text><text x="14917" y="1736"><tspan rotate="350"/></text></g><text x="10500" y="14850" font-family="&apos;Minion Pro&apos;" stroke-width="50" font-size="778.73" transform="matrix(1.57513 0 0 1.16435-13578.8 7718.03)">Texto 2</text></g><g stroke-width="7.62"><path d="m6466 21180c25 59 29 106 59 167 24 48 82 84 99 130 17 46 7 114-7 161-11 38-41 69-46 105-23 146 131 326 0 432 31 51 53 105 59 185 12 140 7 324 7 494 0 217-23 432 86 550 25 27 70 45 59 111 165 58 280 163 350 309-426 10-863 9-1295 12 68-154 202-248 357-321 5-99 123-128 139-253 35-273-51-720 7-982 8-35 22-63 40-93-30-48-50-80-53-130-6-95 60-194 59-278-1-97-96-164-66-296 10-44 62-85 86-130 29-56 43-115 59-173z"/><path d="m5091 23039c245-2 510 6 727-6-109-345-243-667-370-994 0-4-1-7-7-6-110 342-235 670-350 1007zm1302-1773c-21 226-282 243-469 321-96 40-229 110-297 191-57 68-60 185-172 216 161 350 337 718 496 1050-67 180-275 326-535 309-216-14-385-142-463-290 69-181 166-348 245-525 79-176 152-356 238-531-73-7-150-40-126-117 34-30 73 25 106 0 38-29 23-144 40-185 9-24 34-59 53-80 79-90 216-165 357-229 168-75 331-116 529-130z"/><path d="m7147 23027c238 0 504-1 720 0-113-341-234-675-370-994-105 343-239 658-350 994zm-608-1760c296-8 694 158 852 303 32 29 79 90 93 124 26 65 8 142 33 204 45 23 76-49 119-12 16 68-31 121-119 111 75 177 155 353 238 525 82 172 156 345 245 513-65 147-209 283-410 303-267 26-495-109-582-290 166-341 325-689 482-1038-22-28-59-33-79-56-28-32-36-75-53-105-91-165-300-270-509-334-135-41-276-78-304-229-8-1-6-11-7-19z"/></g><g stroke-width="7.62"><path d="m5509 8286c-10-119-80-177-185-195-56 120 62 191 185 195zm-278-220c-26-79-209-121-278-73 114 2 164 72 278 73zm-162-635c-84 221-302 300-440 464 508 34 937 3 973 537-125-96-333-105-371-293-236-75-461-184-718-122-291 71-435 492-672 586-318-196-569-449-880-733-84-76-228-213-232-293-4-99 140-241 208-342 221-328 412-699 672-953 141 11 284 162 417 269 341 272 713 592 1042 879z"/><path d="m5162 8702c89 12 180 22 185 122-63-40-157-46-185-122z"/><path d="m6528 9899c15 0 31 0 46 0 26-35 25-60-23-73 1 34-11 54-23 73zm-139-98c-70 82 86 74 0 0zm278-171c-7 39 22 42 23 73-66 86-17 138-46 220-182 21-289-37-417-73 45-50 79-113 162-122-58-67-89-20-185-24 61-118 321-118 463-73z"/><path d="m6852 12463c0-73 64 103 93 0-33-40-147-56-93 0zm139 0c74 21 72-38 93-73-58-4-73 38-93 73zm-232-24c16-66-48-47-69-73-4 53 19 78 69 73zm701 61c51-90 233-64 294-22 3-103 156-86 140-209-144-3-255-41-417-24 14 66-69 230-17 256zm-794-207c121 80 244 134 394 49-44-272 45-721-232-806-119 246-265 456-162 757zm-208-1197c156 11 398 226 440 0-170-24-338-51-440-147 0 49 0 98 0 147zm-440-806c-14-50 37-170-46-147 21 43 8 122 46 147zm116 293c58 114 213 186 324 269 136 101 231 198 417 171 159-24 463-278 556-537 109-307 81-584 46-879-35-303-61-438-278-489-204-48-500 71-787 0-141 348-531 970-278 1466zm-1112-1979c27-12 53-26 69-49-31-4-128 38-69 49zm232-24c-127-38-160 140-278 98 2 161 153 164 232 244 212 579-7 1473 324 1905 62-89 207-91 232-220-232-602-255-1425-440-2076-30-1-32-31-69-24 0 24 0 49 0 73zm347 5349c37-233 144-629 301-904-179-55-424 16-485-164-6-31-4-27-1-80 33-120 50-256 46-415-406-92-551-461-787-733 220-338 481-633 695-977-152-475-62-1205-208-1685-50-86-171-97-208-195-1-247 53-353 23-537 79 42 184-52 162 122 57-14 49-95 139-73-4 151 85 203 139 293 41 437 173 778 208 1221 204-294 362-839 672-1148 194-193 533-414 834-244-2 92 100 74 69 195 92 36 236 97 301 195 53 79 49 222 93 391 26 103 96 200 116 293 31 149 38 378 46 562 24 533-184 765-417 953 42 217 53 587-93 684 83 116 186 211 162 440 148 84 269 67 463 73 116-82 125-276 232-366 85-16 89 53 162 49-25 176-189 276-176 421 11 118-43 365-211 354-27 66-41 115-103 177-53 1-105 3-152 11 16 385 40 133-28 668-147-49-286-88-400-99 17 552 84 697-23 1657-34 382-14 1089 73 1477 22 99 109 211 93 293-50 250-550 250-787 98-169 291-778 292-1065 122-26-29-66-44-46-122-288 74-805 101-949-122 59-118 173-154 255-244 407-446 580-1080 695-1832 102-459 94-299 162-806z"/><path d="m7084 9874c-78-74-70 90 0 0zm185-24c-15 0-31 0-46 0 0 16 0 33 0 49 15 0 31 0 46 0 0-16 0-33 0-49zm-324 73c20-56 143-169 46-73-58-32 25-118 93-98-3-54-98-10-139-24 49-181 424-143 509-24-53 46-188-28-301 0 72 62 203 63 232 171-127 66-266 91-440 49z"/><path d="m6574 10534c87 102 457 98 440-24-192 97-273 13-440 24zm46-366c-51 193 354 281 347 0 128 83-36 201-116 220 75 89 285 50 324 49-92 165-168 360-371 366-203 6-367-219-347-440 20 124 148 18 278 49-19-62-95-62-139-98-3-60-4-118 23-147z"/><path d="m3524 16357l367 944 1060-290-912 509 483 943-685-767-891 617 674-775-793-729 919 498 616-870-355 948 1007 427-1042-169-267 1018-6-1006-1100-73 1040-181z"/><path d="m5373 3454l146 178 146 178-240 29-240 30 94-208z"/><path d="m8059 3303l59 226 60 226-189 149-189 148-59-226-60-226 189-149z"/><path d="m3330 11045c193-94 429-21 528 163 99 184 22 409-171 503-193 94-429 21-528-163-99-184-22-409 171-503z"/><path d="m4827 7396l-1268 534 125 573 696-1141-455-395 142 1314 611 64-926-983-534 290 1356 277z"/><path d="m5373 11154l146 178 146 178-240 30-240 29 94-207z"/><path d="m6355 5962l368 944 1059-290-912 509 483 943-684-767-892 617 675-775-793-729 918 498 617-870-356 948 1007 427-1042-169-266 1018-7-1006-1099-73 1040-181z"/><path d="m8059 11003l59 226 60 227-189 148-189 149-59-226-60-227 189-148z"/><path d="m8812 7273l347 105 347 105 50 344 51 343-347-105-347-105-51-343z"/><path d="m9167 6554c92-4 191-14 281 11 51 14 96 41 145 61 57 23 120 37 170 71 44 31 72 77 106 118 55 74 143 172 166 260 13 51 4 105 0 157-8 65-14 129-17 193-21 155-43 307-66 454-49-125-61-260-60-411l16-184c5-75 24-163-14-232-53-97-159-243-265-291-81-32-181-85-267-95-61-8-128 0-190 3-6 0-13 0-19-2-32-9-51-41-41-72 7-24 31-41 56-42z" fill-rule="nonzero"/><path d="m3696 14811l236 607 681-186-587 327 311 606-440-493-573 396 434-498-510-468 590 320 396-559-228 609 647 274-669-108-172 654-4-647-706-47 668-116z"/><path d="m3695 5076c123-38 254 26 294 143 40 117-27 242-150 280-122 38-254-26-294-143-40-117 27-242 150-280z"/><path d="m2907 13438l414 307 414 306-524-16-525-16 434-281 435-280-179 470-178 470-146-480z"/><path d="m7877 1669c123-38 254 26 294 143 40 117-27 242-150 280-122 38-254-26-294-143-40-117 27-242 150-280z"/><path d="m4381 3270l-1268 534 125 574 696-1142-455-394 142 1313 611 64-925-983-534 290 1355 278z"/><path d="m1990 6460l60 226 59 226-189 149-189 148-59-226-59-226 189-149z"/><path d="m5220 1908l146 178 147 178-241 30-240 29 94-207z"/><g font-family="&apos;Arial&apos;" font-size="626.61"><text x="10500" y="14850" transform="matrix(1.10386 0 0 1.16435-6153.02 797.35)">NN 1</text><text x="10500" y="14850" transform="matrix(1.10386 0 0 1.16435-6174.84 1442.57)">NN 2</text></g></g></g></g></svg>