<svg xmlns="http://www.w3.org/2000/svg" width="744.09" height="1052.36" viewBox="0 0 21000 29700" shape-rendering="geometricPrecision" image-rendering="optimizeQuality" fill-rule="evenodd" clip-rule="evenodd"><defs><clipPath id="0"><path d="m14375 26323c593 308 1367 413 2024 394 495-14 1016-99 1480-284 386-154 773-396 1002-762 242-386 363-967 432-1416 101-647 140-1317 163-1972 19-535 25-1071 30-1607 4-450 6-904 25-1354 71-1661 195-3315 336-4971 125-1471 262-2942 352-4416 32-520 58-1041 76-1562 36-1016-120-2019-506-2956-352-852-876-1602-1535-2225-934-883-2100-1475-3329-1762-829-194-1705-178-2390 406-1083 925-1257 2898-1244 4249 6 549 43 1100 103 1646 54 490 128 980 222 1464 309 1583 938 3062 1325 4621 207 831 287 1717 321 2574 39 955 20 1915-8 2871-25 880-60 1761-69 2641-9 791-1 1595 80 2381 87 836 343 1642 1110 2040"/></clipPath><clipPath id="1"><path d="m6607 26323c767-398 1023-1204 1110-2040 81-786 89-1590 80-2381-9-880-44-1761-69-2641-28-956-47-1916-8-2871 34-857 114-1743 321-2574 387-1559 1016-3038 1325-4621 94-484 168-974 222-1464 60-546 97-1097 103-1646 13-1351-161-3324-1244-4249-685-584-1561-600-2390-406-1229 287-2395 879-3329 1762-659 623-1183 1373-1535 2225-386 937-542 1940-506 2956 18 521 44 1042 76 1562 90 1474 227 2945 352 4416 141 1656 265 3310 336 4971 19 450 21 904 25 1354 5 536 11 1072 30 1607 23 655 62 1325 163 1972 69 449 190 1030 432 1416 229 366 616 608 1002 762 464 185 985 270 1480 284 657 19 1431-86 2024-394"/></clipPath></defs><text x="10081" y="24148" fill="#201e1e" font-family="&apos;Arial Black&apos;" stroke="#201e1e" font-weight="900" stroke-width="7.62" font-size="705.56">40</text><g fill="none" stroke="#373435" stroke-width="80"><circle cx="10533" cy="1008" r="460"/><path d="m10533 198v1621"/><path d="m9723 1008h1621"/><circle cx="10533" cy="25519" r="460"/><path d="m10533 24708v1621"/><path d="m9723 25519h1621"/></g><g fill="#fff"><rect x="9843" y="22866" width="1347" height="637" rx="318" stroke="#fff" stroke-width="20"/><path d="m14375 26323c593 308 1367 413 2024 394 495-14 1016-99 1480-284 386-154 773-396 1002-762 242-386 363-967 432-1416 101-647 140-1317 163-1972 19-535 25-1071 30-1607 4-450 6-904 25-1354 71-1661 195-3315 336-4971 125-1471 262-2942 352-4416 32-520 58-1041 76-1562 36-1016-120-2019-506-2956-352-852-876-1602-1535-2225-934-883-2100-1475-3329-1762-829-194-1705-178-2390 406-1083 925-1257 2898-1244 4249 6 549 43 1100 103 1646 54 490 128 980 222 1464 309 1583 938 3062 1325 4621 207 831 287 1717 321 2574 39 955 20 1915-8 2871-25 880-60 1761-69 2641-9 791-1 1595 80 2381 87 836 343 1642 1110 2040"/></g><g clip-path="url(#0)"><g><g fill="#201e1e"><path d="m16611 22741c27 0 49 3 66 11 16 8 25 19 26 33-4 24-41 47-112 66-70 20-147 40-232 61 0 41 4 73 14 96 9 22 22 46 38 73 42-11 89-21 140-28 51-7 101-10 150-11 59 0 104 7 134 21 30 14 45 34 45 60 1 30-23 65-72 105-49 39-127 75-233 107 16 21 32 41 48 59 16 17 25 29 26 33 0 2-1 3-4 4-2 1-6 2-10 3-14-9-28-17-41-24-14-7-25-13-33-18-15-9-26-17-32-23-6-7-11-13-16-18-51 12-104 22-162 28-58 7-119 10-186 11-152-2-266-21-343-57-78-36-116-79-116-129 1-64 51-118 150-161 98-43 240-84 423-124 15-52 56-95 124-128 69-32 138-49 208-50zm-195 351c17 31 38 65 61 102 24 38 48 73 74 104 108-30 186-63 236-99 50-37 75-66 74-88-1-17-16-30-46-41-30-10-68-16-116-16-28 0-69 3-123 10-53 7-107 16-160 28zm-87 23c-65 21-118 39-159 55-41 16-89 37-141 61h-7c-1 0-2-1-3-1-2-1-2-2-2-4 3-6 35-22 95-47 60-25 131-50 211-75-14-22-26-46-35-71-10-25-15-49-16-70 0-5 1-10 1-14 1-5 1-10 1-16-129 30-234 65-313 106-79 41-120 89-122 146 1 47 35 85 103 115 67 30 159 45 275 46 55 0 105-4 150-11 46-7 85-14 116-20-22-26-48-58-78-97-30-38-55-73-76-103zm339-336c0-8-5-14-16-18-11-4-27-6-48-6-57 1-109 14-157 39-48 25-76 60-84 104 35-8 74-18 116-29 41-11 77-21 106-30 26-9 46-19 61-30 15-11 22-21 22-30z" stroke="#201e1e" stroke-linejoin="round" stroke-linecap="round" stroke-width="50"/><g font-family="&apos;Arial Black&apos;" font-weight="900" font-size="529.17"><text x="10500" y="14850" transform="matrix(1.13196 0 0 1.17462-75.11-8994.93)">NN 1</text><text x="10500" y="14850" transform="matrix(1.13196 0 0 1.17462-77.6-8422.57)">NN 2</text></g><g stroke="#201e1e" stroke-width="50"><g font-family="&apos;Cassandra&apos;" stroke-linejoin="round" stroke-linecap="round"><text x="10500" y="14850" font-size="856.8" transform="matrix(1.77375 0 0 1.17462-5389.17 4512.86)">Texto 01</text><g font-size="820.63" transform="matrix(1.7558 0 0 1.17462-5105.83 7121.44)"><text x="10500" y="14850">Texto 02</text><text x="10500" y="15930"/></g></g><text x="10500" y="14850" font-family="&apos;Menuet script&apos;" font-size="929.31" transform="matrix(1.02317 0 0 1.17462 3894.08 8685.66)">00.00.0000</text></g><path d="m13684 2216c0 11-4 22-14 31-10 10-27 20-53 31l-41 17c-6 3-11 4-14 4-2 0-3-1-4-4 0-2 1-3 2-5l4-13c4-11 6-21 5-30 0-17-11-31-32-40l-17-7c-3-1-4-4-4-6 0-3 5-7 15-12l2-1 76-36c5-2 11-4 19-4 7 0 13 2 20 8 10 10 19 21 26 33 7 13 10 24 10 34m409-22c-1 10-8 20-19 28-11 8-30 15-57 21l-43 11c-6 1-11 2-14 2-2-1-3-2-3-5 0-2 1-4 3-5l5-12c6-10 9-20 10-29 2-17-6-32-25-45l-17-9c-2-2-3-5-3-7 1-3 6-6 17-9l2-1 80-23c6-2 12-2 20-1 7 1 13 4 18 11 9 11 16 24 21 37 5 14 6 26 5 36m405 36c-2 11-9 20-21 27-12 7-31 12-59 16l-43 6c-7 1-12 2-14 1-3-1-4-2-3-5 0-2 1-3 3-5l6-11c6-10 10-19 12-28 4-17-3-32-21-47l-16-11c-2-2-3-5-2-7 0-3 6-5 17-7l3-1 81-16c6-1 13-1 20 1 7 1 12 6 18 12 8 13 13 26 17 40 3 14 4 25 2 35m832-114c-4 14-12 30-25 47-12 18-25 38-39 61l-8 13-296 392-11 3-82-27-5-11 199-249c-17 6-30 10-40 13-9 3-19 6-28 7-33 7-66 11-99 10-33 0-62-5-86-13-41-14-70-37-86-69-16-31-17-68-4-110 13-42 38-80 76-113 38-33 84-59 137-77 51-17 105-26 162-27 57-2 108 5 153 20 34 12 59 30 73 53 15 24 18 50 9 77m-96 1c7-25 5-49-8-70-14-21-36-37-67-47-12-4-27-7-43-9-17-2-32-2-46-1-36 2-68 10-94 23-36 18-68 45-97 81-29 36-50 74-62 114-20 62 4 104 71 127 28 10 57 14 87 12 28-2 53-8 75-19 23-11 45-28 68-51 29-29 54-57 75-85 20-28 33-53 41-75m799 556c-1 4-7 6-16 7l-24 5-30 5-51 7c-8 2-25 4-52 6-18 3-31 3-40 2-10 0-20-1-31-3-10-2-18-4-24-7-25-12-33-29-23-52l7-13 8-10 39-52c-74 15-136 21-184 20-48-1-91-11-127-29-57-27-75-64-54-110 5-12 13-25 25-41 11-16 27-34 48-55l144-156 2-1c3-3 5-7 7-9 1-3 2-6 3-9 5-9 2-17-7-21-5-2-12-4-21-4l-15-1c-8 0-12 0-12 0l-6-2c-7 0-11 0-12-1-4-2-6-6-3-11 1-2 2-4 5-4 2 0 8 0 18 0 3 1 18 2 44 4l49 4c7 0 15 1 22 2 8 0 16 1 25 1 11 0 19 1 23 1 4 1 7 1 9 3 12 5 16 13 11 23-1 4-5 8-9 12l-1 2-216 231c-13 14-23 24-28 31-6 8-10 15-13 23-15 32-1 58 42 79 7 3 14 6 23 9 8 2 15 4 20 4 26 5 56 5 92 1 44-5 78-11 101-20 23-8 45-20 65-37 14-12 28-26 42-40 14-15 32-35 53-60 18-22 31-36 37-45 7-8 11-14 13-18 5-12 2-21-10-26-8-4-15-6-21-6l-21-2-12-2-1 1-3-1c-3 0-5 0-6 0-4-2-5-4-4-7-1-1-1-3 0-6 1-1 3-2 7-2 4-1 12 0 24 1l105 7 6 1c25 1 44 5 56 10 5 3 10 7 12 13 3 5 3 10 2 14-2 2-4 6-7 10-3 4-7 7-12 11v1l-277 275v2c-3 2-6 6-8 12-5 12-2 21 11 27 16 7 36 8 62 1l39-8 42-8c16-3 23-4 23-4 2 0 2 0 3-1 1 1 2 1 3 1 0 0 1 0 3 1 7 3 9 8 6 14m649 2c-8 14-21 25-40 34-18 9-41 16-68 20-27 4-57 6-90 5-33-1-67-3-102-8l-36-4-24-5c-3-1-7-2-12-6-5-2-7-5-5-7 1-3 6-3 14-3l2 1c3 0 7 0 13 1 64 9 117 8 161-2 44-11 73-30 88-58 7-13 7-27 1-41-7-14-20-27-39-38-27-16-55-21-84-17-37 5-75 23-114 53-39 30-70 68-94 112-41 77-25 137 49 179 28 17 58 28 90 34 31 6 61 7 89 2l27-5c3 0 5 0 6 1 3 2 4 4 3 6-5 10-29 18-69 21-85 9-156-3-211-35-47-27-77-61-91-101-13-40-9-81 14-124 21-40 51-73 89-100 39-27 83-47 134-58 45-10 90-12 135-7 45 5 84 17 116 35 23 13 39 31 48 54 10 23 10 43 0 61m482 253c-7 10-23 18-49 23-12 2-19 3-22 5-19 2-30 3-32 1-5-4-6-9-2-15l5-10v-4c9-20 1-38-24-56-35-26-75-24-118 6l-192 125c-27 18-42 30-47 38-5 7-6 14-4 23 2 9 7 16 16 22 13 10 35 17 66 21 31 4 65 5 102 2l36-3c4 0 8 1 10 3 3 2 4 4 2 6-2 3-11 6-26 8-16 3-33 4-51 5-13 0-29 0-49-1-19-1-38-2-58-4-51-4-89-15-114-32-15-11-24-24-27-38-3-15 1-29 10-43 7-11 18-22 32-34 13-12 32-26 55-42l164-112c29-20 49-37 59-52 8-12 5-22-9-32-4-3-13-8-25-13-5-3-9-5-12-7-5-4-7-7-6-9 2-3 9-2 21 1l35 8c16 3 30 8 44 14 14 7 25 14 33 20 27 19 32 41 16 66-3 4-6 7-8 9-3 3-6 6-11 11l93 4c16 0 28 2 37 4 8 2 16 6 24 12 14 10 23 22 29 35 5 13 4 25-3 35m473 488c-26 31-64 54-115 70-51 15-109 22-173 21-54-2-102-11-146-26-44-14-80-35-108-60-19-17-33-36-44-57-10-20-16-42-18-64-2-23 0-45 6-67 7-22 18-42 33-61 27-32 67-54 120-67 53-13 109-13 169-2 35 7 68 15 97 26 30 10 48 18 56 26 2 1 3 3 2 4-2 2-4 2-7 2l-1-2c-10-2-19-5-28-7-9-1-18-3-29-6-61-10-119-9-172 5-53 14-95 39-124 74-28 33-41 67-40 102 0 35 15 66 44 92 25 23 55 39 89 49 34 9 69 12 104 9 35-4 68-13 101-28 33-15 60-37 84-64 10-13 18-25 24-37 6-12 11-26 14-41 3-15 2-28-2-38-5-10-15-23-31-39-12-11-20-18-23-22-3-5-4-8-2-10 1-2 11 1 27 7l4 2 73 33c5 2 9 4 11 6 3 1 5 3 7 4 12 12 20 29 22 51 4 24 4 46-1 66-4 19-12 36-23 49m771 694c-18 14-38 17-60 10-4-2-9-4-13-6-5-2-8-4-10-7-1-1-1-2-1-4 0-1 0-2 1-3 1-1 3-2 5-2 7 0 14-3 20-8 17-14 23-34 20-61-4-27-17-55-38-84-23-30-46-49-70-59-24-10-45-8-62 6-14 12-21 28-22 49 0 21 6 51 18 88 7 21 12 37 16 50 3 12 6 23 8 31 2 9 3 16 4 22 0 6-1 13-1 22 0 14-3 28-8 41-6 13-13 23-22 30-32 26-82 28-147 6-64-22-119-62-164-122-30-40-48-78-53-114-4-36 6-64 30-83 23-19 52-23 84-12 18 6 30 13 36 20l2 3c0 2 0 3-2 4l-1 1h-3l-1 1-17 1c-13 2-24 7-35 15-20 16-28 41-25 75 4 33 19 67 45 102 29 39 60 65 92 80 33 14 60 13 81-4 30-24 34-70 11-138l-20-63c-10-31-13-59-10-84 4-24 14-43 30-56 27-22 69-23 125-3 61 22 109 58 145 106 24 31 36 60 38 86 2 27-7 48-26 64m352 466c-13 9-29 13-50 12-21-1-44-6-70-15-26-9-53-21-82-38-30-16-59-34-88-55l-29-21-20-15c-2-2-5-6-9-11-3-5-3-8-1-9 2-2 7 0 14 4l2 2c2 1 6 4 10 7 54 38 102 63 145 74 44 11 78 8 103-10 13-9 19-21 19-37 1-15-5-33-17-51-18-27-40-45-68-55-35-13-77-15-125-6-47 8-92 27-132 55-71 49-82 110-35 183 18 27 40 52 65 72 25 20 52 35 78 44l27 8c2 1 4 2 5 3 2 4 2 6 0 8-9 6-33 2-71-14-79-33-137-76-173-131-29-46-42-90-36-132 5-43 28-77 67-105 36-25 77-41 123-47 46-6 94-2 144 11 45 13 86 33 124 58 38 26 67 55 87 86 15 22 21 46 20 71-1 24-11 42-27 54m319 460c-10 6-28 5-54-2-11-5-18-7-21-7-18-7-28-11-29-14-4-6-2-10 4-14l9-7 2-3c16-14 17-34 3-62-20-39-56-56-108-50l-226 21c-31 3-51 7-58 12-7 3-12 10-14 18-2 9 0 18 5 28 7 14 24 31 50 49 25 19 56 36 90 50l33 14c4 3 6 5 8 7 2 4 1 6-1 8-3 1-12 0-27-6-16-5-31-12-47-20-12-6-27-13-44-23-16-10-33-20-50-31-44-28-73-55-87-83-8-17-11-32-7-46 3-15 13-26 27-34 11-6 25-11 43-15 18-5 40-8 68-11l195-23c35-4 60-10 76-19 11-6 13-17 5-33-2-4-8-12-16-23-3-4-6-8-8-12-3-6-3-9-1-11 2-1 8 3 18 11l28 24c12 10 23 21 32 34 10 12 17 23 22 33 15 29 10 51-16 65-4 3-7 4-11 5-3 1-8 3-14 5l81 47c14 8 24 15 31 21 7 6 12 13 16 22 8 15 12 30 11 45-1 14-7 24-18 30m368 923c-21 6-40 2-58-14-4-3-8-7-11-11-3-4-5-7-6-10 0-1 0-2 0-4 1-1 1-2 2-3 2 0 4 0 6 1 7 2 14 2 22 0 20-6 33-23 40-49 6-27 4-57-5-92-10-37-25-64-44-83-18-18-38-24-59-18-17 5-30 18-38 37-9 19-14 49-15 89-2 21-3 39-4 52-1 13-2 23-3 32-2 9-3 16-5 22-2 5-5 12-8 20-6 13-14 24-23 34-10 10-20 17-31 20-40 12-86-5-139-52-52-45-88-104-108-176-13-50-16-92-7-127 8-35 27-56 57-65 29-9 56-2 83 22 14 12 23 23 25 32l1 4c0 1-1 3-3 3h-1l-3-1-2 1-15-6c-13-4-25-3-38 0-25 8-41 27-50 60-9 32-8 69 4 112 13 47 32 84 57 110 25 26 51 35 76 28 37-11 57-52 61-124l3-66c2-33 9-60 22-81 12-22 28-35 48-41 33-10 72 5 117 45 48 45 80 97 96 155 10 38 12 69 4 95-8 26-24 42-48 49m166 575c-15 3-32 0-50-9-19-9-39-22-60-41-21-18-42-40-63-67-21-26-41-54-61-85l-20-30-12-22c-2-3-3-7-4-14-2-5-1-8 2-9 2 0 6 3 11 10l1 2c2 2 4 6 7 11 36 56 72 97 108 124 36 28 69 38 99 31 15-3 25-12 31-26 6-14 7-33 2-55-6-32-20-57-42-77-29-26-67-43-114-54-47-11-95-11-143-1-83 19-116 70-98 156 6 33 18 64 34 92 16 29 35 53 57 71l21 18c2 2 4 4 4 6 1 4 0 6-3 6-11 3-31-11-61-40-61-61-99-124-112-189-11-54-7-100 14-136 20-37 53-61 99-71 43-10 86-8 131 4 45 12 89 34 130 67 37 29 68 63 94 101 26 39 42 77 50 114 5 26 3 51-7 73-10 22-25 35-45 40m-141 813c-4 1-9-3-15-10l-17-18-20-24-33-40c-7-6-18-20-34-42-12-15-20-26-23-34-6-8-11-18-15-28-4-11-6-19-7-26-4-28 6-44 29-47l15-2 12 2 63 5c-52-56-91-106-116-149-25-42-41-84-46-126-9-64 11-100 60-107 12-2 27-2 46-1 19 1 43 5 71 12l205 40 2 2c4 1 8 1 11 0 3 0 6 0 8-1 11-1 15-7 14-18-1-5-4-12-8-20l-7-14c-5-7-7-11-7-11l-2-5c-4-6-6-10-6-12 0-5 2-8 7-8 3-1 5 0 6 2 2 2 5 7 10 15 1 4 8 18 21 41l24 45c3 7 7 13 10 20 4 7 8 14 13 22 5 10 9 17 11 21 2 4 3 7 3 10 2 13-2 20-13 22-4 1-9 0-15-2h-2l-304-62c-18-4-32-6-41-7-9-1-17-1-25 1-34 4-47 31-41 79 1 8 3 17 5 25 3 9 5 15 8 20 10 25 27 52 49 81 28 36 52 61 71 77 20 16 41 28 66 36 17 6 36 11 56 15 19 4 45 8 76 13 28 4 46 7 57 8 10 2 17 2 22 1 12-2 17-9 15-22-1-10-3-17-7-22l-9-19-5-12-2 1v-4c-2-3-3-5-4-6 0-4 1-6 4-7 0-1 2-2 4-2 2-1 4 1 6 4 3 3 7 10 13 22l51 94 2 6c13 23 20 41 22 54 1 7 0 13-3 18-3 5-6 8-11 9-2 0-6 0-11 0-5-1-10-2-16-4h-1l-373-91h-1c-4-1-9-1-15 0-12 2-17 10-15 25 2 17 13 36 33 55l28 28 29 33c11 12 16 18 16 18 0 1 1 2 2 2 0 1 0 2 1 3 0 0 0 1 1 3 1 8-2 12-8 13m246 1223c-25-1-51-10-79-27-27-16-55-39-81-68-17-17-34-37-50-60-15-21-27-40-37-58-10-19-23-45-39-80-4 14-6 29-9 45-3 17-4 32-5 44-2 44 4 83 18 115 2 4 4 7 3 10 0 5-2 8-5 8-6-1-15-13-26-37-26-50-37-103-34-160 1-18 3-37 7-57l12-62c2-12 4-24 6-35 1-12 2-22 3-31l1-19-1-14-1-8v-6c1-4 1-7 2-8 2-3 3-4 4-4 5 0 12 7 22 19 20 23 29 47 28 71-1 7-1 13-2 18l-4 20c-2 8-4 16-4 23 0 8-1 14-1 20-1 14 2 28 7 41 5 12 14 27 28 46 9 11 18 22 26 32 8 10 15 19 23 27 55 63 111 96 166 99 28 1 51-6 67-22 17-16 26-39 27-69 2-28-4-59-17-93-14-34-33-67-59-100-19-25-37-44-52-55-12-10-29-22-52-35-24-12-52-27-87-44l-324-164-2-14 3-55 7-5 215 99 160 73 95 44c25 12 45 21 61 26 15 5 29 7 42 8 10 1 17-5 19-17 2-4 3-9 4-14 0-6 0-16 1-33v-4l1-4c0-8 2-12 6-11 3 0 6 2 7 7 2 5 4 16 6 34l5 35c3 17 5 32 7 44 2 11 3 21 4 27 2 15 3 28 5 39 1 11 1 20 1 27-1 10-4 16-10 15-3 0-4-1-5-2l-116-61c11 14 20 26 27 36 7 10 13 19 19 28 5 9 11 19 16 29 5 9 12 21 19 35 25 49 37 98 34 148-2 43-13 79-35 106-21 27-47 40-77 38m39 1308c-11-1-26-11-44-31-8-10-13-15-15-17-13-16-19-25-19-27 1-7 4-10 11-10l11-1 4-2c20-3 31-20 33-51 2-45-20-78-67-101l-205-103c-28-14-47-21-56-21-8-1-14 2-21 9-6 6-9 15-9 26-1 16 5 39 18 69 13 30 30 60 53 91l21 30c2 4 3 7 3 10 0 4-2 6-4 6-4 0-11-7-21-20-10-12-20-26-30-42-8-11-16-25-26-43-9-17-19-35-27-53-24-48-36-87-34-118 1-19 7-33 17-44 10-10 23-14 40-14 12 1 27 4 44 10 18 6 39 15 64 27l179 85c31 15 56 23 74 24 13 1 20-8 21-25 0-6-1-15-3-29 0-5-1-10 0-14 0-7 1-10 4-10 3 0 6 6 10 19l12 35c6 15 9 31 11 46 2 16 3 29 2 40-2 34-17 50-46 48-4 0-8-1-12-1-3-1-8-3-14-4l46 83c8 14 13 26 16 35 3 9 4 18 3 27-1 18-5 33-13 44-8 12-18 18-31 17m-316-597c-7 0-21-18-40-53-24-43-39-74-47-94-8-20-12-38-11-53 2-28 13-42 33-40 7 0 17 3 29 7 12 4 27 11 46 19l83 32c-55-57-97-115-127-175-31-60-44-112-41-158 2-37 15-65 37-86 23-21 52-30 87-27 60 4 117 30 171 77 53 47 96 110 128 188 31 74 44 145 40 211-3 43-13 77-30 102-16 25-38 39-63 41l-323-125h-1c-2-1-5-2-8-2-3-1-5-1-7-1-7 0-10 2-11 7 0 3 1 7 2 13 2 3 3 5 3 7 1 2 2 5 4 7 6 12 14 26 23 43 9 17 16 29 23 38 4 7 6 12 6 15-1 5-3 8-6 7m271-106c15 1 26 0 34-5 8-4 15-11 22-21 15-24 23-54 26-90 5-74-15-137-60-187-16-19-33-36-52-52-18-15-37-29-57-41-19-11-39-20-59-27-20-7-38-11-56-12-27-2-50 5-69 21-19 16-30 37-31 63-1 13 1 31 7 53 5 22 12 42 21 61 21 45 46 83 74 115 14 16 31 31 48 45 18 14 35 27 54 38 18 12 35 21 53 28 17 6 32 10 45 11m447 1357c-5-1-11-3-17-8h-2l-613-341c-2-1-5-7-10-17-4-10-7-21-11-33l-8-29c1-3 0-5 0-6 0 0 0-1 0-3 2-1 3-1 4-1 2 0 6 1 11 3 6 2 12 4 18 7l9 5 471 236 7 3c13 4 25 8 34 13 10 5 18 8 25 9 10 1 17-2 22-9 4-8 8-21 12-41h1c1-8 3-12 6-12 3 1 5 4 7 11l46 163c4 11 5 22 4 31-1 13-6 20-16 19m-803-374c-15-2-27-9-34-22-1-2-2-5-3-8-5-11-9-21-11-29-3-7-8-19-15-35l-6-12c-3-7-4-13-4-17 1-4 3-6 6-5 2 0 4 1 5 2 7 3 12 6 17 8 4 1 9 3 14 3 23 2 39-10 48-36l5-16c2-3 4-4 5-4 0 0 2 3 4 9l21 61 4 14c7 17 10 32 9 44-1 12-8 22-21 31-14 9-28 13-44 12" fill-rule="nonzero"/></g><g stroke="#201e1e"><path d="m13684 2216c0 11-4 22-14 31-10 10-27 20-53 31l-41 17c-6 3-11 4-14 4-2 0-3-1-4-4 0-2 1-3 2-5l4-13c4-11 6-21 5-30 0-17-11-31-32-40l-17-7c-3-1-4-4-4-6 0-3 5-7 15-12l2-1 76-36c5-2 11-4 19-4 7 0 13 2 20 8 10 10 19 21 26 33 7 13 10 24 10 34zm409-22c-1 10-8 20-19 28-11 8-30 15-57 21l-43 11c-6 1-11 2-14 2-2-1-3-2-3-5 0-2 1-4 3-5l5-12c6-10 9-20 10-29 2-17-6-32-25-45l-17-9c-2-2-3-5-3-7 1-3 6-6 17-9l2-1 80-23c6-2 12-2 20-1 7 1 13 4 18 11 9 11 16 24 21 37 5 14 6 26 5 36zm405 36c-2 11-9 20-21 27-12 7-31 12-59 16l-43 6c-7 1-12 2-14 1-3-1-4-2-3-5 0-2 1-3 3-5l6-11c6-10 10-19 12-28 4-17-3-32-21-47l-16-11c-2-2-3-5-2-7 0-3 6-5 17-7l3-1 81-16c6-1 13-1 20 1 7 1 12 6 18 12 8 13 13 26 17 40 3 14 4 25 2 35zm832-114c-4 14-12 30-25 47-12 18-25 38-39 61l-8 13-296 392-11 3-82-27-5-11 199-249c-17 6-30 10-40 13-9 3-19 6-28 7-33 7-66 11-99 10-33 0-62-5-86-13-41-14-70-37-86-69-16-31-17-68-4-110 13-42 38-80 76-113 38-33 84-59 137-77 51-17 105-26 162-27 57-2 108 5 153 20 34 12 59 30 73 53 15 24 18 50 9 77zm-96 1c7-25 5-49-8-70-14-21-36-37-67-47-12-4-27-7-43-9-17-2-32-2-46-1-36 2-68 10-94 23-36 18-68 45-97 81-29 36-50 74-62 114-20 62 4 104 71 127 28 10 57 14 87 12 28-2 53-8 75-19 23-11 45-28 68-51 29-29 54-57 75-85 20-28 33-53 41-75zm799 556c-1 4-7 6-16 7l-24 5-30 5-51 7c-8 2-25 4-52 6-18 3-31 3-40 2-10 0-20-1-31-3-10-2-18-4-24-7-25-12-33-29-23-52l7-13 8-10 39-52c-74 15-136 21-184 20-48-1-91-11-127-29-57-27-75-64-54-110 5-12 13-25 25-41 11-16 27-34 48-55l144-156 2-1c3-3 5-7 7-9 1-3 2-6 3-9 5-9 2-17-7-21-5-2-12-4-21-4l-15-1c-8 0-12 0-12 0l-6-2c-7 0-11 0-12-1-4-2-6-6-3-11 1-2 2-4 5-4 2 0 8 0 18 0 3 1 18 2 44 4l49 4c7 0 15 1 22 2 8 0 16 1 25 1 11 0 19 1 23 1 4 1 7 1 9 3 12 5 16 13 11 23-1 4-5 8-9 12l-1 2-216 231c-13 14-23 24-28 31-6 8-10 15-13 23-15 32-1 58 42 79 7 3 14 6 23 9 8 2 15 4 20 4 26 5 56 5 92 1 44-5 78-11 101-20 23-8 45-20 65-37 14-12 28-26 42-40 14-15 32-35 53-60 18-22 31-36 37-45 7-8 11-14 13-18 5-12 2-21-10-26-8-4-15-6-21-6l-21-2-12-2-1 1-3-1c-3 0-5 0-6 0-4-2-5-4-4-7-1-1-1-3 0-6 1-1 3-2 7-2 4-1 12 0 24 1l105 7 6 1c25 1 44 5 56 10 5 3 10 7 12 13 3 5 3 10 2 14-2 2-4 6-7 10-3 4-7 7-12 11v1l-277 275v2c-3 2-6 6-8 12-5 12-2 21 11 27 16 7 36 8 62 1l39-8 42-8c16-3 23-4 23-4 2 0 2 0 3-1 1 1 2 1 3 1 0 0 1 0 3 1 7 3 9 8 6 14zm649 2c-8 14-21 25-40 34-18 9-41 16-68 20-27 4-57 6-90 5-33-1-67-3-102-8l-36-4-24-5c-3-1-7-2-12-6-5-2-7-5-5-7 1-3 6-3 14-3l2 1c3 0 7 0 13 1 64 9 117 8 161-2 44-11 73-30 88-58 7-13 7-27 1-41-7-14-20-27-39-38-27-16-55-21-84-17-37 5-75 23-114 53-39 30-70 68-94 112-41 77-25 137 49 179 28 17 58 28 90 34 31 6 61 7 89 2l27-5c3 0 5 0 6 1 3 2 4 4 3 6-5 10-29 18-69 21-85 9-156-3-211-35-47-27-77-61-91-101-13-40-9-81 14-124 21-40 51-73 89-100 39-27 83-47 134-58 45-10 90-12 135-7 45 5 84 17 116 35 23 13 39 31 48 54 10 23 10 43 0 61zm482 253c-7 10-23 18-49 23-12 2-19 3-22 5-19 2-30 3-32 1-5-4-6-9-2-15l5-10v-4c9-20 1-38-24-56-35-26-75-24-118 6l-192 125c-27 18-42 30-47 38-5 7-6 14-4 23 2 9 7 16 16 22 13 10 35 17 66 21 31 4 65 5 102 2l36-3c4 0 8 1 10 3 3 2 4 4 2 6-2 3-11 6-26 8-16 3-33 4-51 5-13 0-29 0-49-1-19-1-38-2-58-4-51-4-89-15-114-32-15-11-24-24-27-38-3-15 1-29 10-43 7-11 18-22 32-34 13-12 32-26 55-42l164-112c29-20 49-37 59-52 8-12 5-22-9-32-4-3-13-8-25-13-5-3-9-5-12-7-5-4-7-7-6-9 2-3 9-2 21 1l35 8c16 3 30 8 44 14 14 7 25 14 33 20 27 19 32 41 16 66-3 4-6 7-8 9-3 3-6 6-11 11l93 4c16 0 28 2 37 4 8 2 16 6 24 12 14 10 23 22 29 35 5 13 4 25-3 35zm473 488c-26 31-64 54-115 70-51 15-109 22-173 21-54-2-102-11-146-26-44-14-80-35-108-60-19-17-33-36-44-57-10-20-16-42-18-64-2-23 0-45 6-67 7-22 18-42 33-61 27-32 67-54 120-67 53-13 109-13 169-2 35 7 68 15 97 26 30 10 48 18 56 26 2 1 3 3 2 4-2 2-4 2-7 2l-1-2c-10-2-19-5-28-7-9-1-18-3-29-6-61-10-119-9-172 5-53 14-95 39-124 74-28 33-41 67-40 102 0 35 15 66 44 92 25 23 55 39 89 49 34 9 69 12 104 9 35-4 68-13 101-28 33-15 60-37 84-64 10-13 18-25 24-37 6-12 11-26 14-41 3-15 2-28-2-38-5-10-15-23-31-39-12-11-20-18-23-22-3-5-4-8-2-10 1-2 11 1 27 7l4 2 73 33c5 2 9 4 11 6 3 1 5 3 7 4 12 12 20 29 22 51 4 24 4 46-1 66-4 19-12 36-23 49zm771 694c-18 14-38 17-60 10-4-2-9-4-13-6-5-2-8-4-10-7-1-1-1-2-1-4 0-1 0-2 1-3 1-1 3-2 5-2 7 0 14-3 20-8 17-14 23-34 20-61-4-27-17-55-38-84-23-30-46-49-70-59-24-10-45-8-62 6-14 12-21 28-22 49 0 21 6 51 18 88 7 21 12 37 16 50 3 12 6 23 8 31 2 9 3 16 4 22 0 6-1 13-1 22 0 14-3 28-8 41-6 13-13 23-22 30-32 26-82 28-147 6-64-22-119-62-164-122-30-40-48-78-53-114-4-36 6-64 30-83 23-19 52-23 84-12 18 6 30 13 36 20l2 3c0 2 0 3-2 4l-1 1h-3l-1 1-17 1c-13 2-24 7-35 15-20 16-28 41-25 75 4 33 19 67 45 102 29 39 60 65 92 80 33 14 60 13 81-4 30-24 34-70 11-138l-20-63c-10-31-13-59-10-84 4-24 14-43 30-56 27-22 69-23 125-3 61 22 109 58 145 106 24 31 36 60 38 86 2 27-7 48-26 64zm352 466c-13 9-29 13-50 12-21-1-44-6-70-15-26-9-53-21-82-38-30-16-59-34-88-55l-29-21-20-15c-2-2-5-6-9-11-3-5-3-8-1-9 2-2 7 0 14 4l2 2c2 1 6 4 10 7 54 38 102 63 145 74 44 11 78 8 103-10 13-9 19-21 19-37 1-15-5-33-17-51-18-27-40-45-68-55-35-13-77-15-125-6-47 8-92 27-132 55-71 49-82 110-35 183 18 27 40 52 65 72 25 20 52 35 78 44l27 8c2 1 4 2 5 3 2 4 2 6 0 8-9 6-33 2-71-14-79-33-137-76-173-131-29-46-42-90-36-132 5-43 28-77 67-105 36-25 77-41 123-47 46-6 94-2 144 11 45 13 86 33 124 58 38 26 67 55 87 86 15 22 21 46 20 71-1 24-11 42-27 54zm319 460c-10 6-28 5-54-2-11-5-18-7-21-7-18-7-28-11-29-14-4-6-2-10 4-14l9-7 2-3c16-14 17-34 3-62-20-39-56-56-108-50l-226 21c-31 3-51 7-58 12-7 3-12 10-14 18-2 9 0 18 5 28 7 14 24 31 50 49 25 19 56 36 90 50l33 14c4 3 6 5 8 7 2 4 1 6-1 8-3 1-12 0-27-6-16-5-31-12-47-20-12-6-27-13-44-23-16-10-33-20-50-31-44-28-73-55-87-83-8-17-11-32-7-46 3-15 13-26 27-34 11-6 25-11 43-15 18-5 40-8 68-11l195-23c35-4 60-10 76-19 11-6 13-17 5-33-2-4-8-12-16-23-3-4-6-8-8-12-3-6-3-9-1-11 2-1 8 3 18 11l28 24c12 10 23 21 32 34 10 12 17 23 22 33 15 29 10 51-16 65-4 3-7 4-11 5-3 1-8 3-14 5l81 47c14 8 24 15 31 21 7 6 12 13 16 22 8 15 12 30 11 45-1 14-7 24-18 30zm368 923c-21 6-40 2-58-14-4-3-8-7-11-11-3-4-5-7-6-10 0-1 0-2 0-4 1-1 1-2 2-3 2 0 4 0 6 1 7 2 14 2 22 0 20-6 33-23 40-49 6-27 4-57-5-92-10-37-25-64-44-83-18-18-38-24-59-18-17 5-30 18-38 37-9 19-14 49-15 89-2 21-3 39-4 52-1 13-2 23-3 32-2 9-3 16-5 22-2 5-5 12-8 20-6 13-14 24-23 34-10 10-20 17-31 20-40 12-86-5-139-52-52-45-88-104-108-176-13-50-16-92-7-127 8-35 27-56 57-65 29-9 56-2 83 22 14 12 23 23 25 32l1 4c0 1-1 3-3 3h-1l-3-1-2 1-15-6c-13-4-25-3-38 0-25 8-41 27-50 60-9 32-8 69 4 112 13 47 32 84 57 110 25 26 51 35 76 28 37-11 57-52 61-124l3-66c2-33 9-60 22-81 12-22 28-35 48-41 33-10 72 5 117 45 48 45 80 97 96 155 10 38 12 69 4 95-8 26-24 42-48 49zm166 575c-15 3-32 0-50-9-19-9-39-22-60-41-21-18-42-40-63-67-21-26-41-54-61-85l-20-30-12-22c-2-3-3-7-4-14-2-5-1-8 2-9 2 0 6 3 11 10l1 2c2 2 4 6 7 11 36 56 72 97 108 124 36 28 69 38 99 31 15-3 25-12 31-26 6-14 7-33 2-55-6-32-20-57-42-77-29-26-67-43-114-54-47-11-95-11-143-1-83 19-116 70-98 156 6 33 18 64 34 92 16 29 35 53 57 71l21 18c2 2 4 4 4 6 1 4 0 6-3 6-11 3-31-11-61-40-61-61-99-124-112-189-11-54-7-100 14-136 20-37 53-61 99-71 43-10 86-8 131 4 45 12 89 34 130 67 37 29 68 63 94 101 26 39 42 77 50 114 5 26 3 51-7 73-10 22-25 35-45 40zm-141 813c-4 1-9-3-15-10l-17-18-20-24-33-40c-7-6-18-20-34-42-12-15-20-26-23-34-6-8-11-18-15-28-4-11-6-19-7-26-4-28 6-44 29-47l15-2 12 2 63 5c-52-56-91-106-116-149-25-42-41-84-46-126-9-64 11-100 60-107 12-2 27-2 46-1 19 1 43 5 71 12l205 40 2 2c4 1 8 1 11 0 3 0 6 0 8-1 11-1 15-7 14-18-1-5-4-12-8-20l-7-14c-5-7-7-11-7-11l-2-5c-4-6-6-10-6-12 0-5 2-8 7-8 3-1 5 0 6 2 2 2 5 7 10 15 1 4 8 18 21 41l24 45c3 7 7 13 10 20 4 7 8 14 13 22 5 10 9 17 11 21 2 4 3 7 3 10 2 13-2 20-13 22-4 1-9 0-15-2h-2l-304-62c-18-4-32-6-41-7-9-1-17-1-25 1-34 4-47 31-41 79 1 8 3 17 5 25 3 9 5 15 8 20 10 25 27 52 49 81 28 36 52 61 71 77 20 16 41 28 66 36 17 6 36 11 56 15 19 4 45 8 76 13 28 4 46 7 57 8 10 2 17 2 22 1 12-2 17-9 15-22-1-10-3-17-7-22l-9-19-5-12-2 1v-4c-2-3-3-5-4-6 0-4 1-6 4-7 0-1 2-2 4-2 2-1 4 1 6 4 3 3 7 10 13 22l51 94 2 6c13 23 20 41 22 54 1 7 0 13-3 18-3 5-6 8-11 9-2 0-6 0-11 0-5-1-10-2-16-4h-1l-373-91h-1c-4-1-9-1-15 0-12 2-17 10-15 25 2 17 13 36 33 55l28 28 29 33c11 12 16 18 16 18 0 1 1 2 2 2 0 1 0 2 1 3 0 0 0 1 1 3 1 8-2 12-8 13zm246 1223c-25-1-51-10-79-27-27-16-55-39-81-68-17-17-34-37-50-60-15-21-27-40-37-58-10-19-23-45-39-80-4 14-6 29-9 45-3 17-4 32-5 44-2 44 4 83 18 115 2 4 4 7 3 10 0 5-2 8-5 8-6-1-15-13-26-37-26-50-37-103-34-160 1-18 3-37 7-57l12-62c2-12 4-24 6-35 1-12 2-22 3-31l1-19-1-14-1-8v-6c1-4 1-7 2-8 2-3 3-4 4-4 5 0 12 7 22 19 20 23 29 47 28 71-1 7-1 13-2 18l-4 20c-2 8-4 16-4 23 0 8-1 14-1 20-1 14 2 28 7 41 5 12 14 27 28 46 9 11 18 22 26 32 8 10 15 19 23 27 55 63 111 96 166 99 28 1 51-6 67-22 17-16 26-39 27-69 2-28-4-59-17-93-14-34-33-67-59-100-19-25-37-44-52-55-12-10-29-22-52-35-24-12-52-27-87-44l-324-164-2-14 3-55 7-5 215 99 160 73 95 44c25 12 45 21 61 26 15 5 29 7 42 8 10 1 17-5 19-17 2-4 3-9 4-14 0-6 0-16 1-33v-4l1-4c0-8 2-12 6-11 3 0 6 2 7 7 2 5 4 16 6 34l5 35c3 17 5 32 7 44 2 11 3 21 4 27 2 15 3 28 5 39 1 11 1 20 1 27-1 10-4 16-10 15-3 0-4-1-5-2l-116-61c11 14 20 26 27 36 7 10 13 19 19 28 5 9 11 19 16 29 5 9 12 21 19 35 25 49 37 98 34 148-2 43-13 79-35 106-21 27-47 40-77 38zm39 1308c-11-1-26-11-44-31-8-10-13-15-15-17-13-16-19-25-19-27 1-7 4-10 11-10l11-1 4-2c20-3 31-20 33-51 2-45-20-78-67-101l-205-103c-28-14-47-21-56-21-8-1-14 2-21 9-6 6-9 15-9 26-1 16 5 39 18 69 13 30 30 60 53 91l21 30c2 4 3 7 3 10 0 4-2 6-4 6-4 0-11-7-21-20-10-12-20-26-30-42-8-11-16-25-26-43-9-17-19-35-27-53-24-48-36-87-34-118 1-19 7-33 17-44 10-10 23-14 40-14 12 1 27 4 44 10 18 6 39 15 64 27l179 85c31 15 56 23 74 24 13 1 20-8 21-25 0-6-1-15-3-29 0-5-1-10 0-14 0-7 1-10 4-10 3 0 6 6 10 19l12 35c6 15 9 31 11 46 2 16 3 29 2 40-2 34-17 50-46 48-4 0-8-1-12-1-3-1-8-3-14-4l46 83c8 14 13 26 16 35 3 9 4 18 3 27-1 18-5 33-13 44-8 12-18 18-31 17zm-316-597c-7 0-21-18-40-53-24-43-39-74-47-94-8-20-12-38-11-53 2-28 13-42 33-40 7 0 17 3 29 7 12 4 27 11 46 19l83 32c-55-57-97-115-127-175-31-60-44-112-41-158 2-37 15-65 37-86 23-21 52-30 87-27 60 4 117 30 171 77 53 47 96 110 128 188 31 74 44 145 40 211-3 43-13 77-30 102-16 25-38 39-63 41l-323-125h-1c-2-1-5-2-8-2-3-1-5-1-7-1-7 0-10 2-11 7 0 3 1 7 2 13 2 3 3 5 3 7 1 2 2 5 4 7 6 12 14 26 23 43 9 17 16 29 23 38 4 7 6 12 6 15-1 5-3 8-6 7zm271-106c15 1 26 0 34-5 8-4 15-11 22-21 15-24 23-54 26-90 5-74-15-137-60-187-16-19-33-36-52-52-18-15-37-29-57-41-19-11-39-20-59-27-20-7-38-11-56-12-27-2-50 5-69 21-19 16-30 37-31 63-1 13 1 31 7 53 5 22 12 42 21 61 21 45 46 83 74 115 14 16 31 31 48 45 18 14 35 27 54 38 18 12 35 21 53 28 17 6 32 10 45 11zm447 1357c-5-1-11-3-17-8h-2l-613-341c-2-1-5-7-10-17-4-10-7-21-11-33l-8-29c1-3 0-5 0-6 0 0 0-1 0-3 2-1 3-1 4-1 2 0 6 1 11 3 6 2 12 4 18 7l9 5 471 236 7 3c13 4 25 8 34 13 10 5 18 8 25 9 10 1 17-2 22-9 4-8 8-21 12-41h1c1-8 3-12 6-12 3 1 5 4 7 11l46 163c4 11 5 22 4 31-1 13-6 20-16 19zm-803-374c-15-2-27-9-34-22-1-2-2-5-3-8-5-11-9-21-11-29-3-7-8-19-15-35l-6-12c-3-7-4-13-4-17 1-4 3-6 6-5 2 0 4 1 5 2 7 3 12 6 17 8 4 1 9 3 14 3 23 2 39-10 48-36l5-16c2-3 4-4 5-4 0 0 2 3 4 9l21 61 4 14c7 17 10 32 9 44-1 12-8 22-21 31-14 9-28 13-44 12z" fill="none" fill-rule="nonzero" stroke-width="50"/><g fill="#201e1e" stroke-width="7.62"><path d="m15087 17997c-123-191-234-283-433-268-220 15-351 246-329 465 52 531 502 877 913 1089 351-424 703-848 657-1243-26-219-225-383-445-368-199 14-287 120-363 325zm419-114c0 0 326 133-40 650 508-212 325-806 40-650z"/><path d="m15120 18030c-113-181-217-263-408-230-211 37-367 245-348 463 35 396 452 724 869 1053 348-463 695-925 660-1321-19-218-206-366-417-329-191 34-278 150-356 364zm404-155c0 0 310 102-53 660 492-263 331-846 53-660z"/><path d="m16703 15984c-210-352-415-517-813-473-440 48-804 512-738 913 167 1006 979 1771 1758 2139 775-836 1415-1575 1341-2372-38-408-256-803-696-754-399 44-574 159-852 547zm772-122c0 0 558 306-97 1321 892-406 647-1553 97-1321z"/><path d="m16540 15035c-59-89-115-130-219-113-115 18-189 140-183 248 13 264 238 415 446 502 195-229 389-458 375-654-7-108-107-181-222-163-104 17-152 74-197 180zm221-77c0 0 166 51-38 327 270-130 191-419 38-327z"/><path d="m17485 14809c-30-46-59-66-112-58-59 9-97 72-95 128 7 135 123 213 230 257 99-117 199-235 192-336-4-55-55-92-114-83-53 8-78 38-101 92zm113-39c0 0 86 26-19 168 139-67 98-215 19-168z"/><path d="m16993 14164c-61-92-118-134-225-117-119 19-195 145-190 257 14 271 246 428 461 517 200-236 401-473 387-675-8-111-111-186-229-167-107 17-158 76-204 185zm228-79c0 0 172 52-39 337 279-134 197-432 39-337z"/><path d="m16367 13531c-48-72-93-106-178-92-93 15-153 114-149 202 11 214 194 337 363 407 158-186 315-372 304-531-6-88-87-147-180-132-84 14-124 60-160 146zm179-62c0 0 135 41-30 265 219-105 154-340 30-265z"/><path d="m17886 14031c-48-73-93-106-178-93-93 15-153 114-149 203 11 214 194 337 363 407 158-186 316-372 305-531-7-88-87-147-181-132-84 13-124 60-160 146zm179-63c0 0 136 41-30 266 219-106 154-340 30-266z"/><path d="m17223 12209c-100-186-201-276-406-264-227 13-391 235-399 448-18 515 396 855 786 1065 417-408 833-815 839-1199 3-212-178-374-405-361-205 12-309 114-415 311zm444-105c0 0 315 131-128 629 547-200 440-778 128-629z"/><path d="m18427 11801c-55-84-107-122-205-106-107 17-177 131-172 233 13 247 224 389 419 470 182-215 364-429 351-613-7-101-100-170-208-152-97 15-143 69-185 168zm207-72c0 0 156 48-35 307 253-122 178-393 35-307z"/><path d="m17566 10485c-115-174-223-254-426-221-224 35-369 273-358 485 25 514 465 810 871 979 379-447 759-894 732-1276-15-211-209-354-433-318-203 32-298 144-386 351zm432-150c0 0 324 99-74 639 527-255 372-818 74-639z"/><path d="m17418 9235c-78-119-152-173-291-151-153 24-252 187-244 331 17 351 317 553 595 668 258-305 517-610 499-871-10-144-143-241-296-216-138 22-203 98-263 239zm295-102c0 0 221 67-50 436 359-174 253-559 50-436z"/><path d="m16841 8355c-30-47-59-68-113-59-60 9-98 73-96 129 7 137 124 215 232 260 101-119 202-238 195-339-4-56-55-94-115-85-54 9-79 39-103 94zm115-40c0 0 86 26-19 170 140-68 98-218 19-170z"/><path d="m18213 9652c-30-46-59-67-113-59-60 10-98 73-96 129 7 137 124 216 232 261 101-119 202-238 195-340-4-56-56-94-115-84-54 8-79 38-103 93zm115-40c0 0 86 26-20 170 141-68 99-218 20-170z"/><path d="m17945 7615c-98-175-195-259-390-245-216 16-370 230-374 433-10 491 388 807 763 1001 390-395 781-789 781-1155 1-202-174-353-390-337-195 15-293 113-390 303zm420-108c0 0 302 120-113 601 519-199 409-747 113-601z"/><path d="m16678 6940c-80-122-155-177-297-155-156 25-257 191-250 339 18 359 325 565 608 683 264-312 529-624 510-891-10-147-145-246-302-221-141 22-207 100-269 245zm301-105c0 0 227 69-51 446 368-178 259-571 51-446z"/><path d="m17200 5218c-107-164-209-238-399-208-210 34-346 257-336 455 24 483 436 760 817 918 356-419 711-838 686-1197-14-198-196-331-406-297-190 30-279 135-362 329zm405-141c0 0 305 93-69 599 495-239 349-767 69-599z"/><path d="m17120 4592c-33-50-64-73-122-63-65 10-106 78-103 139 7 148 133 232 250 281 109-128 218-257 210-366-4-61-60-102-124-92-59 10-86 42-111 101zm124-43c0 0 93 29-21 183 151-73 106-234 21-183z"/><path d="m16331 3957c-65-100-127-145-243-127-127 20-210 156-204 277 15 293 265 461 497 557 216-254 432-509 417-727-9-120-119-201-247-181-116 19-170 82-220 201zm246-86c0 0 185 56-42 364 301-145 212-466 42-364z"/><path d="m15544 3968c-33-50-63-73-121-63-64 10-105 78-102 138 7 147 132 231 248 279 108-128 216-255 208-364-4-60-59-100-123-90-58 9-85 41-110 100zm123-43c0 0 93 28-21 182 150-73 106-233 21-182z"/><path d="m16563 6296c-30-46-58-66-111-58-59 10-97 72-94 127 7 135 122 212 228 257 100-117 199-234 192-335-4-55-55-92-114-83-53 9-78 38-101 92zm113-39c0 0 85 26-19 167 138-67 97-214 19-167z"/><path d="m17552 6779c-30-46-59-67-112-58-59 9-96 72-94 127 7 135 122 212 229 256 99-117 198-234 191-334-4-55-55-92-113-83-53 8-78 38-101 92zm113-39c0 0 85 26-19 167 138-67 97-214 19-167z"/><path d="m18090 12995c-36-55-71-80-135-70-71 11-117 87-114 154 8 163 148 257 277 311 120-142 240-284 232-405-5-67-66-113-137-101-65 10-95 46-123 111zm137-47c0 0 103 31-23 202 167-81 118-259 23-202z"/></g></g></g></g><path d="m14375 26323c593 308 1367 413 2024 394 495-14 1016-99 1480-284 386-154 773-396 1002-762 242-386 363-967 432-1416 101-647 140-1317 163-1972 19-535 25-1071 30-1607 4-450 6-904 25-1354 71-1661 195-3315 336-4971 125-1471 262-2942 352-4416 32-520 58-1041 76-1562 36-1016-120-2019-506-2956-352-852-876-1602-1535-2225-934-883-2100-1475-3329-1762-829-194-1705-178-2390 406-1083 925-1257 2898-1244 4249 6 549 43 1100 103 1646 54 490 128 980 222 1464 309 1583 938 3062 1325 4621 207 831 287 1717 321 2574 39 955 20 1915-8 2871-25 880-60 1761-69 2641-9 791-1 1595 80 2381 87 836 343 1642 1110 2040z" fill="none" stroke="#fefefe" stroke-width="7.62"/><path d="m6607 26323c767-398 1023-1204 1110-2040 81-786 89-1590 80-2381-9-880-44-1761-69-2641-28-956-47-1916-8-2871 34-857 114-1743 321-2574 387-1559 1016-3038 1325-4621 94-484 168-974 222-1464 60-546 97-1097 103-1646 13-1351-161-3324-1244-4249-685-584-1561-600-2390-406-1229 287-2395 879-3329 1762-659 623-1183 1373-1535 2225-386 937-542 1940-506 2956 18 521 44 1042 76 1562 90 1474 227 2945 352 4416 141 1656 265 3310 336 4971 19 450 21 904 25 1354 5 536 11 1072 30 1607 23 655 62 1325 163 1972 69 449 190 1030 432 1416 229 366 616 608 1002 762 464 185 985 270 1480 284 657 19 1431-86 2024-394" fill="#fefefe"/><g clip-path="url(#1)"><g fill="#201e1e"><path d="m1014 6786c26 4 53 11 80 20 27 9 54 21 80 35 26 14 50 30 74 49 24 18 45 38 64 58 19 21 38 44 57 71 19 27 37 57 56 91 16 30 30 56 41 78 11 22 21 45 31 68 9 23 18 48 27 73 9 26 18 57 28 93 22-64 36-117 42-160 9-68 3-129-19-181-10-23-20-44-33-61-12-18-28-37-48-59-3-2-5-6-4-11 1-6 3-8 6-8 6 1 16 9 30 24 14 15 28 32 41 50 11 15 20 31 29 48 9 16 17 32 25 48 23 53 30 112 21 177-1 7-2 14-3 20 0 7-2 14-4 20-2 15-5 29-9 42-1 3-2 8-5 18-3 9-7 21-11 37l-8 36-15 49c-8 26-15 52-21 78-7 27-10 48-12 64l-2 29c-2 12-4 17-8 17-2-1-5-3-7-7-3-5-6-14-11-26l-13-39c-4-10-5-22-4-34 1-2 1-6 2-12 1-5 3-14 6-25 3-11 5-19 7-25 1-6 2-12 3-19 5-37 4-73-2-106-6-33-18-68-37-106-37-77-80-144-131-202-53-62-107-110-162-143-54-33-113-55-176-64-115-16-180 35-196 154-10 74 4 146 41 218 38 72 97 137 178 197 30 22 59 43 88 63 29 20 61 41 96 63 35 22 74 46 118 71 43 26 94 55 153 88 42 24 80 46 113 65 34 19 61 34 81 43 10 6 18 10 25 13 6 3 12 6 16 8 12 6 23 13 33 23 11 10 18 23 23 41 4 18 5 37 2 57-7 52-31 75-72 69-7-1-13-2-19-5-6-2-14-6-25-12-18-9-49-25-92-47-42-22-93-49-153-80l-178-96-218-114-114-59c-17-10-32-17-45-23-12-6-23-11-32-14-9-3-17-6-23-8-7-1-14-3-21-4-32-4-51 13-56 51-3 21 1 50 10 90l2 15c3 7 4 12 4 15-1 5-3 7-7 7-2-1-5-5-8-15-4-9-8-26-12-50l-24-103-1-9c-3-17-5-31-6-42-1-11-1-22 0-32 5-39 23-56 54-52 9 1 19 4 30 9 10 4 21 9 33 15l7 5 823 443c17 10 31 17 43 22 11 5 21 8 30 9 19 3 30-6 33-27 2-13-1-23-9-32-7-10-21-20-42-31l-59-33c-12-8-31-19-56-34-26-16-60-36-102-61-24-14-50-30-79-47-29-18-61-36-96-56-65-39-120-72-166-100-46-29-85-55-117-78-32-23-59-45-80-65-21-20-40-40-56-60-20-26-38-56-54-89-16-33-30-67-40-102-11-35-18-70-22-105-4-34-4-66 0-96 9-65 35-114 76-145 42-32 97-43 163-33zm523-575c38 12 74 39 108 81 35 42 64 94 89 155 20 52 32 101 37 149 5 47 2 90-9 127-7 25-18 46-32 64-14 18-31 33-50 44-18 11-39 18-61 21-22 3-44 1-67-7-39-12-75-41-108-86-33-45-56-98-70-159-9-37-14-71-17-103-3-32-3-53 0-63 1-3 2-4 4-4 1 1 3 3 3 6v2c1 10 3 20 5 29 2 9 4 19 6 30 16 63 41 116 75 161 34 45 72 74 115 88 40 12 76 11 107-4 30-15 51-41 62-79 10-33 12-68 7-105-6-36-17-70-34-101-18-32-40-60-66-85-27-25-57-42-91-53-15-5-29-8-42-8-13-1-27 0-41 3-15 3-26 9-33 18-7 8-15 23-22 45-4 15-8 26-10 30-3 5-5 7-8 7-2-1-4-11-5-30v-4-83c0-5 0-10 0-12 0-3 1-6 2-8 5-17 17-31 35-42 20-14 39-22 58-26 19-4 37-3 53 2zm114-607c11 5 21 20 31 46 4 12 6 19 8 21 7 19 9 30 8 33-3 6-7 7-14 4l-10-2h-4c-20-5-36 7-49 35-17 41-8 81 28 120l156 172c22 23 36 36 44 40 8 4 15 3 23 0 8-4 14-11 18-21 7-15 9-39 7-71-2-33-8-68-18-105l-9-35c-1-5-1-9 0-11 2-4 4-5 6-4 4 1 8 10 13 26 5 15 10 32 14 50 3 14 6 30 9 50 3 20 5 40 7 60 6 53 3 94-9 122-8 18-18 29-31 35-13 6-27 5-42-2-12-5-24-14-39-25-14-12-30-28-49-49l-138-146c-25-26-45-42-61-50-12-5-21 0-28 16-2 5-5 14-8 27-1 6-2 10-4 14-3 6-5 9-8 8-2-2-3-9-2-22v-37c0-16 2-32 6-47 4-16 8-28 12-38 13-31 33-40 59-28 4 2 8 4 11 6 3 2 7 5 12 9l-14-95c-3-17-4-29-3-39 1-9 3-18 6-27 7-16 17-28 28-36 12-8 23-9 34-4zm600-938c32 23 59 60 80 110 22 51 35 109 42 176 4 55 2 106-7 153-8 47-23 87-45 119-13 21-30 39-48 52-19 13-39 22-60 27-21 4-42 5-64 1-22-4-43-13-62-26-35-24-61-63-80-116-18-53-26-111-22-173 2-38 7-72 13-104 6-31 12-52 18-61 1-2 3-2 4-1 2 1 2 3 2 6l-1 2c-1 10-2 20-3 29-1 9-2 20-2 30-3 65 5 124 25 177 20 53 49 93 86 119 35 24 69 34 103 29 33-5 61-24 82-56 19-30 31-62 36-99 5-36 4-72-4-107-8-36-21-70-39-101-19-32-43-58-72-78-13-10-26-17-38-21-12-5-26-8-41-10-15-1-27 1-36 7-9 6-20 18-33 37-9 13-15 22-19 26-4 4-7 5-9 4-2-2-1-12 4-30l1-4 23-79c1-6 2-10 3-12 2-3 3-5 4-7 10-15 25-25 46-29 23-7 44-10 63-8 19 2 36 8 50 18zm465-698c13 13 24 30 32 50l5 7 105 229c11 24 21 39 30 47 11 11 23 10 36-4l6-8c0 0 1-3 3-8 0 0 2-4 4-13 3-5 4-8 4-9 1-2 2-3 4-5 5-6 10-7 15-3 2 2 3 5 3 9 0 3-1 10-3 19-17 62-35 104-54 126-21 23-43 24-67 1-8-7-15-16-21-25-6-9-12-22-20-38l-74-165c-14-29-26-52-35-68-10-16-19-29-28-37-17-16-34-13-51 7-9 10-17 25-25 46-8 21-15 44-21 70-6 27-11 54-14 83-3 29-5 57-5 84 0 36 3 68 10 97 7 28 18 57 31 86 7 13 15 28 24 43 10 16 19 30 28 43 5 7 10 13 13 18 3 5 5 8 6 11 2 4 3 6 5 8 4 5 2 12-5 20l-47 54c-5 6-9 8-12 5-2-1-4-6-8-12l-94-187c-5-8-8-14-11-18-2-4-4-8-4-10-4-7-8-15-14-25-6-10-13-21-21-35-15-25-28-45-38-60-10-14-20-26-29-35-6-6-12-6-17 0-2 2-4 5-7 9-3 4-8 11-15 23l-6 6-11-11 67-158c2-4 5-8 9-12 8-10 16-12 21-6 4 3 6 5 6 8l3 2v3l34 64 64 139c0-7 0-13 0-19-1-6-1-10 0-13-1-25 0-47 1-68 1-21 3-42 6-62 3-21 7-42 12-64 5-22 10-46 17-73 11-40 22-72 32-96 11-24 22-44 35-59 13-15 28-24 43-26 15-2 30 3 43 15zm422-1048c4 5 6 10 7 15l218 666c6 19 10 33 13 43 3 11 6 20 9 28 16 39 27 63 36 74 12 16 28 15 47-1 12-10 21-24 28-42 7-18 14-45 20-79l6-32v-3l4-17c1-7 2-12 3-14 1-3 2-5 4-6 2-2 4-3 5-3 2 0 3 0 3 1 2 2 2 11 0 29-1 17-4 36-9 58-23 101-53 168-90 198-30 26-60 20-88-17-8-10-16-25-23-45-4-5-6-11-8-20-7-19-13-39-20-59-6-20-12-39-18-57-7-26-13-46-19-58-6-13-12-24-20-34-21-27-51-40-89-38-38 1-75 17-110 47-41 34-62 79-64 136-2 85 26 163 81 234 27 35 54 55 79 60 26 4 53-5 83-30 39-33 64-76 73-129l6-34v-3c1-1 2-2 3-3 1-1 2-1 3-2 1 1 2 1 2 1 1-1 1 0 2 0 1 2 2 10 1 23-1 13-3 27-6 42-15 82-45 140-88 177-37 31-76 43-118 36-42-6-78-30-110-70-56-71-73-163-50-274 17-94 57-168 121-222 32-27 65-43 98-47 16-2 28-3 38-1 10 2 22 7 37 16l-140-402c-5-15-10-26-16-34-12-14-26-15-42-1-7 6-17 18-30 38-8 9-11 14-10 13-4 3-8 3-10 0-3-4-1-10 7-20l43-61c25-35 44-59 60-71 17-15 30-17 38-6zm678 79c8 13 12 30 11 51-1 22-6 46-14 73-9 27-21 55-37 85-15 31-33 61-53 91l-20 31-15 20c-1 2-5 5-10 9-5 3-8 4-9 1-2-2 0-7 4-14l2-2c1-3 4-6 7-11 36-55 60-105 71-150 11-45 7-81-10-107-8-13-20-20-35-20-15-1-32 6-50 18-26 19-43 42-53 70-12 37-13 80-6 130 9 50 26 96 54 138 47 73 106 85 176 36 26-19 50-41 69-68 20-26 34-53 42-81l8-27c2-3 3-5 4-6 3-2 5-2 7 0 6 10 2 35-14 74-31 82-73 142-126 179-44 31-87 44-127 38-41-6-74-29-101-70-24-37-39-79-45-127-6-48-2-98 11-150 12-46 31-89 56-128 24-40 52-70 82-91 22-15 44-22 68-21 24 2 41 11 53 29zm745-1029c0 2 1 3 1 5 0 2 0 5 0 8l-5 54c0 6-3 11-8 14l-8 3-18 8-23 10c-7 3-14 6-18 8-5 2-8 4-11 5-16 9-26 18-31 29-4 11-5 30-2 58l4 36 29 317 125-63 8 8c-1 2-2 4-2 4-5 20-9 32-12 36 0 2-1 4-2 5-1 1-1 2-2 3-6 6-16 13-30 20l-77 39 40 401 2 13c1 8 1 16 1 22 0 6 0 10 0 12-4 14-18 28-44 41-25 12-40 13-45 1-2-3-3-9-3-18-1-9-1-23-2-43 0-12 0-29-2-54-2-24-5-57-8-98l-19-200-3-35-125 63 4-58 112-57-22-226c-1-22-2-40-3-57-1-16-2-30-1-43 0-13 1-25 3-36 1-11 3-22 6-34 5-17 13-36 23-55 11-19 24-37 39-55 15-18 31-34 49-49 18-16 36-28 54-37 9-4 16-7 19-8 3 0 5 1 7 3zm666 342c14 39 15 85 5 139-11 54-32 110-63 169-27 47-57 88-90 121-34 33-68 57-103 71-23 9-46 14-68 13-23 0-44-5-64-13-20-9-38-21-53-37-16-17-28-36-37-59-15-40-15-87-1-142 14-54 40-106 78-155 22-30 45-55 67-78 23-22 39-35 49-39 2-1 4 0 4 2 1 1 0 3-2 6l-1 1c-7 7-14 15-19 22-6 7-12 15-19 24-38 51-64 104-77 160-13 55-11 104 5 148 15 41 38 69 68 85 30 16 63 16 98 2 32-12 60-32 84-59 24-26 43-57 57-90 13-34 21-69 23-106 2-37-3-73-15-107-6-15-13-28-20-40-8-11-17-21-28-32-12-10-23-15-34-15-10-1-26 2-47 10-15 6-25 9-30 10-5 1-8 0-9-2-1-3 5-10 19-22l3-3 63-51c4-4 7-7 9-8 3-1 5-2 7-3 16-7 34-6 54 3 22 8 41 18 56 31 14 14 25 28 31 44zm521-270c3 11-1 29-14 54-6 10-10 17-10 20-10 17-17 26-19 27-6 2-11-1-13-8l-4-10-3-3c-10-19-29-24-57-16-42 13-65 46-71 99l-26 234c-4 33-4 53-2 62 2 8 7 14 15 18 8 3 17 4 27 1 15-5 34-18 57-41 23-22 45-49 66-81l20-30c3-4 6-6 8-7 4-1 6 0 7 2 1 4-3 13-11 27-8 14-18 29-29 43-7 11-18 24-30 39-13 16-26 30-40 45-35 39-67 63-96 71-18 5-33 5-45-2-13-7-22-18-26-35-4-12-6-28-6-47-1-18 1-42 4-70l19-204c3-36 3-63-2-80-4-13-14-17-30-13-5 2-13 6-25 12-5 3-9 4-13 5-6 2-10 2-11-1 0-2 4-8 14-15l28-24c12-10 25-19 39-26 14-7 26-12 36-15 31-9 51 1 59 30 1 4 2 8 2 12 0 3 1 9 1 15l61-72c10-13 19-22 26-27 8-6 16-10 25-12 16-5 31-6 44-1 13 4 22 12 25 24zm323 310c2 11-1 22-9 33-8 11-24 25-48 40l-37 24c-6 4-10 6-13 7-2 0-4-1-4-4 0-2 0-3 1-5l1-13c2-12 2-22 1-31-4-17-16-28-39-34l-18-3c-3-2-5-4-5-6-1-3 4-8 13-14l2-2 68-48c5-4 11-7 19-8 6-2 13 0 20 4 13 8 23 17 32 28 8 12 14 22 16 32zm402-73c1 10-3 21-11 32-9 11-25 23-50 36l-39 21c-6 4-10 6-13 6-3 1-4-1-4-3-1-2 0-4 1-6l2-13c3-11 4-21 3-30-2-17-14-30-36-37l-18-5c-3-1-5-3-5-6 0-3 4-7 14-13l2-1 72-44c4-3 11-5 18-6 7-1 14 1 21 5 11 9 21 19 29 31 8 12 13 23 14 33zm409-53c-1 11-6 21-16 30-11 9-29 18-56 27l-41 14c-7 2-12 3-14 3-3 0-4-1-4-4 0-2 1-4 2-6l5-12c4-10 7-20 7-29 1-18-9-32-29-43l-17-8c-3-2-4-4-4-7 0-2 6-6 16-10l2-1 78-30c6-3 12-4 20-3 7 0 13 3 19 9 10 11 18 23 24 36 6 13 8 24 8 34z" stroke="#201e1e" stroke-width="50"/><g font-family="&apos;Arial Black&apos;" font-weight="900" font-size="529.17"><text x="10500" y="14850" transform="matrix(1.13196 0 0 1.17462-4281.01-8994.93)">NN 1</text><text x="10500" y="14850" transform="matrix(1.13196 0 0 1.17462-4283.5-8422.57)">NN 2</text></g><g stroke="#201e1e" stroke-width="7.62"><path d="m4435 20771c417-515 776-748 1375-653 661 105 1001 805 883 1428-287 1512-1734 2381-3027 2878-961-1314-1923-2629-1686-3753 130-621 773-1039 1434-934 599 95 839 424 1021 1034zm-1241-442c0 0-1019 290-38 1877-1486-748-787-2405 38-1877z"/><path d="m4721 19217c110-135 204-196 361-171 174 27 263 211 232 374-75 397-455 625-795 756-252-345-504-690-442-985 34-163 202-273 376-245 157 25 220 111 268 271zm-326-116c0 0-267 76-10 493-390-197-206-632 10-493z"/><path d="m3347 18765c56-69 105-101 185-88 89 14 135 108 119 192-38 204-233 321-407 388-130-177-260-354-228-506 18-83 104-140 194-125 80 12 113 57 137 139zm-167-60c0 0-137 39-5 253-200-101-106-324 5-253z"/><path d="m4218 17807c113-139 210-203 372-177 179 29 271 218 239 387-77 409-469 644-819 779-260-356-521-712-457-1016 36-168 210-281 389-253 162 26 227 115 276 280zm-336-120c0 0-276 79-10 508-403-202-213-651 10-508z"/><path d="m5193 16990c89-110 166-160 293-139 141 22 214 171 188 304-61 322-369 508-645 614-205-281-410-561-359-800 28-133 165-222 305-199 128 20 179 90 218 220zm-264-94c0 0-218 61-9 400-316-160-167-513 9-400z"/><path d="m2998 17483c89-109 166-159 293-139 141 23 214 172 188 304-61 323-369 508-645 614-205-280-410-560-359-800 28-132 165-221 305-199 128 20 179 90 218 220zm-264-94c0 0-218 62-9 400-316-159-167-512 9-400z"/><path d="m2171 15909c158-195 294-284 522-248 251 40 380 306 335 542-109 575-658 905-1149 1094-365-500-731-999-641-1426 50-236 294-394 545-354 227 36 319 161 388 392zm-472-168c0 0-387 110-14 713-564-284-299-913 14-713z"/><path d="m4242 14888c215-264 399-384 706-335 340 54 514 413 453 733-147 776-889 1222-1553 1477-493-675-987-1349-865-1926 67-319 396-533 736-479 307 48 430 217 523 530zm-636-227c0 0-523 149-20 964-762-384-404-1234 20-964z"/><path d="m2171 14163c103-127 191-184 338-161 163 26 246 198 217 351-70 372-426 586-744 708-236-323-473-646-415-923 32-152 190-255 353-229 147 23 206 104 251 254zm-305-109c0 0-251 71-9 462-366-184-194-592 9-462z"/><path d="m3496 12193c214-263 397-383 704-334 339 54 513 412 452 731-147 775-888 1220-1550 1474-492-673-985-1346-864-1922 67-318 396-532 735-478 307 49 430 217 523 529zm-636-226c0 0-522 149-19 961-761-383-403-1231 19-961z"/><path d="m4184 10372c146-179 272-261 481-228 231 37 350 282 309 499-100 529-606 833-1058 1006-336-459-672-919-590-1312 46-216 270-363 502-326 209 33 293 148 356 361zm-433-154c0 0-357 101-14 656-519-261-275-840 14-656z"/><path d="m5924 9238c57-70 106-102 187-89 90 15 137 110 121 195-39 206-237 324-413 392-131-179-262-358-230-511 18-85 106-142 196-128 81 13 114 58 139 141zm-169-60c0 0-139 39-5 256-203-102-108-328 5-256z"/><path d="m2740 10766c57-70 106-102 188-89 90 14 136 110 120 194-39 207-236 325-412 393-131-179-263-359-230-512 17-84 105-141 195-127 82 13 115 58 139 141zm-169-60c0 0-139 39-5 255-203-102-107-327 5-255z"/><path d="m4504 7881c204-251 380-365 672-318 323 51 489 393 431 697-140 738-846 1163-1478 1406-469-642-939-1284-824-1833 64-304 378-508 701-456 293 46 410 207 498 504zm-605-215c0 0-498 141-19 916-726-365-385-1174 19-916z"/><path d="m6552 6906c177-218 329-317 583-277 280 45 424 341 374 605-121 641-735 1010-1283 1220-407-557-815-1114-715-1591 56-263 328-440 608-395 254 40 356 179 433 438zm-526-188c0 0-432 123-16 796-630-317-334-1019 16-796z"/><path d="m6081 4532c201-247 373-359 660-314 318 51 481 387 424 686-137 726-832 1144-1453 1382-462-631-924-1262-810-1802 63-298 371-499 689-449 287 46 403 204 490 497zm-596-212c0 0-489 139-18 901-714-359-378-1155 18-901z"/><path d="m6289 3626c62-76 115-110 203-96 97 16 147 118 129 210-42 222-254 350-444 423-142-193-283-386-248-552 19-91 113-152 210-137 88 14 124 62 150 152zm-182-65c0 0-150 43-6 276-218-110-115-353 6-276z"/><path d="m7582 2804c122-150 226-218 401-190 193 30 292 235 258 416-84 442-506 695-884 840-280-383-561-767-492-1095 38-181 226-303 419-272 175 27 245 123 298 301zm-362-129c0 0-298 85-11 548-434-218-230-702 11-548z"/><path d="m8795 2821c61-75 113-109 200-95 97 15 146 118 129 208-42 221-253 348-441 420-141-191-281-383-246-547 19-91 112-152 209-136 87 13 122 61 149 150zm-181-64c0 0-149 42-6 274-217-109-115-351 6-274z"/><path d="m6215 24097c207-256 385-371 682-324 329 52 497 399 439 708-143 751-861 1182-1503 1429-477-652-954-1305-837-1863 65-308 384-515 712-463 297 47 417 210 507 513zm-616-219c0 0-506 143-19 931-738-371-391-1193 19-931z"/></g></g></g><path d="m6607 26323c767-398 1023-1204 1110-2040 81-786 89-1590 80-2381-9-880-44-1761-69-2641-28-956-47-1916-8-2871 34-857 114-1743 321-2574 387-1559 1016-3038 1325-4621 94-484 168-974 222-1464 60-546 97-1097 103-1646 13-1351-161-3324-1244-4249-685-584-1561-600-2390-406-1229 287-2395 879-3329 1762-659 623-1183 1373-1535 2225-386 937-542 1940-506 2956 18 521 44 1042 76 1562 90 1474 227 2945 352 4416 141 1656 265 3310 336 4971 19 450 21 904 25 1354 5 536 11 1072 30 1607 23 655 62 1325 163 1972 69 449 190 1030 432 1416 229 366 616 608 1002 762 464 185 985 270 1480 284 657 19 1431-86 2024-394z" fill="none" stroke="#fefefe" stroke-width="7.62"/><g fill="#201e1e" font-family="&apos;Arial&apos;" font-size="423.33"><text x="300" y="28462">DESC 1</text><text x="307" y="28909">DESC 2</text><text x="315" y="29376">DESC 3</text></g></svg>