<svg xmlns="http://www.w3.org/2000/svg" width="744.09" height="1052.36" viewBox="0 0 21000 29700" shape-rendering="geometricPrecision" image-rendering="optimizeQuality" fill-rule="evenodd" clip-rule="evenodd"><defs><clipPath id="0"><path d="m14347 26810c605 319 1397 427 2068 408 507-15 1039-103 1514-295 394-159 790-410 1024-789 248-399 371-1000 442-1465 102-671 143-1364 166-2043 20-554 26-1109 31-1663 4-467 6-937 26-1403 72-1720 199-3432 343-5147 128-1523 267-3047 360-4573 33-538 59-1077 78-1617 36-1052-123-2091-518-3062-359-881-895-1658-1569-2303-954-914-2147-1528-3403-1825-847-201-1743-184-2443 421-1108 957-1286 3001-1272 4400 6 569 44 1138 105 1703 56 509 131 1016 228 1517 315 1639 958 3170 1354 4785 211 861 293 1778 328 2665 40 989 20 1984-8 2973-26 912-61 1823-71 2735-9 818 0 1651 82 2465 89 866 351 1700 1135 2113"/></clipPath><clipPath id="1"><path d="m6569 26810c784-413 1046-1247 1134-2113 83-814 92-1647 83-2465-10-912-46-1823-71-2735-28-989-48-1984-9-2973 36-887 118-1804 329-2665 396-1615 1038-3146 1354-4785 96-501 172-1008 227-1517 62-565 100-1134 105-1703 14-1399-164-3443-1271-4400-700-605-1596-622-2443-421-1256 297-2449 911-3404 1825-673 645-1209 1422-1568 2303-396 971-554 2010-518 3062 18 540 45 1079 78 1617 92 1526 232 3050 360 4573 144 1715 270 3427 343 5147 20 466 21 936 26 1403 5 554 11 1109 30 1663 24 679 64 1372 167 2043 71 465 194 1066 441 1465 235 379 631 630 1025 789 474 192 1006 280 1513 295 671 19 1463-89 2069-408"/></clipPath></defs><text x="10081" y="23623" fill="#201e1e" font-family="&apos;Arial Black&apos;" stroke="#201e1e" font-weight="900" stroke-width="7.62" font-size="705.56">42</text><g fill="none" stroke="#373435" stroke-width="80"><circle cx="10533" cy="1326" r="460"/><path d="m10533 515v1621"/><path d="m9723 1326h1621"/><circle cx="10533" cy="24995" r="460"/><path d="m10533 24184v1621"/><path d="m9723 24995h1621"/></g><g fill="#fff"><rect x="9508" y="21571" width="1347" height="637" rx="318" stroke="#fff" stroke-width="20"/><path d="m14347 26810c605 319 1397 427 2068 408 507-15 1039-103 1514-295 394-159 790-410 1024-789 248-399 371-1000 442-1465 102-671 143-1364 166-2043 20-554 26-1109 31-1663 4-467 6-937 26-1403 72-1720 199-3432 343-5147 128-1523 267-3047 360-4573 33-538 59-1077 78-1617 36-1052-123-2091-518-3062-359-881-895-1658-1569-2303-954-914-2147-1528-3403-1825-847-201-1743-184-2443 421-1108 957-1286 3001-1272 4400 6 569 44 1138 105 1703 56 509 131 1016 228 1517 315 1639 958 3170 1354 4785 211 861 293 1778 328 2665 40 989 20 1984-8 2973-26 912-61 1823-71 2735-9 818 0 1651 82 2465 89 866 351 1700 1135 2113"/></g><g clip-path="url(#0)"><g><g fill="#201e1e"><path d="m16633 23100c27 0 50 4 67 12 17 9 25 20 26 34-4 25-42 48-114 69-71 20-151 41-237 62 0 44 4 77 14 100 9 23 22 48 39 76 43-12 91-22 143-29 53-7 104-11 153-11 61 0 107 7 138 21 31 15 46 35 46 62 0 31-24 67-74 108-50 41-130 79-238 112 16 22 32 42 49 60 16 19 25 30 26 35 0 1-1 3-4 4-2 2-6 2-10 3-15-9-29-17-42-25-14-7-25-14-34-19-15-9-26-17-32-23-6-7-12-13-17-19-51 13-106 23-165 30-59 6-122 10-190 10-156-2-273-22-351-59-79-37-119-81-119-133 1-67 52-122 153-167 101-44 246-87 433-128 15-54 58-99 127-132 70-34 141-52 213-53zm-200 364c18 32 38 67 63 106 24 39 49 75 75 108 110-31 191-66 242-104 51-37 76-67 75-90-1-18-16-32-47-43-30-10-70-16-119-16-28 0-70 3-125 10-55 7-110 17-164 29zm-88 24c-67 21-121 40-164 57-42 17-90 38-144 63h-7c-1 0-2-1-3-2-1-1-2-2-2-3 4-7 36-23 97-49 62-26 134-52 216-77-15-23-26-48-36-74-10-26-15-50-16-73 0-5 1-10 1-14 1-5 1-10 1-16-132 30-239 67-320 109-81 42-122 93-125 151 1 49 36 88 105 119 69 31 163 47 282 48 56 0 107-4 153-11 47-7 86-14 119-21-23-27-49-61-80-100-31-40-56-76-77-107zm346-349c0-8-6-14-17-18-11-3-27-5-49-5-58 0-111 13-160 39-49 26-78 62-87 108 37-8 76-18 119-30 43-11 79-21 109-31 26-10 47-20 62-31 15-11 23-22 23-32z" stroke="#201e1e" stroke-linejoin="round" stroke-linecap="round" stroke-width="50"/><g font-family="&apos;Arial Black&apos;" font-weight="900" font-size="529.17"><text x="10500" y="14850" transform="matrix(1.15716 0 0 1.2163-425.19-9761.47)">NN 1</text><text x="10500" y="14850" transform="matrix(1.15716 0 0 1.2163-427.73-9168.8)">NN 2</text></g><g stroke="#201e1e" stroke-width="50"><g font-family="&apos;Cassandra&apos;" stroke-linejoin="round" stroke-linecap="round"><text x="10500" y="14850" font-size="856.8" transform="matrix(1.81325 0 0 1.2163-5857.56 4225.62)">Texto 01</text><g font-size="820.63" transform="matrix(1.79489 0 0 1.2163-5567.91 6926.76)"><text x="10500" y="14850">Texto 02</text><text x="10500" y="15930"/></g></g><text x="10500" y="14850" font-family="&apos;Menuet script&apos;" font-size="929.31" transform="matrix(1.04595 0 0 1.2163 3632.38 8546.49)">00.00.0000</text></g><path d="m13640 1848c1 11-4 22-14 32-10 10-28 20-54 31l-42 18c-7 3-11 4-14 5-3 0-4-2-4-5 0-2 1-3 2-5l4-13c3-12 5-22 5-31 0-18-11-32-33-42l-18-7c-2-2-4-4-4-7 0-3 5-7 16-12l2-1 77-37c6-3 12-4 20-4 7-1 14 2 20 8 11 10 20 21 27 35 7 13 10 24 10 35m418-24c-1 11-7 21-19 29-11 9-30 16-58 22l-44 11c-7 2-12 3-14 2-3 0-4-2-4-5 1-1 2-3 3-5l6-12c5-10 9-20 10-30 2-18-6-33-26-47l-17-9c-2-2-3-5-3-8 0-3 6-6 17-9l2-1 82-23c6-2 13-3 21-2 6 1 12 5 18 12 9 12 16 24 21 39 5 14 7 26 5 36m414 38c-2 11-9 20-21 27-12 8-32 13-60 17l-45 7c-7 1-12 1-14 1-3-1-4-3-3-6 0-1 1-3 3-5l7-11c6-10 10-20 12-29 4-17-3-34-22-49l-16-11c-2-3-3-5-2-8 0-3 6-5 18-7l2-1 83-16c6-2 13-1 21 1 6 1 12 5 17 13 9 12 15 26 18 40 4 15 5 27 2 37m851-118c-4 14-13 31-25 49-13 18-26 39-41 62l-8 14-302 406-12 3-83-28-5-11 203-258c-17 6-31 11-41 14-10 3-19 5-28 7-35 7-68 10-102 10-33-1-63-5-88-14-42-14-71-38-87-71-17-32-18-70-5-114 14-43 40-83 78-117 39-34 86-61 141-80 51-17 106-27 165-28 58-1 110 6 156 22 35 12 60 30 75 54 15 25 18 51 9 80m-99 0c8-26 6-50-8-72-13-22-36-38-68-49-12-4-27-7-44-9-17-2-33-2-47-1-37 2-69 10-96 24-36 19-69 47-99 84-30 37-51 76-64 118-20 64 5 108 73 131 29 10 59 15 89 13 28-2 54-9 77-20 23-11 46-28 69-52 30-31 56-60 76-89 21-28 35-54 42-78m818 576c-2 4-7 7-17 8l-24 5-31 5-52 7c-8 3-26 5-53 7-19 2-32 3-41 2-10 0-21-1-32-3-10-2-19-5-25-8-25-12-33-30-22-53l6-14 9-10 39-54c-76 15-138 22-188 20-49-1-92-11-130-29-58-28-76-67-55-114 5-12 14-27 26-43 11-16 27-35 48-57l148-162h2c3-4 6-7 7-10 1-3 2-6 4-9 4-10 2-17-8-22-5-2-12-4-21-4l-15-1c-9 0-13 0-13 0l-6-2c-7 0-11-1-12-1-5-2-6-6-4-11 1-3 3-4 5-5 3 0 9 0 19 1 3 0 19 2 45 3l51 5c7 0 14 1 22 1 8 1 16 1 25 2 11 0 19 0 23 1 5 0 8 1 10 2 12 6 16 14 12 25-2 4-6 8-10 12l-1 3-221 238c-13 14-23 25-29 33-5 8-10 15-13 23-15 33-1 61 43 82 7 4 15 7 23 9 9 3 16 4 21 5 26 4 58 5 95 1 44-5 79-12 102-21 24-8 46-21 67-38 14-13 29-27 43-42 14-16 32-36 54-62 18-22 31-38 38-46 7-9 11-15 13-20 5-12 2-21-10-26-9-5-16-7-22-6l-21-3-12-1-1 1-3-2c-4 1-6 1-7 0-4-2-5-4-4-6-1-2 0-4 1-6 0-2 3-3 6-3 4-1 13 0 25 1l107 7 6 1c26 2 45 5 57 11 6 3 11 7 13 13 3 5 3 10 2 14-2 3-4 6-7 10-3 5-7 9-12 13l-1 1-282 284-1 2c-3 3-5 7-8 13-5 12-1 21 12 28 16 7 37 8 63 1l39-9 44-8c16-3 24-4 24-4 1 0 2 0 2-1 1 1 2 1 3 1 1 0 2 0 3 1 7 3 10 8 7 14m663 3c-8 14-21 26-40 35-20 9-43 16-71 20-27 5-58 7-92 6-33-1-68-4-104-8l-36-5-25-5c-3-1-7-2-13-6-4-3-6-5-5-8 2-2 7-3 15-2l2 1c3 0 8 0 13 1 65 9 120 8 165-3 44-11 74-30 89-59 8-14 8-29 1-43-6-15-19-28-39-39-28-17-56-22-86-18-38 6-76 24-116 55-40 31-72 70-96 116-42 80-26 142 50 186 28 16 59 28 91 34 32 7 63 7 91 2l28-5c3 0 5 0 6 1 4 2 5 4 3 7-5 10-29 18-70 22-87 8-159-4-216-37-48-28-79-63-93-104-14-42-9-85 15-129 21-41 51-75 91-104 39-28 85-48 136-60 47-10 93-12 139-7 46 6 85 18 118 37 23 13 39 32 49 55 10 24 10 45 0 64m493 262c-7 10-24 18-50 24-12 1-20 3-23 4-19 3-30 3-32 2-6-4-7-9-2-16l4-10 1-5c8-20 0-39-25-58-36-26-76-24-121 6l-196 130c-27 19-43 32-48 39-5 7-6 15-4 24 2 9 7 17 16 24 13 9 36 16 68 21 32 4 67 5 104 2l37-3c4 0 8 1 10 2 3 3 4 5 3 8-2 3-12 5-28 8-16 2-33 4-51 4-14 1-30 1-50 0-20-1-40-2-60-4-52-4-91-16-116-34-15-11-25-24-28-39-3-15 1-30 10-45 8-11 18-22 32-35 14-13 33-27 57-43l168-116c30-21 50-39 60-55 8-11 5-22-9-33-5-3-13-7-26-13-5-2-9-5-12-7-5-4-7-7-6-10 2-2 9-2 21 2l36 8c16 3 31 8 45 15 14 7 26 14 34 20 28 20 33 43 16 68-3 4-5 8-8 10-3 3-6 7-11 11l95 4c16 1 28 2 37 5 9 2 17 6 25 12 14 10 24 22 29 36 6 14 5 26-2 37m484 505c-27 32-66 56-118 72-53 16-112 23-177 22-55-2-105-11-149-27-45-15-82-36-111-62-19-18-34-37-44-59-11-21-17-43-19-67-2-23 0-46 6-68 7-23 18-44 34-64 28-33 69-56 123-69 54-13 111-14 172-2 36 7 70 16 100 26 30 11 49 20 57 27 2 2 2 4 1 5-1 1-3 2-6 2l-2-2c-10-3-19-5-28-7-9-2-19-4-30-6-63-12-121-10-176 5-54 14-96 40-127 76-28 34-42 70-41 106 1 36 16 68 45 94 26 24 57 41 92 51 35 10 70 14 106 10 35-4 70-13 103-29 34-16 62-38 86-67 10-12 18-25 25-38 6-12 10-26 14-42 3-16 2-29-2-40-5-10-16-23-32-40-12-11-20-18-23-23-4-4-5-8-3-10 2-2 11 1 29 8l4 1 74 35c5 2 9 4 11 5 3 2 5 4 7 5 13 12 21 30 23 53 4 25 3 48-1 68-4 20-12 37-23 51m787 719c-18 14-38 18-61 10-4-2-9-4-14-6-4-3-7-5-9-7-1-1-1-3-1-4-1-2 0-3 0-4 2-1 4-2 6-2 7 0 14-3 21-9 17-14 23-35 19-63-3-28-16-56-38-86-23-31-47-52-72-62-24-10-45-7-63 7-14 12-22 29-22 50-1 22 5 53 18 92 7 21 12 38 16 51 4 13 7 24 9 33 2 9 3 16 3 22 0 6 0 14 0 23-1 15-4 29-9 42-6 13-13 24-22 31-33 28-84 30-151 7-66-23-121-65-167-126-31-42-49-82-54-119-5-37 5-65 30-86 24-19 53-24 86-12 19 6 31 13 37 21l2 3c0 2 0 3-2 4l-1 1h-3l-1 1-17 1c-13 2-25 7-36 16-21 17-29 42-26 77 4 34 19 70 46 106 30 40 61 67 95 82 33 15 61 14 82-3 30-25 34-73 12-143l-21-65c-11-33-14-62-10-87 4-26 14-45 30-58 28-23 71-24 128-4 62 24 112 60 149 110 23 32 36 62 38 90 2 27-7 49-27 66m360 482c-13 9-30 13-51 12-21-1-45-6-71-15-27-9-55-22-85-39-29-17-59-36-89-57l-30-22-20-16c-2-2-5-6-9-11-3-5-3-8-1-10 2-1 7 0 14 5l1 2c3 1 7 4 12 7 54 39 103 65 148 76 44 12 79 9 105-10 13-9 19-21 20-38 0-16-6-34-19-53-17-28-40-47-68-57-37-13-79-15-128-6-49 9-94 28-136 57-72 51-84 114-36 189 19 29 41 54 67 75 26 21 53 36 80 45l27 9c3 1 5 2 6 3 2 4 2 6 0 8-10 7-34 2-73-14-81-34-140-79-176-136-31-48-43-93-38-137 6-44 29-80 69-108 36-26 78-42 125-49 48-6 97-2 148 12 46 13 88 33 126 60 39 26 69 56 90 88 15 24 21 48 20 74-2 25-11 44-28 56m326 476c-10 6-28 5-55-2-11-5-18-7-21-7-19-7-29-12-30-14-4-6-2-11 4-15l9-7 3-4c16-14 17-35 3-63-21-41-58-59-111-53l-231 22c-32 4-52 8-60 12-7 4-11 11-13 20-2 9-1 18 4 28 8 15 25 32 51 51 27 20 58 37 93 52l33 15c4 2 7 5 8 7 2 4 2 6 0 8-4 2-13 0-29-6-15-6-31-13-47-21-13-6-27-14-45-24-17-10-34-21-51-32-45-29-75-57-89-86-9-17-11-33-8-48 4-14 14-26 29-34 11-7 25-12 43-17 18-4 41-8 69-11l200-24c36-4 62-10 77-19 12-6 14-18 6-34-2-5-8-13-17-24-3-4-5-8-7-12-3-6-4-10-2-11 3-2 9 2 18 11l29 24c13 11 24 22 33 35 10 13 17 24 22 34 16 31 11 54-15 69-4 2-8 4-12 5-3 1-8 2-14 4l83 49c14 8 24 15 31 22 7 6 13 14 17 22 8 17 12 32 10 47-1 15-7 25-18 31m377 956c-22 7-42 2-60-15-4-3-7-7-11-11-3-4-5-7-6-10-1-1 0-3 0-4 1-2 1-3 2-3 2 0 4 0 6 1 7 2 14 2 22-1 21-6 34-23 41-50 7-28 5-60-5-96-10-38-25-66-44-85-19-19-40-25-61-19-18 6-31 18-39 38-9 20-14 51-16 92-1 23-2 40-3 54-1 13-2 25-4 34-1 9-3 16-5 22-2 6-5 13-8 21-6 13-13 25-23 35-10 11-21 17-32 21-40 12-88-6-142-53-53-47-89-108-110-183-14-52-16-95-8-131 9-37 29-59 59-68 29-9 57-2 84 22 15 13 24 25 26 34l2 4c-1 2-2 3-4 3l-1 1-3-2-2 1-15-6c-13-4-26-4-39 0-25 8-42 28-51 62-10 33-8 72 4 116 13 49 33 87 58 114 26 27 52 37 78 29 37-11 58-54 62-128l4-69c2-34 9-62 22-84 12-22 29-36 49-42 33-10 73 5 119 47 49 46 82 100 99 160 10 39 12 72 3 98-8 27-24 44-48 51m169 595c-15 4-32 1-51-9-20-9-40-23-61-42-21-19-43-42-64-69-22-28-43-57-63-88l-20-32-13-23c-1-3-3-7-4-14-1-6-1-9 2-9 3-1 7 3 12 10v2c3 2 5 6 8 11 36 58 73 101 110 129 37 28 71 39 101 32 15-3 26-12 32-27 6-15 7-34 2-57-6-33-21-59-43-80-29-26-68-45-117-56-48-11-97-11-146 0-85 19-118 72-100 161 7 34 18 66 35 96 17 29 36 54 58 73l22 19c2 2 3 4 4 5 1 4 0 7-3 7-11 3-32-11-62-42-63-63-102-128-115-195-12-56-7-103 14-142 20-38 54-62 102-73 43-10 87-8 134 5 46 12 90 35 133 69 37 30 69 65 95 105 27 40 44 79 52 117 5 28 3 53-8 76-10 23-26 37-46 41m-144 842c-4 1-9-3-15-10l-17-19-21-24-34-42c-6-6-18-21-35-44-12-15-19-26-23-34-6-9-11-19-15-30-4-11-7-19-8-26-4-29 6-46 30-49l15-2 13 2 64 5c-53-58-92-110-118-154-26-44-42-88-48-131-9-66 12-103 62-111 12-1 28-2 47 0 19 1 43 5 72 12l210 42 2 1c4 1 8 1 11 1 3-1 6-1 9-1 11-2 15-8 14-19-1-6-4-13-9-22l-7-13c-5-8-7-12-7-12l-2-5c-4-7-5-11-6-12 0-5 2-9 7-9 3-1 5 0 7 2 1 2 5 7 9 16 2 4 9 18 22 42l24 47c4 7 7 14 11 21 4 7 8 14 13 22 6 11 10 18 11 22 2 4 3 7 4 10 2 14-3 22-13 23-5 1-10 0-16-2l-2 1-311-65c-18-4-32-7-42-7-9-1-17-1-25 0-35 5-49 33-42 83 1 8 3 17 5 25 3 9 5 16 8 22 10 25 27 53 50 83 29 37 53 63 73 80 20 16 42 28 67 37 18 6 37 11 57 15 20 4 46 9 79 14 27 5 46 7 57 9 11 1 18 1 23 1 12-2 17-10 16-24-2-10-4-17-8-22l-9-20-6-12h-1l-1-4c-2-2-3-4-3-6-1-4 0-6 3-7 1-1 3-2 5-2 2-1 4 1 6 4 2 3 7 11 13 22l52 99 2 6c14 23 21 42 23 56 1 7 0 13-3 18-3 6-7 9-11 9-3 1-7 1-12 0-5-1-10-2-16-4h-1l-381-94h-2c-3-1-8-1-15 0-12 2-17 11-15 26 2 18 13 37 33 56l29 30 30 34c11 12 16 19 16 19 0 1 1 2 2 1 0 2 0 3 1 3 0 1 1 2 1 3 1 9-1 13-8 14m251 1267c-25-1-52-11-80-28-28-17-56-41-83-71-17-17-34-38-51-61-15-22-28-43-38-61-11-19-24-46-40-82-3 13-6 29-9 46-3 18-4 33-5 45-2 46 4 86 18 119 3 4 4 8 4 11 0 5-2 8-6 8-6 0-15-13-26-38-27-52-38-107-35-166 1-18 3-38 7-58l12-65c3-12 5-25 6-36 2-12 3-23 3-33l1-19v-14l-1-9v-6c0-4 1-7 2-8 2-3 3-4 4-4 4 0 12 7 22 20 20 23 30 48 29 73-1 7-2 13-3 19l-3 20c-3 9-4 17-4 24-1 8-1 15-1 20-1 16 1 30 6 43 6 13 15 29 30 48 9 11 18 22 26 32 8 11 15 20 23 29 57 65 114 99 170 102 29 2 52-6 69-22 17-17 26-41 28-71 1-30-5-62-18-97-14-35-34-70-60-103-20-27-38-46-54-58-12-10-30-22-53-35-24-14-53-29-88-46l-332-170-2-15 3-56 7-6 220 102 164 77 97 45c26 12 46 21 62 26 15 5 29 8 43 9 11 1 17-5 20-18 2-4 3-9 3-14 0-6 1-17 2-34v-4-4c1-9 3-13 6-13 4 1 6 3 8 8 1 5 4 17 6 35l5 36c3 19 5 34 7 46 2 12 4 21 4 28 2 16 4 29 5 41 1 11 2 20 1 27 0 11-4 17-10 16-3 0-4-1-5-2l-118-63c11 14 20 27 27 37 7 10 13 20 19 29 6 10 12 20 17 30 5 10 12 22 19 36 26 51 38 102 36 154-3 45-15 81-36 109-22 29-48 42-80 40m41 1354c-12-1-27-11-46-32-7-10-13-16-15-18-13-16-19-25-19-28 0-7 4-10 11-10l11-1 4-2c21-3 32-21 34-53 2-46-21-81-69-105l-209-106c-29-14-48-21-57-22-8 0-15 3-21 9-6 7-10 16-10 27-1 17 5 41 18 72 14 31 32 62 54 94l22 31c2 4 3 8 3 10 0 5-1 7-4 6-4 0-11-6-21-20-11-13-21-27-31-43-8-12-16-27-26-45-10-18-20-36-29-55-24-49-36-90-34-122 1-19 7-34 17-45 11-11 24-16 41-15 13 1 28 4 46 10 17 6 39 15 64 28l183 88c33 16 58 24 76 25 13 1 21-8 21-26 1-6 0-16-2-30-1-5-1-10-1-14 1-7 2-11 5-11 3 0 6 7 10 20l13 36c5 16 9 32 11 48 2 16 2 30 2 41-2 35-18 52-47 50-5 0-9-1-12-2-4 0-9-2-15-3l47 86c8 15 14 27 16 36 3 9 4 19 4 28-1 19-6 34-14 46-8 12-19 18-31 17m-324-618c-7 0-21-19-41-55-24-44-40-77-48-97-8-21-11-40-10-55 2-29 13-43 33-42 8 1 17 3 30 8 12 4 28 11 47 19l84 34c-55-59-99-120-130-182-31-61-44-116-41-164 2-37 15-67 38-88 23-22 52-31 88-29 62 5 120 32 175 81 55 49 98 114 131 194 32 77 45 150 41 218-3 45-13 80-30 106-17 26-39 41-65 43l-330-130h-2c-1-1-4-2-7-2-3-1-6-1-7-1-7 0-11 2-12 8 0 3 1 7 2 12 2 3 3 6 4 8 1 2 2 5 3 8 7 11 15 26 24 44 9 17 17 30 23 39 4 8 6 13 6 15 0 6-2 9-6 8m277-110c16 1 27 0 35-5 8-4 16-11 23-22 15-24 24-55 26-93 5-77-15-141-61-194-16-19-34-37-53-53-19-16-38-30-58-42-20-12-40-22-61-29-20-7-39-11-57-13-27-2-51 6-71 23-19 16-30 38-32 65-1 13 2 32 7 55 6 23 13 44 22 62 22 47 47 87 76 120 15 16 31 32 49 46 18 15 36 28 55 40 18 12 36 21 54 28 18 7 33 11 46 12m457 1405c-5 0-11-3-17-8h-2l-626-353c-3-1-6-7-10-17-4-11-8-22-12-35l-8-30c0-3 0-5 0-6-1 0-1-1-1-3 2-1 4-2 5-2 2 1 6 2 12 4 5 2 11 4 18 8l9 5 481 244 8 3c13 4 24 9 34 14 10 5 19 8 26 8 10 1 17-2 22-9 4-8 9-22 12-42h1c1-9 3-13 7-12 2 0 5 4 7 11l47 169c3 11 5 22 4 32-1 14-7 20-17 19m-820-387c-16-2-28-9-35-22-1-3-2-6-3-9-5-12-9-22-12-30-2-8-7-20-15-36l-6-13c-3-7-4-13-4-17 1-4 3-6 6-6 2 0 4 1 5 3 7 3 13 6 17 8 5 1 9 2 15 3 23 2 39-10 49-38l5-16c2-3 4-4 5-4 1 0 2 3 4 9l22 63 4 15c7 18 10 33 9 45-1 13-9 24-22 33-13 9-28 13-44 12" fill-rule="nonzero"/></g><g stroke="#201e1e"><path d="m13640 1848c1 11-4 22-14 32-10 10-28 20-54 31l-42 18c-7 3-11 4-14 5-3 0-4-2-4-5 0-2 1-3 2-5l4-13c3-12 5-22 5-31 0-18-11-32-33-42l-18-7c-2-2-4-4-4-7 0-3 5-7 16-12l2-1 77-37c6-3 12-4 20-4 7-1 14 2 20 8 11 10 20 21 27 35 7 13 10 24 10 35zm418-24c-1 11-7 21-19 29-11 9-30 16-58 22l-44 11c-7 2-12 3-14 2-3 0-4-2-4-5 1-1 2-3 3-5l6-12c5-10 9-20 10-30 2-18-6-33-26-47l-17-9c-2-2-3-5-3-8 0-3 6-6 17-9l2-1 82-23c6-2 13-3 21-2 6 1 12 5 18 12 9 12 16 24 21 39 5 14 7 26 5 36zm414 38c-2 11-9 20-21 27-12 8-32 13-60 17l-45 7c-7 1-12 1-14 1-3-1-4-3-3-6 0-1 1-3 3-5l7-11c6-10 10-20 12-29 4-17-3-34-22-49l-16-11c-2-3-3-5-2-8 0-3 6-5 18-7l2-1 83-16c6-2 13-1 21 1 6 1 12 5 17 13 9 12 15 26 18 40 4 15 5 27 2 37zm851-118c-4 14-13 31-25 49-13 18-26 39-41 62l-8 14-302 406-12 3-83-28-5-11 203-258c-17 6-31 11-41 14-10 3-19 5-28 7-35 7-68 10-102 10-33-1-63-5-88-14-42-14-71-38-87-71-17-32-18-70-5-114 14-43 40-83 78-117 39-34 86-61 141-80 51-17 106-27 165-28 58-1 110 6 156 22 35 12 60 30 75 54 15 25 18 51 9 80zm-99 0c8-26 6-50-8-72-13-22-36-38-68-49-12-4-27-7-44-9-17-2-33-2-47-1-37 2-69 10-96 24-36 19-69 47-99 84-30 37-51 76-64 118-20 64 5 108 73 131 29 10 59 15 89 13 28-2 54-9 77-20 23-11 46-28 69-52 30-31 56-60 76-89 21-28 35-54 42-78zm818 576c-2 4-7 7-17 8l-24 5-31 5-52 7c-8 3-26 5-53 7-19 2-32 3-41 2-10 0-21-1-32-3-10-2-19-5-25-8-25-12-33-30-22-53l6-14 9-10 39-54c-76 15-138 22-188 20-49-1-92-11-130-29-58-28-76-67-55-114 5-12 14-27 26-43 11-16 27-35 48-57l148-162h2c3-4 6-7 7-10 1-3 2-6 4-9 4-10 2-17-8-22-5-2-12-4-21-4l-15-1c-9 0-13 0-13 0l-6-2c-7 0-11-1-12-1-5-2-6-6-4-11 1-3 3-4 5-5 3 0 9 0 19 1 3 0 19 2 45 3l51 5c7 0 14 1 22 1 8 1 16 1 25 2 11 0 19 0 23 1 5 0 8 1 10 2 12 6 16 14 12 25-2 4-6 8-10 12l-1 3-221 238c-13 14-23 25-29 33-5 8-10 15-13 23-15 33-1 61 43 82 7 4 15 7 23 9 9 3 16 4 21 5 26 4 58 5 95 1 44-5 79-12 102-21 24-8 46-21 67-38 14-13 29-27 43-42 14-16 32-36 54-62 18-22 31-38 38-46 7-9 11-15 13-20 5-12 2-21-10-26-9-5-16-7-22-6l-21-3-12-1-1 1-3-2c-4 1-6 1-7 0-4-2-5-4-4-6-1-2 0-4 1-6 0-2 3-3 6-3 4-1 13 0 25 1l107 7 6 1c26 2 45 5 57 11 6 3 11 7 13 13 3 5 3 10 2 14-2 3-4 6-7 10-3 5-7 9-12 13l-1 1-282 284-1 2c-3 3-5 7-8 13-5 12-1 21 12 28 16 7 37 8 63 1l39-9 44-8c16-3 24-4 24-4 1 0 2 0 2-1 1 1 2 1 3 1 1 0 2 0 3 1 7 3 10 8 7 14zm663 3c-8 14-21 26-40 35-20 9-43 16-71 20-27 5-58 7-92 6-33-1-68-4-104-8l-36-5-25-5c-3-1-7-2-13-6-4-3-6-5-5-8 2-2 7-3 15-2l2 1c3 0 8 0 13 1 65 9 120 8 165-3 44-11 74-30 89-59 8-14 8-29 1-43-6-15-19-28-39-39-28-17-56-22-86-18-38 6-76 24-116 55-40 31-72 70-96 116-42 80-26 142 50 186 28 16 59 28 91 34 32 7 63 7 91 2l28-5c3 0 5 0 6 1 4 2 5 4 3 7-5 10-29 18-70 22-87 8-159-4-216-37-48-28-79-63-93-104-14-42-9-85 15-129 21-41 51-75 91-104 39-28 85-48 136-60 47-10 93-12 139-7 46 6 85 18 118 37 23 13 39 32 49 55 10 24 10 45 0 64zm493 262c-7 10-24 18-50 24-12 1-20 3-23 4-19 3-30 3-32 2-6-4-7-9-2-16l4-10 1-5c8-20 0-39-25-58-36-26-76-24-121 6l-196 130c-27 19-43 32-48 39-5 7-6 15-4 24 2 9 7 17 16 24 13 9 36 16 68 21 32 4 67 5 104 2l37-3c4 0 8 1 10 2 3 3 4 5 3 8-2 3-12 5-28 8-16 2-33 4-51 4-14 1-30 1-50 0-20-1-40-2-60-4-52-4-91-16-116-34-15-11-25-24-28-39-3-15 1-30 10-45 8-11 18-22 32-35 14-13 33-27 57-43l168-116c30-21 50-39 60-55 8-11 5-22-9-33-5-3-13-7-26-13-5-2-9-5-12-7-5-4-7-7-6-10 2-2 9-2 21 2l36 8c16 3 31 8 45 15 14 7 26 14 34 20 28 20 33 43 16 68-3 4-5 8-8 10-3 3-6 7-11 11l95 4c16 1 28 2 37 5 9 2 17 6 25 12 14 10 24 22 29 36 6 14 5 26-2 37zm484 505c-27 32-66 56-118 72-53 16-112 23-177 22-55-2-105-11-149-27-45-15-82-36-111-62-19-18-34-37-44-59-11-21-17-43-19-67-2-23 0-46 6-68 7-23 18-44 34-64 28-33 69-56 123-69 54-13 111-14 172-2 36 7 70 16 100 26 30 11 49 20 57 27 2 2 2 4 1 5-1 1-3 2-6 2l-2-2c-10-3-19-5-28-7-9-2-19-4-30-6-63-12-121-10-176 5-54 14-96 40-127 76-28 34-42 70-41 106 1 36 16 68 45 94 26 24 57 41 92 51 35 10 70 14 106 10 35-4 70-13 103-29 34-16 62-38 86-67 10-12 18-25 25-38 6-12 10-26 14-42 3-16 2-29-2-40-5-10-16-23-32-40-12-11-20-18-23-23-4-4-5-8-3-10 2-2 11 1 29 8l4 1 74 35c5 2 9 4 11 5 3 2 5 4 7 5 13 12 21 30 23 53 4 25 3 48-1 68-4 20-12 37-23 51zm787 719c-18 14-38 18-61 10-4-2-9-4-14-6-4-3-7-5-9-7-1-1-1-3-1-4-1-2 0-3 0-4 2-1 4-2 6-2 7 0 14-3 21-9 17-14 23-35 19-63-3-28-16-56-38-86-23-31-47-52-72-62-24-10-45-7-63 7-14 12-22 29-22 50-1 22 5 53 18 92 7 21 12 38 16 51 4 13 7 24 9 33 2 9 3 16 3 22 0 6 0 14 0 23-1 15-4 29-9 42-6 13-13 24-22 31-33 28-84 30-151 7-66-23-121-65-167-126-31-42-49-82-54-119-5-37 5-65 30-86 24-19 53-24 86-12 19 6 31 13 37 21l2 3c0 2 0 3-2 4l-1 1h-3l-1 1-17 1c-13 2-25 7-36 16-21 17-29 42-26 77 4 34 19 70 46 106 30 40 61 67 95 82 33 15 61 14 82-3 30-25 34-73 12-143l-21-65c-11-33-14-62-10-87 4-26 14-45 30-58 28-23 71-24 128-4 62 24 112 60 149 110 23 32 36 62 38 90 2 27-7 49-27 66zm360 482c-13 9-30 13-51 12-21-1-45-6-71-15-27-9-55-22-85-39-29-17-59-36-89-57l-30-22-20-16c-2-2-5-6-9-11-3-5-3-8-1-10 2-1 7 0 14 5l1 2c3 1 7 4 12 7 54 39 103 65 148 76 44 12 79 9 105-10 13-9 19-21 20-38 0-16-6-34-19-53-17-28-40-47-68-57-37-13-79-15-128-6-49 9-94 28-136 57-72 51-84 114-36 189 19 29 41 54 67 75 26 21 53 36 80 45l27 9c3 1 5 2 6 3 2 4 2 6 0 8-10 7-34 2-73-14-81-34-140-79-176-136-31-48-43-93-38-137 6-44 29-80 69-108 36-26 78-42 125-49 48-6 97-2 148 12 46 13 88 33 126 60 39 26 69 56 90 88 15 24 21 48 20 74-2 25-11 44-28 56zm326 476c-10 6-28 5-55-2-11-5-18-7-21-7-19-7-29-12-30-14-4-6-2-11 4-15l9-7 3-4c16-14 17-35 3-63-21-41-58-59-111-53l-231 22c-32 4-52 8-60 12-7 4-11 11-13 20-2 9-1 18 4 28 8 15 25 32 51 51 27 20 58 37 93 52l33 15c4 2 7 5 8 7 2 4 2 6 0 8-4 2-13 0-29-6-15-6-31-13-47-21-13-6-27-14-45-24-17-10-34-21-51-32-45-29-75-57-89-86-9-17-11-33-8-48 4-14 14-26 29-34 11-7 25-12 43-17 18-4 41-8 69-11l200-24c36-4 62-10 77-19 12-6 14-18 6-34-2-5-8-13-17-24-3-4-5-8-7-12-3-6-4-10-2-11 3-2 9 2 18 11l29 24c13 11 24 22 33 35 10 13 17 24 22 34 16 31 11 54-15 69-4 2-8 4-12 5-3 1-8 2-14 4l83 49c14 8 24 15 31 22 7 6 13 14 17 22 8 17 12 32 10 47-1 15-7 25-18 31zm377 956c-22 7-42 2-60-15-4-3-7-7-11-11-3-4-5-7-6-10-1-1 0-3 0-4 1-2 1-3 2-3 2 0 4 0 6 1 7 2 14 2 22-1 21-6 34-23 41-50 7-28 5-60-5-96-10-38-25-66-44-85-19-19-40-25-61-19-18 6-31 18-39 38-9 20-14 51-16 92-1 23-2 40-3 54-1 13-2 25-4 34-1 9-3 16-5 22-2 6-5 13-8 21-6 13-13 25-23 35-10 11-21 17-32 21-40 12-88-6-142-53-53-47-89-108-110-183-14-52-16-95-8-131 9-37 29-59 59-68 29-9 57-2 84 22 15 13 24 25 26 34l2 4c-1 2-2 3-4 3l-1 1-3-2-2 1-15-6c-13-4-26-4-39 0-25 8-42 28-51 62-10 33-8 72 4 116 13 49 33 87 58 114 26 27 52 37 78 29 37-11 58-54 62-128l4-69c2-34 9-62 22-84 12-22 29-36 49-42 33-10 73 5 119 47 49 46 82 100 99 160 10 39 12 72 3 98-8 27-24 44-48 51zm169 595c-15 4-32 1-51-9-20-9-40-23-61-42-21-19-43-42-64-69-22-28-43-57-63-88l-20-32-13-23c-1-3-3-7-4-14-1-6-1-9 2-9 3-1 7 3 12 10v2c3 2 5 6 8 11 36 58 73 101 110 129 37 28 71 39 101 32 15-3 26-12 32-27 6-15 7-34 2-57-6-33-21-59-43-80-29-26-68-45-117-56-48-11-97-11-146 0-85 19-118 72-100 161 7 34 18 66 35 96 17 29 36 54 58 73l22 19c2 2 3 4 4 5 1 4 0 7-3 7-11 3-32-11-62-42-63-63-102-128-115-195-12-56-7-103 14-142 20-38 54-62 102-73 43-10 87-8 134 5 46 12 90 35 133 69 37 30 69 65 95 105 27 40 44 79 52 117 5 28 3 53-8 76-10 23-26 37-46 41zm-144 842c-4 1-9-3-15-10l-17-19-21-24-34-42c-6-6-18-21-35-44-12-15-19-26-23-34-6-9-11-19-15-30-4-11-7-19-8-26-4-29 6-46 30-49l15-2 13 2 64 5c-53-58-92-110-118-154-26-44-42-88-48-131-9-66 12-103 62-111 12-1 28-2 47 0 19 1 43 5 72 12l210 42 2 1c4 1 8 1 11 1 3-1 6-1 9-1 11-2 15-8 14-19-1-6-4-13-9-22l-7-13c-5-8-7-12-7-12l-2-5c-4-7-5-11-6-12 0-5 2-9 7-9 3-1 5 0 7 2 1 2 5 7 9 16 2 4 9 18 22 42l24 47c4 7 7 14 11 21 4 7 8 14 13 22 6 11 10 18 11 22 2 4 3 7 4 10 2 14-3 22-13 23-5 1-10 0-16-2l-2 1-311-65c-18-4-32-7-42-7-9-1-17-1-25 0-35 5-49 33-42 83 1 8 3 17 5 25 3 9 5 16 8 22 10 25 27 53 50 83 29 37 53 63 73 80 20 16 42 28 67 37 18 6 37 11 57 15 20 4 46 9 79 14 27 5 46 7 57 9 11 1 18 1 23 1 12-2 17-10 16-24-2-10-4-17-8-22l-9-20-6-12h-1l-1-4c-2-2-3-4-3-6-1-4 0-6 3-7 1-1 3-2 5-2 2-1 4 1 6 4 2 3 7 11 13 22l52 99 2 6c14 23 21 42 23 56 1 7 0 13-3 18-3 6-7 9-11 9-3 1-7 1-12 0-5-1-10-2-16-4h-1l-381-94h-2c-3-1-8-1-15 0-12 2-17 11-15 26 2 18 13 37 33 56l29 30 30 34c11 12 16 19 16 19 0 1 1 2 2 1 0 2 0 3 1 3 0 1 1 2 1 3 1 9-1 13-8 14zm251 1267c-25-1-52-11-80-28-28-17-56-41-83-71-17-17-34-38-51-61-15-22-28-43-38-61-11-19-24-46-40-82-3 13-6 29-9 46-3 18-4 33-5 45-2 46 4 86 18 119 3 4 4 8 4 11 0 5-2 8-6 8-6 0-15-13-26-38-27-52-38-107-35-166 1-18 3-38 7-58l12-65c3-12 5-25 6-36 2-12 3-23 3-33l1-19v-14l-1-9v-6c0-4 1-7 2-8 2-3 3-4 4-4 4 0 12 7 22 20 20 23 30 48 29 73-1 7-2 13-3 19l-3 20c-3 9-4 17-4 24-1 8-1 15-1 20-1 16 1 30 6 43 6 13 15 29 30 48 9 11 18 22 26 32 8 11 15 20 23 29 57 65 114 99 170 102 29 2 52-6 69-22 17-17 26-41 28-71 1-30-5-62-18-97-14-35-34-70-60-103-20-27-38-46-54-58-12-10-30-22-53-35-24-14-53-29-88-46l-332-170-2-15 3-56 7-6 220 102 164 77 97 45c26 12 46 21 62 26 15 5 29 8 43 9 11 1 17-5 20-18 2-4 3-9 3-14 0-6 1-17 2-34v-4-4c1-9 3-13 6-13 4 1 6 3 8 8 1 5 4 17 6 35l5 36c3 19 5 34 7 46 2 12 4 21 4 28 2 16 4 29 5 41 1 11 2 20 1 27 0 11-4 17-10 16-3 0-4-1-5-2l-118-63c11 14 20 27 27 37 7 10 13 20 19 29 6 10 12 20 17 30 5 10 12 22 19 36 26 51 38 102 36 154-3 45-15 81-36 109-22 29-48 42-80 40zm41 1354c-12-1-27-11-46-32-7-10-13-16-15-18-13-16-19-25-19-28 0-7 4-10 11-10l11-1 4-2c21-3 32-21 34-53 2-46-21-81-69-105l-209-106c-29-14-48-21-57-22-8 0-15 3-21 9-6 7-10 16-10 27-1 17 5 41 18 72 14 31 32 62 54 94l22 31c2 4 3 8 3 10 0 5-1 7-4 6-4 0-11-6-21-20-11-13-21-27-31-43-8-12-16-27-26-45-10-18-20-36-29-55-24-49-36-90-34-122 1-19 7-34 17-45 11-11 24-16 41-15 13 1 28 4 46 10 17 6 39 15 64 28l183 88c33 16 58 24 76 25 13 1 21-8 21-26 1-6 0-16-2-30-1-5-1-10-1-14 1-7 2-11 5-11 3 0 6 7 10 20l13 36c5 16 9 32 11 48 2 16 2 30 2 41-2 35-18 52-47 50-5 0-9-1-12-2-4 0-9-2-15-3l47 86c8 15 14 27 16 36 3 9 4 19 4 28-1 19-6 34-14 46-8 12-19 18-31 17zm-324-618c-7 0-21-19-41-55-24-44-40-77-48-97-8-21-11-40-10-55 2-29 13-43 33-42 8 1 17 3 30 8 12 4 28 11 47 19l84 34c-55-59-99-120-130-182-31-61-44-116-41-164 2-37 15-67 38-88 23-22 52-31 88-29 62 5 120 32 175 81 55 49 98 114 131 194 32 77 45 150 41 218-3 45-13 80-30 106-17 26-39 41-65 43l-330-130h-2c-1-1-4-2-7-2-3-1-6-1-7-1-7 0-11 2-12 8 0 3 1 7 2 12 2 3 3 6 4 8 1 2 2 5 3 8 7 11 15 26 24 44 9 17 17 30 23 39 4 8 6 13 6 15 0 6-2 9-6 8zm277-110c16 1 27 0 35-5 8-4 16-11 23-22 15-24 24-55 26-93 5-77-15-141-61-194-16-19-34-37-53-53-19-16-38-30-58-42-20-12-40-22-61-29-20-7-39-11-57-13-27-2-51 6-71 23-19 16-30 38-32 65-1 13 2 32 7 55 6 23 13 44 22 62 22 47 47 87 76 120 15 16 31 32 49 46 18 15 36 28 55 40 18 12 36 21 54 28 18 7 33 11 46 12zm457 1405c-5 0-11-3-17-8h-2l-626-353c-3-1-6-7-10-17-4-11-8-22-12-35l-8-30c0-3 0-5 0-6-1 0-1-1-1-3 2-1 4-2 5-2 2 1 6 2 12 4 5 2 11 4 18 8l9 5 481 244 8 3c13 4 24 9 34 14 10 5 19 8 26 8 10 1 17-2 22-9 4-8 9-22 12-42h1c1-9 3-13 7-12 2 0 5 4 7 11l47 169c3 11 5 22 4 32-1 14-7 20-17 19zm-820-387c-16-2-28-9-35-22-1-3-2-6-3-9-5-12-9-22-12-30-2-8-7-20-15-36l-6-13c-3-7-4-13-4-17 1-4 3-6 6-6 2 0 4 1 5 3 7 3 13 6 17 8 5 1 9 2 15 3 23 2 39-10 49-38l5-16c2-3 4-4 5-4 1 0 2 3 4 9l22 63 4 15c7 18 10 33 9 45-1 13-9 24-22 33-13 9-28 13-44 12z" fill="none" fill-rule="nonzero" stroke-width="50"/><g fill="#201e1e" stroke-width="7.62"><path d="m15074 18188c-125-197-239-292-442-278-225 16-359 256-337 482 53 550 514 908 933 1128 360-439 720-878 672-1288-26-226-230-396-454-380-204 14-294 124-372 336zm429-117c0 0 333 137-41 672 520-219 332-834 41-672z"/><path d="m15108 18223c-115-188-222-273-417-238-216 38-375 253-355 479 35 409 462 750 888 1090 355-479 710-958 675-1368-20-226-211-378-427-340-195 35-284 154-364 377zm414-161c0 0 316 105-55 684 503-273 338-877 55-684z"/><path d="m16727 16104c-215-365-425-536-832-490-450 50-822 530-754 946 170 1041 1001 1833 1797 2214 792-866 1447-1630 1371-2456-39-422-262-831-712-781-407 46-586 165-870 567zm789-126c0 0 570 316-99 1367 911-420 661-1607 99-1367z"/><path d="m16559 15121c-60-92-116-135-223-117-117 19-193 145-188 257 14 273 244 430 457 520 199-237 397-475 383-678-7-112-109-187-226-168-107 17-156 76-203 186zm227-79c0 0 170 52-39 339 276-136 195-434 39-339z"/><path d="m17526 14888c-31-48-60-70-115-61-60 10-99 75-96 132 7 140 125 221 234 267 102-122 204-244 197-348-4-57-56-96-117-86-54 9-80 39-103 96zm116-41c0 0 87 26-20 173 142-69 100-222 20-173z"/><path d="m17023 14220c-62-96-121-140-230-122-122 20-200 150-194 266 14 281 251 443 471 536 205-245 410-490 395-699-8-116-113-193-234-174-109 18-161 79-208 193zm233-83c0 0 175 54-40 350 285-140 201-448 40-350z"/><path d="m16382 13564c-48-75-94-110-181-96-95 16-157 118-152 210 11 221 198 349 371 422 161-193 322-386 311-551-6-90-89-152-184-136-87 14-127 62-165 151zm184-65c0 0 138 43-31 275 224-109 158-352 31-275z"/><path d="m17936 14081c-49-75-95-109-182-95-95 15-157 118-152 209 11 222 198 349 371 422 161-193 322-386 311-550-6-91-89-153-184-137-87 14-127 62-164 151zm183-64c0 0 138 42-31 275 224-110 158-353 31-275z"/><path d="m17258 12195c-102-193-205-286-415-274-232 14-400 244-408 464-18 534 405 886 804 1103 426-422 851-844 857-1242 3-219-182-386-414-373-209 12-316 117-424 322zm454-109c0 0 322 136-131 651 560-207 450-805 131-651z"/><path d="m18489 11773c-57-87-110-127-209-111-110 18-181 136-176 242 12 256 228 402 428 486 186-222 372-444 359-634-8-105-103-176-213-158-99 16-146 72-189 175zm212-75c0 0 159 49-36 317 258-126 182-406 36-317z"/><path d="m17609 10410c-118-181-228-263-436-230-229 37-377 284-366 503 26 533 476 839 891 1014 387-463 775-926 748-1322-15-219-214-366-443-329-207 34-304 149-394 364zm441-155c0 0 332 102-75 661 539-264 380-847 75-661z"/><path d="m17458 9116c-81-124-156-180-298-157-156 25-257 193-250 343 18 364 325 572 608 692 265-316 529-632 511-902-11-149-146-250-302-225-142 23-208 102-269 249zm301-106c0 0 226 69-52 451 368-180 260-578 52-451z"/><path d="m16868 8204c-31-48-61-70-116-61-61 10-100 75-98 133 7 142 127 224 237 270 104-123 207-246 199-352-4-58-56-97-117-87-55 9-81 40-105 97zm117-42c0 0 89 28-20 176 144-70 101-225 20-176z"/><path d="m18270 9547c-31-48-60-70-116-61-61 10-100 76-97 134 7 142 126 223 237 270 103-124 206-247 199-352-4-58-57-97-118-88-55 9-81 40-105 97zm118-41c0 0 88 27-20 176 143-70 101-226 20-176z"/><path d="m17996 7438c-100-182-199-269-399-254-220 17-377 239-382 448-10 509 397 836 780 1037 399-409 799-817 799-1196 0-209-179-365-399-349-199 15-299 117-399 314zm430-112c0 0 309 125-116 623 530-207 418-774 116-623z"/><path d="m16701 6739c-82-127-159-184-304-160-160 25-263 197-255 350 18 372 332 585 621 707 271-323 541-645 522-922-11-152-149-255-309-229-144 23-212 104-275 254zm308-109c0 0 232 72-52 462 376-184 265-591 52-462z"/><path d="m17235 4956c-110-170-214-247-409-216-214 35-353 266-343 472 24 499 446 786 835 950 364-434 727-868 702-1239-14-205-200-343-415-308-195 31-286 140-370 341zm414-146c0 0 311 96-71 620 506-247 356-794 71-620z"/><path d="m17153 4308c-34-52-66-76-125-66-66 11-109 81-106 144 8 153 137 241 256 291 111-133 223-266 215-379-4-63-61-105-127-95-60 10-88 43-113 105zm126-45c0 0 96 30-21 190 154-76 109-243 21-190z"/><path d="m16346 3650c-67-104-130-151-248-131-130 21-215 161-209 286 15 304 272 478 508 578 221-264 442-528 426-753-8-125-121-209-252-188-118 19-173 85-225 208zm252-89c0 0 189 58-43 377 307-151 216-483 43-377z"/><path d="m15542 3661c-34-51-65-75-124-65-66 10-108 81-105 143 8 152 136 239 254 289 111-132 221-264 213-377-4-62-61-104-126-93-59 9-87 42-112 103zm126-44c0 0 94 29-22 188 154-75 108-241 22-188z"/><path d="m16584 6072c-31-47-60-69-114-60-60 10-99 74-96 132 7 139 124 219 233 265 102-121 203-242 196-346-4-57-56-96-116-86-54 9-80 39-103 95zm115-40c0 0 87 26-19 173 141-69 99-222 19-173z"/><path d="m17594 6572c-31-47-60-69-114-60-60 10-99 74-96 132 7 139 125 219 233 265 102-121 203-242 196-346-4-57-56-96-116-86-54 9-79 39-103 95zm116-41c0 0 87 27-20 174 141-69 99-222 20-174z"/><path d="m18144 13009c-37-57-72-84-138-73-73 12-120 90-116 160 8 169 151 266 283 321 123-147 246-293 237-419-5-69-68-116-140-104-66 10-97 47-126 115zm140-49c0 0 106 32-23 209 171-83 120-268 23-209z"/></g></g></g></g><path d="m14347 26810c605 319 1397 427 2068 408 507-15 1039-103 1514-295 394-159 790-410 1024-789 248-399 371-1000 442-1465 102-671 143-1364 166-2043 20-554 26-1109 31-1663 4-467 6-937 26-1403 72-1720 199-3432 343-5147 128-1523 267-3047 360-4573 33-538 59-1077 78-1617 36-1052-123-2091-518-3062-359-881-895-1658-1569-2303-954-914-2147-1528-3403-1825-847-201-1743-184-2443 421-1108 957-1286 3001-1272 4400 6 569 44 1138 105 1703 56 509 131 1016 228 1517 315 1639 958 3170 1354 4785 211 861 293 1778 328 2665 40 989 20 1984-8 2973-26 912-61 1823-71 2735-9 818 0 1651 82 2465 89 866 351 1700 1135 2113z" fill="none" stroke="#fefefe" stroke-width="7.62"/><path d="m6569 26810c784-413 1046-1247 1134-2113 83-814 92-1647 83-2465-10-912-46-1823-71-2735-28-989-48-1984-9-2973 36-887 118-1804 329-2665 396-1615 1038-3146 1354-4785 96-501 172-1008 227-1517 62-565 100-1134 105-1703 14-1399-164-3443-1271-4400-700-605-1596-622-2443-421-1256 297-2449 911-3404 1825-673 645-1209 1422-1568 2303-396 971-554 2010-518 3062 18 540 45 1079 78 1617 92 1526 232 3050 360 4573 144 1715 270 3427 343 5147 20 466 21 936 26 1403 5 554 11 1109 30 1663 24 679 64 1372 167 2043 71 465 194 1066 441 1465 235 379 631 630 1025 789 474 192 1006 280 1513 295 671 19 1463-89 2069-408" fill="#fefefe"/><g clip-path="url(#1)"><g fill="#201e1e"><path d="m852 6580c26 4 54 10 81 20 28 10 55 22 81 37 27 14 52 31 77 50 24 19 46 39 65 61 19 21 39 45 58 73 19 27 38 59 57 94 17 31 31 58 42 81 12 22 22 46 32 70 9 24 19 49 27 76 10 27 19 59 30 96 22-66 36-122 42-166 10-71 3-133-19-187-10-24-21-45-34-63-12-19-29-39-49-62-3-2-5-5-4-11 1-6 3-8 6-8 7 1 17 10 31 25 14 16 28 33 42 52 11 16 21 32 30 49 9 17 17 33 25 50 23 55 31 116 22 184-1 7-2 13-3 20-1 7-3 14-4 21-2 15-6 30-10 43-1 3-2 9-5 18-3 10-7 23-11 39l-9 37-15 51c-8 27-15 54-22 81-6 28-10 50-11 66l-3 30c-2 12-4 18-8 18-2-1-5-3-8-8-2-4-6-13-10-27l-14-40c-4-11-5-22-3-34 0-3 1-7 1-13 1-6 3-14 7-27 3-10 5-19 6-25 2-6 3-13 4-20 5-39 4-75-2-109-6-34-19-71-38-111-38-79-82-148-134-208-54-65-109-114-165-149-56-34-116-56-180-66-118-17-185 36-201 160-10 76 4 151 42 225 39 75 99 142 182 204 30 23 60 45 90 65 29 21 62 43 98 66 36 23 76 47 120 74 45 26 97 56 157 91 43 24 81 47 116 67 34 20 62 35 82 45 10 5 19 10 26 13 6 3 12 6 16 8 13 6 24 14 34 24 11 10 19 24 23 42 5 19 5 38 3 59-8 54-32 78-74 72-7-1-14-3-20-5-6-2-14-7-25-12-19-10-50-26-94-49-43-23-95-51-156-84l-183-99-222-117-117-62c-18-10-33-18-46-24-12-6-23-11-32-14-9-4-17-6-24-8-7-2-14-3-22-4-33-5-52 13-57 53-3 21 1 51 11 92l2 16c2 7 4 12 3 15-1 5-3 8-6 7-3 0-6-5-9-15-3-9-7-26-12-51l-24-108-2-8c-3-18-5-32-6-44-1-11-1-22 0-34 6-40 24-58 55-53 10 1 20 4 31 9 11 4 22 9 34 15l7 6 842 459c17 10 31 17 43 22 12 6 22 9 31 10 20 3 31-6 34-29 2-12-1-23-9-33-8-9-22-20-44-32l-60-34c-12-7-31-19-57-35-27-16-61-37-104-63-24-15-51-31-81-49-30-18-63-37-98-58-66-39-123-74-170-104-46-29-86-56-119-80-33-24-61-46-82-67-22-21-41-42-57-63-21-27-40-57-56-91-16-35-30-70-41-106-11-36-18-73-22-108-4-36-4-70 0-100 9-68 35-118 78-151 43-32 98-43 167-33zm534-596c38 12 75 40 111 84 35 43 65 97 91 161 20 53 32 104 37 153 5 50 2 93-9 132-8 26-18 48-33 67-14 18-31 34-50 45-20 11-40 18-63 22-22 3-45 0-68-7-41-13-78-43-111-89-33-47-57-102-72-165-8-38-14-74-17-107-3-33-3-55 0-66 1-2 2-3 4-3 1 1 3 3 4 6l-1 2c2 11 3 21 5 30 2 10 4 20 7 31 16 65 41 121 76 167 35 46 74 76 118 91 41 13 77 12 108-4 32-16 53-43 64-82 10-34 13-71 7-108-5-38-17-73-34-106-18-33-41-62-68-87-27-26-58-44-92-55-16-5-30-8-44-9-13 0-27 1-42 3-15 4-26 10-34 19-7 9-14 24-22 47-4 16-8 26-10 31-3 6-5 8-8 7-2-1-4-11-5-30v-5l-1-86c0-6 0-10 1-13 0-3 1-5 1-8 5-17 18-32 37-43 20-14 40-23 59-27 20-4 37-4 54 2zm117-628c10 5 21 20 32 47 3 12 6 20 8 22 6 20 9 31 8 34-3 6-8 8-14 5l-11-3h-4c-21-5-37 7-50 37-18 42-8 83 29 123l159 178c22 24 37 38 45 42 8 4 16 4 24 0 8-4 14-11 18-22 7-15 9-40 7-73-2-34-8-70-18-109l-10-36c-1-5 0-9 1-12 1-4 3-5 6-4 3 2 7 11 13 27 5 16 10 34 14 52 3 14 6 31 9 52 3 20 5 41 7 62 7 55 3 97-9 127-8 18-18 29-31 35-14 6-28 6-44-1-11-6-24-15-39-27-14-12-31-29-51-50l-141-151c-25-27-45-44-62-52-12-6-22 0-29 16-2 5-4 15-7 29-2 5-3 10-5 14-2 6-5 9-7 8-3-1-4-9-3-22v-39c1-17 2-33 6-49 4-16 8-29 12-39 14-32 34-42 61-29 4 2 8 4 11 6 3 2 7 5 12 9l-14-98c-3-17-4-30-3-40 1-9 3-19 7-28 7-16 16-29 28-37 12-8 23-10 35-4zm612-972c34 24 62 62 83 114 22 53 36 113 42 182 5 58 3 110-6 159-9 48-25 90-46 123-14 22-31 40-50 54-19 13-39 22-61 27-21 5-43 6-66 2-22-4-43-13-63-28-35-24-62-64-81-119-19-55-27-115-23-180 2-38 7-74 13-107 6-33 12-54 18-63 2-2 3-3 5-2 1 1 2 4 2 7l-1 2c-1 10-3 21-3 30-1 10-2 20-3 32-3 67 6 128 27 183 20 55 49 96 87 123 36 25 71 35 105 30 34-6 62-25 84-59 19-30 32-64 37-101 5-38 4-75-4-112-8-37-21-72-40-105-19-32-44-59-73-80-14-10-27-17-39-22-13-5-27-8-42-10-15-1-28 1-37 8-9 6-21 18-34 37-9 14-15 23-19 27-4 5-7 6-9 4-2-1-1-11 3-30l1-5 24-82c1-5 3-10 4-12 1-3 2-5 4-7 9-16 25-26 47-31 23-7 44-9 64-7 19 2 36 8 50 18zm476-722c14 13 25 30 33 52l5 7 107 237c12 24 22 40 31 48 12 12 24 10 36-4l7-8c0 0 1-3 3-8 0 0 2-5 4-13 3-6 4-9 5-11 0-1 1-3 3-5 5-6 11-7 15-3 3 3 4 6 4 10 0 3-1 10-3 19-18 65-36 108-56 131-21 24-43 24-68 1-8-8-15-16-21-26-6-10-13-23-21-39l-76-171c-14-31-26-54-36-71-10-17-19-29-28-38-17-16-34-13-52 7-9 11-18 27-26 48-8 22-15 46-21 73-7 27-11 55-15 85-3 30-4 59-5 88 0 37 3 70 11 100 7 29 18 59 32 89 6 14 14 29 24 45 10 16 19 30 28 44 6 8 10 14 13 19 3 4 6 8 7 11 1 4 3 6 5 8 4 6 2 13-5 21l-48 56c-5 6-9 8-13 5-1-1-4-6-7-13l-97-193c-4-8-8-14-11-19-2-4-4-8-4-10-4-7-9-16-14-26-6-10-13-22-22-36-15-26-28-46-39-62-10-15-20-27-29-36-7-6-13-6-18 0-2 2-4 5-7 9-3 4-8 12-16 23l-5 7-12-12 69-163c2-4 5-8 9-12 9-10 16-13 22-7 3 3 5 6 6 8l3 3-1 2 35 67 66 144c0-7 0-14 0-20-1-6-1-10 0-14-1-25 0-48 1-70 1-21 3-43 6-64 3-21 7-44 12-66 5-23 11-48 18-76 11-41 22-75 33-100 10-24 22-45 36-60 13-16 28-25 43-27 16-2 30 3 44 16zm432-1086c3 5 6 10 7 16l223 690c6 19 10 34 13 44 3 11 7 21 10 29 15 40 27 66 36 77 12 16 28 15 48-1 12-11 22-25 29-44 7-19 14-46 20-82l6-33v-3l4-18c1-7 2-12 3-14 1-3 2-5 4-7 2-2 4-2 6-3 1 0 2 1 3 1 2 2 2 12 0 30-2 18-5 38-10 61-24 105-54 173-91 205-31 26-61 20-91-18-8-10-16-26-23-47-4-4-7-11-9-20-6-20-13-40-19-61-7-21-13-41-19-60-7-26-13-46-19-60-6-13-13-25-21-35-22-28-52-41-91-39-39 1-76 18-113 49-41 35-63 82-65 141-2 87 26 168 83 242 28 36 55 56 81 62 26 5 54-6 84-31 41-35 66-79 75-133l6-36 1-2c0-2 1-3 2-4 1-1 2-2 4-2 0 1 1 1 2 1 0-1 1-1 1 0 2 2 2 10 2 24-1 13-3 28-6 44-16 84-46 145-91 182-37 32-77 45-120 38-43-7-80-31-113-73-57-74-74-168-51-284 17-97 59-173 124-229 33-28 67-45 101-49 15-2 28-3 38-1 10 2 22 7 38 16l-143-415c-5-16-11-27-17-35-12-16-26-17-42-2-8 6-18 19-32 39-7 10-11 15-10 14-4 3-7 3-10 0-3-4 0-11 7-21l44-63c25-36 46-61 61-74 18-15 31-17 40-6zm692 82c9 13 13 31 12 53-1 22-6 48-15 75-8 28-21 58-37 89-16 31-34 63-54 94l-21 31-15 22c-2 2-5 5-11 9-4 3-7 4-9 1-1-2 0-7 5-15l2-1c1-3 3-7 7-12 37-57 61-109 72-155 11-47 8-84-10-111-8-14-20-21-36-21-15 0-32 6-51 19-26 19-44 43-54 72-12 39-14 83-6 135 9 51 27 99 55 142 48 76 108 89 180 38 27-19 51-43 71-70 20-27 34-56 43-84l8-28c1-4 2-6 4-6 3-3 5-3 7 0 6 10 2 35-14 76-32 85-75 147-129 185-45 33-89 46-130 40-42-6-76-30-103-72-25-39-40-83-46-132-6-50-3-102 11-156 12-48 32-92 57-132 25-41 53-72 84-94 22-16 45-23 70-22 24 2 42 12 53 30zm762-1065c1 1 1 3 1 5 1 2 1 5 1 8l-5 56c0 6-3 11-9 14l-8 4-18 8-24 10c-8 3-14 6-19 8-4 3-8 5-10 6-17 8-28 18-32 30-5 11-5 31-2 60l4 37 30 328 127-65 8 8c-1 3-2 4-2 4-5 21-9 33-12 38 0 2-1 4-2 5-1 1-2 2-2 3-6 7-17 13-31 21l-79 40 41 415 2 13c1 9 2 17 2 23 0 7 0 11-1 13-3 15-18 29-45 42-25 13-40 14-46 2-1-4-2-10-3-19 0-9-1-24-2-45 1-12 0-30-2-55-2-26-5-59-8-102l-19-207-3-36-128 65 4-60 114-59-22-234c-1-23-2-42-4-59-1-17-1-32 0-45 0-13 1-26 2-37 2-11 4-23 7-35 5-18 13-37 24-57 11-20 24-39 39-57 15-18 32-35 51-51 18-16 37-29 55-38 9-5 16-8 19-8 3-1 6 0 7 3zm681 354c14 40 16 88 5 143-11 56-32 115-65 175-27 50-58 92-92 126-33 34-68 59-104 73-24 10-47 14-70 14-23 0-45-5-65-14-21-9-39-22-55-38-16-17-29-37-37-61-15-42-16-90-1-147 14-56 40-110 79-161 23-30 46-57 69-80 23-23 40-36 49-40 3-1 5-1 5 1 1 2 0 4-2 7h-1c-8 8-14 16-20 23-6 8-12 16-19 25-39 53-65 108-78 166-14 57-12 108 4 153 16 42 39 72 70 88 31 16 64 17 100 3 33-13 61-34 86-61 25-28 44-59 58-94 14-35 22-72 24-110 2-38-3-75-16-110-6-16-12-30-20-41-8-12-17-23-28-34-13-10-24-15-35-16-11-1-27 3-49 10-15 6-25 10-30 11-5 1-8 1-9-2-1-3 5-10 19-23l3-3 64-53c5-4 8-6 10-8 3-1 5-3 7-4 17-6 35-5 55 4 23 8 42 19 57 33 15 13 26 28 32 45zm533-280c3 12-2 30-14 56-7 11-11 18-11 21-10 18-17 27-19 28-7 2-11-1-13-8l-5-11-3-3c-9-20-29-25-58-16-43 12-67 47-72 102l-28 243c-3 33-3 54-1 63 2 8 7 15 15 19 8 3 18 4 28 1 15-5 35-19 58-42 23-23 46-51 67-84l21-32c3-3 6-6 8-7 4-1 7 0 7 3 1 3-2 13-11 27-8 15-18 30-29 45-8 12-19 25-32 41-13 15-26 31-40 46-36 40-69 65-98 74-18 5-34 4-47-3-13-6-22-19-26-36-4-12-6-29-6-48-1-20 1-44 4-73l19-211c4-37 3-65-2-83-3-14-14-18-30-13-5 1-14 6-26 12-5 3-9 4-13 6-6 1-10 1-11-2-1-2 4-8 14-16l29-25c12-10 26-19 40-26 14-7 26-12 36-16 32-9 52 1 60 31 1 4 2 9 3 12 0 4 0 9 1 16l62-75c11-13 20-22 27-28 8-5 16-9 25-12 16-5 31-5 45-1 14 4 22 12 26 25zm329 321c2 11-1 23-8 34-9 12-25 26-49 41l-38 25c-6 4-10 7-13 7-3 1-4 0-5-3 0-2 0-4 1-6l2-13c2-12 2-23 0-32-3-18-16-29-39-35l-19-4c-3-1-5-3-5-6-1-3 4-7 14-14l1-2 70-50c5-4 11-7 19-8 7-2 14 0 21 4 13 8 23 18 32 29 9 12 15 23 16 33zm412-76c1 11-3 23-12 34-8 11-25 23-51 37l-39 22c-7 4-11 6-14 6-2 0-4-1-4-4 0-1 0-3 1-5l3-14c2-11 3-22 2-31-2-18-14-31-37-38l-18-5c-3-2-5-4-5-7 0-2 5-7 15-13l1-2 74-45c5-3 11-5 19-6 7-1 13 1 21 5 11 9 21 20 30 32 8 13 12 24 14 34zm418-54c-1 11-6 22-17 31-10 9-29 18-56 27l-43 15c-7 2-11 4-14 3-3 0-4-1-4-4 0-2 1-4 2-6l5-12c5-11 7-21 8-31 0-18-9-33-30-44l-18-8c-2-2-4-5-3-7 0-3 5-7 16-11l2-1 80-31c5-3 12-4 20-3 6 0 13 3 19 9 10 11 19 23 25 37 6 14 8 26 8 36z" stroke="#201e1e" stroke-width="50"/><g font-family="&apos;Arial Black&apos;" font-weight="900" font-size="529.17"><text x="10500" y="14850" transform="matrix(1.15716 0 0 1.2163-4561.57-9761.47)">NN 1</text><text x="10500" y="14850" transform="matrix(1.15716 0 0 1.2163-4564.12-9168.8)">NN 2</text></g><g stroke="#201e1e" stroke-width="7.62"><path d="m4348 21060c427-532 794-774 1406-675 676 108 1023 833 903 1478-293 1566-1773 2466-3094 2980-983-1361-1966-2722-1725-3886 134-642 791-1076 1467-967 612 99 858 439 1043 1070zm-1268-457c0 0-1042 300-39 1944-1519-775-805-2490 39-1944z"/><path d="m4641 19451c112-139 208-203 369-177 177 29 268 219 237 388-77 411-465 647-812 782-258-357-516-714-453-1020 35-168 208-282 385-253 161 25 225 115 274 280zm-333-120c0 0-274 79-10 511-399-204-212-654 10-511z"/><path d="m3236 18983c58-71 107-104 190-91 91 15 137 112 121 199-39 211-239 332-417 402-132-184-264-367-232-524 18-86 107-145 198-130 82 13 115 59 140 144zm-171-61c0 0-140 40-5 261-204-104-108-335 5-261z"/><path d="m4126 17991c116-144 215-209 381-183 183 30 277 226 244 401-79 424-479 667-837 806-266-368-532-737-467-1052 36-174 214-291 397-261 166 26 232 118 282 289zm-343-123c0 0-282 81-10 526-412-210-218-674 10-526z"/><path d="m5123 17145c91-113 170-165 300-144 144 23 218 178 192 315-62 334-377 526-659 636-210-291-419-581-368-829 29-137 169-229 313-206 131 21 183 94 222 228zm-270-97c0 0-222 64-8 414-324-165-172-531 8-414z"/><path d="m2880 17656c91-113 169-165 299-144 144 23 218 178 193 315-63 334-378 526-660 636-209-291-419-581-367-829 28-137 168-229 312-206 131 21 183 94 223 228zm-271-97c0 0-222 64-8 414-324-165-172-531 8-414z"/><path d="m2034 16026c162-202 301-294 534-256 256 41 388 316 342 561-111 595-673 936-1175 1132-373-517-746-1034-654-1476 50-244 300-409 556-367 233 37 326 166 397 406zm-482-173c0 0-396 114-15 738-577-295-305-946 15-738z"/><path d="m4152 14969c219-274 407-398 721-347 347 56 525 428 463 759-150 803-909 1265-1587 1529-505-698-1009-1397-885-1994 68-330 405-552 752-496 314 50 441 225 536 549zm-651-235c0 0-535 154-20 998-780-398-413-1278 20-998z"/><path d="m2034 14218c105-131 195-191 346-166 166 26 251 205 222 363-72 385-436 607-761 733-242-335-484-669-424-956 33-158 194-264 360-237 151 24 211 108 257 263zm-312-113c0 0-256 74-9 478-374-190-198-612 9-478z"/><path d="m3388 12178c219-272 407-396 720-346 346 56 524 427 463 758-150 802-908 1262-1585 1526-503-697-1007-1394-883-1990 68-329 405-551 751-496 313 51 439 225 534 548zm-649-234c0 0-534 154-20 996-778-397-412-1276 20-996z"/><path d="m4092 10293c150-186 278-271 492-236 236 38 357 291 315 517-102 547-619 862-1081 1041-344-475-687-951-603-1358 47-225 276-376 513-338 214 34 300 153 364 374zm-443-160c0 0-364 105-14 680-531-271-281-871 14-680z"/><path d="m5870 9119c59-73 109-106 192-93 92 15 140 114 123 202-40 213-241 336-422 406-134-185-267-371-235-530 19-87 108-146 200-131 84 13 117 60 142 146zm-172-63c0 0-142 41-6 265-207-105-109-339 6-265z"/><path d="m2616 10700c58-72 108-105 192-92 92 15 139 114 123 202-40 213-242 336-422 406-134-186-268-371-235-530 18-87 108-146 200-131 83 13 117 59 142 145zm-173-62c0 0-142 41-5 265-207-106-110-339 5-265z"/><path d="m4420 7714c208-261 387-379 686-331 330 54 500 407 441 723-143 764-866 1204-1511 1455-480-665-960-1329-842-1898 65-314 386-525 716-472 299 48 419 214 510 523zm-620-224c0 0-509 147-19 949-742-378-393-1216 19-949z"/><path d="m6513 6703c181-226 336-328 596-286 286 46 433 353 382 626-124 664-751 1046-1311 1264-417-577-833-1154-731-1648 56-272 335-455 621-409 260 41 364 186 443 453zm-538-194c0 0-442 128-16 824-644-328-342-1055 16-824z"/><path d="m6031 4245c205-256 381-372 675-324 325 52 492 400 434 710-141 752-851 1184-1486 1431-472-654-944-1307-828-1866 64-309 379-517 704-465 294 48 412 211 501 514zm-609-219c0 0-500 144-19 933-729-372-386-1196 19-933z"/><path d="m6244 3307c63-78 117-114 207-99 99 16 150 122 133 217-43 230-261 363-455 438-145-200-289-400-254-571 20-94 117-158 216-142 90 14 126 64 153 157zm-186-67c0 0-153 44-6 286-223-114-118-366 6-286z"/><path d="m7565 2456c125-155 232-226 411-197 197 32 298 243 263 432-86 457-517 719-903 869-287-397-574-794-503-1134 39-187 231-314 428-282 178 29 250 128 304 312zm-370-133c0 0-304 88-11 567-444-226-235-726 11-567z"/><path d="m8805 2474c63-78 116-113 205-98 99 15 150 121 132 215-43 229-258 360-451 435-144-199-287-397-252-567 20-94 115-157 214-141 89 14 125 64 152 156zm-185-67c0 0-152 44-5 284-222-113-118-363 5-284z"/><path d="m6168 24504c212-264 394-384 698-335 335 54 508 414 448 734-146 777-880 1224-1536 1479-488-676-976-1351-856-1929 66-319 392-534 728-480 304 49 426 218 518 531zm-630-227c0 0-517 149-19 965-754-384-400-1236 19-965z"/></g></g></g><path d="m6569 26810c784-413 1046-1247 1134-2113 83-814 92-1647 83-2465-10-912-46-1823-71-2735-28-989-48-1984-9-2973 36-887 118-1804 329-2665 396-1615 1038-3146 1354-4785 96-501 172-1008 227-1517 62-565 100-1134 105-1703 14-1399-164-3443-1271-4400-700-605-1596-622-2443-421-1256 297-2449 911-3404 1825-673 645-1209 1422-1568 2303-396 971-554 2010-518 3062 18 540 45 1079 78 1617 92 1526 232 3050 360 4573 144 1715 270 3427 343 5147 20 466 21 936 26 1403 5 554 11 1109 30 1663 24 679 64 1372 167 2043 71 465 194 1066 441 1465 235 379 631 630 1025 789 474 192 1006 280 1513 295 671 19 1463-89 2069-408z" fill="none" stroke="#fefefe" stroke-width="7.62"/><g fill="#201e1e" font-family="&apos;Arial&apos;" font-size="423.33"><text x="300" y="28462">DESC 1</text><text x="307" y="28909">DESC 2</text><text x="315" y="29376">DESC 3</text></g></svg>