<svg xmlns="http://www.w3.org/2000/svg" width="744.09" height="1052.36" viewBox="0 0 21000 29700" shape-rendering="geometricPrecision" image-rendering="optimizeQuality" fill-rule="evenodd" clip-rule="evenodd"><defs><clipPath id="0"><path d="m6664 25327c700-360 934-1087 1013-1843 74-710 82-1437 74-2151-9-795-41-1591-64-2386-25-863-42-1731-7-2594 31-773 105-1574 293-2325 353-1408 927-2744 1209-4174 86-437 153-880 203-1323 55-493 89-990 94-1486 12-1220-146-3003-1135-3838-625-528-1425-542-2181-367-1121 259-2186 795-3038 1592-602 563-1080 1241-1401 2010-353 846-495 1753-462 2671 17 470 40 941 70 1410 83 1331 207 2660 322 3989 129 1496 242 2990 306 4490 18 407 19 816 23 1223 5 484 10 968 27 1451 21 592 57 1197 149 1782 64 406 173 930 394 1278 210 331 563 549 915 688 424 167 899 244 1351 257 599 17 1306-77 1847-356z"/></clipPath><clipPath id="1"><path d="m14458 25327c-700-360-934-1087-1013-1843-74-710-82-1437-74-2151 9-795 41-1591 64-2386 25-863 42-1731 7-2594-31-773-105-1574-293-2325-353-1408-927-2744-1209-4174-86-437-153-880-203-1323-55-493-89-990-94-1486-12-1220 146-3003 1135-3838 625-528 1425-542 2181-367 1121 259 2186 795 3038 1592 602 563 1080 1241 1401 2010 353 846 495 1753 462 2671-17 470-40 941-70 1410-83 1331-207 2660-322 3989-129 1496-242 2990-306 4490-18 407-19 816-23 1223-5 484-10 968-27 1451-21 592-57 1197-149 1782-64 406-173 930-394 1278-210 331-563 549-915 688-424 167-899 244-1351 257-599 17-1306-77-1847-356z"/></clipPath></defs><text x="10081" y="24465" fill="#201e1e" font-family="&apos;Arial Black&apos;" stroke="#201e1e" font-weight="900" stroke-width="7.62" font-size="705.56">36</text><g fill="none" stroke="#373435" stroke-width="80"><circle cx="10533" cy="1326" r="460"/><path d="m10533 515v1621"/><path d="m9723 1326h1621"/><circle cx="10533" cy="25836" r="460"/><path d="m10533 25026v1621"/><path d="m9723 25836h1621"/></g><rect x="9843" y="22866" width="1347" height="637" rx="318" fill="#fff" stroke="#fff" stroke-width="20"/><path d="m6664 25327c700-360 934-1087 1013-1843 74-710 82-1437 74-2151-9-795-41-1591-64-2386-25-863-42-1731-7-2594 31-773 105-1574 293-2325 353-1408 927-2744 1209-4174 86-437 153-880 203-1323 55-493 89-990 94-1486 12-1220-146-3003-1135-3838-625-528-1425-542-2181-367-1121 259-2186 795-3038 1592-602 563-1080 1241-1401 2010-353 846-495 1753-462 2671 17 470 40 941 70 1410 83 1331 207 2660 322 3989 129 1496 242 2990 306 4490 18 407 19 816 23 1223 5 484 10 968 27 1451 21 592 57 1197 149 1782 64 406 173 930 394 1278 210 331 563 549 915 688 424 167 899 244 1351 257 599 17 1306-77 1847-356z" fill="#fefefe"/><g clip-path="url(#0)"><g stroke-linejoin="round" stroke-linecap="round"><g fill-rule="nonzero"><g fill="#330" stroke="#373435"><g stroke-width="7.62"><path d="m1150 4218c91-158 181-237 363-237 200 0 363 141 363 316 0 316-363 631-726 947-363-315-726-631-726-947 0-174 163-316 363-316 181 0 272 79 363 237z"/><path d="m3228 4218c91-158 181-237 363-237 200 0 363 141 363 316 0 316-363 631-726 947-363-315-726-631-726-947 0-174 163-316 363-316 181 0 272 79 363 237z"/><path d="m5305 4218c91-158 181-237 363-237 200 0 363 141 363 316 0 316-363 631-726 947-363-315-726-631-726-947 0-174 163-316 363-316 181 0 272 79 363 237z"/><path d="m7383 4218c91-158 181-237 363-237 200 0 363 141 363 316 0 316-363 631-726 947-363-315-726-631-726-947 0-174 163-316 363-316 181 0 272 79 363 237z"/><path d="m9460 4218c91-158 181-237 363-237 200 0 363 141 363 316 0 316-363 631-726 947-363-315-726-631-726-947 0-174 163-316 363-316 181 0 272 79 363 237z"/><path d="m11537 4218c91-158 181-237 363-237 200 0 363 141 363 316 0 316-363 631-726 947-363-315-726-631-726-947 0-174 163-316 363-316 181 0 272 79 363 237z"/><path d="m128 2499c91-158 181-237 363-237 200 0 363 141 363 316 0 316-363 631-726 947-363-316-726-631-726-947 0-174 163-316 363-316 181 0 272 79 363 237z"/><path d="m2206 2499c91-158 181-237 363-237 200 0 363 141 363 316 0 316-363 631-726 947-363-316-726-631-726-947 0-174 163-316 363-316 181 0 272 79 363 237z"/><path d="m4283 2499c91-158 181-237 363-237 200 0 363 141 363 316 0 316-363 631-726 947-363-316-726-631-726-947 0-174 163-316 363-316 181 0 272 79 363 237z"/><path d="m10515 2499c91-158 181-237 363-237 200 0 363 141 363 316 0 316-363 631-726 947-363-316-726-631-726-947 0-174 163-316 363-316 181 0 272 79 363 237z"/><path d="m1170 7643c91-158 181-237 363-237 200 0 363 141 363 315 0 316-363 631-726 947-363-316-726-631-726-947 0-174 163-315 363-315 181 0 272 79 363 237z"/><path d="m3248 7643c91-158 181-237 363-237 200 0 363 141 363 315 0 316-363 631-726 947-363-316-726-631-726-947 0-174 163-315 363-315 181 0 272 79 363 237z"/><path d="m5325 7643c91-158 181-237 363-237 200 0 363 141 363 315 0 316-363 631-726 947-363-316-726-631-726-947 0-174 163-315 363-315 181 0 272 79 363 237z"/><path d="m7402 7643c91-158 181-237 363-237 200 0 363 141 363 315 0 316-363 631-726 947-363-316-726-631-726-947 0-174 163-315 363-315 181 0 272 79 363 237z"/><path d="m9480 7643c91-158 181-237 363-237 200 0 363 141 363 315 0 316-363 631-726 947-363-316-726-631-726-947 0-174 163-315 363-315 181 0 272 79 363 237z"/><path d="m11557 7643c91-158 181-237 363-237 200 0 363 141 363 315 0 316-363 631-726 947-363-316-726-631-726-947 0-174 163-315 363-315 181 0 272 79 363 237z"/><path d="m148 5923c91-158 181-237 363-237 200 0 363 141 363 316 0 316-363 631-726 947-363-316-726-631-726-947 0-174 163-316 363-316 181 0 272 79 363 237z"/><path d="m4303 5923c91-158 181-237 363-237 200 0 363 141 363 316 0 316-363 631-726 947-363-316-726-631-726-947 0-174 163-316 363-316 181 0 272 79 363 237z"/><path d="m8458 5923c91-158 181-237 363-237 200 0 363 141 363 316 0 316-363 631-726 947-363-316-726-631-726-947 0-174 163-316 363-316 181 0 272 79 363 237z"/><path d="m10535 5923c91-158 181-237 363-237 200 0 363 141 363 316 0 316-363 631-726 947-363-316-726-631-726-947 0-174 163-316 363-316 181 0 272 79 363 237z"/><path d="m1190 11067c91-158 181-237 363-237 200 0 363 141 363 316 0 316-363 631-726 947-363-316-726-631-726-947 0-174 163-316 363-316 181 0 272 79 363 237z"/><path d="m3267 11067c91-158 181-237 363-237 200 0 363 141 363 316 0 316-363 631-726 947-363-316-726-631-726-947 0-174 163-316 363-316 181 0 272 79 363 237z"/><path d="m5345 11067c91-158 181-237 363-237 200 0 363 141 363 316 0 316-363 631-726 947-363-316-726-631-726-947 0-174 163-316 363-316 181 0 272 79 363 237z"/><path d="m7422 11067c91-158 181-237 363-237 200 0 363 141 363 316 0 316-363 631-726 947-363-316-726-631-726-947 0-174 163-316 363-316 181 0 272 79 363 237z"/><path d="m9500 11067c91-158 181-237 363-237 200 0 363 141 363 316 0 316-363 631-726 947-363-316-726-631-726-947 0-174 163-316 363-316 181 0 272 79 363 237z"/><path d="m11577 11067c91-158 181-237 363-237 200 0 363 141 363 316 0 316-363 631-726 947-363-316-726-631-726-947 0-174 163-316 363-316 181 0 272 79 363 237z"/><path d="m168 9348c91-158 181-237 363-237 200 0 363 141 363 316 0 316-363 631-726 947-363-316-726-631-726-947 0-174 163-316 363-316 181 0 272 79 363 237z"/><path d="m2246 9348c91-158 181-237 363-237 200 0 363 141 363 316 0 316-363 631-726 947-363-316-726-631-726-947 0-174 163-316 363-316 181 0 272 79 363 237z"/><path d="m6400 9348c91-158 181-237 363-237 200 0 363 141 363 316 0 316-363 631-726 947-363-316-726-631-726-947 0-174 163-316 363-316 181 0 272 79 363 237z"/><path d="m10555 9348c91-158 181-237 363-237 200 0 363 141 363 316 0 316-363 631-726 947-363-316-726-631-726-947 0-174 163-316 363-316 181 0 272 79 363 237z"/><path d="m1210 14492c91-158 181-237 363-237 200 0 363 141 363 316 0 316-363 631-726 947-363-316-726-631-726-947 0-174 163-316 363-316 181 0 272 79 363 237z"/><path d="m3287 14492c91-158 181-237 363-237 200 0 363 141 363 316 0 316-363 631-726 947-363-316-726-631-726-947 0-174 163-316 363-316 181 0 272 79 363 237z"/><path d="m5365 14492c91-158 181-237 363-237 200 0 363 141 363 316 0 316-363 631-726 947-363-316-726-631-726-947 0-174 163-316 363-316 181 0 272 79 363 237z"/><path d="m7442 14492c91-158 181-237 363-237 200 0 363 141 363 316 0 316-363 631-726 947-363-316-726-631-726-947 0-174 163-316 363-316 181 0 272 79 363 237z"/><path d="m9519 14492c91-158 181-237 363-237 200 0 363 141 363 316 0 316-363 631-726 947-363-316-726-631-726-947 0-174 163-316 363-316 181 0 272 79 363 237z"/><path d="m11597 14492c91-158 181-237 363-237 200 0 363 141 363 316 0 316-363 631-726 947-363-316-726-631-726-947 0-174 163-316 363-316 181 0 272 79 363 237z"/><path d="m188 12773c91-158 181-237 363-237 200 0 363 141 363 316 0 316-363 631-726 947-363-316-726-631-726-947 0-174 163-316 363-316 181 0 272 79 363 237z"/><path d="m4343 12773c91-158 181-237 363-237 200 0 363 141 363 316 0 316-363 631-726 947-363-316-726-631-726-947 0-174 163-316 363-316 181 0 272 79 363 237z"/><path d="m8498 12773c91-158 181-237 363-237 200 0 363 141 363 316 0 316-363 631-726 947-363-316-726-631-726-947 0-174 163-316 363-316 181 0 272 79 363 237z"/><path d="m10575 12773c91-158 181-237 363-237 200 0 363 141 363 316 0 316-363 631-726 947-363-316-726-631-726-947 0-174 163-316 363-316 181 0 272 79 363 237z"/><path d="m1230 17917c91-158 181-237 363-237 200 0 363 141 363 316 0 316-363 631-726 947-363-315-726-631-726-947 0-174 163-316 363-316 181 0 272 79 363 237z"/><path d="m3307 17917c91-158 181-237 363-237 200 0 363 141 363 316 0 316-363 631-726 947-363-315-726-631-726-947 0-174 163-316 363-316 181 0 272 79 363 237z"/><path d="m5385 17917c91-158 181-237 363-237 200 0 363 141 363 316 0 316-363 631-726 947-363-315-726-631-726-947 0-174 163-316 363-316 181 0 272 79 363 237z"/><path d="m7462 17917c91-158 181-237 363-237 200 0 363 141 363 316 0 316-363 631-726 947-363-315-726-631-726-947 0-174 163-316 363-316 181 0 272 79 363 237z"/><path d="m9539 17917c91-158 181-237 363-237 200 0 363 141 363 316 0 316-363 631-726 947-363-315-726-631-726-947 0-174 163-316 363-316 181 0 272 79 363 237z"/><path d="m11617 17917c91-158 181-237 363-237 200 0 363 141 363 316 0 316-363 631-726 947-363-315-726-631-726-947 0-174 163-316 363-316 181 0 272 79 363 237z"/><path d="m208 16197c91-158 181-237 363-237 200 0 363 141 363 316 0 316-363 631-726 947-363-316-726-631-726-947 0-174 163-316 363-316 181 0 272 79 363 237z"/><path d="m2285 16197c91-158 181-237 363-237 200 0 363 141 363 316 0 316-363 631-726 947-363-316-726-631-726-947 0-174 163-316 363-316 181 0 272 79 363 237z"/><path d="m6440 16197c91-158 181-237 363-237 200 0 363 141 363 316 0 316-363 631-726 947-363-316-726-631-726-947 0-174 163-316 363-316 181 0 272 79 363 237z"/><path d="m8517 16197c91-158 181-237 363-237 200 0 363 141 363 316 0 316-363 631-726 947-363-316-726-631-726-947 0-174 163-316 363-316 181 0 272 79 363 237z"/><path d="m10595 16197c91-158 181-237 363-237 200 0 363 141 363 316 0 316-363 631-726 947-363-316-726-631-726-947 0-174 163-316 363-316 181 0 272 79 363 237z"/><path d="m1250 21341c91-158 181-237 363-237 200 0 363 141 363 316 0 316-363 631-726 947-363-316-726-631-726-947 0-174 163-316 363-316 181 0 272 79 363 237z"/><path d="m9559 21341c91-158 181-237 363-237 200 0 363 141 363 316 0 316-363 631-726 947-363-316-726-631-726-947 0-174 163-316 363-316 181 0 272 79 363 237z"/><path d="m11637 21341c91-158 181-237 363-237 200 0 363 141 363 316 0 316-363 631-726 947-363-316-726-631-726-947 0-174 163-316 363-316 181 0 272 79 363 237z"/><path d="m228 19622c91-158 181-237 363-237 200 0 363 141 363 316 0 316-363 631-726 947-363-316-726-631-726-947 0-174 163-316 363-316 181 0 272 79 363 237z"/><path d="m8537 19622c91-158 181-237 363-237 200 0 363 141 363 316 0 316-363 631-726 947-363-316-726-631-726-947 0-174 163-316 363-316 181 0 272 79 363 237z"/><path d="m10615 19622c91-158 181-237 363-237 200 0 363 141 363 316 0 316-363 631-726 947-363-316-726-631-726-947 0-174 163-316 363-316 181 0 272 79 363 237z"/><path d="m1270 24766c91-158 181-237 363-237 200 0 363 141 363 316 0 316-363 631-726 947-363-316-726-631-726-947 0-174 163-316 363-316 181 0 272 79 363 237z"/><path d="m9579 24766c91-158 181-237 363-237 200 0 363 141 363 316 0 316-363 631-726 947-363-316-726-631-726-947 0-174 163-316 363-316 181 0 272 79 363 237z"/><path d="m11656 24766c91-158 181-237 363-237 200 0 363 141 363 316 0 316-363 631-726 947-363-316-726-631-726-947 0-174 163-316 363-316 181 0 272 79 363 237z"/><path d="m248 23047c91-158 181-237 363-237 200 0 363 141 363 316 0 316-363 631-726 947-363-316-726-631-726-947 0-174 163-316 363-316 181 0 272 79 363 237z"/></g><g stroke-width="100"><path d="m6361 2499c91-158 181-237 363-237 200 0 363 141 363 316 0 316-363 631-726 947-363-316-726-631-726-947 0-174 163-316 363-316 181 0 272 79 363 237z"/><path d="m8438 2499c91-158 181-237 363-237 200 0 363 141 363 316 0 316-363 631-726 947-363-316-726-631-726-947 0-174 163-316 363-316 181 0 272 79 363 237z"/><path d="m2226 5923c91-158 181-237 363-237 200 0 363 141 363 316 0 316-363 631-726 947-363-316-726-631-726-947 0-174 163-316 363-316 181 0 272 79 363 237z"/><path d="m6380 5923c91-158 181-237 363-237 200 0 363 141 363 316 0 316-363 631-726 947-363-316-726-631-726-947 0-174 163-316 363-316 181 0 272 79 363 237z"/><path d="m4323 9348c91-158 181-237 363-237 200 0 363 141 363 316 0 316-363 631-726 947-363-316-726-631-726-947 0-174 163-316 363-316 181 0 272 79 363 237z"/><path d="m8478 9348c91-158 181-237 363-237 200 0 363 141 363 316 0 316-363 631-726 947-363-316-726-631-726-947 0-174 163-316 363-316 181 0 272 79 363 237z"/><path d="m2265 12773c91-158 181-237 363-237 200 0 363 141 363 316 0 316-363 631-726 947-363-316-726-631-726-947 0-174 163-316 363-316 181 0 272 79 363 237z"/><path d="m6420 12773c91-158 181-237 363-237 200 0 363 141 363 316 0 316-363 631-726 947-363-316-726-631-726-947 0-174 163-316 363-316 181 0 272 79 363 237z"/><path d="m4363 16197c91-158 181-237 363-237 200 0 363 141 363 316 0 316-363 631-726 947-363-316-726-631-726-947 0-174 163-316 363-316 181 0 272 79 363 237z"/><path d="m2305 19622c91-158 181-237 363-237 200 0 363 141 363 316 0 316-363 631-726 947-363-316-726-631-726-947 0-174 163-316 363-316 181 0 272 79 363 237z"/><path d="m6460 19622c91-158 181-237 363-237 200 0 363 141 363 316 0 316-363 631-726 947-363-316-726-631-726-947 0-174 163-316 363-316 181 0 272 79 363 237z"/></g><g stroke-width="7.62"><path d="m8557 23047c91-158 181-237 363-237 200 0 363 141 363 316 0 316-363 631-726 947-363-316-726-631-726-947 0-174 163-316 363-316 181 0 272 79 363 237z"/><path d="m10634 23047c91-158 181-237 363-237 200 0 363 141 363 316 0 316-363 631-726 947-363-316-726-631-726-947 0-174 163-316 363-316 181 0 272 79 363 237z"/></g><path d="m4308 19622c91-158 181-237 363-237 200 0 363 141 363 316 0 316-363 631-726 947-363-316-726-631-726-947 0-174 163-316 363-316 181 0 272 79 363 237z" stroke-width="100"/><g stroke-width="7.62"><path d="m7750 21341c91-158 181-237 363-237 200 0 363 141 363 316 0 316-363 631-726 947-363-316-726-631-726-947 0-174 163-316 363-316 181 0 272 79 363 237z"/><path d="m7588 24766c91-158 181-237 363-237 200 0 363 141 363 316 0 316-363 631-726 947-363-316-726-631-726-947 0-174 163-316 363-316 181 0 272 79 363 237z"/><path d="m2106 23047c91-158 181-237 363-237 200 0 363 141 363 316 0 316-363 631-726 947-363-316-726-631-726-947 0-174 163-316 363-316 181 0 272 79 363 237z"/></g></g><path d="m2012 8165l-28-9c-3-62-8-115-17-160 29 12 66 26 112 41l173 57 7-58c3-27-2-57-15-90-13-33-37-63-72-90-35-27-74-42-116-45-42-2-76 11-102 41-26 29-41 76-44 140-4 72 10 144 42 215 31 71 74 127 126 168 53 41 105 62 158 65 26 1 49-2 69-11 20-9 40-25 60-49 16-20 31-30 45-29 9 0 17 4 23 11 6 7 9 15 8 25-1 25-19 49-54 70-35 22-78 31-129 28-94-5-178-47-252-125-97-103-141-236-133-399 3-62 14-113 32-152 18-39 41-68 69-86 28-18 59-27 90-25 41 2 80 18 118 48 38 30 67 73 89 128 21 56 30 117 27 183-1 10-2 26-4 48l191 61c32 10 64 22 96 34 10-33 15-62 16-86 2-31-2-65-12-101l34 10c7 34 10 62 9 85-1 22-5 54-12 97-6 34-9 62-10 83-2 41 0 84 8 128l-33-9c-5-45-13-76-26-92-18-24-54-45-110-62l-368-116c-17-5-29-8-36-8-7 0-13 2-18 7-5 5-8 12-9 19 0 3 0 7 1 13zm222-800c9-41 32-71 70-90 38-20 85-23 141-9 90 21 163 73 220 155 57 82 77 159 61 231-10 44-32 77-67 97-35 20-76 25-125 13-85-20-158-64-219-130-75-84-103-173-82-266zm34 64c-8 35 9 75 51 120 42 45 106 77 192 98 53 12 96 12 131-1 26-10 41-27 47-52 8-35-6-72-42-110-46-50-110-84-191-103-61-14-106-16-136-5-30 11-47 29-53 54zm585-257l-26 92-149-90c-73-44-143-85-210-121-17-9-27-14-31-15-10-3-16 0-18 9-2 6 0 17 4 32 5 15 18 44 41 87l-26 13c-30-52-50-100-60-145-9-45-12-78-6-99 2-7 5-12 10-16 5-3 10-4 15-3 5 2 18 8 39 20l100 58c-52-60-93-123-124-188-15-31-20-55-15-72 3-12 10-22 20-27 10-6 20-7 31-4 11 3 19 10 24 20 5 10 9 33 10 68 2 33 7 61 15 85 9 23 24 51 47 82 23 31 43 54 62 70 19 15 65 44 137 85l108 62zm-87-1039c19-37 49-60 91-68 41-9 87 0 138 28 81 44 139 114 174 208 34 94 34 174 1 239-21 40-50 66-89 76-39 11-80 4-124-20-77-42-136-103-178-184-52-101-56-194-12-279zm16 71c-17 32-10 75 19 129 29 54 83 103 161 146 48 26 90 37 127 34 27-2 47-15 58-38 16-32 12-71-12-118-32-60-85-110-159-150-55-30-98-44-130-41-31 2-53 15-65 38zm263-223l-30 6c-12-74-16-130-12-166 4-36 12-64 25-83 5-7 10-12 16-14 6-2 11-2 15 1 3 2 8 7 15 14l88 96c-15-63-22-133-20-211 1-41 8-71 21-90 9-14 21-22 34-23 14-2 29 3 45 14 11 7 22 17 33 30 19 21 58 70 117 146 55 71 95 115 118 131 7 5 13 7 17 8 5 0 9-2 11-5 7-10 8-33 3-68-4-25-6-49-8-73l27-1c14 57 20 110 18 160-1 32-6 55-16 69-9 13-20 20-35 21-14 1-32-6-54-21-31-21-94-94-190-217-35-42-57-66-64-71-11-7-20-5-29 9-9 14-14 37-14 70-1 48 6 93 21 136 9 27 31 59 65 97l152 168-52 79c-42-51-83-98-123-141l-165-183c-7-7-12-12-15-15-9-6-16-6-21 1-4 6-5 16-5 32 0 32 3 64 11 97zm903-686l29 4c-5 75-11 127-19 158-11 43-24 72-39 88-7 7-15 11-23 12-8 1-15-2-20-7-5-5-12-15-20-30l-40-70c4 75 1 132-8 170-9 38-23 67-42 87-15 16-35 23-59 20-24-3-50-17-77-44-43-42-77-105-104-190-27-84-37-158-28-221 8-63 26-109 55-140 6-7 17-16 32-27-45-72-74-128-89-168-14-40-21-80-21-120 0-40 8-79 22-116 15-37 33-68 55-91 12-12 24-19 37-20 13-1 24 3 34 13 9 9 14 20 13 33-1 13-6 25-17 36-7 8-22 20-45 38-23 18-38 31-45 38-10 11-16 23-17 38-1 15 5 36 20 64 9 18 41 72 97 161l209 334c25 39 42 64 53 75 11 11 21 12 30 3 5-6 9-14 12-25 4-16 9-50 15-103zm-323-132c-29 19-48 34-57 44-19 20-30 48-33 84-3 35 10 84 38 147 28 63 59 111 92 144 15 15 32 23 49 24 18 1 32-4 42-14 12-13 20-33 25-61 6-40 3-79-7-116-7-23-33-70-78-142l-70-111zm642-154l33 9c-18 143-56 238-112 285-23 19-47 26-71 20-25-6-51-26-79-62-56-71-91-159-104-264-16-119 9-206 75-260 23-19 45-28 66-26 21 2 40 13 56 34 17 22 27 49 29 82 2 33-7 76-27 130-10 26-35 79-74 159 11 20 23 39 36 55 19 24 35 37 50 40 15 3 29-1 43-12 13-11 25-27 35-48 13-28 28-75 44-140zm-226 69c33-67 52-125 56-174 2-34-4-60-18-79-11-14-24-23-38-25-14-2-27 1-38 11-12 10-20 24-24 43-5 25-4 54 6 88 14 49 33 94 56 137zm435-622l132-72c-27-106-39-190-35-251 4-61 22-117 53-168 31-51 66-87 106-109 22-12 42-17 58-14 16 3 27 10 34 23 6 11 7 23 3 34-4 12-12 21-24 28-13 7-39 16-79 28-20 6-34 12-44 17-24 13-38 40-41 82-4 41 2 91 18 150l35 135 145-79 12 45-147 80 100 408c30 124 30 231 0 319-30 89-79 152-148 189-23 13-43 18-60 15-17-3-29-11-36-24-6-12-7-23-2-35 5-11 15-21 30-30 8-4 20-10 36-16 27-11 53-22 76-35 36-20 58-43 65-69 7-27 2-78-17-156l-127-522-131 72-11-45zm592-385c36-20 73-21 112-5 39 16 72 51 99 103 43 84 54 174 31 272-23 98-66 164-130 199-39 21-78 26-115 12-38-13-68-43-92-88-41-79-57-164-48-255 12-114 60-193 142-238zm-25 68c-31 17-50 56-55 118-5 62 13 133 54 213 25 49 54 83 87 101 24 14 47 14 69 2 31-17 49-52 54-105 6-69-11-140-50-216-29-56-58-93-85-109-27-16-52-18-74-6zm557 290l-87 34-19-177c-10-87-20-168-32-245-3-19-5-30-7-35-4-10-10-13-18-9-6 2-13 10-22 23-9 13-23 42-42 86l-26-14c22-56 48-101 77-136 30-35 54-57 74-64 7-3 13-3 18-1 5 2 9 5 11 10 2 5 5 20 8 44l15 117c15-79 39-150 72-215 16-31 31-49 47-56 12-5 23-5 34 0 11 5 18 12 22 23 4 11 4 21-1 32-5 11-20 27-47 49-25 21-44 42-57 63-13 21-25 50-35 87-11 37-16 68-17 93-1 25 445 80 370 118l-337 172zm253-248c15-6 30-5 45 4 15 8 25 21 31 39 9 26 10 49 4 68-7 19-20 32-38 39-15 6-30 5-44-2-14-7-24-19-30-37-9-25-10-50-2-74 6-18 17-30 35-37zm277-86c15-5 30-3 44 6 14 9 24 22 29 41 8 27 8 49 0 68-8 19-21 31-40 37-15 5-30 3-44-4-14-8-23-21-29-38-8-26-7-50 2-74 6-18 19-29 37-35zm280-70c16-4 30-1 44 9 14 10 22 24 26 43 6 27 5 50-4 68-9 18-23 30-42 34-16 4-30 1-44-8-13-9-22-22-26-40-6-26-4-51 7-74 8-17 21-28 39-32z" fill="#fefefe" stroke="#fefefe" stroke-width="400"/><path d="m2013 8165l-28-9c-3-62-9-115-17-159 28 12 65 24 111 38l172 57 4-59c3-27-2-57-15-90-13-33-37-63-71-90-35-27-73-42-115-44-42-2-75 11-101 41-26 30-40 76-44 140-4 72 10 144 42 215 31 71 73 127 126 168 52 41 105 62 158 65 26 1 49-2 69-11 20-9 40-25 60-49 16-20 31-30 45-29 9 0 17 4 22 11 6 7 9 15 8 25-1 25-19 49-54 70-35 22-78 31-129 28-94-5-178-47-251-125-97-103-141-236-133-399 3-62 14-113 31-152 18-39 41-68 69-86 28-18 58-27 90-25 40 2 80 18 117 48 38 30 67 73 88 128 21 55 30 116 27 183-1 10-2 26-4 48l191 62c32 10 64 21 96 33 9-33 15-62 16-86 2-31-2-65-11-101l34 9c7 34 10 62 8 85-1 22-5 54-12 97-6 34-9 61-10 83-2 41 0 84 8 128l-33-9c-5-45-13-75-26-92-18-24-54-45-109-62l-367-116c-17-5-29-8-36-8-7 0-12 2-18 7-5 5-8 12-9 19 0 3 0 7 1 13zm220-801c9-41 33-71 70-90 38-20 85-23 141-9 90 21 163 73 220 155 57 82 77 159 61 231-10 44-32 77-67 98-35 21-76 25-125 13-85-20-158-64-219-131-75-84-103-173-81-266zm34 64c-8 35 9 75 51 120 42 45 106 77 192 98 53 12 96 12 131-1 26-10 41-27 47-52 8-35-6-71-42-110-46-49-110-84-191-103-61-14-106-16-136-6-30 11-47 29-53 54zm585-257l-26 92-149-90c-73-44-143-85-210-121-17-9-27-14-31-15-9-3-15 0-17 9-2 6 0 17 4 32 5 15 19 44 42 87l-26 13c-30-52-50-100-60-146-10-45-11-79-6-100 2-7 5-13 10-16 5-3 9-4 14-3 5 2 18 8 39 20l100 59c-52-60-93-122-123-188-14-31-20-55-15-72 3-12 10-22 20-27 10-6 20-7 31-4 11 3 19 10 24 20 5 10 9 33 10 68 2 33 7 61 15 85 9 23 24 50 47 82 22 31 43 54 62 70 19 15 64 43 136 85l108 62zm-87-1039c19-37 49-60 91-69 41-9 87 0 138 28 81 44 139 114 174 208 34 94 34 174 0 240-21 40-51 66-89 77-38 11-80 4-124-20-77-42-136-103-178-184-52-101-55-194-12-279zm17 71c-17 32-10 75 19 129 29 54 83 103 161 145 48 26 90 37 127 34 27-3 47-15 58-38 16-31 12-71-13-117-32-60-85-110-158-150-55-30-98-44-129-42-31 2-53 15-65 38zm264-221l-30 6c-12-75-16-131-12-167 4-37 12-65 25-84 5-8 10-12 16-15 6-2 11-2 15 1 3 2 8 7 15 14l88 96c-15-63-22-133-20-211 1-41 8-71 20-89 9-14 20-22 34-23 14-2 29 3 44 14 11 7 22 17 33 30 19 21 58 70 117 146 55 71 95 115 118 131 7 5 13 8 18 8 5 0 9-1 11-5 7-10 8-33 3-68-4-25-6-50-8-73l27 1c14 57 20 109 18 159-1 32-6 55-16 69-9 13-20 20-35 21-14 1-32-6-54-21-31-21-94-94-190-217-35-42-57-66-64-71-10-7-20-4-28 9-9 14-14 37-14 70-1 48 6 93 21 135 9 27 31 60 66 97l152 168-52 79c-42-51-83-98-123-141l-165-183c-7-7-11-12-15-14-9-6-16-6-21 1-4 6-6 16-5 32 0 32 3 64 11 98zm900-687l30 4c-4 75-11 128-18 158-11 43-23 72-38 88-7 7-15 11-23 12-8 1-15-2-20-7-5-5-12-15-21-30l-40-71c4 76 2 132-7 171-9 38-23 67-42 87-15 16-35 23-59 20-24-3-50-17-77-44-43-42-78-106-105-191-27-85-37-159-29-222 8-63 26-110 55-140 6-7 17-16 32-27-45-72-74-128-88-168-14-40-21-79-21-120 0-40 8-79 22-116 15-37 33-68 55-91 12-12 24-19 37-20 13-1 25 3 34 13 9 9 14 20 13 33 0 13-6 25-17 37-7 8-22 21-45 39-23 18-37 31-45 39-10 11-16 23-17 38-1 14 5 36 19 64 9 18 42 72 98 161l210 333c25 39 43 64 53 75 11 11 21 12 29 3 5-6 10-14 13-25 4-16 8-51 12-104zm-322-133c-29 19-48 34-57 44-19 21-30 49-33 84-3 35 10 85 38 148 28 63 59 111 93 145 15 15 32 23 49 25 18 1 32-4 42-14 12-13 20-33 25-61 6-40 3-79-8-116-7-23-34-71-79-143l-71-111zm643-153l33 8c-18 143-55 238-112 285-23 19-47 26-71 20-25-6-51-26-78-61-56-71-90-158-103-263-16-119 9-205 75-260 23-19 45-28 66-26 21 2 40 13 56 33 17 22 26 49 28 82 2 33-7 76-27 130-10 27-35 79-74 159 11 20 23 38 36 55 18 23 35 37 50 40 15 3 29-1 43-12 13-11 25-27 34-48 13-28 28-75 44-140zm-226 70c33-67 52-125 57-174 3-34-4-60-18-79-11-14-24-22-38-25-14-2-27 1-38 11-12 10-20 24-24 43-6 25-4 54 5 87 14 49 32 94 56 137zm434-623l131-72c-27-106-39-189-35-251 4-61 22-117 53-168 31-51 66-87 106-109 22-12 42-17 58-14 16 3 27 10 34 23 6 11 7 23 3 35-4 12-12 21-24 28-13 7-39 16-79 28-19 6-34 12-44 17-24 13-38 40-42 82-3 41 2 91 18 150l33 136 146-80 12 45-147 80 100 408c30 124 30 230 0 319-30 89-79 152-148 189-23 13-43 18-60 15-17-3-28-11-35-24-6-12-7-23-2-34 5-11 15-21 30-30 8-4 19-9 35-16 28-11 53-22 76-35 36-20 58-43 65-70 7-27 2-78-17-156l-127-522-131 72-11-46zm592-386c36-20 73-21 113-5 39 16 72 51 99 103 43 83 53 174 31 272-23 98-66 164-130 199-39 21-78 26-115 12-38-13-68-43-92-88-41-79-57-164-47-255 12-114 60-193 142-238zm-25 68c-31 17-49 56-55 118-5 62 13 133 54 213 25 49 54 83 87 101 24 13 47 14 69 2 31-17 48-52 53-105 6-68-11-140-50-215-29-56-57-93-85-109-27-16-52-18-74-6zm558 290l-87 34-19-177c-10-87-20-168-32-245-3-19-5-30-7-35-3-9-9-12-18-9-6 2-13 10-22 23-9 13-23 42-42 87l-26-14c22-56 48-102 77-137 29-35 54-57 74-64 7-3 13-3 18-2 5 2 9 5 11 10 2 5 5 20 8 44l15 117c15-79 39-150 72-214 16-31 31-49 47-56 12-5 23-5 34 0 11 5 18 12 22 23 4 11 4 21-1 32-5 11-20 27-47 49-25 21-44 43-57 63-13 21-24 50-35 88-11 37-16 68-17 93-1 25 5 79 16 163l17 126zm253-249c15-6 30-5 44 3 15 8 25 21 31 39 9 26 10 48 3 68-7 19-19 32-38 39-15 6-30 5-44-2-14-7-24-19-31-36-9-25-9-50-2-74 6-18 17-30 35-37zm277-86c15-5 30-3 44 6 14 9 24 22 29 40 8 26 8 49 0 68-8 19-21 31-40 37-15 5-30 3-44-5-14-8-23-20-29-38-8-25-7-50 2-74 7-18 19-29 37-35zm280-70c16-4 30-1 44 9 13 10 22 24 27 42 6 27 5 49-5 68-9 18-23 30-42 34-16 4-30 1-43-8-13-9-22-22-26-40-6-26-4-50 7-73 8-17 21-28 39-32z" stroke="#373435" stroke-width="50"/></g><g fill="#330" stroke="#373435" stroke-width="50"><text x="10500" y="14850" font-family="&apos;Monotype Corsiva&apos;" font-style="italic" font-size="1178.39" transform="matrix(1.03309 0 0 1.06097-8451.09 5873.7)">Texto 01</text><path d="m5020 22332l19 26c-97 95-180 143-249 143-28 0-50-10-64-29-15-20-22-51-22-94 0-87 26-173 77-259 58-98 127-147 207-147 28 0 50 7 64 22 15 14 22 34 22 59 0 26-9 52-27 78-18 26-50 52-96 80-23 13-72 38-148 73-3 22-5 43-5 63 0 29 4 49 13 60 9 11 22 17 39 17 16 0 34-5 53-14 26-13 64-38 115-77zm-208-88c64-29 112-61 144-94 22-24 33-47 33-70 0-17-4-31-13-42-9-10-21-15-35-15-15 0-29 6-43 17-19 15-34 38-47 68-18 45-31 90-39 136z" fill-rule="nonzero"/><g font-family="&apos;Monotype Corsiva&apos;" font-style="italic"><text x="10500" y="14850" font-size="1178.39" transform="matrix(1.03309 0 0 1.06097-8043.61 7741.28)">Texto 02</text><text x="10500" y="14850" font-size="831.54" transform="matrix(1.03309 0 0 1.06097-7626.75 8799.32)">00.00.0000</text></g></g></g></g><rect x="3611" y="14702" width="1673" height="707" rx="836.5" ry="353.5" fill="#fefefe" stroke="#fefefe" stroke-linejoin="round" stroke-linecap="round" stroke-width="7.62"/><text x="10500" y="14850" fill="#373435" font-family="&apos;Arial Black&apos;" font-weight="900" font-size="561.42" transform="matrix(.97373 0 0 1-6477.77 410.25)">NN 1</text><path d="m14458 25327c-700-360-934-1087-1013-1843-74-710-82-1437-74-2151 9-795 41-1591 64-2386 25-863 42-1731 7-2594-31-773-105-1574-293-2325-353-1408-927-2744-1209-4174-86-437-153-880-203-1323-55-493-89-990-94-1486-12-1220 146-3003 1135-3838 625-528 1425-542 2181-367 1121 259 2186 795 3038 1592 602 563 1080 1241 1401 2010 353 846 495 1753 462 2671-17 470-40 941-70 1410-83 1331-207 2660-322 3989-129 1496-242 2990-306 4490-18 407-19 816-23 1223-5 484-10 968-27 1451-21 592-57 1197-149 1782-64 406-173 930-394 1278-210 331-563 549-915 688-424 167-899 244-1351 257-599 17-1306-77-1847-356z" fill="#fefefe"/><g clip-path="url(#1)"><g fill="#330" stroke="#373435" stroke-linejoin="round" stroke-linecap="round"><g fill-rule="nonzero"><g stroke-width="7.62"><path d="m19972 4218c-91-158-181-237-363-237-200 0-363 141-363 316 0 316 363 631 726 947 363-315 726-631 726-947 0-174-163-316-363-316-181 0-272 79-363 237z"/><path d="m17894 4218c-91-158-181-237-363-237-200 0-363 141-363 316 0 316 363 631 726 947 363-315 726-631 726-947 0-174-163-316-363-316-181 0-272 79-363 237z"/><path d="m15817 4218c-91-158-181-237-363-237-200 0-363 141-363 316 0 316 363 631 726 947 363-315 726-631 726-947 0-174-163-316-363-316-181 0-272 79-363 237z"/><path d="m13739 4218c-91-158-181-237-363-237-200 0-363 141-363 316 0 316 363 631 726 947 363-315 726-631 726-947 0-174-163-316-363-316-181 0-272 79-363 237z"/><path d="m11662 4218c-91-158-181-237-363-237-200 0-363 141-363 316 0 316 363 631 726 947 363-315 726-631 726-947 0-174-163-316-363-316-181 0-272 79-363 237z"/><path d="m9585 4218c-91-158-181-237-363-237-200 0-363 141-363 316 0 316 363 631 726 947 363-315 726-631 726-947 0-174-163-316-363-316-181 0-272 79-363 237z"/><path d="m20993 2499c-91-158-181-237-363-237-200 0-363 141-363 316 0 316 363 631 726 947 363-316 726-631 726-947 0-174-163-316-363-316-181 0-272 79-363 237z"/><path d="m18916 2499c-91-158-181-237-363-237-200 0-363 141-363 316 0 316 363 631 726 947 363-316 726-631 726-947 0-174-163-316-363-316-181 0-272 79-363 237z"/><path d="m16839 2499c-91-158-181-237-363-237-200 0-363 141-363 316 0 316 363 631 726 947 363-316 726-631 726-947 0-174-163-316-363-316-181 0-272 79-363 237z"/><path d="m10607 2499c-91-158-181-237-363-237-200 0-363 141-363 316 0 316 363 631 726 947 363-316 726-631 726-947 0-174-163-316-363-316-181 0-272 79-363 237z"/><path d="m19952 7643c-91-158-181-237-363-237-200 0-363 141-363 315 0 316 363 631 726 947 363-316 726-631 726-947 0-174-163-315-363-315-181 0-272 79-363 237z"/><path d="m17874 7643c-91-158-181-237-363-237-200 0-363 141-363 315 0 316 363 631 726 947 363-316 726-631 726-947 0-174-163-315-363-315-181 0-272 79-363 237z"/><path d="m15797 7643c-91-158-181-237-363-237-200 0-363 141-363 315 0 316 363 631 726 947 363-316 726-631 726-947 0-174-163-315-363-315-181 0-272 79-363 237z"/><path d="m13720 7643c-91-158-181-237-363-237-200 0-363 141-363 315 0 316 363 631 726 947 363-316 726-631 726-947 0-174-163-315-363-315-181 0-272 79-363 237z"/><path d="m11642 7643c-91-158-181-237-363-237-200 0-363 141-363 315 0 316 363 631 726 947 363-316 726-631 726-947 0-174-163-315-363-315-181 0-272 79-363 237z"/><path d="m9565 7643c-91-158-181-237-363-237-200 0-363 141-363 315 0 316 363 631 726 947 363-316 726-631 726-947 0-174-163-315-363-315-181 0-272 79-363 237z"/><path d="m20974 5923c-91-158-181-237-363-237-200 0-363 141-363 316 0 316 363 631 726 947 363-316 726-631 726-947 0-174-163-316-363-316-181 0-272 79-363 237z"/><path d="m16819 5923c-91-158-181-237-363-237-200 0-363 141-363 316 0 316 363 631 726 947 363-316 726-631 726-947 0-174-163-316-363-316-181 0-272 79-363 237z"/><path d="m12664 5923c-91-158-181-237-363-237-200 0-363 141-363 316 0 316 363 631 726 947 363-316 726-631 726-947 0-174-163-316-363-316-181 0-272 79-363 237z"/><path d="m10587 5923c-91-158-181-237-363-237-200 0-363 141-363 316 0 316 363 631 726 947 363-316 726-631 726-947 0-174-163-316-363-316-181 0-272 79-363 237z"/><path d="m19932 11067c-91-158-181-237-363-237-200 0-363 141-363 316 0 316 363 631 726 947 363-316 726-631 726-947 0-174-163-316-363-316-181 0-272 79-363 237z"/><path d="m17854 11067c-91-158-181-237-363-237-200 0-363 141-363 316 0 316 363 631 726 947 363-316 726-631 726-947 0-174-163-316-363-316-181 0-272 79-363 237z"/><path d="m15777 11067c-91-158-181-237-363-237-200 0-363 141-363 316 0 316 363 631 726 947 363-316 726-631 726-947 0-174-163-316-363-316-181 0-272 79-363 237z"/><path d="m13700 11067c-91-158-181-237-363-237-200 0-363 141-363 316 0 316 363 631 726 947 363-316 726-631 726-947 0-174-163-316-363-316-181 0-272 79-363 237z"/><path d="m11622 11067c-91-158-181-237-363-237-200 0-363 141-363 316 0 316 363 631 726 947 363-316 726-631 726-947 0-174-163-316-363-316-181 0-272 79-363 237z"/><path d="m9545 11067c-91-158-181-237-363-237-200 0-363 141-363 316 0 316 363 631 726 947 363-316 726-631 726-947 0-174-163-316-363-316-181 0-272 79-363 237z"/><path d="m20954 9348c-91-158-181-237-363-237-200 0-363 141-363 316 0 316 363 631 726 947 363-316 726-631 726-947 0-174-163-316-363-316-181 0-272 79-363 237z"/><path d="m18876 9348c-91-158-181-237-363-237-200 0-363 141-363 316 0 316 363 631 726 947 363-316 726-631 726-947 0-174-163-316-363-316-181 0-272 79-363 237z"/><path d="m14722 9348c-91-158-181-237-363-237-200 0-363 141-363 316 0 316 363 631 726 947 363-316 726-631 726-947 0-174-163-316-363-316-181 0-272 79-363 237z"/><path d="m10567 9348c-91-158-181-237-363-237-200 0-363 141-363 316 0 316 363 631 726 947 363-316 726-631 726-947 0-174-163-316-363-316-181 0-272 79-363 237z"/><path d="m19912 14492c-91-158-181-237-363-237-200 0-363 141-363 316 0 316 363 631 726 947 363-316 726-631 726-947 0-174-163-316-363-316-181 0-272 79-363 237z"/><path d="m17835 14492c-91-158-181-237-363-237-200 0-363 141-363 316 0 316 363 631 726 947 363-316 726-631 726-947 0-174-163-316-363-316-181 0-272 79-363 237z"/><path d="m15757 14492c-91-158-181-237-363-237-200 0-363 141-363 316 0 316 363 631 726 947 363-316 726-631 726-947 0-174-163-316-363-316-181 0-272 79-363 237z"/><path d="m13680 14492c-91-158-181-237-363-237-200 0-363 141-363 316 0 316 363 631 726 947 363-316 726-631 726-947 0-174-163-316-363-316-181 0-272 79-363 237z"/><path d="m11602 14492c-91-158-181-237-363-237-200 0-363 141-363 316 0 316 363 631 726 947 363-316 726-631 726-947 0-174-163-316-363-316-181 0-272 79-363 237z"/><path d="m9525 14492c-91-158-181-237-363-237-200 0-363 141-363 316 0 316 363 631 726 947 363-316 726-631 726-947 0-174-163-316-363-316-181 0-272 79-363 237z"/><path d="m20934 12773c-91-158-181-237-363-237-200 0-363 141-363 316 0 316 363 631 726 947 363-316 726-631 726-947 0-174-163-316-363-316-181 0-272 79-363 237z"/><path d="m16779 12773c-91-158-181-237-363-237-200 0-363 141-363 316 0 316 363 631 726 947 363-316 726-631 726-947 0-174-163-316-363-316-181 0-272 79-363 237z"/><path d="m12624 12773c-91-158-181-237-363-237-200 0-363 141-363 316 0 316 363 631 726 947 363-316 726-631 726-947 0-174-163-316-363-316-181 0-272 79-363 237z"/><path d="m10547 12773c-91-158-181-237-363-237-200 0-363 141-363 316 0 316 363 631 726 947 363-316 726-631 726-947 0-174-163-316-363-316-181 0-272 79-363 237z"/><path d="m19892 17917c-91-158-181-237-363-237-200 0-363 141-363 316 0 316 363 631 726 947 363-315 726-631 726-947 0-174-163-316-363-316-181 0-272 79-363 237z"/><path d="m17815 17917c-91-158-181-237-363-237-200 0-363 141-363 316 0 316 363 631 726 947 363-315 726-631 726-947 0-174-163-316-363-316-181 0-272 79-363 237z"/><path d="m15737 17917c-91-158-181-237-363-237-200 0-363 141-363 316 0 316 363 631 726 947 363-315 726-631 726-947 0-174-163-316-363-316-181 0-272 79-363 237z"/><path d="m13660 17917c-91-158-181-237-363-237-200 0-363 141-363 316 0 316 363 631 726 947 363-315 726-631 726-947 0-174-163-316-363-316-181 0-272 79-363 237z"/><path d="m11583 17917c-91-158-181-237-363-237-200 0-363 141-363 316 0 316 363 631 726 947 363-315 726-631 726-947 0-174-163-316-363-316-181 0-272 79-363 237z"/><path d="m9505 17917c-91-158-181-237-363-237-200 0-363 141-363 316 0 316 363 631 726 947 363-315 726-631 726-947 0-174-163-316-363-316-181 0-272 79-363 237z"/><path d="m20914 16197c-91-158-181-237-363-237-200 0-363 141-363 316 0 316 363 631 726 947 363-316 726-631 726-947 0-174-163-316-363-316-181 0-272 79-363 237z"/><path d="m18837 16197c-91-158-181-237-363-237-200 0-363 141-363 316 0 316 363 631 726 947 363-316 726-631 726-947 0-174-163-316-363-316-181 0-272 79-363 237z"/><path d="m14682 16197c-91-158-181-237-363-237-200 0-363 141-363 316 0 316 363 631 726 947 363-316 726-631 726-947 0-174-163-316-363-316-181 0-272 79-363 237z"/><path d="m12605 16197c-91-158-181-237-363-237-200 0-363 141-363 316 0 316 363 631 726 947 363-316 726-631 726-947 0-174-163-316-363-316-181 0-272 79-363 237z"/><path d="m10527 16197c-91-158-181-237-363-237-200 0-363 141-363 316 0 316 363 631 726 947 363-316 726-631 726-947 0-174-163-316-363-316-181 0-272 79-363 237z"/><path d="m19872 21341c-91-158-181-237-363-237-200 0-363 141-363 316 0 316 363 631 726 947 363-316 726-631 726-947 0-174-163-316-363-316-181 0-272 79-363 237z"/><path d="m11563 21341c-91-158-181-237-363-237-200 0-363 141-363 316 0 316 363 631 726 947 363-316 726-631 726-947 0-174-163-316-363-316-181 0-272 79-363 237z"/><path d="m9485 21341c-91-158-181-237-363-237-200 0-363 141-363 316 0 316 363 631 726 947 363-316 726-631 726-947 0-174-163-316-363-316-181 0-272 79-363 237z"/><path d="m20894 19622c-91-158-181-237-363-237-200 0-363 141-363 316 0 316 363 631 726 947 363-316 726-631 726-947 0-174-163-316-363-316-181 0-272 79-363 237z"/><path d="m12585 19622c-91-158-181-237-363-237-200 0-363 141-363 316 0 316 363 631 726 947 363-316 726-631 726-947 0-174-163-316-363-316-181 0-272 79-363 237z"/><path d="m10507 19622c-91-158-181-237-363-237-200 0-363 141-363 316 0 316 363 631 726 947 363-316 726-631 726-947 0-174-163-316-363-316-181 0-272 79-363 237z"/><path d="m19852 24766c-91-158-181-237-363-237-200 0-363 141-363 316 0 316 363 631 726 947 363-316 726-631 726-947 0-174-163-316-363-316-181 0-272 79-363 237z"/><path d="m11543 24766c-91-158-181-237-363-237-200 0-363 141-363 316 0 316 363 631 726 947 363-316 726-631 726-947 0-174-163-316-363-316-181 0-272 79-363 237z"/><path d="m9466 24766c-91-158-181-237-363-237-200 0-363 141-363 316 0 316 363 631 726 947 363-316 726-631 726-947 0-174-163-316-363-316-181 0-272 79-363 237z"/><path d="m20874 23047c-91-158-181-237-363-237-200 0-363 141-363 316 0 316 363 631 726 947 363-316 726-631 726-947 0-174-163-316-363-316-181 0-272 79-363 237z"/></g><g stroke-width="100"><path d="m14761 2499c-91-158-181-237-363-237-200 0-363 141-363 316 0 316 363 631 726 947 363-316 726-631 726-947 0-174-163-316-363-316-181 0-272 79-363 237z"/><path d="m12684 2499c-91-158-181-237-363-237-200 0-363 141-363 316 0 316 363 631 726 947 363-316 726-631 726-947 0-174-163-316-363-316-181 0-272 79-363 237z"/><path d="m18896 5923c-91-158-181-237-363-237-200 0-363 141-363 316 0 316 363 631 726 947 363-316 726-631 726-947 0-174-163-316-363-316-181 0-272 79-363 237z"/><path d="m14741 5923c-91-158-181-237-363-237-200 0-363 141-363 316 0 316 363 631 726 947 363-316 726-631 726-947 0-174-163-316-363-316-181 0-272 79-363 237z"/><path d="m16799 9348c-91-158-181-237-363-237-200 0-363 141-363 316 0 316 363 631 726 947 363-316 726-631 726-947 0-174-163-316-363-316-181 0-272 79-363 237z"/><path d="m12644 9348c-91-158-181-237-363-237-200 0-363 141-363 316 0 316 363 631 726 947 363-316 726-631 726-947 0-174-163-316-363-316-181 0-272 79-363 237z"/><path d="m18856 12773c-91-158-181-237-363-237-200 0-363 141-363 316 0 316 363 631 726 947 363-316 726-631 726-947 0-174-163-316-363-316-181 0-272 79-363 237z"/><path d="m14702 12773c-91-158-181-237-363-237-200 0-363 141-363 316 0 316 363 631 726 947 363-316 726-631 726-947 0-174-163-316-363-316-181 0-272 79-363 237z"/><path d="m16759 16197c-91-158-181-237-363-237-200 0-363 141-363 316 0 316 363 631 726 947 363-316 726-631 726-947 0-174-163-316-363-316-181 0-272 79-363 237z"/><path d="m18817 19622c-91-158-181-237-363-237-200 0-363 141-363 316 0 316 363 631 726 947 363-316 726-631 726-947 0-174-163-316-363-316-181 0-272 79-363 237z"/><path d="m14662 19622c-91-158-181-237-363-237-200 0-363 141-363 316 0 316 363 631 726 947 363-316 726-631 726-947 0-174-163-316-363-316-181 0-272 79-363 237z"/></g><g stroke-width="7.62"><path d="m12565 23047c-91-158-181-237-363-237-200 0-363 141-363 316 0 316 363 631 726 947 363-316 726-631 726-947 0-174-163-316-363-316-181 0-272 79-363 237z"/><path d="m10487 23047c-91-158-181-237-363-237-200 0-363 141-363 316 0 316 363 631 726 947 363-316 726-631 726-947 0-174-163-316-363-316-181 0-272 79-363 237z"/><path d="m13369 21341c-91-158-181-237-363-237-200 0-363 141-363 316 0 316 363 631 726 947 363-316 726-631 726-947 0-174-163-316-363-316-181 0-272 79-363 237z"/><path d="m19376 23047c-91-158-181-237-363-237-200 0-363 141-363 316 0 316 363 631 726 947 363-316 726-631 726-947 0-174-163-316-363-316-181 0-272 79-363 237z"/><path d="m13614 24766c-91-158-181-237-363-237-200 0-363 141-363 316 0 316 363 631 726 947 363-316 726-631 726-947 0-174-163-316-363-316-181 0-272 79-363 237z"/></g><path d="m16710 19622c-91-158-181-237-363-237-200 0-363 141-363 316 0 316 363 631 726 947 363-316 726-631 726-947 0-174-163-316-363-316-181 0-272 79-363 237z" stroke-width="100"/><path d="m16328 22332l19 26c-97 95-180 143-249 143-28 0-50-10-64-29-15-20-22-51-22-94 0-87 26-173 77-259 58-98 127-147 207-147 28 0 50 7 64 22 15 14 22 34 22 59 0 26-9 52-27 78-18 26-50 52-96 80-23 13-72 38-148 73-3 22-5 43-5 63 0 29 4 49 13 60 9 11 22 17 39 17 16 0 34-5 53-14 26-13 64-38 115-77zm-208-88c64-29 112-61 144-94 22-24 33-47 33-70 0-17-4-31-13-42-9-10-21-15-35-15-15 0-29 6-43 17-19 15-34 38-47 68-18 45-31 90-39 136z" stroke-width="50"/></g><g font-family="&apos;Monotype Corsiva&apos;" font-style="italic" stroke-width="50"><g font-size="1178.39"><text x="10500" y="14850" transform="matrix(1.03309 0 0 1.06097 3249.56 5873.69)">Texto 01</text><text x="10500" y="14850" transform="matrix(1.03309 0 0 1.06097 3327.8 7741.27)">Texto 02</text></g><text x="10500" y="14850" font-size="831.54" transform="matrix(1.03309 0 0 1.06097 3759.19 8799.31)">00.00.0000</text></g></g></g><g stroke-linejoin="round" stroke-linecap="round"><g fill-rule="nonzero"><path d="m14438 3873c16 1 29 9 39 23 10 13 14 30 12 49-2 28-11 49-25 63-14 15-31 21-51 19-16-1-29-9-39-21-10-13-14-28-12-46 2-27 12-49 29-68 13-14 28-20 47-18zm294 62c16 3 28 13 36 27 8 15 10 31 6 50-6 27-16 47-32 60-16 13-33 17-52 13-16-3-28-12-36-26-8-14-11-30-7-48 5-26 18-47 37-64 14-12 30-16 48-12zm274 66c16 5 27 15 34 30 7 15 8 32 3 50-7 27-19 46-36 57-17 11-34 14-53 9-16-5-27-14-35-28-7-14-9-30-4-48 7-26 21-46 41-61 15-11 31-14 49-9zm768-192l41 13c-40 57-99 152-175 285l-235 410c-4 9-7 17-10 24-3 11-2 21 5 29 6 8 27 21 63 39l-20 31c-38-21-79-38-122-52-39-12-94-25-165-38l18-31c38 9 66 12 84 8 18-3 34-12 48-26 15-14 36-45 64-93l133-234c-53 35-107 59-161 72-41 10-74 12-99 4-20-6-34-21-42-45-8-24-7-54 4-91 27-91 91-173 191-245 101-72 195-94 284-66 19 6 40 16 65 30l29-22zm-107 79c-26-17-50-29-71-36-35-11-69-10-103 3-34 13-70 43-108 92-39 49-66 100-81 153-7 24-7 44-1 60 6 16 17 27 33 32 14 4 34 2 60-7 48-16 87-36 116-60 21-17 47-53 79-108l76-129zm595 207l80 38-145 177c-84 102-130 162-138 178-3 7-4 14-3 19 2 6 4 9 9 11 6 3 15 4 27 2 16-3 50-14 101-34l9 30c-112 44-186 58-222 41-12-6-20-15-24-29-4-14-2-29 6-46 9-20 25-45 49-75-51 23-108 38-171 44-42 4-75 0-99-11-13-6-22-16-25-28-3-13-1-28 8-48 7-15 16-30 27-46 16-22 51-65 104-129 67-81 105-131 114-149 5-11 4-18-4-22-7-3-18-4-33-2-15 1-43 9-83 23l-16-32c71-22 124-34 157-36 33-2 58 1 74 9 9 4 15 11 17 21 2 10 1 21-6 36-12 27-55 86-130 177-67 82-103 130-109 143-4 8-4 16-2 24 3 8 7 14 13 17 21 10 59 7 114-11 55-17 99-46 132-86l169-208zm296 602l4 35c-137 34-236 32-299-5-26-15-40-36-44-61-3-26 6-58 28-97 44-79 112-144 203-194 102-58 190-65 263-22 25 15 41 33 47 54 6 21 3 43-10 66-14 24-35 43-64 57-29 14-72 21-128 21-28 0-85-5-171-14-14 18-27 36-37 54-15 26-21 47-19 62 2 15 11 27 27 36 15 9 33 14 56 16 30 2 78 0 143-8zm-144-192c73 8 132 5 179-8 32-10 54-25 65-46 9-16 12-31 9-45-3-14-11-25-24-33-13-8-29-10-48-8-25 4-50 16-78 37-39 31-74 65-105 103zm237 456l-74-57 136-110c66-54 128-107 185-158 14-13 22-21 25-25 6-8 5-15-2-21-5-4-15-6-31-7-15-1-47 2-94 9l-2-30c58-10 109-12 153-5 45 7 75 17 92 30 6 5 9 10 11 15 1 6 0 11-3 15-3 5-14 15-32 30l-89 75c73-28 145-45 215-51 34-3 57 1 71 12 10 8 16 18 18 29 2 12 0 22-7 31-7 9-16 15-27 16-11 1-33-3-65-14-31-11-58-16-82-16-24 0-55 5-91 15-36 10-65 22-86 34-21 12-63 46-126 101l-95 82zm779-63c32 26 49 60 50 104 1 43-16 88-51 135-57 75-133 121-229 140-96 18-173 5-230-41-35-28-54-62-58-103-4-41 10-81 41-122 54-71 123-120 208-148 106-35 196-23 269 37zm-71 4c-28-22-70-23-127-4-57 20-113 66-168 138-33 44-51 85-54 123-2 28 6 50 26 65 27 22 66 25 115 8 63-22 121-67 172-134 38-50 59-92 62-124 3-32-5-56-25-72zm666 659c23 30 36 57 37 82 1 25-5 44-19 56-9 7-19 10-31 9-12-1-21-7-29-17-5-6-8-13-9-20-1-7 1-19 5-37 8-34 6-59-7-74-11-14-25-22-44-24-18-2-35 3-50 16-13 11-23 25-31 42-7 17-14 50-21 100-9 68-31 117-65 145-34 28-76 38-125 30-49-8-92-36-129-83-31-39-46-75-46-107 1-32 12-58 35-77 11-9 23-14 37-12 13 1 24 7 32 18 7 9 11 20 10 31-1 12-5 21-13 27-3 3-8 6-13 9-5 3-8 6-11 8-11 9-16 21-16 36 0 15 6 30 18 46 14 18 29 31 46 40 17 9 34 12 52 9 18-2 33-9 45-19 12-10 20-23 26-40 6-17 13-49 20-96 10-66 33-113 67-141 32-26 70-36 114-30 44 6 83 30 114 70zm-17 642l-12 33c-136-36-223-86-262-149-16-26-19-51-11-75 9-24 32-49 69-73 75-48 165-73 268-74 117-2 198 34 243 108 16 26 21 49 17 71-4 22-17 39-39 53-23 15-50 21-82 19-32-2-73-16-122-43-24-14-73-45-145-94-21 9-40 19-57 30-25 16-40 31-45 46-5 15-3 29 7 45 9 15 23 29 42 41 25 17 69 37 130 62zm-39-239c61 42 115 68 162 79 33 7 59 4 79-9 15-10 25-22 29-35 4-14 2-27-6-41-8-13-21-23-39-30-23-8-52-10-85-5-49 8-95 22-140 41zm24 520l-49-81 165-53c81-26 157-53 228-79 18-7 28-11 32-14 8-5 10-12 5-20-3-5-12-11-26-18-14-6-44-15-91-26l8-29c57 12 106 29 145 51 39 23 64 44 76 62 4 6 5 13 5 18-1 6-3 10-8 13-5 3-18 8-41 16l-109 37c78 0 151 11 219 31 33 10 53 22 62 37 7 11 9 22 6 34-2 12-8 20-17 26-10 6-20 8-31 5-11-3-30-15-56-37-25-21-49-36-71-45-23-9-53-15-90-19-38-4-68-4-92 1-24 4-75 20-153 48l-117 41zm826 612c11 36 12 66 5 91-8 24-21 39-39 45-11 3-21 2-32-4-10-6-17-15-21-27-2-8-3-15-1-22 2-7 8-18 18-32 20-28 27-52 21-71-5-17-15-30-32-39-16-9-34-10-52-5-16 5-31 14-44 27-13 13-32 41-56 85-33 60-71 97-113 110-42 13-84 6-127-20-43-27-72-69-90-127-14-48-16-88-3-117 12-30 32-49 61-58 14-4 27-4 39 3 12 6 20 16 24 29 3 11 3 22-2 33-5 10-12 17-22 20-4 1-9 2-16 4-5 1-10 2-13 4-13 4-23 13-28 28-6 14-6 30 0 50 7 22 16 40 28 55 12 14 27 24 45 29 18 5 34 5 48 0 14-4 27-13 39-27 12-13 30-40 53-81 33-57 71-92 114-105 39-12 78-7 116 16 39 23 66 60 81 109zm-216 560l-21 28c-121-73-191-146-212-217-8-29-5-54 10-75 15-21 44-38 86-50 85-25 178-24 277 5 113 32 181 89 204 172 8 29 7 53-3 73-10 20-27 33-52 40-26 8-54 6-84-5-30-11-66-36-106-76-20-20-58-64-114-132-23 3-44 7-63 13-28 8-47 19-55 31-9 13-10 28-6 45 5 17 14 34 29 51 20 23 56 55 109 96zm27-241c47 57 92 98 134 121 30 16 56 20 78 14 17-5 30-14 37-26 8-12 9-26 5-41-4-15-14-28-29-39-20-15-47-25-81-29-49-6-97-6-145 0zm398 764l11 90-223-32c-129-19-203-28-220-26-8 1-14 3-17 8-4 4-5 9-5 14 1 7 5 15 12 24 11 13 38 36 81 70l-20 24c-96-74-147-131-152-172-2-14 2-26 11-37 9-11 23-17 41-20 21-3 51-2 88 3-46-32-89-74-127-126-26-34-40-65-43-92-2-15 2-27 10-37 8-10 23-16 44-18 16-2 34-2 53-1 27 2 80 10 161 22 103 16 164 22 184 20 12-1 17-7 16-15-1-8-6-17-15-30-9-12-30-32-63-60l18-31c56 51 94 90 113 118 19 28 30 51 32 69 1 10-1 19-8 26-7 7-17 12-33 14-28 4-100-3-215-19-103-14-162-21-176-19-9 1-16 5-21 11-5 7-8 13-7 20 3 24 26 55 69 94 43 39 90 62 140 69l262 37zm-96 568l27-23c42 43 72 84 90 124 18 40 26 74 24 102-1 11-4 19-10 24-6 6-14 8-23 7-12-1-24-3-37-7-12-4-42-15-88-34 58 71 93 119 106 144 22 42 31 80 29 113-2 22-13 39-35 52-21 13-52 18-92 14-100-9-193-50-277-122-85-72-124-147-117-225 3-31 13-60 32-90l-200-73c-12-4-22-7-30-8-15-1-27 4-34 15-12 17-24 55-35 113l-30-11c11-68 18-122 22-160 3-40 5-93 5-158l30 11c1 33 7 57 20 73 13 16 37 30 72 42l461 158c86 29 134 45 144 46 11 1 17-4 17-14 2-19-22-57-71-114zm-304 102c-36 31-55 63-58 99-4 51 31 99 105 145 74 45 148 71 221 78 24 2 42-2 55-12 13-10 20-24 22-42 2-20-6-44-23-72-27-42-54-75-82-99-20-17-56-34-108-52l-132-46zm423 874l7 42-156-54c-62-21-133-42-215-62-44-11-73-17-85-17-13 0-20 5-20 15 0 7 4 18 12 33 15 27 33 53 55 78l-25 20c-41-50-67-82-75-96-17-28-30-54-38-79-5-16-8-32-7-48 0-11 3-19 8-25 5-6 13-8 22-8 6 0 15 2 25 6l84 29c-41-38-77-83-106-135-18-32-27-61-26-87 1-25 10-43 27-56 24-17 54-25 91-24 44 2 92 16 146 41 53 26 101 60 144 102 43 42 73 86 93 131 15 35 21 80 19 134 0 14-2 27-4 42l24 16zm-93-83c5-23 8-42 9-58 1-38-8-72-27-101-20-29-56-57-108-84-53-26-105-40-158-42-28-1-49 3-61 12-13 9-19 22-20 38-1 29 13 61 43 96 30 35 73 61 131 79l192 60zm-460 296l5-95 165 54c81 26 158 49 231 69 18 5 29 7 34 8 10 1 15-4 16-13 0-6-3-16-11-30-8-14-28-39-59-75l23-19c41 43 71 86 90 128 19 42 28 74 27 95 0 8-3 13-6 18-4 4-8 6-14 6-6 0-20-4-42-11l-110-33c64 47 118 98 162 155 21 27 31 49 30 67-1 13-5 23-14 31-9 8-18 12-29 11-11-1-21-5-28-14-7-9-16-30-25-64-9-32-20-58-33-79-14-21-35-44-63-69-29-25-54-43-76-54-22-11-72-28-152-51l-119-35zm190 451l2-37c196 38 363 67 499 86 8 1 13 3 16 7 5 7 10 19 14 37 6 30 9 51 8 62 0 9-5 13-14 13-6 0-14-2-23-6-15-7-82-29-200-67l-303-94zm-69-38c-1 17-8 30-21 41-13 11-28 16-47 15-27-1-48-9-62-23-15-14-21-31-20-51 1-17 7-30 19-41 12-11 27-16 45-15 26 1 48 10 67 27 14 12 20 28 20 47z" fill="#fefefe" stroke="#fefefe" stroke-width="400"/><path d="m14439 3872c16 1 29 9 39 22 10 13 14 30 12 49-2 27-11 48-25 63-14 15-31 21-50 19-16-1-29-9-39-21-10-13-14-28-13-46 2-27 12-49 29-68 12-14 28-20 47-18zm294 62c16 3 28 13 36 27 8 15 10 31 7 50-6 27-16 47-32 59-16 13-33 17-52 13-16-3-28-12-36-26-8-14-11-30-7-48 5-26 18-47 37-63 14-12 30-16 48-12zm275 66c16 5 27 15 34 30 7 15 8 32 3 50-7 26-19 45-36 57-16 12-34 14-53 9-16-5-27-14-34-28-7-14-9-30-4-48 7-26 21-46 41-61 15-11 31-14 49-9zm766-191l41 13c-40 57-98 152-174 285l-234 410c-4 8-7 17-10 24-3 11-2 21 4 29 6 8 27 21 63 39l-19 31c-38-21-79-39-122-52-39-12-94-25-165-38l18-31c38 9 66 12 84 8 17-3 34-12 48-26 14-14 36-45 63-93l133-234c-53 35-107 59-161 72-41 10-74 12-99 4-20-6-34-21-42-45-8-24-7-54 4-91 27-91 91-173 191-245 100-72 195-94 284-66 19 6 40 16 65 30l29-22zm-107 79c-26-17-50-29-71-36-35-11-69-10-102 3-33 13-69 44-108 92-38 49-65 100-81 154-7 24-7 44-1 60 6 16 17 27 33 32 14 4 34 2 60-7 48-16 87-36 116-61 21-17 47-53 79-109l76-129zm596 207l81 39-145 177c-85 103-131 162-139 178-3 7-4 14-3 19 2 5 5 9 9 11 7 3 15 4 27 2 16-3 50-14 101-33l9 30c-112 45-186 58-222 41-12-6-20-15-24-29-4-13-2-29 6-46 9-20 25-45 49-74-51 23-108 38-171 44-42 4-75 0-99-11-13-6-21-16-25-28-3-13-1-28 8-48 7-15 16-30 27-46 16-22 51-65 104-129 68-81 106-131 114-150 5-11 4-18-4-22-7-3-18-4-32-3-15 2-42 9-83 23l-15-32c71-22 123-34 156-36 33-2 58 1 74 9 9 4 15 11 17 21 2 10 1 21-6 36-12 27-56 86-131 177-67 83-104 130-110 144-4 8-4 16-2 25 3 8 7 14 13 17 21 10 59 7 114-11 55-17 99-46 131-86l170-209zm297 602l4 34c-136 34-236 33-299-5-25-15-40-36-43-61-3-26 6-58 28-97 44-79 112-143 202-194 102-58 190-65 263-22 25 15 41 33 47 54 6 21 3 43-10 66-14 24-35 43-64 56-29 14-72 21-127 21-28 0-85-5-171-14-14 18-27 36-37 54-15 26-21 47-19 62 2 15 11 27 27 36 15 9 33 14 56 16 30 3 78 0 143-8zm-144-191c73 8 132 5 178-8 32-10 54-25 65-46 9-16 12-31 9-45-3-14-11-25-24-33-13-8-29-10-47-7-25 4-50 16-77 36-39 31-74 65-105 103zm238 456l-74-57 136-110c66-54 128-107 185-158 14-13 22-21 25-25 6-8 5-14-2-20-5-4-15-6-31-7-16-1-47 2-94 9l-2-30c58-11 109-12 154-5 45 7 76 17 93 30 6 5 10 10 11 15 2 6 1 10-2 15-3 5-14 15-33 30l-89 75c73-28 145-45 215-51 34-3 57 1 71 12 10 8 16 18 18 29 2 12-1 22-7 31-7 9-16 14-27 16-11 1-33-3-65-14-31-11-58-16-82-16-24 0-55 5-91 16-36 10-65 22-86 34-21 12-63 46-126 100l-95 81zm779-63c32 26 49 60 50 104 1 43-16 88-51 135-57 75-133 121-230 139-96 18-173 5-230-41-35-28-54-63-58-103-4-41 10-82 41-122 54-71 123-120 208-148 106-35 196-22 270 37zm-71 5c-28-22-70-23-127-3-57 20-113 66-167 138-33 44-51 85-55 123-2 28 6 50 26 65 27 22 66 24 115 8 63-22 120-67 171-134 38-50 59-92 62-124 3-32-5-56-25-72zm665 658c23 30 36 57 37 83 1 25-5 44-20 56-9 7-19 10-31 9-12-1-22-7-29-17-5-6-8-13-9-20-1-7 1-19 5-37 8-34 6-59-6-75-11-14-25-21-44-24-18-2-35 3-50 16-13 11-24 25-31 42-7 17-14 50-20 100-9 68-31 117-65 145-34 28-76 38-125 30-49-9-92-36-129-83-31-40-47-75-46-107 1-32 12-58 35-77 11-9 23-13 36-12 13 1 24 7 32 18 7 9 11 20 10 31-1 12-5 21-13 27-3 3-8 6-13 10-4 3-8 6-11 8-11 9-16 21-16 36 0 15 6 31 18 46 14 18 29 31 46 40 17 9 34 12 52 9 18-2 33-9 45-18 12-10 20-23 26-40 6-17 12-49 19-96 10-66 32-113 67-142 32-26 70-36 114-30 44 7 82 30 114 71zm-16 642l-12 32c-136-36-223-85-262-148-16-26-19-51-10-75 9-24 32-49 69-72 75-48 164-73 267-73 117-1 197 34 242 108 16 26 21 49 17 71-4 22-17 39-39 53-23 15-50 21-82 19-32-2-73-16-122-43-24-14-73-45-145-94-21 9-40 19-57 30-25 16-40 31-45 46-5 15-3 29 7 45 9 15 23 28 42 41 25 17 69 37 130 62zm-40-238c61 42 114 68 161 79 32 7 59 4 79-9 15-10 25-21 29-35 4-14 2-27-6-40-8-13-21-23-38-29-23-9-52-10-85-5-49 8-95 21-139 40zm24 520l-49-81 165-53c81-26 157-53 228-79 17-7 28-11 32-14 8-5 10-12 5-20-3-6-12-12-26-18-14-7-45-15-91-26l8-28c58 11 106 29 146 52 39 23 65 44 76 62 4 6 6 13 5 18-1 6-3 10-7 13-5 3-18 8-41 16l-109 37c78 1 151 11 218 32 32 10 53 22 62 37 7 11 9 22 6 34-2 12-8 20-17 26-10 6-20 8-31 5-11-3-30-15-56-38-25-21-49-36-72-45-23-9-53-15-90-19-38-4-68-4-92 0-24 4-75 20-153 47l-117 41zm825 611c11 36 12 67 4 91-8 24-21 39-39 45-11 3-22 2-32-4-10-6-17-15-21-27-2-8-3-15-1-22 2-7 8-18 18-32 20-28 27-52 21-72-5-17-16-30-32-39-16-9-34-10-52-5-16 5-31 14-44 27-13 13-31 41-55 85-33 60-71 96-113 109-42 13-84 6-127-21-42-27-72-69-89-127-14-49-16-88-4-117 12-30 32-49 60-58 14-4 27-4 38 3 12 6 20 16 23 29 3 11 3 22-2 33-5 10-12 17-22 20-4 1-9 3-16 4-5 1-10 3-13 4-13 4-23 13-28 28-6 14-6 31 0 50 7 22 16 40 28 55 12 14 27 24 45 29 18 5 34 5 49 0 14-4 27-13 39-27 12-13 29-40 53-82 33-57 71-92 114-106 39-12 78-7 116 16 39 23 66 60 80 109zm-215 561l-20 28c-121-73-192-145-212-217-8-29-5-54 10-75 15-21 43-38 86-50 85-25 177-23 277 5 113 32 181 89 204 172 8 29 7 53-3 73-10 19-27 33-52 40-26 8-54 6-84-5-30-11-66-36-106-76-20-20-58-64-114-132-22 3-43 7-63 13-28 8-47 19-55 31-9 13-10 28-6 45 5 17 14 34 29 51 20 23 56 55 109 96zm26-240c47 57 92 98 134 121 29 16 55 20 78 14 17-5 29-14 37-26 7-12 9-26 5-40-4-15-14-28-29-39-20-15-47-25-80-29-49-6-97-6-145-1zm399 764l11 91-223-33c-130-19-203-28-221-26-8 1-13 4-17 8-4 4-5 9-5 14 1 7 5 15 12 24 11 13 38 36 81 70l-20 24c-96-74-147-131-152-172-2-13 2-26 11-36 9-11 23-17 41-20 21-3 50-2 87 3-47-32-89-74-127-126-26-34-40-65-43-92-2-15 2-27 10-37 8-10 23-16 44-18 16-2 34-2 53-1 27 2 81 10 162 22 103 16 164 23 184 20 12-1 17-6 16-15-1-8-6-18-15-30-9-12-30-32-63-60l18-30c56 50 94 89 113 117 19 28 30 51 32 69 1 10-1 19-8 26-7 7-17 12-33 14-28 4-100-3-216-20-104-15-163-21-177-19-9 1-16 5-21 11-5 7-8 13-7 20 3 24 26 55 69 93 43 39 90 62 140 69l263 37zm-96 569l27-23c42 43 72 84 90 124 18 40 26 74 24 102-1 11-4 19-10 25-6 6-13 8-23 7-12-1-24-4-37-7-12-4-42-15-88-34 58 71 93 119 106 144 22 42 31 80 29 113-2 22-13 39-35 52-21 13-52 18-92 14-100-9-192-50-277-122-85-72-124-147-117-225 3-30 13-60 32-89l-200-72c-12-4-22-7-30-8-15-1-27 4-35 15-12 17-24 55-35 113l-30-11c11-68 18-121 21-160 3-40 5-93 6-158l30 11c1 33 7 57 20 73 13 16 37 30 72 42l461 157c86 30 134 45 144 46 11 1 17-4 17-14 2-19-22-57-70-114zm-304 102c-35 31-55 64-58 99-4 51 31 99 105 145 74 45 148 72 221 78 24 2 42-2 55-11 13-10 20-24 22-42 2-20-6-44-23-72-27-42-54-75-82-99-20-17-56-34-108-52l-132-46zm424 874l7 43-156-53c-62-21-134-42-215-62-44-11-73-17-85-17-13 0-19 5-20 15 0 7 4 18 12 33 14 27 32 52 54 77l-25 20c-41-50-66-82-74-96-17-28-30-54-37-79-5-17-8-32-7-48 0-11 3-19 8-25 5-5 13-8 22-8 6 0 15 2 25 6l83 29c-41-38-77-83-105-135-18-32-26-61-26-87 1-25 10-43 27-56 24-17 54-25 91-24 44 2 93 15 146 41 53 26 101 60 144 102 43 42 74 86 93 131 15 35 21 80 19 134 0 14-2 27-4 41l24 16zm-94-83c5-23 8-42 9-58 1-38-8-72-27-101-20-29-56-57-108-83-52-26-105-40-159-42-28-1-49 3-61 12-13 9-19 22-20 38-1 29 13 61 43 96 30 35 74 61 131 79l193 60zm-459 296l5-95 165 54c81 26 158 49 231 69 18 5 29 7 34 8 10 1 14-4 15-13 0-7-3-17-11-30-8-14-28-39-60-75l23-18c41 43 71 86 90 128 19 42 28 74 27 96 0 8-2 14-6 18-4 4-8 6-13 6-6 0-20-4-43-11l-110-34c64 46 117 98 161 155 21 27 31 49 30 67-1 13-5 23-14 31-9 8-18 12-29 11-11-1-20-5-28-14-7-9-16-30-25-64-9-32-20-58-33-79-14-21-35-43-64-69-29-25-54-43-75-54-22-11-72-28-152-51l-119-35zm191 450l2-37c196 39 362 68 499 87 8 1 13 3 16 7 6 7 10 19 14 37 6 30 9 50 8 62 0 9-5 13-14 13-6 0-14-2-23-6-15-6-82-29-199-67l-303-95zm-70-38c-1 17-8 30-20 41-13 11-28 16-47 15-27-1-47-9-62-23-15-14-21-31-20-51 1-17 7-30 19-41 12-11 27-16 45-15 26 1 48 10 67 27 14 12 20 28 19 47z" fill="#330" stroke="#373435" stroke-width="50"/></g><rect x="15388" y="14702" width="1673" height="707" rx="836.5" ry="353.5" fill="#fefefe" stroke="#fefefe" stroke-width="7.62"/></g><g fill="#373435"><text x="10500" y="14850" font-family="&apos;Arial Black&apos;" font-weight="900" font-size="561.42" transform="matrix(.97372 0 0 1 5298.73 410.24)">NN 1</text><g font-family="&apos;Arial&apos;" font-size="423.33"><text x="1081" y="28072">DESC 1</text><text x="1081" y="28506">DESC 2</text><text x="1081" y="28898">DESC 3</text></g></g></svg>