<svg xmlns="http://www.w3.org/2000/svg" width="744.09" height="1052.36" viewBox="0 0 21000 29700" shape-rendering="geometricPrecision" image-rendering="optimizeQuality" fill-rule="evenodd" clip-rule="evenodd"><defs><clipPath id="0"><path d="m14080 2910c1953-54 5081 1567 5088 5429 2 1032-394 4466-487 5829-113 1634-196 3960-230 5616-15 1432-342 2263-968 2598-834 294-1699 381-2611 166-943-244-1412-1006-1425-2545 35-1988 273-5430-96-7237-479-2340-1083-2646-1316-5465-140-1696-89-4331 2047-4390z"/></clipPath><clipPath id="1"><path d="m6930 2981c-1953-54-5081 1567-5088 5429-2 1032 394 4466 487 5829 113 1634 196 3960 230 5616 15 1432 342 2263 968 2598 834 294 1699 381 2611 166 943-244 1412-1006 1425-2545-35-1988-273-5430 96-7237 479-2340 1083-2646 1316-5465 140-1696 89-4331-2047-4390z"/></clipPath></defs><text x="10081" y="24465" fill="#201e1e" font-family="&apos;Arial Black&apos;" stroke="#201e1e" font-weight="900" stroke-width="7.62" font-size="705.56">32</text><g fill="none" stroke-width="80"><g stroke="#322f30"><circle cx="10533" cy="1326" r="460"/><path d="m10533 515v1621"/><path d="m9723 1326h1621"/></g><g stroke="#373435"><circle cx="10533" cy="25836" r="460"/><path d="m10533 25026v1621"/><path d="m9723 25836h1621"/></g></g><rect x="9843" y="22722" width="1347" height="637" rx="318" fill="#fff" stroke="#fff" stroke-width="20"/><path d="m14080 2910c1953-54 5081 1567 5088 5429 2 1032-394 4466-487 5829-113 1634-196 3960-230 5616-15 1432-342 2263-968 2598-834 294-1699 381-2611 166-943-244-1412-1006-1425-2545 35-1988 273-5430-96-7237-479-2340-1083-2646-1316-5465-140-1696-89-4331 2047-4390z" fill="#fefefe"/><g clip-path="url(#0)"><g fill="#201e1e" stroke="#201e1e"><g stroke-width="50"><path d="m19441 9177c-63-324-150-737-276-1020 187 77 563 227 727 330-110 248-236 630-451 690zm-4084-3512c0-221 84-405 226-450l-100 390h50c48-230 35-261 125-300v180c147 30 114-4 200 150l-501 30zm-852 12215h100c-19-33-497-479-274-719l199-152c-12 59-169 330 258 501 136 54 173 42 336 31 109-7 48 16 282 99v-60c-290-81-402-468-292-799 60-178 107-261 240-343 199-124 279-66 378 62l-200-60c-149 267-139 532 31 773 150 213 444 165 632 21 484-372 748-1549 996-1988 233-413 201-538 415-793 51-61 63-95 103-147 46-61 67-61 123-123 205-228 412-295 733-473l75 360c-284 8-647 453-776 721-44 91-63 156-116 252-51 93-96 160-141 251-35 69-27 68-55 144-25 66-39 86-63 135-193 399-295 714-483 1073-130 248-248 573-378 778-154 245-109 249-305 445-3 3-9 9-14 14h125c230-412 277-400 517-971 76-181 164-303 243-489 80-189 141-357 225-541 50-110 75-116 126-239 134-318 433-998 674-1204l445-278c24 341 55 291-78 387-160 114-108 146-194 308-11 21-226 275-424 632-260 469-531 836-721 1387-115 336-275 698-411 1008h75c107-242 219-504 317-760 169-436 284-725 509-1131 31-57 56-99 93-159 254-406 215-392 534-832-16 84-275 791-334 921-20 45-26 68-39 103l-329 807c134-13 536-367 676-450 241-143 469-305 730-417 452-194 679-341 1100-603 120-75 226-162 350-240v-90l-668 430c-580 347-897 417-1401 753-165 110-286 160-479 326-69 60-86 66-158 111l325-781 276-809 278 118c203 57 705-191 799-358l-336 168c-654 331-857-124-541-378l147 276c127 30 204-6 340-53 237-82 580-380 780-567 234-219 596-675 637-708v-120c-1 1-557 681-916 973-196 159-421 378-687 378 108-224 673-1283 702-1411l-802 1441-174-64c113-438 174-532 25-987-36-111-31-125-95-217-125-181-215-383-232-623 210-183 397-384 612-557 216-173 439-295 622-516 111-134 502-486 554-597 178-376 41-687 15-1062l-121 1056c-26 37-97 96-138 135-427 409-407 482-977 900-248 182-489 572-1170 970-492 288-777 492-1174-63-18-25-10-11-31-53-119-247-132-618-199-876-18-69-16-11-9-98l10-50c-266-57-433-91-426-486 3-205 201-39 653-53 146-5 338-50 400-151l-200-90-98 123c-60 36-508-27-557-28-155-5-94 88-279 37-104-29-70 3-159-53-34-21-71-54-110-79-17-315-6-389-125-660 130 4 310 61 427-28 158-121 27-301-26-422h-175c70 62 265 167 191 314-70 139-280-72-579 32-75 26-80 62-182 40-95-20-203-172-203-296 0-126 126-253 167-365 45-122 75-264 119-398 139-429 225-960 86-1398-58-184-127-707-147-934-31-345 39-886 139-1206 23-74 36-135 61-199 28-72 46-85 123-90 199-14 478-52 595 95 457 569 753 561 1088 917 256 272 558 443 828 689 185 167 374 277 574 423 98 72 187 120 306 174 147 66 247 15 307 203l170 637c19 92 59 360 125 391 125 59 205-130 272-220 101-135 230-319 244-518l376 120-116 311c-116 113-171 5-259 49l113 109c6 3 13 6 18 8l54 27c4 2 14 5 17 7 15 10-8-94 24 28l36 166c38 252 180 879 314 1064v-240c-45-62-49-96-73-183-55-203-100-339-139-554-100-548-56-352 35-555 33-74 21-104 51-179l125 30v-90l-918-401c-83-35-107-55-178-87l-360-139c-576-169-1091-668-1591-1065-110-88-198-147-292-250-142-156-410-337-589-421-95-44-457-395-535-513-88-133-154-192-239-313l-208-321c-228 179-301 172-301 510h-25c15-325-21-344 168-579 169-210 336-76 534-21l-100-120c338 154 585 353 882 595l532 443c208 152 694 487 823 635 456 526 1213 753 1806 1108 125 75 521 350 593 370v-90c-109-69-199-117-311-197-487-349-960-486-1301-693-642-389-327-195-836-649-189-169-387-284-589-435-361-271-747-647-1114-887-319-208-358-290-685-290 76-51 79-49 167-69 139-32 465-29 610-21 500 28 1307 626 1714 1008l498 424c102 73 1036 545 1192 613 143 62 510 233 654 237v-60c-263-73-959-390-1244-550-508-285-563-235-1080-747-165-164-332-265-503-418-265-238-879-537-1213-588-373-58-561 32-770 53l242-190c94-66 173-101 280-144 747-297 780-167 1342-283 236-49 390-8 689 19 377 33 1540 443 1816 646 81 60 182 117 246 185 75 78 113 153 194 218v-90c-96-77-64-123-368-340-269-193-1096-508-1392-583-1186-300-1143-34-1722-37-374-2-309 114-526 120 143-100 1002-415 1010-441 3-9 12-6 17-10h-251l-32 22c0 0-50 30-50 30-180 97-589 247-780 327-150 63-274 120-408 201-311 188-780 562-806 1019-16 288 32 265 38 386l-125 556c-144 591-70 980 8 1541 15 108 27 199 53 297 102 388 153 260 42 896-46 260-200 825-315 1034-122 221-143 254-6 476 126 206 245 129 427 88 25 114 69 122 102 239 27 98 11 225 25 360 26 246 236 255 399 302-35 88-18 168-2 271 30 192 128 326 293 367 116 29 92-38 131 145 43 198 49 412 94 609 109 481 561 928 1107 582 132-83 277-157 407-233l376-270c46 115 34 211 94 337l131 293c-306 0-845 549-1017 822-129 205-175 453-303 657-149 238-188 391-286 677-153 447-356 939-641 1273-131 153-425 292-603 105l-31-684 175 180c82-204-49-329-190-375-320-102-594 416-593 638l107 517c-618 0-597-355-506-345l105 45c-7-356-386-220-475 62-105 333 222 563 275 658z"/><path d="m20519 15029v-1471c-41 33-403 488-637 708-200 187-542 485-780 567-136 47-213 83-340 53l-147-276c-316 254-113 708 541 378l336-168c-94 167-596 415-799 358l-278-118-276 809-325 781c72-45 88-52 158-111 194-166 315-216 479-326 504-336 821-406 1401-753l668-430z"/><path d="m16435 17881h401c137-310 296-672 411-1008 190-551 461-918 721-1387 198-358 413-612 424-632 87-161 34-193 194-308 133-95 102-46 78-387l-445 278c-241 206-540 885-674 1204-52 123-76 129-126 239-84 184-145 352-225 541-79 186-167 308-243 489-240 571-287 559-517 971z"/><path d="m15558 7646c356 0 816-74 1052-210-642-255-574-84-1018-162-198-35-181-75-310-79 0 328-27 221 100 450h175z"/><path d="m19441 9177c215-60 341-442 451-690-163-103-540-253-727-330 125 283 213 696 276 1020z"/><path d="m15558 7646h-175c-127-229-100-122-100-450 129 3 112 44 310 79 444 78 376-94 1018 162-236 136-696 210-1052 210zm-301 90c114-3 196-31 351-30 545 3 249 18 709-81l318-99c171-11 304 137 626 60v-60c-332-9-701-298-875-302-301-7-477 16-804-27-323-43-331-197-370 218-14 149 23 209 45 321z"/><path d="m16059 8727c0 132-4 100-75 270 124-54-19 3 89-73 88-61 169-53 266-132 117-94 185-205 291-312 59-60 126-68 94-159-27-77-78 13-144 69-301 214-361 216-597 216l-150-390h200v-60c-270 0-262-34-501-210 26 133 54 125 143 188 88 63 82 98 190 316 96 195-77 250 193 276z"/><path d="m15357 5665l501-30c-86-154-54-120-200-150v-180c-90 39-77 70-125 300h-50l100-390c-142 45-226 229-226 450z"/><path d="m18364 9657c39 42 5 60 111-108 154-246 383-798 389-1096l-24-177c-49 122-61 484-175 751-28 66-48 94-75 150l-226 480z"/></g><path d="m12100 4487c275-534 568-801 1117-801 650 0 1177 551 1177 1230 0 1209-1137 2418-2294 3626v-309c994-1039 1973-2078 1973-3116 0-582-452-1055-1010-1055-474 0-725 232-963 697v-272z" stroke-width="7.62"/></g></g><g stroke-width="7.62"><path d="m14080 2910c1953-54 5081 1567 5088 5429 2 1032-394 4466-487 5829-113 1634-196 3960-230 5616-15 1432-342 2263-968 2598-834 294-1699 381-2611 166-943-244-1412-1006-1425-2545 35-1988 273-5430-96-7237-479-2340-1083-2646-1316-5465-140-1696-89-4331 2047-4390z" fill="none" stroke="#fff"/><g fill="#201e1e" stroke="#201e1e"><path d="m14422 20162c1-1 4 1 4 2 0 1 2 1 2 1 0 0-28 10-6-3zm19-122c89 90 48 27 115 60l-118 31 3-91zm54-52c72-455 211-882 595-1183 109-85 242-147 409-195l77 60-405 200c-101 79-218 182-295 299-244 375-227 760-300 872l-81-53zm1130-1383c-32-63-59-35-65-51-1-3-4-3-6-4 22-30 18-29 65-27l27 115-21-33zm-1203 1557c-56-10-79-44-141-92l-6 91-118 56c146 97 113 54 144 176 118-87-25-55 245-135v-58l-58-28c99-18 116-63 143-176 66-277 105-573 281-815 190-261 346-355 649-471 42-16 98-35 116-67 67-118-78-228-155-114-34 50 14 29-121 71-111 35-165 67-255 121-315 186-506 536-606 871-47 156-51 246-81 364-22 84-63 39-60 131 1 26-1 13 7 36l17 37z"/><path d="m16101 21832c5 71 26 55 74 84-22 41-41 35-89 24-10-39-28-79 15-108zm57-35c949-278 907-1232 1000-1373l75 66-308 872c-85 130-173 215-286 307-52 42-122 81-187 113-67 32-167 55-217 80l-76-64zm1029-1443c21-24 19-16 97-20l-7 93c-93-110-67-12-108-54l18-20zm141 53c35-139-142-145-197-33-69 141-64 457-262 832-47 88-104 149-157 212-91 109-82 76-151 137-17 15-27 25-48 37-70 42-155 92-248 128-146 58-216 57-226 148-6 60 14 106 74 112 89 9 84-46 118-77 20-18 109-39 143-52 203-74 302-166 445-303 40-38 51-59 82-98 231-281 298-588 365-921 21-103 39-34 61-123z"/><path d="m17291 20165c13-10 29 4 10 2 0 0-28 13-10-2zm-14-122l-1 94-107-35c34-27 25 4 63-13 28-12 23-25 45-46zm-631-1232c234 185 374 420 477 704 42 116 105 340 108 472l-80 69-303-889c-96-128-174-219-300-304-96-65-278-162-404-196 25 4 35-1 55-16 24-17 31-34 37-39 186 68 261 81 412 200zm-555-169c-40-67 8-173 85-92-52 30-20 13-65 28l-21 64zm1197 1531l-109 30 1 53c57 26 148 18 202 86 28 35-2 10 50 51 11-10 7-3 17-19 15-25 8-37 2-81l118-66-117-57-6-104c-58 11-14 16-137 97 18-48 38-105-6-148-31-30-19 1-32-43-20-71-44-235-82-373-95-343-300-678-604-873-74-47-159-91-256-120-24-7-41-11-66-20-56-21-27-4-51-45-20-35-68-74-130-40-38 21-54 76-40 126 15 50 58 63 110 83 288 108 491 217 655 466 106 160 169 303 220 512 74 297 48 502 259 487z"/><path d="m15633 21940l-80-24c83-36 35 11 89-82 8 24 17 60 5 89l-8 12c-1 1-5 3-5 5zm-1136-1451l81-63c136 379 34 560 421 1032 115 140 326 247 505 318l55 27-61 59c-205-61-433-163-564-332-25-33-40-45-68-80-182-223-343-639-368-961zm-49-56c-16-34-16-65 1-94 65-14 94 7 113 49-69-23-79 4-113 45zm-16-121c-96 54 16 168 22 187 9 28 55 275 83 373 46 161 142 382 230 504 223 311 358 393 695 511 50 17 32 8 52 44 67 120 227 28 164-102-58-119-759-101-984-1061-38-164-72-562-262-455z"/><path d="m14786 20256c-70 110-3 430 31 552 112 413 322 702 778 813 100 24 259 76 248-2-5-33-20-36-53-28-40 9 11 21-66 13-39-4-97-21-134-31-82-22-162-51-234-89-308-160-434-443-510-755-17-68-61-307-31-385 13-33 81-98-29-88z"/><path d="m15831 18843c-109-30-402 76-497 128-310 168-440 407-526 741-12 48-120 575 12 503 51-28-3-75-9-97-28-92 26-321 50-410 82-304 228-581 544-722 70-31 228-81 309-92 72-10 32-3 65 11 60 26 68-13 53-62z"/><path d="m16973 20438c-1-23-6-136-11-149-21-49-81-24-72 25 2 12 63 45 26 268-83 509-302 913-888 1019-105 19-81-46-127-6-153 136 578 69 867-422 105-179 211-516 205-736z"/><path d="m15897 18851c-36 36-6 67 52 49 26-8 1-16 60-8 88 12 239 60 316 95 326 151 454 397 545 722 28 100 74 304 52 408-10 44-76 90-6 106 122 28 22-446 6-510-131-504-402-797-956-874-48-7-42-14-68 11z"/><path d="m15782 18425l-106 21c53 90 32-70 155 231h46c23-47 25-92 50-138 20-37 66-74 100-109l-110-6-55-110c-60 10-64 46-80 110z"/><path d="m15898 21780c-67 0-61-8-75 51-45 190-113 105-130 192l108 10 70 109 66-111 109-9c-26-26-84-79-100-104-27-42-33-94-48-138z"/><path d="m14448 20434c34-41 44-68 113-45-19-42-48-63-113-49-16 29-16 60-1 94z"/><path d="m16101 21832c-43 28-25 68-15 108 48 11 67 18 89-24-49-29-69-13-74-84z"/><path d="m17169 20374c41 42 16-56 108 54l7-93c-78 3-76-4-97 20l-18 20z"/><path d="m16090 18642l21-64c45-16 13 2 65-28-77-80-125 25-85 92z"/><path d="m14437 20130l118-31c-67-32-26 31-115-60l-3 91z"/><path d="m15633 21940c0-2 4-4 5-5l8-12c11-29 3-64-5-89-54 93-5 46-89 82l80 24z"/><path d="m17277 20043c-22 22-17 34-45 46-38 17-29-14-63 13l107 35 1-94z"/><path d="m15554 18549c2 1 5 1 6 4 6 16 33-12 65 51l21 33-27-115c-47-1-43-3-65 27z"/><path d="m14700 20257c1-3 3-9 3-8l-4-29c0 0 6-21-35-9-40 11-28 79 36 46z"/><path d="m17039 20217l-2 45c80 15 70-46 31-51-53-7-14 1-29 6z"/><path d="m15827 18773l58 3-4-54-53 4z"/><path d="m15886 21734c37-74-77-76-43 0h43z"/></g></g><g fill="#201e1e"><g font-family="&apos;French Script MT&apos;" stroke="#201e1e" stroke-width="75" font-size="1105.15"><text x="10500" y="14850" transform="matrix(.85188 0 0 1 6108.93 5539.74)">T1</text><text x="10500" y="14850" transform="matrix(.85188 0 0 1 6912.69 6247.77)">T2</text></g><g font-family="&apos;Arial Black&apos;" font-weight="900" font-size="450.19"><text x="10500" y="14850" transform="matrix(.99504 0 0 1 3327.22 1125.09)">NN 1</text><text x="10500" y="14850" transform="matrix(.99504 0 0 1 3315.93 1581.52)">NN 2</text></g></g><path d="m6930 2981c-1953-54-5081 1567-5088 5429-2 1032 394 4466 487 5829 113 1634 196 3960 230 5616 15 1432 342 2263 968 2598 834 294 1699 381 2611 166 943-244 1412-1006 1425-2545-35-1988-273-5430 96-7237 479-2340 1083-2646 1316-5465 140-1696 89-4331-2047-4390z" fill="#fefefe"/><g clip-path="url(#1)"><g stroke="#201e1e"><g stroke-width="75"><g fill="#201e1e"><path d="m6383 12719c563 0 492-262 855-303 20 133 68 215-98 440-190 257-445-104-757-104v-34zm50-67c39-45 10-13 59-56 149-131 167-150 296-310 124-153 290-354 475-374l50 202c-1 21-30 193-154 232-87 28-51-10-141 47-131 82-276 260-586 260zm-4452-2659c8-126 48-239 70-344l229-973c124-491 124-514 209-999 117-666 194-2108 591-2473 258-237 276-174 442 0 71 74 102 96 164 185 67 96 181 365 181 531-94 109-248 271-327 404-244 411-500 625-788 1402l-416 1093c-96 341-194 1015-355 1173zm-377-4645v67c208-65 419-182 632-232 469-110 466 37 701 63-164 466-222 542-323 1083-27 143-36 286-55 432l-124 844c-23 149-37 265-66 416-57 295-287 1151-368 1526-14 64-27 131-47 207l-49 136c-3 6-8 13-11 19-34 71-39 36-40 216-1 343-93 611-160 1031l-90 351v404c64-122 202-980 241-1159 26-124 59-260 61-389l39 89c85 117 56-141 52-208-11-186 50-149 119-307 109-249 137-467 203-772 61-281 151-498 242-720 227-558 405-1144 723-1624 104-156 465-674 586-764 233-175 330-45 577 32-47 174-41 87-25 135 814 158 443 16 755 639l226-34c-75 93-148 233-302 135l151 404-266-284c-63-61-78-79-149-138-141-116-53 16-96-174-25-112-104-325-181-397-72-69-258-165-339-17 217 90 383 89 440 446 53 330-237 1128-733 922-157-66-163-423-387-492 76 149 114 187 154 298 92 254 278 449 3 855-78 115-363 573-578 285l-169-279c-56-80-145-139-241-149v67c173 138 218 139 287 328 48 133 171 269 40 682-242 765-707 472-755 471 478 439 585 594 701 1519 96 774 634 899 724 588 17-59 36-185 24-243-24-113-65-86-91-182l277 135c24 26 92 213 72 362-1 8-5 20-6 27-1 6-6 30-7 25 0 0 23 109-345 179-121 23-307 35-392-20 110 126 104 160 298 131 102-16 219-41 322-75 157-53 215-64 298-6 96 67 141 124 200 240 63 123 109 178 135 324 143 796-231 974-397 902l-352-337c0 142 175 477 235 617-39 57-181 140-251 173-173 81-77-10-261-16-26 208-2 282-176 337 80-236 125-309 99-603-19-214-98-350-259-395-161-45-402-11-526 13-95 18-175 8-241-29-234-131-231-492-154-738 55-175 117-333 88-586-26-227-168-876-289-1062l129 601c198 850-37 901-54 1252-14 277 62 406 127 570-111 168-468 759-604 808v135c75-67 113-143 182-228 90-112 439-518 472-681l151 67-142 517c-75 229-533 1050-663 1166v135c106-95 197-268 277-404 81-140 164-259 242-417 364-737 215-587 362-997 382-22 294-40 654 0-160 942-107 979-508 1778-199 398-807 981-1027 1049v135c502-355 993-788 1258-1481 204-533 327-740 327-1448l110 224c53 172 4 451-102 594l-83 125c161-26 409-9 428-303 206-46 405-57 528-303l399 206c189 78 224 97 481 97-143-89-322-122-469-180-682-271-237-172 10-468 252-302 79-1171-221-1437-77-69-119-99-225-102l-60-525c-75-145-155-272-318-185-40 22-130 86-159 132-47 77-79 165 20 150 45-7 118-142 138 55 8 71-33 192-49 238-211-5-253-40-283-58-245-150-258-498-315-823-57-321-35-377-151-639l-231-499 238-153c179-137 364-682 265-957 296-25 346 28 548-277 134-203 267-353 207-699 207-8 431 8 598-177 118-130 218-434 258-665l493 485c131 146 253 458 347 647 134 268 216 428 299 744 143 542 16 294 249 778 146 304 489 610 732 736 101 52 196 118 300 137 143 27 313-59 333 112 17 147-81 320-153 413-63 81-106 180-126 304-38 233 30 276 42 458-458 192-458 444-837 730-113 85-191 90-250 137-53 42-23-5-45 75 170 10 335 64 496 144 70 35 144 107 236 124 118 21 170-28 273-32l43 548c24 151 110 282 129 436 40 313-205 608-347 699-150 96-219 71-386 40-120-22-1032 106-1221 131-420 56-445 280-619 687-81 189-133 390-205 601-95 282-171 592-247 881-164 622 28 529 35 956-193-137-362-245-499-476-66-112-142-181-209-293-101-168-141-338-201-280l63 128c48 113 96 226 161 323 317 475 223 327 620 652 95 78 64 96 117 214 41 90 80 113 125 203h101c-93-186-148-112-175-405-22-238-89-329-101-504-26-367 95-662 186-1030 178-722 241-681 404-1075 63-152-33-38 86-287 138-289 724-225 1109-268 278-31 729-1 882-98 174-111 412-389 404-741-5-225-198-537-204-980-3-220 142-238 149-436 4-128-49-156-32-254 4-26 65-139 76-198 24-127-52-319-75-502-65-505 174-521 259-832 54-198 33-374-126-399-206-33-230 18-416-82l-338-187c-183-170-383-364-500-610-308-646-93-355-278-906-157-466-505-1015-565-1163-75-185 15 31-22-206-45-283-219 267-16-439l50-77h-151l-169-447c-160-314-440-161-528-235-91-76-14-64-162-120-242-91-174-67-423-39l-111-457c-35-98-370-549-506-507-88 27-183 164-281 202-72 28-243-60-353-90-289-77-866 139-1064 279z"/><path d="m1981 9993c162-159 260-833 355-1173l416-1093c288-777 544-991 788-1402 79-133 233-295 327-404 0-166-115-435-181-531-62-89-93-111-164-185-166-174-184-237-442 0-397 365-474 1808-591 2473-85 485-85 508-209 999l-229 973c-22 105-62 218-70 344z"/></g><path d="m1604 14436v841c130-116 588-937 663-1166l142-517-151-67c-33 163-382 569-472 681-69 85-107 160-182 228z" fill="#fff"/><path d="m5430 9714c-19 4-130-43-153-58l101-135 75 101-23 92zm-455-765l402-34 75 337-487 392c-60 42-218 155-169 219 43 56 47-3 135-21l194 16c352 0 169-126 528 168l-50-202c51-18 118-51 80-102l-156 34c32-424-14-269 201-639l-126 101c-5-5-13-20-15-14 0 0-84-64-99-139l-11-252c-144 0-432 5-503 135z" fill="#201e1e"/></g><path d="m4494 8677c28-139 38-80 129-163 171-156 362-240 575-274h151l75 135c-597 0-540 27-931 303zm-302 572c73-72 103-188 155-297 61-128 104-185 204-265l596-246h327l25-236c-381-128-600-55-941 255-189 172-350 522-367 788z" fill="#201e1e" stroke-width="50"/><g stroke-width="75"><g fill="#fff"><path d="m6433 12652c309 0 455-177 586-260 90-57 54-19 141-47 123-39 153-211 154-232l-50-202c-185 21-351 221-475 374-129 160-147 180-296 310-49 43-20 11-59 56z"/><path d="m6383 12719v34c311 0 566 361 757 104 167-225 118-307 98-440-363 40-293 303-855 303z"/></g><g fill="#201e1e"><path d="m3918 6593l377 303c0 157-129 414-256 432l-197 6c295 343 463-259 528-438-88-100-268-370-377-370-45 0-69 17-75 67z"/><path d="m3340 7738c0 391-273 356-402 471 117 37 235 37 323-73 71-121 233-444 106-602l-127-99c12 194 101 141 101 303z"/><path d="m6861 11339l75 135c182-57 135-162 302-404-142-95-148 51-201 170-85 193-59 27-176 99z"/></g><path d="m1705 9454c0 227 32 322 75 572h50l-50-505c-4-90 20-32 25-135-47-28 20-45-101 67z"/><path d="m5452 9623l-75-101-101 135c23 15 135 62 153 58l23-92z" fill="#fff"/><path d="m2610 9151l-50 236c85-60 61-33 126-202l-252-303c48 88 176 151 176 269z"/></g><path d="m8849 8645c-1140-1191-2274-2383-2274-3574 0-661 514-1198 1147-1198 560 0 847 286 1127 858v213c-236-470-481-704-951-704-543 0-984 461-984 1028 0 1017 962 2033 1935 3050v328z" fill="#201e1e" stroke-width="7.62"/></g></g><g stroke-width="7.62"><path d="m6930 2981c-1953-54-5081 1567-5088 5429-2 1032 394 4466 487 5829 113 1634 196 3960 230 5616 15 1432 342 2263 968 2598 834 294 1699 381 2611 166 943-244 1412-1006 1425-2545-35-1988-273-5430 96-7237 479-2340 1083-2646 1316-5465 140-1696 89-4331-2047-4390z" fill="none" stroke="#fff"/><g fill="#201e1e" stroke="#201e1e"><path d="m3636 20277c1-1 4 1 4 2 0 1 2 1 2 1 0 0-28 10-6-3zm19-122c89 90 48 27 115 60l-118 31 3-91zm54-52c72-455 211-882 595-1183 109-85 242-147 409-195l77 60-405 200c-101 79-218 182-295 299-244 375-227 760-300 872l-81-53zm1130-1383c-32-63-59-35-65-51-1-3-4-3-6-4 22-30 18-29 65-27l27 115-21-33zm-1203 1557c-56-10-79-44-141-92l-6 91-118 56c146 97 113 54 144 176 118-87-25-55 245-135v-58l-58-28c99-18 116-63 143-176 66-277 105-573 281-815 190-261 346-355 649-471 42-16 98-35 116-67 67-118-78-228-155-114-34 50 14 29-121 71-111 35-165 67-255 121-315 186-506 536-606 871-47 156-51 246-81 364-22 84-63 39-60 131 1 26-1 13 7 36l17 37z"/><path d="m5316 21948c5 71 26 55 74 84-22 41-41 35-89 24-10-39-28-79 15-108zm57-35c949-278 907-1232 1000-1373l75 66-308 872c-85 130-173 215-286 307-52 42-122 81-187 113-67 32-167 55-217 80l-76-64zm1029-1443c21-24 19-16 97-20l-7 93c-93-110-67-12-108-54l18-20zm141 53c35-139-142-145-197-33-69 141-64 457-262 832-47 88-104 148-157 212-91 109-82 76-151 137-17 15-27 25-48 37-70 42-155 92-248 128-146 58-216 57-226 148-6 60 14 106 74 112 89 9 84-46 118-77 20-18 109-39 143-52 203-74 302-166 445-303 40-38 51-59 82-98 231-281 298-588 365-921 21-103 39-34 61-123z"/><path d="m6506 20280c13-10 29 4 10 2 0 0-28 13-10-2zm-14-122l-1 94-107-35c34-27 25 4 63-13 28-12 23-25 45-46zm-631-1232c234 185 374 420 477 704 42 116 105 340 108 472l-80 69-303-889c-96-128-174-219-300-304-96-65-278-162-404-196 25 4 35-1 55-16 24-17 31-34 37-39 186 68 261 81 412 200zm-555-169c-40-67 8-173 85-92-52 30-20 13-65 28l-21 64zm1197 1531l-109 30 1 53c57 26 148 18 202 86 28 35-2 10 50 51 11-10 7-3 17-19 15-25 8-37 2-81l118-66-117-57-6-104c-58 11-14 16-137 97 18-48 38-105-6-148-31-30-19 1-32-43-20-71-44-235-82-373-95-343-300-678-604-873-74-47-159-91-256-120-24-7-41-11-66-20-56-21-27-4-51-45-20-35-68-74-130-40-38 21-54 76-40 126 15 50 58 63 110 83 288 108 491 217 655 466 106 160 169 303 220 512 74 297 48 502 259 487z"/><path d="m4848 22056l-80-24c83-36 35 11 89-82 8 24 17 60 5 89l-9 12c-1 1-5 3-5 5zm-1136-1451l81-63c136 379 34 560 421 1032 115 140 326 247 505 318l55 27-61 59c-205-61-433-163-564-332-25-33-40-45-68-80-182-223-343-639-368-961zm-49-56c-16-34-16-65 1-94 65-14 94 7 113 49-69-23-79 4-113 45zm-16-121c-96 54 16 168 22 187 9 28 55 275 83 373 46 161 142 382 230 504 223 311 358 393 695 511 50 17 32 8 52 44 67 120 227 28 164-102-58-119-759-101-984-1061-38-164-72-562-262-455z"/><path d="m4001 20372c-70 110-3 430 31 552 112 413 322 702 778 813 100 24 259 76 248-2-5-33-20-36-53-28-40 9 11 21-66 13-39-4-97-21-134-31-82-22-162-51-234-89-308-160-434-443-510-755-17-68-61-307-31-385 13-33 81-98-29-88z"/><path d="m5046 18959c-109-30-402 76-497 128-310 168-440 407-526 741-12 48-120 575 12 503 51-28-3-75-9-97-28-92 26-321 50-410 82-304 228-581 544-722 70-31 228-81 309-92 72-10 32-3 65 11 60 26 68-13 53-62z"/><path d="m6188 20554c-1-23-6-136-11-149-21-49-81-24-72 25 2 12 63 45 26 268-83 509-302 913-888 1019-105 19-81-46-127-6-153 136 578 69 867-422 105-179 211-516 205-736z"/><path d="m5111 18967c-36 36-6 67 52 49 26-8 1-16 60-8 88 12 239 60 316 95 326 151 454 397 545 722 28 100 74 304 52 408-10 44-76 90-6 106 122 28 22-446 6-510-131-504-402-797-956-874-48-7-42-14-68 11z"/><path d="m4997 18541l-106 21c53 90 32-70 155 231h46c23-47 25-92 50-138 20-37 66-74 100-109l-110-6-55-110c-60 10-64 46-80 110z"/><path d="m5113 21895c-67 0-61-8-75 51-45 190-113 105-130 192l108 10 70 109 66-111 109-9c-26-26-84-79-100-104-27-42-33-94-48-138z"/><path d="m3663 20549c34-41 44-68 113-45-19-42-48-63-113-49-16 29-16 60-1 94z"/><path d="m5316 21948c-43 28-25 68-15 108 48 11 67 18 89-24-49-29-69-13-74-84z"/><path d="m6383 20489c41 42 16-56 108 54l7-93c-78 3-76-4-97 20l-18 20z"/><path d="m5305 18757l21-64c45-16 13 2 65-28-77-80-125 25-85 92z"/><path d="m3652 20246l118-31c-67-32-26 31-115-60l-3 91z"/><path d="m4848 22056c0-2 4-4 5-5l9-12c11-29 3-64-5-89-54 93-5 46-89 82l80 24z"/><path d="m6492 20158c-22 22-17 34-45 46-38 17-29-14-63 13l107 35 1-94z"/><path d="m4768 18665c2 1 5 1 6 4 6 16 33-12 65 51l21 33-27-115c-47-1-43-3-65 27z"/><path d="m3915 20373c1-3 3-9 3-8l-4-29c0 0 6-21-35-9-40 11-28 79 36 46z"/><path d="m6254 20332l-2 45c80 15 70-46 31-51-53-7-14 1-29 6z"/><path d="m5042 18889l58 2-4-54-54 5z"/><path d="m5101 21850c37-74-77-76-43 0h43z"/></g></g><g fill="#201e1e"><g font-family="&apos;French Script MT&apos;" stroke="#201e1e" stroke-width="75" font-size="1105.14"><text x="10500" y="14850" transform="matrix(.85188 0 0 1-4726.39 5655.32)">T1</text><text x="10500" y="14850" transform="matrix(.85188 0 0 1-3922.63 6363.34)">T2</text></g><g font-family="&apos;Arial Black&apos;" font-weight="900" font-size="450.19"><text x="10500" y="14850" transform="matrix(.99504 0 0 1-4402.92 1240.66)">NN 1</text><text x="10500" y="14850" transform="matrix(.99504 0 0 1-4414.2 1697.09)">NN 2</text></g></g><g fill="#373435" font-family="&apos;Arial&apos;" font-weight="normal" font-size="423.33"><text x="1738" y="24503">DESC 1</text><text x="1764" y="24953">DESC 2</text><text x="1738" y="25482">DESC 3</text></g></svg>