<svg xmlns="http://www.w3.org/2000/svg" viewBox="0 0 500 707" shape-rendering="geometricPrecision" image-rendering="optimizeQuality" fill-rule="evenodd" clip-rule="evenodd"><defs><clipPath id="0"><path d="m166 608c16-8 22-25 23-42 2-16 2-32 2-48 0-18-1-36-1-54-1-19-1-38-1-58 1-17 3-35 7-52 8-32 22-61 28-94 2-9 4-19 5-29 1-11 2-22 2-34 0-27-3-67-26-86-15-12-33-12-51-8-25 6-50 18-70 36-13 12-24 28-32 45-8 19-11 39-10 60 0 10 0 21 1 31 2 30 5 60 8 90 3 34 5 67 7 101 0 9 0 18 0 27 0 11 0 22 1 33 0 13 1 27 3 40 2 9 4 21 9 28 5 8 13 13 21 16 10 4 21 5 31 6 14 0 31-2 43-8"/></clipPath><clipPath id="1"><path d="m336 607c-16-8-21-24-23-41-2-16-2-32-2-48 0-18 1-36 2-54 0-19 1-39 0-58-1-17-3-35-7-52-8-32-21-62-28-94-2-10-3-20-4-30-2-11-2-22-3-33 0-27 4-67 27-86 14-12 32-12 50-8 26 6 50 18 70 35 14 13 25 28 32 46 8 19 12 39 11 59-1 11-1 22-2 32-2 30-5 60-7 90-3 33-6 67-7 100-1 10-1 19-1 28 0 11 0 22 0 32-1 14-2 27-4 40-1 10-4 21-9 29-5 8-13 12-21 16-10 3-21 5-31 5-14 1-30-1-43-8"/></clipPath></defs><g clip-path="url(#0)"><g fill="#201e1e" stroke="#201e1e"><g stroke-width=".595"><g stroke-linejoin="round" stroke-linecap="round"><path d="m158 578c1-1 1-1 1 0 0 0 0 0-1 0zm2 0c0 0-1-1 0-1 0 0 0 0 0 1zm-3 0c1-1 1 0 1 0 0 0 0 0-1 0zm4-1c0 0 0 0 0 0zm-5 0c0 0 0 0 0 0 1 0 0 0 1 0-1 0 0 1-1 0zm6 0c0 0 0 0 0 0zm1 0c0 0 0 0 0 0zm-8 0c0 0 0 0 0 0zm9 0c1-1 1 0 1 0-1 0-1 0-1 0zm-33 0c0 0 0-1 1 0 0 0 0 0-1 0zm-1 0c0 0 0-1 0 0zm-1 0c0-1 0-1 0-1s0 0 0 1zm36 0c0-1 0-1 0-1 1 0 1 0 1 0 0 1-1 1-1 1zm-33-1c0 0 0 0 0 0 1 0 1 0 1 0s-1 1-1 0zm-4 0c0 0 0 0 0 0 0 1 0 1 0 1v-1zm26 0h1c-1 0-1 1-1 0zm-27 0c0 0 0 0 0 0zm6 0c0 0 0 0 1 0h-1zm-8 0c0 0 0 0 1 0-1 0 0 0-1 0zm41 0c0 0 0 0 0 0 1 0 1 0 1 0s0 0-1 0zm-13 0h1c0 0 0 0 0 0h-1zm-40-2c2 1 4 1 5 1 2 0 2 0 3 1 0 0 2 1 1 1h-5c-2 0-2 0-3-1-1 0-1 0-1-2zm-14 2c3-1 4-1 5-1 1 1 2 2 2 3 1 0 1 0 1 0-1 1-4 0-5 0-1-1-2-1-3-2zm-26 5c0 0 0-1 0-2 0-1-1-1-1-2 0-1 0-1 1-1 0-1 0-1 0-1 1 0 1 0 2 1-1 0-1 0-2 1 0 1 0 2 1 3 0 1 1 1 1 1 0 1-2 1-2 0zm85-5c0-1 0-1 0-1 1 1 1 0 1 1-1 0-1 0-1 0zm-34 0c1-1 1 0 1 0 0 0 0 0-1 0zm36-1c1 1 0 1 0 1 0-1 0-1 0-1zm3 0c0 0 0 0 0 0 0 1 0 1 0 1-1-1 0-1 0-1zm-7 0c1 0 1 0 1 0 0 1-1 1-1 0zm-1 0c0 0-1 0 0 0zm-21 1c0-1 0 0 0-1 1 0 1 0 1 0 0 1 0 1-1 1zm33-1c0 0 0 0 1 0-1 0-1 1-1 0zm-8 0h-1 1c0 0 0 0 0 0zm-36 0c0 0 0 0 1 0 0 0 0 0-1 0zm37 0c0 0-1 0 0 0zm-4 0c0 0 0 0 0 0zm6 0c0 0 0 0 0 0zm-51-1c0 0 0 0 0 0s1 0 0 1c0 0 0 0 0-1zm53 1c0 0 0-1 1 0-1 0 0 0-1 0zm-3-1c0 0 0 0 0 1 0 0 0 0 0-1zm-30 0c0 1 0 1 0 1v-1c0 0 0 0 0 0zm4 1c0 0 0 0 0 0 0-1 1 0 1 0 0 0 0 0-1 0zm32-1c0 1 0 1 0 1s0 0 0-1zm-4 1c0 0 0 0 0-1v1zm2 0c0 0 0 0 0-1 0 0 0 0 0 1zm-36-1c0 1 0 0 0 0zm3 0c0 0 0 0 1 0h-1zm-5 0c0 0 0 0 0 0zm23 0c0 0 0 0 0 0 1 0 0 0 1 0-1 0 0 0-1 0zm-16 0c0 0 0 0 0 0zm-2 0c0 0 0 0 0 0zm-2 0c0 0 0 0-1 0h1zm-3 0c0 0 0 0 0 0h1c0 0 0 0-1 0zm38 0c0 0 1 0 1 0 0 0 0 0-1 0zm-32 0c0 0 0 0 0 0zm-3 0c0 0 0 0 0 0v-1l1 1h-1c0 0 1 0 0 0zm19 0c0 0 0 0 0-1 1 1 0 0 0 1zm-21 0c0 0 0 0 0 0 0-1 0-1 1-1 0 1 0 1-1 1zm-2 0c0-1 0 0 0-1 0 0 0 0 1 1h-1c0 0 0 0 0 0zm25-1c1 0 1 0 1 2 0 0-1 0-1-1 0 0 0-1 0-1zm-3 0c0 0 0 0 0 0zm-1 0c0 0 0 0 0 0zm6 2c0 0 0-1 0-1 0-1 1 0 1-1 0 0 0 0 1-1 1 0 2-1 3-1 0 1 0 1 0 2 0 0-4 2-5 2zm-14-3c0 0 1 0 1 0s0 0-1 0zm2 0c0 0 0 0-1 0 0 0 0 0 1 0zm-5 2c0 0 1-2 1-2 0 0 1-1 1-1v2c0 0 0 0 1 0h-1c0 0 0 0-1 1 0 0 0 0-1 0zm5-3c0 1 0 0 0 0 1 0 1 0 1 0s0 0-1 0zm-5 3c-1 0-3-1-3-2-2 0-2 0-1-2 0 0 2 1 2 1 1 1 1 1 1 1 1 1 1 0 1 2zm9-4c1 0 2 0 2 0 1 0 1 0 2 1 1 0 1 1 2 1 1 0 1 0 2 0 2 0 5-3 6-2 0 1-5 2-5 3 0 0 0 0-1 0 0 1 0 1 0 1 0 1 0 2 0 2-1 0 0 0 0-1-1-3-1-2-2-3-1 0 0 0-1 0l-2-1c0 0 0 0 0 0-1 0-1 0-2 0 0-1 0-1-1-1zm0-1l1 0c1 1 0 0 0 1l1 0c-1 0-1-1-2 0 0 1 0 1 1 1h-1v-1h-1c0 0 0 0 0 0h1l-1-1h1zm5 0c1 0 2 0 3 0 0 0 1 0 2 0 0 0 1 1 2 1-2 1-3 2-5 2-1-1-1-1-2-1 0 0 0-1 0-1 0 0 0 0 0-1zm-66 1c0-1 0-1 0-1v1zm0-1h-1c1-1 1-1 1-1v1zm52 6c0 0 0-2 0-3-1 0-1 0-1-1l-5-2c0-1 0-1 0-1 3 1 5 3 7 3 0-1 0-1 0-1 1 0 1 0 1 0 1 0 1-1 2-1 1 0 0 0 1 0 1 0 2-1 2-1v1c0 0-2 0-2 0-1 0-1 1-1 1-1 0-1 0-2 1 0 0 1 0-1 0-1 1-1 1-1 3 0 1 0 1 0 1zm-3-6c0 0 1-1 1-2l5 1c0 0 0 0 0 1-1 0-1 0-1 1 0 0 0 0-1 0-1 1-1 1-2 0-1 0-2-1-2-1zm9-1c1 0 1 0 1-1v1h1v1h-1v1-1c0 0 0 0 0 0 1-2-1-1-1-1zm-67-5c0 0 2-1 3-2 0 0 0 0 0-1 0 1 1 2 1 3 0 1 0 1 1 2-1 1-1 1 0 2 0 1-1 2-1 2-1-1-4-4-4-6zm10 0c-1-1-1-1 0-2 0 0 0-1 1-1-1 1-1 1-1 2 1 1 1 0 1 1v1c0 1 0 2 0 3-1 0-1 0-1 0 0 1 0 1 0 2-1-1-2-1-2-1-1 1 0 1 0 2-1 0-1-1-1-1-1-1-1-1-1-1l1 1c0 1 1 1 2 1-1 1-2 1-2 0 0 0 0 0-1-1 0 0 0 1 0 1 2 2 3 0 3 0 0 1-1 2-1 2 0 1 1 1 1 2 0 1 0 1 0 2 0 1 0 1 0 2 0 2 0 3 0 5 0 0 0 1 0 2 0 1 1 1 1 1 0 1 0 1-2 1 0-1 1-1 0-3 0 0 0 0 0-1 0 0 0-1 0-1 0-2-1-3-1-5-1 1-2 0-3 1-1 1 0 4 0 5 0 1 0 1 0 2 0 2 1 2 1 3-1 0-2 0-3 0 0-1 1-1 1-1 0-2-1-2-1-3 0-3 0-2 0-5 0 0 0-2 0-2 0-1-1-1-2-1 0 0 0-1-1-1-1-1-1-1-2-1 0 0-1 1-1 2-1 1-1 0-1 2 0 1 0 2 0 3 0 1 0 1 1 2-1 0-1 0-2 0 0-1 0-1 0-2 0-3-1-3-1-3 0-1 1-1 1-1 0-1 0-2 0-2 0-1 0-1 0-2 0-3 0-2 0-3 2-3 1-2 1-3 1 0 0 0 1 1 1-1 2 0 3 0 1 1 2 1 3 2 1 0 1 0 2-1 2-1 1-2 1-5 0 0-1 0-1-1 0 0 0 1 1 1 0-1 0-1 1-2 0 0 0 1 1 0v1h3zm-6-3c0-1 0-1 1-2 0 0 0 1 0 1-1-1-1 1-1 1zm7-1c0 0 0-1 1-1 0 0 1 3 0 3 0 1 0 0 0 1 0-2 0-3 0-3-1 0-1 0-1 0zm53-7c1 0 1 1 2 0 1-1 1-1 1-2h1c0 0 0 0 0 1 0 1 0 1 0 2h2c1 2 1 6 1 8v8c0-1 0-1-1-1v1h-1 1l-1-1v-1h-1c0 0 0 0 0-1v1c-1-1 0-3-1-4 0-2-2-9-3-11zm-10 17c-1 2 0 1-1 2-1-1-1-6-2-7 0-4-1-8-3-12-1-2-2-4-2-6h6c0 0 0 0 0 1 0 2 1 2 2 3 1 5 2 7 2 13 0 2-1 3 0 3 0 2-1 2-1 3-1 0-1 0-1 0zm-32-27c1 0 1-1 1-1 1-1 3-4 3-5v1c1 0 1 0 0 1 0 0 0 1-1 1 0 1 0 1 0 2-1 0-1 0-1 1 0 0 7 2 8 2 6 1 12 1 18 1 3 0 7 0 10 0h-1c-5 1-13 1-19 0-8-1-11-2-18-3zm-16 16c0 0 0 0 0 0 2-3 3-4 4-7 3-5 5-12 7-17 1-2 4-6 5-7 1 1 1 1 1 2 1 2 2 5 2 6 1 1 0 1 0 2l-3 5c7 2 16 4 23 4 1 0 1 2 1 2 0 1 1 2 1 3 3 5 3 9 4 15 0 1 1 2 1 3 0 1 0 2 0 3-1 1-2 2-4 2-5 1-9 0-12 0-3 0-6 0-10 1-1 0-3 0-4 0-2 0-3 0-5 0-2 0-5 0-7-1 0-1-1-1-1-2 0 0 1-3 1-4 1 0 1 0 1-1 0-1 0-2 0-3 2-1 1 0 2-2 0 0 0 0 0-1 0-1 0-2-1-3-1-2-1 0-2 1 0 1-1 2-1 3h-2c0-2-1-2-1-4zm95-27c0 1-2 3-3 2-1 0-1-1-1-2 1 0 1-1 2-1 0 0 0 0 1 1 0 0 1 0 1 0zm4-3c2 2-2 3-4 3-4-1-1-2 0-4 0 1 0 0 0 1 0 0 0 0 1 1 1 2 3-1 3-1zm-78 10c0 0 2 1 2 0 1 0 1 0 1 0 0-1 0-1 0-1 0-1 1-1 1-1 0-3-1-3 0-5l10-16c5-1 12 1 15 3 10 3 18 6 28 8 8 2 9 1 16 1l-1 2c-1 1-1 1-2 2-1 1-2 2-3 3-1 1-1 1-3 2-2 1-3 1-4 2-3 1-6 2-9 3-3 1-6 2-10 3-11 1-22 1-34 0-1-1-9-2-9-2l2-4zm77-14c2 0 3 1 2 2l-2 3c-2 1-3-1-2-3 0 0 2-2 2-2zm-9 2c0 0 0 0-1 0l-2-1c-1 0-2-1-1-2 1-2 2-1 3-1 1-1 2-1 4-1l-2 2c-1-1-1-1-2-1 2 1 2 1 1 4zm-17-7c2 0 3-1 4-1 0 1 1 1 1 2 1 1 3 2 5 3 1 2 1 1 1 3-2 0-5-1-7-2-1 0-1 0-2 0-1 0-1 0-1-1-1-1-1-2-1-4zm-12-2c1 0 1 0 1 0s0 0 0-1c1-1 2-1 2-1 0 0 0 0 1 0 0-1 0-1 1-1 0 2 0 5 0 7 0 0-4-2-5-2v-2zm30 9c0 0 0-1 0-2 1-1 1 0 2-1 2-1 5-3 7-4 0 0 0 0 1-1l1-1c0 1 0 2 0 2-1 1-2 3-2 3l-2 3c-1 1-1 1-2 1h-5zm-74-9c0 0 2-1 2-1 0 0 0 0 0 1 1 0 1 0 1 0l1 2c1 1 2 2 2 4-1 0-2 1-2 1-1-1-3-6-4-7zm42 1c-1 0-2-1-3-1 0 0-1 0-1 0-1-1-1 0-1-1 0-1 0-5 0-7l3 4c0 0 1 0 1 1 0 0 1 1 2 2 0 1 1 1 0 3v-1c0 0 0-1 0-1-1 0-2 0-1 1zm45-2c-1 1-1 1-1 2v-2c-1 1-1 1-1 1-3 2-5 3-8 5 0 0-3 1-3 2v-1l13-7zm-55-3l1 2-2-1 1-1zm-24 18c0 0 0-1 0-1 0 0 2-3 2-3 1-2 3-6 5-8 1-1 2-3 2-4 1-1 1-2 2-2 3 0 6 0 9 1 6 1 13 4 19 7 3 1 6 2 9 3 8 2 15 3 23 3 0 0 0 0-1 0-16 1-29-5-44-10-4-2-9-3-15-3-1 1-2 3-3 4-2 4-5 9-8 13zm35-15c0-1-2-3-2-4-1 0-1 0-1 0l-2-3c-1-1-1-1 0-2 0-1 0-3 1-5 0 0 0-1 0-2 0 1 1 2 1 3 0 0 0 3 0 4l3 9c0 0 0 0 0 0zm-19-16c0 0 0 0 0 0 1 0 1 0 1 0 0 1 0 1 0 2 0 1 0 3-1 4 0 0 0 0 0 1 0 0 0 0 0 1 1 1 1 1 1 2 1 1 1 2 0 3 0 0-5-1-7 0 0 0-2 4-3 4l-4 8c-1 0-1 1-2 2-1 0-4-2-5-3 0 0 1 0 1 0 0 0 0 0 1-1 0-1 1-1 0-2 0-1-1-1-1-1-1-1-1-2-2-3 2 0 2 1 5 1 0 0 1 0 1-1 0 0-1 0-2 0-1 0-1 0-2 0-1-1-2-1-3-2 0 0-1-1-2-3 0 0 0-1 1-2 0 0 0 0 1-1 0 0 0 0-1 0 0-1 0 0 1 0 0 0 0-1 0-1 1 0 1 0 1 0h-1c-1 0-1-2-1-3 0 1 0 1 0 2 0 0 0 1 0 1 0 1-1 2-1 3 0 1 0 1-1 2 0 1-1 1-1 2 0 1 1 1 1 2 1 1 2 2 2 4 2 2 2 3 4 5 1 0 3 1 4 1-1 2-1 1-1 2-1 0 0 2 0 2 0 1 1 4 0 5-1-2-1-5-1-5 0 0 0 0 0-1-1 1 0 5 1 6 0 0 0 1 0 1 0 0 0 0 0 1-1-1-2-3-2-3l-1-4c0 0 0 1 0 1 0 0 0 1 0 1 1 1 2 5 2 5-1 0-1-1-1-1-1-1-2-3-2-4 0 0 0-1 0-1-1 0-1 0-1 0l1 1c0 2 1 3 1 3 1 1 1 2 1 2-2 0-3-5-4-7 0-1 0-2-1-3 0-1-1-3-2-4-1-1-2-1-2-2 0 0-1-1-1-1-1-1-2-2-2-3-1-1-1-2-1-3 2-3 2-8 3-11 1-3 1-3 4-4 0 1 0 4 1 5 0 0-1-1-1-1 0 0 0-1 0-1 0-5 0-3-2-3 0-1 2-1 3-2 1 0 1 1 2 1 1-1 1-1 1-1 1 0 1 1 2 0 2-1 1-3 1-5 0 0 2 2 4 3 2 1 3 1 5 0 0 1 0 1 0 2 0 0 0 0 1 1 0-1 1-1 1-1 2-1 3 0 4 1 1 0 2 0 2 1zm20 1c0 0 0 1 0 1-1 0-1-1-1-1h1zm-73 0c0-1 3-3 3-4l2 3c1 0 1 0 1 1l2 1c1 1 4 2 6 2 0-1 0-3 1-4 1 1 2 2 4 2-1 1-2 2-1 4 0 1 1 3 1 4 0 1-1 1-2 1-1 1-3 0-4-1-1 0-1 0-2 0 1 3 4 6 7 7 1 0 1 0 2 0 3 1 2 0 3 2l2 3c1 1 1 1 2 2-5-1-12-4-16-7l-3-2c0 0 0-1-1-1l4-6c-4 0-10-5-11-7zm73 15c0-1 1-4 2-5 2-3 5-11 5-14 2 1-1 11-2 14 0 2 0 2 0 2-1 1-4 3-5 3zm4-12c0-1 0-2-1-3 0 0 0 0 1-1 0-1 1-1 1-1 0 0 1 0 1-1 0 1 0 2-1 3 0 1 0 2-1 3zm-8-3c0-1 0-3 0-4 1 1 0 1 0 3v1zm5-3c1-1 1-1 2-1v2c-1 0-1-1-2-1zm-17-2c1 0 1-1 2-2 0 0 1-1 1-2l1 2c0 1 1 2 2 3 0 0 0 1 0 1-1 1-6 2-7 3-1 0-1 1-1 2 0-3-1-3-2-4l4-3zm13 3c0-1 1-2 1-3 0 1 1 1 2 2-1 0-1 0-2 0 0 1 0 0 0 1-1 0 0 0-1 0zm0-3c0 0 0 0 0 0zm7 2c0 0 0-1 0-1 0-1 0 0 1-1 1 0 1-1 2-1 0 1-1 1-1 2-1 0-2 1-2 1zm-61 0c0-1 1-2 2-3 1-1 1-2 2-3 0-1 0-2 1-3 0 1 0 2 0 4 0 3-2 5-5 5zm55-3c2 0 4-1 5-2 1-2 0-2 2-2 1 0 2-1 2-1v3c0 1 1 1 0 1l-3 2c0 0-1 0-1 0-1 1-2 2-3 1 0 0-1 0-1-1 0 0 0 0-1-1zm-7 2c-1 0-2-2-3-3 0-1 0-2-1-2 0-1 1-2 1-3 0 1 1 2 1 2 1 1 2 2 2 2 1 1 1 1 1 1 1 1 1 1 2 1l-2 2c0 0-1 0-1 0zm-8-11c1 0 1 1 0 1 0 0 0 0 0-1zm1 0c0 0 0 0 0 0zm0-2c0 1 0 1 0 1s0 0 0 1c0 0 0 0 0 0-1 0-1 0-1 0 0-1 0-1 0-1v-1 0c0-1 0-1 1-1 0 0 0 0 0 0 0 1 0 0 0 1v0c0 0 1 0 0 0 0-1 0-1-1-1 0 0 0 0 0 1 0 0-1 1 0 2 0 0 1 0 1 0 0-1 0-1 1-1 0 0-1 0-1 1-1 0-2 0-1-1 0-1 0-2 0-2 1 0 1 1 1 1zm-28 0c1 1 0 1 0 0zm1 0c-1 0 0 0 0 0 0 0 0 0 0 0zm-1-3c0 0 0 0 0 0 1 0 1 0 1 0s0 0-1 0c0 0 0 0 0 0 1 0 1 0 1 0 0 1 0 1 0 1 0 1 0 1 0 1s0 0-1 0c0 0 0 0 0 0-1 0-1 0-1 0v-1c0 0 0 0 1 0 0-1 0-1 0 0v-1c0 0 0 0-1 1 0 0 0 1 1 1 1 0 1 0 1 0 0 1-1 1-1 0-1 0-1-1 0-2zm27 2c0-1 1-1 1-1-1 1 0 1-1 1zm0-2c1 1 1 0 1 1-1 0-1 0-1-1zm0 0c0 0 1 0 1 0 0 0 0 0-1 0zm0-1c1 0 1 0 1 0v1c0 0 0 0 0 0l-1-1zm-27 0c0 0 0 0 0 0zm0-1c0 0 0 0 0 0 0 1 0 1 0 1 0-1 0-1 0-1zm0 0c-1-2 0-3 0-4 0 1 0 1 0 1 1 0 1 1 1 1 0 0 0 2 0 2 0 0 0 0 0-1-1 0-1 0-1 1zm28-16c0-3 1-4 3-4 2-1 2 0 3 0 1 0 1 0 1 0 1 0 1 0 1 0 1 0 2-1 3-1 2-1 3-1 5 0 1 0 2 0 3 0 1 1 1 2 1 2-1 2-1 1 0 2 0 1 2 2 3 3 3 2 3 3 3 7h2c1-1 1-4 2-4 1-1 2 0 2 1 1 0 1 0 1 1 1 2 0 4 0 6 0 1 0 2-1 3 0 0-1 0-2 0 0-1-1-3-1-3l-1-2c0-1 0-1 0-1s0 1 1 2c0 0 0 1 0 1 0 2 1 3 0 4 0 2-1 5-3 7-1 2-3 3-6 4-1 0 0 2-4 3-3 1-6 2-8 0 0 0 0-1 0-1 0 0 0 0-1 0l-1-2c-2-2-4-5-5-8 0-3-1-6-1-9h1c0 0 0 0 0 1 1-1 0 0 1 0l2-1c2-1 0 0 2-1h-1c0-1 0 0 0 0 0 0 1 0 1 0h-1c0-1-2-1-4 0 0 0 0 0 0 1 0 0-1 0-1 0 0-1-1-1-1-2 2-1 4-1 6-1 0 0 0-1-1-1 0 0-1-1-1-1-1 0-3 1-4 1 0-2 0-3 0-4 0-1 0-3 1-3zm1 11c0-1 1-1 2-1-1 1 0 1 0 1s-1 0-2 0zm3-1c0 0 0 0 0 0zm-40 14c0-1 0-2 0-3-1-3 0-6 1-9 0-1 3-7 4-8 0 4-3 11-3 12-1 2-2 7-2 8zm7-22c0 0 0 0 0 0v3c0 0 0 1 0 1 0 0-1-4-1-4 1 0 0 0 1 0zm1-1c0 0 0 0 0-1 0 1 0 2 0 3 0 1 0 3 0 3-1-1-1-4-1-5 1 0 1 0 1 0zm60 1c-1 0-1-1-1-1 0-2 0-3 1-5 1 1 1 1 1 2 0 1 1 1 1 1 0 0-1 0-1-1 0 0 0-1 0-1v1c0 1 0 1 0 1 0 1 0 1 0 2-2 0 0-3-1-4 0 1 0 0 0 1 0 2-1 2 0 4zm-36-6c0 0 0 0-1 0h1-1 1zm-1 2c0 0 0 0 1 0-1 1 0 0-1 1 3 2 3 5 3 5 0 0 0 2 1 2 0 1-1 1-1 2 0 0 1 1 1 1 0 2 1 1 1 3-1 1-1 4-1 5 0 1 0 1 0 1 0 1 0 1 0 1-1 2-1 4-3 7-1 1-2 3-3 3-4 3-6 6-10 3-1 0-5-4-6-6-4-4-3-5-3-9 0-1-1-2-1-3 1-2 0-5 1-7 0 0 1-1 1-1 1-1 2-2 2-3 1-1 1-1 1-2 1-2 2-3 4-4 1-1 1-1 2-1 1 0 0 0 2 0v-1 1-1c1 0 1 1 1 1 1 0 0 0 1 1 0-1 0-1 0-2v1l1-1c0 0 0 1 0 1v-1c1 0 1 1 1 1v-1l1 1v-1 1c1 0 1 0 1 0 2 0 1 0 1 0 0 1 1 1 1 1 0 1 0 0 1 1zm-49 33c0 0 0 0 0 0 1 0 1 0 2-1 2-1 4-5 5-7 2-4 4-8 6-11l3-6c0-1 2-3 3-4 1-1 2-2 2-3 1 0 2-1 2-2 1 0 1 0 2 0 2 0 3-1 4-1l-4 4c0 1-1 2-2 3-3 4-6 10-6 16 0 2 1 4 0 6-1 6-6 10-6 15-2 0-4 0-5-1-1 0-2-1-3-2-1-1-3-4-3-6zm85-36c0 1 0 1 1 1 0 1-1 1-1 2v-3zm-35 0c-1 0-1 0-1-1 1-3 2-8 5-10 1-1 2-1 3-1 2-1 2 0 4 1 4 2 8 4 13 3 4 0 5-1 7-1 7-1 6 3 6 5l1 4c0 0 0 1 0 1s-1-2-1-3c0-1 0-2 0-3-2-2-4-2-6-2-3 1-5 1-7 1-4 0-4-1-5-1-5-1-9-4-14-3-2 1-3 2-4 4-1 2-2 4-1 6zm-20 0c0 0 0 0 0 0zm0 0c0 0 0 0-1 0 0-1 0-1 1 0zm1-1c0 1-1 0 0 0zm-1 0c0 0 0 0 0 0zm-1 0h0zm2 0c0 0 0 0 0 0-1 0-1 0-1 0s0 0 1 0zm-1 0zm1 3c0-1 0-1-1-1 1-1 2-2 2-3 1 0 1 0 1 0s0-1 1-1c0 1 0 0 0 1l-1 0c1 0 0 0 1 0 0 0-2 1-2 2 1 0 4-3 4-3-1 1-2 2-2 3 0 0 1-2 2-3l-2 3c0 0 0 0 0 1v-1 1c0 0 1-1 2-2-1 1-1 1-1 2 0 0 0-1 1-1-1 1-1 1-2 1 0 1 0 1-1 2 0-1 1-1 1-2-1 0-1 1-2 2 0-1 1-2 1-2-1 0-1 0-1 1-1 1-2 4-3 4l1-2c0 0 0 0 0 0s0 0 0 1c-1 0-1 0-1 1l1-3c1-1 1-1 1-1zm4-1zm-4-3c0 1 0 1 0 1s0-1 1-1c0 1 0 1-1 1v-1zm0 1zm-1-1c0 0 0 0 0 0zm0 0l-1 0c1 0 0 0 1 0zm2 0c0 0 0 0 0 0zm0 0c-1 0 0 0-1 0 1 0 0 0 1 0zm-1 0c0 0 0 0 0 0zm2 0c0 0 0 0 0 0h-1c0 0 0 0 0 0h1zm-3 0c0 0 0 0 0 0zm2 0c0 0 0 0 0 0v-1c0 0 0 1 0 1zm-3 0c0 0 0 0 0-1 1 0 0 0 1 1 0 0 0 0-1 0zm2-1c0 1 0 1 0 0zm3 1c0-1 0-1 0 0zm-3-1c0 1 0 1-1 0 0 0 1 0 1 0zm2 0c-1 1 0 0-1 0 1 0 0 0 1 0zm2 0c0 0 0 0 0 0zm-5 0c0 0 0 0 0 0zm2 0c0 0 0 0 0 0zm2 0c0 0 0 0 0 0zm-3 0c0 0 0 0 0 0zm3 0h-1c0 0 1-1 1 0zm-3 0c0 0 0 0-1 0 1-1 1 0 1 0zm2 0c0 0 0 0 0 0zm2 0c0 0 0 0-1 0 0-1 1-1 1-1v1c0 0 0 0 0 0zm-3 0c0 0 0 0 0-1v1zm0 0c0 0 0 0-1 0 1-1 1-1 1 0zm2 0c0 0 0 0 0-1 0 1 0 0 0 1zm-1 0c0-1 0 0 0-1h1c0 0 0 0-1 1zm-2-1c0 1 0 1 0 1 0-1 0-1 0-1zm-1 0h1c0 0 0 0-1 0zm3 0c0 0 0 0-1 0 0 0 1 0 1 0zm12 3c0-1 0-2 0-2-1-1-1-1-1-1 1-1 2 2 2 3 1-1 0-2 0-3 0 0 1 1 1 2 0 0 0-1 0-2 1 1 0 1 1 3 1-1 1-1 1-2 0 0 0 1 0 1 0 1 0 1 0 2h-1c0 0 1 0 1-1-1 0-1 1-2 1 0-1 0-1 0-2 0 1 0 1-1 2 0 0 0 0 0-1 0 0 0 0-1 0 0 0 1 1 1 1-1 0-1-1-1-1-1 0-1 0-1 0 0-1 0-1-1 0v-1l-1 1c0 0 0 0 0-1-1 0 0 0-1 1 0-1 0-1-1-1 0 1 0 0 0 1 0 0 0 0 1 0h-1c-1 0-1 0-2 0 0 0 1 1 0 1 0 0 0 0-1 0l1-1c0 0 0 0 0 0s0 0 1 0c1-1 0-1 0-1h1c0-1 0 0 1 0v-1c0 0 0 0 0 0l1 1c0-1 0-1 0-1s0 1 1 1v-1c0 0 1 1 1 1 0-1-1-1-1-2 1 0 2 2 2 3zm-1-1c0 0 0 0 0 0zm-1 0c0 0 0 0 0 0zm-2-1c0 0 1 0 0 0zm-1 1c0 0 0 0 0 0zm-6-2c0 0 1 0 1 0 0 0 0 0-1 0zm-2 0c0 0 0 0 0 0zm0 0c0 0 0 0-1 0 0 0 1 0 1 0zm2 0c0 0 0 0 0 0zm-3 0c0 0 0 0 0 0zm4-1c0 1 0 1 0 1s0 0 0-1zm-2 1c0 0 1 0 0 0zm-1 0c1-1 1 0 1 0-1 0 0 0-1 0zm19 4c-1-2-1-4 0-6 1-1 3-3 5-3 3-2 8 1 11 2 1 1 1 1 2 1 0 0 1 0 1 0 6 2 13-2 16 1 1 1 1 2 1 3 0 1 0 2 0 3-1 0-1 0-2-1-1 0-1-1-1-1 0-1-13-3-14-3-4 0-12-1-15 1-1 1-1 1-2 1-1 1-1 1-1 2-1 0-1 0-1 0zm1-1c0 0 0 0 0 1v-1zm-17-3c-1 0 0 0-1 0 0-1 0-1 1-1v1zm1-1c0 1 0 0 0 0zm-2 1v-1c0 0 0 0 0 1zm1-1c0 0 1 0 1 0 0 0 0 1-1 0zm-2 0c0 0 0 0 0 0zm2 0c0 0 0 0 0 0s0 0 0-1v1zm-2 0c-1 0-1 0 0 0 0 0 0 0 0 0zm4 0c0 0 0 0 0 0zm-3 0c0 0 0 0 0 0s0 0 1 0c-1 0 0 0-1 0zm0 0h0c0 0 0-1 0 0zm4 0c-1 0-1 0-1 0s0-1 1-1c0 0 0 1 0 1zm-5 0c0-1 0-1 0 0zm-1-1c1 0 1 0 1 1-1 0-1 0-1-1zm5 1c0-1 0-1 0-1 0 1 0 1 0 1zm0-1c0 1 0 1-1 1v-1h1zm-2 0c0 0 0 0 0 0 0 1 0 1 0 1-1 0 0 0 0-1zm-1 0c0 1 0 1-1 0 1 0 0 0 1 0zm4 0c0 0 0 0 0 0zm-2 0c0 0 0 0 0 0zm-2 0c0 0 0 0 0 0zm-1 0c0 0 0 0 0 0zm7 0c0 0 0 0 0 0h-1c0 0 1 0 1 0zm-2 0c-1 0-1 0-1 0s0 0 1 0zm-3 0c1 0 0 0 0 0zm2 0c0 0 0 0 0 0zm2 0c0 0 0-1 0 0zm-5 0c0 0 0 0 1 0 0 0 0 0-1 0zm0 0c0 0 0 0 0 0zm6 0c0 0 0 0 0-1v1zm-2 0c0 0 0 0 0 0zm8 0c-1 0-1 0-1 0 0-1 1-1 1-1 0 1 0 1 0 1zm-4 0c-1 0-1 0-1 0 0-1 1-1 1-1 0 1 0 1 0 1zm-5 0c0 0 0 0 0 0 0-1 0-1 1 0-1 0 0 0-1 0zm-1 0c0 0 0-1 1 0l-1 0zm9 0c0-1 0 0 0-1 0 1 0 0 0 1zm-4 0c0-1 0 0 0-1 0 1 0 0 0 1zm-1 0c-1 0-1 0-1 0 0-1 0-1 1-1 0 1 0 1 0 1zm-4-1c0 0 0 0 0 0zm-1 1c0 0 0 0 0 0zm12-1c0 1 1 1 0 1 0-1 0-1 0-1zm-8 0c0 1 0 1 0 0zm-4 1c-1-1-1-1-1-1h1c0 1 0 0 0 1zm12-1c0 0 0 0 0 0zm-10 0c0 0 0 0 0 0zm12 0c0 0 0 0 0 0zm-3 0c0 1 0 0 0 0 0 0 0 0 0 0zm-4 0c0 1 0 0 0 0 0 0 0 0 0 0zm-4 0c0 0 0 0 0 0zm-42 50l1 1c2 2 4 4 6 5 1 1 1 1 2 1l2 1c0 0 0 0 0 0-1 1-3 4-3 5 0 1 0 1 0 1l2 1c0 1 1 1 1 1 4 3 10 6 15 7 1 0 2 0 2 0 1 0 1 1 1 2 1 0 1 0 1 1 0 0-1 1-2 1 0 1-1 2-2 4-4 7-6 16-10 23-1 1-2 2-3 3-1-1-1 0-1 1-1 1 0 0-1 1-2 1-3 2-4 2 1 4 4 7 4 7-1 1-4-2-7-2 0 0 0-1-1 0 0 0-1 0-1 0 0 1 1 1 0 1 0 1-1 2-1 3 0 1 0 2 0 3 0 1 0 1 0 2 0 1 0 2 0 2 0 1 1 2 1 3 0 1-1 2 0 2 0 0 1 1 1 1 0 0 1-1 1-1 0-1-1-1-1-3 0-1 0-1 0-2 0-2 1-1 2-2 0-1 0-2 1-2 0 1-1 2-2 3 0 0 1 1 1 2 1 2-1 3 3 3 0 0 0 0 0-1 0-1-1-1-1-2 0-2 0-2 1-3 2 1 1 0 2 4 0 3 0 3 0 4 0 1 0 1 0 2 0 0 0 1 0 1 0 2 2 2 2 2 2-1 1-2 1-3-1-1-1-2-1-3 0-1 0-2 0-4 0 0 0-1 1-1 0 0 2 0 2 0 0 2 0 3 0 5 0 1 1 1 1 3 0 0-1 1 0 1 0 0 2 0 2 0 0 0 1 0 1 0 0-1-1-1-1-3-1-1 0-6 0-7 0-1 0-1 0-1-1-1 0-2 0-2 1 0 3 2 9 2 1 0 1-1 2-1 0 0 1 1 2 1 1 2 5 3 6 3 1 0 4 0 3-1 0-1-2-2-2-3 1 0 4-1 5-1l1 1c0 0 0 1 1 1 0-1 0-1 0-2h1c0 2-1 2 1 3 0 0 1 0 2 1 1 0 5 0 6 0 0-1 0-1 0-2 0 0-1-1-1-1 1 0 0 0 2 1 2 2 8 2 10 1 1 0 2-1 3-1 0 0 0 0 1-1 0 1 0 1 2 1 2-1 1-1 3-4 0 0 0 0 0-1 0 0 0-1 0-1v-1l1 1c0 0 0 0 0-1l1 1c0 0 0 0-1 0h1v1h1c0 0 1 1 1 1 0 0 0-1 0-1h1c0 1 0 1 0 2 0 0 1 2 1 3 0 1 0 1 1 1 1 0 3 1 3 0 1 0 1 0 1 0 1 0 2 2 7 2 2 0 9-1 8-4-1-1-1-1-1-1 0-1-1-1-2-1-2 0-3-1-4-1-1-1-1-2-2-2 0-1 0-1 0-1-1 0-1-1-1-1 0 0 1 0 1 0 0-1-1-3-1-4-1-3-2-9-3-12 2 0 4-1 5-1 1-1 2-1 3-1 0-1 1-1 1-2 0-1-2-4-2-4-1-1-2-3-3-4 3-2 6-3 9-4 1-1 2-3 3-4 1 1 1 1 1 2 1 0 2 0 2 0 2-1 2-2 3-3 1 0 4 0 4-2 0-1 0-1 0-1 0-1 3-4-1-5 0 0 0 0 1-1 1-2 2-3 3-5 0 0 1-2 1-2v-1c-1 1-3 2-4 2l-7 4c-1 1 0 1-2 1-1 0-2 0-2 0-1-1-1-1-1-2-1-1-1-2-1-3-2-3-2-6-3-10 0-1 0-2-1-2 0-2 0-2-1-3 0 0-1-1-2-1l-6-3c-5-2-6-3-6-8 2-1 3-2 4-4 2-2 1-3 2-5 1-1 1 0 1 0 2 0 2-2 2-3 0-2 1-3 1-5 0-3-1-3-2-4 0-2 0-4 0-5 0 1 1 2 1 1 0 0 0-1 0-1 0 0 0-1 0-2 0 1 0 0 0 1l1 1c0-1 0-1 0-2-1 0-1-1-1-1 1 0 1-1 1-2 0 0 0-1 0-2 0 0 0-1 0-2 0-1 0-1-1-2 0-3-3-4-6-3-1-3-3-5-5-6 0-1-1-1-3-2-2-1-2-1-3-1h-2c0 0-2 0-3 0-2 1-3 3-5 4-2 2-1 1-3 1-3 1-5 3-6 5 0 0 0 0-1 0 0 0 0 0 0 0 1 0 0 1 1 0 0 1 0 1 0 1-1 0-1 0-1 0 0-1 0 0 0 0v-1c-1 1-1 0-1 0 1 0 0 0 1 0-2 0-1-1-2-1v-1c0 0-1 0-1 0 0 0 0 0-1-1-1 0-3-1-5-1-4 1-7 2-10 4-2 1-5 4-6 6-2 2-1 3-2 4-1 1-3 3-4 4-4 5-6 10-9 15-2 3-4 9-6 11 0 0-1 1-1 2-2 1-2 2-4 2 0 1 1 2 1 3 0 0-2 3-4 4zm53-50c0 0 0 0 0 0-1 0-1 0-1 0 1 0 1 0 1-1 0 0 0 0 0 1zm-9 0c0 0 0 0 0 0zm-2 0c0 0 0 0-1 0 1 0 0 0 1 0zm-1 0c0 0 0 1-1 0 0 0 1 0 1 0zm11 0c0 0 0 0 0 0zm-3 0c0 0 1 0 1 0 0 0 0 0-1 0zm-2 0c1 0 1 0 1 0-1 0-1 0-1 0zm0 0zm-2 0c0 0 1 0 1 0 0 0 0 0-1 0zm-5 0c0 0 0 0-1 0 0 0 0 0 1 0zm14 0c0 0 0 0 0 0-1 0-1 0-1 0h1zm-3 0c0 0 0 0 0 0zm-2 0c0 0 0 0 0 0zm-4 0c0 0 0 0 0 0zm-2 0c0 0 0 0 1 0-1 0 0 0-1 0zm0 0c0 0-1 0 0 0zm7 0c0-1 1-1 1 0-1 0 0 0-1 0zm0-1c0 0 0 1 0 1 0 0 0-1 0-1zm-2 1c0 0 0 0 0 0zm-2-1c0 0 0 1 0 1 0 0 0-1 0-1zm-5 1c0 0 0 0 0 0zm11 0c0 0 0 0 0 0 0-1 0-1 0-1 1 0 0 0 0 1zm-10 0c0-1 0-1 0 0zm10-1c0 1 0 1-1 1 1-1 0-1 1-1zm-3 1c0 0 0 0 0 0 0-1 0-1 1-1-1 1-1 1-1 1zm-1 0c0 0 0 0-1 0 0-1 0-1 1-1 0 0 0 0 0 1zm-3 0c0 0 0 0 0 0 0-1 0-1 1-1-1 1-1 1-1 1zm-1 0c0 0 0 0 0 0zm-2-1c0 1 0 1-1 1 0-1 0-1 1-1zm-2 1c0 0 0 0 0 0s0 0 0-1v1zm-11 8c0-1 2-4 3-5 1-1 1-2 2-2 1-1 2-1 3-1h-1c0 0 0 0 0 0 1 0 3-1 3 0 0 0-1 0-1 0l-5 3h1c0 1-1 1-1 1s1-1 1 0l-1 1c0 0 0 0 0 0s1 0 0 1c0 0 0 0 0 1 0 1 0 0-1 1l-1-1c0-1 1-2 1-2 0-1 1-1 1-2-1 0-1 1-1 1-1 1-1 0-2 1 0 1-1 2-1 3 0 1 0 0 0 1v-1zm6-7c0 0 0 0 1 0v-1c0 0 0 0 0 0l-2 1c0 1-1 1-1 1l-1 1 3-2zm12-2c0 0 0 0 0 0 0 1 0 1 0 1v-1zm-4 1c0-1 0-1 1-1 0 0 0 0 0 1h-1zm8-1c0 1 0 1 0 0zm-3 0c0 1 0 0 0 0zm-3 0c0 0 0 0 0 0zm-3 0c0 0 1 0 1 0s0 0-1 0zm13 0c0 0 0 0-1 0 1 0 0 0 1 0zm-2 0c0 0 0 1 0 0zm-3 0c0 0 0 0 0 0zm-8 0c0 0 0 0 0 0zm7 0c0 0 0 0 0 0s0 0 1 0c-1 0 0 0-1 0zm-2 0c1 0 1 0 1 0-1 0 0 0-1 0zm-1 0c0 0 0 0 0 0zm-2 0c0 0 0 0 0 0zm8 0c0 0 0 0 0 0zm-6 0c-1 0 0 0-1 0 0 0 1-1 1 0zm-2 0c-1 0-1 0-1 0h1zm7 0c0 0 0 0 0 0s1 0 0 0zm0 0h-1c0-1 0 0 1 0zm-4-1c0 0 0 1 0 1 0 0-1 0 0-1zm-2 1c0 0 0 0-1 0v-1l1 1zm7 0c0-1 0-1 0 0zm-2-1c0 0 0 0 0 0h1c-1 0 0 0-1 0v1l0-1zm-1 0c0 1 0 1 0 1 0-1 0-1 0-1zm-5 1c0-1 0-1 0-1 0 1 0 1 0 1zm7 0c0-1 1-1 1-1 0 1 0 1-1 1zm0-1c0 0 0 0 0 0zm-3 0c0 0 0 0 0 0 0 1 0 1 0 1s0 0 0-1zm0 0c-1 1 0 0-1 0 1 0 0 0 1 0zm-2 1c0-1 0-1 0-1 0 1 0 1 0 1zm-1-1c0 0 0 1 0 0zm7 0c0 0 0 0 0 0zm-2 0c0 0 0 0-1 0h1zm-1 0c0 0 0 0 0 0zm3 0c0 0 0 0-1 0 0 0 1 0 1 0zm-4 0c0 0 0 0 0 0zm-1 0c0 0 0 0 0 0zm-2 0c-1 0-1 0-1 0 1 0 1 0 1 0zm3 0c-1 0 0 0-1 0 1 0 0 0 1 0zm-4 0c0 0 0 0 0 0zm5-1c-1 1-1 1-1 1v-1c0 0 0 0 1 0zm-3 1c0-1 0-1 0 0zm-1 0c0 0 0 0 0-1 0 0 0 0 0 1zm3-1c0 0 0 0 0 0zm-4 0c0 1 0 0 0 0 0 0 0 0 1 0 0 0 0 0-1 0zm3 0c0 0 0 0 0 0zm-3 0c0 0 0 0 0 0zm2 0c0 0 0 0 0 0zm2 0c0 0 0 0-1 0 0 0 0 0 1 0zm-3 0c0 0 0 0 0 0zm-1 0c0 0 0 0 0 0s0 0 1 0c-1 0 0 0-1 0zm3-1c0 1-1 1-1 1 1-1 0 0 1-1zm-1 1c0-1 0-1 0 0zm1-1c0 1 0 0 0 0zm0 0c-1 0-1 0-1 0h1zm17-2c0 0 1-1 2-2 5-4 9-4 15 1 1 1 3 3 3 5-1 0-4 1-5 1-4 0-8-1-11-2l-4-3z"/><path d="m140 600c0-2 0-1-1-2l1-1c1 0 1 0 1-1 1 0 1-1 1-2h1v-1c0 0 0 0 0 0l-2 1c0 0-1 0-1-1h2v-1c-1 0-1 0-2 0 1 0 1 0 2 0 0 0 1 0 1 0 1 0 0 1 0 1 0 0 1 0 0-1 0 0 0 0-1-1 0 0 0 0 0-1 0-1 1-1 0-2-1-1 0 0-1-2 0-1-1-1-1-1 0 0 1-1-1-1v-1c0 0 0 1 0 0-1 0 0 0-1 0-1 0 0 0-1 0 0 0 0 0 0-1 0 1 0 1-1 2 0-1 0-1 0-2 0 0 0 0-1 0 0-1 0-1 0-1s0 0 0-1c1 0 1 2 1 2h1c0 0 0 0 0 0l-1-1c0-1-1-1-1-1 0 1 0 1 0 1-1 0-1 1-2 1-1 0 0 0-1 0l1-1c-1 0 0 0 0 0h-2c0 0 0 0-1 0 0 0-1 0-1 0 0 0 1 0 1 0 1 0 0 0 1 0 0 1 0 0 0 1v-1c1 0 1 0 2 0 0 1-1 1-1 1 0 0 0-1 0-1v1c0 0 0 0 0-1 0 0 0 0 0 1v1c0 0 0 0 0 0 2 0 3 0 3-1 0 1 0 1 0 1-1 0-1 0-1 0-1 0-1 0-1 0 0 1 0 1 1 1 0 0 0 0 1 1 0 1 0 1 0 1h-1c0-1 0-1 1-1l-1-1c0 0 0 0-1 0 0 0 0-1-1-1 0 1 0 1 0 1s-1 0-1-1v1c0 0-1 0-2 0 0 1 1 1 1 2l-1-1c0-1 0 0 0-1 0 0 0 0 1 0 0 0 0 0 0-1 1 0 1 0 1 0 0-1 0 0 1 0l-1-1v1c0 0 0 0 0 0s0 0-1 0c0 0 0 0 0 0 0-1 0 0 0-1h1c0 0 0 0 0 0s0 0-1-1c0 0 0 0 0 0 0 1 0 1 0 2h-1c0 0 1 0 0-1l-1 1c0-1 1-1 1-2 0 0 0 1 0 1 0 0 0-1 0-1 0 0 0 0 0 0l-1 1c0 0 0 0 0 0s0 0 0 1c0-1 0-1-1-1-1 0-1 0-2 1 0 0 0 0 0 0 0 1 1 1 0 3 0 1 0 1 0 1-1 1-2 0-2-1-1-2-3-3-4-1-1 1 0 1 1 2-1-1-1-2-2-2 0 0-2 0-2 0-1 1-1 2 0 2 0 0 0 1 0 1h1c-1 0-3 0-4 0-1 1-1 1-1 1l1 1c0 0-1 0-1 0 0 1-1 1 0 2 0 0 2 0 2 0 3 0 4 0 7 0 1 0 1 0 2 1 0 0 0 1 1 1 0 1 0 1 1 1 0 0 1 0 2 0 1 1 1 1 2 1 1 1 2 1 3 1v1c0 1 1 1 1 1 2 0 3 0 2-2 1 0 1 1 2 1-1 0-1-1-2-1 1 0 2 0 2 0 0 0 0 0 0 0h-1c0 0 1 0 0 0l1 1c0 0 1 0 0 1v-1c1 1 0 1 1 1 0 0 0 0 1 0 0 0 0 0 1 1zm-3-3c1 0 1 0 1 1 0 1 0 1 0 1v-1c0 0-1 0-1-1zm1 1v-1c0 0 0 0 0 0 0 1 0 1 0 1zm0-1c0 0 0 0 0-1 0 0 0 0 0 0 0-1 1 0 1 0 0-1 0 0 0-1 1 0 0 0 1 0 0 1 1 1 0 2-1 0-1 1-2 1v-1c0 0 0 0 0 0 0-1 0 0 0-1 0 1 0 1 0 1zm0 0c0-1 0-1 0-1v1zm-1-1c0 0 0 0 1 0-1 0-1 1-1 0zm0 0v-1c0 0 0 0 0-1v1c0-1 0-1 0-1s0 0 1-1v1c0-1 0-1 0-1s0-1-1-1c0 0-1 0-1-1 1 0 2 1 3 0h-1c0 1-1 0-1 1 0 0 0 0 1 1 0 0 1 1 0 1 0 0 1 0 0 0-1 0-1 0-1 0s0 0 1 1c0 0 0 0 0 0-1 0 0 0-1-1 1 1 1 1 1 2-1 0-1 0-1 0zm1 0c0-1 0-1 0-1l1-1c0 0 0 0 0 0 1 0 1 2 2 1v-1c0 0 0 0 0 0 1 1 1 2 0 2-1-1-2-2-2-1 0 0 0 0-1 1zm1-7c1 0 2 2 1 3 0-1-1-2-1-2 0 0 0-1 0-1zm-1 0zm-3 2c-1 0-1 0-2 1 0-1 0-1 0-1 0-1 2 0 2-2h-2c1-1 1-1 2 0 1 0 2 0 2 0 0 1-1 1-2 2zm0-4c0 0 0 0 0-1 0 0 0 0 1 0 0 0 0 1 1 1 1 0 1 0 1-1 0 1 1 1 1 2 0 0-1 1-2 1 0-1 0-2-1-2 1 1 0 1 1 1 0 0 0 0 0 1-2-1-1-1-2-1h1c0-1 0 0-1-1l1 0h-1c0 0 0 1-1 1 0-1 0-1 1-1zm0 0c0 0 0 0 0 0zm-5 1c0 0-1 0-2 0 0 1 1 1 2 2 0 2 0 1 0 2 1 0 1 0 1-1 1 1 1 2 2 2 0 0 1 0 1-1 1 1 1 3 0 3-1 0-1-1-1-1-1-1-1-2-2-2-1 1 0 2-2 2 2-3 0-3 1-4 0 0-1 0-1 0-1-1 0-1-2-2 1-1 3 1 3-1 0 0 0 1 0 1zm3-1c0-1 0-1 0-1 1 0 1 1 1 1 0 0 0 1 0 1-1-1 0 0-1-1zm-3-1c0-1 0-2 1-2 1 1 2 4 1 5 0-1 0-3-1-3 0 0-1 0-1 0zm10-1c-1 1-1 1-1 1s0 0 0-1h1zm-14 4c0 1 0 0-1 1v1c0 1 1 1 1 1 0 1 1 1 1 1 0 0 1 0 1 0 1 1 1 1 2 1 1 0 0 1 1 2-1 0-1 0-2 0-1-1-4-2-5-2-1-1 0-1-2-2-1 0-2 0-3 0-1 0-6 0-7 0 0-1 0-2 0-2 1 0 2 0 2 0 0-1 0 0-1-1 0 0 0 0-1 0 1-1 5 0 6 0 0-1-3-2-3-3 1 0 3-1 3-1 0 0 1 1 1 2 1 0 1 0 1 0 0-1 0-1-1-1 0-1 2-3 3 0 1 0 1 2 2 2 1 0 1-1 2 1zm1-6c0 1 0 1 0 1s0 0 0 1c0 0 0-1 1-1 0 0 1 0 1 1 0 0 0 0-1 0v-1c-1 1-1 1-1 1h-1c0 0 0 0 1-1 0 0 0 0 0-1zm12 2c0-1-1-1-2-1 1-1 1 0 2 0 0 0 1 0 1 0 0 1-2 1-3 2 0 0 0 0 0-1 0 0 1 0 2 0zm-1-2c0 0 0 0 1 1l-1-1zm-10 0c-1 0-1 0-2 0 0 0 0 0 0-1 0 0 2 0 2 1zm2-1c1 0 1 0 1 0h-1z"/><path d="m139 536v-1h1c0 0 1 0 1 0h1 4v4c-1 0-4 0-4 0h-1-2c0 0 0 0 0 0v-1c0 0 0-1 0-2zm7 3v-3c0-1 4 0 4 0 4 0 4 0 3 1 0 2 1 1-3 2-1 0-3 0-4 0zm-1-9h3v3h-3v-3zm-3 0h3v3c-1 0-2 0-3 0v-3zm-7 2v1h1c1 0 2 0 2 1h1c0 0 0 0 0 0 0-1 0 0 0-1l1 1h1 1 6c0 0 0 0 0-1v-3c1 0 5 1 6 1 0 0 0 0 0 0v4c-1 0-5 0-6 0-2 0-4 0-6 0h-1c0 0 0 0 0 0h-1-1c0 0 0 0 0 0 0 1 0 1 0 1v1c0 1 0 1 0 1v1c-1 0-1 0-1 0-1 0-1 0-1 0h-1c0 0 0 0-1 0 0 0-1 0-1 0h-1c-1 0 0 0-1 0 0 0 0 0-1 0 0 0 0 0-1 0h-1c0 0 0 0 0 0v-1c0 0 0-1 0-1v-1c0 0 0-1 0-1v-1c0-1 0-1 0-2v-1c0 0 0-1 0-1v-1c0 0 0 0 1 0 0 0 1 0 2 0 0 0 0 0 1 0h1 1v1c0 0 0 1 0 1v1zm1-2h1c0 0 1 0 1 0h1c0 0 1 0 1 0h1c0 0 0 0 1 0 0 0 0 0 0 0v2c0 0 0 1 0 1-1 0-2 0-2 0-1 0 0 0-1 0h-1-1c0 0 0 0-1 0-1 0 0 0 0 0 0 0 0-1 0-1 0 0 0-1 0-1 0-1 0-1 0-1zm-6-1c0 0 0 0 0 0h-1v1 2c0 1 0 1-1 1 1 1 1 0 1 1 0 0 0 0-1 0 1 1 0 3 0 3v1 1 1c1 0 10-1 11 0 0 0 0 0 1 0l8-1c1 0 5 0 6 0v-8c-2-1-4-1-6-1-2 0-4-1-6-1-1 0-1 0-1 0-1 0-1 0-1 0h-3c-1 0-1 0-1 0h-1c0 0 0 0 0 0h-1c-1 0-1 0-1 0h-1c-1 0-2 0-2 0v-1c0 0 0 0 0 1z"/><path d="m127 538h1v1h-1v-1zm-1 0h1v1h-1v-1zm-1 0h1v1h-1v-1zm-1 0h1v1h-1v-1zm3 0c0 0 0 0 0 0v-1h1v1h-1zm-1-1h1v1h-1v-1zm-1 0h1v1h-1v-1zm-1 0h1v1h-1v-1zm4-1v1-1zm-1 0h1v1h-1v-1zm-1 1c0-1 0-1 0-1h1v1h-1zm-1-1h1v1h-1v-1zm-1 0h1v1h-1v-1zm4 0c0 0 0-1 0-1v1zm-1-1h1v1h-1v-1zm-1-1l1 1v1h-1v-2zm-2 0h1v2l-1-1v-1zm1 1h1v1h-1v-1zm0-2h1c0 1 0 1 0 1h-1v-1zm-1 0h1v1h-1v-1zm2 0h1v1h-1v-1zm1 0c1 0 1 1 1 1h-1v-1zm1-1h1l-1 1v-1zm-4 0h1v1h-1v-1zm2 0h2v1h-1c0-1 0 0 0-1v1h-1v-1zm-1 0h1v1h-1v-1zm3-1h1v1h-1v-1zm-2 0c1 0 1 0 1 1h-1v-1zm-1 0h1v1h-1v-1zm-1 0h1v1h-1v-1zm3 0h1v1h-1v-1zm0 0c0-1 0-1 0-1h1v1h-1zm-1-1h1v1h-1v-1zm-1 0h1v1h-1v-1zm-1-1l1 1v1h-1v-2zm3-1h1v2l-1-1v-1zm-1 0h1c0 1 0 2-1 1v-1zm-1 0h1v1h-1v-1zm-1 0h1v1h-1v-1zm18 1c-1 0 0 0-1 0v-1h1v1c0 0 0 0 0 0zm-2 0c0 0 0-1 0-1h1v1h-1zm-1-1h1v1c0 0 0 0-1 0v-1zm-1 0h1c0 0 0 0 0 1h-1v-1zm0 0v1h-1l1-1zm-2 0v1c0 0 0 0 0 0v-1zm-1 0v1-1zm-2-1h1v2h-1v-2zm4 1v1-1zm-8-1h1v1h-1v-1zm-1 0h1c0 0 0 0 0 0v1h-1v-1zm6 1h1v1h-1v-1zm-8-1h1c0 1 0 1 0 1h-1v-1zm-1 0h1v1h-1v-1zm-1 0h1v1c0 0 0 0-1 0v-1zm17 0h1v1h-1v-1zm-1 1c0-2 0-1 1-1v1h-1zm-1-1h1v1h-1v-1zm-1-1c0 1 0 1 0 2v-2zm-1 0v1-1zm-1 0h1l-1 1v-1zm-4 0h1c0 1 0 1 0 1h-1v-1zm-1 0h1v1h-1v-1zm-1 0h1v1h-1v-1zm9 0v1 1h-1l1-2zm-10 0h1c0 0 0 1 0 1 0 0 0 0-1 0v-1zm-1 0h1v1h-1v-1zm-1 2c0 0 0-1 0-1 0 0 0-1 0-1h1c0 1 0 1 0 1v1h-1zm8-2h1v1h-1v-1zm-10 0c0 0 0 0 1 0v1h-1v-1zm-1 0h1v1h-1v-1zm9 0c1 0 0 0 2 0v1h-1c0 0 0 0 0 0h-1v-1zm8-1h1v1l-1 1v-2zm-1 0h1v1h-1v-1zm-4 0h1l-1 1v-1zm-1 0h1l-1 1v-1zm4 0h1v1h-1v-1zm-6 0h1v1h-1v-1zm-1 0h1v1h-1v-1zm5 0v1c0 0 0 0 0 0v-1zm-8 0h1v1h-1v-1zm-2 0h1v1c0 0 0 0-1 0v-1zm0 1c0 0 0 0 0 0 0 1 0 0 0 1h-1c0-1 0-1 1-1-1 0-1 0-1-1h1v1zm4-1h1v1h-1v-1zm-3 0h1v1h-1v-1zm-3 0c2 0 1 0 1 1h-1v-1zm-1 0h1v1h-1v-1zm4 15v-1c0 0 0 0 0-1 0 1 0 0 0 1v-1c0 0 0 0 0 0v-1c0 0 1-2 0-3v-1 1c1 0 1 0 1 0 0-1 0 0-1-1 1 0 1 0 1-1v-2c0 0 0 1 0 1-1 0 0 0-1 0v-1h1-1v-2l1 1c0 0 0-1 0 0l1 0c0 0-1 0-1 0 0-1 1 0 1 0 0-1 0-1 0-1v-1h1v1c-1 1-1 0-1 0v1c0 0 1 0 2 0 0-1 0-1 0-1l-1 1v-1-1h1v1-1h1v2h-1c0 0 0 0 1 0 0 0 0 0 1 0 0 0 1 0 1 0h1c0 0 0 0 0 0s0 0 1 0h3c0 0 0 0 1 0 0 0 0 0 1 0 0-1 0-3 0-4 0 0-1 0-2 0-2 0-1 0-2 0h1v1c0 0 0 0 0 0-1 0-1 0-1 0 0-1 0-1 0-1h-4 1v1h-1v-1c0 0 0 0 0 0h-4c0 0 1 0 1 0v1h-1l0-1-6-1v15l4 1z"/><path d="m131 538l1 1h-1v-1zm0 0v1-1zm4 1c0 0 0 0 1 0h-1zm-1 0c1 0 1 0 1 0-1 0-1 0-1 0zm3-1h1v1h-1v-1zm-1 0l1-1v2h-1c0-1 0-1 0-1zm-1-1h1v2h-1v-2zm-1 0h1v2h-1v-2zm-2 0h1v1h-1c0 0 0 0 0-1zm0 0v1h-1l1-1zm-1 0v1-1zm-1 0v1-1zm-1 0v1-1zm8-1h1v1h-1v-1zm-1 1c0 0 0 0 0-1h1v1h-1zm-1-1h1v1h-1v-1zm-2 0h1v1h-1v-1zm0 0c0 0 0 0 0 0v1h-1l1-1zm-1 0v1-1zm-2 1c0 0 0-1 0-1 0 0 1 0 1 0v1c0 0 0 0-1 0zm3-2h1v1c-1 0-1-1-1-1zm4 1v-1c1 0 1 0 1 0s0 0 1 0v1c-1 0-1 0-1 0s0 0-1 0zm0 0h-1v-1h1v1zm-4-1v1h-1l1-1zm-1 0v1-1zm-2 0h1l-1 1c0-1 0-1 0-1zm-1 0h1c0 0 0 0-1 1v-1zm6 2h-1v-1c1 0 0 0 1 0h-1c0 0 0-1 0-1 1 0 1 0 1 0s0 0 1 0v1h-1c0 1 0 1 0 1zm-4-1v-1 1zm6-2h1v1h-1c0-1 0-1 0-1zm-1 0h1v1h-1v-1zm-2 0h1v1h-1v-1zm0 0c0 0 0 0 0 0v1h-1l1-1zm6 1v-1h1v1h-1zm-8-1v1-1zm-1 0v1-1zm7 1c0 0 0-1 0-1h1c0 1 0 1-1 1zm-2 0h-1v-1c1 0 1 0 1 0v1zm-3 0c0-1 0-1 0-1v1zm-2 0h-1v-2l1 1v1zm4-3c0 1 0 1 0 2h-1l1-2zm-2 1v-1 1zm-1-1h1l-1 1v-1zm-2 0h1v1h-1v-1zm-1 0h1v1h-1c0 0 0 0 0 0v-1zm5 2v-1-1 2zm-3-1v-1h1l-1 1zm3-1c-1 0 0 0 0-1v1zm-2-1l1 1h-1v-1zm-1 0h1v1h-1v-1zm2 0v1-1zm-3 0h1v1h-1v-1zm5-1v1-1zm-1 0v1-1zm-1 0l1 1h-1v-1zm-2 0h1v1h-1v-1zm-1 0h1v1h-1v-1zm-1 0h1v1h-1v-1zm3-1h1c0 1 0 0 0 1v1h-1c0-1 0-1 0-1s0 0 0-1zm0 0v1c-1 0-1 0-1-1 0 0 0 0 1 0zm-2 1c0 0 0 0 0-1 0 0 0 0 1 0 0 1 0 1-1 1zm-1 0c0 0 0 1 0 1h1c0 0 0 0 0 0 0 1 0 1 0 1h-1c0 1 0 1 0 2l1-1c0 1 0 1 0 1l-1 1c0 0 0 1 0 1l1 1h-1c0 0 0 1 0 1v1c0 0 0 0 0 0h1v-1 1c1 0 1 0 1 0 1 0 1 0 1 0 1 0 0 0 1 0h-1 1l1-1h-1v-1h1v2c0 0 0 0 0 0h1c1 0 1 0 1 0h1c0 0 0 0 1 0 0 0 0 0 1 0h-1v-1h1c0 0 0 0 0-1h-1v-1h1c0 0 0 0 0-1v-1h1v1c0 0 1 0 1 0v-1h1v1-1h-1-1l-1-1c0 1 0 0 0 1h-1c0-1-1-1-2-1h-1v-1c0-1-1-1 0-1l0-1v-1h-1v1-1 1h-1v-1c-1 0-1 0-1 0-1 0-2 0-2 0-1 0-1 0-1 0 1 0 1 0 1 0 0 1 0 1-1 1z"/><path d="m146 467c0 0-2-1-2-1-3-1-5 0-7 1-1 0-2 1-2 2 0 1 0 1 0 1l5-1c0-1 1-1 1-1 2-1 3 0 5-1z"/><path d="m105 485l2 2c1 0 1 0 2 0 3 2 3 1 5 1 1 0 1-1 2-1 0 0-1 2-2 2-1 1-2 1-4 1-2-1-3-2-4-3-1-1-1-1-1-2zm2 1c0 0 0 0 0 0-1-1 0 0-1-1 0 0 1 0 2 1 1 0 2 0 2 0 3 0 4 0 6 0-1 1-1 0-1 1-1 0-1 0-1 0h-1c0 1 0 0-1 1 0 0 0 0-1 0-2 0-1-1-2-1-1 0 0 0-1 0-1 0 0 0-1-1zm9-1c-1 1-4 1-6 1-2 0-3-1-4-2 1 0 2 0 3 1 2 0 1 0 2 0 1 0 0 0 3 0 0 0 1 0 2 0zm2 0c-2 0-2 0-4 0 0 0-1 0-2 0 0 0 0 0-1 0-1 0-1 0-1-1-2 0-3 0-4 0-1 0-1 0-2 0 0 1 2 3 2 4 1 1 2 2 4 2 3 0 4 0 5-1 1-1 1-2 1-2 1-1 2-1 2-2z"/><path d="m106 459zm-3-1c0-1 2-2 2-2-1 0 0 0-1 0h1c0-1 0 0 0-1-1 0-1 1-1 1 0 0 0 0-1 0 0 1-1 2-2 3 1 0 1 0 1 1 0 0 0 0-1 1l-1 3c0-1 0-1 1-1 0-1 0-1 0-1l-1 2c1 0 2-3 3-4 0-1 0-1 1-1 0 0-1 1-1 2 1-1 1-2 2-2 0 1-1 1-1 2 1-1 1-1 1-2 1 0 1 0 2-1-1 0-1 1-1 1s0-1 1-2l-2 2c0 0 0-1 0-1 0 0 0 0 0 1v-1l2-3c-1 1-2 3-2 3 0-1 1-2 2-3 0 0-3 3-4 3z"/><path d="m141 470c0 0 0 0 0 0zm1 0c1 0 1 0 1 0 0 1 0 1 0 1s0 0-1 0v-1zm-2 1c0 0-1 0-1 0-1 0-1 0-1 0s1-1 2-1c0 1 0 1 0 1zm-2-1c0 1 0 1 0 1s0 0-1 1c2 0 1-1 2 0 1 0 1-1 2 0 1 0 1 0 1-1 0 0 1 0 1 0h1c0-1 0-1 0-1 0-1 0 0 0 0v-1c-1 0-1 0-1 1v-1c-1 0 0 0-3 0-1 0-1 1-2 1z"/><path d="m115 475c1-1 1-1 2-1 0 0 0 0 0 1h-2zm4-1c0 0 0 0 0-1 1 1 1 1 1 1s0 0-1 0zm-1 0c0 0 0 0 0 0zm-3 0c1 0 2-1 2-1-1 0-1 0-2 2 1 0 1 0 2 0 0 0 1 0 1 0 1 0 3 0 3-1-1 0 0 0 0-1-1 0-1 0-2 0 2 0 2 1 3 0-1 0-3-1-4-1-1 0-1 0-2 1 0 0-1 1-1 1z"/><path d="m107 472c0 1 1 1 2 2h-3c0-1 1-1 1-2zm-4 1c0 0 1-1 1-1 0 1 0 1 1 1-1 0-1 0-2 0zm3 0c-1 0-1 0 0-1 0 1 0 1 0 1zm-3-1c1 0 1 0 1 0l-1 1c0 0 0 0 0 0h-1c3 1 3 1 5 1 1 0 1 0 2 0 0 0-1-1-1-1 0-1-1-1-1-1s1 1 2 1l-1-1c-1-1-1-1-2-1-1 0-2 0-3 1z"/><path d="m121 506c-1-1-2-2-2-3 0 0 0 0-1-1 0 0 0 1 0 1-1 0-1-1-2-1v1c0 0 0-1 0-1 1 0 1 1 1 1 1 1 1 0 1-1 1 1 0 1 1 1 0 1 0 1 0 1h-1c0 0 0 1 0 1 0 0 0 0 1 0 0 0 1 1 1 1-3 1-7 4-8 4 0-1 0-1-1-2 0-1 0-2-1-2 0 1 1 3 1 4l-1-1c-1-1-1-1-2-2 1 1 2 3 3 4 0 0 1-1 2-2 1 0 2-1 2-1 2-1 4-2 6-2 0 0 0 0 0 0 0-1-1-2-1-3-1-1 0-1 1-3 0 0 0 0 1 0 0 0 0 0-1 0 0 1-2 1-1 3 0 1 1 1 1 3zm-13 1c0 0 0 0-1-1 1 0 1 0 2-1 0 0 0-1 0-2 0 1 0 1 1 1-1 0-1 0-1-1v2c0 1-1 1-2 1 0 0 1 0 1 1 0 0 0 0 0 0z"/><path d="m100 471c1-1 1-1 2-1 1-1 2 0 3 0 2 0 3 1 4 1 1 0 1 0 1 0-1-1-4-2-5-2-2 0-3 0-4 1 0 0 0 0 0 0-1 0-1 0-1 1z"/><path d="m105 541v-1l1 1v1l-1-1zm10 0c0 1 0 1 0 1-1 1-1 1-2 1-1 0-1 0-2-1-2 0-3 0-5 0v-2c0 0-1 0-1 0s2 0 3 0l7 1zm0 0c0 0 0 0 0 0h-2c-1 0-2 0-3 0-1-1-3-1-5-2 1 0 1 0 3 0 1 1 7 2 7 2zm1-1c-1 1-1 1-3 0-2 0-5 0-7-1v-1l5 1c1 1 3 1 5 1zm-8 2c1 1 3 1 5 1 1 0 1 0 1 0l1-1c0 0 0 0 0 0v-1c0 0 0 0 0 0l1-1c0 0 0 0 0 0h-3c-1 0-1-1-1-1h-4c0-1-1-1-2-1l-2 3 4 1z"/><path d="m108 507c0 1-3 1-3-1v-1c0-1 0 0 0-1v2c0 0-1 0-1 0l-2 1c0 0 0 0 0 0-1 0-1 0-2 0 0-1 0-1 0-1-1 0-1 0-1 0v-1h1c-1 0-1 0-1 0v1c0 0 0 0 0 0v-1c0 0 0 0 1 0h-1c1 0 0-1 0-2 0 0 0-1 0-1 1 0 0 0 1 1 0 0 0 0 1 1 0-1 0-1 0-2 1 0 1 1 1 1 1 0 2-1 3-1 0 0 0 1 0 1 1 0 1 0 1-1v1c-1 1-1 0-1 1l1-1c1-1 1-1 0-1 0 0 0 1-1 1 0 0 0-1 0-1-1 0-1 0-2 0v1c-1 0 0 0-1 0 0 0 0-1-1-1 0 1 0 1 0 2-1-1-1-1-1-2-1 0-1-1-1-1 0-1 2-2 3-1 0 0-1 0-2 0 0 0 0 1-1 1 1 0 1-1 2-1 0 0 0 0 1 0 0-1-2-1-3 1 0 0 0 0 0 1v2c0 1 0 1 0 1 0 1 2 2 2 2 0 1 0 1 0 1h-1c1 0 1-1 2-1 0 0 0 0 1 0 1 0 1 0 1-1 1 0 1 0 1 1 0 0-4 1-4 2 0 0 2-1 2-1 1 0 2-1 2-1l1 1c2 0 2 2 3 2 0-1-1-1-1-1 0 0-1-1-1-1 1 0 1 0 1-1 0 0 0 0 0 0z"/><path d="m141 533c0 0 0 0 1 0 0 0 0 0-1 0zm-1 0c0 0 1 0 1 0 0 0 0 0 0 0-1 0-1 0-1 0zm-2 0h1c0 0 0 0 0 0-1 0-1 0-1 0zm-2 0h1c0 0 0 0 0 0-1 0-1 0-1 0zm4-1h1v1h-1v-1zm-1-1h1v1c0 0 0 0 0 1h-1v-2zm-1 0h1v2h-1v-2zm-1 0h1v1h-1v-1zm-1 1v-1h1v1h-1zm0-1v1c0 0 0 0 0-1zm5-1h1v1h-1v-1zm-1 0h1v1h-1v-1zm-1 0h1v1h-1v-1zm-1 0h1v1h-1v-1zm-1 0h1v1h-1v-1zm0 0v1h-1l1-1zm3 0c-1 0-1 0-1 0s0 0 1 0zm-4 0c0 0 0 0 0 0s0 0 0 1v-1 1c0 0 0 1 0 1 0 0 0 1 0 1 1 0 1 0 1 0h1c0 0 1 0 1 0 1 0 0 0 1 0h-1 1c0 0 1 0 2 0 0 0 0-1 0-1v1h-1v-1h1v-2c0 0 0 0 0 0-1 0-1 0-1 0h1-1-1c0 0-1 0-1 0 0 0 0 0-1 0-1 0-1 0-1 0h1c0 0-1 0-1 0 0 0 0 0 0 0s0 0-1 0c0 0 0 0 0 0z"/><path d="m132 486c0-1 0-1 1-2 1 0 2 1 3 0 0 0 0-1 1-1 2 0 3 1 4 1 0 2-2 3-4 4-2 0-4 1-5-1v-1zm-1 0c0 0 0 0 0 0 1 1 1 1 1 1 0 1 1 1 1 1 2 1 6 0 7-1 1-1 2-3 2-3-1 0-1 0-1 0-1 0-2-1-4-1-1 0-1 1-2 1 0 0-2-1-3 1-1 1-1 1-1 1z"/><path d="m115 471v1c2 0 5-2 6-1 1 0 2 0 2 1 0-2-2-2-4-2-1 0-3 1-4 1z"/><path d="m109 480c0 0 0 1 0 1 0 1-1 1-1 0 0-1 1-1 0-2 0 0-1 3 0 3 1 0 1-1 2 0 1 0 0 1 1 1 1 0 1 0 2-1 0 0 1 0 1 0 1 0 1 0 1-1 0 0 0-1 0-1 0 0 0-1 0-1s1 3-1 3c0-1 0-1 0-2 0 0 0-1 0-1-1-1 0 0 0 1 0 1 0 2-1 2-1 0 0 0-1 0-1 2-1 0-2 0 0 0 0 0 0-1-1 0-1-1-1-1z"/><path d="m131 472c0 0 1 0 1 1 0 2-2 6 0 8-1-1-1-1-2 0-1-2 0-2 1-3-1 1-2 2-1 3 0 0 1 1 2 0 0 0 0 0 0 0-1 0-1 0-1 0h1c0 0 1 0 1 0 1 1 1 1 1 0h-1c0 0 0 0 0 0-1 0-1 0-1-1-1-1-1-2 0-3 0 0 1-5-1-5z"/><path d="m132 486c0 0 0 0 1 0 0 0 1 0 1 0 1 0 1 0 2 0 1-1 4-1 4-2h-1c0 1-1 0-1 1-1 0-1 0-2 0-1 0-2 0-4 1z"/><path d="m154 471c0 0 0 0 0 0zm0 2c0 0 1 0 1 1 0 1-1 1 0 2 0 0 1-2-1-3 0-1 0-1 0-1 1 0 1-1 2-1 1 0 1 1 1 2 0-1 0-2-1-2 0 0-1 0-2 0 0 0 2-6 4-1v1c0-1-1-4-3-3 0 1-1 3-1 5z"/><path d="m115 504c1-1 1-1 1-1s0 0-1 0c0 0-1-2 0-3 1 0 2 0 3 1 0-1-1-2-3-1-1 0-3 2-3 3 1 0 1 0 1 0 0 1 1 1 1 1 0 0 0 0 1-1 0 1 0 1 0 2 1 0 1 0 2 1-1 1-1 0-1 1-1 0-1 0-1 0 0-1 0-1-1-1 0 1 1 1 1 2h-1c-1 1-1-2-2-5-1 0-1 0-2 1 1 0 1-1 2-1 1 1 1 4 1 5 1 1 1 0 2 0 0-1-1-1-1-2 1 0 1 1 1 1 1 0 0 0 1 0 0-1 0-1 1-1 0-1-1-1-1-1-1 0-1 0-1-1v-1c0 0 0 0 0 0-1 1-1 1-1 1s0-1-1-1h-1l3-3c1 0 2-1 3 0-1 0-2-1-3 1 0 0 0 0 0 1 0 1 0 1 0 2z"/><path d="m140 538h1v1h-1v-1zm1-1h1v1h-1v-1zm-1-1h1v2h-1v-2zm-1 0h1v2h-1v-2zm1-1h1v1h-1v-1zm-1 1c0 1 0 2 0 2 0 0 0 0 1 0v1h-1c0 0 0 0 0 0h2v-1h1v1-4 1h-1v-1c0 0-1 0-1 0v1h-1z"/><path d="m137 480c4-1 1-4 0-3 0 0 2 0 2 1 0 1-1 2-2 2 1 0 1 0 1-1-1 0-2 1-3 1 0 1 2 0 2 0z"/><path d="m113 478c0 0 0-1 0-1 0-1 0-2 1-3 0 0 0 0 0-1 0 1-1 1-1 2 0 1 0 2 0 3z"/><path d="m110 472c0 1 1 1 1 2 0 0 0 1 0 1 1 0-1-3-1-3z"/><path d="m152 533c-1 0-1-1 0-1 0 0 1 0 1 0 0 0 0 1-1 1zm0-2c-1 1-1 2 0 2 2 0 1-2 0-2z"/><path d="m82 566v-1c-1 0-1 0-1 1 0 0 1 0 1 0z"/><path d="m85 566c0 0 0 0 0 0zm1 0v-1c-2 0-2 2 0 1z"/><path d="m83 569c0 0 1 0 1 0 0 0 0-1 0-1 0 0 0 0-1 1z"/><path d="m104 484c0 0 0-1 0-1 0 0-1 1 0 1z"/><path d="m84 570v-1c0 0 0 0 0 0s0 0 0 1z"/><path d="m99 505c0 0 0 1 0 1v-1c0 0 0 0 1 0h-1z"/><path d="m85 566c0 0 1 0 0 0z"/></g><g fill-rule="nonzero"><path d="m66 401c0 0 0 0 0-1 0 0 0 0 1-1 0 0 0 0 0-1 0 0 1-1 1-1 0 0 0-1 0-1 0 0 1 0 1 0 0 1 0 1 0 1 0 1 0 1 0 1 0 1 0 1 0 1s0 1-1 1c0 0 0 1 0 1 0 1-1 1-1 1 0 0-1 0-1 0 0 0 0-1 0-1zm7-4c0 0 0 1 0 1 0 0 0 1 0 1 0 0-1 1-1 1 0 1 0 1-1 2 0 0-1 0-1 0 0 0 0-1 0-1 1 0 1 0 1-1 0 0 0 0 0-1 0 0 0 0 0-1 0-1 0-1 1-1 1-1 1 0 1 0zm5 1c0 0 0 0 0 0 0-1 0 0 1 0 1 0 1 0 1 1 0 0 0 0 1 0 0 1 0 1 0 1l-1 1c0 0-1 1-1 2 0 0-1 1-1 1-1 1-1 2-1 2-1 1-1 2-1 2-1 1-1 1-1 1 0 1 0 1 0 1h-1c0-1 0-1 0-1 0-1 0-2 0-2 0-1 1-2 1-3 0 0 0-1 1-2 0-1 0-1 1-2 0 0 0-1 0-1 0-1 1-1 1-1zm-2 2c0 1 0 1 0 1s0 0-1 0c0 0 0 1 0 1 0 0-1 0-1 0 0 0-1 0-1 0 0-1 0-1 0-1 0-1 0-1 1-2 0 0 0-1 1-1 0-1 1-1 1-1 1-1 2-1 3-2 0 0 1 0 3 0 1 0 2 0 2 0 1 1 2 1 2 2 0 0 0 1 0 1 0 1 0 2 0 2 0 1-1 2-1 2-1 1-1 2-2 2 0 1-1 1-2 1-1 1-1 1-2 1 0 0-1 0-1 0 0-1 0-1 0-1 1 0 1 0 1 0s1 0 1-1c1 0 1 0 1-1 1 0 1-1 1-1 0-1 1-1 1-2 0 0 0-1 0-1 0-1 0-1 0-2 0 0 0 0-1-1 0 0 0 0-1 0-1 0-2 0-3 0 0 1-1 1-1 2-1 0-1 1-1 1 0 1 0 1 0 1zm13 1c0 0 1 0 1 0 1 0 1 0 2 0 0 0 0 0 1 1 0 0 0 0 0 1 0 0 0 1 0 1 0 1 0 1 0 2-1 0-1 1-1 1 0 0 1 0 1 0 0-1 0-1 0-1 1 0 1-1 1-1 0 0 1 0 1 0 0 1 0 1 0 1-1 0-1 1-1 1 0 0 0 0-1 1 0 0 0 0-1 0 0 0-1 0-1 0-1 1-2 1-2 2-1 0-2 0-3 0 0 0-1 0-1-1 0 0 0 0-1-1 0 0 0-1 1-2 0 0 0-1 0-2 1 0 1-1 2-2 0 0 1-1 1-1 1 0 1 0 1 0zm0 6c0-1 1-1 1-2 0 0 0-1 0-1 0-1 0-1 0-2 0 0 0 0-1 0 0 0-1 1-1 1 0 0 0 1 0 1 0 0 0 1 0 1 0 0 0 1 0 1 1 0 1 1 1 1zm-2-3c0 0-1 1-1 1 0 1 0 2 0 2 0 1 0 1 0 1 0 1 0 1 1 1 0 0 0 0 1-1 0 0 0 0 1 0-1-1-2-1-2-2 0-1 0-1 0-2zm12 0c0 1 0 1 0 1s0 1-1 1c0 0 0 1 0 1 0 0-1 1-1 1 0 1 0 1 0 1 1 0 1 0 1-1 1 0 1 0 1 0 0-1 0-1 1-1 0-1 0-1 0-1 0-1 0-1 0-1 1 0 1 0 1 0 0 1 0 1 0 1v1c-1 1-1 1-1 1-1 1-1 1-1 2-1 0-1 0-2 0 0 0-1 0-1 0 0-1 0-1 0-1 0-1 0-1 0-1 0-1 0-1 0-2 0 0 0-1 0-1 0-1 1-1 1-1 0-1 0-1 0-1-1 0-1 0-1-1v1c0 1-1 1-1 1 0 1 0 1 0 1 0 1 0 1 0 1-1 0-1 1-1 1 0 0-1-1-1-1 0 0 0 0 1 0 0 0 0-1 0-1 0 0 0 0 0-1 0 0 0 0 1-1 0 0 0 0 0-1 0-1 0-1 0-1s0 0 1-1c0 0 0 0 1 0 0 0 0 0 0 1 0 0 0 0 0 1 1 0 1 0 1 1 0 0 1 0 1 0 0 0 0 1 0 1zm13-3c0 0 0 0 0 0s0 0 1 0c0 0 1 0 1 0 1 0 1 0 1 1 0 0 1 0 1 1 0 0 0 1 0 1 0 1-1 1-1 2 0 0 0 1-1 1 1 0 1 0 1 0 1-1 1-1 1-1v-1c1 0 1 0 1 0 0 1 0 1 0 1v1c-1 0-1 0-1 1 0 0-1 0-1 0-1 0-1 0-2 0 0 1-1 1-2 2 0 0-1 0-2 0-1 0-1 0-1-1-1 0-1 0-1-1 0 0 0-1 0-2 0 0 1-1 1-2 0 0 1-1 1-2 1 0 1-1 2-1 0 0 1 0 1 0zm0 6c0-1 0-1 0-2 1 0 1-1 1-1 0-1 0-1 0-2 0 0-1 0-1 0 0 0 0 0-1 0 0 0 0 1 0 1 0 0 0 1 0 1 0 0 0 1 0 1 0 0 0 1 0 1 0 0 0 1 1 1zm-3-3c0 0 0 1 0 1-1 1-1 2-1 2 0 1 0 1 0 1 0 1 1 1 1 1 0 0 1 0 1-1 1 0 1 0 1 0-1-1-1-1-1-2 0-1-1-1-1-2zm8-3c1 0 1 0 1 0 1 0 1 0 1 0 1 0 1 1 1 1 0 0 0 0 0 1-1 1-1 1-1 1 0 1-1 1-1 2 0 0 0 0-1 1l1-1c1-1 1-1 1-1 0-1 1-1 1-2 0 0 1 0 1-1 0 0 1 0 1 0 0-1 0-1 0-1 1 0 1 0 1 0h1c0 0 0 1 1 1 0 0 0 0 0 1 0 0-1 0-1 1 0 0 0 0 0 1-1 0-1 1-1 1-1 1-1 1-1 1 0 1 0 1 0 1 0 1 0 1 0 1s0 0 1-1c0 0 0 0 1 0 0-1 0-1 0-1 1-1 1-1 1-1 0-1 0-1 0-1h1c0 1 0 1 0 1s0 1-1 1c0 1 0 1-1 1 0 1-1 1-1 2-1 0-1 0-2 0-1-1-1-1-1-1 0-1 0-1 0-2 0 0 1-1 1-1 0-1 0-1 0-2 0 0 1-1 1-1-1 0-1 1-2 1 0 1-1 2-1 2-1 1-1 1-2 2 0 0 0 1 0 1-1 0-1 1-1 1 0 0-1 0-1 0 0 0 0-1 0-1 0 0 0-1 1-2 0-1 0-1 0-2 0-1 1-2 1-2 0-1 0-1 0-2zm19-8c0 0 0 0 0 0h1c0 0 0 0 1 0 0 1 0 1 0 1s0 1 1 1c0 0 0 0 0 1-1 0-1 0-1 1 0 0-1 1-1 1 0 1-1 1-1 2-1 1-1 2-2 2 0 1-1 2-1 3 0 0-1 1-1 2 0 0 0 1 0 1 0 0 0 1 0 1 0 0 1 0 1-1 0 0 0 0 1 0 0-1 0-1 0-1 0-1 0-1 1-1 0-1 0-1 0-1 1 0 1 0 1 0 0 1 0 1 0 1l-1 1c0 1 0 1-1 2 0 0 0 0-1 1 0 0-1 0-1 0-1 0-1 0-2-1 0 0 0-1 0-2 0 1 0 1 0 1-1 1-1 1-1 1l-1 1c0 0-1 0-1 0-1 0-1 0-2-1 0 0 0-1 0-1 0-1 0-1 0-2 0 0 0-1 0-1 1-1 1-2 2-2 0-1 0-1 1-1 1-1 1-1 2-1 1 0 1 0 2 0 0-1 1-2 1-2 1-1 1-2 1-3 1-1 1-1 1-2 1 0 1-1 1-1zm-8 16c0 0 0 0 0 0 0-1 1-1 1-1 0 0 0-1 0-1 1 0 1 0 1-1 0 0 0 0 0-1 1 0 1 0 1-1 0 0 0 0 0-1 0 0 0 0 1-1-1 0-1 0-2 1 0 0-1 0-1 1-1 0-1 1-1 1 0 1-1 1-1 2 0 0 0 1 0 1 0 0 0 1 1 1zm12-3c-1 0-2 0-2 0 0 0-1 0-1 0 0 1 0 1 0 1 0 1 0 1 0 1s0 0 0 1c0 0 0 0 1 0 0 0 1 0 1-1 1 0 1 0 2 0 0-1 0-1 1-1 0-1 0-1 0-1 0-1 0-1 1-1 0 1 0 1 0 1v1c-1 1-1 1-2 1 0 1-1 1-1 2-1 0-1 0-2 0-1 0-2 0-2-1-1 0-1-1-1-1-1-1-1-2 0-3 0 0 0-1 1-2 0-1 1-1 1-2 1 0 2 0 3 0 1 0 1 0 2 0 0 0 0 1 0 1 0 0 0 1 0 1 0 0 0 1 0 1 0 1-1 1-1 1-1 1-1 1-1 1zm-1-1c1 0 1 0 1-1 1 0 1 0 1-1 0 0 0 0 0-1-1 0-1 0-1 0l-1 1c0 0-1 1-1 1 0 1 0 1-1 1h1 1zm18-10c0 1 0 2 0 2 0 1 0 2 0 3-1 1-1 2-2 3-1 0-2 1-3 2 0 1 0 1 0 2 1 0 1 0 1 0s0 0 1 0c0 0 0-1 0-1 0 0 0 0 1 0 0-1 0-1 0-1s1 0 1 1c-1 0-1 1-1 1 0 0 0 0-1 1 0 0 0 0-1 0 0 0-1 0-1 0 0 0-1 0-1 0-1 1-1 2-2 3 0 1-1 2-1 3 0 1 0 1-1 0 0 0 0 0 0-1 0 0 0-1 0-2 1 0 1-1 1-2 1-1 1-2 2-4 0-1 0-2 1-3 0-1 1-2 1-3 1-1 1-2 2-3 0 0 0-1 0-2 1 0 1 0 1-1 0 0 0 0 1 0 0 0 1 1 1 1 0 0 0 1 0 1zm-4 8c1-1 1-1 2-2 0 0 0-1 0-1 1-1 1-1 1-1 0-1 0-1 0-1s0 0 0 1c-1 0-1 0-1 1 0 0 0 1-1 1 0 0 0 1 0 1 0 0-1 1-1 1zm6-2c0 0 0 0 0 0 1 0 1 0 1 0h1c1 0 1 0 1 1 1 0 1 0 1 1 0 0 0 1 0 1 0 1 0 1-1 2 0 0 0 1-1 1 1 0 1 0 2 0 0-1 0-1 0-1s0-1 1-1c0 1 0 1 0 1v1c0 0-1 0-1 1 0 0-1 0-1 0-1 0-1 0-2 0 0 1-1 1-2 2 0 0-1 0-2 0 0 0-1 0-1-1 0 0-1 0-1-1 0 0 0-1 0-2 1 0 1-1 1-2 0 0 1-1 1-2 1 0 1-1 2-1 0 0 1 0 1 0zm0 6c0-1 0-1 1-2 0 0 0-1 0-1 0-1 0-1 0-2 0 0 0 0-1 0-1 0-1 1-1 1 0 0 0 1 0 1 0 0 0 1 0 1 0 0 0 1 0 1 0 0 1 1 1 1zm-2-3c-1 0-1 1-1 1 0 1-1 2-1 2 0 1 0 1 1 1 0 1 0 1 0 1 1 0 1 0 1-1 1 0 1 0 1 0 0-1-1-1-1-2 0-1 0-1 0-2z"/><path d="m169 404c0 1 0 1 0 1l-1 1c0 0 0 1 0 1-1 0-1 1-1 1 0 1 0 1 0 1 1 0 1 0 1-1 0 0 1 0 1 0 0-1 0-1 0-1 1-1 1-1 1-1 0-1 0-1 0-1h1c0 1 0 1 0 1s0 1-1 1c0 1 0 1-1 1 0 1 0 1-1 2 0 0-1 0-1 0 0 0-1 0-1 0 0-1 0-1-1-1 0-1 0-1 0-1 0-1 1-1 1-2 0 0 0-1 0-1 0-1 0-1 0-1 1-1 0-1 0-1 0 0 0 0 0-1v1c-1 1-1 1-1 1 0 1 0 1 0 1 0 1-1 1-1 1 0 0 0 1 0 1 0 0 0 0-1 0 0 0 0-1 0-1 0 0 0-1 1-1 0 0 0 0 0-1 0 0 0 0 0-1 1 0 1 0 1-1 0-1 0-1 0-1s0 0 0-1c1 0 1 0 1 0h1c0 0 0 0 0 1-1 0-1 0-1 0s0 0 1 1c0 0 1 0 1 1 0 0 0 0 1 0 0 0 0 1 0 1zm3 5c0 0 0 0 0 1 0 0 0 0-1 0-1-1-1-1-1-1s0-1 1-1c1 0 1 0 1 0v1zm4 0c0 0 0 0 0 1 0 0 0 0-1 0-1-1-1-1-1-1s0-1 1-1c1 0 1 0 1 0v1zm5 0c0 0-1 0-1 1 0 0 0 0-1 0 0-1-1-1-1-1 0 0 1-1 1-1 1 0 1 0 1 0l1 1z"/></g></g><g fill-rule="nonzero" stroke-width=".476"><path d="m114 268c3-4 5-6 10-6 5 0 9 3 9 8 0 9-9 18-19 26-9-8-19-17-19-26 0-5 5-8 10-8 5 0 7 2 9 6z"/><path d="m153 256c1-2 2-3 5-3 3 0 5 2 5 4 0 5-5 10-10 15-5-5-11-10-11-15 0-2 3-4 6-4 2 0 4 1 5 3z"/><path d="m148 285c0-1 1-2 2-2 2 0 3 2 3 3 0 3-3 5-5 8-3-3-6-5-6-8 0-1 1-3 3-3 1 0 2 1 3 2z"/></g><text x="250" y="354" font-family="&apos;Amazone BT&apos;" stroke-linejoin="round" stroke-linecap="round" stroke-width=".595" font-size="37.798" transform="matrix(1 0 0 1.0045-202.98 18.969)">Texto 01 </text></g></g><g clip-path="url(#1)"><g stroke="#201e1e"><g fill-rule="nonzero"><g fill="#201e1e" stroke-width=".476"><path d="m395 279c-3-5-5-7-10-7-5 0-9 4-9 9 0 9 9 17 19 26 9-9 18-17 18-26 0-5-4-9-9-9-5 0-7 2-9 7z"/><path d="m356 267c-1-3-3-4-5-4-3 0-5 2-5 5 0 5 5 10 10 14 5-4 10-9 10-14 0-3-2-5-5-5-2 0-4 1-5 4z"/><path d="m361 296c0-1-1-2-2-2-2 0-3 1-3 3 0 2 3 5 5 7 3-2 6-5 6-7 0-2-1-3-3-3-1 0-2 1-3 2z"/></g><g fill="#373435" stroke-width=".595"><path d="m315 404c0 0 0 0 0 0-1 1-1 1-1 1s-1 0-1-1c0-1 0-1 0-1h1c0 0 0 0 1 0 0 0 0 0 0 1zm4 0c0 0-1 0-1 0 0 1 0 1 0 1-1 0-1 0-1-1 0-1 0-1 0-1s0 0 1 0c0 0 1 0 1 1zm3 0c0 0 0 0 0 0 0 1 0 1-1 1 0 0 0 0 0-1 0 0-1 0-1 0 0-1 1-1 1-1 1 0 1 0 1 0s0 0 0 1zm9-7c0-1 0-1 0-1 1 0 1 0 1 1 0 0 1 0 1 0 0 1 0 1 0 1s0 1-1 1c0 1 0 1 0 2-1 0-1 1-2 2 0 0 0 1-1 2 1 0 1-1 1-1 1 0 1-1 1-1 1 0 1-1 1-1 0 0 1-1 1-1 0 0 0-1 0-1 0 0 1 0 1 0 0 0 0 0 0 1-1 1-1 2-2 2 0 1-1 1-1 2-1 0-2 1-2 1-1 1-2 1-2 2 0 1 0 1-1 1-1 0-1 0-1 0 0-1 0-1 1-1 0-1 0-1 1-2 0-1 1-2 1-3 0 1-1 1-1 1-1 1-1 1-2 1 0 0-1-1-1-1 0 0-1-1-1-1 0-1 0-1 1-2 0 0 0-1 0-1 1-1 1-1 2-2 0 0 1-1 1-1 1 0 1-1 2-1 1 0 1 0 2 1zm-5 7c0 0 0 0 1 0 0-1 0-1 0-1 1 0 1-1 1-1 0 0 1-1 1-1 0-1 0-1 1-1 0-1 0-1 0-1v-1c0 0-1 0-1 0 0 0-1 1-1 1-1 0-1 1-1 1-1 1-1 1-1 2 0 0 0 1 0 1 0 0 0 1 0 1zm13-7c0 0 0-1 0-1 0 0 1 0 1 1 0 0 1 0 1 0 0 0 0 1 0 1 0 0 0 1 0 1-1 0-1 1-1 1 0 0-1 1-1 1 0 1 0 1 0 1-1 1-1 1-1 1v1c1 0 1-1 1-1 0 0 1 0 1 0 0-1 0-1 0-1 1-1 1-1 1-1v-1c0 0 1 0 1 0 0 0 0 0 0 1 0 0 0 1-1 1 0 1 0 1 0 1-1 1-1 1-2 1 0 1 0 1-1 1 0 0 0 0-1 0 0-1 0-1 0-1s0 0 0-1c0 0 0 0 0-1 0 1 0 1-1 1 0 1 0 1 0 1-1 0-1 1-1 1-1 0-1 0-1 0-1 0-1 0-1-1 0 0 0 0 0-1-1 0 0-1 0-1 0-1 0-1 0-2 0 0 0-1 1-2 0 0 0-1 1-1 0-1 0-1 0-1s0 0 1 0c0 1 0 1 1 1 0 0 0 0 0 1 0 0-1 1-1 1 0 1 0 1-1 1 0 1 0 1 0 2 0 0-1 0-1 1 0 0 0 1 0 1 1 0 1 0 1 0 0-1 0-1 1-1 0 0 0-1 0-1 0 0 1-1 1-1 0 0 0-1 0-1 0 0 1-1 1-1 0 0 0-1 0-1 0-1 0-1 1-1zm6 4c0 0-1 0-1 1 0 0-1-1-1-1 0 1 0 1 0 1 0 1 0 1 0 1s0 0 0 1c0 0 0 0 1 0 0 0 1 0 1-1 1 0 1 0 2 0 0-1 0-1 0-1 1-1 1-1 1-1v-1c0 0 1 0 1 0 0 0 0 0 0 1 0 0 0 1-1 1 0 1 0 1-1 1 0 1-1 1-1 1-1 1-1 1-2 1-1 0-2 0-2-1-1 0-1-1-1-1 0-1 0-2 0-3 0 0 0-1 1-2 0 0 1-1 2-1 0-1 1-1 2-1 1 0 1 0 1 0 1 1 1 1 1 1 0 1 0 1 0 1 0 1 0 1 0 2-1 0-1 0-1 1-1 0-1 0-2 0zm0-1c1 0 1 0 1 0 1-1 1-1 1-1 0-1 0-1 0-1 0-1 0-1-1-1 0 0 0 0 0 1-1 0-1 0-1 0 0 1-1 1-1 1 0 1 0 1-1 2 1 0 1 0 1 0l1-1zm8 0c0 0 0 0 0 0 0 1 0 1 0 1-1 0-1 1-1 1 0 0 0 1 0 1-1 0-1 0-1 0 0 1 0 1 1 1 0 0 0-1 0-1 1 0 1 0 1 0 0-1 0-1 1-1 0-1 0-1 0-1v-1c1 0 1 0 1 0s0 0 0 1c0 0 0 1 0 1-1 1-1 1-1 1-1 1-1 1-1 1-1 1-1 1-2 1 0 0 0 0-1-1 0-1 0-1 0-1 0-1 0-1 0-2 0 0 0-1 1-1 0 0 0-1 0-1 0 0 0-1 0-1 0 0 0 0-1 0 0 0 0 0 0 1 0 0 0 0 0 1-1 0-1 0-1 0 0 1 0 1 0 1v1c-1 0-1 0-1 0s0 0 0-1c0 0 0-1 0-1 0 0 0 0 1-1 0-1 0-1 0-1 0-1 1-1 1-1 0-1 0-1 0-1 0-1 0-1 0-1 1 0 1 0 1 0 0 1 0 1 0 1s0 0 0 1c0 0 0 0 1 0 0 1 0 1 0 1 1 0 1 0 1 0s0 0 0 1c0 0 0 0 0 1zm5-4c0 0 1 0 1 0 1 0 1 0 1 0 1 1 1 1 1 1 1 0 1 1 1 1 0 1 0 1 0 1 0 1 0 1-1 2 0 0 0 1 0 1 0 0 0 0 1 0 0-1 0-1 0-1s0-1 1-1c0 0 0 0 0 1 0 0 0 1 0 1 0 0-1 0-1 1 0 0-1 0-1 0 0 0-1 0-1 0-1 1-2 1-2 1-1 1-2 1-2 1-1 0-1 0-2-1 0 0 0 0 0-1 0 0 0-1 0-2 0 0 0-1 1-1 0-1 0-2 1-2 0-1 1-1 1-1 1-1 1-1 1-1zm0 6c0-1 1-1 1-2 0 0 0-1 0-1 0-1 0-1 0-1 0-1 0-1-1-1 0 0 0 0 0 1 0 0-1 0-1 0 0 1 0 1 0 1 0 1 0 1 0 1 0 1 0 1 0 1 1 0 1 1 1 1zm-2-3c0 1-1 1-1 2 0 0 0 1 0 1 0 1 0 1 0 1 0 1 0 1 1 1 0 0 0 0 1-1 0 0 0 0 1 0-1-1-1-1-2-2 0-1 0-1 0-2zm13 2c0-1 1-1 1-2 0 0 0-1 1-1 0-1 0-1 1-1 0-1 0-1 0-2 0 0 1 0 1 0 0 0 0 0 1 0 0 1 0 1 0 1v1c0 0 0 0 0 1 0 0 0 1 1 1 0 1 0 1 0 2 0 1 0 1-1 2 0 0 1-1 1-1 0 0 1-1 1-1 0 0 0-1 0-1 0 0 0 0 1 0 0 0 0 0 0 1-1 1-1 1-1 2-1 0-1 0-2 1 0 0-1 0-1 1-1 0-1 0-2 0-1 0-1 0-1-1-1 0-1 0-1-1 0 0 0 0 0-1 0 0 0-1 0-1zm2 1c0 0-1 0-1 0 0 1 0 1 0 1 0 1 0 1 1 1 0 0 0 0 0-1 1 0 1 0 1 0 0-1 0-1 0-1 1-1 1-1 1-2 0 0-1 0-1-1 0 0 0-1 0-1 0 0-1 0-1 1 0 1 0 1 0 1s0 0 0 1c0 0 0 0 1 0 0 0 0 1-1 1zm9-1c0 0-1 0-1 1 0 0-1-1-1-1 0 1 0 1 0 1 0 1 0 1 0 1s0 0 0 1c0 0 0 0 1 0 0 0 1 0 1-1 1 0 1 0 1 0 1-1 1-1 1-1 1-1 1-1 1-1v-1c0 0 1 0 1 0 0 0 0 0 0 1 0 0-1 1-1 1 0 1 0 1-1 1 0 1-1 1-1 1-1 1-2 1-2 1-1 0-2 0-2-1-1 0-1-1-1-1 0-1 0-2 0-3 0 0 0-1 1-2 0 0 1-1 1-1 1-1 2-1 3-1 1 0 1 0 1 0 1 1 1 1 1 1 0 1 0 1 0 1 0 1 0 1-1 2 0 0 0 0 0 1-1 0-1 0-2 0zm0-1c0 0 1 0 1 0 0-1 1-1 1-1 0-1 0-1 0-1 0-1 0-1-1-1 0 0 0 0 0 1-1 0-1 0-1 0 0 1-1 1-1 1 0 1 0 1-1 2 1 0 1 0 1 0l1-1zm8 0c0 0 0 0 0 0 0 1 0 1-1 1 0 0 0 1 0 1 0 0 0 1-1 1 0 1 0 1 1 1 0 0 0-1 0-1 1 0 1 0 1 0 0-1 0-1 1-1 0-1 0-1 0-1v-1c1 0 1 0 1 0s0 0 0 1c0 0 0 1-1 1 0 1 0 1 0 1-1 1-1 1-1 1-1 1-1 1-2 1 0 0 0 0-1-1 0-1 0-1 0-1 0-1 0-1 0-2 0 0 0-1 0-1 1 0 1-1 1-1 0 0 0-1 0-1 0 0-1 0-1 0 0 0 0 0 0 1 0 0 0 0 0 1-1 0-1 0-1 0 0 1 0 1 0 1s0 1-1 1c0 0 0 0 0-1 0 0 0-1 0-1 0 0 0 0 0-1 1 0 1 0 1 0 0-1 0-1 0-1 0-1 0-1 1-1 0-1 0-1 0-1 0-1 0-1 0-1h1c0 1 0 1 0 1s0 0 0 1c1 1 1 1 1 1h1c0 0 0 0 0 1 0 0 0 0 0 1zm8 1c0-1 0-1 1-2 0 0 0-1 0-1 1-1 1-1 1-1 1-1 1-1 1-2 0 0 0 0 1 0 1 1 1 1 1 1v1c0 0 0 0 0 1 0 0 0 1 0 1 1 1 1 1 1 2-1 1-1 1-1 2 0 0 0-1 1-1 0 0 0-1 1-1 0 0 0-1 0-1 0 0 1 0 1 1 0 0 0 0-1 0 0 1 0 1 0 2-1 0-1 0-2 1 0 0-1 0-1 1-1 0-2 0-2 0-1 0-1 0-2-1 0 0 0 0 0-1 0 0-1 0-1-1 0 0 1-1 1-1zm2 1c-1 0-1 0-1 0 0 1 0 1 0 1 0 1 0 1 0 1 1 0 1 0 1-1 0 0 1 0 1 0 0-1 0-1 0-1 0-1 0-1 0-2 0 0 0 0 0-1 0 0 0-1-1-1 0 0 0 0 0 1 0 1-1 1-1 1s1 0 1 1c0 0 0 1 0 1zm9-1c0 0-1 0-1 1-1 0-1-1-1-1l-1 1c0 1 0 1 0 1s1 0 1 1c1 0 1 0 2-1 0 0 1 0 1 0 1-1 1-1 1-1 0-1 0-1 1-1 0 0 0-1 0-1 0 0 1 0 1 1-1 0-1 1-1 1 0 1-1 1-1 1-1 1-1 1-2 1 0 1-1 1-2 1 0 0-1 0-2-1 0 0 0-1-1-1 0-1 0-2 1-3 0 0 0-1 0-2 1 0 1-1 2-1 1-1 2-1 3-1 0 0 1 0 1 0 0 1 1 1 1 1 0 1 0 1 0 1 0 1-1 1-1 2 0 0 0 0-1 1 0 0 0 0-1 0zm0-1c0 0 1 0 1 0 0-1 0-1 0-1 1-1 1-1 1-1 0-1-1-1-1-1 0 0 0 0-1 1-1 1-1 1-1 1-1 1-1 1-1 2 0 0 1 0 1 0 0 0 0-1 1-1z"/><path d="m415 397c0 0 1-1 1-1 0 0 0 0 1 1 1 0 1 1 1 1 0 0-1 1-1 1 0 0 0 1 0 1-1 0-1 1-1 1 0 1-1 1-1 1 0 1 0 1 0 1v1c0 0 1-1 1-1 0 0 0 0 1 0 0-1 0-1 0-1 0-1 0-1 1-1 0 0 0-1 0-1 0 0 1 0 1 1 0 0 0 0-1 0 0 0 0 1 0 1 0 1 0 1-1 1 0 1 0 1-1 1 0 1-1 1-1 1 0 0-1 0-1 0 0-1 0-1 0-1s0 0 0-1c0 0 0 0 0-1-1 1-1 1-1 1 0 1-1 1-1 1 0 0 0 1-1 1 0 0 0 0-1 0 0 0 0 0 0-1-1 0-1 0-1-1 0 0 0-1 0-1 0-1 1-1 1-2 0 0 0-1 0-2 1 0 1-1 1-1 0-1 1-1 1-1 0 0 1 0 1 0 0 1 0 1 0 1s0 0 1 1c0 0 0 0-1 0 0 0 0 1 0 1 0 1-1 1-1 1 0 1 0 1-1 2 0 0 0 0 0 1 0 0 0 1 0 1 0 0 0 0 1 0 0-1 0-1 0-1l1-1c0 0 0-1 0-1 1 0 1-1 1-1 0 0 0-1 0-1 0 0 1-1 1-1 0-1 0-1 0-1zm17 4c1 0 1-1 1-1 0 0 0 0 0 1 0 1 0 1 0 1-1 1-1 1-1 1-1 0-1 1-1 1-1 0-1 0-1 1-1 0-1 0-2 0 0 0 0 0-1 0 0 0 0 0 0-1 0-1 0-1 0-1 1 0 1 0 1 0 0-1 1-1 1-2 0 0 0-1 0-1 1-1 1-1 1-1 0-1 0-1 0-1s0 0-1 0c0 1 0 1 0 1-1 0-1 1-1 1-1 1-1 1-1 1-1 1-1 1-1 2-1 0-1 0-1 1 0 0-1 1-1 2 0 1-1 2-1 3 0 0 0 0-1 0 0 0 0-1 0-1 0-1 0-1 0-2 1-1 1-2 1-3 1 0 1-1 1-2 1-1 1-1 1-2 1-1 1-1 1-2 0 0 0-1 0-1 1 0 1 0 1 0s0 0 1 0c0 0 0 1 0 1 0 0 0 1 0 1 0 1 0 1-1 1 1 0 1-1 2-1 0-1 1-1 1-2 1 0 1 0 1 0s1 0 1 1c1 0 1 1 1 1 0 0-1 1-1 1 0 1 0 1-1 2 0 0 0 1-1 1 0 1-1 1-1 2 0-1 0-1 1-1 0 0 0 0 1 0 0 0 0-1 1-1 0 0 0-1 0-1zm6-2c0 0 0-1 0-1 1 0 1 0 1 0 0 1 1 1 1 1 0 0 0 0 0 1-1 1-1 1-1 1 0 1 0 1 0 1-1 0-1 1-1 1 0 1 0 1 0 1 1 0 1-1 1-1 0 0 1 0 1 0 0-1 0-1 0-1 0-1 1-1 1-1 0 0 0-1 0-1 0 0 0 0 1 0 0 0 0 0 0 1 0 0-1 1-1 1 0 1 0 1-1 1 0 1 0 1-1 1 0 1 0 1-1 1 0 0-1 0-1-1 0 0 0-1 0-1-1 0-1 1-1 1-1 1-1 1-2 1 0 0-1-1-1-1 0 0-1-1-1-1 0-1 0-1 0-2 0 0 1-1 1-1 0-1 1-1 1-2 0 0 1-1 2-1 0 0 1-1 2-1 1 0 1 0 2 1 1 0 1 0 1 0 0 1 0 1 0 1h-1c0 0-1 0-1 0-1 0-1 0-2 0 0 0-1 1-1 1 0 0 0 1-1 1 0 1 0 1 0 1-1 1-1 1-1 1 0 1 0 1 0 1l1 1c0 0 0 0 0-1 1 0 1 0 1 0 0-1 0-1 1-1 0-1 0-1 0-2 0 0 0 0 0-1 1 0 1 0 1 0zm8 1c0 0 0 0 0 0 0 1-1 1-1 1 0 0 0 1 0 1 0 0-1 1-1 1 0 1 0 1 0 1 1 0 1-1 1-1 0 0 1 0 1 0 0-1 0-1 0-1 1-1 1-1 1-1v-1c0 0 1 0 1 0 0 0 0 0 0 1 0 0 0 1-1 1 0 1 0 1 0 1-1 1-1 1-2 1 0 1 0 1-1 1 0 0-1 0-1-1 0-1 0-1 0-1 0-1 0-1 0-2 0 0 0-1 0-1 0 0 1-1 1-1 0 0 0-1 0-1-1 0-1 0-1 0s0 0 0 1c0 0 0 0-1 1 0 1 0 1 0 1l-1 1c0 0 0 0 0-1 0 0 0-1 0-1 0 0 0 0 0-1 1 0 1 0 1 0 0-1 0-1 0-1 0-1 0-1 0-1 1 0 1 0 1 0 0-1 0-1 0-1 0-1 0-1 0-1s0 0 1 0c0 1 0 1 0 1s0 0 0 1c1 1 1 1 1 1h1c0 0 0 0 0 1 0 0 0 0 0 1zm5-7c0 0 0 0 0 1 0 0 0 0-1 1 0 0 0 0 0 1 0 0-1 1-1 1-1 0-1 0-1 0 0-1 1-1 1-1 0-1 0-1 0-1 0-1 0-1 0-1v-1c1-1 1-1 1-1h1c0 0 0 1 0 1zm4 0c0 0 0 0 0 1 0 0-1 0-1 1 0 0 0 0 0 1-1 0-1 1-1 1 0 0-1 0-1 0 0-1 0-1 0-1 0-1 0-1 0-1 0-1 0-1 0-1l1-1c0-1 1-1 1-1 0 0 0 0 1 0 0 0 0 1 0 1z"/></g></g><g fill="#201e1e" stroke-linejoin="round" stroke-linecap="round" stroke-width=".595"><text x="250" y="354" font-family="&apos;Amazone BT&apos;" font-size="37.798" transform="matrix(1 0 0 1.0069 54.611 18.491)">Texto 02 </text><path d="m414 578c0 0 0 0 1 0h-1zm1 0c0 0 0 0 0 0 1 0 1 0 1 0s0 0-1 0zm-2 0c0 0 0 0 0 0zm3 0c0 0 0 0 1 0 0 0 0 0-1 0zm-4 0c0 0 0 0 0 0zm6 0c0 0-1 0 0 0zm1 0c0 0 0-1 0 0zm-8-1c0 0 0 0 0 0 0 1 0 1 0 1 0-1 0 0 0-1zm9 0c0 0 0 0 0 0zm-33 0c0 0 0 0 0 0zm-1 0c0 0 0 0 0 0zm-2 0c1 0 1 0 1 0 0 1 0 0-1 0zm37 0c0 0 0 0 0 0zm-33 0c0 0 0 0 0 0zm-5 0c1 0 0 0 1 0-1 0-1 0-1 0zm27 0c0 0 0 0 0 0zm-28 0c0 0 0 0 1 0 0 0 0 0-1 0zm7 0c0-1 0-1 0-1s1 1 0 1zm-8 0c0 0 0-1 1 0-1 0 0 0-1 0zm41 0c0-1 0-1 0-1 0 1 1 1 0 1zm-13-1c1 0 0 0 1 0-1 1-1 1-1 0zm-40-1c2 0 3 1 5 1 2 0 1-1 2 0 1 0 2 2 1 2h-5c-1 0-1-1-2-1-1-1-1-1-1-2zm-15 1c3 0 4 0 6 0 0 0 1 2 2 2 1 0 1 0 1 1-1 0-4 0-5-1-2 0-3 0-4-2zm-25 6c-1 0 0-2-1-2 0-1 0-2 0-3 0 0 0 0 0-1 0 0 1 0 1-1 0 0 1 1 1 1 0 1-1 1-1 2 0 0 0 1 0 2 1 2 2 1 1 2l-1 0zm85-6c0 0 0 0 0 0zm-34 0c0 0 0 0 0 0zm36 0c0 0 0 0 0 0zm2 0c0 0 0-1 0 0zm-6 0c0 0 0 0 1 0 0-1-1 0 0-1 0 1 0 0 0 1h-1c0 0 0 0 0 0zm-2 0c0 0 0 0 0 0 1 0 1 0 1 0s0 0-1 0zm-20 0c0 0 0 0 0 0zm33 0c0 0 0 0 0 0zm-8-1h-1c1 1 1 0 1 1 0 0 0 0-1 0l1-1zm-36 1c0 0 0-1 0 0zm36 0c0 0 0-1 0 0 1 0 1 0 1 0-1 0-1 0-1 0zm-4 0c0 0 0-1 1 0 0 0 0 0-1 0zm6-1c1 0 1 0 1 1-1 0-1-1-1-1zm-50 0c0 0 0 0 0 0s0 0 0 1v-1zm53 0c0 0 0 0 0 0zm-4 0c0 0 1 0 1 0 0 1 0 1 0 1-1 0 0 0-1-1zm-29 0c0 0 0 0 0 0zm4 0c0 0 0 0 0 0zm32 0c0 0 0 0 0 0-1 0-1 0-1 0 1 0 0 0 1 0zm-4 0c0 0-1 0 0 0zm2 0c0 0-1 0 0 0zm-36 0c0 0 0 0 0 0zm3 0c0 0 0 0 0 0zm-5 0c0 0 0 0 0 0s-1 0-1-1c0 0 0 0 1 0 0 0 0 0 0 1zm23 0c0-1 0-1 0 0zm-16 0c0 0 0 0 0 0zm-3 0c1-1 1-1 1-1 0 1 0 1-1 1zm-2-1c0 1 0 1 0 1v-1zm-2 1c0 0 0 0 0 0s0 0 0-1c0 0 0 1 0 1zm38 0c0-1 0-1 1-1 0 0 0 0 0 1-1 0-1 0-1 0zm-32-1c0 0-1 0 0 0zm-3 1c0 0 0 0 0-1 0 1 0 0 0 1zm19-1c0 0 0 0 0 0zm-21 1c0-1 0-1 0-1s0 0 0 1zm-2-1c0 0 0 0 0 0zm24-1c2 1 2 1 2 3 0 0-1-1-1-1-1 0-1-1-1-2zm-2 1c0 0 0 0 0 0zm-1-1c0 0 0 0 0 0zm6 3c0-1 0-1 0-2 1-1 0 0 1-1 1 0 3-1 3-1 1 0 1 1 1 1-1 1-5 2-5 3zm-14-3c0 0 0 0 0 0zm1-1c0 0 0 0 0 0zm-4 3c0-1 0-2 0-2 1-1 1-1 2-1v1c0 0 0 0 0 0 0 1-1 1-1 1 0 0-1 1-1 1zm5-3c0 0 0 0 0 0zm-6 2c-1 0-2-1-3-1-1-1-2-1-1-2 1 0 2 0 3 1 1 0 0 0 1 1 0 0 0 0 0 1zm10-4c0 0 1 1 2 1 1 0 1 0 2 0 0 1 1 1 2 1 0 0 1 1 1 1 2 0 6-3 6-3 1 0 1 1 1 1 0 0-5 2-6 2 0 1 0 1 0 1s0 0 0 1c0 0 0 2 0 2-1 0 0 0-1-1 0-4-1-2-2-3 0 0 0 0 0-1h-2c-1-1 0 0-1 0 0 0-1-1-1-1 0 0-1 0-1 0v-1zm0-1c1 1 0 1 1 1 0 0 0 0 1 0h-2c0 1 0 0 0 1 0 0 0 0 1 0l-1 1v-1h-1c0 0 0 0 0 0v-1h1v-1zm5 1c0 0 1 0 2 0 1 0 2-1 3-1 0 1 1 1 1 2-1 1-3 2-4 1-2 0-1 0-2 0 0-1 0-1 0-1 0-1 0-1 0-1zm-67 0c1 0 1 0 1 0h-1zm1-1h-1c0 0 0 0 1 0zm52 7c-1-1 0-3-1-3 0-1 0 0 0-1l-6-3c1 0 1 0 1 0 2 0 4 3 6 2 1 0 1 0 1 0 1 0 0 0 1 0l1-1c1-1 1-1 2-1 1 0 1 0 2 0-1 1-2 1-2 1-1 0-1 0-2 1 0 0-1 0-1 0-1 1 0 0-1 1-1 0-1 1-1 2 0 1 0 2 0 2zm-4-7c1 0 1-1 2-1h5c-1 1-1 1-1 1 0 1 0 1 0 1-1 1-1 0-2 1 0 0-1 0-1 0-1 0-2-1-3-2zm10-1c0 0 0 0 1 0h1l-1 1h1-1v1h-1l1-1c0 0 0 0 0 0 0-1-1 0-2 0h1v-1zm-68-5c1 0 2-1 3-1 1-1 1-1 1-1 0 1 0 2 0 2 0 2 0 1 1 2 0 1 0 2 0 3 1 1 0 1-1 2-1-1-3-5-4-7zm10 0c0-1 0-1 0-1 1-1 1-2 1-2s-1 2-1 3c1 0 1 0 1 0 1 1 1 1 1 1v1c0 1 0 2-1 2 0 1 0 1 0 1s0 0-1 1c0 0-1 0-2 0 0 1 0 1 1 1-1 0-1 0-1-1-1-1-1-1-1-1s0 2 1 2c0 1 1 0 1 0 0 1-1 1-2 0 0 0 0 0 0 1 1 1 2 0 3 0 0 0-1 1-1 2 0 0 1 1 1 2 0 0-1 1 0 2 0 0 0 1 0 2 0 1 0 3 0 4 0 1 0 2 0 3 0 0 1 0 1 1-1 0-1 0-2 0 0 0 0-1 0-2 0-1-1-1-1-1 0 0 0-1 0-1 0-2 0-4 0-5 0 0 0 0-1 0 0 1-1 0-2 1-1 1-1 3-1 5 0 1 0 1 0 2 0 1 2 2 1 2 0 1-1 1-2 0 0 0 0 0 0-1 1-2 0-1 0-3 0-3 0-1 0-4 0-1 0-2-1-3 0 0 0 0-1-1 0 0-1 0-1 0 0 0 0-1-1-1 0 0 0 0-1-1-1 1-1 2-1 2-2 2-2 1-2 2 0 1 0 2 0 3 1 2 1 2 1 2 0 1-1 0-1 0 0 0 0 1-1 0 0 0 1-1 1-2 0-2-1-2-1-3 0-1 0-2 0-3 0 0 1-1 0-2 0-2 0-2 1-3 1-2 1-1 1-2v0c2 0 3 0 4 1 1 0 2 1 3 1 1 1 1 1 2 0 2-2 0-2 1-5-1 0-1 0-1-1 0 0 0 0 1 0 0 0 0-1 0-1 1 0 1 1 1 0h1 2zm-5-2c0-1 0-2 0-2 1 0 1 0 1 1-1-1-1 0-1 1zm7-1c0-1 0-1 0-2 1 1 1 3 1 4 0-1 0-2-1-3 0 0 0 0 0 1zm53-7c1 0 1 0 2-1 0 0 1-1 1-2v1c0 0 0 0 0 0 1 1 1 1 1 2h2c1 3 1 6 0 9v7c0 0 0 0 0 0v1l-1-1h1-1v-1h-1c0 0 0-1 0-1l-1 1c0-2 0-3 0-5 0-2-3-8-3-10zm-10 17c-1 1-1 0-2 1 0 0-1-5-1-6-1-5-1-9-3-13-1-2-2-3-2-5h5c1 0 1 0 1 0 0 2 0 3 2 3 1 5 1 8 1 13 1 2 0 4 1 4-1 2-1 1-2 2 0 1 0 1 0 1zm-32-27c0-1 1-1 1-2 0 0 2-4 3-4v1c0 0 0 0 0 0 0 1-1 1-1 2 0 0 0 1-1 1 0 0 0 1-1 1 1 1 7 2 9 2 5 1 12 2 18 2 3 0 6 0 10 0h-1c-6 0-14 0-19 0-8-1-11-2-18-3zm-17 16c0 0 1-1 1-1 2-2 3-4 4-6 2-5 4-12 7-18 1-1 4-6 5-6 0 0 1 1 1 2 0 1 1 4 2 6 1 1 0 1-1 2l-3 5c7 2 16 3 24 3 0 1 1 2 1 3 0 1 1 1 1 2 3 6 3 10 4 16 0 1 0 2 0 3 1 1 1 1 0 2 0 1-2 2-4 3-4 1-8-1-12-1-3 0-6 1-9 1-1 1-3 1-5 1-1-1-3 0-5 0-2 0-4-1-6-2-1 0-1 0-1-1 0 0 1-4 1-4 0 0 1-1 1-2 0 0 0-1 0-2 1-1 1-1 1-2 0 0 0-1 0-1 1-1 0-3 0-4-1-1-2 1-2 2 0 1-1 2-1 3h-2c0-2-1-3-2-4zm96-27c0 1-2 2-4 2-1-1-1-1 0-2 0 0 1-1 1-1 1 0 1 0 2 0 0 1 1 1 1 1zm4-3c1 1-2 3-4 2-4-1-1-2 0-3 0 1 0 1 0 2 2 2 4-1 4-1zm-78 9c0 1 1 1 2 1 1 0 1 0 1-1 0 0 0 0 0-1 0 0 0 0 0-1 1-3 0-3 1-4l10-17c4 0 11 2 15 3 9 3 18 7 27 9 8 1 9 1 17 1l-1 2c-1 0-1 1-2 1-1 1-2 2-3 3-2 2-1 2-4 3-1 0-2 1-4 2-2 1-5 2-8 3-4 1-6 2-10 2-11 2-23 2-34 0-1 0-9-1-10-2l3-4zm77-14c2 0 3 1 2 3l-3 3c-1 1-2-2-1-3 0 0 2-2 2-3zm-9 3c0 0-1 0-1 0l-2-1c-1 0-2-1-1-3 1-1 2-1 3-1 1 0 2 0 4 0l-3 1c0 0-1 0-1-1v1c1 1 2 1 1 4zm-17-7c2-1 3-2 3-2 1 1 1 2 2 3 1 1 3 2 4 3 2 1 2 1 2 2-2 0-6-1-8-1 0 0-1 0-1-1-1 0-2 0-2 0 0-2 0-3 0-4zm-12-2c0 0 0 0 1-1 1-1 1-1 2-1 0-1 0-1 0-1 1 0 1 0 2-1 0 2 0 6 0 8 0 0-5-2-5-2v-2zm30 9c0-1 0-1 0-2 0-1 1-1 1-1 2-1 6-3 8-4 0-1 0-1 0-1l2-1c0 1-1 1-1 2 0 1-1 3-2 3l-2 3c0 0-1 1-1 1h-5zm-74-10c0 0 1 0 2 0 0 0 0 1 0 1l2 2c0 1 2 2 1 3 0 1-1 1-2 1 0 0-3-5-3-7zm42 2c-1 0-2-1-3-1 0 0-1-1-1-1-1 0-1 0-1 0-1-2 0-6 0-7l3 3c0 1 0 1 1 1 0 1 1 2 1 2 1 2 1 2 1 3h-1c1 0 1-1 1-1-1-1-2 0-1 1zm44-3c0 1-1 2-1 3v-2c0 0 0 0 0 1-3 1-5 3-8 5-1 0-3 1-3 1l12-8zm-55-3l1 2h-2l1-2zm-23 19c0-1 0-1 0-1 0-1 1-3 2-3 1-3 3-6 5-8 1-2 1-3 2-4 1-2 1-2 2-2 3-1 6 0 8 0 7 2 13 5 19 7 4 1 7 2 10 3 8 3 15 4 23 3 0 1 0 1-1 1-16 0-29-5-44-10-5-2-10-3-15-3-1 1-2 3-3 4-2 4-5 9-8 13zm35-16c0 0-2-3-3-3 0 0 0 0 0-1l-2-2c-1-1-1-1-1-2 0-2 1-4 1-5 1-1 1-1 1-2 0 1 0 1 0 2 0 1 1 4 1 4l3 9c0 0 0 0 0 0zm-20-16c1 0 1 0 1 0 0 1 0 1 0 1l1 1c0 2-1 4-1 5 0 0 0 0 0 0 0 1 0 1 0 1 0 1 1 1 1 2 0 1 0 2 0 3-1 1-6 0-7 0 0 1-3 4-3 5l-4 7c-1 1-1 2-2 2-2 0-5-1-5-2 0 0 0-1 1-1 1 0 1 0 1 0 0-2 0-2 0-3-1 0-1 0-1-1-1-1-2-2-2-3 2 1 2 1 5 1 0 0 1 0 1 0-1-1-2-1-2-1-1 0-1 0-2 0-1 0-2-1-3-1-1-1-2-2-2-3 0-1 0-1 0-2 1-1 1-1 2-1h-1c0-1 0-1 0-1 1 0 1 0 1 0h-1c0-1 0-2-1-3 0 1 1 1 1 1 0 1 0 1-1 2 0 1 0 2 0 2-1 2 0 2-1 3-1 0-1 1-1 2 0 0 1 1 1 1 1 1 1 3 2 4 1 2 1 4 4 5 1 1 2 2 4 2-1 1-1 1-1 1-1 0-1 0-1 0 0 1 0 2 1 3 0 1 0 4 0 5-1-2-2-5-2-6 0 1 1 5 1 6 0 1 1 1 0 1 0 0-1-2-1-3l-1-3c0 0 0 0 0 1 0 2 2 5 2 6-1 0-1-1-1-2-1-1-2-2-2-4-1 0-1 0-1 0v-1c0 1 0 0 0 1l1 1c0 1 1 2 1 3 0 0 1 1 1 1-2 0-4-5-4-7 0 0-1-2-1-2 0-2-2-3-3-5 0 0-1-1-1-2-1 0-1 0-1-1-1-1-2-1-3-3 0-1-1-1 0-2 1-4 2-8 3-12 1-2 1-3 3-3 1 1 1 4 1 5 0 0 0-1 0-1 0-1 0-1 0-2-1-4-1-2-3-2 1-1 2-2 3-2 1 0 2 0 3 0 0 0 1 0 1-1 1 0 0 1 2 1 2-1 1-3 0-6 1 0 2 2 4 3 2 1 4 2 6 1 0 0-1 1-1 1 1 1 1 1 2 1 0-1 0-1 1-1 2 0 3 1 4 1 0 1 1 0 1 1zm21 2c0 0 0 0-1 0h1zm-74-1c1 0 4-3 4-3l2 2c0 1 1 1 1 1l1 1c2 1 4 2 7 2 0-1 0-3 0-3 2 1 2 1 5 2-1 1-2 2-2 4 1 1 2 3 2 4-1 0-1 1-2 1-1 0-3 0-4-1-2-1-1-1-2-1 1 3 4 6 7 8 1 0 1 0 2 0 2 1 1 0 2 1 1 0 1 1 1 1l2 3c1 0 1 1 1 1-5-1-11-3-15-6l-3-2c0-1-1-1-1-1l3-6c-4 0-9-6-11-8zm74 16c0-2 1-4 2-5 2-4 4-11 5-15 2 2-1 12-2 15 0 1 0 1-1 2-1 0-3 3-4 3zm4-13c0 0-1-1-1-2 0-1 0-1 0-1 0-1 0-1 1-1 0 0 0 0 1 0 0 0 0-1 1-1 0 1-1 2-1 3 0 0-1 2-1 2zm-8-3c0-1 0-2 0-3 1 0 0 1 0 2 0 0 0 1 0 1zm5-3c0 0 1-1 2-1v3c-1 0-2-1-2-2zm-17-1c0-1 1-1 2-2 0-1 0-2 1-2v1c1 1 2 3 2 4 0 0 1 0 1 0-1 1-6 3-8 3 0 1 0 2 0 3-1-4-1-3-2-4l4-3zm13 3c0-1 0-2 1-3 0 0 1 1 1 1 0 0-1 1-1 1 0 0 0 0-1 0 0 0 0 0 0 1zm0-3c0 0-1 0-1-1h1l0 1zm6 1c0 0 0 0 0 0 1-1 0-1 2-1 0-1 1-1 2-2-1 1-1 2-2 2 0 1-1 1-2 1zm-60 0c0 0 1-2 2-3 0-1 1-2 1-3 1-1 1-1 1-2 0 1 0 2 1 3 0 3-2 6-5 5zm55-2c2 0 4-2 5-3 1-1 0-1 2-1 1-1 1-1 2-1v3c0 1 0 1 0 1l-3 1c-1 1-1 0-2 1-1 0-2 1-2 1-1 0-1-1-1-1-1-1-1-1-1-1zm-8 2c-1-1-1-2-2-4 0 0-1-1-1-2 0 0 0-2 0-2 1 0 2 1 2 2 1 1 2 1 2 2 0 0 1 1 1 1 0 0 1 1 2 1l-2 1c0 0-1 1-2 1zm-7-11c1 0 1 1 0 0zm1 0h0zm0-2c0 0 0 0 0 1h-1c0 0 1 0 0 0h-1c0-1 0 0 0-1 0 0 0 0 1 0 0-1 0-1 0-1 1 0 0 0 1 0v1c0 0 0 0 0-1-1 0-1 0-1 0-1 1-1 2 0 2 0 0 0 0 1 0 0 0 0 0 0-1v1c0 0 0 0-1 1 0 0-1-1-1-2 0-1 1-1 1-1 1 0 1 0 1 1zm-28 0c0 0-1 0 0 0zm0 0c0-1 0-1 0-1l1 1c0 0 0 0-1 0zm0-3c-1 0-1 0 0 0 0 0 0 0-1 0l1-1c0 0 0 1 1 1-1 0-1-1-1-1 0 0 0 0 0 1 1 0 1 1 1 1 0 0 0 1-1 1 0 0 0 0 0 0-1 0-1 0-1-1 0-1 0 0 0 0v-1 0c0 1 0 1 0 2 0 0 1 0 1 0 1 0 1 0 1-1v1c-1 0-1 0-2 0-1 0 0-2 0-2h1zm27 1c0 0 0 0 0 0zm0-1c0 0 0 0 0 0zm0 0c0 0 1-1 1 0l-1 0zm0-1c1 0 1 0 1-1v2c0-1 0-1-1-1zm-27 0c0 0 0 0 0 0zm0-1c0 0 0 0 0 0zm-1-1c0-1 0-2 0-3 1 0 1 1 1 1 0 0 1 0 1 0 0 1 0 3 0 3 0 0 0-1-1-1 0 0 0 0-1 0zm29-16c0-2 1-3 2-4 3-1 3 0 4 0 1 1 0 1 1 1 1-1 0 0 1-1 0 0 2 0 2-1 3-1 4 0 6 0 1 1 2 0 3 1 0 0 0 1 0 2 0 1 0 1 0 2 1 1 2 2 4 2 2 2 3 4 3 8h2c0-1 1-4 2-5 1 0 2 1 2 1 0 1 0 1 1 1 1 2 0 5-1 7 0 1 0 2 0 2-1 1-2 1-2 0-1 0-1-2-1-3l-1-2c0 0 0 0 0 0v1c0 1 1 1 1 2 0 1 0 2 0 4 0 2-1 5-3 6-2 2-3 3-6 4-1 1-1 2-5 4-2 1-5 1-7-1-1 0-1-1-1-1l-1-1c-3-2-4-5-5-9-1-2-1-6-1-8 0 0 0 0 0 0 1 0 1 0 1 0 1 0 0 0 1 0h1c2-1 1-1 3-1 0 0-1 0-1 0 0-1 0 0 0-1-1 0-3-1-4 0v1c-1 0 0 0-1 0 0 0 0 0 0 1 0-1-1-1-1-3 1 0 4 0 6 0 0-1-1-1-1-1 0-1-1-1-2-1-1 0-2 0-3 0 0-1 0-2 0-4 0-1 0-2 1-3zm1 12c0-1 1-2 1-2 0 1 0 1 1 2-1 0-2 0-2 0zm3-1c0-1 0-1 0-1v1zm-40 13c0-1-1-2-1-3 0-2 0-5 1-8 1-2 4-7 5-8 0 4-3 10-4 12 0 2-1 6-1 7zm7-22c0 0 0 0 0 1l-1 3c0 0 0 0 0 1v-4l1-1zm0 0c0-1 0-1 1-1v-1c0 1 0 2-1 3 0 1 0 3 0 4 0-1 0-5 0-5zm60 1c-1-1 0-1 0-2 0-1 0-2 1-4 1 0 1 0 1 1 0 1 1 1 1 2-1 0-1 0-1-1 0-1 0-1-1-1 0 0 0 0 0 1 0 0 0 0 0 1 0 1 0 1 1 2-2-1 0-3-1-4-1 2-1 3-1 5zm-35-6c0 0 0 0-1 0v-1c0 1 0 1 1 1zm-2 1c1 1 1 1 1 1 3 2 2 5 3 6 0 0 0 1 0 2 0 1 0 1 0 1 0 1 0 1 0 2 1 2 1 1 1 2 0 2-1 4 0 5 0 1 0 1 0 1 0 1 0 0 0 1-1 0 0 0-1 1-1 2 0 3-2 6-1 2-3 3-4 4-3 2-5 5-9 3-2-1-6-4-7-6-3-4-2-6-3-10 0 0 0-1 0-2 0-2 0-6 1-7 0-1 0-1 1-1 0-1 1-3 2-3 0-1 1-2 1-3 1-2 1-3 3-4 1 0 2 0 3 0 0-1 0 0 0-1 1 0 0 0 1 0h1c0 0 0 0 1 0 0 0 0 0 0 1 0 0 0-1 1-1 0 0 0 1 0 1v-1c1 0 1 0 1 0h1c0 0 0 0 0 0h1v1c0 0 0 0 0-1l1 1c1 0 1 0 1 0l1 1zm-49 34c0 0 0 0 0 0 1-1 1 0 3-1 2-2 4-6 5-8 2-3 3-7 5-11l4-5c0-1 2-4 3-5 1-1 1-1 2-2 1-1 1-1 2-2 1-1 1 0 2 0 1 0 3-1 4-2l-4 5c-1 1-1 2-2 2-3 5-6 10-6 16 0 3 1 4 0 7-1 5-7 9-7 15-1 0-3-1-4-1-1-1-2-2-3-2-1-1-3-4-4-6zm85-36c1 0 1 1 1 1 0 0 0 1 0 1l-1-2zm-34 0c-1 0-1 0-1-1 1-4 2-9 5-11 1 0 2-1 3-1 2 0 2 0 3 1 5 2 9 4 14 4 4 0 5-1 7-1 6-1 6 3 6 5v3c0 1 1 2 0 2 1-1 0-2 0-3 0-2 0-3-1-4-1-1-3-2-6-1-2 0-4 1-7 1-3 0-3-1-5-1-5-1-9-5-13-3-2 1-4 2-4 4-1 2-2 4-1 6zm-20-1c0 1 0 1 0 0zm-1 0c0 0 0 1 0 0zm1 0c0 1 0-1 0 0zm-1 0c0-1 1 0 1 0-1 0-1 0-1 0zm0 0zm1-1c0 0 0 0 0 1 0 0 0 0 0-1zm0 0c-1 1-1 0-1 0 0 0 1 0 1 0zm1 3c0 0-1-1-1-1 0 0 2-2 2-2 1 0 0 0 1-1 0 0 1 0 0 0 0 1 0 0 1 0-1 1-2 2-2 3 0 0 3-3 3-3 0 0-2 2-2 2 1 0 2-1 3-2l-2 2c0 1-1 1-1 1h1l1-1c0 1 0 1 0 1l-1 1c0 0-1 1-1 1 0-1 1-1 1-1l-2 1c0-1 0-1 1-2-1 1-1 1-2 2 0 0-2 3-2 4v-2c0 0 0 0 0 0s0 1-1 1l2-3c0 0 0 0 1-1zm3 0v-1 1zm-3-3c0 0 0 0 0 1v-1c0 1 0 1 0 1l-1-1h1zm0 0c-1 0 0 1 0 1v-1zm-1 0l0 0zm-1 0c0 0 0 0 0 0zm3 0c0 0 0 0 0 0-1 0 0 0-1 0 1 0 0-1 1 0zm-1 0c0 0 0 0 0 0zm-1-1c1 1 1 1 1 1-1 0-1 0-1 0 0-1 0-1 0-1zm2 0c0 1 0 0 0 1 0 0 0 0 0-1zm-2 0c0 1 0 1-1 0 0 0 1 0 1 0zm2 0c0 0 0 1-1 0 0 0 0 0 1 0zm-3 0c0 0 0 0 0 0zm2 0c0 0 0 0 0 0zm3 0c0 0 0 0 0 0zm-4 0c0 0 0 0 0 0zm2 0c0 0 0 0 0 0zm2 0c1 0 1 0 0 0zm-4 0c0 0 0 0-1 0 0 0 1 0 1 0zm1 0c0-1 0 0 1 0 0 0 0 0-1 0zm3-1c0 1 0 1-1 1 0-1 1-1 1-1zm-3 0c0 1 0 1 0 1 0-1-1-1 0-1zm2 1c0-1 0-1 0 0zm-3-1c0 1 0 1 0 0zm3 0c0 1-1 1-1 0 0 0 1 0 1 0zm1 0c0 0 0 0 0 0zm-2 0c0 0 0 0 0 0zm0 0c-1 0-1 0-1 0h1zm2 0c-1 0-1 0-1 0h1zm-1 0c0 0 0 0 0 0zm-2 0c0 0 0 0-1 0 0 0 1 0 1 0zm-1 0h0zm2 0c0 0 0 0 0 0 0-1 0 0 1 0 0 0 0 0-1 0zm13 2c0 0 0-1-1-1 0-1 0-1-1-1 2-2 2 2 3 2 0-1-1-2-1-2 1 0 2 1 2 2 0-1 0-1-1-2 1 0 1 1 2 2 0 0 0-1 0-1 1 0 1 0 1 1 0 1-1 1 0 2h-1c0-1 0-1 0-1s-1 1-1 0c0 0 0 1-1 1 0-1 1-1 0-2 0 0 0 1 0 1 0 1 0 0 0 1 0-1 0-1 0-1-1-1-1-1-1-1 0 1 0 1 0 1s0-1-1-1c0 0 0 0 0 1-1-1 0-1-1-1h-1c0 0 0 0 0 0-1 0 0 1-1 0 0 0 0 0-1 0 0 0 0 0 0 1h-1c0 0 0 0 0 0l-1-1c0 1 0 1 0 1h-1 1c0 0 0 0-1 0 1-1 1-1 1-1 1 0 1 0 1 0s0 0 1 0c0 0 0 0-1 0 0-1 0-1 0-1 1 0 1 0 2 0 0 0 0 0 0 0h1c0 0-1 0-1-1 1 1 1 1 2 1l-1-1 2 2c0-1-1-2-2-2 1-1 2 2 3 2zm-1 0c0 0 0 0 0 0zm-1-1c0 1 0 0 0 0zm-2 0c0 0 0 0 0 0zm-1 1c0 0 0 0 0 0zm-6-2c0-1 0-1 0 0zm-2-1c0 0 0 0 0 1v-1zm-1 1c0 0 0 0 0 0zm3-1c0 1 0 1-1 1 1-1 1-1 1-1zm-3 1h-1c0-1 1-1 1 0zm4-1c0 0 0 0 0 0zm-2 0c0 1 0 0 0 0zm-1 0h0zm18 5c0-2 0-5 1-6 1-2 2-3 4-4 4-1 8 2 12 3 0 0 1 0 1 0 1 0 1 1 2 1 6 2 13-3 16 1 0 0 0 2 0 3 1 1 1 2 1 3-1 0-2-1-2-1-1-1-1-2-1-2-1 0-14-2-15-2-3-1-12-2-15 1 0 0-1 0-1 1-1 1-1 1-1 1-1 1-1 1-2 1zm2-1c0 0 0 0 0 0zm-18-4c0 0 0 0 0 0zm2 0c0 0 0 0 0 0zm-2 0h-1c1 0 1 0 1 0zm1 0c0 0 0-1 1-1 0 1 0 1-1 1zm-2 0c-1 0 0 0 0 0zm1 0c1 0 1 0 1-1 0 0 0 1 0 1 0 0 0 0-1 0zm-2 0c0-1 0 0 0 0 0 0 1 0 0 0zm4 0c0 0 0 0 0 0v-1c1 1 0 1 0 1zm-2 0c0 0 0 0 0 0 0-1 0-1 0-1 0 1 0 1 0 1zm0-1c0 1 0 1-1 1v-1c0 0 0 0 1 0zm3 0c0 0 0 0 0 0zm-5 0c1 0 1 0 1 0-1 1 0 0-1 0zm0 0c0 0 0 0 0 0zm5 0c0 0 0 0 0 0zm-1 0c0 0 0 0 0 0zm-2 0c0 0 1 0 1 0s0 0-1 0zm-1 0c0 0 0 0 0 0zm5 0c0 0 0 0 0 0zm-3 0c0 0 0 0 1 0 0 0 0 0-1 0zm-1 0c0 0 0 0 0 0zm-1 0c-1 0-1 0-1 0h1zm6 0c0 0 0 0 0 0 0-1 0-1 0 0zm-2 0c0 0 0 0 0 0 0-1 0-1 0-1 0 1 1 1 0 1zm-2 0c0 0 0 0 0 0 0-1 0 0 0-1 0 0 0 0 0 1zm2-1c0 1 0 1-1 1v-1c1 0 1 0 1 0zm1 1c1-1 1-1 1 0 0 0 0 0-1 0zm-4 0c0-1 0-1 0-1 1 0 1 0 1 1-1 0-1 0-1 0zm0-1c0 1 0 1-1 1 0-1 0-1 1-1zm6 0c-1 0-1 0 0 0zm-2 0c0 1 0 0-1 0 1 0 1 0 1 0zm7 0c0 0 0 0 0 0zm-4 0c0 0 0 0 0 0zm-4 0c0 0 0 0 0 0zm-1 0c0 0 0 0 0 0zm9 0c-1 0-1 0 0 0zm-4 0c-1 0-1 0 0 0zm-2 0c0 0 0 0 0 0zm-4 0c1 0 0 0 1 0h-1zm0 0c-1 0 0 0 0 0zm12 0c0 0 0 0 0 0zm-8 0c0 0 0 0-1 0 0 0 0 0 1 0zm-5 0c0 0 0 0 0 0zm12 0c0 0 0 0 0 0s1 0 0 0zm-9 0c-1 0-1 0-1 0s0 0 1 0zm12 0c0 0 0 0 0 0zm-3 0c0 0 0 0 0 0zm-4 0c0 0 0 0 0 0 0-1 0 0 0 0zm-4 0c0 0 0 0 0 0 0-1 0 0 0 0zm-42 49l1 2c1 2 4 3 6 5 1 0 1 0 2 1h1c0 0 0 0 0 0 0 2-2 4-3 6 1 0 1 0 1 0l2 2c0 0 0 0 1 1 4 3 10 5 15 6 0 0 1 1 2 1 0 0 1 1 1 1 0 1 1 1 1 1-1 1-1 1-2 2-1 1-2 2-2 3-5 7-6 16-11 23 0 1-1 2-2 3-1 0-1 0-2 1 0 2 0 1-1 2-1 1-2 1-3 2 0 4 4 6 4 7-1 0-5-3-7-2-1 0-1-1-1-1-1 0-1 0-1 1 0 0 0 0 0 1 0 1-1 1-1 3 0 0 0 1 0 2 0 1 0 1 0 3 0 1-1 1 0 2 0 1 0 1 0 2 0 1-1 3 1 3 1 0 2 0 2-1 0 0-1-1-1-2 0-1 0-2 0-2 0-2 0-1 1-3 1 0 1-1 1-1l-1 2c0 1 1 2 1 3 1 2-1 3 2 3 1 0 1-1 1-1-1-1-1-1-1-3-1-1 0-2 1-2 2 1 1 0 1 4 1 2 0 2 0 4 0 1 1 1 1 1 0 1 0 1 0 2-1 1 2 1 2 1 2 0 1-1 0-2-1-1 0-2 0-3 0-2 0-3 0-4 0-1 0-1 1-1 0 0 1 0 1 0 1 2 1 3 1 5 0 1 1 1 0 3 0 0 0 0 1 1 0 0 1 0 1 0 1 0 1-1 1-1 1-1-1-1-1-2 0-1 0-6 0-7 1-2 0-1 0-2 0 0 1-1 0-1 2 0 4 2 10 1 0 0 1 0 2 0 0 0 1 0 1 0 0 0 1 1 1 1 1 1 4 3 6 3 1 0 4 0 3-2 0-1-2-1-2-3 1 0 4 0 5 0v1c1 0 1 0 2 0 0 0 0-1 0-1 0 2 0 1 1 2 1 1 1 1 3 1 1 0 4 1 6 0 0 0 0-1 0-1-1-1-1-1-2-1 2-1 1 0 2 1 3 1 8 2 11 1 1 0 1-1 2-2 0 0 1 0 1 0 1 1 1 1 2 0 3 0 2 0 3-3 0-1 0-1 0-1 0-1 0-1 1-2v1c1 0 1-1 1-1h1l-1 1h1v1h1c0 0 0 0 0 0 1 0 1 0 1 0v1c0 1 1 3 2 4 0 0 0 0 1 0 1 1 3 1 3 0 0 0 0 0 1 0 1 1 2 3 7 2 1 0 9-1 8-3 0-1 0 0-1-1 0 0 0 0 0-1 0 0-1 0-2 0-2 0-3-1-4-2-2-1-2-1-2-2 0 0 0 0-1 0 0-1 0-1 0-1s0 0 1-1c0 0-1-2-1-3-1-3-3-9-3-13 2 0 3 0 5-1 1 0 2 0 2-1 1 0 2-1 2-2-1-1-2-3-3-4 0-1-2-3-2-4 3-1 6-2 8-4 2 0 3-2 4-3 0 1 0 1 1 1 1 1 1 0 2 0 1 0 2-1 3-2 1 0 3-1 4-2 0-1 0-1-1-2 1-1 3-3-1-4 1-1 1-1 1-1 1-2 3-4 3-6 1 0 1-2 1-2 0 0-2 2-3 2l-7 4c-1 1-1 0-2 0-1 0-2 1-3 1 0-1 0-2-1-3 0 0 0-1-1-2-1-3-2-7-2-10-1-1-1-2-1-3 0-1 0-2-1-2-1-1-1-1-2-1l-7-3c-5-3-5-3-5-8 2-1 3-2 4-4 1-3 1-3 2-6 0 0 0 0 1 0 2 0 2-1 2-2 0-2 1-4 1-5 0-3-2-4-2-5 0-1-1-4 0-5 0 2 0 2 1 2 0 0 0-1 0-1-1-1 0-1 0-2 0 1 0 2 1 1 0-1 0-1-1-1 0 0 0-1 0-2 1 0 1 0 1-1 0-1 0-1 0-2 0-1-1-2-1-2 0-1 0-2 0-3 0-3-3-3-6-3-2-2-3-4-5-5-1-1-2-2-3-3-2-1-3 0-4-1h-2c0 0-1 1-2 1-2 1-4 2-5 4-2 2-1 0-4 1-2 0-5 2-5 5-1-1-1-1-1 0 0 0 0 0 0 0 0 1 0 1 0 1v-1c0 0 0 0 0 0s0 0-1 0c-1 0 0-1-1-2h-1c0 0 0 0 0 0 0-1-1-1-1-1-2-1-4-1-6-1-3 0-6 2-9 3-3 2-5 4-7 7-1 2 0 3-2 4-1 1-3 3-4 4-3 5-6 9-9 15-1 3-4 8-5 10 0 1-1 2-1 2-2 2-3 2-5 2 1 1 1 3 2 3-1 1-3 3-4 4zm53-50c0 1 0 0-1 0 0 1 0 1 0 1 0-1 0 0 0-1 1 0 1 0 1 0zm-10 1c0-1 1-1 1 0 0 0 0 0-1 0zm-1 0c-1 0-1 0-1 0s0-1 1 0zm-2 0c0 0 0 0 0 0zm11 0c0 0 0 0 0 0 0-1 1-1 1 0 0 0 0 0-1 0zm-2 0c0-1 0-1 0-1 0 1 0 1 0 1zm-2 0c0-1 0 0 0 0zm0 0c-1 0 0 0 0 0 0-1 0-1 0-1 0 1 0 1 0 1zm-2 0c0-1 0-1 0-1 0 1 0 1 0 1zm-6 0c0 0 0 0 0 0 0-1 0-1 0-1v1zm14-1c1 0 0 1 0 1 0 0 0 0 0-1zm-2 0c0 1 0 1 0 1 0-1 0-1 0-1zm-2 0c0 1-1 1-1 1 0-1 0-1 1-1zm-4 0c0 1-1 1-1 1 0-1 0-1 1-1zm-2 1c0-1 0-1 0 0zm0 0h-1c0-1 0-1 0-1 1 0 1 0 1 1zm7-1c0 0 0 0 0 0zm0 0c0 0 0 0 0 0h-1c0 0 0 0 1 0zm-2 0c0 1 0 1 0 0zm-2 0c0 0 0 0 0 0h-1c0 0 0 0 1 0zm-5 0c-1 1-1 0-1 0 1 0 1 0 1 0zm11 0c0 0 0 0 0 0zm-11 0c1 0 1 0 1 0-1 0 0 0-1 0zm11 0c-1 0 0 0-1 0 1 0 0 0 1 0zm-3 0c0 0 0 0 0 0zm-2 0c0 0 0 0 0 0zm-2 0c0 0 0 0 0 0zm-1 0c0 0 0 0 0 0zm-3 0c0 0 0 0 0 0zm-1 0c0 0 0 0 0 0zm-12 9c1-2 3-4 4-5 0-1 1-2 2-3 1 0 2-1 3-1 0 1 0 0-1 1 0 0 0 0 0 0 1 0 2-1 3-1-1 1-1 1-2 1l-4 3h1c-1 0-1 0-1 1 0 0 1-1 1-1 0 1 0 0-1 1 0 1 0 0 0 0v1c-1 1 0 1-1 2 1 0 1-1 1 0-1 0-1 0-1 0s0 0-1 1c0-1 0 0 0-1 0-1 1-2 1-3l-1 1c1-1 1-2 2-2-1 0-1 0-2 1 0 0 0 0-1 1 0 1-1 2-1 2 0 1 0 1-1 1zm7-8c0 0 0 0 0 0h1c0 0 0 0-1 0l-1 1c-1 0-1 0-2 1l3-2zm11-1c1 0 1 0 1 0s0 0-1 0zm-3 0c0 0 0 0 0 0zm8 0c0 0 0 0-1 0h1zm-3 0c0 0 0 0 0 0zm-3 0c0 0-1 0-1 0 0 0 0 0 1 0zm-3 0c0 0 0 0 0 0zm13 0c-1 0-1 0-1 0 1 0 0 0 1 0zm-2 0c0 0-1 0-1 0h1zm-3 0c-1 0-1 0-1 0s0 0 1 0zm-8 0c-1 0-1 0-1 0 0-1 1 0 1 0zm7 0c0 0 0 0 0 0zm-2 0c0-1 0 0 0 0zm-1 0c0-1 0-1 0-1s0 0 0 1zm-2 0c0 0 0 0-1 0 0 0 0-1 1-1 0 0 0 0 0 1zm8 0c-1 0-1 0-1 0 0-1 0-1 0-1 1 0 1 0 1 1zm-7 0c0 0 0 0 0 0zm-2 0c0 0 0 0 0 0 0-1 0-1 0-1v1zm8 0c0 0 0-1 0-1 0 0 0 1 0 1zm-1-1c0 1 0 1 0 0zm-4 0c1 0 1 0 1 0 0 1-1 0-1 0zm-2 0c0 0 0 0 0 0zm8 0c0 0 0 0 0 0zm-2 0c0 0 0 0 0 0h-1c0 0 0 0 1 0zm-1 0zm-6 0c1 0 0 0 1 0 0 0 0 0-1 0zm8 0c0 0 0 0 1 0h-1zm0 0h-1c0 0 1 0 1 0zm-3 0c0 0 0 0 0 0zm-1 0c0 0 0 0 0 0zm-2 0c0 0 1 0 1 0 0 0 0 0-1 0zm0-1c0 1 0 1 0 1-1 0 0-1 0-1zm7 1c0 0 0 0 0 0 0-1 0-1 0-1 0 1 0 1 0 1zm-3 0c0 0 0 0 0 0l1-1c0 1 0 1-1 1zm0-1c0 1 0 1-1 1 0-1 0-1 1-1zm2 0c0 1 0 1 0 1 0-1 0-1 0-1zm-3 1c0 0 0 0-1 0 0-1 1-1 1-1 0 0 0 0 0 1zm-1-1c0 1 0 0 0 1-1 0-1-1 0-1zm-3 0c0 1 0 0 0 0zm3 0c0 1 0 1 0 0zm-3 0c-1 1 0 0-1 0 1 0 0 0 1 0zm4 0c0 1 0 0 0 0zm-3 0c0 0 1 0 1 0 0 0 0 0-1 0zm0 0c0 0 0 0 0 0zm2 0c1 0 1 0 1 0-1 0 0 0-1 0zm-3 0c0 0 0 0 0 0zm3 0c-1 0-1 0-1 0 0-1 1 0 1 0zm-3 0c-1 0 0 0-1 0 1 0 0 0 1 0zm2 0c0 0 0 0 0 0 0-1 0-1 0-1 0 1 0 1 0 1zm1-1c0 1 0 1 0 0zm-2 1c0 0 0 0-1 0 0-1 1-1 1 0zm-1-1c0 1 0 0 0 0zm3 0c0 1-1 1-1 0 1 0 1 0 1 0zm-1 0c-1 0 0 0 0 0zm1 0c0 0 0 0 0 0zm-1 0c0 0 0 0 0 0zm17-2c0 0 2-2 2-2 6-4 10-5 15 0 1 1 4 4 4 5-1 1-4 1-6 2-3 0-7-1-10-3l-5-2z"/><path d="m395 600h1c0-1 0-1-1-2 0 0 0 0 1 0 1-1 0-1 1-1 1 0 1-1 1-2l1-1c0 0 0 0 0 0-1 0-2 0-3 0h1v-1c0 0 0 0-1-1 1 0 1 0 2 1 0 0 1 0 1 0 0 0 0 0 0 1v-1c0 0-1 0-1-1 0-1 0-1 0-1-1-1 0-1-1-2-1-1 1 0 0-2 0-1-1-1-1-1 0 0 1-2-1-2 0 0 0 0-1 0 0 0 0-1 0-1s0 1-1 1c0 0 0 0 0-1-1 0 0 0-1 0v1c0 0 0-1 0-1-1-1-1-1-1-1 0-1 0-1 0-1 1 0 1 1 1 1v1c0 0 0 0 0 0 0-1 0-1 0-2-1 0-1 0-1 0-1 0 0 0 0 1-1 0-2 0-2 0l-1 1c0 0 0 0 0 0l1-1c-1-1 0 0-1 0h-1c-1-1-1-1-1-1-1 0-1 0-1 1h1c0-1 0 0 0 0 0 0 0 0 1 0-1 0 0 0-1 0h1c0 0 1 0 1 0 0 0 0 0-1 0 0 1 0 1 0 1 1-1 1-1 0-1h1v1c0 0 0 0 0 0 2 1 2 1 3 0 0 0 0 1-1 1-1 0-1 0-1 0s0 0 1 1v1c1 0 1 0 0 1 0 0 0-1 0-1 0 0 0 0 0-1 0 0 0 0-1 0 0 0 0 0 0-1 0 0-1 0-1 0 0 0 0 0 0-1 0 1 0 1-1 2 0 0 0-1 0-1v1c-1 0-1 0-2 0 0 1 1 0 0 1 0-1 0-1 0-1 1 0 1-1 1-1 0 0 1-1 1 0v-1c0 0 0 0 0 0v1c0 0 0 0 0-1 0 0 0 0 0 0h-1c0 0 0 0 0 0 0 1 0 0-1 1 0 0 0 0 0-1 1 0 0 1 1 0h1c0 0 0 0 0 0-1 0 0 0-1 0 1-1 0-1 1-1l0 1v-1c-1 0-1 0-1 0s-1 1-1 2c0-1 0-1 0-1 0-1 0 0-1 0 0 0 1-1 1-1 0 0-1 0-1 0 0 0 0 0 1 0 0 0 0 0 0 0s0 0-1 0c0 0 0 0 0 0v1c0 0 0 0 0 0-1 0 0 0-1 0-1 0-1-1-2 0 0 0 0 0 0 1 0 1 1 1 0 2 0 0 0 1 0 1-1 0-1 0-1 1-1 0-1-1-2-1 0-2-2-3-3-2-1 1 0 2 0 2 0 0-1-1-1-1 0 0-3 0-3 0-1 0 0 1 0 2 0 0 1 0 1 0l1 1c-1 0-3-1-5 0 0 0 0 0 0 1 1 0 1 0 1 0-1 0-1 1-2 1 0 0 0 1 0 1 1 1 2 1 3 1 3 0 4 0 6 0 1 0 2 0 3 0 0 1 0 1 0 2 0 0 1 0 1 0 1 0 2 1 3 1 1 0 1 0 2 1 1 0 2 0 2 0l1 2c0 0 0 0 1 0 1 0 3 1 2-1 1 0 1 1 2 1h-1c0-1 0-1-1-1 1-1 1-1 2-1l-1 1c1 0 1-1 1 0l-1 0c-1 0 0-1 0 0 0 0 1 0 1 1 0 0 0 0 1 1 0-1 0-1 0-1 1 1 1 1 1 1zm-2-2c0 0 0 0 1 1 0 0 0 0-1 0h1c-1-1-1 0-1-1zm1 0c0 0 0 0 0 0zm-1 0c0-1 0-1 0-1h1c0 0 0 0 0 0-1 0-1 0-1-1 1 0 1 0 2 0 0 0-1 0-1 0h1c0-1 0 0 0-1 0 0 0 0 0 1 1 0 2 1 1 1-1 1-1 0-1 1l-1 1v-1c0 0 0 0 0 0 0-1 0 0 0-1-1 0 0 0-1 1zm1-1c0 0 0 0 0 0zm-1 0c0 0-1 0 0 0zm-1 0v-1l1-1c0 0 0 0 0 0h-1c0 0 0 0 0 0 1-1 1 0 2-1 0 0 0 0 0-1-1 0-1 0-1 0-1-1-1-1-1-1 1-1 1 0 2-1v1c0 0-1 0-1 0 0 1 0 0 1 1 0 0 0 1 0 2-1 0 0 0 0 0h-1c0-1 0-1 0-1 0 1 0 1 1 1h-1c1 0 1 0 1 1-1-1 0-1-1-1 0 1 0 1 0 2 0 0 0-1 0-1 0 0 0 0 0 1h-1zm2-1c0 0 0 0 0-1h1c0-1 0 0 0-1 1 1 1 2 1 1 1 0 1 0 1 0 1 1 0 2-1 2 0-1-1-3-2-1zm0-7c1 0 2 3 1 4 0-1 0-2-1-2 0-1 0-1 0-2zm0 0v1l-1-1h1zm-3 2c-1 1-1 1-2 1 0 0 0 0-1-1 1 0 3 1 2-1l-2-1c1 0 2 0 3 0 1 1 2 0 2 1 0 1-1 1-2 1zm-1-4c1 0 1 0 1 0s0 0 0-1c1 1 1 1 1 2 1 0 1 0 1 0 0-1 0-1 0-1 1 0 1 1 1 1 0 1 0 1-1 1 0 0-1-2-2-2 1 0 1 0 1 1 0 0 0 0 0 1 1 0 1 0 1 0-2 0-1 0-2-1 0 0 0 0 0 0v-1c0 1 0 1-1 1 0 0 0 0 0-1zm1 0c0 0 0 0 0 0zm-5 2c-1 0-1 0-2 0 0 0 0 0 1 1 1 1 1 0 1 1 0 1 0 1 0 2 1 0 0-1 1-1 1 0 1 1 1 2 1 0 1-1 1-2 2 1 2 3 1 3-1 1-1 0-2-1 0 0-1-1-1-1-1 0 0 1-2 1 1-2 0-2 0-3 0-1 0-1 0-1-1-1 0 0-2-1 0 0 0 0-1-1 2 0 4 1 4-1 0 1 0 1 0 2zm3-2c-1 0 0 0 0 0 0 0 0 0 1 0-1 1 0 1 0 1 0 1 0 0 0 1 0 0 0 0-1-1 0-1 0 0 0-1zm-3 0c0-1 0-2 1-2 1 0 2 4 1 5 0-1-1-3-2-3zm9-1c0 1 0 0 0 1 0 0 0-1-1-1h1zm-13 4c0 0-1 0-1 1l-1 1c1 0 1 1 2 1 0 0 0 0 1 0 0 0 0 1 0 1 1 0 0 0 1 0l1 1c1 0 1 0 1 0 1 0 0 1 0 2 0 0-1 0-1-1-1 0-4-1-5-1-1-2 0-2-2-2-1-1-2-1-3 0-2 0-7-1-8-1 0 0 1-1 1-1 1-1 1 0 2-1 0 0 0 0-1 0-1 0-1 0-1 0 1-2 5 0 6-1 0 0-3-1-3-3 0 0 2 0 3 0 0 0 1 1 1 1 0 1 0 1 0 1 1 0 0 0 1 0 0-1-1-1-1-2-1-1 2-2 3 0 0 1 1 2 2 2 1 0 1 0 2 2zm0-6c1 0 1 0 1 0 0 1-1 1-1 1s1 0 2 0c0 0 0 0 1 0h-1c-1 0-1 0-1 0-1 1-1 1-1 1 0-1 0-1 0-1s1-1 0-1zm12 2c0-1 0-1-1-1v-1c0 0 0 0 1 0 1 1 2 0 2 1 0 1-2 1-3 1 0 0 1 0 1 0zm0-2c0 0 0 0 0 0zm-10 0c-1-1-1-1-2 0 0-1-1 0-1-1 1-1 2 0 3 1zm2-2c0 0 0 0 0 1v-1z"/><path d="m395 537v-1h1c0 0 0 0 1 0h1 3v3c0 0-3 0-4 0l-2 1c0-1 0-1 0-1 0-1 0-2 0-2zm6 2l1-3c0 0 3 0 4 0 4 0 3 0 3 2 0 2 1 1-3 1-2 0-3 0-5 0zm0-8h3l-1 3h-2v-3zm-3 0h3v3c-1 0-2 0-3 0v-3zm-7 2v1h1c1 0 1 0 2 0h1c0 1 0 0 0 0h1 2l6 1c0 0 0 0 0-1v-3c0 0 5 0 5 1 0 0 0 0 0 0v4c-1 0-4 0-6 0-1 0-3-1-5-1h-1c0 0 0 0 0 0-1 0-1 0-1 0h-1c-1 0 0 0-1 1 0 0 0 1 0 1v1c0 0 0 1 0 1v1c0 0 0 0 0 0-1 0-1 0-1 0h-1c0 0-1 0-1 0 0 0-1 0-1 0h-1-1c0 0 0 0 0 0h-1c0 0 0 0-1 0h-1c0 0 0 0 0 0-1 0 0 0-1 0v-1c0 0 0-1 1-1v-1c0-1 0-1 0-2v-1c0 0 0-1 0-1v-1c0-1 0-1 0-2 0 0 0 0 0 0 1 0 2 0 2 0 1 0 1 0 1 0h1 1 1c0 1 0 1 0 2v1zm0-3h1c1 0 1 0 2 0 1 0 2 0 2 0h1c0 0 0 0 0 0h1c0 0 0 1 0 1v1 1c0 0 0 1 0 1-1 0-2 0-2 0h-1c0 0 0 0 0 0-1 0-1 0-1 0h-1c0 0-1 0-1 0l-1-1c0 0 0 1 0 0 0-1 0-1 0-1v-1c0 0 0 0 0 0 0-1 0-1 0-1zm-5-1c-1 0-1 0-1 0-1 1-1 0-1 1v1 2c0 0 0 0 0 1v1c0 1 0 2 0 3v1 1c1 0 10 0 10 0 0 0 0 0 1 0h8c2 0 6 0 7 0v-9c-2 0-4 0-6-1-2 0-4 0-6 0-1 0-1 0-1 0-1 0-1 0-2 0h-2c-2 0-2 0-2-1v1l-1-1c-1 0-1 1-2 0-1 1-2 0-2 0-1 0-1 0 0 0z"/><path d="m382 539h1v1h-1v-1zm-1 0h1v1h-1v-1zm0 0v1h-1l1-1zm-1 0v1-1zm2 0c0-1 0-1 0-1h1v1h-1zm0-1v1h-1l1-1zm-1 0v1-1zm-1-1v1 1-2zm3-1h1v2h-1v-2zm0 0v2l-1-1 1-1zm-1 1c-1 0 0 0 0-1v1zm-1-1v1-1zm-1 0v1-1zm4 0c-1 0-1 0-1-1 1 0 1 0 1 0v1zm-1-1v1-1zm-1 0v1-1zm-2 0h1l-1 1v-1zm1 0v1-1zm0-1c1 0 0 0 0 1v-1zm-1 0h1v1h-1v-1zm2 0v1-1zm1 0c1 0 0 0 0 1v-1zm1-1v1-1zm-4 0h1v1h-1v-1zm2 0h1v1c0-1 0-1 0-1s0 0-1 0v1-1zm-1 0h1v1h-1v-1zm3-1v-1 2-1zm-2-1c1 0 0 1 1 1h-1v-1zm-1 0h1v2l-1-1v-1zm-1 0h1v1h-1v-1zm3 0l1 1-1 1v-2zm0 0c0 0 0 0 0-1l1 1h-1zm-1-1h1v1h-1v-1zm-1 0h1v1h-1v-1zm-1 0h1v1h-1v-1zm3-1h1v1h-1v-1zm-1 0h1c0 1 0 1-1 1v-1zm-1 0h1v1h-1v-1zm-1 0h1v1h-1v-1zm17 1c0 0 0 0 0-1v-1h1v2c-1 0-1 0-1 0zm-1-1c0 0 0 0 0-1h1v2l-1-1zm-1-1h1v1c-1 1-1 0-1 0v-1zm-1 0h1c0 1 0 1 0 1h-1v-1zm-1 0h1v1h-1v-1zm-2 0h1v1c0 0 0 0-1 0v-1zm-1 0h1v1h-1v-1zm-2 0h1v1h-1v-1zm4 0h1v1h-1v-1zm-7 0h1l-1 1v-1zm-1 0c1 0 1 0 1 0v1h-1v-1zm5 0h1v1h-1v-1zm-7 0h1c0 0 0 0 0 1h-1v-1zm-1 0h1v1h-1v-1zm-1 0h1v1c-1 0-1 0-1 0v-1zm17-1h1v1h-1v-1zm-1 1c0-1 0-1 1-1v1h-1zm-1-1h1v1h-1v-1zm-2 0h1c0 0 0 1 0 1h-1v-1zm-1 0h1v1h-1v-1zm-1 0h1v1h-1v-1zm-3 0c0 0 0 0 0 1v-1zm-1 0v1-1zm-1 0h1l-1 1v-1zm8 0h1v1h-1v-1zm-9 0h1c0 0 0 0 0 1-1 0 0 0-1 0v-1zm-1 0h1v1h-1v-1zm-1 2c0-1 0-1 0-1 0-1 0-1 0-1h1c0 1 0 1-1 1h1v1h-1zm7-2h1v1h-1v-1zm-9 0c0-1 0-1 0-1h1v2l-1-1zm-1-1l1 1v1l-1-1v-1zm9 1c0 0 0 0 1 0v1l-1-1v1h-1l1-1zm8-1h1v1h-1v-1zm-1 0h1v1h-1v-1zm-5 0h1v1h-1v-1zm-1 0h1v1h-1v-1zm5 0h1v1h-1v-1zm-6 0v1-1zm-1-1v1 1-2zm4 1h1v1c0 0 0 0 0 0h-1v-1zm-7-1h1v1h-1v-1zm-2 0h1v1c-1 0-1 0-1 0v-1zm0 1c0 1 0 0 0 0s0 0 0 2h-1c0-1 0-1 0-2 0 0 0 0 0-1h1v1zm4-1h1l-1 2v-2zm-3 0h1v1h-1v-1zm-3 0c1 0 1 0 1 1h-1v-1zm-1 0h1v1h-1v-1zm4 15h-1c0 0 0-1 0-1h1c0 0 0 0 0 0v-1 1h-1v-1h1c0-1 0-2 0-3v-1c0 0 0 1 0 0 0-1 0-1 0-1v-2c0 0 0 0 0 0v-1-1h1c-1 1-1 0-1 1 0-1 0 0 1-1 0 0 0 0 1 0h-1c0 0 0 0 1 0v-1 1c0 0 0 0 0 0s1 1 2 0c0 0 0 0-1 0v-1h1v1c0 0-1 0 0 0 1 1 1 0 2 0 0 0 1 1 1 1 0 0 0 0 0-1 0 0 0 0 0 0 0 1 0 1 2 1h2c1 0 1 0 2 0 0 0 0 0 1 0 0-1 0-3 0-4-1 0-1 0-2 0-2 0-2 0-2 0h1v1h-1c0 0 0 0 0 0 0-1 0-1 0-1v1h-1c0 0 0-1 0-1h1c0 0 0 0 0 0h-4v1-1c0-1 0 0 0-1h-4c0 0 0 0 1 0v2l-1-1c0 0 0 0 0-1h-6l-1 15h5z"/><path d="m387 539h1v1h-1v-1zm-1 0h1v1h-1v-1zm5 0c0 0 0 0 0 0 1 0 1 0 1 1h-1v-1zm-1 0c0 0 0 0 1 0 0 1 0 1-1 1 0 0 0 0 0-1zm3-1h1v1h-1v-1zm-1 0h1v1h-1c0 0 0 0 0-1zm-1 0h1v1h-1v-1zm-1 0h1v1h-1v-1zm-2 0h1v1h-1c0 0 0-1 0-1zm-1 0h1v1h-1v-1zm-1 0h1v1h-1v-1zm-1 0h1v1h-1v-1zm0 0v1-1zm8-1h1v1h-1v-1zm-1 1c0-1 0-1 0-1h1v1h-1zm-1-1h1v1h-1v-1zm-2 0h1v1h-1v-1zm-1 0c0 0 0 0 1 0v1h-1v-1zm-1 0h1v1h-1v-1zm-2 1c0-1 0-1 0-1h1c0 0 0 0 0 0 0-1 0 0 1 0v1c-1 0 0 0-1 0 0 0 0 0-1 0zm4-2l1-1v2h-1c0-1 0-1 0-1zm4 1v-1c0 0 1 0 1 0 0 0 0 0 0 0v1c0 0 0 0 0-1-1 1 0 1-1 1zm0 0h-1v-1h1v1zm-5-2h1v2h-1v-2zm-1 0h1v1h-1v-1zm-2 0h1v1h-1c0 0 0 0 0-1zm0 0v1-1zm6 3h-1v-1c0 0 0 0 1 0-1 0-1 0-1-1 1 0 1-1 1 0l1 0v1h-1v-1c0 1 0 1 0 2zm-4-2h-1v-1h1v1zm6-2h1v1l-1 1c0-1 0-1 0-2zm-1 0h1v2l-1-1v-1zm-2 0h1v1h-1v-1zm-1 0c1 0 1 0 1 0v1h-1v-1zm7 1h1-1zm-9-1h1v1h-1v-1zm-1 0h1v1h-1v-1zm8 2c0-1 0-1 0-1l1-1c0 1 0 2-1 2zm-2-1h-1v-1c0 0 1 0 1 0v1zm-3 0h-1c0 0 0 0 0-1h1v1zm-3 0h-1v-1h1v1zm4-2h1c0 1 0 0 0 1h-1v-1zm-2 1v-1h1v1h-1zm-1-1h1v1h-1v-1zm-2 0h1v1h-1v-1zm0 0v1c0 0 0-1 0-1zm5 1h-1v-1h1v1zm-3 0h-1v-1h1v1zm3-1c-1 0-1 0-1-1h1v1zm-3-1h1v1h-1v-1zm-1 0h1v1h-1v-1zm2 0h1v1h-1v-1zm-2 0v1-1zm4-1h1v1h-1v-1zm-1 0h1v1h-1v-1zm-1 0h1v1h-1v-1zm-1-1v2h-1l1-2zm-1 0v1h-1l1-1zm-1 0v1-1zm2 0h1c0 1 0 0 0 0v2h-1c0-2 0-2 1-2h-1zm0 0c-1 0 0 0-1 0 1 0 1 0 1 0zm-1 0c-1 0 0 0 0 0zm-1 0c0 1 0 1 0 2 0 0 0-1 0 0 0 0 0 0 0 1 0 0 0 1 0 1 0 0 0 1 0 1 0 1 0 1 0 2v1c-1 0-1 1-1 1h1v1h-1c1 0 0 0 1 0v-1h1v1c1 0 1 0 1 0h1v-1h1v1-1h1-1v-1h1v1c0 0 0 0 0 0 0 1 0 0 0 1l1 0c0 0 1 0 1 0v-1h1v1c0 0 0 0 1 0v-1-1 1c0 0 0-1 0-1v-1c0 0 0-1 0-1 1-1 0-1 1-1v-1l1 1c0 0 0 0 1 0h1v-1h-2 1-1-1c0 0 0 0 0 0h-1c-1 0-1 0-2 0h-1v-1h-1c0-1 0-1 1-1 0-1 0-1 0-2h-1-1-1c0 0 0 0-1 0 0 0-1 0-2 0z"/><path d="m402 468c-1-1-2-1-3-1-2-1-4 0-6 1-1 0-3 1-3 2 0 0 0 0 1 0l4-1c1 0 1 0 2 0 2-1 2-1 5-1z"/><path d="m361 486l2 2c0 0 1 0 1 0 3 1 3 0 6 0 0 0 1-1 2-1 0 1-2 2-2 3-1 0-3 0-4 0-2 0-4-1-5-2 0-1 0-1 0-2zm2 1c0 0 0 0-1 0 0-1 0-1 0-1v-1c0 0 1 1 2 1 0 0 1 1 2 1 2 0 3 0 6-1 0 1-1 1-1 1 0 0 0 0 0 0s-1 0-1 1c-1 0-1 0-1 0-1 0-1 0-1 0-1 0-1 0-1 0-3 0-1 0-2 0l-1-1c-1 0-1 0-1 0zm9-1c-2 0-4 1-6 0-3 0-4-1-4-1 0 0 2 0 2 0 2 0 2 1 3 1 0 0 0-1 2-1 1 1 2 1 3 1zm1 0c-1 0-2 0-3-1-1 0-1 0-2 0-1 0-1 0-1 1-1-1-1-1-2-1-1 0-2 0-4 0 0 0-1 0-1-1 0 2 1 4 2 4 1 1 2 2 4 2 2 0 3 1 5-1 0 0 1-1 1-1 1-1 1-2 1-2z"/><path d="m361 459v1-1zm-2 0c0-1 1-2 2-3-1 0-1 1-1 0v0c-1 1 0 1-1 1l-2 2c0 0 1 1 1 1-1 1-1 1-1 1l-2 3c1 0 1-1 1-1v2c0-1 2-4 2-4 1-1 1-1 2-2-1 1-1 1-1 2 0 0 1-1 2-1 0 0-1 0-1 1 0 0 1-1 1-1 0 0 1-1 1-1 0 0 0 0 0-1 0 0-1 1-1 1 0 0 0 0-1 0 0 0 1 0 1-1l2-2c-1 1-2 2-3 2 0 0 2-2 2-2 0 0-3 3-3 3z"/><path d="m397 471c-1 0 0 0 0 0zm1-1c1 0 1 1 1 1-1 0-1 0-1 0v-1zm-2 2c-1 0-1 0-1 0-1 0-1 0-2 0 1-1 1-1 3-2-1 1-1 1 0 2zm-3-1c1 0 1 0 1 0-1 1-1 1-1 1 1 0 1 0 2 0 1 1 0 0 2 0 1 0 1 0 1 0l2-1c0 0 0 0-1 0h1c0-1 0-1-1-1 0 0 0 0 0 0-2 0-1-1-3 0-1 0-1 0-3 1z"/><path d="m371 475c0 0 1-1 1-1 0 1 0 1 1 1h-2zm4 0c0 0 0 0 0-1 0 0 1 0 1 1 0 0-1 0-1 0zm-2 0c0-1 0 0 0-1 1 0 1 1 1 1h-1zm-2 0c0-1 1-2 2-2-1 1-1 0-2 2 0 1 1 0 1 0 1 1 1 1 2 1 1 0 3-1 3-1-1-1 0 0-1-1l-1-1c2 0 2 1 2 1s-2-1-3-1c-1 0-1 0-2 0-1 1-1 1-1 2z"/><path d="m362 473c1 0 2 1 2 2l-2-1c0 0 0 0 0-1zm-3 1c0-1 1-1 1-1 0 0 0 1 0 1 0 0-1 0-1 0zm2 0c0-1 0-1 0-1 1 0 1 0 0 1zm-2-1c0 0 0-1 1-1l-1 1-1 0v1c2 0 2 0 5 1 0 0 1 0 1 0 0 0 0-1 0-2-1 0-1-1-2-1 2 0 2 2 2 2v-1c-1-1-1-1-2-1-1 0-2 0-3 0 0 1 0 0 0 1z"/><path d="m377 507h-1c0-1-2-2-2-3 0 0 0-1 0-1-1 0 0 0-1 1-1 0 0-1-2-1 0 0 0 0 0 0 1 0 1 0 2 1 0 0 0-1 1-1 0 0 0 0 0 1 0 1 1 1 1 1s-1 0-2 0c0 0 0 0 1 0 0 0 0 0 0 1 1 0 1 0 1 1-3 0-7 3-8 4 0-1 0-2 0-3 0 0-1-1-1-2 0 2 1 4 1 5l-2-2c0 0-1-1-1-1 0 1 2 2 2 3 1 0 2-1 3-1 0-1 1-1 2-1 1-1 4-2 6-2-1 0-1 0 0 0 0-1-1-3-1-4-1-1 0-1 0-3 1 0 1 1 1 1 0 0 0 0 0-1 0 0 0 0-1 0 0 2-1 2-1 3 1 2 2 2 2 4zm-14 1c0-1 0-1 0-1s0 0 0-1c0 0 1 0 1 0 1-1 0-1 0-2 1 0 1 1 2 0-2 0-1 0-2 0 0 1 1 1 0 2 0 1-1 0-1 0 0 1 0 1 0 2h1c-1 0 0 0-1 0z"/><path d="m356 471c1 0 1-1 2-1 1 0 2 0 3 0 2 1 3 2 4 2 0 0 0 0 0-1 0 0-3-1-4-2-2 0-3 0-4 1 0 0 0 0-1 1 0 0 0 0 0 0z"/><path d="m360 542l1-1h1l-1 1h-1zm11 0c0 0-1 0-1 1 0 0 0 0-1 0-1 0-2 0-3 0-1 0-3 0-5-1l1-1c0 0-1 0-1 0v-1c0 0 2 1 2 1l8 1zm0 0c0 0 0 0 0 0h-2c-1-1-2-1-3-1-2 0-3-1-5-1 0-1 0 0 2 0 2 0 8 1 8 2zm0-1c0 1 0 0-2 0-2 0-6-1-8-2l5 1c2 0 4 1 5 1zm-8 2c2 0 4 0 6 0 1 0 1 1 1 0v0l1-1c0 0 0 0 0 0l1-1c0 0 0 0 0 0s0 0-1 0l-3-1c0 0 0 0 0 0l-4-1c-1 0-2 0-3 0l-1 3 3 1z"/><path d="m363 508c0 1-2 1-2-2v-1c0 0 0 0 0 0v2c-1 0-1 0-1 0h-2c0 0 0 0-1 0 0 1 0 1-1 0 0 0 0 0-1 0 0 0 0 0 0-1 0 0 0 0 0 0 0-1 0-2 0-2 0-1 0-1 0-2 0 1 0 1 1 2 0 0 0 0 1 0 0 0 0-1 0-1 1 0 1 0 1 1 0 0 2-2 2-1 0 0 1 0 1 0 0 1 1 0 1 0 0 0 0 1-1 1 0 0 0 0 0 1v-1c0 0 1 0 1-1 0 0 0 0-1 0-1 0-1 0-1-1 0 0-1 1-1 1h-1c0 1 0 1 0 1 0-1 0-1-1-1 0 1 0 0 0 1-1 0-1 0-2-1 0 0 0-1 0-1 0-2 1-2 3-2-1 1-2 0-2 0 0 1-1 1-1 2 0-1 1-1 1-1 0 0 1 0 2-1 0 0-3-1-3 2 0 0 0 0 0 1v2c0 1 0 0 0 1-1 1 1 1 2 2 0 0 0 0-1 0v1c1 0 0-1 1-1 1 0 1 0 1-1 1 0 0 0 1 0h1c0 0 1 0 1 0-1 1-4 2-5 2 1 0 2 0 3 0 0-1 1-1 2-1h1c1 1 2 3 3 3 0-1 0-1-1-1 0-1-1-1-1-1v-1c0 0 0 0 0 0h1c0 0 0 0 0 0h-1c1 0 0 0 1 0h-1z"/><path d="m397 534c0-1 0-1 0-1 1 0 0 0 1 1-1 0 0 0-1 0zm-1-1c0 0 0 0 1 0v1c-1 0-1 0-1 0s0 0 0-1zm-2 0c1 0 1 0 1 1 0 0 0 0-1 0 0 0 0 0 0-1zm-2 0h1c0 0-1 1-1 0zm4-1h1v1h-1v-1zm-1 0h1v1c0 0 0 0 0 0h-1v-1zm-1 0h1v1h-1v-1zm-1 0h1v1h-1v-1zm-1 1v-1h1v1h-1zm-1-1h1v1h-1c0 0 0-1 0-1zm6-1h1v1h-1v-1zm-1 0h1v1h-1v-1zm-1 0h1v1h-1v-1zm-1 0h1v1h-1v-1zm-1 0h1v1h-1v-1zm-1 0h1v1h-1v-1zm4 0c-1 0-1 0-1-1 1 0 1 1 1 1zm-5 0c0 0 0-1 0 0h1v1h-1c0 0 0 0 0 1h1v1c0 0 1 0 1 0v-1h1v1c0 0 0 0 1 0v-1h1v1c0 0 1 0 2 0 0 0 0-1 0-1h-1v-1h1v-1c0 0 0-1 0-1v1c-1 0-1 0-1 0v-1 1h-1v-1c0 0-1 0-2 0 1 1 1 0 1 1l-1 0v-1 1c-1 0-1 0-1-1h1c-1 0-1 0-2 0h1c0 1-1 1-1 0 0 1 0 0-1 1v-1c0 0 0 0 0 1z"/><path d="m387 487c1-1 1-2 2-2 1-1 2 0 2-1 1 0 1 0 2 0 2 0 2 1 4 1-1 2-2 3-4 3-3 1-4 1-5-1h-1zm-1 0c1 0 1 0 1 0s0 0 1 1c0 0 0 1 1 1 1 0 5 0 7-2 0 0 1-2 1-3-1 1-3 0-5 0-1 0-1 0-1 1-1 0-3-1-4 1 0 1 0 0-1 1z"/><path d="m371 472v1c2-1 4-2 6-2 1 0 1 1 2 1 0-2-2-2-4-1-1 0-3 0-4 1z"/><path d="m365 480c-1 1 0 1 0 2-1 0-1 0-2 0 0-2 1-2 1-2s-2 2 0 2c1 1 1 0 2 0 0 1 0 1 1 2 1 0 1-1 1-1 1-1 1 0 2 0 1 0 1-1 1-2 0-1 0-1-1-1 0 0 2 3-1 2 0 0 1 0 1-1 0-1 0-2-1-2 0 0 1 1 1 1 0 1-1 2-1 2-1 1-1 1-1 1-1 1-2 0-2-1 0 0 0 0-1 0 0-1 0-1 0-2z"/><path d="m387 472c0 0 0 1 0 1 1 2-1 6 0 8 0 0-1 0-1 0-1-1 0-1 0-2 0 0-1 1-1 2 1 1 2 1 3 1h-1c0 0 0 0 0 0s0 0-1 0c0-1 0 0 0-1 1 0 1 1 2 1 0 0 0 0 1 0 0 0 0 0 0 0-1 0-1-1-2-1 0-1 0-2 0-3 0-1 1-5 0-6z"/><path d="m388 487c0 0 0 0 1-1 0 0 0 1 1 1 1 0 1-1 2-1 1 0 3 0 4-1h-1c-1 0-1 0-1 0-1 0-2 0-2 1-2 0-3 0-4 0 0 1 0 0 0 1z"/><path d="m410 472c0 0 0 0 0 0zm-1 1c1 1 1 1 2 2 0 1-1 1-1 1s2-2 0-3c0 0 0-1 0-1 0 0 1 0 1 0 2 0 1 1 2 1 0 0-1-1-1-1-1-1-1 0-2 0 0 0 1-6 3-1h1c0 0-2-4-3-2-1 1-1 3-2 4z"/><path d="m371 504c0 0 0 0 1-1h-1v1c0 0-1-2 0-3 1-1 2 0 3 0 0 0-2-2-3 0-1 0-3 2-3 2 1 1 0 0 1 1 0 0 0 0 1 0 1 1 0 1 1 1 1 1 1 1 1 2 0 0 0 0-1 1 0 0 0 0 0 0 0-1 0-1 0-1s0 0-1 0c0 1 0 1 0 1v1c-2 1-1-3-2-5-1 0-2 0-2 0 0 0 1 0 2 0 0 0 0 4 1 5 1 0 1 0 1-1 0 0 0 0 0-1 1 0 1 0 1 1 0 0 0-1 1-1 0-1 0-1-1-2l-1-1c0 0 0 0 0 0-1 1-1 0-2-1l2-2c1-1 3-1 3 0 0 0-1-1-2 0 0 1-1 1-1 2 0 0 0 1 1 1z"/><path d="m396 538v1-1zm1-1v1-1zm-1 0v1-1zm-1 0h1l-1 1v-1zm1-1h1l-1 1v-1zm-1 1c0 0 0 1 0 2 0-1 0-1 0-1v1c0 0 0 0 0 1l2-1v-1 1l1-3h-1v1-1c-1 0-1 0-1 0v1h-1z"/><path d="m393 481c4-1 1-4 0-4 0 1-1 0 0 1 0 0 1 0 1 1 1 1 0 1-1 1 0 0-2 0-2 1 0 0 1-1 2-1v1z"/><path d="m369 479c0-1 0-1 0-1 0-1 0-2 0-3 1-1 1-1 1-1-1 0-1 1-1 2 0 1 0 1 0 2 0 0 0 1 0 1z"/><path d="m366 473c0 0 0 1 1 1 0 1 0 2 0 2 1 0-1-4-1-3z"/><path d="m408 533c-1 1-1 0-1-1 1 0 1 0 1 0 1 1 1 1 0 1zm0-1c-2 0-1 2 0 2 1-1 1-2 0-2z"/><path d="m337 566c0 0-1 0-1 0 1 1 1 1 1 0z"/><path d="m341 566c0 0 0 0 0 0zm0 0c-1-1-1 1 0 0z"/><path d="m339 569c0 1 1 1 1 0-1 0-1 0-1 0z"/><path d="m359 485c0-1 1-1 1-2 0 1-1 1-1 2z"/><path d="m339 570h1c0 0 0 0 0 0s0 0-1 0z"/><path d="m355 506c0 0 0 0 0 0z"/><path d="m393 589l1 1v-1z"/><path d="m341 566c0 0 0 1 0 0z"/></g></g></g></svg>