<svg xmlns="http://www.w3.org/2000/svg" width="744.09" height="1052.36" viewBox="0 0 21000 29700" shape-rendering="geometricPrecision" image-rendering="optimizeQuality" fill-rule="evenodd" clip-rule="evenodd"><defs><clipPath><path d="m-11758 10349v-1327h-472v-270h1266v270h-470v1327h-324"/></clipPath><clipPath><path d="m-683 10349h-349l-138-364h-640l-133 364h-342l620-1597h342l640 1597m-591-633l-222-591-216 591h438"/></clipPath><clipPath><path d="m-13727 10349v-1597h679c170 0 295 15 372 43 78 29 139 80 186 153 46 74 70 157 70 252 0 120-35 219-106 297-70 78-175 127-314 147 69 41 126 85 171 134 46 49 107 135 183 260l195 311h-386l-231-349c-83-123-139-201-170-234-31-32-63-54-97-66-35-12-89-18-164-18h-65v667h-323m323-921h239c154 0 251-7 289-20 39-13 69-35 91-67 22-32 32-73 32-120 0-54-14-98-43-131-28-33-69-54-121-62-26-4-105-6-235-6h-252v406"/></clipPath><clipPath><path d="m-2587 7069c0-163 25-300 73-411 36-81 86-154 149-219 63-65 132-113 206-144 100-42 215-63 345-63 236 0 424 73 565 219 141 146 212 350 212 610 0 259-70 461-210 607-140 146-328 218-563 218-237 0-426-72-567-217-140-145-210-345-210-600m332-11c0 181 42 318 126 412 84 93 190 140 319 140 129 0 234-47 317-139 83-93 124-232 124-418 0-183-40-320-121-410-80-90-187-135-320-135-134 0-241 46-322 137-82 91-123 229-123 413"/></clipPath><clipPath><path d="m-15529 9560c0-163 25-299 73-410 36-82 86-155 149-219 63-65 132-113 206-145 100-42 215-63 345-63 235 0 424 73 565 219 141 147 212 350 212 611 0 258-70 460-210 606-140 146-328 219-563 219-237 0-426-72-567-218-140-145-210-345-210-600m332-11c0 181 42 319 126 412 84 94 190 140 319 140 128 0 234-46 317-139 82-92 124-232 124-417 0-183-40-320-121-410-80-90-187-135-320-135-134 0-241 45-322 136-82 92-123 229-123 413"/></clipPath><clipPath><path d="m-10861 9560c0-163 24-299 73-410 36-82 86-155 148-219 63-65 132-113 207-145 99-42 214-63 344-63 236 0 424 73 566 219 141 147 212 350 212 611 0 258-71 460-211 606-140 146-328 219-562 219-238 0-427-72-567-218-140-145-210-345-210-600m332-11c0 181 42 319 125 412 84 94 190 140 319 140 129 0 235-46 317-139 83-92 124-232 124-417 0-183-40-320-121-410-80-90-187-135-320-135-133 0-240 45-322 136-81 92-122 229-122 413"/></clipPath><clipPath><path d="m-2753 10349v-1597h324v1597h-324"/></clipPath><clipPath><path d="m-8317 9762v-269h693v637c-67 65-165 123-293 173-128 50-257 75-389 75-167 0-312-35-436-105-124-70-217-171-280-302-62-130-94-272-94-426 0-167 35-314 105-444 70-130 172-229 306-298 102-53 230-80 382-80 198 0 353 42 465 125 111 84 182 199 214 346l-321 60c-22-78-64-141-127-186-61-46-139-68-231-68-141 0-253 44-336 134-83 89-124 222-124 398 0 190 42 332 126 427 84 95 194 142 331 142 67 0 134-13 202-39 68-27 126-59 175-97v-203h-368"/></clipPath><clipPath><path d="m-4104 10349v-1597h1097v270h-773v379h669v270h-669v678h-324"/></clipPath><clipPath><path d="m-7325 10349v-1597h679c171 0 295 15 372 43 78 29 140 80 186 153 46 74 70 157 70 252 0 120-35 219-105 297-71 78-175 127-315 147 69 41 127 85 172 134 45 49 106 135 182 260l195 311h-385l-231-349c-83-123-140-201-171-234-31-32-63-54-97-66-35-12-89-18-163-18h-66v667h-323m323-921h239c155 0 251-7 290-20 38-13 68-35 90-67 22-32 33-73 33-120 0-54-15-98-44-131-28-33-69-54-121-62-26-4-105-6-235-6h-252v406"/></clipPath><clipPath><path d="m-4276 10349h-348l-138-364h-641l-132 364h-342l620-1597h341l640 1597m-591-633l-222-591-215 591h437"/></clipPath><clipPath><path d="m-5913 7857h-349l-138-363h-640l-133 363h-342l620-1596h342l640 1596m-591-633l-222-591-216 591h438"/></clipPath><clipPath><path d="m-13756 5366v-1597h680c170 0 294 15 372 43 77 29 139 80 185 153 47 74 70 157 70 252 0 120-35 219-105 297-70 78-175 127-315 147 70 41 127 85 172 134 45 49 106 135 183 259l195 312h-386l-231-349c-83-124-140-202-171-234-30-32-62-54-97-66-34-12-88-18-163-18h-65v667h-324m324-921h238c155 0 251-7 290-20 38-13 69-36 90-68 22-32 33-72 33-120 0-54-14-97-43-130-29-33-69-54-121-63-27-3-105-5-236-5h-251v406"/></clipPath><clipPath><path d="m-8962 7857v-1596h679c170 0 294 14 372 43 77 28 139 79 186 152 46 74 69 158 69 252 0 120-34 219-105 297-70 78-175 127-315 148 70 40 127 85 172 134 46 48 107 135 183 259l195 311h-386l-231-348c-83-124-140-202-170-234-31-32-63-55-97-67-35-11-89-17-164-17h-65v666h-323m323-921h239c154 0 250-6 289-19 38-13 69-36 90-68 22-32 33-72 33-120 0-54-14-97-43-131-29-33-69-53-121-62-26-4-105-6-235-6h-252v406"/></clipPath><clipPath><path d="m-13928 5366h-348l-138-364h-640l-133 364h-342l620-1597h342l639 1597m-591-634l-222-591-215 591h437"/></clipPath><clipPath id="0"><path d="m7082 2744c-2236-63-5819 1819-5826 6304-2 1198 450 5186 558 6768 129 1897 224 4598 264 6521 17 1663 391 2627 1108 3016 955 342 1946 443 2991 193 1080-284 1616-1168 1632-2956-41-2308-313-6305 110-8403 548-2717 1240-3073 1507-6346 160-1969 102-5029-2344-5097"/></clipPath><clipPath id="1"><path d="m14040 2744c2236-63 5819 1819 5826 6304 2 1198-450 5186-558 6768-129 1897-224 4598-264 6521-17 1663-391 2627-1109 3016-954 342-1946 443-2990 193-1080-284-1616-1168-1632-2956 41-2308 313-6305-110-8403-548-2717-1240-3073-1507-6346-160-1969-102-5029 2344-5097"/></clipPath><clipPath><path d="m-11786 5366v-1327h-473v-270h1267v270h-471v1327h-323"/></clipPath><clipPath><path d="m-10450 7857v-1596h1182v269h-859v355h799v270h-799v433h890v269h-1213"/></clipPath><clipPath><path d="m-10783 5366v-1597h1182v270h-858v355h798v269h-798v433h890v270h-1214"/></clipPath><clipPath><path d="m-12312 7857v-1596h484l286 1089 283-1089h486v1596h-299l-1-1257-315 1257h-311l-313-1257-1 1257h-299"/></clipPath><clipPath><path d="m-15529 7857v-1596h313l657 1070v-1070h299v1596h-323l-647-1049v1049h-299"/></clipPath><clipPath><path d="m-13918 6261h323v865c0 137 4 226 12 267 14 65 46 118 97 157 52 40 122 60 211 60 91 0 159-19 205-56 46-38 74-84 83-138 9-55 14-145 14-271v-884h324v839c0 192-9 328-26 407-18 79-50 146-97 201-46 54-109 97-187 130-78 32-180 48-306 48-152 0-267-17-346-52-78-36-140-81-186-138-46-56-75-115-90-177-21-92-31-227-31-406v-852"/></clipPath></defs><text x="10081" y="24465" fill="#201e1e" font-family="&apos;Arial Black&apos;" stroke="#201e1e" font-weight="900" stroke-width="7.62" font-size="705.56">36</text><g fill="none" stroke="#373435" stroke-width="80"><circle cx="10533" cy="1326" r="460"/><path d="m10533 515v1621"/><path d="m9723 1326h1621"/><circle cx="10533" cy="25836" r="460"/><path d="m10533 25026v1621"/><path d="m9723 25836h1621"/></g><g fill="#fff"><rect x="9843" y="22866" width="1347" height="637" rx="318" stroke="#fff" stroke-width="20"/><path d="m7082 2744c-2236-63-5819 1819-5826 6304-2 1198 450 5186 558 6768 129 1897 224 4598 264 6521 17 1663 391 2627 1108 3016 955 342 1946 443 2991 193 1080-284 1616-1168 1632-2956-41-2308-313-6305 110-8403 548-2717 1240-3073 1507-6346 160-1969 102-5029-2344-5097"/></g><g clip-path="url(#0)"><g fill="#201e1e"><g stroke="#201e1e"><g stroke-width="7.62"><path d="m7149 4666c1221-698 2251 820 2251 820l12-9c-66-527-188-1032-395-1462-148-292-363-608-659-847-202-156-438-275-713-347-499-109-1130-8-1920 480 0 0-1873 1497 283 3984 570 657 2570 1326 3080 2848 91-389 173-829 241-1358-331-885-1535-1238-2006-1736-1364-1443-174-2373-174-2373z"/><path d="m4196 5212c-284-166-524 196-524 196l-40-33c-179-229-337-196-337-196-548 146-65 646-65 646 231 179 456 375 456 375 73-216 358-301 469-421 318-344 41-567 41-567zm331-325c0 0 435 357-66 951-133 156-598 316-716 679 0 0-410-302-786-603 0 0-783-838 106-1083 0 0 257-56 546 328l91 70c22-129 230-719 825-342z"/><path d="m2777 7055c-211-124-390 146-390 146l-30-25c-133-171-250-146-250-146-408 109-49 480-49 480 173 134 340 280 340 280 54-161 266-224 349-314 236-256 30-421 30-421zm246-242c0 0 324 266-49 707-98 117-444 235-533 506 0 0-304-225-584-449 0 0-583-624 79-806 0 0 191-41 406 245l67 51c17-96 172-535 614-254z"/><path d="m2089 8674c-123-72-226 84-226 84l-17-14c-77-99-145-85-145-85-237 63-28 278-28 278 99 78 196 162 196 162 32-93 155-129 202-181 137-149 18-244 18-244zm143-141c0 0 187 154-29 410-57 68-257 136-309 293 0 0-176-130-338-260 0 0-338-361 45-467 0 0 111-24 236 142l39 30c9-56 99-310 356-148z"/></g><text x="10500" y="14850" font-family="&apos;Ariston&apos;" stroke-linejoin="round" stroke-linecap="round" stroke-width="70.56" font-size="846.67" transform="matrix(1.0085 0 0 .9879-7795.39 10052.6)">00.00.0000</text><path d="m5405 18406c0 26 20 38 38 38 40 0 127-136 192-170l49 101c-17 26-81 79-109 103-31 26-58 46-58 74 0 29 29 31 50 31 27 0 121-123 161-126 7 31 24 45 31 76-41 22-75 54-113 80-58 39-22 77 3 81 35 5 110-82 147-92 12 53 12 17 12 88 0 58-119 131-165 154-45 23-179 80-238 80-81 0-314-455-347-518 52-12 221-108 264-135l174-126c17-14 38-36 58-42l43 95-153 147c-17 15-39 32-39 61zm-371-75c-4-17-6-19-13-32l338-243c20-14 35-24 54-39 23-17 33-34 61-40 12 19 25 37 31 63-63 43-129 100-220 162-53 36-194 115-251 129zm-725-790l91-96c24 45 41 82 66 125 98 166 179 233 239 325l-438 324c-23 18-39 35-70 42-35-24-260-324-260-335 0-15 89-107 112-113 4 19 36 67 51 93 36 63 79 13 79-5 0-24-60-111-81-151l61-58c30 23 115 141 136 149 26 9 86-22 25-83-17-18-20-24-34-41-23-26-52-54-70-81l36-39 108 139c51 66 85 19 85-5 0-20-21-37-31-51l-105-139zm155-151c14-28 13-22 37-38l169 213c29 37 57 72 85 109 20 27 73 81 80 114-9 13-48 50-68 50-15 0-113-132-129-152l-174-296zm1691 139c0 26 20 38 37 38 38 0 38-43 44-76 6-28 18-76 18-108 23 16 43 25 68 38-10 45-18 88-28 135-12 53-31 91 28 105 41-22 36-31 46-85 7-37 22-82 23-117l86 45c-4 18-11 28-17 44-32 77-91 176-8 176 32 0 73-139 93-183 19 10 71 40 87 45-1 51-118 302-124 328-33-1-98-18-132-24l-354-49c-28-5-41-9-71-9 3-40 35-87 49-120 31-72 129-337 130-392 32 8 25 18 56 26-9 40-31 145-31 183zm-297 271c-69 0-75-83-75-139 0-83 90-226 135-298 30-46 31-74 88-74 74 0 53 25 12 151-54 163-65 174-121 312-8 18-18 48-39 48zm-2751-429h-87c-109 0-257-56-311-112-128-130-85-485-85-665 50 4 107 12 161 13 49 0 118 11 167 13 164 4 292 12 465 12 0 28 5 26 6 57 1 23-2 44 2 68 5 38 0 90 6 132 8 61-4 185-17 246-34 158-149 236-307 236zm3129-890c40-4 151-37 192-50 133-41 231-86 355-131l178-72 45 125c17 44 32 81 48 127 155 423 76 471-314 571-56 15-122 29-188 29-126 0-236-93-272-183-49-124-44-246-44-416zm-1754 63c17-72 25-94 70-156 61-83 45-78 191-78 0 66 39 183 61 227-115 0-209 7-322 7zm353-247c106 0 52-16 151 119 15 19 27 39 43 57 16 17 36 40 48 58l-173 6c-26 0-53-87-60-109-9-26-11-42-17-71-6-26-21-60 8-60zm-164-63c6-9 12-20 20-33 15-22 11-22 42-25l1 55-63 3zm136-65l35-4 28 55-63 3v-54zm-2766-200c24 0 47 28 68 39 136 71 185 88 348 137 426 128 522 103 929 102 56 0 87 7 142 6h440c51 0 86 7 143 7 25 109 110 88 211 76l179-13c-18 35-42 59-60 96-16 33-33 78-33 125-245 0-705-8-939 8l-121-2c-36 0-45-5-74-6-28-2-58 1-87 0-31-1-38-7-74-7-26 0-60 2-86 0l-483-26c-211-22-394-35-531-140-128-99-159-192-77-332 23-39 55-70 105-70zm2956 316c89 0 238-20 309-19 99 1 119-11 175-49 25-16 60-12 96-16 62-8 135-17 195-29 223-45 316-79 516-150l121-47c55-18-12 33 156-36 37-16 77-32 111-45 78-29 147-59 225-87 127-46 348-154 468-154h44c66 0 105 128 105 203 0 141-278 199-406 236-59 17-105 37-162 56-95 33-195 79-311 119l-324 105c-164 57-351 88-531 109-28 3-66 9-94 12l-198 19c-16 1-32-1-48 1-19 2-23 5-51 6-224 1-184 44-256-43-19-23-33-35-53-59-23-30-79-94-87-132zm-842-532c68-22 284-33 372-42 82-8 731-77 757-67 39 15 36 120 43 165 8 55 19 143 16 198-57 16-406 79-455 73-17-41-33-79-49-120-16-39-28-108-73-93-33 10-40 77-53 117-15 45-38 85-51 124l-310 31c-55 5-68 9-90-27-58-96-106-222-107-359zm453 435c-24 72-87 58-182 65-60 5-173 20-229 14-27-37-110-265-135-325-39-97-91-174-63-251 14-39 33-38 75-42 273-31 543-65 816-98 127-15 289-45 416-36 66 4 94 56 103 122 10 69 20 134 31 203 16 111 73 321-60 343-61 10-150 11-215 15-67 5-144 15-212 15l-31-58c135-18 258-47 385-65 152-21 114-105 87-324-24-193-41-210-237-191-139 14-276 27-414 40-74 7-555 48-606 65-73 25-57 86-50 169 9 97 82 270 130 327 45 52 100 41 178 33 70-7 142-16 213-21zm-683-503c-288 0-649 6-760-331-43-130-20-144-21-237 0-46 0-93 0-139 0-45 7-80 6-133 0-62 8-68 22-117 11-40 19-68 31-107 23-84 32-137 76-200 164-227 489-289 762-329l305-30c52-2 127-13 192-12 53 0 83-7 130-7 46 0 91 0 136 0 53 1 81-6 130-6h261c51 0 78 7 124 7 383-2 447 0 618 291 69 117 71 153 119 277 73 187 111 295 111 498 0 113-65 220-114 287-95 129-241 179-394 205-280 49-112 27-236-111-44-49-67-51-154-52-46-1-40-6-87 0l-1158 139c-56 5-95 49-99 107zm-1438-1547c-100 0-133-90-54-144 32-22 102-58 133-7 9 15 4 36-2 65-8 43-27 86-77 86zm1351 1629c48 0 34 3 74-6 2 24 8 33 17 53 9 19 14 34 21 53 22 55 115 274 123 311-88 0-177 0-266 0-92 0-170-7-266-7-178 0-363 6-540 0-31-1-89-7-118-11-134-17-213-39-339-72-64-17-385-105-385-157 0-378-28-849 116-1189 15-35 24-56 42-89 34-57 61-110 110-160 14-14 19-25 31-37 45-46 132-112 192-145 140-77 306-153 454-213 94-39 200-80 298-108 438-126 470-124 890-178l246-21c85-1 162-13 254-13h174c533 0 1301 243 1572 501l93 94c149 172 193 238 301 458 89 182 138 373 187 572l46 213c-27 2-76 18-103 27-229 76-459 168-681 259-129 54-257 98-397 139-99 29-349 84-455 86 40-84-31-318-31-423 45-1 251-40 292-50 88-24 170-64 233-116 41-34 51-44 84-85 30-38 44-63 69-106 134-229 52-463-20-686l-102-275c-8-17-15-23-23-39-33-67-72-132-116-192-36-49-75-89-128-122-97-60-270-72-425-72-520 0-967-9-1469 75-75 13-158 30-223 51-200 63-444 187-508 398l-78 268c-19 58-15 197-14 263 1 164-37 298 73 475 18 30 38 50 59 78 33 42 119 93 165 116 124 64 285 82 471 82zm2559-2039c0-39 13-120 68-108 15 3 38 9 51 11 41 9 66 8 92 32 32 30 65 100 23 146-32 34-44 32-73 32-80 0-161-33-161-113zm-3848 549c-9-62-30-55 93-120l337-181c39-20 72-37 111-57 394-200 1018-438 1448-438 51 0 66 35 175 8 66-16 20-14 104-14 285 0 583 61 852 129 177 45 554 179 722 269-5 19-24 61-33 80-14 28-22 52-36 78-21-2-54-20-76-30-27-12-49-23-77-35-162-71-314-125-490-170-521-134-1057-120-1588-44-102 14-194 35-290 51-202 34-603 162-795 239l-178 77c-145 66-165 97-279 158zm3612-600l2 2c0 0-2-1-2-2zm-3444-328v183l-100-63 100-120zm-50 694c3-36 23-25 86-64l289-159c34-21 62-34 98-52l97-53c32-16 67-36 99-50l205-95c146-72 643-246 799-246 18 0 36 27 48 39 17 17 32 23 45 43-141 0-369 57-502 94-317 91-579 190-867 335l-397 208zm3488-366l-275-98c-230-79-525-130-770-163l-175-17 134-72c34-16 138 9 170 15 59 9 115 20 171 33 56 14 114 24 171 41 139 41 177 48 313 104 53 22 236 119 261 157zm-725-530c40 0 355 123 432 160l114 54c107 49 180 94 280 150 35 19 93 61 110 65-17 32-40 63-44 108-25-7-36-21-58-36-21-14-35-24-55-39-236-174-543-269-830-328-47-10-116-27-166-27 20-17 204-107 217-107zm-2794 808c-15-29-22-28-37-50l122-91c26-20 27-11 50-24 19-10 13-18 35-35 15-11 28-19 44-30l554-319 300-136c70-29 355-144 425-161l144 144c-61 4-277 66-346 86-108 31-321 114-423 162-33 15-68 33-102 47-69 29-132 65-196 98-32 16-61 31-95 48l-475 261zm155-290c10-122 6-216 6-341 163-88 369-171 550-223 197-56 422-92 658-112 20 14 49 37 56 63-75 6-494 196-588 235-96 39-221 112-310 157l-372 221zm-229-247c-23-6-16-8-33-23-10-9-26-21-35-27l152-173c16-22 22-25 38-43 18-20 109-122 113-138h12c7 23 7 13 19 32-96 146-66 130-197 279-13 15-23 29-36 46-13 17-27 25-33 47zm3444-448c8 0 142 110 177 155 9 13 14 16 23 27 52 66 92 173 92 292-24-16-52-31-79-47l-167-88c-31-16-60-27-89-42l-359-152c45 0 282-25 314-39 27-12 51-35 51-68 0-1-25-38 37-38zm-3568 341c-11-7-50-41-56-51l249-244c29-30 63-50 86-84 13 9 21 12 31 25l-310 354zm662-493c209 10 434 17 590-131 19-18 16-22 47-13 151 44 333 112 479 170 82 32 125 71 225 39 67-21 134-67 195-98 48-24 149-78 195-91 13 16 26 40 42 61 41 55 265 403 280 444-156 53-443 294-604 196-47-29-189-159-226-200-39-44-67-69-106-106l-103-104c-76-78-71-74-139-70-452 29-747 119-1157 312 11-51 104-177 132-214l150-195zm-222 158c-66-48-51-195 0-277 10-16 25-34 40-47 19-16 34-29 46-48 25 6 55 17 81 19 0 38 3 90 0 126-3 39-84 124-108 155-13 18-47 63-59 72zm2022-315c10-7 69-38 84-37 28 0 48 37 62 55 18 23 305 385 318 412l-147 70c-32-82-275-424-317-500zm-1657 88c-47 0-69-6-118-6l-6-101c123 0 144 22 314-22 62-16 161-60 182-60 8 29 23 30 31 63-31 8-42 46-174 87-70 22-138 39-229 39zm1915-50c30-31 91-60 138-80 67-28 103-37 173-18-37 59-161 46-151 109 11 69 137 23 183 10 66-18 132-37 199-56 53-15 154-60 194-28-10 33-132 51-185 63-45 10-172 21-175 69-3 70 144 24 190 15 64-11 152-35 212-23-11 17 6 6-21 16-20 8-288 39-345 59-11 33-15 41 11 63 16 8 256-14 304-19 39-3 62-3 78 23-73 25-278 23-358 38-43 7-53 48-16 71 40 10 203-5 261-5-24 15-407 54-407 54l-146-182c-25-32-47-60-71-91-24-30-53-60-68-88zm563-127l2 2c0 0-2-1-2-2zm-2924 101l6-132c19 1 66 23 81 31l-87 101zm-80-75c0 172 43 144 43 189 0 36-9 25-27 30-30 10-81 71-111 101l-147 140c-7-27-185-267 5-424 52-43 112-74 206-74 23 0 11 4 37 6-3 14-6 14-6 32zm960-83c43-23 116-76 150-112 40-40 97-97 122-146 39 26 83 50 130 70 34 14 117 53 149 56 0 90 25 298 25 391-23-5-351-132-460-163-24-6-63-13-77-29-13-14-30-49-39-67zm750-183c27-14 51-32 74-50 12-10 20-17 34-28 19-15 18-23 40-29 23 101 236 326 316 347-11 16-255 131-279 133l-185-373zm5-276l16-37c24-83 62-350-77-350-52 0-86 68-87 120h-12c-11-48-93-124-141-74-13 13-1 0-10 15-9 13 0 3-10 15 0-173-55-333-139-478-24-43-60-69-73-115-4-15-1-11-9-28-23-50-59-97-92-140-21-28-63-52-72-85 34-3 134-7 114-64-12-33-105-42-139-49-50-11-108-19-155-32-31-8-32-20-45-48-18-41-15-59-60-59-70 0-155 55-204 82l24-96c12-33-6-65-40-60-87 12-177 127-239 186-43 40-97-19-159 53-16 18-30 34-57 37 1-42 37-131-25-139-42 10-117 81-141 114-38 51-60 121-74 190-15 75 2 40-43 82l-128 136c-176 240-156 561-68 838 3 11 4 15 8 23 8 19 6 9 11 20 13 26-45 98 67 146 43 19 93 23 152 23 31 61 93 111 143 156l55 46c-69 0-103-2-159 15-38 11-89 41-118 63-186 145-146 366-27 547-74 113-200 115-94 210 12 11 15 11 28 22 78 70 151 149 240 203 28 18 97 70 124 76 0 149 8 85-177 237-44 36-87 31-141 65-144 92-93 292 70 292 0 101 14 120-22 148-142 111-234 307-287 478-108 345-75 699-75 1060-170-41-273 150-273 271 0 232 284 358 474 388 79 13 185 29 263 29 0 69-6 114-6 183 0 196-17 425 135 564 37 33 110 66 166 83 188 56 435 50 565-93 144-157 88-487 88-693 31 0 32-4 56-6 66-5 139 5 204-1 191-16 459-5 657-5 1 35 17 63 32 87 71 112 184 182 267 283 196 236 24 435 17 513-24-6-14-3-28-22-10-13-14-18-24-32-18-23-33-39-51-62-23-30-72-101-104-115-55-25-99 42-129 72-91 93-189 184-276 281l-59 54c-37 38-70 72-108 110-158 162-97 153 53 359 27 37 55 71 82 107 115 150 154 83 303-32l366-271c81-62 161-91 161-177 0-38-65-106-86-133-61-79-58-47-18-143 44-103 95-225 60-367-16-63-34-105-68-152-18-24-29-41-51-62-56-57-185-174-224-226-20-28-25-43-41-72h366c25 109 310 319 310 587 0 277-59 365-68 499-14 201-26 168 43 302 15 30 26 56 43 83l-191 133c-96 65-12 145 22 216l50 95c56 114 169 309 251 394 23 24 55 52 91 52 64 0 235-69 278-96 107-67 217-133 171-279-6-19-5-12-11-27-16-39 3-30-27-67-35-44-45-117-71-148-23-28-36-65-53-99-10-22-14-25-19-49-7-33-11-24-28-48-46-65-48-130-88-200-67-115-102-81-206-2-35 27-74 60-113 80-2-31-22-50-35-77-10-21-34-65-38-82-6-29 11-196 16-221 33-177 74-331 56-515-12-129-79-230-148-329l-101-137c-15-20-41-49-47-72l204-6c27 5 147 121 168 150 78 108 135 230 187 353 51 120 146 331 246 400-56 108-72 292 56 359 105 55 436 72 582 102 123 26 168 48 223-95 24-60 118-258 97-313-10-27-30-42-53-53-140-72-277-154-417-226l-103-53c-12-5-30-8-45-11-164-29-183-11-303 220-72-53-160-233-193-314-51-130-146-343-236-442-28-31-64-52-85-83l174-7c193-10 540-53 712-94l11 241c25 185 82 314 251 388 117 51 260 19 376-11 66-16 134-33 192-56 349-141 208-444 99-720-11-30-48-113-49-146 28-2 310-93 334-101 46-18 105-46 141-77 61-52 82-97 82-181 0-101-48-228-145-256-50-15-90-4-137-1-34 3 2-2-27-2-23 0-22 7-44 12-95-415-166-734-406-1088-13-19-34-40-40-61 87-132 225-156 365-209 131-50 258-119 356-218 49-50 85-111 111-177 28-71 46-166 48-242 0-25-6-31-6-63-1-32-2-48-5-71-26-204-26-404-26-611l25-581-20-17c-18-7-689-13-1007-338-139-141-210-324-297-499-38-76-73-151-117-222-47-73-123-116-207-136-53-13-67 13-69-44-2-68-21-132-45-181-125-255-274-186-344-192-28-3-29-19-88-19-25 0-27 13-51 16-45 6-211-97-344 30-70 67-99 143-112 245-2 11-5 41-7 50-5 15-3 9-13 18-71 61-92 79-92 184-54 15-156 135-194 182-91 113-166 288-166 462 0 56 0 117 7 170 4 27 12 50 12 77h-56c-25 0-2-2-12 6l-7-5zm-427-134l13-32c-1 9 1 9-2 17-1 2-1 4-2 5l-9 10zm793 57c0 89 112 144 172 74 16-18 27-49 27-81 0-49-20-55-38-82 107 26 259 29 363-2 48-14 89-36 129-59 30-17 81-58 105-82 21-21 73-84 97-90 16 67 106 187 148 241 30 38 167 163 212 175-13 55-44 127-69 171-60 106-168 209-274 269-83 48-79 35-128 59-75-113-261-33-343 11-51 27-136-8-151-25-58-66-37-4-91-34l-123-83c-193-160-297-416-265-690 4-34-13-33 96 35 47 28 96 51 149 69 25 8 41 7 52 23-39 9-68 54-68 101zm-619-196l18 25c50 88 39 234 106 234 24 0 18-6 37-19 0-126 5-159 31-272h12c53 229-117 401-6 404 50 1 90-47 155-12-15 56-192 137-192 170 0 34 8 33 23 59 20 39 179 353 181 377-49 12-126 70-167 70-21 0-24-5-43-7l-31-448c-4-51-64-55-148-89-29-12-54-23-82-37-28-15-53-30-80-45 8-15 14-25 18-44 108 53 170 20 98-68-6-8-34-40-36-46-9-19 1-40 7-63 63 48 41 110 130 89 19-84-31-109-31-278zm-81 76l2 2c0 0-2-2-2-2zm638-126l2 1c0 0-2-1-2-1zm967-146l7-151c128 73 184 2 216-7 4 20 10 26 21 42 11 17 15 25 24 45 15 30 30 67 41 97 41 119 48 259 19 385-111-76-197-168-266-285l-62-126zm-954 152c193 0 344-2 516-124 87-61 238-230 251-237 34-18 53 12 125-37 0 25-4 51-7 82-2 28-4 52-5 89-1 19-3 24-5 39-7 40-11 30-62 82-211 215-372 238-681 160l-132-54zm93-76c-129 0-184-32-242-32l45-124c21-39 41-70 66-104 60-82 162-162 168-169 46 31 68 57 136 57 55 0 93-41 136-51 30 57 88 69 149 69 44 0 58-23 93-31 8 11 13 22 23 33 12 13 17 15 27 30-29 43-127 130-172 172-109 100-279 150-429 150zm928-445c118-43 158 143 72 170-121 37-165-136-72-170zm-259-93c111-48 173 120 67 165-98 42-181-115-67-165zm433 27v-26c55 0 99 19 136 39 40 23 63 49 86 89 91 155 158 336 240 476 61 106 140 220 236 296 37 29 61 48 101 73 148 90 348 150 524 187 81 16 232 40 313 40 0 51-13 107-12 177 0 40-6 51-7 88v531c0 414 167 724-293 976-140 77-388 122-479 225-10 11-10 16-22 28-10 12-18 19-30 27-40-62-99-117-153-166-46-41-138-111-187-137l80-158 87 6c194 0 242-293-2-376-34-12-64-12-103-15-21-2-26-5-41-15-16-10-24-14-40-23 0-278-94-412-291-562-8-6-33-23-39-30-18-21-5-18-19-43-9-16-22-25-35-34 0 0 59-110-37-133 7-30 12-12 12-57 0-39-48-88-87-88-104 0-90 20-148 25 9-12 113-82 147-115 45-42 84-97 118-151 118-185 159-457 99-680-16-60-35-101-61-152-27-56-71-108-74-139-3-46 0-55-14-93-19-50-5-37-5-90zm-692-90c112-46 168 128 61 166-104 38-173-120-61-166zm-250-27c46-12 91 36 95 79 5 54-32 94-77 98-123 13-129-147-18-177zm-2025 53c194 17 225 221 285 221 14 0 27-12 37-18v-133c36 25 66 60 90 97 30 46 74 46 88-43 6-42-6-45 52-5 66 46 103 102 142 102 63 0 16-190 12-208 12 7 25 13 37 19 13 7 32 12 43 19 21 12 42 40 61 58 108 109 206 335 206 510v108c-36 0-68-7-91 39-46 91 46 149 35 201-24-2-20-7-49-7 6-27 46-82-31-82-21 0-35 35-44 50-150 258-353 376-662 354-189-14-342-158-464-286-60-63-94 3-71 35 17 24 69 71 93 95 131 133 282 238 528 238 146 0 262-35 355-92 43-26 94-64 127-99 19-19 39-37 55-57 9-11 16-20 25-32 13-16 11-23 33-29 1 32 12 44 25 63-13 20-38 54-54 71-65 68-43 53-128 123-188 156-505 213-745 119-107-42-258-122-328-215-15-19-23-25-38-44-27-36-33-61-95-61-38 0-124 1-124-31 0-64 64-42 87-119 16-49 22-27 39-68 24-57 14-120 9-179 35 22 15 32 63 32 56 0 20-140 19-203 92 0 136 24 82-90-24-52-46-155-51-213 39 11 131 101 149 101 53 0 55 3 55-50 0-52-50-137-62-189 79 6 168 82 186 82 71 0 22-155 19-184zm2503-391c32 0 95 103 109 135 30 65 27 132 27 225-68-34-86-9-136-19-24-5-41-8-68-13-33-5-24-14-53-28-19-10-39-16-65-16 5-67 26-134 55-177 17-23 98-107 131-107zm130 13c58 0 102 12 135 39 63 53 107 148 119 232 9 69 0 94 0 164-45-10-44-13-92-5-49 8-45-6-82-26l7-120c0-133-35-205-87-284zm-459 322c-47-33-40-58-117-76 0-67 21-136 45-181 39-75 110-91 184-91 35 0 44 10 74 13-22 34-74 65-100 157-19 68 2 154-86 178zm1258 4312v-164l161-7c27 0 54 1 81 1l156-11c27 2 16 35 17 68 3 144 51 178-51 276-59 58-217 52-301-12-48-37-63-68-63-151zm81-246h-81c0-125 23-235 101-314 14-15 18-23 38-31 101-44 169 24 210 109 30 62 54 134 54 223-36 0-48 4-75 6-27 3-58-1-86 0l-161 7zm111 524c92 0 160 2 231-62 95-85 87-204 71-328-16-126-3-277-75-409-98-181-227-229-382-91-95 84-111 236-117 360-4 56 6 97 6 157 0 122-12 206 51 270 51 53 115 103 215 103zm-3915-44c-100 0-193-6-250-100-19-31-22-81-15-132 6-42 4-95 4-147 20 2 22 6 44 6h371v164c0 37 9 12 0 82-6 46-44 85-80 108-19 11-44 19-74 19zm-69-802c79 0 127 18 174 120 32 70 43 142 43 233h-210c-73 0-121-6-192-6 0-63 20-161 47-217 21-44 82-130 138-130zm-272 669c0 83 107 175 195 199 85 22 192 25 263-22 158-102 111-237 112-347 0-151 4-290-54-413-16-35-49-88-74-113-136-139-352-32-409 200-30 121-33 360-33 496zm1183-404c0 72 85 37 156 20 40-9 80-18 117-26 215-45 640-136 861-146 37-1 96-7 131-11 91-11 189-2 284-7l421-7c48 0 112 11 112-38 0-48-54-49-105-43-80 9-350 6-440 5-92 0-194 12-286 13-177 1-636 83-782 112l-367 80c-36 7-102 12-102 48zm-12-259c53 0 143-30 193-43 527-133 1123-189 1678-159 56 3 186 16 186-38 0-29-15-44-44-44-500 0-884-15-1375 69-212 37-361 70-563 122-19 5-71 13-86 25-29 21-19 68 11 68zm-25-328c0 67 97 25 205 7 408-69 936-146 1344-146 116 0 280-3 391 6 28 2 100 8 122-7 38-27 20-75-42-75-583 0-737-15-1332 70-121 17-241 32-363 53l-265 46c-34 6-60 7-60 46zm1778-2021c-237 0-369-109-506-266-19-22-26-42-58-49-31 17-49 31-25 69l110 128c92 90 276 194 417 194 206 0 272-15 427-140 73-59 187-237 187-308 0-31-44-40-67-12-24 29-123 384-485 384zm-644 2760v-76c40 0 51-7 87-7 39 172 18 141 18 240-97 0-89 28-97-40-5-43-8-72-8-117zm-81-89c0 51 1 312 54 331 6 2 143-6 162-10 88-17 45-329 1-397-48 0-90 7-131 12-57 6-86-1-86 64zm-948-3384c0 189 230 206 230 31 0-73-47-151-118-151h-25c-47 0-87 68-87 120zm-551 82v32c0 64 62 138 124 138 151 0 126-277-25-277-57 0-99 50-99 107zm2354 183c0 122 119 140 169 83 50-57 39-184-82-184-46 0-87 52-87 101zm-592 4238l63-3-28-55-35 4v54zm-73 8l-1-55c-31 3-27 3-42 25-8 13-14 24-20 33l63-3z" stroke-width="7.62"/><g stroke-linejoin="round" stroke-linecap="round" stroke-width="50"><text x="10500" y="14850" font-family="&apos;Easy Street EPS&apos;" font-size="1411.11" transform="matrix(.96937 0 0 .9879-8075.07 6844.95)">T1</text><path d="m5499 22202c0 54-25 104-75 150-50 46-105 69-164 69-53 0-97-19-131-58-38 13-74 19-106 19-66 0-122-20-169-60-46-39-69-87-69-143 0-70 40-134 120-189 32-22 84-47 156-76 15-6 36-14 63-25 23-44 54-85 92-122 38-38 67-57 88-57 11 0 17 5 17 15 0 16-18 41-54 74-36 32-80 64-133 96-14 34-25 66-34 97 22-4 38-6 50-6 45 0 82 14 110 43 28 29 42 66 42 112 0 47-14 90-43 128-28 38-68 68-119 90 31 35 70 53 117 53 58 0 111-22 160-66 49-44 74-93 74-145 0-13-3-28-8-44v-3c0-2 1-3 4-3 2 0 5 6 8 18 3 12 4 22 4 33zm-187-476c0-5-3-8-8-8-17 0-44 18-79 53-36 36-64 72-85 109 39-21 77-48 115-82 38-35 57-58 57-72zm-28 401c0-38-12-70-37-95-25-25-57-38-95-38-17 0-35 3-54 8-14 56-21 108-21 158 0 43 8 86 23 130 28-11 51-26 70-48 19-22 28-42 28-63-1-9 3-14 10-14 8 0 12 4 12 11 0 20-12 42-37 67-24 25-50 43-80 55 4 6 7 14 11 23 3 4 7 11 13 20 45-23 83-56 112-96 30-41 45-80 45-118zm-197 165c-18-44-27-91-27-141 0-43 6-90 20-142-37 16-68 41-93 75-25 34-37 70-37 106 0 30 10 55 30 75 20 20 46 30 77 30 10 0 20-1 30-3zm32-388c-84 46-142 81-171 106-80 67-119 135-119 205 0 44 18 80 54 111 37 30 81 45 133 45 32 0 65-8 100-24-10-15-18-30-25-45-14 2-25 4-34 4-37 0-68-12-93-36-25-23-38-52-38-85 0-39 14-76 42-110 29-34 67-60 116-78 9-32 21-63 35-93z" fill-rule="nonzero"/><text x="10500" y="14850" font-family="&apos;Easy Street EPS&apos;" font-size="1411.11" transform="matrix(.96937 0 0 .9879-8094.57 8821.19)">T2</text></g></g><g font-family="&apos;Arial Black&apos;" font-weight="900" font-size="529.17"><text x="10500" y="14850" transform="matrix(.96937 0 0 .9879-6995.63 4482.3)">NN 1</text><text x="10500" y="14850" transform="matrix(.96937 0 0 .9879-6995.63 5055.96)">NN 2</text></g></g></g><path d="m14040 2744c2236-63 5819 1819 5826 6304 2 1198-450 5186-558 6768-129 1897-224 4598-264 6521-17 1663-391 2627-1109 3016-954 342-1946 443-2990 193-1080-284-1616-1168-1632-2956 41-2308 313-6305-110-8403-548-2717-1240-3073-1507-6346-160-1969-102-5029 2344-5097" fill="#fff"/><g clip-path="url(#1)"><g fill="#201e1e"><g stroke="#201e1e"><path d="m16964 18413c0 26 19 38 37 38 40 0 128-136 192-170l50 101c-18 26-82 79-110 103-31 26-58 46-58 74 0 29 29 31 50 31 27 0 121-123 161-126 7 31 24 45 31 76-41 22-75 54-113 80-57 39-22 77 3 81 35 5 110-82 147-92 12 53 12 17 12 88 0 58-119 131-165 154-45 23-179 80-237 80-82 0-315-455-347-518 51-12 220-108 263-135l174-126c17-14 38-36 58-42l44 95-154 147c-17 15-38 32-38 61zm-372-75c-4-17-6-19-12-32l338-243c20-14 34-25 54-39 22-17 33-34 60-40 12 19 25 37 31 63-63 43-128 100-220 162-53 36-194 115-251 129zm-725-790l91-96c25 45 41 82 67 125 97 165 178 232 239 325l-439 324c-23 18-39 35-69 42-36-24-261-324-261-335 0-15 89-107 112-113 4 19 36 67 51 93 36 63 79 13 79-5 0-24-60-111-81-151l61-59c30 24 115 142 136 150 26 9 87-22 25-84-17-17-20-24-34-40-22-26-52-54-70-81l36-39 108 139c52 66 85 19 85-5 0-20-21-38-31-51l-105-139zm155-151c14-28 13-22 37-38l169 213c29 37 57 72 85 109 20 27 73 81 81 114-9 13-49 50-68 50-16 0-114-132-130-152l-174-296zm1691 139c0 25 20 38 37 38 38 0 38-43 44-76 6-28 18-76 18-108 24 16 44 25 69 38-11 45-18 88-29 135-12 53-31 91 29 105 40-22 35-31 46-86 7-37 21-81 22-116l86 45c-4 18-11 28-17 44-31 77-91 176-7 176 31 0 72-139 93-183 18 10 70 40 86 44-1 52-118 303-124 329-33-1-98-18-131-24l-355-49c-28-5-41-9-71-9 3-40 35-87 49-120 32-72 129-337 131-392 31 8 24 18 55 26-9 40-31 145-31 183zm-297 271c-69 0-74-83-74-139 0-83 89-226 135-298 29-46 30-74 88-74 73 0 52 25 11 150-53 164-65 175-121 312-8 19-18 49-39 49zm-2751-429h-87c-109 0-256-56-311-112-128-130-85-486-85-665 50 4 107 12 161 13 49 0 118 11 167 13 164 4 292 12 465 12 0 28 5 26 6 57 1 23-1 44 2 68 5 38 0 90 6 132 8 61-4 185-17 246-34 158-149 236-307 236zm3129-890c40-4 151-37 193-50 132-41 231-86 354-131l178-72 45 124c18 45 32 82 49 128 154 423 75 471-315 571-56 15-122 29-188 29-126 0-236-93-272-184-49-123-44-245-44-415zm-1753 63c16-72 24-94 69-156 61-83 46-78 191-78 0 66 39 183 62 227-116 0-209 7-322 7zm353-247c105 0 51-16 150 119 15 19 27 39 43 57 16 17 36 40 48 58l-173 6c-25 0-53-87-60-109-9-26-11-42-17-71-6-26-21-60 9-60zm-165-63c6-9 12-20 20-33 15-22 11-22 42-25l1 55-63 3zm136-66l35-4 28 56-62 3-1-55zm-2766-199c24 0 47 28 68 39 136 71 186 88 348 137 426 128 522 103 929 102 56 0 87 6 142 6h440c51 0 86 7 143 7 25 109 110 88 211 76l179-13c-18 35-42 59-60 96-16 33-33 78-33 125-245 0-704-8-939 8l-120-2c-36 0-46-5-75-6-28-2-58 1-87 0-31-1-38-7-73-7-27 0-61 2-87-1l-483-25c-210-22-394-35-531-140-128-99-159-192-77-332 23-39 55-70 105-70zm2956 316c89 0 238-20 310-19 98 1 118-11 175-49 24-16 60-12 95-16 62-8 135-17 195-29 223-45 316-79 516-150l121-47c55-19-12 33 156-37 37-15 77-31 112-44 77-29 146-59 224-87 127-46 349-154 469-154h43c66 0 105 128 105 202 0 142-278 200-406 237-59 17-105 37-161 56-96 33-196 79-312 119l-323 105c-165 57-352 88-532 109-28 3-66 9-94 12l-198 19c-16 1-32-1-48 1-19 2-23 5-51 6-223 1-184 44-256-43-18-23-33-35-53-59-23-30-79-94-87-132zm-842-532c69-22 284-33 372-42 82-8 731-77 758-67 38 15 35 120 42 165 8 55 19 143 16 198-57 16-405 79-455 73-17-41-33-79-49-120-15-39-28-108-73-93-32 10-39 77-52 117-16 45-39 85-52 123l-309 31c-56 6-69 10-91-26-58-96-106-223-107-359zm453 435c-24 72-87 58-181 65-61 5-174 20-229 14-28-37-111-265-135-325-40-97-92-175-64-251 14-39 33-38 76-42 272-31 543-65 815-98 127-15 289-45 417-36 65 4 93 56 102 121 10 69 21 135 31 204 16 111 73 321-60 343-61 10-149 10-215 15-67 5-144 14-212 15l-31-58c135-18 258-47 385-65 152-21 114-105 87-324-23-194-41-210-237-191-138 14-276 27-414 40-74 7-555 48-606 65-73 25-56 86-49 169 8 97 81 270 129 327 45 52 100 41 178 33 70-7 142-16 213-21zm-683-503c-288 0-649 6-760-331-43-131-20-144-21-237 0-47 0-93 0-139 0-45 7-80 6-133 0-62 8-68 22-117 11-40 20-68 31-107 23-84 32-138 77-200 163-227 488-289 761-329l305-30c52-2 127-13 192-12 53 0 84-7 130-7 46 0 91 0 137 0 53 0 81-6 130-6h260c51 0 78 7 124 7 383-2 447 0 618 291 69 117 71 153 119 277 73 187 112 295 112 498 0 113-66 220-115 287-95 129-241 179-394 205-280 48-112 27-236-111-44-49-67-51-154-52-46-1-40-6-86 0l-1159 138c-56 6-94 50-99 108zm-1437-1547c-101 0-134-90-55-144 32-22 102-58 134-7 8 15 4 36-2 65-9 43-28 86-77 86zm1350 1629c48 0 35 3 75-6 1 24 7 33 16 52 9 20 14 35 22 54 21 55 114 274 123 310-89 0-178 0-267 0-91 0-170-6-266-6-177 0-363 6-539 0-32-1-90-7-119-11-133-17-212-39-338-72-65-17-386-105-386-157 0-378-28-849 116-1189 15-35 24-57 43-89 33-57 60-110 109-160 15-14 20-25 32-37 45-46 132-113 192-145 139-77 305-153 453-214 94-38 200-79 298-107 438-126 471-124 890-178l246-21c85-1 162-13 254-13h174c533 0 1301 243 1572 500l93 95c149 172 193 238 301 457 89 183 138 374 187 573l46 213c-27 2-76 18-103 27-229 76-459 168-681 259-129 53-257 98-397 139-99 29-348 84-454 86 39-84-31-318-31-423 44-1 250-40 291-51 88-23 170-63 233-115 41-34 51-44 84-85 30-38 44-63 70-106 133-229 51-464-21-686l-102-275c-8-17-14-23-23-40-33-66-72-131-116-191-35-49-75-89-128-122-96-60-270-72-425-72-519 0-967-9-1469 75-75 13-158 30-223 51-200 63-443 187-508 397l-78 269c-19 58-14 197-14 263 1 164-36 298 73 475 18 30 38 50 60 78 32 42 119 92 164 116 124 64 285 82 471 82zm2559-2039c0-39 13-120 68-108 15 3 38 9 51 11 42 9 66 8 93 32 32 30 64 100 22 146-31 34-44 32-73 32-79 0-161-33-161-113zm-3848 549c-9-62-30-55 93-120l337-181c40-20 72-37 112-57 393-201 1018-438 1447-438 51 0 66 35 175 8 66-16 21-14 104-14 285 0 584 61 853 129 176 44 553 178 721 269-5 19-24 61-33 80-14 27-22 52-35 78-22-2-55-20-77-30-27-12-49-23-77-35-162-71-313-125-489-170-522-134-1058-120-1589-44-102 14-193 35-290 51-201 34-603 162-795 239l-178 77c-145 66-165 97-279 158zm3613-600l1 2c0 0-2-1-1-2zm-3445-328v183l-99-63 99-120zm-50 694c3-36 24-25 86-64l290-159c33-21 61-34 97-52l97-53c32-16 67-36 99-50l205-95c146-73 644-246 799-246 18 0 36 27 48 39 17 17 32 23 45 43-141 0-369 57-502 94-317 91-578 190-867 335l-397 208zm3488-366l-275-98c-230-79-525-130-770-163l-175-17 134-72c34-16 138 9 170 15 59 9 116 20 172 33 55 14 113 24 170 41 139 41 178 48 313 104 53 22 236 119 261 157zm-725-530c40 0 356 123 432 160l114 54c108 49 180 94 281 150 34 19 92 61 109 65-16 32-40 62-43 107-26-6-36-20-59-35-21-14-35-24-55-39-236-174-543-270-830-328-47-10-116-27-165-27 19-17 203-107 216-107zm-2794 808c-15-29-22-28-37-51l122-90c26-20 27-11 51-24 18-10 12-18 34-35 15-11 28-19 45-30l553-319 301-137c69-28 354-143 424-160l144 144c-60 4-277 66-345 86-109 31-321 114-424 161-33 15-67 34-102 48-69 29-132 65-196 98-32 16-61 31-95 48l-475 261zm155-290c10-122 6-216 6-341 163-88 369-171 550-223 197-56 423-92 658-112 20 14 49 37 56 63-75 6-494 196-587 235-97 39-222 112-311 156l-372 222zm-229-247c-22-6-16-8-33-23-10-9-26-21-35-27l152-173c16-22 22-25 38-43 18-20 109-122 113-138h13c6 23 6 13 18 32-96 146-66 130-196 279-14 15-24 29-36 46-14 17-28 25-34 47zm3445-448c7 0 141 110 176 155 9 13 14 16 23 27 52 66 92 173 92 292-23-16-52-31-79-47l-167-88c-31-16-60-27-89-42l-359-152c45 0 282-25 314-39 27-12 51-35 51-68 0-1-25-38 38-38zm-3569 341c-10-7-49-41-56-51l250-244c28-30 62-50 85-84 13 9 21 12 31 25l-310 354zm662-493c209 10 434 17 590-131 19-18 16-22 47-13 151 44 333 112 479 170 82 32 125 71 225 39 67-21 134-67 195-98 48-24 150-78 195-91 13 16 26 40 42 61 41 55 265 402 280 444-156 52-443 294-604 196-47-29-189-159-225-200-39-44-67-69-107-106l-103-104c-76-78-71-74-139-70-452 29-747 119-1157 312 11-51 104-177 133-214l149-195zm-222 158c-65-48-51-195 0-277 10-16 25-34 41-47 18-16 33-29 46-48 24 6 55 17 80 19 0 38 3 90 0 126-3 39-84 124-108 155-13 17-46 63-59 72zm2022-315c10-7 70-38 84-37 28 0 48 37 63 55 17 23 304 385 317 412l-147 70c-32-82-275-424-317-500zm-1657 88c-47 0-69-6-117-6l-7-101c123 0 144 21 314-22 62-16 161-60 182-60 8 28 24 30 31 63-31 8-42 46-174 87-70 22-138 39-229 39zm1915-51c30-30 91-59 139-79 66-28 102-37 172-18-37 59-161 46-151 109 11 69 138 23 183 10 66-18 132-37 199-56 53-15 154-60 194-28-10 33-132 51-184 63-46 10-173 21-175 69-3 70 143 24 189 15 64-11 152-35 212-23-11 17 6 6-21 16-20 8-288 39-345 59-11 33-14 41 11 63 16 8 256-15 304-19 39-3 63-3 78 22-72 26-278 24-358 39-42 7-53 48-16 71 40 10 204-5 261-5-24 15-407 54-407 54l-146-182c-25-32-47-60-71-91-24-30-53-60-68-89zm564-126l1 2c0 0-2-1-1-2zm-2925 101l7-132c18 1 65 23 80 31l-87 101zm-80-76c0 172 43 145 43 190 0 36-9 25-26 30-31 10-82 71-112 101l-147 140c-7-27-185-267 5-424 53-43 113-74 206-74 23 0 12 4 37 6-3 14-6 14-6 31zm960-82c43-23 116-76 150-112 40-40 97-97 123-146 38 26 82 50 129 70 34 14 118 53 149 56 0 90 25 298 25 391-22-5-351-132-459-163-24-6-64-13-77-29-14-14-31-49-40-67zm750-183c27-14 51-32 74-50 13-10 21-17 35-28 18-15 18-23 39-29 24 101 236 325 316 347-11 16-255 131-278 133l-186-373zm5-276l16-37c24-83 62-350-77-350-52 0-86 68-87 120h-12c-11-48-93-124-141-74-13 13-1 0-10 15-9 13 0 3-10 15 0-173-55-333-138-478-25-43-61-69-74-115-4-15-1-11-9-28-23-50-58-97-92-140-20-28-63-52-71-85 33-3 133-8 113-64-12-33-105-42-139-49-49-11-108-19-154-32-32-8-33-20-46-49-18-40-15-59-59-59-71 0-156 56-205 83l25-96c12-34-6-65-41-60-87 12-176 127-239 186-43 40-97-19-159 53-15 18-30 34-57 36 1-41 38-130-24-138-43 10-118 81-142 114-37 51-60 120-74 190-15 75 2 40-43 82l-127 136c-176 240-157 561-69 838 4 11 4 15 8 23 8 19 6 9 11 20 13 26-45 98 67 146 43 19 93 23 152 23 32 61 93 111 144 156l54 46c-69 0-102-2-159 15-37 11-89 41-117 63-187 144-146 366-28 547-74 113-200 115-94 210 12 11 15 11 28 22 78 70 151 149 240 203 28 17 98 70 124 76 0 149 9 85-177 237-44 35-87 31-141 65-144 92-93 292 70 292 0 101 14 120-22 148-142 111-234 307-287 478-108 345-75 699-75 1060-170-41-273 150-273 271 0 232 285 358 475 388 78 13 184 29 262 29 0 69-6 113-6 183 0 196-17 425 135 564 37 33 110 66 166 83 188 55 435 50 565-93 144-157 88-487 88-693 31 0 32-4 57-6 65-5 138 5 203-1 191-16 459-6 657-6 1 36 18 64 32 88 72 112 184 182 268 283 195 236 23 435 16 513-23-6-13-3-27-22-11-13-15-18-25-32-18-23-33-39-50-62-24-30-73-101-104-115-56-25-100 41-130 72-91 93-189 184-275 281l-59 54c-38 38-71 72-109 110-158 162-97 153 54 359 27 37 54 71 81 107 115 150 154 83 304-32l365-271c81-62 161-92 161-177 0-39-64-106-86-134-61-78-58-46-17-142 43-103 94-226 59-367-16-63-34-105-68-152-18-24-29-41-50-62-57-57-186-174-225-226-20-28-25-44-40-73h365c25 109 310 320 310 588 0 277-58 365-68 499-14 201-25 168 43 302 15 30 26 56 44 83l-191 133c-97 65-13 145 21 216l50 95c56 114 169 309 251 394 23 24 55 52 92 52 63 0 234-69 277-96 108-67 217-133 171-279-6-19-4-12-11-27-16-39 3-30-27-67-35-44-45-117-71-148-23-28-35-65-52-99-11-22-15-25-20-49-7-33-11-24-28-48-46-65-48-130-88-200-66-115-102-81-205-2-35 27-75 60-114 80-2-31-22-50-35-77-10-21-34-65-38-82-6-29 11-196 16-221 33-177 75-331 57-515-13-130-80-230-148-329l-102-137c-15-20-41-49-47-72l204-6c28 4 147 121 169 150 78 108 134 230 186 353 51 120 146 331 246 400-56 108-72 292 56 359 105 55 436 72 582 102 124 26 168 48 224-95 23-60 117-259 96-313-10-27-30-42-53-53-140-73-277-154-417-226l-103-53c-11-5-30-9-45-11-163-29-182-11-302 220-73-54-161-233-193-315-52-129-147-342-236-441-28-31-65-52-86-84l174-6c193-10 540-54 712-95l11 242c25 185 82 314 251 388 117 51 260 19 376-11 66-17 134-33 193-56 348-141 207-444 99-720-12-30-49-113-50-146 28-2 311-93 334-102 47-17 105-45 141-76 61-52 83-97 83-181 0-101-48-228-146-256-50-15-90-4-136-1-34 2 1-2-28-2-23 0-22 7-43 12-95-415-167-734-407-1088-13-19-34-40-40-61 87-132 225-156 365-209 132-50 258-119 356-219 49-49 86-110 111-176 28-71 46-166 48-242 1-25-6-31-6-63 0-32-1-49-4-71-27-204-27-404-27-611l25-581-20-17c-17-7-689-14-1007-338-139-141-210-324-297-499-37-76-72-152-117-222-47-73-123-116-207-136-53-13-67 13-69-44-2-68-20-132-45-181-125-255-274-186-344-192-27-3-29-19-87-19-26 0-28 13-52 16-45 6-210-97-343 30-71 67-100 143-113 245-2 11-5 41-7 49-5 15-2 10-13 19-70 60-92 79-92 184-54 15-155 135-193 182-92 113-166 288-166 462 0 56-1 117 6 170 4 27 12 50 12 76h-55c-25 0-3-1-13 7l-7-5zm-427-134l13-32c0 9 1 9-2 17 0 2-1 4-2 5l-9 10zm793 57c0 89 112 144 173 74 16-18 26-49 26-81 0-49-20-55-37-82 106 26 258 29 363-2 48-14 88-36 128-59 31-17 81-58 105-82 21-22 73-84 97-90 16 67 106 187 148 241 30 37 167 163 212 175-13 55-44 127-69 171-60 106-168 209-274 269-82 48-79 35-128 59-75-113-261-33-343 11-51 27-136-8-151-25-58-66-37-4-91-34l-122-83c-194-160-298-416-266-690 4-34-13-33 97 35 46 28 95 51 149 69 24 8 40 7 52 23-40 9-69 54-69 101zm-619-196l19 25c50 88 38 234 105 234 24 0 18-6 37-19 0-126 5-159 31-272h12c53 229-117 401-6 403 50 1 91-46 155-11-15 56-192 137-192 170 0 34 9 33 23 59 20 39 179 353 181 377-49 12-126 69-167 69-21 0-24-4-43-6l-31-448c-4-51-64-55-148-89-29-12-54-23-81-37-29-15-54-30-81-45 8-15 14-25 19-44 107 53 169 20 97-68-6-8-33-41-36-46-9-19 2-40 7-63 63 48 42 110 130 89 20-84-31-109-31-278zm-81 76l2 2c0-1-2-2-2-2zm639-127l1 2c0 0-2-1-1-2zm966-145l8-151c128 73 183 2 215-7 5 20 10 26 21 42 12 17 15 25 25 45 14 30 29 67 40 97 42 119 48 259 19 385-111-76-197-168-266-285l-62-126zm-954 152c193 0 344-2 517-124 86-61 238-231 250-237 34-18 53 12 125-37 0 25-4 51-7 82-2 28-4 52-5 88-1 20-2 25-5 40-7 40-11 30-62 82-211 215-372 238-681 160l-132-54zm93-76c-129 0-184-32-242-32l46-124c20-39 40-70 65-104 60-82 163-162 168-169 46 31 69 56 136 56 55 0 93-40 137-50 29 57 87 69 148 69 44 0 58-23 93-31 8 11 14 22 24 33 11 13 16 15 26 30-29 43-127 130-172 172-109 99-279 150-429 150zm928-445c118-43 158 143 72 170-121 37-164-136-72-170zm-258-93c110-48 173 119 66 165-98 42-181-115-66-165zm433 27v-26c54 0 98 19 135 39 40 23 63 49 87 89 90 155 157 336 239 476 62 106 140 220 236 296 37 29 61 48 102 73 147 90 347 150 523 186 81 17 232 41 313 41 0 51-12 106-12 177 0 40-6 51-7 88l1 531c0 414 166 724-293 976-141 77-388 122-480 225-10 11-10 15-22 28-10 12-18 19-29 27-41-62-100-117-154-166-46-41-138-111-187-137l80-158 87 6c195 0 242-293-2-376-33-12-63-12-103-15-21-2-25-5-41-15-16-10-24-14-40-23 0-278-93-412-291-562-8-6-33-23-39-30-18-21-5-18-19-43-9-16-22-25-35-34 0 0 59-110-37-133 7-30 12-12 12-57 0-39-48-88-86-88-105 0-90 20-149 25 9-12 113-83 147-115 45-42 84-98 118-151 118-186 159-457 99-680-16-60-35-101-60-152-28-57-72-108-75-139-3-46 1-55-14-93-19-50-4-37-4-90zm-693-90c112-46 168 128 61 166-104 38-173-120-61-166zm-250-27c46-12 91 36 95 79 5 54-32 94-77 98-122 13-129-147-18-177zm-2025 53c194 17 225 221 285 221 15 0 28-12 37-19v-132c36 25 67 60 90 97 30 46 74 46 88-43 7-42-5-45 53-5 66 46 102 102 141 102 63 0 16-190 12-208 12 7 25 13 37 19 14 7 32 12 44 19 21 12 42 40 60 58 108 109 206 335 206 510v108c-36 0-68-7-91 39-46 91 46 149 35 200-23-2-20-6-49-6 6-27 46-82-31-82-21 0-35 35-44 50-150 258-353 376-662 354-189-14-341-158-463-286-61-63-95 3-72 35 18 24 69 70 93 95 131 133 282 238 528 238 147 0 262-35 356-92 42-26 93-64 126-99 19-19 39-37 56-57 8-11 15-20 24-32 13-16 11-23 33-29 1 32 12 44 25 63-13 19-38 54-54 71-65 67-43 53-128 123-188 156-505 213-745 119-106-42-258-122-328-215-15-20-23-25-37-44-28-36-33-61-96-61-37 0-124 1-124-31 0-64 64-42 88-119 15-49 21-27 38-68 24-57 14-120 9-179 35 21 15 31 63 31 56 0 20-139 19-202 92 0 136 24 83-90-25-52-47-155-52-213 39 11 131 101 149 101 54 0 55 3 55-50 0-52-49-137-61-190 78 7 167 83 185 83 71 0 23-155 19-184zm2503-391c32 0 95 103 110 135 30 65 26 132 26 225-68-34-85-9-135-19-25-5-42-8-69-13-32-5-24-14-53-28-19-10-39-16-65-16 6-67 26-135 56-177 16-24 98-107 130-107zm130 13c58 0 102 12 135 39 63 53 107 148 119 232 9 69 0 94 0 164-44-10-44-13-92-5-48 8-45-6-81-26l6-120c0-133-35-205-87-284zm-458 322c-48-33-41-58-118-76 0-67 21-136 45-181 40-75 110-91 184-91 36 0 44 10 74 13-22 34-73 65-100 157-19 68 2 154-85 178zm1257 4312v-164l161-7c27 0 54 1 81 1l157-11c27 2 16 35 16 68 3 144 51 178-51 276-59 57-216 52-301-12-48-37-63-68-63-151zm81-246h-81c0-125 24-235 101-314 14-15 18-23 38-31 101-44 169 24 210 109 31 62 54 134 54 223-35 0-48 4-75 6-27 2-58-1-86 0l-161 7zm111 524c92 0 160 2 231-62 95-85 87-204 71-328-16-126-3-277-75-409-98-181-227-229-381-91-96 84-111 236-118 359-3 57 6 98 6 158 0 122-12 206 51 270 51 53 115 103 215 103zm-3915-44c-99 0-193-6-250-100-19-31-22-81-15-132 6-42 5-95 5-147 19 1 22 6 43 6h372v164c0 37 8 12-1 82-6 45-44 85-80 108-18 11-44 19-74 19zm-68-802c78 0 126 18 173 120 32 70 43 142 43 233h-210c-72 0-121-6-192-6 0-63 20-161 47-217 21-44 82-130 139-130zm-273 669c0 83 107 175 196 199 84 22 191 25 263-22 157-102 110-237 111-347 0-151 4-290-54-413-16-35-49-88-74-113-136-139-351-32-409 200-29 121-33 360-33 496zm1183-404c0 72 86 37 157 20 39-9 79-18 116-26 216-45 640-136 861-146 37-1 96-7 131-11 92-11 189-2 284-7l422-7c47 0 111 11 111-38 0-48-54-49-104-43-80 9-351 6-441 5-92 0-194 12-285 13-177 1-637 83-782 112l-368 80c-35 7-102 12-102 48zm-12-259c53 0 143-30 193-43 527-133 1123-189 1678-159 56 3 186 16 186-38 0-29-15-44-43-44-501 0-885-15-1376 69-212 37-361 70-562 122-20 5-71 13-87 25-29 21-19 68 11 68zm-25-328c0 67 97 25 206 7 408-69 935-146 1343-146 116 0 280-3 391 6 28 2 100 8 122-7 39-27 20-75-42-75-583 0-736-15-1332 70-121 17-241 32-363 53l-265 46c-34 6-60 7-60 46zm1778-2021c-237 0-369-109-506-267-19-22-25-41-57-48-32 17-49 31-26 69l111 128c91 90 275 194 416 194 206 0 272-15 427-140 73-59 187-237 187-308 0-31-44-40-67-12-23 29-123 384-485 384zm-644 2759v-75c40 0 51-7 87-7 39 172 18 141 18 240-97 0-88 28-96-40-6-43-9-72-9-118zm-81-88c0 51 1 312 54 331 6 2 143-7 162-10 88-17 46-329 1-397-47 0-90 7-131 12-57 6-86-1-86 64zm-947-3384c0 189 229 206 229 31 0-73-47-151-118-151h-25c-47 0-86 68-86 120zm-552 82v31c0 65 62 139 124 139 151 0 126-277-25-277-56 0-99 50-99 107zm2354 183c0 122 119 140 169 83 50-57 39-184-82-184-45 0-87 52-87 101zm-591 4238l62-3-28-56-35 4 1 55zm-74 8l-1-55c-31 3-27 3-42 25-8 13-14 24-20 33l63-3z" stroke-width="7.62"/><g stroke-linejoin="round" stroke-linecap="round"><text x="10500" y="14850" font-family="&apos;Ariston&apos;" stroke-width="70.56" font-size="846.67" transform="matrix(1.0085 0 0 .9879 3538.3 10059.6)">00.00.0000</text><g font-family="&apos;Easy Street EPS&apos;" stroke-width="50" font-size="1411.11"><text x="10500" y="14850" transform="matrix(.96937 0 0 .9879 3258.61 6851.89)">T1</text><text x="10500" y="14850" transform="matrix(.96937 0 0 .9879 3239.11 8828.12)">T2</text></g></g><g stroke-width="7.62"><path d="m13973 4666c-1221-698-2251 820-2251 820l-12-9c66-527 188-1032 395-1462 148-292 362-608 659-847 202-156 438-275 713-347 498-109 1130-8 1920 480 0 0 1873 1497-283 3984-570 657-2570 1326-3080 2848-91-389-173-829-241-1358 330-885 1534-1238 2006-1736 1364-1443 174-2373 174-2373z"/><path d="m16926 5212c284-166 524 196 524 196l40-33c179-229 337-196 337-196 548 146 65 646 65 646-231 179-456 375-456 375-73-216-359-301-469-421-318-344-41-567-41-567zm-331-325c0 0-436 357 66 951 132 156 598 316 716 679 0 0 410-302 785-603 0 0 784-838-105-1083 0 0-257-56-547 328l-90 70c-22-129-231-719-825-342z"/><path d="m18345 7055c211-124 389 146 389 146l31-25c132-171 250-146 250-146 408 109 48 480 48 480-172 134-339 280-339 280-54-161-266-224-349-314-236-256-30-421-30-421zm-246-242c0 0-324 266 49 707 98 117 444 235 532 506 0 0 305-225 585-449 0 0 583-624-79-806 0 0-191-41-406 245l-67 51c-17-96-172-535-614-254z"/><path d="m19033 8674c122-72 226 84 226 84l17-14c77-99 145-85 145-85 237 63 28 278 28 278-99 78-196 162-196 162-32-93-155-129-202-181-137-149-18-244-18-244zm-143-141c0 0-187 154 29 410 57 68 257 136 308 293 0 0 177-130 339-260 0 0 338-361-45-467 0 0-111-24-236 142l-39 30c-9-56-99-310-356-148z"/></g></g><g font-family="&apos;Arial Black&apos;" font-weight="900" font-size="529.17"><text x="10500" y="14850" transform="matrix(.96937 0 0 .9879 4728.29 4489.24)">NN 1</text><text x="10500" y="14850" transform="matrix(.96937 0 0 .9879 4728.29 5062.89)">NN 2</text></g><g fill-rule="nonzero" stroke="#201e1e" stroke-linejoin="round" stroke-linecap="round" stroke-width="50"><path d="m5800 22209c0 53-25 104-76 150-50 46-105 69-163 69-54 0-98-19-131-58-39 13-74 19-107 19-66 0-122-20-168-60-47-39-70-87-70-143 0-71 40-134 120-189 33-22 85-47 156-76 15-6 36-14 64-25 23-44 53-85 91-122 38-38 68-57 88-57 11 0 17 5 17 15 0 16-18 41-53 73-36 33-81 65-133 97-14 34-26 66-34 97 21-4 37-6 49-6 45 0 82 14 110 43 28 29 42 66 42 112 0 47-14 90-42 128-29 38-69 68-120 90 31 35 70 53 118 53 57 0 110-22 159-66 49-44 74-93 74-145 0-13-3-28-8-44v-3c0-2 1-3 4-3 3 0 5 6 8 18 3 11 5 22 5 33zm-188-476c0-5-2-8-8-8-17 0-43 18-79 53-36 36-64 72-85 109 39-21 77-48 115-83 38-34 57-57 57-71zm-28 401c0-38-12-70-37-95-25-25-56-38-95-38-17 0-35 3-54 8-14 56-21 108-21 158 0 43 8 86 24 130 27-11 50-26 69-48 19-22 29-42 28-63-1-9 3-14 10-14 8 0 12 4 12 11 0 20-12 42-36 67-25 25-51 43-80 55 3 6 7 14 11 23 2 4 7 11 13 20 45-23 82-56 112-96 29-41 44-81 44-118zm-197 165c-18-44-27-91-27-142 0-42 7-89 20-141-37 16-68 41-93 75-25 34-37 69-37 106 0 30 10 55 30 75 20 20 46 30 77 30 10 0 20-1 30-3zm33-388c-85 46-142 81-172 106-79 66-119 135-119 205 0 44 18 80 54 110 37 30 81 45 133 45 32 0 66-7 101-23-10-15-19-30-26-45-13 2-25 4-34 4-36 0-67-12-93-36-25-23-38-52-38-85 0-39 14-76 43-110 28-34 67-60 115-78 9-32 21-63 36-93z"/><path d="m16768 22209c0 53-25 104-75 150-51 46-105 69-164 69-54 0-97-19-131-58-39 13-74 19-106 19-66 0-123-20-169-60-46-39-70-87-70-143 0-71 41-134 121-189 32-22 84-47 155-76 16-6 37-14 64-25 23-44 54-85 92-122 38-38 67-57 88-57 11 0 16 5 16 15 0 16-17 41-53 73-36 33-80 65-133 97-14 34-25 66-34 97 21-4 38-6 50-6 45 0 81 14 109 43 29 29 43 66 43 112 0 47-15 90-43 128-29 38-68 68-119 90 30 35 69 53 117 53 57 0 111-22 160-66 49-44 73-93 73-145 0-13-2-28-8-44v-3c0-2 2-3 4-3 3 0 6 6 9 18 3 11 4 22 4 33zm-188-476c0-5-2-8-7-8-18 0-44 18-80 53-36 36-64 72-84 109 38-21 76-48 114-83 38-34 57-57 57-71zm-27 401c0-38-13-70-38-95-24-25-56-38-94-38-18 0-36 3-55 8-14 56-21 108-21 158 0 43 8 86 24 130 28-11 51-26 70-48 19-22 28-42 27-63 0-9 3-14 11-14 7 0 11 4 11 11 0 20-12 42-36 67-24 25-51 43-80 55 3 6 7 14 11 23 3 4 7 11 13 20 45-23 82-56 112-96 30-41 45-81 45-118zm-198 165c-18-44-27-91-27-142 0-42 7-89 20-141-37 16-68 41-93 75-24 34-37 69-37 106 0 30 10 55 31 75 20 20 45 30 76 30 10 0 20-1 30-3zm33-388c-85 46-142 81-172 106-79 66-119 135-119 205 0 44 18 80 55 110 36 30 80 45 133 45 31 0 65-7 100-23-10-15-19-30-26-45-13 2-24 4-34 4-36 0-67-12-92-36-26-23-39-52-39-85 0-39 15-76 43-110 29-34 67-60 115-78 9-32 21-63 36-93z"/></g></g></g><g font-family="&apos;Arial&apos;"><g fill="#373435" font-weight="normal" font-size="423.33"><text x="575" y="27561">DESC 1</text><text x="575" y="28134">DESC 2</text><text x="575" y="28655">DESC 3</text></g><text x="-5904" y="7857" fill="none" stroke="#373435" stroke-linejoin="round" stroke-linecap="round" font-weight="bold" stroke-width="25" font-size="2230.24"></text></g></svg>