<svg xmlns="http://www.w3.org/2000/svg" width="744.09" height="1052.36" viewBox="0 0 21000 29700" shape-rendering="geometricPrecision" image-rendering="optimizeQuality" fill-rule="evenodd" clip-rule="evenodd" xmlns:xlink="http://www.w3.org/1999/xlink"><defs><clipPath id="1"><path d="m6246 20825c561-284 749-857 812-1451 60-559 66-1131 60-1694-8-626-33-1252-51-1878-21-680-35-1363-6-2042 25-609 84-1240 235-1831 284-1109 744-2161 970-3286 69-345 123-693 163-1042 44-388 71-780 75-1170 10-961-117-2365-911-3023-501-415-1143-426-1750-289-900 205-1755 626-2439 1254-483 443-867 977-1124 1582-283 666-397 1380-371 2103 13 371 32 741 56 1111 66 1048 166 2094 258 3141 103 1177 194 2354 246 3535 14 320 15 643 18 963 4 381 8 762 22 1143 17 466 46 943 119 1403 51 319 140 733 317 1007 168 260 452 432 734 542 340 131 721 192 1084 202 481 13 1048-61 1483-280"/></clipPath><clipPath id="2"><path d="m14732 20825c-562-284-750-857-813-1451-59-559-66-1131-59-1694 7-626 32-1252 51-1878 20-680 34-1363 6-2042-26-609-84-1240-236-1831-283-1109-744-2161-970-3286-69-345-123-693-163-1042-44-388-71-780-75-1170-10-961 117-2365 911-3023 501-415 1143-426 1751-289 899 205 1754 626 2438 1254 483 443 867 977 1124 1582 283 666 397 1380 371 2103-13 371-32 741-56 1111-66 1048-166 2094-258 3141-103 1177-193 2354-246 3535-14 320-15 643-18 963-4 381-8 762-22 1143-17 466-46 943-119 1403-51 319-139 733-317 1007-168 260-451 432-733 542-340 131-722 192-1085 202-481 13-1048-61-1482-280"/></clipPath></defs><text x="10117" y="22243" fill="#201e1e" font-family="&apos;Arial Black&apos;" stroke="#201e1e" font-weight="900" stroke-width="7.62" font-size="705.56">30</text><g fill="none" stroke-width="80"><g stroke="#322f30"><circle cx="10533" cy="1326" r="460"/><path d="m10533 515v1621"/><path d="m9723 1326h1621"/></g><g stroke="#373435"><circle cx="10569" cy="23614" r="460"/><path d="m10569 22803v1621"/><path d="m9758 23614h1621"/></g></g><rect x="9843" y="20496" width="1347" height="637" rx="318" fill="#fff" stroke="#fff" stroke-width="20"/><g fill="#373435" font-family="&apos;Arial&apos;" font-weight="normal" font-size="423.33"><text x="1325" y="24998">DESC 1</text><text x="1307" y="25432">DESC 2</text><text x="1320" y="25865">DESC 3</text></g><path d="m6246 20825c561-284 749-857 812-1451 60-559 66-1131 60-1694-8-626-33-1252-51-1878-21-680-35-1363-6-2042 25-609 84-1240 235-1831 284-1109 744-2161 970-3286 69-345 123-693 163-1042 44-388 71-780 75-1170 10-961-117-2365-911-3023-501-415-1143-426-1750-289-900 205-1755 626-2439 1254-483 443-867 977-1124 1582-283 666-397 1380-371 2103 13 371 32 741 56 1111 66 1048 166 2094 258 3141 103 1177 194 2354 246 3535 14 320 15 643 18 963 4 381 8 762 22 1143 17 466 46 943 119 1403 51 319 140 733 317 1007 168 260 452 432 734 542 340 131 721 192 1084 202 481 13 1048-61 1483-280" fill="#fff" id="0"/><use xlink:href="#0"/><g clip-path="url(#1)"><g><path d="m10467 8089c1347-45 2470 752 2505 1781 64 1862-2314 3808-4692 5753-2506-1780-5012-3561-5075-5423-36-1029 1030-1900 2378-1946 1221-41 1847 404 2489 1315 579-952 1174-1438 2395-1480zm220-363c-1337 45-1988 578-2622 1621-704-998-1390-1485-2727-1440-1477 50-2644 1004-2605 2131 70 2040 2814 3990 5559 5940 2605-2131 5210-4261 5140-6302-39-1126-1268-2000-2745-1950z" fill="#201e1e" stroke="#201e1e" stroke-width="20"/><path d="m2737 13196c0 839 978 1679 1957 2519 978-840 1957-1680 1957-2519 0-464-439-840-979-840-489 0-734 210-978 630-245-420-489-630-979-630-540 0-978 376-978 840" fill="#fff"/><g stroke="#201e1e"><g fill="#201e1e"><path d="m5672 12356c540 0 979 376 979 840 0 839-979 1679-1957 2519-979-840-1957-1680-1957-2519 0-464 438-840 978-840 490 0 734 210 979 630 244-420 489-630 978-630zm94-160c-536 0-804 230-1072 690-268-460-536-690-1072-690-592 0-1072 412-1072 920 0 919 1072 1839 2144 2759 1072-920 2143-1840 2143-2759 0-508-480-920-1071-920z" stroke-width="20"/><text x="10500" y="14850" font-family="&apos;Harrington&apos;" stroke-linejoin="round" stroke-linecap="round" stroke-width="50" font-size="1053.85" transform="matrix(.81993 0 0 .83544-5753.05 1554.53)">Texto 01</text></g><g stroke-linejoin="round" stroke-linecap="round" stroke-width="100"><path d="m5855 18108l-5-56c0 0 373-229 149-582 0 0-266-218-623 95 0 0-112 123-261 403 0 0-54 151-256 163 0 0-96 565 197 839 0 0 277 252-59 716 0 0-58 73 208 62 0 0 155 16 283-124 0 0 58-50 208-33 0 0 346-90 303-397 0 0 0-330-234-655 0 0 117-106 90-431z" fill="#201e1e"/><g fill="none"><path d="m5437 17516c0 0-328-286-440-90 0 0-341-124-511 235 0 0-454 878-560 956 0 0-21 56-237 135 0 0 279 5 295 229 0 0 43 280 342 336 0 0 90 11 197-95 0 0 21-62 181 56 0 0 150 174 440 115"/><path d="m4859 18131c0 0-75-140 85-196 0 0-245-34-149-219 0 0 90-128 240-117 0 0-97-117-38-173"/><path d="m5237 19748l-309 307c0 0 229 308 1167 459 0 0-96-845 144-973"/><path d="m5987 19346c0 0 290 351 950 348"/><path d="m6887 19647c0 0-577-153-738-364 0 0-132-87-147-12"/><path d="m6372 19451c-123-59-277-386-277-386 0 0-69-73 70-73 0 0 581-140 463-598 0 0-27-256-560-741"/><path d="m6303 18041c0 0-32 134-181 201"/><path d="m5300 19738c0 0-90 189 555 144 0 0-43 280 221 268"/><path d="m6081 20324c0 0-258 22-391-313 0 0-459 207-608-109"/><path d="m5690 20430c0 0 59 398 213 286 0 0 60 70 92 51l7-269"/><path d="m5872 20473c0 0-28 193 31 243"/></g></g><g fill="#201e1e" stroke-width="75"><path d="m5538 16942c47 0 85 33 85 73 0 72-85 145-169 217-84-72-169-145-169-217 0-40 38-73 85-73 42 0 63 18 84 55 21-37 42-55 84-55zm9-14c-47 0-70 20-93 60-23-40-46-60-93-60-51 0-92 36-92 80 0 79 92 159 185 238 93-79 185-159 185-238 0-44-41-80-92-80z"/><path d="m5177 16151c47 0 84 32 84 72 0 73-84 145-168 218-85-73-169-145-169-218 0-40 37-72 84-72 42 0 63 18 85 54 21-36 42-54 84-54zm8-14c-46 0-69 20-92 60-24-40-47-60-93-60-51 0-93 36-93 80 0 79 93 158 186 238 92-80 185-159 185-238 0-44-42-80-93-80z"/><path d="m5572 15389c46 0 84 33 84 73 0 72-84 145-169 217-84-72-169-145-169-217 0-40 38-73 85-73 42 0 63 18 84 54 21-36 42-54 85-54zm8-14c-47 0-70 20-93 60-23-40-46-60-92-60-52 0-93 36-93 80 0 79 93 158 185 238 93-80 185-159 185-238 0-44-41-80-92-80z"/></g></g><g font-family="&apos;Arial Black&apos;" font-weight="900"><g fill="#201e1e" font-size="529.17"><text x="10500" y="14850" transform="matrix(.82916 0 0 .83544-5601.3 3999.58)"> NN 1</text><text x="10500" y="14850" transform="matrix(.82916 0 0 .83544-5462.37 4360.62)">NN 2</text></g><text x="10500" y="14850" fill="#373435" font-size="454.82" transform="matrix(.77665 0 0 .83544-3152.62-311.19)">00.00.0000</text></g></g></g><path d="m2309 7984v99h180c26 0 46 5 59 15 13 10 20 23 20 38 0 16-6 29-20 39-13 10-32 15-58 15h-491c-28 0-48-5-61-16-12-11-18-28-18-52v-138c0-40 4-72 11-94 8-21 20-40 37-56 16-16 37-28 61-36 25-8 52-12 82-12 65 0 114 16 148 50 33 33 50 82 50 148m-292 26v73h195v-73c0-25-3-46-10-63-6-17-16-30-31-39-14-9-33-13-57-13-28 0-51 7-68 20-19 16-29 47-29 95m324-657c35 1 68 7 97 17 30 11 55 25 76 43 20 18 36 39 47 64 10 24 15 51 14 82-1 29-8 56-20 80-13 23-30 43-52 60-22 16-48 29-78 37-30 8-62 11-98 10-36-1-68-7-98-17-29-11-54-24-75-42-21-18-36-40-47-64-10-25-15-52-14-81 1-30 8-57 20-81 12-24 30-44 52-61 22-16 48-29 78-37 30-8 62-11 98-10m-4 99c-48-1-86 6-113 23-28 17-42 40-43 70-1 19 5 36 16 51 12 15 29 27 52 36 23 9 51 14 82 15 31 1 58-2 81-9 24-7 42-18 55-32 13-14 19-31 20-51 1-29-12-54-38-72-27-19-64-29-112-31m111-277l98 12c24 3 41 10 52 20 11 11 15 24 13 38-1 14-9 25-22 33-13 7-31 9-55 7l-328-41c-53-7-77-26-73-57 2-17 9-28 22-33 14-6 33-8 57-5-23-15-40-29-51-43-11-14-15-31-12-52 2-20 11-39 26-57 14-18 32-26 52-23 15 2 26 7 35 17 8 9 11 18 10 28 0 4-4 12-11 25-7 13-11 25-12 35-2 15 1 27 9 37 8 10 21 19 38 26 17 8 38 14 62 19 24 5 54 9 90 14m122-814c34 10 64 24 89 42 26 18 47 38 62 61 16 23 25 47 29 74 4 26 2 54-7 82-8 29-22 53-40 72-18 20-40 35-65 45-26 10-54 16-85 16-31-1-63-6-97-16-35-11-65-25-91-42-25-18-46-38-61-61-16-22-25-47-29-73-4-27-2-54 7-83 9-28 22-52 40-72 18-20 40-35 66-45 25-11 54-16 84-16 31 0 64 6 98 16m-29 95c-46-14-85-17-116-8-30 9-50 28-59 56-5 19-5 37 3 54 7 18 21 34 41 48 20 15 45 27 75 36 29 9 56 13 81 13 24-1 44-6 60-17 16-10 27-25 33-44 9-28 3-55-18-80-21-25-54-44-100-58m-67-341l13 6c-18-28-28-53-32-77-3-24 0-49 11-73 11-24 26-42 47-55 21-14 44-20 71-19 16 0 32 3 48 8 16 5 36 13 60 24l202 90c22 10 36 21 44 35 7 13 8 26 2 39-6 14-16 22-32 25-15 4-33 1-54-9l-181-81c-35-16-64-24-87-24-23-1-39 12-50 36-7 16-8 33-2 52 5 18 17 35 34 50 15 12 44 28 88 48l136 60c22 10 36 22 43 35 8 14 8 27 3 40-6 13-17 21-32 25-15 3-33 0-54-10l-313-140c-21-9-35-20-42-32-6-12-7-25-1-38 3-7 9-14 16-18 7-4 16-6 27-6 11 0 22 3 35 9m606-427l-10-6c9 21 16 40 20 56 3 17 4 34 2 50-2 16-7 32-16 47-11 21-27 37-47 49-20 12-44 19-70 20-27 2-55-1-85-9-30-8-60-20-91-38-65-36-108-77-130-124-22-46-21-91 3-134 14-25 30-43 50-54 20-12 45-20 75-24l-153-85c-22-12-36-25-43-38-7-13-7-26 1-39 7-13 17-20 31-22 14-1 31 3 50 14l458 256c19 11 32 23 38 36 6 13 5 25-1 37-7 12-17 19-32 21-14 2-31-2-50-13m-246 85c28 15 54 25 78 29 24 4 44 2 61-5 17-7 30-18 38-33 8-15 11-32 8-50-2-17-11-35-27-54-15-18-38-36-67-52-28-16-53-25-77-29-24-3-45-2-63 5-17 7-30 18-38 33-9 16-12 33-8 52 4 18 15 36 31 54 16 18 38 35 64 50m394-554l-110 158c22 15 44 25 66 30 22 5 41 4 58-2 17-6 30-16 40-30 7-10 12-20 14-30 3-9 4-20 4-32-1-11-2-23-4-34-3-11-6-25-10-43-2-8 0-15 5-23 6-8 14-13 23-14 9-1 18 2 28 9 9 6 17 16 25 30 8 14 13 30 16 50 2 19 1 39-4 62-5 22-15 45-31 68-36 52-82 79-138 83-55 4-113-16-174-59-29-20-53-43-73-67-20-24-33-50-42-76-8-26-9-52-5-78 5-27 15-52 32-77 22-31 49-53 81-64 31-11 64-13 97-7 33 7 63 19 89 38 25 17 37 34 36 51-1 17-9 36-23 57m-166 119l102-147c-34-21-64-31-90-30-25 2-45 13-60 34-14 20-17 42-9 67 7 25 27 50 57 76m326-598l246 136-138-261c-11-21-18-37-20-48-2-12 1-22 11-31 8-9 19-13 33-12 13 1 24 6 34 16 4 3 7 8 11 14 4 6 7 12 10 18 3 6 6 12 10 20l133 268c4 8 9 17 15 29 6 12 10 23 13 33 2 10 3 19 1 28-2 9-7 17-14 25-10 10-21 15-32 15-11 1-21-1-31-5-9-3-26-11-52-24l-264-133c-6-3-12-6-19-10-7-3-13-7-19-11-6-4-11-8-15-11-6-6-10-13-13-22-2-9-3-17-2-26 2-9 6-16 12-22 11-11 23-15 35-12 13 4 31 13 55 26m646-357c23 28 40 56 53 84 12 29 18 58 19 85 0 28-5 54-16 78-11 25-28 47-51 66-22 19-47 32-72 38-26 7-52 7-79 2-27-6-54-17-80-34-26-17-50-39-73-66-23-28-41-56-53-85-12-29-18-57-19-85 0-27 5-53 16-77 11-25 28-46 50-65 23-20 47-33 73-39 26-7 53-8 80-2 27 5 53 16 79 34 26 17 50 39 73 66m-75 64c-31-37-62-61-93-70-31-9-57-5-80 15-15 12-24 27-27 46-4 19-1 40 8 63 9 23 24 47 44 71 20 24 40 42 61 55 21 13 41 20 60 20 19 0 36-6 51-19 22-19 32-45 28-77-4-32-22-67-52-104m509-234c8 12 14 28 17 46 4 18 3 38-1 59-3 21-12 42-26 62-14 21-32 39-56 55-50 34-101 43-153 26-52-16-98-54-139-114-27-41-44-81-52-121-8-40-6-77 7-111 13-34 37-62 70-85 22-14 43-24 66-28 22-4 44-5 64-1 20 4 38 10 53 19 16 9 27 19 35 31 8 12 11 24 10 37-2 14-8 24-19 31-6 4-13 6-21 5-7-1-16-5-28-10-23-12-42-19-59-21-17-2-34 3-50 14-24 17-36 41-35 74 0 33 14 69 40 109 13 18 26 34 40 47 14 13 29 23 43 29 15 6 29 9 43 7 14-1 27-5 39-14 16-11 27-25 32-42 6-17 7-38 3-63-2-14-3-27-1-37 1-10 6-18 14-24 10-6 22-7 34-2 13 4 23 12 30 22m297-234l-169 91c13 24 28 43 45 57 18 14 35 22 53 25 18 2 34-1 50-9 10-6 19-12 26-20 7-7 12-16 17-27 5-11 9-21 12-32 3-11 6-25 10-44 2-7 7-12 16-17 8-4 17-5 26-2 8 3 16 10 21 20 5 10 8 23 9 39 0 16-2 33-9 51-6 18-16 36-31 54-14 18-34 33-58 46-56 30-109 34-160 12-51-23-94-67-129-133-17-31-28-62-35-93-6-31-7-59-3-86 5-27 15-51 31-73 16-21 37-39 63-53 34-18 67-25 100-21 34 5 64 18 90 39 27 21 48 46 63 74 14 27 17 48 9 62-9 15-24 28-47 40m-201 31l157-84c-21-35-43-58-67-69-23-10-46-9-68 3-22 12-35 30-39 56-4 25 2 56 17 94m-38-304l-55-28-8 62c-2 17-4 28-6 33-1 4-7 9-15 14l-26 13c-8 5-13 5-15 2-2-3-2-11-1-25l8-70c1-6 2-13 2-21 1-7 2-13 4-17 1-4 5-8 9-13 5-4 11-8 18-12l18-10c14-7 24-10 32-9 7 2 20 7 38 17l64 33c11 6 18 11 18 12 3 5-1 10-10 15l-24 12c-7 4-12 6-17 5-5 0-10-1-16-4-6-3-12-6-18-9m469-120l21-8-13-34c-14-34-21-63-22-87-1-23 5-43 18-59 14-17 35-31 65-43 53-22 86-17 99 15 4 10 5 20 2 30-3 9-8 16-15 19-4 1-10 3-20 5-9 2-16 4-22 6-17 7-25 17-25 31 0 13 5 31 13 53l11 27 22-9c35-14 57-9 67 17 8 18 8 31 0 40-7 8-19 16-35 22l-22 10 118 293c8 22 11 40 7 55-4 15-13 26-26 31-13 5-26 4-39-4-13-8-24-23-33-45l-118-294-25 11c-13 5-25 6-35 1-11-4-18-13-23-24-11-27-1-46 30-59m679 7c11 34 16 66 17 98 0 31-4 60-14 86-10 26-24 48-43 66-20 18-43 32-72 42-28 9-55 12-81 8-26-4-51-13-74-29-23-15-44-35-61-60-18-26-32-56-43-90-11-34-17-67-18-99 0-31 4-59 14-85 9-26 24-48 43-66 20-19 43-32 71-41 28-10 56-13 82-9 27 4 52 13 75 28 23 15 43 36 61 61 17 26 32 56 43 90m-94 31c-15-47-35-80-60-100-25-21-52-26-80-17-18 6-32 17-42 33-10 16-16 36-16 61 0 25 5 53 14 83 10 29 22 54 36 74 15 20 31 33 49 41 17 7 35 7 54 1 28-9 46-29 55-61 8-31 5-70-10-115m294-8l24 97c6 23 6 42 0 56-7 14-17 23-30 26-14 4-27 1-39-9-11-10-20-26-26-49l-80-323c-13-52-4-82 27-90 16-4 29-1 39 10 10 10 18 27 25 51 5-27 12-48 21-63 9-15 24-25 43-30 20-5 41-4 63 4 22 7 35 21 40 41 4 14 3 27-3 38-6 11-13 18-23 20-3 1-12 1-27-1-14-2-27-2-37 1-14 3-24 11-31 22-6 11-10 26-11 45 0 19 2 40 6 65 4 25 10 54 19 89m234 130c-15 2-28-1-41-11-13-9-21-25-24-45-3-18-1-34 7-48 8-15 19-23 34-26 15-3 29 1 41 12 13 11 21 25 24 43 4 20 1 37-7 51-9 13-20 21-34 24m230-30c-15 2-28-3-40-13-12-10-20-26-22-46-2-18 1-34 10-48 8-14 20-22 35-24 15-2 29 3 41 14 12 12 19 26 21 44 3 21-1 38-10 51-9 13-21 20-35 22m228-12c-15-1-27-8-37-20-9-13-13-30-11-51 1-18 8-32 19-44 11-12 25-17 40-16 15 1 27 9 36 22 10 14 14 30 12 48-2 20-8 36-20 47-12 11-25 16-39 14" fill="#201e1e" fill-rule="nonzero"/><path d="m14732 20825c-562-284-750-857-813-1451-59-559-66-1131-59-1694 7-626 32-1252 51-1878 20-680 34-1363 6-2042-26-609-84-1240-236-1831-283-1109-744-2161-970-3286-69-345-123-693-163-1042-44-388-71-780-75-1170-10-961 117-2365 911-3023 501-415 1143-426 1751-289 899 205 1754 626 2438 1254 483 443 867 977 1124 1582 283 666 397 1380 371 2103-13 371-32 741-56 1111-66 1048-166 2094-258 3141-103 1177-193 2354-246 3535-14 320-15 643-18 963-4 381-8 762-22 1143-17 466-46 943-119 1403-51 319-139 733-317 1007-168 260-451 432-733 542-340 131-722 192-1085 202-481 13-1048-61-1482-280" fill="#fff"/><g clip-path="url(#2)"><g><path d="m10511 8089c-1348-45-2471 752-2506 1781-64 1862 2314 3808 4693 5753 2505-1780 5011-3561 5075-5423 35-1029-1031-1900-2378-1946-1221-41-1848 404-2490 1315-579-952-1173-1438-2394-1480zm-221-363c1337 45 1989 578 2622 1621 704-998 1390-1485 2728-1440 1476 50 2643 1004 2604 2131-69 2040-2814 3990-5558 5940-2605-2131-5210-4261-5141-6302 39-1126 1269-2000 2745-1950z" fill="#201e1e" stroke="#201e1e" stroke-width="20"/><path d="m14340 13196c0 839 978 1679 1957 2519 978-840 1956-1680 1956-2519 0-464-438-840-978-840-489 0-734 210-978 630-245-420-490-630-979-630-540 0-978 376-978 840" fill="#fff"/><g stroke="#201e1e"><g fill="#201e1e"><path d="m17275 12356c540 0 978 376 978 840 0 839-978 1679-1956 2519-979-840-1957-1680-1957-2519 0-464 438-840 978-840 489 0 734 210 979 630 244-420 489-630 978-630zm93-160c-536 0-804 230-1071 690-268-460-536-690-1072-690-592 0-1072 412-1072 920 0 919 1072 1839 2144 2759 1071-920 2143-1840 2143-2759 0-508-480-920-1072-920z" stroke-width="20"/><text x="10500" y="14850" font-family="&apos;Harrington&apos;" stroke-linejoin="round" stroke-linecap="round" stroke-width="50" font-size="1053.86" transform="matrix(.77668 0 0 .83544 6320.81 1638.07)">Texto 02</text></g><g stroke-linejoin="round" stroke-linecap="round" stroke-width="100"><path d="m14564 17608c0 0-324-236 81-451 0 0 359-215 602-75l695 489c0 0 277 166 277 537 0 0-6 302-113 404 0 0-197 234-513 301 0 0-107 14-240-121 0 0-180-220 14-424 0 0-396-183-150-551l-29-35c0 0-287 94-624-74z" fill="#201e1e"/><g fill="none"><path d="m14564 17608c0 0-546 351-317 910 0 0 269 494 892 250"/><path d="m15058 18796l78 162"/><path d="m15461 18776c0 0-415 43-331 384 0 0 64 43 177-70 113-113 113-113 113-113l144-165"/><path d="m15492 18895c0 0 698 504 622 826 0 0 0 102-75 172 0 0-226 258-243 623"/></g><path d="m15298 20570l116-43 382-11c0 0 17 247-504 194 0 0-185-65 6-140z" fill="#201e1e"/><g fill="none"><path d="m15414 20527v-650c0 0 538 27 700-156"/><path d="m15333 19463c0 0 97-14 42 405l39 9"/><path d="m15557 19285c0 0-530 529-1019 446"/><path d="m14483 19685c0 0 489-253 683-517"/><path d="m14590 17858c0 0-6 237 255 280"/></g></g><g fill="#201e1e" stroke-width="75"><path d="m15526 16750c47 0 84 32 84 72 0 73-84 145-169 218-84-73-169-145-169-218 0-40 38-72 85-72 42 0 63 18 84 54 22-36 43-54 85-54zm8-14c-46 0-69 20-93 60-23-40-46-60-92-60-51 0-93 36-93 79 0 80 93 159 185 239 93-80 185-159 185-239 0-43-41-79-92-79z"/><path d="m15745 16103c47 0 85 33 85 73 0 72-85 145-169 217-85-72-169-145-169-217 0-40 38-73 84-73 43 0 64 18 85 55 21-37 42-55 84-55zm8-13c-46 0-69 19-92 59-23-40-46-59-93-59-51 0-92 35-92 79 0 79 92 159 185 238 92-79 185-159 185-238 0-44-42-79-93-79z"/><path d="m15542 15374c47 0 85 32 85 72 0 73-85 145-169 218-85-73-169-145-169-218 0-40 38-72 84-72 43 0 64 18 85 54 21-36 42-54 84-54zm8-14c-46 0-69 20-92 60-23-40-46-60-93-60-51 0-92 36-92 79 0 80 92 159 185 239 92-80 185-159 185-239 0-43-42-79-93-79z"/></g></g><g font-family="&apos;Arial Black&apos;" font-weight="900"><g fill="#201e1e" font-size="529.17"><text x="10500" y="14850" transform="matrix(.82916 0 0 .83544 7719.27 3999.58)"> NN 1</text><text x="10500" y="14850" transform="matrix(.82916 0 0 .83544 7858.21 4360.62)">NN 2</text></g><text x="10500" y="14850" fill="#373435" font-size="454.82" transform="matrix(.77665 0 0 .83544 5673.86-311.19)">00.00.0000</text></g></g></g><path d="m14040 3784c-13 5-27 4-42-3-14-7-25-20-32-39-6-17-7-33-2-49 5-16 15-26 29-32 14-5 28-4 42 4 15 8 25 21 32 38 7 19 8 36 2 51-6 15-15 25-29 30m220-62c-15 2-28-2-40-12-12-10-20-26-22-47-2-18 1-33 10-47 8-14 20-22 35-24 15-2 29 3 41 14 12 11 19 26 21 44 3 20-1 37-10 50-9 13-21 21-35 22m222-21c-15 0-27-6-38-18-11-11-16-28-16-49 0-18 5-33 15-46 10-13 23-19 38-19 15 0 28 6 39 19 10 13 16 28 16 46 0 21-6 37-16 49-11 12-23 18-38 18m415 141l24-167c-22 20-44 35-66 44-22 9-45 12-70 9-30-5-56-18-78-41-22-23-38-53-47-92-9-38-10-82-3-131 7-50 20-92 39-126 20-34 43-59 71-74 28-15 57-21 88-16 26 3 48 13 67 29 19 16 34 39 45 68l2-14c3-22 9-38 19-48 10-10 22-14 36-12 13 2 23 9 30 21 7 12 9 30 6 51l-71 512c-7 53-26 77-57 73-19-3-30-12-34-27-4-15-4-34-1-59m-142-365c-5 32-4 60 1 84 5 24 14 43 26 56 12 13 26 21 42 23 17 2 34-1 50-10 16-9 30-24 42-46 12-22 20-49 24-83 4-23 4-45 2-65-3-20-7-36-14-50-7-14-16-25-27-33-10-7-22-12-35-14-25-4-49 6-70 30-21 24-35 60-41 108m610 319l4-15c-16 14-32 26-48 34-15 9-31 14-48 15-16 2-34 1-53-5-22-6-41-17-56-33-15-17-25-37-30-60-5-27-2-64 11-110l61-229c6-23 15-39 26-48 12-9 24-12 39-8 14 4 24 13 29 26 6 14 6 33 0 56l-49 184c-7 27-11 50-13 69-1 20 2 36 9 48 7 13 18 22 35 26 16 5 32 3 49-5 18-8 32-20 43-37 10-15 22-50 37-105l37-140c6-23 15-39 27-48 12-10 25-12 39-8 14 3 24 12 29 26 6 14 6 32 0 55l-89 335c-6 22-15 37-26 46-11 9-23 11-36 8-13-4-22-12-28-26-5-14-5-31 1-51m487 19l-179-69c-10 25-14 49-13 72 1 22 6 41 16 56 9 15 22 26 39 32 11 4 21 7 31 7 11 0 21-1 32-4 11-4 22-8 32-13 10-5 23-12 40-20 6-3 14-3 22 0 10 4 16 10 20 18 3 9 3 19-2 30-4 10-11 21-23 32-11 11-26 20-44 27-18 7-38 11-61 12-23 1-47-4-73-14-58-23-96-61-113-114-17-54-12-116 14-186 13-33 29-62 47-87 19-25 40-44 63-59 23-14 48-22 75-24 26-2 53 2 81 13 36 14 63 35 81 63 19 28 29 59 30 94 2 34-3 66-14 96-11 28-25 44-41 47-16 3-36 0-60-9m-155-133l166 64c12-39 15-70 7-95-7-24-23-41-47-51-23-8-45-6-67 7-22 14-42 39-59 75m389 283l-42 91c-10 21-22 36-35 43-14 7-27 7-40 1-13-6-21-16-24-31-3-15 1-33 11-55l139-302c23-48 48-66 77-52 15 6 23 17 24 32 1 14-3 33-13 55 21-17 40-29 56-35 17-6 34-5 53 4 19 9 34 23 46 42 13 20 14 39 6 58-7 13-15 23-27 28-11 5-21 5-30 1-3-1-10-7-20-18-10-11-20-19-30-23-13-6-25-7-37-3-12 5-25 14-37 29-12 14-24 32-36 54-12 21-26 49-41 81m547 218c-18 31-38 57-61 79-23 21-47 37-73 47-25 10-51 14-78 12-26-2-52-11-78-26-26-15-46-33-61-55-15-22-24-47-28-75-5-27-3-56 4-86 7-30 19-61 37-92 18-31 38-58 61-79 23-22 47-37 72-47 25-10 51-14 78-12 27 2 53 11 78 25 26 15 46 34 61 56 15 22 25 47 29 75 4 27 3 56-4 86-7 31-20 61-37 92m-86-49c24-42 36-79 34-112-2-32-16-56-41-71-17-9-34-13-53-10-19 4-37 13-56 30-18 16-35 38-51 66-16 27-26 52-31 76-4 24-4 46 3 64 6 18 18 32 35 41 25 15 53 15 81 1 29-15 55-43 79-85m525 476c-20 25-42 44-67 54-25 10-51 12-79 6-27-7-55-21-84-44-28-22-48-46-60-72-11-25-16-50-13-73 2-23 10-42 22-58 8-10 18-16 29-19 12-3 22 0 32 7 8 6 12 14 13 22 0 8-1 18-4 30-5 23-5 43 0 60 4 17 16 33 35 48 15 12 31 18 48 17 16 0 28-6 37-17 13-17 17-33 13-48-5-16-16-37-34-62-20-29-36-54-45-76-10-22-14-45-13-67 1-22 10-44 26-65 15-19 34-33 56-43 22-9 46-12 72-8 26 4 51 16 77 36 20 16 36 33 47 50 12 18 21 35 25 52 4 17 4 33 2 47-3 15-8 27-15 37-9 11-19 18-30 20-11 2-22-1-33-10-8-6-13-14-14-24-1-10-1-23 0-40 1-14 0-26-3-38-4-12-12-23-26-34-14-11-28-16-43-16-15 0-27 5-35 16-8 10-11 21-9 32 2 12 7 25 15 38 9 13 21 30 36 52 19 26 31 50 39 72 7 22 10 43 7 62-2 20-10 38-24 56m308 197l-142-129c-18 20-30 41-38 62-7 22-9 41-5 58 4 18 12 33 25 44 9 8 18 14 27 18 10 4 20 7 32 8 11 1 23 0 34-1 11 0 26-2 44-4 7-1 14 2 21 8 8 7 11 15 12 24 0 9-4 19-12 28-8 8-19 15-33 21-15 6-32 9-51 9-19 1-40-3-61-10-22-8-43-21-63-40-47-42-69-92-65-148 3-56 29-112 79-167 23-26 48-48 75-65 26-16 53-27 79-32 27-5 53-4 79 4 25 8 49 22 71 41 28 26 46 56 53 89 8 33 6 66-5 98-10 33-26 61-48 85-20 22-38 32-55 29-16-3-34-13-53-30m-97-180l132 120c26-32 39-61 41-87 2-25-7-47-26-64-18-16-40-22-65-17-25 4-53 20-82 48m266 414l-74 66c-18 16-35 24-50 25-15 1-28-4-37-15-9-11-12-24-9-39 3-15 14-30 32-46l249-218c40-35 71-41 91-16 11 12 14 25 9 38-4 14-16 29-34 46 26-7 48-10 66-9 17 1 33 9 46 25 14 16 22 35 25 58 4 23-3 41-18 55-11 9-23 14-35 14-13 0-22-4-28-11-3-3-6-11-11-25-5-14-11-25-18-33-10-11-21-17-34-18-13 0-27 3-44 11-17 8-35 20-55 35-20 15-44 34-71 57m428 615c-28 18-55 27-82 28-27 2-52-6-76-21-24-16-45-39-65-71-18-30-29-59-31-87-2-29 2-53 12-74 10-21 24-36 40-47 11-7 23-9 35-8 12 2 21 8 27 18 5 9 7 17 5 25-3 8-7 17-14 27-12 20-19 39-21 56-1 18 4 37 17 57 11 17 24 28 39 33 16 5 29 4 41-3 18-12 27-25 28-41 1-17-2-40-11-70-9-34-14-63-16-87-2-24 2-47 11-67 8-21 24-38 47-52 20-13 42-20 66-22 24-1 48 5 70 18 23 13 43 33 60 60 14 22 23 43 28 64 6 20 7 39 6 57-2 17-7 32-14 45-8 13-17 23-27 29-12 8-23 10-35 9-11-2-20-9-28-21-5-8-7-18-4-27 2-10 6-23 13-38 6-12 9-25 10-37 1-12-4-26-13-40-9-16-21-26-35-31-14-5-27-4-38 4-11 6-17 15-19 27-2 12-2 25 1 40 4 15 9 36 16 62 9 31 13 58 12 81 0 23-5 43-14 61-9 17-23 32-41 43m232 304l-87-172c-24 13-43 28-58 45-14 17-23 35-25 52-3 18-1 35 7 50 6 11 12 20 19 27 8 7 17 13 27 18 10 5 21 9 32 12 10 3 25 7 43 12 7 2 12 7 16 16 5 9 6 17 3 26-3 9-10 16-21 21-10 5-22 8-38 8-16 0-33-3-51-9-18-7-36-17-53-33-18-15-33-34-45-59-29-57-31-110-9-162 23-51 68-93 134-127 31-16 62-27 93-33 31-7 59-7 86-2 26 5 50 16 71 32 21 17 39 38 52 64 18 35 24 69 19 102-5 34-19 64-40 90-22 27-47 47-75 62-27 14-47 16-62 8-14-9-27-25-38-48m-27-203l80 160c35-21 58-43 69-66 11-24 11-47-1-70-11-22-29-35-55-40-25-4-56 1-93 16m65 659l14-6c-21-3-40-9-56-16-16-7-30-17-41-29-12-11-21-26-29-45-9-22-12-44-8-66 3-22 13-42 28-59 18-21 49-41 93-60l216-93c22-9 40-12 54-8 14 3 24 12 30 25 6 14 5 27-2 41-8 13-22 24-44 33l-175 75c-25 11-45 22-61 32-16 11-27 23-33 37-5 13-5 28 2 44 6 15 18 27 34 36 17 9 35 12 56 11 17-1 52-13 104-36l133-57c22-9 40-12 54-8 15 4 25 13 31 26 5 14 4 27-3 40-7 13-22 24-44 33l-316 135c-21 9-38 12-52 9-14-4-23-12-28-24-6-13-4-25 3-38 7-13 21-23 40-32m458 371l-14 3c31 12 55 26 73 42 17 16 29 36 35 61 7 29 5 59-7 88-13 30-35 56-66 79-32 23-71 41-120 53-35 9-68 13-100 12-32-1-60-6-83-15-24-10-44-23-59-40-16-17-27-37-32-60-7-27-6-52 2-74 9-21 24-44 45-67l-173 43c-50 13-79 4-87-27-4-18-1-31 11-40 11-10 30-17 55-24l497-124c22-6 39-6 52-1 12 5 21 15 24 29 3 13 1 26-8 37-10 11-24 20-45 25m-121 229c30-7 55-18 75-31 20-13 34-28 42-44 9-17 11-34 6-50-6-27-24-46-53-57-30-12-69-12-118 0-45 12-79 30-100 54-21 24-28 50-21 76 4 16 13 30 27 40 15 11 34 18 58 20 25 3 52 0 84-8m-115 480c-25-21-45-42-58-62-14-21-23-45-26-73-3-25 0-48 10-68 10-20 24-37 43-50 19-13 41-21 65-24 32-4 60 1 85 16 25 14 43 35 54 64 3 6 9 21 18 45 9 24 17 44 24 61 7 17 15 35 25 55 31-5 53-13 67-24 13-11 18-31 14-60-3-25-9-43-19-54-10-12-24-21-41-28-18-7-30-12-36-15-6-3-9-11-11-23-1-11 2-21 10-30 7-9 18-14 31-16 21-3 41 1 63 11 21 9 39 26 55 51 16 24 26 55 31 94 5 43 3 78-6 104-10 26-27 46-52 59-25 14-60 23-104 28-27 4-51 7-70 9-19 2-41 5-64 7-22 3-45 9-68 18-24 9-39 14-46 15-12 1-23-2-34-10-11-8-18-18-19-30-1-11 3-21 13-32 10-12 26-24 46-38m169-27c-8-14-17-34-27-60-11-27-18-45-23-55-4-10-12-20-23-28-11-8-25-11-42-9-18 2-32 9-43 22-12 13-16 28-14 47 2 19 10 36 22 51 12 15 27 26 44 32 19 6 49 7 90 2l16-2m-51 312l-99 2c-24 1-42-4-54-13-12-9-19-21-19-35 0-14 6-26 18-36 12-9 30-14 53-14l330-6c54-1 81 15 81 47 1 16-5 28-18 35-12 8-31 12-55 13 25 11 43 23 56 35 13 13 19 29 20 50 0 20-6 41-18 60-12 20-29 30-49 30-15 1-27-3-36-11-10-8-15-17-15-27 0-4 3-12 8-26 5-14 7-27 7-37 0-15-5-26-14-35-10-9-23-16-41-21-18-5-40-8-64-9-25-2-55-2-91-2m109 280l208-5c40 0 70 0 87 0 24 1 43 7 56 18 13 11 19 25 19 42-1 20-10 34-28 40-17 7-42 9-74 8-20-1-39-2-59-4l-213-23c-25-3-45-7-58-13-14-6-20-16-20-28 1-13 8-22 21-27 13-4 34-7 61-8m-288 29c1-14 7-27 19-37 12-11 28-16 49-15 17 1 33 6 45 17 12 11 18 24 17 39 0 15-7 28-20 38-13 11-28 15-46 15-21-1-36-7-48-18-11-11-16-24-16-39" fill="#201e1e" fill-rule="nonzero"/></svg>