<svg xmlns="http://www.w3.org/2000/svg" width="744.09" height="1052.36" viewBox="0 0 21000 29700" shape-rendering="geometricPrecision" image-rendering="optimizeQuality" fill-rule="evenodd" clip-rule="evenodd"><defs><clipPath id="0"><path d="m5636 17265c-826 375-2396 303-2873-391-475-692-371-2689-416-3651-113-2409-398-4235-472-6178-82-2157 1484-3618 3371-3984 2593-504 2456 2795 2128 4459-194 916-527 1714-770 2610-450 1653-50 4219-206 5939-81 595-330 982-762 1196"/></clipPath><clipPath id="1"><path d="m15461 17301c826 375 2397 302 2873-392 475-691 372-2689 417-3651 113-2408 398-4235 472-6177 82-2157-1484-3618-3372-3985-2593-504-2455 2795-2127 4459 193 917 526 1714 770 2611 449 1652 50 4218 206 5939 80 594 330 982 761 1196"/></clipPath></defs><text x="10046" y="19022" fill="#201e1e" font-family="&apos;Arial Black&apos;" stroke="#201e1e" font-weight="900" stroke-width="7.62" font-size="705.56">24</text><g fill="none" stroke-width="80"><g stroke="#322f30"><circle cx="10533" cy="1326" r="460"/><path d="m10533 515v1621"/><path d="m9723 1326h1621"/></g><g stroke="#373435"><circle cx="10498" cy="20686" r="460"/><path d="m10498 19875v1621"/><path d="m9688 20686h1620"/></g></g><rect x="9843" y="17476" width="1347" height="637" rx="318" fill="#fff" stroke="#fff" stroke-width="20"/><g fill="#373435" font-family="&apos;Arial Narrow&apos;" font-weight="normal" font-size="423.33"><text x="378" y="27385">DESC 1</text><text x="355" y="28269">DESC 2</text><text x="351" y="29073">DESC 3</text></g><g clip-path="url(#0)"><g><g stroke="#000"><g stroke-width="20"><path d="m4613 11464l-65 45v-45h65zm667-51v-38l-28 22 28 16zm-1723 792l-214 150v-150h214zm6637-4835v6716l2696 1467-4886 2285-1257-2826h-30v-69l-1547-3479-60 49 15 56-43-33-14 11 4-18-168-126-2107 6629-5105-1708 2037-1430v-7370l-245-184 3169-4446 2438 8556 26-105-12-28 16 9 2076-8549 3341 4312-344 281z"/><path d="m4649 4765l-975 269-19-1198 1001 239c87-109 213-178 354-178 130 0 248 59 333 154l1019-262v1199l-973-251c-85 131-224 215-379 215-145 0-274-72-361-187z"/><path d="m5009 9684c142 0 258 135 258 300 0 166-116 300-258 300-143 0-259-134-259-300 0-165 116-300 259-300z"/><path d="m5062 12207c143 0 259 134 259 300 0 166-116 300-259 300-142 0-258-134-258-300 0-166 116-300 258-300z"/><path d="m5062 13667c143 0 259 135 259 300 0 166-116 300-259 300-142 0-258-134-258-300 0-165 116-300 258-300z"/><path d="m5009 5678c142 0 258 134 258 300 0 166-116 300-258 300-143 0-259-134-259-300 0-166 116-300 259-300z"/><path d="m5009 7544c142 0 258 134 258 300 0 165-116 300-258 300-143 0-259-135-259-300 0-166 116-300 259-300z"/></g><g stroke-width="250"><path d="m3365 12466c-55 0-100-64-100-142 0-79 45-143 100-143 56 0 101 64 101 143 0 78-45 142-101 142z"/><path d="m4817 11066h843v317h-843z"/></g></g><g fill="#373435" font-family="&apos;Arial Black&apos;" font-weight="900" font-size="354.37"><text x="10500" y="14850" transform="translate(-5960.37-248.71)">NN 1</text><text x="10500" y="14850" transform="translate(-5948.3 104.06)">NN 2</text></g><g font-family="&apos;Edwardian Script ITC&apos;" stroke-linejoin="round" stroke-linecap="round"><g font-size="1176.37" transform="translate(-7747.35 876.12)"><text x="10500" y="14850" fill="#fff" stroke="#fff" stroke-width="250">Texto 01</text><text x="10500" y="14850" fill="#373435" stroke="#373435" stroke-width="50">Texto 01</text></g><g transform="translate(-7596.55 1585.43)"><text x="10500" y="14850" fill="#fff" stroke="#fff" stroke-width="250" font-size="648.11">00.00.0000</text><text x="10500" y="14850" fill="#373435" stroke="#373435" stroke-width="50" font-size="633.89">00.00.0000</text></g></g></g></g><g clip-path="url(#1)"><g><g fill="none"><path d="m16265 7091c245 252 420 567 522 904 95-379 281-735 553-1014 711-731 1739-660 2297 158 557 817 433 2073-278 2803-6 7-12 13-18 19-375 1054-858 2100-957 3234-129 1482 904 2950 1307 4425-966 0-1933 0-2899 0-966 0-1932 0-2898 0 287-1475 1087-2922 1055-4425-23-1089-418-2132-738-3178-680-736-792-1964-243-2768 557-818 1586-888 2297-158z" stroke="#000" stroke-width="200"/><g stroke="#201e1e" stroke-width="150"><path d="m14741 4052c189 18 327 173 307 345-19 171-188 295-377 276-190-19-327-173-308-345 20-172 189-295 378-276z"/><path d="m15464 4228c189 19 327 174 307 345-19 172-188 296-378 277-189-19-326-173-307-345 20-172 189-295 378-277z"/><path d="m16204 4255c189 19 327 174 307 345-19 172-188 296-378 277-189-19-326-173-307-345 20-172 189-296 378-277z"/><path d="m16854 4056c189 19 327 174 307 345-19 172-188 296-378 277-189-19-326-173-307-345 20-172 189-296 378-277z"/><path d="m14154 3693c189 19 327 174 308 345-20 172-189 296-378 277-189-19-327-174-307-345 19-172 188-296 377-277z"/><path d="m17450 3722c189 19 327 173 307 345-19 172-188 295-378 277-189-19-326-174-307-345 20-172 189-296 378-277z"/></g><g stroke="#201e1e"><path d="m14273 13123h1321l-54 489h-1267v-489zm3592 0h1530v489h-1476l-54-489z" stroke-width="200"/><g stroke-width="150"><path d="m17057 13174l783-279 99 896-875-129c64-65 102-149 102-241 0-94-41-181-109-247z"/><path d="m16401 13165l-781-278-99 896 858-127c-61-64-97-146-97-235 0-99 46-189 119-256z"/><path d="m16724 13045c245 0 442 169 442 376 0 208-197 377-442 377-244 0-442-169-442-377 0-207 198-376 442-376z"/></g></g></g><g fill="#373435"><g font-family="&apos;Edwardian Script ITC&apos;" stroke="#373435" stroke-linejoin="round" stroke-linecap="round" stroke-width="50"><text x="10500" y="14850" font-size="1176.37" transform="translate(4467.59 873.5)">Texto 02</text><text x="10500" y="14850" font-size="633.91" transform="translate(4776.72 1540.82)">00.00.0000</text></g><g font-family="&apos;Arial Black&apos;" font-weight="900"><text x="10500" y="14850" font-size="358.95" transform="matrix(.98722 0 0 1 5831.9-525.41)">NN 1</text><text x="10500" y="14850" font-size="354.37" transform="translate(5709.77-175.98)">NN 2</text></g></g></g></g></svg>