<svg xmlns="http://www.w3.org/2000/svg" width="744.09" height="1052.36" viewBox="0 0 21000 29700" shape-rendering="geometricPrecision" image-rendering="optimizeQuality" fill-rule="evenodd" clip-rule="evenodd"><defs><clipPath id="0"><path d="m6268 25171c-1253 622-3633 502-4356-648-720-1147-563-4458-631-6052-171-3993-604-7021-716-10240-124-3576 2250-5998 5111-6606 3931-835 3722 4634 3225 7392-293 1519-798 2842-1167 4327-681 2740-75 6993-312 9845-122 985-501 1627-1154 1982"/></clipPath><clipPath id="1"><path d="m14476 25242c1252 621 3633 501 4355-649 721-1146 563-4457 632-6052 171-3992 603-7020 715-10240 125-3576-2250-5997-5111-6605-3931-835-3722 4633-3225 7391 293 1520 798 2842 1167 4327 682 2740 76 6994 313 9845 121 985 500 1628 1154 1983"/></clipPath></defs><text x="10081" y="24465" fill="#201e1e" font-family="&apos;Arial Black&apos;" stroke="#201e1e" font-weight="900" stroke-width="7.62" font-size="705.56">38</text><g fill="none" stroke="#322f30" stroke-width="80"><circle cx="10533" cy="1326" r="460"/><path d="m10533 515v1621"/><path d="m9723 1326h1621"/><circle cx="10533" cy="25836" r="460"/><path d="m10533 25026v1621"/><path d="m9723 25836h1621"/></g><g fill="#fff" stroke="#fff"><rect x="9843" y="22866" width="1347" height="637" rx="318" stroke-width="20"/><g font-family="&apos;Edwardian Script ITC&apos;" stroke-linejoin="round" stroke-linecap="round" stroke-width="250"><text x="10500" y="14850" font-size="1949.9" transform="matrix(.97417 0 0 1-8512.31 8412.98)">Texto 01</text><text x="10500" y="14850" font-size="959.04" transform="matrix(.97417 0 0 1-7779.44 9558.72)">00.00.0000</text></g></g><g fill="#373435" font-family="&apos;Arial Narrow&apos;" font-size="423.33"><text x="1140" y="27379">DESC 1</text><text x="1132" y="28243">DESC 2</text><text x="1129" y="29048">DESC 3</text></g><g clip-path="url(#0)"><g><g stroke="#000"><g stroke-width="20"><path d="m4716 15555l-98 75v-75h98zm1011-85v-63l-43 37 43 26zm-2612 1314l-324 248v-248h324zm10061-8016v11133l4088 2432-7407 3788-1905-4685h-46v-114l-2345-5767-92 81 24 93-66-55-22 19 7-30-254-209-3195 10987-7740-2830 3089-2371v-12217l-372-304 4804-7370 3698 14182 38-174-18-45 25 15 3147-14172 5065 7147-523 466z"/><path d="m4771 4451l-1478 445-29-1986 1518 397c131-181 322-295 535-295 198 0 376 98 506 256l1545-435v1987l-1475-415c-130 216-339 356-576 356-219 0-415-120-546-310z"/><path d="m5316 12605c216 0 392 222 392 497 0 275-176 498-392 498-217 0-392-223-392-498 0-275 175-497 392-497z"/><path d="m5398 16786c216 0 392 223 392 497 0 275-176 498-392 498-217 0-393-223-393-498 0-274 176-497 393-497z"/><path d="m5398 19207c216 0 392 223 392 497 0 275-176 498-392 498-217 0-393-223-393-498 0-274 176-497 393-497z"/><path d="m5316 5964c216 0 392 223 392 498 0 274-176 497-392 497-217 0-392-223-392-497 0-275 175-498 392-498z"/><path d="m5316 9056c216 0 392 223 392 498 0 275-176 497-392 497-217 0-392-222-392-497 0-275 175-498 392-498z"/></g><g stroke-width="250"><path d="m2825 17216c-84 0-152-106-152-236 0-130 68-236 152-236 84 0 152 106 152 236 0 130-68 236-152 236z"/><path d="m5025 14896h1278v526h-1278z"/></g></g><g fill="#373435" font-family="&apos;Arial Black&apos;" font-weight="900" font-size="354.37"><text x="10500" y="14850" transform="matrix(1.51601 0 0 1.65759-11313-3860.03)">NN 1</text><text x="10500" y="14850" transform="matrix(1.51601 0 0 1.65759-11294.7-3275.28)">NN 2</text></g><g font-family="&apos;Edwardian Script ITC&apos;" stroke-linejoin="round" stroke-linecap="round"><g font-size="1176.37" transform="matrix(1.51601 0 0 1.65759-14022.1-1995.52)"><text x="10500" y="14850" fill="#fff" stroke="#fff" stroke-width="250">Texto 01</text><text x="10500" y="14850" fill="#373435" stroke="#373435" stroke-width="50">Texto 01</text></g><g transform="matrix(1.51601 0 0 1.65759-13793.5-819.77)"><text x="10500" y="14850" fill="#fff" stroke="#fff" stroke-width="250" font-size="648.11">00.00.0000</text><text x="10500" y="14850" fill="#373435" stroke="#373435" stroke-width="50" font-size="633.89">00.00.0000</text></g></g></g></g><g clip-path="url(#1)"><g><g fill="none"><path d="m15694 8319c372 417 637 939 792 1498 144-628 426-1218 838-1681 1077-1212 2636-1095 3482 261 845 1356 656 3436-421 4648-9 10-19 20-28 30-568 1747-1300 3482-1450 5361-195 2456 1370 4891 1981 7335-1465 0-2931 0-4395 0-1464 0-2929 0-4393 0 435-2444 1647-4844 1599-7335-35-1804-634-3534-1118-5268-1032-1219-1201-3255-369-4588 845-1356 2404-1473 3482-261z" stroke="#000" stroke-width="200"/><g stroke="#201e1e" stroke-width="150"><path d="m13384 3280c287 31 495 287 466 572-30 285-286 490-573 458-287-31-495-287-466-571 30-285 286-490 573-459z"/><path d="m14480 3573c287 32 495 288 466 572-30 285-286 490-573 459-287-32-495-288-466-572 30-285 286-490 573-459z"/><path d="m15601 3618c287 31 496 287 466 572-29 284-286 489-572 458-287-31-496-287-466-572 29-284 286-490 572-458z"/><path d="m16587 3288c287 31 495 287 466 572-30 284-286 490-573 458-287-31-495-287-466-572 30-284 286-489 573-458z"/><path d="m12494 2686c287 31 496 287 466 572-29 284-286 490-573 458-286-31-495-287-465-572 29-284 286-489 572-458z"/><path d="m17491 2734c286 31 495 287 465 572-29 284-285 489-572 458-287-31-496-287-466-572 29-284 286-490 573-458z"/></g><g stroke="#201e1e"><path d="m12674 18316h2003l-82 812h-1921v-812zm5446 0h2319v812h-2237l-82-812z" stroke-width="200"/><g stroke-width="150"><path d="m16895 18401l1187-461 150 1485-1326-215c97-108 155-247 155-398 0-158-63-301-166-411z"/><path d="m15901 18386l-1185-461-149 1485 1300-210c-92-106-146-241-146-388 0-165 68-315 180-426z"/><path d="m16391 18188c370 0 670 279 670 624 0 344-300 623-670 623-370 0-670-279-670-623 0-345 300-624 670-624z"/></g></g></g><g fill="#373435"><g font-family="&apos;Edwardian Script ITC&apos;" stroke="#373435" stroke-linejoin="round" stroke-linecap="round" stroke-width="50"><text x="10500" y="14850" font-size="1176.37" transform="matrix(1.51601 0 0 1.65759-2190.72-1987.9)">Texto 02</text><text x="10500" y="14850" font-size="633.91" transform="matrix(1.51601 0 0 1.65759-1722.07-881.76)">00.00.0000</text></g><g font-family="&apos;Arial Black&apos;" font-weight="900"><text x="10500" y="14850" font-size="358.95" transform="matrix(1.49663 0 0 1.65759-122.41-4306.73)">NN 1</text><text x="10500" y="14850" font-size="354.37" transform="matrix(1.51601 0 0 1.65759-307.56-3727.52)">NN 2</text></g></g></g></g></svg>