<svg xmlns="http://www.w3.org/2000/svg" width="744.09" height="1052.36" viewBox="0 0 21000 29700" shape-rendering="geometricPrecision" image-rendering="optimizeQuality" fill-rule="evenodd" text-rendering="geometricPrecision" clip-rule="evenodd"><text x="10046" y="19022" fill="#201e1e" font-family="&apos;Arial Black&apos;" stroke="#201e1e" font-weight="900" stroke-width="7.62" font-size="705.56">24</text><g fill="none" stroke-width="80"><g stroke="#322f30"><circle cx="10533" cy="1326" r="460"/><path d="m10533 515v1621"/><path d="m9723 1326h1621"/></g><g stroke="#373435"><circle cx="10498" cy="20686" r="460"/><path d="m10498 19875v1621"/><path d="m9688 20686h1620"/></g></g><g fill="#fff"><rect x="9843" y="17476" width="1347" height="637" rx="318" stroke="#fff" stroke-width="20"/><path d="m5894 3010c-1544-39-4017 1148-4023 3979-1 757 311 3273 385 4272 89 1198 155 2902 182 4116 12 1050 270 1658 766 1904 659 216 1344 279 2065 121 746-179 1116-737 1127-1865-28-1457-216-3980 76-5304 378-1715 856-1940 1040-4005 111-1243 70-3175-1618-3217z"/></g><g fill="#201e1e"><g stroke="#201e1e"><g fill-rule="nonzero" stroke-width="7.62"><path d="m5591 14455c68-117 137-175 273-175 151 0 273 104 273 233 0 233-273 466-546 699-273-233-546-466-546-699 0-129 122-233 273-233 137 0 205 58 273 175zm-112-131"/><path d="m4740 15665c58-99 116-148 232-148 128 0 232 89 232 198 0 198-232 396-464 594-232-198-464-396-464-594 0-109 104-198 232-198 116 0 174 49 232 148zm-94-111"/><path d="m5627 15483c54-92 108-138 215-138 119 0 215 82 215 184 0 184-215 367-430 551-215-184-430-367-430-551 0-101 96-184 215-184 108 0 161 46 215 138zm-87-103"/><path d="m4804 15071c29-49 57-73 114-73 63 0 114 44 114 97 0 97-114 195-228 292-114-97-228-195-228-292 0-54 51-97 114-97 57 0 86 24 114 73zm-48-55"/><path d="m4222 14971c23-39 46-59 92-59 51 0 92 35 92 79 0 79-92 158-185 237-92-79-185-158-185-237 0-44 41-79 92-79 46 0 69 20 92 59zm-38-44"/><path d="m3706 15499c30-51 59-76 118-76 65 0 118 45 118 101 0 101-118 202-237 303-118-101-237-202-237-303 0-56 53-101 118-101 59 0 89 25 118 76zm-48-57"/><path d="m3403 15101c16-27 32-41 64-41 35 0 64 24 64 54 0 54-64 108-127 163-64-54-127-108-127-163 0-30 28-54 64-54 32 0 48 14 64 41zm-25-31"/><path d="m3139 16216c13-22 26-33 51-33 28 0 51 20 51 44 0 44-51 88-103 131-51-44-103-88-103-131 0-24 23-44 51-44 26 0 39 11 51 33zm-20-25"/><path d="m4117 16148c29-49 57-73 114-73 63 0 114 44 114 97 0 97-114 195-228 292-114-97-228-195-228-292 0-54 51-97 114-97 57 0 86 24 114 73zm-48-55"/><path d="m3971 15845c14-25 29-37 58-37 32 0 58 22 58 49 0 49-58 98-115 148-58-49-115-98-115-148 0-27 26-49 58-49 29 0 43 12 58 37zm-24-28"/><path d="m3542 15980c33-57 67-85 134-85 74 0 134 51 134 114 0 114-134 228-267 342-134-114-267-228-267-342 0-63 60-114 134-114 67 0 100 29 134 85zm-53-64"/><path d="m3487 16487c20-34 39-50 79-50 43 0 79 30 79 67 0 67-79 134-158 202-79-67-158-134-158-202 0-37 35-67 79-67 39 0 59 17 79 50zm-33-38"/><path d="m2968 16609c22-37 43-55 86-55 48 0 86 33 86 74 0 74-86 148-173 221-86-74-173-148-173-221 0-41 39-74 86-74 43 0 65 18 86 55zm-37-42"/><path d="m4240 15371c21-36 42-54 84-54 47 0 84 32 84 72 0 72-84 144-169 216-84-72-169-144-169-216 0-40 38-72 84-72 42 0 63 18 84 54zm-34-40"/><path d="m4652 14591c29-49 57-73 114-73 63 0 114 44 114 97 0 97-114 195-228 292-114-97-228-195-228-292 0-54 51-97 114-97 57 0 86 24 114 73zm-48-55"/><path d="m5828 13795c31-52 61-79 123-79 68 0 123 47 123 105 0 105-123 209-245 314-123-105-245-209-245-314 0-58 55-105 123-105 61 0 92 26 123 79zm-49-59"/><path d="m4984 14808c13-21 25-32 50-32 28 0 50 19 50 43 0 43-50 85-100 128-50-43-100-85-100-128 0-24 22-43 50-43 25 0 38 11 50 32zm-22-24"/><path d="m4971 14103c20-34 40-51 80-51 44 0 80 31 80 69 0 69-80 137-161 206-80-69-161-137-161-206 0-38 36-69 80-69 40 0 60 17 80 51zm-34-39"/><path d="m6010 13292c20-34 40-51 80-51 44 0 80 31 80 69 0 69-80 137-161 206-80-69-161-137-161-206 0-38 36-69 80-69 40 0 60 17 80 51zm-34-39"/><path d="m5479 13445c20-34 40-51 80-51 44 0 80 31 80 69 0 69-80 137-161 206-80-69-161-137-161-206 0-38 36-69 80-69 40 0 60 17 80 51zm-34-39"/><path d="m5701 12798c25-43 50-64 100-64 55 0 100 38 100 86 0 85-100 171-200 256-100-85-200-171-200-256 0-47 45-86 100-86 50 0 75 21 100 64zm-40-48"/></g><g stroke-linejoin="round" stroke-linecap="round" stroke-width="50"><g font-family="&apos;Cassandra&apos;" font-size="879.86" transform="matrix(1.0042 0 0 1-8215.37-4167.67)"><text x="10500" y="14850">Texto 01</text><text x="10500" y="16007"/></g><path d="m3683 10821c17 0 30 3 40 9 10 6 15 14 16 24-2 18-25 35-68 50-43 15-90 30-142 45 0 31 3 55 9 72 6 17 13 35 23 55 26-9 54-15 86-21 31-5 62-8 91-8 36 0 64 5 82 16 18 11 28 25 28 44 0 23-14 49-44 79-30 30-77 56-142 80 10 16 19 30 29 44 10 13 15 22 16 25 0 1-1 2-2 3-2 1-4 1-6 2-9-6-17-12-25-18-8-5-15-10-20-14-9-7-16-12-19-17-4-5-7-9-10-13-31 9-63 16-99 21-35 5-73 8-113 8-93-2-162-16-210-43-47-27-71-59-71-96 1-48 31-88 91-120 60-32 146-63 258-93 9-39 34-71 76-96 42-24 84-37 127-38zm-119 263c11 23 23 49 38 77 14 28 29 54 45 78 66-23 114-47 144-75 31-27 46-49 45-65-1-13-10-23-28-31-18-8-42-12-71-12-17 0-42 3-75 7-33 5-65 12-98 21zm-53 18c-40 15-72 29-98 41-25 12-54 27-86 46h-4c-1 0-1-1-2-1-1-1-1-1-1-3 2-5 21-17 58-35 37-19 80-37 129-56-9-17-16-35-21-54-6-19-9-36-9-52 0-4 0-7 1-11 0-3 1-7 1-12-79 22-143 48-191 79-48 31-73 67-75 109 1 35 22 64 63 86 41 22 97 34 168 35 33 0 64-3 92-8 28-5 51-10 71-15-13-19-29-43-48-72-18-29-34-54-46-77zm207-252c0-6-3-10-10-13-7-3-16-4-29-4-35 0-67 10-96 29-29 19-46 45-51 78 22-6 45-13 71-21 25-8 47-16 65-23 16-7 28-14 37-22 9-8 13-16 13-23z" fill-rule="nonzero"/><text x="10500" y="14850" font-family="&apos;Cassandra&apos;" font-size="879.86" transform="matrix(.87515 0 0 1-5605.6-2739.3)">Texto 02</text></g></g><g font-family="&apos;Arial Black&apos;" font-weight="900" font-size="329.95"><text x="10500" y="14850" transform="matrix(1.07339 0 0 1-8115.47-562.49)">NN 1</text><text x="10500" y="14850" transform="matrix(1.07339 0 0 1-8107.23-286.65)">NN 2</text></g></g><path d="m15203 3045c1544-39 4017 1148 4023 3979 1 757-311 3273-385 4272-89 1198-155 2902-182 4116-12 1050-270 1658-766 1904-659 216-1344 279-2065 121-746-179-1116-737-1127-1865 28-1457 216-3980-76-5304-378-1715-856-1940-1040-4005-111-1243-70-3175 1618-3217z" fill="#fff"/><g fill="#201e1e"><g stroke="#201e1e"><g fill-rule="nonzero" stroke-width="7.62"><path d="m17438 6245c153-253 306-379 612-379 338 0 612 227 612 506 0 506-612 1012-1224 1518-612-506-1224-1012-1224-1518 0-279 274-506 612-506 306 0 459 126 612 379zm-247-285"/><path d="m17238 9384c44-72 87-108 174-108 96 0 174 65 174 144 0 144-174 288-349 433-174-144-349-288-349-433 0-80 78-144 174-144 87 0 131 36 174 108zm-71-81"/><path d="m16305 9650c45-74 90-112 180-112 99 0 180 67 180 149 0 149-180 298-360 446-180-149-360-298-360-446 0-82 81-149 180-149 90 0 135 37 180 112zm-74-84"/><path d="m15841 10076c35-58 70-87 140-87 77 0 140 52 140 116 0 116-140 232-281 348-140-116-281-232-281-348 0-64 63-116 140-116 70 0 105 29 140 87zm-57-65"/><path d="m16845 9918c29-48 58-72 116-72 64 0 116 43 116 96 0 96-116 192-233 288-116-96-233-192-233-288 0-53 52-96 116-96 58 0 87 24 116 72zm-49-54"/><path d="m15158 10016c40-66 80-99 160-99 88 0 160 59 160 132 0 132-160 265-320 397-160-132-320-265-320-397 0-73 72-132 160-132 80 0 120 33 160 99zm-65-74"/><path d="m16598 7527c29-48 58-72 116-72 64 0 116 43 116 96 0 96-116 192-232 288-116-96-232-192-232-288 0-53 52-96 116-96 58 0 87 24 116 72zm-49-54"/><path d="m15609 7217c26-43 51-64 103-64 57 0 103 38 103 85 0 85-103 170-206 255-103-85-206-170-206-255 0-47 46-85 103-85 51 0 77 21 103 64zm-41-48"/><path d="m18748 7304c29-48 58-72 116-72 64 0 116 43 116 96 0 96-116 192-232 288-116-96-232-192-232-288 0-53 52-96 116-96 58 0 87 24 116 72zm-49-54"/><path d="m18652 7831c27-44 54-66 107-66 59 0 107 40 107 89 0 89-107 177-214 266-107-89-214-177-214-266 0-49 48-89 107-89 54 0 80 22 107 66zm-44-50"/><path d="m17016 8063c27-45 55-68 109-68 60 0 109 40 109 90 0 90-109 180-218 270-109-90-218-180-218-270 0-50 49-90 109-90 55 0 82 23 109 68zm-44-51"/><path d="m16462 8607c27-45 55-68 109-68 60 0 109 40 109 90 0 90-109 180-218 271-109-90-218-180-218-271 0-50 49-90 109-90 55 0 82 23 109 68zm-44-51"/><path d="m16577 9236c27-45 55-68 109-68 60 0 109 40 109 90 0 90-109 180-218 270-109-90-218-180-218-270 0-50 49-90 109-90 55 0 82 23 109 68zm-44-51"/><path d="m17319 9017c21-35 43-53 85-53 47 0 85 32 85 70 0 70-85 141-170 211-85-70-170-141-170-211 0-39 38-70 85-70 43 0 64 18 85 53zm-33-40"/><path d="m18186 7512c21-35 43-53 85-53 47 0 85 32 85 70 0 70-85 141-170 211-85-70-170-141-170-211 0-39 38-70 85-70 43 0 64 18 85 53zm-33-40"/><path d="m16705 8941c16-27 32-40 65-40 36 0 65 24 65 53 0 53-65 107-129 160-65-53-129-107-129-160 0-29 29-53 65-53 32 0 48 13 65 40zm-26-30"/><path d="m15051 9591c16-27 32-40 65-40 36 0 65 24 65 53 0 53-65 107-129 160-65-53-129-107-129-160 0-29 29-53 65-53 32 0 48 13 65 40zm-26-30"/><path d="m15887 8403c16-27 32-40 65-40 36 0 65 24 65 53 0 53-65 107-129 160-65-53-129-107-129-160 0-29 29-53 65-53 32 0 48 13 65 40zm-26-30"/><path d="m16311 7117c16-27 32-40 65-40 36 0 65 24 65 53 0 53-65 107-129 160-65-53-129-107-129-160 0-29 29-53 65-53 32 0 48 13 65 40zm-26-30"/><path d="m17895 7839c16-27 32-40 65-40 36 0 65 24 65 53 0 53-65 107-129 160-65-53-129-107-129-160 0-29 29-53 65-53 32 0 48 13 65 40zm-26-30"/><path d="m16074 7394c16-27 32-40 65-40 36 0 65 24 65 53 0 53-65 107-129 160-65-53-129-107-129-160 0-29 29-53 65-53 32 0 48 13 65 40zm-26-30"/><path d="m16223 7693c16-27 32-40 65-40 36 0 65 24 65 53 0 53-65 107-129 160-65-53-129-107-129-160 0-29 29-53 65-53 32 0 48 13 65 40zm-26-30"/><path d="m17031 8533c40-65 79-98 158-98 87 0 158 59 158 131 0 131-158 262-317 393-158-131-317-262-317-393 0-72 71-131 158-131 79 0 119 33 158 98zm-65-74"/><path d="m16337 8040c40-65 79-98 158-98 87 0 158 59 158 131 0 131-158 262-317 393-158-131-317-262-317-393 0-72 71-131 158-131 79 0 119 33 158 98zm-65-74"/><path d="m15918 6727c45-75 91-113 182-113 100 0 182 67 182 150 0 150-182 300-363 451-182-150-363-300-363-451 0-83 81-150 182-150 91 0 136 38 182 113zm-73-84"/><path d="m17953 8274c76-126 153-189 305-189 169 0 305 113 305 253 0 253-305 505-611 758-305-253-611-505-611-758 0-139 137-253 305-253 153 0 229 63 305 189zm-124-142"/><path d="m15506 7715c67-111 134-166 267-166 148 0 267 99 267 221 0 221-267 442-535 663-267-221-535-442-535-663 0-122 120-221 267-221 134 0 200 55 267 166zm-108-124"/><path d="m15571 8850c89-148 179-222 358-222 198 0 358 133 358 296 0 296-358 592-716 888-358-296-716-592-716-888 0-163 160-296 358-296 179 0 268 74 358 222zm-145-166"/><path d="m17279 5155c41-68 82-102 164-102 90 0 164 61 164 136 0 136-164 271-328 407-164-136-328-271-328-407 0-75 73-136 164-136 82 0 123 34 164 102zm-66-76"/><path d="m17755 5553c28-47 56-70 113-70 62 0 113 42 113 93 0 93-113 187-226 280-113-93-226-187-226-280 0-52 51-93 113-93 56 0 85 23 113 70zm-44-53"/><path d="m18340 5433c35-58 70-87 141-87 78 0 141 52 141 116 0 116-141 233-282 349-141-116-282-233-282-349 0-64 63-116 141-116 70 0 106 29 141 87zm-58-65"/><path d="m17662 4508c48-80 96-119 193-119 106 0 193 71 193 159 0 159-193 319-385 478-193-159-385-319-385-478 0-88 86-159 193-159 96 0 145 40 193 119zm-78-90"/><path d="m17903 5068c26-43 52-65 104-65 58 0 104 39 104 86 0 86-104 173-209 259-104-86-209-173-209-259 0-48 47-86 104-86 52 0 78 22 104 65zm-43-49"/></g><text x="10500" y="14850" font-family="&apos;Comic Sans MS&apos;" stroke-width="75" font-size="634.38" transform="matrix(1.0873 0 0 1 3436.36 1419.93)">00.00.0000</text></g><g font-family="&apos;Arial Black&apos;" font-weight="900" font-size="329.95"><text x="10500" y="14850" transform="matrix(1.07339 0 0 1 4269.81-527.21)">NN 1</text><text x="10500" y="14850" transform="matrix(1.07339 0 0 1 4278.05-251.37)">NN 2</text></g></g><g fill="#373435" font-family="&apos;Arial&apos;" font-weight="normal" font-size="423.33"><text x="2284" y="23054">DESC 1</text><text x="2298" y="23501">DESC 2</text><text x="2348" y="23925">DESC 3</text></g></svg>