<svg xmlns="http://www.w3.org/2000/svg" width="744.09" height="1052.36" viewBox="0 0 21000 29700" shape-rendering="geometricPrecision" image-rendering="optimizeQuality" fill-rule="evenodd" text-rendering="geometricPrecision" clip-rule="evenodd"><text x="10011" y="19315" fill="#201e1e" font-family="&apos;Arial Black&apos;" stroke="#201e1e" font-weight="900" stroke-width="7.62" font-size="705.56">26</text><g fill="none" stroke-width="80"><g stroke="#322f30"><circle cx="10533" cy="1326" r="460"/><path d="m10533 515v1621"/><path d="m9723 1326h1621"/></g><g stroke="#373435"><path d="m10463 19875v1621"/><circle cx="10463" cy="20686" r="460"/><path d="m9652 20686h1621"/></g></g><g fill="#fff"><rect x="9843" y="17476" width="1347" height="637" rx="318" stroke="#fff" stroke-width="20"/><path d="m5868 3008c-1562-41-4065 1189-4070 4120-1 783 315 3389 390 4423 90 1240 157 3005 184 4262 12 1087 274 1717 775 1972 667 223 1359 289 2089 126 755-185 1129-763 1140-1932-28-1509-219-4121 77-5492 383-1776 866-2008 1053-4147 112-1287 71-3287-1637-3331z"/></g><g fill="#201e1e"><g stroke="#201e1e"><g fill-rule="nonzero" stroke-width="7.62"><path d="m5561 14859c69-121 138-181 276-181 153 0 276 108 276 241 0 241-276 483-553 724-276-241-553-483-553-724 0-133 124-241 276-241 138 0 207 60 276 181zm-114-136"/><path d="m4700 16112c59-102 117-154 235-154 130 0 235 92 235 205 0 205-235 410-469 615-235-205-469-410-469-615 0-113 105-205 235-205 117 0 176 51 235 154zm-96-115"/><path d="m5598 15924c54-95 109-143 218-143 120 0 218 85 218 190 0 190-218 380-436 571-218-190-436-380-436-571 0-105 98-190 218-190 109 0 163 48 218 143zm-89-107"/><path d="m4765 15497c29-50 58-76 115-76 64 0 115 45 115 101 0 101-115 202-231 303-115-101-231-202-231-303 0-56 52-101 115-101 58 0 87 25 115 76zm-47-57"/><path d="m4176 15393c23-41 47-61 94-61 52 0 94 37 94 82 0 82-94 163-187 245-94-82-187-163-187-245 0-45 42-82 94-82 47 0 70 20 94 61zm-37-46"/><path d="m3654 15940c30-52 60-79 120-79 66 0 120 47 120 105 0 105-120 209-240 314-120-105-240-209-240-314 0-58 54-105 120-105 60 0 90 26 120 79zm-49-59"/><path d="m3347 15528c16-28 32-42 64-42 35 0 64 25 64 56 0 56-64 112-129 168-64-56-129-112-129-168 0-31 29-56 64-56 32 0 48 14 64 42zm-25-32"/><path d="m3080 16683c13-23 26-34 52-34 29 0 52 20 52 45 0 45-52 91-104 136-52-45-104-91-104-136 0-25 23-45 52-45 26 0 39 11 52 34zm-20-26"/><path d="m4070 16613c29-50 58-76 115-76 64 0 115 45 115 101 0 101-115 202-231 303-115-101-231-202-231-303 0-56 52-101 115-101 58 0 87 25 115 76zm-47-57"/><path d="m3922 16298c15-26 29-38 58-38 32 0 58 23 58 51 0 51-58 102-117 153-58-51-117-102-117-153 0-28 26-51 58-51 29 0 44 13 58 38zm-23-29"/><path d="m3488 16438c34-59 68-89 135-89 75 0 135 53 135 118 0 118-135 236-270 354-135-118-270-236-270-354 0-65 61-118 135-118 68 0 101 30 135 89zm-55-66"/><path d="m3432 16963c20-35 40-52 80-52 44 0 80 31 80 70 0 70-80 139-159 209-80-70-159-139-159-209 0-38 36-70 80-70 40 0 60 17 80 52zm-31-39"/><path d="m2907 17089c22-38 44-57 87-57 48 0 87 34 87 76 0 76-87 153-175 229-87-76-175-153-175-229 0-42 39-76 87-76 44 0 66 19 87 57zm-35-43"/><path d="m4194 15808c21-37 43-56 85-56 47 0 85 33 85 74 0 74-85 149-171 223-85-74-171-149-171-223 0-41 38-74 85-74 43 0 64 19 85 56zm-33-42"/><path d="m4611 15000c29-50 58-76 115-76 64 0 115 45 115 101 0 101-115 202-231 303-115-101-231-202-231-303 0-56 52-101 115-101 58 0 87 25 115 76zm-47-57"/><path d="m5801 14176c31-54 62-81 124-81 69 0 124 49 124 108 0 108-124 217-248 325-124-108-248-217-248-325 0-60 56-108 124-108 62 0 93 27 124 81zm-51-61"/><path d="m4947 15225c13-22 25-33 51-33 28 0 51 20 51 44 0 44-51 88-101 133-51-44-101-88-101-133 0-24 23-44 51-44 25 0 38 11 51 33zm-20-25"/><path d="m4934 14495c20-35 41-53 81-53 45 0 81 32 81 71 0 71-81 142-162 213-81-71-162-142-162-213 0-39 36-71 81-71 41 0 61 18 81 53zm-32-40"/><path d="m5985 13655c20-35 41-53 81-53 45 0 81 32 81 71 0 71-81 142-162 213-81-71-162-142-162-213 0-39 36-71 81-71 41 0 61 18 81 53zm-32-40"/><path d="m5448 13814c20-35 41-53 81-53 45 0 81 32 81 71 0 71-81 142-162 213-81-71-162-142-162-213 0-39 36-71 81-71 41 0 61 18 81 53zm-32-40"/><path d="m5673 13143c25-44 51-66 101-66 56 0 101 40 101 89 0 89-101 177-203 266-101-89-203-177-203-266 0-49 45-89 101-89 51 0 76 22 101 66zm-42-50"/></g><g stroke-linejoin="round" stroke-linecap="round" stroke-width="50"><g font-family="&apos;Cassandra&apos;" font-size="911.05" transform="matrix(.9812 0 0 1-8042.63-3897.38)"><text x="10500" y="14850">Texto 01</text><text x="10500" y="16048"/></g><path d="m3631 11096c17 0 30 3 41 9 10 6 15 14 16 25-2 19-25 36-69 52-43 15-91 31-144 47 0 32 3 57 9 74 6 17 14 36 23 57 26-9 55-16 87-21 32-5 63-8 92-9 37 0 65 5 83 16 19 11 28 26 28 46 0 23-15 51-45 81-30 31-78 58-144 83 10 16 20 32 30 45 10 14 15 23 16 26 0 1-1 2-2 3-2 1-4 2-6 2-9-6-17-13-25-18-8-6-15-10-20-14-9-7-16-13-20-18-4-5-7-10-10-14-31 10-64 17-100 22-36 5-74 8-115 8-94-2-164-16-212-44-48-28-71-61-71-100 1-50 31-91 92-125 61-33 148-65 261-96 9-41 35-74 77-99 42-25 85-38 128-39zm-121 272c11 24 23 51 38 79 15 29 30 56 45 81 67-23 115-49 146-77 31-28 46-51 46-68-1-13-10-24-29-32-18-8-42-12-72-13-17 0-43 3-76 8-33 5-66 12-99 22zm-53 18c-40 16-73 30-99 43-25 13-55 28-87 47h-4c-1 0-1-1-2-2-1-1-1-2-1-3 2-5 22-17 59-37 37-19 81-39 130-58-9-17-16-36-22-55-6-20-9-38-9-54 0-4 0-7 1-11 0-4 1-8 1-12-80 23-144 50-193 82-49 32-74 69-76 113 1 36 22 66 63 89 42 23 98 35 170 36 34 0 65-3 93-8 28-5 52-11 71-16-14-20-30-45-48-75-19-30-34-56-47-80zm209-261c0-6-3-11-10-13-7-3-17-4-30-4-35 0-67 10-97 30-30 20-47 46-52 81 22-6 46-14 72-22 26-9 48-16 66-24 16-7 29-15 38-23 9-8 14-16 14-24z" fill-rule="nonzero"/><text x="10500" y="14850" font-family="&apos;Cassandra&apos;" font-size="911.05" transform="matrix(.85514 0 0 1-5449.08-2418.38)">Texto 02</text></g></g><g font-family="&apos;Arial Black&apos;" font-weight="900" font-size="341.64"><text x="10500" y="14850" transform="matrix(1.04884 0 0 1-7916.39-164.41)">NN 1</text><text x="10500" y="14850" transform="matrix(1.04884 0 0 1-7908.05 121.21)">NN 2</text></g></g><path d="m15149 3008c1562-41 4065 1189 4070 4120 1 783-315 3389-390 4423-90 1240-157 3005-184 4262-12 1087-274 1717-775 1972-667 223-1359 289-2089 126-755-185-1129-763-1140-1932 28-1509 219-4121-77-5492-383-1776-866-2008-1053-4147-112-1287-71-3287 1637-3331z" fill="#fff"/><g fill="#201e1e"><g stroke="#201e1e"><g fill-rule="nonzero" stroke-width="7.62"><path d="m17410 6321c155-262 310-393 619-393 342 0 619 235 619 524 0 524-619 1048-1238 1571-619-524-1238-1048-1238-1571 0-289 277-524 619-524 310 0 464 131 619 393zm-253-295"/><path d="m17208 9572c44-75 88-112 176-112 97 0 176 67 176 149 0 149-176 299-353 448-176-149-353-299-353-448 0-82 79-149 176-149 88 0 132 37 176 112zm-71-84"/><path d="m16264 9847c46-77 91-116 182-116 101 0 182 69 182 154 0 154-182 308-364 462-182-154-364-308-364-462 0-85 82-154 182-154 91 0 137 39 182 116zm-73-87"/><path d="m15795 10288c36-60 71-90 142-90 78 0 142 54 142 120 0 120-142 240-284 360-142-120-284-240-284-360 0-66 64-120 142-120 71 0 107 30 142 90zm-57-68"/><path d="m16810 10124c29-50 59-75 118-75 65 0 118 45 118 100 0 100-118 199-235 299-118-100-235-199-235-299 0-55 53-100 118-100 59 0 88 25 118 75zm-48-56"/><path d="m15103 10227c40-68 81-103 162-103 89 0 162 61 162 137 0 137-162 274-324 411-162-137-324-274-324-411 0-76 73-137 162-137 81 0 121 34 162 103zm-65-77"/><path d="m16560 7649c29-50 59-75 118-75 65 0 118 45 118 99 0 99-118 199-235 298-118-99-235-199-235-298 0-55 53-99 118-99 59 0 88 25 118 75zm-47-56"/><path d="m15559 7328c26-44 52-66 104-66 57 0 104 39 104 88 0 88-104 176-208 264-104-88-208-176-208-264 0-49 47-88 104-88 52 0 78 22 104 66zm-44-50"/><path d="m18735 7418c29-50 59-75 118-75 65 0 118 45 118 99 0 99-118 199-235 298-118-99-235-199-235-298 0-55 53-99 118-99 59 0 88 25 118 75zm-47-56"/><path d="m18639 7964c27-46 54-69 108-69 60 0 108 41 108 92 0 92-108 183-217 275-108-92-217-183-217-275 0-51 49-92 108-92 54 0 81 23 108 69zm-44-52"/><path d="m16983 8204c28-47 55-70 110-70 61 0 110 42 110 93 0 93-110 187-221 280-110-93-221-187-221-280 0-52 49-93 110-93 55 0 83 23 110 70zm-44-53"/><path d="m16422 8767c28-47 55-70 110-70 61 0 110 42 110 93 0 93-110 187-221 280-110-93-221-187-221-280 0-52 49-93 110-93 55 0 83 23 110 70zm-44-53"/><path d="m16539 9418c28-47 55-70 110-70 61 0 110 42 110 93 0 93-110 187-221 280-110-93-221-187-221-280 0-52 49-93 110-93 55 0 83 23 110 70zm-44-53"/><path d="m17290 9192c22-36 43-55 86-55 48 0 86 33 86 73 0 73-86 146-172 219-86-73-172-146-172-219 0-40 39-73 86-73 43 0 65 18 86 55zm-36-41"/><path d="m18166 7634c22-36 43-55 86-55 48 0 86 33 86 73 0 73-86 146-172 219-86-73-172-146-172-219 0-40 39-73 86-73 43 0 65 18 86 55zm-36-41"/><path d="m16668 9113c16-28 33-41 65-41 36 0 65 25 65 55 0 55-65 111-131 166-65-55-131-111-131-166 0-31 29-55 65-55 33 0 49 14 65 41zm-27-31"/><path d="m14995 9786c16-28 33-41 65-41 36 0 65 25 65 55 0 55-65 111-131 166-65-55-131-111-131-166 0-31 29-55 65-55 33 0 49 14 65 41zm-27-31"/><path d="m15841 8556c16-28 33-41 65-41 36 0 65 25 65 55 0 55-65 111-131 166-65-55-131-111-131-166 0-31 29-55 65-55 33 0 49 14 65 41zm-27-31"/><path d="m16269 7224c16-28 33-41 65-41 36 0 65 25 65 55 0 55-65 111-131 166-65-55-131-111-131-166 0-31 29-55 65-55 33 0 49 14 65 41zm-27-31"/><path d="m17872 7972c16-28 33-41 65-41 36 0 65 25 65 55 0 55-65 111-131 166-65-55-131-111-131-166 0-31 29-55 65-55 33 0 49 14 65 41zm-27-31"/><path d="m16030 7512c16-28 33-41 65-41 36 0 65 25 65 55 0 55-65 111-131 166-65-55-131-111-131-166 0-31 29-55 65-55 33 0 49 14 65 41zm-27-31"/><path d="m16181 7821c16-28 33-41 65-41 36 0 65 25 65 55 0 55-65 111-131 166-65-55-131-111-131-166 0-31 29-55 65-55 33 0 49 14 65 41zm-27-31"/><path d="m16998 8691c40-68 80-102 160-102 88 0 160 61 160 135 0 135-160 271-320 406-160-135-320-271-320-406 0-75 72-135 160-135 80 0 120 34 160 102zm-65-76"/><path d="m16296 8180c40-68 80-102 160-102 88 0 160 61 160 135 0 135-160 271-320 406-160-136-320-271-320-406 0-75 72-135 160-135 80 0 120 34 160 102zm-65-76"/><path d="m15872 6821c46-78 92-117 184-117 101 0 184 70 184 155 0 155-184 311-368 466-184-155-368-311-368-466 0-86 82-155 184-155 92 0 138 39 184 117zm-74-87"/><path d="m17931 8423c77-131 155-196 309-196 171 0 309 117 309 261 0 261-309 523-618 784-309-261-618-523-618-784 0-144 138-261 309-261 155 0 232 65 309 196zm-126-147"/><path d="m15455 7844c68-114 135-172 270-172 149 0 270 103 270 229 0 229-270 458-541 687-270-229-541-458-541-687 0-126 121-229 270-229 135 0 203 57 270 172zm-110-129"/><path d="m15521 9019c91-153 181-230 362-230 200 0 362 137 362 306 0 306-362 613-724 919-362-306-724-613-724-919 0-169 162-306 362-306 181 0 272 77 362 230zm-147-172"/><path d="m17249 5193c41-70 83-105 166-105 92 0 166 63 166 140 0 140-166 281-332 421-166-140-332-281-332-421 0-77 74-140 166-140 83 0 124 35 166 105zm-67-79"/><path d="m17730 5605c29-48 57-72 114-72 63 0 114 43 114 97 0 97-114 193-228 290-114-97-228-193-228-290 0-53 51-97 114-97 57 0 86 24 114 72zm-46-54"/><path d="m18322 5480c36-60 71-90 142-90 79 0 142 54 142 121 0 121-142 241-285 362-142-121-285-241-285-362 0-67 64-121 142-121 71 0 107 30 142 90zm-58-68"/><path d="m17637 4523c49-82 97-124 195-124 108 0 195 74 195 165 0 165-195 330-390 495-195-165-390-330-390-495 0-91 87-165 195-165 97 0 146 41 195 124zm-79-93"/><path d="m17881 5103c26-45 53-67 106-67 58 0 106 40 106 89 0 89-106 179-211 268-106-89-211-179-211-268 0-49 47-89 106-89 53 0 79 22 106 67zm-42-50"/></g><text x="10500" y="14850" font-family="&apos;Comic Sans MS&apos;" stroke-width="75" font-size="656.86" transform="matrix(1.06243 0 0 1 3639.01 1851.75)">00.00.0000</text></g><g font-family="&apos;Arial Black&apos;" font-weight="900" font-size="341.64"><text x="10500" y="14850" transform="matrix(1.04884 0 0 1 4477.21-164.41)">NN 1</text><text x="10500" y="14850" transform="matrix(1.04884 0 0 1 4485.55 121.21)">NN 2</text></g></g><g fill="#373435" font-family="&apos;Arial&apos;" font-weight="normal" font-size="423.33"><text x="1753" y="23054">DESC 1</text><text x="1766" y="23501">DESC 2</text><text x="1816" y="23925">DESC 3</text></g></svg>