<svg xmlns="http://www.w3.org/2000/svg" width="744.09" height="1052.36" viewBox="0 0 21000 29700" shape-rendering="geometricPrecision" image-rendering="optimizeQuality" fill-rule="evenodd" text-rendering="geometricPrecision" clip-rule="evenodd"><text x="10081" y="24465" fill="#201e1e" font-family="&apos;Arial Black&apos;" stroke="#201e1e" font-weight="900" stroke-width="7.62" font-size="705.56">34</text><g fill="none" stroke-width="80"><g stroke="#322f30"><circle cx="10533" cy="1326" r="460"/><path d="m10533 515v1621"/><path d="m9723 1326h1621"/></g><g stroke="#373435"><circle cx="10533" cy="25836" r="460"/><path d="m10533 25026v1621"/><path d="m9723 25836h1621"/></g></g><rect x="9843" y="22866" width="1347" height="637" rx="318" fill="#fff" stroke="#fff" stroke-width="20"/><g fill="#373435" font-family="&apos;Arial&apos;" font-weight="normal" font-size="423.33"><text x="2201" y="27641">DESC 1</text><text x="2215" y="28088">DESC 2</text><text x="2265" y="28512">DESC 3</text></g><path d="m6642 2487c-2165-59-5632 1715-5640 5942-2 1130 436 4888 540 6379 125 1788 217 4334 255 6146 17 1568 379 2476 1073 2843 924 322 1884 417 2894 181 1046-267 1565-1101 1580-2786-39-2176-303-5943 107-7921 530-2561 1200-2896 1458-5981 155-1856 99-4741-2269-4805z" fill="#fff"/><g fill="#201e1e"><g stroke="#201e1e"><g fill-rule="nonzero" stroke-width="7.62"><path d="m6218 19577c96-174 191-261 383-261 211 0 383 156 383 348 0 348-383 696-766 1044-383-348-766-696-766-1044 0-192 172-348 383-348 191 0 287 87 383 261zm-155-196"/><path d="m5023 21385c81-148 163-222 325-222 179 0 325 132 325 296 0 296-325 591-650 887-325-296-650-591-650-887 0-163 146-296 325-296 163 0 244 74 325 222zm-132-166"/><path d="m6268 21113c75-137 151-206 302-206 167 0 302 123 302 274 0 274-302 549-604 823-302-274-604-549-604-823 0-151 135-274 302-274 151 0 226 69 302 206zm-121-154"/><path d="m5114 20498c40-73 80-109 160-109 88 0 160 65 160 145 0 145-160 291-320 436-160-145-320-291-320-436 0-80 72-145 160-145 80 0 120 36 160 109zm-65-82"/><path d="m4297 20349c32-59 65-88 130-88 72 0 130 53 130 118 0 118-130 236-259 354-130-118-259-236-259-354 0-65 58-118 130-118 65 0 97 29 130 88zm-52-66"/><path d="m3575 21137c42-76 83-113 166-113 92 0 166 68 166 151 0 151-166 302-332 453-166-151-332-302-332-453 0-83 74-151 166-151 83 0 125 38 166 113zm-68-85"/><path d="m3149 20542c22-40 45-61 89-61 49 0 89 36 89 81 0 81-89 162-178 243-89-81-178-162-178-243 0-45 40-81 89-81 45 0 67 20 89 61zm-37-46"/><path d="m2779 22208c18-33 36-49 72-49 40 0 72 29 72 65 0 65-72 131-144 196-72-65-144-131-144-196 0-36 32-65 72-65 36 0 54 16 72 49zm-29-37"/><path d="m4150 22107c40-73 80-109 160-109 88 0 160 65 160 145 0 145-160 291-320 436-160-145-320-291-320-436 0-80 72-145 160-145 80 0 120 36 160 109zm-65-82"/><path d="m3945 21653c20-37 40-55 81-55 45 0 81 33 81 74 0 74-81 147-162 221-81-74-162-147-162-221 0-41 36-74 81-74 40 0 61 18 81 55zm-33-41"/><path d="m3344 21855c47-85 94-128 187-128 103 0 187 76 187 170 0 170-187 340-374 511-187-170-374-340-374-511 0-94 84-170 187-170 94 0 140 43 187 128zm-75-96"/><path d="m3267 22612c28-50 55-75 110-75 61 0 110 45 110 100 0 100-110 201-221 301-110-100-221-201-221-301 0-55 49-100 110-100 55 0 83 25 110 75zm-45-56"/><path d="m2539 22794c30-55 61-83 121-83 67 0 121 49 121 110 0 110-121 220-242 331-121-110-242-220-242-331 0-61 54-110 121-110 61 0 91 28 121 83zm-48-62"/><path d="m4323 20947c30-54 59-81 118-81 65 0 118 48 118 107 0 107-118 215-236 322-118-107-236-215-236-322 0-59 53-107 118-107 59 0 89 27 118 81zm-47-60"/><path d="m4901 19781c40-73 80-109 160-109 88 0 160 65 160 145 0 145-160 291-320 436-160-145-320-291-320-436 0-80 72-145 160-145 80 0 120 36 160 109zm-65-82"/><path d="m6549 18593c43-78 86-117 172-117 95 0 172 70 172 156 0 156-172 313-344 469-172-156-344-313-344-469 0-86 77-156 172-156 86 0 129 39 172 117zm-69-88"/><path d="m5367 20106c18-32 35-48 70-48 39 0 70 29 70 64 0 64-70 128-140 191-70-64-140-128-140-191 0-35 31-64 70-64 35 0 53 16 70 48zm-28-36"/><path d="m5348 19053c28-51 56-77 113-77 62 0 113 46 113 102 0 102-113 205-225 307-113-102-225-205-225-307 0-56 50-102 113-102 56 0 84 26 113 77zm-46-58"/><path d="m6805 17841c28-51 56-77 113-77 62 0 113 46 113 102 0 102-113 205-225 307-113-102-225-205-225-307 0-57 50-102 113-102 56 0 84 26 113 77zm-46-58"/><path d="m6060 18071c28-51 56-77 113-77 62 0 113 46 113 102 0 102-113 205-225 307-113-102-225-205-225-307 0-57 50-102 113-102 56 0 84 26 113 77zm-46-58"/><path d="m6372 17104c35-64 70-96 140-96 78 0 140 57 140 128 0 128-140 255-281 383-140-128-281-255-281-383 0-70 63-128 140-128 70 0 105 32 140 96zm-57-72"/></g><g stroke-linejoin="round" stroke-linecap="round" stroke-width="50"><g font-family="&apos;Cassandra&apos;" font-size="1313.91" transform="matrix(.94274 0 0 1-8255.91-905.72)"><text x="10500" y="14850">Texto 01</text><text x="10500" y="16578"/></g><path d="m3542 14151c23 0 42 4 56 13 14 9 21 21 22 36-3 27-35 52-95 74-60 22-126 44-199 67 0 46 4 82 12 107 8 25 19 52 32 82 36-13 76-23 120-31 44-8 87-12 128-12 51 0 89 8 115 23 26 16 39 38 39 66 0 34-20 73-62 117-42 44-108 84-199 120 14 24 27 45 41 65 14 20 21 33 22 38 0 2-1 3-3 5-2 1-5 2-9 3-12-9-24-18-35-26-12-8-21-15-28-20-13-10-22-18-27-26-5-7-10-14-14-20-43 14-89 24-138 32-49 7-102 11-159 12-130-2-228-24-294-64-66-40-99-88-99-144 1-72 44-132 128-180 84-48 205-94 362-138 13-59 48-106 106-143 58-37 118-55 178-57zm-167 392c15 35 33 73 53 115 20 42 41 81 63 116 92-34 160-71 202-112 43-41 64-73 64-98-1-19-14-34-40-46-25-12-59-18-99-18-24 0-59 4-105 11-46 8-92 18-137 31zm-74 26c-56 23-101 43-137 61-35 18-76 41-121 68h-6c-1 0-2-1-3-2-1-1-1-2-1-4 3-7 30-25 82-53 51-28 112-56 180-83-12-25-22-52-30-80-8-28-13-54-13-78 0-6 0-11 1-16 1-5 1-11 1-17-111 33-200 72-268 118-68 46-103 100-105 163 1 53 30 95 88 129 58 33 136 50 236 52 47 0 89-4 128-12 39-8 72-15 99-23-19-29-41-65-67-108-26-43-47-81-65-115zm290-376c0-9-5-15-14-19-9-4-23-6-41-6-49 0-93 15-134 43-41 28-65 67-72 116 30-9 63-20 99-32 36-12 66-24 91-34 22-10 40-21 52-33 13-12 19-23 19-34z" fill-rule="nonzero"/><text x="10500" y="14850" font-family="&apos;Cassandra&apos;" font-size="1313.91" transform="matrix(.82162 0 0 1-5224.5 1227.29)">Texto 02</text></g></g><g font-family="&apos;Arial Black&apos;" font-weight="900" font-size="492.69"><text x="10500" y="14850" transform="matrix(1.0077 0 0 1-7779.25 4477.95)">NN 1</text><text x="10500" y="14850" transform="matrix(1.0077 0 0 1-7767.7 4889.86)">NN 2</text></g></g><path d="m14394 2487c2165-59 5632 1715 5640 5942 2 1130-436 4888-540 6379-125 1788-217 4334-255 6146-17 1568-379 2476-1073 2843-924 322-1884 417-2894 181-1046-267-1565-1101-1580-2786 39-2176 303-5943-107-7921-530-2561-1200-2896-1458-5981-155-1856-99-4741 2269-4805z" fill="#fff"/><g fill="#201e1e"><g stroke="#201e1e"><g fill-rule="nonzero" stroke-width="7.62"><path d="m17528 7265c214-378 429-567 858-567 473 0 858 338 858 755 0 755-858 1511-1715 2266-858-755-1715-1511-1715-2266 0-417 384-755 858-755 429 0 643 189 858 567zm-349-425"/><path d="m17248 11953c61-108 122-162 245-162 135 0 245 96 245 215 0 215-245 431-489 646-245-215-489-431-489-646 0-119 110-215 245-215 122 0 183 54 245 162zm-99-121"/><path d="m15939 12349c63-111 126-167 252-167 139 0 252 100 252 222 0 222-252 444-505 667-252-222-505-444-505-667 0-123 113-222 252-222 126 0 189 56 252 167zm-104-125"/><path d="m15289 12986c49-87 98-130 197-130 109 0 197 78 197 173 0 173-197 347-394 520-197-173-394-347-394-520 0-96 88-173 197-173 98 0 148 43 197 130zm-79-97"/><path d="m16696 12750c41-72 82-108 163-108 90 0 163 64 163 144 0 144-163 287-326 431-163-144-326-287-326-431 0-79 73-144 163-144 82 0 122 36 163 108zm-66-81"/><path d="m14330 12897c56-99 112-148 224-148 124 0 224 89 224 198 0 198-224 395-449 593-224-198-449-395-449-593 0-109 101-198 224-198 112 0 168 49 224 148zm-90-111"/><path d="m16349 9179c41-72 81-108 163-108 90 0 163 64 163 143 0 143-163 287-326 430-163-143-326-287-326-430 0-79 73-143 163-143 81 0 122 36 163 108zm-66-81"/><path d="m14963 8717c36-64 72-95 144-95 80 0 144 57 144 127 0 127-144 254-288 381-144-127-288-254-288-381 0-70 65-127 144-127 72 0 108 32 144 95zm-58-71"/><path d="m19364 8847c41-72 81-108 163-108 90 0 163 64 163 143 0 143-163 287-326 430-163-143-326-287-326-430 0-79 73-143 163-143 81 0 122 36 163 108zm-66-81"/><path d="m19230 9634c38-66 75-99 150-99 83 0 150 59 150 132 0 132-150 264-300 397-150-132-300-264-300-397 0-73 67-132 150-132 75 0 113 33 150 99zm-62-74"/><path d="m16935 9980c38-67 76-101 153-101 84 0 153 60 153 135 0 135-153 269-306 404-153-135-306-269-306-404 0-74 69-135 153-135 76 0 115 34 153 101zm-62-76"/><path d="m16159 10792c38-67 76-101 153-101 84 0 153 60 153 135 0 135-153 269-306 404-153-135-306-269-306-404 0-74 69-135 153-135 76 0 115 34 153 101zm-62-76"/><path d="m16321 11731c38-67 76-101 153-101 84 0 153 60 153 135 0 135-153 269-306 404-153-135-306-269-306-404 0-74 69-135 153-135 76 0 115 34 153 101zm-62-76"/><path d="m17361 11405c30-53 60-79 119-79 66 0 119 47 119 105 0 105-119 210-239 315-119-105-239-210-239-315 0-58 53-105 119-105 60 0 89 26 119 79zm-50-59"/><path d="m18575 9158c30-53 60-79 119-79 66 0 119 47 119 105 0 105-119 210-239 315-119-105-239-210-239-315 0-58 53-105 119-105 60 0 89 26 119 79zm-50-59"/><path d="m16499 11291c23-40 45-60 91-60 50 0 91 36 91 80 0 80-91 160-181 239-91-80-181-160-181-239 0-44 41-80 91-80 45 0 68 20 91 60zm-36-45"/><path d="m14181 12263c23-40 45-60 91-60 50 0 91 36 91 80 0 80-91 160-181 239-91-80-181-160-181-239 0-44 41-80 91-80 45 0 68 20 91 60zm-36-45"/><path d="m15353 10487c23-40 45-60 91-60 50 0 91 36 91 80 0 80-91 160-181 239-91-80-181-160-181-239 0-44 41-80 91-80 45 0 68 20 91 60zm-36-45"/><path d="m15947 8567c23-40 45-60 91-60 50 0 91 36 91 80 0 80-91 160-181 239-91-80-181-160-181-239 0-44 41-80 91-80 45 0 68 20 91 60zm-36-45"/><path d="m18167 9646c23-40 45-60 91-60 50 0 91 36 91 80 0 80-91 160-181 239-91-80-181-160-181-239 0-44 41-80 91-80 45 0 68 20 91 60zm-36-45"/><path d="m15615 8982c23-40 45-60 91-60 50 0 91 36 91 80 0 80-91 160-181 239-91-80-181-160-181-239 0-44 41-80 91-80 45 0 68 20 91 60zm-36-45"/><path d="m15824 9428c23-40 45-60 91-60 50 0 91 36 91 80 0 80-91 160-181 239-91-80-181-160-181-239 0-44 41-80 91-80 45 0 68 20 91 60zm-36-45"/><path d="m16956 10683c55-98 111-147 222-147 122 0 222 88 222 195 0 195-222 391-444 586-222-195-444-391-444-586 0-108 99-195 222-195 111 0 166 49 222 147zm-90-110"/><path d="m15983 9946c55-98 111-147 222-147 122 0 222 88 222 195 0 195-222 391-444 586-222-195-444-391-444-586 0-108 99-195 222-195 111 0 166 49 222 147zm-90-110"/><path d="m15396 7985c64-112 127-168 255-168 141 0 255 100 255 224 0 224-255 449-509 673-255-224-509-449-509-673 0-124 114-224 255-224 127 0 191 56 255 168zm-105-126"/><path d="m18250 10296c107-189 214-283 428-283 236 0 428 169 428 377 0 377-428 754-856 1131-428-377-856-754-856-1131 0-208 192-377 428-377 214 0 321 94 428 283zm-174-212"/><path d="m14818 9461c94-165 187-248 375-248 207 0 375 148 375 330 0 330-375 660-750 990-375-330-750-660-750-990 0-182 168-330 375-330 187 0 281 83 375 248zm-153-186"/><path d="m14910 11155c125-221 251-331 502-331 277 0 502 198 502 442 0 442-502 884-1004 1326-502-442-1004-884-1004-1326 0-244 225-442 502-442 251 0 376 110 502 331zm-204-249"/><path d="m17304 5638c57-101 115-152 230-152 127 0 230 91 230 202 0 202-230 405-460 607-230-202-460-405-460-607 0-112 103-202 230-202 115 0 172 51 230 152zm-93-114"/><path d="m17971 6231c40-70 79-105 158-105 87 0 158 62 158 139 0 139-158 279-317 418-158-139-317-279-317-418 0-77 71-139 158-139 79 0 119 35 158 105zm-65-78"/><path d="m18791 6052c49-87 99-130 197-130 109 0 197 78 197 174 0 174-197 348-395 521-197-174-395-348-395-521 0-96 88-174 197-174 99 0 148 43 197 130zm-81-98"/><path d="m17841 4671c68-119 135-178 270-178 149 0 270 107 270 238 0 238-270 476-540 714-270-238-540-476-540-714 0-131 121-238 270-238 135 0 203 59 270 178zm-111-134"/><path d="m18180 5508c37-65 73-97 146-97 81 0 146 58 146 129 0 129-146 258-293 387-146-129-293-258-293-387 0-71 66-129 146-129 73 0 110 32 146 97zm-60-73"/></g><text x="10500" y="14850" font-family="&apos;Comic Sans MS&apos;" stroke-width="75" font-size="947.3" transform="matrix(1.02079 0 0 1 3184.84 7385.64)">00.00.0000</text></g><g font-family="&apos;Arial Black&apos;" font-weight="900" font-size="492.69"><text x="10500" y="14850" transform="matrix(1.0077 0 0 1 4285.65 4477.95)">NN 1</text><text x="10500" y="14850" transform="matrix(1.0077 0 0 1 4297.2 4889.86)">NN 2</text></g></g></svg>