<svg xmlns="http://www.w3.org/2000/svg" width="744.09" height="1052.36" viewBox="0 0 21000 29700" shape-rendering="geometricPrecision" image-rendering="optimizeQuality" fill-rule="evenodd" text-rendering="geometricPrecision" clip-rule="evenodd"><text x="10081" y="24465" fill="#201e1e" font-family="&apos;Arial Black&apos;" stroke="#201e1e" font-weight="900" stroke-width="7.62" font-size="705.56">38</text><g fill="none" stroke="#322f30" stroke-width="80"><circle cx="10533" cy="1326" r="460"/><path d="m10533 515v1621"/><path d="m9723 1326h1621"/><circle cx="10533" cy="25836" r="460"/><path d="m10533 25026v1621"/><path d="m9723 25836h1621"/></g><rect x="9843" y="22866" width="1347" height="637" rx="318" fill="#fff" stroke="#fff" stroke-width="20"/><g fill="#373435" font-family="&apos;Arial&apos;" font-weight="normal" font-size="423.33"><text x="2352" y="27641">DESC 1</text><text x="2366" y="28088">DESC 2</text><text x="2416" y="28512">DESC 3</text></g><path d="m7011 1612c-2341-65-6090 1903-6098 6596-2 1254 472 5426 584 7081 135 1985 235 4811 276 6822 18 1740 410 2749 1161 3156 999 357 2037 463 3130 201 1131-297 1692-1222 1708-3092-42-2415-328-6597 115-8792 574-2842 1298-3215 1577-6639 168-2060 107-5262-2453-5333" fill="#fff"/><g fill="#201e1e"><g stroke="#201e1e"><g fill-rule="nonzero" stroke-width="7.62"><path d="m6552 20583c104-193 207-290 414-290 229 0 414 173 414 386 0 386-414 773-828 1159-414-386-828-773-828-1159 0-213 185-386 414-386 207 0 310 97 414 290zm-166-217"/><path d="m5260 22589c88-164 176-246 352-246 194 0 352 147 352 328 0 328-352 656-703 984-352-328-703-656-703-984 0-181 158-328 352-328 176 0 264 82 352 246zm-144-185"/><path d="m6606 22287c82-152 163-228 326-228 180 0 326 136 326 305 0 305-326 609-653 914-326-305-653-609-653-914 0-168 146-305 326-305 163 0 245 76 326 228zm-132-171"/><path d="m5358 21604c43-81 87-121 173-121 96 0 173 72 173 161 0 161-173 323-346 484-173-161-346-323-346-484 0-89 78-161 173-161 87 0 130 40 173 121zm-70-91"/><path d="m4475 21438c35-65 70-98 140-98 77 0 140 59 140 131 0 131-140 262-280 393-140-131-280-262-280-393 0-72 63-131 140-131 70 0 105 33 140 98zm-59-74"/><path d="m3694 22314c45-84 90-126 180-126 99 0 180 75 180 168 0 168-180 335-359 503-180-168-359-335-359-503 0-93 80-168 180-168 90 0 135 42 180 126zm-73-94"/><path d="m3234 21654c24-45 48-67 96-67 53 0 96 40 96 90 0 90-96 180-193 270-96-90-193-180-193-270 0-50 43-90 96-90 48 0 72 22 96 67zm-40-51"/><path d="m2834 23502c19-36 39-54 78-54 43 0 78 33 78 73 0 73-78 145-156 218-78-73-156-145-156-218 0-40 35-73 78-73 39 0 58 18 78 54zm-32-41"/><path d="m4317 23390c43-81 87-121 173-121 96 0 173 72 173 161 0 161-173 323-346 484-173-161-346-323-346-484 0-89 78-161 173-161 87 0 130 40 173 121zm-70-91"/><path d="m4095 22887c22-41 44-61 87-61 48 0 87 37 87 82 0 82-87 163-175 245-87-82-175-163-175-245 0-45 39-82 87-82 44 0 66 20 87 61zm-34-46"/><path d="m3445 23110c51-94 101-142 202-142 112 0 202 85 202 189 0 189-202 378-405 567-202-189-405-378-405-567 0-104 91-189 202-189 101 0 152 47 202 142zm-83-106"/><path d="m3361 23951c30-56 60-84 119-84 66 0 119 50 119 111 0 111-119 223-239 334-119-111-239-223-239-334 0-62 53-111 119-111 60 0 90 28 119 84zm-49-63"/><path d="m2574 24153c33-61 66-92 131-92 72 0 131 55 131 122 0 122-131 245-262 367-131-122-262-245-262-367 0-68 59-122 131-122 66 0 98 31 131 92zm-55-69"/><path d="m4503 22102c32-60 64-89 128-89 71 0 128 53 128 119 0 119-128 238-255 358-128-119-255-238-255-358 0-66 57-119 128-119 64 0 96 30 128 89zm-51-67"/><path d="m5128 20808c43-81 87-121 173-121 96 0 173 72 173 161 0 161-173 323-346 484-173-161-346-323-346-484 0-89 78-161 173-161 87 0 130 40 173 121zm-70-91"/><path d="m6911 19489c46-87 93-130 186-130 103 0 186 78 186 174 0 174-186 347-372 521-186-174-372-347-372-521 0-96 83-174 186-174 93 0 139 43 186 130zm-75-98"/><path d="m5632 21169c19-35 38-53 76-53 42 0 76 32 76 71 0 71-76 142-152 212-76-71-152-142-152-212 0-39 34-71 76-71 38 0 57 18 76 53zm-30-40"/><path d="m5612 20000c30-57 61-85 122-85 67 0 122 51 122 114 0 114-122 227-243 341-122-114-243-227-243-341 0-63 55-114 122-114 61 0 91 28 122 85zm-50-64"/><path d="m7187 18655c30-57 61-85 122-85 67 0 122 51 122 114 0 114-122 227-243 341-122-114-243-227-243-341 0-63 55-114 122-114 61 0 91 28 122 85zm-50-64"/><path d="m6381 18910c30-57 61-85 122-85 67 0 122 51 122 114 0 114-122 227-243 341-122-114-243-227-243-341 0-63 55-114 122-114 61 0 91 28 122 85zm-50-64"/><path d="m6718 17836c38-71 76-106 152-106 84 0 152 64 152 142 0 142-152 283-304 425-152-142-304-283-304-425 0-78 68-142 152-142 76 0 114 35 152 106zm-60-80"/></g><g stroke-linejoin="round" stroke-linecap="round" stroke-width="50"><g font-family="&apos;Cassandra&apos;" font-size="1458.44" transform="matrix(.91839 0 0 1-8038.12-520.36)"><text x="10500" y="14850">Texto 01</text><text x="10500" y="16769"/></g><path d="m3659 14559c25 0 45 5 61 15 15 10 23 23 24 40-4 30-38 58-103 83-65 24-137 49-215 75 0 52 4 91 13 119 9 28 20 58 35 91 39-14 82-26 130-34 47-9 94-13 138-14 55 0 97 9 124 26 28 17 42 42 42 74 1 37-22 81-67 130-45 49-117 94-215 133 15 26 29 50 44 72 15 22 23 36 24 42 0 2-1 4-3 5-2 2-6 2-10 3-13-10-26-20-38-29-13-9-23-17-31-23-14-11-24-20-29-28-5-8-10-15-15-22-46 15-96 27-149 35-53 8-111 13-172 13-141-3-246-26-318-71-71-44-107-98-107-160 1-80 47-146 138-199 91-53 222-105 392-154 14-65 52-118 115-159 63-41 127-61 192-63zm-181 435c16 38 35 81 57 127 22 46 44 90 68 129 100-37 173-79 219-124 46-45 69-81 69-108-1-21-15-38-43-51-27-13-63-20-107-20-26 0-64 4-114 12-50 8-99 20-149 35zm-80 29c-60 25-109 48-148 68-38 20-82 45-130 76h-6c-1 0-2-1-3-2-1-1-2-2-2-4 3-8 32-28 88-59 56-31 121-62 195-92-13-28-24-58-32-89-9-31-14-60-14-87 0-6 0-12 1-17 1-6 1-12 1-19-120 37-216 80-289 131-74 51-111 111-113 181 1 58 33 106 95 143 63 37 148 56 255 57 50 0 97-5 139-13 42-9 78-17 107-26-20-32-44-72-72-120-28-48-51-90-70-128zm313-417c0-10-5-17-15-22-10-5-25-7-44-7-53 0-101 16-145 48-44 31-70 74-78 129 33-10 68-22 107-35 39-14 72-26 99-38 24-11 43-24 56-37 14-13 20-26 20-38z" fill-rule="nonzero"/><text x="10500" y="14850" font-family="&apos;Cassandra&apos;" font-size="1458.44" transform="matrix(.8004 0 0 1-4896.43 1847.31)">Texto 02</text></g></g><g font-family="&apos;Arial Black&apos;" font-weight="900" font-size="546.88"><text x="10500" y="14850" transform="matrix(.9817 0 0 1-7449.56 5455.57)">NN 1</text><text x="10500" y="14850" transform="matrix(.9817 0 0 1-7437.07 5912.8)">NN 2</text></g></g><path d="m14084 1612c2341-65 6090 1903 6098 6596 2 1254-472 5426-584 7081-135 1985-235 4811-276 6822-18 1740-410 2749-1161 3156-999 357-2037 463-3130 201-1131-297-1692-1222-1708-3092 42-2415 328-6597-115-8792-574-2842-1298-3215-1577-6639-168-2060-107-5262 2453-5333" fill="#fff"/><g fill="#201e1e"><g stroke="#201e1e"><g fill-rule="nonzero" stroke-width="7.62"><path d="m17473 6915c232-419 464-629 928-629 512 0 928 376 928 838 0 838-928 1677-1855 2515-928-838-1855-1677-1855-2515 0-463 416-838 928-838 464 0 696 210 928 629zm-378-472"/><path d="m17170 12119c66-120 132-179 264-179 146 0 264 107 264 239 0 239-264 478-529 717-264-239-529-478-529-717 0-132 118-239 264-239 132 0 198 60 264 179zm-108-134"/><path d="m15755 12559c68-123 136-185 273-185 151 0 273 110 273 247 0 247-273 493-546 740-273-247-546-493-546-740 0-136 122-247 273-247 136 0 205 62 273 185zm-111-139"/><path d="m15052 13266c53-96 106-144 213-144 117 0 213 86 213 192 0 192-213 385-426 577-213-192-426-385-426-577 0-106 95-192 213-192 106 0 160 48 213 144zm-87-108"/><path d="m16574 13004c44-80 88-120 176-120 97 0 176 71 176 159 0 159-176 319-353 478-176-159-353-319-353-478 0-88 79-159 176-159 88 0 132 40 176 120zm-73-90"/><path d="m14016 13167c61-110 121-164 243-164 134 0 243 98 243 219 0 219-243 439-485 658-243-219-485-439-485-658 0-121 109-219 243-219 121 0 182 55 243 164zm-98-123"/><path d="m16199 9040c44-80 88-119 176-119 97 0 176 71 176 159 0 159-176 319-352 478-176-159-352-319-352-478 0-88 79-159 176-159 88 0 132 40 176 119zm-70-90"/><path d="m14699 8527c39-71 78-106 156-106 86 0 156 63 156 141 0 141-156 282-312 423-156-141-312-282-312-423 0-78 70-141 156-141 78 0 117 35 156 106zm-64-79"/><path d="m19458 8671c44-80 88-119 176-119 97 0 176 71 176 159 0 159-176 319-352 478-176-159-352-319-352-478 0-88 79-159 176-159 88 0 132 40 176 119zm-70-90"/><path d="m19314 9546c41-73 81-110 162-110 90 0 162 66 162 147 0 147-162 293-325 440-162-147-325-293-325-440 0-81 73-147 162-147 81 0 122 37 162 110zm-66-83"/><path d="m16832 9929c41-75 83-112 165-112 91 0 165 67 165 149 0 149-165 299-331 448-165-149-331-299-331-448 0-83 74-149 165-149 83 0 124 37 165 112zm-68-84"/><path d="m15993 10831c41-75 83-112 165-112 91 0 165 67 165 149 0 149-165 299-331 448-165-149-331-299-331-448 0-83 74-149 165-149 83 0 124 37 165 112zm-68-84"/><path d="m16168 11873c41-75 83-112 165-112 91 0 165 67 165 149 0 149-165 299-331 448-165-149-331-299-331-448 0-82 74-149 165-149 83 0 124 37 165 112zm-68-84"/><path d="m17292 11511c32-58 65-87 129-87 71 0 129 52 129 117 0 117-129 233-258 350-129-117-258-233-258-350 0-64 58-117 129-117 65 0 97 29 129 87zm-53-66"/><path d="m18606 9017c32-58 65-87 129-87 71 0 129 52 129 117 0 117-129 233-258 350-129-117-258-233-258-350 0-64 58-117 129-117 65 0 97 29 129 87zm-53-66"/><path d="m16361 11385c24-44 49-66 98-66 54 0 98 40 98 89 0 89-98 177-196 266-98-89-196-177-196-266 0-49 44-89 98-89 49 0 73 22 98 66zm-41-50"/><path d="m13854 12463c24-44 49-66 98-66 54 0 98 40 98 89 0 89-98 177-196 266-98-89-196-177-196-266 0-49 44-89 98-89 49 0 73 22 98 66zm-41-50"/><path d="m15121 10492c24-44 49-66 98-66 54 0 98 40 98 89 0 89-98 177-196 266-98-89-196-177-196-266 0-49 44-89 98-89 49 0 73 22 98 66zm-41-50"/><path d="m15763 8361c24-44 49-66 98-66 54 0 98 40 98 89 0 89-98 177-196 266-98-89-196-177-196-266 0-49 44-89 98-89 49 0 73 22 98 66zm-41-50"/><path d="m18165 9559c24-44 49-66 98-66 54 0 98 40 98 89 0 89-98 177-196 266-98-89-196-177-196-266 0-49 44-89 98-89 49 0 73 22 98 66zm-41-50"/><path d="m15404 8821c24-44 49-66 98-66 54 0 98 40 98 89 0 89-98 177-196 266-98-89-196-177-196-266 0-49 44-89 98-89 49 0 73 22 98 66zm-41-50"/><path d="m15631 9317c24-44 49-66 98-66 54 0 98 40 98 89 0 89-98 177-196 266-98-89-196-177-196-266 0-49 44-89 98-89 49 0 73 22 98 66zm-41-50"/><path d="m16855 10709c60-108 120-163 240-163 132 0 240 97 240 217 0 217-240 434-480 651-240-217-480-434-480-651 0-120 108-217 240-217 120 0 180 54 240 163zm-99-122"/><path d="m15803 9891c60-108 120-163 240-163 132 0 240 97 240 217 0 217-240 434-480 651-240-217-480-434-480-651 0-120 108-217 240-217 120 0 180 54 240 163zm-99-122"/><path d="m15168 7715c69-124 138-187 275-187 152 0 275 112 275 249 0 249-275 498-551 747-275-249-551-498-551-747 0-137 123-249 275-249 138 0 207 62 275 187zm-111-140"/><path d="m18254 10280c116-209 232-314 463-314 256 0 463 188 463 419 0 419-463 837-926 1256-463-419-926-837-926-1256 0-231 207-419 463-419 232 0 347 105 463 314zm-189-235"/><path d="m14543 9353c101-183 203-275 405-275 224 0 405 164 405 366 0 366-405 733-811 1099-405-366-811-733-811-1099 0-202 182-366 405-366 203 0 304 92 405 275zm-165-206"/><path d="m14643 11234c136-245 271-368 543-368 300 0 543 220 543 491 0 491-543 981-1085 1472-543-491-1085-981-1085-1472 0-271 243-491 543-491 271 0 407 123 543 368zm-220-276"/><path d="m17231 5109c62-112 124-168 249-168 137 0 249 101 249 225 0 225-249 449-497 674-249-225-497-449-497-674 0-124 111-225 249-225 124 0 186 56 249 168zm-102-126"/><path d="m17952 5768c43-77 86-116 171-116 94 0 171 69 171 155 0 155-171 309-342 464-171-155-342-309-342-464 0-85 77-155 171-155 86 0 128 39 171 116zm-69-87"/><path d="m18839 5569c53-96 107-145 213-145 118 0 213 86 213 193 0 193-213 386-427 579-213-193-427-386-427-579 0-106 96-193 213-193 107 0 160 48 213 145zm-86-109"/><path d="m17812 4036c73-132 146-198 292-198 161 0 292 118 292 264 0 264-292 528-584 792-292-264-584-528-584-792 0-146 131-264 292-264 146 0 219 66 292 198zm-118-149"/><path d="m18178 4965c40-72 79-107 158-107 87 0 158 64 158 143 0 143-158 286-317 430-158-143-317-286-317-430 0-79 71-143 158-143 79 0 119 36 158 107zm-66-81"/></g><text x="10500" y="14850" font-family="&apos;Comic Sans MS&apos;" stroke-width="75" font-size="1051.5" transform="matrix(.99442 0 0 1 3112.16 8683.13)">00.00.0000</text></g><g font-family="&apos;Arial Black&apos;" font-weight="900" font-size="546.88"><text x="10500" y="14850" transform="matrix(.9817 0 0 1 4287.81 5455.57)">NN 1</text><text x="10500" y="14850" transform="matrix(.9817 0 0 1 4300.3 5912.8)">NN 2</text></g></g></svg>