<svg xmlns="http://www.w3.org/2000/svg" width="744.09" height="1052.36" viewBox="0 0 21000 29700" shape-rendering="geometricPrecision" image-rendering="optimizeQuality" fill-rule="evenodd" text-rendering="geometricPrecision" clip-rule="evenodd"><text x="10081" y="24465" fill="#201e1e" font-family="&apos;Arial Black&apos;" stroke="#201e1e" font-weight="900" stroke-width="7.62" font-size="705.56">34</text><g fill="none" stroke-width="80"><g stroke="#322f30"><circle cx="10533" cy="1326" r="460"/><path d="m10533 515v1621"/><path d="m9723 1326h1621"/></g><g stroke="#373435"><circle cx="10533" cy="25836" r="460"/><path d="m10533 25026v1621"/><path d="m9723 25836h1621"/></g></g><g fill="#fff"><rect x="9843" y="22866" width="1347" height="637" rx="318" stroke="#fff" stroke-width="20"/><path d="m14788 23774c1152 561 3343 453 4008-585 663-1034 513-3969 575-5407 157-3603 555-6335 658-9240 114-3226-2080-5360-4703-5960-3700-847-3481 4118-2967 6670 270 1371 803 2564 1142 3905 627 2472 59 6246 277 8819 112 889 408 1479 1009 1800z"/></g><g fill="#201e1e"><g stroke="#201e1e"><path d="m12152 5250c632-643 2057-260 1655 924-365 651-822 570-1715 962 4 80 9 159 15 239 1096-464 1659-371 2109-1148 496-1417-1261-1877-2044-1110-7 44-13 89-19 133z" stroke-width="7.62"/><path d="m13849 3346c10 21 2 38-25 52-30 15-52 9-66-20-15-30-7-53 23-69l10-4c23-3 43 10 58 41zm149-63c8 22-2 38-31 49-31 12-52 2-63-28-11-32-1-54 31-66l10-3c24 0 41 16 52 47zm147-52c6 23-6 38-36 45-32 8-52-3-60-35-8-33 5-53 38-62l11-1c23 2 39 20 47 53zm149-209c6 86 36 130 92 131 8 0 16-1 24-3 61-16 92-58 93-128 0-29-4-69-15-119-4-18-14-34-29-48-16-14-34-22-56-22-13 0-26 3-38 9-48 24-72 70-74 138 0 4 1 18 2 42zm-79-10c9-109 48-181 116-218 17-9 37-14 58-13 35 1 78 18 129 52 5 4 15-6 31-31 23-9 37-14 41-14 4 0 8 1 12 3 17 10 25 21 25 34 0 9-9 26-27 51-18 25-28 42-29 52-12 94-18 169-19 225-1 63 3 123 12 180 2 12 9 28 22 47 14 22 22 38 25 48 0 26-16 38-45 38-53-1-79-50-77-147l2-133c-32 35-71 52-118 51-23 0-44-5-63-14-72-34-103-104-94-211zm799-3c-9 61-8 110 3 147 2 5 9 15 22 31 13 16 19 26 19 32-2 29-20 42-52 39-19-2-34-12-44-31l-20-36-55 37c-20 11-43 15-68 13-81-7-118-61-109-162 1-14 4-34 8-61 4-27 7-47 8-61 3-31 1-59-5-83-3-5-8-12-17-21-9-9-15-16-17-21-1-8-2-15-1-22 2-24 18-35 47-32 28 3 46 13 53 33 14 35 17 81 8 138-10 72-14 119-12 140 6 52 28 80 68 84 58 5 93-41 107-139-3 18 0-16 7-103-1-8-9-25-24-52-15-26-22-42-22-46 1-15 11-26 29-33 16-3 31-1 44 4 34 14 46 58 36 130l-11 73zm278 89c41-8 72-26 94-53 2-5 4-10 5-15 8-34-6-56-45-66-28-7-53-4-75 8-37 29-59 57-66 84-4 17-1 32 9 46 2 3 6 5 9 6 5 1 28-2 68-11zm75 160c18 5 30 13 37 25 3 21 3 32 1 35-16 22-51 29-104 21-73-19-119-51-138-97-25-61-30-121-15-181 20-81 63-135 130-162 33-13 68-15 103-6 38 10 66 27 82 53 17 25 21 54 13 85-12 51-56 86-132 106-26 7-71 14-137 23-2 20 4 39 19 57 14 18 34 30 58 36 9 2 23 3 42 3 19 0 33 1 42 3zm260-91c-21 63-32 104-32 124 12 19 23 43 35 73 0 7-1 13-3 18-7 20-22 29-46 27-6-1-11-3-16-4-19-7-33-18-43-33-7-19-9-34-5-46 2-16 7-33 13-52 5-14 13-34 24-60 12-27 20-47 24-60 13-37 17-72 12-103 0-3-5-17-13-42-5-16-6-30-2-40 8-24 26-30 55-20 12 4 22 11 28 20 3 13 10 30 19 51 30-26 68-31 114-15 23 8 41 20 55 37 14 17 18 34 12 52-2 6-5 12-9 18-11 12-26 15-43 9-9-3-16-8-21-14-18-31-33-48-45-52-45-16-83 22-114 114zm474 246c41-113 22-196-55-248-6-4-12-7-18-9-23-8-44-6-63 8-19 14-32 31-38 51-15 54-23 95-25 124-2 48 14 90 48 127 9 9 18 15 27 19 28 11 55 6 80-13 20-15 35-35 44-60zm72-30c-32 89-88 141-169 156-23 4-47 2-71-7-31-12-56-30-74-54-46-64-55-134-28-208 16-44 43-87 83-129 19-20 44-34 75-42 31-8 62-6 92 5 17 6 32 15 44 25 71 60 87 145 48 254zm437 357c12-33 2-76-30-130-3-3-33-46-92-127-18-35-19-68-3-100 17-33 47-50 92-51 39-1 80 10 123 32 85 44 115 83 88 115-11 12-29 15-56 6-14-7-33-21-56-42-23-21-41-34-55-41-42-22-70-18-85 12-10 19-3 45 19 78l55 77c62 87 79 157 52 211-13 26-35 45-65 58-81 34-174 26-279-25-26-13-49-30-68-53-14-16-13-34 4-52 10-12 26-12 48-1 12 6 28 16 50 29 22 13 38 23 50 29 38 20 73 29 106 28 55-1 89-19 101-53zm286-17c41 3 76-6 104-26 4-4 7-9 9-13 17-31 8-56-26-76-26-14-51-18-75-12-43 18-72 39-85 64-8 15-9 31-3 47 1 4 4 6 8 8 4 2 27 5 69 8zm32 175c16 9 26 20 29 34-2 21-5 32-8 34-21 17-56 14-106-7-66-37-102-81-109-130-8-65 2-125 31-179 40-73 96-114 167-123 36-4 69 3 101 21 34 19 56 44 66 72 10 29 7 57-9 86-25 46-76 68-154 68-26 0-72-5-138-14-7 19-6 39 3 60 9 21 25 37 47 50 8 5 21 9 40 14 18 5 32 10 40 14zm274 2c-37 55-57 92-63 111 7 21 12 48 15 79-2 6-4 12-8 17-12 17-29 22-52 14-5-3-10-6-14-8-17-11-28-26-33-43-2-20 0-36 7-46 6-15 15-31 25-47 8-12 21-29 39-52 18-23 31-40 39-52 22-33 34-65 38-96 1-3 0-17-2-44-1-17 2-30 8-40 14-21 33-22 58-5 11 7 18 16 22 27 0 13 2 32 6 55 36-17 74-12 114 15 20 14 35 31 44 50 9 20 9 38-2 53-4 6-8 10-13 15-14 8-29 7-44-3-8-5-13-12-17-19-10-35-20-55-30-62-39-27-86 0-139 80zm468 560c19-29 20-73 2-134-2-4-22-52-59-145-9-38-2-71 20-98 24-28 58-37 101-27 38 9 75 29 112 62 72 64 92 108 58 133-13 9-32 7-55-7-12-11-27-29-44-54-18-26-32-43-43-53-36-31-64-35-85-10-14 16-14 43 0 80l35 88c39 100 39 172 0 218-19 22-44 35-77 41-86 13-175-18-265-93-23-19-41-42-54-68-10-20-5-36 16-50 13-9 29-5 47 11 10 9 24 22 42 40 18 18 32 31 42 40 32 28 64 46 97 53 54 12 91 4 111-27zm288 67c39 13 75 14 107 2 5-3 9-7 12-10 24-25 22-52-6-80-21-21-44-31-69-31-46 6-79 19-98 39-12 13-17 28-15 44 1 4 2 7 5 10 4 4 25 12 64 25zm-14 177c13 13 20 27 19 41-7 20-13 30-17 31-24 11-58-1-101-35-54-53-78-105-72-155 9-65 34-120 75-164 57-60 121-85 193-74 35 6 66 21 92 47 28 28 43 57 45 87 2 30-8 57-30 80-36 38-91 46-166 25-25-7-69-24-129-50-12 17-16 36-12 59 4 23 14 43 33 61 7 7 18 14 35 24 17 10 28 18 35 24zm421 224c-48 38-80 75-97 109-2 5-4 17-5 38-1 20-4 32-8 36-21 19-43 17-64-7-13-14-17-32-12-53l10-40-65-11c-22-6-41-19-58-38-55-62-45-126 29-194 10-9 26-22 47-39 21-17 37-29 47-39 23-21 40-42 52-64 2-6 2-15 1-27-1-13 0-22 1-27 5-7 9-13 14-17 18-16 36-13 56 9 19 21 25 42 17 61-13 36-42 71-87 107-56 46-90 77-103 94-31 42-33 78-7 108 39 44 96 35 171-27-14 12 11-12 74-70 5-7 10-25 17-55 7-30 12-46 15-49 11-10 25-11 43-4 14 9 24 21 29 33 15 34-5 74-61 120l-57 46zm379 541c29-19 52-44 71-75 24-39 26-75 5-107-7-10-15-20-25-28-32-26-79-22-142 11-18 10-31 16-37 20-64 43-86 92-66 149 4 10 7 18 10 23 19 30 50 43 93 39 33-3 63-14 90-32zm34 67c-44 33-92 49-142 50-63 0-112-27-148-82-20-32-25-66-13-103-20 5-44 16-73 35-33 21-56 35-69 40-19 8-47 14-83 20-19 1-37-12-54-38-4-6-8-13-12-21-5-19-1-32 13-42 13-8 28-9 45-2 24 10 38 14 43 14 23 1 47-7 73-24 85-41 183-104 295-189 13-10 24-26 32-49 11-30 20-48 26-55 11-16 25-17 40-2 9 6 16 14 22 24 6 9 9 18 10 27-2 17-8 37-17 61 15 4 37 13 68 27 5 3 14 15 27 35 35 53 40 107 15 163-19 42-51 79-96 113zm-49 256c12 22 31 40 56 54 25 13 48 18 68 15 12-2 26-9 42-20 18-13 31-20 39-24 2-2 3-6 3-12-31-32-56-55-74-69-53-44-94-58-122-42-15 9-24 22-26 41-2 19 2 38 13 58zm80-158c5 4 20 14 47 30 11 7 33 28 67 65 39 42 71 56 98 41 37-21 43-55 17-102-11-20-28-36-50-45-17-7-28-14-33-20-19-21-23-40-13-56 11-18 28-23 52-17 34 12 64 41 88 86 13 23 22 48 29 73 8 44 3 75-15 93-27 28-62 56-103 83-70 46-106 69-106 70-7 4-16 18-28 42-11 24-19 37-24 40-11 6-24 5-41-2-8-5-15-13-22-25-14-25-17-45-9-60 11-23 17-35 17-38-52-21-92-57-120-108-24-45-27-85-6-120 10-17 22-30 38-39 37-21 76-18 117 8zm275 444c-60 26-98 45-112 58-6 21-16 46-30 75-5 4-10 8-15 10-19 8-36 3-51-16-3-5-6-10-8-15-8-19-9-37-5-55 9-18 19-30 31-35 13-9 29-17 46-25 13-6 33-13 61-22 27-9 47-16 61-22 36-15 64-35 84-59 2-2 9-14 22-38 8-15 18-24 28-29 23-10 40 0 52 28 5 12 7 24 4 35-7 11-16 27-25 49 39 5 68 31 87 76 9 23 13 45 10 67-3 22-13 36-30 44-6 3-12 4-19 5-16-1-28-10-35-27-4-8-5-17-4-25 10-35 13-57 8-69-19-44-72-48-160-10zm575 214c-44 20-89 38-135 55-136 50-276 89-421 117-6 2-10-2-12-12-2-9-1-15 5-18 26-11 96-43 209-97 82-38 153-68 211-89 42-16 80-28 114-36 16-4 28 5 36 27 3 8 5 17 7 27l-1 8c0 2-5 8-14 18zm-620 234c-31 12-52 3-62-25-12-32-1-55 33-67 28-10 48-1 58 28 11 31 2 53-29 64z" fill-rule="nonzero" stroke-width="35.28"/><g stroke-width="7.62"><path d="m17488 7900c-338-200-485-127-598-328-106-313 289-407 440-217-6-240 409-380 458-66 21 225-193 288-299 612z"/><path d="m16591 7062c-266-157-382-100-471-258-84-247 227-320 346-171-5-189 322-299 360-52 17 177-151 226-236 481z"/><path d="m17132 5988c-391-231-562-147-693-380-123-363 334-472 509-252-7-278 474-440 530-76 24 260-223 333-347 708z"/><path d="m18687 22676c196-116 281-74 346-190 62-182-167-236-255-126 4-139-237-220-265-38-12 130 112 167 173 354z"/><path d="m18119 20059c196-116 282-74 347-190 62-182-167-236-255-126 4-139-238-220-266-38-12 130 112 167 174 355z"/><path d="m17998 21466c196-116 282-74 347-190 62-182-167-236-255-126 4-139-238-220-266-38-12 130 112 167 174 355z"/><path d="m17132 23855c196-116 281-74 346-190 62-182-167-236-255-126 4-139-237-220-265-38-12 130 111 167 173 354z"/><path d="m18912 19093c196-116 282-74 347-190 62-182-167-236-255-126 4-139-238-220-266-38-12 130 112 167 174 355z"/><path d="m18212 17885c196-116 282-74 347-190 62-182-167-236-255-126 4-139-238-220-266-38-12 130 112 167 174 355z"/><path d="m18846 16596c196-116 282-74 347-190 62-182-167-236-255-126 4-139-238-220-266-38-12 130 112 167 174 355z"/><path d="m14405 22632c196-116 281-74 346-190 62-182-167-236-255-126 4-139-237-220-265-38-12 130 111 167 173 354z"/><path d="m14792 20094c196-116 282-74 347-190 62-182-167-236-255-126 4-139-238-220-266-38-12 130 112 167 174 355z"/><path d="m14945 21468c196-116 282-74 347-190 62-182-167-236-255-126 4-139-238-220-266-38-12 130 112 167 174 355z"/><path d="m16149 23807c196-116 281-74 346-190 62-182-167-236-255-126 4-139-237-220-265-38-12 130 111 167 173 354z"/><path d="m14073 18945c196-116 282-74 347-190 62-182-167-236-255-126 4-139-238-220-266-38-12 130 112 167 174 355z"/><path d="m14786 17724c196-116 282-74 347-190 62-182-167-236-255-126 4-139-238-220-266-38-12 130 112 167 174 355z"/><path d="m14007 16556c196-116 282-74 347-190 62-182-167-236-255-126 4-139-238-220-266-38-12 130 112 167 174 355z"/></g></g><path d="m16667 15957c-1-40-5-112 7-147l503-4c20 4 92 40 119 51 93 41 425 181 359 296-36 64-156 89-258 84-160-7-376-88-514-161l-215-120zm146-7798h18l269 22c537 76 1081 390 1081 1012 0 112-29 210-49 302 188 0 291 220 151 362-108 110-140 19-156 115-34 206-168 398-328 514-71 52-144 93-224 132-33 16-135 59-172 62 12 17 18 14 40 24 40 18 68 40 102 68 128 104 172 324 199 487 21 130 44 263 70 395 102 514 196 1040 281 1560 10 64 24 133 34 195 19 113 70 228-20 236 56 49 127 140 127 244 0 113-32 216-112 281-85 69-171 99-284 99-297 0-468-361-277-576 13-15 19-17 30-34-57 0-101 11-113-36h-78c0 46 7 113 12 153l108 1326c7 88 15 205 26 290 7 51 5 96 10 148 30 291 57 267-164 267 1 1 4 2 5 3l52 26c18 9 38 19 56 29 35 21 66 39 101 63 237 161 142 348-77 391-108 21-251 1-351-28-297-89-545-251-555-254-29 20-51 40-85 58-215 113-769 317-966 149-142-121-21-252 100-325 32-19 58-34 91-51l85-43c1-2 3-2 5-3-42 0-99 5-99-36 0-164 76-724 85-926 5-123 28-336 44-465 27-217 51-532 75-764 8-79 30-101-48-100-31 1-58-2-80-5-51-7-21 0-55-23 0-82 19-169 28-245 5-44 10-76 15-121 5-41 14-75 14-123-44-10-135-73-171-99-178-136-225-345-225-568 0-105 33-195 57-294 56-233 124-470 199-695l72-228c71-218 152-416 407-477-10-9-11-10-26-17-91-42-172-87-254-144l-120-101c-15-13-20-24-33-38-70-78-130-160-173-262-34-80-66-224-67-226-10-23 3-10-23-20-64-25-104-40-149-100-99-133-5-316 167-320-25-53-14-155-14-215 0-310 201-610 432-767 185-125 415-225 636-258l210-16c23-1 32-6 52-7zm-236 7805c-98 58-72 60-214 113-154 57-347 128-514 139-72 5-224 1-247-83-33-121 474-316 494-318l488-5-8 153zm169-2383l569 39c8 80 179 2052 170 2097l-812 5 73-2141m1072 67c167-26 307 87 331 224 29 166-102 287-240 308-374 59-483-470-91-532m-1763-109l604 37c7 66-4 197-7 270-11 277-53 1856-69 1872-33 19-641 13-737 13l209-2193zm723-682c155-15 289 96 301 235 14 156-114 272-255 281-370 25-416-480-46-516m20-173c-22-17-25-34-25-66 0-30 5-45 15-64 37 28 24 91 10 130m-33-359c-26-51-47-154 12-187 20 20 30 57 29 100-1 49-9 76-41 87m494-845l209 2058-1593-98c-9-49 40-308 45-385 72 23 166 66 240 95 79 32 159 64 238 96 78 31 74 18 105 66 62 100 213 162 350 145 421-51 417-654-24-686l22-19c8-7 6-5 14-15 61-85 35-273-75-273-67 1-98 69-101 139-5 104 38 131 72 166-42 13-59-7-93-27l-239-145c-112-73-209-146-289-231-89-94-18-299 8-429 28-137 70-293 89-428 21 12 23 17 39 36 128 146 284 298 406 442 21 25 40 43 61 71-127 44-114 353 33 352 74 0 112-87 117-161 3-40-3-82-17-115-14-32-23-47-42-64-2-1-7-6-8-7l-8-7 442-578zm-1104-226c45-10 278-42 320-11 72 52 50 55 61 153 22 211 78 281 134 436-36-26-37-44-69-77l-445-501zm749 516c43-126 68-233 84-379 7-63-3-53 36-85 69-55 55-38 216-9l43 15c-36 26-68 74-100 113l-279 345m-130 70c-49-58-122-272-141-365-31-158-21-304-6-465 44 21 78 56 137 67 52 10 107-37 156-51 0 154-6 310-30 459-15 95-66 299-115 355zm382-649c24-33 59-58 86-86l133-123c40-38 81-61 118-118l11-16c23 41 53 70 77 130 64 159 80 333 111 505l313 1728c18 99 53 252 58 346l-506 11c-33-397-85-796-122-1193l-92-898c-7-73-23-84 19-132 27-30 47-51 34-102-66-26-168-30-243-52zm-717 1977c-48-12-116-44-165-64-251-102-613-203-703-449-37-100-63-304-36-414 87-357 197-736 313-1082 18-54 37-120 59-170 24-55 65-98 87-143l10 9c89 92 201 168 300 252l42 41c-61 4-304 7-325 43-26 43 39 85 59 108 119 135 95 94 65 240l-95 456c-21 102-59 222-29 328 27 98 106 146 163 200 42 40 158 123 209 154 76 46 149 92 225 137-72 57-85 52-137 136-36 57-50 141-40 219zm143-2352c13-20 54-51 87-56 24-4 94 5 126 5 135 1 143-27 198 72-16 39-53 68-93 93-23 15-94 59-126 57-68-5-169-115-193-171zm460-64c39-4 75-8 113-15 93-16 64-24 161 58 23 20 44 39 68 53-10 27 0 12-23 33l-358 326c-3-41 1-97 2-140 0-56-11-93 19-126 92-101 68-101 19-189zm-920 93c26-26 54-47 87-72 132-102 73-85 197-57l121 28c-86 89-11 96 18 176 9 24-11 214-17 253l-405-329zm284-2195c57 39 100 72 181 101 72 26 146 43 228 55 440 66 893-65 1144 539 78 190 109 217 101 465-6 164-63 322-140 425-174 234-423 351-718 404-696 124-1370-101-1568-618-26-69-49-152-53-233-3-50-5-232 12-267l157-128c52-41 102-85 153-124l148-137c126-130 211-243 307-399 17-27 28-61 50-84zm1728 934c176 29 158 214 12 254l-12-254m-2643 174c-146-52-176-224 11-247-2 39-9 79-10 121-1 42 5 85 0 126zm89-343c-39-172-2-383 64-521 76-158 153-253 265-341 246-192 580-300 906-301 306-1 713 85 937 270 109 89 204 183 270 336 65 150 90 343 46 520-69-99-102-310-332-467-359-245-719-110-1087-230-82-27-118-47-179-91-56-42-77-122-136 1-59 124-132 228-207 321-137 171-246 263-401 389l-147 114zm483 71c-46 97 156 619 788 632 418 9 723-186 851-598 28-89-39-87-60-68-29 26-38 178-188 356-45 53-130 113-213 150-333 149-827 85-1032-262-91-155-47-234-147-209zm876-329c-41-263 307-295 311-18-58-21-71-64-173-53-80 9-97 50-138 71m110-274c-301 69-184 545 94 478 291-70 177-540-94-478m-707 286c-39-304 294-299 308-52-75-27-141-77-250-1-41 29-37 37-58 53m106-293c-298 69-185 545 94 478 292-70 178-541-94-478m504 672c33-76-23-80-94-80-40 0-147 4-173 24-19 15-23 50-1 67 21 16 55 6 83 2 56-7 145 0 186-13z"/><g stroke="#201e1e" stroke-width="7.62"><g font-family="&apos;Boomerang&apos;" font-size="893.21"><text x="10500" y="14850" transform="matrix(1.40592 0 0 1 392.98 5713.41)">Texto 01</text><text x="10500" y="14850" transform="matrix(1.75839 0 0 1-3638.59 8055.83)">Texto 02</text></g><path d="m16870 21678c0 9-8 17-24 22-16 5-34 8-55 8-30 0-57-4-82-12-6-2-22-9-49-22-22-11-37-16-47-18-37 32-88 48-154 48-41 0-75-8-104-25-27-15-41-33-41-52 0-26 22-52 66-79 10-6 27-13 52-23 25-9 41-16 51-21-8-15-13-29-13-42 0-19 6-35 19-49 17-18 43-27 79-27 52 0 77 13 77 39 0 17-12 34-36 49-11 7-37 20-77 39 3 13 25 40 65 80 6 6 10 9 14 9 7 0 19-8 36-25 23-23 42-38 57-47 29-17 60-25 92-25 17 0 32 2 47 7 15 5 22 11 22 18 0 12-14 18-42 18h-20c-9 0-16 0-20 0-34 0-63 9-86 29-2 2-19 17-52 47 12 10 28 20 50 27 22 8 44 12 67 12 9 0 22-1 39-4 17-2 30-4 39-4 7 0 14 3 20 8 6 5 9 10 9 13zm-266-249c0-13-10-19-30-19-20 0-36 6-47 18-9 9-14 19-14 30 0 5 1 12 3 20 4 4 8 6 12 6h4c48-24 72-42 72-54zm-15 203c-19-10-38-25-57-45-19-20-30-37-33-50-3-3-7-4-12-4-1 0-6 3-16 6-61 24-91 49-91 75 0 14 9 27 27 39 19 13 43 20 72 20 37 0 73-14 110-41z" fill-rule="nonzero"/></g><g font-family="&apos;Arial Black&apos;" font-weight="900" font-size="524.49"><text x="10500" y="14850" transform="matrix(.98379 0 0 1 5706.61 3573.04)">NN 1</text><text x="10500" y="14850" transform="matrix(.98379 0 0 1 5681.03 4085.24)">NN 2</text></g></g><path d="m6244 23774c-1151 561-3340 453-4004-585-662-1034-512-3969-575-5407-157-3603-555-6335-658-9240-114-3226 2078-5360 4699-5960 3697-847 3479 4118 2965 6670-269 1371-802 2564-1142 3905-626 2472-59 6246-277 8819-112 889-407 1479-1008 1800z" fill="#fff"/><g fill="#201e1e"><g stroke="#201e1e"><path d="m7263 5065c142-921 1091-843 1547-350-18-81-37-160-58-238-564-589-1737-682-1912 421-102 1053 931 1349 1448 2868 238-136 457-246 658-336 6-83 12-167 16-251-162 75-337 166-529 279-418-1267-1253-1514-1171-2393z" stroke-width="7.62"/><path d="m1762 6002c39 15 66 40 80 74 7 17 14 51 20 101 5 42 14 73 27 93 3 6 13 14 31 24 18 11 29 19 33 25 10 14 11 32 2 55-6 17-18 29-33 36-16 7-30 8-43 3-33-13-52-47-57-101-2-26-7-76-14-151-6-55-26-89-60-102-57-22-117 37-182 177-5 12-47 108-126 287-18 32-40 44-65 34-21-8-30-24-27-48 2-14 9-37 21-70 19-51 47-104 81-158l95-148c73-114 145-156 216-129zm168 467c11 4 28 11 50 21 22 10 39 17 50 21 78 30 125 50 141 60 63 38 85 81 66 129-14 36-34 49-61 38-8-3-16-9-24-16-123-113-246-195-371-243-18-7-46-16-84-25-38-10-66-18-84-25-24-9-44-21-62-34-1-2 0-6 2-11 6-17 15-25 27-24 63 6 180 42 351 109zm281-586c-105-55-188-46-247 25-5 6-8 11-11 17-11 22-11 43 0 65 11 21 26 36 45 45 50 21 89 35 118 40 46 8 89-3 129-33 10-7 17-16 22-25 14-27 13-55-3-82-12-22-29-39-53-51zm-20-76c83 43 126 106 131 188 1 24-4 47-16 71-15 30-36 53-62 68-68 38-136 39-206 3-41-21-79-54-115-99-17-22-28-49-32-81-4-32 2-63 16-92 8-16 18-30 30-41 67-64 151-69 252-17zm84-168c55 35 92 55 111 60 21-7 46-13 77-18 6 2 12 4 17 7 17 11 23 28 16 52-3 6-5 11-8 15-11 17-24 29-41 35-20 3-35 1-45-5-15-6-30-14-46-24-12-8-29-20-52-38-23-17-40-30-52-38-33-21-64-33-95-35-3 0-17 1-43 4-17 1-30-1-39-7-21-13-23-33-7-59 7-11 15-19 26-23 13 0 31-3 53-8-18-36-14-74 11-116 13-21 29-36 48-46 19-10 36-10 52 0 5 4 10 8 15 13 9 14 8 29-1 44-5 8-11 14-18 17-34 11-53 22-60 32-25 41 3 87 83 138zm477-567c-90-77-173-88-246-32-6 4-11 9-14 14-15 19-20 40-14 63 6 23 17 41 34 54 44 32 79 54 106 66 43 18 88 18 133-2 11-5 20-11 27-19 19-23 25-50 16-81-7-24-20-45-40-62zm-3-79c71 61 100 132 86 213-4 23-14 45-31 66-21 26-46 43-75 52-74 22-142 7-201-44-35-30-65-71-90-123-12-25-17-54-13-86 4-32 16-61 36-86 12-14 24-25 38-33 80-47 163-33 250 41zm428-152c19 18 38 30 57 39 45 8 73 18 84 29 9 9 14 21 14 36-7 19-18 34-33 44-26 17-58 13-93-11-16-11-40-32-71-64-19-19-45-48-79-88-34-40-61-69-79-88-35-35-69-64-102-86-25-17-52-10-81 19-5 5-9 11-13 17-15 28-18 50-10 65 13 19 30 39 49 58 20 21 53 49 99 86 46 37 78 66 99 86 15 15 10 34-13 58-13 13-27 19-43 17-23-10-54-38-95-84-10-11-42-47-97-105-36-39-67-78-92-115-6-9-3-19 8-31 5-5 13-7 23-5l17 3c7-33 23-62 48-88 43-43 88-54 138-33 27 11 63 40 108 84l160 156zm-55-237c75 84 140 101 193 52 7-6 14-15 21-26 5-10 7-24 8-43 0-19 3-33 7-42-2-2-4-1-8 2-16-29-33-55-51-78-16-21-36-44-60-68-37-36-59-58-65-65 14 16-3-3-51-57-25-30-42-49-51-57-15-14-35-29-62-47-12-3-31-2-59 3-13 0-24-4-33-14-17-19-14-39 9-60 31-28 59-32 84-12 55 42 111 96 169 161l81 91c31 35 59 64 86 88 16 18 25 28 27 30 13 10 25 16 37 19 27-2 53-3 79-2 14 1 25 11 32 29 2 13-3 26-17 38-21 19-43 24-67 14-13-5-20-7-21-3-5 9-13 31-24 67-8 27-19 48-32 62-39 41-87 57-143 47-46-8-86-30-119-66-89-94-115-183-79-265 7-16 18-31 33-45 28-26 55-33 81-23 9 5 14 14 16 26 2 12-1 22-10 31-43 40-64 78-63 114 1 30 18 63 51 99zm408-368c18-37 24-73 17-107-3-5-5-9-8-13-21-28-47-29-78-5-23 18-36 40-40 65-1 47 8 82 25 104 11 14 24 21 41 21 4 0 7-1 10-4 4-3 15-23 33-61zm170 38c14-11 28-16 42-14 18 10 27 17 27 21 7 26-9 58-48 96-59 47-112 64-160 51-62-18-112-50-149-98-50-66-66-133-45-203 10-35 30-63 58-86 31-25 61-36 91-33 30 2 54 16 74 41 32 41 32 98 1 170-10 25-32 65-66 123 14 14 33 21 55 20 22 0 43-9 63-24 7-6 17-16 28-31 12-15 21-26 28-31zm328-406l26 32c9 11 20 18 33 20-27-89-41-139-43-150-10-61 0-114 32-160 4-6 10-12 17-16 28-17 47-16 58 3 6 9-1 51-21 126-12 46-16 84-12 116 3 25 14 61 34 108 19 47 30 83 33 110 2 7-2 13-12 18-12 7-23 9-32 4-17-14-38-38-64-73l-60-77c-14-18-43-38-85-57-13-6-38-12-74-18-36-6-62-14-77-23-15-10-16-24-3-44 11-17 26-26 46-28 39-5 78 6 116 32 16 11 45 37 88 78zm552-208c-52-108-122-152-212-131-7 2-13 4-19 7-22 11-34 28-38 52-4 24-1 45 9 63 27 48 51 83 70 104 32 35 73 52 122 53 12 0 23-2 32-7 27-13 43-36 46-67 4-25 0-49-12-73zm29-73c41 85 39 162-7 231-13 20-31 35-54 47-30 15-60 20-89 16-77-11-132-52-166-123-20-42-31-92-33-149-1-28 6-56 22-84 16-28 39-49 67-64 16-8 32-13 48-15 91-10 162 37 212 141zm127-208c-37 49-45 99-25 150 10 25 27 49 51 71 36 33 77 40 123 21 10-4 24-13 42-27 18-14 32-23 42-27 20-8 38-5 52 10 3 4 5 8 6 12 13 33-15 64-83 93-72 29-135 27-191-7-37-23-64-56-82-100-31-78-28-150 8-217 24-45 60-78 109-98 20-8 42-13 65-15 25 1 42 12 50 32 5 13 2 24-9 34-12 10-32 18-59 24-35 7-55 12-61 15-16 7-29 17-40 31zm415-26c30-29 47-60 52-95-1-6-2-11-3-15-11-34-35-44-72-32-28 9-47 25-59 47-16 44-20 80-12 106 5 17 16 28 31 34 4 1 7 1 11 0 5-2 22-17 52-46zm147 95c17-6 32-5 44 2 13 16 20 25 19 29-2 27-28 51-77 74-71 24-127 21-167-8-53-38-88-86-107-144-25-79-17-148 26-207 21-29 49-49 84-60 37-12 69-12 97 0 27 12 46 34 55 64 16 50-3 103-56 160-18 19-53 50-103 92 9 18 24 31 45 38 21 7 44 7 68-1 9-3 21-9 37-20 16-10 28-17 37-20zm-229-418c6-3 26 1 59 12 33 11 51 20 52 26 1 4 2 10 1 19-6 5-11 9-17 11-4 0-19-5-44-14-20-8-33-10-39-9l-21 35c-14 24-26 38-35 40-15 5-25 2-30-9 1-6 3-12 5-18 6-4 17-20 33-46 16-26 27-41 35-46zm527 546c67-100 85-220 53-361-13-59-29-115-48-170-2-6-6-9-9-8-2 0-9 5-20 13-11 8-21 13-28 14-11-1-18-6-21-16-5-22 19-39 72-51 3-1 3-6 1-15-15-64-20-111-17-142 6-56 37-93 93-113 12-5 24-4 34 1 10 5 16 13 18 23 4 16-9 36-37 61-22 19-35 33-38 42-10 27-13 54-7 79 5 20 14 34 28 42 3 1 11-3 23-10 12-8 20-12 23-13 9-2 15 3 17 16 2 11-6 21-24 30-27 14-42 23-46 27 0 6 8 40 23 100l23 101c46 187 34 326-34 416-15 15-31 25-49 29-13 3-25 2-37-2-12-4-20-11-22-21-3-13 7-37 30-71zm507-404c-21-118-77-180-168-186-7 0-14 0-20 1-24 4-41 17-51 39-10 22-13 43-8 63 13 54 26 94 39 120 22 42 56 71 103 85 12 4 23 4 33 3 30-5 51-22 63-52 10-23 13-48 9-74zm47-62c16 93-7 166-69 220-18 15-39 25-65 30-33 6-63 3-90-9-71-32-113-87-126-165-8-46-5-97 9-153 6-27 21-52 44-74 23-22 50-37 82-42 18-3 35-3 50 0 90 16 145 81 165 195zm209-47c0 66 3 109 9 127 17 14 36 33 56 57 2 6 3 12 3 18 0 21-12 35-35 41-6 1-12 1-17 1-20 0-37-6-51-17-13-15-20-29-20-42-3-16-5-34-5-53 0-14 1-36 4-65 3-29 4-50 4-65 0-39-7-73-21-101-1-2-10-14-26-35-10-14-15-26-15-37 0-25 15-37 45-37 13 0 24 3 33 10 7 11 19 25 35 42 20-34 54-52 102-52 24 0 45 6 64 17 19 11 28 26 28 45 0 7-1 13-3 20-7 15-20 22-38 22-9 0-17-2-24-6-27-23-47-34-59-34-47 0-71 48-71 145zm324 219c-2 23-19 33-48 30-33-4-48-21-44-53 3-33 22-48 56-45l10 2c21 10 30 32 27 66zm157 25c-5 23-22 31-52 24-32-8-45-27-38-58 7-33 28-45 61-37l10 4c20 13 26 36 18 68zm156 47c-7 22-25 28-54 18-31-11-42-32-32-62 11-32 32-42 65-31l10 5c18 15 22 38 11 70z" fill-rule="nonzero" stroke-width="35.28"/><g stroke-width="7.62"><text x="10500" y="14850" font-family="&apos;Boomerang&apos;" font-size="893.21" transform="matrix(1.40477 0 0 1-11676.6 5713.41)">Texto 01</text><path d="m4734 21678c0 9-8 17-24 22-16 5-34 8-55 8-30 0-57-4-82-12-6-2-22-9-49-22-22-11-37-16-47-18-37 32-88 48-153 48-41 0-75-8-104-25-27-15-41-33-41-52 0-26 22-52 66-79 10-6 27-13 52-23 25-9 41-16 51-21-8-15-12-29-12-42 0-19 6-35 19-49 17-18 43-27 79-27 52 0 77 13 77 39 0 17-12 34-36 49-11 7-37 20-77 39 3 13 25 40 65 80 6 6 10 9 14 9 7 0 19-8 36-25 23-23 42-38 57-47 29-17 60-25 92-25 17 0 32 2 47 7 15 5 22 11 22 18 0 12-14 18-42 18h-20c-9 0-16 0-20 0-34 0-63 9-86 29-2 2-19 17-52 47 12 10 28 20 50 27 22 8 44 12 67 12 9 0 22-1 39-4 17-2 30-4 39-4 7 0 14 3 20 8 6 5 9 10 9 13zm-266-249c0-13-10-19-30-19-20 0-36 6-47 18-9 9-14 19-14 30 0 5 1 12 3 20 4 4 8 6 12 6h4c48-24 72-42 72-54zm-15 203c-19-10-38-25-57-45-19-20-30-37-33-50-3-3-7-4-12-4-1 0-6 3-16 6-61 24-91 49-91 75 0 14 9 27 27 39 19 13 43 20 72 20 37 0 73-14 110-41z" fill-rule="nonzero"/><text x="10500" y="14850" font-family="&apos;Boomerang&apos;" font-size="893.21" transform="matrix(1.75696 0 0 1-15704.9 8055.83)">Texto 02</text></g></g><path d="m3305 7910c337-200 485-127 598-328 106-313-288-407-439-217 6-240-409-380-457-66-21 225 192 288 299 612z"/><path d="m4201 7071c265-157 381-100 470-258 84-247-227-320-346-171 5-189-322-299-360-52-17 177 151 226 235 481z"/><path d="m3661 5997c391-231 562-147 692-380 123-363-334-472-509-252 7-278-474-440-530-76-24 260 223 333 347 708"/><g stroke="#201e1e" stroke-width="7.62"><path d="m6647 22676c195-116 281-74 346-190 62-182-167-236-255-126 4-139-237-220-265-38-12 130 111 167 173 354z"/><path d="m6079 20059c196-116 281-74 347-190 62-182-167-236-255-126 4-139-237-220-265-38-12 130 112 167 174 355z"/><path d="m5958 21466c196-116 281-74 347-190 62-182-167-236-255-126 4-139-237-220-265-38-12 130 112 167 174 355z"/><path d="m5092 23855c195-116 281-74 346-190 62-182-167-236-255-126 3-139-237-220-265-38-12 130 111 167 173 354z"/><path d="m2228 22632c195-116 281-74 346-190 62-182-167-236-254-126 3-139-237-220-265-38-12 130 111 167 173 354z"/><path d="m2615 20094c196-116 281-74 347-190 62-182-167-236-255-126 4-139-237-220-265-38-12 130 112 167 174 355z"/><path d="m2768 21468c196-116 281-74 347-190 62-182-167-236-255-126 4-139-237-220-265-38-12 130 112 167 174 355z"/><path d="m3971 23807c195-116 281-74 346-190 62-182-167-236-255-126 4-139-237-220-265-38-12 130 111 167 173 354z"/><path d="m6871 19093c196-116 281-74 347-190 62-182-167-236-255-126 4-139-237-220-265-38-12 130 112 167 174 355z"/><path d="m6171 17885c196-116 281-74 347-190 62-182-167-236-255-126 4-139-237-220-265-38-12 130 112 167 174 355z"/><path d="m6805 16596c196-116 281-74 347-190 62-182-167-236-255-126 4-139-237-220-265-38-12 130 112 167 174 355z"/><path d="m1897 18945c196-116 281-74 347-190 62-182-167-236-255-126 4-139-237-220-265-38-12 130 112 167 174 355z"/><path d="m2609 17724c196-116 281-74 347-190 62-182-167-236-255-126 4-139-237-220-265-38-12 130 112 167 174 355z"/><path d="m1831 16556c196-116 281-74 347-190 62-182-167-236-255-126 4-139-237-220-265-38-12 130 112 167 174 355z"/></g><path d="m4538 13929c-10-11-8-6-17-24-17-33 25-65 77-131 17-22 96-130 120-144 15 97 19 57-38 124-37 44-126 142-143 175zm148-422c11 13-7 21-40 64l-146 186c-24 30-137 153-139 191-2 40 27 39 55 51-14 91-21 63-46 117-17 37 11 36-16 131-136 483-349 937-656 1322-26 33-45 57-74 88-77 86-3 145 49 80 15-19 30-33 44-52 217-284 362-484 517-840 77-178 148-373 203-573 46-167 8-100 87-200 34-43 202-242 228-260l15 56c91 23 80-33 65-102-9-42-5-46 15-71 15-18 34-36 48-52 13 58 26 114 38 170 5 23 12 67 23 80 20 24 53 16 68-5 35-59-76-280-49-338 12-26 45-66 71-74 39 125 59 294 87 429 12 59 52 84 87 32 15-41-67-358-76-433 82-5 35 42 129 88 54 26 127 24 178-5 90-52 145-201 51-293l57-56c2-1 4-3 6-4 56 282 564 1808 672 2146 39 121 76 234 114 352 19 59 38 119 57 179 24 72 56 111 24 172l-1019 36c18-190 45-367 51-564 6-205 5-397 0-602-4-174-59-1030-104-1132-108-28-73 70-63 152l64 698c34 473 39 981-39 1450-29 174-49 285-256 204-59-23-115-54-165-84-123-74-274 101-348 101-70 0-84-93-89-170 9-28 131-136 153-172 28-45-22-84-61-62-20 11-95 100-123 128-38 37-78 93-128 116-43 21-77-27-110-41-59-23-61 39-88 66-21-10-40-30-58-37-33-12-46 11-64 21-36-37-47-34-88-7-12-18-76-89-98-93-42-7-67 66-86 101-43 79-98 163-186 197-87 33-247 21-301-56-65-93-59-199-100-283-61-16-85 28-129 60-97 71-375 32-480-43l-17-15c16-33 35-50 56-79l348-485c340-467 638-937 877-1476l249-586c24-59 64-146 79-203 36 28 54 42 108 59-43 224 204 346 336 201 27-30 14-46 57-26-48 73-208 235-262 308-18 24-90 78-39 117 44 34 86-33 108-62 62-84 225-242 268-314zm115 101c-6-45-22-64 1-94l41-48c8-8 5-5 13-11l15 76-49 64c-16 15-3 5-20 15zm139-274c21 23 8 7 20 44 4 13 10 25 13 33l-30 36c-14-60-25-64-4-113zm329-324c57 38 61-13 125-16 162-8 183 231 26 252 28-174-212-239-279-84-76 175 181 291 260 130 32 25 73 48 81 106 16 111-103 184-189 132-50-30-44-66-77-99-66-7-36 19-117-7-52-17-10 5-44-30-21-22-22-7-34-40-43-123 96-165 101-179 2-46-12-24-16-75 85-1 131-38 163-89zm-951-183c3 82 27 110 61 153-120 98-66 292 89 300 119 6 250-133 125-284 12-18 41-48 58-60 15 21 26 32 53 43-17 71-28 120 8 183 57 100 95 42 105 117 10 73-41 113-102 117-36 3-59 13-90-5-32-18-33-43-74-28-35 32-14 64-74 96-40 22-87 26-128 5-127-64-43-185-55-234-36-11-177-20-172-160 5-144 162-139 189-146l6-97zm469 117c-29-19-52-15-79-45-59-66-20-206 133-148-24 42-67 71-49 151 37 171 325 163 281-89 54 16 94 2 126 38 54 60 21 177-75 180-63 2-63-43-115-21-23 58 9 88-43 142-56 59-197 41-210-72-9-76 40-82 31-138zm559-475c21-44 18-71 62-99 73-46 183 21 151 124-15 47-31 37-49 69l-10 21c0-1-1 4-2 6-44-177-340-112-285 87 45 164 316 155 290-86 30 19 157 42 136 156-24 132-162 88-176 96-25 31-49 94-119 64-76-33-31-105-55-130-40-27-31 9-74 2-6-1-58-23-64-28l-14-107c108-62 25-57 5-119-28-88 69-140 128-93 29 23 25 49 75 38zm-459 263c-10-171 275-138 173 65-23-53-96-89-173-65m760 134c37-34 62-78 62-138 0-94-49-129-101-171 4-15 8-20 13-38 67 1 119 27 153 60 37 36 68 62 62 140-8 113-109 185-232 181l42-35zm-748-379c103 16 95 10 176-31-5 62 8 74 9 111-30 10-34-3-63-9-57-14-99 26-123-71zm-399-255c149-42 182 119 196 137 61 7 104-11 130 39 36 69-18 83-12 139 26 21 32 15 55 46-9 31-28 32-40 77l-66-5c36-189-158-315-294-198-51 44-73 138-38 216 47 105 114 100 180 113 2 5 3 0 4 20 2 42-42 160-156 127-35-10-65-43-70-85-9-64 43-86 4-115-12-11-204 2-179-164 22-144 182-89 199-125 9-19-57-183 87-224zm136-54c7-47 46-85 102-82 62 2 63 49 110 66-24 37-43 42-60 97-13 41-2 24-14 41l-39-1c-21-64-53-81-99-120zm244-33c9-62 49-118 120-108 94 13 75 107 99 131 33 32 99-61 171 19 51 57 28 112-5 161-85-5-72-6-137 28 44-166-95-304-248-232zm-324 13c-16-30 121-297 133-320 72 42 74 94 217 146-17 19-24 16-41 33-15 15-14 23-31 42-74-29-155-62-234 38-35 45-7 48-44 62zm447-191c64-30 103-77 162-103l64 223-85 6c-18-73-66-103-141-126m-229-414c62 8 96 23 168 25 87 2 137-12 155-12 12 0 9 0 16 3l26 201c-53 24-141 126-211 124-61-2-152-112-202-139l48-202m-629 1056c-55-67-104-240-112-350-10-137 19-277 71-384 58-119 123-193 202-263 44-38 77-67 128-100l135-90c22 15 35 35 58 52 25 19 37 23 61 43l-45 193c-26 95-98 33-125 259-4 37-71 198-90 220-55 62-100 74-91 213-115 9-185 88-192 207m1054-1077c51-32 96-49 121-98 126 30 343 239 421 385 51 95 78 185 94 305 10 76 15 288-32 362-71-32-76-48-174-57-27-110-120-162-242-127-15-25-45-143-57-185-25-87-11-127-27-210-17-83-67-109-77-167-11-68-16-142-28-208zm-81-484c1 43 1 85 2 128 0 41 12 82-9 105-80 90-302 67-338-29-9-23 19-168 25-208 117 5 197 10 320 4m-1377-752c-30 16-34 20-64-8-13-12-34-32-40-57-11-46 14-110 59-128 7 40 48 178 45 192zm2483-29c4-19 42-175 57-192 39 46 99 114 11 187-30 25-33 11-68 5m-1812-993c28-49 68-101 102-153l97-148c1-2 3-3 4-4 30 14 53 33 84 49 176 93 298 132 503 156 51 6 75-6 113 19 28 19 54 38 85 50-10 7-4 4-19 10-8 3-5 2-12 4-45 10-187-11-138 94 49 13 182-10 252-8 46 2 81 7 125 12 51 6 55-5 69-33l11-20c43 16 172 105 217 136 37 25 72 45 113 63 50 23 82 11 104 64 77 185 99 383 43 585-195 703-1136 1014-1817 656-163-86-293-193-383-316-13-18-29-32-35-54-7-27-4-44-16-72-21-48-55-48-75-94-27-63-63-204-63-286 51-48 111-92 156-139 53-54 92-103 142-152 53-51 88-103 137-158l125-161c47-21 175-24 236-23 71 0 176 27 229 4 23-82-24-84-149-91-83-4-164 7-238 5zm230-399c87-2 66 0 133 22 64 21 84-13 123-11 34 2 66 29 125 29 58-1 79-27 126-20 59 8 86 8 127-22 81-60 33-8 108-31 56-18 17-51 92-62 60-9 63-24 103-43 129 51 151 184 210 223 90 59 173 120 253 181 43 33 195 173 144 279-47 99-335-120-417-172-91-58-73-21-183-26-139-6-203-124-299-129-198-11-514-89-644-215zm-880 1001c-17-264 89-544 191-731 88-161 267-391 495-420 20 77 55 111 126 140l-181 275c-134 199-336 468-514 628-37 33-77 86-117 109zm1166-1296c-71 40-83 58-173 18-59-27-107-67-57-143 56-86 56-76 136-19 43 30 79 70 94 145zm-2587 5768c12-57 46-141 65-199 22-65 43-128 63-195 40-129 79-261 116-394 184-661 443-1909 487-2585 40-609 90-1245 285-1768 121-325 339-763 724-808 237-28 278 67 373 118-17 56-21 49-23 120-107 14-192 64-273 124l-71 61c-175 165-312 439-372 690-61 254-35 265-32 484-36 34-59 35-87 77-126 188 12 265 67 316-29 178 106 258 229 158 48 60 108 137 170 174-3 128-60 341-100 453-24 67-52 130-88 185-71 109-106 109-93 172 71 47 116-50 151-99 125-177 175-419 212-638 45 24 94 58 142 85-26 379-227 525-142 564 53 24 78-54 96-91 21-41 41-81 58-126 41-103 58-179 72-300 33 2 208 88 343 102l-8 62c-77 4-125 32-159 75-47 59-33 110-16 184-96 40-313 216-363 277-233 280-295 623-131 965 36 75 73 134 119 199 59 84-47 136-75 195-31 65-10 86-21 142-10 50-301 733-325 790-49 117-353 739-439 837-146-41-247-195-317-315-98-167-74-146-36-214 181-322 355-731 467-1099 144-473 279-1073 301-1586 5-122 24-513-17-596-56-15-78 4-73 67 24 334 2 655-43 986-46 340-124 678-216 990-90 302-201 610-328 877-34 72-177 365-214 390-20 13-184 70-219 82-100 34-152 36-256 12zm4765 7c-141 30-141 49-324 45-389-10-307-191-402-129-23 15-57 52-105 87-60 42-152 112-227 142-164-501-331-1017-469-1533 188 18 365-120 320-313-14-62-38-56-15-119 76-208 56-500-33-694-69-149-162-267-287-361-43-32-147-110-200-125 8-160-20-197-155-233l-3-88c90-11 174-40 254-64l53 333c6 41 10 80 57 71 78-15-18-291-22-436l156-81c-14 49 123 661 141 700 106 27 70-67 55-137-15-69-30-138-44-207-15-70-29-138-44-207-36-165-15-133-79-170 118-59 341-266 392-384 21 15 59 83 138 45 45-22 64-76 57-149 135-54 155-286-35-371 3-193-24-293-83-450 41-47 80-55 82-156 1-75-33-130-64-176-95-141-353-280-386-320-35-41-71-133-161-193-23-15-57-26-72-46-49-65-9-50-105-137 132-252 392-188 568 83 235 362 386 1058 429 1508 14 152 12 314 20 468 8 157 13 316 19 473 22 578 68 1226 176 1775 80 407 369 1283 402 1548zm-2120-5885c14-11 21-24 36-42 14-16 20-24 36-38 128-110 217 80 230 148 25 128-70 131-164 100-110-37-109-62-138-168m-51-71c-116-79-196-166-299-15-36 53-25 43-83 57-65 16-43 4-107-42-27-19-45-31-78-47-240-122-559-9-731 182-207 230-331 505-426 821-125 414-171 856-204 1292l-36 468c-2 69-14 154-23 222-10 69-23 149-34 218-74 450-143 814-236 1259-99 471-230 918-377 1369-14 43-59 148-59 192 0 47 144 82 197 82 111 0 201-42 296-77 29-10 67-23 90-34 58 88 95 193 167 283 34 43 65 77 108 113 33 27 98 76 141 87-10 44-210 333-254 395l-274 382c-37 54-329 436-325 463 24 45 40 52 85 77 132 74 362 129 516 75 38-13 52-30 84-48 8 99 64 219 145 276 56 40 140 51 213 51 206 0 301-144 372-282 31 21 71 82 117 82 19 0 17-11 37-11 11 0 27 8 37 8 40 2 29-34 73-7 25 16 43 30 73 19 27-10 43-33 50-61 105 25 41 77 197-7 0 61 17 98 46 132 102 121 201 35 271-3 28-15 122-61 153-49 60 21 346 237 486 46 33-45 37-108 59-155l394-7c32-2 35-7 73-8 51-1 119 5 167-1l315-14c70 1 90 7 135-26 99-75 33-195-1-296-52-158-404-1239-404-1267l162-102c28-19 51-34 78-54l74-58c51 12 74 71 289 107 114 19 240 12 357-15 39-9 67-20 99-33 37-14 67-21 62-70-20-175-179-699-225-855-141-482-217-829-275-1338-9-78-13-161-24-242-23-163-17-338-39-503l-31-636c0-55-3-90-7-134-3-42 1-91 0-134l-14-253c-4-46 4-93-2-139l-67-474c-68-387-192-865-428-1190-59-81-195-209-327-209-125 0-221 22-295 123-80 109-26 49-114 70-22-98-174-256-324-152-27 19-83 68-92 100zm-809 208c37-52-30-104-73-51-466 576-631 1277-722 2027-27 224-37 449-61 674-23 219-52 434-85 650-69 464-151 782-243 1223-16 77 48 88 74 53 15-21 31-116 38-147 167-711 297-1502 340-2230 12-206 53-447 87-647 63-372 178-786 354-1110 142-261 146-241 290-441zm158 1258c-24 123 135 362 246 455 456 383 1242 85 1252-525 2-135-77-74-81-68-6 10-11 132-16 162-91 535-954 749-1259 158-69-133-51-241-142-182m1057-368c-37 6-74 5-87 36-38 100 146 34 256 55 153 30 127-138-170-91zm-657 48c-54-24-418-54-328 60 24 31 144 5 193 7 75 3 162 42 135-67m487 260c22-80-26-76-96-76-45 0-151-13-173 17-15 21-8 48 8 60 25 19 227 16 261-1"/><g font-family="&apos;Arial Black&apos;" font-weight="900" font-size="524.49"><text x="10500" y="14850" transform="matrix(.98299 0 0 1-6660 3369.77)">NN 1</text><text x="10500" y="14850" transform="matrix(.98299 0 0 1-6685.56 3881.97)">NN 2</text></g></g><g fill="#373435" font-family="&apos;Arial&apos;" font-weight="normal" font-size="423.33"><text x="2364" y="27908">DESC 1</text><text x="2368" y="28332">DESC 2</text><text x="2368" y="28734">DESC 3</text></g></svg>