<svg xmlns="http://www.w3.org/2000/svg" width="744.09" height="1052.36" viewBox="0 0 21000 29700" shape-rendering="geometricPrecision" image-rendering="optimizeQuality" fill-rule="evenodd" text-rendering="geometricPrecision" clip-rule="evenodd"><text x="10081" y="24465" fill="#201e1e" font-family="&apos;Arial Black&apos;" stroke="#201e1e" font-weight="900" stroke-width="7.62" font-size="705.56">36</text><g fill="none" stroke="#373435" stroke-width="80"><circle cx="10533" cy="1326" r="460"/><path d="m10533 515v1621"/><path d="m9723 1326h1621"/><circle cx="10533" cy="25836" r="460"/><path d="m10533 25026v1621"/><path d="m9723 25836h1621"/></g><g fill="#fff"><rect x="9843" y="22866" width="1347" height="637" rx="318" stroke="#fff" stroke-width="20"/><path d="m14447 25329c1191 595 3453 480 4140-621 685-1098 530-4211 595-5737 163-3822 574-6721 680-9803 118-3423-2148-5686-4858-6324-3823-899-3597 4369-3066 7076 279 1454 829 2720 1180 4143 648 2623 61 6627 286 9357 116 944 421 1570 1043 1909"/></g><g fill="#201e1e"><g stroke="#201e1e"><path d="m11723 5675c653-683 2125-276 1710 980-377 690-850 605-1772 1021 4 85 9 169 15 253 1132-492 1714-394 2179-1218 513-1503-1303-1991-2112-1178-7 47-14 94-20 142z" stroke-width="7.62"/><path d="m13477 3655c11 22 2 41-26 55-31 16-53 9-68-21-16-32-8-56 24-73l10-4c24-3 44 11 60 43zm154-67c8 23-3 40-32 52-32 12-54 2-65-30-12-34-1-57 32-70l11-3c24 0 42 17 54 50zm152-55c6 24-7 40-37 48-33 9-54-4-62-37-8-35 5-57 39-66l11-2c24 2 40 21 49 56zm154-222c6 91 37 138 95 139 8 0 17-1 25-3 63-17 95-62 96-135 1-31-5-73-15-126-4-19-14-36-30-51-16-15-36-23-57-23-14 0-27 3-39 10-49 26-75 74-76 146 0 4 1 19 2 45zm-81-10c9-115 49-192 120-231 18-10 38-15 60-14 36 1 81 19 134 55 5 4 16-7 32-33 24-10 38-15 42-15 4 0 8 1 12 3 18 11 26 23 26 36 0 9-10 27-28 54-19 27-29 45-30 55-12 100-19 179-20 239-1 67 3 130 12 191 2 13 9 30 23 50 14 23 23 40 26 50 0 27-16 41-47 40-55-1-81-53-80-156l2-141c-33 37-73 55-122 54-24 0-46-6-65-15-74-36-107-111-97-223zm825-3c-10 65-9 117 3 156 2 5 9 16 22 33 13 17 20 28 19 34-3 31-20 44-54 41-20-2-35-13-46-32l-20-38-57 39c-21 11-44 16-70 13-84-8-122-65-113-171 1-14 4-36 9-64 4-28 7-50 9-64 3-33 1-62-5-88-3-5-9-13-18-22-9-9-15-17-18-22-1-9-2-16-1-23 2-26 18-37 48-34 29 3 47 14 55 35 15 38 17 86 8 147-11 76-15 126-12 148 6 56 29 85 70 89 60 5 96-44 110-147-3 19 0-17 8-109-1-9-10-27-25-55-15-28-23-44-23-48 1-16 11-27 30-35 17-3 32-1 45 4 35 15 48 61 37 138l-11 77zm287 94c42-9 74-28 97-56 2-6 4-11 5-16 9-36-7-60-46-70-29-8-55-5-78 9-38 30-61 60-68 89-4 18-1 34 9 49 2 3 6 5 10 6 5 1 29-2 70-11zm78 170c18 5 31 14 38 27 3 22 4 34 1 37-16 23-52 30-108 22-76-20-123-54-143-103-26-65-31-129-16-192 21-86 65-144 135-172 34-14 70-16 106-7 39 10 68 29 85 56 17 27 22 57 14 90-13 54-58 91-136 112-26 7-73 15-141 24-2 22 5 42 19 60 15 19 35 31 60 38 9 2 24 4 43 3 20 0 34 1 43 3zm269-96c-22 67-33 110-33 131 12 20 24 45 36 77 0 7-1 14-3 19-7 21-23 31-48 29-6-1-12-3-17-5-20-7-35-19-45-35-8-20-9-36-5-49 2-17 7-36 13-55 5-15 13-36 25-64 12-28 20-50 25-64 13-40 17-76 13-109 0-3-5-18-14-44-5-17-6-32-2-43 8-25 27-32 57-22 13 5 23 12 29 21 3 14 10 32 20 55 31-28 70-33 118-16 24 9 43 22 57 39 15 18 19 36 12 55-2 7-5 13-9 19-12 12-27 16-44 9-9-3-16-8-22-15-19-33-34-51-46-55-46-17-86 24-118 121zm490 261c42-120 23-208-56-263-6-4-12-7-18-10-23-9-45-6-65 9-20 15-33 33-40 54-15 57-24 101-26 132-2 51 14 96 50 135 9 10 18 16 28 20 29 11 57 7 83-13 21-16 36-37 45-63zm74-32c-33 95-91 150-174 166-24 5-48 2-74-8-32-12-58-32-76-58-47-68-57-142-29-221 16-47 45-92 86-136 20-22 46-36 78-45 32-8 64-6 95 6 18 7 33 16 46 27 73 64 89 154 49 269zm452 379c12-35 2-81-31-138-3-4-35-48-95-134-19-37-20-72-4-106 17-35 49-53 95-54 40-1 83 11 127 34 88 47 119 88 91 122-11 13-30 16-57 7-15-8-34-23-58-44-24-22-43-36-56-44-43-23-73-19-88 12-10 21-4 48 20 82l57 82c64 92 82 167 54 224-13 27-36 48-67 62-83 36-179 27-289-27-27-14-51-32-71-56-15-17-13-36 4-55 11-12 27-13 50-1 12 6 29 17 52 30 22 14 40 24 52 30 39 21 76 31 110 30 57-1 92-20 105-56zm296-18c43 3 79-7 108-28 4-5 7-9 9-14 17-33 8-60-27-80-26-15-52-19-77-13-45 19-74 42-88 68-9 16-10 33-3 49 2 4 4 7 8 9 5 3 28 5 71 8zm33 185c17 10 27 22 30 36-2 22-5 34-8 36-21 18-58 15-110-8-68-39-106-86-112-138-9-69 2-133 32-189 41-78 99-121 173-130 37-4 72 3 104 22 36 21 58 46 68 77 10 31 7 61-9 91-26 49-79 72-160 72-27 0-75-5-142-15-7 20-6 41 4 64 9 22 26 40 49 53 8 5 22 10 41 15 19 5 33 10 41 15zm284 2c-38 58-59 98-65 118 7 23 12 50 15 84-2 7-5 13-8 18-12 18-30 24-53 15-6-3-11-6-15-9-17-12-29-27-34-46-3-21 0-38 7-49 7-16 15-32 26-49 8-13 22-31 40-55 19-24 32-42 40-55 22-35 36-69 39-102 1-3 0-18-2-46-1-18 2-32 8-42 14-22 34-24 60-6 11 8 19 17 23 29 0 14 2 34 6 58 37-18 76-13 118 16 21 15 36 32 46 53 10 21 9 40-2 57-4 6-8 11-14 16-15 9-30 8-45-3-8-5-13-12-17-20-10-37-20-59-31-66-41-29-88 0-144 85zm484 594c20-31 21-78 2-142-2-4-22-56-61-154-10-41-3-75 21-104 25-30 60-39 104-28 39 9 78 31 115 65 75 68 95 115 60 141-14 10-33 8-57-8-12-11-28-31-46-58-18-27-33-46-45-57-37-33-66-37-88-10-14 17-15 46 0 85l36 94c40 106 40 183 0 231-19 23-46 38-80 43-89 14-180-19-274-99-23-20-42-44-56-73-10-21-5-38 17-53 13-9 29-6 48 12 10 9 25 24 43 43 19 19 33 33 43 43 33 30 66 49 100 57 55 13 94 4 115-28zm297 71c41 14 77 15 111 2 5-4 9-7 12-11 25-27 23-55-6-85-22-22-46-33-72-33-48 6-82 20-102 42-12 14-18 29-15 47 1 4 2 8 5 11 4 4 26 13 66 27zm-14 188c14 14 20 28 20 43-8 21-13 32-17 33-25 11-60-1-104-37-56-56-81-111-74-164 9-69 35-128 78-174 59-64 125-90 199-79 37 6 68 23 95 50 29 29 45 60 47 93 2 32-8 61-31 85-37 40-94 49-172 26-26-8-71-25-134-53-12 18-16 38-12 62 4 24 15 45 34 64 7 7 19 15 36 25 17 10 29 19 36 25zm435 237c-50 41-83 79-100 116-2 5-4 18-5 40-1 22-4 34-8 38-22 21-44 18-66-8-13-15-17-34-12-56l10-42-67-12c-23-7-43-20-60-40-56-65-47-134 30-206 10-10 26-23 48-41 22-18 38-31 48-41 24-22 42-45 54-68 2-6 2-15 2-29-1-13 0-23 2-29 5-7 9-13 14-18 18-17 37-14 58 9 20 23 25 44 18 65-14 38-44 76-90 113-58 48-93 81-106 100-32 45-34 83-7 115 40 46 99 37 177-29-15 12 11-12 77-74 5-7 11-27 18-58 7-31 12-49 15-51 11-10 26-12 44-4 14 10 24 22 30 35 16 36-5 79-63 128l-59 49zm391 574c30-20 54-46 74-79 25-42 27-79 6-113-7-11-15-21-26-30-33-27-82-24-147 11-19 10-32 17-38 22-67 45-89 98-69 158 4 11 7 19 11 24 20 32 52 46 96 41 34-3 65-15 93-34zm36 71c-46 35-95 52-147 53-65 0-116-29-152-87-21-34-26-70-14-109-20 5-45 17-75 37-34 23-57 37-72 43-19 8-48 15-86 21-20 1-39-13-56-40-4-6-8-14-13-23-5-20-1-34 13-44 13-9 29-10 47-3 25 10 40 15 44 15 24 1 49-8 75-26 88-44 189-111 305-201 13-10 24-28 34-52 12-31 21-51 27-59 12-17 25-18 41-2 9 7 17 15 23 25 6 10 10 19 10 28-2 18-8 40-18 65 15 4 39 13 70 28 5 3 14 16 28 38 36 56 41 114 15 173-19 44-52 84-99 120zm-51 272c13 24 32 43 58 57 26 14 49 20 70 16 12-2 27-9 44-22 19-13 32-22 41-25 2-2 3-7 3-13-32-34-58-58-76-74-55-47-97-61-126-45-16 9-25 24-27 44-2 20 2 40 13 61zm83-168c5 4 21 15 48 32 11 7 34 30 69 69 40 45 74 59 101 44 38-22 44-58 18-108-11-22-29-38-51-48-17-7-29-14-34-21-19-22-24-42-13-59 11-19 29-25 54-18 35 13 66 43 91 91 13 25 23 51 30 78 8 46 3 79-15 98-28 30-64 59-107 88-73 48-109 73-109 74-7 4-17 19-29 44-12 25-20 40-25 43-11 6-25 6-42-2-8-5-16-14-22-26-14-27-17-48-10-63 12-24 18-37 18-40-54-22-95-61-124-115-25-48-27-90-7-127 10-18 23-32 39-41 38-22 78-19 120 8zm284 471c-62 28-101 48-116 62-6 23-16 49-31 79-5 5-10 8-16 11-20 9-37 3-53-17-3-6-6-11-8-16-8-20-10-39-5-58 9-19 20-32 32-37 14-10 30-19 48-27 14-6 34-14 63-23 28-10 49-17 63-23 37-16 66-37 86-63 2-2 9-15 22-40 9-16 18-26 29-31 23-10 41-1 53 30 5 13 7 25 4 37-8 12-16 29-26 52 41 6 71 33 90 81 10 24 13 48 10 71-3 23-13 39-31 46-6 3-13 5-20 5-17-1-29-10-36-28-4-9-5-18-4-27 11-37 13-61 9-73-19-47-74-51-165-10zm594 227c-46 21-92 40-139 58-141 53-286 95-435 124-6 2-10-2-12-13-2-9-1-16 5-20 27-12 99-46 216-103 85-40 158-72 218-95 44-17 83-29 117-38 17-4 29 6 38 29 3 8 5 18 7 28l-1 9c0 2-5 9-14 19zm-641 249c-32 12-54 3-64-27-12-34-1-58 34-71 29-11 49-1 60 30 12 33 2 56-30 68z" fill-rule="nonzero" stroke-width="35.28"/><g stroke-width="7.62"><path d="m17236 8487c-349-212-501-135-618-348-110-333 298-432 454-231-6-254 423-403 473-70 22 238-199 305-309 649z"/><path d="m16310 7597c-274-167-394-106-486-274-86-262 235-340 357-181-5-200 333-317 372-55 17 187-156 240-243 510z"/><path d="m16868 6458c-404-245-581-156-716-403-127-385 345-501 526-267-7-295 490-467 548-81 25 276-230 354-358 752z"/><path d="m18475 24164c202-123 290-78 358-202 64-193-173-250-263-134 4-147-245-233-274-41-13 138 115 177 179 376z"/><path d="m17888 21387c202-123 291-78 359-202 64-193-173-251-264-134 4-148-245-234-274-41-13 138 115 177 179 377z"/><path d="m17764 22880c202-123 291-78 359-202 64-193-173-251-264-134 4-148-245-234-274-41-13 138 115 177 179 376z"/><path d="m16868 25415c202-123 290-78 358-202 64-193-173-250-263-134 4-147-245-233-274-41-13 138 115 177 179 376z"/><path d="m18707 20362c202-123 291-78 359-202 64-193-173-251-264-134 4-148-245-234-274-41-13 138 115 177 179 377z"/><path d="m17984 19081c202-123 291-78 359-202 64-193-173-251-264-134 4-148-245-234-274-41-13 138 115 177 179 377z"/><path d="m18639 17714c202-123 291-78 359-202 64-193-173-251-264-134 4-148-245-234-274-41-13 138 115 177 179 377z"/><path d="m14051 24117c202-123 290-78 358-202 64-193-173-250-263-134 4-147-245-233-274-41-13 138 115 177 179 376z"/><path d="m14451 21424c202-123 291-78 359-202 64-193-173-251-264-134 4-148-245-234-274-41-13 138 115 177 179 377z"/><path d="m14609 22883c202-123 291-78 359-202 64-193-173-251-264-134 4-148-245-234-274-41-13 138 115 177 179 376z"/><path d="m15853 25364c202-123 290-78 358-202 64-193-173-250-263-134 4-147-245-233-274-41-13 138 115 177 179 376z"/><path d="m13709 20206c202-123 291-78 359-202 64-193-173-251-264-134 4-148-245-234-274-41-13 138 115 177 179 377z"/><path d="m14445 18910c202-123 291-78 359-202 64-193-173-251-264-134 4-148-245-234-274-41-13 138 115 177 179 377z"/><path d="m13640 17671c202-123 291-78 359-202 64-193-173-251-264-134 4-148-245-234-274-41-13 138 115 177 179 377z"/></g></g><path d="m16388 17035c-1-42-5-119 7-156l519-4c21 4 95 42 123 55 96 44 439 192 371 314-38 68-161 94-267 89-165-8-388-94-531-171l-223-127zm151-8274h18l278 23c555 81 1117 414 1117 1074 0 119-30 223-51 320 194 0 301 233 156 384-112 117-144 20-161 122-35 219-174 422-338 546-73 55-149 98-231 140-34 17-140 63-178 66 13 18 19 15 41 26 41 19 70 43 106 72 132 110 178 344 205 517 22 138 46 279 73 419 106 545 203 1103 290 1655 11 68 25 141 36 207 19 120 72 242-21 250 58 52 131 148 131 259 0 120-33 230-116 298-87 73-177 105-293 105-307 0-484-383-286-611 14-16 19-18 31-36-58 0-104 12-117-38h-80c0 49 7 120 13 162l112 1407c7 94 15 217 27 307 7 54 5 102 10 157 31 309 59 283-169 283 1 1 4 2 5 3l54 28c19 10 40 20 58 31 36 22 68 42 104 67 245 171 147 370-80 415-112 22-259 2-362-30-307-94-563-266-574-269-30 21-53 42-87 61-222 119-794 336-998 158-146-128-21-267 103-345 33-21 60-36 94-54l88-45c1-2 3-2 5-3-43 0-102 6-102-38 0-174 79-768 88-983 5-130 29-356 46-493 28-230 52-564 77-811 8-84 31-108-50-106-32 1-60-2-82-6-53-8-22 0-57-25 0-87 20-179 29-260 5-47 11-81 16-128 5-44 14-80 14-130-46-11-140-77-176-106-184-144-232-366-232-603 0-111 34-207 58-312 58-248 128-498 205-738l75-242c73-232 157-442 421-506-10-9-11-10-27-18-94-44-178-92-262-153l-124-107c-16-14-20-25-34-41-73-83-134-170-179-278-35-85-68-237-69-240-10-24 3-10-24-21-66-26-108-42-154-106-103-141-6-336 172-340-26-56-15-164-15-229 0-329 207-648 447-814 191-132 429-238 657-274l217-17c24-1 33-6 54-8zm-244 8281c-101 61-74 63-221 120-159 61-358 135-531 148-74 5-232 1-255-88-34-129 489-335 511-337l504-5-8 162m174-2529l588 41c9 85 185 2177 176 2225l-839 5 75-2272zm1108 71c172-28 317 92 342 237 30 176-105 304-248 327-387 62-499-499-94-564m-1821-116l624 39c7 70-5 209-8 287-12 294-55 1969-71 1986-34 20-662 13-761 14l216-2326m747-723c160-16 298 102 311 249 15 166-118 288-264 299-383 27-429-510-48-547zm20-184c-22-18-26-36-26-70 0-32 5-47 15-68 38 29 24 96 11 138m-34-380c-27-54-49-164 12-198 21 21 31 61 30 106-1 52-9 81-43 93zm510-896l216 2183-1646-104c-9-52 41-327 46-408 75 24 172 70 248 101 82 34 164 68 246 101 81 33 77 19 108 70 65 106 220 172 362 154 435-55 430-694-25-728l23-20c8-8 7-5 14-16 63-90 36-290-77-289-69 1-101 73-104 148-5 111 39 139 74 176-44 14-61-7-96-29l-247-154c-116-77-216-155-298-245-92-100-19-317 9-455 29-146 72-311 92-454 22 12 23 18 40 38 132 155 293 316 419 469 22 26 41 46 63 76-131 47-118 375 34 374 77 0 115-93 121-171 3-43-3-87-18-122-14-34-23-50-44-68-2-1-7-6-8-7l-8-7 457-613zm-1140-240c47-11 287-44 330-12 75 55 52 58 63 163 23 224 81 298 138 462-37-28-39-47-72-82l-459-531m774 548c44-134 71-247 87-402 7-66-3-57 37-90 71-58 57-40 223-10l44 16c-37 27-71 79-103 120l-288 366m-134 74c-51-61-126-288-145-387-32-168-22-322-7-493 46 22 81 59 141 72 54 11 111-39 161-54 0 164-7 329-31 487-16 101-68 317-119 376zm395-689c25-35 61-61 89-91l137-130c41-41 84-65 122-126l12-17c24 44 55 74 80 138 67 168 83 354 115 535l323 1833c18 105 55 268 60 367l-522 12c-34-422-88-845-126-1266l-95-952c-8-78-24-89 20-140 28-32 49-54 36-108-68-27-174-32-251-55m-741 2098c-50-13-120-47-170-68-260-108-633-215-726-476-38-106-65-323-38-439 90-379 203-781 323-1148 19-57 39-127 61-180 25-59 67-104 90-151l10 10c92 97 207 178 310 267l44 44c-63 4-314 8-336 45-27 46 40 90 61 114 123 143 98 100 67 254l-99 484c-21 108-61 235-30 348 28 104 109 155 168 212 44 42 163 130 216 163 79 49 154 98 233 145-74 61-88 55-142 144-37 60-52 150-41 232zm148-2496c14-21 56-54 90-59 25-4 97 5 130 5 140 1 148-29 205 77-17 42-55 72-96 99-24 16-97 63-130 60-70-5-175-122-199-182m476-68c40-4 78-9 117-16 96-17 66-26 166 62 24 21 45 41 70 56-11 29 0 13-24 35l-369 346c-4-43 1-103 2-149 0-60-11-99 20-134 95-107 70-107 19-200zm-951 98c27-27 56-50 90-76 136-108 76-90 203-61l125 30c-89 95-12 102 18 187 9 26-11 227-17 268l-419-349zm294-2329c59 41 104 77 187 107 74 27 151 46 235 59 455 70 923-69 1181 572 81 201 113 231 104 494-6 173-65 341-144 451-180 248-437 373-742 429-719 132-1415-107-1620-656-27-73-50-161-55-247-3-53-6-246 12-284l162-136c53-44 105-90 158-132l153-145c130-138 218-258 317-423 17-29 29-64 51-89zm1785 991c182 30 163 227 13 269l-13-269m-2730 184c-151-56-182-238 11-262-2 41-9 84-11 128-1 44 5 90 0 134m91-364c-41-183-2-406 66-553 79-168 158-269 274-362 254-204 600-318 936-319 316-1 736 90 968 287 112 95 211 194 279 356 67 160 93 364 48 552-71-105-106-329-343-495-371-260-743-117-1123-244-85-28-122-49-184-97-58-44-79-130-140 2-61 131-137 241-214 341-141 181-254 279-414 413l-152 121zm499 75c-48 103 161 657 814 671 432 9 747-198 880-634 29-94-41-92-62-73-30 28-40 189-194 377-46 57-134 120-220 159-344 158-855 90-1066-278-95-165-49-248-152-222m905-349c-42-279 317-313 321-20-60-22-73-68-179-56-82 10-100 53-142 75zm113-291c-311 73-190 579 97 508 301-74 183-573-97-508m-731 303c-40-322 304-317 318-55-77-28-146-82-258-1-42 30-38 40-60 56m110-311c-308 73-191 579 97 508 302-75 184-574-97-508m521 713c34-81-24-85-98-85-41 0-152 4-179 25-20 16-24 53-1 71 22 17 57 6 86 2 58-8 149 0 192-14z"/><g stroke="#201e1e" stroke-width="7.62"><g font-family="&apos;Boomerang&apos;" font-size="947.66"><text x="10500" y="14850" transform="matrix(1.36897 0 0 1 451.87 7072.4)">Texto 01</text><text x="10500" y="14850" transform="matrix(1.71218 0 0 1-3493.39 9557.65)">Texto 02</text></g><path d="m16597 23105c0 10-8 18-25 23-16 6-35 8-57 8-31 0-59-4-85-13-6-2-23-10-50-24-22-11-39-17-49-19-38 34-91 51-159 51-42 0-78-9-107-26-28-16-43-35-43-55 0-27 23-55 68-83 10-6 28-14 54-24 25-10 43-17 52-23-9-16-13-31-13-45 0-20 6-38 19-52 17-19 44-29 81-29 53 0 80 14 80 41 0 18-12 36-37 52-11 7-38 21-80 42 3 14 26 42 67 85 6 6 11 9 14 9 7 0 19-9 37-27 24-24 44-41 59-50 30-18 62-27 95-27 17 0 34 3 49 8 15 5 23 12 23 20 0 13-15 19-44 19h-21c-9 0-16 0-21 0-35 0-65 10-89 30-2 2-20 18-54 50 12 11 29 21 52 29 22 8 46 12 70 12 9 0 23-1 41-4 18-2 31-4 41-4 8 0 15 3 21 8 6 5 9 10 9 14zm-275-264c0-14-10-21-31-21-21 0-37 6-49 19-9 10-14 20-14 32 0 5 1 12 3 21 4 4 9 6 13 6h4c50-26 75-45 75-57zm-15 215c-20-11-39-27-59-48-19-21-31-39-34-54-3-3-8-4-13-4-1 0-6 3-17 7-63 25-94 52-94 80 0 15 9 29 28 42 20 14 45 21 75 21 38 0 76-15 114-44z" fill-rule="nonzero"/></g><g font-family="&apos;Arial Black&apos;" font-weight="900" font-size="556.46"><text x="10500" y="14850" transform="matrix(.95794 0 0 1 5678.19 4801.53)">NN 1</text><text x="10500" y="14850" transform="matrix(.95794 0 0 1 5651.76 5344.96)">NN 2</text></g></g><path d="m6671 25329c-1190 595-3451 480-4137-621-684-1098-529-4211-594-5737-162-3822-573-6721-680-9803-118-3423 2147-5686 4854-6324 3820-899 3594 4369 3063 7076-278 1454-828 2720-1179 4143-647 2623-61 6627-286 9357-115 944-421 1570-1042 1909z" fill="#fff"/><g fill="#201e1e"><g stroke="#201e1e"><path d="m7723 5479c146-977 1127-894 1598-372-18-85-38-170-60-252-583-625-1794-723-1975 447-106 1117 962 1431 1496 3042 246-145 472-261 680-356 6-88 12-177 17-266-167 79-349 176-546 296-432-1344-1295-1607-1209-2539z" stroke-width="7.62"/><path d="m2040 6474c40 16 68 42 82 78 7 18 14 54 21 107 5 45 15 78 28 98 3 6 14 15 32 26 18 11 30 20 35 27 10 15 11 34 2 58-7 18-18 31-34 38-16 7-31 8-45 3-34-14-54-49-59-107-2-28-7-81-14-160-6-58-26-94-62-108-58-23-121 39-188 187-6 13-49 114-130 304-19 34-41 46-67 36-22-9-31-26-28-51 2-14 9-39 22-75 20-55 48-111 84-168l98-157c76-120 150-166 223-137zm173 496c11 5 29 12 52 23 23 10 40 18 52 23 81 32 129 53 145 63 65 40 88 86 69 137-14 38-35 52-63 41-8-3-17-9-25-17-127-120-254-206-384-258-19-8-48-17-87-27-39-10-68-19-87-27-24-10-46-22-64-36-1-3 0-6 2-12 7-18 16-27 28-25 65 6 186 45 363 116zm290-622c-109-58-194-49-255 26-5 6-9 12-11 18-11 23-11 46 0 68 11 22 27 38 46 47 52 23 92 37 122 43 48 9 92-3 133-35 10-8 18-17 22-26 14-29 13-58-3-87-12-24-30-42-54-54zm-21-80c86 46 131 112 135 200 1 25-4 50-16 75-16 32-37 56-64 72-70 41-141 42-213 3-42-22-82-57-119-105-18-23-29-52-33-86-4-34 2-67 17-98 8-17 19-32 31-44 69-68 156-74 261-18zm87-179c57 37 95 58 114 63 21-8 48-14 79-19 7 2 12 4 17 7 18 12 24 30 16 55-3 6-5 11-8 16-11 18-25 31-43 37-20 3-36 1-47-6-15-6-31-15-48-26-12-8-30-21-54-40-23-19-41-32-54-40-34-22-67-35-98-37-3 0-17 1-44 4-17 2-31-1-40-7-21-14-24-35-7-62 7-12 16-20 26-25 14 0 32-3 55-8-19-38-15-79 12-123 13-22 30-38 49-49 20-11 38-11 54 0 6 4 11 8 15 14 9 15 8 30-1 47-5 8-11 14-19 18-35 12-55 23-62 34-26 43 3 92 86 146zm493-602c-93-82-178-93-254-34-6 5-11 10-15 15-16 20-21 42-15 67 6 25 18 44 35 57 46 34 82 58 109 70 45 20 91 19 137-2 12-5 21-12 28-20 20-25 25-53 16-86-7-26-21-48-41-66zm-3-83c74 64 103 140 89 226-4 25-15 48-32 70-22 27-48 46-78 55-77 23-146 8-208-47-36-32-67-75-93-130-13-27-17-57-13-91 4-34 16-65 37-91 12-15 25-27 40-35 82-49 168-35 258 44zm442-161c19 19 39 32 59 41 47 9 76 19 87 31 9 10 14 22 14 38-7 20-18 36-34 47-27 18-59 14-96-11-17-12-41-34-74-68-19-20-46-51-82-94-36-42-63-74-82-94-36-37-71-68-105-91-26-18-54-11-84 20-5 5-10 11-14 18-15 30-19 53-11 69 14 21 31 41 50 62 21 22 55 52 102 91 47 39 81 70 102 91 15 16 10 36-14 61-13 14-28 20-45 18-23-11-56-40-98-89-10-12-44-49-100-112-37-42-69-83-95-122-6-9-3-20 9-32 5-5 13-7 24-5l18 3c7-35 24-66 49-93 44-46 91-58 142-35 28 12 65 42 112 89l165 166zm-57-251c78 89 144 107 199 55 7-7 14-16 22-28 5-10 8-26 8-46 0-20 3-35 7-45-2-2-4-1-8 3-16-30-34-58-52-83-16-22-37-46-62-72-38-38-61-61-67-69 15 17-3-3-52-61-26-32-43-52-52-61-15-14-36-31-64-49-12-3-33-3-61 3-14 0-25-4-34-14-17-20-14-42 10-64 32-30 61-34 87-13 57 45 115 102 174 171l83 97c32 37 61 68 89 93 16 19 26 30 28 32 13 10 26 17 39 20 28-2 55-3 82-2 15 1 26 11 33 31 2 14-4 27-17 40-22 20-44 25-69 15-13-6-21-7-22-3-5 9-13 33-25 71-9 29-20 51-33 66-40 44-90 60-148 49-48-9-89-32-123-70-92-100-119-194-81-281 7-17 19-33 34-48 29-28 57-36 84-24 9 5 14 15 16 27 2 13-2 24-11 32-45 42-66 82-65 121 1 32 19 67 53 105zm421-390c19-40 25-78 17-114-3-5-6-10-9-14-22-29-49-31-81-5-24 19-37 42-41 69-1 50 8 87 25 110 11 15 25 22 42 22 4 0 8-1 11-4 4-3 16-25 35-65zm175 41c15-12 29-17 43-14 19 11 28 18 28 22 7 27-9 61-49 102-61 50-116 68-165 54-64-19-116-53-154-104-52-70-68-142-47-216 11-37 31-67 60-91 32-26 63-38 94-35 31 2 56 17 76 44 33 44 33 104 1 181-11 26-34 69-68 130 15 15 34 22 57 21 23 0 45-9 65-26 8-6 17-17 29-33 12-16 22-27 29-33zm339-431l27 34c9 12 21 19 34 21-28-95-43-148-45-159-11-65 0-121 33-169 5-7 10-12 17-17 28-18 48-17 60 3 6 10-1 55-21 133-12 48-16 89-12 124 3 27 15 65 35 115 20 50 31 88 34 116 2 7-3 13-12 20-12 8-24 9-34 5-17-15-39-41-66-77l-62-82c-15-19-44-40-88-61-13-6-39-13-76-19-37-6-64-14-79-25-15-10-17-26-3-47 11-18 27-28 48-30 41-5 81 7 119 34 16 12 47 39 91 83zm571-220c-53-115-126-161-219-139-7 2-14 4-19 7-22 11-35 30-39 55-4 25-1 47 10 67 28 51 52 88 72 111 33 37 76 56 126 56 13 0 24-2 33-7 28-14 44-38 48-71 4-27 0-52-12-78zm30-77c42 90 40 172-7 245-13 21-32 38-56 50-31 16-61 21-92 17-79-12-136-55-172-131-21-44-32-97-34-158-1-30 7-59 23-89 17-30 40-52 70-67 17-9 33-14 50-15 94-10 167 40 219 150zm132-221c-38 52-47 105-26 159 10 27 28 52 53 75 37 35 79 42 127 22 11-4 25-14 43-29 18-15 33-24 43-29 21-9 39-6 54 10 3 4 5 8 6 12 14 35-15 68-86 98-74 31-140 29-197-7-38-24-67-59-85-106-32-83-29-160 8-230 25-48 62-83 112-104 21-9 44-14 68-16 26 1 43 12 52 34 5 13 2 25-10 36-13 11-33 19-61 26-36 8-57 13-63 15-16 7-30 18-41 32zm429-27c31-31 49-64 54-101-1-6-2-11-3-16-11-36-36-47-74-34-29 10-49 26-61 50-17 47-21 84-12 113 6 18 16 30 32 36 4 1 8 1 11 0 5-2 23-18 54-48zm151 101c18-6 33-5 46 2 14 17 20 27 19 31-2 28-29 54-80 78-74 25-131 22-173-8-54-41-91-91-110-153-26-84-17-157 27-219 22-31 51-52 86-64 38-13 72-13 100 0 28 13 47 36 57 68 16 53-3 109-58 170-19 21-54 53-107 98 9 19 25 33 47 40 22 8 45 7 70-1 9-3 22-10 38-21 16-11 29-18 38-21zm-237-444c7-3 27 1 61 13 34 12 52 21 54 27 1 4 2 11 1 20-6 6-12 9-18 11-4 0-20-5-46-15-21-8-35-11-40-9l-21 37c-15 26-27 40-36 43-16 5-26 2-31-10 1-6 3-12 5-19 6-5 17-21 34-49 16-28 28-44 36-48zm545 579c70-106 88-234 55-383-14-62-30-122-49-180-2-6-6-9-10-8-2 0-9 5-21 14-12 9-21 14-29 15-12-1-19-6-21-17-5-23 20-41 74-55 3-1 3-6 1-16-15-68-21-118-17-150 6-59 38-99 96-120 13-5 24-4 35 1 10 6 17 14 19 25 4 17-9 38-38 64-23 20-36 35-40 45-11 29-13 57-7 84 5 22 14 36 29 44 3 1 11-3 24-11 13-8 20-13 23-13 9-2 15 3 18 17 3 12-6 22-25 32-28 15-44 24-48 29 0 7 8 42 23 106l24 107c47 199 35 346-36 442-15 16-32 26-50 30-13 3-26 3-38-2-13-4-20-12-23-23-3-14 7-39 31-75zm524-428c-21-126-79-191-174-197-7 0-14 0-20 1-25 5-42 18-52 41-10 23-13 45-8 67 14 57 27 99 40 127 22 45 58 75 107 90 12 4 23 5 34 3 31-6 52-24 65-55 11-24 14-50 9-78zm49-66c17 99-7 176-71 233-18 16-41 27-67 32-34 6-65 3-93-10-73-34-117-92-131-175-8-49-5-103 9-162 7-29 22-55 46-79 24-24 52-39 85-45 18-3 36-4 52-1 93 17 150 86 171 207zm215-50c0 70 3 115 9 135 18 15 37 35 58 60 2 7 3 13 3 19 0 22-12 37-36 44-6 1-12 1-17 1-21 0-38-6-53-18-13-16-20-31-20-45-3-17-5-36-5-56 0-15 1-38 4-69 3-31 4-54 4-69 0-42-7-77-22-107-1-3-10-15-26-37-10-14-16-28-16-40 0-26 16-40 47-40 13 0 25 3 34 10 7 12 19 27 36 45 21-37 56-55 106-55 25 0 47 6 66 18 19 12 29 28 29 48 0 7-1 14-3 21-7 16-20 24-39 24-9 0-18-2-25-7-28-24-48-37-61-37-49 0-73 51-73 154zm334 232c-2 25-19 35-50 32-34-4-49-23-46-56 4-36 23-51 58-47l11 2c22 11 31 34 27 70zm162 26c-5 24-23 32-53 25-33-8-46-29-39-62 8-35 29-48 63-40l10 4c20 14 27 38 19 73zm161 50c-8 23-26 30-56 19-32-12-43-34-33-66 11-34 33-45 67-33l10 5c19 16 23 41 12 74z" fill-rule="nonzero" stroke-width="35.28"/><g stroke-width="7.62"><text x="10500" y="14850" font-family="&apos;Boomerang&apos;" font-size="947.66" transform="matrix(1.36786 0 0 1-10967.2 7072.4)">Texto 01</text><path d="m5111 23105c0 10-8 18-25 23-16 6-35 8-57 8-31 0-59-4-85-13-6-2-23-10-50-24-22-11-39-17-49-19-38 34-91 51-159 51-42 0-78-9-107-26-28-16-43-35-43-55 0-27 23-55 68-83 10-6 28-14 53-24 25-10 43-17 52-23-9-16-13-31-13-45 0-20 6-38 19-52 17-19 44-29 81-29 53 0 80 14 80 41 0 18-12 36-37 52-11 7-38 21-80 42 3 14 26 42 67 85 6 6 11 9 14 9 7 0 19-9 37-27 24-24 44-41 59-50 30-18 62-27 95-27 17 0 34 3 49 8 15 5 23 12 23 20 0 13-15 19-44 19h-21c-9 0-16 0-21 0-35 0-65 10-89 30-2 2-20 18-54 50 12 11 29 21 52 29 22 8 46 12 70 12 9 0 23-1 41-4 18-2 31-4 41-4 8 0 15 3 21 8 6 5 9 10 9 14zm-275-264c0-14-10-21-31-21-21 0-37 6-49 19-9 10-14 20-14 32 0 5 1 12 3 21 4 4 9 6 13 6h4c50-26 75-45 75-57zm-15 215c-20-11-39-27-59-48-19-21-31-39-34-54-3-3-8-4-13-4-1 0-6 3-17 7-63 25-94 52-94 80 0 15 9 29 28 42 20 14 45 21 75 21 38 0 76-15 113-44z" fill-rule="nonzero"/><text x="10500" y="14850" font-family="&apos;Boomerang&apos;" font-size="947.66" transform="matrix(1.71079 0 0 1-14909.3 9557.65)">Texto 02</text></g></g><path d="m3634 8497c349-212 501-135 617-348 110-333-298-432-454-231 6-254-423-403-473-70-22 238 199 305 309 649z"/><path d="m4560 7608c274-167 394-106 486-274 86-262-234-340-357-181 5-200-333-317-372-55-17 187 156 240 243 510"/><path d="m4002 6468c404-245 580-156 715-403 127-385-345-501-526-267 7-295-490-467-547-81-25 276 230 354 358 752z"/><g stroke="#201e1e" stroke-width="7.62"><path d="m7087 24164c202-123 290-78 358-202 64-193-173-250-263-134 4-147-245-233-274-41-13 138 115 177 179 376z"/><path d="m6500 21387c202-123 291-78 358-202 64-193-173-251-263-134 4-148-245-234-274-41-13 138 115 177 179 377z"/><path d="m6376 22880c202-123 291-78 358-202 64-193-173-251-263-134 4-148-245-234-274-41-13 138 115 177 179 376z"/><path d="m5481 25415c202-123 290-78 358-202 64-193-173-250-263-134 4-147-245-233-274-41-13 138 115 177 179 376z"/><path d="m2522 24117c202-123 290-78 358-202 64-193-173-250-263-134 4-147-245-233-274-41-13 138 115 177 179 376z"/><path d="m2922 21424c202-123 291-78 358-202 64-193-173-251-263-134 4-148-245-234-274-41-13 138 115 177 179 377z"/><path d="m3079 22883c202-123 291-78 358-202 64-193-173-251-263-134 4-148-245-234-274-41-13 138 115 177 179 376z"/><path d="m4322 25364c202-123 290-78 358-202 64-193-173-250-263-134 4-147-245-233-274-41-13 138 115 177 179 376z"/><path d="m7318 20362c202-123 291-78 358-202 64-193-173-251-263-134 4-148-245-234-274-41-13 138 115 177 179 377z"/><path d="m6596 19081c202-123 291-78 358-202 64-193-173-251-263-134 4-148-245-234-274-41-13 138 115 177 179 377z"/><path d="m7250 17714c202-123 291-78 358-202 64-193-173-251-263-134 4-148-245-234-274-41-13 138 115 177 179 377z"/><path d="m2180 20206c202-123 291-78 358-202 64-193-173-251-263-134 4-148-245-234-274-41-13 138 115 177 179 377z"/><path d="m2916 18910c202-123 291-78 358-202 64-193-173-251-263-134 4-148-245-234-274-41-13 138 115 177 179 377z"/><path d="m2112 17671c202-123 291-78 358-202 64-193-173-251-263-134 4-148-245-234-274-41-13 138 115 177 179 377z"/></g><path d="m4908 14884c-10-11-8-7-17-25-17-35 26-69 80-139 18-23 99-138 124-153 16 102 19 61-39 132-38 46-130 151-148 185m153-448c11 13-7 22-41 68l-151 197c-25 32-141 162-144 202-2 43 28 42 57 54-14 96-22 67-47 124-17 39 11 38-17 139-141 513-361 994-678 1403-27 35-47 60-76 94-80 91-3 154 51 85 15-20 31-35 46-55 225-301 374-514 534-891 80-189 153-396 210-608 47-177 9-106 90-213 35-45 209-256 235-276l16 60c94 24 83-35 67-109-10-45-6-49 15-75 15-19 35-39 49-55 14 61 26 121 39 181 5 24 12 71 24 85 21 25 54 17 70-5 37-63-78-297-50-358 13-28 47-70 73-79 41 133 61 312 90 455 12 62 53 89 90 34 16-44-69-380-79-459 85-6 36 44 133 93 56 28 132 25 184-5 93-55 150-213 53-311l59-59c2-1 4-3 6-4 58 299 582 1919 694 2277 40 128 78 248 117 374 20 63 39 126 59 190 24 76 58 118 25 183l-1053 38c18-202 47-389 53-599 7-217 5-422 0-639-4-185-61-1093-107-1201-112-29-75 75-65 161l67 740c35 501 41 1041-41 1538-30 184-51 302-265 216-61-25-119-58-171-90-127-78-283 107-360 107-73 0-87-98-91-181 10-30 135-144 159-183 29-48-23-89-63-66-20 12-98 106-127 136-39 39-81 98-132 123-45 22-79-29-114-43-61-25-63 41-91 70-22-11-41-32-59-39-34-13-47 11-66 22-37-39-49-36-91-7-12-19-79-95-102-98-44-7-69 70-89 107-45 84-101 173-193 209-90 35-255 23-311-59-67-99-60-211-103-300-63-17-88 29-134 64-101 76-387 34-496-46l-18-16c17-35 36-53 58-84l360-515c351-495 659-994 906-1566l257-621c25-63 66-155 81-216 38 29 56 45 111 63-44 238 211 367 347 213 28-31 14-49 58-28-50 78-215 250-271 326-19 25-93 83-40 124 46 36 89-35 111-66 64-89 233-257 277-334zm119 108c-6-48-23-67 1-100l42-51c8-8 5-6 13-12l15 80-51 67c-16 16-3 5-21 16zm144-291c22 24 8 8 21 46 4 13 10 26 13 35l-31 38c-14-64-26-68-4-120zm340-344c59 40 63-14 129-17 167-9 189 245 26 267 29-185-219-253-288-90-79 186 187 309 269 138 33 27 76 51 84 113 16 118-106 196-195 140-52-32-45-70-80-105-68-7-38 20-121-7-53-18-11 5-45-32-22-23-23-7-35-42-45-130 99-175 104-190 2-49-12-26-17-79 88-1 135-40 168-95zm-983-194c4 87 27 117 63 162-124 104-69 310 91 318 123 6 259-141 130-301 12-19 42-51 60-64 16 22 27 34 55 46-18 75-29 127 9 194 59 106 98 45 109 124 10 77-43 120-105 124-37 3-61 13-93-5-33-19-34-45-77-30-36 34-15 68-76 102-42 23-90 27-132 5-131-68-44-196-57-249-37-12-183-21-178-170 6-153 167-147 195-154l7-103zm484 124c-30-20-54-16-81-48-61-70-21-219 138-157-25 45-69 76-51 161 38 181 335 173 290-94 55 17 97 2 131 41 56 64 22 188-78 191-65 2-65-45-119-22-23 62 10 94-44 151-58 62-203 43-217-76-9-81 41-87 32-146zm577-504c22-46 18-75 64-105 75-49 189 22 156 131-15 49-32 40-51 73l-10 22c0-1-1 4-2 6-45-188-351-119-295 92 46 174 326 164 300-91 31 20 162 45 141 166-24 140-168 94-182 102-25 33-51 100-123 68-78-35-32-112-57-138-41-29-32 10-77 2-6-1-60-24-66-30l-15-113c111-65 26-61 6-126-29-93 71-148 133-99 30 24 26 52 78 40m-474 279c-11-181 284-147 178 69-24-56-100-94-178-69m785 142c38-36 64-83 64-146 0-100-50-136-104-181 5-16 8-21 14-40 69 1 123 29 159 64 38 38 70 65 65 149-8 120-112 196-239 192l43-37zm-773-402c107 17 98 10 182-33-5 65 9 78 9 118-31 10-35-3-65-10-59-14-102 27-127-75zm-413-270c154-45 188 127 202 146 63 8 107-12 134 41 37 73-18 88-12 148 26 23 33 16 57 49-9 33-29 34-41 81l-68-5c38-200-163-334-304-210-53 47-75 146-39 229 48 111 118 106 186 120 2 6 3 0 4 21 2 45-44 170-161 135-36-11-67-46-73-90-9-68 45-91 4-122-12-12-211 2-185-174 23-152 188-94 206-132 9-20-59-194 90-237m141-57c7-50 47-90 106-87 64 2 65 52 114 70-25 39-44 45-62 103-13 44-2 26-14 43l-41-1c-21-68-55-85-103-127zm252-35c9-66 51-125 124-114 97 14 77 114 102 139 34 34 102-65 176 20 53 60 28 119-5 171-88-5-74-6-142 30 46-176-98-323-256-246zm-335 14c-16-32 125-315 137-340 75 45 76 100 224 155-18 21-25 17-42 35-16 16-15 25-32 44-76-31-160-66-241 40-36 47-7 51-45 66zm462-203c66-32 107-82 167-109l66 237-88 6c-18-78-69-109-146-134zm-236-440c64 9 99 25 174 26 89 2 141-13 160-12 12 0 9 0 17 3l26 213c-55 25-145 134-218 132-63-2-157-119-209-148l50-215zm-650 1121c-57-71-107-255-116-372-10-145 19-294 73-408 59-126 127-205 209-279 45-41 80-71 132-106l140-96c22 16 36 37 60 55 25 20 39 25 63 46l-46 205c-27 101-101 36-129 275-5 39-73 210-93 233-56 66-103 79-94 226-118 9-191 93-199 219zm1089-1143c53-34 99-52 125-104 130 32 355 253 435 408 52 101 81 196 97 323 10 80 15 306-33 384-73-34-79-51-179-60-27-117-124-172-250-135-15-27-46-151-59-196-26-92-11-134-28-223-17-88-70-116-79-177-11-73-17-150-28-221zm-84-514c1 45 1 91 2 136 0 44 12 87-9 111-83 95-312 71-349-31-9-25 20-178 25-221 121 5 203 11 331 4zm-1422-798c-31 17-35 21-66-8-13-13-35-34-41-60-11-49 14-116 61-136 8 43 49 189 46 204m2565-30c4-20 43-186 58-203 40 49 102 121 11 198-31 26-34 12-70 5zm-1872-1054c29-52 70-107 105-162l100-157c1-3 3-3 4-4 31 15 55 35 87 52 182 98 308 140 520 166 53 6 78-6 116 20 29 20 55 40 88 54-10 8-4 5-19 11-9 3-5 2-13 4-47 11-193-12-142 100 51 14 188-11 261-8 47 2 84 8 129 13 53 6 57-5 71-35l11-21c44 17 177 112 224 144 39 27 75 48 117 67 52 24 85 11 108 68 79 197 102 407 44 621-202 746-1174 1075-1877 696-168-91-302-205-396-335-14-19-30-34-36-57-7-28-4-46-17-77-22-51-57-51-78-100-28-67-65-217-65-303 53-51 115-98 162-147 54-57 95-110 147-161 55-54 91-109 142-167l129-170c49-23 181-25 243-25 73 0 182 29 236 5 24-86-25-89-154-96-86-5-169 7-246 5zm237-424c90-2 68 0 138 23 66 22 86-14 127-12 36 2 69 31 129 31 60-1 82-28 130-22 61 8 89 9 131-24 83-64 34-8 112-33 58-19 17-54 95-66 62-9 65-25 106-46 134 54 156 195 217 237 93 63 179 128 261 192 44 35 201 184 149 296-49 105-346-128-431-183-94-61-76-22-189-28-143-7-210-132-309-137-204-11-531-94-665-229zm-909 1063c-17-280 92-577 198-776 91-171 276-415 511-446 21 81 57 118 130 148l-187 292c-139 212-347 496-531 667-38 35-79 91-121 115m1205-1375c-73 42-86 61-179 19-61-28-110-71-59-152 57-91 57-80 140-20 44 32 81 75 97 153zm-2672 6119c13-61 47-150 67-211 22-69 44-136 65-207 41-137 81-277 120-418 191-701 457-2026 503-2742 41-646 93-1321 294-1876 125-345 350-809 748-858 245-30 287 71 386 125-18 59-21 52-23 127-110 15-199 68-282 131l-74 65c-180 175-322 466-385 732-63 270-36 282-33 514-37 37-61 38-90 82-130 199 12 281 69 336-30 189 109 273 237 167 49 64 112 145 176 184-4 136-62 362-103 480-25 71-54 138-91 196-73 116-109 115-97 182 74 50 120-53 156-105 129-188 180-445 219-677 46 25 97 62 147 90-27 402-235 557-147 599 55 26 80-57 100-96 21-43 42-86 60-134 42-109 60-190 74-318 34 2 215 93 354 108l-8 66c-80 4-129 33-165 79-48 63-34 116-17 195-99 43-323 230-375 294-240 297-305 661-136 1024 37 79 76 142 123 211 61 89-48 144-77 206-32 69-10 91-22 151-10 53-311 778-336 839-51 124-365 784-453 888-151-44-255-207-327-334-101-177-76-155-37-227 187-342 367-776 482-1166 148-502 289-1139 311-1682 5-129 25-544-18-632-58-16-80 5-76 71 25 354 2 695-45 1046-48 361-128 719-223 1050-93 321-207 648-339 930-36 77-183 387-222 414-20 14-190 75-226 87-104 36-157 38-264 13zm4922 8c-146 31-146 52-335 47-402-11-317-203-416-137-24 16-59 55-109 92-61 45-157 119-234 151-170-532-342-1079-485-1627 194 19 377-127 331-332-15-66-39-60-16-126 79-220 58-530-34-736-71-158-168-284-297-383-44-34-152-117-207-132 8-170-21-210-160-247l-3-93c93-11 179-43 262-68l54 353c6 44 10 85 59 75 81-16-19-309-23-463l162-86c-14 52 127 702 146 743 110 28 73-72 57-145-15-74-31-147-46-220-15-74-30-146-46-220-37-175-16-141-81-181 122-63 352-282 404-407 22 16 61 88 143 48 47-23 66-80 59-158 139-57 160-303-36-393 4-204-25-311-86-477 42-50 83-59 85-165 1-79-35-138-66-187-98-150-364-297-399-339-36-44-74-141-166-204-24-16-59-28-74-49-51-69-9-54-109-145 136-267 405-199 586 88 243 384 399 1122 443 1600 15 161 12 334 20 496 8 167 14 335 20 502 23 613 70 1301 182 1883 83 432 381 1361 415 1642m-2190-6244c14-12 21-26 37-44 15-17 20-26 37-40 132-117 224 85 238 157 26 136-72 139-169 106-114-39-113-65-142-178zm-53-75c-120-84-203-176-309-16-37 56-26 46-85 61-67 17-45 4-111-45-28-20-47-32-80-50-248-130-577-9-755 194-214 244-341 536-440 872-129 439-177 908-211 1371l-37 497c-2 74-14 164-24 235-10 74-24 158-35 231-76 477-148 864-244 1336-102 499-238 974-389 1452-14 46-61 157-61 204 0 50 149 87 204 87 115 0 208-45 306-82 30-11 69-24 93-36 60 93 99 204 172 301 35 46 67 82 112 119 34 29 101 81 146 92-10 46-217 354-263 419l-283 405c-38 57-340 463-336 492 24 48 41 55 88 81 137 78 374 137 534 79 39-14 54-32 87-51 8 105 67 232 149 293 58 42 145 54 220 54 213 0 311-153 385-299 32 22 73 87 121 87 20 0 17-12 38-12 12 0 28 8 38 9 42 2 30-36 76-7 26 16 44 31 75 20 28-10 45-35 52-65 109 26 42 81 204-8 0 65 18 104 47 140 105 128 207 37 279-3 29-16 126-64 158-52 62 22 358 251 502 49 34-48 38-114 61-165l407-8c34-2 36-8 75-8 53-1 123 5 173-1l325-15c73 1 93 8 139-28 103-79 34-207-1-314-54-168-418-1315-418-1344l167-109c29-20 53-36 80-58l76-62c53 13 76 76 298 114 118 20 248 13 368-16 40-10 70-21 103-35 38-15 69-23 64-75-21-185-185-741-232-907-145-511-224-880-284-1420-9-82-13-170-25-257-23-173-17-359-40-533l-32-675c0-58-3-96-7-142-4-44 1-96 0-142l-15-268c-4-49 4-99-2-147l-69-503c-70-411-198-918-443-1263-61-86-201-222-338-222-129 0-228 23-305 130-83 116-26 52-117 74-23-104-179-272-335-161-28 20-86 72-95 106zm-836 221c38-55-31-111-75-55-482 611-652 1355-746 2151-28 237-38 477-63 715-24 233-54 460-88 689-72 492-156 830-251 1298-17 82 50 94 76 56 16-22 32-123 40-155 172-755 307-1593 351-2366 13-218 55-474 90-687 65-395 184-834 366-1177 147-277 151-255 300-468zm163 1334c-25 131 139 384 254 482 471 406 1283 90 1294-557 2-143-80-79-84-72-6 11-11 140-16 172-95 568-986 795-1301 167-71-141-53-255-146-193zm1092-390c-38 6-77 5-89 38-40 106 151 36 265 59 158 32 131-147-175-97zm-679 51c-56-26-432-57-339 63 25 32 148 5 200 7 77 3 167 45 139-71zm503 276c22-85-27-81-99-81-47 0-156-13-179 18-16 22-8 51 8 64 26 21 234 17 270-1"/><g font-family="&apos;Arial Black&apos;" font-weight="900" font-size="556.46"><text x="10500" y="14850" transform="matrix(.95716 0 0 1-6047.6 4585.86)">NN 1</text><text x="10500" y="14850" transform="matrix(.95716 0 0 1-6074.01 5129.29)">NN 2</text></g></g><g fill="#373435" font-family="&apos;Arial&apos;" font-weight="normal" font-size="423.33"><text x="3672" y="27908">DESC 1</text><text x="3676" y="28332">DESC 2</text><text x="3676" y="28734">DESC 3</text></g></svg>