<svg xmlns="http://www.w3.org/2000/svg" width="744.09" height="1052.36" viewBox="0 0 21000 29700" shape-rendering="geometricPrecision" image-rendering="optimizeQuality" fill-rule="evenodd" clip-rule="evenodd"><defs><clipPath id="0"><path d="m14012 21644c-611-310-816-936-884-1587-65-612-71-1237-64-1852 8-685 35-1370 56-2055 22-743 37-1490 6-2234-27-666-91-1355-256-2002-309-1213-810-2363-1056-3594-75-377-134-758-177-1139-48-425-77-853-82-1280-11-1051 128-2586 991-3305 546-455 1244-467 1905-316 979 223 1909 684 2653 1371 525 485 943 1069 1223 1731 308 729 432 1510 404 2300-14 405-35 810-61 1215-72 1147-181 2291-281 3435-112 1288-211 2575-268 3867-15 350-17 703-20 1054-4 417-9 833-24 1250-18 510-50 1031-130 1534-56 349-151 801-344 1101-183 285-492 473-799 593-370 144-785 210-1180 221-523 15-1141-67-1613-306z"/></clipPath><clipPath id="1"><path d="m6616 21656c611-310 816-936 884-1587 65-612 71-1237 64-1852-8-685-35-1370-56-2055-22-743-37-1490-6-2234 27-666 91-1355 256-2002 309-1213 810-2363 1056-3594 75-377 134-758 177-1139 48-425 77-853 82-1280 11-1051-128-2586-991-3305-546-455-1244-467-1905-316-979 223-1909 684-2653 1371-525 485-943 1069-1223 1731-308 729-432 1510-404 2300 14 405 35 810 61 1215 72 1147 181 2291 281 3435 112 1288 211 2575 268 3867 15 350 17 703 20 1054 4 417 9 833 24 1250 18 510 50 1031 130 1534 55 349 151 801 344 1101 183 285 492 473 799 593 370 144 785 210 1180 221 523 15 1141-67 1613-306z"/></clipPath></defs><text x="9938" y="20932" fill="#201e1e" font-family="&apos;Arial Black&apos;" stroke="#201e1e" font-weight="900" stroke-width="7.62" font-size="705.56">32</text><g fill="none" stroke="#373435" stroke-width="80"><circle cx="10390" cy="22303" r="460"/><path d="m10390 21493v1621"/><path d="m9580 22303h1621"/></g><rect x="9843" y="22722" width="1347" height="637" rx="318" fill="#fff" stroke="#fff" stroke-width="20"/><g fill="#373435" font-family="&apos;Arial&apos;" font-weight="normal" font-size="423.33"><text x="665" y="24080">DESC 1</text><text x="630" y="24685">DESC 2</text><text x="612" y="25285">DESC 3</text></g><path d="m14012 21644c-611-310-816-936-884-1587-65-612-71-1237-64-1852 8-685 35-1370 56-2055 22-743 37-1490 6-2234-27-666-91-1355-256-2002-309-1213-810-2363-1056-3594-75-377-134-758-177-1139-48-425-77-853-82-1280-11-1051 128-2586 991-3305 546-455 1244-467 1905-316 979 223 1909 684 2653 1371 525 485 943 1069 1223 1731 308 729 432 1510 404 2300-14 405-35 810-61 1215-72 1147-181 2291-281 3435-112 1288-211 2575-268 3867-15 350-17 703-20 1054-4 417-9 833-24 1250-18 510-50 1031-130 1534-56 349-151 801-344 1101-183 285-492 473-799 593-370 144-785 210-1180 221-523 15-1141-67-1613-306z" fill="#fff"/><g clip-path="url(#0)"><g fill="#000002" stroke="#000002"><g stroke-width="7.62"><path d="m17733 7848c108-31 221-63 302-329 37-120 67-232 114-313-235 46-396 28-468 457 80-150 164-263 256-286-147 163-198 319-205 471zm-969 3047c-41-255-98-527-67-1004 81 274 108 612 67 1004zm-58-1133c6-65 13-133 22-205 11-208 63-424 144-627 52 224 81 490 83 801-24 400-66 775-139 1107 30-433-11-795-110-1075zm189-886c271-634 817-1117 1256-775-76-94-163-175-323-166-402 61-736 408-945 892-119-455-340-815-677-899-193-49-449 42-539 393-54 212 42 373 165 419-76-79-138-166-133-271 20-461 400-522 556-451 272 124 489 400 606 862-96 237-162 504-192 786-175-402-487-604-897-562-169-327-374-589-635-737-18-98-55-165-114-190-44-20-90-32-135-48-99-46-56-199 31-245-156-121-242 58-194 306-53-59-84-154-101-275-12 88-22 176-10 260-42-8-86-16-134-21-178-168-369-423-439-829-75-434-70-911 150-1372 243-507 567-643 765-580 114 29 230 203 200 385 73 62 62 163 14 281 89-120 120-246 81-367-133-391-343-425-589-310-367 218-616 706-669 1181-64 682 81 1248 416 1606-139-12-302-12-499 5-384-8-696-100-969-255-253-144-458-340-607-570-166-253-283-570-387-905-94-421-127-850-143-1282 11 661 22 1160 241 1730 232 590 549 952 973 1163 238 118 485 201 796 183-497 265-1193 610-1547-124 75 228 209 379 400 457 375 104 716-59 1166-276 188-49 344-64 494-71-700 147-1546 1181-1371 2396-36-900 260-1466 715-1968 270-270 467-319 669-381 113 3 181 12 238 22-54 59-70 107-80 154 59-79 116-118 172-115-101 204-112 360 76 410-37-86-58-153 18-190 59-29 133-7 207 16 28 18 63 16 115-31 24 32 60 43 85 74 651 682 859 1556 944 2778 34 664 91 1290 154 1904 109 770 362 1370 691 1938l1344 2027 508-50c-1452-2044-2148-2290-2469-5760-70-757-191-1418-398-1942-53-133-109-260-170-378 405-9 722 234 886 671-10 133-12 269-5 406-1 288 40 550 81 820-68-129-115-126-150-92 88-6 129 119 121 201-189-180-284 89-241 228 23-107 68-164 122-75 6 129 1 251-8 370-9 120 9 213 86 243-18 166-31 332-34 496 1 642 40 1224 247 1773 350 929 1417 2083 1963 2791l230-536c-660-680-2388-1852-2096-3415 37-145 79-302 285-493 228-140 309-27 420 35 446 564-154 1254-262 637-8 82-8 161 51 221 64 97 146 134 268 38 304-314 137-993-186-1058-421-152-740 532-732 1142-162-455-156-1071-115-1615 67-61 103-141 110-239 8-73 7-149 25-218 52-190 127-201 155-8 98-128 5-461-176-275-19-56 41-159 153-198-53-35-107-8-152 60 7-37 14-75 20-112 71-418 279-842 507-1091 169-155 327-129 462 11 354 422 211 958-40 1247 107-79 177-209 231-361 50-183 70-357 23-561-122-372-366-610-619-453-140 127-282 265-486 764 100-481 98-1084-23-1583zm1174-933c315-98 525 224 492 806-9-540-407-98-451-619 121 25 219 92 304 181-88-161-208-276-344-368zm-123 2995c-95 485-384 677-707 430 318 172 254-551 578-435-73 166-159 283-252 374 136-71 261-204 381-368zm-2150-2185c181 322 420 310 655 21-63 21-107 91-222-46-115-137-264-166-393-84 91 15 130 197 371 171-167 73-294 25-412-63zm-4042-3262c-128-405 28-892 225-1160-37 94-67 196-47 351 44 228-8 439-104 644 11-207-25-307 33-620-109 300-101 530-106 784zm591 2837c-270-161-344-667-293-1058 9 105 26 208 106 299 130 118 174 323 179 567-76-159-146-194-228-476 13 326 123 482 236 669zm531 1965c-74 488 154 828 371 937-46-63-86-139-85-304 16-254-58-418-173-542 34 191 12 315 102 574-150-174-188-403-215-664zm1267-482c-233 359-256 695-162 1019 1-99 11-202 88-330 128-180 158-390 144-612-68 186-139 258-203 559 12-227 63-435 133-636zm1021 1628c172-446 70-920-266-1132 297 259-97 679 177 984 31-201 30-383 12-555 57 210 76 449 77 704zm-267 989c-329 75-555 511-530 1072 18-543 429-321 484-864-128 92-232 212-322 347 95-208 223-389 368-555zm251 1322c243-234 308 6 516 56 36 10 99-24 165-87-65 142-166 233-293 288-120 53-211 46-287 13-103-33-185-139-218-215 148 98 292 172 489 77-156 6-276-44-371-132zm-685-1441c359-307 466-1268 75-1520-91-57-163-44-218 11-52 123-120 113-121 304-41-152-6-269 110-338 45-44 102-62 167-50 467 149 405 1094 91 1556 325-164 594-741 543-1157 43 277 49 596-310 1061-181 186-367 249-556 230 157 193 20 678-172 542-92-94-98-210-53-299 95-187 294 157 38 184 143 275 332-345 79-451-147-37-279-144-398-320-78-162-141-337-179-531-354-1525 807-3171 1661-2370 599 562 626 1082 738 1593 36 205 62 418 63 646 28 483 65 961 111 1432 52 370 115 719 190 1049 335 1198 927 1903 1505 2748l-21 82c-451-657-1006-1336-1339-2156-118-290-190-602-281-894-54-302-264-613-439-760-500-500-1112 630-511 958-561-131-206-1197 275-1151 228 28 378 247 490 420-244-627-840-954-1297-403 642-842 1241-44 1456 677-55-320-108-640-128-966-24-391-49-770-80-1144-82-309-395-584-485-110-8 125 23 183 93 173-11-110 9-197 73-252 104 22 150 137 66 338-91 125-165 94-232-7-96-200-57-325 1-439 135-230 280-226 435 11-101-710-467-1455-943-1583-335-93-673 110-856 640 86-330 246-577 490-666 612-222 944 337 1259 1041-157-736-609-1329-1108-1375-617-57-1200 877-1207 1845 18 903 319 1496 923 1402zm2249 2903c-143-318-304-599-500-821-301-341-806-253-1067 231 321-365 587-425 911-157 158 139 295 327 402 564 411 905 863 1484 1369 2237l-40-415c-309-459-840-1115-1075-1640zm-3046-3110c72 58 148 119 164 343 7 101 11 194 32 270-160-110-279-148-262-491 33 138 75 249 138 296-79-169-91-301-72-417zm-158-81c-73 77-149 158-172 344-10 84 18 156-5 226 187-135 269-214 238-500-37 124-82 231-145 295 83-169 99-280 84-364zm-33-107c-74-49-152-100-274-8-55 42-88 128-139 142 153 166 231 226 394-6-90 31-171 41-234-2 134 2 207-50 253-126zm64-205c-36-114-75-233-217-259-64-12-123-19-171-52 69 252 93 438 311 414-88-53-158-120-188-218 107 125 191 144 265 115zm3819-3754c-77 119-159 245-348 198-85-21-163-45-233-31 157-271 238-486 510-335-126 17-234 60-299 163 171-94 283-71 370 6zm132-277c-32-167-66-343-208-451-64-49-135-20-182-88 31 408 61 593 308 632-86-115-154-238-180-381 102 219 186 288 261 288zm101-26c71-126 145-259 121-525-11-120-67-214-58-317-200 237-281 368-160 761 12-184 39-344 100-450-58 257-46 417-3 531z"/><path d="m16915 1013c0 0-935 640-1875 665 0 0-715 40-926 215 0 0-446 306-597 461 0 0-341 560 33 959 0 0 483 502 828-221 0 0 100-582-420-539 3 1-331 55-266 384 0 0 45 139 161 188 0 0-271-387 86-479 0 0 357-81 364 301 0 0 52 352-411 448 0 0-345-73-386-372 0 0-67-262 124-687 0 0 506-469 958-509 0 0 1029-89 1586-344 0 0-536 648-570 969 0 0-788 881-281 1433 0 0 96 118 27-542 0 0-32-570 239-738 0 0-131 769-73 1271 0 0 87 1345-129 1757 0 0-524 187-849-88 0 0-518-386-552-237 0 0 260 478 639 462 0 0 569 77 691-6 0 0-335 680-1051 680 0 0-757 60-1126-709 0 0-100-393-53-558 0 0 128-17 157-149 0 0 11 170 212 218 0 0 82-127-53-326l226 165c0 0 52 0-141-217l276 8c0 0 200-102-202-230l182-147-243 1c0 0 180-194 129-280 0 0-69-65-254 117l-26-218-85 167c0 0-65-216-175-232 0 0-90 118-62 261l11 60-188-112 104 181c0 0-266-15-266 95 0 0 88 127 177 162l-140 116 222 18c0 0-127 101-100 258 0 0 184 81 223-81l-55 345c0 0-114 603 680 1052l361 116c0 0 120 417-212 450 0 0-223 32-234-266 0 0 69-172 286-82 0 0-70-160-283-37 0 0-221 242 87 463 0 0 307 82 436-265l6-232c0 0 401-83 600-154 0 0 215-11 686-645 0 0 368 381 426 1893l16 242c45-17 89-35 132-54l-97-151c0 0 58-932-315-1793 0 0 827 387 946 1420l175-104c22-44 43-92 63-142-102-194-375-690-590-872 0 0 566 162 788 66 12-82 24-166 34-253-235 72-662 165-953 11 0 0 1051-241 688-1103 0 0-314-613-908-156 0 0-333 357 62 693 0 0 495 232 548-335 0 0-28-131-96-75 0 0-65 16 46 104 0 0 25 238-224 306 0 0-344 10-378-254 0 0-114-279 196-487 0 0 384-160 611 94 0 0 295 357 31 796 0 0-260 349-598 316 0 0-324 29-554-271 0 0 205-886 126-1242 0 0-52-1136-31-1204 0 0 112-941 314-1142 0 0 293-461 568-669 0 0-436 1140-15 1605 0 0 496 548 622 545l31-118c0 0-549-227-692-661 0 0-177-399 123-1312 0 0 307-332 531-334 224-3-136-109-136-109zm-3610 3656l-17 26c0 0 278 225 411 81 0 0 18-102-394-106zm-45-77l12 28c0 0 329-138 282-331 0 0-73-69-294 303zm-101-11l28 7c0 0 100-359-74-436 0 0-97 20 45 429zm-17 118l20-22c0 0-240-270-393-149 0 0-34 98 373 172zm47 72l-13-27c0 0-303 107-247 290 0 0 73 69 260-263zm77 8l-31 4c0 0-14 366 185 373 0 0 95-54-154-377z"/></g><text x="10500" y="14850" font-family="&apos;Baskerville Old Face&apos;" stroke-linejoin="round" stroke-linecap="round" stroke-width="50" font-size="965.45" transform="matrix(.94503 0 0 .91369 3165.7 5593.7)">Texto 1</text><g font-family="&apos;Arial&apos;" stroke-width="7.62" font-size="846.67"><text x="10500" y="14850" transform="matrix(.90219 0 0 .91369 4370.34 2385.36)">NN 1</text><text x="10500" y="14850" transform="matrix(.90219 0 0 .91369 4452.43 3322.03)">NN 2</text></g></g></g><path d="m6616 21656c611-310 816-936 884-1587 65-612 71-1237 64-1852-8-685-35-1370-56-2055-22-743-37-1490-6-2234 27-666 91-1355 256-2002 309-1213 810-2363 1056-3594 75-377 134-758 177-1139 48-425 77-853 82-1280 11-1051-128-2586-991-3305-546-455-1244-467-1905-316-979 223-1909 684-2653 1371-525 485-943 1069-1223 1731-308 729-432 1510-404 2300 14 405 35 810 61 1215 72 1147 181 2291 281 3435 112 1288 211 2575 268 3867 15 350 17 703 20 1054 4 417 9 833 24 1250 18 510 50 1031 130 1534 55 349 151 801 344 1101 183 285 492 473 799 593 370 144 785 210 1180 221 523 15 1141-67 1613-306z" fill="#fff"/><g clip-path="url(#1)"><g fill="#000002" stroke="#000002"><g stroke-width="7.62"><path d="m2631 7134c-108-31-221-63-302-329-37-120-67-232-114-313 235 46 396 28 468 457-80-150-164-263-256-286 147 163 198 319 205 471zm969 3047c41-255 98-527 67-1004-81 274-108 612-67 1004zm58-1133c-6-65-13-133-22-205-11-208-63-424-144-627-52 224-81 490-83 801 24 400 66 775 139 1107-30-433 11-795 110-1075zm-189-886c-271-634-817-1117-1256-775 76-94 163-175 323-166 402 61 736 408 945 892 119-455 340-815 677-899 193-49 449 42 539 393 54 212-42 373-165 419 76-79 138-166 133-271-20-461-400-522-556-451-272 124-489 400-606 862 96 237 162 504 192 786 175-402 487-604 897-562 169-327 374-589 635-737 18-98 55-165 114-190 44-20 90-32 135-48 99-46 56-199-31-245 156-121 242 58 194 306 53-59 84-154 101-275 12 88 22 176 10 260 42-8 86-16 134-21 178-168 369-423 439-829 75-434 70-911-150-1372-243-507-567-643-765-580-114 29-230 203-200 385-73 62-62 163-14 281-89-120-120-246-81-367 133-391 343-425 589-310 367 218 616 706 669 1181 64 682-81 1248-416 1606 139-12 302-12 499 5 384-8 696-100 970-255 253-144 458-340 607-570 166-253 283-570 387-905 94-421 127-850 143-1282-11 661-22 1160-241 1730-232 590-549 952-973 1163-238 118-485 201-796 183 497 265 1193 610 1547-124-75 228-209 379-400 457-375 104-716-59-1166-276-188-49-344-64-494-71 700 147 1546 1181 1371 2396 36-900-260-1466-715-1968-270-270-467-319-669-381-113 3-181 12-238 22 54 59 70 107 80 154-59-79-116-118-172-115 101 204 112 360-76 410 37-86 58-153-18-190-59-29-133-7-207 16-28 18-63 16-115-31-24 32-60 43-85 74-651 682-859 1556-944 2778-34 664-91 1290-154 1904-109 770-362 1370-691 1938l-1344 2027-508-50c1452-2044 2148-2290 2469-5760 70-757 191-1418 398-1942 53-133 109-260 170-378-405-9-722 234-887 671 10 133 12 269 5 406 1 288-40 550-81 820 68-129 115-126 150-92-88-6-129 119-121 201 189-180 284 89 241 228-23-107-68-164-122-75-6 129-1 251 8 370 9 120-9 213-86 243 18 166 31 332 34 496-1 642-40 1224-247 1773-350 929-1417 2083-1963 2791l-230-536c660-680 2388-1852 2096-3415-37-145-79-302-285-493-228-140-309-27-420 35-446 564 154 1254 262 637 8 82 8 161-51 221-64 97-146 134-268 38-304-314-137-993 186-1058 421-152 740 532 732 1142 162-455 156-1071 115-1615-67-61-103-141-110-239-8-73-7-149-25-218-52-190-127-201-155-8-98-128-5-461 176-275 18-56-41-159-153-198 53-35 107-8 152 60-7-37-14-75-20-112-71-418-279-842-507-1091-169-155-327-129-462 11-354 422-211 958 40 1247-107-79-177-209-231-361-50-183-70-357-23-561 122-372 366-610 619-453 140 127 282 265 486 764-100-481-98-1084 23-1583zm-1174-933c-315-98-525 224-492 806 9-540 407-98 451-619-121 25-219 92-304 181 88-161 208-276 344-368zm123 2995c95 485 384 677 707 430-318 172-254-551-578-435 73 166 159 283 252 374-136-71-261-204-381-368zm2150-2185c-180 322-420 310-655 21 63 21 107 91 222-46 115-137 264-166 393-84-91 15-130 197-371 171 167 73 294 25 412-63zm4042-3262c128-405-28-892-225-1160 37 94 67 196 47 351-44 228 8 439 104 644-11-207 25-307-33-620 109 300 101 530 106 784zm-591 2837c270-161 344-667 293-1058-9 105-26 208-106 299-130 118-174 323-179 567 76-159 146-194 228-476-13 326-123 482-236 669zm-531 1965c74 488-154 828-371 937 46-63 86-139 85-304-16-254 58-418 173-542-34 191-12 315-102 574 150-174 188-403 215-664zm-1267-482c233 359 256 695 162 1019-1-99-11-202-88-330-128-180-158-390-144-612 68 186 139 258 203 559-12-227-63-435-133-636zm-1021 1628c-172-446-70-920 266-1132-297 259 97 679-177 984-31-201-30-383-12-555-57 210-76 449-77 704zm267 989c329 75 555 511 530 1072-18-543-429-321-484-864 128 92 232 212 322 347-95-208-223-389-368-555zm-251 1322c-243-234-308 6-516 56-36 10-99-24-165-87 65 142 166 233 293 288 120 53 211 46 287 13 103-33 185-139 218-215-148 98-292 172-489 77 156 6 276-44 371-132zm685-1441c-359-307-466-1268-75-1520 91-57 163-44 218 11 52 123 120 113 121 304 41-152 6-269-110-338-45-44-102-62-167-50-467 149-405 1094-91 1556-325-164-594-741-543-1157-43 277-49 596 310 1061 181 186 367 249 556 230-157 193-20 678 172 542 92-94 98-210 53-299-95-187-294 157-38 184-143 275-332-345-79-451 147-37 279-144 398-320 78-162 141-337 179-531 354-1525-807-3171-1661-2370-599 562-626 1082-738 1593-36 205-62 418-63 646-28 483-65 961-111 1432-52 370-115 719-190 1049-335 1198-927 1903-1505 2748l21 82c451-657 1006-1336 1339-2156 118-290 190-602 281-894 54-302 264-613 439-760 499-500 1112 630 511 958 561-131 206-1197-275-1151-228 28-378 247-490 420 244-627 840-954 1297-403-642-842-1241-44-1456 677 55-320 108-640 128-966 24-391 49-770 80-1144 82-309 395-584 485-110 8 125-23 183-93 173 11-110-9-197-73-252-104 22-150 137-66 338 91 125 165 94 232-7 96-200 57-325-1-439-135-230-280-226-435 11 101-710 467-1455 943-1583 335-93 673 110 856 640-86-330-246-577-490-666-612-222-944 337-1259 1041 157-736 609-1329 1108-1375 617-57 1200 877 1207 1845-18 903-319 1496-923 1402zm-2249 2903c143-318 304-599 500-821 301-341 806-253 1067 231-321-365-587-425-911-157-158 139-295 327-402 564-411 905-863 1484-1369 2237l40-415c309-459 840-1115 1075-1640zm3046-3110c-72 58-148 119-164 343-7 101-11 194-32 270 160-110 279-148 262-491-33 138-75 249-138 296 79-169 91-301 72-417zm158-81c73 77 149 158 172 344 10 84-18 156 5 226-187-135-269-214-238-500 37 124 82 231 145 295-83-169-99-280-84-364zm33-107c74-49 152-100 274-8 55 42 88 128 139 142-153 166-231 226-394-6 90 31 171 41 234-2-134 2-207-50-253-126zm-64-205c36-114 75-233 217-259 64-12 123-19 171-52-69 252-93 438-311 414 88-53 158-120 188-218-107 125-191 144-265 115zm-3819-3754c77 119 159 245 348 198 85-21 163-45 233-31-157-271-238-486-510-335 126 17 234 60 299 163-171-94-283-71-370 6zm-132-277c32-167 66-343 208-451 64-49 135-20 182-88-31 408-61 593-308 632 86-115 154-238 180-381-102 219-186 288-261 288zm-101-26c-71-126-145-259-121-525 11-120 67-214 58-317 200 237 281 368 160 761-12-184-39-344-100-450 58 257 46 417 3 531z"/><path d="m3449 299c0 0 935 640 1875 665 0 0 715 40 926 215 0 0 446 306 597 461 0 0 341 560-33 959 0 0-483 502-828-221 0 0-100-582 420-539-3 1 331 55 266 384 0 0-45 139-161 188 0 0 271-387-86-479 0 0-357-81-364 301 0 0-52 352 411 448 0 0 345-73 386-372 0 0 67-262-124-687 0 0-506-469-958-509 0 0-1029-89-1586-344 0 0 536 648 570 969 0 0 788 881 281 1433 0 0-96 118-27-542 0 0 32-570-239-738 0 0 131 769 73 1271 0 0-87 1345 129 1757 0 0 524 187 849-88 0 0 518-386 552-237 0 0-260 478-639 462 0 0-569 77-691-6 0 0 335 680 1051 680 0 0 757 60 1126-709 0 0 100-393 53-557 0 0-128-17-157-149 0 0-11 170-212 218 0 0-82-127 53-326l-226 165c0 0-52 0 141-217l-276 8c0 0-200-102 202-230l-182-147 243 1c0 0-180-194-129-280 0 0 69-65 254 117l26-218 85 167c0 0 65-216 175-232 0 0 90 118 62 261l-11 60 188-112-104 181c0 0 266-15 266 95 0 0-88 127-177 162l140 116-222 18c0 0 127 101 100 258 0 0-184 81-223-81l55 345c0 0 114 603-680 1052l-361 116c0 0-120 417 212 450 0 0 223 32 234-266 0 0-69-172-286-82 0 0 70-160 283-37 0 0 221 242-87 463 0 0-307 82-436-265l-6-232c0 0-401-83-600-154 0 0-215-11-686-645 0 0-368 381-426 1893l-16 242c-45-17-89-35-132-54l97-151c0 0-58-932 315-1793 0 0-827 387-946 1420l-175-104c-22-44-43-92-63-142 102-194 375-690 590-872 0 0-566 162-788 66-12-82-24-166-34-253 235 72 662 165 953 11 0 0-1051-241-688-1103 0 0 314-613 908-156 0 0 333 357-62 693 0 0-495 232-548-335 0 0 28-131 96-75 0 0 65 16-46 104 0 0-25 238 224 306 0 0 344 10 378-254 0 0 114-279-196-487 0 0-384-160-611 94 0 0-295 357-31 796 0 0 260 349 598 316 0 0 324 29 554-271 0 0-205-886-126-1242 0 0 52-1136 31-1204 0 0-112-941-314-1142 0 0-293-461-568-669 0 0 436 1140 15 1605 0 0-496 548-622 545l-31-118c0 0 549-227 692-661 0 0 177-399-123-1312 0 0-307-332-531-334-224-3 136-109 136-109zm3610 3656l17 26c0 0-278 225-411 81 0 0-18-102 394-106zm45-77l-12 28c0 0-329-138-282-331 0 0 73-69 294 303zm101-11l-28 7c0 0-100-359 74-436 0 0 97 20-45 429zm17 118l-20-22c0 0 240-270 393-149 0 0 34 98-373 172zm-47 72l13-27c0 0 303 107 247 290 0 0-73 69-260-263zm-77 8l31 4c0 0 14 366-185 373 0 0-95-54 154-377z"/></g><text x="10500" y="14850" font-family="&apos;Baskerville Old Face&apos;" stroke-linejoin="round" stroke-linecap="round" stroke-width="50" font-size="965.45" transform="matrix(.94503 0 0 .91369-7347.29 5594.73)">Texto 1</text><g font-family="&apos;Arial&apos;" stroke-width="7.62" font-size="846.67"><text x="10500" y="14850" transform="matrix(.90219 0 0 .91369-4766.31 1470.71)">NN 1</text><text x="10500" y="14850" transform="matrix(.90219 0 0 .91369-4684.22 2407.38)">NN 2</text></g></g></g></svg>