<svg xmlns="http://www.w3.org/2000/svg" width="744.09" height="1052.36" viewBox="0 0 21000 29700" shape-rendering="geometricPrecision" image-rendering="optimizeQuality" fill-rule="evenodd" clip-rule="evenodd"><defs><clipPath id="0"><path d="m15461 17301c826 375 2397 302 2873-392 475-691 372-2689 417-3651 113-2408 398-4235 472-6177 82-2157-1484-3618-3372-3985-2593-504-2455 2795-2127 4459 193 917 526 1714 770 2611 449 1652 50 4218 206 5939 80 594 330 982 761 1196"/></clipPath><clipPath id="1"><path d="m5636 17265c-826 375-2396 303-2873-391-475-692-371-2689-416-3651-113-2409-398-4235-472-6178-82-2157 1484-3618 3371-3984 2593-504 2456 2795 2128 4459-194 916-527 1714-770 2610-450 1653-50 4219-206 5939-81 595-330 982-762 1196"/></clipPath></defs><text x="10046" y="19022" fill="#201e1e" font-family="&apos;Arial Black&apos;" stroke="#201e1e" font-weight="900" stroke-width="7.62" font-size="705.56">24</text><g fill="none" stroke-width="80"><g stroke="#322f30"><circle cx="10533" cy="1326" r="460"/><path d="m10533 515v1621"/><path d="m9723 1326h1621"/></g><g stroke="#373435"><circle cx="10498" cy="20686" r="460"/><path d="m10498 19875v1621"/><path d="m9688 20686h1620"/></g></g><rect x="9843" y="17476" width="1347" height="637" rx="318" fill="#fff" stroke="#fff" stroke-width="20"/><g clip-path="url(#0)"><g><g fill="#201e1e"><path d="m17312 9310c-337 220-685 439-1043 658-85 66-56 88 85 65 409-238 796-469 1158-694 233 209 464 395 693 557 78 23 60-21-53-130-125-139-302-302-532-492-67-92-169-80-308 36"/><path d="m17328 9636c-11 106-7 185 11 235 39 35 67 22 85-40-68-187 11-257 239-210 39-45 14-64-74-58-53-12-115-14-184-7-48-11-73 16-77 80"/><path d="m16688 10224c-12 121-8 210 13 267 44 40 76 25 96-45-77-212 13-291 271-238 45-51 17-73-83-66-60-14-130-17-209-8-54-13-83 17-88 90"/><path d="m16346 10767l-8-640 70 40-4 488 889-11-12-603 462-26 12 51-347 72 8 604z"/><path d="m18121 9914l-197 11v585l-184 22-35 101 62 26 354-8z"/><path d="m15512 9439l-7-662 554-3 4-409 577-25 43 1045 115 83-4-1244-897-14v376l-515-22-97 65 139 781c0 0 81 40 88 29"/><path d="m15597 9081c39-4 170 11 170 11l-8-221-193 8 31 202"/><path d="m15855 8868l177-4 4 217-185-7z"/><path d="m16167 8401l185-3-8 228h-181z"/><path d="m16463 8387l120 18 4 217-135 4z"/><path d="m16665 9553c-270-106-592-66-966 119-132 15-134-19-8-101 441-220 807-251 1098-94 146 79 104 105-124 76"/><path d="m15162 3764l31 644 1578 21v-123l-1463 44 8-586z"/><path d="m15408 3938l362 50 778-21-46-145-670-7z"/><path d="m15455 4169v51h1070l31-152-886 36z"/><path d="m15418 3715l-135-18 300-289c0 0 143-126 201 4 57 130 42 155 42 155 0 0 54 40 89-25 34-65 157-134 157-134 0 0 54-58 108 18 54 76 200 105 200 105l228-11 84-527 162-58 123 636-8 802-146 29-38-723-118-45h-285c0 0-211-32-219-76-8-43-89-47-139 36-50 84-127 102-127 102 0 0-100 65-142-29-43-94-54-134-54-134 0 0-46-90-62-4-15 87-221 186-221 186"/><path d="m14765 4981l832 7 8 368 119 33-8-506h-739l-227 47z"/><path d="m14688 5584l4-473 701-22-8 76-231 72-335-25-38 69-8 260-58 47z"/><path d="m14200 5208l265-3-23 300-69-40-16-206h-142z"/><path d="m14146 4865l208 18-4 195 111 4v-279l-277 11z"/><path d="m13957 5624l27-774 481-361 955 419h127l-50-155-878-441-185-7-581 339-4 861z"/><path d="m17664 11624l23 412h1279l46 151-1463 37 15-709z"/><path d="m17772 11732l331 7 8 138h146l-46-261-431 22z"/><path d="m18350 11562l69 98 477-18 23 177 104 61-46-361z"/><path d="m17822 11494l81-561 69-3 204 455 74 33-4-264-108-344-289-47-100 87-19 560z"/><path d="m18330 11385l89-672 296-25 239 621-185 65-69-112-54-405-112-14-46 510c0 0-158 28-158 32"/><path d="m14558 16320l-8-661 554-4 4-408 578-25 42 1044 116 83-4-1243-897-14v375l-516-21-96 65 138 781c0 0 81 39 89 28"/><path d="m14642 15963c39-4 170 10 170 10l-8-220-192 7 30 203"/><path d="m14900 15749l177-3 4 217-185-8z"/><path d="m15212 15283l185-3-8 227h-181z"/><path d="m15509 15269l119 18 4 217-135 3z"/><path d="m15711 16434c-271-105-593-65-967 120-132 14-134-19-7-102 441-219 806-250 1097-94 146 80 105 105-123 76"/><path d="m16114 16094c-154-29-170 7-170 7l-23-2140 801-50 23 527-100 22 16-354-570-7 23 1995"/><path d="m16012 14165l670 8v112l-659 14z"/><path d="m16039 14371l627-21 4 108-627 11z"/><path d="m16593 14783c-8 19 16 109 16 109l427 18 11-108-454-19"/><path d="m16632 14961l408 14-8 65-416 4z"/><path d="m16656 15281l602-12 4 142-593 13z"/><path d="m16679 15495h595v106l-589 16z"/><path d="m16683 15674l583 5 10 114-586 12c0 0-9-131-7-131"/><path d="m16571 16017l-19-1290 543-11-8 433 138 19 20-608-836 22-27 1167 54 286z"/><path d="m16725 15178l620 11 46 788 123 4-54-879-716-10z"/><path d="m15508 13838c21 4 41 10 61 18 89-70 158-106 180-88 20 18-9 82-70 167 22 25 39 54 50 85 103 13 170 34 170 59 1 25-60 48-156 65-4 33-15 65-30 93 58 69 87 121 70 139-17 18-74-1-152-47-37 28-82 47-130 55-16 85-39 138-64 138-25 0-48-55-64-143-33-8-64-21-92-39-77 58-136 86-155 69-20-17 7-79 65-161-16-27-28-57-34-89-110-13-181-35-182-61 0-27 75-53 191-70 6-19 15-38 25-55-78-85-119-151-100-172 20-21 97 10 198 75 24-14 49-25 77-33 15-114 42-188 71-188 29 0 55 72 71 183m-71 101c88 0 160 67 160 150 0 82-72 150-160 150-88 0-160-68-160-150 0-83 72-150 160-150"/><path d="m16327 16178c-337 219-685 438-1044 657-84 67-56 88 85 66 410-239 796-470 1159-694 233 208 464 394 693 556 78 23 60-21-54-130-125-138-302-302-531-491-67-93-170-81-308 36"/><path d="m16342 16503c-11 107-7 185 12 235 38 35 67 22 84-40-68-187 12-256 239-209 39-45 15-65-73-58-54-13-115-15-185-8-47-11-73 16-77 80"/><path d="m15703 17091c-13 122-8 210 13 267 44 40 76 25 96-45-77-212 13-291 271-238 44-51 17-73-83-66-61-14-131-16-210-8-54-13-83 18-87 90"/><path d="m15360 17634l-7-639 69 39-4 488 889-11-11-603 462-26 11 51-346 72 8 604z"/><path d="m17135 16781l-196 11v586l-185 21-35 102 62 25 354-7z"/><path d="m17784 4570l81-184 539-18-204 1962-147-36 108-1709z"/><path d="m17179 4129l705-36-4 123-254-4-277 102 127 1536-166 14-154-1012-339 44 255 1380-120 145-435-1681 605-83 38-531z"/><path d="m17426 4353l181 4 4 249-181-7z"/><path d="m17480 4722l123 4v144h-120z"/><path d="m17495 4993l173 11-4 166-188-7z"/><path d="m17537 5286l23 199 131-11-27-199z"/><path d="m17922 5915h116v-130h-127z"/><path d="m17912 5683l119-8 8-103-129 2z"/><path d="m17916 5455l144-2 23-172-169 8z"/><path d="m17908 5162l185 7-8-233-175 6z"/><path d="m17923 4821l177-2-2-172-194 7z"/><path d="m18180 6349c-595-271-1021-218-1278 159-108 113-105 146 8 101 255-288 681-324 1278-109 240 62 238 11-8-151"/><path d="m16931 4979h162v231h-162z"/><path d="m17008 5427h139v188h-139z"/><path d="m16521 11380l81-185 539-18-204 1963-146-36 107-1710z"/><path d="m15917 10939l704-36-4 122-254-3-277 101 127 1536-165 15-154-1012-339 43 254 1381-120 144-435-1680 605-84 38-531z"/><path d="m16163 11163l181 3 4 250-181-7z"/><path d="m16217 11531l123 4v145h-119z"/><path d="m16232 11803l174 10-4 167-189-8z"/><path d="m16275 12095l23 199 131-11-27-199z"/><path d="m16660 12724h115v-130h-127z"/><path d="m16649 12492l119-7 8-103-129 2z"/><path d="m16653 12264l144-2 23-171-169 7z"/><path d="m16645 11972l185 7-8-233-175 5z"/><path d="m16661 11630l177-2-2-172-195 8z"/><path d="m16917 13158c-595-270-1021-217-1278 159-107 113-105 147 8 101 255-287 681-323 1278-108 240 61 238 11-8-152"/><path d="m15655 11750h196v257h-196z"/><path d="m15705 12173h185v224h-185z"/><path d="m15786 12498h162v224h-162z"/><path d="m13876 6939l23 413h1278l47 151-1463 36 15-708z"/><path d="m13984 7048l331 7 8 137h146l-46-260-431 22z"/><path d="m14561 6878l70 98 477-18 23 177 104 61-46-361z"/><path d="m14034 6809l81-560 69-3 204 455 73 32-4-263-107-344-289-47-100 87-19 560z"/><path d="m14542 6701l89-672 296-26 239 622-185 65-69-112-54-405-112-14-46 509c0 0-158 29-158 33"/><path d="m18831 15254l81-184 539-18-204 1962-147-36 108-1709z"/><path d="m18226 14813l705-36-4 123-254-4-277 102 127 1536-166 14-154-1012-338 44 254 1380-120 145-435-1681 605-83 38-531z"/><path d="m18473 15037l181 4 4 249-181-7z"/><path d="m18527 15406l123 4v144h-119z"/><path d="m18542 15677l173 11-3 166-189-7z"/><path d="m18585 15970l23 199 131-11-27-199z"/><path d="m18970 16599h115v-130h-127z"/><path d="m18959 16367l119-8 8-103-129 2z"/><path d="m18963 16139l144-2 23-172-169 8z"/><path d="m18955 15846l185 7-8-233-175 6z"/><path d="m18970 15505l178-2-2-172-195 7z"/><path d="m19227 17032c-595-270-1021-217-1278 160-108 113-105 146 8 101 255-288 681-324 1278-109 240 62 238 11-8-152"/><path d="m17965 15625h196v257h-196z"/><path d="m18015 16048h185v224h-185z"/><path d="m18095 16373h162v224h-162z"/><path d="m17410 12603l-61 868 1832 28-185-187-1432 43z"/><path d="m18640 12418l164-755 231 8 130 755h28l38 990-81-119-30-622-1510-144 12-127 1018 14m432 6l-122-529-122 526 244 3"/><path d="m18119 13174l939 29-46-455-570 29 8 115 423-14 16 130-655 36z"/><path d="m13899 10449l-61 867 1832 29-185-188-1432 44z"/><path d="m15129 10264l164-755 231 7 130 755 28 1 38 990-81-119-30-622-1510-144 12-127 1018 14m432 6l-122-529-122 526 244 3"/><path d="m14608 11020l939 29-46-455-570 28 8 116 423-14 16 130-655 36z"/><path d="m13680 13386l-8-662 555-3 3-409 578-25 42 1044 116 84-4-1244-897-14v376l-516-22-96 65 138 781c0 0 81 39 89 29"/><path d="m13765 13028c38-4 169 11 169 11l-8-221-192 7 31 203"/><path d="m14023 12815l177-4 3 217-184-7z"/><path d="m14334 12348l185-3-8 227h-180z"/><path d="m14631 12334l119 18 4 217-135 3z"/><path d="m14833 13499c-271-105-593-65-966 120-132 15-135-19-8-101 441-220 807-251 1097-94 146 79 105 105-123 75"/><path d="m19709 8560l81-184 539-18-205 1963-146-36 108-1710z"/><path d="m19104 8120l705-37-4 123-254-3-277 101 127 1536-166 14-154-1012-339 44 254 1380-119 145-435-1681 605-83 38-531z"/><path d="m19351 8344l181 3 3 250-180-8z"/><path d="m19405 8712l123 4v144h-120z"/><path d="m19420 8983l173 11-4 166-188-7z"/><path d="m19462 9276l23 199 131-11-27-199z"/><path d="m19847 9905h116v-130h-127z"/><path d="m19837 9673l119-7 8-103-129 1z"/><path d="m19841 9445l144-2 23-171-169 7z"/><path d="m19833 9152l185 8-8-234-175 6z"/><path d="m19848 8811l177-2-2-172-194 8z"/><path d="m20105 10339c-595-270-1021-217-1278 159-108 113-105 147 8 101 255-287 681-324 1278-108 240 61 238 11-8-152"/><path d="m18842 8931h196v257h-196z"/><path d="m18892 9354h185v224h-185z"/><path d="m18973 9679h162v224h-162z"/><path d="m18565 7220l31 643 1578 22v-123l-1463 43 8-585z"/><path d="m18812 7393l361 51 778-22-46-145-670-7z"/><path d="m18858 7624v51h1070l31-152-886 36z"/><path d="m18821 7171l-135-18 301-289c0 0 142-127 200 3 58 130 42 156 42 156 0 0 54 39 89-26 34-65 158-133 158-133 0 0 54-58 107 18 54 76 201 104 201 104l227-10 85-528 161-58 123 636-7 803-147 29-38-723-117-46h-285c0 0-212-32-220-75-8-44-88-47-138 36-50 83-127 101-127 101 0 0-101 65-143-29-42-94-54-134-54-134 0 0-46-90-61-3-16 86-222 186-222 186"/><path d="m18673 5924l-62 867 1833 29-185-188-1432 44z"/><path d="m19903 5739l164-755 231 7 129 755 28 1 39 990-81-119-31-622-1509-144 12-127 1018 14m432 6l-122-530-123 527 245 3"/><path d="m19381 6495l940 29-47-456-569 29 7 116 424-14 15 130-654 36z"/><path d="m17595 14275l31 643 1578 22v-123l-1463 43 8-585z"/><path d="m17841 14448l362 51 778-22-46-144-670-8z"/><path d="m17888 14680v50h1070l31-152-886 37z"/><path d="m17851 14226l-135-18 301-289c0 0 142-127 200 3 58 131 42 156 42 156 0 0 54 40 89-25 34-66 157-134 157-134 0 0 54-58 108 18 54 76 200 105 200 105l228-11 84-528 162-58 123 636-7 803-147 29-38-723-118-45h-285c0 0-211-33-219-76-8-44-89-47-139 36-50 83-127 101-127 101 0 0-100 65-142-29-42-94-54-134-54-134 0 0-46-90-62-3-15 87-221 186-221 186"/><path d="m13419 15458c-154-29-169 7-169 7l-23-2140 800-50 23 527-100 22 16-354-570-8 23 1996"/><path d="m13317 13529l670 8v112l-658 14z"/><path d="m13344 13735l627-21 4 108-627 11z"/><path d="m13898 14147c-7 18 16 109 16 109l427 18 12-109-455-18"/><path d="m13937 14324l408 15-8 65-416 4z"/><path d="m13961 14645l602-12 4 142-593 13z"/><path d="m13984 14858h595v107l-589 16z"/><path d="m13988 15037l583 6 10 114-585 12c0 0-10-132-8-132"/><path d="m13876 15381l-19-1291 543-10-8 433 139 18 19-607-836 22-26 1167 53 286z"/><path d="m14030 14542l620 11 46 788 123 4-54-879-716-11z"/><path d="m12813 13201c21 4 42 11 61 19 89-70 159-106 180-88 20 18-8 82-70 167 22 25 39 54 50 85 104 13 170 34 170 59 1 25-60 48-156 65-4 33-15 65-30 93 59 69 87 121 70 139-16 18-73-2-151-47-38 28-82 47-131 55-16 85-39 138-64 138-25 0-48-55-64-143-33-8-64-21-91-39-78 57-137 85-156 69-20-17 7-79 65-161-16-27-28-57-34-90-110-12-181-34-181-60-1-28 74-53 190-70 6-20 15-38 25-55-78-85-119-152-99-172 19-21 96 10 197 75 24-14 50-26 77-33 16-114 42-188 71-188 30 0 55 72 71 182m-71 102c89 0 160 67 160 150 0 82-71 150-160 150-88 0-159-68-159-150 0-83 71-150 159-150"/><path d="m13526 9092l-8-662 555-3 3-409 578-25 42 1045 116 83-4-1244-897-14v376l-516-22-96 65 138 781c0 0 81 40 89 29"/><path d="m13611 8734c38-4 169 11 169 11l-8-221-192 8 31 202"/><path d="m13869 8521l177-4 3 217-184-7z"/><path d="m14180 8054l185-3-8 228h-180z"/><path d="m14477 8040l119 18 4 217-135 4z"/><path d="m14679 9206c-271-106-593-66-966 119-132 15-135-19-8-101 441-220 807-251 1097-94 146 80 105 105-123 76"/><path d="m16034 5580c-337 220-685 439-1043 658-85 66-57 88 84 65 410-238 796-469 1159-694 233 209 464 395 693 557 78 23 60-21-54-130-124-139-301-302-531-492-67-92-169-80-308 36"/><path d="m16049 5906c-10 106-6 185 12 235 39 35 67 22 85-40-68-187 11-257 238-210 39-45 15-64-73-58-53-12-115-14-185-7-47-11-73 16-77 80"/><path d="m15410 6494c-12 121-8 210 13 267 44 40 76 25 96-45-77-212 13-291 271-238 45-51 17-73-83-66-61-14-131-17-210-8-53-13-83 17-87 90"/><path d="m15068 7037l-8-640 69 40-3 488 889-11-12-603 462-26 12 51-347 72 8 604z"/><path d="m16843 6184l-197 11v585l-185 22-34 101 61 26 355-8z"/><path d="m17084 9154c-154-29-169 7-169 7l-23-2139 800-51 23 528-100 21 16-354-570-7 23 1995"/><path d="m16982 7226l670 7v112l-658 15z"/><path d="m17009 7432l627-22 4 109-627 11z"/><path d="m17563 7844c-7 18 16 108 16 108l427 18 12-108-455-18"/><path d="m17602 8021l408 15-8 65-416 3z"/><path d="m17626 8342l602-13 4 143-593 13z"/><path d="m17649 8555h595v107l-589 16z"/><path d="m17653 8734l583 5 10 114-585 13c0 0-10-132-8-132"/><path d="m17541 9077l-19-1290 543-11-8 434 139 18 19-607-836 21-26 1168 53 285z"/><path d="m17695 8239l620 11 46 788 123 3-54-878-716-11z"/><path d="m16478 6898c21 4 42 10 61 18 89-70 159-106 180-87 20 17-8 81-70 167 22 25 39 53 50 84 104 13 170 35 170 60 1 24-60 47-156 64-4 34-15 65-30 94 59 69 87 121 70 139-16 17-73-2-151-47-38 27-82 47-131 55-16 85-39 138-64 138-25 0-48-55-64-143-33-8-64-22-91-39-78 57-137 85-156 68-20-17 7-78 65-160-16-28-28-58-34-90-110-13-181-35-181-61-1-27 74-52 190-70 6-19 15-37 25-55-78-85-119-151-99-172 19-20 96 11 197 75 24-14 50-25 77-32 16-114 42-189 71-189 30 0 55 72 71 183m-71 101c89 0 160 67 160 150 0 83-71 150-160 150-88 0-159-67-159-150 0-83 71-150 159-150"/></g><text x="10500" y="14850" fill="#373435" font-family="&apos;Arial Black&apos;" font-weight="900" font-size="529.17" transform="matrix(.71328 0 0 .66965 7850.06-2042.49)">NN 1</text></g></g><g clip-path="url(#1)"><g><g fill="#201e1e" stroke="#201e1e" stroke-width="7.62"><path d="m3889 11664l-121-1-10-329 36 4 34 108-12 158 32 18 41 1v-406l-5 18-174 4-3 390-24 7-22-106v-181l-186 421 170 226 244 9v-188l-51 4v67l-24 7-2-125 77 6v-112zm121 1946v-123-784-694-855-1452-25-1113-1293-131-1581-201h-121v199l-281-2 25 34 256-1v444l-335-5-16 231 32 6 45-174 274 3v156l-26 7-14 92h-368l-7 98h130v63l285-3v653l-337-13-28-51v-124c0 0-20-91-46-95-27-3-29-38 22-60 50-22 62-55 62-55 0 0 39-43-18-62-58-18-82-23-82-23 0 0-55-20-2-27 53-7 114-96 114-96l-11-58-177 130c0 0-77 62 2 87 80 25 95 18 95 18 0 0 24 23-15 39-40 15-82 68-82 68 0 0-35 23 11 47 46 23 64 87 64 87l-7 98-322 37-36 70 389 54 404-3v28l-385 12v11l-356 48-4 87 356 61-6 383 59 4 69-567 267-10v603l-64 11h-217l2 35-23 3 24 2 2 33h276v192l-175 2-34-130-24 4 12 174 221-4v201c-3-7-13-12-30-15-100 29-138-5-113-102-24-17-34-6-31 31-6 23-7 49-3 79-6 20 8 31 42 33 57 4 99 3 126-5 4-4 8-8 9-11v122l-162-1-18 26 180-2v53c-3 4-7 8-11 13-100 175-106 311-19 408l-198 2v33l-468 68-20-127 477-58-7-62-724 48-48-104 1-96-57-1 17 264-2 8 250 14 40 227 456-94-185 292-3 70 37 50-329 57 36 91 322 47 7 127c0 0-18 81-64 111-46 30-11 60-11 60 0 0 42 69 82 88 39 20 15 50 15 50 0 0-15-9-95 23-79 32-2 112-2 112l177 167 11-75c0 0-61-115-114-123-53-9 2-35 2-35 0 0 24-6 82-30 57-23 18-79 18-79 0 0-11-43-62-71-51-28-49-73-22-77 26-5 46-123 46-123v-158l7-17 17 23 341 1v749l-285-3v86l285-13v7l-350 17-1 88-254-7 10 314 550 10 45-7v109l-649 6-4-207v-2l-1-7h-1l-8-28-249 8 24 301 888-8v24l-228 3v84l-62 20-208 412-3 87 159 271-562 2-10 504h266l-16 290 46 54 552-77c0 0 28-46 20-50l-467 4-3-312-288-2-18-325 738-23 55-62h11l-1 2c-98 145-92 323 19 535v841l-162 7-51 37 213 4v125h121zm-121-7164v6l-153-6h153zm0 2375v114c-6-35-6-73 0-114zm0 248v7l-2-1 2-6zm0 28v297l-41-1-32-15 12-126-34-86-36-3 10 263 121 1v89l-77-5 1 54-153-2 1-10 92 1 2-41h-132l3 50-103-1-48-51 186-337v145l22 85 24-6 3-265 179-36zm0 452v16h-51v-13l51-3zm0 104v46l-244-7-24-26 268-13zm0 961v306l-527 6-5-203 180 2-3 129 41 7 5-232 309-15zm0 1622v146c-8-51-8-99 0-146zm-179-5687l31 157-14 337-88-20-5-290 76-184zm141 20h31v464l-93 14 22-385 40-93zm-811 2210l-87-30-9-202 703 58c-4-3-9-7-13-12-104-135-207-265-311-392-55-52-61-90-17-115 89-87 167-153 232-200 52-43 72-49 61-20-76 86-164 173-262 260 106 136 215 281 327 435 5 23 6 39 2 45l204 17-17 55-807-40-6 141zm-103 135l2-68 118-1-4 67-116 2zm174-20l2-47h68v45l-70 2zm128-6l5-65 78 1-3 71-80-7zm138-16l94-9-5-49-94 10 5 48zm297-145v-43h-62v48l62-5zm-110 4l-3-44-49-3 1 48 51-1zm-107-1l-1-54-81-9 3 64 79-1zm-138 3l3-70-110 3 3 66 104 1zm-161-6l-1-66h-81l3 73 79-7zm74 373v-61h109v61h-109zm212-29v-52h88v52h-88zm266 1365l31-201-14-434-88 26-5 373 76 236zm141-25h31v-597l-93-17 22 494 40 120zm-756-4369c138-169 275-343 413-522 42-42 56-28 41 42-150 205-295 399-436 580 131 117 248 232 350 347 14 39-13 30-82-27-87-62-190-151-309-266-58-33-50-85 23-154zm204 8c67-6 117-4 148 6 22 19 14 33-25 42-117-34-161 6-132 119-28 20-40 8-36-36-8-27-9-58-5-93-7-23 10-36 50-38zm370-320c76-6 132-4 168 6 25 22 15 38-29 48-133-38-183 7-149 136-32 22-46 8-41-41-9-31-11-66-6-105-8-27 11-42 57-44zm109 7673l4-124 65-3v-55l-123 18 10 161 44 3zm-80-217l46-26-8-179 83-9 29-39-170 18 20 235zm-32 199l-264-31-2-26 215-76 15-28-124 1-162 41-22 108 40 38 265 7 39-34zm-51-191l-317-34-12-111 293-90 31 70-53 26-191 20-7 42 240 17c0 0 14 60 16 60zm-25-463c-2-22 8-95 8-95l-156 4 5 108 143-17zm-150-145l-3-100 153-2-5 104-145-2zm-330-175l-2-104 161 4v102l-159-2zm-10-167l13-67 153-2 3 75-169-6zm377-4049c50 5 87 3 110-4 17-14 11-25-18-32-88 26-121-4-99-89-21-15-30-6-27 27-6 20-7 43-4 70-5 17 7 27 38 28zm-292 2695l-31-2 6 211 34-1-9-208zm-84-3l-32-1-3 213h32l3-212zm288 24c8 3 51-6 51-6l9-160-52-5-8 171zm83-15l7-153 31 3 2 156-40-6zm152-9l-6-226 67-1 6 222-67 5zm100-8v-224h51l7 221-58 3zm85-2l2-219 54-3 6 219c0 0-62 4-62 3zm-866 441c2-8 5-15 8-22-33-34-50-60-41-68 8-8 39 3 79 26 12-8 25-14 40-19 6-39 16-63 28-64 11 0 22 23 30 59 16 2 31 6 44 11 33-22 57-32 66-26 8 6-1 28-22 57 13 14 22 31 26 49 40 6 65 15 65 24 0 9-26 18-68 24-4 12-10 24-18 34 27 29 40 52 32 59-8 7-37-3-76-25-13 7-27 11-42 13-6 41-16 68-29 68-12 1-24-28-32-71-10-2-18-6-27-10-39 30-71 45-80 38-10-8 4-37 35-74-7-9-12-19-16-29-53-6-88-16-88-27 0-11 34-21 86-27zm47 27c0-33 32-60 71-60 39 0 71 27 71 60 0 33-32 60-71 60-39 0-71-27-71-60zm513-4033l-250 46 249 46 1-92zm149 4608l9-97 92 1 2-52h-132l5 130 24 18zm205-4250l13-352-214 17 13 214 55-3-7-159 61-6 17 246 62 43z" stroke-linejoin="round" stroke-linecap="round"/><text x="10500" y="14850" font-family="&apos;Bauhaus 93&apos;" font-size="2121.73" transform="matrix(0-.33808.46887 0-2022.32 17070.9)">Arquitetura e Urbanismo</text></g><g fill="#373435"><text x="10500" y="14850" font-family="&apos;Arial Black&apos;" font-weight="900" font-size="529.17" transform="matrix(.71328 0 0 .66965-1399.87-2077.77)">NN 1</text><g font-family="&apos;Bauhaus 93&apos;"><g font-size="776.11"><text x="10500" y="14850" transform="matrix(.71328 0 0 .66965-4979.14 5395.16)">Texto 01</text><text x="10500" y="14850" transform="matrix(.71732 0 0 .66965-5019.08 6038.17)">Texto 02</text></g><text x="10500" y="14850" font-size="609.35" transform="matrix(.71328 0 0 .66965-4212.88 7146.12)">00.00.0000</text></g></g></g></g><g fill="#373435" font-family="&apos;Arial&apos;" font-size="423.33"><text x="554" y="28433">DESC 1</text><text x="557" y="28869">DESC 2</text><text x="554" y="29307">DESC 3</text></g></svg>