<svg xmlns="http://www.w3.org/2000/svg" width="744.09" height="1052.36" viewBox="0 0 21000 29700" shape-rendering="geometricPrecision" image-rendering="optimizeQuality" fill-rule="evenodd" clip-rule="evenodd"><defs><clipPath id="0"><path d="m14756 23775c1158 560 3360 452 4028-584 666-1033 520-4016 584-5453 158-3596 558-6324 661-9225 115-3221-2080-5403-4726-5950-3635-753-3443 4174-2983 6659 271 1368 738 2560 1080 3898 630 2468 69 6300 289 8869 112 888 462 1466 1067 1786"/></clipPath><clipPath id="1"><path d="m6281 23775c-1159 560-3360 452-4029-584-666-1033-520-4016-583-5453-159-3596-559-6324-662-9225-115-3221 2081-5403 4727-5950 3635-753 3442 4174 2982 6659-271 1368-738 2560-1079 3898-631 2468-70 6300-289 8869-113 887-463 1466-1067 1786"/></clipPath></defs><text x="10081" y="24465" fill="#201e1e" font-family="&apos;Arial Black&apos;" stroke="#201e1e" font-weight="900" stroke-width="7.62" font-size="705.56">34</text><g fill="none" stroke-width="80"><g stroke="#322f30"><circle cx="10533" cy="1326" r="460"/><path d="m10533 515v1621"/><path d="m9723 1326h1621"/></g><g stroke="#373435"><circle cx="10533" cy="25836" r="460"/><path d="m10533 25026v1621"/><path d="m9723 25836h1621"/></g></g><rect x="9843" y="22866" width="1347" height="637" rx="318" fill="#fff" stroke="#fff" stroke-width="20"/><g clip-path="url(#0)"><g><g fill="#201e1e"><path d="m17351 11843c-473 327-960 655-1463 982-118 99-79 132 119 97 574-356 1116-701 1625-1036 326 312 650 589 971 831 109 34 84-31-75-194-175-207-423-451-745-734-94-138-238-121-432 54"/><path d="m17372 12329c-15 159-9 276 17 351 54 52 94 33 118-60-95-279 16-383 335-313 55-67 21-96-102-86-76-19-162-22-260-11-66-17-102 23-108 119"/><path d="m16476 13207c-17 181-11 314 18 399 62 60 107 37 135-68-108-316 18-435 380-355 62-76 23-109-116-98-86-21-184-25-294-12-76-19-117 26-123 134"/><path d="m15996 14018l-11-955 98 59-6 729 1247-16-16-902 647-38 17 76-486 108 11 901z"/><path d="m18484 12744l-275 17v874l-259 32-49 151 87 38 496-11z"/><path d="m14828 12035l-11-988 777-6 5-609 810-38 59 1560 162 124-5-1857-1258-22v562l-723-33-135 98 194 1165c0 0 114 60 125 44"/><path d="m14946 11500c54-5 238 16 238 16l-11-329-270 11 43 302"/><path d="m15308 11182l248-6 6 324-259-11z"/><path d="m15745 10485l259-5-11 340h-253z"/><path d="m16161 10464l167 27 5 324-188 5z"/><path d="m16444 12205c-379-158-831-99-1355 178-185 22-188-29-10-151 618-328 1131-375 1538-141 204 119 147 157-173 114"/><path d="m14336 3561l43 961 2213 32v-184l-2051 65 11-874z"/><path d="m14682 3820l507 75 1090-32-64-216-940-11z"/><path d="m14746 4165v76h1501l43-227-1241 54z"/><path d="m14695 3488l-189-27 421-432c0 0 200-189 281 6 81 194 59 232 59 232 0 0 76 59 124-38 49-97 222-200 222-200 0 0 75-86 151 27 75 113 280 157 280 157l319-17 119-788 226-86 173 950-11 1198-205 43-54-1079-164-68h-400c0 0-297-48-307-113-11-65-125-70-195 54-70 124-178 151-178 151 0 0-140 97-199-43-60-140-76-200-76-200 0 0-65-135-86-5-22 129-311 278-311 278"/><path d="m13780 5377l1166 11 11 550 167 49-10-756h-1037l-318 70z"/><path d="m13672 6278l6-707 982-32-11 113-323 108-470-38-54 103-11 389-81 70z"/><path d="m12987 5717l372-5-32 448-97-60-22-307h-199z"/><path d="m12911 5204l292 27-5 292 156 5v-415l-389 16z"/><path d="m12647 6338l38-1155 674-540 1339 626h178l-70-232-1231-658-259-11-815 507-5 1285z"/><path d="m17845 15297l32 616h1792l65 226-2051 54 21-1058z"/><path d="m17996 15459l464 11 11 205h205l-65-389-604 33z"/><path d="m18805 15206l97 145 670-27 32 265 146 91-65-539z"/><path d="m18066 15103l113-837 97-5 286 680 103 49-5-394-152-513-404-70-141 129-27 837z"/><path d="m18778 14941l124-1004 416-38 335 929-259 97-97-167-76-605-157-22-64 761c0 0-222 44-222 49"/><path d="m13489 22311l-11-988 778-5 5-610 810-38 59 1560 162 124-6-1856-1257-22v561l-723-32-135 97 194 1166c0 0 113 59 124 43"/><path d="m13608 21777c54-6 237 16 237 16l-10-329-270 11 43 302"/><path d="m13969 21458l249-5 5 324-259-11z"/><path d="m14407 20762l259-5-11 340h-254z"/><path d="m14822 20740l168 27 5 324-189 6z"/><path d="m15106 22481c-380-157-831-98-1355 178-185 22-189-28-11-151 618-328 1131-374 1538-140 205 119 147 157-172 113"/><path d="m15671 21972c-216-43-238 11-238 11l-32-3195 1123-76 32 788-140 33 21-529-799-11 33 2979"/><path d="m15528 19093l939 11v167l-923 22z"/><path d="m15566 19401l879-33 6 162-880 16z"/><path d="m16343 20016c-11 27 21 162 21 162l600 27 16-162-637-27"/><path d="m16397 20280l572 22-11 97-583 6z"/><path d="m16431 20759l844-18 6 213-832 19z"/><path d="m16463 21078h834v159l-826 24z"/><path d="m16468 21345l818 8 13 170-820 19c0 0-13-197-11-197"/><path d="m16312 21858l-27-1927 761-16-11 647 194 27 27-906-1171 32-38 1743 76 427z"/><path d="m16528 20606l869 16 64 1176 173 6-75-1312-1004-16z"/><path d="m14821 18603c30 6 59 16 86 28 125-105 222-158 252-131 29 26-12 122-98 249 31 37 55 80 71 127 144 19 237 51 238 89 1 36-84 70-219 96-6 49-21 97-43 139 83 103 123 181 99 208-23 26-103-3-213-70-52 41-115 70-183 82-22 127-54 206-89 206-35 0-68-82-90-213-46-13-90-33-128-59-109 86-191 127-218 103-28-26 9-118 91-241-23-40-39-85-48-133-154-19-253-52-254-91-1-41 104-79 266-104 9-29 21-57 36-83-110-126-167-225-140-256 28-31 136 15 278 111 33-21 69-37 107-48 22-170 59-281 100-281 41 0 77 107 99 272m-99 151c124 0 224 101 224 224 0 124-100 224-224 224-123 0-224-100-224-224 0-123 101-224 224-224"/><path d="m15969 22098c-473 327-960 655-1462 982-119 99-80 131 118 97 575-356 1116-701 1625-1036 327 312 650 589 971 831 109 34 84-31-75-194-175-207-423-451-745-734-94-139-238-121-432 54"/><path d="m15991 22584c-15 159-10 276 16 351 54 52 94 32 119-60-96-279 16-383 334-313 55-67 21-96-102-86-75-19-162-22-259-11-67-17-103 23-108 119"/><path d="m15094 23462c-17 181-11 314 19 399 61 60 106 37 134-68-108-316 19-435 380-355 63-76 24-109-116-98-85-21-183-25-294-12-76-19-117 26-123 134"/><path d="m14614 24273l-10-955 97 59-6 729 1247-16-16-902 648-38 16 76-486 108 11 901z"/><path d="m17103 22999l-276 16v875l-259 32-48 151 86 38 497-11z"/><path d="m18012 4764l113-275 756-27-286 2931-205-54 151-2553z"/><path d="m17165 4106l987-54-5 183-356-5-389 151 178 2294-232 22-216-1512-475 65 356 2062-167 216-610-2510 848-124 54-793z"/><path d="m17510 4441l254 5 5 372-254-10z"/><path d="m17586 4991l172 5v216h-167z"/><path d="m17607 5396l243 16-5 248-265-10z"/><path d="m17667 5833l32 297 183-16-37-297z"/><path d="m18206 6772h162v-194h-178z"/><path d="m18191 6425l168-10 11-154-181 3z"/><path d="m18197 6085l202-2 33-257-238 11z"/><path d="m18186 5648l259 11-11-348-245 8z"/><path d="m18208 5138l248-3-3-256-272 11z"/><path d="m18568 7420c-835-403-1432-324-1792 237-151 169-148 220 11 151 358-429 955-483 1792-161 336 92 333 16-11-227"/><path d="m16816 5374h227v345h-227z"/><path d="m16924 6044h194v281h-194z"/><path d="m16242 14933l113-275 756-27-286 2930-206-54 152-2552z"/><path d="m15394 14274l988-53-5 183-357-5-388 151 178 2294-232 21-216-1511-475 65 356 2062-167 215-610-2509 847-124 54-794z"/><path d="m15740 14609l253 6 6 372-254-11z"/><path d="m15815 15160l173 5v216h-167z"/><path d="m15837 15564l243 17-6 248-264-11z"/><path d="m15896 16002l33 296 183-16-38-297z"/><path d="m16436 16941h162v-195h-178z"/><path d="m16421 16594l167-11 11-154-181 3z"/><path d="m16427 16254l202-3 32-256-237 11z"/><path d="m16416 15817l259 11-11-349-246 9z"/><path d="m16437 15307l249-3-3-256-273 10z"/><path d="m16797 17588c-834-403-1431-324-1791 238-151 169-148 219 10 151 358-429 956-483 1792-162 337 92 334 17-11-227"/><path d="m15027 15486h275v383h-275z"/><path d="m15097 16118h259v335h-259z"/><path d="m15211 16603h227v335h-227z"/><path d="m12534 8302l32 616h1792l65 226-2051 54 21-1058z"/><path d="m12685 8464l464 11 11 205h205l-65-388-604 32z"/><path d="m13494 8211l98 145 669-27 32 265 146 92-65-540z"/><path d="m12755 8108l113-837 97-5 286 680 103 49-5-394-151-513-405-70-141 129-27 837z"/><path d="m13467 7946l125-1004 415-38 335 929-259 97-97-167-76-605-157-21-64 761c0 0-222 43-222 48"/><path d="m19480 20719l113-275 756-27-286 2930-205-54 151-2553z"/><path d="m18633 20060l987-54-5 184-356-5-389 151 178 2294-232 21-216-1511-475 65 357 2061-168 216-610-2509 848-125 54-793z"/><path d="m18978 20395l254 5 5 373-253-11z"/><path d="m19054 20946l172 5v216h-167z"/><path d="m19075 21350l243 17-5 248-265-11z"/><path d="m19135 21788l32 296 184-16-38-297z"/><path d="m19674 22727h162v-195h-178z"/><path d="m19660 22380l167-11 11-154-181 3z"/><path d="m19665 22040l202-3 33-256-238 11z"/><path d="m19654 21603l259 11-11-349-245 8z"/><path d="m19676 21093l248-3-3-256-272 10z"/><path d="m20036 23374c-834-403-1432-324-1792 238-151 169-147 219 11 151 358-429 955-483 1792-162 337 92 333 17-11-227"/><path d="m18265 21272h275v383h-275z"/><path d="m18336 21904h259v335h-259z"/><path d="m18449 22389h227v335h-227z"/><path d="m17488 16760l-86 1295 2569 44-259-281-2008 65z"/><path d="m19213 16484l229-1127 324 10 182 1128 39 1 54 1478-113-178-43-928-2116-216 16-189 1428 21m605 9l-171-791-171 786 342 5"/><path d="m18481 17613l1317 43-64-680-799 43 11 173 593-22 22 194-918 54z"/><path d="m12566 13543l-86 1296 2569 43-259-281-2008 65z"/><path d="m14290 13267l230-1127 324 11 181 1127 40 1 54 1479-113-179-44-928-2115-216 16-189 1427 21m606 9l-171-791-172 786 343 5"/><path d="m13559 14396l1317 43-65-680-799 43 11 173 594-22 21 195-917 54z"/><path d="m12259 17929l-11-988 777-6 5-610 810-37 59 1560 162 124-5-1857-1258-22v562l-723-33-135 98 194 1165c0 0 114 60 125 44"/><path d="m12377 17394c54-5 238 16 238 16l-11-329-270 11 43 302"/><path d="m12739 17076l248-6 6 324-260-11z"/><path d="m13176 16379l259-5-11 340h-253z"/><path d="m13592 16358l167 27 5 324-189 5z"/><path d="m13875 18098c-379-157-831-98-1355 179-185 22-188-29-11-152 619-327 1132-374 1539-140 204 119 147 157-173 113"/><path d="m20711 10723l113-275 756-27-286 2931-206-54 152-2553z"/><path d="m19863 10065l988-54-5 183-357-5-388 151 178 2294-232 21-216-1511-475 65 356 2062-167 215-610-2509 847-124 54-794z"/><path d="m20209 10399l253 6 6 372-254-11z"/><path d="m20284 10950l173 5v216h-167z"/><path d="m20306 11355l243 16-6 248-264-11z"/><path d="m20365 11792l33 297 183-17-38-296z"/><path d="m20905 12731h162v-194h-178z"/><path d="m20890 12384l167-11 11-154-181 3z"/><path d="m20896 12044l202-3 32-256-237 11z"/><path d="m20885 11607l259 11-11-348-246 8z"/><path d="m20906 11097l249-3-3-256-273 11z"/><path d="m21266 13379c-834-404-1431-325-1791 237-151 169-148 219 10 151 358-429 956-483 1792-162 337 92 333 17-11-226"/><path d="m19496 11276h275v383h-275z"/><path d="m19566 11908h259v335h-259z"/><path d="m19680 12394h227v335h-227z"/><path d="m19108 8721l43 960 2213 33v-184l-2051 65 10-874z"/><path d="m19453 8980l507 75 1091-32-65-216-939-11z"/><path d="m19518 9325v76h1500l43-227-1241 54z"/><path d="m19466 8648l-188-27 421-432c0 0 199-189 280 5 81 195 60 233 60 233 0 0 75 59 124-38 48-97 221-200 221-200 0 0 76-86 151 27 76 113 281 157 281 157l318-17 119-788 227-86 172 950-10 1198-205 43-54-1079-165-68h-399c0 0-297-48-308-113-11-65-124-70-194 54-71 124-179 151-179 151 0 0-140 97-199-43-60-140-76-200-76-200 0 0-65-135-86-5-22 129-311 278-311 278"/><path d="m19259 6786l-87 1295 2569 43-259-280-2007 64z"/><path d="m20983 6510l229-1128 324 11 182 1128h40l54 1479-114-178-43-928-2116-216 16-189 1428 21m606 9l-171-791-172 786 343 5"/><path d="m20252 7638l1317 44-65-680-799 43 11 172 594-21 21 194-917 54z"/><path d="m17747 19256l44 961 2212 32v-183l-2051 65 11-875z"/><path d="m18093 19515l507 76 1090-32-64-216-939-11z"/><path d="m18158 19861v75h1500l43-226-1241 54z"/><path d="m18106 19183l-189-27 421-431c0 0 200-189 281 5 81 194 59 232 59 232 0 0 76 60 125-38 48-97 221-199 221-199 0 0 75-87 151 27 76 113 281 156 281 156l318-16 119-788 227-86 172 950-11 1198-205 43-54-1080-164-67h-400c0 0-296-49-307-113-11-65-124-71-195 54-70 124-178 151-178 151 0 0-140 97-199-43-60-141-76-200-76-200 0 0-65-135-86-6-22 130-311 278-311 278"/><path d="m11893 21023c-216-44-238 10-238 10l-32-3195 1123-75 32 788-140 32 21-529-799-11 33 2980"/><path d="m11750 18143l939 11v167l-923 22z"/><path d="m11787 18451l880-33 6 162-880 16z"/><path d="m12565 19066c-11 27 21 162 21 162l599 27 17-162-637-27"/><path d="m12619 19330l572 22-11 97-583 6z"/><path d="m12652 19809l845-18 6 213-832 19z"/><path d="m12685 20128h834v159l-826 24z"/><path d="m12690 20395l818 8 13 170-820 19c0 0-14-197-11-197"/><path d="m12534 20908l-27-1927 761-16-11 647 194 27 27-906-1171 32-38 1743 76 427z"/><path d="m12750 19656l868 16 65 1176 173 6-76-1312-1004-16z"/><path d="m11043 17653c30 6 58 16 86 28 125-105 222-158 252-131 28 26-12 122-98 249 31 37 55 80 71 127 144 19 237 51 238 89 0 36-84 71-219 96-6 49-21 97-43 139 83 103 122 181 99 208-23 26-103-3-213-70-52 41-115 70-183 82-22 127-54 206-89 206-36 0-68-82-90-213-46-13-90-33-128-59-109 86-191 127-218 103-29-26 9-118 91-240-23-41-40-86-48-134-154-19-254-52-254-91-1-41 104-79 266-104 9-29 21-57 36-83-110-126-167-225-140-256 28-31 136 15 277 112 33-22 70-38 108-49 22-170 59-281 100-281 41 0 77 107 99 272m-99 151c124 0 224 101 224 224 0 124-100 224-224 224-124 0-224-100-224-224 0-123 100-224 224-224"/><path d="m12043 11516l-11-987 777-6 5-610 810-37 59 1559 162 125-5-1857-1258-22v562l-723-33-135 97 194 1166c0 0 114 60 125 43"/><path d="m12161 10982c54-5 238 16 238 16l-11-329-270 11 43 302"/><path d="m12523 10664l248-6 6 324-259-11z"/><path d="m12960 9967l259-5-11 340h-253z"/><path d="m13376 9946l167 27 5 324-188 5z"/><path d="m13659 11686c-379-157-831-98-1355 179-185 22-188-29-10-152 618-327 1131-374 1538-140 204 119 147 157-173 113"/><path d="m15559 6273c-473 327-960 655-1463 982-118 99-79 131 119 97 574-356 1116-701 1625-1036 326 312 650 589 971 831 109 34 84-31-75-194-175-207-423-451-745-734-94-139-238-121-432 54"/><path d="m15581 6759c-16 159-10 276 16 351 54 52 94 32 118-60-95-279 17-383 335-313 55-67 21-96-102-86-76-19-162-22-259-11-67-17-103 23-108 119"/><path d="m14684 7637c-17 181-11 314 18 399 62 60 107 37 135-68-108-316 18-435 380-355 62-76 23-109-116-98-86-21-184-25-294-12-76-19-117 26-123 134"/><path d="m14204 8448l-11-955 98 59-6 729 1247-16-16-902 647-38 17 76-486 108 11 901z"/><path d="m16692 7174l-275 16v875l-259 32-48 151 86 38 496-11z"/><path d="m17031 11610c-216-44-238 10-238 10l-32-3195 1123-75 32 788-140 32 21-529-798-11 32 2980"/><path d="m16888 8730l939 11v167l-923 22z"/><path d="m16926 9038l879-33 6 162-880 16z"/><path d="m17703 9653c-11 27 22 162 22 162l599 27 16-162-637-27"/><path d="m17757 9917l572 22-11 97-583 6z"/><path d="m17791 10396l844-18 6 213-831 19z"/><path d="m17823 10715h834v159l-826 24z"/><path d="m17828 10982l818 8 14 170-821 19c0 0-13-197-11-197"/><path d="m17672 11495l-27-1927 761-16-11 648 194 27 27-907-1171 32-38 1743 76 427z"/><path d="m17888 10243l869 16 64 1177 173 5-75-1312-1004-16z"/><path d="m16181 8240c30 6 59 16 86 28 125-105 222-158 252-131 29 26-12 122-98 249 31 37 55 80 71 127 144 19 237 51 238 89 1 36-84 71-219 96-6 50-21 97-43 139 83 103 123 181 99 208-23 26-103-3-212-70-53 41-115 70-184 82-22 127-54 206-89 206-35 0-67-82-90-213-46-13-89-33-128-59-109 86-191 127-218 103-28-26 10-118 91-240-23-41-39-86-48-134-154-19-253-52-254-91-1-41 104-79 266-104 9-29 22-57 36-83-109-126-167-225-139-256 27-31 135 15 277 112 33-22 69-38 107-49 22-170 59-281 100-281 41 0 77 107 99 272m-99 151c124 0 224 101 224 224 0 124-100 224-224 224-123 0-224-100-224-224 0-123 101-224 224-224"/></g><text x="10500" y="14850" fill="#373435" font-family="&apos;Arial Black&apos;" font-weight="900" font-size="529.17" transform="translate(4085.23-5110.55)">NN 1</text></g></g><g clip-path="url(#1)"><g><g fill="#201e1e" stroke="#201e1e" stroke-width="7.62"><path d="m3831 15411l-170-2-14-491 50 5 48 162-17 235 46 27 57 2v-607l-7 27-244 6-5 583-33 11-31-159v-271l-261 630 239 337 342 13v-280l-72 5v100l-33 11-3-186 108 9v-167zm170 2905v-183-1171-1037-1276-2169-38-1661-1930-196-2362-300h-170v298l-394-4 35 52 359-2v662l-470-7-22 345 44 9 64-259 384 4v232l-37 11-19 138h-516l-10 147h182v93l400-4v975l-473-20-39-76v-184c0 0-28-137-65-142-37-5-40-58 31-90 71-33 87-82 87-82 0 0 55-65-25-93-81-27-115-35-115-35 0 0-77-30-3-40 75-10 160-143 160-143l-16-87-248 194c0 0-108 93 4 130 111 37 133 27 133 27 0 0 34 35-22 58-56 22-115 102-115 102 0 0-49 35 16 70 65 35 90 130 90 130l-10 147-452 55-49 104 545 80 566-4v42l-540 18v16l-499 73-5 129 499 92-9 571 83 6 96-846 375-16v901l-90 16h-304l3 52-32 6 33 2 3 50h387v287l-246 2-48-194-33 6 16 259 311-5v299c-5-9-19-16-43-22-140 43-192-7-157-152-34-25-48-9-44 46-9 35-11 74-5 118-8 30 12 47 60 49 80 7 139 5 176-7 6-6 11-12 13-17v183l-227-1-26 38 253-2v78c-5 6-10 13-15 19-140 262-149 465-27 610l-278 4v48l-656 103-29-190 669-87-9-93-1016 72-67-156 3-142-82-2 24 395-2 10 351 22 55 339 640-140-259 436-5 104 52 74-460 86 49 135 452 71 10 189c0 0-25 122-90 167-65 44-16 89-16 89 0 0 59 103 115 132 56 29 22 73 22 73 0 0-22-12-134 36-111 48-3 166-3 166l248 250 16-112c0 0-85-171-160-184-74-13 3-51 3-51 0 0 34-10 115-45 81-36 25-119 25-119 0 0-16-64-87-106-71-41-68-109-31-115 37-7 65-183 65-183v-237l10-25 24 35 478 1v1119l-400-5v128l400-18v10l-490 25-3 131-356-10 14 469 772 15 63-10v162l-910 9-6-309h1l-1-3v-11h-3l-11-42-349 13 34 449 1245-11v35l-320 5v125l-86 29-292 616-5 129 224 406-788 2-14 753h372l-22 434 65 81 773-117c0 0 39-68 29-74l-655 6-4-465-404-3-25-485 1034-36 78-92h15l-2 3c-138 217-129 483 27 799v1255l-227 11-72 56 299 6v186h170zm-170-10697v8l-215-8h215zm0 3546v169c-8-51-8-108 0-169zm0 369v12l-3-2 3-10zm0 42v444l-57-2-46-21 17-188-48-130-50-4 14 393 170 1v133l-108-7 2 80-216-2 2-15 129 2 2-63h-184l4 76-144-2-68-76 261-503v216l31 128 33-9 4-396 252-55zm0 675v25h-72v-20l72-5zm0 156v68l-342-10-34-39 376-19zm0 1435v457l-739 10-7-305 252 4-4 193 58 11 7-348 433-22zm0 2423v218c-11-76-11-149 0-218zm-252-8493l44 234-19 504-124-30-6-434 105-274zm199 30h43v693l-130 20 31-574 56-139zm-1138 3301l-122-46-12-302 985 87c-5-4-12-10-18-18-145-201-290-396-435-585-78-77-86-135-24-172 125-129 233-229 325-298 72-64 101-74 86-31-108 129-230 258-368 389 148 203 301 420 459 650 6 34 7 57 2 67l286 26-24 82-1131-61-9 212zm-143 200l2-101 165-2-5 101-162 2zm243-30l3-69h95v67l-98 2zm179-8l8-98 110 3-5 105-113-10zm194-24l132-13-8-73-131 15 7 71zm416-216v-65h-86v71l86-6zm-154 6l-4-67-69-4 2 72 71-1zm-150-2l-1-81-114-13 5 95 110-1zm-194 4l5-104-154 5 3 98 146 1zm-226-9l-1-99-113 1 4 109 110-11zm105 557v-91h153v91h-153zm296-43v-78h125v78h-125zm373 2039l44-301-19-648-124 39-6 558 105 352zm199-38h43v-891l-130-26 31 737 56 180zm-1060-6524c193-252 386-512 579-780 58-63 78-42 57 64-210 306-413 594-611 865 184 175 347 347 490 518 20 58-18 45-114-40-122-93-266-226-433-397-82-50-71-127 32-230zm286 11c94-8 163-5 207 9 31 29 20 50-35 63-164-51-226 9-185 179-39 29-56 10-50-55-11-40-13-86-7-138-10-36 14-55 70-58zm519-477c106-10 185-6 235 9 35 33 22 57-40 72-187-58-257 10-210 203-45 33-64 12-58-62-12-46-15-98-7-157-11-40 15-62 80-65zm153 11459l5-186 90-4v-82l-172 25 15 242 62 5zm-113-324l65-39-12-268 117-13 41-58-239 26 28 352zm-45 296l-370-46-3-39 301-114 22-41-175 2-227 60-31 162 58 57 370 10 55-51zm-72-285l-444-50-17-166 411-134 43 103-74 39-268 30-9 63 337 26c0 0 19 89 21 89zm-34-691c-3-33 11-143 11-143l-218 7 7 162 200-26zm-211-217l-3-149 214-3-7 155-204-3zm-462-262l-3-155 225 6v152l-222-3zm-14-249l18-100 215-3 3 113-236-10zm528-6045c70 6 122 3 155-7 23-22 15-37-26-47-124 38-170-7-139-134-30-22-42-8-38 41-8 30-10 64-5 103-7 27 10 41 53 44zm-410 4023l-43-2 8 314 48-1-13-311zm-117-5l-44-1-5 319h45l4-318zm404 36c12 5 71-8 71-8l12-240-71-6-12 254zm117-21l9-229 43 4 3 234-55-9zm212-14l-9-337 95-3 8 333-94 7zm141-13v-333h70l11 330-81 3zm118-2l4-327 75-5 8 328c0 0-87 5-87 4zm-1214 659c3-12 7-23 12-34-46-50-70-89-58-101 12-11 54 5 111 39 16-12 35-22 56-28 8-58 22-95 39-95 16-1 32 33 43 87 22 3 43 8 62 17 45-33 80-49 91-39 12 9-1 41-31 85 19 21 31 46 37 73 56 9 91 22 91 36 0 14-36 27-95 36-5 18-14 36-26 51 38 44 57 77 46 87-11 12-52-4-106-36-18 9-38 16-60 19-8 62-22 101-40 102-18 0-35-42-46-107-13-4-25-8-36-14-56 44-100 66-114 56-14-11 7-55 50-111-10-13-17-28-22-43-75-9-125-24-125-40 0-17 48-31 121-40zm67 40c0-50 44-90 99-90 55 0 99 40 99 90 0 49-44 89-99 89-55 0-99-40-99-89zm719-6022l-350 68 348 69 2-137zm209 6881l12-146 129 3 2-79h-184l7 195 34 27zm287-6347l19-526-301 26 19 319 76-4-9-238 86-8 24 367 86 64z" stroke-linejoin="round" stroke-linecap="round"/><text x="10500" y="14850" font-family="&apos;Bauhaus 93&apos;" font-size="2121.73" transform="matrix(0-.50487.65734 0-4456.69 23484.5)">Arquitetura e Urbanismo</text></g><g fill="#373435"><text x="10500" y="14850" font-family="&apos;Arial Black&apos;" font-weight="900" font-size="529.17" transform="translate(-3584.04-5110.56)">NN 1</text><g font-family="&apos;Bauhaus 93&apos;"><g font-size="776.11"><text x="10500" y="14850" transform="translate(-8602.07 6048.87)">Texto 01</text><text x="10500" y="14850" transform="matrix(1.0057 0 0 1-8658.07 7009.1)">Texto 02</text></g><text x="10500" y="14850" font-size="609.35" transform="translate(-7527.79 8663.61)">00.00.0000</text></g></g></g></g><g fill="#373435" font-family="&apos;Arial&apos;" font-size="423.33"><text x="554" y="28433">DESC 1</text><text x="557" y="28869">DESC 2</text><text x="554" y="29307">DESC 3</text></g></svg>