<svg xmlns="http://www.w3.org/2000/svg" width="744.09" height="1052.36" viewBox="0 0 21000 29700" shape-rendering="geometricPrecision" image-rendering="optimizeQuality" fill-rule="evenodd" clip-rule="evenodd"><defs><clipPath id="0"><path d="m13957 23952c1246 623 3615 503 4334-650 717-1148 554-4405 622-6002 170-3999 601-7032 712-10257 124-3581-2249-5949-5085-6616-4001-941-3765 4571-3209 7403 292 1522 868 2846 1235 4334 678 2744 64 6933 299 9789 121 987 441 1642 1091 1998z"/></clipPath><clipPath id="1"><path d="m7043 23964c-1246 623-3615 503-4334-650-717-1148-554-4405-622-6002-170-3999-601-7032-712-10257-124-3581 2249-5949 5085-6616 4001-941 3765 4571 3209 7403-292 1522-868 2846-1235 4334-678 2744-64 6933-299 9789-121 987-441 1642-1091 1998z"/></clipPath></defs><path fill="none" stroke="#322f30" stroke-width="80" d="m10517 23503v1621"/><text x="10105" y="22418" fill="#201e1e" font-family="&apos;Arial Black&apos;" stroke="#201e1e" font-weight="900" stroke-width="7.62" font-size="705.56">38</text><g fill="none" stroke="#322f30" stroke-width="80"><circle cx="10533" cy="1326" r="460"/><path d="m10533 515v1621"/><path d="m9723 1326h1621"/><circle cx="10517" cy="24313" r="460"/></g><rect x="9843" y="22866" width="1347" height="637" rx="318" fill="#fff" stroke="#fff" stroke-width="20"/><path fill="none" stroke="#322f30" stroke-width="80" d="m9706 24313h1621"/><g fill="#373435" font-family="&apos;Arial&apos;" font-weight="normal" font-size="423.33"><text x="1031" y="25838">DESC 1</text><text x="996" y="26442">DESC 2</text><text x="978" y="27042">DESC 3</text></g><path d="m13957 23952c1246 623 3615 503 4334-650 717-1148 554-4405 622-6002 170-3999 601-7032 712-10257 124-3581-2249-5949-5085-6616-4001-941-3765 4571-3209 7403 292 1522 868 2846 1235 4334 678 2744 64 6933 299 9789 121 987 441 1642 1091 1998z" fill="#fff"/><g clip-path="url(#0)"><g fill="#201e1e" stroke="#201e1e"><g font-family="&apos;Arial&apos;" stroke-width="7.62" font-size="597.49"><text x="10500" y="14850" transform="matrix(1.0545 0 0 1.1003 2163.28 997.65)">NN 1</text><text x="10500" y="14850" transform="matrix(1.0545 0 0 1.1003 2140.65 1579.75)">NN 2</text></g><g stroke-width="20"><path d="m15040 4545c-239 378-294 1078-444 1598-239 832-559 1442-665 2290 427-130 804-368 1363-399 853-48 1380 165 1838 399 29 104 117-88 127 0 7 47-32 133 63 107 76-202 22-512-127-613-9 115 129 246 32 346-56 24-52 118-127 53-390-1227-1082-2428-1933-3356-70-44-172 6-190-27-9-203 98-308 253-373-37-31-112-30-190-27zm-3660-2370c-45 131-85 267-121 407 654 61 1277 221 1785 498 238 130 495 320 729 559 356 365 668 668 602 1305-63 609-337 1204-570 1784-559 1390-949 3057-982 4874-7 371-25 766 253 932 177 85 377-38 507-80 150-634 1-1322 63-1997 33-361 122-964 285-1252 605-1064 2861-928 3454-27 366 556 444 1705 444 2503 0 296-65 602 63 852 896 35 757-697 729-1332-100-2274-810-3839-1838-5247-430-588-759-1169-1299-1625-157-132-377-226-539-373-869-792-1983-1564-3565-1784z"/><path d="m14057 8300c513-418 2246-486 2915-53-108-569-415-1129-729-1678-284-497-737-1293-1236-1545-2 16-5 32-32 27-2-16-5-32-32-27-109 1249-687 2104-887 3276zm1172-3729c-155 65-263 170-254 373 18 32 120-17 190 27 851 928 1543 2128 1933 3356 74 65 71-30 127-53 97-101-41-231-32-346 149 101 203 411 127 613-95 27-56-59-63-107-10-88-98 104-127 0-458-235-985-448-1838-399-558 31-936 269-1363 399 107-848 426-1458 665-2290 149-520 205-1220 444-1598 78-4 153-4 190 27z"/><path d="m13075 19645c85-115 48-333 127-453 240 39 128 316 95 479-97 38-143 12-222-27z"/><path d="m17987 19885c265 60 695 94 882-49-1 43-2 85-4 128-273 158-853 59-1195-52-601-194-1238-654-1521-932-533 406-1420 820-2345 906-346 32-700 11-824-107-209-199-51-656 190-772 308-149 732-3 1046 27 514-145 1100-230 1458-506-1177-1692-2103-3594-2662-5806-141-195-198-151-254-293-216-549 8-1580 63-2104 150-1435 429-2518 887-3675 218-551 523-1153 570-1731 48-591-263-863-602-1198-556-551-1402-932-2437-1061 6-25 12-51 18-76 654 61 1277 221 1785 498 238 130 495 320 729 559 356 364 668 668 602 1305-63 609-337 1204-570 1784-559 1390-949 3057-982 4874-7 371-25 766 253 932 177 85 377-38 507-80 150-634 1-1322 63-1997 33-361 122-964 285-1252 605-1064 2861-928 3454-27 366 556 444 1705 444 2503 0 296-65 602 63 852 896 35 757-697 729-1332-100-2274-810-3839-1838-5247-430-588-759-1169-1299-1625-157-132-377-226-539-373-869-792-1983-1564-3565-1784 6-19 13-38 20-57 1190 169 2150 633 2943 1202 199 143 346 357 539 506-4-3 210 130 285 186 1052 798 2050 2188 2630 3436 273 586 515 1278 665 2024 149 736 308 1546 254 2290-25 345-61 640-349 799-301 2209-865 4263-1838 5992 401 476 1135 846 2123 666 78 57 160 119 227 187-2 105-4 210-7 316-16-162-93-274-188-371-211 0-422 0-634 0-3 129 140 422-63 533zm-4753-799c-210 181-337 465-127 639 465 384 1583-179 982-639-232-37-626-46-856 0zm2947-160c8 108 500 366 729 506 352 215 710 398 982 346 112-90 99-222 63-320-528-249-1145-422-1521-799 31 94-261 160-254 266zm380-1172c-335 599-1146 1255-2313 1332 146 188 71 451-32 639 1468-275 2306-1015 2757-2157 463-1173 918-2637 1046-3888-379 1566-694 2876-1458 4075zm-2820-4181c-100-94-139-239-222-346 381 2059 1133 3806 2282 5220 215-166-69-389-158-533-600-958-1060-2066-1458-3169-163-452-275-926-507-1305 47 23 46 86 63 133zm1933-5087c-1378-15-1823 870-1933 1944-60 585 93 1229 32 1811-13 125-87 237-95 346-34 466 257 1124 412 1545 407 1104 646 1830 1141 2850 141 290 646 1217 856 1198 100-9 258-368 349-533 251-456 277-667 412-1065 286-841 602-1762 792-2690 64-311 220-934 190-1198-15-130-108-173-127-320-69-534 18-1136-63-1704-81-567-174-1059-380-1491-475-323-851-684-1584-692z"/></g><g font-family="&apos;Chelsea Alternates&apos;" stroke-linejoin="round" stroke-linecap="round" stroke-width="50"><text x="10500" y="14850" font-size="1533.72" transform="matrix(.38867 0 0 1.1003 9015.37 4898.92)">Texto 1</text><text x="10500" y="14850" font-size="1747.25" transform="matrix(.46517 0 0 1.1003 8194.76 6756.87)">Texto 2</text></g></g></g><path d="m7043 23964c-1246 623-3615 503-4334-650-717-1148-554-4405-622-6002-170-3999-601-7032-712-10257-124-3581 2249-5949 5085-6616 4001-941 3765 4571 3209 7403-292 1522-868 2846-1235 4334-678 2744-64 6933-299 9789-121 987-441 1642-1091 1998z" fill="#fff"/><g clip-path="url(#1)"><g fill="#201e1e" stroke="#201e1e"><g stroke-width="20"><path d="m9645 2249c45 140 86 285 121 434-678 129-1293 349-1742 638-709 456-1286 1250-1775 2024-496 786-838 1782-951 2690-136 1101-34 2243-222 3302-16 90 23 270-127 320-335-4-256-78-222-346 43-333 139-1144 158-1385 39-481 8-1379 63-1918 123-1199 529-2227 1046-3143 666-1181 1926-2250 3649-2617z"/><path d="m4760 14480c13-100 124-325 0-373-15 95-78 288 0 373zm158-399c-17 225 7 485-254 506-297-120-74-829 254-506z"/><path d="m2026 16074c-6-99-12-198-17-296 219 401 545 694 977 779-1311-1001-1320-4210 412-4820-189 0-471-11-634 53-410 161-753 781-939 1465-8-96-16-193-24-288 229-618 616-1122 1121-1337 789-33 1267 196 1489 639 122-176 121-391 158-586 116-609 202-1278 222-1918 28-902-26-1782 190-2610 403-1545 1107-2941 2218-3888 541-461 1410-893 2419-1094 9 25 17 50 25 75-1722 366-2983 1436-3649 2617-516 916-922 1944-1046 3143-55 539-24 1437-63 1918-20 241-116 1052-158 1385-35 269-113 342 222 346 150-49 111-229 127-320 188-1059 85-2201 222-3302 112-908 455-1904 951-2690 488-775 1066-1568 1775-2024 448-288 1063-508 1742-638 3 12 6 25 9 37-1823 367-2902 1633-3652 3050-428 810-632 1734-729 2796-49 543-31 1100-63 1651-29 495-182 980-222 1438-8 89 38 173 32 293-12 225-134 442-63 639 51 142 253 240 349 399 153 256 312 674 317 1092 10 789-262 1776-1331 1625-197 649-1035 1235-1901 852-187-82-349-260-485-483zm1499-1062c-128-436-74-1149 127-1598-879-170-939 1685-127 1598zm665 533c-606-450-578-1803-190-2424 90-144 313-229 285-346-847 375-1056 2461-95 2770zm95-2610c-347 292-585 1299-412 1944 106 395 524 876 1109 692 515-162 723-1091 634-1758-59-441-334-1138-887-1065-280 37-350 108-444 186zm190-373c188-90 351-17 507 53 0-89 0-178 0-266-97-69-255-88-444-80-57 123-38 177-63 293zm-95-186c-141-106-228-366-444-453-335-134-732-18-919 107-804 537-1123 2397-602 3569 145 326 458 794 729 879 683 213 927-415 1109-772-376-75-597-279-665-613-1129 167-887-2041 95-1758 105-329 269-609 697-666-8-158 59-194 0-293zm254-186c147-8 274 0 349 53 8-144 51-259 32-426-266-230-436 91-380 373z"/><path d="m4982 13335c-2-28-41-21-32 27 361 419 220 1396 0 1758 334-396 415-1377 32-1784zm-665 613c-49 400 40 1327 317 1332 200 4 413-619 444-985 39-471-221-957-380-1092-178 169-333 357-380 746zm380-852c308-99 612 427 665 852 76 596-288 1421-570 1465-361 57-517-382-570-666-95-504 0-1128 190-1412 41-61 197-211 285-240z"/></g><g font-family="&apos;Chelsea Alternates&apos;" stroke-linejoin="round" stroke-linecap="round" stroke-width="50"><text x="10500" y="14850" font-size="1533.72" transform="matrix(.38867 0 0 1.1003-1535.02 4899.92)">Texto 1</text><text x="10500" y="14850" font-size="1747.25" transform="matrix(.46517 0 0 1.1003-2355.63 6757.87)">Texto 2</text></g><g font-family="&apos;Arial&apos;" stroke-width="7.62" font-size="597.49"><text x="10500" y="14850" transform="matrix(1.0545 0 0 1.1003-5375.44 1022.1)">NN 1</text><text x="10500" y="14850" transform="matrix(1.0545 0 0 1.1003-5398.07 1604.2)">NN 2</text><text x="10500" y="14850" transform="matrix(1.0545 0 0 1.1003-5375.44 1022.1)">NN 1</text><text x="10500" y="14850" transform="matrix(1.0545 0 0 1.1003-5398.07 1604.2)">NN 2</text></g></g></g><g fill-rule="nonzero"><path d="m15110 1208c-12 15-25 25-37 29-12 5-24 5-36 0-24-10-36-33-36-69 0-36 12-83 36-139 49-116 113-205 194-269 80-64 152-82 216-55 44 18 71 50 81 95 10 45 2 97-24 159-14 33-36 75-66 126-30 50-71 114-123 190 151-165 266-276 345-334 79-58 142-77 187-58 27 11 43 34 46 67 4 34-5 75-25 123-25 60-97 164-216 311l-26 31c161-160 286-270 376-330 89-60 156-81 202-62 25 11 40 33 44 66 5 34-2 71-19 113-25 60-104 176-237 346l-32 41-19 25c-134 173-208 277-223 313-14 33-17 60-9 81 8 21 27 39 58 54l-59 90-14-6c-61-26-98-60-112-103-14-43-7-99 22-167 25-60 116-189 271-387 33-42 58-74 76-96l12-15c70-89 109-146 119-169 4-11 6-20 5-30-1-9-5-15-10-18-23-10-93 33-208 127-115 95-233 213-352 354-37 43-75 88-112 135-37 47-74 95-110 144-15 20-27 31-37 34-10 2-24 0-41-7-26-11-44-23-54-35-10-12-12-26-5-40 3-8 33-47 89-117 45-56 82-103 111-140 109-138 196-253 264-345 67-93 107-153 119-180 6-15 9-29 7-41-1-12-6-20-14-24-29-12-93 24-190 110-98 86-206 203-326 350-45 56-93 119-144 189-51 70-80 110-87 118-16 20-28 31-37 33-9 2-24-1-45-10-22-9-37-20-46-32-9-12-11-25-5-38 6-14 38-58 97-135 59-76 108-142 149-198 66-89 125-174 176-256 51-82 86-143 103-184 14-33 20-61 17-83-3-22-13-38-32-46-32-13-70 1-114 42-45 41-82 97-111 168-13 30-21 59-25 86-4 28-4 50 2 66zm930 884c48-11 99-36 151-74 53-38 91-76 116-114 12-19 19-35 19-49 1-14-5-24-16-31-23-15-57-7-103 25-45 31-86 76-123 133-14 22-24 41-32 59-7 18-11 35-12 52zm-133 112c-40 3-77 1-111-5-34-6-66-18-95-34l74-79c21 10 41 17 61 22 20 4 41 6 64 5 4-29 12-59 25-90 13-31 32-66 56-104 57-88 125-153 205-193 80-41 146-44 198-11 29 19 43 47 42 86-1 38-17 82-48 129-33 52-83 102-147 149-65 47-132 82-204 104 1 25 5 45 15 61 9 16 24 31 44 44l6 4-74 79-11-7c-31-20-55-43-72-69-17-26-26-56-29-90zm187 199l79-74c16 10 31 16 46 20 15 4 30 5 45 4 6-11 12-21 19-32 7-11 15-22 25-35 36-48 78-92 125-131 48-39 97-71 147-94 62-29 117-45 165-47 48-3 88 7 119 31 12 9 23 21 30 34 8 13 14 30 19 49l266-226c8-7 19-16 33-29 66-57 112-76 138-56 21 16 34 31 38 44 4 13 0 28-12 44-6 8-22 21-49 41-17 13-31 23-41 30l-268 209c-98 76-187 150-267 222-80 72-130 121-148 146-17 22-24 41-23 56 1 15 13 33 34 53l-79 73-7-5c-42-31-66-60-72-87-7-26 3-56 27-90 11-15 26-31 45-51 19-19 45-42 78-71-86 57-157 95-213 112-56 17-100 14-130-9-15-11-26-26-32-43-6-17-7-35-2-53-20 4-41 4-63-2-22-6-47-17-74-35zm734-202c-2-7-5-13-8-18-3-5-7-9-12-13-19-14-46-19-81-13-35 6-77 21-126 46-42 21-83 47-123 78-40 31-69 59-88 84-14 19-23 36-25 51-3 16 1 27 11 34 23 17 74 4 152-39 78-43 178-114 300-211zm-291 537l84-68c31 24 79 20 143-12 64-32 156-98 274-197 19-16 42-36 70-61 59-53 110-62 152-26 10 8 15 17 16 26 1 9-2 18-10 27-10 12-35 31-73 58-38 27-68 48-88 64l-186 141-8 6c-45 34-73 57-84 69-14 17-21 31-20 44 1 13 12 29 32 50l-84 68-13-11c-32-28-51-56-56-83-5-27 4-57 27-89-38 14-72 21-101 20-29-1-55-10-77-27zm901-527c-14-13-20-29-17-48 3-19 14-40 34-63 26-30 53-50 83-60 29-10 52-9 68 6 13 12 18 28 15 50-3 21-14 43-33 65-26 29-53 49-81 59-28 10-51 7-68-7zm-619 768l90-59c15 13 32 24 50 31 18 7 37 11 59 12 10-21 24-42 40-63 16-21 37-44 63-69 82-79 172-131 270-153 97-22 169-10 215 38 23 24 33 52 29 84-4 32-21 62-50 90-20 19-39 31-59 36-20 5-35 3-45-8-4-4-5-7-5-10 0-3 4-8 11-15 17-17 28-32 31-45 3-13 0-25-11-36-23-24-65-26-124-6-60 21-117 57-171 109-54 52-83 101-88 147-5 46 15 92 59 140l-90 60c-4-4-8-7-14-10-1-1-1-1-2-2-31-32-54-66-67-101-13-35-17-70-12-106-35 2-67-2-96-13-30-11-57-28-82-52zm333 338l96-50c26 30 73 35 142 17 69-19 172-64 308-138 21-12 48-27 81-46 69-40 120-39 154 5 8 10 12 20 11 29-1 9-6 17-15 24-12 10-40 24-83 43-43 19-76 34-99 45l-210 101-9 4c-51 24-83 41-96 51-17 13-27 26-28 39-1 13 6 31 21 56l-96 50-11-14c-26-34-39-65-38-92 1-28 16-55 44-82-40 6-75 6-103-1-28-7-52-21-70-42zm988-336c-12-15-14-32-8-50 7-18 22-37 46-55 31-24 62-38 93-42 31-4 53 2 66 19 11 14 12 31 5 52-7 20-23 39-45 57-31 24-61 38-91 41-30 4-52-3-66-21zm-667 611c-28 1-52-4-73-13-21-9-39-24-55-43l100-42c21 28 58 39 113 32 55-6 134-31 237-74 50-21 108-46 175-77 89-42 142-51 157-26 14 22 22 39 24 50 2 12-2 21-12 28-7 5-51 21-130 47-79 27-155 54-227 81 140-28 247-41 321-38 75 3 123 22 145 56 11 18 13 36 4 55-9 19-26 38-52 55-30 19-119 54-266 103l-48 16c-31 10-60 21-86 32-26 11-43 19-53 26-16 10-25 22-27 34-2 12 4 30 16 55l-100 42-6-10c-30-46-41-86-36-119 6-34 29-64 71-91 19-12 51-27 95-44 45-17 103-37 174-60l15-5c60-18 94-31 104-37 8-5 12-10 14-14 2-4 1-9-2-14-11-17-60-21-148-12-88 8-188 30-299 65-22 7-49 16-81 28-58 21-98 14-120-20-7-11-11-20-10-27 1-7 5-13 13-18 4-3 11-6 19-9 8-3 19-7 32-10zm961 644c6-13 10-24 11-34 1-10 0-19-4-27-8-18-30-32-65-44-35-12-78-18-130-20-47-1-95 3-144 11-48 9-89 21-121 36-23 11-39 22-48 32-9 10-11 21-6 31 14 30 64 46 150 48 86 3 205-9 358-33zm-292 81c-106 10-186 9-243-3-57-12-93-36-110-72-8-17-11-34-10-50 2-16 8-32 20-46-20-9-38-22-54-37-16-16-31-37-44-62l105-27c9 16 19 29 31 40 11 11 24 19 38 25 9-6 20-12 30-17 10-6 22-11 34-17 39-18 85-33 137-44 52-11 105-17 159-19 82-2 150 7 203 27 53 20 89 49 107 88 9 20 12 38 10 57-2 18-10 38-25 60l35-9c22-5 36-7 43-6 7 1 12 6 16 13 10 21 13 42 9 62-4 21-14 35-29 42-5 2-30 6-76 12-46 6-89 12-130 19-81 14-150 28-205 41-56 14-97 27-125 40-19 9-31 19-34 30-4 11-1 31 7 59l-104 27-4-8c-22-47-30-84-23-110 7-27 29-49 66-66 17-8 38-15 64-23 26-8 60-16 102-26" fill="#201e1e"/><path d="m15110 1208c-12 15-25 25-37 29-12 5-24 5-36 0-24-10-36-33-36-69 0-36 12-83 36-139 49-116 113-205 194-269 80-64 152-82 216-55 44 18 71 50 81 95 10 45 2 97-24 159-14 33-36 75-66 126-30 50-71 114-123 190 151-165 266-276 345-334 79-58 142-77 187-58 27 11 43 34 46 67 4 34-5 75-25 123-25 60-97 164-216 311l-26 31c161-160 286-270 376-330 89-60 156-81 202-62 25 11 40 33 44 66 5 34-2 71-19 113-25 60-104 176-237 346l-32 41-19 25c-134 173-208 277-223 313-14 33-17 60-9 81 8 21 27 39 58 54l-59 90-14-6c-61-26-98-60-112-103-14-43-7-99 22-167 25-60 116-189 271-387 33-42 58-74 76-96l12-15c70-89 109-146 119-169 4-11 6-20 5-30-1-9-5-15-10-18-23-10-93 33-208 127-115 95-233 213-352 354-37 43-75 88-112 135-37 47-74 95-110 144-15 20-27 31-37 34-10 2-24 0-41-7-26-11-44-23-54-35-10-12-12-26-5-40 3-8 33-47 89-117 45-56 82-103 111-140 109-138 196-253 264-345 67-93 107-153 119-180 6-15 9-29 7-41-1-12-6-20-14-24-29-12-93 24-190 110-98 86-206 203-326 350-45 56-93 119-144 189-51 70-80 110-87 118-16 20-28 31-37 33-9 2-24-1-45-10-22-9-37-20-46-32-9-12-11-25-5-38 6-14 38-58 97-135 59-76 108-142 149-198 66-89 125-174 176-256 51-82 86-143 103-184 14-33 20-61 17-83-3-22-13-38-32-46-32-13-70 1-114 42-45 41-82 97-111 168-13 30-21 59-25 86-4 28-4 50 2 66zm930 884c48-11 99-36 151-74 53-38 91-76 116-114 12-19 19-35 19-49 1-14-5-24-16-31-23-15-57-7-103 25-45 31-86 76-123 133-14 22-24 41-32 59-7 18-11 35-12 52zm-133 112c-40 3-77 1-111-5-34-6-66-18-95-34l74-79c21 10 41 17 61 22 20 4 41 6 64 5 4-29 12-59 25-90 13-31 32-66 56-104 57-88 125-153 205-193 80-41 146-44 198-11 29 19 43 47 42 86-1 38-17 82-48 129-33 52-83 102-147 149-65 47-132 82-204 104 1 25 5 45 15 61 9 16 24 31 44 44l6 4-74 79-11-7c-31-20-55-43-72-69-17-26-26-56-29-90zm187 199l79-74c16 10 31 16 46 20 15 4 30 5 45 4 6-11 12-21 19-32 7-11 15-22 25-35 36-48 78-92 125-131 48-39 97-71 147-94 62-29 117-45 165-47 48-3 88 7 119 31 12 9 23 21 30 34 8 13 14 30 19 49l266-226c8-7 19-16 33-29 66-57 112-76 138-56 21 16 34 31 38 44 4 13 0 28-12 44-6 8-22 21-49 41-17 13-31 23-41 30l-268 209c-98 76-187 150-267 222-80 72-130 121-148 146-17 22-24 41-23 56 1 15 13 33 34 53l-79 73-7-5c-42-31-66-60-72-87-7-26 3-56 27-90 11-15 26-31 45-51 19-19 45-42 78-71-86 57-157 95-213 112-56 17-100 14-130-9-15-11-26-26-32-43-6-17-7-35-2-53-20 4-41 4-63-2-22-6-47-17-74-35zm734-202c-2-7-5-13-8-18-3-5-7-9-12-13-19-14-46-19-81-13-35 6-77 21-126 46-42 21-83 47-123 78-40 31-69 59-88 84-14 19-23 36-25 51-3 16 1 27 11 34 23 17 74 4 152-39 78-43 178-114 300-211zm-291 537l84-68c31 24 79 20 143-12 64-32 156-98 274-197 19-16 42-36 70-61 59-53 110-62 152-26 10 8 15 17 16 26 1 9-2 18-10 27-10 12-35 31-73 58-38 27-68 48-88 64l-186 141-8 6c-45 34-73 57-84 69-14 17-21 31-20 44 1 13 12 29 32 50l-84 68-13-11c-32-28-51-56-56-83-5-27 4-57 27-89-38 14-72 21-101 20-29-1-55-10-77-27zm901-527c-14-13-20-29-17-48 3-19 14-40 34-63 26-30 53-50 83-60 29-10 52-9 68 6 13 12 18 28 15 50-3 21-14 43-33 65-26 29-53 49-81 59-28 10-51 7-68-7zm-619 768l90-59c15 13 32 24 50 31 18 7 37 11 59 12 10-21 24-42 40-63 16-21 37-44 63-69 82-79 172-131 270-153 97-22 169-10 215 38 23 24 33 52 29 84-4 32-21 62-50 90-20 19-39 31-59 36-20 5-35 3-45-8-4-4-5-7-5-10 0-3 4-8 11-15 17-17 28-32 31-45 3-13 0-25-11-36-23-24-65-26-124-6-60 21-117 57-171 109-54 52-83 101-88 147-5 46 15 92 59 140l-90 60c-4-4-8-7-14-10-1-1-1-1-2-2-31-32-54-66-67-101-13-35-17-70-12-106-35 2-67-2-96-13-30-11-57-28-82-52zm333 338l96-50c26 30 73 35 142 17 69-19 172-64 308-138 21-12 48-27 81-46 69-40 120-39 154 5 8 10 12 20 11 29-1 9-6 17-15 24-12 10-40 24-83 43-43 19-76 34-99 45l-210 101-9 4c-51 24-83 41-96 51-17 13-27 26-28 39-1 13 6 31 21 56l-96 50-11-14c-26-34-39-65-38-92 1-28 16-55 44-82-40 6-75 6-103-1-28-7-52-21-70-42zm988-336c-12-15-14-32-8-50 7-18 22-37 46-55 31-24 62-38 93-42 31-4 53 2 66 19 11 14 12 31 5 52-7 20-23 39-45 57-31 24-61 38-91 41-30 4-52-3-66-21zm-667 611c-28 1-52-4-73-13-21-9-39-24-55-43l100-42c21 28 58 39 113 32 55-6 134-31 237-74 50-21 108-46 175-77 89-42 142-51 157-26 14 22 22 39 24 50 2 12-2 21-12 28-7 5-51 21-130 47-79 27-155 54-227 81 140-28 247-41 321-38 75 3 123 22 145 56 11 18 13 36 4 55-9 19-26 38-52 55-30 19-119 54-266 103l-48 16c-31 10-60 21-86 32-26 11-43 19-53 26-16 10-25 22-27 34-2 12 4 30 16 55l-100 42-6-10c-30-46-41-86-36-119 6-34 29-64 71-91 19-12 51-27 95-44 45-17 103-37 174-60l15-5c60-18 94-31 104-37 8-5 12-10 14-14 2-4 1-9-2-14-11-17-60-21-148-12-88 8-188 30-299 65-22 7-49 16-81 28-58 21-98 14-120-20-7-11-11-20-10-27 1-7 5-13 13-18 4-3 11-6 19-9 8-3 19-7 32-10zm961 644c6-13 10-24 11-34 1-10 0-19-4-27-8-18-30-32-65-44-35-12-78-18-130-20-47-1-95 3-144 11-48 9-89 21-121 36-23 11-39 22-48 32-9 10-11 21-6 31 14 30 64 46 150 48 86 3 205-9 358-33zm-292 81c-106 10-186 9-243-3-57-12-93-36-110-72-8-17-11-34-10-50 2-16 8-32 20-46-20-9-38-22-54-37-16-16-31-37-44-62l105-27c9 16 19 29 31 40 11 11 24 19 38 25 9-6 20-12 30-17 10-6 22-11 34-17 39-18 85-33 137-44 52-11 105-17 159-19 82-2 150 7 203 27 53 20 89 49 107 88 9 20 12 38 10 57-2 18-10 38-25 60l35-9c22-5 36-7 43-6 7 1 12 6 16 13 10 21 13 42 9 62-4 21-14 35-29 42-5 2-30 6-76 12-46 6-89 12-130 19-81 14-150 28-205 41-56 14-97 27-125 40-19 9-31 19-34 30-4 11-1 31 7 59l-104 27-4-8c-22-47-30-84-23-110 7-27 29-49 66-66 17-8 38-15 64-23 26-8 60-16 102-26z" fill="none" stroke="#201e1e" stroke-width="25"/><path d="m2267 4804c15 12 25 24 30 37 5 12 5 24 0 36-10 24-33 36-69 37-36 1-83-11-140-34-116-48-206-111-271-191-64-80-84-151-57-215 18-44 49-71 94-82 45-11 97-3 159 22 33 14 76 35 126 65 51 30 115 70 191 121-167-149-279-263-337-342-59-79-78-141-60-187 11-27 34-43 67-47 34-4 75 4 124 24 61 25 165 96 313 213l31 25c-162-160-273-284-334-372-61-88-82-155-64-201 10-25 32-40 66-45 33-5 71 1 114 18 60 25 177 102 349 233l42 32 25 19c174 132 279 205 315 220 33 14 60 16 81 8 21-8 39-28 53-59l91 58-6 14c-25 61-59 99-102 113-43 15-99 8-167-20-60-25-190-114-390-267-42-32-74-57-97-75l-15-12c-90-69-147-108-170-117-11-4-21-6-30-5-9 1-15 5-17 11-10 24 34 92 129 206 96 114 215 230 358 348 44 37 89 74 136 110 47 37 95 73 145 108 20 14 31 27 34 37 3 10 0 24-7 42-11 26-22 44-35 54-12 10-25 12-40 6-8-3-48-33-118-88-57-44-103-81-141-109-139-107-255-194-348-260-93-66-154-105-182-117-15-6-29-8-41-7-12 1-20 6-23 15-12 29 25 92 112 189 87 97 205 204 354 322 56 44 120 92 190 142 71 50 110 79 119 86 20 15 31 28 33 37 2 9-1 24-10 45-9 22-20 37-32 46-12 9-25 11-38 5-14-6-59-37-136-95-77-58-143-107-199-147-90-65-176-123-258-173-82-50-144-84-185-101-33-14-61-19-84-16-22 3-38 14-45 33-13 32 1 70 43 114 42 44 98 80 169 109 30 12 59 20 86 24 28 4 50 3 66-3zm885-936c-11-48-36-99-74-151-38-53-76-91-114-116-19-12-35-19-49-19-14-1-24 5-31 16-15 23-7 57 25 103 31 45 76 86 133 123 22 14 41 24 59 32 18 7 35 11 52 12zm112 133c3 40 1 77-5 111-7 34-18 66-34 95l-79-74c10-21 17-41 22-61 4-20 6-41 5-64-29-4-59-12-90-25-31-13-66-32-104-56-88-57-153-125-193-205-41-80-44-146-11-198 19-29 47-43 86-42 38 1 82 17 129 48 52 33 102 83 149 147 47 65 82 132 104 204 25-1 45-5 61-15 16-9 31-24 44-44l4-6 79 74-7 11c-20 31-43 55-69 72-26 17-56 26-90 29zm203-184l-72-80c10-15 17-30 21-45 4-15 6-30 4-45-11-6-21-13-32-20-11-7-22-16-35-25-48-37-91-79-130-127-39-48-69-98-92-149-28-63-43-118-45-166-2-48 9-88 33-119 9-12 21-22 34-30 13-8 30-14 49-18l-222-269c-7-8-16-19-29-34-56-67-74-113-54-139 16-21 31-33 44-37 14-4 28 0 44 12 7 6 21 22 41 49 12 17 22 31 30 41l205 271c75 99 147 189 219 270 71 81 119 131 144 150 22 17 41 25 56 24 15-1 33-12 53-33l72 80-5 7c-32 41-61 65-88 71-27 6-56-3-89-29-14-11-31-27-50-46-19-19-42-46-70-79 56 86 92 158 109 215 16 57 13 100-10 130-11 15-26 25-43 31-17 6-35 6-53 1 4 20 3 41-3 63-6 22-18 47-36 74zm-192-736c-7 2-13 5-18 8-5 3-9 7-13 11-15 19-19 46-14 80 5 35 20 77 45 127 21 43 46 84 76 124 30 40 58 69 83 89 19 14 36 23 51 26 16 3 27-1 34-10 18-23 5-74-37-152-42-79-111-179-207-303m527 294l-62-89c26-29 25-77-2-143-28-66-87-162-177-287-15-20-33-44-56-74-49-63-54-114-15-153 9-9 18-14 27-14 9-1 18 3 26 11 11 11 29 37 53 77 24 40 44 71 58 92l128 195 5 8c31 47 52 77 63 88 16 16 30 23 42 23 13 0 30-10 52-28l62 88-12 12c-30 30-59 47-87 50-28 3-57-8-87-33 11 39 16 73 13 102-3 29-14 54-32 75zm-463-935c-14 14-30 18-49 14-19-4-39-17-61-39-28-28-46-57-54-87-8-30-5-53 10-68 12-13 29-16 50-12 21 5 42 17 62 38 28 27 45 56 53 85 8 29 4 52-12 68zm718 664l-56-93c14-15 25-31 33-48 8-17 13-37 15-58-21-11-41-25-62-43-21-17-43-39-66-66-76-85-124-177-142-276-19-98-3-169 46-214 25-22 54-31 85-26 32 5 61 23 88 53 18 20 29 41 34 61 4 20 1 35-9 45-4 3-7 5-11 5-3 0-8-4-14-11-16-18-30-29-43-33-13-4-25-1-36 9-25 22-29 64-10 124 18 60 52 119 102 175 50 56 98 87 143 94 46 7 93-11 142-53l57 92c-4 4-7 8-11 14-1 1-2 1-2 2-34 30-68 51-104 63-36 12-71 15-106 8 1 35-5 67-17 96-12 29-30 56-55 80zm350-320l-48-97c30-25 36-72 19-142-18-70-62-173-134-310-12-21-26-49-45-82-39-69-37-121 7-154 10-8 20-11 29-10 9 1 17 6 24 15 9 12 23 41 41 84 18 43 33 76 44 100l99 211 4 9c23 51 40 83 50 97 13 18 26 27 39 28 13 1 31-6 56-21l49 96-14 10c-34 26-65 38-93 37-28-1-55-16-81-45 6 40 5 75-2 103-7 28-22 51-43 70zm-323-992c-15 11-32 14-50 7-18-7-36-23-55-47-24-32-37-63-41-94-4-31 3-53 20-66 14-11 31-12 52-4 20 8 39 23 56 46 23 31 37 62 40 92 4 30-4 52-22 65zm606 683c1 28-4 52-13 73-9 21-24 40-43 55l-42-100c28-21 39-58 32-113-6-55-31-134-74-237-21-50-46-108-77-175-42-89-51-142-26-157 22-14 39-22 50-24 12-2 21 2 28 12 5 7 21 51 47 130 27 79 54 155 81 227-28-140-41-247-38-321 3-75 22-123 56-145 18-11 36-13 55-4 19 9 38 26 55 52 19 30 54 119 103 266l16 48c10 31 21 60 32 86 11 26 19 43 26 53 10 16 22 25 34 27 12 2 30-4 55-16l42 100-10 6c-46 30-86 41-119 36-34-6-64-29-91-71-12-19-27-51-44-95-17-45-37-103-60-174l-5-15c-18-60-31-94-37-104-5-8-10-12-14-14-4-2-9-1-14 2-17 11-21 60-12 148 8 88 30 188 65 299 7 22 16 49 28 81 21 58 14 98-20 120-11 7-20 11-27 10-7-1-13-5-18-13-3-4-6-11-9-19-3-8-7-19-10-32zm724-993c-13-6-24-10-34-11-10-1-19 0-27 4-18 8-33 30-45 65-12 35-19 78-21 130-2 47 2 96 10 144 8 48 20 89 35 121 11 23 21 39 31 48 10 9 21 11 31 6 30-14 46-63 50-149 4-86-6-205-29-358zm77 293c9 106 7 186-5 243-13 56-37 93-73 109-17 8-34 11-50 9-16-2-31-8-45-20-9 20-22 37-38 53-16 16-37 30-62 43l-26-105c16-9 29-19 40-30 11-11 19-24 26-38-6-10-11-20-17-30-5-10-11-22-17-34-18-40-32-85-43-137-10-52-16-105-17-159-1-82 9-150 29-203 20-53 50-88 89-106 20-9 39-12 57-9 18 3 38 11 60 25l-8-35c-5-22-7-36-5-43 1-7 6-12 13-16 21-9 42-12 62-8 21 4 35 14 42 29 2 5 6 30 11 76 5 46 11 90 18 130 13 81 26 150 39 206 13 56 26 98 39 125 9 19 19 31 29 35 11 4 31 2 59-7l26 104-8 4c-47 22-84 29-111 22-26-7-48-29-65-67-8-17-15-38-23-64-7-26-16-60-25-102z" fill="#201e1e"/><path d="m2267 4804c15 12 25 24 30 37 5 12 5 24 0 36-10 24-33 36-69 37-36 1-83-11-140-34-116-48-206-111-271-191-64-80-84-151-57-215 18-44 49-71 94-82 45-11 97-3 159 22 33 14 76 35 126 65 51 30 115 70 191 121-167-149-279-263-337-342-59-79-78-141-60-187 11-27 34-43 67-47 34-4 75 4 124 24 61 25 165 96 313 213l31 25c-162-160-273-284-334-372-61-88-82-155-64-201 10-25 32-40 66-45 33-5 71 1 114 18 60 25 177 102 349 233l42 32 25 19c174 132 279 205 315 220 33 14 60 16 81 8 21-8 39-28 53-59l91 58-6 14c-25 61-59 99-102 113-43 15-99 8-167-20-60-25-190-114-390-267-42-32-74-57-97-75l-15-12c-90-69-147-108-170-117-11-4-21-6-30-5-9 1-15 5-17 11-10 24 34 92 129 206 96 114 215 230 358 348 44 37 89 74 136 110 47 37 95 73 145 108 20 14 31 27 34 37 3 10 0 24-7 42-11 26-22 44-35 54-12 10-25 12-40 6-8-3-48-33-118-88-57-44-103-81-141-109-139-107-255-194-348-260-93-66-154-105-182-117-15-6-29-8-41-7-12 1-20 6-23 15-12 29 25 92 112 189 87 97 205 204 354 322 56 44 120 92 190 142 71 50 110 79 119 86 20 15 31 28 33 37 2 9-1 24-10 45-9 22-20 37-32 46-12 9-25 11-38 5-14-6-59-37-136-95-77-58-143-107-199-147-90-65-176-123-258-173-82-50-144-84-185-101-33-14-61-19-84-16-22 3-38 14-45 33-13 32 1 70 43 114 42 44 98 80 169 109 30 12 59 20 86 24 28 4 50 3 66-3zm885-936c-11-48-36-99-74-151-38-53-76-91-114-116-19-12-35-19-49-19-14-1-24 5-31 16-15 23-7 57 25 103 31 45 76 86 133 123 22 14 41 24 59 32 18 7 35 11 52 12zm112 133c3 40 1 77-5 111-7 34-18 66-34 95l-79-74c10-21 17-41 22-61 4-20 6-41 5-64-29-4-59-12-90-25-31-13-66-32-104-56-88-57-153-125-193-205-41-80-44-146-11-198 19-29 47-43 86-42 38 1 82 17 129 48 52 33 102 83 149 147 47 65 82 132 104 204 25-1 45-5 61-15 16-9 31-24 44-44l4-6 79 74-7 11c-20 31-43 55-69 72-26 17-56 26-90 29zm203-184l-72-80c10-15 17-30 21-45 4-15 6-30 4-45-11-6-21-13-32-20-11-7-22-16-35-25-48-37-91-79-130-127-39-48-69-98-92-149-28-63-43-118-45-166-2-48 9-88 33-119 9-12 21-22 34-30 13-8 30-14 49-18l-222-269c-7-8-16-19-29-34-56-67-74-113-54-139 16-21 31-33 44-37 14-4 28 0 44 12 7 6 21 22 41 49 12 17 22 31 30 41l205 271c75 99 147 189 219 270 71 81 119 131 144 150 22 17 41 25 56 24 15-1 33-12 53-33l72 80-5 7c-32 41-61 65-88 71-27 6-56-3-89-29-14-11-31-27-50-46-19-19-42-46-70-79 56 86 92 158 109 215 16 57 13 100-10 130-11 15-26 25-43 31-17 6-35 6-53 1 4 20 3 41-3 63-6 22-18 47-36 74zm-192-736c-7 2-13 5-18 8-5 3-9 7-13 11-15 19-19 46-14 80 5 35 20 77 45 127 21 43 46 84 76 124 30 40 58 69 83 89 19 14 36 23 51 26 16 3 27-1 34-10 18-23 5-74-37-152-42-79-111-179-207-303zm527 294l-62-89c26-29 25-77-2-143-28-66-87-162-177-287-15-20-33-44-56-74-49-63-54-114-15-153 9-9 18-14 27-14 9-1 18 3 26 11 11 11 29 37 53 77 24 40 44 71 58 92l128 195 5 8c31 47 52 77 63 88 16 16 30 23 42 23 13 0 30-10 52-28l62 88-12 12c-30 30-59 47-87 50-28 3-57-8-87-33 11 39 16 73 13 102-3 29-14 54-32 75zm-463-935c-14 14-30 18-49 14-19-4-39-17-61-39-28-28-46-57-54-87-8-30-5-53 10-68 12-13 29-16 50-12 21 5 42 17 62 38 28 27 45 56 53 85 8 29 4 52-12 68zm718 664l-56-93c14-15 25-31 33-48 8-17 13-37 15-58-21-11-41-25-62-43-21-17-43-39-66-66-76-85-124-177-142-276-19-98-3-169 46-214 25-22 54-31 85-26 32 5 61 23 88 53 18 20 29 41 34 61 4 20 1 35-9 45-4 3-7 5-11 5-3 0-8-4-14-11-16-18-30-29-43-33-13-4-25-1-36 9-25 22-29 64-10 124 18 60 52 119 102 175 50 56 98 87 143 94 46 7 93-11 142-53l57 92c-4 4-7 8-11 14-1 1-2 1-2 2-34 30-68 51-104 63-36 12-71 15-106 8 1 35-5 67-17 96-12 29-30 56-55 80zm350-320l-48-97c30-25 36-72 19-142-18-70-62-173-134-310-12-21-26-49-45-82-39-69-37-121 7-154 10-8 20-11 29-10 9 1 17 6 24 15 9 12 23 41 41 84 18 43 33 76 44 100l99 211 4 9c23 51 40 83 50 97 13 18 26 27 39 28 13 1 31-6 56-21l49 96-14 10c-34 26-65 38-93 37-28-1-55-16-81-45 6 40 5 75-2 103-7 28-22 51-43 70zm-323-992c-15 11-32 14-50 7-18-7-36-23-55-47-24-32-37-63-41-94-4-31 3-53 20-66 14-11 31-12 52-4 20 8 39 23 56 46 23 31 37 62 40 92 4 30-4 52-22 65zm606 683c1 28-4 52-13 73-9 21-24 40-43 55l-42-100c28-21 39-58 32-113-6-55-31-134-74-237-21-50-46-108-77-175-42-89-51-142-26-157 22-14 39-22 50-24 12-2 21 2 28 12 5 7 21 51 47 130 27 79 54 155 81 227-28-140-41-247-38-321 3-75 22-123 56-145 18-11 36-13 55-4 19 9 38 26 55 52 19 30 54 119 103 266l16 48c10 31 21 60 32 86 11 26 19 43 26 53 10 16 22 25 34 27 12 2 30-4 55-16l42 100-10 6c-46 30-86 41-119 36-34-6-64-29-91-71-12-19-27-51-44-95-17-45-37-103-60-174l-5-15c-18-60-31-94-37-104-5-8-10-12-14-14-4-2-9-1-14 2-17 11-21 60-12 148 8 88 30 188 65 299 7 22 16 49 28 81 21 58 14 98-20 120-11 7-20 11-27 10-7-1-13-5-18-13-3-4-6-11-9-19-3-8-7-19-10-32zm724-993c-13-6-24-10-34-11-10-1-19 0-27 4-18 8-33 30-45 65-12 35-19 78-21 130-2 47 2 96 10 144 8 48 20 89 35 121 11 23 21 39 31 48 10 9 21 11 31 6 30-14 46-63 50-149 4-86-6-205-29-358zm77 293c9 106 7 186-5 243-13 56-37 93-73 109-17 8-34 11-50 9-16-2-31-8-45-20-9 20-22 37-38 53-16 16-37 30-62 43l-26-105c16-9 29-19 40-30 11-11 19-24 26-38-6-10-11-20-17-30-5-10-11-22-17-34-18-40-32-85-43-137-10-52-16-105-17-159-1-82 9-150 29-203 20-53 50-88 89-106 20-9 39-12 57-9 18 3 38 11 60 25l-8-35c-5-22-7-36-5-43 1-7 6-12 13-16 21-9 42-12 62-8 21 4 35 14 42 29 2 5 6 30 11 76 5 46 11 90 18 130 13 81 26 150 39 206 13 56 26 98 39 125 9 19 19 31 29 35 11 4 31 2 59-7l26 104-8 4c-47 22-84 29-111 22-26-7-48-29-65-67-8-17-15-38-23-64-7-26-16-60-25-102z" fill="none" stroke="#201e1e" stroke-width="25"/></g></svg>