<svg xmlns="http://www.w3.org/2000/svg" width="744.09" height="1052.36" viewBox="0 0 21000 29700" shape-rendering="geometricPrecision" image-rendering="optimizeQuality" fill-rule="evenodd" clip-rule="evenodd"><defs><clipPath id="0"><path d="m13893 25508c1304 659 3784 532 4536-687 750-1215 580-4662 651-6352 178-4232 629-7441 745-10854 130-3790-2354-6295-5323-7001-4189-995-3941 4837-3359 7834 305 1610 908 3012 1293 4586 710 2904 67 7337 313 10359 127 1045 461 1738 1142 2114z"/></clipPath><clipPath id="1"><path d="m7107 25520c-1304 659-3784 532-4536-687-750-1215-580-4662-651-6352-178-4232-629-7441-745-10854-130-3790 2354-6295 5323-7001 4189-995 3941 4837 3359 7834-305 1610-908 3012-1293 4586-710 2904-67 7337-313 10359-127 1045-461 1738-1142 2114z"/></clipPath></defs><text x="10081" y="24148" fill="#201e1e" font-family="&apos;Arial Black&apos;" stroke="#201e1e" font-weight="900" stroke-width="7.62" font-size="705.56">40</text><g fill="none" stroke="#373435" stroke-width="80"><circle cx="10533" cy="1008" r="460"/><path d="m10533 198v1621"/><path d="m9723 1008h1621"/><circle cx="10533" cy="25519" r="460"/><path d="m10533 24708v1621"/><path d="m9723 25519h1621"/></g><rect x="9843" y="22866" width="1347" height="637" rx="318" fill="#fff" stroke="#fff" stroke-width="20"/><g fill="#373435" font-family="&apos;Arial&apos;" font-weight="normal" font-size="423.33"><text x="665" y="27229">DESC 1</text><text x="630" y="27833">DESC 2</text><text x="612" y="28433">DESC 3</text></g><path d="m13893 25508c1304 659 3784 532 4536-687 750-1215 580-4662 651-6352 178-4232 629-7441 745-10854 130-3790-2354-6295-5323-7001-4189-995-3941 4837-3359 7834 305 1610 908 3012 1293 4586 710 2904 67 7337 313 10359 127 1045 461 1738 1142 2114z" fill="#fff"/><g clip-path="url(#0)"><g fill="#201e1e" stroke="#201e1e"><g font-family="&apos;Arial&apos;" stroke-width="7.62" font-size="597.49"><text x="10500" y="14850" transform="matrix(1.10386 0 0 1.16435 1547.11 1217.05)">NN 1</text><text x="10500" y="14850" transform="matrix(1.10386 0 0 1.16435 1523.42 1833.03)">NN 2</text></g><g stroke-width="20"><path d="m15026 4971c-250 400-308 1141-464 1691-250 881-585 1526-697 2424 447-138 842-389 1426-423 893-51 1445 174 1924 423 30 110 122-93 133 0 8 50-33 141 66 113 80-214 23-542-133-648-10 122 135 260 33 366-58 25-55 125-133 56-408-1299-1133-2569-2023-3551-74-47-180 6-199-28-10-215 103-326 265-395-39-32-117-32-199-28zm-3831-2508c-47 139-89 283-127 431 685 65 1337 234 1868 527 249 137 518 338 763 592 372 386 699 707 630 1381-66 645-353 1274-597 1888-585 1471-994 3235-1028 5157-7 393-27 811 265 986 185 90 394-40 531-85 156-671 2-1399 66-2114 35-383 127-1021 299-1325 634-1126 2995-982 3616-28 383 588 464 1804 464 2649 0 313-69 637 66 902 938 37 792-737 763-1409-105-2406-848-4062-1924-5552-450-623-795-1238-1360-1719-164-140-395-239-564-395-910-838-2076-1655-3732-1888z"/><path d="m13998 8945c537-442 2351-515 3052-56-114-602-435-1194-763-1775-297-526-772-1368-1294-1635-2 17-5 33-33 28-2-17-5-33-33-28-114 1321-719 2226-929 3466zm1227-3946c-163 68-275 180-265 395 19 34 125-18 199 28 891 982 1615 2252 2023 3551 78 69 74-31 133-56 101-106-43-244-33-366 155 107 212 434 133 648-100 28-59-63-66-113-11-93-103 110-133 0-479-248-1031-474-1924-423-584 33-979 285-1426 423 112-897 446-1543 697-2424 156-550 215-1291 464-1691 82-4 160-4 199 28z"/><path d="m12970 20950c89-122 50-352 133-479 251 41 134 335 100 507-102 40-149 13-232-28z"/><path d="m18111 21204c278 64 727 99 924-52-1 45-3 90-4 136-286 167-892 62-1251-55-629-205-1296-692-1592-986-558 430-1486 868-2455 958-362 34-733 12-862-113-219-211-53-694 199-817 322-157 767-4 1095 28 538-153 1151-243 1526-535-1232-1790-2202-3803-2786-6144-147-206-207-160-265-310-226-581 9-1672 66-2226 157-1518 449-2664 929-3889 228-583 548-1220 597-1832 50-625-276-913-630-1268-582-583-1468-986-2551-1123 6-27 13-54 19-80 685 65 1337 234 1868 527 249 137 518 338 763 592 372 386 699 707 630 1381-66 645-353 1274-597 1888-585 1471-994 3235-1028 5157-7 393-27 811 265 986 185 90 394-40 531-85 156-671 2-1399 66-2114 35-383 127-1021 299-1325 634-1126 2995-982 3616-28 383 588 464 1804 464 2649 0 313-69 637 66 902 938 37 792-737 763-1409-105-2406-848-4062-1924-5552-450-623-795-1238-1360-1719-164-140-395-239-564-395-910-838-2076-1655-3732-1888 7-20 13-40 20-60 1246 179 2251 670 3081 1272 208 151 362 378 564 535-5-4 220 137 299 197 1101 844 2146 2315 2753 3636 286 620 539 1352 697 2142 156 779 323 1636 265 2424-27 365-64 678-365 845-316 2337-905 4511-1924 6341 420 503 1188 896 2222 705 82 61 167 126 237 198-2 111-4 223-7 335-17-172-97-290-197-392-221 0-442 0-663 0-3 137 147 446-66 564zm-4976-845c-220 191-353 492-133 676 487 406 1658-190 1028-676-242-39-655-49-896 0zm3085-169c8 115 523 387 763 535 369 228 743 421 1028 366 117-95 103-235 66-338-552-263-1199-447-1592-845 32 100-274 170-265 282zm398-1240c-351 634-1200 1328-2421 1409 153 199 74 477-33 676 1536-291 2414-1074 2886-2283 484-1241 961-2791 1095-4115-396 1657-727 3043-1526 4312zm-2952-4425c-104-99-145-253-232-366 399 2179 1186 4028 2388 5524 225-175-72-412-166-564-628-1014-1110-2187-1526-3354-171-478-288-980-531-1381 49 24 48 91 66 141zm2023-5383c-1443-16-1908 921-2023 2057-63 619 97 1301 33 1916-14 132-91 251-100 366-35 493 269 1189 431 1635 426 1168 676 1936 1194 3016 148 307 676 1287 896 1268 104-9 270-390 365-564 263-482 289-706 431-1127 299-889 631-1864 829-2846 67-329 230-989 199-1268-15-138-113-183-133-338-72-565 19-1202-66-1804-85-600-182-1121-398-1578-498-342-891-724-1659-733z"/></g><g font-family="&apos;Chelsea Alternates&apos;" stroke-linejoin="round" stroke-linecap="round" stroke-width="50"><text x="10500" y="14850" font-size="1533.72" transform="matrix(.40686 0 0 1.16435 8719.95 5345.42)">Texto 1</text><text x="10500" y="14850" font-size="1747.25" transform="matrix(.48695 0 0 1.16435 7860.93 7311.52)">Texto 2</text></g></g></g><path d="m7107 25520c-1304 659-3784 532-4536-687-750-1215-580-4662-651-6352-178-4232-629-7441-745-10854-130-3790 2354-6295 5323-7001 4189-995 3941 4837 3359 7834-305 1610-908 3012-1293 4586-710 2904-67 7337-313 10359-127 1045-461 1738-1142 2114z" fill="#fff"/><g clip-path="url(#1)"><g fill="#201e1e" stroke="#201e1e"><g stroke-width="20"><path d="m9831 2540c48 148 90 302 126 460-710 137-1354 370-1823 675-742 482-1347 1322-1858 2142-519 832-877 1886-995 2846-143 1165-36 2374-232 3495-17 95 24 286-133 338-350-5-268-82-232-366 45-353 145-1210 166-1466 41-509 8-1459 66-2029 129-1269 554-2356 1095-3326 697-1249 2017-2381 3820-2769z"/><path d="m4717 15483c14-106 130-344 0-395-15 101-82 305 0 395zm166-423c-18 238 7 514-265 535-311-127-78-877 265-535z"/><path d="m1855 17171c-6-105-12-210-18-313 229 425 570 734 1023 824-1372-1059-1382-4455 431-5101-198-1-493-12-663 56-429 171-788 826-983 1551-8-102-17-204-25-305 240-654 645-1188 1173-1415 826-35 1326 207 1559 676 128-186 127-414 166-620 122-644 211-1353 232-2029 29-954-27-1886 199-2762 422-1635 1159-3112 2322-4115 566-488 1476-945 2533-1157 9 26 18 53 26 79-1803 388-3123 1520-3820 2769-541 969-966 2057-1095 3326-58 570-26 1520-66 2029-20 255-121 1113-166 1466-36 284-118 362 232 366 157-52 116-243 133-338 197-1121 89-2329 232-3495 118-961 476-2014 995-2846 511-820 1116-1660 1858-2142 469-305 1113-538 1823-675 3 13 6 26 9 40-1908 388-3038 1728-3823 3228-448 857-662 1834-763 2959-52 575-32 1164-66 1747-31 524-191 1037-232 1522-8 94 40 183 33 310-12 238-140 468-66 676 53 150 265 254 365 423 160 271 326 713 332 1156 10 835-274 1880-1393 1719-207 686-1083 1307-1990 902-195-87-366-275-507-511zm1569-1124c-134-461-78-1216 133-1691-920-180-983 1783-133 1691zm697 564c-634-476-606-1908-199-2565 94-153 328-243 299-366-886 397-1106 2604-100 2931zm100-2762c-363 309-612 1375-431 2057 111 418 549 927 1161 733 539-171 756-1154 663-1860-61-467-349-1204-929-1127-293 39-367 114-464 197zm199-395c197-95 367-18 531 56 0-94 0-188 0-282-102-73-267-93-464-85-60 130-40 188-66 310zm-100-197c-148-112-238-388-464-479-351-142-767-19-962 113-842 568-1176 2537-630 3776 152 345 480 841 763 930 715 226 971-440 1161-817-393-79-625-296-697-648-1182 176-928-2159 100-1860 110-348 281-644 730-705-8-167 61-205 0-310zm265-197c154-9 287 0 365 56 8-153 53-274 33-451-279-243-456 97-398 395z"/><path d="m4950 14271c-2-30-43-22-33 28 378 444 230 1477 0 1860 349-419 435-1457 33-1888zm-697 648c-51 423 41 1404 332 1409 209 4 433-656 464-1043 41-498-232-1012-398-1155-186 179-348 378-398 789zm398-902c322-104 640 452 697 902 79 631-302 1503-597 1550-378 60-541-404-597-705-99-533 0-1194 199-1494 43-64 206-224 299-254z"/></g><g font-family="&apos;Chelsea Alternates&apos;" stroke-linejoin="round" stroke-linecap="round" stroke-width="50"><text x="10500" y="14850" font-size="1533.72" transform="matrix(.40686 0 0 1.16435-1872.49 5345.75)">Texto 1</text><text x="10500" y="14850" font-size="1747.25" transform="matrix(.48695 0 0 1.16435-2731.51 7311.86)">Texto 2</text></g><g font-family="&apos;Arial&apos;" stroke-width="7.62" font-size="597.49"><text x="10500" y="14850" transform="matrix(1.10386 0 0 1.16435-5892.69 1242.2)">NN 1</text><text x="10500" y="14850" transform="matrix(1.10386 0 0 1.16435-5916.38 1858.18)">NN 2</text><text x="10500" y="14850" transform="matrix(1.10386 0 0 1.16435-5892.69 1242.2)">NN 1</text><text x="10500" y="14850" transform="matrix(1.10386 0 0 1.16435-5916.38 1858.18)">NN 2</text></g></g></g><g fill-rule="nonzero"><path d="m15263 1450c-13 14-26 23-39 27-13 4-25 3-36-2-23-11-34-35-32-71 2-36 16-82 43-137 55-113 124-199 207-258 83-59 156-74 218-44 43 21 68 54 76 99 8 45-3 97-32 157-16 32-40 73-73 122-33 49-77 110-133 183 159-157 280-262 362-315 82-54 146-69 190-48 27 13 41 36 43 70 2 34-9 74-32 122-29 59-106 159-232 300l-27 30c169-151 300-255 392-310 92-55 160-72 204-51 24 12 38 35 41 68 3 34-5 71-25 112-28 59-113 170-254 334l-34 40-21 24c-142 166-222 266-239 301-16 32-20 59-13 80 7 21 25 41 55 57l-64 87-13-6c-59-29-95-65-107-109-12-44-2-99 30-166 28-59 125-183 290-373 35-40 62-71 81-92l12-14c74-86 117-140 128-162 5-10 7-20 7-30-1-9-4-15-10-18-23-11-94 28-214 116-120 89-243 200-370 335-40 41-79 84-119 129-40 45-79 91-117 138-16 19-28 30-39 32-10 2-24-1-41-9-26-12-43-25-52-38-9-13-10-26-3-40 4-8 36-46 95-112 48-54 87-98 118-134 116-132 209-242 281-331 72-89 115-147 128-174 7-15 10-28 10-40-1-12-5-20-13-24-29-14-94 20-196 100-102 81-216 192-344 333-48 53-99 114-154 181-55 67-86 105-93 113-17 19-29 29-39 31-9 2-24-2-45-12-21-10-36-22-44-34-8-13-9-25-3-38 6-13 41-56 104-129 63-73 116-136 159-190 70-85 133-168 189-247 55-79 93-139 112-178 16-32 23-60 21-82-2-23-11-38-30-47-31-15-70-3-116 36-47 39-86 93-120 162-14 29-24 58-30 85-6 27-6 49-1 66zm952 950c48-11 99-36 152-74 53-38 91-76 116-114 12-19 19-35 20-49 1-14-5-24-16-31-23-15-57-7-103 24-46 31-87 75-124 132-14 22-25 41-32 59-7 18-11 35-13 52zm-134 111c-40 3-77 1-111-6-34-7-66-18-94-34l75-78c21 10 41 18 61 22 20 4 41 6 63 6 4-29 12-59 26-90 13-31 32-66 57-104 57-88 126-152 206-192 80-40 146-44 198-10 29 19 43 47 42 86-1 38-17 81-48 129-34 52-83 101-148 148-65 47-133 81-204 103 1 25 5 45 14 62 9 16 24 31 44 44l6 4-74 78-11-7c-31-20-55-43-71-70-17-26-26-56-29-90zm117 158l80-73c15 10 30 17 45 21 15 4 30 5 45 4 6-11 12-21 20-32 7-11 15-22 25-35 37-48 79-92 126-130 48-39 97-70 148-93 62-29 118-44 166-46 48-2 88 8 119 32 12 9 22 21 30 34 8 13 14 30 19 49l267-224c8-7 19-16 34-29 66-57 112-75 138-55 21 16 34 31 37 44 4 14 0 28-12 44-6 7-22 21-49 41-17 12-31 22-41 30l-269 207c-98 75-187 149-268 221-81 72-130 120-149 145-17 22-25 41-24 56 1 15 12 33 34 53l-79 72-7-5c-41-31-65-60-72-87-7-27 3-56 28-89 11-15 26-31 46-50 19-19 45-42 78-70-86 57-157 94-214 110-57 17-100 14-130-9-15-11-26-26-32-43-6-17-7-35-2-53-20 4-41 3-63-3-22-6-47-18-74-35zm735-198c-2-7-5-13-8-18-3-5-7-9-11-13-19-14-46-19-80-13-35 5-77 20-126 45-43 21-84 47-123 77-40 31-69 58-88 84-14 19-23 36-25 51-3 16 1 27 10 34 23 17 74 5 152-38 78-43 179-113 301-210zm-297 538l84-67c31 24 78 21 143-11 65-32 156-96 275-195 19-16 42-36 71-61 60-53 110-61 152-24 10 9 15 17 16 26 1 9-2 18-10 27-10 12-35 31-74 58-39 27-68 48-88 64l-187 140-8 6c-45 34-73 56-84 69-15 17-21 31-20 44 1 13 12 29 32 50l-84 67-13-11c-32-28-50-56-55-83-4-27 5-57 27-89-38 14-72 20-101 19-29-1-55-11-77-27zm904-521c-14-13-20-29-17-48 3-19 15-40 35-63 26-30 54-50 83-60 30-10 52-8 68 6 13 12 18 28 15 50-3 21-15 43-34 65-26 29-53 49-82 58-29 10-51 7-68-8m-621 761l91-59c15 14 31 24 49 31 18 7 37 12 59 13 10-21 24-42 41-63 17-21 38-44 64-68 83-79 173-129 271-151 98-22 169-9 215 39 23 24 33 53 29 84-4 32-21 61-50 89-20 19-40 31-60 36-20 5-35 2-45-8-4-4-5-7-5-11 0-3 4-8 11-15 18-17 28-31 32-44 4-13 0-25-11-36-23-24-64-27-124-6-60 20-117 56-171 108-54 52-84 100-89 146-5 46 14 93 58 141l-90 60c-4-4-8-7-14-10-1-1-1-1-2-2-31-33-53-67-66-102-13-35-17-70-11-106-35 2-67-3-96-14-30-11-57-28-82-52zm273 284l93-55c27 28 75 31 143 9 68-22 168-73 300-154 21-13 47-30 78-50 67-44 118-45 154-3 8 10 13 19 12 28 0 9-5 17-13 25-12 10-39 26-81 47-42 21-74 38-97 50l-205 112-8 5c-50 27-81 45-93 56-17 14-25 28-26 40-1 13 8 31 24 54l-93 55-11-13c-28-33-42-63-43-90 0-28 13-56 40-84-40 8-74 10-103 4-29-5-53-18-72-38zm969-387c-12-15-16-31-10-50 6-19 20-38 43-58 30-26 60-42 91-47 31-6 53-1 67 16 11 13 14 30 7 51-6 21-21 40-42 59-30 25-59 41-89 46-30 5-52 0-67-17m-595 717c-28 2-52-2-74-10-22-8-40-22-56-41l98-45c22 27 60 36 114 28 54-9 133-37 234-83 49-23 106-51 172-84 87-45 139-56 156-32 15 21 24 38 26 49 2 12-1 21-11 28-7 5-50 23-128 52-78 30-152 60-224 90 138-34 245-51 320-51 75 0 124 17 147 51 12 17 14 36 6 55-8 20-25 39-50 57-29 21-116 58-262 113l-48 18c-31 12-59 23-85 35-25 12-43 21-52 28-16 11-24 23-25 35-1 12 5 30 19 54l-98 46-7-9c-31-45-45-84-40-118 4-34 27-65 67-93 18-13 50-29 93-48 44-19 101-41 171-67l15-5c59-21 93-34 102-41 7-5 12-10 14-15 2-5 1-9-2-14-11-16-61-18-149-7-88 12-187 37-296 76-22 8-48 18-79 31-57 23-97 18-120-15-8-11-11-20-11-26 0-7 4-13 13-19 4-3 10-6 19-10 8-3 19-7 32-12zm972 617c6-13 9-25 10-35 1-10-1-19-5-27-9-18-31-31-67-42-35-10-79-15-130-15-47 0-95 6-143 16-48 11-88 24-120 40-23 12-38 23-47 33-8 11-10 21-5 31 15 29 65 43 151 43 86 0 205-15 356-45zm-289 90c-105 14-186 16-243 6-57-10-95-33-113-68-9-17-12-33-11-50 1-16 7-32 18-46-20-8-38-20-55-36-16-15-32-36-46-60l104-30c10 15 20 28 32 39 12 10 25 18 39 24 9-6 19-12 29-18 10-6 21-12 34-18 39-20 84-36 135-49 51-13 104-21 159-24 82-5 150 2 204 20 54 18 90 46 110 84 10 19 14 38 12 56-2 18-9 39-22 61l35-10c21-6 36-8 42-7 7 1 13 5 16 13 10 20 14 41 11 62-3 21-13 35-28 43-5 2-30 7-76 15-46 7-89 15-129 24-81 17-149 33-204 48-55 16-96 30-123 44-19 10-30 20-33 31-3 11 0 31 9 59l-103 31-4-8c-24-46-33-83-27-110 6-27 27-50 64-68 16-8 37-17 63-25 26-8 59-18 101-29z" fill="#201e1e"/><path d="m15263 1450c-13 14-26 23-39 27-13 4-25 3-36-2-23-11-34-35-32-71 2-36 16-82 43-137 55-113 124-199 207-258 83-59 156-74 218-44 43 21 68 54 76 99 8 45-3 97-32 157-16 32-40 73-73 122-33 49-77 110-133 183 159-157 280-262 362-315 82-54 146-69 190-48 27 13 41 36 43 70 2 34-9 74-32 122-29 59-106 159-232 300l-27 30c169-151 300-255 392-310 92-55 160-72 204-51 24 12 38 35 41 68 3 34-5 71-25 112-28 59-113 170-254 334l-34 40-21 24c-142 166-222 266-239 301-16 32-20 59-13 80 7 21 25 41 55 57l-64 87-13-6c-59-29-95-65-107-109-12-44-2-99 30-166 28-59 125-183 290-373 35-40 62-71 81-92l12-14c74-86 117-140 128-162 5-10 7-20 7-30-1-9-4-15-10-18-23-11-94 28-214 116-120 89-243 200-370 335-40 41-79 84-119 129-40 45-79 91-117 138-16 19-28 30-39 32-10 2-24-1-41-9-26-12-43-25-52-38-9-13-10-26-3-40 4-8 36-46 95-112 48-54 87-98 118-134 116-132 209-242 281-331 72-89 115-147 128-174 7-15 10-28 10-40-1-12-5-20-13-24-29-14-94 20-196 100-102 81-216 192-344 333-48 53-99 114-154 181-55 67-86 105-93 113-17 19-29 29-39 31-9 2-24-2-45-12-21-10-36-22-44-34-8-13-9-25-3-38 6-13 41-56 104-129 63-73 116-136 159-190 70-85 133-168 189-247 55-79 93-139 112-178 16-32 23-60 21-82-2-23-11-38-30-47-31-15-70-3-116 36-47 39-86 93-120 162-14 29-24 58-30 85-6 27-6 49-1 66zm952 950c48-11 99-36 152-74 53-38 91-76 116-114 12-19 19-35 20-49 1-14-5-24-16-31-23-15-57-7-103 24-46 31-87 75-124 132-14 22-25 41-32 59-7 18-11 35-13 52zm-134 111c-40 3-77 1-111-6-34-7-66-18-94-34l75-78c21 10 41 18 61 22 20 4 41 6 63 6 4-29 12-59 26-90 13-31 32-66 57-104 57-88 126-152 206-192 80-40 146-44 198-10 29 19 43 47 42 86-1 38-17 81-48 129-34 52-83 101-148 148-65 47-133 81-204 103 1 25 5 45 14 62 9 16 24 31 44 44l6 4-74 78-11-7c-31-20-55-43-71-70-17-26-26-56-29-90zm117 158l80-73c15 10 30 17 45 21 15 4 30 5 45 4 6-11 12-21 20-32 7-11 15-22 25-35 37-48 79-92 126-130 48-39 97-70 148-93 62-29 118-44 166-46 48-2 88 8 119 32 12 9 22 21 30 34 8 13 14 30 19 49l267-224c8-7 19-16 34-29 66-57 112-75 138-55 21 16 34 31 37 44 4 14 0 28-12 44-6 7-22 21-49 41-17 12-31 22-41 30l-269 207c-98 75-187 149-268 221-81 72-130 120-149 145-17 22-25 41-24 56 1 15 12 33 34 53l-79 72-7-5c-41-31-65-60-72-87-7-27 3-56 28-89 11-15 26-31 46-50 19-19 45-42 78-70-86 57-157 94-214 110-57 17-100 14-130-9-15-11-26-26-32-43-6-17-7-35-2-53-20 4-41 3-63-3-22-6-47-18-74-35zm735-198c-2-7-5-13-8-18-3-5-7-9-11-13-19-14-46-19-80-13-35 5-77 20-126 45-43 21-84 47-123 77-40 31-69 58-88 84-14 19-23 36-25 51-3 16 1 27 10 34 23 17 74 5 152-38 78-43 179-113 301-210zm-297 538l84-67c31 24 78 21 143-11 65-32 156-96 275-195 19-16 42-36 71-61 60-53 110-61 152-24 10 9 15 17 16 26 1 9-2 18-10 27-10 12-35 31-74 58-39 27-68 48-88 64l-187 140-8 6c-45 34-73 56-84 69-15 17-21 31-20 44 1 13 12 29 32 50l-84 67-13-11c-32-28-50-56-55-83-4-27 5-57 27-89-38 14-72 20-101 19-29-1-55-11-77-27zm904-521c-14-13-20-29-17-48 3-19 15-40 35-63 26-30 54-50 83-60 30-10 52-8 68 6 13 12 18 28 15 50-3 21-15 43-34 65-26 29-53 49-82 58-29 10-51 7-68-8zm-621 761l91-59c15 14 31 24 49 31 18 7 37 12 59 13 10-21 24-42 41-63 17-21 38-44 64-68 83-79 173-129 271-151 98-22 169-9 215 39 23 24 33 53 29 84-4 32-21 61-50 89-20 19-40 31-60 36-20 5-35 2-45-8-4-4-5-7-5-11 0-3 4-8 11-15 18-17 28-31 32-44 4-13 0-25-11-36-23-24-64-27-124-6-60 20-117 56-171 108-54 52-84 100-89 146-5 46 14 93 58 141l-90 60c-4-4-8-7-14-10-1-1-1-1-2-2-31-33-53-67-66-102-13-35-17-70-11-106-35 2-67-3-96-14-30-11-57-28-82-52zm273 284l93-55c27 28 75 31 143 9 68-22 168-73 300-154 21-13 47-30 78-50 67-44 118-45 154-3 8 10 13 19 12 28 0 9-5 17-13 25-12 10-39 26-81 47-42 21-74 38-97 50l-205 112-8 5c-50 27-81 45-93 56-17 14-25 28-26 40-1 13 8 31 24 54l-93 55-11-13c-28-33-42-63-43-90 0-28 13-56 40-84-40 8-74 10-103 4-29-5-53-18-72-38zm969-387c-12-15-16-31-10-50 6-19 20-38 43-58 30-26 60-42 91-47 31-6 53-1 67 16 11 13 14 30 7 51-6 21-21 40-42 59-30 25-59 41-89 46-30 5-52 0-67-17zm-595 717c-28 2-52-2-74-10-22-8-40-22-56-41l98-45c22 27 60 36 114 28 54-9 133-37 234-83 49-23 106-51 172-84 87-45 139-56 156-32 15 21 24 38 26 49 2 12-1 21-11 28-7 5-50 23-128 52-78 30-152 60-224 90 138-34 245-51 320-51 75 0 124 17 147 51 12 17 14 36 6 55-8 20-25 39-50 57-29 21-116 58-262 113l-48 18c-31 12-59 23-85 35-25 12-43 21-52 28-16 11-24 23-25 35-1 12 5 30 19 54l-98 46-7-9c-31-45-45-84-40-118 4-34 27-65 67-93 18-13 50-29 93-48 44-19 101-41 171-67l15-5c59-21 93-34 102-41 7-5 12-10 14-15 2-5 1-9-2-14-11-16-61-18-149-7-88 12-187 37-296 76-22 8-48 18-79 31-57 23-97 18-120-15-8-11-11-20-11-26 0-7 4-13 13-19 4-3 10-6 19-10 8-3 19-7 32-12zm972 617c6-13 9-25 10-35 1-10-1-19-5-27-9-18-31-31-67-42-35-10-79-15-130-15-47 0-95 6-143 16-48 11-88 24-120 40-23 12-38 23-47 33-8 11-10 21-5 31 15 29 65 43 151 43 86 0 205-15 356-45zm-289 90c-105 14-186 16-243 6-57-10-95-33-113-68-9-17-12-33-11-50 1-16 7-32 18-46-20-8-38-20-55-36-16-15-32-36-46-60l104-30c10 15 20 28 32 39 12 10 25 18 39 24 9-6 19-12 29-18 10-6 21-12 34-18 39-20 84-36 135-49 51-13 104-21 159-24 82-5 150 2 204 20 54 18 90 46 110 84 10 19 14 38 12 56-2 18-9 39-22 61l35-10c21-6 36-8 42-7 7 1 13 5 16 13 10 20 14 41 11 62-3 21-13 35-28 43-5 2-30 7-76 15-46 7-89 15-129 24-81 17-149 33-204 48-55 16-96 30-123 44-19 10-30 20-33 31-3 11 0 31 9 59l-103 31-4-8c-24-46-33-83-27-110 6-27 27-50 64-68 16-8 37-17 63-25 26-8 59-18 101-29z" fill="none" stroke="#201e1e" stroke-width="25"/><path d="m2158 5009c14 13 24 26 28 38 4 12 4 25-2 36-11 24-34 35-70 34-36-1-82-15-138-41-114-53-201-120-262-203-61-82-77-155-48-217 20-43 52-69 97-77 45-9 98 1 158 29 33 15 74 39 123 71 49 32 111 75 186 130-160-156-267-275-322-356-55-81-72-144-51-189 12-27 35-41 69-44 34-3 74 7 122 30 59 28 161 103 304 226l30 27c-154-167-260-295-317-387-57-91-75-159-55-203 11-25 34-39 68-42 34-4 71 4 113 23 59 27 172 110 338 248l40 33 24 20c168 139 270 217 305 233 32 15 59 19 81 12 21-7 40-26 56-56l88 62-6 13c-28 60-63 96-107 109-44 13-99 4-166-27-59-27-185-122-378-284-40-34-72-60-94-79l-14-12c-87-73-142-114-165-125-10-5-20-7-30-6-9 1-15 4-18 10-11 23 29 94 120 212 91 118 205 240 342 364 42 39 86 77 131 116 45 39 92 77 140 115 19 15 30 28 32 38 2 10-1 24-9 41-12 26-24 43-37 52-13 9-26 11-40 4-8-4-46-35-114-93-55-47-100-85-136-116-134-113-246-205-336-275-90-70-149-112-176-124-15-7-28-10-41-9-12 1-20 5-24 14-13 29 21 93 104 194 83 100 196 213 339 338 54 47 115 97 184 151 68 54 107 84 115 91 19 16 30 29 32 38 2 9-2 24-12 45-10 21-21 36-34 45-12 8-25 10-38 4-13-6-57-40-131-101-74-61-138-113-193-156-87-69-170-130-250-184-80-54-140-90-180-109-33-15-60-22-83-20-23 2-38 12-47 31-14 31-2 70 38 116 40 46 94 85 164 117 30 14 58 23 85 28 27 5 49 5 66 0zm907-893c-12-48-37-99-75-151-38-52-77-91-115-115-19-12-35-18-49-19-14 0-24 5-31 16-15 23-6 58 26 103 32 45 76 86 133 122 22 14 42 24 59 31 18 7 35 11 52 12zm113 133c3 40 2 77-5 111-6 34-17 66-33 95l-79-74c10-21 17-41 21-61 4-20 6-41 5-64-29-4-59-12-91-25-32-13-66-32-105-56-88-56-153-124-194-204-41-80-45-146-12-198 19-29 47-43 85-43 38 1 82 16 129 47 52 33 102 82 150 146 48 64 83 132 105 203 25-1 45-6 61-15 16-9 31-24 43-44l4-6 79 74-7 11c-20 31-43 55-69 72-26 17-56 27-89 30zm154-120l-72-81c10-15 17-30 21-45 4-15 6-30 5-45-10-6-21-13-32-20-11-7-22-16-35-26-48-37-90-80-128-129-38-49-68-98-91-150-27-63-42-118-43-166-2-48 10-87 34-118 10-12 21-22 35-29 13-8 30-13 50-18l-219-271c-6-8-16-19-28-34-56-67-73-114-53-139 16-21 31-33 45-37 14-4 28 1 44 13 7 6 21 22 40 50 12 18 22 31 29 41l202 273c74 99 145 190 216 272 71 82 118 132 142 152 22 17 41 25 56 25 15-1 33-12 54-33l71 80-6 7c-32 41-62 64-88 70-27 6-56-4-89-30-14-11-31-27-50-47-18-20-41-46-69-79 55 87 91 159 107 216 16 57 12 100-12 130-12 15-26 25-44 31-17 6-35 6-53 1 4 20 3 41-4 63-6 22-19 47-36 74zm-184-738c-7 2-13 5-18 8-5 3-9 7-13 11-15 19-20 46-15 80 5 35 19 77 43 127 20 43 45 85 75 125 30 40 57 70 82 90 19 15 36 23 51 26 15 3 27 0 34-10 18-23 6-73-35-153-41-79-109-181-204-305zm522 298l-63-88c26-29 25-77-3-143-28-66-88-161-179-286-15-19-34-44-57-74-50-63-55-114-16-153 9-9 18-14 27-15 9-1 18 3 26 11 11 11 29 37 54 77 25 40 44 71 59 92l130 194 5 8c31 47 52 76 64 88 16 15 30 23 43 22 13-1 30-10 52-29l63 88-12 12c-30 31-59 47-86 50-28 3-57-8-87-32 12 39 16 73 13 102-3 29-14 54-32 76zm-471-931c-13 14-30 18-49 14-19-4-40-17-61-38-28-28-47-56-55-86-9-30-5-53 10-68 12-13 29-17 50-12 21 5 42 17 63 37 28 27 46 55 54 85 8 29 4 52-12 68m724 659l-56-92c14-15 25-31 33-49 8-17 13-37 14-58-21-11-41-25-62-42-21-17-43-39-67-65-77-85-125-177-144-275-19-98-4-169 45-214 25-23 53-32 85-26 32 5 61 23 88 53 18 20 30 40 34 61 5 20 2 35-9 45-4 4-7 5-11 5-3 0-8-4-14-11-16-18-31-29-44-33-13-4-25-1-36 10-25 22-28 64-10 124 19 60 53 118 103 174 50 56 98 87 144 93 46 6 93-12 142-54l57 92c-4 4-7 8-10 14-1 1-2 1-2 2-34 30-68 51-103 64-35 12-71 15-106 9 1 35-5 67-17 96-12 29-30 56-55 81zm291-266l-55-93c28-27 31-75 9-143-22-68-74-168-155-300-13-21-30-47-50-78-44-67-45-118-3-154 10-8 19-13 28-12 9 0 17 5 25 13 10 12 26 39 47 81 21 42 38 74 51 96l113 204 5 8c27 49 46 80 57 93 14 17 28 25 41 26 13 1 31-8 54-24l55 93-13 11c-32 28-62 42-90 43-28 1-56-13-84-39 8 40 10 74 5 103-5 29-18 53-38 73zm-391-968c-15 13-31 16-50 10-19-6-38-20-58-43-26-30-42-60-48-91-6-31-1-53 15-67 13-12 30-14 51-8 21 6 40 20 59 42 25 30 41 59 47 89 6 30 0 52-17 67zm721 591c1 28-3 52-12 74-9 22-23 40-42 55l-44-99c28-21 38-59 30-114-8-55-34-133-79-236-22-49-49-107-81-173-44-88-54-140-30-157 22-15 38-23 50-25 12-2 21 2 28 12 5 7 22 51 50 129 28 79 57 153 86 225-31-139-46-246-45-321 2-75 19-123 53-146 17-12 36-13 55-5 20 8 38 25 56 51 20 30 56 117 109 264l17 48c11 31 22 59 34 85 11 25 20 43 27 53 11 16 22 25 34 26 12 2 30-5 54-18l44 99-9 6c-45 30-85 43-119 38-34-5-65-28-92-69-13-19-28-50-46-94-18-44-39-102-64-173l-5-15c-20-59-33-94-39-103-5-8-10-12-15-14-5-2-9-1-14 2-16 11-19 60-9 149 10 88 34 188 71 298 7 22 17 49 29 80 22 57 16 97-17 120-11 7-20 11-26 11-7 0-13-5-18-13-3-4-6-10-9-19-3-8-7-19-11-32zm541-930c-13-6-25-9-35-9-10 0-19 1-27 5-17 9-31 31-41 67-10 35-15 79-14 131 1 47 7 95 18 143 11 48 25 88 41 119 12 23 23 38 34 47 11 8 21 10 31 5 29-15 43-66 42-151-1-86-17-205-49-356zm93 288c15 105 17 186 8 243-9 57-32 95-67 113-17 9-33 13-50 12-16-1-32-7-46-18-8 20-20 39-35 55-15 16-35 32-60 47l-31-104c15-10 28-20 38-32 10-12 18-25 23-39-6-9-12-19-18-29-6-10-12-21-19-33-20-39-37-83-50-135-13-51-22-104-26-158-5-82 0-150 18-204 18-54 45-91 83-110 19-10 38-14 56-12 18 2 39 9 61 22l-10-35c-6-21-9-35-8-42 1-7 5-13 13-17 20-11 41-14 62-11 21 3 35 12 43 27 2 5 7 30 15 75 8 46 16 89 25 129 17 80 34 148 50 203 16 55 31 96 45 123 10 19 20 30 31 33 11 3 31 0 59-10l32 103-8 4c-46 24-83 33-109 28-27-5-50-27-69-63-8-16-17-37-26-63-9-25-19-59-30-101z" fill="#201e1e"/><path d="m2158 5009c14 13 24 26 28 38 4 12 4 25-2 36-11 24-34 35-70 34-36-1-82-15-138-41-114-53-201-120-262-203-61-82-77-155-48-217 20-43 52-69 97-77 45-9 98 1 158 29 33 15 74 39 123 71 49 32 111 75 186 130-160-156-267-275-322-356-55-81-72-144-51-189 12-27 35-41 69-44 34-3 74 7 122 30 59 28 161 103 304 226l30 27c-154-167-260-295-317-387-57-91-75-159-55-203 11-25 34-39 68-42 34-4 71 4 113 23 59 27 172 110 338 248l40 33 24 20c168 139 270 217 305 233 32 15 59 19 81 12 21-7 40-26 56-56l88 62-6 13c-28 60-63 96-107 109-44 13-99 4-166-27-59-27-185-122-378-284-40-34-72-60-94-79l-14-12c-87-73-142-114-165-125-10-5-20-7-30-6-9 1-15 4-18 10-11 23 29 94 120 212 91 118 205 240 342 364 42 39 86 77 131 116 45 39 92 77 140 115 19 15 30 28 32 38 2 10-1 24-9 41-12 26-24 43-37 52-13 9-26 11-40 4-8-4-46-35-114-93-55-47-100-85-136-116-134-113-246-205-336-275-90-70-149-112-176-124-15-7-28-10-41-9-12 1-20 5-24 14-13 29 21 93 104 194 83 100 196 213 339 338 54 47 115 97 184 151 68 54 107 84 115 91 19 16 30 29 32 38 2 9-2 24-12 45-10 21-21 36-34 45-12 8-25 10-38 4-13-6-57-40-131-101-74-61-138-113-193-156-87-69-170-130-250-184-80-54-140-90-180-109-33-15-60-22-83-20-23 2-38 12-47 31-14 31-2 70 38 116 40 46 94 85 164 117 30 14 58 23 85 28 27 5 49 5 66 0zm907-893c-12-48-37-99-75-151-38-52-77-91-115-115-19-12-35-18-49-19-14 0-24 5-31 16-15 23-6 58 26 103 32 45 76 86 133 122 22 14 42 24 59 31 18 7 35 11 52 12zm113 133c3 40 2 77-5 111-6 34-17 66-33 95l-79-74c10-21 17-41 21-61 4-20 6-41 5-64-29-4-59-12-91-25-32-13-66-32-105-56-88-56-153-124-194-204-41-80-45-146-12-198 19-29 47-43 85-43 38 1 82 16 129 47 52 33 102 82 150 146 48 64 83 132 105 203 25-1 45-6 61-15 16-9 31-24 43-44l4-6 79 74-7 11c-20 31-43 55-69 72-26 17-56 27-89 30zm154-120l-72-81c10-15 17-30 21-45 4-15 6-30 5-45-10-6-21-13-32-20-11-7-22-16-35-26-48-37-90-80-128-129-38-49-68-98-91-150-27-63-42-118-43-166-2-48 10-87 34-118 10-12 21-22 35-29 13-8 30-13 50-18l-219-271c-6-8-16-19-28-34-56-67-73-114-53-139 16-21 31-33 45-37 14-4 28 1 44 13 7 6 21 22 40 50 12 18 22 31 29 41l202 273c74 99 145 190 216 272 71 82 118 132 142 152 22 17 41 25 56 25 15-1 33-12 54-33l71 80-6 7c-32 41-62 64-88 70-27 6-56-4-89-30-14-11-31-27-50-47-18-20-41-46-69-79 55 87 91 159 107 216 16 57 12 100-12 130-12 15-26 25-44 31-17 6-35 6-53 1 4 20 3 41-4 63-6 22-19 47-36 74zm-184-738c-7 2-13 5-18 8-5 3-9 7-13 11-15 19-20 46-15 80 5 35 19 77 43 127 20 43 45 85 75 125 30 40 57 70 82 90 19 15 36 23 51 26 15 3 27 0 34-10 18-23 6-73-35-153-41-79-109-181-204-305zm522 298l-63-88c26-29 25-77-3-143-28-66-88-161-179-286-15-19-34-44-57-74-50-63-55-114-16-153 9-9 18-14 27-15 9-1 18 3 26 11 11 11 29 37 54 77 25 40 44 71 59 92l130 194 5 8c31 47 52 76 64 88 16 15 30 23 43 22 13-1 30-10 52-29l63 88-12 12c-30 31-59 47-86 50-28 3-57-8-87-32 12 39 16 73 13 102-3 29-14 54-32 76zm-471-931c-13 14-30 18-49 14-19-4-40-17-61-38-28-28-47-56-55-86-9-30-5-53 10-68 12-13 29-17 50-12 21 5 42 17 63 37 28 27 46 55 54 85 8 29 4 52-12 68zm724 659l-56-92c14-15 25-31 33-49 8-17 13-37 14-58-21-11-41-25-62-42-21-17-43-39-67-65-77-85-125-177-144-275-19-98-4-169 45-214 25-23 53-32 85-26 32 5 61 23 88 53 18 20 30 40 34 61 5 20 2 35-9 45-4 4-7 5-11 5-3 0-8-4-14-11-16-18-31-29-44-33-13-4-25-1-36 10-25 22-28 64-10 124 19 60 53 118 103 174 50 56 98 87 144 93 46 6 93-12 142-54l57 92c-4 4-7 8-10 14-1 1-2 1-2 2-34 30-68 51-103 64-35 12-71 15-106 9 1 35-5 67-17 96-12 29-30 56-55 81zm291-266l-55-93c28-27 31-75 9-143-22-68-74-168-155-300-13-21-30-47-50-78-44-67-45-118-3-154 10-8 19-13 28-12 9 0 17 5 25 13 10 12 26 39 47 81 21 42 38 74 51 96l113 204 5 8c27 49 46 80 57 93 14 17 28 25 41 26 13 1 31-8 54-24l55 93-13 11c-32 28-62 42-90 43-28 1-56-13-84-39 8 40 10 74 5 103-5 29-18 53-38 73zm-391-968c-15 13-31 16-50 10-19-6-38-20-58-43-26-30-42-60-48-91-6-31-1-53 15-67 13-12 30-14 51-8 21 6 40 20 59 42 25 30 41 59 47 89 6 30 0 52-17 67zm721 591c1 28-3 52-12 74-9 22-23 40-42 55l-44-99c28-21 38-59 30-114-8-55-34-133-79-236-22-49-49-107-81-173-44-88-54-140-30-157 22-15 38-23 50-25 12-2 21 2 28 12 5 7 22 51 50 129 28 79 57 153 86 225-31-139-46-246-45-321 2-75 19-123 53-146 17-12 36-13 55-5 20 8 38 25 56 51 20 30 56 117 109 264l17 48c11 31 22 59 34 85 11 25 20 43 27 53 11 16 22 25 34 26 12 2 30-5 54-18l44 99-9 6c-45 30-85 43-119 38-34-5-65-28-92-69-13-19-28-50-46-94-18-44-39-102-64-173l-5-15c-20-59-33-94-39-103-5-8-10-12-15-14-5-2-9-1-14 2-16 11-19 60-9 149 10 88 34 188 71 298 7 22 17 49 29 80 22 57 16 97-17 120-11 7-20 11-26 11-7 0-13-5-18-13-3-4-6-10-9-19-3-8-7-19-11-32zm541-930c-13-6-25-9-35-9-10 0-19 1-27 5-17 9-31 31-41 67-10 35-15 79-14 131 1 47 7 95 18 143 11 48 25 88 41 119 12 23 23 38 34 47 11 8 21 10 31 5 29-15 43-66 42-151-1-86-17-205-49-356zm93 288c15 105 17 186 8 243-9 57-32 95-67 113-17 9-33 13-50 12-16-1-32-7-46-18-8 20-20 39-35 55-15 16-35 32-60 47l-31-104c15-10 28-20 38-32 10-12 18-25 23-39-6-9-12-19-18-29-6-10-12-21-19-33-20-39-37-83-50-135-13-51-22-104-26-158-5-82 0-150 18-204 18-54 45-91 83-110 19-10 38-14 56-12 18 2 39 9 61 22l-10-35c-6-21-9-35-8-42 1-7 5-13 13-17 20-11 41-14 62-11 21 3 35 12 43 27 2 5 7 30 15 75 8 46 16 89 25 129 17 80 34 148 50 203 16 55 31 96 45 123 10 19 20 30 31 33 11 3 31 0 59-10l32 103-8 4c-46 24-83 33-109 28-27-5-50-27-69-63-8-16-17-37-26-63-9-25-19-59-30-101z" fill="none" stroke="#201e1e" stroke-width="25"/></g></svg>