<svg xmlns="http://www.w3.org/2000/svg" width="744.09" height="1052.36" viewBox="0 0 21000 29700" shape-rendering="geometricPrecision" image-rendering="optimizeQuality" fill-rule="evenodd" clip-rule="evenodd" xmlns:xlink="http://www.w3.org/1999/xlink"><defs><clipPath id="2"><path d="m13861 26164c1334 682 3868 551 4637-712 767-1258 593-4827 666-6577 182-4382 643-7705 762-11239 132-3924-2407-6519-5442-7249-4282-1031-4028 5008-3434 8112 312 1667 929 3119 1322 4749 725 3007 68 7597 320 10727 129 1082 472 1799 1168 2189z"/></clipPath><clipPath id="3"><path d="m7139 25957c-1334 682-3868 551-4637-712-767-1258-593-4827-666-6577-182-4382-643-7705-762-11239-132-3924 2407-6519 5442-7249 4282-1031 4028 5008 3434 8112-312 1667-929 3119-1322 4749-725 3007-68 7597-320 10727-129 1082-472 1799-1168 2189z"/></clipPath></defs><text x="10081" y="23623" fill="#201e1e" font-family="&apos;Arial Black&apos;" stroke="#201e1e" font-weight="900" stroke-width="7.62" font-size="705.56">42</text><circle cx="10533" cy="1326" r="460" fill="none" stroke="#373435" stroke-width="80"/><path fill="none" stroke="#373435" stroke-width="80" d="m10533 515v1621" id="0"/><path fill="none" stroke="#373435" stroke-width="80" d="m9723 1326h1621" id="1"/><g fill="none" stroke="#373435" stroke-width="80"><circle cx="10533" cy="24995" r="460"/><path d="m10533 24184v1621"/><path d="m9723 24995h1621"/></g><rect x="9508" y="21571" width="1347" height="637" rx="318" fill="#fff" stroke="#fff" stroke-width="20"/><g fill="#373435" font-family="&apos;Arial&apos;" font-weight="normal" font-size="423.33"><text x="665" y="27449">DESC 1</text><text x="630" y="28053">DESC 2</text><text x="612" y="28653">DESC 3</text></g><circle cx="10533" cy="1326" r="460" fill="none" stroke="#373435" stroke-width="80"/><use xlink:href="#0"/><use xlink:href="#1"/><path d="m13861 26164c1334 682 3868 551 4637-712 767-1258 593-4827 666-6577 182-4382 643-7705 762-11239 132-3924-2407-6519-5442-7249-4282-1031-4028 5008-3434 8112 312 1667 929 3119 1322 4749 725 3007 68 7597 320 10727 129 1082 472 1799 1168 2189z" fill="#fff"/><g clip-path="url(#2)"><g fill="#201e1e" stroke="#201e1e"><g font-family="&apos;Arial&apos;" stroke-width="7.62" font-size="597.49"><text x="10500" y="14850" transform="matrix(1.12844 0 0 1.20566 1240.33 1011.46)">NN 1</text><text x="10500" y="14850" transform="matrix(1.12844 0 0 1.20566 1216.11 1649.3)">NN 2</text></g><g stroke-width="20"><path d="m15020 4898c-255 414-315 1181-475 1751-256 912-598 1581-712 2510 457-143 861-403 1458-438 913-53 1477 181 1967 438 31 114 125-97 136 0 8 52-34 146 68 117 81-221 23-561-136-671-10 126 138 269 34 379-60 26-56 129-136 58-417-1345-1158-2660-2068-3677-75-48-184 6-203-29-10-223 105-338 271-409-40-34-120-33-203-29zm-3917-2597c-48 144-91 293-129 446 700 67 1367 242 1910 546 254 142 530 350 780 613 381 399 715 732 644 1430-68 667-360 1319-610 1955-598 1523-1016 3350-1051 5340-7 407-27 839 271 1021 189 94 403-41 543-88 160-695 2-1448 68-2189 35-396 130-1057 305-1372 648-1165 3062-1017 3696-29 391 609 475 1868 475 2743 0 324-70 659 68 934 958 38 810-763 780-1459-107-2491-867-4207-1967-5749-460-645-812-1281-1390-1780-168-145-404-248-576-409-930-867-2122-1714-3815-1955z"/><path d="m13968 9013c549-458 2403-533 3120-58-116-623-444-1237-780-1839-304-545-789-1417-1322-1693-2 18-5 35-34 29-2-18-5-35-34-29-117 1368-735 2305-949 3589zm1255-4086c-166 71-281 186-271 409 20 35 128-19 203 29 910 1017 1651 2332 2068 3677 80 71 76-33 136-58 104-110-44-253-34-379 159 110 217 450 136 671-102 29-60-65-68-117-11-97-105 114-136 0-490-257-1054-490-1967-438-597 34-1001 295-1458 438 114-929 456-1598 712-2510 160-570 219-1337 475-1751 84-4 163-4 203 29z"/><path d="m12917 21445c90-126 51-365 136-496 256 43 137 347 102 525-104 41-153 13-237-29z"/><path d="m18173 21708c284 66 743 102 944-54-1 47-3 94-4 140-293 173-912 64-1279-57-643-212-1325-717-1628-1021-571 445-1519 899-2509 992-370 35-749 12-882-117-224-218-54-719 203-846 329-163 784-4 1119 29 550-159 1177-252 1560-554-1260-1854-2251-3938-2848-6362-151-214-211-166-271-321-231-601 9-1731 68-2305 161-1572 459-2759 949-4027 233-604 560-1263 610-1897 51-648-282-945-644-1313-595-604-1500-1021-2608-1163 7-28 13-56 20-83 700 67 1367 242 1910 546 254 142 530 350 780 613 381 399 715 732 644 1430-68 667-360 1319-610 1955-598 1523-1016 3350-1051 5340-7 407-27 840 271 1021 189 94 403-41 543-88 160-695 2-1448 68-2189 35-396 130-1057 305-1372 648-1165 3062-1017 3696-29 391 609 475 1868 475 2743 0 324-70 659 68 934 958 38 810-763 780-1459-107-2491-867-4207-1967-5749-460-645-812-1281-1390-1780-168-145-404-248-576-409-930-867-2122-1714-3815-1955 7-21 14-42 21-62 1273 185 2301 694 3150 1317 213 156 370 391 576 554-5-4 225 142 305 204 1126 874 2193 2398 2814 3765 292 642 551 1400 712 2218 159 807 330 1694 271 2510-27 378-66 702-373 876-323 2420-926 4671-1967 6566 429 521 1215 927 2272 730 83 63 171 130 243 205-2 115-4 231-7 347-18-178-99-301-201-406-226 0-452 0-678 0-3 142 150 462-68 584zm-5086-875c-225 198-361 510-136 700 498 421 1694-196 1051-700-248-41-670-51-916 0zm3154-175c9 119 535 401 780 554 377 236 760 436 1051 379 120-98 106-243 68-350-565-273-1226-463-1628-875 33 103-280 176-271 292zm407-1284c-359 656-1227 1375-2475 1459 156 206 76 494-34 700 1571-302 2468-1113 2950-2364 495-1285 982-2890 1119-4261-405 1716-743 3151-1560 4465zm-3018-4582c-107-103-148-262-237-379 408 2256 1212 4171 2441 5720 230-182-74-427-170-584-642-1050-1134-2264-1560-3473-174-495-295-1014-543-1430 50 25 49 94 68 146zm2068-5574c-1475-17-1951 953-2068 2130-64 641 99 1347 34 1984-14 137-93 259-102 379-36 511 275 1231 441 1693 436 1210 691 2005 1221 3123 151 318 691 1333 916 1313 107-9 276-404 373-584 269-499 296-731 441-1167 306-921 645-1931 848-2947 68-341 235-1024 203-1313-16-143-115-189-136-350-74-585 20-1244-68-1868-87-621-186-1161-407-1634-509-354-911-750-1695-759z"/></g><g font-family="&apos;Chelsea Alternates&apos;" stroke-linejoin="round" stroke-linecap="round" stroke-width="50"><text x="10500" y="14850" font-size="1533.72" transform="matrix(.41592 0 0 1.20566 8572.87 5286.32)">Texto 1</text><text x="10500" y="14850" font-size="1747.25" transform="matrix(.49779 0 0 1.20566 7694.72 7322.19)">Texto 2</text></g></g></g><path d="m7139 25957c-1334 682-3868 551-4637-712-767-1258-593-4827-666-6577-182-4382-643-7705-762-11239-132-3924 2407-6519 5442-7249 4282-1031 4028 5008 3434 8112-312 1667-929 3119-1322 4749-725 3007-68 7597-320 10727-129 1082-472 1799-1168 2189z" fill="#fff"/><g clip-path="url(#3)"><g fill="#201e1e" stroke="#201e1e"><g stroke-width="20"><path d="m9923 2162c49 154 92 313 129 476-726 142-1384 383-1864 699-758 499-1377 1369-1899 2218-530 862-897 1953-1017 2947-146 1207-36 2458-237 3619-17 99 25 296-136 350-358-5-274-85-237-379 46-365 149-1253 170-1517 42-527 9-1511 68-2101 132-1314 566-2440 1119-3444 712-1294 2062-2466 3905-2867z"/><path d="m4696 15564c14-110 133-356 0-409-16 104-83 316 0 409zm170-438c-19 247 8 532-271 554-318-132-79-908 271-554z"/><path d="m1770 17311c-6-109-12-217-19-325 234 440 583 760 1046 854-1402-1097-1413-4614 441-5282-202-1-504-12-678 58-439 177-806 856-1004 1606-8-106-17-211-26-316 245-677 659-1230 1200-1465 844-36 1355 215 1594 700 130-192 130-429 170-642 124-667 216-1401 237-2101 30-988-28-1953 203-2860 431-1693 1185-3222 2374-4261 578-505 1509-978 2589-1199 9 27 18 55 27 82-1843 402-3192 1574-3905 2867-553 1004-987 2130-1119 3444-59 591-26 1574-68 2101-21 264-124 1152-170 1517-37 294-121 375 237 379 160-54 119-251 136-350 201-1161 91-2412 237-3619 120-995 487-2086 1017-2947 522-849 1141-1719 1899-2218 479-316 1138-557 1864-699 3 14 7 27 10 41-1950 402-3105 1789-3908 3343-458 887-677 1900-780 3064-53 595-33 1205-68 1809-31 542-195 1074-237 1576-8 97 41 190 34 321-12 246-143 485-68 700 55 156 270 262 373 438 164 280 333 739 339 1197 11 865-280 1947-1424 1780-211 711-1107 1353-2035 934-200-90-374-285-519-529zm1604-1164c-137-477-80-1259 136-1751-941-186-1005 1846-136 1751zm712 584c-649-493-619-1975-203-2656 96-158 335-251 305-379-906 411-1130 2696-102 3035zm102-2860c-371 320-626 1424-441 2130 113 432 561 960 1187 759 551-177 773-1195 678-1926-63-483-357-1247-949-1167-300 40-375 118-475 204zm203-409c201-98 375-19 543 58 0-97 0-195 0-292-104-76-272-96-475-88-61 135-41 194-68 321zm-102-204c-151-116-244-401-475-496-359-147-784-20-983 117-860 588-1202 2627-644 3910 155 358 491 870 780 963 731 234 992-455 1187-846-402-82-639-306-712-671-1208 183-949-2236 102-1926 112-361 287-667 746-730-8-173 63-212 0-321zm271-204c157-9 294 0 373 58 8-158 54-284 34-467-285-252-466 100-407 409z"/><path d="m4934 14309c-2-31-43-23-34 29 386 459 235 1529 0 1926 357-434 444-1509 34-1955zm-712 671c-52 438 42 1454 339 1459 214 4 442-679 475-1080 42-516-237-1048-407-1196-190 185-356 391-407 817zm407-934c329-108 654 468 712 934 81 653-308 1557-610 1605-386 62-553-419-610-730-102-552 0-1236 203-1547 44-67 210-232 305-263z"/></g><g font-family="&apos;Chelsea Alternates&apos;" stroke-linejoin="round" stroke-linecap="round" stroke-width="50"><text x="10500" y="14850" font-size="1533.72" transform="matrix(.41592 0 0 1.20566-2040.51 5066.56)">Texto 1</text><text x="10500" y="14850" font-size="1747.25" transform="matrix(.49779 0 0 1.20566-2918.66 7102.43)">Texto 2</text></g><g font-family="&apos;Arial&apos;" stroke-width="7.62" font-size="597.49"><text x="10500" y="14850" transform="matrix(1.12844 0 0 1.20566-6150.22 817.4)">NN 1</text><text x="10500" y="14850" transform="matrix(1.12844 0 0 1.20566-6174.43 1455.24)">NN 2</text><text x="10500" y="14850" transform="matrix(1.12844 0 0 1.20566-6150.22 817.4)">NN 1</text><text x="10500" y="14850" transform="matrix(1.12844 0 0 1.20566-6174.43 1455.24)">NN 2</text></g></g></g><g fill-rule="nonzero"><path d="m15323 1267c-13 14-26 23-38 27-13 4-25 3-36-2-23-11-34-35-33-71 2-36 16-82 43-138 54-113 123-200 206-259 83-60 156-74 218-45 43 21 68 53 76 99 8 45-2 98-31 157-16 32-40 73-72 122-33 49-77 110-132 184 159-157 279-263 361-317 82-54 145-70 190-49 27 13 41 36 43 70 2 34-8 74-31 122-28 59-105 159-231 300l-27 30c169-152 299-256 391-311 92-56 160-73 204-52 24 12 38 34 41 68 3 34-5 71-25 112-28 59-113 170-253 334l-34 40-20 24c-142 166-221 267-238 302-15 32-20 59-13 80 7 21 25 40 56 57l-64 88-13-6c-59-28-95-65-107-109-12-44-2-99 30-166 28-59 125-183 289-374 35-40 61-71 80-93l12-14c74-86 116-140 127-163 5-10 7-20 7-30-1-9-4-15-10-18-23-11-94 28-214 117-120 89-243 201-369 337-39 42-79 85-118 130-39 45-78 91-117 138-16 19-28 30-39 32-10 2-24-1-41-9-26-12-43-25-52-38-9-13-10-26-3-40 4-8 36-46 95-113 47-54 87-99 118-134 115-132 208-243 280-332 72-89 114-147 127-174 7-15 10-28 9-40-1-12-5-20-13-24-29-14-94 20-195 101-102 81-216 193-343 334-48 53-99 114-153 181-55 68-85 106-93 114-16 19-29 29-39 31-9 2-24-2-45-12-21-10-36-22-44-34-8-13-9-25-3-38 6-13 41-56 103-130 62-73 115-137 159-190 70-86 133-168 188-247 55-79 92-139 111-179 16-32 23-60 21-83-2-23-12-38-30-47-31-15-70-3-116 36-46 39-86 93-119 162-14 29-24 58-29 85-6 27-6 49-1 66zm946 956c48-12 98-38 150-77 52-39 90-78 114-116 12-19 18-36 19-49 0-14-5-24-16-31-23-15-58-6-103 27-45 32-85 77-121 134-14 22-24 42-31 59-7 18-11 35-12 53m-131 114c-40 4-77 2-111-4-34-6-66-17-95-32l73-80c21 10 41 17 62 21 20 4 42 6 64 4 3-29 11-59 24-91 13-32 31-67 55-105 55-89 123-154 202-196 80-42 145-47 198-14 29 18 44 47 43 85 0 38-16 82-46 130-33 52-81 103-145 151-64 48-131 84-202 107 1 25 6 45 15 61 9 16 24 30 45 43l6 4-73 80-12-7c-31-20-56-42-73-68-17-26-27-56-31-89zm119 158l81-71c15 10 30 17 45 22 15 4 30 6 45 5 6-10 13-21 20-32 7-11 16-22 26-34 37-47 80-90 129-128 49-38 98-68 150-91 63-27 118-42 167-43 48-2 87 10 118 34 12 10 22 21 29 35 8 13 13 30 18 50l271-219c8-6 19-16 34-28 67-55 114-73 140-52 21 16 33 31 37 45 4 14-1 28-13 44-6 7-22 21-50 40-18 12-31 22-41 29l-273 202c-100 73-190 145-272 215-82 70-133 118-152 142-17 22-25 40-25 56 1 15 12 33 33 54l-81 71-7-6c-41-32-64-62-70-88-6-27 4-56 30-89 11-14 27-31 47-49 20-18 46-41 79-69-87 55-159 91-216 106-57 16-100 12-130-12-15-12-25-26-31-44-6-17-6-35-1-53-20 4-41 3-63-4-22-7-47-19-74-36zm739-183c-2-7-5-13-8-18-3-5-7-9-11-13-19-15-46-20-80-15-35 5-77 19-127 43-43 20-85 45-125 75-40 30-70 57-90 82-15 19-23 36-26 51-3 15 0 27 10 34 23 18 73 6 153-35 79-41 181-109 305-204zm-306 531l84-68c31 24 79 20 143-12 64-32 156-98 274-197 19-16 42-36 70-61 59-53 110-62 152-26 10 8 15 17 16 26 1 9-2 18-10 27-10 12-35 31-73 58-39 27-68 48-88 64l-186 141-8 6c-45 34-73 57-84 69-14 17-21 31-20 44 1 13 12 29 32 50l-84 68-13-11c-32-28-51-56-56-83-5-27 4-57 27-89-38 14-72 21-101 20-29-1-55-10-77-27zm901-527c-14-13-20-29-17-48 3-19 14-40 34-63 26-30 53-50 83-60 29-10 52-9 68 6 13 12 18 28 15 50-3 21-14 43-33 65-26 29-53 49-81 59-28 10-51 7-68-7zm-619 768l91-58c15 14 31 24 49 32 18 7 37 12 59 13 11-21 24-42 41-63 17-21 38-43 64-68 84-78 174-128 272-149 98-21 169-7 215 41 23 25 32 53 28 85-5 32-21 61-51 89-20 19-40 30-60 35-20 5-35 2-45-8-4-4-5-7-5-11 0-3 4-8 11-14 18-17 28-31 32-44 4-13 0-25-10-36-23-24-64-27-124-7-60 20-117 55-172 106-55 51-85 100-90 145-5 46 13 93 56 141l-91 59c-4-4-8-7-14-10-1-1-1-1-2-2-31-33-53-67-66-102-13-35-16-71-10-106-35 2-67-3-96-15-30-11-57-29-82-53m271 286l94-54c27 28 74 32 143 10 69-22 169-72 301-151 21-13 47-29 79-49 67-43 118-44 154-1 8 10 12 19 12 28 0 9-5 17-14 25-12 10-39 26-82 46-42 21-74 37-97 50l-205 111-9 5c-50 26-81 45-93 55-17 14-26 28-26 40-1 13 7 31 24 55l-94 54-11-13c-28-33-41-63-42-91 0-28 13-56 40-84-40 8-74 9-103 4-29-6-53-19-72-39zm972-379c-12-15-15-31-10-50 6-19 21-38 44-57 30-25 61-41 91-47 31-6 53 0 67 16 11 14 14 30 7 51-7 21-21 40-43 59-30 25-60 40-90 45-30 5-52-1-66-18zm-599 711c-28 2-52-2-74-11-22-9-40-22-56-41l98-45c22 27 59 37 114 29 54-8 133-36 235-82 49-22 107-50 173-83 88-45 140-55 156-31 15 22 23 38 26 50 2 12-1 21-11 28-7 5-50 22-129 51-78 29-153 59-224 88 139-33 245-49 320-48 75 1 124 18 147 52 12 17 14 36 6 55-8 20-25 38-51 56-29 20-117 57-263 111l-48 18c-31 11-59 23-85 35-25 12-43 21-52 27-16 11-25 23-26 35-1 12 5 30 18 54l-98 45-6-9c-31-45-44-84-40-118 5-34 27-65 68-93 19-13 50-29 94-47 44-19 101-40 172-65l15-5c59-20 93-34 102-40 8-5 12-10 14-15 2-5 1-9-2-14-11-16-61-19-149-8-88 11-187 36-297 74-22 8-49 18-80 30-57 23-97 17-120-16-8-11-11-20-11-26 0-7 5-13 13-18 4-3 10-6 19-10 8-3 19-7 32-11zm972 610c6-13 9-25 9-35 0-10-1-19-5-27-9-17-31-31-67-41-35-10-79-15-131-14-47 1-95 7-143 18-48 11-88 25-119 41-23 12-38 23-47 34-8 11-10 21-4 31 15 29 66 43 152 42 86-1 205-18 356-49zm-288 94c-105 15-186 18-243 8-57-9-95-32-113-67-9-17-13-33-12-50 1-16 7-32 17-47-20-8-39-20-55-35-17-15-32-35-47-60l104-32c10 15 21 28 32 38 12 10 25 18 40 23 9-6 19-12 29-19 10-6 21-12 33-19 39-20 83-37 135-51 51-13 104-22 158-26 82-6 150 0 204 17 54 17 91 45 111 83 10 19 14 38 13 56-2 18-9 39-22 61l35-10c21-6 35-9 42-8 7 1 13 5 17 13 11 20 14 41 11 62-3 21-12 35-27 43-5 3-30 8-75 15-46 8-89 16-129 25-80 17-148 34-203 51-55 16-96 32-123 46-19 10-30 20-33 31-3 11 0 31 10 59l-103 32-4-8c-24-46-33-82-28-109 5-27 27-50 63-69 16-8 37-17 63-26 25-9 59-19 101-30z" fill="#201e1e"/><path d="m15323 1267c-13 14-26 23-38 27-13 4-25 3-36-2-23-11-34-35-33-71 2-36 16-82 43-138 54-113 123-200 206-259 83-60 156-74 218-45 43 21 68 53 76 99 8 45-2 98-31 157-16 32-40 73-72 122-33 49-77 110-132 184 159-157 279-263 361-317 82-54 145-70 190-49 27 13 41 36 43 70 2 34-8 74-31 122-28 59-105 159-231 300l-27 30c169-152 299-256 391-311 92-56 160-73 204-52 24 12 38 34 41 68 3 34-5 71-25 112-28 59-113 170-253 334l-34 40-20 24c-142 166-221 267-238 302-15 32-20 59-13 80 7 21 25 40 56 57l-64 88-13-6c-59-28-95-65-107-109-12-44-2-99 30-166 28-59 125-183 289-374 35-40 61-71 80-93l12-14c74-86 116-140 127-163 5-10 7-20 7-30-1-9-4-15-10-18-23-11-94 28-214 117-120 89-243 201-369 337-39 42-79 85-118 130-39 45-78 91-117 138-16 19-28 30-39 32-10 2-24-1-41-9-26-12-43-25-52-38-9-13-10-26-3-40 4-8 36-46 95-113 47-54 87-99 118-134 115-132 208-243 280-332 72-89 114-147 127-174 7-15 10-28 9-40-1-12-5-20-13-24-29-14-94 20-195 101-102 81-216 193-343 334-48 53-99 114-153 181-55 68-85 106-93 114-16 19-29 29-39 31-9 2-24-2-45-12-21-10-36-22-44-34-8-13-9-25-3-38 6-13 41-56 103-130 62-73 115-137 159-190 70-86 133-168 188-247 55-79 92-139 111-179 16-32 23-60 21-83-2-23-12-38-30-47-31-15-70-3-116 36-46 39-86 93-119 162-14 29-24 58-29 85-6 27-6 49-1 66zm946 956c48-12 98-38 150-77 52-39 90-78 114-116 12-19 18-36 19-49 0-14-5-24-16-31-23-15-58-6-103 27-45 32-85 77-121 134-14 22-24 42-31 59-7 18-11 35-12 53zm-131 114c-40 4-77 2-111-4-34-6-66-17-95-32l73-80c21 10 41 17 62 21 20 4 42 6 64 4 3-29 11-59 24-91 13-32 31-67 55-105 55-89 123-154 202-196 80-42 145-47 198-14 29 18 44 47 43 85 0 38-16 82-46 130-33 52-81 103-145 151-64 48-131 84-202 107 1 25 6 45 15 61 9 16 24 30 45 43l6 4-73 80-12-7c-31-20-56-42-73-68-17-26-27-56-31-89zm119 158l81-71c15 10 30 17 45 22 15 4 30 6 45 5 6-10 13-21 20-32 7-11 16-22 26-34 37-47 80-90 129-128 49-38 98-68 150-91 63-27 118-42 167-43 48-2 87 10 118 34 12 10 22 21 29 35 8 13 13 30 18 50l271-219c8-6 19-16 34-28 67-55 114-73 140-52 21 16 33 31 37 45 4 14-1 28-13 44-6 7-22 21-50 40-18 12-31 22-41 29l-273 202c-100 73-190 145-272 215-82 70-133 118-152 142-17 22-25 40-25 56 1 15 12 33 33 54l-81 71-7-6c-41-32-64-62-70-88-6-27 4-56 30-89 11-14 27-31 47-49 20-18 46-41 79-69-87 55-159 91-216 106-57 16-100 12-130-12-15-12-25-26-31-44-6-17-6-35-1-53-20 4-41 3-63-4-22-7-47-19-74-36zm739-183c-2-7-5-13-8-18-3-5-7-9-11-13-19-15-46-20-80-15-35 5-77 19-127 43-43 20-85 45-125 75-40 30-70 57-90 82-15 19-23 36-26 51-3 15 0 27 10 34 23 18 73 6 153-35 79-41 181-109 305-204zm-306 531l84-68c31 24 79 20 143-12 64-32 156-98 274-197 19-16 42-36 70-61 59-53 110-62 152-26 10 8 15 17 16 26 1 9-2 18-10 27-10 12-35 31-73 58-39 27-68 48-88 64l-186 141-8 6c-45 34-73 57-84 69-14 17-21 31-20 44 1 13 12 29 32 50l-84 68-13-11c-32-28-51-56-56-83-5-27 4-57 27-89-38 14-72 21-101 20-29-1-55-10-77-27zm901-527c-14-13-20-29-17-48 3-19 14-40 34-63 26-30 53-50 83-60 29-10 52-9 68 6 13 12 18 28 15 50-3 21-14 43-33 65-26 29-53 49-81 59-28 10-51 7-68-7zm-619 768l91-58c15 14 31 24 49 32 18 7 37 12 59 13 11-21 24-42 41-63 17-21 38-43 64-68 84-78 174-128 272-149 98-21 169-7 215 41 23 25 32 53 28 85-5 32-21 61-51 89-20 19-40 30-60 35-20 5-35 2-45-8-4-4-5-7-5-11 0-3 4-8 11-14 18-17 28-31 32-44 4-13 0-25-10-36-23-24-64-27-124-7-60 20-117 55-172 106-55 51-85 100-90 145-5 46 13 93 56 141l-91 59c-4-4-8-7-14-10-1-1-1-1-2-2-31-33-53-67-66-102-13-35-16-71-10-106-35 2-67-3-96-15-30-11-57-29-82-53zm271 286l94-54c27 28 74 32 143 10 69-22 169-72 301-151 21-13 47-29 79-49 67-43 118-44 154-1 8 10 12 19 12 28 0 9-5 17-14 25-12 10-39 26-82 46-42 21-74 37-97 50l-205 111-9 5c-50 26-81 45-93 55-17 14-26 28-26 40-1 13 7 31 24 55l-94 54-11-13c-28-33-41-63-42-91 0-28 13-56 40-84-40 8-74 9-103 4-29-6-53-19-72-39zm972-379c-12-15-15-31-10-50 6-19 21-38 44-57 30-25 61-41 91-47 31-6 53 0 67 16 11 14 14 30 7 51-7 21-21 40-43 59-30 25-60 40-90 45-30 5-52-1-66-18zm-599 711c-28 2-52-2-74-11-22-9-40-22-56-41l98-45c22 27 59 37 114 29 54-8 133-36 235-82 49-22 107-50 173-83 88-45 140-55 156-31 15 22 23 38 26 50 2 12-1 21-11 28-7 5-50 22-129 51-78 29-153 59-224 88 139-33 245-49 320-48 75 1 124 18 147 52 12 17 14 36 6 55-8 20-25 38-51 56-29 20-117 57-263 111l-48 18c-31 11-59 23-85 35-25 12-43 21-52 27-16 11-25 23-26 35-1 12 5 30 18 54l-98 45-6-9c-31-45-44-84-40-118 5-34 27-65 68-93 19-13 50-29 94-47 44-19 101-40 172-65l15-5c59-20 93-34 102-40 8-5 12-10 14-15 2-5 1-9-2-14-11-16-61-19-149-8-88 11-187 36-297 74-22 8-49 18-80 30-57 23-97 17-120-16-8-11-11-20-11-26 0-7 5-13 13-18 4-3 10-6 19-10 8-3 19-7 32-11zm972 610c6-13 9-25 9-35 0-10-1-19-5-27-9-17-31-31-67-41-35-10-79-15-131-14-47 1-95 7-143 18-48 11-88 25-119 41-23 12-38 23-47 34-8 11-10 21-4 31 15 29 66 43 152 42 86-1 205-18 356-49zm-288 94c-105 15-186 18-243 8-57-9-95-32-113-67-9-17-13-33-12-50 1-16 7-32 17-47-20-8-39-20-55-35-17-15-32-35-47-60l104-32c10 15 21 28 32 38 12 10 25 18 40 23 9-6 19-12 29-19 10-6 21-12 33-19 39-20 83-37 135-51 51-13 104-22 158-26 82-6 150 0 204 17 54 17 91 45 111 83 10 19 14 38 13 56-2 18-9 39-22 61l35-10c21-6 35-9 42-8 7 1 13 5 17 13 11 20 14 41 11 62-3 21-12 35-27 43-5 3-30 8-75 15-46 8-89 16-129 25-80 17-148 34-203 51-55 16-96 32-123 46-19 10-30 20-33 31-3 11 0 31 10 59l-103 32-4-8c-24-46-33-82-28-109 5-27 27-50 63-69 16-8 37-17 63-26 25-9 59-19 101-30z" fill="none" stroke="#201e1e" stroke-width="25"/><path d="m2091 4653c14 13 24 25 28 38 4 12 4 25-1 36-11 24-34 35-70 34-36-1-82-14-138-40-114-52-202-119-263-201-61-82-78-154-49-217 20-43 52-69 97-78 45-9 98 0 158 28 33 15 74 38 124 70 50 32 112 75 186 129-161-155-269-273-324-354-55-81-73-144-52-189 12-27 35-42 69-44 34-3 74 7 123 29 60 27 161 102 305 225l30 27c-155-166-262-294-319-385-58-91-76-159-56-203 11-25 34-39 67-43 34-4 71 4 113 23 59 27 173 109 340 246l40 33 25 20c169 138 271 215 307 232 33 15 59 19 81 12 21-7 40-26 56-57l89 62-6 13c-27 60-63 96-106 109-44 13-99 4-167-26-59-27-186-121-379-282-41-34-72-60-94-78l-14-12c-87-72-142-113-165-124-11-5-20-7-30-6-9 1-15 4-18 10-11 23 30 94 121 211 91 118 206 238 344 362 42 39 86 77 132 115 46 38 92 76 141 114 19 15 30 28 33 38 2 10-1 24-8 41-12 26-24 44-37 53-13 9-26 11-40 4-8-4-46-35-115-93-55-46-100-84-137-115-135-112-247-203-338-273-91-70-150-111-177-123-15-7-28-10-41-9-12 1-20 6-24 14-13 29 22 93 105 193 83 100 197 212 341 336 54 47 116 97 185 150 69 53 107 83 116 90 19 16 30 29 32 38 2 9-2 24-11 45-10 21-21 36-33 45-12 9-25 10-38 4-13-6-57-40-132-101-74-61-139-112-193-155-87-68-171-129-251-183-80-54-141-89-181-108-33-15-61-21-83-19-22 2-38 12-47 31-14 31-1 70 39 115 40 46 95 84 164 116 30 13 58 23 85 28 28 5 49 5 66 0zm908-894c-12-48-37-98-76-150-39-52-77-90-116-114-19-12-35-18-49-19-14 0-24 5-31 16-15 23-6 58 26 103 32 45 77 86 134 121 22 14 42 24 59 31 18 7 35 11 53 12m114 132c3 40 2 77-4 111-6 34-17 66-33 95l-80-73c10-21 17-41 21-62 4-20 6-41 5-64-29-3-59-11-91-24-32-13-67-31-105-55-89-56-154-123-196-203-42-80-46-146-14-198 18-29 47-44 85-43 38 0 82 16 130 46 52 33 103 81 151 145 48 64 84 131 107 202 25-1 45-6 61-15 16-9 30-24 43-44l4-6 80 73-7 12c-20 31-43 56-68 73-26 17-56 27-89 30m154-121l-72-81c10-15 17-30 21-45 4-15 6-30 5-45-10-6-21-13-32-20-11-7-22-16-35-25-48-37-91-80-129-128-38-48-69-98-92-149-28-63-43-118-45-166-2-48 9-87 33-118 9-12 21-22 35-30 13-8 30-14 50-18l-221-269c-7-8-16-19-29-34-56-67-74-113-54-139 16-21 31-33 45-37 14-4 28 0 44 13 7 6 21 22 40 50 12 17 22 31 30 41l204 271c74 99 147 189 218 270 71 81 119 132 143 150 22 17 41 25 56 24 15-1 33-12 53-33l72 80-6 7c-32 41-61 65-88 71-27 6-56-4-89-29-14-11-31-27-50-46-19-20-42-46-69-79 56 87 92 158 108 215 16 57 13 100-11 130-12 15-26 25-43 31-17 6-35 6-53 1 4 20 3 41-3 63-6 22-18 47-36 74m-190-737c-7 2-13 5-18 8-5 3-9 7-13 11-15 19-19 46-14 80 5 35 20 77 44 127 21 43 46 84 76 124 30 40 58 70 83 89 19 14 36 23 51 26 16 3 27-1 34-10 18-23 6-74-36-152-42-79-111-180-206-303zm525 294l-65-87c25-30 23-78-7-143-30-66-92-159-186-281-15-19-35-43-58-72-51-61-58-112-20-153 9-9 18-15 27-15 9-1 18 3 26 11 11 11 30 36 56 75 26 40 46 69 61 90l134 191 5 8c32 46 54 75 66 86 16 15 30 22 43 21 13-1 30-11 51-30l65 86-12 13c-29 31-58 49-85 52-28 4-57-6-88-30 13 39 18 73 16 102-2 29-12 54-30 76zm-492-920c-13 14-29 19-48 16-19-4-40-16-62-37-29-27-48-55-57-85-9-30-7-52 8-68 12-13 29-17 50-13 21 4 42 16 63 36 28 27 47 54 56 84 9 29 5 52-10 68zm734 637l-56-93c14-15 25-31 33-48 8-17 13-37 15-58-21-11-41-25-62-43-21-17-43-39-66-66-76-85-124-177-142-276-19-98-3-169 46-214 25-22 54-31 85-26 32 5 61 23 88 53 18 20 29 41 34 61 4 20 1 35-9 45-4 4-7 5-11 5-3 0-8-4-14-11-16-18-30-29-43-33-13-4-25-1-36 9-25 22-29 64-10 124 18 60 52 119 102 175 50 56 97 87 143 94 46 7 93-11 142-53l57 92c-4 4-7 8-11 14-1 1-2 1-2 2-34 30-68 51-104 63-36 12-71 15-106 8 1 35-5 67-17 96-12 29-30 56-55 80zm354-316l-55-93c28-27 32-75 10-143-22-68-73-169-153-301-13-21-29-47-50-78-44-67-45-118-2-154 10-8 19-12 28-12 9 0 17 5 25 13 10 12 26 39 47 81 21 42 38 74 50 97l112 205 5 8c27 50 45 81 56 93 14 17 28 25 40 26 13 1 31-8 54-24l55 93-13 11c-33 28-63 42-90 42-28 0-56-13-84-40 8 40 10 74 4 103-5 29-18 53-38 72zm-385-970c-15 12-31 16-50 10-19-6-38-20-58-43-26-30-41-60-47-91-6-31-1-53 16-67 13-11 30-14 51-7 21 6 40 21 59 43 25 30 41 59 46 89 5 30 0 52-18 67zm715 594c1 28-2 52-11 74-9 22-22 40-41 56l-45-98c27-21 37-59 29-114-8-54-35-133-81-235-22-49-50-107-82-173-44-88-55-140-31-156 22-15 38-23 50-26 12-2 21 2 28 12 5 7 22 50 51 129 29 78 58 153 88 225-32-139-48-245-47-320 1-75 18-124 52-147 17-12 36-14 55-6 20 8 38 25 56 51 20 29 57 117 111 263l18 48c11 31 23 59 34 85 12 25 21 43 27 52 11 16 22 25 35 26 12 1 30-5 54-18l45 98-9 6c-45 31-84 44-118 39-34-5-65-27-93-68-13-19-28-50-47-94-18-44-40-101-65-172l-5-15c-20-59-33-93-39-103-5-8-10-12-15-14-5-2-9-1-14 2-16 11-19 61-8 149 11 88 35 187 73 297 8 22 17 49 30 80 22 57 17 97-16 120-11 7-20 11-26 11-7 0-13-5-18-13-3-4-6-10-10-19-3-8-7-19-11-32zm529-926c-13-5-25-8-35-9-10 0-19 2-27 6-17 10-30 32-40 68-9 36-13 79-11 131 2 47 9 95 21 143 12 48 27 87 44 118 12 22 24 38 35 46 11 8 21 9 32 4 29-16 41-67 38-152-3-86-22-204-57-355m100 286c17 105 22 185 14 243-8 57-30 96-65 115-16 9-33 13-49 13-16 0-32-6-47-16-8 21-19 39-34 56-15 17-35 33-59 48l-34-103c15-10 28-21 37-33 10-12 17-25 22-40-6-9-13-19-19-29-6-10-13-21-19-33-21-38-39-83-53-134-14-51-24-103-30-158-7-82-3-150 13-204 16-54 43-92 81-112 19-10 38-15 56-14 18 1 39 8 62 20l-11-34c-7-21-10-35-9-42 1-7 5-13 12-17 20-11 41-15 61-13 21 3 36 11 44 26 3 5 8 30 17 75 9 46 18 88 28 129 19 80 38 147 55 202 18 55 34 95 48 122 10 19 21 29 32 32 11 3 31-1 59-11l34 102-8 4c-45 25-82 35-109 30-27-5-50-26-70-62-9-16-18-37-28-62-9-25-20-59-32-100z" fill="#201e1e"/><path d="m2091 4653c14 13 24 25 28 38 4 12 4 25-1 36-11 24-34 35-70 34-36-1-82-14-138-40-114-52-202-119-263-201-61-82-78-154-49-217 20-43 52-69 97-78 45-9 98 0 158 28 33 15 74 38 124 70 50 32 112 75 186 129-161-155-269-273-324-354-55-81-73-144-52-189 12-27 35-42 69-44 34-3 74 7 123 29 60 27 161 102 305 225l30 27c-155-166-262-294-319-385-58-91-76-159-56-203 11-25 34-39 67-43 34-4 71 4 113 23 59 27 173 109 340 246l40 33 25 20c169 138 271 215 307 232 33 15 59 19 81 12 21-7 40-26 56-57l89 62-6 13c-27 60-63 96-106 109-44 13-99 4-167-26-59-27-186-121-379-282-41-34-72-60-94-78l-14-12c-87-72-142-113-165-124-11-5-20-7-30-6-9 1-15 4-18 10-11 23 30 94 121 211 91 118 206 238 344 362 42 39 86 77 132 115 46 38 92 76 141 114 19 15 30 28 33 38 2 10-1 24-8 41-12 26-24 44-37 53-13 9-26 11-40 4-8-4-46-35-115-93-55-46-100-84-137-115-135-112-247-203-338-273-91-70-150-111-177-123-15-7-28-10-41-9-12 1-20 6-24 14-13 29 22 93 105 193 83 100 197 212 341 336 54 47 116 97 185 150 69 53 107 83 116 90 19 16 30 29 32 38 2 9-2 24-11 45-10 21-21 36-33 45-12 9-25 10-38 4-13-6-57-40-132-101-74-61-139-112-193-155-87-68-171-129-251-183-80-54-141-89-181-108-33-15-61-21-83-19-22 2-38 12-47 31-14 31-1 70 39 115 40 46 95 84 164 116 30 13 58 23 85 28 28 5 49 5 66 0zm908-894c-12-48-37-98-76-150-39-52-77-90-116-114-19-12-35-18-49-19-14 0-24 5-31 16-15 23-6 58 26 103 32 45 77 86 134 121 22 14 42 24 59 31 18 7 35 11 53 12zm114 132c3 40 2 77-4 111-6 34-17 66-33 95l-80-73c10-21 17-41 21-62 4-20 6-41 5-64-29-3-59-11-91-24-32-13-67-31-105-55-89-56-154-123-196-203-42-80-46-146-14-198 18-29 47-44 85-43 38 0 82 16 130 46 52 33 103 81 151 145 48 64 84 131 107 202 25-1 45-6 61-15 16-9 30-24 43-44l4-6 80 73-7 12c-20 31-43 56-68 73-26 17-56 27-89 30zm154-121l-72-81c10-15 17-30 21-45 4-15 6-30 5-45-10-6-21-13-32-20-11-7-22-16-35-25-48-37-91-80-129-128-38-48-69-98-92-149-28-63-43-118-45-166-2-48 9-87 33-118 9-12 21-22 35-30 13-8 30-14 50-18l-221-269c-7-8-16-19-29-34-56-67-74-113-54-139 16-21 31-33 45-37 14-4 28 0 44 13 7 6 21 22 40 50 12 17 22 31 30 41l204 271c74 99 147 189 218 270 71 81 119 132 143 150 22 17 41 25 56 24 15-1 33-12 53-33l72 80-6 7c-32 41-61 65-88 71-27 6-56-4-89-29-14-11-31-27-50-46-19-20-42-46-69-79 56 87 92 158 108 215 16 57 13 100-11 130-12 15-26 25-43 31-17 6-35 6-53 1 4 20 3 41-3 63-6 22-18 47-36 74zm-190-737c-7 2-13 5-18 8-5 3-9 7-13 11-15 19-19 46-14 80 5 35 20 77 44 127 21 43 46 84 76 124 30 40 58 70 83 89 19 14 36 23 51 26 16 3 27-1 34-10 18-23 6-74-36-152-42-79-111-180-206-303zm525 294l-65-87c25-30 23-78-7-143-30-66-92-159-186-281-15-19-35-43-58-72-51-61-58-112-20-153 9-9 18-15 27-15 9-1 18 3 26 11 11 11 30 36 56 75 26 40 46 69 61 90l134 191 5 8c32 46 54 75 66 86 16 15 30 22 43 21 13-1 30-11 51-30l65 86-12 13c-29 31-58 49-85 52-28 4-57-6-88-30 13 39 18 73 16 102-2 29-12 54-30 76zm-492-920c-13 14-29 19-48 16-19-4-40-16-62-37-29-27-48-55-57-85-9-30-7-52 8-68 12-13 29-17 50-13 21 4 42 16 63 36 28 27 47 54 56 84 9 29 5 52-10 68zm734 637l-56-93c14-15 25-31 33-48 8-17 13-37 15-58-21-11-41-25-62-43-21-17-43-39-66-66-76-85-124-177-142-276-19-98-3-169 46-214 25-22 54-31 85-26 32 5 61 23 88 53 18 20 29 41 34 61 4 20 1 35-9 45-4 4-7 5-11 5-3 0-8-4-14-11-16-18-30-29-43-33-13-4-25-1-36 9-25 22-29 64-10 124 18 60 52 119 102 175 50 56 97 87 143 94 46 7 93-11 142-53l57 92c-4 4-7 8-11 14-1 1-2 1-2 2-34 30-68 51-104 63-36 12-71 15-106 8 1 35-5 67-17 96-12 29-30 56-55 80zm354-316l-55-93c28-27 32-75 10-143-22-68-73-169-153-301-13-21-29-47-50-78-44-67-45-118-2-154 10-8 19-12 28-12 9 0 17 5 25 13 10 12 26 39 47 81 21 42 38 74 50 97l112 205 5 8c27 50 45 81 56 93 14 17 28 25 40 26 13 1 31-8 54-24l55 93-13 11c-33 28-63 42-90 42-28 0-56-13-84-40 8 40 10 74 4 103-5 29-18 53-38 72zm-385-970c-15 12-31 16-50 10-19-6-38-20-58-43-26-30-41-60-47-91-6-31-1-53 16-67 13-11 30-14 51-7 21 6 40 21 59 43 25 30 41 59 46 89 5 30 0 52-18 67zm715 594c1 28-2 52-11 74-9 22-22 40-41 56l-45-98c27-21 37-59 29-114-8-54-35-133-81-235-22-49-50-107-82-173-44-88-55-140-31-156 22-15 38-23 50-26 12-2 21 2 28 12 5 7 22 50 51 129 29 78 58 153 88 225-32-139-48-245-47-320 1-75 18-124 52-147 17-12 36-14 55-6 20 8 38 25 56 51 20 29 57 117 111 263l18 48c11 31 23 59 34 85 12 25 21 43 27 52 11 16 22 25 35 26 12 1 30-5 54-18l45 98-9 6c-45 31-84 44-118 39-34-5-65-27-93-68-13-19-28-50-47-94-18-44-40-101-65-172l-5-15c-20-59-33-93-39-103-5-8-10-12-15-14-5-2-9-1-14 2-16 11-19 61-8 149 11 88 35 187 73 297 8 22 17 49 30 80 22 57 17 97-16 120-11 7-20 11-26 11-7 0-13-5-18-13-3-4-6-10-10-19-3-8-7-19-11-32zm529-926c-13-5-25-8-35-9-10 0-19 2-27 6-17 10-30 32-40 68-9 36-13 79-11 131 2 47 9 95 21 143 12 48 27 87 44 118 12 22 24 38 35 46 11 8 21 9 32 4 29-16 41-67 38-152-3-86-22-204-57-355zm100 286c17 105 22 185 14 243-8 57-30 96-65 115-16 9-33 13-49 13-16 0-32-6-47-16-8 21-19 39-34 56-15 17-35 33-59 48l-34-103c15-10 28-21 37-33 10-12 17-25 22-40-6-9-13-19-19-29-6-10-13-21-19-33-21-38-39-83-53-134-14-51-24-103-30-158-7-82-3-150 13-204 16-54 43-92 81-112 19-10 38-15 56-14 18 1 39 8 62 20l-11-34c-7-21-10-35-9-42 1-7 5-13 12-17 20-11 41-15 61-13 21 3 36 11 44 26 3 5 8 30 17 75 9 46 18 88 28 129 19 80 38 147 55 202 18 55 34 95 48 122 10 19 21 29 32 32 11 3 31-1 59-11l34 102-8 4c-45 25-82 35-109 30-27-5-50-26-70-62-9-16-18-37-28-62-9-25-20-59-32-100z" fill="none" stroke="#201e1e" stroke-width="25"/></g></svg>