<svg xmlns="http://www.w3.org/2000/svg" viewBox="0 0 500 707" shape-rendering="geometricPrecision" image-rendering="optimizeQuality" fill-rule="evenodd" clip-rule="evenodd"><defs><clipPath id="0"><path d="m335 614c27 13 79 10 95-14 16-25 12-95 14-129 4-86 13-151 16-220 2-77-50-128-112-142-89-20-83 98-71 159 6 32 19 61 27 93 15 59 2 148 7 210 2 21 9 35 24 43"/></clipPath><clipPath id="1"><path d="m165 614c-27 13-79 11-95-14-16-25-12-95-14-129-4-86-13-151-16-220-2-77 50-128 112-142 89-20 83 98 71 159-6 33-19 61-27 93-15 59-2 149-7 210-2 21-9 35-24 43"/></clipPath></defs><g clip-path="url(#0)"><g fill="#201e1e" stroke="#201e1e"><g stroke-width=".476"><path d="m359 197c-6 8-7 23-10 35-5 17-12 30-15 49 10-3 18-8 30-9 19-1 31 4 41 9 0 2 2-2 2 0 1 1 0 3 2 2 2-4 0-11-3-13 0 2 3 5 1 7-1 1-1 3-3 1-9-26-24-52-43-72-1-1-3 0-4 0 0-5 2-7 6-8-1-1-3-1-4-1zm-81-51c-1 3-2 6-3 9 15 1 28 5 40 11 5 3 11 7 16 12 8 8 14 14 13 28-1 13-7 26-13 38-12 30-21 66-21 105 0 8-1 16 5 20 4 1 9-1 12-2 3-14 0-28 1-43 1-8 3-21 6-27 14-23 63-20 76 0 8 12 10 36 10 53 0 7-1 13 1 19 20 0 17-15 16-29-2-49-17-82-40-112-9-13-17-26-29-35-3-3-8-5-11-8-20-17-44-34-79-39z"/><path d="m337 278c11-9 49-11 64-1-2-13-9-25-16-36-6-11-16-28-27-33 0 0 0 0-1 0-3 26-16 45-20 70zm26-80c-4 1-6 3-6 8 1 0 3-1 4 0 19 20 34 46 43 72 2 2 2 0 3-1 2-2-1-5-1-7 3 2 5 9 3 13-2 1-1-1-2-2 0-2-2 2-2 0-10-5-22-10-41-9-12 1-20 6-30 9 3-19 10-32 15-49 3-12 4-27 10-35 1 0 3 0 4 1z"/><path d="m315 521c2-2 1-7 3-10 5 1 3 7 2 11-2 1-3 0-5-1z"/><path d="m423 526c6 2 16 2 20-1 0 1 0 2 0 3-6 3-19 1-26-1-14-4-28-14-34-20-12 9-31 17-52 19-7 1-15 1-18-2-4-4-1-14 4-17 7-3 17 0 23 1 12-3 25-5 33-11-26-36-47-77-59-124-3-5-4-4-6-7-4-11 1-34 2-45 3-31 9-54 19-79 5-11 12-24 13-37 1-12-6-18-13-25-13-12-31-20-54-23 0-1 0-1 0-2 15 1 28 5 40 11 5 3 11 7 16 12 8 8 14 14 13 28-1 13-7 26-13 38-12 30-21 66-21 105 0 8-1 16 5 20 4 1 9-1 12-2 3-14 0-28 1-43 1-8 3-21 6-27 14-23 63-20 76 0 8 12 10 36 10 53 0 7-1 13 1 19 20 0 17-15 16-29-2-49-17-82-40-112-9-13-17-26-29-35-3-3-8-5-11-8-20-17-44-34-79-39 0 0 0 0 0-1 27 4 48 14 65 26 5 3 8 8 12 11 0 0 5 3 6 4 24 17 46 47 58 74 6 12 12 27 15 43 3 16 7 33 6 49-1 7-2 14-8 17-7 48-19 92-41 129 9 10 25 18 47 14 2 1 4 3 5 4 0 2 0 5 0 7 0-4-2-6-4-8-5 0-9 0-14 0 0 3 3 9-2 11zm-104-17c-5 4-8 10-3 14 10 8 35-4 22-14-5-1-14-1-19 0zm65-3c0 2 11 8 16 11 8 4 15 8 21 7 3-2 3-5 2-7-12-5-25-9-34-17 1 2-5 3-5 6zm8-25c-7 12-25 26-51 28 3 4 2 10-1 14 33-6 51-22 61-46 10-26 20-57 23-84-8 34-15 62-32 88zm-62-90c-2-2-3-5-5-8 8 45 25 82 50 112 5-3-1-8-3-11-13-21-23-44-32-68-4-10-6-20-11-28 1 1 1 2 1 3zm43-109c-31-1-41 18-43 41-1 13 2 27 1 39-1 3-2 5-2 8-1 10 5 24 9 33 9 24 14 39 25 61 3 6 14 26 19 26 2 0 5-8 7-12 6-9 6-14 9-23 7-18 14-37 18-57 1-7 5-20 4-26 0-3-2-4-3-7-1-11 1-24-1-36-2-13-4-23-9-32-10-7-18-15-34-15z"/></g><g font-family="&apos;Chelsea Alternates&apos;" stroke-linejoin="round" stroke-linecap="round" stroke-width="1.19"><text x="250" y="354" font-size="36.517" transform="matrix(.35943 0 0 .99123 225.95 204.83)">Texto 01</text><text x="250" y="354" font-size="41.601" transform="matrix(.43018 0 0 .99123 207.88 244.68)">Texto 02</text></g><path d="m358 126c0 0 0 1 0 1-1 0-1 0-1 0-1 0-1-1-1-2 0-1 0-2 1-3 1-3 2-5 4-6 2-2 4-2 5-2 1 1 2 1 2 2 0 2 0 3 0 4-1 1-1 2-2 3-1 1-2 3-3 5 4-4 6-7 8-8 2-2 4-2 5-2 0 1 1 1 1 2 0 1 0 2-1 3-1 1-2 4-5 7l-1 1c4-4 7-6 9-8 2-1 4-2 5-1 0 0 1 1 1 1 0 1 0 2-1 3 0 1-2 4-5 8l-1 1v1c-3 4-5 6-5 7-1 1-1 2-1 2 0 1 1 1 2 1l-2 2c-1 0-2-1-3-2 0-1 0-2 1-4 0-1 3-5 6-9 1-1 2-2 2-2v-1c2-2 3-3 3-4 0-1 0-1 0-1-1 0-2 1-5 3-3 2-5 5-8 8-1 1-2 3-3 4-1 1-1 2-2 3-1 0-1 1-1 1 0 0-1 0-1 0-1-1-1-1-1-1-1 0-1-1-1-1 1 0 1-1 3-3 1-1 1-2 2-3 3-3 5-6 6-8 2-3 3-4 3-5 0 0 0 0 0-1-1 0-2 0-5 2-2 3-4 5-7 9-1 1-2 3-3 4-2 2-2 3-3 3 0 0 0 1 0 1-1 0-1 0-1-1-1 0-1 0-1 0-1-1-1-1-1-1 1 0 1-2 3-3 1-2 2-4 3-5 2-2 3-4 4-6 1-2 2-3 3-4 0-1 0-2 0-2 0-1 0-1-1-1 0-1-1 0-2 1-1 1-2 2-3 4 0 0 0 1-1 2 0 0 0 1 0 1zm22 20c1 0 2 0 4-1 1-1 2-2 2-3 1-1 1-1 1-1 0-1 0-1-1-1 0 0-1 0-2 1-1 0-2 1-3 3 0 0 0 1-1 1 0 1 0 1 0 1zm-3 3c-1 0-2 0-2 0-1 0-2 0-3-1l2-2c0 1 1 1 1 1 1 0 1 0 2 0 0-1 0-1 0-2 1-1 1-2 2-3 1-2 3-3 4-4 2-1 4-1 5-1 1 1 1 1 1 2 0 1 0 2-1 3-1 2-2 3-3 4-2 1-3 2-5 3 0 0 0 1 0 1 1 0 1 1 1 1l-1 2c-1-1-2-1-2-2-1 0-1-1-1-2zm4 5l2-2c1 0 1 1 1 1 1 0 1 0 1 0 0-1 1-1 1-1 0 0 0-1 0-1 1-1 2-2 3-3 1-1 2-2 3-3 2 0 3-1 4-1 1 0 2 0 3 1 0 0 0 0 1 1 0 0 0 0 0 1l6-6c0 0 1 0 1-1 1-1 2-2 3-1 0 0 1 1 1 1 0 0 0 1 0 1 0 0-1 0-1 1-1 0-1 1-1 1l-6 5c-3 2-4 4-6 5-2 2-3 3-4 4 0 1 0 1 0 1 0 1 0 1 1 2l-2 1c-1 0-2-1-2-2 0 0 0-1 1-2 0 0 0-1 1-1 0-1 1-1 1-2-2 2-3 3-4 3-2 1-3 0-3 0-1 0-1-1-1-1 0 0 0-1 0-1-1 0-1 0-2 0 0 0-1-1-2-1zm17-5c0-1 0-1 0-1-1-1-1-1-2 0-1 0-2 0-3 1-1 0-2 1-3 2-1 1-1 1-2 2 0 0 0 1 0 1 0 0 0 1 0 1 1 0 2 0 3-1 2-1 4-3 7-5zm-6 13l2-2c1 1 2 0 3 0 2-1 4-3 6-5 1 0 1-1 2-2 1-1 3-1 4 0 0 1 0 1 0 1s-1 1-2 1c-1 1-1 2-2 2l-4 3v1c-1 0-2 1-2 1-1 1-1 1-1 1 0 1 1 1 1 1l-2 2c-1-1-1-2-2-2 0-1 1-1 1-2-1 0-2 0-2 0-1 0-2 0-2 0zm21-13c-1 0-1-1-1-1 0-1 1-1 1-2 1 0 1-1 2-1 1 0 1 0 2 0 0 0 0 1 0 1 0 1 0 1-1 2 0 0-1 1-2 1 0 0-1 0-1 0zm-14 18l2-1c0 0 1 0 1 0 0 1 1 1 1 1 1-1 1-1 1-2 1 0 1-1 2-1 2-2 4-3 6-4 3 0 4 0 5 2 1 0 1 1 1 2 0 0-1 1-1 2-1 0-1 0-2 0 0 1-1 0-1 0 1-1 1-1 1-1 0-1 0-1 0-1-1-1-2-1-3-1-1 1-3 2-4 3-1 1-2 2-2 3 0 1 0 2 1 4l-2 1c0 0 0 0 0 0-1-1-2-2-2-3 0-1 0-2 0-2-1 0-2 0-2-1-1 0-2 0-2-1zm6 7l2-1c1 0 2 0 3 0 2-1 4-2 7-4 1 0 1 0 2-1 2-1 3-1 4 0 0 0 0 1 0 1-1 1-1 1-2 1-1 1-2 1-2 2l-5 2c-2 1-2 1-3 2 0 0 0 0 0 1 0 0 0 0 0 1l-2 1c-1-1-1-2-1-2 0-1 0-2 1-2-1 0-2 0-2 0-1 0-2-1-2-1zm22-9c0 0 0-1 0-1 0-1 1-1 1-2 1 0 2-1 2-1 1 0 2 0 2 1 0 0 0 0 0 1 0 0 0 1-1 1-1 1-1 1-2 1-1 0-1 0-2 0zm-13 17c-1 0-2 0-2-1-1 0-1 0-1-1l2-1c0 1 1 1 3 1 1 0 3 0 5-1 1-1 3-1 4-2 2-1 4-1 4-1 0 1 0 1 0 2 0 0-1 1-3 1-2 1-3 1-5 2 3-1 6-1 7-1 2 0 3 1 4 2 0 0 0 1 0 1 0 1-1 1-2 1 0 1-2 2-6 3h-1c-1 0-1 0-2 1 0 0-1 0-1 0-1 0-1 1-1 1 0 0 0 1 1 1l-3 1c-1-1-1-2-1-3 0-1 1-1 2-2 0 0 1-1 2-1 1 0 3-1 4-1h1c1-1 2-1 2-1 0-1 0-1 0-1s-1 0-3 0c-2 0-4 0-7 1-1 0-1 1-2 1-1 0-2 0-3-1 0-1 0-1 0-1 1 0 1 0 1 0s0 0 1 0zm22 16c0 0 0-1 0-1 0 0 0 0 0-1 0 0-1 0-2-1-1 0-2 0-3 0-1 0-2 0-3 0-1 0-2 0-3 1 0 0-1 0-1 0 0 0 0 1 0 1 0 1 1 1 3 1 2 0 5 0 9 0zm-7 1c-3 1-5 0-6 0-1 0-2-1-2-2-1 0-1-1-1-1 0 0 1-1 1-1-1 0-1 0-1-1-1 0-1-1-1-1l2-1c0 0 1 1 1 1 0 0 0 1 1 1 0 0 0-1 0-1 1 0 1 0 1 0 1 0 2-1 3-1 2 0 3 0 4 0 2 0 4 0 5 1 1 0 2 1 2 2 0 0 0 1 0 1 0 1 0 1 0 2l1-1c0 0 0 0 1 0 0 0 0 0 0 1 0 0 0 1 0 1 0 1 0 1-1 1 0 0 0 0-1 0-1 0-2 0-3 1-2 0-4 0-5 0-2 1-3 1-3 1-1 0-1 1-1 1 0 0 0 1 0 1l-2 1c-1-2-1-2-1-3 0-1 1-1 2-2 0 0 1 0 1 0 1 0 2 0 3-1z" stroke-width=".595"/></g></g><g clip-path="url(#1)"><g fill="#201e1e" stroke="#201e1e"><g stroke-width=".476"><path d="m223 148c1 3 1 6 2 9-15 3-28 8-38 14-16 10-28 27-39 43-11 17-19 39-21 58-3 24-1 48-5 71 0 2 0 6-3 7-7 0-5-2-5-8 1-7 3-24 4-29 1-11 0-30 1-41 3-26 12-48 23-68 15-25 43-48 81-56z"/><path d="m115 410c0-2 3-7 0-8 0 2-2 6 0 8zm3-8c0 5 1 10-5 11-7-3-2-18 5-11z"/><path d="m55 445c0-3 0-5-1-7 5 9 12 15 22 17-29-22-29-90 9-104-4 0-10 0-14 2-9 3-17 16-21 31 0-2 0-4 0-6 5-13 13-24 25-29 17-1 27 4 32 14 3-4 3-8 4-13 2-13 4-27 5-41 0-19-1-38 4-56 9-33 24-63 49-83 12-10 31-19 53-24 0 1 0 1 1 2-38 8-66 31-81 56-11 20-20 42-23 68-1 11 0 30-1 41-1 5-3 22-4 29 0 6-2 8 5 8 3-1 3-5 3-7 4-23 2-47 5-71 2-19 10-41 21-58 11-16 23-33 39-43 10-6 23-11 38-14 0 1 0 1 0 1-40 8-64 35-80 66-9 17-14 37-16 59-1 12-1 24-1 36-1 11-4 21-5 31-1 2 0 3 0 6 0 5-3 10-1 14 1 3 6 5 8 8 3 6 6 15 7 24 0 17-6 38-30 35-4 14-22 26-42 18-4-2-7-6-10-10zm33-23c-3-10-2-25 3-35-20-3-21 37-3 35zm14 11c-13-9-12-39-4-52 2-3 7-5 7-7-19 8-24 53-3 59zm3-56c-8 6-13 28-10 42 3 8 12 19 25 15 11-4 16-24 14-38-1-9-8-24-20-23-6 1-7 2-9 4zm4-8c4-2 7 0 11 1 0-2 0-3 0-5-2-2-6-2-10-2-1 3-1 4-1 6zm-2-4c-4-2-5-8-10-10-8-2-16 0-20 3-18 11-25 51-14 76 4 7 10 17 16 19 15 5 21-9 25-16-8-2-13-6-15-14-25 4-19-43 2-37 3-7 6-13 16-15-1-3 1-4 0-6zm5-4c3 0 6 0 8 1 0-3 1-5 1-9-6-5-10 2-9 8z"/><path d="m120 386c0-1-1-1-1 0 8 9 5 30 0 38 8-8 9-30 1-38zm-15 13c-1 8 1 28 7 28 5 1 9-13 10-21 1-10-5-20-8-23-4 4-8 8-9 16zm9-18c6-3 13 9 14 18 2 13-6 30-12 31-8 2-12-8-13-14-2-11 0-24 4-30 1-2 5-5 7-5z"/></g><g font-family="&apos;Chelsea Alternates&apos;" stroke-linejoin="round" stroke-linecap="round" stroke-width="1.19"><text x="250" y="354" font-size="36.517" transform="matrix(.35943 0 0 .99123-23.637 204.83)">Texto 01</text><text x="250" y="354" font-size="41.601" transform="matrix(.43018 0 0 .99123-41.706 244.69)">Texto 02</text></g><path d="m58 213c0 0 0 1 0 1 1 0 1 1 0 1 0 0 0 1-1 1-1 0-2 0-3-1-3-1-5-2-7-4-1-2-2-4-1-5 0-1 1-2 2-2 1 0 2 0 3 0 1 1 2 1 3 2 2 0 3 1 5 2-4-3-7-6-8-7-2-2-2-4-2-5 0 0 1-1 2-1 0 0 1 0 2 0 2 1 4 3 8 5l1 1c-4-4-7-7-8-9-2-2-3-3-2-4 0-1 1-1 1-1 1-1 2-1 3 0 1 0 4 2 8 5l1 1h1c4 3 7 4 8 5 0 0 1 0 1 0 1 0 1-1 2-2l2 2c-1 1-2 2-3 3-1 0-2 0-3 0-2-1-5-3-10-6-1-1-2-2-2-2h-1c-2-2-3-3-4-3-1 0-1 0-1 0 0 1 1 3 4 5 2 3 5 5 8 8 1 1 2 2 4 2 1 1 2 2 3 3 1 0 1 0 1 1 0 0 0 0 0 1 0 0-1 1-1 1 0 0-1 0-1 0 0 0-1-1-3-2-1-1-2-2-3-2-4-3-6-5-9-6-2-1-3-2-4-2 0-1-1-1-1-1 0 0 0 1 0 1-1 0 0 2 2 4 3 2 5 5 9 7 1 1 3 2 5 3 1 1 2 2 3 2 0 1 0 1 0 1v1c0 1 0 1-1 1-1 0-2 0-4-2-2-1-3-2-4-3-3-1-5-3-7-4-2-1-3-1-4-2-1 0-2 0-2 0-1 0-1 0-1 1 0 1 0 1 1 2 1 1 2 2 4 3 1 0 2 0 2 0 1 0 1 0 2 0zm20-25c0-1-1-2-2-3-1-2-2-2-2-3-1 0-1 0-2 0-1 0 0 1 0 2 1 1 2 2 3 3 1 1 1 1 2 1 0 0 1 0 1 0zm3 3c0 1 0 2 0 3 0 1-1 1-1 2l-2-2c0 0 0-1 1-1 0-1 0-1 0-2-1 0-2 0-2 0-1 0-2-1-3-1-2-2-4-3-4-5-1-2-2-4-1-5 1 0 1-1 2-1 1 0 2 1 3 1 1 1 3 2 4 4 1 1 2 3 2 4 1 0 1 0 2 0 0 0 0-1 1-1l2 1-1 1c0 1-1 1-1 2-1 0-1 0-2 0zm4-4l-1-2c0 0 0-1 0-1 0-1 0-1 0-1s0-1-1-1c-2-1-3-2-3-3-1-1-2-3-3-4 0-1-1-3-1-4 0-1 0-2 1-2 0-1 0-1 1-1 0 0 0-1 1-1l-5-6c0 0-1 0-1-1-1-1-2-2-1-3 0 0 0-1 1-1 0 0 0 0 1 0 0 1 0 1 1 2 0 0 0 0 0 1l5 6c2 2 4 4 5 6 2 2 3 3 4 4 0 0 1 0 1 0 0 0 1 0 1-1l2 2c-1 1-1 2-2 2-1 0-1 0-2-1-1 0-1 0-1-1-1 0-1-1-2-1 1 2 2 3 3 5 0 1 0 2-1 3 0 0 0 0-1 0 0 1 0 1-1 1 0 0 0 0 0 1 0 1 0 1-1 2zm-4-18c-1 0-1 1-1 1 0 0-1 1 0 2 0 1 0 2 1 3 0 1 1 2 1 3 1 1 2 1 2 2 1 0 1 0 2 0 1 0 1-2 0-3-1-2-3-5-5-8zm12 7l-2-2c1-1 1-2 1-3-1-2-2-4-4-7-1-1-1-1-2-2-1-2-1-3 0-4 0 0 1 0 1 0 1 0 1 1 2 2 0 1 0 2 1 2l3 5c0 1 1 2 1 2 1 1 1 1 1 1s1 0 1-1l2 2-1 1c0 0-1 1-2 1 0 0-1 0-2-1 1 1 1 2 1 2 0 1-1 2-1 2zm-10-22c-1 0-1 0-1 0-1 0-1 0-2-1 0-1-1-1-1-2 0-1 0-1 0-2 1 0 1 0 1 0 1 0 1 1 2 1 0 1 1 1 1 2 0 1 0 1 0 2zm17 15l-1-3c0 0 1 0 1-1 0 0 0-1 0-1 0 0-1-1-1-1-1-1-1-1-2-2-1-2-2-4-3-6 0-3 0-4 1-5 1-1 2-1 2-1 1 0 2 1 2 1 1 1 1 1 1 2 0 0 0 1 0 1 0 0-1 0-1 0 0-1 0-1-1-1 0 0 0 0-1 0 0 1 0 2 0 3 1 1 1 3 2 4 2 2 3 2 4 3 1 0 2-1 3-2l1 3c0 0 0 0 0 0-1 1-2 1-2 1-1 1-2 1-3 0 0 1 0 2 0 3-1 0-1 1-2 2zm9-8l-1-2c0-1 0-2 0-3 0-2-1-5-3-8 0 0 0-1-1-2 0-2 0-3 1-3 0-1 0-1 0-1 1 0 1 0 1 1 0 0 0 1 1 2 0 1 1 2 1 2l2 5c0 2 1 2 1 3 0 0 1 0 1 0 0 0 1 0 1 0l1 2v1c-1 0-2 0-2 0-1 0-2 0-2-1 0 1 0 2 0 3-1 0-1 1-1 1zm-7-24c0 1-1 1-1 1 0-1-1-1-1-2-1 0-1-1-1-2 0-1 0-1 0-1 1-1 1-1 2 0 0 0 0 0 1 1 0 1 1 1 1 2 0 1 0 1-1 1zm13 17c0 1 0 1 0 2 0 0 0 1-1 1l-1-2c1-1 1-2 1-3 0-1-1-3-2-6 0-1-1-2-1-4-1-2-1-3-1-3 1-1 1-1 1-1 1 0 1 0 1 0 0 1 0 2 1 3 1 2 1 4 2 6-1-3-1-6-1-8 0-2 1-3 1-3 1 0 1 0 2 0 0 0 1 0 1 1 0 1 1 3 2 6v1c1 1 1 2 1 3 0 0 1 1 1 1 0 0 0 0 1 0 0 1 0 0 1 0l1 2v1c-2 0-3 1-3 0-1 0-2 0-2-1-1-1-1-2-1-3-1-1-1-2-2-4 0-2 0-2-1-3-1 0-1 2-1 4 1 2 1 4 2 7 0 0 0 1 0 2 1 1 1 2 0 2 0 1-1 1-1 1 0 0 0 0 0-1 0 0-1-1-1-1zm16-22c0 0 0 0-1 0-1 0-1 1-1 2-1 0-1 1-1 3 0 1 0 2 0 3 0 1 1 2 1 3 0 0 1 1 1 1 1 0 2-1 2-3 0-2 0-5-1-9zm2 7c0 3 0 5 0 6-1 1-1 2-2 2-1 1-1 1-1 1-1 0-1-1-1-1-1 1-1 1-1 1-1 1-1 1-2 1v-2c0 0 0-1 1-1 0 0 0 0 0-1 0-1 0-1 0-1-1-1-1-2-1-3-1-2-1-3-1-4 0-2 1-4 1-5 1-1 1-2 2-2 1-1 1-1 1-1 1 0 1 1 2 1v-1c0 0 0-1 0-1 0 0 1-1 1 0 1 0 1 0 1 0s0 1 1 2c0 1 0 2 0 3 0 2 0 4 1 5 0 1 0 2 1 3 0 0 0 1 0 1 0 0 1 0 2 0v2c-1 1-2 1-3 1 0 0-1-1-1-2 0 0 0-1-1-1 0-1 0-2 0-3z" stroke-width=".595"/></g></g></svg>