<svg xmlns="http://www.w3.org/2000/svg" width="744.09" height="1052.36" viewBox="0 0 21000 29700" shape-rendering="geometricPrecision" image-rendering="optimizeQuality" fill-rule="evenodd" clip-rule="evenodd"><defs><clipPath id="0"><path d="m14028 25860c1182 566 3428 457 4110-590 680-1044 526-4004 590-5455 161-3634 570-6391 675-9322 117-3255-2133-5407-4822-6013-3795-855-3570 4154-3043 6728 277 1383 823 2587 1172 3939 643 2494 60 6301 284 8897 115 897 418 1493 1035 1816z"/></clipPath><clipPath id="1"><path d="m6972 25870c-1182 566-3428 457-4110-590-679-1044-526-4004-590-5455-161-3634-570-6391-675-9322-117-3255 2133-5407 4822-6013 3795-855 3570 4154 3043 6728-277 1383-823 2587-1172 3939-643 2494-60 6301-284 8897-115 897-418 1493-1035 1816z"/></clipPath></defs><path d="m14028 25860c1182 566 3428 457 4110-590 680-1044 526-4004 590-5455 161-3634 570-6391 675-9322 117-3255-2133-5407-4822-6013-3795-855-3570 4154-3043 6728 277 1383 823 2587 1172 3939 643 2494 60 6301 284 8897 115 897 418 1493 1035 1816z" fill="#fff"/><g clip-path="url(#0)"><g fill="#201e1e" stroke="#201e1e"><g font-family="&apos;Arial&apos;" stroke-width="7.62" font-size="597.49"><text x="13344" y="19848">NN 1</text><text x="13322" y="20377">NN 2</text></g><g stroke-width="20"><path d="m15055 8222c-226 343-279 980-421 1452-227 756-530 1311-631 2082 405-118 763-334 1292-363 809-44 1309 150 1743 363 27 94 111-80 120 0 7 43-30 121 60 97 72-184 21-465-120-557-9 105 122 223 30 315-53 21-50 107-120 48-370-1115-1026-2206-1833-3050-67-40-163 5-180-24-9-185 93-280 240-339-36-28-106-27-180-24zm-3471-2154c-43 119-81 243-115 370 620 56 1211 201 1692 453 225 118 470 291 691 508 337 331 634 607 571 1186-60 554-319 1094-541 1622-530 1263-900 2779-932 4429-6 338-24 696 240 847 167 78 357-34 481-73 142-576 1-1201 60-1815 31-329 115-877 270-1138 574-967 2714-843 3275-24 347 505 421 1549 421 2275 0 269-62 547 60 775 849 32 718-633 691-1210-95-2066-768-3489-1743-4768-407-535-720-1063-1232-1476-149-120-358-205-511-339-824-719-1880-1421-3381-1622z"/><path d="m14123 11635c486-380 2130-442 2765-48-103-517-394-1026-691-1525-269-452-699-1175-1172-1404-2 15-4 29-30 24-2-15-4-29-30-24-104 1135-651 1912-841 2977zm1112-3389c-147 59-249 154-240 339 17 29 113-16 180 24 807 844 1463 1934 1833 3050 71 59 67-27 120-48 92-91-39-210-30-315 141 92 192 373 120 557-90 24-53-54-60-97-10-80-93 94-120 0-434-213-934-407-1743-363-529 29-887 245-1292 363 101-771 404-1325 631-2082 142-472 195-1109 421-1452 74-3 145-4 180 24z"/><path d="m13191 21946c80-105 45-303 120-411 227 35 121 288 90 436-92 34-135 11-210-24z"/><path d="m17849 22164c251 55 659 85 837-45-1 39-2 78-4 116-259 144-808 53-1134-47-570-176-1174-595-1442-847-506 369-1346 745-2224 823-328 29-664 10-781-97-198-181-48-596 180-702 292-135 695-3 992 24 488-132 1043-209 1382-460-1116-1537-1995-3266-2524-5277-134-177-187-137-240-266-205-499 8-1436 60-1912 142-1304 407-2288 841-3340 207-501 496-1048 541-1573 45-537-250-784-571-1089-527-501-1330-847-2311-965 6-23 11-46 18-69 620 56 1211 201 1692 453 225 118 469 291 691 508 337 331 634 607 571 1186-60 554-319 1094-541 1622-530 1263-900 2779-932 4429-6 338-24 696 240 847 167 78 357-34 481-73 142-576 1-1201 60-1815 31-329 115-877 270-1138 574-967 2714-843 3275-24 347 505 421 1549 421 2275 0 269-62 547 60 775 849 32 718-633 691-1210-95-2066-768-3489-1743-4768-407-535-720-1063-1232-1476-149-120-358-205-511-339-824-719-1880-1421-3381-1622 6-17 12-34 19-51 1128 153 2039 575 2791 1092 189 130 328 324 511 460-4-3 199 118 270 169 998 725 1944 1989 2494 3122 259 533 488 1162 631 1840 141 669 292 1405 240 2082-24 313-58 582-331 726-286 2007-820 3874-1743 5446 381 432 1076 769 2013 605 74 52 152 108 215 170-2 95-4 191-6 288-16-148-88-249-178-337-200 0-401 0-601 0-2 117 133 383-60 484zm-4507-726c-199 164-320 423-120 581 441 349 1502-163 932-581-220-34-594-42-811 0zm2795-145c8 99 474 333 691 460 334 196 673 362 932 315 106-82 94-202 60-290-500-226-1086-384-1442-726 29 85-248 146-240 242zm361-1065c-318 544-1087 1140-2194 1210 138 171 67 410-30 581 1392-250 2187-923 2614-1961 439-1066 870-2397 992-3534-359 1423-659 2614-1382 3703zm-2674-3800c-94-85-131-217-210-315 361 1871 1074 3459 2164 4744 204-151-65-354-150-484-569-871-1005-1878-1382-2880-154-410-261-841-481-1186 45 20 43 78 60 121zm1833-4623c-1307-14-1729 791-1833 1767-57 531 88 1117 30 1646-12 114-83 215-90 315-32 424 243 1021 391 1404 386 1003 612 1663 1082 2590 134 264 613 1106 811 1089 94-8 245-335 331-484 238-414 262-606 391-968 271-764 571-1601 751-2445 60-283 208-849 180-1089-14-119-102-157-120-290-65-485 17-1032-60-1549-77-515-165-963-361-1355-451-294-807-622-1502-629z"/></g><g font-family="&apos;Chelsea Alternates&apos;" stroke-linejoin="round" stroke-linecap="round" stroke-width="50"><text x="10500" y="14850" font-size="1533.72" transform="matrix(.36858 0 0 1 9341.5 8543.71)">Texto 1</text><text x="10500" y="14850" font-size="1747.25" transform="matrix(.44113 0 0 1 8563.3 10232.3)">Texto 2</text></g></g></g><path d="m6972 25870c-1182 566-3428 457-4110-590-679-1044-526-4004-590-5455-161-3634-570-6391-675-9322-117-3255 2133-5407 4822-6013 3795-855 3570 4154 3043 6728-277 1383-823 2587-1172 3939-643 2494-60 6301-284 8897-115 897-418 1493-1035 1816z" fill="#fff"/><g clip-path="url(#1)"><g fill="#201e1e" stroke="#201e1e"><g stroke-width="20"><path d="m9440 6134c43 127 81 259 115 395-643 117-1227 318-1652 579-672 414-1220 1136-1683 1840-470 715-795 1620-902 2445-129 1001-32 2039-210 3001-15 82 22 246-120 290-317-4-243-71-210-315 41-303 132-1040 150-1259 37-437 8-1253 60-1743 117-1090 502-2024 992-2856 631-1073 1827-2045 3460-2378z"/><path d="m4807 17250c13-91 118-295 0-339-14 87-74 262 0 339zm150-363c-16 205 7 441-240 460-282-109-70-753 240-460z"/><path d="m2214 18700c-5-90-11-180-17-269 207 365 517 631 927 708-1243-910-1252-3827 391-4381-179 0-446-10-601 48-389 147-714 710-890 1332-8-88-15-175-23-262 217-561 584-1020 1063-1215 748-30 1201 178 1412 581 116-160 115-356 150-533 110-553 192-1162 210-1743 27-820-24-1620 180-2372 382-1404 1050-2673 2103-3534 513-419 1337-811 2294-994 8 23 16 45 24 68-1633 333-2829 1305-3460 2378-490 832-875 1767-992 2856-53 490-23 1306-60 1743-19 219-110 956-150 1259-33 244-107 311 210 315 142-45 105-208 120-290 178-963 81-2000 210-3001 107-825 432-1730 902-2445 463-704 1011-1425 1683-1840 425-262 1008-462 1652-579 3 11 6 23 9 34-1728 334-2752 1484-3463 2772-406 736-600 1576-691 2541-47 494-29 1000-60 1501-28 450-173 891-210 1307-7 81 36 157 30 266-11 204-127 402-60 581 48 129 240 218 331 363 145 232 296 613 300 992 9 717-248 1614-1262 1476-187 589-981 1123-1803 775-177-75-331-236-460-439zm1421-965c-121-396-71-1044 120-1452-834-154-890 1531-120 1452zm631 484c-575-409-549-1638-180-2203 86-131 297-208 270-315-803 341-1002 2236-90 2517zm90-2372c-329 265-555 1181-391 1767 101 359 497 796 1052 629 489-147 685-991 601-1598-56-401-317-1034-841-968-266 33-332 98-421 169zm180-339c178-82 332-16 481 48 0-81 0-161 0-242-92-63-241-80-421-73-54 112-36 161-60 266zm-90-169c-134-96-216-333-421-411-318-122-694-17-871 97-762 488-1065 2179-571 3243 138 297 435 722 691 799 648 194 879-378 1052-702-356-68-566-254-631-557-1071 151-841-1855 90-1598 100-299 255-553 661-605-7-144 56-176 0-266zm240-169c139-7 260 0 331 48 7-131 48-236 30-387-253-209-413 83-361 339z"/><path d="m5018 16210c-2-25-39-19-30 24 342 381 208 1268 0 1598 317-360 394-1251 30-1622zm-631 557c-46 363 37 1206 301 1210 190 3 392-563 421-896 37-428-210-870-361-992-168 154-316 324-361 678zm361-775c292-90 580 388 631 775 72 542-273 1291-541 1331-342 51-490-347-541-605-90-458 0-1025 180-1283 39-55 186-192 270-218z"/></g><g font-family="&apos;Chelsea Alternates&apos;" stroke-linejoin="round" stroke-linecap="round" stroke-width="50"><text x="10500" y="14850" font-size="1533.72" transform="matrix(.36858 0 0 1-1162.46 8543.71)">Texto 1</text><text x="10500" y="14850" font-size="1747.25" transform="matrix(.44113 0 0 1-1940.66 10232.3)">Texto 2</text></g><g font-family="&apos;Arial&apos;" stroke-width="7.62" font-size="597.49"><text x="5696" y="19869">NN 1</text><text x="5674" y="20398">NN 2</text><text x="5696" y="19869">NN 1</text><text x="5674" y="20398">NN 2</text></g></g></g><g fill-rule="nonzero"><path d="m15050 5208c-12 15-25 25-37 29-12 5-24 5-36-1-24-10-36-33-36-69 0-36 12-82 36-139 49-115 114-205 194-268 80-63 152-82 216-55 44 19 71 50 80 95 10 45 2 98-24 159-14 33-36 75-67 125-30 50-72 114-124 190 151-165 266-276 346-333 80-58 142-77 187-57 27 12 42 34 46 67 4 34-5 75-26 123-26 60-98 164-217 311l-26 31c162-160 287-269 376-329 89-60 157-80 202-61 25 11 40 33 44 66 5 34-2 71-20 113-26 60-105 175-237 346l-32 41-19 25c-134 172-208 277-224 312-14 33-17 60-9 81 8 21 27 39 58 54l-59 90-14-6c-60-26-98-60-112-104-14-43-7-99 22-167 25-60 116-189 272-387 33-42 58-73 76-96l12-15c70-89 109-145 119-168 5-11 6-20 5-30-1-9-5-15-10-18-23-10-93 32-208 127-115 94-233 212-353 353-37 43-75 88-112 135-37 47-74 94-110 143-15 20-27 31-37 33-10 2-24 0-41-7-26-11-44-23-54-35-10-12-11-26-5-40 3-8 34-47 90-117 45-56 82-102 111-140 109-137 197-252 265-345 67-92 107-153 119-180 6-15 9-29 8-41-1-12-6-20-14-24-29-12-93 24-190 110-98 86-207 202-327 350-45 56-94 118-145 188-51 70-80 109-87 118-16 20-28 31-37 33-9 2-24-1-45-10-22-9-37-20-46-32-9-12-10-25-5-38 6-14 38-58 97-134 59-76 109-142 150-197 66-89 125-174 176-256 52-82 86-143 103-184 14-33 20-61 17-83-3-22-13-38-32-46-32-13-70 0-114 42-45 41-82 97-112 167-13 30-21 59-26 86-4 28-4 50 2 66zm933 863c48-12 98-38 150-78 52-39 89-78 113-117 12-19 18-36 18-49 0-14-5-24-17-31-23-14-58-5-103 27-45 32-85 78-120 135-13 22-24 42-30 60-7 18-10 35-11 53m-131 115c-40 4-77 3-112-3-35-6-66-16-95-32l73-80c21 10 41 17 62 20 20 4 42 5 64 4 3-29 11-59 23-91 12-32 31-67 54-105 55-89 122-155 201-198 79-43 145-48 198-16 29 18 44 46 44 85 0 38-15 82-45 130-32 53-80 104-144 152-63 49-131 85-201 109 1 25 6 45 16 61 10 16 25 30 45 43l6 4-72 80-12-7c-32-19-56-42-73-68-17-26-28-55-31-89zm184 205l76-77c16 9 31 15 46 18 15 3 30 4 46 2 6-11 11-22 18-33 7-11 14-23 23-36 34-50 74-96 120-137 46-41 93-75 143-101 61-32 115-50 163-55 48-5 88 4 120 26 13 9 23 20 32 33 8 13 16 29 21 48l256-237c7-7 18-17 32-31 63-60 108-81 136-62 22 15 35 29 40 42 5 13 1 28-10 45-5 8-21 22-47 43-17 13-30 24-39 32l-258 220c-94 80-180 158-257 234-77 76-124 127-141 152-16 23-23 42-21 57 2 15 14 32 36 51l-75 76-7-5c-43-29-68-57-76-83-8-26 0-56 23-91 10-15 25-33 43-53 18-20 43-44 74-74-83 61-152 101-208 121-56 20-99 19-131-3-16-11-27-24-34-42-7-17-8-35-5-52-20 5-41 5-63 0-23-5-48-15-76-31zm724-235c-2-7-6-13-9-18-3-5-7-9-12-12-20-13-47-17-81-9-34 7-76 24-124 52-41 23-81 51-119 83-38 33-66 62-84 88-13 20-21 37-23 53-2 16 2 27 12 34 24 16 74 1 150-46 76-47 173-122 290-225m-272 556l83-69c31 24 79 19 143-14 64-33 154-99 272-200 18-16 41-37 69-62 59-54 109-63 152-27 10 8 15 17 17 26 1 9-2 18-9 27-10 12-34 32-73 59-38 28-67 49-87 65l-184 144-8 6c-45 34-72 58-83 70-14 17-21 31-19 44 1 12 12 29 33 50l-83 69-13-11c-33-28-51-55-57-82-5-27 4-57 26-89-38 15-72 22-101 21-29-1-55-10-78-26zm894-538c-15-12-21-28-18-48 3-19 14-41 34-64 25-30 53-51 82-61 29-11 52-9 68 5 13 11 19 28 16 49-3 21-14 43-32 65-25 30-52 50-81 60-28 10-51 8-68-7zm-597 763l93-55c15 14 30 25 48 33 17 8 37 13 58 15 11-21 25-41 43-61 17-21 39-42 66-66 86-76 178-123 276-141 98-18 169-2 213 47 22 25 31 54 25 85-5 32-23 61-54 87-20 18-41 29-61 34-20 4-35 1-45-10-3-4-5-7-5-11 0-3 4-8 11-14 18-16 29-30 33-43 4-13 1-25-9-36-22-25-63-29-124-11-61 18-119 52-175 101-56 50-88 97-95 143-7 46 11 93 52 143l-92 56c-3-4-8-7-14-11-1-1-1-2-2-2-30-34-51-68-62-104-12-36-14-71-7-106-35 0-67-5-96-18-29-12-56-31-80-55zm262 294l94-54c27 28 74 32 143 11 69-22 169-72 301-151 21-13 47-29 79-49 67-43 118-44 154-1 8 10 12 19 12 28 0 9-5 17-14 25-12 10-39 26-82 46-42 21-74 37-97 50l-205 111-9 4c-50 26-81 45-93 55-17 14-26 28-26 40-1 13 7 31 24 55l-94 54-11-13c-28-33-41-63-42-91 0-28 13-56 40-84-40 8-74 9-103 4-29-6-53-19-72-39zm972-379c-12-15-15-31-10-50 6-19 21-38 44-57 30-25 61-41 91-47 31-6 53 0 67 16 11 14 14 30 7 51-7 21-21 40-43 59-30 25-60 40-90 45-30 5-52-1-66-18zm-596 714c-28 0-52-5-73-15-21-10-39-25-54-44l101-39c20 29 57 40 112 35 55-5 135-28 239-69 50-20 109-44 177-73 90-40 143-47 158-23 14 22 21 39 23 51 2 12-3 21-13 27-8 5-51 19-131 44-80 25-156 50-229 76 140-25 248-35 322-31 74 5 122 25 144 60 11 18 12 36 3 55-9 19-27 37-54 53-30 19-120 51-268 97l-49 15c-32 10-60 20-87 30-26 10-44 18-54 25-16 10-26 21-28 33-2 12 3 30 15 55l-101 40-6-10c-28-46-39-86-33-120 7-34 31-63 73-89 19-12 51-26 96-42 45-16 103-35 175-56l15-5c60-17 95-28 104-34 8-5 13-9 15-14 2-4 2-9-2-14-10-17-60-22-148-16-88 6-189 25-301 58-23 6-49 15-81 26-58 19-98 12-119-23-7-11-10-20-9-27 1-7 5-13 14-18 4-3 11-6 19-9 8-3 19-6 32-10zm942 679c7-13 11-24 12-34 1-10 0-19-3-28-8-18-29-34-63-47-34-13-77-21-129-25-47-3-96-2-144 5-49 7-89 17-122 31-24 10-40 20-49 30-9 10-12 20-7 31 13 30 62 48 147 55 86 6 205 0 359-18zm-295 68c-106 6-187 1-243-13-56-14-92-40-107-77-7-17-10-34-7-50 2-16 9-31 22-45-20-10-37-23-52-40-15-17-29-38-41-64l106-22c8 16 18 30 29 41 11 11 23 20 37 27 10-5 20-11 31-16 10-5 22-10 35-16 40-17 86-30 139-39 52-9 106-13 160-12 82 2 150 13 202 35 52 22 86 53 103 93 8 20 11 39 8 57-3 18-12 38-27 59l35-7c22-4 36-6 43-4 7 2 12 6 15 14 9 21 11 42 6 62-5 21-15 34-31 41-5 2-30 5-76 9-46 4-90 8-131 14-82 10-151 21-207 33-56 12-98 23-126 35-20 8-31 18-36 28-4 11-3 31 5 59l-105 23-3-8c-20-48-26-85-18-111 8-26 31-47 69-63 17-7 38-14 65-21 26-6 60-14 103-21z" fill="#201e1e"/><path d="m15050 5208c-12 15-25 25-37 29-12 5-24 5-36-1-24-10-36-33-36-69 0-36 12-82 36-139 49-115 114-205 194-268 80-63 152-82 216-55 44 19 71 50 80 95 10 45 2 98-24 159-14 33-36 75-67 125-30 50-72 114-124 190 151-165 266-276 346-333 80-58 142-77 187-57 27 12 42 34 46 67 4 34-5 75-26 123-26 60-98 164-217 311l-26 31c162-160 287-269 376-329 89-60 157-80 202-61 25 11 40 33 44 66 5 34-2 71-20 113-26 60-105 175-237 346l-32 41-19 25c-134 172-208 277-224 312-14 33-17 60-9 81 8 21 27 39 58 54l-59 90-14-6c-60-26-98-60-112-104-14-43-7-99 22-167 25-60 116-189 272-387 33-42 58-73 76-96l12-15c70-89 109-145 119-168 5-11 6-20 5-30-1-9-5-15-10-18-23-10-93 32-208 127-115 94-233 212-353 353-37 43-75 88-112 135-37 47-74 94-110 143-15 20-27 31-37 33-10 2-24 0-41-7-26-11-44-23-54-35-10-12-11-26-5-40 3-8 34-47 90-117 45-56 82-102 111-140 109-137 197-252 265-345 67-92 107-153 119-180 6-15 9-29 8-41-1-12-6-20-14-24-29-12-93 24-190 110-98 86-207 202-327 350-45 56-94 118-145 188-51 70-80 109-87 118-16 20-28 31-37 33-9 2-24-1-45-10-22-9-37-20-46-32-9-12-10-25-5-38 6-14 38-58 97-134 59-76 109-142 150-197 66-89 125-174 176-256 52-82 86-143 103-184 14-33 20-61 17-83-3-22-13-38-32-46-32-13-70 0-114 42-45 41-82 97-112 167-13 30-21 59-26 86-4 28-4 50 2 66zm933 863c48-12 98-38 150-78 52-39 89-78 113-117 12-19 18-36 18-49 0-14-5-24-17-31-23-14-58-5-103 27-45 32-85 78-120 135-13 22-24 42-30 60-7 18-10 35-11 53zm-131 115c-40 4-77 3-112-3-35-6-66-16-95-32l73-80c21 10 41 17 62 20 20 4 42 5 64 4 3-29 11-59 23-91 12-32 31-67 54-105 55-89 122-155 201-198 79-43 145-48 198-16 29 18 44 46 44 85 0 38-15 82-45 130-32 53-80 104-144 152-63 49-131 85-201 109 1 25 6 45 16 61 10 16 25 30 45 43l6 4-72 80-12-7c-32-19-56-42-73-68-17-26-28-55-31-89zm184 205l76-77c16 9 31 15 46 18 15 3 30 4 46 2 6-11 11-22 18-33 7-11 14-23 23-36 34-50 74-96 120-137 46-41 93-75 143-101 61-32 115-50 163-55 48-5 88 4 120 26 13 9 23 20 32 33 8 13 16 29 21 48l256-237c7-7 18-17 32-31 63-60 108-81 136-62 22 15 35 29 40 42 5 13 1 28-10 45-5 8-21 22-47 43-17 13-30 24-39 32l-258 220c-94 80-180 158-257 234-77 76-124 127-141 152-16 23-23 42-21 57 2 15 14 32 36 51l-75 76-7-5c-43-29-68-57-76-83-8-26 0-56 23-91 10-15 25-33 43-53 18-20 43-44 74-74-83 61-152 101-208 121-56 20-99 19-131-3-16-11-27-24-34-42-7-17-8-35-5-52-20 5-41 5-63 0-23-5-48-15-76-31zm724-235c-2-7-6-13-9-18-3-5-7-9-12-12-20-13-47-17-81-9-34 7-76 24-124 52-41 23-81 51-119 83-38 33-66 62-84 88-13 20-21 37-23 53-2 16 2 27 12 34 24 16 74 1 150-46 76-47 173-122 290-225zm-272 556l83-69c31 24 79 19 143-14 64-33 154-99 272-200 18-16 41-37 69-62 59-54 109-63 152-27 10 8 15 17 17 26 1 9-2 18-9 27-10 12-34 32-73 59-38 28-67 49-87 65l-184 144-8 6c-45 34-72 58-83 70-14 17-21 31-19 44 1 12 12 29 33 50l-83 69-13-11c-33-28-51-55-57-82-5-27 4-57 26-89-38 15-72 22-101 21-29-1-55-10-78-26zm894-538c-15-12-21-28-18-48 3-19 14-41 34-64 25-30 53-51 82-61 29-11 52-9 68 5 13 11 19 28 16 49-3 21-14 43-32 65-25 30-52 50-81 60-28 10-51 8-68-7zm-597 763l93-55c15 14 30 25 48 33 17 8 37 13 58 15 11-21 25-41 43-61 17-21 39-42 66-66 86-76 178-123 276-141 98-18 169-2 213 47 22 25 31 54 25 85-5 32-23 61-54 87-20 18-41 29-61 34-20 4-35 1-45-10-3-4-5-7-5-11 0-3 4-8 11-14 18-16 29-30 33-43 4-13 1-25-9-36-22-25-63-29-124-11-61 18-119 52-175 101-56 50-88 97-95 143-7 46 11 93 52 143l-92 56c-3-4-8-7-14-11-1-1-1-2-2-2-30-34-51-68-62-104-12-36-14-71-7-106-35 0-67-5-96-18-29-12-56-31-80-55zm262 294l94-54c27 28 74 32 143 11 69-22 169-72 301-151 21-13 47-29 79-49 67-43 118-44 154-1 8 10 12 19 12 28 0 9-5 17-14 25-12 10-39 26-82 46-42 21-74 37-97 50l-205 111-9 4c-50 26-81 45-93 55-17 14-26 28-26 40-1 13 7 31 24 55l-94 54-11-13c-28-33-41-63-42-91 0-28 13-56 40-84-40 8-74 9-103 4-29-6-53-19-72-39zm972-379c-12-15-15-31-10-50 6-19 21-38 44-57 30-25 61-41 91-47 31-6 53 0 67 16 11 14 14 30 7 51-7 21-21 40-43 59-30 25-60 40-90 45-30 5-52-1-66-18zm-596 714c-28 0-52-5-73-15-21-10-39-25-54-44l101-39c20 29 57 40 112 35 55-5 135-28 239-69 50-20 109-44 177-73 90-40 143-47 158-23 14 22 21 39 23 51 2 12-3 21-13 27-8 5-51 19-131 44-80 25-156 50-229 76 140-25 248-35 322-31 74 5 122 25 144 60 11 18 12 36 3 55-9 19-27 37-54 53-30 19-120 51-268 97l-49 15c-32 10-60 20-87 30-26 10-44 18-54 25-16 10-26 21-28 33-2 12 3 30 15 55l-101 40-6-10c-28-46-39-86-33-120 7-34 31-63 73-89 19-12 51-26 96-42 45-16 103-35 175-56l15-5c60-17 95-28 104-34 8-5 13-9 15-14 2-4 2-9-2-14-10-17-60-22-148-16-88 6-189 25-301 58-23 6-49 15-81 26-58 19-98 12-119-23-7-11-10-20-9-27 1-7 5-13 14-18 4-3 11-6 19-9 8-3 19-6 32-10zm942 679c7-13 11-24 12-34 1-10 0-19-3-28-8-18-29-34-63-47-34-13-77-21-129-25-47-3-96-2-144 5-49 7-89 17-122 31-24 10-40 20-49 30-9 10-12 20-7 31 13 30 62 48 147 55 86 6 205 0 359-18zm-295 68c-106 6-187 1-243-13-56-14-92-40-107-77-7-17-10-34-7-50 2-16 9-31 22-45-20-10-37-23-52-40-15-17-29-38-41-64l106-22c8 16 18 30 29 41 11 11 23 20 37 27 10-5 20-11 31-16 10-5 22-10 35-16 40-17 86-30 139-39 52-9 106-13 160-12 82 2 150 13 202 35 52 22 86 53 103 93 8 20 11 39 8 57-3 18-12 38-27 59l35-7c22-4 36-6 43-4 7 2 12 6 15 14 9 21 11 42 6 62-5 21-15 34-31 41-5 2-30 5-76 9-46 4-90 8-131 14-82 10-151 21-207 33-56 12-98 23-126 35-20 8-31 18-36 28-4 11-3 31 5 59l-105 23-3-8c-20-48-26-85-18-111 8-26 31-47 69-63 17-7 38-14 65-21 26-6 60-14 103-21z" fill="none" stroke="#201e1e" stroke-width="25"/></g><g fill="#201e1e" font-family="&apos;Arial&apos;" font-size="641.9"><text x="1265" y="27436">DESC 1</text><text x="1242" y="28004">DESC 2</text><text x="1249" y="28609">DESC 3</text></g></svg>