<svg xmlns="http://www.w3.org/2000/svg" width="744.09" height="1052.36" viewBox="0 0 21000 29700" shape-rendering="geometricPrecision" image-rendering="optimizeQuality" fill-rule="evenodd" clip-rule="evenodd"><g fill="none" stroke="#373435" stroke-width="80"><path d="m9688 22661h1621"/><path d="m10498 21851v1621"/><circle cx="10498" cy="22661" r="460"/></g><text x="10046" y="21290" fill="#201e1e" font-family="&apos;Arial Black&apos;" stroke="#201e1e" font-weight="900" stroke-width="7.62" font-size="705.56">28</text><g fill="none" stroke="#322f30" stroke-width="80"><circle cx="10533" cy="1326" r="460"/><path d="m10533 515v1621"/><path d="m9723 1326h1621"/></g><rect x="9843" y="19706" width="1347" height="637" rx="318" fill="#fff" stroke="#fff" stroke-width="20"/><g fill="#373435" font-family="&apos;Arial&apos;" font-size="423.33"><text x="1151" y="24640">DESC 1</text><text x="1169" y="25025">DESC 2</text><text x="1191" y="25414">DESC 3</text></g><path d="m5880 19743c545-267 727-807 788-1367 58-527 64-1066 57-1595-7-590-32-1180-50-1770-19-640-33-1284-6-1924 24-574 81-1167 228-1724 275-1045 722-2036 941-3096 67-324 119-653 158-981 43-366 69-734 73-1103 10-905-114-2228-883-2847-486-392-1109-402-1698-272-873 192-1701 589-2365 1181-468 417-840 920-1090 1491-275 628-385 1300-360 1981 13 349 31 698 54 1046 64 988 161 1973 250 2959 100 1110 188 2218 239 3331 14 302 15 605 18 908 4 359 8 718 21 1077 16 439 44 888 116 1322 49 301 135 690 307 948 163 245 438 407 712 511 330 124 700 181 1052 190 466 13 1017-57 1437-264z" fill="#fff"/><g stroke="#201e1e"><g fill="none"><g stroke-width="75"><path d="m2431 8154l62 193 203-1-164 119 63 192-164-119-164 119 63-192-164-119 203 1z"/><path d="m2335 7154l63 193h202l-164 118 63 193-164-120-163 120 63-193-165-118h203z"/><path d="m3059 6249l62 192h203l-165 119 63 192-163-119-164 119 63-192-164-119h202z"/><path d="m4028 4985l62 192h203l-164 119 63 192-164-119-164 119 63-192-164-119h203z"/><path d="m4895 3725l62 193 203-1-165 119 63 192-163-119-164 119 63-192-164-119 202 1z"/><path d="m6368 3381l63 193h202l-164 118 63 193-164-120-163 120 63-193-165-118h203z"/></g><path stroke-width="150" d="m6667 14684l-2058 1500 1315-4017-3428-2478 4231 8 1300-4022"/></g><g fill="#201e1e" stroke-width="7.62"><path d="m4964 6048l226 698 733-2-594 430 228 697-593-432-593 432 228-697-594-430 734 2z"/><path d="m4507 18074l225 698 734-2-594 430 228 697-593-432-593 432 228-697-595-430 734 2z"/><path d="m2165 8925l62 192h203l-164 118 63 193-164-119-164 119 63-193-164-118h203z"/><path d="m3293 8237l62 193h203l-165 118 63 193-163-120-164 120 63-193-164-118h202z"/><path d="m2952 7613l63 192h202l-164 119 63 192-164-119-163 119 63-192-165-119h203z"/><path d="m2394 6280l62 193 203-1-164 119 63 192-164-119-164 119 63-192-164-119 203 1z"/><path d="m4028 4131l62 193 203-1-164 119 63 192-164-119-164 119 63-192-164-119 203 1z"/><path d="m3071 5006l62 192h203l-164 119 63 192-164-119-164 119 63-192-164-119h203z"/><path d="m5858 4173l62 192h203l-165 119 63 192-163-119-164 119 63-192-164-119h202z"/><path d="m5501 3150l62 193 202-1-164 119 63 192-163-119-164 119 63-192-164-119 202 1z"/><path d="m7180 3842l62 193h203l-164 118 63 193-164-120-164 120 63-193-164-118h203z"/><path d="m6564 5500l38 119 125-1-101 74 39 119-101-74-101 74 39-119-102-74 125 1z"/><path d="m6989 6957l39 119h125l-101 73 38 119-101-73-101 73 39-119-101-73h125z"/><path d="m4777 8394l38 119h125l-101 73 39 119-101-74-101 74 39-119-102-73h125z"/><path d="m6075 8894l38 119h125l-101 73 39 119-101-74-102 74 39-119-101-73h125z"/><path d="m2704 16131l38 119 126-1-102 74 39 119-101-74-101 74 39-119-102-74 126 1z"/><path d="m3809 16734l38 119h126l-102 74 39 118-101-73-101 73 39-118-102-74h125z"/><path d="m6277 16089l38 119h125l-101 73 39 119-101-74-101 74 38-119-101-73h125z"/><path d="m5145 16723l39 119h125l-102 73 39 119-101-74-101 74 39-119-102-73h126z"/><path d="m3641 14949l39 119h125l-102 73 39 119-101-74-101 74 39-119-101-73h125z"/><path d="m5097 12799l39 119h125l-102 73 39 119-101-74-101 74 39-119-101-73h125z"/><path d="m4335 13642l39 119h125l-102 73 39 119-101-74-101 74 39-119-102-73h126z"/><path d="m2995 10956l38 118h125l-101 74 39 118-101-73-101 73 39-118-102-74h125z"/><path d="m2992 14173l39 119h125l-101 73 38 119-101-74-101 74 39-119-101-73h125z"/></g></g><g font-family="&apos;StudioScriptCTT&apos;" font-size="1110.62" transform="matrix(1.02157 0 0 1-8016.15-2261.5)"><text x="10500" y="14850" fill="#fff" stroke="#fff" stroke-linejoin="round" stroke-linecap="round" stroke-width="400">Texto 01</text><text x="10500" y="14850" fill="#201e1e" stroke="#201e1e" stroke-width="25">Texto 01</text></g><g fill="#201e1e"><g font-family="&apos;Arial Black&apos;" font-weight="900" font-size="416.48"><text x="10500" y="14850" transform="matrix(1.02157 0 0 1-7448.31 1149.25)">NN 1</text><text x="10500" y="14850" transform="matrix(1.02157 0 0 1-7454.87 1550.75)">NN 2</text></g><text x="10500" y="14850" font-family="&apos;StudioScriptCTT&apos;" stroke="#201e1e" stroke-linejoin="round" stroke-linecap="round" stroke-width="50" font-size="666.38" transform="matrix(.74503 0 0 1-4718.16 2977.3)">00.00.0000</text></g><path d="m15152 19699c421 206 971 276 1437 264 352-10 722-66 1052-190 274-103 549-265 712-511 172-258 257-647 307-948 71-434 99-883 116-1322 13-359 18-718 21-1077 3-302 4-606 18-908 50-1113 138-2221 239-3331 89-986 186-1971 250-2959 23-349 41-697 54-1046 25-681-85-1353-360-1981-250-570-622-1073-1090-1491-663-591-1492-988-2365-1181-589-130-1211-119-1698 272-770 620-893 1942-883 2847 4 368 30 737 73 1103 39 329 91 657 158 981 219 1061 666 2051 941 3096 147 557 204 1151 228 1724 27 640 14 1284-6 1924-18 590-43 1180-50 1770-6 530 0 1068 57 1595 61 560 244 1100 788 1367z" fill="#fff"/><g stroke="#201e1e"><g fill="none" stroke-width="75"><path d="m13965 3861l62 193h203l-164 118 63 193-164-120-163 120 63-193-165-118h203z"/><path d="m17497 5298l62 193h203l-165 118 63 193-163-120-164 120 63-193-164-118h202z"/><path d="m16795 3487l62 192h203l-165 118 63 193-163-119-164 119 63-193-164-118h202z"/><path d="m18837 6506l62 193 203-1-164 119 63 192-164-119-164 119 63-192-164-119 203 1z"/><path d="m18555 8577l62 192h203l-165 119 63 192-163-119-164 119 63-192-164-119h202z"/></g><path fill="#201e1e" stroke-width="7.62" d="m16178 3944l225 698 734-2-595 430 229 697-593-432-593 432 228-697-595-430 734 2z"/><path fill="none" stroke-width="150" d="m12967 5727l1277 3949 4231-8-3428 2477 1315 4018-1998-1456"/><g fill="#201e1e" stroke-width="7.62"><path d="m16486 18053l226 697 733-1-594 430 228 697-593-433-593 433 228-697-594-430 734 1z"/><path d="m14837 3133l63 192h202l-164 118 63 193-164-119-163 119 63-193-164-118h202z"/><path d="m15008 3736l62 193h203l-165 118 63 193-163-120-164 120 63-193-164-118h202z"/><path d="m18050 4424l62 192h203l-164 119 63 192-164-119-164 119 63-192-164-119h203z"/><path d="m18433 5569l62 193 203-1-165 119 63 192-163-119-164 119 63-192-164-119 202 1z"/><path d="m17965 6277l62 193 203-1-165 119 63 192-163-119-164 119 63-192-164-119 202 1z"/><path d="m17880 7693l62 193 202-1-164 119 63 192-163-119-164 119 63-192-164-119 202 1z"/><path d="m18816 7651l62 193h203l-165 118 63 193-163-120-164 120 63-193-164-118h202z"/><path d="m14928 8155l38 119 125-1-101 74 39 118-101-73-101 73 38-118-101-74 125 1z"/><path d="m14345 5762l38 119h125l-101 73 39 119-101-73-101 73 39-119-102-73h125z"/><path d="m16536 6949l38 119h126l-102 73 39 119-101-73-101 73 39-119-102-73h126z"/><path d="m15089 6679l39 119 125-1-101 74 38 118-101-73-101 73 39-118-101-74 125 1z"/><path d="m16387 8345l39 119 125-1-102 74 39 118-101-73-101 73 39-118-102-74 126 1z"/><path d="m17954 10975l39 119h125l-102 73 39 119-101-74-101 74 39-119-101-73h125z"/><path d="m16082 12537l38 119h126l-102 73 39 119-101-74-101 74 39-119-102-73h126z"/><path d="m16954 13412l39 119 125-1-102 74 39 119-101-74-101 74 39-119-101-74 125 1z"/><path d="m16763 14849l38 119 125-1-101 74 39 118-101-73-101 73 39-118-102-74 125 1z"/><path d="m18380 14640l38 119h125l-101 73 39 119-101-74-102 74 39-119-101-73h125z"/><path d="m18378 15786l38 119h126l-102 73 39 119-101-74-101 74 39-119-102-73h126z"/><path d="m17277 16755l39 119h125l-101 73 39 119-102-74-101 74 39-119-101-73h125z"/><path d="m15895 16755l38 119h125l-101 73 39 119-101-74-101 74 38-119-101-73h125z"/><path d="m14864 15964l39 119 125-1-102 74 39 118-101-73-101 73 39-118-102-74 126 1z"/></g></g><g font-family="&apos;StudioScriptCTT&apos;" font-size="1110.62" transform="matrix(1.02091-.03595.03672.99935 3492.75-1841.53)"><text x="10500" y="14850" fill="#fff" stroke="#fff" stroke-linejoin="round" stroke-linecap="round" stroke-width="400">Texto 02</text><text x="10500" y="14850" fill="#201e1e" stroke="#201e1e" stroke-width="25">Texto 02</text></g><g fill="#201e1e"><g font-family="&apos;Arial Black&apos;" font-weight="900" font-size="416.48"><text x="10500" y="14850" transform="matrix(1.02157 0 0 1 5930.41 1105.15)">NN 1</text><text x="10500" y="14850" transform="matrix(1.02157 0 0 1 5923.85 1506.65)">NN 2</text></g><text x="10500" y="14850" font-family="&apos;StudioScriptCTT&apos;" stroke="#201e1e" stroke-linejoin="round" stroke-linecap="round" stroke-width="50" font-size="666.38" transform="matrix(.74503 0 0 1 7363.57 2933.2)">00.00.0000</text></g></svg>