<svg xmlns="http://www.w3.org/2000/svg" width="744.09" height="1052.36" viewBox="0 0 21000 29700" shape-rendering="geometricPrecision" image-rendering="optimizeQuality" fill-rule="evenodd" text-rendering="geometricPrecision" clip-rule="evenodd"><text x="10081" y="24148" fill="#201e1e" font-family="&apos;Arial Black&apos;" stroke="#201e1e" font-weight="900" stroke-width="7.62" font-size="705.56">40</text><g fill="none" stroke="#373435" stroke-width="80"><circle cx="10533" cy="1008" r="460"/><path d="m10533 198v1621"/><path d="m9723 1008h1621"/><circle cx="10533" cy="25519" r="460"/><path d="m10533 24708v1621"/><path d="m9723 25519h1621"/></g><rect x="9843" y="22866" width="1347" height="637" rx="318" fill="#fff" stroke="#fff" stroke-width="20"/><g fill="#373435" font-family="&apos;Arial&apos;" font-size="423.33"><text x="1259" y="27480">DESC 1</text><text x="1278" y="27866">DESC 2</text><text x="1300" y="28255">DESC 3</text></g><path d="m6607 26323c767-399 1023-1204 1110-2040 81-786 90-1591 81-2381-10-881-44-1761-70-2641-27-956-47-1916-8-2872 34-856 115-1742 321-2574 387-1559 1016-3038 1325-4621 94-484 168-974 222-1465 60-546 97-1096 103-1645 14-1351-160-3325-1244-4249-685-584-1561-600-2390-406-1229 287-2395 880-3329 1762-659 623-1183 1374-1535 2225-387 937-542 1941-507 2957 18 521 44 1041 76 1562 91 1474 227 2945 352 4416 141 1656 265 3310 336 4971 19 450 21 904 25 1354 5 536 11 1071 30 1607 23 655 62 1325 163 1972 70 449 190 1030 432 1415 230 366 617 608 1002 762 464 185 985 270 1481 284 656 19 1431-86 2024-394z" fill="#fff"/><g stroke="#201e1e"><g fill="none"><g stroke-width="75"><path d="m1751 9028l88 288 285-1-231 177 89 287-231-178-230 178 89-287-232-177 286 1z"/><path d="m1617 7536l87 288 285-1-231 177 89 287-230-178-231 178 89-287-231-177 285 1z"/><path d="m2635 6184l88 288 285-1-231 177 88 287-230-178-231 178 89-287-231-177 285 1z"/><path d="m4000 4298l87 288 286-1-231 177 88 287-230-178-231 178 89-287-231-177 285 1z"/><path d="m5220 2418l87 288 286-1-231 177 88 287-230-178-231 178 89-287-231-177 285 1z"/><path d="m7294 1905l88 288 285-1-231 177 89 287-231-178-230 178 89-287-232-177 286 1z"/></g><path stroke-width="150" d="m7715 18774l-2898 2238 1852-5995-4826-3698 5957 12 1830-6003"/></g><g fill="#201e1e" stroke-width="7.62"><path d="m5318 5885l317 1041 1033-2-837 641 321 1040-834-645-835 645 321-1040-837-641 1033 2z"/><path d="m4674 23833l317 1041 1033-2-837 641 321 1040-834-645-835 645 321-1040-837-641 1033 2z"/><path d="m1377 10178l88 287h285l-231 177 88 287-230-178-230 178 88-287-231-177h285z"/><path d="m2964 9152l88 288 285-1-231 177 89 287-231-178-230 178 89-287-232-177 286 1z"/><path d="m2485 8220l88 287h285l-231 177 89 287-231-178-230 178 88-287-231-177h285z"/><path d="m1699 6231l88 288 285-1-231 177 89 287-231-178-230 178 89-287-232-177 286 1z"/><path d="m4000 3024l87 288 286-1-231 177 88 287-230-178-231 178 89-287-231-177 285 1z"/><path d="m2652 4329l88 288 285-1-231 177 89 287-231-178-230 178 88-287-231-177 285 1z"/><path d="m6576 3086l87 288 285-1-231 177 89 287-230-178-231 178 89-287-231-177 285 1z"/><path d="m6073 1560l87 287h286l-231 177 88 287-230-178-231 178 89-287-231-177h285z"/><path d="m8437 2593l88 288 285-1-231 177 88 287-230-178-230 178 88-287-231-177 285 1z"/><path d="m7570 5067l54 177h176l-143 109 55 178-142-110-143 110 55-178-143-109h177z"/><path d="m8169 7242l54 178 176-1-143 110 55 177-142-110-143 110 55-177-143-110 177 1z"/><path d="m5054 9387l54 177h176l-143 109 55 178-142-110-142 110 54-178-142-109h176z"/><path d="m6881 10132l54 178h176l-143 109 55 177-142-110-143 110 55-177-142-109h176z"/><path d="m2136 20932l54 178h176l-143 109 55 177-142-110-143 110 55-177-143-109h176z"/><path d="m3691 21834l54 177h177l-143 109 55 177-143-109-142 109 55-177-143-109h176z"/><path d="m7165 20870l54 178 177-1-143 110 55 177-143-110-142 110 55-177-143-110 176 1z"/><path d="m5572 21817l54 177h177l-143 109 55 178-143-110-142 110 55-178-143-109h176z"/><path d="m3455 19169l54 177h176l-142 109 54 178-142-110-142 110 54-178-142-109h176z"/><path d="m5505 15960l54 177h176l-143 109 55 178-142-110-143 110 55-178-142-109h176z"/><path d="m4432 17218l54 178 176-1-143 110 55 177-142-110-142 110 54-177-142-110 176 1z"/><path d="m2545 13209l54 178 176-1-142 110 54 177-142-110-142 110 54-177-142-110 176 1z"/><path d="m2542 18011l54 177h176l-143 109 55 178-142-110-143 110 55-178-143-109h176z"/></g></g><g font-family="&apos;StudioScriptCTT&apos;" font-size="1657.5" transform="matrix(.96368 0 0 1-7974.09 796.06)"><text x="10500" y="14850" fill="#fff" stroke="#fff" stroke-linejoin="round" stroke-linecap="round" stroke-width="400">Texto 01</text><text x="10500" y="14850" fill="#201e1e" stroke="#201e1e" stroke-width="25">Texto 01</text></g><g fill="#201e1e"><g font-family="&apos;Arial Black&apos;" font-weight="900" font-size="621.56"><text x="10500" y="14850" transform="matrix(.96368 0 0 1-7174.67 5886.29)">NN 1</text><text x="10500" y="14850" transform="matrix(.96368 0 0 1-7183.9 6485.49)">NN 2</text></g><text x="10500" y="14850" font-family="&apos;StudioScriptCTT&apos;" stroke="#201e1e" stroke-linejoin="round" stroke-linecap="round" stroke-width="50" font-size="994.51" transform="matrix(.70281 0 0 1-4679.84 8614.48)">00.00.0000</text></g><path d="m14375 26323c593 308 1367 413 2024 394 496-14 1016-99 1481-284 385-154 772-396 1002-762 242-385 362-966 432-1415 100-648 140-1317 163-1972 19-535 25-1071 30-1607 4-451 6-904 25-1354 71-1661 195-3315 336-4971 125-1471 262-2942 352-4416 32-520 58-1041 76-1562 35-1016-120-2020-507-2957-351-851-876-1602-1535-2225-934-883-2100-1475-3329-1762-829-194-1705-178-2390 406-1084 925-1257 2898-1244 4249 6 549 42 1100 103 1645 54 491 128 981 222 1465 309 1583 937 3062 1325 4621 207 831 287 1717 321 2574 38 956 19 1916-8 2872-25 880-60 1761-70 2641-9 790 0 1595 81 2381 86 836 343 1641 1110 2040z" fill="#fff"/><g stroke="#201e1e"><g fill="none" stroke-width="75"><path d="m12704 2688l87 287 286-1-231 177 88 288-230-178-231 178 89-288-231-177 285 1z"/><path d="m17676 4832l87 287h285l-231 177 89 287-230-178-231 178 89-287-231-177h285z"/><path d="m16687 2128l88 288 285-1-231 177 89 287-231-178-230 178 88-287-231-177 286 1z"/><path d="m19562 6634l88 288 285-1-231 177 89 288-231-178-230 178 89-288-232-177 286 1z"/><path d="m19165 9725l88 287h285l-231 177 88 287-230-178-230 178 88-287-231-177h285z"/></g><path fill="#201e1e" stroke-width="7.62" d="m15819 2811l317 1041 1033-2-837 641 321 1040-834-644-835 644 321-1040-837-641 1033 2z"/><path fill="none" stroke-width="150" d="m11299 5471l1797 5894 5957-12-4826 3698 1851 5995-2813-2173"/><g fill="#201e1e" stroke-width="7.62"><path d="m16253 23867l317 1041 1033-2-837 641 321 1040-834-645-835 645 321-1040-837-641 1033 2z"/><path d="m13932 1600l87 287h286l-231 177 88 287-230-178-231 178 89-287-231-177h285z"/><path d="m14171 2501l88 288 285-1-231 177 89 287-231-178-230 178 89-287-231-177 285 1z"/><path d="m18454 3527l88 287h285l-231 177 89 287-231-178-230 178 88-287-231-177h286z"/><path d="m18993 5236l88 287h285l-231 177 89 287-231-178-230 178 89-287-232-177h286z"/><path d="m18334 6293l88 287h285l-231 177 89 287-231-178-230 178 89-287-231-177h285z"/><path d="m18215 8406l87 287h285l-231 177 89 287-230-178-231 178 89-287-231-177h285z"/><path d="m19532 8344l88 287h285l-231 177 89 287-231-178-230 178 89-287-232-177h286z"/><path d="m14059 9095l54 177h176l-143 109 55 178-142-110-143 110 55-178-143-109h177z"/><path d="m13238 5525l54 177h176l-142 109 54 177-142-110-142 110 55-177-143-109h176z"/><path d="m16323 7296l54 178 176-1-142 110 54 177-142-110-142 110 54-177-142-110 176 1z"/><path d="m14286 6892l55 178 176-1-143 110 55 177-143-110-142 110 55-177-143-110 176 1z"/><path d="m16113 9378l54 178 177-1-143 110 55 177-143-110-142 110 55-177-143-110 176 1z"/><path d="m18319 13304l55 178 176-1-143 110 55 177-143-110-142 110 55-177-143-110 176 1z"/><path d="m15684 15635l54 178 176-1-143 110 55 177-142-110-142 110 54-177-142-110 176 1z"/><path d="m16912 16940l54 178h176l-143 109 55 177-142-110-142 110 54-177-142-109h176z"/><path d="m16642 19085l54 177h177l-143 109 55 178-143-110-142 110 55-178-143-109h176z"/><path d="m18918 18774l55 178 176-1-143 110 55 177-143-110-142 110 55-177-143-110 176 1z"/><path d="m18916 20484l54 178 176-1-142 110 55 177-143-110-142 110 55-177-143-110 176 1z"/><path d="m17367 21930l54 177h176l-143 109 55 178-142-110-142 110 54-178-142-109h176z"/><path d="m15420 21930l54 177h176l-142 109 54 178-142-110-142 110 55-178-143-109h176z"/><path d="m13969 20749l54 177h177l-143 109 55 178-143-110-142 110 55-178-143-109h176z"/></g></g><g font-family="&apos;StudioScriptCTT&apos;" font-size="1657.5" transform="matrix(.96305-.03595.03464.99935 3192.85 1298.07)"><text x="10500" y="14850" fill="#fff" stroke="#fff" stroke-linejoin="round" stroke-linecap="round" stroke-width="400">Texto 02</text><text x="10500" y="14850" fill="#201e1e" stroke="#201e1e" stroke-width="25">Texto 02</text></g><g fill="#201e1e"><g font-family="&apos;Arial Black&apos;" font-weight="900" font-size="621.56"><text x="10500" y="14850" transform="matrix(.96368 0 0 1 6374.58 5886.29)">NN 1</text><text x="10500" y="14850" transform="matrix(.96368 0 0 1 6365.35 6485.49)">NN 2</text></g><text x="10500" y="14850" font-family="&apos;StudioScriptCTT&apos;" stroke="#201e1e" stroke-linejoin="round" stroke-linecap="round" stroke-width="50" font-size="994.51" transform="matrix(.70281 0 0 1 7043.46 8614.48)">00.00.0000</text></g></svg>