<svg xmlns="http://www.w3.org/2000/svg" width="744.09" height="1052.36" viewBox="0 0 21000 29700" shape-rendering="geometricPrecision" image-rendering="optimizeQuality" fill-rule="evenodd" text-rendering="geometricPrecision" clip-rule="evenodd" xmlns:xlink="http://www.w3.org/1999/xlink"><text x="10081" y="23989" fill="#201e1e" font-family="&apos;Arial Black&apos;" stroke="#201e1e" font-weight="900" stroke-width="7.62" font-size="705.56">44</text><g fill="none" stroke="#373435" stroke-width="80"><circle cx="10533" cy="849" r="460"/><path d="m10533 39v1621"/><path d="m9723 849h1621"/><circle cx="10533" cy="25360" r="460"/><path d="m10533 24550v1621"/><path d="m9723 25360h1621"/></g><rect x="9843" y="22866" width="1347" height="637" rx="318" fill="#fff" stroke="#fff" stroke-width="20" id="0"/><use xlink:href="#0"/><g fill="#373435" font-family="&apos;Arial&apos;" font-size="423.33"><text x="905" y="28515">DESC 1</text><text x="924" y="28901">DESC 2</text><text x="946" y="29290">DESC 3</text></g><path d="m6567 27714c793-434 1059-1310 1148-2220 84-856 93-1731 84-2591-10-958-46-1916-72-2874-28-1040-48-2085-8-3125 36-932 119-1896 332-2801 401-1697 1052-3306 1371-5028 98-527 174-1060 230-1594 63-594 101-1193 106-1791 14-1470-166-3618-1287-4624-709-636-1616-653-2474-442-1272 313-2479 957-3445 1918-682 678-1225 1495-1588 2421-400 1020-561 2112-524 3218 19 567 46 1133 79 1699 94 1604 235 3205 365 4806 146 1802 274 3602 348 5409 20 490 22 983 26 1474 5 583 11 1166 31 1748 24 713 65 1442 169 2146 72 489 197 1121 447 1540 238 398 638 662 1037 829 480 202 1019 294 1532 309 679 21 1481-93 2094-428z" fill="#fff"/><g stroke="#201e1e"><g fill="none"><g stroke-width="75"><path d="m1542 8894l91 312h295l-239 192 92 313-239-194-239 194 92-313-239-192h295z"/><path d="m1403 7270l90 313 295-1-239 193 92 313-238-194-239 194 92-313-239-193 295 1z"/><path d="m2456 5799l91 313 295-1-239 193 92 312-239-193-238 193 92-312-239-193 295 1z"/><path d="m3869 3747l91 312h295l-239 192 92 313-239-194-238 194 91-313-239-192h295z"/><path d="m5132 1701l90 313 296-1-240 193 92 312-238-194-239 194 92-312-239-193 295 1z"/><path d="m7279 1142l90 313h296l-240 192 92 313-238-194-239 194 92-313-239-192h295z"/></g><path stroke-width="150" d="m7714 19499l-2999 2436 1916-6525-4994-4024 6165 13 1894-6532"/></g><g fill="#201e1e" stroke-width="7.62"><path d="m5233 5473l328 1133 1070-2-867 698 333 1131-864-701-864 701 332-1131-866-698 1069 2z"/><path d="m4566 25004l329 1133 1069-2-866 698 332 1132-864-702-863 702 332-1132-866-698 1069 2z"/><path d="m1155 10145l90 313 295-1-239 193 92 312-238-193-239 193 92-312-239-193 295 1z"/><path d="m2797 9029l91 313 295-1-239 193 92 312-239-194-238 194 92-312-240-193 296 1z"/><path d="m2301 8014l91 313 295-1-239 193 92 313-239-194-238 194 92-313-239-193 295 1z"/><path d="m1488 5850l91 313 295-1-239 193 92 312-239-193-238 193 91-312-239-193 295 1z"/><path d="m3869 2360l91 313 295-1-239 193 92 312-239-193-238 193 91-312-239-193 295 1z"/><path d="m2474 3780l91 313h295l-239 192 92 313-239-194-238 194 92-313-240-192h296z"/><path d="m6535 2428l91 312h295l-239 192 91 313-238-194-239 194 92-313-239-192h295z"/><path d="m6015 767l90 312h295l-239 193 92 312-238-194-239 194 92-312-239-193h295z"/><path d="m8461 1891l91 313 295-1-239 193 92 312-239-193-238 193 92-312-240-193 296 1z"/><path d="m7564 4583l56 193h182l-148 119 57 193-147-120-148 120 57-193-148-119h183z"/><path d="m8184 6950l56 193h182l-148 119 57 193-147-120-148 120 57-193-148-119h183z"/><path d="m4960 9284l56 193h182l-147 119 56 193-147-120-147 120 56-193-147-119h182z"/><path d="m6851 10095l56 194 182-1-148 119 57 193-147-119-147 119 56-193-148-119 183 1z"/><path d="m1940 21848l56 193h182l-148 119 57 193-147-120-148 120 57-193-148-119h183z"/><path d="m3550 22829l56 193 182-1-148 119 57 193-147-119-148 119 57-193-148-119 183 1z"/><path d="m7145 21780l56 193h183l-148 119 57 193-148-120-147 120 57-193-148-119h182z"/><path d="m5497 22810l56 194 182-1-148 119 57 193-147-119-148 119 57-193-148-119 182 1z"/><path d="m3305 19929l56 193 183-1-148 119 57 193-148-119-147 119 57-193-148-119 182 1z"/><path d="m5427 16437l56 193h182l-148 119 57 193-147-120-148 120 57-193-148-119h183z"/><path d="m4316 17806l56 193h183l-148 119 57 193-148-120-147 120 57-193-148-119h182z"/><path d="m2363 13443l56 194 183-1-148 119 57 193-148-120-147 120 57-193-148-119 182 1z"/><path d="m2360 18669l56 193h182l-148 119 57 193-147-120-147 120 56-193-148-119h183z"/></g></g><g font-family="&apos;StudioScriptCTT&apos;" font-size="1803.72" transform="matrix(.91652 0 0 1-7674.56 1245.34)"><text x="10500" y="14850" fill="#fff" stroke="#fff" stroke-linejoin="round" stroke-linecap="round" stroke-width="400">Texto 01</text><text x="10500" y="14850" fill="#201e1e" stroke="#201e1e" stroke-width="25">Texto 01</text></g><g fill="#201e1e"><g font-family="&apos;Arial Black&apos;" font-weight="900" font-size="676.39"><text x="10500" y="14850" transform="matrix(.91652 0 0 1-6847.19 6784.58)">NN 1</text><text x="10500" y="14850" transform="matrix(.91652 0 0 1-6856.75 7436.63)">NN 2</text></g><text x="10500" y="14850" font-family="&apos;StudioScriptCTT&apos;" stroke="#201e1e" stroke-linejoin="round" stroke-linecap="round" stroke-width="50" font-size="1082.24" transform="matrix(.66842 0 0 1-4494.94 9753.43)">00.00.0000</text></g><path d="m14404 27714c613 335 1415 449 2094 428 513-16 1052-108 1532-309 399-167 799-431 1037-829 250-419 375-1052 447-1540 104-705 145-1434 169-2146 20-583 26-1166 31-1748 4-491 6-984 26-1474 74-1808 202-3607 348-5409 130-1601 271-3202 365-4806 33-566 60-1132 79-1699 37-1106-124-2198-524-3218-364-926-906-1743-1588-2421-966-960-2174-1605-3445-1918-858-211-1765-194-2473 442-1121 1006-1301 3154-1287 4624 6 598 44 1197 106 1791 56 534 132 1067 230 1594 319 1722 970 3332 1371 5028 214 905 297 1869 332 2801 40 1040 20 2085-8 3125-26 958-62 1916-72 2874-9 860 0 1735 84 2591 89 910 355 1786 1148 2220z" fill="#fff"/><g stroke="#201e1e"><g fill="none" stroke-width="75"><path d="m12674 1994l91 313 295-1-239 193 92 312-239-194-238 194 92-312-239-193 295 1z"/><path d="m17820 4327l91 313 295-1-239 193 91 313-238-194-239 194 92-313-239-193 295 1z"/><path d="m16797 1385l91 313 295-1-239 193 92 312-239-193-238 193 91-312-239-193 295 1z"/><path d="m19773 6289l90 313 296-1-240 193 92 312-238-194-239 194 92-312-239-193 295 1z"/><path d="m19362 9652l90 312h295l-239 192 92 313-238-194-239 194 92-313-239-192h295z"/></g><path fill="#201e1e" stroke-width="7.62" d="m15898 2128l328 1133 1070-2-866 698 332 1131-864-701-864 701 333-1131-867-698 1070 2z"/><path fill="none" stroke-width="150" d="m11221 5023l1859 6413 6165-13-4995 4024 1917 6525-2912-2365"/><g fill="#201e1e" stroke-width="7.62"><path d="m16347 25041l329 1133 1069-2-866 698 332 1131-864-701-863 701 332-1131-866-698 1069 2z"/><path d="m13945 810l91 313 295-1-239 193 92 312-239-193-238 193 92-312-240-193 296 1z"/><path d="m14193 1791l91 313 295-1-239 193 92 312-239-194-238 194 92-312-240-193 296 1z"/><path d="m18626 2907l91 313 295-1-239 193 91 312-238-194-239 194 92-312-239-193 295 1z"/><path d="m19184 4767l90 313 296-1-239 193 91 312-238-193-239 193 92-312-239-193 295 1z"/><path d="m18502 5917l91 313 295-1-239 193 91 312-238-194-239 194 92-312-239-193 295 1z"/><path d="m18378 8217l91 312h295l-239 193 91 312-238-194-239 194 92-312-239-193h295z"/><path d="m19742 8149l90 313 296-1-240 193 92 312-238-193-239 193 92-312-239-193 295 1z"/><path d="m14077 8966l56 193h182l-148 119 57 193-147-120-148 120 57-193-148-119h183z"/><path d="m13227 5081l56 193h183l-148 119 57 193-148-120-147 120 57-193-148-119h182z"/><path d="m16420 7009l56 193h182l-147 119 56 193-147-120-147 120 56-193-147-119h182z"/><path d="m14312 6569l56 193h183l-148 119 57 193-148-120-147 120 57-193-148-119h182z"/><path d="m16203 9275l56 193 182-1-147 119 56 193-147-119-147 119 56-193-147-119 182 1z"/><path d="m18486 13547l56 193h183l-148 119 57 193-148-120-147 120 57-193-148-119h182z"/><path d="m15759 16083l56 194 182-1-148 119 57 193-147-119-148 119 57-193-148-119 183 1z"/><path d="m17030 17504l56 193h182l-148 119 57 193-147-120-148 120 57-193-148-119h183z"/><path d="m16751 19837l56 194 182-1-148 119 57 193-147-119-148 119 57-193-148-119 183 1z"/><path d="m19106 19499l56 193h183l-148 119 57 193-148-120-147 120 57-193-148-119h182z"/><path d="m19104 21360l56 194 182-1-147 119 56 193-147-120-147 120 56-193-147-119 182 1z"/><path d="m17501 22933l56 193h182l-148 119 57 193-147-120-148 120 57-193-148-119h182z"/><path d="m15486 22933l56 193h182l-148 119 57 193-147-120-148 120 57-193-148-119h183z"/><path d="m13984 21648l56 193h182l-147 119 56 193-147-120-147 120 56-193-147-119h182z"/></g></g><g font-family="&apos;StudioScriptCTT&apos;" font-size="1803.72" transform="matrix(.91593-.03595.03295.99935 3722.43 1757.48)"><text x="10500" y="14850" fill="#fff" stroke="#fff" stroke-linejoin="round" stroke-linecap="round" stroke-width="400">Texto 02</text><text x="10500" y="14850" fill="#201e1e" stroke="#201e1e" stroke-width="25">Texto 02</text></g><g fill="#201e1e"><g font-family="&apos;Arial Black&apos;" font-weight="900" font-size="676.39"><text x="10500" y="14850" transform="matrix(.91652 0 0 1 6972.8 6784.58)">NN 1</text><text x="10500" y="14850" transform="matrix(.91652 0 0 1 6963.24 7436.63)">NN 2</text></g><text x="10500" y="14850" font-family="&apos;StudioScriptCTT&apos;" stroke="#201e1e" stroke-linejoin="round" stroke-linecap="round" stroke-width="50" font-size="1082.24" transform="matrix(.66841 0 0 1 7435.26 9753.43)">00.00.0000</text></g></svg>