<svg xmlns="http://www.w3.org/2000/svg" viewBox="0 0 500 707" shape-rendering="geometricPrecision" image-rendering="optimizeQuality" fill-rule="evenodd" clip-rule="evenodd"><defs><clipPath id="0"><path d="m166 607c16-8 22-24 24-41 1-16 1-32 1-48 0-18-1-36-1-54-1-19-1-39 0-58 0-17 2-35 6-52 9-32 22-62 28-94 2-10 4-20 5-30 1-11 2-22 2-33 0-27-3-67-26-86-14-12-33-12-50-8-26 6-51 18-70 35-14 13-25 28-33 46-8 19-11 39-10 59 0 11 1 22 1 32 2 30 5 60 8 90 3 33 5 67 7 100 0 10 0 19 0 28 0 11 1 22 1 32 0 14 1 27 3 40 2 10 4 21 9 29 5 8 13 12 22 16 9 3 20 5 31 5 13 1 30-1 42-8"/></clipPath><clipPath id="1"><path d="m336 607c13 7 29 9 43 8 10 0 21-2 31-5 8-4 16-8 21-16 5-8 8-19 9-29 2-13 3-26 4-40 0-10 0-21 0-32 0-9 0-18 1-28 1-33 4-67 7-100 2-30 5-60 7-90 1-10 1-21 2-32 1-20-3-40-11-59-7-18-18-33-32-46-20-17-44-29-70-35-18-4-36-4-50 8-23 19-27 59-27 86 1 11 1 22 3 33 1 10 2 20 4 30 7 32 20 62 28 94 4 17 6 35 7 52 1 19 0 39 0 58-1 18-2 36-2 54 0 16 0 32 2 48 2 17 7 33 23 41"/></clipPath></defs><g clip-path="url(#0)"><g><g stroke="#201e1e"><text x="250" y="354" fill="#201e1e" font-family="&apos;StudioScriptCTT&apos;" stroke-linejoin="round" stroke-linecap="round" stroke-width="1.19" font-size="20.16" transform="matrix(.7293 0 0 1-98.26 195.81)">00.00.0000</text><path fill="none" stroke-width="3.571" d="m190 454l-61 46 39-122-102-75h125l39-121"/><g fill="#201e1e" stroke-width=".181"><path d="m139 193l7 21h22l-18 13 7 21-18-13-17 13 6-21-17-13h21z"/><path d="m126 557l6 21h22l-18 13 7 21-17-13-18 13 7-21-18-13h22z"/><path d="m56 280l2 6h6l-5 3 2 6-5-3-5 3 2-6-5-3h6z"/><path d="m90 259l1 6h6l-4 4 1 6-4-4-5 4 2-6-5-4h6z"/><path d="m80 240l1 6h6l-4 4 1 6-4-4-5 4 2-6-5-4h6z"/><path d="m63 200l2 6h6l-5 3 2 6-5-3-5 3 2-6-5-3h6z"/><path d="m111 135l2 6h6l-5 3 2 6-5-3-4 3 1-6-4-3h6z"/><path d="m83 162l2 5h6l-5 4 2 6-5-4-5 4 2-6-5-4h6z"/><path d="m166 136l1 6h6l-4 4 1 6-4-4-5 4 2-6-5-4h6z"/><path d="m155 105l2 6h6l-5 4 2 6-5-4-5 4 2-6-5-4h6z"/><path d="m205 126l2 6h6l-5 4 2 6-5-4-5 4 2-6-5-4h6z"/><path d="m187 176l1 4h3l-3 2 1 4-2-2-3 2 1-4-3-2h3z"/><path d="m199 221l1 3h4l-3 2 1 4-3-2-3 2 1-4-3-2h4z"/><path d="m134 264l1 4h3l-3 2 2 3-3-2-3 2 1-3-3-2h3z"/><path d="m172 279l1 4h4l-3 2 1 4-3-3-3 3 1-4-3-2h4z"/><path d="m72 498l1 4h4l-3 2 1 3-3-2-3 2 1-3-3-2h4z"/><path d="m105 516l1 4h4l-3 2 1 4-3-3-3 3 1-4-3-2h4z"/><path d="m178 497l1 3h4l-3 3 1 3-3-2-3 2 1-3-3-3h4z"/><path d="m144 516l2 4h3l-3 2 1 3-3-2-3 2 2-3-3-2h3z"/><path d="m100 462l1 4h4l-3 2 1 4-3-3-3 3 1-4-3-2h4z"/><path d="m143 397l1 4h4l-3 2 1 4-3-3-3 3 1-4-3-2h4z"/><path d="m121 423l1 3h3l-3 3 1 3-2-2-3 2 1-3-3-3h3z"/><path d="m81 342l1 3h4l-3 2 1 4-3-2-3 2 1-4-3-2h4z"/><path d="m81 439l1 3h4l-3 3 1 3-3-2-3 2 1-3-3-3h4z"/></g></g><g font-family="&apos;StudioScriptCTT&apos;" font-size="33.598"><text x="72" y="391" fill="#fff" stroke="#fff" stroke-linejoin="round" stroke-linecap="round" stroke-width="9.524">Texto 01</text><text x="72" y="391" fill="#201e1e" stroke="#201e1e" stroke-width=".595">Texto 01</text></g><g fill="none" stroke="#201e1e" stroke-width="1.786"><path d="m64 257l2 6h6l-5 3 2 6-5-4-5 4 2-6-5-3h6z"/><path d="m61 227l2 5h6l-5 4 2 6-5-4-5 4 2-6-5-4h6z"/><path d="m83 199l2 6h6l-5 4 2 5-5-3-5 3 2-5-5-4h6z"/><path d="m111 161l2 6h6l-5 3 2 6-5-4-4 4 1-6-4-3h6z"/><path d="m137 123l2 6h6l-5 3 2 6-5-4-5 4 2-6-5-3h6z"/><path d="m181 112l2 6h6l-5 4 2 6-5-4-5 4 2-6-5-4h6z"/></g></g></g><g clip-path="url(#1)"><g><g stroke="#201e1e"><g fill="#201e1e"><text x="250" y="354" font-family="&apos;StudioScriptCTT&apos;" stroke-linejoin="round" stroke-linecap="round" stroke-width="1.19" font-size="20.16" transform="matrix(.7293 0 0 1 154.99 195.81)">00.00.0000</text><path stroke-width=".181" d="m367 131l6 21h22l-18 13 7 21-17-13-18 13 7-21-18-13h22z"/></g><path fill="none" stroke-width="3.571" d="m272 185l37 119h126l-102 75 39 121-59-44"/><g fill="#201e1e" stroke-width=".181"><path d="m376 558l6 21h22l-17 13 6 21-17-13-18 13 7-21-18-13h22z"/><path d="m327 106l2 6h6l-5 4 2 5-5-3-5 3 2-5-5-4h6z"/><path d="m332 124l2 6h6l-5 4 2 6-5-4-5 4 2-6-5-4h6z"/><path d="m422 145l2 6h6l-5 4 2 5-5-3-5 3 2-5-5-4h6z"/><path d="m433 180l2 6h6l-5 3 2 6-5-3-4 3 1-6-4-3h6z"/><path d="m420 201l1 6h6l-4 4 1 6-4-4-5 4 2-6-5-4h6z"/><path d="m417 244l2 6h6l-5 4 2 5-5-3-5 3 2-5-5-4h6z"/><path d="m445 243l2 6h6l-5 3 2 6-5-3-5 3 2-6-5-3h6z"/><path d="m330 258l1 4h3l-3 2 2 4-3-3-3 3 1-4-3-2h4z"/><path d="m312 186l2 3h3l-3 3 1 3-3-2-3 2 2-3-3-3h3z"/><path d="m377 222l1 3h4l-3 2 1 4-3-2-3 2 1-4-3-2h4z"/><path d="m334 213l2 4h3l-3 2 1 4-3-2-3 2 2-4-3-2h3z"/><path d="m373 264l1 3h4l-3 3 1 3-3-2-3 2 1-3-3-3h4z"/><path d="m419 343l1 4h4l-3 2 1 4-3-2-3 2 1-4-3-2h4z"/><path d="m364 391l1 3h4l-3 2 1 4-3-2-3 2 1-4-3-2h4z"/><path d="m390 417l1 4h4l-3 2 1 4-3-3-3 3 1-4-3-2h4z"/><path d="m384 461l1 3h4l-3 2 1 4-3-2-3 2 1-4-3-2h4z"/><path d="m432 454l1 4h4l-3 2 1 4-3-3-3 3 1-4-3-2h4z"/><path d="m432 489l1 4h4l-3 2 1 3-3-2-3 2 1-3-3-2h4z"/><path d="m399 518l1 4h4l-3 2 1 4-3-3-3 3 1-4-3-2h4z"/><path d="m358 518l1 4h4l-3 2 1 4-3-3-3 3 1-4-3-2h4z"/><path d="m328 494l1 4h4l-3 2 1 4-3-2-3 2 1-4-3-2h4z"/></g></g><g font-family="&apos;StudioScriptCTT&apos;" font-size="33.598" transform="matrix(.99935-.03595.03595.99935 62.07 48.877)"><text x="250" y="354" fill="#fff" stroke="#fff" stroke-linejoin="round" stroke-linecap="round" stroke-width="9.524">Texto 02</text><text x="250" y="354" fill="#201e1e" stroke="#201e1e" stroke-width=".595">Texto 02</text></g><g fill="none" stroke="#201e1e" stroke-width="1.786"><path d="m301 128l2 6h6l-5 4 2 5-5-3-5 3 2-5-5-4h6z"/><path d="m406 172l2 6h6l-5 3 2 6-5-4-5 4 2-6-5-3h6z"/><path d="m385 117l2 6h6l-5 3 2 6-5-3-5 3 2-6-5-3h6z"/><path d="m445 208l2 6h6l-5 4 2 5-5-3-4 3 1-5-4-4h6z"/><path d="m437 271l2 6h6l-5 3 2 6-5-4-5 4 2-6-5-3h6z"/></g></g></g></svg>