<svg xmlns="http://www.w3.org/2000/svg" width="744" height="1052.4" viewBox="0 0 20997 29696" shape-rendering="geometricPrecision" image-rendering="optimizeQuality" fill-rule="evenodd" clip-rule="evenodd"><defs><clipPath id="0"><path d="m15459 17298c826 375 2396 303 2873-391 475-691 371-2689 416-3650 113-2409 398-4235 472-6177 82-2157-1484-3618-3371-3985-2592-503-2455 2795-2127 4459 193 916 526 1714 770 2610 449 1653 50 4219 206 5938 80 595 330 982 761 1196"/></clipPath><clipPath id="1"><path d="m5636 17263c-826 375-2397 303-2873-391-475-692-371-2689-416-3651-113-2408-399-4234-473-6176-82-2157 1484-3618 3371-3985 2593-504 2456 2795 2128 4459-194 916-527 1714-770 2610-450 1652-50 4218-206 5938-80 595-330 982-761 1196"/></clipPath></defs><text x="10045" y="19019" fill="#201e1e" font-family="&apos;Arial Black&apos;" stroke="#201e1e" font-weight="900" stroke-width="7.619" font-size="705.47">24</text><g fill="none" stroke-width="79.99"><g stroke="#322f30"><circle cx="10532" cy="1326" r="460"/><path d="m10532 515v1621"/><path d="m9722 1326h1620"/></g><g stroke="#373435"><circle cx="10497" cy="20683" r="460"/><path d="m10497 19873v1621"/><path d="m9686 20683h1621"/></g></g><rect x="9842" y="17474" width="1347" height="637" rx="318" fill="#fff" stroke="#fff" stroke-width="19.997"/><g fill="#201e1e" font-family="&apos;Arial&apos;" font-size="423.28"><text x="300" y="28458">DESC 1</text><text x="281" y="28922">DESC 2</text><text x="278" y="29418">DESC 3</text></g><g clip-path="url(#0)"><g><g><g/><g/></g><text x="10499" y="14848" fill="#201e1e" font-family="&apos;Vani&apos;" stroke="#201e1e" stroke-linejoin="round" stroke-linecap="round" stroke-width="49.994" font-size="2933.06" transform="matrix(0-.66965.71328 0 6618.58 22994)">Texto 02</text><g fill="#373435" font-family="&apos;Arial Black&apos;" font-weight="900" font-size="529.1"><text x="10499" y="14848" transform="matrix(.71328 0 0 .66965 6871.17-1512.34)">NN 2</text><text x="10499" y="14848" transform="matrix(.71328 0 0 .66965 6871.17-1809.97)">NN 1</text></g></g></g><g clip-path="url(#1)"><g><g><g fill="#ff0a4b" stroke="#ff0a4b" stroke-width="7.619"><path d="m14854 21085l54-21276c372-403 402-402 512-473-19 7287-38 14574-56 21861 0 10 4 16-2 15-166-23-212-30-508-127z"/><path d="m13786 19935l45-17845c142-718 421-1349 514-1445l-52 20090c-388-424-386-532-507-800z"/><path d="m15889 21266l56-22252c4-1 417-206 511-203l-58 22475c-119-1-117 30-509-20z"/><path d="m16913 21209l57-22525c-3 1 258-53 511-33l-57 22281c-132 106-122 133-511 277z"/><path d="m17869 21548l57-22524c-4 0 257-54 510-34l-57 22282c-132 105-122 133-510 276z"/><path d="m18824 21888l57-22525c-4 0 258-54 511-33l-58 22281c-132 106-122 133-510 277z"/><path d="m19779 22227l57-22524c-4 0 258-54 511-34l-57 22281c-132 106-122 134-511 277z"/></g><g><path d="m21259 22510l-57-22524c4 0-258-54-511-34l58 22282c131 105 121 133 510 276z" fill="#ff0a4b" stroke="#ff0a4b" stroke-width="7.619"/></g></g><g fill="#201e1e"><path d="m6278 6989l19-99 24 10 40 29 39 27 38 23 37 20 37 18 35 14 34 12 34 9 32 6 31 3 31 1 29-1 29-4 28-7 28-9 28-12 27-15 27-17 26-20 27-23 26-26 26-29 26-32 25-35 25-39 24-41 24-44 23-48 22-50 23-54 21-56 21-60 102 30-22 62-22 59-23 56-24 54-25 50-26 48-26 44-27 42-28 40-29 36-30 34-31 30-32 28-33 25-34 22-35 18-36 16-37 12-38 9-39 6-39 2-40-1-40-5-41-8-41-11-41-13-41-18-42-19-42-23-42-26-43-29-44-32 25 11m-25-11c-23-17-26-49-7-70 18-22 52-25 75-8l-68 78m-188-620l101 33-14 20-30 27-27 26-25 25-22 25-20 23-18 23-15 21-13 21-10 20-8 18-6 17-4 16-2 15-1 14 2 12 2 12 5 12 6 11 8 11 9 12 13 11 14 11 17 12 20 11 22 10 25 11 28 10 30 9 32 9 35 9 38 8 40 7-19 99-43-8-41-9-38-9-37-10-34-11-32-12-30-12-28-14-26-14-23-16-22-17-19-18-18-19-14-21-12-22-9-23-5-24-3-25 1-25 3-25 7-25 8-25 12-25 13-26 16-26 18-26 21-26 22-27 25-27 28-27 29-28 32-29-14 20m14-20c21-19 55-18 75 2 20 20 19 52-2 71l-73-73m1267 132l-102-30 15 52-56-47-54-44-53-42-51-38-50-35-49-32-48-30-45-26-45-24-43-20-41-18-40-15-38-11-37-9-35-7-33-3-32-1-30 2-29 4-27 6-26 9-25 11-25 14-23 17-23 19-22 22-21 25-20 29-20 31-18 34-18 38-16 40-101-33 18-45 20-43 21-39 23-37 25-34 26-31 28-28 30-26 31-22 33-19 35-16 37-12 37-9 39-5 40-3 41 2 41 4 43 8 43 10 44 14 46 17 46 19 47 23 48 25 49 28 50 32 52 34 52 37 54 39 54 43 56 46 57 48 15 52m-15-52c22 19 23 51 3 71-20 21-54 22-75 3l72-74" fill-rule="nonzero"/><path d="m7295 6455c-224 663-560 825-1008 484-454-77-511-265-172-565 180-471 573-444 1180 81"/></g><g><path d="m6219 6871l89-55-58 76-28-7-26-7-25-8-23-9-22-8-21-9-20-10-18-10-17-11-16-11-14-13-13-13-12-14-10-15-8-15-6-17-4-17-1-18 1-18 3-17 4-17 7-17 9-16 9-16 12-16 13-16 14-16 15-15 17-16 18-16 20-16 21-16 66 79-19 14-17 14-15 14-14 13-12 12-11 12-9 11-8 11-6 10-4 9-4 8-2 7-1 7v5 6l1 5 2 5 3 5 4 6 5 6 6 6 9 7 9 7 12 8 13 7 15 7 17 8 18 7 21 7 21 7 24 7 24 6-58 76m58-76c29 8 46 35 38 62-7 27-37 43-65 35l27-97m-25-119l70-75 11 64-5 7-4 6-3 7-4 6-3 7-3 6-3 6-2 6-3 5-2 6-1 5-2 6-1 5-1 5-1 4-1 5v4 5 4 4 4l1 4v3l1 4 1 4 1 3 1 4 2 3 1 3 2 4 2 3 2 3-89 55-5-7-4-7-4-7-4-7-3-8-3-8-2-8-2-7-2-8-1-8-1-9-1-8v-8-8-8l1-9 1-8 1-8 2-9 2-8 3-8 2-9 3-8 4-8 3-9 4-8 4-8 4-9 5-8 5-9 5-8 5-9 11 64m-11-64c16-23 49-31 74-16 25 14 33 45 18 69l-92-53m-46-81l-66-79 85 50 1-3v-3-2-1 1l1 2 1 2 2 2 1 3 3 3 2 3 3 3 3 4 3 4 4 4 4 4 4 5 5 5 5 4 5 6 6 5 6 5 6 6 6 6 7 5 7 6 8 7 7 6 8 7-70 75-8-7-9-6-8-7-7-7-8-6-7-6-7-7-6-6-7-6-6-6-6-6-6-5-5-6-5-5-5-6-5-5-4-6-4-5-4-5-4-5-4-6-3-5-3-6-3-5-3-6-2-6-2-6-1-6-1-7-1-8v-8l2-8 85 50m-85-50c6-27 34-44 63-38 29 5 48 32 41 59l-104-21" fill="#201e1e" fill-rule="nonzero"/><path d="m6162 6492c-220 162-186 280 102 352-38-55-30-123 23-205-89-73-131-122-125-147" fill="#fff"/></g><g fill="#201e1e"><g fill-rule="nonzero"><path d="m4818 5450l75 72-6 6-6 7-6 7-5 8-5 8-4 8-4 9-4 9-3 9-3 10-2 10-1 10-2 10v11 11 11l1 11 1 12 2 11 3 12 3 11 3 12 4 12 5 11 5 12 5 11 6 12 7 11 7 11 8 11 8 10 9 11-83 63-11-13-11-14-10-14-9-15-9-14-8-15-7-15-7-15-6-15-5-16-5-15-4-16-3-15-3-16-2-15-1-16v-15-16l1-15 1-15 3-15 3-15 4-14 5-14 5-15 6-13 8-14 7-13 9-12 10-12 10-12 11-11m456 69l-83 64-9-10-10-9-9-9-10-9-10-8-10-7-10-7-10-6-11-6-10-5-11-5-10-4-10-4-11-3-10-2-10-2-10-2-10-1h-10-9-10l-9 1-9 2-8 2-9 2-8 3-8 3-8 4-7 5-8 5-7 5-7 6-75-72 12-10 13-10 13-8 13-8 14-7 14-6 15-5 14-4 15-4 16-2 15-2 15-1h16l15 1 16 2 15 2 16 3 15 4 15 4 15 5 15 6 15 7 15 7 14 8 14 9 14 9 14 10 13 11 13 11 13 12 12 12 12 13m17 461l-75-72 7-6 6-7 6-7 5-8 5-8 4-8 4-9 4-9 3-9 2-10 2-10 2-10 1-11 1-10v-11-11l-1-12-2-11-2-11-2-12-3-12-3-11-4-12-5-11-5-12-6-11-6-12-6-11-8-11-7-11-8-10-9-11 83-64 11 14 11 14 10 14 9 14 9 15 8 15 7 15 7 15 6 15 5 16 5 15 3 16 4 15 2 16 2 15 1 16 1 15v15l-1 16-2 15-2 15-3 14-4 15-5 14-6 14-6 14-7 14-8 13-9 12-9 12-11 12-11 11m-455-70l83-63 9 10 9 9 10 9 9 9 10 8 10 7 11 7 10 6 10 6 11 5 10 5 11 4 10 3 10 4 11 2 10 2 10 2 10 1h9 10 9l9-1 9-2 9-2 9-2 8-3 8-4 8-3 7-5 7-5 7-5 7-6 75 72-12 10-12 10-13 8-14 8-13 7-15 6-14 5-15 4-15 4-15 2-15 2-16 1h-15l-16-1-15-2-16-2-15-3-15-4-16-4-15-6-15-6-14-6-15-7-14-8-15-9-13-9-14-10-13-11-13-11-13-12-12-13-12-13"/><path d="m4506 5313l77 70-4 5-4 4-3 4-3 5-3 5-2 5-2 6-2 6-1 6-1 6-1 7v7 8l1 7 1 8 2 8 1 8 3 8 3 9 3 8 3 9 5 8 4 9 5 9 6 8 6 9 6 9 7 8 7 9 8 8 8 8 8 8-74 72-11-10-11-11-10-11-10-11-9-12-8-11-8-12-8-12-7-12-6-12-6-12-5-13-5-12-4-12-4-13-3-12-2-13-2-12-1-13v-12-13l2-12 1-12 3-12 3-12 4-12 5-11 6-12 7-10 7-11 9-10 9-9m402 50l-74 72-9-8-9-7-9-7-9-7-10-6-9-6-9-5-10-5-9-4-10-4-9-4-10-3-9-3-9-2-9-2-9-2-9-1-8-1h-8-8-8l-7 1-7 1-7 2-6 1-6 2-6 3-5 2-5 3-5 3-4 4-4 3-77-70 10-9 10-8 11-7 11-7 12-5 12-5 13-4 12-4 13-3 13-2 13-1 14-1h13l13 1 14 1 13 2 14 2 13 3 13 4 14 4 13 4 13 5 13 6 14 6 13 7 12 7 13 8 12 8 13 9 12 9 12 9 11 11m64 374l-76-71 4-4 3-4 3-4 3-5 3-5 2-5 2-6 2-6 1-6 1-7 1-6v-7-8l-1-7-1-8-1-8-2-8-3-8-2-9-4-8-3-9-4-9-5-8-5-9-6-9-5-8-7-9-7-8-7-9-8-8-8-8-8-8 74-72 11 10 11 11 10 11 10 11 9 11 9 12 8 12 7 12 7 12 7 12 5 12 6 12 4 13 4 12 4 13 3 12 2 13 2 12 1 13v12 13l-1 12-2 12-3 12-3 12-4 12-5 11-6 11-7 11-7 11-9 10-9 9m-402-50l74-72 9 8 9 7 9 7 9 7 10 6 9 5 10 6 9 5 10 4 9 4 9 4 10 3 9 3 9 2 9 2 9 2 9 1h8l8 1h8l8-1h7l7-1 7-2 6-2 6-2 6-2 5-2 5-3 5-3 4-4 5-4 76 71-9 9-11 8-11 7-11 6-12 6-12 5-13 4-12 4-13 2-13 2-13 2h-13-14-13l-13-1-14-2-13-3-14-2-13-4-14-4-13-5-13-5-13-5-13-6-13-7-13-7-13-8-12-8-13-9-12-9-11-10-12-10"/><path d="m4170 5146l98 40-4 8-3 9-3 9-2 9-1 9-1 10-1 9v10l1 10 1 10 2 10 2 10 2 10 3 10 4 11 4 10 5 10 5 10 6 10 6 9 6 10 7 9 8 10 8 9 8 8 9 9 9 8 9 8 10 7 10 8 11 6 11 7-54 87-15-9-14-9-14-10-14-10-12-11-13-11-11-11-12-12-10-12-10-12-10-13-9-13-8-13-7-14-7-13-7-14-6-14-5-15-4-14-4-15-3-14-2-15-2-15-1-14v-15l1-15 2-15 2-14 3-15 5-14 5-14 6-14m429-97l-54 87-12-6-11-5-11-5-11-4-11-4-12-3-11-3-10-2-11-1-11-2h-10-10-10l-10 1-10 1-9 2-9 2-9 3-9 2-8 4-8 4-7 4-8 4-6 5-7 5-6 6-6 6-6 6-5 7-5 7-4 8-4 8-98-40 6-14 8-13 8-12 9-12 10-11 10-11 11-10 12-9 12-8 13-8 12-7 14-6 14-6 14-5 14-4 15-3 15-3 15-2 15-1 15-1h16l15 1 16 2 16 2 15 3 16 4 16 4 15 6 16 5 15 7 16 7 15 8m176 419l-98-40 4-8 3-9 2-9 2-9 2-9 1-10v-9-10-10l-1-10-2-10-2-10-3-10-3-10-3-11-5-10-4-10-5-10-6-10-6-9-7-10-7-9-7-10-8-9-8-8-9-9-9-8-10-8-10-7-10-8-10-6-11-7 54-87 15 9 14 9 14 10 13 10 13 11 12 11 12 11 11 12 11 12 10 12 9 13 9 13 8 13 8 14 7 13 7 14 5 14 5 15 5 14 4 15 3 14 2 15 1 15 1 14v15 15l-2 15-2 14-4 15-4 14-5 14-6 14m-429 97l54-87 11 6 12 5 11 5 11 4 11 4 11 3 11 3 11 2 11 1 10 1 11 1h10 10l10-1 10-1 9-2 9-2 9-3 8-2 8-4 8-4 8-4 7-4 7-5 7-5 6-6 6-6 5-6 6-7 4-7 5-8 4-8 98 40-7 14-7 13-9 12-9 12-9 11-11 11-11 10-11 9-12 8-13 8-13 7-13 6-14 6-14 5-14 4-15 3-15 3-15 2-15 1-16 1h-15l-16-1-15-2-16-2-16-3-15-4-16-4-16-6-15-5-16-7-15-7-15-8"/><path d="m3836 5071l93 50-3 4-2 5-2 4-1 5-1 4-1 5v5 5 5l1 5 1 5 2 6 2 6 2 5 3 6 3 6 4 6 4 6 4 6 5 6 6 6 5 6 7 6 6 6 7 5 8 6 8 5 8 5 9 5 9 5 9 4 10 5-44 91-13-5-13-7-12-6-12-7-12-7-11-8-11-8-10-8-10-9-9-8-9-9-9-10-8-9-7-10-7-10-6-10-6-11-5-10-4-11-4-11-3-11-2-12-2-11-1-12v-11l1-12 2-11 2-12 4-11 4-12 5-11 6-10m384-70l-44 91-10-4-10-3-10-4-10-3-11-2-10-2-10-2-10-2-10-1h-9l-10-1h-10-9l-9 1-9 1-9 1-8 1-8 2-8 2-7 3-8 2-6 3-7 3-6 3-5 3-5 4-5 4-5 3-4 4-3 4-3 4-3 5-93-50 7-11 8-9 8-10 8-8 10-8 9-8 11-7 10-6 11-6 11-5 12-5 12-4 12-4 12-3 13-3 13-2 13-2 13-1 13-1h13 14 13l14 1 14 2 14 2 13 2 14 3 14 4 14 4 13 4 14 5 14 6m162 310l-93-50 3-4 2-5 2-4 1-5 1-4 1-5v-5-5l-1-5v-5l-1-5-2-6-2-6-2-5-3-6-3-6-4-6-4-6-4-6-5-6-6-6-5-6-7-6-6-5-7-6-8-6-8-5-8-5-9-5-9-5-9-4-10-5 44-91 13 5 13 7 12 6 12 7 12 7 11 8 11 8 10 8 10 9 9 8 9 9 9 10 8 9 7 10 7 10 6 10 6 11 5 10 4 11 4 11 3 11 2 12 2 11 1 12v11l-1 12-2 12-2 11-4 11-4 12-5 11-6 10m-384 70l44-91 10 4 10 3 10 4 10 3 11 2 10 2 10 2 10 2 10 1h9l10 1h10 9l9-1 9-1 9-1 8-1 8-2 8-2 7-2 8-3 6-3 7-3 6-3 5-3 5-4 5-3 5-4 4-4 3-4 3-4 3-5 93 50-7 11-8 9-8 10-8 8-10 8-9 8-11 7-10 6-11 6-12 5-11 5-12 4-12 4-12 3-13 3-13 2-13 2-13 1-13 1h-13-14-14l-13-1-14-2-14-2-13-2-14-3-14-4-14-4-13-4-14-5-14-6"/><path d="m3458 5170l106-16 2 8 2 9 3 8 3 9 4 8 4 8 4 7 5 8 6 8 6 7 6 7 7 7 7 6 7 7 8 6 8 6 8 5 9 6 9 4 9 5 9 4 10 4 10 4 10 3 10 2 10 3 11 1 10 2 11 1h11l10 1 11-1 7 100-16 1h-16l-15-1-16-1-15-2-15-3-15-3-14-4-15-5-14-5-14-5-13-6-13-7-13-7-13-7-12-8-11-9-12-9-11-9-10-10-10-10-9-11-9-11-8-11-8-12-7-12-7-13-6-12-5-14-4-13-4-14-3-14m269-293l6 101h-11l-10 2-10 1-10 3-10 2-9 3-9 3-8 4-9 4-8 4-7 5-7 4-7 6-7 5-6 6-6 5-5 6-5 7-5 6-4 7-4 7-3 7-3 7-2 7-2 8-2 8-1 7-1 8v8 9l1 8 1 9-106 16-2-14-1-14v-14-14l1-13 2-14 3-13 4-13 4-13 5-12 6-12 7-12 7-11 7-11 9-11 9-10 9-10 11-9 10-9 11-8 12-8 12-7 13-7 13-6 13-6 14-5 14-4 15-4 14-3 16-3 15-1 16-2m352 248l-105 16-2-9-2-8-3-8-3-9-4-8-4-8-5-8-5-7-5-8-6-7-6-7-7-7-7-7-8-6-7-6-8-6-9-6-8-5-9-5-9-4-10-4-9-4-10-4-10-3-11-3-10-2-10-2-11-1-10-1-11-1h-11l-11 1-6-101h15 16l16 1 15 1 15 2 15 3 15 3 15 4 14 4 14 5 14 6 14 6 13 7 13 7 12 7 12 8 12 9 11 9 11 9 10 10 10 10 10 11 9 11 8 11 8 12 7 12 6 12 6 13 5 13 5 14 3 14 3 14m-268 292l-7-100 11-1 11-1 10-2 10-2 9-2 9-3 9-3 9-4 8-4 8-4 8-5 7-5 7-5 6-5 6-6 6-6 6-6 4-6 5-6 4-7 4-7 3-7 3-7 3-7 2-8 2-8 1-7 1-9v-8-8l-1-8-1-9 105-16 2 14 1 14 1 14-1 13-1 14-2 13-3 14-3 13-5 12-5 13-6 12-6 12-7 11-8 11-8 11-9 10-10 9-10 10-11 9-11 8-12 8-12 7-12 7-13 6-14 5-13 5-15 5-14 4-15 3-15 2-15 2-16 1"/><path d="m3122 5160l105-20 1 6 2 6 2 6 3 6 3 5 4 6 4 6 5 6 5 6 6 5 5 6 7 5 7 5 7 5 7 5 8 5 8 4 9 5 9 4 9 3 10 4 9 3 10 3 10 3 11 2 10 2 11 1 10 1 11 1 11 1h11 11l6 100h-15-15-15l-15-2-15-1-14-2-15-3-14-3-13-3-14-4-14-5-13-5-13-5-12-6-12-6-12-6-12-7-11-7-11-8-10-8-10-8-10-9-9-9-8-10-8-10-7-10-7-11-6-11-6-11-4-12-4-12-3-12m265-250l5 100-11 1-10 1-11 2-10 1-10 3-9 2-9 3-9 3-8 3-8 3-7 4-8 4-6 4-7 4-5 5-6 4-5 5-5 5-4 5-3 4-4 5-3 5-2 5-2 6-2 5-1 5-1 5-1 5v6 5l1 6 1 6-105 20-3-13-1-12v-13-12l2-12 2-12 3-12 4-11 4-11 6-11 6-11 7-10 7-9 8-10 9-9 9-8 9-8 11-8 10-7 11-7 12-6 11-6 13-5 12-5 13-4 14-4 13-4 14-3 14-2 15-2 15-2 15-1m347 206l-105 20-2-6-1-6-3-6-3-6-3-5-4-6-4-6-4-6-5-6-6-5-6-6-6-5-7-5-7-5-8-5-8-5-8-5-8-4-9-4-9-4-10-3-10-3-9-3-11-3-10-2-10-2-11-1-11-1-11-1-11-1h-11-11l-5-100h15 15 15l15 2 14 1 15 2 14 3 14 3 14 3 14 4 13 5 13 5 13 5 13 6 12 6 12 6 11 7 12 7 10 8 11 8 10 8 9 9 9 9 9 10 8 10 7 10 7 11 6 11 5 11 5 12 4 12 3 12m-265 250l-6-100 11-1 11-1 10-2 10-1 10-3 10-2 9-3 8-3 9-3 8-3 7-4 7-4 7-4 6-4 6-5 6-4 5-5 4-5 4-5 4-5 3-4 3-5 3-5 2-6 2-5 1-5 1-5 1-5v-6-5l-1-6-1-6 105-20 2 13 2 12v13l-1 12-1 12-2 12-3 12-4 11-5 11-5 11-6 11-7 10-7 9-8 10-9 8-9 9-10 8-10 8-10 7-11 7-12 6-12 6-12 5-13 5-13 4-13 4-14 4-14 3-14 2-14 2-15 2-15 1"/><path d="m2865 5426l88-57 4 5 5 5 4 5 5 4 5 4 6 3 5 4 6 3 6 2 7 2 7 2 7 2 7 1 8 1 7 1h8 9l8-1 9-1 9-1 9-2 9-2 9-3 9-3 10-4 9-4 10-4 9-5 9-5 10-6 9-7 9-6 68 78-13 9-12 8-13 8-13 8-13 7-14 6-13 6-14 5-13 5-14 3-13 4-14 3-14 2-14 1-13 1-14 1-13-1-14-1-13-1-13-3-13-3-13-3-12-5-13-5-12-6-11-6-11-7-11-8-10-9-9-10-9-10-8-10m102-385l67 78-9 7-8 7-8 8-8 8-7 8-7 8-7 8-6 9-6 8-5 9-5 9-5 8-4 9-3 9-3 9-3 9-2 8-2 9-2 8-1 9v8 8 8l1 7 1 8 1 7 2 7 2 6 3 7 3 6 3 6 4 5-88 57-8-11-7-12-5-12-5-12-5-12-3-13-3-12-2-13-1-13v-13-13l1-13 1-13 2-13 3-13 4-12 4-13 4-13 5-13 6-12 6-12 7-13 8-12 7-12 9-11 9-12 9-11 10-11 11-10 11-11 12-10 12-9m399 11l-89 56-4-5-5-5-4-5-5-4-5-4-5-3-6-3-6-3-6-3-7-2-6-2-8-2-7-1-7-1h-8l-8-1-9 1h-8l-9 1-9 2-9 1-9 3-9 2-9 3-10 4-9 4-9 4-10 5-9 6-9 6-10 6-9 7-67-78 12-9 13-9 12-8 13-7 13-7 14-7 13-5 14-6 13-4 14-4 14-4 13-2 14-3 14-1 13-1h14 13l14 1 13 2 13 2 13 3 13 4 13 4 12 5 12 6 11 7 11 7 11 8 10 8 9 10 9 10 9 11m-102 385l-68-78 9-7 8-8 8-7 8-8 8-8 6-8 7-9 6-8 6-9 5-9 5-8 5-9 4-9 3-9 4-9 2-8 3-9 1-9 2-8 1-8v-9-8-7l-1-8-1-7-1-7-2-7-2-7-3-6-3-6-3-6-4-6 89-56 7 11 7 11 6 12 5 12 4 12 3 13 3 13 2 12 1 13v13 13l-1 13-1 13-2 13-3 13-3 13-4 13-5 12-5 13-6 12-6 13-7 12-7 12-8 12-9 11-9 12-9 11-10 11-11 11-11 10-11 10-12 10"/><path d="m2568 5573l87-58 5 5 4 5 5 5 6 5 6 4 6 5 6 4 7 3 7 4 7 3 8 3 8 3 8 2 8 2 9 2 8 2 9 1 9 1h10 9 9l10-1 9-1 10-1 9-2 10-2 9-2 9-3 10-3 9-4 9-4 9-4 51 89-13 6-13 5-13 6-14 4-13 4-14 4-14 3-13 2-14 2-14 1-13 1-14 1-14-1h-13l-14-1-13-2-13-2-13-3-13-3-13-4-12-4-12-5-12-5-12-6-11-6-11-7-11-8-10-8-10-8-9-9-9-10-8-10m111-333l51 89-9 4-8 5-8 5-7 5-7 6-6 5-7 6-5 6-6 6-5 6-4 6-4 6-4 7-3 6-3 6-2 6-2 7-2 6-1 6-1 6-1 6v6 6l1 6 1 6 1 6 2 6 2 5 3 6 3 6 3 5 4 6-87 58-7-11-7-11-6-11-5-11-5-11-3-12-3-12-2-12-2-12v-12-12l1-11 2-12 2-12 3-11 4-12 4-11 5-11 6-11 6-11 7-10 7-10 8-10 9-9 9-10 10-9 10-8 11-9 11-7 11-8 12-7 13-7m395 63l-88 58-4-5-5-5-5-5-5-5-6-5-6-4-6-4-7-4-7-3-7-3-8-3-8-3-8-3-8-2-9-1-9-2-8-1-10-1h-9-9-9l-10 1-9 1-10 1-9 2-10 2-9 2-9 3-10 3-9 3-9 4-9 5-51-89 13-6 13-6 13-5 14-4 13-4 14-4 13-3 14-2 14-2 14-2h13l14-1h13l14 1 13 1 14 2 13 2 13 3 13 3 12 4 13 4 12 5 12 5 12 6 11 6 11 7 11 8 10 8 10 8 9 9 9 10 8 10m-111 333l-51-89 8-4 9-5 7-5 8-6 7-5 6-6 6-5 6-6 6-6 4-6 5-6 4-6 4-7 3-6 3-6 2-7 2-6 2-6 1-6 1-6 1-7v-6l-1-6v-5l-1-6-2-6-1-6-3-6-2-5-3-6-4-5-4-6 88-58 7 10 7 11 6 11 5 12 5 11 3 12 3 12 2 12 1 11 1 12v12l-1 12-2 12-2 12-3 11-4 12-4 11-5 11-6 11-6 10-7 11-8 10-8 10-8 9-9 9-10 9-10 9-11 8-11 8-11 8-13 7-12 7"/><path d="m2588 5644l-54 86-6-3-6-2-6-2-7-2-6-2-7-1-7-1-7-1h-7-8-7l-8 1-8 1-8 2-8 1-8 3-8 2-8 3-8 3-8 4-8 4-8 4-8 5-8 5-7 5-7 6-8 6-7 6-6 7-7 7-6 7-6 7-87-58 9-11 9-10 9-10 10-10 10-9 10-8 11-9 10-7 12-8 11-6 12-7 11-6 12-5 12-5 13-4 12-4 12-4 13-3 13-2 12-2 13-1 13-1h13l12 1 13 1 13 2 12 2 13 3 12 4 12 4 12 6 12 6m43 341l-87-58 6-8 5-7 5-8 4-8 4-8 3-7 3-8 3-8 2-7 2-8 1-7 1-7 1-8v-7-6l-1-7v-7l-2-6-1-6-2-6-2-5-2-6-3-5-3-5-3-5-4-4-4-5-4-4-4-3-5-4-5-3-5-4 54-86 11 6 10 7 10 8 10 8 9 9 8 9 7 9 7 10 6 10 5 11 5 11 4 11 4 11 2 11 3 12 1 11 1 12v12 12l-1 12-2 12-2 12-3 12-3 11-4 12-5 12-5 12-6 11-6 12-7 11-8 11-8 11m-372 103l54-86 5 3 6 2 7 3 6 1 6 2 7 1 7 1 7 1h8 7 8l7-1 8-1 8-1 8-2 8-3 8-2 8-3 9-3 8-4 8-4 7-4 8-5 8-5 7-5 8-6 7-6 7-6 7-7 6-7 6-7 6-7 87 58-8 11-9 10-10 10-9 10-10 9-11 9-10 8-11 7-11 8-12 6-11 7-12 6-12 5-12 5-12 4-13 4-12 4-13 3-12 2-13 2-13 1-13 1h-12l-13-1-13-1-13-2-12-2-13-3-12-4-12-4-12-6-11-6m-44-341l87 58-6 8-5 8-4 7-5 8-4 8-3 7-3 8-3 8-2 7-2 8-1 7-1 7-1 8v7 6l1 7 1 7 1 6 1 6 2 6 2 5 3 6 2 5 3 5 4 5 3 4 4 5 4 4 4 3 5 4 5 4 6 3-54 86-12-6-10-7-10-8-9-8-9-9-8-9-8-9-7-10-6-10-5-11-5-11-4-11-3-11-3-11-2-12-2-11-1-12v-12-12l1-12 2-12 2-12 3-11 3-12 4-12 5-12 5-12 6-11 6-12 7-11 8-11 8-11"/><path d="m2190 6118l26 97-6 1-6 2-6 3-6 3-6 3-6 3-5 4-6 5-6 4-6 5-5 6-5 6-6 6-5 6-4 7-5 7-4 7-5 8-3 8-4 8-3 8-3 8-3 9-3 9-2 9-1 8-2 10-1 9v9l-1 9v9l1 10-107 6-1-13v-13l1-13 1-13 1-13 2-13 2-12 3-13 4-12 4-12 4-12 5-12 5-11 5-11 6-11 7-11 7-10 7-10 7-10 8-10 9-9 9-8 9-9 9-7 10-8 11-7 10-6 11-6 12-5 11-5 12-4 13-3m261 219l-107 7v-9l-2-9-1-9-2-8-2-8-3-7-2-8-3-7-4-6-3-7-4-6-4-5-4-6-4-5-4-4-5-4-4-4-5-4-4-3-5-2-5-3-5-2-4-2-5-1-5-1-5-1-6-1h-5-5l-6 1-6 1-6 1-26-97 12-3 13-2 12-1h13 12l13 1 12 2 12 3 11 4 11 4 11 4 11 6 10 6 10 6 9 7 9 8 9 8 8 9 8 9 7 9 7 10 6 10 6 11 5 11 5 11 4 11 4 12 3 12 3 13 2 12 2 13 1 13m-204 313l-26-97 6-2 6-2 6-2 6-3 6-3 6-4 6-4 5-4 6-5 6-5 5-5 6-6 5-6 5-6 5-7 4-7 5-7 4-8 4-8 3-8 4-8 3-9 2-8 3-9 2-9 2-9 1-9 1-9 1-9v-9-10l-1-9 107-7 1 14v13 13l-1 13-2 13-2 13-2 12-3 13-4 12-3 12-5 12-4 12-6 11-5 11-6 11-7 11-6 10-8 10-7 10-8 9-9 10-8 8-10 8-9 8-10 8-10 7-11 6-11 6-11 5-12 5-12 4-13 3m-261-220l107-6 1 9 1 9 1 8 2 9 2 8 3 7 3 8 3 7 3 6 3 7 4 6 4 5 4 5 4 5 4 5 5 4 4 4 5 3 5 3 4 3 5 3 5 2 5 2 5 1 5 1 5 1 5 1h5 6l5-1 6-1 6-1 26 97-12 3-13 2-12 1h-13-12l-12-2-12-2-12-2-12-4-11-4-11-5-11-5-10-6-10-7-9-7-9-7-9-8-8-9-7-9-8-9-6-10-7-10-5-11-6-11-4-11-5-11-4-12-3-12-3-13-2-13-2-12-1-14"/><path d="m2056 6464l62 82-5 3-4 4-4 3-4 4-3 4-4 4-3 4-4 5-3 5-3 5-2 6-3 6-2 5-2 6-2 7-2 6-1 6-2 7-1 6v7l-1 7v6 7l1 7v7l1 6 2 7 1 6 2 7 2 6 2 7 3 6-99 39-4-10-4-10-3-11-3-10-2-10-2-11-2-11-1-10-1-11v-10-11l1-10 1-11 2-10 1-10 3-11 2-10 3-10 4-9 4-10 4-9 5-10 5-9 5-9 6-8 7-9 7-8 7-7 8-8 8-7 8-7 9-6m281 93l-99 39-3-6-3-5-3-6-3-5-4-4-3-5-4-4-4-4-3-3-4-3-4-3-4-3-4-2-4-2-4-2-4-1-3-2-4-1h-4l-4-1h-4-4-3-4l-4 1-4 1-4 1-4 1-4 2-4 2-4 2-4 2-62-82 10-6 9-5 10-5 10-4 10-3 10-3 11-2 10-2 11-1h10 11l10 1 11 2 10 2 10 2 9 4 10 3 9 5 10 4 9 6 8 5 8 6 8 7 8 7 7 7 7 8 7 8 6 9 6 9 6 9 5 10 5 10m-78 303l-61-82 4-3 4-3 4-4 4-4 3-4 4-4 4-4 3-5 3-5 3-5 3-6 2-5 3-6 2-6 2-6 1-7 2-6 1-7 1-6v-7l1-6v-7-7l-1-7v-6l-1-7-1-7-2-6-2-7-2-6-2-7-3-6 99-39 4 10 4 10 3 11 3 10 3 11 2 10 1 11 1 10 1 11v11 10l-1 11-1 10-1 10-2 11-2 10-3 10-3 10-4 9-4 10-4 10-4 9-6 9-5 9-6 8-7 9-6 8-8 8-7 7-8 7-9 7-9 6m-281-93l99-39 3 6 3 6 3 5 3 5 4 5 3 4 4 4 4 4 4 3 3 3 4 3 4 3 4 2 4 2 4 2 4 1 4 2 4 1 3 1h4 4 4 4 4l3-1h4l4-1 4-2 4-1 4-2 4-3 5-2 61 82-9 6-10 5-10 5-10 4-10 3-10 3-11 2-10 2-11 1h-10-11l-10-1-10-2-10-2-10-2-10-3-10-4-9-4-9-5-9-5-9-6-8-6-8-7-8-7-7-7-7-8-7-8-6-9-6-9-6-9-5-10-5-10"/><path d="m2329 5899l-4 101h-4-5-4l-5 1-5 1-5 1-5 1-4 2-5 2-5 2-5 2-5 3-5 3-5 3-5 3-4 4-5 4-4 3-5 5-4 4-4 4-4 5-4 5-3 5-3 5-4 5-2 5-3 5-3 6-2 5-2 6-1 5-104-25 3-9 3-10 4-9 4-9 4-9 5-9 5-9 6-8 6-8 6-8 6-7 7-8 7-7 7-6 7-7 8-6 8-6 8-6 9-5 8-5 9-5 9-4 9-4 9-4 10-3 10-3 9-2 10-2 11-1 10-1 10-1h10m152 217l-104-25 2-5 1-6 1-5v-5-5-5-4-5l-1-4-1-4-1-4-1-3-1-3-2-4-1-3-2-3-2-2-2-3-2-2-2-2-3-2-2-2-3-2-2-1-3-2-3-1-3-1-4-1-3-1-4-1h-4-4l4-101 11 1 10 1 10 2 10 2 10 3 9 3 9 4 9 5 8 5 8 5 8 6 7 6 6 6 7 7 6 8 5 7 5 8 4 8 4 8 3 9 3 9 3 9 2 9 1 9 1 9 1 10v9l-1 10-1 10-1 9-2 10-3 10m-237 181l4-100h5l4-1h5l4-1 5-1 5-1 5-1 5-2 5-2 5-2 5-2 4-3 5-3 5-3 5-3 5-4 4-3 5-4 4-4 4-5 4-4 4-5 4-4 3-5 4-5 3-5 3-6 2-5 3-5 2-6 2-5 1-6 104 25-3 10-3 9-4 9-4 10-4 9-5 8-5 9-6 8-5 8-7 8-6 8-7 7-7 7-7 7-7 6-8 7-8 6-8 5-8 6-9 5-9 4-9 5-9 4-9 3-10 3-9 3-10 2-10 2-10 2-11 1h-10-10m-152-217l104 25-2 6-1 5v5l-1 5v5 5 5 4l1 4 1 4 1 4 1 3 2 4 1 3 2 3 1 3 2 3 2 2 2 2 3 2 2 2 2 2 3 2 3 2 2 1 3 1 3 1 4 1 3 1 4 1h4l4 1-4 100-11-1-10-1-10-2-10-2-9-3-10-3-9-4-8-4-9-5-8-6-7-5-7-7-7-6-6-7-6-7-6-8-5-8-4-8-4-8-3-9-3-8-3-9-2-9-1-10-1-9v-9-10-10l1-9 1-10 2-10 3-10"/><path d="m2243 6916l26 98-3 1-3 1-2 1-3 1-3 2-3 2-4 3-3 3-3 4-4 3-3 5-3 4-3 5-3 6-3 6-3 6-3 6-3 7-2 7-2 7-2 8-2 8-1 8-1 8-1 9-1 8v9 9 9 9l1 9 1 9-106 13-1-13-1-12-1-12v-12-12-12l1-11 2-12 1-11 2-11 3-12 2-10 3-11 4-10 4-11 4-10 4-9 5-10 6-9 5-9 6-9 7-8 7-8 7-8 8-7 8-7 9-6 9-6 9-5 11-4 10-4 11-3m227 219l-107 13-1-9-2-9-1-9-3-8-2-8-3-8-2-8-3-7-3-7-4-6-3-7-4-6-3-5-4-5-4-5-4-4-4-4-3-4-4-3-4-3-3-2-4-2-3-2-3-1-3-1-2-1-3-1h-2-3-2-3l-2 1-26-98 11-2 11-1 12-1 11 1 11 1 11 2 10 3 10 4 10 4 10 5 9 5 8 6 9 6 8 7 7 7 8 8 6 8 7 8 6 9 6 9 6 9 5 10 5 10 5 10 4 11 4 10 4 11 3 12 3 11 3 12 2 12 2 12m-145 294l-26-98 3-1 2-1 3-1 3-2 3-2 3-2 3-2 4-3 3-4 3-4 4-4 3-5 3-5 3-5 3-6 3-6 3-7 2-6 3-7 2-8 2-7 1-8 2-8 1-8 1-9v-8l1-9v-9-9l-1-9v-9l-2-9 107-13 1 12 1 12 1 13v12 12l-1 11-1 12-1 12-2 11-2 11-2 11-3 11-3 11-3 10-4 10-4 10-5 10-5 10-5 9-5 9-7 8-6 9-7 8-7 7-8 7-8 7-9 6-9 6-10 5-10 5-10 4-11 3m-227-219l106-13 2 9 1 9 2 8 2 9 3 8 2 8 3 7 3 8 3 6 3 7 4 6 3 6 4 6 4 5 4 5 3 4 4 4 4 4 4 3 3 3 4 2 3 2 3 2 4 1 2 1 3 1h3l2 1h2 3l2-1h3l26 98-12 2-11 1h-11-11l-11-1-11-3-11-3-10-3-9-4-10-5-9-6-9-5-8-7-8-7-8-7-7-7-7-8-6-9-7-8-6-9-5-10-5-9-5-10-5-10-4-11-4-11-4-11-3-11-3-12-3-11-2-12-2-12"/><path d="m2652 7443l-107-1v-4l-1-4v-4l-1-5-2-4-1-4-2-5-2-4-3-4-3-5-3-5-3-4-4-5-4-4-5-5-5-4-5-4-5-5-6-4-5-4-6-3-7-4-6-3-7-4-7-3-7-3-7-2-8-3-7-2-8-2-8-1-8-2 18-99 11 2 12 3 12 2 11 4 11 3 11 4 11 4 10 5 10 5 10 5 10 6 9 6 9 6 9 6 9 7 8 7 8 7 7 8 7 7 7 8 6 9 6 8 6 9 5 9 4 9 4 9 4 10 3 10 2 10 2 10 1 11v10m-256 158l17-99 8 1 8 1h7 8 7 7l6-1h7l6-1 6-2 6-1 5-2 5-2 5-2 5-2 4-2 4-3 4-2 3-3 3-2 3-3 3-3 2-2 2-3 2-3 1-3 1-3 1-3 1-4 1-3v-4l1-3 107 1-1 10-1 11-2 10-3 10-3 9-4 10-5 9-5 8-6 9-6 8-7 7-7 7-8 7-8 6-8 6-9 5-10 5-9 4-10 4-10 4-10 3-10 3-11 2-11 2-11 1-11 1-11 1h-12-11l-12-1-12-1-12-2m-235-219l107 2v4l1 4v4l1 4 1 4 2 4 2 5 2 4 3 5 2 4 4 5 3 5 4 4 4 5 5 4 4 4 5 5 6 4 5 4 6 4 6 4 7 3 6 4 7 3 7 3 7 3 7 3 7 2 8 2 8 2 7 2 8 1-17 99-12-2-11-2-12-3-11-3-11-4-11-4-11-4-10-5-11-5-10-5-9-5-10-6-9-6-9-7-8-7-8-7-8-7-7-7-8-8-6-8-7-8-6-9-5-8-5-9-5-10-4-9-3-10-3-10-2-10-2-10-1-10v-11m256-158l-18 99-7-1h-8l-8-1h-7-7-7l-7 1-6 1-6 1-6 1-6 2-5 1-6 2-5 2-4 2-4 3-4 2-4 2-3 3-3 3-3 2-3 3-2 3-2 3-2 3-1 3-2 3-1 3-1 3v3l-1 4v4l-107-2v-10l2-10 2-11 2-9 4-10 4-9 4-9 6-9 5-8 7-8 7-8 7-7 8-6 8-7 8-5 9-6 9-5 10-4 9-4 10-3 11-4 10-2 11-3 11-2 11-1 11-1 11-1h11l12 1h12l12 2 12 1"/><path d="m2643 7668l-2-100h3l4-1h3l3-1 4-1 4-1 3-1 4-2 3-2 4-1 4-3 3-2 4-2 3-3 4-3 3-3 3-3 3-4 3-3 3-4 3-4 3-4 2-4 2-4 3-4 2-4 1-5 2-4 1-5 1-5 1-4 1-5 106 13-1 9-2 8-2 9-3 9-3 8-3 9-4 8-4 8-4 7-4 8-5 7-5 7-6 7-6 7-6 6-6 6-6 6-7 6-7 6-7 5-8 4-7 5-8 4-8 4-9 3-8 4-9 2-9 3-9 1-9 2-10 1h-9m-161-187l106 12-1 5v5 4 4l1 4v4l1 4 1 4 1 3 1 4 1 3 2 3 1 3 2 2 1 3 2 2 2 2 2 2 2 2 2 2 2 2 3 1 2 1 2 1 3 1 2 1 3 1 2 1h3l3 1h3 4l2 100h-10-9l-9-2-9-1-9-2-9-3-9-3-8-3-8-4-8-5-7-5-7-5-7-5-6-6-6-6-6-7-5-6-5-7-4-8-4-7-4-8-3-8-3-8-2-8-2-8-2-9-1-8-1-9v-9-9l1-9 1-9m194-180l2 101h-3-3l-4 1-3 1h-4l-3 2-4 1-4 1-3 2-4 2-4 2-3 2-4 3-3 3-4 3-3 3-3 3-3 3-3 4-3 3-3 4-3 4-2 4-2 4-3 5-1 4-2 4-2 5-1 5-1 4-1 5-1 4-106-12 1-9 2-9 2-9 3-8 3-9 3-8 4-8 4-8 4-8 4-7 5-8 5-7 6-7 6-6 6-7 6-6 6-6 7-6 7-5 7-5 8-5 7-4 8-5 8-3 9-4 8-3 9-3 9-2 9-2 9-1 10-1 9-1m161 188l-106-13 1-5v-4-4-5l-1-4v-4l-1-4-1-3-1-4-1-3-1-3-2-3-1-3-2-3-1-2-2-3-2-2-2-2-2-2-2-1-2-2-3-1-2-2-2-1-3-1-2-1-3-1h-2l-3-1h-3-3-4l-2-101h10l9 1 9 1 9 2 9 2 9 2 9 3 8 4 8 4 8 4 7 5 7 5 7 6 6 6 6 6 6 6 5 7 5 7 4 7 4 8 4 7 3 8 3 8 2 9 2 8 2 8 1 9 1 9v9 9l-1 9-1 9"/><path d="m2519 7672l1-7 1-7 2-8 2-7 2-7 3-6 3-7 3-6 4-6 4-6 4-6 5-5 4-6 5-5 6-5 5-4 6-5 6-4 6-4 6-4 6-3 7-4 7-3 7-3 7-2 7-3 7-2 8-1 8-2 7-1 8-1 8-1 7 100-3 1h-4-3l-3 1-4 1-3 1-3 1-3 1-3 1-3 1-3 2-3 1-2 2-3 2-2 1-2 2-3 2-2 2-2 2-1 2-2 2-1 2-2 1-1 2-1 2-1 2v2l-1 2v1l-1 2v1 2l-107-6m162 134l-8 1h-8l-8-1h-7l-8-1-8-2-7-1-7-2-7-2-7-3-7-3-7-3-6-3-7-4-6-4-6-4-5-5-6-5-5-5-5-5-4-6-4-6-4-6-3-7-3-6-3-7-2-7-2-7-1-7-1-8v-7-8l107 6v2 1 1 2l1 1v1 1l1 1v1l1 1 1 1 1 1 1 2 1 1 1 1 1 1 2 1 1 1 2 1 2 1 2 1 2 1h2l3 1 2 1h3l2 1h3l3 1h3 4 3l7 99m165-140l-1 7-1 7-2 8-2 7-2 6-3 7-3 7-3 6-4 6-4 6-4 6-5 5-4 6-5 5-6 5-5 4-6 5-6 4-6 4-6 4-6 3-7 4-7 3-7 3-7 2-7 2-7 2-8 2-8 2-7 1-8 1h-8l-7-99 3-1h4l3-1h3l4-1 3-1 3-1 3-1 3-1 3-2 3-1 3-2 2-1 3-2 2-2 2-1 3-2 2-2 1-2 2-2 2-2 1-2 2-2 1-1 1-2v-2l1-2 1-2v-1l1-2v-2-1l107 6m-162-135h8 8 8l7 1 8 1 7 1 8 2 7 2 7 2 7 3 7 2 7 4 6 3 7 4 6 4 6 4 5 5 6 5 5 5 4 5 5 6 4 6 4 6 3 6 3 7 3 7 2 7 2 7 1 7 1 8v7 8l-107-6v-2-1-2-1l-1-1v-1-1l-1-1v-1l-1-1-1-2-1-1-1-1-1-1-1-1-1-1-2-1-1-1-2-1-2-1-2-1-2-1-2-1h-2l-3-1-3-1h-2-3l-3-1h-3-4-3l-7-100"/><path d="m3062 8129l-19-8-18-8-17-9-17-9-16-11-15-10-15-12-14-12-14-13-13-13-12-13-12-14-11-15-10-14-9-16-9-15-8-16-7-16-7-17-5-16-5-17-4-17-3-18-2-17-1-18-1-17 1-18 1-18 3-17 3-18 5-17 5-18 102 31-4 13-3 12-3 12-1 13-1 13-1 12v13l1 12 2 13 2 13 3 12 4 13 4 12 4 12 6 12 6 12 6 12 7 11 8 11 8 11 9 10 9 11 10 9 10 10 11 9 11 8 11 9 12 7 13 7 13 7 13 6 14 6-40 93m483-198l-6 17-7 17-9 16-9 15-10 15-10 14-11 14-12 13-13 12-13 11-14 11-15 10-15 9-15 9-16 8-16 7-17 6-17 6-18 4-17 4-18 3-18 2-19 2h-18-19l-19-1-18-2-19-3-19-4-19-5-19-6-18-6 40-93 14 4 13 5 14 3 14 3 14 2 13 2 14 1h13l14-1 13-1 13-1 12-2 13-3 12-3 12-4 11-4 12-5 11-6 11-6 10-6 10-7 9-7 9-8 9-9 8-9 8-9 7-9 7-11 6-10 6-11 5-12 5-12 101 31m-245-466l19 7 17 8 18 9 16 10 17 10 15 11 15 11 14 12 14 13 13 13 12 14 12 14 11 14 10 15 9 15 9 16 8 15 7 17 6 16 6 17 5 17 4 17 3 17 2 17 1 18 1 18-1 17-2 18-2 18-4 17-4 18-6 17-101-31 4-12 3-13 2-12 2-13 1-12 1-13-1-12-1-13-1-13-2-12-3-13-4-12-4-13-5-12-5-12-6-12-6-11-7-12-8-11-8-11-9-10-9-10-10-10-10-9-11-9-11-9-11-8-12-8-13-7-13-7-13-6-14-5 40-93m-484 197l7-17 7-16 8-16 10-16 9-15 11-14 11-13 12-13 13-12 13-12 14-11 15-10 15-9 15-9 16-7 16-7 17-7 17-5 17-5 18-4 18-3 18-2 19-1 18-1h19l19 2 18 2 19 3 19 4 19 4 19 6 18 7-40 93-14-5-14-4-13-4-14-3-14-2-13-1-14-1h-13-14l-13 1-13 1-12 3-13 2-12 4-12 3-12 5-11 5-11 5-11 6-10 7-10 6-9 8-10 8-8 8-9 9-7 9-8 10-6 10-7 11-5 11-5 11-5 12-102-31"/><path d="m2117 6668l38 94-5 2-5 3-6 2-4 3-5 4-5 4-4 4-5 4-4 5-4 5-4 5-4 6-3 6-4 6-3 7-3 7-2 7-2 7-2 8-2 7-1 8-1 8-1 8v9l-1 8 1 8v9l1 9 2 8 2 9 2 9 2 8-102 29-4-12-3-13-3-12-2-13-1-12-1-13-1-12 1-13v-12l1-12 2-12 2-12 2-12 3-11 4-11 4-12 4-10 5-11 6-11 6-10 6-9 7-10 7-9 8-9 9-8 9-8 9-8 10-7 10-6 11-6 11-5 12-5m301 177l-102 29-3-9-3-8-4-8-4-8-4-7-4-7-4-7-5-6-5-6-5-6-5-6-5-5-6-4-5-5-6-4-5-4-6-3-5-3-6-2-6-3-5-2-6-1-5-1-6-1-5-1h-6-5-6l-5 1-5 1-6 1-5 2-38-94 12-4 12-3 12-2 12-2 12-1h12l13 1 12 1 11 2 12 2 11 4 12 4 11 4 10 5 11 5 10 7 10 6 10 7 9 8 9 7 9 9 8 9 8 9 7 9 8 10 6 11 7 10 6 12 5 11 5 12 5 12 4 12m-134 326l-38-94 5-2 5-2 6-3 4-3 5-4 5-3 4-4 5-5 4-5 4-5 4-5 4-6 3-6 4-6 3-7 3-6 2-7 2-8 2-7 2-8 1-8 1-8 1-8v-8l1-9-1-8v-9l-1-8-2-9-2-9-2-8-2-9 102-29 4 13 3 12 3 13 2 12 1 13 1 12 1 13-1 12v12l-1 12-2 12-2 12-2 12-3 11-4 12-4 11-4 11-5 10-6 11-6 10-6 10-7 9-7 9-8 9-9 9-9 8-9 7-10 7-10 6-11 6-11 6-12 4m-301-177l102-29 3 9 3 8 4 8 4 8 4 7 4 7 4 7 5 7 5 6 5 5 5 6 5 5 6 5 5 4 6 4 5 4 6 3 5 3 6 3 6 2 5 2 6 2 5 1 6 1h5l6 1 5-1h6l5-1 5-1 6-1 5-2 38 94-12 4-12 3-12 3-12 1-12 1h-12-13l-12-2-11-2-12-2-11-3-12-4-11-5-10-5-11-5-10-6-10-7-10-7-9-7-9-8-9-9-8-8-8-10-7-9-8-10-6-10-7-11-6-11-5-12-5-11-5-12-4-13"/><path d="m3128 7285l228 948-104 22-228-947 104-23m-83 34l-16-99h4l5-1h4 4l5 1h4l4 1 4 1 4 1 4 1 4 2 4 1 4 2 3 2 3 2 4 2 3 2 3 2 3 3 3 3 3 2 2 3 3 3 2 3 2 4 2 3 2 3 2 4 2 4 1 3 1 4 1 4-104 23h1v1 1l1 1v1l1 1 1 1v1h1l1 1h1v1h1l1 1h1 1v1h1 1 1 1l1 1h1 1l2-1h1m-8-49l8 49-8-49m27 25l-104 22-1-4v-4l-1-4v-4-4-4l1-4v-4l1-4 1-4 1-4 2-4 1-3 2-4 2-3 2-4 3-3 2-3 3-4 3-3 3-2 3-3 4-3 4-2 3-2 4-2 4-2 4-2 5-1 4-1 4-1 5-1 16 99h1 1l1-1h2 1l1-1 1-1h1l1-1 1-1h1l1-1 1-1 1-1v-1l1-1 1-1v-1l1-1v-1l1-1v-1-1-1l1-1v-1-1-1l-1-1v-1m123 969l-227-947 104-22 227 947-104 22m84-34l16 99-4 1h-5-4-5-4l-4-1h-4l-5-1-4-1-4-2-3-1-4-2-4-1-3-2-4-2-3-2-3-3-3-2-3-3-3-2-3-3-3-3-2-3-2-3-3-3-2-4-2-3-1-4-2-3-1-4-2-4-1-4 104-22v-1-1l-1-1v-1l-1-1v-1h-1v-1h-1v-1h-1v-1h-1l-1-1h-1l-1-1h-1-1v-1h-1-1-1-2-1-1-1-1m8 50l-8-50 8 50m-27-25l104-22v-1 5l1 3 1 5v4 4 4l-1 4v4l-1 4-1 3-2 4-1 4-2 4-1 3-2 4-3 3-2 4-3 3-2 3-3 3-3 3-4 2-3 3-4 2-3 2-4 3-4 1-5 2-4 1-4 2-4 1h-5l-16-99h-1l-1 1h-2-1l-1 1h-1l-1 1-2 1-2 1-1 1v1h-1l-1 1-1 1v1l-1 1-1 1v1 1l-1 1v1 1l-1 1v1 1 1 1 1 1l1 1"/></g><path d="m3304 8244l-228-948c-4-17-22-29-39-26-18 2-29 18-25 36l227 947c4 17 22 29 40 27 18-3 29-19 25-36"/><g fill-rule="nonzero"><path d="m5185 5760v100l-5 1h-5l-5 1h-4l-4 1-3 2-3 1-3 1-3 2-3 2-2 2-2 2-3 2-2 2-2 3-2 3-1 3-2 3-1 4-1 4-2 4v4l-1 5v5 5 6 6l1 6 1 6 2 6 1 7 3 7-102 31-3-11-3-10-3-11-2-11-1-10-1-11-1-10 1-11v-10l2-10 2-10 2-9 3-10 4-9 4-9 5-9 5-9 6-8 7-8 7-7 8-7 8-6 9-6 9-5 10-5 9-4 11-3 10-3 11-2 11-2 11-1h12m273 206l-101 31-3-7-3-7-3-6-3-7-4-7-4-6-5-7-4-6-5-6-5-6-6-6-5-6-6-6-6-5-5-5-7-5-6-4-6-5-6-4-7-4-6-3-7-3-6-3-7-3-6-2-6-2-6-2-6-1-6-1-6-1h-6l-5-1v-100h11l11 1 12 2 11 2 11 2 11 3 10 3 11 4 10 4 11 5 10 5 10 6 9 5 10 6 9 7 9 7 9 7 9 7 8 8 8 7 8 9 8 8 7 9 7 9 7 9 6 9 6 10 6 10 5 10 5 10 4 11 4 11m-152 237v-101h5 5l4-1 4-1 4-1 4-1 3-1 3-2 3-1 2-2 3-2 2-2 2-2 2-3 2-2 2-3 2-3 1-3 2-4 1-4 1-4 1-5 1-4v-5-5-6l-1-6v-6l-2-6-1-6-2-7-2-7 101-31 4 10 3 11 3 11 1 11 2 10 1 11v10 10l-1 11-1 10-2 10-3 9-3 10-3 9-5 9-4 9-6 9-6 8-6 7-8 8-7 7-9 6-8 6-9 5-10 5-10 4-10 3-11 3-11 2-11 2-11 1h-11m-274-206l102-31 2 7 3 7 4 6 3 7 4 7 4 6 4 7 5 6 5 6 5 6 5 6 6 6 5 5 6 6 6 5 6 5 6 4 7 5 6 4 6 4 7 3 6 3 7 3 6 3 6 2 7 2 6 2 6 1 6 1 6 1h5 6v101h-12l-11-1-11-2-11-2-11-2-11-3-11-3-10-4-11-5-10-4-10-5-10-6-10-5-9-6-10-7-9-7-9-7-8-7-9-8-8-8-8-8-7-8-7-9-7-9-7-9-7-10-6-9-5-10-6-10-4-11-5-10-4-11"/><path d="m5422 5984v100l-9 1h-8l-9 2-8 1-8 2-8 3-8 3-8 3-7 4-8 5-7 4-8 6-7 5-6 6-7 7-6 6-6 8-6 7-6 8-5 8-5 9-4 9-4 9-4 9-4 10-3 10-2 10-2 11-2 11-1 11-1 11v11h-107v-16l1-15 2-15 2-15 3-15 4-14 4-14 5-14 5-13 6-14 7-12 7-13 8-12 8-12 8-11 10-11 9-10 10-10 11-10 11-8 12-9 12-8 12-7 13-6 13-6 13-5 14-5 14-3 15-3 15-2 15-2h15m284 310h-107l-1-11v-11l-2-11-1-11-2-11-3-10-3-10-3-10-4-9-4-9-5-9-5-9-5-8-6-8-5-7-6-8-7-6-6-7-7-6-7-5-7-6-8-4-7-5-8-4-8-3-7-3-8-3-9-2-8-1-8-2h-9l-8-1v-100h15l15 2 14 2 15 3 14 3 14 5 13 5 14 6 12 6 13 7 12 8 11 9 11 8 11 10 10 10 10 10 9 11 9 11 8 12 7 12 8 13 6 12 6 14 6 13 4 14 5 14 3 14 3 15 3 15 1 15 1 15 1 16m-284 310v-101h8l9-1 8-1 8-1 9-3 8-2 7-3 8-4 8-4 7-4 8-5 7-5 7-5 7-6 6-7 7-7 6-7 5-7 6-8 5-9 5-8 5-9 4-9 4-10 3-9 3-11 3-10 2-10 1-11 2-11v-11l1-11h107l-1 15-1 16-1 15-3 15-3 14-3 15-5 14-4 14-6 13-6 13-6 13-8 13-7 12-8 12-9 11-9 11-10 10-10 10-11 9-11 9-11 9-12 7-13 7-12 7-14 6-13 5-14 4-14 4-15 3-14 2-15 1-15 1m-284-310h107v11l1 11 1 11 2 11 2 10 2 10 3 11 4 9 4 10 4 9 4 9 5 8 5 9 6 8 6 7 6 7 6 7 7 7 6 6 7 5 8 5 7 5 8 4 7 4 8 4 8 3 8 2 8 3 8 1 9 1 8 1h9v101l-15-1-15-1-15-2-15-3-14-4-14-4-13-5-13-6-13-7-12-7-12-7-12-9-11-9-11-9-10-10-9-10-10-11-8-11-8-12-8-12-7-13-7-13-6-13-5-13-5-14-4-14-4-15-3-14-2-15-2-15-1-16v-15"/><path d="m5379 6307l50 89-2 1-2 1-1 2-2 1-2 2-2 3-2 3-2 3-1 4-2 5-1 4-2 6-1 6-1 6v6 7 8 7l1 8 1 8 1 9 2 9 2 8 2 9 3 10 3 9 3 9 4 10 4 9 5 10 5 10 5 9-95 47-6-12-6-12-6-12-5-12-5-13-5-12-4-12-3-12-4-12-2-12-3-12-1-11-2-12-1-12v-11-11-11l1-11 1-11 2-11 3-10 3-10 4-11 4-9 5-10 6-9 6-9 8-9 8-7 9-8 10-6 10-6m313 170l-95 47-6-10-5-9-6-9-6-8-6-9-7-8-6-7-7-8-6-6-7-7-7-6-6-6-7-5-6-5-7-5-6-4-7-4-6-3-6-3-5-3-6-2-5-1-5-1-4-1-4-1h-4-3-3l-3 1h-2l-2 1-2 1-50-89 11-5 11-4 12-3 11-1 12-1h11 12l11 2 11 2 11 3 11 3 11 4 10 5 10 5 11 5 10 6 9 6 10 7 10 8 9 7 9 8 10 9 8 9 9 9 9 9 8 10 8 11 8 10 8 11 7 12 8 11 7 12m-27 338l-50-89 2-1 2-1 1-1 2-2 2-2 2-3 2-3 1-3 2-4 2-4 1-5 2-6 1-5v-7l1-6v-7-8-7l-1-8-1-8-1-9-2-8-2-9-2-9-3-9-3-10-3-9-4-10-4-9-5-10-5-9-5-10 95-47 6 12 6 12 6 12 5 13 5 12 5 12 4 12 3 12 3 12 3 12 2 12 2 12 2 11 1 12v11 11 11l-1 11-2 11-1 11-3 10-3 11-4 10-4 10-5 9-6 9-7 9-7 9-8 8-9 7-10 6-10 6m-313-170l95-47 5 10 6 9 6 9 6 8 6 9 7 8 6 7 7 8 6 7 7 6 6 6 7 6 7 6 6 5 7 4 6 4 7 4 6 3 6 3 5 3 6 2 5 1 5 2h4l4 1h4 3 3 2l3-1 2-1 2-1 50 89-11 5-11 4-12 3-11 2-12 1h-12l-11-1-11-2-11-2-11-3-11-3-11-4-10-4-11-5-10-6-10-6-10-6-9-7-10-7-9-8-10-8-9-9-9-8-8-10-9-9-8-10-8-10-8-11-8-11-8-11-7-12-7-12"/><path d="m5798 6471v101h-11l-11 1-11 1-10 1-10 2-9 2-10 3-8 3-9 3-8 3-7 4-8 4-6 4-7 5-6 5-5 4-6 5-4 6-5 5-4 6-3 5-3 6-3 6-2 6-2 6-2 7-1 7v6l-1 7 1 7v8l2 7-106 19-2-14-1-13-1-13 1-14 1-13 2-13 3-12 4-13 4-12 6-11 6-12 7-11 7-10 8-10 9-10 10-9 10-9 10-8 11-8 12-7 12-7 12-6 13-5 13-5 14-5 14-4 14-3 15-3 14-2 16-1 15-1 16-1m356 246l-105 19-2-8-2-7-3-8-3-8-4-7-4-8-5-7-5-8-6-7-6-7-6-7-7-7-8-6-7-7-8-6-9-6-9-5-9-6-9-5-10-5-10-4-10-4-10-4-10-4-11-3-11-2-11-3-11-2-11-1-11-1-12-1h-11v-101l16 1 15 1 16 1 15 2 16 3 15 3 14 4 15 4 14 5 15 5 13 6 14 6 13 6 13 8 13 7 12 8 12 8 11 9 11 9 10 10 10 9 10 11 9 10 9 11 8 12 7 11 7 12 6 12 5 13 5 13 4 13 3 13m-275 265v-100l12-1h10l11-1 10-2 10-2 10-2 9-2 9-3 8-3 8-4 8-4 7-4 7-4 6-4 6-5 6-5 5-5 5-5 4-6 4-5 3-6 3-6 3-6 3-6 1-6 2-7 1-6 1-7v-7-7l-1-7-1-8 105-19 2 14 1 13 1 14-1 13-1 13-2 13-3 13-4 12-4 12-6 12-6 11-7 11-7 11-8 10-9 9-9 10-10 8-11 8-11 8-11 7-12 7-13 6-13 6-13 5-13 4-14 4-15 3-14 3-15 2-15 2-16 1h-16m-356-246l106-19 1 8 3 8 2 7 4 8 3 8 5 7 4 8 5 7 6 7 6 7 7 7 7 7 7 6 8 7 8 6 8 6 9 6 9 5 9 5 10 5 10 5 10 4 10 4 11 3 10 3 11 3 11 2 11 2 11 2 12 1h11l11 1v100h-15l-16-1-16-2-15-2-15-2-15-4-15-3-15-5-14-4-14-6-14-5-14-6-13-7-13-7-12-8-13-8-11-8-12-9-11-9-10-9-10-10-10-10-9-11-8-11-8-11-8-12-6-12-7-12-5-13-5-13-3-13-4-13"/></g></g><g stroke="#201e1e"><ellipse transform="matrix(.13457-.14985.19851.09917 2570.26 5639.4)" rx="750" ry="608" fill="none" stroke-linejoin="round" stroke-linecap="round" stroke-width="149.98"/><text x="10499" y="14848" fill="#201e1e" font-family="&apos;Vani&apos;" stroke-width="7.619" font-size="3608.93" transform="matrix(0-.66965.71328 0-5346.75 22942.9)">Texto 01</text></g><g fill="#373435" font-family="&apos;Arial Black&apos;" font-weight="900" font-size="529.1"><text x="10499" y="14848" transform="matrix(.71328 0 0 .66965-1669.86-1555.64)">NN 2</text><text x="10499" y="14848" transform="matrix(.71328 0 0 .66965-1669.86-1853.26)">NN 1</text></g></g></g></svg>