<svg xmlns="http://www.w3.org/2000/svg" width="744.09" height="1052.36" viewBox="0 0 21000 29700" shape-rendering="geometricPrecision" image-rendering="optimizeQuality" fill-rule="evenodd" clip-rule="evenodd"><defs><clipPath id="0"><path d="m14756 23775c1158 560 3360 452 4028-584 666-1033 520-4016 584-5453 158-3596 558-6324 661-9225 115-3221-2080-5403-4726-5950-3635-753-3443 4174-2983 6659 271 1368 738 2560 1080 3898 630 2468 69 6300 289 8869 112 887 462 1466 1067 1786"/></clipPath><clipPath id="1"><path d="m6281 23775c-1159 560-3360 452-4029-584-666-1033-520-4016-583-5453-158-3596-559-6324-662-9225-115-3221 2081-5403 4727-5950 3635-753 3442 4174 2982 6659-271 1368-738 2560-1079 3898-631 2468-70 6300-289 8869-113 887-463 1466-1067 1786"/></clipPath></defs><text x="10081" y="24465" fill="#201e1e" font-family="&apos;Arial Black&apos;" stroke="#201e1e" font-weight="900" stroke-width="7.62" font-size="705.56">34</text><g fill="none" stroke-width="80"><g stroke="#322f30"><circle cx="10533" cy="1326" r="460"/><path d="m10533 515v1621"/><path d="m9723 1326h1621"/></g><g stroke="#373435"><circle cx="10533" cy="25836" r="460"/><path d="m10533 25026v1621"/><path d="m9723 25836h1621"/></g></g><rect x="9843" y="22866" width="1347" height="637" rx="318" fill="#fff" stroke="#fff" stroke-width="20"/><g fill="#201e1e" font-family="&apos;Arial&apos;" font-size="423.33"><text x="300" y="28462">DESC 1</text><text x="281" y="28926">DESC 2</text><text x="278" y="29422">DESC 3</text></g><g clip-path="url(#0)"><g><g><g/><g/></g><text x="10500" y="14850" fill="#201e1e" font-family="&apos;Vani&apos;" stroke="#201e1e" stroke-linejoin="round" stroke-linecap="round" stroke-width="50" font-size="2933.43" transform="matrix(0-1 1 0 2359.91 32281.2)">Texto 02</text><g fill="#373435" font-family="&apos;Arial Black&apos;" font-weight="900" font-size="529.17"><text x="13214" y="10531">NN 2</text><text x="13214" y="10086">NN 1</text></g></g></g><g clip-path="url(#1)"><g><g><g fill="#ff0a4b" stroke="#ff0a4b" stroke-width="7.62"><path d="m19207 29483l75-31776c521-602 564-600 718-706-27 10883-53 21766-79 32649 0 15 6 24-3 22-232-34-297-44-711-189z"/><path d="m17708 27766l64-26652c199-1073 591-2016 721-2159l-73 30005c-545-633-541-794-712-1194z"/><path d="m20657 29753l79-33233c5-1 584-309 717-304l-82 33568c-166-3-164 44-714-31z"/></g><g/></g><g><path d="m8607 7633c-314 991-785 1232-1413 723-636-115-716-397-241-844 251-704 803-664 1654 121z" fill="none" stroke="#201e1e" stroke-linejoin="round" stroke-linecap="round" stroke-width="150"/><path d="m8607 7633c-314 991-785 1232-1413 723-636-115-716-397-241-844 251-704 803-664 1654 121" fill="#201e1e"/></g><g><path d="m7019 7688c-308 243-261 418 142 526-53-82-42-184 33-307-125-109-183-182-175-219z" fill="none" stroke="#201e1e" stroke-linejoin="round" stroke-linecap="round" stroke-width="150"/><path d="m7019 7688c-308 243-261 418 142 526-53-82-42-184 33-307-125-109-183-182-175-219" fill="#fff"/></g><g fill="#201e1e"><g fill-rule="nonzero"><path d="m5135 6132l105 107-10 10-8 10-8 11-7 11-7 12-6 12-6 13-5 13-4 14-4 15-3 15-2 15-2 16v16l-1 16 1 17 1 16 2 17 3 18 3 17 4 17 5 18 6 17 6 17 7 17 8 17 9 17 9 17 10 17 11 16 11 16 12 15-116 95-16-20-15-21-14-21-13-21-12-22-11-22-10-23-10-22-8-23-7-23-7-23-5-23-5-23-4-23-2-24-2-23-1-23 1-23 1-22 2-23 4-22 4-22 6-22 6-22 8-21 9-20 10-20 11-20 12-18 13-18 15-18 16-16m638 104l-116 95-13-15-13-15-13-13-14-13-14-11-14-11-14-11-15-9-14-9-15-7-14-7-15-7-15-5-14-4-15-4-14-3-14-3-14-1-13-1h-14l-13 1-13 2-12 2-12 3-12 3-12 5-11 5-11 5-11 7-10 7-10 8-9 9-105-107 16-16 18-14 18-13 19-11 19-10 20-9 21-8 20-6 21-5 22-4 21-3 22-1h21l22 1 22 3 21 3 22 5 22 5 21 7 21 8 21 9 21 10 20 10 20 12 20 13 20 14 19 15 18 16 19 17 17 17 17 19 17 20m25 687l-105-107 9-10 8-10 8-11 8-11 6-12 7-12 5-13 5-14 4-13 4-15 3-15 2-15 2-16 1-16v-16-17l-2-16-2-17-2-18-4-17-4-17-5-18-5-17-7-17-7-17-8-18-8-16-10-17-10-17-10-16-12-16-12-15 116-95 16 20 15 21 14 21 13 21 12 22 11 22 11 23 9 22 8 23 8 23 6 23 6 23 4 23 4 23 3 24 1 23 1 23v23l-2 22-2 23-3 22-5 22-5 22-7 22-7 21-9 20-10 20-11 20-13 18-13 18-15 18-15 16m-639-104l116-95 13 15 13 15 14 13 13 12 14 12 14 11 15 11 14 9 15 8 14 8 15 7 14 6 15 6 14 4 15 4 14 3 14 2 14 2 14 1h13l13-1 13-2 13-2 12-3 12-3 11-5 11-5 11-5 11-7 10-7 10-8 10-9 105 107-17 16-17 14-19 13-18 11-20 10-20 9-20 8-21 6-21 5-21 4-22 3-21 1h-22l-22-1-21-3-22-3-22-5-21-5-22-7-21-8-21-9-20-10-21-10-20-12-20-13-19-14-19-15-19-16-18-17-18-17-17-19-17-20"/><path d="m4696 5927l108 105-6 6-5 7-4 7-4 7-4 7-3 8-3 8-2 9-2 9-1 10-1 10v11 11l1 11 1 11 2 12 3 12 3 13 4 12 5 13 5 13 5 13 7 13 7 13 8 13 8 13 9 13 9 12 11 13 10 12 12 12 12 12-105 108-15-15-15-17-15-16-13-17-13-17-12-17-11-18-11-17-9-18-9-18-9-19-7-18-7-19-5-18-5-19-4-19-4-18-2-19-1-19-1-18 1-19 1-18 3-18 3-18 5-18 6-18 7-17 8-16 9-17 11-15 12-15 12-14m565 74l-105 108-12-11-13-11-12-11-13-9-13-10-14-8-13-8-13-7-13-7-14-6-13-5-13-5-13-4-13-4-12-3-13-2-12-2-12-1-11-1h-11l-11 1-10 1-10 2-9 2-9 2-9 3-8 4-7 4-7 4-7 5-6 5-6 5-108-105 14-13 15-12 15-11 16-10 17-8 17-7 17-7 18-5 18-4 18-3 18-2 19-1h19l18 1 19 2 19 3 19 3 19 4 18 6 19 6 19 6 18 8 19 8 18 10 18 10 18 10 18 12 18 12 17 13 17 14 16 14 17 15m90 559l-108-105 6-6 5-6 4-7 4-7 4-8 3-8 3-8 2-9 2-9 1-10 1-10v-10-11l-1-11-1-12-2-12-3-12-3-12-4-13-5-13-5-13-6-12-6-13-7-13-8-13-8-13-9-13-9-13-11-12-10-13-12-12-12-12 105-108 15 16 15 16 15 16 13 17 13 17 12 18 11 17 11 18 9 18 9 18 9 18 7 19 7 18 5 19 5 18 4 19 4 19 2 18 1 19 1 19-1 18-1 18-3 19-3 18-5 18-6 17-7 17-8 17-9 16-11 16-12 14-12 14m-565-74l105-108 12 12 12 11 13 10 13 10 13 9 13 9 14 7 13 8 13 6 14 6 13 6 13 5 13 4 13 3 12 3 13 3 12 1 12 1 11 1h11l11-1 10-1 10-1 9-2 9-3 9-3 8-3 7-4 7-5 7-4 6-5 6-6 108 105-14 14-15 11-15 11-16 10-17 8-17 8-17 6-18 5-18 4-18 3-18 2-19 1h-19l-18-1-19-1-19-3-19-4-19-4-19-5-18-6-19-7-19-8-18-8-18-9-18-10-18-11-18-11-18-13-17-12-17-14-16-15-17-15"/><path d="m4225 5677l137 61-5 12-4 13-4 13-2 14-3 14-1 14-1 14v15l1 14 2 15 2 15 3 15 3 15 5 16 5 15 6 15 6 15 7 15 8 15 9 14 9 15 10 14 10 14 11 13 12 13 12 13 13 12 13 12 14 11 15 11 15 10 15 9-76 130-21-13-20-14-19-14-19-15-18-16-17-16-17-17-15-18-15-18-14-19-14-19-12-19-12-20-10-20-10-20-9-21-8-21-7-21-7-22-5-22-4-21-3-22-2-22-2-22v-23l1-22 3-22 3-21 5-22 5-22 8-21 8-21m602-143l-76 129-16-9-16-8-16-7-15-6-16-6-15-5-16-4-15-3-15-2-15-2-15-1h-14l-14 1-14 1-13 2-13 2-13 4-12 3-12 5-12 5-11 5-11 6-10 7-9 7-10 8-8 9-9 8-8 10-7 10-7 11-6 11-6 13-137-61 9-20 11-19 12-19 12-18 14-16 15-16 15-15 16-13 17-13 18-12 18-10 19-10 19-8 20-7 20-6 20-6 21-4 21-3 22-1 21-1h22l22 1 22 3 22 3 22 5 22 6 22 6 22 8 21 9 22 10 22 11 21 12m247 625l-138-60 5-13 5-13 3-13 3-13 2-14 2-14 1-15-1-14v-15l-2-15-2-15-3-15-4-15-4-15-5-15-6-16-6-15-8-15-7-14-9-15-9-14-10-14-10-14-12-14-11-13-12-12-13-13-14-11-14-12-14-10-15-10-15-10 76-129 21 12 20 14 19 15 19 15 18 16 17 16 17 17 15 17 15 18 14 19 13 19 13 19 11 20 11 20 10 21 9 21 8 21 7 21 6 21 6 22 4 22 3 22 2 22 1 22v22l-1 22-2 22-3 22-5 22-6 21-7 21-8 21m-602 144l76-130 16 9 16 8 15 8 16 6 16 5 15 5 16 4 15 3 15 3 15 1 14 1h15 14l14-1 13-2 13-3 13-3 12-4 12-4 12-5 11-6 10-6 11-7 9-7 10-8 8-8 9-9 7-10 8-10 6-11 7-11 5-12 138 60-10 20-10 20-12 18-13 18-13 17-15 16-15 14-16 14-17 13-18 11-18 11-19 9-19 8-20 8-20 6-20 5-21 4-21 3-22 2-21 1-22-1-22-1-22-2-22-4-22-4-22-6-22-7-22-7-22-9-21-10-22-11-21-12"/><path d="m3757 5565l130 75-3 7-3 6-3 7-1 7-2 7-1 7v7 7 8l1 8 2 8 2 8 3 8 3 9 4 9 4 9 5 8 6 9 6 9 7 9 8 9 8 9 9 9 9 8 10 9 11 8 11 8 11 8 13 7 12 7 13 7 14 7-61 136-19-8-18-10-17-9-17-11-17-11-15-11-15-12-15-12-14-13-13-13-12-13-12-14-11-14-10-15-10-15-9-15-7-16-8-16-6-16-5-16-4-17-4-17-2-17-1-17v-18l1-17 2-17 4-18 5-17 6-16 7-17 8-16m538-104l-61 137-14-6-14-6-15-5-14-4-14-4-14-3-14-3-14-2-14-2-14-1h-13l-14-1-13 1-13 1-12 1-12 2-12 2-12 3-10 3-11 3-10 4-9 4-9 4-9 5-7 5-8 5-6 6-7 6-5 5-5 6-5 7-4 6-130-75 10-15 11-15 11-13 12-13 13-12 14-12 14-10 15-9 16-9 15-8 17-7 16-6 17-6 18-5 17-4 18-3 18-3 19-2 18-1 19-1 19 1h19l19 2 19 2 19 3 20 4 19 5 19 5 20 6 19 6 19 8 19 8m228 464l-130-75 3-7 3-6 3-7 1-7 2-7 1-7v-7-7-8l-1-8-2-8-2-8-3-8-3-9-4-9-4-8-5-9-6-9-6-9-7-9-8-9-8-9-9-9-9-8-10-9-11-8-11-8-11-8-13-7-12-7-13-7-14-6 61-137 19 8 18 10 17 10 17 10 17 11 15 11 15 12 15 12 14 13 13 13 12 13 12 14 11 14 10 15 10 15 9 15 7 16 7 16 7 16 5 16 4 17 4 17 2 17 1 17v18l-1 17-2 17-4 18-5 17-6 16-7 17-8 16m-538 104l61-136 14 6 14 5 15 5 14 4 14 4 14 3 14 3 14 2 14 2 14 1 13 1h14l13-1 13-1 12-1 12-2 12-2 11-2 11-4 11-3 10-4 9-4 9-4 9-5 7-5 8-5 6-6 6-5 6-6 5-6 5-7 4-6 130 75-10 15-11 15-11 13-12 13-13 12-14 12-14 10-15 9-16 9-15 8-17 7-16 6-17 6-18 5-17 4-18 3-18 3-19 2-18 1-19 1-19-1h-19l-19-2-19-2-20-3-19-4-19-4-20-6-19-5-19-7-19-7-19-9"/><path d="m3228 5714l148-25 2 13 3 13 4 12 5 13 5 12 6 12 6 12 7 11 8 11 8 11 9 11 9 10 10 10 10 9 11 9 11 9 12 8 12 8 13 8 13 6 13 7 13 5 14 6 14 4 15 4 14 4 15 2 14 3 15 1 15 1h16l15-1 9 150-22 1h-22l-22-1-22-2-21-4-21-4-21-4-20-6-20-7-20-7-20-9-19-9-18-9-18-11-18-11-17-12-16-13-16-13-15-14-15-15-13-15-14-16-12-16-12-17-10-18-10-18-10-19-8-19-7-20-6-20-5-20-4-21m376-437l9 149-15 2-15 2-14 2-14 3-13 4-13 4-13 5-12 6-11 5-11 7-11 7-10 7-10 7-9 8-9 9-8 9-7 9-7 9-7 10-5 10-6 10-4 10-5 11-3 11-3 11-2 12-2 12-1 11v13 12l1 13 2 12-148 25-3-21-2-21v-21-20l2-21 3-20 4-19 5-20 6-19 7-18 8-18 9-18 10-17 11-16 12-16 13-15 13-15 14-14 15-13 16-12 16-12 17-11 18-10 18-9 19-8 19-8 20-7 20-5 21-5 21-4 22-3 22-1m494 369l-148 24-2-13-4-12-3-13-5-12-5-12-6-12-6-12-7-11-8-11-8-11-9-11-9-10-10-10-11-10-10-9-12-8-11-9-13-7-12-8-13-7-13-6-14-6-13-5-14-4-15-4-14-4-15-3-15-2-15-1-15-1h-15-15l-9-149 22-1h22l22 1 21 2 22 3 21 4 21 5 20 6 20 7 20 7 19 8 19 9 19 10 18 11 17 11 17 12 17 13 16 13 15 14 14 14 14 16 13 16 13 16 11 17 11 18 10 18 9 19 9 19 7 19 6 20 5 21 4 21m-376 437l-9-150 15-1 15-2 14-2 14-3 13-4 13-5 12-4 12-6 12-6 11-6 11-7 10-7 10-8 9-8 8-8 8-9 8-9 7-9 6-10 6-10 6-10 4-11 4-10 4-11 3-12 2-11 2-12 1-12v-12-12l-1-13-2-13 148-24 3 21 2 21v21 20l-2 20-3 21-4 19-5 20-6 19-7 18-8 18-9 18-10 17-11 16-12 16-13 15-13 15-14 14-15 13-16 12-16 12-17 11-18 10-18 9-19 8-19 8-20 6-20 6-21 5-21 4-22 2-22 2"/><path d="m2756 5698l147-29 2 9 3 8 3 9 4 9 4 9 6 9 5 8 7 9 7 8 8 9 8 8 9 8 9 8 11 7 10 8 11 7 12 6 12 7 12 6 13 5 13 6 14 4 14 5 14 3 14 4 15 3 15 2 15 2 15 1 16 1h15l16-1 7 150-21 1h-21l-21-1-21-2-20-2-20-4-21-3-19-5-20-5-19-6-19-7-18-7-18-8-18-8-17-9-17-10-16-10-15-11-16-11-14-12-14-13-13-13-13-14-12-14-11-15-10-15-10-16-8-17-8-17-7-17-5-18-4-19m371-373l8 150-15 1-15 2-15 2-14 3-14 3-13 4-12 4-13 4-11 5-11 5-11 6-10 5-9 7-9 6-8 7-8 6-7 7-7 7-5 8-6 7-4 7-4 8-4 7-3 8-2 7-2 8-2 8v8l-1 8v8l1 9 2 9-147 29-4-18-1-19-1-19 1-18 2-18 3-18 4-17 5-17 7-17 8-16 8-16 10-15 10-14 11-14 12-14 13-12 14-12 14-12 15-10 15-10 16-10 17-8 17-8 18-8 18-6 19-6 19-6 19-4 20-4 21-3 20-2 21-2m487 308l-147 30-2-9-3-9-3-9-4-8-5-9-5-9-6-9-6-8-7-9-8-8-8-8-9-8-10-8-10-8-10-7-11-7-12-7-12-6-12-6-13-6-14-5-13-5-14-4-14-4-15-3-14-3-15-2-15-2-16-1-15-1h-15-16l-8-150h22 21l21 1 20 2 21 2 20 3 20 4 20 5 20 5 19 6 18 6 19 8 18 7 17 9 18 9 16 10 16 10 16 11 15 11 15 12 14 13 13 13 13 14 12 14 11 15 10 15 10 16 8 17 8 17 6 17 6 18 4 18m-372 373l-7-150 15-1 15-1 15-3 14-2 13-3 13-4 13-4 12-4 12-5 11-5 11-6 10-6 9-6 9-6 8-7 8-7 7-7 6-7 6-7 5-7 5-8 4-7 4-8 3-7 2-8 2-8 1-7 1-8 1-8-1-9-1-8-1-9 147-30 3 19 2 19 1 18-1 18-2 19-3 17-4 18-6 17-6 17-8 16-8 15-10 16-10 14-11 14-13 13-12 13-14 12-14 11-15 11-15 10-16 9-17 9-17 8-18 7-18 7-19 6-19 5-19 5-20 3-21 3-21 3-21 1"/><path d="m2395 6096l124-85 6 8 6 7 7 7 6 6 8 6 7 5 8 5 8 4 9 4 9 4 10 3 10 2 10 2 10 1 11 1 12 1 11-1 12-1 13-1 12-2 13-3 12-3 13-4 13-5 13-5 14-6 13-7 13-7 13-8 13-9 13-10 13-10 95 117-18 13-18 13-17 12-19 11-18 11-19 9-18 9-19 7-19 7-20 6-19 5-19 4-19 4-19 2-20 1-19 1-19-1-18-1-19-2-19-4-18-4-18-6-17-7-17-7-17-9-16-10-16-11-14-12-15-12-13-14-12-15-12-16m143-575l95 116-12 11-12 11-12 11-11 12-10 12-10 12-9 12-9 13-8 13-7 13-7 13-6 13-6 13-5 13-4 13-4 14-4 13-2 12-2 13-1 12-1 13v12 11l1 12 2 11 2 10 2 10 3 10 4 10 4 9 5 9 5 8-124 85-10-17-10-17-8-18-7-18-6-18-5-19-3-19-3-19-2-19-1-19 1-20 1-19 2-20 3-19 4-19 5-19 5-20 7-19 7-18 8-19 9-19 10-18 10-18 11-17 12-18 12-17 14-16 14-17 15-16 15-15 16-15 17-14m560 16l-125 84-5-8-7-7-6-7-7-6-7-6-7-5-8-5-9-4-8-4-9-3-10-3-10-3-10-2-11-1-11-1h-11-12l-12 1-12 1-12 3-13 2-13 4-13 4-13 4-13 6-13 6-13 6-13 8-13 8-13 8-13 10-13 10-95-116 17-14 18-13 18-12 18-11 19-10 18-10 19-8 19-8 19-7 19-6 19-5 20-4 19-3 19-3 19-1 19-1 19 1 19 1 19 3 18 3 18 5 18 5 18 7 17 8 17 8 16 10 15 11 15 12 14 13 14 14 12 15 12 16m-143 575l-95-117 12-10 12-11 11-12 11-11 11-12 9-12 10-13 8-13 8-12 8-13 7-13 6-14 6-13 5-13 4-13 4-13 3-13 3-13 2-13 1-12 1-12v-12-12l-1-11-2-11-2-11-3-10-3-10-3-9-5-10-4-8-6-9 125-84 10 16 9 18 9 17 7 18 6 19 4 18 4 19 3 19 1 20 1 19v19l-1 20-2 19-3 19-4 20-5 19-6 19-6 19-7 19-8 18-9 19-10 18-10 18-11 18-12 17-13 17-13 17-14 16-15 16-15 15-17 15-16 15"/><path d="m1979 6315l123-86 6 8 7 7 7 8 7 7 8 6 9 7 9 6 9 5 10 6 10 4 11 5 11 4 11 4 12 3 12 2 12 2 13 2 13 1 12 1h13 14l13-1 13-2 13-2 14-2 13-3 13-4 13-4 13-5 13-5 13-6 12-6 72 132-18 9-19 9-18 7-19 7-19 6-19 5-19 5-19 3-19 3-20 2-19 2h-19-19l-19-1-19-2-19-2-18-4-18-4-18-4-18-6-18-6-17-7-16-8-17-9-16-10-15-10-15-11-14-12-14-13-13-13-12-15-12-15m156-496l72 132-12 6-12 8-11 7-10 8-10 8-9 8-9 9-8 9-8 9-6 9-7 9-5 9-6 9-4 10-4 9-4 10-2 9-3 9-2 9-1 10v9l-1 9 1 9 1 9 1 8 2 9 3 9 3 8 3 9 4 8 5 8 6 9-123 86-10-15-10-17-8-16-7-17-6-17-6-18-4-17-2-18-2-18-1-18v-17l2-18 2-18 3-17 5-17 5-17 6-17 7-17 8-16 9-16 9-15 11-15 11-15 12-14 13-14 13-14 14-12 15-13 16-12 16-11 17-10 18-10m554 93l-123 87-6-8-7-8-7-7-7-7-8-7-9-6-9-6-9-6-10-5-10-5-11-4-11-4-11-4-12-3-12-3-12-2-13-2-13-1-13-1h-13l-13 1-13 1-13 1-13 2-14 3-13 3-13 3-13 4-13 5-13 5-13 6-12 7-72-132 18-10 18-8 19-8 19-7 19-6 19-5 19-4 19-4 19-3 20-2 19-1 19-1h19l19 1 19 2 18 3 19 3 18 4 18 5 18 5 17 7 18 7 16 8 17 9 16 9 15 10 15 11 14 12 14 13 13 14 12 14 12 15m-156 497l-72-132 12-7 12-7 11-8 10-8 10-8 9-8 9-9 8-8 7-9 7-9 7-9 5-10 5-9 5-9 4-10 3-9 3-9 3-10 1-9 2-9v-9-9-9l-1-9-1-9-2-9-3-8-3-9-3-8-5-8-4-9-6-8 123-87 10 16 9 16 9 17 7 17 6 17 5 17 4 18 3 18 2 17 1 18-1 18-1 18-2 17-4 18-4 17-5 17-6 17-7 16-8 16-9 16-9 16-11 15-11 15-12 14-13 14-13 13-15 13-14 12-16 12-16 11-17 11-18 10"/><path d="m2007 6421l-76 129-8-4-8-4-9-3-9-3-9-3-10-1-9-2-10-1h-11-10-11l-11 1-11 2-11 2-11 3-11 3-12 4-11 5-11 4-11 6-12 6-11 6-11 7-10 8-11 8-10 8-10 9-10 9-9 10-10 10-8 11-9 11-122-87 12-16 13-16 13-14 14-15 14-13 14-13 15-12 15-12 16-11 16-10 16-9 17-9 16-8 17-7 17-7 18-6 17-5 18-4 18-4 17-2 18-2 18-1h18 18l18 2 18 3 17 3 18 5 17 6 17 6 17 8 16 9m61 510l-122-87 8-11 7-12 7-11 6-12 5-12 5-11 4-12 4-11 3-11 2-11 2-12 2-10v-11l1-11v-10l-1-10-1-9-2-10-2-9-3-9-3-8-3-8-4-8-4-7-4-7-5-7-6-6-5-6-7-6-6-6-7-5-8-5 76-129 15 10 15 10 14 12 13 12 13 13 11 13 11 15 9 14 9 16 7 15 7 16 6 17 5 16 3 17 3 18 3 17 1 18v17 18l-2 18-2 18-3 17-4 18-5 18-6 18-6 17-7 18-8 17-9 17-10 17-11 17-11 16m-523 154l76-129 8 4 9 4 8 3 9 3 9 3 10 2 10 1 10 1 10 1h10l11-1 11-1 11-2 11-2 11-3 12-3 11-4 11-4 12-5 11-6 11-6 11-6 11-7 11-7 10-8 10-9 11-9 9-9 10-10 9-10 9-11 8-11 122 87-12 17-13 15-13 15-13 14-14 13-15 13-15 12-15 12-16 11-16 10-16 9-16 9-17 8-17 8-17 6-17 6-18 5-18 4-17 4-18 3-18 1-18 1-18 1-18-1-18-2-17-3-18-3-18-5-17-5-17-7-16-8-17-9m-61-510l122 87-8 12-7 11-6 12-6 11-6 12-5 11-4 12-3 11-3 12-3 11-2 11-1 11-1 10v11 10 10l2 10 1 9 2 9 3 9 3 8 3 8 4 8 4 7 5 8 5 6 5 7 6 6 6 5 7 6 7 5 7 5-76 129-15-9-15-11-14-11-13-13-12-13-12-13-10-14-10-15-8-15-8-16-7-16-5-17-5-16-4-17-3-17-2-18-1-17-1-18 1-18 1-18 2-17 4-18 4-18 4-18 6-18 6-17 8-18 8-17 9-17 9-17 11-17 11-16"/><path d="m1449 7129l37 145-8 3-9 3-8 3-8 4-9 5-8 5-8 6-8 7-8 7-8 7-8 8-8 9-7 9-7 10-7 10-6 10-6 11-6 12-5 11-6 12-4 12-4 13-4 13-4 13-3 13-2 14-2 13-1 14-1 14-1 13v14l1 14-150 10-1-20v-19l1-20 1-19 2-20 3-19 3-18 4-19 5-18 6-18 6-18 6-18 7-17 8-17 9-16 9-16 9-15 10-15 11-15 11-14 12-13 12-13 13-13 13-12 14-11 15-10 15-9 15-9 16-8 17-7 17-6 17-5m367 328l-150 10-1-14-2-13-2-13-3-12-3-12-3-11-4-11-4-11-5-10-5-9-5-9-5-8-6-8-6-8-6-6-6-7-6-5-7-6-6-4-7-4-7-4-6-3-7-3-7-2-7-2-7-1-7-1h-8-7l-8 1-8 1-9 2-37-145 18-4 17-3 18-2h17l18 1 17 2 17 3 16 4 17 5 15 6 16 7 15 8 14 9 14 10 13 10 13 12 12 12 11 13 11 13 10 14 9 15 9 15 8 16 7 16 7 17 6 17 6 18 4 18 4 18 3 19 3 20 2 19m-286 467l-37-145 8-2 8-3 9-4 8-4 9-5 8-5 8-6 8-6 8-7 8-8 8-8 7-9 8-9 7-10 6-10 7-10 6-11 6-11 5-12 5-12 5-12 4-13 4-13 4-13 2-13 3-13 2-14 1-14 1-13 1-14v-14l-1-14 150-10v20l1 20-1 19-1 20-2 19-3 19-4 19-4 18-4 19-6 18-6 17-6 18-8 17-7 17-9 16-9 16-9 16-11 15-10 14-11 14-12 14-12 13-13 12-14 12-14 11-14 10-15 10-16 8-15 8-17 7-17 6-17 5m-367-328l150-10 1 14 2 13 2 13 3 12 3 12 3 12 4 11 4 10 5 10 5 9 5 9 5 9 6 8 6 7 6 7 6 6 6 6 7 5 6 4 7 5 6 3 7 3 7 3 7 2 7 2 7 1 7 1h8 7l8-1 8-1 9-2 37 145-18 4-17 3-18 2h-18l-17-1-17-1-17-3-17-4-16-6-16-6-15-7-15-8-14-9-14-10-13-10-13-12-12-12-11-12-11-14-10-14-9-15-9-15-8-16-8-16-6-17-6-17-6-17-4-19-4-18-4-19-2-19-2-20"/><path d="m1262 7646l86 123-6 5-6 4-5 6-6 5-5 6-5 7-5 6-5 7-4 8-4 8-4 8-4 8-3 9-3 9-3 9-2 9-2 10-2 10-1 10-1 9v10 11 10 10l1 10 2 10 1 10 2 9 3 10 3 10 3 9 4 9-138 59-6-15-6-15-4-16-5-15-3-16-3-16-2-16-1-15-1-16-1-16 1-16 1-15 1-16 2-15 3-16 3-15 4-15 4-15 5-14 5-15 6-14 7-14 7-13 8-14 8-12 9-13 10-12 10-12 11-11 11-10 12-10 13-10m393 139l-138 59-4-9-4-9-5-8-4-7-5-7-5-7-5-6-6-5-5-5-5-5-6-4-5-4-6-4-5-3-6-2-5-3-6-2-5-1-5-1-6-1-5-1h-5-6l-5 1-6 1-5 1-6 2-5 2-6 2-6 3-5 3-6 4-86-123 13-8 13-8 14-7 14-6 14-5 15-4 14-4 15-2 15-2h14 15l15 2 14 2 14 3 14 4 14 5 14 5 13 7 13 7 12 8 12 8 12 9 11 10 11 11 10 11 10 11 9 13 9 12 8 14 8 14 7 14 7 15m-109 453l-86-123 6-5 6-4 5-5 6-6 5-6 5-6 5-7 4-7 5-8 4-7 4-9 3-8 4-9 3-9 2-9 3-9 2-10 1-9 2-10v-10l1-10v-10-10l-1-11-1-10-1-10-2-9-2-10-2-10-3-10-3-9-4-9 138-59 6 15 6 15 4 16 4 16 4 15 2 16 3 16 1 16 1 15v16 16l-1 16-1 15-2 16-3 15-3 15-4 15-4 15-5 15-6 14-6 14-6 14-7 13-8 14-8 13-9 12-10 12-10 12-11 11-11 11-12 10-13 9m-393-139l138-59 4 9 4 9 5 8 4 7 5 7 5 7 5 6 5 5 6 6 5 4 5 5 6 3 5 4 6 3 5 3 6 2 5 2 6 1 5 1 6 1 5 1h5 6l5-1 5-1 6-1 5-2 6-2 6-2 5-3 6-3 6-4 86 123-13 9-14 7-13 7-14 6-15 5-14 5-15 3-14 2-15 2h-15-14l-15-2-14-2-15-3-14-4-13-5-14-5-13-6-13-8-12-7-12-9-12-9-11-10-11-10-10-11-10-12-9-12-9-13-9-14-7-13-8-15-6-15"/><path d="m1645 6803l-6 150h-7-6l-6 1-7 1-6 1-7 2-7 2-7 2-7 3-7 3-7 4-7 4-6 4-7 5-7 5-7 5-6 5-6 6-6 6-6 7-6 6-5 7-6 7-4 8-5 7-5 8-4 8-3 8-4 8-3 8-2 8-3 8-145-37 4-14 4-14 6-14 5-14 7-13 6-13 8-13 7-13 8-12 9-11 9-12 9-11 10-10 10-10 11-10 10-9 12-9 11-9 12-8 12-7 12-7 13-7 12-6 13-5 14-5 13-4 14-3 14-3 14-2 15-2h14 15m213 323l-146-37 2-8 2-8 1-8v-7l1-8v-7l-1-6v-7l-1-6-1-6-2-6-1-5-2-5-2-5-3-5-2-4-3-4-3-3-3-4-3-3-3-3-3-3-4-2-4-3-4-2-4-2-4-1-5-2-5-1-5-1-5-1h-6l6-150 14 1 15 2 14 2 14 4 13 4 13 5 13 6 12 6 12 8 11 8 10 8 11 9 9 10 9 11 8 10 7 12 7 11 6 13 6 12 5 13 4 13 3 13 3 14 2 13 1 14 1 14v15l-1 14-1 15-2 14-3 15-3 14m-333 271l6-150h6 6l7-1 6-1 7-1 7-2 7-2 6-3 7-2 7-4 7-3 7-4 7-4 7-5 6-5 7-5 6-6 7-6 6-6 6-6 5-7 6-7 5-7 5-7 5-8 4-7 4-8 4-8 3-8 3-8 3-8 2-9 146 37-4 15-5 14-5 14-6 14-6 13-7 13-7 13-8 12-8 12-9 12-9 11-9 11-10 11-10 10-10 10-11 9-11 9-11 8-12 8-12 8-13 7-12 6-13 6-13 6-13 4-14 4-14 4-14 3-14 2-14 1-15 1h-14m-213-324l145 37-2 9-1 8-1 7-1 8v7 7 7l1 7 1 6 1 6 1 5 2 6 2 5 2 5 2 4 3 4 2 4 3 4 3 4 3 3 3 3 4 2 3 3 4 2 4 2 4 2 5 2 4 2 5 1 5 1h6l6 1-6 150-15-1-14-2-14-3-14-3-14-4-13-5-12-6-12-7-12-7-11-8-11-9-10-9-10-10-8-10-8-11-8-11-7-12-6-12-5-12-5-13-4-13-4-13-2-14-3-14-1-14-1-14v-14l1-14 1-15 3-14 2-15 4-15"/><path d="m1524 8321l36 146-4 1-4 2-4 2-4 2-4 3-4 3-5 4-5 5-4 5-5 6-4 6-5 7-5 8-4 8-4 8-4 10-4 9-3 10-4 11-3 11-2 11-3 12-2 12-1 12-2 13-1 12v13 14 13l1 14 1 13 1 14-149 19-2-19-1-18-1-18v-18-18l1-17 1-18 2-17 2-17 3-17 3-16 4-16 4-16 5-16 5-15 6-15 7-15 7-14 7-13 8-14 8-13 9-12 10-12 10-11 11-11 12-10 12-10 13-8 13-8 15-6 14-6 16-5m317 327l-149 19-1-13-3-13-2-13-3-13-4-12-3-12-4-11-4-11-5-10-4-10-5-9-5-9-5-8-6-8-5-7-5-7-6-6-5-5-5-5-5-4-5-3-5-3-4-3-5-2-4-1-4-2h-3l-4-1h-3-3l-4 1h-3l-36-146 15-3 16-2h16 16l15 2 15 4 15 4 14 5 14 7 13 7 13 8 12 9 12 9 11 10 10 11 11 11 9 12 10 13 8 13 9 13 8 14 7 15 7 14 6 16 7 15 5 16 5 17 5 17 4 17 4 17 3 18 2 18m-203 439l-36-146 4-1 3-2 4-2 4-2 5-3 4-3 5-4 4-5 5-5 5-6 4-6 5-7 4-7 5-9 4-8 4-9 4-10 3-10 3-11 3-11 3-11 2-12 2-12 2-12 1-12 1-13 1-13v-14-13l-1-13-1-14-2-14 149-19 2 19 2 18 1 18v18 18l-1 17-1 18-2 17-2 17-3 17-3 16-4 16-5 16-4 16-6 15-6 15-6 15-7 14-7 14-8 13-9 13-9 12-9 12-11 11-10 11-12 10-12 10-13 8-14 8-14 7-15 5-15 5m-318-327l149-19 2 13 2 14 3 13 3 12 3 12 4 12 4 11 4 11 5 10 4 10 5 9 5 9 5 8 5 8 6 7 5 7 5 6 6 5 5 5 5 4 5 4 5 3 4 2 4 2 4 2 4 1h4l3 1h4 3 3l4-1 36 146-16 3-15 2h-16-16l-15-2-15-3-15-5-14-5-14-6-13-8-13-8-12-9-12-9-11-10-11-11-10-11-10-12-9-13-9-13-8-13-8-14-7-14-7-15-7-15-6-16-5-16-6-17-4-16-4-18-4-17-3-18-3-18"/><path d="m2097 9108l-150-2-1-6v-6l-1-6-1-6-2-6-2-7-3-6-3-7-4-7-4-6-4-7-5-7-5-7-6-7-6-6-7-7-7-6-8-6-7-7-9-5-8-6-9-6-9-5-10-5-9-4-10-4-10-4-11-4-10-3-11-3-11-2-11-2 24-149 17 4 16 3 16 4 16 5 16 6 15 6 15 6 15 7 14 7 14 8 13 8 14 9 12 9 13 10 12 10 11 10 11 11 10 11 10 12 10 12 9 12 8 13 8 13 7 13 6 14 6 14 5 14 4 15 3 15 2 15 1 16 1 15m-359 237l24-149 11 2 11 1 11 1h10 10 10l9-1 9-2 9-1 8-2 8-2 8-3 7-3 7-3 6-3 6-3 6-4 5-4 5-3 4-4 4-4 4-4 3-5 3-4 2-4 2-5 2-4 2-5 1-5 1-5v-5l1-6 150 2-1 16-2 15-2 16-4 14-5 15-5 14-7 13-7 13-8 12-9 12-10 11-10 11-11 10-12 9-11 9-13 7-13 8-13 6-14 6-14 6-14 4-14 4-15 4-16 3-15 2-16 1-16 1h-16-16l-16-1-17-2-17-2m-329-327l150 2v6 6l1 6 2 6 1 6 3 7 2 6 3 7 4 7 4 7 4 6 5 7 6 7 5 7 7 6 6 7 7 6 8 7 8 6 8 6 8 5 9 6 9 5 10 5 10 4 10 4 10 4 10 4 11 3 10 3 11 2 11 2-24 149-16-3-17-4-16-4-16-5-15-5-16-6-15-7-14-7-14-7-14-8-14-8-13-9-13-9-12-10-12-10-12-10-11-11-10-11-10-12-10-12-8-12-9-13-7-13-7-13-7-14-5-14-5-14-4-15-4-15-2-15-1-16v-15m358-237l-24 149-11-2-11-1-10-1h-11-10l-9 1-10 1-9 1-8 1-9 2-8 3-8 2-7 3-7 3-6 3-6 3-6 4-5 4-4 4-5 3-4 4-3 5-3 4-3 4-3 4-2 5-2 4-1 5-1 5-1 5-1 5v6l-150-2v-16l2-15 3-15 3-15 5-15 6-14 6-13 8-13 8-12 9-12 9-11 11-11 10-10 12-9 12-8 12-8 13-8 13-6 14-6 14-6 14-4 15-4 15-4 15-2 15-3 16-1 16-1h16 16l17 1 16 2 17 2"/><path d="m2084 9445l-3-150h5l5-1 5-1 5-1 4-1 5-2 6-2 5-2 5-3 5-3 5-3 5-3 5-4 5-4 4-4 5-5 5-5 4-5 4-5 4-5 4-6 4-6 3-6 4-6 3-7 2-6 3-7 2-7 2-6 2-7 1-7 1-7 149 18-2 14-3 13-3 13-3 13-4 13-5 12-5 12-6 12-6 12-6 11-7 11-7 10-8 11-8 10-8 9-9 9-9 9-9 9-10 8-10 8-11 7-11 6-11 7-11 5-12 6-12 4-12 4-13 4-12 3-13 2-13 1-14 1m-226-280l149 19v7l-1 7v6 6l1 7 1 5 1 6 1 6 1 5 2 5 2 4 2 5 2 4 2 4 2 4 3 3 3 4 2 3 3 2 3 3 3 2 3 3 3 1 4 2 3 2 4 1 3 1 4 1 4 1h4l5 1h4l3 150h-13l-13-1-13-2-13-2-13-3-12-4-12-5-11-5-12-6-10-7-11-7-10-7-9-9-9-8-8-10-8-9-7-10-7-11-6-11-6-11-5-11-5-12-4-12-3-12-3-13-2-12-1-13-1-13-1-14v-13l1-13 1-14m273-268l3 150h-5l-4 1h-5l-5 1-5 2-5 1-5 2-5 3-5 2-5 3-6 3-5 4-5 3-4 4-5 5-5 4-4 5-5 5-4 6-4 5-4 6-4 6-3 6-3 6-3 6-3 7-3 6-2 7-2 7-1 7-2 7-1 7-149-19 2-13 3-14 3-13 4-12 4-13 4-12 5-13 6-11 6-12 6-11 7-11 7-11 8-10 8-10 9-10 8-9 9-9 10-8 10-8 10-8 10-7 11-7 11-6 11-6 12-5 12-5 12-4 13-3 13-3 13-2 13-2h13m226 279l-149-18 1-7v-7-7-6-6l-1-6-1-6-1-5-2-5-1-5-2-5-2-4-2-5-3-4-2-3-3-4-2-3-3-3-3-3-3-2-3-3-3-2-3-2-3-2-4-1-3-1-4-2-4-1h-4l-4-1h-4-5l-3-150h13l13 1 13 1 13 3 13 3 12 4 12 4 12 6 11 6 11 6 10 7 10 8 9 8 9 9 9 9 7 10 8 10 6 10 7 11 5 11 5 12 5 12 4 12 3 12 3 12 2 13 2 13 1 13v13 13l-1 14-1 13"/><path d="m1911 9451l1-11 1-11 3-11 2-11 4-10 3-10 5-10 4-9 6-9 5-9 6-9 7-8 6-8 7-7 8-8 7-7 8-6 9-7 8-5 9-6 9-5 9-5 10-5 9-4 10-4 10-4 11-3 10-2 11-3 11-1 11-2 11-1 10 150h-5l-5 1h-4l-5 1-5 1-4 2-5 1-4 2-4 2-4 2-4 2-4 2-4 3-3 2-4 3-3 2-3 3-3 3-2 3-3 3-2 2-2 3-2 3-1 3-2 3-1 2-1 3-1 3v2l-1 3v2 2l-150-8m227 200l-11 1h-11l-11-1-11-1-11-1-11-2-10-3-10-3-10-3-10-4-10-4-9-4-9-6-9-5-8-6-9-7-8-6-7-8-7-7-7-9-6-8-6-9-5-9-5-10-4-10-4-10-3-10-2-11-2-11-1-11v-11-11l150 8-1 3 1 2v2 2 2l1 1 1 2v2l1 1 1 2 1 1 1 2 1 2 2 1 2 2 1 1 3 2 2 2 2 1 3 2 2 1 3 1 4 1 3 2 3 1h4l4 1 4 1h4 5 4 5l10 149m231-210l-1 11-2 11-2 11-3 10-3 10-4 10-4 10-5 10-5 9-6 9-6 8-6 8-7 8-7 8-7 7-8 7-8 7-8 6-9 6-8 6-9 5-10 5-9 5-10 4-10 4-10 3-10 3-11 3-10 2-11 2-11 1-11 1-10-149h5l4-1 5-1 5-1 4-1 5-1 4-2 4-1 5-2 4-2 4-2 4-3 3-2 4-2 3-3 3-3 3-2 3-3 3-3 2-3 3-3 1-3 2-3 2-2 1-3 2-3 1-2v-3l1-3 1-2v-2-3l150 9m-227-201h11 11 11l11 1 11 2 10 2 11 2 10 3 10 3 10 4 9 4 10 5 9 5 8 6 9 6 8 6 8 7 8 7 7 8 6 8 7 9 6 9 5 9 5 9 4 10 3 11 3 10 3 11 1 11 1 11 1 11v11l-150-9v-2-2-2-2l-1-2v-2l-1-1-1-2v-2l-1-1-1-2-2-1-1-2-1-2-2-1-2-2-2-1-2-2-3-1-2-2-3-1-3-2-3-1-3-1-4-1-4-1h-3l-4-1h-5l-4-1h-5l-4 1-10-150"/><path d="m2671 10132l-25-11-25-12-25-13-23-14-23-16-21-16-21-17-20-18-19-19-18-19-18-21-16-20-15-22-14-22-14-23-12-23-11-24-10-24-9-25-8-24-7-26-5-25-4-26-3-26-2-26-1-27 1-26 2-26 4-27 5-26 6-26 8-26 142 46-5 19-5 18-3 19-3 18-1 19-1 19v19l2 19 2 19 3 19 4 18 5 19 6 18 6 18 8 18 8 18 9 17 10 17 11 17 11 16 13 16 13 15 13 15 14 14 15 13 16 13 16 12 17 11 18 11 18 10 18 9 20 8-57 139m679-294l-9 25-11 25-11 24-13 23-14 22-15 21-15 20-17 19-18 18-19 18-19 16-20 15-21 14-22 12-22 12-23 11-24 9-24 8-24 7-25 6-25 4-25 4-26 2-26 1-26-1-27-2-26-3-26-4-27-6-26-7-27-9-26-10 57-139 19 8 19 6 20 5 19 4 19 4 20 2 18 1 19 1 19-1 18-1 18-3 18-3 18-4 17-5 16-6 17-6 16-8 15-8 15-8 15-10 14-10 13-11 13-12 12-13 11-13 11-14 10-14 10-15 9-16 8-17 7-17 6-18 143 47m-344-697l26 11 25 12 24 13 23 15 23 15 22 16 21 17 20 18 19 19 18 19 17 21 16 21 16 21 14 22 13 23 12 23 11 24 11 24 9 25 7 25 7 25 6 25 4 26 3 26 2 26v27l-1 26-2 27-3 26-5 26-6 27-8 26-143-47 6-18 4-19 4-18 2-19 2-19v-19-19l-1-19-3-19-3-18-4-19-5-19-5-18-7-18-8-18-8-18-9-17-10-17-11-17-11-16-12-16-13-15-14-14-14-14-15-14-16-13-16-12-17-11-17-11-18-10-19-9-19-8 56-139m-678 295l9-26 10-25 12-23 12-23 14-22 15-22 16-20 17-19 17-18 19-17 20-16 20-15 21-14 21-13 23-12 23-10 23-10 24-8 24-7 25-6 25-4 26-4 26-2h25 27l26 2 26 3 27 4 26 6 27 7 26 9 26 10-56 139-20-8-19-6-19-5-20-4-19-4-19-2-19-1h-19-18l-19 2-18 2-18 3-17 4-17 5-17 6-16 6-16 8-16 8-15 9-14 9-14 11-13 11-13 11-12 13-12 13-11 14-10 14-10 16-8 15-8 17-8 17-6 18-142-46"/><path d="m1347 7951l53 140-7 4-7 3-8 4-6 5-7 5-7 6-6 6-6 6-6 7-6 8-6 8-5 8-5 9-4 10-5 10-3 10-4 10-3 11-3 11-2 12-2 12-2 12-1 12v12 13 13l1 12 2 13 1 13 3 13 3 13 4 13-144 43-5-19-5-18-3-19-3-19-2-19-2-18v-19-18l1-18 1-18 2-18 3-18 4-18 4-17 5-17 5-16 7-17 7-15 7-16 9-15 9-15 9-14 11-14 11-13 12-12 12-12 13-11 14-11 15-9 15-9 15-8 17-7m422 264l-144 43-4-12-4-13-5-12-5-11-6-11-6-11-6-10-6-9-7-10-7-8-7-8-8-8-7-7-8-7-8-6-8-5-7-5-8-5-8-3-8-4-8-3-8-2-8-2-7-1-8-1-8-1-7 1h-8l-7 1-8 2-7 2-8 2-53-140 16-6 17-4 17-4 17-2 17-2h18l16 1 17 2 17 3 16 4 16 4 16 6 15 7 16 7 14 9 15 9 13 9 14 11 13 11 13 12 12 12 11 13 11 14 11 14 10 15 10 16 9 16 8 16 8 17 7 18 6 18 6 18m-188 487l-53-140 7-3 7-4 8-4 6-5 7-5 7-5 6-6 6-7 6-7 6-7 6-9 5-8 5-9 4-9 5-10 3-10 4-11 3-11 3-11 2-11 2-12 2-12 1-12v-13-12-13l-1-13-2-13-1-13-3-13-3-13-4-13 144-43 5 19 5 19 3 19 3 18 2 19 2 19v18 19l-1 18-1 18-2 18-3 17-4 18-4 17-5 17-5 17-7 16-7 16-7 15-9 16-9 14-9 14-11 14-11 13-12 13-12 12-13 11-14 10-15 10-15 9-15 8-17 6m-422-264l144-43 4 13 4 12 5 12 5 12 6 11 6 10 6 10 6 10 7 9 7 9 7 8 8 7 7 7 8 7 8 6 8 6 7 5 8 4 8 4 8 3 8 3 8 3 8 1 7 2 8 1h8 7l8-1 7-1 8-1 7-2 8-3 53 140-16 6-17 5-17 3-17 3-17 1h-18-16l-17-2-17-3-16-4-16-5-16-6-15-6-16-8-14-8-15-9-13-10-14-10-13-11-13-12-12-13-11-13-11-14-11-14-10-15-10-15-9-16-8-17-8-17-7-17-6-18-6-19"/><path d="m2765 8870l319 1420-146 33-319-1419 146-34m-76 33l-105-107 41-21h6l6-1h6 6 6l6 1 6 1 5 1 6 2 5 2 6 1 5 3 5 2 5 3 5 2 4 4 5 3 4 3 5 4 4 4 4 4 3 4 4 4 3 5 3 5 3 5 3 5 3 5 2 6 2 5 2 6 2 6-146 34v1l1 1v2 1l1 1 1 1v2h1l1 2h1v1l1 1 1 1h1v1l1 1h1l1 1h1l1 1h1l1 1h1 1 1l2 1h1 1 2 1 1 2l41-21m-105-107l105 107-41 21-64-128m90 88l-145 33-2-6v-6l-1-6v-6-6-6l1-6 1-6 1-6 2-6 2-5 2-6 2-5 3-6 3-5 3-5 4-5 3-4 4-5 4-4 5-4 4-4 5-3 5-4 5-3 6-3 5-2 6-2 6-2 5-2 6-2 6-1 23 149 1-1h2 1l2-1 1-1h2l1-1 2-1 1-1 1-1 2-1 1-1 1-1 1-2 1-1 1-1 1-2 1-1 1-2 1-1v-2l1-1v-2l1-2v-2-1-2-2-1-2-1l-1-2m174 1453l-319-1420 145-33 320 1420-146 33m128-54v150l11-1-6 1h-6l-6 1-6-1h-5l-6-1-6-1-6-1-5-1-6-2-5-2-5-2-5-3-5-2-5-3-5-3-4-3-4-4-5-3-4-4-4-4-3-4-4-5-4-4-3-5-3-5-3-5-2-6-2-5-2-6-2-6-2-6 146-33v-1l-1-2v-1l-1-1v-2l-1-1-1-1v-1l-1-1-1-1v-1h-1l-1-1-1-1-1-1-1-1h-1l-1-1h-1l-1-1h-1-1l-1-1h-2-1-1-1-2-1-2-1l11-1m0 150v-150l12 149-12 1m-38-110l146-33 1 6 1 6 1 6v6 7 6l-1 6-1 6-1 6-2 5-2 6-2 6-2 5-3 5-3 6-3 4-4 5-3 5-4 4-4 4-5 5-4 3-5 4-5 3-6 3-5 3-5 3-6 2-6 2-5 2-6 1-6 1-23-148h-1l-2 1h-1-2l-2 1-1 1h-1l-2 1-1 1-2 1-1 1-1 2-1 1-1 1-2 2-1 1v1l-1 2-1 1-1 2v1l-1 2v2l-1 1v2 2 1 2 2 1 2 1"/></g><path d="m3011 10307l-319-1420c-6-25-31-41-55-38-25 4-41 27-36 52l320 1420c6 24 30 41 55 37 25-4 41-27 35-51"/><path d="m5648 6595l1 150h-8l-6 1-7 1-6 1-5 1-5 2-4 2-5 2-4 3-3 2-4 3-3 3-3 4-3 3-3 4-2 4-3 5-2 5-2 5-1 6-2 6-1 7-1 7-1 7v8l1 8v9l1 9 2 9 2 10 3 10 3 10-143 47-5-16-4-16-3-16-3-16-2-16-1-16-1-15v-15l2-16 1-15 3-15 4-14 4-14 5-14 6-14 7-13 7-13 9-12 9-11 10-11 11-10 11-10 13-9 12-7 14-7 14-7 14-5 15-4 15-3 16-2 15-2h16m384 307l-142 47-4-10-4-11-5-10-5-10-5-10-6-10-6-9-6-10-7-9-7-9-8-9-7-8-8-9-8-7-9-8-8-7-9-7-9-7-9-6-9-5-9-6-9-4-9-5-9-4-9-3-8-3-9-3-9-2-8-1-8-1-8-1h-7l-1-150h16l16 2 16 2 16 3 15 3 15 5 15 5 15 5 15 7 14 7 14 7 14 8 14 9 13 9 13 10 13 10 12 10 12 11 12 12 11 11 11 13 11 12 10 13 10 14 10 13 9 15 8 14 8 15 7 15 7 15 6 16 6 16m-214 354v-150h7l7-1h6l6-2 5-1 5-2 5-2 4-2 4-3 4-2 3-3 3-3 3-3 3-4 3-4 3-4 2-5 2-5 2-5 2-6 1-6 2-7v-7l1-7v-8-8l-1-9-1-9-1-9-3-10-2-10-3-10 142-47 5 16 4 16 4 16 3 16 2 16 1 16v15 16l-1 15-2 15-3 15-3 14-4 14-6 14-5 14-7 13-8 13-8 12-10 11-10 11-10 11-12 9-12 9-13 8-13 7-14 6-15 5-15 4-15 3-15 3-16 1h-16m-384-307l143-47 3 10 5 11 4 10 5 10 5 10 6 10 6 9 7 10 7 9 7 9 7 9 8 8 8 9 8 8 8 7 9 7 8 7 9 7 9 6 9 5 9 6 9 5 9 4 9 4 9 3 9 3 9 3 8 2 8 1 8 1 8 1h8v150h-16l-16-1-16-3-15-2-16-4-15-5-15-5-15-5-14-7-15-7-14-7-14-8-13-9-14-9-13-9-12-11-13-10-12-11-12-11-11-12-11-13-11-12-10-13-10-14-9-13-9-14-9-15-7-15-8-15-7-15-6-16-6-16" fill-rule="nonzero"/></g><g fill="none" stroke="#201e1e" stroke-linejoin="round" stroke-linecap="round" stroke-width="150"><path d="m5657 7392c0-214 145-388 324-388 178 0 323 174 323 388 0 214-145 388-323 388-179 0-324-174-324-388z"/><path d="m5950 7882c-92-173-89-354 6-404 95-50 245 50 337 223 91 173 88 353-7 403-94 50-245-49-336-222z"/></g><path d="m6508 7657v150l-16 1h-15l-15 2-14 2-14 3-13 3-13 4-12 4-12 5-11 5-11 6-10 6-10 6-9 7-8 7-8 7-7 8-7 8-6 8-5 8-5 9-5 8-4 9-3 9-3 10-2 9-1 10-1 10v11 10l1 11 2 12-148 27-3-20-2-20v-20-20l2-19 3-19 4-19 5-19 7-18 7-17 9-17 9-16 11-16 11-15 13-15 13-14 14-13 14-12 16-11 16-11 17-10 17-9 18-8 19-8 19-7 19-5 21-5 20-4 21-4 21-2 22-1 22-1m499 368l-147 27-3-11-3-12-4-11-4-11-6-12-6-11-6-11-7-11-8-11-9-10-9-11-10-10-10-10-11-9-11-9-12-9-12-9-13-8-13-7-13-8-14-6-14-7-15-5-15-6-15-4-15-4-15-4-16-3-15-2-16-1-16-1-16-1v-150l22 1 22 1 22 2 22 3 21 4 21 5 21 6 20 6 21 7 19 8 20 8 19 10 18 10 18 10 18 11 17 12 17 12 15 14 16 13 15 14 14 15 13 15 13 16 12 17 11 16 10 18 10 18 8 18 8 19 6 19 6 20 4 20m-385 395v-150h16l15-1 15-2 14-2 14-3 14-3 12-4 13-4 11-5 12-5 10-6 11-6 9-6 9-7 8-7 8-7 8-8 6-8 6-8 6-8 5-8 4-9 4-9 3-9 3-10 2-9 2-10 1-10v-11l-1-10-1-11-1-12 147-27 3 20 2 20 1 20-1 20-2 19-2 19-5 19-5 19-6 18-8 17-8 17-10 17-11 15-11 15-12 15-13 14-14 13-15 12-16 11-16 11-17 10-17 9-18 9-18 7-20 7-19 6-20 4-21 5-21 3-21 2-22 1-22 1m-499-368l148-27 2 11 3 12 4 11 5 12 5 11 6 11 7 11 7 11 8 11 8 10 9 11 10 10 10 10 11 9 11 9 12 9 12 9 13 8 13 8 14 7 14 6 14 7 14 5 15 6 15 4 15 4 16 4 15 3 16 2 16 2 15 1h16v150l-22-1-22-1-22-2-21-3-22-4-21-5-21-6-20-6-20-7-20-8-19-8-19-10-19-9-18-11-18-11-17-12-16-12-16-13-16-14-14-14-14-15-14-15-12-16-12-16-12-17-10-18-9-18-9-18-7-19-7-19-5-20-5-20" fill="#201e1e" fill-rule="nonzero"/><g stroke="#201e1e"><ellipse transform="matrix(.18866-.22378.27831.14809 1982.45 6414.67)" rx="750" ry="609" fill="none" stroke-linejoin="round" stroke-linecap="round" stroke-width="150"/><text x="10500" y="14850" fill="#201e1e" font-family="&apos;Vani&apos;" stroke-width="7.62" font-size="3609.39" transform="matrix(0-1 1 0-9118.37 32257.5)">Texto 01</text></g><g fill="#373435" font-family="&apos;Arial Black&apos;" font-weight="900" font-size="529.17"><text x="6537" y="10519">NN 2</text><text x="6537" y="10074">NN 1</text></g></g></g></svg>