<svg xmlns="http://www.w3.org/2000/svg" width="744.09" height="1052.36" viewBox="0 0 21000 29700" shape-rendering="geometricPrecision" image-rendering="optimizeQuality" fill-rule="evenodd" clip-rule="evenodd"><defs><clipPath id="0"><path d="m14326 26326c1311 657 3803 531 4559-687 754-1213 590-4717 661-6404 179-4225 632-7429 749-10836 131-3784-2355-6346-5350-6990-4115-884-3897 4903-3376 7822 307 1608 835 3007 1222 4579 713 2899 79 7400 327 10418 127 1042 523 1722 1208 2098"/></clipPath><clipPath id="1"><path d="m6656 26326c-1311 657-3803 531-4559-687-754-1213-590-4717-661-6404-179-4225-632-7429-749-10836-131-3784 2355-6346 5350-6990 4115-884 3897 4903 3376 7822-307 1608-835 3007-1222 4579-713 2899-79 7400-327 10418-127 1042-523 1722-1208 2098"/></clipPath></defs><text x="10081" y="24148" fill="#201e1e" font-family="&apos;Arial Black&apos;" stroke="#201e1e" font-weight="900" stroke-width="7.62" font-size="705.56">40</text><g fill="none" stroke="#373435" stroke-width="80"><circle cx="10533" cy="1008" r="460"/><path d="m10533 198v1621"/><path d="m9723 1008h1621"/><circle cx="10533" cy="25519" r="460"/><path d="m10533 24708v1621"/><path d="m9723 25519h1621"/></g><rect x="9843" y="22866" width="1347" height="637" rx="318" fill="#fff" stroke="#fff" stroke-width="20"/><g fill="#201e1e" font-family="&apos;Arial&apos;" font-size="423.33"><text x="300" y="28462">DESC 1</text><text x="281" y="28926">DESC 2</text><text x="278" y="29422">DESC 3</text></g><g clip-path="url(#0)"><g><g><g/><g/></g><text x="10500" y="14850" fill="#201e1e" font-family="&apos;Vani&apos;" stroke="#201e1e" stroke-linejoin="round" stroke-linecap="round" stroke-width="50" font-size="2933.43" transform="matrix(0-1.17463 1.13196 0 294.26 36317.5)">Texto 02</text><g fill="#373435" font-family="&apos;Arial Black&apos;" font-weight="900" font-size="529.17"><text x="10500" y="14850" transform="matrix(1.13196 0 0 1.17463 695.16-6674.27)">NN 2</text><text x="10500" y="14850" transform="matrix(1.13196 0 0 1.17463 695.16-7196.4)">NN 1</text></g></g></g><g clip-path="url(#1)"><g><g><g><path d="m19592 31013l71-31305c227-1260 670-2368 817-2536l-82 35245c-617-744-613-934-806-1404z" fill="#ff0a4b" stroke="#ff0a4b" stroke-width="7.62"/></g><g/></g><g fill="#201e1e"><path d="m7675 8301l30-173 39 18 63 51 62 46 61 41 59 36 58 30 56 26 54 20 53 16 51 10 50 7 48 1 47-3 46-7 45-12 44-16 44-20 43-26 43-30 42-35 42-41 42-46 41-51 40-56 40-62 39-67 39-72 38-78 36-83 36-89 36-94 34-99 33-105 162 54-35 108-35 104-37 98-38 94-39 88-41 84-42 78-43 74-44 69-46 64-47 58-49 54-51 49-52 43-54 39-56 33-58 27-58 21-61 16-61 10-63 3-63-2-64-8-64-13-65-19-65-25-66-30-66-35-67-40-67-45-68-51-69-55 38 18m-38-18c-37-31-42-86-13-124 30-38 83-44 120-13l-107 137m-300-1089l160 59-21 35-47 47-44 45-39 45-36 42-31 42-28 39-24 39-21 36-16 34-13 32-10 31-6 28-3 26-1 24 2 22 5 21 7 20 9 20 13 19 15 20 20 20 23 20 27 20 31 19 36 19 39 18 44 18 47 16 52 16 55 15 60 14 63 13-30 173-68-14-64-15-61-16-58-18-54-19-51-20-48-22-44-24-41-25-38-28-34-29-31-32-27-34-23-36-19-39-14-41-9-42-3-43v-44l6-44 10-44 14-44 18-45 21-44 25-45 29-46 33-46 36-47 39-48 43-48 47-49 50-51-22 35m22-35c34-33 88-31 120 4 32 36 31 91-3 125l-117-129m2012 233l-162-54 23 92-88-83-86-77-84-73-81-67-80-62-77-57-75-51-73-47-71-41-68-36-66-31-63-25-61-21-58-16-55-11-53-6-50-2-48 3-46 7-43 12-42 15-40 20-38 25-37 29-36 34-35 38-34 45-32 49-31 55-29 60-28 66-27 71-160-59 30-79 31-74 34-69 36-65 39-59 42-55 44-50 47-44 50-39 53-34 55-27 58-22 60-15 61-10 63-4 65 2 66 8 68 13 69 19 70 24 72 29 73 35 74 39 77 45 78 49 80 55 81 60 83 65 85 69 87 75 89 80 90 85 24 92m-24-92c35 33 37 89 5 125-31 36-85 38-120 5l115-130" fill-rule="nonzero"/><path d="m9290 7365c-356 1164-889 1447-1600 849-720-135-811-465-273-991 285-827 909-780 1873 142"/></g><g><path d="m7582 8095l142-96-93 133-44-13-41-13-39-14-38-14-35-16-33-16-31-16-29-18-27-19-25-20-23-21-21-23-18-25-16-26-13-28-9-29-6-31-3-30 2-31 4-31 8-30 11-29 13-29 16-28 18-28 20-28 22-27 25-28 27-27 29-28 31-28 33-28 105 139-29 25-27 24-25 23-22 23-20 22-17 21-14 19-12 19-10 17-7 16-5 15-4 12-2 12v10l1 9 1 9 3 8 5 10 6 10 8 11 10 11 13 12 16 13 18 13 22 13 23 12 27 13 29 13 32 12 34 13 37 11 40 12-93 133m93-133c45 13 72 61 60 108-12 47-59 75-104 62l44-170m-40-209l111-133 17 113-7 12-7 11-6 12-5 11-5 11-5 11-5 11-4 10-3 10-3 10-3 9-2 9-2 9-2 9-1 8-1 9-1 7v8 7 7 7l1 7 1 7 1 6 2 6 2 6 2 6 2 6 2 6 3 6 4 6 3 6-142 96-7-12-7-13-6-12-6-13-5-14-5-13-4-14-3-14-3-14-2-14-2-14-1-14v-15-14l1-15 1-14 2-15 2-14 3-15 3-14 4-15 4-15 5-14 5-15 5-15 6-14 7-15 7-15 7-14 8-15 8-15 9-15 17 112m-17-112c24-42 76-55 116-29 40 25 53 79 29 121l-145-92m-74-142l-105-139 136 88 1-6v-4-4l-1-2v-1l1 1v2l2 2 1 4 3 4 2 5 4 5 4 5 4 6 5 7 5 7 6 7 7 8 7 7 7 9 8 8 8 9 9 9 9 10 10 10 10 10 11 10 11 11 12 11 12 11 13 11-111 133-14-12-13-12-13-12-12-11-12-12-11-11-11-11-10-10-11-11-9-10-10-11-9-10-8-9-8-10-8-10-8-9-7-9-6-10-7-9-6-9-5-10-6-9-5-9-4-10-4-10-4-11-3-11-3-11-1-12-1-13 1-14 2-14 135 88m-135-88c10-48 55-78 101-68 45 10 75 57 65 105l-166-37" fill="#201e1e" fill-rule="nonzero"/><path d="m7492 7429c-349 286-295 491 161 618-60-96-48-216 37-360-141-128-207-213-198-258" fill="#fff"/></g><g fill="#201e1e"><g fill-rule="nonzero"><path d="m5359 5602l119 126-10 11-10 12-9 13-8 13-8 14-7 14-6 15-6 16-5 17-4 17-3 17-3 18-2 18-1 19v19l1 20 1 20 2 20 3 20 4 20 5 20 5 21 7 20 7 20 8 21 9 20 10 20 10 19 11 20 13 19 13 18 13 19-131 111-18-23-17-25-16-25-15-25-13-26-13-25-12-27-10-26-10-27-8-27-7-27-7-27-5-27-4-28-3-27-2-27-1-27 1-27 1-27 3-26 4-27 5-25 6-26 7-25 9-25 10-24 11-23 13-23 14-22 15-22 16-20 18-19m723 122l-132 111-14-17-15-17-15-16-16-15-15-13-16-13-16-12-17-11-16-10-17-10-16-8-17-7-16-6-17-6-16-4-16-4-16-2-16-2-15-1h-15l-15 1-15 2-14 2-14 4-13 4-13 5-13 6-12 7-12 7-12 9-11 9-11 11-119-126 19-18 20-17 20-15 22-14 22-12 22-10 23-9 24-8 24-5 24-5 24-3 24-1h25l24 1 25 3 25 4 24 5 24 7 25 8 24 9 23 10 24 12 23 13 23 14 22 15 22 16 22 18 21 18 20 20 21 21 19 22 19 23m28 807l-119-126 10-11 10-12 9-13 8-13 8-14 7-14 6-15 6-16 4-17 5-17 3-17 3-18 1-18 1-19 1-19-1-20-1-20-2-20-4-20-3-20-5-20-6-21-6-20-7-20-8-21-9-20-10-20-10-19-12-20-12-19-13-18-14-19 132-111 18 23 17 25 16 25 14 25 14 25 13 26 11 27 11 26 9 27 9 27 7 27 6 27 6 27 4 28 3 27 2 27v27 27l-1 27-3 26-4 27-5 25-6 26-7 25-9 25-10 24-11 23-13 23-14 22-15 22-17 20-17 19m-723-122l131-111 15 17 15 17 15 16 15 15 16 13 16 13 16 12 17 11 16 10 16 10 17 8 17 7 16 6 17 6 16 4 16 4 16 2 16 2 15 1h15l15-1 15-2 14-2 14-4 13-4 13-5 13-6 12-7 12-7 12-9 11-9 11-11 119 126-19 18-20 17-21 15-21 14-22 12-22 10-24 9-23 8-24 5-24 5-24 3-25 1h-24l-25-1-24-3-25-4-24-5-25-7-24-8-24-9-24-10-23-12-23-13-23-14-22-15-22-16-22-18-21-18-21-20-20-21-19-22-19-23"/><path d="m4863 5361l122 124-6 7-6 8-5 7-5 9-4 9-4 9-3 10-2 10-3 11-1 11-1 12v12 13l1 13 2 14 2 14 3 14 4 15 4 15 5 15 6 15 7 15 7 15 8 15 9 16 9 15 10 15 11 15 11 14 12 15 13 14 14 14-118 127-18-18-17-19-16-20-15-19-15-20-13-21-13-20-12-21-11-21-10-21-10-22-8-22-7-21-7-22-5-22-5-22-4-22-2-22-2-22v-22-21l2-22 3-21 4-22 5-20 7-21 8-20 9-20 10-19 12-18 14-17 14-17m639 87l-118 127-14-14-15-12-14-13-15-11-14-11-15-10-15-9-15-9-15-7-16-7-14-7-15-5-15-5-15-4-14-4-14-3-14-2-13-1-13-1h-12l-13 1-11 1-11 2-11 3-10 3-9 3-9 4-9 5-8 5-7 5-7 6-7 7-122-124 16-15 16-14 18-13 18-11 18-10 20-9 19-7 20-6 21-5 20-4 21-2 21-1h21l21 1 22 2 21 3 21 4 22 5 21 7 21 7 21 8 21 9 21 9 21 11 21 12 20 12 20 14 20 14 19 15 20 17 18 16 19 18m102 657l-122-124 6-7 6-7 5-8 4-8 5-9 3-9 3-10 3-11 2-10 2-12v-12l1-12v-13l-1-13-2-14-2-14-3-14-4-14-5-15-5-15-5-15-7-15-7-16-8-15-9-15-9-15-10-15-11-15-12-15-12-15-13-14-13-14 118-127 17 19 17 19 17 19 15 20 14 20 14 20 13 21 12 20 11 22 10 21 9 21 8 22 8 22 6 21 6 22 5 22 3 22 3 22 1 22 1 22-1 22-1 21-3 22-4 21-6 21-6 20-8 20-9 20-11 19-12 18-13 18-14 16m-639-87l118-127 14 14 14 13 15 12 14 11 15 11 15 10 15 9 15 9 15 8 15 7 15 6 15 6 15 5 14 4 14 3 14 3 14 2 13 1 13 1h13l12-1 12-1 11-2 10-2 10-3 10-4 9-4 8-4 8-5 8-6 7-6 7-7 122 124-16 16-17 14-17 12-18 12-19 10-19 8-20 8-20 6-20 4-21 4-21 2-21 1h-21l-21-1-21-2-22-3-21-4-21-5-22-6-21-7-21-8-21-9-21-10-21-11-20-12-20-12-21-14-19-14-20-15-19-16-19-17-18-18"/><path d="m4329 5068l156 71-6 14-5 16-4 15-3 16-2 16-2 17-1 17v17l1 17 2 17 2 18 4 18 4 18 5 18 6 17 6 18 8 18 8 17 9 18 9 17 11 17 11 16 12 16 12 16 13 16 14 14 15 15 15 14 16 13 16 12 17 12 17 12-86 152-24-15-22-17-22-17-21-17-21-19-19-19-19-20-18-21-16-21-16-22-15-22-14-23-14-23-12-24-11-24-10-24-9-25-8-25-7-25-6-26-5-25-4-26-2-26-1-26-1-26 2-26 2-25 4-26 5-26 7-25 8-25 9-24m682-169l-87 152-17-10-18-10-18-8-18-8-17-6-18-6-17-4-18-4-17-3-17-2-16-1h-16l-16 1-16 1-15 2-15 3-14 4-14 4-14 6-13 5-12 7-12 7-12 8-11 9-10 9-10 10-10 10-9 11-8 12-7 13-8 13-6 15-156-71 11-24 12-23 13-22 15-20 15-20 17-18 17-18 18-16 19-15 20-13 21-13 21-11 22-9 22-9 23-7 23-6 24-5 24-3 24-3 24-1 25 1 25 1 25 3 25 4 25 6 24 6 25 8 25 9 25 10 24 12 25 13 24 14m279 735l-155-71 5-15 5-15 4-15 4-16 2-17 2-16v-17-17-17l-2-18-3-17-3-18-4-18-5-18-6-18-6-17-8-18-8-18-9-17-10-17-10-17-11-17-12-16-12-16-14-15-13-15-15-14-15-14-16-13-16-13-17-12-18-11 87-152 23 15 23 16 22 17 21 18 21 19 19 19 19 20 17 20 17 22 16 21 15 23 14 22 13 24 12 23 12 24 10 25 9 25 8 25 7 25 6 25 5 26 3 26 3 25 1 26v26l-1 26-2 26-4 26-6 25-6 25-8 25-10 25m-681 169l86-152 18 10 18 10 18 8 17 7 18 7 18 5 17 5 17 4 17 2 17 2 17 1 16 1 16-1 16-1 15-3 15-3 14-3 14-5 14-5 13-6 12-6 12-7 12-8 11-9 10-9 10-10 9-10 9-12 8-12 8-12 7-14 7-14 155 71-10 24-12 22-14 22-14 21-16 20-16 18-17 17-19 16-19 15-20 14-20 12-21 11-22 10-23 9-22 7-24 6-23 5-24 3-24 2-25 1h-24l-25-2-25-2-25-5-25-5-25-6-25-8-24-9-25-11-25-11-24-13-24-14"/><path d="m3800 4936l147 88-4 8-3 8-3 8-2 8-2 8-1 8v8 9 9l2 9 1 10 3 9 3 10 4 10 4 10 5 11 6 10 6 11 7 10 8 11 9 10 9 11 10 10 11 10 11 10 12 10 12 9 13 9 14 9 14 8 15 8 16 8-69 161-21-11-21-11-20-11-19-12-18-13-18-14-17-13-17-15-15-15-15-15-14-16-14-16-12-17-12-17-10-18-10-18-9-18-8-19-7-19-6-19-5-19-4-20-2-20-2-21v-20l1-20 3-21 4-20 6-20 6-20 9-19 9-19m609-123l-70 161-16-7-16-6-16-6-16-5-16-5-16-3-16-4-16-2-15-2-16-1-15-1h-15-15l-15 1-14 2-14 2-13 2-13 3-12 4-12 4-11 5-11 4-10 6-10 5-8 6-9 6-7 7-7 6-6 7-6 7-5 8-5 7-147-88 11-18 12-17 13-16 14-15 14-14 16-13 16-13 17-11 17-10 18-9 19-9 19-7 19-7 19-5 20-5 21-4 20-3 21-2 21-2h21 22l21 1 22 2 22 2 21 4 22 4 22 5 22 6 22 7 22 8 21 9 22 9m257 546l-147-88 4-8 4-8 2-8 2-8 2-8 1-8 1-8v-9l-1-9-1-9-2-10-2-9-3-10-4-10-5-11-5-10-5-10-7-11-7-10-8-11-8-10-10-11-10-10-10-10-11-10-12-10-13-9-13-9-14-9-14-8-15-8-16-8 70-161 21 11 20 11 20 11 19 12 19 13 18 13 17 14 16 15 16 14 15 16 14 16 13 16 12 17 12 17 11 17 10 18 9 19 8 18 7 19 6 20 4 19 4 20 3 20 1 21v20l-1 20-3 21-4 20-5 20-7 20-8 19-10 19m-608 123l69-161 16 7 16 6 16 6 16 5 16 4 16 4 16 3 16 3 16 2 15 1 16 1h15 14l15-1 14-2 14-2 13-3 13-3 13-3 11-4 12-5 10-5 10-5 10-5 9-6 8-6 8-7 7-6 6-7 6-7 5-8 4-7 147 88-11 18-12 17-13 16-13 15-15 14-16 13-16 12-17 12-17 10-18 9-18 8-19 8-19 6-20 6-20 5-20 4-21 3-21 2-21 2h-21-21l-22-1-21-2-22-2-22-4-22-4-22-6-22-6-21-7-22-7-22-9-21-9"/><path d="m3200 5111l168-29 3 15 3 15 5 15 5 14 6 15 6 14 8 13 8 14 8 13 10 13 9 12 11 12 11 12 12 11 12 11 13 10 13 10 14 9 14 8 15 8 15 8 15 7 16 6 15 5 17 5 16 4 17 3 16 3 17 1 17 1h17 18l10 176-25 1-25-1-25-1-24-2-24-4-24-5-24-6-23-6-23-8-22-9-22-10-21-10-21-12-21-12-20-13-19-14-18-15-18-16-17-16-17-17-16-18-15-19-14-19-13-20-12-21-11-21-11-22-9-23-8-23-7-24-6-24-5-24m426-514l11 176-17 2-17 2-16 3-16 4-15 4-15 5-14 6-13 6-13 7-13 7-12 8-12 9-11 9-10 9-10 10-9 10-8 11-8 11-7 11-7 12-6 12-5 12-5 13-4 13-3 13-3 14-2 13-1 14-1 15 1 14 1 15 2 15-168 29-3-25-2-24v-25-24l2-24 4-23 4-24 6-22 7-23 8-21 9-22 10-20 12-20 12-19 13-19 15-18 15-17 16-16 17-16 17-14 19-14 19-13 20-11 21-11 21-10 22-9 22-8 23-6 24-6 24-4 24-4 25-2m560 434l-168 29-3-15-3-15-4-15-6-14-5-15-7-14-7-13-8-14-9-13-9-13-10-12-11-12-11-12-12-11-12-11-13-10-13-10-14-9-14-9-14-8-15-7-16-7-15-6-16-5-16-5-17-4-16-3-17-3-17-1-17-1-17-1-17 1-11-176 25-1h25l25 2 24 2 25 4 23 5 24 5 23 7 23 8 22 9 22 9 22 11 21 11 20 13 20 13 19 14 19 15 18 16 17 16 16 17 16 18 15 19 14 19 13 20 12 21 12 21 10 22 9 23 8 23 7 23 6 24 5 25m-426 514l-10-176 17-2 16-2 16-3 16-4 15-4 15-5 14-6 14-6 13-7 12-8 12-8 12-8 11-9 10-9 10-10 9-11 9-10 7-11 8-12 6-11 6-12 6-13 4-12 4-13 4-13 2-14 2-14 1-14 1-14-1-14-1-15-2-15 168-29 3 25 2 24 1 25-1 24-2 24-3 23-5 23-6 23-6 22-9 22-9 21-10 21-11 20-13 19-13 19-14 18-15 17-16 16-17 15-18 15-19 14-19 12-20 12-20 11-22 10-22 9-22 7-23 7-24 6-24 4-24 4-25 2"/><path d="m2666 5092l167-34 2 10 3 11 4 10 4 10 6 11 5 10 7 10 7 10 8 10 9 10 10 10 10 9 10 9 12 9 12 9 12 8 13 8 14 7 14 7 15 7 15 6 15 6 16 5 16 4 16 4 17 3 17 3 17 2 17 2h17l18 1 17-1 9 176-24 1h-24l-23-1-24-2-23-3-23-4-23-5-22-5-22-6-22-7-21-8-21-8-20-9-20-10-20-11-19-11-18-12-18-13-17-13-16-15-16-14-15-16-14-16-14-17-13-17-11-18-11-19-10-19-8-20-8-21-6-21-5-22m421-437l9 176-18 1-17 2-16 2-16 3-16 4-14 4-15 5-14 5-13 6-12 6-12 7-12 6-10 8-10 7-10 8-8 8-8 8-8 8-6 9-6 8-5 9-5 9-4 9-3 9-3 9-2 9-2 9-1 9v10 9l1 10 2 11-167 34-3-21-3-22v-22l1-22 2-21 3-21 5-20 6-20 8-20 8-19 10-18 11-18 11-17 13-16 14-16 14-15 16-14 16-13 16-13 18-12 18-11 19-10 19-9 20-9 21-8 21-7 22-6 22-5 23-5 23-3 23-3 24-1m551 361l-167 35-2-10-3-11-4-10-4-11-5-10-6-10-7-10-7-10-8-10-9-10-9-10-11-9-10-10-12-9-12-8-12-8-13-8-14-8-14-7-15-6-15-6-15-6-16-5-16-4-16-4-17-4-17-2-17-3-17-1-17-1h-18l-17 1-9-176 24-1h24l24 1 23 2 23 3 23 4 23 4 22 6 22 6 22 7 21 7 21 9 21 9 19 10 20 11 19 11 18 12 18 13 17 13 16 14 16 15 15 15 15 17 13 16 13 18 11 18 11 19 10 19 8 20 8 21 6 21 5 21m-421 438l-9-176 18-1 17-2 16-3 16-3 16-3 15-5 14-4 14-6 13-5 12-6 12-7 12-7 10-7 10-7 10-8 8-8 8-8 8-9 6-8 6-9 6-8 4-9 4-9 3-9 3-9 2-9 2-9 1-9v-10-10l-1-10-2-10 167-35 4 22 2 22v22 21l-3 22-3 21-5 20-6 20-8 20-8 19-10 18-11 18-11 17-13 16-14 16-14 14-15 15-16 13-17 12-18 12-18 11-19 11-19 9-20 9-21 7-21 7-22 7-22 5-23 4-23 4-23 2-24 2"/><path d="m2258 5559l141-99 6 9 7 9 7 8 8 7 8 7 9 6 9 6 9 5 10 4 10 4 11 4 11 3 12 2 12 1 12 1 13 1 13-1 14-1 14-1 14-3 14-3 14-4 15-5 15-5 15-6 14-7 15-8 15-9 15-9 15-11 14-11 15-12 107 137-19 16-20 15-21 14-20 13-21 13-21 11-21 10-22 9-21 8-22 7-22 6-21 5-22 3-22 3-22 2h-21-22l-21-2-21-3-21-4-21-5-20-7-20-7-19-9-19-11-18-11-18-13-17-14-16-15-15-16-14-18-13-19m162-675l107 136-14 13-13 13-13 13-12 14-12 14-11 14-11 15-9 15-10 15-8 15-8 16-7 15-6 15-6 16-5 15-4 16-4 15-3 15-2 15-2 15-1 14v14l1 14 1 13 1 13 3 12 3 12 3 12 5 11 4 11 6 10 6 10-141 99-12-19-10-21-10-20-8-21-6-22-6-22-4-22-3-23-2-22-1-23 1-23 1-22 2-23 4-23 4-23 6-22 6-23 7-22 8-22 10-22 9-22 11-21 12-21 13-21 13-20 14-20 15-20 16-19 17-19 18-18 18-17 19-17m633 19l-140 99-7-9-7-9-7-8-8-7-8-7-8-6-9-6-10-5-10-4-10-4-11-4-11-3-12-2-12-2-12-1h-13-13l-14 2-13 1-14 3-15 3-14 4-15 5-14 5-15 6-15 7-15 8-15 9-15 9-14 11-15 11-15 11-107-136 20-16 20-15 20-14 21-14 20-12 22-11 21-10 21-9 22-8 21-7 22-6 22-5 22-4 21-2 22-2 22-1 21 1 21 2 21 3 21 4 21 5 20 6 20 8 19 9 19 10 19 12 17 13 17 14 16 15 15 16 14 18 13 19m-162 675l-107-137 14-12 14-13 12-13 13-14 11-14 11-14 11-15 10-15 9-15 8-15 8-16 7-15 7-16 5-15 5-15 5-16 3-15 3-15 3-15 1-15 1-14v-14-14l-1-13-2-13-3-12-3-12-3-12-4-11-5-11-5-10-6-10 140-99 12 19 11 20 9 21 8 21 7 22 5 22 4 22 3 23 2 22 1 23v23l-2 22-2 23-4 23-4 22-5 23-7 22-7 23-8 22-9 22-10 21-11 22-12 21-12 21-14 20-14 20-15 20-16 19-17 19-17 18-19 17-19 17"/><path d="m1787 5817l139-102 7 10 7 9 8 8 9 9 9 8 10 7 10 7 11 7 11 6 11 6 12 5 13 5 13 4 13 3 14 4 14 2 14 2 14 1 15 1h14 15l15-1 15-2 15-2 15-3 15-4 15-4 15-5 15-5 14-7 15-6 14-8 81 155-21 11-20 10-21 9-22 8-21 7-22 6-21 5-22 5-22 3-21 3-22 1-22 1-21-1-22-1-21-2-21-3-21-4-21-4-20-6-20-7-20-7-20-8-19-10-18-10-18-11-18-12-16-13-17-14-15-15-15-16-14-17-13-18m177-583l81 155-14 8-13 8-12 9-12 9-11 10-11 10-9 10-10 10-8 10-8 11-7 11-6 11-6 11-5 11-5 11-4 11-3 11-3 11-2 11-1 10-1 11v11 10l1 11 2 10 2 10 3 10 3 10 5 10 4 10 6 10 6 9-139 102-11-18-11-19-10-20-8-20-7-20-6-20-4-21-3-21-2-21-1-21v-20l2-21 2-21 4-20 5-21 6-20 7-19 8-20 9-19 10-18 10-19 12-17 13-18 13-16 15-17 15-15 16-15 17-15 18-14 18-13 20-12 20-12m626 110l-138 102-7-10-8-9-8-8-8-9-9-8-10-7-10-7-11-7-11-6-12-6-12-5-12-5-13-4-13-3-14-4-14-2-14-2-14-1-15-1h-15-15l-15 1-15 2-15 2-15 3-15 4-15 4-15 5-14 5-15 7-14 6-14 8-81-155 20-11 21-10 21-9 21-8 22-7 21-6 22-5 22-5 21-3 22-3 22-1 21-1 22 1 22 1 21 2 21 3 21 4 21 4 20 6 20 7 20 7 19 8 19 10 19 10 18 11 17 12 17 13 16 14 16 15 14 16 14 17 13 18m-176 583l-81-155 14-8 13-8 12-9 12-9 11-10 10-10 10-10 9-10 9-10 7-11 8-11 6-11 6-11 5-11 5-11 3-11 4-11 2-11 2-11 2-10 1-11v-11l-1-10-1-11-1-10-3-10-2-10-4-10-4-10-5-10-5-10-6-9 138-102 12 18 11 19 9 20 9 20 6 20 6 20 5 21 3 21 2 21 1 21v20l-2 21-3 21-3 20-5 21-6 20-7 19-8 20-9 19-10 18-11 19-12 17-12 18-14 16-14 17-16 15-16 15-17 15-17 14-19 13-19 12-20 12"/><path d="m1819 5941l-86 152-9-5-10-4-10-4-10-4-10-2-11-3-11-1-11-2h-12-12l-12 1-12 1-12 2-13 3-13 3-13 4-12 4-13 5-13 6-13 6-12 7-13 8-12 8-12 9-12 9-12 10-11 11-11 11-11 11-10 12-10 13-10 13-138-103 14-19 14-18 15-17 15-17 16-16 17-15 16-14 18-14 17-12 18-12 19-11 18-11 19-9 19-9 20-8 20-6 19-6 20-5 20-5 21-3 20-2 20-1h20l21 1 20 2 20 3 20 4 20 5 19 7 19 8 19 9 19 10m69 600l-138-103 9-13 8-14 7-13 7-14 6-13 6-14 4-13 4-14 4-13 3-13 2-13 1-13 1-12 1-13v-12l-1-11-2-12-1-11-3-10-3-11-3-10-4-9-4-9-5-9-5-8-5-8-7-8-6-7-7-7-8-6-8-6-8-6 86-152 17 12 17 12 16 14 15 14 14 15 13 16 11 17 11 17 10 18 8 18 8 19 7 20 5 19 4 20 4 20 2 21 2 20v21l-1 21-1 21-3 21-3 21-5 21-5 21-7 20-7 21-8 21-9 20-10 20-11 20-12 20-13 19m-592 181l86-152 9 5 10 4 10 4 10 4 10 3 11 2 11 2 11 1h12 11l13-1 12-1 12-2 13-2 13-4 12-4 13-4 13-5 13-6 13-6 12-7 13-8 12-8 12-9 12-9 12-10 11-10 11-11 11-12 10-12 10-13 10-13 138 103-14 19-14 18-15 17-15 17-16 16-17 15-16 14-18 14-17 13-18 11-19 12-18 10-19 9-20 9-19 8-20 7-19 6-20 5-21 4-20 3-20 2-20 1h-21l-20-1-20-2-20-3-20-4-20-5-19-7-20-8-18-9-19-10m-69-600l138 103-9 13-8 14-7 13-7 14-6 13-6 14-4 13-5 14-3 13-3 13-2 13-2 13-1 13v12 12l1 12 1 11 2 11 3 11 3 10 3 10 4 9 4 9 5 9 5 8 5 8 6 8 7 7 7 7 8 6 8 6 8 6-86 152-17-12-17-12-16-14-15-14-14-15-13-16-11-17-11-17-10-18-9-18-7-19-7-20-5-19-5-20-3-20-2-21-2-20v-21l1-21 1-21 3-21 3-21 5-21 5-21 6-20 8-21 8-21 9-20 10-20 11-20 12-20 13-19"/><path d="m1187 6773l42 170-9 3-10 4-9 4-10 5-9 6-10 6-9 7-9 7-9 9-9 8-9 10-8 10-9 11-8 11-7 12-8 12-7 13-6 13-6 14-6 14-5 15-5 14-4 15-4 16-4 15-2 16-3 16-1 16-1 16-1 16v17l1 16-169 12-1-23-1-24 1-23 2-22 2-23 3-22 4-22 5-22 5-22 6-21 7-21 7-20 9-21 8-19 10-19 10-19 11-18 11-18 12-17 13-17 13-16 14-15 15-14 15-14 16-13 16-12 17-11 18-11 18-9 18-8 20-7 19-6m415 385l-169 12-2-16-2-15-2-15-3-15-4-14-3-13-5-13-5-13-5-11-5-11-6-11-6-10-7-9-6-9-7-7-7-8-7-6-7-7-8-5-7-5-8-4-7-4-8-3-8-2-8-3-8-1-8-1h-9-8l-9 1-9 1-10 2-42-170 20-5 20-3 20-2h20 19l20 3 19 3 19 5 18 6 18 7 17 8 17 10 17 10 15 12 15 12 14 14 14 14 13 15 12 16 11 16 11 17 10 18 9 19 8 19 8 20 7 20 6 21 5 21 5 22 3 22 3 22 2 23m-323 549l-43-170 10-3 10-4 9-4 10-5 9-5 9-7 10-6 9-8 9-8 9-9 9-10 8-10 8-11 8-11 8-12 7-12 7-13 7-13 6-14 6-14 5-14 5-15 4-15 4-16 3-15 3-16 2-16 2-16 1-16 1-16-1-16v-17l169-12 1 24v23 23l-2 23-2 22-3 23-4 22-5 22-5 21-6 21-7 21-8 21-8 20-9 19-9 20-10 18-11 19-12 17-12 17-12 17-14 16-14 15-14 14-15 14-16 13-16 12-17 12-18 10-18 9-19 8-19 8-19 5m-415-385l169-12 1 16 2 16 3 15 3 14 3 14 4 14 5 12 4 13 5 11 6 12 6 10 6 10 6 9 7 9 7 8 7 7 7 7 7 6 8 5 7 5 8 4 7 4 8 3 8 3 8 2 8 1 8 1h8 9l9-1 9-1 9-2 43 170-20 5-20 3-20 2-20 1-20-1-19-2-19-4-19-5-18-6-18-7-18-8-17-10-16-10-15-12-15-12-15-14-13-14-13-15-12-15-11-17-11-17-10-18-9-19-9-19-7-19-7-21-6-20-6-22-4-21-4-23-2-22-2-23"/><path d="m975 7381l97 144-6 5-7 6-6 6-6 7-6 7-6 7-5 8-5 8-5 9-5 9-4 10-4 10-4 10-4 10-3 11-2 11-3 11-1 12-2 11-1 12-1 12v12 11l1 12 1 12 2 12 2 12 2 11 3 11 3 12 4 11 4 11-156 69-7-18-6-18-6-18-4-19-4-18-3-19-3-18-1-19-1-18-1-19 1-18 1-19 1-18 3-18 3-18 3-18 4-18 5-17 6-17 6-17 7-17 7-16 8-16 9-15 10-16 10-14 11-14 11-14 12-13 13-13 14-11 14-11m445 162l-156 70-5-11-4-10-5-9-6-9-5-8-6-8-6-7-5-6-6-7-7-5-6-5-6-5-6-4-6-3-7-3-6-3-6-2-6-2-6-1-6-1-6-1h-6-6l-7 1-6 1-6 1-6 2-6 2-7 3-6 4-7 4-7 4-97-144 15-11 15-9 16-8 16-7 16-6 16-5 17-4 16-2 17-2 17-1 16 1 17 1 16 3 16 4 16 4 16 6 15 6 15 8 14 8 14 9 14 10 13 11 13 12 12 12 12 13 11 14 10 14 10 15 10 16 9 16 8 17 7 17m-123 533l-97-145 6-5 7-6 6-6 6-6 6-7 6-8 5-8 5-8 5-9 5-9 5-10 4-9 3-11 4-10 3-11 2-11 3-11 2-12 1-11 1-12 1-12v-11-12l-1-12-1-12-2-12-2-11-2-12-3-11-3-11-4-11-4-11 156-70 7 18 6 18 6 19 4 18 4 18 3 19 3 18 1 19 1 19 1 18-1 19-1 18-1 18-3 18-2 18-4 18-4 18-5 17-6 17-6 17-7 17-7 16-8 16-9 16-10 15-10 14-11 15-11 13-12 13-13 13-14 12-14 11m-445-163l156-69 5 10 4 10 5 9 6 9 5 8 6 8 6 7 6 7 6 6 6 5 6 5 6 5 6 4 6 4 7 3 6 2 6 2 6 2 6 2 6 1h6 6 7 6l6-1 6-2 6-2 6-2 7-3 6-3 7-4 7-5 97 145-15 10-15 9-16 8-16 7-16 6-16 5-17 4-16 3-17 1-17 1-16-1-17-1-16-3-16-3-16-5-16-6-15-6-15-8-14-8-14-9-14-10-13-11-13-11-12-13-12-13-11-13-10-15-10-15-10-16-9-16-8-17-7-17"/><path d="m1409 6390l-7 176h-7-7l-8 1-7 1-8 2-7 2-8 2-8 3-8 4-7 3-8 4-8 5-8 5-8 5-7 6-8 6-7 7-7 7-7 7-7 8-6 7-6 9-6 8-6 8-5 9-5 9-4 9-5 10-3 9-4 10-3 9-2 10-165-43 4-17 6-17 5-16 7-17 7-15 8-16 8-15 9-14 9-14 10-14 10-13 10-13 11-13 12-11 12-12 12-11 12-10 13-10 13-10 14-8 14-9 14-7 15-7 15-6 15-6 15-5 16-4 16-3 16-3 16-1 16-1h17m241 380l-165-44 2-9 2-10 1-9 1-9v-8-9-7l-1-8-1-8-1-6-2-7-2-6-2-6-2-6-3-5-3-5-3-5-3-4-3-4-4-4-3-4-4-3-4-3-4-3-5-2-4-2-5-2-6-2-5-1-6-2h-7l-6-1 7-176 16 1 16 2 16 3 16 4 15 5 15 6 14 7 14 8 13 8 13 10 12 10 12 11 10 11 10 12 9 13 9 13 8 14 7 14 6 15 5 15 5 15 4 16 3 16 2 16 2 16v17 17 17l-2 17-2 17-3 17-4 17m-377 318l7-177 7 1 7-1h7l8-2 7-1 8-2 7-3 8-3 8-3 8-4 8-4 8-4 7-5 8-6 8-6 7-6 7-6 7-7 7-7 7-8 6-8 7-8 6-8 5-9 5-9 5-9 5-9 4-9 4-10 3-9 3-10 3-10 165 44-5 17-5 17-6 16-6 16-8 16-7 15-8 15-9 15-9 14-10 14-10 13-11 13-11 12-11 12-12 12-12 10-13 11-13 10-13 9-14 9-13 8-15 8-14 7-15 6-15 6-16 5-15 4-16 3-16 2-16 2-17 1h-16m-241-380l165 43-3 10-1 9-2 9v9l-1 9v8l1 8v8l1 7 2 7 1 7 2 6 2 6 3 6 2 5 3 5 3 5 3 4 4 4 3 4 4 3 4 3 4 3 4 3 4 3 5 2 5 2 5 2 6 1 6 1 6 1h7l-7 177-17-2-16-2-16-3-15-4-16-5-14-6-15-7-14-7-13-9-13-9-12-10-11-11-11-12-10-12-9-12-8-14-8-14-7-14-6-14-6-15-4-16-4-15-3-16-3-16-1-17-1-16v-17l1-17 1-17 3-17 3-17 4-17"/><path d="m1272 8174l40 171-4 1-4 2-4 2-5 3-5 3-5 4-5 5-5 5-5 6-6 7-5 8-5 8-5 9-5 9-5 10-4 11-5 11-4 12-3 13-4 13-3 13-2 14-3 14-2 14-1 15-1 15-1 15v16 15l1 16 1 16 2 16-168 23-3-22-1-21-1-21-1-22v-21l1-20 2-21 2-20 2-20 4-20 3-19 5-19 5-19 5-18 6-18 7-17 7-17 8-17 8-16 9-16 10-15 10-15 11-14 11-13 13-13 13-11 13-11 15-11 15-9 17-7 16-7 18-5m359 384l-168 22-2-16-3-15-3-16-3-14-4-14-4-14-5-13-5-13-5-12-5-12-5-11-6-10-6-10-6-9-6-8-6-8-6-7-6-6-5-6-6-5-6-4-5-3-5-3-5-3-5-1-4-2-4-1h-4-4-4-4l-4 1-40-171 17-4 18-2 18-1 18 1 17 2 17 4 17 5 16 6 16 8 15 8 14 10 14 10 13 11 13 12 12 13 11 13 11 14 11 15 10 15 9 16 9 16 9 17 7 17 8 18 7 19 6 19 6 19 5 20 5 20 4 20 3 21 3 22m-230 515l-41-172 4-1 5-2 4-2 5-3 5-3 5-4 5-5 5-5 5-6 5-7 6-7 5-8 5-9 5-10 5-10 4-11 4-11 4-12 4-12 3-13 4-13 2-14 2-14 2-15 2-15 1-15 1-15v-15l-1-16v-16l-2-16-1-16 168-22 2 21 2 22 1 21v21 21l-1 21-1 20-2 20-3 20-3 20-4 19-4 19-5 19-5 18-6 18-7 18-7 17-8 17-8 16-9 15-10 16-10 14-11 14-12 13-12 13-13 12-14 11-14 10-16 9-16 8-17 6-17 6m-359-384l168-23 2 16 3 16 3 15 3 15 4 14 4 14 5 13 4 13 5 12 5 11 6 11 6 11 5 9 6 9 6 9 6 7 6 7 6 7 6 5 6 5 6 4 5 4 5 3 5 2 5 2 4 1 4 1 4 1h4 3l4-1 4-1 41 172-18 3-17 3h-18-18l-18-3-17-4-16-5-16-6-16-7-15-9-14-9-14-11-13-11-13-12-12-12-12-14-11-14-10-14-10-16-9-15-9-17-9-17-8-17-7-18-7-18-6-19-6-19-5-20-5-20-4-21-4-21-2-21"/><path d="m1920 9098l-170-2v-7-7l-1-7-2-8-2-7-2-8-3-7-4-8-4-8-4-8-5-8-6-8-6-8-7-8-7-8-7-8-8-7-9-8-9-7-9-7-10-6-10-7-10-6-11-5-11-6-11-5-11-4-12-4-12-4-12-4-13-2-12-3 27-174 19 4 18 4 19 5 18 6 17 6 18 7 17 7 16 8 16 9 16 9 15 10 15 10 15 11 14 11 13 12 13 12 13 13 12 13 11 14 11 14 10 14 9 15 9 15 8 16 7 16 6 17 6 17 4 17 4 18 3 18 1 18v18m-405 278l27-174 12 1 12 2 12 1h12 11l11-1 11-1 10-1 10-2 10-3 9-2 8-3 8-3 8-4 7-4 7-4 7-4 5-4 6-5 5-4 4-5 4-5 4-5 3-5 3-5 2-5 2-5 2-6 1-5 1-6 1-7v-6l170 2v18l-2 19-3 17-5 18-5 17-6 16-8 16-8 15-9 15-10 13-11 13-12 13-12 11-13 11-14 10-14 10-14 8-15 8-16 7-15 6-17 6-16 4-17 5-17 3-18 2-17 2-18 1h-19-18l-19-1-18-3-19-2m-374-384l170 2 1 7v7l1 7 2 7 2 8 2 7 3 8 4 8 4 8 4 8 5 8 6 8 6 8 6 8 8 8 7 7 8 8 8 7 9 7 10 7 9 7 10 6 11 6 10 6 11 5 12 5 11 5 12 4 12 4 12 3 12 3 13 3-27 174-19-4-19-4-18-5-18-6-18-6-17-7-17-8-16-8-17-8-15-10-16-9-15-11-14-10-14-12-14-11-13-13-12-12-12-13-11-14-11-14-10-14-9-15-9-16-8-15-7-17-7-16-5-17-5-17-3-18-3-18-1-18-1-18m406-278l-27 174-13-2-12-1-12-1h-11-12l-11 1-10 1-10 1-10 2-10 2-9 3-9 3-8 3-8 4-7 3-7 4-6 5-6 4-5 4-5 5-4 5-4 5-4 4-3 5-3 5-2 6-2 5-2 5-2 6-1 6v6l-1 7-170-2 1-19 2-18 3-18 4-17 6-17 6-16 7-16 9-15 9-15 10-14 11-13 12-12 12-12 13-11 13-10 14-9 15-8 15-8 15-7 16-6 16-6 17-5 17-4 17-3 17-3 18-1 18-1 18-1 19 1 18 1 19 2 19 3"/><path d="m1906 9493l-3-176h5l6-1 5-1 6-1 5-2 6-2 6-2 5-3 6-3 6-3 6-4 5-4 6-4 5-5 6-5 5-5 5-6 5-6 5-6 5-7 4-6 4-7 4-7 4-8 3-7 3-8 3-7 3-8 2-8 2-8 1-9 1-8 169 22-2 16-3 15-4 16-4 15-5 15-5 14-6 14-6 14-7 14-7 13-8 13-8 12-8 13-9 11-10 12-10 10-10 11-11 10-11 9-11 9-12 9-12 8-13 7-13 7-13 6-14 5-14 5-14 4-14 3-15 3-15 1-15 1m-255-328l168 22-1 8v8 7 8l1 7v7l1 7 2 6 1 6 2 6 2 6 3 5 2 5 3 5 2 4 3 4 3 4 3 3 4 4 3 3 3 2 4 3 3 2 4 2 4 2 4 2 4 1 4 1 5 1 5 1h4 6l3 176h-15l-15-1-14-2-15-3-14-3-14-5-14-5-13-6-12-7-13-8-11-8-11-9-11-10-10-10-10-11-9-12-8-11-7-13-7-12-7-14-6-13-5-14-4-14-4-14-3-15-3-15-1-15-2-15v-16-16l1-15 2-16m308-315l4 176h-6l-5 1-6 1-5 1-6 1-6 2-5 3-6 2-6 3-5 4-6 3-6 5-6 4-5 5-5 5-6 5-5 6-5 6-5 6-4 6-5 7-4 7-4 7-3 7-4 8-3 7-3 8-2 8-2 8-2 8-2 8-1 9-168-22 2-16 3-16 3-15 4-15 5-15 5-14 6-15 6-13 7-14 7-13 8-13 8-13 9-12 9-11 9-12 10-11 11-10 10-10 11-9 12-9 12-9 12-8 12-7 13-7 14-6 13-5 14-5 14-4 15-4 14-2 15-2h15m256 328l-169-22 1-8 1-8v-8l-1-7v-7l-1-7-1-7-1-6-2-6-2-6-2-6-2-5-3-5-2-5-3-4-3-4-3-4-3-4-3-3-3-3-4-3-3-2-4-2-4-3-4-1-4-2-4-1-4-1-4-1-5-1h-5-5l-4-176h15l15 1 15 2 14 2 14 4 14 5 14 5 13 6 13 7 12 8 12 8 11 9 10 10 11 10 9 11 9 11 8 12 8 13 7 12 6 13 6 14 5 14 5 14 3 14 4 15 2 15 2 15 1 15v16 15l-1 16-1 16"/><path d="m1710 9500l1-13 2-13 2-12 3-13 4-12 4-11 5-12 6-11 6-11 6-10 7-10 7-10 7-9 8-9 9-9 9-8 9-8 9-7 9-7 10-7 11-6 10-6 11-5 11-5 11-5 12-4 11-3 12-3 12-3 12-2 13-2 12-1 12 175-6 1-5 1h-6l-5 2-5 1-5 2-5 1-5 2-5 2-4 3-5 2-4 3-4 3-4 3-4 3-4 3-3 3-3 3-3 4-3 3-3 3-2 4-2 3-2 3-1 4-2 3-1 3-1 3v3l-1 3v3l-1 2-169-10m257 236h-13-12-13l-12-2-12-1-12-3-12-2-12-4-11-4-11-4-11-5-10-5-11-7-10-6-9-7-10-8-9-8-8-8-8-9-8-10-7-10-6-10-6-11-6-11-4-12-5-12-3-12-3-13-2-13-1-13v-13-13l169 10v3 3l1 2v2 2l1 2 1 2v2l1 2 1 2 2 2 1 2 1 2 2 2 2 1 2 2 2 2 3 2 3 2 2 2 4 1 3 2 3 1 4 1 4 2h4l5 1 4 1h5l5 1h5l6-1 11 176m261-247l-1 13-2 12-2 13-3 12-4 13-4 11-5 12-6 11-5 11-7 10-7 10-7 10-7 9-8 9-9 8-8 9-9 7-10 8-9 7-10 7-10 6-11 6-11 5-11 5-11 5-11 4-12 3-12 3-12 3-12 2-13 2-12 1-11-176h5l5-1 6-1 5-1 5-1 5-2 5-1 5-2 5-3 4-2 5-2 4-3 4-3 4-3 4-3 4-3 3-3 3-3 3-4 3-3 3-3 2-4 2-3 2-3 1-4 2-3 1-3 1-3 1-3v-3l1-3v-3l169 11m-257-236h13 13 12l12 1 12 2 12 2 12 3 12 4 11 3 11 5 11 5 11 5 10 6 10 7 10 7 9 7 9 9 8 8 8 9 8 10 7 10 7 10 6 11 5 11 5 12 4 12 3 12 3 13 2 13 1 12v13 14l-169-11v-2-3-2l-1-2v-2l-1-2v-2l-1-2-1-2-1-2-1-2-2-2-1-2-2-2-2-2-2-1-2-2-3-2-2-2-3-2-3-1-4-2-3-1-4-1-4-2-4-1h-5l-4-1-5-1h-5-5-5l-12-175"/><path d="m2571 10301l-29-13-29-14-27-16-27-17-25-18-25-19-23-20-23-21-22-22-20-23-20-24-18-24-17-26-16-26-15-26-14-28-13-27-11-29-10-29-9-29-8-30-6-30-5-30-3-31-2-30-1-31 1-31 2-31 4-31 6-31 7-31 9-30 161 54-6 22-5 21-4 22-3 22-2 22v23 22l2 22 2 22 4 22 4 22 6 22 6 22 8 21 8 21 10 21 10 20 11 20 12 20 13 19 14 18 15 18 15 17 16 17 17 15 18 15 18 15 19 13 20 13 21 11 21 11 21 10-63 163m768-346l-11 29-11 29-13 29-15 27-15 25-17 25-18 24-19 23-20 21-21 20-22 19-23 18-24 16-25 15-25 14-26 12-26 11-27 10-28 8-28 7-29 5-28 4-29 2-30 1h-30l-29-2-30-4-30-5-30-7-30-8-30-10-29-12 63-163 22 8 22 8 22 6 22 5 22 4 22 2 21 2h21l21-1 21-1 21-3 20-4 20-5 19-5 19-7 18-8 18-8 18-10 17-10 16-12 16-12 15-13 15-13 13-15 14-16 12-16 11-17 11-18 10-18 9-20 8-20 8-21 161 55m-389-819l29 13 28 14 27 16 27 17 26 18 24 19 24 20 22 21 22 22 21 23 19 24 18 24 18 26 16 26 15 26 14 28 12 28 12 28 10 29 9 29 7 30 7 30 4 30 4 31 2 30v31 31l-3 31-4 31-5 31-7 31-9 31-161-55 6-22 5-21 4-22 2-22 2-22 1-22-1-23-1-22-3-22-3-22-5-22-5-22-7-22-7-21-9-21-9-21-10-20-12-20-12-20-13-18-14-19-14-18-16-17-16-16-17-16-17-15-19-15-19-13-20-12-20-12-21-11-22-10 64-163m-768 347l10-30 12-29 13-28 14-27 16-26 17-25 18-24 19-23 20-21 21-20 22-19 23-18 24-16 24-15 25-14 26-12 27-11 27-10 27-8 28-7 29-5 29-4 29-2 29-1h30l30 2 30 4 29 5 30 7 30 9 30 9 30 12-64 163-22-8-22-8-22-6-22-5-22-3-21-3-22-2h-21l-21 1-21 1-20 3-20 4-20 5-20 5-18 7-19 8-18 8-17 10-17 10-17 12-16 12-15 13-14 14-14 14-13 16-12 16-12 17-11 18-10 18-9 20-8 20-7 21-161-54"/><path d="m1071 7739l61 165-9 3-8 5-8 4-8 6-7 6-8 6-7 7-7 8-7 9-6 8-6 10-6 10-6 10-5 11-5 12-4 12-4 12-4 13-3 13-3 14-2 14-2 14-1 14v15 14 15l1 15 2 15 2 15 3 16 3 15 4 15-162 51-6-22-5-22-4-22-4-22-2-22-1-22-1-22v-21l1-22 2-21 2-21 3-21 4-21 5-20 6-20 6-19 7-19 8-19 9-18 9-18 10-17 11-17 12-16 13-15 13-15 14-14 15-13 16-12 16-12 17-10 18-9 18-8m479 310l-163 51-5-15-5-15-5-14-6-13-7-13-6-13-7-11-8-12-7-11-8-10-8-9-9-9-8-9-9-7-9-7-9-7-9-6-9-5-9-4-8-4-9-4-9-3-9-2-9-1-8-1-9-1h-9l-8 1-8 1-9 2-8 3-9 3-61-165 19-7 19-6 20-4 19-3 19-1h20l19 1 19 2 19 3 18 5 18 5 18 7 18 8 17 9 16 9 16 11 16 11 15 13 15 13 14 14 14 14 13 16 13 16 12 17 11 17 11 19 10 18 10 20 8 20 9 20 7 21 7 22m-213 572l-61-165 9-3 8-5 8-5 8-5 7-6 8-6 7-8 7-7 7-9 6-9 6-9 6-10 6-10 5-11 5-12 4-12 5-12 3-13 3-13 3-14 2-14 2-14 1-14v-15l1-14-1-15-1-15-2-15-2-16-3-15-3-15-4-15 163-51 5 22 5 22 4 22 4 22 2 22 2 22v22 21l-1 22-1 21-3 21-3 21-4 20-5 21-6 19-6 20-7 19-8 19-9 18-9 18-10 17-11 17-12 16-12 15-14 15-14 14-15 13-15 12-17 12-17 10-18 9-18 8m-478-310l162-51 5 15 5 15 6 14 5 13 7 13 6 13 8 11 7 12 8 10 7 11 9 9 8 9 8 8 9 8 9 7 9 7 9 5 9 6 9 4 9 4 9 4 8 2 9 3 9 1 9 1 8 1h9l8-1 9-1 8-2 9-3 8-3 61 165-19 7-19 6-19 4-20 3-19 1h-19l-20-1-19-2-18-3-19-5-18-6-18-6-17-8-17-9-17-9-16-11-16-12-15-12-15-13-14-14-14-15-13-15-13-16-12-17-11-17-11-19-10-18-10-20-8-20-8-20-8-22-6-21"/><path d="m2676 8817l362 1671-165 39-362-1671 165-39m-145 65l1-176-13 1 6-1 7-1h7 6l7 1 6 1 7 1 6 1 6 2 6 1 6 3 6 2 6 3 5 3 6 3 5 3 5 4 5 4 5 4 5 5 4 4 5 5 4 5 4 6 3 5 4 6 3 6 3 6 3 7 2 7 2 7 2 7-165 39v2l1 1v2l1 2 1 2 1 1 1 2v1l1 1 1 1 1 1 1 1 1 1 1 1 1 1 1 1h1l1 1 1 1h1l2 1h1 1l1 1h1 2 1 1 2 1 2 1l-13 1m1-176l-1 176-12-175 13-1m42 127l-165 39-2-7-1-7v-7-8-7-7l1-7 1-7 2-7 2-7 2-7 2-6 3-7 3-6 4-6 4-6 4-5 4-5 4-5 5-5 5-5 5-4 6-4 5-4 6-3 6-4 6-2 6-3 7-2 6-2 7-2 7-1 25 174h2l1-1h2l1-1h2l1-1 2-1 2-1 1-1 2-1 1-1 1-1 2-2 1-1 1-2 1-1 2-2 1-2 1-2v-2l1-2 1-2v-2l1-2v-2l1-2v-2-3-2l-1-2v-2-2m197 1710l-362-1671 165-39 362 1671-165 39m145-65v176l13-1-7 1h-7l-7 1h-6l-7-1-6-1-6-1-7-1-6-2-6-1-6-3-6-2-6-3-5-3-5-3-6-3-5-4-5-4-5-4-4-5-5-4-4-5-4-5-4-6-4-5-4-6-3-6-3-6-2-7-3-7-2-7-2-7 165-39v-2l-1-1v-2l-1-2-1-2v-1l-1-2-1-1-1-1-1-1-1-2-1-1h-1l-1-1-1-1-1-1h-1l-1-1-1-1h-1l-1-1h-1-2l-1-1h-1-1-2-1-1-2-1-2l13-1m0 176v-176l13 175-13 1m-43-127l165-39 2 7 1 7v8l1 7v7l-1 7-1 7-1 7-2 7-1 7-3 7-2 6-3 7-3 6-4 6-3 5-4 6-5 5-4 5-5 5-5 5-5 4-5 4-6 4-6 3-6 4-6 2-6 3-6 2-7 2-7 2-6 1-26-174h-1l-2 1h-2l-1 1h-2l-1 1-2 1-1 1-2 1-1 1-2 1-1 1-2 2-1 1-1 2-1 1-1 2-1 2-1 2-1 2-1 2-1 2v2l-1 2v2 2 3l-1 2 1 2v2 2 2"/></g><path d="m2956 10507l-363-1671c-6-28-34-47-62-42-28 4-46 31-40 59l363 1671c6 27 34 46 62 42 28-5 46-31 40-59"/><g fill-rule="nonzero"><path d="m5941 6145v177h-8l-8 1-7 1-7 1-6 2-5 2-5 2-5 3-5 3-4 3-4 3-3 4-4 4-3 4-3 5-3 5-3 5-2 6-3 6-2 7-1 7-2 8-1 8v9 9 10l1 10 1 11 2 11 2 11 3 11 4 12-162 56-5-19-5-19-4-19-3-19-2-18-2-19v-18-18l1-18 2-18 3-17 4-17 5-17 6-16 7-16 7-15 9-15 10-15 10-13 11-13 13-12 13-11 14-10 14-10 15-8 16-7 16-6 17-5 17-4 18-2 17-2 19-1m434 361l-161 56-4-12-5-13-5-11-6-12-6-12-6-12-7-11-8-11-7-11-8-10-9-11-8-10-9-9-10-10-9-9-10-8-10-8-10-8-10-7-10-7-10-6-10-5-10-6-11-4-10-4-10-4-9-3-10-2-9-2-10-1-9-1h-8v-177l18 1 18 2 17 2 18 4 18 4 17 5 17 6 17 7 16 7 16 8 16 9 16 10 16 10 15 10 14 12 15 11 14 13 14 13 13 13 13 14 12 14 12 15 12 16 11 15 11 16 10 17 9 17 9 17 9 18 8 18 7 19 6 18m-242 417v-177h8l7-1 8-1 6-1 6-2 6-2 5-2 5-3 4-3 4-3 4-3 4-4 3-4 4-4 3-5 3-5 2-5 3-6 2-6 2-7 2-7 1-8 1-8 1-9v-9l-1-10v-10l-2-10-1-11-3-12-3-11-3-12 161-56 6 19 4 19 4 19 4 19 2 18 1 19 1 18-1 18-1 18-2 18-3 17-4 17-5 17-6 16-6 16-8 16-9 14-9 15-11 13-11 13-12 12-13 11-14 10-15 10-15 8-16 7-16 6-17 5-17 4-17 3-18 1-18 1m-435-361l162-56 4 13 4 12 6 12 5 11 6 12 7 12 7 11 7 11 8 11 8 11 8 10 9 10 9 10 9 9 9 9 10 8 10 8 10 8 10 7 10 7 10 6 11 6 10 5 10 4 10 4 10 4 10 3 9 2 10 2 9 1 9 1h9v177l-18-1-18-1-18-3-18-3-17-5-18-5-17-6-16-7-17-7-16-8-16-9-16-9-15-11-15-10-15-12-14-11-14-13-14-13-14-13-12-14-13-14-12-15-12-15-11-16-10-16-10-17-10-17-9-17-8-18-8-18-7-19-7-18"/><path d="m6317 6538v177h-14l-13 1-14 2-13 3-13 4-12 5-13 5-12 6-12 7-12 7-12 9-11 9-12 10-10 10-11 11-10 12-9 13-10 13-8 14-9 15-8 15-7 15-6 16-6 17-6 17-5 18-4 18-3 18-3 19-2 19-1 19v20h-170v-27l2-27 3-26 4-26 4-26 6-25 7-25 7-24 9-24 10-23 10-23 11-22 12-21 13-21 14-19 15-19 15-19 16-17 17-17 18-15 18-15 19-13 20-13 20-11 21-11 21-9 22-7 23-7 23-5 23-4 24-2 24-1m450 544h-169l-1-20-1-19-2-19-3-19-3-18-4-18-5-18-5-17-6-17-7-16-7-15-8-15-8-15-9-14-9-13-10-13-10-12-10-11-11-10-11-10-12-9-11-9-12-7-12-7-13-6-12-5-13-5-13-4-13-3-13-2-14-1h-13v-177l24 1 23 2 24 4 23 5 22 7 22 7 22 9 20 11 21 11 19 13 19 13 19 15 17 15 17 17 16 17 16 19 14 19 14 19 13 21 12 21 11 22 11 23 9 23 9 24 8 24 6 25 6 25 5 26 4 26 2 26 2 27v27m-450 544v-176l13-1 14-1 13-2 13-3 13-4 13-4 12-6 13-6 12-6 12-8 11-8 12-10 11-9 11-11 10-11 10-12 10-13 9-13 9-14 8-14 8-15 7-16 7-16 6-17 5-17 5-17 4-18 3-19 3-19 2-19 1-19 1-20h169v27l-2 27-2 27-4 26-5 25-6 26-6 24-8 25-9 23-9 24-11 22-11 22-12 21-13 21-14 20-14 19-16 18-16 17-17 17-17 15-19 15-19 14-19 12-21 11-20 11-22 9-22 8-22 6-23 5-24 4-23 2-24 1m-451-544h170v20l1 19 2 19 3 19 3 19 4 18 5 17 6 17 6 17 6 16 7 16 8 15 9 14 8 14 10 13 9 13 10 12 11 11 10 11 12 9 11 10 12 8 12 8 12 6 12 6 13 6 12 4 13 4 13 3 14 2 13 1 14 1v176l-24-1-24-2-23-4-23-5-23-6-22-8-21-9-21-11-20-11-20-12-19-14-18-15-18-15-17-17-16-17-15-18-15-19-14-20-13-21-12-21-11-22-10-22-10-24-9-23-7-25-7-24-6-26-4-25-4-26-3-27-2-27v-27"/><path d="m6249 7105l79 156-3 2-3 2-2 2-3 4-3 3-3 5-3 5-3 6-3 7-2 7-3 9-2 9-1 11-2 10-1 12v12 13l1 14 1 13 1 15 2 15 3 15 3 15 4 16 4 16 5 17 6 16 6 17 6 16 8 17 7 17 9 17-151 82-10-21-10-21-9-22-8-21-8-21-7-22-6-21-6-21-5-21-4-21-4-21-3-20-2-21-2-20-1-20v-19l1-20 1-19 3-19 3-19 4-18 5-18 6-18 7-17 8-17 9-16 10-16 12-15 13-14 14-12 16-12 16-10m496 299l-150 82-9-17-9-16-9-16-10-15-10-14-10-14-10-14-10-13-11-12-10-11-11-11-11-10-10-10-11-9-10-8-10-7-10-6-10-6-9-5-9-5-9-3-8-3-8-2-7-2-6-1h-6-5-5l-4 1-3 1-4 1-3 2-79-156 17-8 18-7 18-5 19-3 18-2h18l19 1 17 3 18 4 18 4 17 6 17 7 16 8 17 9 16 10 16 10 15 11 16 12 15 13 15 13 15 15 14 14 14 16 14 16 14 17 13 17 13 18 12 19 13 19 12 20 11 21 11 21m-43 593l-79-156 3-2 3-2 3-3 3-3 3-3 3-5 3-5 2-6 3-7 3-8 2-8 2-10 2-10 1-11 1-11v-12-13-14l-1-14-2-14-2-15-3-15-3-16-4-15-4-16-5-17-5-16-6-17-7-17-7-16-8-17-8-17 150-82 10 21 10 21 9 21 9 22 7 21 7 21 7 22 6 21 5 21 4 21 4 20 2 21 3 20 1 21 1 20v19 20l-2 19-2 19-3 19-4 18-5 18-6 18-7 17-8 17-9 16-11 16-11 15-13 13-15 13-15 12-17 10m-496-299l151-82 8 17 9 16 10 16 9 15 10 14 10 14 11 14 10 12 10 13 11 11 10 11 11 10 11 10 10 8 10 8 11 8 10 6 9 6 10 5 9 4 8 4 8 3 8 2 7 1 6 1 6 1h5l5-1h4l4-1 3-2 3-1 79 156-17 8-18 7-18 5-18 3-19 2h-18l-18-1-18-3-18-4-17-5-17-6-17-7-17-7-16-9-16-10-16-10-16-12-15-11-15-13-15-14-15-14-14-15-15-15-14-16-13-17-13-18-13-18-13-18-12-20-12-19-12-21-11-21"/><path d="m6914 7393v177h-18l-17 1-17 2-16 3-16 3-15 4-15 4-14 5-13 6-13 6-12 7-11 7-11 7-10 8-10 8-8 9-9 9-7 9-7 9-6 10-6 10-5 10-4 11-4 10-3 11-2 12-2 11-1 12-1 12 1 13 1 13 2 13-167 33-3-24-3-24v-23-23l2-23 4-23 4-22 6-22 8-21 8-20 10-20 11-19 12-19 13-18 14-17 14-16 16-15 17-14 17-14 19-13 19-11 19-11 21-10 21-9 21-7 22-7 23-6 23-5 24-4 24-2 25-2 25-1m565 432l-167 33-3-14-4-13-4-14-5-13-6-13-7-14-7-13-8-12-9-13-10-12-10-13-11-12-12-11-12-11-13-11-13-11-14-10-15-9-14-9-16-8-15-8-16-8-17-6-17-6-17-6-17-5-17-4-18-3-18-3-17-2-18-1h-18v-177l25 1 25 2 24 2 25 4 24 5 24 5 23 7 24 7 22 9 23 9 22 10 21 11 21 11 21 13 20 13 19 14 19 14 18 15 17 16 17 17 16 17 15 18 14 19 14 19 13 20 11 20 11 21 10 22 8 22 8 23 6 23 5 23m-436 464v-176h18l17-1 17-2 16-3 16-3 15-4 14-4 14-5 14-6 12-6 12-7 12-7 11-7 10-8 9-8 9-9 8-9 8-9 7-9 6-10 6-10 5-10 4-11 4-10 3-11 2-12 2-11 1-12v-12-13l-1-13-2-13 167-33 3 24 2 24 1 23-1 23-2 23-3 23-5 22-6 21-7 22-8 20-10 20-11 19-12 19-13 18-14 17-15 16-15 15-17 14-18 14-18 12-19 12-20 11-20 10-21 8-21 8-23 7-22 6-24 5-23 4-24 2-25 2h-25m-565-431l167-33 3 14 4 13 4 14 5 13 6 13 7 13 7 13 8 13 9 13 10 12 10 13 11 11 12 12 12 11 13 11 13 10 14 10 14 10 15 9 16 8 15 8 16 8 17 6 16 6 17 6 18 5 17 4 18 3 17 3 18 2 18 1h18v176h-25l-25-2-25-2-24-4-24-5-24-5-24-7-23-7-23-9-22-9-22-10-21-11-21-11-21-13-20-13-19-14-19-14-18-15-17-16-17-17-16-17-15-18-15-19-13-19-13-20-11-20-11-22-10-21-8-22-8-23-6-23-5-23"/></g></g><g stroke="#201e1e"><ellipse transform="matrix(.21356-.26285.31504.17395 1790.96 5933.98)" rx="750" ry="609" fill="none" stroke-linejoin="round" stroke-linecap="round" stroke-width="150"/><text x="10500" y="14850" fill="#201e1e" font-family="&apos;Vani&apos;" stroke-width="7.62" font-size="3609.39" transform="matrix(0-1.17463 1.13196 0-10774.7 36289.7)">Texto 01</text></g><g fill="#373435" font-family="&apos;Arial Black&apos;" font-weight="900" font-size="529.17"><text x="10500" y="14850" transform="matrix(1.13196 0 0 1.17463-4938.83-6688.34)">NN 2</text><text x="10500" y="14850" transform="matrix(1.13196 0 0 1.17463-4938.83-7210.47)">NN 1</text></g></g></g></svg>