<svg xmlns="http://www.w3.org/2000/svg" width="744.09" height="1052.36" viewBox="0 0 21000 29700" shape-rendering="geometricPrecision" image-rendering="optimizeQuality" fill-rule="evenodd" clip-rule="evenodd"><defs><clipPath id="0"><path d="m6599 1338c-1303 132-2669 721-3657 1593-1879 1657-2365 4164-2243 6594 75 1487 262 2965 391 4447 255 2952 490 5912 432 8878-8 424-8 800 55 1224 91 609 294 1222 687 1700 1034 1257 3970 1274 4980-29 773-997 693-2930 607-4112-154-2132-361-4176-18-6307 226-1401 606-2772 964-4142 583-2232 1136-4541 784-6864l-3-19-1-19c-119-1863-1036-3140-2978-2943z"/></clipPath><clipPath id="1"><path d="m14507 1766c1188 127 2434 697 3336 1539 1713 1601 2157 4024 2045 6372-68 1436-239 2865-356 4297-233 2852-447 5712-394 8578 8 410 7 773-50 1183-83 589-268 1181-627 1642-943 1214-3621 1231-4542-28-705-963-632-2831-554-3973 141-2060 330-4035 16-6094-206-1354-553-2678-879-4002-532-2157-1036-4388-715-6633l3-19 1-19c109-1800 945-3034 2716-2844z"/></clipPath></defs><text x="10081" y="24148" fill="#201e1e" font-family="&apos;Arial Black&apos;" stroke="#201e1e" font-weight="900" stroke-width="7.62" font-size="705.56">40</text><g fill="none" stroke="#373435" stroke-width="80"><circle cx="10533" cy="1008" r="460"/><path d="m10533 198v1621"/><path d="m9723 1008h1621"/><circle cx="10533" cy="25519" r="460"/><path d="m10533 24708v1621"/><path d="m9723 25519h1621"/></g><rect x="9843" y="22866" width="1347" height="637" rx="318" fill="#fff" stroke="#fff" stroke-width="20"/><path d="m6599 1338c-1303 132-2669 721-3657 1593-1879 1657-2365 4164-2243 6594 75 1487 262 2965 391 4447 255 2952 490 5912 432 8878-8 424-8 800 55 1224 91 609 294 1222 687 1700 1034 1257 3970 1274 4980-29 773-997 693-2930 607-4112-154-2132-361-4176-18-6307 226-1401 606-2772 964-4142 583-2232 1136-4541 784-6864l-3-19-1-19c-119-1863-1036-3140-2978-2943z" fill="#fefefe"/><g clip-path="url(#0)"><g stroke="#373435" stroke-linejoin="round" stroke-linecap="round"><text x="10500" y="14850" font-family="&apos;Segoe Print&apos;" stroke-width="50" font-size="737.03" transform="matrix(.75366 0 0 1.10745-5544.02 9515.36)">00.00.0000</text><path d="m4143 20254c0 193 33 252 138 413-16 12-75 85-83 113l-361-345c-160-163-264-270-264-509 0-78 99-178 221-178 97 0 187 27 241 73 32 27 117 154 127 199h18c17-74 124-244 276-244 173 0 346 120 349 291-46-25-50-42-123-71-129-52-326-49-435 55-45 42-103 121-103 204zm-689-291c0 315 283 525 480 719 21 20 35 36 55 56 40 41 79 64 113 109 26 35 73 97 114 109 9-36 110-178 138-197l338 321c23 24 41 42 64 66l131 138 172-227c211-241 229-204 409-389 179-184 182-378 0-558-88-87-213-119-352-119-92 0-143 43-202 75 0-77-13-112-40-166-135-276-581-317-696-97-109-74-95-169-414-169-168 0-312 154-312 328z" stroke-width="7.62"/><g font-family="&apos;Segoe Print&apos;" stroke-width="50"><text x="10500" y="14850" font-size="872.87" transform="matrix(1.08551 0 0 1.10745-7710.41 7414.04)"> e </text><g font-size="942.05"><text x="10500" y="14850" transform="matrix(.96531 0 0 1.10745-8480.39 8423.78)">Texto 02</text><text x="10500" y="14850" transform="matrix(.96531 0 0 1.10745-8529.72 6619.85)">Texto 01</text></g></g><g fill="none" fill-rule="nonzero" stroke-width="100"><path d="m8664 3815c97-206 190-276 404-316 236-43 419 110 431 316 26 440-455 786-770 1213-491-624-894-589-914-963-11-206 172-409 408-452 214-39 326 34 442 201z"/><path d="m3570 4997c-3-148 31-216 144-302 124-95 274-60 339 55 140 247-40 590-101 930-462-216-685-76-803-287-65-116-17-287 107-382 113-86 198-76 313-14z"/><path d="m1369 9336c-33-144-82-202-212-257-143-61-280 9-316 138-77 274 179 562 319 877 396-324 647-244 711-477 35-129-52-283-195-344-130-56-210-25-307 64z"/><path d="m4582 7455c-163-81-257-78-412 7-171 94-212 285-117 422 201 292 677 265 1088 375 4-649 277-834 105-1081-95-137-311-171-482-78-155 85-190 189-181 355z"/><path d="m8522 7862c-126-63-199-60-318 5-132 72-163 220-91 326 155 226 523 205 840 290 3-501 214-644 81-835-73-105-240-132-372-60-120 66-147 146-140 274z"/><path d="m7863 9934c3-181-38-264-176-369-152-116-335-75-416 66-172 300 48 719 121 1134 566-260 840-89 985-345 80-141 21-350-131-466-138-105-243-94-384-19z"/></g><g fill-rule="nonzero" stroke-width="50"><path d="m889 8412c4 6 9 11 14 17 9 7 15 15 20 24 5 10 10 17 13 20 3 3 10 7 21 11 10 4 21 6 33 6 8 0 20-3 35-11 15-8 25-11 32-11 6 0 12 3 21 8 8 5 12 10 12 15 0 14-13 28-38 41-25 13-44 19-58 19-25-1-55-13-90-38-34-24-55-47-62-67l-4-6c-1-2-2-4-3-6-5-9-7-15-7-20 0-3 5-9 16-16 11-8 18-12 20-12 5 0 10 3 14 9 4 6 8 12 11 18zm11-229c4 6 9 12 14 17 8 7 15 16 20 25 5 10 9 17 13 20 3 3 10 7 20 11 10 4 21 6 32 7 8 0 20-3 35-10 15-7 25-11 32-11 6 0 12 3 20 8 8 5 12 10 12 15-1 14-14 28-39 40-25 12-44 18-58 17-25-1-55-15-89-40-34-25-54-48-61-69l-3-6c-1-2-2-4-3-6-5-9-7-15-7-20 0-3 6-9 17-16 11-8 18-11 21-11 5 0 10 3 13 9 4 6 7 12 11 18zm638-237c-4 43-31 79-82 108-50 29-101 41-152 36-60-6-127-29-201-69-74-40-133-89-177-147-44-58-63-115-58-173 4-44 13-80 28-108 15-28 34-53 59-74 25-21 49-34 74-40 25-5 58-6 101-2 41 4 87 19 139 47 52 27 102 66 149 118 47 51 80 99 99 143 19 44 25 98 20 162zm-231 70c41 4 77-5 108-25 31-21 47-47 50-78 7-81-27-159-104-235-77-76-161-118-254-127-36-3-64 0-85 11-22 11-41 29-58 55-17 26-27 57-30 91-6 60 34 125 119 193 85 69 170 107 254 115zm11-691c-64-45-113-95-149-149-35-54-50-100-44-138 3-21 17-37 41-48 24-11 51-14 82-9 92 15 173 60 244 135 71 75 101 147 91 217-3 19-11 35-25 49-14 14-29 21-47 20-14-1-25 1-33 6-14 9-29 13-43 11-27-4-83-20-169-47l-259-83c-87-28-140-47-160-57-20-10-33-19-39-28-6-9-8-19-6-31 3-19 22-25 58-19 34 5 80 23 138 53 56 29 163 69 321 121zm146 33c31-9 48-24 51-44 5-30-5-65-27-103-23-38-58-74-104-106-47-33-88-52-123-57-16-2-29-2-41 1-12 3-19 9-20 17-6 37 21 87 80 151 59 64 121 111 185 141zm15-512c-5-4-11-9-20-14-42-28-74-52-97-73-23-21-44-43-64-66-20-23-35-44-44-61-9-17-15-33-17-46-2-13-2-25 0-37 5-23 16-40 35-51 18-11 38-15 58-10 9 2 17 6 23 13 6 7 8 15 6 26-2 11-10 20-23 27-13 7-20 16-22 26-6 27 23 73 87 138 64 64 139 112 225 141 22 8 36 16 42 25 6 9 7 20 4 34-3 13-15 20-38 21-23 1-59-4-110-15-14-3-44-10-90-22-55-13-99-26-132-38-5-2-18-6-38-12-22-7-37-12-46-17-8-5-15-12-21-22-6-10-8-20-6-30 2-10 7-16 15-20 8-3 16-4 24-2 11 2 27 9 47 18 22 11 37 18 46 21 10 3 20 7 30 11 12 5 45 15 98 29l16 4 12 3zm-298-589c-1 5-9 8-23 7-4 0-9 0-15 1-21 2-38 1-52-3-12-3-22-13-30-28-9-16-11-31-7-46 2-8 8-15 17-23 9-7 16-10 23-9 10 3 25 10 46 23 21 13 34 27 38 43 4 16 5 28 3 35zm470 186c22 6 47 10 76 12 5 0 10 1 13 2 5 1 11 8 17 18 6 11 8 21 5 31-7 25-36 31-87 16-53-15-134-48-244-100-38-18-62-28-71-31-18-5-33-12-44-22-11-10-15-20-13-31 4-13 10-23 19-28 9-6 18-7 27-5 9 2 20 7 33 15 71 41 122 68 154 82 32 14 70 27 115 40zm63-454c-3 2 2 14 16 34 23 33 41 72 53 116 12 44 13 82 3 113-7 23-21 38-41 46-20 8-45 7-73-3-44-15-88-46-133-94-45-48-79-106-102-173-23-67-28-121-15-162 7-21 20-38 38-49 5-3 8-5 12-7 5-3 14-5 27-6 13 0 22 1 29 3 4 1 10 5 18 11 42 31 78 55 107 71 29 16 80 40 151 71 64 28 113 52 146 71 33 19 63 43 91 73 27 30 45 61 54 92 8 32 8 61-1 89-15 48-49 89-100 123-52 34-88 48-111 40-14-5-19-12-16-21 1-5 14-16 38-33 64-45 104-92 119-140 13-42-1-82-44-121-43-38-112-78-209-119-22-9-40-18-55-26zm-234-77c-7 22-3 53 12 94 15 41 41 85 80 132 39 47 74 76 107 86 11 4 21 3 29-1 8-4 14-10 16-18 7-23 4-57-11-102-14-46-41-89-79-131-38-42-70-67-97-76-32-11-51-5-57 16zm395-366c38 56 64 107 77 152 13 45 13 82 2 110-8 19-23 32-47 39-24 7-49 4-78-8-73-30-140-91-201-185-61-93-80-169-57-227 8-21 28-31 58-31 10 0 17-3 19-10 8-20 20-26 38-19 9 4 20 10 34 18 77 47 132 78 165 91 67 28 112 33 134 15 11-8 21-10 31-6 9 4 15 12 20 27 4 14 5 26 1 36-8 19-29 29-63 29-34 0-79-10-133-33zm-243-73c-13 33 6 85 58 157 52 72 100 117 145 136 32 13 52 10 59-9 11-27-5-78-48-152-42-74-89-122-141-143-40-16-64-13-73 11zm432-405c42 61 70 118 84 170 14 52 14 93-1 124-11 24-30 37-57 41-26 4-57-3-90-19-68-34-126-94-174-179-48-85-58-157-30-214 12-25 35-42 69-52l-239-182c-16-13-25-25-27-38-2-13-1-22 2-28 8-17 29-17 62 0 6 3 25 20 58 50 51 47 115 100 194 159 79 59 144 101 196 127 54 27 86 30 96 9 6-14 8-30 5-49-2-8-2-15 1-21 4-8 11-9 23-3 14 7 24 26 32 56 8 31 6 57-5 80-19 40-71 39-157-4-14-7-29-15-43-24zm-211-47c-19 39-8 93 33 161 41 68 86 114 136 139 34 17 55 15 65-5 9-19 9-47 0-85-9-38-31-83-66-136-35-53-64-85-88-97-12-6-26-7-44-3-17 4-29 12-36 27zm575-186c-19 31-48 49-86 53-39 4-78-6-117-31-66-41-119-102-159-181-40-80-44-147-10-203 22-37 56-57 101-60 45-3 89 9 133 36 66 41 114 103 142 186 28 83 27 149-3 200zm-177-44c26 16 50 24 72 25 22 0 38-7 48-23 20-34 20-82-1-142-21-61-57-107-108-138-32-20-61-29-88-28-27 1-48 13-61 35-22 37-16 84 19 142 34 58 75 101 120 130zm541-627c32 46 80 107 146 181l56 66c8 10 13 21 17 35 4 14 3 24-1 29-5 6-15 10-29 12-14 2-23 0-27-3-12-11-27-29-45-54-134-186-263-336-388-449l-28-25c-25-21-39-41-43-59-4-18-1-32 8-43 4-5 12-6 25-3 12 3 26 12 42 26 22 20 46 45 74 77 34 40 55 63 60 69-32-83-50-155-54-219-4-63 7-109 32-138 18-20 41-30 70-29 29 1 56 13 81 36 73 66 117 151 133 255 16 104 3 180-38 228-10 12-22 18-35 19-13 1-31-3-56-11zm-107-432c-25 28-26 90-3 186 23 95 51 158 84 188 8 7 20 10 34 9 15-1 28-8 39-21 25-29 30-83 15-164-15-80-45-141-91-182-16-15-31-23-46-25-14-2-25 2-33 10zm584-224c21 22 30 66 26 132-4 65-25 116-61 152-30 30-64 43-100 39-36-4-72-25-108-63-60-63-98-140-115-233-17-93-4-161 40-203 14-14 31-20 50-18 19 2 36 10 50 25 32 34 48 80 49 140 1 59-9 127-28 204-4 16-2 28 7 38 17 18 36 28 55 30 20 2 38-6 56-23 41-40 58-107 51-202-1-13 1-22 4-25 6-6 14-3 25 8zm-246 144c28-135 26-219-6-252-12-13-24-15-34-5-17 17-23 51-17 103 6 51 25 103 57 154zm14-760c14-13 30-9 49 12 16 19 47 71 91 157 28 54 62 110 103 169 41 59 74 103 101 134 33 38 68 73 104 107 7 6 12 11 15 14 10 11 15 24 16 38 0 14-3 25-11 32-10 10-24 9-41-3-17-11-40-34-70-67-67-76-141-178-224-305-82-127-127-205-135-232-7-28-6-46 4-55zm694 222c4 68 0 125-13 170-12 45-31 77-55 95-16 12-36 15-60 8-24-7-44-23-63-48-47-64-72-153-77-265-4-112 18-187 67-224 18-13 40-12 65 5 8 6 16 6 22 2 17-13 31-12 42 3 6 8 12 19 20 34 41 81 73 136 94 166 43 59 79 88 107 85 14-1 23 2 30 11 6 8 7 19 3 33-4 15-10 25-18 32-16 12-39 10-69-8-30-18-62-51-97-99zm-170-192c-28 21-38 76-31 165 7 89 25 153 54 193 20 28 39 36 55 24 23-18 36-69 38-155 2-86-14-151-47-197-25-35-48-45-68-30zm756-59c12 55 35 130 69 224l28 82c4 12 5 25 3 39-2 14-6 23-12 26-7 4-18 4-31 0-14-4-22-8-24-14-7-15-15-37-22-67-56-224-121-412-195-565l-17-34c-15-29-21-53-18-71 3-18 10-30 23-37 6-3 14 0 24 7 10 8 20 21 29 40 13 26 26 60 40 100 17 51 27 80 31 87 0-89 11-163 30-223 20-60 47-99 81-116 24-12 49-12 75 0 27 12 47 34 62 64 44 89 54 185 30 288-23 103-63 168-119 197-14 7-27 9-39 5-12-4-28-15-47-32zm59-442c-33 17-57 74-71 171-14 97-11 166 9 206 5 10 14 17 29 21 14 4 29 3 44-5 34-17 58-66 74-146 16-80 10-148-17-204-10-20-21-33-33-41-12-7-24-8-34-3zm365 83c0-6 0-14 0-25-2-51-2-92 1-123 3-31 8-61 15-91 7-30 14-54 23-72 9-18 17-32 26-41 9-10 19-17 29-22 21-9 41-10 61-1 20 9 34 23 42 42 4 9 5 17 3 27-2 9-7 16-17 20-10 5-22 4-35-3-13-6-24-7-34-3-25 11-45 62-58 152-14 90-8 180 20 269 7 23 9 39 5 49-4 10-12 18-24 23-12 5-25-1-39-19-14-18-32-51-53-99-6-13-18-42-36-87-21-53-37-97-47-132-2-6-6-19-13-39-8-22-12-38-13-48-1-9 1-20 5-30 5-11 12-18 21-22 9-4 17-4 24 1 7 5 13 11 16 18 5 11 9 27 13 49 4 25 7 41 10 50 3 10 6 20 9 32 3 13 14 46 34 98l6 16 5 11zm649-233c10 29 0 73-30 131-30 58-69 95-117 113-40 15-76 12-107-7-31-19-56-53-73-102-29-82-33-169-11-261 22-92 61-148 118-169 19-7 36-5 53 4 17 10 29 25 36 44 16 44 12 94-12 148-23 54-59 112-108 174-10 13-13 25-9 37 8 24 21 41 38 51 17 10 37 11 60 2 53-20 96-74 127-162 5-12 9-20 14-21 8-3 14 3 20 18zm-283 28c80-111 112-188 97-232-6-17-16-23-29-18-23 8-42 37-57 87-15 49-19 104-11 164zm577-65c-5-19-31-35-78-49-60-17-101-31-124-45-23-13-38-32-44-54-15-59-3-114 38-167 41-53 77-83 109-92 21-6 37-6 48 0 11 6 20 19 25 39 2 9 1 18-4 26-5 8-9 13-13 14-3 1-9 0-18-2-9-2-15-2-18-2-13 4-36 21-69 54-33 32-46 62-39 89 4 16 15 30 32 39 17 10 46 19 87 29 33 8 60 19 82 32 22 13 36 32 43 57 12 45-6 88-53 128-47 40-95 67-144 81-41 11-66 1-75-32-3-11-1-21 7-29 8-8 17-13 26-16 4-1 11-2 23-1 11 0 19 0 22-1 28-8 57-22 87-41 29-20 46-39 49-57zm461-170c7 30-8 72-44 126-37 54-79 87-129 99-41 10-76 4-106-19-29-23-49-59-61-110-20-85-14-172 18-260 32-89 77-140 136-154 19-5 37-1 52 10 15 12 26 28 30 48 11 46 1 94-28 146-29 51-71 105-127 161-12 11-16 23-13 36 6 25 16 43 32 55 16 12 36 15 60 9 55-13 103-62 144-147 6-12 12-18 16-19 8-2 14 5 18 20zm-284-5c92-101 132-175 121-220-4-18-13-25-27-22-24 6-46 32-66 80-20 47-30 101-28 162zm626-246c-14 2-27 14-41 36-14 23-33 72-57 148-32 102-54 160-65 175-11 15-21 23-29 24-31 4-48-12-53-46-2-14-2-35-1-63 4-93-1-191-13-292-1-12 1-25 8-40 7-15 14-23 22-24 14-2 24 2 31 11 7 9 12 28 16 58 4 31 3 95-1 192-1 32-2 52-1 61 1 5 2 7 4 7 4 0 18-39 42-115 24-78 47-133 68-166 21-33 46-51 76-55 24-3 44 7 62 30 18 23 34 67 49 132 16 74 28 120 36 137 8 18 19 26 31 24 8-1 18-6 30-14 2-1 3-2 4-2 11-1 18 6 20 21 2 13-5 29-18 45-14 17-31 27-53 29-22 3-41-5-55-24-15-19-31-72-48-160-18-88-38-131-62-128z"/><path d="m6890 2154c-2 8-3 19-4 31 6 6 17 10 32 11 11 0 22 2 31 7 10 5 17 14 22 26 5 13 8 35 9 66 0 16-11 36-35 62-23 25-57 39-102 39-6 0-15-2-27-6-11-4-21-8-29-13-4-2-5-3-5-3-13-7-19-18-19-31 0-8 3-16 8-25 6-9 11-13 17-13 4 0 11 4 21 11 16 15 29 23 39 23 27-1 45-5 54-14 8-9 13-24 12-44 0-12-3-22-10-30-6-8-14-12-24-12-3 0-10 2-18 6-8 5-15 7-19 7-15 0-22-7-23-23 6-17 11-33 15-47 4-14 8-26 11-35-47-20-71-66-72-138-1-80 24-164 77-254 53-89 103-134 150-135 21 0 40 13 56 39 16 26 24 55 25 85 0 18-3 34-9 47-6 13-13 20-20 20-15 0-26-17-33-53-8-38-18-57-32-57-27 1-59 39-95 115-36 76-54 140-53 192 1 52 27 77 78 76 39-1 84-23 136-66 18-15 32-23 40-23 9 0 13 6 14 18 0 23-23 53-69 89-47 36-93 55-138 55h-5c-1 0-3 0-4 0zm602-145c-45 51-88 87-128 109-40 22-75 31-105 26-20-3-36-16-47-38-12-22-15-48-10-79 13-79 57-159 133-241 76-81 144-117 204-107 22 4 36 21 42 51 2 10 6 16 14 17 21 3 30 14 27 33-2 9-5 22-10 38-28 86-45 148-51 185-12 73-7 119 15 137 10 9 15 19 13 29-1 9-9 18-21 26-13 8-24 11-35 9-20-3-34-22-42-56-8-34-7-81 2-140zm17-258c-34-6-80 25-138 92-58 67-90 125-98 174-6 35 2 54 21 57 29 5 74-22 135-81 61-58 97-116 106-172 7-43-2-67-26-71zm429-183c2-2 8-4 19-5 11-1 18-1 22 1 4 2 9 11 15 29l5 16c6 17 9 35 8 55 0 7-2 17-7 30-9 24-31 57-65 100-34 42-60 60-80 51-7-3-13-8-16-16-3-7-3-15 0-23 6-14 15-25 29-30 33-14 56-40 71-77 6-14 2-36-10-66-4-9-6-15-7-18-1-2 2-11 7-25 5-14 8-21 9-22zm242 112c2-2 9-3 20-3 11 0 18 1 22 4 4 2 8 12 12 31l3 16c4 18 5 36 2 55-1 7-4 17-11 29-12 23-37 53-75 91-38 38-67 52-86 42-7-4-12-10-14-17-3-8-2-15 2-23 7-14 18-23 33-27 34-10 60-33 79-68 7-13 6-36-3-67-3-10-4-16-5-18 0-2 3-10 9-24 6-13 10-20 12-21z"/></g><path d="m5414 18430c0 29 22 42 41 42 45 0 142-151 214-190l55 113c-19 29-91 88-122 115-35 30-64 52-64 82 0 32 32 35 55 35 30 0 135-137 179-141 8 34 27 50 35 84-46 25-83 61-126 90-64 43-24 86 4 90 39 6 123-91 164-102 14 59 14 19 14 99 0 65-133 145-184 171-50 26-200 89-265 89-91 0-350-507-386-577 58-14 246-121 294-151l193-141c19-16 42-40 65-46l48 106-171 164c-19 17-43 37-43 69zm-414-84c-4-19-6-21-14-35l377-270c22-16 39-28 60-44 25-19 37-37 67-44 14 21 28 42 35 70-69 47-143 111-244 180-60 41-216 128-280 144zm-807-880l102-107c27 50 45 91 74 139 109 184 199 259 266 362l-488 361c-26 20-44 39-78 47-40-27-290-361-290-373 0-17 99-120 124-127 5 21 41 75 57 104 40 71 88 15 88-5 0-27-66-124-90-169l68-65c33 26 128 158 151 166 29 11 97-25 28-93-19-19-22-27-38-46-25-28-58-59-78-90l40-44 120 155c58 74 95 21 95-6 0-22-23-42-35-56l-117-155zm172-169c16-31 14-24 41-42l188 238c33 41 64 81 95 121 23 30 81 90 90 127-10 15-54 56-76 56-17 0-126-147-144-170l-194-330zm1884 155c0 29 22 42 41 42 42 0 42-47 49-84 6-32 19-85 20-120 26 18 48 27 76 42-11 50-20 98-32 151-13 59-34 101 32 117 45-24 40-35 51-96 8-41 24-91 25-130l97 49c-5 21-12 32-20 50-35 86-101 196-8 196 35 0 81-156 104-204 20 11 78 44 97 49-1 57-131 337-138 366-37-1-110-20-147-26l-394-55c-31-5-46-10-80-10 4-44 39-97 55-134 35-80 144-375 145-436 35 8 27 20 62 28-10 45-34 162-34 204zm-331 303c-77 0-83-93-83-155 0-93 100-252 150-332 32-51 34-83 98-83 81 0 59 28 13 168-60 183-72 194-135 348-8 21-20 54-43 54zm-3064-479h-97c-121 0-286-62-347-125-142-145-95-541-95-741 56 5 120 13 180 14 55 0 132 13 186 14 183 5 326 14 518 14 1 31 6 29 7 63 1 26-2 50 2 76 6 42 1 101 7 148 9 67-4 206-19 274-38 176-166 263-342 263zm3485-993c45-4 169-41 215-55 147-46 257-96 395-146l198-80 50 139c20 50 36 91 54 142 172 473 84 525-350 637-62 16-136 32-210 32-140 0-263-104-303-205-55-138-49-274-49-464zm-1953 70c18-80 27-105 78-174 67-92 51-86 212-86 0 74 44 204 69 253-128 0-233 7-359 7zm393-275c118 0 57-18 168 132 16 22 30 44 48 64 18 19 40 45 53 65l-193 7c-28 0-58-97-67-122-10-29-12-46-19-79-6-29-23-66 10-66zm-183-71c6-10 13-22 22-36 16-25 12-25 46-28l2 61-70 3zm151-73l39-4 32 62-70 3-1-61zm-3080-222c26 0 52 31 75 43 152 79 207 99 388 153 474 142 582 114 1034 113 63 0 97 7 159 7h490c57 0 96 7 159 7 28 122 123 98 236 86l199-15c-20 39-46 66-67 108-18 37-37 87-37 139-273 0-785-9-1046 10l-135-2c-40 0-51-5-83-7-31-2-65 1-97 0-35-1-42-7-82-8-30 0-67 2-96-1l-538-28c-235-25-439-39-592-157-143-110-177-214-85-370 25-43 61-78 117-78zm3291 352c99 0 265-22 345-21 110 1 132-12 195-54 27-18 67-13 107-18 69-9 150-19 216-33 249-50 353-88 575-167l135-53c61-21-13 36 174-41 41-17 85-35 124-49 86-32 164-66 250-97 141-51 388-172 522-172h48c73 0 117 143 117 225 0 157-310 222-452 263-66 19-117 41-180 63-107 37-218 88-347 132l-361 118c-183 63-392 98-592 121-32 4-73 10-105 13l-221 21c-18 1-35-1-54 1-21 2-26 6-56 6-249 2-206 50-285-47-21-25-37-39-59-66-26-33-88-105-98-147zm-938-593c77-24 317-37 414-46 92-9 815-86 844-75 42 16 39 133 47 184 9 60 22 158 18 220-63 18-451 87-507 81-19-46-37-89-55-134-17-43-31-120-81-104-36 12-44 86-59 130-17 51-42 95-57 138l-345 35c-62 6-77 10-101-30-64-107-118-248-120-400zm505 486c-26 80-97 65-202 72-68 5-193 22-255 15-30-40-123-295-150-361-44-109-102-195-71-281 16-43 37-42 84-47 303-34 605-73 908-109 142-17 322-51 464-40 73 5 104 63 115 136 11 77 23 150 34 227 18 123 81 358-67 383-68 11-167 12-239 17-75 6-161 16-236 16l-35-65c150-20 287-53 428-72 170-24 128-117 98-361-27-216-46-235-264-213-154 15-307 30-461 45-82 8-618 53-675 72-81 28-63 96-55 188 9 108 91 301 145 365 49 58 111 46 198 37 78-8 158-18 237-23zm-761-561c-321 0-723 7-846-369-48-146-23-161-23-265 0-52 0-104 0-155 0-50 7-88 7-148-1-69 9-76 24-131 12-44 22-75 35-120 26-93 36-153 86-222 182-253 544-322 848-367l340-33c58-3 141-15 214-14 59 0 93-7 145-7 51 0 101 0 152 0 59 0 90-7 145-7h290c57 0 87 7 138 7 427-2 498 1 689 325 77 130 79 170 132 308 82 209 124 330 124 556 0 125-73 245-128 320-105 143-268 199-439 228-311 54-124 30-263-124-49-54-75-56-171-58-51-1-44-7-96 0l-1291 155c-62 6-105 55-110 120zm-1601-1725c-112 0-149-101-61-161 36-25 114-65 149-7 10 16 4 40-2 72-10 47-31 95-86 95zm1504 1816c53 0 38 4 83-7 2 27 9 37 18 59 10 22 16 38 24 60 24 61 128 305 137 346-99 0-198 0-297 0-102 0-189-7-297-7-197 0-404 6-601 0-35-1-99-9-132-13-149-19-237-44-377-80-72-19-429-117-429-174 0-422-31-947 129-1325 17-40 26-64 47-100 37-64 67-123 122-178 16-16 22-28 35-42 50-51 147-125 214-162 155-85 340-170 505-238 104-43 223-88 331-120 488-141 524-139 992-199l274-23c94-1 180-14 283-14h193c594 0 1449 271 1751 558l103 106c166 192 215 265 335 510 100 203 154 416 209 639l51 237c-30 3-85 21-115 31-255 85-511 187-759 289-144 59-286 108-442 154-110 33-388 93-506 96 44-94-35-355-35-472 49-1 279-44 324-56 98-26 190-71 260-129 45-38 56-49 93-95 34-42 49-70 77-118 148-255 57-517-23-764l-114-307c-9-19-16-26-25-44-37-74-81-147-129-213-40-55-84-100-143-136-108-67-301-80-473-80-579 0-1077-10-1636 83-83 14-176 34-248 56-223 70-494 208-566 443l-86 299c-21 65-17 220-16 293 1 183-41 332 81 529 21 33 42 56 66 87 36 47 133 103 184 130 138 71 317 91 524 91zm2850-2274c0-43 15-133 76-120 17 4 42 10 57 13 46 9 74 8 103 36 36 33 72 111 25 162-35 39-49 36-82 36-89 0-179-37-179-127zm-4285 612c-10-69-34-61 103-134l375-202c44-23 80-41 124-63 438-224 1134-488 1612-488 56 0 74 38 195 9 73-18 23-16 116-16 318 0 650 68 949 144 196 50 616 199 803 300-5 21-26 68-37 89-15 31-24 58-39 87-24-2-60-22-85-33-30-13-55-26-86-39-181-79-349-139-546-190-580-149-1178-133-1769-49-114 16-216 40-323 58-224 37-672 180-885 265l-198 86c-161 73-184 108-310 176zm4023-669l2 2c0 0-3-1-2-2zm-3836-366v204l-110-70 110-134zm-55 774c3-41 26-29 95-72l323-178c38-23 69-37 109-58l108-59c36-18 74-40 110-56l228-106c163-81 717-275 890-275 20 0 40 31 53 44 19 19 36 26 50 47-157 0-411 63-559 106-353 101-644 212-966 373l-442 232zm3885-408l-306-110c-256-88-585-145-858-181l-195-19 149-80c38-18 154 10 190 16 65 11 128 23 191 38 62 15 127 27 190 45 154 46 197 53 349 116 59 25 263 132 291 175zm-807-591c44 0 396 138 481 178l127 61c120 55 201 104 313 167 39 21 103 68 122 73-18 35-44 69-48 120-28-7-40-23-65-39-24-16-39-27-61-43-263-194-605-301-924-366-53-11-129-30-185-30 22-19 227-120 242-120zm-3112 901c-17-32-25-31-41-56l136-101c29-22 31-13 56-27 21-11 14-19 38-38 17-13 32-21 50-34l617-356 334-152c78-32 395-160 473-179l160 160c-68 4-309 74-385 96-120 35-357 128-472 180-37 17-75 37-113 53-77 32-146 72-218 109-36 18-68 35-106 54l-529 291zm173-324c11-136 7-241 7-380 182-98 410-190 613-248 219-63 470-103 733-125 22 15 54 41 62 70-84 7-550 218-655 261-107 44-247 125-346 175l-414 246zm-255-275c-25-7-18-9-37-26-11-10-29-23-39-30l170-193c18-24 24-28 43-48 20-22 121-135 126-153h14c7 26 7 15 21 35-107 163-74 146-219 312-15 17-26 32-40 51-15 20-31 28-38 53zm3836-500c8 0 158 123 196 173 11 14 16 17 26 30 58 74 102 192 102 325-26-18-58-35-88-52l-186-99c-35-18-66-30-99-47l-400-169c50 0 314-28 350-44 30-13 57-38 57-75 0-1-28-42 41-42zm-3974 380c-12-8-55-45-62-56l278-273c32-33 70-55 95-93 15 10 24 13 35 28l-345 394zm737-549c233 11 484 19 658-147 21-20 17-24 52-14 168 49 371 125 533 189 91 36 139 79 250 44 75-24 150-75 217-109 53-27 167-88 217-102 15 19 29 45 47 68 46 62 295 449 312 495-174 59-493 328-673 218-52-32-210-177-251-223-43-49-75-77-118-119l-115-115c-85-87-80-83-156-78-503 33-832 132-1289 347 12-56 116-197 148-239l166-217zm-247 176c-73-54-56-218 0-310 11-18 28-38 45-53 21-18 37-32 51-53 27 6 61 19 90 21 0 42 3 101 0 141-4 43-94 138-120 173-15 19-52 70-66 80zm2252-351c11-8 77-42 94-42 31 1 54 42 69 62 20 25 339 429 353 458l-163 78c-36-91-307-472-353-557zm-1845 98c-53 0-77-7-131-7l-7-113c136 0 160 24 349-24 69-18 180-67 203-67 8 32 26 34 35 70-35 10-47 52-194 98-77 24-153 43-255 43zm2132-56c33-34 102-67 155-89 74-31 114-42 192-20-41 66-179 51-168 122 12 76 153 25 204 11 73-20 147-42 221-63 59-17 172-67 216-31-11 37-146 57-205 71-50 12-192 23-195 77-3 78 160 26 211 17 71-13 169-39 236-26-12 19 7 6-23 18-22 9-321 43-384 66-13 37-16 45 12 70 18 9 285-16 339-21 43-4 69-4 86 25-81 28-310 26-399 42-47 9-59 54-17 80 45 11 226-6 290-5-27 16-453 60-453 60l-162-203c-28-36-52-67-80-102-26-33-59-67-76-99zm628-141l2 2c0 0-3-1-2-2zm-3257 113l7-148c21 2 73 26 90 35l-97 113zm-90-84c0 192 48 161 48 211 0 41-10 28-30 34-34 10-90 79-124 112l-164 157c-8-30-206-298 6-473 58-48 125-83 229-83 26 0 13 5 41 7-4 16-7 16-7 35zm1070-92c48-26 129-85 167-125 44-45 108-109 136-164 43 29 92 57 144 78 38 16 131 59 167 62 0 101 28 332 28 436-25-6-391-147-512-182-27-8-70-15-86-32-15-16-34-55-44-75zm835-204c30-16 57-36 83-56 14-11 23-19 38-31 20-17 20-26 44-32 26 113 263 363 352 387-12 17-285 146-311 148l-207-415zm6-309l18-41c27-93 69-390-86-390-58 0-95 76-97 134h-14c-12-54-103-138-157-83-14 15-1 0-11 17-10 15 0 3-11 17 0-193-61-372-154-533-28-48-67-77-81-128-5-17-2-13-10-32-26-56-65-108-102-156-23-31-70-58-80-94 37-3 149-8 126-72-13-36-117-47-154-55-55-12-121-21-173-35-35-10-36-23-50-54-20-45-17-66-67-66-79 0-173 62-228 92l27-107c13-37-7-72-45-67-97 14-197 142-266 208-48 45-108-21-177 59-17 20-34 39-63 41 1-47 41-146-28-155-47 11-131 90-158 128-41 56-66 134-82 212-17 83 2 45-48 92l-142 151c-196 267-175 625-77 934 4 13 5 17 9 26 9 21 7 9 13 22 15 30-50 110 75 164 48 21 103 25 169 25 36 69 104 124 160 174l61 51c-77 0-114-2-177 17-42 12-100 46-131 71-208 161-163 408-30 610-82 126-223 128-105 234 14 12 17 12 31 25 87 78 169 166 268 227 31 19 108 78 138 85 0 166 10 94-197 264-49 40-96 35-156 73-161 102-104 325 77 325 0 113 16 134-24 165-158 124-261 343-320 533-120 385-84 780-84 1182-189-45-304 167-304 303 0 259 317 399 528 433 88 14 205 32 293 32 0 77-7 127-7 204 0 218-19 474 150 628 41 38 122 74 185 93 209 62 484 55 629-103 160-175 98-543 98-773 34 0 36-4 62-7 73-6 154 5 227-1 213-18 511-7 732-7 1 40 19 71 36 97 79 125 205 204 298 316 218 263 26 485 19 572-26-7-15-4-31-25-11-15-16-20-27-36-20-26-37-44-56-69-26-34-80-113-116-129-62-28-111 47-144 81-102 104-211 205-307 313l-66 60c-42 43-79 80-121 123-176 180-108 171 59 400 30 41 60 79 91 119 128 168 172 92 338-35l407-303c90-69 179-102 179-197 0-43-72-118-96-149-68-87-65-51-20-159 49-115 105-251 66-409-17-70-37-117-76-169-20-27-32-46-56-70-63-63-207-194-250-252-23-31-28-48-45-81h407c28 122 345 356 345 655 0 309-65 407-76 556-16 224-28 187 48 338 17 33 29 62 48 92l-213 149c-107 72-14 162 24 240l55 106c63 127 189 344 280 439 26 27 61 58 102 58 71 0 261-77 309-107 120-74 242-149 190-311-7-21-5-13-12-30-18-43 3-34-30-75-39-49-50-130-80-165-26-31-39-72-58-110-12-24-16-28-22-55-7-37-12-26-31-53-52-73-54-145-99-223-74-128-113-91-229-2-39 30-83 66-126 89-3-35-24-57-39-87-11-23-38-72-42-91-7-33 12-218 17-247 37-198 83-369 63-574-14-144-88-256-165-367l-113-152c-17-22-46-55-52-80l227-7c31 5 164 135 188 168 87 120 150 256 208 393 56 134 162 369 274 446-62 120-81 326 62 401 117 61 486 80 648 113 138 28 187 53 249-106 26-67 131-288 108-349-11-30-34-46-59-60-155-80-309-171-465-251l-114-60c-13-5-34-10-50-12-182-32-204-12-337 246-80-60-179-261-215-351-57-145-163-382-263-492-31-34-72-58-95-93l193-7c215-11 601-60 794-106l12 270c28 206 91 350 280 432 130 57 289 21 419-12 73-19 149-37 214-63 388-157 231-494 110-803-13-33-54-126-55-162 31-3 346-104 372-114 52-20 117-50 158-85 67-58 92-108 92-202 0-112-54-254-162-285-56-16-100-4-152 0-38 2 2-3-31-3-25 0-24 8-48 14-106-463-185-819-453-1214-14-21-38-45-44-68 97-147 251-175 406-233 146-55 287-133 396-244 55-55 95-123 124-197 31-79 50-185 53-270 1-28-7-34-7-70 0-36-1-54-5-80-29-227-29-450-30-681l28-648-22-20c-19-7-767-15-1122-376-154-157-234-361-331-557-42-84-81-168-131-247-52-82-136-130-230-152-59-14-74 15-77-48-3-76-23-147-50-202-139-284-306-207-384-214-31-3-32-21-97-21-29 0-30 14-57 18-51 6-235-109-383 33-78 75-111 160-125 273-2 12-5 46-8 55-5 17-2 11-14 21-79 67-103 88-103 205-60 16-173 150-216 202-102 126-185 322-185 516 0 62-1 131 7 190 4 29 13 55 14 85h-62c-28 0-3-1-14 7l-8-6zm-475-149l14-35c0 9 1 10-2 19-1 1-1 4-2 5l-10 11zm883 63c0 99 125 160 192 83 18-21 29-55 29-90 0-55-22-61-41-92 118 28 288 32 404-3 53-16 98-40 143-65 34-19 90-65 117-92 23-24 82-93 109-100 17 75 118 209 165 269 33 42 186 182 236 196-14 61-49 141-76 190-67 119-188 233-306 301-92 52-88 39-143 66-83-127-291-37-382 12-57 30-151-9-168-28-65-74-41-4-101-37l-137-93c-216-178-331-463-296-769 4-37-15-36 107 39 52 32 106 58 166 77 27 9 45 7 58 25-44 10-76 60-76 113zm-690-218l21 28c56 98 43 260 117 260 27 0 21-7 41-21 0-140 6-178 35-303h14c58 255-131 447-7 449 56 1 101-52 173-13-16 62-214 152-214 190 0 38 10 37 25 66 23 43 200 393 202 420-55 13-141 77-186 77-24 0-27-5-48-7l-34-500c-4-56-71-61-165-100-32-13-60-26-91-41-32-16-59-33-90-49 9-17 16-29 21-49 120 59 189 22 109-76-7-9-38-45-40-51-10-21 2-45 7-70 70 53 47 122 145 99 22-93-35-121-35-310zm-90 84l2 2c0 0-3-1-2-2zm711-141l2 2c0 0-3-1-2-2zm1076-162l8-169c143 81 204 3 240-7 5 22 12 29 23 46 13 19 17 28 27 50 17 34 33 75 45 109 46 132 54 288 22 428-124-85-220-186-296-317l-69-140zm-1063 169c215 0 383-2 576-138 96-68 265-257 279-265 38-20 59 14 139-41 0 28-5 57-7 91-2 32-5 59-6 99-1 22-2 27-5 44-8 45-12 34-69 92-235 240-414 266-758 179l-148-61zm104-84c-143 0-204-35-269-35l50-139c23-43 45-79 73-116 67-92 181-181 187-189 51 35 76 63 152 63 61 0 104-45 152-56 33 64 97 77 166 77 49 0 65-26 104-35 8 13 15 24 26 37 13 15 18 17 29 33-32 48-141 145-192 192-121 111-310 167-478 167zm1034-496c131-48 176 159 80 189-134 42-183-151-80-189zm-288-104c123-54 193 133 74 184-109 47-202-128-74-184zm482 30v-28c61 0 109 21 150 44 45 25 71 54 97 98 101 173 176 375 266 531 69 119 156 245 263 330 41 33 68 54 113 82 165 101 387 168 583 208 90 19 259 45 349 45 0 57-14 119-14 197 0 45-7 57-7 98v592c0 462 186 807-326 1089-156 86-432 135-534 251-11 13-11 17-24 32-11 13-20 21-33 30-45-69-111-131-171-185-51-46-154-124-209-153l90-176 97 7c217 0 269-328-2-420-37-13-71-13-115-17-23-2-28-6-46-17-18-11-27-16-44-25 0-310-104-459-324-627-9-7-37-26-43-33-20-23-5-21-22-48-10-17-24-28-39-38 0 0 65-122-41-148 8-34 14-13 14-63 0-44-54-99-97-99-116 0-100 23-166 28 10-14 126-92 164-128 50-47 94-109 131-169 131-207 177-509 110-758-18-67-39-113-68-170-30-63-80-120-83-155-4-51 0-61-16-104-21-55-5-41-5-101zm-771-100c125-51 187 142 68 185-116 42-193-134-68-185zm-278-30c51-13 101 40 106 88 6 60-36 104-86 110-136 14-144-165-20-198zm-2256 59c216 18 250 246 317 246 16 0 31-14 41-21v-148c40 27 74 67 101 109 33 51 82 51 97-48 7-47-6-51 59-6 74 52 114 114 157 114 70 0 18-212 14-232 13 7 28 14 41 21 15 7 35 14 48 21 23 13 47 44 68 65 120 121 229 373 229 569v120c-40 0-76-8-102 44-51 101 52 166 40 223-27-2-22-7-55-7 7-30 52-92-35-92-23 0-38 39-49 56-167 288-393 419-738 394-210-15-380-176-516-318-67-71-105 3-80 38 19 27 77 79 104 106 145 148 314 266 588 266 163 0 291-40 396-103 47-29 104-71 141-110 21-21 43-41 62-64 10-12 18-23 27-35 14-18 13-26 37-33 1 36 14 49 28 70-14 22-42 60-60 79-72 75-47 59-142 137-210 174-563 238-830 133-119-47-288-136-366-239-17-22-26-29-42-49-31-40-37-68-106-68-42 0-138 1-138-35 0-72 71-47 97-133 17-55 24-30 43-76 27-64 16-134 10-199 38 24 17 35 70 35 62 0 22-155 21-225 102 0 151 27 92-101-27-58-52-173-57-237 43 12 146 113 166 113 60 0 62 2 62-56 0-58-56-152-69-211 88 7 186 92 207 92 78 0 25-172 21-204zm2788-436c36 0 106 115 122 150 33 73 30 148 30 251-76-37-95-10-151-21-27-6-47-9-77-14-36-6-27-16-58-32-21-11-44-17-73-17 6-75 29-150 62-197 19-26 109-119 145-119zm145 14c64 0 113 14 150 44 71 59 120 165 133 259 10 76 0 104 0 183-50-12-49-14-103-6-54 9-50-8-91-30l7-134c0-148-38-228-97-317zm-511 359c-53-36-45-64-131-84 0-75 24-152 50-202 44-83 123-101 205-101 40 0 49 11 83 14-25 38-82 73-111 175-22 76 2 172-96 198zm1401 4808v-183l179-7c30 0 60 1 90 1l174-13c30 2 18 39 19 76 3 161 56 199-57 308-67 64-242 58-336-13-54-41-70-75-70-168zm90-275h-90c0-139 26-262 112-350 16-16 20-25 42-34 113-49 189 27 234 122 34 69 60 149 60 249-39 0-53 4-83 7-31 3-65-1-96 0l-179 7zm124 584c102 0 178 3 257-69 105-95 97-228 79-366-18-140-3-309-84-457-109-201-253-255-425-101-106 95-124 263-131 401-3 63 7 109 7 176 0 136-13 230 57 301 57 58 128 114 240 114zm-4361-49c-111 0-215-7-278-111-21-35-25-90-17-148 6-47 5-106 5-164 22 2 25 7 48 7h414v183c0 41 9 13-1 91-7 51-49 96-89 121-21 13-49 21-83 21zm-76-894c88 0 141 20 193 134 36 78 48 159 48 260h-235c-80 0-134-7-214-7 0-70 23-180 53-242 23-49 92-145 154-145zm-304 746c0 92 119 195 218 221 94 25 213 28 293-24 175-114 123-265 124-387 1-168 5-323-60-460-18-39-55-98-83-126-151-155-391-35-455 223-33 135-37 401-37 553zm1318-451c0 80 95 42 174 23 44-11 89-20 130-29 240-51 712-152 959-162 42-2 107-9 146-13 102-12 210-2 316-8l469-7c53 0 124 13 124-42 0-54-60-55-116-48-89 10-390 6-491 6-102 0-216 13-318 14-197 1-709 92-871 125l-409 89c-40 8-113 13-113 53zm-14-289c59 0 159-34 215-48 587-149 1251-211 1869-177 63 3 207 18 207-42 0-33-16-49-48-49-558 0-985-16-1532 77-236 40-402 78-626 135-22 6-79 15-97 28-32 24-21 76 12 76zm-28-366c0 75 108 29 229 8 455-77 1042-163 1496-163 129 0 312-4 435 7 31 3 112 9 136-8 43-30 22-83-47-83-649 0-820-17-1483 78-135 19-269 36-405 59l-295 51c-38 7-67 8-67 51zm1980-2253c-264 0-411-121-564-297-21-25-28-46-64-55-35 19-54 35-28 77l123 143c102 100 307 216 464 216 229 0 303-17 475-156 81-66 208-265 208-344 0-35-49-44-74-13-26 32-137 428-540 428zm-718 3076v-84c44 0 57-7 97-7 44 192 21 156 21 268-108 0-99 31-108-45-6-48-10-81-10-131zm-90-99c0 57 1 347 60 369 7 2 160-7 180-11 98-19 51-367 1-442-53 0-101 8-146 13-64 7-95-1-95 72zm-1056-3773c0 211 255 230 255 35 0-82-52-169-131-169h-28c-52 0-97 76-97 134zm-614 92v35c0 72 69 155 138 155 168 0 141-310-28-310-63 0-110 56-110 120zm2622 204c0 136 133 156 188 93 56-64 44-206-91-206-51 0-97 58-97 113zm-659 4725l70-3-32-62-39 4 1 61zm-81 9l-2-61c-35 3-30 3-46 28-9 14-16 26-22 36l70-3z" stroke-width="7.62"/></g></g><g font-family="&apos;Arial Black&apos;" font-weight="900" font-size="586.02"><text x="10500" y="14850" transform="matrix(.98019 0 0 1-2325.72-8698.55)">NN 1</text><text x="10500" y="14850" transform="matrix(.98019 0 0 1-2272.32-8044.87)">NN 2</text></g><g fill="#fefefe"><path d="m14546 1340c1502 161 6066 1430 5737 8359-68 1440-240 2875-357 4313-232 2843-445 5686-392 8532 6 329 104 1983-770 3109-1095 1410-4069 1447-5156-37-543-741-796-1961-638-4270 144-2108 330-3961 20-5993-542-3559-2119-7096-1594-10770 133-2201 1270-3443 3150-3242zm-375 4760c-212 25-403-141-426-370-23-229 130-436 342-461 212-25 403 141 426 370 23 229-130 436-342 461m157 14074c-212 25-403-141-426-370-23-229 130-436 342-461 212-25 403 141 426 370 23 229-130 436-342 461m3992 1c-212 25-403-141-426-370-23-229 130-436 342-461 212-25 403 141 426 370 23 229-130 436-342 461"/><path d="m14507 1766c1188 127 2434 697 3336 1539 1713 1601 2157 4024 2045 6372-68 1436-239 2865-356 4297-233 2852-447 5712-394 8578 8 410 7 773-50 1183-83 589-268 1181-627 1642-943 1214-3621 1231-4542-28-705-963-632-2831-554-3973 141-2060 330-4035 16-6094-206-1354-553-2678-879-4002-532-2157-1036-4388-715-6633l3-19 1-19c109-1800 945-3034 2716-2844z"/></g><g clip-path="url(#1)"><g stroke="#373435" stroke-linejoin="round" stroke-linecap="round"><g fill-rule="nonzero"><g stroke-width="50"><path d="m14151 8965c-13-6-19-23-19-49 0-21 30-41 89-61 60-20 112-30 156-30 49 0 88 14 117 43 29 29 43 67 43 115 0 71-27 134-82 190-55 56-129 97-222 124-25 7-38 13-41 18-3 5-5 33-7 86-2 53-3 89-3 109 0 14-3 27-10 39-6 11-14 17-22 17-20 0-30-19-30-57 0-21 4-79 12-174l24-285c1-5 1-19 1-41 0-23-2-37-6-43zm70-27c-2 9-3 27-5 52-3 44-7 94-12 148-2 28-5 59-7 92 74-14 140-44 197-88 57-45 86-94 86-147 0-65-36-98-107-98-47 0-98 14-153 42zm576 423c-31 60-63 105-93 136-31 30-59 45-85 45-17 0-32-10-45-31-13-21-19-48-19-80 0-84 26-175 79-272 53-97 105-146 158-146 19 0 33 15 42 46 3 10 8 15 14 15 18 0 27 10 27 30 0 10-1 24-3 41-12 95-18 161-18 200 0 78 10 124 31 140 10 8 15 17 15 28 0 10-5 20-15 30-10 10-19 15-28 15-17 0-32-17-43-51-11-34-17-82-17-145zm-21-271c-30 0-64 40-104 119-39 79-59 145-59 197 0 37 9 55 26 55 25 0 59-36 103-107 44-71 66-137 66-196 0-46-11-69-32-69zm267 255c2-6 5-14 8-24 15-50 29-89 42-118 13-28 27-55 42-81 15-26 30-46 42-59 13-13 24-23 35-28 10-5 20-8 30-8 20 0 36 9 48 25 12 17 19 36 19 59 0 10-2 19-7 27-4 8-11 12-20 12-9 0-18-6-26-18-8-12-17-18-25-18-23 0-56 40-97 121-41 81-67 170-76 267-2 25-6 42-13 50-6 8-15 12-27 12-11 0-19-12-24-35-5-23-7-63-7-118 0-15 1-48 2-99 1-61 4-109 8-147 1-6 2-20 3-43 2-25 4-42 6-52 2-10 7-19 15-27 7-8 15-12 24-12 8 0 15 4 19 11 4 8 6 16 6 24 0 12-2 30-7 53-5 25-8 43-9 52-1 11-2 22-4 34-2 14-5 50-7 109v18 13zm512 16c-31 60-63 105-93 136-31 30-59 45-85 45-17 0-32-10-45-31-13-21-19-48-19-80 0-84 26-175 79-272 53-97 105-146 158-146 19 0 33 15 42 46 3 10 7 15 14 15 18 0 27 10 27 30 0 10-1 24-3 41-12 95-18 161-18 200 0 78 10 124 31 140 10 8 15 17 15 28 0 10-5 20-15 30-10 10-19 15-28 15-17 0-32-17-43-51-11-34-17-82-17-145zm-21-271c-30 0-64 40-104 119-39 79-59 145-59 197 0 37 9 55 26 55 25 0 59-36 103-107 44-71 66-137 66-196 0-46-11-69-32-69zm645 336c0-21-18-44-54-71-46-33-77-60-93-80-16-20-24-43-24-67 0-64 22-117 67-159 45-42 82-63 110-63 18 0 31 5 40 13 8 9 12 25 12 47 0 10-3 18-9 25-6 7-11 11-14 11-3 0-7-2-15-7-7-4-12-7-14-7-11 0-34 12-69 35-34 23-52 50-52 79 0 18 6 34 18 49 12 15 34 33 65 54 25 17 46 36 61 55 15 20 23 43 23 69 0 49-24 87-71 115-47 28-93 42-136 42-36 0-55-18-55-53 0-12 4-21 12-27 8-6 16-9 25-9 3 0 10 2 19 5 9 3 15 5 18 5 25 0 52-6 80-18 29-12 46-27 53-44zm413-53c0 33-20 72-61 118-41 46-83 69-126 69-36 0-64-15-84-46-20-30-30-73-30-127 0-92 22-179 65-262 43-83 91-124 143-124 17 0 31 8 41 24 11 16 16 35 16 57 0 49-17 97-51 142-34 45-79 90-136 133-12 9-18 20-18 34 0 27 5 48 16 64 11 16 27 24 48 24 48 0 98-38 148-114 8-11 13-16 17-16 7 0 11 8 11 25zm-235-75c96-81 143-146 143-195 0-19-6-29-18-29-21 0-44 22-70 65-26 43-44 96-55 159zm373 47c2-6 5-14 8-24 15-50 29-89 42-118 13-28 27-55 42-81 15-26 30-46 42-59 13-13 24-23 35-28 10-5 20-8 30-8 20 0 36 9 48 25 12 17 19 36 19 59 0 10-2 19-7 27-4 8-11 12-20 12-9 0-18-6-26-18-8-12-17-18-25-18-23 0-56 40-97 121-41 81-67 170-76 267-2 25-6 42-13 50-6 8-15 12-27 12-11 0-19-12-24-35-5-23-7-63-7-118 0-15 1-48 2-99 1-61 4-109 8-147 1-6 2-20 3-43 2-25 4-42 6-52 2-10 7-19 15-27 7-8 15-12 24-12 8 0 15 4 19 11 4 8 6 16 6 24 0 12-2 30-7 53-5 25-8 43-9 52-1 11-2 22-4 34-2 14-5 50-7 109v18 13zm546-189c-21 1-66 89-134 265-23 59-37 92-41 97-4 5-11 10-21 14-10 4-19 6-25 6-15 0-23-42-23-126 0-47 7-132 21-256 6-50 9-86 9-107 0-21 7-32 20-32 25 0 37 26 37 77 0 24-4 71-12 141-10 80-15 129-15 146 14-19 34-61 61-126 38-89 67-146 85-170 18-24 37-36 56-36 15 0 26 14 35 42 9 28 14 94 16 200 0 26 2 46 5 59 3 13 5 19 6 19 11 0 34-51 69-154 19-54 37-95 55-124 18-28 38-42 60-42 18 0 31 13 40 40 8 27 14 66 18 119 3 53 9 102 16 146 7 44 20 73 39 85 13 9 19 19 19 30 0 11-5 23-16 34-11 12-21 18-30 18-18 0-34-16-48-47-14-32-25-99-32-204-3-42-6-72-9-89-3-18-7-27-14-27-9 0-21 13-34 39-13 26-34 78-63 156-22 61-40 102-51 122-12 20-23 31-34 31-10 0-18-6-26-17-8-11-12-24-15-40-2-15-4-54-6-115-3-101-10-160-19-177zm554 404c-31 0-56-17-76-50-20-33-30-75-30-124 0-83 20-164 59-245 39-80 86-120 140-120 36 0 65 20 88 59 22 39 34 86 34 141 0 83-23 161-69 232-46 71-94 107-144 107zm-47-186c0 32 5 59 14 79 10 21 22 31 38 31 34 0 67-26 101-79 34-53 51-111 51-175 0-40-6-71-19-96-13-24-30-37-52-37-36 0-67 32-93 95-26 63-39 124-39 181zm509 52c0-21-18-44-54-71-46-33-77-60-93-80-16-20-24-43-24-67 0-64 22-117 67-159 45-42 82-63 110-63 18 0 31 5 40 13 8 9 12 25 12 47 0 10-3 18-9 25-6 7-11 11-14 11-3 0-7-2-15-7-7-4-12-7-14-7-11 0-34 12-69 35-34 23-52 50-52 79 0 18 6 34 18 49 12 15 34 33 65 54 25 17 46 36 61 55 15 20 23 43 23 69 0 49-24 87-71 115-47 28-93 42-136 42-36 0-55-18-55-53 0-12 4-21 12-27 8-6 16-9 25-9 3 0 10 2 19 5 9 3 15 5 18 5 25 0 52-6 80-18 29-12 46-27 53-44z"/><path d="m13349 11112c-2 8-6 15-13 20-7 5-14 8-21 8-23 0-34-24-34-72 0-23 5-87 16-193 6-65 10-114 10-148 0-6-5-13-14-23-10-9-15-18-15-26 0-14 7-29 22-45 11-12 18-26 21-42 3-15 6-37 9-64 11-99 29-171 54-215 24-44 56-66 93-66 20 0 37 10 51 29 14 19 21 43 21 72 0 23-4 50-12 80-8 30-17 44-27 44-7 0-11-5-11-16l2-47c0-62-12-93-37-93-26 0-48 37-65 110-17 74-26 133-26 180 0 15 7 22 20 22 59 0 93 0 104-1 10-1 16 6 16 19 0 13-6 23-17 30-11 7-36 13-75 19-33 5-51 9-55 12-15 119-23 225-23 319 0 28 1 49 3 62 2 12 2 20 2 24zm479-185c0 33-20 72-61 118-41 46-83 69-126 69-36 0-64-15-84-46-20-30-30-73-30-127 0-92 22-179 65-262 43-83 91-124 143-124 17 0 31 8 41 24 11 16 16 35 16 57 0 49-17 97-51 142-34 45-79 90-136 133-12 9-18 20-18 34 0 27 5 48 16 64 11 16 27 24 48 24 48 0 98-38 148-114 7-11 13-16 17-16 7 0 11 8 11 25zm-235-75c96-81 143-146 143-195 0-19-6-29-18-29-21 0-44 22-70 65-26 43-44 96-55 159zm423-576c16 0 24 15 24 44 0 26-10 89-29 187-12 62-22 131-29 206-7 75-10 134-10 176 0 53 2 106 7 158 1 10 1 17 1 22 0 16-4 30-11 41-8 11-16 17-24 17-12 0-20-11-25-32-5-21-7-55-7-102 0-107 9-240 27-399 18-159 33-251 43-278 11-27 22-40 33-40zm188 170c-5 0-8-7-11-22-1-4-2-9-4-15-6-21-9-39-9-54 0-13 5-26 16-39 11-13 23-20 36-20 7 0 14 4 22 11 8 7 12 14 12 21 0 11-3 29-8 54-6 25-14 42-26 51-12 9-21 13-28 13zm-44 537c0 24 2 52 7 82 1 6 1 11 1 14 0 6-4 13-11 22-7 9-15 14-24 14-22 0-33-29-33-86 0-59 9-152 26-280 6-45 9-72 9-82 0-20 3-37 8-52 5-14 12-22 22-22 12 0 21 4 27 12 7 8 10 17 10 26 0 10-1 22-5 38-17 85-27 145-31 182-4 36-6 80-6 130zm422 101c-6-4-12-7-17-12-20-14-47-21-80-21-20 0-52 5-98 16-46 11-77 27-94 49-12 14-24 22-36 22-7 0-15-3-24-9-9-6-13-14-14-23 11-17 25-39 44-65 102-147 179-269 232-365-1-3-5-4-11-4-12 0-37 4-76 12-18 4-36 6-55 6-46 0-69-17-69-52 0-26 10-39 31-39 1 0 3 1 6 2 16 10 36 14 59 14 30 0 65-3 103-11 4-1 8-2 14-3 5-1 11-2 17-4 13-3 23-5 31-5 8 0 15 3 23 9 8 6 11 15 10 28v2c-5 28-65 129-179 302-27 42-42 67-44 75 1 3 3 5 7 5 3 0 19-4 47-13 53-16 93-24 121-24 43 0 64 19 64 56 0 23-4 41-13 54zm350-158c0 33-20 72-61 118-41 46-83 69-126 69-36 0-64-15-84-46-20-30-30-73-30-127 0-92 22-179 65-262 43-83 91-124 143-124 17 0 31 8 41 24 11 16 16 35 16 57 0 49-17 97-51 142-34 45-79 90-136 133-12 9-18 20-18 34 0 27 5 48 16 64 11 16 27 24 48 24 48 0 98-38 148-114 8-11 13-16 17-16 7 0 11 8 11 25zm-235-75c96-81 143-146 143-195 0-19-6-29-18-29-21 0-44 22-70 65-26 43-44 96-55 159zm475 128c0-21-18-44-54-71-46-33-77-60-93-80-16-20-24-43-24-67 0-64 22-117 67-159 45-42 82-63 110-63 18 0 31 5 40 13 8 9 12 25 12 47 0 10-3 18-9 25-6 7-11 11-14 11-3 0-7-2-15-7-7-4-12-7-14-7-11 0-34 12-69 35-34 23-52 50-52 79 0 18 6 34 18 49 12 15 34 33 65 54 25 17 46 36 61 55 15 20 23 43 23 69 0 49-24 87-71 115-47 28-93 42-136 42-36 0-55-18-55-53 0-12 4-21 12-27 8-6 16-9 25-9 3 0 10 2 19 5 9 3 15 5 18 5 25 0 52-6 80-18 29-12 46-27 53-44z"/><path d="m15697 11065c-11 58-21 139-31 243l-9 91c-2 13-6 26-13 38-7 13-13 19-19 19-7 0-15-5-24-15-9-10-13-18-13-24 0-18 3-42 8-73 41-237 62-445 62-624v-40c0-35 4-60 13-75 9-16 19-24 31-24 5 0 11 6 16 18 5 12 7 29 7 51 0 31-2 69-7 113-6 56-9 88-9 96 34-83 69-148 107-195 38-47 72-70 105-70 23 0 42 12 58 36 16 24 24 54 24 90 0 104-28 199-84 285-56 85-111 128-164 128-13 0-24-5-32-14-8-10-16-27-24-53zm210-387c-32 0-71 42-118 127-47 85-70 150-70 198 0 12 5 23 14 34 9 11 21 16 35 16 32 0 69-34 111-102 42-68 63-134 63-200 0-23-3-41-10-54-7-13-15-19-25-19zm240 252c2-6 5-14 8-24 15-50 29-89 42-118 13-28 27-55 42-81 15-26 30-46 42-59 13-13 24-23 35-28 10-5 20-8 30-8 20 0 36 9 48 25 12 17 19 36 19 59 0 10-2 19-7 27-4 8-11 12-20 12-9 0-18-6-26-18-8-12-17-18-25-18-23 0-56 40-97 121-41 81-67 170-76 267-2 25-6 42-13 50-6 8-15 12-27 12-11 0-19-12-24-35-5-23-7-63-7-118 0-15 1-48 2-99 1-61 4-109 8-147 1-6 2-20 3-43 2-25 4-42 6-52 2-10 7-19 15-27 7-8 15-12 24-12 8 0 15 4 19 11 4 8 6 16 6 24 0 12-2 30-7 53-5 25-8 43-9 52-1 11-2 22-4 34-2 14-4 50-7 109v18 13zm576 28c0 33-20 72-61 118-41 46-83 69-126 69-36 0-64-15-84-46-20-30-30-73-30-127 0-92 22-179 65-262 43-83 91-124 143-124 17 0 31 8 41 24 11 16 16 35 16 57 0 49-17 97-51 142-34 45-79 90-136 133-12 9-18 20-18 34 0 27 5 48 16 64 11 16 27 24 48 24 48 0 98-38 148-114 8-11 13-16 17-16 7 0 11 8 11 25zm-235-75c96-81 143-146 143-195 0-19-6-29-18-29-21 0-44 22-70 65-26 43-44 96-55 159zm397 265c-34 0-60-14-78-41-18-28-27-66-27-116 0-84 23-172 70-265 47-93 90-139 130-139 18 0 34 14 47 42 13 28 20 58 20 89 0 19-3 35-9 49-6 14-12 21-17 21-13 0-22-19-28-56-6-40-15-61-26-61-23 0-51 40-83 119-32 79-48 146-48 201 0 54 22 82 65 82 33 0 72-22 117-66 16-16 27-24 35-24 8 0 11 6 11 19 0 24-20 55-60 92-40 37-80 55-118 55zm367-671c-5 0-8-7-11-22-1-4-2-9-4-15-6-21-9-39-9-54 0-13 5-26 16-39 11-13 23-20 36-20 7 0 14 4 22 11 8 7 12 14 12 21 0 11-3 29-8 54-6 25-14 42-26 51-12 9-21 13-28 13zm-44 537c0 24 2 52 7 82 1 6 1 11 1 14 0 6-4 13-11 22-8 9-15 14-24 14-22 0-33-29-33-86 0-59 9-152 26-280 6-45 9-72 9-82 0-20 3-37 8-52 5-14 12-22 22-22 12 0 21 4 27 12 7 8 10 17 10 26 0 10-1 22-5 38-17 85-27 145-31 182-4 36-6 80-6 130zm305-3c0-21-18-44-54-71-46-33-77-60-93-80-16-20-24-43-24-67 0-64 22-117 67-159 45-42 82-63 110-63 18 0 31 5 40 13 8 9 12 25 12 47 0 10-3 18-9 25-6 7-11 11-14 11-3 0-7-2-15-7-7-4-12-7-14-7-11 0-34 12-69 35-34 23-52 50-52 79 0 18 6 34 18 49 12 15 34 33 65 54 25 17 46 36 61 55 15 20 23 43 23 69 0 49-24 87-71 115-47 28-93 42-136 42-36 0-55-18-55-53 0-12 4-21 12-27 8-6 16-9 25-9 3 0 10 2 19 5 9 3 15 5 18 5 25 0 52-6 80-18 29-12 46-27 53-44zm351-65c-31 60-63 105-93 136-31 30-59 45-85 45-17 0-32-10-45-31-13-21-19-48-19-80 0-84 26-175 79-272 53-97 105-146 158-146 19 0 33 15 42 46 3 10 7 15 14 15 18 0 27 10 27 30 0 10-1 24-3 41-12 95-18 161-18 200 0 78 10 124 31 140 10 8 15 17 15 28 0 10-5 20-15 30-10 10-19 15-28 15-17 0-32-17-43-51-11-34-17-82-17-145zm-21-271c-30 0-64 40-104 119-39 79-59 145-59 197 0 37 9 55 26 55 25 0 59-36 103-107 44-71 66-137 66-196 0-46-11-69-32-69zm454 65c-21 1-66 89-134 265-23 59-37 92-41 97-4 5-11 10-21 14-10 4-19 6-25 6-15 0-23-42-23-126 0-47 7-132 21-256 6-50 9-86 9-107 0-21 7-32 20-32 25 0 37 26 37 77 0 24-4 71-12 141-10 80-15 129-15 146 14-19 34-61 61-126 38-89 66-146 85-170 18-24 37-36 56-36 15 0 26 14 35 42 9 28 14 94 16 200 0 26 2 46 5 59 3 13 5 19 6 19 11 0 34-51 69-154 19-54 37-95 55-124 18-28 38-42 60-42 18 0 31 13 40 40 8 27 14 66 18 119 3 53 9 102 16 146 7 44 20 73 39 85 13 9 19 19 19 30 0 11-5 23-16 34-11 12-21 18-30 18-18 0-34-16-48-47-14-32-25-99-32-204-3-42-6-72-9-89-3-18-7-27-14-27-9 0-21 13-34 39-13 26-34 78-63 156-22 61-40 102-51 122-12 20-23 31-34 31-10 0-18-6-26-17-8-11-12-24-15-40-2-15-4-54-6-115-3-101-10-160-19-177zm554 404c-31 0-56-17-76-50-20-33-30-75-30-124 0-83 20-164 59-245 39-80 86-120 140-120 36 0 65 20 88 59 22 39 34 86 34 141 0 83-23 161-69 232-46 71-94 107-144 107zm-47-186c0 32 5 59 14 79 10 21 22 31 38 31 34 0 67-26 101-79 34-53 51-111 51-175 0-40-6-71-19-96-13-24-30-37-52-37-36 0-67 32-93 95-26 63-39 124-39 181zm509 52c0-21-18-44-54-71-46-33-77-60-93-80-16-20-24-43-24-67 0-64 22-117 67-159 45-42 82-63 110-63 18 0 31 5 40 13 8 9 12 25 12 47 0 10-3 18-9 25-6 7-11 11-14 11-3 0-7-2-15-7-7-4-12-7-14-7-11 0-34 12-69 35-34 23-52 50-52 79 0 18 6 34 18 49 12 15 34 33 65 54 25 17 46 36 61 55 15 20 23 43 23 69 0 49-24 87-71 115-47 28-93 42-136 42-36 0-55-18-55-53 0-12 4-21 12-27 8-6 16-9 25-9 3 0 10 2 19 5 9 3 15 5 18 5 25 0 52-6 80-18 29-12 46-27 53-44z"/><path d="m14248 12627c-30 69-62 122-96 159-34 37-65 56-93 56-22 0-39-12-52-36-13-24-19-56-19-95 0-81 23-164 69-250 46-85 96-128 150-128 23 0 45 14 65 43l47-314c3-22 10-36 19-43 9-7 16-11 21-11 16 0 24 20 24 60 0 7-5 33-16 79-16 71-32 157-47 260-15 103-22 185-22 247 0 64 10 96 29 96 13 0 26-6 39-18 6-6 11-9 16-9 7 0 11 7 11 20 0 16-10 35-30 57-20 21-41 32-62 32-37 0-56-51-56-153 0-17 0-35 2-52zm-44-225c-36 0-73 35-108 106-36 70-54 135-54 195 0 40 9 60 28 60 18 0 39-13 64-39 25-26 51-68 77-126 27-58 40-101 40-130 0-14-5-29-14-43-9-15-20-22-34-22zm548 261c0 33-20 72-61 118-41 46-83 69-126 69-36 0-64-15-84-46-20-30-30-73-30-127 0-92 22-179 65-262 43-83 91-124 143-124 17 0 31 8 41 24 11 16 16 35 16 57 0 49-17 97-51 142-34 45-79 90-136 133-12 9-18 20-18 34 0 27 5 48 16 64 11 16 27 24 48 24 48 0 98-38 148-114 8-11 13-16 17-16 7 0 11 8 11 25zm-235-75c96-81 143-146 143-195 0-19-6-29-18-29-21 0-44 22-70 65-26 43-44 96-55 159zm820 29c-29 69-58 122-89 160-30 38-58 57-84 57-15 0-30-12-45-37-15-25-23-63-23-114 0-42 7-104 21-186 12-68 18-116 18-144 7-19 17-29 31-29 9 0 17 5 23 14 6 9 8 19 8 30 0 22-6 54-16 96-21 80-31 150-31 207 0 53 9 79 26 79 22 0 50-26 83-79 34-53 63-127 87-221 9-38 17-62 23-74 6-11 14-17 24-17 15 0 23 14 23 43 0 3-2 15-6 35-13 70-20 137-20 199 0 75 9 124 26 146 9 12 13 21 13 29 0 9-4 17-14 25-9 7-17 11-25 11-16 0-28-17-38-50-10-33-15-83-15-148v-16c0-5 0-10 0-16zm438-171c-21 1-66 89-134 265-23 59-37 92-41 97-4 5-11 10-21 14-10 4-19 6-25 6-15 0-23-42-23-126 0-47 7-132 21-256 6-50 9-86 9-107 0-21 7-32 20-32 25 0 37 26 37 77 0 24-4 71-12 141-10 80-15 129-15 146 14-19 34-61 61-126 38-89 67-146 85-170 18-24 37-36 56-36 15 0 26 14 35 42 9 28 14 94 16 200 0 26 2 46 5 59 3 13 5 19 6 19 11 0 34-51 69-154 19-54 37-95 55-124 18-28 38-42 60-42 18 0 31 13 40 40 8 27 14 66 18 119 3 53 9 102 16 146 7 44 20 73 39 85 13 9 19 19 19 30 0 11-5 23-16 34-11 12-21 18-30 18-18 0-34-16-48-47-14-32-25-99-32-204-3-42-6-72-9-89-3-18-7-27-14-27-9 0-21 13-34 39-13 26-34 78-63 156-22 61-40 102-51 122-12 20-23 31-34 31-10 0-18-6-26-17-8-11-12-24-15-40-2-15-4-54-6-115-3-101-10-160-19-177zm1014-308c2 2 3 10 3 23 0 14-1 24-3 31l4 20c7 38 15 69 22 93 9 33 18 68 27 105 20 86 41 160 63 221 22 61 42 105 60 129 11 16 18 27 21 32 3 6 4 13 4 21 0 14-3 26-10 36-7 10-15 15-24 15-29 0-64-64-105-194-16-51-26-76-30-76-11 0-34 5-70 14-36 9-68 20-98 33-17 7-28 11-32 11-6 0-12-4-18-12-1-1-2-2-4-2-5 0-16 21-32 63-27 69-44 110-51 123-7 13-15 20-24 20-6 0-13-5-22-15-9-10-13-21-13-31 0-10 4-24 12-42 8-17 25-53 50-106 45-94 82-182 113-264 48-131 79-208 92-232 13-23 23-35 30-35 15 0 26 6 33 17zm21 382c-8-26-19-73-35-141-17-73-27-117-32-133-12 37-32 90-57 158l-61 165c5-5 17-9 37-12 16-2 29-5 41-9 61-18 97-27 107-28zm490-75c-21 1-66 89-134 265-23 59-37 92-41 97-4 5-11 10-21 14-10 4-19 6-25 6-15 0-23-42-23-126 0-47 7-132 21-256 6-50 9-86 9-107 0-21 7-32 20-32 25 0 37 26 37 77 0 24-4 71-12 141-10 80-15 129-15 146 14-19 34-61 61-126 38-89 66-146 85-170 18-24 37-36 56-36 15 0 26 14 35 42 9 28 14 94 16 200 0 26 2 46 5 59 3 13 5 19 6 19 11 0 34-51 69-154 19-54 37-95 55-124 18-28 38-42 60-42 18 0 31 13 40 40 8 27 14 66 18 119 3 53 9 102 16 146 7 44 20 73 39 85 13 9 19 19 19 30 0 11-5 23-16 34-11 12-21 18-30 18-18 0-34-16-48-47-14-32-25-99-32-204-3-42-6-72-9-89-3-18-7-27-14-27-9 0-21 13-34 39-13 26-34 78-63 156-22 61-40 102-51 122-12 20-23 31-34 31-10 0-18-6-26-17-8-11-12-24-15-40-2-15-4-54-6-115-3-101-10-160-19-177zm554 404c-31 0-56-17-76-50-20-33-30-75-30-124 0-83 20-164 59-245 39-80 86-120 140-120 36 0 65 20 88 59 22 39 34 86 34 141 0 83-23 161-69 232-46 71-94 107-144 107zm-47-186c0 32 5 59 14 79 10 21 22 31 38 31 34 0 67-26 101-79 34-53 51-111 51-175 0-40-6-71-19-96-13-24-30-37-52-37-36 0-67 32-93 95-26 63-39 124-39 181zm408-29c2-6 5-14 8-24 15-50 29-89 42-118 13-28 27-55 42-81 15-26 30-46 42-59 13-13 24-23 35-28 10-5 20-8 30-8 20 0 36 9 48 25 12 17 19 36 19 59 0 10-2 19-7 27-4 8-11 12-20 12-9 0-18-6-26-18-8-12-17-18-25-18-23 0-56 40-97 121-41 81-67 170-76 267-2 25-6 42-13 50-6 8-15 12-27 12-11 0-19-12-24-35-5-23-7-63-7-118 0-15 1-48 2-99 1-61 4-109 8-147 1-6 2-20 3-43 2-25 4-42 6-52 2-10 7-19 15-27 7-8 15-12 24-12 8 0 15 4 19 11 4 8 6 16 6 24 0 12-2 30-7 53-5 25-8 43-9 52-1 11-2 22-4 34-2 14-5 50-7 109v18 13zm290 282c42-15 69-36 81-63 12-27 18-46 18-58 0-33-3-56-9-69-3-6-4-12-4-18 0-5 2-12 5-21 3-9 6-13 9-13 5 0 12 2 22 7 10 5 16 9 18 13 2 4 5 16 9 36 4 20 6 37 6 52 0 5-4 22-13 51-8 28-20 51-35 66-15 16-28 25-41 29-5 1-10 3-15 5-18 11-32 17-44 17-7 0-10-8-10-23 0-6 1-10 2-12z"/><path d="m14404 14045c-29 69-58 122-89 160-30 38-58 57-84 57-15 0-30-12-45-37-15-25-23-63-23-114 0-42 7-104 21-186 12-68 18-116 18-144 7-19 17-29 31-29 9 0 17 5 23 14 6 9 8 19 8 30 0 22-6 54-16 96-21 80-31 150-31 207 0 53 9 79 26 79 22 0 50-26 83-79 34-53 63-127 87-221 9-38 17-62 23-74 6-11 14-17 24-17 15 0 23 14 23 43 0 3-2 15-6 35-13 70-20 137-20 199 0 75 9 124 26 146 9 12 13 22 13 29 0 9-4 17-14 25-9 7-17 11-25 11-16 0-28-17-38-50-10-33-15-83-15-148v-16c0-5 0-10 0-16zm438-171c-21 1-66 89-134 265-23 59-37 92-41 97-4 5-11 10-21 14-10 4-19 6-25 6-15 0-23-42-23-126 0-47 7-132 21-256 6-50 9-86 9-107 0-21 7-32 20-32 25 0 37 26 37 77 0 24-4 71-12 141-10 80-15 129-15 146 14-19 34-61 61-126 38-89 67-146 85-170 18-24 37-36 56-36 15 0 26 14 35 42 9 28 14 94 16 200 0 26 2 46 5 59 3 13 5 19 6 19 11 0 34-51 69-154 19-54 37-95 55-124 18-28 38-42 60-42 18 0 31 13 40 40 8 27 14 66 18 119 3 53 9 102 16 146 7 44 20 73 39 85 13 9 19 19 19 30 0 11-5 23-16 34-11 12-21 18-30 18-18 0-34-16-48-47-14-32-25-99-32-204-3-42-6-72-9-89-3-18-7-27-14-27-9 0-21 13-34 39-13 26-34 78-63 156-22 61-40 102-51 122-12 20-23 31-34 31-10 0-18-6-26-17-8-11-12-24-15-40-2-15-4-54-6-115-3-101-10-160-19-177zm683 205c-31 60-63 105-93 136-31 30-59 45-85 45-17 0-32-10-45-31-13-21-19-48-19-80 0-84 26-175 79-272 53-97 105-146 158-146 19 0 33 15 42 46 3 10 7 15 14 15 18 0 27 10 27 30 0 10-1 24-3 41-12 95-18 161-18 200 0 78 10 124 31 140 10 8 15 17 15 28 0 10-5 20-15 30-10 10-19 15-28 15-17 0-32-17-43-51-11-34-17-82-17-145zm-21-271c-30 0-64 40-104 119-39 79-59 145-59 197 0 37 9 55 26 55 25 0 59-36 103-107 44-71 66-137 66-196 0-46-11-69-32-69zm603-140c-4 11-10 46-19 105-8 59-12 109-12 149 16-4 32-7 48-9l71-11c11-2 27-7 47-15 21-8 34-12 42-12 27 0 40 15 40 46 0 6-4 14-11 23-8 9-18 16-30 20-12 4-43 10-90 17-59 10-93 17-104 22-11 5-17 10-19 15-2 5-4 28-6 70-2 42-3 75-3 101l1 60c0 33-8 49-25 49-10 0-20-6-29-17-9-11-13-26-13-45 0-74 13-231 38-470 6-56 9-86 9-90 0-6-1-15-4-28-4-16-5-27-5-33 0-9 3-18 10-28 7-10 13-15 19-15l44 7c14 0 39-3 77-10 64-11 107-16 131-16 21 0 36 4 45 13 9 9 13 18 13 26 0 15-4 29-11 40-7 11-15 17-24 17-4 0-8-1-12-2-25-6-43-9-56-9-24 0-55 3-94 9-38 6-61 13-67 21zm510 411c-31 60-63 105-93 136-31 30-59 45-85 45-17 0-32-10-45-31-13-21-19-48-19-80 0-84 26-175 79-272 53-97 105-146 158-146 19 0 33 15 42 46 3 10 7 15 14 15 18 0 27 10 27 30 0 10-1 24-3 41-12 95-18 161-18 200 0 78 10 124 31 140 10 8 15 17 15 28 0 10-5 20-15 30-10 10-19 15-28 15-17 0-32-17-43-51-11-34-17-82-17-145zm-21-271c-30 0-64 40-104 119-39 79-59 145-59 197 0 37 9 55 26 55 25 0 59-36 103-107 44-71 66-137 66-196 0-46-11-69-32-69zm454 65c-21 1-66 89-134 265-23 59-37 92-41 97-4 5-11 10-21 14-10 4-19 6-25 6-15 0-23-42-23-126 0-47 7-132 21-256 6-50 9-86 9-107 0-21 7-32 20-32 25 0 37 26 37 77 0 24-4 71-12 141-10 80-15 129-15 146 14-19 34-61 61-126 38-89 67-146 85-170 18-24 37-36 56-36 15 0 26 14 35 42 9 28 14 94 16 200 0 26 2 46 5 59 3 13 5 19 6 19 11 0 34-51 69-154 19-54 37-95 55-124 18-28 38-42 60-42 18 0 31 13 40 40 8 27 14 66 18 119 3 53 9 102 16 146 7 44 20 73 39 85 13 9 19 19 19 30 0 11-5 23-16 34-11 12-21 18-30 18-18 0-34-16-48-47-14-32-25-99-32-204-3-42-6-72-9-89-3-18-7-27-14-27-9 0-21 13-34 39-13 26-34 78-63 156-22 61-40 102-51 122-12 20-23 31-34 31-10 0-18-6-26-17-8-11-12-24-15-40-2-15-4-54-6-115-3-101-10-160-19-177zm520 274c0 24 2 52 7 82 1 6 1 11 1 14 0 6-4 13-11 22-7 9-15 14-24 14-22 0-33-29-33-86 0-59 9-152 26-280 6-45 9-72 9-82 0-20 3-37 8-52 5-14 12-22 22-22 12 0 21 4 27 12 7 8 10 17 10 26 0 10-1 22-5 38-17 85-27 145-31 182-4 36-6 80-6 130zm173-609c-1 1-2 2-3 3-2 1-4 3-6 4-15 10-46 41-94 92-20 22-34 37-45 46l-8 7c-6 0-11-4-15-12-5-8-7-16-7-24 0-16 17-43 52-80 35-37 66-67 93-88 10-8 18-16 23-22 4-4 6-6 6-5 4 0 8 6 13 18 5 12 8 21 8 27 0 4-2 10-6 18-4 8-8 14-11 16zm81-98c16 0 24 15 24 44 0 26-10 89-29 187-12 62-22 131-29 206-7 75-10 134-10 176 0 53 2 106 7 158 1 10 1 17 1 22 0 16-4 30-11 41-8 11-16 17-24 17-12 0-20-11-25-32-5-21-7-55-7-102 0-107 9-240 27-399 18-159 33-251 43-278 11-27 22-40 33-40zm188 170c-5 0-8-7-11-22-1-4-2-9-4-15-6-21-9-39-9-54 0-13 5-26 16-39 11-13 23-20 36-20 7 0 14 4 22 11 8 7 12 14 12 21 0 11-3 29-8 54-6 25-14 42-26 51-12 9-21 13-28 13zm-44 537c0 24 2 52 7 82 1 6 1 11 1 14 0 6-4 13-11 22-8 9-15 14-24 14-22 0-33-29-33-86 0-59 9-152 26-280 6-45 9-72 9-82 0-20 3-37 8-52 5-14 12-22 22-22 12 0 21 4 27 12 7 8 10 17 10 26 0 10-1 22-5 38-17 85-27 145-31 182-4 36-6 80-6 130zm363-68c-31 60-63 105-93 136-31 30-59 45-85 45-17 0-32-10-45-31-13-21-19-48-19-80 0-84 26-175 79-272 53-97 105-146 158-146 19 0 33 15 42 46 3 10 7 15 14 15 18 0 27 10 27 30 0 10-1 24-3 41-12 95-18 161-18 200 0 78 10 124 31 140 10 8 15 17 15 28 0 10-5 20-15 30-10 10-19 15-28 15-17 0-32-17-43-51-11-34-17-82-17-145zm-21-271c-30 0-64 40-104 119-39 79-59 145-59 197 0 37 9 55 26 55 25 0 59-36 103-107 44-71 66-137 66-196 0-46-11-69-32-69zm205 537c42-15 69-36 81-63 12-27 18-46 18-58 0-33-3-56-9-69-3-6-4-12-4-18 0-5 2-12 5-21 3-9 6-13 9-13 5 0 12 2 22 7 10 5 16 9 18 13 2 4 5 16 9 36 4 20 6 37 6 52 0 5-4 22-13 51-8 28-20 51-35 66-15 16-28 25-41 29-5 1-10 3-15 5-18 11-32 17-44 17-7 0-10-8-10-23 0-6 1-10 2-12z"/><path d="m14512 15656c0 33-20 72-61 118-41 46-83 69-126 69-36 0-64-15-84-46-20-30-30-73-30-127 0-92 22-179 65-262 43-83 91-124 143-124 17 0 31 8 41 24 11 16 16 35 16 57 0 49-17 97-51 142-34 45-79 90-136 133-12 9-18 20-18 34 0 27 5 48 16 64 11 16 27 24 48 24 48 0 98-38 148-114 7-11 13-16 17-16 7 0 11 8 11 25zm-235-75c96-81 143-146 143-195 0-19-6-29-18-29-21 0-44 22-70 65-26 43-44 96-55 159zm820 29c-29 69-58 122-89 160-30 38-58 57-84 57-15 0-30-12-45-37-15-25-23-63-23-114 0-42 7-104 21-186 12-68 18-116 18-144 7-19 17-29 31-29 9 0 17 5 23 14 6 9 8 19 8 30 0 22-6 54-16 96-21 80-31 150-31 207 0 53 9 79 26 79 22 0 50-26 83-79 34-53 63-127 87-221 9-38 17-62 23-74 6-11 14-17 24-17 15 0 23 14 23 43 0 3-2 15-6 35-13 70-20 137-20 199 0 75 9 124 26 146 9 12 13 22 13 29 0 9-4 17-14 25-9 7-17 11-25 11-16 0-28-17-38-50-10-33-15-83-15-148v-16c0-5 0-10 0-16zm438-171c-21 1-66 89-134 265-23 59-37 92-41 97-4 5-11 10-21 14-10 4-19 6-25 6-15 0-23-42-23-126 0-47 7-132 21-256 6-50 9-86 9-107 0-21 7-32 20-32 25 0 37 26 37 77 0 24-4 71-12 141-10 80-15 129-15 146 14-19 34-61 61-126 38-89 67-146 85-170 18-24 37-36 56-36 15 0 26 14 35 42 9 28 14 94 16 200 0 26 2 46 5 59 3 13 5 19 6 19 11 0 34-51 69-154 19-54 37-95 55-124 18-28 38-42 60-42 18 0 31 13 40 40 8 27 14 66 18 119 3 53 9 102 16 146 7 44 20 73 39 85 13 9 19 19 19 30 0 11-5 23-16 34-11 12-21 18-30 18-18 0-34-16-48-47-14-32-25-99-32-204-3-42-6-72-9-89-3-18-7-27-14-27-9 0-21 13-34 39-13 26-34 78-63 156-22 61-40 102-51 122-12 20-23 31-34 31-10 0-18-6-26-17-8-11-12-24-15-40-2-15-4-54-6-115-3-101-10-160-19-177zm1014-308c2 2 3 10 3 23 0 14-1 24-3 31l4 20c7 38 15 69 22 93 9 33 18 68 27 105 20 86 41 160 63 221 22 61 42 105 60 130 11 16 18 27 21 32 3 6 4 13 4 21 0 14-3 26-10 36-7 10-15 15-24 15-29 0-64-64-105-194-16-51-26-76-30-76-11 0-34 5-70 14-36 9-68 20-98 33-17 7-28 11-32 11-6 0-12-4-18-12-1-1-2-2-4-2-5 0-16 21-32 63-27 69-44 110-51 123-7 13-15 20-24 20-6 0-13-5-22-15-9-10-13-21-13-31 0-10 4-24 12-42 8-17 25-53 50-106 45-94 82-182 113-264 48-131 79-208 92-232 13-23 23-35 30-35 15 0 26 6 33 17zm21 382c-8-26-19-73-35-141-17-73-27-117-32-133-12 37-32 90-57 158l-61 165c5-5 17-9 37-12 16-2 29-5 41-9 61-18 97-27 107-28zm490-75c-21 1-66 89-134 265-23 59-37 92-41 97-4 5-11 10-21 14-10 4-19 6-25 6-15 0-23-42-23-126 0-47 7-132 21-256 6-50 9-86 9-107 0-21 7-32 20-32 25 0 37 26 37 77 0 24-4 71-12 141-10 80-15 129-15 146 14-19 34-61 61-126 38-89 66-146 85-170 18-24 37-36 56-36 15 0 26 14 35 42 9 28 14 94 16 200 0 26 2 46 5 59 3 13 5 19 6 19 11 0 34-51 69-154 19-54 37-95 55-124 18-28 38-42 60-42 18 0 31 13 40 40 8 27 14 66 18 119 3 53 9 102 16 146 7 44 20 73 39 85 13 9 19 19 19 30 0 11-5 23-16 34-11 12-21 18-30 18-18 0-34-16-48-47-14-32-25-99-32-204-3-42-6-72-9-89-3-18-7-27-14-27-9 0-21 13-34 39-13 26-34 78-63 156-22 61-40 102-51 122-12 20-23 31-34 31-10 0-18-6-26-17-8-11-12-24-15-40-2-15-4-54-6-115-3-101-10-160-19-177zm564-264c-5 0-8-7-11-22-1-4-2-9-4-15-6-21-9-39-9-54 0-13 5-26 16-39 11-13 23-20 36-20 7 0 14 4 22 11 8 7 12 14 12 21 0 11-3 29-8 54-6 25-14 42-26 51-12 9-21 13-28 13zm-44 537c0 24 2 52 7 82 1 6 1 11 1 14 0 6-4 13-11 22-7 9-15 14-24 14-22 0-33-29-33-86 0-59 9-152 26-280 6-45 9-72 9-82 0-20 3-37 8-52 5-14 12-22 22-22 12 0 21 4 27 12 7 8 10 17 10 26 0 10-2 22-5 38-17 85-27 145-31 182-4 36-6 80-6 130zm374-67c-3-3-10 6-23 27-21 34-47 65-78 91-32 27-61 40-89 40-20 0-36-9-48-27-11-18-17-43-17-75 0-50 13-105 40-166 26-61 63-114 111-160 47-45 89-68 124-68 19 0 35 8 49 23 3 4 6 7 9 10 4 4 8 13 11 25 4 13 5 23 5 31 0 5-1 12-4 22-14 53-23 97-28 132-5 35-10 94-16 177-5 74-11 131-18 172-6 40-18 79-34 116-16 38-36 66-59 85-23 19-47 28-71 28-42 0-84-21-125-62-41-41-61-75-61-99 0-16 4-24 12-24 4 0 16 10 36 28 53 50 101 75 143 75 37 0 65-28 84-84 19-56 32-140 39-251 2-25 3-47 6-64zm-1-264c-19 0-43 14-72 42-29 28-57 70-84 124-27 54-40 100-40 137 0 12 3 22 8 30 6 7 12 11 18 11 20 0 46-15 78-44 32-29 60-70 83-123 23-53 35-94 35-123 0-36-9-53-28-53zm258 462c-31 0-56-17-76-50-20-33-30-75-30-124 0-83 20-164 59-245 39-80 86-120 140-120 36 0 65 20 88 59 22 39 34 86 34 141 0 83-23 161-69 232-46 71-94 107-144 107zm-47-186c0 32 5 59 14 79 10 21 22 31 38 31 34 0 67-26 101-79 34-53 51-111 51-175 0-40-6-71-19-96-13-24-30-37-52-37-36 0-67 32-93 95-26 63-39 124-39 181zm388 29h7c4 0 9 3 15 9 6 6 8 13 8 23 0 19-2 33-7 42-5 9-12 19-23 30-10 11-18 16-22 16-9 0-16-3-21-9-5-6-7-23-7-50 0-25 1-40 3-45 2-5 7-9 15-11 8-3 18-4 32-4z"/></g><g fill="none" stroke-width="100"><path d="m12814 4069c88-199 173-267 368-305 215-42 382 106 393 305 23 425-415 759-702 1172-448-603-816-570-834-930-10-199 157-395 372-437 195-38 297 33 403 195z"/><path d="m12374 7770c-115-61-181-58-290 5-121 70-149 213-83 315 141 218 477 198 766 280 3-484 195-622 74-807-67-102-219-128-340-58-109 63-134 141-128 265z"/><path d="m16621 4659c-2-143 29-209 131-292 113-92 249-58 309 54 127 238-37 570-92 899-421-208-625-74-732-277-59-112-15-278 98-369 103-83 181-74 286-14z"/><path d="m16281 7066c-149-79-234-75-376 7-156 91-193 275-107 408 183 282 618 256 992 362 4-627 253-806 96-1045-86-132-283-166-440-75-142 82-173 183-166 343z"/><path d="m19288 9488c3-174-35-255-160-357-139-112-306-72-379 64-157 290 44 695 110 1096 516-252 766-86 898-333 73-136 19-338-119-451-126-102-221-91-350-19z"/><path d="m12696 9771c-30-139-75-195-193-249-131-59-255 9-288 133-70 265 164 543 291 848 361-313 590-236 648-461 32-124-48-273-178-333-118-54-192-24-280 62z"/></g></g><path d="m15684 17323c0 187 30 244 126 399-15 12-69 82-75 109l-329-333c-146-157-241-261-241-492 0-76 91-172 201-172 88 0 171 27 220 71 29 26 106 149 116 192h17c15-71 113-236 251-236 158 0 315 116 319 281-42-24-45-40-112-69-118-50-297-48-397 53-41 41-94 117-94 197zm-629-281c0 304 258 508 438 695 19 20 32 34 50 55 37 40 72 62 103 106 24 34 67 94 104 105 9-35 101-172 126-190l308 310c21 23 37 40 59 64l119 134 157-220c192-233 209-197 373-376 164-178 166-365 0-539-80-84-195-115-321-115-84 0-130 42-184 72 0-74-12-109-36-160-123-267-530-306-634-93-99-72-87-163-377-163-153 0-285 149-285 317z" stroke-width="7.62"/><g fill-rule="nonzero" stroke-width="50"><path d="m13861 20430c2 2 3 10 3 23 0 14-1 24-3 31l4 20c7 37 14 68 20 92 8 32 16 67 25 103 18 85 38 157 58 217 20 60 38 103 55 127 10 15 17 26 20 32 3 6 4 13 4 20 0 14-3 26-9 35-6 10-13 14-22 14-27 0-59-63-96-190-15-50-24-75-27-75-10 0-31 5-64 14-33 9-63 20-90 32-16 7-25 11-30 11-5 0-11-4-16-12-1-1-2-2-4-2-5 0-14 20-30 61-25 68-41 108-47 121-6 13-14 20-22 20-6 0-12-5-20-15-8-10-12-20-12-30 0-10 4-24 11-41 8-17 23-52 46-104 41-92 76-179 104-260 45-129 73-205 85-228 12-23 21-35 28-35 14 0 24 6 31 17zm19 375c-7-25-18-71-32-138-15-71-25-115-29-130-11 36-29 88-53 155l-56 162c4-5 16-9 35-12 14-2 27-5 37-8 57-17 90-27 99-28zm452-73c-19 1-61 87-124 260-21 58-34 90-37 95-4 5-10 10-19 14-9 4-17 6-23 6-14 0-21-41-21-123 0-46 7-130 20-251 5-49 8-84 8-105 0-21 6-31 18-31 23 0 35 25 35 75 0 24-4 70-11 139-9 79-13 126-14 143 13-19 32-60 57-124 35-87 61-143 78-166 17-23 34-35 52-35 13 0 24 14 32 41 8 27 13 93 14 196 0 26 2 45 5 58 3 13 5 19 6 19 10 0 31-50 64-151 17-53 34-94 51-121 16-28 35-42 55-42 17 0 29 13 37 39 8 26 13 65 17 117 3 52 8 100 14 143 6 43 18 71 36 84 12 9 18 18 18 30 0 11-5 22-15 34-10 12-19 18-27 18-17 0-31-15-45-46-13-31-23-98-30-200-3-41-6-71-8-88-3-17-7-26-13-26-9 0-19 13-31 38-12 25-31 76-58 153-21 60-36 100-47 120-11 20-21 30-31 30-9 0-17-5-24-16-7-11-11-24-13-39-2-15-4-53-6-112-3-99-9-157-17-174zm511 397c-28 0-52-16-70-49-18-33-28-73-28-121 0-81 18-161 54-240 36-79 79-118 129-118 33 0 60 19 81 58 21 39 31 85 31 138 0 82-21 158-64 228-43 70-87 105-133 105zm-43-183c0 32 4 58 13 78 9 20 21 30 35 30 31 0 62-26 93-77 31-52 47-109 47-172 0-39-6-70-18-94-12-24-28-36-48-36-33 0-62 31-86 93-24 62-36 121-36 178zm376-28c2-6 5-14 8-24 14-49 27-87 39-115 12-28 25-54 39-80 14-26 27-45 39-58 12-13 22-22 32-28 10-5 19-8 28-8 18 0 33 8 44 25 11 17 17 36 17 58 0 10-2 19-6 26-4 8-10 12-18 12-9 0-17-6-24-17-7-12-15-17-23-17-22 0-51 40-90 119-38 79-62 167-70 262-2 25-6 41-12 49-6 8-14 12-25 12-10 0-18-11-22-34-5-23-7-62-7-116 0-15 1-47 2-98 1-59 4-107 7-144 1-6 2-20 3-42 1-24 3-41 6-51 2-9 7-18 13-26 7-8 14-12 22-12 8 0 13 4 17 11 4 7 6 15 6 24 0 12-2 29-6 52-5 25-8 42-8 51-1 11-2 22-3 34-2 14-4 49-6 107v18 13zm729-176c-11 0-23 11-35 32-13 21-32 69-58 144-34 100-57 157-67 171-10 14-18 21-25 21-25 0-37-18-37-54 0-15 2-36 5-64 11-95 17-195 17-301 0-12 3-25 10-40 7-15 13-22 19-22 11 0 18 5 23 15 5 10 7 30 7 61 0 32-6 97-19 196-4 33-6 53-6 62 0 5 1 8 3 8 3 0 18-38 43-113 26-77 49-130 68-161 20-31 41-47 64-47 19 0 34 13 46 39 12 26 20 73 26 141 6 78 11 126 16 145 5 19 12 29 22 29 6 0 15-3 24-10 2-1 3-2 4-2 9 0 13 8 13 24 0 14-6 29-18 44-12 16-27 23-44 23-18 0-31-11-41-32-10-21-17-78-23-170-6-92-18-139-37-139zm302 387c-28 0-52-16-70-49-18-33-28-73-28-121 0-81 18-161 54-240 36-79 79-118 129-118 33 0 60 19 81 58 21 39 31 85 31 138 0 82-21 158-64 228-43 70-87 105-133 105zm-43-183c0 32 4 58 13 78 9 20 21 30 35 30 31 0 62-26 93-77 31-52 47-109 47-172 0-39-6-70-18-94-12-24-28-36-48-36-33 0-62 31-86 93-24 62-36 121-36 178zm248-542c-1 1-2 2-3 3-1 1-3 3-6 4-14 10-43 40-86 91-18 21-32 36-41 45l-7 7c-5 0-10-4-14-12-4-8-6-16-6-24 0-16 16-42 48-79 32-37 60-65 86-87 10-8 17-15 21-21 4-4 5-6 6-5 4 0 8 6 12 17 5 12 7 21 7 27 0 4-2 10-6 18-4 8-7 14-10 16zm222 593c0-20-17-44-50-70-42-33-71-59-86-79-15-20-22-42-22-66 0-63 21-115 62-156 41-41 75-62 101-62 17 0 29 5 37 13 8 9 11 24 11 46 0 10-3 18-8 25-5 7-10 10-13 10-2 0-7-2-13-7-7-4-11-7-13-7-10 0-31 12-63 34-32 23-48 49-48 78 0 18 6 34 17 48 11 14 31 32 60 53 23 17 42 35 56 54 14 19 21 42 21 68 0 48-22 86-66 113-44 27-86 41-125 41-34 0-50-17-50-52 0-12 4-21 11-26 8-6 15-9 23-9 3 0 9 2 18 5 8 3 14 5 17 5 23 0 48-6 74-17 26-12 43-26 49-44zm495-368c21-3 42-5 60-9 19-3 34-5 47-5 16 0 26 2 30 7 4 4 6 12 6 23 0 25-12 39-35 41-30 3-58 7-83 12-25 5-39 9-41 12-2 3-8 41-19 112-11 72-16 118-16 140 0 35 3 58 9 69 6 12 15 17 27 17 18 0 43-20 74-61 12-17 22-25 28-25 9 0 13 7 13 22 0 23-14 52-43 88-29 36-58 54-88 54-50 0-75-45-75-135 0-32 5-83 16-151 10-68 15-108 15-122 0-5-3-7-7-7l-32 4c-27 0-40-16-40-48 0-18 6-27 18-27h64c4 0 8-3 12-9 3-6 8-26 15-60 6-34 12-68 17-101 5-33 15-49 29-49 9 0 16 5 21 14 5 9 7 18 7 26 0 4-4 27-11 68l-18 99zm439 316c0 32-19 71-56 116-37 45-76 68-116 68-33 0-59-15-77-45-18-30-27-72-27-125 0-90 20-176 60-257 40-81 84-122 131-122 16 0 28 8 38 23 10 15 15 34 15 56 0 49-16 95-47 139-31 44-73 88-126 131-11 9-16 20-16 33 0 26 5 47 15 63 10 16 25 24 44 24 45 0 90-37 137-112 7-10 12-16 16-16 7 0 10 8 10 24zm-216-74c88-79 132-143 132-191 0-19-6-28-17-28-19 0-41 21-65 64-24 43-41 94-51 156zm516-140c-19 1-61 87-124 260-21 58-34 90-37 95-4 5-10 10-19 14-9 4-17 6-23 6-14 0-21-41-21-123 0-46 7-130 20-251 5-49 8-84 8-105 0-21 6-31 18-31 23 0 35 25 35 75 0 24-4 70-11 139-9 79-13 126-14 143 13-19 32-60 57-124 35-87 61-143 78-166 17-23 34-35 52-35 13 0 24 14 32 41 8 27 13 93 14 196 0 26 2 45 5 58 3 13 5 19 6 19 10 0 31-50 64-151 17-53 34-94 51-121 16-28 35-42 55-42 17 0 29 13 37 39 8 26 13 65 17 117 3 52 8 100 14 143 6 43 18 71 36 84 12 9 18 18 18 30 0 11-5 22-15 34-10 12-19 18-27 18-17 0-31-15-45-46-13-31-23-98-30-200-3-41-6-71-9-88-3-17-7-26-13-26-9 0-19 13-31 38-12 25-31 76-58 153-21 60-36 100-47 120-11 20-21 30-31 30-9 0-17-5-24-16-7-11-11-24-13-39-2-15-4-53-6-112-3-99-9-157-17-174zm511 397c-28 0-52-16-70-49-18-33-28-73-28-121 0-81 18-161 54-240 36-79 79-118 129-118 33 0 60 19 81 58 21 39 31 85 31 138 0 82-21 158-64 228-43 70-87 105-133 105zm-43-183c0 32 4 58 13 78 9 20 21 30 35 30 31 0 62-26 93-77 31-52 47-109 47-172 0-39-6-70-18-94-12-24-28-36-48-36-33 0-62 31-86 93-24 62-36 121-36 178zm469 51c0-20-17-44-50-70-42-33-71-59-86-79-15-20-22-42-22-66 0-63 21-115 62-156 41-41 75-62 101-62 17 0 29 5 37 13 8 9 11 24 11 46 0 10-3 18-8 25-5 7-10 10-13 10-2 0-7-2-13-7-7-4-11-7-13-7-10 0-31 12-63 34-32 23-48 49-48 78 0 18 6 34 17 48 11 14 31 32 60 53 23 17 42 35 56 54 14 19 21 42 21 68 0 48-22 86-66 113-44 27-86 41-125 41-34 0-50-17-50-52 0-12 4-21 11-26 8-6 15-9 23-9 3 0 9 2 18 5 9 3 14 5 17 5 23 0 48-6 74-17 26-12 43-26 49-44zm120 198c39-15 63-35 74-62 11-27 16-45 16-57 0-32-3-55-9-68-3-6-4-12-4-17 0-5 1-11 4-20 3-9 6-13 9-13 4 0 11 2 21 7 9 5 15 9 16 13 2 4 4 15 8 35 4 20 6 37 6 51 0 5-4 22-12 50-8 28-18 50-32 65-14 15-26 25-38 29-5 1-9 3-13 5-16 11-30 17-40 17-6 0-9-7-9-22 0-6 1-10 2-12z"/><path d="m15050 22063c-32 59-64 103-95 133-31 30-60 44-86 44-18 0-33-10-46-31-13-20-19-47-19-79 0-83 27-172 81-267 54-96 107-143 160-143 19 0 34 15 43 45 3 10 8 15 14 15 18 0 27 10 27 29 0 10-1 23-3 40-12 93-19 158-19 196 0 76 10 122 32 137 10 8 15 17 15 28 0 10-5 20-15 30-10 10-19 15-29 15-18 0-32-17-44-50-12-33-17-81-17-142zm-21-266c-30 0-65 39-106 117-40 78-60 143-60 194 0 36 9 54 26 54 25 0 60-35 105-105 45-70 67-134 67-193 0-45-11-68-32-68zm552 459c-2 8-6 15-13 20-7 5-14 8-21 8-23 0-35-24-35-70 0-22 5-86 16-190 7-64 10-112 10-145 0-6-5-13-15-22-10-9-15-17-15-26 0-14 8-28 22-44 12-12 19-26 21-41 3-15 6-36 9-63 12-97 30-168 55-211 25-43 57-65 95-65 20 0 38 10 52 29 14 19 21 43 21 71 0 23-4 49-12 78-8 29-17 44-27 44-8 0-11-5-11-15l2-46c0-61-12-91-37-91-27 0-49 36-67 108-18 72-26 131-26 176 0 14 7 22 21 22 60 0 95 0 106-1 11 0 16 6 16 19 0 13-6 23-17 29-12 7-37 13-76 18-33 5-52 9-56 12-15 117-23 221-23 313 0 27 1 48 3 61 2 12 2 20 2 23zm425-194c-32 59-64 103-95 133-31 30-60 44-86 44-18 0-33-10-46-31-13-20-19-47-19-79 0-83 27-172 81-267 54-96 107-143 160-143 19 0 34 15 43 45 3 10 8 15 14 15 18 0 27 10 27 29 0 10-1 23-3 40-12 93-19 158-19 196 0 76 10 122 32 137 10 8 15 17 15 28 0 10-5 20-15 30-10 10-19 15-29 15-18 0-32-17-44-50-12-33-17-81-17-142zm-21-266c-30 0-65 39-106 117-40 78-60 143-60 194 0 36 9 54 26 54 25 0 60-35 105-105 45-70 67-134 67-193 0-45-11-68-32-68zm462 64c-21 1-67 87-137 260-24 58-37 90-41 95-4 5-11 10-21 14-10 4-19 6-26 6-15 0-23-41-23-123 0-46 7-130 22-251 6-49 9-84 9-105 0-21 7-31 20-31 25 0 38 25 38 75 0 24-4 70-13 139-10 79-15 126-15 143 14-19 35-60 63-124 39-87 68-143 86-166 18-23 38-35 57-35 15 0 27 14 36 41 9 27 14 93 16 196 0 26 2 45 5 58 3 13 5 19 7 19 11 0 34-50 70-151 19-53 38-94 56-121 18-28 38-42 61-42 19 0 32 13 40 39 9 26 15 65 18 117 3 52 9 100 16 143 7 44 20 71 40 84 13 9 20 18 20 30 0 11-6 22-16 34-11 12-21 18-30 18-18 0-35-15-49-46-14-31-25-98-33-200-3-41-6-71-9-88-3-17-8-26-14-26-10 0-21 13-34 38-13 25-34 76-64 153-23 60-40 100-52 120-12 20-23 30-34 30-10 0-19-5-27-16-8-11-13-24-15-39-2-15-4-53-6-112-4-99-10-157-19-174zm529 269c0 24 2 51 7 81 1 6 1 10 1 14 0 6-4 13-11 22-8 9-16 13-24 13-22 0-33-28-33-84 0-58 9-150 26-275 6-44 9-71 9-81 0-20 3-37 8-51 5-14 13-21 22-21 12 0 21 4 28 12 7 8 10 16 10 26 0 9-2 22-5 37-17 83-28 143-32 179-4 36-6 78-6 128zm176-598c-1 1-2 2-3 3-2 1-4 3-6 4-15 10-47 40-95 91-20 21-35 36-45 45l-8 7c-6 0-11-4-16-12-5-8-7-16-7-24 0-16 18-42 53-79 35-37 67-65 95-87 11-8 18-15 24-21 4-4 6-6 6-5 4 0 8 6 14 17 5 12 8 21 8 27 0 4-2 10-6 18-4 8-8 14-11 16zm82-97c17 0 25 15 25 44 0 26-10 87-30 184-13 61-22 128-29 202-7 74-10 131-10 173 0 52 2 104 7 155 1 10 1 17 1 21 0 16-4 29-12 41-8 11-16 17-25 17-12 0-21-10-25-31-5-21-7-54-7-101 0-105 9-236 28-392 19-156 33-247 44-273 11-26 22-40 33-40zm192 167c-5 0-8-7-11-21-1-4-2-9-4-15-6-20-9-38-9-53 0-13 5-25 16-38 11-13 23-20 36-20 7 0 14 4 22 11 8 7 12 14 12 20 0 10-3 28-8 53-6 25-15 42-27 50-12 9-22 13-28 13zm-45 527c0 24 2 51 7 81 1 6 1 10 1 14 0 6-4 13-11 22-8 9-16 13-24 13-22 0-33-28-33-84 0-58 9-150 26-275 6-44 9-71 9-81 0-20 3-37 8-51 5-14 13-21 22-21 12 0 21 4 28 12 7 8 10 16 10 26 0 9-2 22-5 37-17 83-28 143-32 179-4 36-6 78-6 128zm369-67c-32 59-64 103-95 133-31 30-60 44-86 44-18 0-33-10-46-31-13-20-19-47-19-79 0-83 27-172 81-267 54-96 107-143 160-143 19 0 34 15 43 45 3 10 8 15 14 15 18 0 27 10 27 29 0 10-1 23-3 40-12 93-19 158-19 196 0 76 10 122 32 137 10 8 15 17 15 28 0 10-5 20-15 30-10 10-19 15-29 15-18 0-32-17-44-50-12-33-17-81-17-142zm-21-266c-30 0-65 39-106 117-40 78-60 143-60 194 0 36 9 54 26 54 25 0 60-35 105-105 45-70 67-134 67-193 0-45-11-68-32-68z"/><path d="m14255 23174c-2 8-6 15-13 20-7 5-14 8-21 8-23 0-35-24-35-70 0-22 5-86 16-190 7-64 10-112 10-145 0-6-5-13-15-22-10-9-15-17-15-26 0-14 8-28 22-44 11-12 19-26 21-41 3-15 6-36 9-63 12-97 30-168 55-211 25-43 57-65 95-65 20 0 38 10 52 29 14 19 21 43 21 71 0 23-4 49-12 78-8 29-17 44-27 44-8 0-11-5-11-15l2-46c0-61-12-91-37-91-27 0-49 36-67 108-18 72-26 131-26 176 0 14 7 22 21 22 60 0 95 0 106-1 11 0 16 6 16 19 0 13-6 23-17 29-12 7-37 13-76 18-33 5-52 9-56 12-15 117-23 221-23 313 0 27 1 48 3 61 2 12 2 20 2 23zm294 2c-31 0-57-16-78-49-20-33-31-73-31-121 0-81 20-161 60-240 40-79 87-118 143-118 37 0 66 19 89 58 23 39 34 85 34 138 0 82-24 158-71 228-47 70-96 105-147 105zm-48-183c0 32 5 58 15 78 10 20 23 30 39 30 34 0 68-26 103-77 34-52 51-109 51-172 0-39-7-70-20-94-13-24-31-36-53-36-37 0-68 31-95 93-26 62-40 121-40 178zm415-28c2-6 5-14 8-24 16-49 30-87 43-115 13-28 27-54 43-80 16-26 30-45 43-58 13-13 25-22 35-28 11-5 21-8 31-8 20 0 36 8 49 25 13 17 19 36 19 58 0 10-2 19-7 26-4 8-11 12-20 12-10 0-19-6-27-17-8-12-17-17-26-17-24 0-57 40-99 119-42 79-68 167-77 262-2 25-7 41-13 49-6 8-15 12-27 12-11 0-19-11-24-34-5-23-8-62-8-116 0-15 1-47 2-98 1-59 4-107 8-144 1-6 2-20 3-42 2-24 4-41 6-51 2-9 7-18 15-26 7-8 15-12 24-12 8 0 15 4 19 11 4 7 6 15 6 24 0 12-2 29-7 52-5 25-8 42-9 51-1 11-2 22-4 34-2 14-5 49-7 107v18 13zm555-186c-21 1-67 87-137 260-24 58-37 90-41 95-4 5-11 10-21 14-10 4-19 6-26 6-15 0-23-41-23-123 0-46 7-130 22-251 6-49 9-84 9-105 0-21 7-31 20-31 25 0 38 25 38 75 0 24-4 70-13 139-10 79-15 126-15 143 14-19 35-60 63-124 39-87 68-143 86-166 18-23 38-35 57-35 15 0 27 14 36 41 9 27 14 93 16 196 0 26 2 45 5 58 3 13 5 19 7 19 11 0 34-50 70-151 19-53 38-94 56-121 18-28 38-42 61-42 19 0 32 13 40 39 9 26 15 65 18 117 3 52 9 100 16 143 7 43 20 71 40 84 13 9 20 18 20 30 0 11-6 22-16 34-11 12-21 18-30 18-18 0-35-15-49-46-14-31-25-98-33-200-3-41-6-71-9-88-3-17-8-26-14-26-10 0-21 13-34 38-13 25-34 76-64 153-23 60-40 100-52 120-12 20-23 30-34 30-10 0-19-5-27-16-8-11-13-24-15-39-2-15-4-53-6-112-4-99-10-157-19-174zm695 202c-32 59-64 103-95 133-31 29-60 44-86 44-18 0-33-10-46-31-13-20-19-47-19-79 0-83 27-172 81-267 54-96 107-143 160-143 19 0 34 15 43 45 3 10 8 15 14 15 18 0 27 10 27 29 0 10-1 23-3 40-12 93-19 158-19 196 0 76 10 122 32 137 10 8 15 17 15 28 0 10-5 20-15 30-10 10-19 15-29 15-18 0-32-17-44-50-11-33-17-81-17-142zm-21-266c-30 0-65 39-106 117-40 78-60 143-60 194 0 36 9 54 26 54 25 0 60-35 105-105 45-70 67-134 67-193 0-45-11-68-32-68zm272 250c2-6 5-14 8-24 16-49 30-87 43-115 13-28 27-54 43-80 16-26 30-45 43-58 13-13 25-22 35-28 11-5 21-8 31-8 20 0 36 8 49 25 13 17 19 36 19 58 0 10-2 19-7 26-4 8-11 12-20 12-10 0-19-6-27-17-8-12-17-17-26-17-24 0-57 40-99 119-42 79-68 167-77 262-2 25-7 41-13 49-6 8-15 12-27 12-11 0-19-11-24-34-5-23-8-62-8-116 0-15 1-47 2-98 1-59 4-107 8-144 1-6 2-20 3-42 2-24 4-41 6-51 2-9 7-18 15-26 7-8 15-12 24-12 8 0 15 4 19 11 4 7 6 15 6 24 0 12-2 29-7 52-5 25-8 42-9 51-1 11-2 22-4 34-2 14-5 49-7 107v18 13zm587 27c0 32-21 71-62 116-41 45-84 68-128 68-37 0-65-15-85-45-20-30-30-72-30-125 0-90 22-176 66-257 44-81 93-122 145-122 17 0 31 8 42 23 11 15 16 34 16 56 0 49-17 95-52 139-35 44-81 88-139 131-12 9-18 20-18 33 0 26 5 47 16 63 11 16 27 24 49 24 49 0 100-37 151-112 8-10 13-16 17-16 7 0 11 8 11 24zm-239-74c97-79 146-143 146-191 0-19-6-28-19-28-21 0-45 21-71 64-26 43-45 94-56 156zm570-140c-21 1-67 87-137 260-24 58-37 90-41 95-4 5-11 10-21 14-10 4-19 6-26 6-15 0-23-41-23-123 0-46 7-130 22-251 6-49 9-84 9-105 0-21 7-31 20-31 25 0 38 25 38 75 0 24-4 70-13 139-10 79-15 126-15 143 14-19 35-60 63-124 39-87 68-143 86-166 18-23 38-35 57-35 15 0 27 14 36 41 9 27 14 93 16 196 0 26 2 45 5 58 3 13 5 19 7 19 11 0 34-50 70-151 19-53 38-94 56-121 18-28 38-42 61-42 19 0 32 13 40 39 9 26 15 65 18 117 3 52 9 100 16 143 7 43 20 71 40 84 13 9 20 18 20 30 0 11-6 22-16 34-11 12-21 18-30 18-18 0-35-15-49-46-14-31-25-98-33-200-3-41-6-71-9-88-3-17-8-26-14-26-10 0-21 13-34 38-13 25-34 76-64 153-23 60-40 100-52 120-12 20-23 30-34 30-10 0-19-5-27-16-8-11-13-24-15-39-2-15-4-53-6-112-4-99-10-157-19-174zm564 397c-31 0-57-16-78-49-20-33-31-73-31-121 0-81 20-161 60-240 40-79 87-118 143-118 37 0 66 19 89 58 23 39 34 85 34 138 0 82-24 158-71 228-47 70-96 105-147 105zm-48-183c0 32 5 58 15 78 10 20 23 30 39 30 34 0 68-26 103-77 34-52 51-109 51-172 0-39-7-70-20-94-13-24-31-36-53-36-37 0-68 31-95 93-26 62-40 121-40 178zm518 51c0-20-18-44-55-70-47-33-78-59-94-79-16-20-25-42-25-66 0-63 23-115 69-156 46-41 83-62 112-62 19 0 32 5 40 13 8 9 13 24 13 46 0 10-3 18-9 25-6 7-11 10-14 10-3 0-8-2-15-7-7-4-12-7-14-7-12 0-35 12-70 34-35 23-53 49-53 78 0 18 6 34 19 48 12 14 35 32 67 53 26 17 47 35 62 54 15 19 23 42 23 68 0 48-24 86-72 113-48 27-95 41-139 41-37 0-56-17-56-52 0-12 4-21 13-26 8-6 17-9 25-9 3 0 10 2 20 5 9 3 16 5 19 5 25 0 53-6 82-17 29-12 47-26 54-44z"/><path d="m14927 23846c0 32-21 71-62 116-41 45-84 68-128 68-37 0-65-15-85-45-20-30-30-72-30-125 0-90 22-176 66-257 44-81 93-122 145-122 17 0 31 8 42 23 11 15 16 34 16 56 0 48-17 95-52 139-35 44-81 88-139 131-12 9-18 20-18 33 0 26 5 47 16 63 11 16 27 24 49 24 49 0 100-37 151-112 8-10 13-16 17-16 7 0 11 8 11 24zm-239-74c97-79 146-143 146-191 0-19-6-28-19-28-21 0-45 21-71 64-26 43-45 94-56 156zm692 257c-31 0-57-16-78-49-20-33-31-73-31-121 0-81 20-161 60-240 40-79 87-118 143-118 37 0 66 19 89 58 23 39 34 85 34 138 0 82-24 158-71 228-47 70-96 105-147 105zm-48-183c0 32 5 58 15 78 10 20 23 30 39 30 34 0 68-26 103-77 34-52 51-109 51-172 0-39-7-70-20-94-13-24-31-36-53-36-37 0-68 31-95 93-26 62-40 121-40 178zm858-13c-32 59-64 103-95 133-31 29-60 44-86 44-18 0-33-10-46-31-13-20-19-47-19-79 0-83 27-172 81-267 54-96 107-143 160-143 19 0 34 15 43 45 3 10 8 15 14 15 18 0 27 10 27 29 0 10-1 23-3 40-12 93-19 158-19 196 0 76 10 122 32 137 10 8 15 17 15 28 0 10-5 20-15 30-10 10-19 15-29 15-18 0-32-17-44-50-12-33-17-81-17-142zm-21-266c-30 0-65 39-106 117-40 78-60 143-60 194 0 36 9 54 26 54 25 0 60-35 105-105 45-70 67-134 67-193 0-45-11-68-32-68zm462 64c-21 1-67 87-137 260-24 58-37 90-41 95-4 5-11 10-21 14-10 4-19 6-26 6-15 0-23-41-23-123 0-46 7-130 22-251 6-49 9-84 9-105 0-21 7-31 20-31 25 0 38 25 38 75 0 24-4 70-13 139-10 79-15 126-15 143 14-19 35-60 63-124 39-87 68-143 86-166 18-23 38-35 57-35 15 0 27 14 36 41 9 27 14 93 16 196 0 26 2 45 5 58 3 13 5 19 7 19 11 0 34-50 70-151 19-53 38-94 56-121 18-28 38-42 61-42 19 0 32 13 40 39 9 26 15 65 18 117 3 52 9 100 16 143 7 44 20 71 40 84 13 9 20 18 20 30 0 11-6 22-16 34-11 12-21 18-30 18-18 0-35-15-49-46-14-31-25-98-33-200-3-41-6-71-9-88-3-17-8-26-14-26-10 0-21 13-34 38-13 25-34 76-64 153-23 60-40 100-52 120-12 20-23 30-34 30-10 0-19-5-27-16-8-11-13-24-15-39-2-15-4-53-6-112-4-99-10-157-19-174zm574-259c-5 0-8-7-11-21-1-4-2-9-4-15-6-20-9-38-9-53 0-13 5-25 16-38 11-13 23-20 36-20 7 0 14 4 22 11 8 7 12 14 12 20 0 10-3 28-8 53-6 25-15 42-27 50-12 9-22 13-28 13zm-45 527c0 24 2 51 7 81 1 6 1 10 1 14 0 6-4 13-11 22-8 9-16 13-24 13-22 0-33-28-33-84 0-58 9-150 26-275 6-44 9-71 9-81 0-20 3-37 8-51 5-14 13-21 22-21 12 0 21 4 28 12 7 8 10 16 10 26 0 9-2 22-5 37-17 83-28 143-32 179-4 36-6 78-6 128zm381-66c-3-3-10 6-23 26-21 34-48 64-80 90-32 26-63 39-90 39-21 0-37-9-49-27-12-18-17-42-17-74 0-49 13-103 40-163 27-60 64-112 112-157 48-45 90-67 127-67 19 0 36 8 50 23 3 4 6 7 9 9 4 4 8 12 12 25 4 12 6 22 6 30 0 5-1 12-4 22-14 52-23 96-29 130-5 34-11 92-17 173-6 73-11 129-18 169-6 39-18 77-35 114-17 37-37 64-60 83-23 18-47 28-72 28-43 0-85-20-127-61-42-41-63-73-63-98 0-15 4-23 13-23 4 0 16 9 37 28 54 49 102 74 145 74 38 0 66-28 86-83 20-55 33-137 40-247 2-25 4-46 6-63zm-1-259c-19 0-44 14-73 42-29 28-58 68-85 122-27 53-41 98-41 135 0 12 3 22 8 29 6 7 12 11 19 11 20 0 47-15 80-44 33-29 61-69 85-121 24-52 36-92 36-121 0-35-9-52-28-52zm262 454c-31 0-57-16-78-49-20-33-31-73-31-121 0-81 20-161 60-240 40-79 87-118 143-118 37 0 66 19 89 58 23 39 34 85 34 138 0 82-24 158-71 228-47 70-96 105-147 105zm-48-183c0 32 5 58 15 78 10 20 23 30 39 30 34 0 68-26 103-77 34-52 51-109 51-172 0-39-7-70-20-94-13-24-31-36-53-36-37 0-69 31-95 93-26 62-40 121-40 178z"/><path d="m15161 24949c0 32-21 71-62 116-41 45-84 68-128 68-37 0-65-15-85-45-20-30-30-72-30-125 0-90 22-176 66-257 44-81 93-122 145-122 17 0 31 8 42 23 11 15 16 34 16 56 0 49-17 95-52 139-35 44-81 88-139 131-12 9-18 20-18 33 0 26 5 47 16 63 11 16 27 24 49 24 49 0 100-37 151-112 8-10 13-16 17-16 7 0 11 8 11 24zm-239-74c97-79 146-143 146-191 0-19-6-28-19-28-21 0-45 21-71 64-26 43-45 94-56 156zm214-478c-1 1-2 2-3 3-2 1-4 3-6 4-15 10-47 40-95 91-20 21-35 36-45 45l-8 7c-6 0-11-4-16-12-5-8-7-16-7-24 0-16 18-42 53-79 35-37 67-65 95-87 11-8 18-15 24-21 4-4 6-6 6-5 4 0 8 6 14 17 5 12 8 21 8 27 0 4-2 10-6 18-4 8-8 14-11 16zm370 101c2-18 7-33 13-46 7-13 15-19 24-19 19 0 32 31 39 93 7 61 50 217 131 469 9-20 18-41 28-63 46-98 78-173 98-225 80-204 132-306 157-306 17 0 26 14 26 40 0 5-1 9-3 13-2 4-9 19-23 46-45 89-88 182-129 278-33 76-59 137-81 182-24 51-38 87-42 110-3 13-9 23-20 31-10 8-23 12-38 12-6 0-20-40-42-121-10-35-42-148-97-339-29-101-44-152-44-154zm589 634c-31 0-57-16-78-49-20-33-31-73-31-121 0-81 20-161 60-240 40-79 87-118 143-118 37 0 66 19 89 58 23 39 34 85 34 138 0 82-24 158-71 228-47 70-96 105-147 105zm-48-183c0 32 5 58 15 78 10 20 23 30 39 30 34 0 68-26 103-77 34-52 51-109 51-172 0-39-7-70-20-94-13-24-31-36-53-36-37 0-68 31-95 93-26 62-40 121-40 178zm439 186c-34 0-61-14-79-41-18-27-28-65-28-114 0-82 24-169 71-260 47-91 91-137 132-137 19 0 34 14 48 41 13 28 20 57 20 88 0 19-3 34-9 48-6 13-12 20-18 20-13 0-23-19-28-55-6-40-15-59-27-59-24 0-52 39-84 116-33 78-49 143-49 197 0 54 22 80 66 80 34 0 73-22 119-65 16-15 28-23 35-23 8 0 12 6 12 19 0 24-21 54-61 90-41 36-81 54-121 54zm557-187c0 32-21 71-62 116-41 45-84 68-128 68-37 0-65-15-85-45-20-30-30-72-30-125 0-90 22-176 66-257 44-81 93-122 145-122 17 0 31 8 42 23 11 15 16 34 16 56 0 49-17 95-52 139-35 44-81 88-139 131-12 9-18 20-18 33 0 26 5 47 16 63 11 16 27 24 49 24 49 0 100-37 151-112 8-10 13-16 17-16 7 0 11 8 11 24zm-239-74c97-79 146-143 146-191 0-19-6-28-19-28-21 0-45 21-71 64-26 43-45 94-56 156zm206-431c1 1 4 6 9 13 4 7 10 16 18 27 15 22 23 37 26 44 2 7 3 14 3 19 0 9-2 16-7 23-5 7-10 10-15 10-10 0-23-18-41-54-6-12-14-27-25-45-11-18-19-34-25-49-7-22-12-33-17-33-5 0-22 23-51 68-21 33-37 57-48 72-11 15-20 23-26 23-13 0-19-15-19-45 0-14 2-22 6-26l37-48c10-13 20-25 29-36 17-20 32-41 45-61 15-24 27-36 37-36 5 0 10 5 15 15 5 10 16 34 31 72 12 31 19 47 20 47zm179 430c-6 0-14-1-24-4-10-3-17-6-21-10-3-34 3-97 17-190 12-75 17-127 17-157 0-42 6-71 17-86 11-15 21-22 28-22 6 0 12 3 17 10 6 7 9 14 9 22 0 7-13 87-38 239-10 64-16 113-16 147 0 22-3 39-8 50zm0 140c0 31-6 53-17 66-11 13-21 19-29 19-17 0-25-15-25-46 0-12 4-26 12-43 8-16 17-25 25-25 6 0 13 4 21 10 9 7 13 13 13 17zm228-140c-6 0-14-1-24-4-10-3-17-6-21-10-3-34 3-97 17-190 12-75 17-127 17-157 0-42 6-71 17-86 11-15 21-22 28-22 6 0 12 3 17 10 6 7 9 14 9 22 0 7-13 87-38 239-10 64-16 113-16 147 0 22-3 39-8 50zm0 140c0 31-6 53-17 66-11 13-21 19-29 19-17 0-25-15-25-46 0-12 4-26 12-43 8-16 17-25 25-25 6 0 13 4 21 10 9 7 13 13 13 17zm228-140c-6 0-14-1-24-4-10-3-17-6-21-10-3-34 3-97 17-190 12-75 17-127 17-157 0-42 6-71 17-86 11-15 21-22 28-22 6 0 12 3 17 10 6 7 9 14 9 22 0 7-13 87-38 239-10 64-16 113-16 147 0 22-3 39-8 50zm0 140c0 31-6 53-17 66-11 13-21 19-29 19-17 0-25-15-25-46 0-12 4-26 12-43 8-16 17-25 25-25 6 0 13 4 21 10 9 7 13 13 13 17z"/></g></g></g><g font-family="&apos;Arial Black&apos;" font-weight="900" font-size="566.26"><text x="10500" y="14850" transform="matrix(.92516 0 0 1 2248.62-8433.62)">NN 1</text><text x="10500" y="14850" transform="matrix(.92516 0 0 1 2297.32-7801.98)">NN 2</text></g><g fill="#373435" font-family="&apos;Arial&apos;" font-weight="normal" font-size="423.33"><text x="976" y="27377">DESC 1</text><text x="976" y="27787">DESC 2</text><text x="976" y="28197">DESC 3</text></g></svg>