<svg xmlns="http://www.w3.org/2000/svg" width="744.09" height="1052.36" viewBox="0 0 21000 29700" shape-rendering="geometricPrecision" image-rendering="optimizeQuality" fill-rule="evenodd" clip-rule="evenodd" xmlns:xlink="http://www.w3.org/1999/xlink"><defs><clipPath id="1"><path d="m6560 526c-1348 143-2762 785-3785 1734-1944 1803-2448 4531-2321 7176 77 1618 272 3226 404 4839 264 3212 507 6433 447 9661-9 462-8 870 57 1332 94 663 305 1330 711 1850 1070 1367 4109 1386 5154-31 800-1084 717-3188 628-4475-160-2320-374-4544-18-6863 234-1524 627-3016 997-4507 603-2429 1175-4942 811-7470l-3-21-1-21c-123-2027-1072-3416-3082-3203z"/></clipPath><clipPath id="2"><path d="m14541 991c1229 139 2519 758 3452 1675 1773 1743 2232 4379 2117 6934-71 1563-248 3117-369 4676-241 3104-463 6216-408 9335 8 446 8 841-52 1287-86 641-278 1285-649 1787-976 1321-3747 1339-4701-30-729-1048-654-3081-573-4324 145-2242 341-4391 17-6631-213-1473-572-2915-910-4355-550-2347-1072-4775-740-7218l3-20 1-20c113-1959 978-3301 2811-3095z"/></clipPath></defs><text x="10081" y="23989" fill="#201e1e" font-family="&apos;Arial Black&apos;" stroke="#201e1e" font-weight="900" stroke-width="7.62" font-size="705.56">44</text><g fill="none" stroke="#373435" stroke-width="80"><circle cx="10533" cy="849" r="460"/><path d="m10533 39v1621"/><path d="m9723 849h1621"/><circle cx="10533" cy="25360" r="460"/><path d="m10533 24550v1621"/><path d="m9723 25360h1621"/></g><rect x="9843" y="22866" width="1347" height="637" rx="318" fill="#fff" stroke="#fff" stroke-width="20" id="0"/><use xlink:href="#0"/><path d="m6560 526c-1348 143-2762 785-3785 1734-1944 1803-2448 4531-2321 7176 77 1618 272 3226 404 4839 264 3212 507 6433 447 9661-9 462-8 870 57 1332 94 663 305 1330 711 1850 1070 1367 4109 1386 5154-31 800-1084 717-3188 628-4475-160-2320-374-4544-18-6863 234-1524 627-3016 997-4507 603-2429 1175-4942 811-7470l-3-21-1-21c-123-2027-1072-3416-3082-3203z" fill="#fefefe"/><g clip-path="url(#1)"><g stroke="#373435" stroke-linejoin="round" stroke-linecap="round"><text x="10500" y="14850" font-family="&apos;Segoe Print&apos;" stroke-width="50" font-size="737.03" transform="matrix(.78 0 0 1.20513-6039.57 9423.84)">00.00.0000</text><path d="m4017 21110c0 210 34 275 143 449-17 13-78 92-86 122l-373-375c-165-177-273-294-273-554 0-85 103-194 228-194 100 0 194 30 249 80 33 30 121 168 131 216h19c17-80 129-265 285-265 180 0 358 130 361 316-48-27-52-46-127-78-133-57-337-54-451 60-46 46-107 132-107 222zm-713-316c0 342 293 572 497 783 22 22 36 39 57 61 42 45 82 69 117 119 27 38 76 106 118 118 10-39 114-194 143-214l350 349c24 26 42 45 67 72l136 150 178-248c218-263 237-222 423-423 186-200 188-411 0-607-91-95-221-130-364-130-95 0-148 47-209 82 0-84-14-122-41-181-139-301-602-345-720-105-113-81-98-184-428-184-174 0-323 167-323 357z" stroke-width="7.62"/><g font-family="&apos;Segoe Print&apos;" stroke-width="50"><text x="10500" y="14850" font-size="872.87" transform="matrix(1.12346 0 0 1.20513-8250.56 7137.16)"> e </text><g font-size="935.52"><text x="10500" y="14850" transform="matrix(1.07563 0 0 1.20513-9848.89 8236.44)">Texto 02</text><text x="10500" y="14850" transform="matrix(1.07563 0 0 1.20513-9903.48 6287)">Texto 01</text></g></g><g fill="none" fill-rule="nonzero" stroke-width="100"><path d="m8696 3221c100-225 197-301 418-344 244-47 433 120 446 344 26 478-471 855-797 1320-508-679-926-641-946-1048-11-224 178-445 422-492 221-43 337 37 458 219z"/><path d="m3425 4506c-3-161 32-235 149-329 129-103 283-66 351 60 145 269-42 642-104 1012-478-235-709-83-831-312-67-126-17-313 111-416 116-94 205-83 324-16z"/><path d="m1146 9228c-34-157-85-220-219-280-148-67-289 10-327 150-79 298 186 611 330 954 410-352 669-266 735-519 37-140-54-308-202-375-134-60-218-27-318 69z"/><path d="m4471 7182c-169-88-266-85-427 8-177 102-219 310-122 459 208 318 701 288 1126 408 4-706 287-908 109-1177-98-149-322-186-499-84-161 92-196 206-188 387z"/><path d="m8549 7624c-131-68-205-66-330 6-137 79-169 240-94 355 160 246 541 223 870 315 3-545 221-701 84-909-76-115-248-144-385-65-124 71-152 159-145 299z"/><path d="m7868 9880c4-196-39-287-182-402-157-127-347-81-430 72-178 327 49 782 125 1234 586-283 869-97 1019-375 83-154 22-381-135-508-142-115-251-103-397-21z"/></g><g fill-rule="nonzero" stroke-width="50"><path d="m649 8223c5 6 9 12 15 18 9 8 16 17 21 27 6 11 10 18 14 22 4 3 11 7 21 11 11 4 22 7 34 7 8 0 20-4 36-12 15-8 26-12 33-12 6 0 13 3 21 8 8 5 13 11 12 16 0 16-14 31-39 45-26 14-46 21-60 20-26-1-57-15-93-41-36-26-57-51-65-73l-4-7c-1-2-2-4-3-7-5-9-7-17-7-21 0-4 6-10 17-18 11-9 18-13 21-13 5 0 10 3 14 9 4 6 8 13 12 19zm11-249c4 6 9 13 15 19 9 8 15 17 20 27 5 11 10 18 13 22 3 3 11 7 21 12 11 4 22 7 34 8 8 0 20-3 36-11 15-8 26-12 33-11 6 0 13 3 21 9 8 6 12 11 12 16-1 16-14 30-40 44-26 13-46 20-60 19-26-1-57-16-92-43-35-27-56-52-63-75l-3-7c-1-2-2-4-3-7-5-10-7-17-7-21 0-4 6-9 17-18 11-8 18-12 21-12 5 0 10 4 14 10 4 6 8 13 11 20zm661-258c-4 47-32 86-84 117-52 31-105 44-157 39-62-6-132-31-208-75-77-44-138-97-183-160-45-63-65-125-60-188 4-48 14-87 29-118 15-31 36-57 61-80 26-23 51-37 77-44 25-6 60-7 105-2 42 4 90 21 144 51 54 30 105 72 154 128 49 56 83 108 103 155 20 48 26 106 20 176zm-239 76c43 4 80-5 111-28 32-23 49-51 52-85 8-88-28-173-107-256-79-82-167-128-263-138-37-4-66 0-88 12-22 11-42 31-60 60-18 29-28 62-31 99-6 65 35 135 123 210 88 75 176 117 263 126zm12-752c-66-49-117-103-154-162-37-59-52-109-46-151 3-23 17-40 42-52 25-12 53-16 85-10 95 16 179 65 253 147 73 82 105 160 94 236-3 21-12 38-26 54-14 15-30 22-49 21-14-1-26 1-34 6-15 10-30 14-45 12-28-5-86-22-175-52l-268-91c-90-31-145-51-166-62-21-11-34-21-40-31-6-10-8-21-6-34 3-20 23-27 60-21 35 6 83 25 143 58 58 32 168 76 332 132zm151 36c32-10 49-26 52-47 5-33-5-70-28-112-24-42-60-80-108-116-49-35-91-56-127-62-16-3-30-2-43 1-12 4-19 10-21 18-6 40 22 95 83 165 61 70 125 121 191 153zm15-557c-5-4-12-9-21-16-43-30-77-57-100-79-24-22-46-46-66-72-21-25-36-47-45-66-10-19-15-36-18-50-2-14-2-28 0-40 5-25 17-43 36-56 19-12 39-16 60-11 9 2 17 7 24 14 6 7 9 17 6 28-2 12-10 22-23 29-13 8-21 17-23 28-6 30 24 80 90 150 66 70 144 121 233 154 23 8 38 17 44 27 6 10 7 22 5 36-3 14-16 22-39 23-23 1-61-4-114-16-14-3-45-11-94-24-57-15-102-29-137-42-6-2-19-7-39-13-23-7-39-14-47-19-8-5-16-13-22-24-6-11-8-22-6-33 2-11 7-18 15-21 8-4 16-5 25-3 12 3 28 9 48 20 23 12 38 20 47 23 10 3 21 7 31 12 12 6 46 16 101 32l17 4 12 3zm-308-641c-2 6-9 8-24 8-4 0-9 0-15 1-21 2-39 1-54-3-12-4-22-14-31-31-9-17-11-34-7-50 2-8 8-16 17-25 9-8 17-11 23-9 10 3 26 11 48 25 22 14 35 30 39 47 4 18 5 30 3 38zm486 203c23 7 49 11 79 14 6 0 10 1 14 2 6 2 11 8 17 20 6 12 8 23 5 33-7 27-37 33-90 18-55-16-139-52-252-109-40-20-64-31-74-34-19-6-34-14-46-24-12-10-16-22-13-33 4-14 10-25 20-31 9-6 19-8 28-5 9 3 20 8 34 16 74 44 127 74 159 89 33 15 73 30 119 43zm65-494c-4 2 2 15 16 37 24 36 42 79 54 126 12 48 14 89 3 122-8 25-22 42-43 50-21 8-46 7-76-3-46-16-92-50-138-102-46-52-81-115-105-188-24-73-29-132-16-176 7-23 20-41 40-54 5-3 9-6 12-8 5-4 15-6 27-6 13-1 23 1 30 3 4 2 11 5 19 12 44 34 81 60 111 77 30 17 82 43 156 77 66 31 117 56 151 77 34 21 66 47 94 80 28 32 47 66 55 100 9 34 8 67-1 97-16 52-50 97-104 134-53 37-92 52-114 44-14-5-20-13-17-23 2-5 15-17 40-36 66-49 107-100 123-152 14-46-1-89-46-131-44-42-116-85-216-129-23-10-42-19-57-28zm-243-84c-7 24-3 58 12 102 15 45 43 92 82 143 40 51 77 82 111 94 11 4 22 4 30-1 9-5 14-11 17-19 8-25 4-62-11-111-15-50-42-97-81-143-39-46-73-73-100-83-33-11-52-6-59 17zm408-398c40 61 66 116 79 165 13 49 14 89 2 120-8 21-24 35-48 42-24 7-51 4-81-8-75-33-145-99-208-201-63-101-83-184-59-247 9-23 29-34 60-33 10 0 17-3 20-11 8-22 21-29 39-21 9 4 21 11 35 20 79 51 136 84 171 99 70 30 116 36 139 16 11-9 22-11 32-7 9 4 16 14 20 29 5 16 5 29 1 40-8 21-30 32-65 32-36 1-82-11-138-36zm-252-80c-13 36 7 93 60 171 53 78 103 128 150 148 33 14 53 11 61-10 11-30-5-85-49-166-44-80-93-132-146-155-41-18-66-14-76 12zm447-441c44 67 73 128 87 185 14 57 14 101-1 134-12 26-31 40-59 44-27 4-58-3-93-21-70-37-130-102-180-195-49-93-60-171-31-233 12-27 36-46 72-57l-248-198c-17-14-26-28-28-42-2-14-1-24 2-30 8-18 30-19 64-1 6 3 26 21 60 54 53 51 119 109 201 173 81 64 149 110 203 138 56 29 89 32 99 9 7-15 9-33 5-54-2-9-2-17 1-23 4-8 12-10 23-3 14 7 25 28 33 61 8 33 6 62-5 87-20 43-74 42-162-5-15-8-30-16-45-26zm-219-51c-19 43-8 101 34 175 42 74 89 124 141 152 35 18 57 16 67-5 9-21 9-52 0-93-9-41-32-90-68-148-36-57-66-92-91-106-12-6-27-8-45-4-18 4-30 14-37 29zm595-203c-19 34-49 54-89 58-40 4-80-7-121-33-68-45-123-111-164-197-42-87-45-160-11-221 23-40 58-62 104-65 47-4 92 9 137 39 69 45 118 112 147 202 29 90 28 162-3 218zm-183-48c27 17 51 26 74 27 23 0 39-8 49-26 21-37 21-89-1-155-22-66-59-116-112-151-33-21-63-31-91-30-28 1-49 14-63 38-23 40-16 92 19 155 36 63 77 110 125 141zm560-682c33 50 83 116 151 197l58 72c8 10 14 23 18 39 4 15 3 26-1 31-6 7-16 11-30 13-14 2-24 0-28-4-13-12-28-32-46-58-138-203-272-366-402-489l-29-27c-25-23-40-45-44-64-4-20-2-35 8-47 4-5 13-6 26-3 13 3 27 13 43 28 22 21 48 49 76 84 36 44 56 69 62 75-33-90-52-169-55-238-4-69 7-119 33-150 18-22 42-32 72-31 30 1 58 14 84 39 75 72 122 164 138 278 16 113 3 196-40 248-11 13-23 20-36 21-13 1-33-3-57-13zm-111-470c-25 31-26 98-3 202 24 104 52 172 86 204 8 8 20 11 35 10 15-1 29-9 40-23 26-31 31-91 16-178-15-87-47-153-94-198-17-16-33-25-47-28-15-2-26 2-34 11zm605-243c22 24 31 72 26 143-5 71-26 126-63 165-32 33-66 47-104 42-38-5-75-28-111-68-62-68-101-153-119-254-18-101-4-175 41-221 15-15 32-22 52-20 20 2 37 11 52 28 33 37 50 87 51 152 1 64-9 139-29 222-4 17-2 31 7 41 18 20 37 31 57 33 20 2 40-6 58-26 42-44 60-117 52-219-1-15 1-24 4-27 6-6 15-4 26 9zm-255 156c29-147 27-238-6-275-13-14-25-16-35-5-18 19-24 56-17 112 6 56 26 112 59 168zm14-827c15-14 32-10 51 13 17 20 48 77 94 171 29 59 64 120 106 184 42 64 77 112 104 145 34 41 70 80 108 116 7 7 12 12 15 16 10 12 16 26 16 42 0 16-3 27-11 34-11 10-25 9-43-3-18-12-42-37-72-73-69-83-146-194-232-332-85-138-132-223-140-253-8-30-6-50 4-59zm718 242c4 75 0 136-13 185-13 49-32 83-57 103-17 13-37 16-62 9-24-8-46-25-65-52-48-70-75-166-79-288-4-122 19-203 70-244 18-15 41-13 68 6 9 6 16 7 22 2 18-14 32-13 43 4 6 8 12 21 20 37 43 88 75 148 97 181 45 65 81 95 111 92 14-1 24 3 31 12 6 8 7 20 3 36-4 16-10 27-19 34-17 14-41 10-71-9-31-20-64-55-100-108zm-176-209c-29 23-40 83-33 179 7 97 26 167 56 210 21 31 40 39 57 26 24-19 37-75 39-169 2-93-14-165-49-214-26-38-50-49-70-33zm782-65c13 60 37 141 71 243l29 90c4 13 5 27 3 43-2 16-6 25-12 28-8 4-18 4-32 0-14-4-22-9-25-15-8-16-15-41-22-73-58-243-125-448-202-614l-18-37c-15-32-22-58-19-77 3-20 11-33 24-40 6-3 14-1 25 8 11 8 21 23 30 43 13 29 27 65 41 109 18 55 28 87 32 94 1-97 11-178 32-243 21-65 48-107 83-126 25-13 51-13 78 0 27 13 49 37 64 70 45 97 56 201 31 313-24 112-65 183-123 214-15 8-28 9-40 5-13-4-29-16-49-35zm61-481c-34 18-59 81-73 186-14 106-11 180 9 224 5 11 15 18 30 23 15 5 30 3 45-5 35-19 61-72 77-159 16-87 10-161-18-222-10-22-21-36-34-44-13-8-24-9-35-3zm378 90c0-7 0-16 0-27-2-55-2-100 1-134 3-34 8-67 15-99 7-33 15-59 24-78 9-19 18-34 27-45 9-10 20-18 30-23 22-10 43-11 63-1 20 10 35 25 44 46 4 10 5 19 3 29-2 10-8 17-18 22-10 5-23 4-36-3-14-7-25-8-35-3-26 12-46 68-61 166-14 98-8 196 20 293 7 25 9 43 5 54-4 11-12 19-25 25-12 6-26-1-40-21-15-20-33-56-55-108-6-14-18-46-37-95-22-58-38-106-48-143-2-6-6-20-13-42-8-24-12-42-13-52-1-10 1-21 6-33 5-12 12-20 21-24 9-4 18-4 25 1 8 5 13 12 16 20 5 12 9 30 13 54 4 27 8 45 10 54 4 11 7 22 9 34 3 14 15 50 35 107l7 17 5 12zm671-254c11 32 0 79-31 142-31 63-72 104-121 123-41 16-78 13-111-8-32-21-57-58-75-111-30-89-34-184-11-284 23-100 63-161 122-184 19-7 38-6 55 5 17 11 30 27 37 48 16 48 12 102-12 161-24 59-61 122-112 190-11 14-14 27-9 41 9 26 22 44 39 55 18 11 38 12 63 2 55-21 99-80 132-177 5-14 10-21 14-23 8-3 15 3 20 19zm-292 30c83-121 116-205 100-253-6-19-16-25-30-20-24 9-43 40-59 94-15 54-19 113-11 179zm597-71c-5-21-32-38-81-53-62-18-105-34-129-49-24-15-39-34-45-59-16-64-3-124 39-182 42-57 80-91 113-100 21-6 38-6 50 0 12 6 21 20 26 43 2 10 1 19-4 28-5 9-10 14-14 15-3 1-9 0-19-2-10-2-16-3-18-2-13 4-37 23-72 58-34 35-48 67-41 97 4 18 16 32 34 43 18 11 48 21 90 32 34 9 63 20 85 35 23 15 37 35 44 62 12 49-6 96-55 139-49 44-98 73-149 88-43 12-68 1-77-35-3-12-1-23 8-31 8-9 17-14 27-17 4-1 12-2 24-2 12 0 19 0 23-1 29-8 59-23 90-45 30-22 48-42 51-62zm477-185c7 33-8 79-46 138-38 59-82 94-133 107-43 11-79 4-109-21-30-25-51-65-63-120-20-92-14-187 19-283 33-96 80-152 141-168 20-5 38-1 54 11 16 13 27 30 32 52 11 50 1 103-29 158-30 56-74 114-131 175-12 12-16 25-13 39 6 27 17 47 33 60 16 13 37 16 62 10 57-15 107-68 150-160 7-13 12-20 16-21 8-2 14 5 18 22zm-294-5c95-110 137-190 126-239-4-19-14-27-28-24-24 6-47 35-68 87-21 51-31 110-29 176zm648-267c-14 2-28 15-42 40-14 25-34 78-59 161-33 111-56 174-67 190-12 16-22 25-30 26-32 4-50-13-54-50-2-16-2-38-1-68 4-102-1-208-13-318-1-13 1-27 8-44 7-17 15-25 22-26 14-2 25 2 32 12 7 10 13 31 16 63 4 33 3 103-1 209-2 35-2 57-1 66 1 5 2 8 4 8 4-1 18-42 43-126 25-85 48-145 70-181 22-36 48-56 79-60 24-3 46 8 64 33 18 25 35 73 50 144 17 80 29 130 38 149 8 19 19 28 32 26 8-1 19-6 31-15 2-2 4-3 5-3 12-2 18 6 20 22 2 15-5 31-19 49-14 18-33 29-55 32-23 3-42-6-57-26-15-21-32-79-50-175-18-96-40-142-64-139z"/><path d="m6860 1413c-2 9-3 20-4 33 6 7 17 10 33 11 11 0 22 2 32 8 10 5 18 15 23 28 5 14 8 38 9 72 0 17-12 39-36 67-24 28-59 42-105 43-7 0-16-2-28-7-12-4-22-9-30-14-4-2-6-3-5-3-13-8-20-19-20-34 0-9 3-18 8-27 6-9 12-14 18-14 5 0 12 4 21 12 17 17 30 25 41 25 28-1 47-6 56-16 9-10 13-26 13-48 0-13-3-23-10-32-6-9-15-13-25-13-3 0-10 2-19 7-8 5-15 7-20 7-15 0-23-8-23-25 6-19 11-36 15-51 4-15 8-28 11-38-48-21-73-71-75-150-1-87 25-179 80-276 55-97 107-146 155-147 22 0 41 14 58 42 16 29 25 59 25 92 0 20-3 36-10 51-7 14-14 22-21 22-16 0-27-19-35-58-8-42-19-62-33-62-28 1-61 42-99 125-37 83-56 152-55 209 1 56 28 84 80 83 40-1 87-25 141-71 19-17 33-25 42-25 9 0 14 6 14 19 0 25-23 57-72 97-48 39-96 59-143 60h-5c-1 0-3 0-4 0zm623-158c-47 55-91 95-133 119-42 24-78 34-109 28-21-4-37-17-49-41-12-24-15-53-10-86 13-86 59-173 137-262 78-88 149-127 211-116 23 4 37 23 43 56 2 11 7 17 14 19 22 4 31 16 28 36-2 10-5 24-10 41-29 94-47 161-53 201-12 79-7 129 15 149 11 10 15 21 13 32-2 10-9 19-22 28-13 8-25 11-36 10-21-4-35-24-43-61-8-37-8-88 2-152zm17-281c-36-6-83 27-143 100-60 73-93 136-101 190-6 38 2 58 22 62 30 5 76-24 140-88 64-64 100-126 109-187 7-47-2-73-27-77zm444-199c2-3 8-5 20-6 11-1 19-1 23 1 4 2 9 12 16 32l5 17c6 19 9 38 8 59 0 8-2 18-8 33-10 26-32 62-67 108-35 46-62 65-83 56-8-3-13-9-17-17-4-8-4-16 0-25 6-16 16-27 30-33 34-16 58-44 73-84 6-15 2-39-11-72-4-10-6-17-7-19-1-3 2-12 7-27 5-15 8-23 10-24zm250 122c2-2 9-4 20-3 11 0 19 2 23 4 4 2 8 13 12 34l4 18c4 19 5 39 2 60-1 8-4 18-11 31-13 25-38 58-78 99-39 42-69 57-89 45-7-4-12-11-15-19-3-8-2-17 2-25 7-15 19-25 34-29 35-11 62-36 82-74 7-15 6-39-3-73-3-11-5-17-5-20 0-3 3-11 10-26 7-14 11-22 12-23z"/></g><path d="m5333 19125c0 31 23 46 43 46 46 0 147-165 221-207l57 123c-20 32-94 96-127 125-36 32-66 57-66 90 0 35 34 38 57 38 31 0 140-149 186-153 8 37 28 55 36 92-47 27-86 66-130 98-66 47-25 93 4 98 40 6 127-99 169-111 14 65 14 21 14 107 0 70-137 158-190 186-52 28-207 97-274 97-94 0-362-552-400-628 60-15 254-131 304-164l200-153c20-17 44-44 67-50l50 115-177 178c-19 19-45 40-45 75zm-428-92c-4-20-7-23-14-38l390-294c23-18 40-30 62-48 26-21 38-40 69-48 14 23 29 45 36 77-72 52-148 121-253 196-62 44-224 140-290 156zm-836-958l105-117c28 55 47 99 76 152 112 201 205 282 275 394l-505 393c-27 22-45 43-81 51-41-30-300-393-300-406 0-19 102-130 129-138 5 23 42 81 59 113 42 77 91 16 91-6 0-29-69-135-93-184l70-71c34 28 133 172 156 181 30 11 100-27 29-101-20-21-22-29-39-50-25-31-60-65-80-98l41-48 125 169c60 80 98 23 98-6 0-23-24-45-36-61l-121-169zm179-184c16-33 15-26 43-46l194 259c34 45 66 88 98 132 24 32 84 98 93 138-10 17-56 61-79 61-17 0-131-160-149-185l-201-359zm1950 169c0 31 23 46 43 46 44 0 43-51 51-91 6-35 20-93 21-131 27 19 50 30 79 46-12 55-21 106-33 164-14 64-35 110 33 127 47-27 41-38 53-104 8-45 25-99 26-141l100 54c-5 23-13 35-20 54-36 93-104 213-8 213 37 0 84-170 107-222 21 12 81 48 100 54-1 62-136 367-143 398-38-1-114-22-152-28l-408-60c-32-6-48-11-82-11 4-48 40-106 57-146 36-87 149-408 150-475 36 9 28 22 64 31-11 49-36 176-36 222zm-343 329c-80 0-86-101-86-169 0-101 103-275 156-362 34-56 35-90 101-90 84 0 61 30 13 183-62 199-75 211-140 379-9 22-21 59-45 59zm-3171-521h-100c-126 0-296-68-359-136-147-158-98-589-98-807 58 5 124 15 186 15 57 1 136 14 192 16 189 6 337 15 536 15 1 33 6 31 7 69 1 28-2 54 2 82 6 46 1 110 7 161 10 73-4 224-19 298-39 192-172 287-354 287zm3606-1080c47-4 175-45 222-60 152-50 266-105 409-159l204-87 52 151c20 54 37 99 56 154 179 514 87 572-362 694-64 17-141 35-217 35-145 0-272-113-313-223-57-150-51-298-51-505zm-2021 77c19-87 28-114 81-189 70-100 52-94 219-94 0 80 45 222 71 276-133 0-241 8-371 8zm407-299c122 0 59-20 173 143 17 24 31 48 50 69 18 21 42 49 55 71l-200 8c-29 0-60-106-69-133-10-32-13-50-20-86-6-32-24-72 10-72zm-189-77c6-11 13-24 23-40 17-27 12-27 48-30l2 66-73 3zm156-79l40-5 33 67-72 4-1-66zm-3188-242c27 0 53 34 78 47 157 86 214 107 402 167 491 155 602 125 1070 123 65 0 100 8 164 8h507c59 0 99 8 164 8 29 133 128 107 244 93l206-16c-21 42-48 72-69 117-19 40-38 95-38 151-283 0-812-10-1082 11l-139-3c-41 0-52-6-86-8-32-2-68 1-100 0-37-1-44-8-85-8-31 0-70 3-99-1l-557-31c-243-27-455-43-612-170-148-120-183-233-88-403 26-47 63-85 121-85zm3406 383c103 0 274-24 357-23 113 1 137-13 202-59 28-20 69-14 110-20 71-9 155-21 224-35 257-55 365-96 595-182l140-57c63-22-14 40 180-44 43-18 88-38 129-54 89-35 169-71 259-106 146-56 402-187 540-187h50c76 0 121 155 121 245 0 171-321 242-468 287-68 21-121 45-186 69-110 40-225 96-359 144l-373 128c-190 69-405 106-613 132-33 4-76 11-108 14l-228 23c-19 2-37-1-56 2-22 3-26 7-58 7-258 2-213 54-295-52-22-28-39-42-61-72-27-36-91-114-101-160zm-971-646c79-27 328-40 429-50 95-10 843-94 874-81 44 18 40 145 48 200 10 66 23 172 18 240-65 19-467 95-524 89-20-50-38-97-57-146-17-47-32-130-84-113-38 13-46 94-61 142-18 56-44 103-59 150l-357 38c-64 6-79 11-104-33-66-116-122-269-124-436zm522 529c-27 87-100 70-209 79-70 5-200 24-264 16-32-44-128-321-156-393-46-119-105-212-73-305 16-47 38-45 87-51 314-37 626-79 940-119 147-19 333-55 480-44 76 6 108 68 119 148 11 84 23 163 35 247 19 134 84 389-69 416-70 12-172 13-247 18-78 6-167 17-244 18l-36-70c155-21 297-57 443-79 176-26 132-127 101-393-27-235-48-255-274-232-160 16-318 33-478 49-85 8-639 58-698 79-84 30-65 104-57 205 10 118 94 328 150 397 51 63 115 50 205 40 81-9 163-19 245-25zm-787-611c-332 0-748 7-876-401-50-159-23-175-24-288 0-56 0-113 0-169 0-55 8-96 7-161-1-75 9-83 25-142 13-48 23-82 36-130 27-101 37-166 89-242 189-276 563-351 877-400l352-36c60-3 146-16 221-15 61 0 96-8 150-8 52 0 105 0 157 0 61 0 93-8 150-8h300c59 0 90 8 143 8 442-2 515 1 713 354 79 142 81 185 137 336 84 228 128 359 128 605 0 136-75 267-133 348-109 156-277 216-454 248-322 59-128 32-272-135-51-59-77-61-177-63-53-1-46-7-100 0l-1336 168c-64 7-109 60-114 130zm-1657-1877c-116 0-154-110-63-175 38-27 118-71 154-8 10 18 5 43-2 79-10 52-32 104-89 104zm1557 1976c55 0 40 4 86-8 2 29 9 41 19 64 10 24 16 41 25 65 25 67 132 332 142 376-102 0-205 0-307 0-106 0-196-8-307-8-204 0-418 7-622 0-37-1-103-10-137-14-154-21-245-47-390-87-75-21-444-127-444-190 0-459-32-1031 134-1442 17-43 27-69 49-108 39-70 69-134 126-194 17-18 22-31 36-45 52-56 152-136 221-176 160-92 352-185 523-259 108-46 230-96 343-130 505-153 543-151 1026-217l284-25c98-1 186-15 293-15h200c615 0 1500 295 1812 607l107 115c172 209 223 288 347 555 103 221 160 453 216 695l53 257c-31 3-87 22-119 33-264 92-529 204-785 315-149 64-296 118-458 168-114 36-402 102-524 105 46-102-36-386-36-513 51-1 289-48 336-61 102-29 196-77 269-140 47-41 58-53 97-103 35-45 51-76 80-129 154-278 59-562-24-832l-117-334c-10-21-17-28-26-48-39-80-83-159-134-232-41-60-87-108-148-148-111-73-312-87-490-87-599 0-1115-11-1694 91-86 15-182 37-257 61-231 77-511 227-586 483l-89 325c-22 71-17 240-17 319 1 200-42 362 84 576 21 36 44 61 69 95 37 51 137 112 190 141 142 77 328 100 543 100zm2949-2474c0-47 15-145 78-131 17 4 44 11 59 14 48 10 76 9 107 39 37 36 74 121 26 176-36 42-51 40-84 40-92 0-186-40-186-138zm-4435 666c-11-75-35-67 107-146l388-220c46-25 83-44 129-69 453-244 1174-531 1669-531 58 0 76 42 202 10 76-19 24-17 120-17 329 0 673 74 983 156 203 54 638 217 831 326-5 23-27 74-38 97-16 33-25 64-41 94-25-2-62-24-88-36-31-14-57-28-89-43-187-86-362-151-565-206-601-163-1219-145-1831-53-117 18-223 43-334 63-232 41-695 196-916 289l-205 94c-167 80-190 117-321 192zm4163-728l2 2c0 0-3-2-2-2zm-3971-398v222l-114-77 114-146zm-57 843c3-44 27-31 99-78l334-193c39-25 71-41 113-63l112-64c37-20 77-43 114-61l236-115c169-88 742-299 921-299 21 0 41 34 55 48 20 20 37 28 52 52-162 0-425 69-578 115-365 109-667 230-1000 406l-457 253zm4021-444l-317-120c-265-95-605-158-888-197l-202-21 155-87c39-20 160 11 196 17 68 12 133 25 197 41 64 16 131 29 197 49 160 50 204 58 361 126 61 27 272 144 301 190zm-836-643c46 0 410 150 497 194l131 66c124 59 208 113 324 181 40 23 107 74 126 79-19 38-46 76-50 130-29-7-41-25-67-43-25-18-40-29-63-47-272-211-626-328-957-399-54-12-134-33-191-33 23-21 235-130 250-130zm-3221 981c-17-35-26-34-43-61l141-110c30-24 32-14 58-29 21-12 15-21 40-42 17-14 33-23 52-37l638-388 346-165c80-34 409-175 490-195l166 174c-70 5-320 81-399 105-125 38-370 139-489 196-38 18-77 40-117 58-80 35-151 78-226 118-37 20-71 38-110 59l-548 317zm179-352c11-148 7-262 7-414 188-107 425-207 634-270 227-68 487-112 759-136 23 17 56 45 64 77-86 8-570 238-677 285-111 48-256 136-358 190l-428 268zm-264-299c-26-7-18-10-38-28-11-11-30-25-41-33l176-210c19-26 25-30 44-52 21-24 125-147 130-167h14c7 28 8 16 21 38-111 178-77 159-227 339-15 18-27 35-42 55-16 22-32 31-39 58zm3971-544c8 0 163 134 203 188 11 15 16 19 27 33 60 81 106 209 106 354-27-19-60-38-91-56l-193-107c-36-19-69-33-102-51l-414-184c52 0 325-31 362-48 31-15 59-42 59-82 0-1-29-46 43-46zm-4113 414c-12-9-57-49-64-61l287-297c33-36 72-60 98-101 15 11 25 14 36 31l-357 429zm763-598c241 12 501 21 681-160 21-22 18-26 54-15 174 53 384 136 552 206 94 39 144 86 259 48 77-26 155-81 225-119 55-30 172-96 225-111 15 20 30 49 48 75 47 67 305 488 323 539-180 64-510 357-697 238-54-35-218-192-260-242-45-53-77-84-122-129l-119-126c-88-95-83-90-161-85-521 35-861 144-1334 378 13-61 121-215 153-260l172-236zm-256 192c-75-59-58-237 0-337 11-19 28-41 47-57 22-19 39-35 53-58 28 7 63 20 93 23 0 46 4 110 0 153-4 47-97 150-125 188-15 21-54 76-68 88zm2331-382c11-9 80-46 97-46 32 1 55 46 72 68 21 27 351 467 366 499l-169 85c-37-99-317-514-365-606zm-1910 106c-54 0-80-8-136-8l-7-123c141 0 165 26 361-26 72-19 186-73 210-73 9 35 27 37 36 77-36 10-49 56-201 106-80 26-159 47-263 47zm2207-61c35-37 106-72 160-97 77-34 118-45 199-22-43 71-186 56-174 132 13 83 158 27 211 12 76-22 152-46 229-68 61-18 178-73 224-34-12 40-151 62-212 77-52 13-199 26-202 84-4 85 166 29 219 18 73-14 175-43 244-29-12 21 7 7-24 20-23 10-332 47-398 71-13 40-17 49 13 76 18 10 295-17 351-23 44-4 72-4 90 27-84 31-321 29-413 46-49 9-61 58-18 87 46 12 234-6 300-6-28 18-469 66-469 66l-168-221c-29-39-54-73-82-111-27-36-61-73-78-107zm650-153l2 2c0 0-3-2-2-2zm-3371 123l7-161c22 2 76 29 93 38l-100 123zm-93-92c0 209 50 175 50 230 0 44-10 30-31 37-35 11-94 86-128 122l-170 170c-8-33-214-324 6-514 60-52 129-91 237-91 27 0 14 5 43 8-4 17-7 18-7 38zm1107-100c50-28 134-93 173-136 46-49 111-118 141-178 45 32 95 62 149 85 39 17 136 65 172 68 0 110 29 362 29 475-26-7-405-160-530-198-28-8-73-17-89-35-15-18-35-60-46-81zm864-222c31-18 59-39 86-61 14-12 24-20 40-34 21-18 21-28 46-35 27 123 272 395 364 421-13 19-295 158-321 161l-214-452zm6-336l18-44c28-101 72-424-89-424-60 0-99 82-100 146h-14c-13-59-107-150-162-90-15 16-1 0-12 18-10 16 0 4-12 18 0-210-63-405-159-580-29-52-70-84-84-139-5-19-2-14-11-34-27-61-67-117-106-170-24-33-73-63-83-103 38-3 154-9 131-78-13-40-121-51-160-59-57-13-125-23-179-38-36-10-37-25-52-59-21-49-18-72-69-72-81 0-179 67-236 100l28-116c14-40-7-79-47-73-101 15-204 154-275 226-49 49-112-23-183 64-18 22-35 42-65 45 1-51 43-159-29-169-49 12-135 98-163 139-43 61-68 146-85 231-17 90 2 49-50 100l-147 164c-203 291-181 680-79 1017 4 14 5 19 9 29 9 22 7 10 13 24 15 32-52 119 77 178 50 23 107 27 175 27 37 75 108 135 166 190l63 55c-80 0-118-2-183 18-43 13-103 50-136 77-215 175-168 444-31 663-85 137-231 139-109 255 14 13 18 14 32 27 90 85 175 181 277 247 33 21 112 85 142 92 0 181 10 102-204 287-50 43-100 38-162 79-167 111-108 354 80 354 0 123 16 146-25 180-164 135-270 373-331 580-124 419-87 848-87 1286-195-49-314 182-314 329 0 282 328 434 547 471 91 15 213 35 303 35 0 83-7 138-7 222 0 238-20 516 155 684 43 41 127 81 191 101 217 68 501 60 651-112 166-191 102-591 102-841 35 0 37-5 65-7 76-7 160 6 235-1 220-20 529-7 757-7 1 43 20 78 37 106 82 136 212 221 308 344 225 286 27 527 19 623-27-8-16-5-32-27-12-16-16-22-28-39-21-28-38-48-58-75-27-37-83-123-120-140-64-30-115 51-149 88-105 113-218 223-318 341l-68 65c-43 47-82 88-125 134-183 196-112 186 62 436 31 45 63 86 94 129 132 182 178 100 350-38l421-329c93-75 186-111 186-215 0-47-74-128-99-162-70-95-67-56-20-173 50-125 109-274 68-445-18-76-39-128-78-184-20-29-33-50-58-76-65-69-214-211-259-274-24-33-29-53-47-88h421c29 132 357 387 357 712 0 337-67 443-78 606-16 244-29 204 50 367 17 35 29 67 50 100l-220 162c-111 78-14 176 25 262l57 115c65 138 195 375 290 478 27 29 63 63 106 63 74 0 270-84 320-116 124-81 250-162 197-339-7-23-5-14-13-33-18-47 4-37-31-81-41-53-52-142-82-180-26-33-41-78-60-119-13-27-17-31-23-60-8-40-12-29-32-58-53-79-56-158-102-243-76-139-117-99-237-2-41 33-86 72-131 97-3-38-25-62-40-94-12-25-40-79-44-99-7-36 12-238 18-268 38-215 86-401 65-625-15-157-91-279-170-399l-117-165c-17-24-47-60-54-88l235-7c32 5 170 147 195 182 90 130 155 279 215 428 58 145 168 401 284 485-65 131-84 355 64 436 121 67 503 87 670 123 143 31 194 57 258-116 27-73 135-314 112-380-12-33-35-51-62-65-161-88-319-187-481-273l-118-65c-14-6-35-10-52-13-189-35-211-13-349 267-83-65-185-284-222-382-59-158-169-416-272-536-32-37-74-63-98-101l200-8c223-12 622-65 821-115l12 293c29 224 94 380 290 471 135 62 300 23 434-13 76-20 154-40 221-69 402-171 240-538 114-873-13-36-56-137-57-176 33-3 358-113 385-124 54-22 121-55 163-93 70-63 95-117 95-220 0-122-55-276-168-311-58-18-104-4-158 0-39 3 2-3-32-3-26 0-25 9-50 15-110-504-192-891-468-1321-15-23-40-49-46-73 100-160 259-190 420-254 152-60 297-144 410-265 56-60 99-134 129-214 32-86 52-201 55-294 1-30-7-37-7-76 0-39-1-59-5-87-30-247-30-490-31-741l29-705-23-21c-20-8-794-16-1161-410-160-171-242-393-342-606-43-92-84-183-135-269-54-89-141-141-238-166-61-16-77 16-79-53-3-83-24-160-52-220-144-309-316-225-397-233-32-3-33-22-101-22-30 0-32 16-59 19-52 7-243-118-396 36-81 82-115 174-130 297-2 13-5 50-8 60-6 18-2 12-14 23-81 73-106 96-106 223-62 18-179 163-223 220-106 137-191 350-191 561 0 67-1 142 7 207 4 32 13 60 14 92h-64c-29 0-3-1-14 8l-8-6zm-492-162l14-38c0 10 1 11-2 21-1 1-1 4-2 5l-10 12zm914 69c0 108 129 175 198 90 18-22 30-60 30-98 0-60-22-67-43-100 122 31 298 35 419-3 55-17 102-44 148-71 35-21 94-70 121-100 24-26 84-101 112-109 18 81 122 227 170 292 34 46 192 199 244 213-14 66-50 154-79 207-70 129-194 254-316 327-95 57-91 42-148 71-86-138-301-40-395 13-59 33-157-9-174-30-67-80-42-4-104-41l-142-102c-223-194-343-504-306-837 4-40-15-39 111 43 54 35 110 63 172 84 28 10 47 8 60 28-45 11-79 66-79 123zm-714-237l21 31c58 106 44 283 121 283 28 0 22-8 43-23 0-153 6-193 36-329h14c60 278-135 486-8 489 58 1 105-56 179-14-17 68-221 166-221 207 0 41 10 40 26 71 24 46 207 428 209 457-57 14-146 84-193 84-25 0-28-6-50-8l-36-544c-4-61-74-67-170-108-33-14-62-28-94-45-33-18-62-36-93-54 9-18 17-31 21-54 124 64 195 23 113-83-7-10-39-49-42-55-11-23 2-49 8-76 73 57 48 133 150 107 23-102-36-132-36-337zm-93 92l2 2c0 0-3-2-2-2zm736-153l2 2c0 0-3-2-2-2zm1114-176l9-184c148 88 211 3 248-8 5 24 12 31 24 51 13 21 17 31 28 54 17 37 34 82 47 119 48 144 56 313 22 466-129-92-227-203-307-345l-72-153zm-1100 184c223 0 397-2 596-150 99-74 274-280 289-288 39-22 61 15 144-45 0 30-5 62-8 99-3 35-5 64-7 108-1 23-3 29-6 48-8 49-13 37-71 100-243 261-428 289-785 194l-153-66zm107-92c-148 0-211-38-279-38l52-151c24-47 47-85 75-126 69-100 188-197 194-206 53 38 79 69 157 69 63 0 107-49 157-61 34 70 100 84 171 84 50 0 67-28 107-38 9 14 15 27 27 40 14 16 19 18 30 36-33 52-146 158-198 209-125 121-321 182-494 182zm1070-539c136-52 182 173 83 205-139 45-189-164-83-205zm-298-113c127-58 199 145 77 200-113 51-209-140-77-200zm499 32v-31c63 0 113 23 156 47 47 27 73 59 100 107 105 188 182 408 276 578 71 129 162 267 272 359 43 36 70 59 117 89 170 109 401 182 603 226 93 20 268 49 361 49 0 62-15 129-14 215 0 49-7 62-8 107v644c0 503 192 879-338 1185-162 94-447 147-553 273-12 14-12 19-25 34-12 14-21 23-34 32-47-75-115-142-177-201-53-50-160-135-216-167l93-192 100 8c224 0 279-357-2-457-39-14-73-14-119-18-24-2-29-6-47-18-19-12-28-17-46-28 0-338-108-500-336-682-9-7-38-28-45-36-21-25-6-23-22-53-10-19-25-31-40-41 0 0 68-133-43-161 8-37 14-15 14-69 0-48-55-107-100-107-120 0-104 25-171 31 10-15 130-100 170-140 52-52 97-118 136-183 136-225 183-554 114-824-19-73-41-123-70-185-32-68-83-131-86-169-4-55 0-67-17-113-22-60-5-45-5-109zm-798-109c129-56 194 155 71 202-120 46-200-146-71-202zm-288-33c53-15 105 44 109 96 6 65-37 114-89 119-141 16-149-179-20-215zm-2334 65c224 20 259 268 329 268 17 0 32-15 43-23v-161c42 30 77 73 104 118 34 55 85 56 101-52 8-51-6-56 61-6 76 56 118 124 163 124 72 0 19-231 14-253 14 8 29 16 43 23 15 8 36 15 50 23 24 14 48 48 70 71 125 132 237 406 237 619v130c-42 0-78-8-105 48-52 110 53 180 41 243-28-2-23-8-57-8 7-33 53-100-36-100-24 0-40 42-50 61-173 313-407 456-763 429-217-16-393-191-534-346-70-77-109 3-83 42 20 29 80 86 107 115 151 161 325 289 609 289 169 0 301-43 409-112 49-31 108-78 146-119 22-23 45-45 64-69 10-13 18-25 28-39 15-20 13-29 38-36 1 39 14 53 29 77-15 24-43 65-62 86-74 82-49 64-147 149-217 189-583 259-859 145-123-51-298-148-378-261-17-24-27-31-43-54-32-44-38-74-110-74-44 0-143 1-143-38 0-78 74-52 101-145 17-60 25-33 45-82 28-69 16-145 10-217 40 26 17 38 73 38 64 0 23-169 21-245 106 0 156 29 95-110-28-63-54-188-59-258 45 13 151 123 171 123 62 0 64 3 64-61 0-63-58-166-71-230 91 8 193 100 214 100 81 0 26-187 21-222zm2885-475c37 0 109 125 126 163 35 79 31 161 31 273-79-41-99-10-156-23-28-6-48-9-79-15-37-7-28-17-60-35-22-12-45-19-75-19 6-81 30-163 64-215 19-29 113-130 150-130zm150 15c66 0 117 15 155 48 73 64 124 179 137 282 11 83 0 113 0 199-51-13-50-16-106-6-56 10-51-8-94-32l7-146c0-161-40-248-100-345zm-528 391c-55-39-47-70-136-92 0-81 25-165 52-220 45-90 127-110 212-110 41 0 51 12 86 15-26 41-85 79-115 190-22 82 2 187-99 216zm1450 5232v-199l185-8c31 0 62 1 93 1l180-14c31 2 18 42 19 82 3 176 58 217-59 335-69 70-250 63-348-15-56-44-72-82-72-183zm93-299h-93c0-151 27-285 116-381 16-17 21-27 44-37 117-54 195 30 243 133 35 75 62 162 62 271-41 0-55 5-86 7-32 3-68-1-100 0l-186 8zm129 636c105 0 184 3 266-75 109-103 100-248 82-398-19-153-4-336-87-497-113-219-262-277-440-110-110 103-128 287-136 437-4 68 7 119 7 192 0 148-14 250 59 328 59 64 133 124 248 124zm-4513-54c-114 0-222-7-287-121-22-38-26-98-18-161 7-51 5-116 5-178 22 2 25 8 50 8h428v199c0 44 10 14-1 99-7 56-50 104-92 131-21 14-51 23-86 23zm-79-973c91 0 146 22 200 146 37 85 50 173 50 283h-243c-83 0-139-8-221-8 0-76 24-196 55-263 24-53 95-158 160-158zm-314 812c0 100 123 212 225 241 98 27 220 31 303-26 181-124 128-288 128-421 1-183 5-351-62-501-19-43-57-106-86-137-156-169-405-38-471 243-34 147-38 437-38 602zm1364-490c0 88 98 45 180 25 45-11 92-22 135-32 248-55 737-165 992-177 43-2 111-9 151-14 105-13 218-2 327-9l486-8c55 0 129 14 129-46 0-59-62-60-120-53-92 11-404 7-508 7-106 0-223 14-329 15-204 2-734 100-901 136l-424 97c-41 9-117 14-117 58zm-14-314c61 0 165-37 223-52 608-162 1294-230 1934-193 65 4 214 20 214-46 0-36-17-54-50-54-577 0-1019-18-1585 84-244 44-416 85-648 147-23 6-82 17-100 31-33 26-21 83 13 83zm-29-398c0 81 111 31 237 9 470-84 1079-177 1549-177 134 0 323-4 450 7 33 3 115 10 141-9 44-33 23-90-49-90-672 0-849-19-1535 85-140 21-278 39-419 64l-305 56c-40 8-69 9-69 56zm2050-2451c-274 0-425-132-584-324-22-27-29-50-66-59-37 21-56 39-29 84l127 155c106 109 317 235 480 235 237 0 313-18 492-170 84-72 215-288 215-374 0-38-51-48-77-14-27 35-142 466-559 466zm-743 3348v-92c46 0 59-8 100-8 45 209 21 170 21 291-112 0-102 34-112-49-6-52-10-88-10-143zm-93-107c0 62 1 378 62 402 7 3 165-8 187-12 102-21 52-399 1-481-55 0-104 8-151 14-66 8-99-1-99 78zm-1093-4106c0 230 264 250 264 38 0-89-54-184-136-184h-29c-54 0-100 83-100 146zm-636 100v38c0 78 72 169 143 169 174 0 146-337-29-337-65 0-114 61-114 130zm2714 222c0 148 137 170 194 101 58-70 45-224-94-224-53 0-100 63-100 123zm-682 5142l72-4-33-67-40 5 1 66zm-84 10l-2-66c-36 3-31 3-48 30-10 15-17 29-23 40l73-3z" stroke-width="7.62"/></g></g><g font-family="&apos;Arial Black&apos;" font-weight="900" font-size="637.72"><text x="10500" y="14850" transform="matrix(.93223 0 0 1-1814.17-9086.81)">NN 1</text><text x="10500" y="14850" transform="matrix(.93223 0 0 1-1758.9-8375.46)">NN 2</text></g><g fill="#fefefe"><path d="m14581 527c1555 175 6279 1556 5938 9096-71 1567-248 3128-370 4693-240 3093-461 6187-406 9285 6 358 108 2158-797 3383-1134 1535-4211 1575-5336-40-562-807-824-2134-660-4647 149-2294 341-4311 21-6522-561-3873-2193-7722-1650-11720 138-2395 1314-3747 3260-3528m-388 5180c-220 27-417-153-441-402-24-250 135-474 354-501 220-27 417 153 441 402 24 250-135 474-354 501m162 15315c-220 27-417-153-441-402-24-250 135-474 354-501 220-27 417 153 441 402 24 250-135 474-354 501m4132 2c-220 27-417-153-441-402-24-250 135-474 354-501 220-27 417 153 441 402 24 250-135 474-354 501"/><path d="m14541 991c1229 139 2519 758 3452 1675 1773 1743 2232 4379 2117 6934-71 1563-248 3117-369 4676-241 3104-463 6216-408 9335 8 446 8 841-52 1287-86 641-278 1285-649 1787-976 1321-3747 1339-4701-30-729-1048-654-3081-573-4324 145-2242 341-4391 17-6631-213-1473-572-2915-910-4355-550-2347-1072-4775-740-7218l3-20 1-20c113-1959 978-3301 2811-3095z"/></g><g clip-path="url(#2)"><g stroke="#373435" stroke-linejoin="round" stroke-linecap="round"><g fill-rule="nonzero"><g stroke-width="50"><path d="m14172 8824c-13-7-20-25-20-54 0-23 31-45 92-66 62-21 115-32 161-32 51 0 91 16 121 47 30 31 45 73 45 125 0 77-28 146-85 207-57 61-133 106-229 134-25 8-40 14-43 19-3 5-6 36-7 93-2 57-3 97-3 119 0 16-3 30-10 42-7 12-14 19-23 19-21 0-31-21-31-62 0-23 4-86 13-189l25-310c1-5 1-20 1-45 0-25-2-40-6-47zm73-30c-2 10-3 29-5 56-3 48-7 102-12 161-3 31-5 64-7 100 77-16 145-48 204-96 59-49 89-102 89-160 0-71-37-107-110-107-48 0-101 15-158 46zm596 461c-33 66-65 115-97 148-32 33-61 49-88 49-18 0-33-11-46-34-13-23-20-52-20-88 0-92 27-190 82-296 55-106 109-159 163-159 20 0 34 17 44 50 3 11 8 17 14 17 19 0 28 11 28 32 0 11-1 26-3 44-13 103-19 176-19 218 0 84 11 135 32 152 10 8 15 19 15 31 0 11-5 22-15 33-10 11-20 16-29 16-18 0-33-19-44-56-12-37-18-90-18-158zm-21-295c-31 0-67 43-107 129-41 86-61 158-61 215 0 40 9 60 27 60 26 0 61-39 107-116 45-77 68-149 68-213 0-50-11-75-33-75zm276 277c2-6 5-15 8-26 16-54 30-97 44-128 13-31 28-60 44-89 16-28 31-50 44-64 13-15 25-25 36-31 11-6 21-9 31-9 20 0 37 9 50 28 13 18 19 40 19 64 0 11-2 21-7 29-5 9-11 13-21 13-10 0-19-6-27-19-8-13-17-19-26-19-24 0-58 44-101 132-43 88-69 185-78 290-2 27-7 45-13 54-7 9-16 13-28 13-11 0-20-13-25-38-5-26-8-68-8-129 0-16 1-53 2-108 1-66 4-119 8-160 1-7 2-22 3-46 2-27 4-46 6-56 2-10 7-20 15-29 8-9 16-14 25-14 9 0 15 4 19 12 4 8 6 17 6 26 0 14-2 33-7 58-5 28-8 47-9 57-1 12-2 24-4 37-2 15-5 54-7 118v19 14zm529 17c-33 66-65 115-97 148-32 33-61 49-88 49-18 0-33-11-46-34-13-23-20-52-20-88 0-92 27-190 82-296 55-106 109-159 163-159 20 0 34 17 44 50 3 11 8 17 14 17 19 0 28 11 28 32 0 11-1 26-3 44-13 103-19 176-19 218 0 84 11 135 32 152 10 8 15 19 15 31 0 11-5 22-15 33-10 11-20 16-29 16-18 0-33-19-44-56-12-37-18-90-18-158zm-21-295c-31 0-67 43-107 129-41 86-61 158-61 215 0 40 9 60 27 60 26 0 61-39 107-116 45-77 68-149 68-213 0-50-11-75-33-75zm668 365c0-23-19-48-56-77-47-36-79-65-96-87-17-22-25-46-25-73 0-69 23-127 70-173 47-46 84-69 114-69 19 0 33 5 41 15 8 10 13 27 13 51 0 11-3 20-9 28-6 8-11 11-14 11-3 0-8-3-15-8-8-5-12-7-15-7-12 0-35 13-71 38-36 26-53 54-53 86 0 19 6 37 19 53 13 16 35 35 68 58 26 19 47 39 63 60 16 21 24 47 24 76 0 53-25 95-74 125-49 30-96 45-141 45-38 0-57-19-57-58 0-13 4-23 13-29 8-6 17-9 26-9 3 0 10 2 20 5 10 3 16 5 19 5 26 0 54-6 83-19 30-13 48-29 55-48zm427-58c0 36-21 78-63 129-42 50-86 75-130 75-37 0-66-16-87-50-20-33-31-79-31-139 0-100 22-195 67-285 45-90 94-135 148-135 17 0 32 9 43 26 11 17 17 38 17 62 0 54-18 105-53 154-35 49-82 98-141 145-12 9-18 22-18 37 0 29 5 52 17 70 11 18 28 26 50 26 50 0 101-41 153-124 8-11 14-17 18-17 7 0 11 9 11 27zm-243-82c99-88 148-159 148-212 0-21-6-31-19-31-21 0-46 24-73 71-27 47-46 105-57 173zm386 51c2-6 5-15 8-26 16-54 30-97 44-128 13-31 28-60 44-89 16-28 31-50 44-64 13-15 25-25 36-31 11-6 21-9 31-9 20 0 37 9 50 28 13 18 19 40 19 64 0 11-2 21-7 29-5 9-11 13-21 13-10 0-19-6-27-19-8-13-17-19-26-19-24 0-58 44-101 132-43 88-69 185-78 290-2 27-7 45-13 54-7 9-16 13-28 13-11 0-20-13-25-38-5-26-8-68-8-129 0-16 1-53 2-108 1-66 4-119 8-160 1-7 2-22 3-46 2-27 4-46 6-56 2-10 7-20 15-29 8-9 16-14 25-14 9 0 15 4 19 12 4 8 6 17 6 26 0 14-2 33-7 58-5 28-8 47-9 57-1 12-2 24-4 37-2 15-5 54-7 118v19 14zm565-206c-22 1-68 97-139 288-24 64-38 100-42 105-4 6-11 11-22 16-11 4-19 7-26 7-16 0-24-46-24-137 0-51 7-144 22-278 6-54 9-93 9-117 0-23 7-34 21-34 26 0 39 28 39 84 0 26-4 78-13 154-10 87-15 140-15 159 14-21 36-67 64-138 40-97 69-158 88-184 19-26 38-39 58-39 15 0 27 15 36 46 9 30 14 103 16 217 0 29 2 50 5 64 3 14 5 21 7 21 11 0 35-56 71-167 20-59 39-104 57-134 18-31 39-46 62-46 19 0 33 15 41 44 9 29 15 72 19 129 3 58 9 111 16 159 7 48 21 79 40 93 13 9 20 20 20 33 0 12-6 25-17 38-11 13-21 19-31 19-19 0-35-17-50-51-15-34-26-108-33-222-3-46-6-78-10-97-3-19-8-29-14-29-10 0-21 14-35 42-13 28-35 85-65 170-23 67-41 111-53 133-12 22-24 33-35 33-10 0-19-6-27-18-8-12-13-27-15-44-2-17-4-58-7-125-4-110-10-174-19-193zm574 440c-32 0-58-18-79-54-21-36-31-81-31-134 0-90 20-179 61-266 40-87 89-131 145-131 37 0 68 21 91 64 23 43 35 94 35 153 0 91-24 175-72 252-48 78-98 116-149 116zm-49-202c0 35 5 64 15 86 10 22 23 34 39 34 35 0 70-29 104-86 35-57 52-121 52-190 0-43-7-78-20-104-13-27-31-40-54-40-37 0-70 34-97 103-27 69-40 134-40 197zm527 56c0-23-19-48-56-77-47-36-79-65-96-87-17-22-25-46-25-73 0-69 23-127 70-173 47-46 84-69 114-69 19 0 33 5 41 15 8 10 13 27 13 51 0 11-3 20-9 28-6 8-11 11-14 11-3 0-8-3-15-8-8-5-12-7-15-7-12 0-35 13-71 38-36 26-53 54-53 86 0 19 6 37 19 53 13 16 35 35 68 58 26 19 47 39 63 60 16 21 24 47 24 76 0 53-25 95-74 125-49 30-96 45-141 45-38 0-57-19-57-58 0-13 4-23 13-29 8-6 17-9 26-9 3 0 10 2 20 5 10 3 16 5 19 5 26 0 54-6 83-19 30-13 48-29 55-48z"/><path d="m13343 11161c-2 9-6 16-13 22-7 6-14 9-22 9-24 0-36-26-36-78 0-25 6-95 16-210 7-71 10-124 10-161 0-6-5-14-15-25-10-10-15-19-15-29 0-15 8-31 23-49 12-14 19-29 21-46 3-17 6-40 9-70 12-108 30-186 56-234 25-48 57-72 97-72 21 0 38 11 53 32 15 21 22 47 22 79 0 26-4 54-12 87-8 32-17 48-27 48-8 0-12-6-12-17l3-51c0-67-13-101-38-101-27 0-50 40-68 120-18 80-27 145-27 196 0 16 7 24 21 24 61 0 97 0 107-1 11-1 16 6 16 21 0 14-6 25-18 33-12 8-37 14-77 20-34 5-53 9-57 13-16 130-23 245-23 347 0 30 1 53 3 68 2 14 3 22 3 26zm496-201c0 36-21 78-63 129-42 50-86 75-130 75-37 0-66-16-87-50-20-33-31-79-31-139 0-100 22-195 67-285 45-90 94-135 148-135 17 0 32 9 43 26 11 17 17 38 17 62 0 54-18 105-53 154-35 49-82 98-141 145-12 9-18 22-18 37 0 29 5 52 17 70 11 18 28 26 50 26 50 0 101-41 153-124 8-11 14-17 18-17 7 0 11 9 11 27zm-243-82c99-88 148-159 148-212 0-21-6-31-19-31-21 0-46 24-73 71-27 47-46 105-57 173zm438-627c17 0 25 16 25 48 0 29-10 97-30 204-13 68-23 142-30 224-7 82-11 146-11 192 0 58 3 115 7 172 1 11 1 19 1 24 0 18-4 33-12 45-8 13-16 19-25 19-12 0-21-11-26-34-5-23-7-60-7-111 0-117 9-262 28-434 19-173 34-274 45-303 11-29 22-44 34-44zm195 185c-5 0-9-8-11-24-1-5-2-10-4-16-6-23-9-42-9-59 0-14 5-28 17-43 11-14 23-22 37-22 7 0 14 4 23 12 8 8 13 15 13 23 0 12-3 31-9 59-6 28-15 46-27 56-13 9-22 14-29 14zm-46 585c0 26 3 56 7 89 1 6 1 11 1 16 0 6-4 14-11 24-8 10-16 15-24 15-23 0-34-31-34-93 0-64 9-166 26-305 6-49 9-78 9-89 0-22 3-41 8-56 5-16 13-23 23-23 12 0 21 4 28 13 7 9 10 18 10 29 0 10-2 24-5 41-17 92-28 158-32 198-4 40-6 87-6 142zm437 110c-6-4-12-8-18-13-20-15-48-23-83-23-20 0-54 6-101 18-47 12-80 29-97 54-12 16-24 24-37 24-7 0-15-3-24-9-9-6-14-15-14-26 11-18 26-42 45-71 105-160 185-292 240-398-1-3-5-5-11-5-12 0-39 4-79 13-18 4-37 6-57 6-48 0-72-19-72-57 0-29 11-43 32-43 1 0 3 1 7 3 17 10 37 16 61 16 31 0 67-4 107-11 4-1 9-2 14-3 5-1 11-2 18-4 13-4 24-5 32-5 8 0 16 3 24 9 8 6 12 16 11 30v2c-5 30-67 140-185 329-28 46-44 73-46 81 1 4 3 5 7 5 3 0 20-5 49-14 55-18 97-27 125-27 44 0 67 20 67 61 0 25-5 45-14 59zm362-172c0 36-21 78-63 129-42 50-86 75-130 75-37 0-66-16-87-50-20-33-31-79-31-139 0-100 22-195 67-285 45-90 94-135 148-135 17 0 32 9 43 26 11 17 17 38 17 62 0 54-18 105-53 154-35 49-82 98-141 145-12 9-18 22-18 37 0 29 5 52 17 70 11 18 28 26 50 26 50 0 101-41 153-124 8-11 14-17 18-17 7 0 11 9 11 27zm-243-82c99-88 148-159 148-212 0-21-6-31-19-31-21 0-46 24-73 71-27 47-46 105-57 173zm492 139c0-23-19-48-56-77-47-36-79-65-96-87-17-22-25-46-25-73 0-69 23-127 70-173 47-46 84-69 114-69 19 0 33 5 41 15 8 10 13 27 13 51 0 11-3 20-9 28-6 8-11 11-14 11-3 0-8-2-15-8-8-5-12-7-15-7-12 0-35 13-71 38-36 26-53 54-53 86 0 19 6 37 19 53 13 16 35 35 68 58 26 19 47 39 63 60 16 21 24 47 24 76 0 53-25 95-74 125-49 30-96 45-141 45-38 0-57-19-57-58 0-13 4-23 13-29 8-6 17-9 26-9 3 0 10 2 20 5 10 3 16 5 19 5 26 0 54-6 83-19 30-13 48-29 55-48z"/><path d="m15772 11110c-11 63-22 151-32 264l-10 99c-2 14-6 28-13 42-7 14-13 21-19 21-7 0-15-6-25-16-9-11-14-20-14-26 0-19 3-46 9-80 43-258 64-484 64-679v-44c0-38 4-65 13-82 9-17 20-26 32-26 6 0 11 7 16 20 5 13 8 32 8 56 0 34-2 75-7 123-6 61-9 96-9 105 35-91 71-161 110-212 39-51 75-76 108-76 23 0 43 13 60 39 16 26 24 59 24 98 0 114-29 217-87 310-58 93-115 139-170 139-14 0-25-5-33-16-8-11-16-30-25-57zm217-421c-33 0-73 46-122 138-48 92-73 164-73 215 0 13 5 25 14 37 10 12 22 18 36 18 33 0 72-37 115-111 43-74 65-146 65-217 0-26-3-45-10-59-7-14-16-21-26-21zm249 274c2-6 5-15 8-26 16-54 30-97 44-128 13-31 28-60 44-89 16-28 31-50 44-64 13-15 25-25 36-31 11-6 21-9 31-9 20 0 37 9 50 28 13 18 19 40 19 64 0 11-2 21-7 29-5 9-11 13-21 13-10 0-19-6-27-19-8-13-17-19-26-19-24 0-58 44-101 132-43 88-69 185-78 290-2 27-7 45-13 54-7 9-16 13-28 13-11 0-20-13-25-38-5-26-8-68-8-129 0-16 1-53 2-108 1-66 4-119 8-160 1-7 2-22 3-46 2-27 4-46 6-56 2-10 7-20 15-29 8-9 16-14 25-14 9 0 15 4 19 12 4 8 6 17 6 26 0 14-2 33-7 58-5 28-8 47-9 57-1 12-2 24-4 37-2 15-5 54-7 118v19 14zm596 30c0 36-21 78-63 129-42 50-86 75-130 75-37 0-66-16-87-50-20-33-31-79-31-139 0-100 22-195 67-285 45-90 94-135 148-135 17 0 32 9 43 26 11 17 17 38 17 62 0 54-18 105-53 154-35 49-82 98-141 145-12 9-18 22-18 37 0 29 5 52 17 70 11 18 28 26 50 26 50 0 101-41 153-124 8-11 14-17 18-17 7 0 11 9 11 27zm-243-82c99-88 148-159 148-212 0-21-6-31-19-31-21 0-46 24-73 71-27 47-46 105-57 173zm411 289c-35 0-62-15-81-45-19-30-28-72-28-126 0-91 24-187 72-288 48-101 93-151 135-151 19 0 35 15 49 46 14 31 21 63 21 97 0 21-3 38-9 53-6 15-12 22-18 22-13 0-23-21-29-61-6-44-15-66-27-66-24 0-53 43-86 129-33 86-50 159-50 218 0 59 22 89 67 89 34 0 75-24 121-72 16-17 28-26 36-26 8 0 12 7 12 21 0 26-21 60-63 100-42 40-83 60-123 60zm380-730c-5 0-9-8-11-24-1-5-2-10-4-16-6-23-9-42-9-59 0-14 5-28 17-43 11-14 23-22 37-22 7 0 14 4 23 12 8 8 13 15 13 23 0 12-3 31-9 59-6 28-15 46-27 56-13 9-22 14-29 14zm-46 585c0 26 3 56 7 89 1 6 1 11 1 16 0 6-4 14-11 24-8 10-16 15-24 15-23 0-34-31-34-93 0-64 9-166 26-305 6-49 9-78 9-89 0-22 3-41 8-56 5-16 13-23 23-23 12 0 21 4 28 13 7 9 10 18 10 29 0 10-2 24-5 41-17 92-28 158-32 198-4 40-6 87-6 142zm316-4c0-23-19-48-56-77-47-36-79-65-96-87-17-22-25-46-25-73 0-69 23-127 70-173 47-46 84-69 114-69 19 0 33 5 41 15 8 10 13 27 13 51 0 11-3 20-9 28-6 8-11 11-14 11-3 0-8-2-15-8-8-5-12-7-15-7-12 0-35 13-71 38-36 26-53 54-53 86 0 19 6 37 19 53 13 16 35 35 68 58 26 19 47 39 63 60 16 21 24 47 24 76 0 53-25 95-74 125-49 30-96 45-141 45-38 0-57-19-57-58 0-13 4-23 13-29 8-6 17-9 26-9 3 0 10 2 20 5 10 3 16 5 19 5 26 0 54-6 83-19 30-13 48-29 55-48zm363-71c-33 66-65 115-97 148-32 33-61 49-88 49-18 0-33-11-46-34-13-23-20-52-20-88 0-92 27-190 82-296 55-106 109-159 163-159 20 0 34 17 44 50 3 11 8 17 14 17 19 0 28 11 28 32 0 11-1 26-3 44-13 103-19 176-19 218 0 84 11 135 32 152 10 8 15 19 15 31 0 11-5 22-15 33-10 11-20 16-29 16-18 0-33-19-44-56-12-37-18-90-18-158zm-21-295c-31 0-67 43-107 129-41 86-61 158-61 215 0 40 9 60 27 60 26 0 61-39 107-116 45-77 68-149 68-213 0-50-11-75-33-75zm470 71c-22 1-68 97-139 288-24 64-38 100-42 105-4 6-11 11-22 16-11 4-19 7-26 7-16 0-23-46-23-137 0-51 7-144 22-278 6-54 9-93 9-117 0-23 7-34 21-34 26 0 39 28 39 84 0 26-4 78-13 154-10 87-15 140-15 159 14-21 36-67 64-138 40-97 69-158 88-184 19-26 38-39 58-39 15 0 27 15 36 46 9 30 14 103 16 217 0 29 2 50 5 64 3 14 5 21 7 21 11 0 35-56 71-167 20-59 39-104 57-134 19-31 39-46 62-46 19 0 33 15 41 44 9 29 15 72 19 129 3 58 9 111 16 159 7 48 21 79 40 93 13 9 20 20 20 33 0 12-6 25-17 38-11 13-21 19-31 19-19 0-35-17-50-51-15-34-26-108-33-222-3-46-6-78-10-97-3-19-8-29-14-29-10 0-21 14-35 42-13 28-35 85-65 170-23 67-41 111-53 133-12 22-24 33-35 33-10 0-19-6-27-18-8-12-13-27-15-44-2-17-4-58-7-125-4-110-10-174-19-193zm574 440c-32 0-58-18-79-54-21-36-31-81-31-134 0-90 20-179 61-266 40-87 89-131 145-131 37 0 68 21 91 64 23 43 35 94 35 153 0 91-24 175-72 252-48 78-98 116-149 116zm-49-202c0 35 5 64 15 86 10 22 23 34 39 34 35 0 70-29 104-86 35-57 52-121 52-190 0-43-7-78-20-104-13-27-31-40-54-40-37 0-70 34-97 103-27 69-40 134-40 197zm527 56c0-23-19-48-56-77-47-36-79-65-96-87-17-22-25-46-25-73 0-69 23-127 70-173 47-46 84-69 114-69 19 0 33 5 41 15 8 10 13 27 13 51 0 11-3 20-9 28-6 8-11 11-14 11-3 0-8-2-15-8-8-5-12-7-15-7-12 0-35 13-71 38-36 26-53 54-53 86 0 19 6 37 19 53 13 16 35 35 68 58 26 19 47 39 63 60 16 21 24 47 24 76 0 53-25 95-74 125-49 30-96 45-141 45-38 0-57-19-57-58 0-13 4-23 13-29 8-6 17-9 26-9 3 0 10 2 20 5 10 3 16 5 19 5 26 0 54-6 83-19 30-13 48-29 55-48z"/><path d="m14273 12810c-31 75-64 133-99 173-35 41-67 61-96 61-23 0-41-13-54-39-13-26-20-61-20-104 0-88 24-179 72-272 48-93 100-139 155-139 24 0 47 16 67 47l49-342c4-23 10-39 19-47 9-8 17-12 22-12 16 0 24 22 24 65 0 8-5 36-16 86-17 77-33 171-48 283-15 112-23 201-23 269 0 70 10 105 30 105 13 0 26-6 40-19 6-6 11-9 16-9 8 0 11 7 11 22 0 18-11 38-31 62-21 23-42 35-64 35-38 0-58-55-58-166 0-19 0-38 2-57zm-46-245c-38 0-75 38-112 115-37 77-56 147-56 212 0 44 10 65 29 65 18 0 40-14 66-43 26-29 53-74 80-137 27-63 41-110 41-141 0-15-5-31-14-47-9-16-21-24-35-24zm568 284c0 36-21 78-63 129-42 50-86 75-130 75-37 0-66-16-87-50-20-33-31-79-31-139 0-100 22-195 67-285 45-90 94-135 148-135 17 0 32 9 43 26 11 17 17 38 17 62 0 54-18 105-53 154-35 49-82 98-141 145-12 9-18 22-18 37 0 29 5 52 17 70 11 18 28 26 50 26 50 0 101-41 153-124 8-11 14-17 18-17 7 0 11 9 11 27zm-243-82c99-88 148-159 148-212 0-21-6-31-19-31-21 0-46 24-73 71-27 47-46 105-57 173zm849 31c-30 75-60 133-92 174-31 41-60 62-87 62-15 0-31-13-47-40-16-27-24-68-24-124 0-46 7-113 22-202 12-74 18-126 18-156 7-21 17-31 32-31 10 0 18 5 23 16 6 10 9 21 9 32 0 24-6 59-17 104-22 88-33 163-33 226 0 57 9 86 27 86 23 0 51-29 86-86 35-58 65-138 90-241 10-41 18-68 24-80 6-12 15-19 25-19 16 0 24 16 24 47 0 4-2 17-7 38-14 76-21 149-21 217 0 82 9 134 27 158 9 13 14 23 14 31 0 10-5 19-14 27-9 8-18 12-26 12-16 0-29-18-39-54-10-36-15-90-15-161v-17c0-6 0-11 0-17zm454-186c-22 1-68 97-139 288-24 64-38 100-42 105-4 6-11 11-22 16-11 4-19 7-26 7-16 0-23-46-23-137 0-51 7-144 22-278 6-54 9-93 9-117 0-23 7-34 21-34 26 0 39 28 39 84 0 26-4 78-13 154-10 87-15 140-15 159 14-21 36-67 64-138 40-97 69-158 88-184 19-26 38-39 58-39 15 0 27 15 36 46 9 30 14 103 16 217 0 29 2 50 5 64 3 14 5 21 7 21 11 0 35-56 71-167 20-59 39-104 57-134 18-31 39-46 62-46 19 0 33 15 41 44 9 29 15 72 19 129 3 58 9 111 16 159 7 48 21 79 40 93 13 9 20 20 20 33 0 12-6 25-17 38-11 13-21 19-31 19-19 0-35-17-50-51-15-34-26-108-33-222-3-46-6-78-10-97-3-19-8-29-14-29-10 0-21 14-35 42-13 28-35 85-65 170-23 67-41 111-53 133-12 22-24 33-35 33-10 0-19-6-27-18-8-12-13-27-15-44-2-17-4-58-7-125-4-110-10-174-19-193zm1050-335c2 2 3 11 3 26 0 15-1 26-3 34l5 22c8 41 15 75 23 101 9 36 19 74 28 115 21 94 42 174 65 241 23 67 43 114 62 141 12 17 19 29 22 35 3 6 4 14 4 23 0 15-3 28-10 39-7 11-15 16-25 16-30 0-66-70-108-211-17-55-27-83-31-83-11 0-35 5-72 15-37 10-71 22-101 36-17 8-29 12-33 12-6 0-12-4-18-13-1-1-3-2-4-2-5 0-16 23-33 68-28 75-46 120-53 134-7 15-15 22-24 22-6 0-14-6-23-16-9-11-13-22-13-34 0-11 4-26 13-45 8-19 26-57 51-115 46-102 85-198 117-288 50-143 82-227 95-253 13-26 24-38 31-38 15 0 27 6 35 19zm21 416c-8-28-20-79-36-153-17-79-28-127-33-144-13 40-33 98-59 172l-63 179c5-6 18-10 39-14 16-2 30-6 42-9 64-19 101-29 111-31zm507-81c-22 1-68 97-139 288-24 64-38 100-42 105-4 6-11 11-22 16-11 4-19 7-26 7-16 0-23-46-23-137 0-51 7-144 22-278 6-54 9-93 9-117 0-23 7-34 21-34 26 0 39 28 39 84 0 26-4 78-13 154-10 87-15 140-15 159 14-21 36-67 64-138 40-97 69-158 88-184 19-26 38-39 58-39 15 0 27 15 36 46 9 30 14 103 16 217 0 29 2 50 5 64 3 14 5 21 7 21 11 0 35-56 71-167 20-59 39-104 57-134 18-31 39-46 62-46 19 0 33 15 41 44 9 29 15 72 19 129 3 58 9 111 16 159 7 48 21 79 40 93 13 9 20 20 20 33 0 12-6 25-17 38-11 13-21 19-31 19-19 0-35-17-50-51-15-34-26-108-33-222-3-46-6-78-10-97-3-19-8-29-14-29-10 0-21 14-35 42-13 28-35 85-65 170-23 67-41 111-53 133-12 22-24 33-35 33-10 0-19-6-27-18-8-12-13-27-15-44-2-17-4-58-7-125-4-110-10-174-19-193zm574 440c-32 0-58-18-79-54-21-36-31-81-31-134 0-90 20-179 61-266 40-87 89-131 145-131 37 0 68 21 91 64 23 43 35 94 35 153 0 91-24 175-72 252-48 78-98 116-149 116zm-49-202c0 35 5 64 15 86 10 22 23 34 39 34 35 0 70-29 104-86 35-57 52-121 52-190 0-43-7-78-20-104-13-27-31-40-54-40-37 0-70 34-97 103-27 69-40 134-40 197zm422-31c2-6 5-15 8-26 16-54 30-97 44-128 13-31 28-60 44-89 16-28 31-50 44-64 13-15 25-25 36-31 11-6 21-9 31-9 20 0 37 9 50 28 13 18 19 40 19 64 0 11-2 21-7 29-5 9-11 13-21 13-10 0-19-6-27-19-8-13-17-19-26-19-24 0-58 44-101 132-43 88-69 185-78 290-2 27-7 45-13 54-7 9-16 13-28 13-11 0-20-13-25-38-5-26-8-68-8-129 0-16 1-53 2-108 1-66 4-119 8-160 1-7 2-22 3-46 2-27 4-46 6-56 2-10 7-20 15-29 8-9 16-14 25-14 9 0 15 4 19 12 4 8 6 17 6 26 0 14-2 33-7 58-5 28-8 47-9 57-1 12-2 24-4 37-2 15-5 54-7 118v19 14zm301 307c43-16 71-39 84-68 12-29 18-50 18-63 0-36-3-61-10-75-3-7-5-13-5-19 0-5 2-13 5-23 3-10 6-15 10-15 5 0 13 3 23 8 10 6 17 10 18 14 2 4 5 17 9 39 4 22 6 41 6 56 0 6-4 24-13 55-9 31-21 55-36 72-15 17-29 28-43 32-5 1-10 3-15 6-18 12-34 18-45 18-7 0-10-8-10-25 0-6 1-11 2-13z"/><path d="m14434 14353c-30 75-60 133-92 174-31 41-60 62-87 62-15 0-31-13-47-40-16-27-24-68-24-124 0-46 7-113 22-202 12-74 19-126 19-156 7-21 17-31 32-31 10 0 18 5 23 16 6 10 9 21 9 32 0 24-6 59-17 104-22 88-33 163-33 226 0 57 9 86 27 86 23 0 51-29 86-86 35-58 65-138 90-241 10-41 18-68 24-80 6-12 15-19 25-19 16 0 24 16 24 47 0 4-2 17-7 38-14 76-21 149-21 217 0 82 9 134 27 158 9 13 14 23 14 31 0 10-5 19-14 27-9 8-18 12-26 12-16 0-29-18-39-54-10-36-15-90-15-161v-17c0-6 0-11 0-17zm454-186c-22 1-68 97-139 288-24 64-38 100-42 105-4 6-11 11-22 16-11 4-19 7-26 7-16 0-24-46-24-137 0-51 7-144 22-278 6-54 9-93 9-117 0-23 7-34 21-34 26 0 39 28 39 84 0 26-4 78-13 154-10 87-15 140-15 159 14-21 36-67 64-138 40-97 69-158 88-184 19-26 38-39 58-39 15 0 27 15 36 46 9 30 14 103 16 217 0 29 2 50 5 64 3 14 5 21 7 21 11 0 35-56 71-167 20-59 39-104 57-134 18-31 39-46 62-46 19 0 33 15 41 44 9 29 15 72 19 129 3 58 9 111 16 159 7 48 21 79 40 93 13 9 20 20 20 33 0 12-6 25-17 38-11 13-21 19-31 19-19 0-35-17-50-51-15-34-26-108-33-222-3-46-6-78-10-97-3-19-8-29-14-29-10 0-21 14-35 42-13 28-35 85-65 170-23 67-41 111-53 133-12 22-24 33-35 33-10 0-19-6-27-18-8-12-13-27-15-44-2-17-4-58-7-125-4-110-10-174-19-193zm707 223c-33 66-65 115-97 148-32 33-61 49-88 49-18 0-33-11-46-34-13-23-20-52-20-88 0-92 27-190 82-296 55-106 109-159 163-159 20 0 34 17 44 50 3 11 8 17 14 17 19 0 28 11 28 32 0 11-1 26-3 44-13 103-19 176-19 218 0 84 11 135 32 152 10 8 15 19 15 31 0 11-5 22-15 33-10 11-20 16-29 16-18 0-33-19-44-56-12-37-18-90-18-158zm-21-295c-31 0-67 43-107 129-41 86-61 158-61 215 0 40 9 60 27 60 26 0 61-39 107-116 45-77 68-149 68-213 0-50-11-75-33-75zm624-153c-4 12-11 50-19 114-8 64-13 118-13 162 16-4 33-7 50-10l73-13c12-3 28-8 49-16 21-8 36-13 43-13 28 0 41 17 41 50 0 7-4 15-12 25-8 10-18 17-31 21-13 4-44 10-94 18-61 11-97 18-108 24-11 6-18 11-20 16-2 5-4 31-7 76-2 45-3 82-3 110l1 65c0 36-9 53-26 53-11 0-21-6-30-18-9-12-14-29-14-49 0-81 13-251 40-512 6-61 9-93 9-98 0-7-1-17-4-30-4-17-6-29-6-36 0-9 3-20 11-31 7-11 14-16 20-16l46 8c14 0 41-4 79-11 66-12 111-18 135-18 21 0 37 5 46 15 9 10 14 19 14 29 0 17-4 31-11 43-8 12-16 18-24 18-4 0-8-1-13-2-25-6-45-9-58-9-25 0-57 3-97 10-40 7-63 14-70 23zm528 447c-33 66-65 115-97 148-32 33-61 49-88 49-18 0-33-11-46-34-13-23-20-52-20-88 0-92 27-190 82-296 55-106 109-159 163-159 20 0 34 17 44 50 3 11 8 17 14 17 19 0 28 11 28 32 0 11-1 26-3 44-13 103-19 176-19 218 0 84 11 135 32 152 10 8 15 19 15 31 0 11-5 22-15 33-10 11-20 16-29 16-18 0-33-19-44-56-12-37-18-90-18-158zm-21-295c-31 0-67 43-107 129-41 86-61 158-61 215 0 40 9 60 27 60 26 0 61-39 107-116 45-77 68-149 68-213 0-50-11-75-33-75zm470 71c-22 1-68 97-139 288-24 64-38 100-42 105-4 6-11 11-22 16-11 4-19 7-26 7-16 0-24-46-24-137 0-51 7-144 22-278 6-54 9-93 9-117 0-23 7-34 21-34 26 0 39 28 39 84 0 26-4 78-13 154-10 87-15 140-15 159 14-21 36-67 64-138 40-97 69-158 88-184 19-26 38-39 58-39 15 0 27 15 36 46 9 30 14 103 16 217 0 29 2 50 5 64 3 14 5 21 7 21 11 0 35-56 71-167 20-59 39-104 57-134 18-31 39-46 62-46 19 0 33 15 41 44 9 29 15 72 19 129 3 58 9 111 16 159 7 48 21 79 40 93 13 9 20 20 20 33 0 12-6 25-17 38-11 13-21 19-31 19-19 0-35-17-50-51-15-34-26-108-33-222-3-46-6-78-10-97-3-19-8-29-14-29-10 0-21 14-35 42-13 28-35 85-65 170-23 67-41 111-53 133-12 22-23 33-35 33-10 0-19-6-27-18-8-12-13-27-15-44-2-17-4-58-7-125-4-110-10-174-19-193zm538 298c0 26 3 56 7 89 1 6 1 11 1 16 0 6-4 14-11 24-8 10-16 15-24 15-23 0-34-31-34-93 0-64 9-166 26-305 6-49 9-78 9-89 0-22 3-41 8-56 5-16 13-23 23-23 12 0 21 4 28 13 7 9 10 18 10 29 0 10-2 24-5 41-17 92-28 158-32 198-4 40-6 87-6 142zm179-663c-1 1-2 2-3 3-2 1-4 3-6 5-16 11-48 44-97 100-20 23-36 40-46 50l-8 7c-6 0-11-4-16-13-5-9-7-18-7-27 0-18 18-47 54-87 36-41 68-73 96-96 11-9 19-17 24-24 4-5 6-7 6-6 4 0 9 6 14 19 5 13 8 23 8 30 0 4-2 11-7 20-4 9-8 15-11 18zm83-107c17 0 25 16 25 48 0 29-10 97-30 204-13 68-23 142-30 224-7 82-11 146-11 192 0 58 3 115 7 172 1 11 1 19 1 24 0 18-4 33-12 45-8 13-16 19-25 19-12 0-21-11-26-34-5-23-7-60-7-111 0-117 9-262 28-434 19-173 34-274 45-303 11-29 22-44 34-44zm195 185c-5 0-9-8-11-24-1-5-2-10-4-16-6-23-9-42-9-59 0-14 5-28 17-43 11-14 23-22 37-22 7 0 14 4 23 12 8 8 13 15 13 23 0 12-3 31-9 59-6 28-15 46-27 56-13 9-22 14-29 14zm-46 585c0 26 3 56 7 89 1 6 1 11 1 16 0 6-4 14-11 24-8 10-16 15-24 15-23 0-34-31-34-93 0-64 9-166 26-305 6-49 9-78 9-89 0-22 3-41 8-56 5-16 13-23 23-23 12 0 21 4 28 13 7 9 10 18 10 29 0 10-2 24-5 41-17 92-28 158-32 198-4 40-6 87-6 142zm376-74c-33 66-65 115-97 148-32 33-61 49-88 49-18 0-33-11-46-34-13-23-20-52-20-88 0-92 27-190 82-296 55-106 109-159 163-159 20 0 34 17 44 50 3 11 8 17 14 17 19 0 28 11 28 32 0 11-1 26-3 44-13 103-19 176-19 218 0 84 11 135 32 152 10 8 15 19 15 31 0 11-5 22-15 33-10 11-20 16-29 16-18 0-33-19-44-56-12-37-18-90-18-158zm-21-295c-31 0-67 43-107 129-41 86-61 158-61 215 0 40 9 60 27 60 26 0 61-39 107-116 45-77 68-149 68-213 0-50-11-75-33-75zm212 585c43-16 71-39 84-68 12-29 18-50 18-63 0-36-3-61-10-75-3-7-5-13-5-19 0-5 2-13 5-23 3-10 6-15 10-15 5 0 13 3 23 8 10 6 17 10 18 14 2 4 5 17 9 39 4 22 6 41 6 56 0 6-4 24-13 55-9 31-21 55-36 72-15 17-29 28-43 32-5 1-10 3-15 6-18 12-34 18-45 18-7 0-10-8-10-25 0-6 1-11 2-13z"/><path d="m14546 16106c0 36-21 78-63 129-42 50-86 75-130 75-37 0-66-16-87-50-20-33-31-79-31-139 0-100 22-195 67-285 45-90 94-135 148-135 17 0 32 9 43 26 11 17 17 38 17 62 0 54-18 105-53 154-35 49-82 98-141 145-12 9-18 22-18 37 0 29 5 52 17 70 11 18 28 26 50 26 50 0 101-41 153-124 8-11 14-17 18-17 7 0 11 9 11 27zm-243-82c99-88 148-159 148-212 0-21-6-31-19-31-21 0-46 24-73 71-27 47-46 105-57 173zm849 31c-30 75-60 133-92 174-31 41-60 62-87 62-15 0-31-13-47-40-16-27-24-68-24-124 0-46 7-113 22-202 12-74 19-126 19-156 7-21 17-31 32-31 10 0 18 5 23 16 6 10 9 21 9 32 0 24-6 59-17 104-22 88-33 163-33 226 0 57 9 86 27 86 23 0 51-29 86-86 35-58 65-138 90-241 10-41 18-68 24-80 6-12 15-19 25-19 16 0 24 16 24 47 0 4-2 17-7 38-14 76-21 149-21 217 0 82 9 134 27 158 9 13 14 23 14 31 0 10-5 19-14 27-9 8-18 12-26 12-16 0-29-18-39-54-10-36-15-90-15-161v-17c0-6 0-11 0-17zm454-186c-22 1-68 97-139 288-24 64-38 100-42 105-4 6-11 11-22 16-11 4-19 7-26 7-16 0-24-46-24-137 0-51 7-144 22-278 6-54 9-93 9-117 0-23 7-34 21-34 26 0 39 28 39 84 0 26-4 78-13 154-10 87-15 140-15 159 14-21 36-67 64-138 40-97 69-158 88-184 19-26 38-39 58-39 15 0 27 15 36 46 9 30 14 103 16 217 0 29 2 50 5 64 3 14 5 21 7 21 11 0 35-56 71-167 20-59 39-104 57-134 18-31 39-46 62-46 19 0 33 15 41 44 9 29 15 72 19 129 3 58 9 111 16 159 7 48 21 79 40 93 13 9 20 20 20 33 0 12-6 25-17 38-11 13-21 19-31 19-19 0-35-17-50-51-15-34-26-108-33-222-3-46-6-78-10-97-3-19-8-29-14-29-10 0-21 14-35 42-13 28-35 85-65 170-23 67-41 111-53 133-12 22-24 33-35 33-10 0-19-6-27-18-8-12-13-27-15-44-2-17-4-58-7-125-4-110-10-174-19-193zm1050-335c2 2 3 11 3 26 0 15-1 26-3 34l5 22c8 41 15 75 23 101 9 36 18 74 28 115 21 94 42 174 65 241 23 67 43 114 62 141 12 17 19 29 22 35 3 6 4 14 4 23 0 15-3 28-10 39-7 11-15 16-25 16-30 0-66-70-108-211-17-55-27-83-31-83-11 0-35 5-72 15-37 10-71 22-101 36-17 8-28 12-33 12-6 0-12-4-18-13-1-1-3-2-4-2-5 0-16 23-33 68-28 75-46 120-53 134-7 15-15 22-24 22-6 0-14-6-23-16-9-11-13-22-13-34 0-11 4-26 13-45 8-19 26-57 51-115 46-102 85-198 117-288 50-143 82-227 95-253 13-26 24-38 31-38 15 0 27 6 35 19zm21 416c-8-28-20-79-36-153-17-79-28-127-33-144-13 40-33 98-59 172l-63 179c5-6 18-10 39-14 16-2 30-6 42-9 64-19 101-29 111-31zm507-81c-22 1-68 97-139 288-24 64-38 100-42 105-4 6-11 11-22 16-11 4-19 7-26 7-16 0-24-46-24-137 0-51 7-144 22-278 6-54 9-93 9-117 0-23 7-34 21-34 26 0 39 28 39 84 0 26-4 78-13 154-10 87-15 140-15 159 14-21 36-67 64-138 40-97 69-158 88-184 19-26 38-39 58-39 15 0 27 15 36 46 9 30 14 103 16 217 0 29 2 50 5 64 3 14 5 21 7 21 11 0 35-56 71-167 20-59 39-104 57-134 18-31 39-46 62-46 19 0 33 15 41 44 9 29 15 72 19 129 3 58 9 111 16 159 7 48 21 79 40 93 13 9 20 20 20 33 0 12-6 25-17 38-11 13-21 19-31 19-19 0-35-17-50-51-15-34-26-108-33-222-3-46-6-78-10-97-3-19-8-29-14-29-10 0-21 14-35 42-13 28-35 85-65 170-23 67-41 111-53 133-12 22-24 33-35 33-10 0-19-6-27-18-8-12-13-27-15-44-2-17-4-58-7-125-4-110-10-174-19-193zm584-287c-5 0-9-8-11-24-1-5-2-10-4-16-6-23-9-42-9-59 0-14 5-28 17-43 11-14 23-22 37-22 7 0 14 4 23 12 8 8 13 15 13 23 0 12-3 31-9 59-6 28-15 46-27 56-13 9-22 14-28 14zm-46 585c0 26 3 56 7 89 1 6 1 11 1 16 0 6-4 14-11 24-8 10-16 15-24 15-23 0-34-31-34-93 0-64 9-166 26-305 6-49 9-78 9-89 0-22 3-41 8-56 5-16 13-23 23-23 12 0 21 4 28 13 7 9 10 18 10 29 0 10-2 24-5 41-17 92-28 158-32 198-4 40-6 87-6 142zm387-73c-3-3-11 7-23 29-21 37-48 71-81 99-33 29-64 43-92 43-21 0-37-10-49-29-12-20-18-47-18-82 0-54 14-114 41-181 27-66 65-124 114-174 49-49 92-74 129-74 19 0 36 8 51 25 3 4 6 8 9 10 4 5 8 14 12 28 4 14 6 25 6 33 0 5-1 13-4 24-14 58-24 106-29 144-5 38-11 102-17 192-6 81-12 143-18 187-7 44-18 86-35 126-17 41-37 71-61 92-24 20-48 31-73 31-44 0-87-23-129-68-42-45-64-81-64-108 0-17 4-26 13-26 4 0 17 10 37 31 55 55 104 82 148 82 38 0 67-31 87-92 20-61 34-152 41-274 2-28 4-51 6-70zm-1-287c-20 0-44 15-74 46-30 31-59 76-87 135-28 59-42 109-42 149 0 14 3 24 9 32 6 8 12 12 19 12 21 0 48-16 81-48 34-32 62-77 86-134 24-57 36-102 36-134 0-39-10-58-29-58zm267 503c-32 0-58-18-79-54-21-36-31-81-31-134 0-90 20-179 61-266 40-87 89-131 145-131 37 0 68 21 91 64 23 43 35 94 35 153 0 91-24 175-72 252-48 78-98 116-149 116zm-49-202c0 35 5 64 15 86 10 22 23 34 39 34 35 0 70-29 104-86 35-57 52-121 52-190 0-43-7-78-20-104-13-27-31-40-54-40-37 0-70 34-97 103-27 69-40 134-40 197zm402 32h8c4 0 9 3 15 9 6 6 9 14 9 25 0 21-2 36-7 46-5 10-13 21-24 32-11 12-18 18-23 18-10 0-17-3-22-10-5-7-7-25-7-54 0-28 1-44 3-49 2-5 7-9 15-12 8-3 19-4 33-4z"/></g><g fill="none" stroke-width="100"><path d="m12789 3497c92-217 179-291 381-332 223-46 395 116 406 332 24 462-430 826-727 1276-464-656-844-620-863-1012-10-217 162-430 385-475 202-41 307 36 417 212z"/><path d="m12333 7524c-119-66-187-63-301 6-125 76-154 231-86 343 146 237 494 215 793 304 3-527 202-677 77-878-69-111-227-139-351-63-113 69-138 154-132 288z"/><path d="m16729 4139c-2-156 30-227 136-318 117-100 258-63 320 58 132 260-38 620-95 978-436-227-647-80-758-301-61-122-16-302 101-402 106-90 187-80 296-15z"/><path d="m16377 6758c-154-85-243-82-389 7-162 99-200 300-111 444 190 307 639 279 1027 394 4-682 262-877 99-1137-90-144-293-180-455-82-146 89-179 199-171 373z"/><path d="m19489 9394c3-190-36-277-166-388-143-122-316-79-392 69-162 315 45 756 114 1192 534-274 793-94 929-363 75-148 20-368-123-491-130-111-229-99-362-20z"/><path d="m12666 9702c-31-152-77-212-200-271-135-64-264 10-298 145-72 288 169 591 301 922 374-340 610-257 671-502 33-135-49-297-184-362-122-58-199-26-290 67z"/></g></g><path d="m15759 17920c0 203 31 265 130 434-15 13-71 89-78 118l-341-362c-151-171-249-284-249-535 0-82 94-187 208-187 91 0 176 29 227 77 30 29 110 162 120 209h17c16-78 117-256 260-256 164 0 326 126 330 306-44-26-47-44-116-75-122-55-307-52-411 58-42 45-97 128-97 215zm-651-306c0 331 267 552 453 757 20 21 33 37 52 59 38 44 75 67 107 115 25 37 69 102 108 114 9-38 104-187 130-207l319 338c22 25 38 44 61 69l124 145 163-239c199-254 216-215 386-409 169-193 172-398 0-587-83-92-201-125-332-125-87 0-135 45-191 79 0-81-13-118-37-174-127-290-549-333-657-102-103-78-90-177-390-177-159 0-295 162-295 345z" stroke-width="7.62"/><g fill-rule="nonzero" stroke-width="50"><path d="m13872 21302c2 2 3 11 3 25 0 15-1 26-3 33l4 22c7 40 14 74 21 100 9 35 17 72 25 113 19 92 39 171 60 237 21 66 40 112 57 138 11 17 17 28 20 35 3 6 4 14 4 22 0 15-3 28-9 38-6 10-14 16-23 16-27 0-61-69-100-207-16-54-25-82-28-82-10 0-32 5-67 15-34 10-65 22-93 35-16 8-26 12-31 12-5 0-11-4-17-13-1-1-2-2-4-2-5 0-15 22-31 67-26 74-42 117-49 132-7 14-14 21-22 21-6 0-13-5-21-16-8-11-12-22-12-33 0-11 4-26 12-45 8-19 24-56 47-113 43-100 78-194 108-282 46-140 76-223 88-248 12-25 22-38 29-38 14 0 25 6 32 19zm20 408c-8-28-19-78-33-151-16-78-26-125-30-142-12 40-30 96-55 169l-58 176c5-5 16-10 36-13 15-2 28-5 39-9 59-19 93-29 102-30zm467-80c-20 1-63 95-128 283-22 63-35 98-39 103-4 6-10 11-20 15-10 4-18 7-24 7-14 0-22-45-22-134 0-50 7-141 20-273 6-53 8-92 8-114 0-23 6-34 19-34 24 0 36 27 36 82 0 26-4 76-12 151-9 86-14 138-14 156 13-21 33-66 59-135 37-95 63-156 81-181 17-25 35-38 54-38 14 0 25 15 33 45 8 30 13 101 15 213 0 28 2 49 5 63 3 14 5 21 6 21 10 0 32-55 66-164 18-58 36-102 53-132 17-30 36-45 57-45 17 0 30 14 38 43 8 29 14 71 17 127 3 57 8 109 15 156 7 47 19 78 37 91 12 9 18 20 18 32 0 12-5 24-15 37-10 13-20 19-28 19-17 0-33-17-46-50-14-34-24-106-31-218-3-45-6-77-9-96-3-19-7-28-13-28-9 0-20 14-32 41-12 27-32 83-60 167-21 65-38 109-49 131-11 22-22 33-32 33-9 0-17-6-25-18-7-12-12-26-14-43-2-16-4-57-6-122-3-108-9-171-18-189zm529 432c-29 0-54-18-73-53-19-36-29-80-29-132 0-88 19-176 56-261 37-86 82-129 134-129 34 0 62 21 84 63 21 42 32 92 32 150 0 89-22 171-66 248-44 76-90 114-138 114zm-45-199c0 35 5 63 14 85 9 22 21 33 36 33 32 0 64-28 96-84 32-56 48-118 48-187 0-42-6-76-18-103-12-26-29-39-50-39-35 0-64 34-89 102-25 68-37 132-37 193zm389-31c2-6 5-15 8-26 15-53 28-95 40-126 12-30 26-59 40-87 15-28 28-49 40-63 12-14 23-24 33-30 10-6 19-9 29-9 19 0 34 9 46 27 12 18 18 39 18 63 0 11-2 20-6 29-4 9-11 13-19 13-9 0-17-6-25-19-8-13-16-19-24-19-22 0-53 43-93 129-40 86-64 181-72 285-2 27-6 44-12 53-6 8-15 13-25 13-11 0-18-12-23-38-5-25-7-67-7-126 0-16 1-52 2-106 1-65 4-117 8-157 1-6 2-22 3-46 2-26 3-45 6-55 2-10 7-20 14-29 7-9 15-13 23-13 8 0 14 4 18 12 4 8 6 17 6 26 0 13-2 32-6 56-5 27-8 46-9 56-1 12-2 24-4 36-2 15-4 53-6 116v19 14zm754-191c-11 0-23 12-37 35-13 23-33 76-60 157-36 109-59 171-69 186-10 15-19 23-26 23-25 0-38-19-38-59 0-16 2-40 5-70 12-103 18-213 18-327 0-13 4-28 10-43 7-16 14-24 20-24 11 0 19 5 24 16 5 11 7 33 7 66 0 35-6 106-19 214-4 36-6 58-6 68 0 5 1 8 3 8 3 0 18-41 45-123 27-83 50-142 70-176 20-34 42-51 67-51 19 0 35 14 47 42 12 28 21 79 27 154 6 85 11 137 16 158 5 21 13 31 23 31 7 0 15-4 25-11 2-1 3-2 4-2 9 0 14 9 14 26 0 15-6 31-19 48-13 17-28 25-46 25-18 0-32-12-42-35-10-23-18-85-24-185-6-101-19-151-38-151zm312 421c-29 0-54-18-73-53-19-36-29-80-29-132 0-88 19-176 56-261 37-86 82-129 134-129 34 0 62 21 84 63 21 42 32 92 32 150 0 89-22 171-66 248-44 76-90 114-138 114zm-45-199c0 35 5 63 14 85 9 22 21 33 36 33 32 0 64-28 96-84 32-56 48-118 48-187 0-42-6-76-18-103-12-26-29-39-50-39-35 0-64 34-89 102-25 68-37 132-37 193zm256-589c-1 1-2 2-3 3-2 1-3 3-6 5-14 11-44 43-90 99-19 23-33 39-43 49l-7 7c-5 0-10-4-15-13-4-8-6-17-6-26 0-18 17-46 49-86 33-40 63-71 89-95 10-9 17-17 22-23 4-5 6-7 6-6 4 0 8 6 13 19 5 13 7 22 7 29 0 4-2 11-6 19-4 9-8 15-10 18zm229 645c0-22-17-48-51-76-44-36-73-64-89-86-15-21-23-45-23-72 0-68 21-125 64-170 43-45 78-67 105-67 17 0 30 5 38 14 8 10 12 26 12 50 0 11-3 20-9 27-6 8-10 11-13 11-2 0-7-2-14-8-7-5-11-7-14-7-11 0-33 13-65 38-33 25-49 53-49 85 0 19 6 36 17 52 12 16 32 35 62 57 24 18 44 38 58 59 15 21 22 46 22 74 0 52-23 93-68 123-45 30-89 44-130 45-35 0-52-19-52-57 0-13 4-23 12-29 8-6 16-9 24-9 3 0 9 2 18 5 9 3 15 5 17 5 24 0 49-6 77-19 27-13 44-29 51-47zm513-401c22-3 43-6 62-10 19-3 36-5 48-5 16 0 27 2 31 7 4 5 6 13 6 25 0 28-12 43-36 45-31 3-60 7-86 13-26 5-40 10-42 14-2 4-8 44-19 122-11 78-16 129-16 152 0 38 3 63 9 75 6 13 16 19 28 19 18 0 44-22 77-66 13-18 22-27 29-27 9 0 14 8 14 24 0 25-15 57-45 96-30 39-60 59-91 59-52 0-78-49-78-146 0-35 5-90 16-164 11-74 16-118 16-133 0-5-3-8-8-8l-34 5c-27 0-41-18-41-52 0-20 6-30 19-30h66c5 0 8-3 12-10 3-6 8-28 15-65 7-37 13-74 18-110 5-36 15-54 30-54 9 0 16 5 22 15 5 10 8 20 8 29 0 5-4 29-12 73l-19 108zm454 344c0 35-19 77-58 126-39 49-79 74-120 74-35 0-61-16-80-49-19-32-28-78-28-136 0-98 21-191 62-279 41-88 87-133 136-133 16 0 29 8 39 25 10 17 15 37 15 61 0 53-16 103-49 152-32 48-76 96-130 142-11 9-17 21-17 36 0 28 5 51 15 68 10 17 26 26 46 26 46 0 93-41 141-122 7-11 13-17 16-17 7 0 10 9 10 26zm-224-80c91-86 137-156 137-208 0-21-6-31-17-31-20 0-42 23-67 69-25 46-42 103-52 170zm534-152c-20 1-63 95-128 283-22 63-35 98-39 103-4 6-10 11-20 15-10 4-18 7-24 7-14 0-22-45-22-134 0-50 7-141 20-273 6-53 8-92 8-114 0-23 6-34 19-34 24 0 36 27 36 82 0 26-4 76-12 151-9 86-14 138-14 156 13-21 33-66 59-135 36-95 63-156 81-181 17-25 35-38 54-38 14 0 25 15 33 45 8 30 13 101 15 213 0 28 2 49 5 63 3 14 5 21 6 21 10 0 32-55 66-164 18-58 36-102 53-132 17-30 36-45 57-45 17 0 30 14 38 43 8 29 14 71 17 127 3 57 8 109 15 156 7 47 19 78 37 91 12 9 18 20 18 32 0 12-5 24-15 37-10 13-20 19-28 19-17 0-33-17-46-50-14-34-24-106-31-218-3-45-6-77-9-96-3-19-7-28-13-28-9 0-20 14-32 41-12 27-32 83-60 167-21 65-38 109-49 131-11 22-22 33-32 33-9 0-17-6-25-18-7-12-12-26-14-43-2-16-4-57-6-122-3-108-9-171-18-189zm529 432c-29 0-54-18-73-53-19-36-29-80-29-132 0-88 19-176 56-261 37-86 82-129 134-129 34 0 62 21 84 63 21 42 32 92 32 150 0 89-22 171-66 248-44 76-90 114-138 114zm-45-199c0 35 5 63 14 85 9 22 21 33 36 33 32 0 64-28 96-84 32-56 48-118 48-187 0-42-6-76-18-103-12-26-29-39-50-39-35 0-64 34-89 102-25 68-37 132-37 193zm486 55c0-22-17-48-51-76-44-36-73-64-89-86-15-21-23-45-23-72 0-68 21-125 64-170 43-45 78-67 105-67 17 0 30 5 38 14 8 10 12 26 12 50 0 11-3 20-9 27-6 8-10 11-13 11-2 0-7-2-14-8-7-5-11-7-14-7-11 0-33 13-65 38-33 25-49 53-49 85 0 19 6 36 17 52 12 16 32 35 62 57 24 18 44 38 58 59 15 21 22 46 22 74 0 52-23 93-68 123-45 30-89 44-130 45-35 0-52-19-52-57 0-13 4-23 12-29 8-6 16-9 24-9 3 0 9 2 18 5 9 3 15 5 17 5 24 0 49-6 77-19 27-13 44-29 51-47zm124 215c40-16 66-38 77-67 11-29 17-49 17-62 0-35-3-60-9-74-3-6-4-13-4-19 0-5 1-12 4-22 3-10 6-14 9-14 5 0 12 3 21 8 10 5 15 10 17 14 2 4 5 17 9 38 4 22 6 40 6 55 0 6-4 24-12 54-8 30-19 54-33 71-14 17-27 27-39 31-5 1-10 3-14 6-17 12-31 18-42 18-6 0-9-8-9-24 0-6 1-11 2-13z"/><path d="m15102 23078c-33 64-66 113-98 145-33 32-62 48-89 48-18 0-34-11-47-33-13-22-20-51-20-86 0-90 28-187 84-291 56-104 111-156 166-156 20 0 35 16 45 49 3 11 8 16 15 16 19 0 28 11 28 32 0 11-1 25-4 44-13 101-19 172-19 214 0 83 11 133 33 149 10 8 16 18 16 30 0 11-5 21-15 32-10 11-20 16-30 16-18 0-33-18-45-55-12-36-18-88-18-155zm-22-289c-31 0-68 42-109 127-42 85-62 155-62 211 0 39 9 59 27 59 26 0 62-38 109-114 46-76 69-146 69-210 0-49-11-73-33-73zm571 500c-2 9-6 16-14 22-7 6-15 9-22 9-24 0-36-26-36-77 0-24 6-93 17-207 7-69 10-122 10-158 0-6-5-14-15-24-10-9-15-19-15-28 0-15 8-31 23-48 12-13 19-28 22-45 3-16 6-39 9-68 12-106 31-183 57-230 26-47 59-70 98-70 21 0 39 10 54 31 15 21 22 46 22 77 0 25-4 53-12 85-8 32-17 48-28 48-8 0-12-6-12-17l3-50c0-66-13-99-38-99-28 0-51 39-69 118-18 79-27 143-27 192 0 16 7 23 21 23 62 0 98 0 109-1 11-1 17 6 17 20 0 14-6 25-18 32-12 7-38 14-79 20-34 5-54 9-58 13-16 127-24 241-24 340 0 30 1 52 3 66 2 13 3 22 3 25zm440-211c-33 64-66 113-98 145-33 32-62 48-89 48-18 0-34-11-47-33-13-22-20-51-20-86 0-90 28-187 84-291 56-104 111-156 166-156 20 0 35 16 45 49 3 11 8 16 15 16 19 0 28 11 28 32 0 11-1 25-4 44-13 101-19 172-19 214 0 83 11 133 33 149 10 8 16 18 16 30 0 11-5 21-15 32-10 11-20 16-30 16-18 0-33-18-45-55-12-36-18-88-18-155zm-22-289c-31 0-68 42-109 127-42 85-62 155-62 211 0 39 9 59 27 59 26 0 62-38 109-114 46-76 69-146 69-210 0-49-11-73-33-73zm478 70c-22 1-69 95-142 283-25 63-39 98-43 103-4 6-11 11-22 15-11 4-20 7-27 7-16 0-24-45-24-134 0-50 8-141 22-273 6-53 9-92 9-114 0-23 7-34 21-34 26 0 39 27 39 82 0 26-4 76-13 151-10 86-15 138-16 156 15-21 36-66 65-135 40-95 70-156 89-181 19-25 39-38 59-38 15 0 28 15 37 45 9 30 15 101 17 213 0 28 2 49 5 63 3 14 5 21 7 21 11 0 35-55 73-164 20-58 39-102 58-132 19-30 40-45 63-45 19 0 33 14 42 43 9 29 15 71 19 127 4 57 9 109 17 156 7 47 21 78 41 91 14 9 20 20 20 32 0 12-6 24-17 37-11 13-22 19-31 19-19 0-36-17-51-50-15-34-26-106-34-218-3-45-7-77-10-96-3-19-8-28-15-28-10 0-22 14-35 41-14 27-36 83-66 167-24 65-42 109-54 131-12 22-24 33-35 33-10 0-19-6-27-18-8-12-13-26-15-43-2-16-4-57-7-122-4-108-10-171-20-189zm548 292c0 26 3 55 8 88 1 6 1 11 1 15 0 6-4 14-12 24-8 10-16 15-25 15-23 0-34-31-34-91 0-63 9-163 27-299 6-48 9-77 9-88 0-22 3-40 8-55 5-15 13-23 23-23 12 0 22 4 29 13 7 8 10 18 10 28 0 10-2 24-5 41-18 90-29 155-33 194-4 39-6 85-6 139zm182-651c-1 1-2 2-4 3-2 1-4 3-6 5-16 11-49 43-99 99-21 23-36 39-47 49l-8 7c-6 0-12-4-16-13-5-8-7-17-7-26 0-18 18-46 55-86 36-40 69-71 98-95 11-9 19-17 25-23 4-5 6-7 6-6 4 0 9 6 14 19 5 13 8 22 8 29 0 4-2 11-7 19-4 9-8 15-11 18zm85-105c17 0 26 16 26 47 0 28-10 95-31 200-13 66-23 140-30 220-7 80-11 143-11 188 0 56 3 113 8 168 1 11 1 18 1 23 0 17-4 32-12 44-8 12-17 18-26 18-13 0-21-11-26-34-5-23-7-59-7-109 0-115 9-257 29-426 19-169 34-269 46-297 11-29 23-43 34-43zm198 182c-5 0-9-8-11-23-1-5-2-10-4-16-6-22-10-42-10-58 0-14 6-28 17-42 11-14 24-21 38-21 7 0 15 4 23 12 9 8 13 15 13 22 0 11-3 30-9 58-6 27-15 45-28 55-13 9-22 14-29 14zm-47 574c0 26 3 55 8 88 1 6 1 11 1 15 0 6-4 14-12 24-8 10-16 15-25 15-23 0-34-31-34-91 0-63 9-163 27-299 6-48 9-77 9-88 0-22 3-40 8-55 5-15 13-23 23-23 12 0 22 4 29 13 7 8 10 18 10 28 0 10-2 24-5 41-18 90-29 155-33 194-4 39-6 85-6 139zm382-73c-33 64-66 113-98 145-33 32-62 48-89 48-18 0-34-11-47-33-13-22-20-51-20-86 0-90 28-187 84-291 56-104 111-156 166-156 20 0 35 16 45 49 3 11 8 16 15 16 19 0 28 11 28 32 0 11-1 25-4 44-13 101-19 172-19 214 0 83 11 133 33 149 10 8 16 18 16 30 0 11-5 21-15 32-10 11-20 16-29 16-18 0-33-18-45-55-12-36-18-88-18-155zm-22-289c-31 0-68 42-109 127-42 85-62 155-62 211 0 39 9 59 27 59 26 0 62-38 109-114 46-76 69-146 69-210 0-49-11-73-33-73z"/><path d="m14279 24287c-2 9-6 16-14 22-7 6-15 9-22 9-24 0-36-26-36-77 0-24 6-93 17-207 7-69 10-122 10-158 0-6-5-14-15-24-10-9-15-19-15-28 0-15 8-31 23-48 12-13 19-28 22-45 3-16 6-39 9-68 12-106 31-183 57-230 26-47 59-70 98-70 21 0 39 10 54 31 15 21 22 46 22 77 0 25-4 53-12 85-8 32-17 48-28 48-8 0-12-6-12-17l3-50c0-66-13-99-38-99-28 0-51 39-69 118-18 79-27 143-27 192 0 16 7 23 21 23 62 0 98 0 109-1 11-1 17 6 17 20 0 14-6 25-18 32-12 7-38 14-79 20-34 5-54 9-58 13-16 127-24 241-24 341 0 30 1 52 3 66 2 13 3 22 3 25zm304 2c-32 0-59-18-80-53-21-36-32-80-32-132 0-88 21-176 62-261 41-86 90-129 148-129 38 0 69 21 92 63 24 42 35 92 35 150 0 89-24 171-73 248-49 76-99 114-152 114zm-49-199c0 35 5 63 15 85 10 22 23 33 40 33 35 0 71-28 106-84 36-56 53-118 53-187 0-42-7-76-20-103-14-26-32-39-55-39-38 0-71 34-98 102-27 68-41 132-41 193zm429-31c2-6 5-15 9-26 16-53 31-95 44-126 13-30 28-59 45-87 16-28 31-49 44-63 13-14 25-24 36-30 11-6 21-9 32-9 21 0 37 9 51 27 13 18 20 39 20 63 0 11-2 20-7 29-5 9-12 13-21 13-10 0-19-6-27-19-8-13-17-19-27-19-25 0-59 43-102 129-44 86-70 181-80 285-2 27-7 44-13 53-7 8-16 13-28 13-12 0-20-12-25-38-5-25-8-67-8-126 0-16 1-52 2-106 1-65 4-117 9-157 1-6 2-22 4-46 2-26 4-45 6-55 2-10 8-20 15-29 8-9 16-13 25-13 9 0 15 4 20 12 4 8 7 17 7 26 0 13-2 32-7 56-5 27-9 46-10 56-1 12-2 24-4 36-2 15-5 53-7 116v19 14zm575-202c-22 1-69 95-142 283-25 63-39 98-43 103-4 6-11 11-22 15-11 4-20 7-27 7-16 0-24-45-24-134 0-50 8-141 22-273 6-53 9-92 9-115 0-23 7-34 21-34 26 0 39 27 39 82 0 26-4 76-13 151-10 86-15 138-16 156 15-21 36-66 65-135 40-95 70-156 89-181 19-25 39-38 59-38 15 0 28 15 37 45 9 30 15 101 17 213 0 28 2 49 5 63 3 14 5 21 7 21 11 0 35-55 73-164 20-58 39-102 58-132 19-30 40-45 63-45 19 0 33 14 42 43 9 29 15 71 19 127 4 57 9 109 17 156 7 47 21 78 41 91 14 9 20 20 20 32 0 12-6 24-17 37-11 13-22 19-31 19-19 0-36-17-51-50-15-34-26-106-34-218-3-45-7-77-10-96-3-19-8-28-15-28-10 0-22 14-35 41-14 27-36 83-66 167-24 65-42 109-54 131-12 22-24 33-35 33-10 0-19-6-27-18-8-12-13-26-15-43-2-16-4-57-7-122-4-108-10-171-20-189zm720 219c-33 64-66 113-98 145-33 32-62 48-89 48-18 0-34-11-47-33-13-22-20-51-20-86 0-90 28-187 84-291 56-104 111-156 166-156 20 0 35 16 45 49 3 11 8 16 15 16 19 0 28 11 28 32 0 11-1 25-4 44-13 101-19 172-19 214 0 83 11 133 33 149 10 8 16 18 16 30 0 11-5 21-15 32-10 11-20 16-30 16-18 0-33-18-45-55-12-36-18-88-18-155zm-22-289c-31 0-68 42-109 127-42 85-62 155-62 211 0 39 9 59 27 59 26 0 62-38 109-114 46-76 69-146 69-210 0-49-11-73-33-73zm281 272c2-6 5-15 9-26 16-53 31-95 44-126 13-30 28-59 45-87 16-28 31-49 44-63 13-14 25-24 36-30 11-6 21-9 32-9 21 0 37 9 51 27 13 18 20 39 20 63 0 11-2 20-7 29-5 9-12 13-21 13-10 0-19-6-27-19-9-13-17-19-27-19-25 0-59 43-102 129-44 86-70 181-80 285-2 27-7 44-13 53-7 8-16 13-28 13-12 0-20-12-25-38-5-25-8-67-8-126 0-16 1-52 2-106 1-65 4-117 8-157 1-6 2-22 4-46 2-26 4-45 6-55 2-10 8-20 15-29 8-9 16-13 25-13 9 0 15 4 20 12 4 8 7 17 7 26 0 13-2 32-7 56-5 27-9 46-10 56-1 12-2 24-4 36-2 15-5 53-7 116v19 14zm607 30c0 35-21 77-64 126-43 49-87 74-133 74-38 0-68-16-88-49-21-32-31-78-31-136 0-98 23-191 69-279 46-88 96-133 150-133 18 0 32 8 44 25 11 17 17 37 17 60 0 53-18 103-54 152-36 48-84 96-144 142-12 9-18 21-18 36 0 28 6 51 17 68 11 17 28 26 50 26 51 0 103-41 156-122 8-11 14-17 18-17 8 0 11 9 11 26zm-247-80c101-86 151-156 151-208 0-21-6-31-19-31-22 0-46 23-74 69-27 46-47 103-58 170zm590-152c-22 1-69 95-142 283-25 63-39 98-43 103-4 6-11 11-22 15-11 4-20 7-27 7-16 0-24-45-24-134 0-50 8-141 22-273 6-53 9-92 9-115 0-23 7-34 21-34 26 0 39 27 39 82 0 26-4 76-13 151-10 86-15 138-16 156 15-21 36-66 65-135 40-95 70-156 89-181 19-25 39-38 59-38 15 0 28 15 37 45 9 30 15 101 17 213 0 28 2 49 5 63 3 14 5 21 7 21 11 0 35-55 73-164 20-58 39-102 58-132 19-30 40-45 63-45 19 0 33 14 42 43 9 29 15 71 19 127 4 57 9 109 17 156 7 47 21 78 41 91 14 9 20 20 20 32 0 12-6 24-17 37-11 13-22 19-31 19-19 0-36-17-51-50-15-34-26-106-34-218-3-45-7-77-10-96-3-19-8-28-15-28-10 0-22 14-35 41-14 27-36 83-66 167-24 65-42 109-54 131-12 22-24 33-35 33-10 0-19-6-27-18-8-12-13-26-15-43-2-16-4-57-7-122-4-108-10-171-20-189zm584 432c-32 0-59-18-80-53-21-36-32-80-32-132 0-88 21-176 62-261 41-86 90-129 148-129 38 0 69 21 92 63 24 42 35 92 35 150 0 89-24 171-73 248-49 76-99 114-152 114zm-49-199c0 35 5 63 15 85 10 22 23 33 40 33 35 0 71-28 106-84 36-56 53-118 53-187 0-42-7-76-20-103-14-26-32-39-55-39-38 0-71 34-98 102-27 68-41 132-41 193zm536 55c0-22-19-48-57-76-48-36-81-64-98-86-17-21-25-45-25-72 0-68 24-125 71-170 47-45 86-67 116-67 19 0 33 5 42 14 9 10 13 26 13 50 0 11-3 20-9 27-6 8-11 11-15 11-3 0-8-2-15-8-8-5-13-7-15-7-12 0-36 13-72 38-36 25-54 53-54 85 0 19 6 36 19 52 13 16 36 35 69 57 27 18 48 38 64 59 16 21 24 46 24 74 0 52-25 93-75 123-50 30-98 44-143 45-38 0-58-19-58-57 0-13 4-23 13-29 9-6 17-9 26-9 4 0 10 2 20 5 10 3 16 5 19 5 26 0 55-6 85-19 30-13 49-29 56-47z"/><path d="m14975 25019c0 35-21 77-64 126-43 49-87 74-133 74-38 0-68-16-88-49-21-32-31-78-31-136 0-98 23-191 69-279 46-88 96-133 150-133 18 0 32 8 44 25 11 17 17 37 17 60 0 53-18 103-54 152-36 48-84 96-144 142-12 9-18 21-18 36 0 28 6 51 17 68 11 17 28 26 50 26 51 0 103-41 156-122 8-11 14-17 18-17 8 0 11 9 11 26zm-247-80c101-86 151-156 151-208 0-21-6-31-19-31-22 0-46 23-74 69-27 46-47 103-58 170zm717 280c-32 0-59-18-80-53-21-36-32-80-32-132 0-88 21-176 62-261 41-86 90-129 148-129 38 0 69 21 92 63 24 42 35 92 35 150 0 89-24 171-73 248-49 76-99 114-152 114zm-49-199c0 35 5 63 15 85 10 22 23 33 40 33 35 0 71-28 106-84 36-56 53-118 53-187 0-42-7-76-20-103-14-26-32-39-55-39-38 0-71 34-98 102-27 68-41 132-41 193zm888-14c-33 64-66 113-98 145-33 32-62 48-89 48-18 0-34-11-47-33-13-22-20-51-20-86 0-90 28-187 84-291 56-104 111-156 166-156 20 0 35 16 45 49 3 11 8 16 15 16 19 0 28 11 28 32 0 11-1 25-4 44-13 101-19 172-19 214 0 83 11 133 33 149 10 8 16 18 16 30 0 11-5 21-15 32-10 11-20 16-29 16-18 0-33-18-45-55-12-36-18-88-18-155zm-22-289c-31 0-68 42-109 127-42 85-62 155-62 211 0 39 9 59 27 59 26 0 62-38 109-114 46-76 69-146 69-210 0-49-11-73-33-73zm478 70c-22 1-69 95-142 283-25 63-39 98-43 103-4 6-11 11-22 15-11 4-20 7-27 7-16 0-24-45-24-134 0-50 8-141 22-273 6-53 9-92 9-115 0-23 7-34 21-34 26 0 39 27 39 82 0 26-4 76-13 151-10 86-15 138-16 156 15-21 36-66 65-135 40-95 70-156 89-181 19-25 39-38 59-38 15 0 28 15 37 45 9 30 15 101 17 213 0 28 2 49 5 63 3 14 5 21 7 21 11 0 35-55 73-164 20-58 39-102 58-132 19-30 40-45 63-45 19 0 33 14 42 43 9 29 15 71 19 127 4 57 9 109 16 156 7 47 21 78 41 91 14 9 20 20 20 32 0 12-6 24-17 37-11 13-22 19-31 19-19 0-36-17-51-50-15-34-26-106-34-218-3-45-7-77-10-96-3-19-8-28-15-28-10 0-22 14-35 41-14 27-36 83-66 167-24 65-42 109-54 131-12 22-24 33-35 33-10 0-19-6-27-18-8-12-13-26-15-43-2-16-4-57-7-122-4-108-10-171-20-189zm595-282c-5 0-9-8-11-23-1-5-2-10-4-16-6-22-10-42-10-58 0-14 6-28 17-42 11-14 24-21 38-21 7 0 15 4 23 12 9 8 13 15 13 22 0 11-3 31-9 58-6 27-15 45-28 55-13 9-22 14-29 14zm-47 574c0 26 3 55 8 88 1 6 1 11 1 15 0 6-4 14-12 24-8 10-16 15-25 15-23 0-34-31-34-91 0-63 9-163 27-299 6-48 9-77 9-88 0-22 3-40 8-55 5-15 13-23 23-23 12 0 22 4 29 13 7 8 10 18 10 28 0 10-2 24-5 41-18 90-29 155-33 194-4 39-6 85-6 139zm394-72c-3-3-11 7-24 29-22 37-49 69-83 98-34 28-65 43-93 43-21 0-38-10-50-29-12-19-18-46-18-80 0-53 14-112 42-177 28-65 67-122 116-171 50-49 94-73 131-73 20 0 37 8 52 25 4 4 7 7 9 10 4 5 8 14 12 27 4 14 6 24 6 33 0 5-1 13-4 24-14 57-24 104-30 141-5 37-11 100-17 189-6 79-12 140-18 183-7 43-19 84-36 124-17 40-38 70-62 90-24 20-49 30-75 30-44 0-88-22-131-66-43-44-65-80-65-106 0-17 4-25 13-25 4 0 17 10 38 30 56 54 106 81 150 81 39 0 68-30 89-90 20-60 34-149 41-269 2-27 4-50 6-69zm-1-282c-20 0-45 15-76 45-30 30-60 74-88 133-28 58-43 107-43 146 0 13 3 24 9 32 6 8 12 12 19 12 21 0 49-16 83-47 34-31 63-75 88-131 25-56 37-100 37-132 0-38-10-57-29-57zm271 494c-32 0-59-18-80-53-21-36-32-80-32-132 0-88 21-176 62-261 41-86 90-129 148-129 38 0 69 21 92 63 24 42 35 92 35 150 0 89-24 171-73 248-49 76-99 114-152 114zm-49-199c0 35 5 63 15 85 10 22 23 33 40 33 35 0 71-28 106-84 36-56 53-118 53-187 0-42-7-76-20-103-14-26-32-39-55-39-38 0-71 34-98 102-27 68-41 132-41 193z"/><path d="m15218 26219c0 35-21 77-64 126-43 49-87 74-133 74-38 0-68-16-88-49-21-32-31-78-31-136 0-98 23-191 69-279 46-88 96-133 150-133 18 0 32 8 44 25 11 17 17 37 17 60 0 53-18 103-54 152-36 48-84 96-144 142-12 9-18 21-18 36 0 28 6 51 17 68 11 17 28 26 50 26 51 0 103-41 156-122 8-11 14-17 18-17 8 0 11 9 11 26zm-247-80c101-86 151-156 151-208 0-21-6-31-19-31-22 0-46 23-74 69-27 46-47 103-58 170zm222-520c-1 1-2 2-4 3-2 1-4 3-6 5-16 11-49 43-99 99-21 23-36 39-47 49l-8 7c-6 0-12-4-16-13-5-8-7-17-7-26 0-18 18-46 55-86 36-40 69-71 98-95 11-9 19-17 25-23 4-5 6-7 6-6 4 0 9 6 14 19 5 13 8 22 8 29 0 4-2 11-7 19-5 9-8 15-11 18zm383 109c2-19 7-36 14-50 7-14 15-21 25-21 20 0 33 34 41 102 7 66 52 236 135 510 9-22 19-45 29-68 47-106 81-188 101-245 82-222 137-333 163-333 18 0 27 15 27 44 0 5-1 10-3 14-2 4-10 21-24 50-46 97-91 198-134 303-34 83-62 149-84 198-25 55-39 95-44 120-3 14-10 25-21 33-11 9-24 13-39 13-6 0-21-44-43-132-10-38-43-161-100-368-30-110-45-166-45-168zm610 690c-32 0-59-18-80-53-21-36-32-80-32-132 0-88 21-176 62-261 41-86 90-129 148-129 38 0 69 21 92 63 24 42 35 92 35 150 0 89-24 171-73 248-49 76-99 114-152 114zm-49-199c0 35 5 63 15 85 10 22 23 33 40 33 35 0 71-28 106-84 36-56 53-118 53-187 0-42-7-76-20-103-14-26-32-39-55-39-38 0-71 34-98 102-27 68-41 132-41 193zm455 202c-36 0-63-15-82-44-19-29-29-71-29-124 0-89 25-184 74-283 49-99 95-149 137-149 19 0 36 15 50 45 14 30 21 62 21 95 0 20-3 38-9 52-6 15-12 22-18 22-14 0-23-20-29-60-6-43-16-65-28-65-25 0-54 42-87 127-34 85-50 156-50 214 0 58 23 87 69 87 35 0 76-24 123-71 17-17 29-25 37-25 8 0 12 7 12 20 0 26-21 59-64 98-42 39-84 59-125 59zm576-203c0 35-21 77-64 126-43 49-87 74-133 74-38 0-68-16-88-49-21-32-31-78-31-136 0-98 23-191 69-279 46-88 96-133 150-133 18 0 32 8 44 25 11 17 17 37 17 60 0 53-18 103-54 152-36 48-84 96-144 142-12 9-18 21-18 36 0 28 6 51 17 68 11 17 28 26 50 26 51 0 103-41 156-122 8-11 14-17 18-17 8 0 11 9 11 26zm-247-80c101-86 151-156 151-208 0-21-6-31-19-31-22 0-46 23-74 69-27 46-47 103-58 170zm214-469c1 2 4 6 9 14 4 8 11 17 18 29 15 24 24 40 26 48 2 8 3 15 3 21 0 9-2 18-7 25-5 7-10 11-15 11-10 0-24-20-43-59-6-13-15-30-26-49-11-19-19-37-26-53-7-24-13-36-17-36-5 0-23 25-53 74-22 36-39 62-50 79-12 16-21 25-27 25-13 0-20-16-20-49 0-15 2-24 6-29l38-52c10-14 20-27 30-39 18-22 34-44 46-66 15-26 28-39 38-39 5 0 10 5 16 17 6 11 16 37 32 78 13 34 20 51 21 51zm186 468c-6 0-14-1-25-4-10-3-17-6-21-10-3-37 3-106 18-207 12-82 18-139 18-171 0-46 6-77 17-93 12-16 21-24 29-24 6 0 12 4 18 11 6 7 9 15 9 24 0 8-13 94-39 260-11 70-17 123-17 160 0 24-3 42-8 54zm0 153c0 34-6 58-18 72-12 14-22 21-30 21-18 0-26-16-26-50 0-13 4-28 13-46 9-18 17-27 26-27 6 0 13 4 22 11 9 8 13 14 13 19zm236-153c-6 0-14-1-25-4-10-3-17-6-21-10-3-37 3-106 18-207 12-82 18-139 18-171 0-46 6-77 17-93 12-16 21-24 29-24 6 0 12 4 18 11 6 7 9 15 9 24 0 8-13 94-39 260-11 70-17 123-17 160 0 24-3 42-8 54zm0 153c0 34-6 58-18 72-12 14-22 21-30 21-18 0-26-16-26-50 0-13 4-28 13-46 9-18 17-27 26-27 6 0 13 4 22 11 9 8 13 14 13 19zm236-153c-6 0-14-1-25-4-10-3-17-6-21-10-3-37 3-106 18-207 12-82 18-139 18-171 0-46 6-77 17-93 12-16 21-24 29-24 6 0 12 4 18 11 6 7 9 15 9 24 0 8-13 94-39 260-11 70-17 123-17 160 0 24-3 42-8 54zm0 153c0 34-6 58-18 72-12 14-22 21-30 21-18 0-26-16-26-50 0-13 4-28 13-46 9-18 17-27 26-27 6 0 13 4 22 11 9 8 13 14 13 19z"/></g></g></g><g font-family="&apos;Arial Black&apos;" font-weight="900" font-size="616.2"><text x="10500" y="14850" transform="matrix(.87989 0 0 1 2668.65-8798.5)">NN 1</text><text x="10500" y="14850" transform="matrix(.87989 0 0 1 2719.05-8111.15)">NN 2</text></g><g fill="#373435" font-family="&apos;Arial&apos;" font-weight="normal" font-size="423.33"><text x="958" y="28607">DESC 1</text><text x="958" y="29017">DESC 2</text><text x="958" y="29427">DESC 3</text></g></svg>