<svg xmlns="http://www.w3.org/2000/svg" width="744.09" height="1052.36" viewBox="0 0 21000 29700" shape-rendering="geometricPrecision" image-rendering="optimizeQuality" fill-rule="evenodd" clip-rule="evenodd"><defs><clipPath id="0"><path d="m6246 20825c561-284 749-857 812-1451 60-559 66-1131 60-1694-8-626-33-1252-51-1878-21-680-35-1363-6-2042 25-609 84-1240 235-1831 284-1109 744-2161 970-3286 69-345 123-693 163-1042 44-388 71-780 75-1170 10-961-117-2365-911-3023-501-415-1143-426-1750-289-900 205-1755 626-2439 1254-483 443-867 977-1124 1582-283 666-397 1380-371 2103 13 371 32 741 56 1111 66 1048 166 2094 258 3141 103 1177 194 2354 246 3535 14 320 15 643 18 963 4 381 8 762 22 1143 17 466 46 943 119 1403 51 319 140 733 317 1007 168 260 452 432 734 542 340 131 721 192 1084 202 481 13 1048-61 1483-280"/></clipPath><clipPath id="1"><path d="m14732 20825c-562-284-750-857-813-1451-59-559-66-1131-59-1694 7-626 32-1252 51-1878 20-680 34-1363 6-2042-26-609-84-1240-236-1831-283-1109-744-2161-970-3286-69-345-123-693-163-1042-44-388-71-780-75-1170-10-961 117-2365 911-3023 501-415 1143-426 1751-289 900 205 1754 626 2438 1254 483 443 867 977 1124 1582 283 666 397 1380 371 2103-13 371-32 741-55 1111-67 1048-167 2094-259 3141-103 1177-193 2354-246 3535-14 320-15 643-18 963-4 381-8 762-22 1143-17 466-46 943-119 1403-51 319-139 733-316 1007-169 260-452 432-734 542-340 131-722 192-1085 202-481 13-1048-61-1482-280"/></clipPath></defs><text x="10117" y="22243" fill="#201e1e" font-family="&apos;Arial Black&apos;" stroke="#201e1e" font-weight="900" stroke-width="7.62" font-size="705.56">30</text><g fill="none" stroke-width="80"><g stroke="#322f30"><circle cx="10533" cy="1326" r="460"/><path d="m10533 515v1621"/><path d="m9723 1326h1621"/></g><g stroke="#373435"><circle cx="10569" cy="23614" r="460"/><path d="m10569 22803v1621"/><path d="m9758 23614h1621"/></g></g><rect x="9843" y="20496" width="1347" height="637" rx="318" fill="#fff" stroke="#fff" stroke-width="20"/><g fill="#373435" font-family="&apos;Arial&apos;" font-size="423.33"><text x="501" y="28192">DESC 1</text><text x="501" y="28703">DESC 2</text><text x="501" y="29197">DESC 3</text></g><path d="m6246 20825c561-284 749-857 812-1451 60-559 66-1131 60-1694-8-626-33-1252-51-1878-21-680-35-1363-6-2042 25-609 84-1240 235-1831 284-1109 744-2161 970-3286 69-345 123-693 163-1042 44-388 71-780 75-1170 10-961-117-2365-911-3023-501-415-1143-426-1750-289-900 205-1755 626-2439 1254-483 443-867 977-1124 1582-283 666-397 1380-371 2103 13 371 32 741 56 1111 66 1048 166 2094 258 3141 103 1177 194 2354 246 3535 14 320 15 643 18 963 4 381 8 762 22 1143 17 466 46 943 119 1403 51 319 140 733 317 1007 168 260 452 432 734 542 340 131 721 192 1084 202 481 13 1048-61 1483-280" fill="#fff"/><g clip-path="url(#0)"><g><g fill="#201e1e"><g stroke="#201e1e" stroke-width="7.62"><path d="m7698 6556c0 0 362-431 216-590-146-160-232-134-316-28-85 106-169 472-97 540 0 0-85-30-52-229 0 0-176-251-287-143-111 107 4 352 252 496 0 0-103-19-159-65-187 99-261 148-297 349 408 196 291-84 567-216-336 674 680 620 248 16 134-16 667-128 537-370-65-121-404 34-498 150-50 61-114 90-114 90z"/><path d="m7454 4731c0 0 478 246 408 443-71 196-156 204-270 142-114-62-324-355-285-443 0 0-64 59 38 223 0 0-63 288-202 234-138-54-125-314 42-534 0 0-85 55-118 117-203-18-286-33-392-199 290-326 289-34 583-20-546-473 375-804 214-107 125-36 638-135 612 128-13 131-371 120-497 53-66-36-133-37-133-37zm-60-28c-16-31-54-42-85-26-30 17-42 55-25 86 16 30 54 42 85 25 30-16 42-55 25-85z"/><path d="m7558 3380c-99-77-203-139-310-188-57 223-5 418 130 445 127 25 168-160 180-257zm-359-209c-147-61-300-98-457-116 138 135 239 135 457 116zm-652-130c-170-4-342 11-513 40l-23 25c-8-6-16-11-24-16-48 9-96 18-144 29-226 52-448 116-666 194 176 124 351 168 512 132-563 576-1170 1075-1996 1209 48-54 48-138-22-278-29-57-90-84-165-94-34 30-68 60-102 91-112 103-220 211-321 324 136 56 348 75 427 82 767 73 1516-297 2095-844-50 176 54 372 77 506 263-191 317-454 134-722 147-162 280-335 395-514-142 481-82 1036 281 1639-197-569-201-1074-64-1508-10 268 258 451 369 603 189-362 100-687-259-880 3-6 6-12 9-18zm-1511 325c-138 54-274 114-408 179 49 33 100 61 153 81 116 46 208-15 255-260zm-532 241c-89 46-178 96-265 147-10 35-22 58-22 58 4-17 6-33 8-50-74 45-146 90-218 138 4 6 8 12 10 16-4-4-9-8-14-13-58 38-114 78-170 119 68-26 129-57 160-72-343 263-199 353-237 534 113-112 371 36 390-424 15 135 54 273 221 225 129-208 1-287 1-287-62 9-107-18-107-18 304 66 450-331 243-373zm-1440 1111c-58 66-115 134-169 203 90 164 223 252 331 200 157-76-36-363-36-363-54-10-95-24-126-40zm-276 342c-187 257-348 533-478 827 19 163 55 319 58 442 524-277 686-739 420-1269zm-587 1095c-16 43-31 86-46 130 38-28 75-51 115-55-10-43-35-66-69-75zm-174 587c-4 16-7 32-11 49 7-11 11-21 12-29 1-5 1-12-1-20zm3822-492c-393-548-748-131-909-196 52 418 389 484 744 552 0 0-422 308-400 660 22 352 454 206 554-132 0 0-80-333-41-395 43 189 91 926 445 729 208-115 147-619-66-881 0 0 105 77 162 197 258 113 489-209 625-210-140-335-613-302-858-91 320-328 513-550 3-768-20 188-141 392-259 535zm-22-1300c-164-629-476-346-666-466 108 238-65 407 488 664-133-33-657-166-647 108 176-32 387 195 611 88 0 0 39-104 81-156-41 103-198 619-160 698 36 77 286 188 391 65 105-123 202-410 76-681 0 0 65 77 92 187 810 213 427-667-82-433 0 0 54-50 143-57 0 0 152-149-90-396-245-14-257 187-237 379zm-1368 548c0 0 675-304 823-59 147 245 82 345-82 414-165 70-656 43-717-74 0 0 8 119 271 150 0 0 251 317 74 420-176 102-442-136-532-505 0 0-13 138 23 227-194 203-282 280-549 251-96-594 214-340 481-646-973 182-530-1098 71-322 70-166 407-806 665-550 127 127-193 503-373 581-95 41-155 113-155 113zm1357-395c-40 17-60 64-44 105 17 41 63 60 104 44 40-17 60-63 44-104-17-41-63-61-104-45zm60 1404c-26 29-24 73 4 99 29 26 73 24 98-5 26-28 24-72-4-98-29-26-73-24-98 4zm-1498-970c-47-8-92 23-100 70-9 47 22 92 69 101 46 9 91-23 100-70 9-47-22-92-69-101zm1559-2356c-177-73-345 88-582 107 199 58 411-7 582-107zm-150 639c-103 116-26 287-74 475 97-137 103-318 74-475zm785-627c-49 186 130 332 179 567 32-206-59-409-179-567zm-2457 762c-31-5-51-34-46-65 5-31 34-51 64-46 31 5 52 34 46 65-5 31-34 52-64 46zm-1402 1283c-214 183-118 511-252 836 208-222 266-545 252-836zm2565 1448c-473-208-862-42-1067 431 309-13 883 201 1067-431zm-164 68c-142 194-426 132-693 267 176-192 445-262 693-267zm-1958-1362c-77 49-99 152-50 230 49 78 152 100 229 51 77-50 99-153 50-231-49-77-152-100-229-50zm290-498c-56 36-72 111-37 167 36 57 110 73 166 37 56-36 72-111 36-167-35-56-110-73-165-37z"/><path d="m2989 7895c27-7 54 9 61 35 7 26-9 53-35 60-26 8-53-8-60-34-7-27 8-54 34-61zm-1028 1219l4 55c4 67 8 134 13 201 37-48 93-80 164-82 219-3 316 199 351 390-149 89-355 128-494-3 6 75 11 151 17 226 162 59 345 26 496-67 8 132-11 266-77 382-63 109-162 189-272 245-32 16-65 31-99 43 4 39 7 77 10 116 199-44 378-140 499-313 129-183 150-410 124-626 170-182 356-400 456-629 50 12 100-27 100-80 0-46-37-83-82-83-46 0-82 37-82 83 0 26 12 50 32 65-127 187-292 359-449 504-64-264-248-476-535-470-65 2-124 17-176 43zm71 996c5 60 10 121 15 181 43-4 88-18 133-43-40-69-90-115-148-138zm1403-276c44-11 89 15 100 59 12 44-14 89-57 101-44 12-89-14-101-58-12-44 14-90 58-102zm158-1337c36-10 73 12 83 48 10 36-12 74-48 84-36 10-73-12-83-48-10-37 12-74 48-84zm-977 119c27-7 54 9 61 36 8 27-8 54-35 62-27 7-54-9-61-36-7-27 8-54 35-62zm1197 690c132-150 305-179 479-82-132 153-305 184-479 82zm407 200c161 73 214 209 144 371-163-72-219-207-144-371zm-755-1715c-9-196 94-335 283-381 12 198-89 338-283 381zm-71 150c159-177 375-237 602-171-159 180-373 243-602 171zm898-120c31-263 181-468 417-581-30 264-177 471-417 581zm-1217-347c-69-166-16-308 146-385 72 167 21 310-146 385zm1630 557c231-40 434 48 569 241-233 42-437-43-569-241zm-188 335c49 0 89 41 89 91 0 49-40 90-89 90-49 0-89-41-89-90 0-50 40-91 89-91zm120-83c140-67 206 37 87 137 146 52 119 173-35 158 67 141-37 207-135 87-52 147-172 120-157-35-140 67-206-37-87-137-146-52-120-172 35-158-67-141 37-207 135-87 52-147 172-120 157 35zm-2039 303c59-17 121 19 137 79 16 60-19 122-79 138-59 16-121-19-137-79-16-60 19-122 79-138zm118-141c147-127 260-23 149 137 193 14 200 169 9 202 126 148 23 262-135 150-15 194-168 201-201 9-147 127-260 23-149-136-193-15-200-170-9-203-126-148-23-262 135-149 15-195 168-202 201-10zm280-609c48-6 91 29 96 78 5 48-29 92-77 97-48 5-92-30-97-78-5-48 30-92 78-97zm108-95c129-80 204 14 99 124 147 35 134 156-17 158 80 130-14 206-123 99-35 149-154 136-157-17-129 81-204-14-98-123-148-35-135-156 17-158-80-130 13-206 122-100 35-149 155-135 157 17zm540 692c80-2 147 61 149 142 2 81-61 148-141 150-80 2-147-62-149-142-2-81 61-148 141-150zm250-166c183-59 260 92 88 243 239 78 201 275-50 258 114 226-51 338-216 147-77 241-273 203-256-49-224 115-336-52-146-218-239-78-202-275 49-258-114-226 51-338 216-148 73-226 250-206 257 7 286-341 714-529 1181-494 639 49 1162 500 1301 1133 142 660-329 1472-1053 1444-266-11-525-161-644-405-188-395 160-902 599-766 259 81 380 328 296 586 50-241-72-458-316-511-333-69-599 317-431 613 168 291 545 339 824 191 382-205 578-681 494-1103-114-544-546-933-1088-1013-415-60-812 74-1105 343zm-448 1484c108-12 205 67 217 175 11 109-66 207-174 219-108 12-205-67-217-175-12-109 66-207 174-219zm243-212c290-180 459 32 222 278 331 79 302 349-38 355 179 291-32 462-276 223-78 334-347 305-352-38-289 180-459-32-221-278-332-79-303-349 38-355-180-291 31-462 275-223 78-334 347-305 352 38z"/></g><g font-family="&apos;Arial Black&apos;" font-weight="900" font-size="529.17"><text x="10500" y="14850" transform="matrix(.82916 0 0 .83544-1847.62-4256.91)">NN 1</text><text x="10500" y="14850" transform="matrix(.82916 0 0 .83544-1844.07-3848.7)">NN 2</text></g><g stroke="#201e1e" stroke-width="7.62"><path d="m3929 12501c0 0-119-551-333-532-215 19-246 104-215 236 32 132 269 422 366 407 0 0-75 48-212-99 0 0-304-12-287 142 17 154 280 211 544 101 0 0-78 70-148 88-36 210-43 298 94 449 403-206 110-283 175-584 326 679 903-166 164-188 69-118 305-611 35-655-134-22-218 344-185 489 18 77 2 146 2 146z"/><path d="m2343 11585c0 0 486-233 598-57 111 176 65 249-53 303-119 53-476 42-522-42 0 0 7 86 199 104 0 0 188 227 61 305-126 77-324-91-395-359 0 0-8 101 20 165-18 20-35 38-50 54-10-105-19-210-28-315 7-8 15-16 22-25-8 2-16 3-24 5-10-114-21-229-31-343 33 26 66 60 101 103 48-122 283-593 474-412 95 90-131 370-261 429-68 32-111 85-111 85zm-58 30c-34-6-66 18-72 52-5 35 18 67 52 73 34 5 66-18 72-53 5-34-18-67-52-72z"/><path d="m2252 12648c8 90 15 180 23 270 77-123 51-217-23-270zm51 608v8c133 131 219 349 258 528-83-3-154 3-216 16 15 202 30 404 43 605 122-65 236-167 353-272 0 0-15 525 276 721 291 197 439-237 234-523 0 0-311-139-337-208 176 81 785 492 846 89 36-236-398-495-734-484 0 0 124-37 253-9 247-138 134-518 216-628-348-92-611 307-594 631-63-455-120-743-598-474zm11 145c8 95 15 191 22 286 30-41 47-88 37-138-10-44-29-96-59-148zm88 1216c4 73 9 146 13 219 29-53 61-103 95-150 38 131-17 249-81 379 6 110 12 220 18 331 196-221 387-498 110-882-58 32-109 66-155 103zm378-689c7 38 43 63 81 56 38-7 63-43 56-81-7-38-43-63-81-57-37 7-62 44-56 82z"/><path d="m2482 16350c2 120 3 239 4 358 131-134 181-313 144-509-60 44-109 95-148 151zm14 1128c2 89 4 178 6 267 21-4 43-2 63 6 57 24 84 90 61 147-20 48-68 75-116 69 3 82 6 163 10 245 67 66 152 15 144-134 172 91 259-36 115-166 185-58 158-210-35-199 90-173-36-261-165-116-20-64-51-103-83-119zm8 308c1 33 2 67 3 100 17-2 33-13 40-31 11-25-1-55-27-66-5-2-11-3-16-3zm30 674c11 185 27 369 48 553l160 124c63 19 134 23 208 6 235-55 376-269 400-501 109 74 203 171 254 294 46 117 50 244 27 367-27 141-84 275-158 400l54 42c200-247 327-557 233-864-66-215-232-369-418-481-40-245-98-527-217-746 39-33 39-97-3-129-36-28-87-21-115 15-28 36-21 88 15 116 21 16 48 20 72 14 70 215 104 451 123 665-241-106-512-92-683 125zm1378-555c17-43 65-63 107-45 42 17 62 65 45 108-17 42-65 62-107 45-42-18-62-66-45-108zm-956-941c14-35 54-52 88-37 35 14 51 54 37 89-14 35-54 51-88 37-35-15-51-55-37-89zm770 317c-37-197 46-354 228-433 40 199-41 356-228 433zm407-204c154-84 294-43 379 112-156 86-296 48-379-112zm-660 2082c-29 180-150 274-330 256 28-182 148-279 330-256zm-624-3166c-187-185-257-429-203-687 190 185 263 428 203 687zm417-202c110-209 303-318 537-307-109 211-300 323-537 307zm-51 2771c-171-88-389-133-520 43-118 160 26 381 217 350 188-31 283-220 303-393zm201-2416c30-40 86-47 125-17 39 31 47 87 17 127-30 39-86 46-126 16-39-30-46-87-16-126zm8-147c32-153 154-142 160 14 130-85 209 10 103 124 152 32 141 156-14 161 85 131-9 211-123 105-32 152-155 141-160-14-130 84-209-10-104-125-151-32-140-155 14-161-84-131 10-211 124-104zm-488 885c47-65 138-80 203-32 65 47 79 138 32 204-47 65-138 79-203 32-64-47-79-139-32-204zm23-301c64-183 230-152 244 78 207-144 339 7 173 197 247 46 235 246-16 262 142 209-7 342-195 175-46 248-245 236-261-16-207 143-339-7-173-197-247-46-235-247 16-263-134-196-10-325 162-201-94-435 18-893 331-1244 427-481 1101-624 1684-350 606 289 957 1159 495 1722-172 205-446 321-712 267-425-90-612-677-238-945 222-158 490-104 642 121-160-187-404-223-594-59-258 223-116 672 219 717 331 43 599-229 653-541 71-431-184-878-567-1067-498-241-1068-133-1461 252-299 296-436 693-402 1092zm894 1262c57-93 177-123 270-66 93 56 123 178 66 272-56 93-177 123-270 66-93-56-122-178-66-272zm-18-323c34-342 304-348 354-8 263-217 459-29 255 246 339 35 345 307 8 357 216 265 29 462-244 257-35 342-305 348-354 8-264 217-459 29-256-246-339-35-345-307-8-357-215-265-28-462 245-257z"/></g></g><g stroke-linejoin="round" stroke-linecap="round"><g font-family="&apos;Calligraphia One&apos;"><g fill="#fff" stroke="#fff" stroke-width="500"><text x="10500" y="14850" font-size="2784.1" transform="matrix(.79758 0 .14234.83544-6404.62 7402.6)">T2</text><text x="10500" y="14850" font-size="2698.1" transform="matrix(.79758 0 .14234.83544-7746.92 6239.11)">T1</text></g><g fill="#201e1e" stroke="#201e1e" stroke-width="75"><text x="10500" y="14850" font-size="2698.1" transform="matrix(.79758 0 .14234.83544-7721.56 6304.34)">T1</text><text x="10500" y="14850" font-size="2784.1" transform="matrix(.79758 0 .14234.83544-6404.62 7402.6)">T2</text></g></g><g font-family="&apos;Arial Rounded MT Bold fed&apos;" font-weight="bold" stroke-width="40" font-size="538.1" transform="matrix(.82916 0 0 .83544-5073.21 8449.48)"><text x="10500" y="14850" fill="#201e1e" stroke="#201e1e">00.00.0000</text><text x="13395" y="14850" fill="#718fc8" stroke="#718fc8"/></g></g></g></g><path d="m6246 20825c561-284 749-857 812-1451 60-559 66-1131 60-1694-8-626-33-1252-51-1878-21-680-35-1363-6-2042 25-609 84-1240 235-1831 284-1109 744-2161 970-3286 69-345 123-693 163-1042 44-388 71-780 75-1170 10-961-117-2365-911-3023-501-415-1143-426-1750-289-900 205-1755 626-2439 1254-483 443-867 977-1124 1582-283 666-397 1380-371 2103 13 371 32 741 56 1111 66 1048 166 2094 258 3141 103 1177 194 2354 246 3535 14 320 15 643 18 963 4 381 8 762 22 1143 17 466 46 943 119 1403 51 319 140 733 317 1007 168 260 452 432 734 542 340 131 721 192 1084 202 481 13 1048-61 1483-280z" fill="none" stroke="#fff" stroke-width="7.62"/><path d="m14732 20825c-562-284-750-857-813-1451-59-559-66-1131-59-1694 7-626 32-1252 51-1878 20-680 34-1363 6-2042-26-609-84-1240-236-1831-283-1109-744-2161-970-3286-69-345-123-693-163-1042-44-388-71-780-75-1170-10-961 117-2365 911-3023 501-415 1143-426 1751-289 900 205 1754 626 2438 1254 483 443 867 977 1124 1582 283 666 397 1380 371 2103-13 371-32 741-55 1111-67 1048-167 2094-259 3141-103 1177-193 2354-246 3535-14 320-15 643-18 963-4 381-8 762-22 1143-17 466-46 943-119 1403-51 319-139 733-316 1007-169 260-452 432-734 542-340 131-722 192-1085 202-481 13-1048-61-1482-280" fill="#fff"/><g clip-path="url(#1)"><g><g stroke="#fff"><g fill="#201e1e" stroke-width="7.62"><path d="m13279 6556c0 0-361-431-216-590 146-160 232-134 316-28 85 106 169 472 98 540 0 0 84-30 51-229 0 0 176-251 287-143 111 107-4 352-252 496 0 0 103-19 160-65 187 99 261 148 296 349-408 196-290-84-567-216 336 674-680 620-247 16-135-16-668-128-537-370 64-121 403 34 497 150 50 61 114 90 114 90z"/><path d="m13524 4731c0 0-479 246-409 443 71 196 156 204 271 142 114-62 323-355 285-443 0 0 63 59-39 223 0 0 64 288 202 234 138-54 126-314-41-534 0 0 84 55 117 117 203-18 286-33 392-199-290-326-289-34-583-20 546-473-375-804-213-107-126-36-639-135-613 128 13 131 371 120 497 53 66-36 134-37 134-37zm59-28c16-31 54-42 85-26 30 17 42 55 25 86-16 30-54 42-85 25-30-16-41-55-25-85z"/><path d="m13419 3380c99-77 203-139 311-188 57 223 4 418-131 445-127 25-168-160-180-257zm359-209c147-61 300-98 457-116-138 135-239 135-457 116zm652-130c170-4 342 11 513 40l23 25c8-6 16-11 24-16 48 9 97 18 145 29 225 52 447 116 665 194-176 124-351 168-512 132 563 576 1170 1075 1996 1209-48-54-48-138 23-278 28-57 89-84 164-94 35 30 69 60 102 91 113 103 220 211 321 324-136 56-347 75-427 82-767 73-1516-297-2094-844 49 176-55 372-77 506-264-191-318-454-135-722-147-162-280-335-395-514 142 481 82 1036-281 1639 197-569 201-1074 65-1508 9 268-259 451-370 603-189-362-100-687 259-880-3-6-6-12-9-18zm1511 325c138 54 274 114 408 179-49 33-100 61-153 81-115 46-208-15-255-260zm532 241c90 46 178 96 265 147 10 35 22 58 22 58-4-17-6-33-8-50 74 45 146 90 218 138-4 6-7 12-10 16 4-4 9-8 14-13 58 38 115 78 171 119-69-26-130-57-161-72 344 263 199 353 237 534-113-112-371 36-389-424-15 135-55 273-221 225-130-208-2-287-2-287 62 9 107-18 107-18-304 66-450-331-243-373zm1440 1111c59 66 115 134 170 203-90 164-224 252-332 200-157-76 37-363 37-363 54-10 94-24 125-40zm276 342c187 257 348 533 478 827-18 163-54 319-58 442-524-277-685-739-420-1269zm587 1095c16 43 32 86 46 130-38-28-75-51-115-55 10-43 36-66 69-75zm174 587c4 16 8 32 11 49-7-11-11-21-12-29-1-5 0-12 1-20zm-3822-492c393-548 748-131 909-196-51 418-389 484-744 552 0 0 423 308 400 660-22 352-454 206-554-132 0 0 80-333 41-395-43 189-90 926-445 729-207-115-147-619 66-881 0 0-105 77-162 197-258 113-489-209-625-210 140-335 614-302 859-91-321-328-514-550-4-768 20 188 141 392 259 535zm22-1300c165-629 476-346 666-466-107 238 65 407-488 664 133-33 657-166 648 108-177-32-387 195-612 88 0 0-39-104-81-156 41 103 198 619 161 698-37 77-287 188-392 65-105-123-201-410-76-681 0 0-65 77-92 187-809 213-427-667 82-433 0 0-54-50-142-57 0 0-152-149 89-396 245-14 257 187 237 379zm1368 548c0 0-675-304-822-59-148 245-83 345 82 414 164 70 655 43 716-74 0 0-8 119-270 150 0 0-252 317-75 420 176 102 442-136 532-505 0 0 14 138-23 227 194 203 282 280 549 251 96-594-213-340-481-646 973 182 530-1098-71-322-70-166-407-806-664-550-128 127 192 503 372 581 95 41 155 113 155 113zm-1357-395c41 17 60 64 44 105-17 41-63 60-103 44-41-17-61-63-44-104 16-41 62-61 103-45zm-59 1404c25 29 23 73-5 99-29 26-72 24-98-5-26-28-24-72 5-98 28-26 72-24 98 4zm1497-970c47-8 92 23 101 70 8 47-23 92-69 101-47 9-92-23-101-70-8-47 22-92 69-101zm-1558-2356c176-73 344 88 581 107-198 58-410-7-581-107zm150 639c102 116 25 287 73 475-96-137-103-318-73-475zm-786-627c50 186-130 332-179 567-32-206 60-409 179-567zm2457 762c31-5 52-34 47-65-6-31-34-51-65-46-31 5-51 34-46 65 5 31 34 52 64 46zm1403 1283c213 183 117 511 251 836-208-222-266-545-251-836zm-2566 1448c473-208 862-42 1067 431-309-13-883 201-1067-431zm164 68c143 194 426 132 693 267-176-192-445-262-693-267zm1958-1362c77 49 100 152 50 230-49 78-151 100-228 51-77-50-100-153-51-231 50-77 152-100 229-50zm-289-498c55 36 72 111 36 167-36 57-110 73-166 37-55-36-72-111-36-167 36-56 110-73 166-37z"/><path d="m17988 7895c-26-7-53 9-60 35-7 26 8 53 34 60 26 8 53-8 60-34 7-27-8-54-34-61zm1028 1219l-3 55c-5 67-9 134-14 201-36-48-93-80-163-82-219-3-317 199-352 390 149 89 355 128 494-3-5 75-11 151-17 226-161 59-345 26-496-67-8 132 11 266 77 382 64 109 162 189 272 245 32 16 65 31 99 43-3 39-7 77-10 116-198-44-378-140-499-313-129-183-150-410-124-626-169-182-355-400-455-629-51 12-101-27-101-80 0-46 37-83 83-83 45 0 82 37 82 83 0 26-13 50-33 65 127 187 292 359 449 504 64-264 248-476 535-470 65 2 124 17 176 43zm-71 996c-5 60-10 121-15 181-42-4-87-18-133-43 40-69 91-115 148-138zm-1403-276c-43-11-88 15-100 59-12 44 14 89 58 101 43 12 88-14 100-58 12-44-14-90-58-102zm-158-1337c-36-10-73 12-83 48-10 36 12 74 48 84 36 10 73-12 83-48 10-37-12-74-48-84zm977 119c-26-7-54 9-61 36-7 27 8 54 35 62 27 7 54-9 61-36 8-27-8-54-35-62zm-1197 690c-131-150-305-179-478-82 131 153 305 184 478 82zm-407 200c-161 73-214 209-143 371 162-72 218-207 143-371zm755-1715c10-196-93-335-283-381-12 198 89 338 283 381zm71 150c-159-177-374-237-602-171 159 180 374 243 602 171zm-897-120c-32-263-181-468-418-581 30 264 177 471 418 581zm1216-347c69-166 16-308-146-385-71 167-21 310 146 385zm-1629 557c-232-40-435 48-570 241 233 42 438-43 570-241zm187 335c-49 0-89 41-89 91 0 49 40 90 89 90 50 0 90-41 90-90 0-50-40-91-90-91zm-120-83c-140-67-206 37-87 137-146 52-119 173 35 158-67 141 37 207 136 87 51 147 171 120 157-35 140 67 206-37 86-137 146-52 120-172-34-158 66-141-37-207-136-87-52-147-172-120-157 35zm2039 303c-59-17-121 19-137 79-16 60 19 122 79 138 60 16 121-19 137-79 16-60-19-122-79-138zm-118-141c-147-127-260-23-148 137-193 14-201 169-10 202-126 148-23 262 135 150 15 194 169 201 201 9 147 127 261 23 149-136 193-15 200-170 9-203 126-148 23-262-135-149-15-195-168-202-201-10zm-279-609c-48-6-92 29-97 78-5 48 29 92 78 97 48 5 91-30 96-78 5-48-29-92-77-97zm-109-95c-129-80-204 14-98 124-148 35-135 156 16 158-79 130 14 206 123 99 35 149 155 136 157-17 129 81 204-14 99-123 147-35 134-156-17-158 80-130-14-206-123-100-35-149-154-135-157 17zm-540 692c-80-2-146 61-148 142-3 81 61 148 141 150 80 2 146-62 149-142 2-81-62-148-142-150zm-250-166c-183-59-259 92-88 243-239 78-201 275 50 258-114 226 51 338 216 147 78 241 273 203 256-49 224 115 336-52 147-218 239-78 201-275-50-258 114-226-51-338-216-148-73-226-250-206-257 7-286-341-714-529-1181-494-639 49-1162 500-1301 1133-141 660 329 1472 1053 1444 267-11 525-161 644-405 189-395-160-902-599-766-259 81-380 328-296 586-49-241 72-458 316-511 333-69 600 317 431 613-168 291-545 339-824 191-382-205-578-681-493-1103 113-544 545-933 1087-1013 415-60 812 74 1105 343zm448 1484c-107-12-205 67-216 175-12 109 66 207 174 219 107 12 205-67 216-175 12-109-66-207-174-219zm-243-212c-289-180-459 32-222 278-331 79-302 349 39 355-180 291 31 462 275 223 78 334 347 305 352-38 290 180 459-32 222-278 331-79 302-349-38-355 179-291-32-462-276-223-78-334-347-305-352 38z"/><path d="m17049 12501c0 0 118-551 333-532 214 19 246 104 214 236-32 132-268 422-366 407 0 0 75 48 212-99 0 0 305-12 288 142-18 154-281 211-545 101 0 0 78 70 148 88 36 210 43 298-93 449-404-206-111-283-176-584-326 679-902-166-163-188-70-118-306-611-36-655 134-22 219 344 185 489-18 77-1 146-1 146z"/><path d="m18634 11585c0 0-486-233-597-57-112 176-66 249 52 303 119 53 477 42 522-42 0 0-7 86-199 104 0 0-188 227-61 305 127 77 324-91 396-359 0 0 7 101-21 165 18 20 35 38 51 54 9-105 18-210 28-315-8-8-15-16-23-25 8 2 16 3 24 5 11-114 21-229 31-343-33 26-66 60-101 103-48-122-282-593-474-412-95 90 131 370 261 429 69 32 111 85 111 85zm58 30c34-6 67 18 72 52 6 35-18 67-52 73-34 5-66-18-72-53-5-34 18-67 52-72z"/><path d="m18725 12648c-8 90-15 180-23 270-77-123-51-217 23-270zm-50 608l-1 8c-133 131-218 349-258 528 83-3 155 3 216 16-15 202-30 404-43 605-122-65-236-167-353-272 0 0 15 525-276 721-290 197-438-237-234-523 0 0 311-139 337-208-175 81-784 492-846 89-36-236 398-495 735-484 0 0-125-37-254-9-247-138-134-518-215-628 348-92 610 307 594 631 63-455 120-743 598-474zm-12 145c-7 95-15 191-22 286-30-41-47-88-36-138 9-44 28-96 58-148zm-87 1216c-5 73-10 146-14 219-29-53-61-103-95-150-38 131 17 249 81 379-6 110-12 220-18 331-195-221-387-498-109-882 57 32 108 66 155 103zm-379-689c-7 38-43 63-81 56-38-7-63-43-56-81 7-38 43-63 81-57 38 7 63 44 56 82z"/><path d="m18495 16350c-2 120-3 239-4 358-130-134-181-313-143-509 59 44 109 95 147 151zm-14 1128c-2 89-4 178-6 267-21-4-42-2-63 6-57 24-84 90-61 147 20 48 68 75 117 69-3 82-7 163-11 245-66 66-152 15-144-134-171 91-259-36-115-166-185-58-158-210 35-199-90-173 36-261 165-116 20-64 51-103 83-119zm-7 308c-1 33-2 67-4 100-17-2-33-13-40-31-10-25 2-55 27-66 6-2 11-3 17-3zm-30 674c-12 185-28 369-49 553l-160 124c-63 19-134 23-208 6-235-55-375-269-400-501-108 74-202 171-254 294-46 117-49 244-26 367 27 141 83 275 157 400l-54 42c-199-247-327-557-233-864 67-215 232-369 418-481 40-245 98-527 218-746-40-33-40-97 2-129 36-28 88-21 115 15 28 36 21 88-15 116-21 16-47 20-71 14-70 215-105 451-123 665 240-106 512-92 683 125zm-1379-555c-17-43-65-63-107-45-42 17-62 65-45 108 18 42 66 62 107 45 42-18 62-66 45-108zm956-941c-14-35-53-52-88-37-35 14-51 54-37 89 14 35 54 51 89 37 34-15 51-55 36-89zm-770 317c38-197-45-354-228-433-39 199 41 356 228 433zm-406-204c-155-84-294-43-379 112 155 86 296 48 379-112zm659 2082c29 180 150 274 330 256-28-182-147-279-330-256zm624-3166c187-185 258-429 203-687-189 185-263 428-203 687zm-417-202c-110-209-303-318-537-307 109 211 301 323 537 307zm51 2771c171-88 390-133 521 43 117 160-27 381-218 350-188-31-283-220-303-393zm-201-2416c-30-40-86-47-125-17-39 31-47 87-17 127 31 39 87 46 126 16 39-30 46-87 16-126zm-7-147c-33-153-155-142-161 14-130-85-209 10-103 124-152 32-141 156 14 161-84 131 10 211 123 105 32 152 155 141 160-14 130 84 209-10 104-125 151-32 141-155-14-161 84-131-10-211-123-104zm487 885c-47-65-138-80-203-32-64 47-79 138-32 204 47 65 138 79 203 32 65-47 79-139 32-204zm-22-301c-65-183-230-152-245 78-207-144-339 7-173 197-247 46-235 246 16 262-142 209 7 342 195 175 46 248 245 236 261-16 207 143 339-7 173-197 247-46 235-247-16-263 134-196 10-325-161-201 93-435-19-893-332-1244-427-481-1101-624-1683-350-606 289-958 1159-496 1722 172 205 447 321 712 267 425-90 612-677 238-945-222-158-490-104-642 121 160-187 405-223 594-59 258 223 116 672-219 717-331 43-599-229-653-541-71-431 184-878 568-1067 497-241 1067-133 1460 252 300 296 436 693 403 1092zm-895 1262c-56-93-177-123-270-66-93 56-122 178-66 272 56 93 177 123 270 66 93-56 122-178 66-272zm18-323c-34-342-304-348-353-8-264-217-459-29-256 246-339 35-345 307-8 357-215 265-29 462 245 257 34 342 304 348 353 8 264 217 459 29 256-246 339-35 345-307 8-357 215-265 29-462-245-257z"/></g><g fill="#fff" font-family="&apos;Calligraphia One&apos;" stroke-linejoin="round" stroke-linecap="round" stroke-width="500"><text x="10500" y="14850" font-size="2784.1" transform="matrix(.79758 0 .14234.83544 4926.04 7369.43)">T2</text><text x="10500" y="14850" font-size="2698.1" transform="matrix(.79758 0 .14234.83544 3583.74 6205.94)">T1</text></g></g><g stroke-linejoin="round" stroke-linecap="round"><g fill="#201e1e" stroke="#201e1e"><g font-family="&apos;Calligraphia One&apos;" stroke-width="75"><text x="10500" y="14850" font-size="2698.1" transform="matrix(.79758 0 .14234.83544 3609.1 6271.18)">T1</text><text x="10500" y="14850" font-size="2784.1" transform="matrix(.79758 0 .14234.83544 4926.04 7369.43)">T2</text></g><text x="10500" y="14850" font-family="&apos;Arial Rounded MT Bold fed&apos;" font-weight="bold" stroke-width="40" font-size="538.1" transform="matrix(.82916 0 0 .83544 6257.45 8416.31)">00.00.0000</text></g><text x="13395" y="14850" fill="#718fc8" font-family="&apos;Arial Rounded MT Bold fed&apos;" stroke="#718fc8" font-weight="bold" stroke-width="40" font-size="538.1" transform="matrix(.82916 0 0 .83544 6257.45 8416.31)"/></g><g fill="#201e1e" font-family="&apos;Arial Black&apos;" font-weight="900" font-size="529.17"><text x="10500" y="14850" transform="matrix(.82916 0 0 .83544 4193.76-4256.92)">NN 1</text><text x="10500" y="14850" transform="matrix(.82916 0 0 .83544 4197.31-3848.71)">NN 2</text></g></g></g><path d="m14732 20825c-562-284-750-857-813-1451-59-559-66-1131-59-1694 7-626 32-1252 51-1878 20-680 34-1363 6-2042-26-609-84-1240-236-1831-283-1109-744-2161-970-3286-69-345-123-693-163-1042-44-388-71-780-75-1170-10-961 117-2365 911-3023 501-415 1143-426 1751-289 900 205 1754 626 2438 1254 483 443 867 977 1124 1582 283 666 397 1380 371 2103-13 371-32 741-55 1111-67 1048-167 2094-259 3141-103 1177-193 2354-246 3535-14 320-15 643-18 963-4 381-8 762-22 1143-17 466-46 943-119 1403-51 319-139 733-316 1007-169 260-452 432-734 542-340 131-722 192-1085 202-481 13-1048-61-1482-280z" fill="none" stroke="#fff" stroke-width="7.62"/><g fill="#373435" font-family="&apos;Arial&apos;" font-weight="normal" font-size="423.33"><text x="501" y="28192">DESC 1</text><text x="501" y="28703">DESC 2</text><text x="501" y="29197">DESC 3</text></g></svg>