<svg xmlns="http://www.w3.org/2000/svg" width="744.09" height="1052.36" viewBox="0 0 21000 29700" shape-rendering="geometricPrecision" image-rendering="optimizeQuality" fill-rule="evenodd" clip-rule="evenodd"><defs><clipPath id="0"><path d="m6607 26323c767-398 1023-1204 1110-2040 81-786 89-1590 80-2381-9-880-44-1761-69-2641-28-956-47-1916-8-2871 34-857 114-1743 321-2574 387-1559 1016-3038 1325-4621 94-484 168-974 222-1464 60-546 97-1097 103-1646 13-1351-161-3324-1244-4249-685-584-1561-600-2390-406-1229 287-2395 879-3329 1762-659 623-1183 1373-1535 2225-386 937-542 1940-506 2956 18 521 44 1042 76 1562 90 1474 227 2945 352 4416 141 1656 265 3310 336 4971 19 450 21 904 25 1354 5 536 11 1072 30 1607 23 655 62 1325 163 1972 69 449 190 1030 432 1416 229 366 616 608 1002 762 464 185 985 270 1480 284 657 19 1431-86 2024-394"/></clipPath><clipPath id="1"><path d="m14375 26323c-767-398-1023-1204-1110-2040-81-786-89-1590-80-2381 9-880 44-1761 69-2641 28-956 47-1916 8-2871-34-857-114-1743-321-2574-387-1559-1016-3038-1325-4621-94-484-168-974-222-1464-60-546-97-1097-103-1646-13-1351 161-3324 1244-4249 685-584 1561-600 2390-406 1229 287 2395 879 3329 1762 659 623 1183 1373 1535 2225 386 937 542 1940 506 2956-18 521-44 1042-76 1562-90 1474-227 2945-352 4416-141 1656-265 3310-336 4971-19 450-21 904-25 1354-5 536-11 1072-30 1607-23 655-62 1325-163 1972-69 449-190 1030-432 1416-229 366-616 608-1002 762-464 185-985 270-1480 284-657 19-1431-86-2024-394"/></clipPath></defs><text x="10081" y="24148" fill="#201e1e" font-family="&apos;Arial Black&apos;" stroke="#201e1e" font-weight="900" stroke-width="7.62" font-size="705.56">40</text><g fill="none" stroke="#373435" stroke-width="80"><circle cx="10533" cy="1008" r="460"/><path d="m10533 198v1621"/><path d="m9723 1008h1621"/><circle cx="10533" cy="25519" r="460"/><path d="m10533 24708v1621"/><path d="m9723 25519h1621"/></g><g fill="#fff"><rect x="9843" y="22866" width="1347" height="637" rx="318" stroke="#fff" stroke-width="20"/><path d="m6607 26323c767-398 1023-1204 1110-2040 81-786 89-1590 80-2381-9-880-44-1761-69-2641-28-956-47-1916-8-2871 34-857 114-1743 321-2574 387-1559 1016-3038 1325-4621 94-484 168-974 222-1464 60-546 97-1097 103-1646 13-1351-161-3324-1244-4249-685-584-1561-600-2390-406-1229 287-2395 879-3329 1762-659 623-1183 1373-1535 2225-386 937-542 1940-506 2956 18 521 44 1042 76 1562 90 1474 227 2945 352 4416 141 1656 265 3310 336 4971 19 450 21 904 25 1354 5 536 11 1072 30 1607 23 655 62 1325 163 1972 69 449 190 1030 432 1416 229 366 616 608 1002 762 464 185 985 270 1480 284 657 19 1431-86 2024-394"/></g><g clip-path="url(#0)"><g><g fill="#201e1e"><g stroke="#201e1e" stroke-width="7.62"><path d="m8590 6261c0 0 494-605 295-830-199-224-316-187-432-38-116 149-231 663-133 759 0 0-115-42-70-322 0 0-240-353-392-202-152 151 6 496 344 698 0 0-140-27-217-91-256 140-357 207-405 490 557 276 396-118 774-303-459 948 929 872 338 23 184-23 910-180 733-522-88-168-551 49-680 212-68 85-155 126-155 126z"/><path d="m8256 3695c0 0 654 347 558 623-97 276-214 288-369 200-156-88-442-499-389-623 0 0-87 83 53 314 0 0-88 405-276 329-189-76-172-442 56-751 0 0-115 78-161 164-276-25-390-47-534-279 396-459 394-48 795-29-745-664 513-1130 292-150 171-50 872-190 836 181-18 183-506 168-678 74-91-50-183-53-183-53zm-81-39c-22-43-74-60-116-36-41 23-57 77-34 120 22 43 74 59 115 36 42-23 58-77 35-120z"/><path d="m8399 1796c-135-108-277-196-424-265-78 314-6 589 178 626 174 35 229-225 246-361zm-490-294c-200-85-410-138-624-164 189 191 326 191 624 164zm-891-183c-231-5-466 16-699 57l-32 35c-11-8-22-16-33-23-66 12-132 26-197 42-308 71-611 163-908 272 239 174 479 236 699 186-769 809-1598 1511-2725 1699 65-76 65-194-31-391-39-80-123-118-225-132-47 42-93 85-139 128-154 145-300 297-439 456 186 78 475 105 584 115 1047 103 2069-417 2859-1186-68 247 74 523 105 711 360-268 433-639 184-1015 201-228 382-472 539-723-194 676-112 1457 384 2305-270-800-275-1511-89-2121-13 377 353 634 505 848 258-509 136-965-354-1237 4-9 8-17 12-26zm-2062 458c-189 76-375 159-557 250 67 47 137 87 208 116 159 64 284-22 349-366zm-726 338c-123 65-244 135-363 207-13 50-29 81-29 81 5-23 8-46 11-69-101 62-200 126-298 193 6 9 10 17 14 23-6-6-13-12-19-19-79 54-157 110-233 168 93-37 177-80 219-101-469 370-271 496-324 751 155-158 507 49 532-597 21 190 74 383 302 316 176-292 2-403 2-403-85 12-146-25-146-25 415 92 614-466 332-525zm-1966 1563c-80 92-157 187-232 284 123 231 305 355 453 282 214-107-50-510-50-510-74-15-129-35-171-56zm-377 481c-256 360-475 749-653 1161 26 230 75 450 80 622 715-389 935-1039 573-1783zm-802 1538c-22 61-43 122-62 183 51-39 102-71 157-76-14-61-49-93-95-107zm-237 826c-5 23-10 46-15 68 9-14 15-28 17-40 1-7 0-16-2-28zm5218-692c-537-770-1021-184-1241-276 70 588 531 682 1015 777 0 0-576 432-546 927 30 495 620 290 757-185 0 0-109-468-56-556 58 266 123 1302 607 1026 284-162 201-871-90-1239 0 0 144 108 221 276 353 160 668-293 853-295-190-470-837-423-1171-127 437-462 700-774 4-1080-27 264-192 551-353 752zm-30-1828c-225-884-650-487-910-655 147 334-88 572 667 934-182-47-897-234-884 152 241-45 528 274 834 124 0 0 54-146 111-220-55 145-270 871-219 981 50 109 391 265 535 92 143-173 275-576 103-957 0 0 89 108 126 263 1105 299 583-938-112-609 0 0 74-71 194-81 0 0 208-209-122-556-334-20-351 263-323 532zm-1868 770c0 0 921-427 1123-82 202 345 113 485-112 582-224 98-895 60-978-105 0 0 10 168 369 212 0 0 343 446 102 590-241 144-604-190-726-710 0 0-19 195 31 320-265 285-385 393-749 353-132-836 291-479 656-908-1328 255-724-1544 97-453 95-234 555-1133 907-773 174 177-262 707-508 816-130 58-212 158-212 158zm1853-554c-56 23-82 89-60 147 22 57 86 85 141 62 56-23 82-89 60-146-22-58-85-86-141-63zm81 1974c-35 40-32 103 6 139 39 37 99 33 134-7 35-40 32-102-6-139-39-36-99-33-134 7zm-2045-1364c-63-12-125 32-137 98-11 66 31 130 95 142 63 12 125-31 137-98 11-66-31-130-95-142zm2128-3312c-241-103-470 123-794 150 271 81 561-11 794-150zm-204 897c-140 164-35 405-101 668 132-193 141-446 101-668zm1072-881c-68 261 177 467 245 797 43-289-82-575-245-797zm-3355 1072c-42-7-70-48-63-91 7-44 47-73 88-66 42 7 70 48 63 92-7 43-46 72-88 65zm-1914 1803c-291 258-160 719-343 1176 284-313 362-766 343-1176zm3502 2036c-646-292-1177-59-1456 606 422-19 1205 282 1456-606zm-224 96c-194 273-581 186-946 376 240-271 608-368 946-376zm-2673-1916c-105 70-135 215-68 324 67 109 207 141 312 72 105-70 136-215 69-324-68-110-207-141-313-72zm396-699c-77 51-99 156-50 235 49 79 150 102 226 52 76-51 99-156 50-235-49-79-150-102-226-52z"/><path d="m2162 8144c35-10 72 12 82 49 10 37-12 75-47 85-36 10-73-12-82-49-10-37 11-75 47-85zm-1404 1715l5 76c6 94 12 189 18 283 50-67 127-113 223-115 299-4 432 280 481 548-204 125-486 180-675-4 7 106 15 212 23 318 221 82 471 36 677-95 11 186-15 374-105 538-87 152-221 265-371 344-44 23-89 43-135 61 4 54 9 108 13 162 271-61 517-197 682-439 176-258 204-576 169-881 231-255 485-562 622-884 68 16 136-39 136-113 0-65-50-117-112-117-62 0-112 52-112 117 0 37 17 71 44 92-173 263-398 504-612 708-88-370-339-669-730-660-89 2-170 24-241 61zm97 1399c7 85 13 170 20 255 58-6 120-26 182-61-55-97-124-161-202-194zm1915-387c60-17 121 20 137 82 16 62-19 126-79 142-59 17-121-19-137-82-16-61 19-125 79-142zm216-1881c49-13 100 17 113 68 13 51-16 104-65 118-49 14-100-17-113-68-14-51 15-104 65-118zm-1334 168c36-10 74 12 84 50 10 38-12 77-48 87-37 10-74-12-84-50-10-38 12-77 48-87zm1634 969c180-210 417-251 654-114-180 215-417 259-654 114zm556 283c219 101 292 293 196 521-222-101-298-291-196-521zm-1030-2412c-14-276 127-470 385-536 16 279-122 475-385 536zm-98 211c217-249 512-333 822-240-217 253-510 341-822 240zm1226-170c43-368 247-656 569-816-40 371-241 662-569 816zm-1661-487c-94-234-22-432 199-541 98 235 28 436-199 541zm2224 783c317-56 594 68 777 340-318 59-596-61-777-340zm-256 472c67 0 122 57 122 127 0 70-55 126-122 126-67 0-122-56-122-126 0-70 55-127 122-127zm164-117c191-95 282 52 119 192 199 73 163 243-48 222 91 198-50 292-185 123-70 207-234 169-214-49-191 94-281-53-118-192-200-74-164-244 47-223-91-198 50-292 185-123 71-206 234-169 214 50zm-2784 425c81-23 165 27 187 111 22 85-26 172-107 195-81 22-165-28-187-112-22-84 26-171 107-194zm162-197c200-179 355-32 202 191 264 21 274 239 13 285 172 208 31 369-184 210-21 274-230 284-275 14-200 178-355 32-203-192-263-21-273-238-12-284-172-208-31-369 184-211 21-273 230-284 275-13zm381-857c66-8 125 41 132 109 7 69-40 130-106 137-65 8-124-41-132-110-7-68 41-129 106-136zm148-133c176-113 279 20 135 174 201 49 184 219-23 222 109 183-19 289-168 140-47 209-211 191-214-24-176 113-279-20-135-174-201-49-183-219 24-222-109-183 19-290 167-140 48-209 211-191 214 24zm737 972c109-3 200 87 203 200 3 114-83 208-192 211-110 3-201-87-204-200-2-113 84-208 193-211zm342-232c250-84 354 128 119 341 327 110 275 387-67 363 156 317-70 475-295 207-106 338-373 285-350-70-306 161-458-72-200-306-326-110-274-388 68-363-156-318 69-476 295-208 99-318 341-290 351 9 390-478 974-743 1612-693 872 68 1587 703 1776 1592 193 929-449 2069-1438 2031-363-17-716-226-879-570-257-556 219-1269 818-1077 354 114 518 462 404 824 68-339-98-645-431-718-454-98-819 445-588 861 228 409 744 477 1124 269 522-288 790-958 674-1550-154-766-744-1313-1484-1425-568-84-1109 104-1509 483zm-612 2086c147-17 280 93 296 246 16 153-90 291-238 307-147 17-280-93-296-246-16-153 90-291 238-307zm332-298c395-254 626 44 303 391 452 110 413 491-52 498 244 410-43 650-377 314-106 470-473 428-480-54-395 254-626-44-303-391-452-110-413-491 52-498-244-410 43-650 377-314 106-470 473-428 480 54z"/></g><g font-family="&apos;Arial Black&apos;" font-weight="900" font-size="529.17"><text x="10500" y="14850" transform="matrix(1.13196 0 0 1.17462-4441.72-8941.36)">NN 1</text><text x="10500" y="14850" transform="matrix(1.13196 0 0 1.17462-4436.88-8367.42)">NN 2</text></g><g stroke="#201e1e" stroke-width="7.62"><path d="m3444 14620c0 0-162-775-455-748-293 27-335 146-292 332 43 186 366 593 500 572 0 0-103 68-290-139 0 0-416-17-393 200 24 217 383 297 743 141 0 0-106 99-202 124-49 295-59 420 128 632 551-291 151-399 240-822 445 955 1232-233 223-264 95-165 417-859 48-921-182-30-298 483-252 688 24 108 2 205 2 205z"/><path d="m1280 13332c0 0 663-327 815-80 152 247 90 351-72 426-162 74-650 59-713-60 0 0 10 122 272 148 0 0 257 318 84 427-173 109-442-127-540-503 0 0-11 142 27 232-24 27-47 53-68 76-13-148-26-296-38-444 10-10 20-22 30-34-11 2-22 4-33 6-14-161-28-321-42-482 45 37 91 84 138 144 66-171 386-834 648-578 129 126-180 519-357 603-94 44-151 119-151 119zm-80 42c-47-8-91 25-98 74-8 48 24 94 71 101 46 8 90-25 98-73 7-48-24-94-71-102z"/><path d="m1155 14827c11 126 21 253 31 380 106-174 70-306-31-380zm69 855l1 11c181 185 298 491 353 742-114-4-212 5-295 23 20 284 40 567 58 851 166-92 323-236 482-383 0 0-21 737 376 1014 397 277 599-333 320-735 0 0-425-196-460-293 239 114 1071 692 1155 125 49-331-543-696-1003-680 0 0 170-53 346-14 337-193 183-728 295-882-476-130-834 431-812 887-85-640-163-1045-816-666zm16 203c10 134 20 269 30 403 41-57 64-124 50-194-13-62-40-135-80-209zm119 1710c7 103 13 205 19 308 39-74 83-144 130-210 51 184-23 349-111 532 8 155 17 310 24 465 267-310 529-700 150-1240-78 45-149 93-212 145zm517-969c10 53 59 89 110 79 52-10 86-61 77-114-10-53-59-89-110-79-52 9-86 61-77 114z"/><path d="m1470 20032c2 168 3 336 5 503 178-189 247-439 196-716-82 62-149 134-201 213zm18 1586c3 125 6 250 9 375 28-5 57-3 86 9 77 34 115 126 83 207-27 67-93 105-159 97 4 114 8 228 14 343 91 93 208 21 197-187 234 128 353-51 157-234 252-81 215-295-49-280 124-243-48-367-225-163-27-91-69-145-113-167zm11 432c1 47 2 95 4 142 24-3 45-19 55-44 14-36-2-77-37-92-7-4-15-5-22-6zm41 948c16 260 37 520 65 778l219 174c86 27 183 32 284 9 321-78 513-379 546-705 148 104 277 240 346 414 64 164 69 343 37 515-37 199-114 387-215 562l74 59c272-347 446-782 317-1214-90-301-316-519-570-675-54-346-134-742-297-1050 54-47 54-136-3-182-49-39-120-29-157 22-38 50-29 123 20 162 29 23 65 30 98 21 95 302 143 634 168 935-329-150-699-130-932 175zm1882-780c23-60 89-88 146-64 57 25 84 93 61 152-24 60-89 88-147 63-57-24-84-92-60-151zm-1306-1324c19-49 73-72 121-52 47 20 69 77 50 126-20 49-74 72-121 52-47-20-70-77-50-126zm1052 446c-52-276 62-496 311-608 54 279-56 501-311 608zm554-286c211-118 402-61 518 157-213 121-404 68-518-157zm-899 2927c-41 253-206 385-452 360 38-256 202-392 452-360zm-853-4451c-256-260-351-603-277-966 259 259 359 602 277 966zm569-284c150-294 414-447 734-432-149 297-411 454-734 432zm-69 3895c-234-123-532-187-711 62-160 224 36 535 297 491 256-43 386-309 414-553zm274-3396c41-56 118-66 171-24 54 43 64 122 23 178-41 55-118 66-172 23-53-42-63-122-22-177zm10-207c45-215 212-200 219 20 178-120 285 13 141 174 207 46 193 219-19 227 115 184-13 296-168 147-44 214-211 199-219-20-177 119-285-14-141-175-207-45-192-219 19-227-115-184 14-296 168-146zm-665 1244c64-91 188-112 277-45 88 67 108 195 44 287-65 92-189 112-277 45-88-66-108-195-44-287zm31-422c88-257 314-214 333 109 283-202 463 9 236 276 338 65 321 347-21 370 194 293-9 480-267 245-62 350-334 333-355-23-283 202-463-9-237-276-337-65-321-347 22-369-183-276-14-458 220-284-128-612 26-1254 453-1749 583-676 1503-877 2298-492 828 407 1308 1631 676 2421-234 289-609 451-971 376-581-127-836-952-325-1329 303-221 669-145 876 170-218-263-552-313-811-83-352 314-158 945 300 1008 451 62 817-321 890-760 98-606-251-1234-774-1500-679-339-1457-187-1993 354-410 416-596 975-550 1536zm1221 1774c77-132 242-174 369-94 126 80 167 252 90 383-77 131-242 173-369 94-127-80-167-252-90-383zm-25-455c47-480 415-488 483-11 360-305 627-41 349 346 462 49 471 432 11 501 294 374 39 651-334 363-47 480-416 488-483 11-360 305-627 41-349-346-463-49-471-432-11-502-294-373-39-650 334-362z"/></g></g><g stroke-linejoin="round" stroke-linecap="round"><g font-family="&apos;Calligraphia One&apos;"><g fill="#fff" stroke="#fff" stroke-width="500"><text x="10500" y="14850" font-size="2784.1" transform="matrix(1.08884 0 .19432 1.17462-10662.9 7451.78)">T2</text><text x="10500" y="14850" font-size="2698.1" transform="matrix(1.08884 0 .19432 1.17462-12495.4 5815.93)">T1</text></g><g fill="#201e1e" stroke="#201e1e" stroke-width="75"><text x="10500" y="14850" font-size="2698.1" transform="matrix(1.08884 0 .19432 1.17462-12460.8 5907.65)">T1</text><text x="10500" y="14850" font-size="2784.1" transform="matrix(1.08884 0 .19432 1.17462-10662.9 7451.78)">T2</text></g></g><g font-family="&apos;Arial Rounded MT Bold fed&apos;" font-weight="bold" stroke-width="40" font-size="538.1" transform="matrix(1.13196 0 0 1.17462-8845.26 8923.69)"><text x="10500" y="14850" fill="#201e1e" stroke="#201e1e">00.00.0000</text><text x="13395" y="14850" fill="#718fc8" stroke="#718fc8"/></g></g></g></g><path d="m6607 26323c767-398 1023-1204 1110-2040 81-786 89-1590 80-2381-9-880-44-1761-69-2641-28-956-47-1916-8-2871 34-857 114-1743 321-2574 387-1559 1016-3038 1325-4621 94-484 168-974 222-1464 60-546 97-1097 103-1646 13-1351-161-3324-1244-4249-685-584-1561-600-2390-406-1229 287-2395 879-3329 1762-659 623-1183 1373-1535 2225-386 937-542 1940-506 2956 18 521 44 1042 76 1562 90 1474 227 2945 352 4416 141 1656 265 3310 336 4971 19 450 21 904 25 1354 5 536 11 1072 30 1607 23 655 62 1325 163 1972 69 449 190 1030 432 1416 229 366 616 608 1002 762 464 185 985 270 1480 284 657 19 1431-86 2024-394z" fill="none" stroke="#fff" stroke-width="7.62"/><path d="m14375 26323c-767-398-1023-1204-1110-2040-81-786-89-1590-80-2381 9-880 44-1761 69-2641 28-956 47-1916 8-2871-34-857-114-1743-321-2574-387-1559-1016-3038-1325-4621-94-484-168-974-222-1464-60-546-97-1097-103-1646-13-1351 161-3324 1244-4249 685-584 1561-600 2390-406 1229 287 2395 879 3329 1762 659 623 1183 1373 1535 2225 386 937 542 1940 506 2956-18 521-44 1042-76 1562-90 1474-227 2945-352 4416-141 1656-265 3310-336 4971-19 450-21 904-25 1354-5 536-11 1072-30 1607-23 655-62 1325-163 1972-69 449-190 1030-432 1416-229 366-616 608-1002 762-464 185-985 270-1480 284-657 19-1431-86-2024-394" fill="#fff"/><g clip-path="url(#1)"><g><g stroke="#fff"><g fill="#201e1e" stroke-width="7.62"><path d="m12392 6261c0 0-494-605-295-830 199-224 316-187 432-38 116 149 231 663 133 759 0 0 115-42 70-322 0 0 240-353 392-202 152 151-6 496-344 698 0 0 140-27 218-91 255 140 356 207 404 490-557 276-396-118-774-303 459 948-929 872-338 23-184-23-910-180-733-522 88-168 551 49 680 212 68 85 155 126 155 126z"/><path d="m12726 3695c0 0-654 347-558 623 97 276 214 288 369 200 156-88 442-499 389-623 0 0 87 83-53 314 0 0 88 405 276 329 189-76 172-442-56-751 0 0 115 78 161 164 276-25 390-47 534-279-396-459-394-48-795-29 745-664-513-1130-292-150-171-50-872-190-836 181 18 183 506 168 678 74 91-50 183-53 183-53zm81-39c22-43 74-60 116-36 41 23 57 77 34 120-22 43-74 59-115 36-42-23-58-77-35-120z"/><path d="m12583 1796c135-108 277-196 424-265 78 314 6 589-178 626-174 35-229-225-246-361zm490-294c200-85 410-138 624-164-189 191-326 191-624 164zm891-183c231-5 466 16 699 57l32 35c11-8 22-16 33-23 66 12 132 26 197 42 308 71 611 163 908 272-239 174-479 236-699 186 769 809 1598 1511 2725 1699-65-76-65-194 31-391 39-80 123-118 225-132 47 42 93 85 139 128 154 145 300 297 439 456-186 78-475 105-584 115-1047 103-2069-417-2859-1186 68 247-74 523-105 711-360-268-433-639-184-1015-201-228-382-472-539-723 194 676 112 1457-384 2305 270-800 275-1511 89-2121 13 377-353 634-505 848-258-509-136-965 354-1237-4-9-8-17-12-26zm2062 458c189 76 375 159 557 250-67 47-137 87-208 116-159 64-284-22-349-366zm726 338c123 65 244 135 363 207 13 50 29 81 29 81-5-23-8-46-11-69 101 62 200 126 298 193-6 9-10 17-14 23 6-6 13-12 19-19 79 54 157 110 233 168-93-37-177-80-219-101 469 370 271 496 324 751-155-158-507 49-532-597-21 190-74 383-302 316-176-292-2-403-2-403 85 12 146-25 146-25-415 92-614-466-332-525zm1966 1563c80 92 157 187 232 284-123 231-305 355-453 282-214-107 50-510 50-510 74-15 129-35 171-56zm377 481c256 360 475 749 653 1161-26 230-75 450-80 622-715-389-935-1039-573-1783zm802 1538c22 61 43 122 62 183-51-39-102-71-157-76 14-61 49-93 95-107zm237 826c5 23 10 46 15 68-9-14-15-28-17-40-1-7 0-16 2-28zm-5218-692c537-770 1021-184 1241-276-70 588-531 682-1015 777 0 0 576 432 546 927-30 495-620 290-757-185 0 0 109-468 56-556-58 266-123 1302-607 1026-284-162-201-871 90-1239 0 0-144 108-221 276-353 160-668-293-853-295 190-470 837-423 1171-127-437-462-700-774-4-1080 27 264 192 551 353 752zm30-1828c225-884 650-487 910-655-147 334 88 572-667 934 182-47 897-234 884 152-241-45-528 274-834 124 0 0-54-146-111-220 55 145 270 871 219 981-50 109-391 265-535 92-143-173-275-576-103-957 0 0-89 108-126 263-1105 299-583-938 112-609 0 0-73-71-194-81 0 0-208-209 122-556 334-20 351 263 323 532zm1868 770c0 0-921-427-1123-82-202 345-113 485 112 582 224 98 895 60 978-105 0 0-10 168-369 212 0 0-343 446-102 590 241 144 604-190 726-710 0 0 19 195-31 320 265 285 385 393 749 353 132-836-291-479-656-908 1328 255 724-1544-97-453-95-234-555-1133-907-773-174 177 262 707 508 816 130 58 212 158 212 158zm-1853-554c56 23 82 89 60 147-22 57-85 85-141 62-56-23-82-89-60-146 22-58 86-86 141-63zm-81 1974c35 40 32 103-6 139-39 37-99 33-134-7-35-40-32-102 6-139 39-36 99-33 134 7zm2045-1364c63-12 125 32 137 98 11 66-31 130-95 142-63 12-125-31-137-98-11-66 31-130 95-142zm-2128-3312c241-103 470 123 794 150-271 81-561-11-794-150zm204 897c140 164 35 405 101 668-132-193-141-446-101-668zm-1072-881c68 261-177 467-245 797-43-289 82-575 245-797zm3355 1072c42-7 70-48 63-91-7-44-47-73-88-66-42 7-70 48-63 92 7 43 46 72 88 65zm1914 1803c291 258 160 719 343 1176-284-313-362-766-343-1176zm-3502 2036c646-292 1177-59 1456 606-422-19-1205 282-1456-606zm224 96c194 273 581 186 946 376-240-271-608-368-946-376zm2673-1916c105 70 135 215 68 324-67 109-207 141-312 72-105-70-136-215-69-324 68-110 207-141 313-72zm-396-699c77 51 99 156 50 235-49 79-150 102-226 52-76-51-99-156-50-235 49-79 150-102 226-52z"/><path d="m18820 8144c-35-10-72 12-82 49-9 37 12 75 47 85 36 10 73-12 82-49 10-37-11-75-47-85zm1404 1715l-5 76c-6 94-12 189-18 283-50-67-127-113-223-115-299-4-432 280-480 548 203 125 485 180 674-4-7 106-15 212-23 318-220 82-471 36-677-95-11 186 15 374 105 538 87 152 221 265 371 344 44 23 89 43 135 61-4 54-9 108-13 162-271-61-517-197-682-439-176-258-204-576-169-881-231-255-485-562-622-884-68 16-136-39-136-113 0-65 50-117 112-117 62 0 112 52 112 117 0 37-17 71-44 92 173 263 398 504 612 708 88-370 339-669 730-660 89 2 170 24 241 61zm-97 1399c-7 85-13 170-20 255-58-6-120-26-182-61 55-97 124-161 202-194zm-1915-387c-60-17-121 20-137 82-16 62 19 126 79 142 59 17 121-19 137-82 16-61-19-125-79-142zm-216-1881c-49-13-100 17-113 68-13 51 16 104 65 118 49 14 100-17 113-68 14-51-15-104-65-118zm1334 168c-36-10-74 12-84 50-10 38 12 77 48 87 37 10 74-12 84-50 10-38-12-77-48-87zm-1634 969c-180-210-417-251-654-114 180 215 417 259 654 114zm-556 283c-219 101-291 293-196 521 222-101 298-291 196-521zm1030-2412c14-276-127-470-385-536-16 279 122 475 385 536zm98 211c-217-249-512-333-822-240 217 253 510 341 822 240zm-1226-170c-43-368-247-656-569-816 40 371 242 662 569 816zm1661-487c94-234 22-432-199-541-98 235-28 436 199 541zm-2224 783c-317-56-594 68-777 340 318 59 596-61 777-340zm256 472c-67 0-122 57-122 127 0 70 55 126 122 126 67 0 122-56 122-126 0-70-55-127-122-127zm-164-117c-191-95-282 52-119 192-199 73-163 243 48 222-91 198 50 292 185 123 70 207 234 169 214-49 191 94 281-53 118-192 200-74 164-244-47-223 91-198-50-292-185-123-71-206-234-169-214 50zm2784 425c-81-23-165 27-187 111-22 85 26 172 107 195 81 22 165-28 187-112 22-84-26-171-107-194zm-161-197c-201-179-356-32-203 191-264 21-274 239-13 285-172 208-31 369 184 210 21 274 230 284 275 14 200 178 355 32 203-192 263-21 273-238 12-284 172-208 31-369-184-211-21-273-230-284-274-13zm-382-857c-66-8-125 41-132 109-7 69 40 130 106 137 65 8 124-41 132-110 7-68-41-129-106-136zm-148-133c-176-113-279 20-135 174-201 49-184 219 23 222-109 183 19 289 168 140 47 209 211 191 214-24 176 113 279-20 135-174 201-49 183-219-24-222 109-183-19-290-167-140-48-209-211-191-214 24zm-737 972c-109-3-200 87-203 200-3 114 83 208 192 211 110 3 201-87 204-200 2-113-84-208-193-211zm-342-232c-250-84-354 128-119 341-327 110-275 387 67 363-156 317 70 475 295 207 106 338 373 285 350-70 306 161 458-72 200-306 326-110 274-388-68-363 156-318-69-476-295-208-99-318-341-290-351 9-390-478-974-743-1612-693-872 68-1587 703-1776 1592-193 929 449 2069 1438 2031 363-17 716-226 879-570 257-556-219-1269-818-1077-354 114-518 462-404 824-68-339 98-645 431-718 454-98 819 445 588 861-228 409-744 477-1124 269-522-288-790-958-674-1550 154-766 744-1313 1484-1425 568-84 1109 104 1509 483zm612 2086c-147-17-280 93-296 246-16 153 90 291 238 307 147 17 280-93 296-246 16-153-90-291-238-307zm-332-298c-395-254-626 44-303 391-452 110-413 491 52 498-244 410 43 650 377 314 106 470 473 428 480-54 395 254 626-44 303-391 452-110 413-491-52-498 244-410-43-650-377-314-106-470-473-428-480 54z"/><path d="m17538 14620c0 0 162-775 455-748 293 27 335 146 292 332-43 186-366 593-500 572 0 0 103 68 290-139 0 0 416-17 393 200-24 217-383 297-743 141 0 0 106 99 202 124 49 295 59 420-128 632-551-291-151-399-240-822-445 955-1232-233-223-264-95-165-417-859-48-921 182-30 298 483 252 688-24 108-2 205-2 205z"/><path d="m19702 13332c0 0-663-327-815-80-152 247-90 351 72 426 162 74 650 59 713-60 0 0-10 122-272 148 0 0-257 318-84 427 173 109 442-127 540-503 0 0 11 142-27 232 24 27 47 53 68 76 13-148 26-296 38-444-10-10-20-22-30-34 11 2 22 4 33 6 14-161 28-321 42-482-45 37-91 84-138 144-66-171-386-834-648-578-129 126 180 519 357 603 94 44 151 119 151 119zm80 42c47-8 91 25 98 74 8 48-24 94-71 101-46 8-90-25-98-73-7-48 24-94 71-102z"/><path d="m19827 14827c-11 126-21 253-31 380-106-174-70-306 31-380zm-69 855l-1 11c-181 185-298 491-353 742 114-4 212 5 295 23-20 284-40 567-58 851-166-92-322-236-482-383 0 0 21 737-376 1014-397 277-599-333-320-735 0 0 425-196 460-293-239 114-1071 692-1155 125-49-331 543-696 1003-680 0 0-170-53-346-14-337-193-183-728-294-882 475-130 833 431 811 887 85-640 163-1045 816-666zm-16 203c-10 134-20 269-30 403-41-57-64-124-50-194 13-62 40-135 80-209zm-119 1710c-7 103-13 205-19 308-39-74-83-144-130-210-51 184 23 349 111 532-8 155-17 310-24 465-267-310-529-700-150-1240 78 45 149 93 212 145zm-517-969c-10 53-59 89-110 79-52-10-86-61-77-114 10-53 59-89 110-79 52 9 86 61 77 114z"/><path d="m19512 20032c-2 168-3 336-5 503-178-189-247-439-196-716 82 62 149 134 201 213zm-18 1586c-3 125-6 250-9 375-28-5-57-3-86 9-77 34-115 126-82 207 26 67 92 105 158 97-4 114-8 228-14 343-91 93-208 21-197-187-234 128-353-51-157-234-252-81-215-295 49-280-124-243 48-367 225-163 27-91 69-145 113-167zm-11 432c-1 47-2 95-4 142-24-3-45-19-55-44-14-36 2-77 37-92 7-4 15-5 22-6zm-41 948c-16 260-37 520-65 778l-219 174c-86 27-183 32-284 9-321-78-513-379-546-705-148 104-276 240-346 414-64 164-68 343-37 515 37 199 114 387 215 562l-74 59c-272-347-446-782-317-1214 90-301 316-519 570-675 54-346 134-742 297-1050-54-47-54-136 3-182 49-39 120-29 157 22 38 50 29 123-20 162-29 23-65 30-98 21-95 302-143 634-168 935 329-150 699-130 932 175zm-1882-780c-23-60-89-88-146-64-57 25-84 93-61 152 24 60 89 88 147 63 57-24 84-92 60-151zm1306-1324c-19-49-73-72-121-52-47 20-69 77-50 126 20 49 74 72 121 52 47-20 70-77 50-126zm-1052 446c52-276-62-496-311-608-54 279 56 501 311 608zm-554-286c-211-118-402-61-518 157 213 121 404 68 518-157zm899 2927c41 253 206 385 452 360-38-256-202-392-452-360zm853-4451c256-260 351-603 277-966-259 259-359 602-277 966zm-569-284c-150-294-414-447-733-432 148 297 410 454 733 432zm69 3895c234-123 532-187 711 62 160 224-36 535-297 491-256-43-386-309-414-553zm-274-3396c-41-56-118-66-171-24-54 43-64 122-23 178 41 55 118 66 172 23 53-42 63-122 22-177zm-10-207c-45-215-212-200-219 20-178-120-285 13-141 174-207 46-193 219 19 227-115 184 13 296 168 147 44 214 211 199 219-20 177 119 285-14 141-175 207-45 192-219-19-227 115-184-14-296-168-146zm665 1244c-64-91-188-112-277-45-88 67-108 195-44 287 65 92 189 112 277 45 88-66 108-195 44-287zm-31-422c-88-257-314-214-333 109-283-202-463 9-236 276-338 65-321 347 21 370-194 293 9 480 267 245 62 350 334 333 355-23 283 202 463-9 237-276 337-65 321-347-22-369 183-276 14-458-220-284 128-612-26-1254-453-1749-583-676-1503-877-2298-492-828 407-1308 1631-676 2421 234 289 609 451 971 376 581-127 836-952 325-1329-303-221-669-145-876 170 218-263 552-313 811-83 352 314 158 945-300 1008-451 62-817-321-890-760-98-606 251-1234 774-1500 679-339 1457-187 1993 354 410 416 596 975 550 1536zm-1221 1774c-77-132-242-174-369-94-126 80-167 252-90 383 77 131 242 173 369 94 127-80 167-252 90-383zm25-455c-47-480-415-488-483-11-360-305-626-41-349 346-462 49-471 432-11 501-294 374-39 651 334 363 47 480 416 488 483 11 360 305 627 41 349-346 463-49 471-432 11-502 294-373 39-650-334-362z"/></g><g fill="#fff" font-family="&apos;Calligraphia One&apos;" stroke-linejoin="round" stroke-linecap="round" stroke-width="500"><text x="10500" y="14850" font-size="2784.1" transform="matrix(1.08884 0 .19432 1.17462 988.5 7405.15)">T2</text><text x="10500" y="14850" font-size="2698.1" transform="matrix(1.08884 0 .19432 1.17462-844 5769.29)">T1</text></g></g><g stroke-linejoin="round" stroke-linecap="round"><g fill="#201e1e" stroke="#201e1e"><g font-family="&apos;Calligraphia One&apos;" stroke-width="75"><text x="10500" y="14850" font-size="2698.1" transform="matrix(1.08884 0 .19432 1.17462-809.37 5861.01)">T1</text><text x="10500" y="14850" font-size="2784.1" transform="matrix(1.08884 0 .19432 1.17462 988.5 7405.15)">T2</text></g><text x="10500" y="14850" font-family="&apos;Arial Rounded MT Bold fed&apos;" font-weight="bold" stroke-width="40" font-size="538.1" transform="matrix(1.13196 0 0 1.17462 2806.13 8877.05)">00.00.0000</text></g><text x="13395" y="14850" fill="#718fc8" font-family="&apos;Arial Rounded MT Bold fed&apos;" stroke="#718fc8" font-weight="bold" stroke-width="40" font-size="538.1" transform="matrix(1.13196 0 0 1.17462 2806.13 8877.05)"/></g><g fill="#201e1e" font-family="&apos;Arial Black&apos;" font-weight="900" font-size="529.17"><text x="10500" y="14850" transform="matrix(1.13196 0 0 1.17462-11.197-8941.37)">NN 1</text><text x="10500" y="14850" transform="matrix(1.13196 0 0 1.17462-6.353-8367.43)">NN 2</text></g></g></g><path d="m14375 26323c-767-398-1023-1204-1110-2040-81-786-89-1590-80-2381 9-880 44-1761 69-2641 28-956 47-1916 8-2871-34-857-114-1743-321-2574-387-1559-1016-3038-1325-4621-94-484-168-974-222-1464-60-546-97-1097-103-1646-13-1351 161-3324 1244-4249 685-584 1561-600 2390-406 1229 287 2395 879 3329 1762 659 623 1183 1373 1535 2225 386 937 542 1940 506 2956-18 521-44 1042-76 1562-90 1474-227 2945-352 4416-141 1656-265 3310-336 4971-19 450-21 904-25 1354-5 536-11 1072-30 1607-23 655-62 1325-163 1972-69 449-190 1030-432 1416-229 366-616 608-1002 762-464 185-985 270-1480 284-657 19-1431-86-2024-394z" fill="none" stroke="#fff" stroke-width="7.62"/><g fill="#373435" font-family="&apos;Arial&apos;" font-weight="normal" font-size="423.33"><text x="501" y="28192">DESC 1</text><text x="501" y="28703">DESC 2</text><text x="501" y="29197">DESC 3</text></g></svg>