<svg xmlns="http://www.w3.org/2000/svg" width="744.09" height="1052.36" viewBox="0 0 21000 29700" shape-rendering="geometricPrecision" image-rendering="optimizeQuality" fill-rule="evenodd" clip-rule="evenodd"><defs><clipPath id="0"><path d="m14474 15999c-489-235-652-711-707-1204-52-464-57-939-52-1405 6-520 28-1040 44-1559 17-564 30-1131 5-1695-22-505-73-1028-205-1519-247-920-648-1793-845-2728-60-286-107-575-142-865-39-322-62-647-65-971-9-797 102-1963 793-2508 437-345 995-354 1524-240 783 170 1527 519 2122 1040 420 368 754 811 978 1313 247 553 346 1146 323 1745-12 307-28 615-49 922-58 870-145 1738-225 2607-90 977-169 1954-214 2934-12 266-13 533-16 800-3 316-7 632-19 948-15 387-40 782-104 1164-44 265-121 608-275 835-146 216-393 359-639 450-296 109-628 159-944 168-419 11-912-51-1290-232z"/></clipPath><clipPath id="1"><path d="m6625 16011c489-235 652-711 707-1204 52-464 57-939 52-1405-6-520-28-1040-44-1559-17-564-30-1131-5-1695 22-505 73-1028 205-1519 247-920 648-1793 845-2728 60-286 107-575 142-865 39-322 62-647 65-971 9-797-102-1963-793-2508-437-345-995-354-1524-240-783 170-1527 519-2122 1040-420 368-754 811-978 1313-247 553-346 1146-323 1745 12 307 28 615 49 922 58 870 145 1738 225 2607 90 977 169 1954 214 2934 12 266 13 533 16 800 3 316 7 632 19 948 15 387 40 782 104 1164 44 265 121 608 275 835 146 216 393 359 639 450 296 109 628 159 944 168 419 11 912-51 1290-232z"/></clipPath></defs><text x="10011" y="19315" fill="#201e1e" font-family="&apos;Arial Black&apos;" stroke="#201e1e" font-weight="900" stroke-width="7.62" font-size="705.56">26</text><g fill="none" stroke-width="80"><g stroke="#322f30"><circle cx="10533" cy="1326" r="460"/><path d="m10533 515v1621"/><path d="m9723 1326h1621"/></g><g stroke="#373435"><path d="m10463 19875v1621"/><circle cx="10463" cy="20686" r="460"/><path d="m9652 20686h1621"/></g></g><g fill="#373435" font-family="&apos;Arial&apos;" font-weight="normal" font-size="423.33"><text x="2424" y="22378">DESC 1</text><text x="2389" y="22982">DESC 2</text><text x="2371" y="23582">DESC 3</text></g><path d="m14474 15999c-489-235-652-711-707-1204-52-464-57-939-52-1405 6-520 28-1040 44-1559 17-564 30-1131 5-1695-22-505-73-1028-205-1519-247-920-648-1793-845-2728-60-286-107-575-142-865-39-322-62-647-65-971-9-797 102-1963 793-2508 437-345 995-354 1524-240 783 170 1527 519 2122 1040 420 368 754 811 978 1313 247 553 346 1146 323 1745-12 307-28 615-49 922-58 870-145 1738-225 2607-90 977-169 1954-214 2934-12 266-13 533-16 800-3 316-7 632-19 948-15 387-40 782-104 1164-44 265-121 608-275 835-146 216-393 359-639 450-296 109-628 159-944 168-419 11-912-51-1290-232z" fill="#fff"/><g clip-path="url(#0)"><g><g fill="#000002" stroke="#000002"><path stroke-width="20" d="m15180 6477h1171v14921h-1171z"/><g stroke-width="7.62"><path d="m10790 13638l64-41c78 73 135 333 74 409l-138-368zm-690-920c62-54 21-72 145-3-12 45-6 65-48 75-112 28-88-48-97-73zm136-106l-71-15c-43-67-61-6-14-172 98-22 70-26 173 32-4 23-6 65-16 85-44 86-6 37-72 71zm212 319l299-821c216 91 576 345 481 626-106 316-479 254-780 195zm-289-973l-170 833c-280-109-588-248-517-566 55-249 454-311 688-267zm148 950c-38-158 174-718 231-924l127 53c-17 155-95 317-149 461-103 279-93 389-209 409zm14-537l-112-40c-19-41-57-9 7-182l181 38c-25 220-44 159-75 184zm-77-331c51-117 84-84 209-78l-30 130c-30 7 20 48-108 6-93-31-56-40-71-58zm227-1060l234 62-49 211c-170-79-244-75-185-272zm17-95c-14-92-26-46 30-153l261 71-34 170c-101-10-182-16-257-88zm83-392l269 71-30 133c-11 3-21-2-29 8l-112-2c-47-11-89-34-132-55l34-156zm1070-306l72 84c722 705-116 1161-700 1118l461-1268 167 65zm-1049-312l-258 1241c-322-141-592-440-537-790 58-370 512-504 796-452zm6 523l-8-44c11-59-11 1 25-75l293 73-21 127c-91 14-215-14-288-81zm331 965l-187-61 359-1325 280 83c-11 177-366 1079-453 1302zm-296-1197l27-137 313 90-44 156c-111-10-234-35-296-108zm66-255c73-62 266-14 313 57-62 81-251-8-313-57zm-484-231l-69-46c4 13 7 21 5 39-2 15 11 50 14 60 73 87 30-4 38 111-185 30-174-86-309-64 1 74 2 12 24 74 31 85 41 6 35 122-118 21-174 6-316-35 19 182 6 13 52 119 12 28 88 27 6 132-91 117-119-39-204 121 70 63 60 22 169 39l18 190c-104 132-62-5-164 175l236-49c51 174 18 186 12 305-1 9-1 18-1 26l3 49c0 5 1 16 4 23l95-135c151 62 142 163 311 229 480 187 118 125 335 179 100 25 79-29 187 68 112 101-50 41 133 76 219 43 78 30 166 98 115 90 22 4 179 51 34 208-40 185 185 224 48 193-6 89 115 233-25 237-141 277 26 389 99-124 20-141 101-256 113 134 103 303-7 478 118 133 19-34 128 72-84 252-126 232-340 206-4 142-8 52 75 166-121 68-46-19-151 24-48 19-99 91-131 120-105-8-106-37-184-29-97 10-26 39-152 53-112-126-239-230-271-300 237 55 237 81 429 17 335-111 62-229 347-152l-30-155 145-61c-6-6-15-22-21-15-7 7-16-11-22-15-136-82-115-42-166-137-50-93-45-120-6-228l-325-146c28-131-3-244-66-313-16 129 22 84-34 209-213-58-173-230-252-353-154 620-260-29-281-211-74 58-30-82-58 109-5 35 11 85 3 167-318-66-122-225-233-394l-16 36c-25 109 3 51-13 172-179-27-176-112-169-288-288-6-288-267-309-310-69 89-16 86-116 79-81-166-41-184 1-427-118 14-84 49-173 17 7-177 132-306 180-511-166 24-58 78-206 79 7-298 139-294 291-387l-46-116c-10-154 106-55 280-121 7-48-143-124 13-206 215-112 707 278 732 320 81 130 16 88 15 95-13 60-125 110-252-95zm-553 3565c-112-63-2 19-40-78-89-29-18-15-121 40-65 34-99 49-162 68-225 67-144 150-288 190 69-265 311-240 429-453 102-72 262 24 337 55 26-81 29-65 18-120-518 19-291-26-435-144-64-53-83-28-176-74-62-70 75-31-136-274-6-7-16-15-21-25 138-12 78 34 145-79-211-99-244-88-180-356 57-14 0 5 103 9l42-1c0-226 76-385 264-407-57 173-53 97-59 190-6 96-16 18 11 87 216-77 92-129 211-320 203-104 259 177 455 284-107 46-252-4-362-10-31 307-302 190-389 214l96 131c-11 12-50 44-52 47-25 27 4-23-56 67 209 67 90 74 137 206 2 6 6 15 9 21 8 16 156 191 172 202 80 54 224 81 313 116 202 80 42 93 291 163 357 100 324 174 361 244 71 135 2 30 108 73 83 33 164 123 112 229-71 145-118-53-184-88-65 37 50 99-102 34 45 92 113 94 221 335 30 68 106 242 177 286 96 58 113 19 113 19 110-179-67-576-138-734 133-64 627-18 834-422 214-419-53-805-147-1022 129-78 277-41 541-203 1043-641 440-1564 395-1757 589-7 1686-521 2053-1328 267-587 138-1001 47-1471-139-718-244-623-881-929-100 55-162 32-217 188-145 410 89 504 370 730 534 429 424 1451-504 1889-557 263-548 165-983 269 67 45 34 39 64 101 44 89 94 142 189 118-34-204-59 21-84-161 78-5 234-51 283-36 108 34 82 106 251 85-20-46-35-53-44-73-36-74-28-2-27-82 311-102 122-81 463 12-27-155-56-62-42-190 271-135 245-22 439-85-25-104-1 16-33-74-10-27-16-2-21-79 82-85 125-126 226-156 7-2 15-3 22-5 6-2 16-4 22-6 56-18 32-7 83-39-21-186 65 155-25-72-89-225-3 76-37-83 116-195 11-84 181-187-15-188-51 35-32-273 11-183-53-579-113-712-138-309-628-318-590-705 271 62-1 230 470 367-14-135 0-91-84-192-50-61-58-71-105-140-182-265-237-74-212-286 98-11 586 180 658 243 116 103 171 399 211 572 304 1312 2 859-108 1290l149-107c-36 362-196 324-331 466 35 50-5 7 82 53l33 15c-151 182-230 254-456 278 12 184 76 26 1 152-94 159-329 140-418 139-44 144 34 248-198 239-151-6-248-101-390-57 20 92 59 49 123 127-210 153-329-16-526-94 23 171 74 72 38 217-166 14-289-354-589-426 0 0-106 5-113-30-3-13-15-14-23-20 100 29 107 36 152 118 26 110-1 96 9 190 150-16 250 43 380 140-30 101-36 13-120 123 54 19 430 131 328 288-49 75 42-25-42 28-198 125-14-49-71 45 101 70 155 84 205 203-51 102-66 30-117 138 51 85 199 288 27 443-40 18 10 62-56-53-41-71 5-46-70-108-61 192-28 382-113 524-127-24-33-23-125-112-122 228-66 307-261 355l-30 37-15-136-63 57c-85 84-240 99-322 39-41-30-264-230-292-265l357-69c38 59 13 0 31 86 5 22 3 54 11 93l196-335 196 172c9-198-21-92-47-245l137-141c92 45 61 114 159 22-48-170-34-59-141-144 68-282 82-65 198-208-179-85-195-23-281-193l40-19c86-46 72-20 109-74-144-109-146 48-278-115 74-150 90-40 152-143-118-34-91 82-387 7 58-176 78-61 110-230-112 36-137 119-306 42-211-96-35-109 20-273-220 61-129 209-493 88 78-98 115-73 195-219-184-5-286 101-511 52 79-129 53-2 101-158-288-14-157 190-563-71 83-165 64-16 159-153-241-50-317 97-485-144 79-93 61-24 144-138-202-43-396 42-492-203 99-35 105 30 170-44-142-161-313-42-480-292 51-184 44 8 74-156-42-48-149-108-194-167-46-60-65-142-110-214l109-85c-138-179-278-302-228-548l93 101c65-212-170-145-23-617 76 58 21 86 101 159 103-399-367-205 543-1117 453-454 455-492 1205-268-118 221-43 16-341 144-102 44-269 73-325 163 233 206 343-79 578-54-168 373-555 88-876 307-125 85-218 210-325 333-69 78-94 113-139 200-141 269-63 62-168 211 40 84 75 96 61 196-17 120-15 64-76 113-212 171 102-160-64 44 53 136 293 275 133 431-6 6-29 23-34 28-4 4-13 12-17 14-3 3-13 8-17 15 327 166 185 105 331 266-40 86-23 39-67 87-86 94 19-69-61 59 73 65 135 20 235 76 49 28 135 154 156 209l-149 38c138 153 135 55 255 81 57 12 149 123 226 176-124 156-22-59-157 98 110 119 144-30 304 26l21-77c-141-168-394-275-684-742-553-888-99-1783 506-1877 197-31 887 38 742-648-582-198-851-219-1236 186-304 320-666 636-785 1229-116 579 55 1005 228 1350 130 259 501 805 795 996-91 106-152 111-244 173-494 337-652 949-337 1552 48 92 109 166 186 250 91 100 171 143 213 250-486 82-1149 744-339 1427l103 102c-88 85-508 331-499 533 43 66-76 17 76 56 131 34 336-180 491-238 60-22 119-23 182-68z"/><path d="m11417 4298c262-228 121 166 690-484 199-227 414-442 766-328 559 180 402 847 556 1145 59 114 205 224 239 322-184 37-235-151-340-229-259 280-323 143-651 4-44 181 19 261 135 370 121 113 293 102 279 235-73 18-1111-269-1310-350-137-56-79-2-93-92 91-76 533 114 651-257-332-79-490 52-546-359-79 15-116 37-188 54-117 27-142 12-188-31zm-1481-1934c253 116 379 108 500 156 136 54 123 73 145 110 463 129 728 386 893 718 66 132 221 383 39 544-120 106-345 94-495 202 58 16 42 4 51 32 352 131-126 294-260 316-231 38-457-12-697-76l-130 406 1388 404c-44 169-116 319-46 447 73 26 44 29 79 65l58 79c176 129-31-56 59 30 109 105-114-6 105 101 7-7 17-29 17-23l83-119-19-255 1095 313c-77 207-261 281-434 300-269 30-381-86-555-228-42 24-127-8-158 95-28 92-27 39 12 97 19 28-70 54 85 28-26-6-67-36-151-10 38 62-95 78 245 116 184 21 640 190 836 239l21-85c288-50 459-244 560-641l1382 401 104-413c-971-307-925-874-710-713l70-23-71-102c-27-33-51-58-75-86-35-41-96-110-123-157-227-402 458-616 717-703 7-2 16-6 22-8 6-2 17-7 22-9l45-21-84-63c219 32 203-70 356 47-27-168 45-42-106-96-91-32-110 38-148-96-179 59-295 71-474 148-263 113-292 205-427 220-105-476-218-896-786-1054-560-155-832 146-1179 485-78-70-102-154-136-230-95-211-318-480-515-617-284-198-987-354-1211-274z"/><path d="m14663 3686c38 134 57 64 148 96 151 53 79-72 106 96-152-117-136-15-356-47l84 63c172 56 405 26 633 104 446 152 890 306 1369 326 279 12 384-47 601-79-118 378-499 318-855 255-186-33-386-84-564-149-186-68-294-145-362-172-40-16-29-15-71-19-66-6-31-8-72 8 199 339 1062 398 1441 489-279 694-1622-443-1761-411 54 285 903 570 1193 666-225 508-1360-492-1457-469 48 183 236 295 420 404 126 74 527 227 597 303-234 272-898-275-1117-474-16-14-56-48-71-54-64-29-53-19-86-13 34 81 48 92 135 163 148 122 449 318 508 426-423 154-780-489-938-469 29 120 112 172 195 245 203 178 189 128 204 258-318 21-285-191-482-252l-70 23c87 80 173 204 287 277 256 163 251 35 399-27 313 169 311 75 529-24 102 46 244 116 358 103 111-13 148-108 223-141 207-91 199 111 509-200l83 3c215 16 266 15 450-362 195 0 242 15 356-116 118-137 158-253 209-431-288 8-690 277-1363 46-636-218-650-426-1414-446z"/><path d="m11068 4126c-9-28 8-16-51-32-206-56-277 135-522-56 69-90 2-50 144-82 42-9 104-19 158-29 131-25 210-9 292-101-128-103-732 254-1036-105 216-108 653-14 852-154-90-126-1266 264-1367-226 234-68 942 232 1229-54-77-76-1541 174-1481-385 299 71 1160 290 1357 75-58-56-590-11-959-70-363-58-819-120-750-527 361 111 1145 532 1474 356l-37-32c-42-23 19-7-66-30-163-45-319 32-958-222-324-129-710-300-616-682 271 208 239 315 777 538 362 150 698 223 1071 321-22-37-9-55-145-110-121-48-246-40-500-156-98-79-522-182-719-318-122-84-371-293-457-426l-36-68c-121-30-28-11-83 20-92 400-73 548 211 726-38 415-26 430 278 581 39 398 214 293 326 457 152 223-116 215 513 356 31 253 167 251 438 307 4 178 98 234 314 223 108-6 292-31 347-96z"/><path d="m11700 9244c-105 31-239-14-364-47l217-819 414 115-267 751zm-708-874l55-138 343 92c80 53 36 3 54 91-61 76 9 55-94 57l-358-103zm-139 358c147-263 67-315 114-554l4 102c2 11 3 22 5 32 2 10 6 22 8 30 2 9 5 21 9 30 5 8 16 9 18 22 1 13 13 16 19 20 94 67 75 41 417 141l-170 617c-12-86-166-62-250-104-157-79-48-11-98-84l-26-34c-35-54-44 80-18-79 19-119-3-30 56-135-33 10-62 85-74 128-36 125 38 4-41 160 50-187 51-126 8-306l-58 260c-193-55-339-173-510-263l-21 77c264 124 111 134 147 248 202-39 413-49 421 223 157-62 52-131 208-57 143 67 10 42 102 196l77-92c81 24 98 15 154 66l87 141c142-199 226-26 305 80l82-75 113 37c-45-82-52-89-152-118 8 7 20 8 23 20 7 35 113 30 113 30l-49-81c0-12-8-14-13-21 164 31 166 65 266 156 81-70-5-108 102-139 71-21 168 12 235 32-31-62 3-56-64-101l-612-54c69-199 142-388 214-590 114-319 77-279 192-354l99-72c-98-145 53-32-54-133 1-96-45-1-40-46 30-249 23-28-33-146l-46 147c-165-10-846-213-998-292-58 44-40 178-57-72l-2-138c-91 114-162 91-180 216-20 138 71 111 79 244 5 83-46 250-65 340l-46 317c0 6 0 18 2 26z"/><path d="m12781 6612c-33 233-140 162-308 113l-942-266-195-94 47-166c87-37 1305 337 1398 414zm-1457-988c29 260 118 258 212 449-114 16-255 36-340 99-161 121-97 277 9 346l69 6c-5-9-10-21-16-31-150-292-63-231 44-295 1 178-44 159-80 187l90 48c8 5 14 9 23 15 81 53 29 38 144 94-122 47 57-44 55 135l204 41c20 62 43 61 8 183 43 16 30-5 31-5l44 20c-58 241-59 473-155 703 76-24 7 10 98-32l113-494c-20-151 5-161 27-222 132-17 457 99 593 156-7 81-99 376-173 479l-64 238c-29 45 19 106-255 14-113-38-124-50-233-56l-60 2 513 146c-73 9-843-261-944-266-182-8-29-44-163 50 56-178 85-378 109-516l-100 281-63 185 2 138c17 250 0 116 57 72 47-152 39-146 190-107 91 23 195 61 287 87 183 53 393 136 567 165 56 118 63-102 33 146-5 45 40-50 40 46 107 101-44-12 54 133 21-10 9 82 54-69 42-145-81-105-55-288 7-48 284-820 332-874 60-67 166-54 282-180 90-167-90-375-224-401-196-49-652-218-836-239-339-38-207-54-245-116 84-26 125 4 151 10-155 26-66 0-85-28-39-58-41-5-12-97 32-103 116-72 158-95-12-58-39-107-88-130l-83 119c0-6-11 16-17 23-218-107 5 3-105-101-90-86 117 99-59-30l-58-79c-35-36-6-39-79-65z"/><path d="m11205 6518c80 221 33 219-57 648l-22 235 100-281c-24 138-53 338-109 516 133-94-20-58 163-50 101 4 871 275 944 266l-513-146 60-2c109 6 120 18 233 56 275 92 226 31 255-14-149-21-431-98-496-158-91 42-23 8-98 32 96-231 97-463 155-703l-44-20c-1 0 11 21-31 5 36-122 12-122-8-183l-204-41c1-179-177-88-55-135-115-56-63-41-144-94-9-6-14-10-23-15l-90-48c36-28 81-9 80-187-107 63-194 3-44 295 6 11 11 22 16 31l-69-6z"/><path d="m9981 13536c18 57 34 51-29 105-32-62-23 5-9-72 26-143-43 26 38-33zm75-145c-28 146-3 20-53 66-64-85-54-111 40-146 18 55 29-3 12 80zm-238-323c-75-31-236-128-337-55 72 13 244 54 300 109 96 94-109 60-158 46 38 97-72 14 40 78l230 6c-39 186-155 555-116 708 303 257 419-317 522-609l219 136c152 64 37 2 102-34-267-61-78-49-185-155-75-73-132-41-242-80-118-42-74-70-186-107-107-35-62 22-189-42z"/><path d="m11184 8732c-250-67-198-78-225-115l21-97c104-37 323 26 400 116-55 182-6 146-197 95zm-332-4l-20-10c43 179 41 118-8 306 79-156 5-35 41-160 12-43 41-118 74-128l376 133c2 128 12 94-56 206l-331-92c49 72-59 5 98 84 84 42 238 19 250 104l170-617c-343-100-323-74-417-141-6-4-18-8-19-20-1-13-13-14-18-22-4-10-7-22-9-30-2-9-6-20-8-30-2-11-3-22-5-32l-4-102c-47 239 33 291-114 554z"/><path d="m10902 8949l38-158c116 34 277 63 354 129l-29 94c-8 2-18 4-23 4-6 0-17 3-24 2l-138-32c-72-21-105-30-179-41zm0 0l26 34 331 92c69-112 59-79 56-206l-376-133c-59 105-37 16-56 135-26 159-17 25 18 79z"/><path d="m11877 7093l56-207 541 159-149 461c74-103 166-398 173-479-136-57-461-173-593-156-22 61-48 71-27 222z"/><path d="m9967 5632c26 28 43 96 130 37 183-123-183-345-130-37z"/><path d="m10668 10108c19 85-59 46 107 102 139 47 103 43 151-28-26-58 77-21-89-79-1 0-88-17-88-17-74 0-35 2-80 21z"/><path d="m14185 6895c3-7 201-183-69-188-47 57-54 91-43 171l112 17z"/><path d="m10490 10886l40-125c30 9 125 31 146 40 139 61 53-2 75 86-76 88 79 77-261-1zm0 0c75 72 156 78 257 88l34-170-261-71c-56 106-44 60-30 153z"/><path d="m10599 10398l24-101c356 102 236 46 248 144-96 19-158-21-273-43zm0 0c73 67 197 96 288 81l21-127-293-73c-36 76-14 15-25 75l8 44z"/><path d="m10165 12596l6-170 108 31c10 103 16 53-42 154 66-34 28 15 72-71 10-20 12-62 16-85-103-58-75-53-173-32-48 166-29 105 14 172z"/><path d="m10210 12331l25-163 143 48-56 155c32-25 50 35 75-184l-181-38c-64 173-25 141-7 182z"/><path d="m11805 11720l63-57 15 136 30-37c-29-124 39-54-52-136l-56 95z"/><path d="m10165 9733c-3-10-16-45-14-60 2-18-1-26-5-39l69 46c-27-53 53-26-82-68-14 118-40 23 32 121z"/></g></g><g stroke-width="7.62"><text x="10500" y="14850" fill="#fff" font-family="&apos;Monotype Corsiva&apos;" stroke="#fff" font-style="italic" font-size="2263.45" transform="matrix(-.00367-.69324.51706-.01218 8376.24 22233.5)">Texto 1</text><g fill="#000002" font-family="&apos;Arial&apos;" stroke="#000002" font-size="423.33"><text x="10500" y="14850" transform="matrix(.72167 0 0 .69339 7750.63-4404.53)">NN 1</text><text x="10500" y="14850" transform="matrix(.72167 0 0 .69339 7736.19-4095.91)">NN 2</text></g></g></g></g><g fill-rule="nonzero"><path d="m13679 1559l-32-104c-5-14-6-25-5-31 1-6 5-11 9-13 3-2 6-2 9-2 3 1 5 3 7 6 1 2 3 9 5 20l19 114c1 7 0 11-3 13-5 3-8 2-9-3m-65 37l-33-103c-4-15-6-25-4-31 1-6 5-11 10-14 3-2 7-2 9-2 3 1 5 3 7 6 1 2 3 9 5 20l19 114c1 7 0 11-3 13-5 3-8 2-9-3zm345-163l-14 4c-4-19-7-34-10-43-4-14-11-23-21-29-10-5-22-6-35-2-20 6-35 19-46 37-11 19-13 37-8 54 3 9 8 17 14 24 7 6 19 14 37 23 33 16 56 30 68 42 12 11 21 23 25 37 6 19 6 40-1 61-7 22-20 42-40 61-20 19-43 33-70 41-26 8-50 8-72 1-22-8-35-19-40-33-2-8-2-15 1-22 3-7 8-11 14-13 6-2 12-1 18 2 3 2 8 8 14 17 7 11 13 19 19 23 6 4 13 7 22 8 9 1 17 0 26-2 26-8 47-24 61-47 14-23 18-45 12-66-2-7-6-14-10-20-5-6-12-13-21-19-7-5-20-12-40-22-20-10-33-17-39-21-8-6-15-13-20-20-5-7-9-15-12-23-5-16-5-34 2-54 6-20 17-37 31-52 15-15 34-26 56-33 11-4 26-6 44-8 10-1 19-2 26-4 0 13 0 24 1 35 1 11 4 32 10 63zm224-21c19-1 35 5 48 19 13 14 21 33 22 59 2 41-10 79-38 113-28 34-59 53-92 55-21 1-38-4-51-16-13-12-21-29-22-52-2-39 7-75 28-110 27-43 62-65 105-68m-23 22c-16 1-31 13-45 36-14 23-20 55-17 94 1 24 7 43 17 56 7 10 17 14 29 14 16-1 30-11 42-31 15-26 22-57 20-94-2-28-7-47-15-59-8-11-19-17-30-16zm46-138l55-3-93 86-17 1 55-84m240 189l-9-11c27-20 48-33 64-38 15-6 28-8 39-7 4 0 7 2 9 3 2 2 3 4 3 6 0 2-1 4-2 9l-19 54c22-19 48-35 79-50 17-8 30-11 40-10 7 1 13 4 17 9 4 5 5 12 4 20-1 6-2 12-5 19-4 12-15 37-32 76-16 36-25 60-26 73 0 4 0 7 1 9 1 2 3 3 5 3 6 1 15-4 28-13 9-7 18-12 28-18l5 11c-20 17-39 30-59 39-13 6-23 9-31 8-7-1-13-4-16-9-3-6-5-14-3-26 2-16 17-56 45-119 9-22 14-36 14-39 1-5-3-9-10-9-8-1-18 2-31 8-19 9-36 21-49 35-9 9-17 24-24 45l-34 94-43-5c11-27 21-52 30-77l37-102c1-4 2-7 2-9 1-5-1-7-5-8-3 0-8 1-14 4-13 6-25 14-36 24zm486 15h20l-36 64c-14 25-29 55-45 89-8 18-13 30-14 36-1 6 0 9 5 10 3 1 8 0 15-2 13-4 26-10 39-17l7 13c-25 14-42 22-49 25-14 5-26 9-38 10-8 1-15 1-22-1-5-1-8-3-10-6-2-3-2-6-2-10 1-3 2-6 5-11l19-34c-20 15-43 27-68 35-15 5-29 7-40 4-11-2-18-8-23-17-6-12-7-26-3-42 4-19 14-39 30-60 16-21 35-39 57-55 22-15 44-25 66-30 17-3 37-3 61 3 6 1 12 3 18 5l9-9zm-44 34c-10-4-18-7-25-9-17-4-33-3-47 4-15 6-30 20-46 41-16 21-26 43-32 66-3 12-3 22 1 28 3 6 8 10 15 12 13 3 28-1 46-11 18-10 33-27 46-51l42-79zm99-116l16 3c-9 15-19 27-32 33-12 7-24 9-35 6-6-1-11-3-15-5-2-1-8-5-17-12-9-7-16-11-18-13-4-2-8-3-12-4-5-1-10-1-14 1-4 2-9 6-15 13l-16-3c8-17 18-28 30-35 11-6 23-8 34-6 8 2 20 8 36 18 14 10 25 15 31 17 6 1 12 1 17-2 5-3 9-6 11-12zm142 139c18 5 32 16 40 33 8 17 9 38 3 63-11 40-35 71-72 95-37 24-72 31-105 23-20-5-34-16-43-32-9-16-10-35-5-56 10-38 30-69 61-95 39-32 79-43 121-31m-29 14c-16-4-34 3-54 20-21 18-36 46-46 84-6 23-6 43-1 59 4 12 12 19 23 22 16 4 32-1 50-17 23-20 39-47 48-83 7-27 8-47 4-60-4-13-12-22-24-25m380 132c-22 16-39 31-50 46-11 14-20 29-26 46-6 15-11 39-16 74 51-14 89-31 115-50 26-19 43-38 50-56 2-5 3-13 2-23-1-10-1-18 1-22 2-4 5-8 9-10 5-2 9-2 14-1 6 2 10 6 11 13 2 6 0 15-4 27-14 37-41 68-82 92-50 30-104 47-164 51 2-9 4-23 7-42 6-39 12-65 17-79 7-18 18-35 34-49 16-14 35-24 57-30-32-11-56-17-72-16-11 1-18 4-21 10-1 2-1 7-1 14 0 5 0 8-1 11-1 3-3 5-6 6-3 1-7 1-10 0-5-2-8-5-10-10-2-5-2-11 1-17 4-10 11-18 21-24 10-6 25-7 44-5 19 2 43 8 71 20 13-1 22 0 25 1 3 1 5 3 7 6 1 3 2 6 1 9-2 5-9 8-22 8zm211 233l4 15c-60 22-105 27-137 14-13-5-21-13-24-24-3-11-1-25 6-44 15-37 42-68 80-95 43-30 82-38 119-23 13 5 21 12 25 21 4 9 4 18 0 29-5 11-13 20-26 28-12 7-31 13-57 16-13 1-39 2-79 3-5 9-10 17-13 25-5 12-6 21-4 28 2 6 7 11 15 14 7 3 16 4 26 4 14 0 36-4 65-11m-78-75c34 0 61-5 81-13 14-6 23-14 27-23 3-7 3-14 1-20-2-6-7-10-13-13-7-3-14-3-22-1-11 3-22 10-33 20-16 15-30 32-41 50m182 14l-4-13c32-9 57-13 74-13 16 0 29 3 39 8 4 2 6 4 7 7 1 2 1 5 0 7-1 1-3 4-5 7l-37 43c27-10 58-16 92-18 18-1 32 1 41 5 7 3 11 8 12 14 2 6 1 13-3 20-3 5-6 10-11 16-8 9-27 29-58 59-28 28-45 47-51 58-2 3-3 6-3 9 0 2 1 4 3 5 5 3 15 2 31-2 11-3 22-5 32-7l1 12c-24 8-47 13-69 15-14 1-25 0-32-4-6-3-10-8-11-15-1-6 1-15 6-25 8-15 36-46 85-94 17-18 26-28 28-32 3-5 1-9-6-12-7-4-17-5-32-3-21 2-41 7-59 15-11 5-25 16-39 33l-65 75-38-20c20-21 38-41 55-61l71-82c3-3 5-6 5-7 2-4 2-7-2-9-3-1-8-2-15-1-14 1-28 4-43 9zm325 296l-2 17c-57 7-99 3-127-12-15-8-23-19-24-33-1-14 3-28 11-44 14-26 36-48 65-67 29-19 58-30 86-33 22-2 43 2 63 13 12 7 21 14 24 23 4 8 4 15 0 22-3 5-7 8-12 9-5 1-11 0-17-3-6-3-12-10-18-20-6-11-13-18-19-22-8-5-18-6-31-3-12 3-28 12-47 29-19 16-34 35-46 56-9 15-12 29-11 41 1 9 5 16 14 20 20 11 49 13 89 7zm171 96l2 15c-63 11-108 8-137-10-11-7-18-17-19-28-1-11 3-25 14-42 21-33 53-60 95-79 48-22 88-23 121-2 11 7 19 16 21 25 3 9 1 19-5 29-6 10-16 18-30 23-14 5-33 7-59 6-13-1-39-4-78-11-7 8-13 15-17 23-7 11-10 20-9 27 1 7 5 12 12 17 7 4 15 7 25 8 14 2 36 2 66 0zm-64-88c33 5 61 6 82 1 15-3 25-9 30-18 4-7 6-13 5-19-1-6-5-11-10-15-6-4-13-5-22-5-11 1-23 6-36 14-18 12-35 26-49 42m486 178l16 12c-25 17-64 47-116 89l-160 131c-3 3-6 6-8 8-3 4-4 8-2 13 2 4 9 13 22 26l-13 10c-14-15-29-29-45-41-15-11-37-26-66-42l12-10c15 10 27 15 35 17 8 1 16 1 25-3 8-3 22-13 41-28l91-75c-28 6-55 7-80 4-19-2-34-7-43-14-8-6-12-14-12-25 0-11 5-23 15-37 25-33 64-56 118-70 54-13 98-7 132 19 7 5 15 13 24 23l16-4zm-58 15c-9-11-17-20-26-26-13-10-28-15-45-15-16 0-36 7-60 20-24 14-43 31-57 50-6 9-10 17-9 24 0 8 4 14 10 18 5 4 14 6 27 7 23 1 43-1 59-6 11-4 28-14 50-32l51-41zm229 158l31 27-85 55c-49 32-76 51-82 56-2 3-3 5-3 8 0 3 1 5 3 6 3 2 6 4 11 5 8 1 24 1 48 0v14c-55 4-89-1-102-13-5-4-7-9-7-15 0-6 2-12 8-19 6-7 16-15 30-25-25 3-52 1-80-5-19-4-33-10-42-18-5-4-8-10-8-15 0-6 3-12 9-19 5-5 11-11 17-16 10-7 30-21 61-40 39-25 62-41 68-48 3-4 4-7 1-10-3-2-7-4-14-6-7-1-20-2-39-2l-3-15c34 0 58 2 73 6 15 4 25 8 31 14 3 3 5 7 5 11 0 4-2 9-7 14-8 10-34 29-78 57-39 26-61 41-65 46-3 3-4 6-4 10 0 4 1 7 4 9 8 7 25 11 51 11 26 0 49-6 68-18l99-65zm65 278l-2 15c-64-2-108-15-132-38-10-10-14-20-13-31 1-11 8-24 22-38 28-28 64-47 109-58 51-12 91-5 119 23 10 10 15 19 15 29 1 10-3 19-11 27-8 9-20 14-34 16-14 2-34 0-59-7-12-4-37-12-74-27-8 6-15 12-22 19-9 9-14 17-15 24-1 7 2 13 8 19 6 6 13 10 23 14 13 5 35 9 64 14zm-44-99c31 12 58 18 80 18 15 0 26-4 34-12 5-6 8-12 9-18 0-6-2-12-7-17-5-5-12-8-20-9-11-1-24 1-38 6-21 8-39 19-57 31zm160 78l3-14c26 2 48 6 66 13 18 7 30 14 37 22 3 3 4 6 4 9 0 3-1 5-3 7-3 2-9 6-18 10-15 7-26 13-34 18 64 5 105 16 121 34 4 5 6 10 6 14 0 5-3 10-9 15-6 5-17 12-35 20 31 1 56 5 73 11 18 6 30 12 36 19 5 6 8 12 8 18 0 6-4 12-11 19-4 4-10 7-17 11-7 4-29 14-66 30-46 21-72 34-79 40-5 4-5 8-2 12 2 3 6 5 10 6 13 3 28 5 45 7l-1 14c-5-1-15-2-30-4-20-3-33-5-40-7-12-4-21-9-26-15-4-4-5-10-4-17 1-7 5-14 12-20 7-6 15-12 26-18 11-6 36-18 75-36 30-13 47-22 52-27 5-4 5-8 1-13-3-4-9-7-18-10-18-6-36-8-54-7-12 1-28 6-47 15-42 21-76 38-102 53l-28-31 155-81c11-6 17-9 19-11 2-2 3-3 3-6 0-2-1-4-3-6-3-4-12-7-25-10-22-5-41-7-56-5-15 2-33 9-56 21l-84 46-28-31 120-64c35-18 54-29 56-31 3-3 3-5 1-8-5-6-23-10-54-13zm328 406l3-14c33 8 56 17 70 25 14 8 24 17 30 25 2 3 3 7 3 9 0 3-1 5-3 6-1 1-4 2-8 4l-54 20c28 5 58 15 89 30 16 8 27 16 33 25 4 6 5 12 4 18-1 6-6 11-13 16-5 3-11 6-18 8-12 4-38 12-79 23-38 10-63 19-73 26-3 2-5 4-6 6-1 2-1 4 0 6 3 5 12 9 27 13 11 3 21 6 31 10l-5 11c-25-5-48-12-68-21-13-6-21-12-26-19-4-6-5-12-3-18 2-6 8-12 18-19 14-9 54-22 120-40 23-7 36-12 39-14 5-3 5-7 1-13-4-6-13-13-26-19-20-9-39-14-59-16-13-1-29 2-51 10l-94 33-24-36c28-8 54-17 78-26l102-36c4-1 7-3 8-4 4-3 5-6 3-9-2-3-6-5-12-8-13-6-27-10-42-13zm304 381l12 16-72 13c-29 5-61 12-97 22-20 5-32 9-37 12-5 3-7 6-4 10 1 3 5 6 12 10 11 7 24 14 38 19l-5 13c-27-11-44-18-50-22-13-7-23-15-32-23-6-5-10-11-13-17-2-4-3-8-2-12 1-3 3-6 7-8 2-1 6-2 11-3l38-7c-24-6-48-16-70-31-14-9-23-18-29-29-5-10-6-19-2-28 5-12 16-21 30-29 17-9 39-14 66-15 26-1 52 2 78 9 26 7 47 18 65 32 13 11 25 27 37 49 3 6 5 11 7 17l13 1zm-54-12c-3-10-6-18-9-25-8-15-19-27-33-34-14-7-34-11-60-10-26 1-50 7-71 18-11 6-18 12-21 18-3 6-3 13 0 19 6 12 19 21 38 29 19 7 42 8 68 3l88-18m152 3l7 14c-18 3-33 2-46-3-13-5-22-13-27-24-3-5-5-10-6-15-1-3-1-9-1-21 0-12-1-19-1-22-1-4-2-8-4-12-2-5-6-8-10-10-4-2-11-3-20-3l-7-14c18-4 34-4 46 1 12 5 21 12 26 23 4 8 7 21 9 39 2 17 4 29 7 35 3 6 7 10 12 12 5 3 11 3 16 1zm-13 197c8 17 8 35-1 52-8 17-24 31-47 42-37 17-77 18-119 4-42-14-70-36-84-67-8-19-9-37-3-53 7-17 20-30 41-39 35-16 73-20 112-12 49 10 83 35 100 74zm-29-14c-7-15-23-25-50-30-27-5-58 1-94 17-22 10-37 22-46 36-6 10-7 21-3 32 7 15 21 24 44 28 30 5 61 0 95-15 25-11 42-23 49-35 8-12 9-23 4-34zm5 449l-13 11c-47-33-76-65-86-95-5-16-4-29 5-40 8-11 21-19 38-25 28-9 59-11 93-5 34 6 63 17 86 34 18 13 30 31 37 52 4 13 5 25 3 33-3 9-7 14-14 16-5 2-11 1-15-1-5-3-8-7-10-14-2-6-2-16 0-27 3-12 3-22 0-29-3-9-10-17-21-23-11-6-29-10-54-10-25-1-49 3-72 10-17 5-28 13-35 23-5 7-7 15-4 24 7 21 27 43 61 65zm217 137c5 18 2 35-9 51-11 16-28 27-53 34-40 11-79 6-118-15-39-21-63-47-72-80-5-20-3-38 6-53 9-16 25-26 46-32 38-10 75-8 113 6 47 18 76 47 87 89m-27-18c-4-16-19-28-45-37-26-9-58-8-96 2-23 6-40 16-51 28-8 9-11 20-8 31 4 16 17 27 39 35 28 10 61 10 96 1 27-7 45-16 54-27 9-11 13-22 10-33zm-170 222l-8-42 77 5c38 3 74 4 107 5 8 0 13 0 15 0 4-1 6-3 5-7-1-3-3-7-8-12-5-5-16-14-34-26l8-11c22 14 40 30 53 46 13 16 20 29 22 39 1 3 0 6-1 8-1 2-3 4-5 4-2 0-9 0-20 0l-51-3c33 13 61 30 86 50 12 10 19 18 20 26 1 6 0 11-2 15-3 4-7 7-11 8-5 1-9 0-14-3-4-3-10-11-18-25-7-13-15-23-23-31-8-8-20-15-35-23-15-8-28-13-38-15-10-2-34-4-71-6l-55-2zm30 175l-5-43 77 11c38 5 73 9 107 12 8 1 13 1 15 1 4-1 6-3 5-7 0-3-3-7-7-12-5-5-15-15-32-29l8-10c21 16 38 33 50 50 12 17 18 31 19 40 0 3 0 6-1 8-1 2-3 3-5 4-2 0-9 0-20-1l-51-6c32 16 59 34 83 56 11 10 18 19 19 27 1 6 0 11-4 15-3 4-7 7-12 7-5 1-9-1-13-4-4-3-9-12-16-26-6-14-13-24-21-32-8-8-19-17-33-26-15-9-27-15-37-18-10-3-34-6-70-11l-55-6zm100 267l-11 11c-47-43-73-81-76-114-1-14 2-24 10-32 8-8 22-13 41-15 39-4 80 5 121 26 47 24 72 55 76 94 1 14-1 24-7 32-6 8-14 12-26 13-12 1-24-2-36-10-12-8-26-22-41-43-7-11-20-33-40-68-10-1-20-1-29 0-13 1-22 4-27 9-5 5-7 11-6 20 1 8 4 16 9 25 7 12 20 29 40 52zm30-104c16 30 33 51 49 65 12 9 23 14 33 13 8-1 14-4 18-8 4-5 6-11 5-17-1-7-4-14-10-20-8-8-19-15-33-20-21-7-42-11-63-13zm144 489l4 19-70-22c-28-9-60-17-96-25-20-4-33-7-38-7-6 0-9 2-9 7 0 3 2 8 6 15 7 12 15 23 25 34l-11 9c-19-22-30-36-34-42-8-12-14-24-18-35-3-7-4-15-4-21 0-5 1-9 3-11 2-2 6-4 10-4 3 0 7 1 11 2l37 12c-19-17-35-37-49-60-8-14-13-27-12-39 0-11 4-20 12-26 10-8 24-12 40-12 20 0 41 6 65 17 24 11 46 26 65 44 19 18 34 38 43 58 7 16 10 36 10 60 0 6 0 12-1 19l11 7zm-43-36c2-10 3-19 3-26 0-17-4-32-13-45-9-13-26-25-49-36-24-11-47-17-71-17-13 0-22 2-27 6-6 4-8 10-8 17 0 13 7 27 20 43 14 15 34 27 59 34l86 24m74 178l15 47-77-24-2 59-20-5 3-59-91-29c-28-9-47-14-58-15-5 0-9 1-11 3-2 2-4 5-4 9 0 6 3 15 9 28 8 16 18 32 29 47l-13 10c-29-43-46-72-53-87-6-14-9-26-9-35 0-7 3-13 8-17 5-4 13-6 25-5 13 1 33 5 60 14l109 34 2-47 20 6-2 47 61 19zm-283 150l2-43 74 24c36 12 70 22 103 31 8 2 13 3 15 3 4 0 6-2 7-6 0-3-2-7-5-14-4-6-13-17-27-34l10-8c18 19 32 39 40 58 9 19 13 33 12 43 0 3-1 6-3 8-2 2-4 3-6 3-2 0-9-2-19-5l-49-15c28 21 52 44 72 69 9 12 14 22 14 30 0 6-2 11-6 14-4 4-8 5-13 5-5 0-9-2-12-6-3-4-7-13-11-29-4-14-9-26-15-36-6-9-16-19-28-31-13-11-24-19-34-24-10-5-32-12-68-22l-53-15m221 333l3 20-69-25c-27-10-59-20-95-30-20-5-32-8-38-8-6 0-9 2-9 7 0 3 1 8 5 15 6 12 14 24 23 35l-11 9c-18-23-29-37-32-44-7-13-13-25-16-36-2-8-3-15-3-22 0-5 2-9 4-11 2-2 6-3 10-3 3 0 6 1 11 3l37 14c-18-18-33-38-46-62-8-14-11-28-11-39 1-11 5-19 13-25 11-8 24-11 41-10 20 1 41 8 65 20 23 12 45 28 63 47 19 19 32 39 40 60 6 16 9 36 7 60 0 6-1 12-2 19l10 8zm-41-38c3-10 4-19 4-26 1-17-3-33-11-46-8-13-24-26-47-38-23-12-47-19-70-20-13-1-22 1-27 5-6 4-9 10-9 17-1 13 5 28 18 44 13 16 32 28 58 37l85 29zm151 26l-3 55-75-102 1-17 77 64m-126 192c-1 17-5 30-12 39-7 9-15 13-23 13-5 0-9-3-13-7-3-4-5-9-5-15 0-4 1-7 3-9 2-3 6-6 13-11 13-9 19-18 20-27 1-8-2-15-7-22-5-6-12-10-21-10-8 0-15 1-22 4-7 3-19 12-36 27-23 20-44 29-64 28-19-1-36-11-50-29-14-18-19-41-18-68 1-23 7-40 17-50 10-11 21-15 34-15 6 0 12 3 16 7 4 5 6 10 5 16 0 5-2 10-6 13-4 4-8 5-12 5-2 0-4 0-7-1-2 0-4 0-6-1-6 0-11 2-16 7-5 5-7 12-8 21-1 10 0 20 3 28 3 8 8 15 14 19 7 5 13 8 20 8 7 0 13-1 20-5 7-4 18-12 35-26 23-19 44-27 64-26 18 1 33 10 46 26 13 16 18 36 17 59zm14 134l18-4c13 17 23 28 31 34 8 5 15 8 23 9 4 0 10-2 19-6 7-3 13-5 19-4 8 0 14 3 18 8 4 5 6 11 6 18 0 7-4 14-9 18-6 5-13 7-22 6-15-1-31-7-48-19-16-12-34-32-55-60m-10 143l18-4c12 17 23 28 31 34 8 5 15 8 23 9 4 0 10-2 19-6 7-3 13-5 19-4 8 1 14 3 18 8 4 5 6 11 6 18-1 7-4 14-10 18-6 5-13 7-22 6-15-1-31-7-48-19-16-12-34-32-54-61z" fill="#000002"/><path d="m13679 1559l-32-104c-5-14-6-25-5-31 1-6 5-11 9-13 3-2 6-2 9-2 3 1 5 3 7 6 1 2 3 9 5 20l19 114c1 7 0 11-3 13-5 3-8 2-9-3zm-65 37l-33-103c-4-15-6-25-4-31 1-6 5-11 10-14 3-2 7-2 9-2 3 1 5 3 7 6 1 2 3 9 5 20l19 114c1 7 0 11-3 13-5 3-8 2-9-3zm345-163l-14 4c-4-19-7-34-10-43-4-14-11-23-21-29-10-5-22-6-35-2-20 6-35 19-46 37-11 19-13 37-8 54 3 9 8 17 14 24 7 6 19 14 37 23 33 16 56 30 68 42 12 11 21 23 25 37 6 19 6 40-1 61-7 22-20 42-40 61-20 19-43 33-70 41-26 8-50 8-72 1-22-8-35-19-40-33-2-8-2-15 1-22 3-7 8-11 14-13 6-2 12-1 18 2 3 2 8 8 14 17 7 11 13 19 19 23 6 4 13 7 22 8 9 1 17 0 26-2 26-8 47-24 61-47 14-23 18-45 12-66-2-7-6-14-10-20-5-6-12-13-21-19-7-5-20-12-40-22-20-10-33-17-39-21-8-6-15-13-20-20-5-7-9-15-12-23-5-16-5-34 2-54 6-20 17-37 31-52 15-15 34-26 56-33 11-4 26-6 44-8 10-1 19-2 26-4 0 13 0 24 1 35 1 11 4 32 10 63zm224-21c19-1 35 5 48 19 13 14 21 33 22 59 2 41-10 79-38 113-28 34-59 53-92 55-21 1-38-4-51-16-13-12-21-29-22-52-2-39 7-75 28-110 27-43 62-65 105-68zm-23 22c-16 1-31 13-45 36-14 23-20 55-17 94 1 24 7 43 17 56 7 10 17 14 29 14 16-1 30-11 42-31 15-26 22-57 20-94-2-28-7-47-15-59-8-11-19-17-30-16zm46-138l55-3-93 86-17 1 55-84zm240 189l-9-11c27-20 48-33 64-38 15-6 28-8 39-7 4 0 7 2 9 3 2 2 3 4 3 6 0 2-1 4-2 9l-19 54c22-19 48-35 79-50 17-8 30-11 40-10 7 1 13 4 17 9 4 5 5 12 4 20-1 6-2 12-5 19-4 12-15 37-32 76-16 36-25 60-26 73 0 4 0 7 1 9 1 2 3 3 5 3 6 1 15-4 28-13 9-7 18-12 28-18l5 11c-20 17-39 30-59 39-13 6-23 9-31 8-7-1-13-4-16-9-3-6-5-14-3-26 2-16 17-56 45-119 9-22 14-36 14-39 1-5-3-9-10-9-8-1-18 2-31 8-19 9-36 21-49 35-9 9-17 24-24 45l-34 94-43-5c11-27 21-52 30-77l37-102c1-4 2-7 2-9 1-5-1-7-5-8-3 0-8 1-14 4-13 6-25 14-36 24zm486 15h20l-36 64c-14 25-29 55-45 89-8 18-13 30-14 36-1 6 0 9 5 10 3 1 8 0 15-2 13-4 26-10 39-17l7 13c-25 14-42 22-49 25-14 5-26 9-38 10-8 1-15 1-22-1-5-1-8-3-10-6-2-3-2-6-2-10 1-3 2-6 5-11l19-34c-20 15-43 27-68 35-15 5-29 7-40 4-11-2-18-8-23-17-6-12-7-26-3-42 4-19 14-39 30-60 16-21 35-39 57-55 22-15 44-25 66-30 17-3 37-3 61 3 6 1 12 3 18 5l9-9zm-44 34c-10-4-18-7-25-9-17-4-33-3-47 4-15 6-30 20-46 41-16 21-26 43-32 66-3 12-3 22 1 28 3 6 8 10 15 12 13 3 28-1 46-11 18-10 33-27 46-51l42-79zm99-116l16 3c-9 15-19 27-32 33-12 7-24 9-35 6-6-1-11-3-15-5-2-1-8-5-17-12-9-7-16-11-18-13-4-2-8-3-12-4-5-1-10-1-14 1-4 2-9 6-15 13l-16-3c8-17 18-28 30-35 11-6 23-8 34-6 8 2 20 8 36 18 14 10 25 15 31 17 6 1 12 1 17-2 5-3 9-6 11-12zm142 139c18 5 32 16 40 33 8 17 9 38 3 63-11 40-35 71-72 95-37 24-72 31-105 23-20-5-34-16-43-32-9-16-10-35-5-56 10-38 30-69 61-95 39-32 79-43 121-31zm-29 14c-16-4-34 3-54 20-21 18-36 46-46 84-6 23-6 43-1 59 4 12 12 19 23 22 16 4 32-1 50-17 23-20 39-47 48-83 7-27 8-47 4-60-4-13-12-22-24-25zm380 132c-22 16-39 31-50 46-11 14-20 29-26 46-6 15-11 39-16 74 51-14 89-31 115-50 26-19 43-38 50-56 2-5 3-13 2-23-1-10-1-18 1-22 2-4 5-8 9-10 5-2 9-2 14-1 6 2 10 6 11 13 2 6 0 15-4 27-14 37-41 68-82 92-50 30-104 47-164 51 2-9 4-23 7-42 6-39 12-65 17-79 7-18 18-35 34-49 16-14 35-24 57-30-32-11-56-17-72-16-11 1-18 4-21 10-1 2-1 7-1 14 0 5 0 8-1 11-1 3-3 5-6 6-3 1-7 1-10 0-5-2-8-5-10-10-2-5-2-11 1-17 4-10 11-18 21-24 10-6 25-7 44-5 19 2 43 8 71 20 13-1 22 0 25 1 3 1 5 3 7 6 1 3 2 6 1 9-2 5-9 8-22 8zm211 233l4 15c-60 22-105 27-137 14-13-5-21-13-24-24-3-11-1-25 6-44 15-37 42-68 80-95 43-30 82-38 119-23 13 5 21 12 25 21 4 9 4 18 0 29-5 11-13 20-26 28-12 7-31 13-57 16-13 1-39 2-79 3-5 9-10 17-13 25-5 12-6 21-4 28 2 6 7 11 15 14 7 3 16 4 26 4 14 0 36-4 65-11zm-78-75c34 0 61-5 81-13 14-6 23-14 27-23 3-7 3-14 1-20-2-6-7-10-13-13-7-3-14-3-22-1-11 3-22 10-33 20-16 15-30 32-41 50zm182 14l-4-13c32-9 57-13 74-13 16 0 29 3 39 8 4 2 6 4 7 7 1 2 1 5 0 7-1 1-3 4-5 7l-37 43c27-10 58-16 92-18 18-1 32 1 41 5 7 3 11 8 12 14 2 6 1 13-3 20-3 5-6 10-11 16-8 9-27 29-58 59-28 28-45 47-51 58-2 3-3 6-3 9 0 2 1 4 3 5 5 3 15 2 31-2 11-3 22-5 32-7l1 12c-24 8-47 13-69 15-14 1-25 0-32-4-6-3-10-8-11-15-1-6 1-15 6-25 8-15 36-46 85-94 17-18 26-28 28-32 3-5 1-9-6-12-7-4-17-5-32-3-21 2-41 7-59 15-11 5-25 16-39 33l-65 75-38-20c20-21 38-41 55-61l71-82c3-3 5-6 5-7 2-4 2-7-2-9-3-1-8-2-15-1-14 1-28 4-43 9zm325 296l-2 17c-57 7-99 3-127-12-15-8-23-19-24-33-1-14 3-28 11-44 14-26 36-48 65-67 29-19 58-30 86-33 22-2 43 2 63 13 12 7 21 14 24 23 4 8 4 15 0 22-3 5-7 8-12 9-5 1-11 0-17-3-6-3-12-10-18-20-6-11-13-18-19-22-8-5-18-6-31-3-12 3-28 12-47 29-19 16-34 35-46 56-9 15-12 29-11 41 1 9 5 16 14 20 20 11 49 13 89 7zm171 96l2 15c-63 11-108 8-137-10-11-7-18-17-19-28-1-11 3-25 14-42 21-33 53-60 95-79 48-22 88-23 121-2 11 7 19 16 21 25 3 9 1 19-5 29-6 10-16 18-30 23-14 5-33 7-59 6-13-1-39-4-78-11-7 8-13 15-17 23-7 11-10 20-9 27 1 7 5 12 12 17 7 4 15 7 25 8 14 2 36 2 66 0zm-64-88c33 5 61 6 82 1 15-3 25-9 30-18 4-7 6-13 5-19-1-6-5-11-10-15-6-4-13-5-22-5-11 1-23 6-36 14-18 12-35 26-49 42zm486 178l16 12c-25 17-64 47-116 89l-160 131c-3 3-6 6-8 8-3 4-4 8-2 13 2 4 9 13 22 26l-13 10c-14-15-29-29-45-41-15-11-37-26-66-42l12-10c15 10 27 15 35 17 8 1 16 1 25-3 8-3 22-13 41-28l91-75c-28 6-55 7-80 4-19-2-34-7-43-14-8-6-12-14-12-25 0-11 5-23 15-37 25-33 64-56 118-70 54-13 98-7 132 19 7 5 15 13 24 23l16-4zm-58 15c-9-11-17-20-26-26-13-10-28-15-45-15-16 0-36 7-60 20-24 14-43 31-57 50-6 9-10 17-9 24 0 8 4 14 10 18 5 4 14 6 27 7 23 1 43-1 59-6 11-4 28-14 50-32l51-41zm229 158l31 27-85 55c-49 32-76 51-82 56-2 3-3 5-3 8 0 3 1 5 3 6 3 2 6 4 11 5 8 1 24 1 48 0v14c-55 4-89-1-102-13-5-4-7-9-7-15 0-6 2-12 8-19 6-7 16-15 30-25-25 3-52 1-80-5-19-4-33-10-42-18-5-4-8-10-8-15 0-6 3-12 9-19 5-5 11-11 17-16 10-7 30-21 61-40 39-25 62-41 68-48 3-4 4-7 1-10-3-2-7-4-14-6-7-1-20-2-39-2l-3-15c34 0 58 2 73 6 15 4 25 8 31 14 3 3 5 7 5 11 0 4-2 9-7 14-8 10-34 29-78 57-39 26-61 41-65 46-3 3-4 6-4 10 0 4 1 7 4 9 8 7 25 11 51 11 26 0 49-6 68-18l99-65zm65 278l-2 15c-64-2-108-15-132-38-10-10-14-20-13-31 1-11 8-24 22-38 28-28 64-47 109-58 51-12 91-5 119 23 10 10 15 19 15 29 1 10-3 19-11 27-8 9-20 14-34 16-14 2-34 0-59-7-12-4-37-12-74-27-8 6-15 12-22 19-9 9-14 17-15 24-1 7 2 13 8 19 6 6 13 10 23 14 13 5 35 9 64 14zm-44-99c31 12 58 18 80 18 15 0 26-4 34-12 5-6 8-12 9-18 0-6-2-12-7-17-5-5-12-8-20-9-11-1-24 1-38 6-21 8-39 19-57 31zm160 78l3-14c26 2 48 6 66 13 18 7 30 14 37 22 3 3 4 6 4 9 0 3-1 5-3 7-3 2-9 6-18 10-15 7-26 13-34 18 64 5 105 16 121 34 4 5 6 10 6 14 0 5-3 10-9 15-6 5-17 12-35 20 31 1 56 5 73 11 18 6 30 12 36 19 5 6 8 12 8 18 0 6-4 12-11 19-4 4-10 7-17 11-7 4-29 14-66 30-46 21-72 34-79 40-5 4-5 8-2 12 2 3 6 5 10 6 13 3 28 5 45 7l-1 14c-5-1-15-2-30-4-20-3-33-5-40-7-12-4-21-9-26-15-4-4-5-10-4-17 1-7 5-14 12-20 7-6 15-12 26-18 11-6 36-18 75-36 30-13 47-22 52-27 5-4 5-8 1-13-3-4-9-7-18-10-18-6-36-8-54-7-12 1-28 6-47 15-42 21-76 38-102 53l-28-31 155-81c11-6 17-9 19-11 2-2 3-3 3-6 0-2-1-4-3-6-3-4-12-7-25-10-22-5-41-7-56-5-15 2-33 9-56 21l-84 46-28-31 120-64c35-18 54-29 56-31 3-3 3-5 1-8-5-6-23-10-54-13zm328 406l3-14c33 8 56 17 70 25 14 8 24 17 30 25 2 3 3 7 3 9 0 3-1 5-3 6-1 1-4 2-8 4l-54 20c28 5 58 15 89 30 16 8 27 16 33 25 4 6 5 12 4 18-1 6-6 11-13 16-5 3-11 6-18 8-12 4-38 12-79 23-38 10-63 19-73 26-3 2-5 4-6 6-1 2-1 4 0 6 3 5 12 9 27 13 11 3 21 6 31 10l-5 11c-25-5-48-12-68-21-13-6-21-12-26-19-4-6-5-12-3-18 2-6 8-12 18-19 14-9 54-22 120-40 23-7 36-12 39-14 5-3 5-7 1-13-4-6-13-13-26-19-20-9-39-14-59-16-13-1-29 2-51 10l-94 33-24-36c28-8 54-17 78-26l102-36c4-1 7-3 8-4 4-3 5-6 3-9-2-3-6-5-12-8-13-6-27-10-42-13zm304 381l12 16-72 13c-29 5-61 12-97 22-20 5-32 9-37 12-5 3-7 6-4 10 1 3 5 6 12 10 11 7 24 14 38 19l-5 13c-27-11-44-18-50-22-13-7-23-15-32-23-6-5-10-11-13-17-2-4-3-8-2-12 1-3 3-6 7-8 2-1 6-2 11-3l38-7c-24-6-48-16-70-31-14-9-23-18-29-29-5-10-6-19-2-28 5-12 16-21 30-29 17-9 39-14 66-15 26-1 52 2 78 9 26 7 47 18 65 32 13 11 25 27 37 49 3 6 5 11 7 17l13 1zm-54-12c-3-10-6-18-9-25-8-15-19-27-33-34-14-7-34-11-60-10-26 1-50 7-71 18-11 6-18 12-21 18-3 6-3 13 0 19 6 12 19 21 38 29 19 7 42 8 68 3l88-18zm152 3l7 14c-18 3-33 2-46-3-13-5-22-13-27-24-3-5-5-10-6-15-1-3-1-9-1-21 0-12-1-19-1-22-1-4-2-8-4-12-2-5-6-8-10-10-4-2-11-3-20-3l-7-14c18-4 34-4 46 1 12 5 21 12 26 23 4 8 7 21 9 39 2 17 4 29 7 35 3 6 7 10 12 12 5 3 11 3 16 1zm-13 197c8 17 8 35-1 52-8 17-24 31-47 42-37 17-77 18-119 4-42-14-70-36-84-67-8-19-9-37-3-53 7-17 20-30 41-39 35-16 73-20 112-12 49 10 83 35 100 74zm-29-14c-7-15-23-25-50-30-27-5-58 1-94 17-22 10-37 22-46 36-6 10-7 21-3 32 7 15 21 24 44 28 30 5 61 0 95-15 25-11 42-23 49-35 8-12 9-23 4-34zm5 449l-13 11c-47-33-76-65-86-95-5-16-4-29 5-40 8-11 21-19 38-25 28-9 59-11 93-5 34 6 63 17 86 34 18 13 30 31 37 52 4 13 5 25 3 33-3 9-7 14-14 16-5 2-11 1-15-1-5-3-8-7-10-14-2-6-2-16 0-27 3-12 3-22 0-29-3-9-10-17-21-23-11-6-29-10-54-10-25-1-49 3-72 10-17 5-28 13-35 23-5 7-7 15-4 24 7 21 27 43 61 65zm217 137c5 18 2 35-9 51-11 16-28 27-53 34-40 11-79 6-118-15-39-21-63-47-72-80-5-20-3-38 6-53 9-16 25-26 46-32 38-10 75-8 113 6 47 18 76 47 87 89zm-27-18c-4-16-19-28-45-37-26-9-58-8-96 2-23 6-40 16-51 28-8 9-11 20-8 31 4 16 17 27 39 35 28 10 61 10 96 1 27-7 45-16 54-27 9-11 13-22 10-33zm-170 222l-8-42 77 5c38 3 74 4 107 5 8 0 13 0 15 0 4-1 6-3 5-7-1-3-3-7-8-12-5-5-16-14-34-26l8-11c22 14 40 30 53 46 13 16 20 29 22 39 1 3 0 6-1 8-1 2-3 4-5 4-2 0-9 0-20 0l-51-3c33 13 61 30 86 50 12 10 19 18 20 26 1 6 0 11-2 15-3 4-7 7-11 8-5 1-9 0-14-3-4-3-10-11-18-25-7-13-15-23-23-31-8-8-20-15-35-23-15-8-28-13-38-15-10-2-34-4-71-6l-55-2zm30 175l-5-43 77 11c38 5 73 9 107 12 8 1 13 1 15 1 4-1 6-3 5-7 0-3-3-7-7-12-5-5-15-15-32-29l8-10c21 16 38 33 50 50 12 17 18 31 19 40 0 3 0 6-1 8-1 2-3 3-5 4-2 0-9 0-20-1l-51-6c32 16 59 34 83 56 11 10 18 19 19 27 1 6 0 11-4 15-3 4-7 7-12 7-5 1-9-1-13-4-4-3-9-12-16-26-6-14-13-24-21-32-8-8-19-17-33-26-15-9-27-15-37-18-10-3-34-6-70-11l-55-6zm100 267l-11 11c-47-43-73-81-76-114-1-14 2-24 10-32 8-8 22-13 41-15 39-4 80 5 121 26 47 24 72 55 76 94 1 14-1 24-7 32-6 8-14 12-26 13-12 1-24-2-36-10-12-8-26-22-41-43-7-11-20-33-40-68-10-1-20-1-29 0-13 1-22 4-27 9-5 5-7 11-6 20 1 8 4 16 9 25 7 12 20 29 40 52zm30-104c16 30 33 51 49 65 12 9 23 14 33 13 8-1 14-4 18-8 4-5 6-11 5-17-1-7-4-14-10-20-8-8-19-15-33-20-21-7-42-11-63-13zm144 489l4 19-70-22c-28-9-60-17-96-25-20-4-33-7-38-7-6 0-9 2-9 7 0 3 2 8 6 15 7 12 15 23 25 34l-11 9c-19-22-30-36-34-42-8-12-14-24-18-35-3-7-4-15-4-21 0-5 1-9 3-11 2-2 6-4 10-4 3 0 7 1 11 2l37 12c-19-17-35-37-49-60-8-14-13-27-12-39 0-11 4-20 12-26 10-8 24-12 40-12 20 0 41 6 65 17 24 11 46 26 65 44 19 18 34 38 43 58 7 16 10 36 10 60 0 6 0 12-1 19l11 7zm-43-36c2-10 3-19 3-26 0-17-4-32-13-45-9-13-26-25-49-36-24-11-47-17-71-17-13 0-22 2-27 6-6 4-8 10-8 17 0 13 7 27 20 43 14 15 34 27 59 34l86 24zm74 178l15 47-77-24-2 59-20-5 3-59-91-29c-28-9-47-14-58-15-5 0-9 1-11 3-2 2-4 5-4 9 0 6 3 15 9 28 8 16 18 32 29 47l-13 10c-29-43-46-72-53-87-6-14-9-26-9-35 0-7 3-13 8-17 5-4 13-6 25-5 13 1 33 5 60 14l109 34 2-47 20 6-2 47 61 19zm-283 150l2-43 74 24c36 12 70 22 103 31 8 2 13 3 15 3 4 0 6-2 7-6 0-3-2-7-5-14-4-6-13-17-27-34l10-8c18 19 32 39 40 58 9 19 13 33 12 43 0 3-1 6-3 8-2 2-4 3-6 3-2 0-9-2-19-5l-49-15c28 21 52 44 72 69 9 12 14 22 14 30 0 6-2 11-6 14-4 4-8 5-13 5-5 0-9-2-12-6-3-4-7-13-11-29-4-14-9-26-15-36-6-9-16-19-28-31-13-11-24-19-34-24-10-5-32-12-68-22l-53-15zm221 333l3 20-69-25c-27-10-59-20-95-30-20-5-32-8-38-8-6 0-9 2-9 7 0 3 1 8 5 15 6 12 14 24 23 35l-11 9c-18-23-29-37-32-44-7-13-13-25-16-36-2-8-3-15-3-22 0-5 2-9 4-11 2-2 6-3 10-3 3 0 6 1 11 3l37 14c-18-18-33-38-46-62-8-14-11-28-11-39 1-11 5-19 13-25 11-8 24-11 41-10 20 1 41 8 65 20 23 12 45 28 63 47 19 19 32 39 40 60 6 16 9 36 7 60 0 6-1 12-2 19l10 8zm-41-38c3-10 4-19 4-26 1-17-3-33-11-46-8-13-24-26-47-38-23-12-47-19-70-20-13-1-22 1-27 5-6 4-9 10-9 17-1 13 5 28 18 44 13 16 32 28 58 37l85 29zm151 26l-3 55-75-102 1-17 77 64zm-126 192c-1 17-5 30-12 39-7 9-15 13-23 13-5 0-9-3-13-7-3-4-5-9-5-15 0-4 1-7 3-9 2-3 6-6 13-11 13-9 19-18 20-27 1-8-2-15-7-22-5-6-12-10-21-10-8 0-15 1-22 4-7 3-19 12-36 27-23 20-44 29-64 28-19-1-36-11-50-29-14-18-19-41-18-68 1-23 7-40 17-50 10-11 21-15 34-15 6 0 12 3 16 7 4 5 6 10 5 16 0 5-2 10-6 13-4 4-8 5-12 5-2 0-4 0-7-1-2 0-4 0-6-1-6 0-11 2-16 7-5 5-7 12-8 21-1 10 0 20 3 28 3 8 8 15 14 19 7 5 13 8 20 8 7 0 13-1 20-5 7-4 18-12 35-26 23-19 44-27 64-26 18 1 33 10 46 26 13 16 18 36 17 59zm14 134l18-4c13 17 23 28 31 34 8 5 15 8 23 9 4 0 10-2 19-6 7-3 13-5 19-4 8 0 14 3 18 8 4 5 6 11 6 18 0 7-4 14-9 18-6 5-13 7-22 6-15-1-31-7-48-19-16-12-34-32-55-60zm-10 143l18-4c12 17 23 28 31 34 8 5 15 8 23 9 4 0 10-2 19-6 7-3 13-5 19-4 8 1 14 3 18 8 4 5 6 11 6 18-1 7-4 14-10 18-6 5-13 7-22 6-15-1-31-7-48-19-16-12-34-32-54-61z" fill="none" stroke="#000002" stroke-width="50"/></g><path d="m6625 16011c489-235 652-711 707-1204 52-464 57-939 52-1405-6-520-28-1040-44-1559-17-564-30-1131-5-1695 22-505 73-1028 205-1519 247-920 648-1793 845-2728 60-286 107-575 142-865 39-322 62-647 65-971 9-797-102-1963-793-2508-437-345-995-354-1524-240-783 170-1527 519-2122 1040-420 368-754 811-978 1313-247 553-346 1146-323 1745 12 307 28 615 49 922 58 870 145 1738 225 2607 90 977 169 1954 214 2934 12 266 13 533 16 800 3 316 7 632 19 948 15 387 40 782 104 1164 44 265 121 608 275 835 146 216 393 359 639 450 296 109 628 159 944 168 419 11 912-51 1290-232z" fill="#fff"/><g clip-path="url(#1)"><g fill="#000002" stroke="#000002"><g stroke-width="7.62"><path d="m6392 12679l55-37c63 72 103 318 48 388l-103-351zm-550-888c55-49 21-67 123 2-12 43-7 61-43 70-96 23-73-48-79-72zm119-96l-60-17c-34-65-52-7-6-163 84-18 60-23 145 35-4 21-7 61-16 79-40 79-7 35-64 65zm168 307l282-765c179 92 474 342 384 604-101 295-414 226-666 161zm-209-926l-174 781c-232-111-488-252-417-550 56-234 395-280 590-232zm91 901c-26-150 172-672 228-865l105 54c-20 146-92 296-142 431-97 260-93 364-191 380zm31-506l-93-41c-14-39-48-10 12-171l152 41c-29 206-43 149-70 171zm-53-314c47-109 74-77 179-68l-30 122c-26 5 15 46-92 3-78-32-46-39-58-57zm230-993l196 65-49 198c-140-79-203-78-147-263zm18-89c-8-88-20-45 31-143l218 74-35 159c-85-13-153-20-214-91zm84-367l224 75-30 125c-9 2-17-2-24 7l-95-5c-39-12-74-35-109-56l34-146zm915-257l58 82c585 687-140 1092-631 1034l435-1183 138 67zm-875-325l-263 1164c-267-142-485-433-426-761 62-347 451-460 688-402zm-14 493l-5-42c11-56-10 1 23-70l245 78-22 119c-77 11-181-20-241-85zm245 920l-155-63 351-1239 234 86c-16 167-348 1007-429 1215zm-207-1138l28-129 261 94-43 146c-93-12-196-40-246-111zm65-239c64-57 226-5 263 63-55 75-212-15-263-63zm-400-233l-56-45c3 12 5 20 2 37-2 14 8 47 10 57 58 85 25-3 28 106-157 23-144-87-259-70-2 70 1 12 18 70 23 81 34 7 25 116-101 16-147 1-266-42 10 172 4 12 40 114 9 27 73 28 0 125-81 107-99-40-177 109 57 62 50 23 142 41l8 179c-93 121-52-6-145 160l201-39c37 166 9 176-1 288-1 8-2 17-2 25l1 46c0 5 0 15 2 22l85-124c125 63 114 158 254 225 399 191 95 121 277 179 84 27 68-25 155 70 91 99-43 37 110 76 184 47 64 31 136 98 94 88 19 5 150 53 21 197-41 174 148 217 34 183-8 83 89 223-30 223-129 258 8 368 88-114 22-132 95-239 90 130 76 289-23 451 95 129 17-32 106 71-80 235-114 215-294 184-9 134-9 49 57 159-104 61-38-19-128 18-41 17-86 83-115 109-88-10-89-38-155-33-82 7-23 36-131 46-90-122-193-224-218-291 198 59 197 83 362 29 287-95 61-214 298-133l-20-147 125-53c-5-6-12-21-17-15-6 6-13-11-18-15-112-81-96-43-135-134-39-90-34-115 4-215l-269-147c28-123 7-230-44-297-18 122 16 80-36 196-178-61-138-222-200-340-152 580-219-35-230-207-65 52-22-79-53 101-6 33 6 80-3 158-266-72-95-215-183-378l-15 34c-25 102 1 49-17 161-151-31-145-111-133-276-243-15-234-260-250-302-62 82-17 81-101 71-62-159-28-175 16-403-101 10-72 43-146 11 12-167 123-285 171-476-141 18-52 72-176 69 17-281 128-274 260-356l-34-110c-3-146 92-49 241-106 7-45-117-122 19-194 186-99 587 283 607 323 63 125 11 84 9 90-13 56-109 101-210-97zm-595 3347c-92-63-2 18-31-75-74-30-15-14-104 34-56 30-85 43-139 59-193 57-127 137-250 170 68-248 271-218 379-414 89-65 220 31 283 62 25-76 27-61 20-112-439 3-245-33-362-149-52-51-69-29-146-75-50-68 64-27-105-262-5-7-13-15-17-24 117-8 64 34 125-70-175-100-203-90-139-342 49-12-1 5 87 11l36 1c8-213 78-361 238-376-54 161-48 90-57 177-9 91-14 17 6 83 185-67 83-119 190-296 175-92 213 175 375 282-92 40-213-11-305-20-37 288-262 170-336 190l77 126c-10 11-44 40-45 42-22 25 4-21-50 62 174 69 74 73 109 199 2 6 5 14 7 20 6 16 125 185 138 196 66 53 186 83 261 119 167 81 33 89 240 162 298 105 268 174 296 241 55 130 0 28 89 72 69 34 134 120 87 219-65 135-98-53-152-89-56 33 39 95-87 29 35 88 92 92 175 323 23 65 81 232 139 275 79 58 95 21 95 21 99-165-36-546-90-696 115-57 530 2 720-373 196-389-16-761-88-969 112-70 236-31 465-176 904-574 428-1462 397-1646 497 11 1443-442 1782-1192 247-546 152-940 92-1386-92-681-184-595-711-903-87 49-138 25-190 171-137 383 57 478 287 699 436 420 306 1381-494 1768-480 232-469 139-840 225 55 44 27 37 51 97 34 85 74 137 156 117-21-194-50 18-65-154 66-3 199-41 241-25 90 35 65 103 209 88-15-44-27-51-35-70-27-71-24-3-20-78 266-87 106-73 390 25-17-147-45-60-29-181 234-119 207-14 374-68-17-99-1 15-26-71-7-26-14-3-15-75 72-78 110-115 197-140 6-2 13-2 19-4 6-2 13-3 19-5 48-16 28-6 72-35-11-176 49 148-18-69-67-215-5 72-29-79 105-181 12-79 160-171-6-178-44 32-17-258 16-172-24-548-70-675-106-296-519-319-473-683 227 66-9 217 384 360-7-128 3-86-64-184-40-59-47-69-84-135-144-255-197-77-169-276 83-8 489 187 547 249 95 100 130 382 158 545 210 1246-29 811-137 1214l130-97c-43 341-177 300-296 430 27 48-4 6 67 52l27 15c-134 167-203 233-395 249 3 174 63 27-4 143-85 147-283 122-358 119-42 134 20 235-176 220-127-10-206-103-327-65 14 87 48 48 99 123-183 138-278-25-441-105 14 162 60 70 24 206-141 9-232-343-482-419 0 0-90 2-94-31-2-12-12-13-18-20 83 30 89 37 124 116 18 104-5 90 1 179 128-10 209 48 316 143-29 94-31 11-106 113 45 19 358 136 267 281-44 70 36-22-36 25-171 112-10-47-62 40 83 69 128 84 166 198-47 95-57 26-104 126 40 82 158 277 7 419-35 15 6 59-45-52-32-69 5-43-55-104-59 179-38 360-114 491-106-26-27-23-102-109-112 212-67 288-233 327l-26 34-8-129-55 52c-75 77-206 86-273 27-33-30-215-225-237-258l304-55c30 56 11 1 23 82 3 21 0 51 6 88l178-310 159 168c15-187-14-87-31-232l121-129c76 45 48 110 134 25-34-162-26-57-114-140 68-264 71-59 174-191-148-85-164-27-231-190l35-17c74-41 61-16 94-67-117-107-125 41-231-117 68-139 78-35 133-130-98-35-80 75-328-5 55-164 68-55 101-214-96 31-120 108-260 31-175-96-26-104 27-257-188 51-116 193-420 69 70-90 99-65 173-201-155-10-246 87-433 34 72-119 45 0 91-146-243-22-139 174-473-83 76-153 54-13 140-140-202-54-271 82-404-150 70-85 52-21 127-126-169-47-336 28-409-206 85-30 88 31 145-36-114-156-263-49-395-290 50-172 37 9 69-145-33-47-122-106-158-164-37-58-50-136-86-206l95-77c-110-173-224-293-173-524l75 98c62-198-138-141 3-583 62 57 15 82 79 153 101-373-303-205 499-1038 399-415 402-450 1027-218-108 205-37 13-293 125-88 38-229 61-280 144 189 202 292-64 490-34-155 347-472 66-751 264-109 77-191 192-287 304-61 72-83 104-125 185-128 250-55 56-150 194 30 81 60 93 44 187-19 113-15 60-68 105-185 155 92-148-55 40 40 130 238 268 97 411-5 6-25 20-30 25-4 3-12 11-15 13-3 3-11 7-15 14 270 167 152 105 270 261-37 80-21 36-60 80-76 86 18-65-54 54 59 63 113 23 196 79 40 27 109 149 124 201l-127 32c111 148 112 55 213 84 48 13 121 121 184 173-110 143-16-56-136 88 89 116 123-24 256 33l21-72c-113-163-323-271-552-720-435-854-19-1685 494-1756 168-23 748 62 650-590-485-204-711-232-1051 139-268 293-585 580-707 1136-119 543 10 949 144 1280 100 248 395 775 636 963-81 97-133 100-212 156-430 304-585 876-340 1454 37 88 87 160 148 242 73 97 139 140 171 242-413 63-998 668-338 1336l83 99c-78 78-441 298-440 488 34 63-64 13 62 55 110 36 290-160 423-210 51-19 102-18 156-58z"/><path d="m7256 3887c230-208 96 160 601-436 176-208 366-405 659-287 466 187 309 811 429 1097 46 109 165 217 191 311-157 29-193-149-279-226-229 257-278 126-550-16-44 169 6 247 101 353 98 110 244 105 227 230-62 15-929-286-1094-369-114-57-67-5-76-90 79-69 447 123 559-223-277-85-416 35-449-354-67 12-99 32-161 45-99 22-120 7-158-35zm-1182-1868c210 117 316 113 417 162 113 55 101 72 118 108 386 136 601 386 729 704 51 126 173 368 13 515-105 97-294 78-425 176 49 17 35 5 42 32 292 134-117 274-231 290-197 29-386-25-586-92l-124 379 1158 423c-43 158-110 297-55 420 60 27 36 29 64 64l46 76c144 127-24-54 49 30 89 102-96-9 85 99 6-6 16-27 15-21l74-110-7-241 914 328c-72 193-230 257-377 270-228 20-319-92-460-231-36 21-107-11-137 85-27 86-24 36 7 92 15 27-61 49 71 29-22-7-55-36-127-14 30 60-83 71 203 117 155 25 534 198 698 250l21-79c245-39 397-216 496-588l1153 419 103-386c-810-318-750-852-574-694l60-20-56-98c-21-32-41-56-60-83-28-40-77-107-98-152-178-386 409-568 631-642 6-2 14-5 19-7 5-2 15-6 19-8l39-19-69-62c184 36 174-60 299 55-17-160 40-39-86-94-76-33-94 33-122-95-153 51-252 59-406 126-226 99-254 185-368 195-72-452-152-852-626-1017-467-163-708 113-1013 422-64-68-81-149-107-221-73-202-251-462-413-597-233-195-821-363-1013-295z"/><path d="m10020 3405c28 128 46 62 122 95 126 55 69-66 86 94-125-115-115-18-299-55l69 62c143 58 341 36 531 116 372 157 741 315 1145 348 235 19 326-33 510-57-113 353-433 285-731 215-156-37-323-91-471-157-155-69-243-146-300-173-34-16-24-15-59-20-55-7-26-8-61 6 156 326 883 406 1199 504-261 647-1354-466-1473-440 36 270 743 564 984 664-209 472-1131-504-1214-485 34 174 188 285 341 393 104 73 437 230 493 304-207 250-748-286-927-480-13-14-46-47-58-53-53-29-44-19-72-15 26 77 37 88 108 158 120 119 368 313 414 417-363 133-641-484-775-470 20 114 89 166 156 237 165 174 155 126 163 250-270 11-234-189-398-252l-60 20c71 78 139 198 232 270 210 162 211 41 338-13 258 169 260 80 448-7 84 47 202 117 299 108 94-9 129-97 193-126 178-80 164 111 438-174l70 5c181 21 224 22 393-328 165 6 204 21 305-99 105-125 142-234 192-401-243-1-592 241-1153 3-529-224-534-421-1179-462z"/><path d="m6967 3714c-6-27 7-15-42-32-172-59-239 119-439-68 62-83 4-47 125-73 36-8 89-14 134-22 112-20 178-2 251-87-105-101-628 218-871-130 186-95 552 6 726-120-72-122-1079 212-1147-254 200-57 787 247 1040-14-62-74-1308 118-1237-407 250 75 970 308 1144 111-47-55-498-28-808-94-304-65-687-138-615-519 301 115 949 536 1233 380l-30-32c-35-23 16-6-54-31-136-47-271 20-801-238-270-131-589-304-496-661 221 204 191 304 637 531 301 153 582 231 893 335-17-35-6-52-118-108-100-49-207-45-417-162-80-77-434-187-596-321-100-82-303-287-371-416l-28-65c-101-31-24-11-71 16-92 375-81 515 152 691-47 390-37 405 214 557 19 377 170 283 259 441 121 214-106 199 421 351 17 240 132 242 359 302-3 168 74 224 257 219 92-2 248-20 297-80z"/><path d="m7318 8561c-90 26-201-20-306-55l212-767 346 121-253 701zm-567-846l51-129 287 97c66 52 31 4 42 88-54 70 6 52-81 51l-299-108zm-131 334c134-243 68-295 116-519v97c1 10 2 21 3 31 1 10 4 21 5 29 1 8 4 20 6 29 4 8 13 9 14 21 1 12 10 16 15 20 77 66 62 41 348 145l-166 577c-7-81-138-63-207-106-130-79-40-12-80-82l-21-32c-28-52-40 74-13-75 20-112-1-28 52-125-28 8-55 79-67 118-35 117 32 5-40 150 49-175 48-118 18-288l-58 244c-161-58-280-173-422-263l-21 72c219 125 89 130 115 238 172-31 351-34 347 223 135-53 48-122 178-48 118 68 7 40 79 188l69-85c67 25 82 17 127 67l68 136c127-184 192-18 255 85l72-68 94 38c-35-79-41-85-124-116 6 7 17 8 18 20 5 33 94 31 94 31l-38-78c1-11-7-14-10-21 137 34 138 66 219 155 71-64 0-102 91-128 61-17 142 16 197 37-24-60 4-53-51-97l-515-69c66-185 134-362 202-550 107-297 75-261 175-329l86-65c-77-140 46-29-41-127 4-90-38-3-32-45 34-234 20-26-23-139l-44 137c-139-14-707-226-833-305-50 40-40 167-46-70l3-130c-81 105-140 81-160 199-22 130 56 107 58 232 1 78-48 234-67 318l-50 297c0 6 0 17 1 25z"/><path d="m8325 6110c-36 219-124 149-264 97l-786-279-162-95 46-155c74-33 1091 357 1166 432zm-1196-975c16 246 91 247 163 429-97 12-217 26-291 84-140 110-92 258-5 327l58 8c-4-9-8-20-12-30-117-279-45-220 48-277-5 168-43 148-74 174l74 48c7 5 11 9 19 15 67 52 23 36 118 93-105 40 49-40 42 129l171 45c15 59 35 59 0 173 36 16 25-4 27-4l36 20c-58 225-67 444-156 659 65-20 6 10 84-27l113-462c-12-143 10-152 31-208 112-12 383 107 495 165-9 77-97 352-163 447l-63 222c-27 42 13 101-216 6-94-39-103-51-195-60h-51l428 153c-62 7-703-271-788-279-154-13-23-43-139 42 54-166 85-354 111-483l-95 262-60 173-3 130c6 237-4 109 46 70 45-142 38-137 164-96 76 25 162 63 239 91 152 56 327 140 473 172 43 113 57-95 23 139-6 42 36-46 32 45 87 98-37-13 41 127 18-9 5 78 48-64 41-136-64-101-36-274 7-46 269-765 312-815 53-62 142-46 244-162 82-155-62-357-175-385-164-52-543-225-698-250-285-46-173-57-203-117 72-22 105 7 127 14-132 20-56-2-71-29-31-56-34-6-7-92 31-97 101-64 137-85-8-55-29-102-70-126l-74 110c0-5-9 15-15 21-181-108 4 3-85-99-73-84 95 97-49-30l-46-76c-28-35-4-37-64-64z"/><path d="m6997 5974c60 211 20 208-71 610l-27 221 95-262c-26 129-57 318-111 483 116-85-15-55 139-42 85 7 726 285 788 279l-428-153h51c92 8 101 21 195 60 229 95 190 36 216-6-125-24-361-105-414-164-79 37-20 7-84 27 90-215 98-434 156-659l-36-20c-1 0 9 20-27 4 35-114 15-114 0-173l-171-45c8-169-146-88-42-129-95-56-52-40-118-93-7-6-12-10-19-15l-74-48c31-26 69-6 74-174-93 57-164-3-48 277 4 10 9 21 12 30l-58-8z"/><path d="m5712 12559c13 55 27 49-28 98-25-59-20 4-5-68 27-134-37 23 33-30zm68-135c-29 137-3 18-47 60-51-82-42-107 39-137 13 52 24-2 8 76zm-190-312c-63-31-194-127-283-62 61 14 205 58 250 112 77 92-94 53-136 39 29 93-61 12 31 75l194 12c-40 174-151 519-123 664 247 251 366-286 463-559l180 134c126 65 31 3 87-29-223-66-64-49-151-152-60-72-110-43-201-83-99-43-60-69-153-107-89-36-53 19-158-46z"/><path d="m6900 8063c-209-70-165-79-186-115l22-90c89-32 272 34 334 122-53 170-10 137-170 84zm-280-14l-16-10c30 170 31 113-18 288 72-145 6-33 40-150 12-40 39-110 67-118l313 137c-3 120 7 89-55 193l-276-97c39 70-50 3 80 82 70 42 200 25 207 106l166-577c-286-104-271-79-348-145-5-4-15-8-15-20-1-12-10-13-14-21-3-9-5-21-6-29-1-8-4-19-5-29-1-10-2-20-3-31v-97c-48 224 17 276-116 519z"/><path d="m6655 8259l38-148c97 35 232 68 295 132l-28 88c-7 1-15 4-20 3-5 0-14 2-20 2l-115-35c-60-22-88-31-150-44zm0 0l21 32 276 97c62-104 52-72 55-193l-313-137c-54 97-32 14-52 125-27 149-15 23 13 75z"/><path d="m7544 6537l55-193 451 166-142 431c66-95 154-371 163-447-112-58-383-177-495-165-21 57-43 66-31 208z"/><path d="m5983 5103c21 27 33 92 108 39 159-111-142-331-108-39z"/><path d="m6415 9346c13 81-51 42 86 100 116 48 85 43 128-22-20-55 66-17-73-77-1 0-74-18-74-19-63-2-29 1-68 17z"/><path d="m9502 6419c3-7 177-167-52-179-42 52-49 84-43 160l94 19z"/><path d="m6237 10074l38-117c25 9 105 33 122 42 115 61 45 0 60 83-68 81 64 75-221-8zm0 0c61 70 129 78 214 91l35-159-218-74c-51 98-39 56-31 143z"/><path d="m6346 9618l24-94c297 106 198 51 205 143-82 15-133-25-229-49zm0 0c59 66 163 96 241 85l22-119-245-78c-33 70-12 14-23 70l5 42z"/><path d="m5901 11678l11-160 90 33c5 98 12 50-41 144 57-30 23 15 64-65 9-19 12-58 16-79-85-57-61-53-145-35-46 155-28 98 6 163z"/><path d="m5948 11429l27-153 119 49-53 145c28-23 41 35 70-171l-152-41c-60 161-27 132-12 171z"/><path d="m7318 10900l55-52 8 129 26-34c-20-118 35-49-39-130l-50 88z"/><path d="m6004 8977c-2-10-12-43-10-57 3-17 0-25-2-37l56 45c-21-50 46-23-67-67-16 111-34 21 23 115z"/></g><g font-family="&apos;Monotype Corsiva&apos;" font-style="italic" stroke-width="50"><text x="10500" y="14850" font-size="1441.51" transform="matrix(.72168 0 0 .69339-4020.24 4808.58)">Contbeis</text><text x="10500" y="14850" font-size="875.16" transform="matrix(.73357 0 0 .69339-3735.28 5477.65)">Texto 2</text></g><g font-family="&apos;Arial&apos;" stroke-width="7.62" font-size="423.33"><text x="10500" y="14850" transform="matrix(.72168 0 0 .69339-2629.3 3367.43)">NN 1</text><text x="10500" y="14850" transform="matrix(.72168 0 0 .69339-2643.73 3676.05)">NN 2</text></g></g></g></svg>