<svg xmlns="http://www.w3.org/2000/svg" width="744.09" height="1052.36" viewBox="0 0 21000 29700" shape-rendering="geometricPrecision" image-rendering="optimizeQuality" fill-rule="evenodd" clip-rule="evenodd"><defs><clipPath id="0"><path d="m14413 25329c1197 595 3472 480 4162-619 688-1096 538-4261 603-5785 163-3816 577-6710 684-9788 119-3417-2150-5732-4883-6313-3756-798-3557 4429-3082 7065 280 1452 763 2716 1116 4136 651 2618 72 6684 298 9410 116 942 478 1555 1102 1894"/></clipPath><clipPath id="1"><path d="m6708 25329c-1196 595-3471 480-4161-619-688-1096-538-4261-603-5785-163-3816-577-6710-684-9788-119-3417 2150-5732 4883-6313 3756-798 3557 4429 3082 7065-280 1452-763 2716-1116 4136-651 2618-72 6684-298 9410-116 942-478 1555-1103 1894"/></clipPath></defs><text x="10081" y="24465" fill="#201e1e" font-family="&apos;Arial Black&apos;" stroke="#201e1e" font-weight="900" stroke-width="7.62" font-size="705.56">36</text><g fill="none" stroke="#373435" stroke-width="80"><circle cx="10533" cy="1326" r="460"/><path d="m10533 515v1621"/><path d="m9723 1326h1621"/><circle cx="10533" cy="25836" r="460"/><path d="m10533 25026v1621"/><path d="m9723 25836h1621"/></g><rect x="9843" y="22866" width="1347" height="637" rx="318" fill="#fff" stroke="#fff" stroke-width="20"/><g fill="#201e1e" font-family="&apos;Arial&apos;" font-size="423.33"><text x="300" y="28462">DESC 1</text><text x="281" y="28926">DESC 2</text><text x="278" y="29422">DESC 3</text></g><g clip-path="url(#0)"><g><g><g/><g/></g><g fill="#201e1e" stroke="#201e1e"><g stroke-linejoin="round" stroke-linecap="round"><path d="m18135 16684c46 34 47 64 71 116h-240c59-53 91-63 169-116zm-3732 0c44 4 128 66 173 97 29 21 9 5 25 19h-241c13-27 36-85 43-116zm-439 58l5 4c-1 0-6-3-5-4zm3747-29c0-37 22-3 8 0 0 0-8 40-8 0zm-2870 0c0-37 22-3 8 0 0 0-8 40-8 0zm3379-29l200 70c80 31 96 21 111 60-60-29-185-14-269-14-4-54-22-77-42-116zm-3930 116c-103 0-185-6-269 14v-29c101-2 205-73 325-101-18 28-47 80-56 116zm4043-145c91 0 204-17 241 87l-241-87zm-481 0h213l-198 130c0-64 7-84-15-130zm-3350 0h198v130c-33-22-57-39-95-62l-79-50c-29-20-8-4-24-18zm-509 87c39-111 178-87 240-87l-240 87zm4439-145h-141c36-52 116-96 141 0zm-594-58l119 52c2 1 6 4 9 6h-128v-58zm-3562 58h-142c25-96 105-52 142 0zm325 0c3-2 7-8 9-6 2 4 10-5 18-10l100-42c-7 83-36 58-127 58zm3478-44l30 8-30-8zm99 29l-29-58c71 0 74-2 128-14-25 33-62 47-99 72zm-99-29c-64-1-72-5-99-43 27 2 45 4 60 10 39 16 24-5 39 33zm-3620 15c31-47 60-53 128-58-26 35-78 46-128 58zm-169-58c54 12 56 14 127 14l-29 58c-53-29-64-20-98-72zm3435-117l13 30c2 3 3 7 5 11 26 68 67 315 67 366h-28c0-200-57-322-57-407zm-2884 0c0 18-55 363-85 407 0-65 18-156 31-215 6-27 10-61 18-98 0-1 11-41 12-45l24-49zm3125-72c11 44 9 26 31 69l39 76c-213 0-199 20-129-88 33-51-5-40 59-57zm-3436 145c15-59 55-86 71-145h28c34 131 207 145-99 145zm3732-87zm-3958 0zm3732-44c45 13 24 12 74 41l36 21c24 13 33 15 58 28l58 41c-56 0-120 9-154-15-23-16-57-87-72-116zm-339-29c31 37 27 25 28 87-16-24 0 23-19-38-10-33-6-7-9-49zm-2856 87c0-73-13-57 28-87-3 42 3 15-9 49-17 52-7 21-19 38zm-537 73l226-131c-87 133-16 131-226 131zm3958-87c-41-10-154-63-169-102 43 22 52 15 113 15 24 46 32 49 56 87zm-466 29c-2-76-15-56-28-116h127c-19 28-73 98-99 116zm-3125-116h128c-17 35-27 63-29 116-40-28-71-74-99-116zm-367 87c25-38 32-41 56-87 62 0 70 7 113-15-13 35-131 93-169 102zm3351-189c10 13 20 23 29 43 11 27 12 30 13 73-2-3-5-11-6-9 0 3-4-7-5-8-33-56-30-43-31-99zm410-58c42 23 68 54 84 102h-127c7-87 23-25 43-102zm-3196 174c2-61 8-90 43-116-5 54-1 24-14 59-1 2-10 24-13 30-13 25-6 13-16 27zm-367-174c14 55 27 37 42 102h-127c11-43 39-89 85-102zm3223 44c55 4 88 23 113 58-27 0-55 4-78-7-41-19-24-30-35-51zm-2997 58c25-35 58-54 113-58-18 69-33 58-113 58zm198-87c0 68 0 27-14 43 0-69-1-27 14-43zm2700-15c44 33 23-9 29 58-22-25-20-18-29-58zm-2785 15l4 4c0 0-5-3-4-4zm3110 43c-14-54-14-19-28-73h85c-25 49-11 41-57 73zm-155-73c68 2 46-3 71 44-41-11-44-19-71-44zm-170 15l-16-28 16 28zm-2700 15c9-41 7-33 28-59-5 68 15 26-28 59zm-226 14c15-58 4-42 70-44-29 27-29 31-70 44zm-142-44h85c-14 54-14 19-28 73-46-32-32-24-57-73zm3026-72c30 22 18 2 28 43-31-22-17-2-28-43zm-2630 43c10-41-2-21 28-43-9 41 3 22-28 43zm2771-130h43c6 74 10 19 28 87h-99c17-34 24-38 28-87zm-141 87l-16-28 16 28zm-2602 0l8-31-8 31zm-155-87c17 34 24 38 28 87h-99c61-94 30-70 71-87zm3011 14c22 12 33 18 55 32l58 41h-84c-8-28-9-23-12-31l-17-42zm-297 15c15-16 54 23 16 7 0 0-39 17-16-7zm-2544 0l4 4c0 0-6-3-4-4zm-297 58h-85l113-73c-16 63-27 24-28 73zm2898-131h85c-12 54-24 41-28 102-48-36-34-50-57-102zm-2715 0h85c-14 65-28 47-42 102l-43-102zm2981 5c76-5 85-9 102 53l-102-53zm-3277 53c33-51 16-58 99-58-35 31-46 46-99 58zm3265-217c10 37 25 52 43 87h-99c10-41 28-66 56-87zm-3138 0c28 21 46 46 56 87h-99c18-35 33-50 43-87zm2813 29c17 9 28 13 46 25 16 12 27 22 39 33-93-3-67-23-85-58zm-2573 58c12-11 23-22 40-33 17-12 28-16 45-25-15 56-19 56-85 58zm2686-73zm-2714 0zm2771-44h71c-5 59-9 62-43 88l-28-88zm-2856 88c-34-26-38-29-42-88h70c-17 69-28 17-28 88zm2799-44c-40-11-43-19-70-44 68 2 46-3 70 44zm-2714 0c24-47 2-42 71-44-28 25-31 33-71 44zm2601-203c3 2 6 3 6 8l23 35c10 16 17 27 28 44h-85c6-74 11-20 28-87zm-2488 0c10 45 18 42 28 87h-85l57-87zm2573 29c62 5 20-3 64 22l49 36c-97 0-73 3-113-58zm-2276-73h14v87h-14v-87zm-410 131h-85l41-30c23-15 26-19 58-28-16 33-8 13-14 58zm2460-131h85c-4 50-11 53-29 87-50-38-41-57-56-87zm254 0c74 0 83-5 99 58l-99-58zm-410 0v87c-29-22-22-13-22-46 0-63-14-16 22-41zm-113-72c51 34 43 22 43 101-60-32-43-3-43-101zm-1710 101c0-57 4-59 14-101h28c0 146-5 51-42 101zm-283 58c-18-34-24-37-28-87h84c-22 44-17 58-56 87zm-297-28c17-75 16-59 99-59l-99 59zm2205-204h15v102h-15v-102zm-1512 0h14v102h-14v-102zm2092-15c41 28 51 37 57 102h-85c12-54 23-40 28-102zm-2686 0h28c4 45 14 70 28 102h-84c5-61 16-48 28-102zm2403 44c40 11 64 29 85 58-105 0-54 12-85-58zm-381-73h28v102h-28v-102zm-1358 0h29v102h-29v-102zm-438 131c21-29 45-47 85-58-15 65-10 58-85 58zm1555-58l4 4c0 0-5-3-4-4zm-862 0l4 4c0 0-6-3-4-4zm1385-14c0-38 23-3 9 0 0 0-9 40-9 0zm198-15zm-1753-87h28c0 97 36 96-28 102v-102zm-353 87l4 4c0 0-6-3-4-4zm-184 0zm1357 0h-56c26-17-32-16 28-12 30 2 12 1 28 12zm-367 0h-57c27-17-32-16 28-12 31 2 13 1 29 12zm975-44c50 14 32 6 57 44-83-7-32 5-57-44zm-339-87h28v131c-45-34-28-53-28-131zm-990 0h28c0 78 17 97-28 131-11-27 0-66 0-131zm-367 131c24-38 7-30 56-44-19 55-3 23-56 44zm2078-44h71l-17 87c-36-29-31-42-54-87zm-57 44c-51-12-45-8-70-44h70v44zm-2064-44l-25 32c7-40-8-19 25-32zm-226 44v-44c10 0 31-1 41 2 27 6 15 3 30 13-53 14-19 15-71 29zm-113 44l-16-87 72-1c-9 15-19 37-25 47-21 34 7 12-31 41zm2163-102c0-37 22-2 8 0 0 0-8 40-8 0zm-1824 14l8-31-8 31zm1499 59l-2-15c0-3-1-14-1-19 0-20 3-45 3-68h28c-31 135 32 81-28 102zm-283-204h14v131h-14v-131zm-608 0h14v131h-14v-131zm1089 29c35 66 4 78 0 87-40-3-56 1-51-37 4-28 29-42 51-50zm-679-58h28v131h-28v-131zm-226 0h28v131h-28v-131zm-113 145v-130h28c0 28 5 63 5 84 1 53 23 20-33 46zm-552-43c0-56-4-5 15-44 30 12 9-1 28 17 1 2 21 28 22 33 6 38-11 34-50 37-10-17-15-15-15-43zm-99 14zm1768-14zm-1768 14zm1315-58v131c-85-47-42 2-42-73 0-43-48-50 42-58zm-806 58c0 75 44 26-42 73v-131c89 8 42 14 42 58zm1259-14c-16-18-17-19-29-44 43 16 23-31 29 44zm-43-73l14 29-14-29zm-1668 0c-13 51-5 33-42 58 13-50 5-32 42-58zm1074-14v130c-76-21-28-9-28-58v-14c0-51-49-35 28-58zm665-15c71 17 123 16 213 15 114-1 115-33 155 43h-311c-66-12-39-22-57-58zm-71 29zm-169 73l-41-31c22-34 37-58 83-71-10 43-25 67-42 102zm-170-87c33-8 42-14 85-15-10 39 6 30-29 38-19 4-10 1-28-6-22-8-17-9-28-17zm-1075 29v-44c73 2 41-13 71 29-32 8-33 11-71 15zm-127-44c51 28 53 23 85 73-37 10-16-6-28 29-47-36-34-50-57-102zm-127 29zm-438 29c39-76 40-44 155-43 89 1 141 2 212-15-24 93-159 58-367 58zm1258-174c0-39 46-2 17 1-1 0-4 0-4 0-15 0-13 32-13-1zm1117-58c36 25 44 25 56 73-100-55-54-8-56-73zm-99 44h-42c16-65 25-65 42 0zm-170-44c39 29 53 36-14 44 10-18 14-16 14-44zm-141 14c41 11 20-1 42 30h-42v-30zm-127-14c31 22 17 2 28 44h-28v-44zm-142 14c42 11 21-1 43 30h-43v-30zm-120 30h-21 21zm-106 0h-56c30-44 25-44 56 0zm-339 0h-57c31-44 26-44 57 0zm-163 0h-21 21zm-120-30v30h-42c22-33 2-17 42-30zm-141-14v44h-29c10-40-5-23 29-44zm-149 44h-21 21zm-120-44v44h-28c9-40-6-23 28-44zm-148 44h-22 22zm-177 29c13-51 7-45 56-59-17 66-6 28-56 59zm2191-131c42 10 21-2 43 29h-43v-29zm-141 0h42c-26 101-29 25-42 0zm-99 0v29h-43c23-33 3-17 43-29zm-170 0c34 9 56 4 30 30-32 34-18-8-30-30zm-127 14c0-38 46-2 16 1-20 2-16 31-16-1zm-141-14c41 10 20-2 42 29h-42v-29zm-99 0c-9 34-4 57-30 30-27-27-3-20 30-30zm-170 0c41 10 20-2 42 29h-42v-29zm-170 0v29h-42c22-33 3-17 42-29zm-169 0c41 10 20-2 42 29h-42v-29zm-99 0v29h-43c23-33 3-17 43-29zm-142 0v29h-42c22-33 3-17 42-29zm-148 0h21-21zm-120 0v29h-43c23-33 3-17 43-29zm-170 0c34 9 55 4 30 30-33 34-19-8-30-30zm-99 0v29h-42c22-33 2-17 42-29zm2121-58c1-6 36-34 23 10-11 37 29 11-5 2-5-1-24 16-18-12zm-127-15c33 9 55 5 29 31-32 33-18-8-29-31zm-99 0c-9 35-5 57-30 31-27-28-3-21 30-31zm-170 44v-44c89 25 36 27 0 44zm-127-29c25-32 34-8 13 14-37 38-1 7-13-14zm-142-15c42 10 21-2 43 29h-43v-29zm-127 15c26-32 34-8 14 14-37 38-2 7-14-14zm-99 14c-40 19-16 19-56 0 30-43 25-43 56 0zm-339 0c-40 19-17 19-57 0 31-43 26-43 57 0zm-170-14c26-32 34-8 14 14-37 38-2 7-14-14zm-113-15v29h-42c22-33 2-17 42-29zm-170 0c34 9 56 5 30 31-32 33-18-8-30-31zm-99 0c-9 35-4 57-29 31-27-28-3-21 29-31zm-169 0c33 9 55 5 29 31-32 33-18-8-29-31zm-128 15c26-32 35-8 14 14-37 38-1 7-14-14zm-113 29c-30 0-4 1-4-18-1-28-27-16 1-13 4 0 45 30 3 31zm1089-44c0-38 46-2 17 1-1 0-4 0-4 0-15 0-13 32-13-1zm1103-116c-5-27 18-51 9-9 0 1 0 60-9 9zm-2192 0c-5-27 18-51 9-9 0 1 1 60-9 9zm2079-43h56v43h-56v-43zm-113 0h56v43h-56v-43zm-340 0h43v43h-43v-43zm-113 0h43v43h-43v-43zm-113 0h42v43h-42v-43zm-113 0h42v43h-42v-43zm-113 0h42v43h-42v-43zm-184 0h42v43h-42v-43zm-113 0h42v43h-42v-43zm-113 0h42v43h-42v-43zm-226 0h42v43h-42v-43zm-241 0h57v43h-57v-43zm-113 0h57v43h-57v-43zm-113 0h57v43h-57v-43zm1781 43v-43h57c-14 55-1 37-57 43zm-113 0v-43h57c-28 55 8 42-57 43zm-1102-43h56v43c-67-7-24 20-56-43zm-227 0h57v43c-68-7-24 20-57-43zm1669-146h56v29h-56v-29zm-113 0h56v29h-56v-29zm-114 0h57v29h-57v-29zm-113 0h43v29h-43v-29zm-113 0h43v29h-43v-29zm-113 0h43v29h-43v-29zm-113 0h42v29h-42v-29zm-113 0h42v29h-42v-29zm-113 0h42v29h-42v-29zm-184 0h42v29h-42v-29zm-113 0h42v29h-42v-29zm-113 0h42v29h-42v-29zm-113 0h42v29h-42v-29zm-113 0h42v29h-42v-29zm-128 0h57v29h-57v-29zm-113 0h57v29h-57v-29zm-113 0h57v29h-57v-29zm-113 0h57v29h-57v-29zm2121 0h56v29c-65-5-24 16-56-29zm-2234 29v-29h56c-32 47 10 22-56 29zm2205-101h128v14h-128v-14zm-1032 0h976v14h-976v-14zm-1032 0h976v14h-976v-14zm-183 0h127v14h-127v-14zm1908-73h-113c13-20 29-48 63-53 47-8 39 3 50 53zm-905-1495c484 0 332-72 414 359 5 26 7 48 11 91l187 954c7 30 17 56 25 91h-905l155-726c15-65 21-113 29-188l32-185c15-120 50-272 52-396zm-521 1438c53 4 66 30 97 57h-113l16-57zm1483 14l85 43h-71c-11-19-8-16-14-43zm-1640 43l85-58c-6 72-14 58-85 58zm-85-43zm1725 0zm85-44c89 0 67-3 99 58-53-13-65-27-99-58zm-354 58l-16-57 115-1c-31 28-44 53-99 58zm-1117-58h113l-16 58c-52-5-66-30-97-58zm-339 44c7-29 2-23 14-44h71c-31 28-32 39-85 44zm466-160v58h-84v-29c72-6 19-11 84-29zm1287 58v-29c68-19 16-25 85-44 8 39 13 43 28 73-57-12-36 0-113 0zm-339-73c42 23 47 40 99 44v29h-85c-2-22-8-58-14-73zm-948 15zm-410-15c51 28 53 23 85 73-77 0-56-12-113 0 9-35 32-63 28-73zm1598-29h99c-21 30-45 48-85 58-4-45 0-27-14-58zm-155 0h98c4 45 0 28 15 58-44-12-23-8-58-27-15-8-14-7-28-15l-27-16zm-1216 58c12-26 11-18 14-58l71 16-85 42zm-142-58h99c-13 27-11 19-14 58-39-10-64-28-85-58zm1386-188c24 18 31-5 42 130h-141c31-47 83-69 99-130zm-1188 0h28c16 61 68 83 99 130h-141c5-56 14-57 14-130zm1273 29l141 101c-71 0-73-1-127-14 0-59 4-47-14-87zm-1343 87c-54 13-57 14-128 14l142-116c-10 43-14 44-14 102zm141-160h127c-5 62-23 69-28 131l-99-131zm1230 0h113c12 54 23 41 28 102-44-12-108-73-141-102zm-240 131h-29c0-73-12-65-14-131h127c-13 21-24 39-40 60-31 40-31 18-44 71zm-1287-29c5-61 16-48 28-102h113c-32 29-97 90-141 102zm1598-262c3 45 13 70 28 102h-113c24-37 56-68 85-102zm-382 29c58 14 74 38 113 73h-113v-73zm-1145-29c28 34 60 65 85 102h-114c15-32 25-57 29-102zm1300 44zm-933 58h-99c24-34 67-61 113-73-8 39-8 28-14 73zm-141-58zm1131-73h99c-13 50-48 77-85 102 0-41-2-74-14-102zm-1287 0h99c-9 43-14 45-14 102h-28c-14-54 3-5-25-47l-28-44c-1-2-2-7-4-11zm1230 73c-47-26-60-39-99-73h99v73zm-1074 0v-73h99c-38 34-52 47-99 73zm1103-218c47 26 61 39 99 73h-99v-73zm-74-18l19 90-101 1 82-91zm-985 4l86 83-102 4 16-87zm-72 0v87h-99c32-30 62-62 99-87zm904 58v-102h85l-32 54c-22 27-27 30-53 48zm-763-102h85v87c-36-10-27-3-55-31-36-38-17-31-30-56zm1032 0h85c5 62-2 26 28 73-58-14-74-38-113-73zm-1329 87c10-45 18-42 28-87h85c-17 15-34 30-54 46-21 16-39 27-59 41zm1371-247c8 34 14 43 15 87h-71c11-42 33-59 56-87zm-1300 15c36 25 44 25 56 72h-70c1-50-3-38 14-72zm961 14c40 11 64 29 85 58h-71c-3-45 0-27-14-58zm-636 58h-71c28-42 30-44 85-58-16 34-8 13-14 58zm-255-116h71c-8 34-13 43-14 87l-57-87zm1075 0h85c-18 71-24 17-43 87l-42-87zm-127 0c75 0 70-7 85 58-40-11-64-28-85-58zm-820 58c6-72 13-58 85-58-28 25-44 47-85 58zm862-217c27 117 28 89-71 87 21-79 45-78 71-87zm-834 101c0-57 4-59 14-101h28c10 44 22 55 43 87-38 1-57 3-85 14zm905-101l88 83c-78 46-88-20-88-83zm-1046 87l81-91c4 63 0 130-81 91zm848-58c-7-85-49-102 71-102-14 60-28 72-71 102zm-636-102c113 0 70 2 70 102-63-44-42-36-70-102zm862 0c95 0 80 2 99 87-49-13-74-50-99-87zm-1117 87c6-78 17-87 99-87-24 37-50 74-99 87zm1160-247c1 64 9 45 14 102h-85c25-49 37-63 71-102zm-297 0c42 50 30 58 84 73v29c-97 0-84-5-84-102zm-594 102c15-43 0-14 35-51 21-21 33-32 50-51 0 97 12 102-85 102zm-198-102c11 45 34 68 56 102h-84c0-27-1-36 4-61 8-46-9-4 24-41zm990 44c-2-3-4-12-5-10-1 2-4-8-5-10-26-72 16 54-7-21-7-22-5-19-12-46h71c-18 34-33 49-42 87zm-159-84c76-2 40-11 65 20 12 15 18 44 23 64l-88-84zm-672 87c14-80-1-88 81-90l-81 90zm-60-3c-24-28-46-45-57-87h71c-19 40-14 28-14 87zm876-174l5 4c-1 0-6-3-5-4zm-84 0l4 4c0 0-6-3-4-4zm-241 0l4 4c0 0-5-3-4-4zm-240 0l4 4c0 0-6-3-4-4zm-325 0l4 4c0 0-6-3-4-4zm890-233l5 5c-1-1-6-3-5-5zm-226 0l4 5c0-1-5-3-4-5zm-438 0l4 5c0-1-5-3-4-5zm-226 0l4 5c0-1-6-3-4-5zm890-72c15-16 54 23 16 7 0 0-39 17-16-7zm-127 0h71v14h-71v-14zm-113 0c17-17 80 24 18 6-2-1-42 19-18-6zm-71 14h-56c26-17-32-16 28-12 30 2 13 1 28 12zm-198 0h-56c26-17-32-16 28-12 31 2 13 1 28 12zm-127 0h-56c26-17-32-16 28-12 30 2 12 1 28 12zm-127 0h-57c27-17-31-16 29-12 30 2 12 1 28 12zm-141-14c15-16 53 23 15 7 0 0-39 17-15-7zm805-146c36 25 45 25 57 73h-57v-73zm-353-1539c46 35 29 16 28 189 0 83 1 146 10 208 19 129 17 279 31 404 8 74 2 144 11 206l61 605h-254c3-128 41-349 43-377 3-86 6-135 12-205l30-405c-2-172 28-357 28-625zm-254 1539c23 29 31 32 42 73h-57c4-39 7-40 15-73zm494 73c14-54 15-19 29-73 0 2 25 14 20 47-6 42 0 21-49 26zm-622 0c13-48 21-48 57-73-2 68 6 66-57 73zm778-145c51 14 38 1 42 58-56-39-20-15-42-58zm-198 72c0-82-12-55 28-72 15 36-8 49-8 49-11 18-19 22-20 23zm-396-72c41 17 28-10 28 72-6-6-20-20-25-31-33-71 5 20-3-41zm-212 58v-58h42c-17 65-10 26-42 58zm820-203v72c-73-6-35-31 0-72zm-778 0c9 38 13 42 29 72h-57l28-72zm538 14c32 12 13-1 33 24 26 30 14 13 23 49-76-33-16 21-56-73zm-368 58c-1-1 0-7 0-5 1 4-3-36 57-53-5 10-17 42-24 50-36 38-26 12-33 8zm-28-87zm-115-43h44v58h-28l-16-58zm694 58h-28v-58c62 5 38-23 28 58zm-141-58h42v58c-17-21 6 10-19-24-12-17-14-20-23-34zm-438 43c7-65-21-36 42-43l-42 43zm537-174c18 21-5-10 19 24 13 17 14 20 23 34h-42v-58zm-71-15c4 40 7 40 14 73h-56c12-53 8-47 42-73zm-444-2c20 56 20 21 34 75h-56l22-75zm-79 17v58h-42c25-49 1-27 42-58zm-56-44v-58h28c-6 76-26 53-28 58zm678-58c38 16 27-30 29 58-78-53-25-30-29-58zm-183 87v-87c29 8 49-3 23 50l-23 37zm-283-87v87c-34-39-65-67 0-87zm452-130h28v72h-42c8-33 11-33 14-72zm-184 14l60 55-60 3v-58zm-254 0v58h-57c7-10 11-21 24-34 22-22 0-12 33-24zm-212-14c34 26 30 19 42 72h-42v-72zm466 14zm113-87h43l-22 75c-8-24-14-60-21-75zm-84 0c15-15 53 23 15 8 0-1-39 16-15-8zm-326 29c-24 3-20-43 0-19 0 0 0 1 0 1 0 0 0 4 0 4 1 1 12 13 0 14zm-98 44c-8-34-11-34-15-73 76 7 32 2 34 22 4 42-18 49-19 51zm494-233c24 28 46 45 57 87h-57v-87zm-69 30zm-440 57c11-40 28-65 57-87 0 77 14 80-57 87zm99-58c39 15 29 0 43 58-50-20-11 10-43-58zm64-101h21-21zm372 3l45-3v43l-45-40zm-125 40c-38-29-53-36 15-43-11 19-12 38-15 43zm-421 3l-3-46h43l-40 46zm564-176zm-171 13c31 23 18 3 28 44h-28v-44zm-210-13zm-157-1l15 57-30 1c0-8 0-24 1-28 8-28 2-14 14-30zm494-73c0-37 23-2 9 0 0 0-9 41-9 0zm-99-14c44 33 23-9 29 58-10-11-10-4-19-25-12-26-5-22-10-33zm-282 58c5-67-16-25 28-58-6 27-7 48-28 58zm-85-44c0-37 22-2 8 0 0 0-8 41-8 0zm466-130l16 57-30 1c0-8 0-24 1-28 8-28 2-14 13-30zm-450 0zm380-29c0 59 4 46-14 87-50-37-18-49 14-87zm-311 0c29 34 43 49 28 87-41-31-28-12-28-87zm240-15l14-72c-2 21-8 57-14 72zm141-58c0-37 23-2 9 0 0 0-9 41-9 0zm-339-14h42v58c-56-39-20-15-42-58zm-141 14c3-30 75 4 13 1-6 0-17 32-13-1zm482-145zm-143 0l16 57-30 1c0-8 0-24 1-28 8-28 2-14 13-30zm-156 0v58h-42c7-11 6-11 17-26 12-17 15-20 25-32zm-155 0l16 57-30 1c0-8-1-24 1-28 8-28 2-14 13-30zm424-116c0 8 0 23-1 28-7 25-4 16-13 30-16-79-23-16 14-58zm-113 14c0-44 22-9 21 11-3 50-21-5-21-11zm-184 29c-30 1-4 2-5-18-1-27-26-16 2-13 4 1 45 31 3 31zm-85-43c0 8 1 23-1 28-7 25-4 16-13 30-16-79-23-16 14-58zm340-116c41 31 17 9 42 58h-42v-58zm-71 43c0-39 51 0 13 1-15 0-13 32-13-1zm-198-29c17 19 15 18 28 44-37-15-21 0-28-44zm-85 44c32-63-4-27 43-44-25 48 3 39-43 44zm410-117zm0 0l-16-28 16 28zm-424 15c-42 8 3-52 4-26 0 4 11 23-4 26zm283-15c-37 5-5-49-1-18 0 1 1 4 1 5 0 1 12 12 0 13zm-156-29c25-25 48 40 13 12-1-1-33 10-13-12zm269-72c-8-43 30 4 14 3-29-2-9 27-14-3zm-396 0c0-40 51 0 13 1-15 0-13 32-13-1zm255-44c41 31 17 10 42 58-58-15-35-1-42-58zm-128 58c32-67-7-37 43-58-30 63 7 43-43 58zm241-130c0-37 22-3 8 0 0 0-8 40-8 0zm-326 0c0-37 23-3 9 0 0 0-9 40-9 0zm326-87c0-38 22-3 8 0 0 0-8 40-8 0zm-85 0c0-38 22-3 8 0 0 0-8 40-8 0zm-156 0c0-38 23-3 9 0 0 0-9 40-9 0zm-85 0c0-38 23-3 9 0 0 0-9 40-9 0zm-14-131l-7 31 7-31zm241 29c-30 0-4 2-5-18-1-28-27-16 2-13 4 0 45 30 3 31zm-128-44h29v44c-54-39-6 0-29-44zm241 0l4 5c0-1-6-3-4-5zm-354 15zm227-87c0-37 22-3 8 0 0 0-8 40-8 0zm-227 0c0-37 23-3 9 0 0 0-9 40-9 0zm340-15c24-25 47 40 12 11-1-1-33 11-12-11zm-227 0c15-15 54 23 16 8 0 0-39 17-16-8zm-84-145c16 27 16-32 11 29-2 31-1 13-11 29v-58zm297 29c-6-27 17-52 8-9 0 1 1 60-8 9zm-87-28l30-1c0 8 0 24-1 28-7 26-5 16-13 30l-16-57zm-127 57zm214-131c0-37 22-2 8 0 0 0-8 41-8 0zm-57-29c-6 76 13 27-28 44 1-3 3-12 4-10l24-34zm-170 0c17 20 16 19 29 44-38-14-21 0-29-44zm-70 29c0-37 22-2 8 0 0 0-8 41-8 0zm311-116c0-37 22-2 8 0 0 0-8 41-8 0zm-128 0c0-37 23-2 9 0 0 0-9 41-9 0zm-70 0c0-37 22-2 8 0 0 0-8 41-8 0zm-128 0c0-37 23-2 9 0 0 0-9 41-9 0zm326-101c-5-28 17-52 9-10-1 1 0 60-9 10zm-128 0c-5-28 18-52 9-10 0 1 1 60-9 10zm-70-15c0-37 22-2 8 0 0 0-8 41-8 0zm-142 0c2-6 37-33 24 10-11 38 29 11-6 2-4-1-24 16-18-12zm297-72v-59h43l-43 59zm-70-59l4 5c-1 0-6-3-4-5zm-114 0c15-15 54 24 16 8 0 0-39 17-16-8zm-84 0h42v59c-18-21 6 10-19-24-13-17-14-20-23-35zm212-72l4 4c0 0-6-3-4-4zm-128 0l5 4c-1 0-6-3-5-4zm99-102c0-37 23-2 9 0 0 0-9 41-9 0zm-70 0c0-37 22-2 8 0 0 0-8 41-8 0zm70-101c0-38 23-3 9 0 0 0-9 40-9 0zm-70 0c0-38 22-3 8 0 0 0-8 40-8 0zm169-117l5 5c-1-1-6-3-5-5zm-84 0c15-15 53 23 15 8 0 0-39 17-15-8zm-114 0c15-15 54 23 16 8 0 0-39 17-16-8zm-70 0l4 5c0-1-6-3-4-5zm367-232c-34 15-11 10-56 0 31-43 26-43 56 0zm-155-29c33 9 55 4 30 31-33 33-19-9-30-31zm-163 0h21-21zm-113 0h21-21zm233-363c254 61 246-57 255 44h-255v-44zm-56 0v44h-255c7-74-33-35 98-29 75 3 101-1 157-15zm56-203c58 40 52 61 145 127 25 17 6 1 25 18h-170v-145zm-56 0v145h-170l170-145zm-311 145v523c59 5 50 15 72 57 10 19 41 70 41 88 0 303 6 637-26 931-14 123 2 267-13 380-15 121-14 255-28 363-8 61 1 122-5 183l-41 350c-1 35 2 63-4 98-4 24-17 56-21 80l-118 851c-6 59-22 120-27 176-96 0-85 22-85 102 0 32 12 32 29 58-209 50-29 175-29 188 0 153-53 296-86 435l-366 1192c-29-14-104-27-153-12-61 17-45 63-45 142h42c0 408-18 305-200 709-134 296-313 588-498 853-35 50-68 83-98 133-55 90-231 298-303 371-87 89-210 180-215 243h1131c14-64 6-118 20-183 78-375 192-738 513-983 165-127 338-211 591-249 68-10 132-3 199-14 115-19 351 15 462 45 42 12 53 10 92 22 267 83 484 277 634 511 22 35 21 37 41 74 12 23 27 43 37 63 60 114 111 274 133 401 13 72 32 106 35 182 6 177-21 131 296 131 283 0 566 0 849 0-6-74-49-81-95-120-194-166-470-525-608-756-31-53-58-85-90-140-26-44-52-85-81-134l-163-297c-73-139-273-495-279-629-3-74 1-158 1-233h42c0-154 2-153-154-141-78 6-67-23-111-166-19-60-20-43-37-108-4-15-11-40-17-56l-59-185c-17-57-22-62-37-122-46-179-114-362-150-543-33-163-85-290-85-465 127-10 65-137-28-159 27-43 28-65 28-116 0-53-36-44-85-44l-208-1528c-8-61 0-122-6-183-4-40-18-129-22-166-24-183 0-384-20-575-34-304-27-648-27-960 0-33 59-118 78-138 23-26 35-2 35-51v-479c-24 0-28 2-51-5-3-1-7-3-10-4-3-1-7-4-10-5l-23-19c-81-71-173-127-175-227-3-129 37-495-56-495-107 0-85 92-85 203 1 355 61 321-169 509-31 26-40 42-99 43z" stroke-width="7.62"/><g font-family="&apos;Cassandra&apos;" stroke-width="50"><text x="10500" y="14850" font-size="1087.64" transform="matrix(1.03309 0 0 1.06097 2533 7797.9)">Texto 02</text><text x="10500" y="14850" font-size="1199.44" transform="matrix(1.03309 0 0 1.06097 2482 6329.46)">Texto 01</text><text x="10500" y="14850" font-size="1087.64" transform="matrix(1.03309 0 0 1.06097 2935.91 9059.57)">00.00.0000</text></g></g><g font-family="&apos;Arial Black&apos;" font-weight="900" stroke-width="7.62" font-size="529.17"><text x="10500" y="14850" transform="matrix(1.03309 0 0 1.06097 4687.03 3497.31)">NN 1</text><text x="10500" y="14850" transform="matrix(1.03309 0 0 1.06097 4672.87 4036.5)">NN 2</text></g></g></g></g><g clip-path="url(#1)"><g><g><g fill="#ff0a4b" stroke="#ff0a4b" stroke-width="7.62"><path d="m20062 31386l78-33714c538-638 583-636 742-749-28 11547-55 23093-82 34640 0 16 6 25-3 24-239-37-307-47-735-201z"/><path d="m18514 29564l66-28277c206-1138 610-2139 745-2291l-75 31835c-563-672-560-843-736-1267z"/></g><g/></g><g fill="#201e1e" stroke="#201e1e"><g stroke-linejoin="round" stroke-linecap="round"><path d="m6862 16684c46 34 47 64 71 116h-240c59-53 91-63 169-116zm-3732 0c44 4 128 66 173 97 30 21 9 5 25 19h-240c12-27 35-85 42-116zm-438 58l4 4c0 0-6-3-4-4zm3746-29c0-37 23-3 9 0 0 0-9 40-9 0zm-2870 0c0-37 23-3 9 0-1 0-9 40-9 0zm3379-29l200 70c80 31 96 21 111 60-59-29-185-14-268-14-5-54-22-77-43-116zm-3930 116c-103 0-184-6-269 14v-29c101-2 206-73 325-101-18 28-47 80-56 116zm4043-145c91 0 204-17 241 87l-241-87zm-480 0h212l-198 130c0-64 7-84-14-130zm-3351 0h198v130c-33-22-56-39-95-62l-79-50c-28-20-8-4-24-18zm-509 87c39-111 178-87 240-87l-240 87zm4439-145h-141c37-52 116-96 141 0zm-593-58l118 52c2 1 6 4 9 6h-127v-58zm-3563 58h-142c25-96 105-52 142 0zm325 0c3-2 8-8 9-6 2 4 10-5 19-10l99-42c-7 83-36 58-127 58zm3478-44l30 8-30-8zm99 29l-29-58c72 0 74-2 128-14-24 33-62 47-99 72zm-99-29c-64-1-72-5-99-43 27 2 45 4 60 10 39 16 24-5 39 33zm-3619 15c30-47 59-53 127-58-26 35-78 46-127 58zm-170-58c54 12 56 14 127 14l-29 58c-53-29-64-20-98-72zm3435-117l14 30c1 3 3 7 4 11 26 68 67 315 67 366h-28c0-200-57-322-57-407zm-2884 0c0 18-55 363-85 407 0-65 18-156 31-215 6-27 10-61 18-98 0-1 11-41 13-45l23-49zm3125-72c11 44 10 26 32 69l38 76c-213 0-199 20-129-88 33-51-4-40 59-57zm-3436 145c16-59 56-86 71-145h28c34 131 207 145-99 145zm3733-87zm-3959 0zm3732-44c45 13 25 12 74 41l36 21c25 13 33 15 58 28l59 41c-57 0-121 9-155-15-22-16-57-87-72-116zm-339-29c32 37 27 25 28 87-16-24 1 23-19-38-10-33-5-7-9-49zm-2856 87c0-73-13-57 29-87-4 42 2 15-10 49-17 52-7 21-19 38zm-537 73l226-131c-86 133-16 131-226 131zm3959-87c-42-10-155-63-170-102 44 22 52 15 113 15 24 46 32 49 57 87zm-467 29c-2-76-14-56-28-116h127c-18 28-73 98-99 116zm-3124-116h127c-17 35-27 63-28 116-41-28-72-74-99-116zm-368 87c25-38 33-41 57-87 61 0 69 7 113-15-14 35-132 93-170 102zm3351-189c10 13 20 23 29 43 11 27 12 30 13 73-2-3-5-11-5-9-1 3-5-7-6-8-33-56-30-43-31-99zm410-58c42 23 68 54 85 102h-128c7-87 23-25 43-102zm-3195 174c1-61 7-90 42-116-4 54-1 24-13 59-1 2-11 24-14 30-13 25-6 13-15 27zm-368-174c14 55 28 37 42 102h-127c11-43 39-89 85-102zm3223 44c55 4 89 23 114 58-27 0-56 4-79-7-41-19-23-30-35-51zm-2997 58c25-35 58-54 113-58-18 69-33 58-113 58zm198-87c0 68 0 27-14 43 0-69 0-27 14-43zm2700-15c44 33 23-9 29 58-22-25-19-18-29-58zm-2785 15l4 4c0 0-5-3-4-4zm3111 43c-14-54-15-19-29-73h85c-25 49-10 41-56 73zm-156-73c69 2 46-3 71 44-40-11-43-19-71-44zm-170 15l-16-28 16 28zm-2700 15c9-41 7-33 28-59-5 68 16 26-28 59zm-226 14c15-58 4-42 71-44-30 27-29 31-71 44zm-142-44h85c-14 54-14 19-28 73-46-32-31-24-57-73zm3026-72c30 22 19 2 28 43-31-22-17-2-28-43zm-2630 43c10-41-2-21 29-43-10 41 2 22-29 43zm2771-130h43c6 74 11 19 28 87h-99c18-34 24-38 28-87zm-141 87l-16-28 16 28zm-2601 0l7-31-7 31zm-156-87c18 34 24 38 28 87h-99c61-94 30-70 71-87zm3012 14c21 12 32 18 54 32l59 41h-85c-8-28-9-23-12-31l-16-42zm-297 15c15-16 53 23 15 7 0 0-39 17-15-7zm-2545 0l4 4c0 0-6-3-4-4zm-297 58h-85l113-73c-16 63-27 24-28 73zm2898-131h85c-12 54-23 41-28 102-48-36-34-50-57-102zm-2714 0h84c-14 65-28 47-42 102l-42-102zm2980 5c76-5 85-9 102 53l-102-53zm-3277 53c33-51 16-58 99-58-35 31-46 46-99 58zm3266-217c9 37 24 52 42 87h-99c11-41 28-66 57-87zm-3139 0c29 21 46 46 57 87h-99c17-35 32-50 42-87zm2813 29c18 9 28 13 46 25 16 12 27 22 39 33-93-3-67-23-85-58zm-2573 58c12-11 24-22 40-33 18-12 28-16 45-25-14 56-19 56-85 58zm2687-73zm-2715 0zm2771-44h71c-5 59-9 62-43 88l-28-88zm-2856 88c-34-26-37-29-42-88h71c-18 69-29 17-29 88zm2800-44c-41-11-44-19-71-44 68 2 46-3 71 44zm-2715 0c24-47 2-42 71-44-28 25-31 33-71 44zm2601-203c3 2 6 3 7 8l22 35c11 16 17 27 28 44h-85c6-74 11-20 28-87zm-2488 0c10 45 18 42 28 87h-84l56-87zm2573 29c62 5 20-3 64 22l49 36c-97 0-73 3-113-58zm-2276-73h14v87h-14v-87zm-410 131h-85l41-30c23-15 26-19 58-28-16 33-8 13-14 58zm2460-131h85c-4 50-11 53-28 87-51-38-42-57-57-87zm255 0c73 0 82-5 99 58l-99-58zm-410 0v87c-30-22-22-13-22-46 0-63-14-16 22-41zm-114-72c51 34 43 22 43 101-60-32-43-3-43-101zm-1710 101c0-57 4-59 14-101h28c0 146-5 51-42 101zm-283 58c-17-34-24-37-28-87h85c-23 44-18 58-57 87zm-297-28c17-75 16-59 99-59l-99 59zm2206-204h14v102h-14v-102zm-1513 0h14v102h-14v-102zm2092-15c41 28 52 37 57 102h-85c12-54 23-40 28-102zm-2686 0h28c4 45 14 70 29 102h-85c5-61 16-48 28-102zm2404 44c39 11 63 29 84 58-105 0-54 12-84-58zm-382-73h28v102h-28v-102zm-1357 0h28v102h-28v-102zm-439 131c21-29 46-47 85-58-15 65-9 58-85 58zm1555-58l5 4c-1 0-6-3-5-4zm-862 0l4 4c0 0-5-3-4-4zm1386-14c0-38 22-3 8 0 0 0-8 40-8 0zm198-15zm-1754-87h29c0 97 35 96-29 102v-102zm-353 87l4 4c0 0-5-3-4-4zm-184 0zm1357 0h-56c26-17-32-16 28-12 31 2 13 1 28 12zm-367 0h-57c27-17-31-16 29-12 30 2 12 1 28 12zm975-44c50 14 32 6 57 44-83-7-32 5-57-44zm-339-87h28v131c-44-34-28-53-28-131zm-990 0h29c0 78 16 97-29 131-10-27 0-66 0-131zm-367 131c25-38 7-30 56-44-19 55-3 23-56 44zm2078-44h71l-17 87c-36-29-31-42-54-87zm-56 44c-52-12-46-8-71-44h71v44zm-2065-44l-25 32c7-40-8-19 25-32zm-226 44v-44c11 0 32-1 41 2 28 6 15 3 30 13-53 14-18 15-71 29zm-113 44l-16-87 73-1c-10 15-20 37-26 47-21 34 7 12-31 41zm2163-102c0-37 23-2 9 0-1 0-9 40-9 0zm-1824 14l8-31-8 31zm1499 59l-2-15c0-3-1-14-1-19 1-20 3-45 3-68h28c-30 135 32 81-28 102zm-283-204h14v131h-14v-131zm-608 0h14v131h-14v-131zm1089 29c36 66 4 78 0 87-39-3-56 1-51-37 5-28 29-42 51-50zm-679-58h29v131h-29v-131zm-226 0h28v131h-28v-131zm-113 145v-130h28c0 28 5 63 5 84 1 53 23 20-33 46zm-551-43c0-56-5-5 14-44 30 12 9-1 28 17 1 2 21 28 22 33 6 38-11 34-50 37-10-17-14-15-14-43zm-99 14zm1767-14zm-1767 14zm1314-58v131c-85-47-42 2-42-73 0-43-48-50 42-58zm-805 58c0 75 43 26-43 73v-131c89 8 43 14 43 58zm1258-14c-16-18-16-19-28-44 42 16 22-31 28 44zm-43-73l15 29-15-29zm-1668 0c-13 51-5 33-42 58 13-50 5-32 42-58zm1075-14v130c-77-21-29-9-29-58v-14c0-51-49-35 29-58zm664-15c71 17 123 16 213 15 114-1 115-33 155 43h-311c-65-12-39-22-57-58zm-71 29zm-169 73l-41-31c22-34 37-58 83-71-9 43-24 67-42 102zm-170-87c33-8 42-14 85-15-10 39 6 30-29 38-19 4-10 1-28-6-22-8-17-9-28-17zm-1074 29v-44c72 2 40-13 70 29-32 8-32 11-70 15zm-128-44c51 28 53 23 85 73-36 10-16-6-28 29-47-36-34-50-57-102zm-127 29zm-438 29c39-76 40-44 155-43 89 1 141 2 212-15-24 93-159 58-367 58zm1258-174c0-39 46-2 17 1 0 0-4 0-4 0-14 0-13 32-13-1zm1117-58c36 25 44 25 57 73-101-55-55-8-57-73zm-99 44h-42c16-65 25-65 42 0zm-170-44c39 29 53 36-14 44 10-18 14-16 14-44zm-141 14c41 11 20-1 43 30h-43v-30zm-127-14c31 22 17 2 28 44h-28v-44zm-142 14c42 11 21-1 43 30h-43v-30zm-120 30h-21 21zm-106 0h-56c30-44 25-44 56 0zm-339 0h-57c31-44 26-44 57 0zm-163 0h-21 21zm-120-30v30h-42c22-33 2-17 42-30zm-141-14v44h-28c9-40-6-23 28-44zm-149 44h-21 21zm-120-44v44h-28c9-40-6-23 28-44zm-148 44h-21 21zm-177 29c13-51 8-45 57-59-18 66-7 28-57 59zm2191-131c42 10 21-2 43 29h-43v-29zm-141 0h42c-26 101-29 25-42 0zm-99 0v29h-42c22-33 2-17 42-29zm-170 0c34 9 56 4 30 30-32 34-18-8-30-30zm-127 14c0-38 46-2 17 1-21 2-17 31-17-1zm-141-14c41 10 20-2 42 29h-42v-29zm-99 0c-9 34-4 57-30 30-27-27-3-20 30-30zm-170 0c41 10 21-2 43 29h-43v-29zm-169 0v29h-43c22-33 3-17 43-29zm-170 0c41 10 20-2 42 29h-42v-29zm-99 0v29h-43c23-33 3-17 43-29zm-142 0v29h-42c22-33 3-17 42-29zm-148 0h21-21zm-120 0v29h-43c23-33 3-17 43-29zm-170 0c34 9 56 4 30 30-32 34-18-8-30-30zm-99 0v29h-42c22-33 2-17 42-29zm2121-58c1-6 36-34 23 10-11 37 29 11-5 2-4-1-24 16-18-12zm-127-15c33 9 55 5 29 31-32 33-18-8-29-31zm-99 0c-9 35-4 57-30 31-27-28-3-21 30-31zm-170 44v-44c90 25 36 27 0 44zm-127-29c26-32 34-8 13 14-37 38-1 7-13-14zm-142-15c42 10 21-2 43 29h-43v-29zm-127 15c26-32 34-8 14 14-37 38-2 7-14-14zm-99 14c-40 19-16 19-56 0 30-43 25-43 56 0zm-339 0c-40 19-17 19-57 0 31-43 26-43 57 0zm-170-14c26-32 35-8 14 14-37 38-2 7-14-14zm-113-15v29h-42c22-33 2-17 42-29zm-169 0c33 9 55 5 29 31-32 33-18-8-29-31zm-99 0c-9 35-5 57-30 31-27-28-3-21 30-31zm-170 0c33 9 55 5 30 31-33 33-19-8-30-31zm-127 15c25-32 34-8 13 14-37 38-1 7-13-14zm-113 29c-30 0-4 1-5-18-1-28-27-16 2-13 3 0 45 30 3 31zm1088-44c0-38 46-2 17 1 0 0-4 0-4 0-14 0-13 32-13-1zm1103-116c-5-27 18-51 9-9 0 1 0 60-9 9zm-2191 0c-6-27 17-51 8-9 0 1 1 60-8 9zm2078-43h56v43h-56v-43zm-113 0h56v43h-56v-43zm-340 0h43v43h-43v-43zm-113 0h43v43h-43v-43zm-113 0h43v43h-43v-43zm-113 0h43v43h-43v-43zm-113 0h42v43h-42v-43zm-184 0h43v43h-43v-43zm-113 0h43v43h-43v-43zm-113 0h42v43h-42v-43zm-226 0h42v43h-42v-43zm-241 0h57v43h-57v-43zm-113 0h57v43h-57v-43zm-113 0h57v43h-57v-43zm1782 43v-43h56c-14 55-1 37-56 43zm-113 0v-43h56c-28 55 8 42-56 43zm-1103-43h56v43c-67-7-24 20-56-43zm-226 0h56v43c-67-7-24 20-56-43zm1668-146h56v29h-56v-29zm-113 0h56v29h-56v-29zm-113 0h56v29h-56v-29zm-113 0h42v29h-42v-29zm-114 0h43v29h-43v-29zm-113 0h43v29h-43v-29zm-113 0h43v29h-43v-29zm-113 0h43v29h-43v-29zm-113 0h42v29h-42v-29zm-184 0h43v29h-43v-29zm-113 0h43v29h-43v-29zm-113 0h42v29h-42v-29zm-113 0h42v29h-42v-29zm-113 0h42v29h-42v-29zm-127 0h56v29h-56v-29zm-114 0h57v29h-57v-29zm-113 0h57v29h-57v-29zm-113 0h57v29h-57v-29zm2121 0h57v29c-66-5-25 16-57-29zm-2234 29v-29h57c-33 47 9 22-57 29zm2206-101h127v14h-127v-14zm-1032 0h975v14h-975v-14zm-1032 0h975v14h-975v-14zm-184 0h127v14h-127v-14zm1908-73h-113c13-20 29-48 63-53 47-8 39 3 50 53zm-904-1495c483 0 331-72 413 359 5 26 8 48 11 91l187 954c7 30 17 56 25 91h-905l155-726c15-65 21-113 29-188l32-185c15-120 50-272 53-396zm-522 1438c53 4 67 30 97 57h-113l16-57zm1483 14l85 43h-71c-11-19-8-16-14-43zm-1640 43l85-58c-6 72-14 58-85 58zm-85-43zm1725 0zm85-44c89 0 67-3 99 58-53-13-64-27-99-58zm-354 58l-16-57 115-1c-31 28-44 53-99 58zm-1117-58h113l-15 58c-53-5-67-30-98-58zm-339 44c7-29 3-23 14-44h71c-31 28-32 39-85 44zm467-160v58h-85v-29c72-6 19-11 85-29zm1286 58v-29c69-19 17-25 85-44 9 39 13 43 28 73-57-12-36 0-113 0zm-339-73c42 23 47 40 99 44v29h-85c-2-22-8-58-14-73zm-947 15zm-410-15c50 28 52 23 84 73-76 0-55-12-113 0 9-35 32-63 29-73zm1597-29h99c-21 30-45 48-85 58-3-45 1-27-14-58zm-155 0h99c3 45 0 28 14 58-44-12-22-8-58-27-15-8-14-7-28-15l-27-16zm-1216 58c13-26 11-18 14-58l72 16-86 42zm-142-58h99c-12 27-10 19-14 58-39-10-64-28-85-58zm1386-188c24 18 31-5 42 130h-141c31-47 83-69 99-130zm-1188 0h29c16 61 68 83 99 130h-142c5-56 14-57 14-130zm1273 29l141 101c-71 0-73-1-127-14 0-59 5-47-14-87zm-1343 87c-54 13-56 14-128 14l142-116c-10 43-14 44-14 102zm141-160h127c-5 62-23 69-28 131l-99-131zm1230 0h113c12 54 24 41 28 102-44-12-108-73-141-102zm-240 131h-29c0-73-12-65-14-131h128c-14 21-25 39-41 60-31 40-30 18-44 71zm-1287-29c5-61 16-48 28-102h114c-33 29-97 90-142 102zm1598-262c3 45 13 70 28 102h-113c24-37 56-68 85-102zm-382 29c58 14 74 38 113 73h-113v-73zm-1145-29c28 34 60 65 85 102h-113c14-32 24-57 28-102zm1301 44zm-934 58h-99c25-34 67-61 114-73-9 39-9 28-15 73zm-141-58zm1131-73h99c-13 50-48 77-85 102 0-41-2-74-14-102zm-1286 0h99c-10 43-15 45-15 102h-28c-14-54 3-5-25-47l-27-44c-1-2-3-7-4-11zm1230 73c-48-26-61-39-99-73h99v73zm-1075 0v-73h99c-38 34-52 47-99 73zm1103-218c47 26 61 39 99 73h-99v-73zm-74-18l19 90-101 1 82-91zm-984 4l86 83-103 4 17-87zm-73 0v87h-99c33-30 63-62 99-87zm905 58v-102h84l-32 54c-22 27-27 30-52 48zm-764-102h85v87c-36-10-27-3-54-31-37-38-18-31-31-56zm1032 0h85c5 62-2 26 28 73-58-14-74-38-113-73zm-1329 87c11-45 18-42 29-87h84c-17 15-33 30-54 46-21 16-39 27-59 41zm1372-247c7 34 13 43 14 87h-71c11-42 33-59 57-87zm-1301 15c36 25 44 25 57 72h-71c1-50-2-38 14-72zm961 14c40 11 64 29 85 58h-70c-4-45 0-27-15-58zm-636 58h-71c28-42 30-44 85-58-16 34-8 13-14 58zm-254-116h70c-7 34-13 43-14 87l-56-87zm1074 0h85c-18 71-24 17-42 87l-43-87zm-127 0c75 0 70-7 85 58-40-11-64-28-85-58zm-820 58c6-72 13-58 85-58-27 25-44 47-85 58zm862-217c28 117 28 89-70 87 20-79 45-78 70-87zm-834 101c0-57 5-59 14-101h29c10 44 22 55 42 87-38 1-57 3-85 14zm905-101l88 83c-78 46-88-20-88-83zm-1046 87l81-91c4 63 0 130-81 91zm848-58c-7-85-49-102 71-102-14 60-27 72-71 102zm-636-102c113 0 71 2 71 102-64-44-42-36-71-102zm862 0c95 0 80 2 99 87-48-13-74-50-99-87zm-1117 87c7-78 17-87 99-87-24 37-50 74-99 87zm1160-247c1 64 9 45 14 102h-85c25-49 38-63 71-102zm-297 0c42 50 30 58 85 73v29c-97 0-85-5-85-102zm-594 102c15-43 0-14 35-51 21-21 34-32 50-51 0 97 12 102-85 102zm-198-102c12 45 35 68 57 102h-85c0-27-1-36 4-61 8-46-9-4 24-41zm990 44c-2-3-4-12-5-10-1 2-4-8-4-10-27-72 16 54-8-21-7-22-5-19-12-46h71c-18 34-32 49-42 87zm-159-84c76-2 40-11 65 20 12 15 19 44 23 64l-88-84zm-672 87c14-80-1-88 81-90l-81 90zm-60-3c-24-28-46-45-57-87h71c-19 40-14 28-14 87zm877-174l4 4c0 0-6-3-4-4zm-85 0l4 4c0 0-6-3-4-4zm-241 0l5 4c-1 0-6-3-5-4zm-240 0l4 4c0 0-5-3-4-4zm-325 0l4 4c0 0-5-3-4-4zm891-233l4 5c0-1-6-3-4-5zm-227 0l5 5c-1-1-6-3-5-5zm-438 0l4 5c0-1-5-3-4-5zm-226 0l4 5c0-1-5-3-4-5zm891-72c15-16 53 23 15 7 0 0-39 17-15-7zm-128 0h71v14h-71v-14zm-113 0c17-17 80 24 18 6-2-1-42 19-18-6zm-70 14h-57c26-17-32-16 28-12 31 2 13 1 29 12zm-198 0h-57c27-17-31-16 28-12 31 2 13 1 29 12zm-128 0h-56c26-17-32-16 28-12 31 2 13 1 28 12zm-127 0h-56c26-17-32-16 28-12 30 2 12 1 28 12zm-141-14c15-16 53 23 16 7-1 0-40 17-16-7zm806-146c36 25 44 25 56 73h-56v-73zm-354-1539c47 35 29 16 28 189 0 83 1 146 10 208 19 129 17 279 31 404 8 74 2 144 12 206l61 605h-255c3-128 42-349 43-377 3-86 6-135 12-205l30-405c-1-172 28-357 28-625zm-254 1539c24 29 31 32 42 73h-56c3-39 6-40 14-73zm495 73c14-54 14-19 28-73 1 2 25 14 20 47-6 42 0 21-48 26zm-623 0c13-48 21-48 57-73-1 68 6 66-57 73zm778-145c51 14 38 1 42 58-56-39-20-15-42-58zm-198 72c0-82-12-55 28-72 15 36-7 49-7 49-12 18-20 22-21 23zm-396-72c41 17 29-10 29 72-6-6-21-20-26-31-33-71 5 20-3-41zm-212 58v-58h43c-17 65-11 26-43 58zm820-203v72c-72-6-35-31 0-72zm-777 0c8 38 12 42 28 72h-57l29-72zm537 14c32 12 13-1 34 24 25 30 13 13 22 49-76-33-16 21-56-73zm-368 58c0-1 0-7 0-5 1 4-3-36 57-53-5 10-17 42-24 50-35 38-26 12-33 8zm-28-87zm-115-43h44v58h-28l-16-58zm695 58h-29v-58c62 5 39-23 29 58zm-142-58h43v58c-18-21 5 10-20-24-12-17-14-20-23-34zm-438 43c7-65-21-36 42-43l-42 43zm537-174c18 21-5-10 20 24 12 17 13 20 23 34h-43v-58zm-70-15c3 40 6 40 14 73h-57c12-53 8-47 43-73zm-445-2c20 56 21 21 35 75h-57l22-75zm-79 17v58h-42c25-49 1-27 42-58zm-56-44v-58h28c-6 76-26 53-28 58zm679-58c37 16 26-30 28 58-78-53-25-30-28-58zm-184 87v-87c30 8 49-3 23 50l-23 37zm-283-87v87c-34-39-65-67 0-87zm452-130h29v72h-43c8-33 11-33 14-72zm-183 14l59 55-59 3v-58zm-255 0v58h-56c6-10 10-21 23-34 22-22 1-12 33-24zm-212-14c35 26 30 19 42 72h-42v-72zm467 14zm113-87h42l-22 75c-8-24-14-60-20-75zm-85 0c15-15 53 23 16 8-1-1-40 16-16-8zm-325 29c-25 3-20-43-1-19 0 0 0 1 0 1 0 0 1 4 1 4 0 1 11 13 0 14zm-99 44c-8-34-11-34-14-73 75 7 31 2 33 22 4 42-18 49-19 51zm495-233c23 28 45 45 56 87h-56v-87zm-69 30zm-440 57c10-40 28-65 56-87 0 77 15 80-56 87zm99-58c38 15 29 0 42 58-50-20-11 10-42-58zm63-101h21-21zm372 3l45-3v43l-45-40zm-124 40c-39-29-53-36 14-43-11 19-12 38-14 43zm-422 3l-3-46h43l-40 46zm565-176zm-172 13c32 23 18 3 29 44h-29v-44zm-210-13zm-157-1l16 57-30 1c0-8-1-24 1-28 7-28 2-14 13-30zm495-73c0-37 22-2 8 0 0 0-8 41-8 0zm-99-14c43 33 22-9 28 58-10-11-9-4-19-25-12-26-5-22-9-33zm-283 58c5-67-15-25 28-58-6 27-6 48-28 58zm-85-44c0-37 22-2 8 0 0 0-8 41-8 0zm467-130l15 57-30 1c0-8 0-24 1-28 8-28 2-14 14-30zm-451 0zm380-29c0 59 5 46-14 87-50-37-18-49 14-87zm-311 0c29 34 43 49 28 87-41-31-28-12-28-87zm240-15l14-72c-1 21-7 57-14 72zm142-58c0-37 22-2 8 0 0 0-8 41-8 0zm-340-14h43v58c-57-39-21-15-43-58zm-141 14c3-30 75 4 13 1-5 0-17 32-13-1zm482-145zm-143 0l16 57-30 1c0-8 0-24 1-28 8-28 2-14 13-30zm-155 0v58h-43c7-11 6-11 17-26 12-17 15-20 26-32zm-156 0l16 57-30 1c0-8 0-24 1-28 8-28 2-14 13-30zm424-116c0 8 1 23-1 28-7 25-4 16-13 30-16-79-23-16 14-58zm-113 14c0-44 22-9 21 11-3 50-21-5-21-11zm-184 29c-30 1-4 2-4-18-1-27-27-16 1-13 4 1 45 31 3 31zm-84-43c0 8 0 23-1 28-8 25-5 16-14 30-16-79-23-16 15-58zm339-116c41 31 17 9 42 58h-42v-58zm-71 43c0-39 51 0 13 1-14 0-13 32-13-1zm-198-29c17 19 16 18 29 44-38-15-21 0-29-44zm-85 44c33-63-3-27 43-44-25 48 3 39-43 44zm410-117zm0 0l-16-28 16 28zm-424 15c-42 8 3-52 4-26 1 4 11 23-4 26zm283-15c-37 5-4-49 0-18 0 1 0 4 0 5 0 1 12 12 0 13zm-155-29c24-25 47 40 12 12-1-1-33 10-12-12zm268-72c-7-43 30 4 15 3-29-2-9 27-15-3zm-396 0c0-40 51 0 13 1-14 0-13 32-13-1zm255-44c41 31 17 10 42 58-57-15-35-1-42-58zm-127 58c31-67-8-37 42-58-30 63 7 43-42 58zm240-130c0-37 22-3 8 0 0 0-8 40-8 0zm-325 0c0-37 22-3 8 0 0 0-8 40-8 0zm325-87c0-38 22-3 8 0 0 0-8 40-8 0zm-85 0c0-38 22-3 8 0 0 0-8 40-8 0zm-155 0c0-38 22-3 8 0 0 0-8 40-8 0zm-85 0c0-38 22-3 8 0 0 0-8 40-8 0zm-14-131l-8 31 8-31zm240 29c-30 0-4 2-5-18-1-28-27-16 2-13 4 0 45 30 3 31zm-127-44h28v44c-54-39-6 0-28-44zm240 0l4 5c0-1-5-3-4-5zm-353 15zm226-87c0-37 22-3 8 0 0 0-8 40-8 0zm-226 0c0-37 22-3 8 0 0 0-8 40-8 0zm339-15c24-25 47 40 12 11-1-1-33 11-12-11zm-226 0c15-15 53 23 15 8 0 0-39 17-15-8zm-85-145c17 27 16-32 11 29-2 31-1 13-11 29v-58zm297 29c-5-27 18-52 9-9-1 1 0 60-9 9zm-87-28l30-1c0 8 0 24-1 28-7 26-4 16-13 30l-16-57zm-127 57zm214-131c0-37 22-2 8 0 0 0-8 41-8 0zm-57-29c-6 76 14 27-28 44 1-3 4-12 4-10l24-34zm-169 0c17 20 15 19 28 44-37-14-21 0-28-44zm-71 29c0-37 22-2 8 0 0 0-8 41-8 0zm311-116c0-37 22-2 8 0 0 0-8 41-8 0zm-127 0c0-37 22-2 8 0 0 0-8 41-8 0zm-71 0c0-37 22-2 8 0 0 0-8 41-8 0zm-127 0c0-37 22-2 8 0 0 0-8 41-8 0zm325-101c-5-28 18-52 9-10 0 1 0 60-9 10zm-127 0c-5-28 17-52 9-10-1 1 0 60-9 10zm-71-15c0-37 22-2 8 0 0 0-8 41-8 0zm-141 0c1-6 36-33 23 10-11 38 29 11-5 2-5-1-25 16-18-12zm296-72v-59h43l-43 59zm-70-59l4 5c0 0-6-3-4-5zm-113 0c15-15 53 24 15 8 0 0-39 17-15-8zm-85 0h42v59c-17-21 6 10-19-24-13-17-14-20-23-35zm212-72l4 4c0 0-6-3-4-4zm-127 0l4 4c0 0-6-3-4-4zm99-102c0-37 22-2 8 0 0 0-8 41-8 0zm-71 0c0-37 22-2 8 0 0 0-8 41-8 0zm71-101c0-38 22-3 8 0 0 0-8 40-8 0zm-71 0c0-38 22-3 8 0 0 0-8 40-8 0zm170-117l4 5c0-1-6-3-4-5zm-85 0c15-15 53 23 15 8 0 0-39 17-15-8zm-113 0c15-15 53 23 15 8 0 0-39 17-15-8zm-71 0l4 5c0-1-5-3-4-5zm368-232c-35 15-12 10-57 0 31-43 26-43 57 0zm-156-29c34 9 55 4 30 31-33 33-19-9-30-31zm-163 0h22-22zm-113 0h22-22zm234-363c253 61 246-57 254 44h-254v-44zm-57 0v44h-254c6-74-34-35 97-29 76 3 101-1 157-15zm57-203c58 40 51 61 145 127 24 17 5 1 24 18h-169v-145zm-57 0v145h-170l170-145zm-311 145v523c59 5 50 15 72 57 10 19 41 70 41 88 0 303 6 637-26 931-13 123 2 267-12 380-16 121-14 255-29 363-8 61 1 122-5 183l-41 350c-1 35 2 63-3 98-4 24-18 56-22 80l-118 851c-6 59-22 120-27 176-96 0-84 22-84 102 0 32 11 32 28 58-208 50-28 175-28 188 0 153-54 296-86 435l-367 1192c-28-14-104-27-153-12-60 17-45 63-45 142h43c0 408-19 305-201 709-134 296-313 588-498 853-35 50-67 83-98 133-54 90-231 298-303 371-87 89-210 180-215 243h1131c14-64 6-118 20-183 78-375 192-738 513-983 166-127 338-211 591-249 68-10 132-3 199-14 116-19 351 15 462 45 42 12 54 10 92 22 267 83 484 277 634 511 22 35 21 37 41 74 12 23 27 43 37 63 60 114 112 274 134 401 12 72 31 106 34 182 6 177-21 131 297 131 282 0 565 0 848 0-6-74-49-81-95-120-194-166-470-525-607-756-32-53-59-85-90-140-26-44-53-85-82-134l-163-297c-73-139-273-495-278-629-4-74 0-158 0-233h42c0-154 2-153-154-141-78 6-67-23-111-166-19-60-19-43-37-108-4-15-11-40-16-56l-60-185c-16-57-22-62-37-122-45-179-114-362-150-543-33-163-85-290-85-465 127-10 65-137-28-159 28-43 28-65 28-116 0-53-36-44-85-44l-208-1528c-8-61 1-122-6-183-4-40-18-129-22-166-24-183 0-384-20-575-33-304-26-648-26-960 0-33 59-118 77-138 23-26 36-2 36-51v-479c-25 0-29 2-52-5-3-1-7-3-10-4-3-1-7-4-9-5l-24-19c-81-71-173-127-175-227-3-129 37-495-56-495-107 0-85 92-84 203 1 355 60 321-169 509-32 26-41 42-100 43z" stroke-width="7.62"/><g font-family="&apos;Cassandra&apos;" stroke-width="50"><text x="10500" y="14850" font-size="1087.64" transform="matrix(1.03309 0 0 1.06097-8678.59 7785.19)">Texto 02</text><text x="10500" y="14850" font-size="1199.44" transform="matrix(1.03309 0 0 1.06097-8842.32 6271.13)">Texto 01</text><text x="10500" y="14850" font-size="1087.64" transform="matrix(1.03309 0 0 1.06097-8211.9 9046.85)">00.00.0000</text></g></g><g font-family="&apos;Arial Black&apos;" font-weight="900" stroke-width="7.62" font-size="529.17"><text x="10500" y="14850" transform="matrix(1.03309 0 0 1.06097-6709.06 3484.6)">NN 1</text><text x="10500" y="14850" transform="matrix(1.03309 0 0 1.06097-6723.22 4023.79)">NN 2</text></g></g></g></g></svg>