<svg xmlns="http://www.w3.org/2000/svg" width="744.09" height="1052.36" viewBox="0 0 21000 29700" shape-rendering="geometricPrecision" image-rendering="optimizeQuality" fill-rule="evenodd" clip-rule="evenodd"><defs><clipPath id="0"><path d="m14326 26326c1311 657 3803 531 4559-687 754-1213 590-4717 661-6404 179-4225 632-7429 749-10836 131-3784-2355-6346-5350-6990-4115-884-3897 4903-3376 7822 307 1608 835 3007 1222 4579 713 2899 79 7400 327 10418 127 1042 523 1722 1208 2098"/></clipPath><clipPath id="1"><path d="m6656 26326c-1311 657-3803 531-4559-687-754-1213-590-4717-661-6404-179-4225-632-7429-749-10836-131-3784 2355-6346 5350-6990 4115-884 3897 4903 3376 7822-307 1608-835 3007-1222 4579-713 2899-79 7400-327 10418-127 1042-523 1722-1208 2098"/></clipPath></defs><text x="10081" y="24148" fill="#201e1e" font-family="&apos;Arial Black&apos;" stroke="#201e1e" font-weight="900" stroke-width="7.62" font-size="705.56">40</text><g fill="none" stroke="#373435" stroke-width="80"><circle cx="10533" cy="1008" r="460"/><path d="m10533 198v1621"/><path d="m9723 1008h1621"/><circle cx="10533" cy="25519" r="460"/><path d="m10533 24708v1621"/><path d="m9723 25519h1621"/></g><rect x="9843" y="22866" width="1347" height="637" rx="318" fill="#fff" stroke="#fff" stroke-width="20"/><g fill="#201e1e" font-family="&apos;Arial&apos;" font-size="423.33"><text x="300" y="28462">DESC 1</text><text x="281" y="28926">DESC 2</text><text x="278" y="29422">DESC 3</text></g><g clip-path="url(#0)"><g><g><g/><g/></g><g fill="#201e1e" stroke="#201e1e"><g stroke-linejoin="round" stroke-linecap="round"><path d="m18404 16754c49 37 51 71 77 128h-263c65-58 100-69 186-128zm-4090 0c49 4 140 73 190 108 32 22 9 4 27 20h-263c14-30 38-93 46-128zm-480 64l4 5c0-1-6-3-4-5zm4105-32c0-41 24-3 9 0 0 0-9 45-9 0zm-3145 0c0-41 25-3 9 0 0 0-9 45-9 0zm3703-32l219 77c87 34 104 23 121 67-65-32-202-16-294-16-5-60-24-85-46-128zm-4307 128c-113 0-202-6-294 16v-32c111-2 225-81 356-112-20 30-52 89-62 128zm4431-160c99 0 223-19 263 96l-263-96zm-527 0h232l-217 144c0-71 8-94-15-144zm-3672 0h217v144c-35-25-61-44-103-69l-87-55c-31-22-9-5-27-20zm-557 96c43-123 195-96 263-96l-263 96zm4864-161h-155c40-57 128-106 155 0zm-651-64l130 58c2 2 7 4 10 6h-140v-64zm-3903 64h-155c27-106 114-57 155 0zm356 0c3-2 8-9 10-6 2 5 11-6 20-11l109-47c-7 92-39 64-139 64zm3811-48l33 9-33-9zm108 32l-32-64c79 0 82-2 141-16-27 37-68 52-109 80zm-108-32c-70-2-79-6-109-48 30 2 50 4 67 11 42 18 26-5 42 37zm-3966 16c33-52 66-58 139-64-28 39-85 51-139 64zm-186-64c59 14 62 16 140 16l-32 64c-58-32-71-23-108-80zm3764-129l15 33c1 3 3 8 5 12 29 75 73 349 73 405h-31c0-221-62-356-62-450zm-3160 0c0 19-60 402-93 450 0-72 20-172 34-238 7-29 11-67 19-109 1-1 13-44 14-49l26-54zm3424-80c12 48 11 29 35 76l42 85c-234 0-218 22-141-98 36-56-5-44 64-63zm-3765 161c17-66 61-96 78-161h31c37 145 227 161-109 161zm4090-97zm-4337 0zm4089-48c49 13 27 13 81 45l40 23c26 14 35 17 63 31l64 46c-62 0-132 10-169-17-25-18-62-96-79-128zm-372-32c35 41 30 27 31 96-17-26 1 25-21-42-11-37-6-8-10-54zm-3129 96c0-81-14-64 31-96-3 46 3 16-10 54-19 57-8 23-21 42zm-588 81l247-145c-94 147-17 145-247 145zm4337-97c-45-11-169-70-186-112 48 23 57 16 124 16 26 51 35 54 62 96zm-511 32c-2-84-16-61-31-128h139c-20 31-80 108-108 128zm-3424-128h140c-18 39-30 69-31 128-44-30-79-82-109-128zm-402 96c27-42 35-45 62-96 67 0 76 7 124-16-15 38-145 102-186 112zm3671-209c12 14 23 25 32 47 13 31 13 34 14 82-2-3-5-12-6-10 0 2-4-8-6-10-35-62-33-47-34-109zm449-64c47 25 75 60 93 112h-139c7-96 24-27 46-112zm-3501 193c2-68 8-100 47-129-5 60-1 27-15 65-1 3-11 27-15 33-14 29-6 14-17 31zm-403-193c16 61 31 40 47 112h-139c12-46 42-98 92-112zm3532 48c61 5 97 26 124 64-29 0-61 5-86-7-45-21-25-33-38-57zm-3284 64c28-38 64-59 124-64-19 77-36 64-124 64zm217-96c0 76 1 30-15 48 0-76-1-30 15-48zm2959-16c48 36 25-11 31 64-24-28-21-20-31-64zm-3052 16l5 5c0-1-6-4-5-5zm3408 48c-15-59-15-21-31-80h93c-27 54-11 45-62 80zm-170-80c75 1 51-4 77 48-44-12-47-21-77-48zm-186 16l-18-32 18 32zm-2959 16c10-44 8-36 31-64-6 74 17 28-31 64zm-248 16c17-65 5-47 78-48-33 29-32 34-78 48zm-155-48h93c-15 59-15 21-31 80-50-35-34-26-62-80zm3316-81c33 24 20 3 31 49-35-25-20-3-31-49zm-2882 49c11-46-2-25 31-49-10 46 3 25-31 49zm3036-145h47c7 82 12 22 31 96h-109c20-37 27-41 31-96zm-154 96l-18-31 18 31zm-2851 0l9-34-9 34zm-170-96c19 38 26 42 31 96h-109c67-103 33-77 78-96zm3299 16c24 13 36 19 60 35l64 45h-93c-8-31-9-25-13-34l-18-46zm-325 16c17-17 59 26 17 8 0 0-43 19-17-8zm-2788 0l4 5c0 0-6-3-4-5zm-326 64h-93l124-80c-17 69-29 26-31 80zm3176-144h93c-13 59-26 45-31 112-52-39-37-55-62-112zm-2974 0h93c-16 72-31 51-47 112l-46-112zm3266 5c82-5 93-11 111 59l-111-59zm-3592 59c37-57 18-64 109-64-38 34-51 50-109 64zm3579-241c11 42 27 58 46 96h-108c11-45 31-72 62-96zm-3439 0c31 24 50 51 62 96h-109c20-38 36-54 47-96zm3083 32c18 10 30 15 49 29 18 12 31 24 44 35-102-2-74-25-93-64zm-2820 64c13-11 26-23 43-35 20-14 31-19 50-29-16 62-21 63-93 64zm2944-80zm-2975 0zm3036-48h78c-5 64-9 68-47 96l-31-96zm-3129 96c-37-28-41-32-46-96h77c-19 75-31 17-31 96zm3068-48c-45-12-48-21-78-48 75 1 51-4 78 48zm-2975 0c27-52 3-47 78-48-30 27-34 36-78 48zm2851-225c2 3 5 4 6 9l25 38c11 18 19 31 31 49h-93c6-82 11-21 31-96zm-2727 0c11 50 20 46 31 96h-93l62-96zm2820 32c68 6 21-3 69 24l54 40c-106 0-79 4-123-64zm-2495-80h16v96h-16v-96zm-449 144h-93l45-33c26-16 28-21 64-31-18 37-10 14-16 64zm2696-144h93c-5 54-12 59-31 96-56-42-46-63-62-96zm279 0c80 0 90-6 108 64l-108-64zm-450 0v96c-32-24-24-15-24-51 0-69-15-18 24-45zm-124-81c56 39 47 25 47 113-65-36-47-4-47-113zm-1874 113c0-64 5-65 15-113h31c0 162-5 58-46 113zm-310 64c-19-37-27-42-31-96h93c-25 49-19 64-62 96zm-325-31c18-83 17-65 108-65l-108 65zm2416-226h16v112h-16v-112zm-1657 0h15v112h-15v-112zm2293-16c44 31 56 41 61 112h-92c13-59 25-45 31-112zm-2944 0h31c4 49 15 77 31 112h-93c6-67 18-53 31-112zm2634 48c43 12 70 32 93 64-116 0-60 14-93-64zm-419-80h31v112h-31v-112zm-1487 0h31v112h-31v-112zm-480 144c23-32 50-52 93-64-16 72-10 64-93 64zm1704-64l5 5c-1 0-6-3-5-5zm-945 0l5 5c-1 0-6-3-5-5zm1518-16c0-41 25-3 9 0 0 0-9 45-9 0zm217-16zm-1921-97h31c0 108 39 107-31 113v-113zm-387 97l5 5c-1-1-7-3-5-5zm-201 0zm1487 0h-62c29-19-35-18 31-13 33 2 13 1 31 13zm-403 0h-62c29-19-35-18 31-13 33 2 14 1 31 13zm1069-48c54 15 35 6 62 48-91-8-35 6-62-48zm-372-97h31v145c-49-37-31-58-31-145zm-1084 0h31c0 87 18 108-31 145-12-30 0-74 0-145zm-403 145c27-42 8-33 62-48-21 60-4 24-62 48zm2277-48h78l-18 96c-40-32-35-47-60-96zm-62 48c-56-14-50-9-77-48h77v48zm-2262-48l-27 35c7-45-9-21 27-35zm-247 48v-48c11 0 34-1 45 1 30 7 16 4 32 15-57 16-20 16-77 32zm-124 48l-18-96h80c-11 16-22 40-28 51-23 38 8 13-34 45zm2370-112c0-42 24-3 9 0 0 0-9 44-9 0zm-1999 16l9-35-9 35zm1642 64l-2-16c0-3 0-16 0-21 0-23 2-50 2-76h31c-33 150 36 90-31 113zm-309-225h15v145h-15v-145zm-666 0h15v145h-15v-145zm1192 32c40 72 5 86 0 97-43-4-61 0-55-42 5-31 32-46 55-55zm-743-64h31v144h-31v-144zm-248 0h31v144h-31v-144zm-124 161v-145h31c0 31 5 70 6 93 0 59 25 23-37 52zm-604-49c0-61-5-6 15-48 34 13 10-1 31 19 2 1 24 31 25 36 6 42-12 38-56 42-10-20-15-18-15-49zm-109 16zm1937-16zm-1937 16zm1441-64v145c-94-52-46 2-46-81 0-48-53-55 46-64zm-883 64c0 83 47 29-46 81v-145c97 8 46 16 46 64zm1379-16c-18-20-18-21-31-48 46 18 24-34 31 48zm-47-80l16 32-16-32zm-1828 0c-14 56-6 36-46 64 14-56 6-36 46-64zm1178-16v145c-84-24-31-11-31-65v-16c0-56-55-38 31-64zm728-16c78 19 135 17 233 16 125-1 126-37 170 48h-341c-72-14-42-25-62-64zm-78 32zm-186 80l-44-34c24-38 40-64 91-78-11 47-27 74-47 112zm-185-96c36-9 45-15 92-16-10 42 8 32-31 41-21 5-11 2-30-6-25-9-19-10-31-19zm-1178 32v-48c80 2 45-15 78 32-36 8-36 11-78 16zm-139-48c55 30 57 25 93 80-40 11-18-6-31 32-52-39-37-55-62-112zm-140 32zm-480 32c43-85 44-49 170-48 98 1 155 3 233-16-27 103-175 64-403 64zm1379-193c0-43 51-2 18 1 0 0-4 0-4 0-16 0-14 36-14-1zm1224-64c39 27 48 27 62 80-111-60-60-8-62-80zm-109 48h-46c18-71 28-71 46 0zm-186-48c43 32 58 40-15 48 10-20 15-17 15-48zm-155 16c46 11 23-2 47 32h-47v-32zm-139-16c34 25 19 3 31 48h-31v-48zm-155 16c45 11 22-2 47 32h-47v-32zm-132 32h-23 23zm-116 0h-62c34-48 29-48 62 0zm-372 0h-62c34-48 29-48 62 0zm-178 0h-23 23zm-131-32v32h-47c25-36 3-19 47-32zm-155-16v48h-31c10-44-7-25 31-48zm-163 48h-23 23zm-132-48v48h-31c11-44-6-25 31-48zm-162 48h-24 24zm-194 32c14-55 8-49 62-64-19 73-7 30-62 64zm2401-144c46 11 23-2 47 32h-47v-32zm-155 0h47c-29 112-32 28-47 0zm-108 0v32h-47c25-37 3-19 47-32zm-186 0c37 10 61 4 33 33-36 37-20-9-33-33zm-139 16c0-43 50-3 18 0-23 2-18 35-18 0zm-155-16c45 11 22-2 46 32h-46v-32zm-109 0c-10 38-4 63-32 33-30-30-3-23 32-33zm-186 0c46 11 23-2 47 32h-47v-32zm-186 0v32h-46c24-37 3-19 46-32zm-185 0c45 11 22-2 46 32h-46v-32zm-109 0v32h-46c24-37 3-19 46-32zm-155 0v32h-46c24-37 3-19 46-32zm-162 0h23-23zm-132 0v32h-47c25-37 3-19 47-32zm-186 0c37 10 61 4 33 33-36 37-21-9-33-33zm-108 0v32h-47c24-37 3-19 47-32zm2323-65c2-6 40-37 26 11-12 42 32 13-6 3-5-2-27 18-20-14zm-139-16c36 10 60 5 32 34-35 37-20-9-32-34zm-109 0c-9 38-4 63-32 34-29-30-3-23 32-34zm-186 48v-48c98 27 40 30 0 48zm-139-32c28-35 38-8 15 16-41 42-2 8-15-16zm-155-16c45 11 22-2 47 32h-47v-32zm-139 16c28-35 37-8 15 16-41 42-2 8-15-16zm-109 16c-44 21-18 21-62 0 34-47 29-47 62 0zm-372 0c-43 21-18 21-62 0 34-47 29-47 62 0zm-185-16c28-35 37-8 14 16-40 42-1 8-14-16zm-124-16v32h-47c25-36 3-18 47-32zm-186 0c36 10 60 5 32 34-35 37-20-9-32-34zm-109 0c-10 38-4 63-32 34-29-30-3-23 32-34zm-186 0c37 10 61 5 33 34-35 37-20-9-33-34zm-139 16c28-35 37-8 15 16-41 42-2 8-15-16zm-124 32c-33 1-4 2-5-20-1-30-29-17 2-14 4 1 49 34 3 34zm1193-48c0-43 51-2 18 1 0 0-4 0-4 0-16 0-14 36-14-1zm1208-128c-5-31 20-58 10-11 0 2 0 67-10 11zm-2401 0c-5-31 20-58 10-11 0 2 0 67-10 11zm2277-49h62v49h-62v-49zm-124 0h62v49h-62v-49zm-371 0h46v49h-46v-49zm-124 0h46v49h-46v-49zm-124 0h46v49h-46v-49zm-124 0h46v49h-46v-49zm-124 0h46v49h-46v-49zm-202 0h47v49h-47v-49zm-123 0h46v49h-46v-49zm-124 0h46v49h-46v-49zm-248 0h46v49h-46v-49zm-264 0h62v49h-62v-49zm-124 0h62v49h-62v-49zm-123 0h61v49h-61v-49zm1951 49v-49h62c-16 62-1 42-62 49zm-124 0v-49h62c-31 61 9 47-62 49zm-1208-49h62v49c-74-9-26 22-62-49zm-248 0h62v49c-74-9-26 22-62-49zm1828-160h62v32h-62v-32zm-124 0h62v32h-62v-32zm-124 0h62v32h-62v-32zm-124 0h47v32h-47v-32zm-123 0h46v32h-46v-32zm-124 0h46v32h-46v-32zm-124 0h46v32h-46v-32zm-124 0h46v32h-46v-32zm-124 0h46v32h-46v-32zm-202 0h47v32h-47v-32zm-123 0h46v32h-46v-32zm-124 0h46v32h-46v-32zm-124 0h46v32h-46v-32zm-124 0h46v32h-46v-32zm-140 0h62v32h-62v-32zm-124 0h62v32h-62v-32zm-124 0h62v32h-62v-32zm-123 0h61v32h-61v-32zm2323 0h62v32c-72-6-27 17-62-32zm-2447 32v-32h62c-37 51 10 24-62 32zm2416-113h140v16h-140v-16zm-1131 0h1069v16h-1069v-16zm-1131 0h1069v16h-1069v-16zm-201 0h140v16h-140v-16zm2091-80h-124c15-22 32-53 69-59 52-9 43 4 55 59zm-991-1656c530 0 363-79 454 398 5 28 7 53 11 100l205 1057c8 33 18 62 27 101h-991l170-804c16-72 23-125 32-208l35-205c16-133 54-301 57-439zm-571 1592c58 5 73 33 106 64h-124l18-64zm1624 16l93 48h-77c-12-22-9-18-16-48zm-1797 48l93-64c-6 79-14 64-93 64zm-93-48zm1890 0zm93-49c98 0 74-3 109 65-58-14-70-30-109-65zm-387 65l-17-64 125-1c-33 31-48 60-108 65zm-1224-65h124l-17 64c-58-4-73-33-107-64zm-372 49c8-32 3-25 16-49h77c-34 31-34 44-93 49zm512-177v64h-93v-32c79-7 21-12 93-32zm1409 64v-32c75-21 18-27 93-48 10 42 14 47 31 80-62-14-39 0-124 0zm-371-80c46 25 51 43 108 48v32h-93c-2-24-8-64-15-80zm-1038 16zm-450-16c56 30 58 25 93 80-84 0-61-14-124 0 10-38 36-70 31-80zm1751-32h108c-23 32-49 52-93 64-4-50 1-30-15-64zm-170 0h108c4 49 0 30 15 64-48-13-24-10-63-31-16-8-15-8-31-16l-29-17zm-1333 64c14-29 12-20 16-64l78 17-94 47zm-155-64h109c-14 29-12 20-16 64-43-12-70-32-93-64zm1518-209c27 20 35-6 47 144h-155c34-52 91-76 108-144zm-1301 0h31c18 68 75 92 109 144h-155c5-62 15-63 15-144zm1394 32l155 112c-77 0-80-1-139-16 0-65 5-52-16-96zm-1471 96c-59 15-62 16-140 16l155-128c-10 47-15 49-15 112zm155-177h139c-5 69-25 77-31 145l-108-145zm1347 0h124c14 60 26 45 31 113-48-14-119-80-155-113zm-263 145h-31c0-81-14-72-15-145h139c-15 23-27 44-44 67-34 44-34 19-49 78zm-1410-32c6-68 18-53 31-113h124c-36 33-106 99-155 113zm1751-289c4 49 15 77 31 112h-124c27-41 62-75 93-112zm-418 32c63 15 81 42 124 80h-124v-80zm-1255-32c31 37 66 71 93 112h-124c16-35 27-63 31-112zm1425 48zm-1022 64h-109c26-37 73-68 124-80-10 43-9 30-15 80zm-155-64zm1239-81h108c-14 56-52 85-93 113 0-46-2-81-15-113zm-1410 0h109c-11 48-16 49-16 113h-31c-15-60 4-5-27-52l-30-49c-1-2-3-8-5-12zm1348 81c-52-29-67-43-108-81h108v81zm-1177 0v-81h108c-42 38-57 52-108 81zm1208-241c52 28 67 42 108 80h-108v-80zm-81-20l21 100h-110l89-100zm-1078 4l94 92-112 4 18-96zm-80 0v96h-109c36-32 69-69 109-96zm991 64v-113h93l-36 60c-24 30-29 34-57 53zm-836-113h93v97c-40-11-30-3-60-35-40-41-19-34-33-62zm1130 0h93c6 69-2 29 31 81-63-16-81-42-124-81zm-1456 97c12-50 20-47 31-97h93c-19 18-37 34-59 51-23 18-43 31-65 46zm1503-273c8 37 14 47 15 96h-77c12-47 36-66 62-96zm-1425 16c39 27 48 27 62 80h-78c1-56-2-43 16-80zm1053 16c44 12 70 32 93 64h-77c-4-50 0-30-16-64zm-697 64h-77c30-47 32-50 93-64-18 37-10 14-16 64zm-279-129h78c-9 38-15 48-16 97l-62-97zm1178 0h92c-20 78-26 19-46 97l-46-97zm-140 0c83 0 77-8 93 65-43-12-70-32-93-65zm-898 65c6-80 14-65 93-65-30 27-48 52-93 65zm945-241c30 129 30 99-78 96 23-87 49-86 78-96zm-914 112c0-63 5-65 15-112h31c11 49 24 61 47 96-42 1-62 4-93 16zm991-112l97 92c-86 51-97-22-97-92zm-1146 96l89-100c4 70 0 144-89 100zm929-64c-7-94-53-113 78-113-15 67-30 80-78 113zm-697-113c124 0 78 3 78 113-70-49-46-40-78-113zm945 0c104 0 87 2 108 97-53-15-81-55-108-97zm-1224 97c7-86 19-97 109-97-27 42-55 82-109 97zm1271-274c1 71 10 50 15 113h-93c27-54 41-69 78-113zm-326 0c46 56 34 64 93 81v32c-106 0-93-6-93-113zm-650 113c16-48 0-16 38-56 23-24 37-35 55-57 0 107 13 113-93 113zm-217-113c12 50 38 76 62 113h-93c0-30-1-40 4-67 9-51-9-5 27-46zm1084 49c-2-4-4-13-5-11-1 2-4-9-5-11-29-80 18 60-8-23-8-25-6-21-13-52h78c-20 38-36 55-47 97zm-174-93c83-2 44-12 72 22 13 16 20 49 25 71l-97-93zm-736 96c15-88-1-98 89-100l-89 100zm-66-3c-26-31-50-50-62-97h78c-21 45-16 31-16 97zm961-193l4 5c0-1-6-4-4-5zm-93 0l4 5c0-1-6-4-4-5zm-264 0l5 5c0-1-6-4-5-5zm-263 0l5 5c-1-1-7-4-5-5zm-356 0l4 5c0-1-6-4-4-5zm976-257l4 4c0 0-6-3-4-4zm-248 0l4 4c0 0-6-3-4-4zm-480 0l4 4c0 0-6-3-4-4zm-248 0l4 4c0 0-6-3-4-4zm976-81c16-17 58 26 17 8-1 0-43 19-17-8zm-140 0h78v16h-78v-16zm-124 0c18-19 87 27 20 7-2-1-47 21-20-7zm-77 16h-62c29-19-35-18 31-13 33 2 13 1 31 13zm-217 0h-62c29-19-35-18 31-13 33 2 14 1 31 13zm-140 0h-61c28-19-35-18 31-13 33 2 13 1 30 13zm-139 0h-62c29-19-34-18 31-13 33 2 14 1 31 13zm-155-16c17-17 59 26 17 8 0 0-43 19-17-8zm883-161c40 28 49 28 62 81h-62v-81zm-387-1704c51 39 32 18 31 209-1 92 0 162 10 230 22 143 19 310 34 448 9 82 3 160 13 228l67 670h-279c3-142 45-387 47-418 4-95 6-149 13-227l33-448c-2-190 31-395 31-692zm-279 1704c26 32 35 35 47 81h-62c3-44 7-44 15-81zm542 81c16-60 16-21 31-81 1 2 28 15 23 52-7 47-1 23-54 29zm-681 0c13-53 22-53 62-81-2 75 7 73-62 81zm852-161c55 15 41 1 46 64-61-42-22-16-46-64zm-217 80c0-91-14-61 31-80 16 40-9 54-9 54-12 20-22 25-22 26zm-434-80c44 19 31-11 31 80-6-7-22-23-28-34-36-79 5 22-3-46zm-232 64v-64h46c-19 73-12 29-46 64zm898-225v81c-79-8-38-35 0-81zm-852 0c10 43 14 47 31 81h-62l31-81zm589 16c35 13 14-1 37 26 27 34 15 15 25 55-84-36-18 23-62-81zm-403 65c-1-2 0-8 0-6 1 5-4-40 62-59-5 11-18 46-26 55-39 43-28 13-36 10zm-31-97zm-126-47l49-1v64h-31l-18-63zm761 63h-31v-64c67 6 42-25 31 64zm-155-64h47v64c-20-23 6 11-21-26-14-19-16-22-26-38zm-480 48c8-72-23-40 46-48l-46 48zm589-193c19 23-6-11 21 27 13 18 15 22 25 38h-46v-65zm-78-16c4 44 7 44 16 81h-62c13-59 8-52 46-81zm-487-2c22 62 23 23 38 83h-62l24-83zm-86 18v65h-46c27-54 1-30 46-65zm-62-48v-64h31c-7 84-28 58-31 64zm744-64c41 17 29-33 31 64-85-59-28-33-31-64zm-202 96v-96c33 9 54-4 26 55l-26 41zm-310-96v96c-36-44-70-75 0-96zm496-145h31v80h-46c8-36 12-37 15-80zm-201 16l65 61-65 3v-64zm-279 0v64h-62c7-10 11-23 25-37 24-25 1-13 37-27zm-232-16c37 29 33 22 46 80h-46v-80zm511 16zm124-96h46l-24 82c-9-26-15-66-22-82zm-93 0c16-17 59 25 17 8 0 0-43 19-17-8zm-357 32c-26 3-21-48-1-22 0 0 1 2 1 2 0 0 0 4 0 5 1 1 13 13 0 15zm-108 48c-8-37-12-37-15-80 82 7 34 2 36 24 5 47-20 54-21 56zm542-257c26 31 50 50 62 96h-62v-96zm-75 33zm-482 63c11-45 30-72 62-96 0 85 15 88-62 96zm108-64c42 16 32-1 46 64-54-23-11 11-46-64zm70-113h23-23zm407 4l50-4v49l-50-45zm-136 45c-42-32-58-40 15-49-11 22-12 43-15 49zm-462 3l-3-52h47l-44 52zm619-196zm-188 16c34 25 19 3 31 48h-31v-48zm-231-16zm-172 0l17 64h-32c0-9-1-26 1-31 8-31 2-16 14-33zm542-81c0-41 25-2 9 0 0 0-9 45-9 0zm-108-16c47 37 25-10 31 65-11-13-10-5-20-28-14-29-6-24-11-37zm-310 65c6-75-17-28 31-65-7 30-7 53-31 65zm-93-49c0-41 25-2 9 0 0 0-9 45-9 0zm511-144l18 63-33 1c0-9-1-26 1-31 8-31 2-16 14-33zm-494 0zm417-32c0 65 5 51-16 96-54-41-19-54 16-96zm-341 0c32 38 48 54 31 96-45-34-31-13-31-96zm263-16l16-81c-2 24-9 64-16 81zm155-65c0-41 25-2 9 0 0 0-9 45-9 0zm-372-16h47v64c-62-42-22-16-47-64zm-154 16c3-33 82 4 14 2-6 0-19 34-14-2zm528-160zm-157 0l18 63-33 1c0-9 0-26 1-31 8-31 2-16 14-33zm-170 0v64h-47c8-12 7-12 19-29 13-18 17-22 28-35zm-170 0l17 63-33 1c0-9 0-26 1-31 9-31 2-16 15-33zm464-129c0 9 1 26-1 31-8 28-5 18-14 33-18-87-26-17 15-64zm-124 16c0-49 24-10 23 12-3 56-23-5-23-12zm-201 32c-33 1-4 2-5-20-1-30-30-17 2-14 4 0 49 33 3 34zm-93-48c0 9 0 26-1 31-8 28-5 18-15 33-17-87-25-17 16-64zm372-129c45 35 19 11 46 65h-46v-65zm-78 49c0-44 56 0 14 0-15 1-14 36-14 0zm-217-33c19 22 17 21 31 49-40-16-23 0-31-49zm-93 49c36-69-4-30 47-49-27 54 3 43-47 49zm450-129zm0 0l-18-31 18 31zm-465 16c-46 9 4-57 5-28 0 3 11 25-5 28zm310-16c-40 5-5-54-1-20 0 0 1 4 1 5 0 1 13 13 0 15zm-171-32c27-28 52 43 14 12-1-1-36 11-14-12zm295-81c-9-46 33 5 16 3-32-2-10 31-16-3zm-434 0c0-43 55 0 14 1-16 1-14 36-14-1zm279-48c45 35 19 11 46 65-63-18-38-2-46-65zm-140 65c35-75-8-42 47-65-32 70 8 48-47 65zm264-145c0-41 24-3 9 0 0 0-9 45-9 0zm-357 0c0-41 25-3 10 0-1 0-10 45-10 0zm357-97c0-41 24-2 9 0 0 0-9 45-9 0zm-93 0c0-41 24-2 9 0 0 0-9 45-9 0zm-171 0c0-41 25-2 10 0-1 0-10 45-10 0zm-93 0c0-41 25-2 10 0-1 0-10 45-10 0zm-15-144l-9 34 9-34zm263 32c-33 0-4 2-5-20-1-30-29-18 2-14 4 0 49 33 3 34zm-139-48h31v48c-59-43-7 0-31-48zm263 0l5 4c0 0-6-3-5-4zm-387 16zm248-97c0-41 24-2 9 0 0 0-9 45-9 0zm-248 0c0-41 25-2 9 0 0 0-9 45-9 0zm372-16c26-28 52 44 14 13-2-2-37 11-14-13zm-248 0c16-17 59 26 17 9 0-1-43 18-17-9zm-93-161c18 31 17-35 13 33-3 34-2 14-13 32v-65zm325 33c-5-31 20-58 10-11 0 2 1 67-10 11zm-95-32l33-1c0 9 1 27-1 32-8 28-5 17-14 33l-18-64zm-139 63zm234-144c0-41 25-2 9 0 0 0-9 45-9 0zm-62-32c-7 84 15 29-31 48 2-3 4-13 5-11l26-37zm-186 0c19 21 17 20 31 48-40-16-23 0-31-48zm-77 32c0-41 24-2 9 0 0 0-9 45-9 0zm341-129c0-41 24-2 9 0 0 1-9 45-9 0zm-140 0c0-41 25-2 10 0-1 1-10 45-10 0zm-77 0c0-41 24-2 9 0 0 1-9 45-9 0zm-140 0c0-41 25-2 10 0-1 1-10 45-10 0zm357-112c-6-30 19-57 10-10-1 1 0 66-10 10zm-140 0c-5-30 20-57 10-10 0 1 1 66-10 10zm-77-16c0-41 24-3 9 0 0 0-9 45-9 0zm-155 0c1-7 40-37 26 11-13 41 31 12-6 2-5-1-27 18-20-13zm325-80v-65h47l-47 65zm-77-65l4 5c0 0-6-3-4-5zm-124 0c16-17 59 26 17 9 0-1-43 18-17-9zm-93 0h46v65c-19-24 6 11-21-27-13-18-15-22-25-38zm232-80l5 5c0-1-6-4-5-5zm-139 0l5 5c-1-1-7-4-5-5zm108-113c0-41 25-2 10 0-1 0-10 45-10 0zm-77 0c0-41 24-2 9 0 0 0-9 45-9 0zm77-112c0-41 25-3 10 0-1 0-10 45-10 0zm-77 0c0-41 24-3 9 0 0 0-9 45-9 0zm186-129l4 5c0 0-6-3-4-5zm-93 0c16-17 59 26 17 9 0-1-43 18-17-9zm-124 0c16-17 59 26 17 9 0-1-43 18-17-9zm-78 0l5 5c0 0-6-3-5-5zm403-257c-38 16-12 11-62 0 34-48 28-48 62 0zm-170-32c37 10 60 5 32 34-35 36-20-9-32-34zm-178 0h23-23zm-124 0h23-23zm255-402c278 67 270-63 279 48h-279v-48zm-62 0v48h-278c6-82-38-38 107-32 82 4 110-1 171-16zm62-225c64 44 57 68 159 141 27 18 7 1 27 20h-186v-161zm-62 0v161h-186l186-161zm-340 161v578c64 6 55 17 78 63 11 22 46 79 46 98 0 335 6 705-29 1031-15 136 2 296-14 420-17 135-15 283-31 402-9 68 1 136-6 203l-44 388c-2 38 2 70-4 108-5 26-19 62-24 88l-129 943c-7 65-24 133-29 195-106 0-93 24-93 112 0 36 12 36 31 65-228 55-31 194-31 209 0 168-59 327-94 481l-402 1319c-31-16-114-29-168-13-66 19-49 70-49 158h47c0 451-21 337-220 784-147 328-343 652-546 945-38 55-74 91-107 146-60 101-253 331-332 411-96 99-230 200-236 270h1239c16-72 7-131 22-203 86-416 211-817 562-1088 182-141 371-234 648-276 75-11 145-4 218-16 127-20 384 17 507 51 45 13 58 11 100 24 293 91 531 306 695 565 24 39 23 42 45 82 13 26 29 48 41 70 65 126 122 303 146 444 13 80 34 118 37 202 7 196-23 145 325 145 310 0 620 0 930 0-7-82-53-90-104-134-213-183-515-580-666-836-34-59-64-94-98-155-29-49-58-94-90-148l-178-330c-80-154-299-548-305-696-4-81 0-174 0-257h47c0-171 1-171-170-157-85 6-73-26-122-184-20-66-20-47-40-119-4-16-12-45-18-62l-65-205c-18-63-24-68-41-135-49-199-124-400-164-601-36-181-93-322-93-515 139-12 71-152-31-176 30-47 31-72 31-129 0-58-39-48-93-48l-228-1692c-9-68 0-136-7-203-4-44-19-142-24-183-26-203 1-426-22-637-36-337-29-717-29-1063 0-36 65-130 85-153 26-28 39-2 39-56v-530c-27 0-31 2-56-6-4-1-8-3-12-4-3-2-7-4-10-6l-26-21c-88-79-189-141-191-251-3-143 40-548-61-548-118 0-93 102-93 225 1 392 66 355-185 563-35 29-45 46-109 48z" stroke-width="7.62"/><g font-family="&apos;Cassandra&apos;" stroke-width="50"><text x="10500" y="14850" font-size="1087.64" transform="matrix(1.13196 0 0 1.17463 1308.38 6915.92)">Texto 02</text><text x="10500" y="14850" font-size="1199.44" transform="matrix(1.13196 0 0 1.17463 1252.51 5290.19)">Texto 01</text><text x="10500" y="14850" font-size="1087.64" transform="matrix(1.13196 0 0 1.17463 1749.85 8312.74)">00.00.0000</text></g></g><g font-family="&apos;Arial Black&apos;" font-weight="900" stroke-width="7.62" font-size="529.17"><text x="10500" y="14850" transform="matrix(1.13196 0 0 1.17463 3668.54 2154.64)">NN 1</text><text x="10500" y="14850" transform="matrix(1.13196 0 0 1.17463 3653.03 2751.6)">NN 2</text></g></g></g></g><g clip-path="url(#1)"><g><g><g><path d="m19592 31013l71-31305c227-1260 670-2368 817-2536l-82 35245c-617-744-613-934-806-1404z" fill="#ff0a4b" stroke="#ff0a4b" stroke-width="7.62"/></g><g/></g><g fill="#201e1e" stroke="#201e1e"><g stroke-linejoin="round" stroke-linecap="round"><path d="m6825 16754c50 37 51 71 77 128h-263c65-58 101-69 186-128zm-4090 0c49 4 141 73 190 108 32 22 10 4 27 20h-263c14-30 39-93 46-128zm-480 64l5 5c-1-1-6-3-5-5zm4105-32c0-41 25-3 9 0 0 0-9 45-9 0zm-3144 0c0-41 24-3 9 0 0 0-9 45-9 0zm3702-32l219 77c87 34 105 23 122 67-66-32-203-16-295-16-4-60-24-85-46-128zm-4307 128c-113 0-202-6-294 16v-32c111-2 225-81 356-112-19 30-51 89-62 128zm4431-160c99 0 223-19 263 96l-263-96zm-527 0h233l-217 144c0-71 8-94-16-144zm-3671 0h217v144c-36-25-62-44-104-69l-86-55c-32-22-10-5-27-20zm-558 96c43-123 196-96 263-96l-263 96zm4864-161h-155c41-57 128-106 155 0zm-650-64l129 58c2 2 7 4 10 6h-139v-64zm-3904 64h-155c27-106 115-57 155 0zm356 0c3-2 9-9 10-6 2 5 11-6 21-11l109-47c-8 92-40 64-140 64zm3811-48l33 9-33-9zm108 32l-31-64c78 0 81-2 140-16-27 37-68 52-109 80zm-108-32c-70-2-78-6-108-48 29 2 49 4 66 11 43 18 26-5 42 37zm-3966 16c34-52 66-58 140-64-28 39-85 51-140 64zm-186-64c59 14 62 16 140 16l-32 64c-58-32-70-23-108-80zm3765-129l14 33c2 3 3 8 5 12 29 75 74 349 74 405h-31c0-221-62-356-62-450zm-3160 0c0 19-61 402-93 450 0-72 19-172 34-238 6-29 10-67 19-109 0-1 12-44 14-49l26-54zm3423-80c13 48 11 29 35 76l43 85c-235 0-219 22-142-98 36-56-5-44 64-63zm-3764 161c17-66 60-96 77-161h31c38 145 227 161-108 161zm4089-97zm-4337 0zm4090-48c48 13 26 13 80 45l40 23c26 14 36 17 63 31l64 46c-61 0-132 10-169-17-25-18-62-96-78-128zm-372-32c34 41 29 27 31 96-18-26 0 25-21-42-12-37-7-8-10-54zm-3129 96c0-81-15-64 31-96-4 46 2 16-10 54-19 57-9 23-21 42zm-589 81l248-145c-95 147-18 145-248 145zm4337-97c-45-11-169-70-185-112 47 23 56 16 123 16 27 51 35 54 62 96zm-511 32c-2-84-16-61-31-128h140c-21 31-80 108-109 128zm-3423-128h139c-18 39-30 69-31 128-44-30-78-82-108-128zm-403 96c27-42 36-45 62-96 67 0 76 7 124-16-15 38-145 102-186 112zm3671-209c12 14 23 25 32 47 13 31 14 34 15 82-2-3-5-12-6-10-1 2-5-8-6-10-36-62-33-47-35-109zm450-64c46 25 74 60 92 112h-139c8-96 25-27 47-112zm-3501 193c1-68 8-100 46-129-5 60-1 27-15 65-1 3-11 27-14 33-14 29-7 14-17 31zm-403-193c15 61 30 40 46 112h-139c12-46 43-98 93-112zm3532 48c60 5 96 26 124 64-30 0-61 5-86-7-45-21-26-33-38-57zm-3284 64c27-38 63-59 124-64-20 77-37 64-124 64zm217-96c0 76 0 30-16 48 0-76 0-30 16-48zm2958-16c48 36 25-11 31 64-23-28-21-20-31-64zm-3051 16l4 5c0-1-6-4-4-5zm3408 48c-16-59-16-21-31-80h93c-28 54-12 45-62 80zm-171-80c75 1 51-4 78 48-44-12-48-21-78-48zm-186 16l-18-32 18 32zm-2958 16c9-44 7-36 30-64-5 74 17 28-30 64zm-248 16c16-65 4-47 77-48-32 29-32 34-77 48zm-155-48h93c-16 59-16 21-31 80-51-35-35-26-62-80zm3315-81c33 24 20 3 31 49-34-25-19-3-31-49zm-2882 49c11-46-2-25 31-49-10 46 3 25-31 49zm3037-145h46c7 82 12 22 31 96h-108c19-37 26-41 31-96zm-155 96l-18-31 18 31zm-2851 0l9-34-9 34zm-170-96c19 38 27 42 31 96h-108c67-103 33-77 77-96zm3300 16c24 13 35 19 59 35l65 45h-93c-8-31-10-25-14-34l-17-46zm-326 16c17-17 59 26 18 8-1 0-44 19-18-8zm-2788 0l5 5c-1 0-7-3-5-5zm-325 64h-93l124-80c-18 69-30 26-31 80zm3175-144h93c-13 59-25 45-31 112-51-39-37-55-62-112zm-2974 0h93c-16 72-31 51-46 112l-47-112zm3266 5c83-5 93-11 111 59l-111-59zm-3591 59c36-57 17-64 108-64-38 34-50 50-108 64zm3578-241c11 42 27 58 47 96h-109c12-45 31-72 62-96zm-3439 0c31 24 51 51 62 96h-108c19-38 35-54 46-96zm3083 32c19 10 30 15 50 29 17 12 30 24 43 35-102-2-74-25-93-64zm-2820 64c13-11 26-23 44-35 19-14 31-19 49-29-16 62-20 63-93 64zm2944-80zm-2974 0zm3036-48h77c-5 64-9 68-46 96l-31-96zm-3129 96c-38-28-42-32-47-96h78c-20 75-31 17-31 96zm3067-48c-44-12-48-21-78-48 75 1 51-4 78 48zm-2974 0c26-52 2-47 77-48-30 27-33 36-77 48zm2850-225c2 3 6 4 7 9l25 38c11 18 18 31 30 49h-93c6-82 12-21 31-96zm-2727 0c12 50 20 46 31 96h-93l62-96zm2820 32c68 6 22-3 69 24l55 40c-107 0-80 4-124-64zm-2494-80h15v96h-15v-96zm-449 144h-93l45-33c25-16 27-21 63-31-18 37-9 14-15 64zm2695-144h93c-4 54-12 59-31 96-56-42-45-63-62-96zm279 0c80 0 90-6 108 64l-108-64zm-449 0v96c-33-24-25-15-25-51 0-69-15-18 25-45zm-124-81c55 39 46 25 46 113-65-36-46-4-46-113zm-1875 113c0-64 5-65 16-113h31c0 162-6 58-47 113zm-310 64c-19-37-26-42-31-96h93c-25 49-19 64-62 96zm-325-31c19-83 17-65 109-65l-109 65zm2417-226h15v112h-15v-112zm-1658 0h16v112h-16v-112zm2293-16c44 31 56 41 62 112h-93c13-59 25-45 31-112zm-2943 0h30c4 49 15 77 31 112h-92c5-67 17-53 31-112zm2633 48c43 12 70 32 93 64-115 0-59 14-93-64zm-418-80h31v112h-31v-112zm-1487 0h31v112h-31v-112zm-481 144c23-32 50-52 93-64-16 72-10 64-93 64zm1704-64l5 5c0 0-6-3-5-5zm-945 0l5 5c0 0-6-3-5-5zm1519-16c0-41 24-3 9 0 0 0-9 45-9 0zm216-16zm-1920-97h31c0 108 38 107-31 113v-113zm-388 97l5 5c0-1-6-3-5-5zm-201 0zm1487 0h-62c29-19-35-18 31-13 33 2 14 1 31 13zm-403 0h-62c29-19-34-18 31-13 34 2 14 1 31 13zm1069-48c54 15 35 6 62 48-91-8-35 6-62-48zm-372-97h31v145c-49-37-31-58-31-145zm-1084 0h31c0 87 18 108-31 145-12-30 0-74 0-145zm-403 145c27-42 8-33 62-48-21 60-3 24-62 48zm2277-48h78l-18 96c-40-32-35-47-60-96zm-62 48c-56-14-49-9-77-48h77v48zm-2261-48l-28 35c7-45-9-21 28-35zm-248 48v-48c11 0 34-1 45 1 30 7 16 4 32 15-57 16-20 16-77 32zm-124 48l-18-96h80c-11 16-22 40-28 51-23 38 8 13-34 45zm2370-112c0-42 25-3 9 0 0 0-9 44-9 0zm-1998 16l8-35-8 35zm1642 64l-3-16c0-3 0-16 0-21 0-23 3-50 3-76h31c-34 150 35 90-31 113zm-310-225h15v145h-15v-145zm-666 0h15v145h-15v-145zm1193 32c39 72 4 86 0 97-44-4-62 0-56-42 5-31 32-46 56-55zm-744-64h31v144h-31v-144zm-248 0h31v144h-31v-144zm-124 161v-145h31c0 31 6 70 6 93 0 59 25 23-37 52zm-604-49c0-61-5-6 16-48 33 13 10-1 31 19 1 1 23 31 24 36 6 42-12 38-55 42-11-20-16-18-16-49zm-108 16zm1936-16zm-1936 16zm1440-64v145c-93-52-46 2-46-81 0-48-52-55 46-64zm-883 64c0 83 48 29-46 81v-145c97 8 46 16 46 64zm1379-16c-17-20-18-21-31-48 46 18 24-34 31 48zm-46-80l15 32-15-32zm-1828 0c-15 56-6 36-47 64 15-56 6-36 47-64zm1177-16v145c-84-24-31-11-31-65v-16c0-56-54-38 31-64zm728-16c78 19 135 17 233 16 126-1 127-37 170 48h-341c-71-14-42-25-62-64zm-77 32zm-186 80l-45-34c24-38 41-64 91-78-10 47-27 74-46 112zm-186-96c36-9 46-15 93-16-11 42 7 32-32 41-21 5-10 2-30-6-25-9-19-10-31-19zm-1177 32v-48c79 2 44-15 77 32-35 8-36 11-77 16zm-140-48c56 30 58 25 93 80-40 11-17-6-31 32-52-39-37-55-62-112zm-139 32zm-481 32c44-85 45-49 170-48 98 1 155 3 233-16-26 103-174 64-403 64zm1379-193c0-43 51-2 18 1 0 0-4 0-4 0-16 0-14 36-14-1zm1224-64c39 27 48 27 62 80-110-60-60-8-62-80zm-108 48h-47c18-71 28-71 47 0zm-186-48c42 32 58 40-16 48 11-20 16-17 16-48zm-155 16c45 11 22-2 46 32h-46v-32zm-140-16c35 25 20 3 31 48h-31v-48zm-155 16c46 11 23-2 47 32h-47v-32zm-131 32h-24 24zm-116 0h-62c33-48 28-48 62 0zm-372 0h-62c34-48 28-48 62 0zm-178 0h-24 24zm-132-32v32h-47c25-36 3-19 47-32zm-155-16v48h-31c10-44-6-25 31-48zm-163 48h-23 23zm-131-48v48h-31c10-44-7-25 31-48zm-163 48h-23 23zm-194 32c15-55 9-49 62-64-18 73-7 30-62 64zm2401-144c46 11 23-2 47 32h-47v-32zm-154 0h46c-29 112-32 28-46 0zm-109 0v32h-46c24-37 3-19 46-32zm-186 0c37 10 61 4 33 33-36 37-20-9-33-33zm-139 16c0-43 51-3 18 0-23 2-18 35-18 0zm-155-16c45 11 22-2 46 32h-46v-32zm-109 0c-9 38-4 63-32 33-29-30-3-23 32-33zm-185 0c45 11 22-2 46 32h-46v-32zm-186 0v32h-47c25-37 3-19 47-32zm-186 0c45 11 22-2 46 32h-46v-32zm-109 0v32h-46c24-37 3-19 46-32zm-155 0v32h-46c24-37 3-19 46-32zm-162 0h23-23zm-132 0v32h-46c24-37 3-19 46-32zm-186 0c37 10 61 4 33 33-36 37-20-9-33-33zm-108 0v32h-47c25-37 3-19 47-32zm2323-65c2-6 40-37 26 11-12 42 32 13-6 3-5-2-26 18-20-14zm-139-16c37 10 61 5 33 34-36 37-20-9-33-34zm-108 0c-10 38-5 63-33 34-29-30-3-23 33-34zm-186 48v-48c98 27 39 30 0 48zm-140-32c28-35 38-8 15 16-40 42-1 8-15-16zm-155-16c46 11 23-2 47 32h-47v-32zm-139 16c28-35 37-8 15 16-41 42-2 8-15-16zm-108 16c-44 21-19 21-62 0 33-47 28-47 62 0zm-372 0c-44 21-18 21-62 0 34-47 28-47 62 0zm-186-16c28-35 37-8 15 16-41 42-2 8-15-16zm-124-16v32h-47c25-36 3-18 47-32zm-186 0c37 10 61 5 33 34-36 37-20-9-33-34zm-108 0c-10 38-5 63-33 34-29-30-3-23 33-34zm-186 0c36 10 60 5 32 34-35 37-20-9-32-34zm-140 16c28-35 38-8 15 16-40 42-1 8-15-16zm-124 32c-32 1-4 2-5-20-1-30-29-17 2-14 4 1 50 34 3 34zm1193-48c0-43 51-2 18 1 0 0-4 0-4 0-16 0-14 36-14-1zm1208-128c-5-31 20-58 10-11 0 2 1 67-10 11zm-2401 0c-5-31 20-58 10-11 0 2 1 67-10 11zm2278-49h61v49h-61v-49zm-124 0h62v49h-62v-49zm-372 0h46v49h-46v-49zm-124 0h46v49h-46v-49zm-124 0h46v49h-46v-49zm-124 0h46v49h-46v-49zm-124 0h47v49h-47v-49zm-201 0h46v49h-46v-49zm-124 0h46v49h-46v-49zm-124 0h46v49h-46v-49zm-248 0h46v49h-46v-49zm-263 0h62v49h-62v-49zm-124 0h62v49h-62v-49zm-124 0h62v49h-62v-49zm1952 49v-49h62c-16 62-2 42-62 49zm-124 0v-49h62c-31 61 8 47-62 49zm-1209-49h62v49c-74-9-26 22-62-49zm-247 0h62v49c-74-9-27 22-62-49zm1828-160h61v32h-61v-32zm-124 0h62v32h-62v-32zm-124 0h62v32h-62v-32zm-124 0h46v32h-46v-32zm-124 0h46v32h-46v-32zm-124 0h46v32h-46v-32zm-124 0h46v32h-46v-32zm-124 0h46v32h-46v-32zm-124 0h47v32h-47v-32zm-201 0h46v32h-46v-32zm-124 0h46v32h-46v-32zm-124 0h46v32h-46v-32zm-124 0h46v32h-46v-32zm-124 0h46v32h-46v-32zm-139 0h62v32h-62v-32zm-124 0h62v32h-62v-32zm-124 0h62v32h-62v-32zm-124 0h62v32h-62v-32zm2323 0h62v32c-72-6-27 17-62-32zm-2447 32v-32h62c-36 51 11 24-62 32zm2416-113h140v16h-140v-16zm-1130 0h1069v16h-1069v-16zm-1131 0h1069v16h-1069v-16zm-202 0h140v16h-140v-16zm2092-80h-124c14-22 31-53 69-59 51-9 42 4 55 59zm-992-1656c530 0 364-79 454 398 5 28 8 53 11 100l206 1057c7 33 18 62 26 101h-991l170-804c16-72 23-125 32-208l35-205c16-133 54-301 57-439zm-571 1592c58 5 73 33 107 64h-124l17-64zm1625 16l93 48h-78c-12-22-8-18-15-48zm-1797 48l93-64c-7 79-15 64-93 64zm-93-48zm1890 0zm93-49c98 0 74-3 108 65-58-14-70-30-108-65zm-388 65l-17-64 126-1c-34 31-49 60-109 65zm-1223-65h123l-17 64c-58-4-73-33-106-64zm-372 49c8-32 3-25 15-49h78c-34 31-35 44-93 49zm511-177v64h-93v-32c79-7 21-12 93-32zm1410 64v-32c75-21 18-27 93-48 9 42 14 47 31 80-63-14-40 0-124 0zm-372-80c46 25 52 43 108 48v32h-93c-2-24-8-64-15-80zm-1038 16zm-449-16c55 30 57 25 93 80-85 0-62-14-124 0 10-38 35-70 31-80zm1750-32h109c-23 32-50 52-93 64-4-50 0-30-16-64zm-170 0h108c4 49 0 30 16 64-48-13-25-10-64-31-16-8-15-8-30-16l-30-17zm-1332 64c14-29 12-20 15-64l79 17-94 47zm-155-64h108c-14 29-12 20-15 64-44-12-70-32-93-64zm1518-209c26 20 34-6 46 144h-155c34-52 91-76 109-144zm-1301 0h31c17 68 74 92 108 144h-155c5-62 16-63 16-144zm1394 32l155 112c-78 0-81-1-140-16 0-65 5-52-15-96zm-1472 96c-59 15-62 16-139 16l155-128c-11 47-16 49-16 112zm155-177h139c-5 69-25 77-31 145l-108-145zm1348 0h124c13 60 25 45 31 113-49-14-119-80-155-113zm-264 145h-31c0-81-14-72-15-145h139c-14 23-27 44-44 67-34 44-34 19-49 78zm-1409-32c5-68 17-53 31-113h124c-36 33-107 99-155 113zm1750-289c4 49 15 77 31 112h-124c27-41 62-75 93-112zm-418 32c64 15 81 42 124 80h-124v-80zm-1255-32c31 37 66 71 93 112h-124c16-35 27-63 31-112zm1425 48zm-1022 64h-109c27-37 73-68 124-80-9 43-9 30-15 80zm-155-64zm1239-81h109c-15 56-53 85-93 113 0-46-2-81-16-113zm-1409 0h108c-11 48-15 49-15 113h-31c-16-60 3-5-28-52l-30-49c-1-2-3-8-4-12zm1347 81c-51-29-66-43-108-81h108v81zm-1177 0v-81h108c-41 38-56 52-108 81zm1208-241c52 28 67 42 109 80h-109v-80zm-81-20l22 100h-111l89-100zm-1078 4l94 92-112 4 18-96zm-80 0v96h-108c35-32 68-69 108-96zm991 64v-113h93l-35 60c-24 30-30 34-58 53zm-836-113h93v97c-40-11-30-3-60-35-40-41-19-34-33-62zm1131 0h93c5 69-2 29 31 81-64-16-82-42-124-81zm-1456 97c11-50 19-47 31-97h93c-19 18-37 34-60 51-23 18-42 31-64 46zm1502-273c9 37 15 47 16 96h-78c12-47 36-66 62-96zm-1425 16c40 27 48 27 62 80h-77c1-56-3-43 15-80zm1053 16c44 12 71 32 93 64h-77c-4-50 0-30-16-64zm-697 64h-77c30-47 32-50 93-64-18 37-9 14-16 64zm-278-129h77c-9 38-14 48-16 97l-61-97zm1177 0h93c-20 78-27 19-47 97l-46-97zm-140 0c83 0 77-8 93 65-43-12-70-32-93-65zm-898 65c6-80 14-65 93-65-30 27-48 52-93 65zm945-241c30 129 30 99-78 96 23-87 50-86 78-96zm-914 112c0-63 5-65 15-112h31c11 49 24 61 47 96-42 1-62 4-93 16zm991-112l97 92c-86 51-97-22-97-92zm-1146 96l89-100c5 70 0 144-89 100zm929-64c-7-94-53-113 78-113-15 67-30 80-78 113zm-697-113c124 0 78 3 78 113-70-49-46-40-78-113zm945 0c104 0 88 2 109 97-54-15-82-55-109-97zm-1223 97c6-86 18-97 108-97-27 42-55 82-108 97zm1270-274c1 71 10 50 15 113h-93c28-54 41-69 78-113zm-326 0c47 56 34 64 93 81v32c-106 0-93-6-93-113zm-650 113c17-48 0-16 39-56 22-24 36-35 54-57 0 107 13 113-93 113zm-217-113c13 50 38 76 62 113h-93c1-30-1-40 4-67 10-51-9-5 27-46zm1084 49c-2-4-4-13-5-11 0 2-4-9-5-11-29-80 18 60-8-23-8-25-6-21-13-52h78c-20 38-36 55-47 97zm-174-93c84-2 44-12 72 22 13 16 20 49 25 71l-97-93zm-736 96c15-88-1-98 89-100l-89 100zm-66-3c-25-31-50-50-62-97h78c-21 45-16 31-16 97zm961-193l4 5c0-1-6-4-4-5zm-93 0l5 5c-1-1-7-4-5-5zm-263 0l4 5c0-1-6-4-4-5zm-264 0l5 5c0-1-6-4-5-5zm-356 0l5 5c-1-1-7-4-5-5zm976-257l4 4c0 0-6-3-4-4zm-248 0l5 4c-1 0-7-3-5-4zm-480 0l4 4c0 0-6-3-4-4zm-248 0l5 4c-1 0-7-3-5-4zm976-81c16-17 59 26 17 8 0 0-43 19-17-8zm-140 0h78v16h-78v-16zm-123 0c18-19 87 27 19 7-2-1-46 21-19-7zm-78 16h-62c29-19-34-18 31-13 33 2 14 1 31 13zm-217 0h-62c29-19-34-18 31-13 34 2 14 1 31 13zm-139 0h-62c29-19-35-18 31-13 33 2 13 1 31 13zm-140 0h-62c29-19-34-18 31-13 34 2 14 1 31 13zm-155-16c17-17 59 26 18 8-1 0-43 19-18-8zm883-161c40 28 49 28 62 81h-62v-81zm-387-1704c51 39 32 18 31 209 0 92 1 162 11 230 21 143 19 310 33 448 9 82 3 160 13 228l67 670h-279c3-142 46-387 47-418 4-95 6-149 14-227l32-448c-1-190 31-395 31-692zm-279 1704c26 32 35 35 47 81h-62c3-44 7-44 15-81zm542 81c16-60 16-21 31-81 1 2 28 15 23 52-7 47 0 23-54 29zm-681 0c13-53 22-53 62-81-2 75 7 73-62 81zm852-161c56 15 41 1 46 64-61-42-22-16-46-64zm-217 80c0-91-13-61 31-80 16 40-8 54-9 54-12 20-21 25-22 26zm-434-80c45 19 31-11 31 80-6-7-22-23-28-34-36-79 6 22-3-46zm-232 64v-64h46c-18 73-11 29-46 64zm898-225v81c-79-8-38-35 0-81zm-852 0c10 43 14 47 31 81h-62l31-81zm589 16c35 13 14-1 37 26 28 34 15 15 25 55-83-36-17 23-62-81zm-403 65c0-2 0-8 0-6 1 5-3-40 62-59-5 11-18 46-26 55-39 43-28 13-36 10zm-31-97zm-126-47l49-1v64h-31l-18-63zm761 63h-31v-64c68 6 42-25 31 64zm-154-64h46v64c-19-23 6 11-21-26-14-19-15-22-25-38zm-481 48c8-72-23-40 47-48l-47 48zm589-193c19 23-6-11 21 27 14 18 15 22 25 38h-46v-65zm-78-16c4 44 8 44 16 81h-62c13-59 9-52 46-81zm-487-2c23 62 23 23 38 83h-62l24-83zm-86 18v65h-46c27-54 1-30 46-65zm-62-48v-64h31c-6 84-28 58-31 64zm744-64c41 17 29-33 31 64-85-59-27-33-31-64zm-201 96v-96c32 9 54-4 25 55l-25 41zm-310-96v96c-37-44-71-75 0-96zm495-145h31v80h-46c8-36 12-37 15-80zm-201 16l65 61-65 3v-64zm-279 0v64h-62c7-10 11-23 26-37 24-25 1-13 36-27zm-232-16c38 29 33 22 46 80h-46v-80zm511 16zm124-96h46l-24 82c-8-26-15-66-22-82zm-93 0c17-17 59 25 17 8 0 0-43 19-17-8zm-356 32c-27 3-22-48-1-22 0 0 0 2 0 2 0 0 1 4 1 5 0 1 13 13 0 15zm-109 48c-8-37-12-37-15-80 83 7 34 2 36 24 5 47-19 54-21 56zm542-257c26 31 50 50 62 96h-62v-96zm-75 33zm-482 63c11-45 31-72 62-96 0 85 16 88-62 96zm108-64c43 16 32-1 47 64-55-23-12 11-47-64zm70-113h23-23zm407 4l50-4v49l-50-45zm-136 45c-42-32-58-40 16-49-12 22-13 43-16 49zm-461 3l-4-52h47l-43 52zm618-196zm-188 16c34 25 19 3 31 48h-31v-48zm-230-16zm-173 0l18 64h-33c0-9 0-26 1-31 8-31 2-16 14-33zm542-81c0-41 25-2 10 0 0 0-10 45-10 0zm-108-16c48 37 25-10 31 65-10-13-10-5-20-28-13-29-6-24-11-37zm-310 65c6-75-16-28 31-65-6 30-7 53-31 65zm-93-49c0-41 25-2 10 0-1 0-10 45-10 0zm511-144l18 63-33 1c0-9 0-26 1-31 9-31 2-16 14-33zm-493 0zm416-32c0 65 5 51-15 96-55-41-20-54 15-96zm-341 0c32 38 48 54 31 96-45-34-31-13-31-96zm264-16l15-81c-2 24-8 64-15 81zm154-65c0-41 25-2 10 0 0 0-10 45-10 0zm-371-16h46v64c-61-42-22-16-46-64zm-155 16c4-33 82 4 14 2-6 0-19 34-14-2zm528-160zm-156 0l17 63-33 1c0-9 0-26 1-31 9-31 2-16 15-33zm-171 0v64h-46c7-12 6-12 18-29 13-18 17-22 28-35zm-170 0l17 63-33 1c0-9 0-26 1-31 9-31 3-16 15-33zm465-129c0 9 0 26-2 31-7 28-5 18-14 33-18-87-26-17 16-64zm-124 16c0-49 24-10 22 12-3 56-22-5-22-12zm-202 32c-33 1-4 2-5-20-1-30-29-17 2-14 4 0 49 33 3 34zm-93-48c0 9 1 26-1 31-8 28-5 18-14 33-18-87-26-17 15-64zm372-129c45 35 19 11 47 65h-47v-65zm-77 49c0-44 55 0 13 0-15 1-13 36-13 0zm-217-33c18 22 17 21 31 49-41-16-23 0-31-49zm-93 49c35-69-4-30 46-49-27 54 3 43-46 49zm449-129zm0 0l-18-31 18 31zm-465 16c-46 9 4-57 5-28 0 3 12 25-5 28zm310-16c-40 5-5-54 0-20 0 0 0 4 0 5 0 1 13 13 0 15zm-170-32c26-28 52 43 13 12-1-1-36 11-13-12zm294-81c-8-46 33 5 16 3-32-2-10 31-16-3zm-434 0c0-43 56 0 14 1-15 1-14 36-14-1zm279-48c45 35 19 11 47 65-64-18-39-2-47-65zm-139 65c34-75-9-42 46-65-32 70 8 48-46 65zm263-145c0-41 25-3 9 0 0 0-9 45-9 0zm-356 0c0-41 24-3 9 0 0 0-9 45-9 0zm356-97c0-41 25-2 9 0 0 0-9 45-9 0zm-93 0c0-41 25-2 9 0 0 0-9 45-9 0zm-170 0c0-41 24-2 9 0 0 0-9 45-9 0zm-93 0c0-41 24-2 9 0 0 0-9 45-9 0zm-16-144l-8 34 8-34zm264 32c-33 0-5 2-6-20-1-30-29-18 2-14 5 0 50 33 4 34zm-140-48h31v48c-59-43-6 0-31-48zm264 0l4 4c0 0-6-3-4-4zm-388 16zm248-97c0-41 25-2 9 0 0 0-9 45-9 0zm-248 0c0-41 25-2 9 0 0 0-9 45-9 0zm372-16c27-28 52 44 14 13-2-2-37 11-14-13zm-248 0c17-17 59 26 17 9 0-1-43 18-17-9zm-93-161c19 31 18-35 13 33-2 34-2 14-13 32v-65zm326 33c-6-31 19-58 9-11 0 2 1 67-9 11zm-95-32l33-1c0 9 0 27-1 32-8 28-5 17-15 33l-17-64zm-140 63zm235-144c0-41 24-2 9 0 0 0-9 45-9 0zm-62-32c-7 84 14 29-31 48 1-3 4-13 5-11l26-37zm-186 0c18 21 16 20 31 48-41-16-23 0-31-48zm-78 32c0-41 25-2 9 0 0 0-9 45-9 0zm341-129c0-41 25-2 9 0 0 1-9 45-9 0zm-139 0c0-41 24-2 9 0 0 1-9 45-9 0zm-78 0c0-41 25-2 9 0 0 1-9 45-9 0zm-139 0c0-41 24-2 9 0 0 1-9 45-9 0zm356-112c-5-30 20-57 10-10 0 1 0 66-10 10zm-139 0c-6-30 19-57 9-10 0 1 1 66-9 10zm-78-16c0-41 25-3 9 0 0 0-9 45-9 0zm-155 0c2-7 40-37 26 11-12 41 32 12-6 2-5-1-27 18-20-13zm326-80v-65h46l-46 65zm-78-65l5 5c-1 0-6-3-5-5zm-124 0c17-17 59 26 17 9 0-1-43 18-17-9zm-93 0h47v65c-20-24 6 11-21-27-14-18-16-22-26-38zm233-80l4 5c0-1-6-4-4-5zm-140 0l5 5c0-1-6-4-5-5zm109-113c0-41 24-2 9 0 0 0-9 45-9 0zm-78 0c0-41 25-2 9 0 0 0-9 45-9 0zm78-112c0-41 24-3 9 0 0 0-9 45-9 0zm-78 0c0-41 25-3 9 0 0 0-9 45-9 0zm186-129l5 5c-1 0-6-3-5-5zm-93 0c17-17 59 26 17 9 0-1-43 18-17-9zm-124 0c17-17 59 26 17 9 0-1-43 18-17-9zm-77 0l4 5c0 0-6-3-4-5zm402-257c-37 16-12 11-61 0 33-48 28-48 61 0zm-170-32c37 10 61 5 33 34-36 36-20-9-33-34zm-178 0h23-23zm-124 0h23-23zm256-402c277 67 269-63 278 48h-278v-48zm-62 0v48h-279c7-82-37-38 107-32 82 4 110-1 172-16zm62-225c63 44 56 68 158 141 27 18 7 1 28 20h-186v-161zm-62 0v161h-186l186-161zm-341 161v578c64 6 55 17 79 63 10 22 45 79 45 98 0 335 6 705-29 1031-15 136 2 296-13 420-18 135-16 283-31 402-9 68 0 136-7 203l-44 388c-2 38 2 70-4 108-4 26-19 62-23 88l-130 943c-6 65-24 133-29 195-106 0-93 24-93 112 0 36 12 36 31 65-228 55-31 194-31 209 0 168-58 327-94 481l-402 1319c-31-16-114-29-167-13-67 19-50 70-50 158h47c0 451-21 337-220 784-146 328-343 652-546 945-38 55-73 91-107 146-60 101-253 331-331 411-96 99-231 200-237 270h1240c15-72 7-131 22-203 85-416 210-817 562-1088 181-141 370-234 648-276 74-11 144-4 217-16 127-20 385 17 507 51 46 13 58 11 101 24 292 91 530 306 694 565 25 39 23 42 45 82 13 26 29 48 41 70 65 126 122 303 146 444 14 80 34 118 37 202 7 196-23 145 326 145 309 0 619 0 929 0-7-82-53-90-104-134-213-183-515-580-665-836-35-59-64-94-99-155-29-49-58-94-89-148l-179-330c-80-154-299-548-305-696-4-81 0-174 0-257h47c0-171 1-171-170-157-85 6-72-26-121-184-21-66-21-47-41-119-4-16-11-45-17-62l-66-205c-18-63-24-68-41-135-49-199-124-400-164-601-36-181-93-322-93-515 140-12 72-152-31-176 31-47 31-72 31-129 0-58-39-48-93-48l-228-1692c-9-68 1-136-6-203-5-44-20-142-25-183-25-203 1-426-22-637-36-337-29-717-29-1063 0-36 65-130 86-153 25-28 38-2 38-56v-530c-27 0-30 2-56-6-4-1-8-3-11-4-4-2-7-4-10-6l-26-21c-89-79-190-141-192-251-3-143 40-548-61-548-118 0-93 102-93 225 1 392 66 355-185 563-34 29-44 46-109 48z" stroke-width="7.62"/><g font-family="&apos;Cassandra&apos;" stroke-width="50"><text x="10500" y="14850" font-size="1087.64" transform="matrix(1.13196 0 0 1.17463-10203.3 6901.85)">Texto 02</text><text x="10500" y="14850" font-size="1199.44" transform="matrix(1.13196 0 0 1.17463-10382.7 5225.61)">Texto 01</text><text x="10500" y="14850" font-size="1087.64" transform="matrix(1.13196 0 0 1.17463-9691.91 8298.67)">00.00.0000</text></g></g><g font-family="&apos;Arial Black&apos;" font-weight="900" stroke-width="7.62" font-size="529.17"><text x="10500" y="14850" transform="matrix(1.13196 0 0 1.17463-8045.25 2140.57)">NN 1</text><text x="10500" y="14850" transform="matrix(1.13196 0 0 1.17463-8060.77 2737.52)">NN 2</text></g></g></g></g></svg>