<svg xmlns="http://www.w3.org/2000/svg" viewBox="0 0 500 707" shape-rendering="geometricPrecision" image-rendering="optimizeQuality" fill-rule="evenodd" clip-rule="evenodd"><defs><clipPath id="0"><path d="m326 107c51-1 133 41 133 142 0 27-10 116-13 152-3 42-5 103-6 146 0 37-9 59-25 67-22 8-45 10-68 5-25-7-37-27-38-67 1-51 7-141-2-188-13-61-29-69-35-142-4-44-2-113 54-115"/></clipPath><clipPath id="1"><path d="m175 109c-52-1-134 41-135 141 0 27 10 116 13 151 3 43 5 103 6 146 0 37 9 59 25 67 22 8 45 10 69 5 25-7 38-27 38-66-1-52-7-141 3-188 13-61 29-69 35-142 4-44 3-112-54-114"/></clipPath></defs><path d="m326 107c51-1 133 41 133 142 0 27-10 116-13 152-3 42-5 103-6 146 0 37-9 59-25 67-22 8-45 10-68 5-25-7-37-27-38-67 1-51 7-141-2-188-13-61-29-69-35-142-4-44-2-113 54-115" fill="#fff"/><g clip-path="url(#0)"><g><g fill="#201e1e" stroke="#201e1e" stroke-width=".476"><path d="m285 186c0 1-1 2-2 1-1 1-2 2-2 2-1-1-2-1-3-3 2 1 2 1 3-1 0-2 1-3 3-3 6 0 6 10 0 11-8 1-14-7-10-14-1-1 0-2 0-3 0 1 0 1 1 2 1-2 1-2 3-4 0 0 0 1 0 1-2 2-4 6-4 9 1 2 1 3 3 5-1-5 0-9 2-12 2-3 6-5 10-7 4-2 7-4 10-8 1-2 1-4 1-7 0-2 0-4-2-6-1 1-1 2-2 2-1-1-3-3-5-2-1 0-2 1-2 2-1 2 1 6 4 6-5 2-9 0-9-5 0-4 4-9 8-9 4 0 7 3 8 5 4 6 1 13-2 17 5-1 10-2 14 0 3 1 5 4 7 5 1 0 1 0 1 0 1-1 1-1 2-2 1 2 0 3-3 4 3 2 6 3 9 1 1-1 2-2 0-3 0-1 0-2 0-2 0 0 1 0 2 0 1 2 1 5-1 6-2 2-5 2-7 1 0 0 0 1 1 1 1 0 3-1 4 1-1 0-1 0-2 0 2 2 3 4 3 7-4 0-4-3-5-6-1 1-1 1-1 2-1-1-1-2 0-4-1 0-1-1-1-1-1-1-1-1-2-2 0 3-1 5-3 8-1 1-3 2-5 3-3 0-5-1-7-2-2-2-2-5-1-8 1-1 1-5-2-5 0 0-1 1-1 2-1-2 0-3 2-3 1 0 3 1 3 3 2-1 3-1 5 0 2 0 3 2 3 4 0 3-1 4-3 4-3 1-4-1-4-3 1-1 2-2 3 0-1 1 0 2 0 2 1 0 3-1 3-3-1-2-2-3-4-3-1 0-2 1-3 1-3 4-1 9 3 10 3 0 5-1 6-2 2-2 3-4 3-6 1-4-1-7-4-8-6-3-14-2-19 2 9 1 10 13 2 14-2 1-5-1-5-3-1-3 1-5 4-5-2 2-1 5 0 5 2 0 3-3 4-4 0 0 0 0 1 0 0-4-4-5-8-5-2 0-3 0-4 1-4 1-7 3-9 6-1 2-1 4-2 7 0 1 1 3 1 4 1 2 2 3 5 3 0-1 0-1 1-2 0 0 0 1 0 1 1 0 2 0 2-1 1-1 1-2 1-3-1 0-1 0-1-1 0 0 0 0 1-1-1 0-1-1-2-1 0 0-1 0-1 0-1 1-1 2 1 2z"/><circle transform="matrix(1.05144-.07262.07274 1.04963 295.75 154.84)" r="2"/><circle transform="matrix(.88869-.06138.06148.88716 295.19 161.37)" r="2"/><circle transform="matrix(.72593-.05014.05022.72468 291.55 165.39)" r="2"/><circle transform="matrix(.56317-.03889.03896.5622 287.39 167.95)" r="2"/><circle transform="matrix(.40041-.02765.0277.39972 283.94 170.11)" r="2"/><circle transform="matrix(.30977-.02139.02143.30923 281.08 172.45)" r="2"/><path d="m301 162c2-4 4-8 8-10 5-3 10-2 14 0-3 1-5 2-8 4-1 1-2 2-3 3-3 2-6 3-11 3z"/><path d="m315 163c-3 1-4 1-7 0 2-1 3-2 4-3 3-1 8 1 8 4-1-1-3-1-5-1z"/><path d="m306 170c0-1 1-2 2-3 2 0 3 0 5 1-1 0-2 0-2 1-1 0-1 0-2 1-1 0-2 0-3 0z"/><path d="m314 193c1-2 2-3 2-5 0-4 0-6 3-9 3 6 1 11-5 14z"/><path d="m310 187c-4-4-8-5-12-1 3 1 4 2 7 1 2 0 3 0 5 0z"/><path d="m301 188c1 0 2 0 3 0 2 1 4 3 4 5 0 1 0 2-1 4 0-4-2-5-4-5-2-1-2-2-2-4z"/><path d="m317 152c-4 0-7 0-10 3-1 1-2 2-2 4 3-5 6-6 12-7z"/><path d="m301 185c1-1 4-2 6 0-2-1-4-1-6 0z"/><path d="m317 189c2-2 3-4 3-7-1 3-1 5-3 7z"/><path d="m311 162c1-1 3-2 6-1-2 0-4 0-6 1z"/><path d="m324 178c0 2 1 3 2 4 0-2-1-3-2-4z"/><path d="m307 259c0 1 0 2 2 2 0 2 1 3 2 3 2 1 3 0 4-2-2 0-3 0-3-2 2-3 1-5-2-6-8-4-12 10-6 14 10 5 22-2 21-13 2-1 1-2 1-4 0 1 0 1-1 2-1-2-1-3-3-6 0 0 0 1 0 1 2 4 2 10 0 14-1 2-3 3-6 4 4-6 5-11 3-16-1-5-4-10-9-15-4-5-7-8-8-15-1-3 0-7 1-9 1-3 3-6 7-7 0 1 0 2 1 4 2-2 5-3 7-1 2 1 3 3 3 4-1 4-5 7-9 5 5 6 11 5 14-1 2-6 0-13-6-16-5-2-10 0-13 2-8 6-8 16-6 23-6-4-12-7-18-7-4 0-9 2-12 3-1 0-1-1-2-1 0-1 0-2 0-3-3 2-2 5 1 6-5 1-9 1-12-3-1-2-1-4 2-4 0-1 0-1 0-2 0-1-1-1-2 0-3 1-4 4-2 7 2 3 5 5 9 5-1 0-1 1-2 1-2-1-3-2-6-2 1 1 2 2 3 3-4 1-6 2-8 6 5 2 7-1 10-4 0 1 0 2 0 3 2-1 2-3 2-5 1-1 2-1 2-2 1 0 2 0 3-1-1 4-1 7 0 11 1 3 3 6 5 7 4 2 7 2 10 1 3-1 5-5 5-10 0-1 2-6 5-5 1 1 1 1 2 3 2-2 1-4-1-5-2-1-4 0-7 3-1-2-3-3-5-3-3-1-6 1-7 4-1 3 0 6 2 7 4 2 6 0 6-2 1-2-2-4-3-2 0 2-1 2-2 2-1 0-2-2-1-5 1-2 4-3 6-2 2 1 3 2 3 4 2 6-3 12-9 10-3-1-5-3-6-5-2-3-2-6-1-9 1-6 5-9 10-9 9-1 19 6 23 13-13-3-20 12-10 18 3 1 7 0 9-2 2-4 0-7-3-9 1 4-1 7-3 7-3-1-2-5-2-7-1-1-1-1-2-2 2-5 8-4 12-2 3 1 5 2 6 4 3 3 6 7 7 13 1 2 1 6-1 9 0 2-1 4-3 5-1 2-4 2-7 1 0-1 0-2-1-3 0 1-1 1-1 2-1-1-2-2-2-3 0-1 0-3 1-4 1 0 1 0 2-1 0 0-1-1-1-1 1-1 2-1 2-1 2 0 2 0 3 1 0 1-1 3-3 2z"/><circle transform="matrix(-1.33106-.64185-.64296 1.32877 309.18 212.36)" r="2"/><circle transform="matrix(-1.12502-.5425-.54343 1.12308 306.5 221.16)" r="2"/><circle transform="matrix(-.91898-.44314-.44391.9174 309.14 228.28)" r="2"/><circle transform="matrix(-.71294-.34379-.34438.71171 313.22 233.78)" r="2"/><circle transform="matrix(-.5069-.24443-.24485.50602 316.58 238.38)" r="2"/><circle transform="matrix(-.39214-.1891-.18942.39147 319.09 242.93)" r="2"/><path d="m298 218c0-6-1-11-5-16-5-7-11-8-18-8 3 3 6 5 8 9 1 2 2 4 3 6 3 5 6 8 12 9z"/><path d="m280 213c3 3 5 3 9 4-1-3-2-5-4-7-3-2-11-2-13 2 3 0 5 0 8 1z"/><path d="m288 227c0-2 0-4-2-5-1-1-4-1-6-1 1 0 2 1 2 2 1 1 1 1 2 2 1 1 3 2 4 2z"/><path d="m266 252c-1-2-1-4-1-7 3-5 4-8 1-14-7 7-7 14 0 21z"/><path d="m274 247c7-4 12-3 16 4-4 1-7 1-10-2-2-1-4-2-6-2z"/><path d="m285 253c-1-1-2-1-3-1-4-1-7 1-8 4-1 1-1 3-1 5 2-4 4-5 8-4 3-1 3-1 4-4z"/><path d="m283 198c5 1 10 3 12 9 0 1 0 3 0 6-2-8-5-11-12-15z"/><path d="m287 249c-2-3-5-4-8-3 3 0 6 1 8 3z"/><path d="m263 246c-1-4-1-7 1-11-1 4-1 7-1 11z"/><path d="m286 214c-1-3-3-4-7-5 3 1 5 2 7 5z"/><path d="m261 229c-2 1-3 3-5 3 1-2 2-3 5-3z"/><path d="m310 143c-1 1-1 2-2 1-1 1-2 1-3 0-1 0-1-1-1-3 1 1 1 2 3 1 0-2 1-4 4-3 6 2 2 12-4 11-8-2-11-12-5-17-1-1 0-2 1-3 0 1 0 1 0 2 1-1 2-2 4-2 0 0 0 0 0 1-3 1-6 4-7 7 0 2 0 4 1 5 1-5 3-8 6-10 3-2 7-3 12-4 5-1 8-1 12-5 2-1 3-3 4-5 0-2 1-5-1-7-1 0-1 1-2 1-1-1-2-3-4-3-1-1-2 0-3 1-2 2-1 6 2 7-5 0-8-3-7-7 2-5 6-8 11-6 3 1 6 4 6 7 2 7-3 12-7 15 5 1 9 1 13 5 2 2 3 5 5 7 1 0 1 0 2 0 0 0 1-1 1-1 0 2-1 3-3 3 2 2 4 5 8 3 1 0 2-1 1-3 0 0 0-1 0-1 1 0 1 0 2 1 1 2 0 4-3 5-2 1-5 0-7-1 0 0 0 0 0 1 2 0 3 0 5 2-1 0-2 0-3 0 1 2 2 4 1 7-3-1-3-4-3-7-1 1-1 1-2 2 0-2 0-3 1-4 0-1 0-1 0-2 0-1-1-1-1-2-1 3-3 4-5 6-2 1-4 2-6 2-3-1-5-3-6-4-1-3-1-6 2-8 1-1 2-5-1-5 0-1-1 0-2 0 0-2 2-3 3-2 1 0 3 2 2 5 2-1 4 0 5 1 2 1 3 3 2 5-1 2-3 3-5 3-3-1-3-3-2-4 1-2 2-1 2 0-1 1 0 2 0 2 1 1 3 0 3-2 1-2 0-3-2-4-1 0-3 0-3 1-4 2-5 8 0 10 2 0 4 0 6 0 2-1 4-3 5-5 1-3 0-7-2-10-5-4-13-5-19-3 9 4 6 16-3 14-2 0-4-3-4-5 1-3 4-4 6-3-2 2-3 4-1 5 1 1 3-2 4-3 1 0 1 0 2 0 1-4-3-6-6-7-2 0-4-1-5 0-3 0-7 1-10 3-2 2-3 3-4 6 0 1-1 3-1 4 1 2 2 3 4 4 1-1 1-1 2-1 0 0 0 1 0 1 1 0 1 0 2 0 1-1 2-2 2-3-1 0-1-1-1-1 0 0 1-1 1-1 0 0 0-1-1-1 0-1-1-1-2-1 0 1-1 2 1 2z"/><circle transform="matrix(1.03587.26922-.26968 1.03409 330.51 116.83)" r="2"/><circle transform="matrix(.87553.22754-.22794.87402 327.86 122.94)" r="2"/><circle transform="matrix(.71518.18587-.18619.71395 323.06 125.64)" r="2"/><circle transform="matrix(.55483.1442-.14445.55388 318.23 126.75)" r="2"/><circle transform="matrix(.39448.10252-.1027.39381 314.2 127.72)" r="2"/><circle transform="matrix(.30518.07931-.07945.30465 310.69 129.05)" r="2"/><path d="m334 125c3-3 6-6 10-7 6-1 10 2 14 5-3 0-6 0-9 1-1 1-2 1-4 2-4 1-7 1-11-1z"/><path d="m346 131c-3 0-4-1-6-2 2-1 3-2 5-2 3 0 7 4 6 7-1-2-3-3-5-3z"/><path d="m335 135c1-1 2-2 4-2 1 0 3 1 4 2-1 0-2 0-3 0-1 0-1 0-2 0-1 1-2 0-3 0z"/><path d="m336 159c1-1 2-2 3-4 1-4 2-6 7-8 0 8-3 11-10 12z"/><path d="m334 152c-3-5-6-7-11-5 2 2 3 4 6 4 2 0 3 1 5 1z"/><path d="m324 151c2 0 3 0 3 0 3 2 3 4 3 6-1 2-1 3-2 4 1-4 0-5-3-6-1-2-1-2-1-4z"/><path d="m352 121c-4-2-7-2-11-1-1 1-2 2-3 4 5-4 8-4 14-3z"/><path d="m326 147c2 0 4 0 6 3-3-2-4-3-6-3z"/><path d="m340 157c3-2 4-3 5-7-1 3-3 5-5 7z"/><path d="m343 128c1 0 3 0 6 1-2 0-4-1-6-1z"/><path d="m350 149c0 1 0 3 1 4 0-2 0-3-1-4z"/><path d="m329 361c0 0-1-1-2-1-1-1-3 0-3 2 0 3 3 3 5 2 6-2 8-6 8-11 2-17-11-32-22-44-2-2-3-3-4-5-3-5-5-9-5-15 3-1 6-4 8-6 0-2 1-3 1-5 0-4-3-6-7-4-4 3-6 9-6 14-1 0-2 0-3 0-1-5-1-9-1-13 1-5 2-9 2-14-1-4-3-7-7-10 3 3 4 5 5 10 0 2 0 4 0 7 0 2-1 5-1 8-1 3-1 7 0 11-5-2-9-6-9-11-1-4 0-6 1-9 1 0 2-1 2-1 2 0 4-2 3-4 0-1-1-1-2-1-2 0-3 0-4 1-1 2-2 4-2 7-1 10 3 18 11 21 3 9 7 17 14 23 2 1 4 3 6 4 3 2 6 5 9 9 3 5 6 10 8 15 2 6 4 13-1 18-1 2-2 2-4 2z"/><path d="m299 290c1 0 2 0 3 0 2 6 4 11 7 16-5-4-8-10-10-16z"/><path d="m305 287c0-4 1-10 5-11 2-1 3 0 3 2 0 4-5 8-8 9z"/><path d="m316 282l6 6 8-3-5 7 6 6-8-2-5 8v-9l-9-2 8-3z"/><path d="m325 303l5 4 6-4-2 6 5 4h-7l-2 6-1-6h-7l5-4z"/><path d="m333 318l4 3 3-3-1 4 4 3h-5l-1 4-1-4h-5l4-3z"/><path d="m337 331l3 2 2-2-1 3 3 1-3 1-1 2-1-2h-3l2-2z"/><path d="m413 563c1-1 2-1 3 0 2-1 3-1 3-1 2 1 2 2 2 4-2-1-2-2-4 0 0 2-2 3-5 2-7-3-1-14 5-12 10 2 13 15 5 21 1 1 0 2-1 3 0-1 0-1 0-2-2 1-3 1-6 2 0 0 1-1 1-1 4-1 7-5 8-9 1-2 1-4 0-6-2 6-4 10-8 12-4 2-9 3-15 4-6 0-10 0-15 4-3 2-4 4-5 7-1 2-1 5 0 8 1 0 2-1 3-1 0 2 2 4 4 5 2 0 3-1 4-2 2-2 2-7-2-8 7-1 10 4 8 9-2 5-8 8-14 6-4-1-6-6-7-9-1-9 5-15 11-18-6-1-12-2-16-7-3-2-4-6-5-9-1 0-2 0-2 0-1 0-1 1-2 1 0-3 2-4 4-3-2-3-5-6-9-5-2 0-3 1-1 3-1 1-1 2-1 2-1 0-2 0-2-1-1-3 0-6 3-6 4-1 7 0 9 2 0 0 0-1 0-1-3-1-4-1-5-3 1 0 2 0 3 0-2-3-3-5-1-9 4 2 4 5 4 9 0-1 1-1 1-2 1 2 0 3-1 4 0 1 0 2 0 3 1 1 1 2 1 2 2-3 4-5 7-7 3-1 5-1 7-1 4 1 6 3 7 6 1 3 0 6-3 9-1 1-3 5 0 6 1 0 2 0 3 0 0 2-2 3-4 2-1 0-3-2-2-6-2 1-4 0-5-1-2-2-3-5-2-7 1-3 4-4 6-3 3 1 3 4 2 5-1 2-3 1-3-1 1-1 1-2 0-2-1-1-3 0-4 2 0 3 1 4 3 5 2 1 3 1 4 0 5-3 6-10 1-12-3-1-5-2-7-1-3 1-5 3-7 5-2 5-1 9 1 12 5 6 16 8 23 6-10-6-6-20 5-17 2 1 5 4 4 6-1 4-4 5-7 4 3-2 3-5 2-6-2-1-5 2-6 3-1 0-1 0-2 0-1 5 2 8 7 9 2 1 4 1 5 1 5 0 9-1 13-4 2-1 4-3 5-6 1-2 1-3 1-5 0-2-1-4-4-5 0 1-1 1-2 1 0-1 0-1 0-2-1 0-2 0-3 1-1 0-1 1-1 3 0 1 0 1 1 2-1 0-2 0-2 0 0 1 0 2 1 2 0 1 1 1 2 1 1-1 2-2-1-3z"/><circle transform="matrix(-1.23196-.41973.42045-1.22984 385.95 593.51)" r="2"/><circle transform="matrix(-1.04126-.35475.35536-1.03946 389.72 586.34)" r="2"/><circle transform="matrix(-.85056-.28978.29028-.84909 395.79 583.5)" r="2"/><circle transform="matrix(-.65986-.22481.2252-.65872 401.75 582.58)" r="2"/><circle transform="matrix(-.46916-.15984.16012-.46835 406.71 581.77)" r="2"/><circle transform="matrix(-.36295-.12366.12387-.36232 411.1 580.47)" r="2"/><path d="m383 583c-4 4-8 7-14 7-7 1-11-2-16-6 4 0 7 0 11-1 2 0 3-1 5-2 5-1 9-1 14 2z"/><path d="m368 575c4 0 5 1 8 3-3 1-4 2-7 2-3-1-8-5-7-9 2 2 4 3 6 4z"/><path d="m382 571c-1 1-2 2-4 2-2 0-4-1-5-3 1 1 2 1 3 1 1-1 1-1 2-1 1 0 3 1 4 1z"/><path d="m383 542c-1 1-3 2-4 4-2 5-3 7-9 9 0-9 5-13 13-13z"/><path d="m385 550c3 7 6 10 13 7-2-3-4-4-8-5-1 0-3-1-5-2z"/><path d="m396 553c-1 0-2-1-3-1-3-2-3-5-3-8 1-1 2-2 3-3-1 3 0 5 3 7 1 2 1 3 0 5z"/><path d="m361 587c4 2 8 3 12 1 2-1 3-2 4-3-6 3-9 4-16 2z"/><path d="m395 557c-3 0-6 0-7-3 2 2 4 3 7 3z"/><path d="m378 544c-4 2-5 4-6 7 1-3 3-5 6-7z"/><path d="m372 578c-2 1-4 1-7-1 2 1 4 1 7 1z"/><path d="m365 553c1-1 1-3-1-5 0 3 0 4 1 5z"/><path d="m423 470c1-2 1-3-1-4 0-2 0-4-1-4-2-2-4-1-6 0 2 1 3 2 3 4-3 2-4 5-1 8 7 8 19-6 13-13-8-11-26-9-29 4-3 1-3 2-4 4 2-1 1-1 3-1 0 3-1 4 0 8 0 0 1-1 1-1 0-6 3-12 7-16 2-1 5-2 8-2-7 5-11 11-11 17-1 6 1 13 3 21 3 8 5 13 2 22-1 4-3 7-5 10-3 2-6 4-11 4 0-2 0-3 0-5-3 1-7 0-9-2-1-2-1-5 0-6 2-4 8-6 12-2-3-9-11-11-16-6-6 6-7 16-1 22 4 4 11 5 16 4 12-4 16-15 17-24 5 8 10 14 18 17 4 2 10 1 14 2 1 1 2 2 2 2 0 1 0 2-1 4 4-2 4-5 2-8 5 1 11 4 12 10 0 2-1 4-4 3-1 1-2 2-2 2 0 1 1 2 3 2 4 0 6-4 6-8-1-4-4-8-8-10 0 0 1 0 2 0 2 2 3 4 6 5 0-1-1-2-2-4 5 0 9 0 12-4-4-4-8-2-13 0 0-1 1-2 2-3-3 0-4 2-5 4-1 1-3 1-4 1-1 0-2 0-4 0 4-4 5-7 6-12 0-4-1-8-3-10-3-5-7-6-10-6-5 0-9 3-11 9 0 2-5 6-8 3-1-1-1-2 0-4-4 1-4 4-2 6 2 2 5 3 9 0 1 3 3 5 5 6 3 2 7 2 10-1 2-3 2-7 0-10-3-3-7-2-8 0-1 2 1 5 3 4 1-2 2-3 3-2 1 1 2 4-1 7-2 2-5 1-7-1-2-2-3-4-3-6 1-8 10-13 16-7 2 3 4 5 5 8 0 5-1 9-3 12-5 5-11 6-17 5-10-4-18-16-20-26 13 10 29-4 20-16-2-3-8-4-10-2-5 4-4 8-1 11 0-4 4-7 6-5 3 2 0 6-1 9 1 0 1 1 1 2-5 5-11 1-15-3-2-3-3-5-4-7-2-6-4-12-2-18 1-4 2-7 5-11 2-2 4-3 6-4 3-1 6-1 9 3 0 1-1 1-1 3 1 0 2-1 3-1 1 1 1 2 1 4 0 1-1 3-3 4-1 0-2 0-3 0 0 0 0 1 0 2-1 0-2 0-3 0-1 0-2-1-2-2 0-2 2-4 4-1z"/><circle transform="matrix(1.20775 1.3668 1.36916-1.20567 398.24 521.6)" r="2"/><circle transform="matrix(1.02079 1.15523 1.15722-1.01904 405.51 512.87)" r="2"/><circle transform="matrix(.83384.94366.94528-.83241 405.92 503.49)" r="2"/><circle transform="matrix(.64689.73208.73334-.64578 403.91 495.29)" r="2"/><circle transform="matrix(.45994.52051.52141-.45915 402.29 488.43)" r="2"/><circle transform="matrix(.35581.40267.40337-.3552 401.61 482.06)" r="2"/><path d="m414 520c-3 7-5 14-3 22 3 9 9 13 18 17-3-5-5-9-5-14-1-3-1-5-1-8-1-8-3-12-9-17z"/><path d="m432 535c-2-5-5-7-8-9 0 4 0 7 1 9 2 5 11 8 15 5-3-1-6-2-8-5z"/><path d="m429 515c0 2-1 4 0 6 1 3 4 4 6 5 0-1-1-2-1-3-1-2-1-2-1-4-1-1-2-3-4-4z"/><path d="m467 497c0 3-1 6-3 8-6 5-8 8-8 16 12-4 15-12 11-24z"/><path d="m455 499c-10 1-16-2-16-13 5 2 8 3 10 8 2 2 3 4 6 5z"/><path d="m445 486c1 2 2 3 3 4 5 3 9 2 11-1 2-1 3-3 4-5-4 4-7 3-11 0-4 0-4 0-7 2z"/><path d="m421 550c-5-3-9-8-9-15 0-2 1-4 2-7-1 10 1 15 7 22z"/><path d="m441 491c1 3 3 7 8 7-4-2-6-4-8-7z"/><path d="m467 505c-1 6-2 8-7 12 3-3 6-7 7-12z"/><path d="m425 531c0 3 2 6 6 9-2-3-4-5-6-9z"/><path d="m461 526c3-1 5-2 8-1-3 2-5 2-8 1z"/><path d="m364 600c2-1 2-1 3 0 2 0 3 0 3 1 1 1 1 2 0 4-1-2-1-2-3-2-1 3-3 3-6 1-5-5 4-14 10-10 8 5 7 18-2 22 0 1-2 2-3 2 1-1 1-1 1-2-2 1-3 1-6 0 0 0 0 0 1 0 4 0 9-3 11-6 1-2 1-3 1-6-3 5-7 8-12 9-4 1-9 0-15-1-6-2-10-3-16-1-3 1-5 3-7 5-1 2-3 4-2 8 1 0 2 0 3-1 0 2 0 5 2 7 2 1 4 0 5 0 3-2 4-7 1-9 6 2 8 7 4 11-4 5-11 6-15 2-4-3-5-8-4-11 2-9 10-13 16-14-6-3-10-6-13-12-2-3-1-8-2-10-1-1-1-1-2-1-1 0-1 0-3 1 1-3 4-4 6-2-1-4-3-8-7-8-2-1-4 0-3 3 0 1-1 1-1 1-1 0-1-1-1-2-1-3 2-5 5-4 3 0 6 2 7 5 0-1 0-1 0-2-1-1-3-2-3-4 1 0 1 1 3 1-1-3-1-6 2-8 3 2 2 5 0 9 1-1 2-1 3-2 0 3-1 3-3 4-1 1-1 2-1 3 0 1 0 2 1 3 2-3 5-4 8-5 3 0 6 0 8 1 3 2 4 5 5 8 0 3-2 6-6 8-2 0-5 4-2 6 0 0 1 0 2 0 0 2-2 3-4 1-1-1-2-3 0-6-2-1-4-2-5-3-1-3-1-6 1-7 2-3 4-3 6-1 3 1 2 4 1 5-2 2-4 0-3-1 2-1 2-2 1-3 0-1-2-1-4 1-2 2-1 4 1 6 1 1 2 1 4 1 5-1 8-7 4-11-2-2-4-3-6-4-4 0-6 1-8 3-4 4-5 8-3 12 3 8 12 13 20 13-8-9 1-21 10-15 2 2 3 6 2 8-2 3-6 3-8 1 3-1 5-4 4-5-2-2-5 0-7 1 0 0-1 0-1-1-3 4-1 8 3 11 1 1 3 2 5 3 4 1 8 2 13 1 3-1 5-3 7-5 2-1 3-3 3-4 1-2 0-5-2-7-1 1-1 1-2 1 0-1 0-1 0-2-1 0-2-1-3 0-1 0-2 1-3 2 0 1 1 1 1 2-1 0-2 0-2 0 0 1 0 2 0 2 0 1 1 2 2 2 1-1 2-2 0-3z"/><circle transform="matrix(-1.05033-.80149.80287-1.04852 328.14 620.17)" r="2"/><circle transform="matrix(-.88774-.67742.67859-.88622 334.09 614.49)" r="2"/><circle transform="matrix(-.72516-.55336.55431-.72391 340.86 613.71)" r="2"/><circle transform="matrix(-.56257-.42929.43003-.56161 346.89 614.75)" r="2"/><circle transform="matrix(-.39999-.30523.30575-.3993 351.94 615.57)" r="2"/><circle transform="matrix(-.30944-.23613.23653-.3089 356.58 615.74)" r="2"/><path d="m328 609c-5 2-9 4-15 3-7-2-10-6-13-12 3 2 6 3 10 3 2 0 4 0 6 0 5 0 9 2 12 6z"/><path d="m317 596c4 1 5 3 7 6-3 0-5 0-7 0-4-2-6-8-4-11 1 2 2 4 4 5z"/><path d="m331 597c-1 1-3 2-4 1-2-1-3-3-4-4 1 0 2 1 3 1 1 0 1 0 2 0 1 1 2 1 3 2z"/><path d="m342 569c-2 1-4 2-5 3-3 4-6 6-11 6 2-8 8-11 16-9z"/><path d="m342 578c0 7 2 11 10 11-2-3-3-5-6-7-2-1-3-2-4-4z"/><path d="m351 585c-1-1-2-2-3-3-2-3-1-5 0-8 1-1 3-2 4-2-2 3-2 5 1 8 0 2 0 2-2 5z"/><path d="m306 606c3 3 7 5 12 5 1 0 3-1 5-2-7 2-11 0-17-3z"/><path d="m348 588c-2 0-5-2-5-6 1 3 3 5 5 6z"/><path d="m337 570c-5 1-6 2-9 5 3-2 5-4 9-5z"/><path d="m320 601c-2 0-5-1-7-4 2 2 4 3 7 4z"/><path d="m321 575c1-2 2-4 1-5-1 2-1 3-1 5z"/><path d="m447 343c0 0 1 1 2 2 1 1 3 1 4-1 1-3-2-5-5-5-7 0-12 4-14 9-11 19-3 41 4 61 1 3 2 5 2 7 1 7 1 13-1 20-5-1-9 1-12 4-2 1-3 2-3 4-2 5 0 8 6 8 5-1 10-8 12-13 2 0 3 1 4 1-1 6-3 11-5 16-3 5-7 9-8 15-2 5-1 9 3 14-2-5-3-8-2-13 1-3 2-5 4-8 1-3 3-6 5-9 2-4 4-8 5-13 4 5 7 11 5 18-1 4-3 7-6 10-1-1-2-1-2-1-2 0-6 1-6 3 0 2 1 3 2 3 2 1 4 1 5 0 3-1 5-4 6-7 6-11 5-21-3-29 1-12 1-22-5-33-1-2-3-5-4-7-3-5-4-9-6-15-2-7-2-14-3-21 1-8 3-16 10-20 2-1 4-1 6 0z"/><path d="m447 438c-1-1-3-1-4-2 2-7 2-14 1-21 3 7 3 15 3 23z"/><path d="m439 439c-2 4-6 11-11 10-2 0-3-1-2-4 2-4 9-7 13-6z"/><path d="m423 439l-3-10h-10l8-6-3-10 8 7 9-7-4 10 9 6h-11z"/><path d="m423 410l-4-6-7 1 5-5-4-7 7 3 5-6-1 8 8 3-8 2z"/><path d="m422 389l-3-4-5 1 3-4-3-4 5 2 3-4v5l5 2-5 1z"/></g><g fill="#fefefe" fill-rule="nonzero" stroke="#fefefe" stroke-linejoin="round" stroke-linecap="round" stroke-width="9.524"><path d="m375 345c-1 0-2 0-3 1-1 0-2 0-4 1-2 0-4 1-6 1-1 1-3 2-4 3 0 0-1 1-1 1 0 1-1 1-1 2 0 0 0 1 0 1 0 1 0 2 0 2 1 1 1 1 2 2 0 0 1 0 2 0 0 0 1 0 1 0 0 0 0 0 1-1 0 0 0 1 0 1 0 0 0 0-1 1 0 0-1 0-1 0-2 0-3 0-4-1-1-1-2-1-2-2-1-2-1-3 0-4 0-2 2-3 3-4 2 0 3-1 5-2 2 0 4-1 6-1 1-1 3-1 4-1 1 0 2-1 3-1 0-1 1-1 1-1 0 1 1 1 1 1 0 0 0 1 0 1-1 0-2 1-3 3-1 1-1 2-1 4 0 1-1 1-1 2 0 1 0 2 0 3 0 1-1 2-1 3 0 1 0 2 0 2-2 6-4 10-8 13-3 2-8 4-13 4-1 0-3 0-4-1-1 0-3 0-4-1-1 0-2-1-3-2-1 0-2-1-3-2 0-1-1-3 0-4 0-1 1-1 2-1 1 0 2 0 3 1 1 0 1 1 2 2 0 0 0 1-1 2 0 0 0 1 0 1 0 0 0 1 0 1 1 1 1 2 3 2 1 1 3 1 4 1 3 0 5-1 6-1 2-1 4-2 5-4 1-1 2-3 3-5 1-1 2-4 3-6 0-1 0-1 1-2 0-1 0-2 0-3 1-1 1-2 1-3 0 0 1-1 1-2 0-1 1-1 1-2 0-1 1-1 1-2 1-1 1-1 2-2 0 0 1-1 2-1z"/><path d="m341 425v2l-7-2c0-1 0-1 1-2 0 0 1-1 3-2 1 0 2-1 2-1 0 0 1-1 1-1 0-1 0-1 0-1-1-1-1-1-1-1-1 0-1 0-1 0-1 0-1 1-1 1h-2c0-1 1-2 2-3 0 0 1 0 2 0 1 1 2 1 2 2 1 1 1 1 1 2 0 1 0 1-1 2 0 0 0 0-1 1 0 0-1 0-2 1 0 0-1 0-1 1 0 0-1 0-1 0l4 1zm2 0h2c0 1 0 1 0 1l1 1c0 0 1 0 1-1 1 0 1-1 1-2 0 1-1 1-2 1-1-1-1-1-2-2 0-1 0-2 0-3 0-1 1-2 2-2 0-1 1-1 2-1 1 1 2 1 3 2 0 1 0 3 0 5-1 2-2 3-3 4 0 1-2 1-3 0-1 0-1 0-2-1 0 0 0-1 0-2zm6-3c0-1 0-2 0-2-1 0-1-1-1-1-1 0-1 0-1 0-1 1-1 1-1 2 0 0 0 1 0 1 0 1 0 1 1 1 0 0 1 0 1 0 0 0 1-1 1-1zm2 8l1-2h2l-1 2h-2zm10-9c1 0 2 1 2 1 1 2 1 3 0 5 0 2-1 4-2 4-1 1-2 1-3 1-1-1-2-1-2-2 0-1 0-3 0-5 1-2 1-3 2-4 1 0 2-1 3 0zm0 1c-1 0-1 0-1 1 0 0-1 0-1 0 0 1 0 2-1 3 0 1 0 2 0 3 0 0 0 0 0 1 0 0 0 0 1 0 1 0 1 0 1-1 0 0 1-1 1-2 0-2 0-3 0-3 0-1 0-1 0-1s0 0 0-1zm4 2l1-2 7 2v2c-1 0-2 1-3 2-1 0-1 1-2 3-1 1-1 2-1 3l-2-1c0-1 1-3 2-4 1-2 2-3 3-4l-5-1zm7 11l1-2 2 1-1 2-2-1zm11 1v2l-7-2c0-1 0-1 1-2 0 0 1-1 3-2 1 0 2-1 2-1 0-1 1-1 1-1 0-1 0-1 0-2-1 0-1 0-1 0-1 0-1 0-1 0-1 0-1 1-1 1l-2-1c0-1 1-1 2-2 0 0 1 0 2 0 1 0 2 1 2 2 1 0 1 1 1 2 0 1-1 1-1 1 0 1-1 1-1 2 0 0-1 0-2 1-1 0-1 0-1 0-1 1-1 1-1 1l4 1zm7-8c2 1 2 1 3 2 0 1 0 3 0 5-1 2-2 3-3 4 0 0-1 1-2 0-1 0-2-1-3-2 0-1 0-2 1-4 0-2 1-4 2-4 0-1 1-1 2-1zm0 2c0 0 0 0-1 0 0 0 0 0 0 1-1 0-1 1-1 2-1 2-1 3-1 3 0 1 0 1 0 1 1 0 1 1 1 1 0 0 1 0 1 0 0-1 0-1 0-1 1-1 1-2 1-3 1-1 1-2 1-2 0-1 0-1 0-2-1 0-1 0-1 0zm8 12l-2-1 2-8c-1 1-2 1-3 1v-2c1 0 1 0 2 0 1 0 2-1 2-2l2 1-3 11zm7 2l-2-1 2-8c-1 1-2 1-3 1l1-2c0 0 1 0 2 0 1 0 1-1 2-2l1 1-3 11z"/></g><g fill="#201e1e"><text x="250" y="354" font-family="&apos;Arial Black&apos;" font-weight="900" font-size="12.599" transform="matrix(.99028.19295-.15826.98051 140.43 29.722)">00.00.0000</text><path d="m354 128c0 0 0-1 0-1 1 0 1 0 1 0 1 0 1 0 1 1 0 0 0 0 0 1 0 0 0 0-1 1 0 0 0 0-1 0 0 0 0 0 0-1 0 0-1 0 0-1zm5 2c0 0 0-1 0-1 1 0 1 0 1 0s1 0 1 1c0 0 0 0 0 1 0 0 0 0-1 1 0 0 0 0-1 0 0 0 0-1 0-1-1 0-1-1 0-1zm4 2c0 0 1-1 1-1 0 0 1 0 1 0 0 0 0 0 1 1 0 0 0 0 0 1-1 0-1 0-1 0 0 1-1 1-1 1 0-1 0-1-1-1 0 0 0-1 0-1zm13-3c0 0 1-1 1-1-1-1-1-1-1-1s-1 0-2 0c0 0-1 1-1 1 0 0-1 1-1 2-1 0-1 1-2 2 0 1 0 1 0 1 1 1 1 1 2 0 0 0 1 0 1 0 1-1 1-1 2-1 0-1 1-2 1-3zm-4 6l1-1c0 0 0 0 0 0s-1 0-2 1c-1 0-2 0-3 0-1-1-1-2 0-3 0-1 1-2 1-3 1-1 2-1 3-2 1-1 2-1 3-1 1 0 2 0 3 0 1 1 1 1 1 2 0 0 0 1 0 1-1 1-1 1-1 1 0 1-1 1-1 2l-3 3c0 1-1 2-1 2 0 0 0 1-1 1l-1 2-1 2c0 0 0 0 0 1 0 0 1 0 1 0 0 0 0 0-1 0l-2 1c0 0-1 0-1 0-1 0-1-1 0-1 0-1 0-1 1-3l2-2c0-1 1-2 2-3zm15-2l3 1c-1 0-2 1-3 2-1 1-2 3-3 5 0 1 0 1 0 1 1-1 1 0 1 0h1c0 0-1 0-1 0h-2-2c0 0 0 0 0 0-1 0-1 0 0-1 2-2 3-4 4-5 1-1 1-2 2-3zm-6 7c-1 0-1 0-2 0 0 0-1 0-1 0-1 0-2 0-2 0 0-1 0-1 0-2 0 0 0 0 1-1l2-2 2-3c1 0 1-1 0-1 0 0-1 0-2 1v-1h1l1-1c1 0 2 0 2 0 1 0 1 0 1 1 1 0 1 0 0 1l-1 1-1 2-2 3c-1 0-1 1-1 1 1 0 1 0 2 0 2-1 2-1 2 0l-2 1zm14 1c1-1 0-1 0-1 0-1-1-1-1-1 0 0 0 0-1 1 0 0-1 0-1 1-1 0-2 1-2 2-1 1-1 2 0 2 0 1 1 1 2 1h1v1c0 0 0 0 0 0h-1-1c-2 0-3 0-4-1-1 0-1-1-1-1 0-1 0-2 1-3l1-1c0 0 1-1 1-1 1 0 1-1 2-1 1-1 2-1 3-1 1 0 2 0 3 1 1 1 1 1 1 2-1 0-1 0-2 0 0 1-1 1-1 1-1 0-1 0-1 0-1 0-1 0-2 0 0 0-1 0-2 0 0 0-1 0-1 0 0 0 0-1 1-1h1 2c0 0 0 0 1 0 1 0 1 0 1 0zm0 10l-3-1c0 0 0 0 0 0 1 0 1 0 1 0l2-2 4-4c0 0 0 0 0 0s0 0-1-1c0 0 0 0-1 0 0 0 0 0 1 0h2 2c0 0 0 0 0 0 0 1 0 1 0 1l-1 1c-2 2-4 4-4 4-1 1-2 2-2 2zm5-2c0 0 0 0 1 0 0-1 0-1 1-1 0 0 0-1 0-1 0 0 0 0-1 0h-1c-1 0-1 0-1 0v-1c0 0 0 0 1 0h2c0 0 1-1 2 0 1 0 1 0 2 0 0 0 0 1 0 1-1 0-2 1-3 1-2 1-3 1-3 1zm11 3h1c0 0 0 1 0 2 0 1 0 2-1 3v1h-2l-1 1c-1 1-1 1-1 1h-1c0 0-1 0-1 0l-2-1c-1 0-1 0-2-1-1 0-1-1-1-2 1-1 1-2 2-3 1 0 2-1 3-2 1 0 2-1 3-1 0 0 1 0 2 1l1 1zm-6 2c-1 1-1 1-2 2 0 0 0 1 0 1 0 1 0 1 1 1 1 0 2 0 3 0 0-1 1-2 2-2 1-1 1-1 1-2 1 0 1-1 1-1 0-1 0-1-1-1-1 0-1 0-1 0h-1l-2 1c-1 0-1 1-1 1zm16 13c1 0 1-1 0-2 0 0-1 0-1 0 0-1-1-1-1 0v2c0 0 0 1 0 1 0 0 0 1 0 1 0 1 0 1-1 1 0 1 0 1 0 1-1 1-2 1-3 1-1-1-2-1-2-1-1 0-1-1-1-1-1 0-1-1-1-1-1-1-1-1 0-2 0 0 1 0 1 0 0 0 1 0 1 0 0 1 0 1 0 1 0 1 0 1 1 2 0 0 0 1 1 1 0 0 0 0 1 0 0 0 0-1 0-1 0-1 0-1 0-2v-2c0-1 0-1 1-1 0-1 0-1 0-1 1 0 1 0 2 0 1 0 1 0 2 0 1 1 2 1 2 2 1 1 1 1 0 1 0 1-1 1-2 1 0 0 0-1 0-1zm5 7c1 0 1 0 1 0-1-1-1-1-1-1h-1c-1 0-1 0-2 0-1 0-2 1-2 1-2 1-2 2-2 3 1 0 1 1 2 1l1 1h1-1c0 1 0 1 0 1l-1-1h-1c-2-1-3-1-4-2 0-1 0-1 0-2 0-1 1-1 2-2h1c1-1 1-1 2-1 0 0 1-1 2-1 1 0 2 0 3 1 1 0 2 1 3 2 0 0 0 1 0 1-1 1-1 1-2 1-1 0-1 0-2 0 0-1-1-1-1-1 0 0 0 0-1 0-1 0-1 0-2-1 0 0-1 0-1 0 0-1 0-1 0-1s0 0 1 0l1 1h2c0 0 0 1 1 1 1 0 1 0 1-1zm-4 10l-2-2c0 0 0 0 0 0h1l3-1 4-2c1 0 1 0 1 0s0 0-1-1h-1 1l2 1h1c1 1 1 1 1 1s0 0 0 1h-1c-4 1-6 2-7 2 0 1-1 1-2 1zm6 0c0 0 0 0 0 0 1 0 1 0 2 0 0 0 0 0 1 0 0 0 0-1 0-1 0 0-1 0-2-1h-1c0 0 0 0 0 0 0-1 0-1 0-1s0 0 1 0l1 1c1 0 2 0 3 1 0 0 1 0 1 1 0 0 0 1 0 1-1 0-2 0-3 0-2 0-3-1-3-1zm9 14h1c0 0 0-1 0-1 0-1 0-1-1-1 0-1 0-1 0-1-1 0-1 1-1 1l-1 2c0 0 0 0 0 1 0 0 0 0 0 1 0 0-1 0-1 1 0 0 0 0-1 0-1 1-2 1-2 0-1-1-2-1-2-1-1-1-1-1-1-2 0 0-1 0-1-1 0-1 0-1 1-2 0 0 1 0 1 0 0 0 1 0 1 0 0 1 0 1 0 1l-1 1c0 1 0 1 1 2 0 0 0 1 0 1 1 0 1 0 1 0 1 0 1 0 1-1 0 0 1-1 1-2v-1c1-1 1-1 1-1 0-1 0-1 1-1 0 0 1 0 2 0 0 0 1 1 2 2 0 0 1 1 1 2 0 0 0 1-1 1 0 0-1 0-2 0 0 0 0-1 0-1zm4 9c0-1 0-1 0-1 0-1 0-1 0-1-1 0-1 0-1-1-1 0-1 0-2 0-1 0-2 1-3 1-1 0-2 1-2 2 1 1 1 1 2 2v1h1c-1 0-1 0-1 0h-1v-1c-2-1-3-2-4-3 0 0 0-1 1-2 0 0 1-1 2-1h1c1 0 1-1 2-1 1 0 1 0 2 1 1 0 2 0 3 1 1 0 2 1 2 2 0 1 0 2 0 2-1 0-1 0-2 0-1 0-1 0-2-1 0 0 0 0-1 0 0 0 0 0-1-1 0 0-1-1-1-1-1 0-1-1-1-1 0 0 0 0 1 0l1 1 1 1c1 0 1 0 1 0s1 0 1 1c0 0 0 0 1 0zm4 10l1 2c-1 0-2 0-3 0-2 0-4 0-6 1 0 0-1 0-1 0l1 1c0 0 0 0 1 0v1c-1 0-1 0-1 0l-1-2-2-1c0 0 0 0 0 0 0-1 0-1 0-1h1c3-1 5-1 6-1 2 0 3 0 4 0zm-9 0c0 0-1-1-1-1-1 0-1-1-2-1 0-1 0-1 0-1-1-1 0-1 1-1 0-1 0-1 0-1 1 0 1 0 1 0h3 4c0 0 0 0 0-1 0 0-1 0-2-1h1l2 1c0 0 1 0 1 1 0 0 1 1 1 1 0 0-1 1-1 1h-2-2l-4 1c0 0-1 0-1 0 0 1 1 1 2 2 1 0 1 1 1 1h-1l-1-1zm7 12c0 0 0 0 1 0 0 0 0 0 2 1 1 1 1 2 2 3 0 0-1 0-2 0l-1 1-3-1h-3-4-4-1c0 0-1 0-1 0 0 1 1 1 1 2-1 0-1 0-1 0 0-1 0-1 0-2-1 0-1 0-1 0v-1l-1-1c0 0 1 0 1-1 1 0 3 0 6 1h5 3 2c1 0 1 0 1 0s0-1-1-1c0 0-1-1-1-1zm-6 6c0 0 0 1 1 1 1 1 2 1 3 1 1 0 2 0 3 0 1 0 1 0 1-1 0 0 0-1-1-1-1-1-2-2-2-2 1 0 1 0 1 0 1 0 1 1 1 1l2 1c1 1 2 2 2 3 0 1 0 1-2 1 0 0 0 0-1 0 0 0-1 0-2 0-2 0-3 0-4-1-2 0-3-1-3-3v-1-1-1c0 0 0 0 0 0s0 0 1 0c0 0 0 0 0 0 0 1 0 1 0 1 0 1 0 1 0 2zm10 11v-1c0 0 0 0 0-1 0 0-1 0-1-1-1 0-2 0-3 0-1 0-2 0-3 0-1 0-1 0-1 0 0 1 0 1 1 2 1 0 1 1 2 1l1 1c-1 0-1 0-1 0s0 0-1 0c0 0 0-1-1-1l-1-1c-2-1-2-2-2-3 0-1 0-2 2-2 0 0 0 0 1 0 0 0 0 0 1 1 0 0 1 0 1 0 1 0 1 0 2 0 1 1 2 1 3 2 0 0 1 1 1 1 0 1 0 1 0 2l1 2c0 1 0 1-1 1 0 0-1 0-1-1v-1-1zm-3 3l-4-1h-1c0 0 0 0 0 0v1c0 0 1 0 1 0 0 1 0 1 0 1 0 1 0 1 0 1v-1c-1-1-2-2-2-2-1-1-1-1-1-2 0 0 0 0 1 0h1 3 2c1 0 1 0 2 1 0 0 0 0 1 0 0 0 1 0 1 1 0 0 1 0 1 0 0 1-1 1-1 1h-4zm-6 5l-1-3c0 0 0 0 0 0s0 0 0 1h4l5 1c0 0 0 0 0 0v-1c0 0 0-1 0-1 0 0 0 0 0 0l1 2 1 1c0 1 1 1 1 1 0 0-1 0-1 0h-1c-4 0-6-1-7-1-1 0-2 0-2 0zm5 3c0 0 0 0 0 0 1 0 1 0 1 0 1 0 1 0 2 0 0 0 0 0-1-1l-1-1c0 0 0-1 0-1 0 0 1 0 1 1l1 1c1 0 1 1 2 2 0 0 0 1 0 1 0 1 0 1-1 1 0 0-1-1-2-2-2-1-2-1-2-1zm-1 7c0 0 0 0 0 0v-1c1 0 1 0 1 0s0 0 0 1c0 0 1 0 2 1 1 0 3 0 5 0 2 1 3 1 5 1l1 2c0 0 1 1 1 1 0 0-1 0-1 0 0 0 0 0 0-1 0 0-1 0-1 0-1 0-3 0-4 0-2-1-4-1-6-2l-2-2h-1zm-4-1c0 0 1 0 1 0 0 1 1 1 1 1 0 1-1 1-1 2 0 0-1 0-1 0-1 0-1 0-1 0-1-1-1-1-1-2 0 0 0 0 0-1 1 0 1 0 2 0z" fill-rule="nonzero" stroke="#201e1e" stroke-width=".181"/><g font-family="&apos;Amazone BT&apos;" font-size="42.76"><g stroke="#fefefe" stroke-linejoin="round" stroke-linecap="round"><text x="250" y="354" stroke-width="4.762" transform="matrix(1.0094 0 0 1 66.959 24.643)"> T1</text><text x="354" y="410" stroke-width="3.571"> T2</text></g><g stroke="#201e1e" stroke-width=".181"><text x="250" y="354" transform="matrix(1.0094 0 0 1 66.959 24.643)"> T1</text><text x="354" y="410"> T2</text></g></g></g></g></g><path d="m175 109c-52-1-134 41-135 141 0 27 10 116 13 151 3 43 5 103 6 146 0 37 9 59 25 67 22 8 45 10 69 5 25-7 38-27 38-66-1-52-7-141 3-188 13-61 29-69 35-142 4-44 3-112-54-114" fill="#fff"/><g clip-path="url(#1)"><g><g fill="#201e1e"><g font-family="&apos;Amazone BT&apos;" stroke="#fefefe" stroke-linejoin="round" stroke-linecap="round" font-size="42.76"><text x="250" y="354" stroke-width="4.762" transform="matrix(1.0094 0 0 1-185.05 24.643)"> T1</text><text x="102" y="410" stroke-width="3.571"> T2</text></g><g stroke="#201e1e" stroke-width=".476"><path d="m216 188c0 1 1 1 2 1 1 1 1 1 2 1 1 0 2-1 2-2-1 0-2 0-2-1 0-2-1-3-3-3-7 0-6 10 0 11 7 1 14-8 10-14 1-1 0-2 0-3 0 1 0 1-1 1-1-1-1-2-3-3 0 0 0 1 0 1 2 2 4 6 3 9 0 2 0 3-2 5 1-6 0-9-2-12-3-3-6-5-10-7-5-3-8-4-10-8-1-2-2-5-2-7 0-2 1-4 3-6 1 1 1 1 2 2 1-1 3-3 4-2 2 0 3 1 3 2 1 2-1 6-4 6 5 2 9 0 9-5 0-4-4-9-9-9-3 0-6 3-8 5-3 6-1 13 3 17-6-2-10-2-15 0-2 1-5 4-6 5-1 0-2 0-2-1-1 0-1 0-1-1-1 2 0 3 2 4-2 2-6 3-9 1-1-1-1-2 1-3 0-1 0-2 0-2-1 0-2 0-2 0-2 2-2 4 0 6 3 1 5 2 8 1-1 0-1 0-1 1-2 0-3-1-5 0 1 1 2 1 3 1-2 2-4 3-4 6 4 0 5-2 6-5 0 1 0 1 0 2 2-1 1-2 1-4 0 0 0-1 1-1 0-1 1-1 1-2 1 3 2 5 3 7 2 2 4 3 5 3 3 1 6 0 7-1 2-2 3-5 1-8-1-1-1-5 2-5 1 0 1 1 2 1 1-1 0-3-2-3-1 0-3 1-4 4-1-1-3-1-4 0-2 0-4 2-4 4 0 2 2 4 4 4 3 0 4-2 3-3 0-2-2-2-2 0 0 1 0 2-1 2-1 0-2-1-2-4 0-1 1-2 3-2 2 0 3 0 3 1 3 4 2 9-3 9-2 0-4 0-5-1-3-2-4-4-4-6 0-4 2-7 5-9 6-3 14-1 19 3-10 1-11 13-2 14 2 0 5-1 5-3 0-3-2-5-4-5 2 2 1 5 0 5-2 0-3-3-4-4 0 0-1 0-1-1 0-4 4-5 8-4 1 0 3 0 4 1 3 1 6 3 8 6 2 2 2 4 2 7 0 1 0 3 0 4-1 1-2 2-5 2 0 0 0-1-1-1 0 0-1 0-1 1 0 0-1 0-2-1 0-1-1-2 0-3 0 0 1-1 1-1 0 0-1-1-1-1 0-1 1-1 1-1 1-1 2 0 2 0 1 1 1 2-1 2z"/><circle transform="matrix(-1.061-.0723-.07522 1.04507 204.95 156.73)" r="2"/><circle transform="matrix(-.89676-.06111-.06358.8833 205.5 163.24)" r="2"/><circle transform="matrix(-.73253-.04992-.05194.72153 209.17 167.24)" r="2"/><circle transform="matrix(-.56829-.03873-.04029.55976 213.36 169.78)" r="2"/><circle transform="matrix(-.40405-.02753-.02865.39799 216.84 171.94)" r="2"/><circle transform="matrix(-.31258-.0213-.02216.30789 219.73 174.27)" r="2"/><path d="m199 164c-2-4-4-8-8-10-5-3-9-2-14 0 3 1 5 2 8 4 1 1 2 1 3 2 4 3 7 4 11 4z"/><path d="m186 165c2 1 4 1 7 0-2-1-3-3-5-3-3-1-7 1-8 4 2-1 4-1 6-1z"/><path d="m195 172c-1-1-1-2-3-3-1 0-3 0-4 1 1 0 1 0 2 1 1 0 1 0 2 1 1 0 2 0 3 0z"/><path d="m186 195c-1-2-1-3-2-5 1-4 0-7-3-10-3 7-1 11 5 15z"/><path d="m191 189c4-5 7-5 12-1-3 1-5 1-8 1-1-1-3-1-4 0z"/><path d="m200 190c-1 0-2 0-3 0-3 1-4 2-4 5 0 1 0 2 0 3 1-3 2-4 5-4 2-2 2-2 2-4z"/><path d="m184 154c4 0 7 0 10 3 1 1 1 2 2 4-4-5-6-6-12-7z"/><path d="m200 186c-2-1-4-1-6 1 2-1 4-1 6-1z"/><path d="m183 191c-2-2-2-4-2-7 0 2 1 5 2 7z"/><path d="m190 164c-1-2-3-2-6-1 2 0 4 0 6 1z"/><path d="m177 180c-1 1-1 3-3 4 1-2 1-3 3-4z"/><path d="m194 260c0 2-1 2-3 3 0 2-1 2-2 3-1 0-3-1-4-3 2 0 3 0 3-2-1-2-1-5 2-6 8-3 13 10 6 14-10 6-22-2-21-13-1 0-1-2-1-3 1 1 0 1 2 1 0-2 0-3 2-5 0 0 1 0 1 0-2 5-2 10 0 14 1 2 2 4 5 5-4-6-5-12-3-16 2-5 5-10 9-15 5-5 8-9 9-16 0-3 0-6-1-9-2-2-3-5-7-6-1 1-1 2-1 3-2-1-5-2-8-1-2 2-2 3-2 5 0 3 4 7 8 5-5 5-11 4-13-1-3-6 0-14 6-16 4-2 10-1 13 2 8 6 8 16 6 23 6-4 11-8 18-8 4 0 9 3 11 4 2-1 2-1 3-2 0 0 0-1 0-3 3 3 2 5-1 7 5 1 9 1 12-4 1-1 1-3-2-3 0-1-1-2 0-2 0-1 1-1 2-1 3 1 4 5 2 8-2 3-6 4-9 5 0 0 1 0 2 0 2-1 3-2 6-1-1 1-2 1-3 2 4 2 6 3 8 7-5 2-7-1-10-5 0 2 0 2 0 4-2-2-2-3-2-5-1-1-2-1-2-2-1 0-2-1-3-1 1 4 0 7 0 11-2 3-3 5-5 6-4 3-8 3-10 2-4-2-6-6-6-10 1-2-1-7-5-5 0 0-1 1-1 2-2-1-1-4 1-5 2 0 4 0 6 3 2-2 4-3 6-3 3 0 6 1 7 4 1 3 0 6-2 8-4 1-6-1-7-3 0-2 2-3 4-2 0 2 0 3 1 3 2-1 3-3 2-6-2-2-4-2-6-1-2 1-3 2-4 3-2 6 3 13 10 10 2-1 5-2 6-4 2-4 2-7 1-10-1-5-6-8-11-9-8 0-18 6-23 13 13-3 21 12 10 18-2 2-7 1-8-2-2-3 0-7 3-8-2 4 1 7 3 6 2-1 2-5 2-7 1 0 1-1 1-1-2-5-7-5-12-2-2 1-4 2-5 3-4 4-7 8-8 13 0 3 0 6 1 9 1 2 2 4 3 5 2 2 4 3 8 1 0-1 0-1 0-2 1 0 1 1 2 1 1 0 1-1 2-2 0-2 0-3-1-4-1-1-2-1-3-1 1-1 1-1 1-2 0 0-1-1-2-1-1 0-2 1-2 1-1 2 0 4 3 2z"/><circle transform="matrix(1.34442-.63906.64658 1.32299 191.3 214)" r="2"/><circle transform="matrix(1.13631-.54014.5465 1.1182 193.99 222.76)" r="2"/><circle transform="matrix(.9282-.44122.44641.91341 191.31 229.86)" r="2"/><circle transform="matrix(.7201-.34229.34632.70862 187.19 235.33)" r="2"/><circle transform="matrix(.51199-.24337.24623.50383 183.78 239.92)" r="2"/><circle transform="matrix(.39608-.18827.19049.38977 181.24 244.44)" r="2"/><path d="m202 220c1-6 1-12 5-17 5-6 12-7 19-7-3 3-6 5-8 9-1 2-2 3-3 5-3 6-6 8-13 10z"/><path d="m221 215c-3 3-6 3-9 4 1-3 2-5 4-7 3-2 10-2 13 1-3 0-6 0-8 2z"/><path d="m212 229c1-2 1-4 2-5 2-2 5-2 7-2-1 1-2 1-3 2-1 1-1 2-2 3 0 1-2 1-4 2z"/><path d="m235 254c1-3 1-5 1-7-3-6-4-9-1-15 7 7 7 14 0 22z"/><path d="m227 248c-8-3-13-3-16 5 4 0 6 0 10-2 2-2 3-2 6-3z"/><path d="m215 255c2-1 3-2 4-2 4 0 7 1 8 4 1 2 1 3 1 5-2-4-4-4-8-3-3-1-3-2-5-4z"/><path d="m217 200c-5 1-9 3-11 8-1 2-1 4-1 6 2-7 5-11 12-14z"/><path d="m213 250c2-2 5-4 9-3-4 1-6 1-9 3z"/><path d="m238 248c1-5 1-7-1-11 1 3 1 7 1 11z"/><path d="m215 215c1-2 3-4 7-4-3 1-5 2-7 4z"/><path d="m240 230c2 2 3 3 5 3-1-2-2-3-5-3z"/><path d="m191 145c0 1 1 1 2 1 1 1 2 1 3 0 1 0 1-1 1-3-1 1-2 2-3 1 0-3-2-4-4-3-6 2-2 12 4 11 7-2 11-12 5-17 0-1 0-2-1-3 0 1 0 1 0 2-1-1-2-2-5-2 0 0 1 0 1 1 3 1 6 4 6 7 1 2 0 3 0 5-1-5-3-8-7-10-3-2-7-3-12-4-5-1-8-1-12-5-2-1-3-3-3-5-1-2-1-4 0-7 1 1 2 1 3 2 0-2 1-4 3-4 2-1 3 0 4 1 1 2 1 6-2 7 5 0 8-3 6-7-1-5-6-8-11-6-3 1-5 4-6 7-1 7 3 12 8 15-5 1-10 1-14 5-2 2-3 5-4 7-1 0-2 0-2 0-1 0-1-1-2-1 0 2 1 3 4 3-2 2-5 4-9 3-1 0-2-1 0-3-1 0-1-1-1-1-1 0-1 0-2 1-1 2 1 4 3 5 2 1 5 0 7-2 0 1 0 1 0 2-2 0-3 0-5 2 1 0 2 0 3 0-1 2-2 4-1 7 3-1 3-4 3-7 1 1 1 1 2 2 0-2 0-3-1-4 0-1 0-1 0-2 1-1 1-1 1-2 1 3 3 4 5 6 3 1 5 2 6 1 3 0 6-2 6-3 2-3 1-6-1-9-1 0-3-4 0-4 1-1 1 0 2 0 1-2-1-3-3-2-1 0-2 2-2 5-2-1-3 0-5 1-1 1-2 3-1 5 0 2 2 3 4 3 3-1 3-3 3-4-1-2-3-1-3 0 1 1 1 2 0 2-1 1-2 0-3-2-1-2 1-3 2-4 2 0 3 0 4 1 4 2 4 8 0 10-3 0-5 0-6 0-3-1-4-3-5-5-2-3-1-7 1-10 5-4 14-5 19-3-8 4-5 16 3 14 2 0 5-3 4-5-1-3-3-4-6-3 3 2 3 4 2 5-2 1-4-2-5-3 0 0-1 0-1 0-1-4 2-6 6-7 1 0 3-1 4 0 4 0 7 1 11 3 1 2 3 3 4 6 0 1 0 3 0 4 0 2-1 3-4 4 0-1 0-1-1-1 0 0 0 1 0 1-1 0-2 0-3 0 0-1-1-2-1-3 0 0 1-1 1-1 0 0-1-1-1-1 0 0 0-1 0-1 1-1 2-1 2-1 1 1 2 2 0 2z"/><circle transform="matrix(-1.04588.26805.27038 1.0296 169.93 118.89)" r="2"/><circle transform="matrix(-.88398.22656.22853.87022 172.6 124.97)" r="2"/><circle transform="matrix(-.72209.18506.18667.71085 177.44 127.66)" r="2"/><circle transform="matrix(-.56019.14357.14482.55147 182.32 128.77)" r="2"/><circle transform="matrix(-.39829.10208.10297.3921 186.37 129.73)" r="2"/><circle transform="matrix(-.30813.07897.07966.30333 189.92 131.06)" r="2"/><path d="m167 127c-3-3-6-6-11-7-6-1-10 2-14 5 3 0 6 0 9 1 1 1 3 1 4 2 4 1 7 1 12-1z"/><path d="m154 133c3 0 5-1 7-2-2-1-4-2-6-2-3 0-7 4-6 7 2-2 3-3 5-3z"/><path d="m165 137c-1-1-2-2-3-2-2 0-3 1-5 2 1 0 2 0 3 0 1 0 1 0 2 0 1 1 2 0 3 0z"/><path d="m165 161c-2-1-3-2-4-4-1-4-2-6-6-8-1 8 2 11 10 12z"/><path d="m167 154c2-5 5-7 11-5-2 2-4 4-7 4-2 0-3 0-4 1z"/><path d="m176 152c-1 1-2 1-3 1-2 2-3 4-2 6 0 1 1 3 2 4-1-4 0-5 2-6 2-2 1-2 1-5z"/><path d="m149 123c3-2 7-2 10 0 1 0 2 1 3 3-4-4-8-4-13-3z"/><path d="m175 149c-2 0-5 0-6 3 2-2 4-3 6-3z"/><path d="m160 159c-3-2-4-3-4-7 1 3 2 5 4 7z"/><path d="m158 130c-2 0-4 0-6 1 2 0 3-1 6-1z"/><path d="m150 150c0 2 0 4-1 5 0-2 0-3 1-5z"/><path d="m171 362c1 0 1-1 2-1 1-1 3 0 3 2 0 3-3 3-5 2-6-2-8-6-9-11-1-17 12-31 24-44 1-1 2-3 4-5 2-4 4-9 4-15-3-1-6-3-7-6-1-1-1-3-1-4 0-5 3-6 7-4 4 2 5 9 5 13 1 1 3 0 4 0 1-4 1-9 0-13 0-4-2-9-1-14 1-3 3-6 7-9-3 3-4 5-5 9-1 3-1 5 0 7 0 3 0 5 1 8 0 4 0 8 0 12 4-3 8-6 9-12 1-3 0-6-1-9-1 0-2 0-3 0-1-1-4-3-3-5 1-1 2-1 3-1 1 0 3 1 3 1 2 2 3 5 3 8 0 9-4 17-12 20-3 9-6 17-14 23-2 2-3 3-5 4-4 3-7 5-10 9-3 5-6 10-8 15-2 6-4 13 1 18 1 2 2 2 4 2z"/><path d="m201 291c-1 0-2 0-3 0-1 6-3 11-7 16 5-4 8-10 10-16z"/><path d="m195 288c0-4-1-10-4-11-2 0-3 0-3 2 0 4 5 9 7 9z"/><path d="m184 283l-6 6-8-3 5 7-6 7 9-2 4 7 1-9 8-1-8-4z"/><path d="m175 305l-5 3-5-3 1 6-5 3h7l2 6 2-6h6l-5-3z"/><path d="m167 320l-4 2-3-3 1 4-4 3h5l1 4 1-4h5l-4-2z"/><path d="m163 333l-3 1-2-2 1 3-3 2h3l1 2 1-2h3l-2-2z"/><path d="m86 563c-1-1-2-1-3 0-2-1-3-1-4-1-1 1-1 2-1 4 2-1 2-1 4 0 0 2 2 4 5 2 7-3 1-14-5-12-10 2-13 15-5 21-1 1 0 2 1 3 0-1 0-1 0-2 2 1 2 1 5 2 0 0 0-1 0-1-4-1-8-5-9-9 0-2 0-4 1-6 2 6 4 10 8 12 4 2 9 3 15 4 6 0 10 0 15 4 3 2 4 4 5 7 1 2 2 5 0 8-1 0-2-1-3-2 0 2-2 5-4 5-2 1-3 0-4-1-2-2-2-7 2-8-7-1-10 4-8 9 2 5 8 8 14 6 4-1 6-6 7-9 1-9-5-15-11-18 6-1 12-2 16-7 3-2 4-6 5-9 1 0 2 0 2 0 1 0 2 1 3 2 0-3-2-5-5-4 2-3 5-6 10-5 1 0 3 1 1 3 0 1 0 2 1 2 1 0 1 0 2-1 1-3-1-5-4-6-3-1-6 0-9 2 0 0 1-1 1-1 2-1 3-1 5-3-1 0-2 0-4 0 2-3 3-5 1-8-4 1-4 4-3 8-1-1-1-1-2-2-1 2 0 3 2 5 0 0-1 1-1 2 0 1-1 2-1 3-2-4-4-5-7-7-3-2-5-2-7-2-4 1-6 3-7 6-1 3 0 6 3 9 1 1 3 5 0 6-1 1-2 0-3 0 0 2 2 3 4 2 1 0 3-2 2-6 2 1 4 0 6-1 2-2 3-5 2-7-2-3-4-4-7-3-3 1-3 4-2 5 1 2 3 1 3-1-1-1-1-2 0-2 1-1 3 0 4 3 1 2-1 3-3 4-1 1-3 1-4 0-5-2-6-10-1-12 3-1 5-1 7-1 4 1 6 3 7 5 3 5 2 9-1 12-5 6-16 8-23 6 10-6 6-20-5-17-2 1-5 4-4 6 1 4 4 5 7 4-3-2-3-5-2-6 2-1 5 2 6 3 1 0 1 0 2 0 1 5-2 8-7 9-2 1-4 1-5 1-5 0-9-1-13-3-2-2-4-4-5-7-1-2-2-3-2-5 0-2 2-4 5-5 0 1 1 1 1 1 1 0 1-1 1-1 1-1 2-1 2 0 1 1 2 2 2 3 0 1 0 1-1 2 1 0 2 0 2 0 0 1 0 2-1 2 0 1-1 1-2 1-1 0-2-2 1-3z"/><circle transform="matrix(1.24402-.4179-.4222-1.22449 113.17 593.5)" r="2"/><circle transform="matrix(1.05146-.35321-.35684-1.03495 109.37 586.36)" r="2"/><circle transform="matrix(.85889-.28852-.29149-.8454 103.25 583.53)" r="2"/><circle transform="matrix(.66632-.22384-.22614-.65586 97.24 582.61)" r="2"/><circle transform="matrix(.47375-.15915-.16078-.46631 92.23 581.81)" r="2"/><circle transform="matrix(.3665-.12312-.12438-.36075 87.8 580.52)" r="2"/><path d="m116 583c4 4 8 7 14 7 7 1 12-2 16-6-4 0-7 0-11-1-1 0-3-1-4-2-6-1-10-1-15 2z"/><path d="m131 575c-3 0-5 1-8 3 3 1 5 2 7 2 3-1 8-5 7-9-2 2-3 3-6 4z"/><path d="m117 571c2 1 3 3 5 2 2 0 3-1 5-3-2 1-2 1-3 1-2-1-2-1-3-1-1 0-2 1-4 1z"/><path d="m116 542c2 1 3 2 4 4 2 5 4 7 9 9 0-9-4-13-13-13z"/><path d="m114 550c-3 7-6 10-13 7 2-2 4-4 8-4 2-1 3-2 5-3z"/><path d="m103 553c1 0 2 0 3-1 3-2 4-5 3-7-1-2-2-3-3-4 1 4 0 5-3 7-1 2-1 3 0 5z"/><path d="m139 587c-4 2-9 3-13 1-2-1-3-2-4-3 6 3 10 4 17 2z"/><path d="m104 557c3 1 6 0 8-3-3 2-5 3-8 3z"/><path d="m121 544c4 2 5 4 7 8-2-3-4-6-7-8z"/><path d="m127 579c2 0 5 0 7-2-2 1-4 1-7 2z"/><path d="m134 554c0-2 0-4 1-6 0 3 0 4-1 6z"/><path d="m76 471c-1-3-1-3 1-4 0-3 0-4 1-5 2-1 4-1 6 1-2 1-3 1-3 4 3 2 4 5 1 8-8 7-19-6-13-14 8-11 26-8 30 5 2 0 2 2 3 4-2-1-1-1-3-1 1 2 1 3 0 7 0 0-1 0-1 0 0-6-2-13-7-16-2-2-5-3-8-3 7 6 11 11 11 17 1 7-1 13-3 21-3 8-5 14-2 22 1 4 3 7 5 10 3 2 7 4 12 4-1-1-1-3-1-4 3 0 7 0 9-3 1-2 1-4 1-6-2-4-9-6-12-2 2-9 10-10 15-5 6 5 7 15 1 21-4 4-11 5-16 4-12-3-16-14-17-24-5 8-10 14-18 18-4 1-11 1-14 1-1 1-2 2-2 3 0 1 0 2 1 4-4-2-5-5-2-9-6 1-11 4-12 10-1 2 0 4 4 3 1 1 1 2 1 2 0 2-1 2-2 2-4 0-7-3-6-8 1-4 4-7 8-9-1 0-2-1-2-1-2 3-4 5-7 5 1-1 1-2 2-4-5 0-8 0-11-4 4-4 8-2 12 1 0-2 0-2-1-4 3 1 4 2 5 5 1 0 2 0 3 1 2 0 3-1 4-1-3-4-4-7-5-12 0-4 0-7 2-10 4-4 7-6 11-6 5 0 9 3 11 9 0 2 5 6 8 3 1-1 1-2 0-3 4 0 4 4 2 6-2 1-5 2-9-1-1 3-3 5-5 6-3 2-7 2-10-1-3-3-3-7-1-9 3-4 7-3 9 0 1 2-1 4-3 3-1-2-3-2-3-2-2 1-2 4 1 7 2 2 5 1 7-1 2-2 3-4 2-5 0-8-9-13-15-8-3 3-5 6-5 9-1 4 1 8 3 11 5 6 11 7 17 5 10-3 18-16 20-26-14 10-29-4-20-15 2-3 8-4 10-2 5 3 4 8 1 11 0-5-5-8-6-6-3 2-1 7 0 9 0 1 0 2-1 2 6 5 12 2 16-3 2-2 3-5 4-7 2-6 4-11 2-18 0-3-2-7-5-10-2-2-4-4-6-4-3-2-6-1-9 2 0 1 1 2 1 3-1 0-2 0-3-1-1 2-1 3-1 4 0 2 1 4 3 4 1 0 2 0 3 0 0 1 0 2 0 3 1 0 2 0 3 0 1-1 2-2 2-3 0-1-2-3-4 0z"/><circle transform="matrix(-1.22123 1.36086-1.37968-1.20043 100.89 521.9)" r="2"/><circle transform="matrix(-1.03219 1.15021-1.16612-1.01461 93.57 513.21)" r="2"/><circle transform="matrix(-.84315.93956-.95255-.82879 93.16 503.87)" r="2"/><circle transform="matrix(-.65411.7289-.73898-.64297 95.2 495.7)" r="2"/><circle transform="matrix(-.46507.51825-.52541-.45715 96.85 488.88)" r="2"/><circle transform="matrix(-.35979.40092-.40647-.35366 97.55 482.54)" r="2"/><path d="m85 520c3 7 5 14 3 22-3 9-10 13-18 17 3-5 4-9 5-14 0-3 0-5 1-7 1-9 3-13 9-18z"/><path d="m67 535c1-5 4-6 8-9 0 4 0 7-1 10-3 4-11 8-15 4 3-1 6-2 8-5z"/><path d="m70 515c0 3 1 4 0 7-1 2-4 3-7 5 1-2 2-3 2-4 1-2 1-2 1-4 1-1 2-2 4-4z"/><path d="m31 497c1 3 2 6 4 9 5 4 8 8 7 15-12-4-14-12-11-24z"/><path d="m44 499c10 1 15-2 16-12-5 1-8 3-10 7-2 2-4 4-6 5z"/><path d="m54 487c-1 2-3 3-4 4-4 2-8 1-11-1-1-2-3-4-3-6 4 4 7 4 11 0 3 0 4 1 7 3z"/><path d="m78 551c5-4 9-9 9-16 0-2-1-4-2-7 1 10-1 15-7 23z"/><path d="m58 491c-1 3-3 7-8 7 4-2 6-4 8-7z"/><path d="m32 506c0 5 2 8 6 12-3-4-5-8-6-12z"/><path d="m74 532c0 3-2 6-7 8 3-3 5-5 7-8z"/><path d="m37 527c-2-1-5-3-7-2 3 2 4 2 7 2z"/><path d="m135 600c-1-1-2-1-3 0-2 0-3 0-3 1-1 1-1 2 0 4 1-2 1-2 3-2 1 3 4 3 6 1 6-5-4-14-9-10-9 5-8 18 2 21 0 2 1 3 2 3-1-1-1-1-1-2 2 1 3 1 6 0-4 0-9-3-11-6-2-2-2-4-2-6 4 5 7 8 12 9 5 1 10 0 15-1 7-2 10-3 17-1 2 1 5 3 6 5 2 2 3 4 3 8-1 0-2-1-3-1 0 2-1 5-3 6-1 1-3 1-4 1-3-2-4-7-1-9-6 1-8 7-5 11 4 4 11 6 16 2 3-3 4-8 4-12-2-8-10-12-17-13 6-3 11-6 14-12 1-3 1-8 2-10 0-1 1-1 2-1 0 0 1 0 2 1-1-3-3-4-5-2 1-4 3-8 7-8 2-1 3 0 2 3 1 1 1 1 2 1 1 0 1-1 1-2 1-3-2-5-5-4-3 0-6 2-8 5 0-1 0-1 0-2 2-1 3-2 4-4-1 0-2 1-3 1 0-3 1-6-2-8-3 2-2 5-1 9-1-1-1-1-2-2 0 3 1 3 3 4 0 1 0 2 0 3 0 1 0 2 0 3-3-3-5-4-9-5-3 0-5 0-7 1-3 2-5 5-5 8 0 3 2 6 6 8 1 0 4 4 2 6-1 0-2 0-3 0 1 2 3 3 4 1 2-1 2-3 1-6 2-1 4-2 5-3 1-3 1-6-1-7-2-3-5-3-7-1-3 2-2 4 0 5 1 1 3 0 2-1-1-1-1-2-1-3 1-1 3-1 5 1 1 2 1 4-1 6-1 1-3 1-4 1-6-1-9-7-5-11 2-2 5-3 7-3 3-1 6 0 8 2 4 4 4 8 3 12-3 8-13 13-20 13 8-9-1-21-11-15-2 2-3 6-1 8 2 3 5 3 8 1-4-1-6-4-4-5 1-2 5 0 6 1 1 0 1 0 2-1 3 4 0 8-3 11-2 1-4 2-6 3-4 1-8 2-13 0-2 0-5-2-7-4-1-1-2-3-3-4-1-2 0-5 3-7 0 1 1 1 2 1 0-1 0-1-1-2 1 0 2-1 3 0 1 0 2 1 3 2 0 1 0 1 0 2 0 0 1 0 1 0 1 1 1 2 0 2 0 1-1 2-1 2-2-1-3-2-1-3z"/><circle transform="matrix(1.06138-.798-.80845-1.04397 171.46 620.05)" r="2"/><circle transform="matrix(.89709-.67448-.68331-.88237 165.46 614.39)" r="2"/><circle transform="matrix(.73279-.55095-.55816-.72077 158.64 613.61)" r="2"/><circle transform="matrix(.5685-.42742-.43302-.55917 152.54 614.64)" r="2"/><circle transform="matrix(.4042-.3039-.30788-.39757 147.45 615.46)" r="2"/><circle transform="matrix(.3127-.2351-.23818-.30756 142.76 615.63)" r="2"/><path d="m171 609c5 2 10 4 16 3 7-2 10-6 13-12-3 2-6 3-10 3-2 0-4 0-6 0-6 0-9 2-13 6z"/><path d="m183 596c-4 1-5 3-7 6 3 0 5 0 7-1 3-1 6-7 4-10-1 2-2 4-4 5z"/><path d="m168 597c2 1 3 2 5 1 2-1 3-3 4-4-1 0-2 1-3 1-1 0-1 0-3 0-1 1-2 1-3 2z"/><path d="m157 569c2 1 4 2 6 3 3 4 5 6 11 6-2-8-8-11-17-9z"/><path d="m158 578c0 7-3 11-10 11 1-3 2-5 6-7 1-1 3-2 4-4z"/><path d="m148 585c2-1 2-2 3-3 2-3 2-5 0-8-1-1-2-2-4-2 3 3 2 5 0 8-1 2 0 2 1 5z"/><path d="m194 605c-3 4-7 6-12 6-2 0-3-1-5-2 7 2 11 0 17-4z"/><path d="m151 588c3 0 5-2 6-6-2 3-3 5-6 6z"/><path d="m163 570c4 1 6 2 9 5-3-2-6-4-9-5z"/><path d="m180 601c2 0 4-1 6-4-2 2-3 3-6 4z"/><path d="m178 575c0-2-1-4 0-5 1 2 1 3 0 5z"/><path d="m52 344c0 0-1 1-2 2-1 2-3 1-4-1-1-3 2-5 5-5 7 0 12 4 15 9 10 19 2 41-5 61-1 2-2 5-2 7-2 7-1 13 1 19 4 0 9 2 12 4 2 1 3 3 3 4 2 5 0 9-6 8-5 0-10-7-12-12-2 0-4 1-4 1 1 6 3 11 5 15 3 5 7 10 8 15 2 5 1 9-3 14 2-4 3-7 2-12-1-3-2-6-4-8-1-3-3-6-5-9-2-4-4-8-5-13-5 5-7 11-6 17 1 4 3 7 7 10 1 0 1-1 2-1 2 0 6 1 6 4 0 1-1 2-3 3-1 0-3 0-4 0-3-2-5-4-7-7-5-11-4-22 4-29-1-12-1-23 5-33 1-2 3-5 4-7 3-5 4-9 6-15 2-7 2-14 3-21-1-8-2-16-10-20-2-1-4-1-6 0z"/><path d="m52 439c1-1 2-2 4-2-2-7-2-14-1-21-3 7-4 15-3 23z"/><path d="m60 439c2 5 6 11 11 11 2-1 3-2 2-4-2-5-9-7-13-7z"/><path d="m76 440l3-10h11l-9-6 3-10-8 6-9-6 4 10-9 6h11z"/><path d="m76 411l4-7 7 2-5-6 4-6-7 3-5-6 1 8-8 3 8 1z"/><path d="m78 390l3-4 5 1-4-4 3-4-5 2-3-5v6l-5 2 5 1z"/></g></g><path d="m103 437v2l-7 2c0-1 0-2 0-3 0 0 1-1 2-3 0-1 1-1 1-2 0 0 0-1 0-1 0-1 0-1-1-1 0 0 0 0-1 0 0 0 0 0-1 0 0 1 0 1 0 2h-2c0-1 0-2 1-3 0 0 1-1 2-1 1 0 2 0 3 0 0 1 1 1 1 2 0 1 0 1 0 2 0 0 0 1 0 1 0 1-1 1-1 2-1 1-1 1-1 1 0 1 0 1-1 1l5-1zm1-1l2-1c0 1 0 1 0 1 1 0 1 0 1 0 1 0 1 0 1 0 1-1 1-2 0-3 0 1-1 1-1 1-1 0-2 0-3 0-1-1-1-1-1-3-1-1-1-2 0-2 0-1 1-2 2-2 1 0 2 0 3 1 1 0 2 2 2 4 1 2 1 3 0 4 0 1-1 2-2 2-1 0-2 0-3 0 0 0-1-1-1-2zm4-6c-1 0-1-1-1-1-1 0-1 0-2 0-1 1-1 1 0 2 0 1 0 1 0 1 1 1 1 1 2 1 0 0 0-1 0-1 1 0 1-1 1-2zm5 7v-3h2v2l-2 1zm5-13c1 0 2 0 3 0 1 1 1 3 2 5 0 2 0 3 0 4-1 1-1 2-2 2-1 0-2 0-3-1-1 0-2-2-2-4-1-2-1-3 0-4 0-1 1-2 2-2zm0 2c0 0 0 0 0 0v1c0 1 0 2 0 3 0 1 1 2 1 2 0 1 0 1 1 1 0 0 1 0 1 0 0 0 0-1 0-1 0-1 0-2 0-3-1-1-1-2-1-2 0-1-1-1-1-1 0 0 0 0-1 0zm5-1v-2l7-2v2c0 0 0 1-1 3 0 1 0 2 0 3 0 2 0 3 0 4h-2c0-1 0-3 0-5 0-1 0-3 1-4l-5 1zm11 7v-3h2v2l-2 1zm11-5v2l-7 2c0-1 0-2 0-3 0 0 1-1 2-3 1-1 1-2 1-2 0 0 0-1 0-1 0-1 0-1 0-1-1 0-1 0-1 0-1 0-1 0-1 0-1 1-1 1-1 2h-2c0-1 0-2 1-3 0 0 1-1 2-1 1 0 2 0 3 0 1 1 1 1 1 2 0 1 0 1 0 2 0 0 0 1 0 1 0 1-1 1-1 2-1 1-1 1-1 1 0 1 0 1 0 1l4-1zm3-10c1 0 1 0 2 0 1 1 2 3 2 5 1 2 1 3 0 4 0 1-1 2-2 2-1 0-2 0-3-1-1 0-1-2-2-4 0-2 0-3 0-4 1-1 1-2 3-2zm0 2c0 0-1 0-1 0 0 0 0 1 0 1 0 1 0 1 0 3 1 1 1 2 1 2 1 1 1 1 1 1s0 0 1 0c1 0 1-1 1-1 0-1-1-2-1-3 0-1 0-2-1-2 0-1 0-1 0-1-1 0-1 0-1 0zm12 6l-2 1-2-8c0 1-1 2-2 2v-2c0 0 1 0 1-1 1-1 1-1 1-2l2-1 2 11zm8-1h-2l-2-8c-1 1-1 2-2 2l-1-1c1-1 1-1 2-2 0-1 1-1 1-2h1l3 11z" fill="#fefefe" fill-rule="nonzero" stroke="#fefefe" stroke-linejoin="round" stroke-linecap="round" stroke-width="9.524"/><g fill="#201e1e"><g font-family="&apos;Arial Black&apos;" font-weight="900" font-size="12.599" transform="matrix(.98036-.23827.26571.95699-243.49 163.23)"><text x="250" y="354">00.00.0000</text><text x="250" y="354">00.00.0000</text></g><g stroke="#201e1e" stroke-width=".181"><g font-family="&apos;Amazone BT&apos;" font-size="42.76"><text x="250" y="354" transform="matrix(1.0094 0 0 1-185.05 24.643)"> T1</text><text x="102" y="410"> T2</text></g><path d="m57 271c0 1 0 1 0 1-3 2-5 3-7 3-1 0-2 0-3-1-1 0-1-2-2-3 0-2-1-4-1-6 0-1 0-1 0-2 0-1 0-1 1-2 0-1 0-2 0-3 1-1 1-2 2-3 1 0 2 0 3-1 1 0 2 1 3 1 1 1 2 1 2 2 1 1 1 2 2 3 0 1 0 2 0 3 0 0 0 0-1 0 0 0-1 0-1 0l1-2c0-2-1-3-2-4-1 0-2-1-3 0-1 0-2 0-3 0 0 1-1 2-1 2-1 1-1 2-1 3 0 1-1 2 0 4 0 1 0 2 0 3 1 2 1 3 2 3 1 1 2 1 3 1 2 0 3 0 5-2 0 0 0 0 1 0zm7-4v-1c-1 0-1 0-1 0s-1 0-1-1c0 0-1 0-1 0-1 0-1 0-2 0 0 0-1 0-1 0l-2-1h-3c-1 0-2 0-3 0 0 0-1-1-1-2h-1v-1c0 0 0 0 0 0 1 0 1 0 2 0 0 0 1 1 2 1h2 4c0 0 1 0 2 1 1 0 1 0 2 1 1 0 1 1 2 2v1zm-1-4v-3c0 0 0-1 0-2l-1-1c0-1 0-1 0-1h1c0 1 0 1 0 1l1 1 1 1c0 1 0 2 0 3v2c0 1 0 1 0 2 0 0 0 1 0 1 0 2 0 3 1 3 0 1 1 2 1 2 0 0-1 0-1 0 0 0 0 0-1 0 0 0 0-1-1-1 0-1 0-1-1-2 0 0 0-1 0-1v-1-4zm-10-15v-1c0-1 0-1 1-2 1-1 2-1 3-1h1 1l2 1c0 0 1 0 1 0 0 0 0 1 0 1 1 0 1 0 1 1l1 1c0 1 1 2 1 3 0 0-1 1-2 1 0 1-1 1-3 1 0 0-2 0-3-1-1 0-2 0-3-1 0 0 0-1-1-2v-1zm6 3c1 0 2 0 2-1 1 0 1 0 2 0 0-1 0-1 0-1 0-1 0-1-1-1 0-1-1-1-2-1-1 0-2-1-3-1 0 0-1 1-2 1 0 0-1 0-1 0 0 0 0 1 0 1 0 1 0 1 0 1 1 0 1 1 1 1h3c0 1 0 1 1 1zm5-11l1 2c0 0 0 0 0 0h-1-3l-5-1c0 0-1 0-1 0 0 0 0 0 1 0 0 1 0 1 0 1v1c0 0 0 0-1-1l-1-1-1-2c0 0 0-1 0-1 0 0 1 0 1 0h1c3 1 6 1 7 1 0 1 1 1 2 1zm-5-3c0 0 0 0 0 0-1 0-1-1-2-1 0 0 0 0-1 0 0 0 0 1 1 2h1c0 1 0 1 0 1-1 0-1 0-1 0l-1-1c-1-1-2-2-2-2 0-1-1-1 0-2 0 0 0-1 0-1 1 0 2 1 3 2 1 1 2 2 2 2zm-3-17v-1c0-1 1-1 2-2 1 0 1 0 2 0h1l2 1h1c1 1 1 1 1 1s1 0 1 1l1 2c0 1 0 2 0 3 0 0-1 1-1 1-1 1-2 1-3 0-1 0-2 0-4-1-1 0-2-1-2-2-1 0-1-1-1-2v-1zm6 4c0 0 1 0 2 0 0 0 1 0 1-1 1 0 1 0 1-1 0 0 0 0-1 0 0-1 0-1-1-2-1 0-2 0-3-1-1 0-2 0-3 0 0 0 0 0-1 0 0 1 0 1 0 1v1c0 0 0 0 0 1 0 0 1 0 1 0l2 1c1 1 1 1 2 1zm6-9l1 3-1-1-2-1-6-2c0 0 0 0-1 0 0 0 1 1 1 1 0 0 0 1 0 1 0 0-1 0-1 0v-2l-1-2c0 0 0 0 0-1 0 0 0 0 1 0l1 1c3 1 5 2 6 2 1 0 2 1 2 1zm-8-4c0-1 0-2-1-3 0-1 0-1 0-1 0-1 1-1 2-1 1 0 3 1 7 3 0 0 1 0 1 0 0 0-1-1-1-2 0 0 0 0 0 0 1 1 2 2 2 3 0 1 0 1 0 2 0 0 0 0-1 0-1 0-1 0-1 0l-3-1-3-2c-1 0-1 0-1 0 0 1 0 1 1 2 0 1 0 2 0 2 0 0-1 0-1 0l-1-2zm11-15c0 0 0 0 0 0 1 0 1 0 1 0 1 3 2 5 1 5 0 1 0 1-1 0h-1l-2-1-3-2-5-2c-2-1-3-2-4-2 0 0 0 1 0 2 0 0 0 0 0 0-1 0-1 0-1-1 0 0 0-1 0-2-1-1-1-2-1-2 0 0 1 0 1 0 1 0 3 1 7 3 4 3 6 4 8 4 0 1 1 1 1 0 0 0 0 0-1-1 0 0 0-1 0-1zm-7 2h-1c0 1 0 2 0 2 1 1 1 2 3 2 1 1 2 2 2 2 1 0 2 0 2 0 0-1 0-2-1-3 0-1-1-2-1-2 0 0 0 0 1 0 0 0 0 0 0 1 1 0 1 0 1 1l1 1c1 2 1 3 1 4-1 1-1 1-3 0 0 0-1 0-1 0l-3-2c0 0-1 0-1-1-1 0-1-1-2-1 0-1 0-2 0-3 0-2 0-3 1-3 0 0 0 0 1 0 0 1 0 1 0 1v1zm4-10c0 0 0 0 0 1-1 0-1 1-1 1 0 0 0 0 1 1 0 0 1 0 1 1 1 1 2 1 2 1 2 1 3 1 3 0 1-1 1-2 1-2l-1-1v-1h1c0 0 0 0 0 0v1l1 1c0 2 0 3 0 4 0 1-1 1-2 2 0 0-1-1-2-1h-1c-1-1-1-1-2-1 0-1-1-1-2-2 0-1-1-2-1-3 0-1 0-2 0-3 1-1 1-1 2-1 0 0 1 1 1 1 0 1 1 1 1 2 0 0 0 1 0 1 0 0 0 0 1 1 0 1 0 1 0 2 0 0 0 1 0 1 0 0 0 0-1 0v-2-2c0 0-1 0-1 0 0 0 0-1 0-1 0 0 0-1-1-1zm3-9l2-2 1-3c1 0 1-1 1 0 0 1 0 1 1 2 0 0 1 1 1 2 1 0 1 1 2 1 0 0 1 1 1 1 1 1 2 1 3 0 0 0 0 0 0-1 0-1-1-2-2-4l-2-1c0 0 0 0 0 0-1 0-1 0-1 0-1-1-2-2-2-2 0 0 0-1 0-1 0 0 1 0 1 0 0-1 0-1 1 0 1 0 1 0 1 1 0 0 1 0 1 0 0 1 0 1 1 1 0 0 0 0 0 1h1c0 0 1 0 1 0 0 0 0 1 0 1h-1c2 3 2 6 1 7 0 1-1 1-1 1-1 0-2 0-2 0-1-1-2-2-3-2 0-1-1-2-1-3-1 0-1-1-1-1 0 0 0 0-1 0v1c-1 1 0 2 0 2v1l-3-2zm11-16h1c0-1 1-1 2-1 1 0 2 0 3 1v1l1 1 1 1c1 1 1 1 1 1v1c0 0 0 1 0 1v2c0 1-1 1-1 2-1 1-2 1-2 1-1 0-2-1-3-1-1-1-2-2-2-3-1-1-2-2-2-3 0 0 0-1 1-2v-2zm3 7c1 0 2 1 2 1 1 0 1 0 2 0 0 0 0 0 1 0 0-1 0-1 0-1 0-1-1-2-1-2-1-1-2-2-3-3 0 0-1 0-1-1-1 0-1 0-1 0-1 0-1 0-1 0-1 0-1 1-1 1 0 0 0 0 0 1 0 0 1 0 1 1l1 2c0 0 1 0 1 1zm5-13h-1c0 0 0 1 0 1 0 0 1 1 1 1 0 1 0 1 1 2 0 1 1 1 1 2 2 1 3 1 3 0 1 0 1-1 1-2 0 0 0-1 0-1 0 0 0 0 0-1 1 0 1 0 1 1v1 1c0 2 0 3-1 4-1 0-1 1-2 1-1-1-1-1-2-2h-1c-1-1-1-1-1-2-1 0-1-1-1-2-1-1-1-2-1-3 0-1 1-2 2-3 0-1 1-1 1-1 0 0 0 1 0 1l1 1c0 0 0 1 0 1h-1v-1c0 0 0 0 0 0l-1 1zm8-7c0 0 0 0-1 0 0 0 0 1 0 1 0 0 0 1 0 1 0 0 0 1 0 2 1 1 1 1 2 2 1 1 2 1 3 1 0-1 1-1 1-2v-1-1h1c0 0 0 1 0 1v1 1c-1 2-1 3-2 4 0 0-1 0-2 0 0 0-1-1-2-1l-1-1c0-1 0-1-1-2 0 0 0-1-1-2 0-1 0-2 0-3 1-1 1-2 2-3 1-1 1-1 2 0 0 0 0 1 0 1 0 1 0 2 0 2 0 1 0 1 0 1v1c0 1 0 2 0 2 0 1 0 1-1 1v-2l1-1c0-1 0-1 0-1v-1c0 0-1-1-1-1zm-7 1l1-5 4 1-1 1h-2v3h-2zm15-17l-1 1c0 0 0 1 1 2l1 2c1 0 1 1 1 1l1 1c1 1 1 2 2 4l2 3 2 4 2 4-1 2-2-3-1-3-2-2-2-4c0 0 0 0 0-1-1 0-1-1-1-1l-2-3c0 0-1-1-1-1 0-1 0-1-1-2 0-1 0-1 0-2 0-1 0-1 0-1 0-1 0-1 0-1 0-1 0-1 0-1v-1l2 2zm-2 9l5-4h1l-6 4zm10-7v-1c1 0 2 0 3 0 1 1 2 1 2 2l1 1v1l1 2c0 0 0 1 0 1 0 0 0 0 0 1 0 0 0 0 0 1l-1 1c-1 1-1 2-2 2 0 1-1 1-2 0-1 0-2-1-2-2-1 0-1-1-2-3 0-1 0-2 0-3 0 0 0-1 1-2l1-1zm1 7c0 0 1 1 1 1 1 1 1 1 2 1 0 0 1 0 1 0 0 0 0-1 0-1 0-1 0-1 0-2 0-1-1-2-2-3 0-1 0-1-1-2 0 0-1 0-1 0 0 0-1 0-1 0 0 0 0 0 0 1 0 0-1 0-1 0 0 0 0 1 1 1v3c0 0 1 0 1 1zm12-2l-2 2c0 0 0 0 0 0 0-1 0-1 0-1l-1-3-2-4c-1-1-1-1-1-1s0 0 0 1c0 0-1 0-1 0v1c0-1 0-1 0-1l1-2 1-1c0-1 0-1 0-1h1v1c2 4 2 6 3 6 0 1 0 2 1 3zm0-6c0 0 0 0-1-1 0 0 0 0 0-1 0 0 0-1 0-1-1 0-1 1-1 2l-1 1c0 0 0 0 0 0-1 0 0 0 0-1v-2c0 0 0-1 1-2 0 0 1-1 1-1 0 0 1 0 1 0 0 1 0 2 0 3 0 2 0 3 0 3zm6 2c0 0 0 0 0-1 0 0 1 0 1-1 0 0 1 0 1 0 0 0 1 1 1 1 0 0 0 1 0 1 0 1-1 1-1 1 0 0 0 0-1 0 0 0 0 0-1-1zm5-2c0 0 0 0 0-1 0 0 1 0 1-1 0 0 1 0 1 0 0 0 1 1 1 1 0 0 0 1 0 1 0 0-1 1-1 1 0 0 0 0-1 0 0 0 0 0-1-1zm5-2c0 0 0-1 0-1 1 0 1 0 1-1 0 0 1 0 1 0 0 0 1 1 1 1 0 0 0 1 0 1 0 1-1 1-1 1 0 0 0 0-1 0 0 0 0 0-1-1z" fill-rule="nonzero"/></g></g></g></g></svg>