<svg xmlns="http://www.w3.org/2000/svg" viewBox="0 0 500 707" shape-rendering="geometricPrecision" image-rendering="optimizeQuality" fill-rule="evenodd" clip-rule="evenodd"><defs><clipPath id="3"><path d="m375 484c35 0 63 21 63 48 0 26-28 48-63 48-34 0-63-22-63-48 0-27 29-48 63-48"/></clipPath><clipPath id="2"><path d="m335 607c28 14 80 11 96-14 16-24 13-95 14-129 4-86 13-151 16-220 3-77-50-129-113-142-86-18-82 100-71 159 7 32 18 61 26 93 15 58 2 150 7 211 3 21 11 35 25 42"/></clipPath><clipPath id="0"><path d="m167 608c-27 13-80 10-96-14-16-25-12-96-14-130-3-86-13-151-15-220-3-76 49-128 112-141 87-18 82 99 71 158-6 33-17 61-26 93-15 59-1 150-7 211-2 21-11 35-25 43"/></clipPath><clipPath id="1"><path d="m126 484c34 0 62 21 62 48 0 26-28 48-62 48-35 0-63-22-63-48 0-27 28-48 63-48"/></clipPath></defs><g clip-path="url(#0)"><g><g fill="#201e1e"><path d="m43 96h6v556h-6z"/><path d="m57 96h6v556h-6z"/><path d="m70 96h7v556h-7z"/><path d="m84 96h7v556h-7z"/><path d="m98 96h7v556h-7z"/><path d="m112 96h6v556h-6z"/><path d="m126 96h6v556h-6z"/><path d="m140 96h6v556h-6z"/><path d="m154 96h6v556h-6z"/><path d="m168 96h6v556h-6z"/><path d="m182 96h6v556h-6z"/><path d="m196 96h6v556h-6z"/><path d="m209 96h7v556h-7z"/><path d="m223 96h7v556h-7z"/></g><path d="m126 484c34 0 62 21 62 48 0 26-28 48-62 48-35 0-63-22-63-48 0-27 28-48 63-48" fill="#fefefe"/></g><g clip-path="url(#1)"><g fill="#201e1e" stroke="#201e1e" stroke-width=".595"><path d="m77 544c0 1 0 3 0 4 0-1 0-1 0-1 1-2 0-4-1-5 0 1 0 1 1 2zm-9-9c1 0 1-1 1-2-1 0-1 0-1 0-1 0-1 0-1 0s0 0-1 0c0 0 0 0 0 1 0 0 1 0 1-1 1 1 0 2 0 2-1 1-1 1-2 1 0 0 0 1 0 2 0 1 2 2 4 2 1 0 2 0 3 0 1 0 1 0 1 0s0 0 1 0c0 0 0 0 1 1 1 0 1 0 2 1 1 1 1 2 1 4 0 1 0 2-1 3-1 1-1 1-2 2-1 0-1 0-1-1 1 0 2-1 2-1 1-1 1-2 1-3 0-1-2-3-3-4-1 0-3 1-3 1-1 1-1 1-1 3 0 0 0 1 1 1 0 0 0 1 1 1 0-1 0-1 0-1 1 0 1 0 1 0 1 0 1-1 0-2 0 0 0 0-1 0 2 0 3 1 2 2 0 1-2 2-3 1 0 0-1 1-1 1 0-1 0-2-1-2 0 0 0 0-1 0 1-3 2-5 6-5 0 0-1 0-1 0-1 0-3 0-4 1-1 1-1 3-1 4 0 3 2 5 5 5 0 0 1 0 1-1 1 0 1 0 2 0-1 1-2 2-4 2 0 0 0 1 0 1 0 0 0 0 0-1-1 0-2-1-3-2 0 0 0 0-1-1 1 3 3 5 5 6 1 0 1 0 1 0 0 1-1 1-1 1s1-1 2-1c0 1-1 1-1 2 0 0 0 0 1-1 0 0 1 0 1 1 0 0-1 0-1 0 0 0 0 1 1 1 0 0 0-1 0-1 0 0 1 0 1 0 2 0 3 0 4-1 0-1 1-2 0-3 0 0-1 0-1 0 0-1 0-1 0-2 0 0 0 1 0 1 1 0 1 0 1 0 0-1 0-1-1-1-1 0-2 1-1 2 0 0-1 0-1 0 0 0 0-1 0-2 1 0 1-1 2-1 1 1 3 2 3 4 0 1-1 2-2 3 0 0 1 0 1 0 1 0 1-1 1-1 0 2-1 3-3 2-1 0-2-1-3-1 0 0-1 1-1 1 1 0 3 1 4 2 1-1 2 0 3 0 1-1 2-1 3-3 0 0 0 1 0 1 0 0 0 1-1 1 0 0 1 0 1 0 0 1 0 1-1 1-1 1-3 0-4 0 1 0 3 1 4 2 0 0 1 0 1 0 0 0 0 0 1 0 0 0 1 0 2 0 0 0 0 0 1-1 0 1 0 1-1 1 0 1 1 1 1 1h-1c-1 0-2-1-2-1 0 0 0 1 0 1 1 0 2 1 3 2 1-1 2 0 2 0 1 1 1 2 0 2 0 0 0-1 0-1-1 0-1-1-1-1s1 2 1 3c0 0-1-1-1-1 0-1 0-1-1-2 0 1 1 1 1 2-1 0-1 0-1 0s1 0 1 1c0 0-1 0-1 0-1-1-1-2 0-3-1-1-2-1-3-2 1 1 1 1 1 2 0 0 0 1 0 1-1 0-1 0-1 0s-1 1-1 0c1 0 1-1 1-2 0-1-2-2-3-2-1-1-2-1-3-2 0 1 1 1 2 2 0 0 1 1 1 1 1 1 0 1 0 1 0 1-1 3-2 3 0 0 0 0 0-1 1 0 1 0 1-1 0-1 0-2-1-3 0 0-1 0-1-1 0 0-1 0-1-1 0 0-1 0-1 0-1-1-2-1-3-2-1 1 0 2 1 2 0 0 1 0 2 0 0 0 1 1 1 2 0 1 0 1 0 1-1 0 0 0-1-1 0 0 0 0-1 0 1 1 2 2 2 3 0 1-1 2-2 3-1 0-1-1-1-1 0 0-1 0-1-1 0 0 0 0 1 0 0 1 2 1 2 0-1 0-1 0-1 1 0 0 0-1 0-1 0 0-1 0-1 0 0 0 0-1 0-1 1-1 1-1 1-2 0 0-1-1-1-2-1 0-2-1-2-1 0-1 0-2 0-2-1 0-1 0-1-1-1 0-1 1-1 1-1 0-1-1 0-1 0 0 0 0 0-1 0 0 0 1-1 1 0 0 0-1 0-1-1-2-3-3-4-5 0 0 0 1-1 1 0-1 1-1 1-2 0-1-1-3-1-4 0-1 1-1 1-2-1 1-1 2-2 2 0 0 0-1 0-1 0 0-2 0-1-1 0 0 0 0 0 1 1 0 2-1 2-1 1 0 1-1 1-2 1 0 1-1 1-1 1 0 2-1 2-1 1 0 1-1 2-1-2 0-4 2-6 1 0-1 0 0-1 0 0 0 0 0-1-1 0 0-1 0-1 0 0 0 0-1 0-1 0 0 0-1 0-1s0 1 1 1c0-1-1-1-1-3 0-2 2-4 4-4 1 0 2 1 1 2 0 1 0 1-1 1z"/><path d="m96 548c0 1 1 2 2 2 1 1 1 3 1 5 1-2 0-4-1-6 0 0-1-1-2-1zm-10-7c0 0 1-1 0-2 0 0-1 0-1 0-1 0-2 0-2 1 0 0 1 0 1-1 1 1 1 3 0 3-1 1-2 1-2 2 0 1 1 2 2 2 0 1 1 1 2 1 1 0 3 0 4 0 0 0 1-1 2-1 1 0 1 0 1 0s0 1 1 1c0 0 0-1 0-1 2 1 3 1 4 2 2 2 2 3 2 6 0 1 0 2-1 3-1 1-1 2-3 2 0-1 0 0 1-1 0 0 1-1 1-1 1-1 1-2 1-3 0-1-1-3-2-3-1-1-3-3-4-2-2 1-3 2-3 3 0 1 0 2 0 3 1 0 1 1 2 1 1 0 1-2 2-2 1 0 1 1 1 1 0 0 0-2-1-2 0 0 0 0-1 0 0 0 0 0 1 0 1-1 2 0 2 2-1 1-2 2-4 1 0 1-1 1-1 2 0 0 0 0-1 0 0 0 0 0 0-1 0 0 0-1 0-1 0 0 0-1 0-1-1 0-1 1-1 1 0-5 1-7 5-7-1-1-2 0-2 0-2 1-3 2-4 4 0 3 1 6 2 7 2 1 4 1 6 0 1 0 1-1 2-1 0 0 0 1-1 1 0 1-1 2-3 2 0 0 0 1 0 1 0 0-2 0-2-1-1 0-2-1-2-1 0-1 0-1-1-1 2 3 4 5 7 6 0 0 0-1 0-1 1 0 1 1 1 1 0 0-1 1 0 1 0-1 0-1 1-2 1 1 0 2 0 3 0 0 0-1 0-1 1 0 1 0 1 0 1 1 0 1 0 1 0 0 0 0 1 0 0-1 1-1 1-1 1 0 2 0 3 0 1-1 2-2 2-3 0-1 0-1-1-2 0 0-1 0-1-1-1 0-1-1 0-1 1 1 1 0 1 0 0 0-1-1-2 0 0 0-1 1-1 2 0 0 0 0 1 0 0 0 0 1 0 1-1 0-2-1-2-2 0-1 1-2 3-2 1 0 1 0 2 1 1 1 1 2 1 2 1 2 0 3-1 4 0 0 1 0 1 0 1 0 1-1 1-1 1 2-1 3-2 3-2 1-3 0-5 0 0 0-1 0-1 1 2 0 4 0 5 1 0 0 1 0 1-1 1 0 1 1 2 0 1 0 2 0 3-1 1-1 1-1 1-2 1 1 0 2 0 2 0 1 0 1 0 2-1 0-1 0-2 0-2 0-3 0-4 0 2 1 4 1 6 1 0 1 1 1 1 1 0 0 0-1 1-1 0 0 1 1 2 1 1-1 1-1 1-2 0 1 1 1 0 1 0 0 0 0 0 1 0 0 1 0 1 0s-1 0-2 0c-1 0-1 0-2 0 1 1 3 1 4 2 1-1 3 0 4 1 0 0 0 1-1 2 0-1 0-2 0-2 0 0 0 0-1 0 0 0 0-1-1 0 1 1 2 2 3 3 0 0-1 0-1 0-1-1-1-2-2-3-1 1 0 1 0 1 0 1 0 1 0 1s1 0 1 1c-2 0-3-2-2-3-1-1-2-2-3-2 0 0 1 1 1 2 0 0 0 1 0 2 0 0 0-1-1-1 0 1-1 2-1 1 0 0 1-1 1-2 0-4-6-3-9-4 1 0 2 0 3 1 1 0 1 0 1 1 1 0 1 0 1 1 0 2 0 3-1 4 0 0-1 0-1 0 1-1 1-1 1-2 0-1-1-2-1-3-1 0-1-1-2-1-1 0-1-1-2-2-1 0-3 0-5-1-1 1 0 1 0 2 1 0 1 0 2 0 0 0 1 0 1 0 1 0 2 0 2 1 0 0 1 0 1 1 0 0 0 1 0 1 0 0-1 0-1 0 0 0 0-1 0-1-1 0-1 0-1 0s0 1 1 1c0 1 1 2 1 4 0 1-1 2-2 2-1 0-2-1-2-1 0-1 0-1 0-1 0 1 1 1 2 1 1 0 1-1 1-2 0 1-1 1-1 2 0 0 0 0 0-1 0 0-1 0-1 0 0 0 0-1 0-1 0-1 1-1 1-2 0 0-1-1-1-1-1-1-1-1-2-2-1-1-2-2-2-3 0 0 0 0-1 0-1 0 0-1 0-1 0 0-1 0-1 0 0 0 0 1-1 1-1 1 0 0 0-1 0-1 0-1 0-1 0 1-1 1-1 1 0 0 0-1 0-1-1-1-2-2-3-3-1-1-2-2-3-3 0 1 0 2-1 2 0 0 0-1 0-1 1 0 1-1 1-1-1-2-1-3-2-5 0-1 0-2 0-3 0 2 0 3-2 3 0 0 1-1 1-1-1 0-1 1-2 0 0 0 0-1 0-1 1 1 2 0 3 0 0-1 0-2 1-3 0-1 1-2 3-3 0-1 1-1 2-1-3 0-4 2-7 2 0-1 0-1 0-1-1 0-1 1-2 1 0 0-1-1-2-1 0 0 0 0 0-1-1 0-1-1-1-1 0 0 0 0 1 0 0 1 0 1 1 1-1-1-2-2-2-4 0-1 1-2 1-3 1-1 2-2 3-2 1 0 2 1 2 2 0 1 0 1-1 1z"/><path d="m84 566c0 0 0 0 0 0 0-1 1-1 1 0 0 0 0 0-1 0z"/><path d="m85 567c0 0 0 1 0 1 0 0-1 0-1-1 0 0 1 0 1 0z"/><path d="m84 568c1 0 1 1 1 1 0 1-1 0-1 0 0 0 0-1 0-1z"/><path d="m81 570c0 0 0 0 0 0s0 0 0-1c-1 0-1 1-2 1 0-1 1-2 2-2 1 1 1 2 0 2z"/><path d="m92 573c0 0 0 0 0 0s0 0 1 0c0-1 0-1 0-1l-1 1zm1-1c0 0 1 0 0 0zm0-1c0 0 0 0 1 0 0 0 0 1 0 1 0 0 0-1 0-1 0 0 1 0 1-1 0 1 0 2-1 3 0 1-1 1-2 1 0 0 0 0-1 0-1 0-1-1-1-2 0-1 1-3 1-3 1 1 0 2 0 3 0 0 0 1 0 1 1 0 0-1 0-2 0 0 1-1 1-1 1 0 1-1 2-1 0 0 0-1 0-1s0 3-1 3z"/><path d="m89 574c0 0-1 0-1 0 0 0 0 1 1 0zm-1 0v0c0 0 0 0-1 0 0 0 1 0 1 0zm-2-2c1 1 0 1 1 1 0 0 0-1-1-1 0-1 1-2 1-3 0 1 0 1 0 2 0 0 1 1 1 2 0 1 1 1 1 1 0 0-1-1 0-1-1-1-1-1-1-1 0-1 1-2 2-3 0 1-1 2-1 3 0 0 0 0 0 1 0 0 1 1 1 1 0 1-1 1-2 1-1 0-2-1-2-2 0 0 0-1 0-1z"/><path d="m84 570c0-1 1 0 1 0-1 1-1 0-1 0z"/><path d="m79 571c0 0 0-1 0-1 1 0 1 1 0 1z"/><path d="m83 571c0 0 0 0 0 0 0-1 1-1 1 0 0 0-1 1-1 0z"/><path d="m80 571c1 0 1 1 0 1 0 0 0-1 0-1z"/><path d="m83 571c0 1-1 1-1 0 0 0 0 0 1 0z"/><path d="m81 571c1 1 0 1 0 1-1-1 0-1 0-1z"/><path d="m92 575c1 0 1 0 1 0h-1zm3-3c0 1 0 2 0 2-1 1-2 0-2 1 0 0 1 0 1 0 1-1 1-1 2-1 0 0 0-1 1-1 0 0 0 0 0 1 0 1-1 2-3 1 0 0 0 0 0 1 0 0-1-1-2 0 1 0 1 0 1 0s0 0 1 0c0 0 0 0 1 0 0 0 0 0 1 0-1 0-1 1-2 1-1 0-2 0-2-1-1 0 0-1 0-1 1-1 2-1 2-2 1 0 1 0 1-1z"/><path d="m88 580c0-1 0-3 1-4 0-1 1-2 2-2 0 0 1 1 0 1 0 1-1 2-1 3-1 1-1 1-2 2z"/><path d="m112 576c-1 0-1 0-1 0 0-1 0-1 1-1 1 0 0 1 0 1z"/><path d="m88 577c0 0-1 0-1 0 0 0 0 0-1 0 0 0 1-1 1-1 0 0-1-1-1-1 1 0 0 0 1 0 0 1 2 0 2 1 0 0-1 0-1 1z"/><path d="m112 576c1 0 1 0 1 1 0 0 0 1 0 1-1 0-1 0-1-1 0 0 0 0 0-1z"/><path d="m94 578c-1 0-2 0-2 0 0 1-1 1-1 1 0-1 0-1 0-1s1 0 1-1c-1 0-1 1-1 1 0 0-1 1-1 0l1-1c0 0 1-1 1 0 0 0 0 0 1 0 0 1 0 1 0 1h1z"/><path d="m122 583c0 0 0 0 1 0 0 0-1-1 0-1 0 0 1-1 1-1s-2 1-2 2zm2-2c0 0 0 0 0 0zm0-4c0 0 0 1 0 2 0 0-1 1-1 1 0 0 0 0 1 0 0 0 0 0 0 1 0 0 0-1 0-1 0-1 1-1 1-1 1 2 0 4-1 5-1 0-2 1-2 0-1 0-1 0-2 0 0 0-1-2-1-2 0-1 1-2 1-3 0-1 0-1 1-1 0 1 0 3 0 4 0 0 0 0 0 1 1-1 0-2 0-3 0-1 0-1 1-1 0 0 0 0 0 1 0-1 1-3 2-3z"/><path d="m112 578c1 0 1 1 1 1 0 1-2 0-1-1z"/><path d="m118 585c0 0 0 0 1 0h-1zm-1 0c0 0 0 0 1 0 0-1-1-1-1-1 0 0 0 1 0 1zm2-6c0 0 0 0 0 0 0 1-1 1-1 2 0 1 1 1 1 2 0 0 0 1 1 1 0 1-1 2-2 2-2 0-3-1-3-3 1 0 1 1 1 1 0 0 0 0 0-1-1-1-1-3 0-4 0 1 0 1 0 2 0 1 1 1 1 2 1 0 1 0 1 1 0 0 0 0 1 0 0 0-2 0-1-1 0 0-1-1-1-1 0-1 1-3 2-3z"/><path d="m108 581c0 0 1 0 1-1-1 0-1 0-1 0-1 0-1 1-1 1 0 0-1 0-1 0 0-1 1-2 2-2 1 0 1 1 1 2 0 0-1 1-1 0z"/><path d="m112 580c0 0 1 0 1 1 0 0-1 0-2 0 0-1 0-1 1-1z"/><path d="m111 581c1 0 1 1 1 1-1 1-2 0-1 0 0-1 0-1 0-1z"/><path d="m123 585c0 0 0 0 1 0h-1zm3-4c0 0 0 0 0 0 0 1 0 2 0 3-1 0-2 0-2 1 0 0 1-1 2-1 0 0 1-1 1-1 0 0 0-1 1-1 0 0 0 0 0 1 0 1-1 2-2 2-1 0 0 0-1 0 0 1-1 0-2 1 0 0 1 0 1 0 0 0 0 0 0 1 0-1 0-1 1-1 0 0 0 0 1 0 1 0 1-1 2-1-1 2-3 3-5 2 0 0-1 0-1-1 0-1 1-2 2-2 0-1 1-1 1-1 0-1 0-1 1-2z"/><path d="m107 582c-1 0-1 0-1 0s1-1 1 0z"/><path d="m110 582c0 1 0 1 0 1-1 0 0-2 0-1z"/><path d="m108 582c0 0 0 1 0 1-1 0-1-1 0-1z"/><path d="m109 583c0 0 0 0-1 0 0 0 0 0 0-1 1 0 1 1 1 1z"/><path d="m119 592c0-2 0-5 1-6 0-1 0-2 1-2 1 1 1 2 0 3 0 2-1 3-2 5z"/><path d="m118 589c0 0-1-1-1-1 0 0 0 0-1 1 0-1 1-1 1-2-1 0-2-1-1-1 1 1 2 0 3 0 0 1-1 1-1 2 0 0 0 0 0 1z"/><path d="m125 588c0 0-1 1-1 1-1-1-1-1-1-1v1c0 1 0 2-1 1 0 0 0 0 1-1 0 0-1 0-1 0 0 0 1-1 0-1 0 0 0 1 0 1-1 0-1 1-1 1v-1c0-1 0-1 1-2 0 0 1 0 1 0 0 0 0 1 1 1 0 0 0 0 1 0z"/><path d="m176 544c0 1-1 3 0 4-1-1-1-1-1-1 0-2 1-4 2-5 0 1-1 1-1 2zm8-9c0 0-1-1 0-2 0 0 1 0 1 0 1 0 1 0 1 0 1 0 1 0 1 1-1 0-1 0-1-1-1 1-1 2 0 2 0 1 1 1 2 1 0 0 0 1 0 2-1 1-2 2-4 2-1 0-3 0-4 0-1 0-1 0-1 0s-1 0-1 1c-1 0-2 0-2 1-1 1-1 2-1 4 0 1 0 2 1 3 0 1 1 1 2 2 1 0 1 0 1-1 0 0 0 0-1 0 0 0-1-1-1-1-1-1-1-2-1-3 0-1 2-3 3-4 1 0 2 1 3 1 0 1 1 1 1 3 0 0 0 1-1 1 0 0-1 1-1 1 0-1 0-1-1-1 0 0 0 0-1 0 0 0 0-1 0-2 1 0 1 0 1 0-1 0-2 1-2 2 1 1 2 2 4 1 0 0 0 1 1 1 0-1 0-2 0-2 0-1 1 0 1 0 0-3-2-5-5-5 0 0 0 0 1 0 1 0 3 0 3 1 1 1 2 3 2 4 0 3-2 5-5 5-1 0-1 0-2-1 0 0 0 0-1 0 1 1 2 2 4 2 0 0 0 1 0 1 0 0 0 0 0-1 1 0 2-1 3-2 0 0 0 0 0-1-1 3-2 5-4 6 0 0 0 0-1 0 0 1 1 1 0 1 0 0 0-1-1-1 0 1 0 1 1 2-1 0-1 0-1-1 0 0-1 0-1 1 0 0 0 1 0 1 0 0 0-1-1-1-2 0-3 0-4-1-1-1-1-2 0-3 0 0 1 0 1 0 0-1 0-1 0-2 0 0-1 1-1 1 0 0 0 0-1 0 1-1 1-1 2-1 1 0 2 1 1 2 1 0 1-1 0-2 0 0-1-1-1-1-2 1-3 2-3 4 0 1 1 2 2 3-1 0-1 0-1 0-1 0-1-1-2-1 0 2 2 3 4 2 1 0 2-1 3-1 0 0 0 1 1 1-2 0-3 1-4 2-1-1-2 0-3 0-1-1-3-1-3-3 0 0-1 1-1 1 0 0 1 1 1 1 0 1 0 1 1 1 1 1 3 0 4 0-1 0-3 1-5 2 0 0-1 0-1 0-1 0-1 0-2 0 0 0-1 0-1-1 0 1 0 1 1 1-1 1-1 1-1 1h1c1 0 1-1 2-1 0 0 0 1-1 1-1 0-2 1-2 2-1-1-2 0-3 0 0 1 0 2 1 2 0 0 0-1 0-1 1 0 1-1 1-1s-1 2-2 3c1 0 1 0 1 0s0-1 1-1c0-1 0-1 1-2 0 1-1 1-1 2 0 0 0 0 1 0 0 0-1 0-1 1 0 0 1 0 1 0 1-1 1-2 0-3 1-1 1-1 2-2 0 1 0 1 0 2 0 0 0 1 0 1 1 0 2 1 2 0-1 0-2-1-1-2 0-1 1-2 2-2 2-1 3-1 4-2 0 1-1 1-2 2-1 0-1 1-2 1 0 1 1 1 1 1 0 1 0 3 2 3 0 0 0 0 0-1-1 0-1 0-1-1 0-1 0-2 1-3 0 0 0 0 1-1 0 0 0 0 1-1 0 0 0 0 1 0 1-1 2-1 3-2 1 1 0 2-1 2-1 0-1 0-2 0-1 0-1 1-1 2 0 1 0 1 0 1s0 0 0-1c0 0 1 0 1 0 0 1-1 2-1 3 0 1 1 2 2 3 0 0 1-1 1-1 0 0 0 0 1-1 0 0-1 0-1 0 0 1-2 1-2 0 0 0 1 0 1 1 0 0 0-1 0-1 0 0 0-1 0-1 0-1-1-1 0-2 0 0 0-1 1-2 1 0 1-1 2-1 0-1 0-2-1-2 0 0 1 0 1 0 1 0 1 0 1-1 0 0 1 1 1 1 1 0 0-1 0-1 0 0-1 0 0-1 0 0 0 1 1 1 0 0 0-1-1-1 2-2 3-3 4-5 1 0 1 1 2 1-1-1-1-1-1-2 0-1 0-3 0-4 0-1 0-1 0-2 1 1 1 2 2 2 0 0 0-1 0-1 0 0 1 0 1-1 0 0 0 0 0 1-1 0-2-1-2-1-1 0-1-1-1-2-1 0-1-1-2-1 0 0-1-1-1-1-1 0-1-1-2-1 2 0 3 2 6 1 0 0 0 0-1 0 1-1 1 0 1 0 1 0 1 0 2-1 0 0 0 0 1 0 0 0 0-1 0-1 0 0 0-1 0-1l-1 1c0-1 1-1 1-3 0-2-2-4-4-4-1 0-2 1-2 2 0 1 1 1 1 1z"/><path d="m156 548c0 1 0 2-1 2-1 1-2 3-2 5 0-2 0-4 2-6 0 0 1-1 1-1zm10-7c0 0 0-1 0-2 1 0 1 0 2 0 1 0 2 0 2 1-1 0-2 0-2-1-1 1 0 3 0 3 1 1 3 1 2 2 0 1 0 2-1 2-1 1-2 1-3 1-1 0-2 0-3 0-1 0-2-1-3-1-1 0-1 1-1 1 0 0 0-1-1-1-1 1-3 1-4 2-1 2-2 3-1 6 0 1 0 2 1 3 0 1 1 2 2 2 1 0 1 0 1 0 0-1 0 0-1-1-1 0-1-1-1-1-1-1-1-2-1-3 0-1 1-3 2-3 1-1 2-3 4-2 1 1 2 2 3 3 0 1 0 2-1 3 0 0-1 1-1 1-2 0-1-2-3-2 0 0 0 1 0 1-1 0 0-2 1-2-1-1-2 0-2 2 0 1 2 2 4 1 0 1 0 1 1 2 0 0 0 0 0-1 0 0 0-1 1-1 0 0 0-1 0-1 0 0 1 1 1 1 0-5-2-7-6-7 1-1 2 0 3 0 2 1 3 2 3 4 1 3 0 6-2 7-1 1-4 1-5 0-1 0-2-1-2-1 0 0 0 1 0 1 1 1 2 2 4 2-1 0-1 1 0 1 0 0 1 0 2-1 1 0 1-1 2-1 0-1 0-1 0-1-1 3-3 5-6 6 0 0 0-1-1-1 0 0 0 1 0 1 0 0 0 1 0 1-1-1-1-1-1-2 0 0-1 0-1 0 0 1 1 2 1 3 0 0 0-1-1-1 0 0-1 0-1 0 0 1 1 1 1 1 0 0-1 0-1 0-1-1-1-1-1-1-1 0-2 0-3 0-1-1-2-2-2-3 0-1 0-1 0-2 1 0 2 0 2-1 0 0 0-1 0-1-1 1-1 0-2 0 1 0 1-1 2 0 1 0 2 1 2 2 0 0-1 0-1 0 0 0 0 1 0 1 1 0 1-1 1-2 0-1-1-2-2-2-1 0-2 0-2 1-1 1-2 2-2 2 0 2 1 3 2 4-1 0-1 0-2 0 0 0 0-1-1-1 0 2 1 3 3 3 2 1 3 0 4 0 1 0 1 0 1 1-1 0-3 0-4 1-1 0-1 0-1-1-1 0-2 1-2 0-1 0-3 0-3-1-1-1-1-1-1-2 0 0 0 0-1 0 0 1 0 2 1 2 0 0 0 0-1 0 1 1 1 1 1 2 0 0 1 0 2 0 1 0 3 0 4 0-2 1-4 1-6 1-1 1-1 1-1 1l-1-1c-1 0-1 1-2 1-1-1-1-1-2-2 0 1 0 1 0 1s1 0 1 1c0 0-1 0-1 0s1 0 2 0c1 0 1 0 2 0-2 1-3 1-5 2 0-1-2 0-3 1 0 0-1 1 0 2 0-1 0-2 1-2 1 0 1-1 2 0 0 0-1 0-1 0-1 1-1 2-2 3 1-1 2-2 3-3 0 1-1 1-1 1 0 1 1 1 1 1 0 0-1 0-2 1 1 0 1 0 1 0 2 0 2-2 2-3 1-1 2-2 3-2 0 0-1 1-1 2 0 0 0 1 0 2 0 0 0-1 0-1 1 1 2 2 2 1-1 0-1-1-1-2 0-4 6-3 9-4-1 0-2 0-3 1-1 0-1 0-2 1 0 0-1 0-1 1 0 1 1 1 1 0 0 2 0 3 1 4 0 0 0 0 1 0-1-1-1-1-1-2 0-1 0-2 1-3 0 0 1-1 1-1 1 0 2-1 2-2 2 0 4 0 6-1 0 1 0 1-1 2 0 0-1 0-1 0-1 0-1 0-2 0 0 0-1 0-1 1-1 0-1 0-1 1 0 0 0 1 0 1 1 0 0-1 1-1 0 0 1 0 1 0 0 0 0 1-1 1-1 1-2 2-1 4 0 1 1 2 2 2 1 0 1-1 2-1 0-1 0-1-1-1 0 1 0 1-1 1-1 0-1-1-1-2 0 1 1 1 1 2 0 0 0 0 0-1 0 0 1-1 1-1-1-1-1-1-1-2 0 0 0-1 1-1 0-1 1-1 2-2 1-1 2-2 1-3 1 0 1 0 1 0 1 0 1 0 1 0v-1c1 0 1 1 2 1 1 1 0 0 0-1 0 0-1 0-1 0 0-1 0-1 1-1 0 1 0 1 1 1 0 0-1-1-1-1 2-1 3-2 4-3 1-1 2-2 2-3 1 1 1 2 2 2 0 0-1-1-1-1 0 0 0-1 0-1 0-2 1-3 1-5 0-1 0-2 0-3 1 2 1 3 2 3 0 0 0-1 0-1 0 0 1 1 2 0 0 0 0-1 0-1-1 1-2 0-3 0 0-1-1-2-1-3-1-1-2-2-3-3-1-1-1-1-2-1 3 0 4 2 7 2 0-1 0-1 0-1s0 1 1 1c1 0 2-1 3-1 0 0 0 0 0-1 0 0 0-1 0-1l-1 1c0-1 1-2 1-4 0-1 0-2-1-3 0-1-1-2-2-2-2 0-3 1-3 2 0 1 1 1 1 1z"/><path d="m168 566c0 0 1 0 1 0 0-1-1-1-1 0z"/><path d="m168 567c-1 0-1 1 0 1 0 0 1 0 1-1 0 0-1 0-1 0z"/><path d="m168 568c0 0-1 1-1 1 1 1 2 0 2 0 0 0 0-1-1-1z"/><path d="m172 570c0 0 0 0 0 0s-1 0-1-1c0 0 1 0 1 0 0 0 1 1 1 1 0-1 0-2-1-2-1 1-1 2 0 2z"/><path d="m161 573c0 0 0 0-1 0 0-1-1-1-1-1l2 1zm-2-1c0 0 0 0 0 0zm1-1c0 0-1 0-1 0 0 0 0 1 0 1 0 0 0-1 0-1 0 0-1 0-1-1 0 1 0 2 1 3 0 1 1 1 2 1 1 0 2-1 2-2 0-1-1-3-2-3 0 1 0 2 1 3 0 0-1 0-1 0 0 0 1 1 1 1-1 0-1-1-1-2 0 0 0-1 0-1 0 0 0 0-1 0 0 0 0-1-1-1 0 0 0-1 0-1s0 3 1 3z"/><path d="m164 574c0 0 0 0 1 0-1 0-1 1-1 0zm1 0c0 0 0 0 0 0zm1-2c0 1 0 1 0 1v-1c0-1 0-2-1-3 0 1 1 1 0 2 0 0 0 1 0 2-1 0 0 0-1 0 0 1 0 1 0 1s1-1 0-1c0-1 1-1 1-1 0-1-1-2-2-3 0 1 1 2 1 3 0 0 0 0-1 1 0 0 0 1 0 1 0 1 1 1 1 1 2 0 3-1 3-2 0 0-1-1-1-1z"/><path d="m169 570c0-1-1 0-1 0 0 1 1 0 1 0z"/><path d="m173 571c1 0 1-1 0-1 0 0 0 1 0 1z"/><path d="m170 571c0 0 0 0 0 0 0-1-1-1-1 0 0 0 0 1 1 0z"/><path d="m172 571c0 0 0 1 0 1 1 0 1-1 0-1z"/><path d="m170 571c0 1 1 1 1 0 0 0-1 0-1 0z"/><path d="m171 571c0 1 1 1 1 1 0-1 0-1-1-1z"/><path d="m160 575c0 0 0 0 0 0zm-2-3c-1 1 0 2 0 2 1 1 1 0 2 1-1 0-1 0-2 0 0-1-1-1-1-1 0 0 0-1-1-1 0 0 0 0 0 1 0 1 1 2 2 1 0 0 0 0 0 1 1 0 2-1 2 0 0 0 0 0-1 0 0 0 1 0 1 0h-1-1c-1 0-1 0-1 0s1 1 2 1c1 0 1 0 2-1 0 0 0-1 0-1-1-1-2-1-3-2 0 0 0 0 0-1z"/><path d="m165 580c-1-1-1-3-1-4-1-1-1-2-2-2-1 0-1 1-1 1 0 1 1 2 2 3 1 1 1 1 2 2z"/><path d="m141 576c0 0 1 0 1 0 0-1-1-1-1-1-1 0-1 1 0 1z"/><path d="m165 577c0 0 0 0 0 0h1c0 0 0-1 0-1 0 0 0-1 1-1-1 0-1 0-1 0 0 1-2 0-2 1 0 0 0 0 1 1z"/><path d="m140 576c0 0 0 0 0 1 0 0 0 1 0 1 0 0 1 0 1-1 0 0 0 0-1-1z"/><path d="m159 578c0 0 2 0 2 0 0 1 0 1 1 1 0 0-1 0-1 0 0-1 0-1 1-1-1 0-1 0-1-1 0 0 0 1 1 1 0 0 0 1 1 0 0 0 0 0-1 0 0 0 0-1 0-1-1 0-1-1-1 0-1 0-1 0-1 0 0 1 0 1-1 1z"/><path d="m131 583c0 0-1 0-1 0 0 0 0-1 0-1 0 0 0 0-1 0 0 0 0-1 0-1 1 1 1 1 2 2zm-2-2c0 0 0 0 0 0zm0-4c0 0 0 1 0 2 0 0 0 1 1 1-1 0-1 0-1 0s0 0 0 1c0 0 0-1-1-1 0-1 0-1-1-1 0 2 1 4 2 5 1 0 2 1 2 0 1 0 1 0 1 0 1 0 1-2 1-2 0-1 0-2 0-3 0-1-1-1-1-1 0 1 0 3 0 4 0 0 0 0-1 0 1 0 1 0 1 1-2-1 0-2 0-3 0-1-1-1-1-1 0 0 0 0 0 1-1-1-1-3-2-3z"/><path d="m141 578c-1 0-2 1-2 1 1 1 3 0 2-1z"/><path d="m135 585c-1 0-1 0-1 0h1zm1 0h-1c0-1 1-1 1-1 0 0 0 1 0 1zm-2-6c0 0 0 0 0 0 0 1 1 1 0 2 0 1 0 1 0 2 0 0-1 1-1 1 0 1 1 2 2 2 1 0 3-1 3-3 0 0 0 0-1 0 0 0 0 1 0 1-1 0 0 0 0-1 1-1 0-3 0-4 0 1 0 1 0 2-1 1-1 1-1 2 0 0 0 0-1 0 0 0 0 0 0 1 0 0-1 0-1 0 0 0 1 0 1-1 0 0 0-1 0-1 1-1-1-3-1-3z"/><path d="m145 581c0 0-1 0-1-1 0 0 1 0 1 0 0 0 1 1 1 1 0-1 0-2-1-2-1 0-2 1-1 2 0 0 1 1 1 0z"/><path d="m141 580c0 0-1 0-1 1 0 0 1 0 1 0 0-1 0-1 0-1z"/><path d="m142 581c-1 0-1 1-1 1 1 1 2 0 1 0 0-1 0-1 0-1z"/><path d="m130 585c-1 0-1 0-1 0s0 0 1 0zm-3-4c0 0 0 0 0 0-1 1 0 2 0 3 1 0 2 0 2 1-1 0-1-1-2-1 0 0-1-1-1-1-1 0-1-1-1-1 0 0 0 0 0 1 0 1 1 2 2 2 1 1 2 0 3 1-1 0-1 0-2 0 0 0 1 0 1 1l-1-1h-1c-1 0-1-1-2-1 0 2 3 3 5 2 0 0 0 0 0-1 1-1-1-2-1-2-1-1-1-1-2-1 0-1 0-1 0-2z"/><path d="m146 582c0 0 1 0 1 0 0 0-1-1-1 0z"/><path d="m142 582c0 1 0 1 1 1 1 0 0-2-1-1z"/><path d="m145 582c0 0 0 1 0 1 1 0 0-1 0-1z"/><path d="m144 583c0 0 0 0 0 0 1 0 1 0 0-1 0 0-1 1 0 1z"/><path d="m134 592c0-2 0-5-1-6 0-1-1-2-2-2-1 1 0 2 0 3 1 2 2 3 3 5z"/><path d="m135 589c0 0 0-1 0-1 1 0 1 0 1 1 0-1 0-1 0-2 1 0 1-1 1-1-1 1-3 0-3 0 0 1 0 1 1 2 0 0 0 0 0 1z"/><path d="m127 588c1 0 1 1 2 1 0-1 0-1 1-1 0 0-1 1-1 1 0 1 1 2 2 1-1 0-1 0-1-1 0 0 0 0 1 0l-1-1c1 0 0 1 1 1 0 0 0 1 1 1 0-1 0-1 0-1-1-1-1-1-1-2 0 0-1 0-1 0-1 0-1 1-1 1 0 0-1 0-1 0 0 0 0 0-1 0z"/><path d="m77 520c0-1 0-3 0-4 0 0 0 1 0 1 1 2 0 4-1 5 0-1 0-2 1-2zm-9 9c1 0 1 1 1 2-1 0-1 0-1 0-1 0-1 0-1 0s0 0-1 0c0 0 0 0 0-1 0 0 1 0 1 1 1-1 0-2 0-2-1-1-1-1-2-1 0 0 0-1 0-2 0-1 2-2 4-2 1 0 2 0 3 0 1 0 1 0 1 0s0 0 1 0c0 0 0 0 1-1 1 0 1 0 2-1 1-1 1-2 1-4 0-1 0-2-1-3-1-1-1-2-2-2-1 0-1 0-1 1 1 0 2 1 2 1 1 1 1 2 1 3 0 1-2 3-3 4-1 0-3-1-3-1-1-1-1-1-1-3 0 0 0-1 1-1 0 0 0-1 1-1 0 0 0 1 0 1 1 0 1 0 1 0 1 0 1 1 0 1 0 1 0 0-1 1 2 0 3-1 2-2 0-1-2-2-3-1 0-1-1-1-1-1 0 1 0 2-1 2 0 0 0 0-1 0 1 3 2 5 6 5 0 0-1 0-1 0-1 0-3-1-4-1-1-1-1-3-1-5 0-2 2-4 5-4 0 0 1 0 1 0 1 1 1 1 2 1-1-1-2-2-4-2 0 0 0-1 0-1-1 1-2 2-3 3 0 0 0 0-1 0 1-2 3-4 5-5 1 0 1 0 1 0 0-1-1-1-1-1s1 1 2 1c0-1-1-1-1-2 0 0 0 0 1 0 0 1 1 1 1 0 0 0-1 0-1 0 0-1 0-1 1-1 0 0 0 1 0 1 0 0 1 0 1 0 2 0 3 0 4 1 0 1 1 2 0 2 0 1-1 1-1 1 0 1 0 1 0 2 0 0 0-1 0-1 1 0 1 0 1 0s0 1-1 1c-1 0-2-2-1-2 0 0-1 0-1 0 0 0 0 1 0 2 1 0 1 1 2 0 1 0 3-1 3-3 0-1-1-2-2-3 0 0 1 0 1 0 1 0 1 1 1 1 0-2-1-3-3-2-1 0-2 0-3 0 0 0-1 0-1 0 1-1 3-1 4-2 1 1 2 0 3 0 1 0 2 1 3 3 0 0 0-1 0-1 0 0 0-1-1-1 0 0 1 0 1 0 0-1 0-1-1-1-1-1-3 0-4 0 1-1 3-1 4-2 0 0 1 0 1 0 0 0 0 0 1 0 0 0 1-1 2 0 0 0 0 0 1 1 0-1 0-1-1-1 0-1 1-1 1-1h-1c-1 0-2 1-2 1 0-1 0-1 0-1 1 0 2-1 3-2 1 1 2 0 2 0 1-1 1-2 0-2 0 0 0 1 0 1-1 0-1 1-1 1s1-2 1-3c0 0-1 1-1 1 0 1 0 1-1 2 0-1 1-1 1-2-1 0-1 0-1 0l1-1c0 0-1 0-1 0-1 1-1 2 0 3-1 1-2 1-3 2 1-1 1-1 1-2 0-1 0-1 0-2-1 0-1 1-1 1 0 0-1-1-1 0 1 0 1 1 1 2 0 1-2 2-3 2-1 1-2 1-3 2 0-1 1-1 2-2 0 0 1-1 1-1 1-1 0-1 0-1 0-1-1-3-2-3 1 1 1 1 1 2 0 1 0 2-1 3 0 0-1 0-1 1 0 0-1 0-1 1 0 0-1 0-1 0-1 1-2 1-3 2-1-1 0-2 1-2 0 0 1 0 2 0 0 0 1-1 1-2 0-1 0-1 0-1-1 0 0 0-1 1 0 0 0 0-1 0 1-1 2-2 2-3 0-1-1-2-2-3-1 0-1 1-1 1 0 0-1 0-1 1 0 0 0 0 1 0 0-1 2-1 2 0-1 0-1 0-1-1 0 0 0 1 0 1 0 0-1 0-1 0 0 0 0 1 0 1 1 1 1 1 1 1 0 1-1 2-1 2-1 1-2 2-2 2 0 1 0 1 0 2-1 0-1 0-1 1-1 0-1-1-1-1-1 0-1 1 0 1 0 0 0 0 0 1 0-1 0-1-1-1 0 0 0 1 0 1-1 2-3 3-4 5 0 0 0-1-1-1 0 1 1 1 1 2 0 1-1 2-1 4 0 1 1 1 1 2-1-1-1-2-2-2 0 0 0 0 0 1 0 0-2 0-1 0l2 1c1 0 1 1 1 2 1 0 1 1 1 1 1 0 2 1 2 1 1 0 1 0 2 0-2 1-4-1-6-1 0 1 0 1 0 1 0 1 0 0-1 0 0 0 0 0-1 0 0 1-1 1-1 1 0 0 0 0 0 1 0 0 0 0 0 1 0 0 0 0 0-1 0 0 0 0 1 0 0 1-1 1-1 3 0 2 2 4 4 4 1 0 2-1 1-2 0-1 0-1-1-1z"/><path d="m96 516c0-1 1-2 2-2 1-1 1-3 1-5 1 2 0 4-1 6 0 0-1 0-2 1zm-10 6c0 1 1 2 0 3 0 0-1 0-1 0-1 0-2-1-2-1 0 0 1 0 1 1 1-1 1-3 0-3-1-1-2-1-2-2 0-1 1-2 2-2 0-1 1-1 2-1 1 0 3 0 4 0 0 0 1 1 2 1 1 0 1 0 1 0s0-1 1-1c0 0 0 1 0 1 2-1 3-1 4-3 2-1 2-2 2-5 0-1 0-2-1-3-1-1-1-2-3-2 0 1 0 0 1 0 0 1 1 1 1 2 1 1 1 2 1 3 0 1-1 2-2 3-1 1-3 2-4 2-2-1-3-2-3-3 0-1 0-2 0-3 1 0 1-1 2-1 1 0 1 2 2 1 1 0 1 0 1 0s0 2-1 2c0 0 0 0-1 0 0 0 0 0 1 0 1 1 2 0 2-2-1-1-2-2-4-2 0 0-1 0-1-1 0 0 0 0-1 0 0 0 0 0 0 1 0 0 0 0 0 1 0 0 0 1 0 1-1 0-1-1-1-1 0 4 1 7 5 7-1 1-2 0-2 0-2-1-3-2-4-4 0-3 1-6 2-7 2-1 4-1 6-1 1 1 1 2 2 2 0 0 0-1-1-1 0-1-1-2-3-2 0 0 0-1 0-2 0 1-2 1-2 2-1 0-2 1-2 1 0 1 0 1-1 1 2-3 4-5 7-6 0 0 0 1 0 1 1 0 1-1 1-1 0 0-1-1 0-1 0 1 0 1 1 2 1-1 0-2 0-3 0 0 0 1 0 1 1 0 1 0 1 0 1-1 0-1 0-1 0 0 0 0 1 0 0 0 1 1 1 1 1 0 2 0 3 0 1 1 2 2 2 3 0 1 0 1-1 2 0 0-1 0-1 0-1 1-1 2 0 2 1-1 1 0 1 0 0 0-1 1-2 0 0 0-1-1-1-2 0 0 0 0 1 0 0-1 0-1 0-1-1 0-2 1-2 2 0 1 1 2 3 2 1 0 1-1 2-1 1-1 1-2 1-3 1-1 0-2-1-3 0 0 1 0 1 0 1 0 1 1 1 1 1-2-1-3-2-3-2-1-3 0-5 0 0 0-1 0-1-1 2 0 4-1 5-1 0 0 1 0 1 0 1 1 1 0 2 0 1 1 2 1 3 2 1 0 1 1 1 2 1-1 0-2 0-2 0-1 0-1 0-2-1 0-1 0-2 0-2 0-3 0-4 0 2-1 4-1 6-2 0 0 1 0 1 0 0 0 0 0 1 1 0 0 1-1 2-1 1 0 1 1 1 2 0-1 1-1 0-1 0-1 0 0 0-1l1 0c-1 0-1-1-2-1-1 0-1 1-2 1 1-1 3-1 4-2 1 1 3 0 4-1 0 0 0-2-1-2 0 1 0 1 0 2 0 0 0 0-1 0 0-1 0 1-1 0 1-1 2-2 3-3 0 0-1 0-1 0-1 1-1 2-2 3-1-1 0-1 0-2 0 0 1 0 1-1-2 0-3 2-2 3-1 1-2 2-3 2 0 0 1-1 1-2 0-1 0-1 0-2 0 0 0 0-1 1 0-1-1-2-1-1 0 0 1 1 1 2 0 4-6 3-9 4 1 0 2 0 3-1 1 0 1 0 1-1 1 0 1-1 1-1 0-2 0-3-1-4 0 0-1 0-1 0 1 1 1 1 1 2 0 1-1 2-1 3-1 0-1 1-2 1-1 0-1 1-2 1-1 1-3 1-5 2-1-1 0-1 0-2 1 0 1-1 2 0 0 0 1 0 1 0 1 0 2 0 2-1 0 0 1 0 1-1 0 0 0-1 0-1 0 0-1 0-1 0 0 0 0 1 0 1-1 0-1 0-1 0 0-1 0-1 1-1 0-1 1-3 1-4 0-1-1-2-2-2-1 0-2 1-2 1 0 0 0 1 0 1s1-1 2-1c1 0 1 1 1 2 0-1-1-1-1-2 0 1-1 1-1 1 0 0 0 1 0 1 0 1 1 1 1 2 0 0-1 1-1 1-1 1-1 1-2 2-1 1-2 2-2 3 0 0 0 0-1 0-1 0 0 0 0 1 0 0-1 0-1 0 0 0 0-1-1-2-1 0 0 1 0 2 0 0 0 1 0 1l-1-1c0 0 0 1 0 1-1 1-2 2-3 3-1 0-2 1-3 3 0-1 0-2-1-2 0 0 0 1 0 1 1 0 1 1 1 1-1 2-1 3-2 5 0 1 0 2 0 2s0-2-2-2c0 0 1 0 1 1-1 0-1-1-2 0 0 0 0 0 0 1 1-1 2 0 3 0 0 1 0 2 1 2 0 2 1 3 3 4 0 0 1 1 2 1-3 0-4-2-7-2 0 0 0 1 0 1-1 0-1-1-2-1 0 0-1 1-2 1-1 1-1 2-1 2 0 0 0 0 1 0 0-1 0-1 1-1-1 1-2 2-2 3 0 2 1 3 1 4 1 1 2 2 3 2 1 0 2-1 2-2 0-1 0-1-1-2z"/><path d="m84 497c0 1 0 1 0 1 0 1 1 1 1 0 0 0 0 0-1-1z"/><path d="m85 497c0 0 0-1 0-1 0 0-1 0-1 1 0 0 1 0 1 0z"/><path d="m84 496c1 0 1-1 1-1 0-1-1 0-1 0 0 0 0 1 0 1z"/><path d="m81 494c0 0 0 0 0 0s0 0 0 1c-1 0-1-1-2-1 0 1 1 2 2 2 1-1 1-2 0-2z"/><path d="m92 491c0 0 0-1 0 0 0 0 0 0 1 0 0 0 0 1 0 1 0 0-1-1-1-1zm1 1c0 0 1 0 0 0zm0 1c0 0 0 0 1 0 0 0 0-1 0-1 0 0 0 1 0 1 0 0 1 0 1 1 0-1 0-2-1-3 0-1-1-1-2-1 0 0 0 0-1 0-1 0-1 1-1 1 0 2 1 4 1 4 1-1 0-2 0-3 0-1 0-1 0-1 1 0 0 1 0 2 0 0 1 1 1 1 0 0 0 0 0-1 1 1 1 2 2 2 0-1 0-2-1-2z"/><path d="m89 489c0 1-1 1-1 1 0 0 0-1 1-1zm-1 1v0c0 0 0 0-1 0 0 0 1 0 1 0zm-2 2c1-1 0-1 1-1 0 0 0 1-1 1 0 1 1 2 1 2 0 0 0 0 0-1 0-1 1-1 1-2 0-1 1-1 1-1 0 0-1 1 0 1-1 0-1 1-1 1 0 1 1 2 2 3 0-1-1-2-1-3 0 0 0 0 0-1 0 0 1-1 1-1 0-1-1-1-2-1-1 0-2 1-2 2 0 0 0 1 0 1z"/><path d="m84 494c0 0 1 0 1 0-1-1-1-1-1 0z"/><path d="m79 493c0 0 0 1 0 1 1 0 1-1 0-1z"/><path d="m83 493c0 0 0 0 0 0 0 1 1 0 1 0 0 0-1-1-1 0z"/><path d="m80 493c1 0 1-1 0-1 0 0 0 1 0 1z"/><path d="m83 493c0-1-1-1-1 0 0 0 0 0 1 0z"/><path d="m81 493c1-1 0-1 0-1-1 1 0 1 0 1z"/><path d="m92 489c1 0 1 0 1 0h-1zm3 2c0 0 0-1 0-1-1-1-2-1-2-1 0 0 1 0 1 0 1 1 1 1 2 1 0 0 0 1 1 1 0 0 0 0 0-1 0-1-1-2-3-1 0 0 0-1 0-1 0 0-1 1-2 0 1 0 1 0 1 0s0 0 1 0c0 0 0 0 1 0 0 0 0 0 1 0-1-1-1-1-2-1-1 0-2 0-2 0-1 1 0 2 0 2 1 1 2 1 2 2 1 0 1 0 1 0z"/><path d="m88 484c0 1 0 3 1 4 0 1 1 2 2 2 0 0 1-1 0-1 0-1-1-2-1-3-1-1-1-1-2-2z"/><path d="m112 488c-1 0-1 0-1 0 0 1 0 1 1 1 1 0 0-1 0-1z"/><path d="m88 486c0 1-1 1-1 1 0 0 0 0-1 0 0 0 1 1 1 1 0 0-1 0-1 1 1 0 0 0 1 0 0-1 2 0 2-1 0 0-1 0-1-1 0 0 0 0 0-1z"/><path d="m112 487c1 0 1 0 1 0v-1c-1 0-1 0-1 1z"/><path d="m94 486c-1 0-2 0-2 0 0-1-1-2-1-1 0 0 0 1 0 1 0 0 1 0 1 0-1 1-1 0-1 0 0 0-1-1-1 0l1 1c0 0 1 1 1 0 0 0 0 0 1-1 0 0 1 0 1 0z"/><path d="m122 481c0 0 0 0 1 0 0 0-1 1 0 1 0 0 1 1 1 1s-2-1-2-2zm2 2c0 0 0 0 0 0zm0 4c0 0 0-1 0-2 0 0-1-1-1-1 0 0 0 0 1 0 0 0 0-1 0-1 0 0 0 1 0 1 0 0 1 1 1 1 1-2 0-4-1-5-1 0-2-1-2 0-1 0-1 0-2 0 0 0-1 2-1 2 0 1 1 2 1 3 0 0 0 1 1 1 0-1 0-3 0-4 0 0 0-1 0-1 1 1 0 2 0 3 0 0 0 1 1 1 0 0 0-1 0-1s1 3 2 3z"/><path d="m112 486c1 0 1-1 1-1 0-1-2 0-1 1z"/><path d="m118 479c0 0 0 0 1 0h-1zm-1 0c0 0 0 0 1 0 0 1-1 1-1 1 0 0 0-1 0-1zm2 6c0 0 0 0 0 0 0-1-1-1-1-2 0-1 1-1 1-2 0 0 0-1 1-1 0-1-1-2-2-2-2 0-3 1-3 3 1 0 1-1 1-1 0 0 0 0 0 1-1 1-1 3 0 4 0-1 0-1 0-2 0-1 1-1 1-2 1 0 1-1 1-1 0 0 0 0 1-1 0 1-2 1-1 2 0 0-1 1-1 1 0 1 1 3 2 3z"/><path d="m108 483c0 0 1 0 1 1-1 0-1 0-1 0-1 0-1-1-1-1 0 0-1 0-1 0 0 1 1 2 2 2 1 0 1-1 1-2 0 0-1-1-1 0z"/><path d="m112 484c0 0 1 0 1-1 0 0-1 0-2 0 0 1 0 1 1 1z"/><path d="m111 483c1 0 1-1 1-1-1-1-2 0-1 0 0 1 0 1 0 1z"/><path d="m123 479c0 0 0 0 1 0h-1zm3 3c0 0 0 0 0 0s0-1 0-2c-1 0-2 0-2-1 0 0 1 1 2 0 0 1 1 1 1 2 0 0 0 1 1 1 0 0 0 0 0-1 0-1-1-2-2-2-1 0 0 0-1 0 0-1-1 0-2-1 0 0 1 0 1 0 0 0 0 0 0-1 0 1 0 1 1 1 0 0 0 0 1 0 1 0 1 1 2 1-1-2-3-3-5-2 0 0-1 0-1 1 0 1 1 2 2 2 0 0 1 1 1 1 0 1 0 1 1 1z"/><path d="m107 481c-1 1-1 1-1 1h1c0 0 0 0 0-1z"/><path d="m110 482c0-1 0-1 0-1-1 0 0 2 0 1z"/><path d="m108 482c0 0 0-1 0-1-1 0-1 1 0 1z"/><path d="m109 481c0 0 0 0-1 0 1 1 1 0 1 0z"/><path d="m119 472c0 2 0 4 1 6 0 1 0 2 1 2 1-1 1-2 0-3 0-2-1-4-2-5z"/><path d="m118 475c0 0-1 0-1 1 0 0 0 0-1-1 0 1 1 1 1 2-1 0-2 1-1 1 0 0 0 0 0-1 1 0 2 1 3 0 0 0-1 0-1-1 0 0 0 0 0-1z"/><path d="m125 476c0-1-1-1-1-1-1 0-1 1-1 1 0 0 0-1 0-1 0-1 0-2-1-2 0 0 0 1 0 1 0 0 0 0 1 0 0 1-1 1-1 1 0 0 1 0 0 1 0 0 0-1 0-1-1 0-1-1-1-1v1c0 0 0 1 1 2 0 0 1 0 1 0 0 0 0-1 1-1 0 0 0 0 1 0z"/><path d="m176 520c0-1-1-3 0-4-1 0-1 1-1 1 0 2 1 4 2 5 0-1-1-2-1-2zm8 9c0 0-1 1 0 2 0 0 1 0 1 0 1 0 1 0 1 0 1 0 1 0 1-1-1 0-1 0-1 1-1-1-1-2 0-2 0-1 1-1 2-1 0 0 0-1 0-2-1-1-2-2-4-2-1 0-3 0-4 0-1 0-1 0-1 0s-1 0-1-1c-1 0-2 0-2-1-1-1-1-2-1-4 0-1 0-2 1-3 0-1 1-2 2-2 1 0 1 0 1 1 0 0 0 0-1 0 0 0-1 1-1 1-1 1-1 2-1 3 0 1 2 3 3 4 1 0 2-1 3-1 0-1 1-1 1-3 0 0 0-1-1-1 0 0-1-1-1-1 0 0 0 1-1 1 0 0 0 0-1 0 0 0 0 1 0 1 1 1 1 0 1 1-1 0-2-1-2-2 1-1 2-2 4-1 0-1 0-1 1-1 0 1 0 2 0 2 0 0 1 0 1 0 0 3-2 5-5 5 0 0 0 0 1 0 1 0 3-1 3-1 1-1 2-3 2-5 0-2-2-4-5-4-1 0-1 0-2 0 0 1 0 1-1 1 1-1 2-2 4-2 0 0 0-1 0-1 1 1 2 2 3 3-1-2-2-4-4-5 0 0 0 0-1 0 0-1 1-1 0-1 0 0 0 1-1 1 0-1 0-1 1-2-1 0-1 0-1 0 0 1-1 1-1 0 0-1 0-1 0-1s0 1-1 1c-2 0-3 0-4 1-1 1-1 2 0 2 0 1 1 1 1 1 0 1 0 1 0 2 0 0-1-1-1-1 0 0 0 0-1 0 1 0 1 1 2 1 1 0 2-2 1-2 1 0 1 1 0 2 0 0-1 1-1 0-2 0-3-1-3-3 0-1 1-2 2-3-1 0-1 0-1 0-1 0-1 1-2 1 0-2 2-3 4-2 1 0 2 0 3 0 0 0 0 0 1 0-2-1-3-1-4-2-1 1-2 0-3 0-1 0-3 1-3 3 0 0-1-1-1-1 0 0 1-1 1-1 0-1 0-1 1-1 1-1 3 0 4 0-1-1-3-1-5-2 0 0-1 0-1 0-1 0-1-1-2 0 0 0-1 0-1 1 0-1 0-1 1-1-1-1-1-1-1-1h1c1 0 1 1 2 1 0-1 0-1-1-1-1 0-2-1-2-2-1 1-2 0-3 0 0-1 0-2 1-2 0 0 0 1 0 1 1 0 1 1 1 1s-1-2-2-3c1 0 1 0 1 0s0 1 1 1c0 1 0 1 1 2 0-1-1-1-1-2 0 0 0 0 1 0 0 0-1-1-1-1 0 0 1 0 1 0 1 1 1 2 0 3 1 1 1 1 2 2 0-1 0-1 0-2 0-1 0-1 0-2 0 0 0 1 0 1 1 0 2-1 2 0-1 0-2 1-1 2 0 1 1 2 2 2 2 1 3 1 4 2 0-1-1-1-2-2-1 0-1-1-2-1 0-1 1-1 1-1 0-1 0-3 2-3-1 1-1 1-1 2 0 1 0 2 1 3 0 0 0 0 1 1 0 0 0 0 1 1 0 0 0 0 1 0 1 1 2 1 3 2 1-1 0-2-1-2-1 0-1 0-2 0-1 0-1-1-1-2 0-1 0-1 0-1s0 0 0 1c0 0 1 0 1 0 0-1-1-2-1-3 0-1 1-2 2-3 0 0 1 1 1 1 0 0 0 0 1 1 0 0-1 0-1 0 0-1-2-1-2 0 0 0 1 0 1-1 0 0 0 1 0 1 0 0 0 1 0 1 0 1-1 1 0 1 0 1 0 2 1 2 1 1 1 2 2 2 0 1 0 1-1 2 0 0 1 0 1 0 1 0 1 0 1 1 0 0 1-1 1-1 1 0 0 1 0 1 0 0-1 0 0 1 0-1 0-1 1-1 0 0 0 1-1 1 2 2 3 3 4 5 1 0 1-1 2-1-1 1-1 1-1 2 0 1 0 2 0 4 0 1 0 1 0 2 1-1 1-2 2-2 0 0 0 0 0 1 0 0 1 0 1 0l-2 1c-1 0-1 1-1 2-1 0-1 1-2 1 0 0-1 1-1 1-1 0-1 0-2 0 2 1 3-1 6-1 0 1 0 1-1 1 1 1 1 0 1 0 1 0 1 0 2 0 0 1 0 1 1 1 0 0 0 0 0 1 0 0 0 0 0 1 0 0 0 0 0-1 0 0-1 0-1 0 0 1 1 1 1 3 0 2-2 4-4 4-1 0-2-1-2-2 0-1 1-1 1-1z"/><path d="m156 516c0-1 0-2-1-2-1-1-2-3-2-5 0 2 0 4 2 6 0 0 1 0 1 1zm10 6c0 1 0 2 0 3 1 0 1 0 2 0 1 0 2-1 2-1-1 0-2 0-2 1-1-1 0-3 0-3 1-1 3-1 2-2 0-1 0-2-1-2-1-1-2-1-3-1-1 0-2 0-3 0-1 0-2 1-3 1-1 0-1-1-1-1 0 0 0 1-1 1-1-1-3-1-4-3-1-1-2-2-1-5 0-1 0-2 1-3 0-1 1-2 2-2 1 0 1 0 1 0 0 1 0 0-1 0-1 1-1 1-1 2-1 1-1 2-1 3 0 1 1 2 2 3 1 1 2 2 4 2 1-1 2-2 3-3 0-1 0-2-1-3 0 0-1-1-1-1-2 0-1 2-3 1-1 0 0 2 1 2-1 1-2 0-2-2 0-1 2-2 4-2 0 0 0 0 1-1 0 0 0 0 0 1 0 0 0 0 1 1 0 0 0 1 0 1 0 0 1-1 1-1 0 4-2 7-6 7 1 1 2 0 3 0 2-1 3-2 3-4 1-3 0-6-2-7-1-1-4-1-5-1-1 1-2 2-2 2 0 0 0-1 0-1 1-1 2-2 4-2-1 0-1-1 0-2 0 1 1 1 2 2 1 0 1 1 2 1 0 1 0 1 0 1-1-3-3-5-6-6 0 0 0 1-1 1 0 0 0-1 0-1 0 0 0-1 0-1-1 1-1 1-1 2 0 0-1 0-1 0 0-1 1-2 1-3 0 0 0 1-1 1 0 0-1 0-1 0 0-1 1-1 1-1 0 0-1 0-1 0-1 0-1 1-1 1-1 0-2 0-3 0-1 1-2 2-2 3 0 1 0 1 0 2 1 0 2 0 2 0 0 1 0 2 0 2-1-1-1 0-2 0 1 0 1 1 2 0 1 0 2-1 2-2 0 0-1 0-1 0 0-1 0-1 0-1 1 0 1 1 1 2 0 1-1 2-2 2-1 0-2-1-2-1-1-1-2-2-2-3 0-1 1-2 2-3-1 0-1 0-2 0 0 0 0 1-1 1 0-2 1-3 3-3 2-1 3 0 4 0 1 0 1 0 1-1-1 0-3-1-4-1-1 0-1 0-1 0-1 1-2 0-2 0-1 1-3 1-3 2-1 0-1 1-1 2 0 0 0 0-1 0 0-1 0-2 1-2 0-1 0 0-1 0 1-1 1-1 1-2 0 0 1 0 2 0 1 0 3 0 4 0-2-1-4-1-6-2-1 0-1 0-1 0s-1 0-1 1c-1 0-1-1-2-1-1 0-1 1-2 2 0-1 0-1 0-1 0-1 1 0 1-1 0 0-1 0-1 0s1-1 2-1c1 0 1 1 2 1-2-1-3-1-5-2 0 1-2 0-3-1 0 0-1-2 0-2 0 1 0 1 1 2 1-1 1 1 2 0 0 0-1 0-1 0-1-1-1-2-2-3 1 1 2 2 3 3 0-1-1-1-1-2 0 0 1 0 1 0 0 0-1 0-2-1 1 0 1 0 1 0 2 0 2 2 2 3 1 1 2 2 3 2 0 0-1-1-1-2 0-1 0-1 0-2 0 0 0 0 0 1 1-1 2-2 2-1-1 0-1 1-1 2 0 4 6 3 9 4-1 0-2 0-3-1-1 0-1 0-2-1 0 0-1-1-1-1 0-1 1-1 1 0 0-2 0-3 1-4 0 0 0 0 1 0-1 1-1 1-1 2 0 1 0 2 1 3 0 0 1 1 1 1 1 0 2 1 2 1 2 1 4 1 6 2 0-1 0-1-1-2 0 0-1-1-1 0-1 0-1 0-2 0 0 0-1 0-1-1-1 0-1 0-1-1 0 0 0-1 0-1 1 0 0 1 1 1 0 0 1 0 1 0 0-1 0-1-1-1-1-1-2-3-1-4 0-1 1-2 2-2 1 0 1 1 2 1 0 0 0 1-1 1 0-1 0-1-1-1-1 0-1 1-1 2 0-1 1-1 1-2 0 1 0 1 0 1l1 1c-1 1-1 1-1 2 0 0 0 1 1 1 0 1 1 1 2 2 1 1 2 2 1 3 1 0 1 0 1 0 1 0 1 0 1 0s0 0 0 1c1 0 1-1 2-2 1 0 0 1 0 2 0 0-1 0-1 0 0 0 0 1 1 1 0-1 0-1 1-1 0 0-1 1-1 1 2 1 3 2 4 3 1 0 2 1 2 3 1-1 1-2 2-2 0 0-1 1-1 1 0 0 0 1 0 1 0 2 1 3 1 5 0 1 0 2 0 2 1-1 1-2 2-2 0 0 0 0 0 1 0 0 1-1 2 0 0 0 0 0 0 1-1-1-2 0-3 0 0 1-1 2-1 2-1 2-2 3-3 4-1 0-1 1-2 1 3 0 4-2 7-2 0 0 0 1 0 1 0 0 0-1 1-1 1 0 2 1 3 1 0 1 0 2 0 2l-1-1c0 1 1 2 1 3 0 2 0 3-1 4 0 1-1 2-2 2-2 0-3-1-3-2 0-1 1-1 1-2z"/><path d="m168 497c0 1 1 1 1 1 0 1-1 1-1 0 0 0 0 0 0-1z"/><path d="m168 497c-1 0-1-1 0-1 0 0 1 0 1 1 0 0-1 0-1 0z"/><path d="m168 496c0 0-1-1-1-1 1-1 2 0 2 0 0 0 0 1-1 1z"/><path d="m172 494c0 0 0 0 0 0s-1 0-1 1c0 0 1 0 1 0 0 0 1-1 1-1 0 1 0 2-1 2-1-1-1-2 0-2z"/><path d="m161 491c0 0 0-1-1 0 0 0-1 1-1 1 1 0 2-1 2-1zm-2 1c0 0 0 0 0 0zm1 1c0 0-1 0-1 0 0 0 0-1 0-1 0 0 0 1 0 1 0 0-1 0-1 1 0-1 0-2 1-3 0-1 1-1 2-1 1 0 2 1 2 1 0 2-1 4-2 4 0-1 0-2 1-3 0 0-1 0-1 0 0-1 1-1 1-1s-1 1-1 2c0 0 0 1 0 1 0 0 0 0-1-1 0 1 0 2-1 2 0-1 0-2 1-2z"/><path d="m164 489c0 1 0 1 1 1l-1-1zm1 1c0 0 0 0 0 0zm1 2c0-1 0-1 0-1v1c0 1 0 2-1 2 0 0 1 0 0-1 0-1 0-1 0-2-1 0 0 0-1 0 0-1 0-1 0-1s1 1 0 1c0 0 1 1 1 1 0 1-1 2-2 3 0-1 1-2 1-3 0 0 0 0-1-1 0 0 0-1 0-1 0-1 1-1 1-1 2 0 3 1 3 2 0 0-1 1-1 1z"/><path d="m169 494c0 0-1 0-1 0 0-1 1-1 1 0z"/><path d="m173 493c1 0 1 1 0 1 0 0 0-1 0-1z"/><path d="m170 493c0 0 0 0 0 0 0 1-1 0-1 0 0 0 0-1 1 0z"/><path d="m172 493c0 0 0-1 0-1 1 0 1 1 0 1z"/><path d="m170 493c0-1 1-1 1 0 0 0-1 0-1 0z"/><path d="m171 493c0-1 1-1 1-1 0 1 0 1-1 1z"/><path d="m160 489c0 0 0 0 0 0zm-2 2c-1 0 0-1 0-1 1-1 1-1 2-1-1 0-1 0-2 0 0 1-1 1-1 1 0 0 0 1-1 1 0 0 0 0 0-1 0-1 1-2 2-1 0 0 0-1 0-1 1 0 2 1 2 0 0 0 0 0-1 0 0 0 1 0 1 0h-1-1c-1 0-1 0-1 0 0-1 1-1 2-1 1 0 1 0 2 0 0 1 0 2 0 2-1 1-2 1-3 2z"/><path d="m165 484c-1 1-1 3-1 4-1 1-1 2-2 2-1 0-1-1-1-1 0-1 1-2 2-3 1-1 1-1 2-2z"/><path d="m141 488c0 0 1 0 1 0 0 1-1 1-1 1-1 0-1-1 0-1z"/><path d="m165 486c0 1 0 1 0 1h1c0 0 0 1 0 1 0 0 0 0 1 1-1 0-1 0-1 0 0-1-2 0-2-1 0 0 0 0 1-1 0 0 0 0 0-1z"/><path d="m140 487c0 0 0 0 0 0v-1c0 0 1 0 1 1 0 0 0 0-1 0z"/><path d="m159 486c0 0 2 0 2 0 0-1 0-2 1-1 0 0-1 0-1 0 0 0 0 1 1 1-1 0-1 0-1 0 0 1 0 0 1 0 0 0 0-1 1 0 0 0 0 0-1 0 0 0 0 1 0 1-1 0-1 1-1 0-1 0-1 0-1-1 0 0 0 0-1 0z"/><path d="m131 481c0 0-1 0-1 0 0 0 0 1 0 1 0 0 0 0-1 0 0 0 0 1 0 1 1-1 1-1 2-2zm-2 2c0 0 0 0 0 0zm0 4c0 0 0-1 0-2 0 0 0-1 1-1-1 0-1 0-1 0v-1c0 0 0 1-1 1 0 0 0 1-1 1 0-2 1-4 2-5 1 0 2-1 2 0 1 0 1 0 1 0 1 0 1 2 1 2 0 1 0 2 0 3 0 0-1 1-1 1 0-1 0-3 0-4 0 0 0 0-1 0l1-1c-2 1 0 2 0 3 0 0-1 1-1 1 0 0 0-1 0-1-1 1-1 3-2 3z"/><path d="m141 486c-1 0-2-1-2-1 1-1 3 0 2 1z"/><path d="m135 479c-1 0-1 0-1 0h1zm1 0h-1c0 1 1 1 1 1 0 0 0-1 0-1zm-2 6c0 0 0 0 0 0 0-1 1-1 0-2 0-1 0-1 0-2 0 0-1-1-1-1 0-1 1-2 2-2 1 0 3 1 3 3 0 0 0 0-1 0 0 0 0-1 0-1-1 0 0 0 0 1 1 1 0 3 0 4 0-1 0-1 0-2-1-1-1-1-1-2 0 0 0 0-1 0 0 0 0-1 0-1 0 0-1 0-1-1 0 1 1 1 1 2 0 0 0 1 0 1 1 1-1 3-1 3z"/><path d="m145 483c0 0-1 0-1 1 0 0 1 0 1 0 0 0 1-1 1-1 0 1 0 2-1 2-1 0-2-1-1-2 0 0 1-1 1 0z"/><path d="m141 484c0 0-1 0-1-1 0 0 1 0 1 0 0 1 0 1 0 1z"/><path d="m142 483c-1 0-1-1-1-1 1-1 2 0 1 0 0 1 0 1 0 1z"/><path d="m130 479c-1 0-1 0-1 0s0 0 1 0zm-3 3c0 0 0 0 0 0-1 0 0-1 0-2 1 0 2 0 2-1-1 0-1 1-2 0 0 1-1 1-1 2-1 0-1 1-1 1 0 0 0 0 0-1 0-1 1-2 2-2 1-1 2 0 3-1-1 0-1 0-2 0 0 0 1 0 1-1l-1 1h-1c-1 0-1 1-2 1 0-2 3-3 5-2 0 0 0 0 0 1 1 1-1 2-1 2-1 0-1 1-2 1 0 1 0 1 0 1z"/><path d="m146 481c0 1 1 1 1 1 0 0-1 0-1 0 0 0 0 0 0-1z"/><path d="m142 482c0-1 0-1 1-1 1 0 0 2-1 1z"/><path d="m145 482c0 0 0-1 0-1 1 0 0 1 0 1z"/><path d="m144 481c0 0 0 0 0 0z"/><path d="m134 472c0 2 0 4-1 6 0 1-1 2-2 2-1-1 0-2 0-3 1-2 2-4 3-5z"/><path d="m135 475c0 0 0 0 0 1 1 0 1 0 1-1 0 1 0 1 0 2 1 0 1 1 1 1 0 0 0 0 0-1-1 0-3 1-3 0 0 0 0 0 1-1 0 0 0 0 0-1z"/><path d="m127 476c1-1 1-1 2-1 0 0 0 1 1 1 0 0-1-1-1-1 0-1 1-2 2-2 0 0 0 1 0 1-1 0-1 0-1 0 0 1 0 1 1 1-1 0-1 0-1 1 1 0 0-1 1-1 0 0 0-1 1-1 0 1 0 1 0 1-1 0-1 1-1 2 0 0-1 0-1 0-1 0-1-1-1-1 0 0-1 0-1 0 0 0 0 0-1 0z"/></g></g><g font-family="&apos;Monotype Corsiva&apos;" stroke-linejoin="round" font-style="italic" stroke-linecap="round"><g fill="#201e1e" stroke="#201e1e" stroke-width="1.667" font-size="33.598"><text x="115" y="559">T2</text><text x="81" y="532">  T1</text></g><g font-size="16.619"><text x="95" y="604" fill="#fefefe" stroke="#fefefe" stroke-width="4.762">00.00.0000</text><text x="95" y="604" fill="#201e1e" stroke="#201e1e" stroke-width="1.19">00.00.0000</text></g></g></g><g clip-path="url(#2)"><g><g fill="#201e1e"><path d="m460 95h-7v556h7z"/><path d="m446 95h-7v556h7z"/><path d="m432 95h-6v556h6z"/><path d="m418 95h-6v556h6z"/><path d="m404 95h-6v556h6z"/><path d="m390 95h-6v556h6z"/><path d="m376 95h-6v556h6z"/><path d="m362 95h-6v556h6z"/><path d="m349 95h-7v556h7z"/><path d="m335 95h-7v556h7z"/><path d="m321 95h-7v556h7z"/><path d="m307 95h-6v556h6z"/><path d="m293 95h-6v556h6z"/><path d="m279 95h-6v556h6z"/></g><path d="m375 484c35 0 63 21 63 48 0 26-28 48-63 48-34 0-63-22-63-48 0-27 29-48 63-48" fill="#fefefe"/></g><g clip-path="url(#3)"><g fill="#201e1e" stroke="#201e1e" stroke-width=".595"><path d="m326 544c1 1 1 2 1 4 0 0 0-1 0-1 1-3 0-5-2-5 0 1 1 1 1 2zm-8-9c0-1 1-2 0-2 0 0 0 0-1 0 0 0 0-1 0-1 0 0-1 1-1 1 0 0 0 0-1 0 1 1 2 0 2 0 0 0 0 2 0 2-1 0-2 0-2 1 0 0-1 1 0 1 0 2 2 3 4 3 1 0 2 0 3 0 0 0 1 0 1 0 1 0 1 0 2 0 0 1 1 1 2 2 0 1 1 2 1 4 0 1-1 2-1 3-1 0-2 1-3 1 0 0-1 0-1 0 0 0 1 0 1 0 1 0 1-1 2-1 0-1 1-2 0-3 0-2-1-4-3-4-1 0-2 0-2 1-1 0-2 1-1 2 0 1 0 2 0 2 1 0 1 0 1 0 1 0 1 0 1-1 1 0 1 0 1 1 1 0 0-2 0-2 0 0-1 0-1 0s2 0 2 1c0 2-2 3-3 2 0 0-1 0-1 1 0 0 0 0-1 0 0 0 0 0 0-1 0 0 0-1 0-2 0 0 0 0 0 1 0 0-1 0-1 0 1-3 2-5 6-5-1 0-1-1-1-1-2 1-3 1-4 2-1 1-1 3-1 4 0 3 1 5 4 5 1 0 2-1 2-1 0 0 1 0 1-1 0 2-1 3-3 2 0 1 0 1 0 2-1 0-1-1-1-1-1 0-2-1-2-2 0 0 0-1-1-1 1 3 3 5 4 6 1 0 1-1 1-1 0 0 0 1 0 1 0 0 0 1 0 1 1 0 1-1 1-1 0 0 1 0 1 0 0 1-1 1-1 1h1c0 1 0 1 0 1 1 0 1 0 1 0s0 0 1 0c1 0 3-1 4-1 0-1 1-2 0-3-1 0-1 0-1-1-1 0-1-1 0-1 0 1 1 1 1 1 0-1-1-1-1-1-1 0-2 1-1 2 0 0-1 0-1 0 0 0 0-2 0-2 0-1 1-1 2-1 1 0 2 2 2 4 0 1-1 2-1 2 0 0 0 1 1 1 0 0 0-1 1-2 0 2-1 3-3 3-1 0-2-1-3-1-1 0-1 0-1 1 1 0 2 1 4 1 0 0 1 0 2 0 2 0 3-1 4-2 0 1-1 2-1 2 0 0 0 0 1 0l-1 1c-1 1-3 0-5-1 2 1 3 2 5 2 0 0 0 1 1 1 1 0 2 0 3 0 0 0 0-1 0-1 1 1 0 1 0 1 0 0 0 0 0 1 0 0 0 0-1 0-1 0-1-1-2-1 1 0 1 0 1 0 1 1 2 2 3 2 0 0 2 0 2 1 1 1 1 2 0 2 0-1 0-1 0-2 0 0 0 1-1 1 0 0 0-1-1-1 1 1 2 2 2 3-1-1-1-1-1-2 0 0-1-1-1-1 0 1 0 1 0 1 0 1 0 1 0 1s0 0 1 0c-1 1-1 0-1 0-1 0-1-2-1-2 0-1-1-2-2-2 0 0 1 1 1 2 0 0 0 1 0 1-1 0-1 0-1 0s-1 1-1 0c1 0 1-1 1-2-1-1-2-2-3-3-1 0-3-1-4-1 1 0 2 1 2 1 1 1 2 1 2 2 0 1 0 1-1 1 1 1 0 2-1 2 0 0 1-1 1-1 0-1-1-2-1-3-1 0-1-1-1-1-1 0-1-1-1-1 0 0-1-1-1-1-1 0-3-1-3-1-1 1 0 2 1 2 0 0 1 0 1 0 1 0 2 1 2 2 0 0 0 1-1 1 0 0 0-1 0-1 0 0 0 0-1 0 1 0 1 2 1 3 0 1 0 2-1 2-1 0-1 0-2 0 0 0 0-1 0-1 0 0 0-1 0-1v1c1 1 3 0 2-1 0 0 0 1 0 1 0 0-1 0-1 0 0-1 0-1 0-2 0 0 1 0 1-1 0-1-1-1-2-2 0 0-1-1-1-2 0 0 0-1 0-1 0 0 0 0 0-1-1 1-1 1-1 1s-1-1 0-1c-1 0-1 1-2 1 0 0 0-1 0-1 1 0 1-1 1-1-1 0-1 1-1 1-1-1 0-1 0-2-1-1-3-2-4-5 0 1 0 1-1 1 0 0 0 0 0-1 1-1 0-3 0-4 0-1 0-2 0-2 0 0 0 2-2 2 0-1 1-1 1-1s-2 0-2-1c1 0 1 0 1 0 1 0 1 0 2 0 0-1 1-1 1-2 0 0 1-1 1-1 1-1 1-1 2-1 0-1 1-1 2-1-3 0-4 2-7 1 1 0 1 0 1-1 0 0-1 0-1 1 0 0-1-1-1-1 0 0-1 0-1 0 0-1 0-1 0-1-1 0-1-1 0-1 0 1 0 1 1 1-1-1-1-2-1-3 0-2 1-4 3-4 1 0 2 1 2 2 0 0 0 1-1 1z"/><path d="m346 548c0 1 1 1 1 2 1 1 2 3 2 5 1-3 0-5-1-6-1 0-1-1-2-1zm-10-7c0-1 1-2 0-2 0 0-1 0-1 0 0 0-1-1-1-1-1 0-1 1-2 2 1 0 2 0 2-1 1 0 1 2 0 3-1 0-2 0-2 2 0 1 1 1 1 2 1 0 2 1 3 1 1 0 2 0 3 0 1-1 2-1 3-1 0 0 1 0 1 0 1 0 1 0 1 0 2 1 3 1 4 2 1 1 2 3 2 6 0 1-1 2-1 3-1 1-2 2-3 2 0 0 0 0-1-1 0 0 1 0 1 0 1 0 2-1 2-1 0-1 0-2 0-3 0-2 0-3-1-4-1-1-3-2-5-1-1 0-2 2-2 3 0 1 0 2 0 2 1 1 1 1 2 1 1 1 1-1 2-1 0 0 1 0 1 1 0-1 0-2-1-2 0 0-1 0-1 0 0-1 0-1 0-1 2 0 3 1 3 2-1 2-3 3-5 2 1 1 0 1 0 1 0 0-1 1-1 1 0 0 0-1 0-1 0 0 0-1 0-1 0-1 0-1-1-1 0 0 0 0-1 1 0-5 2-7 6-8-1 0-2 0-3 1-1 1-3 2-3 4-1 2 0 5 2 7 1 1 4 1 6 0 1 0 1-1 2-1 0 0-1 0-1 1 0 1-2 2-3 2 0 0 0 1 0 1-1-1-2-1-3-1 0-1-1-1-1-2 0 0 0 0-1 0 2 2 4 4 6 6 1 0 1-1 1-1 0 0 1 0 1 1 0 0-1 0-1 1 1 0 1 0 1-1 0 0 0-1 1-1 0 1 0 1-1 2 1 0 1 0 1 0h1c0 0 0 1 0 1 1 0 1-1 1-1 0 0 1 0 1 0 1 0 2 0 3-1 1 0 2-1 2-2 0-1 0-2-1-2 0 0-1 0-2-1 0 0 0-1 0-2 1 1 1 1 1 1h1c0 0-1-1-2-1-1 0-1 1-1 2 0 1 0 1 0 1-1 0-1 0-1-1 0-1 1-2 2-2 1 0 2 0 3 1 0 0 1 1 1 2 0 2-1 3-1 4 0 0 1 0 1 0 1 0 1-1 1-2 1 3-1 4-3 4-1 0-3 0-4 0-1 0-1 0-1 0 2 1 3 1 5 2 0-1 0-1 1-1 0 0 1 0 1 0 2 0 3-1 4-1 0-1 0-1 1-2 1 1 0 2-1 2 1 0 1 0 1 0 0 1 0 1 0 1-1 1-2 1-3 1-1 0-2 0-3 0 2 0 4 1 6 1 0 0 0 0 1 0 1 0 2 0 2 0 1 0 1-1 2-1 0 0 0 1 0 1 0 0 0 0 0 1 0 0-1 0-1 0-1 0-2-1-3 0 2 0 4 1 5 2 1-1 3 0 3 0 1 1 1 2 0 2 0 0 0-1 0-1 0 0 0 0-1 0 0 0-1-1-1-1 0 0 0 1 0 1 1 0 2 1 3 2-1 0-1 1-1 1-1-1-1-3-3-3 0 0 1 1 1 1 0 0 0 1 0 1 0 0 1 0 1 0-2 1-3-1-2-3-1 0-2-1-4-2 1 1 2 2 2 3 0 0 0 1 0 1-1 0-1 0-1 0s-1 2-2 1c1-1 2-1 2-2-1-4-6-4-9-5 0 1 2 1 3 2 0 0 1 0 1 0 1 1 1 1 1 2 0 0 0 0-1 0 1 1 1 3 0 4-1 0-1 0-1 0 0-1 1-1 1-2 0-1-1-3-1-3-1-1-2-1-2-1-1-1-2-1-2-2-2 0-4-1-5-1-1 0 0 1 0 2 1 0 1 0 2 0 0 0 1 0 1 0 1-1 2 0 2 0 0 1 0 1 0 1 1 1 1 1 0 2 0-1 0-1-1-1 0 0 0 0-1 0 1 0 1 0 1 1 1 1 2 2 2 4 0 1-1 2-3 2 0 0-1-1-1-1 0-1 0-1 0-1s1 1 2 1c0 0 1-1 1-2-1 0-1 1-1 1 0 1 0 0-1 0 0-1 0-1 0-2 0 0 1 0 1-1 0 0-1-1-1-1-1-1-2-2-2-2-1-1-3-2-2-3 0-1 0-1-1-1 0 1 0 1 0 1h-1c0-1 0-1 0-1l-1 1c-1 0-1-1 0-1 0 0 0 0 0-1 0 0-1 1-1 1 0-1 0-1 0-1-1-1-2-2-3-3-1-1-2-2-3-3 0 1 0 2-1 1 0-1 0-1 0-2 0-1-1-3-1-4 0-1 0-2 0-3 0 1 0 3-2 3 0 0 0-1 0-1 0 0-1 0-1 0 0 0 0 0-1-1 1 0 1 0 1 0 1 1 2 0 2-1 1 0 1-1 1-2 1-1 2-3 3-3 1-1 2-1 3-1-4-1-5 2-8 2 0 0 0 0 1-1-1 0-1 0-2 0-1 0-2 0-2 0 0-1 0-1-1-1 0 0 0-1 0-2 0 1 0 1 0 1 1 0 1 1 2 0-1-1-2-1-2-3 0-1 0-3 1-4 1 0 2-1 3-2 1 0 2 2 2 3 0 1 0 1-1 1z"/><path d="m334 566c0 0 0 0 0 0-1-1 1-1 1-1 0 1-1 1-1 1z"/><path d="m335 566c0 1 0 1 0 2-1 0-1-1-1-1 0 0 0-1 1-1z"/><path d="m334 568c1 0 1 0 1 1 0 0-1 0-1 0 0-1 0-1 0-1z"/><path d="m331 570c-1 0-1 0-1 0 1 0 1-1 1-1 0 0 0-1 0-1-1 0-1 2-2 2 0-1 1-2 2-2 1 0 1 2 0 2z"/><path d="m342 573c0 0 0 0 0 0s0-1 1-1c-1 0-1 0-1 1zm1-1c0 0 0 0 0 0zm0-1c0 0 0 0 0 0 1 0 1 0 1 0s0-1 1-1c0 1-1 2-1 3-1 0-1 1-2 1-1 0-1 0-1 0-1 0-1-1-1-2-1-1 0-3 1-3 0 1 0 2 0 3 0 0 0 0 0 1 1 0 0-2 0-2 0-1 0-1 1-1 0 0 1-1 1-2 0 0 1 0 1 0 0 1-1 2-1 3z"/><path d="m338 574c0 0 0 0 0 0zm-1 0l1 0c0-1-1-1-1-1 0 1 0 1 0 1zm-1-2c0 0 0 1 1 1 0-1-1-1-1-2 0 0 1-1 1-2 0 1 0 1 0 2 0 0 1 1 0 1 0 0 1 0 1 0 0 0 0 1 0 1 0 0 0 1 1 1 0-1-1-1-1-1 0-1 0-1 0-2 0-1 1-1 1-2 0 1 0 1 0 2 0 1 0 1 0 1 0 1 0 1 0 2 1 0 0 1-1 1-1 0-2-1-2-3z"/><path d="m334 569c0 0 0 0 0 1 0 0-1 0-1 0 0 0 0-1 1-1z"/><path d="m329 571c0-1 0-1 0-1 1 0 1 1 0 1z"/><path d="m333 571c-1 0-1 0-1-1 1 0 1 0 1 0 0 1 0 1 0 1z"/><path d="m330 571c0 0 0 0 0 0z"/><path d="m332 571c0 1-1 1-1 0 0 0 1-1 1 0z"/><path d="m331 571c0 0 0 1-1 0 0 0 1 0 1 0z"/><path d="m342 575c0 0 0 0 0 0zm3-3c0 1 0 2-1 2 0 0-1 0-1 1 0 0 1-1 1 0 0-1 1-1 2-1 0-1 0-1 0-1 0 1-1 2-2 2-1 0-2 0-2 1 0 0 1-1 1-1 0 1 0 1 0 1 1 0 1 0 2 0 0 0 0-1 1-1 0 0 0 0 0 1-1 0-1 1-3 1 0 0-1 0-1-1-1 0-1-1 0-1 1-1 2-1 2-2 0 0 0-1 1-1z"/><path d="m338 580c0-2 0-3 1-4 0-1 1-2 1-2 1 0 1 0 1 1 0 1-1 2-1 2-1 1-2 2-2 3z"/><path d="m361 576c0 0 0 0 0-1 0 0 0-1 1-1 0 1 0 2-1 2z"/><path d="m338 577c-1 0-1 0-1-1 0 0 0 0 0 1-1 0-1 0-1 0 0-1 1-1 1-1l-1-1c1 0 3 0 2 1 0 1 0 1 0 1z"/><path d="m362 576c0 0 0 0 1 0 0 0 0 1-1 1 0 1-1 0-1 0 0-1 1-1 1-1z"/><path d="m343 578c0 0-1 0-1-1 0 0 0 0 0 1 0 0-1 1-1 1 0 0-1 0-1 0 0-1 1 0 1-1 0 0 0 0 0-1 0 0 0 0 0 1-1 0-1 0-1 0 0-1 0-1 1-2 0 0 0 0 1 0 0 1 0 1 0 1 1 0 1 0 1 0s0 0 0 1z"/><path d="m372 583c0 0 0 0 0 0 0-1 0-1 1-1 0-1 0-1 0-1s-1 1-1 2zm1-2c0 0 0 0 1 0h-1zm1-5c0 1 0 2-1 2 0 1 0 2 0 2 1 0 1 0 1 0 0-1 1-1 1-1 0 2-1 3-2 4 0 1-1 1-2 1 0-1 0 0-1 0 0-1-1-2-1-3 0-1 0-2 1-2 0-1 0-1 1-1 0 1 0 2-1 3 1 0 1 0 1 0 0 1 0 1 0 2 1-1 0-2 0-3 0-1 0-1 0-1 1 0 1 0 1 0 0-1 1-2 1-3 1 0 1 0 1 0z"/><path d="m362 578c0 0 1 0 1 1 0 1-2 0-1-1z"/><path d="m368 585c0 0 0 0 0 0v-1 1zm-1-1c0 0 0 0 0 0s0 0-1 0h1zm1-6c0 0 0 0 0 0 0 2 0 2 0 3 0 0 0 1 1 1 0 1 0 1 0 2 1 1 0 2-1 2-2 0-3-1-3-3 0 0 0 0 0-1 0 1 0 2 1 2 0-1 0-1 0-1-1-1-1-3 0-4 0 1 0 1 0 2 0 0 1 1 1 2 0 0 0 0 1 1 0 0-1 0 0-1 0-1-1-1-1-2 0-1 1-2 1-3z"/><path d="m358 581c0 0 0-1 0-1 0 0 0-1 0-1-1 0-1 1-1 2-1 0-1 0-1 0 0-1 0-2 2-2 1 0 1 1 1 1 0 1-1 2-1 1z"/><path d="m362 580c0 0 0 0 0 0 0 1-1 1-1 0 0 0 0 0 1 0z"/><path d="m361 581c0 0 1 1 0 1 0 0-1 0-1-1 0 0 1 0 1 0z"/><path d="m373 585c0 0 0 0 0 0zm2-4c0 0 0 0 0 0 1 1 1 2 0 2 0 1-1 1-1 2 0 0 1-1 1-1 1-1 1-1 2-1 0-1 0-1 0-2 1 0 1 1 1 1 0 2-1 3-3 3-1 0-2 0-2 1 0 0 1-1 1 0 1 0 1 0 2 0 0 0 1-1 1-1 0 1-2 3-4 2-1-1-1-1-1-1 0-1 1-2 2-2 0-1 1-1 1-2 0 0 0 0 0-1z"/><path d="m356 582c0 0 0 0 0 0 0-1 1-1 1 0 0 0 0 0-1 0z"/><path d="m360 582c0 0 0 1 0 1-1 0-1-2 0-1z"/><path d="m357 582c1 0 1 1 0 1 0 0 0-1 0-1z"/><path d="m359 583c-1 0-1 0-1 0v-1c1 0 1 1 1 1z"/><path d="m368 592c0-2 1-5 1-6 1-1 1-2 2-2 1 0 1 2 0 3-1 1-2 3-3 5z"/><path d="m368 589c-1-1-1-1-1-1h-1c0 0 0-1 1-1 0 0-1 0-1 0 0 0-1-1 0-1 1 0 2 0 2 0 1 1 0 1 0 1 0 1 0 1 0 2z"/><path d="m375 588c0 0-1 0-2 0 0 0 0 0 0 1 0 0-1 1-1 1 0 0 0-1 0-1 0 0 1-1 0-1 0 0 0 0 0 1-1-1-1 0-2 0 0 0 1 0 1 0 0-1 0-2 1-2 0 0 0 0 1 0 0 0 0 0 1 1 1 0 1 0 1 0z"/><path d="m426 544c-1 1-1 2-1 4 0 0 0-1 0-1-1-3 0-5 2-5 0 1-1 1-1 2zm8-9c0-1-1-2 0-2 0 0 1 0 1 0 0 0 0-1 0-1 1 0 1 1 1 1 0 0 1 0 1 0-1 1-2 0-2 0 0 0 0 2 1 2 0 0 1 0 1 1 1 0 1 1 1 1-1 2-3 3-5 3-1 0-2 0-3 0 0 0-1 0-1 0-1 0-1 0-1 0-1 1-2 1-2 2-1 1-2 2-2 4 0 1 1 2 1 3 1 0 2 1 3 1 0 0 1 0 1 0 0 0-1 0-1 0-1 0-1-1-2-1 0-1 0-2 0-3 0-2 1-4 3-4 1 0 2 0 3 1 0 0 1 1 1 2 0 1-1 2-1 2 0 0-1 0-1 0-1 0-1 0-1-1 0 0-1 0-1 1-1 0 0-2 0-2 1 0 1 0 1 0-1 0-2 0-2 1 0 2 2 3 4 2 0 0 0 0 0 1 1 0 1 0 1 0s0 0 0-1c0 0 0-1 0-2 0 0 0 0 0 1 1 0 1 0 1 0 0-3-2-5-5-5 0 0 0-1 1-1 1 1 2 1 3 2 1 1 2 3 1 4 0 3-1 5-4 5-1 0-1-1-2-1 0 0-1 0-1-1 0 2 2 3 3 2 0 1 0 1 1 2 0 0 0-1 0-1 1 0 2-1 2-2 1 0 1-1 1-1-1 3-2 5-4 6-1 0-1-1-1-1 0 0 0 1 0 1 0 0 0 1 0 1 0 0-1-1-1-1 0 0-1 0-1 0 0 1 1 1 1 1h-1c0 1 0 1 0 1h-1c-2 0-3-1-4-1-1-1-1-2-1-3 1 0 1 0 2-1 0 0 0-1-1-1 0 1 0 1-1 1 0-1 1-1 1-1 2 0 3 1 2 2 1 0 1-2 0-2 0-1-1-1-2-1-1 0-2 2-2 4 0 1 1 2 2 2-1 0-1 1-1 1-1 0-1-1-2-2 0 2 2 3 4 3 1 0 2-1 3-1 0 0 0 0 0 1-1 0-2 1-3 1-1 0-2 0-3 0-2 0-3-1-3-2-1 0-1 0-1 0 0 1 1 2 1 2 0 0 0 1 0 1 2 1 4 0 5-1-1 1-3 2-5 2 0 0 0 1 0 1-1 0-1 0-1 0-1 0-2 0-2 0-1 0-1-1-1-1v1c0 0 0 0 0 1 0 0 1 0 1 0 1 0 1-1 2-1 0 0-1 0-1 0-1 1-2 2-3 2 0 0-1 0-2 1 0 1 0 2 0 2s0-1 0-2c1 0 1 1 1 1 0 0 0-1 1-1-1 1-1 2-2 3 0 0 0 0 1 0 0-1 0-1 0-2 1 0 1-1 1-1 1 1 0 1 0 1 0 1 0 1 0 1s0 0-1 0c1 1 1 0 2 0 0 0 0-2 0-2 1-1 1-2 2-2 0 0-1 1-1 2 0 0 1 1 1 1 0 0 1 1 2 0-1 0-2-1-2-2 1-1 2-2 3-3 2 0 3-1 4-1 0 0-1 1-2 1-1 1-2 1-2 2 0 1 0 1 1 1 0 1 0 2 2 2 0 0-1 0-1 0 0 0-1-1-1-1 0-1 1-2 1-3 1 0 1-1 1-1 1 0 1-1 1-1 1 0 1-1 2-1 1 0 2-1 3-1 0 1-1 2-1 2-1 0-2 0-2 0-1 0-2 1-2 2 0 0 1 1 1 1 0 0 0-1 0-1 0 0 1 0 1 0 0 0-1 2-1 3 0 1 0 2 1 2 1 0 1 0 2 0 0 0 0-1 0-1 0 0 0-1 0-1v1c-1 1-2 0-2-1 0 0 0 1 1 1 0-1 0-1 0-2 0 0-1 0-1-1 1-1 1-1 2-2 0 0 1-1 1-2 0 0 0-1 0-1 0 0 0 0 1-1 0 1 0 1 0 1s1-1 0-1c0 0 1 0 1 0 0 0 0 1 1 1 1 0 0-1 0-1 0 0-1-1-1-1 1 0 1 1 1 1 1-1 0-1 0-2 2-1 3-2 4-5 0 1 1 1 1 1 0 0 0 0 0-1 0-1 0-3 0-4 0-1 0-2 0-2 0 0 0 2 2 2 0-1-1-1-1-1s2 0 2-1c0 0 0 0-1 0 0 0-1 0-2 0 0-1 0-1-1-2 0 0-1-1-1-1-1-1-1-1-2-1 0-1-1-1-2-1 3 0 4 2 7 1 0 0-1 0-1-1 1 0 1 0 1 1 0 0 1-1 1-1 1 0 1 0 1 0 0-1 0-1 1-1 0 0 0-1 0-1-1 1-1 1-2 1 1-1 1-2 1-3 0-2-1-4-3-4-1 0-2 1-2 2 0 0 0 1 1 1z"/><path d="m406 548c0 1-1 1-1 2-1 1-2 3-2 5-1-3 0-5 1-6 1 0 2-1 2-1zm10-7c0-1-1-2 0-2 0 0 1 0 1 0 1 0 1-1 1-1 1 0 1 1 2 2-1 0-2 0-2-1-1 0-1 2 0 3 1 0 2 0 2 2 0 1-1 1-1 2-1 0-2 1-3 1-1 0-2 0-3 0-1-1-2-1-3-1 0 0-1 0-1 0 0 0-1 0-1 0-1 1-3 1-4 2-1 1-2 3-2 6 0 1 1 2 1 3 1 1 2 2 3 2 0 0 1 0 1-1 0 0-1 0-1 0-1 0-1-1-2-1 0-1 0-2 0-3 0-2 0-3 1-4 1-1 3-2 5-1 1 0 2 2 2 3 1 1 0 2 0 2 0 1-1 1-2 1-1 1-1-1-2-1 0 0 0 0 0 1-1-1 0-2 0-2 1 0 1 0 1 0 0-1 0-1 0-1-2 0-3 1-2 2 0 2 2 3 4 2 0 1 0 1 0 1 1 0 1 1 1 1 0 0 0-1 0-1 0 0 0-1 0-1 0-1 0-1 1-1 0 0 0 0 1 1 0-5-2-7-6-8 1 0 2 0 3 1 2 1 3 2 3 4 1 2 0 5-2 7-1 1-4 1-6 0 0 0-1-1-1-1 0 0 0 0 0 1 1 1 2 2 3 2 0 0 0 1 0 1 1-1 2-1 3-1 0-1 1-1 1-2 1 0 1 0 1 0-1 2-4 4-6 6 0 0 0-1-1-1 0 0 0 0 0 1 0 0 0 0 0 1 0 0-1 0-1-1 0 0 0-1 0-1-1 0-1 0-1 0 0 1 1 1 1 2-1 0-1 0-1 0h-1c0 0 0 1 0 1 0 0 0-1-1-1 0 0 0 0-1 0-1 0-2 0-2-1-1 0-3-1-3-2 0-1 1-2 1-2 1 0 1 0 2-1 0 0 0-1 0-2 0 1 0 1-1 1 0 0 0 0-1 0 0 0 1-1 2-1 1 0 2 1 1 2 0 1 0 1 0 1 1 0 1 0 1-1 0-1-1-2-2-2-1 0-2 0-3 1 0 0-1 1-1 2 0 2 1 3 2 4-1 0-1 0-2 0 0 0-1-1-1-2-1 3 1 4 3 4 1 0 3 0 4 0 1 0 1 0 1 0-1 1-3 1-5 2 0-1 0-1-1-1 0 0-1 0-1 0-2 0-3-1-4-1 0-1 0-1 0-2-1 0-1 0-1 0 0 1 0 2 1 2 0 0-1 0-1 0 0 1 0 1 1 1 0 1 1 1 2 1 1 0 2 0 3 0-1 0-4 1-6 1-1 0-1 0-1 0-1 0-2 0-2 0-1 0-1-1-2-1 0 0 0 1 0 1 0 0 0 0 1 0-1 0-1 0-1 1 0 0 1 0 2 0 0 0 1-1 2 0-2 0-4 1-5 2-1-1-3 0-3 0-1 1-1 2 0 2 0 0 0-1 0-1 1 0 1 0 1 0 1 0 1-1 1-1 0 0 0 1 0 1-1 0-2 1-2 2 0 0 0 1 0 1 1-1 2-3 3-3 0 0-1 1-1 1 0 0 0 1 1 1-1 0-1 0-2 0 0 0 0 0 1 0 2 1 2-1 1-3 1 0 2-1 4-2-1 1-2 2-2 3 0 0 1 1 0 1 1 0 1 0 1 0s1 2 2 1c-1-1-1-1-1-2 0-4 5-4 8-5 0 1-2 1-3 2 0 0-1 0-1 0 0 1-1 1-1 2 0 0 0 0 1 0 0 1 0 3 1 4 0-1-1-1-1-2 1-1 1-3 2-3 0-1 1-1 1-1 1-1 2-1 2-2 2 0 4-1 6-1 0 0 0 1-1 2 0 0-1 0-1 0-1 0-1 0-2 0-1-1-1 0-2 0 0 1 0 1 0 1 0 1-1 1 0 2 0-1 0-1 1-1 0 0 0 0 1 0 0 0-1 0-1 1-1 1-2 2-1 4 0 1 1 2 2 2 1 0 1-1 1-1 0-1 1-1 0-1 0 0 0 1-1 1-1 0-2-1-1-2 0 0 0 1 0 1 0 1 1 0 1 0 0-1 0-1 0-2 0 0 0 0 0-1 0 0 0-1 0-1 1-1 2-2 3-2 1-1 2-2 1-3 0-1 1-1 1-1 0 1 0 1 0 1h1c0-1 0-1 0-1 1 0 1 1 1 1 1 0 1-1 1-1-1 0-1 0-1-1 0 0 1 1 1 1 1-1 0-1 0-1 1-1 2-2 3-3 1-1 2-2 3-3 0 1 0 2 1 1 0-1 0-1 0-2 0-1 1-3 1-4 0-1 0-2 0-3 1 1 1 3 2 3 0 0 0-1 0-1 0 0 1 0 1 0 1 0 1 0 1-1-1 1-3 0-3-1-1 0-1-1-1-2-1-1-2-3-3-3-1-1-2-1-2-1 3-1 4 2 7 2 0 0 0 0 0-1 0 0-1 0-1 0s1 0 2 0c1 0 2 0 2 0 0-1 1-1 1-1 0 0 0-1 0-2 0 1 0 1 0 1s-1 1-2 0c1-1 2-1 2-3 0-1 0-3-1-4 0 0-2-1-3-2-1 0-2 2-2 3 0 1 0 1 1 1z"/><path d="m418 566c0 0 0 0 1 0 0-1-2-1-2-1 0 1 1 1 1 1z"/><path d="m417 566c0 1 0 1 1 2 0 0 0-1 0-1 0 0 0-1-1-1z"/><path d="m418 568c0 0-1 0-1 1 0 0 1 0 1 0 0-1 0-1 0-1z"/><path d="m422 570c0 0 0 0 0 0l-1-1c0 0 0-1 1-1 0 0 0 2 1 2 0-1-1-2-2-2-1 0 0 2 1 2z"/><path d="m411 573c0 0-1 0-1 0 0 0 0-1-1-1 1 0 1 0 2 1zm-2-1c0 0 0 0 0 0zm0-1c0 0 0 0 0 0-1 0-1-1-1-1-1 1 0 2 0 3 1 0 1 1 2 1 1 0 1 0 1 0 1 0 1-1 2-2 0-1-1-3-2-3 0 1 0 2 1 3-1 0-1 0-1 0s0 0 0 1c0 0 0-2 0-2 0-1 0-1-1-1 0 0-1-1-1-2 0 0 0 0-1 0 1 1 1 2 1 3z"/><path d="m414 574c0 0 0 0 0 0zm1 0c0 0-1 0-1 0 0-1 1-1 1-1 0 1 0 1 0 1zm1-2c0 0 0 1 0 1-1 0-1 0-1 0 1-1 1-1 1-2 0 0-1-1-1-2 0 1 0 1 0 2 0 0 0 1 0 1 0 0 0 0-1 0 0 0 0 1 0 1 0 0 0 1-1 1l1-1c0-1 0-1 0-2 0-1-1-1-1-2 0 1 0 1 0 2 0 1 0 1 0 1 0 1 0 1 0 2 0 0 0 1 1 1 1 0 3-1 2-3z"/><path d="m419 569c-1 0-1 0-1 1 0 0 1 0 1 0 0 0 0-1 0-1z"/><path d="m423 571c0-1 0-1 0-1v1z"/><path d="m420 571c0 0 0 0 0-1 0 0-1 0-1 0 0 1 0 1 1 1z"/><path d="m422 571c0 0 0 0 0 0z"/><path d="m420 571c0 1 1 1 1 0 0 0-1-1-1 0z"/><path d="m421 571c0 0 0 1 1 0 0 0-1 0-1 0z"/><path d="m410 575c0 0 0 0 0 0zm-2-3c-1 1-1 2 0 2 0 0 1 0 1 1 0 0-1-1-1 0 0-1-1-1-1-1-1-1-1-1-1-1 0 1 1 2 2 2 1 0 2 0 2 1 0 0 0-1-1-1 0 1 0 1 0 1h-1c-1 0-1-1-2-1 0 0 0 0 1 1 0 0 1 1 2 1 0 0 1 0 2-1 0 0 0-1-1-1 0-1-2-1-2-2 0 0 0-1 0-1z"/><path d="m414 580c0-2 0-3-1-4 0-1-1-2-1-2-1 0-1 0-1 1 0 1 1 2 2 2 0 1 1 2 1 3z"/><path d="m391 576c0 0 0 0 0-1 1 0 0-1-1-1 0 1 0 2 1 2z"/><path d="m415 577c0 0 0 0 0-1 0 0 0 0 1 1 0-1 0-1-1-1l1-1c0 0-3 0-2 1 1 1 0 1 1 1z"/><path d="m390 576c0 0 0 0 0 0-1 0-1 1 0 1 0 1 1 0 1 0 0-1-1-1-1-1z"/><path d="m409 578c0 0 1 0 1-1 1 0 0 0 0 1 0 0 1 1 2 1 0-1-1 0-1-1 0 0 0 0 0-1 0 0 0 0 0 1 1 0 1 0 2 0 0 0-1 0-1 0 0-1 0-1-1-2 0 0 0 0-1 0 0 1 0 1 0 1h-1c0 0 0 0 0 1z"/><path d="m380 583c0 0 0 0 0 0 0-1 0-1 0-1-1 0-1 0-1 0 0-1 0-1 0-1 1 0 1 1 1 2zm-1-2c0 0 0 0 0 0zm0-5c0 1 0 2 0 2 0 1 0 2 0 2-1 0-1 0-1 0 0-1 0-1-1-1 0 2 1 3 2 4 0 1 2 1 2 1 0-1 1 0 1 0 1-1 1-2 1-3 0-1 0-2 0-2-1-1-1-1-1-1-1 1-1 2 0 3 0 0-1 0-1 0 0 1 0 1 0 2-1-1 1-2 0-3 0-1 0-1 0-1s0 0-1 0c0-1 0-2-1-3z"/><path d="m390 578c0 0-1 0-1 1 0 1 2 0 1-1z"/><path d="m384 585c0 0 0 0 0 0s0-1 1-1c0 1-1 1-1 1zm1-1c0 0 0 0 0 0s0 0 1 0c0 0-1 0-1 0zm-1-6c0 0 0 0 0 0 0 2 0 2 0 3 0 0 0 1 0 1-1 1-1 1-1 2-1 1 1 2 2 2 1 0 3-1 2-3 0 0 0 0 0-1 0 1 0 2-1 2 0-1 0-1 1-1 1-1 0-3-1-4 0 1 1 1 0 2 0 0-1 1 0 2-1 0-1-1-1 0 0 0 0 0 0 1-1 0-1 0-1 0s1 0 0-1c1-1 1-1 1-2 0-1-1-2-1-3z"/><path d="m395 581c-1 0-1-1-1-1 0 0 0-1 1-1 0 0 0 1 1 2 0-1 0-2-2-2 0 0-1 1-1 1 0 1 1 2 2 1z"/><path d="m391 580c-1 0-1 0-1 0 0 1 1 1 1 0z"/><path d="m392 581c-1 0-2 1-1 1 0 0 1 0 1-1z"/><path d="m379 585c0 0 0 0 0 0zm-2-4c0 0 0 0 0 0-1 1-1 2 0 2 0 1 1 1 1 2 0 0 0-1-1-1 0-1-1-1-2-1 0-1 0-1 0-2-1 0-1 1-1 1 1 2 1 3 3 3 1 0 2 0 2 1 0 0 0-1-1 0-1 0-1 0-1 0-1 0-1-1-2-1 0 1 2 3 4 2 1-1 1-1 1-1 0-1-1-2-2-2 0-1-1-1-1-2 0 0 0 0 0-1z"/><path d="m396 582c0 0 0 0 0 0 0-1-1-1-1 0 0 0 1 0 1 0z"/><path d="m392 582c0 0 0 1 0 1 2 0 1-2 0-1z"/><path d="m395 582c-1 0-1 1 0 1 0 0 0-1 0-1z"/><path d="m394 583c0 0 0 0 0 0v-1c0 0-1 1 0 1z"/><path d="m384 592c0-2 0-5-1-6 0-1-1-2-2-2-1 0 0 2 0 3 1 1 2 3 3 5z"/><path d="m384 589c1-1 1-1 1-1h1c0 0 0-1 0-1 0 0 1-1 1-1 0 0-1 0-1 0 0 0-2 0-2 0-1 1 0 1 0 1 0 1 0 1 0 2z"/><path d="m377 588c0 0 1 0 2 0 0 0 0 0 0 1 0 0 1 1 1 1 1 0 1 0 1 0-1 0-1-1-1-1 0 0 0-1 0-1 0 0 0 0 0 1 1-1 1 0 2 0 0 0 0 0-1 0 0-1 0-2 0-2-1 0-1 0-2 0 0 0 0 0 0 1-1 0-1 0-1 0h-1z"/><path d="m326 519c1 0 1-2 1-3 0 0 0 0 0 1 1 2 0 4-2 5 0-1 1-2 1-3zm-8 9c0 1 1 2 0 2 0 1 0 0-1 1 0 0-1 0-1 0 0-1 0-1-1-1 1 0 2 0 2 1 0-1 0-2 0-3-1 0-2 0-2 0 0-1-1-1 0-2 0-1 2-2 4-2 1 0 2 0 3 0 0 0 1 0 1 0 0 0 0-1 0-1 1 1 1 0 2 0 0 0 1-1 2-1 0-1 1-3 1-4 0-2-1-3-1-3-1-1-2-2-3-2 0 0-1 0-1 0 0 1 1 0 1 0 1 0 1 1 2 2 0 0 1 1 0 2 0 2-1 4-3 4-1 1-2 0-2 0-1-1-2-2-1-3 0-1 0-1 0-2 1 0 1 0 1 0 1 0 1 1 1 1 1 0 1 0 1 0v-1c1 1 0 2 0 2 0 0-1 0-1 0 1 1 2 0 2-1 0-2-2-2-3-1 0-1-1-1-1-1 0 0 0-1-1-1 0 1 0 1 0 1 0 1 0 2 0 2 0 0-1 0-1-1 1 4 2 6 6 6-1 0-1 0-1 0-2 0-3-1-4-2-1-1-1-2-1-4 0-2 1-5 4-4 1 0 2 0 2 0 0 0 1 1 1 1 0-1-1-3-3-2 0 0 0-1 0-1-1 0-1 0-1 0-1 1-2 1-2 2 0 1 0 1-1 1 1-2 3-4 4-6 1 0 1 1 1 1 0 0 0 0 0-1 0 0 0 0 0-1 1 1 1 1 1 2 0 0 1 0 1 0 0-1-1-1-1-2 1 0 1 0 1 0s0 0 0-1c1 0 1 1 1 1 0 0 0 0 1 0 1 0 3 0 4 1 0 0 1 1 0 2-1 1-1 1-1 1-1 0-1 1 0 1 0 0 1 0 1 0 0 0-1 1-1 1-1 0-2-2-1-2 0-1-1-1-1-1 0 1 0 2 0 2 0 1 1 1 2 1 1 0 2-2 2-3 0-2-1-2-1-3 0 0 0 0 1 0 0 0 0 1 1 1 0-2-1-3-3-3-1 1-2 1-3 1-1 0-1 0-1 0 1-1 2-1 4-2 0 1 1 0 2 0 2 0 3 1 4 2 0-1-1-1-1-2 0 0 0 0 1 0l-1-1c-1 0-3 1-5 1 2-1 3-1 5-2 0 0 0 0 1 0 1 0 2-1 3 0 1 0 0-1 0-1 0 0 0 0-1 0-1 0-1 0-2 0h1c1-1 2-1 3-2 0 0 2 0 2-1 1 0 1-1 0-1 0 0 0 0 0 1 0 0 0 0-1 0 0 0 0 1-1 1 1-1 2-2 2-3-1 0-1 1-1 1 0 1-1 1-1 1 0 0 0-1 0-1 0-1 0-1 1-1h-1c-1 1-1 2-1 3 0 0-1 1-2 2 0-1 1-2 1-2 0-1 0-1 0-2-1 0-1 0-1 1l-1-1c1 0 1 1 1 3-1 1-2 1-3 2-1 1-3 1-4 1 1 0 2 0 2-1 1 0 2-1 2-2 0 0 0-1-1 0 1-2 0-3-1-3 0 1 1 1 1 2 0 1-1 2-1 2-1 1-1 1-1 1-1 1-1 1-1 1s0 0 0 1c0 0-1 0-1 0-1 1-3 1-3 1-1 0 0-2 1-2 0 0 1 1 1 1 1-1 2-2 2-3 0 0 0 0-1 0 0 1 0 1-1 1 1-1 1-2 1-4 0-1 0-2-1-2-1 0-1 0-2 1 0 1 0 1 0 1v-1c1-1 3 0 2 1 0 0 0 0 0-1 0 0-1 0-1 0 0 0 0 1 0 1 0 0 0 1 0 1 0 0 1 0 1 1 0 1-1 2-2 2 0 1-1 1-1 2 0 1 0 1 0 2-1 0-1 0-1 0 0 1 0 1 0 1-1-1-1-1-2-1 0 0 0 0 0 1 1 0 1 0 1 0-1 0-1 0-1 0-1 0 0 1 0 1-1 1-3 3-4 5 0 0 0-1-1-1 0 0 0 1 0 1 1 2 0 3 0 5 0 0 0 1 0 2 0-1 0-2-2-2 0 0 1 0 1 1h-2c1 0 1 0 1 0 1 0 1 0 2 1 0 0 1 1 1 1 0 1 1 1 1 2 1 0 1 0 2 1 0 0 1 0 2 0-3 1-4-1-7-1 1 1 1 1 1 1h-1c0 0-1 0-1 0 0 0-1 0-1 1-1 1-1 1 0 2 0-1 0-1 0-1s0 0 1 0c-1 0-1 1-1 2 0 2 1 4 3 4 1 1 2 0 2-2 0 0 0-1-1-1z"/><path d="m346 515c0-1 1-1 1-2 1-1 2-3 2-4 1 2 0 4-1 5-1 1-1 1-2 1zm-10 7c0 1 1 2 0 3 0 0-1 0-1 0 0 0-1 0-1 0-1 0-1-1-2-1 1 0 2 0 2 1 1-1 1-3 0-4-1 0-2 0-2-1 0-2 1-2 1-3 1 0 2 0 3-1 1 0 2 1 3 1 1 0 2 0 3 0 0 0 1 0 1 0 1 0 1 0 1 0 2 0 3-1 4-2 1-1 2-3 2-5 0-1-1-3-1-4-1 0-2-1-3-1 0 0 0 0-1 0 0 0 1 0 1 0 1 0 2 1 2 2 0 0 0 1 0 3 0 1 0 2-1 3-1 1-3 2-5 1-1 0-2-1-2-3 0-1 0-1 0-2 1 0 1-1 2-1 1 0 1 1 2 1 0 0 1 0 1 0 0 0 0 1-1 2 0 0-1 0-1 0 2 0 3-1 3-2-1-2-3-3-5-2 1 0 0-1 0-1 0 0-1-1-1 0 0 1 0 1 0 2 0 0 0 1-1 1 0-1 0-1-1-1 0 4 2 6 6 7-1 0-2 0-3 0-1-1-3-2-3-4-1-3 0-6 2-7 1-2 4-2 6-1 1 1 1 1 2 2 0-1-1-1-1-1 0-1-2-2-3-2 0-1 0-1 0-2-1 1-2 1-3 2 0 0-1 0-1 1 0 0 0 1-1 1 2-3 4-5 6-7 1 1 1 1 1 1h1c0-1-1-1-1-1h1c0 0 0 1 1 1 0-1 0-1-1-2 1 0 1 0 1 1 0 0 1 0 1-1 0-1 0-1 0-1 1 0 1 1 1 1 0 0 1 0 1 0 1 1 2 1 3 1 1 1 2 1 2 3 0 0 0 1-1 1 0 1-1 1-2 1 0 0 0 1 0 2 1 0 1-1 1-1 0 0 1 0 1 0 0 1-1 1-2 1-1 0-1-1-1-2 0 0 0 0 0-1-1 0-1 1-1 1 0 2 1 3 2 3 1 0 2-1 3-1 0-1 1-2 1-3 0-2-1-3-1-4 0 0 1 0 1 0 1 1 1 1 1 2 1-2-1-4-3-4-1 0-3 1-4 1-1 0-1 0-1-1 2 0 3-1 5-1 0 0 0 0 1 0 0 0 1 0 1 0 2 0 3 1 4 2 0 0 0 1 1 1 1 0 0-1-1-2 1 0 1 0 1 0v-1c-1-1-2-1-3-1-1 0-2 1-3 1 2-1 4-1 6-2 0 0 0 0 1 0 1 0 2 0 2 0 1 0 1 1 2 1 0 0 0 0 0-1 0-1-1-1-1-1-1 0-2 1-3 1 2-1 4-2 5-2 1 0 3 0 3-1 1 0 1-2 0-2 0 1 0 1 0 2 0 0 0-1-1-1 0 0-1 1-1 1s2-2 3-3c-1 0-1 0-1 0-1 1-1 2-3 3 0-1 1-1 1-2 0-1 1-1 1-1-2 0-3 2-2 3-1 1-2 1-4 2 1-1 2-1 2-2 0-1 0-2 0-2-1 0-1 0-1 0s-1-1-2 0c1 0 2 0 2 2-1 3-6 3-9 4 0-1 2-1 3-1 0-1 1-1 1-1 1 0 1-1 1-1 0-1 0-1-1-1 1-1 1-3 0-3-1 0-1 0-1-1v1c0 0 1 1 1 2 0 1-1 2-1 2-1 1-2 1-2 2-1 0-2 0-2 1-2 1-4 1-5 2-1-1 0-2 0-2 1-1 1-1 2-1 0 0 1 1 1 1 1 0 2-1 2-1 0 0 0-1 0-1 1-1 1-1 0-2 0 1 0 2-1 2 0 0 0 0-1 0 1-1 1-1 1-1 1-1 2-3 2-4 0-1-1-3-3-2 0 0-1 0-1 1 0 0 0 1 0 1s1-2 2-2c0 1 1 1 1 2-1 0-1 0-1-1 0 0 0 0-1 0 0 0 0 0 0 1 0 0 0 1 0 1 0 1 1 1 1 1 0 1-1 1-1 2-1 0-2 1-2 1-1 1-3 2-2 4 0 0 0 0-1 0 0 0 0 0 0-1 0 0-1 0-1 1 0 1 0 1 0 1 0-1-1-2-1-2-1 0-1 1 0 1 0 1 0 1 0 1s-1-1-1 0c0 0 0 0 0 1-1 1-2 1-3 2-1 1-2 2-3 3 0 0 0-1-1-1 0 1 0 2 0 2 0 1-1 3-1 5 0 1 0 1 0 2 0-1 0-2-2-3 0 1 0 1 0 2l-1-1c0 1 0 1-1 1h1c1 0 2 0 2 1 1 1 1 1 1 2 1 2 2 3 3 4 1 0 2 1 3 1-4 0-5-3-8-3 0 1 0 1 1 1 0 0 0 0 0 1-1 0-1-1-2-1-1 0-2 0-2 1 0 0 0 0-1 0 0 1 0 1 0 2 0 0 0 0 0-1 1 0 1 0 2 0-1 1-2 2-2 3 0 2 0 3 1 4 1 1 2 2 3 2 1 0 2-1 2-3 0 0 0-1-1-1z"/><path d="m334 497c0 0 0 0 0 1-1 0 1 1 1 0 0-1-1-1-1-1z"/><path d="m335 497c0 0 0-1 0-1-1 0-1 0-1 0 0 1 0 1 1 1z"/><path d="m334 495c1 0 1 0 1 0 0-1-1-1-1 0z"/><path d="m331 493c-1 0-1 0-1 1 1 0 1 0 1 0 0 1 0 1 0 1-1 0-1-1-2-1 0 1 1 2 2 1 1 0 1-2 0-2z"/><path d="m342 490c0 0 0 0 0 0 0 1 0 1 1 1 0 0 0 0 0 1-1-1-1-1-1-2zm1 2c0 0 0 0 0 0zm0 0c1 0 1 0 1 0 0 1 0 1 1 1 0-1-1-1-1-2-1-1-1-2-2-2-1 0-1 1-1 1-1 0-1 0-1 1-1 2 0 3 1 4 0-2 0-3 0-3 0 0 0 0 0-1 1 0 0 1 0 2 0 0 0 0 1 1 0-1 0-1 0-1 0 1 1 2 1 2 0 0 1 0 1 0 0-1-1-2-1-3z"/><path d="m338 489c0 0 0 1 0 1v-1zm-1 1c1 0 1 0 1 0h-1zm-1 1c0 0 0-1 1-1 0 0 0 0 0 1 0 0-1 0-1 1 0 1 1 2 1 2 0 0 0-1 0-1 0-1 1-1 0-2 0 0 1 0 1 0 0 0 0 0 0-1 0 0 0 0 1 0 0 0-1 0-1 1 0 0 0 1 0 1 0 1 1 2 1 2 0-1 0-1 0-2 0 0 0-1 0-1 0 0 0-1 0-1 1-1 0-2-1-2-1 0-2 2-2 3z"/><path d="m334 494c0 0 0 0 0-1 0 0-1 0-1 1 0 0 0 0 1 0z"/><path d="m329 493c0 0 0 0 0 0z"/><path d="m333 492c-1 0-1 1-1 1 1 0 1 0 1 0 0-1 0-1 0-1z"/><path d="m330 493c0 0 0-1 0-1 0 0 0 1 0 1z"/><path d="m332 492c0 0-1 0-1 0 0 1 1 1 1 0z"/><path d="m331 492c0 0 0 0-1 0 0 0 1 1 1 0z"/><path d="m342 488c0 0 0 0 0 0zm3 3c0 0 0-1-1-2 0 0-1 0-1 0 0 0 1 0 1 0 0 0 1 0 2 1 0 0 0 1 0 1 0 0 1-1 0-1 0-1-1-2-2-2-1 0-2 0-2 0 0 0 1 0 1 0 0 0 0-1 0-1 0 0 0 1 0 1 1 0 1-1 2-1 0 0 0 1 1 1-1-1-1-1-3-1 0 0-1 0-1 0-1 1-1 1 0 2 1 0 2 1 2 1 0 1 0 1 1 1z"/><path d="m338 484c0 1 0 3 1 4 0 0 1 1 1 1 1 1 1 0 1-1 0-1-1-1-1-2-1-1-2-2-2-2z"/><path d="m361 487c0 1 0 1 0 1 0 1 0 1 1 1 0-1 0-1-1-2z"/><path d="m338 486c-1 0-1 1-1 1-1 0-1-1-1 0 0 0 1 0 1 1-1 0-1 0-1 1 0 0 0-1 0-1 1 0 3 1 2 0 0-1 0-1 0-1s0 0 0-1z"/><path d="m362 487c0 0 0 0 1 0 0 0 0-1-1-1 0 0-1 0-1 0 0 1 1 1 1 1z"/><path d="m343 486c0-1-1 0-1 0 0-1-1-2-1-2 0 0-1 1-1 1 0 0 1 0 1 0 0 1 0 1 0 1-1 0-1-1-1-1v1c0 0 0 1 1 1 0 0 0 0 1 0 0 0 0-1 0-1 1 0 1 0 1 0z"/><path d="m372 481c0-1 0-1 0 0 0 0 0 0 1 1 0 0-1-1-1-1zm1 1c0 0 0 1 1 1-1 0-1 0-1 0s0 0 0-1zm1 5c0-1 0-1-1-2 0-1 0-1 0-2 1 0 1 0 1 0s0 0 0 1c0 0 1 1 1 1 0-2-1-4-2-5 0-1-1-1-2 0 0 0 0 0-1 0 0 0-1 1-1 2 0 1 0 2 1 3 0 0 0 1 1 1 0-1 0-3-1-4 1 0 1 0 1 0v-1c1 0 0 2 0 3 0 0 0 0 0 1 1-1 1-1 1-1 0 1 1 3 1 3 1 0 1 0 1 0z"/><path d="m362 485c0 0 1 0 1 0 0-2-2-1-1 0z"/><path d="m368 478c0 0 0 0 0 1 0 0 0 0 0-1zm-1 1c0 0 0 0 0 0s0 0-1 0h1zm1 6c0 0 0 0 0 0 0-1 0-1 0-3 0 0 0-1 1-1 0-1 0-1 0-1 1-1 0-2-1-2-2 0-3 1-3 2 0 1 0 1 0 1 0-1 0-1 1-1-1 1-1 3 0 4 0 0 0-1 0-1 0-1 1-2 1-2 0 0 0-1 1-1 0-1 0-1 0-1 0 1-1 1 0 1 0 1-1 1-1 2 0 1 1 2 1 3z"/><path d="m358 482c0 1 0 1 0 1 0 1 0 1 0 1-1 0-1-1-1-1-1-1-1-1-1-1 0 2 0 3 2 3 1-1 1-1 1-2 0-1-1-2-1-1z"/><path d="m362 484c0 0 0-1 0-1 0-1-1-1-1 0 0 0 0 1 1 1z"/><path d="m361 482c0 0 1 0 0-1 0 0-1 1-1 1 0 0 1 0 1 0z"/><path d="m373 478c0 0 0 0 0 0v1-1zm2 4c0 0 0 0 0 0 1 0 1-2 0-2 0-1-1-1-1-1 0 0 1 1 1 0 1 1 1 1 2 2 0 0 0 1 0 1 1 0 1 0 1-1 0-1-1-3-3-2 0 0 0-1 0-1-1 0-2 0-2 0 0 0 1 0 1 0 0 0 0-1 0-1 0 0 0 1 0 1 1 0 1 0 2 0 0 0 1 0 1 1 0-2-2-3-4-2-1 0-1 0-1 1 0 1 1 1 2 2 0 0 1 1 1 1 0 0 0 1 0 1z"/><path d="m356 481c0 0 0 0 0 1 0 0 1 0 1 0 0-1 0-1-1-1z"/><path d="m360 481c0 0 0 0 0 0z"/><path d="m357 481c1 0 1 0 0-1 0 0 0 1 0 1z"/><path d="m359 480c-1 0-1 0-1 0v1c1 1 1 0 1-1z"/><path d="m368 472c0 2 1 4 1 6 1 0 1 2 2 1 1 0 1-2 0-3-1-1-2-3-3-4z"/><path d="m368 475c-1 0-1 0-1 1l-1-1c0 1 0 1 1 1 0 0-1 0-1 0 0 0-1 1 0 2 0 0 0-1 0-1 1 0 2 1 2 0 1 0 0-1 0-1 0 0 0-1 0-1z"/><path d="m375 475c0 0-1 0-2 0 0 0 0 0 0 1v-1c0-1-1-2-1-2 0 0-1 1 0 1 0 1 1 1 0 2l0-1c-1 0-1-1-2-1 0 0 1 0 1 1 0 0 0 1 1 1 0 1 0 1 1 1 0-1 0-1 1-1 0 0 0-1 0-1 1 0 1 1 1 0z"/><path d="m426 519c-1 0-1-2-1-3 0 0 0 0 0 1-1 2 0 4 2 5 0-1-1-2-1-3zm8 9c0 1-1 2 0 2 0 1 1 0 1 1 1 0 1 0 1 0 0-1 1-1 1-1s-2 0-2 1c0-1 0-2 1-3 0 0 1 0 1 0 1-1 1-1 1-2-1-1-3-2-5-2-1 0-2 0-3 0 0 0-1 0-1 0 0 0 0-1 0-1-1 1-1 0-1 0-1 0-2-1-2-1-1-1-2-3-2-4 0-2 1-3 1-3 1-1 2-2 3-2 0 0 1 0 1 0 0 1-1 0-1 0-1 0-1 1-2 2 0 0 0 1 0 2 0 2 1 4 3 4 1 1 2 0 3 0 0-1 1-2 1-3 0-1-1-1-1-2 0 0-1 0-1 0-1 0-1 1-1 1 0 0-1 0-1 0 0 0 0-1 0-1-1 1 0 2 0 2 1 0 1 0 1 0-1 1-2 0-2-1 0-2 2-2 4-1 0-1 0-1 0-1 1 0 1-1 1-1v1c0 1 0 2 0 2 1 0 1 0 1-1 0 4-2 6-5 6 0 0 0 0 1 0 1 0 2-1 3-2 1-1 2-2 1-4 0-2-1-5-4-4-1 0-1 0-2 0 0 0-1 1-1 1 0-1 2-3 3-2 0 0 0-1 1-1 1 1 2 1 2 2 1 1 1 1 1 1-1-2-2-4-4-6-1 0-1 1-1 1 0 0 0 0 0-1 0 0 0 0 0-1 0 1-1 1-1 2 0 0-1 0-1 0 0-1 1-1 1-2-1 0-1 0-1 0s0 0 0-1c0 0-1 1-1 1-2 0-3 0-4 1-1 0-1 1-1 2 1 1 1 1 2 1 0 0 0 1-1 1 0 0 0 0-1 0 0 0 1 1 1 1 2 0 3-2 2-2 0-1 0-1 0-1 1 1 1 2 0 2 0 1-1 1-2 1-1 0-2-2-2-3 0-2 1-2 2-3-1 0-1 0-1 0-1 0-1 1-2 1 0-2 2-3 4-3 1 1 2 1 3 1-1-1-2-1-3-2-1 1-2 0-3 0-2 0-3 1-3 2-1 0-1 0-1 0 0-1 1-1 1-2 0 0 0-1 0-1 2 0 4 1 5 1-1-1-3-1-5-2-1 0-1 0-1 0-1 0-2-1-2 0-1 0-1 0-1 0v-1c0 0 1 0 1 0 1 0 1 0 2 0 0 0-1 0-1 0-1-1-2-1-3-2 0 0-1 0-2-1 0 0 0-1 0-1 0 0 0 0 0 1 1 0 1 0 1 0s0 1 1 1c-1-1-1-2-2-3 0 0 0 0 1 0 0 0 0 1 0 1 1 1 1 1 1 1 1 0 0-1 0-1 0-1 0-1-1-1 1 0 1 0 2 0 0 1 0 2 0 3 1 0 1 1 2 2 0-1-1-2-1-2 0-1 1-1 1-2 0 0 0 0 0 1 0-1 1-1 2-1-1 0-2 1-2 3 1 1 2 1 3 2 2 1 3 1 4 1 0 0-1 0-2-1-1 0-2-1-2-2 0 0 0-1 1 0 0-2 0-3 2-3 0 0-1 0-1 0 0 1-1 1-1 2 0 1 1 2 1 2 1 1 1 1 1 1 1 1 1 1 1 1s0 0 0 1c1 0 1 0 2 0 1 1 2 1 3 1 0 0-1-2-1-2-1 0-2 1-2 1-1-1-2-2-2-3 0 0 1 0 1 0 0 1 1 1 1 1 0-1-1-2-1-4 0-1 0-2 1-2 1 0 1 0 2 1 0 1 0 1 0 1v-1c-1-1-2 0-2 1 0 0 0 0 1-1 0 0 0 1 0 1 0 0 0 1 0 1 0 0-1 0-1 1 1 1 1 2 2 2 0 1 1 1 1 2 0 1 0 1 0 2 0 0 0 0 1 0 0 1 1 1 1 1 0-1 0-1 1-1 1 0 0 0 0 1 0 0-1 0-1 0h1c1 0 0 1 0 1 2 1 3 3 4 5 0 0 1-1 1-1 0 0 0 1 0 1 0 2 0 3 0 5 0 0 0 1 0 2 0-1 0-2 2-2 0 0-1 0-1 1h2c0 0 0 0-1 0 0 0-1 0-2 1 0 0 0 1-1 1 0 1-1 1-1 2-1 0-1 0-2 1 0 0-1 0-2 0 3 1 4-1 7-1 0 1-1 1-1 1h1 1c1 0 1 0 1 1 0 0 0 0 1 0 0 1 0 1 0 2v-1c-1 0-1 0-2 0 1 0 1 1 1 2 0 2-1 4-3 4-1 1-2 0-2-2 0 0 0-1 1-1z"/><path d="m406 515c0-1-1-1-1-2-1-1-2-3-2-4-1 2 0 4 1 5 1 1 2 1 2 1zm10 7c0 1-1 2 0 3 0 0 1 0 1 0 1 0 1 0 1 0 1 0 1-1 2-1-1 0-2 0-2 1-1-1-1-3 0-4 1 0 2 0 2-1 0-2-1-2-1-3-1 0-2 0-3-1-1 0-2 1-3 1-1 0-2 0-3 0 0 0-1 0-1 0 0 0-1 0-1 0-1 0-3-1-4-2-1-1-2-3-2-5 0-1 1-3 1-4 1 0 2-1 3-1 0 0 1 0 1 0 0 0-1 0-1 0-1 0-1 1-2 2 0 0 0 1 0 3 0 1 0 2 1 3 1 1 3 2 5 1 1 0 2-1 2-3 1-1 0-1 0-2 0 0-1-1-2-1-1 0-1 1-2 1-1 0 0 1 0 2 1 0 1 0 1 0-2 0-3-1-2-2 0-2 2-3 4-2 0 0 0-1 0-1 1 0 1-1 1 0 0 1 0 1 0 2 0 0 0 1 1 1 0-1 0-1 1-1 0 4-2 6-6 7 1 0 2 0 3 0 2-1 3-2 3-4 1-3 0-6-2-7-1-2-4-2-6-1 0 1-1 1-1 2 0-1 0-1 0-1 1-1 2-2 3-2 0-1 0-1 0-2 1 1 2 1 3 2 0 0 1 0 1 1 1 0 1 1 1 1-1-3-4-5-6-7 0 1 0 1-1 1 0-1 0-1 0-1h-1c0 0 0 1 0 1-1 0-1 0-1 0 0-1 1-1 1-2-1 0-1 0-1 1 0 0-1 0-1-1 0-1 0-1 0-1s0 1-1 1c0 0 0 0-1 0-1 1-2 1-2 1-1 1-3 1-3 3 0 0 1 1 1 1 1 1 1 1 2 1 0 0 0 1 0 2 0 0 0-1-1-1 0 0 0 0-1 0 0 1 1 1 2 1 1 0 2-1 1-2 0 0 0 0 0-1 1 0 1 1 1 1 0 2-1 3-2 3-1 0-2-1-3-1 0-1-1-2-1-3 0-2 1-3 2-4-1 0-1 0-2 0 0 1-1 1-1 2-1-2 1-4 3-4 1 0 3 1 4 1 1 0 1 0 1-1-1 0-3-1-5-1 0 0 0 0-1 0 0 0-1 0-1 0-2 0-3 1-4 2 0 0 0 1 0 1-1 0-1 0-1 0s0-1 1-2c0 0-1 0-1 0 0 0 0-1 1-1 0-1 1-1 2-1 1 0 2 1 3 1-1-1-4-1-6-2-1 0-1 0-1 0-1 0-2 0-2 0-1 0-1 1-2 1 0 0 0 0 0-1 0 0 0 0 1 0h-1c0-1 1-1 2-1 0 0 1 1 2 1-2-1-4-2-5-2-1 0-3 0-3-1-1 0-1-2 0-2 0 1 0 1 0 2 1 0 1-1 1-1 1 0 1 1 1 1-1-1-2-2-2-3 1 1 2 2 3 3 0-1-1-1-1-2 0 0 0 0 1 0-1-1-1-1-2-1 0 0 0 0 1 0 2 0 2 2 1 3 1 1 2 1 4 2-1-1-2-1-2-2 0-1 1-2 0-2 1 0 1 0 1 0s1-1 2 0c-1 0-1 0-1 2 0 3 5 3 8 4 0-1-2-1-3-1 0-1-1-1-1-1 0 0-1-1-1-1 0-1 0-1 1-1 0-1 0-3 1-3 0 0 0 0 0-1v1c0 0-1 1-1 2 1 1 1 2 2 2 0 1 1 1 1 2 1 0 2 0 2 1 2 1 4 1 6 2 0-1 0-2-1-2 0-1-1-1-1-1-1 0-1 1-2 1-1 0-1-1-2-1 0 0 0-1 0-1 0-1-1-1 0-2 0 1 0 2 1 2 0 0 0 0 1 0 0-1-1-1-1-1-1-1-2-3-1-4 0-1 1-3 2-2 1 0 1 0 1 1 0 0 1 1 0 1 0-1 0-2-1-2-1 1-2 1-1 2 0 0 0 0 0-1 0 0 1 0 1 0 0 0 0 0 0 1 0 0 0 1 0 1 0 1 0 1 0 1 0 1 0 1 0 2 1 0 2 1 3 1 1 1 2 2 1 4 0 0 1 0 1 0 0 0 0 0 0-1 0 0 1 0 1 1 0 1 0 1 0 1 1-1 1-2 1-2 1 0 1 1 1 1-1 1-1 1-1 1s1-1 1 0c1 0 0 0 0 1 1 1 2 1 3 2 1 1 2 2 3 3 0 0 0-1 1-1 0 1 0 2 0 2 0 1 1 3 1 5 0 1 0 1 0 2 1-1 1-2 2-3 0 1 0 1 0 2l1-1c1 1 1 1 1 1-1 0-3 0-3 1-1 1-1 1-1 2-1 2-2 3-3 4-1 0-2 1-2 1 3 0 4-3 7-3 0 1 0 1 0 1s-1 0-1 1c1 0 1-1 2-1 1 0 2 0 2 1 0 0 1 0 1 0 0 1 0 1 0 2 0 0 0 0 0-1 0 0-1 0-2 0 1 1 2 2 2 3 0 2 0 3-1 4 0 1-2 2-3 2-1 0-2-1-2-3 0 0 0-1 1-1z"/><path d="m418 497c0 0 0 0 1 1 0 0-2 1-2 0 0-1 1-1 1-1z"/><path d="m417 497c0 0 0-1 1-1 0 1 0 1-1 1z"/><path d="m418 495c0 0-1 0-1 0 0-1 1-1 1 0z"/><path d="m422 493c0 0 0 0 0 1 0 0-1 0-1 0 0 1 0 1 1 1 0 0 0-1 1-1 0 1-1 2-2 1-1 0 0-2 1-2z"/><path d="m411 490c0 0-1 0-1 0 0 1 0 1-1 1 0 0 0 0 0 1 1-1 1-1 2-2zm-2 2c0 0 0 0 0 0zm0 0c-1 1-1 1-1 1-1-1 0-1 0-2 1-1 1-2 2-2 1 0 1 1 1 1 1 0 1 0 2 1 0 2-1 3-2 4 0-2 0-3 1-3-1 0-1 0-1-1 0 0 0 1 0 2 0 0 0 0-1 1 0-1 0-1 0-1 0 1-1 2-1 2 0 0 0 0-1 0 1-1 1-2 1-3z"/><path d="m414 489c0 0 0 1 0 1v-1zm1 1c0 0-1 0-1 0 0 0 1 0 1 0zm1 1c0 0 0-1 0-1-1 0-1 0-1 1 1 0 1 0 1 1 0 1-1 2-1 2 0 0 0-1 0-1 0-1 0-1 0-2 0 0 0 0-1 0 0 0 0 0 0-1 0 0 0 0-1 0 1 0 1 0 1 1 0 0 0 1 0 1 0 1-1 2-1 2 0-1 0-1 0-2 0 0 0-1 0-1 0 0 0-1 0-1 0-1 0-2 1-2 1 0 3 2 2 3z"/><path d="m419 494c-1 0-1 0-1-1 0 0 1 0 1 1z"/><path d="m423 493c0 0 0 0 0 0z"/><path d="m420 492c0 0 0 1 0 1 0 0-1 0-1 0 0-1 0-1 1-1z"/><path d="m422 493c0 0 0-1 0-1 1 0 1 1 0 1z"/><path d="m420 492c0 0 1 0 1 0 0 1-1 1-1 0z"/><path d="m421 492c0 0 0 0 1 0 0 0-1 1-1 0z"/><path d="m410 488c0 0 0 0 0 0zm-2 3c-1 0-1-1 0-2 0 0 1 0 1 0 0 0-1 0-1 0 0 0-1 0-1 1-1 0-1 1-1 1 0 0 0-1 0-1 0-1 1-2 2-2 1 0 2 0 2 0 0 0 0 0-1 0 0 0 0-1 0-1 0 0 0 1 0 1 0 0-1-1-1-1-1 0-1 1-2 1 0 0 0 0 1 0 0-1 1-1 2-1 0 0 1 0 2 0 0 1 0 1-1 2 0 0-2 1-2 1 0 1 0 1 0 1z"/><path d="m414 484c0 1 0 3-1 4 0 0-1 1-1 1-1 1-1 0-1-1 0-1 1-1 2-2 0-1 1-2 1-2z"/><path d="m391 487c0 1 0 1 0 1 1 1 0 1-1 1 0-1 0-1 1-2z"/><path d="m415 486c0 0 0 1 0 1 0 0 0 0 1 0 0 0 0 0-1 1 1 0 1 0 1 1 0 0 0-1 0-1 0 0-3 1-2 0 0-1 0-1 0-1 1 0 0 0 1-1z"/><path d="m390 487c0 0 0 0 0 0-1 0-1-1 0-1 0 0 1 0 1 0 0 1-1 1-1 1z"/><path d="m409 486c0-1 1 0 1 0 0-1 1-2 2-2 0 0 0 1 0 1 0 0-1 0-1 0 0 1 0 1 0 1 1 0 1-1 2-1 0 1-1 1-1 1 0 0 0 1-1 1 0 0 0 0-1 0 0 0 0-1 0-1 0 0-1 0-1 0z"/><path d="m380 481c0-1 0-1 0 0 0 0 0 0 0 1-1 0-1 0-1 0 1 0 1-1 1-1zm-1 1c0 0 0 1 0 1 0 0 0 0 0-1zm0 5c0-1 0-1 0-2 0-1 0-1 0-2-1 0-1 0-1 1 0 0 0 1-1 1 0-2 1-4 2-5 0-1 2-1 2 0 0 0 1 0 1 0 1 0 1 1 1 2 0 1 0 2 0 3-1 0-1 1-1 1-1-1-1-3 0-4 0 0-1 0-1 0 0 0 0-1 0-1-1 0 1 2 0 3 0 0 0 0 0 1 0-1 0-1-1-1 0 1 0 3-1 3z"/><path d="m390 485c0 0-1 0-1 0 0-2 2-1 1 0z"/><path d="m384 478c0 0 0 0 0 1 0 0 0 0 1 0 0 0-1 0-1-1zm1 1h0c0 0 0 0 1 0 0 0-1 0-1 0zm-1 6c0 0 0 0 0 0 0-1 0-1 0-3 0 0 0-1 0-1-1-1-1-1-1-1-1-1 1-2 2-2 1 0 3 1 2 2 0 1 0 1 0 1 0-1 0-1-1-1 0 0 0 0 1 0 1 1 0 3-1 4 0 0 1-1 0-1 0-1-1-2 0-2-1 0-1 0-1 0v-1c-1-1-1-1-1-1 0 1 1 1 0 1 1 1 1 1 1 2 0 1-1 2-1 3z"/><path d="m395 482c-1 1-1 1-1 1 0 1 0 1 1 1 0 0 0-1 1-1 0-1 0-1 0-1 0 2 0 3-2 3 0-1-1-1-1-2 0-1 1-2 2-1z"/><path d="m391 484c-1 0-1-1-1-1 0-1 1-1 1 0 0 0 0 1 0 1z"/><path d="m392 482c-1 0-2 0-1-1 0 0 1 1 1 1z"/><path d="m379 478c0 0 0 0 0 0v1-1zm-2 4c0 0 0 0 0 0-1 0-1-2 0-2 0-1 1-1 1-1 0 0 0 1-1 0 0 1-1 1-2 2 0 0 0 1 0 1-1 0-1 0-1-1 1-1 1-3 3-2 0 0 0-1 0-1 1 0 2 0 2 0 0 0 0 0-1 0 0 0 0-1 0-1 0 0 0 1 0 1-1 0-1 0-1 0-1 0-1 0-2 1 0-2 2-3 4-2 1 0 1 0 1 1 0 1-1 1-2 2 0 0-1 1-1 1 0 0 0 1 0 1z"/><path d="m396 481c0 0 0 0 0 1 0 0-1 0-1 0 0-1 1-1 1-1z"/><path d="m392 481c0 0 0 0 0 0z"/><path d="m395 481c-1 0-1 0 0-1 0 0 0 1 0 1z"/><path d="m394 480c0 0 0 0 0 0v1c0 1-1 0 0-1z"/><path d="m384 472c0 2 0 4-1 6 0 0-1 2-2 1-1 0 0-2 0-3 1-1 2-3 3-4z"/><path d="m384 475c1 0 1 0 1 1l1-1c0 1 0 1 0 1s1 1 1 2c0 0-1-1-1-1 0 0-2 1-2 0-1 0 0-1 0-1 0 0 0-1 0-1z"/><path d="m377 475c0 0 1 0 2 0 0 0 0 0 0 1v-1c0-1 1-2 1-2 1 0 1 1 1 1-1 0-1 0-1 0 0 1 0 1 0 2v-1c1 0 1-1 2-1 0 0 0 0-1 1 0 0 0 1 0 1-1 1-1 1-2 1 0-1 0-1 0-1-1 0-1-1-1-1 0 0-1 1-1 0z"/></g></g><g font-family="&apos;Monotype Corsiva&apos;" stroke-linejoin="round" font-style="italic" stroke-linecap="round"><g fill="#201e1e" stroke="#201e1e" stroke-width="1.667" font-size="33.598"><text x="366" y="559">T2</text><text x="332" y="532">  T1</text></g><g font-size="16.619"><text x="343" y="603" fill="#fefefe" stroke="#fefefe" stroke-width="4.762">00.00.0000</text><text x="343" y="603" fill="#201e1e" stroke="#201e1e" stroke-width="1.19">00.00.0000</text></g></g></g></svg>