<svg xmlns="http://www.w3.org/2000/svg" width="744.09" height="1052.36" viewBox="0 0 21000 29700" shape-rendering="geometricPrecision" image-rendering="optimizeQuality" fill-rule="evenodd" clip-rule="evenodd"><defs><clipPath id="0"><path d="m15117 19700c932 441 2702 356 3239-460 536-812 419-3160 469-4291 128-2831 449-4978 533-7261 92-2535-1673-4252-3801-4683-2923-592-2768 3285-2398 5241 218 1077 593 2015 868 3068 507 1943 56 4959 232 6981 91 698 372 1154 858 1405"/></clipPath><clipPath id="1"><path d="m5915 19744c-931 441-2701 356-3239-459-535-813-418-3161-469-4292-127-2831-449-4978-532-7260-93-2536 1673-4253 3800-4684 2923-592 2768 3285 2398 5241-218 1077-593 2015-868 3068-506 1943-56 4959-232 6981-90 698-372 1154-858 1405"/></clipPath></defs><g fill="none" stroke="#373435" stroke-width="80"><path d="m9688 22661h1621"/><path d="m10498 21851v1621"/><circle cx="10498" cy="22661" r="460"/></g><text x="10046" y="21290" fill="#201e1e" font-family="&apos;Arial Black&apos;" stroke="#201e1e" font-weight="900" stroke-width="7.62" font-size="705.56">28</text><g fill="none" stroke="#322f30" stroke-width="80"><circle cx="10533" cy="1326" r="460"/><path d="m10533 515v1621"/><path d="m9723 1326h1621"/></g><rect x="9843" y="19706" width="1347" height="637" rx="318" fill="#fff" stroke="#fff" stroke-width="20"/><g fill="#201e1e" font-family="&apos;Arial&apos;" font-size="423.33"><text x="300" y="28462">DESC 1</text><text x="281" y="28926">DESC 2</text><text x="278" y="29422">DESC 3</text></g><g clip-path="url(#0)"><g><g fill="#201e1e" stroke="#201e1e" stroke-width="7.62"><path d="m18153 5975c171-13 80-63 157-80 0 103-17 271-34 370-55 339 23 222-138 259 0-49 0-98 0-147 0-48 8-75 7-131 0-100 8-176 8-271zm392-268c-6-32-45-25-37 2 6 20 36 23 37-2zm-610-21c42 41 61-41 28-40-13 0-39 25-32 35 1 2 2 4 4 5zm79 127c-10 26-40-2-20-15 10-7 23 1 20 15zm-31 29c13 14 13 9 29-6 4-4 21-16 21-23-1-14-13-32-29-34-30-3-44 26-29 53 3 4 5 6 8 10zm344-153c-1-16 26 0 14 7-5 2-12-1-14-7zm0 28c56 16 55-70-1-54-12 3-24 18-21 31 3 12 10 18 22 23zm-108 105c3-37-57-53-48-6 6 33 41 34 48 6zm-517-244c-17-17 14-28 18-9 3 9-8 15-18 9zm29-28c-30-30-69-5-52 34 19 42 76 2 52-34zm683 740c0-52 10-79 18-129 7-48 23-222 44-249 57-72 31-67 80-68 0 41-84 422-101 486-17 67-20 100-63 128 0-62 24-123 15-168-1 1-2 4-2 5l-27 150c-7 34-10 36-41 47-20 8-50 16-72 17 0-70 9-108 15-168l36-294c24-228-15-123 136-123-13 52-16 124-24 182-9 58-21 115-21 184h7zm-575 161c-22-2-55-21-68-36-30-37-104-482-134-542 54 4 18 26 98 7 15 66 73 353 74 410 17-12 13-9 7-42l-67-375c45 0 44 1 61 28 34 54 52 119 132 126l9 131 8-131c81-43 39-32 76-65 34-30 61-5 103-1 0 100 2 200 0 300 0 38-6 40-8 73-1 24 2 48-1 72-9 82 5 118-28 118-103 0-112-3-112-146h-8c0 54 8 87 8 131-36-3-84-19-113-36-30-16-12 0-23-21-8-15-29-134-29-162h-7c0 35 13 141 22 161zm-329-841c0-31 45-95 62-115 27-31 57-55 91-80 55-39 115-60 179-80 23-8 47-10 64-18-5 63-71 170 66 272 152 112 354 44 404-97 10-26 4-45 10-64 15-46 219 49 251 162 9 33 13 92 17 129 5 60 41 145-26 188-32 21-38 13-72 10 11-22 12-50 23-73 23-52 42-35 22-117l-4 19c0 1 4 18 4 25 0 45-48 74-90 51-36 155-144 58-201 58-63 0-23 61-105 74-90 15-66-36-165-15l8-29c-27 19-61 168-166 68-63-60-52-106-118-148l8 28c-51 0-87 41-136-20-44-54 0-141-66-184 14 57 22 25 30 124 5 52 30 57 30 117-112 0-90-68-83-126 9-77-37-91-37-159zm1016 212c8-2 2-16 1-16-13 2-13 18-1 16zm-306-505c1-38 14-47 33-70l52-58c1-1 3-3 4-4l102-90c53-38 209-159 257-136-3 34 11 12-21 30-9 5-23 10-36 16-61 30-194 122-243 164l-148 148zm-7-58c-69-45-45-66-150-66-86 0-100 63-153 92-37 20-197 37-331 166-168 160-54 255-54 290 0 36-46 145 58 178 60 19 39-10 68 109l82 352c14 67 25 68 81 95 94 46 179 71 309 71 117 0 246-16 318-83 26-24 45-153 52-191l57-259c25-108 12-41 84-78 83-44 51-157 44-210-15-113 19-149-94-260-47-47-97-52-163-73-61-20-40-55-156-82 50-74 149-155 226-202l210-117c29-19 28-37 12-69-51-11-57-13-113 21-83 50-169 94-240 160-65 62-79 56-147 156z"/><path d="m21862 4397c0 38 8 34 8 68 0 93-1 182-8 264l-7 271c-3 55-7 70-26 111-29 59-68 120-115 166-29 28-40 53-91 55v-294c0-55 7-85 8-128 2-43-1-87 0-129 0-46 8-73 8-128 82-17 54-41 138-29 29 4 41 0 62-24 77-89-60-149 23-203zm-955-392c-7 31-7 45 8 75 56 0 99-6 46-83l-54 8zm362 332c0 38 93 42 93-23 0-51-93-36-93 23zm-1062-204c31 133 135 41 77-7-43-35-68 1-77 7zm1309 294c0 69 56 46 92 23l-8-61h-61c-11 16-23 20-23 38zm0-369l7 52c124 29 88-82 39-82-24 0-46 7-46 30zm-717 211c0 20 4 21 8 37 67 32 85-4 85-60-6-4-33-22-39-22-21 0-54 23-54 45zm-231-196c0 18 16 33 24 45 30 0 39 3 57-11 34-27 13-49-4-79h-53c-3 3-24 44-24 45zm-631 128c70 18 43 166 193 166 67 0 109-117 191-7 18 25 40 49 70 60 16 6 23 5 43 3 29-3 18-4 42-18 95-58 96 61 226 118 107 47 132-28 198-28 39 0 105 105 177 105h54c27 0 84-67 100-67 109 0 98 105 223 105 58 0 41-55 131-8 45 23 31 21 31 174 0 113-16 196-16 309v234c-125 0-512-111-644-154l-923-272c-38-10-73-27-104-34l9-519c5-44-1-105-1-167zm1842-123c27 29 24 37 31 83 12 77 60 73 60 183 0 27-62 53-62 98 0 15 85 169-31 160-104-8-89 29-115 29-61 0-52-38-139-38-39 0-53 30-69 30-93 0-113-106-208-106-59 0-74 68-146 68-58 0-115-63-153-91-98-74-149 120-311-42-143-143-132-48-214-48-74 0-88-83-122-99-88-42-132 47-155 47-168 0-99-203-262-166v15c43 1 39-1 39 60-41 1-46 15-77 15-43 0-153-145 89-213 38-11 45-17 73-27 43-16 115-9 166-26 91-30 68-13 172-13 69 0 60-61 239-60 92 1 114-21 180-43 31-10 96-2 136-2 25-1 53-20 81-27 26-6 77-7 100 3 8 4 10 11 11 19 2 11 0 51 0 66 0 48 0 95 1 142 0 27-1 36-29 43l-10 3v15c52-6 34-10 82 20 73 46 70 19 145 13 42-3 50 4 84-28 8-7 34-30 22-42-13-13-17-14-18-35-2-27-1-62-1-90 0-31-2-137 19-157 22-19 67-14 94-13 49 2 53 28 90 55 63 47 111 43 150 126 21 46 27 40 58 73zm-508 88c-59 6-100 24-144-29-21-26-16-49 21-49 22-1 46 1 69 1 40 1 60 6 98-10 17-7 23-2 27 17 4 23 2 62-28 68-11 2-30 2-43 2zm8-236c-33 6-111 14-140-1-26-13-29-43-25-68 6-26 21-18 44-16 46 6 95 2 139-14 10-4 51-22 59-17 11 7-1 76-7 88-13 21-48 25-70 28zm-129-285c11-2 33-4 41 5 23 26 16-8 36-14 25-6 145-5 110 43-33 47-203 56-218 0-4-18 16-30 31-34zm-62-200c4-79 90-164 128-233 27-47 25-23 43 17 45 103 156 255-9 318-68 27-111 17-146-48-10-17-15-34-16-54zm31 179c-81 38-25 148-37 206-31 3-64-1-93 2-14 1-45 14-59 19l-14 4c-30 10-68 7-109 6-77 0-115 35-179 44-34 5-71 1-106 2-53 0-53 7-89 25-105 51-101 28-180 28-43 0-96 23-145 31-24 4-57 3-84 8-22 4-46 18-64 28-40 22-208 48-208 151 0 161 110 124 154 121 0 100 0 201 0 301 0 111-7 195-7 302 81 53 591 186 686 209 63 16 111 35 172 51 148 42 803 258 887 212 15-8 48-33 62-45 56-46 156-192 178-270 10-34 17-668 17-753 0-38-18-64-31-90-54-102 4-94-83-175-64-62-28-90-128-148-46-27-59-24-98-66-70-75-141-9-161-47-6-11-5-35-6-48-2-24-5-47-8-71-2-26-4-26-29-37-43-19-63-16-106-22-6-1-10-2-14-6 8-16 45-26 63-36 137-80 32-255-15-356-14-29-10-41-15-71-7-33-43-32-56-2-10 22-10 40-24 66-52 95-154 156-129 284 24 104 117 82 114 112-1 8-4 16-13 20-9 3-18 1-30 6l-6 2-7 3z"/><path d="m11013 7969c-59-252-156-570-191-820l-55-311c104-40 95 27 119 124l98 448c24 99 43 206 63 303 21 101 43 194 66 291-88 58-88 19-100-35zm-782-1674c-48-97 130-422 410-454 70-8 111-10 188 2 151 24 357 206 357 300 0 98-319 268-537 268-223 0-264-51-400-108-38-16-29 6-18-8zm-37-9c0 125-7 177 61 297 95 166 291 273 485 273l120 630c24 100 48 197 75 301l53 224c10 45 12 33 34 64 17-1 60-8 77-14 32-9 11 2 30-15 41-37 9-94-11-180l-63-294c-12-57-22-100-34-155-20-97-126-537-126-597 183-42 363-266 363-481 0-186-90-348-225-438l-87-49c-229-100-417-36-584 90-88 67-168 222-168 344z"/><path d="m14201 8115c61-112 187-175 308-209 155-43 344 26 454 137 121 123 142 209 158 375 8 74-23 141-60 204-50 83-113 164-200 212-130 73-263 78-404 32-161-52-299-177-345-339-41-147 18-285 89-412zm445 370c-72-2-106-35-85-107 50-128 176-64 183 8v6c0 44-40 86-85 92l-13 1zm-81-52c1 0 1 0 0 0zm102 22c0 1 1 0 0 0zm56-33c0 0 0 0 0 0zm-296-11c7 177 257 256 371 116 49-65 71-159 17-228-58-71-157-129-249-83-53 27-114 86-132 142-6 18-7 34-7 53zm905-110c19 48-45 63-34 68 19 10 75 3 108 29 41 33 30 137 6 177-41 71-143 2-173 16-21 11 82 36 44 86-32 34-87 6-121-10-81-37-68-60-37-133 23-54 42-76 32-136-7-36-17-86 24-104 24-10 87-27 113-23 20 3 29 12 38 30zm-1524-68c0-54-6-67 14-108 67-128 150-14 230 1 38 8 12-22-4-32-11-8-52-27-57-32-19-19-11-37 3-57 30-45 81 8 106 31 110 104 34 121-8 232-26 69-22 85-25 155-1 25-4 24-32 36-34 14-93 32-119-5-31-42 107-34-2-62-78-20-84-29-84-104 54 0 64 3 116 14 25 6 35 7 5-9-34-19-103-48-142-60h-1zm214-288c-85 0-31 44-111 68-17 5-33 5-54 14-96 38-94 126-94 206 0 51 5-3 13 30 10 42-12 26 3 86 17 63 5 10 46 67 58 81 55 108 163 97 10-1 59-8 67-1 0 1 31 84 36 95 67 146 207 270 365 315 180 51 365-2 511-112 47-34 52-47 85-91 26-33 45-31 84-18 15 6 30 13 45 19 157 59 138-50 214-79 83-31 134-201 56-267-32-26-52-22-65-62-34-102-68-93-163-68-13 3-66 16-75 4-18-25-35-84-58-119-45-70-135-158-207-204-188-122-391-95-572 28-31 21-50 42-78 64-94 72-99-63-204-71l-7-1z"/><path d="m14765 4313c49-5 100 20 133 53 14 14 34 47 41 64 32 81 10 164-47 229-37 41-42 24-56-18-8-25-15-50-23-75-16-49-34-102-52-151-6-16-37-84-29-96l3-3 3-2c5-1 21-1 27-1zm-197-316c3-3 5-4 8-7 17-2 17 13 22 26 17 49 32 102 49 152 4 12 7 23 11 35 0 5-8 7-12 10-8 4-6 4-16 7-38 13-89 55-114 87-26 33-44 69-49 110-9 79 13 136 82 179 21 13 63 29 88 29 5 0 10-1 3-4-13-6-44-32-53-41-40-45-55-107-28-161 24-44 85-85 135-92 11-2 62 161 68 180 19 56 39 111 58 166 10 29 15 30-9 47-51 36-156 43-217 34-188-30-329-189-282-380 34-137 130-253 229-351 9-9 18-17 27-26zm-24-256c-27-82-21-252-1-336 12-51 54-187 132-162 59 24 81 107 80 163-2 57-21 97-43 148-24 53-107 168-152 206 0 0-7 6-12-8-2-3-3-8-4-11zm-25 60c-54 53-114 122-160 182-169 222-272 521 5 710 101 68 228 97 350 85 40-4 64-12 101-29 9-4 17-7 27-7 13 17 60 180 65 210 6 29 7 55 3 84-17 90-109 160-200 174-33 5-66 5-99-2h-5c-6-2-9-4-15-7 40-37 70-21 110-81 35-60 19-129-32-175-78-72-202-24-221 79-21 146 102 236 243 218 161-25 283-145 241-312-14-52-31-98-47-149-4-14-14-44-11-58 3-4 36-26 43-32 37-30 87-85 106-128 19-48 25-64 23-119-3-99-64-180-154-224-47-22-114-33-165-24-14 3-35 8-44-5-15-22-36-104-47-135-7-23-27-72-23-94l1-4 3-4c15-16 28-28 42-45 3-4 5-5 10-10 40-52 73-98 101-157 106-234 40-435-119-627-8-9-16-18-25-27-8-8-16 2-23 8l-6 7c-17 16-35 48-48 70-72 129-89 303-65 447 9 50 21 98 38 147 6 18 11 16-3 34z"/><path d="m18509 8797c50 0 115-60 83-127-32 3-33 31-64 2-9-8-15-16-20-27l-3-7c-9-21 4-19-22-19-12 0-41 26-62 31 0 60 10 147 88 147zm-42-330c-12 0-10 17-13 28-4 14-6 14-10 31-16 74-37 113 18 79 76-46 26-53 78-82 78-44 29 8 112-38 32-17 23-4 44-33l-110 20-119-5zm-78-168c37-18 41-20 53-66 10-39-10-46-40-63-15-8-20-13-31-26-43-54-31-71-54-114-26 2-29 9-49 18-5 3-11 5-15 7-29 12 18-10-7 3-16 8-17 4-17 18 0 42 94 153 121 186l39 37zm-275-203c-49 0-71 3-82 26l-41 62c-50 49-174 35-229-12l-5-5c-17-15-33-26-48-45-13-18-23-48-44-58l-80-24-3 58c-8 77-17 88-54 156 56 29 179 80 243 92 31 6 98 26 140 31 13 1 21 4 34 7 49 9 195 10 247-4 14-4 28-6 45-12 14-5 9-3 23-7 14-4 7 1 20-6-20-42-7-18-48-59l-46-61c-35-52-48-105-72-139zm402 144c-16 15-62 105-12 105 111 0 197-41 255-95 45-41 85-97 104-157 2-6 4-13 7-19 6-15 21-32 5-41-16-9-107 37-125 46-80 38-87 69-140 101-22 12-24 4-69 40-8 6-18 14-25 20zm-114-268c-13 9-20 12-21 28-1 18 22 64 31 74 34 37 51 29 71 27 0-30 12-51 21-75 8-19 15-49 15-77 0-16-5-21-5-46-35 0-54 28-112 69zm257-109c0-27-5-50-21-61-23 47-61 209-74 242-29 79 45 0 57-21 32-53 38-100 38-160zm-1702 40c-41 0-70-23-96-42-6-5-7-5-12-9l-11-10c-15-16-23-32-33-54-31-64-35-36-138-37l-287 34c-32 8-122 18-149 27-50 17-13 95-99 96 11 14 20 13 45 9l147-14c224 1 366-22 593 30 17 3 25 7 40 11l113 42c26 12 45 19 70 33 40 21 43 31 71 32 0-110 61-164-2-196l-36-16c-18-9-48-27-70-27-14 0-53 91-146 91zm-1266-15c-4-11-2-4-8-12-22-28-20-29-44-29-6 13-10 22-10 41 32 7 30 7 62 0zm2683 66c14 3 11 7 33-8 15-10 16-13 28-23 12-10 53-36 53-50 0-17-19-26-36-26-61 0-67 62-78 107zm-685-147c-35-23-80-18-134-37l-127-38c-29-10-44-24-75-31-6 7-6 13-9 22l-18 64c-37 138-4 115 55 104 29-5 65 2 91 11 39 15 94 66 98 113 35 3 57 25 98 25l21-233zm-1752-14c-14 3-17 6-37 10-117 25-130 13-147 85 60 0 95-8 142-14 47-6 89-14 123-32 0-29-5-35-5-66-20 1-11 1-22 5l-54 12zm1892 14c-24 0-35 3-52-5-13 19-15 6-15 35 26 0 24-2 41-10 26-12 21-7 26-20zm277 237c-10-68-19-153 0-220 5-17 14-23 14-32 0-24-20-9-41-4l-172 19c13 17 38 24 57 35 28 15 44 30 56 57 5 10 3 5 7 13 5 9 10 18 13 28 25 64 3 101 12 141 47-11 61 9 54-37zm-2503-252c12 18 26 30 47 40 35-64 2-66-47-40zm237-63c-9 3-16 5-24 7-68 17-75 11-89 35 22 5 28 13 47 41 17-4 28-7 47-10 21-4 26-7 46-11 65-13 78-12 78-35 0-4-12-26-14-31-17-33-23-19-91 4zm2757-19c-11-35-90-75-126-80-86-11-182 63-223 131-26 44-43 94-49 145-1 6-1 11-2 18 0 29 5 82 14 103 1 4 1 14 19 16l87-43c0-34-3-65 5-92 3-14 7-21 12-34 4-13 6-22 13-33 6-9 15-20 22-29 33-46 112-65 154-24 16 14 14 24 32 29 23-15 16-24 25-52 4-14 17-42 17-55zm280-71c-32 3-56 21-80 33-7 3-8 3-15 6-15 8-12 9-24 17 4 49 51 99 8 267-14 55-36 86-39 99 31-1 50-18 74-29 27-10 39-14 66-21 29-7 29-27 34-55 4-28 7-92 7-120-1-68-15-132-31-197zm-2859 41c0-17 2-16-23-9-34 11-24 11-44 24 6 12 8 23 14 37 5 13 10 19 17 29 43-22 36-15 36-81zm-402-48c-21 7-28 12-34 33-8 31-22 80-15 106 29 0 43-6 67-10 27-4 32-8 40-32 7-20 8-41 11-60 7-35 26-70-69-37zm693 12c-7-25-19-16-36-36-32-39 21-70-94-19-141 62-135 42-135 142 32 0 63-17 88-26l34-12c2-1 3-1 4-2 1 0 3 0 4-1l135-46zm-291-76c0-22-4-11-9-11 0 0-9 2-9 2-1 1-6 3-7 4-12 7-20 14-27 25-13 21-21 52-15 77 82-7 67-48 67-97zm1141 46c-20-12-34-13-62-15 2 20 10 19 17 44 19 63 8 36 7 67-2 49-8 44-8 71 0 15 109 62 130 66 9-22 36-159 29-177-9-25-86-42-113-56zm1708-5c-3-44-54-141-78-182-8-13-11-21-16-37-28 3-22 16-31 41-21 59-65 153-34 186l5 5c1 1 2 2 3 3 0 0 6 6 7 8l30 42c30-20 114-58 114-66zm-2746 121c-73 26-82 23-82 56 34-8 3-17 51-26 21-4 38-4 59 5 67 25 11 37 104 23 16-2 18-1 31-5 50-14 307-53 346-53l130-5c25-4 21-19 13-43l-9-88c-1-31-7-16-71-16v21c0 4 59 81 15 81-27 0-52-87-78-87-80 0-28 7-73 15-11 2-11 1-22 4-28 7-34 5-50 17l-12 9c-30 16-63 16-102 16-44 0-48 9-76 18l-174 58zm723-121c10-25 19-20 25-41-11-13-48 3-57 5v71c26-6 23-13 32-35zm-1183-19c28-7 26-1 41-22-14-13-94-11-104 31 13 6-5 5 15 5 19 0 34-11 48-14zm1958-68c-80-5-121-21-195-42-31-8-33 8-40 37-8 29-31 122-23 146 8 23 60 39 81 48 9 3 16 6 25 8l117 38c9 3 36 10 49 11 12 0 26-1 38 5 29 12 33-27 37-46 9-44 18-86 27-129 16-74 0-76-73-76-15 0-29 0-43 0zm-1004 46c-11-20-22-41-31-62-38-92-3-52-125-24l7 8c24 23 55 10 55 93 36 8 47 2 75-8 10-4 9-2 19-7zm135-96c-3-68 16-83-71-59-46 12-67 6-28 89l14 27c2 7 4 11 6 15 7 16 0-8 6 14 22 0 78-4 78-25l-5-61zm494-52l-82-27c-19-5-29-3-49-8-77-23-168-13-244-10-107 5-66 48-62 102 2 30-1 39 5 66 24 0 48 0 73 0 44 0 80-15 131 3 65 24 40 5 108 37 17 8 40 10 58 14 30 8 48 25 69 30 49 13 51-64 57-94 5-24 11-43 13-68 2-15 6-13-14-22-19-9-43-17-63-23zm1362 25c-12 10-42 31-45 46-3 18 0 10 21 18 54 20 62 59 81-9l30-102c6-20 7-7 8-33-54 35-55 44-95 80zm-1201-32c-40 42 29 49 55 54 98 23 143 34 246 35 15 0 30 0 45 0 5-35 44-161 12-183-20-14-70 2-92 8-85 17-199 29-266 86zm-661-43c-2-27-9-44-10-76-1-25-6-55-9-77-7-43 4-167-68-49-36 60-64 178-32 238 25-3 35-12 63-15 34-5 34-6 56-21zm1884-295c-25-2-17-6-31 11l-146 151c-72 74-90 80-168 141-1 1-4 4-5 4l-109 62c-54 16-54 19-106 39l-76 21c-19 5-65 7-89 10-13 1-75 6-83 14-8 8-27 151-31 172-3 12-20 75-9 82 10 8 92 4 106 4 79 0 154-2 227-26 30-11 23-15 41-44 56-91 82-146 182-201 58-32 105-34 169-27 38 4 49-16 74-39 28-26 57-53 85-79 94-70 50-47 2-165-14-35-33-85-33-130zm-881 49c-102 17-218 18-298 92-60 56 31 61 72 55 65-11 123-37 188-51 24-5 82-8 91-35 3-11 10-61-4-66-10-3-38 3-49 5zm1026-3c30-43 8-12 24-63 11-40 55-160 49-186l-21 10c-21 17-46 33-65 50-10 9-19 16-29 25-16 13-9 41-6 58 6 36 18 83 48 106zm106-333l71-221c-16-9-13-9-27-5-114 39-177 201-196 310-4 20-5 33-3 53 19 4 25-8 39-20 32-29 41-31 74-51 26-16 33-38 42-66zm66-312c39-14 60 52 53 82-16 58-60 178-64 228 27-1 78-27 106-39 29-11 78-33 107-27-5 17-18 17-34 22-60 21-125 41-178 75-31 20-62 178-77 224l-37 122c-9 34 0 53 25 70 15 4 236-117 301-87-12 16-12 13-36 16-26 2-21 4-42 10-27 8-49 13-77 21-21 7-125 44-130 65 1 13 95 173 112 207 16 35 27 70 48 103 48-1 69-17 120-5v10c-40 9-75 3-109 20 0 22 6 28 11 49 29 114 34 145 34 267 0 13-2 59 14 65 25 8 29-13 50 11-14 18-17 8-36 8-39 0-34 19-50 90-18 81-59 167-118 225-1 1-2 2-3 2l-71 63c-1 1-2 2-3 2-12 9-15 10-29 18-12 8-20 11-17 18l70-12c95-17 164-11 257-3-3 36-27 15-53 11-22-3-54-1-77-1-61 0-117 9-173 24-12 3-19 4-29 7-18 4-39 13-57 21-31 13-79 29-99 55 12 23 19 12 34 32 7 9 17 30 22 40 21 40 16 112-6 159-5 12-5 11-11 20-17 31-45 59-71 83-29 26-58 32-98 32-91-1-149-59-175-139-6-17-7-32-12-49-23 5-19 10-46 15-52 7-95 19-151 20-40 2-166-13-205-27l-158-49c-32-9-67-27-99-41-27-11-52-21-77-35-25-15-51-26-76-43-39-25-78-43-113-72l-74-55c-7-5-8-6-15-11-66-49-129-103-200-144l-92-52-192-72c-144-52-415-64-567-64-116 0-111 1-223 10-223 19-185-4-327-10l-240-44c-29-8-7-12-45-12 2-26 11-19 32-12l94 21c65 13 190 36 253 37 28 0 30 4 57 5l166-5c70-4 155-11 218-6 41 4 45-5 109 0 37 3 74-2 111 3 37 6 71 5 109 11l314 63c10 4 11 5 22 8 45 13 78 31 120 51 41 19 72 43 111 64 1 0 10 5 10 5 72 45 212 156 295 215 0 1 2 1 3 2l66 42c68 46 122 59 174 89l235 80c64 14 127 29 204 28 116-2 125-19 197-36 0-109 42-185 42-249-29-7-56-53-87-49-7 1-41 15-54 18-94 21-212 28-309 10-19-4-35-7-62-11-22-4-36-9-54-13-22-5-35-8-59-13-38-9-68-22-104-35l-138-64c-7 6 0 2-12 8l-45 17c-56 14-111-9-157-39-23-14-42-38-58-59-22-29-26-67-38-101-10-33-125-80-161-96-35-15-72-23-110-35l-77-20c-21-6-47-5-68-10-98-20-289-11-400-11-32 0-40 6-72 6-49 0-136 7-183 18l-105 15c-48 9-105 7-149 12-65 6-242 2-303-7-41-6-109-2-142-18 5-15-8-6 12-14l418 19c95 0 163-20 260-20-6-16-15-18-30-22-95-24-9-49-107-31l-129 26c-17 3-33 0-50 2-45 5-199 17-239 9-19-4-22-5-47-5-38 0-58-5-99-5v-15h109c-2-26-6-31-35-31-21 0-43 1-63 1 8-29 39-21 88-21 7-11 12-15 15-30-43-10-70 10-114 0v-15c45 0 79-8 114-16 5-19 12-35 15-51 4-23 6-34 10-52 16-73 9-122 54-135 105-31 120-40 109 15l-26 164c-3 29 4 32 25 25 11-4 16-7 28-10 5-1 8-1 13-2 11-3 8-3 12-4l49-13c113-37 77-13 86-83 12-90 105-110 108-148 2-24-8-34 11-40 8-2 35 7 41 9 0 61-11 113-16 163 24 5 14 4 35-6l82-38c71-34 86-21 92-67l19-215c7-87-6-143 37-147 12 18 11 12 11 41l-6 142c-4 45-19 136-10 173 20 0 47-11 62-13l177-58c0-29-5-51-9-79-10-70 24-138 48-202 9-24 16-39 30-57 54-72 81-58 60-175-13-74 4-53 63-51 56 1 23 18 36 172l10 163c0 61 5 104 5 163 49 11 156-33 361 13l149 47c36 10 34-25 42-79l38-161c7-30 10-50 14-80 4-30 20-28 51-34 96-21 188-42 283-68 27-7 132-33 153-19 24 16-4 108-9 135-12 66-21 137-32 204-3 18-25 160-25 166 2 16 2 14 23 15 72 1 241-40 307-72l4-2 88-46c56-33 108-74 156-117l168-170c84-93 43-32 54-132 4-40 3-58 13-99 26-107 61-175 127-263 18-24 57-59 82-75 18-11 35-19 55-27 23-9 26-13 47-20z"/><path d="m16346 16837c-209-17-98-77-191-98 0 125 20 329 40 450 68 412-27 271 169 315 0-59 0-119 0-178 0-59-9-92-9-160 0-122-9-215-9-329zm-477-328c6-39 54-30 44 3-7 24-43 28-44-3zm742-25c-51 50-75-50-34-49 15 0 47 31 39 43-1 3-3 5-5 6zm-97 155c13 31 49-3 25-18-12-9-28 0-25 18zm39 35c-16 17-16 11-36-7-5-5-26-20-25-28 1-18 15-40 35-42 37-4 54 32 35 64-3 5-6 9-9 13zm-420-186c2-19-30 0-16 8 6 3 14-1 16-8zm1 34c-68 19-67-85 1-66 15 4 30 22 26 38-4 15-13 22-27 28zm131 128c-3-45 70-64 59-8-8 41-50 42-59 8zm630-297c21-21-18-34-23-12-3 12 10 19 23 12zm-36-34c36-38 85-6 64 41-23 51-93 3-64-41zm-832 900c0-63-12-96-21-157-8-58-28-270-54-303-69-87-38-81-97-83 0 50 103 515 123 592 21 81 24 122 77 156 0-75-30-150-18-205 1 2 2 5 2 7l32 182c9 41 13 44 51 58 24 9 61 18 87 21 0-86-11-132-18-206l-44-357c-29-278 19-150-165-150 15 63 19 151 29 221 10 72 26 141 26 224h-10zm701 196c26-2 67-25 82-43 37-45 127-587 163-660-65 5-20 31-118 9-19 80-89 429-91 498-20-14-16-10-8-51l81-456c-55 0-53 1-74 34-41 66-63 145-161 153l-11 160-9-160c-99-52-48-38-93-78-41-37-73-6-125-2 0 121-2 244 0 365 0 46 7 49 9 89 2 29-2 58 1 88 12 100-5 143 35 143 126 0 137-4 137-178h9c0 66-9 106-9 161 43-4 101-24 137-44 36-20 15-1 28-26 9-19 35-163 35-198h9c0 43-16 173-27 196zm400-1024c0-37-54-115-75-140-32-37-69-67-111-96-67-48-139-74-217-99-29-9-58-11-79-21 6 77 87 207-81 331-185 137-430 54-491-118-12-32-5-55-12-77-18-56-267 58-305 196-12 40-17 112-21 158-6 72-51 176 31 228 39 26 47 16 88 12-13-26-15-61-28-89-28-63-51-42-27-142l5 23c0 1-5 22-5 30 0 55 58 91 109 63 45 188 176 71 246 71 76 0 27 73 127 90 110 18 80-45 201-19l-10-36c33 24 74 206 203 83 76-72 63-129 144-180l-10 35c62 0 106 50 165-25 53-65 0-171 80-224-16 70-26 30-37 151-5 64-36 70-36 143 137 0 110-83 102-153-12-94 44-112 44-195zm-1237 259c-10-2-2-19-1-19 16 2 16 22 1 19zm373-615c-1-46-17-57-40-85l-64-71c-1-2-3-3-4-5l-125-110c-63-46-254-192-313-165 5 42-12 14 27 37 10 5 28 12 43 19 74 36 236 149 296 200l180 180zm9-71c84-55 54-80 182-80 105 0 122 76 186 111 46 25 240 46 403 203 204 195 66 311 66 354 0 43 57 176-71 216-73 23-47-12-82 133l-100 428c-17 82-30 83-99 116-114 56-217 86-376 86-142 0-299-19-387-101-31-29-54-186-64-232l-69-315c-30-132-14-51-102-96-101-53-62-190-53-255 18-137-24-182 113-317 59-57 119-63 200-89 74-24 48-67 189-100-61-89-181-188-275-246l-255-143c-36-23-34-44-15-82 62-15 69-17 138 25 101 60 205 115 291 195 80 75 97 68 180 189z"/><path d="m10595 13828c0 46-9 42-9 82 0 113 0 221 8 321l10 329c4 67 8 85 31 134 35 73 83 147 140 203 35 34 48 64 110 66v-357c0-66-8-103-10-155-1-52 2-105 1-157-1-55-10-89-10-155-99-21-65-50-167-36-36 5-51 0-76-28-94-108 73-181-28-247zm1159-476c9 38 9 55-9 91-68 0-120-7-56-100l65 9zm-439 403c0 46-112 52-112-28 0-61 112-43 112 28zm1290-248c-38 162-165 50-93-9 51-42 82 2 93 9zm-1589 357c0 84-69 56-112 28l9-73h75c13 19 28 23 28 45zm0-448l-10 64c-150 35-106-101-46-101 28 0 56 9 56 37zm869 256c0 25-4 25-9 46-81 38-103-5-103-73 7-5 40-28 47-28 26 0 65 29 65 55zm281-238c0 22-18 41-28 55-37 0-48 4-70-14-41-33-15-59 4-96h66c2 5 28 55 28 55zm767 156c-85 22-52 201-234 201-82 0-133-142-232-8-22 30-49 60-86 73-19 7-27 6-51 3-36-3-23-4-52-22-116-70-117 75-274 144-130 57-161-34-240-34-48 0-128 128-215 128h-66c-33 0-102-82-121-82-133 0-120 128-271 128-71 0-50-67-160-10-55 28-37 25-37 211 0 137 19 238 19 375v284c152 0 621-135 782-186l1121-330c46-13 88-34 126-42l-11-631c-6-52 2-127 2-202zm-2238-149c-32 34-29 44-37 101-14 93-72 87-72 222 0 32 74 64 74 119 0 18-102 205 39 194 125-10 108 35 139 35 73 0 63-46 168-46 48 0 65 36 85 36 113 0 136-128 252-128 71 0 90 83 178 83 70 0 139-77 185-112 119-90 181 146 378-51 173-173 161-57 260-57 89 0 107-101 148-120 107-51 160 56 188 56 204 0 121-246 318-201v18c-52 1-47-1-47 73 50 1 55 18 94 18 51 0 185-176-109-259-46-13-55-21-88-33-53-19-140-11-202-31-110-37-82-15-209-15-84 0-73-75-290-73-112 0-138-27-218-53-38-12-118-2-165-2-30-1-65-25-99-33-31-7-94-8-121 4-10 4-13 12-14 22-3 14 0 63 0 81 0 58 0 115-1 172 0 33 1 44 35 52l13 4v18c-64-7-42-12-100 25-89 55-85 23-176 15-51-4-61 6-103-33-10-9-41-37-26-52 16-15 20-17 22-43 3-32 1-74 1-108 0-38 2-167-23-191-27-23-81-17-115-16-59 2-64 34-108 67-77 57-136 52-182 153-26 56-33 49-72 89zm618 107c71 6 122 28 175-36 26-31 20-59-26-60-26 0-56 2-83 2-49 1-74 7-120-12-21-9-28-2-32 20-6 29-2 75 33 83 14 2 37 2 53 3zm-10-287c40 7 135 17 170-1 32-16 35-52 30-83-7-31-26-22-53-19-56 7-115 2-168-17-13-5-63-27-73-21-13 8 2 92 9 106 15 26 58 31 85 35zm157-346c-13-2-40-6-50 5-28 32-19-8-44-16-30-7-175-6-134 52 40 57 248 68 266 0 4-22-20-37-38-41zm74-243c-3-96-108-199-155-283-32-57-30-28-51 21-55 124-190 309 11 386 82 32 134 20 177-59 11-21 18-41 18-65zm-37 217c98 46 30 180 45 251 38 3 78-2 113 1 17 2 55 18 72 24l17 5c36 12 82 8 132 8 93-1 140 42 217 53 42 6 87 1 130 1 64 1 63 10 108 31 127 62 122 34 218 34 52 0 116 28 176 38 30 5 70 4 102 10 27 5 56 22 78 34 49 27 252 58 252 183 0 196-133 151-187 147 0 122 0 244 0 366 0 134 9 236 9 366-99 65-718 226-834 254-76 19-134 42-207 63-181 50-976 312-1078 257-18-10-58-41-75-55-69-56-190-233-217-329-11-40-20-811-20-913 0-47 21-79 38-110 65-124-5-113 100-213 77-74 34-109 156-179 56-33 71-30 118-80 86-92 172-12 196-58 7-13 6-42 7-57 3-29 7-58 9-87 3-31 6-31 37-45 52-23 76-19 128-27 7-1 12-2 17-7-10-19-54-31-76-44-167-97-40-310 18-432 16-35 12-49 18-85 8-41 52-40 68-4 12 27 12 49 29 80 64 116 188 190 157 345-29 127-142 101-139 136 1 11 6 20 16 25 11 3 21 1 37 7l7 3 8 3z"/><path d="m21162 16712c-84-244-215-550-275-796l-87-304c99-50 96 18 130 112l145 435c34 96 65 201 94 295 32 99 63 189 96 284-81 66-85 27-103-26zm-953-1587c-57-91 86-432 360-492 69-15 110-22 188-17 153 9 376 169 386 263 11 97-288 298-506 320-222 22-268-24-409-67-39-13-28 9-19-7zm-37-5c13 125 11 177 91 289 112 156 318 243 511 223l186 615c34 98 68 191 105 292l76 218c15 44 16 31 41 60 17-3 58-14 75-21 31-13 12 0 28-18 37-42-1-95-29-179l-94-286c-17-55-32-97-49-150-31-95-182-522-189-582 179-59 335-301 312-514-19-186-126-337-270-413l-91-40c-239-77-419 5-572 148-81 74-144 237-131 358z"/><path d="m14555 16646c90-82 222-101 340-95 154 7 301 125 365 257 70 146 62 230 25 383-16 69-64 120-117 165-71 60-153 113-245 131-139 26-260-9-372-92-128-94-212-248-203-407 8-144 104-249 207-342zm284 464c-64-24-84-63-43-122 85-99 177-5 161 62l-1 6c-14 39-63 65-105 57l-12-3zm-56-71c0 1 0 0 0 0zm84 50c-1 1 0 1 0 0zm61-12c0 0 0 0 0 0zm-262-98c-49 160 151 305 296 214 64-44 113-121 86-199-30-81-101-163-198-149-55 8-128 43-162 88-11 15-16 28-22 46zm844 170c2 49-59 43-52 51 15 15 67 25 88 58 27 42-15 131-49 161-59 50-129-42-160-37-23 3 62 56 12 90-38 20-79-21-105-45-61-58-42-74 9-131 37-42 61-55 70-112 6-34 12-82 54-86 25-2 86 1 108 13 18 9 23 19 25 38zm-1344-515c17-48 16-61 46-92 100-95 139 32 206 70 32 17 18-16 7-31-8-9-39-39-42-44-11-24 2-37 20-51 42-31 71 31 86 59 66 126-6 119-79 206-45 54-46 69-71 131-8 22-11 21-39 23-35 2-94 1-106-40-14-47 107 1 18-56-64-41-66-51-43-118 49 16 57 21 99 47 21 13 30 16 8-7-25-27-78-73-109-96l-1-1zm282-193c-77-25-42 30-121 27-16 0-31-5-53-3-97 5-123 84-148 156-16 46 5-1 2 31-4 41-18 20-23 78-5 62 1 11 20 74 27 90 16 113 116 135 9 2 55 10 60 19 0 1 2 85 3 96 14 151 101 304 228 391 146 99 328 107 493 52 53-17 61-27 105-56 33-22 50-15 80 8 12 10 23 21 35 31 122 99 139-4 216-7 84-3 182-141 133-223-20-33-39-35-39-75 1-102-32-103-125-109-12-1-64-5-68-19-9-27-6-86-15-123-18-77-72-183-122-245-130-165-321-201-521-145-35 9-58 23-89 34-108 37-70-86-161-125l-6-2z"/><path d="m14964 14443c-66-6-134 27-179 72-19 19-46 63-55 86-43 110-14 221 63 309 50 57 56 33 75-24 12-34 20-67 31-101 22-66 46-138 71-204 8-21 50-113 38-130l-3-4-5-2c-7-1-28-2-36-2zm267-426c-4-4-7-6-12-10-22-4-23 17-29 35-24 67-44 138-66 205-5 16-10 31-15 47 0 7 11 10 16 13 11 7 8 6 22 10 52 18 120 75 154 118 35 45 59 93 66 149 12 106-17 183-111 242-28 18-85 38-118 39-7 0-15-2-5-6 17-7 60-43 72-56 54-59 74-143 37-217-32-59-114-114-181-124-15-2-84 218-93 244-26 75-52 149-78 224-14 39-20 41 12 64 69 48 211 57 293 45 255-41 444-256 381-514-45-185-176-341-309-474-12-11-24-23-36-34zm32-347c36-110 29-340 2-454-17-69-73-252-179-218-79 33-109 144-108 220 2 76 28 131 58 200 32 71 145 227 206 278 0 0 8 8 16-11 2-5 4-10 5-15zm34 81c73 72 153 165 216 247 228 300 367 703-7 958-137 92-308 131-473 115-54-5-86-16-136-38-12-6-23-10-37-11-17 24-80 244-88 285-7 39-10 73-3 113 23 122 147 216 269 235 45 7 90 6 134-2l7-1c9-2 13-4 21-9-55-50-96-29-149-109-48-81-26-175 43-238 105-96 273-31 299 107 28 197-138 319-329 295-218-33-382-196-325-421 19-71 41-133 63-202 6-19 19-59 16-78-5-6-49-36-59-44-50-40-118-114-143-172-26-65-34-87-32-161 4-134 87-243 209-302 63-31 154-46 223-33 18 4 47 11 60-6 20-30 48-141 62-183 11-31 38-98 32-128l-2-5-4-4c-20-22-37-39-57-62-4-5-7-6-13-14-54-69-99-131-136-211-144-317-55-588 161-847 10-13 21-25 33-37 11-11 21 2 31 11l8 9c23 23 48 65 65 95 98 174 120 409 87 603-11 69-27 134-50 200-8 24-15 21 4 45z"/><path d="m17857 19737c51 0 116-61 84-128-32 3-33 31-65 2-9-8-15-17-20-27l-3-7c-9-22 4-19-22-19-12 0-41 26-63 31 0 60 11 148 89 148zm-42-333c-12 0-10 17-13 28-5 15-6 14-10 32-17 74-38 113 18 79 76-46 26-53 78-82 80-45 29 7 113-39 32-17 24-3 44-33l-110 20-120-5zm-79-169c37-19 41-21 53-66 11-40-10-47-40-64-15-9-20-13-31-26-44-55-32-73-55-115-26 2-29 8-49 18-5 2-11 4-15 6-29 13 18-10-7 3-16 9-18 4-18 19 0 42 95 154 123 187l39 38zm-277-205c-50 0-72 3-83 26l-42 62c-50 50-175 36-230-11l-6-5c-17-16-33-27-47-46-14-18-24-49-46-58l-80-24-3 57c-8 78-17 90-54 158 56 29 180 81 245 93 31 6 99 26 141 31 13 1 21 5 34 7 49 9 197 11 249-3 15-4 29-6 45-12 15-5 10-4 24-8 14-4 7 1 21-6-21-42-8-18-49-60l-47-61c-35-52-48-106-72-140zm405 146c-16 15-62 105-12 105 112 0 199-42 257-96 45-41 86-98 106-158 1-6 3-14 6-20 6-15 21-32 5-41-16-8-108 38-126 46-80 39-87 70-141 102-22 13-24 5-69 41-9 6-18 14-26 21zm-114-271c-14 9-21 12-22 28-1 18 23 65 32 75 33 37 51 29 71 27 0-30 12-51 22-76 7-19 14-49 14-77 0-16-5-22-5-47-35 0-55 28-112 70zm259-111c0-27-5-49-21-61-24 48-63 211-75 245-30 79 45-1 57-22 33-54 39-101 39-162zm-1717 41c-41 0-71-23-97-43-6-4-8-5-12-8l-11-10c-15-16-23-33-34-55-31-65-35-37-139-37l-290 34c-32 8-122 18-150 27-50 17-13 96-99 98 10 14 19 12 45 9l148-15c226 1 369-22 598 30 17 4 25 7 40 12l115 42c26 12 45 19 71 33 40 21 43 31 71 32 0-111 61-165-2-197l-37-16c-18-9-48-28-71-28-13 0-53 92-146 92zm-1277-15c-4-11-2-4-8-12-23-28-21-29-45-29-6 13-10 22-10 41 32 7 30 7 63 0zm2706 67c14 3 11 7 33-8 15-11 16-14 29-24 12-9 53-36 53-50 0-17-19-26-37-26-60 0-67 62-78 108zm-691-149c-35-23-81-18-135-37l-128-39c-30-10-45-23-76-31-6 7-6 14-9 23l-18 64c-38 140-4 116 55 105 30-5 66 2 92 12 40 14 94 66 98 113 37 3 59 26 100 26l21-236zm-1768-14c-13 3-16 6-36 10-119 26-131 14-148 86 60 0 95-8 142-14 48-6 91-14 125-32 0-29-6-35-6-67-19 1-11 1-22 5l-55 12zm1909 14c-24 0-35 3-52-5-13 19-15 7-16 36 27 0 25-2 42-10 26-13 21-7 26-21zm280 240c-11-69-20-155 0-222 5-18 13-24 13-33 0-24-19-9-40-4l-174 19c13 18 38 25 58 36 28 15 43 30 56 57 5 10 3 5 7 14 5 9 10 17 14 28 24 64 2 102 11 142 47-11 62 9 55-37zm-2525-255c12 18 26 30 47 41 35-65 2-67-47-41zm239-63c-9 3-16 4-25 6-68 18-75 11-89 36 22 5 28 13 48 41 17-4 27-7 47-10 21-3 26-6 46-11 66-13 79-11 79-35 0-4-12-27-14-32-17-33-23-19-92 5zm2781-19c-12-35-91-76-127-81-87-12-184 63-225 132-27 45-43 95-50 146-1 6-1 12-1 18 0 29 4 83 13 105 2 3 2 14 20 15l87-43c0-34-2-66 5-93 4-14 7-21 12-34 5-13 6-22 14-33 6-9 15-21 21-30 34-46 114-65 156-24 16 15 14 24 33 29 23-15 16-23 25-52 4-14 17-43 17-55zm282-72c-32 3-56 21-81 33-7 4-7 3-14 7-15 7-13 8-25 16 4 49 52 100 8 270-14 55-36 87-39 99 31 0 51-17 75-28 27-11 39-15 66-21 29-8 29-29 34-57 5-28 8-92 8-121-1-68-16-132-32-198zm-2883 41c0-17 2-16-24-8-34 10-24 10-45 23 6 13 8 24 14 38 6 13 11 19 18 29 44-23 37-15 37-82zm-406-48c-21 7-29 12-34 33-8 31-22 81-16 107 30 0 44-6 68-10 27-4 32-8 41-32 6-20 7-41 11-61 6-36 26-71-70-37zm699 12c-7-25-19-17-36-37-32-39 21-70-95-19-143 63-136 42-136 143 32 0 63-17 88-26l35-12c1 0 3-1 4-1 1-1 3-1 4-2l136-46zm-293-77c0-22-4-11-9-11-1 0-9 2-10 3-1 0-5 2-7 3-12 7-20 14-27 26-13 21-21 52-16 77 84-7 69-48 69-98zm1151 47c-21-12-35-14-63-16 2 21 9 20 17 45 19 63 8 36 7 68-2 49-8 44-8 72 0 14 110 61 131 66 9-23 37-161 30-179-10-25-88-43-114-56zm1722-6c-3-43-54-142-78-183-8-14-12-22-16-37-29 2-23 16-32 41-21 60-65 155-34 188l5 5c1 0 2 1 3 2 0 1 6 7 7 8l30 43c30-20 115-58 115-67zm-2770 122c-73 27-83 24-83 58 35-9 3-18 52-27 21-4 38-4 60 5 67 25 11 37 105 23 15-2 17-1 31-5 50-14 309-53 349-53l131-5c25-5 21-19 13-43l-9-90c-1-31-7-15-72-15v20c0 4 60 82 16 82-28 0-53-87-79-87-81 0-28 6-74 15-11 2-11 0-22 3-29 8-34 6-50 18l-12 9c-30 16-64 16-104 16-44 0-48 9-76 18l-176 58zm729-121c11-25 20-20 26-42-11-13-48 3-58 5v72c26-6 23-13 32-35zm-1192-20c27-7 26-1 40-22-13-13-94-11-104 31 13 7-5 5 15 5 19 0 34-10 49-14zm1975-69c-82-4-122-21-198-41-31-9-33 8-40 37-7 29-31 122-23 147 8 23 61 40 82 48 8 3 16 6 25 9l118 38c10 3 36 10 49 11 13 0 27-1 39 5 29 12 33-27 37-47 9-44 19-86 28-129 15-75-1-77-75-78-14 0-28 1-42 0zm-1014 47c-10-20-22-41-30-62-39-93-4-53-127-25l8 8c24 24 55 11 55 95 36 8 47 1 75-9 11-4 10-2 19-7zm137-97c-4-68 16-83-72-59-46 12-67 6-28 89l14 28c3 7 4 11 6 15 7 16 0-8 6 14 22 0 79-4 79-26l-5-61zm498-52l-82-28c-20-4-30-2-50-8-77-22-169-13-246-9-108 4-67 48-63 102 2 31-1 39 5 67 25 0 49 0 74 0 44 0 81-15 132 3 66 24 40 5 109 37 17 8 40 11 58 15 31 8 49 24 70 30 50 13 52-65 58-95 4-25 11-43 13-68 1-15 6-14-14-23-20-9-44-17-64-23zm1374 25c-12 10-42 32-45 47-3 18-1 9 21 17 55 21 63 61 81-8l31-103c5-21 7-7 8-34-55 36-56 45-96 81zm-1212-33c-40 43 30 50 56 56 99 22 144 34 248 35 15 0 31 0 46 0 5-36 43-162 12-185-20-14-71 2-94 8-85 18-200 30-268 86zm-666-43c-2-27-9-44-10-76-1-26-6-56-10-78-6-43 4-169-68-49-36 60-65 179-32 239 25-2 35-11 63-15 34-4 34-6 57-21zm1900-297c-25-2-17-6-31 11l-147 153c-73 74-91 81-170 141-1 1-4 4-5 5l-110 62c-55 16-54 20-106 39l-78 22c-19 5-65 6-89 10-13 1-76 5-84 14-8 8-28 152-32 174-2 12-19 75-9 82 11 8 93 5 107 4 81 0 156-1 229-27 31-10 24-15 42-43 57-92 83-148 184-204 58-32 106-33 170-27 38 4 50-15 74-39 29-26 58-53 87-80 94-70 50-47 2-166-15-35-34-85-34-131zm-889 49c-103 18-219 18-300 93-61 57 32 62 72 56 66-12 125-37 190-52 24-4 83-8 92-35 3-11 10-61-5-66-9-4-38 2-49 4zm1036-3c29-43 8-12 23-64 12-39 56-160 50-187l-21 11c-21 16-47 33-66 50-10 9-18 16-29 25-16 13-9 41-6 59 6 36 18 83 49 106zm107-336l71-222c-16-9-14-9-27-6-116 40-179 204-198 313-4 20-5 34-3 54 19 4 25-8 40-21 32-28 41-31 74-51 27-16 34-38 43-67zm66-314c40-14 61 52 53 83-15 58-60 179-64 229 27 0 78-27 107-39 29-11 78-33 108-27-5 17-18 17-35 23-60 20-125 41-179 75-32 19-63 180-78 226l-37 123c-9 34 0 54 25 70 16 4 239-118 304-87-12 16-13 13-37 16-26 2-21 4-42 10-27 8-49 13-77 21-22 7-127 45-132 66 1 13 97 174 113 209 16 35 27 70 49 103 48-1 69-17 120-5v10c-40 10-75 3-110 21 1 21 7 28 12 49 29 115 34 146 34 269 0 14-2 60 14 65 25 9 29-12 50 11-13 19-16 9-36 9-39 0-34 19-50 91-18 81-60 168-120 226 0 1-2 2-2 3l-72 63c-1 1-2 2-3 3-11 9-15 9-29 18-12 8-20 11-17 18l71-13c95-17 165-10 258-3-3 37-27 16-53 12-22-3-55-1-77-1-62 0-118 9-175 24-12 3-19 3-30 6-17 5-39 14-57 22-31 13-80 29-100 55 13 23 19 13 35 33 7 9 17 30 22 40 21 40 16 113-6 161-6 11-6 10-11 20-17 31-46 59-72 83-29 27-58 32-99 32-92 0-150-59-176-139-6-18-8-33-12-50-23 5-19 11-47 15-52 8-95 19-152 21-41 1-167-14-207-28l-159-50c-32-8-68-27-100-40-27-12-53-22-78-36-25-15-51-27-77-43-39-26-78-44-114-73l-74-55c-7-6-8-6-15-12-67-49-130-103-202-145l-93-52-193-73c-146-52-419-65-572-65-117 0-113 1-225 11-225 19-187-5-330-11l-243-44c-29-8-6-12-45-12 2-26 11-19 33-12l94 21c66 13 192 36 255 37 29 0 31 5 58 5l168-5c70-4 156-11 220-5 41 3 45-6 109 0 38 3 75-3 112 3 38 5 73 5 110 10l317 64c10 4 12 6 23 9 45 12 78 31 120 50 42 20 73 44 112 65 1 0 11 5 11 5 72 45 213 158 297 217 0 1 2 2 3 2l67 42c68 47 123 59 175 90l237 81c65 14 128 30 206 28 117-2 126-19 199-36 0-110 42-187 42-251-30-8-56-54-88-50-7 1-41 15-55 18-94 21-213 29-311 10-19-3-36-7-62-11-22-3-37-8-55-13-22-5-35-8-59-13-39-9-69-22-106-35l-138-65c-8 7 0 2-13 8l-45 18c-56 14-112-10-159-39-22-15-42-39-58-61-22-29-27-67-38-101-11-33-126-81-163-97-35-15-72-23-110-35l-79-21c-20-5-47-5-68-9-99-21-292-11-403-11-33 0-41 5-73 5-49 0-137 7-185 19l-105 15c-49 9-106 7-151 11-65 7-244 3-305-6-42-6-110-3-144-19 6-15-8-5 13-13l422 19c95 0 164-21 261-21-6-16-15-18-30-22-95-24-9-49-107-31l-131 26c-17 3-33 0-50 2-46 5-201 17-241 9-19-3-22-5-48-4-38 0-58-6-99-6v-15h110c-3-27-7-31-37-31-20 0-42 0-63 0 8-29 40-20 89-20 8-11 12-15 16-31-44-10-71 10-115 0v-15c45 0 79-7 115-16 4-19 12-36 15-52 4-22 6-34 10-51 16-74 9-124 54-137 105-31 121-40 110 16l-26 165c-4 29 4 31 25 24 11-3 16-7 28-9 5-1 8-1 13-3 11-2 8-2 12-3l49-13c115-38 78-14 88-84 12-91 105-111 108-150 2-23-7-34 12-40 8-2 35 7 41 9 0 62-12 114-16 164 24 6 14 4 35-6l83-37c71-35 87-22 93-68l19-217c7-88-6-145 37-148 12 17 11 11 11 41l-6 143c-4 46-19 137-10 175 20-1 47-11 63-14l178-58c0-29-5-51-9-79-10-72 24-139 49-205 9-24 15-38 30-57 54-73 82-59 60-177-13-74 4-52 64-51 56 1 23 18 36 174l11 164c0 62 5 105 5 164 49 12 156-33 363 14l151 47c36 10 34-25 42-80l38-162c8-30 11-50 15-81 4-30 20-28 51-34 97-21 190-42 285-68 28-8 133-34 155-20 24 16-4 109-9 136-13 67-22 138-33 206-3 18-25 161-24 168 1 16 1 14 22 14 73 2 244-40 310-72l4-2 89-46c56-33 109-75 157-118l170-172c85-94 43-32 54-133 4-40 4-59 14-100 26-108 61-176 127-266 18-24 57-58 83-75 19-11 35-19 55-27 24-9 27-13 48-20z"/><path d="m14610 10399c209-17 99-77 192-98 0 125-21 329-41 450-68 413 27 271-169 316 0-60 0-119 0-179 0-59 10-92 9-160 0-121 9-215 9-329zm478-327c-7-39-55-31-45 3 7 23 43 27 45-3zm-743-25c52 50 75-51 34-50-15 1-47 31-39 44 1 2 3 4 5 6zm97 154c-13 31-49-2-25-18 12-8 28 1 25 18zm-39 35c16 17 16 11 36-7 5-5 26-20 25-28-1-17-15-39-35-42-36-3-54 32-35 65 3 4 6 8 9 12zm420-186c-1-19 31 0 16 8-6 3-14-1-16-8zm-1 34c68 19 67-85-1-66-15 4-29 22-25 38 4 15 12 22 26 28zm-131 128c4-45-70-64-59-7 8 40 50 41 59 7zm-630-297c-20-21 18-34 23-11 3 11-10 18-23 11zm36-34c-36-37-85-6-63 42 22 50 92 2 63-42zm832 901c0-64 12-97 21-158 8-58 28-270 54-303 69-87 38-81 98-82 0 49-103 514-123 591-22 82-25 122-77 156 0-75 29-150 18-204-1 2-3 4-3 6l-32 182c-9 41-13 44-50 58-25 9-62 19-88 21 0-86 11-132 18-206l44-357c29-278-18-149 165-149-15 62-18 151-29 221-10 71-25 140-25 224h9zm-700 196c-27-3-68-26-83-44-37-45-127-586-163-660 65 5 21 31 118 9 19 80 90 429 91 499 21-15 16-11 9-52l-82-456c55 0 53 1 74 35 41 65 63 144 161 152l11 160 9-160c99-51 48-38 93-78 41-37 74-6 125-2 0 121 2 244 1 365-1 46-8 50-10 89-1 29 2 59-1 88-12 100 6 144-35 144-126 0-137-4-137-178h-9c0 65 9 106 9 160-42-4-101-24-137-44-36-20-15-1-28-26-9-19-35-163-35-197h-9c0 42 16 172 28 196zm-401-1024c0-38 55-116 76-140 32-38 69-68 110-97 67-48 140-74 218-98 28-9 58-12 78-21-6 76-86 207 81 330 185 137 430 54 492-117 11-32 4-55 11-78 19-56 267 59 306 196 11 41 16 112 20 158 6 72 51 176-31 229-39 25-47 15-87 12 13-27 14-62 27-90 28-62 51-42 27-142l-5 24c0 0 5 22 5 30 0 54-58 90-109 62-45 189-176 71-246 71-76 0-27 74-127 90-110 18-80-44-201-19l10-35c-33 23-74 205-203 82-75-72-63-129-144-180l11 35c-63 0-106 50-166-24-53-66 1-172-80-225 17 70 26 30 37 151 6 64 36 70 36 143-136 0-110-83-101-153 11-94-45-112-45-194zm1237 258c10-2 2-19 1-19-16 2-16 22-1 19zm-373-614c1-47 17-58 40-86l64-71c1-1 3-3 5-5l124-109c64-46 254-193 313-166-5 42 13 15-26 37-10 6-28 12-44 20-74 35-236 148-296 199l-180 181zm-9-72c-83-54-54-80-181-80-106 0-122 76-187 112-45 25-240 46-403 202-204 196-65 311-65 354 0 44-57 176 70 216 73 23 47-12 82 133l100 428c17 82 31 83 99 116 115 56 218 86 376 86 142 0 299-18 388-101 31-29 54-186 63-232l69-315c30-131 14-50 102-96 101-52 62-190 53-255-18-137 24-182-113-316-58-58-119-64-200-90-73-24-47-67-189-99 61-90 181-189 276-247l255-142c35-23 34-44 15-83-63-14-70-17-139 25-101 61-205 115-291 195-80 75-97 68-180 189z"/><path d="m15850 10116c0 37-7 33-7 65 0 90 0 175 7 254l7 260c3 53 6 67 25 106 28 58 65 116 110 160 28 27 39 52 87 53v-283c1-52-6-81-7-122-1-41 1-83 0-124 0-44-7-70-7-123-79-16-52-39-133-28-28 4-40 0-59-23-75-85 57-143-23-195zm917-376c7 30 7 43-7 72-54 0-95-6-45-80l52 8zm-347 318c0 37-89 41-89-22 0-48 89-34 89 22zm1020-195c-30 128-130 39-74-7 41-34 65 1 74 7zm-1257 282c0 66-54 44-89 22l8-58h59c10 15 22 19 22 36zm0-355l-7 51c-119 28-85-80-37-80 22 0 44 7 44 29zm688 203c0 20-4 20-8 36-64 30-81-4-81-58 6-3 31-21 37-21 21 0 52 23 52 43zm221-188c0 17-14 32-22 43-29 0-38 4-55-11-32-26-12-47 4-76h51c2 4 22 43 22 44zm607 123c-67 17-41 159-185 159-65 0-105-112-184-6-17 23-38 47-67 57-16 6-22 5-41 3-28-3-18-3-41-17-91-56-92 59-216 113-103 45-128-27-190-27-38 0-101 102-171 102h-51c-27 0-82-66-96-66-105 0-95 102-215 102-56 0-39-53-126-8-43 22-29 20-29 167 0 109 15 188 15 297v224c120 0 491-106 618-147l887-261c36-11 69-27 99-33l-8-499c-5-42 1-101 1-160zm-1769-118c-26 27-24 35-30 80-11 74-57 69-57 175 0 26 59 52 59 95 0 14-81 162 30 153 99-8 86 28 110 28 58 0 50-37 134-37 37 0 51 29 66 29 90 0 108-101 200-101 56 0 71 65 140 65 56 0 110-61 147-88 94-71 143 115 299-40 137-137 127-46 205-46 71 0 85-79 117-95 85-40 127 45 149 45 161 0 96-195 252-160v15c-42 1-37-1-37 58 39 1 43 14 74 14 40 0 146-139-87-205-36-10-43-16-69-26-42-15-111-8-160-25-87-28-65-12-165-12-66 0-58-59-229-57-89 0-110-21-173-42-30-10-93-2-130-2-24-1-52-19-79-25-24-6-74-7-96 3-7 3-9 9-11 17-2 11 1 50 1 64 0 46 0 91-1 136 0 26 1 35 28 42l10 2v14c-51-5-34-9-80 20-70 44-66 19-138 12-41-3-49 5-82-26-7-7-32-29-21-41 13-12 16-14 18-34 2-26 1-59 1-86 0-30 1-131-19-151-21-17-64-13-90-12-47 2-51 26-86 53-60 45-107 41-144 121-21 44-26 38-56 70zm488 85c56 5 96 22 138-29 21-24 16-46-20-47-21 0-44 2-66 2-38 0-58 5-95-10-16-7-21-2-25 16-4 22-2 59 26 65 11 2 30 2 42 3zm-8-227c32 5 107 13 135-1 25-12 27-41 23-66-6-24-20-17-42-15-44 6-91 2-133-13-10-4-49-22-57-17-10 7 1 73 7 84 12 21 46 24 67 28zm124-274c-10-2-32-4-39 4-22 26-15-6-35-13-24-5-139-4-106 42 32 45 196 53 210-1 3-17-16-28-30-32zm59-192c-3-76-86-157-123-224-25-45-23-22-40 17-44 98-150 244 8 305 65 26 107 16 140-46 9-17 15-33 15-52zm-29 172c77 36 23 142 35 198 30 3 62-2 90 1 13 1 43 14 56 19l13 4c30 9 66 6 106 6 73-1 110 33 171 42 33 5 69 1 102 1 51 0 51 8 86 25 101 48 97 26 173 26 40 0 91 23 139 30 23 4 55 4 81 8 20 4 44 18 61 27 39 21 199 46 199 145 0 155-105 119-148 116 0 97 0 193 0 290 0 106 8 186 8 289-79 52-568 178-660 201-60 15-106 33-164 49-143 40-772 247-852 204-14-8-46-32-60-43-54-45-150-185-171-260-9-32-16-642-16-723 0-37 17-62 30-87 52-98-4-89 79-168 61-59 27-86 123-142 45-25 57-23 94-63 68-72 136-9 155-46 5-10 5-33 6-45 2-23 5-45 7-69 2-24 4-24 28-35 41-18 61-15 102-22 6-1 9-1 14-5-9-16-44-25-61-35-131-76-31-245 14-341 14-29 10-40 15-68 6-32 41-31 54-3 9 21 9 39 23 63 50 92 148 151 124 273-23 100-113 80-110 108 1 8 4 16 12 20 9 2 17 0 30 5l6 2 6 3z"/><path d="m18328 11657c59-251 156-569 191-819l55-312c-104-39-94 28-119 125l-98 447c-24 99-43 207-63 303-21 102-43 194-66 292 88 57 88 19 100-36zm782-1674c48-96-130-421-409-453-70-8-112-11-189 1-151 25-357 207-357 301 0 97 319 267 537 267 223 0 264-50 400-108 38-16 29 7 18-8zm37-9c0 126 7 178-61 297-95 166-291 273-485 273l-120 631c-24 100-48 196-75 301l-52 224c-11 45-13 32-35 64-16-1-59-9-77-14-32-10-11 1-30-15-41-38-8-94 11-181l63-294c12-56 22-99 34-154 20-97 126-537 126-597-183-42-363-267-363-481 0-187 90-348 225-438l87-49c229-100 417-36 584 90 88 66 168 222 168 343z"/><path d="m17055 3809c-64-115-193-180-317-215-161-44-355 27-468 141-125 127-146 215-163 386-8 77 23 146 62 211 52 85 117 168 206 218 134 75 271 80 416 33 165-54 307-183 355-350 43-151-19-292-91-424zm-459 381c75-2 109-36 88-110-52-131-181-66-188 8l-1 6c0 45 41 89 87 95l14 1zm84-54c-1 1-1 1 0 0zm-105 24c0 1-1 0 0 0zm-58-34c0 0-1 0 0 0zm305-12c-8 183-265 263-383 119-50-67-72-163-17-234 60-73 162-133 257-85 54 27 117 88 136 145 5 20 7 35 7 55zm-932-113c-19 50 46 64 35 70-20 10-77 3-111 30-42 34-31 140-6 182 42 73 147 2 177 17 23 11-84 37-44 88 32 35 89 7 124-10 83-38 70-62 38-137-24-56-43-78-33-140 7-37 18-89-25-107-25-11-89-28-116-24-21 3-30 12-39 31zm1569-70c0-56 6-70-14-111-69-132-155-15-237 1-39 8-13-23 4-34 12-7 53-27 58-32 21-20 12-38-2-59-31-46-84 8-109 32-114 108-36 125 8 239 26 71 23 87 25 159 1 26 4 25 33 37 35 15 96 34 123-4 32-44-110-36 1-64 82-21 87-30 87-108-56 1-66 3-119 15-25 6-36 7-6-9 36-20 107-49 147-62h1zm-220-296c87 0 31 45 114 69 17 5 34 6 56 15 98 38 97 129 97 212 0 52-6-3-14 31-10 43 12 27-4 88-16 66-4 11-46 69-61 84-58 111-169 101-10-1-60-9-68-2-1 1-32 87-37 98-69 151-213 278-376 324-186 53-376-1-527-114-47-36-53-49-87-94-26-35-46-33-86-19-16 6-31 13-47 19-161 61-142-51-220-81-86-32-137-207-58-275 33-27 54-23 67-63 36-106 70-96 168-71 13 4 68 17 77 5 19-26 37-87 60-123 46-73 139-163 213-211 194-125 403-97 589 29 32 22 51 44 80 66 97 75 102-64 211-73h7z"/><path d="m15499 12803c-41 0-95-49-68-103 26 2 26 24 52 1 7-7 12-13 16-22l2-6c8-17-3-15 19-15 9 0 33 21 51 25 0 49-9 120-72 120zm34-269c9 0 8 14 10 23 4 11 5 11 8 25 14 60 31 92-15 64-61-37-20-43-63-66-64-37-23 6-91-31-26-14-19-3-35-27l89 16 97-4zm63-137c-30-15-33-16-43-53-8-33 9-38 33-52 12-7 16-10 25-21 35-44 25-58 44-93 21 2 24 7 40 15 4 2 9 4 12 5 23 10-15-8 6 3 13 6 14 3 14 14 0 35-77 125-99 152l-32 30zm224-165c40 0 58 2 67 21l34 50c40 40 141 29 186-9l4-4c14-13 27-21 39-37 10-15 19-40 36-47l65-20 3 47c6 63 14 72 44 127-46 24-146 66-198 75-26 5-81 21-115 25-10 1-16 4-27 6-40 7-159 9-201-3-12-3-23-5-37-9-11-4-7-4-19-7-11-2-5 1-16-4 17-35 6-15 39-49l38-49c28-42 39-85 58-113zm-327 117c13 13 50 86 10 86-91 0-161-34-208-78-37-33-69-79-85-128-2-4-3-11-5-15-6-13-18-27-5-34 13-7 88 30 102 38 65 31 71 56 115 82 17 10 18 4 55 32 7 6 15 12 21 17zm92-218c11 7 17 9 18 22 1 15-19 53-26 61-27 30-41 23-57 22 0-24-10-41-18-61-6-16-12-40-12-63 0-13 4-17 4-37 29 0 45 22 91 56zm-209-89c0-22 4-41 17-50 19 39 50 170 61 198 23 64-37-1-47-18-26-43-31-81-31-130zm1387 33c33 0 57-20 78-35 5-3 6-4 10-7l9-8c12-13 18-26 27-44 24-53 28-30 112-30l234 27c26 7 99 15 121 22 41 14 11 77 81 79-9 11-16 10-37 7l-120-11c-182 0-298-18-483 24-13 3-20 6-32 9l-92 34c-22 10-37 16-58 27-32 17-34 25-58 26 0-90-48-134 3-159l29-13c14-8 39-23 57-23 11 0 43 75 119 75zm1031-13c3-9 1-3 7-10 18-22 16-23 35-23 5 10 8 18 9 33-27 6-25 6-51 0zm-2185 54c-12 3-9 6-27-6-12-9-13-11-24-19-9-8-42-30-42-41 0-13 15-21 29-21 49 0 55 50 64 87zm558-120c28-18 65-14 108-30l104-31c24-8 36-19 61-25 5 6 5 11 8 18l14 52c31 113 3 93-45 85-23-4-53 1-74 9-32 12-76 54-79 92-29 2-47 20-81 20l-16-190zm1427-11c11 2 13 5 30 8 95 21 105 11 119 69-48 0-77-6-115-11-39-5-73-12-100-26 0-24 4-29 4-54 16 1 9 1 18 4l44 10zm-1542 11c20 0 29 2 43-4 10 15 12 5 12 29-21 0-20-2-34-8-20-10-17-6-21-17zm-225 194c8-56 15-125 0-180-4-14-11-19-11-26 0-19 15-8 32-3l141 15c-11 14-31 20-47 29-23 12-35 24-46 46-4 8-2 4-5 11-4 7-8 14-11 23-20 51-2 82-9 115-38-9-50 7-44-30zm2039-206c-10 14-22 24-38 33-29-53-2-54 38-33zm-193-51c7 2 13 3 19 5 56 14 62 9 72 29-17 4-22 10-38 33-14-3-22-5-38-8-17-3-21-5-37-9-53-11-64-9-64-28 0-4 10-22 12-26 13-26 18-15 74 4zm-2246-16c9-28 73-61 103-65 69-9 148 51 181 107 22 36 35 76 40 118 1 5 1 9 1 14 0 24-3 67-11 85-1 3-1 11-15 12l-71-35c0-27 2-53-4-74-3-12-6-17-10-28-4-11-5-18-10-27-6-7-13-16-18-24-27-37-92-53-126-20-13 13-11 20-26 24-19-12-13-19-20-42-4-11-14-34-14-45zm-228-57c26 2 46 17 65 26 6 3 6 3 12 6 12 6 10 7 20 13-4 40-42 80-7 218 12 44 29 70 32 80-25-1-41-14-61-23-21-9-31-12-53-17-24-6-24-23-28-46-3-22-6-74-6-97 1-55 13-107 26-160zm2329 33c0-14-2-14 18-7 28 9 20 8 37 19-5 10-7 19-12 30-4 11-8 16-14 24-35-19-29-12-29-66zm327-39c17 6 23 9 28 26 6 26 18 66 12 87-23 0-35-5-55-8-21-4-26-7-32-26-6-16-6-33-9-49-6-29-21-58 56-30zm-564 10c5-21 15-14 29-30 26-31-17-56 76-15 116 51 111 34 111 115-26 0-52-14-72-21l-28-10c-1 0-2 0-3-1-1 0-2-1-3-1l-110-37zm237-62c0-18 3-9 7-10 0 0 7 2 7 3 1 0 5 2 6 3 10 5 16 11 22 20 11 17 17 42 13 62-68-5-55-38-55-78zm-930 37c17-10 28-11 50-13-1 17-7 16-13 37-16 51-7 29-6 54 2 41 7 36 7 58 0 12-89 50-106 54-8-18-30-130-24-144 8-21 70-35 92-46zm-1391-4c3-36 44-115 63-148 7-11 10-18 13-30 23 2 18 13 26 33 17 48 52 125 28 152l-5 4c0 0-1 1-2 2-1 0-5 5-6 6l-24 35c-24-16-93-48-93-54zm2237 98c59 22 67 19 67 47-28-8-2-15-42-22-17-3-31-3-48 4-54 20-9 30-85 19-12-2-14-1-25-4-40-12-250-43-282-43l-106-4c-20-4-17-16-10-35l7-73c1-25 5-12 58-12v16c0 4-49 67-13 67 23 0 43-71 64-71 65 0 23 5 60 12 9 2 8 1 18 3 23 6 27 5 40 14l10 7c24 14 52 14 83 14 36 0 39 7 62 14l142 47zm-589-98c-8-20-16-16-21-33 9-11 39 2 47 4v58c-21-5-19-11-26-29zm963-16c-22-5-21-1-32-17 10-11 76-10 84 24-11 6 4 5-13 5-15 0-27-9-39-12zm-1595-55c66-4 99-17 160-34 25-7 27 7 32 30 6 24 26 99 19 119-7 18-49 32-67 39-6 2-13 5-20 7l-95 31c-8 2-29 8-40 8-10 1-21 0-31 4-24 11-27-21-30-37-7-36-15-70-22-105-13-60 0-62 60-62 11 0 23 0 34 0zm819 38c8-17 17-34 24-51 32-75 3-42 102-20l-6 7c-19 19-44 8-44 76-29 7-38 1-61-7-8-3-7-2-15-5zm-110-79c2-55-14-67 57-48 38 10 55 6 23 73l-11 22c-2 5-4 9-5 12-6 13 0-6-5 11-18 0-64-3-64-20l5-50zm-403-42l66-22c16-4 24-2 40-7 63-18 137-10 199-8 88 4 55 39 51 83-2 25 1 32-4 54-20 0-40 0-59 0-36 0-66-12-107 3-53 19-32 4-88 30-14 6-32 8-47 11-25 7-39 20-57 25-40 10-42-53-46-77-4-20-9-35-11-55-1-12-5-11 12-19 15-7 35-13 51-18zm-1109 20c9 8 34 26 36 38 2 15 0 8-17 14-44 17-51 49-66-6l-24-84c-5-16-6-5-7-27 44 29 45 36 78 65zm978-26c33 34-24 40-45 45-80 18-117 27-201 28-12 0-24 0-36 0-4-29-36-131-10-149 16-12 57 1 75 6 69 14 162 24 217 70zm538-35c2-22 7-36 8-62 1-20 5-45 8-63 5-34-3-136 55-39 30 49 52 144 26 193-20-1-28-9-51-12-27-4-28-5-46-17zm-1535-240c21-2 14-5 25 9l120 123c58 60 73 65 136 115 1 0 4 3 5 3l88 50c45 13 44 16 86 32l63 18c15 4 53 5 72 7 11 2 61 5 68 12 6 7 22 123 25 140 2 10 16 61 8 67-9 6-75 4-87 3-65 0-125-1-185-21-24-9-18-13-33-36-46-74-67-119-149-164-47-26-85-27-137-22-31 3-40-12-60-31-23-22-47-43-70-65-76-57-41-38-2-134 12-29 27-69 27-106zm718 40c83 14 177 14 243 75 49 46-26 50-59 45-53-10-100-30-153-42-19-4-67-7-74-28-3-9-8-50 4-54 8-3 30 2 39 4zm-836-3c-24-34-6-9-19-51-9-32-45-130-40-151l17 8c17 13 38 27 53 41 8 7 15 12 24 20 12 10 7 33 4 47-4 30-14 67-39 86zm-86-271l-58-180c13-7 11-7 22-4 93 32 145 164 160 253 3 16 4 27 3 43-16 3-21-7-33-17-26-23-33-25-60-41-21-13-27-31-34-54zm-53-254c-33-11-50 42-44 67 13 47 49 144 52 185-22 0-63-22-86-31-24-9-63-27-87-22 4 13 14 14 27 18 49 17 102 33 146 61 25 16 50 145 62 182l30 99c8 28 0 44-20 58-13 3-193-96-245-71 9 13 10 11 29 13 22 2 17 3 34 8 22 6 40 11 63 17 17 6 102 36 106 53-1 11-78 141-91 169-13 29-22 57-40 84-38-1-55-14-97-5v9c33 7 61 2 89 16-1 18-5 23-10 40-23 93-27 118-27 217 0 11 2 48-11 53-21 7-24-10-41 9 11 15 14 7 29 7 32-1 28 15 41 73 15 66 48 136 96 183 1 1 2 2 3 2l57 51c1 1 2 2 3 2 9 8 12 8 23 15 10 6 16 9 14 14l-57-10c-77-14-134-8-209-2 2 30 22 13 43 9 18-2 44-1 63-1 49 0 95 8 140 20 10 2 16 3 25 5 14 4 31 11 45 17 26 11 65 24 81 45-10 19-15 10-28 27-5 7-13 24-18 32-17 33-12 91 6 130 4 9 4 8 8 16 14 25 37 48 59 67 23 22 46 26 79 26 74 0 121-48 143-112 4-15 6-27 9-41 19 4 16 9 38 12 42 7 77 16 123 17 33 1 135-11 167-22l128-40c27-7 55-22 81-33 22-9 43-18 63-29 21-12 41-21 62-35 32-20 63-35 92-59l60-44c6-4 7-5 12-9 54-40 105-84 164-118l75-42 156-58c117-43 338-53 462-53 94 0 90 1 181 8 182 16 151-3 267-8l196-36c23-6 5-10 36-10-2-20-9-15-26-9l-76 17c-53 10-155 29-207 30-23 0-25 3-46 4l-135-4c-57-3-126-9-178-5-33 3-36-4-89 0-30 3-60-1-90 3-31 4-58 4-89 8l-256 52c-8 3-9 4-18 7-37 10-63 25-98 41-33 15-58 35-90 52 0 0-8 4-8 4-59 37-173 128-240 175-1 1-2 2-2 2l-55 34c-55 37-99 48-141 72l-191 66c-53 11-104 24-167 23-95-2-102-16-161-29 0-90-34-151-34-203 24-7 46-43 71-41 6 1 33 12 45 15 76 17 172 23 251 8 15-3 29-5 50-9 18-3 30-7 44-10 18-4 29-7 48-11 32-7 56-18 86-28l111-52c6 5 0 1 11 6l36 14c45 11 91-8 128-31 18-12 34-32 47-49 18-24 22-55 31-82 9-27 102-66 131-78 29-13 59-19 90-29l63-16c17-5 38-5 55-8 80-17 236-9 326-9 26 0 32 4 59 4 40 0 110 6 149 16l85 12c39 7 85 5 121 9 54 5 198 2 247-5 34-5 89-2 116-15-4-12 7-5-10-11l-341 15c-76 0-132-17-211-17 5-13 12-14 25-17 77-20 7-40 86-25l106 21c13 2 27 0 40 1 37 4 162 14 195 8 15-3 18-4 38-4 31 0 47-4 81-4v-13h-89c2-21 5-25 29-25 17 0 34 0 51 0-6-23-32-16-72-16-6-9-9-12-12-25 35-8 57 8 93 0v-12c-37 0-64-6-93-13-4-15-10-29-12-42-4-18-5-28-8-41-14-60-8-100-44-111-85-25-98-32-89 13l21 133c3 24-3 26-20 20-9-3-13-6-23-8-4-1-7-1-11-2-9-2-6-2-9-2l-40-11c-93-31-63-11-70-68-10-73-86-89-88-121-2-19 6-27-9-32-7-2-29 5-34 7 0 50 10 92 13 133-19 4-11 3-28-5l-67-30c-58-29-70-18-75-55l-16-175c-5-72 6-117-30-120-9 14-8 9-8 33l5 116c2 36 15 111 8 141-17-1-39-9-51-11l-144-47c0-24 4-42 7-64 9-58-19-113-39-165-7-20-13-31-24-47-44-58-67-47-49-142 11-60-4-43-51-42-46 1-19 15-30 141l-8 132c0 50-4 85-4 133-40 9-127-27-294 11l-122 38c-29 8-27-20-34-64l-31-131c-6-25-8-41-11-66-4-24-17-22-41-27-79-17-154-34-231-56-22-5-107-27-125-15-19 13 3 88 7 110 10 54 18 111 27 166 2 15 20 130 20 135-2 13-1 12-19 12-59 1-196-32-250-58l-3-2-72-37c-45-27-88-61-127-96l-137-138c-68-76-35-26-44-108-3-32-3-47-11-80-21-88-49-143-103-215-14-19-46-47-67-61-15-9-28-15-44-22-19-7-22-10-38-16z"/><path d="m20491 12503c-209-17-98-77-191-98 0 125 20 329 40 450 68 413-27 271 169 316 0-60 0-119 0-179 0-59-9-92-9-160 0-121-9-214-9-329zm-477-327c6-39 54-30 44 3-7 24-43 27-44-3zm742-25c-51 50-75-50-34-50 15 1 47 32 39 44-1 2-3 4-5 6zm-97 154c13 31 49-2 25-18-12-8-28 1-25 18zm39 35c-16 17-16 12-36-6-5-6-26-21-25-29 1-17 15-39 35-41 37-4 54 32 35 64-3 5-6 8-9 12zm-420-185c1-20-30-1-16 7 6 3 14-1 16-7zm1 33c-68 20-67-85 1-66 15 4 29 22 26 38-4 15-13 23-27 28zm131 129c-3-46 70-65 59-8-8 40-50 41-59 8zm630-298c21-21-18-33-23-11-3 12 10 18 23 11zm-36-34c36-37 85-6 64 42-23 50-93 2-64-42zm-832 901c0-63-12-97-21-158-8-58-28-270-54-303-69-87-38-81-97-82 0 49 103 514 123 592 21 81 24 121 77 156 0-76-30-151-19-205 2 2 3 5 3 6l32 182c9 41 13 44 51 58 24 9 61 19 87 21 0-86-11-132-18-205l-44-357c-29-279 19-150-165-150 15 62 19 151 29 221 10 71 25 140 25 224h-9zm701 196c26-2 67-26 82-44 37-45 127-586 163-660-65 6-21 31-118 9-19 80-89 429-91 499-20-15-16-11-8-52l81-456c-55 0-53 1-74 35-41 65-63 144-161 152l-11 161-9-161c-99-51-48-38-93-78-41-36-73-6-125-2 0 122-2 244 0 366 0 46 7 49 9 88 2 29-2 59 1 88 12 100-5 144 35 144 126 0 137-4 137-178h9c0 65-9 106-9 160 43-4 101-24 137-44 36-20 15-1 28-26 9-18 35-163 35-197h9c0 42-16 172-27 196zm400-1024c0-38-54-116-75-140-33-37-69-68-111-97-67-48-139-74-217-98-29-9-58-12-79-21 6 76 87 207-81 330-185 137-430 54-491-117-12-32-5-55-12-78-18-56-267 59-305 196-12 41-17 112-21 158-6 73-51 176 31 229 39 25 47 15 88 12-13-27-15-62-28-89-28-63-51-43-27-143l5 24c0 1-5 22-5 30 0 55 58 90 109 62 45 189 176 71 246 71 76 0 27 74 127 90 110 19 80-44 201-19l-10-35c33 24 74 205 203 83 76-73 63-129 144-181l-10 36c62 0 106 49 165-25 53-66 0-172 80-225-16 70-26 31-37 151-5 64-36 70-36 143 137 0 110-82 102-153-12-94 44-111 44-194zm-1237 258c-10-2-2-19-1-19 16 2 16 22 1 19zm373-614c-1-47-17-58-40-86l-64-71c-1-1-3-3-4-4l-125-110c-63-46-254-193-313-166 5 42-12 15 27 37 10 6 28 12 43 20 74 35 236 148 296 200l180 180zm9-72c84-54 54-80 182-80 105 0 122 77 186 112 46 25 240 46 403 202 204 196 66 311 66 354 0 44 57 176-71 216-73 23-47-12-82 133l-100 428c-17 82-30 83-99 116-114 56-217 86-376 86-142 0-299-18-387-101-31-29-54-186-64-232l-69-315c-30-131-14-50-102-96-101-52-62-190-53-255 18-137-24-182 113-316 59-57 119-64 200-90 74-24 47-67 189-99-61-90-181-189-275-247l-255-142c-36-23-34-44-15-83 62-14 69-16 138 25 101 61 205 115 291 195 80 75 97 68 180 189z"/><path d="m18856 12443c76-69 189-86 290-81 130 6 256 107 310 220 60 124 53 195 22 326-14 59-55 102-100 141-60 50-130 96-209 111-118 22-221-8-317-78-108-81-180-212-173-347 7-122 89-212 177-292zm241 396c-54-20-71-54-36-104 72-84 151-4 137 53l-1 4c-12 34-53 56-89 49l-11-2zm-47-61c0 1 0 1 0 0zm71 43c0 1 1 1 0 0zm52-11c0 0 0 0 0 0zm-223-83c-41 137 129 260 253 182 54-37 96-103 73-169-26-69-86-139-169-127-46 7-109 37-138 75-9 13-14 24-19 39zm720 145c1 42-51 37-45 43 13 13 57 21 75 50 23 36-13 112-42 137-50 43-110-36-136-32-19 3 53 48 11 77-33 18-68-18-90-38-52-50-36-64 7-112 32-35 52-46 60-95 5-29 10-70 46-73 21-2 74 1 92 10 15 8 20 17 22 33zm-1145-438c14-42 13-53 39-79 85-81 118 27 175 59 27 15 16-14 6-26-7-8-33-33-35-38-10-20 1-31 17-43 35-26 60 27 72 51 57 107-5 101-67 175-38 46-39 58-60 111-7 19-9 18-34 20-29 2-79 1-90-34-12-40 91 1 16-48-55-35-57-43-37-101 42 15 49 19 84 41 18 11 26 14 7-6-21-23-66-63-93-82zm239-165c-64-22-35 26-103 23-13 0-26-4-44-3-83 5-106 72-127 133-13 39 5 0 2 27-3 34-15 17-19 66-5 53 0 9 16 63 24 76 14 96 99 115 8 2 47 9 51 17 1 0 2 71 3 81 12 129 86 259 195 333 124 85 279 91 420 44 44-14 51-23 88-47 29-19 43-13 69 7 10 8 19 17 30 26 104 84 118-4 184-6 72-3 155-120 113-190-17-28-34-30-33-63 1-87-28-89-106-94-11-1-55-4-59-16-7-23-4-73-12-105-16-65-62-155-104-209-112-140-274-171-444-123-30 8-49 19-76 29-92 31-59-73-138-106l-5-2z"/><path d="m13018 4543c-208-17-98-77-191-98 0 125 21 329 40 450 68 413-27 271 169 316 0-60 0-119 0-179 0-59-9-92-9-160 0-121-9-214-9-329zm-477-327c6-39 54-31 44 3-7 24-43 27-44-3zm743-25c-52 50-75-50-35-50 16 1 48 31 40 44-2 2-4 4-5 6zm-98 154c13 31 49-2 25-18-12-8-28 1-25 18zm39 35c-16 17-16 12-36-6-5-6-26-21-25-29 1-17 15-39 35-41 37-4 54 31 35 64-3 5-6 8-9 12zm-419-185c1-20-31-1-17 7 6 3 14-1 17-7zm0 33c-68 19-67-85 1-66 15 4 30 22 26 38-4 15-12 23-27 28zm131 129c-3-46 70-65 59-8-7 40-50 41-59 8zm630-298c21-21-18-33-23-11-2 12 10 18 23 11zm-36-34c36-37 85-6 64 42-23 50-93 2-64-42zm-831 901c0-63-13-97-21-158-9-58-29-270-55-303-69-87-38-81-97-82 0 49 103 514 123 591 21 82 24 122 77 157 0-76-30-151-18-205 1 2 2 5 2 6l32 182c9 41 13 44 51 58 24 9 61 19 87 21 0-86-11-132-18-205l-44-357c-28-279 19-150-165-150 15 62 19 151 29 221 10 71 26 140 26 224h-9zm700 196c26-2 67-26 82-44 38-45 127-586 163-660-65 6-20 31-118 9-19 80-89 429-91 499-20-15-15-11-8-52l81-456c-55 0-53 1-74 35-41 65-63 144-161 152l-11 161-9-161c-99-51-48-38-93-78-41-37-73-6-125-2 0 122-2 244 0 366 0 45 7 49 9 88 2 29-2 59 1 88 12 100-5 144 36 144 125 0 136-4 136-178h9c0 65-9 106-9 160 43-4 101-24 137-44 36-20 15-1 28-26 9-18 35-163 35-197h9c0 42-16 172-27 196zm400-1024c0-38-54-116-75-140-32-37-69-68-111-97-67-48-139-74-217-98-29-9-58-12-79-21 6 76 87 207-81 330-184 137-430 54-491-117-12-32-5-55-12-78-18-56-267 59-305 196-12 41-17 112-21 158-6 73-51 176 31 229 40 25 47 15 88 12-13-27-15-62-27-89-29-63-52-43-28-143l5 24c0 1-5 22-5 30 0 55 58 90 109 62 45 189 176 71 246 71 76 0 27 74 127 90 110 19 80-44 201-19l-10-35c33 23 74 205 203 83 76-73 63-129 144-181l-10 36c62 0 106 49 165-25 53-66 0-172 80-225-16 70-26 31-37 151-5 64-36 70-35 143 136 0 109-83 101-153-12-94 44-112 44-194zm-1237 258c-10-2-2-19-1-19 16 2 17 22 1 19zm373-614c-1-47-17-58-40-86l-64-71c-1-1-3-3-4-4l-125-110c-63-46-254-193-313-166 5 42-12 15 27 37 10 6 28 12 43 20 74 35 236 148 296 200l180 180zm9-72c84-54 54-80 182-80 105 0 122 76 186 112 46 25 240 46 403 202 205 196 66 311 66 354 0 44 57 176-70 216-74 23-48-12-83 133l-99 428c-17 82-31 83-100 116-114 56-217 86-376 86-142 0-299-18-387-101-31-29-54-186-64-232l-69-315c-30-131-14-50-102-96-101-52-62-190-53-255 18-137-24-182 113-316 59-57 119-64 200-90 74-24 48-67 189-99-61-90-181-189-275-247l-255-142c-36-23-34-44-15-83 62-14 69-16 138 25 101 61 206 115 291 195 80 75 97 68 180 189z"/><path d="m13226 8917c66-6 134 27 179 72 19 19 46 63 55 87 43 109 14 220-63 308-50 57-56 33-76-24-11-34-20-67-30-101-22-66-47-138-71-204-8-21-50-113-39-130l4-4 5-2c6-1 28-1 36-2zm-267-426c4-4 7-6 11-10 23-4 24 17 30 35 23 67 44 138 66 205 5 16 10 31 14 47 1 7-10 10-15 14-11 6-8 6-22 9-52 18-120 75-154 119-35 44-59 92-66 148-12 106 17 183 111 242 28 18 85 38 118 39 7 0 15-2 5-6-17-7-60-43-72-56-54-59-74-143-37-217 32-59 114-114 181-124 15-2 84 218 93 244 25 75 52 149 78 224 14 39 20 41-12 64-69 48-212 57-293 45-255-41-444-256-381-514 45-185 176-341 309-473 12-12 24-24 36-35zm-32-347c-36-110-29-340-2-454 17-69 73-252 179-218 79 33 109 144 107 220-1 77-27 131-57 200-32 71-145 227-206 278 0 0-8 8-16-11-2-4-4-10-5-15zm-34 81c-73 72-153 165-216 247-228 300-367 703 7 958 137 92 307 131 473 115 54-5 86-16 136-38 12-6 23-10 37-11 17 24 80 244 88 285 7 39 9 73 3 113-23 122-147 216-269 235-45 7-90 6-134-2l-7-1c-9-2-13-4-21-9 55-50 96-29 149-109 48-81 26-175-43-237-106-97-273-32-299 106-28 198 138 319 328 295 219-33 382-196 326-421-19-71-41-133-63-202-6-19-19-59-16-78 5-6 49-36 59-44 50-40 118-114 143-172 26-64 33-87 31-161-3-134-87-243-208-302-63-31-155-46-223-33-18 4-48 11-60-6-20-30-48-141-62-183-11-31-38-98-32-128l2-5 3-4c21-22 38-39 58-62 4-5 7-6 13-14 54-69 99-131 136-211 143-317 55-588-161-847-10-13-21-25-33-37-11-11-21 2-31 12l-8 8c-23 23-48 65-65 95-98 175-120 409-88 603 12 69 28 134 51 200 8 24 15 21-4 45z"/><path d="m15355 20337c-208-17-98-77-191-98 0 125 21 329 41 450 68 413-27 271 169 316 0-60 0-119 0-179 0-59-10-92-10-160 1-121-9-215-9-329zm-477-327c7-39 55-31 45 3-7 23-43 27-45-3zm743-25c-52 50-75-51-34-50 15 1 47 31 39 44-1 2-3 4-5 6zm-97 154c13 31 49-2 25-18-12-8-28 1-25 18zm38 35c-15 17-15 11-35-7-6-5-26-20-25-28 1-17 15-39 35-42 36-3 54 32 35 65-3 4-6 8-10 12zm-419-186c1-19-31 0-16 8 6 3 14-1 16-8zm1 34c-68 19-67-85 0-66 15 4 30 22 26 38-4 15-12 22-26 28zm131 128c-4-45 70-64 59-7-8 40-50 41-59 7zm629-297c21-21-17-34-22-11-3 11 10 18 22 11zm-35-34c36-37 84-6 63 42-22 50-92 2-63-42zm-832 901c0-64-12-97-21-158-8-58-28-270-54-303-69-87-38-81-98-82 0 49 103 514 123 591 21 82 25 122 77 156 0-75-30-150-18-204 1 2 2 4 3 6l32 182c9 41 13 44 50 58 24 9 62 19 88 21 0-86-11-132-18-206l-44-357c-29-278 18-149-165-149 15 62 18 151 28 221 11 71 26 140 26 224h-9zm700 196c27-3 68-26 83-44 37-45 127-586 163-660-65 5-21 31-118 9-19 80-90 429-91 499-21-15-16-11-9-52l82-456c-55 0-53 1-74 35-41 65-63 144-161 152l-11 160-9-160c-99-51-48-38-93-78-41-37-74-6-125-2 0 121-2 244-1 365 1 46 8 50 10 89 1 29-2 59 1 88 11 100-6 144 35 144 126 0 137-4 137-178h9c0 65-10 106-10 160 43-4 102-24 138-44 36-20 15-1 28-26 9-19 35-163 35-197h9c0 42-16 172-28 196zm401-1024c0-38-55-116-76-140-32-38-69-68-110-97-68-48-140-74-218-98-28-9-58-12-78-21 6 76 86 207-81 330-185 137-430 54-492-117-11-32-4-55-11-78-19-56-267 59-306 196-11 41-16 112-20 158-6 72-51 176 31 229 39 25 47 15 87 12-13-27-14-62-27-90-28-62-51-42-27-142l5 24c0 0-5 22-5 30 0 54 58 90 109 62 45 189 176 71 245 71 77 0 28 74 127 90 111 18 81-44 202-19l-10-35c33 23 74 205 203 82 75-72 63-129 143-180l-10 35c62 0 106 50 166-24 53-66-1-172 80-225-17 70-26 30-37 151-6 64-36 70-36 143 136 0 110-83 101-153-11-94 45-112 45-194zm-1237 258c-10-2-2-19-1-19 16 2 16 22 1 19zm373-614c-1-47-18-58-40-86l-64-71c-2-1-3-3-5-5l-124-109c-64-46-255-193-313-166 5 42-13 15 26 37 10 6 28 12 44 20 74 35 236 148 296 199l180 181zm9-72c83-54 54-80 181-80 106 0 122 76 187 112 45 25 240 46 403 202 204 196 65 311 65 354 0 44 57 176-70 216-73 23-47-12-82 133l-100 428c-17 82-31 83-99 116-115 56-218 86-376 86-143 0-299-18-388-101-31-29-54-186-63-232l-69-315c-30-131-14-50-102-96-101-52-62-190-54-255 19-137-23-182 114-316 58-58 119-64 199-90 74-24 48-67 190-99-61-90-181-189-276-247l-255-142c-36-23-34-44-15-83 63-14 70-17 138 25 101 61 206 115 292 195 80 75 97 68 180 189z"/><path d="m20575 10261c0-70 40-137 95-176 19-13 43-25 67-25v11c-19 0-47 15-60 23-34 24-56 55-73 92-21 49-21 113 1 162 16 35 26 25 22 45-11-3-17-13-22-21-23-32-30-69-30-111zm203 264c0-8 10-32 14-38 15-26 43-50 66-68l15-11c22-16 41-30 65-42 13-7 22-13 34-20 7-4 11-6 18-9l86-48c76-41 176-83 250-122 13-6 25-11 37-17 86-43 202-98 289-136 25-11 48-23 73-35 19-8 130-62 147-64-23 42-37 57-54 108-25 72-3 91 3 117-97 50-208 100-308 149-35 17-66 32-101 49l-52 26c-18 8-33 16-51 24l-231 111c-19 9-64 33-77 36-14-9-24-32-46-51l-5-4c-24-20-22-13-68 10-11 6-13 5-18 11 6 2 21 6 26 8 12 6 40 38 44 52 3 8-3 10-11 13-23 10-77 41-97 41-22 0-48-45-48-69v-21zm-316-441c0-54 21-107 55-147l4-4c9-11 17-15 29-24 22-14 39-20 66-20-5 16-13 5-44 20-74 35-109 133-95 208 14 70 42 68 34 86-27-7-49-87-49-119zm-38-40c-13-1-3 2-10-5-15-14-32-54-36-73-12-50-6-107 19-152 9-17 11-22 26-37 1-1 1-1 2-2l8-7c18-16 46-30 72-30v8c-11 3-17 3-28 7-106 41-115 199-65 269 6 8 11 10 12 22zm-140-287c0-59 34-124 92-145 1 0 1-1 2-1 15-5 23-6 30 3-16 0-15 0-28 5-99 37-107 178-62 252 8 13 12 7 12 23-11-3-15-11-20-20-24-44-26-69-26-117zm-102-143c-18-4-21-22-28-36l-5-13c-10-26-2-16-7-28-2-7-1 5-3-7l5-56c0 15 0 30 0 45l13 56c2 4 5 10 7 14 5 10 12 18 18 25zm29 16c0-14 3-39 6-50 2-5 4-13 7-20l11-23c3-4 1-3 3-5 13-16 34-36 57-36-7 9-2 0-18 8-7 4-10 6-14 10l-32 43c-17 37-14 97-3 136l1 4c0 1 1 2 1 2l4 11c1 1 1 2 1 2 9 19 23 37 25 42-13-3-20-17-27-29l-19-56c-1-15-3-24-3-39zm108-140c-7 7-8 6-21 6l21-6zm-175-18c0-14-3-15 5-21 0 3 1 9 0 12-1 5 0 2-2 6l-3 3zm262-264c69-20 137-36 208-50l191-29c27-2 39-6 65 2 32 9 73 18 114 31 57 18 35 13 71 41l131 106c1 1 1 1 2 2l171 133c14 11 27 20 41 31l335 248c14 9 27 19 41 30 20 14 26 13 26 46v87c0 19-3 27-3 45-64 33-156 71-226 106l-178 84c-8 4-16 7-24 11l-198 96c-96 43-83 59-121 12-6-7-7-9-14-15l-122-137c-8-11-18-21-27-31l-131-154c-10-11-18-20-27-32l-377-483c-16-23-90-122-91-138l143-42zm-348 158c0 35 16 68 29 99l80 159c15 17 34 49 41 71 16 56 29 54 48 79 5 7 7 13 11 20 8 14 9 33 15 49 7 17 11 30 21 43 28 38 19 0 46 50 27 52 12 30 28 68 19 46 42 49 54 71 6 12 20 31 22 41 7 34 17 62 39 90 2 3 4 5 8 7 7 3 7 2 12 4 6 4 10 12 14 18 15 30 35 53 43 85 20 82 55 83 64 93 14 19 44 76 60 100l54 89c15 25 33 52 66 52 8 0 120-52 137-63 12 17 21 38 30 58 6 13 16 52 29 55 1-10 5-13 9-23 2-8 4-15 8-22 10 6 15 11 25 18 7 6 15 13 26 14-2-9-3-10-7-17l-55-112c32-21 124-60 163-78l214-102c84-37 205-100 291-145l77-42c16-10 34-20 51-29 21-10 73-35 27-53l-17-5c-3-26-2-37 4-65 3-14 6-19 11-32 2-5 4-10 6-14 11-23 40-82 57-96 15-12 41-18 57-28-11-20-45-37-62-50l-96-70c-49-33-95-69-142-104-6-4-11-6-16-11l-111-81c-32-25-80-58-109-83-6-6-11-8-17-12l-77-60c-31-24-64-46-93-72-10-8-20-15-31-23l-208-174c-6-6-22-25-30-25-70 0-193 7-263 22l-91 17c-68 9-211 47-281 70l-134 44c-8 2-17 5-26 8l-23 9c-25 10-49 21-68 40-12 12-20 26-20 48z"/><path d="m17590 14396c-58 0-118 2-170 10-22 4-56 5-82 10-28 5-47 10-76 16l-69 18c-72 24-130 46-198 76l-206 109c-72 37-162 93-236 129-13 7-22 8-34 15 1-31 14-29 14-82-1-15-2-32 0-47l11-88c5-15-1-5 8-13l380-192c7-4 7-4 14-7l118-56c29-16 108-43 142-55 14-4 21-8 36-12 14-4 26-7 37-11 15-4 28-5 43-9 69-20 219-35 299-21 28 5 19 12 48 13-3 12-30 52-39 65-44 61-29 86-40 132zm123-133c-28 0 8-40 15-50 15-18 26-32 41-50l46-45c9-8 16-17 25-23 87-63 207-110 330-124l124-12c56-7 114 1 172-8 52-8 127 2 179-5l165-14c0 76-2 34 10 81 3 9 3 24 5 38 17 93 64 97-19 96h-255c-26 1-49 4-83 4-115 0-275 15-382 47-13 4-20 7-33 11-122 41-147 91-182 114-12-18-15-28-25-48-32-58-97-12-133-12zm-1747-533c18 5 26 25 39 44l104 151c24 35 42 68 66 103 25 36 44 71 68 105l49 78c7 10 11 16 17 26l133 204c13 19 24 33 36 51 54 81 28 35 24 149-2 43-9 31-9 95-14-5-17-15-23-25l-114-176c-1-1-5-6-6-8l-39-60c-8-12-13-19-21-31l-120-187c-14-23-26-38-39-61l-118-185c-5-7-4-6-9-13l-14-25c-1-1-2-2-2-2-1-1-1-2-2-3 0-1-1-2-1-3-3-5-2-4-5-8l-16-23c-5-8-6-8-11-16-22-35-31-43-25-62 5-19 1-94 38-118zm27-17c17-25 62-45 89-63l209-126c59-28 105-51 169-76 17-6 31-9 47-14 8-2 13-5 23-7 10-2 16-2 27-4 13-3 7-3 24-7 60-11 123-11 183 2l83 26c47 20 88 42 122 78l17 17c1 1 4 4 5 5l212 196c6 5 8 7 14 12l405 377c15 11 23 9 25 31-100 0-83-5-193 0-57 2-93 12-148 23-42 8-91 25-130 39-25 9-43 15-65 23l-426 210c-11 6-19 10-29 15l-89 42c-48 25-43 7-72-36-1-1-1-2-2-3l-80-119c-1 0-2-1-2-2l-162-254c-8-12-10-13-18-25l-168-257c-23-35-50-66-70-103zm1619-404c71 0 143 3 213-7 64-8 59-14 86 6 22 17 45 29 69 45l269 179c134 85 344 225 470 317 17 12 55 29 61 49-12 1-23 4-38 6l-278 15c-102 0-292 9-388 33-14 4-20 7-34 10-36 8-34 11-63 20-18 5-14 5-29 11-41 16-109 53-142 84-1 0-2 1-2 2-28 25-45 38-71 68l-22 21-93-80c-10-10-13-11-24-20-9-7-14-13-22-21l-305-282c0-1-1-2-2-2 0-1-1-2-2-2l-65-61c-1-1-1-2-2-2-1-1-2-2-2-3l-100-91c0-1-1-2-2-2l-105-100c10-41 91-105 142-131l65-27c23-7 47-13 72-19 65-16 269-16 344-16zm259-39c-14 12-25 10-59 15-22 4-45 3-68 3-51 0-86 4-136 4-41 0-89-9-135-3-38 5-94 2-133 7-110 13-225 37-306 117-17 17-57 54-63 77-31-9-166-157-464-77-15 4-22 8-40 13-69 17-139 55-202 90l-277 171c-18 10-40 10-61 43-14 22-20 49-27 77-14 55-3 51-21 57-2 1-18 3-22 4v21c11 8 13 15 21 27 8 11 13 18 21 31l67 106c4 6 6 9 10 15l14 22c1 2 3 5 5 8 59 100 148 226 203 320l49 77c39 64 78 119 113 186l78 122c13 19 39 48 42 57h9c8-11 46-26 62-33l707-288c92-34 212-103 308-90 90 13 169 15 245-30 140-84 133-86 296-105l537-64c30-6 92-8 135-14 13-1 30-2 48-4 53-7 130-9 181-21 0-17-2-32 3-48l6-12v-43c-27-13-120-93-171-120 0-86 9-39 13-82-8-3-11-3-18-8-46-30-18 0-50-24l-836-561c-12-8-48-29-53-43h-31z"/><path d="m17673 16415c0-71 40-137 96-176 18-13 42-25 66-25v11c-19 0-47 15-60 23-34 24-56 55-73 92-21 48-21 113 1 162 16 35 26 25 22 45-11-3-17-13-22-21-23-32-30-70-30-111zm203 264c0-8 11-32 14-39 15-25 43-49 66-67l16-12c21-15 40-29 64-42 13-6 22-13 34-19 7-4 11-6 18-10l86-47c76-41 176-83 250-122 13-7 25-11 37-17 86-43 202-99 289-137 25-11 48-22 73-34 19-9 130-63 147-64-23 42-37 57-54 108-25 72-3 91 3 116-97 50-208 101-308 150-35 17-66 32-101 49l-52 25c-18 8-33 16-51 25l-231 111c-19 9-64 33-77 36-14-9-24-32-46-52l-5-3c-24-21-22-13-68 10-11 6-13 4-18 11 7 1 21 5 26 8 12 6 40 38 44 51 3 9-3 11-11 14-23 10-77 40-97 40-22 0-48-44-48-68v-21zm-316-441c0-54 21-107 55-147l4-4c10-11 17-16 30-24 21-14 38-20 65-20-4 15-13 5-44 20-74 35-109 133-94 207 13 71 42 69 33 87-27-7-49-87-49-119zm-38-40c-13-1-3 2-10-5-15-14-31-54-36-73-12-50-6-108 19-152 9-18 11-22 26-37 1-1 1-1 2-2l8-8c18-16 46-29 72-29v8c-10 3-17 3-28 7-106 41-115 199-64 269 5 8 10 10 11 22zm-140-287c0-59 34-124 92-145 1-1 1-1 2-1 15-5 23-6 30 3-16 0-15 0-28 5-99 37-107 177-62 252 8 13 12 6 12 23-10-3-14-11-20-20-24-44-26-69-26-117zm-102-143c-17-4-21-22-28-36l-5-13c-10-26-2-16-7-28-2-7 0 5-3-8l5-55c0 15 0 30 0 45l13 56c2 3 5 9 7 14 5 10 12 17 18 25zm29 16c0-14 3-40 6-50 2-5 4-14 7-20l11-23c3-5 2-3 3-5 14-16 34-37 57-37-7 10-1 1-18 9-6 3-9 6-14 10l-31 43c-17 37-15 97-4 136l1 4c0 1 1 1 1 2l4 11c1 1 1 2 1 2 9 19 24 37 25 42-13-4-20-17-27-29l-19-56c-1-15-3-24-3-39zm108-140c-7 7-8 5-21 5l21-5zm-175-18c0-15-3-16 5-22 0 4 1 10 0 13-1 5 0 2-2 6l-3 3zm262-264c69-20 137-36 208-50l191-30c27-1 39-5 65 2 32 10 73 18 114 31 57 19 35 14 71 41l131 107c1 0 1 1 2 1l171 133c14 11 27 21 41 32l335 247c14 10 27 20 41 31 20 14 26 13 26 46v87c0 19-2 26-2 45-65 33-157 71-227 105l-178 85c-8 4-15 7-24 11l-198 96c-96 43-82 59-121 12-6-7-7-9-14-16l-122-136c-8-11-18-21-27-31l-131-154c-10-12-18-20-27-32l-377-483c-16-23-90-122-91-138l143-42zm-348 158c0 34 16 67 29 98l80 159c15 17 34 50 41 71 16 57 29 55 48 80 5 7 7 13 11 20 8 14 9 33 15 49 7 17 11 30 21 43 28 38 19-1 46 50 27 52 12 30 28 68 20 45 42 48 54 71 6 12 20 31 22 41 7 34 17 62 39 89 2 4 4 6 8 8 7 3 7 2 12 4 6 4 11 12 14 18 16 29 35 53 43 85 20 82 55 82 64 93 14 18 44 76 60 100l55 89c14 25 32 52 65 52 8 0 120-52 137-63 12 17 21 38 30 58 6 13 16 52 30 55 0-10 4-14 8-24 2-7 4-14 8-21 10 6 15 11 25 18 7 6 15 13 26 14-2-9-3-10-7-17l-55-112c32-21 124-60 163-79l214-101c85-37 205-101 291-145l77-42c16-10 34-20 51-29 21-11 73-35 27-54l-16-4c-4-27-3-37 3-65 3-14 6-19 11-32 2-5 4-10 6-15 11-22 40-81 57-95 15-12 41-18 57-28-11-20-45-37-62-50l-96-70c-49-33-95-69-142-104-6-4-10-7-16-11l-111-82c-32-25-80-57-109-82-6-6-11-8-17-13l-77-59c-31-24-64-46-93-72-10-9-20-16-31-24l-208-173c-6-6-21-26-30-26-70 0-193 8-263 23l-91 17c-68 9-211 47-281 70l-134 43c-8 3-17 6-26 9l-23 9c-25 10-48 21-67 40-13 12-21 25-21 48z"/><path d="m14037 6829c0-70-39-137-95-176-18-13-42-24-67-24v10c19 0 48 15 60 23 35 24 57 56 73 92 22 49 22 113-1 162-16 36-26 25-21 45 10-3 16-12 22-21 23-32 29-69 29-111zm-202 264c0-8-11-31-15-38-14-26-43-50-66-68l-15-11c-22-16-41-29-65-42-12-7-21-13-34-20-6-3-11-6-17-9l-87-47c-76-42-175-84-250-123-12-6-24-11-36-17-87-42-202-98-289-136-25-11-48-23-73-34-20-9-131-63-148-65 23 43 37 57 55 108 24 72 3 91-3 117 96 50 207 100 308 149 34 17 66 33 100 50l53 25c18 8 33 16 50 24l232 112c18 8 63 33 76 36 15-10 24-33 47-52l4-4c25-20 22-13 68 10 12 6 14 5 19 11-7 2-21 6-27 9-11 5-40 38-44 51-2 9 3 10 12 14 22 9 76 40 96 40 22 0 49-45 49-69v-21zm315-441c0-54-20-107-55-146l-3-5c-10-10-18-15-30-23-21-15-38-21-65-21 4 16 12 5 44 20 73 35 108 134 94 208-14 70-42 68-33 86 26-7 48-87 48-119zm38-39c14-2 3 1 11-6 15-14 31-54 36-73 11-49 6-107-19-152-10-17-12-21-27-37 0 0-1-1-1-1l-8-8c-18-16-47-29-73-29v7c11 3 18 3 28 7 106 41 115 199 65 269-6 8-11 10-12 23zm140-288c0-59-33-124-92-145 0 0-1 0-2-1-14-5-23-6-30 3 16 0 16 0 28 5 100 37 107 178 62 252-7 13-11 7-11 23 10-3 14-11 19-20 25-44 26-69 26-117zm103-143c17-4 21-22 28-35l5-14c9-26 1-16 6-28 3-7 1 5 4-7l-5-55c0 15 0 30 0 45l-14 55c-2 4-4 10-7 15-4 9-12 17-17 24zm-30 16c0-14-2-39-5-50-2-5-4-13-7-20l-11-23c-3-4-2-2-4-4-13-17-34-37-56-37 6 9 1 0 18 8 6 4 9 6 14 10l31 44c17 37 15 96 4 135l-2 4c0 1 0 2 0 2l-5 12c0 0 0 1-1 1-9 19-23 37-24 42 13-3 20-17 26-29l19-55c2-15 3-24 3-40zm-108-140c8 7 9 6 22 6l-22-6zm176-18c0-14 3-15-6-21 0 3 0 9 1 13 1 4 0 1 2 5l3 3zm-262-264c-70-20-137-36-208-49l-191-30c-28-1-40-6-65 2-32 10-74 18-114 31-58 18-36 14-72 41l-131 106c0 1-1 1-1 2l-172 133c-13 11-26 21-41 31l-334 248c-14 9-27 20-42 30-20 15-26 13-26 46v87c0 19 3 27 3 45 65 34 156 71 227 106l177 84c8 4 16 7 24 11l199 96c95 43 82 59 120 12 6-7 7-8 14-15l122-137c9-11 18-21 28-31l131-154c9-11 18-20 27-31l377-484c15-23 90-122 91-138l-143-42zm348 158c0 35-16 68-29 99l-80 159c-15 17-35 49-41 71-17 56-29 54-48 79-5 7-7 13-12 21-8 13-9 33-15 48-6 18-11 30-20 43-28 39-20 0-46 50-28 53-12 30-28 68-20 46-43 49-54 71-6 13-21 31-23 42-7 33-16 62-38 89-3 3-5 5-9 7-6 4-6 2-11 5-7 3-11 11-14 18-16 29-35 52-43 84-21 82-55 83-64 94-14 18-44 75-60 99l-55 89c-14 25-32 52-65 52-9 0-120-52-138-63-12 18-20 38-29 58-6 14-16 52-30 56-1-11-5-14-8-24-3-8-5-14-8-21-11 5-15 10-25 17-8 6-16 13-26 14 2-8 2-9 6-17l56-112c-32-21-124-59-163-78l-214-102c-85-37-205-100-292-145l-76-41c-17-10-35-21-51-29-21-11-74-36-27-54l16-5c3-26 3-37-4-64-3-15-5-20-10-33-2-5-4-9-7-14-10-23-39-82-56-95-15-12-41-18-57-29 10-19 44-37 62-50l96-70c48-32 94-69 142-103 6-5 10-7 16-11l110-82c33-25 80-58 110-83 6-5 11-7 17-12l77-60c31-24 63-46 93-72 9-8 20-15 30-23l208-174c7-5 22-25 31-25 70 0 193 8 263 22l91 17c67 9 211 48 281 70l133 44c9 3 18 5 26 9l24 8c24 10 48 22 67 40 12 12 21 26 21 48z"/><path d="m15879 6248c53 0 106 2 152 9 20 3 51 4 74 9 24 5 42 9 68 14l61 17c65 21 117 40 178 68l184 97c64 33 144 83 211 116 11 5 20 7 30 12-1-27-12-25-12-73 0-13 1-29 0-41l-10-79c-4-14 1-5-7-12l-340-171c-6-4-6-4-12-7l-107-50c-25-14-95-39-126-49-13-4-19-7-32-11-13-4-23-7-33-10-14-4-26-4-39-8-62-18-196-31-267-19-25 4-17 11-43 12 2 11 26 46 34 58 40 55 26 77 36 118zm-110-119c25 0-6-36-13-44-13-17-23-29-36-45l-42-41c-8-7-14-14-22-20-78-57-185-99-295-111l-111-11c-51-6-102 1-154-7-47-7-114 2-160-4l-148-13c0 68 2 31-9 72-2 8-2 22-4 34-15 83-58 87 17 86h228c24 2 44 4 74 4 103 0 246 13 342 42 11 3 18 7 29 10 110 37 132 81 163 102 11-16 13-25 23-43 28-52 86-11 118-11zm1563-476c-17 4-23 22-35 39l-93 135c-22 31-38 61-59 92-22 32-39 64-61 94l-44 69c-6 9-9 15-15 24l-119 183c-11 16-21 29-32 45-49 72-25 32-21 133 1 39 8 28 8 85 12-5 14-13 20-22l102-158c1 0 4-5 5-6l35-54c8-11 12-17 19-28l108-168c12-20 22-33 35-54l105-166c4-6 4-4 8-11l13-22c0-1 1-2 1-3 1 0 1-1 2-2 0-1 1-2 1-2 3-5 2-4 5-8l13-21c5-7 6-6 10-13 20-32 28-39 23-56-4-17-1-84-34-105zm-24-16c-15-22-56-40-80-56l-187-113c-53-25-94-46-151-67-15-6-28-9-42-13-7-2-12-5-21-6-9-2-14-2-23-4-12-3-7-3-22-6-54-10-110-10-164 1l-74 23c-42 19-78 39-109 71l-16 15c0 1-3 3-4 4l-189 175c-5 5-8 7-13 11l-362 337c-13 10-21 9-23 28 90 0 74-5 173 0 51 2 83 11 132 20 38 8 81 23 117 36 22 8 38 13 57 20l382 188c10 5 17 9 26 13l79 38c44 22 39 6 65-32 0-1 1-2 1-3l72-106c1-1 1-2 2-2l145-227c7-11 9-12 16-23l150-230c21-31 45-58 63-92zm-1448-361c-64 0-128 2-190-6-58-8-54-12-78 6-19 14-40 25-61 40l-241 160c-120 75-308 200-421 283-14 11-49 26-54 44 11 0 21 3 34 5l249 14c91-1 261 8 347 29 13 3 17 6 30 9 32 7 30 10 57 18 16 5 12 4 25 9 37 15 98 48 128 75 0 1 1 2 2 2 24 23 40 34 63 61l19 20 84-72c9-9 12-10 21-18 8-6 13-12 20-19l272-252c1-1 2-2 2-2 1-1 2-1 2-2l58-55c1 0 2-1 2-1 1-1 2-2 2-2l89-82c1-1 2-2 2-2l94-89c-9-37-82-94-127-118l-58-24c-21-6-42-11-65-17-58-14-240-14-307-14zm-232-34c12 10 23 8 53 13 20 3 40 2 61 2 46 0 76 4 122 4 36 0 78-9 120-3 34 4 84 2 119 6 99 12 201 33 274 105 15 15 50 49 56 69 27-8 149-141 415-69 13 4 20 7 36 11 62 16 124 50 180 81l248 153c16 9 36 9 55 39 12 19 17 43 24 69 13 49 3 45 19 50 1 1 16 3 20 4v19c-11 7-12 13-19 23-7 10-12 17-19 29l-60 94c-4 5-5 8-9 14l-12 19c-1 2-3 5-5 7-53 90-133 202-182 287l-43 69c-36 57-70 106-102 166l-69 109c-12 17-35 43-38 51h-7c-8-10-42-23-57-29l-632-258c-82-30-189-92-276-80-80 11-150 13-218-28-126-74-119-76-265-93l-480-57c-27-6-82-8-121-13-12-1-27-2-43-4-48-6-116-8-162-18 0-16 2-29-3-43l-5-11v-38c24-12 107-84 154-108 0-76-9-35-12-73 6-3 10-3 16-7 41-27 16 0 45-22l747-502c11-7 43-25 48-37h27z"/></g><text x="10500" y="14850" fill="#373435" font-family="&apos;Arial Black&apos;" font-weight="900" font-size="529.17" transform="matrix(.80404 0 0 .78707 5809.22-4360.32)">NN 1</text></g></g><g clip-path="url(#1)"><g><g><g fill="#ff0a4b" stroke="#ff0a4b" stroke-width="7.62"><path d="m16308 24237l61-25010c419-473 453-472 577-555-21 8565-42 17131-64 25697 0 11 5 18-2 17-186-27-239-34-572-149z"/><path d="m15103 22886l51-20977c161-844 476-1587 580-1699l-58 23616c-438-499-436-626-573-940z"/><path d="m17474 24450l64-26157c4-1 469-243 576-239l-65 26420c-134-2-133 34-575-24z"/><path d="m18629 24382l65-26477c-5 0 290-63 576-39l-65 26191c-149 124-138 157-576 325z"/><path d="m19706 24781l65-26477c-5 0 290-63 576-39l-65 26191c-149 124-138 157-576 325z"/><path d="m20783 25180l65-26477c-5 1 290-63 576-39l-65 26191c-149 124-138 157-576 325z"/></g><g/></g><g stroke="#201e1e"><path d="m2474 18453c-24-14 21-38 35-3 16 44-56 76-85 26-35-60 49-127 112-72 17 14 22 27 31 46 4 9 18 6 26 6 588 0 1177 0 1765 0 52 0 37-3 63 41 45 73 137 118 214 65 98-68 21-197-50-159-22 12-28 37-3 51 16 9 35 17 21 41-31 51-137 0-106-90 30-90 146-98 215-38 33 29 36 48 58 79 9 13 17 10 34 10 232-3 467 0 699 0 96 0 1092 1 1096 0 8-3 27-74 93-68 67 6 77 93 22 107-40 10-58-40-33-48 9-2 12 3 15 9" fill="none" stroke-width="50"/><g fill="#201e1e" font-family="&apos;Baskerville Old Face&apos;" stroke-width="25"><text x="8654" y="14850" font-size="1027.36" transform="matrix(.7367 0 0 .78707-4083.47 5904.37)">Texto 01</text><g font-size="874.69"><text x="8929" y="14850" transform="matrix(.72847 0 0 .78707-4152.68 6509.94)">Texto 02 </text><text x="8566" y="14850" transform="matrix(.72847 0 0 .78707-3120.15 7731.64)">00.00.0000</text></g></g></g><text x="10500" y="14850" fill="#373435" font-family="&apos;Arial Black&apos;" font-weight="900" font-size="529.17" transform="matrix(.80404 0 0 .78707-2436.5-4325.65)">NN 1</text></g></g></svg>