<svg xmlns="http://www.w3.org/2000/svg" width="744.09" height="1052.36" viewBox="0 0 21000 29700" shape-rendering="geometricPrecision" image-rendering="optimizeQuality" fill-rule="evenodd" clip-rule="evenodd"><defs><clipPath id="0"><path d="m14081 25510c1159 560 3360 452 4028-584 666-1033 521-4016 584-5453 158-3596 558-6324 662-9225 115-3221-2081-5403-4727-5950-3635-753-3442 4174-2982 6659 271 1368 738 2560 1079 3898 630 2468 70 6300 289 8869 113 888 463 1466 1067 1786"/></clipPath><clipPath id="1"><path d="m7018 25522c-1159 560-3360 452-4028-584-666-1033-521-4016-584-5453-158-3596-558-6324-662-9225-115-3221 2081-5403 4727-5950 3635-753 3442 4174 2982 6659-271 1368-738 2560-1079 3898-630 2468-70 6300-289 8869-113 887-463 1466-1067 1786"/></clipPath></defs><g fill="#201e1e" font-family="&apos;Arial&apos;" font-size="423.33"><text x="300" y="28462">DESC 1</text><text x="281" y="28926">DESC 2</text><text x="278" y="29422">DESC 3</text></g><g clip-path="url(#0)"><g><g fill="#201e1e" stroke="#201e1e" stroke-width="7.62"><path d="m17857 8072c212-18 100-80 195-102 0 130-21 343-42 469-69 431 28 283-172 330 0-62 0-124 0-186 0-62 10-97 9-167 0-127 10-224 10-344zm487-342c-7-40-56-31-45 4 7 24 43 28 45-4zm-759-26c53 53 77-52 35-51-15 0-48 32-40 45 1 2 3 4 5 6zm99 161c-13 33-49-2-25-19 12-8 28 1 25 19zm-39 37c16 18 16 12 36-7 6-5 27-21 26-29-1-19-15-42-36-44-37-4-55 33-35 67 3 5 5 9 9 13zm428-194c-1-20 32 0 17 8-6 4-14-1-17-8zm0 36c69 20 68-89-1-70-15 5-30 24-26 40 4 16 12 23 27 30zm-134 133c3-47-71-67-60-8 7 42 51 44 60 8zm-643-310c-21-22 17-35 23-12 3 12-10 20-23 12zm36-35c-37-39-86-7-65 43 24 53 95 2 65-43zm850 939c0-66 12-100 21-164 9-61 29-282 56-316 70-91 39-85 99-86 0 51-105 536-125 617-22 85-25 127-79 163 0-79 30-157 18-214-1 2-2 5-2 7l-33 190c-9 43-13 46-51 60-25 10-63 20-90 22 0-89 11-137 19-214l45-373c29-290-19-156 168-156-15 65-19 157-29 231-11 74-27 146-27 233h10zm-716 205c-27-2-69-27-84-46-38-46-130-612-167-688 67 5 22 32 121 9 20 84 92 448 93 520 21-15 16-11 9-53l-83-476c56 0 54 0 75 36 42 68 65 150 164 159l12 167 9-167c102-54 49-40 95-82 42-38 75-6 128-2 0 127 2 255 0 382 0 48-7 51-9 92-2 31 2 61-2 92-11 104 6 150-35 150-129 0-140-4-140-186h-9c0 69 9 111 9 167-44-4-103-25-140-46-37-20-15-1-28-27-10-19-36-170-36-206h-10c0 44 17 180 28 205zm-408-1069c0-39 55-120 76-146 33-39 71-70 113-101 69-50 143-77 223-102 28-10 59-12 80-22-7 79-89 216 82 345 189 143 440 56 503-123 11-33 4-57 12-81 18-59 272 61 311 205 12 42 17 117 21 164 7 76 52 184-31 239-40 26-48 16-90 13 14-28 15-64 28-94 29-65 52-44 28-148l-5 25c0 0 5 22 5 31 0 57-60 94-111 65-46 197-180 74-251 74-78 0-28 77-130 94-113 19-82-46-206-20l10-37c-33 25-75 214-207 87-77-76-64-135-147-189l11 37c-64 0-108 52-170-26-54-68 1-179-81-234 17 73 27 32 38 158 5 66 36 72 36 149-139 0-112-86-103-160 12-98-45-116-45-203zm1263 270c10-2 2-20 1-20-16 2-17 23-1 20zm-381-641c1-49 18-60 41-89l65-75c2-1 3-3 5-4l127-115c65-48 260-201 320-173-5 44 12 15-27 39-11 6-29 12-45 20-76 37-241 155-302 209l-184 188zm-9-75c-86-57-55-83-186-83-108 0-124 79-190 116-47 26-245 48-412 211-209 204-67 325-67 370 0 45-58 183 72 225 75 24 48-12 84 139l102 446c17 86 31 87 101 122 117 58 223 90 384 90 146 0 306-20 396-106 32-30 55-194 65-242l71-329c30-137 14-52 104-100 103-55 63-198 54-266-18-143 24-190-116-330-59-60-121-67-203-94-76-25-49-70-194-104 63-93 185-196 282-257l260-149c37-24 35-46 15-86-63-15-71-17-141 26-103 64-210 120-298 204-81 78-98 71-183 197z"/><path d="m22470 6066c0 49 9 44 9 86 0 119 0 232-9 336l-10 345c-3 70-7 88-32 140-35 76-84 153-143 211-35 36-49 68-112 70v-374c0-69 8-107 10-162 1-54-2-110-1-164 1-58 10-93 10-162 102-22 67-53 172-37 36 5 51 0 77-30 96-113-75-190 29-259zm-1188-498c-9 40-8 58 10 96 70 0 123-8 57-105l-67 9zm450 422c0 48 115 54 115-29 0-64-115-45-115 29zm-1321-259c39 170 169 52 95-10-52-44-84 2-95 10zm1628 373c0 88 70 59 115 29l-10-76h-76c-14 19-29 24-29 47zm0-469l9 67c154 37 109-105 48-105-29 0-57 9-57 38zm-891 268c0 26 5 27 10 48 83 40 105-5 105-76-7-5-40-29-48-29-27 0-67 30-67 57zm-287-249c0 23 19 43 29 58 37 0 49 4 71-14 42-35 16-63-4-101h-67c-3 5-29 57-29 57zm-785 163c86 23 53 211 239 211 84 0 136-149 238-8 22 30 50 62 87 75 20 8 28 7 53 4 37-3 24-4 53-23 118-73 120 79 280 150 134 60 166-35 247-35 49 0 130 134 220 134h67c34 0 105-86 124-86 136 0 123 134 278 134 73 0 51-70 164-11 56 30 37 27 37 221 0 144-19 249-19 393v297c-156 0-636-141-801-195l-1148-346c-47-13-90-34-129-43l11-660c6-55-1-133-1-212zm2291-156c33 36 30 47 38 106 14 98 74 92 74 232 0 34-76 68-76 125 0 19 105 214-40 203-128-11-110 36-142 36-75 0-65-48-173-48-48 0-66 39-86 39-116 0-140-135-258-135-73 0-92 87-182 87-73 0-143-81-190-117-122-94-186 152-387-53-178-181-165-60-266-60-92 0-110-106-152-126-109-53-164 59-193 59-208 0-123-258-325-211v19c53 1 47-1 47 77-50 1-56 19-95 19-53 0-190-185 111-272 47-13 56-21 91-34 54-20 143-11 206-33 113-38 84-15 214-15 86 0 75-78 297-77 115 1 142-27 224-55 39-13 120-2 169-2 31-1 66-26 101-34 32-8 96-9 124 4 10 4 13 13 14 23 3 14 0 66 0 85 0 60 0 120 1 180 0 34-1 46-36 54l-13 4v19c65-8 43-12 103 26 91 58 86 24 180 16 52-4 62 5 105-35 10-10 42-39 27-54-16-16-21-18-23-45-3-34-1-78-1-114 0-39-2-174 24-199 28-24 83-18 117-17 61 3 66 35 111 70 79 60 139 55 187 160 26 59 34 51 73 93zm-632 112c-73 7-125 30-180-37-26-33-20-62 27-63 27 0 57 2 85 2 50 1 75 8 123-13 21-9 28-2 32 21 6 30 3 79-34 87-14 3-38 2-53 3zm9-299c-40 6-138 17-174-2-32-16-36-55-30-87 7-32 26-23 54-19 57 6 118 1 173-19 12-4 63-28 73-21 14 8-1 96-8 111-16 27-60 32-88 37zm-160-363c14-2 41-6 51 6 29 33 20-9 45-17 31-8 180-7 137 54-41 60-253 71-272 0-4-23 21-38 39-43zm-76-254c3-101 111-208 159-296 32-60 30-29 52 22 56 130 194 323-11 404-84 33-138 20-181-62-12-22-19-43-19-68zm38 227c-101 48-31 188-47 262-38 4-79-2-115 2-17 2-56 19-73 25l-18 5c-37 13-84 8-136 8-95-1-143 44-222 56-43 6-89 1-132 1-66 0-65 10-111 33-130 64-125 35-224 35-53 0-119 29-180 40-30 5-71 4-105 10-26 5-56 23-79 36-50 27-258 60-258 191 0 205 136 158 191 154 0 127 0 255 0 383 0 140-9 247-9 383 101 68 735 236 854 266 78 20 138 44 213 65 184 52 999 326 1103 269 19-10 60-42 77-57 70-58 195-244 222-344 12-42 21-849 21-956 0-48-22-82-39-115-67-129 5-118-103-222-79-78-34-114-159-188-57-34-73-31-122-84-87-95-175-12-200-60-7-14-6-44-7-60-3-31-7-60-10-91-3-33-6-32-37-47-53-24-78-20-131-28-8-2-13-3-18-8 11-20 56-32 78-45 171-102 41-324-18-452-17-38-12-52-19-90-8-43-53-41-70-4-12 28-12 52-29 84-65 122-192 199-161 361 30 132 146 105 142 142-1 12-5 22-16 27-11 3-22 1-38 7l-7 2-8 4z"/><path d="m8976 10604c-72-319-193-723-236-1041l-69-395c129-51 117 35 147 158l122 568c30 126 55 263 79 385 26 129 53 246 82 370-109 73-109 25-125-45zm-972-2126c-59-123 162-536 509-577 87-10 139-13 235 2 187 31 443 262 443 382 0 124-395 340-667 340-278 0-329-64-497-137-48-21-36 7-23-10zm-46-12c0 159-9 226 76 377 118 211 362 347 603 347l150 801c30 128 59 250 92 382l66 285c13 57 16 42 43 82 20-2 74-11 95-18 41-12 15 2 38-19 51-48 11-120-14-230l-79-373c-14-72-27-127-41-196-26-124-158-683-158-759 229-53 453-339 453-611 0-237-113-442-281-557l-107-61c-285-128-520-47-727 114-109 84-209 281-209 436z"/><path d="m12941 10790c77-142 233-222 383-265 194-55 429 32 565 174 151 156 176 265 197 476 10 94-28 180-75 260-62 105-141 208-249 269-162 92-327 98-502 41-200-66-371-226-429-432-52-186 23-361 110-523zm554 470c-90-2-132-45-106-136 63-162 219-81 228 11v7c0 56-50 109-105 117l-17 1zm-101-66c1 1 1 0 0 0zm127 29c0 1 1 0 0 0zm70-42c0 0 0 0 0 0zm-368-14c9 225 320 324 461 146 61-82 88-201 22-289-73-90-196-164-311-105-65 34-142 109-164 179-7 24-8 44-8 69zm1125-141c23 62-56 80-42 87 24 12 93 3 134 37 51 42 37 173 8 225-51 89-179 2-215 20-27 14 102 46 54 109-39 43-108 8-151-12-100-48-84-77-45-170 28-69 52-95 39-173-8-45-21-108 31-131 30-13 107-35 139-30 26 4 38 15 48 38zm-1896-86c0-69-7-86 18-137 83-163 187-18 286 1 47 10 16-28-5-41-14-9-64-33-70-40-25-24-15-47 2-73 38-56 102 10 133 40 136 133 43 153-10 295-32 87-28 107-31 196-1 32-5 31-40 46-42 18-115 41-149-6-37-54 134-43-1-78-98-26-105-37-105-133 68 1 80 3 144 18 31 8 44 9 7-12-43-24-129-60-177-76h-2zm267-365c-106 0-38 56-139 86-20 6-40 6-66 17-119 48-118 160-118 262 0 64 7-3 17 39 12 53-14 32 4 108 20 81 6 14 57 86 73 102 69 137 203 123 12-1 73-11 83-1 0 0 38 106 45 120 83 186 257 344 453 401 225 64 455-2 637-142 57-45 64-60 105-116 32-42 56-40 104-23 19 8 37 16 56 24 196 75 172-64 266-100 104-40 167-256 70-339-39-34-65-29-81-79-43-130-84-118-202-87-16 4-82 21-93 5-23-31-45-107-72-151-56-89-169-201-258-260-234-154-487-119-711 36-40 27-62 54-97 81-118 93-124-80-254-90h-9z"/><path d="m13643 5959c61-5 124 26 165 69 17 17 42 58 51 81 40 103 13 207-58 290-46 53-52 31-70-23-10-31-18-63-28-95-20-62-43-130-65-191-8-21-46-107-36-123l4-3 4-3c6-1 26-1 33-2zm-245-400c4-4 6-6 10-9 21-4 21 16 27 33 22 62 41 129 61 193 5 14 9 29 13 44 1 6-9 9-14 12-10 6-7 6-20 9-48 17-110 71-142 111-32 42-54 87-61 140-11 100 16 172 102 228 26 16 78 36 110 36 6 0 13-1 3-5-15-7-55-40-66-53-49-56-68-135-34-204 30-55 105-107 167-117 14-2 77 205 86 230 23 71 48 140 72 211 12 36 18 38-12 59-63 46-194 54-269 43-235-38-409-240-351-483 42-174 162-321 285-446 10-11 21-22 33-32zm-30-326c-33-104-26-320-1-427 15-65 67-237 164-206 73 31 101 136 99 208-2 71-26 123-53 188-30 67-133 213-189 261 0 0-8 8-15-10-2-5-4-10-5-14zm-31 76c-68 68-141 155-199 232-210 282-338 661 6 901 127 87 284 124 435 108 51-5 80-15 126-36 11-5 21-9 34-10 15 23 74 230 81 268 7 36 9 69 3 106-21 115-135 203-248 221-41 7-83 6-123-2l-6-1c-9-2-12-4-20-8 51-47 88-27 137-103 44-76 24-165-39-223-97-91-251-30-275 101-26 185 127 299 302 277 201-32 351-184 299-397-17-66-38-124-58-189-5-18-17-55-14-73 4-6 45-34 54-42 46-37 109-107 132-162 23-60 31-82 29-151-4-126-80-229-192-284-58-29-142-43-205-31-17 4-44 10-55-6-19-28-45-133-58-172-10-29-34-92-29-120l2-5 3-4c19-21 35-36 52-58 4-5 7-6 12-13 50-65 92-123 126-198 132-299 50-554-148-797-10-12-20-23-30-35-11-10-20 2-29 11l-8 8c-21 21-44 61-59 89-91 164-111 385-81 568 11 64 25 125 46 187 8 23 14 20-3 43z"/><path d="m18299 11657c63 0 144-77 103-161-39 3-40 38-79 2-11-10-19-21-25-34l-3-9c-12-27 5-24-28-24-15 0-51 33-78 39 0 76 14 187 110 187zm-51-419c-15 0-13 21-17 35-5 18-7 17-12 39-20 94-47 143 22 100 95-58 32-66 97-103 98-57 36 9 139-48 40-23 29-5 54-43l-136 25-147-5zm-97-213c45-24 50-26 65-84 13-51-13-59-50-80-18-11-25-17-38-33-54-69-39-92-68-145-32 2-36 11-60 23-6 2-14 5-18 7-36 17 22-12-9 4-20 11-22 6-22 24 0 53 117 194 151 236l49 48zm-342-259c-62 0-89 3-103 33l-51 78c-62 63-216 45-285-14l-6-7c-22-19-41-32-59-57-16-23-29-61-56-73l-99-31-4 73c-9 98-21 112-67 199 70 36 223 102 303 117 39 7 122 32 174 38 15 2 25 7 42 10 61 11 242 13 307-5 18-5 36-7 56-15 17-6 11-5 29-9 17-5 8 1 25-7-26-54-9-24-60-76l-57-78c-44-65-60-132-89-176zm499 184c-20 19-77 133-15 133 138 0 245-53 318-121 55-53 105-123 129-200 2-7 5-17 8-24 8-19 27-41 7-52-20-11-134 47-156 58-99 49-108 88-174 129-27 15-29 5-85 50-11 9-23 18-32 27zm-141-341c-16 12-25 15-27 35-1 23 28 81 39 94 42 47 63 37 88 35 0-38 15-65 27-96 9-25 18-62 18-98 0-20-6-27-6-58-44 0-68 35-139 88zm319-139c0-35-6-63-26-78-28 60-76 266-92 309-36 99 55-2 71-27 40-68 47-128 47-204zm-2116 51c-51 0-88-30-120-54-8-5-9-6-15-11l-13-13c-19-20-29-40-42-68-38-82-43-47-172-47l-357 43c-40 10-151 23-185 34-62 22-16 120-123 123 14 18 25 16 57 11l182-18c278 1 455-28 737 37 21 5 31 10 50 16l141 52c33 16 56 25 87 42 50 27 54 40 89 40 0-139 74-208-4-248l-44-20c-22-12-60-35-88-35-17 0-65 116-180 116zm-1575-19c-5-14-2-6-10-16-28-35-25-36-55-36-7 16-12 28-13 52 40 9 38 9 78 0zm3336 84c18 4 14 9 41-10 19-13 20-17 36-30 15-12 65-46 65-63 0-21-23-33-45-33-75 0-83 78-97 136zm-852-187c-43-29-99-23-166-47l-158-49c-37-13-55-29-94-39-7 9-7 17-11 28l-21 82c-47 175-6 145 68 132 36-6 81 2 113 14 49 18 116 84 121 143 44 4 72 32 123 32l25-296zm-2179-18c-17 4-20 7-45 13-146 32-161 17-183 108 75 0 118-10 176-18 59-7 112-18 153-40 0-37-6-45-6-84-24 0-14 1-27 5l-68 16zm2354 18c-30 0-44 3-65-7-16 24-18 8-19 45 33 0 30-2 52-12 31-16 26-9 32-26zm344 302c-13-87-23-196 0-280 7-22 17-30 17-42 0-29-24-11-50-5l-214 25c16 22 47 31 71 44 35 20 54 39 70 72 6 13 3 7 8 18 6 11 12 22 17 35 30 81 2 128 14 179 58-13 76 12 67-46zm-3113-322c16 23 33 39 58 52 44-82 3-84-58-52zm295-79c-11 4-20 6-30 8-84 22-93 14-110 45 27 7 34 17 58 52 22-5 35-9 58-13 26-4 32-8 58-13 80-18 97-15 97-45 0-5-15-33-18-40-20-41-28-24-113 6zm3429-24c-14-44-112-95-157-102-107-15-226 80-277 167-33 56-54 119-62 183-1 8-1 15-1 23 0 37 5 104 17 132 1 4 1 18 23 19l108-54c0-43-2-83 6-117 5-17 10-26 15-43 6-17 8-28 17-41 8-12 19-26 27-38 41-59 139-82 192-31 20 19 17 31 40 38 29-20 20-30 31-67 5-17 21-53 21-69zm348-90c-40 3-70 27-100 41-8 5-9 4-18 8-18 10-15 11-30 22 5 61 64 125 10 339-17 70-45 109-49 125 39-1 63-22 93-36 33-14 48-18 81-26 37-10 37-36 43-71 5-35 9-117 9-153-2-85-19-167-39-249zm-3556 51c0-21 3-20-28-10-42 13-30 13-55 30 7 15 9 29 17 47 7 16 13 24 21 37 54-29 45-20 45-104zm-499-61c-27 10-36 15-43 42-9 40-27 102-19 135 36 0 54-7 84-12 33-6 40-11 50-41 8-25 9-52 14-77 8-44 32-89-86-47zm861 16c-9-31-23-21-44-46-40-49 26-88-117-24-176 79-168 53-168 180 39 0 78-22 109-33l43-15c1-1 3-1 5-2 1 0 3-1 4-2l168-58zm-362-97c0-27-4-14-11-14 0 0-10 3-11 3-2 1-7 4-9 5-15 9-24 17-33 32-16 27-27 65-19 97 102-9 83-60 83-123zm1420 59c-25-15-42-17-77-20 2 26 11 25 21 57 23 79 10 45 8 85-2 62-10 56-10 90 0 18 136 78 161 84 12-29 46-202 38-225-13-32-108-54-141-71zm2123-7c-3-55-66-179-96-231-10-17-15-27-20-47-35 3-28 21-39 52-26 75-80 195-42 237l6 6c1 1 3 2 4 3 1 1 8 9 9 10l36 54c38-25 142-74 142-84zm-3415 154c-90 33-102 29-102 72 43-11 4-23 64-34 26-5 47-4 74 6 82 32 13 47 129 30 19-3 21-2 38-7 62-18 381-67 431-66l161-7c31-6 26-24 16-54l-11-113c-1-40-8-20-89-20v26c0 5 75 103 20 103-34 0-66-109-97-109-100 0-35 7-91 18-14 3-14 1-28 5-35 9-42 7-62 22l-15 11c-37 20-78 21-127 21-54 0-59 11-94 22l-217 74zm899-153c13-32 25-26 32-53-13-16-59 4-71 7v90c32-7 28-16 39-44zm-1470-25c34-9 32-2 50-28-17-16-117-14-129 39 17 8-6 6 19 6 23 0 42-13 60-17zm2435-87c-100-6-150-26-243-52-39-11-41 10-50 47-9 37-39 154-28 185 9 29 75 50 101 60 10 4 20 8 30 12l146 47c12 4 45 13 60 14 16 1 34 0 48 6 36 16 42-33 46-58 11-56 23-109 34-164 19-94 0-96-92-97-17 0-35 1-52 0zm-1249 59c-14-25-28-52-38-78-48-117-4-67-156-31l9 10c30 30 68 13 68 119 44 10 58 2 93-11 13-5 11-3 24-9zm168-122c-4-86 20-105-88-75-58 16-84 8-35 113l17 35c3 8 5 14 7 18 9 21 1-9 8 18 27 0 97-5 97-32l-6-77zm614-66l-101-35c-25-6-37-2-61-10-96-28-209-16-304-12-133 6-83 61-78 129 3 39-1 50 7 84 30 0 60 0 90 0 55 0 100-19 163 5 81 30 50 6 134 46 22 10 50 13 73 19 38 10 59 30 86 37 61 16 64-81 71-119 6-31 14-54 16-86 2-19 8-18-17-29-24-11-54-21-79-29zm1694 31c-15 14-52 41-55 60-4 23-1 12 25 22 68 26 78 76 101-11l37-130c7-25 9-8 10-42-67 45-68 56-118 101zm-1494-40c-50 54 36 62 69 69 122 29 178 43 306 44 19 0 37 0 56 0 6-45 54-204 15-232-25-18-87 3-115 10-105 22-247 37-331 109zm-821-54c-3-34-11-56-13-97-1-32-8-70-12-98-7-54 5-212-84-62-45 76-80 226-39 302 31-3 43-15 77-19 42-6 43-8 71-26zm2343-375c-32-3-21-8-38 13l-183 193c-89 94-111 102-208 179-2 1-6 4-7 5l-135 78c-68 21-67 25-132 50l-95 27c-24 7-81 8-110 12-17 2-94 8-104 18-10 11-34 192-39 219-3 15-23 95-11 104 13 10 115 6 132 6 99-1 192-3 282-34 38-14 29-19 51-56 71-115 103-186 228-256 72-40 130-42 210-34 46 5 60-19 91-49 35-33 71-67 106-100 116-89 63-60 3-210-18-44-41-107-41-165zm-1096 62c-127 22-271 23-370 117-76 72 38 78 88 70 82-14 154-47 235-65 29-6 102-11 113-44 4-14 12-78-6-84-12-4-47 3-60 6zm1276-4c37-54 10-15 29-80 15-50 69-202 62-236l-26 13c-26 21-58 42-81 63-13 12-23 20-37 32-19 16-10 51-7 74 7 46 22 105 60 134zm132-423l88-280c-19-11-17-12-33-7-143 49-221 256-245 394-4 25-6 42-4 67 24 6 32-10 50-26 39-36 51-38 91-64 33-20 42-48 53-84zm81-396c50-18 76 66 66 104-19 74-73 226-79 289 34 0 97-34 132-48 36-15 96-43 133-35-6 21-22 21-42 28-75 26-155 52-222 95-39 25-77 227-96 285l-46 154c-11 43 0 69 32 89 19 5 294-148 374-109-14 19-15 16-45 19-33 3-26 5-52 13-34 10-61 16-95 27-27 8-156 56-163 83 2 16 119 219 139 263 21 44 34 88 61 130 59-1 85-21 148-6v13c-50 11-92 3-135 26 1 27 8 34 14 61 36 145 42 185 42 340 0 16-3 75 17 82 31 11 36-16 62 13-17 24-20 11-44 11-48 0-43 24-62 115-23 102-73 212-148 285-1 1-2 2-3 3l-88 80c-1 1-2 2-3 3-15 12-20 12-36 23-16 10-25 14-22 23l88-16c117-22 203-13 318-4-3 46-33 20-66 15-26-5-67-2-95-2-76 0-145 12-215 31-15 4-23 4-37 8-22 6-48 17-70 26-38 17-99 37-123 71 15 29 23 16 42 41 9 11 22 37 28 50 26 51 19 143-8 203-7 14-7 13-13 25-22 40-57 74-89 105-36 33-72 41-122 41-113-1-185-76-217-176-8-22-10-41-15-63-29 6-24 13-58 19-64 9-117 24-187 26-50 2-206-17-256-35l-195-63c-40-10-84-33-124-51-33-14-65-27-96-45-31-18-63-33-94-54-49-32-97-55-141-92l-92-69c-8-7-9-8-18-15-83-62-161-130-249-183l-115-66-238-91c-180-66-517-82-705-82-145 0-139 1-278 13-277 25-230-5-406-13l-300-55c-36-11-8-16-55-16 2-32 13-24 40-15l116 26c81 17 236 46 315 47 35 1 38 6 71 7l206-6c87-5 193-14 272-7 51 4 55-7 135 0 47 4 92-3 138 4 47 6 89 6 136 12l390 81c13 5 15 7 28 11 56 15 97 39 149 64 51 24 89 55 138 81 1 1 13 7 13 7 89 57 263 198 366 273 1 1 2 2 4 3l82 52c85 59 152 75 216 113l292 102c80 18 158 38 255 36 144-2 155-24 245-45 0-140 52-236 52-317-37-9-69-67-108-63-10 1-51 19-68 23-116 27-263 36-384 13-24-5-44-9-76-14-28-4-46-11-68-16-27-6-43-10-73-17-48-11-85-28-130-44l-171-82c-9 9 0 3-16 11l-55 21c-70 18-139-11-196-49-28-18-52-48-72-76-28-37-33-85-46-128-14-41-157-102-201-121-44-20-90-30-137-45l-96-26c-26-7-59-6-85-12-122-26-359-14-497-14-40 0-50 7-90 7-60 0-169 9-228 24l-129 19c-60 11-131 8-186 14-81 9-301 3-377-8-51-8-135-3-177-23 7-19-10-7 16-17l520 23c117 1 202-26 323-26-8-20-19-22-38-27-117-30-11-62-132-39l-161 33c-21 3-41 0-62 2-56 6-248 22-297 12-24-5-28-7-59-6-47 0-72-7-123-7v-19h136c-3-34-8-39-45-40-25 0-52 1-78 1 10-37 50-26 110-26 9-14 15-19 19-38-54-13-87 12-142 0v-20c56 0 98-9 142-19 6-24 15-45 19-66 5-28 7-43 12-65 20-93 11-156 66-172 131-39 150-50 137 20l-33 208c-4 37 6 40 31 31 13-5 20-9 35-12 6-2 10-2 16-3 14-4 10-3 15-5l61-16c141-48 96-18 107-106 15-114 130-139 134-189 3-29-9-43 14-50 10-3 44 8 51 12 0 77-14 143-19 206 29 7 17 5 43-7l102-48c88-44 107-28 114-85l24-273c9-111-8-182 46-187 14 22 13 15 13 51l-7 181c-5 57-24 173-13 220 26-1 59-14 78-17l219-73c0-37-5-65-10-100-13-90 29-175 59-258 12-30 20-48 38-72 67-92 101-74 74-222-16-94 5-67 78-65 70 1 29 23 45 219l13 207c0 78 6 132 6 207 61 14 194-42 448 16l187 61c44 12 41-32 51-101l48-205c9-38 13-63 18-101 5-38 24-36 62-44 120-26 234-52 352-86 34-9 164-42 191-24 29 20-5 137-11 171-15 85-27 174-40 260-4 22-31 203-31 211 3 20 2 18 28 18 90 2 300-50 382-91l5-3 110-58c69-41 134-94 193-148l210-217c104-118 54-40 67-168 5-50 4-73 16-125 32-136 76-222 158-335 22-30 70-74 102-94 23-15 43-25 68-35 29-11 33-16 58-25z"/><path d="m15609 21871c-259-21-122-97-238-124 0 158 26 418 51 572 84 524-34 344 210 401 0-76 0-151 0-227 0-75-12-117-12-203 1-155-11-273-11-419zm-593-416c8-49 67-38 55 4-9 31-54 35-55-4zm923-31c-64 63-93-64-42-63 19 1 59 40 49 55-2 3-4 5-7 8zm-120 196c16 40 60-3 31-23-15-10-35 1-31 23zm48 45c-20 21-20 14-45-9-6-6-32-26-31-36 1-22 19-50 44-53 45-5 67 41 43 82-4 6-7 10-11 16zm-522-236c1-25-38-1-20 9 7 4 17-1 20-9zm1 43c-85 24-83-109 1-85 18 6 37 29 32 49-5 19-15 28-33 36zm163 162c-5-57 87-82 73-9-9 51-62 53-73 9zm783-378c26-26-22-42-28-14-4 15 12 24 28 14zm-45-43c46-47 106-7 79 53-28 65-114 3-79-53zm-1034 1145c0-81-15-123-26-200-11-74-35-344-67-385-87-111-48-104-122-105 0 63 128 653 153 752 26 103 30 154 96 198 0-96-37-191-23-260 2 2 3 6 4 8l40 231c10 52 16 56 62 74 30 11 77 23 109 26 0-109-14-167-22-261l-55-453c-36-354 23-191-205-191 18 80 23 192 35 281 13 91 32 179 32 285h-11zm871 249c33-3 84-33 103-56 46-57 158-745 203-838-82 7-26 39-148 11-23 102-111 545-113 634-25-19-19-14-10-66l101-579c-68 0-66 1-92 44-51 83-79 183-200 194l-14 203-11-204c-123-65-59-48-116-99-50-46-91-8-155-2 0 154-3 310-1 464 1 58 9 62 12 113 2 37-3 74 2 111 14 127-7 183 43 183 156 0 170-5 170-227h11c0 84-11 135-11 204 53-4 126-30 170-56 45-25 19-1 35-33 12-23 44-207 44-250h11c0 53-20 219-34 249zm498-1301c0-48-68-147-94-178-40-48-86-86-137-123-84-61-174-94-271-125-35-12-72-14-98-27 8 97 108 263-100 420-230 174-535 69-611-149-15-41-6-70-15-99-23-71-332 75-380 249-14 52-20 143-25 201-8 92-63 224 38 291 49 32 59 19 109 15-16-34-18-78-34-114-35-79-63-53-34-180l6 30c0 1-6 27-6 38 0 69 73 114 136 79 56 240 219 90 305 90 96 0 35 94 158 115 138 23 101-57 251-25l-13-44c41 30 93 260 253 105 94-92 78-164 179-229l-13 44c77 0 132 63 206-31 66-83-1-218 99-285-20 88-32 38-46 191-7 82-44 89-44 182 169 0 137-105 126-194-15-120 55-142 55-247zm-1539 328c-12-3-2-25-1-24 20 2 21 27 1 24zm464-781c-1-59-21-73-50-108l-79-91c-2-1-4-4-5-5l-155-140c-79-59-317-245-390-210 6 53-15 18 33 46 13 8 35 16 54 25 93 46 294 189 369 254l223 229zm12-90c104-70 67-102 225-102 132 0 152 97 232 142 57 31 299 58 501 256 255 249 82 396 82 450 0 56 71 224-87 275-91 29-59-15-103 169l-124 543c-21 105-38 106-123 148-142 71-271 110-468 110-177 0-372-24-482-129-38-37-67-236-78-295l-87-400c-37-167-17-64-127-122-125-67-76-242-66-324 23-174-29-231 141-402 73-73 148-81 249-114 92-30 59-85 235-126-76-114-225-239-343-313l-317-181c-44-30-42-56-18-106 77-18 86-20 171 32 126 77 256 146 363 248 99 95 120 87 224 241z"/><path d="m8457 18048c0 60-12 54-12 105 0 144 1 281 11 408l12 418c4 85 9 107 39 171 43 91 103 186 173 256 44 44 61 83 137 85v-454c0-83-10-130-12-197-2-65 2-133 1-199-1-70-12-113-12-197-124-26-81-64-208-45-44 6-63 0-94-37-117-137 90-230-35-314zm1442-604c11 48 10 70-12 116-84 0-149-9-70-128l82 12zm-547 511c0 60-139 67-139-34 0-78 139-55 139 34zm1605-314c-48 206-205 64-116-11 63-54 102 2 116 11zm-1977 454c0 106-85 71-139 35l11-93h93c16 24 35 30 35 58zm0-570l-12 82c-186 44-132-128-58-128 36 0 70 10 70 46zm1082 326c0 31-6 32-12 58-101 48-128-6-128-93 9-6 49-35 58-35 33 0 82 37 82 70zm348-303c0 28-22 52-34 70-46 0-60 6-88-17-50-42-18-76 6-122h82c3 6 34 69 34 69zm954 198c-105 28-64 256-291 256-101 0-165-180-289-10-27 37-60 75-106 92-24 9-34 8-64 5-44-5-28-6-64-28-144-89-145 95-341 182-161 72-200-43-299-43-59 0-158 162-267 162h-81c-42 0-128-104-152-104-165 0-148 163-337 163-88 0-62-85-198-13-69 36-46 32-46 269 0 174 23 302 23 476v361c190 0 773-171 973-237l1395-419c56-17 109-43 156-54l-14-801c-7-66 2-161 2-257zm-2783-189c-39 44-36 57-46 128-17 119-90 111-90 282 0 42 93 82 93 151 0 24-127 261 48 247 156-13 134 44 173 44 91 0 79-58 209-58 59 0 81 46 105 46 141 0 170-162 314-162 89 0 112 104 221 104 88 0 173-97 231-141 148-114 225 185 470-65 215-220 199-73 322-73 112 0 134-128 185-153 133-64 200 72 234 72 253 0 150-313 396-256v23c-66 2-59-1-59 93 62 2 69 23 117 23 64 0 230-224-136-329-57-17-68-26-110-42-65-24-173-14-250-40-137-46-103-19-260-19-105 0-91-95-361-93-140 1-172-33-272-66-47-16-146-4-205-4-37-1-80-30-123-41-38-9-116-11-151 5-11 5-15 16-17 28-3 18 1 80 1 103 0 73 0 146-1 219-1 42 1 55 43 66l16 4v23c-79-9-52-14-125 32-110 70-105 30-218 19-64-5-76 7-128-42-12-12-51-47-33-65 20-20 25-22 28-55 3-42 1-95 1-138 0-48 3-211-29-242-34-29-100-22-142-21-75 3-80 43-135 85-95 73-169 67-227 195-32 71-41 62-89 113zm768 136c89 8 152 36 218-46 32-39 25-75-32-76-32 0-69 3-103 3-61 1-92 9-150-16-25-12-34-3-39 26-7 36-3 95 41 105 17 3 46 3 65 4zm-11-364c49 8 167 21 211-2 39-20 43-67 37-105-9-40-32-28-66-24-69 8-144 1-209-22-16-6-78-35-90-27-17 10 2 117 11 135 19 33 71 39 106 45zm194-440c-16-3-50-7-61 6-35 41-24-11-56-20-36-10-217-8-166 66 50 73 308 86 330 0 6-28-25-47-47-52zm93-309c-5-122-135-253-193-359-40-73-37-36-64 26-68 158-236 393 13 491 103 40 168 25 221-75 14-27 23-53 23-83zm-46 276c122 59 37 229 56 319 47 4 97-3 140 1 21 2 68 23 89 30l21 7c46 15 103 10 165 9 116 0 174 54 270 68 52 8 108 2 161 2 80 0 79 12 135 39 158 78 152 43 271 43 64 0 145 36 219 48 37 7 86 6 127 13 33 6 69 28 97 43 60 34 313 74 313 233 0 248-166 192-232 186 0 155 0 310 0 466 0 170 11 300 11 465-123 82-893 286-1037 323-95 24-167 53-259 79-224 63-1213 396-1339 327-23-13-73-52-94-70-85-71-236-296-270-417-14-52-24-1031-24-1161 0-59 26-100 46-140 82-157-6-144 125-270 96-95 42-138 194-228 69-41 88-38 147-102 107-116 214-14 243-73 9-17 8-53 10-73 3-37 8-73 11-110 4-40 7-40 45-57 64-29 95-24 160-35 9-1 15-2 21-9-13-24-68-39-95-55-207-123-49-394 22-549 21-45 15-63 23-109 10-52 65-49 85-4 15 34 15 63 36 102 79 147 233 241 195 438-36 160-177 128-173 173 1 13 7 25 20 31 14 4 27 2 46 9l9 3 10 5z"/><path d="m21599 21713c-105-310-267-699-342-1012l-109-386c124-63 121 23 163 143l179 552c43 123 81 256 118 375 39 126 78 240 120 360-102 84-106 36-129-32zm-1185-2016c-71-116 106-549 448-625 86-19 137-28 233-22 190 11 469 215 481 334 13 124-359 379-629 406-277 29-334-30-509-85-49-16-35 11-24-8zm-46-6c16 158 14 225 114 367 138 198 395 308 635 283l231 782c42 124 84 242 131 371l94 276c19 56 20 40 51 77 21-4 73-19 93-27 39-17 15 0 35-23 47-53-1-121-36-227l-117-364c-21-70-40-123-61-191-38-120-227-663-234-738 221-77 415-383 387-654-24-236-157-428-336-525l-113-51c-297-97-522 7-712 188-100 95-178 301-162 456z"/><path d="m13382 21629c112-104 276-128 423-121 191 9 374 159 453 327 88 186 78 292 32 487-20 87-80 152-146 210-88 75-190 143-305 165-173 33-323-11-462-116-159-120-264-315-253-517 10-183 130-317 258-435zm353 589c-80-29-104-80-54-154 106-126 221-6 201 79l-2 7c-17 49-78 82-130 72l-15-4zm-70-90c1 1 0 1 0 0zm104 65c0 1 1 0 0 0zm76-17c0 0 0 0 0 0zm-326-124c-60 204 188 388 369 272 79-56 140-154 107-253-37-103-125-207-246-188-68 10-160 54-202 110-13 20-20 37-28 59zm1051 216c2 63-74 55-65 65 19 19 83 31 110 74 33 54-20 167-62 204-73 64-160-53-198-47-29 4 77 72 15 114-48 27-99-26-131-57-76-73-52-94 11-166 46-53 76-70 87-143 7-43 15-103 68-108 30-3 106 1 134 15 22 12 28 26 31 49zm-1672-654c21-61 20-78 58-117 124-120 172 41 256 89 39 22 22-21 8-39-10-12-48-49-52-57-14-29 2-47 25-64 51-40 88 39 106 75 83 161-7 151-98 261-55 69-57 88-87 167-11 28-14 26-50 29-43 3-116 2-131-51-17-59 133 2 23-71-80-52-83-64-54-150 60 21 71 27 123 60 26 16 37 21 10-9-31-35-97-93-136-122l-1-1zm350-245c-94-33-51 38-150 34-20 0-38-6-65-4-121 7-154 107-185 198-20 58 7-1 3 40-5 51-23 25-29 99-7 78 1 14 25 93 34 115 20 144 144 173 11 3 69 12 75 24 0 0 2 107 3 121 18 192 126 386 285 497 181 126 407 136 613 66 65-22 76-34 130-71 41-28 62-19 100 11 14 12 28 26 43 38 152 127 173-4 269-8 105-5 226-179 165-283-25-42-49-45-49-95 2-130-39-132-154-139-16-2-80-7-85-24-11-35-7-109-19-157-23-98-90-232-151-311-163-210-400-256-649-185-43 13-72 30-111 43-133 48-86-108-200-158l-8-2z"/><path d="m13890 18830c-82-8-166 34-222 92-23 24-57 80-69 110-54 139-17 280 79 391 62 72 70 42 94-30 14-43 25-86 38-128 27-85 57-176 88-259 10-27 62-144 48-166l-4-4-6-3c-9-2-35-2-46-3zm333-541c-6-6-9-8-15-13-28-4-28 22-36 45-30 84-55 175-83 261-6 20-12 39-18 59 0 8 13 13 20 17 13 8 9 8 27 12 64 23 149 96 192 151 43 56 73 117 82 188 15 135-22 233-138 308-35 22-106 48-148 49-8 0-17-2-5-7 21-9 75-54 90-71 66-76 92-182 45-276-39-75-141-145-225-158-19-2-104 277-115 310-32 96-65 190-98 285-17 49-25 52 16 81 85 61 262 72 364 57 317-51 552-324 474-653-57-235-219-433-385-601-15-15-29-30-44-44zm40-441c44-140 35-431 1-577-20-87-90-320-222-277-98 42-136 183-134 280 3 97 35 167 72 254 40 91 180 288 256 353 0 0 11 10 20-14 3-6 5-13 7-19zm42 103c91 92 190 210 268 314 284 381 457 893-8 1217-171 117-383 167-588 146-68-7-108-21-170-48-15-7-28-13-45-14-21 30-101 310-110 361-9 50-12 94-5 144 29 156 184 274 336 299 55 9 112 8 167-3l8-1c11-3 16-5 26-11-68-64-119-37-185-139-60-103-32-223 53-301 131-123 339-41 372 135 35 251-172 405-408 375-272-43-476-249-405-536 23-89 51-168 78-255 8-25 24-75 19-100-6-7-60-45-73-55-62-51-146-146-177-220-32-81-42-110-40-204 5-170 109-309 260-384 78-39 192-58 277-41 23 4 59 13 74-8 25-38 60-180 78-233 13-39 47-124 39-162l-2-6-4-6c-26-28-47-49-71-79-6-6-9-7-16-17-67-88-124-167-170-268-178-403-68-748 200-1077 13-16 26-31 41-46 14-14 27 2 39 14l10 11c29 28 59 82 80 120 122 222 150 521 109 767-14 87-33 169-62 253-11 32-19 27 5 58z"/><path d="m17488 25557c64 0 145-78 105-163-40 3-41 39-81 2-10-10-18-21-24-34l-4-9c-12-27 5-24-28-24-15 0-51 33-78 39 0 77 13 189 110 189zm-52-423c-15 0-12 21-16 35-6 19-8 18-12 40-21 94-48 144 22 101 95-59 32-67 97-105 99-57 36 10 141-48 40-23 29-5 55-43l-138 25-149-5zm-97-215c45-25 50-27 65-85 13-51-12-59-50-81-18-11-25-16-38-33-55-70-40-92-68-146-33 2-37 11-62 23-6 3-13 6-18 8-36 16 23-13-9 4-20 10-22 5-22 23 0 54 118 197 153 238l49 49zm-345-261c-62 0-90 3-104 33l-51 79c-62 64-219 45-287-15l-7-6c-22-20-42-33-59-58-17-23-30-62-57-74l-99-30-5 73c-9 99-21 113-67 200 70 37 225 103 305 118 39 8 123 33 176 39 15 2 25 7 42 10 61 11 245 13 310-5 18-5 36-7 56-15 18-6 12-5 30-10 17-4 8 2 25-7-26-54-9-24-60-76l-59-79c-44-65-60-133-89-177zm503 185c-20 19-77 134-15 134 139 0 248-53 320-122 56-52 107-124 131-201 3-7 5-17 8-25 8-19 27-41 7-52-20-11-135 47-157 59-100 49-109 89-176 129-27 16-29 6-86 51-10 9-22 18-32 27zm-142-344c-16 12-25 15-27 35-1 24 28 83 39 96 42 47 64 37 89 35 0-39 15-65 27-97 10-25 18-62 18-98 0-21-6-28-6-59-44 0-68 35-140 88zm322-140c0-35-6-64-26-78-29 60-77 268-93 311-37 100 56-1 71-27 41-69 48-129 48-206zm-2135 52c-51 0-88-30-121-55-7-5-9-6-15-11l-13-13c-19-20-29-41-42-69-38-82-44-46-173-47l-361 43c-40 10-152 23-186 35-62 22-17 121-124 123 13 19 25 17 57 12l184-18c280 1 459-29 743 37 22 5 31 10 50 16l143 53c33 15 56 24 88 42 50 27 53 40 89 41 0-141 75-210-3-251l-45-20c-23-12-60-35-89-35-17 0-66 117-182 117zm-1588-20c-5-14-3-5-11-15-27-36-25-37-54-37-8 16-13 29-13 52 40 10 37 10 78 0zm3365 85c18 4 14 9 42-10 18-13 20-17 35-30 15-12 66-46 66-64 0-21-23-33-45-33-76 0-84 79-98 137zm-859-189c-44-29-101-22-168-47l-159-49c-37-13-56-30-95-39-7 9-7 17-11 28l-22 82c-47 177-5 147 69 134 36-7 82 2 114 14 49 18 117 84 122 144 45 4 73 33 124 33l26-300zm-2198-17c-17 4-21 7-46 12-148 33-163 18-184 109 75 0 118-10 177-17 60-8 113-19 155-41 0-37-7-45-7-85-24 1-13 1-27 6l-68 16zm2374 17c-30 0-44 4-65-6-17 24-19 8-20 45 33 0 31-2 52-13 32-15 26-9 33-26zm347 305c-13-88-24-197 0-283 6-22 17-29 17-41 0-30-24-12-50-5l-217 24c17 23 48 32 72 45 35 20 55 39 71 73 6 13 3 7 8 18 6 11 12 22 17 35 30 82 3 130 15 181 58-14 76 12 67-47zm-3140-324c16 23 33 38 59 52 43-83 2-85-59-52zm298-80c-12 4-20 5-31 8-85 22-94 14-111 46 27 6 35 16 59 52 21-5 35-9 58-13 26-5 33-8 58-14 82-17 99-15 99-45 0-5-15-34-19-40-20-42-28-24-113 6zm3458-24c-14-45-113-97-158-103-108-15-228 80-280 168-33 57-54 120-62 185-1 8-1 15-1 23 0 37 5 105 17 133 1 4 1 18 23 19l110-54c0-44-3-84 6-118 4-18 9-27 15-43 6-17 7-29 16-42 8-12 19-27 28-38 41-60 140-83 194-31 19 19 17 31 40 37 29-19 20-30 31-67 5-17 21-54 21-69zm352-92c-41 4-71 28-102 43-8 4-9 3-17 8-19 9-16 11-31 21 5 62 64 126 10 342-18 71-45 111-49 127 39-1 63-23 94-37 33-14 48-18 81-26 37-10 37-36 43-72 6-35 10-118 9-154-1-86-19-168-38-252zm-3587 53c0-22 2-21-29-11-42 13-30 13-56 30 8 16 10 30 18 48 7 16 13 24 21 37 55-29 46-20 46-104zm-504-62c-27 10-36 15-43 42-10 40-27 103-20 137 37 0 54-8 85-13 34-6 40-11 50-41 9-26 10-52 14-77 8-46 33-91-86-48zm868 16c-8-32-23-21-44-47-40-49 26-89-118-24-178 80-170 53-170 182 40 0 80-22 110-33l44-16c1 0 3-1 5-1 1-1 3-2 4-2l169-59zm-364-98c0-28-5-14-11-14-1 0-11 3-12 3-2 1-7 4-9 5-15 9-24 17-33 32-17 27-27 66-20 98 104-9 85-61 85-124zm1432 59c-26-15-43-17-78-20 2 26 11 25 21 57 24 81 10 46 9 86-3 64-11 57-11 92 0 18 137 78 163 84 12-29 46-204 37-227-12-32-108-55-141-72zm2142-7c-4-55-68-180-98-232-10-18-14-28-20-48-35 3-28 21-39 52-27 77-81 197-43 239l7 6c1 1 2 3 3 4 1 1 8 8 9 10l37 54c38-25 144-74 144-85zm-3445 155c-91 34-103 30-103 73 42-11 3-23 64-34 26-5 48-4 74 6 84 33 14 48 131 30 19-3 22-2 38-7 63-17 385-67 435-67l162-6c32-6 27-25 17-55l-11-114c-2-40-9-20-90-20v26c0 6 75 105 20 105-34 0-67-111-98-111-101 0-36 8-92 18-14 3-14 1-28 5-35 10-42 8-62 23l-15 10c-38 21-80 21-129 22-55 0-60 11-94 22l-219 74zm907-154c12-32 24-25 31-53-13-16-59 4-71 7v91c32-8 28-16 40-45zm-1484-25c35-9 33-1 51-28-17-16-118-14-131 39 18 9-5 7 20 7 23 0 43-13 60-18zm2457-87c-102-6-152-27-246-53-39-11-41 10-50 47-9 37-39 156-29 187 10 29 76 50 103 61 10 4 20 8 30 11l147 49c12 3 45 12 61 13 16 1 34 0 49 6 36 17 41-33 46-58 11-56 23-110 34-165 19-95 0-98-92-98-18 0-36 0-53 0zm-1261 59c-13-25-27-52-38-79-48-118-4-67-157-31l9 10c30 30 69 13 69 120 44 10 59 2 93-11 14-5 12-3 24-9zm170-123c-4-87 20-106-89-76-58 16-84 9-35 114l17 36c3 8 6 13 8 18 9 21 0-9 7 18 27 0 98-5 98-32l-6-78zm620-67l-103-35c-24-6-37-2-61-10-97-28-211-16-307-12-134 6-83 61-78 130 3 39-1 50 7 85 30 0 61 0 91 0 55 0 101-19 164 5 82 30 50 5 136 46 21 11 50 14 72 19 39 10 61 31 88 38 61 16 64-82 71-121 6-31 14-54 17-86 1-19 7-18-18-30-24-11-54-21-79-29zm1708 32c-15 13-52 41-56 60-3 23 0 12 26 22 68 26 78 77 102-10l38-132c7-26 8-8 9-42-67 45-68 56-119 102zm-1507-41c-50 54 37 63 70 70 123 29 179 43 309 45 18 0 37 0 56 0 6-46 54-206 15-235-25-18-88 3-116 10-106 23-249 38-334 110zm-828-55c-3-34-11-56-13-97-1-32-8-71-12-99-8-54 5-214-84-63-46 78-81 228-41 305 32-3 44-15 79-19 42-6 43-8 71-27zm2363-377c-32-3-21-8-38 13l-184 194c-90 95-113 103-210 181-2 1-6 4-8 5l-136 79c-68 21-67 25-132 50l-96 27c-24 7-82 9-112 13-16 2-94 7-104 18-10 10-34 193-39 221-3 15-24 95-11 105 13 9 115 5 132 5 100-1 194-2 285-34 38-14 29-19 52-56 71-116 103-188 229-258 73-41 131-43 212-34 47 5 61-20 92-50 36-34 71-68 107-102 117-89 63-60 3-211-18-45-42-108-42-166zm-1105 62c-128 22-273 23-374 118-75 72 39 79 90 71 82-15 155-48 236-66 30-6 103-11 114-44 5-14 13-79-5-85-12-4-48 3-61 6zm1287-4c37-54 10-15 30-81 14-50 69-204 62-238l-26 14c-27 21-59 42-82 63-13 12-24 21-37 32-19 17-11 52-7 75 7 46 22 105 60 135zm133-426l89-283c-20-12-17-12-33-7-144 50-223 258-247 397-5 25-6 43-4 68 24 6 32-10 50-26 39-36 51-39 92-65 33-20 42-48 53-84zm82-400c50-18 77 66 67 105-19 75-74 227-80 292 34-1 97-35 133-50 36-14 97-43 134-35-6 22-22 22-43 29-75 26-156 53-223 96-39 25-77 228-97 287l-46 156c-11 43 0 69 32 90 19 5 296-150 377-111-14 20-15 17-45 20-33 3-26 5-53 13-34 10-61 16-96 27-26 8-157 56-164 83 2 17 120 222 141 265 20 46 34 90 61 132 59-1 85-21 150-6v13c-51 12-94 3-137 26 1 27 8 35 14 62 36 146 43 186 42 342 0 17-2 76 18 83 31 11 36-16 63 14-18 24-21 11-45 11-49-1-43 24-63 116-23 103-74 213-149 287-1 1-2 3-3 4l-89 80c-1 1-2 2-3 3-15 12-20 12-37 23-15 10-25 14-22 23l89-16c119-22 206-13 322-4-4 47-34 20-67 15-27-4-68-2-96-2-77 0-146 12-217 31-15 4-24 5-37 8-22 6-49 18-71 27-39 17-100 37-124 71 15 30 23 16 43 42 8 11 21 37 27 50 27 52 19 144-8 205-6 14-6 13-13 26-22 39-57 74-90 105-36 34-72 41-122 41-115 0-187-76-220-177-7-23-9-42-14-64-30 7-24 14-59 19-64 10-118 25-189 27-51 1-208-17-257-36l-198-63c-40-10-85-34-124-51-34-15-66-28-98-46-31-18-63-33-95-54-49-33-97-56-142-93l-92-70c-9-7-10-8-19-14-83-63-162-132-251-185l-116-67-240-91c-181-67-521-83-711-83-146 0-140 1-280 13-280 24-233-6-410-13l-302-56c-36-11-8-16-56-16 2-33 13-24 41-15l117 26c81 17 238 47 317 48 35 0 39 5 71 6l209-6c87-5 194-14 274-7 51 4 56-7 136 0 47 4 93-3 139 4 47 7 90 6 137 13l394 81c13 5 15 7 28 11 57 16 98 40 150 65 52 24 90 55 140 82 0 0 12 6 12 7 90 57 266 200 370 275 1 1 2 2 3 3l84 53c85 59 153 75 218 114l294 102c81 18 160 38 257 37 146-3 157-25 248-46 0-141 52-237 52-319-37-10-70-68-109-64-10 1-52 19-69 23-117 27-265 37-387 13-24-4-44-9-77-14-28-4-46-11-68-16-28-6-44-11-74-17-49-12-85-28-131-45l-172-82c-10 8-1 2-16 10l-56 22c-70 18-140-12-198-49-28-19-52-49-73-77-27-37-32-86-46-129-14-42-158-103-203-123-44-19-90-29-137-45l-98-26c-26-7-59-6-85-12-123-26-363-14-501-14-41 0-51 7-91 7-61 0-171 9-230 24l-131 19c-61 11-132 9-187 15-82 8-304 3-380-9-52-7-137-3-179-23 7-19-10-7 16-17l524 24c119 0 205-27 326-27-7-20-18-22-38-27-118-31-11-63-133-40l-163 33c-21 4-41 1-62 3-56 6-250 22-300 12-23-5-27-7-59-7-47 1-72-6-124-6v-20h137c-3-33-8-39-45-39-26-1-53 0-79 0 10-37 50-26 111-26 9-14 15-19 19-39-55-13-88 13-143 0v-19c57 0 99-9 143-20 6-24 15-46 19-66 5-29 8-44 12-66 21-93 11-157 67-173 132-39 151-51 138 20l-33 210c-4 37 5 40 31 31 14-5 20-9 35-13 7-1 11-1 17-2 14-4 10-3 15-5l61-17c143-48 97-17 108-106 15-116 131-141 136-191 2-29-10-43 14-50 10-3 44 8 51 12 0 78-14 144-20 208 30 7 18 5 44-8l103-48c89-44 108-28 115-86l24-275c9-113-8-184 46-189 15 22 14 15 14 52l-8 182c-4 58-23 175-12 222 25 0 59-14 78-16l221-75c0-37-5-65-10-100-13-91 29-177 60-260 11-31 20-49 37-73 68-93 103-74 76-224-17-95 5-68 79-66 70 1 29 23 45 221l13 209c0 78 6 133 6 208 62 15 195-42 452 17l188 61c45 12 42-32 52-102l48-206c9-39 13-64 18-102 5-39 25-36 63-44 121-26 236-53 355-87 34-9 166-42 192-25 30 21-4 139-11 173-15 85-27 176-40 262-4 23-32 205-31 213 3 21 2 18 28 18 91 2 303-50 385-92l5-2 111-59c70-42 135-95 195-150l212-218c105-119 54-41 67-169 6-51 5-75 17-127 32-137 76-224 159-337 22-31 71-75 103-96 23-15 44-24 68-34 30-12 34-17 59-26z"/><path d="m13451 13692c259-22 122-98 237-125 0 159-25 419-50 572-84 525 34 345-210 401 0-75 0-151 0-226 0-75 12-118 12-204-1-154 11-272 11-418zm593-416c-8-49-67-38-55 4 9 30 53 35 55-4zm-924-31c65 63 94-64 43-63-19 0-59 39-49 55 2 3 4 5 6 8zm121 196c-16 39-60-4-31-24 15-10 35 1 31 24zm-48 44c20 22 20 15 44-8 7-7 33-26 32-36-2-23-19-51-44-53-45-5-67 40-43 81 3 6 7 11 11 16zm522-236c-1-24 38 0 20 10-8 4-17-1-20-10zm-1 43c85 25 83-108-1-84-18 5-37 28-32 48 5 19 15 29 33 36zm-163 163c4-57-87-82-73-10 9 51 62 53 73 10zm-783-378c-26-26 22-43 28-14 4 15-12 23-28 14zm45-43c-46-47-106-7-79 53 28 64 114 3 79-53zm1034 1144c0-80 15-123 26-200 10-74 35-343 67-385 87-111 48-103 122-105 0 63-128 654-153 752-27 104-30 155-96 199 0-96 37-192 22-261-1 3-2 6-3 8l-40 232c-10 52-16 56-62 73-30 12-77 24-109 27 0-109 13-168 22-261l55-454c36-354-23-190 205-190-18 79-23 192-36 281-12 90-32 178-32 284h12zm-871 249c-33-3-84-32-103-55-46-57-158-745-203-838 81 6 26 39 147 11 24 102 112 545 114 633 25-18 19-13 10-65l-101-579c68 0 66 0 92 43 51 83 78 184 200 194l13 204 12-204c123-65 59-49 115-99 51-47 92-8 156-3 0 155 3 310 1 465-1 58-10 62-12 112-2 37 2 75-2 112-14 127 7 182-43 182-156 0-170-5-170-226h-11c0 84 11 135 11 204-53-5-126-31-171-56-44-25-18-1-34-33-12-24-44-207-44-251h-11c0 54 19 219 34 249zm-498-1301c0-47 67-146 94-178 40-47 86-85 137-122 84-62 174-94 271-126 35-11 72-14 98-26-8 97-108 263 100 420 230 174 535 69 611-150 15-40 6-69 15-98 23-71 332 75 380 249 14 52 20 143 25 201 8 92 63 223-38 290-49 32-59 20-109 15 16-34 18-78 33-113 36-80 64-54 35-181l-6 30c0 1 6 28 6 38 0 70-73 115-136 79-56 240-219 91-306 91-95 0-34 93-158 114-137 23-100-56-250-24l12-45c-40 30-92 261-252 105-94-91-79-164-179-229l13 45c-77 0-132 63-206-31-66-84 1-219-99-286 20 89 32 39 45 192 8 81 45 89 45 182-170 0-137-105-126-195 15-119-55-142-55-247zm1538 328c13-2 3-24 2-24-20 3-21 28-2 24zm-463-780c1-59 21-73 49-109l80-90c1-2 4-4 5-6l155-139c79-59 317-245 389-210-5 53 16 18-32 46-13 7-35 16-54 25-93 45-294 189-369 254l-223 229zm-12-91c-104-69-67-101-226-101-131 0-151 96-231 141-57 32-299 58-502 257-254 249-81 396-81 450 0 56-71 223 87 274 91 30 59-15 103 169l123 544c22 105 39 106 124 148 142 70 270 109 468 109 177 0 371-24 482-129 38-36 67-235 78-294l87-400c37-167 17-64 126-122 126-67 77-242 66-325-22-174 30-230-141-401-72-73-147-81-248-114-92-30-59-85-235-126 76-115 225-240 342-314l318-181c44-29 42-56 18-105-77-18-86-21-172 32-125 77-255 146-362 248-100 95-120 86-224 240z"/><path d="m14993 13333c0 46-10 42-10 82 0 114 1 223 9 323l10 331c3 67 7 85 30 134 34 73 81 148 138 204 34 34 47 65 108 66v-359c0-66-8-103-10-156-1-51 2-105 1-157-1-55-10-89-10-156-97-20-64-50-164-35-35 5-50 0-75-29-92-109 72-182-27-248zm1140-479c9 38 8 56-9 92-67 0-118-7-55-101l64 9zm-432 405c0 47-111 52-111-27 0-62 111-44 111 27zm1269-248c-38 163-162 50-92-9 50-43 81 1 92 9zm-1563 358c0 84-68 57-111 28l9-73h74c13 18 28 23 28 45zm0-450l-10 64c-147 36-104-101-46-101 29 0 56 9 56 37zm855 257c0 25-5 26-9 46-80 39-101-5-101-73 7-5 38-28 45-28 26 0 65 29 65 55zm276-239c0 22-18 41-28 55-36 0-47 5-69-13-40-33-15-60 5-97h64c3 5 28 55 28 55zm754 157c-83 22-51 202-230 202-81 0-131-143-229-8-21 30-48 60-83 73-20 7-27 6-51 3-35-3-23-4-51-22-114-70-115 76-269 144-128 58-159-34-237-34-47 0-125 129-211 129h-65c-32 0-101-83-119-83-131 0-118 129-267 129-70 0-49-67-157-10-54 28-36 25-36 212 0 138 18 239 18 377v286c150 0 612-136 770-188l1103-331c44-14 86-34 123-42l-11-634c-6-53 2-128 2-203zm-2201-150c-31 35-28 45-36 101-14 94-72 88-72 223 0 33 74 65 74 120 0 18-101 206 38 195 123-10 106 35 137 35 72 0 62-46 165-46 47 0 64 37 83 37 112 0 135-129 248-129 70 0 89 83 175 83 70 0 137-78 183-112 117-91 178 146 371-52 171-173 158-57 256-57 88 0 105-101 146-121 104-51 157 57 185 57 200 0 118-248 312-203v19c-51 1-46-2-46 73 49 1 54 19 92 19 51 0 183-178-107-261-45-13-54-21-87-33-52-19-137-11-198-32-108-36-81-15-206-15-82 0-71-75-285-73-110 1-136-26-215-53-37-12-115-3-162-3-30 0-64-24-97-32-30-7-92-9-119 4-10 4-12 12-14 22-2 14 0 63 0 82 0 57 0 115 0 172-1 34 1 44 34 53l12 3v18c-62-7-41-11-98 25-88 56-83 24-173 16-50-4-60 5-101-34-10-9-40-37-26-51 16-16 20-18 22-43 3-34 1-76 1-110 0-38 2-167-23-191-27-23-79-18-113-17-58 3-63 34-106 68-76 57-134 52-179 153-26 57-33 50-71 90zm607 107c71 7 120 29 173-36 25-31 19-59-25-60-26 0-55 2-82 2-48 1-73 8-118-12-21-9-27-2-32 20-5 29-2 76 33 83 13 3 37 2 51 3zm-9-287c39 6 133 16 168-2 30-16 34-53 29-83-8-32-25-22-52-19-55 6-114 1-166-18-12-4-61-27-71-21-13 9 2 93 8 107 16 26 57 31 84 36zm154-348c-13-3-39-6-49 5-27 32-18-9-43-17-29-7-172-6-132 53 40 57 244 68 261-1 5-21-19-36-37-40zm74-245c-4-96-107-200-153-284-31-57-30-28-51 21-53 125-186 311 11 388 81 32 132 20 174-59 11-21 19-42 19-66zm-37 218c96 47 30 181 45 252 36 4 76-2 110 2 17 2 54 18 71 24l16 5c37 12 82 8 131 7 91 0 137 43 213 54 42 6 86 1 127 1 64 1 63 10 107 32 125 61 120 33 215 33 50 0 114 29 173 39 29 4 68 4 100 10 26 4 55 22 77 34 48 26 248 58 248 184 0 196-132 152-184 147 0 123 0 245 0 368 0 135 9 238 9 368-98 65-706 226-821 255-74 20-132 42-204 63-177 50-959 313-1059 258-18-9-58-41-75-54-67-57-186-235-213-331-11-41-19-815-19-918 0-46 20-79 37-110 64-124-5-114 98-214 76-75 33-109 153-180 56-33 70-30 117-81 84-91 169-11 192-57 7-14 6-42 8-58 3-29 6-58 9-87 2-32 5-32 35-45 51-23 75-20 127-28 7-1 11-2 17-7-11-19-54-31-76-44-163-97-39-311 18-434 16-36 12-50 18-86 8-41 51-39 67-3 12 26 12 49 28 80 63 117 185 191 155 347-29 127-140 101-137 136 1 11 6 21 16 26 11 3 21 1 36 6l7 3 8 3z"/><path d="m18075 15291c72-320 194-723 236-1042l69-395c-129-50-117 35-147 158l-122 568c-30 127-54 263-79 385-26 130-53 247-82 371 109 73 109 24 125-45zm972-2127c59-122-162-536-509-576-87-11-139-14-234 2-188 30-444 262-444 382 0 124 396 339 667 339 278 0 329-64 497-137 48-20 36 8 23-10zm46-11c0 159 9 225-76 377-118 211-362 347-603 347l-150 800c-30 128-59 251-92 383l-66 285c-13 57-16 41-43 81-20-1-74-11-95-17-40-13-15 1-37-20-52-47-11-120 13-229l79-374c14-72 27-126 41-196 26-123 158-682 158-759-228-53-453-338-453-610 0-238 113-442 281-557l107-62c285-127 520-46 727 114 109 85 209 282 209 437z"/><path d="m16491 5320c-79-146-240-229-394-273-200-57-442 33-582 178-156 161-182 274-203 491-10 97 29 185 77 267 64 109 145 215 256 278 167 95 338 101 518 41 205-67 382-232 441-444 53-192-23-372-113-538zm-570 484c92-3 135-47 109-141-65-166-226-83-235 11v8c0 57 51 112 108 120l18 2zm103-69c-1 1-1 1 0 0zm-130 30c0 1-1 0 0 0zm-73-43c0 0 0 0 0 0zm380-15c-9 232-329 334-476 151-62-85-90-207-21-297 74-93 201-169 320-108 66 34 145 112 168 184 7 25 9 45 9 70zm-1159-144c-24 63 58 82 44 89-25 13-96 4-138 38-53 44-39 179-8 232 52 92 183 2 221 21 28 14-105 47-56 112 40 44 111 8 155-12 104-50 87-80 47-175-29-71-54-99-40-178 8-47 21-112-32-136-31-13-110-36-144-31-26 4-38 16-49 40zm1952-89c0-71 7-88-18-141-86-168-192-19-295 2-48 9-16-30 5-43 15-10 67-34 73-41 25-25 15-49-3-75-39-58-104 10-136 41-141 136-44 158 10 303 33 90 29 111 32 202 1 33 5 32 41 47 43 19 119 43 153-5 39-56-137-45 1-81 101-26 108-38 108-137-69 1-82 3-148 19-32 8-45 9-7-13 45-24 133-62 183-78h1zm-275-376c109 0 40 58 143 88 21 7 42 7 69 18 122 50 121 165 121 270 0 66-7-3-17 40-13 54 14 34-5 112-20 83-5 13-58 88-75 105-71 141-209 127-13-1-76-11-86-2 0 1-39 110-46 124-85 192-264 354-467 413-231 66-468-3-655-146-59-46-66-63-109-119-33-44-57-42-107-24-19 7-38 17-58 24-201 77-176-65-273-103-107-41-172-263-72-349 40-35 66-30 83-81 44-134 87-122 209-89 16 4 84 21 96 5 23-32 45-110 73-156 58-92 174-207 266-267 241-159 501-123 732 37 41 28 64 55 100 83 121 95 127-82 262-93h8z"/><path d="m14556 16746c-52 0-118-62-85-131 32 3 33 32 65 2 9-8 15-17 20-28l3-7c10-22-4-20 23-20 12 0 41 27 63 32 0 62-11 152-89 152zm42-341c12 0 10 17 13 28 4 15 6 15 10 33 16 76 38 116-18 81-77-48-26-54-79-84-80-46-29 8-113-40-33-18-24-3-45-34l111 20 121-4zm78-174c-37-19-41-21-53-68-10-41 11-48 41-65 15-9 20-14 31-27 44-56 32-75 55-118 26 2 29 9 50 18 4 3 10 5 14 7 30 13-18-10 8 3 16 9 17 4 17 19 0 43-95 159-123 192l-40 39zm279-210c50 0 72 2 84 27l41 63c50 52 177 37 232-12l5-5c18-16 34-27 48-47 14-18 24-50 46-59l80-25 4 59c7 80 17 92 54 162-57 30-181 83-246 95-32 6-100 27-142 32-13 1-21 5-35 8-49 9-197 10-249-4-15-4-29-6-46-12-14-6-9-4-24-8-14-4-6 1-20-6 21-44 7-19 49-62l47-63c35-53 49-108 72-143zm-407 149c16 16 63 109 13 109-113 0-200-44-259-99-45-43-86-100-106-162-2-6-4-14-6-20-7-16-22-34-6-43 16-8 109 39 127 48 81 40 88 72 142 104 22 13 24 5 69 42 9 6 19 14 26 21zm115-278c13 10 21 13 22 29 1 19-23 67-32 77-34 38-51 30-71 28 0-31-13-53-22-78-8-20-15-50-15-80 0-16 5-21 5-47 36 0 55 29 113 71zm-260-113c0-28 5-51 21-63 24 49 63 216 75 251 30 81-45-1-57-22-33-55-39-104-39-166zm1724 42c42 0 72-24 98-44 6-4 7-5 12-9l11-10c15-16 23-33 34-56 31-67 35-38 140-39l291 36c32 8 123 18 150 28 51 17 14 98 100 99-10 15-20 13-45 10l-149-15c-227 1-371-23-601 30-17 4-25 8-40 13l-115 43c-27 12-46 20-71 33-40 22-43 33-72 34 0-114-61-170 3-203l36-16c18-10 48-28 71-28 14 0 54 94 147 94zm1283-16c4-11 2-4 8-12 23-29 21-30 45-30 6 13 10 23 10 42-32 8-30 8-63 0zm-2718 69c-15 3-11 7-33-8-15-11-17-14-29-25-12-9-53-37-53-51 0-17 19-27 36-27 61 0 68 64 79 111zm694-153c35-23 81-18 135-38l129-39c30-11 45-25 77-32 6 7 6 13 9 23l17 66c39 143 5 118-55 108-29-5-66 2-92 11-40 15-95 68-99 117-36 3-58 26-100 26l-21-242zm1776-14c13 3 16 6 36 10 119 26 132 14 149 88-60 0-96-8-143-14-48-6-91-15-125-33 0-30 5-36 5-68 20 0 11 1 22 4l56 13zm-1918 14c24 0 36 3 53-5 13 20 15 7 16 37-27 0-25-2-43-11-25-12-21-7-26-21zm-281 246c11-70 20-159 0-228-5-18-13-24-13-33 0-25 19-10 40-5l175 20c-13 18-39 26-58 37-28 16-44 31-57 58-5 11-2 6-7 15-5 9-9 18-13 28-25 66-2 105-12 146-47-11-62 10-55-38zm2537-261c-13 18-27 31-48 42-35-67-2-69 48-42zm-241-65c9 3 16 4 25 7 68 17 76 11 89 36-21 6-28 14-47 43-17-5-28-8-47-11-21-4-26-7-47-11-66-14-79-12-79-36 0-5 12-28 14-33 17-34 23-19 92 5zm-2793-20c12-36 91-77 128-82 87-13 184 64 226 135 26 46 43 97 50 150 1 6 1 12 1 18 0 30-5 85-14 108-1 3-1 14-19 15l-88-44c0-35 2-67-5-95-4-14-7-21-12-35-5-14-6-23-14-34-6-10-15-21-21-31-34-47-114-67-157-25-16 16-14 26-33 31-23-16-16-25-25-54-4-15-17-44-17-57zm-284-73c33 2 57 22 82 34 7 3 8 3 14 6 16 8 13 9 25 18-4 50-52 102-8 276 14 57 36 89 40 102-32-1-51-18-76-29-27-11-39-15-66-22-30-8-30-29-35-58-4-28-7-95-7-124 1-69 16-136 31-203zm2897 42c0-18-2-17 23-9 34 11 25 11 45 25-6 12-8 24-14 38-5 14-10 20-17 30-44-23-37-16-37-84zm407-50c21 8 29 12 35 34 8 33 22 83 15 110-29 0-43-6-68-10-27-4-32-8-41-33-6-21-7-42-11-62-6-37-26-73 70-39zm-701 13c6-26 18-17 35-38 33-40-21-71 95-19 144 64 138 43 138 146-33 0-64-17-89-26l-35-13c-1 0-3-1-4-1-1-1-3-1-4-1l-136-48zm294-79c0-22 4-11 9-12 0 0 9 3 9 3 2 1 6 3 7 4 12 7 20 14 28 26 13 22 21 53 15 79-83-7-68-49-68-100zm-1156 48c20-12 34-14 62-16-1 21-9 20-17 46-19 65-8 37-7 69 2 51 9 46 9 74 0 15-111 63-132 68-9-23-37-165-30-183 10-26 88-44 115-58zm-1730-6c3-45 54-146 78-188 8-14 12-22 16-38 29 3 23 17 32 42 22 62 66 159 35 193l-6 5c0 1-1 2-2 3-1 0-7 7-8 8l-30 44c-30-21-115-60-115-69zm2782 126c73 27 83 23 83 58-34-9-3-18-52-27-21-4-38-4-60 5-67 26-11 38-105 24-16-3-18-2-32-6-50-14-310-54-350-54l-132-5c-25-5-21-20-13-44l9-92c1-32 7-16 73-16v21c0 4-61 84-16 84 27 0 53-90 79-90 81 0 28 7 74 15 11 3 11 1 22 4 29 8 35 6 51 18l12 9c30 17 64 17 104 17 44 1 48 9 76 19l177 60zm-733-125c-10-26-19-21-25-43 11-13 48 3 58 5v74c-26-6-23-13-33-36zm1198-20c-27-7-26-2-40-23 13-13 95-12 105 32-14 7 4 5-16 5-19 0-34-11-49-14zm-1983-71c81-5 122-22 198-43 31-8 33 9 40 39 8 30 32 125 23 151-7 23-61 40-82 49-8 3-16 6-25 9l-119 39c-9 3-36 10-49 11-13 1-27 0-39 5-29 13-34-27-37-48-9-45-19-88-28-133-15-77 0-78 75-79 14 0 28 0 43 0zm1017 48c11-21 23-42 31-64 39-95 4-54 127-25l-7 8c-24 24-56 11-56 97-36 8-47 2-75-9-11-4-10-2-20-7zm-136-99c3-71-17-86 71-62 47 13 68 7 28 92l-13 29c-3 7-5 11-6 15-8 17-1-7-7 15-21 0-79-5-79-27l6-62zm-501-55l83-27c19-5 29-3 49-9 78-23 170-13 248-10 108 5 67 50 63 106-2 31 1 40-5 68-25 0-50 0-74 0-45 0-82-15-133 4-66 24-40 4-109 38-17 8-41 10-59 15-31 8-49 25-71 30-49 13-51-66-57-97-5-25-11-44-13-70-2-16-6-14 14-24 19-9 44-17 64-24zm-1380 26c12 11 43 33 45 49 3 18 1 9-21 18-55 21-63 62-82-9l-30-106c-6-21-7-7-8-34 55 36 55 45 96 82zm1217-33c40 44-29 51-56 57-99 23-145 35-249 36-16 0-31 0-46 0-5-37-44-167-12-190 20-14 71 3 94 8 85 19 201 31 269 89zm669-44c2-28 9-45 11-79 1-26 6-57 9-79 6-44-4-173 68-51 37 62 66 184 33 246-26-2-36-12-63-16-35-4-35-5-58-21zm-1908-305c25-2 17-6 31 11l148 157c73 76 91 83 170 145 1 1 4 4 6 5l110 64c55 16 54 20 107 40l77 22c20 5 66 7 90 10 13 2 76 6 85 15 7 8 27 156 31 178 2 12 20 77 9 85-10 8-93 4-107 4-81 0-157-2-230-28-30-11-23-15-42-45-57-94-83-151-185-208-58-33-106-35-171-28-38 4-49-16-74-40-29-27-58-55-87-82-95-72-51-48-2-170 15-37 34-88 34-135zm892 50c104 18 221 19 302 96 61 58-32 63-73 57-66-12-125-38-190-53-24-5-84-9-92-36-4-11-10-63 4-68 10-4 38 2 49 4zm-1040-2c-29-45-8-13-23-66-12-41-57-165-50-192l21 11c21 17 47 34 66 51 10 10 19 16 30 26 15 13 8 42 5 60-6 37-17 85-49 110zm-107-345l-71-228c15-10 13-10 26-6 117 40 180 208 200 321 3 20 4 34 3 55-20 4-26-8-40-21-33-30-42-32-75-53-27-17-34-39-43-68zm-66-323c-40-14-62 54-54 85 16 60 60 183 64 236-27-1-78-29-107-40-29-12-78-35-108-29 5 18 18 18 34 24 61 21 127 42 181 77 31 20 62 184 78 232l37 126c9 35 0 55-25 72-16 4-240-121-305-89 12 16 12 13 37 16 26 2 20 4 42 10 27 8 49 14 77 22 22 7 127 46 133 68-2 13-97 178-113 214-17 36-28 72-50 106-48-1-69-17-121-5v10c41 10 76 3 111 21-1 23-7 29-12 51-29 118-34 150-34 276 0 14 2 61-14 67-26 9-30-13-51 11 14 19 17 9 36 9 40 0 35 19 51 93 18 84 60 173 120 233 1 1 2 2 3 2l72 65c0 1 2 2 2 3 12 9 16 10 30 18 12 8 20 12 17 19l-71-13c-96-18-166-11-260-3 3 38 27 16 54 12 21-4 55-1 78-1 61 0 118 9 175 24 12 4 19 4 30 7 18 5 39 14 57 22 31 13 80 30 100 57-12 24-19 13-34 34-7 9-18 30-23 40-21 42-15 117 7 166 5 11 5 10 11 20 17 32 45 61 72 86 29 27 58 33 99 33 92 0 151-62 177-144 6-18 8-33 12-51 24 6 19 11 48 16 51 8 95 20 152 21 41 1 168-14 208-29l159-50c33-9 69-28 101-42 27-12 53-23 78-37 26-15 51-27 77-44 40-26 79-45 115-75l75-56c6-6 7-7 14-12 68-51 131-106 203-149l94-54 194-74c146-54 421-67 574-67 118 0 113 1 226 11 227 19 188-5 332-11l244-45c29-9 6-13 45-13-2-26-11-19-33-12l-95 21c-65 14-192 38-256 39-29 0-31 4-58 5l-168-5c-71-4-157-12-221-6-42 4-46-6-111 0-37 3-74-2-112 3-38 6-72 6-110 11l-319 65c-10 4-11 6-22 9-46 13-79 32-121 53-42 19-73 44-113 66-1 0-10 5-10 5-73 46-215 162-299 222 0 1-2 2-3 3l-67 43c-69 47-123 61-176 92l-238 83c-65 14-129 30-207 29-118-2-127-20-200-37 0-113-42-192-42-258 30-8 56-55 88-51 8 1 41 15 55 19 95 21 214 29 313 10 19-4 36-7 62-11 23-4 37-9 55-13 23-6 36-9 60-14 39-9 69-23 106-36l139-67c8 7 0 2 13 9l45 18c56 14 113-10 159-41 23-14 43-39 59-61 23-31 27-70 38-105 11-34 127-83 164-99 35-16 72-24 111-36l78-21c21-6 48-6 69-10 100-21 293-11 405-11 33 0 41 5 73 5 50 0 138 8 186 20l106 15c49 9 106 7 151 12 66 7 245 2 307-7 42-6 110-3 144-19-6-15 8-6-13-14l-423 19c-96 1-165-21-263-21 6-16 15-18 30-22 96-25 10-51 108-32l131 27c17 2 34 0 51 2 45 5 201 18 242 9 19-4 22-5 48-5 38 1 58-5 100-5v-16h-111c2-27 6-31 36-32 21 0 43 1 64 1-8-30-40-21-89-21-8-12-12-16-16-32 44-10 71 11 116 0v-15c-46 0-80-8-116-16-5-20-12-37-15-54-4-23-6-35-10-53-16-75-9-127-54-140-107-32-122-41-111 16l26 170c4 30-4 32-25 25-11-4-16-7-28-10-5-1-9-1-14-2-11-3-8-3-12-4l-49-14c-115-38-78-14-88-85-12-94-106-114-109-154-2-24 8-35-11-41-8-3-36 7-42 9 0 63 12 117 16 169-24 5-14 4-35-7l-83-38c-72-36-87-23-93-70l-20-222c-7-91 7-149-37-152-12 17-11 11-11 41l6 148c4 46 19 141 10 179-20-1-48-12-63-14l-179-60c0-30 5-53 9-81 10-73-24-143-49-210-9-25-16-40-30-59-55-75-82-60-61-181 14-76-4-54-63-53-57 1-24 19-37 179l-11 168c0 64-5 108-5 169-49 11-157-34-365 13l-151 49c-36 10-34-26-42-82l-39-166c-7-32-10-52-15-83-4-31-20-29-50-36-98-21-191-42-287-70-28-7-134-34-156-19-24 16 4 112 9 139 13 69 22 142 33 212 3 18 25 165 25 171-2 17-1 15-23 15-73 2-244-41-311-74l-4-2-89-47c-57-34-110-77-158-121l-171-177c-85-96-43-33-54-137-5-40-4-59-14-102-26-111-61-180-128-272-18-25-57-60-83-77-19-12-36-20-56-28-23-9-27-14-47-21z"/><path d="m20764 16365c-259-21-122-97-237-124 0 158 25 418 50 572 84 524-34 344 210 401 0-76 0-151 0-227 0-75-12-117-12-203 1-155-11-273-11-419zm-593-416c8-49 67-38 55 4-9 31-53 35-55-4zm924-31c-65 63-94-64-43-63 19 1 59 40 49 55-2 3-4 5-6 8zm-121 196c16 40 61-3 31-23-15-10-35 1-31 23zm48 45c-20 21-20 14-44-9-7-6-33-26-32-36 2-22 19-50 44-53 45-5 67 41 43 82-3 6-7 10-11 16zm-522-236c1-25-38-1-20 9 8 4 17-1 20-9zm1 43c-85 24-83-109 1-85 18 6 37 29 32 49-5 19-15 28-33 36zm163 162c-4-57 87-82 73-9-9 51-62 53-73 9zm783-378c26-26-22-42-28-14-3 15 12 24 28 14zm-45-43c46-47 106-7 80 53-29 65-115 3-80-53zm-1034 1145c0-81-15-123-26-200-10-74-35-344-67-385-86-111-48-104-122-105 0 63 128 653 153 752 27 103 31 154 96 198 0-96-37-191-22-260 1 2 2 6 3 8l40 231c10 52 16 56 62 74 31 11 77 23 110 26 0-109-14-167-23-261l-55-453c-36-354 23-191-205-191 18 80 23 192 36 281 12 91 32 179 32 285h-12zm871 249c33-3 84-33 103-56 46-57 158-745 203-838-81 7-26 39-147 11-24 102-112 545-113 634-26-19-20-14-11-66l101-579c-68 0-65 1-92 44-51 83-78 183-200 194l-13 203-12-204c-123-65-59-48-115-99-51-46-92-8-156-2 0 154-3 310-1 464 1 58 10 62 12 113 2 37-2 74 2 111 14 127-7 183 43 183 156 0 170-5 170-227h11c0 84-11 135-11 204 53-4 126-30 171-56 44-25 18-1 34-33 12-23 44-207 44-250h11c0 53-19 219-34 249zm498-1301c0-48-67-147-94-178-40-48-86-86-137-123-84-61-174-94-271-125-35-12-72-14-98-27 9 97 108 263-100 420-230 174-535 69-611-149-15-41-6-70-15-99-22-71-332 75-379 249-15 52-21 143-26 201-8 92-63 224 38 291 49 32 59 19 109 15-16-34-18-78-33-114-36-79-64-53-34-180l6 30c0 1-7 27-7 38 0 69 73 114 136 79 56 240 219 90 306 90 95 0 34 94 158 115 137 23 100-57 250-25l-12-45c41 31 92 261 252 106 94-92 79-164 179-230l-13 45c77 0 132 63 206-31 66-83-1-218 100-285-21 88-33 38-46 191-7 82-45 89-45 182 170 0 137-105 126-194-15-120 55-142 55-247zm-1538 328c-13-3-3-25-2-24 20 2 21 27 2 24zm463-781c-1-59-21-73-49-108l-80-91c-1-1-4-4-5-6l-155-139c-79-59-316-245-389-210 5 53-16 18 32 46 13 8 35 16 55 25 92 46 293 189 368 254l223 229zm12-90c104-70 67-102 226-102 131 0 151 97 232 142 56 31 298 58 501 256 254 249 81 396 81 450 0 56 71 224-87 275-91 29-59-15-103 169l-123 543c-22 105-39 106-124 148-142 71-270 110-468 110-177 0-371-24-481-129-39-37-68-236-79-295l-86-400c-38-167-18-64-127-122-126-67-77-242-66-324 22-174-30-231 141-402 72-73 147-81 248-114 92-30 59-85 236-126-77-114-226-239-343-313l-318-181c-44-30-42-56-18-106 77-18 86-20 172 32 125 77 255 146 362 248 100 95 120 87 224 241z"/><path d="m18731 16290c95-89 235-110 361-104 162 8 318 136 386 279 74 159 65 249 27 415-18 74-69 129-125 179-75 64-161 122-260 141-147 28-275-10-393-100-136-102-225-268-216-440 9-156 111-270 220-370zm300 502c-67-26-88-69-45-132 90-107 188-5 171 67l-2 6c-14 42-66 70-110 62l-14-3zm-59-77c1 1 0 0 0 0zm89 55c0 1 1 0 0 0zm65-14c0 0 0 0 0 0zm-278-106c-51 174 160 330 314 231 68-47 120-131 92-215-33-87-108-176-210-160-59 8-137 46-172 94-11 16-18 31-24 50zm895 184c2 53-63 47-55 55 16 16 70 27 93 63 28 46-17 142-52 174-63 55-137-45-170-40-24 4 66 61 14 97-42 23-85-22-112-48-65-63-45-81 9-142 40-45 65-59 75-121 6-37 12-89 57-93 26-2 91 1 115 14 18 9 24 21 26 41zm-1424-557c18-52 17-67 49-100 105-102 147 35 218 76 33 19 19-18 7-33-9-11-41-42-44-49-12-25 2-40 21-55 44-33 75 34 91 65 70 136-7 128-84 222-47 59-49 75-74 142-9 24-12 22-43 25-36 2-99 1-112-43-14-51 114 1 20-61-68-44-71-55-46-128 51 18 60 23 105 51 22 14 31 18 9-7-27-30-83-80-116-104l-1-1zm298-209c-81-28-44 33-128 29-17 0-32-5-56-4-103 6-130 92-157 170-17 49 6-1 3 34-4 43-20 21-25 83-6 67 1 12 21 80 29 98 17 123 123 147 10 3 59 11 64 21 0 0 1 91 3 103 15 164 107 329 242 423 155 108 347 116 522 57 56-19 65-30 111-61 35-24 53-16 85 9 13 11 24 22 37 33 129 108 147-4 229-7 89-4 193-153 141-241-21-36-42-39-42-81 2-111-34-112-132-119-13-1-68-5-72-20-9-30-6-93-16-134-19-83-76-197-129-265-139-179-341-217-552-157-37 11-61 25-95 37-113 40-73-93-171-135l-6-2z"/><path d="m11470 6252c-259-22-122-98-238-125 0 159 26 419 51 572 84 525-34 345 210 401 0-75 0-151 0-226 0-76-12-118-12-204 1-154-11-273-11-418zm-593-416c8-50 67-38 55 4-9 30-54 35-55-4zm924-32c-65 64-94-64-43-62 19 0 59 39 49 55-2 2-4 5-6 7zm-121 196c16 40 60-3 31-23-15-10-35 1-31 23zm48 45c-20 22-20 14-44-9-7-6-33-26-32-35 1-23 19-51 44-53 45-5 67 40 43 81-4 6-7 11-11 16zm-522-236c1-24-38 0-20 10 7 4 17-2 20-10zm1 43c-85 24-83-108 1-84 18 5 37 28 32 48-5 19-15 29-33 36zm163 163c-4-57 87-82 73-10-9 51-62 53-73 10zm783-378c26-26-22-43-28-14-4 15 12 23 28 14zm-45-43c46-48 106-8 79 53-28 64-114 3-79-53zm-1034 1144c0-80-15-123-26-200-11-74-35-343-67-385-87-111-48-103-122-105 0 63 128 654 153 752 26 103 30 154 96 198 0-96-37-191-23-260 2 3 3 6 4 8l40 232c10 52 16 55 62 73 30 11 77 24 109 27 0-109-14-168-22-261l-55-454c-36-354 23-190-205-190 18 79 23 192 35 280 13 91 32 179 32 285h-11zm871 249c33-3 84-32 103-56 46-56 158-744 203-838-81 7-26 40-148 12-23 101-111 545-113 633-25-18-19-14-10-65l101-580c-68 0-66 1-92 44-51 83-78 183-200 194l-14 204-11-204c-123-65-59-49-115-100-51-46-92-7-156-2 0 154-3 310-1 464 1 59 9 63 12 113 2 37-2 75 2 112 14 127-7 182 43 182 156 0 170-5 170-226h11c0 84-11 135-11 204 53-5 126-31 171-56 44-25 18-1 34-33 12-24 44-207 44-251h11c0 54-20 219-34 249zm498-1301c0-47-68-147-94-178-40-47-86-85-137-123-84-61-174-93-271-125-35-11-72-14-98-26 8 97 108 263-100 420-230 174-535 68-611-150-15-40-6-69-15-98-23-72-332 74-380 249-14 52-20 142-25 201-8 92-63 223 38 290 49 32 59 20 109 15-16-34-18-78-34-113-35-80-63-54-34-181l6 30c0 1-6 28-6 38 0 70 73 115 136 79 56 240 219 91 306 91 95 0 34 93 158 114 137 23 100-57 250-24l-13-45c41 30 93 261 253 105 94-92 78-164 179-229l-13 45c77 0 132 63 206-32 66-83-1-218 99-285-20 89-32 39-46 192-7 81-44 88-44 181 169 0 137-104 126-194-15-119 55-142 55-247zm-1539 328c-12-2-2-24-1-24 20 3 21 28 1 24zm464-780c-1-59-21-73-50-109l-79-90c-1-2-4-4-5-6l-155-139c-79-59-317-246-389-211 5 54-16 19 32 47 13 7 35 16 54 25 93 45 294 189 369 254l223 229zm12-91c104-69 67-102 225-102 132 0 152 97 232 142 57 32 299 58 502 257 254 249 81 396 81 450 0 55 71 223-87 274-91 30-59-15-103 169l-123 544c-22 105-39 106-124 148-142 70-271 109-468 109-177 0-372-24-482-129-38-37-67-236-78-294l-87-401c-37-167-17-64-126-122-126-66-77-241-67-324 23-174-29-231 142-401 72-73 147-81 248-114 92-30 59-85 235-127-76-114-225-239-342-313l-318-181c-44-29-42-56-18-105 77-18 86-21 172 32 125 77 255 146 362 248 100 95 120 86 224 240z"/><path d="m11729 11809c82-7 167 34 223 92 23 24 56 80 68 110 54 139 17 280-79 392-61 72-69 42-93-31-14-43-25-86-39-128-27-84-57-176-88-259-10-27-62-144-47-166l4-4 6-3c8-2 35-2 45-3zm-332-541c5-6 8-8 14-12 28-5 29 21 37 44 29 84 54 175 82 261 7 20 13 39 18 59 0 9-13 13-20 17-13 8-9 8-26 12-65 23-150 96-192 151-44 56-74 117-83 188-15 136 22 233 138 308 36 22 106 49 148 49 8 0 18-2 5-7-21-9-74-54-89-71-67-76-92-182-46-276 40-75 142-145 226-157 18-3 104 276 115 309 32 96 65 190 97 285 17 49 25 52-15 81-85 61-263 73-364 57-317-51-553-324-474-653 56-235 218-433 384-601 15-15 30-30 45-44zm-40-441c-45-140-36-431-2-577 21-87 91-320 222-277 99 42 136 183 134 280-2 97-35 167-72 254-40 91-180 288-255 353 0 0-11 11-21-13-3-7-4-13-6-20zm-42 103c-91 92-191 210-269 314-283 381-456 893 9 1217 170 117 382 167 588 146 68-7 108-20 169-48 15-7 29-13 46-14 21 30 100 310 110 361 9 50 12 94 4 144-29 156-183 274-335 299-56 9-112 8-167-2l-8-2c-12-3-17-5-26-11 68-63 118-36 184-139 60-103 33-222-52-301-132-123-340-41-372 135-36 251 171 405 408 375 271-43 475-249 404-536-22-89-51-168-78-255-7-25-23-75-19-100 6-7 61-45 73-55 62-51 146-146 178-219 32-82 41-111 39-205-5-170-108-309-259-384-78-39-193-58-277-41-23 5-60 13-75-8-25-38-60-180-78-233-13-39-46-124-39-162l2-6 4-6c26-28 47-49 72-79 5-6 8-7 16-17 67-88 123-167 169-268 179-403 68-748-199-1076-14-17-27-32-42-47-14-14-26 2-38 14l-11 11c-28 29-59 82-80 120-122 222-149 521-109 767 14 87 34 169 62 253 11 32 20 27-4 58z"/><path d="m14377 26318c-259-21-122-97-237-124 0 159 26 419 50 572 84 524-33 344 210 401 0-76 0-151 0-227 0-75-12-117-11-203 0-155-12-273-12-419zm-593-415c8-50 68-39 55 4-9 30-53 34-55-4zm924-32c-65 64-93-64-43-63 19 1 59 40 49 55-2 3-4 6-6 8zm-121 196c16 40 61-3 31-23-15-10-35 1-31 23zm48 45c-20 21-20 14-44-9-7-6-33-26-32-36 2-22 19-50 44-53 45-4 67 41 43 82-3 6-7 11-11 16zm-522-236c2-25-38 0-20 9 8 5 17-1 20-9zm1 43c-85 24-83-108 1-84 19 5 37 28 32 48-5 19-15 28-33 36zm163 163c-4-58 87-82 73-10-9 51-62 53-73 10zm783-378c26-27-21-43-28-15-3 15 12 24 28 15zm-44-43c45-48 105-8 79 52-28 65-115 4-79-52zm-1035 1144c0-80-15-123-26-200-10-74-35-344-67-385-86-111-48-103-122-105 0 63 129 654 154 752 26 103 30 154 95 198 0-96-37-191-22-260 1 2 3 6 3 8l40 232c11 52 16 55 62 73 31 11 77 24 110 26 0-109-14-167-23-261l-55-453c-35-354 23-191-205-191 18 80 23 192 36 281 13 91 32 179 32 285h-12zm871 249c33-3 84-33 103-56 46-56 158-745 203-838-81 7-26 40-147 11-24 102-111 546-113 634-26-19-20-14-11-65l101-580c-68 0-65 1-92 44-50 83-78 183-200 194l-13 203-12-203c-123-66-59-49-115-100-51-46-92-7-156-2 0 154-2 310-1 464 1 59 10 62 12 113 2 37-2 74 2 111 14 128-7 183 44 183 155 0 169-5 169-226h11c0 83-11 135-11 203 53-4 126-30 171-55 44-26 18-2 34-34 12-23 44-206 44-250h11c0 54-19 219-34 249zm498-1301c0-48-67-147-94-178-39-47-85-86-137-123-84-61-174-94-271-125-35-11-72-14-97-27 8 98 108 263-101 421-229 173-535 68-611-150-14-41-6-70-15-99-22-71-331 75-379 250-15 51-21 142-26 200-7 92-63 224 39 291 49 32 58 19 109 15-17-34-19-78-34-113-36-80-64-54-34-181l6 30c0 1-6 28-6 38 0 70 72 115 135 79 56 240 219 90 306 90 95 0 34 94 158 115 137 23 100-57 250-24l-12-45c41 30 92 260 252 105 94-92 79-164 179-229l-13 45c78 0 132 62 206-32 66-83-1-218 100-285-21 88-33 38-46 191-7 82-45 89-45 182 170 0 137-105 126-194-15-119 55-142 55-247zm-1538 328c-12-2-3-24-2-24 20 3 21 28 2 24zm464-781c-2-58-22-72-50-108l-80-90c-1-2-4-5-5-6l-155-140c-79-58-316-245-389-210 6 53-16 18 33 47 12 7 34 15 54 25 92 45 293 188 368 254l224 228zm11-90c104-70 67-102 226-102 131 0 151 97 232 142 56 32 298 58 501 257 254 248 82 395 82 450 0 55 70 223-88 274-91 30-59-15-102 169l-124 544c-21 104-39 105-124 148-142 70-270 109-467 109-177 0-372-24-482-129-39-37-68-236-79-295l-86-400c-38-167-18-64-127-122-126-66-77-241-66-324 23-174-30-231 141-402 72-72 147-80 248-114 92-30 59-85 236-126-77-114-226-239-343-313l-317-181c-45-29-43-56-19-105 78-18 86-21 172 31 125 78 256 147 362 249 100 95 121 86 224 240z"/><path d="m20869 13517c0-90 50-174 119-224 23-17 52-31 83-31v13c-24 1-60 19-75 30-43 30-70 70-91 117-26 61-27 143 1 205 20 45 33 32 27 57-13-3-20-15-27-26-28-41-37-88-37-141zm252 335c0-10 14-40 18-49 18-32 53-63 82-85l19-15c27-20 51-37 81-53 16-9 27-17 42-25 8-5 14-8 22-12l107-60c95-53 219-106 311-155 16-9 31-15 46-22 107-54 251-125 359-174 31-13 60-28 91-43 24-11 162-80 183-82-28 54-46 73-67 137-31 92-4 116 4 148-121 64-259 128-384 190-43 22-82 41-125 63l-65 32c-22 10-41 20-63 31l-288 142c-23 10-79 42-95 45-18-12-30-41-58-65l-5-5c-31-26-28-17-85 13-14 7-17 6-23 14 8 2 26 7 33 10 15 7 50 49 55 65 3 12-4 13-15 18-28 12-95 51-120 51-27 0-60-57-60-87v-27zm-392-560c0-68 26-136 68-186l5-6c12-14 21-20 36-30 27-18 48-26 82-26-6 20-16 6-55 25-91 45-135 170-117 264 17 90 52 87 41 110-33-9-60-110-60-151zm-47-50c-17-2-4 2-14-7-18-18-38-69-44-93-15-63-8-137 23-193 12-22 15-28 33-47 1-1 1-2 2-2l10-10c22-20 58-37 90-37v10c-13 3-22 3-35 8-132 52-142 253-80 342 7 11 13 13 15 29zm-175-366c0-75 42-157 115-184 0 0 1-1 2-1 18-6 29-7 37 4-20 0-19 0-34 6-124 47-133 226-77 321 9 16 14 8 14 29-13-4-18-14-24-26-31-56-33-87-33-149zm-127-181c-22-6-26-28-35-46l-6-17c-12-33-2-20-8-35-4-9-1 6-5-9l7-71c0 19 0 38 0 57l17 71c2 5 5 12 8 18 6 12 15 22 22 32zm37 20c0-17 2-50 7-63 2-7 5-17 8-26l14-29c3-6 2-3 4-6 17-21 42-47 71-47-9 12-2 1-23 11-8 5-12 8-17 13l-39 55c-21 47-19 122-5 172l2 6c0 0 0 1 1 2l5 14c1 1 1 2 1 3 12 23 29 46 31 53-16-5-25-22-33-38l-24-70c-2-19-3-30-3-50zm134-178c-10 9-11 7-27 7l27-7zm-218-23c0-18-4-19 7-27 0 5 0 12-1 16-1 6 0 3-3 8l-3 3zm326-335c86-25 170-46 258-63l237-38c35-1 50-7 82 3 40 12 91 23 142 39 71 23 43 17 88 52l163 136c1 0 1 1 2 1l213 169c17 14 34 27 51 40l416 315c18 12 34 25 52 38 25 19 32 17 32 59v110c0 25-3 34-3 57-80 43-194 91-282 135l-221 107c-10 5-20 9-30 14l-247 122c-118 55-102 75-150 15-7-9-8-11-17-19l-152-174c-10-14-22-27-34-39l-163-196c-12-15-22-25-34-40l-468-615c-19-28-112-155-114-175l179-53zm-433 201c0 44 20 86 35 125l100 202c19 22 43 63 51 90 21 72 36 69 60 101 6 9 9 16 14 26 10 18 11 42 19 62 8 22 14 38 26 55 34 48 23-1 57 63 34 66 15 38 35 86 24 58 52 62 66 91 8 15 26 39 29 52 8 43 20 79 47 113 4 5 6 7 11 10 8 4 8 2 14 5 8 5 14 15 18 23 19 37 43 67 53 108 25 104 69 105 80 118 17 23 55 96 75 127l68 113c17 31 39 66 80 66 11 0 150-66 172-80 15 22 25 48 36 74 8 17 20 65 37 70 1-13 6-17 10-30 4-10 6-18 10-27 13 7 19 14 32 23 9 7 19 16 32 17-2-11-3-12-8-22l-69-142c40-27 154-75 202-100l267-128c105-47 255-128 362-185l95-53c21-12 43-26 64-36 26-14 91-45 33-69l-20-6c-4-33-3-46 5-82 4-18 7-25 13-41 2-7 5-12 8-18 13-29 49-104 70-121 19-15 51-23 71-36-13-25-55-47-77-64l-119-89c-61-41-118-87-177-131-7-6-13-9-20-14l-137-104c-41-32-100-73-136-105-8-7-14-10-22-16l-95-75c-39-31-79-59-116-92-12-11-25-20-38-30l-259-220c-8-8-27-33-38-33-87 0-239 10-326 29l-114 21c-84 12-262 61-350 89l-165 56c-11 3-22 6-33 11l-29 11c-31 13-60 27-84 51-15 15-25 32-25 61z"/><path d="m17157 18771c-73 0-147 1-211 12-28 5-71 6-103 13-34 7-58 13-94 20l-86 23c-90 31-162 58-247 97l-255 138c-90 47-202 118-294 164-16 8-28 11-42 18 1-38 17-35 16-103 0-19-1-41 1-60l14-111c5-20-2-7 10-18l472-243c9-5 8-5 17-9l148-71c36-20 133-55 176-69 17-6 26-11 45-16 18-5 31-10 46-14 18-6 35-7 53-12 87-25 272-44 372-27 34 6 24 16 60 17-4 16-37 66-48 82-55 78-37 110-50 169zm153-170c-35 0 9-51 18-63 18-24 32-41 51-64l57-57c12-10 20-21 31-29 108-81 258-140 411-157l154-16c70-9 141 1 213-10 66-10 159 2 223-6l206-18c0 97-2 43 13 102 3 12 3 31 6 49 20 118 80 123-24 122h-317c-33 2-62 6-103 6-143-1-343 18-476 59-15 5-25 9-40 14-153 52-183 116-227 145-15-23-18-36-32-61-38-74-120-16-164-16zm-2173-676c23 6 32 31 48 55l130 192c30 45 52 87 82 131 30 46 54 90 85 134l60 98c8 13 13 21 21 33l166 260c16 24 29 41 45 65 67 102 35 44 29 189-2 55-11 40-11 120-17-6-21-19-28-32l-143-223c-1-1-5-7-7-10l-48-77c-11-15-16-23-26-39l-150-238c-17-29-31-48-49-77l-146-235c-6-9-5-7-11-17l-18-31c-1-1-1-2-2-3-1-1-2-3-2-4-1-1-1-2-2-3-4-6-3-5-6-11l-19-29c-7-10-8-10-14-19-28-45-39-55-32-80 6-24 2-119 48-149zm33-22c21-32 77-58 111-81l260-159c73-37 130-66 210-96 21-9 39-12 58-18 11-4 17-7 29-10 13-2 21-2 33-5 17-4 9-4 30-8 75-15 154-14 228 2l104 32c58 26 108 55 151 100l22 22c1 1 4 4 5 5l264 250c7 7 10 9 17 15l505 479c17 14 28 12 31 39-125 0-103-6-240 0-71 4-116 15-185 29-51 11-112 33-162 51-30 11-53 18-80 29l-531 266c-13 8-23 13-35 19l-111 53c-60 32-53 10-89-45-1-1-2-2-3-3l-100-151c0-1-1-3-2-4l-202-322c-9-15-12-16-22-32l-209-327c-28-44-62-83-87-130zm2014-513c88 0 177 3 264-9 80-11 75-18 108 8 27 20 56 36 85 57l335 227c167 108 428 285 585 403 20 15 69 37 75 61-15 2-29 5-46 8l-347 20c-126-1-363 11-482 41-18 5-25 9-42 13-45 10-42 14-79 25-22 7-17 6-35 14-52 21-136 68-177 107-1 0-2 1-3 2-35 32-56 49-88 87l-27 27-116-102c-13-13-17-14-30-25-11-9-18-17-28-27l-378-358c-1-1-2-2-3-3-1-1-2-2-3-3l-80-77c-1-1-2-2-3-3-1-1-2-2-3-3l-124-116c0-1-2-2-3-3l-130-126c12-52 114-134 176-167l81-34c29-10 58-17 90-25 81-19 334-19 428-19zm322-50c-17 15-31 12-74 19-27 5-55 3-84 3-64 0-107 6-170 6-50 0-109-12-167-4-47 6-117 3-166 9-136 16-279 46-380 149-21 21-70 69-78 97-38-10-207-199-578-97-18 5-27 10-49 15-86 23-174 71-251 115l-345 218c-22 12-50 13-76 55-17 27-24 61-33 97-18 70-4 64-26 73-2 0-23 4-28 4v28c14 9 16 18 26 33 10 14 16 24 26 40l84 134c5 8 7 12 12 20l17 27c1 3 4 6 6 10 74 128 185 288 253 408l61 97c49 82 97 151 141 236l96 155c17 25 49 61 53 73h11c10-14 57-33 78-42l879-366c113-43 263-131 383-114 112 16 209 18 304-39 175-106 165-108 369-133l667-80c38-8 115-12 168-18 17-2 38-4 60-6 66-9 162-11 225-26 0-22-2-41 4-61l7-15v-55c-33-17-149-119-213-153 0-109 12-50 16-104-9-4-13-4-22-10-57-38-22 0-62-31l-1039-713c-16-10-60-36-67-54h-38z"/><path d="m17260 21335c0-89 49-174 119-223 22-17 52-32 82-32v14c-23 0-59 19-74 30-43 29-71 70-91 116-26 62-27 143 1 206 20 45 33 32 27 57-13-3-20-16-27-26-28-41-37-89-37-142zm252 336c0-10 13-40 18-49 18-33 53-63 82-86l19-14c27-20 51-37 81-54 15-8 27-16 42-25 8-4 13-7 22-11l107-61c95-52 219-105 311-155 16-8 30-14 45-22 108-54 252-125 360-173 31-14 60-29 91-43 24-12 162-80 183-82-28 54-46 73-67 137-31 92-4 115 4 148-121 64-259 128-384 190-43 22-82 41-125 63l-65 32c-22 10-41 20-63 31l-288 141c-23 11-79 42-95 46-18-12-30-41-58-66l-6-4c-30-26-27-17-84 12-15 8-17 6-23 14 8 2 26 8 33 11 14 7 50 48 54 65 4 11-3 13-14 18-28 12-95 51-120 51-27 0-60-57-60-88v-26zm-393-560c0-69 26-136 69-187l5-5c11-14 21-20 36-30 27-19 48-27 82-27-6 21-16 7-55 26-92 45-135 170-117 264 17 90 52 87 41 110-33-9-61-111-61-151zm-47-51c-17-2-3 2-13-7-19-18-39-68-44-92-15-63-8-137 23-193 12-23 14-28 33-48 1 0 1-1 2-1l10-10c22-21 58-38 90-38v10c-13 4-22 4-35 9-132 52-143 253-80 342 7 10 13 13 14 28zm-174-365c0-75 42-158 114-184 1-1 2-1 3-1 18-6 29-8 37 4-20 0-19-1-34 5-124 48-134 226-77 321 9 16 14 8 14 29-13-3-18-14-24-26-31-55-33-87-33-148zm-127-181c-22-6-26-29-35-46l-6-17c-12-33-2-21-8-36-4-8-1 7-5-9l7-70c0 19 0 38 0 57l16 70c3 5 6 13 9 19 6 12 15 22 22 32zm37 20c0-18 2-50 7-64 2-6 5-17 8-25l14-30c3-5 2-3 4-5 16-21 42-47 71-47-9 12-2 0-23 11-8 4-12 7-18 12l-38 55c-22 48-19 123-5 173l2 5c0 1 0 2 0 3l6 14c1 1 1 2 1 2 12 24 29 47 31 53-17-4-25-21-33-37l-24-70c-2-19-3-31-3-50zm134-178c-10 8-11 7-27 7l27-7zm-218-23c0-18-4-20 6-27 0 4 1 12 0 16-1 6-1 2-3 7l-3 4zm325-335c86-26 171-46 259-64l237-37c35-2 50-8 82 2 39 13 91 23 141 40 72 23 44 17 89 52l163 135c0 1 1 1 2 2l213 169c17 14 33 26 51 39l416 315c18 12 34 25 52 39 24 18 32 17 32 58v111c0 24-3 34-3 57-80 43-195 90-282 134l-221 108c-10 4-20 8-30 14l-247 121c-119 55-102 75-150 16-7-9-8-11-17-20l-152-173c-11-14-22-27-34-40l-163-195c-12-15-22-26-34-41l-468-614c-20-29-112-155-114-175l178-53zm-433 201c0 43 21 85 36 125l100 202c19 21 43 63 51 90 21 71 36 69 60 101 6 9 9 16 14 26 10 17 11 41 19 62 8 21 14 37 26 54 34 49 23-1 57 64 34 66 14 38 34 86 25 58 53 62 67 90 8 16 26 40 28 53 9 42 21 78 48 113 4 4 6 7 11 9 8 5 8 3 14 6 8 4 14 15 18 23 19 37 43 67 53 108 25 103 69 104 79 118 18 23 55 96 75 126l68 113c18 32 40 67 81 67 11 0 150-66 171-81 15 23 26 49 37 74 8 17 20 66 37 71 1-14 6-18 10-30 3-10 6-19 10-27 13 7 19 13 31 22 10 7 20 17 33 18-3-11-3-12-8-22l-69-142c40-27 154-76 202-100l267-129c105-47 255-127 362-184l95-53c21-13 43-26 64-37 26-14 91-44 33-68l-20-6c-4-34-3-47 5-82 4-18 7-25 13-41 2-7 5-12 8-19 13-28 49-103 70-120 19-16 51-23 71-37-13-24-55-47-77-63l-119-89c-61-41-118-88-177-132-7-5-13-8-20-14l-137-104c-41-31-100-72-136-105-8-7-14-9-22-15l-95-76c-39-31-80-59-116-92-12-10-25-19-38-29l-259-221c-8-7-27-32-38-32-87 0-239 10-326 29l-114 21c-84 12-262 60-350 89l-166 55c-10 4-21 7-32 12l-29 11c-31 12-60 27-84 50-15 15-26 33-26 62z"/><path d="m12738 9156c0-89-49-174-118-223-23-17-53-31-83-31v13c23 1 59 19 74 30 43 29 71 70 91 117 27 61 27 143-1 205-20 45-33 32-27 57 13-3 20-16 27-26 29-41 37-89 37-142zm-252 336c0-10-13-40-18-49-18-32-53-63-82-86l-19-14c-27-20-51-37-81-54-15-8-27-16-42-25-8-4-13-7-22-11l-107-60c-95-53-219-106-311-156-16-8-30-14-45-21-108-55-252-126-360-174-31-14-60-29-91-43-24-11-162-80-183-82 28 54 46 73 67 137 31 92 4 116-3 148 120 64 258 128 383 190 43 22 82 41 125 63l65 32c22 10 41 20 63 31l288 141c23 11 79 42 95 46 18-12 30-41 58-66l6-4c30-26 27-17 84 13 15 7 17 5 23 14-8 1-26 7-33 10-14 7-50 48-54 65-4 11 3 13 14 18 28 12 95 51 120 51 27 0 60-57 60-87v-27zm393-560c0-69-26-136-69-187l-5-5c-11-14-21-20-36-30-27-18-48-26-82-26 6 20 16 6 55 25 92 45 135 170 117 264-17 90-52 87-41 110 33-9 61-111 61-151zm47-51c17-1 3 2 13-6 19-19 39-69 44-93 15-63 8-137-23-193-12-22-14-28-33-48 0 0-1-1-2-1l-10-10c-22-21-58-38-90-38v11c13 3 22 3 35 8 132 52 143 253 80 342-7 10-13 13-14 28zm174-365c0-75-42-158-114-184-1 0-2-1-3-1-18-6-29-8-37 4 20 0 19 0 34 5 124 48 134 227 78 321-10 16-15 8-15 29 13-3 18-14 25-25 30-56 32-88 32-149zm127-181c22-6 26-29 35-46l6-17c12-33 2-20 8-36 4-8 1 7 5-9l-7-70c0 19 0 38 0 57l-16 71c-2 4-6 12-9 18-6 12-15 22-22 32zm-36 20c0-18-3-50-8-63-2-7-4-18-8-26l-14-29c-3-6-2-4-4-6-16-21-42-47-70-47 8 12 1 0 22 11 8 4 12 7 18 13l39 55c21 47 18 122 4 172l-1 5c-1 1-1 2-1 3l-6 14c0 1-1 2-1 2-12 24-29 47-31 54 17-5 25-22 33-38l24-70c2-19 4-31 4-50zm-135-178c10 9 11 7 27 7l-27-7zm218-23c0-18 4-19-6-27 0 5-1 12 0 16 1 6 1 3 3 7l3 4zm-325-335c-86-25-171-46-259-63l-237-38c-35-2-50-8-82 2-39 13-91 23-141 40-72 23-44 17-89 52l-163 135c0 1-1 1-2 2l-213 169c-17 14-33 27-51 40l-416 314c-18 13-34 26-52 39-24 18-32 17-32 59v110c0 25 3 34 3 57 81 43 195 90 282 134l221 108c10 5 20 9 30 14l247 121c119 55 102 76 150 16 7-9 8-11 17-20l152-173c11-14 22-27 34-40l163-195c12-15 22-26 34-40l468-615c20-29 112-155 114-175l-178-53zm433 201c0 43-21 85-36 125l-100 202c-18 21-43 63-51 90-21 72-36 69-60 101-6 9-9 16-14 26-10 17-11 42-19 62-8 22-14 37-25 54-35 49-24 0-58 64-34 66-14 38-34 86-25 58-53 62-67 91-8 15-26 39-28 52-9 43-21 78-48 113-4 4-6 7-11 9-8 5-8 3-14 6-8 4-13 15-18 23-19 37-43 67-53 108-25 103-69 104-79 118-18 23-55 96-75 126l-68 113c-18 32-40 67-81 67-11 0-150-66-171-80-15 22-26 48-37 73-8 17-20 66-37 71-1-14-6-18-10-30-3-10-6-18-10-27-13 7-19 13-31 22-10 7-19 17-33 18 3-11 4-12 8-22l69-142c-40-27-154-76-202-100l-267-129c-105-46-255-127-362-184l-95-53c-21-12-43-26-64-37-26-13-91-44-33-68l20-6c4-33 3-47-5-82-4-18-7-25-13-41-2-7-5-12-8-18-13-29-49-104-70-121-19-16-51-23-71-37 13-24 55-47 77-63l119-89c61-41 118-88 177-132 7-5 13-8 20-13l137-104c41-32 100-73 136-106 8-6 14-9 22-15l96-75c38-32 79-59 115-92 12-11 25-20 38-30l259-221c8-7 27-32 38-32 87 0 240 10 327 29l113 21c84 12 262 60 350 89l166 56c10 3 21 6 32 11l29 11c31 12 60 27 84 50 15 15 26 33 26 62z"/><path d="m15029 8419c65 0 131 1 189 11 25 4 63 5 91 11 31 6 52 11 85 18l76 21c81 27 145 52 221 87l229 123c80 42 180 105 263 147 14 7 24 9 37 16-1-34-15-32-15-93 0-16 1-37 0-53l-13-100c-5-17 2-6-9-15l-422-218c-8-4-7-4-15-8l-132-64c-33-17-119-49-158-62-15-5-23-9-40-14-16-4-28-8-41-12-16-5-31-6-48-11-77-22-243-40-332-24-31 6-22 14-54 15 3 15 33 59 43 74 49 70 33 98 45 151zm-137-152c31 0-8-45-17-56-16-22-28-37-45-58l-51-51c-10-9-17-18-28-26-96-72-230-125-367-141l-138-13c-63-9-126 1-191-9-59-9-142 2-199-6l-184-16c0 87 2 39-11 92-3 10-3 27-6 43-18 106-71 110 21 109h284c29 2 55 5 92 5 128 0 306 16 426 53 14 5 22 9 36 13 136 46 163 103 202 130 14-21 17-33 29-55 35-66 107-14 147-14zm1943-605c-20 5-28 28-43 49l-116 172c-27 40-47 78-73 118-27 40-49 80-76 119l-54 88c-7 11-12 18-19 30l-148 232c-14 21-26 37-40 58-60 91-32 40-26 169 1 49 9 35 9 107 16-5 19-16 26-28l127-200c1-1 5-6 6-8l44-69c9-14 14-21 23-36l134-212c15-26 28-43 43-69l132-211c4-7 4-6 9-14l16-28c1-1 2-2 2-3 1-1 1-2 2-3 0-1 1-2 2-3 3-6 2-5 5-10l17-26c6-9 7-9 13-17 24-40 34-50 28-72-6-21-2-106-43-133zm-29-20c-19-28-69-51-99-72l-233-143c-66-32-117-58-188-85-19-8-35-11-52-16-9-4-15-6-26-9-11-2-18-1-29-4-15-4-9-4-27-8-67-13-138-12-204 2l-93 29c-51 23-97 49-135 90l-19 19c-1 1-4 4-5 5l-236 223c-7 6-10 8-16 14l-451 427c-16 13-26 11-28 36 112 0 93-6 215 0 63 3 104 13 165 26 46 9 101 29 145 45 27 10 48 17 71 26l475 238c12 7 21 11 32 17l99 48c54 28 47 8 80-41 1-1 1-2 2-3l90-135c0-1 1-2 2-3l180-288c9-14 11-15 20-29l186-292c26-40 57-75 79-117zm-1802-459c-78 0-158 3-236-7-72-10-66-16-96 7-25 18-51 32-76 51l-300 203c-149 96-383 255-523 360-18 14-61 33-67 55 13 1 26 5 41 7l310 18c113-1 325 10 432 37 15 4 21 7 37 11 40 9 38 13 70 23 21 6 16 5 32 12 46 19 122 61 159 95 0 1 1 2 2 3 31 28 50 43 79 77l24 25 104-92c11-11 15-12 26-22 10-8 16-15 25-24l339-321c0 0 1-1 2-2 1-1 2-2 3-3l72-69c0-1 2-2 2-2 1-1 2-2 3-3l110-104c1-1 2-2 3-2l117-113c-11-47-102-120-158-150l-72-30c-26-9-52-15-81-22-72-18-298-18-383-18zm-288-44c16 14 29 11 66 17 25 4 50 3 76 3 57 0 95 5 151 5 45 0 98-11 150-4 42 6 104 3 148 8 123 15 250 42 341 134 19 19 62 61 69 86 35-9 186-178 517-87 16 5 24 9 44 15 77 20 155 63 224 102l309 195c20 11 45 11 68 49 15 24 22 55 30 87 16 62 3 58 23 65 2 1 20 4 25 4v24c-13 9-15 17-24 30-8 13-14 22-22 36l-76 120c-4 7-6 11-11 18l-15 24c-1 3-3 6-5 9-67 115-166 257-227 365l-54 87c-44 73-86 135-126 211l-86 138c-15 22-44 55-47 66h-10c-9-13-51-30-70-38l-786-327c-102-39-236-117-343-102-99 14-187 16-271-35-157-95-148-97-330-119l-597-72c-34-7-102-10-150-16-15-2-34-3-54-5-59-8-145-10-201-23 0-20 2-37-4-55l-6-14v-49c29-15 133-106 190-136 0-98-10-45-14-93 8-4 12-4 20-9 51-34 20-1 55-28l930-638c14-9 53-32 59-48h34z"/></g><text x="13005" y="9790" fill="#373435" font-family="&apos;Arial Black&apos;" font-weight="900" font-size="529.17">NN 1</text></g></g><g clip-path="url(#1)"><g><g><g fill="#ff0a4b" stroke="#ff0a4b" stroke-width="7.62"><path d="m19944 31230l75-31776c521-602 564-600 718-706-26 10883-53 21766-79 32649 0 15 6 24-3 22-232-34-297-44-711-189z"/><path d="m18446 29513l63-26652c199-1073 591-2016 721-2159l-73 30005c-544-633-541-794-711-1194z"/></g><g/></g><g stroke="#201e1e"><path d="m2738 23881c-30-18 27-48 43-4 21 56-69 97-106 33-43-76 62-161 140-92 21 18 28 35 39 59 5 11 22 8 32 8 732 0 1463 0 2195 0 65 0 46-4 79 51 56 94 170 151 265 83 123-86 27-250-62-201-26 14-34 46-4 64 20 11 44 22 27 53-38 64-170-1-132-116 37-113 182-124 268-47 40 36 45 61 71 100 12 17 22 13 43 13 289-3 580 0 869 0 119 0 1358 2 1363 0 10-4 34-94 116-86 84 7 96 117 28 135-51 13-73-50-41-60 10-4 14 3 18 11" fill="none" stroke-width="50"/><g fill="#201e1e" font-family="&apos;Baskerville Old Face&apos;" stroke-width="25"><text x="8654" y="14850" font-size="1027.36" transform="matrix(.91624 0 0 1-5417.53 7937.47)">Texto 01</text><g font-size="874.69"><text x="8929" y="14850" transform="matrix(.90601 0 0 1-5503.61 8706.86)">Texto 02 </text><text x="8566" y="14850" transform="matrix(.90601 0 0 1-4219.44 10259.1)">00.00.0000</text></g></g></g><text x="7131" y="9790" fill="#373435" font-family="&apos;Arial Black&apos;" font-weight="900" font-size="529.17">NN 1</text></g></g></svg>